<svg xmlns="http://www.w3.org/2000/svg" id="a" width="1920" height="2400" viewBox="0 0 192 240"><defs><style>.b{fill:none;stroke:#fff;stroke-miterlimit:10;stroke-width:.3px}</style></defs><path d="M0 0h192v240H0z" style="stroke-width:0"/><path d="M9 214c6.8-2.7 7.7 15.1 18.2 14.9 3.4.1 6.9-.3 10.3-.4q3.5.2 7 .8 3.8.3 7.8 0 2.6.1 5.2.4l13 1c3.4.4 7 1.4 10.3.6 2.3-.6 4.3-2.2 6.1-3.6 2.9-2.1 5.7-4.6 8.7-6.6s6.6-.3 9.5 1.2q3.8 2 7.8 3.6c3 1.2 6.3 2 9.5 1.6 5.8-1 10.4-2 15.6 1.7a15 15 0 0 0 7 2.7c3 .2 6-1.2 7.7-3.9 2.6-3.2 5.2-11 8.7-12.6 6.5.2 6.4 19.4 21.6 11.3" class="b"/><path d="M9 215.1c6.9-6.5 8.1 14 18.2 12.7 3.4-.2 6.9-1 10.3-1.2q3 0 6.1.4c2.3.3 4.7 0 7-.1l6.9.2c2.6.2 5.2 1 7.8 1.5l5.2 1c4.5 1.3 9 2 13-1.3 3.5-3.2 7.1-6.6 11.2-9.3 3.3-2.5 6.5-.8 9.5 1.2q3.8 2.3 7.8 4c3 1 6.3 2 9.5 1.5 6-1.6 10.3-2.7 15.6 1.5a14 14 0 0 0 7 3c3.1 0 6.5-.1 8.6-2.8 2-2.5 3.6-5.6 5.2-8.4 1.4-2 3-6.6 6-5.1 4.3 3.2 5.4 10.6 11.3 11.4 2.7.1 5.3-1.4 7.8-2" class="b"/><path d="M9 217.5c7.1-10.1 9.2 10 17.3 9.5 4.1 0 8-1.8 12.1-2.3q3-.3 6-.2 5.3-.4 10.5 0c5 .2 9.7 2.6 14.7 3.6 4 1.3 7.7 1.9 11.2-.7 4-2.8 7-7 11.3-9.3 2-1.2 4.3-3.3 7-2.6 1.8.6 3.5 2 5.1 3.1q2.5 1.7 5.2 3c3.5 1.5 7.4 2.9 11.3 2.4 4.8-.8 8.1-3.5 13-.5 2.8 1.8 5.2 4.7 8.6 5.3 1.7.4 3.5.1 5.2.2 3.4.3 6-1.8 7.8-4.5l4.4-7.3c1-1.7 2.3-4 4.3-4.7 3.8-.4 5.9 6.9 9.5 8.6 3 1.6 6.4-.9 9.5-.2" class="b"/><path d="M9 219.5c6.5-9.6 9-.5 13.8 4.5 2.9 3.1 6.9 2.1 10.4.8q3-1.4 6-2.4 2.7-.7 5.3-.9t5.2.2q4.4.2 8.6 1.2 5.3 1.7 10.4 3.2c2 .6 4 1.4 6 1 6.8-1.6 10.3-8.7 16.5-11.3 4.3-1.9 6.1-4.4 10.4-.6a28 28 0 0 0 16.5 7.2c3 .4 5.8-.5 8.6-1.3q3.8-1 7 1.6c3.5 3 6 6 11.2 5.4q2.6.2 5.2 0c5.7-.7 8.4-6.7 11.3-11 1.4-2 2.7-4.6 5.2-5.4 1.3-.2 2.6.9 3.4 1.7q1.9 2.3 4.4 4 2.4 1.1 5.2 1 1.7.2 3.4.6" class="b"/><path d="M9 219c2.5-2.4 5.8-6.7 9.5-3.7 2.4 2 3.8 5.2 6 7.3 2.7 2.7 6.5 2.3 9.6.8 4-2.1 7.2-5 12.1-4.4 5.6.4 11 2.2 16.5 3.4l5.2 1.4q2 .8 4.3 1c3.1 0 5.5-2.4 7.8-4.3a66 66 0 0 1 7-5.3c1.7-1.2 4-1.9 6-2.6 3.3-1.5 4.7-2.2 7.8.5 2.5 2.3 5.3 4.7 8.6 6 5.5 1.9 11.5 2.8 17.3 1.8q3.9-.6 7 1.7c2.8 2.4 5.6 4.7 9.5 4.3q3.5-.1 7-.2c13.6-.7 15.2-20.5 21.6-15.8 2.5 1.8 4.7 4.4 7.8 5.3 1 .1 2.4.4 3.4.7" class="b"/><path d="M9 216.1c3.5-3 8-8.3 12-3 1.6 1.9 2.9 4.3 4.4 6.1 2.5 3 6 4 9.6 2.1 2-1 3.9-2.6 6-3.4 3.7-1.1 7.7-.4 11.3.9 5.4 1.1 11 1.8 16.4 3.1 3.6 1.2 6.2-1 8.7-3.3a35 35 0 0 1 11.2-7l4.4-1.1c2.3-1 3.8-1.8 6 0 2.6 2.1 4.8 4.8 7.8 6.3q4.2 1.8 8.7 2.8 6.3 1.5 13 2.1 3 .5 6 1.7c1.9 1 4 2 6 1.7l7-.8q6.1-.5 12.1-2.2c2.8-1 4.6-3.7 6.1-6.1 1.6-2.2 3.8-8.9 7-8 2.4 1 3.8 3.7 6 5 1.2 1 3 1 4.3 1.4" class="b"/><path d="M9 212.9c3.2-2.6 7.6-9.3 12-5.4 3.8 3.6 5 10 10.5 11.6 4 1.1 7.3-2.7 11.2-2.3q3 0 6.1.6 3 .2 6 .9 5.2.8 10.5 1.2c2 0 4 .6 6 0 3.4-1.4 5.5-5 8.7-6.6q3.7-1.9 7.8-3.2c2-.5 4.2-.7 6-1.7 2.9-1.3 5.2 1.7 7 3.5q2.6 2.9 6 4.5c5.6 2.2 11.5 3.7 17.3 5.3q3.4 1 7 2 3.8.5 7.8 0 2.6-.4 5.1-1.2l8.7-2q2.6-.6 5.2-.3c2 .3 4.4.6 6-1 2.9-2.6 4.2-6.6 6.1-9.8 1.6-2.9 3.3-4.2 6-1.6 1.4 1.2 2.8 2.7 4.4 3.6.7.4 1.9.6 2.6.9" class="b"/><path d="M9 210.8c3.4-2.7 6.9-9.6 12-7.8 5.3 3 5.5 11 12.2 12.8 2.3.6 4.6-.1 7 0 2.5 0 5.1 1.2 7.7 1.1 3.5 0 7 .9 10.4 1.3 3.2.5 6.4.1 9.6-.4 5.1-.5 7.4-6.2 12-7.8 2.9-.9 5.9-1.3 8.7-2.2q2.3-.5 4.4-1.5c3.8-1 6 3.8 8.6 5.9q3.5 2.9 7.8 4 6.9 2.5 13.9 4.5c2.6.7 5.1 2 7.7 2.6 3.8 1 7.2-1.3 10.4-2.9 2.8-1.4 5.9-2 8.7-3.2q5.2-2 10.4.1c3.1 1.2 5.5-1.3 7-3.8 2-3 4.7-12.5 9.5-8.6 1.9 1.5 3.6 3.5 6 4.3" class="b"/><path d="M9 210.1c4-3 8.8-12.8 14.7-9 2.9 2.4 4.2 6.3 7 8.7 2.5 2 5.6 3 8.6 3.9 2.5 1 5 2.3 7.8 2.4 3.4.2 7 .9 10.4 1.3q4 .4 7.8-.7c6.9-1.6 7-4.2 12-8 2-1.3 4.7-1.4 7-1.6q3.6-.6 7-2c3.8-1.1 6.2 3 8.6 5.4 2 2.2 4.9 3.8 7.8 4.6 3.5 1 6.9 2.4 10.4 3.4q5.3 1.2 10.4 3.3c6.1 2.7 8.3.8 13-3.1 1.7-1.5 4-2.5 6-3.4 2.2-1 4.5-2 7-2.1 4.5-.4 8.3 4.2 12 0 3-2.7 5.8-13.4 10.5-11.6 2.2 1.1 4 3.3 6 4.7" class="b"/><path d="M9 209.9c4.5-3.4 8.2-11.9 14.7-11.1 2.6.7 4.3 3.3 6 5.2 1.9 2.2 4.8 3.2 7 5 1.7 1 3.3 2.6 5.2 3.6q2.4 1.2 5.2 1.7c4.2 1 8.6 2.3 13 2q3-.6 6-1.7 2.8-.8 5.2-2.5c3-2.4 5.5-6.2 9.6-6.7 2-.3 4-.2 6-.7 6-1.9 7.4-.4 11.3 3.9 2 2.4 4.7 4.5 7.8 5.3q5.6 1.5 11.2 3.4c3.5 1 7 1.5 10.4 2.8 5.5 2.1 8.4 3.3 13-1.3q5.2-5.3 12.1-7.6 3.2-.7 6 .3c3 1 5.5 1.4 7.9-.9 3.4-2.8 6-11.5 10.4-11.8 2.5.3 4.3 2.5 6 4" class="b"/><path d="M9 209.3c3.8-3 6.3-7.4 10.4-10.2 3.5-2 6.3-2 9.5.5q2.2 1.7 4.3 3 1.8 1 3.5 2.1c1.4 1.3 2.8 3 4.3 4q2.9 2 6 3.2c9.2 3.9 13.7 3.7 22.6-.5 3.3-1.7 5.5-5.1 8.6-7 2.6-1.6 5.8-1 8.7-1.3q3.2-.6 6 .7c4.2 2.5 6.7 7.3 11.3 9 3 1.2 6.4 1.6 9.5 2.5 4 1.2 8.2 1.6 12.2 2.6 3.1.7 6.2 2.2 9.5 2.6 3.4.2 6.1-2.5 8.6-4.5 2.8-2 5.5-4.3 8.7-5.6 5.4-2.5 8.8 1.3 13.9-2.9 3.8-3 5.8-8.3 10.3-10.6 2.4-1 4.6 1 6.1 2.6" class="b"/><path d="M9 208c3.6-2.4 6-6.3 9.5-8.8a11 11 0 0 1 11.3-1c2.5 1.3 5.4 2.1 7.7 3.6 1.8 1.4 3.4 3.3 5.2 4.6q2.9 2.1 6.1 3.6c5.8 3 10.3 3.6 16.5 1.3q3.2-1 6-2.6c2.2-1.4 4-3.5 6-5 2.3-1.8 5.2-2.2 7.9-2q3.6 0 6.9 1.2c4.5 2.4 7.4 7.3 12.1 9.3q3.8 1.3 7.8 1.8c4.9.9 9.9 1.2 14.7 2 3.8.5 7.5 2 11.3 2.3 7 .1 11.5-6.5 17.3-9.5 1.8-1 4-1.3 6-2q4-1.4 7-4.1 3.3-3.1 7-5.9c2.4-1.8 5.3-2.4 7.7 0" class="b"/><path d="M9 206.2c3.2-2 5.6-5.2 8.6-7.4 4-2.7 9.3-2.5 13.9-1.4l4.3 1.2q1.9.3 3.5 1.4c2 1.5 4 3.5 6 5a45 45 0 0 0 5.2 3.2c2.7 1.4 5.7 2.6 8.7 2.3 4.2-.4 8.3-2 12.1-3.6 3.4-1.6 6-4.7 9.5-6q3.5-.9 7 .2 2.7.6 5.2 1.8c3.4 2 6.1 5.1 9.5 7.3 4 2.7 9.2 2.7 13.9 3l10.3.4q4.4 0 8.7.3c2.6.4 5.2 1.3 7.8 1.6 6.5.5 10-6.3 14.7-9.6q2.2-1.4 4.3-2.6l7.8-4.7c4-2 8.7-5.7 13-2.9" class="b"/><path d="M9 203.9c3.1-1.7 5.6-4.6 8.6-6.4 2.4-1.3 5.2-1.2 7.8-1.1h8.7c4.6.3 5.1.4 8.6 3.4q4.1 3.5 8.7 6.2c4.5 2.9 9 2.6 13.8 1q4.5-1.4 8.7-3c3.6-1.6 7-5.1 11.3-4.3a45 45 0 0 1 7.8 2.4q3.1 1.6 6 4c4 3.1 8.6 5.5 13.9 5.5a64 64 0 0 0 16.4-1.3c6.1-2 8.7-3.3 14.7.4 3.3 2 6 2 8.7-1 3-3.3 5.5-7.4 9.5-9.6q5.2-3.5 11.3-4.6c3.1-.6 6.5-1 9.5.2" class="b"/><path d="M9 201.4c3-1.5 5.6-4 8.6-5.4 2.5-1 5.3-.2 7.8 0q3-.1 6-.7l4.4-.5c1.1-.1 2.4-.4 3.5 0 2.1 1.2 4 3 6 4.3q3.4 2.4 7 4.6c5.4 3.7 11.7 1.6 17.3-.6 2.6-.6 5.4-.5 7.8-1.8 3.9-2.1 6-3.2 10.4-1.7q3.5.8 6.9 2.1 3.6 1.7 7 4c3.6 2.1 7.8 3.7 12 3.8q7.3.3 13.9-2.5c3.7-1.8 6.5-5.3 10.4-6.6 4.5-1.5 7.3 3 10.4 5.3 2.6 2.1 5 .4 6.9-1.8 1.7-1.9 3.3-4.1 5.2-5.8q2.9-2 6-2.8 4-.7 7.9-.4 4.3 0 8.6 1" class="b"/><path d="M9 199c4.3-1.5 8-6 13-4.5 1.6.4 3.4 1 5.2.7q3.4-.7 6.9-1.8c1.4-.3 2.9-1 4.3-.9 2 .5 3.5 2.2 5.2 3.2q5 3.5 10.4 6.2c3.2 1.4 7 1.6 10.4.7 1.8-.4 3.4-1.5 5.2-1.9 1.7-.3 3.5 0 5.2 0 2.1 0 4.1-1 6-1.7 3.1-1.3 6.5-.3 9.6.3q6 1 11.3 3.9 4.5 2 9.5 3c6.5 1.4 13.7-.7 18.2-5.7 3-3 5.4-7 8.6-9.9 1.6-1.4 4.2-2.4 6-.9 3.4 2.9 4.9 7.8 8.7 10 3.1 1.3 5.6-2 7.8-3.6 3.5-2.8 8.2-2 12.2-1.3q5.2.8 10.3.6" class="b"/><path d="M9 196.8c3-.7 5.7-2.6 8.6-3.7 2-.7 4.2-.1 6 .6q3.2 1 6.1-.3l5.3-2c3.3-1.7 4.2-.8 6.9 1.2q5.4 3.6 11.2 6.5c3.5 1.5 7.6 1.8 11.3 1.2 1.8-.3 3.5-1.2 5.2-1.5 2.3-.3 4.6.8 7 .7 3.1 0 6.2-1.9 9.5-1.4q5.2.4 10.4 1.2c2.3.4 4.6 1.3 6.9 1.8q5.6 1.2 11.2 1.7c5.6.4 10.6-3.1 13.9-7.4 4-5 6.4-11.9 12.1-15.5q4.2-2.4 7 1.7c2 2.7 3.4 6.2 5.1 9.1 3.2 5.1 5 5 10.4 3.4 7.6-1 8.4 3.5 20 .3" class="b"/><path d="M9 195c3-.3 5.9-1.9 8.6-3.1 4.2-2 6.6 1 10.4.6 3.1-.7 5.8-2.7 8.7-4 2.4-.7 4.2 1.8 6 3q4.7 2.5 9.6 4.8c3.5 1.6 7.4 1.8 11.2 1.8 2 0 4-.6 6-.7 2.7 0 5.2 1.5 7.9 1.5 2.3.1 4.6-.8 6.9-1 4-.3 8.1 0 12.1 0l7 .6h6.9c2.9.2 6 .5 8.6-.6 8-3.5 10.6-12.9 16.5-18.7 2.7-2.5 6.2-3.8 9.5-5.3 3.8-1.9 5.6 2.3 7 5 1.8 3.8 3.3 8.3 6 11.6 2.1 2.6 5.6 3.2 8.7 3.8 7.1 2 9.5 2 16.4-1.2" class="b"/><path d="M9 193.3q3.2 0 6-1.2c2-.8 4-2 6-2.4 3.3-.5 6.5 1.6 9.6.1q2.3-.9 4.3-2.2c1.4-.8 3-1.5 4.4-.6 2.5 1.7 4.9 3.6 7.8 4.6 3 1.2 6.2 2.7 9.5 3.4 4.3.7 8.7.4 13 1.2 5 1.2 6.5 3 12.1 1.8 6.8-1.3 13.9-1.3 20.8-1.9q3.9-.6 7.8-1.4c3.5-.7 7.4-1.1 10.4-3.4 5.7-4 8.4-11.4 14.7-14.7 2.4-1.2 5.3-1.5 7.8-2.7 1.5-.7 2.8-2.1 4.3-2.9h3.5c1.7 1.2 2.5 3.9 3.4 5.7 1.8 4 3.5 8.4 6 11.9 3.5 4.5 9.1 7.6 14.8 6.7 2.8-.5 5.4-2 7.8-3.4" class="b"/><path d="M9 191.5c6.6.9 9-2.5 14.7-3.8 2-.3 4 0 6-.4 2.5-.4 4.7-1.7 7-2.7 2-.7 3.7 1 5.2 2a23 23 0 0 0 9.5 4.4q6 1.8 12.1 1.7c3.8 0 7 2.1 10.4 3.6 3.9 1.6 8.2 1 12.1.1q4.8-.8 9.6-1.4c6.9-.8 13.4-3.5 19.9-5.9 5.1-1.8 9-5.8 13-9.3 2.2-2 4.8-4 7.8-4.5 7.8-1 7.3-1.2 13-6.4h3.4c1.8 1 2.5 3.7 3.5 5.4 1.8 4 3.6 8.5 6 12.2 5 8.4 13 9.7 20.8 4.2" class="b"/><path d="M9 189.7c4.9 1 8.7-.2 13-2.6q4.5-2.3 9.5-3.7c2.8-.7 6-3 8.7-1 2.3 1.7 4.3 4 6.9 5.4a36 36 0 0 0 15.6 2.9c2.3-.2 4.9-.1 6.9 1.3 4.7 3 9 4.7 14.7 3.4l7-1.4q3.4-.5 6.9-1.4c4.8-1.2 9.3-3.4 13.8-5.3q6.4-2.3 12.2-5.8c3-1.8 5.4-4.7 8.6-6.2 2.1-1 4.6-1 7-1 5.6-.1 7.4-4.5 11.2-7.6 1.1.1 2.5-.2 3.5.5 1.3 1.7 2.5 4 3.4 6 5.4 11.3 10.3 25 25.1 15.7" class="b"/><path d="M9 188.1c3.7 1 7.8 1 11.2-.7 4.3-2 7.9-5.5 12.2-7.5 1.6-.8 3.3-1.8 5.2-2 3-.2 5 2.7 6.9 4.6 6.3 7.4 13.5 7 22.5 7.2 1.8.1 3.6 1.2 5.2 2q3 1.5 6 2a30 30 0 0 0 11.3-1q4.9-1 9.5-2.6c5.3-1.9 10.4-4.3 15.6-6.3 3.5-1.3 7.2-2.4 10.4-4.2 1.9-1 3.5-2.7 5.2-4a10 10 0 0 1 7-2.4c5.7.5 8.4-1.3 12-5.6 2.3-2.6 4.4-4.4 7-.8 2.4 3.4 4.1 7.4 6 11 4.8 9.2 10.5 15.3 20.8 9" class="b"/><path d="M9 186.9c11.1 3.6 15.9-3.9 24.2-9.2 2.3-1.4 5-3.7 7.8-2.7 2.2 1 3.7 3 5.2 4.8 2.2 2.8 4.6 5.7 7.8 7.3 4.8 2.3 10.4 1.6 15.6 2.3q3.4 1 7 2c5.7 1.2 11.7-.3 17.2-1.9 6.8-2 13.3-5.2 20-7.5l6-2c2-.6 4.3-1.1 6-2.2 2-1.2 3.5-3 5.3-4.3 5.2-4 9.4.5 15.6-4.4 1.8-1.3 3.3-3.3 5.2-4.7 3.6-2.1 6 3 7.8 5.5 3.8 6.2 7.4 14 14.7 16.6 3 .7 6-.8 8.6-2.1" class="b"/><path d="M9 185.6c5.5 2.2 9.8.8 14.7-2.2l11.3-7c7-5.1 8.6-5.1 13.8 2 6.2 8.8 10.3 10 20.8 10.4 2.9 0 5.8.6 8.6.8q5.3.4 10.4-1c9.8-2.6 19-7 28.6-10 2.8-1.1 6-1 8.7-2.2 3-1.8 5.1-5.2 8.6-6.2 2.3-.6 4.7-.3 7-.6 7.3-.9 9-6.8 13-6 2.6.9 4.3 3.5 6 5.5 2.4 3.1 5 6.4 7.8 9.1 5 5 7.8 7.2 14.7 3.6" class="b"/><path d="M9 183.5c5.5 2.5 8.9 0 13.8-2.2 3.6-1.6 7.6-2.5 11.3-4 2.8-1.3 5.2-3.4 7.8-5 2.7-2.1 5-.7 6.9 1.6 3.3 4 5.8 9 10.4 11.8a26 26 0 0 0 15.6 2.2q5.2-.2 10.4-.9c5.4-.8 10.3-3.6 15.6-5a95 95 0 0 0 8.6-3c3.1-1.2 6.2-2.7 9.5-3.4 2-.4 4.1-.1 6.1-.4 2.1-.3 3.7-2.2 5.2-3.6 1.7-1.6 3.7-3.1 6-3.5 3.8-.6 7.8 0 11.3-1.4 1.5-.7 2.9-1.9 4.4-2.5 3.2-1.5 6.3 1.2 8.6 3.2l9.6 8.3c4 4.3 7.2 6.2 13 3.5" class="b"/><path d="M9 179.6c4.6 2.1 7 .3 11.2-1.2q4.7-1.4 9.6-1.4c3 0 6-.4 8.6-2q2.8-1.8 5.2-4c2-1.8 4.3-1.5 6 .3 3.6 3.6 5.8 8.6 9.6 12a16 16 0 0 0 11.3 4c3.2-.2 6.4-1.1 9.5-1.7q4.4-.7 8.7-2.1c2.6-.9 5.1-2.2 7.8-3 4.9-1.5 10-2.3 14.7-4.7 2.5-1.1 5-2.4 7.8-2.8 2.8-.7 6 1.5 8.6-.3 1.8-1.2 3.4-3 5.2-4.4 3.7-3 8.7-1.9 13-1.5 2.9.1 5-2.1 7.8-2.5 4-.5 7.8 2.1 11.3 3.9 2 1.2 4.3 2.6 6 4.3 3.6 3.5 7 5.8 12.1 4" class="b"/><path d="M9 174.8c3.6 1.7 6 1 9.5 0q3.8-1 7.8-.8 3 0 6 .6c2 .2 4.2.4 6.1-.4 3.9-1.4 6.6-7.8 11.3-5.5 3.8 2.6 5.7 7.3 8.6 10.8 4.3 5.7 10.5 8.4 17.4 5.6l12-4.3q4-1.7 7.9-3.2c4.2-1.2 8.9-1.4 13-3.3 4.1-1.6 8.3-4.8 13-4 1.6.4 3.4 1.5 5.1 1.4 3.1-1 5-4 7.8-5.5 3.2-2 7.1-.7 10.4.3 1.7.6 3.7.5 5.2-.4q5.3-3 11.3-1.5 3.6.7 7 2.2c4.9 2.8 8.1 7.9 14.6 6.7" class="b"/><path d="M9 171c3 1.4 6.3 1 9.5.3q4.3-.7 8.7-.3 3 .3 6 1c1.7.3 3.5.7 5.2.2 4.1-1.4 6.2-7 11.3-5.3 7.4 3 10.4 18.8 22.5 17.9 3.7-.6 7-2.7 10.4-4.3 5.3-2.5 10.6-5.6 16.4-6.7q5.5-.7 10.4-2.8c4.3-1.7 9.3-5 13.9-2.5 2 1 4 2.3 6 .8 2.8-1.8 5.2-4.9 8.7-5 5.3 0 8.4 4.6 13.8 1.4q5.3-2.7 11.3-2.5 4 0 7.8 1.7c4 2 7.5 5.4 12.1 5.4" class="b"/><path d="M9 168.2c4 1.3 8 .2 12 0q6.3-.2 12.2 1.3c2 .4 4.2.8 6-.2 4.5-2.9 5.2-5.6 11.3-3.7 4.3 1.6 6.8 5.8 9.6 9.1 3.2 4 7.4 8.7 13 8.5 3.9-.5 7.1-3.2 10.3-5.2q5.7-3.9 12.2-6.1 5.7-1.6 11.2-3.2c3.5-1.2 6.8-2.9 10.4-3.7q4.4-.9 7.8 1.9c1 .6 2.2 1.6 3.5 1.6 3-.3 5-3 7.8-4.2 5-2 9.5 4 14.7 1.4 2.5-1.1 5-2.5 7.8-3.3 4.4-1.2 9.4-1.6 13.8 0 3.6 1.3 6.6 4 10.4 4.6" class="b"/><path d="M9 166c3.7.8 7.5.1 11.2 0q6.2 0 12.2 1.3c2.2.4 4.8.7 6.9-.6 1.7-1 3.2-2.8 5.2-3.2 1.7-.4 3.5 0 5.2.4q2.2.5 4.3 1.4c7.2 3.4 13.4 17.9 22.5 15.3 2.6-.9 4.8-2.8 7-4.5q3.6-3 7.7-5.1c3.9-2 8.2-3 12.2-4.6 4.3-1.5 8.5-3.5 13-4.4 8.7-2 10.2 6.8 15.5 5.1 2.1-.6 4-2.3 6.1-2.6 4-.7 8 2.5 12.1.8 2.7-1 5.2-2.8 7.8-4 4.3-2 9.2-3 13.9-2 4 .7 7.5 3.2 11.2 4.7" class="b"/><path d="M9 164c3.7.6 7.5.1 11.2.3q5.7.2 11.3 1.2c2.7.3 5.6 0 7.8-1.6 4.9-4 6.7-1.7 12.1-1 6.9.3 10.9 4.8 15.6 9.1 2.7 2.4 5.7 5.4 9.5 5.7 2.7 0 5-2 7-3.6 2.8-2.5 6-5 9.5-6.6q3.8-1.6 7.8-3c4.5-2 9-4.6 13.8-5.5 11-2.1 12.6 6.6 18.2 7.5 2.4 0 4.6-1.3 7-1.4 2.5-.3 5.2.4 7.7-.1 3.9-.8 7-3.5 10.4-5.3 9.8-5.4 15.8-4.4 25.1 1.3" class="b"/><path d="M9 161.6c5 1 10.4.8 15.6 1.4 8.6 1 9 1 16.4-3.1 2.4-.9 4.7.3 7 1q2.5.8 5.1.7c9.6-1 14.6 5.3 21.7 10.2 2 1.5 4.6 2.4 7 1 3-2 5.5-4.7 8.6-6.5 3-2 6.3-2.9 9.5-4.3q4-2 7.8-4.1c6-3 13.8-2.5 19 1.7 6 4.5 5.5 7.5 13.9 5.6 7.3-.8 9.5-2.3 15.6-6.2 10.5-6.5 16-8.1 26.8-1" class="b"/><path d="M9 159q6.8 1.5 13.8 1.9c2.9.2 5.9.5 8.7 0 3.3-.7 6-3.3 9.5-3.5 2.5 0 4.7 1.5 7 2.3 3 1 6.3.3 9.5 0q4.4-.5 8.6.7 6.3 2.4 11.3 6.8c3.7 3 6.2 1.3 9.5-1.2q3-2.2 6-3.7 3.6-1.4 7-2.8c3-1.4 5.7-3.6 8.7-5 3.5-1.8 7.6-1 11.2.2q4.2 1 7.8 3.2 2.3 1.6 4.4 3.5c1.4 1.5 3 3.2 5.2 3.4 2.9.1 5.9-.8 8.6-1.7 2.8-1.1 5.3-2.9 7.8-4.4 4.5-2.7 9-5.7 13.9-7.5 5.3-1.8 11 1.1 15.5 3.8" class="b"/><path d="M9 156q4.4.7 8.6 1.6 5.2.8 10.4.3c2.7-.3 5.3-1.5 7.8-2.5q3.2-1.1 6 .2c3.1 1.3 6 3.5 9.6 3.2 7.2-.7 14.6-2.6 21.7-.2q2.7 1.2 5.2 3.2c2 1.7 4.2 3.4 6.9 2.1s5-3 7.8-4.1l6-2.3q3.3-1.4 6-3.6c5-3.7 8.5-3.4 14-1 3 1.4 6.4 2 9.5 3.5q2.8 1.5 5.2 3.7c1.5 1.7 3.6 3.3 6 3 5-.2 9-3.6 13-6.1q3.4-2 7-3.8 3-1.8 6-3.7c3.1-2 7-1.8 10.4-.6q3.5 1 7 2.5" class="b"/><path d="M9 152.8q4.4 0 8.6 1.2 3 .4 6 .3 3.6-.2 7-1.2c2-.6 4-1.2 6-.9 5 .8 8.7 5.5 14 5 2.2 0 4.6-.6 6.9-.8l7.8-.8c3.4-.3 7-1.2 10.3-.3 3.8 1 6.1 6 10.4 4.9 2.1-.5 4-1.7 6-2.4q3.1-1 6.2-2c3.5-1.2 6.3-3.8 9.5-5.6 5-3 9.4.7 13.8 2.7 2.2.9 4.7 1 7 1.5 6 1 6.9 7.5 13 6.7 4-.7 7-4 10.3-6q3-1.6 6.1-2.8 2.8-1.3 5.2-3.2c2-1.6 4.3-3.2 7-3.5 4.3-.3 8.7 1 13 2" class="b"/><path d="M9 150a22 22 0 0 1 5.2-.2c1.7.1 3.5.6 5.2.7 3.5.2 7-.7 10.4-1.2q3.6-.5 6.9 1.2c4.2 2 8 5.7 13 5 2.3-.2 4.6-.8 7-1q3.8-.3 7.7-.6c3.8-.4 7.4-2 11.3-2 3.9-.1 5.9 4.1 9.5 4.8 2.7.5 5.3-.9 7.8-1.5q6.1-1.2 11.2-4.7c7.2-5 9.8-3.4 16.5 1 2.7 1.7 5.7.8 8.7.7 5 0 6.3 6.5 11.2 7 4.3.1 7-4 10.4-6 2.9-1.9 6.7-2.1 9.5-4.1 2.1-1.4 4-3.3 6-4.6 5.1-3 11.1-.6 16.5-.4" class="b"/><path d="M9 148.2q3-1 6-1 4 .5 7.8-.3c7.9-2 10.2.4 16.5 4.4 3.7 2.3 6.9 3.5 11.2 2q3.4-1 7-1.3c2.8-.2 5.8 0 8.6-.5q3.5-.9 7-1.9c2.6-.9 5.4-1.2 7.7.7 5 4.2 7 3.7 13 2.4q4.1-.7 7.8-2.6c2.6-1.3 5-3.2 7.8-4 4.7-1.3 8.3 2.9 12.1 4.9 2.3 1 4.7-.2 7-.8 5.2-1.4 6.7 4 10.4 6.1 6 3.3 9.3-6 16.4-7 7.5-1.2 9.3-7.4 15.6-8.7 2-.4 4 0 6 0q3 .2 6.1.1" class="b"/><path d="M9 146.7q4.6-1.8 9.5-2.1c2.3-.4 4.6-1.3 7-1.4 3.7-.2 6.7 2.4 9.5 4.6s6 4.3 9.5 4.7c2.4.1 4.7-1 7-1.9a24 24 0 0 1 7.7-1.3q5.3.2 10.4-1.3c4-1 8.4-3.4 12.1-.6 2.3 1.7 4.9 3.4 7.8 3.3q5.8-.3 11.3-2.5c2.9-1 5.6-3 8.6-3.6 4-.7 7.4 2.3 10.4 4.4q2.5 1.8 5.2.8c5.1-2.3 7.5-2.8 11.3 2 7.7 8.4 10.7-3.2 18.2-4.5 10.1-1.1 9.4-7 17.3-9q2.5-.3 5.2-.3 3-.3 6-.3" class="b"/><path d="M9 144.3q4.6-2 9.5-2.9c2-.5 4-1.4 6-1.2 4 .4 6.7 3.8 9.6 6.1 2.6 2.3 6 4.2 9.5 4.3 2.1 0 4.2-1 6-2 5.7-2.7 12.3-1.5 18.3-3 4.5-.7 9.4-3 13.8-.9 2 1 4 2.3 6 2.8 3.8.9 7.7 0 11.3-1 5.4-1.7 10.1-5.4 15.6-1.9 2.4 1.3 4.4 3.5 7 4.2 4.7.7 7.7-4.8 13-1 2.7 2.7 6.5 6.3 10.3 3.6 2.1-1.4 4-3.3 6-4.6 3.2-2.1 7.3-1.3 10.5-3 3.1-1.7 5.5-4.7 8.6-6.3q2.9-1.4 6.1-1.7c2.3-.3 4.7-.7 7-.3" class="b"/><path d="M9 140.4q4.2-1.6 8.6-2.5c2-.4 4.1-1 6-.5 4 1.2 6.5 4.6 9.6 7 2.9 2.4 6.7 3.8 10.4 3.4q2.7-.6 5.2-1.6c5.8-2.2 12.2-1.8 18.2-2.8 4.8-.6 9.9-2.2 14.7-.6q3 1 6 2 5.3.8 10.5-.8c7.4-2.2 11.2-4.9 18.1.5 1.8 1.3 3.8 3 6.1 2.8 1.8-.2 3.5-1.3 5.2-2 2.5-1 5.5-1.3 7.8.3 10.6 8.6 11-.6 20.8-2.1 6.5-.6 8.1-2.6 13-6.5 3.9-2.7 9.2-3.7 13.8-2.5" class="b"/><path d="M9 135.3q4.2-1 8.6-1.2 2.7-.2 5.2.6c6.8 3.2 9.4 9.7 18.2 9.7q3.5.1 7-1l6-.8c7.5-.7 15-1.6 22.5-1.8 3.5 0 7 1 10.4 1.6q5.2.7 10.4-.6c5.4-1.4 11.2-4.2 16.4-.7 2 1.2 4 3 6.1 4 3.3 1.5 6.5-1.2 9.5-2.1 6.2-2 7.7.7 13 2.3 3.3 1 6.6-.7 9.6-2q3.7-1.4 7.7-2c3.7-.6 6.6-3.3 9.6-5.4 4-2.7 9.3-3 13.8-1.6" class="b"/><path d="M9 130c19.7-1.2 16.2 11.3 36.3 10.8q9.6-.4 19-1.3 4.5-.1 8.8 0c6-.1 12 1.5 18.1 1 5-.2 9.8-2.1 14.7-2.9 9.1-1.4 11.3 6.5 17.4 6 2.3-.4 4.6-1.6 6.9-2.2 2.8-.9 5.8-1.9 8.7-1.3 2.5.7 5.1 1.6 7.7 1.7 2.4 0 4.7-.7 7-1.3q3.4-.8 7-1.7c3-.9 5.7-2.8 8.6-4.3 4.3-2.2 9.4-1.5 13.8-.2" class="b"/><path d="M9 125.6c5-.2 9.6 2.2 13.8 4.6a58 58 0 0 0 27.7 7.8q5.3 0 10.4-.2c2.9-.2 5.8-.6 8.7-.3 7.5.5 15 2 22.5 1.1 5.8-.5 11.4-3 17.3-3 7.9.1 9.6 8 17.3 5.8q3.5-.8 7-2c2.7-1.2 5.6-2.5 8.6-2q3.5.2 7 .4c3.7-.1 7.5-1.1 11.2-2 3-.8 5.8-2.2 8.7-3 4.5-1.3 9.4-.1 13.8 1.1" class="b"/><path d="M9 122.9c5.8-1.3 9.8 3.5 14.7 5.6 3.9 1.6 8.1 2 12.1 3.1 2.6.8 5.2 2 7.8 2.7q3.4.9 7 1.2c3.6.4 7.5.9 11.2.5q3-.4 6-.7 3.5.1 7 .8 5.1 1 10.4 1 3.4.1 6.9-.2c5.8-.8 11.5-2.4 17.3-3 10.6-1 10.6 9.1 22.5 5.5 3-1 5.7-2.9 8.7-4 5-2 10.4-1.6 15.6-2.5 4.9-.6 9.8-1.8 14.7-2 4.1 0 8.2 1.1 12.1 2.2" class="b"/><path d="M9 121.8c4.6-2.5 7.7.4 11.2 3q2.8 2 6 2.4 4.1.5 7.9 1.2 4.8 1.2 9.5 2.8l7.8 2.2c3.6 1.2 7.5 2 11.3 1.2 2-.4 4-1.2 6-1.4 3-.3 5.9.7 8.7 1.4q3.3.6 7 .7 5.6.3 11.2-.8 7.7-1.4 15.6-2.5a12 12 0 0 1 10.4 3.2c5.3 4.3 9.7 4.3 15.5 1 5.1-2.5 10-6 15.6-7 4.6-1 9.3-.5 13.9-.3 5.6 0 11 1.6 16.4 3" class="b"/><path d="M9 121.6c6.3-5.3 8.4 1 13.8 3.3 2.5.8 5.2.9 7.8 1.3q3.9.8 7.8 1.8c3.4.8 7.1 1.2 10.4 2.6 4.4 2 8.8 4.7 13.8 3.2 3.5-1 6.7-3.4 10.4-2.6 2.3.4 4.6 1.3 7 1.7q4.6.5 9.5.6c2.6-.1 5.2-.8 7.8-1.2l12.1-1.8c3.1-.4 6.4-1.4 9.5-.5 2.3.9 4.1 2.8 6 4.1 5 3.9 9.7 2 14.8-.4q4.2-2.1 7.8-5c1.8-1.4 3.8-3 6-3.6 4-1.2 8.3.2 12.2 1.3q8.7 2.2 17.3 4" class="b"/><path d="M9 121.5c7-7 7.7-.9 13.8 2.1 3 1 6.4 1 9.5 1.9q3.5.9 7 1.9 2.5.5 5.2.7c7 1 10 6.7 18.2 4.8 3.6-.7 6.5-4 10.4-3.9 2.3.1 4.6 1.2 6.9 1.6q4.6 1 9.5.8c2.6 0 5.2-.8 7.8-1.2q6-.8 12.1-1.7l6-1c2.5-.5 4.9-.7 7 1 2 1.2 3.9 3 6 3.9 4.3 1.8 9 .5 13-1.2 4.6-1.8 7.5-6.1 11.3-8.9 4.8-3.3 10.2.5 14.7 2.5q7.6 3 15.6 4.2" class="b"/><path d="M9 120.9c5.8-5.7 6.5-5.2 12 0 2.2 2 5.2 2.3 7.9 2.6 3.9.4 7.5 2 11.2 3 2.6.7 5.3.9 7.8 1.8 2.3.8 4.6 2.1 7 2.8q4.3 1.1 8.6.1c2.9-.6 5.2-2.6 7.8-3.7 2.6-1 5.3 0 7.8.6q5.6 1.4 11.3 1.1 3-.3 6-1l7.8-1.2q3.5-.6 7-1.4 3.4-.4 6.9-1c4.6-1.4 7.9 3.4 12 4.4q5.7 1.6 11.4.1c4.5-1 7.3-5.3 10.3-8.5 5.7-6 11-.4 16.5 2.5 4.6 2.3 9.6 4 14.7 4.2" class="b"/><path d="M9 120.2c3-3 6.3-7.8 10.4-3.4 2.1 2.2 4.6 4.3 7.8 4.7q4 .3 7.7 1.5l5.2 2q2.2.7 4.4 1.2c4.5 1.4 9 3.6 13.8 3.4 10.1 0 11-5.2 17.3-4.5 4.3.7 8.7 1.8 13 1.9 3 .1 5.8-.9 8.7-1.3q3.5-.5 7-1.2l6-1.8c3.4-.8 7-.8 10.4-1.3 3.2 0 5.8 2.3 8.6 3.4q4.7 1.5 9.6 1.7c2.7.1 5.7-.3 7.8-2.1 3.3-2.6 5.1-7.5 9.5-8.8 4.7-1 8.4 3.1 12.1 5.3 4.4 2.6 9.5 4.6 14.7 4.6" class="b"/><path d="M9 119.6c2.7-2.2 6.2-9 10.4-6.3 1.5 1 2.8 2.5 4.3 3.6q2 1.5 4.3 2 3.5.7 7 1.8 4.2 1.8 8.6 3.4c3.3 1.5 6.7 3.2 10.4 3.4q6.2.4 12.1-1.6c3-1.2 6.1-3 9.6-2.7 4 .1 8 1 12 1.3 2.7.3 5.3-.3 7.9-.9l6-1.1c4-.8 7.3-3.4 11.3-4q2.6-.3 5.2 0 2.6 0 5.2.3c3 .5 5.7 2.2 8.6 3q3.5.8 7 1.2 3 .6 6-.2c5.6-2.2 7.6-11.6 14.8-9.9 4.8 1.4 8.4 5.5 13 7.6 3.1 1.7 6.7 3 10.3 2.8" class="b"/><path d="M9 119.3c3-2.4 4.9-6 7.8-8.5 3.6-3 6.6 2 9.5 3.6q2.9 1.7 6 2.6c3.6 1.3 6.9 3.3 10.4 4.5 2.4 1 4.6 2.5 7 3.4 3.5 1.5 7.5 1 11.2.1 3.9-.7 7.5-2.4 11.3-3.2q5.2-.8 10.4-.4c3.4.3 7 1 10.4.4 2.8-.7 5.8-1.1 8.6-2q2.8-1.2 5.2-2.9c5-3.3 8.3-3 13.9-1.6q5.7 1 11.2 2.6l7.8 1.6c2.7.7 5.8.8 7.8-1.4 3.3-3.1 6-8.4 11.3-8.3 8 .7 13.6 10.6 24.2 10.6" class="b"/><path d="M9 119.2c2.9-1.7 4.9-4.7 6.9-7.2 1.6-2.1 4-5.2 7-3.4 2.8 1.8 5.3 4.4 8.6 5.5q4 1.5 7.8 3.5 2.6 1 5.2 2c2.8 1.5 5.5 3.4 8.6 4 6.3 1 12.2-2.5 18.2-3.4q6-.9 12.1-1.3c3.2 0 6.4.7 9.6.4 3.2-.5 6.7-1.2 9.5-3 2-1.3 4-3.2 6-4.4 4-2.3 8.8-1.4 13-.2q7.8 2 15.6 3.1c5.9 1.7 7.3 3.3 12.2-1.8 3-3 6.6-6.5 11.2-5.9 8.1 1.4 14.1 8.8 22.5 9.3" class="b"/><path d="M9 119c6.6-1.7 9.8-13.5 14.7-11.7 3 1.5 5.4 4.2 8.7 5.3q3.4 1.1 6.9 2.5c1.6.7 3.6 1 5.2 1.7 3.7 1.6 7.1 4.1 11.2 4.5 5.4.4 10.4-2.5 15.6-3l7-1c2.2-.3 4.6-1 6.9-1.2 2.6 0 5.2.6 7.8.6q4.2-.3 7.8-2.4c6-4.3 7.2-7.6 15.6-6.8a95 95 0 0 1 15.6 2.7c2.9.7 6 1 8.6 2.3 4.5 1.7 8-2.5 11.3-4.7 4.6-3.4 9.4-3.4 14.7-1.9q3 .7 6 1.7c3.5 1.3 7 2.8 10.4 3.7" class="b"/><path d="M9 118.5c8.3-.7 11-13.9 16.4-12 2.7 1.3 5 3.7 7.8 4.8l6 1.7q2.7.4 5.3 1c3.5 1 6.8 2.8 10.4 3.6 5.5 1.6 11-1 16.4-1.7q7-1 13.9-3c2.6-.7 5.2.5 7.7.8q3.9.4 7-1.8c4.4-3.1 7-7 13-6.9 4.3.1 8.7-.2 13 .3 3.5.6 6.8 2.2 10.3 2.6 4 .8 5.3 2.4 9.6.4 7.8-4.3 10.9-5.4 19.9-4.5q3 0 6-.5 6 .1 11.3 2.8" class="b"/><path d="M9 117.5c5.7.3 9.2-4.4 12-8.6 4.9-6.5 6.1-3.7 11.4 0 1.8 1.2 4 1.4 6 2 2.3.6 4.7.5 7 .9q3.8.7 7.7 1.6 7.5 1.9 14.8 0 6.3-1.4 13-2.6c3.8-.8 7.3-3.5 11.2-1.4 6.3 3.6 10.2-3.7 15.6-5.6q3.8-1 7.8-.8c3.7.2 7.5-.9 11.2-.4 3.3.6 6.3 2.2 9.6 2.4 1.7.3 3.4 1.2 5.2.8 2.6-.4 5.1-1.8 7.8-2.4 4.2-1.1 8.6-1 13-.6q3.4.5 6.9-.6c4.2-2.1 9.5-3 13.8-.7" class="b"/><path d="M9 115.9c4 .7 7.9-.9 10.4-4 1.5-1.8 2.9-4 4.3-5.8 1.6-2 3.6-4 6-2 2 1.4 3.7 3.6 6.1 4.3q2.6.8 5.2 1.1 4.8.2 9.5.6 5.7.5 11.3.2 5.3-.6 10.4-2c3.4-.9 7 0 10.4-.7q2.7-.9 5.2-2.3c1.5-.9 3.5-1.8 5.2-.9 1.3.7 2.8 1.6 4.3 1.7 2.2 0 4.2-1.3 6-2.3q4.6-2.3 9.6-2.4 3.5 0 7-.2c2-.3 4-.9 6-.8 3.5.1 6.8 2 10.4 2.2 1 .2 2.3.6 3.4.3 2.7-.5 5.2-1.9 7.8-2.1 5.3-.5 10.5.5 15.6 1.6 4.3.8 6-.5 9.6-2.6 3.1-1.3 6.9-3.2 10.3-1.8" class="b"/><path d="M9 113.9c7.5 1.6 10.8-1.7 14.7-7.6 1.2-1.7 2.5-3.8 4.3-4.9 3-1.2 4.9 2.5 7 4q2 1.2 4.3 2c4 1 8 .5 12.1.4 6.8 0 13.3-2.3 20-3.8 3.2-.7 6.3.8 9.4 1.4 4.2.6 7.4-2.7 10.4-5q1.6-1.4 3.5-.8c1.7.6 3.4 1.6 5.2 1.8 2.3.2 4.7-.5 7-.8q3.4-.5 6.9-.4 3 .2 6 0 2.6-.8 5.2-1.2a14 14 0 0 1 5.2.3q3.9 1 7.8 1.4c3.2-.5 6.1-2.9 9.5-2.4q4.9.4 9.6 1.5c2.6.7 5 2.1 7.8 2.5 3.4.7 5.8-1.6 8.6-3.2l4.3-2.4c1.6-.8 3.5-1.7 5.2-1.2" class="b"/><path d="M9 111.4c8.6 2.1 11.9-.8 16.4-7.7 1.4-1.8 2.8-4.5 5.2-5 2.2.2 3.6 2.4 5.2 3.8q2.8 2.3 6 3 6.2 1.2 12.2-.2c3.9-.8 7.6-2.5 11.3-3.9 3-1.2 6.3-2.4 9.5-.9 2.6 1 5 3.2 7.8 3.4 5.6 0 7.8-6.5 12.1-9 1.8-.6 3.7.6 5.2 1.4a20 20 0 0 0 4.3 1.8q4.3.9 8.7 1c3.2.4 6.5.7 9.5-.7 5.6-2.3 9.2-.3 14.7.2 3.6-.4 6.7-3.3 10.4-2.5q4.6.5 8.7 1.8c3 1 5.6 3.1 8.7 3.8 2.4.7 5-.4 6.9-2q2.2-1.2 4.3-2.8c2.1-1.3 4.2-3.7 7-3.4" class="b"/><path d="M9 108.7c10.5 2.4 13.4-1 19-9 2.5-3.4 4.4-4.8 7.8-1.5a18 18 0 0 0 19 3.9c4-1.4 7.5-3.6 11.3-4.9 2.2-.8 4.8-1.1 7 0 4.2 2 9 7.9 13.8 3.7 2-1.6 3.6-4 5.2-6s4-5.3 7-3.7c2.6 1.5 4.8 4 7.7 5.2 4.6 1.8 10 3.1 14.7.9 6-3 8.7-1.4 14.8-.5 4.1 0 7.8-3.4 12-2.5 2.7.3 5.5.7 7.9 2 2.6 1.2 5 3.1 7.8 4 2.7 1 5.5.1 7.8-1.6q2.6-1.6 5.1-3.6c1.8-1.3 3.7-3.5 6.1-3.3" class="b"/><path d="M9 105.6c5.1 1.7 11.6 1.9 15.6-2.3 2.8-2.7 4.6-6.5 7.8-9 4-2.5 6.9 5.7 16.4 5.4 7.1-.1 12.7-6 20-5.7 3.3.3 5.9 3 8.6 4.6 5.3 3.5 8.4 2.6 12.1-2.3 2.4-2.7 6-10.4 10.4-7.8 1.9 1.2 3.5 3 5.2 4.4 2.4 2.1 5.4 3.8 8.7 4.3 5.9 1.1 9.2-3.5 14.7-3.4 2.3 0 4.6.8 6.9 1 4.2.1 8-3 12.1-2.8q4.6 0 8.7 2.1c2.3 1.2 4.5 3 7 3.9 5.1 2.2 8.9-1.1 12.9-4 2-1.5 4.2-4.2 7-3.5" class="b"/><path d="M9 102.4a17 17 0 0 0 13.8.5c4.2-2 6.5-6.3 9.5-9.7 2.3-2.5 4.6-1.7 7 0q2.5 1.6 5.2 2.5c8 2.4 12.7-3.3 19.9-3.5 6.2-.1 8.1 2.6 13 5.4 7.8 4.3 10.5-1.8 14.7-7.2 1.6-1.9 3.4-4.5 6-4.6 2.2.1 3.8 2 5.3 3.3q2 2 4.3 3.9c3.4 2.6 8 4 12.1 2.2 2.3-.8 4.5-2.2 7-2.7q3-.4 6 .2c3 .4 5.9-1 8.7-2 1.9-.6 4-1.4 6-1.3q3.7.3 7 1.4 2.7 1.1 5.2 2.7c4.5 2.9 8.3 3.8 13 .6q2.2-1.3 4.3-3c1.7-1.2 4-2.7 6-1.4" class="b"/><path d="M9 99.1c4.5 3 10.7 3.6 15.6 1.2 3.7-2 6-5.8 8.6-8.9 2.3-2.5 4.3-2.3 7-.5q6.5 3.8 13.8 1.3c2.2-.7 4.6-1.6 7-1.7q2.6.1 5.1.8 2.3.5 4.4 1.5c4 2.2 9 6 13.8 3.7 5-2.8 7.9-12.4 13.9-12.5 2.8.4 4.8 3 6.9 4.9 3.5 3.2 8 6.2 13 5.5 2.7-.4 5.2-1.7 7.8-2.6 2.2-.8 4.6-.6 6.9-.8 2.1-.3 4.1-1.4 6-2.2q3.3-1.5 7-2 4.9 0 9.5 1.6c4 1.5 7.6 4.8 12.1 4.8 2.9 0 5.4-1.8 7.8-3.1 2.4-1.5 5.4-2.9 7.8-.7" class="b"/><path d="M9 95.9a17 17 0 0 0 6 3.2c4.1 1 8.6.1 12.2-2.1s5.2-6.6 8.6-9c1.8-1 3.6 0 5.2.9q2.5 1.2 5.2 1.6c4.8.9 9.2-2 13.9-1.7q3 .5 6 2 2.2.7 4.4 1.7c3 1.4 6 3 9.5 3C86.9 95 89 86 94.7 82.8c3.3-1.9 6.3.6 8.7 2.8q3 3 6.9 5c6 3.2 10.3 2.5 16.4.4 2-.7 4.2-1 6.1-1.7 2.7-1.1 5-3 7.8-4a16 16 0 0 1 9.5-.7q3.6.3 7 1.6c2.8 1 5.6 2.8 8.6 3.5 6.3 1.7 11.5-5.9 17.3-.5" class="b"/><path d="M9 92.6c2.4 2.3 5.2 4.7 8.6 4.6q3.1 0 6-1a14 14 0 0 0 7-3.5c2.5-2.2 4.6-8 8.7-6.8q3 1.5 6 2.2 3.5.5 7-.3c2.2-.4 4.6-1 6.9-.7 2.8.5 5.2 2.3 7.8 3.3C71.4 92 76 94.8 80.8 93c4.6-2 6.9-6.9 10.4-10 5.7-5.4 9-.9 13.9 2.6a30 30 0 0 0 17.3 6 27 27 0 0 0 10.4-3.3c3-2.1 5.8-5.1 9.5-6 2.9-.8 5.8 0 8.7.3q3 .3 6 1 3 .9 6.1 2.1t6 1.1c2.6-.2 5.3-1 7.9-.7 2.2.3 4.2 1.8 6 3" class="b"/><path d="M9 89.6c4.3 4.9 6.4 6.4 13 4.5 6.3-1.5 8.2-1 12-6.9 5-6.7 6-1 14-1 3.4 0 6.9-1.5 10.3-.9 2.9.5 5.3 2.5 7.8 3.8 3.5 1.5 7.4 3.1 11.3 2.6 7-1.3 9.5-9.5 15.6-12.5 2.4-1.2 4.9-.1 6.9 1.3q2.5 1.9 5.2 3.5 5 2.5 10.4 4.3c3.3 1.2 6.8 2.5 10.4 2 7.8-.6 8.8-6 14.7-9.4 2.6-1.4 5.8-.9 8.7-.5q3.8.5 7.7.9c5 .8 9.7 3 14.8 2.7q3.2 0 6 1.5c1.7 1 3.4 2.4 5.2 3" class="b"/><path d="M9 86.7c4.3 5.8 6 6.9 13 4.4 2.5-.9 5.2-.5 7.8-1.2 3.5-1.2 4.6-5.7 7.7-7.5 1.7-.7 3.6.5 5.2.8q3.5 1 7 .7c3.4-.3 7-1.3 10.4.3 2 .9 4 2.5 6 3.6 3.2 1.4 6.9 2.7 10.4 2 7.1-1.8 10-11.2 17.3-12.8 2.3-.1 4.3 1.4 6 2.5q3.3 2.2 7 3.5c3.4 1.2 7 1.8 10.4 3 3.6 1.4 7.3 3.2 11.3 3 5.3-.2 7.4-6 11.2-8.8 2.7-2.2 6.4-1.8 9.6-1.4 4 .5 8.1.4 12 1.2q3.6.7 7 1.3 2.7.4 5.2 1c3.5 1.2 5.9 4.6 9.5 5.4" class="b"/><path d="M9 84.2c3.7 5.6 5.8 7 12 3.6 2.7-1.3 5.2-.8 7.9-.1 4.3.6 5.6-4.8 8.6-6.8q1.3-.6 2.6-.2l4.4.9q3.8.5 7.8 0c3.2-.5 6.7-.1 9.5 1.7 1.7 1 3.4 2.4 5.2 3.2q3.3 1.4 7 1.6c3.9 0 6.8-3.2 9.4-5.8 3-2.8 7.6-8 12.2-6.1 2.3 1 4.5 2.6 6.9 3.7 4.3 2 9.3 2 13.9 3q4 .9 7.7 2.7c2.2 1 4.6 2 7 1.7 2.2-.2 3.8-2.2 5.2-3.8 2.8-3.5 5.4-6.6 10.4-6.2 6.3.4 12.7.2 19 1.4 2.6.5 5.5.8 7.8 2.2 3.2 1.8 5.6 5.3 9.5 5.7" class="b"/><path d="M9 81.8c6.7 10.8 9.6-.2 16.4 1.4 2 .5 3.9 2.5 6 2.2 4-1.3 4.5-7.3 9.6-6.1q3.9.7 7.8.5c3.2-.1 6.4-.6 9.5.2 2.9.8 5.3 2.7 7.8 4q3.3 1.6 7 2c3.8.1 6.8-2.6 9.5-5 2.4-2.1 5-4.3 7.8-5.7 2.6-1.2 5.5 0 7.8 1.3q3 1.6 6 2.7c3.7 1 7.5 1 11.3 1.4q6.9.4 13 3.8c4.6 2.3 6.5.4 9.5-3 3.4-4 5.3-4.8 10.4-4.8 7.5-.2 18.7-1.3 25.1 3 3 2.2 5.6 5.5 9.5 5.9" class="b"/><path d="M9 79.5c1.7 2.4 3.8 5 6.9 3 2.7-1.4 5.4-4.2 8.7-3.5 2.7.7 4.3 3.5 6.9 4.5 2.7.2 4-3.2 6-4.6q1.7-1 3.5-.8 3.5.1 7 0c3-.1 6.3-.6 9.5 0 3.1.6 5.8 2.5 8.6 3.9q3.8 1.6 7.8 1.8c3.4-.1 6.2-2.3 8.7-4.3 2.9-2.1 6-4.5 9.5-5.2 2.8-.4 5.4 1.1 7.8 2.3q3.3 1.6 7 2.2c6 .9 12.2-.1 18.1 1.3 2.1.5 4.1 1.8 6 2.6 6.6 2.9 7.8-5.3 15.7-5.8 7.6-1.3 19.3-3.2 26 1.4 3.2 2.3 6 5.9 10.3 6.2" class="b"/><path d="M9 77c1 1.3 2.5 3 4.3 2.8 3.8-1 7-5.2 11.3-3.9 2.4.9 4.1 3.2 6 4.9s3.6.5 5.2-1c3-3.3 5.6-2.5 9.6-3 3.4-.2 6.9-.7 10.3-.5 3.7 0 7.1 1.9 10.4 3.3 2.8.9 5.8 1.9 8.7 1.9 3.3 0 6-2.1 8.6-3.9 3.2-1.8 6.7-3.7 10.4-3.8 2.8 0 5.3 1.5 7.8 2.5q3.8 1.5 7.8 1.6 4.8-.2 9.5-.2 3-.2 6.1 0c3.1.2 5.8 2 8.7 3 3.7 1.4 7-1.9 10.4-2.9 7.5-1.8 15.5-4.8 23.3-3 6 1.3 9.5 7.6 15.6 8.3" class="b"/><path d="M9 74.4c1.3 1.4 3.1 3 5.2 2 3.5-1.2 7.5-4 11.2-1.8 2.6 1.3 4.2 4.2 7 5.2 1.6.3 3-1.1 4.3-2 2.4-2 5.7-1.6 8.6-2.1 4-.6 8.1-1.2 12.2-1 3.3.1 6.4 1.6 9.5 2.6 3.1.6 6.3 2 9.5 1.7 2.8-.3 5.3-1.8 7.8-3 4.3-2 9.3-3.8 13.9-2q3 1.4 6 2.2c2.9.5 5.8.3 8.7.4h8.6c2.6-.2 5.3-.8 7.8-.4 2.7.5 5.1 2.1 7.8 2.5 3 .2 5.8-1.2 8.7-1.8 7.8-2 16.4-6.6 24.2-2.7 4.5 2.1 8 6.1 13 7" class="b"/><path d="M9 71.7c1 .8 2.1 1.8 3.4 2 2.3.3 4.7-.6 7-.8 4.1-.8 7.2 1.3 10.4 3.7 3.7 2.9 6-.8 9.5-1.6q2.2-.2 4.3-.3l7.8-1.3c3.4-.4 7-1.2 10.4-.4q4.4 1.3 8.7 2.5c2.4.8 5.1 1.5 7.7 1.1 3-.4 5.8-2 8.7-2.8q3.8-1 7.8-1.2c2 0 4.1.8 6 1.5 3.9 1.6 8.1 1.4 12.2 1.4s8 .4 12 0c4.2-.5 7.2-1.6 11.4 0 3.4 1.1 7 .2 10.3-.6 6.3-1.6 12.5-4.6 19-3.8 6.4 1 11.2 6.2 17.4 7.6" class="b"/><path d="M9 68.9c3.7 3 6.9 2.3 11.2 2.7 3 .3 6 1.6 8.7 2.9 3.2 1.6 5.6 0 8.7-1 2.8-.7 5.8.1 8.6-.4q4.4-.5 8.7-1.8c2.2-.6 4.6-1.1 6.9-.6 2.6.5 5.2 1.6 7.8 2.3 8 2.8 9.6 2 17.3-.2 3.1-.4 6.4-1.5 9.5-.7 2.4.5 4.6 1.6 7 2 3.4.6 7 0 10.4.2 5.4.2 11 1.4 16.4-.3q2.6-.8 5.2-1c2-.1 4 .3 6 .3 3.9 0 7.7-1 11.3-2 7.4-2.2 11.7-3.6 19-.2C175.5 73 179 75 183 76" class="b"/><path d="M9 66q2 1.3 4.3 2.2 3.4.9 7 1.5c3.1.6 6.2 1.9 9.5 2.3 2.3.3 4.6-.8 6.9-.9 2-.1 4 .4 6 .7q5 .6 9.6-1.2c9.1-3.7 8.6-2.3 17.3.9 7.4 2.7 10 1.8 17.3.5 3.2-.3 6.4-1.5 9.5-.5 2 .5 4 1.4 6.1 1.7 3.7.6 7.5-.5 11.3-.2 5.4.3 11 1.9 16.4.5 2.6-.6 5.2-1.8 7.8-2.1 2.8-.4 5.8-.2 8.7-.5 4.7-.6 9.2-2.4 13.8-3.5 4.4-1 9 .3 13 2.1 3 1.5 6.2 3.1 9.5 3.8" class="b"/><path d="M9 63.1q3 1.6 6 2.5 4.4.9 8.7 1.6 3.4.7 7 .8c1.6 0 3.4-.3 5.1 0 4 .9 8 3 12.1 2.6 3.1-.5 5.8-2.4 8.7-3.6 3-1.4 6 .3 8.7 1.7q3.2 1.7 6.9 2.6c5.1 1.4 10.4.5 15.6-.1 2-.3 4-.9 6-.7 2.7.2 5.2 1.5 7.8 1.8 4.4.3 8.7-1.5 13-.9 8.2 1 13.4 2.9 21.7-.3 4.1-1.6 8.7-1.5 13-2.5q3.9-.8 7.8-2c2-.5 4-1.3 6-1.6 3.5-.5 7.2.4 10.4 1.8 3.1 1.5 6 3.7 9.5 4.4" class="b"/><path d="M9 60.2c2.5 1 5 2.1 7.8 2.2q7-.2 13.8 1c5.7.2 10 5 15.6 5.6 5.4.6 9.3-5.4 13.9-3.7 2.9 1.3 5.5 3.5 8.6 4.3a55.9 55.9 0 0 0 21.6.4c3.6-.8 7 1 10.4 1.3 3 .2 5.8-1 8.7-1.6q4.3-.7 8.7.2c6.3 1.4 12.8 2.8 19 .2 6-2.1 12.2-3.2 18.2-4.8 3.5-.7 6.8-2.3 10.4-2.8q3 0 6 .6 3 .9 5.3 2.8c1.8 1.4 3.7 3.1 6 3.9" class="b"/><path d="M9 57.4c6.3 2.4 7.7 1.3 13.8.3q4.6-.6 8.7 1.2a19 19 0 0 1 6 3c3.8 2.9 8.3 5.7 13 3.5 2-.8 4-2.1 6-2.3 2.4 0 4.3 1.9 6.2 3q2.7 2.1 6 2.6 6 .6 12.1 1 3.5.1 7-.1 3-.5 6-.4c7.6 1.6 7.7 1 14.7-1.4q4.3-1.2 8.7-.6c2.3.3 4.6 1.2 7 1.7a26 26 0 0 0 11.2.3c4.9-1.6 9.7-3.6 14.7-4.8l8.7-1.8 6.9-2c5.8-1.2 9-.4 13 4.3 1.2 1.3 2.7 3 4.3 3.7" class="b"/><path d="M9 55c4 1.3 6.5 1.5 10.4-.2 4.8-2.2 7.2-1.8 12-.1 3.7 1 6.5 3.7 9.6 5.6 5.4 3 7.7 1.3 13 .1 4.4-.4 6.6 4.8 10.4 6 2.7 1 5.8.8 8.6 1l10.4 1q2.6.3 5.2.2 3.5-.5 7 0 3.5.7 6.9-.4c3.4-1.3 6.7-3.1 10.4-3.5 5.3-.9 10.5.6 15.6 1.8q3.8 1 7.8.2c4.9-1.6 9.6-4 14.7-5 3.7-.7 7.6-.7 11.2-1.6 3.7-.8 7.5-2.4 11.3-1.6 4.6 1.1 5.8 6.5 9.5 8.8" class="b"/><path d="M9 52.9c2.7.8 5.9 1.6 8.6.3 2-.8 4-2.1 6-2.7a20 20 0 0 1 10.5 1.7c4.7 2.4 9.1 5.6 14.7 4.7 7-1.4 8 2 12.1 6.4a8 8 0 0 0 6 2.4q4.5.2 8.7.5c3.8.3 7.5 1 11.3 1.2 2 0 4-.4 6-.3 2.3.2 4.7.7 7 .2 3.3-.7 6.3-2.8 9.5-3.9q3-.9 6-1.3 2.3-.6 4.4-1c2.7-.1 5.3 1 7.8 1.7 2.8.8 5.8 1.6 8.7 1.1 4.6-1.3 9-3.8 13.8-4.6 3.1-.6 6.4-.3 9.5-.3 4.2 0 8.1-1.5 12.2-2.2 6.2-1 7.2 6 11.2 8.7" class="b"/><path d="M9 51c6.8 2.4 7.9 2 13.8-1.6a14 14 0 0 1 8.7-.6c2.3.4 4.6 1.5 7 2.2q4.5 1.3 9.4 1.4c5.4-.3 7.8 2.4 10.4 6.6 1.7 2.4 3.6 5.7 7 5.7 5.1.2 10.4.2 15.5.9q3 .3 6.1.4 2.6-.2 5.2-.5c2.3 0 4.7.7 7 .4 4-.6 7.3-3.4 11.2-4.5q4.4-1.2 8.7-3.1c2.2-.8 4.7-.1 6.9.7s4.6 1.6 7 1.8c3 .6 5.8-.7 8.6-1.8 7.2-2.7 9.6-3.2 17.3-1.5 9.5 2.1 14.2-3.5 18.2-1 2.4 1.7 3.6 4.9 6 6.4" class="b"/><path d="M9 49c8 3 7.5 3.4 14.7-1q3.3-1.7 7-1.4c2.2.2 4.6 1 6.9 1.3q5.6.6 11.2 1.4c8 1.5 8.9 12.2 14.7 14.6 4.6.6 9.3.1 13.9.4q4.3.4 8.6.2c2.3-.2 4.7-.9 7-1 5 .2 7.3 1 12-1.6q4.5-2.1 8.8-4.4c3.3-2 6.2-4.3 10.3-3 3.2 1 6.3 2.3 9.6 2.3 3.2.2 6.3-1.1 9.5-1.8 2-.5 4-1.3 6-1.4 4.7-.2 8.8 2.4 13 3.8 8.7 2.7 11.5-3 15.6-1.6 1.9 1 3.3 2.9 5.2 3.8" class="b"/><path d="M9 46.9q2.2.8 4.3 2c1.3.6 2.8 1.3 4.3 1.1 2-.3 3.6-1.7 5.2-2.8 4.9-3.3 7.6-3 13-1.8 2.9.5 5.9.7 8.7 1.4 2.4.4 5 1 7 2.6 2.9 2.3 4.8 5.8 6.8 8.8 1.4 2 2.8 4.5 5.2 5.1 5.2 1 10.5.5 15.6.3q3.5 0 7-.7l6-1.4c3.8-.6 7.7 0 11.3-1.6 3.4-1.3 6.5-3.4 9.5-5.5 2.4-1.6 4.8-4 7.8-4.2 3.3-.2 6.4 1.5 9.5 2 4 .7 8.2 0 12.2-.5 1.7-.4 3.4-1.1 5.2-1.2 5.6-.4 10 3.7 14.7 6.2 2.8 1.6 6.3 2.8 9.5 1.7 1.8-.6 3.4-1.7 5.2-2.3 2-.5 4 .4 6 .4" class="b"/><path d="M9 44.5c2.4 1 4.6 2.5 6.9 3.4 1.9.7 3.7-.3 5.2-1.4l4.3-3c3.2-2 7-1 10.4 0q6.7 1.4 13 4c5 2.7 7.8 8.2 11.3 12.5 2.5 3.3 5.5 3.8 9.5 4 4.6 0 9.3-1 13.9-2 3.2-.7 6.3-2 9.5-2.9 4.1-.8 8.4-1.5 12.1-3.7q4-2.4 7.8-5.3c2-1.5 4.3-3.3 7-3.7 3.2-.2 6.3 1.3 9.4 1.9 2.6.5 5.3.1 7.8.1l4.4-.1q2.2-.3 4.3-.7c8.9-.8 14 8.4 21.7 11.2 2.8 1.2 6 .3 8.6-.9q3.6-1 7-2.8" class="b"/><path d="M9 42.1c2.6.9 5 3 7.8 3.4 5.1-.3 8.3-7 14.7-5.4q5.8 1.6 11.2 4.3c2.6 1.2 5.5 2.1 7.8 3.9 4.3 3 6.8 8 10.4 11.8 6.3 6.5 16 2.9 23.4.4l7.8-3.3q6.9-2.1 13-6l7-5c2.4-1.8 5.3-3.7 8.6-3.3 2.9.4 5.7 1.7 8.6 2.2 3.4.6 7-.3 10.4 0 2.6.2 5.2-.6 7.8-.2 5.5 1.1 9.7 5.2 13.9 8.7 3.6 3.2 7.8 6.4 13 5.4q2.6-.3 5.1-1.3 2-.9 3.5-2.4" class="b"/><path d="M9 39.7c2.6.8 5 3 7.8 3 2.2-.2 4.1-1.8 6-2.9 6.1-4.1 10.7-1.5 16.5 1.5l5.2 2.9q2.7 1.1 5.2 2.7c6.4 4.7 9.8 13.8 18.2 15.6C76.1 64 85 58.9 92 55q5-2.2 9.5-5.4c3.5-2.5 6.8-5.4 10.4-7.7 8-5.4 12 .8 20 1q2.5-.1 5.1-.6l4.4.1h4.3q3.2.6 6 2.2 5.3 2.8 9.6 6.7c2.4 2.1 4.8 4.5 7.8 5.8q3.3 1.4 7 1.1 1.6 0 3.4-.3 2-.9 3.4-2.2" class="b"/><path d="M9 37.3c3.7 1.3 6.4 4.4 10.4 2 3.6-2 7.8-4 12-2.9a25 25 0 0 1 6.1 2.1c2.4 1.2 4.6 3 7 4.2q2.2 1.1 4.3 2.4c3.8 2.9 6.8 6.9 10.4 10 6.2 5.8 14.7 8 22.5 4.2 3.4-1.3 6.5-3.5 9.5-5.6q5-3 9.6-6.7c4.5-3.6 8.9-8.2 14.7-9.6a12 12 0 0 1 7 1c5 2.2 8 4 13.8 2.3 3-.6 6.4-.1 9.5.3 3 .6 5.9 2.2 8.6 3.5q3.8 1.7 7 4.2c2.6 2 4.9 4.6 7.8 6.3a21 21 0 0 0 6.9 2q3.8.9 7-1.4" class="b"/><path d="M9 35c2.7.7 4.9 3.3 7.8 3.2 2-.3 4-1.5 6-2q4.8-1.2 9.5-.1 2.7.3 5.3.9c2.8.9 5 3.2 7.7 4.5 2.7 1 5 3 7 5 2.7 2.5 5.5 5.2 8.6 7.2q4.9 3 10.4 4.6a15 15 0 0 0 11.3-.3 34 34 0 0 0 8.6-6q3.6-2.8 7-5.9c5.5-4.7 12-11.8 19.9-10.9 3.4.6 6.4 2.8 9.5 4.1 7.6 3.2 8.1-2 17.3.4 2.7.6 5.3 1.7 7.8 2.5 6 1.5 8.5 2.4 13 6.8q3.8 3.7 8.7 5.5c2.7.9 6 1.7 8.6.2" class="b"/><path d="M9 33c2.3.2 4 2 6 3 1.6 1 3.5.8 5.2.4q2.2-.6 4.4-.4c2.8 0 5.7.7 8.6.8 1.7 0 3.5-.4 5.2-.4 2 0 3.7 1.2 5.2 2.2q2.1 1.3 4.4 2.3c3 2 5.6 4.7 8.6 6.9q6.3 4.4 13.9 6.6c8.4 3.2 11.9 4.4 19-2.4 8.2-7.4 15.4-19.1 27.7-18.8 4 .3 7 3 10.4 4.9 6.1 3.3 7.4.5 13 0 3 0 5.8 1.4 8.7 2.2q3.4.8 6.9.6c5.5-.3 9.2 3.8 13 7.2 3.7 2.8 9 6.4 13.8 5" class="b"/><path d="M9 31.5c4-1.5 6.3 4.3 10.4 4.6q3.9.3 7.8 1.4c2.7.7 5.8 1.6 8.6.4 2-.7 4-2.1 6-1.5q2.3.8 4.4 1.9 2.4.6 4.3 2.2 6.6 5.7 14.8 8.4 4.8 1.4 9.5 3.3c3 1 6.2 3.2 9.5 2 3.2-1.5 5.5-4.3 7.8-6.8 5.3-6 9.7-13.6 18.2-15.4 6.6-2 10.1-1 15.6 3 2 1.5 4.3 3.1 6.9 3.5q2.6.3 5.2-.7c3.7-1.2 6.1 0 9.5 1.2 4.3 1.6 8.7-1.3 13-.7 3.9.7 6.7 3.6 9.5 6.1 3.7 3 7.9 7.2 13 6.5" class="b"/><path d="M9 31.1c2-2 3.9-2.5 6-.4q2.3 2.7 5.2 4.7c2.4 1.4 5.3 2.2 7.8 3.3 3.9 1.5 7 2.2 10.4-.6 1.3-.9 2.7-2 4.3-2q1.8.2 3.5.8c1 .4 2.4.4 3.5.9 2.3 1.3 4.5 3.2 6.9 4.5 4.3 2.3 9.1 3.5 13.8 4.9q4.6 1.3 8.7 3.2c3.5 1.8 5.7 2 8.7-.8 3.3-3.1 6-7 8.6-10.7 2.2-2.9 4.6-6 7.8-7.7 3.2-1.6 7-2 10.4-2.6 10-1.6 12.5 8.6 20.8 8.2 2.8-.2 5.8-1.3 8.6-.2q2.5 1.3 5.2 1.6c2.1 0 4.2-.9 6.1-1.6q3.3-1.4 7-.9c8 1.6 12.2 12 20.7 12.5" class="b"/><path d="M9 32.4c7.4-10.9 7.6 0 17.3 4.4 3.3 1.4 7.6 4.4 11.2 2.9 2.2-1 3.8-3.2 6.1-3.8 1.4-.2 3 .2 4.3.4h1.8c1.2.2 2.4 1 3.4 1.5a51 51 0 0 0 15.6 5.9c3.2.8 6.5 1.4 9.5 2.7 3.7 1.4 6 4.1 9.6.8 3-3 5.4-6.7 7.8-10.2 2.4-3.7 5-8.1 9.5-9.5 3.4-.7 7-.5 10.4-1 7.1-1.6 9.5 3.3 14.7 6.8q2 1.3 4.3 1.5c2.3 0 4.7-.5 7-.3 5.1.8 6.4 3.8 12 .8 15.1-7.6 18.8 7.5 29.5 10" class="b"/><path d="M9 35c2-2.7 3.3-6.2 6-8.2 3-2 5.7 1.9 7.8 3.6q3 3.1 7 5L34 38c1.5.9 3.4 1.7 5.2.9 4.2-2.4 4-4 9.5-3.4q1.3-.2 2.6 0 1.8.4 3.5 1.3a45 45 0 0 0 6.9 2.5c5 1.7 10.4 2.2 15.6 3.3q2.2.6 4.3 1.7c1 .6 2.3 1.4 3.5 1.4 7-1.3 11.3-18.3 18.2-20.9 3.1-1 6.3 1 9.5.8 2.6.1 5.2-1 7.8-1 5.5.6 8 7.7 13.8 7.9l5.2-.3c4.5 0 7.6 4 12.2 1.8q2.8-1.6 6-2.6c4.4-1 9.3-.2 13 2.4 4 2.9 7.4 6.8 12.1 8.5" class="b"/><path d="M9 36.7c4.4-3.7 7.2-17 14.7-10.3L28 30l4.4 3.1c2.4 1.7 4.4 5.2 7.7 4.9 1.3-.3 2.5-1.3 3.5-2q2.4-1.5 5.2-1.4c1.4 0 3-.5 4.3-.1q4.7 1.7 9.6 2.8 4.6 1.4 9.5 1.8c3.1.3 6.5-.2 9.5 1.1 1.1.5 2.3 1.4 3.5 1.7 2.8.3 4.6-2.6 6-4.5 2.6-3.7 4.5-7.9 7-11.6 2.3-3.3 4.7-5.5 8.6-3 3.3 2 7.6 3.4 11.3 1.6 4.4-2.6 6-1.2 9.5 2 2 1.7 4.2 3.4 7 3.5q2.6-.1 5.1-.1c4 .2 7.3 4 11.3 2.2 2.3-1 4.5-2.4 7-2.9 4-.7 8.3-.9 12 1 2.6 1.2 4.8 3.2 7 5q2.8 2.3 6 3.9" class="b"/><path d="M9 36.2c3.7-.6 6.7-8.4 9.5-11.2 2.5-2.9 4.8-3.5 7.8-1q3 2.8 6 5.2c2.8 2 5.6 8.6 9.6 7.5 1.8-.6 3.3-2 5.2-2.5q1.6-.4 3.4-.5 2.7-.6 5.2.2 4.7 1.3 9.6 2.2c3.6 1 7.5 1.7 11.2.8 2.3-.5 4.7-1.2 7-.2 1 .5 2.3 1.1 3.4.8 6.2-1.7 10.9-22.4 17.3-17.5 2.6 2 5.3 4.3 8.7 5 7.2 2 7.7-7.2 13.8-1.4 5.3 4.5 6.6 3.7 13 3.8 3.6.4 6.6 4 10.4 2.7 2.4-.8 4.5-2.4 7-3q3-1 6-1 3.1-.3 6 .6c2.7.9 4.9 2.7 7 4.4q3.3 2.6 7 4.7" class="b"/><path d="M9 33.9c2.5 1.3 4.6-1.3 6-3.2q2.3-3 4.4-6.2c5.2-7.8 7.6-3.7 13 1 2.6 2.5 4.2 6.1 6.9 8.7 2.9 2.8 5.7-.1 8.6-1q1.8-.5 3.5-.6c1.7-.2 3.5-.5 5.2 0l7.8 1.7c2.5.6 5.1 1.4 7.8 1.3q4.1-.2 7.8-2.3 2.8-1.8 6-1c6.2 0 10-16.6 15.6-15.3 2.3 1.2 3.9 3.6 6 5 2.6 1.4 5.7 2.7 8.7 2.5 3.6-.2 5.8-6.7 9.6-3.5 5.2 4.7 7.5 3.7 13.8 4 3.6.6 6.6 4.1 10.4 2.7 2.4-.8 4.5-2.5 7-3.2 3.5-1 7.5-1.7 11.2-1 2.6.7 4.8 2.3 7 3.8a90 90 0 0 0 7.7 5.2" class="b"/><path d="M9 30.8c5 4.5 9.6-5.6 12-9 4.5-6.9 6.6-4 11.4.5 3.3 3.1 6.5 12.9 12 11.2 1.8-.5 3.5-1.6 5.3-2q3-.5 6-.5c4.7.5 9.2 2.4 13.9 2.8 6.4.5 9.3-2.5 13.8-6.2q2.1-1 4.4-2 1.4-.8 2.6-2l4.3-5.2c1.4-1.7 3.5-4.5 6-3.2 1.6 1 3 2.7 4.4 4q2 1.6 4.3 2.4c2.8.7 5.8 2.5 8.7 1.4 2.6-1 4.6-6.2 7.8-3.6 2.6 2.6 4.2 3 7.7 3.3 2 .2 4.1-.3 6.1 0 3.5.7 6.7 4 10.4 2.7 2.4-.9 4.5-2.5 7-3.3 3.2-1 6.8-1.8 10.3-1.4 2.5.4 4.8 1.9 7 3.2q4.2 2.9 8.6 5.3" class="b"/><path d="M9 28c5.9 5.6 10.3-4.6 13-8.7 1.2-2 3.3-5.4 6-3.6q3 2.2 5.2 5.1c3 3.6 6.6 12.3 12.1 11 1.8-.5 3.5-1.4 5.2-1.8q3-.6 6.1-.4c3.8.2 7.5 1.9 11.3 2.2 5.3.7 10.5-2 13.8-6.1 1.3-1.5 2.8-3.3 4.3-4.5l3.5-2.4c2.6-1.6 6.3-6.8 9.5-5.4 2.8 1.6 4.6 4.8 7.8 5.7q2.7.8 5.2 1.4c2 .6 4 1.6 6 1.1 3.5-1 5-6.8 8.7-2.8q1.1 1.1 2.6 1.6 1.4.3 2.6.2c2.6.4 5.3-.4 7.8 0 3.8.7 7.4 4 11.3 2.3 2.3-1 4.5-2.4 7-3.3 3.2-1 6.8-2 10.3-1.3 5.3 1.6 9.6 5.4 14.7 7.5" class="b"/><path d="M9 25.5c6.5 6 11-5.2 13.8-9.6 1-1.4 2.3-3.6 4.4-3 2.4 1.1 4.3 3.6 6 5.7 3.4 3.9 7.5 13 13.9 11 2.5-.8 5-2 7.8-1.8q2.6-.1 5.2.4 3.4.9 6.9 1.5c8.2.5 13.6-5.6 18.2-11.6 1.5-2 3.9-3.2 6-4.4 2-1.2 4.6-2.8 7-1.4 5 3.9 4.5 4.5 11.2 5.3 3 .4 5.7 2.4 8.7 2.3 2.5-.4 3.6-3.5 6-4 1.4 0 2.5 1.3 3.5 2q1.6 1.2 3.5.8l3.4-.2q2.6-.5 5.2-.2c4.4 1 8.6 4.7 13 1.7 4.4-2.7 9.4-5.4 14.7-4.9 2.8.5 5.4 1.9 7.8 3.1q3.8 2.1 7.8 3.8" class="b"/><path d="M9 23.6c6.8 4.8 10.9-5.7 13.8-10.1 1.6-2.5 3.4-4.1 6-1.8q3 2.5 5.3 5.4c3.2 3.6 7.5 11 13 10.6 2.6-.3 5-2 7.8-2q3 0 6 .5 2.6.6 5.2 1c6 .4 12.6-4.4 16.5-8.7 2-2.3 3.8-5.4 6.9-6.3 3-1 5.9-2.2 8.7 0 4.3 3.4 6.2 2.6 11.2 3.2 3 .3 5.6 2.5 8.7 2.7 3-.1 4.7-5.1 7.8-3 2.6 2 3.5 2.6 6.9 1.8 5.2-1 6.3-1 11.3 1q5 2.4 9.5-.8c12.5-9.3 17-4.4 29.4.7" class="b"/><path d="M9 22c7.2 3.2 11.1-7.8 14.7-12q2.4-2.7 5.2-.6 2.8 2 5.2 4.5c3.6 3.3 8.3 10.3 13 11.3 2.7.5 5.2-1.2 7.8-1.7 1.4-.3 3 0 4.3.1l6 .6c3.4.4 6.7-1 9.6-2.7q3.1-1.7 6-4c4.3-3.5 5-7 11.3-7.2 5.5-1 6.7 3.3 13 2.9q3.1-.2 6 .7c2.6.7 5 3 7.9 2.3 2.3-.9 4.2-4.3 6.9-2.3q1.5 1.2 3.4 2c2.3.2 4.7-.5 7-1 2.6-.5 5.3.2 7.8 1 4 1.3 7 .6 10.4-2.1C164.6 4.9 172 8 183 13" class="b"/></svg>