<svg xmlns="http://www.w3.org/2000/svg" id="a" width="1920" height="2400" viewBox="0 0 192 240"><defs><style>.b{fill:none;stroke:#fff;stroke-miterlimit:10;stroke-width:.3px}</style></defs><path d="M0 0h192v240H0z" style="stroke-width:0"/><path d="M10.2 222c3.4-.5 6.9-.2 10.3-.4 3-.3 6.3-1.2 9.3 0 4.2 2 7.3 6.2 12 7.3 6 1 11.8 3.9 18 2.7 6.8-1.7 11.6-7.6 17.9-10.7 3.1-1.7 6.8-2 10.2-2.9a16 16 0 0 1 12.8 0c7.9 3.2 9.4-2 18 1.7 3.1 1.4 6.1.7 9.3-.2 2.2-.3 4.6 0 6.8-.2 2.6-.2 5.2-.5 7.7 0 3.3.6 5.7 3.2 8.6 4.8 3.1 2 7.1 1.5 10.2-.3 2.6-1.4 5-3.3 7.7-4.6 4.9-2.5 9.4 2.2 12.8 5.2" class="b"/><path d="M10.2 219.6c3.4-.4 6.9-.2 10.3-.3 3 0 6.3-.7 9.3-.1 3.8 1 6.7 4 10.3 5.5q3.7 1.4 7.7 2.2c4.4 1 9.2 1.7 13.6.3 6.8-2.2 11.9-8 18.8-9.8q3.9-.9 7.7-1.5c2.2-.5 4.5-1.4 6.8-1 3.3.3 6.2 2.2 9.4 2.7 2.8.4 5.7-.6 8.5-.5 3 0 5.7 1.4 8.6 1.7 2.3.2 4.6-.6 6.8-.9q2.6.1 5.1.1c4 0 8.3-1.8 12 .3 2.3 1.4 4.3 3.4 6.8 4.5 3.4 1.6 7.3.2 10.2-1.7 9.2-6 10.9-8.1 19.7.4" class="b"/><path d="M10.2 217.6c3.4-.4 6.9-.2 10.3-.2 3.3 0 6.8-.4 10.2-.3 4 .3 7.4 2.7 11 4 7.5 3 15.5 3.2 23.1 1 5-1.3 9.6-3.7 14.6-5L87 215c2-.6 4-1.5 6-1.7 3-.1 5.8 1.5 8.6 2.3 3.3 1.1 6.8.4 10.2.4 4-.1 8 1.6 12 1.1q2-.3 4.2-.5l4.3.1c2.3 0 4.6-.6 6.8-1 4.4-1.1 7 2 10.3 4.1 7.7 5.2 14.5-2.6 21.3-5.6 4.3-1.4 8.2 2 11 4.9" class="b"/><path d="M10.2 215.7q8.6-.2 17-.2 3.5-.2 7-.5 2.5.1 5 .8c2.3.5 4.6 1.6 6.9 2.1 4.7 1.3 9.6 1 14.5.6 5 0 10.2 1 15.3 0q5-.7 9.4-3c3.5-1.7 7.2-4 11.1-2.8 3.1.9 6.2 2 9.4 2.1q4.2-.2 8.6.1c3.6.4 7.4 1.2 11 .7q3-.4 6-.3 2.6 0 5.2-.8c6.7-2.4 7.5 1 12.8 3.9 6.3 3.2 13.2-1 18.7-4.2 5.2-3.5 9.6-1 13.7 2.8" class="b"/><path d="M10.2 213.8c5.4 0 10.9-.6 16.2.3q2.6.4 5.2 0c2-.4 4-1.2 6-1.3 3.4-.2 6.8.6 10.2 1q4.6.6 9.4.2c9.4-.7 10 6.3 21.3 4.3 4.6-.5 8-3.8 12-5.8 2.9-1.4 6.3-.7 9.3 0q3.8.8 7.7.9 4.3 0 8.6.5 4.6.7 9.4.4c3.4-.4 7-.3 10.2-1.5 5.8-2.3 6.5-.3 11 2.9 6.2 3.6 13.8 1.2 19.7-1.6 1.7-.7 3.4-1.9 5.1-2.4 3.8-1.1 7.5 1.2 10.3 3.5" class="b"/><path d="M10.2 211.7c4.3 0 8.6-1 12.8-.3 3 .5 5.6 2.2 8.6 2.3 3.1-.1 6.2-1.5 9.3-2 3.4-.6 6.9-.5 10.3-1 5.6-.8 8.9-2.7 13.6 1.7 2.4 2 4.5 4.7 7.7 5.2q5.2.8 10.3-1.1c2-1 4-2.6 6-3.9 2.4-1.8 5.5-2.1 8.5-1.8q12 1.3 23.9 2.2c4 .4 8-.3 12-1.3 2.2-.6 4.4-2 6.8-1.6 2.8.8 4.7 3.8 7.6 4.5 4.2 1 8.7.4 12.8-.1 9.8-1.3 11.6-8.1 21.4-1" class="b"/><path d="M10.2 209.3q3.5-.2 6.8-.6a15 15 0 0 1 7.7.7c3.2 1.3 5.7 4.5 9.4 4.4q3 .1 6-.6c1.4-.4 2.9-1.2 4.3-1.6q4-.9 7.6-2.6c3-1.3 6.1-4.4 9.4-2.7 1.7 1 3 2.7 4.3 4.1 1.5 1.9 3 4 5.1 5.2 3.3 1.3 7 .4 10.3-.3 5.1-1 8-6.4 13.6-6 6.6 0 13.1 1.1 19.6 1.8 4 .3 8 .9 12 .5a33 33 0 0 0 6.8-1.9c2.2-.8 4.6-2.2 6.9-1 2 1 3.6 3 6 3.5 1.9.4 4 .1 6 0l6.7-.1q4.5.1 8.6-1.3c6.1-2.8 8.7-2.6 14.5 1" class="b"/><path d="m10.2 206.8 6.8-.5q3-.6 6-.2c3.3.6 5.4 3.6 7.7 5.8 2.4 2.3 6.1 3 9.4 2.5 2-.3 4-1.5 6-2.2 5.2-1.8 7.2-4.2 11-7.8 6.1-5.7 9 7 13.7 9.2 3.6 1.8 9.4-.3 12.8-1.9 2.9-1.4 5.3-4.1 8.6-4.5 7.4-.1 14.8 1.7 22.2 2.5 5 .4 10.4 1 15.3-.6 2.6-.7 5-2.5 7.7-2.6 2.3.2 3.9 2.4 6 3.1 3.1.9 6.3-.9 9.4-1 3.7-.2 7.4.4 11 .1 2.4-.1 4.7-1 7-1.8 3.8-1 7.7 1 11 3" class="b"/><path d="M10.2 204.7q4.3.1 8.6-.5c5.5-1.3 7.9 1.3 11 5.4 3.9 5.7 9.6 5.5 15.4 3.1a22 22 0 0 0 11.1-8.5c1.3-1.6 2.8-4.4 5.1-4 1.5.7 2.6 2.3 3.4 3.6 1.4 1.9 2.7 4.2 4.3 6 2.6 2.8 6.1 2.4 9.4 1q3.6-1.3 6.8-3.4c2-1.3 4.3-2.8 6.9-2.6 4.6.2 9.1 1.4 13.6 2.3 7.3 1.4 15 2.4 22.2.6q3-1 6-2.3c5.7-2.2 5.6 4.8 12.8 1 6.1-3 10.8-1.4 17-1.4q3.1 0 6-1c4.3-1.1 8.4 1.5 12 3.5" class="b"/><path d="M10.2 203q3.4.8 6.8.6c2.5-.3 5.4-1.1 7.7.2 2.4 1.3 4 3.8 6 5.6a11 11 0 0 0 9.4 2.6c3.2-.3 6.5-.8 9.4-2.4C55 206.9 56 202 59.7 198c2.7-2 4.6 2.4 6 4.1 1.4 2.1 3 4.5 5.1 6 3.3 2.1 7.2-.2 10.3-1.7 3.9-2 7.2-4.8 12-3.7 3.4.4 6.8 1.6 10.2 2.5q5.8 1.6 11.9 2 6 .6 12-1.2c2.8-.6 5.5-2.7 8.5-2.4 2.7.8 4.7 2.9 7.7 1 8.6-5.7 10.9-4.1 20.5-3.4q3 .1 6-.5c4.3-.5 8.1 2.4 11.9 4.2" class="b"/><path d="M10.2 202.3q3 1 6 1.3c3.5-.3 6.4-1 9.4 1.5 1.6 1.2 3 3.1 5.1 3.6q2.2.3 4.3.3 3.3.4 6.8 0c4.7.2 8.7-.6 12-4.2 1.6-2 3-4.7 4.2-7 1.2-1.9 2.9-4.5 5.1-2 3.5 3.5 6 10.6 12 9.8 3.3-.7 6.2-2.8 9.4-4 3.6-1.7 6.5-1.3 10.2-.4s7.3 2.6 11.1 3.5c5 1 10.3 1.7 15.4 1.1q3.5-.5 6.8-1.9c2.2-.8 4.5-2.1 6.8-1.4 1.7.5 3.4 1.3 5.2.9s3.5-2 5-3.2q3-2 6-3c4.6-1 9.2.5 13.7.7h5.2c4.3 0 8 2.8 11.9 4.5" class="b"/><path d="M10.2 202q3 1.2 6 1.3c2.7-.2 5.4-.1 7.7 1.6 1.7 1.2 3.1 3 5 3.8 2.5.6 4.7-1.1 7-1.7q2.4-.6 5-.4c2.3 0 4.6.3 6.9-.1 2.8-.6 5.3-2.6 6.8-5 2-2.9 3.1-7 6-9.2 2.3-.9 3.8 2 5.1 3.5 1.5 1.9 3.2 4 5.1 5.4 5.8 4.4 12.2-4 18.8-2.5 4.4.8 8.5 2.7 12.8 3.9a61 61 0 0 0 10.2 1.6q4.4.6 8.6.2c3.5-.5 6.7-2.6 10.2-3.2 1.4-.2 3 .3 4.3.6 4.2.8 7-3.4 10.2-5.3q4-2.6 8.6-2.7 3.8.2 7.7 1 3.7.7 7.6.7c4.4.3 8.1 2.9 12 4.7" class="b"/><path d="M10.2 201.1q3 1 6 1.2 3.2-.2 6 1.4c2 1.3 3.7 3.5 6 4.6 2 1 4.2-.2 6-1.2q2.4-1.5 5-2.1c4-.5 8.6.7 12-2.3 4.5-3 5.2-9.5 9.4-12.7 2.9-1.2 5 2.7 6.8 4.3 4.6 4.8 7.2 6.4 13.7 4q3.3-1.4 6.8-1 5.3 1.4 10.2 3 5.2 1.3 10.3 1.6 5.1.8 10.2 1c3.9 0 7.4-2 11.1-2.6 5.3-.2 6.4 1.4 11.1-2.6 3.8-3.5 8.5-6.1 13.7-6.4 2.6-.2 5.2.5 7.7 1.1 3 .8 6.3.8 9.4 1.4 3.6.9 6.9 2.8 10.2 4.4" class="b"/><path d="M10.2 199.5c10.4 2 7.6-1 16.2 6.4 2.6 2 5 1.8 7.7.3q3-1.6 6-2.5 2.6-.2 5.1-.6c3.6-.5 6.6-3 8.5-6 2-2.8 3.5-6.3 6-8.7 5.1-4.3 10.5 8.5 18 8 3 0 6.2-1 9.3-.2s6.3 1.9 9.4 2.3c3.7.5 7.5.6 11.1 1.2 4 .6 8 1.3 12 1.1 3.1-.2 6.2-1.3 9.4-1.4 7 .3 8.4-1.3 13.6-5.5q5.4-4 12-4.6c2.9-.1 5.8.7 8.5 1.5s5.8.9 8.6 1.6c3.5 1.1 6.9 2.9 10.2 4.5" class="b"/><path d="M10.2 197c9.5.2 8.3-.5 15.4 5.8 1.9 1.5 4.3 3 6.8 2.2 2.3-.7 4.5-2 6.8-2.8l5.2-1c7.4-2 9.8-9 14.5-14.1 6.1-6 12.5 5.8 19.6 6.3l6 .6 8.5 1.5c4.3.6 8.6.7 12.8 1.7q6.3 1.6 12.8 1.5c3.1 0 6.3-.6 9.4-.4 8.3.2 11.3-5.2 18-8.5s11.1-2.1 17.9 0q3.8.8 7.7 1.8 5.3 1.8 10.2 4.4" class="b"/><path d="M10.2 193.4c2.8-.3 5.8-1.1 8.6 0 3.3 1.6 5.3 5.2 8.5 7.2 3.4 2.3 5.9 1.5 9.4 0 2.1-1 4.6-1.3 6.8-1.8 6.5-2 10-8.2 14.5-12.8 1.8-1.7 4.3-3 6.8-2.4 4.3 1.2 7.9 4 12 5.4q3.8 1 7.7 1.8l6.8 1.5c3.6.8 7.5 1 11.1 1.9 2.8.6 5.7 1.7 8.5 2 4.8.6 9.7.4 14.6.7 6 .3 11.4-3 16.2-6.3 7.2-5.1 12.4-4.9 20.5-2 3 1 6.3 1.6 9.4 2.7 3.4 1.1 6.8 2.7 10.2 3.8" class="b"/><path d="M10.2 189.5c3-.7 6.5-1.8 9.4-.2 4.2 2.5 6.7 8 12 8.7 1.7.2 3.4-.5 5-1q3.5-.6 6.9-1.5c5.2-1.8 9-6 12.8-9.8 2.3-2.1 5.3-4.3 8.5-3.5 4 1 8 2.6 12 3.5 4.9 1 9.7 2.6 14.5 3.9 4 .9 8.1 1.2 12 2.6 2.7 1 5.5 2.1 8.5 2.3q6 .2 12 .8c6.8.2 13-3.4 18.7-6.8 6.4-4.5 11.2-3.4 18-.6 2.4 1 5.1 1.5 7.6 2.3 4.4 1.7 9 3.5 13.7 3.8" class="b"/><path d="M10.2 186c7.3-1.5 9.9-1.3 15.4 3.8 2.1 1.9 4.6 4 7.7 3.8 12.4-.4 14.6-2.8 23.9-10.3 4.4-3.4 7-2 12-1q5.8 1 11.9 2c3.2.6 6.2 2 9.4 2.7q6.4 1.4 12.8 3.5 2.9 1.2 6 2 3.2.5 6.8.6c2.8.2 5.7 1 8.5.6 5.4-.7 10.5-3 15.4-5.4 2.3-1 4.4-2.8 6.8-3.6 4.8-1.5 9.4 1.3 13.7 3 2.5 1 5.1 1.6 7.6 2.6 4.3 2 9 3.4 13.7 2.3" class="b"/><path d="M10.2 183.5q3-.3 6-.4 4-.3 7.7 1.5c2.5 1.2 4.9 3.2 7.7 4a25 25 0 0 0 19.6-3c3.7-2.3 7.3-5.8 12-5q3 .6 6 1c4.2.3 8.5.3 12.7 1 2.6.5 5.2 1.6 7.7 2.3q3.8 1.1 7.7 2.1c4 1.2 7.8 3 12 3.9 3.3.8 6.8.7 10.2 1.1 4.7.7 9.3-.8 13.6-2.5q5.3-2 10.3-5c3.8-2.6 8-1.8 12 .1s8.4 3.2 12.7 4.5c4.3 1.8 9.1 3.5 13.7 1.6" class="b"/><path d="M10.2 181.8q3 .1 6 0c2.5 0 5.2-.3 7.7.1 3.5.6 6.6 2.8 10.2 3 4.2.5 8.7.7 12.8-.5 4.4-1.2 8.2-4.3 12.8-4.5 2.6 0 5.1.7 7.7.7 4.5-.1 9.1-.3 13.6.2q5 1 9.4 2.8c6.3 1.8 12.4 4.3 18.8 5.9q4.2 1.1 8.6 1 3 .3 6 .2c8-.8 14.7-6.1 22.1-9 3.2-.8 6.5.6 9.4 1.8q4.5 1.8 9.4 2.3c5.7.6 11.2 4.8 17 2.7" class="b"/><path d="M10.2 181q3.5 0 6.8-.3 4-.8 7.7-1 3.5.5 6.9 1.1a68 68 0 0 0 15.3.2c2.9-.5 5.7-1.6 8.5-1.9 3.2-.3 6.3.5 9.4.5 2.6.1 5.2-.6 7.7-.7 3.4 0 7-.1 10.3.6 7.5 1.9 14.6 5.6 22.2 7.5q6.7 2 13.6 2.2c3.4.3 7 .6 10.3-.6 4.5-1.5 8.4-4.6 12.7-6.6 2.4-1.2 5-2 7.7-1.4 3.1.7 6.2 2 9.4 2 3.1.3 6.3-.4 9.4 0 4.6 1 9 3.7 13.7 3.4" class="b"/><path d="M10.2 180.1c6.3-.5 12.4-3.2 18.8-2.5q8.1.4 16.2.1c3.4-.1 6.9-.6 10.2 0 3.7.6 7.5 1.4 11.2.5q2.5-.7 5-1c2-.3 4 0 6 0 10.4 0 19 7.2 29 8.7q6 1.2 12 2c4.4.8 8.7 1.3 12.8-1 4.8-2.5 9-6.7 14.5-7.2q3.4.2 6.9.8 3.9.4 7.6-.8 3.5-1.2 6.9-1.7c5.2-.3 9.6 3.4 14.5 4.8" class="b"/><path d="M10.2 178.7c4-.7 8-2.2 12-3 3.9-.8 8-.6 12-.9 4.7-.2 9.6-.6 14.4-.1 3.5.4 6.8 1.8 10.3 2.4q3.9.6 7.6-.6c2-.6 4-1.5 6-1.5q3 .3 6 .5c6-.3 11 2.4 16.2 4.8q5.6 2.8 12 3.3 6 .8 12 2.7c5.4 2 9.3 3 14.4-.6 3.9-2.8 7.8-6.4 12.8-6.3q3 .2 6 0c3-.3 6-1.7 8.5-3.2 10.4-6.4 12.4-2.9 21.4 2.9" class="b"/><path d="M10.2 176.5c3.8-.5 7.4-2 11.1-2.9 4-.9 8-1 12-1.4 9.8-1 12-1.4 21.3 2.4 3.3 1.3 7 1.6 10.2.5 2.8-.7 5.6-2.7 8.6-2.2q2.1.5 4.2.6 2.6-.2 5.2 0c4 .7 7.4 2.8 11 4.4 2.5 1 5.1 2 7.7 2.2 3.2.3 6.4 0 9.4.8 5.2 1.3 9.5 5 14.5 6.6 4.7 1.4 8.6-2.3 12-5q3-2.4 6.8-3c8-.1 11.1-2.8 17.1-7.5 3.5-2.7 8.3-5.6 12.8-3.3 3 1.6 5.1 4.4 7.7 6.4" class="b"/><path d="M10.2 173.4c4-.3 8-1.6 12-2.3q6.3-.9 12.8-1.6c9.2-1.4 10.6-.2 18.8 3.2 3.5 1.4 7.5 1.8 11 .4 2.3-.7 4.5-2.3 6.9-2.6q1.6.2 3.4.6c2.5.8 5.1-.3 7.7 0 5.8 1.3 10.9 5.5 17 5.4 6.5-.1 10.6-1 16.3 3.2q3.3 2.6 6.8 5.1c2.2 1.6 4.9 3 7.7 2.4 2.3-.4 4.2-2 6-3.5 2.1-1.8 4.7-3.4 7.6-3.7 7.6-.8 12.4-7.5 18-12 3.4-2.6 8.4-5.4 12.8-3.3 2.7 1.6 4.5 4.5 6.8 6.7" class="b"/><path d="M10.2 169.6q9-.5 18-1.6c4.5-.5 9-1.6 13.6-1.2 4.8.4 9 3.5 13.7 4.5 3.6 1 7.7 1 11-1 1.7-.8 3.3-2 5.2-2.3 1.4 0 2.8.9 4.2 1.1 2 .5 4-.5 6-.4 3.9.4 7.4 2.6 11.1 3.5 6.1 2 12.8-1.2 18.8 1.2 7.1 2.7 13 15.7 21.3 13.1 2.8-1.1 5-3.4 7.7-4.6 2.2-1 4.8-1.3 6.9-2.7 5-3.2 8.4-8.3 12.8-12.2 3.8-3.5 9.1-6.5 14.5-5.4 3 1 4.8 4.1 6.8 6.4" class="b"/><path d="M10.2 166.2c4.3-.4 8.6.2 12.8 0 5.1-.2 10.2-1.3 15.4-1.3a24 24 0 0 1 9.4 1.8q3.7 1.4 7.7 2.4c6.8 1.8 8.8.8 14.5-3 2.3-1.5 4.4.9 6.8 1 2 .1 4-1.1 6-.7 3.7.9 7.3 2.6 11 3 4.6.5 9.2.3 13.7.6 6.1-.2 8.2 2 12 6.3 3.7 4.1 8.2 11 14.5 10 2-.6 4-2 6-2.9l5-2.3c5-3 8.2-8 12-12.2 4.8-5.5 9.6-9 17.1-9.3 3.5 0 5.7 3.2 7.7 5.6" class="b"/><path d="M10.2 163.8a46 46 0 0 1 9.4 0q4.7.2 9.4-.2c4.2-.3 8.6-.6 12.8 0s8.6 1.9 12.8 3c3.3.8 7 2.3 10.2.7 1.6-.7 3-2 4.3-3s2.9-1.8 4.3-.8q1.5 1 3.4 1.5 1.8.1 3.4-.6c2.9-.8 5.8.6 8.5 1.3q4.2 1 8.6 1.7 3.3.8 6.8 1.7 2.5.6 5.1.2 2.2-.5 4.3-.5c4.7.7 8.4 8.9 12 12.2q1.5 1.6 3.3 2.7c1.5 1 3.3 2 5.2 2 3.6-.1 7.1-1.7 10.2-3.5 3-2 5.4-5.2 7.7-8 4.9-6 9.9-13.3 18-15 6.1-1.5 7.8-.8 11.9 4.2" class="b"/><path d="M10.2 162.2q4.2-.7 8.6-.3h7.6q7-.4 13.7 0c5.5.3 11 1 16.2 3 3.5 1.4 7.2 2.4 10.3-.4 2-1.5 4-5.4 6.8-3.7 1 .7 2.2 1.7 3.4 2.1 1 .4 2.4 0 3.4-.4a8 8 0 0 1 3.4-.3c2.6.3 5.2 1.3 7.7 2.1q3.6 1 6.8 2.5c2.7 1.4 5.5 3.1 8.6 3.2a11 11 0 0 0 5-1.5c1.3-.6 3-1.4 4.3-.8 4 2.2 5.7 6.8 8.6 10q2.3 2.7 5.1 4.5 2.3 1.6 5.1 2.4c9 1.7 12.4-5.4 17.1-11.4 4.9-6.3 10.5-13.4 18.8-14.8 5.6-1.4 7.2-.2 11 3.8" class="b"/><path d="M10.2 161.1q3-.6 6-.8h4.3q8.1-.2 16.2.3c4.8.1 9.7-.9 14.5.3 2.3.6 4.6 1.8 6.8 2.7 4.4 2 7.3 1.3 10.3-2.5 1.5-1.8 3.4-5 6-2.6q1.4 1.6 3.3 2.5c1.8.5 3.4-.8 5.2-.7a16 16 0 0 1 6.8 2.2l6 3.3c3.6 2 7.5 4.9 12 4.4 1.8-.4 3.5-1.6 5-2.7s3.5-2.3 5.2-1c3.7 3.1 5.5 8.1 9.4 11 3 2 5.9 4.2 9.4 5.1 4.9 1.5 7.5-.7 10.2-4.6 2.8-3.8 5.3-8 8.5-11.4a26 26 0 0 1 19.7-9.4c2.7.2 4.7 2.5 6.8 4" class="b"/><path d="M10.2 160.3c7-1.8 14.3-1.8 21.4-1q3.3.5 6.8.1c2.3-.2 4.5-.9 6.8-1.1 3.3-.6 6.5.5 9.4 2 5.2 2.3 9.6 5.1 13.7-.6 1.2-1.6 2.3-4 4.2-4.8 1 0 2 .8 2.6 1.5 1 1 2 2.2 3.4 2.6 1.7.4 3.4-.5 5.1 0 2.6.5 4.8 2.3 6.9 3.8q2.4 1.8 5 3.2c3.5 1.8 7.2 4.1 11.2 4 2.3-.3 4.3-2 6-3.6 2.9-3 4.9-3.6 7.6 0 3 3.7 4.9 7 9.4 9 3.2 1.7 6.6 3.9 10.3 4.3 4.4.3 7-5.9 9.4-9 2.3-3.5 5-7 8.5-9.4 4.9-3.4 11-5.6 17-4.8 2.6.6 4.6 2.7 6.9 3.8" class="b"/><path d="M10.2 159.4a39 39 0 0 1 17-1.5c8.3 1.5 9.4.9 17.2-1.2 3.5-.6 7 .9 10.2 2.2 6.1 2.4 10.2 5.2 14.5-1.8 1.2-1.6 2.2-4.3 4.3-4.8 2.5.8 3.5 4 6 5 1.6.3 3.5 0 5 1 2.5 1.3 4.6 3.4 6.9 5q4.5 2.8 9.4 4.8c5.4 2.1 8.3.7 12-3.5 2.2-2.6 4.7-5 7.6-1.7 2.4 2.6 4.4 6 7.7 7.3 4 1.5 7.7 4.2 12 5.2 2.5.5 4.6-1.6 6-3.5q2.5-3.6 5-7.4a22 22 0 0 1 12.9-8.6c3-.7 6.2-1.4 9.3-.9s5.4 3.6 8.6 4.2" class="b"/><path d="M10.2 158c5-1 10.2-2.9 15.4-1.6 2.5.5 5 1.4 7.7 1.5 4 0 8-1.3 12-1.6 5-.3 9.8 1.5 14.4 3 9.7 3.8 9.7-8.6 14.5-9.4 2.2 1 3.3 3.7 5.1 5.1 1 .8 2.4 1 3.5 1.6 1.8.9 3.4 2.4 5 3.6 4.6 3.4 13 8.8 18.9 7.1 4.7-1.3 7.7-9.8 12-9 2 .8 3.5 3 5 4.5q1.9 2.1 4.3 3.3l6 2.6c3.5 1.7 7.8 5.5 11 1.4 3-3.2 4.8-7.3 7.8-10.5 4.4-5 11.5-6.4 17.9-6.3q2.8.3 5.1 2c1.7 1.1 3.7 2.6 6 2.3" class="b"/><path d="M10.2 156c4.3-.5 8.4-2.7 12.8-1.8 2.9.5 5.7 1.8 8.6 2.2q7.2 1.2 14.5.2 5.6-1.2 11 .4c5.2 2 8.6 2.9 12-2.3 1.7-2.3 2.7-5.6 5.1-7.2l.9-.1c2.6 1.4 3.6 4.6 6 6.4 3 2 5.6 4.6 8.5 6.7 4 2.7 8.7 5.3 13.7 5.3 4.5 0 7.5-4 10.2-7 1.6-2 4.1-4.8 6.8-3.1 2.6 1.6 4.4 4.3 6.9 6 2 1.5 4.6 2.4 6.8 3.7 2.9 1.4 6 5.4 9.4 4.2 3.5-2.3 5.1-6.7 7.7-9.9 4.3-6.2 11.4-8.4 18.7-7.6 4.8.5 6.8 5.7 12 3.4" class="b"/><path d="M10.2 153.4c2.9-.2 5.7-1.3 8.6-1.8 4.1-.5 8.1 1.4 11.9 2.9q4.2 1.5 8.5 2.4c8 1.5 10.2-3.5 17.1-1.6 7.4 2.8 10.5 2.7 14.5-4.7 1.3-2 2.6-6 5.1-6.2 2.4 1 3.6 3.8 5.2 5.7 2.9 3.3 5.8 6.8 9.4 9.4 4.8 3.5 11.7 5.8 17 2.2 3.3-2.1 5.6-5.5 8.6-8 4.2-3.8 8 1.7 11 4.3 2.4 2 5.4 3.3 7.7 5.3 3.6 2.7 7.2 8 11.1 2.6 2.4-3.1 4.1-7 6.9-9.8 3.7-4.3 9.7-6.1 15.3-5 6.2.8 6.8 6.6 13.7 2.9" class="b"/><path d="M10.2 150.4c2.6 0 5.2-.8 7.7-1.4 4.3-1 8.4 1.3 12 3.5a51 51 0 0 0 7.6 3.3c3 1 6.5 1.4 9.4-.2 1.8-1 3.8-2.3 6-2.4 4.3-.1 8.5 3.3 12.8 1.3 5.4-2.2 6.8-12.2 11-13.8 2.6.4 3.8 3.3 5.2 5q3.2 4.8 6.8 9.3a15 15 0 0 0 14.5 5c4.8-1.1 8.4-4.8 12-7.9 5-4.7 8.8-1 12.8 2.7 2.5 2.3 5.5 4.2 7.7 6.7 2.4 2.5 6 7.8 9.4 3.9 2.3-2.6 3.9-6 6-8.7 2.8-3.8 7-7 11.9-7.1q5.2 0 9.4 3c3.1 2.6 6.2 1.2 9.4-.5" class="b"/><path d="M10.2 147.6q4-.2 7.7-1.3c4.2-1 8 1.6 11 4q3.8 2.3 7.8 4c2.9 1.2 6.5 2.1 9.4.4 1.4-.8 2.7-2.2 4.2-2.8 3-1.5 6.4.3 9.4.8 7 1.5 10-3.5 12.8-8.9 1.4-2.4 2.6-5.6 5.1-7 3.3-1 6.9 6.3 8.6 8.5 1.7 2.6 3.5 5.5 6 7.5 3.3 2.5 7.8 4 12 2.9 4.8-1.3 8.6-5 12.7-7.6 4.6-2.9 8.8.3 12 3.7 1.3 1.4 3 2.7 4.2 4.2q2.7 3.2 5.2 6.4c8.3 10.3 9.5-11.5 22.2-13.8 4.7-1 8.6 2.5 12.8 3.9 3 .5 5.6-1.8 8.5-2.3" class="b"/><path d="M10.2 145.2q2.6-.1 5.1-.8c2-.5 4-1.1 6-.7 3.4.8 5.8 3.6 8.6 5.5q2.4 1.6 5 2.7c2.2 1 4.5 2 6.9 2.2 4.3.5 5.8-3.6 9.4-4.6 3.4-.6 6.8 1.3 10.2 1.2 5.1 0 7.8-3.6 10.3-7.4 2-3 3.6-6.4 6-9 2.4-2.8 4.8-1.3 6.8 1 4.5 5.5 6 10 12.8 13.5 6.2 3.9 13-.4 18.8-3.2q6.6-3.5 12 1.8 4.8 4.8 8.5 10.5c9.2 15.2 10.3-6.2 22.2-10 4.4-1.6 7.8 1.8 12 2.6q1.6.4 3.3 0 1.7-.8 3.4-1.6 2.2-.5 4.3-.6" class="b"/><path d="M10.2 143.3c3.5 0 6.7-2.2 10.3-2 3.8.5 6.4 3.7 9.3 5.8q2.5 1.7 5.2 2.8 2.8 1.5 6 2c4.7.8 5.6-3.1 9.3-4.5 3.2-.8 6.3.9 9.4 1 2.4 0 5-.4 6.8-1.9q4.4-3.7 7.7-8.4c3.2-4 7-12.9 12.8-7 2.7 2.9 5.3 6 8.6 8.2 2.5 2 5.2 4.2 8.5 4.7 4 .4 8.1-.8 12-1.8 3.3-1 7.2-1.6 10.2.6 3.4 2.6 6.2 6.2 8.5 9.8 1.8 2.7 3.3 6 6 8 5 2.8 8.3-9.6 16.2-13 4.1-2 7.2.5 11.1 1.1q2.2.3 4.3-.4c1.6-.7 3.3-2 5.1-1.9l4.3.3" class="b"/><path d="M10.2 141.8c3.3-.3 6.2-2.4 9.4-3 5-.5 8.2 4 12 6.5 2.8 1.7 6 3.3 9.3 3.7 4.2.7 5.7-3.9 9.4-4.5 2-.3 4 .3 6 .7q2.6.5 5.1.2c2.7-.2 4.9-1.8 6.9-3.5 2.7-2 5.5-4.3 7.6-7 2.8-3 5.1-7.8 9.4-8.8 2.3-.3 4.3 1.2 6 2.4q3 2 6 4 2.8 2.4 6 4.2c3.2 1.4 6.8 1 10.2.8 3.7-.3 7.7-1 11.1.6 2.4 1.1 4.3 3.3 6 5.3q3 3.4 5.1 7.5c8.6 16.5 10.6.4 20.5-3.8 2.7-1.3 5.7-.6 8.5 0 6.4 1 7.6-3.5 12-2.9l5.1 1.3" class="b"/><path d="M10.2 140.4c3.5-.5 6.2-3.1 9.4-4.1 5.6-1.8 9.5 3.5 13.7 6.3q2.8 1.6 6 2.4c4.8 1.2 6-3 10.2-3.7 2.3-.4 4.6.4 6.8.8q3.5.5 6.8-.4c1.9-.5 3.5-1.9 5.2-2.8 2.6-1.5 5.4-3 7.6-5 3.8-3.2 7.6-10.4 12.8-10.4 3 .3 5.9 1.6 8.6 2.8 3.6 2 6.7 5.4 11 5.5 4.3.2 8.7-.7 12.9.4 7.7 2 12.5 11.6 16.2 18 5.2 9.6 8.8 2.6 14.5-1.7q3.8-2.9 8.5-2.9c2 0 4.1.3 6-.2 3-1 5.3-3.9 8.6-3.6 2.3.5 4.5 1.7 6.8 2.3" class="b"/><path d="M10.2 138.7c3-.2 5.3-2.5 7.7-4C23 131 28 133.1 32.4 137c2.3 2 5.4 3.5 8.5 3.3 2.4-.3 4.5-2.2 6.9-2.6 2.5-.5 5.1.4 7.6.8q5.5 1.1 10.3-1.5c5.7-2.6 10-3.6 14.5-8.4 2.8-2.7 5.4-6.3 9.4-7q2.6-.3 5.1.2 3.8.2 6.8 2.5c7.7 6.1 12 .5 19.7 3 3 1 5.6 3.2 7.6 5.7 4 4.2 6.5 9.5 9.4 14.4 6.1 10.1 10.8-1 18.8-2.4 2-.5 4-.5 6-.8 3.4-.9 6-4 9.4-4.8q2.2-.1 4.3 1 2.5 1.2 5 2.1" class="b"/><path d="M10.2 137c6-.3 8.1-8 16.2-7.6 5.2 0 8 4.7 12.8 5.5 3 .4 5.7-1.2 8.6-1.2 2.6 0 5.1 1 7.7 1.4q3.4.7 6.8-.2c1.7-.4 3.4-1.3 5.1-1.7 5-1.3 9.9-3.3 13.7-6.8 2.4-2 4.7-4.6 7.6-6q2.5-.8 5.2-.8 2.1-.2 4.2.2c2.9.8 5 3.2 7.7 4.2 4 1.5 8-1 12-1.2 4.4-.1 8.2 2.9 11 6 4.7 4.6 7.3 11 11.2 16.2 3.9 5.5 8 3 12.8.4 2.9-1.6 6.4-1.9 9.4-3.4 3.6-2 7.3-6.1 11.9-4.7 2.6.9 5 2.4 7.7 3.2" class="b"/><path d="M10.2 135c5 .8 8.4-6.7 13.7-8.2 6.6-2.5 8.8.4 14.5 2.7 3.5 1.4 7.4-.1 11 .9 4.2 1 8.6 2.5 12.9 1.3 1.7-.4 3.4-1.2 5.1-1.5q7.5-1.3 13.7-5.8c2.5-1.9 4.8-4.2 7.6-5.5q3-1.1 6-1 3.3-.2 6 1.7c2.5 1.8 5.3 4 8.5 3.2 3.5-.6 6.7-3 10.3-2.7a16 16 0 0 1 8.5 4.3c5.8 4.7 9 11.9 13.7 17.6 3.3 4.1 6.5 4.2 11 2q3.7-1.6 7-3.7c2.2-1.5 4.3-3.4 6.7-4.6 5.9-2.8 10 .6 15.4 2.2" class="b"/><path d="M10.2 132.8c3.6 1.2 6.3-2.2 8.6-4.5a16 16 0 0 1 11-5.7c2.2 0 4.2.9 6 1.8a22 22 0 0 0 6 2c2.3.3 4.6.3 6.8.9 5.8 1.6 10.4 3.2 16.3.9 1.6-.6 3.4-.7 5-1.2q5-1.4 9.5-4c2.6-1.5 5-3.7 7.6-5.1 3.4-1.8 7.7-2.3 11.2-.3 3.1 1.8 6.2 5.2 10.2 4.3 3.6-.8 6.6-3.3 10.2-3.8 3-.2 6 1.3 8.6 2.9 6.1 3.8 10 10 14.5 15.5 2.8 3.7 6.1 7.6 11 4.8 4.6-2.3 8-6.9 12.9-8.4 5.4-1.3 11 .4 16.2 2" class="b"/><path d="M10.2 130.5c2.5 1.3 5 .2 6.8-1.7 3.3-3.6 6.1-7.4 11.1-8.5 4.6-1.2 8.6 2 12.8 3.2 2.5.6 5.2.6 7.7 1.4 4.2 1.1 8.5 2.6 12.8 1.8q2.6-.5 5.2-1.2 4-.3 7.6-2.2 4-2 7.7-4.3c3.2-2.3 7-4.4 11.1-3.7 3 .4 5.3 2.6 7.7 4.2 6.3 4.8 11.7-2.1 18-3.1 5-.4 11.5 3.7 15.3 6.9q4.5 4.1 8.5 8.8c2.6 3 6 7.6 10.3 5 3.8-2 6.7-6 11-6.9 2.3-.4 4.7.2 6.9.1q5.6-.2 11.1 1" class="b"/><path d="M10.2 128c1.8 1.1 4.2 1.5 6 .1 3.4-2.6 5.3-7 9.4-8.7 5.7-2.8 9.3-.2 14.5 1.9 2.7 1 5.8 1 8.5 1.7 3.6 1 7.3 2.2 11.1 2q3-.3 6-1c1.7-.4 3.5-.3 5.1-.8 3.7-1.1 7-3.2 10.3-5 2.4-1.5 4.8-3.1 7.7-3.4 4-.5 7.1 2.1 10.2 4.2 6.4 4.4 12.6-2.9 18.8-4.3 4.6-.7 10.4 2.7 14.5 4.7 3.7 2 7 5 10.2 7.9 2.6 2.2 4.8 6.2 8.6 6 3.2-.6 5.6-3.4 8.5-4.7q2.4-1.2 5.1-1 2.6.5 5.1.7c4-.1 8-1.3 12-.7" class="b"/><path d="M10.2 125.5c2.2 1.2 4.7 2 6.8.3 1.6-1.2 3-3 4.3-4.5q2.5-2.7 6-4c4.6-1.6 8.6 1.1 12.8 2.8 2.7.9 5.8.8 8.5 1.6 3.6.9 7.4 2 11.1 1.6 2.3-.2 4.6-.8 6.9-1 1.6-.2 3.5-.1 5-.5 4.3-1 8.1-3.3 12-5q4.2-2 8.6-.4c2.3.8 4.4 2.5 6.8 3.2 4.8 1 10.4-3.1 14.5-5.3q4.5-3 9.4-1 5.2 2.2 10.2 4.6 5.4 2.7 10.3 6.6c1.9 1.6 3.6 3.7 6 4.7 4 1.5 7.2-2.9 11-3.6 3.2-.7 6.3.8 9.5.7 4-.4 7.8-2.4 11.9-2" class="b"/><path d="M10.2 122.8c8 4.3 8.4-2.7 14.5-5.4q4.7-2.2 9.4-.4 3.4 1.7 6.8 2.8c1.7.4 3.5.3 5.2.6 3.4.3 6.8 1.5 10.2 1.6 3.5.3 6.9-1 10.2-1.5q4 0 7.7-.5c3.5-.6 6.9-1.9 10.3-2.7q3-.6 6 .1c2 .4 4 1.3 6 1.6 3.6.6 6.9-1.6 10.2-3q3-1.3 6-3.1c1.8-1.1 3.7-2.5 6-2.8 2.7-.2 5.3 1.5 7.6 2.9q4.6 2.6 9.4 4.7 4 2 7.7 4.4c3 2 6.1 6.4 10.2 4.3 2-1 3.9-2.2 6-2.7 3.4-1 6.8.8 10.2.5 4-.5 7.9-2.5 12-2.2" class="b"/><path d="M10.2 120.2c6.6 2 7-.3 12-3.4q2.4-.9 5-1c4.4-.6 8.1 2 12 3.3 3.3 1.1 7 .5 10.3 1.3 7.9 1.6 9.5.9 17-.8 3.1-.2 6.3.2 9.4 0 3.2-.1 6.3-.8 9.4-1.2 3.7-.3 7.5.4 11.1 0 2.1-.4 4-1.6 6-2.4l6-2.1c3-1.2 5.7-3.4 8.5-5 2.6-1.6 5.4-1 7.7.7q3.3 2.7 6.8 5l10.3 5q2.3 1.2 4.2 2.8c1.5 1.2 3.2 2.5 5.2 2.4 1.5 0 3-1 4.2-1.6 3.9-2.4 6.9-2.2 11.1-1.5 2.6.3 5.2-.3 7.7-.7q3.8-.6 7.7-.2" class="b"/><path d="M10.2 117.9c10 .8 8-7 19.6-2.8 3.5 1.2 6.7 3.2 10.3 3.9q2.5.3 5.1.4 3 .2 6 .9 3.8.7 7.7.5c2.5-.2 5-1 7.6-1.2 4.3-.3 8.6.8 12.8.3 2.3-.1 4.6-.7 6.9-1q5.3-.6 10.2-2.1c2-.8 3.9-2 6-2.6 2.6-.4 5.3-.8 7.7-2q3-1.6 6-3.6c1.9-1.5 4.3-3 6.8-2.1 2.3 1 4.1 3 6 4.7q3 3 6.8 4.5c2.5 1.2 5.3 2 7.7 3.6 2.1 1.3 4.1 3.6 6.8 3.6 1.9 0 3.6-1.2 5.1-2.1q3.1-2 6.9-1.9 3 .3 6 .2l5-.5q4.5.1 8.6 1.7" class="b"/><path d="M10.2 116c6.2-.1 8.2-5 12.8-5.2 4.5.2 8 3.5 12 5.3 3.4 1.7 7.3 1.8 11 2.4 4 .8 8 2.2 12 2 3.1-.2 6.3-.8 9.4-.8 3.7.1 7.4.8 11.1.4q4-.6 7.7-2 3.9-1 7.7-2.4c2.8-1 5.4-2.8 8.5-2.9 6 0 10.4-2.5 15.4-5.6 3.6-2.5 6.1-3 9.4.5 5.3 6 5.6 5.7 12.8 8.6q2.6 1.3 5 3a9 9 0 0 0 4.4 1.8c2.2 0 4-1.5 6-2.5a12 12 0 0 1 5-1.7q4.4 0 8.6-.4c4.7-1 9 1.2 12.8 3.7" class="b"/><path d="M10.2 115c5 0 7.8-4.5 12-6.3 4-1.2 7.7 2 11 4 3.1 2 6.8 2.3 10.3 3.2s6.7 2.7 10.2 3.4c4 .8 8 0 12 0q4.3.2 8.5.1 4.5-.3 8.6-1.8c5.4-2 10.6-4.8 16.2-6.2 2.5-.4 5.2 0 7.7-.3q4.3-1 8.5-2.6c4.2-1.2 7.6-7.3 12-3 2.2 2.3 4 5.2 6.8 6.7q3 1.4 6 2.8c3 1.4 5.8 4.4 9.4 4.3 1.8-.2 3.5-1.3 5-2.2a14 14 0 0 1 8.6-2.1c10-.4 10.7-1.4 18.8 5.6" class="b"/><path d="M10.2 114c6.5.8 9.1-5.1 14.5-6.6 4-.8 7.5 1.9 11.1 3 2.5 1 5.3 1.3 7.7 2.4 3 1.2 5.6 3.2 8.5 4.5 3.8 1.8 8 .6 12 .4h6q3.9-.2 7.6-1.2 6.3-1.7 12-4.5c3-1.4 6-3.1 9.4-3 2 0 4 .4 6 .4q4.7-.2 9.4-1.1c5.6-.7 8.4-8.1 12.8-5 2.2 1.9 3.8 4.6 6 6.4 2 1.7 4.6 2.6 6.8 3.9 3.2 1.6 6.4 4.7 10.2 3.8 1.8-.4 3.5-1.5 5.1-2.3 3.2-1.7 6.8-1.2 10.3-.9 9 .3 9.2 1.6 16.2 6.6" class="b"/><path d="M10.2 112.6c3.6.8 7.4-.2 10.3-2.4 2.8-2 5.8-4.1 9.3-4.2q4.4 0 8.6 1.3 3.5 1 6.8 2.8c4.6 2.9 8.5 7.6 14.5 5.7q3-.9 6-1 3 .1 6-.2c6.1-.9 12.3-2.3 18-5 2.9-1.4 6-3.4 9.3-3l5.1.9q3 .3 6 .1c2.6 0 5.4 0 7.7-1.3 2.2-1.2 3.9-3.4 6-4.8 4.2-2.6 6.7 3.6 9.4 5.8q2.3 2.2 5 3.5l5.2 3c2 1.3 4.4 2.5 6.8 2.1 3.5-.6 6.6-2.9 10.3-2.5 2 .2 4 1 6 1.5q3.4.8 6.8 1.8c2.8.9 5.5 2.5 8.5 2.6" class="b"/><path d="M10.2 110.2c2.8.5 5.8.9 8.6.1 5.4-2.1 9.7-8.4 16.2-7q4.4.7 8.5 2.6c4.8 2 9.1 8.6 14.5 7.5 1.7-.4 3.4-1.3 5.1-1.7 2-.5 4-.2 6 0q2.6 0 5.1-.3 5.8-.6 11.1-2.2c4.9-1.4 9.3-5.3 14.5-4.2a45 45 0 0 0 16.3.8c6-1 8.6-11.4 14.5-4.4q2.3 2.8 5.1 5.1 3.4 2.3 6.8 4.4c5.4 3.8 7.3 4.2 13.7 2.5q3.5-.7 6.8.6c6.7 3.2 12.1 5 18.8.5" class="b"/><path d="m10.2 107 5.1.4c1.7.1 3.6.2 5.2-.5 4.7-2.2 8.7-7.5 14.5-6.6q5.4 1 10.2 3.8c3.6 2.1 6.7 6 11.1 6.4 2.7 0 5-1.9 7.7-2 2.5-.2 5.1.5 7.7.5q10.7.5 20.4-4.2a14 14 0 0 1 8.6-1c5 .6 14.5 2.1 18.8-.7 2.1-1.5 3.8-3.7 6-5.2 2.5-1.9 5 .1 6.8 2l4.2 3.6c3.1 2.2 6.6 4 9.4 6.5 3.8 3 6.5 3.1 11.1 2.4q3.5-.4 6.9.8c9.4 4.5 10.5.2 17.9-4.6" class="b"/><path d="M10.2 103.3h5.1c2 .3 4.2.5 6-.4 4.4-2 8.5-6.2 13.7-5.3a29 29 0 0 1 11 4.7c3 2 5.8 5 9.5 5.5 2.7.4 5-1.5 7.6-1.7 3-.2 5.7.8 8.6 1q10.6.9 20.5-3.5a22 22 0 0 1 9.4-1.3c4.2.4 8.5 1.3 12.8.6 2-.2 4.2-.3 6-1.4s3.4-2.8 5-4.2 4-2.2 6-1.1c2.4 1.2 4.6 3 6.9 4.3 2.2 1.4 4.8 2.7 6.8 4.4 2.8 2.4 5.4 5.8 9.4 5.7 2.8 0 5.7-1 8.5-.8 3.4.1 7 1 10.3-.7 2.8-1.3 5.4-3.4 8.5-4.2" class="b"/><path d="M10.2 99.9q3-.4 6-.3 3.6.5 6.8-1.2c3-1.4 6-3.3 9.4-3.5q2.6 0 5.1 1a24 24 0 0 1 7.7 3.8c3.8 2.7 7.7 7 12.8 5.6 3.4-1.2 5.9-1.4 9.4-.5 8.8 2.1 17.3 0 25.6-2.8 3.6-1 7.4-1.8 11.1-1.1s7.5 1 11.1 0c2-.4 4.1-.2 6-1 3.3-1.4 5.8-4.7 9.4-5.2 2.3-.2 4.7.9 6.8 1.8q4 1.6 7.7 4c4 2.7 7 9.2 12.8 7 2.2-.8 4.5-1.9 6.8-2.4q3.4-.6 6.9-.3c2 .1 4-.5 6-.8q2-.4 4.2-.6" class="b"/><path d="M10.2 97q3-.4 6-.6 2.6.2 5.1-.6c4.9-1.8 9.2-4.6 14.5-2.7q2.7.7 5.1 1.8c2.8 1.4 5.3 3.5 7.7 5.4 3.3 2.7 6 3.7 10.3 2.8q2.5-.7 5-.4c2 .3 4 1 6 1q6.5.6 12.9-.8c6-1.2 11.7-3.8 17.9-4.2 3.7.1 7.4 1.6 11 .9 1.8-.3 3.5-1 5.2-1.2q4 .1 7.7-1.4c2.5-1 5-2.5 7.7-2.7q3.4 0 6.8 1 3.6.7 6.8 2.3c3.4 1.4 5.3 5.2 8.6 6.8 4 1.5 7.3-2.5 11-3.2 2.3-.7 4.7 0 6.9.7q4.6 1.6 9.4.4" class="b"/><path d="M10.2 94.2q3-.5 6-.7 3.6.1 6.8-1.3c6.9-3 10.3-2.4 17 .2 2.9 1.3 5.4 3.4 7.8 5.3 2.4 2 5.2 4.1 8.5 3.8q3.9-.3 7.7-.2c3 .4 6.2 1 9.4.9 6.4-.2 12.6-2.6 18.8-4 3-.8 6.2-1.8 9.3-1.3 2.3.3 4.6.9 6.9.8 2.6-.1 5.1-1.2 7.7-1.8 1.9-.3 4 0 6-.1 4-.2 7.9-1.8 11.9-1.5l7.7 1q3 .2 6 .7c2.8.6 4.6 3.1 6.8 4.7 3.4 2.8 6.9-.2 10.2-1.4a7 7 0 0 1 5.1.3c4 2 7.5 3.4 12 1.4" class="b"/><path d="m10.2 91.2 6-.6q3 0 6-.9c2.7-1 5.6-2 8.5-1.7q3 .3 6 1.3 2.2.7 4.3 1.6 4 2.5 7.6 5.7c2.4 2 5.4 3.6 8.6 3.2h7.7q4.6.6 9.3.4c6-.6 11.4-3 17.1-4.3 10-3 11.2 1.5 19.6-1.2 2-.6 4-1.5 6-1.6l6 .3q4.2-.1 8.5.1 5.2.6 10.3 1.5 2.6.3 5.1.1c1.7-.1 3.6-.3 5.1.5q2.2 1.6 4.3 3.1c2.7 2 5.7.8 8.5 0q2.7-.6 5.2.6c3.9 2.1 8 2.5 12 0" class="b"/><path d="M10.2 88.2c3.1-.5 6.3-.3 9.4-.7 3.4-.6 6.8-2 10.2-1.6 3.5.5 7 1.8 10.3 3 2.5 1.1 4.7 3 6.8 4.8 5.6 4.8 6.5 4.8 13.7 4.7 2 .2 4-.1 6-.1q4.6.2 9.3-.6c6-1.2 11.8-3.8 18-4.7 3.4-.6 6.8.9 10.2.7 5-.3 9.4-4 14.5-3.1 8 .6 16.3.2 24 3.2q2.4 1 5 .8c2-.3 4.2-1 6 0 2.7 1.6 5.2 4.2 8.6 4q2.5-.2 5-.2c1.5.1 3 .8 4.4 1.2 3.5 1 7.4-.3 10.2-2.6" class="b"/><path d="M10.2 85.4q4.2-.5 8.6-.6c2.5-.2 5-1 7.6-1 3 0 5.8 1 8.6 2 2.2.8 4.7 1.3 6.8 2.7 4.7 3 8.5 8.6 14.5 8.6q9.5.2 18.8-1.6c5.7-1.2 11.2-3.6 17-4.3 2.3-.3 4.7.2 6.9.6 4.9.9 9.2-2.1 13.6-3.6 3-1 6.3-.1 9.4 0 3.1 0 6.3-.2 9.4.3s6.5.9 9.4 2.2c1.8.7 3.4 2 5.1 2.7 2.5 1 5.2-.8 7.7-.2 4.6 1.9 6 5.1 12 4.7 2-.2 4 .3 6 .5 3.7.2 7.3-1.7 10.2-4" class="b"/><path d="M10.2 83.5q4.6-1 9.4-1.3c2.5-.3 5.2-.7 7.7-.2 2.6.5 5.1 1.7 7.7 2.6q3.6 1 6.8 2.8c4.8 3.3 8.8 9 15.4 8.3a84 84 0 0 0 14.5-1.4c3.4-.7 6.8-1.9 10.2-2.8q5-1.6 10.2-1.6c7.6.5 8.4 1 15.4-2.7 5.8-3.3 7.4-2.7 13.7-1.7q3 .3 6 .2 3 .2 6 1 3.9.5 7.6 2c2.4 1 4.3 3.2 6.8 3.8 2 .4 4-.6 6-.3 3.1.7 5.5 3.2 8.6 4 1.9.6 4 .3 6 .2q2.1 0 4.2-.2a28 28 0 0 0 9.4-4.8" class="b"/><path d="M10.2 82.3C14.4 81.1 18.7 80 23 80q3.6.1 6.9 1.6c3.8 2 8.2 2.9 11.9 5.1 5.8 4.1 8.3 8.4 16.2 7.7q7-.2 13.7-1.4c4.3-1 8.4-2.7 12.8-3.5q3.8-.5 7.7 0c6.4.4 11.7-3.9 17-6.8q2.5-1.4 5.1-1.5 4 .5 7.7 1.9 2.6.6 5.2.6 2.5.3 5 1 4 .9 7.8 2.2c2.4 1 4.3 3.2 6.8 4.2 2.5.8 5.2-.6 7.7.3 2.9.9 5.4 3 8.5 3.3q2.6.2 5.1-.5 1.7-.3 3.4-.8c3.6-1.3 6.9-3.5 10.3-5.2" class="b"/><path d="M10.2 81.8c4.7-1.4 9.5-4.2 14.5-3.2 2.7.6 5.2 2.1 7.7 3.3q3.9 1.6 7.7 3.2c2.5 1.2 4.6 3.2 6.8 4.8 4 3.2 8 3 12.8 2.7q6.5 0 12.8-1.1c4.5-1 9-2.8 13.7-3 2.2-.3 4.5.7 6.8.4 3-.7 5.4-2.8 7.7-4.6q3.6-3 7.7-5.3c1.8-1 3.8-1.9 6-1.8q3.6.3 6.8 2.4 1.6 1 3.4 1.7 2.1.5 4.2.8 5.3 1.1 10.3 3c2.1 1 4 2.8 6 4 1.8 1 4 .6 6 .4q1.6 0 3.4.6c2.5.8 5 2.3 7.6 2.5 2.4.2 4.7-.6 6.9-1.5 4.3-1.8 8.3-4.6 12.8-6" class="b"/><path d="M10.2 81.2c4.8-1.3 9.4-5 14.5-3.7 3 1 5.7 3 8.6 4.2s5.8 2.3 8.5 3.9c3 1.8 5.8 4.4 9.4 5.2 4 .6 8 0 12 0 3.6 0 7.4 0 11-1q4.2-.9 8.6-1.8c2-.4 4-1 6-.7 2.7.4 4.6 1.1 6.8-1.1 4-3.9 6.9-9 12-11.6 3.8-2 9-2.5 12.7.2 2 1.6 3.6 4 6 5q2.5.8 5.1 1.1 3.1.8 6 2c2.4 1.2 4.5 3.3 6.8 4.5 1.6.8 3.5.5 5.2.4 2-.2 4 .6 6 1.4 5.5 2.4 9.3 1.8 14.5-1.3q5.5-3.4 12-5.2" class="b"/><path d="M10.2 80c5-1.5 10-6 15.4-3.4 2.9 1.5 5.5 3.7 8.5 5q3.9 1.7 7.7 3.5c2.8 1.4 5.5 3.3 8.5 3.9 2.5.4 5.2.1 7.7 0h8.6c5.5.2 10.8-1.3 16.2-2.3 1.9-.6 4-1.3 6-1.2s4.3.7 6-.9c4.7-4.7 6.4-12.9 13.6-14.8a15 15 0 0 1 12 .3c2 1.5 3.4 4 5 6 2.8 3.4 7.7 2.8 11.2 5q2.7 1.7 5 3.5 1.6 1.2 3.5 1.3 2.2-.2 4.3 0c3.2.7 6 2.7 9.4 3.1 4.7.8 9-1.9 12.8-4.2q5-2.4 10.2-3.8" class="b"/><path d="M10.2 78c3.4-1.1 6.7-3.2 10.3-3.9 4-.8 7.1 2.9 10.2 5q4 2.6 8.5 4c3.7 1.5 7.2 3.6 11.1 4 2.8.3 5.8 0 8.6 0H69q4.4-.1 8.6-1 2.5-.4 5-1c1.4-.3 3-1 4.3-1.2q2.2-.3 4.3-.4c4.2-.6 5.7-5.5 7.7-8.6 2.9-5.3 4.3-6.6 10.2-7.7 4.1-1.2 7.9-2.7 12-.4 2.7 1.5 4 4.6 6 7 1.8 2.5 5 3.6 7.6 5 2.7 1.3 4.9 3.8 7.7 4.8 1.4.5 3 .2 4.3.3 4.1.7 7.6 3.8 12 3.8 4.7.2 8.7-2.6 12.7-4.7 3.3-1.4 7-2.1 10.3-3.4" class="b"/><path d="M10.2 75.7c2.9-.9 5.7-2.2 8.6-3q3.6-1.3 6.8 1.2c2 1.5 3.8 3.5 6 4.9q3.6 2.1 7.6 3.3 3.5 1.3 6.9 2.3c4.1 1.1 8.5.7 12.8.7 4 0 8 .4 12 .3 3.7-.2 7.3-1.3 11-1.8q2.6-.6 5.1-1.4 2.2-.4 4.3-1.2c5.6-2.6 6.4-11.5 12-14.2 2.1-.8 4.6.1 6.8-.3 2.7-.5 5-2.3 7.7-2.8q3.2-.2 6 1.6c2.5 2 3.7 5.2 6 7.4q2.6 3 6 5.1c1.5 1.2 3.2 2.7 5 3.6 1.9.8 4.1.1 6 .9 3.9 1.6 7.6 4.4 12 3.9 4.6-.4 8.6-3.2 12.8-5.1 3.3-1.2 6.8-1.7 10.2-2.8" class="b"/><path d="M10.2 73.3c3.7-.8 7.3-2.7 11.1-2.8 2.8.3 5 2.5 6.8 4.3 3.2 3.4 6.7 4.9 11.1 6 2.8.7 5.7 1.7 8.6 2 4.2.4 8.5.2 12.8.4 4 0 8 .6 12 .1q3.7-.6 7.6-1.6 5-.7 9.4-2.7c3.7-1.7 5.4-5.9 7.7-9 6.6-9.3 7.4-2.7 14.5-4 2.7-.7 5-3 7.7-3.6 2.3-.8 5 .3 6.8 2 2.1 2.4 3.8 5.4 6 7.8 2.4 2.8 5 6.2 8.5 7.4 1.4.4 3 .3 4.3.7 3.4 1.4 6.4 4.2 10.2 4.3 5.6.2 10.5-3 15.4-5.3 3.5-1.2 7.4-1.5 11.1-2.3" class="b"/><path d="M10.2 71q4.2-1.3 8.6-2c3.7-1 6.9 1.8 9.3 4.3 2.9 3.2 6 5.2 10.3 5.9q5.5 1.2 11 1.4l12 .3c3.7 0 7.5.2 11.1-.3q4.8-.8 9.4-2.2c3.4-.8 7-1.9 9.4-4.5 3-3 4.8-7.4 8.6-9.7 4-2.9 7.7 2 11.9 1.4 3.3-.6 5.7-3.2 8.5-4.6 4.5-2.5 8.2 2.4 10.3 5.8 2.2 3 4.2 6.2 6.8 8.8a9 9 0 0 0 3.4 2.1c1 .3 2.4.6 3.4 1 1.8.8 3.4 2.2 5.2 3C156 85.4 165 79 171.5 77q5.1-1.1 10.3-1" class="b"/><path d="M10.2 69.2q5-2 10.3-2c2.2.1 4.3 1.4 6 2.9 2.4 2.2 4.6 5 7.6 6.6 3.7 1.7 8 1.7 12 1.7 7.6-.3 15.4 0 23-.8q6.5-.7 12.8-3c4.3-1.1 7.3-2.7 10.2-6.2 2.4-2.7 4.9-6 8.6-6.8 4-.8 7.1 3 11 2.9 3.8-.2 6.5-3.3 9.5-5.1 3.8-2.6 7.3 1.7 9.4 4.6 1.3 1.9 3 4 4.2 5.9 1.2 1.7 2.6 3.7 4.3 5 1.5 1.2 3.5 1.7 5.1 2.7 2.2 1.4 4.2 3.3 6.9 3.5 2.6.1 5.2-1 7.6-1.8q4.8-1.6 9.4-3.3c4.3-2 9.1-2 13.7-1.3" class="b"/><path d="M10.2 67.9c3-2.1 6.7-2.5 10.3-2.2 8.8.9 10.8 12 20.4 11.3 3.5-.1 6.9-.8 10.3-1.2q6.3-.6 12.8-1.1 8.3-.8 16.2-3.5 3.6-1 6.8-2.8c3.4-2 6-5.2 9.4-7.3 5.8-3.7 9 .6 14.5 1.6 4 .6 7.3-2.2 10.3-4.4 3.9-2.7 7 .3 9.4 3.5 1.3 1.8 3 3.5 4.2 5.3 1.6 2.2 3 4.9 5.2 6.6l6 4.2c2.3 2 5 1.8 7.6.5a55 55 0 0 1 13.7-4.4c6.1-2 8-2 14.5-.7" class="b"/><path d="M10.2 66.9q3.2-3.3 7.7-2.8 4.6-.1 8.5 2c4.7 2.6 7.3 8.6 12.8 9.6 3.5.4 7-1 10.3-1.9q5-1.2 10.2-1.9c4.9-.5 9.8-1 14.5-2.4q4-1.1 7.7-2.7 2.7-.7 5.1-2c4.4-2.3 8.4-7 13.7-7 2.7 0 5.2 1.4 7.7 2.2 10.6 3.6 12.1-6 18.7-3.5 2.6 1.3 4.1 4.1 6 6.2 2.9 2.5 4.2 6.5 6.9 9.3q2 1.9 4.2 3.6c1.6 1.3 3.8 3 6 2 2.4-1.1 4.4-3 6.8-4 3.5-1.5 7.5-1.2 11.1-2 2.5-.8 5.1-1.5 7.7-1.2 2 .1 4 .8 6 .9" class="b"/><path d="M10.2 65.7c4.4-4.9 6.2-3.2 12-2.9 6.6.4 9.3 4.1 13.6 8.4 3.2 3.2 6.1 3.7 10.3 2q4.5-2.1 9.4-3.3c4.7-1.1 9.7-1.2 14.5-2.5 5.5-1.5 10.7-3.8 16.2-5.3 4.7-1.6 8.6-5.5 13.6-6 2.7 0 5.3 1 7.7 1.8 3 .9 6.3 2 9.4 1.2 1.8-.5 3.5-1.9 5.1-2.8 4.4-2.7 7.4-1.4 10.3 2.6q1.7 2 3.4 4.1c1.5 2.2 2.7 5 4.3 7 11.8 14.1 9.6.5 21.3 0q3 .1 6-.2c2-.3 4-1.3 6-1.4 2.8-.4 5.7.5 8.5.4" class="b"/><path d="M10.2 64.1c2.2-2.5 4.1-4.6 7.7-3.5 2.5.5 5.1.3 7.7.4 6.1 0 9.6 5.2 13.6 9a6 6 0 0 0 7.7 1.2c2.5-1.2 5-2.6 7.7-3.4 4.7-1.4 9.8-1.7 14.5-3.2 3.7-1 7.4-2.6 11.1-3.8 2.2-.8 4.6-1 6.8-1.7 4-1.2 7.8-3.4 12-4.1 2.6-.3 5.2.6 7.7 1.4l6 1.8q2.5.9 5 .3c3.5-1.5 6.4-4.8 10.3-5 2.6 0 4.5 2.4 6 4.3 2.6 2.8 4 6.6 6 9.9 10.6 15.8 10.4 2 19.6.4 2.2-.3 4.6 0 6.8-.2 1.8 0 3.5-.9 5.1-1.3 3.4-1 6.9-.3 10.3-.6" class="b"/><path d="M10.2 61.8c6-7 6.3-2.1 13.7-3.1 4.8-.6 9.2-.3 12.8 3.4 3 2.7 5.5 8 10.2 7.1 3-.8 5.6-2.6 8.6-3.5q4.2-1.3 8.5-2.2 4-1.1 7.7-2.5a72 72 0 0 1 9.4-3c2.5-.5 5.2-.6 7.6-1.3q5-1.6 10.3-2.4c3.2-.2 6.4 1 9.4 2.2 3.4 1.1 7.6 3.9 11 1.4 3.2-1.9 5.9-4.7 9.5-5.7 2.4-.5 4.5 1.3 6 3.1 2.7 3.2 3.9 7.5 6 11.1 1.6 2.9 4.6 8.3 8.5 7.5 2.4-.8 4-3.3 6-5a10 10 0 0 1 6-2.6q3 0 5.9-.5c1.7-.4 3.4-1.4 5.1-1.9 3-.9 6.3-.7 9.4-1" class="b"/><path d="M10.2 59c6-6 6.4-2.2 13.7-2.7 4.2 0 8.9-1.3 12.8.9 3.7 2.2 5.5 6.7 9.4 8.7 1.9.8 4 .2 6-.6l5-2q4.8-1.4 9.5-3c3.3-1.2 6.7-2.7 10.2-3.5 4.2-1.1 8.6-.7 12.8-1.7 12.6-2.7 11.7-1.6 23 3.2 2.8 1.2 5.2 1.5 7.7-.4q3.2-2 6-4.6c1.5-1.1 3.2-2.5 5.1-2.7 6.5 0 8.2 11.5 11.1 16 1.8 3.6 5.1 8.7 9.4 5.1 2.6-2 4.6-5 7.7-6.5 3-1.2 6.5-1.2 9.4-2.7 3.8-2.5 8.4-2.9 12.8-3.1" class="b"/><path d="M10.2 56.2c2-1.2 4.3-2.8 6.8-2.5a33 33 0 0 0 9.4.9c4.3-.1 8.8-2.7 12.8-.7 2.7 1.7 4.5 4.6 6.9 6.8 2.7 2.7 6 2.4 9.4 1.2q4.3-1.4 8.5-3.2c8.1-3.6 12.3-5 21.3-4.9 4.9-.2 9.7-1.8 14.5-1.4 6.1.6 11 5.5 17.1 6 3.6-.4 6.7-3.5 9.4-5.8 6.8-6.6 10.8-4.1 13.7 4.2 1.6 4.4 3.1 9.4 6 13.4 5 5.9 9.6-4.1 13.6-6.5 3.2-2.1 7-3.2 10.2-5.3a26 26 0 0 1 12-3" class="b"/><path d="M10.2 53.3c8.3-2.2 7.9 1.3 14.5 1 5.3 0 9.4-4.2 14.5-4.7 6 .2 8.1 9.7 15.4 9.2 5-.3 9.1-3.2 13.7-4.9a36 36 0 0 1 13.6-2.4c6 .3 12-1.9 18-1.2 5.5.8 10 4.6 15.3 6 5.4 1.1 10.9-6.3 15.4-8.6 5.9-3 8.6 2 10.2 6.9 2 5.1 3.1 11.3 6.9 15.5 2.7 2.7 5.8-.9 7.6-3 2-2 3.7-4.5 6-6.3q5-3.9 10.3-6.9c3.2-1.4 6.8-1.7 10.2-2" class="b"/><path d="M10.2 50.4q3 .3 6 1.4 2.1 1 4.3 2.2c6.2 3.1 11.4-3.6 16.2-6.5 3.4-2.3 6.2-2.9 9.4.1 9.2 8.9 10.2 7 21.3 3.2 4.7-1.5 9.7-1.6 14.5-1.8 8.5-.5 15.7-3.4 24 .6 3.3 1.5 6.5 3.7 10.2 4 5.2 0 10.2-6.9 15.3-8.5 6.3-2 8.4 2 10.3 7.1 2.1 5 3.5 13.6 7.6 17.1 2.3 1.4 4.6-.7 6-2.4q2.3-2.5 4.3-5.2 4.2-5.1 9.4-9c3.6-2.8 8.4-3.2 12.8-3.4" class="b"/><path d="M10.2 48q3.7 1 6.8 3.3 2 1.7 4.3 3c6.8 4.1 13.5-11.4 21.3-12.6 5-.5 8.3 5.2 12.8 6.4 4.3 1.2 8.6-.8 12.9-1 4.5-.4 9 0 13.6-.5 4.3-.6 8.5-1.9 12.8-2 6.1-.4 10.9 1.9 16.2 4.4 2.4 1 5.2 2 7.7.8 4.4-2.2 7.9-6.2 12.8-7.3q3.5-.8 6.8.5c1.6 1 2.7 3 3.5 4.5 2.8 5.4 4.8 17 9.3 20.4 3.7 1.6 7.4-4.7 9.4-7 2.4-3 4.8-6.3 7.7-8.9 3.6-3.5 8.8-4.3 13.7-4.4" class="b"/><path d="M10.2 45.8c2.9.9 5.4 2.8 7.7 4.7 1.8 1.5 3.5 3.8 6 4 4.4-.4 7.3-6.3 10.2-9.3 4-4.5 9.3-9.4 15.4-5 8.2 5.8 9.6 3.5 18.8 4.1 4.2.2 8.5 1 12.8.5 3.7-.4 7.3-2 11-2.4 4.6-.8 9.4-.7 13.7 1.2 6.3 2.6 10.1 5.4 16.2.5 2.4-1.7 4.8-3.5 7.7-4a23 23 0 0 1 5.1-.2c1.8.1 3.8.2 5.2 1.4 2.5 2.2 3.8 5.7 5 8.7 2.2 5 3.6 10.6 7 15 1.9 2.3 4.1.9 5.9-.9q2.3-2 4.3-4.6c2.6-3.3 5-6.8 8.5-9.3 3.2-2.3 7.3-2.7 11.1-3.6" class="b"/><path d="M10.2 43.8c3 .8 5.5 2.8 7.7 4.8 1.6 1.5 3.1 3.5 5.1 4.5 4.6 1.6 8.5-7.2 11.1-10 3.1-4 8.2-9 13.7-6.5 2 1 4 2.6 6 3.7q3.5 2 7.6 1.6 3 0 6 .4c4.3.3 8.5 1.3 12.8 1.2 2.3 0 4.6-.8 6.8-1.3q3.5-.7 6.9-1.7a18 18 0 0 1 12.8.5c6 2.4 9.7 4 15.3-.4 2-1.4 4.4-2.7 6.9-2.8l5.1.2q3-.2 6 .7c6.7 3 9.3 16.7 13.6 22.7 3.3 4.8 6.6-.2 9.4-2.7q3.8-4.6 8.6-8c3-2.2 6.8-3.6 10.2-5.1" class="b"/><path d="M10.2 42c3.4.6 6.2 3 8.6 5.4 1.3 1.3 2.6 3 4.2 4 4.6 2.2 8.6-7.6 11.1-10.4 2.6-3.4 6.4-7.7 11.1-7 3 .5 5.3 2.9 7.7 4.5 4 3 8.3 1.7 12.8 2 5.2.2 10.2 1.7 15.4 1.7q3-.2 6-.8 4-.1 7.6-2.2c3.4-2 7.4-2.3 11.1-1 4.9 1.5 9.8 3.7 14.5.5 1.9-1.1 3.8-2.4 6-2.6q3 0 6 .5 4.3.3 8.5.7c8.7 1.7 10.9 13.9 15.4 20.2 2.3 3.2 4.4 2 6.8-.3q2.4-2.5 5.2-4.8 6.6-4.4 13.6-8.5" class="b"/><path d="M10.2 40c4.7.9 8 4.7 11.1 8 7.2 8.3 11.1-11.8 19.6-15.4 7-2.9 10.5 7.2 17.1 7 3.4-.2 6.8-1 10.2-.5 3.5.2 6.9 1 10.3 1.5q3.8.3 7.7.1c5.7.4 6.6-.8 11-3.7 7.4-4.4 14.7 3.6 22.3-.2 1.6-.8 3.3-1.9 5-2.1 3.3-.3 6.4 1.2 9.5 1.9q3.8.6 7.6.5l3.5.3q1.6 0 3.4.6c4.5 2.1 6 7.6 8.5 11.6 4.5 8.5 7.1 2.9 12-1.3q3.2-2.1 6.8-3.6l6-3.3" class="b"/><path d="M10.2 38c11.6 2.4 12.1 19.5 21.4 4.2 2.6-4 6.4-11.8 11.9-11.4 3.4.7 5.8 3.8 8.5 5.7q4 2.6 8.6 1.4c5.4-1.3 10.8-.7 16.2.5 3.4.7 6.9.8 10.2 1.2 5.7 1.1 6.9-1.4 11.1-4.1 6.2-3.8 13.1 2 19.7.2 4.6-1.4 5.8-3.5 11-1.2 2.6 1.1 5 2.7 7.7 3.2q3 .6 6 .7 1.8.2 3.4-.1c2-.6 3.8-2.2 6-2.3 4 .6 5.6 5.4 7.7 8.2 5 8.1 7.7.5 12.8-2.1 3-1.5 6.3-2.5 9.4-3.9" class="b"/><path d="M10.2 35.5c4.9.9 8.8 6.3 12 9.7 6.7 7.5 11.4-11.5 18.7-14.4 5-2 9.2 5.7 14.6 6 2.2.2 4.6-.5 6.8-1q3.3-.8 6.8-.8c4 0 8 1.3 12 2l6 .8q2 .5 4.2.3c3-.4 5-3.2 7.7-4.3 6.4-2.7 13 2.7 19.6.6 2.3-.6 4.4-2.3 6.9-2 2.5.4 4.7 2 6.8 3.5q4.2 3 9.4 3.8c2.5.5 4.4 1 6.8-.6 2.5-1.6 4.5-4.6 7.7-4.4 2.7.5 4.2 3.3 6 5.2 4 5 7 1 11-1.1 2.7-1.4 5.8-2 8.6-3" class="b"/><path d="M10.2 33c4.7 0 8.3 5.4 11.1 8.6 4.5 6 7.4 3 11.1-1.7 2.9-3.3 6.2-8.9 11.1-8.8 2.5.4 4.6 2 6.8 2.9q4.2 1.7 8.6.7c10.8-2.9 13-2.7 23.9-.2 3 .5 6.3 1.5 9.4 1 1.8-.5 3.4-1.8 5-2.5q2.5-1.2 5.2-1.2c4.9 0 9.6 2.1 14.5 1.6 2.1-.1 4-1.2 6-1.9 5.3-1.9 8.8 3.6 12.8 6 2.8 1.7 6.2 2.2 9.4 3 3.9.4 7.2-2.2 10.2-4.1 2-1.4 4.7-2.2 6.9-.8 2 1.3 4.1 3.4 6.8 3.1 2.4-.2 4.6-1.5 6.8-2.5q3-1.4 6-2.1" class="b"/><path d="M10.2 31c6.4-1.5 10.4 6.7 14.5 10.2 4.7 3.5 9.3-3.9 12.8-6.2 7.4-6 10.8-.1 18.8-1.7 6-1.3 11.7-4 18-3.3 5.7 0 11.2 2.6 17 2.5 2.3-.1 4.6-1 6.8-1.6 6-1.1 12 1.4 18 .8q2.3-.1 4.2-.8c2.2-.8 4.5-1.7 6.9-1.1 2.3.6 4.2 2.6 6 4.1 2 1.8 4.2 3.5 6.8 4.3 2 .5 4 1.2 6 1.3 3.7-.2 7.4-1.4 11-2.5 2.5-.7 5.2-1.3 7.7-.6 1.7.5 3.4 1.3 5.2 1.4 4.4-.2 7.8-3.7 12-5" class="b"/><path d="M10.2 29.4c3.7-1.5 7.6.4 10.3 3 3 3 6 8.7 11 7 2.2-.8 4.1-2.3 6-3.5q3-1.9 6-2.7c4-.8 8-.3 12-1.5 4.5-1.2 8.9-3.5 13.6-4q6-.7 12 0 3 .6 6 1.3 3.3.5 6.8.5 3.4-.2 6.8-.2c4.3.3 8.6 1 12.8.6l6-.6c2.2-.6 4.5-1.5 6.8-1.4 5.5.3 8.3 6.1 12.8 8.5 8 4 8.2.7 15.4-.4q4.6-.5 9.4-.2c2.3.1 4.6 1 6.8 1.4 4.4.6 7.7-2.9 11.1-5" class="b"/><path d="M10.2 28.2C24 23.6 25 40 34.2 37.9c3.1-1.2 6-3.4 9.3-4.3q5.3-1.3 10.2-2.8c3.5-1.1 6.8-3 10.3-4.3 3-1 6.2-1.2 9.4-1.5 4-.4 8-.5 12 .6q2.5.5 5 .9c1.7.2 3.5.8 5.2 1 5 .6 10.2 1.4 15.3.9q5.6-.6 11.1-1.6c5.1-1.4 9-.6 12.8 3.2 3 2.9 7.3 8.3 12 7.2 2.4-1 4.4-2.8 6.8-3.7 2.7-1 5.8-.7 8.6-.3q4.3.7 8.5 1.9c4.5 1.7 7.5.3 11-2.5" class="b"/><path d="M10.2 26.8q4.6-1.3 9.4-.3c6.7.9 8.3 9.4 14.5 10.7 1.5 0 3-1 4.3-1.7q2-1.2 4.2-2 5.8-1.6 11.1-4c3.3-1.4 6.2-3.6 9.4-5q3.9-1.2 7.7-1.6 4.2-.5 8.6-.8 3 0 6 1l5 1c1.8.4 3.5 1.3 5.2 1.7a46 46 0 0 0 9.4 1.5q4.3-.1 8.5-1 3.4-.3 6.8-.9c4-.8 8-1.8 12-.5 5.9 1.4 10.3 14.5 16.2 10.5 4.7-3.5 6.2-6.4 12.8-5.8 2 .3 4 1.2 6 1.8l5.1 1.4c3.5 1.4 6.2 1.5 9.4-.8" class="b"/><path d="M10.2 24.8c2.8-.7 5.7-.4 8.6-.2 3.8-.2 6 0 8.5 3.3 2.2 2.6 5.3 9.4 9.4 7.6 2.2-1 4.4-2.4 6.8-3Q48.8 31 53.7 28c3-1.7 5.5-4 8.6-5.5 4.2-2 9-2.4 13.7-2.8q3-.2 6 .2 3 .8 6 1.7c4.3.7 8.3 3 12.7 3.9 3.4.7 6.9.3 10.3-.3q3.3-.5 6.8-.9c5-1 10.1-2.8 15.4-2.2 7 .5 9.2 11.8 14.5 12.2 2.9-.5 4.6-3.6 6.8-5.2 2.3-2 5.6-2.8 8.5-2.2 2.6.7 5 2.1 7.7 2.7 2.3.5 4.5 1.4 6.8 1.7q2.3 0 4.3-1" class="b"/><path d="M10.2 22.2c2.8-.6 5.7-.1 8.6 0 1.6-.2 3.4-.8 5-.7 5.5.9 6.6 9.5 11.2 12.1 1.4.6 3 0 4.2-.5q2.2-.8 4.3-1.5 5-1.6 9.4-4.7c2.6-1.9 5-4.3 7.7-6.1 3.7-2.6 8.4-3.2 12.8-3.6q4.3-.4 8.5.8c2 .6 4 1.6 6 2.2q2.5.8 5.1 1.4l7.7 2.5c4.2 1.4 8.6-.2 12.8-.5q4.9-.3 9.4-1.9 3.3-1 6.8-1.1c2.3-.2 4.6-.8 6.9-.5 4.6.9 6.5 6.4 9.3 9.6 2.9 3.6 5 2 7.7-.8 4-3.9 7.6-5.2 12.8-2.8q3.4 1.2 6.9 1.6c2.7.7 5.8 1.5 8.5 0" class="b"/><path d="M10.2 19.5c2.8-1 5.7-.8 8.6-1 2-.2 3.9-1.4 6-1.5 3.7.4 5 5 6.8 7.8 2.6 4.8 4.3 7.6 10.2 5.9a29 29 0 0 0 8.5-4.5c2.8-2 5.1-4.6 7.7-6.7 3.1-2.6 7.2-3.6 11.1-4a22 22 0 0 1 13.7 1.2c2.2 1.1 4.4 2.5 6.8 3.2 2.5.9 5.2.9 7.7 1.4s5 1.7 7.7 1.9 5.7-.7 8.5-.9q3-.1 6-1l4.3-1.4c2.7-.7 5.7 0 8.5-.5 2-.3 4-1.3 6-1.4 4.2-.1 6.2 4.8 8.5 7.6 2 2.6 3.8 4.3 6.8 1.8 4.8-3.6 6.8-5 12.9-3 2.2.5 4.5.2 6.8.5 2.8.4 5.8 1.1 8.5-.1" class="b"/><path d="M10.2 17a20 20 0 0 1 5.1-1.8q2.2-.3 4.3-.8c2-.6 3.9-1.9 6-2 7.7 0 7.5 19.9 18.8 14.1 6-2.8 9.9-9 16.2-11.3 3-1 6.3-.8 9.4-1.2 4.7-.7 8.5-1.2 12.8 1.5 3.3 2.3 6.8 4.9 11 4.7q2.6-.4 5.2-.4c2.3.2 4.5 1.3 6.8 1.7q3 .3 6-.2 3.5-.3 6.8-1.2c3-1 5.3-2.7 8.6-1.9 1.6.3 3.4.8 5 .6 5.4-.4 8.2-5.8 12.9-.1 2.2 2.2 3.6 6 6.8 6.9 1.5.1 3-.8 4.3-1.6 2-1.2 4.4-2.1 6.8-1.8q2.2.2 4.3.2c1.7-.1 3.4-.6 5.1-.6 3.1 0 6.4 1 9.4-.2" class="b"/><path d="M10.2 15a39 39 0 0 1 10.3-4.7c2.9-1 6.3-3.4 9.3-1.4 5 3.3 6.4 13.4 13.7 12.2 5-1.5 8.7-6 13.7-7.6 3.5-1.3 7.4-.3 11-.4 3.2 0 6.3-1.1 9.4-.7 5.1.7 8 5.8 12.8 6.9 7 1.2 7.6-4.3 15.4 0 5 2.5 10.8.2 15.4-2.1q2.8-1.6 6-.6c5.5 2.1 7 1.6 12-1.4 5.4-3.4 8.3 3.8 11.9 6.6 1.7 1.5 4.1.7 6-.2q2-.9 4.2-1.1 2.6-.1 5.1-.4c2-.5 4-1.5 6-1.6 3.1-.3 6.3.6 9.4-.2" class="b"/></svg>