<svg xmlns="http://www.w3.org/2000/svg" id="a" width="1920" height="2400" viewBox="0 0 192 240"><defs><style>.b{fill:none;stroke:#fff;stroke-miterlimit:10;stroke-width:.3px}</style></defs><path d="M0 0h192v240H0z" style="stroke-width:0"/><path d="M9.3 208.8q3-.8 6-.6 3.5-.1 7 .1a48 48 0 0 1 8.6 2q3.5.8 6.9 2c6.9 2.5 10.6.6 17.2-.5 5.5-.5 11 0 16.4-1.3 6-1.3 10-6.3 16.4-2.6 8 3.8 11.3 13 19 17.3 4.8 2.6 10.4 2.4 15.5 4.1 2.5.9 5.1 2 7.8 2.2 2.5 0 5.2.6 7.7.5 4.1-.3 7.5-3 10.4-5.8l6-5.8c2.7-2.6 6.3-5.6 10.4-4.4q2.7 1 5.1 2.9c4.4 2.5 8.6 5.5 13 8" class="b"/><path d="M9.3 205.6q3-1 6-1 3.5-.7 7-.6 4.5.6 8.6 2.6 3.5 1.2 6.9 3 5.4 2.8 11.2.6c5.5-2.1 11.2-4.8 17.3-4.6 2.5 0 5.2.4 7.7.2 3.2-.3 6.3-1.5 9.5-1.4 12.3.4 15.6 13.3 25.9 17.7 3.3 1.4 7 2.1 10.3 3.3 4.8 1.6 7.6 3.2 13 2.6 4.3.2 8.3.4 12-2.1 4.8-3 8.2-7.8 13-10.7 4.5-2.7 8.3.2 12 2.8 4.4 2.6 8.6 5.7 13 8.2" class="b"/><path d="M9.3 203.7q3-.9 6-1.5 3-1 6.1-1.4c3.3-.4 6.6.9 9.5 2.3q3.5 1.6 6.9 3.6a10 10 0 0 0 11.2-.1l6-3.4a19 19 0 0 1 9.5-3.6c3.3 0 6.4 1.5 9.5 2.2 7 1.4 14.8 1 20.7 5.4 4 2.8 7.8 6 12.1 8.2 3.9 2 8.2 3 12 5 3.4 1.2 6.7 3.3 10.4 3l4.3-.3c3.8.1 7.8.5 11.2-1.3 5.2-2.3 8.4-7.8 13.8-9.4 4-1 7.4 2 10.4 4.2q2.5 1.6 5.2 3.1 4.2 2.8 8.6 5.2" class="b"/><path d="m9.3 202.2 6-1.6c5.9-2.7 9.5-4.2 15.6-1.1q2.7 1 5.2 2.6c2.3 1.4 5 2.8 7.7 2.3 2.6-.5 4.8-2.4 7-3.9q2.9-2 6-4c2.7-2 6.1-3.4 9.5-2.3 2.4.6 4.6 2 6.9 3l11.2 4.7q3.4 1.3 6.9 2.6 4.5 2.3 9.5 4 5.5 1.6 11.2 3 3.4 1.3 6.9 3.1c3.3 1.5 6.5 3.8 10.3 3.6 1.4 0 3-.4 4.3-.3 6.8.5 10.6 1.1 16.4-3.3 6-5 9.6-7.5 16.4-1.6q1.6 1.3 3.5 2.5l3.4 1.8c3.2 2 6.2 4.4 9.5 6.2" class="b"/><path d="M9.3 200q3.2-.8 6-2c5.5-3 9.4-5.3 15.6-2.7 4.3 1.3 8.2 5 13 4.2 2.6-.5 4.8-2.4 6.8-4l6-4.2c2.8-2 6.3-3.2 9.6-2 6.1 2.6 11.7 6.5 17.2 10.2q3.2 2.3 7 3.8c2.6 1.4 5.5 2.5 8.5 2.4 4 .1 8.1-1 12.1-.3 5.8 1.1 10.2 5.4 15.5 7.6 2.5 1 5.2.3 7.8.6 4.3.6 8.9 1 13-1 4.4-2 8.3-7.1 13.7-5.7 3.3 1 5.7 3.6 8.6 5.3 5 2 8.5 6 13 8.8" class="b"/><path d="M9.3 197q3-1.2 6-2.7 3-1.7 6.1-3c4-1.7 8.2-.5 12 .7 3.7 1.2 7.3 3.7 11.3 2.9a17 17 0 0 0 6-3.1l7-4.8c2.4-1.7 5.6-2.8 8.5-1.8q2.8 1 5.2 2.7 3.7 2 7 5c3.7 3.2 7.4 6.9 12 9A11 11 0 0 0 99 203c3.2-.9 6.2-2.5 9.5-3.2 6.8-1 12 5 17.3 8.5a11 11 0 0 0 4.3 1.5q2 0 4.3.2c3.4.3 7 .5 10.3-.5q4-1.1 7.8-3c2.1-1.2 4.4-2.6 6.9-2.7 3.2-.2 6 2 8.6 3.6 1.6 1 3.6 1.7 5.2 2.8 3 2.2 6 4.8 9.5 6.4" class="b"/><path d="M9.3 193.4c3.6-2.1 7.3-4.3 11.2-5.7q4.8-1.4 9.5 0 3.2.5 6 1.4c5.6 2.1 9.4 3.1 14.7-.2 4.8-2.4 8.8-8 14.7-7q2.7.6 5.2 2.2 2.7 1.5 5.1 3.6c5.8 4.8 11.2 11 19 12.2 4.9.4 9.2-2.6 13.8-3.5 4.8-1 9.3 2 13 4.8 2.1 1.7 4.2 3.8 6.8 4.9q2.5.8 5.2.6l6-.1c4.1-.4 8.2-1.6 12.1-2.5 2.3-.8 4.5-2 7-2.5 3.7-.8 7 1.8 10.3 3.4 4.7 2 8.5 6.2 13.8 6.8" class="b"/><path d="M9.3 189.9c6.5-4.6 11.9-7.4 19.9-5.1q2.5.6 5.1.7 2.2.3 4.3 1a15 15 0 0 0 12.1-.7c6.2-2.9 10.7-9.8 18.1-5.4 5.6 3 10.1 7.5 15.5 10.7q3 1.5 6 2.3 3 1 6.1 1.4c4 .4 8-.3 12-.5 7-.6 11.9 2.8 17.3 6.4q4 2.3 8.7 1.7 4.7-.3 9.5-1c2.8-.6 5.7-.6 8.6-1 2-.5 4-1.3 6-1.6 2.8-.4 5.4.9 7.8 2.2l6.9 3.8c2.8 1.7 6.1 3.1 9.5 2.3" class="b"/><path d="M9.3 187.8c7.4-5.2 11.6-7.4 20.7-5.4 2.3.4 4.7 0 7 .3 4.3.6 8.9.9 12.9-1.2 6.8-3 11.2-9.5 19-4.2 5 3.2 9.7 7.3 15.5 9.3 2.4.8 5.2.9 7.7 1.5 5 1.2 9.7 3.1 14.7 4 3.4.6 7 .3 10.3.8 4.5.5 8.5 3 13 3.1 4.8 0 9.8-.5 14.6-.5 2.9-.1 5.8.5 8.7.2 4-.8 7.5-1.1 11.2 1.2q3.8 2.2 7.7 4.3c3.1 1.8 6.9 3 10.4 1.6" class="b"/><path d="M9.3 187c4.5-2.2 8.8-5.3 13.8-6.1q3.9-.6 7.8-.4l8.6-.9q4-.4 7.8-2.2c3.7-1.7 7.2-4.2 11.2-5.5 5-1.6 9.2 2.2 13 5 3.1 2.2 6.5 4.4 10.3 5.3 3.3 1 7 .3 10.3.7 6 1.2 11 5.6 17.3 6.4 2.2.3 4.6-.2 6.9-.4 4-.6 8-.2 12-.4 4-.4 8-1.1 12.1-.9 3.8.1 7.5 1.2 11.2 2 3.2.2 6.5-.2 9.5.9 4 1.5 7.4 4 11.2 5.8 3.1 1.7 6.7 3.6 10.4 2.6" class="b"/><path d="M9.3 186.3c5.1-1.4 9.6-4.4 14.7-5.8 6.6-2 13.6-2.6 19.8-5.6 5.5-2.4 10.8-7.8 17.3-6.1 3.6 1 6.5 3.8 9.5 6 3.3 2.3 7.1 4.2 11.2 4.7 3.1.3 6.3-.7 9.5-.8 6 0 10.6 5 16.4 6.2 2.6.7 5.2-.3 7.7-.9 4.5-1.3 9.3-1.8 13.8-2.9 4.8-1.3 9.8-3 14.7-1.4 3 .8 5.6 2.7 8.6 3.4 3.7.8 7.7 1.1 11.2 2.8q4.8 2.3 9.5 4.7c2.8 1.8 6 4 9.5 3.7" class="b"/><path d="M9.3 184.9c6.1-1 11.6-4 17.3-6.3 4.7-2.1 9.8-3.6 14.6-5.6q4.9-2.3 9.5-5c3.5-2 7.6-2.4 11.2-.5 3.1 1.5 5.8 3.8 8.7 5.8 4.4 2.4 9.5 4.7 14.6 4 4.8-.6 8.2-2 13 .2 4 1.6 8.4 4.3 12.9 2.9q7.1-2.8 14.7-4.3c7.2-1.5 12.3-7.2 19.8-2.8q2.5 1.7 5.2 3.3 3.1 1.7 6.9 2.2a55 55 0 0 1 13.8 4.2c3.5 2 6.8 5.3 11.2 5.2" class="b"/><path d="M9.3 182.5q5.8-.8 11.2-3c4-1.5 7.5-3.7 11.3-5.6 4-2 8.6-3.3 12.9-5.2 5-2 9.9-5.4 15.5-3.3 3.7 1.3 7 3.8 10.4 5.8q2 1 4.3 1.8 3.3 1.7 6.9 2.6c2.5.6 5.2.3 7.7 0 1.7-.3 3.5-.9 5.2-.8 5 .3 9.7 3.2 14.7 1.9 2.3-.8 4.4-2.3 6.9-3 3.6-1.2 7.5-1.7 11.2-2.8q3.6-1.2 6.9-3.3c5.9-3.4 10-1.2 14.6 3q4 3.4 9.5 4c3.2.4 6.4.2 9.5 1 5.2 1.2 9 6.3 14.7 5.8" class="b"/><path d="M9.3 179.8c5-1.2 10.1-1.9 14.7-4.3 3.2-1.6 6.3-3.8 9.5-5.5q4.2-2 8.6-3.1l9.5-3.1q4.7-1.7 9.5 0c3.6 1.2 6.9 3.4 10.3 5.1 3.6 1.2 6.8 3.6 10.4 4.9q3.8 1.2 7.7.5c1.7-.2 3.5-1 5.2-1 4.9 0 9.9 2.3 14.7.4 2.6-1.1 5-3 7.7-3.9 4.3-1.5 8.9-2.4 13-4.3 2.5-1.3 5-3.2 7.7-3.8 5.4-1.3 9.2 3.5 13 6.5q3.8 2.8 8.6 2.8c2.3.1 4.6-.3 6.9-.1 5.8.2 10.4 5.7 16.4 4" class="b"/><path d="M9.3 177.3c3.1-.9 6.5-1 9.5-2.1 5.9-2 10.2-6.7 15.5-9.6 4.3-2.1 9.2-2.8 13.8-3.6 5-.8 8.9-1.5 13.8.2 4.6 1.6 8.7 4.1 13 6.2 2.7 1.5 5.5 3.4 8.6 4.1q3.5.5 6.9 0 2.6-.8 5.2-.8c4.3.2 8.7 1.6 13 .3 2.4-.7 4.5-2.5 6.8-3.7l14.7-7.5c2.4-1.3 5-3 7.7-3.4 5.5-.6 9.1 4.4 13 7.5a13 13 0 0 0 8.6 2.6c2.3 0 4.6-.7 6.9-.8 6.2 0 9.4 4.5 16.4 1.7" class="b"/><path d="M9.3 174.2c2-.3 4.1-.2 6-.5 4.4-.5 8-3.2 11.3-6 6-5.7 12-9.3 20.7-8.9 4 .3 8.1.4 12 1.4q7 1.7 13 5.3c3.6 2 7 4.5 11.2 5 3.7.3 7.5-.5 11.2-.7 4.3 0 8.7 1 13 .1 2.8-.6 5.3-2.3 7.7-3.7 4.8-2.7 9-6.4 13.8-9.3 8.2-4.8 12-4.5 19 2.2 5 5.3 9.6 5.8 16.4 3.7 7.3-1.7 8.8 3.4 18-.6" class="b"/><path d="M9.3 170c2 0 4 .5 6 .5 5.7 0 10-4.3 13.9-7.8q2.6-2.5 6-4.2a24 24 0 0 1 7.8-3c3.8-.6 7.5.8 11.2 1.8 4.3 1.3 8.7 2.3 13 3.9 3 1.1 5.7 3.2 8.5 4.7q3.7 1.9 7.8 2 4.7-.6 9.5-.7c6.9 0 13.4.7 19.8-2.5q4.6-2.2 8.6-5.3c2.6-2 5-4.2 7.8-5.8 7.9-4.3 12.2-4.1 19 2 5.1 5 9.7 5.7 16.4 3.4 7.6-1.9 7 2.5 18-1.5" class="b"/><path d="M9.3 164c8.7 2.9 12.7 2 19.9-3.5 2.3-2 5.2-2.9 7.7-4.4 4.8-3 9.4-4.5 14.7-2q4.5 2.2 9.5 3.5c3.2.9 6.5 1.5 9.5 3.1 4 2.7 7.8 4.8 12.9 4q3.8-.8 7.8-.8 8.3.7 16.4-1.7 5.3-1.4 10.3-3.8c4-2 7.3-5 11.2-7.2 19.7-9.6 17.6 9.8 34.5 5q2.6-.8 5.2-.8c1.4 0 2.9.5 4.3.5 3.2.1 6.4-.8 9.5-1.5" class="b"/><path d="M9.3 156.4c3.7 1.2 7.4 2.6 11.2 3 3 .4 6-.5 8.7-1.5 2.2-1 4.7-1.3 6.9-2.4 4.2-2.2 8.8-5.4 13.8-3.8 1.7.5 3.4 1.5 5.1 2.1q3 1.2 6 1.8c3 .5 6 .7 8.7 1.8 1.8.7 3.4 2 5.2 2.7 5.6 2.5 9.8.4 15.5.4a40 40 0 0 0 18-3.2c4.4-1.4 9-2.2 13-4.2 4-1.9 7.8-4 12.1-5 4-1.5 8.3-1.8 12 .3 5.3 2.8 8.1 6.2 14.7 6 3.2-.2 6.3-1.3 9.5-1 4.3.9 8.7-.2 13-1" class="b"/><path d="m9.3 148.1 6 1.6q3.1 1.3 6.1 2.8 5.4 2.4 11.2 2.2c5.7.2 10.6-4.3 16.4-3.8 2.7.2 5.2 1.4 7.8 1.8 3.4.5 7 .4 10.3 1 2.5.4 4.7 1.6 7 2.7q3.2 1.3 6.8 1.3c2.9 0 5.8-.7 8.6-.7l4.4.2q2.6 0 5.1-.7c3.5-.8 7-2.2 10.4-3.3 3-1 6.4-1.4 9.5-2.4q4.3-1.7 8.6-3.2 3-1 6-1.4c5.8-1.6 10.3-1.6 15.5 1.6 2.4 1.5 5 3 7.8 3.5 3.7.9 7.5.2 11.2.3 1.7 0 3.5.5 5.2.5 3.2 0 6.4-1 9.5-1.8" class="b"/><path d="M9.3 141q3.2 0 6 .8c5.6 2.2 9.9 7 15.6 8.9 5.3 1.9 11 .6 16.4-.2 2.8-.5 5.8.1 8.6-.1 17-2.5 13.5 5 27.6 3.1q3-.3 6-.4c1.7 0 3.5.5 5.2.4 4.5-.1 8.7-2 13-3.3q3.4-.9 6.9-1.5 3.4-.8 6.9-2.2 3.7-1.7 7.7-2.5c2.3-.2 4.7 0 7-.5 4.3-.6 8.9-.4 12.9 1.6 2.2 1.1 4.4 2.3 6.9 2.8 3.9 1 8 .8 12 1 1.7.2 3.5.7 5.2.7 3.2 0 6.4-1.1 9.5-2" class="b"/><path d="M9.3 136c5.1-1 7.8-.3 12.1 2.6 4.4 3 8.7 6.3 13.8 7.8 2.8 1 5.7 2.2 8.6 2.4q5.7.1 11.2-1.3c3.6-1.2 7.5-2.5 11.2-1.3 3.3.8 6.1 3 9.5 3.4 3.8.4 7.5-.5 11.2-.6 2.6-.2 5.2.7 7.8.8 4.2 0 8.1-1.8 12-3 2.9-.9 5.9-.7 8.7-1.5 5-1.2 9.4-4.6 14.7-4.4 4.8 1 9.8.2 14.6.7 3.3.3 6.3 2 9.5 2.8 4.2 1 8.7.4 13 .7q2.5.3 5.1.8c3.5.4 7-.7 10.4-1.7" class="b"/><path d="M9.3 132.8c3.8-1.2 7.5-1.6 11.2-.1q4.5 1.6 8.7 4 3 1.4 6 2.9c4 2.5 8 6 13 5.6q3-.1 6-1.4c3-1.3 6-3.2 9.5-2.9 4.3.4 7.7 3.8 12 4s8.7-.6 13 0q2.2.1 4.3.8c3.5.6 7-.7 10.3-1.8q3.4-1.2 7-1.7 3 .1 6-.7c4.7-1.3 9.6-4.4 14.6-3 5 1.8 10.4.9 15.6 1.4 2 .1 4 .9 6 1.4 3.4.6 7-.3 10.4-.6 8.9-1.2 9.1 2.6 19.8-.1" class="b"/><path d="M9.3 130q4.2-1.6 8.6-1.8a33 33 0 0 1 16.4 4c3.6 2.3 6.5 5.7 10.4 7.4 5.8 2.1 9.6-.8 14.7-2.9q3.3-1.2 6.9-.2c2.8 1 5.5 2.7 8.6 3 2.5.3 5.2.1 7.7.3q5.3.3 10.4 1.7c5.2.9 9.8-2.5 14.6-3.7 2.5-.7 5.3-.2 7.8-.5 3.7-.5 7.4-1.5 11.2-1.3 3.6.1 6.8 2.2 10.4 2.1 4.8.1 9.8-1.1 14.6.2 5 .6 9.7-2.5 14.7-2.6 2.6-.3 5.2.8 7.7 1.3q4.3.7 8.7.3" class="b"/><path d="M9.3 127.3q6-1.7 12.1-2.9c5-1.1 10.5-1.6 14.7 2 3.6 2.9 6.7 6.7 11.2 8.4 6.2 2.4 10.4-2.6 16.4-2.6 3 0 5.8 1.3 8.6 2.1q3 .8 6 .9 5.7.1 11.2 1c2.3.3 4.6 1.1 7 .5 4.1-1 7.8-3.3 12-4.3 2.5-.6 5.2-.2 7.8 0q7.5.4 14.6 3c5.7 2 11.6-.6 17.3-1 1.7-.3 3.5.1 5.1-.2 4.7-1 9-3.7 13.8-3.4 2.4 0 4.7 1.1 7 1.8q4.1 1.3 8.6 1.6" class="b"/><path d="M9.3 124.2c4-1.3 8.2-1.6 12.1-3.2 6.8-2.6 10.2-4.5 16.4.8 4 3.3 7.7 7.8 13 9.3 6.7 1.4 9.5-4.1 19.8-1q3.3 1 6.9 1.4c2.5.3 5.2.2 7.7.5l5.2.1q2.6.5 5.2.2c5-.9 9.5-3.7 14.6-4.4 4.8-.5 9.5 1.2 13.8 3 6.4 2.8 10.4 3.6 17.3 1.4l6.9-1.8c2-.4 4.1-.5 6-1.3 4.8-2 9.3-4.2 14.7-2.7 4.6 1.4 8.9 4 13.8 4.6" class="b"/><path d="M9.3 120.3c3.9-1.4 8.2-1 12.1-2.3 4.1-1.2 8.6-4.3 13-2.2 6.9 2.9 11.4 10.3 19 11.9 4.3.4 8.5-1.7 12.8-1.4 5 0 9.7 2.5 14.7 2.7q4.8.3 9.5-.2 3.5.2 6.9-.4c6-1 12-3.7 18.1-2.7 3.9.7 7.5 2.5 11.2 3.7 4.2 1.5 8.8 1 13-.2l11.2-3.1c4.4-1.2 8.2-4.5 13-4.5 6.8 0 12.2 5.4 18.9 6.2" class="b"/><path d="M9.3 116.3c3.3-1.3 7-.7 10.4-.9 3.5 0 6.9-1.3 10.3-1.9 5.7-.5 11.8 3.9 16.4 6.8 5 3.2 7.7 4.6 13.8 3.4 4-.7 8.2-1 12 0 2.6.8 5.2 1.9 7.8 2.3q3.5.7 7 .4 3.8-.4 7.7-.6c4.6-.3 9.2-1 13.8-1.2q3-.4 6-.4c5.3.3 10.3 2.7 15.6 2.5 3.4 0 7-.8 10.3-1.4q5.3-1 10.4-2.6c5.2-2 9.5-6.2 15.5-4.5 5.8 1.2 10.4 5.7 16.4 6.3" class="b"/><path d="M9.3 113.2c4.5-1.7 9.2.1 13.8-.1 2.6 0 5.2-.7 7.8-.9 2 0 4 .6 6 .9 4 .7 7.7 2.4 11.2 4.1s6.5 3.2 10.4 2.6c5.4-.7 11.2-1.6 16.4.7a41 41 0 0 0 8.6 2.8q3.4.7 6.9.1 2.6 0 5.2-.2 7.7-.3 15.5-.3c7.2-.4 14.4 1.5 21.6 0 6-1 12.3-.7 18-2.8 5.7-2.4 9.8-6.9 16.5-4.9 5.3 1.4 9.8 5.5 15.5 6" class="b"/><path d="M9.3 110.7c5-1.7 9.7.5 14.7.5 3.2 0 6.3-1 9.5-.7 7.2 0 10.8 1 17.2 4.2q4.5 2.5 9.5 1.2c16-3.5 12.8.6 25.9 4.7 5.7 1.2 11.5-.4 17.2-.2 6.6.2 13.3 1.5 19.9.3 4-.5 8-2.2 12-2.4 4.3-.3 8.7.6 13 0 5.3-.9 9.3-5.5 14.6-6 7-.6 12.8 5.2 19.9 5" class="b"/><path d="M9.3 108.4c5.8-1.8 10 1 15.6.7 2.3 0 4.6-.7 6.9-1l6.9-.5c4.3 0 8.3 2 12 4.1 3.1 2 6.9 2.2 10.4 1.3 13.8-3.7 11.1-2.5 23.3 3.4 6.3 3 11.6.2 18 0 5.9 0 11.5 3 17.3 2.1 3.6-.4 7-2 10.4-3.4 5.2-2 11-.4 16.4-.3S156 111 161 110c4.5-.9 8.8 1 13 2.4q4.1 1.3 8.6 1" class="b"/><path d="M9.3 106q3-.5 6-.3c2.6.4 5.2 1.3 7.8 1.3 3 .1 5.9-.8 8.7-1.5q3-.7 6-1c6.3-.8 10.2 3.4 15.5 5.7 8.8 3.4 15.2-3.6 22.4-1.2 5.4 1.8 10.6 4.8 16.4 4 2.3-.1 4.6-1 7-1.5q3.8-.8 7.7.2c5 1.4 10.1 4.6 15.5 3.1 2.7-.6 5.2-2.1 7.8-3.3 5.4-2.5 11.5-1.2 17.2-1.3 5.1-.3 9.5-3.7 14.7-3.9 3.8-.1 7.5 1.4 11.2 2.3q4.6 1 9.5.6" class="b"/><path d="M9.3 103.5q3-.5 6 0c2.6.4 5.2 1.3 7.8 1.4 4.5.1 8.6-2 13-2.8q4.8-1.4 9.5.8c2 1 4 2.5 6 3.6 4 2.1 8.6 3 13 2.1 3.1-.4 6.2-1.7 9.4-1.6s6.4.7 9.5.9c3.7 0 7.6-.1 11.2-1.1 4-1.3 8.1-2.4 12.1-.8 3.2 1.2 6.3 2.9 9.5 4.3q4.2 1.7 8.6.3 3-1.4 6-2.9c5-2 10.3-2.5 15.6-2.8 4.7-.3 9-2.6 13.8-2.9 4.1-.2 8 1.3 12 2.3q5.2 1.1 10.4 1" class="b"/><path d="M9.3 100.4q2.6 0 5.2.2 2.6.6 5.2 1.6 3.8 1.2 7.7.5 4.8-1.2 9.5-2.6c3.4-1 7.2-.9 10.4.8 4.8 2.6 10 5 15.5 5.7 3.2.4 6.4-.2 9.5-.7 3.4-.4 7-.6 10.3-1.4l7-1.8q2.6-.6 5.1-1.3c7.5-2.7 10.5-1.3 17.3 2 3.7 2 7.7 4.7 12 3.5 2.4-.6 4.7-2 7-3q4.5-2 9.4-3.1c3.4-.8 7-1 10.4-1.7s6.8-1.8 10.3-1.6c3.2 0 6.4 1 9.5 2 4 1 8 2.1 12 2.3" class="b"/><path d="M9.3 97.6q5 .2 9.5 2 3.8 1.6 7.8 1.2 5.7-1 11.2-2.9 5.2-1.6 10.3.4 4.3 1.8 8.7 3.4c4.5 2.1 9.5 4.2 14.6 3.2 5.2-.6 10-2.5 14.7-4.8q4.2-1.8 8.6-2.8c3.6-1.3 7.5-2 11.2-.7q3.9 1.4 7.8 3.3c2.9 1.5 6 3 9.5 2.5 2.4-.3 4.7-1.5 6.9-2.6q4.1-1.9 8.6-3.2 6-1.5 12-2c3.5-.6 7-1.6 10.4-1.4 4.1.3 8.2 1.7 12 3 3.1 1.1 6.3 2.3 9.6 2.7" class="b"/><path d="M9.3 94.8q3 .3 6 1.1 3 1.2 6.1 2c3.2 1 6.5.3 9.5-.6 4.5-1 9.1-2.7 13.8-2.1q3 .5 6 1.5 3.1.7 6 1.9c4.2 1.7 8.4 4.3 13 4.2 6.5-.4 12.3-3.9 18.1-6.5 2.2-1 4.7-1.4 7-2.1 2.7-1 5.6-1.8 8.6-1.6 3.5.3 7 1.8 10.3 3 2.4 1 5 2.1 7.8 2 3 0 5.9-1.5 8.6-2.7q3.4-1.6 6.9-2.5c4.2-1.2 8.6-1.6 13-2 3-.4 6.2-1.3 9.4-1.3a41 41 0 0 1 13.8 3.4c3 1.3 6.2 2.8 9.5 3.3" class="b"/><path d="M9.3 92c7.9.2 11.5 5.3 19.9 2.8 4.7-1.3 9.7-2.4 14.6-1.7q3.5.6 7 1.6c1.9.5 4 .6 6 1.3 4 1.2 7.8 3.2 12 3.2 2.7 0 5.3-.9 7.8-1.6 5-1.5 9.6-3.8 14.6-5 4.6-1.1 9-3.4 13.8-2.8 5.9.4 11.4 4 17.3 3.1 2.7-.4 5.3-1.7 7.8-2.9q3.7-1.5 7.7-2.3c4-.9 8-1 12-1.5 3.8-.5 7.5-1.6 11.3-1.1 4.2.4 8.2 2 12 3.6 3 1.4 6.2 3 9.6 3.4" class="b"/><path d="M9.3 89c8.4 0 11.1 5.8 20.7 2.8 4.2-1.2 8.7-1.7 13-.7q3.9 1 7.7 2.2c2 .4 4.1.4 6 .8 4.3.6 8.7 1.5 13 .8 5-1 9.8-2.7 14.7-4l8.6-2q3-1 6-1.9 5.2-1.1 10.4 0c5 1 10.3 3 15.5 1 3.2-1 6.2-2.7 9.5-3.5 4.2-1.2 8.6-1.6 13-2s9-2 13.7-1.5c4.2.5 8.3 2.2 12.1 3.8 3 1.5 6.1 3.1 9.5 3.2" class="b"/><path d="M9.3 85.7c3.4-.4 6.5 1 9.5 2.5 6 2.8 9.5 1.5 15.5.3q5.8-.8 11.3 1.4c2.5.9 5 2 7.7 2.2q6.5.8 13-.1c6.1-1.3 12-3.9 18-5.5l8.7-2.2c2.8-.8 5.7-1.7 8.6-1.8 5.3-.2 10.4 1.7 15.5 2.7q4.9 1 9.5-.8a88 88 0 0 1 22.4-6c4.3-.7 8.6-2.2 13-1.6 3.9.5 7.6 2.2 11.2 3.8 3 1.6 6 3.2 9.5 3.4" class="b"/><path d="M9.3 82.6c5.3-.7 9.7 2.8 14.7 3.7 5.2 1 10.3-1.1 15.5-.5 4 .4 7.5 2.5 11.2 3.8q3.8 1.1 7.8 1.2c4.6 0 8.9-1.8 13-3.8q6.7-3.2 13.7-5.5c4.3-1 8.6-2.3 13-2.8 3.7-.4 7.5.5 11.2 1.5 5 1 10.3 3.5 15.5 2 3.2-1 6.3-2.5 9.5-3.4q7.2-2.1 14.6-3.7c4.6-.9 9.1-3 13.8-2.3 3.7.5 7.1 2.2 10.4 3.8 3 1.7 6 3.4 9.5 3.7" class="b"/><path d="M9.3 80.3c5.7-.7 10.9 2.3 16.4 3 4.9 1 9.8-.2 14.7.2 3.7.4 7 2.3 10.3 3.8q3.4 1.3 7 1.8c4.7.8 9-1.7 12.9-4.3q5-3 10.3-5.7 5-2 10.4-2.8c4.5-1 9.2-1.6 13.8-.3l8.6 2.2a20 20 0 0 0 10.3 1c3.3-.8 6.3-2.3 9.5-3.2 4.6-1.3 9.3-2 13.8-3.2l5.2-1.5c2.8-1 5.6-2.2 8.6-2.3 4.4-.2 8.4 2.1 12 4.1 3 1.8 6.1 3.6 9.6 4" class="b"/><path d="M9.3 78.6c6.8-.3 13.3 2.2 19.9 3.1 3.4.7 6.9.1 10.3 0q4.6-.1 8.6 2 4.2 2 8.6 3.5c5.4 2 9.8-1 13.8-4.2 4.4-3 8.7-6.5 13.8-8q4-.9 7.8-1.3c3.7-.8 7.5-1.5 11.2-1.2q5.3.6 10.4 2c3 .9 6.3 1.7 9.5 1 3.8-.7 7.3-2.8 11.2-3.5 5.4-1 11-1.2 16.4-3 4.4-1.6 8.9-4.5 13.8-3.2q4.5 1.6 8.6 4.1c2.9 1.8 6 3.7 9.5 4.1" class="b"/><path d="M9.3 77c7 .2 13.9 2.2 20.7 3.8 3.5.9 7 0 10.4-.5 3-.4 6 .5 8.6 1.6 8 3.2 12 7.2 19.8.7 4.2-3.2 8.2-6.8 13-9 2.7-1.1 5.7-1.3 8.6-1.6 3.5-.4 6.9-1.8 10.3-2.4q5.7-1 11.2.4c3.4.8 6.9 2 10.4 1.4 3.9-.5 7.4-2.6 11.2-3.2 5.1-.8 10.5-.2 15.5-1.7 5-1.4 9.4-5.2 14.7-4.1 3.4.8 6.5 2.7 9.5 4.4 2.9 1.8 6 3.7 9.5 4" class="b"/><path d="M9.3 75q6 .9 12.1 2.4c3.4.9 6.8 2.1 10.4 2.7 3.4.6 6.9-.8 10.3-1 4-.2 7.6 1.6 11.2 2.9 3.6 1.4 7.6 2.7 11.2.8 2.2-1 4.2-2.7 6-4.2q3.4-2.7 7-5.1c3.7-2.6 7.6-3.5 12-3.8q4-.3 7.8-2a25 25 0 0 1 16.4-1.9c2.8.8 5.7 1.6 8.6 1.4 4.1-.3 8-2.4 12-2.7 5-.4 10 .1 14.7-1.3 4.9-1.4 9.4-5 14.7-4 3 .6 5.8 2.2 8.6 3.5 3.2 1.7 6.6 3.7 10.4 3.9" class="b"/><path d="M9.3 72.9c4.3 1 8.7 1.6 13 2.6 3.4.9 6.8 2.3 10.3 2.8 4.3.6 8.6-1.4 13-.5 5.1.8 10.1 3.8 15.5 3 3.6-.8 6.6-3.3 9.5-5.4 3.3-2.3 6.7-4.8 10.3-6.6 4.6-2.3 10-1.6 14.7-3.4 5.5-1.9 11.1-5.4 17.2-4.4q3.9 1 7.8 1.9 3 .4 6 0c3-.3 5.7-1.4 8.7-1.5 4.8-.3 9.9.3 14.6-1.3 2.9-1 5.7-2.5 8.6-3.3 3.8-1 7.7-.3 11.2 1 4.3 1.3 8.5 3 13 3.4" class="b"/><path d="M9.3 69.9c4.2 1.3 8.7 1.6 13 2.4 3.8.8 7.3 2.6 11.2 3.2 3.4.4 6.9-.5 10.3-.3 4.1.2 8 1.6 12.1 2 5.2.6 9.7-2.4 13.8-5.2q5.1-3.2 10.4-6.1c4.7-2.8 10.3-2.9 15.5-4.1 5-1.2 9.6-3.8 14.6-4.7 5.3-.8 10.3 2.5 15.5 2.3 3.2.2 6.4-1 9.5-1.2 4-.2 8.1.3 12.1-.4 2.4-.4 4.7-1.5 7-2.3q3.6-1.4 7.7-1.8c2.8-.4 5.8.2 8.6.5q6 .5 12 1.5" class="b"/><path d="M9.3 66.1q3 .8 6 1.2 3.5.3 7 .9c3.5.6 6.8 2.4 10.3 3.4 3.1.7 6.4.2 9.5 0q3.5-.1 7 .4c7.3 1.2 10.6 1 17.2-2.8q3.6-2.3 7.7-4l6-3.3a33 33 0 0 1 10.4-3.7q3.9-.4 7.8-1c4.1-.5 8-2.2 12-3.2 5.3-1.4 10.4 1.5 15.6 1.6 2.9.3 5.7-.6 8.6-1 3.4-.4 6.9 0 10.3-.2 3 0 5.9-1 8.7-2q3.7-1 7.7-1.5 4.8-.4 9.5-.4c4-.4 8.2-.9 12 .4" class="b"/><path d="m9.3 62.1 6 .9q4 .1 7.8 1c4.4 1.2 8.3 4.3 13 4.1 3.7 0 7.4-1 11.2-.8 3.7-.1 7.5.8 11.2-.2s7-2.8 10.3-4.4q3.4-1.3 7-2.8c5.6-3 11.5-6 18-6q3.5.2 7 0 3.4-.6 6.9-1.6c7-2.7 11.1-.7 18-.7 3 .1 5.8-1 8.7-1.3q4.3-.4 8.6-.1 3 0 6-.6c1.7-.4 3.5-1.2 5.2-1.4 4-.7 8-.6 12-.7 5.8 0 10.8-2.8 16.5-.4" class="b"/><path d="M9.3 58.7q6 .4 12.1 1.6 4.4 1.3 8.6 3.1 3.8 1.5 7.8.6c3.7-.9 7.4-2 11.2-2.2q3.4-.1 6.9-.2 4-.5 7.7-2 3.4-1.3 7-2.5 3-.7 6-1.8A41 41 0 0 1 94.7 51c3.7.4 7.6.5 11.2-.5 2.9-.8 5.7-2 8.6-2.3 4.3-.5 8.7-.3 13-1 3.4-.5 6.8-1.8 10.3-1.9 3.1-.2 6.4 0 9.5-.4 2-.1 4-1 6-1.3 4-.5 8.1.4 12.1.6q4.4.2 8.6-.9 4.5-1 8.7.4" class="b"/><path d="M9.3 55.7q7 .6 13.8 2.6c3.1.8 6.3 1.8 9.5 2 4.9 0 9.1-3 13.8-3.8a52 52 0 0 1 7.8-1Q57.6 55 61 54l7.7-1.8 9.5-1.6c5.4-1 10.9-2.5 16.4-2.1 9.8 1.4 11.9-.4 20.7-3 5.4-1.4 11-1.4 16.4-2.9q7.6-2.1 15.5-2.6c2.6-.2 5.2-1 7.8-.6 4.6.5 9.1 1.8 13.8 1.7 4.6-.3 9.2-2 13.8-.8" class="b"/><path d="M9.3 52.9c3.9 0 7.5 1.5 11.2 2.4q5.6 1.5 11.3.8c4.2-.6 8-3 12-4 5.1-1.4 10.5-1.8 15.5-3.5a44 44 0 0 1 10.4-2c4-.2 8 .1 12-.1 3.8-.2 7.5-1 11.3-1 3.7.1 7.4 1.1 11.2.7 5.7-.7 10.7-4 16.4-5 3.4-.7 7-.6 10.3-1.4 3.8-1 7.4-2.5 11.2-3.2q6.5-1.2 13-.3c4.8.9 9.7 1.8 14.6 1.5 4.4-.2 8.6-1.7 13-1.2" class="b"/><path d="M9.3 49.9c3 0 5.9 1 8.6 2 6.4 2.4 11.3 1 17.3-1.4 2.5-1 5.1-2.2 7.8-2.7 2.5-.6 5.2-.6 7.7-1 3.3-.6 6.4-2.3 9.5-3.5 7.6-3.3 13-1.5 20.7-1 3.7.2 7.5-.7 11.2-.8 3.8 0 7.5 1.5 11.2 1.4 6 .1 10.9-3.8 16.4-5.1 3.4-.9 7-.3 10.4-.8 3.3-.5 6.3-2.1 9.5-3q5.5-1.8 11.2-.8c4.5.7 9.1 1.9 13.8 1.5l8.6-.7c3.1-.5 6.3-1.3 9.5-1.5" class="b"/><path d="M9.3 46.7c6.8-.6 11.2 4.2 18.1 2.4 4.7-1.2 9-4.1 13.8-5 2.9-.4 5.8 0 8.7-.4 5.4-.7 9.5-5 14.6-6.6 5.7-2.2 11.5.5 17.3.5 3.4 0 6.9-1 10.3-.7 3.8.3 7.4 2.1 11.2 2.3 6 .7 10.8-3.7 16.4-5 3.1-.9 6.4-.3 9.5-.6s5.8-1.6 8.6-2.5a20 20 0 0 1 11.2-.6c4.8 1.2 9.8 2.4 14.7 1.5l5.2-1q2.2 0 4.3-.4c3.1-.5 6.3-1.4 9.5-1.8" class="b"/><path d="M9.3 43.1c7.5-1.7 11.7 3.5 19.9 1 2.3-.7 4.5-1.9 6.9-2.5q3.7-1.1 7.7-.8c11.4 1.4 13.2-5.6 22.4-9 5.1-1.7 10.4.5 15.6.5 3.7.1 7.5-.4 11.2.6 3.1.9 6.2 2.5 9.5 3 6.2 1.5 10.8-2.4 16.3-4.2 3-1.1 6.4-1 9.5-1.3 2.7-.3 5.3-1.4 7.8-2.2a21 21 0 0 1 12-.6 34 34 0 0 0 17.3 1.1q3.8-.8 7.8-1.1 4.7-1 9.5-2" class="b"/><path d="M9.3 40c5-2.1 10.4-.2 15.6-.3q3 0 6-.8c2.2-.6 4.5-1.4 6.9-1.4 4.9 0 10.1 1.6 14.7-1.1 5.2-3 9.4-8.2 15.5-9.8 3.6-.9 7.5-.3 11.2.1q4.8.4 9.5 1.5c4.8 1 9 3.9 13.8 5 5.7 1.4 11-1.9 16.4-3.5 2.7-1 5.7-1.2 8.6-1.8 2.6-.5 5.2-1.6 7.7-2.5q6.4-2.2 13-.9a57 57 0 0 0 19.8.6q7.6-.2 14.7-2.3" class="b"/><path d="M9.3 38.2q3.7-1.9 7.8-2.1 5.2-.6 10.3-.8c3 0 5.8-1 8.7-.9 3.1.2 6.3.9 9.4.6 6-.6 10-5.5 14.7-8.6 3-2.2 6.6-4 10.4-4.4 9-1.4 15.3.6 23.2 4.8 3.5 1.8 7.3 3.5 11.2 3.6 4.8 0 9.3-1.7 13.8-2.9q4-1 7.8-2 3.9-1.4 7.8-3c4-1.4 8.6-1.7 13-1.3 5.3.8 10.8.4 16.3.8 6.3.2 13 .8 19-1.6" class="b"/><path d="M9.3 37q3.4-1.7 7-2.6 3.6-1.3 7.7-2 5.2-.4 10.3-.6 3 .2 6 .5 5.9.5 10.4-3.1c7.6-6 11.5-9.7 21.6-10.8q6.6-1.6 13 .5c7.6 3.5 13.1 8.8 22.4 7.7q8.8-1.1 17.2-3.6c3.2-1 6.2-3 9.5-3.9 5.9-1.8 12-.5 18.1-.6q6-.7 12 .4 3.9.9 7.8 1 5.4.8 10.4-1.3" class="b"/><path d="M9.3 35q3.4-1.5 7-2.5 3.6-1.6 7.7-2.4 3.8-.5 7.8-.5 3.4-.2 6.9.2A15 15 0 0 0 49 26.7c7.3-6 11.6-10 21.6-10.6 3.4-.4 6.8-1.6 10.3-1.4 9.6.4 13.6 8.8 25.9 7.8 4.6-.6 9.3-1 13.8-2.1q5.8-1.5 11.2-4.2c5.5-2.3 11.5-.5 17.2 0 4.3.4 8.7-.8 13 .1 3.4.6 6.8 1.7 10.3 1.8 3.5.6 7.2.6 10.4-.9" class="b"/><path d="M9.3 31.3q3.4-1.2 7-1.8 6-1.6 12-1.6 5.6 0 11.2-.4 4.8-.7 8.6-3.6c5-3.9 10-8.3 16.4-9.2 3.1-.6 6.4-.3 9.5-1 4.8-1.2 10-2.5 14.7-.5 4.2 1.8 8.2 4.3 13 4.7 4 .5 8-.7 12-1.2 5.5-.6 11.2-1.2 16.4-3.6 4-2 8.6-2 13-.8 2.5.6 5 1.5 7.7 1.8 3.1.2 6.3.1 9.5.6 4.2.7 8.5 1.6 12.9 1.7 3.2.3 6.5.4 9.5-.7" class="b"/><path d="M9.3 26.2c3.7-1 7.5-.5 11.2-.7 8.8 0 18.3 1 26-4.3 4.3-3 8.4-6.8 13.7-8 4.2-1.3 8.6-.8 13-1.2 4-.7 7.9-2.3 12-2.2 3 0 6 1.4 8.6 2.5q3.8 1.6 7.8 1.8c4.7.3 9.2-1.6 13.8-2q5.2-.4 10.4-1c2.6-.5 5.2-1.7 7.7-2.5 4-1.1 8.2-.5 12 .8q4.7 1.7 9.6 2.7c3.4.8 6.8 1.8 10.3 2 2.6.3 5.2 0 7.8-.1q4.8 0 9.5-.9" class="b"/></svg>