<svg xmlns="http://www.w3.org/2000/svg" id="a" width="1920" height="2400" viewBox="0 0 192 240"><defs><style>.b{fill:none;stroke:#fff;stroke-miterlimit:10;stroke-width:.3px}</style></defs><path d="M0 0h192v240H0z" style="stroke-width:0"/><path d="M8.5 223q3.1-1 6-2.6 3.2-1.6 6.2-3.6c5-3.4 7.5-3.7 12.2.3q2 1.7 4.3 3a10 10 0 0 1 3.5 2.1c2.8 2.3 6.3 9.5 10.4 7.7 2.4-1.3 3.9-4 5.3-6.3 1.6-2.6 3.2-5.5 5.2-7.9s4.9-4 7.8-5q4-1.6 7.9-.4c3.3 1.1 5.8 3.9 8.7 5.8 1.9 1.2 4.3 1.9 6 3.3 3.4 2.3 6.1 6.3 10.5 6.1 3.9-.3 7.2-2.5 10.5-4.3 3.5-2 5.8-1.7 8.7 1 4.3 4 5.6 7.4 12.2 7.3 2.6.1 5.2.6 7.8.4q2.2-.3 4.4-.7 2.2-.2 4.3.3c8.8 2 10-8.5 15.7-12.2 2.2-.6 3.8 1.7 5.3 3q1.9 2 4.3 3.4a8 8 0 0 0 7.8 0" class="b"/><path d="M8.5 221.3c8.4-.4 12-7.3 21.7-4.4 3.2.9 6.6.1 9.6 1.2 5.6 3.5 8.9 18.8 15.7 7.2 3.2-5 5.2-11.4 10.5-14.9q2.5-1.5 5.2-2.7h2.6c1.4.1 3-.1 4.3.2l1.8 1.4c2.4 2.2 4.6 5 7.8 6.1q2.8.9 5.2 2.3c7.3 5.3 10.4 4.6 18.3 1.2q4.7-2 7.9 2 2.3 2.7 4.3 5.7c1.2 1.4 2.6 3.2 4.4 3.9 2.3.7 4.7-.4 7-1 3.7-.8 7.4-2.1 11.3-2 3.5 0 7.3 2 10.4-.4 4-3.1 6-8 9.6-11.5 2.8-2 5.1 1.9 7 3.5 3 2.9 6.7 4.1 10.4 1.8" class="b"/><path d="M8.5 219.5q3 .5 6-.2c2-.5 4.1-1.3 6.2-1.5 2.8-.4 5.8 0 8.7-.6 2.6-.5 5.1-2 7.8-2 3-.1 4.6 2.1 6.1 4.4 2 2.7 3.6 7.4 7 8.4 3.5 0 6-5.6 7.8-8.1 2-3 4.2-6.2 7-8.5l7-5.7c1-.2 2.4 0 3.4-.1l2.7.1c2.7 2.6 4.5 6.3 7.8 8 2 1 4.2 1.3 6 2.2q3 1.6 6.2 2.4c3.2.6 6.5-.3 9.6-1.1 8.1-2.7 10.2 3.8 14 9.4 7.7 12.7 9.8-4.2 28.6-.1 5 1.1 7.6-2 10.5-5.5 2.5-2.4 4-6.1 7-8 1.6-.5 3.2.8 4.3 1.9q2 2 4.4 3.5c2.1 1.2 4.8.9 7-.1" class="b"/><path d="M8.5 217.5c2.2.7 4.6 1.4 7 1.1l8.6-1c5.1-.3 9.6-4.9 14.9-3.6 4.4 2 5.4 9.2 9.5 11.7 2.7 1.1 4.7-2 6.1-3.7q2.1-2.8 4.4-5.5c2.5-2.9 5.8-5.2 8.7-7.6 2-1.7 3.8-4 6-5.5q1.9-.2 3.6.3c1.3 1.3 2.5 3.2 3.4 4.7 2.9 4.5 4.4 5.7 9.6 6.6 1.5.2 3 .9 4.4 1.3q2.5.7 5.2.3c11-2 13.2-3.2 19.2 7.5 1.8 3 4.4 8.7 8.7 6.5 2-1.1 4-2.8 6-3.8q6.4-2.6 13.2-2.6c3.1.2 6.7 1.3 9.5-.6 1.3-.7 2.5-2 3.5-3q1.8-1.6 3.5-3.4c1.6-1.9 3-4.4 5.2-5.7 3-1.4 5.4 2.3 7.9 3.6q3.2 2 7 1" class="b"/><path d="M8.5 215.6c1.9.8 4 1.9 6 2.2q3.7.3 7-.4c4-.8 7.5-2.8 11.4-3.9 7.7-2.6 8.5 3.2 12.1 8.2 6 8.5 8.7-7 19.2-12.2q3.1-1.7 6.1-3.9c1.3-1 2.7-2.4 4.4-3 4-.4 6 9.1 9.5 11.3 1.7 1.3 4.1 1.2 6.1 1.3 1.8 0 3.5.6 5.3.7 4.4 0 8.6-2.3 13-1.7 7.5 1.5 8.6 10.7 14 15 2.2 1.4 5-.3 7-1.4q2-1.3 4.3-2.2 3-.8 6.1-1.7 4.3-1.5 8.7-1.6h5.2c2.3-.3 4.4-1.7 6.1-3.1a28 28 0 0 0 6.1-5.4c7.6-9.4 8.6 1.2 17.5.3" class="b"/><path d="M8.5 214c3 1.6 5.9 3.4 9.5 3 2.8 0 5.4-1.2 7.9-2.3q3-1.1 6-1.8c7.3-2 8 1.4 11.4 6.6 6.2 10.1 9.1-6 18.3-11.4 2.9-2 6.3-2.6 9.6-3.6 1.3-.4 2.8-1.3 4.3-1 3.2 1.6 4.2 5.8 6.1 8.5 2.6 4.4 5.2 3.8 9.6 3.3 1.7-.2 3.5.2 5.2-.2q3.6-.8 7-1.7c3.4-.8 7.2 0 9.6 2.6 5 4.7 6.8 15.5 15.7 11.2q2.5-1.2 5.2-2 2.7-.4 5.2-1.4l4.4-2q3-1.1 6-1.8c2-.4 4.2-.2 6.2-.5a21 21 0 0 0 5.2-2.3c1.8-1 3.8-2 5.2-3.5 2-1.6 3.6-4 6.1-4.7 1.9-.3 3.7.8 5.3 1.7q2.9 1.6 6 2" class="b"/><path d="M8.5 212.9c2.6 1.7 5.4 3.8 8.7 3.5 4.9 0 9-3.3 14-4 7.2-1.5 7.5.5 11.2 6 6.2 9.3 9.2-6.3 17.5-11.8a15 15 0 0 1 9.5-2.4l2.6.3q1.8-.1 3.5 0c3.2 1.1 4.3 5 6.1 7.5 2.6 4.3 5.4 3.4 9.6 2.6 1.4-.3 3-.1 4.4-.4q3-.7 6-1.8c11-3.9 13 4.6 18.3 11.5 2.4 2.4 5.3 4 8.7 3.1q2.7-.7 5.3-1.3 2.8-.4 5.2-1.8c1.8-1 3.4-2.5 5.2-3.4 2-.9 4-2.2 6.1-3 2.3-.7 4.7-.2 7-.7q4.6-1 8.7-3.4c2.7-1.6 4.5-5.1 7.9-5.3 3.3.3 6.1 3 9.5 3.2" class="b"/><path d="M8.5 212.5c3.2 2.6 6.1 4.7 10.4 3.8 4-.8 7.4-3.3 11.3-4.1 8.3-1.8 7.6-.1 12.2 5.6 6 7.1 9.5-9.1 17.4-13.1a18 18 0 0 1 8.8-1.3c2 .6 3.9 1.6 6 1.1 3.7-.6 5.2 3.8 7 6.2 1.8 2.7 3.8 3.6 7 2.9q3-.9 6-1 3.3-.7 6.2-2.2c9.9-4.8 12.8-1.2 17.4 7.5q2 3.9 5.2 6.7a9 9 0 0 0 7 2.4c3-.4 6.3-.8 8.7-2.8 2.3-1.8 4.4-4 7-5.5 1.7-1.2 3.3-2.7 5.2-3.5s4.1-.4 6.1-.4q4-.6 7.9-2c1.5-.6 3-1.9 4.3-3 1.4-1.4 3.1-3 5.2-2.7 3.1.4 5.7 2.7 8.7 3.2" class="b"/><path d="M8.5 211.5c2.7 2.6 5.6 5 9.5 4.3 4.4-.5 8-3.4 12.2-4.4q2.2-.6 4.4-.5 1.4-.1 2.6.5c2.2 1.7 3.5 4.8 6 6.2 5.4 2.4 9.6-13.7 17.5-14.8q2.2-.3 4.4 0h3.4c1.5.4 2.9 1.4 4.4 1.5 1.7 0 3.7-1.3 5.2 0 2.9 2.5 4.1 8 8.7 7.6 1.8 0 3.6-.8 5.3-1.2q2.2-.2 4.3-1c3.6-1.3 6.8-3.8 10.5-5 7-2.5 9.8 5.8 12.2 10.6 1 2.3 2.7 4.7 4.3 6.7 2 2.8 5.1 5.1 8.7 4.9 4.9 0 7.5-3 10.5-6.3q1.6-1.7 3.5-3.1 2-2 4.3-4 1.6-1 3.5-1.1l3.5.1q3.5 0 7-1 2.9-.8 5.2-2.9c1.2-1 2.6-2.3 4.3-2.5 3.5 0 6.3 2.9 9.6 3.5" class="b"/><path d="M8.5 209.5c4.2 4 7.2 5.6 13 3.7 3.5-1.2 6.8-3.3 10.5-3.3 1.4 0 3-.4 4.3.4 2.7 1.9 4.8 7.5 8.8 5.3 5.7-4.4 8.4-15.7 17.4-13.8q1.7.4 3.5.5h2.6c1.4.3 2.8 1.2 4.3 1.2 3.3-.6 4.4-2.7 7 1 1.6 2 3 5.3 6 5.4 2.5.2 4.7-1.2 7-1.7 6.6-1.2 10.9-7.8 17.5-8.6 5.6 0 7.5 8.8 9.6 12.9 2.7 5 6.5 13.7 13 13.8 4.4.1 7.1-4 9.6-7q3.3-3.9 7-7.3 2.9-2.9 7-2 3.3.1 7-.5a16 16 0 0 0 5.1-2c1.8-1.2 3.8-2.8 6.1-2.3 3.1.8 5.6 3 8.7 3.7" class="b"/><path d="M8.5 206.4c6.1 4.6 9.3 4.5 16.5 2.4 2.8-1 5.8-.5 8.7-.5 1.9.3 3.2 2 4.4 3.4 2.6 3.2 5 3.6 7.8.3 4-4.3 7-12.2 14-11.4 2.5.4 5.1 1.6 7.8 1q1.8 0 3.5.6c3.2 1 5-3.3 7.8-.9 1.6 1.7 2.6 4.2 4.4 5.7 3.4 2.5 7-.9 10.4-1.8 5.7-1.8 14.2-13.5 20-10 4 3.4 4.9 9.3 7 13.9 2.6 5 6.3 16.1 13 16 4.3-.4 6.5-5 8.8-8 1.7-2.5 4-4.7 6-7 4.3-4.5 7.8-2.7 13.2-3.1 3.3-.1 6.4-2 9.5-2.9 2.1-.4 4.3.6 6.1 1.5q3 1.6 6.1 2.5" class="b"/><path d="M8.5 202.6q3 1.2 6 2 2.7.5 5.3.3c2.3-.1 4.7-.6 7 0q2.5.7 5.2 1c3 .8 4.6 4 7 5.8 3.1 2.4 6-1.5 7.8-3.8 3-3.8 6.6-9.3 12.2-8 2 .3 4 1.1 6 1.1q1.9-.1 3.6-.4 1.3 0 2.6.2c3.2.5 5-3.9 7.8-1.7 1.4 1.3 2.3 3.4 3.5 4.8 3 3.3 5.7 1.5 8.7-.4q3.9-1.9 7-4.7c3.7-3 12.8-13.3 17.4-8.1 3.2 4 4.1 9.7 6.1 14.4 2.3 5.1 5.9 17.8 12.2 18.3 4-.4 5.8-4.8 7.8-7.7q2.2-3.8 5.3-6.9c4.8-5.5 7.2-4.9 13.9-5 3 0 5.8-.8 8.7-1.2 2.5-.2 4.8 1 7 2q3.2 2 7 2.5" class="b"/><path d="m8.5 199 7.8.3c2 0 4.1-.2 6.1.2 1.8.3 3.6 1.3 5.2 2l3.5 1.4c4 2 7 10.9 12.2 6.2 4-3.6 7-10 13-10 2.1 0 4.2.8 6.2 1q2.6.1 5.2-.8 2.2-.5 4.4-.6c4-1.2 5.3-5.4 8.7 0 2.7 4.6 5 6.2 9.5 2.4q4.8-3.1 8.7-7.3c3.3-3.4 13-13.2 17.5-8.3 5.1 6.2 9.4 34.2 17.4 35.5 4.5-.2 7.2-8.1 9.6-11.4a30 30 0 0 1 6-6.6c3-2.3 7-2.4 10.5-2.4q4.4-.2 8.7.5c2.5.5 4.7 2 7 3a18 18 0 0 0 7.8 1.5" class="b"/><path d="M8.5 196c2.5-.6 5.1-1.6 7.8-1.6q4.2-.6 7.8 1.5c2.4 1.4 5.1 2.5 7 4.5 2.8 2.3 5 7.5 8.7 7.9 5.4-.9 8-9.7 15.7-9.4 2.6 0 5.3.9 7.8.1 1.8-.5 3.5-1.5 5.3-2q2.2-.5 4.3-1.2c2-.9 4-3.6 6.1-2 1.9 1.7 3 4.4 5.3 5.8 2.5 1.8 5-.9 7-2.5q4.9-4.7 9.5-9.6 2.5-2.6 5.2-4.5c.8-.4 1.7-1.3 2.7-1.1h9.5c3.2 6 4.8 13 7 19.4 1.7 4.7 6.2 23.8 13 14 3.7-5.7 6-12.4 12.3-16 2.8-1.6 6.3-1.8 9.5-1.5q6.2.6 11.4 4.4c3.5 2.4 8.1 2.2 12.1 1.1" class="b"/><path d="M8.5 193.4q3-1.6 6-2.8c4.9-1.3 9.2 1.5 13.1 3.9 3.8 2.8 6 7.3 9.6 10.4 4.7 3.4 8.7-4.7 14.8-5.6 6-.7 7.4.8 13-3.2q2.2-1.3 4.5-2t4.3-2c4.9-4.3 5.3-1.6 8.7 2 3.7 4.1 6.6.7 9.6-2 4.6-3.8 8.2-8.8 13-12.2 5-.3 10 0 14.9-.2 1.4 1 2 3.8 2.6 5.3 1.5 4.5 3 9.7 4.3 14.3 1.8 5.3 5.8 22.6 12.2 11 3-5.5 6-12.2 12.2-14.6 4-1.4 8.6-.3 12.2 1.8 2.4 1.4 4.6 3.3 7 4.7 4.2 2.5 9-.5 13-2.2" class="b"/><path d="M8.5 190.9c6.6-4.2 8.3-5 15.6-1.3 5.8 2.5 8.5 8.8 13.1 12.6 2.5 2 5.5.2 7.8-1q3-1.5 6.1-2c7.3-.3 7.7-.8 13.1-5.4q3.3-2.3 7-4c1.5-.6 3-1.7 4.3-2.5 2.3-1.4 3.8.2 5.3 1.8 2.7 2.9 5 4.7 8.7 1.8 2.4-2 5.4-3.4 7.8-5.5 2.7-2.4 5-5.4 7.9-7.5q1.2-.5 2.6-.3h14.8c2.2 5 3.7 10.8 5.2 16 1.1 3 4.6 19.4 9.6 14.3 4.2-4.9 6.1-12.7 13-14.8 5.8-1.5 10.5 3.2 14.9 6.2 1.7 1.3 3.8 2.4 6 2.2 4.6-.8 8.5-3.8 12.2-6.3" class="b"/><path d="M8.5 188.5c4-2.4 6.4-5 11.3-3l6 2.6c3.7 2.6 6.6 6.2 9.7 9.4 3.4 3.9 6 2.6 10.4 1.6 2.8-.7 5.9-.6 8.7-1.3 4.1-1 6.4-5.1 9.6-7.6q3.1-2.4 7-3.5 2.2-.8 4.3-1.7c1.7-.5 3.3.6 4.4 1.8q1.6 1.6 3.5 3a6 6 0 0 0 6 .2l2.7-.9 2.6-.4c5.8-2 7.6-9.6 13-12.5l1.8-.7h11.3c1.1 0 2.5-.3 3.5.4 3 6.3 4.4 13.5 7 20 2.3 6.1 4.7 10.5 9.5 3 2.9-4.4 7.5-9.5 13.1-6.6 4 1.9 7 5.9 11.3 6.9 3 .4 5.5-1.5 7.9-2.8 3.7-1.9 7-4.5 10.4-6.8" class="b"/><path d="M8.5 186.1c2.4-1.3 4.8-3.7 7.8-3.3 2 .3 4.1 1.3 6.1 2q2.2.7 4.4 1.9 3.6 2.6 7 5.7c1.7 1.7 3.5 4 6 4.6 2.3.4 4.7-.2 7-.3 3.7-.2 7.7-.6 10.4-3.4 2.5-2.5 4.5-5.8 7.9-7.2 1.9-.9 4-1.1 6-1.4q2.3-.4 4.4-.7c4.8.4 6.1 8.1 14.8 7.5 2-.2 4.3.8 6.1-.4 6.4-4.7 7-14.8 16.6-15.2q2.2-.2 4.3-1.2c.8-.3 1.8-1.1 2.6-1.4h4.4c4.7 2.6 8 28 14.8 24.2 4.7-3.3 7.4-8.5 14-4.6 3.7 2.2 7.7 6.5 12.1 3.3 2.5-1.6 4.6-3.9 7-5.6a65 65 0 0 1 11.3-6.2" class="b"/><path d="M8.5 184.2c5.2-3.7 6.2-4.2 12.2-1.6l6 2.4q4.3 2.1 7.9 5.2c4.3 4 6.6 3.8 12.2 3.6 6 0 8.5-2.8 12.2-7 2.5-2.9 5.9-3.5 9.5-3.7 6.4-.7 7.2-2.8 12.2 2.7q3.2 3.2 7 5.5c2.4 1 5.2 2 7.8 1.7 4.2-1.2 5.7-6.1 7.9-9.5 3.5-6.2 5.8-5.8 12.2-7q1.9-.6 3.5-1.7c1.5-1.2 3.1-3 5.2-2.6 3.3 1.2 4.6 6.1 6 9 1.9 3.8 3.5 8 6.2 11.2 4 4.5 7.8-.9 13 .9 4.4 1.4 8 4.5 12.3.8 9-8.4 8-11 21.7-14" class="b"/><path d="M8.5 182.6c5.4-4.3 6.9-4 13-1.3 4 2 8.4 3.6 12.2 5.9 1.7 1 3.4 2.3 5.2 2.9q4.8 1 9.6 0c3.6-.7 6.2-3.4 8.7-5.8q3.4-2.8 7.9-3 2.7-.4 5.2-1.7c2.1-1.1 4.7-2.4 7-1 3.5 2.3 6.4 5.6 9.6 8.4a20 20 0 0 0 7.8 4.6c5.6 2 7.9-6.8 10.5-10.3 2.2-4 5.6-3.8 9.5-4.4a11 11 0 0 0 4.4-2c1.3-1 2.7-2.3 4.3-3 4-1 6 4.7 7.9 7.4q2.7 4.6 6 8.8c3 3.6 7.1 4.5 11.4 5.3 4.6 1.3 8 0 11.3-3.4 3.2-3 5.7-7 9.6-9.3q6.7-3 14-3.8" class="b"/><path d="M8.5 181.3c1.8-1.5 3.7-3.3 6-3.8 4.2-.4 8 2.2 11.4 4.2q5.4 3 11.3 5.2c3.6.9 7.8.5 11.3-.6s6.2-4.3 9.6-5.9c2.8-1.2 6.2-.6 8.7-2.5 3.2-2.2 6.4-5.9 10.5-3.1 2.4 1.6 4.5 3.7 7 5.3 2.6 2 5.1 4.4 7.8 6.4 2 1.3 3.7 3.3 6 3.7 4.1-.1 6.2-8.9 8.8-11.7 2.4-3.3 7-2.3 10.4-3.8 5.1-2.8 7.3-6.6 12.2-.5q4.2 5.7 9.6 10c3.6 3 8.2 6.3 13 4.9 5.7-2 8.8-7.8 14-10.5 2.4-1.3 5.3-.5 7.9-1.2 3.1-1 6.2-2.4 9.5-2.8" class="b"/><path d="M8.5 180c2.5-2.5 5.7-5.4 9.5-4.6 5.1 1 8.6 5.3 13.1 7.5q3 1.4 6.1 2 6.5.3 12.2-2.7c5.3-3.1 6.6-4.6 13-5 5.2-.8 7.3-8.9 13.1-5 2.4 1.5 4.6 3.6 7 5 2.6 1.7 5.5 2.9 7.8 4.8q2.3 1.6 4.4 3.7c1.5 1.4 3 3.5 5.2 3.6 3-.9 4-4.6 5.3-7 2.5-5.5 3.9-8.6 10.4-9.9 3.3-.5 6.1-3.6 9.6-2.8 4.3 1.3 6.5 6 10.5 8 3.4 1.7 6.8 3.8 10.4 5 3.3 1.2 6.8.1 9.6-1.6 3.3-1.9 6.4-4.8 10.4-4.6q2.7.3 5.3 1.1c4.4.6 8-3.1 12.1-4.3" class="b"/><path d="M8.5 178.9c16.7-18.8 16.8 13.2 39.2 1 4.1-2.5 8-5 13-4.7 5.2.4 6.3-5.1 10.5-5.6 2 0 3.7 1.5 5.2 2.7q2.5 2.3 5.2 4.1 2.5 1.6 5.3 2.7 2.7 1 5.2 2.3c3 1.8 4.9 5 7.8 6.8 3.7 1.3 5.6-5.2 7-7.7 1.4-3 3-6.3 5.2-8.7q2.3-2.2 5.3-3 2-.7 4.3-1.2c4.7-.5 7.8 4 11.4 6.1q2.8 1.8 6 2.6 3 1 6.2 2c6.4 2 11.2-2.8 17.4-2.7 2.4 0 4.7 1 7 1.8 5.2 1.8 9.8-2.3 13.9-5" class="b"/><path d="M8.5 177.7c3.2-3.2 7-8 12.2-7.4 2.4.7 4.2 2.8 6 4.5 5.9 6 13 7.6 20 2.6 3.7-2.3 7.7-5 12.3-4.5 2 .2 4.3.8 6-.6 2-1.3 3.6-3.8 6.2-3.7 2 .3 3.7 2 5.2 3.3q2.9 2.6 6.1 4.8 2.9 1.6 6.1 2.7l3.5.8q1.9.9 3.5 2c1.7 1.5 3.2 3.5 5.2 4.7 3.5 1.7 5.5-3.3 7-5.7 1.7-3.3 3.2-7 5.2-10.1 2-2.8 5.2-5 8.7-4.7 4.1.4 7 4 10.4 5.8 2.5 1.3 5.3 1.9 7.9 2.8 2.5 1 5 2.3 7.8 2.3 4.7 0 9.2-2.5 14-1.6 2.6.4 5.2 1.4 7.8 1.6q4.6.3 8.7-1.6 3-1.6 5.2-4" class="b"/><path d="M8.5 176.3c3.4-3.2 6.8-6.7 11.3-8.4 2.5-.7 4.5 1.5 6 3.1 3.7 4.3 9 8.3 14.9 7.1 2.7-.6 4.8-2.5 7-4.1 3.2-2.3 7.2-4.6 11.3-3.7 1.7.4 3.4 1.5 5.2 1.4 2-.4 3.4-2.3 5.2-3.1 2.7-1.3 5.1.8 7 2.5q2.5 2.3 5.2 4.2 3.6 2.5 7.9 3.6c1.4.3 3 .2 4.3.7 2.8.9 4.8 3.2 7 4.9 6.1 4.9 9.8-6.6 12.2-10.6 2-3 4.8-6.6 8.7-6.5 3.3.3 5.8 2.9 8.7 4 2.8 1.3 5.9 1.7 8.7 2.5q2.7 1 5.3 2.4c3.9 1.7 8.1.2 12.1-.2s8.2 1 12.2.4l8.7-1.7c2.4-.6 4.5-2.2 6.1-3.9" class="b"/><path d="M8.5 174.6q4.2-3.5 8.7-6.5c1.3-1 2.7-2.2 4.3-2.4 3.4-.1 5.5 4.5 7.9 6.4 2.7 2.6 6.5 4.8 10.4 4.4 4.3-1 6.7-5.4 10.5-7.3 2.6-1.3 5.7-2.8 8.7-1.9 2.6.7 4.9 4.1 7.8 2.8 1.7-.7 3.3-2.1 5.2-2 3.2.2 5.4 3 7.9 4.7a27 27 0 0 0 9.6 5c1.3.3 3 .1 4.3.2 5.7.4 10.2 9.7 15.7 3.9 1.6-1.8 2.8-4.2 4.4-6q2.8-2.7 6-4.9c2.6-1.3 5.4.1 8 1 3.6 1.1 7.5.7 11.2 1.7 3 .8 5.6 3 8.7 3.2 3.5.3 7-.8 10.5-.9q4 0 7.8-.3c2.1-.2 4.2-1.1 6.1-1.9 4.9-1.3 7.3-.1 11.4-4.4" class="b"/><path d="m8.5 172.5 5.2-3.3q2.2-1.1 4.4-2.7c4.6-4.1 6-2.8 9.5 1.5a20 20 0 0 0 9.6 6.9c3.4 1 5.9-2 7.8-4.3 1.8-1.9 3.8-3.8 6.1-4.8 3.4-1.5 7.5-3.2 10.5-.1 1.4 1.2 2.7 2.9 4.4 3.7 1.7.7 3.5-.5 5.2-1 2.5-1 5 .4 7 1.8q3 2.2 6 4c8.4 4.9 8.8 0 15.7 4q2.5 1.7 5.3 2.9c4 1.4 6-1.8 8.7-4q1.7-.8 3.5-1.6 1.6-1.2 3.4-2.1c2.3-1 4.7 0 7 .1 2.3.2 4.7-.4 7-.5q2.7 0 5.2.6c1.7.5 3.5 1.5 5.2 2 4 1.3 8.2.2 12.2-.2 3.8-.3 7.9 0 11.3-1.8q2.3-1.2 4.4-2.3c4.4-1.3 6.7 0 10.5-4" class="b"/><path d="M8.5 170q4.3-2 8.7-4c2.1-1.2 4.3-4.2 7-3 2.6 1.8 4.4 4.8 7 6.9 2.3 2.2 6.3 4.8 9.5 2.6 3.2-2.5 5-6.7 8.7-8.7q3.4-1.6 7-2.5c3.7-1.3 5.8 1.6 7.8 4.3 2 2.5 3.6 4.2 7 3q2.5-.9 5.2 0c2.8 1 5.2 2.8 7.8 4.2 2.2 1.1 4.6 2.3 7 2.5q1.8 0 3.5-.4c2.7-.2 5.4.8 7.8 2 4.8 2.1 6 2 10.5-.7 1.6-.8 3.6-.7 5.2-1.4l3.5-1.4q2.2-.3 4.4-.1 3.9.1 7.8-.9 2.6-.3 5.2.1 2.7.8 5.3 1.7c4.2 1.4 8.7.9 13 .5 6.9-.4 9.2-1.1 14.8-5.3 4.4-2.4 7.2-.7 11.4-4.9" class="b"/><path d="M8.5 167.3c3-1.3 6.5-2 9.5-3.5 1.6-.9 3.3-2.3 5.3-2.1 1.7.3 3.1 1.9 4.3 3.1a44 44 0 0 0 4.4 4c6.5 4.8 9 .5 13-4.4 2.4-2.8 5.4-3.8 8.8-4.7 1.6-.5 3.4-1.4 5.2-1.4 3.5.4 5 4.6 7 7 2.6 3.8 4.6 3.2 8.7 2.9 6.5 0 11.6 6.3 18.3 5.6q4.3-1.1 8.7 0c2 .4 4 1.2 6 1.1 1.8 0 3.6-.9 5.3-1.3 2-.7 4.1-.3 6.1-.7q2.2-.8 4.3-1.1 3.1-.2 6.1-.5c5.5-.8 7.6-2.1 13.1.5a31 31 0 0 0 15.7 2.2 18 18 0 0 0 12.2-5.2q2.6-2.6 6-4a19 19 0 0 0 7-4" class="b"/><path d="M8.5 164.4q4.3-1 8.7-2.2c1.7-.5 3.4-1.5 5.2-1.7 2.4 0 4.3 2 6.1 3.4 2.6 2 6 4.7 9.6 3.2 4.3-2 6.4-7.2 11.3-8.4q2.7-.8 5.2-1.7c2-.7 4.1-1.9 6.1-.8 4.6 3 5.4 10.5 11.3 11.7 3.2.4 6.6.4 9.6 1.7 3.6 1.3 7.4 3.4 11.4 2.6q3-.9 6-1c2.6-.2 5.3.3 7.9.4 2 0 4-.6 6-1q3.7-.2 7 0l9.6-1.8q3-.7 6.1-1.3c2.8-.4 5.5.8 7.9 2.1a31 31 0 0 0 7 3 25 25 0 0 0 14.8-.3c3.3-1.5 5.4-4.7 7.8-7.3 3-3.3 7-5.8 10.5-8.5" class="b"/><path d="m8.5 161.6 8.7-1.4c2-.4 4-1.1 6-.8 4.6 1 8.2 5.7 13.1 4.5 4.4-1.2 7-5.8 11.4-7q3-1 6-2c2-.6 4-2 6.2-1.6 4.5 1.5 6.3 10 11.3 12.7 2.3 1.4 5.2 1.8 7.8 2.3s5.2 1.6 7.9 2q2.6.5 5.2-.2 3-1 6-1.5 4-.3 8-.3 3.8-.4 7.8-.6c3.4 0 7 .4 10.4-.4l7.9-1.8c3.3-1.1 6.3-2 9.5 0 2 1.2 4 2.8 6.1 4q6.2 3 13.1 3.2c6.5 0 9-3.2 12.2-8.3 2.8-4 6-9.6 10.5-11.8" class="b"/><path d="M8.5 159c4.6-.2 9.3-1 13.9-1 2.8.2 5.3 1.6 7.8 2.5a9 9 0 0 0 7.9-.9c2.3-1.3 4.5-3.2 7-4.3q3-1 6-1.7c3-.7 5.7-3 8.8-2.5 6.2 2.4 6.4 12.6 17.4 15 4 .7 8.1 2.2 12.2 1.3 2-.4 4-1.5 6-1.8 3.2-.4 6.5 0 9.6-.3q4.5-.4 8.8-.5c2.5 0 5.2.4 7.8.1q4-.3 7.8-1.5c4.6-1.2 8.7-4.1 13.1-.6a31 31 0 0 0 17.4 7.7c10.2 1.6 11.5-3 15.7-10.8 1.7-2.9 4.2-9.5 7.8-9.7" class="b"/><path d="M8.5 157c5.4-.3 11-1.3 16.5-.2 7 1.9 8.3 3.3 14.8-1.3q2.4-1.6 5.3-2.7c2.5-.7 5.3-1 7.8-2 2.2-.9 4.6-2.2 7-1.7 2.7.8 4.4 3.5 6 5.5 1.8 2.2 3.7 4.4 6.2 5.8q4 2 8.7 2c2 .2 4 .7 6 .5 3.6-.2 7-2 10.5-1q7 1.3 14 .3c3.1-.4 6.4 0 9.5 0a37 37 0 0 0 10.5-2.2c2.2-.8 4.5-2.1 7-2 2.7 0 4.9 2 7 3.7 4.6 3.8 10.8 4.1 16.5 5 5.4.9 9.3 1.9 12.2-4l4.3-9.2c1.1-1.8 2.6-5.5 5.3-4.4" class="b"/><path d="M8.5 155c6.6-.7 13.5-1.6 20 .5 3 1.2 5.9 1.6 8.7-.5 2.2-1.4 4.4-3.2 7-4q3-.7 6-1.5c4-1.2 8.5-3.9 12.3-.8 4.4 3.6 7.3 8.5 13.9 7.9 2.9-.3 5.8-.6 8.7.1 3.2.5 6.5.4 9.6 1 2.6.8 5 2.3 7.8 2.7 3.8.7 7.6-.5 11.4-.9 3.7-.4 7.6 0 11.3-.7q3.5-.7 7-2c2.4-1 5.1-2.3 7.8-1.4 2.2.7 4.1 2.4 6 3.6 4.6 2.5 10 1.4 14.9 2.2q2.7.3 5.2 1.1c2 .5 4.2 1.3 6.1.3 4.4-2.6 5.2-12.7 9.6-14.4.5 0 1.4.5 1.7.8" class="b"/><path d="M8.5 153c2.3-.3 4.6-1 7-1.1 5-.3 10 0 14.7 1.9 3.6 1.4 5.8 1 8.8-1.3q2-1.6 4.3-2.6c2.3-.8 4.8-1.2 7-2 5.2-2 9-3.7 14 0 4 3.1 6.8 4.8 12.1 3 2-.6 4-1.5 6.1-1 3.3.8 6.5 2.5 9.6 3.9 2.8.9 5.2 2.9 7.8 4.2 5 2.8 10.5-.2 15.7-1 3.7-.5 7.6-.4 11.3-1.3 3.3-.6 6.3-2.4 9.6-3 5-1 8.3 3.6 13 3.7 2.7 0 5.3-.4 8-.3q3.8 0 7.8 1.2 2.5.9 5.2 1.6c6.3.9 6.2-9 10.4-11.5h1c.4 0 1.3.7 1.6 1" class="b"/><path d="M8.5 150.8c2-.5 4-1.3 6-1.5q4.9-.4 9.6.2c3.4.5 6.5 2 9.6 3.2 2.9 1 5.4-1 7.9-2.3 1.9-1 4.1-1.4 6-2.4 4.6-2.2 9.6-5.7 14.9-3.8 4.3 1.5 6.5 3.7 11.3 1.8 3.6-1.4 6.7-4 10.4-1.4 3.8 2.2 6.8 5.4 10.5 7.7 2.2 1.8 4.3 3.9 7 5 5.7 2 10.9-2.8 16.5-3.3 3.8-.4 7.7-.7 11.3-1.8 3.2-1 6.2-2.8 9.6-2.2 2.4.3 4.7 1.6 7 2.3 2.8.8 5.8 0 8.7 0q4 .2 7.8 1.2c3 .5 5.8 1.6 8.7 2 2.5.4 4.2-1.8 5.3-3.7 1.3-2 2.1-5 4.3-6.1 1-.1 2 .6 2.6 1.2" class="b"/><path d="M8.5 148.2q2.5-.9 5.2-1.5 2.2-.3 4.4-.2c4 0 8.3.5 12.1 2 7.2 3.3 6.1 4.1 14 1.4 5.3-2.3 8.9-7.9 14.8-9 3-.6 5.9.4 8.7 1 4 .6 7.6-2.2 11.3-3.3 2.2-.5 4.5.7 6.1 2 2.3 1.8 4.2 4.2 6.1 6.2q2.1 2.2 4.4 4.1c2.2 2.2 4.6 4.7 7.8 5.3 4.8.7 8.7-3 13-4.3 5-1.4 10.1-1.4 14.9-3.1 3.5-1.4 6.7-2.3 10.4-1 1.7.5 3.5 1.3 5.3 1.5 2 .3 4 0 6 0q3.2.1 6.2 1 4.3 1.3 8.7 2.2c2.8.6 5.9.7 7.8-2 1.9-2 2.8-5.4 5.2-6.9 1-.1 2 .5 2.7 1" class="b"/><path d="M8.5 145.6q2.4-.8 5.2-1.4 3-.1 6 0c3.9.4 7.8.8 11.4 2.2 4.7 1.5 6.6 6 12.2 4.1 2.6-.8 4.3-3.2 6.1-5.1 2.5-2.8 5.2-6 8.7-7.5 4.2-2 8.7.6 13-.3q3.2-.6 6.2-1.6 3.2-1.3 6 .3c3.3 2 5.6 5.2 8 8.1q2.8 3.4 6 6.6c5.2 5.5 10 4 15.7.5 4.1-2.8 9.2-3.4 14-4.3 3.2-.5 6.3-2 9.5-2.5s6.5.7 9.6 1.5c2.3.5 4.7.4 7 .7 6.4.9 12.5 4.9 19.1 3.7 5.3-1 6.7-11.4 11.4-8.4" class="b"/><path d="M8.5 143.2q3-.8 6-1 3.6.1 7 .5c4.1.4 8.5.4 12.2 2.4 2.2 1.4 3.7 3.8 6.1 4.9 4 1.5 6.8-2.4 8.7-5.2 2.2-3 4.2-6.4 7-8.8 3-2.7 6-2.6 9.6-1.5a22 22 0 0 0 9.6.9c2.3-.4 4.5-1.9 7-1.6 5 1 7.4 6.3 10.4 10 7.2 8.2 10.2 12.5 20.9 5.7 4.1-2.7 9.1-3.7 14-4.7 3.4-.7 6.9-1.9 10.4-2.5 4.1-.6 8 1.4 12.2 1.8 6 .7 11.4 3.7 17.4 4.6 2.3.3 5 .2 7-1.2 1.7-1.3 3-3.3 4.3-5 1.2-1.6 3-3.7 5.2-2.7" class="b"/><path d="M8.5 141.3q3-.6 6-.7l7 .4c3.8.3 7.8 0 11.4 1.4 2.8 1.2 4.4 4.3 7 6 4 2.6 6.8-2.3 8.6-5.3 2-3.1 3.7-6.7 6.1-9.5 3.5-4 6.7-2.8 10.5-.2 2.8 1.6 6.2 3.4 9.6 2.5 2.4-.5 4.4-2.5 7-3 4.2-.4 6.6 4 8.6 7q2 3 4.4 5.7c6.1 7.3 10.7 6.2 18.3 2q3.7-2.3 7.8-3.2l8.7-2.1c4.9-.9 9.9-2.5 14.9-1.4q6.1 1.1 12.1 3c4.3 1.4 8.6 3.4 13.1 2.8 6.9-.3 8.5-10 14-9" class="b"/><path d="M8.5 139.8c2.8-.2 5.8-.7 8.7-.6q6.5-.1 13 .2c6 .6 6.8 5.8 11.4 7.9 2.9 1 4.8-2.1 6-4.2 1.9-3.1 3.5-6.8 5.3-10 4.5-7.5 7.3-4.8 12.2.4 2.3 2 5.4 4.5 8.7 3.9 3-.7 5.2-3.4 7.8-5 5.2-2.6 8 5.8 10.5 9 2.3 2.8 5 6 8.7 7 4.6 1 9-1.8 13-3.5a151.7 151.7 0 0 1 24.4-5.3q4.9-.9 9.6.2 5.3 1.2 10.5 3c3.9 1.3 8 2.6 12.2 1.4 5.3-1 7.5-9.3 13-8.5" class="b"/><path d="M8.5 138.7c3.4.2 7-.5 10.4-1q4.3-.7 8.7-.6c2.7 0 5.7.4 7.9 2.2 2.7 2.3 6.5 9 10.4 4.8 3.8-3.5 7.1-18.6 12.2-17.9 2.8 1 4.2 4.2 6.1 6.3 2.1 2.6 6 6.1 9.6 5.7 2.5-.5 4.4-2.5 6-4.3 1.3-1.2 2.6-2.9 4.4-3.2 3.8 0 6.2 7.7 8.7 10.2 2.1 2.2 4.8 4.3 7.9 4.8 5.2.6 9.9-2.5 14.8-3.7 3.1-.9 6.4-1.3 9.6-2a101 101 0 0 1 13-1.6c2.6-.2 5.3-.6 7.9-.2 5.6.6 11 2.6 16.5 4 13 2.8 13.5-9.8 21-8.3" class="b"/><path d="M8.5 138.6q4 .6 7.8-.8c1.7-.6 3.5-1.6 5.2-2.1q5.2-1.3 10.5-.4c4.3.7 6.3 5 9.6 7.2 7.6 5 9.5-17 15.6-18.4 2.7 0 3.9 3.3 5.3 5.1 1.2 1.9 2.6 4 4.3 5.4 5.2 4 8.7 4.7 13.1-.7 1.3-1.5 2.5-3.5 4.4-4.4 4.4-1.4 6 9.8 13 12.2 5.5 2 11.2-.8 16.6-1.9q10.8-2 21.7-2.8c3.5 0 7-.4 10.5 0 5.6.4 11 2 16.5 3.1 12.2 2 13.6-10.6 21-8.1" class="b"/><path d="M8.5 139q4 1.1 7.8-.9c5.4-3.6 6.9-5.7 14-5.3 5.7.1 7.4 3.9 11.3 7.1 3.8 3.1 6.2-1 7.8-4.2 2-4 3.4-8.7 6.1-12.3 2.7-3 4.7.5 6.1 2.8 1.3 2 2.6 4.5 4.4 6.3q3 2.6 7 4c4.5 1.2 7.2-3.5 9.5-6.6q3.1-4.4 6.1.2c4.9 7.9 8 9.7 17.4 7.9a117 117 0 0 1 11.3-1.6q4.4-.7 8.8-.9 4.8-.2 9.5-.4l5.3.3q3.9.2 7.8.6 5.2.2 10.5 1.3c4 1 7.5 1 11.3-1.1 4.4-2 7.4-9 13-6.5" class="b"/><path d="M8.5 138.8c2.5 1 5.5.6 7.8-.8 4.1-3 6.4-7.4 12.2-7.5 2.7-.1 5.6.2 7.8 1.8 2.9 1.9 5.7 7.3 9.6 6.1 4.8-2.8 6.3-11.5 9.6-16.1 2.5-3.5 4.5-1 6 1.7 1.4 2.2 2.7 4.7 4.4 6.6 1.2 1.3 3 2.2 4.4 3q2 1.2 4.4 1.5c3.7.2 5.9-3.7 7.8-6.3 1.2-1.8 3.1-4 5.2-2 1.6 1.5 2.9 3.6 4.4 5.2 2.9 3.1 7.4 3.2 11.3 2.4q6-1 12.2-1.3c2.3 0 4.7-.6 7-.7q3.4 0 7 .4 3 0 6 .2 2.2.3 4.4.7l5.2.5c4.3.8 8.8.1 13.1.8 5.6 1 8.2.7 13-2.5 4-2.8 6.5-8 12.3-5.4" class="b"/><path d="M8.5 137.4c3.2 1.1 7 .4 9.5-2 5-4.9 7.2-8 14.9-7 4.5.6 6.7 5.1 10.4 7.2 8 4.1 9.8-16 15.7-16.6 3 1.2 4.7 6.7 7 9.2 1.5 1.9 3.8 3.4 6 4.4 9.4 4.5 10.5-12.6 16.6-7.3 1.4 1.3 2.8 3.1 4.4 4.3 4.1 2.9 9.3 1 13.9.4 4.3-.8 8.8-.4 13-1.3 4-.7 7.7.6 11.4 1.5q2.6.4 5.2.9 3.4 1.2 7 1.4 3.9.4 7.8.4 4.8-.2 9.6.2c3.6.4 6.8-1.4 9.6-3.5 4.7-3 6.4-8.4 13-5.7" class="b"/><path d="M8.5 135.1c3.2.6 6.9.2 9.5-1.8 4.8-4.2 6.9-7.7 14-7.2 5 0 7.4 4.3 11.3 6.6 9 4.8 10.6-13.6 16.6-15 2.6.6 4.3 5.1 6 7.2 2.5 3 6.1 7 10.5 6 4.7-.9 7-9.9 11.3-8.3 2.5 1.2 4.2 3.9 7 4.7 3.1 1 6.5 0 9.6-.5q4.7-1.1 9.5-1.6c3 0 5.9-.9 8.8-.9 3.4.1 6.4 2.2 9.5 3.4q2.2.7 4.4 1.5l3.5 1.4c1.6.5 3.5.2 5.2 0l7 .3c4 0 8.3.5 12.2-1 1.8-.7 3.6-2.1 5.2-3.4q1.8-1.2 3.5-2.8c3.3-3.5 5.5-5 10.4-3.3" class="b"/><path d="M8.5 132.5c2.9 0 6-.2 8.7-1.5 1.8-1 3.5-2.6 5.2-3.8 3.5-3 8.7-3.7 13-2.5 2.3.8 4.2 2.6 6.2 3.9 2.4 1.6 5.9 2.8 8.7 1.3 4.5-3.1 5.6-9.4 9.6-13 2.1-1.6 4 1.3 5.2 2.8 2.8 3.5 7 10 12.2 8 2.5-1 4.2-3.4 6-5.3q3-3.2 6.2-.8c6 5 10.7 2.6 17.4 1q5.2-1.4 10.4-1.8c2.3-.4 4.7-.9 7-.3 2 .5 3.7 1.8 5.2 2.9q2.5 1.7 5.3 3c2.4 1.3 5 3.7 7.8 2.6q2.2-1 4.4-1.1c2-.1 4 .4 6 .6a17 17 0 0 0 14-3.9c2.2-2 4.8-3.6 7-5.7a8 8 0 0 1 9.6-2" class="b"/><path d="M8.5 129.7c12.2-.4 11.1-5 20-6.5 7.7-1.1 9.7 1.8 16.5 3.2 4 1.1 6.6 2.3 9.6-1.3 2.5-3 4-7 7-9.6 2-1.4 3.9.8 5.2 2.2 2.4 2.3 4.5 5.5 7.9 6.5 6.3 1.3 8.6-8.5 14.8-4.5 4.7 3.2 8.8 2 14 .4q7.1-2.5 14.7-3.3c4-.8 6.6-.7 9.6 2.3q3.2 3.1 7 5.6c1.3 1 2.7 2.2 4.3 2.8 4.2.8 4.6-4.4 11.3-2.9 5 1.3 9.7 1.1 14-2.2 1.7-1.2 3.5-2.9 5.2-4.2q1.8-1 3.5-2.4c3.1-2.8 6.3-4 10.4-2.2" class="b"/><path d="M8.5 127.1c3.1-.3 6.5-.2 9.5-1.2 3.2-1 6.3-2.7 9.6-3.2 4.3-.8 8.7.2 13 .1 2 0 4.2-.3 6.2.3 1.7.6 3.4 1.6 5.2 1.8 6 .3 7.6-8.7 12.2-11 4.7-1.3 8 6.1 13 5.8 3.7 0 6.8-3.5 10.5-2.4 6.5 2.7 8.4 2 14.8-.3q7.2-2.7 14.9-3.9c2.6-.4 5.6-1 7.8.9 1.9 1.5 3.5 3.6 5.2 5.3q2.1 2.1 4.4 4.1c7 7 6.7-2 13-3 2-.2 4.2.4 6.2.7q4 .6 7.8-1.3c2.5-1.2 4.7-3 7-4.5q2.2-1.2 4.3-2.4 4.8-3.8 10.5-1.5" class="b"/><path d="M8.5 124.6c4.3-.2 8.8.3 13-.7q3.9-1.2 7.9-1.9c2.6-.3 5.2 0 7.8-.2 2-.3 4-1.3 6.1-1.8 3.5-1 6.5 1.4 9.6 2.4 4.9 1.6 7.7-4 10.4-7 5-6 8.4-1.7 14-.2q3.4.6 7 .5 3 .2 6 .8 3.1.4 6.1-.5c3.3-1 6.4-2.5 9.6-3.5a98 98 0 0 1 14-3.3c3-.6 5.3 1.8 7 4 1.9 2.4 3.8 5.2 6 7.4 7 8.3 6.7 2.6 12.2-2.6 1.9-1.7 4.6-2 7-1.8 8.6 1.1 11-1.7 18.3-4.3 5.5-1.8 6.7-3.3 13-1.6" class="b"/><path d="M8.5 122c4.3.1 8.7 1 13 .8 2.7-.2 5.3-1.1 7.9-1.5 2.8-.5 5.9-.1 8.7-.9 1.8-.6 3.4-1.8 5.2-2.4 5.2-2.3 9.7 3.5 14.8 2.1 5.8-1.9 9-9.7 15.7-8.9 10.4 1.7 13.6 6.2 24.4 1 5.5-2.6 11.7-3.2 17.4-5.4 2.2-.7 4.8-1.7 7-.6 4 2.7 5.7 7.7 8.7 11.4 1.6 1.9 3 4.3 5.2 5.7 2.4 1 4-2 5.3-3.7q1.8-3 4.3-5.5c2.8-2.6 6.9-2.5 10.5-2.5 5.2 0 10.4-1.2 15.6-1l5.3-.6q3-.1 6 .3" class="b"/><path d="M8.5 119.6q4.8.4 9.5 1 2.2.6 4.4.7t4.3-.6l6.1-1.2q2.7-.2 5.3-.8c3.1-1.1 6-3.5 9.6-3 5.7.9 9.8 3.5 15.6.6 3.8-1.7 7.2-4.7 11.4-5.5 3.4-.6 7 .3 10.4 1 4.2 1.5 8.4-.7 12.2-2.3 3.3-1.5 7-1.9 10.4-2.5 4-.7 7.5-3.2 11.4-4.4 4.9-1.2 7.4 6.3 9.5 9.6 1.8 3 3.8 6.2 6.1 8.8 2.5 2.6 4.7.2 6.1-2 2-2.9 3.6-6.2 6.1-8.5 4-3.6 9.9-3.6 14.8-2.5 11.5 3 8.3 5.3 21.8 2.9" class="b"/><path d="M8.5 117.2q2.6.2 5.2.6l4.4.4c2 .4 4 1.3 6 1.1 3-.2 6-1.2 8.8-2 2.6-.4 5.3-.6 7.8-1.6 4.2-1.8 6.8-2 11.3-1.3q5.8.8 11.3-.4c5-1 9.8-3.1 14.9-4 4-.6 8.1-.8 12.1-1.5 2.4-.4 4.7-1.3 7-1.8 6.2-1.2 10.6 0 16.6-3.6 2.5-1.3 5.7-5 8.7-2.9 4 4.1 5.5 10.2 8.7 15 1.3 2 2.7 4.8 5.2 5.5 4.6.4 7.8-11.5 13-14.3 4.5-3 9.9-2 14 1 3 1.8 5.5 4.5 8.7 5.8 3.8 1.1 7.8-.3 11.4-1.6" class="b"/><path d="M8.5 115q2.6.1 5.2.4 2.2 0 4.4.3c2.2.3 4.5 1.4 7 1 3.5-.4 6.8-2.4 10.4-2.8 2.3-.2 4.7-.1 7-.7q4.6-1 9.5-.8c4.4 0 8.8-1 13-1.9 3-.5 6-.5 8.8-1.2 5.8-1.3 11.5-3.7 17.4-3.9 3.2.1 6.4-.4 9.6 0 6.2.5 11.2-.9 15.7-5.3 5.1-5.3 6.6-3.5 9.6 2.3 2 3.8 6.8 16.8 11.3 16.8 5-.7 7.6-10.6 12.2-13.6 8.5-6.4 14.5 3.9 21.8 7 3.8 1.5 8.4 1.1 12.1-.7" class="b"/><path d="M8.5 112.9q4.3.2 8.7.2c2 .1 4 1 6 .8 4-.4 7.5-3 11.4-3.7 2.6-.3 5.2.8 7.8.9q4.9-.1 9.6-.7c5.9-.5 11.5-3 17.4-3 4.2-.2 8.2-1.8 12.2-2.7A28 28 0 0 1 93 104c6.6.9 14.2 2.4 20-1.5 2.8-1.8 4.7-4.7 7-7 4.2-4.1 7.2 6.8 8.7 9.4q1.7 3.4 3.5 6.7c1.3 2.2 2.8 5 5.3 5.9 5.1 1.3 8.2-8.9 12.1-11.6 4.3-3.8 9.6-2.5 14 .3 2.3 1.3 4.5 3 7 4.1q3 1 6 1.5c2.3.4 4.9.5 7-.5" class="b"/><path d="M8.5 111h8.7c1.4 0 3 .4 4.3.2 3.5-.6 6.4-2.8 9.6-4a9 9 0 0 1 7-.4c1.7.6 3.4 1.6 5.2 2 3.5.4 7-.3 10.5-.9 3.8-.7 7.5-2 11.3-2.7 2.3-.4 4.7-.1 7-.4 4.9-.7 9.7-2.5 14.8-2.5 3.5 0 7 .9 10.4 1.3 4.6.4 9.5.5 14-1.1 4.3-1.6 6.6-5.9 9.5-9.1 4-4 6.5 5.4 7.9 7.9a72 72 0 0 0 3.5 6.8c1.5 2.7 3.2 6 6 7.5 5 1.8 7.6-6.2 10.5-8.9 3-3.5 7.7-5.6 12.2-3.8 2.8.9 5.2 2.7 7.8 4 2.2 1 4.7 1.1 7 1.9 2.5.6 5.3 1.6 7.8.7" class="b"/><path d="m8.5 108.9 6-.1q2.3.2 4.4 0c3-.3 5.4-2.2 7.9-3.6 4-2.3 7.8-4.1 12.2-1.5 4 2.5 5.6 3.3 10.4 2.7 5.4-.6 10.4-2.9 15.7-3.9 2.6-.4 5.2.2 7.8-.1 4-.6 8.1-1.5 12.2-1.6 3.8 0 7.6.8 11.3 1.1 5 0 10-.1 14.8-1.2 5-1.1 7.5-5.7 10.5-9.3 4-4.2 6.4 5.1 7.8 7.6 2.5 4.8 5.2 11 9.6 14.2 4.6 2.6 7.7-5.7 10.5-8.3 3-3.6 7.6-5.6 12.2-4 2.4.8 4.6 2.3 7 3.3 2.1.9 4.6.9 6.9 1.6 2.5.7 5.2 1.8 7.8 1.1" class="b"/><path d="M8.5 106.2q4.8.1 9.5-.6c2.9-.8 5.3-2.7 7.9-4.1 3.4-1.7 7.6-3.3 11.3-1.6 3.3 1.5 5.6 4.3 9.6 4.2 6.4.2 12.2-3.1 18.3-4.4 2.3-.5 4.6.1 7 .2 2.8-.1 5.8-.8 8.6-1 4.7-.4 9.4.4 14 .8q4.8-.2 9.6-.6c7.6-.5 11.8-.7 16.5-7.5 1.1-1.3 2.4-3.4 4.4-3.2 2.8 1.6 3.7 5.4 5.2 8 2.5 4.8 5.1 9.8 8.7 13.8 2.7 2.7 5 1.5 7-1.2 3.6-4.8 7.8-11.5 14.8-10.4 2.8.3 5.3 1.8 7.8 2.9 2.2 1 4.7 1 7 1.6 2.6.5 5.3 1.3 7.9.6" class="b"/><path d="M8.5 102.3q2.6-.2 5.2-.6c1.7-.2 3.6 0 5.2-.7 3.5-1.3 6.8-3.2 10.5-3.8a12 12 0 0 1 7.8.4c3.9 2 5.7 4.4 10.5 4.2 3.9 0 7.7-1.6 11.3-3 2.7-1.2 5.6-2.7 8.7-2.4 2.6.2 5.2.9 7.8.6q4-.5 7.9-.5 4.8.3 9.5.8c3.5.3 7-.4 10.5-.7 7-1 13.4-.1 18.3-6.3 5.2-6.6 6.6-2.8 9.6 2.8q2.4 4.6 5.2 9.1c1.3 2.1 2.7 4.5 4.4 6.3 3.2 3.6 5.8-.1 7.8-2.8 3.4-4.8 8.2-11 14.8-9.2 2.7.7 5.2 2.3 7.9 3 3.9 1 8.2 1.9 12.1.8" class="b"/><path d="M8.5 96.9q3 0 6 .2 3.1.6 6.2 0 4.3-1 8.7-1.6c2.6-.4 5.4-.6 7.8.5 4.4 2.2 6.9 4.4 12.2 3.4a39 39 0 0 0 10.5-4c3.6-2 6.3-3 10.4-1.9 4.3 1.1 8.7.5 13 .7 5 .3 10 1.3 14.9.5q6-1 12.2-2c3.8-.5 8-.4 11.3-2.7 4.4-3.2 6.4-8 10.4-.8q2.7 4.5 5.3 8.9c1.5 2.9 3 6.2 5.2 8.7 4 4.6 7.3-3 9.6-5.7 2.9-4.3 7.4-9 13-7.2 2.7.7 5.2 2.3 7.9 3q5.2 1.5 10.4 0" class="b"/><path d="M8.5 91.8q4.4 1 8.7 2.5 3 .6 6 .7c10 .1 9.3-2.3 19.2 2.2 3.1 1.1 6.6.5 9.6-.7 3.4-1.2 6.5-3.2 9.6-4.9q4-2.4 8.7-1.1 6 1.4 12.2 1.5 5.6.6 11.3.9c5.7 0 11-2.3 16.6-3.3q5.2-.9 10.4-.6c2.7 0 5-1.7 7-3.3 3.7-2.8 6 .8 7.8 3.7 2 3 3.7 6.5 5.3 9.7 1.3 2.4 2.5 5.7 5.2 7 5.7 1.2 8.8-16 18.3-15.3 2.4.2 4.7 1.4 7 2.4 3.7 1.8 8.1 2 12.1.8" class="b"/><path d="M8.5 88c6 1.9 11 6.4 17.4 7 3.2.6 6.4-.4 9.6-.3 2.6 0 5.2 1 7.8 1.4 7.2.7 13.2-4.3 19.2-7.5 4.2-2.6 8.6-.5 13 .3q7.8 1.5 15.7 2.1c8.6 1.1 16-5 24.4-5.2 3.8-.3 7.6 2.3 11.3 1 2.3-.7 4.4-2.8 7-2.5 5.4 2 7.7 12.7 11.3 17.2 6 7.8 9.5-9.7 16.6-12.3 4.4-1.8 8.8 1.6 13 2.6q4.5 1 8.7-.2" class="b"/><path d="M8.5 85.2c7 2.4 11.3 10.4 19.1 11 3.3.3 6.4-1.1 9.6-1.2 2-.2 4.1.2 6.1 0 2.7 0 5.4-1 7.8-2.1q4.1-2 7.9-4.4c2.1-1.3 4.4-2.8 7-3.2 3.5-.4 7 .9 10.4 1.6 4.6 1 9.3 2.2 14 2.7 5.9.8 9.6-1 14.7-3.6a24 24 0 0 1 13.1-3c2.4.4 4.7 1.5 7 2.4 3.7 1.4 6.1 0 9.6-1.2 2.9-1 4.8 2 6 4q2.2 4.2 4.4 8.3c7 11.8 10.2-7.6 18.3-8.8 3.9-.5 7.6 1.5 11.3 2.2q4.5 1 8.7-.2" class="b"/><path d="M8.5 83c2.5.9 4.4 3 6 5q3 3.3 6.2 6.3c4.5 3.6 8.7 3.6 13.9 1.7 3.1-1 6.4-1.4 9.6-2.2 5.8-2 11.1-5.3 16.5-8 5.1-3 9.5-2.3 14.8-.9q6.6 1.8 13.1 3.2c2.8.6 6 .9 8.7 0 5.2-1.8 9.5-5.6 14.8-7 6.1-2.1 11.2.6 16.6 3.2q4 1.7 7.8-.4c2.3-1.2 4 0 5.3 2l3.4 5.7c7.4 12.8 9.8-1.1 17.5-3.8 1.9-.6 4-.3 6 0l6.2 1q4.4.6 8.7-.7" class="b"/><path d="M8.5 81.4c3.8 2.4 5.6 7 8.7 10.3 3.2 3.7 8 6.2 13 5.3 3.6-.6 7-2.2 10.5-3.4 5.5-2 10.3-5.4 15.7-7.6 3.6-1.5 7.3-3.3 11.3-3.4 5.3 0 10.5 1.8 15.7 2.9 6.4 1.4 12.3 2.8 18.3-1 4.4-2.4 8.8-5.3 13.9-6.1q4.6-.4 8.7 1.2c3 1 5.8 3 8.7 4.3 1.7.7 3.7.2 5.3-.7 3.2-2 5.2 2.3 7 4.4 2 2.6 4.5 7.7 8.6 5.8q2.7-1.7 5.3-3.7 3.1-2 7-1.9 3.4.3 6.9.2 5.3.4 10.5-1" class="b"/><path d="M8.5 80.9c3.4 3.2 4.9 8.3 8.7 11.3 3.3 2.8 8 3.5 12.2 3.3 3.6-.3 7.1-1.8 10.4-3.3 3.7-1.7 7-4.2 10.5-6.2q4.9-2.7 10.4-3.6c9.7-2 15.2.7 24.4 1.7 10.5 1.7 16.8-2 26.1-6q2.6-1 5.3-1.5a25 25 0 0 1 7.8.6c2.8.8 5.4 2.4 7.8 4 1.8 1.1 4 2.6 6.1 1.6 3.6-1.8 4.5-.6 7 2 2.8 2.9 5.8 8 10.5 6 2-.8 4-2 6-2.4 2.6-.6 5.3-.3 7.9-.6 4.6-.8 9.4-.8 14-2.2" class="b"/><path d="M8.5 81.5c2.8 3.4 4.4 8.3 8.7 10.2 2.4 1 5.2 1 7.8 1.2 5.5.5 11-1 15.7-3.8 5-3.2 9.6-7.8 15.7-9 2.8-.5 5.8 0 8.7.1 4.7.2 9.3 1.3 14 1.7 2 .3 4 0 6 0q4.9.3 9.6-1 3-1.2 6.1-2c2.9-.5 6-.7 8.7-1.6q3-1 6.1-2 2.6-.6 5.2-.5c4.6-.3 8.7 2 12.2 4.7 7.8 5.8 6.1-2.3 13.1 4.4 5.8 5.6 6.9 6.2 14.8 4.2 2.9-.5 5.9-.4 8.7-1.1 4.6-1.4 9.3-2 14-3.1" class="b"/><path d="M8.5 82.7c4 5.3 5.7 8.2 13 7.5 2.6-.2 5.3 0 7.9-.2q7.3-1 13-5.5c14.3-12 15-8.6 31.4-4.3q3.5.8 7 .4 3.8-.7 7.8-.9 3.7-.3 7-2.2a15 15 0 0 1 7.8-2.6c3.2-.1 6.5 0 9.6-1 3.9-1.1 8.1-2 12.2-1.2 3 .6 5.5 2.6 7.8 4.4 1.8 1.3 3.8 2.8 6.1 2.8q1.8-.3 3.5.3l4.4 3.3c4.3 3.6 7.4 4.6 13 3.5q4.6-.4 8.7-1.6 7.3-2.5 14.9-3.6" class="b"/><path d="M8.5 83c6.6 6.7 9 4.4 17.4 4.3 5.3-.2 10.4-2.3 14.8-5.2 3.2-2.4 6.2-5.4 9.6-7.6 7.3-5 11.3-2 18.3 1.4 2.9 1.7 6 3.8 9.5 3.7 2.4 0 4.7-1.1 7-1.4 2.3-.4 4.8-.3 7-1q2.8-1.1 5.2-3c3-2.4 6.8-2.7 10.5-2.8 5.8 0 11.5-2.6 17.4-2 3 .6 5.5 2.6 7.8 4.5q2 1.6 4.4 2.8 1.7.8 3.5 1.4c1.8 1 3.4 2.7 5.2 3.8 6.6 4.8 11.7 4 19.2 2.2 6-1.7 11.8-4.6 18.2-4.7" class="b"/><path d="M8.5 82.3c4.4 2.7 7 3.2 12.2 2.7 6-.2 9.4-.8 14.8-3.7 7.2-3.3 11.8-10.5 19.1-13.6 5-2.3 9.1.5 13 3.3 2.5 1.8 4.5 4.4 7 6 4 2.6 6.7.6 10.5-.4 2-.5 4.1-.5 6.1-.9 6.2-1.3 7.4-6.2 14.8-6.7q5.8-.6 11.3-2.3 4.4-.8 8.8-.6c4.1.6 7.3 3.6 10.4 6.2q1.8 1.5 3.5 3 1.6 1.8 3.5 3.7c5.6 4.8 13.1 5 20 3 6.6-1.7 13-5.5 20-4.9" class="b"/><path d="M8.5 80.8c2.5.8 5.1 1.7 7.8 1.7q5.3.1 10.5-.8c4.4-1 8.4-3.7 12.1-6.2 6.2-4.3 11-10.8 18.3-13.3 4.3-1.4 8.4 1.3 11.3 4.1 3.4 3.4 6 10 11.4 10.4 2.4-.2 4.6-1.7 7-2 2.2-.5 4.7-.4 7-1.2 2.2-.9 4-2.7 6-4 3-2.2 7-2.4 10.5-3.2 2.9-.7 5.8-2 8.7-2.7 4.5-1.1 9.8-1.3 14 1.2 6.8 4 7.1 13.4 15.6 15.1 5.2 1.3 10.6.7 15.7-.9 6.1-2 12.4-5.6 19.1-4.1" class="b"/><path d="M8.5 78.7q3.3.8 7 1.1 5.2.2 10.4-.7 4.2-1 7.8-3.6c3-2 6-4 8.7-6.4 4.7-4 9-9 14.8-11.3 4.2-1.8 8.4-.1 11.4 3 3.6 4 5.8 9.7 10.4 13 2.8 1.7 5.9-.4 8.7-.8 2-.4 4.2-.4 6.1-1 3.9-1 6.6-4.6 10.5-5.7 2.8-1 5.9-1.3 8.7-2.3 5.7-2.3 12-5 18.3-3.3 7.9 2.3 8 13.6 15.6 16.2 5.4 1.7 11.3 1 16.6-.5 6.4-2 13.1-6.5 20-3.8" class="b"/><path d="M8.5 76.3a39 39 0 0 0 15.6.4c6.4-1.4 11.6-5.8 16.6-9.9 5-4.3 9.6-9.7 15.7-12.7 4.4-2.4 8.7-1.2 12.2 2.2 3 3.4 5.2 7.7 8.7 10.7 2.1 2.1 4.5 5 7.8 4.7q2.6-.4 5.2-.7c2-.2 4.3-.3 6.1-1.3 2.4-1.2 4.6-3 7-4.1 3.3-1.5 7-1.8 10.5-3.2 4.7-1.9 9.6-3.9 14.8-3.7 4.6-.1 7 3 9.6 6.4 2 2.7 4 5.8 7 7.8 6 3.6 13.6 2.2 20 0 5.7-2.1 12.2-6.2 18.2-2.9" class="b"/><path d="M8.5 73.6a30 30 0 0 0 21.7-2.3c4-2.7 7.7-6 11.3-9 4-3.5 7.8-7.3 12.2-10.2l2.6-1.4c2-.3 4.2 0 6.1-.1h1.8l1.7 1q3.7 2.3 6.1 5.9 2.1 3 5.3 5c2 1.2 4.3 2.4 6 4a10 10 0 0 0 7 2.6q2.7.2 5.3-.6c3.4-1.2 6.2-3.7 9.5-5 2.8-1.2 5.9-1.6 8.7-2.4 3.8-1.2 7.4-2.8 11.4-3.1 5.6-.6 8 1 12.2 4.4 5.5 4.5 11.3 11.2 19.1 9.8q7.7-1.5 14.8-4.7c3.8-1.7 8.5-3.3 12.2-.6" class="b"/><path d="M8.5 70.8q3.3.9 7 1.2c5 0 10.6-.7 14.7-4 6.7-5.4 13.2-11.2 20-16.4q2.6-1.8 5.3-3.1h5.2c2-.3 3.7 1.2 5.3 2.2q3.7 2.5 7 6 1.4 1.4 3.4 2.2c2 .5 4.3.8 6.1 2 3.7 1.8 6.9 5.5 11.3 5.3 4.6-.4 7.8-4.3 12.2-5.3 2.9-.7 6-.7 8.7-1.4 3.2-.9 6.3-2.1 9.6-2.2q3.1 0 6.1.8l4.4 1.8q2.7.8 5.2 1.7 5 2.8 9.6 6.4c3.8 2.8 7.2 1.4 11.3.3q3-.7 6.1-1.5 4-1.6 7.8-3.5c2.7-1.3 6-2 8.8-.4" class="b"/><path d="M8.5 68.3c3.1.4 6.3 1.2 9.5.9 4.8-.2 8.8-1.5 12.2-5q8.2-7.3 17.5-13.4c8.7-6 11-6.2 19.1.7q3 2.1 6.1 4.4c5 3 6.4-1.7 12.2 2.5 3.4 2.1 7.1 4.8 11.3 3.6 3-.7 5.7-2.2 8.7-2.7s5.9-.1 8.7-.7c5.2-1 8.4-3 14-1.3 1.4.4 2.9 1.2 4.3 1.5 4.1.9 7.3-1.6 11.4.8q3 1.5 5.2 4c1.4 1.4 3.1 3 5.2 3.3 2.7.2 5.2-1.4 7.8-1.7s5.5-.2 7.9-1.4c4.5-2 8.7-6.5 14-5.2" class="b"/><path d="M8.5 66.4q3 .1 6 .4 4.1.2 7.9-1c3-1.2 5.4-3.8 7.8-5.9q6.2-5 13.1-9.2c3.4-1.8 6.8-3.8 10.5-5.1C58 44 61.9 47.4 65 50c1.9 1.5 4.2 2.7 6 4.2 6 4.5 8.1-3.4 14 1 8 5.7 10.5 3.8 19.2 2.7 3.2-.3 6.4.3 9.6-.2 2.9-.3 5.7-1.7 8.7-1.7q2.7.1 5.2 1.1c1.6.8 3.5 1.4 5.2 1 2.8-.5 5-2.6 7.9-2.7 6.7 0 8 7.1 13 8.6 1.8.4 3.6-.5 5.3-.9 2.2-.7 4.7-.2 7 .1 6.4.3 9.8-8.2 17.4-8.4" class="b"/><path d="M8.5 64.5c2.3 0 4.6.3 7 .1 6-.5 9.9-6.1 14.7-9.2q4.8-2.9 9.6-5.4 4.2-2.2 8.7-3.7c2.8-1 5.8-2.4 8.7-1.6 4.2 1.2 7.4 4.6 11.4 6.2 2 1 3.8 2.7 6 2.7 2.6 0 4.6-2.1 7-2.2 2.4 0 4.2 2 6.1 3.1q3.7 2 7.9 2.2c3.1 0 6.4-.5 9.5-.3 4.1.4 8.2 1 12.2-.2q5-1.6 9.6.4 2.1 1.2 4.4 1c2.3-.5 4.2-2.3 6-3.5 3-2.1 6.8-2.4 9.7 0 2.9 2.2 4.6 6.9 8.7 7 1.4 0 3-.5 4.3-.4 2.7-.1 5.2 2.2 7.9 1.4 6.3-2.7 7.4-8.5 15.7-10.1" class="b"/><path d="M8.5 61.6c4 .6 7.2-.7 10.4-3 3.4-2.3 6.7-5 10.5-6.7q3.4-1.4 7-2.7 3.3-1.5 6.9-2.7l7-1.6c2-.3 4-.8 6-.5 4.3.7 8 3.2 12.3 3.9 1.7.4 3.4 1.4 5.2 1.8q2.2.3 4.3-.4c3.6-1.3 6 .3 8.8 2.4 4.3 2.8 9.8 2.4 14.8 2.7 4 0 8 1.4 12.1 1.1 7.2-1 6.8-1.8 14 .8 3 .6 5.6-1.7 7.8-3.4a17 17 0 0 1 6.1-3.4c6.3-1.5 8.2 3.3 12.2 6.6 2 1.4 4.8 1.2 7 2.3 4 2.2 6 2.6 9.6-.6 4.9-4.4 6-6.7 13-8" class="b"/><path d="M8.5 56.3c3.1.8 6-.6 8.7-2.2a51 51 0 0 1 13-5.5q3.1-.4 6.1-1.3l6.1-2q2.6-.4 5.3-.6c4-.4 8.2-.6 12.2.3q3 .6 6 .5c1.5 0 3-.4 4.4-.3 1.8.1 3.5 1 5.2 1.3q2.6.3 5.3.8c2.5.7 4.6 2.6 7 3.6q5.5 1.8 11.3 2c3.8.3 7.5 1.2 11.3 1.7q3.9.3 7.8-.3a14 14 0 0 1 5.3.6q2.5 1.1 5.2.4c3-1 5.3-3.2 7.8-4.8q3.3-1.8 7-2.7c2-.4 4.2-1 6.1-.2 2.9 1.5 5 4.4 7.8 6.2 2 1.3 3.8 3.3 6.1 4.1 2.3.9 4.5-.8 6.1-2.2l4.4-3.8c2.6-2.2 6.3-2.5 9.6-2.8" class="b"/><path d="M8.5 50.8c2.6.8 5.4-.2 7.8-1.3q3.4-1.2 7-1.9c3.7-.8 7.5-.8 11.3-1.2 3.2-.5 6.3-2 9.6-2.2q5.2-.2 10.4.4 3.5.1 7-.2 3.2-.5 6-2c3.9-2.1 6.3-.5 9.7 1.5 2.9 1.6 5.7 3.5 8.7 4.9q2.2.8 4.3 1 4.9.9 9.6 1.5 5.3 1 10.5 2 3.8.2 7.8.2c2.9 0 5.9 1 8.7-.1 3.4-1.2 6.3-3.6 9.6-5q2.5-1 5.2-1.3 2.3-.6 4.4-1.6c1.3-.8 2.8-2 4.3-2 5.7.7 8.2 11.3 14 11.5 1.6-.2 3.1-1.4 4.3-2.4q2.5-2.1 5.3-3.7c3-1.4 6.4-.7 9.5-.6" class="b"/><path d="M8.5 46.2c2.6.6 5.2 0 7.8-.5q4.8-.6 9.6-.5c3.2-.1 6.4.5 9.6 0s6.3-1.9 9.5-1.6c3.2 0 6.4.9 9.6 1q4.6-.1 8.7-2.4c3.2-1.6 6.8-6.1 10.5-3.3 3.3 2.4 5.8 6 9.6 7.7q2.8 1.3 6 1.4l6.2 1c7.8 1.1 15.5 4.2 23.5 3.3 3.3-.6 6.5-2 9.6-3.1 2.5-1 5.1-2.3 7.8-3q2.6-.3 5.2-.4c1.9-.2 4-.8 5.3-2.2 1.7-2 4.4-5 7-2.4 3 2.7 5.6 10.8 10.4 10 2-.6 3.5-2.2 5.2-3.3 5-3.4 8.7-1.2 14-.4" class="b"/><path d="M8.5 42.8c3.7.5 7.5 0 11.3.2 4.6.2 9.3 1 14 1.3 2.6.1 5.2-.7 7.8-1q4-.5 7.8.5c4.7 1.2 7.2.7 11.3-2q2.7-1.7 5.3-4c1.2-1 2.7-2.2 4.3-2.3 3.8 0 6.6 6.2 9.6 8.3 2.6 2.2 5.5 2.3 8.7 2.5q4.4.5 8.7 1.5l9.6 2.4c3 .7 6.6 1.7 9.6.3q2.2-1.4 4.3-2.6 2.9-1.5 6.1-2.1l6.1-1q3-.5 6.1-.4c3.1.2 6.5.4 8.7-2.3 1-1 2.1-2.5 3.5-3 4.7-.8 6.5 8 11.3 8.4 2.3 0 4.2-1.7 6.1-2.8 5-3 10 .9 14.8 1.9" class="b"/><path d="M8.5 40.1c4 .5 8.1.4 12.2 1 4.6.5 9.2 1.5 13.9 2 2.6.2 5.2-.4 7.8-.5q3.6 0 7 1c4 1 6.4.1 9.6-2.4q3-2.6 6-5.4c2.7-2.4 5.3-3 8 0 3 3.2 5.5 8 10.4 8.5q3.5.2 7 .9c6.5.7 12.6 3.4 19.1 4.4 3.5.5 5.6-2.6 7.8-4.6 5.8-5.5 13.1-2 20-2 3.5.1 7.3 1.9 10.5 0 1.2-.8 2.2-2 3.5-2.6 3.4-1.2 5.8 2.5 8.7 3.5s5.5-1 7.8-2.2c3-1.6 6-1 8.8.7a34 34 0 0 0 7 3" class="b"/><path d="M8.5 37.9a281 281 0 0 1 27.8 4c3.2.3 6.5-.2 9.6.8 4.5 1.2 7.8 1.6 11.3-1.9 2.8-2.3 5-5.2 7.9-7.4 3.1-2.3 5.8 0 7.8 2.5 2.7 3.2 5.9 7 10.5 6.9q4.4.5 8.7 1.7c4 .7 8 2.2 12.2 3 4 1 6.2.6 8.7-3 1.5-1.8 3-4 5.2-5.3 3.5-2 7.8-1.3 11.3.3q2.6 1.3 5.3 2.2l5.2 1.4c2.8.8 5.8 2.3 8.7 1.3 1.1-.6 2.3-1.7 3.5-2.2 3-1.3 6.5 0 9.5-1.2 3.2-1 6.2-3.4 9.6-3 2.3.3 4.2 2 6.1 3.1q2.9 1.8 6.1 2.9" class="b"/><path d="M8.5 35.9q4.8.6 9.5 1.4a83 83 0 0 1 19.2 3.2q2.6.6 5.2 1c2.6.6 5.2 1.8 7.9 1.6 4.6-.2 8.1-6 11.3-9 2.2-2.5 5-4.1 7.8-1.6 3.4 2.7 6 7 10.5 8.2q3.5.6 7 1.8 4.3 1.5 8.7 2.3c3.6 1 7.5 2.2 11.3 1.4 2-.4 3.3-2.2 4.3-3.8q1.9-3.2 4.4-5.7c2.8-2.3 7-2.6 10.4-1.4 3 1.1 5.3 3.6 7.9 5.4 3.2 2.1 7 3.4 10.4 4.9 4 1.5 5 .6 7.9-2.2q3.1-2.7 7-4.6c5.7-2.6 10.9-6 16.5-.9 2.3 2 4.9 3.8 7.8 4.5" class="b"/><path d="M8.5 34.2q3.9.6 7.8 1.4a90 90 0 0 1 27.9 5.9c4 1.6 7.5 1.4 10.4-2q2.7-3 5.3-6.1c1.1-1.4 2.5-3 4.3-3.5 2.9-.7 5 2 7 3.8 5.3 5.4 6 4.2 12.2 6.7 3.6 1.7 7.1 4.2 11.3 4.4 4.6 1.2 10.6 1.7 14-2.4 2-2.8 3.5-6.3 6-8.7 2.4-2 5.8-2 8.7-1.8 4.3.7 6.9 4.8 9.6 7.7a24 24 0 0 0 13 7.1c3 .7 4.6-2.5 6.2-4.4a26 26 0 0 1 8.7-8.1c13.6-6 13.2 4 22.7 6.5" class="b"/><path d="M8.5 32.6q3.4.8 7 1.5 7 .5 13.9 1.7c4 .5 7.5 2.3 11.3 3.5 2 .7 4 1.8 6 2 7.4.7 10.4-9.4 15.8-12.7 3.8-2 8.1 4.6 11.3 6.4q2.4 1.6 5.2 2.3 2.3 1 4.4 2.2c2.5 1.7 5 3.8 7.8 5q2.1.6 4.4.8 3 .6 6-.4c8.4-2.4 8.1-10.4 14-14.9q2.1-.9 4.4-.7c1.7 0 3.7.2 5.2 1.1 7.6 5.5 8.2 15.5 20 15.2 3.1 0 4.7-3.2 6.1-5.4 2.2-3.4 4.3-7.3 7.9-9.3 3.4-1.6 7.6-2 11.3-.8 5 2 7.7 7.8 13 9" class="b"/><path d="M8.5 31.2c7.1 1.7 14.5 2.3 21.7 3.6 3.7.5 7 2.4 10.5 3.3 2.2.8 4.6 1.7 7 1.2 4.1-1 7-4.8 9.5-8 2-2.2 4.5-6.2 7.9-4.3 4.2 2.4 7.4 6.6 12.2 7.8 5.4 1.7 8.7 7.1 14 9.2q2.9.9 6 1c4.3.3 8-2.7 10.5-6 2.4-3.3 4-7.6 7-10.6q2.2-2 5.2-1.2 4.2.6 7 3.9c5.1 5.7 8.6 15.8 18.2 11.8 2.6-1.1 3.9-4 5.3-6.4 3.3-5.6 5.5-10.4 13-10 3 0 6.2.2 8.7 1.9 2 1.4 3.6 3.5 5.3 5.2 1.7 1.6 3.8 3.2 6 4" class="b"/><path d="M8.5 30q3.4.7 7 1.6l6 .8Q26.8 33 32 34c2 .5 4 1.6 6 2.2 2.3.4 4.7 1.3 7 1q2.4-.2 4.4-1.6 2.9-1.6 5.2-4c2.5-2 4.5-6.2 7.9-6.7 2.3 0 4.2 1.7 6 2.9q3.8 2.6 8 4.4c4.6 1.4 7.5 5.6 11.2 8.4q2.1 1.6 4.4 2.7 2.5.8 5.2.9c5.2 0 8.6-4.9 11.4-8.7 2.3-3.3 4-7.9 7.8-9.8 2-.6 4.3.5 6 1.4 7.4 3.8 12 19.2 21.9 12.4 5-3.9 6-12.3 12.2-14.9 2.5-.7 5.2.1 7.8.1 2.3 0 4.8-.3 7 .6 2.2 1 3.7 3.2 5.2 5q2.8 3.8 7 6" class="b"/><path d="M8.5 28.7c3.2.6 6.3 2.2 9.5 2.5 5.2.6 10.7.1 15.7 1.9q2.2 1 4.4 1.6c3 .6 6.1.5 8.7-1.3q3.6-1.8 7-4c2-1.5 4-3.6 6-5 2.3-1.7 4.7-1 7 0a38 38 0 0 1 7 3.2c2.9 1.8 6.3 3.2 8.7 5.6 3 3 6 6.2 9.6 8.3 4.6 1.7 7.9 1.3 11.3-2.4a66 66 0 0 0 7-8.6c2.6-3.7 5.5-8 10.4-4.8 7 3 13.6 16.7 21.8 10.2 4.8-3.3 6.9-13 13-13.6 2.7 0 5.2 1.4 8 1.4 2.5.1 5.1-1 7.8-.6 5 1 6 8.7 12.1 11.5" class="b"/><path d="M8.5 27.2c2.7.2 5.3 1.4 7.8 2.4q2.5.9 5.2.8c3.5 0 7-.3 10.5.6 2.3.5 4.5 2.1 7 2.2 2.5 0 4.9-1.4 7-2.9q2.4-1.6 5.2-2.7 4.4-1.7 8.7-3.9c3.6-2 8.2-3 12.2-1.3 5 2.4 9.1 6.4 13 10.2 2.3 2.1 4.3 4.9 7 6.6 2.7 1.4 6.2 1.6 8.7-.5 3.3-2.6 5.9-6 8.7-9.1 3-3.5 6.7-7.4 11.3-4 5.7 3.1 12.1 11.6 19.2 7.5 5-2.7 8.9-13.8 14.8-12.5 4.7 1.6 6.8 4.3 12.2 2.2 2.2-.7 4.7-1.9 7-.8 4 2.8 5.2 8.4 9.5 10.9" class="b"/><path d="M8.5 25c4.4-.2 7.9 3.1 12.2 3.6 3.1.3 6.4-.5 9.5 0 2.5.3 4.7 1.6 7 2.4 4 .9 7-3.6 10.4-5.2 3.7-2.2 8.3-1 12.2-2.4 4.1-1.3 7-5.4 11.4-6 5.7-.2 10.8 8.3 14.8 12 3 3.7 6.5 9.6 12.2 8 3.2-1 5.4-4 7.8-6.4 4-4 8.9-9 14.8-5.4 5 2.9 9.5 7.2 15.7 5.5 6-1.5 11-14.8 17.4-11.9 3.6 2 6.8 5.9 11.3 4.1 2.4-.8 4.5-2.5 7-3.1 5-1 7.2 8.1 11.3 10.7" class="b"/><path d="M8.5 22.3c6-.6 8.6 3.1 13.9 3.9 3.8.1 7.8-.8 11.3 1 1.6.8 3.4 2.1 5.2 1.7 1.7-.6 3.1-2 4.4-3.2 2-1.7 4.3-3.3 7-3.5 3.2-.4 6.4 1 9.6.4 5.3-1 8-6.4 13-8.1 3.5-1.3 6.7 1.2 8.7 3.8q3 3.6 5.3 7.4C89.5 29.4 92 35 97.3 35c6.5-.8 10.3-12 20-10.2 5.4.9 10 5.4 15.7 4.5 5.9-.6 7.7-5 11.4-8.6 1.9-1.7 4.1-4 7-3.7 4.4 1.4 6.8 7.8 12.1 6.8 3-.6 5.2-3 7.9-4.4 5.6-3 8.4 6.3 12.1 9.1" class="b"/><path d="M8.5 19.6c2.9 0 6 0 8.7 1.2q3 1.7 6 2.3c3.2.4 6.7-.6 9.7.9 1.7.8 3.2 2.3 5.2 2.6 1.8 0 3-1.7 4.3-2.8 2-1.8 4.3-3.6 7-3.8 3.2-.3 6.4.8 9.6.7 6.4.2 10.8-5.2 16.5-7.2 5.8-2.3 8.9 2.7 11.4 7 3 4.3 6.2 14.4 13 11.5 4.1-2.3 7.2-7 12.2-7.2 3.6-.3 7 1 10.5 1.9 3.6 1 7.5 2 11.3.9a11 11 0 0 0 6-4c3-3.4 7-11.1 12.3-7.5 3.7 2.7 6.7 9.5 12.2 7 2.5-1 4.5-3.3 7-4.7 5.2-3.2 8.6 4.8 12.1 7.5" class="b"/><path d="M8.5 17.1c2.8.3 5.8.2 8.7.8 2 .6 4 1.8 6 2.1 1.8.3 3.6 0 5.3 0 3.1-.1 5.4 1.6 7.8 3.3q1.7 1 3.5.3c1.5-1.1 2.8-2.7 4.4-3.7q2.7-2 6-2c3 0 6 .3 8.8 0q5.7-.5 11.3-2.2 4-.7 7.8-1.8 1.8-.6 3.5-.9c2.8 0 4.7 2.6 6.1 4.6 4.3 5.5 7 17.8 15.7 10.2 4.5-3.6 7.6-4.2 13-2.3q4 1 8 1.4c3.7.7 7.7.4 11.2-1.1C141 23.5 142.3 17 147 14c3.7-2.6 6.5 2.7 8.7 5 2 2.7 5.2 5.5 8.7 3.4 2.2-1.3 4-3.3 6-4.7 5.2-3.8 9.3 3.3 13.1 5.8" class="b"/><path d="M8.5 14.5q4.3 1 8.7 1.4c2 .4 4 1.5 6 1.6 5.4.2 7.5-1.6 12.3 2.4 1.6 1.3 3.5 2 5.2.4 6-5.7 8.5-3.7 15.7-4.8q6.8-1.5 14-2c2.2 0 4.6.6 6.9.8 3.2.3 6.5-1.5 9.6-.3C92 16.8 93 27.3 99 27.9c2.6-.2 4.7-2.3 7-3.3 4-2.1 8.2 0 12.2.8 6.4 1 13.4 1.5 19.2-2.1 4.3-3 5.6-9 10.4-11.3 3.6-1.4 6.4 5.3 8.7 7.4 2.1 2.5 4.9 3.9 7.9 1.8 2.1-1.5 3.9-3.6 6-5 2.3-1.5 5.1-.2 7 1.2s4 3.1 6.1 4.3" class="b"/><path d="M8.5 11.6c2.4.4 4.6 1.9 7 2.7 2.7.8 5.6 2.1 8.6 1.5 2.6-.5 5.3-1.7 7.9-.8 2.9.8 5.6 5.4 8.7 2.7 5.4-4.2 8-3 14-4 5.6-1.4 11.5-3.5 17.3-2.5 3.4.6 6.3 2.9 9.6 3.5q1.9.2 3.5-.6c1-.5 2.3-1.2 3.5-.8 3.2 1.4 4.3 5.4 6 8.1 3.2 5.2 5.6 4.7 10.5 2.2 3.7-1.7 7.7-.7 11.4.2q4.7.7 9.5.8 5-.4 9.6-2.2c5.4-2.2 7-9 12.2-11.3 3.6-1 5.8 4.4 7.8 6.6 2 2.6 4.7 4.8 7.9 2.6 2.2-1.4 3.9-3.6 6-5 2.3-1.6 5-.3 7 1 2.3 1.4 4.6 3 7 4" class="b"/><path d="M8.5 8.6c2.3.6 4.2 2.5 6 4 4.7 3.2 7.3 3.7 12.3.9 2-1.2 4.8-1.5 7-.2 6.3 4.6 5 2 11.2 0 2.9-.7 6-.5 8.8-1.2 4.3-1.2 8.5-3 13-3.3 4-.7 8.3.6 11.3 3.4 1.6 1.3 3.2 3 5.3 3.4 3 .3 4.7-4.5 7.8-2.6 3.7 3.2 5 11.6 11.3 10 2.6-.8 5.2-1.8 7.9-1.8 7.2 0 14.7 2.3 21.8 0q5-1.5 8.7-5c2.2-2.3 4.4-5.4 7.8-5.7 2.9.3 4.5 3.4 6.1 5.4 1.8 2.6 4.5 5.7 7.8 3.5 2.3-1.5 4-3.8 6.1-5.3 2.6-1.8 5.6.2 7.9 1.6 2.1 1.3 4.5 2.7 7 3.3" class="b"/></svg>