<svg xmlns="http://www.w3.org/2000/svg" id="a" width="1920" height="2400" viewBox="0 0 192 240"><defs><style>.b{fill:none;stroke:#fff;stroke-miterlimit:10;stroke-width:.3px}</style></defs><path d="M0 0h192v240H0z" style="stroke-width:0"/><path d="M9 225.4c5.2.6 10.5.7 15.6 1.7 4 .7 8 2.5 12.1 1.8 3.6.1 6.7 3 10.4 2.5 4.6-.6 6.5-5.6 9.5-8.4q3.2-3.6 7.8-2.1l8.7 2.8c2.6 1 5 2.5 7.8 3 3 .7 6.3-.3 9.5 0 5.8.8 9 4.4 15.6 2.3a54 54 0 0 0 10.4-4.7c3.8-2.4 8.3-4.5 13-3.2 2.8.7 5.6 1.9 8.6 1.7 4 0 7.7-2.3 11.2-4 2.2-1.1 4.5-2.4 7-2.2 2.1.3 4.1 1.4 6 2.4 3.4 2 7.6 2.3 11.3 1.1 3.3-1.1 6.5-3.5 9.5 0" class="b"/><path d="M9 224.5c4.3.5 8.7.7 13 1.4 3.8.5 7.5 1.8 11.3 2.3 1.7.2 3.5-.3 5.1 0 3 .5 5.7 2 8.7 1.9 4.2-.5 6.9-4.3 9.5-7.2 2-2.2 4.7-4.2 7.8-3.2q2.2.6 4.3 1.4l4.4 1c2.5.5 5.1 1.5 7.8 1.8 3 .3 6.3-.5 9.5 0 2.6.2 5.2 1.5 7.8 2 5.4 1.3 10.7-1.5 15.5-3.7 4.8-2.4 9.3-6 14.8-3.1 2.5 1.2 5 2.8 7.7 3.2 3.3.5 6.6-.3 9.6-1.4q4.1-1.2 7.8-3.7c4.8-3.5 7.5-1.2 12 1q3.4 1.5 7 .8c4-1.1 6.8-4.3 10.4.1" class="b"/><path d="M9 223.3q7 .8 13.9 2c3.7.5 7.4 1.6 11.2 1.8 1.7.1 3.5-.5 5.2-.1 2.9.4 5.7 1.8 8.7 1.6 4.3-.7 7.2-4.6 10.3-7.3 2.2-2.1 4.9-3.3 7.8-2.2q2.2.8 4.4 1.2 2.5.3 5.2.5 5.2.8 10.3.3 3-.1 6.1.4c2 .3 4 1 6 1.2 4.2.4 8.3-1.2 12.2-2.4q4-1.6 7.8-3.5c2.8-1.5 6-1.5 8.6.1q2.7 1.7 5.2 3.2c4.2 2.5 9.4 1.6 13.9.6q3.2-.5 6-2.1c1.8-1.1 3.4-2.7 5.2-3.8 4-2.4 7.6 1.4 11.3 2.5 6.8 2.3 9.3-5.6 14.7 1" class="b"/><path d="M9 221.8c7.6 1 15 2.8 22.5 3.7l3.5.2q1.6-.3 3.4-.4c2.7 0 5.3.9 7.8 1.6 3.2.8 6.3-.9 8.7-2.9 4.6-3.7 7.4-8.2 13.8-5.2 2.5 1 5.2.4 7.8.3q4.4 0 8.7-.4c4.6-.5 9.2 1 13.8.5 3.8-.5 7.5-1.6 11.3-2.4q3.9-1.2 7.8-2.6c7-2.4 11.2 6 18.1 6.3q4.4 0 8.7-.6 3.2-.3 6-1.4c3-1.3 5-4 7.8-5.5 3.8-1.7 7 1.9 10.4 2.9 6.2 1.8 8.5-5.1 13.9 1.7" class="b"/><path d="M9 220c7.3 1.2 14.3 3.3 21.7 3.7q2.6.3 5.2 0 3-.7 6-.1c2 .3 4 1.5 6 2 4.2.6 7.5-2.7 10.5-5 2.3-2.1 5.4-4.4 8.6-3.2a11 11 0 0 0 5.2 1c2.3-.4 4.6-1.1 7-1.3q4.2-.4 8.6-.5c2.5 0 5.2.3 7.8 0 4-.4 8-2.2 12-2.4 3.9-.4 7.5-1.9 11.3-1.8 6.3.3 9.5 6.6 17.3 6.5q4 0 7.8-.4c2.3-.3 4.8-.4 7-1.3 2.8-1.3 5-3.8 7.7-5.3 3.8-2.2 7 .9 10.4 2.2 6.4 2.3 8.2-4.1 13.9 2.8" class="b"/><path d="M9 218.2c7.1 1.6 14.3 3.3 21.7 3.5q2.6 0 5.2-.2 3.4-.7 6.9 0c1.7.6 3.4 1.7 5.2 2.3 2.7 1 5.6-.5 7.8-2.1 3-2.2 6.2-5.9 10.3-5.1 1.7.4 3.5 1.1 5.2.8 2.4-.3 4.6-1.4 7-1.8q5.2-.9 10.3-.7 3.5.2 7-.4c2.3-.6 4.6-1.7 6.9-2.3 2.2-.6 4.6-.5 6.9-.7q4.8-.8 9.5.1c2.5.6 4.7 2.2 7 3.3q5.2 2.7 11.2 2.2l7-.6q3.5 0 6.8-1.1c2.8-1.1 5.2-3.4 7.8-4.8 3.4-2 6.4-.5 9.5 1.3 7 3.7 8.6-2.8 14.7 4.5" class="b"/><path d="M9 216a62 62 0 0 0 16.5 2.9c3.7.2 7.5.6 11.2.3q3.6-.6 7 .7c1.9.9 3.8 2.3 6 2.5 5.1.2 8.3-5 13-6.3 2.3-.8 4.6.4 6.9.4 1.8 0 3.5-.8 5.2-1.4q3-.9 6-1.3 4.3-.6 8.7-.3 4.6.6 8.6-1.5 2.6-1.1 5.2-1.7 2.6-.2 5.2-.2 4.9-.3 9.5 1.1c2.4.7 4.7 2 7 2.8a27 27 0 0 0 13.8 1q4.8-.6 9.5-1c6.3-.4 11-7.5 17.3-5.4 2.6.9 5 2.6 7.8 3 5 .2 6 .3 9.6 4.2" class="b"/><path d="M9 212.7q3 1.3 6 2 3.1.5 6.1.7c3.8.2 7.6 1 11.3 1.5q3 .3 6 .3 2.3.2 4.4.7c1.7.6 3.4 1.8 5.2 2.4 4.9 1.6 8.7-3.1 13-4.7 2.4-1 5.2-.2 7.7-.5 2-.3 4.1-1.2 6.1-1.8a44 44 0 0 1 16.4-.8c2.4.3 4.8-.4 7-1.3a31 31 0 0 1 13.8-1.4c4.2.2 8.2 1.9 12.1 3.3 5.4 1.7 11 .5 16.5-.4 4-1 8.2 0 12-1.4 4.2-1.2 7.8-4.4 12.2-4.7 3.1 0 5.9 1.7 8.7 2.9 4.7 1.5 5.9 1.4 9.5 5.5" class="b"/><path d="M9 208.2c2.3.8 4.5 2.1 7 2.5a54 54 0 0 1 13 3q3.6 1.3 7.7 1.6 5 .4 9.5 2.4c4.9 2.4 8.6-.5 13-2.2 2.5-1 5.3-1.4 7.8-2.1 6.1-2 12.5-3.8 19-3.5 2.7.2 5.2 1.5 7.8 1.5 2.3 0 4.7-.7 7-1l6.9-.7c3.4-.2 7-.5 10.4.6 8.8 4.4 11.6 3 20.7.8 2-.4 4-1.2 6-1.2 3.5 0 7.1.6 10.5-.6 4.4-1.2 8.3-4.4 13-4.4 2.4 0 4.8 1.3 6.9 2.4q4.6 2 7.8 6.1" class="b"/><path d="M9 203c2 .7 4 1.9 6 2.5q2.7.5 5.3 1.4c4.1 1.6 7.9 4.3 12 5.8 3.7 1 7.6 1.4 11.3 2.1 3.5 1 6.8 2.3 10.4 1.3 4.3-1 8.1-3.4 12.2-5q7.1-2.6 14.7-3.7a15 15 0 0 1 6.9.4c1.7.5 3.4 1.5 5.2 1.9q3 .4 6 .2 4 0 7.8-.6c3.1-.5 6.5-1.4 9.5-.4 1.9.7 3.5 2 5.2 2.9 3.5 1.9 7.7 1.3 11.3 0l6.9-2.5q2.5-1.2 5.2-1.4c2.6-.1 5.2.5 7.8.5q4.6-.1 8.6-2c3.1-1.2 6.2-3 9.6-3.3 5-.4 9.2 3.7 12 7.4" class="b"/><path d="M9 197.7c2.4.7 4.6 2.2 7 3 2.9.6 5.4 2.6 7.7 4.4 3 2.2 6 4.9 9.6 6s7.5 1 11.2 1.5c8.2 2.3 10.1 1.2 17.3-2.8 4.3-2.2 9.2-3 13.9-4.3 3.9-.8 8.2-2.1 12-.5 2 .8 4 2.1 6.1 2.6q5.2 1 10.4.5c5-.5 9.5-2.7 13.9 1 2 1.6 4.2 3.4 6.9 3.7 6.6.5 12-4.3 18.2-6 2.5-.7 5.2-.2 7.8 0q6.1 1.1 12-.8 5-1.8 9.6-4c4.5-2.3 7.8 1.2 10.4 4.6" class="b"/><path d="M9 192.5q2.8 1 5.2 2.6 2.2.9 4.3 2.2c4.8 3.5 8.1 9.3 13.9 11.4q3.4.9 7 .7c6.5-.3 9.8 2 16.4-1q7.9-3.1 16.4-5c4.5-1 9.2-2.3 13.8-1.8 2.5.5 4.7 2.1 7 3q5.4 2.1 11.2 1.4c3.7-.4 7.8-2 11.3.2 3.4 2.1 5.8 6.5 10.3 6.1q5-.3 9.6-2.8c3-1.6 6-3.4 9.5-3.8s7 .3 10.4.7q6.1 1 12.1-.9 2.8-.7 5.2-2.4c4.1-3 6.4-4.4 10.4 0" class="b"/><path d="M9 188.5c1.8.5 3.6 1.7 5.2 2.7q1.7.8 3.5 2c5.5 4 8.8 13.1 16.4 13.5 2.3 0 4.6-.7 7-.8 2.8 0 5.8 0 8.6-.9 4.7-1.7 9.8-1.8 14.7-2.7 7.1-1.3 14.3-3 21.6-3 4.9.4 9 4 13.9 4.2q3.8.3 7.8-.3c3-.5 6.3-.2 8.6 1.9 2.1 1.7 3.7 4.2 6 5.5 3.1 1.5 6.5 0 9.6-.6a28 28 0 0 0 7.8-3.2q3-1.2 6-1.7c6.8-1 13.3 2 20 1.5q3.2-.2 6-1.3c3.8-2 6.7-6.6 11.3-3.1" class="b"/><path d="M9 185.6c1.9.6 3.6 1.9 5.2 3q2.3 1.4 4.3 3.1c4.6 4.2 7.8 12.3 14.8 12.5 2.3 0 4.6-1 6.9-1.6q4.4-.5 8.6-2.4 3.8-1.5 7.8-.7 3 .3 6 .2 8.8-.7 17.4-2c2.6-.2 5.2-1 7.8-1 3.4-.1 6.4 1.6 9.5 2.8q3 1.1 6 1.3c4.4.3 9.4-1.3 13 1.8 2 1.6 3.3 4 5.2 5.7 3 2.7 7 .5 10.4.1q3.1-.3 6-1.2 3.7-2 7.9-2.4 4.3-.9 8.6-.3c3.2.5 6.3 1.6 9.5 1.8q4 .3 7.8-.7c4-1.3 6.8-5 11.3-2.8" class="b"/><path d="M9 183.5c2.3 1 4.1 3 6 4.5 3.2 2 5.6 4.9 7.9 7.8 3.7 4.8 7.5 7.7 13.8 5.5 3-1 6-1.6 8.7-3.2 1.8-1 3.8-2.4 6-2.4 4 .3 8 1.6 12.2 1.6q8.2 0 16.4-1.5c3.2-.6 6.3-2 9.5-2.5 3.1-.4 6 1.1 8.7 2.5q3.6 1.8 7.7 2c4.5.2 9-.8 12.2 3.2 1.6 2 3 4.6 5.2 6 1.5 1 3.5.5 5.2 0q2-.6 4.3-.8c2-.1 4 .2 6-.2q5.1-1.8 10.4-2.5a22 22 0 0 1 7 .2c2.5.4 5.1 1.3 7.7 1.5q5.3.2 10.4-1.5 2.6-1 5.2-1.1c1.1 0 2.4.5 3.5.5" class="b"/><path d="M9 181.8c2.3 1.5 4.1 3.8 6 5.6q2.4 1.9 4.4 4c2.7 2.8 5 6.3 8.7 8s7.6.2 11.2-.8q2.2-.5 4.3-1.5c1.7-1 3.4-2.3 5.2-2.8q2.6-.6 5.2-.3c3.5.1 7 1 10.4 1.2q7.9.4 15.6-1.5c3.8-1 7.3-3.3 11.2-4 3.2-.5 6 1.6 8.7 3a19 19 0 0 0 7.8 2c5.7.1 8.8-.9 12.1 4.8 1.4 2 2.7 5 5.2 5.7 2.4.3 4.6-1.2 7-1.4 2.5-.4 5.1.5 7.7.4 4.6-.6 9-2.7 13.9-2.3 3.1 0 6.3 1.1 9.5 1.4 2.5.3 5.2-.2 7.8-.6 2.2-.3 4.6-.9 6.9-.6 1.7.1 3.6 1.2 5.2.2" class="b"/><path d="M9 180.3c3.3 2.6 5.5 6.4 8.7 9.1 2.6 2.9 5.1 6.2 8.6 8 4.7 2.5 10 .4 14.7-.7 2.1-.5 4-1.6 6-2.4 2-.6 4.2-.5 6.2-.8q2.5-.4 5.1-.6 3 0 6.1.4 6.1.2 12.1-.8c3.4-.7 6.5-2.2 9.5-3.7 2.2-1 4.5-2.4 7-2.4 2.1 0 4.1 1.3 6 2.2q3 1.6 6 2.5 3.1.6 6.1.4c2-.1 4.4-.3 6.1 1 3.5 2.3 4.6 9.5 8.7 10.4 1.7 0 3.5-1 5.1-1.5 3.2-1 6.4.2 9.6.3 4.3-.3 8.5-2.2 13-2 3.4 0 6.9 1 10.3 1.3 3.2.3 6.4-.4 9.6-.4q2.6 0 5.1 1c1.6.7 3.3-.4 4.4-1.6" class="b"/><path d="M9 178.5c2 1.5 3.7 3.7 5.2 5.7l4.3 5.2c3 3.8 7 7.7 12.2 7.6 4.4 0 8.6-1.5 13-2.4q3.2-1.3 6.9-1.1c2.6 0 5.2-1.2 7.8-1.8 2.2-.6 4.6-.4 6.9-.5 4.6-.4 9.4.1 13.8-1.5 4.6-1.5 11-6.6 15.6-5.6 3.3 1 6.2 3 9.5 3.8 3.4 1 7 .6 10.4.6 5 .2 6.3 6.2 8.7 9.6 3 5 6.2.5 10.3 0 2.3-.2 4.7.2 7 .1 2.9-.1 5.8-.8 8.6-1.2 4-.7 8.2 0 12.1.8 4 1 8.1 1 12.2 1.4q2.1.4 4.3 1.2c2.3.2 4-2.1 5.2-3.8" class="b"/><path d="M9 176.8c2 1.3 3.7 3.3 5.2 5l5.2 6.4c4.6 6.3 9.9 7.8 17.3 5.7q5.1-1.4 10.4-1.6c2 0 4 .4 6 .1 3.6-.6 6.8-2.8 10.5-3.1 4.5-.9 9.3.3 13.8-1 5.5-1.5 11.6-7.3 17.3-6.6 4.1 1 7.9 3.4 12.1 4q3 .4 6 .4c1.8 0 3.8 0 5.3 1.1 2.8 2.4 3.9 6.4 6 9.3 2.8 3.8 6.4-.8 9.6-1.6q3-1 6-1c5.8-.6 11.6-1.3 17.3-.5 4 .5 7.6 2 11.3 3.3q3.8 1.2 7.8 1.8c3.3-.1 5.2-3.8 6.9-6.2" class="b"/><path d="M9 175.6c5.9 3 9.2 9.1 13.9 13.5 2.7 2.5 6.7 3.4 10.4 2.8q3.4-.8 6.9-1.4 3.4-.1 6.9.1 3.4.6 7 .4c3.4-.3 6.1-3 9.4-3.8 2.3-.6 4.7 0 7 .2q4.5 0 8.6-1.7c3.3-1.3 6.3-3.5 9.5-5 1.6-.7 3.4-1.6 5.2-1.6 2.4.2 4.7 1.4 7 2.2a40 40 0 0 0 13 2.8c2.3 0 4.7.9 6 2.9 1.8 2.5 3 5.7 5.2 8 4.1 3 6.5-5.7 16.4-5.9q7.9-.2 15.6.7 3.7.7 7 2.4c3.4 1.8 7 4.6 11.2 3.8 3.5-1.3 5.5-5 7.8-7.8" class="b"/><path d="M9 174.7c5 1.8 8.6 6.1 12.1 10 5.6 5.9 10.2 4.6 17.3 3.7 5-.3 9.9.8 14.8.8 6.3.2 7.9-5.3 14.7-3.4 3.8.8 7.6-.7 11.2-2 3-1.2 5.8-3 8.7-4.6 2-1.1 4.4-2.6 6.9-2.1 2.7.5 5.2 1.9 7.8 2.7a71 71 0 0 0 11.2 2.5c6.6.6 7.4 6.4 11.3 10.4 2.5 2 5.1-1.2 6.9-2.8q2.3-2.2 5.2-3.3 3.3-1 7-.7l6.8.1c11-.1 16 8.6 22.5 6.9 4-1.3 6.6-5 9.5-7.7" class="b"/><path d="M9 174c3.3.9 6.2 2.9 8.7 5 2.2 2 4.3 4.5 6.9 6 4.2 2.5 9.2 1.3 13.8 1.3 5.5.3 11 1 16.5.4 3-.2 5.7-2 8.6-2.4 2.3-.2 4.7.6 7 .3 3.3-.3 6.4-2 9.5-3.1q3.9-1.8 7.8-4c2.3-1.3 5-2.7 7.8-1.7s5.7 2.3 8.6 3c4 1 8.2 1.5 12.1 3s5.6 6 8.7 8.7c3.3 2.3 6.1-2.2 8.6-3.9 3-2.3 6.8-2.6 10.4-2.7 3.8-.2 7.7-.6 11.3.6 3.2 1 6.3 2.9 9.5 4.1 7.6 2.7 12-1.2 18.2-5.1" class="b"/><path d="M9 173.5q4.8 1.3 8.7 4.4c2.5 1.9 4.8 4.2 7.8 5.5 3.8 1.6 8 1 12 1 3.5.1 7 .6 10.5.3l6-.7q4-.2 7.8-.6c2.6-.3 5.3-.2 7.8-.5 4-.5 7.6-2.3 11.3-3.8l6-2.7c2.4-1.1 5.1-2.6 7.8-1.7 3.2 1 6.2 2.7 9.5 3.3 4 .9 8.3 1.2 12.2 2.8 3.6 1.6 5.4 5.5 8.6 7.7 3 1.8 6.1-1 8.7-2.5 3-2 6.8-2.9 10.3-3.5 4-1 7.5-1 11.3.7 3 1.2 6.2 2.8 9.5 2.8q5.7.3 11.3-1.2 3.5-.6 6.9-2" class="b"/><path d="M9 173q4.7 1.4 8.7 4.2c3.1 2.2 6.4 4.7 10.4 5.2 3.4.5 7 .1 10.4.1q3.9.1 7.7-.1 3-.5 6.1-1c3.2-.6 6.4.6 9.5.5 3.2-.3 6.4-1.2 9.5-1.8q5.9-1.4 11.3-3.7c2.9-1 5.7-2.4 8.6-2.9 3.2-.3 6 1.7 8.7 2.9 3 1.3 6.3 1.7 9.5 2 2.7.4 5.4.8 7.8 2.1 4.3 2.7 7 8 13 6.4q5-1.4 9.5-3.7c3-1.4 6.1-3.2 9.5-3.3 2.8.2 5.3 1.8 7.8 2.7q3 1 6 .7 5.2-.5 10.5-.7c3.1.2 6.3 1.3 9.5.5" class="b"/><path d="M9 172.9c4.4 1.2 8.3 3.6 12.1 5.8q4.6 2.4 9.6 2.3 7.4-.3 14.7-1.2 3.4-.6 6.9-1.3c3.5-.4 6.9 1.9 10.4 1 2.3-.4 4.6-1.5 6.9-2 4-.8 8.2-1.5 12.1-2.9 9.1-2.8 9.8-3.8 18.2 1.4q3.2 1.8 7 2.2c3.7.3 7.8 0 11.2 2.2l3.4 2.5q3.5 2.2 7.8 2.4 3.5.4 7-.4c2.8-.8 5.2-3 7.7-4.6 2-1.4 4.5-2.8 7-1.8 2 .7 3.8 2.2 6 2.6 5.4.8 11-2.2 16.4-.2 3.1 1.1 6.1 3.2 9.6 3" class="b"/><path d="M9 173c4.5 1.5 8.7 3.7 13 5.4 3.9 1.4 8.1 1.3 12.1.8q6.6-1 13-2.4c2.8-.8 5.8-1.4 8.6-.6 1.7.4 3.5.9 5.2.7 2.8-.3 5.2-2 7.8-2.6 3.7-.7 7.6-.7 11.3-1.4 9.4-1.7 11.5-4.4 19.9 2.2 2.3 1.6 5 2.9 7.8 3 3.8.1 8-.4 11.2 1.8q2.4 1.7 5.2 2.3 3.5.7 7 1.2c1.9.4 4 .9 6 .6 3.5-.5 6-3.5 8.7-5.5 2.6-2.3 5-2 7.7-.1 6 4.5 12.4-3 19 .8 3.3 2 6.4 4.8 10.5 4.6" class="b"/><path d="M9 173.7a189 189 0 0 0 14.7 4.4c8.3 1.2 16.4-1.9 24.3-4.2q3-.9 6-.7c2.3.2 4.7.8 7 .3 1.7-.3 3.5-1.3 5.1-2 2.7-1 5.8-1 8.7-1q5.2 0 10.4-.3c3.1-.3 6.4-1.2 9.5-.2 4.2 1.5 6.9 6 11.2 7.2 3.4 1 7-.4 10.4.3 1.8.3 3.5 1.5 5.2 2 4 .7 8.2.5 12.1 1.8 6.8 2.3 7.9.9 13-3.4 4.3-3.5 6.3.3 10.4 1 2 .2 4.2-.7 6-1.4 10-4.4 11 6.2 20 5" class="b"/><path d="M9 174.8q4.3 1.2 8.7 1.8 4.2 1 8.6.7a54 54 0 0 0 12.1-2.6c3.2-1 6.3-2.6 9.6-3.7q2.5-.9 5.1-1c2 0 4.1.3 6.1.1 3.3-.3 6.2-2.6 9.5-2.8 5.5-.3 11 1 16.5 1.2 2.8.3 5.8-.2 8.6-.3a9 9 0 0 1 6 2.6c3 2.8 5.9 6.3 10.5 5.3 2.5-.4 5.2-1 7.8-.3q2.5 1.2 5.2 1.3c4 0 8.2-.3 12 1.3 1.8.7 3.4 2 5.3 2.4 4 1 6.6-3.7 10.4-4 1.4 0 3 .7 4.3 1 3 1 6-.7 8.6-1.8 9-3.9 9.8 6.8 19 3.9" class="b"/><path d="M9 175.3c4.6.5 9.3 1 13.9.6 8.5-.9 16.4-4.7 24.2-8 2.4-1 5.1-1.8 7.8-1.6q2.2.2 4.3 0 2.3-.6 4.3-1.5c3-1.4 6.4-1.1 9.6-.6l9.5 2c3 .7 6.3 1.4 9.5 1 1.7-.2 3.5-.9 5.2-.6 3.8.9 5.5 5.1 8.6 7.1 3.3 2 7-.6 10.4-.5q2.3.2 4.4.7c2.5.3 5.2-.2 7.8-.4 5.3-.4 8.4 1.4 12 5 5.3 5 7.8-1.4 13-1.1 5.8.8 7.2-1 12.2-2.8q2.6-.9 5.2.2c5 2.7 6 4.1 12 2" class="b"/><path d="M9 174.7q11.2-.4 21.7-3.9c6.2-2 12-5.5 18.1-7.6q2.2-.7 4.4-.8c1.6 0 3.5.4 5.1.1 2.4-.2 4.6-1.6 7-2 2.9-.5 5.8.3 8.6 1l9.5 3c4.6 1.4 8.5 2.6 13 .3 3-1.4 5.3 1.4 7 3.6 4.3 5.9 6 4.2 12 2.7 2-.4 4.1.1 6.1 0 2.9 0 5.8-.8 8.7-1 7-.4 9 3.8 13 8.5 3.5 4 5.8.6 9.5-.8 2.5-.9 5.3-.4 7.8-1.6 2.5-1 5-2.7 7.8-2.8q2.6.1 5.1 1.2c3.2 1.3 6.5.1 9.6-.7" class="b"/><path d="M9 172.7q6.2-.8 12.1-2.6 6.1-1.5 12.2-3.7c5.3-2 10-5.2 15.5-6.7q2.2-.7 4.4-.6c1.7 0 3.5.5 5.2.3 2-.3 4-1.4 6-2q2.2-.2 4.3.2c4.8 1 9.3 3.3 13.9 4.8 3 1 6.2 2.2 9.5 2.3 2.7.3 4.5-2.3 7-2.7 3.8.4 5.2 6.4 8.6 8.1 2.8 1.5 5.8-.6 8.6-1 2-.4 4.1-.2 6.1-.5 3.7-.4 7.5-1 11.2-.5 6.4.5 7.9 6 11.3 10.3 3.2 4 6-.4 9.5-1.4 2-.6 4.2-.8 6-1.6 2.6-1 5-2.7 7.9-3.1 2.2-.3 4.6.4 6.9.3 2.6 0 5.2-1 7.8-1.2" class="b"/><path d="M9 169.6q7-1.5 13.9-3.5c4-1 8.1-1.7 12-3 5.3-1.7 10.1-5 15.7-5.8 2.2-.5 4.6.2 6.9 0 2.1-.2 4-1.3 6-2 3.9-1.3 7.8.8 11.3 2.3q5 2.2 10.4 3.7c2.5.7 5.1 1.9 7.8 1.7 2.8 0 4.2-3.4 6.9-3.4 4.2 1.4 5 8 9.5 9.1 3.3.4 6.3-1.6 9.5-1.8l10.4-.8c2.6 0 5.4-.2 7.8.7 6 2 6.5 10.8 11.3 12.1 2.5 0 4.5-2.3 6.9-3q3-1 6-2.2 3-1.6 6.1-2.7c2.5-.7 5.2-.6 7.8-.8s5.2-.9 7.8-.9" class="b"/><path d="M9 166q6.4-1.8 13-3c3.7-.5 7.6-.4 11.3-1.4 5.9-1.4 11.3-4.5 17.3-5.8 2.2-.4 4.6 0 6.9-.4 2-.3 4-1.3 6-2.1 5.4-2.2 10.6 2.6 15.6 4.1q3.4 1.2 7 2c3 1 6.8 3 9.5.3 1.4-1.1 3.1-3.4 5.2-2.3 3.8 2.7 5 9.5 10.3 9.5 2.4 0 4.7-1.1 7-1.6q5.1-1 10.4-1c3.4 0 7.3-1.3 10.3.8 4.4 2.7 5.1 10.1 9.6 12.1 2.2.3 4.1-1.5 6-2.3q4.4-2 8.7-4a40 40 0 0 1 19.9-3.3" class="b"/><path d="M9 162c3.4-.8 6.9-1.7 10.4-1.8 4 0 8.2.6 12.1-.5 6.1-1.5 12-3.9 18.2-5.4 2.2-.6 4.7-.5 7-.8a25 25 0 0 0 6.8-2c4.7-2.3 9 .2 13 2.5q4.1 2.1 8.7 3.3c2.4.7 5.1 2.2 7.8 1.3 2.4-.8 4-4.5 6.9-3.8 4.1 2.5 5.2 9.1 10.4 10.1 3 .3 5.8-1.1 8.6-1.7 2.8-.7 5.8-.7 8.7-1q2.6-.2 5.2-.7c2-.5 4.4-.6 6 1 3.9 2.7 5.5 13 10.4 12.9 2.2-.4 4.1-2 6-3q4.4-2.4 8.7-4.3c3.3-1.2 6.9-2.3 10.4-2.5 2.9-.1 5.8.6 8.7.5" class="b"/><path d="M9 158.4c2.5-.6 5.2-1.3 7.8-1.1 3.7.2 7.5 1.3 11.3.8q3.4-.7 6.9-2a126 126 0 0 1 15.5-4.1q4-.4 7.8-.8c7.9-1.3 10.3-5.2 18.2 0q4 2.9 8.7 4.2 2.5 1.1 5.1 1c2.8-.5 4.4-3.3 7-4.1 2.4-.5 3.9 2.2 5.2 3.8 1.4 2 3 4.4 5.1 5.8 4.8 2.5 9.9-1.2 14.8-1.4q3.8-.2 7.7-1.2c2.2-.6 4.8-1.7 7-.6 5 3.1 5 11.8 10.4 14.4 2.2.4 4.2-1.1 6-2.2 2.2-1.4 4.6-3 7-4a31 31 0 0 1 7.7-2.4c1.7-.3 3.5-.8 5.2-.7 3.2 0 6.4 1.4 9.5.5" class="b"/><path d="M9 155c7.7-2.2 11.8 2.3 19 .8 4.5-1.1 8.6-3.5 13-4.4 5.7-1.5 11.6-1.7 17.3-2a39 39 0 0 0 9.6-1.8c3.6-1.3 6.4-.4 9.5 1.7 3.4 2.3 7.8 5.6 12.1 4.1 1.8-.9 3.2-2.8 5.2-3.5 2.6-1.2 4.7 1.5 6 3.3q2 2.9 4.4 5.3c5 4.5 11.7.5 17.3 0q3.5-.6 7-1.7c1.8-.7 4-1.7 6-1.3 4 1.6 5 7 6.9 10.3 4.5 10 10.3 2.1 16.4-1.2q4-2 8.7-2.2 2.6-.4 5.2-.6c3.4.3 7.1 2 10.4 0" class="b"/><path d="M9 151.9c3.3-.6 6.5.2 9.5 1.3 7.3 2.5 11-.3 17.3-3 7.4-3.1 15.6-2.4 23.4-2.5 2.9 0 5.9 0 8.7-.8 3.7-1.2 5.9-2 9.5.3 2.4 1.6 4.8 3.7 7.8 4s4.6-2.7 6.9-4c5.9-2.6 8.4 9.7 14.7 11q2.6.6 5.2.1 3-.2 6-1.1 3.5-.9 7-1.6a37 37 0 0 0 5.2-2c1.3-.5 2.9-1.2 4.3-.8 8 2.8 4.5 24.7 21.6 10.4q4.6-3.6 10.4-3.3c2.3.2 4.7-.4 7 0 3.4.8 6.6 1.2 9.5-1.3" class="b"/><path d="M9 149.5c3 0 5.9 1 8.7 2 7.6 2.8 11.7-1 18.1-4.2a29 29 0 0 1 15.6-1.5c4.6.3 9.3 1 13.9 1 2.4-.1 4.7-1 6.9-1.8q2.7-.8 5.2.5c4.2 2.3 7.2 4.8 11.2.4 5.7-5.7 9.3 5.2 13 8.2a8 8 0 0 0 7 2.4c5.5-.5 11-1.9 16.4-3.3l4.3-1.9c1.3-.6 2.8-1.4 4.3-1.2 3 .6 4 4.2 5.2 6.6 2.2 5.3 3.6 9.8 10.4 8.2 3.4-.8 5.8-3.6 8.7-5.4 2.7-1.9 6.2-2 9.5-1.6 2 .1 4-.3 6 0a10 10 0 0 0 9.6-2.9" class="b"/><path d="M9 147.5c3 .6 5.8 1.9 8.7 2.7 6.2 2 11.3-1.6 16.4-4.7 4.1-2.3 9.2-3 13.9-2q6 1.3 12 1.8 4 .6 7.9.3c2.6-.4 5-2.2 7.8-2.2 5 .6 7.4 4.1 12-.3 6.5-5.1 10 10.6 16.5 11.2 2.6.4 5.3-.3 7.8-.7q6.1-1 12.1-2.7 2.8-1 5.2-2.2c1.3-.6 2.9-1.4 4.4-1 3.9 1.4 4.8 8 6.9 11.5 1.7 3.4 4.3 3.5 7.8 3.4 5.7-.3 8.9-6.7 14.7-6.9q3 0 6 .2c2.3-.3 4.7 0 7-.4 2.6-.5 4.8-2.5 6.9-4.2" class="b"/><path d="M9 145.2c2.9 1 5.7 2.5 8.7 3.2 6 1.7 11.5-2.4 16.4-5.4q3.2-1.7 7-2 3-.4 6 .5 3.4 1 7 1.9 3.8.6 7.7.8c6 .6 7.5.6 13-1.8 4.5-1.7 7.5 1 12.1-2 2.4-1.2 4.6.7 6 2.4 3.1 3.2 5.1 8 9.6 9.5 2.8.7 5.8-.3 8.6-.8l12.2-3q2.6-.8 5.1-2c1.6-.6 3.5-1.6 5.2-1 4.4 2.4 4.7 9.6 7.8 13.3 1.7 2 4.6 1.6 7 1.5 5.6-.7 8.8-7.2 14.7-7.3 2-.1 4 .3 6 .2 2-.2 4.1-.1 6-.6 3-.8 5.4-3 7.9-4.8" class="b"/><path d="M9 142.6c2.8 1.3 5.6 3.1 8.7 3.8 6.1 1.4 11.4-2.8 16.4-5.7q2.8-1.4 6-1.4 3.1-.5 6.1.4c2.3.7 4.6 1.7 7 2.2q3.8.7 7.7.7c3.2 0 6.4.9 9.6.2 2.4-.5 4.6-1.8 6.9-2.8q3.8-1.2 7.8-2c2.9-.6 5.2 1.6 6.9 3.6l5.2 6c5 5.7 12.2 2 18.2.3l10.3-3c2.3-.7 4.6-2 7-1.8 4.4 1.3 5.4 9 7.8 12.6 1.5 2.8 4 2.9 6.9 2.3 5.7-1.1 8.8-7.7 14.7-8.2 2.3-.3 4.6.4 6.9.5 6.8.3 8.5-1.7 13.9-5.3" class="b"/><path d="M9 140c2.6 1.4 5 3.3 7.8 4 6.4 1.9 12-2.5 17.3-5.3q2.4-1.3 5.2-1.2 3.5-.6 7 .5 3.3 1.4 6.9 2.3 3.9.5 7.7.6c3.5 0 7 1 10.4.2 3.1-.7 5.9-2.5 8.7-3.9 1.6-.8 3.3-1.7 5.2-1.5 3 .5 5 3.2 6.9 5.2q2.4 2.7 5.2 5.1c6.2 5.4 12.7 1.8 19-1q4.6-1.9 9.5-3c2.3-.5 4.6-1.7 7-1.2 4.4 1.8 5.4 8.8 7.7 12.5 1.7 3.1 3.9 3.5 7 2.1 5.4-2.1 8.4-9 14.7-9.1 2.3 0 4.6 1 6.9 1.2 6.5.7 8.7-1.6 13.8-4.8" class="b"/><path d="M9 137.4c2.3 1.4 4.4 3.3 7 4.2 6.5 2.3 12.6-2 18.1-5q3.3-1.4 7-1.8 3 0 6 1.2 6.5 2.9 13.8 3.1c3.8.3 7.6 1 11.3 0q3.7-.8 7-2.9c1.7-1 3.8-2.3 6-1.8 2.8.6 4.8 3 6.9 5q3 3 7 5.2c7.4 4.2 12.4.5 19-3q3.7-1.8 7.7-2.5c2.3-.5 4.7-1.3 7-.6 6.6 2.4 6.6 20.8 15.5 13.8 4.6-3 7.7-9.7 13.9-9.1 2.7.2 5.1 1.7 7.8 2 6.3.6 7.9-1.5 13-4.4" class="b"/><path d="M9 134.6c2.2 1.7 4.3 3.9 7 4.8 7.2 2.3 14-2.4 19.9-6 4.2-2.2 6.9-2.6 11.2-.5a43 43 0 0 0 22.5 4.8q3.5-.4 7-1.6c1.7-.6 3.4-1.7 5.1-2.2 3-1.2 6.2.2 8.7 2 8.3 6.2 16.2 9.5 26 4q4.3-2.8 9.4-3.8c2.6-.5 5.5-1 7.8.5 4.8 3 6.3 13.5 11.3 14.7 3.4-.2 5.5-3.8 7.8-6 2.3-2.7 5.6-5.6 9.5-4.8 2 .4 4 1.5 6 2.1q3 .7 6.1.7c3.3-.3 5.8-3 8.7-4.4" class="b"/><path d="M9 132c2 1.6 3.7 3.7 6 4.8 5.2 2 11 .5 15.7-2.3 3.8-2 7.3-7 12-6.5 3.2.5 6 2.5 8.7 3.8a39 39 0 0 0 10.4 4q3.9.7 7.8 0 3.5-.5 7-1.3c5.7-1.8 8.9-2.7 14.6 0 6.1 3.1 13.2 4.5 20 3.3q4-.6 7.7-2c4.4-2.3 10.2-5 14.8-1.6 4.6 3.1 7.2 13.6 12 14.4 3.1-.3 5-3.4 7-5.4 2.3-2.8 5.6-5.6 9.5-4.6 2.4.5 4.6 1.8 7 2.4 1.9.4 4 1 6 .6 3-.9 5.1-3.3 7.8-4.7" class="b"/><path d="M9 129.4c1.9 1.8 3.7 4 6 5a20 20 0 0 0 14-1c4.3-1.8 7-6.3 11.2-8.3 3.7-1.1 7.3 1.7 10.4 3.4 2.7 1.7 5.6 3.5 8.6 4.6 3.9 1.6 7.3 1 11.3.3q3.4-.2 6.9-.7c3.1-.4 6.3-1 9.5-.6 3 .3 5.8 1.3 8.7 2q6 1 12-.1c4.4-.9 8.8-1 13-1.9 4.4-1 7.7-4.6 12.2-1.2 3.6 3 5.9 7.3 8.6 11 3 4 5.5 6 9.6 1.7 3-3.1 6.2-7.5 11.2-6.5 4.5.8 9.3 4.5 13.9 2.3 2.4-1.3 4.4-3.5 6.9-4.7" class="b"/><path d="M9 127.2c1.8 1.8 3.6 4 6 4.9q4.9.8 9.6.5c10.2-.8 12.1-12 19-10 6.6 2 11.3 8.1 18.2 9 2.9.2 5.8-.7 8.7-.7q4.3.1 8.6.1 4.3-.2 8.7.2c2.5.3 5.2 1 7.8 1.2q3.9.2 7.7-.6 3.6-1 7-2 5-1.4 10.4-1.4c1.3 0 3 0 4.3-.3 1.4-.4 2.8-1.2 4.3-1.3 3.7 0 5.8 3.9 7.8 6.4 2.2 3 4.3 6.4 7 9 4.4 4.8 8.6-2.2 12-4.7a9 9 0 0 1 7.8-1.5c4.2 1.2 9.2 3.7 13 .3q3-2.3 6-4" class="b"/><path d="M9 125.5c2.6 2.7 4.8 4.6 8.7 4.6q5.7.9 11.2-.5c5.1-1.3 7.3-7.2 12.1-8.8 2.5-.4 4.9 1 7 2 4.9 3 9.4 7 15.5 5.7q4.4-1 8.7-.2Q79 129.7 86 130c3.5.2 7 1.1 10.4.8 4.6-.3 8.8-2.3 13-4 3.9-1.4 8-2.9 12.1-2.6 1.7.3 3.5 1 5.2 1l3.5-.3c4 .1 5.8 4.6 7.8 7.4 2 3 4 6.4 6.9 8.8 4.6 3.7 8.5-3 12.1-5.2q3.2-2 7-1.4c12 2.7 9.4-.3 19-4.9" class="b"/><path d="M9 124.3c1.7 1.6 3.7 3.1 6 3.6q5.3.7 10.5.1c6.6-.6 7.4-1.3 12-5.8 3.2-3 6-2.5 9.6-.7 4 2 8.2 5.2 13 4.5q3.4-.6 7-.8c5.2.3 10.2 2.7 15.5 3 5.2 0 10.5 1.2 15.6-.3q4-1 7.8-2.9 3.8-1.6 7.8-3c2.7-1 5.6-2.5 8.6-2 1.8.4 3.5 1.5 5.2 2.3q2 1 4.3 1.2c5.5 1.7 8 13 13.9 16.2 4.4 2 7.8-3.4 11.2-5.4q2.9-2 6-2c13 .2 9.4-1.8 20-5.6" class="b"/><path d="M9 123.6a13 13 0 0 0 7.8 2.8c3.2.3 6.4-.5 9.5-1 6.9-.9 6.2.9 12.1-4 6.4-4.8 12.5 4.3 20.8 2.7s10.4-.1 18.2 1.6q6.4 1 13 .8 5.7-.6 11.2-2.8 6-2.5 12.1-4.6c3-1 5.7-2.7 8.7-3.2 3.3 0 5.5 3 7.8 5 1.2 1.2 3 2 4.3 2.9 4.2 3.3 5.8 9.2 10.4 12.1 3 1.7 6.2-.2 8.7-1.9q3-2 6-3.6 5.5-2.1 11.3-3.3 2.6-.8 5.2-1.6 3.4-.8 6.9-1.7" class="b"/><path d="M9 122.8c3.4 1.9 7.5 2.1 11.3 1.3 2.3-.6 4.5-1.7 6.9-2.2s4.6.7 7 1c2.4 0 4.5-1.8 6.8-2.5 4.5-.7 8.6 2 13 2.4 4.6.5 9.2-1.1 13.9-.5 4.3.7 8.5 2 13 2.1 2.8 0 5.8.6 8.6 0q7.9-2.3 15.6-5.1 4.3-1.3 8.6-2.8c3-1 5.8-2.7 8.7-3.8 4.6-1.7 8 5.3 10.4 8.3q2.5 2.8 5.2 5.4c1.8 1.8 3.6 4 6 5 3.6 1 6.6-2.1 9.5-3.5q5.5-2.9 11.3-5a25 25 0 0 1 8.6-1.5q2.6.1 5.2.1 2.2-.2 4.4-.6" class="b"/><path d="M9 121.6c4 1.4 8.4 1 12.1-.7 2.8-1.2 5.5-3.4 8.7-3q2 .3 3.4 1.6c2.1 1.7 4.4 1.8 7 1.1q3-.3 6 .1 4.8.9 9.6 1c3.4-.1 6.9-.9 10.3-1 4.7.2 9.2 1.7 13.9 1.7q2.6 0 5.2.3c3.7.1 7-2.3 10.4-3.4q4.3-1.5 8.6-2.6 4.4-1 8.7-2.2 2.6-.9 5.2-2.1 2.5-1.6 5.2-2.9c6.2-2.5 9.8 10.2 13 14 9.2 12 11.1-.6 19.8-4 5-1.8 10.3-4 15.6-2.9 2 .4 4 1.2 6 1.4q2.7 0 5.3-.2" class="b"/><path d="M9 120c5 1 9.8-.8 13.9-3.5 2.1-1.2 4.3-3 6.9-3.1 1.8 0 3.2 1.4 4.3 2.6 3.3 4.1 6.4 4.1 11.3 4 3.4 0 7 .3 10.4 0 3.1 0 6.3-.8 9.5-1.1 4.6-.5 9.3.6 13.8 1.2l6 .6c3.6-.3 6.5-2.6 9.6-4q4.1-1.7 8.7-2.6a48 48 0 0 0 14.7-4q2.5-1.6 5.2-3.1c9-5.3 11.3 16.8 18.1 19.4 3.2 1 5.3-2.6 7-4.7a30 30 0 0 1 4.3-5A25 25 0 0 1 169 112c2.4.2 4.7 1.1 7 1.8q3.4.9 6.9 1" class="b"/><path d="M9 118c4.7.2 9-2 13-4.4l5.2-3.2c2-1.3 4.2-2 6-.1 2.8 2.7 4.4 7.5 8.7 8.2q3.5.1 7-.2 4.3-.1 8.6-.7c2.9-.5 5.7-1.5 8.6-2 5.3-.7 10.5 1 15.6 2.4 3.7 1 5.3.6 8.7-1.3 3.4-2.1 7.2-4 11.2-4.7 2.6-.5 5.3-.6 7.8-1.2 4.2-1 8.6-2.3 12.1-4.9 3.4-2.4 6.5-4 9.5 0 3.9 4.4 5.9 14.2 10.4 17 3.3 1 5.2-3.2 7-5.3 1.1-1.7 2.6-3.6 4.3-4.8a31 31 0 0 1 6.9-3.3c4.1-1.5 8.7-2.1 13-1 3.5 1 6.6 3.5 10.4 3.4" class="b"/><path d="M9 115.5c5.7-.7 10.5-4.2 15.6-6.6l4.3-2.7c1.3-.8 3-1.5 4.4-.6 3.3 2.5 4.2 7.4 7.8 9.7 1.8 1 4 .7 6 .5q5.3-.3 10.4-1.8c4.9-1.8 9.4-3.6 14.7-2.4q4.1 1 7.8 3c2.4 1 5.3 2.2 7.8 1.3 3.6-1.3 6.7-4 10.4-5.2 3.3-1.1 7-.8 10.4-1.7 3.8-1.1 7.8-2 11.2-4 4-2.4 8.2-6.7 12.1-1.8 2.6 3.1 4.1 7 6.1 10.4.9 1.5 2 3.4 3.5 4.3 4.6 2 6.5-8.8 13-10.5 4.7-1.7 9.5-4 14.7-3.8 6-.1 7.8 5.7 13.8 5.4" class="b"/><path d="M9 112.8c3.4-.9 6.4-2.8 9.5-4.3 2.5-1.3 5.3-2.1 7.8-3.4 4.5-2.5 6.8-6 10.4 0 1.8 3 3.7 7.1 7.8 7.2 4.1.3 8.3-.8 12.1-2.4 4-1.7 8.5-3.9 13-2.7q4.1 1 7.8 2.9c1.5.8 2.8 2.2 4.3 2.9 4.8 2.1 8 .3 12.2-2.2 3.3-2.1 7.4-2.4 11.2-2.8 3.6-.6 7-2 10.4-3.1q2.7-.9 5.2-2.4c2-1.2 3.9-2.7 6-3.4 7.5-2 9.5 10.4 14.8 13.4 4 1.5 6.5-7.9 10.3-9.5 2.5-1.2 5.2-1.7 7.8-2.5 4-1.1 8.3-2 12.2-.3 3.8 2 6.2 7.2 11.2 5.9" class="b"/><path d="M9 110c3.9-1.6 7.4-4 11.3-5.6 1.9-.8 4.1-1.2 6-2 2.2-.8 4-2.5 6-3.5 4.5-1.5 6 5.5 8.7 7.6 2.2 1.8 5.2 2 7.8 1.7 5-.6 9-4 13.9-5q3.9-.9 7.8.5 4 1.9 7.8 4.2 1.6 1.5 3.4 2.9c4 2 8.5.7 12.1-1.6 3.4-2 7.5-2.4 11.3-3q4.4-1.2 8.6-2.8 3.7-1 7-3c2.8-1.6 6-4 9.5-3 4.9 1 8.3 11.7 13 10 2.8-1.8 4-5.4 6-7.8 1.8-2.4 5-3.2 7.8-3.7 2.6-.4 5.2-1 7.8-1a13 13 0 0 1 7.8 3c3 3 5.5 7 10.4 5.2" class="b"/><path d="M9 107.2c3.8-1.9 7.3-4.5 11.3-5.8 2.2-.8 4.7-.9 6.9-1.7s4-2.5 6-3.5c3.5-1.4 5 3 7 4.9 3 3.5 8 3.7 12 2.2 3.2-1.2 6.2-3.2 9.6-3.6 2.9-.3 6-.3 8.7 1q4 2.1 7.8 4.8c1.3 1.1 2.6 2.7 4.3 3.4q2.8 1 6 .6a18 18 0 0 0 6.1-2.4c3.8-2 8.1-2.3 12.1-3.4q5.3-1.5 10.4-3.5 3.5-1.7 7-3.4a9 9 0 0 1 8.6.4c3.8 2.2 7.8 9.8 12.1 4.2 2.4-3 3.8-7.6 7.8-9q3-1 6-1.2c2.3-.2 4.8-.4 7 .2 2.6.8 5 2.6 6.9 4.5 3 3.5 5.3 6.3 10.4 4.4" class="b"/><path d="M9 104.7c3.7-2 7.2-4.7 11.3-5.9 4-1 6.8 0 10.4-2.7 4.4-3.6 5.7-3.8 9.5.7 3.9 4 9.8 3.9 14.7 1.7 2.7-1.1 5.7-2 8.6-1.8 2.4.1 4.9.2 7 1.4q4.5 2.7 8.6 5.9a10 10 0 0 0 7.8 3.2q4.1 0 7.8-2.1c3.8-2 8-2.7 12.1-3.6q4.8-1.1 9.5-2.7c2-.6 4-1.7 6-2.5 3-1.3 6.6-1.6 9.6-.3 2.5.8 4.6 2.6 7 3.7 5.4 2.2 7.5-5.3 10.3-8.4 3.2-3.6 8.6-3.7 13-3.6 4.7.4 8.2 4.3 11.3 7.5q3.8 4.5 9.5 2.5" class="b"/><path d="M9 102.4c3.2-1.7 6.2-4 9.5-5.3q2.5-1 5.2-1 2.7.2 5.2-.7c1.9-.7 3.5-2.2 5.2-3.2 2.3-1.4 4-.7 6 .6 3.8 2.6 8.6 3.6 13 2.7 3.2-.5 6.4-1.4 9.6-1.2q3.6.1 6.9 1.4 4.4 2.6 8.6 5.5a13 13 0 0 0 6.1 3.1c3.9.6 7.7-.4 11.3-2 4.4-1.6 9.2-2.1 13.8-3.1 4.2-.8 8.1-2.3 12.1-3.6q4.3-1.4 8.7-.3l6 1.5c2 .5 4.2 1 6 0 3.2-1.9 4.7-5.6 7-8.3 1.5-1.7 3.8-3 6-3.1h7c3.9 0 6.8 4.1 9.5 6.5 3.3 3.8 6.4 4.6 11.3 3.4" class="b"/><path d="M9 100.2c4-2 7.7-5 12.1-6.3 2-.5 4.1-.3 6.1-.3 2.9.1 5.2-1.9 7.8-2.9 2-.8 4 0 6 .2q4 .1 7.8.8c4.3.7 8.7.2 13 .5 6 .4 8.9 2.5 13.9 5.4 2.5 1.3 4.9 3.3 7.8 3.8 4.9.7 9.8-1 14.7-1.6q6-.7 12-2.2c3-.7 5.9-2 8.7-2.8q4.3-1.3 8.7-.3c2.2.5 4.6 1.4 7 1.3s5.4-.1 7.7-1.5c3-1.8 4.7-5.2 7-7.8 1.2-1.6 3.2-2.8 5.1-3.3h3.5c1.6.1 3.6-.3 5.2.4 8 4.3 8.5 11.6 19.9 9.5" class="b"/><path d="M9 98.1C14 95.8 18.3 92 23.7 91c2.3-.3 4.7.5 7 0 2.5-.6 5.1-1.6 7.7-.8 3.4 1.4 6.3-1.2 9.6-1.5 4.3-.2 8.7.9 13 1.5q6.3 1.2 12 4.2c3.7 1.6 7.2 4.1 11.3 4.4l6-.3 7.9-.1q6.1-.3 12-2.4c4.2-1.7 8.4-4.2 13-3.6 3.4.3 6.3 2.3 9.6 3 3.4.4 6.7-1.4 9.5-3 2.9-1.8 4.8-4.8 7-7.3 2.8-3.6 8-4.4 12-2.6 2.7 1 4.8 3.2 7 5 4 3.2 9.6 4.2 14.7 3.6" class="b"/><path d="M9 96.3c3.6-1.8 6.8-4.2 10.4-6 3.4-2 5.7-2.5 9.5-1.4 2.9.7 6-.6 8.7.5s4.1 2.4 6.9.7c6.7-5 8.9-4.1 16.4-1.7q4.9 1.4 9.6 3.2c4 1.6 7.8 3.7 12 4.5q3.5.3 7 .3 3.9.4 7.8.4a26 26 0 0 0 9.5-1.5c4.4-1.7 8.2-5 13-5.3 4-.1 7.8 2 11.2 3.8 3.2 1.9 5.8 1 8.7-.9q5-3 8.6-7.5c3.5-4.5 8.3-5.3 13-2.2 2.4 1.4 4.4 3.6 7 4.6 1.6.5 3.5.5 5.1.8q4.7 1 9.6 1" class="b"/><path d="M9 94.5q3.2-1.7 6-3.7l5.3-3.1c2.9-1.9 5.3-2.6 8.6-1.1 2.7 1.3 6 .4 8.7 1.5 1.4.6 2.8 1.8 4.3 2.4 3.7 1.2 6-2.8 8.7-4.6 2.2-1.8 5.2-1.6 7.7-.5q5.6 2.3 11.3 4.3 5.1 2.1 10.4 3.6 3.8 1 7.8 1.1 3.8.6 7.8.6 4.9.1 9.5-1.6c3.9-1.6 7-4.8 11.2-5.8 3.9-.7 7.9.7 11.3 2.5 2.3 1.1 4.4 3 6.9 3.8 4 1 7.5-3.5 10.4-5.5 5-4.2 7.6-9.3 14.7-5 2.7 1.7 5.3 4.4 8.7 4.4 1.6 0 3.4-.7 5.1-.6q4.9.3 9.6 1.3" class="b"/><path d="M9 92.7c2.2-1 4.1-2.6 6-4Q19 86.3 23 84c2.8-1.5 5.2 0 7.8 1.3 3.5 1.2 6-.5 9.5 2.2 2.5 1.8 5 3.4 7.8.9 4.7-4.8 6-7.4 13-4q7.5 3.5 15.5 5.9c6 1.6 12 3 18.2 2.6 3.6-.2 7.2-.8 10.4-2.6 3.9-2.1 7.4-6 12.1-5.6s9 2.5 13 4.7c2.9 1.6 6 5 9.5 2.8 2.8-1.8 5.2-4.2 7.8-6.2 2-1.6 4.2-3.5 7-3.4 2.8.3 5.2 2.2 7.7 3.5 2 1.2 4.6 2 7 1 1.3-.4 2.8-1.2 4.3-1.2q5 0 9.5 2.2" class="b"/><path d="M9 91c2.3-1 4.2-2.8 6-4.4l5.3-3.5c3.6-2.4 5.9-2.5 9.5 0 3.2 2.3 6.2 0 9.5 1.7 3 1.2 6.3 5.2 9.5 2.3 3.6-3.4 5.7-7.7 11.3-5q7.5 3.5 15.6 6c4.8 1.4 9.7 2.8 14.7 3 4.7-.2 9.7-1.2 13.8-3.7 3.3-2 6.3-5.4 10.4-5.4 5.8.4 11.3 3.1 16.5 5.6 2.3 1.2 4.3 3.2 6.9 3.9 2.7.3 4.9-2 6.9-3.5 2.6-2 5.3-4.2 8.6-4.6 3.4-.2 6.4 2 9.6 3 8.5 2.5 7.5-6.6 19.9 1.6" class="b"/><path d="M9 89.2c2.7-1.2 4.7-3.6 7-5.4 2.5-1.8 5.3-4.1 8.6-4.4 3.3-.1 5.4 3.2 8.6 3.5 1.4.1 3-.2 4.4-.1 4.1-.1 7.4 5 11.2 3 2.9-1.9 4.8-5.9 8.7-6 2.4 0 4.7 1.1 6.9 2 3.7 1.4 7.4 3.2 11.2 4.5a52 52 0 0 0 14.8 3q7-.7 13-4.7c3.1-2.1 6.1-5.7 10.3-5 1.8 0 3.6.7 5.2 1.3l5.2 1.7q4 1.5 7.8 3.2 2.7 1.5 5.2 3.2c2.9 1.8 5.3.5 7.8-1.3 2.3-1.7 4.9-3.4 7.8-4 4.7-1 9 2.2 13.8 1.7 1.9-.2 3.5-1.3 5.2-2 4.3-1.4 7.9 2.5 11.2 4.6" class="b"/><path d="M9 87.4c3.1-1.3 5.2-4.3 7.8-6.3 2.9-2.1 6.8-4.5 10.4-2.6 3 1.6 5 3.9 8.7 3.5 6.4-1 8.5 3.7 13 2 2.7-1.6 4.6-4.6 7.7-5.5 2.6-.7 5.3.3 7.8 1 4.5 1.4 8.6 4 13 5.5q5.9 2.1 12.1 2.4 4.1-.1 7.8-2 3.7-2 7-4.6c2.7-2.4 5.6-4.5 9.4-3.4 1.8.5 3.5 1.6 5.2 2.1l6 1.6a42 42 0 0 1 7 2.4q2.7 1.5 5.2 3.2c4.9 3.5 7.8-.4 12.1-2.4 4.7-2.6 8.9-1.7 13.9-1q2.2.1 4.3-.2c1.5-.4 2.9-1.3 4.3-1.6 4.7-.4 7.4 4.4 11.3 6.1" class="b"/><path d="M9 85.5c2.7-1.1 4.7-3.7 7-5.5 2.8-2.3 6.6-4.6 10.3-3.2 3 1 5.4 4 8.7 4.4 2 .2 4-.1 6 .3 2.3.5 4.7 1.4 7 .6 3.2-1.6 5.8-4.8 9.5-5.3s7.7.7 11.2 2c3.2 1.5 6.2 3.5 9.6 4.7 4.3 1.7 9.2 2.3 13.8 2.2 10.2-1.4 14-14.8 22.5-9.5q2 1.4 4.3 2 2.6.6 5.2.8 5.1.6 9.5 3.4c3.7 2.4 6.8 5.6 11.3 2.8 6.2-3.6 9.8-5.3 17.3-4.7h4.3c1.4-.1 3-.7 4.4-.7 2.7.2 4.9 2.3 6.9 4q2.2 2 5.2 3" class="b"/><path d="M9 83.6c5.6-2.7 10.2-10.4 17.3-7.9 3.2 1 5.4 4 8.7 4.5 2 .3 4 .1 6 .2q3.1.2 6.1-.8c2.8-1.4 5.5-3.4 8.7-4.1q6.5-1.3 13 1c3.8 1.8 7 4.7 11.2 5.9q3.8 1 7.8 1.4c2 .2 4 .6 6 .4 6.9-1.3 10-10.6 16.5-11 2 0 3.6 1.5 5.2 2.5 2.2 1.6 5 1.6 7.8 1.5q4 0 7.7 1.7c4.2 2 8 7.3 13 4.8 4.3-2 8.3-5 13-5.9a27 27 0 0 1 8.7-.3c2 .2 4.2.4 6 1.5 2.4 1.5 4.5 3.7 7 5q2 1 4.3 1.7" class="b"/><path d="M9 81.7c5.7-2.3 10.6-8.8 17.3-6.7 2.7.8 5 2.8 7.8 3.2 4 .6 8.4 0 12.1-1.6q6.5-3.4 13.9-3.4c3.2 0 6.6-.1 9.5 1.3 4.1 2.3 7.1 5.8 12.1 6.4l7 1c2 .2 4 .7 6 .6 5.5-.8 7.7-7 12.1-9.7 3.2-2 5.1-.6 7.8 1.3 5.7 4 9.8-.6 16.5 3.1 3.4 1.7 6.3 5.2 10.4 5.1 3.5-.3 6.5-2.6 9.5-4.3 5.4-3.2 11.4-5.2 17.3-2 3 1.5 5 4.4 7.8 6.2 2 1.2 4.6 1.6 6.9 2.2" class="b"/><path d="M9 79.4c5.6-2 11-6.3 17.3-4.8q4.3 1.3 8.7 1 3-.3 6-1 3.4-1 7-2.1c3.6-1.1 7.5-1.2 11.2-1.3 2.9 0 5.8-.4 8.7.1 3.1.7 5.2 3.5 7.7 5.4 2 1.6 4.5 2 7 2.2l7.8 1.1c2 .3 4 .9 6 .5 5.5-1.5 7.3-8.8 13-9.8 3 0 5 2.7 7.8 3.5q2.5.7 5.2.3c4.8-.8 8.2.8 12.1 3.4 2.5 1.7 5.6 3 8.7 2 5.5-1.6 9.9-6.1 15.5-7.7 6.6-2 10.7 3.3 14.7 7.5q1.9 1.7 4.4 2.3 2.5.7 5.2 1" class="b"/><path d="M9 76.7c2-.4 4-1.4 6-2q3.5-.9 7-.9 2.6.1 5.2.4c2 0 4.1-.7 6-1.3 7-2 14.3-3.9 21.7-3.9 4.3.1 8.7-.8 13-.4 4 .9 6 5.4 9.5 7.3 1.5.8 3.5.7 5.2.9 4.3.4 8.6 1.8 13 2 5.8-.1 8-7 13-9 2.8-.8 5.3 1.5 7.7 2.5q3 1.3 6 1c4.7-.4 8.2 1.1 12.2 3.3 9 5 14.8-2.6 22.5-6 8.4-4 11.5 2.8 16.5 8 2.4 2.4 6.2 2.8 9.5 3" class="b"/><path d="M9 74q2.7-.8 5.2-1.7c3.8-.9 7.6.6 11.3 1.1 1.8.3 3.6-.7 5.2-1.6q2.8-2 6-3.2 3.8-1 7.8-1.3 6-.7 12.1-.8c3.5 0 7-.8 10.4-.7 4.9.1 6.6 5.8 10.4 8 1.3.7 3 .6 4.3.7q2.2 0 4.4.6c3.4.8 6.8 2.5 10.3 2.5 5-.5 7.4-5.7 11.3-8.1 2.4-1.8 5.4-.6 7.8.6q3 1.4 6 1.8 4.1.3 7.8 1.5c6.1 2.5 11 4.7 17.3 1.2 5.3-2.7 13.1-9.8 19-6.6 7.2 4.7 6.5 12.1 17.4 12" class="b"/><path d="M9 71.3c2.3-.5 4.6-1.6 7-1.5 3.3 0 6.2 2 9.5 2.7 4.1.3 7-5.4 11.2-6.6 3.3-1.1 7-.8 10.4-1.2q5.2-.4 10.4-.6 3.9-.4 7.8-1c5.6-.7 7.1 3.3 10.4 6.8q2 2.4 5.2 2a19 19 0 0 1 10.3 3c1.9 1 4 2.2 6.1 2 5.2-1 7.7-7.7 13-8.9 2-.4 4.2.4 6 1.1q2.6 1 5.2 1.7c7.8 1.7 15.5 6.3 23.4 2.8 6-2.8 14.8-10.8 21.6-8 2.3 1 3.8 3.3 5.2 5.2 3 4.2 5.9 7 11.3 7.2" class="b"/><path d="M9 68.9c4.2-.9 7.3-1.7 11.3.3 1.7.8 3.3 2 5.2 2.4 3 .2 5-2.7 6.9-4.6a14 14 0 0 1 4.3-3c3.8-1.4 8.1-1 12.1-1.5q4-.2 7.8-.6 3.9-.7 7.8-1.3c7.7-1.4 8 3.9 13 7.7 1.2.9 2.9.7 4.3.6q2.7-.1 5.2.9a19 19 0 0 1 5.2 3.5c2.1 2 4.8 4.2 7.8 2.2 3.7-2.3 6.5-6.7 11.2-7 2-.2 4.2.6 6.1 1.1l6 1.5c7 2.2 13.6 4.2 20.8 1.3 4-1.9 7.3-4.7 11.3-6.4 4.7-2 11.1-4.8 15.6-.9 3.7 3.7 6.5 8.4 12 9.6" class="b"/><path d="M9 66.7c4.7-.4 8-1 12.1 1.6 1.7.8 3.3 2.2 5.2 2.3 2.7-.2 4.4-2.7 6-4.4q2.3-2.5 5.3-3.7 3.4-1 6.9-1.2l7.8-.7c4.1-.4 8-2 12.1-2.7 4.4-.9 6.6-.2 9.5 3.1 1.5 1.6 3 3.5 5.2 4.2q1.8.2 3.5 0 3.9.1 6.9 2.5c4.6 3.8 6.2 10.3 13 5 6-4.5 8.1-3 14.7-1.5 2.5.4 5.2.2 7.8.6 5.4.7 11 1.6 16.4.2 4.2-1 7.5-4 11.3-6a43 43 0 0 1 15.6-4.2c2.9-.5 5.6 1.1 7.7 2.9 2.3 1.6 4.5 3.5 7 4.9" class="b"/><path d="M9 64.9c4.5 0 8.1-.5 12.1 2 1.7.9 3.4 2.2 5.2 2.5 2.5.1 4.4-2 6-3.6a19 19 0 0 1 5.3-3.7c4.3-1.8 9.2-1.7 13.8-2.6 4-.7 7.6-2.7 11.3-4 8-2.6 8.8-.8 14.7 4a8 8 0 0 0 5.2 1.5c3.7 0 7.2 2 9.5 5 1.3 1.5 2.6 3.5 4.3 4.7 4 2.4 7.8-2.3 13-.9 2.3.6 4.6 1.9 7 2.3 2.2.3 4.6-.5 6.8-1q4-.7 7.8-.5c6 0 11.1.8 16.5-2.5 3.3-1.8 6.6-4.2 10.4-5.1 3.3-1 7-.6 10.4-1.5 1.6-.5 3.4-1.4 5.1-1.4 3.5-.2 6.9 1.5 9.6 3.6" class="b"/><path d="M9 63.1c2.3.4 4.7.3 7 .5 3.4.4 6.3 2.7 9.5 4 4 1.4 7-3 10.4-4.6 4.4-2.7 9.7-3.1 14.7-4.3a29 29 0 0 0 7.8-3.6c3.8-2.3 8.2-5 13-4.5 1.9.4 3.6 1.8 5.1 3 5.6 4.8 8.5 2 13.9 5.6 3 2.1 4.9 6 8.6 7.2 2.5.7 5.3.6 7.8 1 2.4.4 4.7 1.6 7 2.6 3.5 1.7 7-.1 10.3-1.4q5.1-1.7 10.4-1.6c2.6 0 5.2.6 7.8.6 2.3-.2 4.7-1 7-1.6 2-.7 4-1.9 6-2.7q3.3-1.2 6.9-1.3c2.3 0 4.7.3 7-.5 4.2-2 9.1-5.8 13.8-2.5" class="b"/><path d="M9 61.3c2.8.6 5.9.4 8.7 1.1q3.5 1.2 6.9 2.8a7 7 0 0 0 6 .1c4-2 7.9-4.3 12.2-5.5C46.5 58.6 50.6 58 54 56c5.8-3.2 12-10.1 19-9.3 3.3 1 5.6 3.8 8.7 5.2 2.4 1.1 5.3 1 7.8 2q3 1.3 5.2 3.7 3 2.9 7 4.7c2.4 1.1 5.1 1.6 7.7 2.4 2.3.8 4.5 2.2 7 2.6 2.3.5 4.7-.5 6.8-1.4q3.9-1.6 7.8-2.7 3.8-1.2 7.8-.7l4.4.6q1.6 0 3.4.3c3.7 1 6 .5 9.5-.7a24 24 0 0 1 8.7-.8c2 .1 4.3 0 6-1.2 3.6-2 7.8-6.5 12.2-4.8" class="b"/><path d="M9 59.4c3.1.8 6.5.6 9.5 1.5 3.7 1 7.4 3 11.3 2.5 5.4-1.2 10.2-4.3 15.6-5.9 4-1.1 7.9-2.5 11.2-5C62 49 69.7 40.3 76.6 44c2 1 3.9 2.4 6 3.1q3 .8 6 1.2 3.1.7 5.2 3c5 5.2 8.2 8.5 15.6 9.4 2.7.4 5.2 1.7 7.8 2.3 3.3.7 6.6-.6 9.5-1.9q4.3-1.9 8.7-3.4 3.8-1.2 7.8-.7 2.8 0 5.2 1.7c4.1 3.2 6.2 3 11.2 2.3 3.1-.5 6.5 0 9.5-1 4.3-1.5 9.4-7.5 13.9-7" class="b"/><path d="M9 57.4c3 1 6.4.8 9.5 1.5 4.5 1 9.3 2.4 13.9 1.2 3.3-.9 6.3-2.6 9.5-3.8q4.3-1.4 8.7-2.5c5.8-1.6 10.2-5.8 14.7-9.6 5.6-4 8-5.4 14.7-2.6 2.4 1 5.2 1 7.8 1.5 3 .7 5.1 3 6.9 5.4 2.2 2.7 4.6 5.7 7.8 7.4 4.3 2.3 9.4.6 13.8 2.2 4 1.3 8.3.5 12.2-1.1 5.6-2 11-5.7 17.3-5.9 5 1.3 6.5 7.7 13 7.8q4.8 0 9.5-1c2.4-.8 4.7-2.4 6.9-3.7 2.4-1.4 4.8-3.5 7.8-3.7" class="b"/><path d="M9 55.5c2.5.8 5.2.9 7.8 1.2q5.6 1 11.3.8 3 0 6-1c2.3-.7 4.6-2 7-2.8 6.8-2.4 12.7-1 19-6 4.5-3.3 8-9 13.8-10 2.6-.4 5.3.6 7.8 1 2.7.5 5.6.8 7.8 2.4 5.8 4.4 8 13.3 16.5 13.9 4 .4 8-1.3 12-.6q6.7.8 13-1.4c5.5-1.2 10.3-4.5 15.6-6 4.4-.4 6.5 5 9.6 7.2 3.8 3.3 9.5 2 13.8.2q3.5-1.5 7-3.3c1.8-1 3.9-2.2 6-2.6" class="b"/><path d="M9 53.6q3 .8 6 1 3 .4 6.1.7 6.2-.1 12.2-1.5c3.2-.8 6.2-2.7 9.5-3.4 2.5-.5 5.2-.4 7.8-.5 6.9-.2 11.3-3.6 15.6-8.7 5.8-6.8 8-6.6 16.4-4.7 14.5 2.9 10.3 21.6 31.2 15.7 3.3-1 6.9-1.1 10.3-1.4 4-.5 8.2-.6 12.2-1.2 3.3-.8 6.4-2.6 9.5-4.2 3-1.5 5.3-2.3 7.8.7 3.8 4.4 6.3 8.6 13 6.6l9.5-3.2c2.3-.8 4.6-2 6.9-2.7" class="b"/><path d="M9 52q3 .7 6 .9 3 .4 6.1.5 4-.3 7.8-1.2 5-.9 9.5-2.8T48 48c11.2 1 14.5-2.9 20.7-11.3 2-2.4 4.7-4.2 7.8-3.5q3.5.6 7 1.6c3.7 1 6.4 4.1 8.6 7.1 5.7 8 8.8 10.9 19 9.4 5.8-1.4 11.4-4.1 17.4-4.4q3.5-.1 6.9.6c4.8.6 9-2.3 13-4.8 3.4-2.2 5-2 7.7 1.3 4 5.1 6.4 6.9 13 4.9 2.5-.8 5.2-1 7.8-1.5l6-1.7" class="b"/><path d="M9 50.5q3 .5 6 .8 2.7.4 5.3.4 4.4-.2 8.6-1.3 4.5-1 8.7-2.6 4.6-2 9.5-1.3c5 .6 10.5.3 14.7-2.7 3.4-2.5 5.2-6.7 7.8-10q3-4 7.8-2.3l6.9 2c3 1 5 3.7 7 6.1C97 47.7 100.4 51.1 111 50c4.3-.7 8.3-2.7 12.2-4.4 3.4-1.7 7.5-2.6 11.2-1 5.1 2.3 9.8.6 13.9-2.9 2.2-1.3 5.1-4.4 7.7-2 2.9 2.5 5.3 6.5 9.6 6.6q3.4-.2 6.9-.4 5.2.2 10.4-.8" class="b"/><path d="M9 49.2q3 .5 6 .7 2.3.4 4.4.4a66 66 0 0 0 19-4q2.6-1 5.2-1.3c2-.1 4.1.3 6.1.3q3.5 0 7-1c2.4-.6 5-1.5 6.8-3.4 3.2-3.2 4.4-8.1 7.8-11.1 2.8-2.2 6 .4 8.7 1.3 2.2 1 4.9 1.2 6.9 2.6 3.9 2.9 6 7.5 9.5 10.8 4.5 4.3 11.5 4.8 17.3 3.5q4.6-1.2 8.7-3.6c3.6-2 7.9-5 12.1-2.8 2.4 1.2 5 2.3 7.8 2a12 12 0 0 0 6-3l3.5-2.4c1.2-.9 2.7-2.1 4.3-2 1.7.5 3 2 4.4 3q2.2 2.2 5.2 3.1c2.8.8 5.8.8 8.6 1.2 2.9.5 5.8 1.3 8.7 1.2" class="b"/><path d="M9 48q4.4.6 8.7.8 3.5 0 6.9-.6 4-.3 7.8-1.1c2.9-.7 5.8-2 8.6-2.8 2.8-1 5.8-.3 8.7-.5Q55 42.8 60 41c7.2-2.1 7.6-13.6 13-14.3 2.6.4 4.5 2.8 6.9 3.9 2 1.3 4.8 1.4 6.9 2.7 4.6 2.9 6.6 8.6 11.2 11.5 6.5 3.7 15.2 2.1 21.7-.8q3.6-1.6 6.9-3.9c2.6-1.6 5.8-2.9 8.7-1.2q2.7 1.7 6 2.3c2.8.5 5.5-1 7.8-2.5q2.8-1.6 5.2-3.6 2.9-2.6 6-.5 3 1.8 6.1 3.3c2.8 1.1 5.8 1.7 8.7 2.7 2.6.9 5 2.6 7.8 3.2" class="b"/><path d="M9 46.7q4.4.5 8.7.3 3-.3 6-.7c3.8-.2 7.7 0 11.3-1.3l7.8-2.4q2.5-.3 5.2-.6 3.4-.7 6.9-1.7c3.3-1 7.2-1.5 9.5-4.5 1.4-1.7 2.5-4 3.5-6s3-6.5 6-4.5c2.7 2 4.8 5 7.8 6.5 2.3 1.1 5 1.5 7 3.3 4.8 4 6.6 9.4 13.8 10 8.5.9 17-2.2 24.2-6.6 2.9-1.8 6.2-3.8 9.5-1.8 3.7 2.5 8 3.6 12.2 1.3 1.7-1 3.7-1.7 5.1-3 1.9-1.5 3.7-3.5 6.1-4 1.7-.3 3.6.4 5.2 1l5.2 2q3.1 1 6 2.9c2.4 1.5 4.6 3.6 7 5.1" class="b"/><path d="M9 45c4.7.3 9.3-.6 13.9-1.2 3.1-.2 6.4.6 9.5 0q5.3-1.1 10.4-2.8l14.7-3.8c5.2-1 7.3-3.7 9.5-8.2 1.4-2.5 3.5-8.7 7-5 2.9 3 5.2 7.3 9.5 8.8 1.7.6 3.7 1.1 5.1 2.3 6.1 4.7 7.6 8.9 16.5 8.4 8-.6 15.5-3.7 22.5-7.4 2.9-1.6 6.4-3.3 9.5-1.3a14 14 0 0 0 5.2 2.4q3.6.7 7-.9c1.3-.6 3-1.1 4.2-2 3.5-2.5 6.6-6.6 11.3-6.6 8.3-.4 13 5.7 18.2 11.1" class="b"/><path d="M9 43c3-.1 5.8-1 8.7-1.3q3.4-.9 6.9-1 2.6.3 5.2.8c4.8.5 9.4-1.4 13.8-3Q49.2 37 55 35.8c3.4-.8 6.4-1.3 8.6-4.3 1.7-2.2 3-5 4.4-7.4 1.2-2.2 2.8-4 5.1-1.7 3.3 3.5 5.5 8.7 10.4 10.3 1.7.6 3.7.8 5.2 1.9 5.4 3.6 8.4 7.6 15.6 6.9 7.5-.7 14.6-3.5 21.6-6 2.6-1 5.1-2.4 7.8-2.9 5-1 6.2 3 11.3 3q4 0 7.8-1.5c3.1-1.6 5.7-4.2 8.6-6 10-6.9 15.2-.6 21.7 7" class="b"/><path d="M9 40.7q4.7-1.5 9.5-2.4c2.3-.5 4.6-1.2 7-1 2.6.3 5 1.8 7.8 1.6 4.2-.2 8-2.2 12-3.4s8.2-1.4 12.2-2.5c6.4-2 8.7-14.3 13-12.8 1.8.8 3 2.8 4.3 4.3 2.2 3 5 6 8.7 7.2 1.3.5 3 .6 4.3 1.1 4.3 2.1 8 6 13 6.3 3.2.2 6.4-.7 9.5-1.4 5.5-1.1 10.9-2.8 16.4-3.7l7-1.8q2.5-.8 5.1-.2 2.3.6 4.4 1.6c3.7.7 7.8.5 11.2-1 11.8-6.1 17-14.1 28.6-1.5" class="b"/><path d="M9 38q4.6-2 9.5-3c2-.6 4-1.5 6.1-1.6 3-.2 5.6 2.2 8.6 2.4 4.3.2 8.2-1.9 12.2-2.8 3.6-1 7.8-.4 11.2-2.3 2.6-1.6 4.4-4.3 6-6.8 1.6-2.1 3.8-6.4 7-4.6 2.4 1.6 4 4.4 6 6.4 2.1 2.3 5 3.4 7.9 4.4 1.3.6 3 .7 4.3 1.1 6.7 3.2 10.1 7 18.2 4.6 5-1.5 10.3-2 15.5-2.7 2.9-.2 5.9 0 8.7-.5 3-.3 5.7-1.7 8.6-2 3.5-.1 7 1.4 10.4 1.4 4.5 0 8.9-1.5 13-3.2 7.3-2.7 14-8.2 20.8-1" class="b"/><path d="M9 35.2q4.6-2.4 9.5-3.7c2.3-.7 4.5-2 7-2 2.2 0 4.1 1.2 6 2.2q1.7.6 3.5.7c4.7 0 9-2.2 13.8-2.1 8.6.3 10.2-8 15.6-12.3 3.8-2.2 7 3.7 9.5 6q2.5 2.6 6 3.6l5.3 1.3c1 .3 2.4.4 3.4 1 3.1 1.5 6.2 3.3 9.6 4 3.6.7 7-1.3 10.3-2.1 2.8-.8 5.8-.6 8.7-.6 1.7 0 3.5-.3 5.2 0 2.8.2 5.8.7 8.6.3 4-.5 7.4-2.8 11.3-3.1q2.6-.2 5.2.3 2.2.6 4.3 1 6.6.2 13-1.2 4.2-1 7.8-3.6c3.6-2.3 6.8-3.5 10.4 0" class="b"/><path d="M9 32.3q4.6-2.6 9.5-4.4 3-1.4 6.1-2.2c3.2-.8 5.8 1.7 8.6 2.5 4.5 1.7 9.3 0 13.9.2 7.3.6 10-7.3 14.7-11.3 2.1-1.7 4.2-1 6 .7l5.3 5.1c1.9 1.8 4.3 3.3 6.9 3.7 2.5.5 5.3.5 7.8 1.2 2.8 1.3 5.6 3 8.6 3.5 5.2 1.5 9-2.9 13.9-3.5 2-.3 4 .1 6 .4q2.7.3 5.2.6c4 .8 8.1 2 12.1.7 3.6-1 6.8-3.2 10.4-3.9 3.4-.7 6.4 1.2 9.6 2q4.6.9 9.5.8c10.6.7 13-12.1 19.9-6.2" class="b"/><path d="M9 29.4a47 47 0 0 1 14.7-7c3-.6 6 .6 8.7 1.8q4.5 1.8 9.5 2c2 .1 4.1.4 6 0 6.2-1.6 8.3-9 14-11.3 2.8-.7 5 2 6.8 3.7a50 50 0 0 0 5.2 4.3c2.7 2 6.2 3 9.5 3.1l3.5.1c1.2.2 2.4 1 3.5 1.5 2.8 1.4 6.3 2.1 9.5 1.3 3.6-1.2 6.4-4.5 10.4-5 3.2-.3 6.3 1.5 9.5 1.8 3.4.7 6.8 2.4 10.4 2.2 3.4 0 6.5-1.6 9.5-3 2.4-1.2 5-2.5 7.8-1.8q3.2.6 6 2 3 1.1 6.1 1.5c2.8.5 5.9 1 8.7.1 6-1.6 8.9-12 14.7-7" class="b"/><path d="M9 26.6c6.3-5 12.6-8.8 20.8-5.8 4.5 1.2 9 3.2 13.8 3.4 2.6.1 5-1.2 7-2.8 3.4-2.6 7.2-8.8 12-7.5 3 1.2 5.2 3.9 7.9 5.6 3.6 2.5 7.6 4.8 12 5.4 1.8.3 3.7-.1 5.3.4 1.4.6 2.8 1.6 4.3 2q4 .7 7.8-1c2.8-1.4 5-4 7.8-5.2 2.9-1.5 5.9-.6 8.6.6 1.7.6 3.6.8 5.2 1.5 4.2 2 8.4 3.4 13 1.7 2.6-1.1 5.1-2.7 7.8-3.7 1.9-.7 4-.4 6-.3 2.2.1 4.2 1.2 6.1 2.2q4.6 1.7 9.5 2.1c11.4 1.4 12-13.8 19-7.7" class="b"/><path d="M9 23.8c4.5-4.4 9.3-7 15.6-5.2 4 .9 8.2 1 12.1 2.2 4.3 1.3 7.5 1.4 11.3-1.3 4.2-2.6 8.3-8.3 13.8-6.4 2.5.9 4.7 2.7 7 4 3 1.8 6.3 3 9.5 4.6q2.5 1.1 5.1 1.8 1.8.2 3.5.5c3.4 1.5 4.7 3 8.7 1.9 5.8-1.3 8.6-8.3 14.7-9 2-.1 4.1.8 6 1.6 1.7.7 3.6 1 5.2 1.8 4.3 2.3 8 4.3 13 2.2 3.1-1.3 6-3.9 9.5-3.8 2.6 0 5.3-.3 7.8.6q6.1 3.1 13 3.3c10.7.7 11.2-14.1 18.2-7.3" class="b"/><path d="M9 21.1c2.4-2.8 5.7-5 9.5-4.1 1.7.4 3.5 1.2 5.2 1.3 3.8.4 7.6-1 11.3-.4 5.7 1 8 1.2 13-2.1 5.5-3.6 9-5.6 15.5-2.8l11.3 4.7q3.8 2 7.8 3.6 2.7.8 5.2 2.1c1.5 1 3.3 2.1 5.2 1.8 7.8-1.1 10.4-11.1 18.1-11 2.1 0 4.1 1.1 6 1.7q2.8.7 5.3 1.9c5.3 3.5 9 4.9 14.7 1 2-1.2 4.4-2.4 7-2 2.5.2 5.2-.4 7.7.4q6.6 2.8 13.8 2.5c9.8 0 10.5-14 17.4-6.5" class="b"/><path d="M9 18.7c5.4-6 7-1.8 13-1 2.4.1 4.7-.7 7-1.3 1.9-.5 4-1.2 6-1.2s4 .3 6 0c4-.6 7.4-3.3 11.3-4.3a18 18 0 0 1 7.8 0l6 1.2c6.4 2 12 5.8 18.2 8.3q2.3 1 4.3 2.3c1.3.8 2.9 1.5 4.4 1.2 6.9-1.7 9.5-10.3 16.4-11.7 2.7-.6 5.3.5 7.8 1.2q2.2.4 4.3 1c1.8.8 3.5 2.1 5.2 3 6.4 3.6 8.4-.7 13.9-2.3 1.3-.2 3 .1 4.3 0q2.6-.2 5.2-.2c1.7.1 3.5 1 5.2 1.2q5.2.8 10.4.6C175.4 16.4 176 3 183 11" class="b"/></svg>