<svg xmlns="http://www.w3.org/2000/svg" id="a" width="1920" height="2400" viewBox="0 0 192 240"><defs><style>.b{fill:none;stroke:#fff;stroke-miterlimit:10;stroke-width:.3px}</style></defs><path d="M0 0h192v240H0z" style="stroke-width:0"/><path d="M8.5 227.4a30 30 0 0 0 23.5 3.4c2.3-1 4.3-3 6.1-4.6 1.4-1.3 3.2-2.7 5.2-2.7 2.2 0 4.3 1 6.1 2 3 1.7 6.1 3.7 9.6 3.7 4.5 0 7.6-3.8 11.3-5.8 4.2-2.4 9.2-2.5 14-2.4 3.1.1 6.4.5 9.5-.4 2.6-.5 5.4.2 7.9.9 6.6 2.3 10.4.2 16.5-2.2 6.8-2.6 11.8 4 16.6 7.8 2.6 2.2 6.4 2 9.5 1 2-.3 3.7-1.5 5.3-2.6 3.8-2.6 6.7-.3 10.4 1 2.8 1 5.8.4 8.7.7 5 .9 9.9 2.5 14.8 3.7" class="b"/><path d="M8.5 225.7c6.1 4 11 5.3 18.3 5 5 0 8.5-2.3 12.2-5.5 2.4-2 5.7-2.2 8.7-1.5 7.5 1.8 11.1 3.1 18.3-1 6-4.1 12.6-1.7 19.1-.8q3.1.5 6.1 0c1.5-.4 2.9-1.3 4.4-1.5 3.4-.7 7 .2 10.4 0q4.2-.5 7.9-2.6c3-1.7 6.1-3.3 9.5-1.6a44 44 0 0 1 7.9 5c2.4 2.1 5.2 4.4 8.7 4 2 0 4.1-.6 6-1 2-.7 4-1.8 6.2-1.3 2.7.7 5 2.8 7.8 3.2 2.3.4 4.7-.6 7-.7q3 0 6 .6 5.2.8 10.5 2" class="b"/><path d="M8.5 223.7c3.4 2.4 7 5 11.3 5.4H25c2 0 4.2.2 6.1-.2 4-.8 6.8-4 10.5-5.6q4.3-1.1 8.7-1.2c3.5-.1 7-.1 10.5-1l7-2.4c4.4-1.1 8.9 1.2 13 2.9 3.2 1.3 7 2.5 10.4 1.4 2-.7 4-2 6.1-2.4 3.2-.7 6.5-.8 9.6-1.8q3.2-1.1 6-3c2.4-1.3 5.1-2.8 8-2.3 3.4.8 6.4 3 9.5 4.6 2 1 3.9 2.6 6 3.1 3.2.8 6.5-.3 9.7-.4 5.1-1 7.2 2 11.3 4.4 3.3 1.9 6.2-.2 9.6-.5q3-.1 6 .2 5.2 0 10.5.8" class="b"/><path d="M8.5 221.5c5.4 4.1 8.6 6.6 15.7 6.1 7.6.2 9.2-.1 15.7-4.3q2-1 4.3-1.6 3-1.2 6-2.1c3.8-.9 7.7-1.3 11.4-2.2 2.6-.6 5.2-1.4 7.9-1.2 6.3 1 10.8 7 17.4 7.5 3.2.6 5.8-1.2 8.7-2.5q3.8-1.3 7.8-2.7c5.3-1.7 9.9-6 15.7-6 2.7-.2 5.4 1 7.8 2.2q3.9 1.4 7.9 2.7c3.6 1 7.6-.3 11.3.5 5.2.7 8.2 6 13 7.6 2.6.8 5.3-.5 7.9-.7q3-.3 6-.4c3.5-.5 7-1 10.5-.7" class="b"/><path d="M8.5 219c3.7 2.8 7.4 6.4 12.2 6.9q3 .2 6 .2 3.1.2 6.2-.6c3.7-1 6.8-3.6 10.4-4.8 3.2-1.6 6.1-3.7 9.6-4.4q4.3-.8 8.7-1.7c2.6-.4 5.3-1 7.9-.2 4.6 1.4 7.8 5.5 12.1 7.5 2.7 1.3 5.8 2.6 8.8 1.6 1.8-.6 3.5-2 5.2-2.8q4.3-2.1 8.7-4.2 3.4-2 7-3.7 5.4-1.7 11.3-.8c2.3.4 4.6 1.6 7 2q3.8.7 7.8.7c6.3-.6 10 1.4 14.8 5.5 2.3 1.9 4.8 4 7.8 4.9 2.3.5 4.7 0 7-.2 2-.3 4.1-.2 6-.6 3.5-.9 7-2.2 10.5-2.3" class="b"/><path d="M8.5 216.3c3.9 2.8 7.4 6.5 12.2 7.6q3.5.6 7 .5 4.6.2 8.7-1.9l4.3-2.2q1.8-.7 3.5-1.8 2.1-1.6 4.4-3 2.4-1.1 5.2-1.6l7-1.3c2.8-.5 5.9-1 8.6.2 4.3 1.8 7.2 5.8 11.4 7.8 3.7 2.4 7 3.7 11.3 1.3q4.6-3 9.6-5.6c2.6-1.4 5-3.2 7.8-4.4 2.2-1 4.6-.9 7-1 2-.1 4-.6 6-.4 2.7.4 5.2 1.8 7.9 2.1 2.9.2 5.8-.7 8.7-.5 6.3.5 10.6 6 15.7 9q3.9 2.9 8.7 3.3h5.2c1.4-.2 3 0 4.4-.4 3.5-1 6.7-3 10.4-3.4" class="b"/><path d="M8.5 213.5c4 2.7 7.5 6.5 12.2 8.1 2.8 1 5.8 1 8.7.9 3.4 0 6.7-1.3 9.6-3 2-1 4.4-2 6-3.6q3.9-3.2 8.8-3.9l7-1.2c2.8-.6 6-.9 8.7.4 4.1 2.1 7 6.2 11.3 8 3.9 2.6 7 3.6 11.3 1.2q4.7-3 9.6-5.8c2.5-1.4 5-3.3 7.8-4.2 2.2-.7 4.7-.4 7-.9 2-.4 4-1.3 6-1.1 3 .3 5.7 2.5 8.8 2.5 2.3 0 4.6-1 7-.8 2.9.3 5.5 2.2 7.8 3.9q4 3.2 8.7 5.7 6.1 3.3 13 3.1c2 0 4.2.3 6.1-.2 3.3-1 6.3-3 9.6-3.7" class="b"/><path d="M8.5 210.7c4.3 3 8.1 6.9 13 8.8a20 20 0 0 0 8.8 1q4.6-.3 8.7-2.8c1.7-1 3.7-1.7 5.2-3q3.7-3.4 8.7-4.2l7-1.3c2.8-.7 5.9-1.3 8.7-.2 3.7 1.4 6.3 4.8 9.6 7 5.2 2.4 8.1 5.2 13.9 2.1l9.6-5.7c2.2-1.2 4.5-2.8 7-3.5 2.2-.7 4.7-.4 6.9-1.1s4.5-2 7-1.8c3 .3 5.5 2.8 8.7 3 2 .1 4-.8 6-.7 3 .2 5.5 2.3 7.9 4q4.5 3.3 9.6 5.5a30 30 0 0 0 11.3 2.4c2.3 0 4.7.4 7 .4 3.7-.2 6.9-2.6 10.4-3.5" class="b"/><path d="M8.5 208.4c4.5 3.1 8.7 7 14 8.8 5 1.8 11 1.5 15.6-1.2q3.6-1.8 7-4.1 3.5-2.3 7.8-2.9 3.5-.7 7-1.6c2.5-.7 5.2-1.4 7.8-.7 3.8 1 6.5 4.2 9.6 6.6 1.5 1.2 3.5 1.8 5.2 2.6 3.4 1.8 7.3 1.1 10.5-.9l9.5-5.4q2.6-1.4 5.3-2.3c1.3-.4 3-.5 4.3-.7 3.6-.5 6.7-3.4 10.5-2.9 3.3.5 6 3.5 9.5 3.2 1.7-.1 3.5-.8 5.3-.5 3 .6 5.2 3 7.8 4.6 4 2.4 8.4 4.8 13 5.9 4 1 8.2.2 12.3.7 5.2 1.4 8.4-.8 13-2.8" class="b"/><path d="M8.5 206.6c3.2 2 6.1 4.6 9.6 6.2 5.3 2.7 11.7 4 17.4 1.9 3.6-1.6 6.8-4 10.5-5.4 3-1.3 6.4-1.6 9.5-2.5 4.2-1 8.7-3.6 13-2 3.7 1.5 6.5 4.6 9.7 6.8 7.5 4.8 11.1 3 18.3-1 3-1.6 6.2-3.5 9.5-4.8 2-.6 4.2-.7 6.1-1.3 3.2-.9 6.2-3.2 9.6-3s6.1 3.1 9.6 3c2 0 4-.8 6-.2 2.7 1 4.6 3.1 7 4.5 4.1 2.3 8.4 4.7 13 5.6 3 .6 6 .3 8.8 0 8.5-.9 8.3 3 17.4-2.3" class="b"/><path d="M8.5 205c2.4 1.4 4.6 3.2 7 4.5 5 2.6 10.9 4 16.5 3 3.5-.3 6.4-2.7 9.6-4 5.3-2.1 11.2-2.4 16.5-4.6 3.9-1.5 8.4-3 12.2-.5 5.2 3 10 9.5 16.6 8.9 2.7-.4 5.3-1.8 7.8-3q4.3-2.3 8.7-4.4c3.4-1.5 7.1-1.8 10.5-3.4 5.6-2.5 7.4-2.6 13 0q2.1.8 4.4.6c2-.3 4.2-.9 6 .1 1.9 1 3.5 2.6 5.3 3.6 4 2.5 8.4 5 13 6.1 3.8 1 7.7.2 11.4-.6 6.5-1.2 10 2.4 16.5-2" class="b"/><path d="M8.5 203.7c3.7 2 7.2 4.6 11.3 5.5q7 1.6 14-.3c2.1-.6 4-2 6-3 3.7-1.1 7.6-1.3 11.4-2q4.9-1.2 9.5-3.2c3.1-1.2 6.7-1.5 9.6.4 4.6 2.6 9.6 8.6 14.8 9.1 3.5 0 6.6-1.7 9.6-3.2 3.7-1.8 7.4-3.8 11.3-5 4.1-1.2 8-3.2 12.2-4 2.4-.5 4.8.3 7 1.1 5 2 7.8-1.7 12.2 1.3q5.3 4 11.3 6.8c5 2.7 10 4.1 15.7 2.4 2.2-.6 4.6-1.4 7-1.4 4.1.2 8.4.7 12.1-1.6" class="b"/><path d="M8.5 202.2c3.7 1.8 7.2 4.4 11.3 5q6.8.8 13-1.4c2.2-.8 4-2.2 6.2-2.8 4-1.1 8.2-1 12.2-1.8 3.9-.7 7.5-2.5 11.3-3.4 6.3-1.8 10.3 2.8 14.8 6.2 6 4.8 7.7 5.3 14.8 2q7.6-3.9 15.7-6.9c4.1-1.4 8.5-3.3 13-2.7l5.2.9c4 .1 6.8-2 10.5.7q3.7 2.9 7.8 4.7 3.5 2 7 3.7c6.1 3.1 10.3 2.4 16.5 0 5-1.7 10.8.1 15.7-2.4" class="b"/><path d="M8.5 200.5c3.2 1.4 6.2 3.4 9.6 4.3 5.4 1.2 11-.6 15.7-3.3a21 21 0 0 1 8.7-2.6c3.7-.2 7.6-.3 11.3-1.2 3.5-.8 6.9-2.3 10.4-2.7 5-.6 8.8 3.1 12.2 6.1 3.1 2.6 6 6.5 10.5 5 2.7-.9 5.3-2.3 7.8-3.4l10.5-4.9c3.8-1.6 8-3 12.2-3.2 2.2-.2 4.6.2 7 .3 3.6 0 7-1.9 10.4.4 3.6 3 8.1 4.5 12.2 6.8 5.8 3.4 11.4 6.6 18.2 3.5 2.3-.9 4.6-2 7-2.3 3.8-.4 7.7-.1 11.3-1.5" class="b"/><path d="M8.5 198.5c3.2 1.2 6.2 3 9.6 3.7 5.9 1.2 10-1.8 14.8-4.5q4.1-2.3 8.7-2.8c3.8-.3 7.6 0 11.3-.6s7.5-1.8 11.3-2c11.2-.4 14 12 20 12.6 1.9 0 3.7-.8 5.3-1.5l6-2.8c3.4-1.5 6.4-3.5 9.7-5.1q4.9-2.4 10.4-2.8c2.6-.3 5.3 0 7.8-.3 3-.4 6-1.3 8.8 0 1.8.7 3.4 2.2 5.2 3.2q4.4 2 8.7 4.1c5.6 3.3 11.6 7.5 18.3 4.6 2-.8 4-2 6-2.7 4.3-1.2 8.8-.4 13.1-1.5" class="b"/><path d="M8.5 196.2c5.8 1.7 10.7 4.5 16.5 1.4 2.1-1 4-2.7 6.1-3.7a33 33 0 0 1 10.5-3c4-.3 8.1.1 12.2-.3 4.6-.5 9.3-1.6 14-.7 9.3 1.9 11 12 16.4 13.4 3.5 0 6.5-2.1 9.6-3.4 5.2-2.3 9.3-6.7 14.8-8.2 4-1.2 8.1-1.5 12.2-1.8 2.9-.2 5.9-1 8.7-.2 2.6.6 4.7 2.6 7 3.8q4.8 2.2 9.6 4.7c6 3.5 12 7.7 19.1 4 8.5-5 9.5-2.8 18.3-3.4" class="b"/><path d="M8.5 193.4c5.3.8 10.6 2.6 15.7-.3q1.7-1 3.5-2.1 2-1 4.3-1.6 4.7-1.4 9.6-2.1 3.9-.1 7.8 0c12.7.2 21.4-3.8 29.6 8.7 1.8 2.3 3.7 5.8 7 5.6 3-.6 6-2.2 8.7-3.7 4.3-2.7 8-6.6 13-8.3q6-1.9 12.2-2.2c2.6-.3 5.3-.7 7.9-.1s4.8 2.3 7 3.7q5 3 10.4 5.5c5.4 2.6 11.1 7.1 17.4 4.9 2.5-.9 4.7-2.4 7-3.6 4.3-2.2 9.3-.3 13.9-.2" class="b"/><path d="M8.5 190.2c4 0 8.3.5 12.2-.8 1.8-.6 3.5-1.8 5.2-2.5 2.5-.9 5.3-1 7.9-1.3 2.3-.3 4.6-1 7-1.2 2.8-.3 5.8 0 8.6 0q4.5.1 8.7-.2c5.8-.3 12 .4 16.6 4.3 2.7 2.3 4.7 5.4 7 8.1 1.2 1.6 3 3 5.2 2.8 3.5-.5 6.7-2.7 9.5-4.9 5.8-4.8 10-7.5 17.4-8.8q3.5-.7 7-1c2.3-.2 4.8-.3 7 .5 2.6.8 4.7 2.8 7 4.3 3.5 2.2 7.3 4.5 11.2 6.1 4.7 2.2 9.5 5.5 14.8 4.3 2.6-.6 4.8-2 7-3.4 5.2-3.7 10-1.2 15.7-.3" class="b"/><path d="M8.5 187.3q4.9-.4 9.6-2c2.3-.6 4.5-2.3 7-2.6 3.1-.5 6.4.1 9.5-.1 2.3-.2 4.7-.9 7-1h7c7.5.6 15.7-1.5 22.6 2.5 4.7 2.5 7.7 7 11.3 10.7 4.7 4.7 10.9-.4 14.8-3.7 5.3-4.5 10.6-6.9 17.4-8q3-.6 6.1-.8c2.3-.2 4.8-.2 7 .8 3.2 1.5 5.7 4.3 8.7 6 3.7 2.6 8 4.3 12.2 6 6.5 3 11.1 4.1 17.4-.3 2-1.4 4.3-3 7-3.2 3.5-.2 7 1.5 10.4 2.4" class="b"/><path d="M8.5 185q4.6-1 8.7-3c2.7-1.6 5.5-2.8 8.7-2.6 3.2 0 6.4.6 9.6.4 2.3-.2 4.7-.8 7-.8q6 .1 12.2.1c4.3 0 8.8-.4 13 .9 5.6 2.3 9.5 7.5 14 11.4 5 4.8 10.3 1 14.8-2.6a34 34 0 0 1 17.4-8c4.5-.7 9.6-2 13.9.2 3.4 2 6 5.2 9.6 7 4 2.6 8.6 3.9 13 5.5 6.8 2.6 10.8 2 16.6-2.3 1.8-1.2 3.8-2.5 6-2.6 3.7-.3 7.1 1.4 10.5 2.5" class="b"/><path d="M8.5 183.1c3.7-1.1 7-3.4 10.5-4.9 3.6-1.3 7.5-1.2 11.3-1.3q4.3.4 8.7 0c3.7-.4 7.6 0 11.3 0l11.3-.2c2.3 0 4.9 0 7 1 4.7 2.7 7.8 7.6 12.2 10.7 5.1 4 10.3 1.5 14.8-2.1 5.8-4.8 10-6.3 17.4-7.5 4.5-.7 9.5-2.1 14-.3 2.9 1.4 5 4.2 7.8 6 4.5 3.5 10.3 4.8 15.6 6.4s10 2 14.8-1.3c2-1.3 4-2.8 6.1-3.5 4.1-1.2 8.4.3 12.2 1.7" class="b"/><path d="M8.5 181.7c2.4-1.1 4.7-2.8 7-4 4-2.2 8.7-2.1 13-3.1 2.6-.6 5.3.2 7.9.4q4.7.1 9.6.1 6 .4 12.1-.3c3.2-.3 6.5-1.1 9.6-.3 6.8 2.8 9.4 12.6 17.4 13 7.6 0 12.3-7.3 19.2-9.2 2.8-.8 5.8-1 8.7-1.5q3.9-.7 7.8-1c10.2-1.1 9.5 7 21.8 10.3q3.9 1 7.8 2c3.4.8 7 1.6 10.5.8 3.6-.7 6.3-3.5 9.6-5 4.1-1.9 8.9-1.2 13 .3" class="b"/><path d="M8.5 180.4c3-1.4 5.4-4.3 8.7-5.4 2.2-.8 4.7-1 7-1.4 2-.3 4-1.2 6-1.4 2.2 0 4.1 1 6.2 1.4q3.8.7 7.8.6 6.1.3 12.2-.5c3-.4 5.8-1.5 8.7-1.9 8.2-1 10.5 11.7 18.3 12.7 4 .5 7.9-1.7 11.3-3.7a25 25 0 0 1 10.4-5c2.6-.6 5.3-.5 7.9-.7q3.5-.4 7-1c9.7-1.6 10.5 4.6 18.2 7.8 5 2.1 10.4 2.6 15.7 3.6 7.9 1.2 10 .5 16.5-4 4-2.1 8.8-2.3 13.1-.8" class="b"/><path d="M8.5 179.4c2.7-1.2 4.7-3.5 7-5.1q3.5-2.2 7.8-2.4 2.6-.4 5.2-1c2.2-.5 4.2.5 6.1 1.4q3 1.3 6.1 1.6 7.6.6 14.8-.5c3.4-.5 6.4-2.3 9.6-3.4 6.8-2.3 10 7.3 14.8 10.5 4.4 3 9.7 0 14-2 3-1.8 5.9-4.1 9.5-4.7 4.3-1 8.7.2 13-.6 11.7-1.7 9.6-1.5 19.2 4.3q4.1 2.2 8.7 3 4.4.7 8.7 1c5 .3 10.2 2 14.8-.2 5.2-3.2 9.4-5.6 15.7-3.8" class="b"/><path d="M8.5 178.3c4.2-1.1 6.6-5.3 10.5-7.2q2.8-1.3 6-1.3c1.5 0 3-.3 4.4-.1 2.3.2 4 2 6 2.9q4.6 2.2 9.7 1.8 4.8-.2 9.5-.8 3.3-.3 6.1-2c2-1.1 4-2.7 6.1-3.4 5.3-1.5 8.2 5 11.4 8 4.7 5.3 10.3 2 15.6-.3 4-2.2 6.4-4.2 11.3-4.3 3.8-.3 7.6.9 11.4.2 4.3-.5 8.8-2.3 13-.6 5 2.4 10.1 5 15.7 5.6 3.7.2 7.6 0 11.3.3q4 .1 7.8 1c8.4 1.8 9.9-5.6 19.2-3.3" class="b"/><path d="M8.5 176.7c3.5 0 6.4-2.4 8.7-4.7a14 14 0 0 1 5.2-3.5q4.1-1.1 7.9.5 1.8 1 3.5 2.4 2 1.4 4.3 2.2c4.5 1.8 9.3.5 14 .5 2.6 0 5.4-.1 7.8-1.5 3.5-1.7 6.1-6.2 10.4-6 2.2.4 3.8 2.3 5.3 4 3.8 4.7 6.6 7.3 13 5l6.1-2.4c2-1 4-2.4 6-3 4.4-1 8.8.2 13.2.3 3.8-.2 7.5-1.4 11.3-2 3.9-.4 7.6 1.1 11.3 2.2q6 2.1 12.2 1.8c4.9 0 9.9-.4 14.8 0 2.7.2 5.2 1.7 7.8 2.2 1.5 0 3-.9 4.4-1.4q3.8-1.7 7.8-.8" class="b"/><path d="M8.5 174.3c2.3.4 4.9.5 7-.7 3.1-1.8 5.1-5.4 8.7-6.4 4.6-1.3 7 2.2 10.4 4.4 4.6 2.6 8.9 3 14 2.3 3.1-.3 6.4.5 9.5 0 6.5-1.4 10.5-13.4 17.4-5.6 2.6 2.8 5.5 6.2 9.6 5.6 3.3-.4 6.5-1.7 9.6-2.8 2.5-1.2 5-2.8 7.8-3 3.5-.2 7 .6 10.5.7 3.6-.1 7-1.4 10.5-2.2 6-1.7 12.3.7 18.2 2 2.9.6 5.9 0 8.7.3 3 .2 5.9 1 8.8.5 2.6-.2 5.1-1.6 7.8-1.5a9 9 0 0 1 4.3 2c1.9 1.2 4.2.6 6.1.2q3.1-.5 6.1.1" class="b"/><path d="M8.5 171c3.1.6 6.5 2 9.6.6 1.9-1 3.4-2.6 5.2-3.6a6 6 0 0 1 6.1-.3c1.8 1 3.3 2.8 5.2 3.6q6.7 2.8 14 1.9c3.7-.5 7.6 1 11.3 0 4.6-1.7 7-7.6 12.2-8 3.2.3 5.2 3.5 7.8 5 3.1 2 7 1.2 10.5.3q2.2-.5 4.3-1.4c2.8-1.2 5.6-2.7 8.7-2.7 3.2 0 6.4.7 9.6.4 3.6-.4 7-2 10.4-2.8 7.1-1.8 12.6.3 19.2 2.6q2.2.4 4.3.3 2.7.4 5.3 1.5c3.2 1.5 7.2 2.3 10.4.2 2.1-1.1 3.8-3.2 6.1-4.1 1.2-.4 2.5.2 3.5.7 3.5 1.8 7.6 1.4 11.3 2.6" class="b"/><path d="M8.5 167.3c4.2.2 8 3 12.2 2.6 2.5-.5 5.2-2 7.8-1.1 1.5.5 3 1.6 4.4 2.2q5.1 1.8 10.4 1.6c4-.2 8.2-.9 12.2-.2 2 .3 4.3.6 6.1-.3 4-2 6.7-6.6 11.3-7.2 3 0 5.2 2.3 7.9 3.3 3.9 1.3 8.3.7 12.2-.3 2.3-.6 4.6-1.9 7-2.5 4.2-1.3 8.7-.1 13-1 2-.5 4-1.5 6-2.2 4-1.2 8.2-2.3 12.3-1.5 4.1.6 7.7 3 11.3 5q1.7.9 3.5 1 1.8.5 3.4 1.3c5.3 3.1 10.7 6.5 15.7 1 2.2-2.2 3.6-5.4 6.1-7.2 3.6-1.6 8.8 1.8 12.2 3.2" class="b"/><path d="M8.5 163.7c3-.5 6 .4 8.7 1.7l4.4 2.8c2 1.3 4.7 1.7 7 2.6 2.9 1.6 6.3 1.6 9.5 1.3q5.7-.4 11.3-1 3-.3 6.1-.1c2 .1 4.1.5 6.1.1 5-1.2 8.5-6.8 14-6.8 2.9.2 5.7 1.6 8.6 1.9 6.8 1.1 9.6-.3 15.7-2.3 3.7-1.1 7.6-1 11.3-2 3.9-1.2 7.4-3.5 11.4-4.2 8-2 13.4 2.6 19.1 7.3 1.7 1.6 4.1 1.8 6.1 2.8 2.3 1.2 4.5 3 7 3.8 3.6 1 8.2 1.9 11.3-.8 3.8-3.1 5.4-11.7 10.4-12.3 2.7 0 5 2.1 7 3.6" class="b"/><path d="M8.5 160.8c10-2.8 11.9 3 18.3 8.5a11 11 0 0 0 9.6 2.6q3.4-.6 7-1.3 5.6-.8 11.3-1.2c7.6-.4 8.6.8 15.6-3.7 6.3-4.3 9.6-3.3 16.6-1.7q3.9 1 7.8-.1c4.5-1.7 9.3-2.7 14-3.9 3.3-.9 6.3-2.7 9.5-4 6.2-2.8 12.4-.8 17.4 3.4 2.5 1.9 4.5 4.4 7 6.2 1.2 1 3 1.3 4.3 1.9q2.2 1 4.4 2c2.5.8 5.2.2 7.8.3 2.3 0 4.7 1 7 1 6.8-.7 7.6-20.3 17.4-10.6" class="b"/><path d="M8.5 158.7c7.9-2.5 11.3-1.9 16.5 4.5 3.7 4.7 9.7 8.2 15.7 6.7 5.1-1.3 10.5-1.6 15.7-2.5 3.4-.7 7-.6 10.4-1.5s6.4-3.3 9.6-4.6a11 11 0 0 1 7.9-.5c7 2.3 7.8 2.2 14.8-.2q7.9-2.4 15.6-5.2c9.6-3.8 15.3-2.2 22.7 5 2.5 2.4 4.9 5.7 8.7 6.1 2.7.8 5 1.4 7.8.1 5.2-2.4 7.5-1.8 12.2 1.1 2.8 1.7 4.5.6 6.1-2 3-4.3 5.5-12.2 11.3-5.8" class="b"/><path d="M8.5 157.1c4.2-1 9-2.4 13-.5 4.2 1.9 7.5 5.4 11.4 7.7 2 1.3 3.8 3 6 3.7 2 .4 4.2-.3 6.2-.6l7.8-1.2c5-1 9.8-2.6 14.8-3.1 3.7-.7 7-2.7 10.5-4.2 4.3-2 7.2-.2 11.3 1.2 3.9 1 7.8-1 11.3-2.3 3.7-1.6 7.4-3.4 11.3-4.4 6.3-1.4 13.5-2 19.2 1.5q3.2 2 6 4.7c1.4 1.3 2.9 3 4.4 4a9 9 0 0 0 5.2 1.5c5.5 1 8.5-6.3 14-5 2 .6 3.7 2.2 5.2 3.5 1.4 1.2 3.2 3.1 5.2 2.2 4.3-2.7 6.2-13.4 12.2-6.3" class="b"/><path d="M8.5 155.7a70 70 0 0 1 17.4-.4c4.3.8 7.5 4.2 10.5 7.1 1.5 1.8 3.5 3.8 6 3.5q5-.6 9.6-1.5c4.5-.8 8.7-2.7 13.1-3.7 2.3-.5 4.7-.4 7-1 3-.8 5.8-2.4 8.7-3.4 3.7-1.4 6.9 1.6 10.4 2 4 .3 7.8-2 11.3-3.8q4.2-2.4 8.8-3.9c4-1.4 8.2-.5 12.1.4 6.8 1.6 12.3 6.1 17.5 10.6q1.5 1.2 3.4 1.5l3.5-.1c4.3-1 6.2-6.2 10.5-7.2 5.4-1 7.7 5.8 12.1 7.5 2.5.4 4-2.5 5.3-4.1 2.7-4 4.5-4.4 7.8-.6" class="b"/><path d="M8.5 154c4.4-.2 8.7 1.1 13 .7 3.5-.5 7.1-3.3 10.5-1.2 2.1 1.4 3.8 3.6 5.2 5.6 1.4 1.8 2.9 4.1 5.3 4.5 2.6.3 5.2-.6 7.8-1q7.1-1.5 14-4c3-1.1 6.4-.7 9.5-1.5q2.8-.6 5.2-1.7c2.2-.9 4.7-1.8 7-.9 1.4.5 2.9 1.3 4.3 1.6 3.4.8 6.7-1 9.6-2.6q4.6-2.7 9.6-4.7 3-1.4 6-1.7c3.8.2 7.2 2.2 10.5 3.7a96 96 0 0 1 14.8 8.7q2.4 1.6 5.3 1.4c4.4 0 6.3-5 9.5-7.4 4.9-4 9 1.8 12.2 5 5 5 6.7-2.6 10.5-4.6 2.3-.5 3.8 2.3 5.2 3.7" class="b"/><path d="M8.5 151.8c3.8.8 7.5 2.5 11.3 3 2.5.2 5-1 7-2.3 1.8-1 3.8-2.8 6-2.5 5.6 1.8 5.9 11.4 12.3 11.3 4-.3 8.2-1.4 12.2-2.4 3.2-.9 6.3-2.2 9.5-3 2.3-.6 4.7-.3 7-.7 2.7-.4 5.3-1.5 7.8-2.4 3-1.2 6 .5 8.7 1.4 4.5.8 8.5-2.4 12.2-4.4a98 98 0 0 1 10.5-4.4c4.1-1.6 7.8 1.7 11.3 3.4q5.9 3.3 12.2 5.6c4 1.8 8.8 6.5 13 2.9 2.5-2.2 4.2-5.4 7-7.2 4.6-2.7 8.2 2.7 11.3 5.3 5 4.3 6.5-4.1 10.5-4.4 2.4.9 3.5 3.8 5.2 5.5" class="b"/><path d="M8.5 148.7c2.9 1.7 5.6 3.8 8.7 5 5.5 3.4 10.7-1.7 14.8-5 3.2-2.6 5.2-.3 7 2.5 3.7 6.7 5 8.6 13 7q4.6-.9 8.8-2.2 3.4-1.2 7-2.3c2.2-.5 4.6-.2 6.9-.7q3-.7 6-1.8 3.1-1.4 6.1 0 2.2 1 4.4 1.4c4.2 0 7.7-3.2 11.3-5q3.4-1.6 7-3c1.9-.7 4-1.8 6-1.4 1.6.2 3.1 1.3 4.4 2q2.6 1.8 5.2 3.1c3.8 2 8.2 2.5 12.2 3.7 2.8 1 5 3 7.9 3.8 5.1 1.3 7.3-5.8 11.3-7.9 4.4-2.6 7.9 2.4 11.3 4.5 3.9 2.2 5.8-3.4 8.7-4.8 1.5-.5 2.7 1.2 3.5 2.2 1 1.6 2.2 3.6 3.5 5" class="b"/><path d="M8.5 145.2c3 2.5 5.4 5.7 8.7 7.7q3.2 2.8 7 1 3.7-1.4 7-3.8c1.5-1.1 2.8-2.7 4.3-4 4.3-3.4 6.7 6.8 11.3 8.9 4.5 2.1 10.2.6 14.8-.8 3.1-1 6.2-2.7 9.6-2.7q4-.5 7.8-1.8c2-.6 4.1-1.4 6.1-.9 1.8.5 3.4 1.9 5.2 2.3 4.6.7 9.6-4.8 14-6.4l5.2-2c2.2-.8 4.8-1.3 7-.1 2 1 4 2.4 6 3.3q4.6 1.9 9.6 2.3c2 .3 4.2.4 6.1 1.1 3.4 1.2 6.7 5.2 10.5 3.9 2.4-1.3 4-3.8 6-5.5 1.9-1.7 4.7-2.4 7-1.2 3.8 1.8 6.7 5.6 10.5 1.2 1.2-1.2 2.4-3.3 4.3-3.5 3 .8 4.5 6.3 7 8.4" class="b"/><path d="M8.5 141.7c2.1 2.2 4 5 6.1 7.2 1.7 1.4 3.3 3.2 5.2 4.4 2.4 1.1 4.8-.7 7-1.6q2.5-.8 5.2-1.7 2-1 3.5-2.6c1.2-1.3 2.5-3.3 4.3-3.7 3.7-.2 6.8 8 14 9.3 4.8 1.2 9.5-.6 13.9-2.5 2.5-.9 5.3-1 7.8-2 3.1-.7 6.4-2.5 9.6-1.3 1.5.7 2.9 2 4.4 2.6 3.2 1.2 6.2-1.6 8.7-3.3a29 29 0 0 1 6-3.5 19 19 0 0 1 10.5-1.7c2.3.6 4.6 1.8 7 2.2 5 1.3 10.5 1.2 15.6 2.3 2.5.8 4.8 2.4 7 3.7 2.5 1.6 4.5 2.2 7 0 1.9-1.5 3.7-3.5 6-4.3 4.1-1.5 7.6 2.8 11.4 1.8 2-.9 3.6-3 5.2-4.5 4.2-4 6.5 5.4 9.6 7.2" class="b"/><path d="M8.5 138c2.8 3.5 5.2 7.7 8.7 10.7 1.3 1.2 2.6 2.8 4.4 3.2 1.5 0 3-1 4.3-1.6q2-1.3 4.4-1.5c1.7-.2 3.6.2 5.2-.5 5.7-3.6 5.4-9.1 13-3.3 4.1 3 8.6 6.8 14 6 2-.3 4.1-1.3 6-2.1q3.6-1.2 7-2.3c4.2-1.4 7.6-2.6 11.4.5 1.2 1 2.7 2 4.3 1.9 3.4-.6 5.8-3.6 8.7-5.4 7.7-5.2 17.4-3.3 26.1-2.7 3.5.3 7 .2 10.5.6q3.2.6 6 2.4c2.1 1 4 2.8 6.2 3.8 1.8.7 3.7-.5 5.2-1.5 3.5-2.6 6.2-2.9 10.4-1.7 6.8 2 8.9-7.3 13-4.5 2.4 1.8 3.6 5 6.2 6.5" class="b"/><path d="M8.5 134.5c2.8 3.3 4.7 7.5 7.9 10.5 1.5 1.6 3 3.5 5.2 4.4 2.6.8 4.6-1.8 7-2.5 3.7-1.7 6.9 2.2 10.4 0 1.8-1.1 3.3-3 5.2-4 2.8-1.2 6.1-.6 8.7.9 3.2 1.6 6 4.4 9.6 5.1 2.4.4 4.8-.6 7-1.5q3.9-1.5 7.8-2.8c7.8-2.6 8.5 3 14 3.1 2-.3 3.6-1.7 5.1-3q2.4-2.2 5.3-3.7c3-1.5 6.3-2 9.5-2.6a57 57 0 0 1 15.7-1c3.8.2 7.6-.3 11.3.1q3.8.6 7 2.6c1.5 1 2.9 2.4 4.3 3.4 4.6 3 6.6-2.2 14.8-1 6.6.8 9-6.6 13.1-4.3 2.3 1.4 3.7 4.1 6 5.4" class="b"/><path d="M8.5 131.5c3.2 3.6 5.2 8.3 8.7 11.6 1.5 1.6 3.1 3.4 5.2 4 2.6.4 4.7-1.8 7-2.4 4-1.4 7.3 3.2 11.3 2.2 1.8-.6 3.5-1.7 5.2-2.4q3.4-1.5 7-2.1c2.5-.4 5 .9 7 2.2s4.4 2.8 7 2.4 5.2-1.5 7.8-2.3q3-1.3 6-1.6c4.8-.1 8.4 5.3 13.1 2.2 3.3-2 6-5.4 9.6-6.9q3.3-1.4 7-2.3 3.8-1.2 7.8-1.7c3.7-.6 7.6-.1 11.3-.2 5.5 0 11.3-1 16.5 1.2 2.3 1.2 4 3.4 6.1 4.8s4.7.9 7 .4l5.2-.4c7 .3 9.3-6.1 14-3.4 1.8 1.2 3.3 3 5.2 4" class="b"/><path d="M8.5 129.1c3 2.6 4.5 6.4 7 9.4 2.3 2.6 4.8 6.5 8.7 6.4 2.9-.5 5.7-2.6 8.7-1.7 3.3.9 6 3.7 9.6 3.7q5-.2 9.5-2.5c2-1 3.9-2.7 6.1-2.8 3.2 0 5.6 3 8.8 3.5 5.9 1 11.4-3.8 17.4-2.1 2 .5 4 1.5 6 1.7 4.8 0 7.8-4.5 11.4-7a40 40 0 0 1 17.4-6.2c3.1-.5 6.4.2 9.6.3q5.2.4 10.4 0c2.6-.2 5.3-.8 7.8-.1 3.1 1 5.1 4 7.9 5.6 3.2 1.7 7 .5 10.4.6a15 15 0 0 0 5.3-1.1c2.4-1 5-3 7.8-1.8 1.9.8 3.5 2.4 5.2 3.5" class="b"/><path d="M8.5 127c2.8 1.8 4.2 5.2 6.1 7.8 2.7 3.6 6 9 11.3 8 3.7-1 6-1.3 9.6.4 5.2 2.6 10.8 5 16.5 2.7 2.4-.8 4.2-2.9 6.1-4.4 3-2.6 5.8 0 8.7 1.2q3 1.1 6.1.7c3.8-.4 7.5-2 11.4-1.6 7.4 1.3 8.6 2.1 14.8-3.2 3-2.9 6.4-5.6 10.4-7.2a30 30 0 0 1 13-2.1c5.2.8 10.5 2 15.7 1.5 4-.4 8.4-3 12.2-.8 6.1 4.2 5.5 6 14 5.6 9.5.5 10.7-6.3 19.1.6" class="b"/><path d="M8.5 125c2.5 1 3.8 3.8 5.2 5.9 2.7 4 5.3 9.4 10.5 10 1.7.3 3.5 0 5.2 0 3.3 0 6.5 1.6 9.6 2.6 4.6 1.4 10 2.8 14.8 1.7 2.6-.6 4.2-3 6-4.7 2-2 3.9-1.9 6.2-.8 2.2 1 4.5 2.1 7 2.2 2.6.2 5.2-.5 7.8-1q3-.6 6-.5 2.6.3 5.3.2c3.4-.5 6.2-3 8.7-5.1 6.6-6 11-8 20-7.8 2.6.3 5.2 1.3 7.8 1.9 3.7.7 7.7 1.4 11.4.3 2.8-1 5.7-2.2 8.7-2.5 5.5 0 7.3 6.2 13.9 5.9 2.9 0 5.9.3 8.7-.5 4.6-1.4 8.1-2.5 12.2 1" class="b"/><path d="M8.5 122.7c3.2.7 4.5 4.5 6.1 7s3 5.3 5.2 7.3c2.4 2 5.7 2.3 8.7 2.5q2.7.1 5.3.9 7.2 1.4 14.8 2c2.2.3 4.6.8 7 .7 1.2 0 2.5-1 3.4-1.8 1.5-1.4 3-3.6 5.2-4 5.7.3 7.6 4.2 14.8 2.6l6.1-1.4q3-.4 6-.5c5.3-.4 9.2-4.2 13.2-7.1 5.5-4.2 9.9-4.2 16.5-3.9 2.6.5 5.2 1.5 7.8 2 3.4.7 7 1.3 10.5.5q4.3-1.6 8.7-3.1c5-1.9 8.5 3.6 13 4.5q2.2.2 4.4.3 3 .1 6-.2c4.1-.7 8.7-2.3 12.3.6" class="b"/><path d="M8.5 120.3c5.6 0 7.4 14.7 14.8 16.2q2.6.8 5.2 1 3 .5 6.1.7 3.5-.2 7-.2c2.6.1 5.3-.1 7.8.3 2.4.4 4.7 1.3 7 1.8 5.7.6 5.4-6.9 13-3.8 5 2.1 7.9 2.8 13.1 1q3-1.2 6-2l6.2-1.6c9.9-3.3 11.7-8.5 23.5-7 3-.1 5.8 1 8.7 1.5q4.7.8 9.6.7a15 15 0 0 0 6-1.7q2.2-.8 4.4-1.5c4.1-1.9 6.9-.3 10.5 1.7q4 2.1 8.7 1.8 3.5 0 7-.3c3.4-.4 7.2-1.4 10.4.6" class="b"/><path d="M8.5 117.6c3.3-.5 4.7 3.7 6.1 6 1.7 3 3.3 6.7 6 8.9 4 2 8.7 2.8 13.1 2.4q3-.4 6.1-1 4.4-.5 8.8-.4 3.1.3 6 1.7c1.9 1 4.1 2 6.1 1 1.5-.8 2.8-2.1 4.4-2.6 3.3-.8 6.5 1 9.6 2 2.9.8 6 0 8.7-1.2 4.2-2.1 8.5-4.4 13-5.7s9.2-2.5 14-2.8c3.2-.1 6.4.9 9.5 1 2.3.3 4.7 1 7 1q3.5 0 7-.4 2.6 0 5.2-.4c2.3-.6 4.6-1.7 7-2.3 2.9-1.1 5.7-1.4 8.7 0 2.2.9 4.5 2 7 2.3 4 .4 8 .1 12.1 0 3.2-.1 6.6-.8 9.6.6" class="b"/><path d="M8.5 115c3.2-1.2 4.8 3 6.1 5.1 1.5 2.9 3 6 5.2 8.4 1.4 1.4 3.5 2 5.2 2.5q4.8 1.5 9.6.2a39 39 0 0 1 9.6-1.6 18 18 0 0 1 11.3 1.5c5.1 2.9 6 .1 10.5-.7 3-.1 5.9 1 8.7 2 3.2 1 6.7 0 9.6-1.6 4-2 7.9-5 12.2-6.8a20 20 0 0 1 9.5-.5c5.1.5 9.9 2.5 14.8 3.4q3 1.1 6.1 1 3.6-.6 7-1.5c2-.5 4.1-.4 6-1 4-1 8-2.8 12.3-2.3 3.2.6 6.3 2 9.5 2.1 4.7.2 9.4-.1 14 .2q4-.2 7.8.8" class="b"/><path d="M8.5 112.5c5.3-1.6 7.7 12.5 13 14.2 11.1 4 11.7-.7 21.8-.6 2.9 0 5.9-.4 8.7 0 2.4.4 4.6 1.6 7 1.5 2.7-.2 5.1-2.1 7.8-1.5q2.7.6 5.3 1.4c2.4 1 5.1 1.8 7.8 1.5 4.8-.6 9.2-3 13-5.8 5.4-4.5 9.1-5.3 15.7-2.8 4.2 1.6 8.1 4 12.2 5.8 3.8 2.4 6.4 2.6 10.5.7q2-1 4.3-1.6 2.2-.4 4.4-.9c3.1-.8 6.3-2 9.5-2 4.4-.2 8.7 1.4 13.1 1 2.9 0 5.8-.5 8.7-.3q6.1.7 12.2 2" class="b"/><path d="M8.5 110.4c5.6 0 7.2 12.3 13 13.6 11.8 2.4 9.7-1.2 19.2-1.3l9.6.3c2.3 0 4.7.7 7 .3 4.2-.8 6.7-3.7 11.3-1.8 2.7.8 5.2 2.2 7.8 3a19 19 0 0 0 14.8-1.2c4-2.3 6.8-6.4 11.3-7.6 7-1.5 15.3 5 20 9.5 6 6.3 9.3.4 15.7-1 3.7-1.1 7.4-2.8 11.4-2.9 3.4 0 7 .7 10.4.2 3.5-.3 7-1.5 10.4-1.6 2.5 0 4.8 1 7 2l6.1 2.5" class="b"/><path d="M8.5 109c2.4.6 3.9 3 5.2 5 2.3 3.3 4.8 8.1 9.6 7.4q3 .2 6.1-.1c1.8-.3 3.5-1.2 5.2-1.7a17 17 0 0 1 5.2-.5c5.8.3 11.9 2.3 17.5.2 2.3-.9 4.5-2.4 7-3 4.6-.8 8.8 2.8 13 4.5 4.8 2.2 10.7 3.8 15.6 1 5.4-3.3 9.5-10.2 16.6-9.6 4.3.4 8.5 2.9 11.3 6.2 2.5 2.8 4.6 8.1 8.7 8.7 1.9 0 3.6-1.1 5.2-2 4-1.8 8-3.9 12.2-5 2.9-.4 5.9 0 8.7-.5 4-.5 7.7-2.3 11.4-3.7 2.5-1 5.4-1.2 7.8.4 3 1.9 5.7 4.6 8.7 6.6" class="b"/><path d="M8.5 108.5c3 1.3 4.8 4.5 7 6.9 1.8 2.3 4.8 4 7.8 3.3q4-.1 7.8-1.4 5.1-2.3 10.5-1.4c7 1.4 11.7 2 18.3-1.5 2.4-1.2 5.1-2.5 7.8-1.8 4.5 1 8.1 4.1 12.2 6 4.4 2.3 10 4.4 14.8 2.1 7.5-4.2 11.5-14 21.8-11.5 6.6 1.8 7.7 9.9 12.2 14.2 1.6 1.7 4 1.7 6 .8q3.2-1.4 6.1-3.1 3-1.7 6.1-2.8c3.2-.6 6.6-.6 9.6-2 5-2.1 9.2-6.6 14.8-6.9 5.8.5 8.6 6.8 12.2 10.5" class="b"/><path d="M8.5 108.4c3 1.3 5.1 4.2 7.9 6 2.5 1.9 5.7 2.2 8.7 1.4a28 28 0 0 0 7-2c3.1-1.7 6.9-1.3 10.4-1 3.4.5 7 1 10.4.5 5.6-.6 10.8-4.8 16.6-3 5 1.4 9 5.2 13.9 7 3.3 1.3 6.9 2.5 10.4 2.6q3.5-.2 6.1-2.3c5.8-4.8 9.7-12 18.3-11.2 5 1 7 6.5 9.6 10.2 4.5 7.7 8.3 5.6 14.8 1.6a20 20 0 0 1 5.2-2.3 25 25 0 0 0 7.9-2.9c2.8-1.7 5.5-4 8.7-5.3a25 25 0 0 1 10.4-1.6c4.3 1.4 6.3 6 8.7 9.5" class="b"/><path d="M8.5 107.9c2.8.9 5.2 3 7.9 4.2 5 2.7 10.8 1.3 15.6-1q4.6-2 9.6-1.7c4.3.3 8.7 1.2 13 .7s8.7-2.4 13.1-2c5.5.5 9.8 4.2 14.8 6q4.4 1.3 8.7 2.4c2.5.7 5.2 1.8 7.9 1.2 6.2-1.6 8.8-9 14.8-11.2 7.6-3.4 12 3.3 16.5 8.3 3.5 4.3 6.6 4.2 11.3 1.8l4.4-2c2.3-.8 4.8-1.4 7-2.7 5.2-3.3 8-6 14.7-5.6a21 21 0 0 0 7-1.3c4.3-1.4 6.6 3 8.7 6" class="b"/><path d="M8.5 106.5c2.4.5 4.7 1.7 7 2.7a23 23 0 0 0 7.8 1.8q3.6 0 7-1.6c1.4-.6 2.8-1.6 4.3-2 3.2-.8 6.3-1.6 9.6-1 4.3.6 8.6 2.1 13 1.8 6.6-.6 11-2.3 17.5.3q3 1.3 6 2.3 3.1.7 6.2 1 2.6.3 5.2 1 2.6 1 5.2 2c9.6 3.6 12-9 20.9-9.4 3.1 0 6 1.7 8.7 3q2.8 1.6 5.2 3.4c1.8 1.4 3.8 2.9 6.1 3 2.4.2 4.7-.8 7-1.6q2.7-.8 5.2-2 2.7-1.3 5.2-3c4.9-3 8.7-1.6 14-1.2 6.3.2 8.4-6.7 13.9.3" class="b"/><path d="M8.5 104.4c6.3 1.4 12.6 5.6 19.2 3.8 2.6-.9 5-2.7 7.8-3.4q5.2-2.2 10.5-.5c4.5 1.5 9 4 13.9 3.4 2.9-.2 5.8-1 8.7-1.2 4.7-.4 9.2 1.8 14 1.8 9.7-.3 10.5 1 19 4.2 4.3 1.4 7.6-2.1 10.5-4.6q4.7-4 10.5-2.2c3.4 1 7.1 1.3 10.4 2.8 3.6 2.2 6 4.3 10.5 3.2q4.1-.8 7.8-2.9c3-1.7 6-3.7 9.6-3.3 2.6.2 5.2 1 7.8 1.2 7.8 1.4 9.6-6.2 14.8-1.7" class="b"/><path d="M8.5 102.2c5.7 1.2 12.5 5.4 18.3 4.2 2.1-.5 4-2 6-2.9 4.2-1.6 7.9-3 12.3-1.2 3.3 1.3 6.2 3.7 9.5 5 5 1.8 10-.4 14.8-1.2 4.6-1 9.4 0 14-.6 6.7-1 10.4.5 16.5 2.9 2.2.7 4.6 1.9 7 1.6 4.5-.9 7.2-5.5 12.2-5.4 2.3 0 4.6.5 7 .5 2 0 4-.3 6 0 3.7.9 6.5 4.4 10.5 4.3q3.7-.1 7-2c2.4-1.3 4.9-3.2 7.8-3.5 5.2-.4 10.4 2.2 15.6 1.6 2.2-.3 4.2-1.6 6.1-2.5q2.3-.9 4.4.5" class="b"/><path d="M8.5 100q4.5 1.4 8.7 3c3 1 6.4 2.3 9.6 1.4 1.8-.7 3.5-1.9 5.2-2.7 4.3-1.8 8.8-2.8 13-.5 3.4 1.7 6.2 4.4 9.7 5.8 6.7 2.7 13.4-1.9 20-3q4.3-.6 8.7-1 5.8-1 11.3.8c4 1.3 8 3 12.2 3.5 4.4.4 7.8-3.7 12.2-3.6q3 0 6-.3c2-.3 4.1-.9 6.2-.8 3.1 0 6 1.9 8.7 3.3s6 1 8.7-.6c2.2-1.2 4.4-3 7-3.5 2.2-.5 4.7-.1 7 .2q3.8.8 7.8 1.3c6.7 1.1 8.5-4 13-1" class="b"/><path d="M8.5 98q4.5 1.4 8.7 3c2.5 1 5.2 2 7.9 1.8 2.8-.5 5-2.8 7.8-3.5 4.4-1.4 9.3-.7 13 1.9 3.1 2 6 4.5 9.6 5.5 6.8 1.7 13-2.6 19.2-4.7a44 44 0 0 1 17.4-1.5c8 2.3 14.2 6.1 22.7 2.5 3.3-1.2 7-1 10.4-1.9 12.2-2.6 12.8 2.7 20 2.2 2.5-.4 4.7-2 7-3 3-1.5 6.4-1.2 9.6-.6l7.8 1.2c8 1.7 9.4-3.3 14 0" class="b"/><path d="M8.5 95.8q6 2.4 12.2 4.8c8.2 2.8 7.7-6.9 20.9-1.8 5.2 1.8 9.2 6.4 14.8 7 7.5.9 12.8-3.9 19.1-6.5q6-2 12.2-1.8c4.3-.2 8.2 1.9 12.2 3.3 8.4 2.8 13-.2 21-1.3q7.3-1.6 14.7-1c4 .5 8.3 2 12.2.3a19 19 0 0 1 8.7-1.9c4.4.5 8.7 1.6 13 2q2.6.6 5.3.4c3.1-.4 5.8-2.6 8.7 0" class="b"/><path d="M8.5 93.7q3.9 1.9 7.9 3.5c2 .9 4 2 6 2.3 3 .6 5.2-2.3 7.9-3.1 3.2-1.4 6.6 0 9.6 1.4q3.6 1.2 7 3.2c3.1 1.8 6.6 3.6 10.4 3.6 7.2.3 12.1-5.1 18.3-8C79 95.1 83 95 86.9 95q3-.1 6 .7 2.7 1 5.3 2.1c6.4 3 11.8 1.6 18.3 0a78 78 0 0 1 10.4-1.3q7 0 14-.2c4 0 8-1.7 12.1-1.7 3.3 0 6.5 1 9.6 1.5q5.3.8 10.5 1.3 2.7.2 5.2-.8 2.7-1.1 5.2.8" class="b"/><path d="M8.5 91.9q4.3 2.3 8.7 4.3c1.7.7 3.4 1.7 5.2 1.9 2.8.2 4.6-2.4 7-3.2 3-1.3 6-.2 8.7 1.3q3.4 1.6 7 3.1c4.2 2.3 9 4.9 13.9 4 4.7-.9 8.5-4 12.2-6.8 4.7-3.8 9.8-4.5 15.7-4q3 .2 6 .9C95 94 97 95.2 99 96c6.6 3 13.5-.4 20-1.2 5.5-.8 11.1 0 16.6-.4s11-2.8 16.5-2.3c3.6.2 7 1.5 10.5 2 3.4.5 7 .4 10.4 1q2.2.4 4.4-.2c2-.6 4.2-1.1 6 .3" class="b"/><path d="M8.5 90.5q4.2 2.5 8.7 4.5 2.1 1 4.4 1.6c2.7.4 4.5-2.3 7-3.2 2.8-1.3 6-.5 8.6 1.1q3.9 2 7.9 3.8c4.2 2.3 9 4.7 14 3.4 3.6-1 6.6-3.4 9.5-5.8 6.1-5.5 10-6.8 18.3-5.8q3.5.3 7 1.4c1.7.7 3.4 1.8 5.1 2.5 6.6 3 13.4-1.1 20-1.5 5.6-.6 11.1 1 16.6.2 5.2-1 10.2-4 15.7-3 3.8.5 7.5 2 11.3 2.5h5.2q2.7 0 5.2.5 2.2.5 4.4.3c2-.4 4.3-1 6 .3" class="b"/><path d="M8.5 89.5q3.7 2.4 7.9 4c1.6.7 3.4 1.6 5.2 1.6q2-.1 3.4-1.5 1.7-1.1 3.5-1.9c3-1.1 6.1-.3 8.7 1.3q3.9 2 7.9 4c4.2 2 9 4.4 14 3 4-1.2 7.2-4.6 10.4-7.4 5-5.1 9.5-6 16.5-5q4 .6 7.8 1.9c2.9 1.2 5.5 3.4 8.8 3.5 5.3 0 10.3-2.6 15.6-2.8q3.5-.4 7 .2c3.4.5 7 1.3 10.4.6 4.2-.9 7.9-3.8 12.2-4 5.1-.2 9.8 2.7 14.8 2.8 2 0 4.1-.5 6.1-.5 2.4 0 4.7.9 7 1.3 2.6.5 5.4-.6 7.8.8" class="b"/><path d="M8.5 88.7q3.6 2.5 7.9 3.8c1.6.5 3.4 1.2 5.2 1 2.2-.6 4-2.4 6-3.1 3.2-1.4 6.8-.7 9.6 1 5.9 3 16.1 9 22.7 6.5 2.7-1 4.9-3.2 7-5.2 2.4-2.4 4.7-5.2 7.8-6.7 4-1.8 8.8-1 13-.3q2.7.4 5.3 1.4 2.2 1 4.3 2.3c3.6 2.3 7.6 1 11.3-.1q4.7-1.5 9.6-1.6c12.2-.8 12 6.3 24.4-1.4 6-3.5 11.3-.3 17.4.8 3.5.5 7-1.6 10.5-.9 2.3.5 4.6 1.6 7 2 2 .4 4.1.4 6 1.3" class="b"/><path d="M8.5 87.9c3.6 2.2 8 3.8 12.2 3.8 2.5-.4 4.5-2.3 7-3 3.5-1.2 7.3-.1 10.4 1.8 4.9 2.7 10 5.2 15.7 5.7 3.6.5 6.7.4 9.6-2.2 4.7-3.9 8-11 14.8-11.4 4.6 0 9.5.5 13.9 2.2 2.6 1.1 5 3.3 7.8 3.7 3 .2 5.9-1.3 8.7-2q4.7-1.6 9.6-1.3c11-.8 11.7 6.2 19.2 2.7 7.7-4.7 8.4-7.1 18.3-4.3 2.2.5 4.6 1 7 .5 2.7-.7 5.7-2 8.6-1q3 1.2 6.1 2.5 3.1 1 6.1 2" class="b"/><path d="M8.5 86.5c3.7 2 8 3.3 12.2 3 2.4-.5 4.6-1.8 7-2.3 3.3-.8 6.7.1 9.5 1.8 3.8 2.1 7.8 4.6 12.2 4.7h6.1q2.2.3 4.4 0c4.6-1 7.9-7.1 11.3-10.4 3.3-3.6 6.8-3.4 11.3-2.6 5.6.6 8.2 1.2 13 4.3a8 8 0 0 0 8 .3c3.2-1.4 6.7-2.8 10.4-2.8l5.2.1q2.7-.2 5.2.6c2.3.6 4.2 2.3 6 3.6 4.8 3.6 9.5-1.8 13.1-4.5q4-2.7 8.8-2c2.3.3 4.6.9 7 1 4.5 0 8.3-3.3 13-1.2 3.9 1.6 7.5 3.9 11.3 5.6" class="b"/><path d="M8.5 84.3q3.7 1.7 7.9 2.3c1.6.3 3.5.7 5.2.4 2.5-.6 5.2-1.3 7.8-1.3 5.6 0 9.7 4.7 14.8 6.2 4 1 8.1-1.3 12.2-1 2 0 4.3.5 6-.6 3-1.7 5-4.7 7-7.3 1.5-1.8 3.1-3.8 5.3-4.8 2.5-1 5.3 0 7.8.6 2.6.6 5.4.6 7.8 1.7 3.4 1.3 6.7 4.4 10.5 2.9 7.6-3.2 8.8-4.3 17.4-3.4 7.9 0 7.5 1.5 13 6 5 3 9.4-3.5 13.1-6 2.5-1.8 5.7-2.6 8.7-2.3 2.3.1 4.7.4 7 .1q2.7-.3 5.2-1.2c7-2.3 12.7 3.7 18.3 6.7" class="b"/><path d="M8.5 81.2q3.8 1.6 7.9 2.3 2.5.6 5.2.9c3.7-.3 7.7-.7 11.3.7 6.2 2.7 10.1 8.5 17.4 4.5 2.2-1 4.5-2 7-2.1q2.2.2 4.3.1c6.4-1 9-11.8 14.8-12.2 2.1 0 4.1 1.2 6.1 1.8q3 .8 6 1.4c3.3.6 6.3 2.8 9.7 2.4 2.4-.5 4.6-1.9 7-2.8 5-2.3 9.5-1 14.7-.6 8.2.3 7.4 4.5 13 6.8 3.9.6 7-2.9 9.7-5.1q3-2.8 7-4c4-.8 8.2-.3 12.1-1.3 2.3-.6 4.6-1.3 7-1.2 5.8.5 10.1 4.9 14.8 8" class="b"/><path d="M8.5 78c3.8 1.8 8.1 2.5 12.2 3.6 2.3.3 4.7.1 7 .5 5.7.5 7.7 2.6 12.2 5.6 7.6 4.9 10-1 16.5-3.5 2.2-.9 4.7 0 7-.3 6.8-1 8.6-13.2 14.8-10.6a32 32 0 0 0 9.5 4.1c3.2.5 6.5 1 9.6.2 5-1.6 9.4-4.6 14.8-3.7q4 .7 7.9 1.6 3 .5 6 1.4c2.7 1.2 4.8 4 7.9 4.2 3.7-.2 6.7-3 9.6-5.2q3-2.3 7-3.3c3-.7 6.4-1 9.5-1.8 4.4-1.1 8.7-1.9 13 .2 4 1.6 7 4.8 10.5 7" class="b"/><path d="M8.5 74.6q3.7 2.1 7.9 3.2 2.5.8 5.2 1.4 4.8.5 9.5 1.4 2.9.7 5.3 2.3 2.4 2 5.2 3.6c6 3.6 8.6-.5 13-4 2-1.6 4.4-3 7-2.6q2.2.4 4.4.1c5.2-.8 6.3-10.4 11.3-9.3 1.2.5 2.4 1.6 3.5 2.4 2 1.5 4.4 2.9 7 3.1 8.8.1 15.9-8.1 25.2-5 3.5 1 6.9 2.6 10.4 3.4q2.2.3 4.4.8c1.7.5 3.4 1.3 5.2 1.4 4.5.1 8.3-3.1 12.2-5 3.3-1.5 7-2.2 10.4-3.2 3.7-1 7.5-2.2 11.4-2 6.4.5 11.3 5.4 16.5 8.8" class="b"/><path d="M8.5 71c3.8 3 8.5 4.6 13 6 4.1.7 8.3 1.1 12.3 2.2 3.6 1 6.3 3.9 9.5 5.6 5 3.4 8-1.2 11.4-4.4 1.7-1.7 3.6-3.5 6-4.2 1.5-.3 3 .2 4.4.5 3.6.9 5.3-1.3 7-4 1-1.7 2.1-4.3 4.3-4.5 1.4.1 2.5 1.5 3.5 2.5 1.7 1.6 3.7 3.3 6 3.7 3.2.4 6.1-1.3 8.8-2.7 5.6-3 12-6.2 18.3-3.4 3.5 1.3 6.9 3.4 10.4 4.8 2 .7 4.1.5 6.1.3q4.1-.3 7.8-1.9l7-2.5 9.6-3.1c3.4-1.1 6.9-2.4 10.4-2.5 7.5-.1 13 5.8 19.2 9.2" class="b"/><path d="M8.5 67.4q2.5 2.2 5.2 3.9l4.4 1.9c3 1.5 6.3 2 9.6 2.6 9 1.2 9 1.2 16.5 6.8 4.7 3.9 8.2-1.8 11.3-4.8 1.8-1.8 3.7-3.8 6.1-4.6 4.6-1 7.2 3.7 10.5-2.2 1.2-1.7 2-4.6 4.3-5.2 1.5.2 2.5 2 3.5 3 1.4 1.5 3 3.2 5.2 3.5 3.5.3 6.6-1.8 9.6-3.3 4.6-2.2 9.5-5 14.8-4.5 5.5.9 9.9 4.7 14.8 7 2.9 1.3 6 0 8.7-1.4q3.4-1.8 7-3.2 3-1 6-1.9c3.6-1.2 7-3 10.5-4a17 17 0 0 1 12.2-.2c5.2 2.5 9.7 6.4 14.8 9.1" class="b"/><path d="M8.5 63.4c2.6 2.4 5.4 4.9 8.7 6q2.6 1.5 5.2 2.5 3 .9 6.1 1.5c2 .4 4.1.2 6.1.5 4.2.7 7.5 3.5 10.5 6.3 4.3 3.8 8.2-2.6 11.3-5.1a23 23 0 0 1 5.2-4c4.3-2 7.4 3.6 10.5-1.7 1.3-2 2-5 4.3-6l.9.2c4.3 4.5 4.9 8.7 12.2 5.4q5.5-2.4 11.3-4.5c3-1 6.3-2.3 9.6-2q3.1.4 6 1.9 3.7 1.5 7 3.7c4.5 2.9 7.3 1.5 11.3-1.2q5.8-3.7 12.2-6.5c6-3.3 13.1-7 20-4.4 3 1 5.5 3.1 7.9 5q4 3.6 8.7 6.3" class="b"/><path d="M8.5 59.3c2.7 2.2 5.4 4.6 8.7 5.8 2.6 1.3 5 3.2 7.9 4q2.5 1 5.2 1.1c1.4.2 3-.1 4.3 0 4.2.6 7.7 3.3 10.5 6.4 2.4 2.4 4.6 1.7 7-.3q2.5-2.2 5.2-4.3c1.6-1 3.3-2.3 5.2-2.9 4.1-1.2 6.7 3.2 9.6-1.5 1.4-2.1 2.2-5.2 4.3-6.7l.9.1c2.5 2.3 3.8 7.1 7.8 7.2 2.1-.3 4-1.5 6.1-2 3.7-1.4 7.6-2.1 11.3-3.1 3.2-.9 6.3-2.1 9.6-2 1.7 0 3.6.6 5.2 1q3.1.7 6.1 2c4.7 2.2 8 1.6 12.2-1.3 4.4-2.8 8.5-6.3 13-8.8 6.1-3 13.7-5 20-2.1 6 3 9.4 9.2 14.9 12.8" class="b"/><path d="M8.5 54.8c2.7 1.3 5 3.3 7.9 4.2 2.8 1.2 5.2 3.2 7.8 4.7q2.9 1.6 6 1.7 2.3-.2 4.4-.2c3.8.4 7.2 2.8 9.6 5.6 2 2.4 4.1 3.7 7 1.7 1.9-1.3 3.9-2.8 6-3.6 9.8-4 11.4 2.2 14.9-3.1 1.4-2.3 2.3-5.4 4.3-7.3l.9-.2c2 1.3 2.8 4 4.3 5.6 2.7 3.4 5.2 2.2 8.7 1.1q5.2-1.2 10.5-1.6 4-.6 7.8-2c4.2-1.7 8.7-1.7 13-1.6 4.3.3 8.5.1 12.3-2 14.4-7.7 11.8-9.7 29.6-9.9 11.5-1.1 13.2 6.8 20 13.6" class="b"/><path d="M8.5 51q2.8.4 5.2 1.3 2.7.8 5.3 1.9c2.9 1.2 5.6 3.2 8.7 4.2 4.6 1.5 6.1-1.8 11.3 1.2a24 24 0 0 1 5.2 4.5c1.5 1.7 3.7 3.5 6 2.5 1.8-.6 3.5-1.6 5.3-1.8q2.7 0 5.2.7l5.3.8c2.8.5 4.5 0 6-2.5 1.8-2.5 2.6-6.3 5.3-8 2.1.3 3 3.2 4.3 4.8 3.5 5.4 6.7 3.8 12.2 3.6 3.5-.2 7 .4 10.5-.7 3-.9 5.8-2.8 8.7-4a52 52 0 0 1 8.7-2.9c5.5-1 10.5-3.8 15.6-5.9q3-1 6.1-1.7 3.5-1 7-1.3c3.2-.3 6.4.5 9.6 1.1 3.5.8 7 .2 10.4-.8 1.7-.5 3.6-1 5.2-.1 3.4 2.2 5.3 6.3 7.9 9.4" class="b"/><path d="M8.5 49c3-.6 5.9 0 8.7.7q4 .7 7.9 1.2 2.5.5 5.2.5c2-.2 4-.8 6-.5 6.5.4 8.3 8.7 14 8.4 2-.2 4.3-.4 6 .7 2.2 1.2 4 3 6.2 4.2 3.7 1.7 7.5 1.2 9.6-2.6 1.6-2.3 3.3-7.9 6-8.5 1.6.4 2.6 2.1 3.5 3.3q1.6 2.2 3.5 4.3c3.4 3.4 11 4.5 15.7 4.1s8.4-4 12.2-6.5a42 42 0 0 1 10.4-5c4.6-1.7 9-4.3 14-4.9 2.5-.3 5.2 0 7.8 0q5.3-.5 10.4 1c3.2 1 6.3 2.6 9.6 3 10.6 1.1 9-13.6 18.3.5" class="b"/><path d="M8.5 48.3q2.7-.2 5.2.2c2 .4 4 1.1 6.1.8 3.9-.4 7.6-1.7 11.3-2.5 2.6-.7 5.3-1.3 7.9-.6 4.1 1 6.3 5.6 10.4 6.5 6.9.5 8 5.4 12.2 9.6 2 1.9 4.7 1.7 7 .5 4.7-2.2 7.6-15.3 12.2-11.6 2.2 1.8 4 4.4 6 6.4q3.2 3 7 5c8.7 4.3 15.2-3.7 21.8-8.1a27 27 0 0 1 6-3q3.6-1.3 7-2.5c5-1.8 10.5-1.2 15.7-.4q4 .3 7.8.8 6.8 1 13.1 3.7c3 1.3 6.5 2.1 8.7-1 3.2-4.1 5-8.2 9.6-2.4" class="b"/><path d="M8.5 48.6q4 .5 7.9 2c5.2 1.5 10-2.2 14.8-3.5 3.3-1 7-2.6 10.4-1 3.3 1.7 4.7 3.2 8.7 3 5.7.2 7.4 7.3 10.5 11 1 1.4 2.6 2.7 4.3 2.2a15 15 0 0 0 7-5c2.3-2.8 4-6.5 7-8.7 1.6-1.2 3.7-.2 5.1.9 2.4 1.8 4.7 4 7 5.8 2.6 2.4 5.9 4.6 9.6 4.3 6.5-.4 11.1-5.5 16.5-8.5q4.2-1.8 8.7-2.7c6.4-1.3 12.9.3 19.2 1q4.4.4 8.7.4c2.9 0 5.9-.3 8.7.3q2.8.7 5.2 2.2c1.8 1 4 2.8 6.1 1.8 3.2-1.9 5-9 9.6-5.8" class="b"/><path d="m8.5 49 6.1 2q3.4 1.6 7 1.1c2.6-.4 5.2-1.6 7.8-2.4q2.7-.6 5.2-1.4c4.7-1.6 6-1.2 10.5 0 2 .4 4-.9 6-1.1 5.7.1 6.9 11 11.4 13.6 1.9.8 3.7-.8 5.2-1.8q3.9-2.6 7-6c6.8-8.1 9.4-9 18.2-2.7 5.3 4 11.4 5.2 17.4 2.2 3-1.3 5.7-3.3 8.8-4.2 6.3-1.5 12.8.3 19.1 1.2 5.5.8 11.2 1 16.6-.2 14.5-4.9 16.5 7.7 21.7 3.7 2.1-1.8 3.8-5 7-4.8" class="b"/><path d="M8.5 49.1c3.8 1.1 7.4 3.3 11.3 3.4q4.5-.2 8.7-1.4 3.6-.5 7-1.7 2.6-.9 5.2-1.1 2.2.2 4.4 0 1.8-.4 3.4-1.3c1-.6 2.3-1.3 3.5-1.2 5.2 1.2 6.3 13.5 11.3 13.9 2-.4 3.6-2.2 5.3-3.3C71 54.6 74 53 76.4 51c5.7-4.6 9.9-8.5 17.4-4.9 7.1 3.3 12.3 5.6 20 2.3q2.2-.9 4.4-1.5a17 17 0 0 1 5.2 0c11 2.2 15.8 5.5 27.9 2.7 4-1 8-3 12.2-2.6 7.2.4 10 8.1 13.9 5.7 2-1.4 3.7-3.6 6-4.7" class="b"/><path d="M8.5 48.6c4.3 1.2 8.5 3.3 13 3.1q5-.3 9.7-1.3l7-2c2.1-.8 4.7-.7 6.9-1.5 3-1 5.8-4.9 8.7-1.6 3 2.8 5.3 13.3 9.6 13q2-.8 3.4-2.3 2-1.8 4.4-3c3.4-1.7 7.2-2.8 10.4-5 9.4-6.6 11.8-4.3 21.8-1.4 5 1.5 9 .5 14-.7q3.9-.5 7.8.9c6.4 2 13.2 5 20 3.5 6.7-1.3 13-5.2 20-4.2 6 .6 8.3 7.5 12.2 6 2.4-1.2 4-3.8 6.1-5.5" class="b"/><path d="M8.5 47.5c3.8.8 7.5 2.3 11.3 2.6q6.3.4 12.2-1.5 3.6-.8 7-2 3.2-1 6-2.5c2-1 3.8-3.3 6.2-3.1 5.2 1.5 6.6 15.5 12.1 15.6 2.9-.6 4.6-3.5 7-4.9 3.4-2.2 7.7-1.5 11.3-3 2.8-1.2 5.1-3.3 7.9-4.5 5.6-2.3 11.7 0 17.4 1q3.4.6 7 .2c2.2-.3 4.6-.7 7-.3 3.2.5 6.3 1.9 9.5 2.9 3.9 1.2 8 2.2 12.2 2 3-.4 5.8-2 8.7-3 4.4-1.4 9.2-3 14-2.2 3.1.4 5.5 2.8 7.8 4.9 4.6 4.2 7.5-3.6 10.4-6.1" class="b"/><path d="M8.5 45.9c5 .6 9.8 2.4 14.8 2.1q4-.1 7.9-1.3c2.6-.4 5.4-.3 7.8-1.7 3.6-1.8 6.3-5 9.6-7.2 5.7-3.4 9 13.3 13 16 4 3 7-3.4 10.5-4.5 3.3-1.4 7 0 10.4-1 2.9-.8 5.2-3 7.9-4.2 1.8-.9 4-1 6-1.2 3.5-.6 7 0 10.5.6 3.7.7 7.6.5 11.3.6q3.7.2 7 1.4c5.9 1.7 12 3.7 18.3 2.9 3-.9 5.7-2.7 8.7-3.5 4.1-1.4 8.7-2.6 13-1.5 3.4.9 5.7 4 8.8 5.5 4.3.9 6-6.8 9.5-8.6" class="b"/><path d="M8.5 43.8c4.7.1 9.3 1.7 14 1.6q1.6 0 3.4-.2c1.4-.2 3-.7 4.4-.7 2 0 4 .8 6 .4 4.3-1 6.8-5.1 9.6-8 3.9-4.5 6.3-2.4 8.8 1.8 2 3.6 3.7 7.6 6 11 4.3 5.8 6.3 1.5 10.5-1.3q2.8-1.5 6-1c6.7 1.4 7.7 0 13.1-3.3 1.9-1.1 4.1-1 6.1-1.6q4.3-1.4 8.7-.9c4.7.6 9.4.8 14 1.4q5.6 1.2 11.3 2.3 3.9.8 7.8 1.2 3.1.5 6.1-.4c2.5-1.3 5.1-2.8 7.9-3.6 3.8-1.4 8.2-2.2 12.2-.7q2.7 1.2 5.2 2.9c1.3.8 2.7 2 4.3 1.9 4.3-1.5 4.8-8.3 9.6-9" class="b"/><path d="M8.5 41.4q3 0 6.1.3 3.5.7 7 .9c2.6.3 5.2-.7 7.8-.4 1.5.2 3 1 4.4 1.3C40.4 45 43 37 47.7 33.7c3.2-2.3 6.1 1.5 7.8 4 2 3 4 6.3 6.1 9.1 4.6 6 5.4 2.7 10.5 0 2.1-1 4.7-.7 7-.2 5.8 1.7 7.4-1 12.1-3.5 1.6-.8 3.6-.7 5.2-1.4 2.5-1 5.1-2 7.9-2 6.1.1 12.2 1.2 18.3 2.4q6 .7 12.1 1.7c10 1.4 8.3-.2 16.6-3.6 4.1-1.8 9-1.9 13 .3l5.3 2.6c1.3.7 3 1.3 4.3.4 3.3-2.3 4.5-9.2 9.6-7.6" class="b"/><path d="M8.5 38.7q3 0 6.1.2 3.5.7 7 1c5.7 0 5.5-1.3 11.3 1.5 6 2 9.6-4.7 14-7.5 7-4.8 13.8 8.5 18.2 12.5 1.7 1.7 3.3 1.2 5.2 0q2.4-1.3 5.2-1.5 2.7.1 5.3.7c4.3 1 7-2 10.4-3.8 1.3-.7 3-.6 4.4-1.1 3-1.3 6-3.2 9.5-3.1 5.3 0 10.5 1.1 15.7 2l7.8.7q4.4.6 8.7 1.1 3.1.4 6.1-.2c3-1 5.7-3.1 8.7-4 7-2 10.6 1.5 16.6 3.7 1.3.4 3 .9 4.3 0 3.5-2.3 5-9.6 10.5-6.4" class="b"/><path d="M8.5 36q3 .1 6.1.5 3.4.8 7 1.2c2 .2 4-.4 6-.2 2.2.2 4 1.4 6.1 1.8 5 .4 8.7-4 13.1-5.7 4.8-2 10.2.3 14 3.4q2.3 2.1 4.3 4.6c1 1 2 2.6 3.5 3 2.3.3 4.6-1.1 7-1.2 2.8-.2 5.8.7 8.6 0 2.6-.7 4.6-2.6 7-3.7 1.3-.6 3-.5 4.3-1.1 4-2 6.7-3.9 11.4-3.3q10.8 1.3 21.7 2.2 6 .8 12.2 1a11 11 0 0 0 5.2-1c2.5-1.2 5-2.6 7.9-2.8q3.6-.4 7 1c2.8 1.1 5.6 2.7 8.6 3.2 7 1.7 6.4-10.3 14-5.8" class="b"/><path d="M8.5 33.4c4.1.4 8.1 1.6 12.2 2.2 2 .3 4.1-.2 6-.3q3.2.2 6.2 1 2.2.1 4.3-.5c4.3-1.5 8.5-3.5 13-3.4 3.8 0 8-.3 11.4 1.4q2.4 1.5 4.4 3.6c1.4 1.5 2.9 3.6 5.2 3.8q3 0 6-.3c2.7 0 5.6-.1 8-1.5 2.2-1.3 4.3-3.3 6.9-4q1.7-.2 3.4-.8c3.6-1.5 6.6-2.4 10.5-1.5q3 .6 6 .7 3.1 0 6.2-.1c4.3.3 8.7 1 13 1.3l7.9.7c2.3.2 4.8.8 7-.4 2.4-1.2 5-2.4 7.8-2.6 5.6-.7 10.2 3.4 15.7 3.8 6.9 1.2 6.2-9.4 13.9-4.4" class="b"/><path d="M8.5 30.7q5.6 1.7 11.3 2.8 3 .3 6.1-.3c3.5-.5 7 .2 10.5-.3q3.8-.6 7.8-.8c2.9-.2 5.9-.1 8.7-.6 5-.8 9.8-2.3 14 1.7 1.6 1.6 3.7 3.1 6 3.5 4.6.8 9.5-.3 13.1-3.2 3-2.3 5-3.3 8.7-3.2q2.6-.4 5.2-.3c2.7.4 5.2 1.6 7.9 2 5 .7 9.8-1.4 14.8-1l13 1.5c3 .3 5.8 2 8.7 1.4 5.4-2 8.7-4.4 14.8-2.7 3 .8 5.7 2.3 8.8 2.5 9.4 1.5 7.2-8.3 15.6-2.4" class="b"/><path d="M8.5 27.8c4.8 1.8 9.7 4 14.8 3.5 3.2-.3 6.4-.9 9.6-.8 2.9 0 5.8.5 8.7.7q5.3.6 10.5-.6c5.6-1.5 11-4.4 16.5-.7 3.7 2 8.3 1.9 12.2.3 2.3-.9 4.5-2.5 7-3.1 3.7-.8 7.7.1 11.3 1.2 5.6 2.4 8.8 2.6 14.8 1.3l7-1.4q4.3-.4 8.6 0 4.1.5 7.9 2c2.4 1.2 5.1 2.3 7.8 1.4 3.2-1 6.2-2.8 9.6-2.8 4.8-.3 9.1 2.7 14 2.2 8-.3 6.6-7 14.7-.4" class="b"/><path d="M8.5 24.6c8.2 4 11.8 5 20.9 4.1 3.9-.3 7.6 1 11.3 1.8q4.9.9 9.6-.6c7.7-2.6 11.5-5.2 20-3.1 9.4 1.5 11.8-4.3 21-1.5q4.4 1.2 8.6 2.7 3.4 1 7 .5 4.8-.7 9.6-1.8c4.5-1.2 9.2-2.5 13.9-1.8 5 .5 8.7 5.2 14 4.7 3.8-.5 7.3-2.9 11.2-2.7 4.4-.1 8.7 2.6 13.1 1.4q2.2-.7 4.4-1.7c1.5-1 3.4-2.2 5.2-1.3 2 1 3.4 2.9 5.2 4.2" class="b"/><path d="M8.5 21c4.8 2.2 9.5 4.7 14.8 5.4 2.9.5 5.9.6 8.7 1.3 3 .6 5.8 1.7 8.7 2.2q5 .6 9.6-1.2c4-1.5 7.9-3.9 12.2-4l8.7.2c3.8.1 7.6-1 11.3-1.3 5.7-.3 11 2.6 16.6 3.3 2.6.3 5.2-.3 7.8-.5q4-.3 7.8-.8c5.8-1 11.4-5.2 17.5-3.6 2.6.7 4.5 3 7 4 7.7 3.4 10.3-1 17.3-1 2.4.1 4.7.9 7 1.2 2 .3 4.3.1 6-.9 2.2-1 4-2.8 6.2-3.7 1.7-.6 3.3 1 4.3 2.2q1.6 2 3.5 3.7" class="b"/><path d="M8.5 17.4c4.2 1.4 8.2 3.5 12.2 5.2q5.2 2 10.5 3.6c7.8 3 13 4.2 20.8.5 11-5.3 7.8-2 18.3-2.6 5.2.1 10.5-.6 15.7-.1 3.5.4 7 1.2 10.4 1.5 2.3.1 4.7-.4 7-.6q3.5-.1 7 .3 5 .1 9.5-2c3-1.2 5.7-2.8 8.7-3.8 2.4-.8 5.1 0 7 1.6 1 .9 2.2 2 3.5 2.4q2.2.9 4.3 1.3 2.6.5 5.3 0c2.2-.4 4.6-1.3 7-1.4 2.8-.1 5.7.8 8.6 1q3.4.4 6.1-1.7c1.8-1.3 3.3-3.2 5.2-4.3 3.7-1.3 5.3 4.3 7.9 6" class="b"/><path d="M8.5 14c5 .6 9.7 3 14 5.5q4.2 2.3 8.6 4.5c6.5 3 11.2 5 18.3 2.6q3.2-1.1 6.1-2.6c1.6-.8 3.4-1.6 5.2-1.5q2.7.2 5.3.7c3.7.1 7.5.7 11.3.8q4.3 0 8.7 0l9.6.3c2.3 0 4.6-.8 7-.8s5.2.7 7.8.9c4.6.6 9-1.3 13-3.4 3.3-1.6 6.7-4.9 10.5-3.5 1.6.6 2.9 2 4.3 2.8q2.5 1.4 5.3 1.7 2.5.6 5.2.7c2.3-.2 4.6-1 7-1.2 2.8-.2 5.8.8 8.6 1 2.2.3 4.5-.4 6.1-1.8 2.4-1.6 4.7-6.2 7.9-5.3 2.2 1.1 3.4 3.6 5.2 5.2" class="b"/><path d="M8.5 11A29 29 0 0 1 25 17.4l8.8 4.9q3.3 2 7 3.3c4 1.3 8.4.5 12.1-1.2 2.3-1 4.5-2.6 7-3.1 2-.5 4.1 0 6 .3q3.1.4 6.1 1.3 4.7 1 9.6.8c5.2-.3 10.5 0 15.7-.8q2.6-.6 5.2-.7c3 .1 5.8.9 8.7 1 4 .4 7.9-1 11.3-2.7 4.5-2 9-7.3 14-3.6q3.6 2.1 7.8 2.6c1.7.3 3.5 1 5.2 1 2 0 4.1-.5 6.1-.6q3 .1 6.1.5c6.3 1 8-.2 12.2-4.7 4-4.5 6-1.7 9.6 1.5" class="b"/><path d="M8.5 9q3.5.4 7 1.2 5 1.6 9.5 4.3c4.1 2.1 8.4 4 12.2 6.6 3.7 2.4 6.8 3.8 11.4 3.2 3.8-.3 7-2.5 10.4-4.2 3.5-2 7.8-1.3 11.3.3q4.1 2.2 8.7 2.3 6.1 0 12.2-.4 5-.1 9.6-1.5c4.3-.8 8.7.5 13 .2 4-.3 7.8-2 11.4-3.8 3.2-1.7 6.7-4.4 10.4-2.8 3 1.4 6.4 1.6 9.6 2.2 1.4.3 3 1 4.4 1.2q3 .3 6 .2 4 .1 7.9.5 4.5.9 7.8-2.1c5-4.5 6-7 12.2-2" class="b"/><path d="M8.5 8c3.6.7 7 2.3 10.5 3.4a50 50 0 0 1 18.2 7.2c2 1.2 4 2.7 6.1 3.4 4 1.2 8.5.8 12.2-1.2 3.1-1.6 6-4.4 9.6-4.5 4.4-.2 7.3 3.7 11.3 4.7 2.8.7 5.8.4 8.7.4q4.9 0 9.6-.3c3.6-.4 6.9-2.2 10.5-2.6 4.6-.5 9.4.1 13.9-1.6l7.8-3c2.5-1 5.2-2.1 7.9-1.4 3.3 1 7 .6 10.4 1.1 2 .4 4 1.4 6.1 1.8q4.3.6 8.7.7c3.5 0 7.5 1.2 10.5-1.2 5.2-3.8 6.5-7.4 13-2.6" class="b"/></svg>