<svg xmlns="http://www.w3.org/2000/svg" id="a" width="1920" height="2400" viewBox="0 0 192 240"><defs><style>.b{fill:none;stroke:#fff;stroke-miterlimit:10;stroke-width:.3px}</style></defs><path d="M0 0h192v240H0z" style="stroke-width:0"/><path d="M13.5 222.3a81 81 0 0 0 16.4-4c5-2 9.4-5 14-7.8 3.6-2.4 7.7-.6 11.4.7q4.9 1.5 9.9 1.8 2.6 0 5 1.2c4.1 2.8 6 8 9 12 4.2 7.2 6.7 6.7 14 3.9 10.3-3 10.7-20.6 26.2-18.2 3.2.5 6 2.1 9 3.3a86 86 0 0 1 12.4 5.8l7.4 3c4.4 2.2 8-.2 11.5-2.9q2.3-1.7 4.9-3.2 2-1 4.1-1.8c3-1.4 6.4-2.8 9.9-2.4" class="b"/><path d="M13.5 220.1c5.6-.5 10.5-3.5 15.6-5.8 4.1-2.2 8.7-3.4 13.1-5.1 6.2-2.9 9.5.1 15.6 1 13.4 1.4 13-1 20.6 11.5 3.3 5 5 10.7 12.3 7.1 2.1-1 4.6-1.5 6.5-3 6.7-5.5 9.4-15.2 19.7-15.2 4 0 7.8 1.8 11.5 3.2q5 2 10 3.8 3.1 1.4 6.5 2c5 1.7 7.4 2.8 12.3-.6 3.3-2.4 6.7-4.8 10.7-5.8q5.2-2.1 10.7-.9" class="b"/><path d="M13.5 218.3C21.4 217 26 209 34 207.7q3.7-.4 7.4-.5c1.9 0 3.8-.7 5.7-.5 3.6.4 7 1.9 10.7 2.1 4 .5 8.3-.2 12.3.7 3 1 5 3.5 6.6 6q2.1 3.1 4.1 6.4c1.9 3.5 4.5 7.1 9 5.5 2.5-1 5.2-1.6 7.4-3 5.8-4.2 8.9-12.3 16.5-13.8 6.8-1.7 13.4 1.4 19.7 3.6q2.4.9 5 1.2 1.6.5 3.2.7 3.7.6 7.4 1 3 .2 5.7-1 3-1.7 5.8-3 4.3-2 9-2.8 4.6-.6 9 .9" class="b"/><path d="M13.5 216.4c7.4-1.9 10.4-10.9 18-12.4 3.6-.8 7.2.6 10.7 1.2 1.6.3 3.3 0 5 .3 2.4.5 4.9 1.5 7.3 2 3.5.8 7.2.5 10.7.3 4.2-.3 7.7-.2 10.7 3.1q3.2 3.7 5.7 8c2 3.5 5.2 7.7 9.9 6.5a15 15 0 0 0 9-5c4.3-4.7 8.8-10.4 15.6-10.9q5.5-.5 10.7 1.1c3 .8 6 2 9 2.5 4.7.2 9.4.8 14 0q3.8-1 7.4-2.2 6-1.8 12.3-2.3c3.1 0 6.1 1 9 1.7" class="b"/><path d="M13.5 214.2c5.9-2 8-8.8 13-12 5.7-3.2 10.4-1 15.7 1.3 1.8.6 4 .4 5.8 1.1 3.9 1.5 8 3.3 12.3 3 7.7-.5 13-3.8 18.9 3.3 4.2 4 6.4 11.8 13.1 12.3 10.1 0 11.4-15.1 27.1-15q4.6.2 9 1.5c2.7.6 5.5 1.5 8.3 1.5q2-.2 4-.5 3-.2 5.8-.7c2.8-.5 5.5-1.6 8.2-2q4.5-.6 9-.7 3-.2 5.8 0c3 .5 6 1.5 9 2" class="b"/><path d="M13.5 212c5-2 7-7.7 10.6-11.2 3-3 7.7-3 11.5-2 2.3.7 4.5 2 6.6 3q1.6.8 3.3 1 1.6.3 3.3 1.1c3.3 1.7 6.8 3.6 10.7 3.4 6.5-.2 13.7-5 19.7-.3q3.8 2.6 6.5 6.5a19 19 0 0 0 6.6 6c4.3 1.8 7.8-2.5 10.7-5.2 2.4-2.3 5-4.6 8.2-5.8s6.6-1.3 9.9-1.3c4.1 0 8.2 1.2 12.3 1.7 2.8.4 5.6-.4 8.2-1.2q4.1-1 8.2-2 2.9-.5 5.8-.4 4.5 0 9 .6c4.7 0 9.3 1.6 14 2.4" class="b"/><path d="M13.5 209.7c7-2.4 8-13.8 16.4-13.5a21 21 0 0 1 10.7 3.3q1.5 1 3.3 1.6 1.7.3 3.2.8c3.1 1.4 5.8 3.7 9 4.7 5.2 1.5 10-1.3 14.9-2.6 4.7-1.5 10-.5 14 2.5 2 1.7 3.7 4 5.7 5.7 8.7 8.6 12.3-6.6 25.4-6.5q5.4 0 10.7.3c3.5.4 7.2 1.2 10.7.3 3.3-.9 6.5-2.4 9.9-3a22 22 0 0 1 6.5-.1q4.3.3 8.2 1.1c2.2.5 4.5.5 6.6.9l9.9 2.1" class="b"/><path d="M13.5 207.8a14 14 0 0 0 6.5-5.4c2.2-2.6 4-6 7.4-7.3 3.6-1 7.4.4 10.7 2q2.4 1.2 5 2.4 1 .4 2.4.5 1.6.5 3.3 1.5c2.6 1.6 5.1 3.7 8.2 4.5 5.5 1.5 10.5-2 15.6-3.5 4.4-1.4 9.6-2.1 14-.2 4 2 7.2 7.2 12.3 6.2 4-1 7.5-3.5 11.5-4.4 3.7-1 7.6-.7 11.5-.5 4 0 8.2.8 12.3.5 5-.6 9.6-3.7 14.8-3.4 4.4.2 8.8 1.5 13.1 2.3q2.9.4 5.8.7 5.2 1.2 10.6 2.5" class="b"/><path d="M13.5 206c6.8-1.5 9-10.2 15.6-11.7 4.5-.6 8.4 2.3 12.3 4.1 1.5.9 3.3 1 5 1.3q3 1.4 5.7 3.4c7 5 13.6 1 20.5-2a31 31 0 0 1 16.4-2.6c4 .9 7.5 3.1 11.5 3.4 5.8.5 11.5-1.2 17.3-.8 5.2.3 10.4.8 15.6.4 3-.5 6-1.8 9-2.5 5.9-1.7 11.6 1.1 17.3 2.3 3 .7 6 .5 9 1 3.3.7 6.6 2 9.9 2.8" class="b"/><path d="M13.5 204.2c5.4-.8 8.7-5.6 13-8.2 5.2-3 10.3 1.1 14.9 3.2 1.5.8 3.3.7 5 1q2 .6 4 1.8c9.2 5.9 17.5-1.1 26.3-4 2.6-.8 5.5-.8 8.2-.9a86 86 0 0 0 9.9-1c3.6-.4 7.1 1.2 10.7 2q4.8.9 9.8.4c4.7-.2 9.3 1 14 .7 4.5-.2 8.7-2.1 13.1-2.7 5.7-1 11 2.2 16.4 3.1 3.5.8 7.2.2 10.7.9 3.2.7 6 2.6 9 3.4" class="b"/><path d="M13.5 202.2q3.8-.3 7.3-2c2.4-1.2 4.8-2.8 7.4-3.2 4.8-.8 8.9 2.5 13.2 3.8 1.5.6 3.3.3 4.9.4 2 .2 3.9 1 5.8 1.4 8.1 1.8 15.6-3.1 23-5.7 2.3-.8 4.9-.5 7.3-.8q4.5-.6 9-1c6.3-.6 8.6-1.7 14.9.7q2.8.8 5.7.8c2.2 0 4.4-.6 6.6-.7 3 0 6 .8 9 .8 2.8 0 5.6-.8 8.2-1.4 3.5-.8 7.2-1.4 10.7-.7q3.8.8 7.4 2a39 39 0 0 0 9.9 1.2c3.5-.2 6.8-.4 9.8 1.9 1.6 1 3.2 2.3 5 2.8" class="b"/><path d="M13.5 200.2q5.7 0 11.5-1.2c3-.5 6.1.2 9 1.2s5.9 2.3 9 2.3c1.4 0 2.8-.5 4.1-.5a45 45 0 0 0 19.7-3.9c3.3-1.2 6.4-3 10-3.3 4.1.2 8.1-1.3 12.2-2q3.4-.4 6.6 0 2.5 0 5 .6c3.2.6 6.4 2.1 9.8 2.4 3.7.2 7-2 10.7-2.5 2.4-.3 5 .6 7.4.7s5-.9 7.3-1.4q5-1 10-.3 3.2.5 6.5 1.4c3.5 1 7 2.3 10.7 2.4 2.4 0 5-.8 7.3-1 3.6.3 5.2 4.4 8.3 5.8" class="b"/><path d="M13.5 198.1q2.8.3 5.7.7 4.1.3 8.2 1c4.9 1.1 9.7 3.1 14.8 2.6 2.8-.3 5.5-1.2 8.2-1.7 3.8-.9 7.8-1.5 11.5-2.8 4.2-1.4 8-3.8 12.3-4.8 1.9-.2 4 0 5.8-.3 7-1.3 10.6-4.7 18-1.3 1.8.7 3.4 1.9 5 2.8 2.3 1 4.8 1.9 7.4 1.9 5.7-.2 9.7-6.1 15.6-5.6 1.6.1 3.3.5 5 .4s3.8-.8 5.7-1q4.5-.8 9-.5 4.3.6 8.2 2.2c3.4 1.4 6.9 3.3 10.7 3 2.3 0 4.4-1.2 6.6-2 1.7-.6 3.2 1 4 2.3 1 1.2 2.1 2.8 3.4 3.8" class="b"/><path d="M13.5 196q3.3.6 6.5 1.6c4.9 1.1 9.8 2.7 14.8 2.8q7.5 0 14.8-2c3.2-.7 6.7-.9 9.9-1.8 4.5-1.4 8.4-4.4 13.1-5.3 1.6-.3 3.3 0 5 0q3 0 5.7-1c3-1 5.8-2.6 9-2.5 5.3 0 7.6 5.2 11.5 7.7 2.5 1.4 5.5 2 8.2 1.3 2.8-.9 5.2-2.8 7.4-4.5s4.5-3.8 7.4-4.2q3.3-.1 6.6-.1 2.9-.4 5.7-1c6-.6 12.3 0 17.3 3.4 2.9 2 6.2 3.9 9.8 3.1 2.2-.3 4-1.8 5.8-2.9 3.4-1.9 4.8 3.3 6.6 5.2" class="b"/><path d="M13.5 194c2.2.3 4.4 1.3 6.5 1.9a28 28 0 0 0 15.6.6q3.7-.7 7.4-.8 3.3-.4 6.6-.6c3-.1 6.1.4 9-.4 2.7-.7 5-2.4 7.4-3.6q4-1.8 8.2-1.7c2.5.1 5 .5 7.4-.2q3.4-1 6.6-2.5c9.3-3.8 9.7 5.4 15.6 9.3 3 1.8 6.8 1.5 9.9 0q3.5-1.5 6.5-4.3c2.4-2.1 4.9-4.8 8.2-5.1 2.7-.3 5.5.2 8.2 0 7.2-.7 15-1.4 21.4 2.7 2.7 1.8 5.7 3.8 9 3 5.7-1.7 6.8-8.8 11.5-.4" class="b"/><path d="M13.5 192c3 .4 5.9 2 9 2.3 6 .8 11.4-2.7 17.2-2.9 3.3 0 6.7-.5 9.9.2s6.7 2.1 9.9.6c2-.9 3.7-2.3 5.7-3.1q3.2-1.3 6.6-1.3c8.5.3 8.2 1.3 16.4-2.8 12.5-5.8 8.3 15.2 23 10.6a30 30 0 0 0 9-4.3c3.6-3 6.4-6.1 11.5-5 2.2.3 4.4 1 6.6 1q4.5.2 9 .5c2.8.1 5.5-.9 8.3-.9 3.7 0 6.3 3.1 9.8 3.8 6.3 1.3 8.2-9.7 13.2-2.5" class="b"/><path d="M13.5 190.2c2.7 0 5.4 1 8.2 1.2 6 .4 11.3-3.2 17.2-3.6 3.3 0 6.7-.4 9.9.4 3 .8 5.8 3 9 2.3 2.7-.7 4.8-2.9 7.4-3.7q3.7-.7 7.4-.6c2.1 0 4.4.4 6.6.3 3.2-.2 6.1-2 9-3.4 8.8-5 9.2 7.1 14.8 10.6 2.3 1.3 5 .3 7.4-.4q5-1.3 9.8-3.4c2.9-1.6 5.6-4.2 9-3.9q2.7.3 5 1.5 2.8 1.1 5.8 1.8c3.2.5 6.7 1.4 9.8.2 2-.8 3.9-2.3 5.8-3.3 4-2 6.3.2 9.8 1.7q2.7 1 5-.8c2.6-1.8 5-5.7 8.2-2.3" class="b"/><path d="M13.5 188.6c4-.2 8.2.1 12.3-.6 5.1-1.1 10.2-3 15.6-2.9q3 0 5.7.4c4.1.6 8.2 4.5 12.3 2.2 2-1 3.7-2.5 5.8-3.1q1.6-.4 3.3-.3l3.3-.1c2.1 0 4.4.4 6.6.2 4.2 0 7.7-2.7 11.4-4.4 7.8-3 7.9 10.4 14 12 1.7.2 3.4-.5 5-1q2.8-1.1 5.7-1.9 3.3-.6 6.6-1.6c3.3-1.3 6.3-2.4 9.8-1 3 1.3 5.9 3.2 9 4.2 3.6 1 7.5.8 10.7-1 4.3-2.3 7.6-9 13.2-6.3 2 .8 4.4 2 6.6.9 2.6-1.2 5-4.5 8.2-2.9" class="b"/><path d="M13.5 186.7q7-.3 14-1.6 4.8-1 9.8-1.7 3.3-.2 6.5.2 3.8.3 7.4 1.5c3.1 1.1 6.1 1.7 9-.1 1.9-1 3.7-2.4 5.8-2.9l5.8-.4c2.1 0 4.4.3 6.5 0 4-.3 7.3-2.5 10.7-4 2.6-1.3 5.2.7 6.6 2.8 2.3 3 4 9 8.2 9.1 2.9-.2 5.4-2 8.2-2.7q6-1.6 12.3-1.9c4.6 0 8.4 3.2 12.4 5q3.9 2 8.2 1.1c3.2-.8 6.5-2.3 9-4.6 3-2.5 4.8-7 9-7.5 2-.3 3.9.5 5.8.6 3.4 0 6.4-2.5 9.9-2" class="b"/><path d="M13.5 184.4c3.5.3 7.1-.2 10.6-.7 4.4-.4 8.8-1.4 13.2-1.7 3.5 0 7.1.8 10.6 1 3.8.5 7.9 1.8 11.5.1 2-.8 3.8-2.1 5.8-3 3.4-1 7.1-1 10.7-1.2 4 0 7.8-2 11.5-3.4s6.3 2.7 8.2 5.4c3.9 5.9 5.1 8.4 12.3 4.7 4.6-2 12.5-3.8 17.3-1.7 4.6 2.1 8.7 6 14 6.7 3 .4 6.2-.8 9-2.1q2.5-1.1 4.9-2.7c3.3-2.6 5-6.8 8.2-9.5q1.8-1.6 4.1-2 2-.4 4.1-.4 4.5-.2 9-.2" class="b"/><path d="M13.5 182c3.2.8 6.5.4 9.8.1q5.4-.3 10.7-1c3.5-.6 7.1.3 10.7.5 4.6 0 9.4.7 14-.4 2.8-.9 5.3-2.7 8.1-3.7 3.8-1 7.7-1.2 11.5-2q2.6-.4 5-1.3c1.5-.5 3.3-1 4.9-.5 4.9 2 6.7 9.4 11.5 11.4 2.6.7 5-1 7.4-1.9 4.3-1.7 10.2-3.5 14.8-2.3 2.5.7 4.5 2.7 6.6 4.3 5.2 3.9 10.1 5.3 16.4 2.5q3.8-1.4 7.4-3.6c1.9-1.5 3.4-3.7 4.9-5.6 4.1-5.2 7.5-9.4 14.8-9 2.2 0 4.4.6 6.6.8" class="b"/><path d="M13.5 179.7c3.4 1.2 7 1 10.6.9q5.8.2 11.5-.7c2.7-.3 5.5.1 8.2.1q5-.1 9.9-.5 3.4-.1 6.6-1c2.2-.7 4.4-2 6.5-2.9 2.9-1.2 6-1.7 9-2.3 4.1-.5 8.8-3 12.4-.1 3.8 2.8 6.2 10 11.5 10 3-.3 5.5-2 8.2-3 4.2-1.4 8.8-3.5 13.1-1.9 2.7 1 4.5 3.5 6.6 5.3 4 3.5 9 4.6 14 2.8 3.8-1.3 7.7-3 10.7-5.8 4-4.2 7.9-9 13.1-11.9a20 20 0 0 1 13.1-.8" class="b"/><path d="M13.5 177.4q3.9 1.6 8.2 1.6 3.7 0 7.4.4c2.7.2 5.5-.4 8.2-1q4.1-.3 8.2-.6 3.7-.5 7.4-.6c2.7-.2 5.5-.2 8.2-.9 2.5-.7 5-2 7.4-3.1a32 32 0 0 1 5.7-1.9c6-1.2 10.3-2.7 14.8 2.6 6.7 8.2 7.5 9 17.3 4.2 3.2-1.3 6.4-3 9.8-3.6 9.3-.6 9.6 13.2 22.2 10.1a29 29 0 0 0 10.7-5.2c3.1-3 6-6.4 9.8-8.6q2.3-1.7 5-2.4 2-.5 4-.5c3.6-.3 7.1-2 10.7-1.2" class="b"/><path d="M13.5 175.1q2.3 1.3 4.9 1.9 2.8.3 5.7.5c2.5.2 5 .8 7.4.7 2 0 4-.8 5.8-1.4q3.2-.9 6.5-1.3a58 58 0 0 1 8.3-.6c2.7 0 5.5.2 8.2-.3 3.8-.5 7.2-2.7 10.6-4.2q4.7-2 9.9-1.8c5.6.2 8.3 5.8 12.3 8.8 3 2.5 6.8 1 9.9-.6q3.3-1.5 6.6-3.4c2-1 4.2-2.3 6.5-2.4 7 .2 8.5 9.5 14.8 11.2 3 1 6.3 0 9-1.3q3-1.3 5.8-3.3c2.4-1.8 4.2-4.3 6.6-6.2 3.2-2.4 7.2-4.9 11.5-4.2 2.4.5 4.9 1.3 7.4.6 2.4-.5 4.8-1.9 7.3-1.4" class="b"/><path d="M13.5 173.1q2.3 1.4 4.9 2.1 2.8.6 5.7.7c2.5.2 5 1 7.4 1q3-.3 5.8-1.9a32 32 0 0 1 14-2.4c3.2.3 6.6.7 9.8 0 7-1.4 12.8-7.5 20.5-5.5 4.4 1.3 7 5.3 10.7 7.7 7 4.9 16-6.3 23-7.2 7.7-.4 8.6 10.8 15.6 12.1 5 .9 9.3-2.8 13.2-5.4 2.2-2 4.2-4.4 6.5-6.2 3-2.2 6.9-4 10.7-3.1 3.5.9 7 3 10.7 2 2.1-.4 4.4-1.3 6.6-.8" class="b"/><path d="M13.5 171.4q2.6 1.7 5.7 2.3 2.9.4 5.8.7c2.4 0 4.9 1 7.3.8 2.1-.2 4-1.5 5.8-2.4q3-1.6 6.6-2.1c3.2-.6 6.6.1 9.8.4q3.4.1 6.6-.7 4.3-1.1 8.2-3c4-2 8.8-3.6 13.1-1.6 6 2.6 10 10 17.3 6.5 5.4-2 13.2-10 18.9-7 5 2.8 6.1 10.7 12.3 11.6 3.9.3 7-2.4 9.9-4.8 5.2-3.9 10-10.7 17.2-10.2 3.7.5 7 2.8 10.7 3.3 3.3.4 6.6-.8 9.9.2" class="b"/><path d="M13.5 170.1c3.7 2.1 7.2 2.3 11.5 2.4 2.4 0 4.9.8 7.3.7 1.8 0 3.5-1 5-1.9q3-1.8 6.5-2.6c3-.7 6 0 9 .3a19 19 0 0 0 6.6-.9q5-1.4 10-3.3c3.7-1.7 8.1-3 12.2-1.4 5 2 9 7.5 14.8 6.7 6.7-1.3 16.3-11 23-6.9 4.5 3 6 11.1 12.3 10.6 3.8-.5 6.5-3.6 9-6l5.8-4.4c3-2.4 6.7-4.7 10.7-4.3 4 .7 7.5 3 11.5 3.7 3.3.3 6.7-.3 9.9 1.1" class="b"/><path d="M13.5 169c3.6 1.8 7.5 1.4 11.5 1.3 2.4-.2 4.9.5 7.3.6 2.1 0 4-1.2 5.8-2.2q3-1.7 6.6-2.4c2.1-.3 4.4.2 6.5.4 3.4.3 6.7-1.3 9.9-2.2q4.6-1.2 9-2.6c4.2-1.8 8.2-2.6 12.4-.3 4.2 2.2 8.7 6.4 14 5.1 2.8-.8 5.4-2.4 8.1-3.5 4-1.4 8.1-2.8 12.3-2.9 4.5.2 6.5 4.9 9 7.8 1.7 2.1 4 3.3 6.6 2.3 3-.9 5.2-3.4 7.4-5.4q2-1.5 4.1-2.8c7.1-5 10.2-7.2 19-3.9 2 .7 4.3 1.6 6.5 1.9 3 .3 6.2.3 9 1.7" class="b"/><path d="M13.5 167.8c4 1.1 8.2 0 12.3-.2q2 0 4 .2c1.7.3 3.4.7 5 .2 3.6-1.2 6.8-3.7 10.7-4 2.2-.1 4.4.3 6.6 0 2.2-.4 4.4-1.5 6.5-2.2q5.3-1.5 10.7-2.5c5-1 7.3-3 12.3-.5 3.8 2.3 7.7 5.3 12.4 5 2.2-.2 4.4-1.4 6.5-2.2 3.1-1.3 6.6-1.4 9.9-1.7 2.4-.2 5-.9 7.4-1 4.7 0 6.6 5.2 9.8 7.8 2 1.7 4.6 1 6.6-.2 2.1-1.2 3.8-3.2 5.8-4.7 1.4-1 3.3-1.8 4.9-2.7 4.3-2.5 7.8-5.1 13.1-4.5 3.4.2 6.6 1.7 9.9 2.4 3.5.6 7.3.6 10.7 2.2" class="b"/><path d="M13.5 165.7c4.7.5 9.2-1.5 14-1.4 4.8-.1 6.5 2.2 11.4-.1q2.8-1.3 5.8-2c2.1-.6 4.4-.6 6.5-1.3 2.3-.6 4.4-1.7 6.6-2.4q4.8-1.5 9.9-2.1 2.8-.2 5.7-.5c1.6-.4 3.3-1 5-.7 3.1.5 5.5 3 8.1 4.5 5.3 2.7 9 .2 14-1.3 2.4-.7 5-.4 7.4 0q3.3.3 6.6-.2c2.7-.5 5.9-1.3 8.2.7 4 3.3 5.7 8.2 11.5 4.2 2-1.3 3.7-3.2 5.7-4.4 1.8-1.2 4-1.8 5.8-2.7 3.4-1.6 6.7-4 10.7-4 3.9-.2 7.7 1 11.5 1.7 3.6.6 7.4.9 10.6 2.6" class="b"/><path d="M13.5 162.5c7.4-.1 12.7-4 20.5-1.2 2.4 1 5 .4 7.4-.5L47 159c3.4-1 6.6-2.7 9.9-3.9q7.3-2.2 14.8-1.8 3 .2 5.7-.3c3.6-.4 6.3 2.5 9 4.3 5.3 3.2 10.4-2.3 15.7-2.2 3.3.1 6.5 1.8 9.8 1.7 3.3.3 6.7-1.6 9.9-.4 4.2 2 6.2 7.5 11.5 3.9 2.2-1.5 4.3-3.4 6.6-4.8q2.7-1.3 5.7-2.4c3.3-1.1 6.4-3.1 9.9-3.6 3.8-.5 7.7.3 11.5.8 4 .5 8 1.2 11.5 3" class="b"/><path d="M13.5 158c8.6-.3 13.1-5 22.1-.8 3.7 1.9 8-.1 11.5-1.5 3.3-1.3 6.5-3 9.9-4q7.7-1.9 15.6-1.2 2.9.3 5.8.3 3 0 5.7 1.8 1.6 1.4 3.3 2.4c4.6 2.6 8.6-2.7 13.1-3 3.5-.3 6.6 1.4 9.9 2.1 3.2.8 6.6 0 9.8 0 4.7.3 7.4 6.7 12.4 3.3 3.2-2 6.2-4.6 9.8-5.8 4.4-1.4 8.7-3.6 13.2-4.6 3.2-.6 6.6 0 9.8.4q7 .2 13.2 3.3" class="b"/><path d="M13.5 152.4q2.8 0 5.7-.7 2.4-.7 5-1.3c4-.6 8.5 0 12.3 1.9 3.5 2 7 1.2 10.6-.3q4.9-2.2 9.9-3.7a67 67 0 0 1 20.5-.2q3.6.1 6.6 1.8c1.7 1 3 2.8 5 3.4s4-.7 5.7-1.8c5.8-4.3 9.3-2.8 15.6-.8q2.8.7 5.7 1 2.5 0 5 .4c4.4 1.4 6.5 5.2 11.5 2.1 2.2-1.2 4.3-2.8 6.5-3.9q2.8-1.3 5.8-2.2c3.5-1.1 7-2.8 10.7-3.4 3.2-.7 6.6-.2 9.8.3q6.9.4 13.2 3.3" class="b"/><path d="M13.5 146.5q4.8-.2 9.8-.6 3.8 0 7.4.6 3.8.4 7.4 1.6c3.7 1.2 7 .8 10.7-.5 3.2-1 6.5-2.2 9.8-2.7 6.6-.3 13.2.3 19.7.9 3.5.3 5.8 1.4 8.3 3.8 1.1 1 2.4 2.5 4 2.6 3-.6 5-3.4 7.5-4.8 5.7-3.4 13 0 18.8 1.3q3.5.7 6.6 2.2c3 1.6 5 2 8.2.5 3.1-1.4 5.9-3.6 9-4.7q3.7-1.2 7.5-2 3.2-1.2 6.5-2 5-.8 9.9.1 3 .3 5.7.9 4.3 1.1 8.2 2.8" class="b"/><path d="M13.5 142.5q4.5-.1 9 .4 3.3.6 6.6 1.4c3.2.5 6.6.4 9.8 1.2q5.9 1.3 11.5-.8c10.5-3.8 11.8-2.5 22.2-1l6.6.7c2.3.2 4.8.7 6.5 2.3 1.4 1.2 2.7 2.9 4.1 4 2.2 1.5 4.3-.8 5.8-2.2 1.7-1.6 3.5-3.3 5.7-4 6.4-2.2 13 .7 19 2.7 3.6 1.5 5.8 2.7 9.8 1.5 4.7-1 8.5-4.5 13.1-6 2.1-.7 4.4-.7 6.6-1 2.7-.2 5.5-1 8.2-1q3.3 0 6.6.7 2.4.2 5 .7c3 .7 6 2 9 2.8" class="b"/><path d="M13.5 140.2q4.1 0 8.2 1c2.7.7 5.4 2.1 8.2 2.6 2.1.4 4.4 0 6.5 0q2.6 0 5 .5c2.8.6 5.6-.1 8.2-1.2 3.2-1 6.4-2.5 9.8-3 2.5-.5 5 .3 7.4 1q4.1 1 8.2 1.9 2.9.4 5.8.3c2.3 0 5 .3 6.6 2 4.7 6 5.2 6 10.6.7 5.1-5 11.1-4.1 17.3-2l5 1.2q3.5 1.3 7.3.8 5.2-.6 9.9-2.7c2.4-1.3 4.8-3 7.4-4 3.1-1.3 6.5 0 9.8 0q5-.1 9.9.8 7 .8 14 3.2" class="b"/><path d="M13.5 139c4 .3 8 1 11.5 3 5 2.4 7 2.2 12.3 1 2.1-.4 4.4 0 6.5.1 2.7.2 5-1.3 7.4-2.2 10.5-4.3 9.5-3.9 19.7 0a18 18 0 0 0 11.5 1.3c1.6-.2 3.4-.5 5 .1 1.7 1 2.8 3.2 4 4.6 1.8 2.1 4 1.1 5.8-.4 4.8-4.4 8.4-5.9 14.8-4.4a55 55 0 0 0 25.5-.7c2.5-.6 4.5-2.3 6.6-3.8a8 8 0 0 1 7.3-1.4q6.6 1.8 13.2 3c1.8.2 3.9 0 5.7.4q4.3.8 8.2 2.5" class="b"/><path d="M13.5 138.2c2.7.6 5.6 1 8.2 2.2 3.1 1.4 6.3 3.5 9.8 3.4 2.9-.1 5.4-2 8.2-2.2 4.5 0 5.7.7 9.9-1.6 3.3-1.3 6.4-3.1 9.9-4 2.3-.6 4.5.4 6.5 1.4l5.8 2.8c3 1.6 6.5 2.6 9.8 1.5 2.2-.5 4.3-2 6.6-1.6 3.2 1 4.1 7.1 8.2 5.7 2-.8 3.8-2.4 5.8-3.4 3-1.7 6.5-1.7 9.8-1.3q3.8.2 7.4-.1c5.2-.2 10.4-.8 15.6-.8 9-.1 8.7-6.8 14.8-6.7 3.2.4 6 2 9 3q2.9 1.3 5.8 1.8c1.6.3 3.3 0 5 .2 3 .2 6 1.4 9 2.6" class="b"/><path d="M13.5 137.7q4.6 1.1 9 3c5 2.5 8.9 4.1 14 .9q2.6-1.5 5.7-1.5a13 13 0 0 0 6.6-1.3q3-1.2 5.7-2.6c2.5-1.3 5.4-3 8.2-1.8s5.5 3 8.2 4.3c2 1.1 4.3 2.3 6.6 2.6 3.3.5 6.3-1.4 9-2.9 3.3-1.8 4.7 1 6.6 3.1 2.2 2.6 4.7 2 7.4.7q2.8-1.5 5.8-2.2 3.7-.5 7.3-.5 3-.1 5.8-.8 4.9-.6 9.9-.7c7.5.3 11 2 16.4-4.5q3.2-3.2 7.4-1.4c3.9 1.6 7.4 4.2 11.5 5.3 2.1.6 4.4.3 6.5.6q3.8.6 7.4 2" class="b"/><path d="M13.5 137q4.5 1.5 9 3.5c3 1.3 6.4 2.9 9.8 2.2 2.8-.6 4.8-2.7 7.4-3.6 2.4-.9 5-.6 7.4-1.4q3.4-1.2 6.6-2.6c2-1 4.2-2.4 6.6-2.4 2.6.2 5 1.9 7.4 3 6 3.1 10.8 6.2 17.2 2 2-1.2 4.4-3.5 6.6-1.8 1.8 1.5 3.4 3.4 5.7 4.1 2.2.6 4.5 0 6.6-.6a49 49 0 0 1 6.6-1.2c5.8-.5 11.4-2.6 17.2-2.6 7 0 12.7 3.7 18-3.1 2.3-2.5 5.1-3.6 8.3-2.1 3.2 1.4 6 3.8 9 5.3 2.5 1.4 5.5 1.4 8.2 1.7q3.8.4 7.4 1.3" class="b"/><path d="m13.5 136.1 9.8 3.7c3.4 1.1 7.2 3 10.7 1.4 2.2-1 4.2-2.8 6.6-3.7s5-1 7.3-1.7q3-.7 5.8-1.8c1.8-.8 3.7-1.8 5.7-2 2.6 0 5.1 1.2 7.4 2.2 6.5 2.8 11.7 5.3 18.1.9 2.2-1.3 4.6-4.3 7.4-2.8 2 1 3.7 2.7 5.8 3.7 4.4 2 9.3.5 14 0 5.4-.5 10.7-3 16.3-2.8 5.2.2 11 3.6 15.6 0 3.4-2.9 5.9-6.3 10.7-4 2.4 1 4.5 2.7 6.6 4.1q2.6 2 5.8 2.6c3.7.7 7.7.7 11.5 1.3" class="b"/><path d="M13.5 134.7a75 75 0 0 0 11.5 3.9c3.7 1 8 2.3 11.5 0q2.3-1.6 4.9-2.7c3.1-1 6.6-1.3 9.8-1.8s6.5-2.5 9.9-2.3q3.8.5 7.4 1.7c8 2.6 12.3 2 18.9-3.3 2.5-2 4.4-2.5 7.4-.9q3.9 2.3 8.2 3.3 6.6 1.2 13.1.5c3.3-.4 6.6-1.7 9.9-2.1 6-1.3 12.2 4.2 18 1 3.8-2.5 6.5-6.1 11.5-4 2.7 1.2 5 3.2 7.4 4.7 4.6 3.1 10.4 2.5 15.6 2.7" class="b"/><path d="M13.5 132.7q2.7 1.4 5.7 2.3 3.2.8 6.6 1.2c3 .4 6 1 9 .7 3.7-.7 7-3 10.7-3.1 2.4-.2 5 0 7.4-.4 3.2-.7 6.4-2.2 9.8-1.9 10.8 1 13 3.5 23-3.2 5.3-3.6 7.2-3.3 13.2-1.8l10.7 2.5a23 23 0 0 0 11.5.8c2.7-.5 5.4-1.4 8.2-1.3 5.3.4 10.2 4.6 15.6 1.6 4-2.4 7.5-5 12.3-2.7 2.6 1.2 4.9 3 7.4 4.5 4.3 2.3 9.3 1.8 14 1.4" class="b"/><path d="M13.5 130.2q2.7 1.4 5.7 2.4c2.7.5 5.5.3 8.2.3 4.1-.2 8.3.6 12.3 0 3.8-.7 7.7 0 11.5 0 2.8-.1 5.5-1 8.2-1.6 4-1 8.3-.4 12.4-.3 3.5 0 6.8-1.6 9.8-3.3a72 72 0 0 1 7.4-3.3 46.4 46.4 0 0 1 20.5.3q3.4 1.1 6.6 2.2c3.8 1.2 7.7 0 11.5-.6q3-.4 5.8.7c4.8 1.8 8.2 3.5 13.1.8 3.5-1.8 7.7-3.4 11.5-1.7 2.6 1 5 2.8 7.4 4 4.6 2.3 8.3 1.8 13.1.7" class="b"/><path d="M13.5 127.6c2.1.6 4.3 1.8 6.5 2.1 3 .2 6-.8 9-1.1q3.8-.4 7.4.5 4.1.6 8.3 1.4 4 .9 8.2 1c3.8-.2 7.6-1.6 11.5-1.7q3.3-.1 6.5-.2c5.2-.5 9-4.5 14-5.6a63 63 0 0 1 17.3-2c2.7 0 5.5-.4 8.2-.3q3 .5 5.7 1.8c3.7 1.7 7.6 1.3 11.5.6q3.4-.7 6.6.8c5.4 2.1 7.3 3.2 13.1 1 4-1.6 8.2-3 12.3-1 3.8 1.7 7.3 4.3 11.5 4.5 2.6.2 5-.9 7.4-1.6" class="b"/><path d="M13.5 125.3q2.8.7 5.7 1.3c3.4.2 6.5-1.8 9.9-2.3 3.3-.5 6.6.4 9.8 1.3 5.7 1.5 11.3 4.6 17.3 4q4.8-.7 9.8-1c7.7.1 7.9-1.7 14-5 2.8-1.4 6-1.6 9-1.5q3.3.2 6.6.1 3.3.3 6.6.2c3.1 0 6-1.6 9-2.5 3.7-1 7 2 10.7 2.3 2.7.3 5.5-.6 8.2-.7 5.3 0 9 4.4 14.8 3 4.9-.8 9.8-3.7 14.8-1.7 4 1.5 7.8 4.5 12.3 4 2.2-.3 4.4-1.2 6.6-1.7" class="b"/><path d="M13.5 123.4c2.1.2 4.4.8 6.5.6 3-.5 5.4-2.5 8.2-3.3 6-1.5 11.8 1.6 17.3 3.7 4 2 7.7 3.4 12.3 3.2 4 0 8.3.4 12.3-.3 2.5-.5 4.6-2.3 6.6-3.8 5.1-3.5 9.2-2.8 14.8-1.2q2.4.3 5 .4 3.6.6 7.3-.1 2.6-.5 5-2c2-1.1 4-2.8 6.5-2.7 1.7.2 3.3 1 5 1.4 6.5 1.8 9-2 16.4 1.2 1.8.8 3.7 1.7 5.7 1.7 4 .3 7.7-1 11.5-1.8 6.2-1.4 10.5 3.8 16.4 3.9q1.7-.1 3.3-.4 2.5 0 5-.2" class="b"/><path d="M13.5 121.8c7.2.6 7 .5 13-3.2 6-3.2 12.6-.2 18.2 2.2 3.4 1.6 6.7 4 10.6 4.6 5.9.7 13 3 18.1-1 3-2.5 6.6-4.7 10.7-4.4 3.4.2 6.3 2.9 9.9 2.6 4.5.1 9-1.2 13-2.7 3-1.2 5.8-3.7 9.1-3.7 2 .2 3.9 1.1 5.8 1.4 3.3.4 6.5-.9 9.8-.7q3 .4 5.8 1.4 3.5 1.7 7.4 1.7c4.7.2 9.2-2.6 14-1.4 3 .8 5.8 2.7 9 3.2 1.6.4 3.3.1 5 .4s3.7.9 5.7 1" class="b"/><path d="M13.5 120.2c2.1 0 4.4.3 6.5 0 2.1-.5 4-2 5.8-3.1q3.7-2.4 8.2-2.1 6 .8 11.5 3.5c3.2 1.8 6.3 4 9.8 5 8 2.2 12.8 3.8 19.8-1.7 2.8-1.8 6.4-3.2 9.8-2.3 2 .6 3.8 2 5.8 2.5 3.8.8 8-1.6 11.5-3 3.7-1.6 7.4-3.7 11.5-4.4q1.6-.3 3.3-.1 2 .6 4 1.1c2.5.5 5-.2 7.5-.6 3-.6 6 .2 9 1 2.1.7 4.3 1.7 6.6 1.8 4.4.6 8.7-1.6 13.1-1.2 3.2.4 6 2.4 9 3.3 1.9.6 4 .6 5.8 1 2.2.5 4.4 1.3 6.6 1.6" class="b"/><path d="M13.5 118.3c8.5 0 7 0 14-4 5.5-2.8 11.9-.7 17.2 1.7 4.1 2 7.9 5 12.3 6.4 5 2 8.9 2.4 14 .2 4-2.2 8.3-5 13-4.3 2.7.5 4.7 3 7.5 3 4.5-.5 8.3-3.5 12.3-5.6q2.7-1.5 5.7-2.6 2.5-.6 5-.5c2.2-.3 4.4.7 6.5 1.2 3.4.7 6.6-1.1 9.9-1.3q2 .1 4.1.5 1.7.3 3.3.8 3.5 1.4 7.4 1.9c5 .3 10-2.1 14.8.4 2.4 1.2 4.8 2.7 7.4 3.3 1.5.4 3.3.3 4.9.6q3 .4 5.7 1.2" class="b"/><path d="M13.5 116.1c3-.4 6.2.1 9-1.2 1.9-.9 3.7-2.1 5.7-2.8 5.5-2 11.5-.2 16.5 2.2 4.6 2.4 9 5.6 14 7.2a14 14 0 0 0 6.5.8q3.4-.6 6.6-2c4-1.8 9.5-4.6 14-2.9 2.8 1.5 4.7 3.6 8.1 2.1 5.6-1.9 9.9-6.8 15.7-8q2.8-.4 5.7-.4t5.8.7c4.6 1 8.3-2.8 13-1.4l4.2.8q3.6 1.4 7.4 2.2c3.8.6 7.7-.5 11.5.3s7 3.5 10.7 4.7c1.5.5 3.3.1 4.9.2q3 0 5.8.9" class="b"/><path d="M13.5 113.6c2.6-.6 5.5-.1 8.2-.7 2.4-.8 4.8-2 7.4-2.6 12.2-2.5 19.7 7 30.3 10q3.7.8 7.4-.2 2.6-.5 5-1.4 3.7-1.5 7.3-2.6c2.4-.7 5.1-1.3 7.4-.2 4.1 2.3 5.1 3.5 9.9 1.4 3.8-1.7 6.8-5 10.7-6.4 2-.7 4.4-.7 6.5-1a24 24 0 0 1 8.3-.1c5.5.5 7-3.5 14-1.6 3.6.4 7 2.4 10.6 3 3.8.8 7.8.1 11.5 1.2 4.3 1 7.8 4.4 12.3 4.8q2 .1 4.1 0 2.1 0 4.1.5" class="b"/><path d="M13.5 110.8c2.6-.7 5.4 0 8.2-.2q4-1 8.2-1.4 5.4-.5 10.7 1.1c6.1 2.4 11.5 7 18 8.4q4.1.8 8.2-.2 4.6-.8 9-2.4c3.8-1 7.7-3.4 11.6-2 3.4 1.5 5 3.4 9 1.9 3.6-1.4 6.3-4.4 9.9-5.8 2.3-.8 5-1 7.4-1.6q2.3-.8 4.9-1 2.4-.2 5 0c4.7-.4 6.8-3.5 12.2-2 3.8.3 7 2.6 10.7 3.5 3.8 1 7.8.6 11.5 1.4 3.5.7 6.6 2.4 9.9 3.6q5.1 1.8 10.7 2.1" class="b"/><path d="M13.5 108.2c2.7-.7 5.4.1 8.2.4q4.1.1 8.2 0c11.2 0 11.2 1.2 20.5 6.1a25 25 0 0 0 15.6 2.8c5.2-.4 10-2.4 14.8-4.3 3.3-1.4 6.6-2 9.9-.3q2 1 4 1.1c3.8-.2 6.6-3.2 10-4.5 2.3-1 5-1.4 7.3-2.2 3-1 6-2.2 9-2q3.9.1 7.5-1.1c3-1.3 5.7-1.7 9-.9 3.2.5 6 2.7 9 3.5 4 1.2 8.3.8 12.4 1.2q5.9 1 11.5 3.2c2.6 1 5.3 2.6 8.2 3" class="b"/><path d="M13.5 106c3-.6 6 .7 9 1.2q3.7.4 7.4 1 4.9.8 9.8 1.3c2.7.4 5.1 2 7.4 3.3q4 2.3 8.2 3.3c5.4 1.2 11.2 1 16.5-.4 4.5-1.4 8.7-3.8 13.1-5.4q2.8-1 5.8-.7c1.8.1 3.8.7 5.7.3q3.3-.9 6.6-2.1l7.4-2.3c3.1-1.2 6.4-2.6 9.8-2.5q3.8.2 7.4-.6c3-.9 6-2 9-1.6q1.8.2 3.4.6 2 1 4 2a18 18 0 0 0 7.5 1.7c6.2 0 12.8-1.1 18.8 1.2 2.8 1 5.4 2.6 8.2 3.4" class="b"/><path d="M13.5 104c4.1-1.2 6.9.8 10.6 2.1 5 1.8 10.2 3.7 15.6 3.6 8.1.7 8.2 6.8 23 6.3q4.6 0 9-1.2c7-2.4 12.8-7.3 19.8-9.4 3-.7 6 0 9-.5 5.1-.6 9.9-2.5 14.8-3.7 3.2-.7 6.6-.1 9.9-.4 5.2-.6 10.3-3.5 15.6-1.6 8.2 4.6 12.6 3.1 21.3 2.5 3-.2 6.1.5 9 1q3.8.6 7.5.9" class="b"/><path d="M13.5 100.7c3.3-1.3 6.4 1.1 9 3 2.7 1.7 5.8 3.4 9 4q3.4.6 6.6 0c2.4-.5 4.4-.6 6.6.7 3.2 1.9 6.2 4.6 9.8 5.7a29 29 0 0 0 18.1-1c6-2.7 10.9-7 16.4-10.4 3.6-2.4 7.5-1.4 11.5-1.5 4.5 0 8.8-1.4 13.2-2.2 3.8-.7 7.6.2 11.5 0 3.3-.3 6.5-1.5 9.8-2.2a14 14 0 0 1 5.8-.1q2 .8 4 1.7c5.5 2.5 11.6 1.1 17.3 1.2 3.6-.1 7.1 1.8 10.7 1 2-.4 3.9-1.4 5.8-2" class="b"/><path d="M13.5 96.7c3.6-.5 6.4 2.5 9 4.6 5 4 8.2 4.6 14 1.8 4-2.1 5.7-3.7 9.8-.4 6.5 5.7 11 11.5 20.6 10.5 5.7-.9 10.2-5 14.7-8.4 3.3-2.5 6.7-5.3 10.7-6.5 1.9-.3 3.9 0 5.8 0q3.3.2 6.5-.1c4.7-.5 9.3-1.9 14-1 6.8 1.3 11 0 17.3-2.3 2.8-1 5.4-1.2 8.2.2a22 22 0 0 0 7.4 1.7c4 .3 8.2-.3 12.3.5 7.3 2 8 2.8 14.8-2" class="b"/><path d="M13.5 93.3c5.7.9 8.6 8.2 14.7 7.8 4.6-.4 8.1-4 11.5-6.7 4.3-3.4 8.7 2.3 11.5 5.1 2.4 2.6 4.7 5.4 7.4 7.6 12 9 21.1-5.7 31.2-10.2 3.4-1.6 7.2-.1 10.7-.2 4.4.2 8.8-.7 13.2-.9 2.8 0 5.5 1 8.2 1.4 5.2 1 10.4-1.3 14.8-4a9 9 0 0 1 7.4-1.3q3.6 1 7.3 1.1c3.6.1 7.2-.2 10.7.5 7.5 1.8 9.1 5 16.4-.5" class="b"/><path d="M13.5 91.2c5 2.5 8.2 8.3 14.7 6.2a28 28 0 0 0 9.9-6.3c1.2-1 2.4-2.5 4.1-2.7 3.5-.3 6.5 2 9 4.2 7.6 6.8 10.9 16.8 23 12.2 5.7-2.3 9.8-7.4 15.7-9.4q2.8-.9 5.7-.1l5 .5c4.3.4 8.7-.5 13-.4 2.3.1 4.5 1 6.6 1.7q5.6 1.5 10.7-1c3.8-1.3 6.4-4.6 9.9-6.4a13 13 0 0 1 5.7-.9h5.8c15.5-1 15.2 8.8 26.3 1.9" class="b"/><path d="M13.5 90.1c2.1 1.4 4.1 3.4 6.5 4.5 3 1.3 6.3.5 9-1q3.4-1.4 6.6-3.2c5.6-3.4 5.9-6 13.2-3.4 11.5 4 12.4 18 27 14.5 4.8-1.5 8.5-5.2 13.2-6.6 3.5-1.3 7.2 0 10.7.3 4 .4 8.2-.2 12.3 0 3 0 5.6 1.3 8.2 2.2 4.8 1.4 10 0 14-2.8 3.2-2.4 5.5-6 9-8 4.4-2.2 10-2.7 14.8-1.8 9.2 2.4 9.9 9 20.6 3.4" class="b"/><path d="M13.5 89.4c9.5 7.4 11.8 1.5 21.3-.5 2.8-.5 5-2.4 7.4-3.5 3.9-1.5 8.6-.6 12.3.9 5.8 2.5 9 9 14.8 11.3 2.3.9 4.9 1.7 7.4 1.3 2.6-.5 5-1.8 7.4-2.9a19 19 0 0 1 9-2q5.4.7 10.7.6c3.8-.1 7.8-.5 11.5.7 2 .7 3.8 1.7 5.8 2 4.4.9 9.4.1 13.1-2.7 3.3-2.6 5.4-6.5 8.2-9.5A15 15 0 0 1 163 84c7 5.6 7.8 4.5 15.7 1.7" class="b"/><path d="M13.5 88.4c8.2 4.5 9.6 1.2 17.2-.7 2.4-.4 5-.1 7.4-.8 2-.5 3.8-1.7 5.7-2.4q3.2-1.1 6.6-1c3.4 0 7 .5 9.9 2.4 6 4.2 11.4 12.4 19.7 10.3 3.5-1 7-2.4 10.7-2.7 2.7-.2 5.5.2 8.2 0 5.2-.2 10.6-1.2 15.6.7 2.2.7 4.3 1.9 6.6 2.2 4 .6 8.6.6 12.3-1.5 4.8-3.3 6.7-9.3 10.6-13.4 3.7-4 10-5.8 14.8-3 3.1 1.6 5.3 4.6 8.2 6.5 3.9 2.2 7.7-1.4 11.6-1.6" class="b"/><path d="M13.5 86.7c5.8 2.3 9.1.6 14.7-.8 3.6-.7 7.2.5 10.7.1 2.3-.2 4.5-1.2 6.6-2q3.7-.9 7.4-1.3c6.1-1.2 9.6 0 14 4.4 3.4 3.2 7 7.6 12.3 7.4 2.1-.1 4.4-.8 6.5-1.1 5-.9 10-.9 14.8-2 7.2-1.4 10.7-.5 17.3 2.6 3.8 1.4 8.2 1.7 12.3 1.3 8.2-1.2 9.9-11.9 15.6-16.7 2.6-2.4 6.3-4 9.9-3.6 6 .7 8.5 8 13.1 8.7 1.7 0 3.4-.8 5-1.4a11 11 0 0 1 4.9-1" class="b"/><path d="M13.5 84.4c4.9 1 9.8-.5 14.7-.7 3.9 0 7.7 1.3 11.5 1.3q3 0 5.8-.8 3.3-.5 6.6-1.3c2.7-.7 5.4-2 8.2-2.5 6.1-.7 9 6.2 13.1 9.4 4.5 4 9.4 2.5 14.8 2q3.8-.4 7.4-1.6c3-1 6-2.3 9-2.5 6.6-.8 10.6 3.9 16.5 5.1 3.7.7 7.7 1.7 11.5.7 6.4-2.5 8.5-11.9 14-16.2 14.4-10.9 15.4 4.4 22.1 4.5 1.4-.1 2.8-1 4.1-1.5q2.8-1.2 5.8-.6" class="b"/><path d="M13.5 81.7c4.9 0 9.8-.6 14.7 0 5 .7 9.8 2.2 14.8 2.3 4.5-.1 9.3.2 13.2-2.2 2.1-1.2 4.1-3 6.5-3.7 3.9-.9 6.2 3.2 8.3 5.7 1.6 2 3.4 4.2 5.7 5.6 2.2 1.3 4.9 1.3 7.4 1.3q3.4 0 6.6-.8c7-2.4 11.3-8.7 19.7-5 2.6 1 4.9 2.8 7.4 4.2q2.7 1.3 5.7 1.9c3 .6 6 1.4 9 .9 3.8-.9 6.2-4.4 8.3-7.4 1.9-2.7 4-5.6 6.5-7.7q2.8-2 5.8-3.7c2.5-1.3 5.1-1.6 7.4.5 2.7 2 5 7.6 9 6.2 3-1.5 5.6-2.5 9-1.2" class="b"/><path d="M13.5 79q7-.4 14 .9c6.4 1.2 13 2.9 19.6 3.1 9.7 1.2 9.8-1.6 16.5-6.8 5.9-3.9 8.3 10.3 17.2 12.2 3.5.6 7.4 1 10.7-.7 5.6-3.4 9.6-10 17.2-7.5 2.7.9 5.1 2.7 7.4 4.2q3.5 2.4 7.4 3.7c13.7 4.6 14.6-1.8 23-10.2q3.9-3.5 8.2-6.2c3.5-2.4 6-.3 8.2 2.5 1.5 1.7 3.2 4.4 5.8 4 1-.2 2.2-1 3.3-1.2 2.2-.7 4.6 0 6.5 1" class="b"/><path d="M13.5 76.7c2.4 0 4.9.6 7.3.8 5 .4 9.9 1.6 14.8 2.3l6.6 1.2 8.2.8c8.5 1.3 9.5-3 14.8-7.8 5-4.2 8 10.3 18 12.6 4.5 1.3 7.7.8 10.7-2.8 3.5-4 8-9 14-7.7 3 .6 5.7 2.5 8.2 4.2q3.2 2.1 6.6 3.9c7 3.7 14 3.7 19.7-2.2q4.7-4.6 9.9-8.8c2-1.5 3.8-4 6.5-4 4 .7 5.2 6 9 7.2 1.1.2 2.3-.3 3.4-.6 2.6-.6 5.1 1 7.3 2.1" class="b"/><path d="m13.5 75 5.7 1.2 10.7 1.4a182 182 0 0 1 22.2 3c7.6 1.8 9.5-2.8 14-7.6.8-.8 2-1.7 3.2-1.3 2 1 3.5 2.8 5 4.4 3 3.3 6.3 6.9 10.6 8.7 4.7 2.5 7.2 0 9.9-3.7 3-4.3 7.3-8.9 13.1-8.2 3 .3 5.7 1.7 8.2 3.2q3.4 1.8 6.6 4c2.5 1.6 5.2 3.1 8.2 3.5 4.3.2 8.8-.9 12.3-3.3 3.6-2.3 6.6-5.4 9.9-8 1.8-1.6 3.5-3.8 5.7-4.6 4.3-.5 5.7 5 9 6.6a7 7 0 0 0 3.4.2c2.7.1 5 2.2 7.4 3.4" class="b"/><path d="M13.5 74q2.8.7 5.7 1.3 6.6 1 13.1 1.1c4.4 0 8.9 0 13.2.8 2.5.6 5 1.7 7.4 2.4q6.4 2 10.7-3.2c1.9-1.8 3.6-5.7 6.5-5.8 5.1.8 11.1 9 15.6 12 11.2 10 7.8-21.7 33.7-9 3.7 2 6.5 5.6 10.7 6.6 1.9.5 3.9 0 5.7 0q5.6-.5 10.7-2.5c2.8-1.6 5.2-3.9 7.4-6.1 1.8-1.8 3.5-4.1 5.8-5.5 4-1.5 6.1 4 9 5.9 1.2.9 2.8 1.3 4.1 2q2.8 2.1 5.8 3.8" class="b"/><path d="M13.5 73.3q4.5 1 9 1.3 4.9.7 9.8.4c4.6-.4 9.5-1.2 14 .1 2.3.8 4.4 2.2 6.6 3 3.2 1.3 7 1.2 9.8-1 2.8-2 4.4-5.6 7.4-7.1 6.2-1.8 13.6 7.1 17.3 11.3 6 7.4 8-5.7 14-9.9q2.9-2 6.5-2.3c4-.5 8.5-1 12.3.7 4.2 2 6.6 7.4 11.5 8q5.8-.1 11.5-.8c2.2 0 4.7 0 6.6-1.2q3.4-2 5.7-5.1c1.7-2 3.1-4.4 5-6.2 4.2-4 7.4 3 9.8 5.7 2.3 2.8 5 5.5 8.2 7" class="b"/><path d="M13.5 72.4c3 .5 6 .1 9 .4 3.5.3 7.1.8 10.7.4l6.5-.8c2.2-.2 4.5-.4 6.6.3 2.6 1 5 2.7 7.4 4 3.1 1.5 7 1.2 9.9-1 2.7-1.8 4.3-5.3 7.4-6.6 6.7-1.7 13 3.7 16.4 9 1.2 1.6 2.4 4.8 5 4.4 1.4-.7 2.4-2.5 3.2-3.8 1.7-2.8 3.2-6 5.8-8 2.3-1.8 5.4-1.8 8.2-2.3 4.2-.6 9.2-3.5 13.1-.4 6.5 5.9 4.7 8.3 14.8 8q3.3 0 6.6-.2c3.2.1 6.2.3 9-1.9 2.8-1.8 4.8-4.8 6.6-7.6 1.2-1.8 2.3-4 4-5.5 5.6-2.8 7.8 13.2 14.9 14.9" class="b"/><path d="M13.5 71.3c2.7.1 5.4-1 8.2-1 3.8.2 7.6 1.1 11.5.7q4-.6 8.2-1c1.8 0 4-.3 5.7.5 2.7 1 4.8 3.2 7.4 4.4 3.5 1.8 7.8 1 10.7-1.6 2.3-2 4-5.3 7.4-5.6q2 .1 4 .4 3.7.2 6.7 2.3 2.4 1.8 4 4.3c1.6 2.1 2.4 5.8 5 6.7 2.7-.2 4.8-6.5 6.6-8.5 3.6-5.5 7.2-2.8 12.3-4.3 2.5-.9 4.8-2.5 7.4-3.3 6.6-2.3 7.8 7.5 13.1 9 4 1.4 8.3 1 12.3.6 3.7 0 7.6.2 10.7-2 6.1-3.2 8.9-13.5 12.3-13.9 4.4 1.9 5.8 11.6 11.5 14" class="b"/><path d="M13.5 70c2-.2 3.8-1.1 5.7-1.6 4.6-1 9.3.8 14 .1 4.7-.6 10.2-2.2 14.7 0 2.5 1.3 4.8 3.2 7.4 4.2A9 9 0 0 0 66 71c3.5-3.3 4.6-5.6 9.9-3.7 2.6 1 5.7 0 8.2 1.6 1.7 1 3 2.8 4.1 4.5 1.3 2 2.4 6.7 5 7 3.8-1.8 4.5-10.4 9.8-11 4 .2 5.8 1.7 9.8-.7 2.5-1.5 4.8-3.5 7.4-4.8 2-1 3.9.5 5 2 1.5 2.1 2.8 4.8 4.9 6.5 3.4 2.8 8.2 2.4 12.3 2 8.7-.7 14.6-.4 20.6-8 1.5-1.7 2.8-4.2 4.9-5.4 2.6-.8 4.2 2.4 5.7 4a25 25 0 0 0 5 4.7" class="b"/><path d="M13.5 68.9c2.2-.5 4.3-2 6.5-2.5 4-1 8.3.3 12.3-.1 2.5-.2 5-1 7.4-1.3 5.8-.9 10.6 2.8 15.6 4.9 3.8 1.6 7.5 2 10.7-1 5.4-5.2 5-4.8 11.5-1.7 2.7 1 6-1 8.2 1 1.8 1.6 3.2 4 4.1 6.2.8 1.6 1.6 4 3.3 4.7l.9-.2c3.1-2.6 3.6-9.2 8.2-9.8 1.7 0 3.2 1 4.9 1.3 2.4.5 4.7-.6 6.6-2 2.1-1.8 4.3-3.9 6.5-5.5 3.6-2.5 5.7 3 7.4 5.4 1.3 1.8 2.8 4 5 4.7 4.8 1.5 9.8 0 14.7-.2 5.4-.4 11-1.7 15.6-4.4 1.7-1 3.3-2.4 5-3.4 3.5-2.5 7.5 0 10.7 1.8" class="b"/><path d="M13.5 67.8c2.5-.7 4.8-2.4 7.3-3 4-1.4 8.3-.4 12.4-.9 3-.4 6-1.2 9-.8q3.4.5 6.6 1.9l6.5 2.1c3.4 1.3 6.8 2.6 9.9 0 2.2-1.5 4.3-5 7.4-3.7 1.8.9 3.2 2.5 5 3.5 2.8 1.7 4.6-.4 7.3-.2 3.2 1.2 4.4 5 5.8 7.9.5 1 1.3 2.8 2.4 3.3h.8c2.7-2.4 3.2-6.5 5.8-9 3.6-2.7 6.2 4.2 12.3.3 2.5-1.7 4.4-4.1 6.6-6 .9-.9 2-2 3.3-2.2 2.4.3 3.6 3.3 4.9 5.1 3 4.5 4 7 9.9 6.4q3.3-.2 6.5-.8 4.1-.3 8.2-1c5-.8 9.9-2 14.8-2.6q3-.7 5.8-1.6c2-.9 4.3-1.5 6.5-.8" class="b"/><path d="M13.5 66.3c3.3-1 6.3-3.2 9.8-3.9 2.7-.6 5.5-.5 8.2-.7 2.2 0 4.4-.5 6.6-.6 3.4-.1 6.7 1 9.9 2 2.4.7 5 1 7.3 1.7 3.6 1.2 6.6 2.4 9.9-.3 1.3-1 2.6-2.3 4.1-3 3.6-.9 5.7 3.7 8.2 5.4 2.3 1.8 4.3.8 6.6-.3 5.5-1.4 5.7 7.6 9 10h.9c3-2.1 3.3-9.3 7.3-10 1.8.3 3.3 1.8 5 2.4 6 2 9.8-5.6 14-8.7 1.5-1.2 3-.4 4 1l3.3 4.7c1.6 2.4 3.3 5.4 6.6 5 3.6-.1 7.1-1.4 10.7-1.7l9.8-1.1q3.8-.6 7.4-1c3-.2 6 1.3 9 .5 2.6-.6 4.8-2.5 7.5-2.4" class="b"/><path d="M13.5 64.3c3.6-1 6.9-3.3 10.6-4 2.7-.6 5.5-.6 8.2-.9q3.4-.3 6.6-.2c3.1.3 6.1 1.4 9 2.4q3.4.8 6.6 1.2c2.2.4 4.4 1.2 6.6 1 3.6-.4 6-5.5 9.9-3.6 3.4 2 5 6.8 9 7.8 1.8.3 3.4-1 5-1.7 5.1-2 5.2 6 8.1 8.4l.9.1c1.1-.5 1.9-2.2 2.4-3.2 1-2 1.9-4.5 3.3-6.2 3.3-3 6 4.3 11.5 1.4 3.2-1.8 5.4-5.1 8.2-7.4 2.4-2.3 4.1-.8 5.8 1.4l3.3 4.4c1 1.7 2.7 3.7 4.9 3.6 4.2-.2 8-2.4 12.3-2.9 4.6-.8 9.3 0 14-.5q2.9-.2 5.7.1c2.4.6 5 1.2 7.4.3 1.9-.6 3.8-1.6 5.8-1.7" class="b"/><path d="M13.5 62.2c3.6-1 6.9-3.3 10.6-4q4.1-.7 8.2-.9c2.5 0 5-.2 7.4.4 3.1.6 6 1.8 9 2.7q3 .8 5.8 1 2.9.6 5.8.3c5-1.2 7.3-6.8 12.3-1.1 1.8 2 3.5 4.5 5.7 6.1 5.3 3.5 7.8-5.4 11.5-.7 1.3 2 1.9 5.5 4.2 6.4 2.5-.5 3.8-6.8 5.7-8.9 3.2-3.7 6.2 3.7 11.5 1 3.2-1.7 5.3-4.9 8.2-7 2.3-1.8 4-.6 5.8 1.3l3.2 3.7c1.3 1.5 2.9 3.2 5 3 2.9-.1 5.6-1.6 8.2-2.7a26 26 0 0 1 7.4-1.6c3 0 6 .9 9 1.3 3.3.3 6.6.1 9.9.3 3.6.3 7-1.6 10.7-1.9" class="b"/><path d="M13.5 60c2.8-.5 5.5-2 8.2-3q3.6-1.3 7.4-1.4c3 0 6-.3 9 .3l8.2 2.1q3.1 1.2 6.6 1.8c2.7.3 5.6.4 8.2-.7 1.7-.7 3.2-1.9 5-2.5 3.9-1.4 6.6 3 9 5.4 8.8 10 10-2.4 14.7 1.2 1.5 2 2 5.1 4.2 6.7h.8c3.2-2 3.2-7.3 6.5-9.3 1.8-.5 3.4.7 5 1.3 5.4 2.3 9-3.7 13.1-6.2 2.8-2.1 5.3.3 7.4 2 2.4 2.4 4.7 4.8 8.2 3.2 2-.7 3.9-2.1 5.8-3.1 3.2-1.6 7.1-2 10.6-1.2 4.4.9 8.7 3 13.2 2.4 4.7-.6 9.1-2.8 14-2.6" class="b"/><path d="M13.5 58.2c2.5-.4 5-1.6 7.3-2.7a22 22 0 0 1 11.5-1.6c3.2.1 6.1 1.4 9 2.3q2.6.5 5 0c2.2 0 4.4.7 6.6 1q3.7.5 7.4-.4c4-1.4 6.7-3.7 10.7-.4 3.4 2.4 7.4 8.8 12.3 6.6 1.9-.9 3.4-3.3 5.7-3.1 2.8 1.7 2.6 6.6 5.8 8 3.5-1 4-9 8.2-9.2 2.7.2 5.5 1.5 8.2.4 3.7-1.3 7.6-6.6 11.5-5.9 2.7.7 4.9 2.8 7.4 4 4.8 1.6 8.5-4.4 13.1-4.9 5.6-1.2 9.6.6 14.8 2.3 2.4.6 5 1 7.4.3 1.9-.6 3.8-1.6 5.8-2.1q3.6-1 7.3-.7" class="b"/><path d="M13.5 56.3c4.7.5 8.4-3.4 13-3.3 3.2-.1 6.3.9 9.1 2.1s6 3 9 1.3c4.9-2.9 8-1.9 13.2-2 3.6 0 7.2-2 10.7-.7 4.7 1.7 9.3 8.6 14.8 6 1.9-.8 3.5-3.1 5.7-2.8 2.8 1.8 3 8.4 6.6 8.8 3.7-1.9 4-8.9 9-8.7q2.5.1 5-.1 2.1-.5 4-1.5c7.7-4.1 7.2-5.4 15.7-1.9 4.3 1.3 7.7-3 11.5-4.2 2-.6 4.4-.4 6.6-.3 4.5.3 8.7 2.5 13.1 3.5 6.6 1.3 8.2-4.5 18-3.6" class="b"/><path d="M13.5 54.4c5 2.1 6.8-.4 11.5-.3 3.1 0 6.1 1.3 9 2.6 4 1.9 7.8 3.1 11.5 0 2.2-1.9 4.5-4 7.4-4.6 3.7-.7 7.7-.3 11.5-.5 6.4-.4 11.5 7 18 4.6 2.2-.8 4.1-3.5 6.6-3 2.8 1.7 4.1 12.4 8.2 10 2.5-2.2 3.6-5.8 6.6-7.4 1.5-.6 3.3-.6 5-1q3.3-.5 6.5-2c3.2-1.6 6.1-4 9.9-3.2 1.8.3 3.8.9 5.7.7 4-.5 7.3-4.3 11.5-4q6.8.7 13.1 3.2c6.1 2.5 8 3.2 14-.3a18 18 0 0 1 9-2" class="b"/><path d="M13.5 52.1c2.5 2 4.8 3.6 8.2 3.2q3.8.2 7.4 1.7c5 2 10.7 4.2 15.6.5 2.3-1.8 4.2-4.2 6.5-6 3.5-2.9 8.2-2.4 12.3-2 6.1.3 12 5.5 18.1 2.8 1.4-.6 2.8-1.7 4.1-2.5 1-.6 2.2-1.3 3.3-.9 1.1.7 2 2.5 2.5 3.6 1 2.2 2 5 3.3 7 2 3.1 3.8 1.8 5.7-.6 1.4-1.7 3-3.6 5-4.6s4.4-1.2 6.5-2q2.6-.9 5-2c1.8-1.2 3.6-2.6 5.7-3 3.2-.6 6.7.4 9.9-.7 3-.9 5.8-3 9-2.5q3.8 1 7.4 2.4 3.8 1.1 7.4 3c10.4 5.3 12.3-1.4 22.2-2.3" class="b"/><path d="M13.5 49.1c1.7 1.8 3.4 4 5.7 5.2q2 .6 4.1 1.2 3.3 1.3 6.6 2.5A15 15 0 0 0 45.5 56c2.6-2.2 4.7-5.2 7.4-7.3 2.5-2 5.9-2.4 9-1.8q3.8.6 7.4 1.9c6.4 2.4 11.1.7 16.4-3.2 3.9-2.7 5 0 6.6 3.2 1.4 2.6 3.7 11 7.4 10 2-.8 3.3-2.8 5-4.2 2.2-2.2 5.3-3.2 8.1-4.3s5-2.7 7.4-4.2c3.3-1.8 7.1-1.7 10.7-2 3-.4 6-2.1 9-2q2.3.5 4.2 1.6 2.3 1.3 4.9 2.3c4.5 1.4 8.4 4.5 13.1 5.4 5.7 1.3 11-1.8 16.5-3.2" class="b"/><path d="M13.5 45.3c1.9 2 3.4 4.8 5.7 6.5l7.4 3.7c4.5 2.5 9.1 3.3 14 1q3-1.3 5.7-3.5c1.7-1.5 3.3-3.5 5-5.1 7.4-8.3 12.8-2.7 21.3-1.2 4.1.4 8-1.4 11.5-3.5 5.9-3.7 6.8-3.2 9.9 3 1.6 2.7 4.3 11 8.2 9.9 1.9-.8 3.3-2.5 4.9-3.8a29 29 0 0 1 6.6-4.4c4-2 7.5-5.6 12.3-6.2 2.4-.3 5-.2 7.4-.8 2-.4 4.4-1.2 6.5-.5 2.7 1 4.8 3.2 7.4 4.2 2.6.8 5 2.3 7.4 3.4q3.2 1 6.6 2c8.2 2.6 9.6 2 17.2-1.5" class="b"/><path d="M13.5 41c2.1 2 3.6 4.8 5.7 6.8l7.4 5c4.1 2.7 8.6 3.9 13.1 1.4 3.3-1.8 6.6-3.9 9-6.6 4.3-4.6 8-9 14.9-6.8 2.5.7 4.9 2 7.4 2.7 3.9 1 7.8-.4 11.5-1.8l4-1.7c1.6-.6 3.3-1.4 5-.9 1 .4 1.9 1.5 2.5 2.3l3.2 4.7c1.7 2.5 3 5.8 5.8 7.2 3 .8 5.3-2.6 7.4-4.3q2.6-2.5 5.7-4.5c3.3-2.2 6.6-5 10.7-5.2l5.8-.5c1.8-.3 3.8-.8 5.7-.4 2.6.7 4.4 2.9 6.6 4.2 1.5 1 3.4 1.3 5 2.2q2.2 1.3 4.8 1.8 4 .1 7.4 1.6c3.6 1.6 7.7 4.4 11.5 2 1.7-.8 3.3-2 5-2.8" class="b"/><path d="M13.5 36.8c2.4 1.2 3.8 4 5.7 5.8l5.8 4.8c7.3 6.5 11.2 6.2 18.8.6 6.8-3.7 10.7-13.3 19.8-10.3 6 2 8.8 4.5 15.6 3q5.2-1 10.6-1.8c1.9-.3 3.5.7 5 1.7q1.7.7 3.3 1.8c3.5 2.5 6.2 11 11.5 6.3 3-2.6 5.6-5.8 9-7.9 2-1.3 4.1-2.8 6.6-3.3q4.9-.7 9.8-1c2.5-.3 4.8 1.2 6.6 2.8a17 17 0 0 0 3.3 2.3q1.7.5 3.3 1.2c5.3 3.2 8.3.2 13.1 2.4 3.7 1.5 7.3 6 11.5 3.7 2-1 3.7-2.7 5.8-3.7" class="b"/><path d="M13.5 33.4c2.4-.4 4 2 5.7 3.5 4.6 3.3 7.7 8.7 13.1 10.5 3.7 1.4 7-.4 9.9-2.3q4.4-2.3 8.2-5.4c3.5-3 7.4-6 12.3-4.7 3.2.7 6 2.5 9 3.5 5.6 2 11.6.2 17.3.8q1.7.2 3.3 1c1.5.9 3 2.2 5 1.5 1.2-.5 2.7-1.2 4-.7 3.4 1.5 5.7 7.2 10 4.2 2.2-1.6 4.1-3.9 6.5-5.4q2.3-1.7 5-3 2.6-1.2 5.7-1.6c7.3-1.2 8-.6 14 3.5q1.8 1 4 1.5l2.5 1c4.2 2 8-1.2 12.3.9 3.7 1.5 7.2 6.7 11.5 4.2 1.9-1.1 3.6-2.7 5.8-3.3" class="b"/><path d="M13.5 31.2c1.8-1.2 4-.6 5.7.6 3.3 1.6 5.6 4.6 8.2 7.1 2.4 2.4 5.6 4.4 9 4.4 2-.1 4-1 5.8-1.9q3.7-1.5 7.4-3.4c2.5-1.4 4.7-3.3 7.4-4.3 7.5-2.8 13.8 5 21.3 5.2q3.4-.1 6.6-.1c8.1-.4 9.1 6.2 13.1 4 2.1-1.3 3.2-4.3 5.8-4.6 2 .2 3.3 2 5 3 3 2.1 6.2-1 9-2.4q2.8-1.7 5.7-3.2 2.7-1 5.8-1.6c6.5-1.4 7.7 1.6 13.1 3.2q2.1.3 4.1 1c1.6.6 3.2 1.4 5 1.3 2.1-.3 4.3-1 6.5-1 5.6-.3 9.2 6.3 14 5.5 2.2-.7 4.2-2.1 6.5-2.5" class="b"/><path d="M13.5 30.2c4.5-3.7 8.8-1.6 12.3 2.3 3 3.2 6.7 6.9 11.5 6.8 3.4-.1 6.6-1.6 9.8-2.4s6-2.8 9-4.2c6-2.7 11.2 1.4 16.5 3.8 2.5 1.2 5.4 2.1 8.2 1.8 4.8-.5 8.1-1.2 12.3 1.8 1.5.9 3.1 2.2 5 2 4-.5 4.6-9 9-7.8 2.4 1.1 4.5 3.7 7.4 3.2 3.2-.5 6-2 9-3.2 3.7-1.1 7.8-1.8 11.5-.5 1.9.7 3.8 1.6 5.8 1.6q2 0 4 .4 1.8.4 3.4 1.1c3.3 1 6.5-1 9.8-1 3-.2 5.8 1 8.3 2.5 1.7 1 3.6 2.1 5.7 2.1 2.2-.1 4.4-1 6.6-1" class="b"/><path d="M13.5 29.8c9.5-6.3 10.8.6 18 5.2 3.2 2 7.2 1.7 10.7 1 2.7-.5 5.6-.8 8.2-1.8 2.7-1 5.3-2.8 8.2-3.3 3.2-.5 6.3.7 9 2q3.5 1.4 6.6 3 3.6 2.1 7.4 1.5c2.2-.4 4.4-1 6.6-1s4.4.8 6.6 1.2c1.3.3 2.7 1 4 1 4.7.1 4.9-8.2 9.1-9q1.8.2 3.3 1.4 1.9 1.3 4.1 1.9 3.4.4 6.6-.5 3.7-.6 7.4-.3c2.8.1 5.4 1.5 8.2 2 2.4.4 5-.7 7.4 0 5.6 2.2 7 .5 12.3-.4a18 18 0 0 1 6.6.3c2.7.6 5.4 2 8.2 2.4 2.1.2 4.4-.3 6.5 0" class="b"/><path d="M13.5 29.2c2.1-.6 4.3-1.6 6.5-1.6 5 .2 7.8 5.2 12.3 6.5 2.1.7 4.5.4 6.6.3l7.4-.7c4-.4 7.6-2.7 11.5-3.6 3-.6 6.2.1 9 1.1q4 1 7.4 3.1c2.2 1.3 4.8 2.5 7.4 2 3.3-.6 6.5-1.7 9.9-1.8q1.6-.2 3.3-.8 1.6-.3 3.3 0c1.3.5 2.9 1 4 0 3-2 4.2-9 8.3-8.4 2.3.7 4.2 2.4 6.6 3 1.8.4 3.8.3 5.7.6l5.8 1.1c3 .8 5.8 2.6 9 2.9q2-.2 4.1-.5 2 0 4.1.5 3.7 1.2 7.4-.1A37 37 0 0 1 172 32c2.1.3 4.4 0 6.6.3" class="b"/><path d="M13.5 27.6c2.7 0 5.5-.1 8.2.7 2.3.9 4.3 2.5 6.5 3.5 3.3 1.7 6.4 1.3 9.9.7 3.8-.4 7.8-.1 11.5-1.1 4.6-1.2 9.2-3 14-2.2q3.3.4 6.5 1.1c6.3 2.2 8.2 6.6 15.6 3.7 2.8-1 5.8-1.7 8.2-3.4 3-2 4.3-1.1 7.4-.5 1.9 0 3.2-1.8 4.1-3.1 5.6-8.8 6.8-4.4 14.8-3.2 5.3 1 9.7 4.3 14.8 6 2 .8 4.4.5 6.6.6 2 0 3.8.9 5.7 1.2 4.3.7 8.3-1.5 12.4-2.2q4-.9 8.2-1.5 5.3-.4 10.6.3" class="b"/><path d="M13.5 25.6q4.6 1.3 9 3.3c2 1 4.2 2.4 6.6 2.6 3.3.5 6.5-1 9.8-1.3q3.8-.1 7.4-.2 4.2-.4 8.2-1.3 7.8-1.3 15.6-.4c3.6.8 6.5 3.4 9.9 4.7 3.4 1.2 7-.5 9.8-2.1 2.1-1.1 3.8-3 5.8-4.2 2.6-1.6 4.8.4 7.4-.2 3-1.3 4.5-4.8 7.4-6.4 2.2-1.3 5-1 7.4-.7q3.4.1 6.5 1.2 3.4 1.6 6.6 3.6 2.8 1.2 5.8 2.1l6.5 1.8c2.2.7 4.3 1.7 6.6 1.7 3.1 0 6-1.2 9-2q5.4-1.7 10.7-3.2 4.5-.9 9-.4" class="b"/><path d="M13.5 23.7c2.8 1.3 5.3 3.5 8.2 4.8 2 1 4.2 2.2 6.5 2 3.4-.4 6.5-2.3 9.9-2.8 1.9-.3 3.9 0 5.7 0q3 .2 5.8-.1 6.6-.7 13.1-.7c2.5 0 5-.5 7.4-.5 3.6.3 6.7 2.5 9.9 4 6.7 4.1 10.6-1.9 15.6-5.4 4.2-2.2 5.9 1 10.7-2.8 3.6-3 6.7-4.1 11.5-4.3 3.3-.3 6.7-.3 9.8.9l5 1.9c2.2.6 4.5 1 6.5 2.2q2.9 1.5 5.8 2.6 3.9 2 8.2 1.7 7.2-1.2 14-4c3.7-1.3 7.5-3.1 11.5-2.8" class="b"/><path d="M13.5 22.3c2 1.4 3.7 3.3 5.7 4.7a12 12 0 0 0 6.6 2.2c1.4 0 2.8-.8 4-1.3l5-2.2A13 13 0 0 1 43 25q3.3.4 6.6.3c4.6-.3 9.3.4 14 .4 3.5 0 7-1.7 10.6-.7q3.6.9 6.6 3c2.2 1.3 4.7 3.1 7.4 2 3.1-1.3 5.2-4.4 8.2-5.8 1.8-.8 3.9-.9 5.8-1.5 2.5-.8 4.8-2.2 7.3-3 2.4-.8 5-1 7.4-1.6 4.3-.9 8.8-2 13.2-1.4q3.7.6 7.4 1.6c3.8 1.7 7.4 4.1 11.5 5.2 2.6.8 5.5.5 8.2 0q5-.6 9.8-2.3c3.9-1.4 7.3-4.4 11.5-4.3" class="b"/><path d="M13.5 21.5c1.6 1.4 3.1 3.3 4.9 4.6 3.2 2.5 7.4 1.5 10.7-.4q3.6-2 7.3-3.8c2.7-1 5.6-.2 8.3.3 3.2.4 6.6.4 9.8.8 3.6.3 7.1 1.6 10.7 1.2 2.5-.4 4.9-1.7 7.4-2 5.8-1.1 8.8 2.6 13.1 5.6 4.3 2.6 7.8-2.6 11.5-4 3.2-1.4 6.5-3 9.9-3.9 3.2-.8 6.6-1 9.8-1.9l8.3-2.6q2.8-1 5.7-1.3 3.8 0 7.4 1.3c4 1.8 8 4 12.3 4.7q4.1.4 8.2.2c3.3 0 6.8-.3 9.9-1.8 2-1 3.8-2.6 5.7-3.7q2-.8 4.1-1.5" class="b"/><path d="M13.5 21c2 1.6 3.7 4.4 6.5 4.8q3 .2 5.8-.7c4-1.9 7.4-4.9 11.5-6.4 3-1 6 .4 9 .9q6.6 1 13.2 2.3c5.7 1.7 7.4.2 12.3-2.2 6.7-3.2 10.2 1.3 14.8 5.5q3 2.5 6.5.4l5.8-3.2q3.8-2.3 8.2-3.2c6-.8 11.6-3 17.2-4.9 2.5-.8 4.9-1.9 7.4-2.2a19 19 0 0 1 6.6.8q3.6 1.7 7.4 3c5.3 1.7 11 2 16.4 2.5 4.2.4 6.9-.6 9.9-3.6q3-2.8 6.5-4.6" class="b"/><path d="M13.5 20.1c3 2.6 3.9 4.2 8.2 3.7 2.7.1 5.1-1.4 7.4-2.8 2.8-1.7 5.8-3.7 9-4.6 3.9-.8 7.8 1 11.5 1.7 3.8 1 7.7 1.3 11.5 2.2C67 21.9 69.9 17 75 16c3-.6 6 .8 8.2 2.7 1.9 1.6 3.5 3.9 5.7 5.2 2.8 1.5 5.8-.6 8.2-1.8q3.1-1.9 6.6-3 5.8-1.5 11.5-3.5c3.2-1.2 6.6-1.8 9.9-2.9 2.9-1 5.8-2.7 9-2.5q2 0 4.1.6c2.4 1 4.8 2.3 7.4 2.8q5.3 1.3 10.7 2.1c3 .6 6 1.7 9 1.8 3.2.3 5.5-2.4 7.4-4.6q2.6-2.8 5.8-5" class="b"/></svg>