<svg xmlns="http://www.w3.org/2000/svg" id="a" width="1920" height="2400" viewBox="0 0 192 240"><defs><style>.b{fill:none;stroke:#fff;stroke-miterlimit:10;stroke-width:.3px}</style></defs><path d="M0 0h192v240H0z" style="stroke-width:0"/><path d="M11.6 222.3c2.6 1 5.6 2 8.4 1q2.6-1 5-2.6c1.2-.7 2.7-1.6 4.2-1.2 2 .7 3.1 2.8 4.2 4.5s2.6 3.7 4.2 5.1A10 10 0 0 0 46 232q4.8.1 9.2-1.5 3.9-1.4 7.6-3.3c2.3-1.2 4.4-2.9 6.7-4 3.6-2.3 7.2-.5 11 .2s8 .5 11.7-.9c3.2-1.3 6.2-3.2 9.2-4.7 2.9-1.8 5.3-2.4 8.4-.9 4.3 1.6 7.8 4.7 11.8 6.6 5.7 2.7 11.2-1.6 16-4.3 4-2.3 6.8-1.9 10.9-.2q4.5 1.7 9.2 2.8c4 1.1 8.6 2.1 12.6.2 3.3-1.7 6.3-4.3 10.1-4.7" class="b"/><path d="M11.6 220.8c3.8 1.2 7.3 1.7 10.9-.3 3-1.4 5.7-3.3 8.4-.2 1.5 1.9 3 4 5 5.4 2.7 1.8 6 3 9.3 2.6l5 .3c3.6.2 6.9-1.5 10-2.7q3.6-1.5 6.8-3.5c2.5-1.6 5.4-3.2 8.4-2.5 2.8.5 5.6 1.4 8.4 1.7 3.4.3 7 0 10-1.4l6.8-3.4q2.4-1.5 5-2.4c2.8-.7 5.8.4 8.4 1.4 3.2 1.4 6 3.7 9.3 5 5.7 2.1 11-1.8 16-4.3 3.6-2 7.2-1.4 10.9.4 6.3 3 14 6.6 21 3.7 3-1.5 5.8-3.9 9.2-4.8" class="b"/><path d="M11.6 219.3c3 .7 6.2 1.2 9.2.2 1.7-.6 3.3-1.5 5-1.8 4.2-.6 5.7 4.7 9.3 5.7q2.5.5 5 .9t5 .3c2 .1 4 .7 6 .8 3.2.3 6.2-1.2 9.2-2.3q2.6-1 5-2.2c2-1 3.8-2.3 5.9-3 2.5-.9 5.1-.3 7.6.3q4.5 1.2 9.2 1.7 2.7.2 5-.6c3-1.2 5.7-3 8.4-4.4 10.2-6.2 14.5.3 23.6 3.6 3 .8 6.3.2 9.2-1 4-1.5 7.4-4.8 11.8-4.6 5 .4 8.9 4.1 13.4 6 3.7 1.4 8 2.1 11.8.8 3.2-1.2 6-3.5 9.2-4.9" class="b"/><path d="M11.6 217.5q3.7.8 7.5.5c2.8-.4 5.7-2.2 8.4-.8 1.8 1 3.2 3 5 3.8 2 1 4 0 6 0 1.9-.2 3.9.2 5.8.1 5.7.5 7.5 2.7 13.5.2q4.3-1.4 8.4-3.4c3.6-2 6.7-3.4 10.9-2.5 3.4.6 6.7 1.8 10 2.6 2.8.7 5.9 1 8.5-.4 2.9-1.4 5.5-3.6 8.4-5 3.3-1.9 7.4-2 10.9-.4l5 2.2q2.4 1.3 5 2.2c5.3 1.2 10.7-.8 15.2-3.5 12.2-8 17 6.2 28.6 6 4.3-.1 8-3 11.7-5" class="b"/><path d="M11.6 215.5q3.3.7 6.7.8c1.6 0 3.4-.5 5-.6a7 7 0 0 1 4.2 1.1c2.8 2.2 4.8 4.2 8.4 2.2q3.2-1.5 6.7-1 3.9.2 7.6 1.4c2.8.7 5.8-.1 8.4-1.2q4.8-1.5 9.2-3.7c4.1-2.2 8.4-2 12.6-.6l8.4 3c2.8 1 5.9 1 8.4-.5 2.3-1.2 4.4-3 6.8-4.1 3.3-1.8 7.4-1.9 10.9-.6l5 1.8a20 20 0 0 0 5.9 1.8c3.7.2 7.4-.8 11-2 2.9-1 5.5-3 8.3-4.3 5.5-2.5 10.9 1.6 15.1 4.8 7.6 5.8 12.7 4 20.2-.6" class="b"/><path d="M11.6 214.5q3.2 1 6.7 1c2-.1 4-.6 5.9-.4 2.8.2 4.7 3 7.5 3.3 1.9.1 3.5-1.1 5-2a10 10 0 0 1 5.1-1.1c7.7 0 8.2 3.8 16.8.4q3.8-1.3 7.6-2.9c5.3-2.8 9.5-3.2 15-.7 5 2 10.5 5.9 16 3.8 2.6-1 5-2.7 7.6-3.7q4.6-1.7 9.2-.3c4.4 1 8.9 3.2 13.5 2q6-1.4 11.7-3.1c2.8-1 5-3.3 7.6-4.5 5.6-2.2 11 2.3 15.1 5.5a15 15 0 0 0 6.7 3.4c4.2.5 8.3-1.2 11.8-3.2" class="b"/><path d="M11.6 214.2q2.9.8 5.8.7 2.6-.2 5-.5c2.5-.3 4.7.8 6.8 1.9a6 6 0 0 0 5-.2c1.6-.8 3.3-2 5-2.4a15 15 0 0 1 8.5.5c4.6 1.8 9-.5 13.4-1.9 3.8-1 7.1-3.2 11-4 6.2-1.3 11.1 3.9 16.7 5.7 6.6 2.4 10 .4 16-1.7q4.1-1.2 8.4-.2c9.2 1.7 9.5 2.5 18.5-1.1 5.5-2 7.8-.6 12.6-5.1 4.2-4 8.8-2.7 13.4-.2 3 1.7 5.5 4.1 8.4 5.7 4.5 2.3 10 1 14.3-1.1" class="b"/><path d="M11.6 213.6q3.4.3 6.7 0 3-.5 5.9-.5c2.6.2 4.9 1.9 7.5 1.7 2.4-.1 4.5-1.6 6.7-2.3q3-.8 6-.6c1.9.3 3.8 1 5.8 1 3 0 5.7-1.4 8.4-2.3q3-.8 5.9-1.8 3.3-1.5 6.7-2.7c8.5-2.2 10.8 6.1 21 7.2 5.9 1.5 11-1.7 16.8-1.7 4.5 0 9 1.2 13.4.8q3.5-.7 6.8-2.2c2.1-.9 4.4-1.9 6.7-2.2a10 10 0 0 0 7.5-3.5q1.5-1.6 3.4-2.7c2.6-1.5 5.8-.5 8.4.5 3.6 1.1 6.9 3.3 10 5.4a17 17 0 0 0 15.2.5" class="b"/><path d="M11.6 212.6c3.6 0 7.2-1 10.9-1.1 3.1-.2 6.1 1.3 9.2 1 3.5-.4 6.6-2.5 10.1-2.6 3.4-.3 6.8 1.1 10 .2q3-.7 6-1.8 3.4-1 6.7-2.1c3-1.2 6-3 9.2-3 4.8.2 7.3 5.5 11.8 6.5q2.5.4 5 .7 2.2.3 4.2 1 3.3.8 6.7.4c2.8-.3 5.6-1 8.4-1 5.6-.3 11.5 1.2 16.8-1.2 2.6-.9 5-2.3 7.6-2.9 2.3-.4 4.9-.3 6.7-2 6.8-6.8 6.7-6.8 16-3.8 3.5 1 6.8 2.9 10 4.4 4.3 1.6 9.1 2.2 13.5.8" class="b"/><path d="M11.6 211.3c3.6-.4 7.2-1.4 10.9-1.6q2.5 0 5 .4 3.4.3 6.7-.6c3.3-1 6.7-2.1 10.1-2 1.7 0 3.4.4 5 .3q3-.2 6-1.2 4.6-1.2 9.2-3.1c2.9-1.2 6-3 9.2-2.6 2.9.6 4.6 3.3 6.7 5 2.7 2.1 6.2.5 9.3.7 3.2 0 6.1 1.7 9.2 2.4 5 1.5 10.1.6 15.1.3q3.8.2 7.6 0 3.5-.6 6.7-2 3-1.2 5.9-2c2-.2 4.3-.3 5.9-1.7 3-2.4 5.4-7.4 10-6.3l6 1.7q3.3.7 6.7 1.8c5.5 2.2 11.5 4.7 17.6 3.4" class="b"/><path d="M11.6 209.6q5-1 10-1.6c2.8-.3 5.7-.1 8.4-.4 4-.3 7.8-2 11.8-2.5 2.8-.6 5.6.1 8.4 0q7.5-1 14.3-4.4c3-1.4 6.9-3.4 10-1.3 2.1 1.4 3.4 4 6 4.8 1.7.3 3.3-.8 5-1.2q4.7-1.5 9.2.4c3.6 1.2 7.2 3 11 3.6 3.5.8 7.2.7 10.9.6q3.3 0 6.7-.3c3.4-.7 6.6-2.5 10-3 3-.3 5.5-.5 7.6-2.8 2.4-2.3 4.6-6.3 8.4-5.9 2.3.4 4.5 1.4 6.7 1.9 2.8.5 5.7.7 8.4 1.6l7.6 2.4c2.7.8 5.6 1.5 8.4 1" class="b"/><path d="M11.6 207.3c6.4-1 12.9-1.4 19.3-2.4 4-.5 7.8-2 11.7-2.5 2.3-.4 4.5.2 6.8.3a34 34 0 0 0 16-5.1c2.5-1.4 6-2.2 8.3 0 1.4 1 2.6 2.8 4.2 3.6 1.4.8 3 0 4.2-.8q1.6-1 3.4-1.6c3-.9 6.3-.2 9.2.7 5 1.2 9.4 4 14.3 5q6.7 1.1 13.4.7c2.6-.3 5.1-1.2 7.6-1.7q3-.4 5.9-.4c5.7-.2 7.3-7.8 12.6-8.9 2.6-.1 5 1.3 7.5 1.7 3 .6 6.3.5 9.3 1.3q3.3 1 6.7 2.2c2.6 1 5.5 2 8.4 1.5" class="b"/><path d="M11.6 204.8q3.4-.4 6.7-1 3.8-.1 7.5-.6l8.4-1.6q3.7-1 7.6-1.6c2.2-.4 4.5.2 6.7.5 3.5.5 7-.6 10.1-2 4.2-1.7 8.9-6.5 13.4-3.4 1.8 1.1 3 3.2 5 4 1.7.3 3-1 4.3-2q1.9-1.3 4.2-1.8c3.4-.5 6.8.8 10 1.5q3 .6 6 1.6 3.6 1.7 7.5 2.9 4.6 1 9.2.8 5.1.1 10.1-.2c2.8-.2 5.6.4 8.4.4 6-.3 7.7-9.3 13.5-9.3 2.2.2 4.4 1.2 6.7 1.5 3.3.5 6.8.4 10 1.4 4.6 1 8.7 4.7 13.5 3.3" class="b"/><path d="M11.6 202c2.5 0 5-.8 7.5-1.2q3.3 0 6.7-.1c5.2-.4 10.1-2 15.2-2.8 5.8-.5 7.4 2.6 14.2-.1q3.6-1.4 6.8-3.5c2.2-1.3 4.9-2.9 7.5-2 2.3.9 3.9 3 5.9 4.3 3.3 1.8 5.8-4 10-4 3.2 0 6.3 1.2 9.3 1.9q3 .4 5.9 1 2.6.6 5 1.8c5.9 3 10.1 1.2 16 1.7q4.6.6 9.2 1.5c2.5.5 5 1.8 7.6 1.4 6-1.2 7.6-11.5 14.3-9.9q2.9.8 5.9 1.2c3 .3 6.2.5 9.2 1.6 4.2 1.1 8 4.7 12.6 2.3" class="b"/><path d="M11.6 199.3q2.1 0 4.2-.6c1.6-.6 3.3-1.4 5-1.2 2.2.1 4.5.6 6.7.5 3.7 0 7.3-1 11-1.6 7-1.4 8.5 3 15.9-.1q3.5-1.6 6.7-3.7c2.5-1.5 5.6-3.4 8.4-1.7 2.1 1.2 3.6 3.4 5.9 4.3 4.7.3 5.1-7 14.3-4.4q3.7 1.2 7.5 2c1.7.3 3.5.2 5 .7 3.7 1.1 7 3.7 11 3.2 2.2-.2 4.5-.8 6.7-.7q5.3.6 10.1 2.6c2.8 1.1 5.4 3.2 8.4 3.4 4.7-.2 6.6-5.5 9.2-8.6 2.9-3.6 5.3-2.8 9.3-2 2.5.6 5 .7 7.5 1.1 3.3.5 6.3 2 9.3 3.2 2.2.9 4.6-.1 6.7-1" class="b"/><path d="M11.6 196.5c2.4.2 4.6-.9 6.7-2 1.9-.8 4-.2 5.9.3q2.4.6 5 .8c4 .3 7.8-.8 11.8-.8 3 0 6 1.7 9.2 1 3.7-.5 7-2.6 10-4.5 1.9-1.1 3.8-2.5 6-2.6 3 .1 4.9 3.2 7.5 4.4 4.1 1.8 6.4-5.2 11.8-5 4.3-.1 8.4 2 12.6 2.8 1.6.4 3.4.3 5 .6 2.4.7 4.4 2.2 6.7 2.8 3.7 1 7.3-1.1 11-.6q4.9.7 9.2 3c2.8 1.6 5.3 4 8.4 4.8 3 .7 5.3-1.9 6.7-4 2.5-3.6 4.8-9.4 10.1-7.9 4.4 1 9 1.2 13.4 2.4 2.5.6 5 2.4 7.6 1.6q2-.7 4.2-1" class="b"/><path d="M11.6 193.3q2.6 0 5-1.3c1.3-.7 2.7-1.5 4.2-1.2 2 .4 4 1.3 5.9 1.6q4.6.7 9.2 1 3-.2 5.9 0 2.2.2 4.2.5c7.3 1.1 12.3-4 18.5-6.4 3.3-1 5.6 2.4 8.4 3.6 4.3 1.6 7.2-4.8 11.7-5q3-.2 6 .6 3.8 1 7.5 2c1.9.6 4 .6 5.9 1 1.7.5 3.4 1.6 5 2.2 2.4 1.1 5.1.8 7.6.2 4.2-1 8.7.2 12.6 2 2.9 1.6 5.3 4.2 8.4 5.6 1.9 1 4.3.5 5.8-1 3.4-3 4.5-8 8.4-10.3 2.5-1 5.1.2 7.6.4 3 .5 6.2.6 9.2 1.2q2.2.4 4.2 1.2c1.4.4 3-.3 4.2-.6q1.7-.2 3.4-.2" class="b"/><path d="M11.6 189.6q2.2 0 4.2-.9c1.5-.7 3.3-1.6 5-1q2.5.8 5 1.4 3 .5 6 .6c1.6.2 3.3.8 5 1l7.5.4c8.1 1.2 12.4-2 19.3-5 4.4-1.8 7 3.4 11 3.3 3.6-.8 6.2-4.5 10-4.6 2.3-.3 4.6.2 6.8.6 2.5.2 5 1 7.5 1.6q3 .5 5.9 1.2 2.2.7 4.2 1.7 3.7 1.5 7.6.5a20 20 0 0 1 12.6 1.5c2.9 1.4 5.4 3.7 8.4 5 2.2 1 5 .4 6.7-1.3 3-2.7 4.4-7.5 8.4-9 2.8-.5 5.6.7 8.4.8 3.6.2 7.4.4 10.9 1.5q2.3.5 4.2-.4 2.1-.4 4.2 0" class="b"/><path d="M11.6 186.1q3-.7 5.8-1.5c2.9-.2 5.6 1.6 8.4 1.8 2.5.3 5.1 0 7.6 0q6.3.8 12.6 1.4 4.7.4 9.2-.8c3.1-.9 6.2-2.3 9.3-3s5.7 2 8.4 3.3c4 1.7 7.1-3.6 12.6-3l9.2.5 9.3 1.6q3 .9 5.8 2c2.8.9 5.7.4 8.4-.1 4-.6 8.2.1 11.8 1.8 2.8 1.2 5.4 3.3 8.4 3.9 5.4 1 8.5-4.3 11.8-7.5 2.3-2.4 5.4-1.6 8.4-1.2q4.6.6 9.2 1.3c1.6.2 3.4.7 5 .7 1.4 0 2.9-.8 4.2-1q1.7-.1 3.4 0" class="b"/><path d="M11.6 183.6c7.3-3.2 8 .1 15 .3 3.4.2 6.8-.5 10.2-.5s6.7.8 10 1.1c4.3.4 8.5-.7 12.6-1.7 2.2-.4 4.5-1.1 6.8-1 3.5.4 5.7 4 9.2 4.3 2.6 0 5-1.8 7.6-2 2.5 0 5 .5 7.5.5q5.1-.5 10.1 0c4.2.4 8.3 2.2 12.6 2 2.2 0 4.5-.6 6.7-.7q5.3 0 10.1 1.9c3.2 1.3 6.5 3.4 10 2.9a13 13 0 0 0 6-2.6c1.9-1.5 3.6-3.6 5.8-4.5s4.6-.2 6.8.1c4.1.7 8.3 2 12.6 2.1 1.7.1 3.4-.8 5-1.3q2-.5 4.2-.5" class="b"/><path d="M11.6 182c2-1.1 4.4-2 6.7-1.7a46 46 0 0 0 14.3 1.1c2.7-.2 5.6-.7 8.4-.4 2.2.1 4.5.8 6.7.8 4.5 0 9-1.7 13.4-2 10.2-1.7 10.1 5.8 16.8 5q2.5-.6 5-.7c2.6.3 5.1.8 7.6.7 3.4 0 6.8-.6 10.1-.6 3.6 0 7.3.5 11 .3q3.7-.4 7.5-1 3.8 0 7.5 1c3.7.8 7.2 2.8 11 2.9 2.6 0 5.2-1 7.5-2 2-1 3.8-2.5 5.9-3.3 6.3-1.8 13.6 3.4 20.2 2.3 1.4-.2 2.9-1 4.2-1.5q2.3-1 5-1.1" class="b"/><path d="M11.6 180.6c3-2 5.6-2.5 9.2-2.1q5.2.1 10 .8 3.5.4 6.8 0 3-.1 5.9-.1 2.5.3 5 .1c4-.3 7.8-1.8 11.8-2 11.6-1.2 10.8 7.2 19.3 6.3q3.3 0 6.7.8 3.7.5 7.6.5c7.3-.4 14.5-2.5 21.8-3.5 4.2-.6 8.5.3 12.6 1.3 2.8.6 5.6 1.5 8.4 1.3q2.6-.1 5-1 2.2-.3 4.3-1c3.6-1.5 6.1-2.3 10-1.3 5.5 1 11.3 4 16.8 1.4q3.7-2 7.6-2.6" class="b"/><path d="M11.6 179q3.7-2.7 8.4-3.2 3-.6 5.8-.1c3.7.6 7.2 2.3 11 2.3q3.8-.1 7.5-.7 2.2 0 4.2-.3c3.4-.4 6.7-1.5 10.1-2 13.1-1.4 11.7 8 21.9 7.6 5.3.5 10.6 1.8 16 1.8 2.8 0 5.7-1 8.3-2.1 3.2-1.5 6.6-3 10-3.4 6-.7 11.9 1.4 17.7 1.8 2.9.2 5.7-.5 8.4-1q2.2-.3 4.2-.5c2-.2 4-.7 6-.7q2.4.2 5 .8c5.1 1.3 10.7 3.5 16 1.2 2.6-1.2 5.4-2.6 8.3-3.2" class="b"/><path d="M11.6 177c3.8-2.7 9.4-5.6 14.2-4.6 3.5 1 6.5 3.4 10.1 4 2.9.4 5.7-.3 8.4-1.2l11-1.7c4.5-.8 9.6-1 13.4 2 2 1.4 3.8 3.3 5.9 4.5 1.7 1 3.9 1 5.8 1.2l11.8 1.4c5.6 1 8.6 1.5 13.4-2 3-2.2 6.4-4.3 10.1-4.4 4.8 0 9.5 1.3 14.3 1.4q3 0 5.9-.3 3-.7 5.9-.9c3.9.3 7.9 0 11.7 1 6 1.4 12.5 3.9 18.5 1.2q4-1.7 8.4-3.2" class="b"/><path d="M11.6 174.5c4.1-2.7 10-7.4 15-5 3 1.3 5.5 3.6 8.5 4.7 3.1 1.2 6.3.1 9.2-1.2q3.7-1 7.6-1.4c8.4-1 12.7-.9 19.3 4.8 3.3 2.8 5 3.1 9.2 3.2 4.2.4 8.5.3 12.6.8 4.6.7 7.7 2.8 11.8-.8 3.4-2.8 7-6.7 11.8-6.1 3.9.4 7.8 1.3 11.7 1.3 3.7 0 7.3-.7 11-1q3-.1 5.8.5 3.4.4 6.7 1.2c13.8 3.8 15.4 3.7 28.6-1.9" class="b"/><path d="M11.6 171.7c2.6-1.9 5.3-4 8.4-5.4a8 8 0 0 1 7.5 1c2.3 1.3 4.4 3.2 6.7 4.5 4.6 2.4 7.6-.2 11.8-1.6 7-2 14.8-1.3 21 2.5 4.7 2.9 6.6 5.4 12.6 5.1q3.3.2 6.7 0c2.8-.1 5.7-.5 8.4 0 2 .5 3.9 1.6 5.9 1.9 6.6.1 8.5-11 17.6-8.8 3.3.7 6.7 1.4 10.1 1.3s6.8-.7 10.1-.9q3 .1 5.9.8l5.9 1.3c6.2 1.7 12.7 4.1 19.3 2.6 3.8-.7 7.3-2.6 10.9-4" class="b"/><path d="M11.6 169c2.8-2.1 5.6-5 9.2-5.7 5.4-.4 9.1 4.2 13.4 6.6 4.2 2.3 8-.4 11.8-2 8.5-2.8 13.8.7 21 4.5 3.4 1.7 7 3.6 11 3.6h5.8q3-.4 5.9-1c4.4-.7 6.2 0 10 2 5.3 2.4 8.2-4.4 11.8-7a7 7 0 0 1 7.6-1.3c8 2.4 11.4 1.4 19.3.8q3.5 0 6.7 1l5.9 1.4c7 2.2 13.7 4.5 21 2 2.9-.8 5.5-2.6 8.4-3.5" class="b"/><path d="M11.6 166.8c2.5-1.9 5-4.6 8.4-5 5 .3 9.2 3.7 13.4 6.3 3.5 2.2 7.7.3 11-1.5 3.7-2 8.6-2.6 12.5-.5 3 1.4 5.5 3.8 8.4 5.3 2.6 1.3 5.6 1.6 8.4 2.1q4.6.9 9.3.5c4.4-.4 9-3.4 13.4-1.8 3 1.1 6 4.5 9.2 2.5 4.3-2.7 7.5-9.8 13.5-7.5 3.2 1 6.6 2.3 10 2.2 3.7 0 7.4-.7 11-1 2 0 4 .7 5.9 1q3.3.3 6.7 1c6.4 2.4 12.5 4.5 19.3 2 2.8-.9 5.5-2.6 8.4-3.4" class="b"/><path d="M11.6 165.5c2.3-1.5 4.6-3.7 7.5-4 1.7-.1 3.5.5 5 1q4.5 1.4 8.5 3.8c3.2 2 7 .2 10-1.2 8-4 12.1-3.4 18.5 2.7 2 1.7 4.1 3.6 6.7 3.8 2 .1 4-.2 6 0 2.1.2 4.4.7 6.6.6 3.6 0 6.8-1.8 10.1-2.7q4.4-1.7 8.4.7c1.8 1 3.7 2.6 5.9 2.8 4.5-.3 6.8-5.3 11-6.4 2-.6 4 .5 5.8 1q3.3 1.3 6.7 1.8 3.8.3 7.6.1c2.5-.2 5-.8 7.5-.4 4 .5 8-1.2 11.8.2 5.6 2.4 10.9 4 16.8 1.8 2.8-1 5.5-2.5 8.4-3" class="b"/><path d="M11.6 164.5c2.4-1.2 4.7-3.2 7.5-3.5q6.5.6 12.6 3.1c2.8 1.3 5.8.1 8.4-1q2.9-1.3 5.9-1.9 2.5-.9 5-1c6 0 9 6.3 13.5 9 3.3 2.2 7.3-.1 10.9.7 7.6 1.5 10-1.6 16.8-3.4 7.4-2.4 10 5.2 16 3.6 2.9-1 5.2-3.5 8.4-3.8 2.9 0 5.6 1.6 8.4 2.2q4.6 1 9.2 1.8c2.7.5 5.6.4 8.4.5 3 .4 5.8-.8 8.4-2.1 7.3-3.8 9.5 4 20.2 1.2 3-.8 6-2.2 9.2-2.3" class="b"/><path d="M11.6 163.3c2.6-.8 4.9-2.6 7.5-3.2 2.2-.2 4.6.3 6.7.6q3 .7 6 1.3 2.5.3 5-1 2.1-.6 4.2-1.6 2-.5 4.2-.4 1.6-.2 3.3-.6c8.1-2.4 11 7.8 17.7 9.8 2.1.6 4.5-.1 6.7-.1 2.7 0 5.6.7 8.4.1q3-.8 5.9-2.3c3.1-1.3 6.5-2.7 10-2.4s6 3 9.3 4c2.8.9 5.6-.7 8.4-1.2 2-.5 4 .1 5.9.7q2.9 1 5.8 1.6 6 1.3 11.8 2.7c3.3.6 6.9 1.8 10 .2 2.8-1.3 4.8-3.9 7.6-5 2-.6 4 .4 6 1q2.8 1.2 5.8 1.3c4.2 0 8.4-1.7 12.6-1.6" class="b"/><path d="M11.6 161.7c2.7-.2 5.2-1.7 7.5-3 2.4-.8 5.1-.3 7.6.1 1.9.4 4 1 5.9.7q1.7-.3 3.3-1.4 2.4-1.2 5-1.7c1.7 0 3.4.6 5.1.5 2-.1 4-.7 5.9-.4 6.3 1.5 9 9.8 16 10.1q2.4.2 5 0 3.4.4 6.7 0c3.3-.5 6.2-2.5 9.2-3.7 3.7-1.3 7.9-3 11.8-1.8 3.2 1 5.9 3.5 9.2 4 2.5.3 5.1-.2 7.6.2 4.5 1 8.9 2.5 13.4 3.2 4 .7 8 .8 11.8 2.2 3.7 1.3 6.9 1.8 10-1 1.7-1.4 3.2-3.2 5.1-4.2s4-.3 5.9.2q3 1 5.9 1.2c3.6.2 7.3-.4 10.9-.6" class="b"/><path d="M11.6 159.6c5.7 1.2 6-3.6 10.9-3.6 2.2 0 4.5.7 6.7 1 4.5 1 6.6-3.6 11-3.4 2.2.3 4.3 1.3 6.6 1.1 8.7-1 11.9 8.1 19.4 10.2q3.2.8 6.7.6a26 26 0 0 0 8.4-1.4c2.6-1 5-2.5 7.5-3.5q4.1-1.7 8.4-2.6c3.3-1 6.5.5 9.3 2.2q3.1 1.9 6.7 2.6 4.3.8 8.4 1.5c2.8.7 5.6 1.7 8.4 1.9q3 .3 5.9-.4c3.8-.7 7.5 1 10.9 2.7 5.4 2.8 7.8-.7 11.8-3.8 5.8-4.2 9.4 2.8 21.8-.3" class="b"/><path d="M11.6 157c6 3.2 6.3-3.6 11.7-3.4 3 0 6.3 2 9.3.4 1.7-1 3.2-2.5 5-3.2 1.7-.5 3.5.2 5 .7q2.2.7 4.2 1c7.3 1 11 8.6 17.7 11q4.6 1.9 9.2.7 6.3-1.3 11.8-4.4c3.4-1.9 7.2-2.8 10.9-4 7.6-3.3 10.9 2.3 17.6 4.2 3.8 1.2 8 .8 11.8 2 8 2.6 9.4-2.7 16-1.4 3.4.8 6 3.3 9.2 4.6 3.7 1.6 7-1.5 10-3.2q2.9-1.6 6-.7a16 16 0 0 0 13.4-.7" class="b"/><path d="M11.6 154c5.7 4.6 6-1.5 10.9-2.6 2-.3 4 .3 5.9.6 3.7.9 6.2-2.6 9.2-4.1 1.7-.7 3.5.1 5 .6q2.7.7 5 1.7c6.1 3.2 9.6 10 16 12.6 3.8 1.5 7.3.8 11-.6q5.6-1.9 10.9-4.7 7-3 14.3-5.2c5.5-1.4 10 3.2 15 4.5 2.8.8 5.7.3 8.5.5 2.8.1 5.6 1.1 8.4.7 5.3-1.2 7-5 13.4-2.4 4.4 1.7 8.5 5.7 13.5 4.3 2-.5 3.9-1.5 5.8-1.9 1.7-.4 3.5.1 5 .5 4 .2 7.7-1.9 11-3.8" class="b"/><path d="M11.6 151c5.3 5.6 6.2-.2 10.9-2 3-.8 6.2 1.2 9.2.3 2.5-1 4.3-3.3 6.7-4.3 1.7-.6 3.5 0 5 .4 3.6 1 6.2 3.8 8.5 6.4 5.4 6.5 10 12.6 19.3 9.2q6.4-2 12.6-4.8l7.6-3c5.8-2.2 11.4-4.8 17.6-2.2 6.8 2.7 8 2.5 15.1 1.9 2.8-.1 5.7.3 8.4-.3q3-1 5.9-2 2-.9 4.2-.9 3 .5 5.9 1.4c8 2.6 9.1 3.3 17.6 1.7 1.7-.1 3.5.2 5-.5q4.7-2.1 9.3-4.4" class="b"/><path d="M11.6 148.7c4.6 5 6.7-.6 10.9-2.3 3-1.2 6.2.7 9.2.2 2.3-.4 4-2.3 5.9-3.5 2.5-1.7 6-1.3 8.4.4 7 4.7 10 18.4 20.2 16l10.9-3L88 153c3.6-1.3 7-3.3 11-4q3.7-.9 7.5-.9c2.8 0 5.6.7 8.4 1q4.2.1 8.4 0h6.7c4-.2 7.7-2.6 11.8-3 1.3 0 2.8.5 4.2.6 5 .2 10 .7 15 .6a57 57 0 0 0 19.4-4.6" class="b"/><path d="M11.6 146.8c2 1.8 4 1 5.8-.6q2.4-2 5-3.3c3.1-1.2 6.3.4 9.3.4 4.7 0 7.3-5.4 12.6-3.3 8 3 10.7 20.3 20.2 17.2 3-.9 6-2.4 9.2-2.6 4-.4 7.8-1.6 11.8-2.1 4.8-.6 8.7-4 13.4-4.6q7.5-1.5 15.1-1.9 3-.3 6-.2c2.2.2 4.5 1 6.6 1.5q4.6 1.2 9.3-.2c1.9-.6 3.8-1.7 5.9-1.9 1 0 2.3.4 3.3.3 1 0 2.4-.2 3.4-.5 3.8-1.1 7.8-2.3 11.7-2.7l6-.7q2-.3 4.1-.5c3.4.2 7 .3 10.1-1.2" class="b"/><path d="M11.6 144.5c2.3.4 4-1.7 5.8-2.9a23 23 0 0 1 6-3c3-.8 6.1.6 9.2.9 4 .3 7.7-3.4 11.7-1.8 6.2 2.6 8.4 10.3 12.6 15.2 2.8 3.4 5.6 3.1 9.3 1.3 3.8-2.1 5.7-2.3 10-2.2q5.1-.5 10.1-.7 3.1 0 5.9-1.6 3-1.8 6.7-2.5 5.1-.6 10.1-2c4-1.2 8.5-2.4 12.6-.8 3 1 6 2.6 9.2 3.2 3.5.9 6.8-.4 10.1-1.3q1.6-.3 3.4 0c.7 0 1.8-.3 2.5-.6 3.7-1.8 7-4.6 11-5.9q4-1.4 8.3-1.4c1.4 0 2.9-.3 4.2 0 3.5 1 6.7 2.1 10.1.2" class="b"/><path d="M11.6 141c2.1-.7 3.8-2.5 5.8-3.6 6-3 8.6-3.5 15.2-2q3 .3 5.8 0 4.1-.9 7.6 1.2c3.2 2.2 5.5 5.6 7.6 8.8 2 3 4.2 8.3 8.4 8 3-.6 5.4-3.1 8.4-3.8 2.5-.6 5 .3 7.5.4h5c2.3 0 4.6.2 6.8-.3s4.4-1.8 6.7-2.5c2.5-.7 5.1-.9 7.6-1.8 3.7-1.2 7-3.8 10.9-4.5 2.6-.6 5.2.6 7.5 1.7q3.3 1.6 6.8 2.8 5.2 2 10.9 2c1.6-.2 3.4.4 5 .1 2.7-.7 4.7-3 6.7-4.8 2.2-2.1 4.7-4.1 7.6-5q3.3-1 6.7-.5 2.3 0 4.2.5c3.5 1.1 6.7 2.8 10.1.4" class="b"/><path d="M11.6 137c1.7-.9 3.3-2.2 5-3q4-2.1 8.4-3c3-.8 6.2-.2 9.2.5 5.9 1.6 8.6.5 13.5 5q4.4 3.9 7.5 9c2.3 3.2 4.8 8 9.3 4.9 2.5-1.7 5.2-4 8.4-3.3 2 .4 3.9 1.3 5.9 1.5q5 .4 10-.9 3.5-1 6.8-2.2c2.2-.7 4.6-1.1 6.7-2 4.4-1.7 7.9-5.6 12.6-6.6 2.3-.5 4.7.6 6.7 1.7q2.9 1.6 5.9 2.7 5 1.5 10 3.5l4.3 1.6c1.3.4 2.8 1 4.2.6 2.8-.8 4.7-3.4 6.7-5.5 4.6-5.1 7.8-5.5 14.3-3.7q3 .7 5.8 1c2.6.8 5.4 1 7.6-.8" class="b"/><path d="M11.6 133q4.4-2.9 9.2-4.7c3.2-1.2 6.7-2.2 10-1.4q3.6.9 6.8 2.2 2.6 1 5 2c3.6 2 6.3 5.3 9.3 8.1 2.1 2 4 4.6 5.9 7 2.2 3 4.2 4.4 7.5 1.9 2.2-1.7 4.7-3.6 7.6-2.8 2 .5 3.9 1.6 5.9 1.8 5 .6 9.7-2.2 14.2-4 3.4-1.4 7-2.1 10.1-3.9 3.4-1.8 6.4-4.4 10.1-5.6 4.7-1.8 8.4 1.4 12.6 3 3 1 6.3 1.2 9.2 2.3 3 1.2 5.6 3.3 8.4 4.7 5.4 3.3 8.7-3.7 12.6-6 3.9-2.4 8 .8 11.8 1.6 1.9.4 4-.1 5.9 0 2.2 0 4.8.3 6.7-1.2" class="b"/><path d="M11.6 129.2c5.4-2.9 11.2-7 17.6-6.2 4.8 1 9.2 3.7 13.4 6.1 3.2 2.1 5.6 5.3 8.4 7.9a58 58 0 0 1 7.6 7.5c3.6 4.3 5.2 3.5 9.2.4q2.4-1.5 5-1c2 .4 4 1.4 6 1.6 4.7.3 8.6-3 12.6-5.2 3.1-1.7 6.8-2.7 10-4.2 3.7-1.7 7.2-4 11-5.4 6-2.3 8.1 1 13.4 2.2 1.9.4 4 .3 5.9.5 5 .3 8.6 4 12.6 6.4 4.8 3.2 7.1-.9 10.9-3.2 4.1-2.3 8 2 11.8 3 2.3.7 4.5-.8 6.7-1.2s4.6.6 6.7-.6" class="b"/><path d="M11.6 125.7c4.8-2.4 9.5-6 15-5.8 4.7.2 9 2.6 12.7 5.1q3 2.1 5.9 4.5l5.8 6c2 2 4.7 3.6 6.8 5.6 2.2 2.2 4.8 6.1 8.4 3.9 2-1.2 4.2-2.6 6.7-2.3 2 .2 3.9 1 5.9 1 4.8-.2 8.5-4 12.6-6.2 3.4-2 7.3-3.2 10.9-4.9 3.3-1.5 6.6-3.5 10-4.7 6.8-2.2 7.9.6 13.5 2 1.6.2 3.4-.1 5 0 6-.1 9.7 3.7 14.3 6.7 5.5 3.6 7-2.2 11.8-2.3 3.2.4 5.6 3 8.4 4.2 5 2.6 6.6-3.2 11.7-1.6a8 8 0 0 0 3.4.3" class="b"/><path d="M11.6 122.4c2.7-1.2 5.4-2.8 8.4-3.6 4-1 8.5-.6 12.6.6 2.8.8 5.3 2.8 7.5 4.6q5.9 4.7 11 10.1 3 2.9 6.7 5c2 1.4 3.6 3.5 5.8 4.4 1.8.7 3.6-.2 5-1q2.2-1 4.3-1.1 2.5 0 5 .2c4.9-.2 8.5-4 12.6-6q5-2.6 10.1-4.8c3.8-1.9 7.7-4 11.8-5.2a14 14 0 0 1 8.4-.2c1.9.7 3.8 1.6 5.8 1.7 2.3.2 4.6-.1 6.8.3 4.8.7 8.6 4.1 12.6 6.6 5.2 3.1 7-4.3 12.6-1.4 2.9 1.4 5.2 4.1 8.4 5 2.6.4 4.4-2.2 6.7-2.9s4.5 1 6.7 1.2" class="b"/><path d="M11.6 119.6c6.4-3.1 8.4-2.2 15-1.7 6.6.2 8.6.2 13.5 4.9q4.4 3.6 8.4 7.5c3 3 6.2 6 10.1 7.7 2.5 1.2 4.6 3.7 7.6 3.6 2-.2 3.9-1.4 5.8-1.8 2-.5 4-.4 6-.6 4.4-.5 7.8-3.8 11.7-5.8 9.4-4 18.7-10.7 29.4-10.4 2.2.3 4.5 1.1 6.7 1.5 3 .4 6.3.5 9.2 1.4 3.5.8 6.4 2.7 9.3 4.7 5.2 3.9 6.2-1.3 11-1.8 2.4 0 4.7 1.6 6.6 3 3 2.4 5.6 4.7 9.3 1.9 1.2-.8 2.7-1.5 4.2-1.2 1.7.3 3.3 1.3 5 1.8" class="b"/><path d="M11.6 117.1c5.8-2.8 8.6.4 14.2.8 2 .2 4-.2 6-.3 4-.5 6.4 2.5 9.2 5 2 2 4.5 4 6.7 6 2.4 2.1 4.8 4.6 7.5 6.4q2.8 1.5 6 2.5c1.5.7 3.2 1.6 5 1.7s3.4-1 5-1.5q3-.8 5.9-1c5.7-.7 9.9-5.3 15.1-7.3 3.3-1.7 6.6-3.6 10-4.8a63 63 0 0 1 15.2-3.4c7.2.2 14.3 2 21 4.3 2.9.9 5.3 3.6 8.4 3.8 2-.2 3.4-2 5-3 3.8-2.3 8 .2 11 2.6 1.7 1.3 3.6 3 5.8 2.9q1.8-.4 3.4-1c3-1 5.8.8 8.4 1.8" class="b"/><path d="M11.6 115.1c4.6-2.2 7.5.8 11.7 2 2.8.8 5.7.3 8.4-.2s5 .6 6.7 2.6c2 1.8 3.8 4 6 5.6l6.6 5.6q2.7 2.4 6 4 2.8 1 5.8 1.3 3.5.9 6.7-.7c3.2-1.3 6.8-1.2 10.1-2.2 3-1 5.7-3 8.4-4.6q2.5-1.4 5-2.7 3.7-2.2 7.6-3.4 3.4-.8 6.7-1.3c3-.5 6.2-1.5 9.3-2q4.6-.1 9.2.6c4.3 1 8.4 3 12.6 4.3 4.5 1.8 6.6 4.5 11 .2 7-5.4 11.5 0 17.6 3.6 1.8 1 4 .4 5.8.6 2.7.4 5.1 1.6 7.6 2.5" class="b"/><path d="M11.6 113.6c5.2-2.4 8.3 2.2 13.4 2.4q2.5 0 5-.2c2.3-.4 5-.3 6.8 1.4 3 3 5.7 6.4 9.2 8.9 3.3 2.4 6.4 5.2 10 7 3 1.1 6.3.8 9.3.4 2-.3 4-1.5 5.9-2 3-.6 6.3-.5 9.2-1.7 4-1.4 7.1-4.3 11-6 1.6-.8 3.3-2 5-2.7q3.1-1.4 6.7-1.5 2.6 0 5-.6 3.5-1 6.8-2.4 2.4-.8 5-.4 2.6 0 5 .6c3.9 1 7.3 3.2 11 4.6 3.6 1 7.5 4 10.9 1 8-6 11.8-4.3 19.3 1.2 1.8 1.2 4 1.7 5.9 2.4q4 2 8.4 3.4" class="b"/><path d="M11.6 112.6c3-1.3 5.4-.5 8.4.6q2.8.9 5.8.6c3.1 0 6.6-.3 9.3 1.5 2.2 1.8 4 4.3 5.9 6.4q2.7 2.7 5.8 4.8c7 4.7 9.9 6.9 18.5 4.5 2.5-.8 5-2 7.6-2.2 3.8-.2 7.7-1 10.9-3.3l5-3.3q2.6-1.3 5-2.7 3.6-2.1 7.6-2 2.6.1 5 0c6-1.4 7.3-6.8 14.4-4.8 5.8 1 10.4 5.2 16 7 1.8.7 3.8 1.5 5.8 1.2 2.2-.3 4-2 5.9-2.8 3.5-1.8 6-3.4 10-2.5q3.1.5 6 2.1 2.9 2 5.8 4c3.1 2.5 6 5.7 10.1 6.3" class="b"/><path d="M11.6 112q2.4-.7 5-.5c2.2.3 4.5.8 6.7.3 3.4-.7 7.2-.4 10.1 1.6 1.6 1.2 3 3 4.2 4.6q3.7 5.2 9.2 8.2c3.4 1.8 7 3.8 11 3.8 5.7-.2 11-2.6 16.8-3 4.8-.4 8.8-3.5 12.6-6.3q2.4-1.5 5-2.9 2.4-1.7 5-2.3 2.7-.6 5-.2c2 .3 4.3.5 6-.8 2.3-1.5 4-4.3 6.7-5.4 3.2-1.3 8.9 1.6 11.7 3.2 5.6 3.2 11 8.2 17.7 4.7l4.2-1.6 3.3-1.9c2.4-1.2 5.1-.7 7.6-.7s5.3-.5 7.6 1c5.2 3.2 7 11.7 13.4 13" class="b"/><path d="M11.6 111.6c2.7-.7 5.6-.6 8.4-.7 2-.3 3.9-1.3 5.8-1.6 6.3-.4 9 6.4 12.6 10.3a20 20 0 0 0 8.4 5.8c7.3 3.1 11.8 2.6 19.4 1.4 3.5-.9 7.3-.6 10.9-1.7 4.2-1.2 7.4-4.4 10.9-6.9l6.7-3.8c2.6-1.3 5.6-1.2 8.4-.8 3 .4 5-1.5 6.7-3.6 1.9-2.3 4.4-4.7 7.6-4 5.6 1.3 10.4 4.8 15.1 8 6.2 4 7.4.4 13.5 0 3-.4 5.2-3.4 8.4-3.2 1.6 0 3.4.5 5 .4 3.4-.2 7-4.3 10-1.1 3.6 4.2 5.5 13.4 11 15.4" class="b"/><path d="m11.6 111.1 7.5-1.2c1.7-.3 3.4-1.3 5-1.9 4.8-1.9 8 3.6 10.1 7a32 32 0 0 0 5 5.7c2.2 1.7 5 2.5 7.6 3.2 6.9 2 14.1 1.7 21 .4 4.3-.4 8.8-.2 12.6-2.3 2.8-1.3 5.1-3.5 7.6-5.2q3.7-2.4 7.6-4.2c2.6-1 5.6-.7 8.4-1 4.5-.6 5.6-6.7 10-7.7 1.7-.3 3.5.3 5 .8q3.6 1.1 6.8 2.8c3.3 1.6 5.9 4.4 9.2 5.9 2.3 1 4.6-.4 6.8-1 1.9 0 4 .5 5.8-.5 2-1.2 4.2-3 6.8-2.3 1.6.4 3.3 1.1 5 1 3.8-.3 6.9-6.3 10-5.2 2.4 1.6 3.2 5 4.3 7.4 1.6 4 3 8.7 6.7 11.2" class="b"/><path d="M11.6 110.3q3.8-.4 7.5-1.4c2-.6 3.9-1.9 5.9-2.3 4.1-.2 6.4 5.2 8.4 8.1q2.2 3 5 5 2.4 1.3 5 1.6 3.5.7 6.8 1.1 5.4.7 11 .2c2.5-.2 5-1.2 7.5-1.5 1.9-.3 4-.1 5.9-.3q3-.4 5.8-1.3c3.1-.8 5.8-2.7 8.4-4.4 3.4-2 7-4 11-4.7 4.2-.8 5.6-.8 8.4-4.4 1.6-2 3.8-4.4 6.7-4q5.6 1.2 10.9 3.7 3 1.6 5.9 3.8c1.4 1 3.2 2.2 5 2.2 1.4 0 2.9-.7 4.2-.7s2.9.5 4.2.5c3.5-.4 5.4-4 9.3-2.3 1.5.5 3.3 1.3 5 1 3.7-.7 5.7-4.5 8.4-6.8 5.9-5.5 6.8 14.2 12.6 18.8" class="b"/><path d="M11.6 109.4q3.8-.5 7.5-1.6c2.4-.8 5.1-2.6 7.6-1 2.6 1.8 4 5 5.9 7.6q2 2.6 5 4.2c1.6.7 3.4.6 5 .6q5.5.5 11 .9 3.8.2 7.5-.6 3.4-1.2 6.7-2.2c2.8-.6 5.7.4 8.4 0q2.6-.7 5-1.5c1.4-.3 3-.2 4.3-.6 3.5-1.1 6.7-3 10-4.5 2.5-1.3 5.1-2 7.6-3 1.7-.8 3-2.3 4.2-3.6 2.3-2.6 4.8-4.6 8.4-3.4q4.6 1.3 9.3 3c2.7 1.1 5 3.1 7.5 4.8a9 9 0 0 0 5.9 1.4c2.8-.2 5.6 2 8.4.9 1.4-.6 2.8-1.6 4.2-2 3.1-.7 6.1 2 9.2.7 4.4-1.2 7.8-10 11-9.4 4 2.7 4.9 15.2 9.2 20" class="b"/><path d="M11.6 108.3q3.4-.4 6.7-1.3c1.9-.5 3.9-1.5 5.9-1.2 3.7 1 5.3 5.3 7.5 8.1q2.1 2.3 5 3.3c2.3.7 4.6-.3 6.8-.3 3.6 0 7.3.4 10.9.3 4.8.1 8.9-3 13.4-3.9 2-.3 4 .3 6 .3 2.9.2 5.6-1.4 8.3-2 1.4-.5 2.9 0 4.2.3 3.6 0 7-1.7 10.1-3.3q3.5-1.7 6.7-3.8c2.3-1.7 4.2-4.1 6.7-5.4 3-1.6 6.3 0 9.3.8q3 .7 5.9 2 3 1.6 5.8 3.8 3.4 2.5 7.6 3c2.2.7 4.4 2 6.7 2 3.5-.3 5.4-3.4 9.3-2.6 5.8 1.3 8.4-.6 11.7-5.2 1.5-1.8 2.8-4.6 5-5.5l.9.2c1.8 1.4 2.6 4.3 3.4 6.4 1.5 4.3 2.6 9.3 5 13.2" class="b"/><path d="M11.6 107q3-.3 5.8-1 2.6-.6 5-.7c7 1 6.7 11.3 15.2 10.7 2-.3 3.9-1.3 5.9-1.4 4.2-.3 8.5.3 12.6-.7 4.5-1.3 8.6-4 13.4-4.3 2.2-.2 4.5.3 6.7 0 3.6-.4 6.5-3.6 10.1-3 1.4.4 2.8 1 4.2 1 3.1 0 5.9-2 8.4-3.6 3.6-2.2 6.8-5.5 11-6.7 2.4-.6 5 0 7.5.7q4 .7 7.6 2.5c2.7 1.5 4.9 3.8 7.5 5.4 1.8 1.1 4 1.5 5.9 2.4 2.5 1.3 5.6 3 8.4 1.8 1.7-.7 3.3-2 5-2.7 3.3-1 7 .4 10.1-1.6 2.5-1.4 4.2-4 5.9-6.3 1.1-1.4 2.2-3.7 4.2-3.8 3.4 1.3 5.9 14.5 8.4 18.5" class="b"/><path d="M11.6 105.8c3.3-.2 6.7-1.5 10-1.1 5.5.8 6.4 7.4 11 9.5 2.7 1.5 5.8.1 8.4-1 2.9-1.2 6.1-1 9.2-1.3a23 23 0 0 0 8.4-2q3.6-1.6 7.6-2.6 2-.8 4.2-1c1.3-.2 2.8.2 4.2.3q2.5.3 5-.7c3.4-1.2 6.3-4.4 10-4.2q2.2.4 4.3-.2c4.5-1.7 8.6-4.6 13.4-5.5a23 23 0 0 1 10.1.1c2.6.5 5.3 1 7.6 2.5s4.4 3.6 6.7 5.2c2 1.5 4.6 2.2 6.7 3.6s5 2.4 7.6 1.6c2-.8 3.8-2.5 5.8-3.4 3.2-1.5 7-.8 10.1-2.4 2.4-1.3 4.3-3.6 5.9-5.6 1.2-1.3 2.3-3.5 4.2-3.7 3.4.6 6.4 13 8.4 16.4" class="b"/><path d="M11.6 104.4c5.3-.6 10.3-2.4 14.2 2.5 1.7 1.9 3 4.4 5 5.9 4.7 3.5 8.2-1 12.7-2 3.6-.7 7.3-1 10.9-1.9 3-.9 6-2.3 9.2-3 2.8-.7 5.5-2.3 8.4-1.8 6.9 1 10.7-.6 16-4.7a20 20 0 0 1 6.7-2.8q5.3-1.7 11-2c4.7-.3 9.5-.7 14.2-.2 5 .2 8.1 4.7 11.8 7.5q2.4 1.6 5 3c3.3 2.4 7.4 3.3 11 .8 1.8-1.2 3.7-2.6 5.8-3.3 2.2-.8 4.6-1 6.7-1.9 3.4-1 6-3.8 8.4-6.3 3.1-3.3 4.9-1.7 6.8 1.7 1.7 3.4 3.2 7.2 5 10.5" class="b"/><path d="M11.6 102.5c8.5-1 10.8-.4 16 6.6q1.9 2.7 5 4c1.7.6 3.5-.1 5-1 1.6-.8 3.3-2 5-2.6q5-1.3 10.1-2.2 3.4-.8 6.7-2 3.8-1 7.6-2.2 1.6-.5 3.4-.7l4.2.3c3.7 0 7.6-.3 10.9-2.2 4.4-2.8 7.9-6.2 13.4-6.6 3.3-.3 6.8 0 10.1-.3 3.4-.3 6.7-1.1 10-1.5 5.4-1 8.4 3.5 11.8 6.6 1.8 1.6 4 2.6 6 4q4.2 3.5 9.2 1.1c2.8-1.4 5.4-3.4 8.4-4.5 3.6-1.4 7.6-2.5 10.9-4.7 2.1-1.1 4-3.7 6.7-3.2 2 .7 3.1 3 4.2 4.6 1.3 2.3 2.8 5 4.2 7.2" class="b"/><path d="M11.6 100.5c4.5-.5 8.5.3 11.7 3.7 3.1 2.8 7 9.5 11.8 7.5 2.3-1 4.4-2.7 6.7-3.7 4.6-1.8 9.6-2 14.3-3.2 4.2-1 8.4-2.6 12.6-3.6 1.9-.4 4 0 5.9 0 10-.3 10.2-.3 18.4-5.8q3.6-2 7.6-2.2 4.6.1 9.2-.6c3.2-.6 6.2-1.9 9.3-2.9 5-2 7.8 2.3 10.9 5.3 1.7 1.7 4 2.9 5.9 4.4 2.8 2.3 5.6 3 9.2 1.8 4.3-1.7 8.3-4.2 12.6-6l7.6-2.8c1.6-.5 3.3-1.6 5-1.8 4.4-.2 7.4 6.9 10.1 9.8" class="b"/><path d="M11.6 98.5c6.4 0 9.9 3.8 14.2 7.7 2.1 2 4.4 4.8 7.6 4 3-.8 5.5-3.2 8.4-4.3 4.3-1.8 9-1.6 13.4-2.2q4-.4 7.6-2c2.4-.8 5-2 7.6-2q3.7.3 7.5 0c2.2 0 4.6.2 6.7-.3 4.7-.8 8.2-4.4 12.6-6 2.4-.8 5.1-.7 7.6-1q4-.3 7.6-1.7 3-1.3 5.8-3c2.2-1.2 4.6-2 6.8-.3 2 1.5 3.8 3.6 5.8 5.2 1 .8 2.4 1.5 3.4 2.3 1.6 1 3.2 2.4 5 3.2 4.9 1.7 10-.8 14.3-2.8a43 43 0 0 1 11.8-4.4c1.6-.3 3.3-1 5-1 4.6.4 7 5.2 10.1 8" class="b"/><path d="M11.6 96.5c5.2.8 9.3 4.7 13.4 7.8 3.1 2.9 5.8 5 10 2.7 3.7-2 7.5-4.3 11.8-4.4 9.2.1 10.7 1.3 19.4-3 2.3-1.2 5-.8 7.5-.8 5-.2 10.3.5 15.1-1.2q3.6-1.7 6.8-3.8a17 17 0 0 1 5.8-2c2.8-.4 5.7-.6 8.4-1.5q4.2-1.5 7.6-4.2c2.4-1.7 4.8-3.4 7.6-1.2q2.1 1.7 4.2 3.5 2 1.5 4.2 2.7 3.1 2.3 6.7 4 2 .7 4.2.6 2 .3 4.2 0c2.9-.6 5.7-2 8.4-3.2 4-2 8.3-3 12.6-4 4.7-.2 7.5 4.5 10.9 7.1" class="b"/><path d="M11.6 94c3.8 1.2 6.8 4 10 6.1 2.3 1.5 4.3 3.6 6.8 4.7 3.4 1.6 7-.7 10-2 6-2.6 7.4-2.2 13.5-1.2q5.5 1 10.9-1 2.6-1 5-2.1c2.7-.7 5.7-.4 8.4-.6 4.2-.4 8.5 0 12.6-1 3.2-.7 5.7-3 8.4-4.6 3.4-1.9 7.3-2 11-3 3.9-.8 7.1-3.4 10-6 4.7-4.5 7.1.4 11 2.9q2.9 1.6 5.8 3.1 3.3 2.1 6.8 3.5 2 .6 4.2 1.1 2.4.9 5 .4c3.2-1 6.2-2.8 9.2-4.3q4.1-2.1 8.4-3.6c5-.9 8.2 4.6 11.8 7" class="b"/><path d="M11.6 91.4c4 2 7.2 5.1 10.9 7.4 2 1.5 4.1 3.3 6.7 3.8 4.1.5 7.9-2 11.8-2.9q2-.6 4.2-.7c3 .1 6.1 1 9.2.9 5.2.1 10.1-1.7 15.1-2.6q6-.6 11.8-1c3-.2 6.2.3 9.2-.5 3.5-1.2 5.9-4.3 9.3-5.7 3.7-1.7 8-1.8 11.7-3.6 2.3-1.1 4.2-3 5.9-4.7 2-2 4.1-3.8 6.7-1.5 1.6 1.3 3.2 3 5 4q3 1.3 6 2.5c3 1.5 6 3.6 9.2 4.7 2.1.8 4.3 2 6.7 2 6.7-1.5 11.2-7.9 17.6-9.9 4.5-.7 8.3 5.4 11.8 7.7" class="b"/><path d="M11.6 88.5c2 1.2 4 3 5.8 4.6q2.5 2 5 3.6c2.3 1.6 4.8 3.3 7.6 3.4 5 0 9.5-2.3 14.3-3.1 4-.2 7.9.4 11.8-.1q3.8-.5 7.5-1.2l6-.4c3.8-.1 7.8-.7 11.7-.8q3.8.2 7.5.5c4.2.3 6.8-3.5 10.1-5.4 3.3-2.1 7.3-2.7 11-4q3.3-1.5 5.8-4.1c1.9-1.7 3.8-5.5 6.7-4.3 2.2 1.3 3.7 3.6 6 4.9s5 1.8 7.5 2.8c2.9 1.2 5.5 3.1 8.4 4.4 7 4 9 3.3 15.1-2 2.9-2.3 6-6.7 10-6.5 4.7 1.1 7.2 5.8 11 8.3" class="b"/><path d="M11.6 85.7c2.4 1.7 4.5 4 6.7 5.9q3.6 2.7 7.5 4.8c4.3 2 9.1.8 13.5-.2q3-.8 5.9-1.6 5.5-.6 10.9-1 3.7-.6 7.5-1.4 2.6-.3 5 0c4.5.1 9-.2 13.5 0 2.6.2 5 1 7.6 1.4 3.4.7 5.9-2.3 8.4-4.1q3-2.4 6.7-3.7c2.9-1 6-2 8.4-4 2.6-1.9 4.1-5 6.7-6.9 2-1 3.8 1.3 5 2.6q1.9 2 4.3 3.2c2.7 1 5.7 1.4 8.4 2.6 4 1.9 7.6 4.4 11.7 6 7.3 2.3 11-6.4 16-9.9 6.1-4.2 10.4 4.8 15.1 7.5" class="b"/><path d="M11.6 83.3c3.2 2.4 5.7 5.8 9.2 7.9a22 22 0 0 0 16.8 3.3c3-.4 5.6-1.8 8.4-2.6 3.3-1 6.7-1.1 10-1.6 2.9-.4 5.7-1.3 8.5-1.8 3.6-.4 7.3 0 10.9.4q4.7.3 9.2 1.1c9.3 3.1 7.3 3.5 15.2-2.4 7.4-5 11.8-4.2 17.6-12.6 3.9-5.6 5.9-.6 9.2 2.2q2 1.5 4.2 2 3 .8 6 1.7c3.6 1.5 7.1 3.6 10.8 5.2 11.7 5.2 13.2-10.4 21-9.9 4.9 1.2 7.6 6 11.8 8.4" class="b"/><path d="M11.6 81.3C15 84 18 87.9 22.5 89.7a29 29 0 0 0 20.1 1q5.3-2.3 11-3.1l10.9-2.4q3-.6 5.9-.8 2.5.2 5 .9c3 .9 6.2 1 9.2 2q2.7.9 5 2.3c1.3.6 2.8 1.4 4.3 1 3.4-1.3 6-4.4 9.2-6.2 4.1-2.6 8.7-4.8 11.8-8.6 4-4.8 4.8-8.5 10-2q2.2 2.3 5.1 3.3 3 .8 5.9 1.9c2.8 1.2 5.5 2.8 8.4 3.7 3.7 1.3 8 2.9 11.7.8 4.6-2.2 7.7-11.1 13.5-8.5 4 1.7 6.9 5.4 10.9 7.2" class="b"/><path d="M11.6 79.5c2 1.4 3.8 3.4 5.8 5q2.8 1.8 6 2.9c2.6 1 5.5 1 8.3 1.3q4.2.5 8.4.2c2.3-.3 4.6-1.3 6.7-2q3.4-1.1 6.8-2.1c4-1.4 8.4-2 12.6-3.3 6-2.2 7.1-.8 12.6 1.4 1.8.7 4 1 5.8 1.6q2.8.9 5 2.5c1.3.8 2.7 2 4.3 2.1 2.6-.2 4.6-2.5 6.7-4 3.3-2.6 7-4.8 10-7.5q2.9-2.5 5.1-5.5c1.5-1.6 3.4-5.2 5.9-3.4 2 1.7 3.6 4.1 5.9 5.5 2 1.3 4.5 2 6.7 3.2q3 1.7 5.9 3.1 2.9 1 5.9 1.3 3.3.4 6.7.1c6.8-.7 9.9-10.9 16-8.5 4 1.5 7.5 4.8 11.7 6.1" class="b"/><path d="M11.6 77.9c3.7 2.6 6.1 5.6 10.9 6.6 4 1.5 8.4.5 12.6.7 2.5 0 5 .4 7.5.1 4-.5 8-2 11.8-3.4 4.4-1.7 9.2-2.6 13.4-4.7 4.9-2.5 7.9.2 11.8 2.7 2.3 1.3 5.2 1.6 7.6 2.9 2 1 3.9 2.7 5.8 3.9 3.3 1.7 7.5-2.8 10.1-4.4q5.2-3.7 9.3-8.4 2.3-3.2 5-6.2c1.8-2 3.4-1.4 5 .4q2.4 2.7 5 5 4.4 2.4 8.5 5.3c4 3 8 2 12.6 1.5 7.2-.6 9-3.3 14.3-7.3 2.8-2 5.5-1 8.4.3q4.4 2.3 9.2 3.8" class="b"/><path d="M11.6 76.4c2.2 1.4 4.2 3.4 6.7 4.5q4 1.3 8.4 1.5c3.4-.2 6.7-1.5 10-1.4 2.3 0 4.6.5 6.8.6q3 0 5.9-.6c4.6-1.1 9-3.2 13.4-5 2.5-1.1 4.9-2.9 7.6-3.6 4.4-1.2 7.7 2.4 10.9 4.9q2.9 1.7 5.9 2.9c6.7 3.6 6.3 7.2 14.2 2a34 34 0 0 0 7.6-6c2.2-2.2 4-5 5.9-7.6 1.8-2.4 4-5.3 6.7-2.1 1.6 1.7 3.2 3.7 5 5.2l6 4.5c5.5 4.7 6.9 4 13.4 1.8q4.2-1 8.4-2.6c2.9-1.4 5.4-3.6 8.4-5 2.7-1.3 5.7-.1 8.4.8l9.2 2.8" class="b"/><path d="M11.6 75c4.6 3.3 6.6 4.8 12.6 4.6q1.7.1 3.3 0c2.6-.5 5-1.8 7.6-2.4 5-.9 10 1.4 15.1.7 4.9-.6 9.2-3.2 13.4-5.6 2.6-1.5 5.4-3.3 8.4-3.5 4.2-.6 7.4 2.5 10.1 5.2q2.7 2.4 5.9 4.2c5.3 3.1 6 6.2 12.6 3q4.3-1.7 7.6-5c1.9-2 3.5-4.6 5-6.9 1.5-2 3.6-6.5 6.7-4.7 1.6 1.2 2.9 3 4.2 4.5q2.4 2.3 5 4.4c5.7 4.5 7.2 6.9 14.3 3q4.2-1.8 8.4-3.5 4.2-1.8 8.4-3.8c4-1.7 7-.8 11 .1 3 .7 6.3 1.1 9.2 2.2" class="b"/><path d="M11.6 73.6c6.4 4.7 8.4 3.9 16 3.5 2.9-.6 5.4-2.6 8.3-3.3 5-.8 10 1.3 15.1 1s9.1-3.7 13.5-6q3.9-1.9 8.4-2.4c7.3-1.6 10.9 6 16 9.8 3.8 3 5.6 5.6 10.9 3.9a19 19 0 0 0 7.5-3.7c2-1.9 3.7-4.5 5-6.9 1.6-2.5 4.1-8 7.6-5 1.5 1.4 2.8 3.2 4.2 4.6q2.4 2.2 5 4.1c6 4.7 8 4.4 14.3.6 5.2-2.6 10.3-5.7 16-6.9 3.6-.9 7.3-.2 11 .4 3.3.4 6.9.7 10 2.2" class="b"/><path d="M11.6 72.2c6.3 4.6 8.8 3.2 16 2.7 3-.4 5.4-2.7 8.3-3.6 4.4-1 9 .4 13.5.4 5.5.3 10-3.6 15-5.2 2.8-1 5.7-.6 8.5-1.2 5-1.3 8-1.5 11.7 2.7 2.4 2.9 4.7 6 7.6 8.4a9 9 0 0 0 6.7 2.4q4.1-.3 7.6-2.4c5.9-3.7 7.6-17.4 13.4-11.5l4.2 4.3q3.1 2.4 6.7 4.3c4 2.1 7.5.7 11-1.6q5-3.2 10-6c3.7-1.7 7.9-1.5 11.8-1.2l6.7.9q5.3.3 10.1 2.4" class="b"/><path d="M11.6 70.8c4.7 3.3 8 3.3 13.4 2.6 4.4.2 6.6-1.8 10-3.9 2.7-1.3 5.7-.8 8.5-.6q5 .3 10-1.1c3.6-1.2 7.2-3 11-3.3 2.5-.3 5 .5 7.5.2 3.2-.3 6-2.2 9.3-2 6.8.6 8.5 13 17.6 14.2 2.9.4 6.1 0 8.4-1.9 2.6-2.2 4.2-5.6 5.9-8.5 1.5-2.5 3.2-4.6 5.9-2 3.9 4 6.1 6 11.7 7.3 6.2 1.6 11.3-3.3 16-6.5 7.2-5.1 10.6-3.5 18.5-1.6 5 1.4 10.2 1.6 15.1 3.1" class="b"/><path d="M11.6 69.5c4 2.6 7.9 3 12.6 2.4 1.9-.2 4 .1 5.8-.7 3-1.3 5.2-4.1 8.4-4.5q2.6-.2 5 0 3-.1 6-.8c6.5-1.9 11.4-4.2 18.4-2.3 4.1 1.1 8.1 0 11.8-1.8 5.1-2.4 7.2 0 10 4 2.8 3.5 5.9 7.3 10.2 8.8 12.7 3.9 12.3-17.3 19.3-10.1 3.2 3.5 6 5 10.9 5.3q5.4.3 10-2.7c7-4.6 11.2-10.9 20.2-5.8 10.4 5.8 8.6 4.8 20.2 4.4" class="b"/><path d="M11.6 68.6c2.8 1.3 6 2.3 9.2 2.1l5-.3q1.7.2 3.4 0c3.3-.7 5.4-3.8 8.4-5s6.2-.8 9.2-1.6q3.8-1 7.6-2 5-.7 10 .1c2.8.6 5.6 1.5 8.5 1.4 7 .2 11-7.9 16.8-1.8q2.8 3 5.9 6c1.9 1.8 4 4 6.7 4.8 2 .5 4.3 0 5.9-1.3 2.7-2.2 4-6 6.7-8.3 3.2-2.2 5.2 4.3 10 5a24 24 0 0 0 16.9-4.3c1.9-1.5 3.7-3.3 5.8-4.5 9.8-6 13.5 7.2 22.7 7.5 3.5.2 6.7-1.4 10.1-2" class="b"/><path d="M11.6 67.8q2.9.8 5.8 1.4h9.3q1.6.5 3.3.2c2-.4 3.6-1.8 5-3.1q2.3-2 5.1-3.1 3.4-.9 6.7-1.6 4.2-1.2 8.4-1 7.2.1 14.3 1.5c6 1.1 8.4.2 13.5-2.7q4.4-2.3 8.4.9 3 2.1 5.8 4.6c2 1.8 4 4 6.8 4.5 7.1 1.4 9.2-11.4 14.2-7.2 2.5 2.3 4.8 4.5 8.4 4.1q5.6-.4 11-2.5c4.8-1.6 7.5-6.7 12.6-7.7 3.2-.7 6 1.7 8.4 3.7 2.6 2.3 5.5 4.8 9.2 5 4.3.7 8.5-1 12.6-2.3" class="b"/><path d="M11.6 67c3.6.6 7.3.3 10.9.3q3.7.1 7.5 1.1c2 .3 3.7-.9 5-2.1q2.4-2.2 5.1-3.8c3.8-2 8.3-2.6 12.6-2.2 5 .6 10.1-.1 15.1.4 6 .7 8.6 2.2 14.3-1 2.3-1.2 5-2 7.6-1.4 4.3 1.4 8 4 11.7 6.5 2.7 1.8 5.8 2.1 8.4 0 1.8-1.3 3.2-3.2 5-4.2 4.5-2 5.6 5.7 14.4 3.8 4.7-.8 9.5-2 13.4-4.9 4.8-4.3 8.7-6.1 14.3-1.6 2.5 2 5 4.3 8.4 4.6q3.8.3 7.5-.8 4-.6 7.6-2" class="b"/><path d="M11.6 65.2c7.3-.1 12.2-.9 19.3 1.9 2.2.5 4.2-.8 5.9-2q2.4-1.8 5-3.3c4.4-2.3 9.5-1.3 14.3-1.5 4.5-.2 9-1.6 13.4-1 2.3.4 4.5 1.3 6.7 1.4 6 .2 9.1-4.4 16-2.1 2.2.8 4.6 1.2 6.7 2.1 3.1 1.5 6.6 3.7 10.1 2.2 2.4-1 4.3-3.2 6.7-4.1 4.6-1.3 6.5 4.9 16.8 2.8q4.9-.9 9.3-3.3c2-1.1 3.7-2.7 5.8-3.6 7-3 11 6.3 17.7 5.6 2-.1 4-1.1 5.9-1.7 3-.8 6.3-1.3 9.2-2.6" class="b"/><path d="M11.6 62.4q9.9-.7 19.3 2.8c2.2.8 4.7.2 6.7-1 6.5-3.6 8.6-4 16-4.3 4-.1 7.8-1.6 11.7-2.2 4.7-1 8.9 2 13.5 1.9 3-.1 6-1.5 9.2-1.7 2.3-.2 4.5.5 6.7.9q2.5.2 5 .6c4.2 1 7.8 2.5 11.8.2 2.4-1.2 4.7-3.4 7.6-3 5.6.6 11.1 2.7 16.8 1.4a28 28 0 0 0 7.5-2.9c3.4-2 7.2-3.9 11-1.7 2.8 1.5 5.1 4.1 8.4 4.7a7 7 0 0 0 4.2-.8l3.3-2c3.3-1.2 6.8-1.7 10.1-3" class="b"/><path d="M11.6 59.2c5.7.1 11.2 2.2 16.8 3.3 2.1.6 4.4 1.4 6.7 1.1 4.4-.6 8.3-3 12.6-4q4.6-.7 9.2-1.1 4.4-.7 8.4-1.9c5.2-1.4 9.3 1 14.3 1.5 3.4.3 6.7-.7 10-.5q2.6.2 5.1.8h5.9c4 .1 8 1 11.8-1q2.4-1.2 5-2.5 5.7-2.2 11.8-1.4c5 .9 7.5 1.7 12.6-.2 2.5-1 4.9-2.6 7.5-3.2 4.9-1.3 8 3.2 11.8 5.3 2.3 1.4 4.9.4 6.7-1.4q1.9-1.6 4.2-2.6c2.7-1 5.6-1.5 8.4-2.4" class="b"/><path d="M11.6 56.4c3.7.6 7.3 2 10.9 3.2q5.3 1.5 10.9 2c5.6.2 10.8-2.4 16-4.2 3.5-1.1 7.2-1.2 10.9-1.2a39 39 0 0 0 6.7-.7q4.2-.8 8.4-.2c3 .4 6.1 1.3 9.2 1.5q3 0 6 .4 2.4.4 5 .7 3.4-.1 6.7-.6 3.8-.1 7.5-.9c4.2-1 8-3.4 11.8-5a16 16 0 0 1 8.4-2.2c2.3 0 4.5 1.4 6.7 1.8 5.2.8 9.5-2.7 14.3-4 5-1.2 7.5 4.3 11 6.7 2.6 1.8 4.8-1 6.6-2.7q2.6-2.4 6-3.6l5.8-1.3" class="b"/><path d="M11.6 54c3.7 1.1 7.2 2.9 10.9 4.1q7 2.4 14.3 1.2 3-.5 5.8-1.5c1.8-.6 3.5-1.8 5-2.7 5.7-3.5 9-3.7 15.2-1.5 6.7 2 11.3-2 18.5.7q4.5 1.5 9.2 2c2.2.3 4.5.9 6.7.8q3.9-.2 7.6-1.1 4.3-.8 8.4-2.4 4.4-1.7 8.4-4.1c2.4-1.4 4.8-3.1 7.6-3.7 4-1 6.3 2.2 10 2.6 5 .6 9.2-2.4 13.5-4.3 5.7-2 6.9 6.4 10.9 8.5 1.2.5 2.6-.4 3.4-1.3l3.3-3.6c2.6-2.9 6.3-4.4 10.1-4.4" class="b"/><path d="M11.6 52c5 1.9 9.7 5 15 5.8q4.7.8 9.3-.5 4-.7 7.6-2.7c4.3-2.9 8-7.7 13.4-8.1 6.2 0 7.3 6 15.1 5 5.4-.6 7.7-.3 12.6 1.9q5 1.6 10.1 2.5c7.4 1.4 14.4-2.4 21-5q4.5-2 8.4-4.6c2.6-1.5 5.3-3.7 8.4-3.4 1.6.3 3 1.5 4.2 2.4q1.6 1 3.4 1.6c3.2 1 6.5-.4 9.2-2q2.3-1.4 4.2-3c1-.7 2.2-1.5 3.4-1.3 3.9 1.5 4.5 9.7 8.4 10.8 1.9-.3 3-2.5 4.2-3.7 2.7-3.5 5.8-8.5 10.9-7.6" class="b"/><path d="M11.6 50.3q3.8 1.6 7.5 3.7 3.1 1.7 6.7 2.2c5.2.9 10.6-.8 15.2-3.2 2.9-1.7 5-4.4 7.5-6.5 2.8-2.4 5.7-5 9.3-6 2-.7 4.3.3 5.8 1.7 1.4 1.1 2.8 2.6 4.2 3.5q2.9 1.6 6 2.6c2 .6 4.5.7 6.6 1.3 3.2 1 6 3 9.3 3.7 4.6 1.2 9.5 2.6 14.3 1.2 3.2-.9 6.2-2.7 9.2-4q7-3.2 13.4-7.4c3.3-2 6.3-3.8 9.3-.2 1.8 1.7 4 4 6.7 3.7q2.2-.6 4.2-1.6 2.6-1.1 5-2.5 1.8-1.3 3.4-3c.9-.9 2-2.1 3.4-1.9 3.6 2.2 3.8 10.3 7.5 12.5 1.5.2 2.5-1.5 3.4-2.5 2.8-3.3 5.5-12.7 10.9-11" class="b"/><path d="M11.6 48.6c7 3.3 9 6.7 17.6 5.7 9.7-.8 12.6-5.8 19.3-11.3l7.6-6c2.3-1.8 5.5-4 8.4-2.1q3 2.4 5.9 5c1.8 2 3.6 4.4 5.8 6 2 1.3 4.6 1.9 6.8 2.9 5.1 2.7 11 4.5 16.8 5 5 .4 9.3-2.3 13.4-4.7q6.3-3.4 12.6-7c2.8-1.6 6.6-4.6 9.2-1.2 5 6.3 5.6 5.6 11.8 1.2 2.2-1.5 5.2-1.6 7.6-2.9 1.8-1.2 3-3.6 5-4.4h.8c3.4 2.7 3.8 12.5 7.6 14 5-1 6.7-17.3 12.6-15.6" class="b"/><path d="M11.6 47c3.1 1.5 5.8 4.2 9.2 5 2.2.7 4.5.3 6.7-.2q3.4-.4 6.7-1.1c3.8-1.2 6.4-4.3 9.3-6.8Q47 41 51 38.7a49 49 0 0 0 6.8-5.2c2.5-2.2 5.4-6.6 9.2-4.7 4 1.9 5.5 6.5 7.6 10.1 2.4 4.8 4 6.8 9.2 8.7a50 50 0 0 0 11.8 4q8.5 2.1 16-2.7a211 211 0 0 1 15.9-9.4c1.7-.9 4-2.1 5.9-1 1.3.8 2.3 2.4 3.3 3.6 3 3.8 5.2 1 7.6-1.7q2-2.3 5-3.4c2.5-.8 5.5 0 7.6-1.6 1.4-1 2.4-3 4.2-3.4l.8.3c3.2 3.4 3.6 13.4 7.6 15.2 4.6-1.7 5.8-16.5 10.9-17.2" class="b"/><path d="M11.6 45.3c5 3 7.8 6.9 14.2 4.2 3-1.3 6.4-.9 9.3-2.1 3.3-1.6 5.3-4.9 8.4-6.8 3.5-1.7 7.4-3 10.9-5 6.6-2.9 10-14.1 15.1-11.9 4.1 3 5.8 12.4 8.4 17 1.7 3.6 4 5 7.6 6.2q4.4 1.9 9.2 3c4.7.8 9.8.7 14.3-1.1 4.7-2.2 9-5.5 13.4-8.2q3-1.8 6-3.1c1.8-1 4.3-1.3 5.8.4 5.6 7.5 6 3.6 11-1.5a10 10 0 0 1 5-2.8q2-.4 4.2-.4 2.3.1 4.2-1.2c1-.9 2-2.1 3.3-2.6h.9c3.4 2.4 4.4 15 8.4 16.4 4.5-2.8 4.9-13.2 9.2-16.8" class="b"/><path d="M11.6 43.6c5.4 3.2 7.6 6.5 14.2 3.3 6.7-2.5 7.8-.5 13.5-6.4a9 9 0 0 1 6.7-3.2c2.8-.6 5.7-.8 8.4-1.4q3.5-1 5.9-3.9C62.9 29.6 68 17 72 22c4.3 6 4.7 17.7 10.1 22.2q2.9 1.3 5.9 2.2 3.7 1.3 7.6 1.8 6.7.6 13.4-1.2c5.6-2 10.1-6 15.1-9 2.7-1.4 6.3-3.6 9.3-1.5 1 1 2.1 2.4 3.3 3.3 2 1.6 4-.8 5-2.3q1.5-2.2 3.4-4.2 2.6-2.1 5.9-2.5 2.1-.4 4.2-.5c1.4 0 3 0 4.2-.8s2.5-2.6 4.2-2.6c3.6 1.3 5.4 13.6 8.4 17l.8.2c3.6-2 5-10.4 7.6-14" class="b"/><path d="M11.6 41.8c3.3 1.9 6.7 5 10.9 4q2.6-.8 5-1.9 2.6-.8 5-1.8c2.6-1 4.6-3.2 6.8-5q1.2-.7 2.5-1.3 1.6-.3 3.4-.3 3.8-.2 7.5.4c9.1 1.7 11.1-9.6 16-14.8C75.3 14 77 39.5 82 43c1.6 1.4 3.9 1.7 5.9 2.1q3.7 1 7.6 1.4 4.6.2 9.2-.7 4.8-.6 9.2-2.6c4.5-2 8.2-5.5 12.6-7.4 1.9-.8 4.1-1.2 6-.1 2 1.3 4.2 4.8 6.6 2.1 3.1-3.2 5-8.6 10.1-9 2.5-.2 5-.9 7.6-.9 3.2.5 4.2-1.5 6.7-2.9 5.4-1.7 7 14.3 10 17.3l1 .2c2.9-.7 4.3-6.4 5.8-8.9" class="b"/><path d="M11.6 40c3 1.6 6.3 4.1 10 3.4 3.6-.7 6.9-2.4 10.1-3.9 2.4-1 4.5-3 6.7-4.3C41 34 44 34 46.8 33.8c2.4 0 4.6 1.1 6.8 1.8 9.6 2.6 11-10.7 16.8-15.3 4-2.4 5.7 7 6.7 9.4 1.1 3.6 2.1 7.8 4.2 11 1.6 2.6 4.7 3 7.5 3.2q3.7.6 7.6.8c3.4 0 6.8-.9 10-1.5 3.8-.8 7.6-1.5 11-3.2 4.3-1.9 8.4-6.2 13.4-5.2 1.8.5 3.2 2.2 5 2.5 4.8-.3 6.3-10.3 12.7-10.6q3.7-.1 7.5-.8c1.7-.3 3.6.4 5-.4 1.7-1 3-3 5.1-3 6.8 1.3 6.1 27.7 14.3 14.8" class="b"/><path d="M11.6 38.4C14.2 39.6 17 41 20 41c6.1-.5 11.3-4.4 16.8-7q2.4-.7 5-1a11 11 0 0 1 7.6-.3c8.4 3.6 11.3 2.7 16-5.2 1.6-2.5 3-5.8 5.8-7.2 4-1 6.2 11 7.6 13.8 1.7 4.9 3.4 8.4 9.2 8.2 4.2.2 8.5.9 12.6 0 2.8-.6 5.6-1.6 8.4-2.2q3.8-.8 7.6-1.7c3.1-.8 6-2.5 9.2-3.5 5-1.8 7.5 2.3 11 .1 3.5-2.8 5-8 9.2-10.2 1.5-.7 3.4-.5 5-.4q3-.1 5.9-.5 1.7 0 3.3.1c4.2-.6 6.2-7.5 10.1-1.4 1.5 2.6 2.5 6.2 3.4 9 1 2.9 2.4 9.6 6.7 7.3" class="b"/><path d="M11.6 36.9c6.3 2.9 10.8 1.7 16.8-1.2 2.4-1.2 4.9-2.7 7.5-3.2 1.4-.2 2.9 0 4.2-.3s2.8-1 4.2-1.2c3.5-.6 6.7 1.4 10.1 1.7 6 1 8.7-3.3 11.8-7.6 1.4-1.8 3.2-5 5.8-4.5C77.4 24 77.2 36.2 83 40c2.3 1.2 5 .7 7.5.9 3.4.2 6.8.4 10.1-.5 3.1-.7 6.2-2 9.2-2.8q4.3-.9 8.4-1.6 4.2-.9 8.4-1.5c2-.3 4 0 6 0 5.8-.4 7.8-8.8 12.5-11.7 3-2 6.8-.2 10.1-.5 2-.3 4 .1 5.9 0 3-.4 4.4-4.3 7.5-4.4 6 1.8 5.6 18.4 11.8 20.7" class="b"/><path d="M11.6 35.5c5.4 2 11 .2 16-2.2 2-1 4.3-2.2 6.6-2.4 1.4-.2 2.9.2 4.2.3 2-.1 4-1.2 6-1.3 3.3-.2 6.6 1 10 .7 9 0 11.1-11.3 16.8-10.3 5 3 5.5 12.9 10 17 2 1.6 4.5 1.2 6.8 1.2q3.7.1 7.6.6 3 0 5.8-.8 3.9-1.2 7.6-2.8 5-1.6 10-2.4c4.2-.3 8.6.7 12.7-.2 7-2 8.5-11.3 15.1-13.8 2.8-.7 5.6.6 8.4.8q2.5.2 5 .6 2.4.2 4.2-1.4c1.4-1.1 2.6-2.7 4.2-3.4 4.3-1.4 6.3 9.6 7.6 12.5.9 2.8 2.3 6 4.2 8.2" class="b"/><path d="M11.6 34.4c5.5 1.2 10.9-1.6 16-3.7 2.3-1 4.9-2.4 7.5-1.8q2 .6 4.2.5 2-.5 4.2-.7 3 .2 5.9.2 3.4 0 6.7-1.2c5.3-1.5 10.3-12.1 15.1-8.3 4.5 4 5.1 14.2 11 16 2.1.5 4.4-.5 6.6-.3 4.5.5 7.9 2.9 12.6 1.4 3.8-1.2 7.3-3.1 11-4.4 2.6-1.1 5.5-2.4 8.4-2 3.3.5 6.8 1.8 10 .5 6.7-2.6 9.1-10.6 15.2-14 2.7-1.3 5.7-.2 8.4.6q2.5.7 5 1.2c3 1.1 5.6-.6 7.6-2.7 5-5.5 6.8.8 8.4 5.1 1.3 4 2.7 8.5 5 12.2" class="b"/><path d="M11.6 33.2c5.7.7 10.7-3.1 16-5 2.8-1.3 5.1-2.1 8.3-1.4 2.2.5 4.5 0 6.7 0 4.6 1 7.5 1.3 11.8-.7C57 25 59.2 23 61.1 21c2.3-2.4 5.9-6.1 9.3-3.5C75 21 76 32.7 83 32.4c2.2-.4 4.4-1.5 6.7-1.2 4.1.4 7.3 4.3 11.7 3.2q3-.8 6-2.3 2.5-1.3 5-2.7c3.7-2.3 6.5-3.7 10.9-2q3.3 1.2 6.7.2c5-1.8 8-6.7 11.8-10.2 2.3-2.6 5.5-4.9 9.2-3.9 2.6.6 5 1.8 7.6 2.5 2.2 1 4.6 1.5 6.7 0 2.2-1.2 4-4.8 6.7-4.5 4 1.9 5.5 13.3 8.4 17.6" class="b"/><path d="M11.6 31.6c3.9.6 7.5-1.4 10.9-3.2 3-1.4 6-3.2 9.2-4.2 1.9-.6 4-.5 5.9-.5q2.6-.1 5 .4c4.2 1.8 6.7 2.6 11 .4 2.5-1.3 4.7-3.4 6.7-5.4 2.6-2.6 6.5-6.4 10-3.1C74.9 19.8 75.8 29.6 83 29c2.5-.4 5-1.6 7.5-1.5 4 .2 6.9 4.3 11 4.2 3.3-.3 6.4-2.3 9.2-4 2.8-2 5.5-5 9.2-5 2.8.3 5.6 1.6 8.4 1.4 5-.3 8.2-4.8 11.8-7.8 2.6-2.3 5.4-5.4 9.2-5.3 3.6.2 6.8 2.1 10.1 3.2 1.5.7 3.3 1.4 5 1 2.8-.8 4.5-3.6 6.8-5.2 3.5-1.9 4.8 4 5.8 6.3 1 3 2.1 6.4 3.4 9.2" class="b"/><path d="M11.6 29q3.8 1 7.5-.4c5.1-2 9.3-6 14.3-8.1 3-1 6.4-1.2 9.2.2 1.7.9 3.3 2.2 5 2.8 8 2.2 14-10.6 20.2-10.3 4.9.9 6.3 7.3 9.3 10.5 4.6 5.1 9.6.4 15.1 1 2.4.4 4.5 2 6.7 3 3.4 1.8 7.2 0 10.1-2.1 2.3-1.8 4.3-4.2 6.7-5.9 3-2.3 6.8-1 10.1 0 4 1.1 7 .2 10-2.5l6-4.6c1.7-1.4 3.6-2.8 5.8-3.2 4-.5 7.4 1.8 11 3 1.8.7 3.8 2 5.8 1.8 3-.3 4.8-3 6.8-5 3-3 4.8.6 5.8 3.3 1.2 3 2.3 6.7 3.4 9.8" class="b"/></svg>