<svg xmlns="http://www.w3.org/2000/svg" id="a" width="1920" height="2400" viewBox="0 0 192 240"><defs><style>.b{fill:none;stroke:#fff;stroke-miterlimit:10;stroke-width:.3px}</style></defs><path d="M0 0h192v240H0z" style="stroke-width:0"/><path d="M13.4 231.2c3.7-1.4 7.8-2.6 10.7-5.3 2-1.7 3.6-3.9 5.8-5.2 6.6-3 6.1 8.5 14 6.8 2-.3 4.3-.8 6.5-.7 4.7.1 9.3 1.6 14 1.6q4.1.2 8.2-.8c4.7-1.3 7.5.9 11.5 2.6q5.2 1.8 10.7 1c5-1 9.2-4.3 14-6.1 3.2-1.4 6.6-2.2 9.8-3.7q5.8-3.2 11.5-5.9c8.3-4.1 9.6 4.6 15.6 7.6a32 32 0 0 0 9 2.6q3.4.5 6.6-.5c2.5-.7 4.9-2 7.4-2.3a35 35 0 0 1 9.9.2" class="b"/><path d="M13.4 228.3c3.7-1 7.7-1.9 10.7-4.3 2-1.4 3.6-3.3 5.8-4.3 4.4-1.7 6.2 4.2 9.8 5.5 4 1.5 8.3-.1 12.3.2 5 0 9.9 1.6 14.8 1.6 3 .2 6-1 9-1 3-.2 5.6 1.5 8.3 2.3 3.7.8 7.8 1 11.5-.2 4.3-1.6 8-4.4 12.3-5.9 3.8-1.2 7.8-2.2 11.5-3.9l13.2-4.9c3-1.1 5.2-.6 7.4 1.9 2.1 2.5 4.3 5.1 7.3 6.6 5.2 2.7 10.3 3.3 15.6.6a23 23 0 0 1 15.7-1.4" class="b"/><path d="M13.4 225q3.8-.4 7.4-1.5 2.7-.8 5-2.4c1.9-1.3 4.2-2.8 6.5-2 1.5.5 2.8 1.8 4.1 2.7 2.8 2.2 6.5 2.5 9.9 2.4q5-.5 9.9 0c3.5.3 7 1.2 10.6 1.3 3.6.4 7.2-.8 10.7-.7 2 0 3.9.8 5.8 1.2 10.3 1.7 13-2 21.3-5.9 3.4-1.5 7.2-2.3 10.7-3.4 4.3-1.4 8.8-2 13.2-2.7q2.4-.6 4.9-1.4c1.5-.5 3.3-1.2 5-.7 2.3 1 3.8 3.6 5.7 5.3 3 3 7 5.5 11.5 5.2 4.4-.4 8-3.7 12.3-4.4q5.4-1 10.7.7" class="b"/><path d="M13.4 221.4c3 0 6.2 0 9-.8 2.8-.7 5.4-2.4 8.3-2.2 2.4.3 4.3 2 6.6 2.8 7.1 2.3 14.8.8 22.2 1.8 3.8.4 7.6 1.3 11.4 1.3 2.2 0 4.4-.6 6.6-.7q3.8.1 7.4.4c6.2.1 10.5-2.3 15.6-5.3q4.8-2.6 9.9-4.2 4-1 8.2-1.6c3.3-.3 6.6 0 9.9 0q3 0 5.7-.7c2.1-.6 4.6-2 6.6-.4 2.2 1.9 4.2 4.3 6.5 6a10 10 0 0 0 10 1.6c2.4-1 4.8-2.4 7.3-3.3a21 21 0 0 1 14 .2" class="b"/><path d="M13.4 217.9c2.2 0 4.4.6 6.6.4 3-.1 6-1 9-.8 2.3.2 4.5 1.3 6.6 2q3.2.9 6.6 1 6 .6 12.3.8 6.7-.1 13.2 1.4c3.5 1 7 .3 10.6-.3 2.7-.5 5.6-.5 8.3-1a32 32 0 0 0 11.5-4.7q4-2.1 8.2-4c1.5-.8 3.2-1.8 4.9-2.2q6.2-1.1 12.3.2 5.3 1.1 10.7 1c1.6 0 3.3-.6 5-1q1.7-.3 3.2 1c2 1.4 3.7 3.2 5.8 4.4a9 9 0 0 0 8.2.6c2.7-1 5.4-2.5 8.2-3.3a22 22 0 0 1 14 .7" class="b"/><path d="M13.4 214.7c2.5-.2 5 .8 7.4.7q3.8 0 7.4.6 3 .7 5.8 1.6c3.4 1.1 7.1 1 10.6 1.3q7.8 1 15.7 1 3 0 5.7.9 2.4 1 5 1.3c3 .2 6-1 9-1.7q4.9-1 9.8-2.6c3-1 5.6-2.6 8.3-4q3.7-2.1 7.3-4.1c1.9-1.1 3.7-2.6 5.8-3.1q4.2-.4 8.2.6c3.3 1 6.5 2.2 9.9 2.7 2.4.3 4.9 1.1 7.4 1.1q2-.1 4-.8c1.6 0 3 1 4.2 1.7q1.9 1.5 4.1 2.3 3.7 1.3 7.4-.2c8.6-3.3 12.8-4.7 22.2-2.4" class="b"/><path d="M13.4 211.8c2.5-.6 5 .5 7.4.7q3.4.3 6.6 1.3 3.3 1 6.6 1.8 4 .9 8.2 1 3.7.4 7.4 1 3.3.5 6.5.5 3.4-.2 6.6.1 3 .8 5.8 2c3.9 1.3 7.8-.7 11.5-2s7.7-2.2 11.5-3.7c2.9-1.2 5.5-3 8.2-4.6q3-1.8 5.7-4c1.6-1.1 3.2-2.6 5-3.4 1.2-.5 2.8-.2 4 0q2.3.2 4.2 1c2.8 1.2 5.3 3.2 8.2 4q3 .6 5.8 1.3c1.6.4 3.2 1.2 4.9 1.3q1.7.1 3.3-.5c3-.8 5.5 1.8 8.2 2.5 2.7.8 5.6.3 8.2-.5a36 36 0 0 1 21.4-2.2" class="b"/><path d="M13.4 209.5c2-1.1 4.4-.5 6.6-.2 4 .6 7.7 2 11.5 3s7.7 1.1 11.5 1.8c4.8 1.1 9.8 2.5 14.8 2 9.7-.9 8.8 6 19.7.7 4.7-2.4 10-3.3 14.8-5.2 4-1.7 7.5-4.7 10.7-7.6 2-2 4-4.2 6.6-5.6 1.5-.9 3.3-.7 4.9-.3q1.6.3 3.3.8c2.5 1.2 4.4 3.5 6.6 5.1 2.3 2 5.4 2.3 8.2 3.1 3.4 1.3 5.2 2.6 9 1 1.7-.1 3.4.7 5 1.3a14 14 0 0 0 5.7 1.2c4.5-.2 8.7-2.3 13.1-3 4.4-.6 8.8.1 13.2.3" class="b"/><path d="M13.4 207.8c2.4-1.8 5.5-1.6 8.3-1l9 2c3.5.8 7.2 1.1 10.7 1.8 2.5.6 4.9 1.8 7.4 2.4q3.1 1 6.5 1c2.2 0 4.5-.3 6.6.2 5.3 1.3 6.3 4 12.3 1.6 3-1.3 6-3 9-4 4.3-1.4 8.8-2.5 12.4-5.2 4.6-3.6 7.7-9.3 13.1-11.7 2.4-1 5-.2 7.4-.4 3.4-.4 5.6 2.7 7.4 5 2.8 3.8 4.6 4.9 9 6.3 2.2.7 4.3 2.2 6.6 2.3 1 0 2.2-.6 3.3-.7 3 .1 6 2 9 1.7 4.5-.2 8.7-2.3 13.2-2.9s9.3.7 14 .5" class="b"/><path d="M13.4 206.2c4.8-3.6 10.3-1.6 15.7-1q6.1.5 12.3 2.1c2.5.8 4.8 2.2 7.4 3q2.8.9 5.7 1.2 3.3 0 6.6.3c3.3.4 6.3 3.3 9.8 2.4 3.3-.7 6-2.7 9-4 4.5-1.7 9.1-3.4 13.2-6 4.9-2.8 8-9 14-9.5 1.9-.2 3.9.1 5.7-.2 4.9-1.2 6.7-6 10.7.1 3.1 4.8 4.3 7.8 9.9 10.2 2.5 1.3 5.2 3.6 8.2 2.5 1.6-.4 3.4.1 5 .4q4.1.8 8.2-.7c5.3-1.9 9.8-3.3 15.6-2 2.7.4 5.4 1 8.2.8" class="b"/><path d="M13.4 204.7c4.5-3.5 9.5-3 14.8-3q3.4-.1 6.6.5 2.9.6 5.8 1.7c2.7.9 5.4 2.5 8.2 3.4 3.4 1.3 7 1.4 10.6 1.7 2.3.2 4.5 1.2 6.6 2 5 2.3 9.6-2 14-3.7 4.7-2 9.3-4.5 14-6.6 4.5-2.6 7.1-3 12.3-2.8 2.8 0 5.9-.5 8.2-2.2 3.7-2.4 6.8-10.5 10.7-3.6 2.7 4.8 4 8.7 9 11.8 2 1.4 4 3.5 6.6 3.4l2.4-.2c1.7.2 3.4.6 5 .4 4-.5 7.5-3 11.5-4 7.8-2.6 12 1.9 18.9 1.8" class="b"/><path d="M13.4 203.1q4.5-3 9.9-3.8 4.5-1 9-1c2 0 4 .8 5.8 1.6l6.6 2.8q4 1.7 8.2 2.4c3.3.4 6.7.6 9.8 2 2.4.8 4.9 2.1 7.4 1.5 2.4-.5 4.5-1.7 6.6-2.8q2.8-1.4 5.7-2.7c3.9-1.9 6.2-3.6 10.7-3q3.8.3 7.4.4 3.4-.1 6.6-1.2c3.5-1 7.3-1.9 9.9-4.7 1.4-1.5 2.7-3.6 4-5.2 4-5.4 6.7 2.3 8.3 5.4q1.8 4 5 7c1.4 1.7 3 3.5 4.8 4.6 1 .6 2.3.4 3.3.5 1.9.4 4 1 5.8.3 2-.8 3.9-2.3 5.7-3.4q3-2 6.6-2.8c7.5-2 11.6 3.7 18 4.1" class="b"/><path d="M13.4 201.5q5-3 10.7-4.6c3.4-1 7.1-2.5 10.7-1.4 4.4 1.9 8.4 4.6 13.1 5.7 3.2.9 6.7.5 9.9 1q3.4.8 6.6 2.5c3.5 1.7 6.5.7 9.8-.9l7.4-3.4c2.3-1 4.9-2.5 7.4-1.5 8.2 3.5 10.5 2.2 18-1.3 3.8-1.9 8.5-1.6 11.6-4.6q1.8-2 3.3-4.2c.8-1 1.8-2.6 3.3-2.9 3 0 5 6.6 6.5 9q2.3 3.8 5 7.5c.8 1.1 2 2.5 3.3 3.2l2.4.7c1.3.6 2.7 1.5 4.1 1.2 2.7-.8 4.5-3.5 6.6-5.2 3.3-2.8 8-4.2 12.3-3.5 4.9 1 8.3 5.3 13.2 6.2" class="b"/><path d="M13.4 199.7q4.5-2.2 9-4c3.7-1.5 7.5-3.9 11.6-3.2 2 .6 3.9 2.2 5.7 3.3q3 1.8 6.6 2.6c4.3 1 8.9-.2 13.1.8 2.6.6 4.9 2.3 7.4 2.9 2.3.4 4.5-.4 6.6-1.2 4-1.3 8-4 12.3-3.6 4.3 1 6.4 4 11.5 2.6 4.3-1.4 8.1-4.1 12.3-5.6 3-1.3 6.2-1.3 9-2.6 3.3-1.4 4.5-5.3 7.5-7 3-.8 5.1 5.2 6.5 7.3 2.1 3.5 4 7.4 6.6 10.4 1 .8 2.4 1.6 3.3 2.5 1 .8 2 2 3.3 2.2 1.8 0 3-1.7 4.1-3 4-5.4 7-7.2 14-7.1 3.4.2 6.3 2.3 9 4.2 1.8 1.3 3.6 3 5.8 3.3" class="b"/><path d="M13.4 197.8q4.7-1.5 9-3.4c3.4-1.7 6.9-4.1 10.8-4 1.8 0 3.4 1.4 4.9 2.4a14 14 0 0 0 8.2 3c2.7.1 5.5-.4 8.2-.6 6.9-.5 10.5 5 17.3 3 4.8-1.4 6.9-3.2 12.3-2.1 2 .2 4 1.3 5.8 2.2 4.7 2.3 8.9-.6 13-2.7 5-2 9.7-4.7 14.9-5.8 3.3-.4 5.2-3 7.4-5.3 3.3-3.3 5.8 2.1 7.4 4.6 2 3.2 3.7 7 6.5 9.7 1.6 1.2 2.9 3 4.1 4.6.6.7 1.6 1.7 2.5 1.9 2.3 0 3.6-2.7 5-4.2 1.6-2.2 3.7-4.5 6.5-4.9a26 26 0 0 1 8.2 0q4 1.2 7.4 3.7c1.8 1.1 3.5 2.8 5.8 3" class="b"/><path d="M13.4 196q4.3-.6 8.3-2.1c3.7-1.8 7.1-5 11.5-5.2 1.5 0 2.9 1 4 1.9 3.9 3 7 3.1 11.6 2.3 2.4-.5 4.9-1.3 7.4-1.2 7 .6 8.1 5.5 16.4 3 2.4-.8 4.9-1.4 7.4-.9q3.4.7 6.6 1.7c2 .8 4.2 2.3 6.5 2.4 3.6.3 6.7-2 9.9-3.5l6.6-3q3.2-1.7 6.5-3 2.5-.7 5-1.8c4.9-3.4 6.1-7.7 10.6-.4 1.6 2.4 3 5.3 5 7.6q1.7 1.5 3.3 3.3c1.6 1.8 3 4.8 5.7 5.1 4-.7 5.5-6.6 10.7-7q4.1-.3 8.2.3l5.8 1.4c2.7.7 5.2 2.7 8.2 2.4" class="b"/><path d="M13.4 194.3c2.8-.1 5.7-.3 8.3-1.4 4.2-1.5 9-7.2 14-4.8 1.8 1 3.6 2.5 5.7 3q4.2.6 8.2-.4c3.4-1 7.1-3 10.7-1.3 3.1 1.5 6.2 4 9.8 3 2-.2 3.9-1 5.8-1 3.3 0 6.6 1.4 9.8 2 3.1.9 5.8 3.3 9 3.3 2.5 0 4.6-1.3 6.7-2.4q3.6-2 7.3-3.7 3.5-1.6 6.6-3.3 3-1.4 5.8-2.9c1.9-1.1 3.4-3.3 5.7-3.6 3.3.3 5.4 6 7.4 8.5q1.8 2.3 4.1 4.4c1.6 1.8 2.9 4 5 5.2 1.7 1 3.5-.5 4.9-1.5 2-1.4 4-3 6.6-3.2 4-.1 8.2.8 12.3 1 1.9-.1 3.8-.8 5.7-1q3 .2 5.8-.7" class="b"/><path d="M13.4 192.6q5.1.3 9.9-1.4c3.5-1.4 6.7-4.4 10.7-4.4 1.1 0 2.3.8 3.3 1.3q3.7 2.3 8.2 2 3 0 5.7-1c1.7-.5 3.3-1.5 5-2 5.4-2.2 8.6 4.2 14 3 2.1-.3 4.3-1.1 6.5-1 2 .1 3.9.8 5.8 1.3q3 .5 5.7 1.5c5.9 3 7.7 5.5 14 1.2 4.4-3 9.5-4.9 14-7.8l5.7-4.1c2.1-1.8 4.3-3.1 6.6-.6 1.8 2.1 3.2 4.8 4.9 7 1.1 1.6 2.8 3 4.1 4.5 1.8 1.9 3.5 5.5 6.6 4.8 4.3-2.2 4.8-4.8 10.7-4 4.2.7 9.1 2 13.1-.2 1.6-1.1 3-2.8 5-3.5 1.8-.5 3.9-.4 5.7-1.1" class="b"/><path d="M13.4 190.3q3 .4 5.8 0l4.1-.6c2.5-.7 5-1.9 7.4-2.6 2.7-1 4.3-.4 6.6 1 3.8 2.2 9 2.3 13.1 1 3.2-1 5.7-3.5 9-4 3-.3 5.4 2.3 8.3 3 2.7.5 5.5-.8 8.2-1.1 3.2-.4 6.6.5 9.8.6a20 20 0 0 1 6.6 2.6q2.4 1.7 5 2.8c3 .8 5.7-1.5 8.2-2.9q5.2-2.8 9.8-6.6c2.4-2 4.6-4.4 7.4-5.9 3-1.4 5.1 2 6.6 4q2.8 4.7 6.5 8.3c1.4 1.4 2.6 3.2 4.2 4.5 3 2.6 5.7-1.7 8.2-3.2 3.9-2.3 8.2 1 12.3.7 6.4-.2 7.8-6.5 12.3-7 1.9 0 3.9.5 5.8 0" class="b"/><path d="M13.4 187.2c2.7.8 5.5.6 8.3.6 3.2-.3 6.5-1 9.8-1.2 4.3-.3 5.1 3.7 11.5 3.4 10.9.2 12.3-5.6 18-6.1 3 0 5.3 2.6 8.3 2.6 2.6.1 5-1 7.4-1.6a39 39 0 0 1 10.7-1.1q4 .8 7.4 3c2.4 1.7 5 3.7 8.2 2.5 3.8-1.3 7-4 9.9-6.8 2.8-2.5 5.1-6.3 9-7.2 4.6-.3 7.9 9 11.5 12 3 2.6 6.2 9.1 10.7 4.9 1.5-1.4 3-3 4.9-3.8 3.8-1.3 7.7 1.6 11.5.1 2.1-.7 4-2.3 5.8-3.6 1.8-1.7 4-3 6.5-2 1.9.8 3.7 2 5.8 2" class="b"/><path d="M13.4 183.2q3.9 2 8.3 2.2h4q2.2.2 4.2.5c6 .5 5.3 4.5 13.1 3.6 4-.2 8.2-.8 11.5-3.1 2-1.2 3.6-3 5.8-3.8 2.3-.8 4.5.8 6.5 1.7 4.3 2.1 8.6-.8 12.4-2.5q3.6-1.4 7.3-1.7 4.4.1 8.3 2c5 2.6 7.8 5.1 13.1 1 3.8-3 6.4-7.4 10.7-9.7 5.1-1.9 8 6 10.7 9.1q2.2 3 4.9 5.4c1.5 1.4 3 3.2 5 4 5.3 1 6.4-7 13.9-6 5.8.7 7.6-1.5 12.3-4 5.9-3 7.8 3.7 13.2 3.1" class="b"/><path d="M13.4 178.3c3.2 2.7 5.6 4.5 9.9 4.4 2.6 0 5 1.6 7.4 2.3 2.8.8 5 3.6 8.2 3.3q3.3-.4 6.6-.5c2.5-.2 5.1-.4 7.4-1.5 3.8-1.7 6.7-8 11.5-4.8 3.4 2.2 6 3.2 9.8 1 2.5-1.4 4.7-3.5 7.4-4.2q5.4-1.6 10.7-.5 3.8 1 7.4 2.2c5.7 2 9.4-2.5 13.1-6 1.8-1.5 4-3.6 6.6-3 1.7.7 3 2.3 4.1 3.7l4.1 5.9c2.3 3 5.3 5.6 8.2 8 5.3 4.4 8.1-.7 12.4-3.4 2.7-1.6 6-1.1 9-2 3-1 5.7-3.3 9-3.1 5.3 0 6.5 5.7 12.4 3.2" class="b"/><path d="M13.4 173.6c2.3 2 4.5 4.5 7.4 5.5q1.7.3 3.3.8c1.7.7 3.3 2 5 2.8 2 .8 3.7 2.3 5.7 3.2 2.7 1 5.5-.3 8.2-.2 3.6 0 7.7.7 10.7-1.6 3-2 5.7-7.6 9.9-4.6 1.5 1 3 2.4 4.9 3 4.3.6 7-3.9 10.7-5.5q4.7-1.7 9.8-1.7c7.2 0 13.4 3.9 19.7-1.5 2.7-1.9 5.5-5.5 9-4.8 3.8 1.8 5.7 6.3 8.3 9.3q3.9 4.9 9 8.4c7.5 5.5 10-1.7 16.5-3.7q3.3-.7 6.5-2c2.1-.9 4.3-2 6.6-1.9 7.2.5 6.5 6.2 14 .7" class="b"/><path d="M13.4 169.6q2.9 2.2 5.8 4.3 2.4 1.3 5 3 2 1.7 4 3.4l5 3c2 1.1 4.4.4 6.5.2 2.5-.2 5 .3 7.4.4 4.8.4 7-2.5 9.9-5.7 2.3-2.5 4.2-2 6.5 0 1.3 1 2.6 2.4 4.2 2.9 4 .5 6.5-3.9 9.8-5.4q2.8-1.2 5.8-1.4 2.4-.5 4.9-.6c7.3-.1 13 2.6 19.7-2.4 2.6-1.6 5-4.4 8.2-4.3 3.7.8 6.5 6.8 9 9.6q4.6 5.3 10.8 8.6c4.3 2.4 7.3 2.4 11.5-.4a35 35 0 0 1 7.3-3.4c3.3-1 6.3-3.9 10-3.4 1.2.2 2.8.5 4 1 1.5.8 3.3 1.7 5 .9 1.7-1 3.2-2.7 4.9-3.8" class="b"/><path d="M13.4 166.5a31 31 0 0 1 9 5.3c1.8 1.7 3.2 3.9 5 5.5q1.6 1.4 3.3 2.5a7 7 0 0 0 4.1 1.7q2.9-.2 5.8-.2c6.3.6 9.4 2.1 14-3.6 5.2-6.8 6.5-1.7 11.4 1.5 3.6 1.6 7.2-4.1 10.7-5.1 2-.8 4.4-.8 6.6-1q3.2-.5 6.6-.6 2.8.2 5.7.5c4.4.1 8.8-1.1 12.3-3.9 4-2.8 7.5-6.4 11.5-1.3 5.8 7.3 8.2 11.2 17.3 15 2.8 1.2 5.9 2.6 9 2q3-1 5.8-2.3 3.4-1.5 6.5-3.5c2.2-1.5 4.7-3.3 7.4-2.5q2.6.5 5 1.4c1.4.6 3-.1 4-1.2q2-2 4.2-3.6" class="b"/><path d="M13.4 164.2c8.6-.4 9.3 5.5 14 10.6 1.7 1.6 3.5 3.5 5.8 4.2q2.4.3 4.9.1 2.4 0 5 .5c2 .4 4.5.6 6.5-.6q2.3-1.6 4.1-3.8c1.4-1.7 3.4-4.2 5.7-2.8 2 1.1 3.3 3.2 5 4.5 2 1.5 4.1.2 5.7-1.1q2-1.6 4.1-2.7c3.4-1.5 7.2-.5 10.7-1.2q5-.5 9.9.1a20 20 0 0 0 14-5c2.4-1.9 5.9-5 9-2.7 3.3 2.8 5.6 6.9 9 9.7 3 2.9 7 4.3 10.7 5.6q4 1.7 8.2 2.5c5.3.6 10.1-2.6 14-5.8 1.8-1.6 4.2-2.7 6.6-2l4 1.4c1.5.6 3.1-.2 4.2-1.2q1.9-2 4.1-3.6" class="b"/><path d="M13.4 162.5c7.3-3.2 9 2.7 12.4 7.7a22 22 0 0 0 5.7 5.7q2.4 1.1 5 1c6 0 10.2 2.6 14.7-2.6 2-1.9 4.2-6 7.4-4.3 2 1.1 3.2 3.3 5 4.7 1.8 1.6 4 .3 5.7-1 4.7-3.5 7.8-2.4 13.1-2.2 3.3-.3 6.6-.8 9.9-.5q5.5.5 10.7-1.5 3.6-1.7 6.5-4.4c5.4-4.5 7.7-4.7 12.4.7 4.8 5.3 8.5 8.3 15.6 10q3.3.8 6.5 1.8c2.7.8 5.5 1.6 8.3 1 3.2-.6 5.7-3 8.2-5.2 1.5-1.3 3.7-2.3 5.7-1.7 1.7.5 3.3 1.5 5 2 1 .3 2.4-.3 3.3-1q2-1.7 4-3" class="b"/><path d="M13.4 161.2c11.5-7.9 8.8 12.9 23.9 14 3 .1 6.1.7 9-.4 4.6-1.4 7.9-11 13.1-6.1 2.1 1.8 4.1 6 7.4 4.5 6.8-4.2 7.4-3.3 14.8-2.6q3 0 5.8-.4l6.5-.1q5.2-.6 9.9-2.4c2.8-1.2 5-3.3 7.4-5.1 4-3.4 6.7-3.5 10.7.2s8.5 7.3 14 8.8c4 1.4 8.2 1.6 12.3 2.9 5.5 2 8.2 0 12.3-3.6 1.5-1.3 3.6-2.4 5.7-1.7 1.5.3 2.8 1.5 4.1 2.1 3.1 2 5.6-1.2 8.3-2.4" class="b"/><path d="M13.4 160.2c1.5-1.1 3-2.7 5-2.9 4.3.1 6.5 7 9 10q3.3 4 8.2 5.8c4 1.4 9 1.3 12.3-1.6 2.2-1.9 4-4.5 6.6-5.8 5.7-2.4 7.1 7.2 12.3 5.7q2.1-1 4.2-2 2.4-.8 4.9-.6c2.1.1 4.4.6 6.5.5q2.6-.2 5-.5 3.3 0 6.5-.5 4.2-.8 8.3-2.2c3-.8 5.7-2.7 8.2-4.6 3.3-2.7 6.6-4.8 10.7-2.1 3.5 2.2 7 4.8 10.6 6.8q4 2 8.3 3.2 2.8.5 5.7.5c4 .2 7.7 3.2 11.5.8 2.9-1.6 5.4-5.1 9-4.1 1.6.3 3 1.6 4.2 2.5 3 2.4 5.2.6 8.2-.7" class="b"/><path d="M13.4 159.4c1.6-1.4 3-3.3 5-4.2 4.5-1.6 7.4 6.9 9.8 9.7 1.3 1.7 3.3 3 5 4.4 4 3.5 9.4 5.2 14 1.3 3.3-2.5 6.5-8.1 11.4-6.2 2.2 1 3.7 3.4 5.8 4.7s4.5.1 6.5-.7q2.8-.9 5.8-.9 3 .2 5.7 0l4.2-.6c2.1-.3 4.4-.3 6.5-.8q5-1 9.9-2.8 3.5-1.5 6.6-3.8c2.6-1.9 5.6-4.2 9-3.6 3.6.7 6.7 3 9.9 4.8q3.5 2.3 7.3 4.1c2.1 1 4.3 2 6.6 2.2 2 .2 3.9-.4 5.8-.4 1.7 0 3.3.9 4.9 1.4 4.8 1.8 7.9-3.9 12.3-4 6.2.3 5 7.2 13.2 4" class="b"/><path d="M13.4 158.4c1.8-1.5 3.2-3.5 5-5 5-3.8 8.2 5.1 10.6 8.1 1.3 2 3.3 3.3 5 4.8 2 1.7 4 3.5 6.5 4.3 5 1.7 8.8-3 12.4-5.7 9.1-6.3 9.5 5.6 18 2.6 4.5-1.5 9.4-1.4 14-2.6q3.2-.7 6.6-1.2 3.7-.8 7.4-2c4.2-1.2 7.8-4 11.5-6.5a11 11 0 0 1 11.5-1.4c5 2 9.3 5.4 14 8.1 3.9 2.4 6.9 4 11.4 2 3.5-1.5 5.8 1.3 9 1.3 3.3-.3 5.8-3.1 9.1-3.5 6.3-.6 6 7 13.2 5.2" class="b"/><path d="M13.4 157.4c2.2-1.6 3.8-4 5.8-5.8 4-3.2 6.7.4 9 3.6 1.3 1.7 2.6 3.7 4.1 5.2q2 1.7 4.1 3.2c2.3 1.6 4.7 3.4 7.4 4 3.3.6 6.5-1 9-2.9 9.9-7 10.5 3 19 1.6l10.7-3c5.6-2 11.8-2.8 17.2-5.4 4-2.2 7.5-5.2 11.5-7.3 3.4-1.9 5.4-2.2 9-.8 7.6 2 13.2 8 19.8 12 7 3.9 7.3-3.6 14-.2 1.4.7 3.3 1 4.9.4 4.5-1.4 9.1-4.4 13.1 0 1.8 1.7 3.8 3.5 6.6 3.2" class="b"/><path d="M13.4 156c2.3-1 4-3.2 5.8-4.9 4.3-3.9 7.1-2.7 10.7 1.3q2.6 3 5.7 5.3l5 3.1c2.5 1.7 5.1 3.7 8.2 4.2 3.3.4 6-2.2 9-3.4 5.2-2.3 9 3.3 14 3.2 3.5-.3 6.6-2.3 9.8-3.5q4.2-1.8 8.3-3.4 4.2-1.3 8.2-3.4c4-2.6 7.8-5.6 12.3-7.3 3-1.4 6.5-2.4 9.9-1.3a32 32 0 0 1 14 8.5c3 2.4 8.1 7.9 12.3 6.1 1.7-1 3.6-2.5 5.7-2s4.3 1.4 6.6 1l5.7-1.3c2.2-.5 4.6-.9 6.6.3 2.5 1.4 4.6 3.7 7.4 4.4" class="b"/><path d="M13.4 154.6c2.6-.6 4.6-2.6 6.6-4.3 4.1-3.5 7.3-3 11.5 0 3.4 2.5 7.4 4.1 10.7 6.7 3.2 2.3 6.1 7 10.7 6.2 3.1-.7 5.7-3.4 9-3.4 2 0 4 1 5.8 1.8 2 .9 4.3 1.6 6.5 1 3-1 5.5-2.7 8.2-4l8.3-4.6q4.7-2 9-5.2 2.3-1.8 5-3 2.8-.9 5.7-1.6 2.9-1 5.7-1.4 2.5-.2 5 .2 6.4.6 10.6 5.4l5 4.8q2.4 1.8 5 3.5c2 1.4 4 3 6.5 1.4a9 9 0 0 1 5-1.5q3.6.6 7.3.1c10.1-1.1 8.7-1.7 18 3" class="b"/><path d="M13.4 153c7-.3 8.2-7.6 16.5-5.2q5.4 1.6 10.6 3.9c5.5 2.5 8.4 12.6 15.7 9.1 2-.9 4.2-2.2 6.5-2.4 1.7-.1 3.4.5 5 1 2.3.9 5 1.5 7.3.7 4.2-1.8 7.8-4.7 11.5-7q4.5-3.3 9-6c2.4-1.6 4.7-3.6 7.5-4.2 2.4-.5 5-.2 7.4-.7q2.9-.7 5.7-1.3 2.9-.3 5.8-.1c3-.1 6 .7 8.2 3 2.5 2.4 4.6 5.3 7.4 7.4q2.3 1.6 5 3c1.2.7 2.6 1.9 4 2.5 1.4.3 2.9-.3 4.1-.8l4.1-1q5-.6 9.9-.8 7.3-.6 14 2.4" class="b"/><path d="M13.4 151.2c6 .9 6.6-2.8 11.5-4.2q3.7-.7 7.4-.1 3.4.3 6.6.8c8.4 1.6 9 15.9 19.7 10.8 5-2.4 6.4-1.5 11.5-1 4.5.8 7.4-1.2 10.7-3.7l6.6-5q3.4-3.1 7.4-5.5c7.3-4.5 6.4-2.7 14-2.3 2.4 0 4.9-1 7.3-1.5 2.4-.3 5 0 7.4-.2 4.7-.5 7 3 9.9 6q2 2.6 4.9 4.4 2.4 1.3 5 2.5c3.2 2.2 4.9 4 9 2.3 2.4-.9 4.8-1.9 7.4-2.2q3.7-.3 7.4 0c3.8.3 7.7.3 11.4 1.4" class="b"/><path d="M13.4 149.3c5.7 1.4 5.4-.3 9.9-2.4q4-1.4 8.2-1.4c2.7 0 5.5-.3 8.2 0 3 .4 4.9 3.2 6.6 5.3 4 5.3 7.1 8.3 14 5.3q3.5-1.5 7.4-1.6 3.3-.3 6.5-.7c2.2-.4 4-1.8 5.8-3l5.7-4.7c2.2-1.8 4.2-3.9 6.6-5.4q2-1 4.1-1.7c4.3-2 7.3.6 11.5.8 2.8.1 5.5-1.2 8.2-1.5 1.6-.2 3.4.1 5 0q2.4-.1 4.9-.1c2.4.1 4.2 2 5.7 3.7q2.6 3.2 5.8 5.6c2 1.5 4.5 2.1 6.6 3.4 1.5 1 3 2.4 4.9 2.9s4-.6 5.7-1.3q2.8-1.4 5.8-1.8c3-.4 6 .3 9 .5s6.1 0 9 .5" class="b"/><path d="M13.4 147c1.4.1 2.8.8 4.1.8 1.5 0 2.9-1 4.2-1.6q2-.8 4-1.2 7-1 14-.8c2.8.3 4.8 2.8 6.6 4.7 5.6 6 8.9 7.4 16.4 3.6q3.7-1.4 7.4-2.6l4.1-.7c2.8-.5 5.2-2.2 7.4-4 3.4-2.4 6.2-5.6 9.9-7.6q1.6-.6 3.3-.7 2-.4 4-.3 2.7.5 5 1.4c3.6 1.4 7.2.2 10.7-.7 2.4-.6 5 .4 7.4.3 2.4 0 5.2-1 7.4.6 3 2.2 5.1 5.6 8.2 7.7 2 1.6 4.5 2.1 6.6 3.4 6.6 4.9 6.9 3.3 14 .8 3.4-1.3 7.1-.3 10.6.4q5 .4 9.9-.3" class="b"/><path d="M13.4 143.9c1.7.1 3.3.9 5 .7 1.4 0 2.7-.9 4-1.1 3.3-.6 6.7-.3 10-.3h4.9q3-.1 5.7 1.6c4.4 3 9 8.1 14.8 6.4 2.6-.8 5-2.5 7.4-3.7 2.1-1 4.3-2.3 6.6-3q4.8-.7 9-3.4c3.5-2.1 6.5-5.6 10.7-6.3 1.9 0 3.9.5 5.7.6q3 .7 5.8 1.9c5.3 2 9-1.6 14-1.1q2.3.6 4.9.9c1.9 0 3.8-.6 5.7-.4 2.4.2 4.1 2.2 5.8 3.8q2.3 2.3 5 4.2c2.2 1.6 5.1 2.3 7.3 4 3.6 2.7 5.8 2.7 9.9 1q3.6-1.3 7.4-1 2.9.6 5.7 1.4 5.1.8 9.9-1.3" class="b"/><path d="M13.4 140.2c1.7-.1 3.3.5 5 .5 1.6 0 3.3-.5 4.9-.3 5 .4 9.8 1.3 14.8 1.6 3 0 5.7 1.7 8.2 3.2 7.4 4.5 10.4 4.3 17.3-.9a63 63 0 0 1 8.2-5c3.2-1.4 6.7-2.4 9.8-4.1 8.6-4.6 8.8-2.6 17.3.1 2.8 1.2 6 2.4 9 1.7 3.2-.8 6.5-2.6 9.9-1.5q3.2 1.1 6.6.6c3.6-.8 5.3-.4 8.2 2a49 49 0 0 0 8.2 6.3c7 3.3 7.2 6.5 15.6 3.8q3.2-.8 6.6-.2c1.9.4 3.8 1.2 5.7 1.5 3.5.6 7.2-.6 9.9-2.8" class="b"/><path d="M13.4 136.4c2-.4 4 .3 5.8.4 3.6 0 7.1 1.3 10.7 2l6.5 1q2.5 0 5 .6c7 2.4 11.5 8.1 18.9 2.7q7.7-6.1 16.4-10.9c5.6-3 9.9-4.4 15.6-.6a39 39 0 0 0 6.6 3.2c2.3 1 4.8 1.8 7.4 1.6 2.8-.2 5.3-2 8.2-2.1 2.5-.2 4.9 1 7.4 1q2.4-.2 5-.8c3.5-.4 6.1 2.7 9 4.4q3.8 3.1 8.2 5.5c1.7 1.1 3.6 2.4 5.7 2.8 3 .5 6-.6 9-.5 2.9 0 5.6 1 8.3 1.8 4.3 1.2 8.7-1.1 11.5-4.4" class="b"/><path d="M13.4 133c1.6-.4 3.4 0 5 .3 3.6.6 7.1 2 10.6 3q3.7 1 7.4 1.1c1.6.1 3.4 0 5 .5 7 1.9 10.4 7.6 18 2.6q3.9-2.5 7.4-5.2 3.7-2.1 7.4-4.4c6.6-4.2 10.4-6.3 17.3-1 4.3 3 9.4 5.8 14.8 5.4 2.8-.2 5.3-1.8 8.2-1.9 2.4 0 5 .8 7.4.6 1.9-.2 3.8-1 5.7-1 2-.1 4 1 5.8 2q1.7 1 3.3 2.2a52 52 0 0 0 13.1 8c3 .5 6-.3 9 .1 2.8.3 5.5 1.5 8.3 2.1 4.9 1.2 8.8-2 11.5-5.9" class="b"/><path d="M13.4 130.2c4.4-.5 8.5 1.8 12.4 3.4q4.3 1.9 9 2c3-.1 6.2-.7 9 .6 6.3 3.4 8.7 5.5 15.7 1.6l7.3-4.4c1.9-1 4-1.5 5.8-2.4 3.2-1.4 6.3-3.5 9.8-4.3 5-1.1 8.9 3.1 13.2 4.7A26 26 0 0 0 107 134c2 0 3.8-.8 5.7-1.2 3.3-.4 6.7.5 9.9-.3 2.1-.5 4.3-1.5 6.6-1.1 1.4.1 2.8.9 4 1.6 2.8 1.2 5.1 3.3 7.5 5.1 9.7 7 8.8 4.2 18.9 6q3.3 1 6.5 2c5.8 1.6 9.5-2.4 12.4-6.9" class="b"/><path d="M13.4 128.5c3.3-.6 6.4 1.1 9 2.7 2.6 1.4 5.4 3 8.3 3.4q3 .5 5.7-.2c1.9-.4 4-.8 5.8-.4s3.3 1.6 5 2.4c3.6 2 7.9 1 11.4-.8q3.8-1.7 7.4-3.5 3.2-1.3 6.6-2.4c3.7-1.3 7.5-3.3 11.5-3.1 2.6.1 5 1.4 7.4 2.2q4.8 1.5 9.8 2.8 3.7.8 7.4.7c1.7 0 3.4-.5 5-.5 2.4-.1 5 .1 7.3-.4q2.6-.7 5-1.6c2.5-1 5-.2 7.4 1 4.5 1.9 8 5.6 12.3 8 4.4 2.8 10 2.2 14.8 4 9.2 3.8 12.7 3 18-5.6" class="b"/><path d="M13.4 127.6c3.4-.6 6.4 1.6 9 3.3q3.1 2.1 6.6 3.5c3.9 1.5 7 0 10.7-1 6.6-1 6 4.5 16.5.5 4.7-1.8 9.2-4.1 14-6 4.3-1.9 9-4.5 13.9-3.2 2.3.6 4.3 2.2 6.6 3 2 .6 4.4.5 6.5 1.1a51 51 0 0 0 16.5 2c2.7 0 5.6 0 8.2-1 2.3-1 4.7-2.6 7.4-2.3q2 .4 4 1.3 2.3.8 4.2 1.8 4.2 2.7 8.2 5.6c4.5 2.9 10 3.1 14.8 5.3 9 4 12.8 2.5 18-5.8" class="b"/><path d="M13.4 127.5c5.9-1.4 12.8 8.2 19.8 8 2.9 0 5.4-1.9 8.2-2.4 1.6-.3 3.3.3 5 .5q2.8 0 5.7-1c8.2-2.6 15.4-8 23.8-10 5.4-1.6 8.7-1.3 13.1 2.4q1.6 1 3.3 1.5 2.5 0 5 .4c4.3 1.1 8.6 2.4 13 2.6 3.4 0 6.8 1 10-.4 2.2-.8 4.2-2.4 6.5-3s4.5.3 6.6 1q4.4 1.2 8.2 3.6 3.6 2.7 7.4 4.8c3.2 1.4 6.6 2.4 9.8 3.9 9.5 4.4 13.5 4.3 19.8-4.6" class="b"/><path d="M13.4 127.7c6-2 14.2 8.3 20.6 8 2.6-.2 5-2 7.4-2.9 2-.8 4.4-.6 6.5-1.3q4.3-1.3 8.3-3.3c3.8-2 7.4-4.3 11.5-5.8q4.7-1.8 9.8-2c2.4-.3 5-.9 7.4 0 3.5 1.3 5.7 5.2 9.9 4.4 2.2 0 4.4 1 6.5 1.6q3.3 1 6.6 1.3 2 .2 4.1.5c2.4.5 5 1 7.4 0 2.9-1 5.1-3.6 8.2-3.8 2.3-.2 4.5.7 6.6 1.3q3.8 1 7.4 2.8c2.5 1.4 4.9 3.2 7.4 4.6q5.2 2.8 10.7 5.4c8.4 4.1 12.8 2.9 18.9-4.2" class="b"/><path d="M13.4 128c4-2.1 8.2 1 11.5 2.8 2.9 1.7 5.6 4.2 9 4.3 2.5-.2 4.7-1.7 6.6-3q2.3-1.5 5-2.2c3.5-1.5 7.3-2.7 10.7-4.6 4.4-2.4 8.8-5.4 14-6.1 2-.3 4.3-.1 6.5-.2 2.2 0 4.4-.4 6.6-.4 3.3 0 5.3 3.2 8.2 4.4 1.5.5 3.3-.1 5 .2l4 1.5q2.9.9 5.8 1.2 2.4.2 5 .6c2.6.8 5.5 1.6 8.1.3 2.8-1.1 5-3.7 8.2-3.8 2.6-.1 5 1 7.4 1.6q3.4.8 6.6 2.1c2.9 1.3 5.5 3.3 8.2 5 4 2.3 8 4.9 12.3 6.7 7 2.6 11.4.2 16.5-4.6" class="b"/><path d="M13.4 128c6.4-4.5 13 4 19 5.5 4.3.8 7.2-3.4 10.6-5.3 3.7-2 7.7-3.4 11.5-5 3.9-1.7 7.5-4 11.5-5.3 2.7-.9 5.5-.5 8.2-.3q3.8 0 7.4-.3c4-.3 6 2.3 9 4 1.6.8 3.4.2 5 .4l5 1.5c3.7 1 7.7.7 11.4 1.9q4.3 1.5 8.3-.4c4.3-2.8 7.2-3.8 12.3-2 3.1 1.3 6.6 2 9.8 3 7 3 12.6 8.8 19.8 11.4 6 2 11.7-.1 16.4-4" class="b"/><path d="M13.4 127.4a8 8 0 0 1 7.4-1.6c4.2 1 7.4 4.5 11.5 5.5 5 .7 7.5-5 11.5-6.8a50 50 0 0 1 9-4q4.2-1.6 8.3-3.4c4.1-1.8 7.1-2 11.5-.9 2.7.5 5.5-.3 8.2-.3 3.5-.3 6.2 1.7 9 3.3 1.8 1 4 .7 5.8 1.5 4.2 1.5 8.7 1.6 13.1 2 2.8.3 5.5 1.5 8.3 1.2 2-.3 3.8-1.3 5.7-2q3.2-1 6.6-.6c2.8.5 5.4 2 8.2 2.6 3 .7 6.3.8 9 2.4 5.2 2.6 9.4 7 14.8 8.9 5.9 1.9 12.4-.2 17.3-3.6" class="b"/><path d="M13.4 125.6c5.5-4.1 9.6-2.4 14.8 1 8.3 6 9.4-2.2 15.6-5.5q3.3-1.8 6.6-3.3 3.2-1.3 6.6-2.2c3.6-1.2 7.6-2.8 11.5-1.7q2 .8 4 1.2c1.7.3 3.4-.2 5-.4q3-.5 5.8.1c2 .5 3.8 1.5 5.7 2.2l5.8 1.6c2.6 1 5.2 2.6 8.2 2.6q3.2 0 6.6.2c2.1.1 4.3.7 6.5.7q2.1-.2 4.1-.7l5-.6q3-.2 5.7.7c2.2.7 4.3 1.8 6.6 2.3q2.8.6 5.7.7 2.6.2 5 1.3c4.3 2 7.8 5.5 12.3 7.1 6.1 2 12.9-.4 18-3.7" class="b"/><path d="M13.4 122.6c5-2.9 8-2.9 13.2-.3 2.2 1.1 4.1 3 6.5 3.6 4.3.4 6.4-5.7 10-7.5 3.3-2 6.8-4.1 10.6-5.1 4.3-1 8.8-2.6 13.1-1.2 1.7.5 3.3 1.4 5 1.8 1.6.4 3.3-.3 4.9-.7q2.8-.6 5.7.1 4.1 1.4 8.3 2.6c1.5.5 3.3.6 4.9 1.1 2.3.7 4.2 2.4 6.6 3 2 .4 4.4 0 6.5 0q3.3.1 6.6.4l4.1-.3c3.6 0 7.2.1 10.7 1.1 3 .9 5.9 2.4 9 2.8 2.2.4 4.4 0 6.6.2 2.6.1 5.2 1.3 7.4 2.7 2.6 1.5 5.2 3.4 8.2 4 6.2 1.2 12.3-1.5 17.3-5" class="b"/><path d="M13.4 118.5c4-.8 8.4-1.3 12.4.1 6.5 2.7 8.2 7.7 14 0 2.7-3.4 6.8-5.5 10.6-7.3q2.8-1 5.8-1.3 3.7-.7 7.3 0c3 .4 5.4 2.5 8.3 2.8 1.3 0 2.8-.8 4-1.1 2.8-.9 5.7-.1 8.3.9 2.2.7 4.3 1.8 6.6 2.3q2.8.1 5.7.7c3.3 1.1 6.1 4.1 9.9 3.6s7.7-.2 11.5-.2q4.5.3 9 1.2c4.2.7 8.1 2.6 12.3 3 3.6.5 7.2-.4 10.7.6s6.4 3.3 9.9 4.3c3.7 1.1 7.9.5 11.5-.9 2.6-1 5-3 7.4-4.5" class="b"/><path d="M13.4 113.6q2.9.6 5.8.7c3 0 6.3-.2 9 1.4q2.4 1.6 5 3c3.7 1.7 6-2.5 8.2-4.7q2.6-2.6 5.7-4.3 4.6-2.5 9.9-2c3.8-.1 7.3 1.2 10.7 2.9q2.8 1.5 5.7.1c4.5-2.2 8.2-.6 12.3 1.3a12 12 0 0 0 5 1.7c3 .3 6.3.4 9 2.1 1.5.9 3.2 2 5 2.3 1.8.4 3.8 0 5.7 0q3-.3 5.7 0c3.9.2 7.7 1.3 11.5 1.8 3.9.5 7.7 1.5 11.5 1.8 3.6.3 7.2-.3 10.7.6 3.4.7 6.5 2.7 9.9 3.5 3.8.8 8 .3 11.5-1.3 2.6-1.1 5-3 7.4-4.6" class="b"/><path d="M13.4 107.8q2.8 1.2 5.8 1.6c2.7 0 5.6-.2 8.2 1 2 .8 3.8 2.4 5.8 3.5 3.7 2 5.9-.5 8.2-3.1q2.7-3.1 6.5-4.9 3.7-1.3 7.4-.6c3.8.4 7.3 2 10.7 3.7 1.8.9 4 1.5 5.8.6 4.4-2.3 7-2.3 11.5 0 1.8 1 3.6 2.3 5.7 2.5 3 .6 6.2.9 9 2 2.5 1.1 4.7 3 7.5 3.4 3.8.4 7.7-.5 11.5.1 2.4.5 4.9 1.2 7.3 1.3h8.3q4.9.1 9.8.8 3.4.2 6.6.8c4.4.8 8.6 3 13.1 3.2 7.8.3 10.4-2.4 16.5-6" class="b"/><path d="M13.4 102.2q2.8.9 5.8 1.5 3.3-.1 6.6.6c3.6.8 6.3 3.6 9.8 4.7 2.7.7 4.9-1 6.6-2.8q1.8-1.8 4.1-3a10 10 0 0 1 7.4-.8c2.9.7 5.6 2.2 8.2 3.6 2 1.1 4.2 2.5 6.6 2.8 2.4.1 4.3-1.7 6.5-2.3 2.5-.9 5.2 0 7.4 1.3 1.6.9 3.2 2 5 2.5 3.3.8 6.7 1.5 9.8 3 2.7 1.3 5.2 3.4 8.2 3.8 3.3.3 6.6-.3 10 0 1.5.1 3.2.7 4.8.8 3.7.3 7.2-1.1 10.7-1.8 4.4-1 8.9.4 13.2 1.4 8 1.9 16.3 4.8 24.6 3.1 3.7-.8 6.7-3.3 9.9-5.1" class="b"/><path d="M13.4 97.7q3.3.6 6.6 1 5.1.1 9.9 2c3.8 1.3 8.3 4 12.3 1.5q2.2-1.6 5-2.6 5.2-1.5 9.8 1.8c3.4 2.2 6.5 5.5 10.7 6.3 1.7.2 3.4-.8 4.9-1.7 2-1.1 4.3-1.9 6.6-1.2 2.4.7 4.3 2.5 6.5 3.5q3.8 1.2 7.4 2.6c4.2 1.7 7.7 5.2 12.3 5.6 3 .3 6 0 9 0 2.5 0 5.1.4 7.5-.6 3.9-1.3 7.3-4.3 11.5-4.5 2.5 0 5 1 7.4 2 3.5 1.4 7 3.3 10.6 4.2q4 .6 8.3.6 4.1.5 8.2.2c4.2-.4 7.2-3.6 10.7-5.7" class="b"/><path d="M13.4 94.8c7.6-.8 15 1.3 22.2 2.8 3 .5 6.1 1.4 9 .5 3.5-1.3 7.5-2.5 10.7 0 4.2 2.5 8.7 9.7 14 8.5 1.7-.6 3.3-1.8 5-2.6 3-1.6 6.4-.4 9 1.6 2.7 1.9 6.1 2.6 9 4.3 3.3 1.6 6.3 4 9.9 4.8 4.3 1 8.8.6 13.1 0 7.4-.6 12-10 19.7-8.3 2.1.6 4 1.9 5.8 3l4.1 2.5c2.5 1.7 5.1 3.6 8.2 4 3.6.2 7.2-.6 10.7 0 6.3 1.4 10-3.1 14.8-6.2" class="b"/><path d="M13.4 93.8c4.7-2.4 10-1.4 14.8-.4 4.4.8 8.9 1.2 13.2 2.4q2 .5 4 .5c3-.9 6.1-2.4 9.1-1 5.1 2.4 8.2 10 14 10.6 2.1-.1 3.9-1.8 5.7-2.7 3.2-1.8 6.3-.8 9 1.2 1.8 1.3 4 2.2 5.8 3.2 4.4 2.5 8.9 5.3 14 5.3 8.7.2 13.2-.8 19.7-6.8 4.3-3.8 10.2-7.4 15.6-3.4q3.8 2.6 7.4 5.7c2.5 2 4.9 4.8 8.2 5.4 3.3.4 6.6-1 9.9-.6 5.9 1.1 10-3.8 14.8-6.3" class="b"/><path d="M13.4 94.5c6.2-5.6 11-3 18.1-1.3q2.8.7 5.8 1.3 4.1.1 8.2.8c1.4.2 2.8-.6 4-1.2q5.3-2.3 9.1 2c3 2.8 5.2 7 9 8.7 1.8.7 3.5-.4 5-1.2 2.4-1.6 5.5-2.8 8.2-1.4 2.5 1.4 4.9 3.2 7.4 4.5 2.3 1.4 4.7 2.8 7.4 3.2q4.1.7 8.2.1c4-.4 8-1.3 11.5-3.5 3.8-2.3 6.9-5.8 10.7-8 3.4-2 7.7-3.3 11.5-1.7q4.6 2.6 8.2 6.5c3.1 3.2 5.9 7.9 10.7 8.3 2 .1 3.9-.6 5.8-.9s3.9-.2 5.7-.7c3.9-1.3 7-4.2 10.7-5.7" class="b"/><path d="M13.4 96.6c6.3-7 9.3-6 17.3-2.8 2.9 1 5.9 2.9 9 2.1q2-.5 4.1-.8 2.1 0 4.1-.4 1.8-.8 3.3-1.9c2-1 4.7-1.4 6.6.1 3.8 2.6 7.3 12 12.3 11 2.3-.6 4.3-2.1 6.6-2.6 3.1-.6 5.8 1.7 8.2 3.3 2.7 1.7 5.8 3.4 9 3.5q3.8 0 7.4-.9a48 48 0 0 0 6.6-1.7c6.8-2.3 11.7-8.2 18-11.2 3.7-1.4 7.7-2.4 11.6-2 5.2.8 8.5 5.6 11.5 9.5 3.5 4.5 6.7 9 13.1 6.7 2.5-.9 5.1-1.2 7.4-2.4 3-1.3 5.8-3.3 9-4" class="b"/><path d="M13.4 99.2c2.7-2.4 5.2-6.1 9-6.5 3 0 5.7 1.5 8.3 2.7 2.1.9 4.3 2.3 6.6 2.6 3.3.2 6-2.4 9-3.3q1.6-.5 3.3-1.1c1.7-1.3 3.5-2.9 5.7-3.2 4.6-.3 7.3 6.9 10 9.8 2.2 2.8 3.9 3.6 7.3 2 9.4-4 10 4.7 19.7 4q4.7-.8 9-2.3a39 39 0 0 0 10-4.2c4.2-2.6 8.2-6 13-7.5q3.7-.9 7.4-1.6 3-.6 5.8-1.2c6.8-1.8 10.6 5.4 14 10 2 2.8 4.4 6.5 8.2 6.9 2.3.1 4.5-1 6.6-1.8 4-1.5 7.8-4.2 12.3-4.4" class="b"/><path d="M13.4 101.3c2.6-1.8 4.8-4.3 7.4-6s5.7-.5 8.2.5q3.3 1.5 6.6 2.6c3.8 1.3 7-1.8 9.9-3.7q2-1.1 4-1.8Q51 92 52 91c9.4-8.2 10.7 11 18.1 11 2.4-.4 5-1.4 7.4-1 2 .3 4 1.5 5.8 2.3 3.9 2 8.4.4 12.3-.7q6.3-2.1 12.3-5c3.6-1.7 6.9-4.3 10.7-5.5s7.6-1.7 11.5-2a29 29 0 0 0 8.2-2.1c1.8-.7 3.8-1.6 5.8-1.4 3.8 1.1 6 5 8.2 8 2.4 3.2 5 9 9.8 8.5 5.5-1.3 10.6-5.7 16.5-4.6" class="b"/><path d="M13.4 101.7a18 18 0 0 0 6.6-4c2.2-2.2 5.4-2.5 8.2-1.8q3.8.8 7.4 1.8c3.4.8 6.5-1.4 9-3.3 2-1.7 4.8-2 6.6-3.7 7-7.8 10.3 1 14 6.5s5.3 3 10.7 3.3c5.6.6 7 3.3 13.1.7 3-1.2 6.1-1.9 9-3 6.6-2.5 13-5.3 19.8-7.2q4.5-1 9-1.2c4 0 8-.3 11.5-2.1 2.7-1 5.2-3.3 8.2-3.2 6.6 1.4 9 12 14.8 14.8 1.6.6 3.5 0 5-.7l4.9-1.7q3.7-1 7.4 0" class="b"/><path d="M13.4 100.4c7.9 0 6.6-6.6 19-4.8 4.2.7 6 1.1 9.8-1.2q2-1.3 4.1-2.4l3.3-1.5c1.2-.8 2.1-2.2 3.3-3 1.6-1 4-1.6 5.7-.5 4.1 3 5.3 8.5 9 11.8 1.4 1.2 3.3 1 5 .9 3.6-.3 7.2 1.2 10.7.4 2.6-.7 4.8-2.6 7.4-3.5q2.8-.9 5.7-1.5l6.6-2.3c2.6-.8 5.5-.9 8.2-1.2q3.8-.4 7.4-1.3c7.5-1.5 14.3 1 21.4-3.4 6-3.2 9.1-7.5 14.8-.4 2.8 3 5.7 10.2 10.6 9.6 5-1.2 8-2.4 13.2-.5" class="b"/><path d="M13.4 98.4c3.6 1.2 6.1-.5 9-2.3Q26 94.2 30 94c6.1-.6 7 1.3 13.1-2.2 1.8-1 4-1.8 5.8-3 2.8-2.1 5-4.8 9-2.9 5 2.6 6.9 12 12.3 12.9 3.6-.2 7.3.5 10.7-.6 3.4-1 5.8-4 9-5.5 2-1 4.5-1 6.6-1.4 2.2-.5 4.4-1.3 6.6-1.5 3.3-.3 6.6.7 9.8.7 2.5.2 5-.6 7.4-1 8.7-.4 12.4 3.2 20.6-2.9l6.5-4.2c4.6-3.2 7.8-1 10.7 3 2.4 2.8 4.3 7.2 8.2 8q3 0 5.8-.4 3.4.1 6.6 1.1" class="b"/><path d="M13.4 96.1q3.8 1.7 7.4 0c3-1.4 6-3 9-4 2.4-.8 5-.7 7.5-.9q2.6-.6 4.9-1.9 3.3-1.4 6.6-3.3c2.2-2.2 5.5-2.1 8.2-.8 5.8 2.6 8.2 13.2 14.8 12.3 2.8-.2 5.7-.4 8.2-1.9 4.1-2.5 7.3-6.9 12.3-7.9q2-.2 4.1-.3 3.3-.7 6.6-.4c3.6.6 7 2 10.7 2 2.7.1 5.4-1 8.2-.6 4.9.6 10 3.5 14.8 1.5 2.9-1.3 5-3.8 7.4-5.7 6.6-4.3 10.5-9.1 16.4-.5 2.2 2.7 3.8 6.7 7.4 7.7 1.8.4 3.9.1 5.7.2q2.6.2 5 .9" class="b"/><path d="M13.4 94.2q3.2 1.5 6.6 1c4.4-1.6 8-5 12.3-6.3 1.9-.6 4-.5 5.8-1.2 2.2-.7 4.3-2 6.5-2.8q2.1-.6 4.2-1.6c2.5-.6 5 .4 7.4 1.4C61.8 87 65.4 96.2 70.9 96c4.2-.1 7.8-2.4 10.7-5.2q4.7-4.2 10.7-6.4 5-1 9.9.3c2.4.6 4.9 1.5 7.4 1.8q3.3.5 6.5 0 1.6-.5 3.3-.5 2.6.1 5 1.1c4.8 2 10.8 5.2 15.5 1.3 1.8-1.4 3.3-3.4 5-5q3.3-3 7.4-5.1c5.1-3 8 .8 10.6 4.9 1.7 2.3 3 5.4 5.8 6.6q2.4.8 5 .6 2.4 0 4.9.5" class="b"/><path d="M13.4 93c2 .8 4.5 1.3 6.6.6 4-1.7 6.9-5.3 10.7-7.3q2.7-1.5 5.7-1.7 2.6-.6 5-1.5 2-.3 4-.7c2.4-1.3 5.2-.3 7.5.6 12.4 4.2 13.5 18.7 27 5.8q2.3-2.1 5-3.2l5-1.6c2-1 4.1-2.3 6.5-2s5 1.2 7.4 1.8c4 1.2 8.3.8 12.3-.2 3.3-1.1 6.1-.2 9 1.4 5.2 2.7 11.2 6.9 16.5 2 1.7-1.6 3.2-3.7 5-5.4 2.7-2.5 6-5 9.8-5.7 2.8-.5 5 1.8 6.5 4 2.1 2.7 3.5 6.5 6.6 8.3 2.8 1.4 6 .6 9 1.1" class="b"/><path d="M13.4 92.3c4 1.5 7.2-.2 9.9-3 2.8-2.6 5.4-5.8 9-7.2 2.1-.8 4.4-.6 6.6-1 1.6 0 3.4.2 5-.3 1.8-.9 3.9-.2 5.7.4q5.2 2.2 9.8 5.2c3.4 2 7.4 5.7 11.5 5.3 4-.8 6.4-4.7 10-6.6q2.3-1.1 4.8-.3 2 .5 4.1 0c2-.6 3.7-2 5.8-2.3 2.7-.2 5.5.6 8.2.7 4 .2 7.8-.8 11.5-2 3.8-1.4 6.4-.6 9.9 1.2 4.8 2.2 10 7.6 15.6 4.3 2.3-1.4 3.9-3.8 5.7-5.7 3.2-3.3 7.6-6.3 12.4-6.2 2.5.3 4.3 2.4 5.7 4.4 2.4 3.3 4.5 8 9 8.5l5 .1" class="b"/><path d="M13.4 91.7C22.4 94 25 78.8 34 79c2.2 0 4.4.6 6.5.6q1.3-.1 2.5-.4 2.2-.1 4.1.7c3 1 5.5 3 8.2 4.5q5.4 3.2 11.5 4.5c4 1.1 6.3-.7 9-3.2 1.4-1.1 3.1-2.5 5-2.5 2.2.2 3.8 2 5.8 2.8 4.7 2.1 7-1.8 11.5-2.3q5.5-.5 10.6-2.3c3.3-1.1 6.4-3.1 9.9-3.1 5.4.7 10.2 3.5 14.8 6.2a8 8 0 0 0 8.2.4q2.3-1.6 4.1-3.9c2.1-2.3 4.5-4.6 7.4-5.8 15.6-6.1 12.2 12.6 25.5 11.2" class="b"/><path d="M13.4 90.9c7.7.6 9.8-11.6 16.5-13.8 2.7-.8 5.5.7 8.2 1 1 .2 2.2-.2 3.3-.3q1.6 0 3.3.6c2.5.8 4.5 2.7 6.5 4.3 4.5 3.9 10 4.5 15.6 4 6.7.3 8.5-6.4 13.2-4.9 2.3 1.2 4.2 3.3 6.6 4.5 4.2 2.2 6.9-.3 10.6-2q2.5-.8 5-1.7 3.4-1.4 6.5-3.2c2.3-1.3 4.7-3 7.4-3 3.4.2 6.6 1.5 9.9 2.2q3 .8 5.7 2.2c2 1.2 4.2 2.5 6.6 2.6 5.6.3 8-5.8 12.3-8.2a16 16 0 0 1 11.5-1.8 13 13 0 0 1 5.8 4c2.8 3.2 5.8 7.6 10.7 7.2" class="b"/><path d="M13.4 89.6c7.3-.6 8.6-13.2 15.7-14.4 2.2-.1 4.3 1.2 6.5 1.6q1.6.4 3.3 0 1.6 0 3.3.3c6 1.4 8.3 9.4 14.8 10 2.8.2 5.6-.7 8.2-1.6q3-.8 5.8-2.3c1.6-1 3-2.6 4.9-3.4 1.8-.7 3.6.4 5 1.6l3.2 2.5c4.6 3.5 7.5 3.2 12.3.3 2.5-1.3 5.2-2.3 7.4-3.9 2.8-1.6 5.3-3.8 8.2-5 2.7-1 5.6.2 8.3.6q7.3 1 14 4c8.7 3.9 10-2.4 16.4-6.1 4.2-2.1 9.6-2.4 14-.5 5.2 2 8.3 9.1 13.9 9.4" class="b"/><path d="M13.4 87.7c6.7-1.2 8-14 14.8-14 2.3.2 4.3 2 6.6 2.3 1.9 0 3.9-.3 5.8.1 9.4 1.6 8.4 17.9 23.8 9 2.8-1.8 5.8-3.4 8.2-5.8 2-1.9 4.1-3.2 6.6-1q2.6 2.2 5.7 4c1.9 1.4 4.2 2.5 6.6 2.3 2-.3 4-1.6 5.7-2.6q3-1.5 5.8-3.6c2.8-1.8 5.6-4.4 9-4.9q2.4 0 5 .4l4.9.1q4.2 0 8.2 1.8c3.3 1.7 6.9 3.8 10.7 2.8 3.4-1.2 5.8-4.2 9-5.9 5-2.6 11.4-2.2 16.4.2 2.5 1 4.7 2.9 6.6 4.6 1.7 1.4 3.5 3 5.8 3.2" class="b"/><path d="M13.4 85.6c6.4-1.1 8-14.8 14.8-13 2 .6 3.7 2.2 5.8 2.6 1.6 0 3.3-.3 5-.1 7.5-.4 8.3 9.6 14.7 11.7 4 1 8.3-1 11.5-3.3l5-4c1.6-1.5 3-3.5 4.9-4.8 2.9-1.7 5 2 7.4 3.2 1.2.8 2.8 1.4 4 2q2.3 1.6 5 1.5c1.8-.2 3.4-1.2 5-2 2.7-1.6 5.3-3.6 8.1-5.1q2-1.1 4.2-1.9a18 18 0 0 1 4.9-.3c2.5.2 5-.5 7.4-.9q3.7-.6 7.4.4c2.7.7 4.7 3 7.4 4 3.6 1.4 6.8-.1 9.8-2.2 7.4-5.3 15.3-4.2 23-.3 2 1 3.9 2.6 5.8 4 1.1.7 2.6 1.6 4 1.7" class="b"/><path d="M13.4 82.7c6.2-.4 8.3-13.6 14.8-11 6 3.3 4.2 2.4 10.7 2 6.3-1 7.9 5.7 11.5 9.3 3 3.3 7.8 1.8 11.5.6 3.5-1.4 6.5-4 9-6.9 1.6-1.7 3-4 5-5.4 2.5-1.5 5.3 2.1 7.4 3.3q2 1.1 4 1.6 2.5.8 5 .1c4.3-1.8 8.6-4 13.2-5.2 4-1 8.4-.4 12.3-2 4.5-1.6 8.8-2 13.1.6 1.7 1 3.2 2.5 5 3.3 2.9 1.4 6.2.5 9-1 2.3-1 4.8-2.4 7.4-2.8a29 29 0 0 1 16.4 3l5 3c1.4.9 3 1.9 4.9 1.7" class="b"/><path d="M13.4 78.6c5 0 7.7-6.9 12.4-8.1 3.8-.6 5.6 3.4 9.8 1.7 3.2-.8 7.4-2 9.9 1 2.3 2.5 3.7 6 6.5 7.8 2 1.1 4.5.6 6.6.3q3.5-.4 6.6-1.8 3.8-2.2 6.6-5.7c1.5-1.9 2.9-4.3 4.9-5.7 3.2-1.8 7 3.8 10.7 3.8q3.4.4 6.5-1.1 2.4-1 5-1.1 6-.9 12.3-1a24 24 0 0 0 7.4-2.2c4-2 7.8-.5 11.5 1.5 2.4 1.3 4.5 3.5 7.4 4 5.5 1.2 10.2-3.3 15.6-3.4 5.3-.3 10.6 1.5 15.6 3.2 3.2 1.3 6.3 4.2 9.9 3.2" class="b"/><path d="M13.4 72.7c2.1.1 4-1 5.8-2l4.1-1.5q3.3-1 6.6.2c1.2.4 2.7.9 4 .5q2.1-.9 4.2-1c2.8-.1 6.1-.7 8.2 1.6 2.2 2.1 3.5 5.6 6.6 6.7 1.3.3 2.8 0 4 0 2.2-.2 4.5.2 6.7-.3 5-1.2 8.5-5.5 11.5-9.5 3.5-5 6.3-2 10.6-.3q3 .8 5.8.4 2.4-.5 5-.6c4.8-.2 9.8.3 14.7.2 5.9-.5 7.7-5.1 14-2 7.3 3 8.4 7.9 17.2 5.9 2.5-.5 5-1.6 7.4-2.2 6.1-1.1 12.2 1 18 2.3 3.6 1 7.1 3.4 10.8 1.5" class="b"/><path d="M13.4 66.6c2-.2 3.9-1.4 5.8-2 3.8-.7 7.8.4 11.5 1.5q1.6.5 3.3.3 2.4-.8 5-.4l3.2.5c1.7 0 3.6.1 5 1.3 2.1 1.7 3.4 5.3 6.5 5.5 1.3 0 2.8-.6 4.1-.8 2.2-.2 4.4.9 6.6.8 5-.6 8.4-5.3 11.5-9 3.6-4.7 7.8-.8 12.3-.1q3.2.5 6.6.3l5.7.2c3.3.2 6.6 1 9.9 1.1 9.5-.1 5.8-6.7 19.7 2.1 1.5 1 3.1 2.3 5 2.7 3.2.6 6.6-.3 9.8-.8 2.1-.4 4.4-1.2 6.6-1.3 5-.2 9.9.7 14.7 1.5 5 .7 7.3 2.7 12.4-.2" class="b"/><path d="M13.4 61.8c2-.8 3.8-2.2 5.8-2.8q2.5-.4 5 .5 3.6 1.4 7.3 2.6 1.6.5 3.3.4 1.3-.2 2.5 0c1.6.3 3.2 1.3 4.9 1.7 4.2.6 5-.4 8.2 3.2 3.8 4.6 5.4.7 9.9 1.2 1.3.1 2.8.7 4 1 4.2 1.3 7.4-2.5 10-5.2 1.7-2 3.6-4.6 6.5-4.3 3.1 0 6 1.5 9 2 3.3.5 6.7 0 10 .6 5 .5 10.3 2.6 15.5 1.3 2.7-.7 5.7 0 8.2 1q4.2 1.6 8.3 3.7c2.5 1.4 5.4.9 8.2.6l6.5-.5q3-.5 5.8-.6 6.6 0 13.1.3c6 .8 7.5 1.4 13.2-1.8" class="b"/><path d="M13.4 58.5c6.9-5.2 7.8-4.6 15.7-2q4 1.4 8.2 2.2c2 .8 3.6 2.6 5.7 3.3 1.9.7 3.9.2 5.8.4 2.4.6 3.9 3.6 6.5 3.5 1.7-.3 3.3-1.3 5-1.4 2.5-.1 4.9 1.4 7.4 1.8 6.6.6 6.7-7.8 14.7-7.6 2.5 0 5 1 7.4 1.3s5 0 7.4.3c3.6.4 7.1 1.6 10.7 2h5c1 0 2.2-.3 3.2 0 2.5 1 4.9 2.3 7.4 3q5.3 1.7 10.7 2.6 6-.1 12.3.1l6.6-.3q4.5-.2 9-.8c2.2-.3 4.5 0 6.6 0 3.5 0 6.8-1.3 9.9-2.8" class="b"/><path d="M13.4 56.2c6-5.4 8.2-5.5 15.7-3.5 3.3 1 6.9 1.7 9.8 3.6 1.6 1.2 3.1 2.9 5 3.8q2 .7 4 .4c1.8-.4 3.4-.7 5 .3q1.5 1 3.3 1.1c1.4 0 2.8-.8 4-1.1 2.9-1 5.7.4 8.3 1.2q3.1 1 5.8-.7 4-3 9-3.7 2.4.1 5 .3c3.5.1 7.1-.3 10.6.6 3.7 1 7.6 1.8 11.5 1.2 3.5-.5 5.3-1.9 8.2 1 2 1.6 4.1 3.2 6.6 4 4.5 1 9.3 1 14 1.7 3 .1 6 .7 9 .7q3.7 0 7.4-.6l6.6-1.5c2.4-.4 5-.3 7.3-.5q4.7-.7 9-2.4" class="b"/><path d="M13.4 54c3.3-3 7-5.1 11.5-4.5 4.9.5 9.8 1.6 14 4.2 3.6 2.4 5.6 6.6 10.7 5.1 1.6-.4 3.2-1.2 5-.9 3.5 1 5.6-1 9-1.5s6.5 1.7 9.8 2.1q1.7 0 3.3-.4 3-.4 5.8-1.3 3.7-.8 7.3-1.1c8.5-1.1 11 3.2 19.8 1.2q2.8-.6 5.7-1.4c1.6-.3 3 .8 4.1 1.8 6.9 6.3 9.5 5.7 18.1 7.5 4 .5 8.2 1.5 12.3 1.1 4.3-.1 8.3-1.7 12.3-2.6 5.5-1.2 11.2-.5 16.5-2.5" class="b"/><path d="M13.4 51.5c4-3.4 9-4 14-3q6.1.7 11.5 3.6 2.7 1.7 5 4c1 1 2.5 2 4 1.9 3-.2 5.5-1.7 8.3-2.4q2.5-.4 4.9-1.4c2.5-1 5.5-2 8.2-1 2.3.7 4.3 2.3 6.6 2.7 1.3.2 2.8-.4 4.1-.7 3.2-.7 6.5-1.7 9.9-2q2.8-.2 5.7.3c2.2.5 4.4 1.3 6.6 1.5q3.3.1 6.5-.5 3.8-.4 7.4-1.4c3.7-.6 6.4 2.7 9 4.8q3.5 2.8 7.5 4.3 9.2 3.2 18.9 2.3c3.6-.3 7-1.8 10.6-2.5q3.3-.7 6.6-.7c3.3 0 6.7 0 9.9-1.2" class="b"/><path d="M13.4 48.6c5.4-3 11.7-1.7 17.3-.2q5.2 1.3 9.8 3.7 2.2 1.7 4.2 3.5c3.1 2.9 6.4.6 9.8-.5q3.8-1.1 7.4-2.9c2.3-1 4.9-2.1 7.4-1.5 2.2.7 4.3 2 6.6 2.4 2.6.4 4.9-1.4 7.4-1.8q5.7-1.6 11.5-.4c2.4.6 4.8 1.5 7.4 1.5l5.7-.3h5c2.4 0 4.8-1.8 7.3-1 2.3.7 4.1 2.4 5.8 4 4.8 5 7.6 7.4 14.8 8q6 .4 12.3-.3c3.3-.4 6.5-1.5 9.8-1.8q3.3-.3 6.6-.1 4.6.5 9-1.1" class="b"/><path d="M13.4 45.4c2.4-.7 5-.4 7.4-.3 2.8.3 5.6 1.4 8.2 2.3q5.6 1.3 10.7 3.6c1.8 1 3.3 2.6 5 3.9 2.1 1.7 4.1 1.4 6.5.3q2.8-1.2 5.8-2l6.5-2c2.4-.8 5-1.7 7.4-1.7 2.7.2 5.5 1.2 8.3.4 1.7-.3 3.3-1.3 4.9-1.9q4-1.3 8.2-.5c3.3.6 6.5 2 9.9 2q2.8 0 5.7.3c2.4.4 5 1 7.4.5 2-.4 3.7-1.8 5.8-1.6 5.6 1 7.7 8.2 12.3 11q3.1 1.5 6.5 1.7 3-.2 5.8-.3 6.6 0 13.1-.7 4.6-.4 9 0c3.6.4 7.4.8 10.8-1" class="b"/><path d="M13.4 42.4c2.8 0 5.6.7 8.3 1.2 2.5.7 4.9 2 7.4 2.8 3.8 1.4 8.2 2 11.5 4.7 2.4 2 5.5 5.3 9 3.4a42 42 0 0 1 9-3.3l7.4-1.9q2.8-.9 5.8-1.5c3-.5 6 0 9-.8q3.4-1 6.6-2.4c3.8-1.4 7.8 0 11.5 1q3.7.8 7.4 1.5c2.6.7 5.4 1.8 8.2 1.7 2.4 0 4.3-1.7 6.6-2.3 5.8-1 8 7.9 12.3 10.5 2.7 1.6 6 2.1 9 1.4q3.7-.6 7.4-.5c4.1 0 8.2-.2 12.3.2 5.5.2 11.2 3 16.5.5" class="b"/><path d="M13.4 40c2.2.2 4.4 1 6.6 1.5 2.6.5 5 1.8 7.4 2.9 2.6 1.2 5.6 1.5 8.2 2.7 3.8 1.4 5.9 5.6 9.9 6.5 2 .3 4-1 5.7-2q3-1.5 6.6-2.2 4.1-.8 8.2-1.5 3.3-1 6.6-1.9c3.5-.7 7.2-.6 10.7-1.7 5.4-1 7-4.8 13.1-3.2 5.3 1.5 10.2 4.3 15.6 5.4 3.6.8 6-.5 9-2 5.7-2.3 8 5.8 11.6 8.7 5.5 3.9 9.7.8 15.6.5q6-.5 12.3.1c3.6.4 7.2 1.6 10.7 2.5 2.4.6 5 1.3 7.4.7" class="b"/><path d="M13.4 38q3 .5 5.8 1.6c2.8.6 5.5 2 8.2 3.1 2.4 1 5 1.2 7.4 2.3 3.7 1.6 5.7 6.3 9.9 6.7 2.1 0 4-1.4 5.7-2.4q3-1.7 6.6-2.3c3.8-.6 7.7-.4 11.5-1.4 4.8-1.6 9.8-1.9 14.8-2.9q3-.4 5.7-2c1.5-1 3-2.3 5-2.7 3.5-.6 6.7 1.9 9.8 3.3 3.5 1.8 7.5 3.5 11.5 3.1 2-.2 4-1.3 5.8-2 3.1-1.6 5.5.4 7.3 2.8 2.6 3.4 4.4 6.2 9 6.4 3.2.1 6.1-1.4 9.1-2.1a37 37 0 0 1 15.6-1.1c3.5.5 6.8 2 9.9 3.4 2.1 1 4.2 2.4 6.6 2.7" class="b"/><path d="M13.4 36.4c2.9.3 5.5 1.6 8.3 2.4 2.4.8 4.8 2 7.4 2.6 7.7 1.1 6.9 3.6 12.3 7.3 3 1.6 5.8-1 8.2-2.4q2.7-1.5 5.7-2c3.6-.5 7.2-.1 10.7-.4 3-.2 6-1.2 9-1.5 5.7-.8 12-.3 16.5-4.5 6.2-5 10.5 1.3 16.4 3.2 4.6 1.8 8 1.4 12.3-.8 8-3.6 8.8 7 15.7 8 2.8.6 5.6-.7 8.2-1.9a60 60 0 0 1 13.1-4.4c4.5-.3 9.2.8 13.2 3 3 1.8 5.3 4.7 8.2 6.6" class="b"/><path d="M13.4 35q2.6.2 5 1.1L24 38c2.6 1 5.5 1 8.2 1.7 3.9.9 5.5 5.3 9 6.5 5.5.5 6.4-6.4 19-5.1l6.5.3c2 0 4-.5 5.8-.6 3.5-.2 7.1.1 10.7.1q3.4.2 6.6-1.4c3.4-2.2 6.1-5.2 10.6-3.3 3.7 1.6 7.4 3.6 11.5 3.5 2.9 0 5.6-1.1 8.3-2 2.2-.8 4.7-.1 6.5 1.4 1.8 1.4 3.2 3.4 5 4.8q2.1 1.5 4.9 1.7 2.6 0 5-1.1c4-2.1 8-4.8 12.2-6.6a17 17 0 0 1 10.7-1.5c7.6 1 9.8 6.3 14 11.8" class="b"/><path d="M13.4 33.5c2.3.2 4.4 1.1 6.6 1.6q5.3 1.3 10.7 1.5c2.2 0 4.3 1.3 5.7 3 1.7 1.7 4 4 6.6 2.6 2.2-1.2 4.3-2.7 6.6-3.6 5-2.1 10.4-.7 15.6-.3 2.4.3 5-.2 7.4.1 3.3.3 6.6 1.3 9.8 2 12.2 3.6 10.7-7.5 21.4-4q3.7 1 7.4.5c3.8-.4 7.6-2.8 11.5-2 3.5 1 5.5 4.3 8.2 6.4 1.8 1.3 4.4 1.6 6.6 1.7 2.6-.2 5.1-1.5 7.4-2.8 4-2.4 8-5.2 12.3-7.4q4.4-1.8 9-1.5 2.6 0 5 1.3c3.6 2.8 5.2 7.5 7.3 11.4" class="b"/><path d="M13.4 32c2.2.4 4.4 1.2 6.6 1.6q5 .8 9.9 0a7 7 0 0 1 4.9 1.1c2.4 2 4.8 5.2 8.2 3.4 10.2-5 11.2-4.4 22.2-3 3 .4 6.1.2 9 1.2 3.4 1 6.6 2.8 9.9 4.2 2.5 1 5.6 2.5 8.2.8 4.2-3.2 5-7.7 11.5-6.6 5 .9 8.6-1.3 13.2-2.5 2.5-.6 5.3-.1 7.3 1.5 2.3 1.8 4.1 4.3 6.6 5.9 1.7.8 3.9 1 5.8 1.3q3.7 0 7.4-1.3c2.5-1.2 4.9-3 7.3-4.4 2.5-1.4 4.8-3.2 7.4-4.3q5.2-1.8 10.7-2.6c5.3-.4 7.1 7.4 9 11.2" class="b"/><path d="M13.4 30.8c2.5.3 5 1.2 7.4 1.4 3.1.2 6.1-.6 9-1.5 3.3-1 5 .3 7.5 2.3a7 7 0 0 0 7.4 1.2c8.9-3.5 10-3.8 19.7-2.4q3.3.5 6.5.9c5.2 1.1 9.6 4.3 14 7 1.5 1 3.1 2.3 5 2.6 4.1.2 5.5-4.8 8.2-7.2q2-2.1 4.9-2.2c8.3 1 10.7-5 17.2-3.3 4.2 1.4 6.3 6 9.9 8.2q5.1 2.3 10.7 1.5 3.6-.1 6.6-2.4 5.4-3.5 11.5-6.1c2.3-1 5-1.5 7.3-2.4 2-.6 3.8-1.8 5.8-1.9 3.8.4 5.1 5.8 6.6 8.7" class="b"/><path d="M13.4 29.5c2.5.3 5 1 7.4 1a17 17 0 0 0 6.6-1.7c2.3-1 5-2.5 7.4-1 4 2.6 6.3 5.2 11.5 3.6 6.5-2.6 9-4 16.4-3 9.6.9 14.8 3.3 22.2 9.4 1.7 1.3 3.5 3.2 5.8 3.3 5.1-.3 6.3-9.3 12.3-10.1 1.3-.2 2.8 0 4-.3 2.1-.3 4-1.4 5.8-2.4 8.3-4.6 11 4.5 16.5 8.3 3.7 2 8.2 1.9 12.3 1.4 3.4-.2 6-2.8 9-4.3q6.7-3.2 14-5c7.7-2.7 9.3-7.1 14 3" class="b"/><path d="M13.4 28.1c2.5.3 5 1 7.4.6 5.8-.7 9.9-7.2 15.6-2.5 3.7 2.8 7.8 5.3 12.4 2.8 2.8-1.5 5.7-3.2 9-3.7 6.6-1.2 13.1 1 18.9 4 4.7 2.2 8.2 6 12.3 9 4.7 2.7 7.1-4 9.9-6.7 3-3.3 5.2-2.5 9-3.1 2.3-.5 4.3-2 6.6-2.7 6.3-1.8 9 6 13.1 9.2 3.5 2.6 8.3 2 12.3 1.4 1.7-.2 3.5-.2 5-1 2.2-1.1 4.2-2.8 6.5-3.8q4.9-2 9.9-2.8c8.9-1.2 12.1-9.2 17.3 0" class="b"/><path d="M13.4 26.8c9.9 1.5 8.8-1.7 16.5-4.3 4.2-1.2 7.5 2.3 10.6 4.5 3.2 2.3 5.7 3 9 .6 7.6-6 14.2-8.3 23-3.2q3.8 2 7.5 4 3 1.9 5.7 4.2c6.4 6.4 7.7 3.4 12.4-2.4 1.4-1.7 3.4-3.3 5.7-3.5 1.9-.2 4-.1 5.8-.8 4.6-1.8 7.6-2.9 11.5 1.3 2.2 2.3 3.8 5.5 6.5 7.3 4.8 2.5 10-.2 14.8-.8 3-.4 5.5-2.7 8.2-4 3-1.7 6.5-2.2 9.9-2.7q3.8-.4 7.4-2c4.2-1.8 7.4-3 10.7 1.3" class="b"/><path d="M13.4 25.5c9 1 8-1.8 14.8-4.7C38 17.3 41.6 31.6 48 28c2.5-1.5 4.4-4 6.6-5.8 2.6-2.1 5.7-4 9-4.3 4.3-.6 7.6 2 10.7 4.4 3 2 6.2 3.6 9 5.7q2.3 1.4 4.2 3c2 1.9 4.2 3 6.6.8 2.3-2 3.9-5 6.5-6.6 2-1.2 4.4-.8 6.6-.9s4.4-.9 6.6-1.1c2.4-.3 4.9 1 6.5 2.8 3.6 3.5 5.5 9.3 11.5 8.1 2.9-.5 5.5-1.7 8.3-2.6 1.8-.5 4-.5 5.7-1.5 7-4.1 8.1-5 16.4-5.6 5.7-.6 11.4-4.3 16.5.3" class="b"/><path d="M13.4 24c2.8.2 5.9.4 8.3-1.3 3.7-3 8.3-5.7 13.1-3.4 3.3 1.8 5.5 5 8.2 7.4 4 3.5 7.5-2.2 9.9-4.9q3.2-3.9 7.4-6.7c8.2-5 10.8.9 16.4 5.8q3.9 3 8.2 5c1.6 1 3.2 2.3 5 3 4.2.8 6.5-4.8 9.8-6.5 2.3-1.3 5-.5 7.4-.5 5.8-.2 8.7-1.5 13.1 3.3 3.1 3.3 5.2 8.9 10.7 7.3 4-1 7.4-4 11.5-4.4s7-3.4 10.7-4.8c3.4-1.4 7.1-1.3 10.7-1.6 5-.8 10.3-1 14.8 1.7" class="b"/><path d="M13.4 22.4c8.7 1 8-3.3 14.8-5.4 8.4-1.9 10.2 5 15.6 8.9 3.8 2 7-4 9-6.4a56 56 0 0 1 6.6-7.4c2.6-2.3 6.4-4.7 10-3 2.3 1.4 4 4 5.7 6.1q3.8 5.3 9.8 7.7c1.6.6 3.2 1.5 5 1.6 2.5-.3 4.7-1.8 6.5-3.5 3.2-3 6-2 9.9-1.7s8.3-.2 11.5 2.7c1.9 1.5 3.4 3.7 5 5.6 1.7 2.6 4 4.4 7.3 3.3 3.4-1.2 6.4-3.5 9.9-4.7 1.2-.5 2.8-.4 4-.7q2.3-.6 4.2-1.9c4.8-2.9 8.3-4 14-3.8 5.5-.2 11.3.3 16.4 2.6" class="b"/></svg>