<svg xmlns="http://www.w3.org/2000/svg" id="a" width="1920" height="2400" viewBox="0 0 192 240"><defs><style>.b{fill:none;stroke:#fff;stroke-miterlimit:10;stroke-width:.3px}</style></defs><path d="M0 0h192v240H0z" style="stroke-width:0"/><path d="M8 231h6.2c2.8.5 5.9.9 8.7.1q4.3-1.2 8.8-1.7c3.2-.4 6.7-.7 9.6-2.2 2.4-1.5 4.2-4 6.1-6 3.4-3.8 6.6-5.2 11.4-6.4 2-.5 4-1.6 6.1-1.7 4.8 0 7 6.4 10.5 9 1.7 1.3 4 1.6 6.2 1.7q2.6.2 5.2.1c2.2-.2 4.2-1.2 6.1-2.2s4-2.1 6.2-1.4c2.5.8 4.6 3 7 4.1 6 3.1 10.2-2 15.7-3 3.5-.7 7 0 10.5-.7 3.3-.8 6.2-3 9.6-2.8 4 .3 7.3 3.3 10.5 5.4q4.2 2.3 8.8 3 2.8.3 5.3-1.2c1.4-.8 2.8-2.2 4.3-3 4.4-2.5 9 1.2 13.2 2.4" class="b"/><path d="M8 227.8q3.1 0 6.2.7a15 15 0 0 0 7.8.6q4-1 8-1.7c3.2-.3 6.6-.4 9.5-2 2.8-1.6 4.8-4.3 7-6.6 3.1-3.3 6.3-4.3 10.5-5.3 3.4-1 7.2-3.8 10.5-1.5 3.7 2.7 5.4 7.7 9.7 9.4 1.6.5 3.5.3 5.2.2q2.6 0 5.3-.6c3-.8 5.7-2.6 8.7-3.4 4.9-1 8.4 4 13.2 4 4 .1 7.4-2.9 11.3-3.3 3.5-.3 7 .6 10.5.1 2.5-.2 4.7-1.4 7-2 7.8-1.4 10.7 6.3 21 7.1 5.6.8 7.3-3.9 11.4-6 4.8-2 9 2.4 13.2 4" class="b"/><path d="M8 224.8q2.7.1 5.3 1c2.2.9 4.6 1.9 7 1.4 2.7-.4 5.2-1.7 7.9-2.3s6-.1 8.7-1.3c4-1.4 6.4-5.2 9.6-7.7 2.5-2.1 5.8-2.8 8.8-3.7 5-1.9 9.6-5.3 14 0 2.8 3 5.4 8.7 10.5 7.3l7-2q4.2-1.7 8.7-2.4c6.1-.9 10.3 4.5 16.7 2.5 2-.6 4-1.6 6.1-2 4.1-.6 8.1 1.3 12.2 1q3.2 0 6.2-1c4.4-1 7.7.7 11.4 3q3.5 2 7.8 2.6c2 .2 4.3.3 6.2-.5 2.5-1 4.2-3.3 6.1-5 5-5 11 1.1 15.7 3.3" class="b"/><path d="M8 222c2.8.1 5.3 1.7 8 2.7 3 1 6-.6 8.7-1.8q3-1.3 6-1.5c7.3 0 9.6-3.7 15-7.3 3.2-2 7.2-2.3 10.5-4.2 10-5.2 11.3-1.2 17.5 6 2.5 2.6 4.9 2.1 7.9.5q7.7-4.6 16.6-3.1c2.9.5 5.8 1.6 8.7 1.7 3.7.2 7-1.7 10.5-2.2 2.7-.2 5.3 1.1 8 1.7q4.2 1.1 8.7.9c4-.6 7.7-.6 11.4 1.4 1.8 1 4 2.2 6 2.7 3.9.8 8.1.6 11.5-1.5 2.2-1.4 3.9-3.7 6-5.2 5.2-3.2 10.4 2.2 15 4.1" class="b"/><path d="M8 219.5c2.2.2 4.2 1.5 6.2 2.3 4.3 2.2 8.3-1.4 12.2-2.8q3-.9 6.1-1c3.6-.2 6.6-2.3 9.7-4 2.7-1.5 5.8-2.2 8.7-3.3 2.7-1.1 5.2-2.9 7.9-3.9 7.2-3 10 1.4 14 6.5 3.3 4 5.4 3.9 9.6 1.4q4-2.7 8.8-2.4 4.8 0 9.6.4 4 .3 7.9-.5c2.3-.5 4.6-1.4 7-1.7q2.8-.2 5.2 1.2 3 1.4 6.2 2.1 3.8.7 7.8 1 5 0 9.7 1.7c2 .8 4 2.1 6.1 2.6 3.9.8 8-.1 11.4-2 2.8-1.4 5-4 7.9-5.3 4.9-1.8 9.6 2 14 3.7" class="b"/><path d="M8 217.4c2.2.1 4.2 1.5 6.2 2.2 3 1.2 6-.5 8.7-2q2.9-1.6 6.1-2.2 2.7-.2 5.3-.6 3-1 6.1-2.3c2.9-1 6-1 8.8-2.4 4.4-2.2 8.7-6 14-5.8 5.7.5 8 6.7 11.4 10.4 2 2.4 4.3 2.1 7 .8 1.6-.8 3.3-1.9 5.2-2.1 3.5-.4 7-.4 10.5-1q4.5-.6 8.8-1.9c2.8-.8 5.7-2 8.7-2 2.2 0 4.3 1 6.1 2q2.5 1.3 5.3 2c4.6 1 9.4 1.6 14 2.7q4.5 1.3 8.7 3.1c3.8 1.5 8 .4 11.4-1.3 12.7-6.6 10-6 23.6-2" class="b"/><path d="M8 215.6c1.9 0 3.6 1 5.3 1.6 3 1.5 6 .1 8.7-1.4a26 26 0 0 1 7-2.5l5.3-.8 6.1-1.7c2.6-.5 5.5-.2 7.9-1.6 6.2-3.7 12.3-8.7 19.3-3.2 3.7 2.6 6.6 12.6 11.3 11.4 2.5-.6 4.6-2.4 7-3.1 2.9-.8 6-1 8.8-1.9 5.6-1.6 10.8-4.8 16.6-5.9 5.1-.9 8.6 2.6 13.1 4 7.7 2 15.4 3.9 22.8 6.7 4 1.7 7.4 1.6 11.4-.2 12.4-6.4 12.8-3.3 25.4-1.7" class="b"/><path d="M8 214c3.1-.4 5.7 2.3 8.8 2.2 3.1-.2 5.8-2.2 8.7-3.1 3.1-1.2 6.5-1.6 9.7-2.4q3.4-1 7-1.3 4.3 0 7.8-2.5c6.9-4.7 12.3-4.8 18.4 1 2.3 2.6 3.9 6 6.1 8.6 2 2.3 4 1.8 6.2.1 1.6-1.1 3.3-2.5 5.2-3.3 4.1-1.6 8.4-2.7 12.3-4.7 4.2-2 8.4-4.5 13.1-4.7 4.8-.2 8.8 3 13.1 4.5l9.7 3.6 11.4 3.7c2 .6 4 1.5 6 1.6 8.3 0 10.9-6.8 21-4 3.8 1 7.7.9 11.5 1.5" class="b"/><path d="M8 212.1c2.9-.3 5.3 1.6 8 2.4 3 .8 5.9-.8 8.7-1.8q5.2-2 10.5-3.3 2.5-.9 5.2-1 2.7.1 5.3-.4c3.9-1.3 7.1-4.4 11.3-4.6 4.7-.3 9.3 2.5 12.3 6 2.3 2.5 3.7 6.6 7 8 2.8.2 5-3.4 7-5 1.7-1.5 4-2.7 6.1-3.6q5.3-2.1 10.5-4.6c4.3-2.1 9.1-4.2 14-3 7.4 1.7 13.2 7 20.1 9.9q5.2 1.8 10.5 3.3c2.9.7 5.9 2 8.8 1.2 5-1.5 8.3-5 14-4.3 2.6.3 5.2 1.1 7.9 1.2 2.9.2 5.9-.5 8.7.2" class="b"/><path d="M8 210c3.6-.5 6.4 2.1 9.7 2.9s6.5-.8 9.6-1.9c3.5-1.2 7-2.7 10.5-3.5 1.7-.4 3.5-.1 5.2 0 4.2-.2 7.5-3.2 11.4-4.1 4.5-1 9.4 0 13.2 2.6 2.8 2.2 4.4 5.7 7 8.2q2.2 2 4.3 0 2.3-2.4 4.4-5 2.7-2.7 6.1-4.3 4-1.6 8-3c2.8-1 5.7-2.4 8.7-3.2 9.4-2.7 15.1 1.4 21.8 7.4 4.4 4 10.1 5.8 15.8 7 6.7 1.9 8 1.4 14-2a13 13 0 0 1 7-1.6c3.2.2 6.4 1.3 9.6 1.3s6.4-1.1 9.7-.8" class="b"/><path d="M8 207.8c9.2-1 8.3 6.9 22.8 1q3-1.2 6.1-2.4c2-.7 4.1-.3 6.2-.1 2.4.1 4.7-1.1 7-2q4.6-2 9.6-2.4c2.6-.3 5.4-.7 7.9.5 3.7 2 5.2 6.6 8.7 8.8 2.2 1 4-1.4 5.3-2.8a36 36 0 0 1 4.3-4.6c3.2-2.8 7.5-3.3 11.4-4 4.1-.9 8.2-2.3 12.3-3.3 15.4-4.2 15 8.5 26.2 13.5q3.8 1.6 8 2.2 2.4.6 5.2.5c2.8-.5 5.2-2.6 7.8-3.9q3.3-1.6 7-1.2c3.2.4 6.4 1.2 9.7 1.2 3.5 0 7-1.1 10.5-1" class="b"/><path d="M8 205.5q3.6-.8 7 .4c3 1.3 6.3 2.6 9.7 2.7q4 .1 7.8-1.4c1.8-.7 3.5-1.8 5.3-2.3 2-.8 4.1-.2 6.1-.1 2.4-.2 4.8-1.2 7-2l7.9-2.8c3.3-1 7-3 10.5-1.7 4.4 1.4 7 12 12.3 7.6 3.2-2.9 5.9-5.9 10.5-6.2 3.4-.4 7-.5 10.5-1.2 3.2-.7 6.4-2 9.6-3.1 15.2-6 13 8.8 24.5 14 3.2 1.5 7 2 10.5 2 3-.6 5.3-2.8 7.9-4.2 2-1.2 4.6-1.9 7-1.6 3.1.2 6.4.9 9.6.7 4-.2 8.2-1 12.3-1" class="b"/><path d="M8 203.4c7.4-2.1 11.6 1.1 18.4 2.5 5.5 1.2 7.6-.8 12.3-2.9 1.6-.6 3.5-.3 5.2-.3q3.1-.4 6.1-1.3c3-1 6-2.7 8.8-4.2 3.9-1.9 8.7-5 13.1-3.1 3.9 1.9 5.7 9.5 10.5 8.6 2.4-.7 4.6-2.1 7-2.5q3.5-.4 7-.4 5.5-.2 10.5-1.9c5.6-1.6 13.1-8.3 18.4-3 3 3 4.9 7.3 7.9 10.4 2.5 2.6 6 4.4 9.6 4.6 1.4 0 3 .3 4.4-.2 4-1.7 7-5.4 11.4-6 3.4-.4 7 .3 10.5 0 2.9-.2 5.8-.9 8.7-1q3-.1 6.1-.2" class="b"/><path d="M8 201.6c6.6-1.6 11.2-2.1 17.5.6 3.4 1.4 7.2 2.8 10.5.6 2.2-1.3 4.4-2.7 7-2.8 2.6-.5 5.5-.2 8-1.4 5.8-3 10.9-7.6 17.4-8.9q4.8-1.5 8 2.2c3.6 4.2 4.9 7.9 11.3 7.5 9.5.6 16.5 1 25.4-3.6 3.2-1.5 6.7-3.7 10.5-3 4.8 1.6 7.2 7 10.5 10.7 3 3.4 7.6 6 12.2 4.6 2.3-.8 4.2-2.4 6.1-3.7q2.5-1.6 5.3-2.3c3.1-.6 6.5-.5 9.6-1 3-.2 5.9-1.2 8.8-1.6 2.6-.3 5.3 0 7.9-.5" class="b"/><path d="M8 200.2c7.3-1.7 13-4 20.2-.3 2.9 1.4 5.8 2.6 8.7.5 2.8-2 5.1-3.8 8.8-3.9q2.2.2 4.3-.7c5.7-2.8 10.5-7.3 16.7-8.9 3.4-1 7.6-2.3 10.5.5 5.2 5.3 6.2 7.6 14 9.3a33 33 0 0 0 20.1-.2c3.2-1 6.3-2.8 9.6-3.3 6.2-1.3 10.2 4.5 14 8.3 3.5 3.3 7.4 6.1 12.3 3.8 2.9-1.4 5.6-3.4 8.7-4.4 4.6-1.3 9.4-1.7 14-3q3-1 6.2-1.6 4-.2 7.8-.8" class="b"/><path d="M8 198.8c5-1 9.8-3 15-3 2.3 0 4.7.9 7 1.9 2.1 1 4.7 1.9 7 .3 2.8-2.1 4.8-4.6 8.7-4.8q2.2.1 4.3-.8c5-2.6 9.7-5.7 15-7.6 4.4-1.5 9.9-3.4 14 0 2 1.6 3.8 3.5 6 4.7 3.3 2 7 3.1 10.5 4.4 3.2 1 6.3 2.5 9.7 2.8 4.2.5 8.2-1.5 12.2-2.6a16 16 0 0 1 10.5.3c5 2.2 8.4 7.6 14 8.5 3.4.7 6.6-1.2 9.7-2.2q6.6-2 13-3.8 4.5-1.2 8.8-2.8c3.5-.8 7-1.1 10.5-1.7" class="b"/><path d="M8 197.4c5.3-1 10.4-2.9 15.8-3.4 2.7-.2 5.3.7 7.9 1.6 2 .8 4.4.5 6-1.1 2.4-2 4.8-4.3 8-4.7q1.8 0 3.5-.6 2.6-1.2 5.2-2.5 3.5-1.5 7-2.6c4.5-1.6 9.2-3.8 14-3.3 2.6.3 4.9 1.8 7 3.1 5.2 3.3 11.2 5 16.6 7.8 2.6 1.3 5.1 2.9 8 3.5 3.5.8 7-.7 10.4-1.4q4-.8 8-.2c3.5.3 6.7 2.1 9.5 4.1 3.1 1.8 7 3 10.5 2 4-1.4 8.3-1.1 12.3-2.3q7.5-2.6 14.9-5.4 5.6-1.7 11.4-2.4" class="b"/><path d="m8 195.8 10.5-2.2a26 26 0 0 1 13.2-.7c2.1.5 4.4-.2 6-1.5 2.5-1.8 4.9-4.3 8-4.9q1.3 0 2.6-.4c3.2-1.1 6.2-2.9 9.6-3.4q4-.5 8-1.7c2.7-.9 5.7-1.9 8.7-1.8 4 0 7.6 2.6 11.3 4l8.8 4q3.1 1.2 6.1 2.7c4.4 2.5 7.8 5.1 13.2 4 4.3-1 8.7-.7 13-.3 3.2.2 6 1.8 8.8 3q2.6.8 5.3 1c2 0 4.1-.7 6.1-1.2q2.6-.5 5.3-.3c4.8.6 8.8-1.6 13-3.4 3-1 6-2.5 8.8-3.6q4.7-1.4 9.7-1.6" class="b"/><path d="m8 193.8 10.5-2q4-.9 8-1.5c2.8-.5 5.9.1 8.7-.7 3.2-1.2 5.6-4.2 8.7-5.6q1.7-.7 3.5-.9 2.3-.6 4.4-1.5c4.2-1.7 8.9-.8 13.1-2.1 3.7-1 7.5-2.3 11.4-1.7 2.7.4 5.3 1.6 7.9 2.5 4.2 1.4 8.2 3.7 12.2 5.5 3.8 1.2 7.2 3.5 10.5 5.6s7 1.6 10.5 1.3c3.2-.1 6.5.3 9.7.2 2.7 0 5.3.8 7.8 1.6q2.6.6 5.3.7c2.7.3 5.3-.8 7.9-1.2 2.8-.4 5.8.2 8.7 0 4-.6 7.7-2.3 11.4-3.7 2-.8 4-2.1 6.1-2.8 3.1-1 6.5-1 9.7-1.5" class="b"/><path d="M8 191.2q9.7-1.8 19.3-3.5c6.1-.7 8-.3 13.1-4.5q2-1.6 4.4-2.5 2.2-.4 4.4-1 2.6-.9 5.2-1.1 3.6-.1 7-.5c4.6-1 9.3-2.6 14-2.1 2.4.2 4.8 1 7 1.6q4 1 8 2.9l6 3q2.3.8 4.4 2c2.7 1.5 5 3.8 7.9 5.1 2.7 1.3 5.8 1 8.7 1 3.6 0 7 .4 10.5 0 4.7-.1 9.3 1.8 14 1.4 2.4-.2 4.7-1 7-1 3.5-.2 7.1 0 10.5-.7q7.2-1.7 14-4.3c3.5-1 7-1.3 10.5-2" class="b"/><path d="m8 188.4 9.7-1.8q4.4-.5 8.7-1.2c3.9-.8 8-1 11.4-3.2 2-1.2 4-3 6.1-3.8 1.4-.6 3-.6 4.4-.9 3.2-.6 6.5-.7 9.6-1.1 5.2-1 10.4-2.4 15.8-2.2 2.6 0 5.3.7 7.9 1.2q5.5.8 10.5 3.6c3.5 1.9 7.4 3.2 10.5 5.8 5.5 4.8 7.6 5.4 14.8 5.2 2.3 0 4.7.4 7 .2q3.5-.5 7-.5c4.7.3 9.4 1.7 14 .7 4.7-.6 9.4-.3 14-1.3l10.5-2.2q7-1.3 14-3" class="b"/><path d="M8 186q5.2-1.2 10.5-2 7.1-.9 14-2.5c3.5-.8 6.6-2.8 9.7-4.5q2.5-1.2 5.2-1 4.9-.5 9.6-1.6c3.8-1 7.6-2 11.4-1.8q6.1 0 12.3.9 3 .2 6.1 1 3.2 1 6.1 2.7 3.2 1.4 6.2 3.2c2.6 2 5 4.5 7.8 6 3.5 2 7.6 1.4 11.4 1.6q3 .4 6.1 0c2.6-.2 5.3-.9 8-.7 3.1.1 6.3 1.1 9.6 1.3q9.7-.1 19.2-1.9c7.6-1.4 15.4-1.8 22.8-4" class="b"/><path d="m8 183.8 11.4-2.4c5.3-.8 10.7-1.7 15.8-3.5 2.6-1 5.1-2.5 7.8-3.3 2.3-.4 4.8-.3 7-.8 4.4-.9 8.7-2.9 13.2-3.1 2.3-.2 4.7.4 7 .7q4.7.4 9.6.6 3.6 0 7 .9c3 1 5.9 2.5 8.8 3.7 4.3 2.3 7.3 6.8 12.2 8 2.5.8 5.3.7 7.9.9 2.6 0 5.3.4 7.9.2 2.3-.1 4.6-.8 7-1q2.6 0 5.2.5 3.5 1 7 1.3c5.6.3 11.1-.8 16.6-1.4q6.6-.8 13.2-2c3.8-.5 7.7-.9 11.4-2.1" class="b"/><path d="M8 181.8c8.8-2.1 17.8-3.4 26.3-6.4 2.6-.9 5.2-2.2 7.9-3 2-.5 4.1-.4 6.1-1 4-1 8-3 12.3-3 3.7-.3 7 1.9 10.5 2.5 4 .5 8.2-.1 12.2.4 2.4.1 4.8 1 7 1.9q2.7 1 5.3 2.4c3 2 6 4.6 9.6 5.6 3 .8 6.4.9 9.6 1.2 2.6.2 5.3.7 7.9.7 2.3 0 4.7-.6 7-.8 3.9-.3 7.7.9 11.4 1.8 6.3 1.3 12.8-.6 19.2-1.1 4.1-.4 8.2-1.5 12.3-2.1 3.8-.7 7.7-.8 11.4-2" class="b"/><path d="M8 180c8.2-2 16.6-3.7 24.5-6.6 3.3-1.1 6.4-2.8 9.7-4q2.5-.7 5.2-1.3 3-1 6.2-2.1c5.8-2.2 9.3 0 14 3.4a10 10 0 0 0 7 1.3c9.3-1.2 14.7 1.1 22.7 5.5 3.5 1.8 7.5 2 11.4 2.3q5.8.3 11.4 1.4c3.4.6 7 0 10.5 0s7 1 10.5 1.8c4 1 8.2.6 12.2 0q4-.4 7.9-.9 3-.6 6.1-1.4 4.4-.9 8.8-1.4 4-.3 7.9-1.4" class="b"/><path d="M8 178c10.4-2.5 21.1-4.7 30.7-9.7a25 25 0 0 1 7.8-2.6c2.1-.5 4.2-1.6 6.2-2.5 6.5-3.7 8.9-.8 13.1 4.1 2.6 3 4.8 4 8.8 3.2 12.7-2.6 14.3 3.7 24.5 4.7 4.6.2 9.3-.3 14 0 3.5.2 7 1.5 10.5 1.9 4 .3 8.2.2 12.2 1 3.8.6 7.5 1.9 11.4 1.8q6.1 0 12.2-1c3.3-.7 6.4-1.8 9.7-2.4 4.9-1.1 10-1 14.9-2.3" class="b"/><path d="M8 176q11.5-2.6 22.8-6c3.9-1.2 7.5-3.2 11.4-4.3 3.2-.8 6.8-1.2 9.6-3.3 2-1.3 3.8-3.3 6.1-4 5.7-.8 7.5 11.1 13.2 12.4 1.7.3 3.5-.4 5.2-.8a15 15 0 0 1 11.4 1.3c2.4 1.1 5 2.3 7.9 2.2 6.1 0 12.2-2 18.3-1.4 3 .1 6 1.2 8.8 1.8q4.7.8 9.6 1.1c5.6.4 11 2.3 16.7 2.4a38 38 0 0 0 9.6-.8c3.2-.8 6.4-2 9.6-2.6 5.2-1.3 10.6-.9 15.8-2" class="b"/><path d="M8 174q13.5-3.4 27.2-6.3 3.9-1.1 7.8-2.2 3.1-.4 6.2-1.5c2.4-1 4.3-3 6.1-4.7 1.5-1.6 3.8-4.3 6.1-2.6 3.5 3.4 4.8 8.7 8 12.3 4 5 8-1.2 14 .5 2.3.7 4.6 1.8 7 2.5 5.8 1.5 11.7-1.3 17.4-2.4 3.8-.9 7.7-.5 11.4.4 6 1.7 12.2 2.2 18.4 2.8 5.2.7 10.4 2.4 15.7 2 2.7-.1 5.4-1 8-1.8a76 76 0 0 1 7.8-2c4.9-1 10-.3 14.9-1.1" class="b"/><path d="M8 171.8c5.2-1.2 10.5-2.7 15.8-3.4 4.3-.7 8.8-.6 13.1-1.2 4.4-1.2 9-2.1 13.1-4.1q3.5-1.7 6.2-4.4c2.5-2.5 5-5.5 7.9-1.6 2.9 3.5 5.6 12.5 9.6 14 2.4.3 4.6-1.3 7-1.6 3.5-.4 7 1.5 10.5 1.7 3.5.3 7.2-.7 10.5-1.9 2.8-1 5.7-2.4 8.7-2.8 3.8-.4 7.7.3 11.4 1.1q4.3 1.1 8.8 1.6 4.3.3 8.7.8c4.4.6 8.7 2 13.1 1.9 2.7-.1 5.3-1.1 8-1.8q4.6-1.3 9.5-2c4.7-.7 9.4.4 14-.4" class="b"/><path d="M8 169.5c4.3-1 8.7-2.3 13.2-2.6 4-.4 8.2.2 12.2.2 3.9 0 7.8-1.2 11.4-2.6l11.4-5.3c3-1.3 6.5-5.2 9.6-2.1q2.7 2.6 4.4 6c1.7 2.5 3.2 7.4 7 7.1 1.7-.2 3.5-.8 5.2-1 2.6 0 5.3.5 8 .5q6.2-.1 12.2-2.8c4.9-2.5 8.3-4 14-3.2 4.7.3 9.3 2 14 2.5q4.3.3 8.7.6c3.2.3 6.4 1 9.6 1.2 6.5.6 12.9-1.8 19.3-2.4 5.2-.8 10.5.7 15.8-.2" class="b"/><path d="M8 167c4.5-1.3 9.3-2.5 14-2l8 1.4c3.7.5 7.6-.5 11.3-1.5 4.3-1.3 8-4.2 12.2-5.3 2.3-.6 4.8-.2 7-.6s4.1-1.7 6.2-2.2c5.3-1 6.8 8.3 10.5 11 1.5 1 3.5.7 5.2.6q3.5 0 7-.2 6-.4 11.4-2.7c3.7-1.7 7.3-4.2 11.4-4.7q5.2-.7 10.5.6c3.4.8 7 1.9 10.5 1.8 3.2 0 6.4-.5 9.6-.2 5 .5 10 1 14.9.7 4.4-.3 8.8-.8 13.1-.7 4.4.1 8.8.8 13.1-.3" class="b"/><path d="M8 164.4c14.9-5 15.1 2.3 24.5 1 3.2-.7 6.6-1.1 9.7-2.3 3.3-1.1 6.2-3.3 9.6-4.3 5.8-1.9 8.6 3 13.1 1 2.4-1 3.8-3.6 6.2-4.6 3.2-.6 5.2 6.2 7 8.4 2.8 4.6 11.2 3.4 15.7 2.3q4.5-1.2 8.8-3.2c2.5-1.3 5.1-2.9 7.8-3.9 6.7-2.4 12-.6 18.4 1 5 1 9.9-1.9 14.9-1.7 3.5 0 7 1 10.5 1.4q6.6.8 13.1 1c5.6.2 11.2 1.3 16.7-.2" class="b"/><path d="M8 161.8c3.6-1.4 7.7-2.2 11.4-1.1q2.7 1.1 5.3 2.5c3 1.7 5.6 1 8.7.3 3.5-.7 7.2-1.4 10.5-3 3.4-1.5 6.7-3.8 10.5-3.7 1.8 0 3.7.8 5.3 1.6s3.3 2.1 5.2 2.2c4.3-.3 5.4-5.6 8.8-7.4 4.2-.7 5.1 9.2 10.5 10.9 4.1 2.2 9 .8 13-.8 8-2.5 15-9.2 23.7-8.2 3 .3 5.8 1.4 8.8 1.5s5.9-1 8.7-2q4.3-1.4 8.8-.9c3.2.6 6.4 1.7 9.6 2.4q5.6 1.2 11.4 2c2.6.3 5.2 1 7.9 1.2q4 .2 7.8-.5" class="b"/><path d="M8 159.2c3.9-1.6 8.6-2.3 12.3 0 2 1.1 3.8 2.9 6.1 3.4 2.6.3 5.3-.8 7.9-1.2q5-1 9.6-3.2c3.6-1.7 7.3-4.2 11.4-3.7 2.5.3 4.8 1.7 7 3 2.5 1.5 5.4 2.8 7.9.6 2.2-1.8 3.4-5.1 6.1-6.2 3 0 4.5 4.3 6.1 6.4 6.3 7.3 10.4 5.8 18.4 2.6q4.5-2 8.8-4.3c4-2.2 8.4-4.3 13.1-3.7q3 .5 6.1.5 3.6-.2 7-1.2c5.4-1.4 11.2-3.8 16.7-1.2q7.6 2.8 15.7 4.9c2.3.6 4.6 1.7 7 2.1 2.9.6 5.9.3 8.8.3" class="b"/><path d="M8 156.7c3.6-1.5 8-2.2 11.4 0 2 1.4 3.7 3.4 6.1 3.9q1.8.1 3.5-.4 3.1-.5 6.2-1.3 4.6-1.2 8.7-3.6c3.8-2 7.8-4.6 12.3-3.8 5.1.7 12.1 8.6 16.6 5.1 2.1-1.5 3.4-4.7 6.1-5.1 3 .6 4.6 4 7 5.6 2.3 2 4.7 4.4 8 4.3 4.8-.4 9.5-2.5 14-4.5 3.1-1.5 6.2-3.5 9.5-5 2.8-1.1 5.9-1.2 8.8-1.3q4.6-.4 8.7-1.6l10.5-3.2c2.5-.6 5 .5 7 1.6l7 3.3q4.5 1.7 8.8 3.5c7 3.8 7.7 3.6 15.7 3.8" class="b"/><path d="M8 154.4c2.7-1.2 5.9-1.9 8.8-1 2.7 1 4.4 3.6 7 4.6 1.7.6 3.5-.2 5.2-.4q4.5-.9 8.8-2.3c6.9-2.5 13-10.2 21-6.5q4.5 2.3 8.7 5c1.4.8 2.9 1.9 4.4 2.3 3.1.8 5-2.6 7-4.3 1.8-1.6 4.2-1 6.1.1 6.7 3.3 7.4 6.7 15.8 4.8q5.5-1.2 10.5-3.3c3.3-1.4 6.3-3.4 9.6-4.7q4.9-1.5 9.7-2.6L141 143l5.2-2c4.5-.8 7.8 4.5 11.4 6.6 2.7 1.8 5.9 3.1 8.8 4.7 2 1 4 2.5 6 3.6 3.6 1.5 7.7 1.2 11.5 1.3" class="b"/><path d="M8 152.2c2.7-1.3 5.9-2 8.8-.8 2.2 1 3.9 3.1 6.1 4 1.4.6 3-.1 4.4-.3q3-.6 6.1-1.7 3.7-1 7-2.7c5.3-3.7 11.7-9.4 18.4-5.9 3.7 2 7.1 4.7 10.5 7.2 3.9 3 6 4.6 9.6.2 2-2.3 4.6-4.6 8-4.5 5.6.1 5.8 4 14 3.5 4.4-.2 9-.8 13-2.7 3-1.4 5.8-3.2 8.8-4.3 6.6-2.4 13.5-3.8 20.1-6 2.2-.9 4.7-2 7-1.3 4 1.9 6.3 6.4 9.6 9.2q3.3 2.8 7 4.8c2 1.2 4 2.7 6.2 3.5 3.6 1 7.6 1 11.4 1.3" class="b"/><path d="M8 150a10 10 0 0 1 8.8-.6c2 1 3.7 3.2 6.1 3.5 3-.2 6-1.3 8.8-2.4q3.5-1.3 7-2.8c2.2-1.1 4-3.2 6-4.6 3.5-2.6 8-4.8 12.3-3.5 4.5 1.5 8 5.2 11.4 8.3 2.4 1.8 5.5 6 8.8 4.6 3.6-2.2 5.6-6.6 9.6-8.5 4.5-2 6.2-.5 10.5.3q5.6.8 11.4.5c5.7-.2 10.4-4 15.7-5.5q4.7-1.4 9.7-2 4.5-.4 8.7-1.6c2.8-.8 5.8-2.3 8.8-1.3 2.1 1 3.7 3.3 5.2 5a42 42 0 0 0 14.9 12.6q2.1.6 4.4 1 3.8.8 7.8 1.2" class="b"/><path d="M8 147.6a10 10 0 0 1 8.8-.2c1.7.9 3.3 2.4 5.2 2.7 4.8-.3 9-3.2 13.2-5.2l4.3-2.3c1.6-1 3-2.6 4.4-3.7 3.2-2.5 7.2-4.6 11.4-4.2 9.7.7 17.3 19.5 24.5 14 2.8-2 5.1-4.7 7.9-6.6 5.5-4 12.8-3.3 19.3-2.7q4.3 1 8.7-.2a38 38 0 0 1 20.1-3.7q4 0 8-1c2.8-.6 5.7-1.8 8.7-1.6 2.2.3 3.8 2.4 5.2 4l4.4 5q4.2 4.7 9.6 7.7a110 110 0 0 0 12.3 3" class="b"/><path d="M8 145c2.8-1.2 6-1 8.8 0 1.7.6 3.4 1.8 5.2 1.9q2.3-.4 4.4-1.2 2.8-1.4 5.3-3.3 3.4-2.3 7-4.5c1.8-1.2 3.4-2.8 5.2-4a17 17 0 0 1 9.6-3.5c10.7.2 14.8 16.5 24.6 17 5.4-.5 10.6-6.2 15.7-8.6 3.8-2 7.8-4.4 12.3-3.5 2 .3 4 1.1 6 1.4 2.8.5 5.5-.5 8-1.3q3-.9 6.1-1.3c3.5-.3 7 0 10.5 0q4 0 7.9-.5 3 0 6.1-.3c2-.3 4.3-1 6.1.3 2.4 1.4 4.2 3.7 6.2 5.7 2.7 2.7 5.5 5.5 8.7 7.6q2.1 1 4.4 1.7 3.8 1.4 7.9 2.2" class="b"/><path d="M8 142.3a21 21 0 0 1 8.8-.2c2 .5 4 1.7 6.1 1.2q2.3-.5 4.4-1.5c2.4-1.6 4.6-3.7 7-5.3 5.8-3.3 12.4-9.8 19.3-9.5 10.5 1.4 13 18.5 24.5 19 5.9-.1 15.5-5.7 20-9.4 3.7-3.1 6.7-5 11.5-3 1.9.6 4 1.2 6.1.7 3.2-.7 6.3-2 9.6-2.3 4-.5 8.2-.2 12.3-.5 2.6-.1 5.3-.5 7.9.2q2.2.8 4.3 1.7c4.1 1.4 6.6-1.7 10.5 1 3 2 5.4 4.6 8 7 1.5 1.4 3.2 3.3 5.2 4.3q5 2.1 10.5 3.3" class="b"/><path d="M8 139.6a45 45 0 0 1 8.8-.6c2.8.5 5 1.5 7.9.5 3-.7 5.3-3.3 7.8-5 2.8-1.8 6-3 8.8-4.7 4-1.8 8.6-6.1 13.1-5 9.2 3.3 10.7 22 24.5 20.2 3.1-.4 6-2 8.8-3q3.1-1.2 6.1-2.5 2.9-1.6 5.3-3.6c3-2.8 5.9-6.3 10.5-5 2 .5 4 1 6 .5 3-.8 5.9-2 8.8-2.4q5.3-.6 10.5-.7c3-.1 6-.7 8.8-.1 4.1.7 6.3 5.5 10.5 5.9 2 0 4-1 6.1-.4 3.5 1 6.3 3.9 8.8 6.4 1.3 1.3 2.7 3 4.3 4q5.2 2 10.5 3.1" class="b"/><path d="M8 137.2q4.4-.8 8.8-1.2c2 0 4 .7 6.1.5q2.3-.4 4.4-1.4c1.8-1 3.4-2.4 5.2-3.3 2.8-1.4 6-2 8.8-3.2 4.4-1.3 9.5-8 14-4.8 4.3 3.7 6.3 9.6 9.6 14.1 3 4.6 8.5 8 14 6.5 3.9-1 6.9-3.9 10.5-5.2 4.7-1.7 7.8-1.8 11.4-5.8 2.3-2.5 5-6 8.8-5.3q2.6.6 5.2.6 3-.6 6.1-1.5 3.5-.9 7-1.2 4.5-.2 8.8-.6c3.2-.3 6.8-.6 9.6 1.3 2.6 1.7 4.4 4.6 7 6.3a6 6 0 0 0 3.5.9q2.2-.4 4.4-.3c3.1.6 5.7 2.9 7.9 5 1.3 1.4 2.7 3.2 4.3 4 3.4 1.4 7 2 10.5 2.7" class="b"/><path d="M8 135q4.5-1 8.8-2c2.6-.1 5.3.5 7.9-.2 3.2-.5 5.6-3 8.7-4 3.2-.8 6.7-.8 9.6-2.3 3.5-1.6 7.5-6.7 11.4-3.6 5.2 5.1 7.3 12.9 13.2 17.4 3.1 2.5 7.2 4.8 11.3 3.5 2.7-.7 4.9-2.7 7-4.3q2.4-1.9 5.3-3 2.1-.6 4.4-1.1c5.1-1.3 6.8-7.4 11.3-9.6 2.9-1 5.9.8 8.8.3 3.2-.4 6.4-1.2 9.6-1.6q7-.8 14-1.3c9.8-.6 10.6 8.5 17.5 9.8 5-.2 7.5 0 11.4 3.5 1.7 1.5 3.2 3.6 5.3 4.7 3.3 1.1 7 1.5 10.5 2" class="b"/><path d="M8 132.8c3.2-.9 6.4-2.2 9.7-2.6s6.5-.2 9.6-1.4c2-.7 4-2 6.1-2.5 3.2-.6 6.7-.3 9.7-1.8 4.2-2 7.5-5.8 11.3-.8a65 65 0 0 0 14 14.2c3.2 2.5 7 5.9 11.4 4.5 3.7-1.2 6.2-4.6 9.6-6.4 2.8-1.6 6.2-1.8 8.8-3.8 3.8-2.9 5.7-9.6 11.4-9.2q2.6.5 5.2.7 4.5-.2 8.8-.8 7-.6 14-1c10.3-.6 11.1 6.6 18.3 9.5 2 .5 4.2 0 6.2.5 4.3.8 7.2 4.5 10.5 7 1.2.8 3 1 4.4 1.1l7 1" class="b"/><path d="M8 130.6c3-1 5.8-2.4 8.8-3 2.5-.6 5.3-.6 7.9-1.1 3.8-.8 7.3-3.2 11.3-3.2q3.6 0 7-1.1c2.2-.8 4.7-2.1 7-1.1 1.7.9 3 2.6 4.4 3.8 1.7 1.7 4 2.5 6.2 3.3 2.2 1 4.1 2.6 6 4 4.6 3 8.7 9.8 15 7.8 2.8-1 5.2-3.3 7.8-4.8s5.6-2.5 8-4.5c4.4-3.7 6.7-11.7 14-9.8 4 .8 8.1.3 12.2.3l8.7.2h7q4.3.6 7.9 3.2c2.5 1.7 4.9 4 7.9 4.8 1.6.5 3.5.3 5.2.6 3.3.3 6.3 1.9 8.8 4 1.5 1.3 3.1 3 5.2 3.2q4.9.6 9.7 1" class="b"/><path d="M8 128.3c3-1 5.7-2.7 8.8-3.4 3.1-.9 6.5-.9 9.6-1.8q3-1 6.1-2c2-.4 4.2-.2 6.2-.4 3.1-.2 6.7-1.6 9.6.2 1.8 1 3.2 3.1 5.3 3.9q1.8.3 3.5-.6c3.5-1.9 6.1 1.3 8.7 3.2q3.7 2.7 7 5.6c2.8 2.5 6.5 5.3 10.5 4q3.3-1.3 6.1-3.2a41 41 0 0 0 6.2-4.2c3.5-3 5.8-7.3 9.6-9.9 1.8-1.2 4-1.2 6.1-1q5.3.9 10.5 1l7.9 1.2c4 .8 8.3.3 12.3 1.4s7.3 3.7 11.3 4.7q3.1.5 6.2.6 5.3.6 9.6 4c1.5 1.3 3.2 2.7 5.2 2.8q4.9.6 9.7 1" class="b"/><path d="M8 126c2.7-1.1 5.2-2.8 8-3.6 3-1 6.4-1.2 9.5-1.8q3-.8 6.2-1.6 3-.5 6.1-.2c4.7.2 6.8 0 10.5 3.4 1.7 1.4 3.4 2.2 5.3.6 4.7-4.7 5.6-5 10.4-.1 2.6 2.4 6 4 8.8 6.1 3.1 2.2 6.4 5.2 10.5 4.8 6-1 10.6-5.8 14.9-9.9 3.2-2.9 6.6-6.9 11.4-6.5q3.5.3 7 1.2 2.5.3 5.2.8c3.2.6 6.4 2 9.6 2.5 3.5.5 7-.2 10.5.4s7 2.2 10.5 2.4c4.4.4 9.2 0 13.2 2.2 2.1 1.1 4 2.8 6.1 4q2.5 1 5.3 1.2l7 .5" class="b"/><path d="M8 123.2c2.7-1 5.2-2.6 8-3.5q4.1-1.4 8.7-1.7c2.6-.4 5.2-1.2 7.8-1.2 2.4 0 4.8.7 7 1.3q3.4 1 6.2 3.1c4 3 6.3-1.5 8.7-4 3.8-4.5 6.7 0 9.7 2.7 2.2 2 5.2 3.2 7.8 4.9 8.5 5.3 11.4 7.5 20.2.7 4.4-3.3 8.7-7 14-9 2.8-.7 6 0 8.7.8q3 1 6.1 1.6 2.7.8 5.3 1.8c5.4 2.3 8.7.1 14-.2 2.3-.1 4.7.5 7 .8q3.5.5 7 .5c4.5-.2 9.3.4 13.1 3 2 1.2 3.8 3 6.1 3.6 3.5.8 7 .8 10.5 1" class="b"/><path d="M8 120.5c2.8-.7 5.2-2.3 8-3.3q4.6-1.8 9.5-2.2c7-1 9.1.7 15 3.8 3.5 1.8 6 1.5 8.7-1.6 5.9-7 7.3-7 14-.8 2 2 4.7 3 7 4.5 9.3 6 12.4 7.3 21.8.6a37 37 0 0 1 16.7-6q4 .5 7.9 2 4 1.2 7.8 2.6c7.8 3.4 10.7-3.4 18.4-2.5 2.3.3 4.7.9 7 1 4.7.2 9.6-.5 14 1.2q3.4 1.4 6.1 3.6c3.9 3.3 9.3 2.8 14 2.8" class="b"/><path d="M8 117.9c4.9-1 9.2-3.8 14-5q4.5-1 8.8.1c2 .7 4 2 6.1 2.7 3.3 1.5 6.2.6 8.8-1.8 5.6-5.4 8.2-7 14.8-1.9 3.3 2.7 7.3 4.5 10.5 7.3 4.8 4 9.3 5 15 1.9 2.5-1.4 5-3.4 7.8-4.4a47 47 0 0 1 13.1-2c3.3-.1 6.6 1 9.7 2.2l5.2 1.8c2.2.8 4.7 1.6 7 .8s4.1-2.5 6.1-3.6c4.6-2.8 9.2-1 14-.5 5 .5 10-.6 15 .7 9.6 3.5 6.5 7.8 20 7" class="b"/><path d="M8 115.3c6.1-.5 11.4-4.5 17.5-4.7 2.5 0 4.8 1 7 1.8 2.6 1 5.5.3 8-1 6.5-3.7 8.6-6.6 16.6-3.2q5.4 2.6 10.4 6c5 4.5 7.6 9.8 15 5.7 2.4-1.2 4.6-3 7-4.4 4.8-3.4 11-2.5 16.6-2.2 5.8.3 11 3.4 16.6 4.9 3.4 1 6.1-.8 8.7-2.8 8.4-6.3 13.6-1 22.8-2.6 4.3-.6 9-1.7 13.1.5 7 4.1 7 7.7 16.7 7.3" class="b"/><path d="M8 113c4.6-.4 8.9-1.9 13.2-3.2 2.9-.8 6 0 8.7 1 2.5 1.1 4.9 0 7-1.3 7.2-3.8 13.1-5.4 21-2.5 2.8 1 5.7 2 7.9 3.9 6.1 5.4 7.1 14.3 16.6 6.8 3.7-2.5 7-6 11.4-7 3.2-.9 6.5-.4 9.6 0q4 .6 8 1.9c4.3 1.4 9.3 4.7 14 4 2.2-.4 4.1-2 6-3.2 8.7-5.4 13.9-.5 22.8-3.5 4.5-1.3 9.5-3.7 14-1.2 5.8 3.4 8 9.4 15.8 9.5" class="b"/><path d="M8 110.9q4.5-.3 8.8-1.2c4.3-1.3 7.2-1.8 11.4.3 3.2 1.7 5.2 0 7.8-1.8 1.6-1 3.5-1.1 5.3-1.4q2.2-.4 4.4-1.2c6.2-2.4 8.7-1.7 14.9.2 6.4 1.9 7.7 9.5 12.2 13.6 3.9 2.7 8.4-2.4 11.4-4.7 2.4-2 4.8-4.5 7.9-5.7 5.6-1.8 12-1.4 17.5.6 4.9 1.8 9.4 5.5 14.9 5.4 2.5-.1 4.7-1.8 7-2.9a22 22 0 0 1 9.6-2.6c2.6 0 5.3.2 7.9-.5 6.9-1.6 13.8-9.3 21-4.5 5 3.2 7.7 9.8 14 11.1" class="b"/><path d="M8 109.3q4 0 8-.8c1.9-.4 4-1 6-1 2.6.1 4.8 1.8 7 3 3.5 1.7 5.6-3 8.8-3.5h3.5c2.3-.2 4.3-1.6 6.1-2.9 1.8-1.1 3.9-2.5 6.2-2.3q4 .6 7.8 2.3c4 2.5 5.5 7.5 8 11.3 2.5 4.2 5.2 6 9.5 2.7q4.2-3.2 8-6.6c2.8-2.5 4.8-3.7 8.7-4.1q5.2-1 10.5-1.1c5-.1 8.7 3.8 13.1 5.5 5.4 2.2 8 1.6 13.1-.8q3.3-1.5 7-2c3-.5 6-.5 8.8-1.8 1.7-.8 3.5-2 5.2-2.8l7-3.4c5.6-3 9.7-3.3 14 2 3 3.3 5.5 7.3 9.7 9.2" class="b"/><path d="M8 107.7c3.5.3 7-.3 10.5-.9 4-.6 6.7.9 9.7 3.2 3.7 3 5.8-1.7 8.7-3.3 1.3-.7 3-.6 4.4-.6 2.9-.3 5-2.6 7-4.3 4-4 6.9-2.4 11.4-.4 2.4 1.2 4 3.7 5.2 6 1.6 3 3.1 6.4 5.3 9 1.2 1.6 3.2 2.8 5.2 2 3-1 5.4-3.3 7.9-5 3-2.1 5.9-5.2 9.6-6q3.1-.2 6.2-.8c4.6-.6 9.4-3.3 14-.8 1.7.8 3.5 2 5.2 2.8l4.4 1.8q4.8 2 9.6-.2l5.3-1.7q3-.6 6.1-1.5 3-1.5 6.1-2.6 2.6-.7 5.3-1.2 2.8-.8 5.2-2.5c3.3-2 6.4-5.4 10.5-5.1 3.8.4 5.7 4.5 8 7.2a25 25 0 0 0 5.2 5" class="b"/><path d="M8 105.8q3.1.3 6.2 0c3.1-.5 6.6-1 9.6.5 2.5 1 4.2 3.7 7 4.2 3.5-.3 5-5.5 8.7-6.1 4.3-.6 6-2.3 8.8-5.2 3-3.3 5.1-3 8.7-1 5.2 2.3 7.1 7.5 9.7 12.1 1.3 2.3 2.6 5.1 5.2 6 3.2.7 6.1-1.7 8.8-3.1l5.2-3.3c2-1.2 4-2.6 6.1-3.1q3.1-.3 6.2-.4 3.1-.4 6.1-1.5c2.2-.9 4.6-2 7-1.7 2.2.2 4.2 1.4 6.1 2.2q3.6 1.4 7 2.8c3.6 1.7 6 1.3 9.7 0l9.6-3.2c5.9-2 9.6 1.2 15.8-2.8 4.6-2.7 10.6-12.6 16.6-8.4 3 2.6 4.5 6.9 7.9 9.1" class="b"/><path d="M8 103.6q3.1.4 6.2 0c2.5-.5 5.3-.8 7.8 0q3 1.2 5.3 3.2c2.4 2.2 4.4 3.5 7 .7 1.8-2 3.6-4.4 6.1-5.5q2.4-.9 4.4-2.5c2.8-2.3 5.5-7.5 9.6-4.7 5.3 3.1 7.6 6 10.5 11.2 3.4 6 4.7 10.1 12.3 6.5l7.9-3.7c2.2-1.2 4.4-2.8 7-3.3 3.4-.2 7 .4 10.5-.8 2.6-.8 5.1-2.4 7.8-3 2.4-.4 4.8.3 7 1.1q4.5 1.4 8.8 3.3c3.4 1.3 7.1.2 10.5-.9 3.4-1 7-1.8 10.5-1.2 12.6 1.8 13.8-3.5 21.9-10.7 8.7-6.6 9.3-1.9 14.9 4.7" class="b"/><path d="M8 101q4 .2 8-1c11-2.3 13.3 11.2 19.2 5.2q2-2.4 4.3-4.5 2.4-1.5 4.4-3.5c2.3-1.9 4.5-6.4 8-5.7 1.5.5 3 1.8 4.3 2.9q3.5 2.6 6.1 6c2.3 2.9 3.7 6.6 6.2 9.3 1.5 1.7 4 1.6 6 1q5-1.4 9.7-3.3c2.4-1 4.5-2.7 7-3.4 2-.6 4.1 0 6.1 0 3.7.1 7.2-1.1 10.5-2.5a16 16 0 0 1 11.4-.6c2.7.5 5.2 1.8 7.9 2.5 3.2.8 6.5.2 9.6-.4a40 40 0 0 1 7-.3q4 .5 8 .4c3-.1 6.2-.6 8.7-2.5 2.9-2.2 5.1-5.3 7.8-7.7q3.3-2.6 7-4.6c3.8-2.2 6.7 2 8.8 4.6" class="b"/><path d="M8 98.6c4.5-.2 8.7-3.1 13.2-1.9 6.2 1.2 9.5 9 14 6.4 1.6-1 3-2.7 4.3-4q2.4-2 4.4-4.3c3.9-4.9 5.7-8 11.4-2.8 2.7 2.3 5.7 4.6 7.9 7.5 2.5 3 4 8.5 8.7 8.5q2.7-.1 5.3-.7 3.1-.5 6.1-1.4c2.8-1 5.1-3 7.9-4 2-.4 4.1.2 6.1 0q4.5 0 8.8-1.4c8.8-3.3 12.3-1.5 21 .3 5.7 1 11.7.4 17.5.5q4 .1 7.9 0c3 0 6.3-.7 8.7-2.8 2.5-2 4.6-4.6 7-6.6 1.6-1.4 3.6-2.3 5.3-3.5 3.9-3 6.5-4.6 10.5-.5" class="b"/><path d="M8 96.4c2.7-.5 5.3-1.8 8-2.5 5.8-1.4 10.4 1.4 14.8 5 3.3 2.6 6 .8 8.7-1.6 2.8-2 4.8-5 7-7.6 3-3.3 5.8-2 8.8.4 2.3 1.8 5 3.5 7 5.8 4 4.5 5 9.4 12.2 8.5 3.5-.3 7.3 0 10.5-1.5 2.6-1.1 5-3.2 8-3.3h4.3c6.5 0 12.7-3 19.3-2.3 6.4.6 12.7 2.2 19.2 2.6 4.1.3 8.2-.7 12.3-.7 2.9-.1 5.9.3 8.7-.2 5.4-1.2 8.4-6.5 13.1-8.9q2.8-1.2 5.3-3c2.5-1.8 5.5-4.2 8.8-2.9" class="b"/><path d="M8 94.4c4.6-1.8 8-3.9 13.2-3.2 7.9.4 10.7 6.8 15.7 5.1q3.4-1.5 6.1-4c1.7-1.7 3.3-3.7 5.3-5 2.2-1.3 4.9-.4 7 .8q3.4 1.7 6.1 4.4c1.8 1.7 3.5 3.9 5.3 5.7 2.3 2.6 5.5 2.5 8.7 2.4 3.2 0 6.5.5 9.6-.5 2.4-.6 4.6-2 7-2.5q4.5-.2 8.8-.8 5.7-1 11.4-1.2c6.1.2 12.3 1.3 18.4 2.3q3.4.7 7 .6 2.6-.3 5.2-1c3.1-.7 6.5-.5 9.6-.3 6.9.8 9.6-2.8 15-6 2.3-1.4 5.3-1.8 7.8-3.2 2.9-1.5 5.6-3.7 8.8-4.6" class="b"/><path d="M8 92.2c2.3-1 4.6-2.4 7-3q5.8-.9 11.4.3c5.2 1.5 8.2 5.9 14 3 4.7-1.7 7.6-8 13.1-6.7 7.8 1.6 11 9.6 16.7 10.6 2 .2 4-.1 6.1 0q3.5.2 7 .4c3.3 0 6.4-1.1 9.6-1.4 4.7-.2 9.3-1.7 14-1.6 5.3 0 10.6.8 15.8 1.5 3.7.5 7.5 1.4 11.4 1.4 3.9.3 7.5-1.5 11.3-2 4.1-.4 8.3 1 12.3 0 3.7-1 6.8-3.4 10.5-4.3 2-.6 4.1-.6 6.1-1a32 32 0 0 0 9.6-4.5" class="b"/><path d="M8 89.8c4.1-2.2 5.8-3 10.5-3 4.1 0 8.5-.4 12.3 1.6 2 1 4 2.1 6.1 2.4 2.3.3 5-.1 7-1.2 2.3-1.3 4.5-3.3 7-4.1 5.4-1.8 10 2.5 14 5.3q2.8 2 6.1 1.8c2.3-.2 4.7-.8 7-.6 2.3.1 4.7.7 7 .8q5.3.5 10.5.2c3.2-.5 6.4-1.4 9.7-1.2 5.2.3 10.5 1.4 15.7 1.8 4 .5 8.2 1.2 12.3 1q3 0 6.1-.8c2.6-.7 5.2-1.5 7.9-1.5 2.9 0 5.8.5 8.7 0 3.3-.4 6.4-1.7 9.7-2.3q3.8-.5 7.8-.2 5.7 0 10.5-3" class="b"/><path d="M8 87.2c5.3-2.9 5.9-2.3 11.4-2.2 3.5 0 7.1-.6 10.5.5 4.7 2 7.6 4.2 13.1 3.3 2.8-.5 5.3-2.3 8-3.3 8.1-3.1 12.8 5.9 21 3.3q3-.9 6-1c5.1.3 10 2.2 15 3 3.4.7 7-1 10.4-.7 3.3.1 6.5.9 9.7 1.3q5.6.7 11.4 1 10.1.4 20-2c3.2-.4 6.6-.3 9.7-1q6-1.5 12.3-.8c5.7.7 12 2.2 17.5-.6" class="b"/><path d="M8 84.3c6-2.9 6.6-1 12.3-1 3.7-.1 7.8-.9 11.4.7q3 1.6 6 2.6 5.4 1.6 10.6-.4c10.4-4.3 13.3 1.5 21.9-.4 2.5-.7 5.1-1.8 7.8-1.7 3.7.1 7.2 1.5 10.5 2.8 2.3.8 4.6 2.2 7 2.2s4.7-.7 7-.6c3 .1 5.9 1 8.8 1.3q8.3.9 16.6.4 3.5-.4 7-.7 2.6 0 5.3-.2 4.4-.6 8.7-1.6 3.1-.9 6.2-2.1c2.8-1.1 6-1 8.7.1 6.3 2.6 13.5 4.3 20.1 1.9" class="b"/><path d="M8 81.4c5.8-2.3 7 .1 12.3.2 3.7.1 7.7-.7 11.4.5q2.6 1.2 5.2 2.1 5.6 1.8 11.4.8 3.9-1 7.9-1.5 5.6-.3 11.4-.5c5.3-.9 8-3.7 14-1.6q4 1.3 7.8 3.3c2.5 1.4 5 3.2 8 2.6q3-.5 6-.3c2.6.3 5.3 1 8 1.2q9 .6 18.3-.7 2.6-.4 5.3-.6 2.6.2 5.2.5 4.6 0 8.8-2c2-1.1 4-2.6 6-3.6a8 8 0 0 1 8 .1c2.5 1.5 5 3.5 7.8 4.4 4.3 1.3 9 .9 13.2-.3" class="b"/><path d="M8 78.4c5.4-1.6 7.4 1 12.3 1.4 3.5.5 7 0 10.5.4q1.8.4 3.5 1 2.6 1 5.2 1.5 6.7 1.2 13.2-.6 5.6-1.5 11.3-2.7c1.7-.3 3.6 0 5.3-.4 5.2-1.5 8-2.7 13.1 0l6.1 3c1.8 1 3.5 2.4 5.3 3.3 2.2 1 4.7.3 7 0 3.5-.2 7 .7 10.5.8q10.1.5 20.1-1.3 4-.8 8 .5c5.8 1.8 10.3-3.4 14.8-6.3 2.8-1.9 6.7-2.4 9.6-.4 2.4 1.6 4.4 3.8 7 5 4.2 1.8 9 .9 13.1-.1" class="b"/><path d="M8 75.4q3.1-.7 6.2.3 3.3 1.7 7 2.4c3.4.8 7 .4 10.5.7q3.9 1 7.8 1.5 7.2 1 14-1.5c4.5-1.6 9.1-4.1 14-3.4 3.3.2 6.4-1.7 9.7-1.1 4.2.8 7.6 4 11.3 5.9 2.4 1.3 4.4 3.5 7 4 2.7.3 5.3-.9 8-.9 7.5-.1 15.1 1 22.7.2 3.2-.4 6.3-2 9.6-1.5 1.8.2 3.5 1.3 5.3 1.8 5.2 1.2 8.5-4.2 12.2-6.8 3-2.1 7-3.3 10.5-2 2.3.9 4.2 2.7 6.1 4 4.1 3 9.5 2 14 1" class="b"/><path d="M8 72.8c5.1-1 9.3 2.8 14 3.8 3.2.8 6.5.6 9.7.7q7 1.2 14 .3c5.6-.8 10.3-4.3 15.7-5.6 2.3-.6 4.7-.1 7 0 1.7.1 3.6-.4 5.3-.6a10 10 0 0 1 7.8 2.2q4.3 3.4 8.8 6.5c2.9 2.2 5 3.7 8.7 2.2 7.8-3.3 14.8-1.3 22.8-.6q3.6.5 7-1c2.2-.8 4.6-2 7-1.6 3.8.5 6.5 5 10.5 2.6 5.9-4.2 6.1-8.7 14.9-9.4 10.2-1.2 9.5 6.6 22.7 4" class="b"/><path d="M8 71.2c5-.4 9.3 3 14 3.8q4.4.8 8.8.7 6.1.7 12.2-.4a37 37 0 0 0 9.7-3.6A23 23 0 0 1 64 68.3q2.3.1 4.4.4 2.6-.1 5.3-.4c4.3-.6 7.8 2.5 10.5 5.5a47 47 0 0 0 7 6.5q3.7 3 7.8.5a21 21 0 0 1 8-3.1c5.3-.7 10.4 1.7 15.7 2 5.8.7 11-7.1 16.6-2.7 1.7 1.2 3.2 3.1 5.3 3.7 4.8 1 7-7.9 12.2-9.3q2.6-.6 5.3-.9 3-.6 6-1.1c2.8-.3 5.4.7 8 1.5q3.8 1 7.8 1.4" class="b"/><path d="M8 70.5c4.3 0 8.1 2.2 12.3 2.7q4.7.6 9.6.7 7.2 1 14-1.3c6.5-2.2 12.2-7.2 19.3-7.5q3 0 6.1.2h5.3c7.3.7 10.1 8.7 14.8 13.2 5.4 5.3 8.1 2 13.2-1.3 2.5-1.6 5.7-2.2 8.7-1.8 3 .3 5.8 1.2 8.8 1.5 2.3.5 4.9.5 7-.8 6.3-3.5 10-7.1 15.7-.1 2 2.3 4.5 4.3 7 1.2 2.7-3.1 4.9-7.9 9.6-7.8q2.6 0 5.3-.7 2.8-.8 5.2-2c5.1-2.2 9.4-.5 14 1.8" class="b"/><path d="M8 70.3c3.3.4 6.4 1.6 9.7 2q3.5.2 7-.1 3.9 0 7.8.2 4.6 0 8.8-1.2c8-2.2 14.5-8.1 22.8-9.2q4.3-.5 8.7 0a14 14 0 0 1 9.6 5.8c2.5 3 4.4 6.8 7 9.8 6.8 7.4 11-3 18.4-4 4.4-.8 8.8.1 13.1.7 3.6.7 6.8-1.5 9.7-3.3 5.9-3.7 9.5-3.4 14 2.1 3 3.8 4.7 4.6 7.8.1 2-2.6 4.3-6 8-5.5q2.2.2 4.3 0 2.8-.4 5.3-1.9c6-3.5 8-4.7 14 .3" class="b"/><path d="M8 69.8c8.5 1.7 8.6 2.8 17.5 1.3 5.3-.6 10.7-.3 15.8-2 8-2.2 14.7-8 22.8-10.4 4.7-1.2 10-.2 14 2.8 4.5 3.5 7 8.9 10.5 13.4 5.2 6.7 9.4 1.8 14.8-1.3 3.2-1.8 7-2.7 10.5-3 3-.1 5.9.7 8.8.8 3 0 5.4-2 7.9-3.4 3.3-2 7.7-3.5 11.3-1.4q2.6 1.5 4.4 3.7c2.3 3 4.2 5 7 1 2-2.5 4.1-6.2 7.9-5.4q2.2.4 4.4.5c1.8 0 3.6-.8 5.2-1.6 6.2-3.7 7.2-4.7 13.2.6" class="b"/><path d="M8 67.7c4.4.8 8.7 2.6 13.2 2.5 2.9 0 5.8-.8 8.7-1.2s6-.5 8.8-1.3c8.9-2.3 16.3-8 24.5-12C72.8 51 80.2 61.1 85 68c8.9 13 12 4.7 22.8 1 4.7-1.7 8.4-1.5 13.1-.6a9 9 0 0 0 6.2-1.3c4.3-2.8 9.6-5.3 14.9-3.5q2.4.7 4.3 2.4c2 1.5 4 6.5 7 4.1 4.3-4.4 4-8 11.4-5.7q2.6.5 5.3-.6c7-2.9 7.2-2.8 14 1.1" class="b"/><path d="M8 63.7c2.4.2 4.7 1 7 1.6 4.6 1 9.3 2 14 1.6q3.6-.2 7-.8c2.4-.6 4.7-1.8 7-2.6q5-2.1 9.7-4.8 4.9-2.5 9.6-5.2c7.2-4.9 12-.9 16.6 5.1 4.5 5.2 9.3 14.8 17.5 12.4 3.6-1.3 6.9-3.3 10.5-4.4 4.8-1.6 8.3-1.7 13.2-.8 2 .3 4.3 0 6-1.1a20 20 0 0 1 16.7-3.2q2.4.2 4.4 1.5c2 1.4 4.1 6.5 7 4.8 2.7-2 3.9-7 7.9-6.6q2.2.5 4.4 1c2.3 0 4.6-.8 7-1q2.2.2 4.3 1.2 3.2.8 6.2 2.2" class="b"/><path d="M8 59c2 0 4.1.8 6.2 1.3q4.7.8 9.6 1.7c4.2 1 8.8 2.5 13.1 1q3.9-2 7.9-3.4 3.6-1.7 7-3.4c3.8-1.7 7.9-3 11.4-5.2 10-7 13.9 4.3 19.2 10.6 1.5 1.8 3.3 3.7 5.3 4.8q3.7 2 7.9 1.5c2.4-.5 4.7-1.6 7-2.3a42 42 0 0 1 14-2.1c2.3 0 4.8.3 7-.5 2.3-1 4.5-2.6 7-3.3q3.3-1 7-.9c2.3.1 4.7.6 7 .6 5.5-.5 7.3 9 11.4 5.2 2-2 3.5-6.2 7-6 1 0 2.3.6 3.4.9 2.3.5 4.8-.1 7 .5 1.5.4 3 1.3 4.4 1.8 2 .7 4.3 1.1 6.2 2.1" class="b"/><path d="M8 54.3c2.4.3 4.7 1.2 7 1.7q5.3.7 10.5 2c4 .8 8.3 3.7 12.3 1.6l3.5-2q2.1-.8 4.4-1.5 3.4-1.6 7-2.8 3.4-1 7-2.1 2.8-1 5.2-2.7c10.9-7 13.6 10.3 21 14.5 2.3 1.5 5.2 1.9 7.9 2.2q3.1-.1 6.1-1.2 6-1.9 12.3-2c2.6-.2 5.3-.1 7.9-.7 2.4-.5 4.6-2 7-2.8q3-1 6-1.4c3-.6 6 0 8.8.2 3.8 0 5.8-1.2 8.8 2.2 2 2.2 4.4 5.3 7 1.8 3-3.9 4.1-6.8 9.6-4.5q2.6.6 5.3 1 2.2 1 4.3 2 1.7 1 3.5 1.6 2 .4 3.5 1.5" class="b"/><path d="M8 50.9q2.7.6 5.3 1.3 2.6.5 5.2.9 4 .6 8 1.5 3 1 6 2.2c2 .9 4.4.8 6.2-.5q1.6-1.3 3.5-2.2 2.5-.8 5.2-1.4 6-1.7 12.3-3.2c2.4-.7 4.7-2 7-3 10.7-5.2 12.5 14 22.7 15.6 5.8 1.6 8.6.1 14-1 3.8-.8 7.6-.8 11.4-1.1 3.4-.3 6.5-1.7 9.6-3q4.8-1.5 9.7-2 3-.1 6.1.5 2.6.4 5.3-.5c4-1.6 6.1 1.7 8.7 4 2 2 3.7 1.1 5.3-.9 3.6-4.7 4.5-5.6 10.4-3.7q2.3.4 4.4 1.3 2.3 1.3 4.4 2.8c1.6 1.1 3.7 1.7 5.3 3" class="b"/><path d="M8 49c2 .2 4.1 1 6.2 1.4L24.7 52c3.6.5 6.9 2.5 10.5 3 3.3-.1 5.4-3.7 8.7-4 1.7-.4 3.6-.3 5.3-.6q3-.6 6-1.6 3.6-1 7-2.1l5.3-2c6-2.4 10 3.8 13.2 7.8 3.4 4 6.8 7.4 12.2 8.1 4.2.7 8.2-1.2 12.3-1.7 4.3-.8 8.9-.6 13.1-2q4.3-1.6 8.7-2.5 3.5-.8 7-1.1c2.7-.2 5.3 1 8 .9q2.3-.5 4.3-1.7c3.7-2.4 6.4.9 8.8 3.5 2.8 3.1 4.7 1.5 7-1.3 1.5-1.9 3.5-4 6-3.9 2.4.1 5 .3 7 1.4q2.5 1.7 4.5 3.8c1.2 1.3 3 2.4 4.3 3.5" class="b"/><path d="M8 47.9c2.4.3 4.7 1.2 7 1.7q5.3 1 10.5 1.7c3.5.5 7 2.3 10.5 1.4 2-.7 3.5-2.3 5.3-3 3-1.6 6.5-.1 9.6-1 2.4-.4 4.7-1.5 7-2.4l10.5-3.8c5.2-1.7 9 3.2 12.3 6.4 1.5 1.6 3.6 3 5.2 4.6 2.9 2.6 6.4 5.4 10.5 5.2q3-.4 6.1-1.3 3.5-.8 7-1.1c5.7-.3 11.2-2 16.7-3.3 2.5-.6 5.2-1.3 7.8-1.2q2.7.1 5.3.6a8 8 0 0 0 5.2-1.1c6.8-4.7 8.3-1.2 13.2 3.4 2.2 2 4.4.5 6.1-1.4 1.6-1.7 3.2-3.6 5.3-4.7 2.1-1 5-1.6 7 0 3 2.5 4.7 6.7 7.8 9.2" class="b"/><path d="M8 47.4c2.7.3 5.2 1.7 8 2.2q7.6 1.8 15.7 2c4 .3 6.1-2.5 9.6-3.7 2.6-.9 5.3.2 7.9 0 3.4 0 6.6-1.8 9.6-3.4q4.7-2.3 9.6-4.3c5.7-2.3 9.9 3.2 14 6q2.4 1.3 4.4 3c2.9 2.6 5.7 5.8 9.6 6.7 4.1.9 8.2-1 12.3-1.4 5.6-.6 11.2-1 16.6-2.6q3.9-1 7.9-1.4 3 0 6.1.2 2.9-.1 5.3-1.8c2.7-1.7 6.5-3.5 9.6-1.5 2 1.3 3.5 3.4 5.3 5 2.3 2.1 4.7 1.6 7-.4 3-2.5 7.4-8.6 11.3-4 2.2 2.4 3.8 5.6 6.2 8" class="b"/><path d="M8 47c2.1.3 4.1 1.5 6.2 2.1a39 39 0 0 0 17.5 1.3c3.3-.7 6.2-3.1 9.6-3.6 2.6-.5 5.3.3 7.9.2 3.8 0 7.3-2 10.5-4q4.2-2.7 8.7-5c6-2.7 10 2.3 15 4.5 1.7.7 3.7 1.6 5.2 3 2.7 2.5 5.3 5.3 8.7 7 3.8 1.8 8.2.6 12.3.3 4.6-.4 9.4-.3 14-1.4 2.8-.6 5.8-1.5 8.7-1.8 2.6-.3 5.4-.1 7.9-.8s4.6-2.5 7-3.4c2.7-1.2 6-2.5 8.7-.8 3.9 2.2 6.3 8.2 11.4 7.3 2.3-.6 4.2-2.4 6.1-3.8 4.8-3.7 7.5 3 10.5 5.7" class="b"/><path d="M8 47q3.1.8 6.2 1.9c8.3 2 14.9 1 22.7-2 4.5-1.6 9.4-.5 14-1.3s8.5-3.2 12.3-5.8c2.5-1.5 5-3.6 7.8-4.2 3.4-.7 6.7 1 9.7 2.3 2.2 1 4.7 1.4 7 2.3 4.7 2.7 8 7.8 13.1 9.8 3.6 1.4 7.6 1 11.4 1.1 4.7 0 9.4 0 14-1 4.3-1 9-1.3 13.1-2.9 2.1-.8 4.1-2.2 6.1-3.2 2.6-1 5.2-2.4 8-3.2 5.7-1.3 8.8 5.1 13 7.8 5.7 3.9 7.6-1.9 12.3-1.3 2 .7 3.6 2.6 5.3 4" class="b"/><path d="M8 46.9A35 35 0 0 0 30 48l7-2 6-1q9.7-.7 18.4-5.2c4-2 7.5-5.7 12.3-5.7 2.6 0 5.3 1 7.8 1.5 2 .5 4.2.6 6.2 1.2 3 .8 5.4 3.2 7.9 5.1 3 2.7 6.4 5.2 10.5 6.1a62 62 0 0 0 11.3 1.4 41 41 0 0 0 21-3.6c2.7-1.3 5.1-3.4 8-4.5l5.2-2.3c1.9-.9 4-1.9 6.1-1.8 5.2.4 8.1 5.7 12.3 8.2 3.4 2.4 6.1-.2 9.6.3 1.6.4 3 1.7 4.4 2.6" class="b"/><path d="M8 46.3c6 2.6 13 3.1 19.3 2 4.2-.6 8-2.5 12.2-3.3 7-1.3 13.4-4.7 20.2-6.5q3.1-.7 6.1-2c2.2-1 4.5-2.4 7-2.8 3.8-.7 7.6.3 11.4.3 6.2 0 10.2 3.3 14.9 6.8q4.6 3.7 10.5 5.1 4.7 1.2 9.6 1.9c4.3 1 9 1.3 13.1-.5 4.5-1.6 8.3-4.5 12.3-7q3.4-1.7 7-3c5-2.4 8.7-5.2 14-1 2 1.4 4 3.3 6.1 4.8 4.7 2.8 6.8-.1 12.3 4.1" class="b"/><path d="M8 45.2c4.2 2.5 9.3 2.6 14 2.6q4.8 0 9.7-1a118 118 0 0 0 11.3-4c5.8-2.6 11-7 17.6-7.7 2.8-.4 5.9-.2 8.7-1q5.6-1.7 11.4-1.7 2.6-.2 5.2-.2 3.1.4 6.2 1.5c3.4 1.3 6.4 3.6 9.6 5.4q4.6 2.7 9.6 4c3 .9 6 1.5 8.8 2.7 4.4 2.2 8.7 2.5 13.1 0 3.7-1.8 7.1-4.2 10.5-6.4 2-1.5 4.6-2.3 7-3q3.1-1.1 6.1-2.7c2-1 4-2.1 6.2-2.1 4 .3 7 3.6 10.5 5.4q3 1.3 6 2.3 2.4 1 4.5 2.6" class="b"/><path d="M8 43.7c3.5 2.5 8.1 2.6 12.3 2.2q4.8-.8 9.6-.4c5.6.5 11.3-3.1 15.8-6.2 5.2-3.5 10.7-8.6 17.5-7.7 2.3.3 4.7.8 7 .6 4.4-.3 8.7-1.2 13.1-1.5 3.3-.4 6.5 1.2 9.6 1.9 5.8 1.6 10.8 5.3 16.7 6.6 2.9.7 6 1.2 8.7 2.6 1.8 1 3.5 2.5 5.3 3.5 3.6 2 7.2.7 10.5-1.4 4.4-2.2 8.5-5.2 13.1-7.1 2.6-.8 5.4-1.3 7.9-2.4 2.7-1.2 5.1-3.2 7.9-4.3 3.6-1.3 7.2 1 10.5 2.5Q179 35 184 38.5" class="b"/><path d="M8 42c3 2.3 7 2.6 10.5 2 2.9-.5 5.8-1.6 8.8-1.2 5.5 1.3 7.1 2.3 12.2-1.1 6.6-4.5 12.2-11.1 20.2-13.2 3-.7 5.9.5 8.7 1.2q3 .5 6.1.2c3.5-.3 7-1 10.5-.4 1.8.4 3.5 1.3 5.3 1.8q3 .4 6.1 1.1c3 .9 5.8 2 8.8 2.5q3.8.6 7.8.7 3.5.1 6.2 2.2c3 2.5 5.3 6.7 9.6 6.7 2.6-.1 4.7-1.8 7-2.8 3.7-1.8 7.5-3.8 11.4-5.1 3.6-.9 7.4-1.4 10.5-3.5 3.1-1.8 5.8-5 9.6-5.1 2.4-.1 4.8.8 7 1.6q5.3 2 9.6 5.6" class="b"/><path d="M8 40.6c3 2.1 7 2.3 10.5 1.4 2.6-.6 5.2-1.8 8-1.4 4.3.7 7 3.7 11.3.7 3.3-2 5.9-5 8.7-7.6q4.4-3.8 9.7-6.2c7.7-3.2 8.8-.1 15.7.6 3.5.3 7-.4 10.5.3 2 .4 4.1 1.4 6.1 2 1.7.4 3.6.2 5.3.3 3.5.2 7 1 10.5.8 4.1 0 8.1-2.2 12.3-1.5 3.7 1 5.5 5 7.8 7.8 5 6.4 8.7 3.5 15 1.1q3.8-1.6 7.8-2.6c2.6-.6 5.4-1 7.9-2.1 4.2-1.8 7.2-5.6 11.4-7.4 5.8-1.8 12.8 2 17.5 5.4" class="b"/><path d="M8 39.2c2.6 1.7 5.9 1.6 8.8 1.2q2.6-.7 5.2-1.6c3-1 6.1-.1 8.8 1.3q4.3 2.2 7.9-1c2.5-2 4.8-4.6 7-6.9q4.1-4.2 9.6-6.3 4.6-1.7 9.6-1 3 .6 6.1 1.4 3.6.6 7 1 3.1.6 6.2 1.5 2.5.7 5.2.7 2.6-.4 5.3-.7c2.9-.2 5.9-.2 8.7-.9 3-.7 5.9-2 8.8-3 9.7-4 10.8 8.3 16.6 12.9 3 2.8 7.3 1 10.5-.4q3.8-1.6 7.9-2.7c2.6-.5 5.4-.8 7.9-1.9 4.1-1.6 7.4-5 11.4-7 5.8-2.4 12.5.8 17.5 3.9" class="b"/><path d="M8 37.5c2.7 1.3 6 .9 8.8.3 2.3-.6 4.6-1.7 7-1.8 6-.7 9.3 6.7 14.9 1.6 5.4-4.7 9.1-12 16.6-13.7 7.7-1.6 15.3 1.5 22.8 3 3.4.8 7 1.7 10.5 1q3-.6 6-1.4 5-.8 9.7-2.5c3.2-1.2 6.3-3 9.6-3.8 6.4-2 9 4.5 11.4 9 1.5 2.8 3.3 6 6.1 7.5 2 .9 4.3.2 6.2-.5 2.8-1.4 5.7-3 8.7-4 3.8-.8 7.9-.8 11.4-2.6 3.3-1.4 6.3-3.8 9.6-5.2 5.6-2 11.6.5 16.7 3" class="b"/><path d="M8 35.1c3.2 1 6.6 0 9.7-.7 2.8-.8 5.8-1.7 8.7-.8 2.6.7 4.7 2.6 7 3.7s4.5 0 6.1-1.6c2.3-2.1 4.2-4.8 6.2-7.1 2.4-3 5.6-6 9.6-6.6 6.9-.6 13.5 2 20.1 3.3a28 28 0 0 0 18.4-.6q5-1.3 9.6-3.3c3.2-1.4 6.3-3 9.7-4 8.6-2.7 10.5 6.3 14 12 1.7 2.8 4 6.8 7.8 5.6 4-1 6.8-4.4 10.5-5.7 4-1.3 8.4-.5 12.3-2 3.3-1 6.4-2.8 9.6-4 5.6-2 11.5.2 16.7 2.3" class="b"/><path d="M8 32q3.1.1 6.2-.8c2.6-.3 5.2-1 7.8-1.1q3.9-.2 7 2c3.3 2 6.6 6.2 10.5 2.8 5.2-4.2 7.7-11.6 14-14.3 1.7-.7 3.6-.5 5.3-.4 4.8.1 9.3 1.7 14 2.6 10.1 2 16.4 2.8 26.2-1.5 4.1-1.7 8-4.2 12.3-5.5 10-3.3 11.7 5 15.8 12 1.5 2.1 3 5.5 6 5.7 5.5-.6 8.6-7.6 15-8.2 2.3-.3 4.7 0 7-.1q3-.1 6-1c2.7-.8 5.3-2 8-2.6 5-1.2 10 .7 14.9 2" class="b"/><path d="M8 28.2c2.1 0 4.1-1 6.2-1.3 4.3-.4 9.1-1 13 1.3 3 1.5 5.1 4.3 8 6C41.3 37.2 46.4 25.5 50 22c2-2.3 4.7-4.2 7.8-3.8q3.1-.1 6.2.4l5.2 1.2c3.8.7 7.6.9 11.4 1.5 3.2.6 6.4 1.4 9.6 1.4 6.2-.1 11.3-4.3 16.6-6.9 16.5-7.5 15.1 7.2 23.7 15.3 4.4 3.2 9.4-5.5 13.1-7.5q3.6-2.3 7.9-1.7c3.2.3 6.4.7 9.6.2 3.8-.6 7.5-2.2 11.4-2.4 3.8 0 7.6 1 11.4 1.8" class="b"/><path d="M8 24.9q2.3-.8 4.4-1.7c2.5-.9 5.3-.4 7.9-.2 12.4 1.2 14.9 17.5 24.5 6.2 2.4-3 4.4-6.4 7-9.2 1.9-2 4.1-3.5 7-3.3q4.5-.6 8.8.7c5 1.7 10.7 0 15.7 2.2 3 1.2 6.3 2.9 9.6 2.6 6.7-.9 11.2-6.8 17.5-8.5 10.2-2.4 12.6 8 17.5 14.3 1.2 1.6 3.2 3.3 5.3 2.4 3.6-1.8 5.8-5.5 8.8-8.2 2.2-2.2 5.5-3.5 8.7-3.2 2.6.2 5.3.9 7.9 1q3.5.3 7-.4c2.6-.5 5.2-1.3 7.9-1.3q5.2.2 10.5 1.2" class="b"/><path d="M8 22.9c1.8-.8 3.4-2.3 5.3-3 3.4-.8 7.2.2 10.5 1.5q4.4 2.1 7.9 5.5c3.5 3.4 7.7 6.7 12.2 2.9 4.7-4 7-10.3 12.3-13.6q1.6-.6 3.5-.8 2.2-.4 4.3-.3c2.4 0 4.7 1 7 1.3 2.4.2 4.7-.5 7-.5 5.4 0 8.9 5.4 14 6.3 7.3.5 11.7-7.1 18.4-8.5 8.7-1.3 12 8 16.6 13.3 1.5 1.9 3.9 3.3 6.2 1.8 3.5-2.3 5.7-6.2 8.7-9 2.5-2.7 6.1-3.9 9.7-3.4 4.3.7 8.6 2.2 13 1.5 2.7-.2 5.3-1 8-1.2q5.6 0 11.3.9" class="b"/><path d="M8 22.3c1.5-1 3-2.4 4.4-3.3 2.6-1.6 6-1 8.8-.3q4.8 1.6 8.7 4.9c4 3.3 9.6 8.6 14.9 4.7 4.9-3.5 7.3-9.5 12.2-12.8q3.4-1.4 7-1.6c2.4-.2 4.7.9 7 .8 2.4.1 4.7-1.3 7-1.4 5.6.3 8.5 7.4 14 8.6 5.5 1 9.8-3.4 14-6 5-3.5 10.2-1.4 14 2.7 2.6 2.8 4.7 6.4 8 8.6 2.8 2.1 5.8-.3 7.8-2.5 6-6.9 8.6-13 19.3-9.8 6 1.9 10.5 1.5 16.6.3q6.1-.3 12.2.4" class="b"/><path d="M8 22.3c4.5-3.2 5.3-5.5 11.4-4.6q5.2.9 9.6 3.9c5 3.1 11.7 9 17.6 4.4 2.6-2 4.8-4.8 7-7.3 1.6-2 3.5-4 6-4.6 2.3-.8 4.7-1.5 7-1.1 6.9 1.5 7.6-2.6 12.3-2 2.2.5 3.8 2.3 5.3 4 2.6 2.8 5.4 6.4 9.6 6.5 5.1.3 9-3.4 13.1-5.7 4.7-2.8 9.6-.4 13.2 3 2.5 2.4 4.7 5.5 7.8 7 3 1.6 6-1 8-3 4.8-5.2 8.1-12.2 16.6-10.4 4 1 8 2.4 12.2 2.2q4-.3 7.9-1a96 96 0 0 1 11.4 0" class="b"/><path d="M8 22c2.2-1 4-3 6.2-3.8 5.2-1.2 10.9.5 15.7 2.6 8 3.3 12.5 9 20.1 1.1 2.7-2.4 4.7-5.9 8-7.7q3.3-1.7 7-2.2 2 .2 4.3 0c3.7-.4 6.6-5.2 10.5-3 6.5 4.3 7.7 13.2 17.5 11.3 5.2-.8 8.8-5.6 14-6 4.1-.3 7.7 2.4 10.5 5 2.2 1.7 4.2 4.1 7 4.8 4.5.7 7.8-4.1 10.5-7 6.4-7.5 9.3-7.1 18.4-4.9 5 1.2 10 .5 14.9-.4q3-.2 6.1-.1h5.3" class="b"/></svg>