<svg xmlns="http://www.w3.org/2000/svg" id="a" width="1920" height="2400" viewBox="0 0 192 240"><defs><style>.b{fill:none;stroke:#fff;stroke-miterlimit:10;stroke-width:.3px}</style></defs><path d="M0 0h192v240H0z" style="stroke-width:0"/><path d="M11.6 222.8a30 30 0 0 0 5 3.3q3.3 1.4 6.8 1.3c1.7 0 3.3-.9 5-1 2.5 0 5 .6 7.6 0 1.6-.4 3.3-1.2 5-1.6q3-.6 5.9-1.2c3.6-.7 7.2-2.3 10.9-2.6 5.6 0 6.5.6 11.8-2.2q3.2-1.6 6.7-3 3.4-1 6.7-2.5c7-4 8.1-3.2 14.3 1.5 5 3.4 8.8 2.5 12.6-2.2q3-3 5.9-6c.6-.5 1.7-.5 2.5-.5h3.3c1.8 1.9 3 4.4 4.2 6.6s3 5 6 4c3.4-.8 7.1-2.4 10.8-2 5.6 2.5 8 14.5 14.3 16.6 3.8.7 7.4-2.4 10.1-4.7 3.8-3.2 7.9-8.7 13.4-6.8" class="b"/><path d="M11.6 218.7c3 1.6 5.4 4.2 8.4 5.7 2 1.3 4.4 2.5 6.7 1.7 2.4-.7 5.1-.6 7.6-1.2 2.3-.7 4.4-2 6.7-2.6 2.8-.7 5.7-1 8.4-1.9 3.3-1 6.6-2.3 10-2.5q3.5 0 6.8-.9 3.7-1.4 7.6-2.8c4.1-1.5 8.7-1.9 12.6-4a9 9 0 0 1 8.4 0c4 2.3 8.2 5.4 12.6 2 1.9-1.6 3.7-3.5 5.8-4.8 1.6-1.2 3-3.4 5-3.3 1.2 0 2.6-.2 3.4.6 3.1 2.5 4.5 6.6 6.8 9.7 1.4 2.1 3.7 2.1 5.8 1.2 2.5-.8 5-2.4 7.6-2.3 3.9 1 6.7 8.5 9.2 11.6 5.6 8.1 11 3.4 16.8-1.3 3.7-2.7 7.5-8 12.6-6.4" class="b"/><path d="M11.6 216c2 0 3.6 1.2 5 2.3L20 221c1.8 1.5 3.4 3.8 5.9 4.2q1.3 0 2.5-.6l4.2-1.2c2.6-.9 5-2.4 7.6-3.3 2.1-.8 4.5-1 6.7-1.5q4.2-1.2 8.4-2.7c3.5-1 7.3-1.4 10.9-2l8.4-2.4c3.8-1.1 8-.8 11.8-2.4q5-2.4 10-.2c7.6 3.4 8.8 2 15.2-2.3 2-1 3.7-2.6 5.8-3.4 5.7-1.7 8.6 5 11 8.9 1.2 2.2 3 4.2 5.8 3.2 2-.7 3.9-2.2 6-2.6 4-.6 6.9 6.8 9.2 9.6 6.4 9.7 13.5 1.6 20.1-3 3.1-2.2 6.8-6.1 11-4.9" class="b"/><path d="M11.6 214.6c4-2 8.6 2.7 11 5.6 2.7 3.1 3.5 4 7.5 2.1 4.3-1.5 8.1-4.3 12.6-5.4 6.6-1 12.8-3.9 19.3-5.5q2.5-.5 5-.7a123 123 0 0 1 16-2c3.5 0 6.6-2.1 10-2 2.4.1 4.6 1 6.8 1.4 4.1 1.2 7.4-.7 11-2.5 1.9-.9 3.8-2.2 5.8-3 6.4-2.3 10 3.5 12.6 8.3 1.2 2.1 3.1 4.8 5.9 3.7 1.4-.4 2.7-1.4 4.2-1.7 4-.6 6.2 4.7 8.4 7.3 1.4 2 3.3 4.1 5.9 4.3 4.5 0 8.2-3.2 11.7-5.7 3.7-2.4 10.8-8.1 15.1-7" class="b"/><path d="M11.6 213.4c2.8-2.2 5.7-1.6 8.4.4 1.6 1.3 3 3.2 4.2 4.8 1.4 1.6 2.8 3 5 1.8 5.1-1.9 9.8-5.1 15.2-6.2q6-1.4 11.7-3.5c2.5-.8 5-2 7.6-2.4q5-.6 10-.7c3.1-.5 6.2-1 9.3-.4q2.1.3 4.2 0c2.2-.5 4.4-1.4 6.7-1.3 2.5.1 5 .9 7.6 1 3.8 0 7.5-1.7 10.9-3.3 4.8-2.5 10.5-3.5 14.3 1.3 2.2 2.5 3.5 6 5.9 8.4 2.1 2 5 0 7.5.4 2.1.5 3.7 2.3 5 4 5.2 6.6 7.8 5 14.3 1.2 4.1-2.7 8-5.8 12.6-7.7 2.7-1 5.6-2 8.4-1.6" class="b"/><path d="M11.6 211.1c2.8-1.7 5.3-2.8 8.4-1 3.3 1.6 5 7.5 8.4 7.7 5-1 9.4-3.8 14.3-5.1q6.3-1.8 12.6-4c2.8-.9 5.5-2.4 8.4-3 3-.4 6.2.1 9.2.3 2.5 0 5-.8 7.6-.6 2.2 0 4.4 1.1 6.7 1 2-.2 3.9-1.1 5.9-1.2 2.5-.1 5 .5 7.5.6 4.5.2 8.7-1.5 12.6-3.5 5.5-2.3 11.4-2.4 15.2 2.9 2 2.5 3.1 6 5.8 8 1.5.9 3.4 1 5 1.3q2 .4 3.4 1.5c4.5 3.4 6.1 6.6 11.8 2.5 3.7-2.4 7.1-5.3 11-7.5a23 23 0 0 1 15-2.7" class="b"/><path d="M11.6 207.5c6.2-4 9.6-2.3 13.4 3.4 2.6 3.6 3.3 4 7.6 3q6.3-1.6 12.6-3.4 4.6-1.8 9.2-3.3 3.8-1.5 7.6-3 3-.8 5.9-.5 3.4.8 6.7 1c2-.2 4-.7 5.9-.6 2.8 0 5.5 2 8.4 1.2q2.4-.6 5-.8 3 .3 5.9.7 4.8.2 9.2-1.6 3-1.5 6-2.6c5.4-1.4 10.6-1 14.2 4 2 2.5 3.3 5.8 5.9 7.8 2.2 1.6 5.2 2 7.5 3.4 2.1 1 4.2 3.2 6.8 2.7 1.9-.5 3.5-1.9 5-3.1l5-4.1q2.4-2 5-3.3 2.6-1 5.1-1.4 2.5-.6 5-.5 3 .4 6 1.6" class="b"/><path d="M11.6 203.7c11.5-8.5 13.1 6.6 18.5 7.2q3.4.3 6.7-.3 3.7-.4 7.6-1.1 3-.9 5.8-2.1l4.2-1.4c8.4-3 8.4-5.3 17.7-2.5 3.3.8 6.7-1 10 0 1.4.2 2.9 1 4.3 1.2 1.6.3 3.4-.3 5-.5q2.5-.3 5 .2c4.2.8 8.8.8 12.6-1.2 2.2-1.1 4.4-2.5 6.8-2.9 6.8-1.2 11.2-.1 15 6 1.5 2.2 3 4.7 5.1 6.1 2.3 1.4 5.2 2 7.6 3.2 3.5 2 5.7 3 9.2.1 3.4-2.7 6.2-6.3 10.1-8.3q2.4-1.1 5-1c5.2-.4 8-1 12.6 2" class="b"/><path d="M11.6 201.1c3.6-3.5 8-4.6 11.8-.7 2.3 2.2 3.6 5.9 6.7 7.2q4.1.7 8.4.5c3.4 0 6.8-.1 10-1.3 2.8-1 5.7-1.2 8.5-2.2 2.7-.8 5.4-2.4 8.4-2.7 2.6-.2 5 1.3 7.5 1.6s5-.8 7.6-.7c2 0 4 1 5.9 1.4 1.6.2 3.4-.4 5-.6 3.4-.3 6.7 1.2 10 1 7.3.2 9-4 15.2-4.8 6.2-1 10.5 0 14.3 5.3 1.6 2.2 3.2 5 5.9 6.2 2.4 1.1 5.2 1.5 7.5 3 1.8 1 3.7 2.5 5.9 2.1 2-.4 3.6-2 5-3.4q2.7-3.2 6-5.6c2.3-1.7 5.5-1.4 8.3-1.4q3 0 5.9.3 2.8.2 5 1.8" class="b"/><path d="M11.6 199.6c3-3.3 6.8-5.4 11-2.7 2.2 1.8 3.7 4.5 5.8 6.5 2 1.8 5 1.7 7.6 2l6.7.6q3.7 0 7.5-.7 2.6-.3 5-.3c3.5-.2 6.7-1.7 10.2-1.9 2.5-.2 5 1.3 7.5 1.3 2.6 0 5-1.3 7.6-1.3 2 0 4 1 5.9 1.2s3.9-.6 5.8-.7c3.7.1 7.3 1.4 11 .9q2.7-.3 5-1.5c1.7-.8 3.3-2 5-2.7 2.1-.9 4.5-1 6.8-1.3 3.7-.4 7.6 1 10 3.8s4.5 6.5 8.4 7q3.6.5 6.8 2.3c3.6 2.6 6 4.6 10 .9 3.8-3.8 8.5-8.2 14.3-7.3q3 .6 5.9 1.3c1.6.2 3.4 0 5 .4" class="b"/><path d="M11.6 198.7c1.6-1.8 3.5-3.8 5.9-4.5 2-.4 4.3 0 5.9 1.3 3.9 3.4 4.2 6.4 10 7l10.1 1.4c2.2.2 4.5 0 6.7.2q3.4.3 6.8.8 3.7 0 7.5-.1c2.8 0 5.6 1.2 8.4.8 2.6-.5 5-2 7.6-2 1.7 0 3.4.7 5 1.1 2 .6 4 0 5.9-.5 2-.3 4 0 5.9.1 3.4.3 7 .2 10-1.2 2.6-1.2 4.9-3.2 7.6-3.9 3.5-.8 7.5-1.6 11-.2a16 16 0 0 1 5.8 4.5c1.6 1.8 3.4 3.7 5.9 3.8 2.8.2 6 0 8.4 1.7 2.4 1.5 4.5 4.1 7.6 4.2 6.5-.5 9-9.6 16.8-7.6 3.3.9 6.5 3 10 2.1" class="b"/><path d="M11.6 198c2.8-3.4 6.2-6.8 11-4.7 2 1 3.3 3 5 4.6 2.4 2.2 6 2.2 9.2 2.7l7.6 1.5 5.8.8 6.8 1.4 8.4 1.3c2.1.4 4.5 1 6.7.4 3-.8 5.9-3.2 9.2-2.6 5.5 1.5 4.7 3 11 1 3.5-.8 7.2-.2 10.9-.6 7.5-1 7-5.6 17.6-6.4 4.9-.6 8.5 2.8 11.8 5.8a7 7 0 0 0 5.8 1.8c6-1 8.2-.6 12.6 3.7 2.6 2.5 5.2 4 8.4 1.7 4.7-3.6 7.1-6.6 13.5-4 2.4.8 5 2.1 7.5 1.6" class="b"/><path d="M11.6 197.4c2-2.4 4.2-5.6 7.6-6 3-.5 5.5 1.9 7.5 3.9 2.2 2.1 5.5 2.6 8.4 3q5.5.9 11 2.4l16.7 3.6c8.2 1.8 8.4-.6 15.2-2.7 4.1-1 6.4 2.4 10 3 2.7.2 5-1.5 7.6-1.8 3-.5 6.2.2 9.2-.3 4.4-.7 7.4-4.7 11.8-5.5 6.9-1.7 9.2-.5 14.3 4.1 1.4 1.1 3.1 2.4 5 2.1 5.4-1 9-3.5 14.3.1 2.5 1.7 4.6 4.4 7.6 5.3 3.3 1 6-2 9.2-2.7 2.2-.5 4.6 0 6.7.6s4.5 1.4 6.7 1" class="b"/><path d="M11.6 196.4c4.2-5.6 8.3-9 14.3-3.3 2 1.9 5 2.6 7.5 3.3q3.8.6 7.6 1.4 2.6.7 5 1.5 5.9 1.2 11.8 1.9c4.2.6 8.7.9 12.6-1 1.9-.9 3.8-1.9 5.9-2.2 2.6-.5 5.4.2 7.5 1.7 1.6 1 3.2 2.3 5 2.5 2.2 0 4-1.4 6-2 3.5-1.4 7.2.3 10.9.2 2.4-.3 4.6-1.8 6.7-3q2.7-1.6 5.9-2c10.1-2.7 10.6 9.2 18.5 5.4q3.6-1.7 7.5-2.6c2.2-.6 4.7-.3 6.7.7 5.5 2.7 8.1 9 15.2 7q3.7-.5 7.5.1c2.2.3 4.5.8 6.7.3" class="b"/><path d="M11.6 195.2c2.6-3.2 6.4-7.7 11-5.7 2.2 1.2 4.1 3.1 6.6 3.9 3.5 1.6 7.3 2 11 2.8 2 .4 3.9 1.3 5.8 1.7q4.2.8 8.4.8c12.5.5 13.8-6.5 22.7-5.4q3.6.2 6.7 1.9c3.4 2 5.3 4 9.3 1.9 4.1-2 7.5-.7 11.7 0q3 .1 6-1c3.8-1.4 9.4-4 13.3-1.9 2.6 1.5 4.2 4.2 6.8 5.6 2.3 1 4.6-.8 6.7-1.8s4.6-1.6 6.7-2.7q5.9-2.9 11 1.3c3.3 2.5 6 6.2 10 7.4 2.4.6 5 .6 7.6.9 2.4.2 5.1.5 7.5-.3" class="b"/><path d="M11.6 194c2.6-3.1 6.4-7.6 11-6 2.2 1.2 4.2 3 6.6 3.7 3.7 1.8 7.8 2.3 11.8 3.2q2.6.8 5 1.5 3.3.6 6.8.2c8.6-.6 10-4.9 16.8-7.6 2.1-.7 4.5-.1 6.7.2 3 .5 6.5.3 9.2 2 4 2.3 4.8 3 9.3 1.5 3-.9 6.2 0 9.2.6 4 .8 7.9-.9 11.8-1.4 2.1-.2 4.5-1 6.7-.3 3.1 1.2 4.8 4.6 7.5 6.3 2.6 1.7 5.3-1 7.6-2q3.9-1.3 7.6-3.4c8.7-5.2 13.4 3.4 20.1 7.4q2.4 1.3 5 2c3.3 1 7 1.6 10.1.3" class="b"/><path d="M11.6 192.5c2.8-3 6.4-7.4 11-6q2.1 1.1 4.1 2.5c.7.4 1.8.7 2.5 1 3.7 1.8 7.8 2.5 11.8 3.2q2.6.6 5 1.3 3 .5 6 0c9-.9 11.4-10.1 19.2-9q2.6.6 5 1 2.6.2 5.1-.3c3.7-.6 6.7 2 10.1 3 2 .2 4-.4 5.9-.4q3.3.1 6.7.9c4.5.9 9-.9 13.4-1 1.7-.1 3.5-.3 5 .4 3.2 1.5 4.8 5 7.6 7 2.7 1.6 5.3-1.1 7.6-2q2.6-1.2 5-2.3 2.5-1.5 5-2.7c7.4-2.8 12.1 2.4 17.7 6q2.9 1.8 5.9 2.8c2.9 1.3 6.3 2.5 9.2 1" class="b"/><path d="M11.6 190.8c2.8-2.9 6.4-7.3 11-6 2.2 1 4.1 3 6.6 3.7 3.7 1.7 7.8 2.3 11.8 2.9q2.1.4 4.2 1 3.4.5 6.7 0c3.3-.7 6-2.7 8.4-4.9 1.8-1.5 3.6-3.4 5.9-4.1 3-.9 6.2.6 9.2.8 2.6.3 5.1-.8 7.6-1.3q2.7-.4 5 .6 2.1 1 4.2 1.8c2 .4 4 .2 6 .3q3.2.2 6.6.8c4.2.5 8.4-.7 12.6-.7q2.7-.2 5 .7c2.9 1.5 4.5 4.5 6.8 6.7 3 3 6.3-.2 9.2-1.4q2.3-.8 4.2-2c1.7-.8 3.3-2 5-2.6 5.4-2 11.3-.2 16 2.5q3.3 1.8 6.8 3.2c3 1.5 6.7 3.2 10 1.5" class="b"/><path d="M11.6 189c3-3 7.1-7.2 11.8-5.5 2 .9 3.7 2.6 5.8 3.3q5.8 2.1 11.8 2.7c4.1.8 8.5 1.8 12.6.3 2.6-1 4.7-3.1 6.7-5 1.5-1.4 3-3 5-3.5 2.3-.4 4.6.2 6.8.7 6.2 1.5 8.1-1.4 13.4-2.2 3.4-.6 6 2.2 9.3 2.7l5.8.4 6.8.5c3.6 0 7.2-.5 10.9-.2 7.7-.5 8.7 8.9 14.3 8.9 2.6-.5 5-2.3 7.5-3.3 2.9-1 5.5-3 8.4-3.8 6.8-1.9 13.8.5 20.2 2.9 3.7 1.4 8 3 11.7.7" class="b"/><path d="M11.6 187c3.4-2.7 7.9-6.9 12.6-5.3 2 1 3.8 2.7 5.9 3.5 3.7 1.5 7.8 2 11.7 2.5s8 1.5 11.8.3c4.5-1.5 6.6-6.7 11-8.4 2.4-.6 5 .3 7.5.7 3.1.7 6.4 0 9.2-1.2 2.6-1 5.6-2.5 8.4-1.7q2.6 1 5 2 3.4.7 6.8.7l6.7.5q4.6 0 9.2.3 4.6-.1 7.6 3.1c1.9 1.9 3.4 4.5 5.9 5.5 2.7.8 5.2-1.2 7.5-2.1 4-1.6 7.6-4 11.8-4.7 5-.8 10.2 0 15.1 1 5.5 1.3 9.7 3.1 15.1.1" class="b"/><path d="M11.6 184.8c3.7-2.5 9.6-7.4 14.3-4.7 2.4 1.4 4.7 3.5 7.5 4.1q5.9 1.3 11.8 1.9c3 .2 6.3 1 9.2 0 5.4-2 7-9.6 13.5-8.4 3.9.4 7.9 1.1 11.7-.1 2.8-.8 5.6-2 8.4-2.6 2.3-.3 4.6.6 6.8 1.2q3.7 1 7.5 1.3 6 .8 11.8 1.2c2.5.3 5.2 0 7.5 1 3.5 1.4 5.2 5.3 8.4 7 2.6 1.4 5.3-.3 7.6-1.3l8.4-3.7c6.4-2.4 13.5-1 20.2-.4 5.7 1 8.6 1 14.2-1" class="b"/><path d="M11.6 182.3c4.7-2.7 10.5-8 16-4.1q2 1.5 4.2 2.9 2.3 1.1 5 1.6c3.3.7 6.7.8 10 1.2 2.6.2 5.1.9 7.6.6 5-.9 6.6-6.9 11-8.7 4-1 8.4.2 12.6-.6q3-.3 5.8-1c2.2-.6 4.5-1.3 6.8-1.2 2.2 0 4.5.6 6.7 1 5.9.8 11.6 2.8 17.6 2.9q3 0 5.9.4c3.5 1 5.5 4.5 8.4 6.5s6.4-.2 9.2-1.4a32 32 0 0 1 19.4-4q4.1.5 8.4.6c1.9 0 4 .3 5.8.1 2.8-.2 5.6-1.2 8.4-1.3" class="b"/><path d="M11.6 179.5c3.6-1.9 7-4.5 11-5.4 2.3-.4 4.7.6 6.6 2 1.4 1 2.8 2.3 4.2 3q2 1 4.2 1.4c5.3 1.1 10.7 1 16 1.9 3.8.6 6.3-2 8.4-4.7 2-2.6 4.2-4.6 7.6-4.8 3.6-.3 7.3-.3 10.9-.8a54 54 0 0 1 21 .3c3 .9 6 2.1 9.2 2.5q3.3.2 6.7 0 3.2-.5 6 1.3c1.7 1.2 3.2 3 5 4.3 2.5 2.2 5.6 1.3 8.4 0a38 38 0 0 1 16.8-4.4c3 .2 6.1.8 9.2.9q4.6.1 9.2-.4c2.8-.4 5.7-1.4 8.4-.5" class="b"/><path d="M11.6 176.4c2.8-1.5 5.5-3.3 8.4-4.5 2.5-1.2 5-1.5 7.6 0 2.4 1.2 4.3 3.5 6.7 4.9 3.6 1.9 7.8 2.3 11.7 2.7 2.2.1 4.5-.2 6.8 0 1.6.1 3.4.5 5 .2 3.8-1 5.5-5 8.4-7.3 2.3-2 5.6-2 8.4-2.5q4.6-.9 9.2-1.3 3 0 6 .4c2.7.4 5.6 0 8.3.6 3 .5 5.7 1.8 8.4 2.7q3.3 1 6.7.6c9-.7 8.3-1 15.2 4.7 2.5 2 5.7 1.2 8.4 0 5.3-2.2 11-4.1 16.8-3.7 3.3.3 6.7 1.3 10 1.2q3.8 0 7.6-.7c3-.6 6.4-1.3 9.2.2" class="b"/><path d="M11.6 173q4.9-2.9 10-4.9c4.3-1.7 8.2 1.7 11 4.5 2.5 2.6 5.9 3.8 9.2 4.6q4.3 1.3 8.4.1 2.5-.7 5-.8c2.9.1 5.4 0 7.6-1.9 5-4.5 5.5-4.6 11.8-6.5 4-1.3 8.3-3.2 12.6-2q2.5.6 5 1 2.7 0 5 .3c3 .5 5.7 2 8.5 3q3.7 1 7.5.4c7.4-.6 8.2-2.3 14.3 3 3.3 2.7 6.5 1.8 10.1.4 4.8-1.7 10-3 15.1-2.6 3.7.3 7.3 1.7 11 1.7a45 45 0 0 0 8.3-1 18 18 0 0 1 4.2-.5q2.3.3 4.2 1.3" class="b"/><path d="M11.6 169.2q4.9-2.5 10-4c4.6-1.7 8.2 1.7 11 4.9 2.2 2.5 5.3 4.2 8.4 5.3 1.9.6 3.9 1.4 5.9 1.3 3.6-.4 6.6-3 10-3.7 2.3-.5 4.7-.6 6.8-1.5q2-1 4.2-1.7l4.2-.9q3.5-1 6.7-3c2.3-1.3 4.9-2.6 7.6-2.3q3 .7 5.8 1.3 3 .1 6 .9c3 .8 5.9 2.8 9.2 3.2q2.5.2 5-.3l5-.6c2-.4 4-1 6-.2 1.7.7 3.3 2.2 5 3.1 3.6 2.5 8 .3 11.7-.7q2.5-.5 5-.8 3-.4 6-.4c2.8.1 5.6 1 8.3 1.6q3.8 1 7.6.5c5-.6 8.4-2.2 13.4.4" class="b"/><path d="M11.6 165.5q3.7-1.8 7.6-2.4c2.4-.5 5.1-1.1 7.5-.1 2.8 1.2 4.7 4 6.7 6 3 3 7 5 11 6.3 5.6 1.5 9.7-3.7 14.2-6q3.6-2.1 7.6-1.8c5 .3 9.1.7 13.4-2.2 1.9-1.2 3.8-2.5 6-2.9 1.6-.2 3.3.3 5 .6q2.5.3 5 .6c3.2.6 6.1 2.5 9.2 3.4 2.2.6 4.6 0 6.8-.4 2.5-.4 5.1-.5 7.5-1.4 6-2.2 8.5 4 14.3 3.3 2.5-.3 5-1.1 7.6-1.4q2-.2 4.2-.2 3.3-.4 6.7 0c4 .4 7.7 2 11.7 2.4s7.9-.8 11.8-.7q2.6.3 5 1.3" class="b"/><path d="M11.6 162q3.7-1.3 7.6-1.3c2.8-.1 5.9 0 8.4 1.5 2.8 1.8 4.8 5 7.5 7q5 3.7 11 5.3c5.4.8 9-4.3 12.5-7.6 5.5-5.5 8.6-2.5 15.2-2q3.9.3 7.5-1.6c1.8-.8 3.8-1.7 5.9-1.6l4.2.6q2.2.1 4.2.5c3.4.6 6.5 3 10 3 2 0 4-1 6-1.5q2.5-.4 5-1c3-.8 6-2.5 9.2-.8 7.5 4.1 9.4 1.4 16.8 1.6 4 .3 8 0 11.8 1s7.7 2.3 11.8 2.3q4.1 0 8.4-.2 3 .3 5.8 1" class="b"/><path d="M11.6 158.8c3-1.2 6.2-.3 9.2.3 4.4.7 7.8 3.7 11 6.6q4.6 3.7 10 6c2.4 1 5 2.5 7.6 1.7 8-1.9 10-12.3 16.8-12.9 3 0 6.2 1 9.2 1.2q3.8.2 7.6-.6 3.4-.4 6.7.4 3 .4 5.9 1c3 .5 6 2.2 9.2 2 2.1-.2 4-1.4 6-2.3q2.4-1 5-1.6c2.2-.5 4.4-1.6 6.7-2 2-.5 4 .3 5.9 1q2.8 1 5.8 1.2c3.1 0 6.3-.1 9.3.6 2.4.4 5 .4 7.5.9 4.3.7 8.4 2.3 12.6 3 3.6.7 7.3.6 11 .6l5.8.3" class="b"/><path d="M11.6 155.6c2.9-1 5.8.4 8.4 1.7 4.4 2 7.6 5.8 11.8 8.2 3.9 2.5 8.4 3.8 12.6 5.8 4 1.5 8.6-.6 11.7-3.2 4-3 6.3-9.2 11.8-10 2.8-.2 5.6.4 8.4.7q4.1.3 8.4.7 3 .6 5.9 1.5l5 1c2.5.5 5 1.4 7.6 1.3 3.5-.2 6.2-3 9.2-4.5q3.3-1.3 6.7-2.4c1.9-.7 3.9-1.5 5.9-1.5 2.3 0 4.5.7 6.7 1.1q4.3.7 8.4 1.6 2.6.8 5 1.5 4.3.8 8.5 1.7c4.4 1.1 8.8 2.6 13.4 3.1q6.7.8 13.4-.2" class="b"/><path d="M11.6 152.3c6.3-1.8 12.7 8.7 17.6 11.4 3.4 2 7.3 3.1 11 4.3 4 1.5 5.8 1.7 10 .8 9.2-1.8 10.6-8.8 17.7-11.9 3.5-1.2 7.3-.6 10.9 0q3 .4 5.9 1.3 2.4.9 5 1.8 4.6 1.3 9.3 1.8c5.9.9 9.5-3.3 14.2-6q3.2-1.5 6.8-2.2 4.9-1.8 10-1.2 4.3.6 8.4 2 3.4 1.2 6.8 2.6c3 1 6.2 1.3 9.2 2 8.5 2 17.6 5 26 1.5" class="b"/><path d="M11.6 149c6.3-1 10.4 7.7 14.3 11.6 2 2 4.8 3.2 7.5 4 6.6 2 8.2 3 15.2 1.7 15.4-1.4 13.8-14.7 31-10.7 3.2.7 6.2 2.2 9.3 3.4 3.4 1.1 7.2 2 10.9 1.4 5.3-.9 9.3-5 14.3-7 2.3-1 5-.9 7.5-1.2a41 41 0 0 1 17.7.8c2 .6 3.9 1.7 5.8 2.4 3 1 6.2 1.1 9.3 1.7 5.3 1 10.6 2.3 16 2.6q5.4.1 10-2.6" class="b"/><path d="M11.6 145.8c7-1 9.9 7.9 13.4 12.4a14 14 0 0 0 6.8 4.6q3.3 1 6.7 2 2.5.3 5-.5c3.3-.9 6.8-1 10.1-1.7 9.5-2.3 12-10.8 23.5-8.2q3.9.8 7.6 2.2c4 1.6 8.3 3.3 12.6 2.2 4.8-1.2 8.7-4.5 13.4-6q3-1 5.9-.9 2 .3 4.2.7 3.8.4 7.5.1c4 0 8-1 11.8-.4 2.3.4 4.4 1.7 6.7 2.1q4.3.6 8.4.9c5.9.6 11.8 2.2 17.7 1.4q4-.8 7.5-3.2" class="b"/><path d="M11.6 143c8-2.4 10.2 8 13.4 13q2.3 3.1 6 4.9c2.8 1.1 6 2.7 9.2 1.8 2.2-.4 4.4-1.4 6.7-1.7 3.3-.4 6.9-.5 10-1.9 7.4-3.3 9.5-7.5 18.5-5.7a73 73 0 0 1 8.4 2c2.5.7 5 1.7 7.6 2 8 .4 12.4-9.2 22.7-6.6 2.3.6 4.5 1.7 6.7 2.4 5.5 1.8 11.4.8 16.8-.8q2.1-.5 4.2-.1c1.4.3 2.8 1 4.2 1.2q3.7.6 7.5.2c10.6-.6 17 3.3 27-3.3" class="b"/><path d="M11.6 141c2.5-1.1 5.4-2 7.6.2 3.8 4.4 4.3 11 8.4 15.3 3 3 7.4 5.6 11.7 4.3 2.6-.5 5-1.7 7.6-2 3.4-.5 6.9-.7 10-2 11-5.5 9.7-7 22.7-4 4 .5 7.8 2.2 11.8 2 7.4-1.3 11-12.1 21.8-5.8 8.7 5.3 13.5 8 23.5 3.9q2.5-1 5-1 1.8.4 3.4 1 3.4.5 6.8-.2 3.7-.7 7.5-1c4 0 7.9.2 11.8-.4 3.3-.5 6.3-2.2 9.2-3.7" class="b"/><path d="M11.6 139.8c1.7-.7 3.3-1.8 5-2.4 4.2-1.3 5.6 4.3 6.8 7.2 1.8 5.5 4 12.3 10 14.7 2.2.8 4.6 0 6.8-.5q3-.8 5.8-1.6l6-.9c4.2-.7 8-3.2 11.7-5.3 4.8-3 7.2-2.7 12.6-1.6A95 95 0 0 0 88 151c4.2.4 6.5-2.4 9.3-5q7.6-7 15.1.1c3.9 3.7 8 7.5 13.4 8.6 2.9.5 5.8-.4 8.4-1.5s5.5-2.4 8.4-1.9q2.2.6 4.2.7c4.6 0 9-2 13.5-2.3 9.6-1 11.2-.6 20.1-5.2" class="b"/><path d="M11.6 139.4q2.3-1 4.2-2.7c1.4-1 3.4-2.7 5-1.3 1.8 1.8 2.6 4.8 3.4 7.2 1.5 4.7 2.8 10.3 6.7 13.7 3 2.8 7.4 1.1 11 .4 3.8-1.1 7.8-1.3 11.7-2.3 5.3-1.6 9.5-5.5 14.3-8.3 2.3-1 5-.3 7.5 0q4.3.6 8.4.2c2.3 0 4.7 0 6.8-.8 3-1.3 4.8-4.4 7.5-6.1 4.8-3.3 10-1.3 13.5 2.8 2.7 3 5 6.6 8.4 8.8 2.8 2.2 6.5 3.7 10 2.5 4.2-1.4 8-4.8 12.6-3.8q3 .7 6 .5c3.6-.5 7.2-1.8 10.8-2.6 3.9-.9 8-1.2 11.8-2.3 3.2-.9 6-2.8 9.2-3.8" class="b"/><path d="M11.6 139c2-.8 3.6-2.3 5-3.7 1.2-1 2.5-2.8 4.2-2.6 4.4 2.7 4.8 15.5 9.3 20.3q2.6 3 6.7 2.5 3.7-.3 7.6-1c3.6-.7 7.4-.9 10.9-2.2 4.8-1.9 8.6-5.5 12.6-8.6 1.4-1 3.3-.9 5-.6q2.5.4 5 .1c1.8-.1 3.5-.8 5.1-1.2 2.2-.5 4.6-.8 6.7-1.8 2.6-1 4.4-3.4 6.7-4.9 3.9-2.5 9.2-1.7 12.6 1 4.1 3.3 6.2 8.5 10.1 12 3 2.7 7 5 11 3 2-.9 3.8-2.4 5.8-3.5q3.2-1.6 6.7-.8c6.5 2 13.1-.8 19.4-2.3 3-.9 6.2-1.2 9.2-2.2s6-3.1 9.2-3.4" class="b"/><path d="M11.6 137.8c2.4-.9 4.2-3.1 5.9-5 1-.9 2-2.1 3.3-2.4 3 .2 4.1 6.1 5 8.5 1.8 4.8 3 11.5 8.5 13.3 3 .9 6.2.5 9.2.3 4.5-.4 9.2-.8 13.5-2.5a33 33 0 0 0 9.2-6.6c1.5-1.7 3.5-3 5.9-2.5 4 .9 6.7-.1 10-2.3l6.8-2.9c3-1.2 5.3-3.7 8.4-4.6 4.2-1 9.2.4 12.6 3 3.4 3 5.4 7.1 8.4 10.4 2.8 2.8 6.8 6 10.9 3.8 3.8-1.9 7-6.4 11.8-5.3 11.2 4 16-.3 26.8-2.2q3.5-.7 6.7-2.3c1.9-.8 3.9-1.6 6-1.4" class="b"/><path d="M11.6 136.6c4-1.5 5.8-6.1 9.2-8.5 3.6-1.8 5.6 6.8 6.8 9.2 1.1 3 2.7 6.4 5 8.9 2.6 2.6 6.5 3 10 3.3 4.6.4 9.1-.5 13.5-1.3 4-1 7.4-3.6 10.1-6.5 1.5-1.7 3.5-3.4 5.9-2.6 3.2 1 6-.1 8.4-2.4q2.6-2.4 5.9-4l5-2.4c1.6-.7 3.3-1.7 5-2a23 23 0 0 1 11 2.3c5.6 2.5 8 8.9 12.6 12.6 1.8 1.6 4.2 3 6.7 2.5 5.3-1.2 8-8.5 14.3-6.6q2.4.9 5 1.6 3.3.8 6.7.6 4.7-.5 9.3-1.7l7.5-1.5c3.7-.8 7-3.4 11-2.6" class="b"/><path d="M11.6 135.2c3.8-1.2 5.9-5.1 8.4-8 3.5-4.2 5.8-.3 7.6 3.1 1.4 2.9 2.8 6.1 5 8.6a24 24 0 0 0 11 6.7c3.4 1 7.3.4 10.8 0 5.8-.3 9-2.4 12.6-6.7 1.1-1.1 2.6-2.1 4.2-1.8 5.8 2 7.3-1.3 11-4.9 3.6-3.3 8.5-5.4 13.4-6 2.9-.2 5.7.7 8.4 1.5 3.1 1 6.2 2.5 8.4 4.9 3.7 3.7 6.8 9.5 12.6 9.8 6-.1 8.7-8.5 15.1-7.1 3 .7 6.1 2 9.3 2.2 6.4.8 13-.4 19.3-1.5 3.9-.7 7.7-3.2 11.7-2" class="b"/><path d="M11.6 133.5c4.2-1 6.5-5.1 9.2-8 5.3-6 8.6 2.4 11.8 6 1.5 1.5 3.5 3 5 4.5 2.4 2.2 4.7 4.5 7.6 6 3.4 1.7 7.3 1 11 .6 3.6-.3 6.6-1 9.2-4 1.5-1.6 3.3-4.2 5.8-3.5l2.6.8c2 .3 3.8-1 5-2.5 2-2.4 4-5 6.7-6.6a19 19 0 0 1 15.1-1.6c3.2 1 6.5 1.9 9.3 3.7 4.6 3 7.7 8.8 13.4 10 7 1 9.6-8 16.8-6.8 7.8 1.3 15.6 2.8 23.5 2.2a43 43 0 0 0 7.6-1.2c3-.8 6.2-1.7 9.2-.6" class="b"/><path d="M11.6 131.6c5.3-.6 7.6-6 11.8-8.7 3.9-2.7 7.2.5 10 3q2.7 2.2 5 4.7c2 2.2 3.8 4.8 6 6.9 3.4 3.4 6.5 3.2 10.9 2.3 2.5-.5 5.3-.1 7.5-1.4 2.8-1.5 4.1-5.9 7.6-5.7 1.1.2 2.3 1 3.4 1.1 2 .4 3.8-1.2 5-2.8 4.7-7 10-9.5 18.5-7.8 4.9 1.2 10 2.4 14.3 5.3 3.4 2.5 6.6 6 10.9 6.8 6.5 1.3 10.4-6.3 16.8-6q7 .2 14.3 1.2 5 .8 10 1c5.8.2 11.1-2.6 16.8-.5" class="b"/><path d="M11.6 129.4c4.7 0 7.3-3.7 11-6 6-4.2 11-2.7 15.9 2.4 2.2 2.4 3.9 5.4 5.9 8 4.3 5.4 5.8 4.2 11.7 2.6 1.7-.3 3.4.2 5 0 3.7-.8 4.8-5.8 8.5-6.4 1.5 0 2.7 1.2 4.2 1.6 2 .5 3.8-1.3 5-2.9 3.9-5.6 8.1-8.2 15.1-7.2q3.8.8 7.6 2 4.3.9 8.4 2.5c3.7 1.5 7 4.2 10.9 5.3 6 1.8 10.5-2.6 16-4 3.6-.6 7.3.1 10.9.2q4.2 0 8.4.3c2.8.2 5.6.9 8.4 1 2.5.1 5-.5 7.5-.6q4.3 0 8.4 1.4" class="b"/><path d="M11.6 127c4 .4 6-1.2 9.2-3 3.8-1.6 7.7-3.4 11.8-3.7 4.8-.3 7.9 4 10 7.7 1.8 2.5 3.2 5.7 6 7.2 2.7 1 5-1.6 7.5-2.2a7 7 0 0 1 3.4.3c3 .7 5-2.5 6.7-4.4 1.4-1.6 3.1-2.6 5-1.3 6 4.6 7.6-2.6 11.8-5.4 2.9-2 6.7-2.3 10-1.6 2.6.5 5.1 1.6 7.6 2.3 4.5 1 9.1 1.2 13.5 2.7 4.9 1.7 9 3 14.3 1.8 3.8-.8 7.7-2.5 11.7-2.1 2.8.2 5.6 1 8.4.8 3-.1 6.2-.8 9.3-.7 2.5 0 5 .5 7.5.6s5.1-.2 7.6.2 5 1.4 7.5 2" class="b"/><path d="M11.6 124.5q2.5.5 5 0c1.1-.1 2.3-.7 3.4-1q3-.8 5.9-1.4c3.6-.7 8.2-3.3 11.7-2 5.4 2.7 6 10.2 11 13.3 3 .8 4.8-3 7.5-3.7q1.6-.2 3.4.1c3 .4 4.9-2.5 6.7-4.4 1.5-1.7 3.2-2.3 5-.9 6.2 5.3 7.6-2 12.6-4.2a14 14 0 0 1 9.3-.3c2.7 1 5.4 2.5 8.4 3 3.3.6 6.7.1 10 .2 3.4 0 6.8.6 10.1.8q4.3.3 8.4 0 3.8-.5 7.6-.4c2.3.1 4.5 1 6.7 1.6q3.8.7 7.6-.2c2.4-.7 5-1.6 7.5-1.8 3.4-.2 6.8.3 10.1.5 3.8.4 7.3 2.3 11 3.2" class="b"/><path d="M11.6 122.1q3 1 5.9.7 1.6-.4 3.3-.7 3.8 0 7.6-.8c2.5-.6 5-1.6 7.6-2 2-.4 3.8.8 5 2.3q2.2 3.4 4.2 7c1 1.6 2.8 4.4 5 3.1 2.7-1.8 4-5 7.6-5.3 1.7-.3 3.6 0 5-1 2.1-1.5 3.4-4.3 6-4.9 3 0 4.8 4.5 8.3 3.2 1.6-.7 2.8-2.1 4.2-3a12 12 0 0 1 9.3-1.6c2 .3 4 1.5 5.8 2.3q2.8 1.4 6 1.6c3.6.2 7.2-1 10.8-1.5q6.3-.8 12.6-.5c4.2 0 8.6 0 12.6 1.3 3.4 1.2 6.4 3.7 10.1 3 3.6-.4 6.7-2.5 10.1-3.6a22 22 0 0 1 12.6.5c3.1.9 6 2.5 9.2 3.2" class="b"/><path d="M11.6 120q2.5 1 5 1.1 2.2 0 4.2-.2 3.4.3 6.8 0 3.4-.6 6.7-1.6c3.4-1 5.6-.5 7.5 2.6 2 2.8 3.3 6.5 6 8.7 2.2 1.3 3.8-1.6 5-3q2-3.2 5.8-4.4 1.7-.3 3.4-.6c2.5-.6 3.8-3.2 5.9-4.5 3.4-1.7 5.3 3.1 8.4 3.6 2.2.3 4-1.6 5.9-2.3a14 14 0 0 1 10.9.3c3.5 2 7.6 3.6 11.7 2.7 6.2-1.4 12.2-3.3 18.5-3.9 9.8-.9 12.3.4 20.2 5.6 2.8 1.6 6.4 1 9.2-.3s5.4-3.4 8.4-4.2c6.8-2 13 2.7 19.3 4.3" class="b"/><path d="M11.6 118.3q4.1 1.5 8.4 1.3c2.2.1 4.5.6 6.7.5 3.7 0 7.2-2 11-1.8 5.1.5 6.4 8.3 10 11.3 3 1.8 5-3.8 6.7-5.5 1.6-1.7 3.6-3.4 6-3.7 1.7-.1 3.6-.3 5-1.5 1.8-1.6 4.1-4.5 6.7-2.6 2.2 1.6 4.5 4.5 7.5 3.6a18 18 0 0 1 11.8-1c1.7.6 3.4 1.6 5 2.1q3.3 1.2 6.8.8c3.1-.3 6.1-1.6 9.2-2.4 5.3-1.4 10.5-3.6 16-3.9 4.9-.4 9 2.7 12.6 5.7q1.7 1.7 4.2 2.3c3 .4 6.4-.1 9.2-1.5 3.2-1.8 6.2-4.6 10-4.7 2-.2 4.1.4 6 1 3.4 1 6.6 2.7 10 3.7" class="b"/><path d="M11.6 116.3q2.5.8 5 1.3 2.2.2 4.2.5c2.5.4 5 1 7.6.9 2-.1 4-.8 5.9-1.3 1.6-.5 3.4-1 5-.3 4.3 1.7 6.5 10.8 10.1 11.5 2.6-.6 3.6-3.8 5-5.7 1.5-2 3.4-4.4 6-5.2 3.3-.5 4.6.5 7.5-2.2 2.4-2.2 4-3.3 6.7-.6 5.1 5.2 6 3.5 12.6 4q2.6.3 5 1a18 18 0 0 0 6 1.2c6 .2 11.8-2.3 17.6-4.2 3.8-1.4 7.6-3.2 11.7-4 4.8-.9 8.6 3 11.8 5.9 1.3 1.3 3 2.7 5 2.8 3.1.2 6.3-.4 9.3-1 3.6-1 6.5-3.9 10-5 2.2-.6 4.6-.1 6.8.5q5 1.4 10 3.5" class="b"/><path d="M11.6 114.4q4.6 1.3 9.2 2c3 .8 6.1 2 9.3 1.4 3.4-.4 6.6-3.2 10-2 2.7 1.5 4.3 4.5 6 7 1.1 1.6 2.5 5 5 4.2 1.4-1 2.4-2.8 3.3-4.2q1.6-2.5 3.4-4.7c5-5.7 7.3 1 12.6-4.8 2.2-2.3 3.8-2 5.9.3 1.5 1.6 3.1 3.5 5 4.8 2.8 1.6 6.1 2.3 9.3 3q2 .6 4.2.7 2-.1 4.2-.8c4.7-1.6 9.6-2.7 14.2-4.4 3.8-1.2 7.3-3.1 11-4.5 2.6-1.2 5.9-1.8 8.4.2 1.8 1.3 3.4 3.3 5 5 1.5 1.7 3.4 3.5 5.9 3.3q3.7-.6 7.5-1.6 4.9-.8 9.3-2.9c2-1 4.3-2.2 6.7-2.3q7 .3 13.4 3.2" class="b"/><path d="M11.6 112.8c3 1 6.2 1.4 9.2 2.3 3.6 1.3 7.3 2.9 11 1.1 2.6-1 5.4-3.1 8.4-2.3 2.8 1.3 4.8 4 6.7 6.6 1.3 1.5 2.6 4.9 5 4.5 1.5-.7 2.5-2.5 3.4-3.9q1.6-2.5 3.3-4.8c5.7-6.7 7.5 2.2 13.5-4.3 2.3-2.2 4-1.5 5.9.7 3.4 4.4 7 8.4 12.6 10 5.4 1.9 9.5-3 14.2-4.9 2.7-1.1 5.7-1.5 8.4-2.3q4.8-1.5 9.3-3.8c2.9-1.5 6.3-3.3 9.2-.7 3.5 2.7 5.8 10 11 9 2.8-.6 5.5-2 8.3-3q4.3-1 8.4-2.3c2.3-.7 4.5-1.8 6.8-2.3 4.8-1 9.8 0 14.2 2" class="b"/><path d="M11.6 111.6c3 1.1 6.2 1.7 9.2 2.7s6.2 2.6 9.3 1.2c7.6-3.9 9.1-6 16 1 1 1.1 2.4 2.6 3.3 4 .8 1 1.9 2.7 3.4 2.6 3.6-1.5 5.4-9.6 10-11 2.7-.6 5 2.3 7.6 1.5 1.2-.5 2.3-1.5 3.4-2.2 3.2-2.6 5.6.7 7.5 3 3.9 5 10.5 10.6 16.8 6.2 4.1-2.5 7.5-6.7 12.6-7.1 2.2-.3 4.6-.4 6.7-1.2q4-1.5 7.6-3.6c3.8-2.2 6.2 0 8.4 3 5.8 9.4 8 7.4 16.8 3.2 3.7-1.7 7.9-2.5 11.8-3.7a23 23 0 0 1 18.4 0" class="b"/><path d="M11.6 111.4q4.1 1.3 8.4 2.3c3 1 6.3 2.3 9.2.7 2.3-1 4.4-2.8 6.8-3.7 4-1.7 8 1.5 10.9 4a16 16 0 0 1 3.3 3.9c.8 1 1.8 2.8 3.4 2.8 2-.6 3-3 4.2-4.6 2.5-3.9 5.2-7.7 10-4.5 4.5 2.8 6.2-1.6 10.2-1.8 2.7.4 4.5 3 6.7 4.5q3.4 2.6 7.5 3.5c5.9 1.1 10.3-2.9 14.3-6.4 1.7-1.3 3.7-2.5 5.9-2.6 4.6.2 7-.2 11-2.6 1.4-.9 3.1-2 5-1.9 5.2 1.5 5.9 10.5 12.6 10.3q3-.2 5.8-1.1c2.6-1 5-2.5 7.6-3.5q3.7-1.5 7.6-2.5 3.3-1 6.7-1.6c4-.6 8 .3 11.7 1.5" class="b"/><path d="M11.6 111.8q3.7 1.2 7.6 1.9c2.7.6 5.7 1.2 8.4 0 2.9-1.2 5.3-3.6 8.4-4.6 4.5-1.7 11.9 3.2 14.2 7 6.4 11.6 8-7.8 16-5.4 1.7.5 3.2 1.9 5 2 1.5.3 3-.5 4.2-1.2 3.4-2.2 5.6-2 9.3-.7q3.7 1.3 7.5 1.9c3.3.7 6.9 1.5 10.1.3 3.4-1.4 5.5-4.7 8.4-6.7 2.5-2 5.6-1 8.4-1.5 2.7-.5 5-2.4 7.6-3 4.6-.8 6.2 6.7 10 8.8 2.5 1.7 5.7.8 8.5.7q2.5-.2 5-1c2.9-1 5.5-2.7 8.4-3.7 4-1.4 8.3-3 12.6-2.6 3 .3 6.2 1.3 9.2 1.7" class="b"/><path d="M11.6 112.4c4.3 1.1 10 2.2 14.3.6 3-1.3 5.4-3.7 8.4-5 3.6-1.5 7.7-.3 10.9 1.5 1.1.7 2.5 1.5 3.4 2.4 2 1.8 4 8.4 7.5 5.6 1.9-1.6 3.3-3.9 5-5.6 3.3-3 5.7-1.8 9.3-.4q2.7.6 5-.9c4-2.8 6.7-4.5 11.8-4.2q2.6 0 5 .6 2.6.7 5 1.5c2.5.7 5.2 1.7 7.6 1 4-1.7 5.7-6.1 9.3-8.2 1.7-1 4-.9 5.9-1.2 2-.4 3.9-1.5 5.8-1.8 5.9-.7 6.9 10.5 14.3 10.4 2 0 4-.6 5.9-.8 2.2-.2 4.6 0 6.7-1 4.9-2 9.6-5.2 15.1-5.3 2.3-.1 4.6.8 6.8 1.5q2.8.8 5.8 1" class="b"/><path d="M11.6 112.5q5.5.9 11-.3c4.7-1.4 8.2-5.9 13.4-6.5q4.8-.5 9.2 1.9c5 1.9 6.5 9.3 10 8.6 3-1.2 4.7-4.6 7.6-6 2-1.3 4.5-1 6.8-.5 6.7 1.4 9.4-6.4 16.8-7.5 3.1-.5 6.3.3 9.2 1.5 3 1 6 2.7 9.2 3.1 5.8.3 7.4-7 11.8-9.5q3.2-1.3 6.7-1.9 2.9-.5 5 1.3c2.2 2.1 3.8 4.9 6 7 3.6 4 7 2.9 11.7 1.6 2.7-.7 5.8-.2 8.4-1.4 4.9-2.4 10.4-6.3 16-3.7q2.4 1.2 5 2.1 2.5.7 5 .8" class="b"/><path d="M11.6 111.6c3.4-.4 7-.6 10-2 4.3-1.7 8-5 12.7-5.7 5-1 10.7.2 14.3 4 4.8 5.5 5 9.3 11.7 2.8 5.9-5.2 10.4-1.2 16-5.5 4.3-3.3 8.4-7 14.3-6 2.6.3 5 1.6 7.5 2.3l5 2c1.9.7 4 1.4 6 .6 5-2.5 6.4-10 12.5-10.9 5.5-1.3 8.6 4.5 11.8 7.8 4 4.6 7.3 4 12.6 2 2.7-1 5.7-.7 8.4-1.6 2.9-1.1 5.4-3.2 8.4-3.9 4.5-1.2 7.2 1.6 11 3.4 2 .9 4.4 1.2 6.6 1.7" class="b"/><path d="M11.6 109.8q4.7-1.2 9.2-3.2c2.8-1.3 5.5-3 8.4-4 6-1.7 13.6-2.5 18.5 2q2.3 2.6 4.2 5.1c1.8 2.2 3.5 3 5.9 1.2 2.6-2 5.1-4.4 8.4-5.2 2.2-.7 4.6-1 6.7-1.7 2.5-.8 4.6-2.5 6.7-3.9 8.3-5.7 13.4-2.4 21.9.3 2.6.8 5.5 2.5 8.4 1.6 4.4-2 6-7.3 10-9.7 3.1-1.8 7-.3 9.3 2 4.7 4.5 7.8 9.9 15.1 6.7q2.5-.8 5-1.4c2-.3 4.1-.2 6-1 3.3-1.6 7-4.4 10.8-3 2.5.8 4.5 2.8 6.8 4q3.7 1.7 7.5 2.8" class="b"/><path d="M11.6 107.8c4.7-2.4 9.4-4.9 14.3-6.7q4.1-1.3 8.4-1.9c3-.4 6.3-1.3 9.2 0 6 2 7.2 8.4 11.8 10.1 2.6.3 4.6-2 6.7-3.3q4-2.3 8.4-3.7c6.4-2 11.6-7 18.5-7q3.5 0 6.7 1.2 3.3 1 6.7 2c2.7.8 5.6 2.2 8.4 1.3 3.6-1.4 5.5-5 8.4-7.4 6.2-5 11.6 2 16.8 5 4.4 2.6 8.2.2 12.6-.4q2.6-.2 5-.5c2-.5 4-1.7 6-2.5 5.4-2.3 8.5 1.4 12.5 4.4q4 2.2 8.4 3.9" class="b"/><path d="M11.6 105.8A36 36 0 0 1 25.9 99c3.3-.9 6.8-1.5 10-2.7 4.3-1.8 7.4-1.5 11 1.5 2.5 2.2 4.2 5.3 6.7 7.4s5 1 7.6-.4q3.3-1.8 6.7-3.3 5.9-2.9 11.7-5.5c4-1.5 8.4-2.5 12.6-2.1q6.8 1.3 13.5 3.3C116.3 101 117 88 127.5 91c4.7 1.4 9.2 4.4 14.3 4 2.2-.3 4.5-.9 6.7-.9q2.5 0 5-.3 2.6-.7 5-1.6c6.6-2.3 9.8 3 14.4 6.3q3.6 2.1 7.5 3.6" class="b"/><path d="M11.6 104c5.5-6 10.6-5.2 17.6-7.4q3-1 6-2.7c2.2-1.4 4.8-3 7.5-2C49.2 94 51 102.5 57 103.4c3 0 5.7-1.7 8.4-2.8 6.4-3.2 12.9-6.7 20.1-7.7q3.3-.7 6.7-.8 3 .1 6 .9 3.2.7 6.6 1.7c3 .8 6.3 1.4 9.3.1 2.5-1 4.8-3 7.5-3.8 3-1 6.2-.6 9.3-.2q5 .8 10 .9c1.7 0 3.5-.4 5-.4h6c3-.1 6.1-1.3 9.2-1.1 5 .4 8.1 5 11.8 8q3.5 2.4 7.5 3.6" class="b"/><path d="M11.6 102.5c5.9-7.1 8.4-4.6 16-6.8 2.8-1 5.2-3 7.5-4.9 1.5-1.1 3.1-2.5 5-2.7 3 0 5.7 2.3 7.6 4.4 2.5 2.7 4.6 6.6 8.4 7.6 3.5.7 7-1.2 10.1-2.5l8.4-3.6q5.3-1.8 11-2.6c2.4-.5 5-1.2 7.5-1.3 4.6.1 9 1.8 13.4 2.8 6.9 1.8 10.5-1.6 16.8-2.8 3.3-.6 6.8-.5 10.1-.8q3.7-.3 7.6-.5 3-.2 5.8-.2 4.3.2 8.4 0c3.8-.3 8 0 11 2.6 5 4 7 8.9 14.2 10.2" class="b"/><path d="M11.6 101.7c2.3-3 5-6.7 9.2-6.9 6.2-.2 8.4-1.6 12.6-5.8 3.8-3.5 6.2-5.9 11-2.2 4.6 3.3 6.9 11 13.4 10.7 2.6-.2 5.2-1.3 7.6-2.3q3.7-1.5 7.5-2.8Q78.3 91 84 90c3-.5 6-1.5 9.2-1.8 5.7-.3 11 2.8 16.8 3 4 .2 7.8-1.1 11.7-1.7q4.6-.8 9.3-1.5 5.4-1.1 10.9-1.6t11-.2c4 .2 8.1.5 11.7 2.6 5.8 3.3 8.8 11 16 12" class="b"/><path d="M11.6 101.5c2.7-3.3 4.7-8 9.2-9q2.6-.3 5-1c2.4-.8 4.3-2.6 6-4.3 2-1.9 4-4.2 6.7-5 4-.2 7 3.5 9.2 6.4 3.1 4.2 6 7.8 11.8 6.2 2.6-.7 5-1.9 7.5-2.8q3.3-1.2 6.8-1.8 5.4-1 10.9-2c3.5-1 7.2-2.2 10.9-1.8 4.3.5 8.3 2.6 12.6 2.9 3 .3 6.2-.3 9.2-.7l9.3-1.2q4.7-1 9.2-2.4a48.7 48.7 0 0 1 19.3-.7c3.8.6 7.8 1.4 11 3.7 4.9 3.5 8 10 14.2 11.4" class="b"/><path d="M11.6 101.3c3.5-3.1 5-8.2 9.2-10.7 2.1-1.3 4.7-1.8 6.8-3.2 5.2-3.8 9.2-11.2 16-4.6 2.6 2.8 4.5 6.5 7.5 9 4 3.2 9.2.5 13.4-1q4.1-1.6 8.4-2.3c3.6-.7 7.4-1 11-2 3.5-.8 7.1-2.2 10.9-1.8 3.4.2 6.6 2 10 2.6s6.8 0 10.1-.4q3.7-.4 7.6-.4 4.3-.3 8.4-1.5c2-.6 3.9-1.7 5.9-2.3q5.3-1.4 10.9-1.3 6.8.5 13.4 2C169.4 84.9 173 94 180.4 97" class="b"/><path d="M11.6 100.8c2.2-1.1 3.7-3.3 5-5.2q2.6-4 6-7.5c2-1.8 4.6-3.2 6.6-5.1 3.1-2.9 6.7-5.4 11-3.2 3.3 2.2 5 6.1 7.5 9.1 3 3.8 5.8 3.8 10.1 2.3 4-1 7.8-2.9 11.8-3.8 3.5-.9 7.3-1.1 10.9-1.7 3.4-.6 6.7-2 10-2.5q3-.2 6 .4c1.9.5 3.8 1.4 5.8 1.8 5.9 1.5 11.7-1.8 17.7-.8 12.7 1.3 12.2-3.7 21.8-4.7 3.9-.5 7.9-.1 11.7.2s7.4.4 11 1.5c2.5.7 4.7 2.6 6.7 4.3 3 2.5 6 5.3 9.2 7.6" class="b"/><path d="M11.6 99.6c2.6-.1 4.5-2.4 5.9-4.3 1.6-2.3 3.3-5 5-7.2q2.7-3.1 5.9-5.9c2.3-2 5.2-3.8 8.4-3.2 6 1.5 7.5 11.7 13.4 13 2.5.2 4.6-1.4 6.8-2.3q3.2-1.3 6.7-2.2 4-1.4 8.4-2.2c3-.5 6.2-.7 9.2-1.4 4.9-1 9.2-3 14.3-1.5 2.7.7 5.5 2 8.4 1.9 5.1-.3 10-3.4 15.1-2.1 4.9 1.1 9.8 1.9 14.3-.8q3.1-1.8 6.7-2.6c3-.5 6.2-.3 9.3-.3l10-.3c2.9 0 5.9.1 8.4 1.5q6.8 4 12.6 9.3" class="b"/><path d="M11.6 97.5c5.4 2.3 8.9-6.7 11.8-10 2.8-3.4 7.6-9.1 12.6-6.9 4.2 2.3 5.8 7.3 9.2 10.5 2.6 2.5 5 1.4 7.6-.5 1.8-1.3 3.7-2.8 5.8-3.6 3.6-1.2 7.4-1.7 11-2.6q5.4-1 10.9-1.7c2.8-.4 5.6-1.3 8.4-1.7q3-.3 5.9.3 2.9 1 5.8 1.4c4.2.4 8-2 11.8-3 6.3-2.2 11.3 3.3 17.6 2 3.5-.7 6.5-3.1 10.1-3.7 3.9-.7 8 .2 11.8-.7 5-.8 10-2.5 15.1-1.2a49 49 0 0 1 13.4 8.1" class="b"/><path d="M11.6 94.5c4.5 4.4 8.4-1.1 11-4.7 2.5-3.3 6-8.2 10.8-7.3 4.2 1.4 6 5.9 9.3 8.4 3 2.4 5.9.5 8.4-1.6 2-1.7 4.2-3.4 6.7-4.3 2.4-1 5-1 7.6-1.4l15-2.1c3.4-.5 6.8-1.2 10.2-1.3 3.9-.2 7.8 2 11.7.7 6-1.8 11.2-6.8 17.7-3.4 3.2 1.5 6.4 3.7 10 3.5 2-.1 4-1.2 6-2q2.4-.8 5-1.3c3.6-.6 7.4.2 10.9-1 5.9-1.7 12.4-5.2 18.5-2.4q5.4 2.4 10 5.8" class="b"/><path d="M11.6 90.4c6.9 8.4 10.1.2 16-3.9 5.2-3.5 8.2.7 12.6 3C45.5 92 49.6 82.7 57 82c3-.4 6.1-.2 9.2-.4 7.6-.5 15.1-1.7 22.7-2.2q3-.1 5.8.4c5 .9 9.3-2.4 13.5-4.6 2.8-1.5 6.1-2.5 9.2-1.4 6.2 2.2 10.3 9.2 17.7 5.7q4.8-1.8 10-2.3 2.7-.3 5-.7 2.7-.6 5.1-1.6c13.2-5.4 13-6.3 25.2 1.8" class="b"/><path d="M11.6 85.5c3 3.6 6.7 7.7 11.8 5q2.8-1.7 5.8-2.9c3.3-1.1 6.8.5 10.1-.2 5.4-1.8 7.7-8.5 13.5-9.7 2.2-.5 4.5.1 6.7.7q2.9.8 5.9 1c7.2.2 14.5-.6 21.8-1 2.5-.2 5 .2 7.5 0 6.2-.5 10.3-6.2 16-8 9.7-3 13 8.7 21 9.5 2.3 0 4.5-1.1 6.7-1.8q5.8-1.9 11.8-3 4.3-1 8.4-3c11.6-5.8 11.3-5.2 21.8 2" class="b"/><path d="M11.6 80.6c8.3 7.2 9 9.4 20.2 6 8.7-1.7 10.5-8.1 16.8-13 5.1-3.7 8.7-.3 13.4 2 3.4 1.7 7.3 1.6 11 1.7q6.6-.1 13.4-.5c2.4-.2 5 .2 7.5-.3 5-1.3 8.3-5.8 12.6-8.4 5-3.5 10.2-2.5 14.3 1.6 4.3 4.2 8.2 10.7 15.1 8.3 3.4-1 6.7-2.5 10.1-3.6 4.5-1.4 9.2-2.7 13.4-4.8 2.9-1.2 5.5-3 8.4-4 2.4-.9 4.9.6 6.8 2l5.8 4.4" class="b"/><path d="M11.6 76.6c5.3 2 9.2 7.2 15.1 7.5 10.9.4 15-12 23.5-16.3 5.4-2.8 9.3 2.7 13.5 5.1 4.8 2.7 10.6 2 16 2q4-.4 8.3-.5c3.7.1 6.5-.4 9.3-3 3-2.6 5.6-6 9.2-7.7 4.7-2.3 10.7-.7 14.3 2.8 2.3 2.3 4 5.3 6.7 7.3 2.7 1.8 6 3.6 9.2 2.5 4.3-1.5 8.4-3.7 12.7-5.3 4-1.7 8.5-2.8 12.5-4.6 2.3-1 4.4-2.7 6.8-3.6 2.6-.8 5 1.4 6.7 3.1q2.3 2.5 5 4.5" class="b"/><path d="M11.6 73.3q3.5.5 6.7 2c3 1.3 6 3 9.3 3.5 6 .8 10.3-4.4 14.2-8 3.4-3.1 7.1-6.8 11.8-7.6 5.8-.5 8.9 6.7 14.3 8.2 2.6 1 5.6.8 8.4.6 4.7-.2 9.5-1.1 14.3-1 6.5-.4 9.2-8.6 16-10 3-.7 6.2.2 9.2 1.1 1.7.6 3.6 1 5 2.2q2.2 2 4.2 4 2.4 2 5 3.7c2.9 1.8 5 3.3 8.4 1.8 4.6-2 9-4.6 13.5-6.5 2.6-1.2 5.6-1.6 8.4-2.3q3.1-.8 5.9-2.7c1.2-.8 2.6-2 4.2-2 2.1 0 3.7 2.1 5 3.6q2.3 3 5 5.2" class="b"/><path d="M11.6 70q3.8.2 7.6 1c3.5 1 7.1 2.5 10.9 2.5 8.4 0 16.5-13.3 25.2-13.6 6.2.1 9.1 7.6 15 8.6 5.8.8 11.3-1.5 16.9-2 1.7 0 3.4.7 5 .8 5.3-.1 7.5-8 15.2-7.5 2.9.2 5.6 1.4 8.4 2.3q2 .6 4.2 1 2.9 1.5 5.8 2.8 4.1 2 7.6 4.8c2.3 1.9 5.3.7 7.6-.5 4.2-2.5 8.5-5.4 13.4-6.6 2.2-.5 4.5-.2 6.7-.5a11 11 0 0 0 5-2.3c1.3-1 2.6-2.3 4.3-2.7 2.3 0 3.7 2.5 5 4.2 1.4 2 3 4.2 5 5.6" class="b"/><path d="M11.6 66.7q4.2-.1 8.4.4c3 .4 6.2 1.2 9.2 1.4 12.4 2.2 21.5-18.1 32.8-10 2.8 1.9 5 4.8 8.4 5.8 6 1.3 11.6-3 17.6-1.7 2.1.3 3.8 2 6 2.2 4.6-.8 6-6.7 13.3-5.4 7.4 1.5 8 5.3 16.8 4.2 6.8-1 8 4.5 12.6 5.1 3 .1 5.2-2.3 7.6-3.7 3.1-1.7 6.5-3.4 10-3.9 2-.2 4 .4 6 .6 4.1.5 6.4-2.6 9.2-5 4.4-3 6.6 7.5 11 9.5" class="b"/><path d="M11.6 63.5c7 0 14 1 21 .9 6.3 0 11-4.7 16-8 4.4-3 10.3-5.2 15-1.7 2.3 1.4 4.3 3.5 6.8 4.5 6.3 1.9 12-3.2 19.3.3 2 1 3.5 3.3 5.9 3.2 2.2-.4 3.9-2.3 5.9-3.2 5-2.4 10.1 1.4 14.2 4.1 3.4 1.8 7-1 10.1-2.3 3.7-1.6 6.5 2 9.3 3.7 3.4 2.1 6.4-1.2 9.2-2.9q2.9-1.5 5.9-2.4 3.7-1.5 7.6 0c2.7 1 6 1.5 8.3-.7 1.5-1.3 2.7-3.3 4.3-4.5 3.8-2.5 6 7.8 10 9.9" class="b"/><path d="M11.6 60.5q3 .3 5.9.2 3-.2 5.9-.4c3.9 0 7.8.4 11.7-.2 4.5-.8 8.1-3.6 11.8-6 4.2-2.7 9-5.4 14.3-5.1 2.8.3 5.3 2 7.5 3.7 4.2 3 9.5 1.4 14.3 1.7a15 15 0 0 1 10 4.2c5.7 5.8 7.3-2 14.4.4 2 .6 4 2 5.8 3.3 1.2.8 2.7 1.6 4.2 1.5 3-.6 5.2-2.7 7.6-4.3 5.8-4 7.7 2.3 12.6 3.2 2.9 0 5-2.5 7.6-3.5a30 30 0 0 1 9.2-2.2c2 .3 4 1.5 5.9 2 3.8 1.5 6.4-1.1 8.4-4 5.5-8.3 7 4 11.7 7.2" class="b"/><path d="M11.6 57.6q3 .4 5.9 0 3.3-.4 6.7-1c4.5-.5 9.1-.2 13.4-1.7 5.3-2 9.8-5.6 15.2-7.4 3.4-1.3 7.1-2.8 10.9-2.2 3 .5 5.5 2.8 8.4 3.7 3.8 1.2 7.9 1.4 11.7 2.1 2.7.5 5.2 1.7 7.6 2.8 2.6 1.6 4.3 5 7.6 5 1.6 0 3.3-.6 5-.7 3.7-.2 6.8 2.4 10 3.7 2.5 1 5-.4 6.8-1.9 4.3-3.2 7.3-6.8 12.6-2.7 3.9 2.9 5.8 2.8 10 .6q3.4-1.4 6.8-2c2.5-1 5.3-.6 7.6.7 2.7 1.4 5.8 2.4 8.4-.1 1.8-1.7 3-4.3 5-6 2.2-1.6 4 1.6 5 3.2 1.2 1.9 2.5 4.1 4.2 5.6" class="b"/><path d="M11.6 54.7c4.8 1 9.6-.4 14.3-1.5 4.5-1.1 9.2-1.8 13.4-3.7q4.1-2 8.4-3.5 4.2-1.1 8.4-2c6.9-1.9 8.7-2.1 15.1 1 7 2.4 14.5 3.3 21 6.8 1.8 1.2 3.3 3 5 4.2 2.5 1.7 5.7.8 8.5 1.2s5.5 2 8.4 2.3c5.8.3 10-8 16.8-6.3 4.2 1.2 7 4.1 11.7 2.6q4.6-1.2 9.3-2c4.4-.7 8.1 4.3 12.6 2.4 2.5-1.2 4-4 5.8-6 1.5-1.9 3.2-2.8 5-.6 1.9 2 3.2 4.5 5.1 6.4" class="b"/><path d="M11.6 52.1c5.4 1.2 10.9-.3 16-2 5.7-1.8 11.1-4.3 16.8-6.3 3.8-1 7.9-.2 11.7-1 4.4-.7 9.1-2.5 13.5-.6 7.6 2.3 15.3 4.3 22.6 7.3 1.5.8 2.9 2.2 4.2 3.2 2.4 2.1 5.4 2.5 8.4 2.4q3 .1 6 .6 4.4.7 8.3-1.8c2.7-1.3 5.5-2.6 8.4-3.1 4-.8 8 1 11.8 1.8q4.1.6 8.4 0 2.5-.6 5-.5c4.2.6 8.3 4.7 12.6 2q2.4-1.5 4.2-3.9c1.3-1.4 2.8-3.8 5-3.5 2.5 1.1 4 3.8 6 5.6" class="b"/><path d="M11.6 49.9c9 1.8 17.8-2.5 26-5.6 3.9-1.6 6.8-2.4 11-1.8q6.3.7 12.6-.8Q64 41 67 41c1.7.1 3.4.7 5 1q7.4 1.3 14.4 3.7c2.1.8 4.6 1.2 6.7 2.2 2.2 1.3 4.2 3.2 6.7 4 2.1.8 4.5.7 6.7.6q3 0 5.9-.4 3.8-.6 7.5-1.8c4.7-1.1 9.5-2.4 14.3-2.1 3.7 0 7.3 1.2 11 1.7q3 .2 5.8.5 2.6.4 5 1.5c3.3 1.4 7 2.2 10.1.2q2.4-1.5 4.2-3.5c1.6-1.5 3.5-3.8 6-3 1.5.8 2.9 2.2 4.1 3.3" class="b"/><path d="M11.6 48c6 1 11.9-.7 17.6-2 4.2-.9 8.3-2.4 12.6-2.7 4 0 8 .3 11.8-.2 4-.4 7.8-1.6 11.8-2.2 2.2-.3 4.5.4 6.7.6q6.5.5 12.6 2.4 3.7 1 7.5 1.8c2.6 1 5 2.8 7.6 3.5 4.7 1.2 9.6.2 14.3-.5l10-1.5q5.5-1.2 11-2c4.6-.4 9.1 1.3 13.4 2.8 4.2 1.3 8.2 3.2 12.6 3.5q4.1 0 7.6-2.3 2.5-1.9 5-3.7c2.3-1.6 4.6-.9 6.7.6" class="b"/><path d="M11.6 46.3c4 .4 7.9-.4 11.8-.9 6.4-.8 12.9-1.7 19.3-.4 3 .7 6.2-.3 9.2-1 4.7-1.3 9.4-3 14.3-3.4q3 .2 5.9.5 3.8.1 7.5.7t7.6 1.6q2.5.3 5 .7c3.3 1.1 6.6 2.6 10.1 2.6q5.1.2 10.1-.3 4.6-.2 9.2-.9l9.3-2q3.7-1.1 7.5-1c4.3.4 8 3 11.8 4.7a24 24 0 0 0 17.6 1.2c4.3-1.2 8-6 12.6-4.2" class="b"/><path d="M11.6 44.7c4.2-.2 8.4-1 12.6-1.2a50 50 0 0 1 10 .4q3.5.6 6.8 1.7 4.8 1.4 9.2-.9a52 52 0 0 1 16-4.7c2.2-.1 4.5.5 6.7.5q3.3 0 6.7.4t6.8 1.2q2.5.2 5 .3c2 .2 4 1 5.9 1.2 2.7.4 5.6.1 8.4.1q4.2.2 8.4.5c5.5.5 10.6-2.2 16-3 3-.5 6.2-1.4 9.2-.4q3.5 1.1 6.7 3c2.8 1.7 5.9 3.4 9.2 3.6q4.6.5 9.3 0 3-.3 5.9-1c3.4-.9 6.4-3.1 10-3.2" class="b"/><path d="M11.6 43q3.7-.9 7.6-1.3 7.7-.5 15 1.4c2.3.5 4.5 1.6 6.8 2 4 .8 8.1-.6 11.8-2.4 4.7-2 9.8-4 15-3.7q5.6.6 11 .8 3.3.4 6.7 1c2 .3 4 0 5.9 0 2 .2 4 .8 5.9.7 3.3 0 6.7-.9 10-.5 3.4.3 6.7 1.5 10.1 1 3.2-.3 6.1-2 9.3-2.6q3-.6 5.9-.7a11 11 0 0 1 5 .2c2.9 1.1 5.6 2.7 8.4 4 2.6 1.4 5.4 3 8.4 3q4.2-.1 8.4-.6 3.3-.1 6.7.2c3.8-.1 7.3-1.8 11-2.8" class="b"/><path d="M11.6 40.8q4.1-1.4 8.4-1.4c4.5.3 9 1.4 13.4 2.4 4.6 1 7 2.4 11.8 1.2l4.2-.8q2.6-.8 5-1.8 5.7-2.3 11.8-2.9 3.4.2 6.7.7 4.3.2 8.4.7 3 .4 5.9.7c2 0 4-.4 5.9-.2 4 .6 7.8-.8 11.7-1 3.5-.3 6.8 1.1 10.1 1.5s6.3-1.3 9.3-2.3c3.4-1.2 7.3-1 10.9-.7 2.4.6 4.5 2.2 6.7 3.3q4.5 2.3 9.2 4.1c2.8.8 5.7-.3 8.4-.7 9.8-1.6 9.2 3 21-1.2" class="b"/><path d="M11.6 38.5c8-3.5 12.6.3 20.2 1.8 3.8.6 7.8 2 11.7.7 2.5-.7 5.1-1 7.6-1.7 5-1.4 10-3.1 15.1-3.4q3 .2 5.9.5l7.5.7q3.4.5 6.8.9l5-.3h5c2.3-.2 4.6-.9 6.8-1.2 3-.7 6.2-.1 9.2.6 9 2 9.5-4.3 21-1.9 2.9.3 5.1 2.6 7.6 4q2.3 1.4 5 2.3c1.8.8 3.8 1.8 5.9 2 1.7 0 3.4-.8 5-1.3q3.3-1.1 6.7-1c2.3-.1 4.6.9 6.8 1.4q5 .9 10-.8" class="b"/><path d="M11.6 36.2c7.5-3.7 11.6.6 18.5 2.7q3 .6 5.9.8 3 .6 5.8 0 6-1.6 11.8-3.5 5-1.2 10-1.9c2.6-.4 5.1 0 7.6.3l6.8.4q4.1.5 8.4 1c3.9.1 7.8.4 11.7-.2 3-.4 6.1-1.5 9.3-1.4 3 0 6.1 1 9.2.8 2.3-.1 4.5-1 6.7-1.7q3.7-1 7.6-.3c1.3.4 3 .6 4.2 1.2 1.7 1 3.4 2.5 5 3.6q4.3 2.6 9.3 4c2.3.7 4.6-.5 6.7-1.5a15.7 15.7 0 0 1 13.4 0q5.4 1.7 11 .3" class="b"/><path d="M11.6 34.2q2.8-1.3 5.9-1.5c4.5.6 8.3 3.5 12.6 4.9q2.4.7 5 .8 3 .4 5.9-.1c3.7-1 7.3-2.9 11-4.1 3.2-1 6.6-1.2 10-1.5q2.5-.3 5-.2 3.7.6 7.6.7c4.5-.4 9 .8 13.4 1 2.5.2 5 .8 7.6.6 3.7 0 7.3-1.4 11-1.8 3.3-.3 6.7.3 10 .1 4.6-.4 8.7-2.7 13.4-1.3q2.3.6 4.2 1.4c2.1 1.2 4 3 6 4.2q2.3 1.5 5 2.4c1.8.7 3.8 1.6 5.8 1.3 1.8-.4 3.4-1.7 5-2.5q3.3-1.6 6.8-1.9c2.6-.2 5.2.7 7.6 1.7q4.8 2 10 1.2" class="b"/><path d="M11.6 32.4q2.8-1.5 5.9-1.3c4.7.7 9 3.4 13.4 5 3.2.9 6.9 1.2 10.1.2 9.3-4 10-6 21-5.5q2.5 0 5 .2 3 .6 6 .8c2.4.1 5-.6 7.5-.4l7.5.7q2.6.7 5 1.3c4.6 1 9-1 13.5-1.4 3.6-.6 7.3-.2 11-.8 6.6-1.4 9.5-2.2 15.9 1 2 1.2 3.8 3 5.9 4.2q3.1 1.8 6.7 3c4.2 1.6 5.8.3 9.2-2.1s7.7-3.6 11.8-2.7c4.4 1.4 8.6 4.1 13.4 3.6" class="b"/><path d="M11.6 30.6q4.5-2 9.2-.5c3.8 1 7.3 2.6 11 3.9 3.2.9 7 1 10-.6 10.6-6 12.6-5.8 24.4-3.8 1.6.3 3.3 1 5 1.2q2.6.2 5-.3c2.2-.6 4.5-1.2 6.8-.8 1.6.2 3.4 0 5 .5 2.5.8 5 2 7.6 2 2.5.2 5-.4 7.6-.7l9.2-1.1c7.4-1 12.2-4 19.3.6q2.7 1.7 5 3.5 2.5 1.6 5 2.6c3.3.9 7 3 10.2 1 2.6-1.8 5.2-4.2 8.4-5.1 2.6-1 5.7-2 8.4-.7 3.9 1.8 7.2 4.8 11.7 4.4" class="b"/><path d="M11.6 28.8q4-1.6 8.4-.9 3.8.5 7.6 1.6c3.2 1.1 6.5 2.6 10 2.4 3.1-.3 5.7-2.4 8.4-3.7q4.8-2.6 10.1-2.4c2.3.2 4.5 1 6.7 1.6q3.9 1 7.6 2.4c4.6 1.4 7.5-1.5 11.8-2 1.9.1 4 0 5.8.6 3 1.2 6 2.6 9.3 2.6 4.2-.3 8.5-.1 12.6-1 5.7-1.3 11.8-4.9 17.6-2 3.7 1.7 6.6 4.8 10.1 6.7 2 1.1 4.5 1.7 6.7 2.3 5.5 1.6 6.7.7 11-2.7q2.3-1.7 5-3c1.8-.9 3.8-2 5.9-2.2 5.4-.2 8.7 6.3 14.2 5.9" class="b"/><path d="M11.6 26.8q4.1-1.5 8.4-1.2 3.8-.1 7.6.6c4.9 1.2 9.2 4.6 14.2 1.6 12.8-6.8 14.5-5.1 27 .6 8 4.1 11-5 19.2-1.8 3 1.4 6 2.9 9.3 3.1 3 .2 6.1.7 9.2.5 8-1 12.3-8.7 21-3.4 6 4 8.1 8 16 9 5 .9 6.5 1.2 10.9-2q2.9-2 5.9-3.6c2-1.3 4.1-3 6.7-3.2 5.2 0 8.3 5.6 13.4 6.1" class="b"/><path d="M11.6 24.4c2.7-1 5.6-1.2 8.4-1.5 3-.5 6.3-.8 9.2.1q2.7 1 5 2.3a8 8 0 0 0 6 .8q3.8-1.5 7.5-3.2c3.2-1.3 6.8-2.5 10.1-1.4 4.8 1.7 8.6 5.4 13.4 7 5.8 1.4 9.4-5 15.2-4.6 1.4.2 2.9 1.2 4.2 1.9a22 22 0 0 0 5 2c3.6.9 7.2 2.5 11 2.2 8-1.5 10.7-12.7 21.8-3.9 3.7 3.2 7.3 7.5 12.6 8l4.2.4c2.2.3 4.6.5 6.7-.5q4.3-2.1 8.4-4.5c2.1-1.4 4.1-3.4 6.7-4 2.4-.3 4.7 1 6.7 2 2.2 1.1 4.4 2.5 6.7 3.3" class="b"/><path d="M11.6 21.8q3.3-1.2 6.7-1.6 3.4-.9 6.7-1.2c3-.3 6 1 8.4 2.6 1.6.9 3.2 2.1 5 2.4 2.4.2 4.7-1 6.8-1.7 3.2-1.3 6.5-3 10-3.3q2.8.1 5.1 1.4c3.7 2.1 6.8 5.4 11 6.6 2.3.7 4.7-.2 6.7-1.5 2.8-1.7 5.8-3.7 9.2-3.9 2.5.2 4.5 2.2 6.7 3.3q4.5 2.3 9.3 4.2c11.3 3.8 10.7-18.8 26.8-2.9 4.5 4.5 7.7 6.8 14.3 6.3 5.6.4 7.2.7 12.6-1.6q3-1.3 5.9-3.4c2-1.4 4.2-3 6.7-2.8q3.4.5 6.7 1.4c1.4.4 2.9 1.3 4.2 1.9" class="b"/><path d="M11.6 18.8c2-1 4.5-1.5 6.7-2a26 26 0 0 1 7.6-1.3c8.1-.3 9.8 8.2 16.8 6q4.2-1.4 8.4-3c2.6-1 5.6-1.8 8.4-.6 5 1.8 9.2 8.6 15.1 7.2 3-1 5.5-3 8.4-4.2 3.7-1.4 5.6-2.3 9.2 0q4 2.1 7.6 4.5c2.4 1.6 5.4 4.1 8.4 2.6 6.3-4 7.5-14.4 16.8-7.8 3 2.1 5.6 5 8.4 7.4a11 11 0 0 0 7.6 2.6q2-.2 4.2-.2 2 .3 4.2.9c4 1 8.2-.3 11.7-2.3 2.3-1.1 4.4-2.8 6.7-4q3.7-1.2 7.6-1.3c1.8.1 3.5 1 5 1.7" class="b"/><path d="M11.6 15.9q3.1-2 6.7-2.7a25 25 0 0 1 11-.9c4.1 1 6.3 5.3 10 7.2 5.1 1.3 11.6-3.1 16.8-3.7 10.4-1.5 12.3 11 21.9 5.7q4-2.1 8.4-3.6c4.2-2 8.3 1.3 11.7 3.6 2.8 1.8 5.7 5.5 9.3 5.3 4-1.3 5.5-6.6 8.4-9.4 2-2.4 5-1.8 7.5-.3 3 1.8 5.7 4.4 8.4 6.7 3 2.8 5.7 4.4 10 3.7 2.4-.5 4.8.2 6.8 1.2 5.4 3 10.1.8 15.1-1.7 6.2-3.2 9.1-8.7 16.8-5" class="b"/><path d="M11.6 13c3-2.5 7-3.8 11-4q2.8-.6 5.8-.2c4.4.7 7 4.6 10 7.5 2.6 2.4 6.3 1.3 9.3.5 4.4-1.1 8.9-2.9 13.5-3 2.8 0 5.3 1.6 7.5 3.3 2 1.4 4.2 2.9 6.7 2.7 2-.2 4-1.2 6-1.9 2.4-.8 5-2 7.5-2.6 3-.6 6 1.2 8.4 2.9q2.6 2 5 4.2c1.6 1.3 3.7 3 5.9 2.5 3.8-1.9 4.8-6.7 7.6-9.6 2-2.4 5-1.9 7.5-.4 3 1.6 5.7 4 8.4 6 2 1.5 4.2 3.1 6.7 3.4 2.2.4 4.7-.2 6.8.7 2.5 1.1 4.7 3.2 7.5 3.7 2.3.3 4.7-.5 6.7-1.4q3-1.2 6-2.8 2.1-1.5 4.1-3.5c3.3-3 6.9-3.3 11-1.7" class="b"/></svg>