<svg xmlns="http://www.w3.org/2000/svg" id="a" width="1920" height="2400" viewBox="0 0 192 240"><defs><style>.b{fill:none;stroke:#fff;stroke-miterlimit:10;stroke-width:.3px}</style></defs><path d="M0 0h192v240H0z" style="stroke-width:0"/><path d="M12.9 226.4c4 1 5.7-2.5 7.4-5.4.9-1.4 1.7-3.4 3.3-4h.9c2.3 1.7 3.3 5 5 7.3 1.8 3.2 4.8 7 9 6.6 3.7-.6 6.3-3.8 9.1-6q3-2.5 5.8-5.2 2.6-2.7 5-5.6c6.5-8 9 3.8 12.4 8 3.6 5.5 9.2.2 12.4-3 2.8-3 6.2-6.7 10.7-4.9q3 1.2 5.8 2.3c4.1 1.4 8.4 2.2 12.4 3.7 3.7 1.2 7 3.7 10.8 4 8.3.8 10.3-8.2 17.4-7.3 6.9 1.5 14-4.2 20.6-.6 3.5 2 5.5 5.7 8.3 8.4 3 2.8 6.6 4.7 10 6.9" class="b"/><path d="M12.9 224.2c4 .9 5.6-1.8 7.4-4.7.9-1.4 1.8-3.3 3.3-3.9 2.2.1 3.8 4.2 5 5.9a20 20 0 0 0 5.8 6.5c6.4 4.5 11.6-.2 16.5-4.3q3.3-2.6 5.8-6c1.6-1.9 3-4.2 5-5.9 8.1-5.6 8.8 15.7 16.5 11.2 5.1-2.9 7.2-9.3 12.4-12 2.2-.9 4.6 0 6.6.9q3 1.1 5.8 2.4 6 2.7 11.6 5.7c3 1.6 6.4 3.4 10 3.2 8.6 0 10.6-9.4 19-8.5 6.3.7 13-4.4 19-.8 3.1 2 4.9 5.7 7.4 8.4q4.1 4.2 9.1 7.3" class="b"/><path d="M12.9 221.7c3.7.7 5.4-1.3 7.4-4.1.9-1.1 1.8-2.9 3.3-3 1.5.4 2.4 2.2 3.3 3.4l3.3 4c3.5 3.4 8.2 6.3 13.3 5.8 3.7-.5 7-2.9 9.9-5.1q3.1-2.8 5.8-6.1c1.7-2.2 3.8-4.4 6.6-5q3.3-.8 5 2.2c2.1 2.8 4.4 10.8 9 7.2 5.5-4 8.1-16.1 16.6-13q5.9 2 10.8 5.7c5.5 4.2 11.6 9.2 19 8.4 7-.4 10-5.9 15.7-8.3 1.8-.7 3.9-.3 5.8-.5 5.2-.5 10.5-4.9 15.7-2.1 3 1.7 4.5 5 6.6 7.5q4 5 9.1 8.7" class="b"/><path d="M12.9 219.2c3.4.3 5.3-1.7 7.4-4 .6-.6 1.6-1.5 2.5-1.6 1.9.4 2.8 2.6 4.1 3.9 1.6 1.6 4 2.3 5.8 3.6q5.5 3 11.6 4.1c4.3.4 8.4-2 11.6-4.5 2.3-1.9 4.2-4.3 6.6-6q1.6-.8 3.3-1.5c2.4-1.3 4.3-4.1 6.6-1 1.8 2.2 2.9 5.2 5 7.1 3.6 2.5 7.3-6.6 9.1-8.8 4.1-6.7 7.4-6.3 14-3.5q4.2 2 7.5 5.2c2.4 2.3 4.6 4.9 7.4 6.5a21.7 21.7 0 0 0 22.3-1.7c2-1.3 3.7-2.9 5.9-3.7 1.8-.7 3.9-.5 5.7-.8 2.4-.5 4.5-1.8 6.7-2.7 6-2.8 9.4-1.6 13.2 3.8 3 4 6 8.1 10 11.3" class="b"/><path d="M12.9 216.5q2.8-.3 5-2.2c1.2-.8 2.5-2.2 4-2.2 2.6.8 3.2 4.5 5.9 5.2 1.6.1 3.3-.2 5 .4 3 .7 6 2.2 9 3.2 5.2 2.3 9.4 1.8 14-1.2 2.3-1.5 4.3-3.6 6.7-4.8q1.6-.7 3.3-1.1 1.5-.7 2.5-1.9c5.8-7.8 6.4 2.7 10.8 5.1 3.7.7 7-10.4 10.7-12.6 3.1-2.2 8.3.4 11.6 1.5 5.7 2 8.7 7.7 13.2 11.2q2.3 1.5 5 1.9 4.5 1 9 .1c2.8-.4 5.7-.8 8.3-2 3-1.1 5.2-3.8 8.3-4.7q2.5-.4 5-.5 2.2-.6 4.1-1.7c3.5-1.8 7.5-4.4 11.6-3 2.4 1 4.2 3.4 5.8 5.4 2.4 3 4.6 6.6 7.4 9.3" class="b"/><path d="M12.9 214c5.3-2.2 7.5-7.8 11.6-.1.9 1.5 2.2 3 4.1 1.9 2.5-1.4 3.8-2.1 6.6-1.2q4.7 1.7 9.1 3.8c4.3 2.2 9.4 1 13.3-1.6 1.8-1.2 3.6-2.8 5.7-3.4q1.7-.3 3.3-.8c2.5-1.2 3.4-4.4 5.8-5.7 3.5-.8 4.4 6 7.5 7 2.7-.1 5-5.5 6.6-7.5 3.3-4.7 5-4.4 10-2.6 2.9 1 6.3 1.2 9 2.8 4.3 2.5 6.2 7.9 10.8 10q4 1.3 8.2 1c2.5-.2 5-1 7.5-1.3 3.2-.2 6.5-1 9-3 5.6-4.7 7.7-1.2 13.3-3.6 3.9-1.7 8.9-4.8 13.2-4.1 5.6 1.9 8 8.8 11.6 13" class="b"/><path d="M12.9 211.6c1.7-1 3.1-2.7 5-3.6 3.4-1.6 5 2.9 6.6 5.1q1.6 2.7 4.1.9c1.4-1.2 2.9-3.1 5-3 3.9.4 7.3 2.8 10.7 4.6 4.5 2.8 9.9 1.6 14-1.2q2.4-1.7 5-2.8c1.7-.6 3.7-.7 5-2 2.4-2.6 5-8.6 8.3-3.4 1.1 1.4 2.1 3.8 4.1 4.2 3-.8 4.6-4 6.6-6.2.7-.6 1.6-1.6 2.5-1.9 2.3-.4 4.5.8 6.6 1.4 2.7.8 5.6.5 8.3 1.1 5.1 1.4 7 7.5 11.6 9.7q1.6.5 3.3.7 2.9.6 5.8.1c2.2-.4 4.4-1.2 6.6-1.5 2.2-.2 4.6-.2 6.6-1.2 2.4-1 4.2-3.1 6.6-3.9 2-.5 4 .2 5.8.2 4.4 0 8.4-2.2 12.4-3.5 2.1-.7 4.4-1.8 6.7-1.4 4.6 1.6 6.4 7 9 10.7" class="b"/><path d="M12.9 209.4c2-1.8 4.6-5 7.4-2.9 2.4 1.7 3 5.5 5.8 6.5 4.8-.8 3.8-7 11.6-3.4 7.9 4 10.5 8.1 19.8 3.4 2-1 3.9-2.5 5.8-3.4 2.1-1 4.5-1.8 5.8-3.8 1.9-2.4 4.5-6.9 7.5-3 1 1.2 2 2.8 3.3 3.9 1.2 1 2.8.5 4.1-.2 1.7-.9 3-2.7 5-3.2 2.7-.7 5.5-.2 8.2 0q3 .2 5.8-.2c6-.8 8.7 5.9 13.3 8.3q2 .9 4.1 1.1 2.4.6 5 .5c2.2-.3 4.4-1.1 6.6-1.3 10.5.2 10-7.4 17.3-5.2 4.1 1.3 8.4 0 12.5-.8 2.5-.6 5-1.8 7.4-2.8 5-2 7.8 4.1 10 7.6" class="b"/><path d="M12.9 206.6c2.7-2.7 4.6-3.1 7.4-.5 1.8 1.6 3 5 5.8 4.9 1.3-.4 2.4-1.6 3.3-2.5 2.8-3 4.8-2.9 8.3-1.3 5.4 3 10 6.7 16.5 4.8 4.6-1.2 8.6-4 12.4-6.6 2.3-1.7 3.6-4.5 5.8-6.3 4.2-2.7 5.9 4.6 9.1 5.8q1.7.4 3.3.2l3.4-.1c2-.4 3.8-1.5 5.7-2q3-.7 5.8-1.2c2.2-.4 4.5-1 6.7-.7 4 .7 6.4 4.7 9.9 6.5 1.2.6 2.8.7 4.1 1.2 1.6.5 3.3 1.3 5 1.5q2 .2 4.1 0c2.5-.3 5.1-.1 7.4-1 3.5-1.1 5.7-4.6 9.1-5.6 2.6-.4 5 1 7.5 1.4 2.7.4 5.5.1 8.2 0 9-.1 11.2-9 17.4 1.3" class="b"/><path d="M12.9 203.8c3.1-2 6 1.2 8.3 3 1.6 1.7 3.6 2.8 5.7 1.2 5-3.8 5.5-5.4 11.6-2.4q4.7 2.5 10 3.6c6.2 1.5 12.5-1.4 17.3-5.3 2.6-2 4.1-5.2 6.6-7.2 3.3-2.3 5.6 2.4 7.5 4.4 1.2 1.8 3.3 2.8 5 4 3.7 3.3 6.2-1.3 9-3.3q3.5-2.2 7.5-3c2.7-.6 5.7-.7 8.2.6 2.3 1 4.3 2.9 6.7 3.9l2.4.5q1.8.4 3.3 1.3c2.6 1.6 5.2 3.5 8.3 3.6 4.8.6 8.2-1.3 11.6-4.4 5.3-4.9 7.2-2.7 13.2-1.2q5.3 1 10.8.9 3-.5 5.8-2.3c3-2 5-1.9 7.4 1.2" class="b"/><path d="M12.9 202c1.8 0 3.5 1 5 2q2 1.3 4 2.1c4.4 1.3 7.4-3.8 11.7-3.9q1.6.1 3.3 1l5 1.7q2.8.6 5.7 1c2.5.3 5 .9 7.5.8 4.3-.3 8.4-2.3 11.5-5.2 2.5-2 5.6-8.5 9.1-7 2.2 1.3 3.5 3.9 5 5.9 1.7 2.2 3.5 4.7 5.8 6.2 4.6 1.5 5.6-9.7 14-10.8q5.7-1 10.8 1.4 2.4 1.3 5 2.1c1.3.4 2.8.2 4 .9 5.1 2.4 8.4 9.3 15 7 2.8-1 5.1-3.1 7.4-5 2.3-2 5.1-3.8 8.3-3 3.6 1 7.1 2.3 10.7 3 2.2.5 4.5 1 6.7.6q2.6-.6 5-2.3c1.7-1.3 3.8-2.1 5.7-.4" class="b"/><path d="M12.9 201q3 1 5.8 2.2c4 1.6 7-.4 10.7-1.8q2.8-1.1 5.8-.7c2.5.5 4.9 1.7 7.4 1.9 3 .3 6.2.2 9.1.9 4.2 1 8.7.7 12.5-1.5 3.3-1.7 5.5-5 8.2-7.5q3.2-3 5.8.6c1.8 2.3 3.2 5.2 5 7.5 8 10.8 7.3-8 16.5-9.7 5.2-1 10.2 1.3 15 3 1.7.9 3.9.6 5.7 1.4 5.5 2.5 8.6 11.5 15.7 8.2 3.3-1.6 6-4.3 9.1-6.3a9 9 0 0 1 7.5-2c6.2 1.1 13.8 6.5 19.8 3 2-1 4.1-3.4 6.6-2.3" class="b"/><path d="M12.9 200c2.4.3 5 1 7.4 1 4.5.2 8.8-1.9 13.3-2.2 3.3-.4 6.6.7 9.9 1q3.7-.1 7.4.4c2.2.4 4.4 1.2 6.6 1.4 3.9.5 7.8-.8 10.8-3.2 2-1.5 3.7-3.6 5.8-5 4.5-3.3 6.8 4.9 9 7.5 1.4 1.5 3.7 4.7 5.9 2.9 2.8-3 3.9-7.4 6.6-10.5 5.6-6.6 14.3-.8 20.7 1.4q1.7.5 3.3.9 2.3.9 4.1 2.5c2 1.6 3.7 3.7 5.8 5 3.5 2.1 7.8.5 10.8-1.8 4.4-2.9 9.1-7.3 14.8-6 6 1.2 12.2 6.4 18.2 3 1.9-.9 3.6-2.7 5.8-2.5" class="b"/><path d="M12.9 198.4c4.4-.5 8.8.3 13.2-.1 5.3-.3 10.5-1.5 15.7-1.5q3 0 5.8-.5 3-.1 5.8 1c2.4 1 4.9 2.2 7.4 2.4 4 .4 7.8-1.2 10.8-3.7s6-6.5 9-1.7c1.6 2.2 2.8 5 5 6.7 1 .7 2.2 1.5 3.4 1 2.3-1.5 3.4-4.7 5-7 4.4-7.8 10-7.5 17.3-3.8 2.4 1 4.8 2.7 7.4 3.4a30 30 0 0 1 9.1 5.4c6.2 4.6 12.9-.7 18.2-4a14 14 0 0 1 10.8-2.4c5.4 1.2 10.9 5.6 16.5 2.8 1.9-.8 3.7-2.4 5.8-2.6" class="b"/><path d="M12.9 196.5c2.1-.6 4.4-1.3 6.6-1q5.7 1 11.6.8a78 78 0 0 0 10.7-1.6c3.5-.8 7.2-3.1 10.8-1.7 2.6 1 4.8 3 7.4 4 5.3 2.3 11 .7 15-3.3 4.5-4.5 6-2 9 2.3 1.4 1.8 4.1 5 6.6 3.4 4-3.8 6.3-10.5 12.4-11.3 3.5-.4 7 1 10 2.7 1.8 1 3.6 2.5 5.7 3q2.7.6 5 1.7c1.7.9 3.3 2.2 5 3 6.3 3 13-1.2 18.2-4.7q4.8-3.8 10.7-2.2c4.9 1.3 9.7 4.8 14.9 2.9 2.2-.8 4.2-2.5 6.6-2.8" class="b"/><path d="M12.9 194c1.8-.6 3.8-1.5 5.8-1.6 2.5.2 5 1 7.4 1.3q7.6 1.6 14.9-.6c2-.6 3.8-2 5.8-3 4.8-2.3 6.8-1.4 10.7 1.8 3.5 2.8 8 5 12.5 4q3-.7 5.7-3c1.9-1.4 4.3-3.9 6.7-2 2 1.6 3.4 4.3 5.8 5.5 1.1.9 2.8 1.5 4 .6 2.6-1.5 4.4-4.1 6.7-5.9 3.4-2.8 8.3-3.5 12.4-2 2 .8 3.8 2.2 5.8 3 3.1.7 6.4 1.2 9.1 3 7.5 5.3 16.3.6 22.3-4.6a9 9 0 0 1 9.1-1.2c5 1.8 9.5 4.9 15 2.8 2.1-.8 4.2-2.3 6.6-2.6" class="b"/><path d="M12.9 191.2c2.2-.5 4.3-1.9 6.6-1.6 5.7 1 11.5 3.3 17.4 2.6q4.2-.4 7.4-3 1.9-1.4 4.2-2.4a10 10 0 0 1 4-1.2c6.1.8 9.3 9.3 18.3 7.5q3-.5 5.8-2c2.2-1.1 5-3.6 7.4-1.6 1.7 1.1 3 3.1 5 4 3.2 1.8 5 1.7 8.2-.3 5.3-3.3 12.3-6.1 18.2-2.9 2.4 1 5 .6 7.5 1.5 2.7 1 5.3 2.9 8.2 3.3 4 .7 8.1-.4 11.6-2.3 2.4-1.5 4.5-3.6 6.6-5.3q3.9-3.3 8.3-.8c5 2.8 9 5.2 14.9 2.9 2.1-.8 4.3-2 6.6-2.3" class="b"/><path d="M12.9 188.2c2-.2 3.8-1.2 5.8-1.3 4.7.6 9.3 2.4 14 3.1q5.3.8 10-1.6c1.9-1.2 3.7-2.7 5.7-3.6 1.6-.8 3.3-1.7 5-1.7 2.8.1 5.1 2.2 7.4 3.7 5.4 3.7 8 2.8 14.1 2.1q2.1-.2 4.1-.8 2-.9 4.2-1c2.2.4 3.9 2.1 5.8 3.2q2.3.8 5 1.3c3 .6 6-.5 9-1 3.3-.5 6.6-1.5 10-1.4 1.3 0 2.7.4 4 .4q2.7-.1 5 .3c5.7 1.7 8.4 4.3 15 3 5.8-1 9.1-4.6 13.2-8.5 6.4-6 10.3 6 19.8 3.5 3-.7 6-2.6 9.1-2.6" class="b"/><path d="M12.9 185c2 0 3.8-1 5.8-1.2 4.8.6 9.3 2.8 14 3.8 3.3.6 7 .4 10-1.2 3.4-2 6.9-4.3 10.7-5.4 3.3-.7 6.3 1.3 9.1 2.6 3.5 1.9 6.1 1.8 10 1.6 2.4 0 4.9.5 7.4.7l4.1.4c2 .5 3.8 1.3 5.8 1.6 2.2.1 4.4-.4 6.6-.1 3 .2 6 1.2 9.1 1.6 3.3.4 6.6-.6 10-.7 2.1-.2 4.3-.9 6.6-.6 4.4.6 8.6 3.2 13.2 2.5q5-.3 9-3.1 2.7-2.1 5-4.5c1.4-1.3 3-3 5-3.2 1.9 0 3.5 1.4 5 2.4q2.3 1.8 5 3c2.3.8 5 .3 7.4-.4 2.3-.7 4.9-1.8 7.4-1.3" class="b"/><path d="M12.9 181.3c2 .2 3.8-.8 5.8-1 5 .6 9.3 3.4 14 4.8 3.6 1 7.5.7 10.8-1q3.2-1.7 6.6-3.2c2.6-1.2 5.3-2.6 8.3-2.2s6 1.9 9 2.3q3 .3 5.9.4 3.8.7 7.4 2.4c3 1.1 5.8 3.4 9.1 3.2 2-.3 4-1.6 5.8-2.5 4.2-2.2 8 1.1 11.6 2.9 4.3 2 8.9-.4 13.2-1.1q5-.7 10 1c5.6 1 12-.2 16.5-4l4-3.9c1.2-1 2.6-2.3 4.2-2.4 1.9 0 3.5 1.4 5 2.4 1.7 1.3 3.6 2.6 5.8 3 4.4.6 8.8-2 13.2-.4" class="b"/><path d="M12.9 177.5c1.6.2 3.3-.3 5-.5 2-.2 3.9.7 5.7 1.4 5 2 9.2 5.5 15 5 2.5-.1 5-1.1 7.4-2q2.4-.8 5-1.6c2.9-1.2 5.8-3 9-3.3q3.4.2 6.6.9 3 .5 5.8.8c11.2 1.3 14.8 12 20.7 7.5q2.6-2 5-4 2.7-2.4 5.8-.6c2 1.3 3.7 3.2 5.8 4.4 2.8 2 6.2.6 9-.7q3.4-1 6.7-1.4 3.3-.2 6.6.5 2.9.3 5.8.2c5.5 0 9.2-2.7 13.2-6.3 2.4-2.3 4.8-4.7 8.3-2.5 1.9 1 3.7 2.4 5.8 3.2 2.3.8 5 .3 7.4.5q3.5.2 6.6 1.7" class="b"/><path d="M12.9 173.4c1.8.6 3.9.4 5.8.5q3 .7 5.8 2c2.8 1.3 5.4 3.1 8.2 4.4 4 1.5 8.4 1 12.4 0q3.8-.5 7.5-1.4c2.3-.7 4.4-2.1 6.6-3 3.1-1.2 6.6-1 10-.6q3.7.4 7.4 1.5c3 1 5.8 3 8.2 5.2 2 1.6 4 3.9 6.6 4.2 3.3-.3 5.3-3.6 7.5-5.7 2.2-2.3 4.4-4.4 7.4-1.7 1.7 1.4 3.2 3.2 5 4.5 2.3 1.8 5 1 7.4-.2q3.3-1.4 6.6-2.5c6.3-2.2 12.8 2 19-.1a25 25 0 0 0 7.5-4.7c2-1.6 4-4 6.6-3.9 3 .3 5.4 2.4 8.3 2.9q3.4.3 6.6 1.4c2 .8 3.9 2.2 5.8 3.1" class="b"/><path d="M12.9 169.3c2.8 1.6 6.2 1.8 9 3.1 4 1.6 7.7 4.2 11.7 5.8q5.7 1.5 11.5 1c3-.2 6.2 0 9.1-.8 3.7-1 7-3.3 10.8-4.2 5.3-1 11-.1 15.7 2.7 2.4 1.4 4.5 3.4 6.6 5.1s4.8 3.8 7.5 2.1c2.6-1.7 4.4-4.6 6.6-6.8 2-2.3 4-3.4 6.6-1 2.1 2 3.8 4.7 6.6 5.7 2 .5 4-.5 5.8-1.4 2.5-1.2 4.9-2.8 7.5-3.7 5.7-2.4 10 2.2 15.7 1.6 4-.5 7.7-3 10.7-5.8 3.7-3.4 6-4 10.8-2.3 2.5.6 5.2 1 7.4 2.5 2.3 1.3 4.3 3.3 6.6 4.7" class="b"/><path d="M12.9 165.3c4 3 8.9 4.4 13.2 6.8q3.6 2 7.4 3.6 7.8 2.3 15.8 2.5c6.2 0 8.6.1 14-3.2 6-4 13.4-3 19 1.2 2.6 1.7 4.8 4 7.5 5.5 2.1 1.4 4.6 1.5 6.6-.2 2.5-2 4.3-4.9 6.6-7.1 1.8-1.9 3.7-2.8 5.8-.8 2.2 1.8 3.9 4.7 6.6 5.9 4.7 1.7 10.2-5.3 15-6.5 4.6-1.7 8 2.5 12.3 3.2 4.2.5 8.5-1.4 11.6-4.1 4-3.5 6.7-6.1 12.4-4.5 5 .9 8.4 5 12.4 7.7" class="b"/><path d="M12.9 161.5c2 1.2 3.8 2.8 5.8 4q4.9 2.8 9.9 5.2c3.9 2.1 8.2 3.4 12.4 4.9 3.5 1.1 7.2 1.3 10.8 1.5 2.7.2 5.6.6 8.2-.6 3-1.3 5.3-3.9 8.3-5.3 3.7-1.6 8.1-.1 11.6 1.6 4.4 2.1 10.8 10 15.7 7.1 3-1.8 5-4.9 7.4-7.2 2.5-2.6 4.5-4.2 7.5-1 7.4 8.4 8.1 6.8 16.5.6 2.4-1.7 5.3-3.4 8.3-2.7 1.8.5 3.3 2 5 2.9 2.3 1.5 5.4 2 8.2 1.5 6.2-.8 8.7-6.5 14-8.4 6.6-1.7 11.8 4 16.6 7.4" class="b"/><path d="M12.9 158.3c2.3 1 4.4 2.7 6.6 4 5.5 3 10.8 6.5 16.5 9 2.7 1.2 5.4 2.7 8.3 3.3 4 .5 8.3 1.1 12.4.6 4.8-.3 7.9-4.3 11.6-6.8 2.6-1.8 5.7-.6 8.3.6 3.3 1.4 6.2 3.7 9 5.8 3.6 2.6 7.8 4.9 11.6 1.4q3-2.7 5.8-5.5c1.5-1.3 3-3.1 5-3.4 3.6.4 5.5 4.7 8.3 6.6 2.5 2.2 5.2.8 7.4-1 3.9-2.8 9-8.2 14-5.3 2.4 1.7 4.6 3.7 7.5 4.3 3 .8 6.5.5 9.1-1.2 3.1-2 5.5-5.2 9.1-6.4 5.3-1.4 11.7 3.5 15.7 6.5" class="b"/><path d="M12.9 156.3q3 .8 5.8 2.3 5.2 2.3 9.9 5.6 5.7 3.7 11.6 6.8c2.2 1.1 5 1.5 7.4 1.8q6.1 1 11.6-2a32 32 0 0 0 6.6-4.6c2-1.8 4.6-3.7 7.5-2.3 1.7.7 3.4 2 5 3.1l4 3c3.2 2.3 6.6 5.4 10.8 5.1 4-.6 6.7-4.3 10-6.4 4.8-4.7 6.7-5.5 11.5 0 1.6 1.6 3.2 4 5.8 4 2.2-.4 4-2 5.8-3.4 2.9-2 6.1-4.8 9.9-4.5 3.2.6 5.3 3.7 8.3 4.8 2.8 1.4 6.2 1.8 9 .4 3.7-1.8 6.2-5.3 10-6.7 4.6-1.5 12.1 3 15.7 5.8" class="b"/><path d="M12.9 155.7c2 0 3.9.7 5.8 1.1q4 .8 7.4 2.8c3.4 2 6.5 4.5 10 6.4q2.3 1.7 4.9 2.9c3.4 1 7.2 2.1 10.7 1.4 3.2-.8 5.8-3 8.3-5l5.8-4c1.3-.8 2.7-1.9 4.1-2.3 2.3-.6 4.3 1 5.8 2.6q2 2 4.2 3.7c11.3 9 12.2 9 24 .7 3.7-3.1 6.5-5.8 10.7-1.4 1.9 1.7 3.3 4.5 5.8 5.3 2.5.5 4.7-1.4 6.6-2.6 2.5-1.7 5.2-3.6 8.3-3.9 2.6-.2 4.7 1.6 6.6 3.1 2.6 1.8 5.9 3.3 9.1 2.6 4.3-.9 7-4.7 10.8-6.7 2.5-1.5 5.6-.7 8.2.3q5 1.9 9.1 5" class="b"/><path d="M12.9 156q2.9 0 5.8.2c2.5 0 5 .1 7.4 1.2 3.6 1.5 6.6 4.1 10 6q3 2.3 6.6 3.4c3.1 1.2 6.8 2.1 9.9.2 3-2 5.4-5 8.2-7.2q3.6-2.4 7.5-4c4.8-2.2 7.1 1.1 9.9 4.5q2.5 3 5.8 5.2c2 1.4 4.1 3 6.6 3.4 4.2.3 8-2.2 11.6-3.8 3-1.6 5.5-5 9-5.3 4 0 5.7 4.3 8.4 6.5 4.7 3.8 10.4-4.4 16.5-3.9 2.2.2 4 1.7 5.8 3 2.6 1.7 6 3 9 1.9 4.2-1.4 7-5.2 10.8-6.8 2.8-1.2 5.8 0 8.3 1.2q4.8 2 9.1 5" class="b"/><path d="M12.9 155.4q2.9 0 5.8-.2 2-.2 4.1-.2c4.7 0 8.6 3.1 12.4 5.5q2.4 1.7 5 2.8c1.9.8 3.8 1.8 5.8 2.2 7 1.9 10.4-7.4 15.7-10.5 2.7-1.7 6-2 9-2.7 4-1 6.3 1.5 8.3 4.5q2.4 3.6 5.8 6a18 18 0 0 0 5 2.6c2.5.6 5-.2 7.4-.8q3-.6 5.8-2.1c2.6-1.5 4.8-3.6 7.5-4.7 3.6-1.3 6.2 2.3 8.2 4.7q3 3.6 7.5 1.7c4.1-1.7 9-4.2 13.2-1.5 1.6 1 3.2 2.2 5 2.8 2.7 1 5.8.3 8.2-1.3 3.5-2 6.5-5.6 10.8-5.7 2.6.1 5 1.4 7.4 2.5q4.4 2 8.3 4.6" class="b"/><path d="M12.9 153.8q2.9-.2 5.8-.6 2.4-.4 5-.6c3.4 0 6.3 2.2 9 4.2q2.8 1.8 5.8 3.3c2.6.8 4.8 2.6 7.5 3.2 6.2 1.5 9.7-7.4 14-10.6 3.2-2.8 6.2-2 10-2.3 4.7-.9 6.6-2 9.9 2.5 2.5 3.8 4.5 7.4 9 9.1 2.1.8 4.5.6 6.7.3q2.5 0 5-.9c3.8-1.3 6.8-4.6 10.7-5.7 4.2-1 6.3 3.7 9 5.8 2.5 2 5.7 1 8.4.1 2.6-.7 5.5-1.3 8.2-.6 3.5.8 6.3 3.9 10 3.3 4-.6 7.2-3.7 10.7-5.7 3.9-2.4 7.7-1.5 11.6.5q5.2 2.2 9.9 5.3" class="b"/><path d="M12.9 152q4.6-.6 9-1.7c4.1-1.2 7.2 1 10 3.6q2.2 2 5 3.2c1.3.5 3 .6 4 1.5 9.4 6.6 11.8-1.3 17.5-7.2 4.1-4.5 6.3-3 11.5-2.9 3.6 0 7-3.3 10 0 4.9 5.7 5 11.6 14 11.6 4.2.3 8.2-1.2 11.6-3.4 1.8-1.1 3.7-2.4 5.8-3 4.1-1 6.4 3.4 9 5.7 2.7 2.2 6 1.7 9.2 1.2 5.4-.8 8.1-.3 13.2 1.7 3.6 1.1 7-1 10-2.8 3.6-2.4 7.9-4.6 12.3-3.3q3.4 1 6.7 2.7 3.8 1.8 7.4 4" class="b"/><path d="M12.9 150.2q3.4-.5 6.6-1.5c3.1-1.2 6.2-2.3 9.1 0 2.7 2.1 4.8 5.5 8.3 6.3 1 .1 2.3 0 3.3.7 6 4.4 9.4 4.4 14-1.6 2.8-3.1 5.4-7.8 10-8.1 1.9-.1 3.8.5 5.8.5 4 .2 7.3-3.9 10.7 0 4.8 5.7 6.6 12.5 15.7 11.5q4.5-.6 8.3-3c2-1.1 4.2-2.6 6.6-3.2 4.1-1 6.6 3 9.1 5.5 2.4 2.4 5.8 3.4 9.1 3.4 2.5.2 5-.4 7.4-.4 2.5-.2 5 .6 7.5.6 4-.5 7.1-3.5 10.7-5 5-2.3 10.9-1 15.7 1.2q4.3 1.6 8.3 3.9" class="b"/><path d="M12.9 148.3q3.4-.6 6.6-1.9c2-.8 4.4-2 6.6-1.2 4 1.5 5.6 6.6 10 7.6h2.4c1.2.1 2.4 1 3.3 1.7 3.6 2.5 7.6 3 10.8-.4 3.5-3.2 6-8.1 10.7-9.8 2-.5 4 0 5.8 0q3-.1 5.8-1a5 5 0 0 1 5.8 1.4c3.5 3.6 6.3 8.3 10.8 10.8 3.7 1.5 8 0 11.5-1.6 3.7-1.6 7.4-5.2 11.6-3.8 2.4 1 4 3.3 5.8 5 2.3 2.5 5 5 8.3 5.8 3.3 1 6.6-.8 9.9-1.3q2.4-.5 5-.5 2.2-.4 4-1.4c3.7-2 7.3-4.6 11.7-4.2a59 59 0 0 1 12.4 2.4q3.8.8 7.4 2.3" class="b"/><path d="M12.9 146q3-.6 5.8-1.8c2.3-1 5-2.2 7.4-.8 3.2 1.8 4.8 5.8 8.3 7.2 1.6.5 3.4-.6 5 .2 1.4.6 2.6 1.8 4 2.4 2.7 1 5.9 1.7 8.4 0 4.7-3 8.3-9.9 14-10.7q3-.2 5.8-.8c2.7-.7 5.2-1.4 7.4.7 2.9 2.3 6 4.4 8.3 7.3 3.7 4.3 5.9 5.5 11.6 4 4.4-1 8.1-4.2 12.4-5.6 7-1.7 10.5 8.4 15.7 11.4 4.9 3.2 10-1.4 14.9-2.2 5.3-.2 8.8-5.3 14-5.6 4-.2 7.7 1.6 11.6 1.9 3.9.6 8-.3 11.6 1" class="b"/><path d="M12.9 143.4c6.7-1.6 10.2-5.6 15.7 1.3 1.5 1.7 3.3 4 5.8 4.1q1.3-.2 2.5-.5c2.1-.2 4 1.3 5.8 2.3q1.6.6 3.3.9c1.8.5 4 .7 5.8-.2 5.5-2.5 9-8.3 14.8-10.3 2.4-1 4.9-2.1 7.5-2.1 1.6 0 2.9 1.2 4.1 2q2 1.3 4.2 2c3.4 2 5.3 5.7 8.2 8.2 1.8 1.7 4.4 1.6 6.7 1.1q4.3-.9 8.2-2.8c2.4-1.3 4.8-3 7.5-3.3 5.5-.2 8.5 5.5 11.5 9.2 4.6 5.9 9.3 3.3 15 .7 2-1 4.5-1.2 6.6-2.4 2.4-1.3 4.7-3.3 7.4-4.2 4-1.2 7.7 1.2 11.6 1.8q3.7.3 7.4-.7c2.2-.4 4.5-1 6.6-.3" class="b"/><path d="M12.9 140.7c8.1-2.5 9.8-3.3 15.7 3.6 1.3 1.3 3 2.9 5 2.6 3.5-1.3 5.9-.2 9 1.4q2.1.4 4.2.7 3.4 1.1 6.6-.3c4.7-2 8.3-5.8 12.4-8.7 1.7-1.3 3.6-2.7 5.8-3 3-.5 4.7 2.7 7.5 3q2.3.1 4 1.5c2.6 2 4.5 5 6.7 7.3 2.1 2.4 4.6 2.4 7.5 1.7a40 40 0 0 0 7.4-2.3c2.7-1.2 5.3-3.2 8.3-3.8 6-1 9.1 5.1 12.4 9.1 4 5.1 9.3 2.3 14-.1 1.8-1 4-1.4 5.8-2.4 2.3-1.2 4.3-3 6.6-4.1 3.8-2 7.8-.3 11.6.5 2.2.5 4.5-.1 6.6-.7 3-.6 6.1-1.7 9.1-1" class="b"/><path d="M12.9 138c6.8-2 9.4-1 14 4.2 1.4 1.3 3 3 5 2.9 4.3-1.3 6.7-.7 10.8.8q1.6.1 3.3.2 2 .4 4 .7c4.4.1 8.5-2.4 11.7-5 3.6-2.8 7.5-9.7 12.4-5.1q1.8 1.5 4.1 1.3 1.3-.3 2.5 0c2.8 1.3 4.8 4 6.6 6.4 1.7 2.1 3.6 5.1 6.6 4.8 2-.1 4-.8 5.8-1.3q3-.7 5.8-1.8c4.8-2.4 8.6-5.6 14-2.4 3.5 2.2 5 6.5 8.4 8.7 3.8 2.4 8-.5 11.5-2.2q2.5-1.2 5-2.3 2.6-1.7 5-3.3c2.3-1.7 5.3-2.8 8.2-2.4 2.2.3 4.4 1 6.6 1 2 0 4-.8 5.8-1.2q4.6-1 9.1 0" class="b"/><path d="M12.9 135.2c6-1.8 9.4 1 13.2 5.3 1.3 1.3 3 2.8 5 2.5q3.6-1 7.4-.3c1.6.2 3.3 1 5 .8l2.4-.3c1.7 0 3.4.6 5 .6 5.3 0 9.8-3.4 13.2-7.2 6.7-7 6.6-.8 11.6-.4q1.3-.1 2.5-.5 1.3 0 2.5.6c3.6 2.1 5.7 6 8.3 9 2 2.6 4.4 2.8 7.4 1.7 3.2-1.3 6.7-2 10-3.3 4.3-2.3 8-4.7 13.1-2.4 3.7 1.7 5.5 6 9.1 7.8 4.4 1.9 8.9-1.8 12.5-4q3.9-1.7 7.4-4.1a14 14 0 0 1 9-2.6c2.3.2 4.5 1 6.7 1 2 0 3.9-.8 5.8-1.1q4.6-1 9.1.5" class="b"/><path d="M12.9 132.4c5.2-2 9.3 1.8 12.4 5.4 1.4 1.6 3.5 3.3 5.8 2.3q2.9-.2 5.8.3c2.1.3 4.4 1.4 6.6.8q1.2-.4 2.5-.7 2.4 0 5 .1 2.5 0 4.9-1 3.2-1.1 5.8-3.5c1.9-1.7 3.8-4.6 6.6-4.3 1.6.3 2.8 1.7 4.1 2.4 1.7 1 3.4.2 5-.2 5.3.3 7.8 6 10.7 9.7 3 4.1 7 2.6 10.8.6 3.1-1.8 6.8-2.4 10-4 3.5-2 7.8-2.7 11.5-.7 2.1 1.2 3.9 3.1 5.8 4.6 3.1 2.5 6.7 2 10-.1 1.6-1.1 3.2-2.6 4.9-3.6 2-1.1 4.5-2 6.6-3 6-2.8 8.7-2.5 14.9-.7 2.4.6 5-.2 7.4-.7 3-.6 6.2-1 9.1 0" class="b"/><path d="M12.9 129.8c4.6-2.2 8.8 1.4 11.6 4.8 1 1.2 2.4 2.6 4.1 3l2.5-.2q4.2.8 8.3 2.1c2.5.8 4.3-.7 6.6-1.4 3-.5 6.1-.3 9-1.3a17 17 0 0 0 5.9-3.2c1.7-1.3 3.4-3.5 5.8-3.5 3 .6 4.5 4.4 8.2 2.8 5.8-2.4 9.4 5.6 12.4 9.2 2.3 3 5 3.4 8.3 2.1 3-1 5.4-3.2 8.3-4.4 3.5-1.2 7-3 10.7-3.2 4.5-.2 8 3.1 11.6 5.2 3.6 1.9 7.2.6 10-2 1.7-1.6 3.5-3.4 5.7-4.3 3.8-1 7.7-2.1 11.6-2.3q2.5 0 5 .8c1.8.6 3.7 1.6 5.7 1.7 5 .3 9.9-2.2 15-1.6" class="b"/><path d="M12.9 128c2.8-1.7 5.8-1 8.3 1.1 2.3 1.9 3.8 5 6.6 6.2 1 .3 2.3 0 3.3.3q3 1 5.8 2.3c1.2.5 2.7 1 4.1.6 2-.5 3.7-2.2 5.8-2.7 3-.7 6.2-1 9-2.1q2.9-1.1 5-3c1.6-1.3 3.7-3.2 5.8-2.1 4 2.7 4.1 4.3 9.1 2.4 4.4-.4 6.8 4.3 9.1 7.2 1.5 2 3.2 4.6 5.8 5q3.6.2 6.7-1.5c2.8-1.5 5.3-3.7 8.2-5 3.6-1.4 7.8-2.5 11.6-1.2 3.5 1.2 6.3 4 10 4.7 7.1 1.3 9.7-8.4 16.5-9 4-.3 8.4-.5 12.4.6 3.5 1 6.8 3.5 10.7 3 4.2 0 8.3-1.3 12.4-2" class="b"/><path d="M12.9 127c6.8-4.2 9.7 3.3 14 7a4 4 0 0 0 2.5.6 8 8 0 0 1 2.5.8c2.6 1.1 5.4 3 8.3 2.4 2.4-.8 4.2-3 6.6-3.8 4.6-1.3 9.6-1.9 13.2-5.3 4.4-3.7 5.3-2.6 9.1.8q1.6 1 3.3.8c1.1-.2 2.2-.9 3.3-1 2.5 0 4.4 2.1 5.8 3.9 2.2 2.5 3.9 5.6 6.7 7.5 1.4 1 3.3.7 5 .4 7.6-1.6 10.8-8.8 19.8-7.7 5 .6 8.7 5.6 14 5.3s7.7-5.9 11.6-8.6c3-2.5 7.1-2 10.8-1.5q3.4.4 6.6 1.7c1.9.8 3.8 2 5.8 2.7 2.6 1 5.5 1 8.2 1a25 25 0 0 0 9.1-2" class="b"/><path d="M12.9 127c4-2.9 6.9-2 9.9 1.5 1.6 1.8 2.9 4.3 5 5.7 1 .5 2.3.4 3.3 1 2.7 1.3 6 3.1 9 1.7 2.1-1 3.8-3 5.9-4 2.3-1.2 5-1.5 7.4-2.3q2.7-1 5-2.7c2-1.6 4.8-4.6 7.4-2.4 1 .8 2.2 2 3.3 2.7q2 1 4.2.1c5.1-2.4 8.5 4.9 11.5 8 1.3 1.3 3 2.9 5 2.9q4.4-.3 8.3-2.5c3.2-1.6 6.1-4.5 9.9-4.7 5.4-.4 8 2.4 12.4 4.7q3.6 1.6 7.4.6c5-1.5 6.6-7.3 10.8-9.9 3.6-2.5 8.3-1.7 12.4-.6 3.8 1 7.1 3.4 10.7 4.9q4 1.3 8.3 1.3 4.8.5 9.1-1.7" class="b"/><path d="M12.9 127c3.6-2.8 6.5-3.6 9.9 0 1.8 2 3 4.8 5 6.7.9.7 2.3.8 3.3 1.4 3.4 2 6.6 2.5 9.9 0 1.4-.9 2.7-2.2 4.1-3.1 2.2-1.6 5-2 7.5-2.7q2.7-1 5-2.6c5-4 5.5-5 10.7-.5 2.2 1.7 4.2.4 6.6 0 4.6.3 7.3 6.4 10.8 9 2.3 2.1 4.7 1.6 7.4.6 3.5-1 6.7-2.8 10-4.4a9 9 0 0 1 8.2 0c2.6 1 4.9 3 7.4 4.2 3.1 1.2 6.8 1.4 10 .1 4.4-2.2 5.5-8.2 9.9-10.5 4.3-2.4 9.7-1.7 14 .3 3 1.4 6 3.3 9.1 4.5q4 1.4 8.3 1.5c3 .4 6.3.3 9-1.1" class="b"/><path d="M12.9 126.8c2.3-1.8 5.1-4.5 8.3-3 3.2 1.6 4.4 5.6 6.6 8.3 1 1.3 2.8 1.7 4.1 2.5 4.2 2.6 7.5.5 10.8-2.3 2-1.7 4-3.3 6.6-4q3-.5 5.8-1.8c2.9-1.3 5.6-5.2 9-4.4 1.6.6 2.8 2 4.2 2.7 2 1.3 4.4 0 6.6-.1 5 .6 7.3 6.7 11.6 8.8 2.1 1.2 4.6.2 6.6-.7l5-2c1.9-.7 3.8-1.7 5.8-2.2 4.2-1 8 2.3 11.6 4 2 1.1 4.3 1.3 6.6 1.6 2.1.2 4.5.8 6.6.1 4.4-2 5.2-8 9.1-10.7 3.7-2 8.4-2.2 12.4-1.1 3.2 1 6 3 9.1 4.4a35 35 0 0 0 11.6 2.7q4.1.7 8.3-.5" class="b"/><path d="M12.9 126c3-3 6.6-6.7 10.7-3.1 2 2 3.2 5.1 5 7.4.9 1 2.3 1.5 3.3 2.3 2 1.3 4.5 1.8 6.6.6 3.5-2 6.2-5.3 10-6.7 2-.7 4.5-.9 6.6-2 2.5-1.1 4.6-3.3 7.4-3.7 3.4 0 5.2 3.6 9.1 2.8 1.3-.2 2.8-.7 4.1-.4 4.7 1.3 6.9 6.9 11.6 8 2.7.5 5-1.3 7.4-2.2l5.8-2.1a10 10 0 0 1 5.8-.8c2.6.7 4.9 2.4 7.5 3.2 2 .8 4.4.5 6.6.6q2.2.3 4.1 1.3c1.5.8 3.3 1.7 5 1.2 4.9-2.6 5-11.7 11.6-11.9 10.3-1.6 10.3.8 19 4.3q6 1.9 12.4 2.4 3.3.6 6.6.4" class="b"/><path d="M12.9 124c2.7-3 6.5-7.6 10.7-4.8 2.2 1.9 3.3 5 5 7.2 1 1.4 2.8 2.4 4.1 3.4 3.8 2.7 7 0 10-2.4 2.1-1.7 4.5-3.7 7.4-4.2q2 0 4.1-.7c3-.8 5.8-3.4 9.1-3 1.5.4 2.8 1.3 4.2 1.8 3.8 1.7 7-1.5 10.7 1.2 3.6 2.3 6.8 7.4 11.6 5.8q2.1-1 4.1-2 2.4-1.2 5-2c2-.6 4.3-1.5 6.6-1.2 2.6.3 4.9 2 7.4 2.1 3.9.5 7.4-1.4 10.8 1.3 2.4 1.8 5.6 6.4 8.3 2.3 2.4-3.3 3.4-8.4 7.4-10.2 1.3-.3 2.8-.1 4.1-.3q2.5-.4 5-.4c3.5 0 6.7 2 10 3.2 4.2 1.5 8.7 2.2 13.1 3 2.5.5 5 1.4 7.5 1.9" class="b"/><path d="M12.9 120.6c2.5-2.8 5.6-7 9.9-5.7 2.4 1 3.6 3.9 5 6q1.3 2.1 3.3 3.6c1.6 1.4 3.5 3 5.8 2.7 1.8-.1 3.5-1.3 5-2.4 2.3-1.7 4.6-3.7 7.4-4.6 2-.6 4.5-.2 6.6-.9 2.4-.6 4.9-1.8 7.4-1.2 1.7.4 3.3 1.3 5 1.7q2.4.3 5-.2c3.6-.8 6.4 2.2 9 4.2 3 2.4 5.8 3 9.1.9a34 34 0 0 1 15-5c2.7.5 5.4 1.6 8.2 1.2 4.7-.5 7.5-1 10.7 3.2 1.3 1.4 2.4 3.4 4.2 4.2 4.3 1 5.5-11.3 10.7-12q1.7-.2 3.3-.2 2.6-.2 5-.5c3.4-.4 6.8 1 10 2 3.7 1.3 7.7 1.9 11.5 3.2 3.2.9 6 2.7 9.1 4" class="b"/><path d="M12.9 117.3c2.6-2.7 6.6-7 10.7-4.8 2.1 1.6 3.4 4.1 5 6.1q1.5 1.7 3.3 3.2c2 1.8 4.7 3.5 7.4 2.5 4.3-1.6 7.2-5.8 11.6-7 1.6-.2 3.4 0 5-.3 2.7-.2 5.5-1.1 8.3-.4q2.4.8 5 1.3c1.8.3 3.8 0 5.7 0 5.1.5 8.5 7.2 14 5.4 2.5-.9 4.5-2.7 6.7-3.9q4.6-2.6 9.9-3.5 2.5-.1 5 .5 2.4.4 5 .5c3.2.3 6.7-.5 9 2.5q1.8 2.5 3.3 4.9c.6.7 1.5 1.8 2.5 2 3.7-.6 5-10.2 9.1-12 1.8-.8 4-.2 5.8-.5 3-.4 6-1.2 9.1-.5q3.4.8 6.6 2 3.8 1.2 7.5 2.8c3.8 1.7 6.9 4.7 10.7 6.3" class="b"/><path d="M12.9 114.7c2.4-1.9 5.2-4 8.3-4.5 3-.1 4.8 2.8 6.6 4.8 1.3 1.8 3.3 3.2 5 4.6 2.7 2.5 6.3 4.8 9.9 2.4a35 35 0 0 0 5-3.9c1.3-1.2 3-2.7 4.9-3h5q2.8-.5 5.7-.5 3 .5 5.8 1.2 3 .5 5.8.9c5.1.7 9.5 6.7 14.9 3.8 2.4-1.1 4.4-3 6.6-4.5a20 20 0 0 1 10-3.7c2.8 0 5.4 1.6 8.2 2.2 2.4.6 5-.4 7.4 0 4.4 1.3 4.6 7.7 8.3 9.6l.8-.2c3.5-3 4-8.5 7.5-11.4 1.4-1.1 3.3-1 5-.8 3.6.2 7-1.7 10.7-1.3a39.1 39.1 0 0 1 14.9 7c3.1 2.3 5.8 6 9.9 6.3" class="b"/><path d="m12.9 113 5.8-3c4-2.4 7.1.8 9.9 3.5 2 1.9 4.5 3.5 6.6 5.3 2.6 2.1 5.8 4.5 9.1 2.3 3.2-1.7 5-5.4 8.3-7 2.1-.6 4.4-.3 6.6-.6 3-.5 6.1-.8 9.1 0a60 60 0 0 1 10 3c3 1.4 6.3 3.5 9.8 2.6 2.9-.7 5.2-2.7 7.5-4.5 2.8-2 6.2-4.1 9.9-3.7 3.9.4 7.6 3 11.6 2 1.9-.3 3.9-1.8 5.8-.8 2.4 1.6 3.5 4.7 5 7.2.4 1 1.3 2.3 2.4 2.6l.8-.2c3.9-3 4.4-11.6 10-12.3q2 .1 4.1.1a21 21 0 0 0 4.1-.9c5.8-2 9.4-.9 14 2.8 2.7 2 5.2 4.6 7.5 7 2.4 2.6 4.6 4.5 8.3 3.3" class="b"/><path d="M12.9 111.9c8.3-3.1 8.1-6.6 16.5-.2q3.4 2.1 6.6 4.7c2.4 2 4.9 5.4 8.3 4.6 4-1.3 5.5-6 9.1-7.9 2.1-.5 4.5-.3 6.6-.7 2.5-.5 5-1.3 7.5-1.1 3.7.4 7.3 2 10.7 3.7 3 1.5 6.4 3 10 2.5 2.7-.3 5.1-1.8 7.4-3.3 5.3-3.3 9-3.4 14.9-2 4.1.8 6.5-.4 9.9-2.6 4.8-2.5 6.2 9.1 10 10 4-1 5-11.7 10.7-12.3h4c2.4-.2 4.6-1.3 6.7-2 2.4-1 5.2-1.2 7.4.2 4.1 2.5 7 6.7 10 10.3 3.1 3.9 5 5.6 9.9 3.1" class="b"/><path d="M12.9 111q2.6-.8 5-2.4c1.6-1.1 3.6-2.4 5.7-2 2.4.4 4.6 1.7 6.6 3q2.6 1.3 5 3c2.7 2 4.6 5 7.4 6.9 4.6 2.3 7.2-3.7 10-6.2 1-1 2.7-1.2 4.1-1.3 3.1 0 6.2-1 9.1-2 6.8-1.7 12.7 4.2 19 5.7 5.8 1.7 9.6-1.6 15-3 5.3-1.6 11.5 1.2 16.5-2l3.3-2.8c.6-.6 1.6-1.3 2.4-1.2 3.5 1.3 4.8 10.3 8.3 10.8 3.8-1.6 5.1-10.1 10-12 1.8-.6 3.8-.3 5.7-.7q2.6-.5 5-1.8c2.5-1.2 5.6-2.3 8.3-.7 4.4 2.9 6.7 8 9.9 12.2 3.4 4.6 5.2 4 9.9 1.7" class="b"/><path d="M12.9 110.4q2.7-1 5-3c1.6-1.3 3.5-2.7 5.7-2.5 2.7.1 5.2 1.5 7.5 2.8q2.5 1.3 5 2.8c2.7 2.1 4.5 5.5 7.4 7.6 4.6 3 6.9-3.8 9.9-6q1.6-.8 3.3-1 2.5 0 5-.5 2.4-.8 5-1.7c6.2-2.2 11.7 3.2 17.3 5.1 4.6 1.7 8.8.2 13.2-1 6-1.7 13 1 18.2-3.3 2.1-1.5 3.4-4.2 5.8-5.3h.8c3.2 2.6 3.7 7.5 6.7 10.3 3.7 3.2 6.6-9.4 12.4-11.1 2.3-1 5-.7 7.4-1.9 2.9-1.2 5.8-3.3 9.1-2.9 5.9 1.3 8.6 10.6 12.4 14.9 3.1 3.8 5.6 1.3 9.1 0" class="b"/><path d="M12.9 109.7a21 21 0 0 0 5-3.4c1.5-1.5 3.5-3 5.7-2.8 2.6 0 5.1 1.2 7.5 2.3q2.5 1.1 5 2.4c3 2 4.8 5.4 7.4 7.8 4 3.8 6.6-1.7 9-4.4q1.8-1.5 4.2-1.8 4.6.2 9.1-1.6c6.3-3 11 1.3 16.6 3.8 4.4 2.1 9.4.7 14 0q5-.6 10-.3c3.3.1 6.8-1 9-3.7l3.3-4c.6-.8 1.5-1.8 2.5-2 2.6.8 3.6 5.4 5 7.6 1.8 3.2 3.8 5 6.6 1.5 2-2.2 3.6-4.8 5.8-6.8q2.1-2 5-3.1 2-.6 4-1.3c3.3-1.4 6.4-3.7 10-3.4 6 1 8.3 9.6 11.6 13.9 3.5 5 5.4 2.5 10 1.1" class="b"/><path d="M12.9 108.7c4.5-2.2 6.7-7.4 12.4-6.2q3.4.5 6.6 2c1.6.6 3.5 1 5 2.1 2.8 2.1 4.6 5.6 7.4 7.7 3.6 2.8 6-2.3 8.3-4.4q1.7-1.5 4.1-1.8c2-.2 4 0 5.8-.4q2.6-.4 5-1.3c6.3-2.2 11.4 3.8 17.3 4.7 2.5.3 5-.5 7.5-.8q4.5-.5 9-.3c6.8.6 10.6 1.4 15-4.9l2.4-3.5c.6-.8 1.5-1.9 2.5-2 4.3 1.6 5 15.1 11.6 10.1 4.6-3.7 8.4-8.7 14-11 3.4-1.7 6.9-4.3 10.8-4 6.3.8 8.3 8.6 11.6 13 3.4 4.9 5.3 2.8 10 1.6" class="b"/><path d="M12.9 107.3c8-4.8 6.6-7.7 17.4-5.1 2.1.6 4.6 1 6.6 2.3 3 2 4.8 5.9 8.2 7.5 3.3 1.3 5.3-2.6 7.5-4.3a9 9 0 0 1 4.1-1.6c2.2-.2 4.5 0 6.6-.3 2.2-.2 4.4-1 6.7-1.3 5-.3 9 4 14 4.5 2.8.4 5.5-1 8.3-1.3q4-.1 8.3.2l6.6.8c8.5.7 9.7-10.1 14-11.4 3.9 1.5 4.3 9 8.3 11 6.9 2.9 18.8-14.8 27.3-14.8 7-.3 9.4 7.6 13.2 12.1 3 3.5 5.4 2.2 9.1 1.4" class="b"/><path d="M12.9 105.6c2.7-1.2 4.8-3.4 7.4-4.8 4.5-1.8 9.5-.6 14 .4 4.5 1.2 6.5 6.1 10.8 7.5 3.8 1 5.8-3.6 9.1-4.3 3-.9 6.1-.3 9.1-.6 2.8-.2 5.5-1.3 8.3-1 5 .4 9 4.7 14 4.3 2.6-.1 5-1.4 7.5-1.4q3.8 0 7.4.3c2.5.1 5 .7 7.5.7 4.2 0 7-3.8 9-7.1 1.2-1.6 2.2-4 4.2-4.8 4 .6 5 9.6 10 11.2 3.7 1.1 8.4-.8 11.5-3q3.5-3 6.6-6c2-1.7 4.1-3.5 6.7-4 6.8-1.6 10.3 4.4 14 9 2.7 3 5.3 3 9.1 2.2" class="b"/><path d="M12.9 103.3c3.2-.9 5.8-3.4 9-4.3q6.3-1.2 12.5.4c2.5.8 4.5 2.8 6.6 4.3 4 2.9 7 1.5 10.8-.8 3-1.5 6.6-1 9.9-1q4.1-.2 8.2-1 3.5-.1 6.7 1.4c4.6 2.3 8 4.1 13.2 2.4q2.9-.7 5.8-.6l5.8.1c3.6.3 7.7 1 10.7-1.6a24 24 0 0 0 5-5.8c1.1-1.6 2.2-3.8 4.1-4.6 4.3-.3 5.7 9.2 12.4 10.4 4.5 1 9.7 1.3 13.3-2 4-3.2 7.4-8.7 13.2-8.3 5.4.2 7.9 4.4 11.6 7.5 2 1.7 4.9 2 7.4 1.4" class="b"/><path d="M12.9 100.6c3.8-.2 7-2.6 10.7-2.9q3.4-.4 6.7-.1 2.5 0 5 .9c2.3.8 4.2 2.7 6.5 3.6 3.6 1.3 7.4-.5 10.8-1.5q4.9-1 9.9-.7c2.8.1 5.5-.5 8.3-.7 7.8 0 11 6.7 19.8 3.7 3-.7 6.1-.6 9.1-.7 2.5 0 5 .3 7.5-.1 8.7-1.7 11-15.9 16.5-12.4 2.1 1.4 3.7 3.7 5.8 5.3 1.8 1.5 4.3 1.7 6.6 2.1q3.5.5 6.6 2c5.5 3.2 8.6-1.7 12.4-4.8 3.2-2.7 8-3.6 11.6-1.5 4.2 2.7 6.8 6.6 12.4 5.7" class="b"/><path d="M12.9 97.4c3 .6 6-.2 9-.6h10.8c5.7.7 7.8 4.6 14 3.3q6.8-.5 13.3-1.7c2.2-.2 4.5 0 6.6-.3q2.6-.3 5-.5c5.4-.2 9.6 4.3 14.9 4.4 3 0 6-1.4 9-1.5 3.6-.6 7.4 0 10.8-.8 9-2.4 11.4-16.6 18.2-13.3 2.6 1.1 4.8 3.2 7.5 3.8 3 .6 6.3 0 9 1.6 2.8 1.4 4.6 4.3 7.5 5.5 4.3 1.5 7.7-4.3 11.6-5.8 8.4-3.7 10.7 5.5 19 4.6" class="b"/><path d="M12.9 93.9q2.4.8 5 1.2 2.8 0 5.7.4 2.5.3 5 .3 2.9-.2 5.8 0c2.3.3 4.4 1.3 6.6 2q2.9.7 5.8.6c1.6 0 3.3.6 5 .8q2.4.3 5-.4c1.5-.3 3.2-1 4.9-1.2q2.4-.4 5-.6c2.6-.5 5.4-1.2 8.2-.5 2.9.5 5.5 2 8.3 3 3.3 1.4 6.7.4 9.9-.6q3.7-.9 7.4-1c8.2.4 11.8-5.9 16.6-11.3 3.1-3.7 6.1-4.5 10.7-2.9q2.8 1 5.8 1.7c2.8.2 5.7.3 8.3 1.5 3 1.6 4.9 4.6 7.4 6.7 2.4 2 5 1.7 7.5 0 12-8.5 11.6.3 22.3.5" class="b"/><path d="M12.9 90.6c2 .3 3.9 1.3 5.8 1.8 2.7.5 5.4 1.6 8.2 1.8s5.6-.4 8.3-.2q3 .3 5.8 1.2 2.5.5 5 1.4c2.4.9 4.7 2.7 7.4 2.9 3.4 0 6.7-1.4 10-2.2 3.2-.6 6.4-2.2 9.8-2.3q3.9 0 7.5 1.5c2 .8 4.3 2 6.6 1.8 2.3 0 4.5-1 6.6-1.7q3.2-1 6.6-1.1c13 0 14.2-17.7 29-15 2 .4 3.9 1.4 5.8 2.1q2 .7 4.1 1c6.1.7 7.3 3.5 11.6 7.2 2 1.8 4.8 2.4 7.4 1.3 11.6-5.6 10.3-.6 20.7.2" class="b"/><path d="M12.9 88.2c1.6-.8 3.4 0 5 .6 3.3 1 6.4 3.1 9.9 3.4 3.5.1 7.1-1 10.7-.5 5.9.6 7.8 2.4 11.6 6.5 3.7 3.8 6.6.4 10.7 0C68 97.2 71 92.5 79 94c3.4.4 6.5 3 10 2.3 2.5-.6 4.9-2 7.4-2.8 2.1-.6 4.4-.6 6.6-1a16 16 0 0 0 7.5-4c5.9-5.5 9-8.5 17.3-9.7 4.9-1 6.7 2.8 10.8 3.6q2.8.3 5.8.7c3.6.9 6 4.2 9 6 2.2 1.4 5 1.8 7.5 1.2l5.8-1.4c1.9-.4 4 .1 5.8.6q3.2 1 6.6 1.5" class="b"/><path d="M12.9 87.3c4.5-5.4 10.5 2.5 15.7 2.5 5 .4 10.1-3 14.9-.4 5.4 2.1 7.2 11.3 14 9.9l4.2-1.2q2.1-.3 4.1-1.3c3.5-1.8 6.7-4.5 10.8-4.8q3.4-.4 6.6 1c1.8.8 3.8 2 5.8 1.5 2.9-.8 5.3-3 8.3-3.9 2.6-.9 5.6-.5 8.2-1.6 5.1-2 9-6.4 14-8.4 3.6-1 7.3-1.4 10.8-2.2 2.9-.8 5.3 1.3 7.5 2.8 1.7 1 3.8.9 5.8 1 2.4-.2 4.6 1 6.6 2.2 3.5 2.2 7.3 4.7 11.6 4.5q2.9-.2 5.8-.9c4-.5 7.8 1.3 11.5 2.3" class="b"/><path d="M12.9 87.7c1.5-2 3-4.8 5.8-4.7s5 2 7.4 3.2q2.8 1.3 5.8.8c7.5-1.7 6.7-3.5 14 1l7.5 5.6c2 1.6 4.1 3.5 6.6 4.3 4.3 1.4 7.6-2.5 10.8-4.7 4.3-3 9.2-4.6 14-1.6 2 1.2 3.8 1.6 5.8.3 3-1.8 5.6-4.3 9.1-4.9 2-.3 4-.3 5.8-1q4.3-1.4 8.3-3.5 2.3-1.5 5-2.4c2.9-.9 6-.7 9-1 2.2-.3 4.4-1.4 6.7-1.3 2.2.3 3.7 2.4 5.7 3.2 1.9.7 4 .4 5.8.8 5.7 1.3 10.6 5.3 16.6 5.8 1.9.2 3.9-.2 5.8-.4 3.7-.2 7.3 1.5 10.7 3" class="b"/><path d="M12.9 88.2c4.3-5.2 5.8-10 13.2-5.4 1.7 1 3.8 1.7 5.8 1.3 1.7-.2 3.3-1 5-1.3 2.8-.5 5 1.8 7.4 2.6q2 .6 4.1.5c1.4-.1 2.8-.4 4.2-.1 5.1 1.3 6.8 10.3 11.5 11 2.7-.4 4.6-3.1 6.7-4.6 3-2.3 6.7-5 10.7-4.4 1.8.4 3.4 1.6 5 2.4 1.8 1.1 3.5.2 5-1 2.2-1.9 4.5-4.2 7.4-5q2.8-.7 5.8-1l5.8-1.4q3.4-1 6.6-2.5 2.3-.8 5-1c1.8 0 3.8.4 5.7.2 5.6-.3 7.4-3.8 12.4 1 2.2 1.6 5 1.3 7.5 2.2 4.2 1.2 8.2 3 12.4 4.2 9.5 2.6 6.9-2 19 4.2" class="b"/><path d="M12.9 87.5c3.5-2 5-6.8 9-8 3-1 5.6 1.4 8.4 1.7q2.4.1 5-.2c2.4-.2 4.4 1.6 6.5 2.7 4.6 2.3 7.6-3 11.6-4C58 79 60.1 88 62.5 91c1.3 2 2.9 2.8 5 1.4q3-2 5.8-4a15 15 0 0 1 8.2-3.2c1.9.2 3.5 1.4 5 2.5 1.9 1.3 3.5.6 5-.9 4.7-4.8 6.3-6 13.2-7 2.7-.5 5.5-.5 8.2-1 2.5-.6 4.9-2 7.5-2.2 3-.1 6 1 9 .7 2.3-.1 4.5-1.4 6.7-1.3 2.7 0 4.2 2.8 6.6 3.6 4 1.6 8.4 2.3 12.4 3.7 4.3 1.4 8.7 3 13.3 2.5 3.8 0 7.2 2.2 10.7 3.6" class="b"/><path d="M12.9 85.5c3.2.1 5.3-2.7 7.4-4.6 3-3 5.1-3.3 9.1-2.2q2.5.4 5 1 2.2.8 4.1 2c3 2.2 5.7 1.3 8.3-1 2.6-2.1 4.8-5.4 8.3-6.2 4.2 0 6.2 9.2 9 12 2.6 2.9 6.5.6 9.1-1 3-1.2 6-2.9 9.1-2.9 1.6.2 3 1.2 4.2 2.2.9.6 2.1 1.3 3.3 1 1.6-.9 2.8-2.7 4.1-4 3.4-3.7 7.6-4.9 12.4-5.4 2.2-.2 4.5.1 6.7 0 1.4-.1 2.8-.8 4.1-1.3 3.5-1.4 7.2-.1 10.7.3 2.5.4 5-.3 7.5-.6 2.3-.1 4.1 1.7 5.8 3.1q3 1.9 6.6 2.4c5.3.9 10.5 2.8 15.7 4 2.2.5 4.5 0 6.6.4 3.2.6 6 2.3 9.1 3.2" class="b"/><path d="M12.9 82.3c10.7 4.5 8.4-9.6 23.1-1.5 3.3 2 5.7 1 8.3-1.5q3.5-3.4 7.5-6.5c1.2-.8 2.6-1.9 4-2.2 3.8-.2 5.7 5.8 7.5 8.3 1.5 2.3 3.7 4.7 6.6 4.7q2.1-.5 4.2-1.2l5-1.5c1.5-.5 3.3-1 4.9-.6 2.2.7 4 3.9 6.6 2.8 1.6-1 2.8-2.8 4.1-4.2 2.5-3 6.1-5 10-5.3 3.3-.4 6.6.9 9.9.2 2.1-.6 4.3-1.7 6.6-1.6 2.5.2 5 1 7.4 1.3q3 .4 5.8.1c4.7.3 4.7 4.4 10.8 5q4.6.4 9 1.5c3.1.7 6.1 1.8 9.2 2.4 2.1.5 4.5 0 6.6.5 3.1.6 6 2.4 9.1 3" class="b"/><path d="M12.9 78.4c2.5 1 4.8 2.7 7.4 3.2 4.1.2 5.4-3.1 10.8-2 4 1 6.4 2 9.9-1 3.4-2.8 12-12 16.5-11 2.2.7 3.7 2.8 5 4.5 1.7 2.4 3.4 5.1 5.8 7 1.6 1.5 3.9 1 5.8.5 2.7-.4 5.5-1.4 8.2-1.8 3-.4 4.9 2.6 7.5 3.2 3 0 4.6-3.8 6.6-5.6 2.7-3 6.7-4.6 10.8-4.1 2.1.1 4.4.6 6.6.3 2.5-.3 4.9-1.6 7.4-1.5 2.5 0 5 .8 7.5 1.4q2.9.6 5.7 1c3.1 1 4.7 4.3 8.3 4.2q4.5-.2 9.1.7c3.9.7 7.7 2 11.6 2.8 2.4.6 5 0 7.4.8 2.8.7 5.4 2.4 8.3 2.5" class="b"/><path d="M12.9 74.7c4.2 1.1 7 5.6 11.6 5.8 1.9 0 3.8-.7 5.8-.7a14 14 0 0 0 9.9-3.8c4.6-3.6 8.6-8.2 14-10.7 4-2 6.6 1 9.1 3.6 2.6 2.6 4.1 6.6 7.5 8.3 1.3.4 2.8 0 4.1-.2q3.3-.7 6.6-1.3c2.5-.5 4.8 1 6.7 2.4 6.6 4.8 7-9.7 19-8.7q3.2.3 6.6 0c2.5-.5 5-1.4 7.4-1.4 2.9 0 5.6 1.3 8.3 2.2l4.1 1.4c1.5.6 2.9 1.7 4.2 2.5 2.5 1.6 5.5.3 8.2.5 4 .2 7.8 1.2 11.6 1.9q3.8.9 7.5 1.3c1.6.1 3.3-.1 5 .3 3 .6 5.8 2.7 9 2.6" class="b"/><path d="M12.9 71.7c4 1 6.4 4.7 9.9 6.5 5.5 2.5 11.2-.8 15.7-3.9 3.5-2.3 6.4-5.6 10-7.9 2.6-1.6 5.2-3.5 8.2-4.3 2.2-.4 4.2.8 5.8 2.2q3 2.7 5 6.2c1.3 2 3 5 5.7 4.9 3.4-.4 6.6-2 10-1.7 4 .4 6.8 6.2 10.7 2.2 2-1.8 3.6-4.2 5.8-5.8 3.6-2.6 8.3-2.1 12.4-2.8 4.4-1 9-2 13.2.1q3.3 1.7 6.7 3c2.5.6 4.7 2.8 7.4 2.6 1.3 0 2.8-.5 4.1-.6 2.8-.2 5.6.6 8.3 1 5 .6 10 1.4 14.9 1.3 4.4-.6 8.1 2.7 12.4 2.8" class="b"/><path d="M12.9 69.6c4 1.2 6.2 5.2 9.9 6.8 6.1 2.4 12-2.3 16.5-5.8 3-2.2 5.6-5 9.1-6.3q3-1.2 5.8-2.8c3.3-2 7-3 10 0 2.4 2.5 3.9 6 5.7 9 1.6 2.3 3.6 4.2 6.7 3 2.3-.8 4.9-1.8 7.4-1.2 3.5 1 6.4 5 10 1.8 2.6-2.3 4.8-5.4 8.2-6.7 2.4-1 5-1.3 7.4-1.9s5-1.3 7.5-1.4c5.6-.5 8.2 3.6 13.2 4.7 2 .3 3.9 1.3 5.8 2 1.9.5 4 0 5.8-.4q2-.2 4.1.2 7.5 1.6 14.9 1c3 0 6.1-.6 9.1-.2 3.1.4 6 2.2 9.1 2.5" class="b"/><path d="M12.9 68.6c4 1.5 6.3 6.4 10.7 6.9 6.8.4 11.5-5.3 16.6-8.8 3-2.4 5.1-4 9-4.3 7-.6 12-9.4 16.6-4.4 3.5 3.5 5.4 14.1 10.8 14.5 2.2-.1 4.3-1.4 6.6-1.3 4.3.3 6.5 3.2 10.7-.1 5-4.2 5.8-5.4 12.4-7 3.8-1 7.7-2.4 11.6-2 2.5.3 4.6 2 6.6 3.3q2.3 1.4 5 1.6c2.6.2 4.9 1.9 7.4 2 2 0 4-.6 5.8-.5 2 .2 4 .8 5.8 1 4.1.6 8.4 0 12.4-.8 3.3-.6 6.6-1.4 10-.9 2.8.4 5.4 1.8 8.2 2.3" class="b"/><path d="M12.9 68.1c3.8 2 6.6 7.5 11.6 6.1 4.5-1.1 8-4.6 11.5-7.6q3.5-2.9 7.5-5c2-1 4.4-.3 6.6-.2 8.4.9 12.9-14.8 18.2-6.3 2.8 4.5 3.9 10.2 7.4 14.2 1.8 1.8 4.4 1.4 6.6 1 5.7-.6 6.5.1 11.6-3.4 4.8-3.7 6.6-4 12.4-5.1 3.3-.6 6.6-2 10-1.7 5.3.5 6.2 4.8 12.4 4.9 1.7 0 3.3.9 5 1.4q2 .5 4 .5 2.6-.2 5 0 3.3.8 6.6 1 5.2 0 10-1.6c4-1.2 8.1-2.5 12.4-1.7 2.5.3 5 1.5 7.4 2.1" class="b"/><path d="M12.9 68c2.7 1.7 4.9 4.9 8.3 5.3 5.9-.2 10.6-6.2 14.8-9.8q2.7-2.1 5.8-3.8c3.4-1.8 6.5 1.7 10 1.5 8.3-.2 12.5-19 18.1-9.1 3 4.8 4.1 11 8.3 15 2.6 2 6.3 1 9.1-.2C91 65 94.1 62 98.1 61q3.7-.6 7.4-1c7.3-1.6 9.9-3.7 16.5 1.4a13 13 0 0 0 6.7 1.6c1.6.3 3.3 1.2 5 1.6 2.6.8 5.5.5 8.2.8 1.6.2 3.3.7 5 .7q3 .3 5.7-.4c6.2-1 11.8-5 18.2-4.2 2.9.2 5.6 1.6 8.3 2.4" class="b"/><path d="M12.9 67.4c2.2 1.7 4.5 4 7.4 4.4 5.8-.1 10.8-7 15-10.5 2-1.8 6.2-5 9-4 2.3 1 4.2 3 6.6 3.5 5.8.8 10.2-7 13.3-10.9 2.1-3 4.1-4.2 6.6-.7 2.2 3.4 3.7 7.4 5.8 10.9 2.8 4.7 5.8 6.2 10.7 3.1 6-4 7-4 14-4.2 3.8 0 7.3-1.8 10.8-2.7 4.2-1 7.3 2.2 10.8 3.8q2 .8 4.1.6c1.4.2 2.9 1 4.2 1.5A25 25 0 0 0 141 64c3 .3 6 .8 9 .2 12.9-2.3 14.8-9 29-3" class="b"/><path d="M12.9 66c2.4 1.7 5.2 3.9 8.3 3.4 5.8-1.5 9.5-7.3 14-11 2.2-1.7 6.3-4.1 9.1-2.7 2.4 1.3 4.5 4 7.5 4 6.2-.1 10.6-6.8 14-11.3 6.4-8.8 10.3 13.2 17.4 12.8 3.3-.3 5.8-3.1 9-3.4q3 .1 5.9.5c4.1.6 8-1.5 11.6-3.3 4.7-2.5 8.3.8 12.4 3 1.7 1 4 .6 5.8 1.3 2.6 1.3 5.2 3 8.2 3.4q3.4.5 6.6.4 5.2.4 10-1c5.3-1.6 10-5 15.7-5.4 3.7-.2 7.3 1.2 10.7 2.4" class="b"/><path d="M12.9 64.3c2.5 1.4 5.3 3 8.3 2.3 5.4-1.7 8.8-7 13.2-10.4 2.2-1.9 7-4.1 9.9-2.8 2.5 1.4 4.5 4 7.4 4.3 2.4.2 4.6-1 6.7-2a31 31 0 0 0 9-7.8C72 43 76.9 53 80 55.6c3.5 3.7 5.9.9 9.9.6 3.6.1 7 2.1 10.7 1.4 4.4-.6 7.3-4.9 11.6-5.6 1.8 0 3.4 1 5 1.7 2 1 3.7 2.3 5.8 3 1.3.5 2.8.5 4.1 1.2 3 1.5 5.8 3.6 9.1 4.2 2.4.6 5 .4 7.4.3q3 0 5.8-.6c3.9-.8 7.3-2.9 10.8-4.6 6.9-3.4 12-2.7 19 0" class="b"/><path d="M12.9 61.8c2.5 1 5.5 2.2 8.3 1.5 5.2-2 8.5-7.1 13.2-10q2.6-1.7 5.8-2.3c1.3-.2 2.8-.6 4.1 0 5.5 2.9 6.2 5.9 13.2 3.1q4.3-1.5 8.3-3.4c2-1.3 4-3.5 6.6-3.6 5.1.1 7.5 7.8 12.4 7.4a10 10 0 0 1 6.7.9c13.2 6.5 15-8 22.3-4.7q2.4 1.4 5 2.6c1.5.9 3.2 2 4.9 2.5 3.1.7 5.5 3 8.3 4.4a17 17 0 0 0 11.5 1.8q5.4-.1 10-2.5c3-1.6 5.8-3.8 9-5 6.1-2.2 10.8-1.2 16.6 1" class="b"/><path d="M12.9 58.5c3.1 1 6.9 2 9.9 0 4.9-3 9-7.8 14.9-9q2.9-.6 5.8-1c4.5 0 6.5 5 12.4 3.6q3.8-1.1 7.4-1.9c1.6-.3 3.4-.2 5-.6 3-.8 5.8-4.3 9-2.3q1.9 1 3.4 2.6a9 9 0 0 0 3.3 2q1.6.3 3.3.4c1.5.4 2.9 1.4 4.1 2.1 12 6.4 15.2-9 21.5-5.6l3.4 2.2 3.3 1.7q3.2 1.9 6.6 3.5c3.2 2 6.1 4.9 10 5.6 2.3.6 5 0 7.3-.3 2.5-.3 5.2-.5 7.5-1.6 3.6-1.5 6.5-4.3 10-6.2a18 18 0 0 1 11.5-1.8q3.3.8 6.6 2" class="b"/><path d="M12.9 54.7c9.4 2.3 10.5-2.2 18.2-5.3 3.1-1.2 6.6-1.6 9.9-2.1 1.3-.2 2.8-.8 4.1-.8 3 .2 5.4 2.5 8.3 3 3.7.5 7.1-1.6 10.7-1.6 2-.2 3.9.9 5.8.7 4.7-1.3 5.7-6 10.8-1.3 4 4 4.5 1.8 8.3 4.1 1.7 1.2 3.6 2.6 5.7 2.8 4.2.7 8-1.7 10.8-4.5 4.9-4.5 6-3.6 10.7.2 1.3.9 3 1.5 4.2 2.4l6.6 4.4c3.1 2.3 6.6 5.1 10.8 4.7 1.9-.1 3.8-1 5.7-1.3 2.2-.3 4.5-.2 6.7-.8 3.8-1.2 6.7-4.2 9.9-6.4 3.5-2.6 8.1-3.4 12.4-2.7q3.3.8 6.6 2" class="b"/><path d="M12.9 50.7c2.7 0 5.6 0 8.3-1 2.4-.8 4.8-2 7.4-2.4 4-.7 8.3-.4 12.4-.8 1.7-.1 3.3-1.1 5-1.5 2.8-.2 5.5 1.4 8.2 1.8 4 .6 7.7-1.7 11.6-1.2 1.4.3 2.8 1 4.1 1.2 2.3.3 4-1.7 5.8-2.8 3.8-2.2 6 3.2 9.1 4.2 1 .2 2.4.4 3.3.9 2.2 1.1 4.1 3 6.7 3.1 7.8.8 10.3-6.3 15.7-7 1.6 0 3 1.3 4.1 2.2q1.9 1.8 4.2 3c3.4 2.4 6.3 5.3 9.9 7.4 2.9 2 6.5 3.2 9.9 1.8 1.6-.6 3.2-1.6 5-2 2.4-.3 5 .4 7.4-.1 3.5-.7 6.2-3.5 9-5.6 6-4.6 12.4-4 19.1-1.6" class="b"/><path d="m12.9 46.9 9.9-2.3c3.3-.7 6.7 0 10 .6l6.5 1c5 .8 6.1-2.7 10.8-2.3 2.4.2 5 .8 7.4.6 3-.3 6.1-1.5 9.1-.8 1.4.2 2.8.8 4.2.8 4.7-.4 6-5.8 10.7-.7 4.1 4.6 4.6 1.6 9.1 4.5 5.7 3.6 10.8.4 15.7-2.8 4.5-2.8 6.6-1 10 2.2 1.8 1.5 4 2.9 5.7 4.6 3 2.8 6.5 5.8 10.8 6.2q3 0 5.8-1.8c1.8-1 3.6-2.5 5.8-2.7 1.9 0 3.9.7 5.8 1 2.6.4 5.2-.7 7.4-2.1 2.4-1.6 4.7-3.4 7.4-4.4a28 28 0 0 1 7.5-1.2q3.4.1 6.6 1" class="b"/><path d="M12.9 43.1c5.5-2.2 9.9-4 15.7-1.5 2.5 1 4.9 2.3 7.4 3 2.9 1.1 6.3 3 9.1 1 3-2.2 5.4-3.1 9.1-3q4.5-.1 9.1-1c4.4-.5 7.5 1.4 11.6-1.1 3.4-2 5.2-.2 7.5 2.2 1 1.2 2.4 2.5 4 2.2q2.7 0 5 1.2c8.7 3.7 13.1-3.2 19.9-2.6 1.9.3 3.5 1.6 5 2.8q3.4 2.5 6.6 5.5c3 2.7 7.2 5.8 11.6 4.3 2.5-1 4.4-3 6.6-4.6a7 7 0 0 1 6.6-1c7 2.3 8.3 1.7 14.9-1.2q3.7-1.4 7.4-2 4.6-1.3 9.1-.7" class="b"/><path d="M12.9 39.2c4.6-2.3 9-4.7 14-2 3 1.5 5.4 4 8.3 5.6 7.1 4.2 7 6 14 .3 3.5-2.3 7.8-2.3 11.7-3q4.5-.7 9-.9 3-.3 5.8-1.4c3.7-1.3 5.9 2.7 8.3 4.7 1.7 1.4 3.9.1 5.8.5 2.2.4 4.4 1.2 6.6 1.4 4.8.5 9.4-1.7 14-1.4 8.5.7 13.2 10.1 21.6 10.9 5.6.2 7.8-7 13.2-7.2 3.4-.4 6.6 1.1 10 1.5 3 .4 6-.3 9-.8 5-.9 9.9-2.2 15-2.4" class="b"/><path d="M12.9 34.7c8.8-4.3 12.3-4.4 19 3.2 2 2.2 4.5 3.9 6.6 5.9 2.8 2.5 5 4 8.3 1.2 1.8-1.6 3.6-3.5 5.8-4.5 7-3.3 14.9-3.1 22.3-4.8a6 6 0 0 1 5.8 1.7c1.9 1.7 3.7 4.9 6.6 3.9q2-.7 4.2-.4 3.3.5 6.6 1.1c6.3.9 13-.4 19 2.1 3.2 1.3 6 3.6 9.1 5 3 1.5 6.9 3.4 10 1 2-1.5 3.6-3.7 5.7-5a17 17 0 0 1 8.3-1.8c2.7 0 5.5.6 8.3.6q5.3.1 10.7-.6c3.3-.1 6.6.2 10-.2" class="b"/><path d="M12.9 30.3c8.4-3 12.7-3.8 18.2 4.2q2.8 4.1 6.6 7.3c1.6 1.5 3.4 3.6 5.8 3.6 3.2-.3 5-3.6 7.4-5.2 6.8-4.7 15.3-5.3 23.2-6.5 6-1.3 7.1 4.2 11.6 6q2-.2 4.1-.7c4.8-.7 9.4 1.7 14 2.2q6.8.8 13.3 1.8c4.3 1.3 8.3 3.5 12.4 5.1 6 3 7.6-1.1 11.6-4.7 2.8-2.2 6.5-2.7 9.9-3.4 6-1 12.2-.8 18.2-1.1 3.3.2 6.6 1.7 10 1.9" class="b"/><path d="M12.9 26.2q3.7-.7 7.4-1c3.4-.4 6.1.3 8.3 3 2.4 2.9 4 6.5 6.6 9.3 2.6 2.6 5.8 6.8 10 5.2 2.1-1 3.7-3.2 5.7-4.5q6.9-4.2 15-5.3l6.5-1c2.2-.3 4.7-.5 6.7.9s3.6 3.5 5.7 4.7c1.6.7 3.4 0 5-.4a15 15 0 0 1 5-.2c2.8.4 5.5 1.7 8.2 2.4q5.7 1.5 11.6 2c6 .8 11.6 3.8 17.4 5.5 5.3 1 7.1-6 11.6-7.5 6-1.8 12-3.8 18.2-4.7 2.7-.2 5.5-.8 8.2-.5 3.3.5 6 2.5 9.1 3.6" class="b"/><path d="M12.9 22.9q3.7-.2 7.4-.1c2.2-.1 4.7-.6 6.6.7 4.3 3 5.7 8.6 9.1 12.4 2.3 2.8 6.4 6 10 3.5 2-1.6 4-3.6 6.6-4.6q7.5-3.2 15.7-4.2c6.9-.6 8.6-2 14 3.1 2.2 2 3.9 2.5 6.7 1.8q3.2-1 6.6-.7c2.9.2 5.6 1.6 8.3 2.6q3.6 1.1 7.4 1.7 6.4.9 12.4 3c2.7.8 5.4 2.2 8.3 2.5 4.6.3 6.6-5 9.9-7.2q2.3-1.3 5-1.8 5.3-1.4 10.7-2.9 4-.8 8.3-1.4c6.3-1.4 8 0 13.2 3.3" class="b"/><path d="M12.9 20.4q3.8.4 7.4.7c2 0 3.9-.7 5.8-.4 4.5 1 6.6 7.7 9.1 11 2 3.2 6 7.3 10 5 2.4-1.9 5-4.2 8.2-4.8 4.1-.8 8.2-2.1 12.4-2.6l6.6-.8q3.6-.7 6.7.9c2 1.1 3.6 3 5.7 3.8 2.2.8 4.5.1 6.7-.2q3.7-.7 7.4 0c2.8.7 5.5 2 8.3 2.9 3 .9 6 1.3 9 2.1l8.3 2.6c2.2.7 4.4 1.6 6.7 1.7 5.9.1 7.9-7.3 13.2-8.7a73 73 0 0 1 17.4-2.4c7.8-.4 10-4.5 17.3 1.4" class="b"/><path d="M12.9 18.7c2.7.3 5.5 1.3 8.3 1.2 1.3 0 2.8-.5 4-.7 3.6-1 6 2.4 7.5 5 1.8 3 3.4 6.2 5.8 8.7 5.5 4.9 6.8-1.3 11.6-2.8 2.4-1 5-.5 7.4-1q5-1 10-1.7c8-1 8.6-2.4 15.7 2.6 2.2 1.4 5 1.3 7.4 1 8.2-1.2 9.8-.8 17.4 2.3q4.1 1.4 8.2 2.7 4.5 1.6 9.1 3.1c8.7 3 10.6-2.1 16.6-6.6 3.4-2.2 7.7-2.4 11.6-2.4 4 .1 8.3 1 12.4.1 6.4-1.5 7.3-2.4 13.2 1.7" class="b"/><path d="M12.9 17.2q3.3 1 6.6 1.7c4 .9 8.2-3 11.6.3C34.5 22.1 37.9 33 42.7 32c1.6-.6 2.6-2.5 4.1-3.4 3.2-2.4 7.2-.8 10.8-1 2.4-.2 5-1 7.4-1.5l8.3-1.6c7-1.4 8.8 4.8 16.5 4.2 5-.2 10-2 14.9-.1 7.4 3 14.4 7.4 22.3 9 6.5 1.5 10.8-4.5 15.7-7.4 4.9-2.5 10.6-1.8 15.7-1.3q6.3 1 12.4-.2c3.2-.5 5.8 1.9 8.3 3.4" class="b"/><path d="M12.9 15.7c2.4.8 4.9 1.8 7.4 2.2 6.6.6 9.2-4.2 14 3.2 2 2.2 4.6 9.7 8.4 7.8 4.5-4.8 6.2-4.2 12.4-3q3.7.5 7.4-.8l7.4-1.9c3-.9 6.2-2 9.1-.6 2.2.8 4.3 2.3 6.7 2.8q2.8.6 5.7.4c2.5-.2 5-.8 7.5-1 3-.4 6.4-.2 9 1.5 3.2 1.8 6 4.3 9.2 5.9 3.5 1.3 7 3.3 10.7 3.5 7.1.3 11.6-6.6 18.2-7.8q6.7-1.2 13.3-1c2.7 0 5.5 1 8.2 1.1 2.6 0 5.4.2 7.5 2 1.2.8 2.6 2 4.1 2.6" class="b"/><path d="M12.9 13.8c3.2 1 6.5 2.5 9.9 2.6 2.2.2 4.4-.5 6.6-.4 4.6.6 6.5 5.6 9.1 8.8 4.2 4.6 4.2-3.8 12.4-1.3 1.9.4 3.9 1 5.8 1 2.6 0 5-.9 7.5-1.6Q67 22 70 21.2c2.3-.8 4.8-2 7.4-1.6 3.5.5 6.4 3 10 3.3q3.7.4 7.4-.4l6.6-1c6-1.5 9.8 4 14 7.2 1.5 1.1 3.4 1.6 5 2.4 2.6 1.3 5.3 2.5 8.3 2.5 2.6 0 5.1-1.4 7.4-2.5q2.8-1.5 5.8-2.6c2.6-1.2 5.5-1.3 8.3-1.9q3.3-.8 6.6-2c3-.9 6.3.2 9 1.5q2.7.8 5 1.6 2.3 1.2 4.2 3c1 1 2.5 2 4.1 2" class="b"/><path d="M12.9 11.5c3.8 1.1 7.6 2.7 11.6 3.1 6.5.3 8.1.4 12.4 5.7 4.2 5.9 4.8.3 9.9.8q2.6.3 5 1.1c3.2 1 6.7.5 9.9-.5l7.4-2c2-.6 3.8-1.6 5.8-2 6.2-1.4 8.6 4 18.2 2.6q3.4-.5 6.6-1.3c3.6-1.2 7-1.4 10 1.3 2.2 1.9 4 4.5 6.6 6q1.6 1 3.3 1.6c3 1.5 6.3 3.8 9.9 3.5 2-.2 4-1.2 5.8-2q3.2-1 6.6-1.7c2.7-.7 5.6-.6 8.3-1.4s5-2.6 7.4-3.8c3-1.6 5.8.4 8.3 2.1q2.5 1.4 5 2.9c2.6 1.7 4.6 5.5 8.2 4.7" class="b"/><path d="M12.9 9.6c4.5.7 8.7 2.7 13.2 3.4 6.7.8 7.7 2.8 12.4 6.7 1.6 1 3.3-.5 5-.8 3.1-.6 6 1.6 9 2 3.4.6 6.8-.5 10-1.2 3-.8 6.2-1.3 9.1-2.6 10.2-4.7 11 3.7 24 .5 8.2-2.7 10.8-4.5 17.4 2.8q1.8 2 4 3.3 2.3.8 4.2 2c3 1.7 6.3 4 10 3q3.2-1 6.6-1.6 4.5-.2 9-.5 3.2-.3 5.9-2c3-1.7 6-6.6 9.9-4l3.3 2.9q2.5 1.7 5 3.8c2.3 2 4.8 5.3 8.2 3.7" class="b"/><path d="M12.9 8.4q4.2.2 8.3 1.7 3.2 1 6.6 1.7 3 .7 5.8 2.5c1.6 1 3.1 2.3 5 2.9q1.2 0 2.4-.5c2.8-1.1 5-.2 7.4 1.2 4.4 2.6 7.9 1.6 12.5.6 3.8-.8 7.9-1.3 11.5-3 3.8-1.6 6.9-1.7 10.8-.3 5 1.6 9.3 1.7 14-.7 9-4.1 11-2 17.4 4.5 1.8 1.8 4.5 2.3 6.6 3.5 3.3 2 6.8 4.5 10.8 3.7q3.2-.6 6.6-.5c5 .3 10.7.7 14.9-2.6 2.4-1.5 4.3-5.1 7.4-4.9 2.1.5 3.5 2.6 5 4l6.6 5.7c1.8 1.7 4.2 3 6.6 1.6" class="b"/></svg>