<svg xmlns="http://www.w3.org/2000/svg" id="a" width="1920" height="2400" viewBox="0 0 192 240"><defs><style>.b{fill:none;stroke:#fff;stroke-miterlimit:10;stroke-width:.3px}</style></defs><path d="M0 0h192v240H0z" style="stroke-width:0"/><path d="M11.7 220.4a53 53 0 0 1 12.6 6c2.6 1.8 5.1 4.4 8.4 4.4 1.7-.2 3.4-1.1 5-1.7 2.4-1 5-2 7.6-2q4.1-.6 8.4 0c2.8.5 5.6 1.7 8.3 2.7 6.1 2.6 11.7 1.1 17.7-1 3.4-1 6.7-2.5 10-3.7 5.8-2.3 9.6 2.4 15.1 2.2 2.3-.2 4.5-1 6.7-1.6 3.6-.8 7.3 0 11 0 3.3 0 6.7-.7 10 .2 3.5 1 6.5 3.3 10 4.4 2.2.6 4.5.5 6.7.7 4.5 0 9 1.3 13.5.2 3-1 5.8-3 8.4-5a117 117 0 0 0 9.2-7.3" class="b"/><path d="M11.7 219.1q5.7 1.7 11 4.4c2.7 1.5 5.1 4.2 8.3 5 2.3.3 4.5-1.1 6.7-1.6q2.5-.8 5-1.1h3.4q5.1.1 10 1.1c4.7 1 9.6 2.2 14.3 1 5.8-1.1 10.4-5.1 16-7 4.1-1.7 8.4-2.7 12.5-.3 2.2 1.1 4.3 2.8 6.7 3.6 2.5 1 5.1.3 7.6-.3q3-.4 5.9-.3 2.4.3 5 .2c2 0 4-.2 5.9.2 4.5 1 8.7 3.7 13.4 4.3l10.9.7c3.6.3 7.5.8 10.9-.7q3.4-1.7 6.7-4 4.4-2.9 8.4-6.4" class="b"/><path d="M11.7 217.9q5.6 1.3 11 3.6c2 1 3.8 2.5 5.8 3.7s3.8 1 5.9.3a38 38 0 0 1 7.5-1.4q3 .1 5.9.4 7.5.8 15 .8a24 24 0 0 0 14.3-4.1c2.3-1.5 4.4-3.4 6.7-4.6q5.7-2.2 11.8-2.7c3.7-.3 6.7 2.4 9.2 4.8 4.8 4.4 6.2 4.9 12.6 3.5 1.9-.5 4-.3 5.8-.3h4.2q2.6.5 5 1.5c8.6 3.7 13.2 2.1 21.9 2.7 3.6.1 7.3.7 10.9-.2 2.3-.7 4.5-2.2 6.7-3.4q4.6-2.3 8.4-5.7" class="b"/><path d="m11.7 216.4 6.7 1.6q2.6.4 5 1.4c2.7 1.1 4.7 3.7 7.6 4.1 1.4 0 2.9-.5 4.2-.7q3.4-.5 6.7-.6 4.2.4 8.4.7 4.6 0 9.2-.6c7-.8 11.8-.6 17.6-5.2 2.4-1.8 4.7-4.1 7.6-5.1 1.8-.6 4-.4 5.8-.5q2.3-.2 4.2-1.2c7.3-3.7 10.3 1.3 14.3 6.6 1.5 2 3.2 4.6 5.9 4.9q2.2 0 4.2-1a18 18 0 0 1 4.2-.7h4.1q2.6.7 5 1.6a29 29 0 0 0 16.8 1.4c5.6-.8 11.3 1 16.8.1q3-1 5.9-2.6 4.7-2 8.4-5.2" class="b"/><path d="M11.7 214.6q3 .4 5.9.9c2.2.2 4.7.3 6.7 1.5s3.7 3 5.9 3.7c1.3.4 2.8 0 4.2-.1q3.4-.3 6.7-.3 4.1.3 8.4.5 5.1-.1 10-1.5 3.7-1 7.6-1.4c4.9-.5 8.8-3.7 12.6-6.6 1.8-1.4 4.3-2.5 6.7-1.9 5.5 1.8 6 1.7 10.9-1.6 7-5.5 9.8-2.3 13.4 4.5 1.7 2.9 2.8 6.9 5.9 8.6 1.4.5 2.9-.4 4.1-1q1.6-.8 3.4-1.1c2.2-.6 4.6 0 6.7.6 3.9.8 7.7 2.3 11.7 2.1 2.9 0 5.7-1 8.4-1.3q3.3-.5 6.7 0c3 .2 6.2.7 9.3.4 1.7-.3 3.4-1.3 5-2q4.7-2 8.4-5.1" class="b"/><path d="m11.7 212.4 6.7.2c2.4 0 4.9.7 6.7 2.2 1.6 1.2 3.2 2.8 5 3.4 1.4.5 3 .2 4.3.2H41c6.2.5 12.6.4 18.4-2a32 32 0 0 1 8.4-2.1c4.2-.7 7.5-3.4 11-5.6 2-1.3 4.5-1.6 6.6-.3 2.1 1.2 4.1 3.4 6.7 3.2 3.6-1 6.5-3.7 9.2-6 5.5-5.3 7.9-4.8 11 2l3.3 8.5c.9 1.7 1.8 4.7 4.2 4.5 2-.8 3.6-2.7 5.9-3 1.6-.3 3.4 0 5 .1q4.2.3 8.4 1.3c4.8 1 9.5-1 14.2-1.5 5-.5 10.1.5 15.1.1q6.7-1.5 11.8-6.1" class="b"/><path d="M11.7 209.8c3.9-.3 8.3-1 11.8 1.3 6.5 5 4.7 5.3 13.4 5.5 6.4.3 13 0 19.3-1.8 2.3-.7 4.4-1.9 6.7-2.7 2.4-1 5.1-1 7.5-1.8 3-1 5.5-3 8.4-4.2 4.7-1.7 7.5 3.7 11 5.8q2.4 1.5 5 0 2.5-1.2 5-2.6c3.6-2.3 5.8-6.4 9.2-9 6.2-3.8 7.5 17.3 11.7 19.7l.9.1c2-1 3.4-3.4 5.9-3.6q3.7-.3 7.5-.1 2.5.2 5 .5 3 .2 5.9-.3c5.6-.9 11.1-2.2 16.8-2.2q3.3 0 6.7.2c4.1-.5 7.7-3 10.9-5.6" class="b"/><path d="M11.7 207.2c5-1.2 9.8-.5 13.4 3.2 1.8 1.6 3.6 3.5 6 4q5 .7 10 .2 4.6-.6 9.2-1.6c3.4-.6 7-1.3 10-2.9q2.5-1.2 5-1.9 3-.3 6-1.3c3-1 5.9-3.5 9.2-2.7 5.3 1.6 7.7 10.7 14.2 8 6.8-1.8 9.5-3.1 13.5-9 1.4-1.9 2.6-4.7 5-5.4 4.7 1.1 5.3 18 9.2 21.4l.8.1c2.5-1.3 3.5-4 6.8-4q5-.4 10-.4l6.7-.6c5.5-.4 10.6-2.4 16-3.2q2.9-.4 5.8-.2c4.4.2 8-2.5 11.8-4.5" class="b"/><path d="M11.7 204.6c3.6-1.3 8-.8 11 1.6 2.5 2 4.4 5 7.5 6 3.8.8 7.9 0 11.7-.8l8.4-1.8q3.8-.6 7.6-1.5c2.2-.8 4.4-2 6.7-2.5 2.4-.6 5.1-.7 7.5-1.6 7-2.9 8.6-1.7 13.4 3.8 3.1 3.5 5.3 5 10 3.9 3.2-.5 6.5-.5 9.3-2.1 3-2 5-5.3 6.7-8.3 1.2-1.8 2.2-4.4 4.2-5.5l.8.2c2.1 2 2.6 5.7 3.4 8.3 1.2 4.3 1.7 9.7 4.2 13.5l.8.4c1.4-.3 2.4-1.8 3.4-2.6q1.4-1.3 3.3-1.7c2.2-.4 4.6-.4 6.7-.8q5.4-.9 11-1.3c4.9-.4 9.4-3 14.2-4 2.4-.7 5-.3 7.6-.8 3.1-.6 6-2.3 9.2-3" class="b"/><path d="M11.7 202.2c3.2-1.7 7.3-1 10 1.2 2.7 2 4.6 5.1 7.6 6.4 4 1 8-.5 11.8-1.4q4-1.3 8.4-2 3.7-.4 7.5-1c2.5-.7 5-1.9 7.6-2.4s5-.5 7.5-1.2c7.6-2.6 9.2 1.2 14.3 5.8 2 1.9 4.7 3.3 7.5 3q3.3 0 6.7.2c7 .6 9.6-4 12.6-9.5 1.5-2.5 2.6-5.9 5-7.6l.9.2c3.7 4.7 3.5 18 7.5 22.2l.9.2c2.1-1 3.6-3.2 5.8-4q4.6-1.4 9.3-2c2.7-.3 5.6-.2 8.4-.9 4.8-1.2 9.3-3.7 14.2-5 2.2-.5 4.5-.5 6.7-1 2.8-.6 5.6-1.6 8.4-1.6" class="b"/><path d="M11.7 200.5c3-2.4 7.4-1.5 10 1 2.4 1.8 4 4.6 6.8 6 1.3.4 2.9.1 4.2 0l6.7-1.8q4.1-1.2 8.4-2c2.7-.4 5.6-.4 8.4-.9 2.5-.5 5-1.5 7.5-1.9s5.1-.3 7.6-1c8-2.3 9.3 1.2 15 5.6 4.6 3.8 8.2 2.9 13.5 3.9 2.2.3 4.5 1.3 6.7.4 4.6-2 7-7 9.2-11.2 1.2-2.2 2.3-5 4.2-6.7l.8-.1c3.8 3 4.1 16.5 7.6 21 1.5 1.8 3.6.1 5-.9a22 22 0 0 1 5.9-2.7c4.1-1 8.6-.7 12.6-2.3 6-2.3 12-5.4 18.4-6.3 3.3-.6 6.8-1.3 10-.5" class="b"/><path d="M11.7 199.3c3.2-2.6 7-2 10 .6 2.3 1.7 4 4.6 6.8 5.4 1.7.1 3.4-.5 5-.9l6.7-1.9a48 48 0 0 1 9.3-1.5q5-.2 10-1.5c2.5-.7 5-.6 7.6-.7q3-.3 5.8-1.1c2.2-.6 4.7-.8 6.7.3 3.6 2 6.5 5 10.1 6.9 2.6 1.3 5.6 1.5 8.4 2 2.3.4 4.4 1.6 6.7 2 4.6-.2 7.8-4.6 10-8.2q1.9-2.9 3.4-6c.9-1.5 1.9-3.6 3.4-4.7l.8-.2c4.6 2.8 4.4 19 10 20.8 2.4.2 4.6-1.3 6.8-1.9 3.6-1 7.5-1.9 10.9-3.6 3.7-2 7.8-3.3 11.7-4.8 4-1.5 8.3-2.7 12.6-2.7 2 0 4 .7 5.9 1.2" class="b"/><path d="M11.7 198.5c4.8-3.3 8.9-1 12.6 2.5 2.8 2.6 4.2 2.2 7.6 1.1q5.3-1.7 10.9-2.6 4.5-.7 9.2-1c3.6-.5 7.2-1.9 10.9-1.6q2.5.4 5 .2c1.7-.2 3.4-1 5-1.5 4.3-1.8 6.6-.8 10 1.8 3.1 1.8 6 4.2 9.3 5.4 2.7 1 5.7 1.2 8.4 2.4 1.6.7 3.2 1.8 5 1.6 4-.7 7-4 9.3-7.2 1.4-2.1 2.8-4.7 4.1-7 1.1-1.7 2.2-4.2 4.2-5 6 .8 5.4 19.7 14.3 20 5.8.2 9.9-4.8 15-6.5q4.3-1.3 8.5-2.7c3-1.1 6-2.4 9.2-2.6 3.5-.5 6.7 1.3 10 2" class="b"/><path d="M11.7 198q5.2-2.3 10 .2c1.5.7 2.8 1.8 4.3 2.3 2 .7 4-.7 5.8-1.2 5.4-1.8 11.2-2 16.8-2.8 4-.3 7.8-1.9 11.7-1.7 2.8.2 5.7 1.5 8.4.5 2.9-1 5.3-3.5 8.4-3.6 2.2 0 4 1.6 5.9 2.6l6.7 3.7q2.5 1.3 5 2.2 3 .9 6 2.2c1.4 1 3.1 2 5 1.7 3.8-.8 6.9-4 9.2-7.1q2.6-3.7 5-7.8c1.3-1.8 3.1-5.6 5.9-4.1 4 3.5 4.9 9.5 8.4 13.5 4 5 7.5 3.6 12.5 1 4.7-2.4 10.3-1.5 15.1-3.4 9.8-4 9.5-2.1 18.5 1" class="b"/><path d="M11.7 198c4.5-.3 9.1-1.3 13.4.2 1.5.4 3-.3 4.2-.9q2-.8 4.2-1.3c5-1 10.1-.9 15.1-1.7 5.2-.9 9-2.8 14.3-.8 5.6 2.1 7.4-1.7 11.7-4 3-1.7 5.8.8 8.4 2q5.7 1.6 10.9 4.4a43 43 0 0 1 7.6 4c4.4 2.6 8.9-1.5 11.7-4.7 3.7-4 6-9.5 10-13.2 4.7-3.3 8.1 5.2 11 7.7 3.6 3.8 9.3 3.6 14.2 4 4 .4 7.8 1.9 11.7 1.2 2.4-.4 4.5-1.5 6.8-2.1q3-.9 5.8.6c2.5 1.1 5 2.8 7.6 3.7" class="b"/><path d="M11.7 198.2c4.2.9 7.2-1.5 11-2.6H26c1.1 0 2.3-.7 3.3-1.2q4.1-1.6 8.4-1.8c4-.1 8 0 11.8-.9s7.8-2.3 11.7-.6c2.8 1 5.8 2.3 8.4 0 5.7-5 5.2-6 12.6-2.9 2.4.7 5 .7 7.5 1.5 4 1.3 7.4 4.1 11 6.4 4.8 2.7 9.5-2.2 12.5-5.7 3.4-3.8 5.8-8.9 10-12 4.5-2.9 8.2 2.4 11.8 4.4q2.9 1.3 5.9 2.6 4 2.3 8.4 4.3c3.8 2 8.1 4.2 12.5 3.2 2.2-.5 4.4-1.7 6.7-1.7 1.5 0 3 .8 4.2 1.5 2.5 1.4 4.9 3.4 7.6 4.4" class="b"/><path d="M11.7 198.1c4 .5 6.9-2.8 10-4.5 1.6-.8 3.5-.4 5.1-.8q2.8-1.6 5.9-2.5c3.8-1 7.8-.6 11.7-.6 3.1 0 6.2-.8 9.2-1.5 6.9-1.9 10.6 4 15.1 1.8 2.8-1.5 4.3-5.2 7.6-5.8 1.7-.2 3.4.5 5 1q2.5.3 5 .2c4.9-.1 8.2 3 11.8 5.7 5.8 4.6 11.3-1.7 15-5.9 3.3-3.5 6.3-9 11-10.6h3.3c2.4.4 4.6 2 6.7 3q3.4 1.7 6.7 3.5l10.1 7c3 2 6.3 4 10 3.4 2.3-.3 4.5-1.4 6.8-1.4 5 .4 8 5.2 12.6 7" class="b"/><path d="M11.7 197.1c4-.7 6.6-4.3 10-6.2q2.1-.7 4.3-.5c1.4-.2 2.8-1 4.2-1.4 3.5-1 7.1-2.3 10.9-2.2 3 0 6.2.3 9.2-.2 3.3-.5 6.7-1.8 10-.6 4.8 1.5 7.6 4.3 11.8-.3 3-3.6 4.6-4 9.2-3.4 2.8.3 5.7-.5 8.4.4 5.7 2.3 9 9 16 4.5 3.1-2 5.8-4.9 8.3-7.7 2-2.3 4.1-5 6.7-6.6 1-.6 2.3-.4 3.4-.4h5q6 3 11.7 6.3l11.8 8.7c2.6 2 5 3 8.4 2.4 1.9-.4 3.9-1.3 5.8-1.2 5.4.5 8.7 5.7 13.5 7.6" class="b"/><path d="M11.7 195c3.7-1.6 6-5.6 10-6.7 1.4-.2 3 .2 4.3.3l8.4-1.5c3.3-.8 6.6-2 10-1.9 2.5 0 5.1.3 7.6-.3 2.7-.6 5.5-2 8.4-1.3 2.3.4 4.4 1.8 6.7 2.4 3.5.9 6-2.4 8.4-4.4 1.8-1.5 4.4-1.6 6.7-1.7 2.2-.2 4.5-.6 6.7.3 3.7 1.4 6.8 4.6 10.9 4.9 3.1 0 6-1.9 8.4-3.7 4.2-3.3 7.2-8 11.7-11h5.9c1 0 2.3-.2 3.3.3q6 3 11.8 6.6l8.4 6.3c3 2.2 6 5.5 10 4.7 2.5-.3 5-1.6 7.6-1 5.3 1 8.6 5.8 13.4 7.8" class="b"/><path d="M11.7 191.9c4-3 7.1-7 12.6-5q2 .4 4.2.2 2.5.3 5 .2c3.2-.2 6.2-1.3 9.2-1.8 2.2-.2 4.6 0 6.7-.4 6.2-1.2 8.4-5.9 15.1-2.3 2.3 1.1 5.2 2.1 7.6.7 2-1.2 3.7-3.2 5.9-4.3 2.8-1.2 6.2-1.8 9.2-1.1 3.7.8 7 3.4 10.9 3.8 8.5.7 13.6-7.5 19.3-12.5l1.6-1h6.7c1.6-.3 3 .6 4.3 1.3l5 3q3.8 2 7.5 4.5 3.9 2.8 7.6 6c3 2.5 5 3.8 9.2 3 1.6-.3 3.4-.9 5-.8q3.6.5 6.7 2c3.2 1.8 5.8 4.6 9.3 5.8" class="b"/><path d="M11.7 188c3.2-2.6 6.8-4.6 11-3q2.3.8 5 1 2.9.8 5.8 1.2c2.8.3 5.7-.2 8.4-.7 2-.2 4-.1 5.9-.6 2.4-.6 4.7-2 6.7-3.4 2.5-1.8 5.2-3.4 8.4-2 2.7.9 5.4 2.8 8.4 2.2 1.9-.5 3.4-2 5-3.1q3.3-2.5 7.6-3c4.3-.4 8.3 2 12.5 2.6 6.1.8 11.2-1.5 15.1-6.1 2.2-2.3 4.1-5 6.7-6.8 9.8 0 6.9-.7 15.1 4.4q4.2 2.3 8.4 4.7 3 2.2 5.9 4.8c3.5 3 5.1 4.6 10 3.8 2-.2 4-.7 6-.6q1.6.2 3.3.7 2.1.4 4.1 1.4c3.2 1.6 6 4.1 9.3 5.3" class="b"/><path d="M11.7 184.3c3.9-2.6 7.6-2.2 11.8-.5l8.4 2.2q5 1.3 10 .6c2 0 4 .2 5.9-.5 5-1.6 8.4-8.6 14.2-7 2.8.7 5.5 2.4 8.4 2.4 2.2 0 4.2-1.5 5.9-2.7q3-2.2 6.7-3c4.5-.9 9 1 13.4 1 3.7.3 7.7 1 11-1.2 4.4-2.8 6.4-8.5 10.8-11.4h6.7c2.7 1.4 5 3.4 7.6 5 2.6 1.8 5.7 3 8.4 4.6q3.1 2.2 5.8 4.9c3.7 3.4 5.4 3.2 10.1 2.9 2.2-.2 4.5-.6 6.7-.3 2.5.6 5.2.9 7.6 2 3.1 1.4 5.9 3.8 9.2 4.9" class="b"/><path d="M11.7 181.2c3.6-1.5 7.5-.4 11 .8q3.7.9 7.5 2.2 5.3 1.7 10.9 1.5c3.2.2 5.5.7 8.4-1.3 3.4-2.4 6.2-7 10.9-6.5 4.6.7 8.6 3.6 13.4 1.3 3.2-1.7 6.4-4 10-4.5 2.5-.5 5.1-.2 7.6-.1q3-.1 5.9.4c5 1.3 8.5 2.8 12.5-1.8 3.1-3.4 4.9-8.1 8.4-11q3-.1 5.9 0c2.7 1.5 5 3.8 7.6 5.5 2.3 1.7 5 2.8 7.5 4.2a29 29 0 0 1 5.9 4.6c1.1 1 2.6 2.3 4.2 2.6h5.8q3.7-.4 7.6-.3 4.4.4 8.4 2.2c3 1.5 5.8 4 9.2 4.9" class="b"/><path d="M11.7 178.8c3.4-.7 6.9.4 10 1.4q4.8 1.1 9.3 2.6c3.2 1 6.7 1 10 1 1.4 0 2.9.5 4.3.5 4.8-.4 7.2-6 11.7-7.2 3.1-.8 6.2.9 9.2 1.3 9.2 1.4 12.2-5.5 22.7-5.4 2.4 0 5.1-.5 7.5.3 2 .7 3.9 2 5.9 2.8 9.3 3.2 11-12.4 16.7-16q2.3-.2 4.2.2c2.8 1.6 5 4 7.6 6 2 1.6 4.5 2.5 6.7 3.8a30 30 0 0 1 5.9 4.4c1.3 1.3 3 2.5 5 2.2q3 .1 5.9 0 3.7-.9 7.5-.9a21 21 0 0 1 9.2 3c3 1.9 5.7 4.5 9.3 5.2" class="b"/><path d="M11.7 176.7c3.4 0 6.8 1 10 1.8 4.3.9 8.4 2.5 12.7 2.8h7.5l2.5.5q1.8 0 3.4-.7c2-1.2 3.8-3.2 5.9-4.4 3.3-2.2 7.3-.3 10.8.3q4.3.5 8.4-.8c4.8-1.6 9.2-4.2 14.3-4.8 2.7-.2 5.8-.6 8.4.5 3.1 1.6 5.5 5 9.2 5.3 10.4.2 10-25.3 19.3-17.7 2.3 1.8 4.3 4.2 6.7 6 2 1.5 4.6 2.4 6.7 3.8 2.4 1.4 4.3 3.7 6.7 4.9 1 .4 2.3 0 3.4.3 5.6 1 10.1-4 16-1.7a27 27 0 0 1 6.6 3.7c3.1 2.4 5.9 6.3 10 6.5" class="b"/><path d="M11.7 174.8c6.6.5 12.8 3.2 19.3 3.8 3.6.4 7.3-.7 11-.5 5.2 1.4 5.8-.5 10-3 3-1.8 6.8-.9 10 0 7 1.7 13.7-2.4 20.2-4.4a18 18 0 0 1 10-.9c5.2.7 7.1 7.7 12.6 7.4 12-.3 10-27 19.3-18.9 2 1.8 3.8 4 5.9 5.7 2 1.6 4.6 2.5 6.7 4 2 1.3 3.7 3.1 5.8 4q1.3.3 2.6.3c7.2 1.9 10.4-7.2 17.6-2.9q2.1 1.5 4.2 3.1 2.3 1.5 4.2 3.5c2.5 2.3 5.5 6.5 9.2 6.7" class="b"/><path d="M11.7 172.8c6.2.8 12.2 3.4 18.5 3.4 4.8 0 9.5-2.8 14.2-1.1 2.8.3 5-1.8 7.6-2.4q3-.7 5.8-.1c2.2.4 4.5 1.3 6.8 1.2 3.1 0 6.2-1.4 9.2-2.4q5.3-2.1 10.9-3.6c3.5-1 7.2.3 10 2.4 2.8 2.5 5 6.7 9.3 6.5 2.8 0 5.7-1.2 7.5-3.4 2.4-3.4 3.6-7.8 5-11.7 1.2-2.9 2.9-8.1 6.7-4.9 2.1 1.8 3.8 4.2 6 6 1.7 1.3 4 2.2 5.8 3.5 2 1.2 3.7 3 5.9 3.8 2.4.3 5.1 1.2 7.5 0 3.8-2.1 6.7-7.2 11.7-4.5 2.2 1.2 4 3 6 4.6 1.2 1 2.9 2 4.1 3.2 3.1 2.7 6.2 6 10 7.7" class="b"/><path d="M11.7 170.7c6.9 1.5 13.9 4.7 21 2.6 3.3-.8 6.6-2.8 10-2.2q1.6.5 3.4.5c3-.6 6.1-1.4 9.2-1.2 2.3.2 4.5 1 6.7 1.2 4.1.5 8-1.4 11.8-2.9 3.8-1.4 7.7-3 11.7-3.5 3.7-.5 6.8 2.2 9.2 4.7 1.8 2 3.4 4.6 5.9 5.8 3 1.1 7.8-.3 10-2.4 2.7-3 3.8-7.3 5-10.9 1.1-2.3 2.4-8.9 6-7.5 2.3 1.3 3.9 3.8 5.8 5.7 1.4 1.4 3.4 2.2 5 3.2q2.3 1.3 4.2 2.8c1.2.9 2.7 1.8 4.2 1.8 1.4 0 2.9.6 4.2.6 4.4-.2 5.8-6.1 10-6.7 3.4-.2 5.8 2.6 8.5 4.1 1.8 1.2 4 1.8 5.8 2.8 3.8 2.4 7.2 5.5 11 8" class="b"/><path d="M11.7 168.5c7.2 2 12.5 4.7 20.2 2.2 3-.8 6-2.6 9.2-3q2.1.2 4.2.7 3.7.1 7.5.1c3.6 0 7.3 1 11 .7 6.6-.7 18-8.9 24.2-5.7 2 1 3.6 3.1 5 4.9 1.8 1.7 3.2 4 5 5.6 2.8 2 6.4.5 9.3-.4 7.1-2.6 6.8-16.4 11.8-20.2 2.7-.7 4.9 3.4 6.7 5 1.7 2.1 4.4 3 6.7 4.6q2.4 1.7 5 3.2c.7.3 1.8.3 2.5.4 2 .4 4 1.7 5.9.8 1.7-1 2.9-2.8 4.2-4.3 3-3.6 5.8-2 9.2 0q3.1 2 6.7 1.4c3.2-.2 6 1.7 8.4 3.5l5.9 4.2" class="b"/><path d="M11.7 166.2c8.6 2.2 11.9 4.3 21 1.3 3-.9 6-2.6 9.2-2.6q2.1.3 4.2 1 3.4.5 6.7.7c3.3.3 6.8.6 10 0 6.6-1 18.9-9.4 24.4-4.6 4 3.4 5.5 9.9 10.9 11.5 2.9.3 5.7-1.2 8.4-2 6.2-2.2 7-12.7 10-18 2.2-4 4.9-.6 6.7 1.7q1.6 2 3.4 3.4 2.1 1.4 4.2 2.6c1.6 1 3.2 2.3 5 3 .7.4 1.8.4 2.5.6 2.5.7 5.1 3.5 7.6 1.3 2.5-2 4.4-6.8 8.4-5.3 1.9.7 3.8 1.7 5.8 1.8 3.9 0 6-3.1 10.1-1.4 3.5 1.5 6.8 3.9 10 5.9" class="b"/><path d="M11.7 163.7q4.2 1 8.4 2c5.7 1 11.5-.2 16.8-2.3 3-1.1 5.3-1.2 8.4 0 11.3 3.4 17.2.9 27.6-3.1q4.6-1.6 9.3-1.5c2.6.3 4.5 2.5 5.8 4.6 3.5 5.8 5.8 11.2 13.5 7 2.1-1 4.7-1.4 6.7-2.8 4.7-4 5-14.5 9.2-18 2.5-.8 5 4.3 6.7 5.9q1.8 2 4.2 3.3c1.9 1.1 3.7 2.8 5.8 3.5 1 .4 2.4.4 3.4.9 2.2 1 4.1 3.8 6.7 2.9 3-1.5 4.5-6.1 8.4-5.5q2.5.6 5 .5c2.5-.3 4.6-2 6.7-3.2 3.3-2.2 7.1-.2 10.1 1.6l5.9 2.9" class="b"/><path d="M11.7 161.2c9.7 1.3 15.3 4 25.2 0q3.8-1.6 7.5-.2c11 4.5 16.5.4 26.9-2.7a20 20 0 0 1 10-.6c2.6.6 4.5 2.9 5.9 5.1 3.5 6 5.3 10.5 12.6 5.5 2.5-1.8 5.9-2.4 8.4-4.3 4.2-3.5 5.3-15.4 9.2-17.1 2.6.4 4.8 5.5 6.7 7.5 1.3 1.7 3.3 3 5 4.2a12 12 0 0 0 5.9 2.4c2.2.7 3.8 2.8 5.9 4 3.6 1.7 5.6-3.2 8.3-4.7 1.8-1 4-.3 6-.9 2.4-.6 4.6-2.2 6.6-3.6s4.3-2.8 6.7-2.2 4.6 1.8 6.8 2.8a30 30 0 0 0 5 1.8" class="b"/><path d="M11.7 158.7q4.7.3 9.2 1.3c2.5.5 5 1.2 7.6 1.3 3.2.1 6.3-1 9.2-2q3.4-1.2 6.7 0c2.7 1 5.5 2.2 8.4 1.9 5.8-.7 11.1-3.4 16.8-4.7 3.2-1 6.8-1.1 10-.2a10 10 0 0 1 6.8 5c1.7 2.4 2.9 6 5.8 7.3 3 .7 5.4-2 7.6-3.6q3-2.4 6.7-4c6.1-2.8 6.4-14.4 10.9-17 2.1.3 3 3 4.2 4.6q1.5 2.7 3.3 5.2c2 2.3 4.5 4.6 7.6 5.2 4.3.1 7.3 7.7 11.7 3.7 2.2-1.9 3.8-4.8 6.7-5.6q1.7-.3 3.4-1c3.5-1.4 6.5-4 10-5.3 3.2-1.2 6.4.6 9.3 1.8q3.1 1.5 6.7 2" class="b"/><path d="M11.7 156.3q4.7 0 9.2 1.2c4.7 1.7 7.6 2.7 12.6 1.3 2.2-.5 4.5-1.3 6.7-1.2 3.2-.2 6.2 1.4 9.3 1.8 2.9.4 5.7-1 8.3-1.8q5.4-1.8 11-3 2.8-1 5.8-.7 3.9.5 7.6 1.8c2.7 1.4 4.2 4.4 5.8 6.8 6.4 11.1 10.8-3.5 19.3-6.9 5.8-2.3 6.6-13 11-14 3.8.6 5.7 12.2 11.7 15 1.3.7 3 .7 4.2 1.5 3 1.7 5.7 5.7 9.2 2.5 2.7-2.3 4.2-6 7.5-7.7 4.8-1.7 9.1-5.1 14.3-5.5 2.7-.1 5.1 1.3 7.5 2.3q3.7 1.7 7.6 1.7" class="b"/><path d="M11.7 153.8q4.3.3 8.4 1.3c2.7.9 5.5 2 8.4 2.1 3.1.3 6.2-.8 9.2-.9l5.9.8q2.5.7 5 .8c4 0 7.2-2.7 11-3.4 3.5-1 7.2-1.4 10.8-2.2 2.8-.7 5.7 0 8.4.7 7.8 1 7.5 6.6 12.6 10.7 4 2 7.1-4.4 9.2-7q2-3.2 5-5.4 1.6-.8 3.4-1.4c3.8-1.4 5.2-5.6 7.5-8.5 5.9-7.5 8.4 9.9 13.5 12.7q1.1.6 2.5 1 2.2.9 4.2 2.2c7.5 4.6 9.7-7.7 15.9-9 4.1-1.4 8-4.2 12.6-3.9 2 .2 4 1.3 5.9 2.2 2.8 1.5 6 2.7 9.2 2.3" class="b"/><path d="M11.7 151.5q2.6.5 5 1.1 2.6.3 5 .7c3.1.6 6.2 1.6 9.3 1.6 2 0 4-.6 5.9-.5 1.4.1 2.8.9 4.2 1.2q2.4.6 5 .9c3.4.4 6.3-1.8 9.2-3 2.6-1.3 5.6-1.5 8.4-1.8l5-.8c1.6-.3 3.4-.8 5-.7q4.3.7 8.4 1.6c4.4 1 6 5.8 9.3 8.3 6.3 5 9.1-12.3 15.9-14.3 5.2-1 5.6-.8 9.2-5 2.6-3 5-4.3 7.6-.3 2.2 3.2 3.5 7.5 6.7 10q3.8 1.8 7.5 4c5.5 3.3 8.4-2.8 11.8-6 2.1-1.9 5.1-2.5 7.5-4 3-1.8 6.6-4 10-2.3 4 1.9 8 4.8 12.7 4" class="b"/><path d="M11.7 149.4q2.9 1.2 5.9 1.5 2-.2 4.2 0c2.8.1 5.6 1.3 8.4 1.6 2.5.4 5-1 7.5-.2l3.4 1.8q2.8 1 5.8.9c1.8-.2 3.5-1.2 5-2.1 4.6-3.1 8.4-2.4 13.5-3q3.4-.5 6.7-1.4a11 11 0 0 1 4.2.3l4.2.7q2.6.1 5 1c3.5 1.7 5.2 6.4 9.2 6.9 5.2-1.2 6.9-14.9 14.3-15.8 5.4-.2 5.8-.6 10-3.8 1.5-1.1 3.6-1.8 5-.4 2.5 2.2 3.9 5.5 6 8 1.5 1.8 4 2.8 5.8 4.4 1.9 1.6 3.6 3.7 5.9 4.6 5 1.5 7.2-5.7 10.9-7.9q3.4-1.8 6.7-3.9c2.7-2 5.7-4.8 9.2-3 3.8 1.7 7.5 4.4 11.8 3.7" class="b"/><path d="M11.7 147.7c5.6 2.5 6.6.4 11.8 1 2.8.4 5.5 1.8 8.4 1.5 1.6-.2 3.3-1 5-.7 1.2.2 2.4 1.2 3.3 2q3.1 2.2 6.7 1.6c1.9-.4 3.5-1.5 5-2.4 3.2-2 6.6-2 10.1-2q3.5 0 6.7-1 2.1-.8 4.2-1.1c3.4-.1 6.7 1.3 10 1 5.4-.6 7 2.5 11 5 2.2 1.3 3.9-.4 5-2.1 1.5-2.3 2.8-5 4.2-7.1 1.8-3 4.7-5.7 8.4-5.5 1.6 0 3.5.2 5-.4 2-.6 3.8-2 5.9-2.4 4.2-.5 6.4 6 9.2 8.3q2.9 2 5 4.7c2.2 2.3 4 6 7.6 6.3 3.8-.5 5.7-5.8 8.4-8.2 1.9-1.8 4.5-2.8 6.7-4.3s4.2-3.7 6.7-4.7c4.7-1.4 8.7 4 14.3 3.3" class="b"/><path d="M11.7 146.1c5.2 2.6 6.1.5 11 .6 3 .2 6 1.8 9.1 1.1 1.7-.3 3.4-1.3 5-1.3 3.6.8 4.6 5 9.3 4.6 2.1-.2 4-1.4 5.9-2.3 3-1.8 6.6-1.5 10-1.7q3 0 5.9-1c1.6-.4 3.3-1.2 5-1.3 2.3-.2 4.5.5 6.7.7q2.7.2 5-.3c3.9-1 6.3.3 9.3 2.5 6.2 4.7 8.1-8.3 14.2-11.6 2.6-1.5 5.6-1 8.4-1.1s5.5-2.4 8.4-1.6c2.7 1 4.1 4 5.9 6 1.3 1.9 3.6 3.2 5 5 2.8 3 4.9 9 9.2 9.8 4.4-.2 6.5-8.7 11-11.1 2.1-1.4 4.6-2.5 6.6-4 1.8-1.3 3.7-3 6-3.2 4 0 7.5 3.4 11.7 2.6" class="b"/><path d="M11.7 144.5c5 2.6 6.3.1 11 .3 5.1.6 7.4 2.5 12.5-.6q3-1.6 5 1.2c3.1 3.7 5.5 4.8 10 2.6 5.8-3 8.4-2.2 14.4-3 2.8-.3 5.5-1.6 8.3-2 2.8-.2 5.6.6 8.4.5 3.2 0 6.1-1.8 9.3-1.5 3 .2 5.3 3.6 8.3 2.4 3.9-2.3 5.5-7.1 9.3-9.6 2.6-2 6-1.5 9.2-2 2.5-.3 5-1.7 7.5-1.6 2.7.4 4.3 3 5.9 5q2.3 2.9 5 5.2c3.7 3.8 5.2 9.8 10 12.3 4.5 1.2 7-9.4 11.8-12.2 2.1-1.4 4.6-2.3 6.7-3.6 2.8-1.7 5.3-2 8.4-1.1 2.5.7 5.1 1.3 7.6.4" class="b"/><path d="M11.7 142.5c5 2.7 6.4-.2 11 .1 2.2.3 4.4 1.1 6.6 1.4 3.7.4 5.5-2 8.4-3.3 3.2-.6 4.8 6.6 9.2 6.8 2.7 0 5.1-1.7 7.6-2.5q4-1.4 8.4-1.5c3.1-.2 6.2-1.3 9.2-2q3-.6 5.9-.2 2.5 0 5-.2 3-.8 5.9-1.7 3-.7 5.8.6c5.8 3.3 7.9-1.3 11.8-4.6 3.2-3 6.7-3.4 10.9-4 2.5-.4 5-1.6 7.5-1.8 3.8.2 5.9 4 8.4 6.4 1.3 1.3 3 2.4 4.2 3.8 3 3.8 5 8.4 8.4 12 5.3 5.3 7.7-8 13.4-11.3a21 21 0 0 1 11.8-3c3 .3 6.4.4 9.2-1.1" class="b"/><path d="M11.7 140.2c5.3 2.6 7.3-1.2 12.6.3 3.7 1 7.6 2.8 10.9 0 1.3-1 2.5-2.7 4.2-2.7 1.5.5 2.5 2.3 3.3 3.5 2.5 3.6 4.7 6 9.3 3.9q3.6-1.7 7.5-2.6c3-.6 6.3-.6 9.2-1.7q3.3-1.3 6.7-1.7c2.5-.2 5.1-.1 7.6-.7 6.6-1.5 7.3-2.9 14.2-.6 5 1 8.4-4 12.6-5.7 2.4-1.2 5-1.6 7.6-2.2q3.3-1 6.7-1.7c3.9-.3 7 3.1 10 5.1q2.3 1.6 4.2 3.4c3.6 4 6 9.1 9.3 13.4 2.6 3.2 5 .5 6.7-2 1.2-2 2.6-4.3 4.2-6 1.8-2.3 4.6-3.7 7.5-4q2.5-.2 5 .1 5.1.3 9.3-2.6" class="b"/><path d="M11.7 137.6q3 1 5.9.4 2-.7 4.2-.6c4.4.3 9 4.5 13.4 1.8 1.8-1.1 3-3.4 5-3.9 3.8 1 5 9.3 10 9.4 2.8 0 5.2-1.6 7.6-2.4q3.7-1.2 7.6-1.8c3.7-.8 7-3 10.9-3.4L83 136c2.7-.6 5.6-1.3 8.4-1.3q2.5.2 5 .6c4.4.7 8.1-2 11.8-3.9q4.3-2.2 9.2-3 2.9-.9 5.8-1.3c2.4-.2 4.6 1 6.8 1.8q4.5 1.6 8.4 4.4c1.7 1 3 2.8 4.1 4.4 2.5 3.3 4.3 7.3 6.8 10.7 4 5 7.4-3 10-5.6 1.8-1.9 4-3.6 6.7-4 1.7-.1 3.4.2 5 0q5.3-.2 9.3-3.6" class="b"/><path d="M11.7 134.8q3.8.8 7.6-.4 2.5-.3 5 .7c4.5 1.6 9.4 5.7 13.4 1 1.2-1 2.4-3 4.2-3 5 3.3 5.3 13.3 13.4 9.8q3-1.3 5.9-2.3 3.4-1 6.7-2.2 5.5-3 11.7-4.1 4.6-.9 9.3-1.2c2.2 0 4.5.4 6.7.4q2.6 0 5-1c3.4-1.2 6.6-3.2 10-4.4a47 47 0 0 1 11.8-2.5c2.3 0 4.5 1.1 6.7 1.7q5.4.9 10 3.4c5.9 2.6 8 10.9 11.8 15.6 3.6 4.7 7.2-1.6 10-3.9a13 13 0 0 1 6-3 23 23 0 0 0 13.4-4.6" class="b"/><path d="M11.7 132c7.1.5 7.8-2.7 15.1 1.5 3.9 2.1 8 5.5 11.8 1.2 1.2-1.1 2.4-3 4.1-3.4 4 1.2 5 10.2 10.1 11.1 2.4.3 4.6-1 6.7-2l7.6-3a34 34 0 0 1 20-5.3c5.6.1 8.4 1 13.5-1.8q5-2.7 10-4.7c3.6-1 7.3-2 11-1.8 2.3.1 4.4 1.3 6.7 1.8 3.4.6 6.8 1.1 10 2.4 1.4.5 3 .7 4.2 1.5 4.7 3.7 6.3 10 10 14.5 4 4.2 8-2 11.8-3.3q3-1.2 5.9-1.8c3.5-1.2 7-2.4 10-4.5" class="b"/><path d="M11.7 129.4q3.7-.4 7.6-1.1c4.5-.3 8 3.3 11.7 5.4 3.8 2.5 6.1 2.4 9.2-1 1-1 2-2.5 3.4-3 2.2.2 3.1 3 4.2 4.7 2.2 4 4.7 8.5 10 5.9l9.3-4.4c4-2.5 8.4-4.9 13.4-4.8 3.9 0 7.8.7 11.7.4 4.8-.1 8.5-3.7 12.6-5.7a30 30 0 0 1 16.8-4c2 .3 3.9 1.3 5.8 2l5.9 1 6.7 1.8c1.4.3 3 .2 4.2 1.2 4 3.3 5.8 8.8 9.2 12.7 3.4 4 8 .2 11.8-1.1a88 88 0 0 0 15-5.7" class="b"/><path d="M11.7 127.3q4.2-1.2 8.4-1.7c4.8.1 8.6 5 12.6 7.3 3.3 2.3 5.9 1 8.4-1.7 1-1 2-2.4 3.3-2.8 2.5.4 3.7 4.2 5 6 5 8.7 9.2 3.8 16 .9 2-.9 4-2.3 5.9-3.4q3.1-1.6 6.7-1.8c2.8 0 5.6.7 8.4.8q3.3 0 6.7-.6 2.6-.9 5-2.5c6.7-4 14.4-9.8 22.6-8.5q3 1 6 2.3 2.8.9 5.8 1.5c2.8.6 5.5 1.6 8.4 2 1 .2 2.3 0 3.3.3 4.7 2.3 6.4 8 10 11.6 3.4 3.1 8 .7 11.8-.3q3-.8 5.9-1.4l8.4-2.8" class="b"/><path d="M11.7 126c13.1-6.1 12.8.2 22.7 6 5.5 2.5 7.5-5.2 10.9-5 2 1 3 3.4 4.2 5.1 3 4.8 5.4 6.6 10.8 4l6.8-3c1.9-1.1 3.7-2.6 5.8-3.3 3.5-1.3 7.3-.4 11 0q2.4.1 5-.4 1.6-.1 3.3-.6c7.5-2.8 13.4-8.8 21-11.5 5.4-2 8.7.2 13.4 2.6 1.8.8 4 1.1 5.9 1.7q3.7 1 7.5 2c.7.2 1.8.3 2.5.2a5 5 0 0 1 2.6 0c5 2 6.5 8.7 11.7 10.5 3.6.8 7.3-.6 10.9-1.2 1.9-.5 4-.5 5.9-.9q3.3-.6 6.7-1.6" class="b"/><path d="M11.7 126c4.8-3.1 10.2-5.7 15.1-1.5 2.4 2 4.8 4.2 7.6 5.6 2.4 1.3 5-.3 6.7-2 1-.8 2-2.1 3.3-2.5 2 .1 3.1 2.3 4.2 3.7 3 4.1 5.5 7 11 5 2.4-1 5-1.6 7.5-2.6 2.6-1.6 5.2-3.4 8.4-3.7 2.4-.3 5 .2 7.5.1 1.7 0 3.4-.5 5-.7q1.7 0 3.4-.4c2.7-.7 5.1-2.5 7.5-4q5.2-3 10-6.4c3.9-2.7 8.5-4 12.7-1.3 2.2 1.2 4.3 3 6.7 3.8 4 1 7.8 2.4 11.7 3.3 3.2.6 4.4-1.5 7.6.8 3.3 2.3 5.6 6.8 10 7.3 4.2.1 8.5-.7 12.6-1.2q5.2-.1 10-1.3" class="b"/><path d="M11.7 126c4.6-2.7 9.9-6.3 15.1-3 2.3 1.4 4.3 3.5 6.7 4.8 2.7 1.7 5.5.4 7.6-1.5 1-.7 2-1.9 3.3-2 1.8.3 3 2 4.2 3.2 3.2 3.7 6 5.5 11 4.3q3.3-.6 6.6-1.5c1.7-.7 3.4-1.8 5-2.5q3-1.3 6-1.6 2.4-.2 5-.3c1.6-.2 3.3-.8 5-1 1.6-.3 3.4.1 5-.5 2-1 4-2.5 5.9-3.6q4.3-2.3 8.4-5.2c5.6-4.6 9.5-7.4 15.9-1.8 1.8 1.5 3.7 3.1 5.9 4q2.9 1 5.8 1.7c2.2.7 4.5 1.7 6.8 1.7 1 0 2.2-.5 3.3-.5 4 .1 6.7 3.5 10 5.2a11 11 0 0 0 6.8.8l5-.3 6.7-.7q3.8-.2 7.6-.8" class="b"/><path d="M11.7 125.2c5-1.3 9.9-4.9 15.1-3.1 2.7.9 5 3 7.6 4.1 2.3 1 4.8-.2 6.7-1.5q1.5-1.2 3.3-1.4c2 .2 3.5 1.8 5 3 4.5 3.7 9 3 14.3 2.2 3-.5 5.6-2.1 8.4-3.2q3.7-1.4 7.6-1.8c2.5-.2 5-1.2 7.5-1.7q1.6 0 3.3.3c3-.3 5.1-2.7 7.6-4 3.8-2.1 7.7-4.3 10.9-7.3 5.1-4.8 9-3.7 13.4 1.1 2 2 4 4.3 6.7 5.3l8.4 2c1.6.5 3.4.3 5 .2q2.3 0 4.2.6c3.2.9 6 2.6 9.3 3.2 2.4.6 5 .2 7.5.2 5.6-.1 11.2-1.3 16.8-1.1" class="b"/><path d="M11.7 122.5c5 1.5 10-1.2 15.1-1.2 3.6 0 6.5 3 10 3 4.7-.3 6-3.5 11-.9q5 2.7 10.9 2.5c2.5 0 5.1 0 7.5-.9 2.8-.9 5.6-2.3 8.4-3.2q3.3-1 6.7-1.6c2.2-.5 4.4-1.7 6.7-1.6q1.3.2 2.5.5c2.6 0 4.7-2 6.8-3.2 2-1.4 4.5-2.5 6.7-3.8 6.2-3.7 9.4-11.6 16.7-4 2.5 2.6 4.5 5.8 7.6 7.6 1.7 1 4 1.1 5.9 1.4q4.6.4 9.2 1.2 6.2 1.2 12.6 2 3.7.3 7.5.3c5.6.4 11.2-1.1 16.8-.2" class="b"/><path d="M11.7 118.5c7 4.3 9.8 1.6 16.8 1.4 2.9 0 5.5 1.6 8.4 1.8 2.5.4 5-.4 7.5-.2q5.9 1.2 11.8 1.4c2.5 0 5 .3 7.5-.1 4.7-.9 9-3.3 13.4-4.7l6-1.7c1.5-.6 3.2-1.3 5-1.1 1.3.2 2.7 1 4.1.6 2.5-.7 4.6-2.4 6.7-3.6 2.5-1.5 5.2-2.6 7.6-4.3 2.3-1.5 4.2-3.8 6.7-5 3.8-1.5 7 2.2 9.2 4.8 7.4 10 10.2 7.1 21 9.6 3 .6 6.1.2 9.2.3l13.4.7c4.8.2 9.7-.6 14.3.9" class="b"/><path d="M11.7 114.7q3 1.6 5.9 2.8c2.7.7 5.6 0 8.4-.3q3-.1 5.9.4c5 .8 9.9 3.2 15 3.5q3.4-.1 6.7-.5 3-.3 6-.1c5 .3 9.7-2 14.2-4.2q6-2.7 12.6-4.3c1.3-.2 2.8.3 4.1.7 3.1.9 5.9-1.5 8.4-2.9 2.7-1.6 5.7-2.7 8.4-4.3 2.3-1.3 4.2-3.6 6.7-4.5 3.9-.9 6.8 3 9.3 5.4s4.6 5.5 7.5 7.6a14 14 0 0 0 5.9 1.7q4.2.6 8.4.9c3.3-.2 6.7-1 10-.8l12.6.8c4.2 0 8.6 0 12.6 1.5" class="b"/><path d="M11.7 112.2c2 .4 4 1.3 5.9 1.8 2.5.5 5 0 7.5-.3a21 21 0 0 1 6.7.6c1.4.3 3 .3 4.2.8 3.2 1.4 5.7 4.3 9.3 5 2.8.5 5.6-.9 8.4-1.4 2.7-.6 5.6-.2 8.3-.6 6-.8 10.6-4.8 16-7l5-1.8c1.6-.5 3.4-1 5-.6 2 .4 4 1.3 5.9 1 3-.8 5.6-3 8.4-4.1 1.9-.9 4-1.4 5.9-2.3q2.2-1 4.2-2.6c3-2.5 5.6-1 8.3 1.1 1.6 1.4 3.6 2.6 5 4.1 3 2.8 5 7.3 9.3 8 3.2.6 6.8 1.2 10 1 2.6-.3 5-1.1 7.6-1.2l5 .3 7.6.4c5 0 10.3.2 15 2.1" class="b"/><path d="M11.7 110.6c2.3.1 4.5.8 6.7.8s4.5-.5 6.7-.6c3.7-.3 7.3.8 11 1.3 3.5 1.5 5.3 6 9.2 7 3 .7 5.6-1.4 8.4-2 3-1 6.2-.5 9.2-1.4 6.4-1.8 11.2-7.2 17.6-9 5.8-2 6.2-1 11.7.1 3.8.7 6.8-2.2 10-3.6 1.9-.8 4-1 6-1.4q2.2-.5 4.1-1.9c1.5-1 3.3-2 5-1.4 1.9.5 3.5 1.8 5.1 2.8 1.1.6 2.5 1.2 3.3 2.1 2.3 2.3 4 5.3 6.8 7.2 2.2 1.3 5 1 7.5 1 1.6 0 3.4.5 5 .4 2.2-.1 4.5-.5 6.7-.4 2 0 4 .5 6 .6h9.1q6.9-.2 13.5 2" class="b"/><path d="M11.7 109.4h5.9c2.2 0 4.5-.5 6.7-.5 2.5-.2 5 .3 7.6.5 1.6.3 3.4.2 5 .8 3 1.7 4.4 5.6 7.5 7.3 3 1.6 5.8-.8 8.4-2q2.9-1 5.9-1.2c7-.1 11.7-6 17.6-9 3-1.6 6.6-3 10-2.4 9.1 2.6 8 2.1 16-2 5.5-2 6.3 1 12.6-3 2.6-1.2 5.2.8 7.5 1.9.8.3 1.9.5 2.5 1q2 1.5 3.4 3.5c3.4 4.5 6 5.8 11.7 4.7q3.3-.4 6.7-.4c4-.2 7.8 1.9 11.8 1.6 3.6 0 7.3-.8 10.9-.7q5.5.2 10.9 1.4" class="b"/><path d="M11.7 108.4q7.5-.8 15.1-.7c3.3 0 6.8-.2 10 .6 4 2 5.6 9.3 11 8 3-1.1 5.8-3.5 9.2-3.8q3-.1 5.9-1.1c4.6-2.1 8-6.2 12.5-8.5 2.8-1.5 6-2.8 9.3-2.3 2.2.4 4.4 1.4 6.7 1.7 2.6.6 5.3-.5 7.5-1.9s4.9-2.5 7.6-2q2 .5 4.2.5c2.3 0 4.3-2 6.7-2 1.7.2 3.4 1.2 5 1.7q2.4.3 4.2 2.1c1.9 1.9 3.5 4.3 5.9 5.7 3.4 1.5 7.3.1 10.9-.5q3.9-.8 7.5 1c5.4 2.6 10.4 1 16-.1 4.4-.6 9-.2 13.4.2" class="b"/><path d="M11.7 107.8c3.3-1 6.7-.7 10-1 4.2-.3 8.5-1.1 12.7-.7 5.3 0 6.4 6.9 10.9 8.5 2 .7 4.1-.7 5.8-1.7q2.4-1.5 5-2.2c2.6-.6 5.3-.7 7.6-2 3.3-1.9 6-4.8 9.2-6.8 3-1.9 6.5-3.6 10-3 4.9.7 8.7 3.3 13.5.6 3-1.7 6.5-3.7 10-2.5q2.2.8 4.3 1.2c2 .1 3.8-1.4 5.8-1.6 1.7-.1 3.5.6 5 1 1.1.3 2.4.1 3.4.7 1.9 1.1 3.4 3 5 4.4 2.2 2 4.8 2.2 7.6 1.8l5.9-.7c4.4-1.2 7.5 2 11.7 2.5 4 .6 8-1.3 11.7-2.4q6.7-1.1 13.5-1" class="b"/><path d="M11.7 107.1q4.1-1 8.4-1.4 5.9-1.4 11.7-1.7c1.7.1 3.6.1 5 1 3.5 2 5 7 9.3 7.7 3.1.3 5.6-2.3 8.4-3.4 2.7-1.2 5.7-1.4 8.4-2.6 5.8-3.2 10.4-9.6 17.6-9.3 4 .1 7.8 2.3 11.7 1.5 4.2-1 8-4.5 12.6-3.4 1.7.4 3.4 1.4 5 1.9 2.3.7 4.5-1 6.8-1s4.4 1.2 6.7.9c2.2 0 4 1.8 5.8 3 3 2.5 5.6 2.1 9.3 1.7 2.4-.2 5 .3 7.5.3 2 0 4 1 5.9 1.5q3.8 1.2 7.5 0c2.7-.8 5-2.4 7.6-3.4q6.6-1.8 13.4-2" class="b"/><path d="M11.7 105.6c7-1.5 13.8-4 21-3.6 4.8-.1 6.8 4 10 6.7 4 3 7.1 1.2 11-.8 3.1-1.7 6.9-2.4 10-4.3 4.3-2.7 8.1-6.7 13.4-7.3 4.2-.5 8.4 1.4 12.6 1 5.8-.8 10.8-5 16.8-1.8 7.1 3.6 6-.8 14.2 1.6 1 .3 2.3 0 3.4-.1 3 .2 5.4 2.5 8.4 3 2.4.5 5-.1 7.5.3q2.6.4 5 1 3.5.1 6.8 1c5.5 1 9.2-1.8 13.4-4.9q2.3-1.4 5-2 5-1 10-1.3" class="b"/><path d="M11.7 103q4.7-1 9.2-2.3 3.7-.7 7.6-.9c3.9-.1 7 0 10 2.7 4.3 4 8.5 6.6 14.3 3.7q4.7-2 9.2-4.2c7.8-4.5 10.3-8.2 20.2-6.6q3.7.5 7.5-.1c5.2-1.2 10.8-3 16-.6 1.5.7 3.2 1.5 5 1.6 1.6 0 3.4-.4 5-.3 2 0 4 .8 5.9 1 1 0 2.3-.4 3.3-.4 2 0 4 .8 5.9 1.2q3 .7 5.9.6c3.7.2 7.1 2 10.9 1.8 6 .7 9.5.7 14.2-3.6 1.6-1.4 3.2-3 5-4 4.3-1.7 9-1.8 13.5-2.2" class="b"/><path d="M11.7 99.8c4.2-.7 8.3-2.3 12.6-2.3h5.9q2.6 0 5 .8c2.4 1 4.4 2.8 6.7 4q2 .8 4.2 1.4c3.4 1 7 .1 10-1.2 4.6-1.7 8.5-4.6 12.6-6.9 5-2.9 9.8-1.5 15.1-1.8 8.1-1.1 13.7-2.6 21.8.5 4.3 1.6 9 .7 13.5 1.8 1.3.2 2.8.6 4.1.3q3-.7 6-.3 4.5.5 9.1 1.1 2.6.6 5 1.2 2.6.3 5 .4c7.4.6 10.3-1.9 15.2-6.8a12 12 0 0 1 5-3.2c3.8-1 7.8-1 11.8-1.4" class="b"/><path d="M11.7 96.2c3.3-.6 6.7-1.4 10-1.5q3.5.1 6.8.5 2.5-.1 5 .5c2.3.6 4.5 1.7 6.7 2.5q2.5.9 5 1.2c4.3 1.2 8.5 1.7 12.6 0 5.5-2.1 10-6.7 16-7 2.5-.3 5-.1 7.5-.4q3.4-.4 6.7-1.2c6.9-1.2 13.6 1.3 20.2 2.9q6.7 1 13.4 2 1.7-.1 3.3-.4 2.5-.5 5-.3 4.3.1 8.4.8 4.6 1 9.3 1.4c4.2.3 8.6-.7 11.7-3.6 2.5-2.2 4.6-5 7.6-6.7 4.1-1.7 9-1.4 13.4-1.6" class="b"/><path d="M11.7 92.3q4.6-.6 9.2-.5 3 .3 6 .8 2.4.3 5 .7c4 1 8.2 2 12.5 2 4.5.3 9 2.2 13.4 1 4-.8 7.2-3.4 11-4.7 3.4-1.1 7.2-1 10.8-1.6 3-.5 6.2-1.5 9.3-1.6q5.4.2 10.9 1.4c3.6.8 7.2 2.3 10.9 3.2q5.8 1.4 11.7 1.5 3.3-.7 6.7-.9 5.2-.1 10 .7c7.4 1.3 14 2.7 20.2-2.6 2.5-2.1 4.7-4.9 7.6-6.5 4.1-1.8 9-1.2 13.4-1.1" class="b"/><path d="M11.7 88.7q6.9-.7 13.4 1.3l10.1 1.9c3.6.6 7.3-.3 10.9-.4 3 0 6.2.7 9.2 1.2 4.5.8 8.5-1.5 12.6-2.9 2.4-.8 5-1 7.6-1.5l6.7-1.4c3.8-.9 7.8-.4 11.7 0q3.4.1 6.7 1 3.8 1.3 7.6 3c3.9 1.9 8.3 2 12.5 2 2.2 0 4.5-.4 6.7-.3 5.3.2 10.7.2 16 .9 5.9 1.2 12 0 16.7-3.9 2.5-1.8 4.7-4.3 7.6-5.5 4-1.5 8.4-.6 12.6-.3" class="b"/><path d="M11.7 85.7q4.7-.4 9.2.7c5.7 1.6 11.6 3.8 17.7 3.2 4.1-.6 8.3-1.6 12.5-1.7 3.4 0 6.7 1.2 10 1 2.6-.2 5.2-1.1 7.6-1.7 4.5-1 9-2.3 13.5-2.8 2.4-.3 5 .1 7.5.3q3.4.1 6.7.1c3.7.4 6.9 2.7 10 4.4a17 17 0 0 0 10.1 2q4.6 0 9.3.6 4.1.7 8.3.6c3.4-.1 6.8-.5 10.1 0 5.2.6 10.5-1 15.1-3.3 2.9-1.4 5.5-3.5 8.4-4.8 4-1.6 8.4-.6 12.6-.3" class="b"/><path d="M11.7 83.6q4.3-.2 8.4.4c4.2 1 8.3 2.8 12.6 3.5 3 .4 6.2-.2 9.2-.8q4.7-.8 9.2-2c4.2-1.3 8.4.6 12.6.3 5.4-.3 10.6-2.4 16-2.8 3-.4 6.1.5 9.2.7 3 0 6.3-.7 9.2.6 4.7 2 8.8 6.2 14.2 6.2q3.4-.2 6.7.3c3.2.3 6.2 1.3 9.3 1.9 3 .5 6.2.1 9.2-.3q4.1-.6 8.4-.4a23 23 0 0 0 6.7-1.3l10-3.3c2.3-.8 4.5-1.9 6.8-2.4 3.5-.8 7.3-.5 10.9-.2" class="b"/><path d="M11.7 82.9c3.6-.2 7.4-.6 11 .2 3.6.7 7.1 2.2 10.8 2.5 2.8.2 5.7-.4 8.4-1q4.4-.4 8.4-2.1c5.7-2.8 7.5-2 13.4-1.3 3.4.4 6.8-.5 10-1q3.8-.6 7.6-.2c2 .2 4 .9 5.9 1.2 3 .4 6.3-.6 9.2.7 4.3 1.7 8 4.8 12.6 5.7 3 .5 6.2.4 9.2 1.2 4.5.7 8.8 3 13.4 2.8 3.1 0 6.2-.9 9.3-1.2 2.8-.3 5.7-.3 8.3-1.4 2.8-1 5.5-2.5 8.4-3.3q3.7-.9 7.6-1.2c5-.7 10-2 15-1.6" class="b"/><path d="M11.7 83q3-.1 5.9-.4 3.7-.1 7.5.1c3.7.3 7.3 1.4 11 1 1.9 0 3.9-.5 5.8-.7 2.3-.3 4.7-.5 6.7-1.5 2.6-1.2 5-3 7.6-4 2.7-1 5.6-.4 8.4 0q3.4.5 6.7 0 5-.7 10 .5c2 .5 4 1.4 5.9 1.8 1.6.3 3.4.1 5 .2 3.7.4 6.8 2.7 10 4 3.5 1.7 7.3 1.9 11 2.5q6.3 1.4 12.6 3.3a30 30 0 0 0 14.2-.3c7-.8 8.6-2.5 14.3-6q3.9-2.2 8.4-2c2.5.2 5 .8 7.5.5 3.4-.3 6.7-1.3 10-1" class="b"/><path d="M11.7 82.6c5.3.3 10.7-.5 16-.3q3.2.3 6.7.3 3.4-.2 6.7-.9c2.8-.4 5.8-.4 8.4-1.8 4.1-2.6 8-7.3 13.4-6.2l5 .8q3 0 5.9.2 5.2.4 10 2.6 2 .9 4.2 1.3 2.2.2 4.2.5 3 .6 5.9 2.3 3.1 1.7 6.7 2.3c3.6.5 7.4.8 10.9 2l8.4 2.2a26 26 0 0 0 12.6 1 32 32 0 0 0 8.4-2.3c6-3.3 9.7-10.2 17.6-9.2 2.5.3 5 1.5 7.5 1.6 3.4.2 6.7-1 10-.7" class="b"/><path d="M11.7 81.4c5.9.8 11.8.4 17.6-.2q3.3.1 6.7-.4 3.7-.7 7.6-1.3c3.4-.4 6.6-.9 9.2-3.2 3.4-2.9 6.8-6.7 11.7-5.5 4.8 1.1 9.7 1.4 14.3 3 2.6.7 5 2.1 7.6 3.1q2.9 1 5.8 1.3c2.7.6 5 2.2 7.6 3.2 2.6 1.2 5.6 1.2 8.4 1.5 3 .2 6.2 1 9.2 1.6q3.4.6 6.7 1.4c4.7 1.4 9.4 2.5 14.3 1.2 9.7-2 10.8-9.6 18.4-12.5q4.1-1.2 8.4-.4 2.6.7 5 1.3c3.4.6 6.8-.3 10 0" class="b"/><path d="M11.7 79.3q6.7 1.1 13.4 1 3-.3 6-1 3.7-.3 7.5-1.3 3.2-.8 6.7-1.1 3-.1 5.8-1.3c5-2.1 8.3-8.6 14.3-7.3a93 93 0 0 1 15 4.5q3.5 1.6 6.8 3.3c2.1.9 4.5 1.2 6.7 1.8 2.9 1 5.5 2.8 8.4 3.5q3 .4 5.9.4 4.5.2 9.2.8 3.8.1 7.5 1c5 1.3 9 3.5 14.3 1.4q3.8-1.5 6.7-4.4c2-2 3.7-4.4 5.9-6.2q2.6-1.8 5.8-2.4 5.5-1.5 11-.1c3.8 1 7.8.5 11.7.7" class="b"/><path d="M11.7 76.5q4.2.7 8.4 1c3 .4 6.2.7 9.2 0l12.6-3c3-.4 6.3-.4 9.2-1.3 5.4-1.6 9-8.2 15.1-7q4.3.9 8.4 2.7 3.4 1.3 6.7 2.8c3 1.5 6 3.7 9.2 4.7q3 .6 6 1.6c2.9 1.2 5.8 2.9 9.1 2.9l11-.6c2.7-.1 5.6-.5 8.3 0 4.8.9 8.2 4.9 13.4 2.8 2.6-1 4.8-2.9 6.7-4.8 1.7-1.7 3.2-3.8 5-5.3q2.4-1.5 5.1-2.2c3.2-1 6.7-2 10-1.9 2.6 0 5.1.7 7.6.8s5 0 7.6.3" class="b"/><path d="m11.7 73.3 8.4 1q4.6.8 9.2.4c5-1 10-3.1 15.1-3.5 3.5.1 7 1 10-1 4-2.5 7.3-7.4 12.7-5.9 2.6.5 5 1.8 7.5 2.9l5 2.1c3.6 1.6 6.6 4.3 10.1 5.8q2.9 1 5.9 1.6 3.4.9 6.7 2.2c3.5 1.5 7.3.4 10.9-.5l7.5-1.7a12 12 0 0 1 6.7.3c3.4 1.2 6.2 5 10.1 3.7 4.5-1.5 7.3-5.7 10.9-8.6 1.7-1.4 4-1.8 5.9-2.6a50 50 0 0 1 10-2.5q3.8-.3 7.6.2 4.1.1 8.4.4" class="b"/><path d="M11.7 70q5.4.7 11 1 4.1.5 8.3-.1 3-.7 5.9-1.5c2.4-1 5-1.9 7.5-.9q2.6 1 5 1.7c2.9.6 5.6-.8 7.6-2.7 2.3-2 4.3-5.2 7.6-5.7 2.9 0 5.8 1.1 8.4 2.5 3 1.7 6.3 2.8 9.2 4.7 3.2 2 6.2 4.8 10 6q3.3.8 6.7 1.2c2.3.4 4.5 1.2 6.7 1.6 3.2.5 6.3-1.1 9.3-2 2.4-.8 5-1 7.5-1.9 4-1.4 6.9-2 10 1.5 2.7 2.9 5.4 2.7 8.5.4 2.5-1.7 4.8-4 7.5-5.4q1.6-.7 3.4-1.2 3.3-1.3 6.7-2.4c3-.8 6-1.9 9.2-1.9q6.3.2 12.6.6" class="b"/><path d="M11.7 66.7q5 .8 10 1.2c4.6 0 9.2-.2 13.5-1.6 7.4-3 7.1-1.7 13.4 2 2.4 1.4 5.4 1.5 7.6-.4 5.5-4.5 6.4-11.7 15-7.2 3.7 2 7.6 3.6 11 6 4 3 8.1 6.8 13.4 7.7q3.3.4 6.7.4c2 .2 4 .9 5.9 1 2.5-.2 5-1.2 7.5-1.7s5.2-.7 7.6-1.7l4.2-1.8c1.5-.8 3.4-1.5 5-.6 1.2.7 2.2 2 3.3 2.8 1.9 1.2 4.2.2 5.9-.8q2.5-1.3 5-2.3c1.6-.6 3.5-.8 5-1.5 4.7-1.7 9.4-3.8 14.3-4.9q7.1-.5 14.3.3" class="b"/><path d="m11.7 63.9 5.9.7q2 .5 4.2.6A47 47 0 0 0 32.7 64c2.8-.6 5.3-3 8.4-3 2 .3 3.5 1.8 5 3 2.3 2 5 4.7 8.4 4.2 6.7-1.6 7.7-14.4 16-11.4 2 .8 3.9 2.3 5.8 3.3q4.6 2.2 8.4 5.6a37 37 0 0 0 6.7 5c1.8 1 3.8 2.1 5.9 2.3 2.5.3 5-.5 7.5-.4 2.2.2 4.5 1.2 6.7.8q2.6-.3 5-.8 3-.3 6-.8 3-.7 5.8-2.6c1.6-1 3.1-2.7 5-3.2 1.9-.1 3.3 1.7 5 2.2 2.2.7 4.6.3 6.8 0 1.6-.4 3.4-.3 5-.7 3.1-.8 6.2-2.2 9.2-3.3q3.3-1.6 6.7-2.4c4.7-.7 9.6-.4 14.3 0" class="b"/><path d="m11.7 61.1 5 .7q2.6.6 5 .9 5.3.2 10.1-1.3 2.7-1.2 5-2.8c3.3-2.3 6-.6 8.5 1.9 5 5 9.8 10.2 15 2.2 2-2.7 3.5-6 6-8.1 3.5-3.1 6.8-1 10 1.3 2.2 1.5 4.7 2.8 6.7 4.5 2.7 2.4 5.4 5 8.4 7 1.5 1.2 3.2 2.6 5 3.2 2.8 1 5.6 0 8.4-.4 1.7-.3 3.5.5 5 1 2.2.6 4.6.2 6.7-.1 5.5-.7 10.4.2 14.3-4.6 1.6-1.5 2.9-3.9 5-4.6 2.2-.2 4 1.5 5.9 2.1q2.1.5 4.2.9 3 .9 5.9.3c4.4-.7 8.4-2.8 12.5-4.3a41 41 0 0 1 16-.7" class="b"/><path d="M11.7 58.2q2.7 0 5 .5l3.4 1.2c6 1.4 11.2-.4 16-4.2 3-2.5 5.8-.7 8.3 1.6 4.6 4.4 10.2 12.3 16 4.6 2.3-3 4-6.8 6.7-9.6s5.7-3.7 9.2-1.3c2.9 1.8 6 3.6 8.4 6q4 4.4 8.4 8.2c3.4 3.4 6.3 4.4 10.9 2.7 5.8-1.4 4.5 3 14.2 1.3 2.8-.4 5.7-.2 8.4-.7 4.6-1 6.3-6 9.2-9.1 1.8-2 3.8-1.2 5.9-.3q3.5.9 6.7 2.2 5.4 1.5 11-.2c2.7-.9 5.4-2.2 8.3-2.7q6.2-.7 12.6 0" class="b"/><path d="M11.7 54.6q3-.4 5.9.7 1.6.9 3.3 1.6c5.5 2 10.7-1.2 15.1-4.1 3.6-1.8 6.8 1.8 9.3 3.9 3.5 3.1 8.4 9.3 13.4 5.3 4.4-3.6 6.3-9.5 10.9-13 1.6-1.4 3.6-3 5.8-2.8 4.4.6 8.2 3.8 11 7.1q2.7 3.4 5.8 6.7c2.5 2.6 5.2 6.4 9.2 6.4 1.7-.1 3.4-1 5-1.1 1.6 0 3 1 4.3 1.6 2.9 1.3 6.1.5 9.2.1 2.2-.3 4.5-.1 6.7-.2 5.2 0 7-5.8 10-9 .9-1 2.1-2 3.4-2.1q2.5-.1 5 .2c4.5.8 8.8 3 13.4 2.5 3.4-.4 6.7-1.6 10.1-2q6-.3 11.7.4" class="b"/><path d="M11.7 50.6c4.5-.5 5.6.6 9.2 2.7 4 2 8 .5 11.8-1 1.3-.6 2.7-1.5 4.2-1.6 4.5.4 10 7 14.2 9.3 6 4 11-3.4 14.3-7.5 2.1-2.6 5-4.8 7.5-7 6.7-5.5 11.1-1 15.1 4.7l5.9 6.6c2.4 2.5 4.8 6.3 8.4 7.1 2 .2 3.9-1.2 5.9-.6 6.2 3.4 6.7 2.2 13.4 1.5 3-.4 6.4.7 9.2-.8 3.1-2 4.8-5.6 7.6-8 3.3-2.8 8.3-3.6 12.5-2.8 2.3.4 4.5 1.2 6.7 1.5 2.8.4 5.7 0 8.4 0q7.2-.4 14.3.5" class="b"/><path d="M11.7 47c7-1 8 3.8 14.3 4q3.3 0 6.7-.8c2-.5 4-.9 5.9.2q3.8 2 7.5 4.6c2.5 1.6 5.2 4.2 8.4 3.7 4.4-1.2 7.6-4.7 10.9-7.7q2.4-2 5-3.6l5-4.1c8.7-6.7 10.2 1.4 16 6.2q3.7 3.1 6.7 7c1.7 1.9 3.2 4.6 5.9 5.2 1 .2 2.3-.2 3.3-.4q1.9 0 3.4 1 1.6.9 3.3 1.3c3.4.4 6.7-.8 10-.8 2.3 0 4.7.3 6.8-.4 2-.8 3.5-2.4 5-3.8q2.4-2.3 5-4.3c3.2-2.3 6.9-4.7 11-4.5 3 .2 6 1.4 9.2 1.8 6.3 1.1 12.8 1.5 19.3 2.2" class="b"/><path d="M11.7 44.2c6.3-.7 7.4 2.2 12.6 3.8 2.7.8 5.6.6 8.4.8q2.1-.1 4.2.4 4.2 1.9 8.4 4.1c2 1.1 4.2 2.6 6.7 2.9 4.3-.2 8.8-4.5 12.6-6.5 2-1.4 4.6-1.7 6.7-2.8 2.4-1.3 4.5-3.3 6.7-4.9 5.8-4.2 7.5-1.2 11.7 2.9q2 1.5 4.2 2.7c3 1.7 5 4.8 6.7 7.6 1.4 2 3 5.2 5.9 4.8 1-.2 2.3-.5 3.3 0 2.1.9 4.4 1.8 6.7 1.7 3.7-.2 7.3-.9 11-.8 2.7.1 5.2-1 7.5-2.4q2.6-1.5 5-3.2c3.3-2.6 6.2-6 10-7.8 5.1-2 10.4.8 15.2 2.3 4.8 1.7 10 2 15 2.6" class="b"/><path d="M11.7 42c6-.2 8.3 2.5 13.4 4.2 3.6 1 7.4 1.4 11 2.3q5.7 2.3 11.7 4.5a8 8 0 0 0 4.2.4c3-1 5.6-3 8.4-4.3q3.1-1.6 6.7-1.7 2.6.2 5-.7c3-1.4 5.5-3.8 8.4-5.5 6-3.6 7.4 1.4 12.6 3 7.5 1.5 7.5 10.2 12.5 14 1.4.7 2.9-.1 4.2 0 2 .2 4 1 6 1.1q3.7 0 7.5-.5c2.4-.2 5 0 7.5-.4q2.1-.6 4.2-1.3 2.3-.5 4.2-1.4c2.3-1.2 4.1-3.4 5.9-5.3 3-3.2 6.9-6.8 11.7-6.3 4.6.5 8.4 3.4 12.6 5 3.5 1.3 7.2 1.5 10.9 2" class="b"/><path d="M11.7 40.5c4.5.2 8.5 2.3 12.6 4 3.3 1.1 6.8 1.8 10 3q2.3.6 4.3 1.4 3.2 1 6.7 1.7c6.2 1.6 9.5-3.2 15-4.6 3.1-.7 6.3.2 9.3.7 2.8.3 5.4-1.2 7.5-2.8q2.7-2 5.9-3.5c4.3-1.7 5.3-.4 9.2 1 3.5.6 5.6 1 7.6 4.3 1.2 2 2.3 4.5 3.3 6.6s2.3 5.5 5 4.8c2.4-1 5-1 7.6-1q3.3-.5 6.7-.6c2.5 0 5 .5 7.5.5 1.7 0 3.4-.5 5-.6 4.6 0 6.4-.8 9.3-4.4 3.9-4.3 8.5-10.5 15-9.3 3.2.7 5.9 2.8 8.5 4.6 3.6 2.7 8.3 3 12.6 3.6" class="b"/><path d="M11.7 39.5c4 .7 7.9 2.5 11.8 3.8 3 1 6.2 1.5 9.2 2.4q3.4 1 6.7 2.2 3.7 1 7.5.4c5-1 9-5.6 14.3-5 3.1.3 6.1 1.7 9.2 2s6-1.2 8.4-3q2.8-1.6 5.9-2.7c4-1.5 5.2-1.2 9.2-.3a8 8 0 0 1 5.9 3.5c1.7 2.6 2.9 5.8 4.2 8.6 1 1.8 2.3 5.5 5 4.2 4-2.5 8.4-5.4 13.4-5 2.3.2 4.5 1.3 6.7 2q2.5.7 5 .8l4.2.6c4 .2 6-4 8.4-6.4 3.9-4 9-10 15.1-7.7 2.6 1 4.7 3.1 6.7 4.9 3.2 3 7.7 3.2 11.8 4" class="b"/><path d="M11.7 39c3.2.7 6.1 2.3 9.2 3 3.6 1.1 7.3 1.4 11 1.8 4 .2 7.6 2.8 11.7 2.1 5.8-.8 10.6-6.3 16.8-5 9.3 1.7 10.8 5.1 20-.5q2.5-1.1 5.1-1.8 2.5-.9 5-1.6 3-.2 6 1c2.3 1 3.8 3.3 5 5.5 1.6 2.5 3.7 10.5 6.7 10.8.9 0 1.8-1 2.5-1.6q2-2.4 4.2-4.5c2.2-2 5.3-3.5 8.3-2.8 2.2.5 4.1 2 6 3.2a29 29 0 0 0 5.8 3c1.8.7 4 1.6 5.9.9 2.4-1.2 4-3.8 5.8-5.7 2.8-2.9 5.8-5.9 9.3-8 7.7-4.6 10.3 3.3 15.9 6.4 2.6 1.3 5.6 1.5 8.4 2.3" class="b"/><path d="M11.7 38.9q3.4.8 6.7 2 2.5.6 5 .8c3.7.2 7.4-.1 11-.1 2 0 3.9.7 5.8 1 2.6.6 5.3-.2 7.6-1.4 8.5-4.7 11.3-3.4 20.1-.6 6 2 8.9-.1 14.3-2.2l4.2-1q2.4-.9 5-1.5c3.6-.7 7.3 1.5 9.2 4.5a54 54 0 0 1 3.4 6.4c1 1.9 1.9 4.8 4.1 5.6 1.6-.1 2.6-1.8 3.4-3 1.3-1.8 2.6-4 4.2-5.6 2.1-2.1 5.4-3.5 8.4-3 2.8.9 4.7 3.5 6.7 5.5 2.5 2.4 6.3 6 10 4.9 2.5-1.1 4-3.5 6-5.3q4.3-4.2 9.1-7.8c8.8-6.3 10.3 2 16.8 5.6 2.4 1 5.1 1.5 7.6 2.5" class="b"/><path d="M11.7 38.3q3.4.6 6.7 1.5c5.4.6 10.7-.6 16-1.3 2.7-.2 5.6.6 8.4.5 4-.3 7.6-2.7 11.7-3.2q4.7-.3 9.2 1.2c3 .9 6 2.2 9.2 2.2 3 0 5.7-1.2 8.4-2q3-.7 5.9-1.3c3.5-1 6.7-2.2 10 .1 4.5 3 6 8.6 9.3 12.6 2.3 2.9 4.5-.6 5.8-2.6 1.5-2 3-4.4 5-6 2.5-1.3 5.6-3.4 8.5-2.2 1.7 1 3 2.8 4.2 4.4 1.8 2.7 3.7 5.7 6.7 7.3 4.6 2.5 7.7-3.3 10.9-5.8q3.6-3 7.5-5.6c2.3-1.5 4.7-3.5 7.6-3.8 4 .1 6.1 4.4 9.2 6.4 2.5 1.9 5.7 2.5 8.4 4.1" class="b"/><path d="M11.7 37.5c2.2.2 4.5.9 6.7 1 5.8-.1 11.3-2 16.8-3.2 3.6-.4 7.4 0 10.9-.9q4.5-1.4 9.2-1.1 3.9-.1 7.6.8c6 2 9.4 3.3 15.9 1.8q3.7-.7 7.6-1.2c2.2-.4 4.4-1.6 6.7-1.4 4 .6 6.8 4.3 9.2 7.3 1.5 1.9 2.9 4.2 5 5.4 2 1 3.8-.8 5-2.1l3.4-3.3q2-1.5 4.2-3c1.5-1 3.2-2.2 5-2.5 3.8-.3 5.6 5.3 7.6 7.9 1.7 2.7 4.8 6.6 8.3 4.5 2.2-1.3 3.9-3.6 6-5.1q3.4-2.7 7.5-4.6l5-2.9c1.5-.8 3.2-1.8 5-1.9 3.2.1 5.3 3.2 7.6 5 2.4 2.4 5.6 3.7 8.4 5.4" class="b"/><path d="M11.7 36.2c2.2.3 4.5 1 6.7.8q7.4-1 14.3-3.6 5-1.5 10-2 3.7-.8 7.6-1.3c2.2-.2 4.5.4 6.7.7q2.5 0 5 .3c2.6.6 5 1.6 7.6 2.1q3.7.7 7.5.5c2.8-.2 5.7 0 8.4-.5 2.5-.6 5-2 7.6-1 5.2 1.4 7.7 7.2 12.6 9.4 2.6 1.2 5.7.6 8.3-.6q2.8-1 5-2.8c2.5-1.6 4.6-4.5 7.6-4.8 3.7.4 5.4 6 7.6 8.6 1.3 1.8 3.5 3.7 5.9 3 2.9-1.3 4.7-4.3 7.5-5.7 3.4-2 7.4-2.5 10.9-4l4.2-2.3c1.5-.9 3.4-1.6 5-.9 2.7 1.4 4.6 4 6.7 5.8q2.7 2.5 5.9 4.1" class="b"/><path d="M11.7 34.5c6.7 2 8.8.5 15.1-1.1q3.8-1.2 7.6-2.7Q40.2 29 46 27.8q3.4-.8 6.7-.5 2.6.4 5 1c2 0 4-.2 6 .4Q69 30.3 74.5 31c3.6.3 7.4 1.4 11 .4 2.2-.8 4.2-1.6 6.6-.5 3.4 1 5.6 4 8.4 6 2.5 1.7 5.6 1 8.4 1.4 2.7.6 5.6 2.3 8.4 1 2.5-1.3 4.5-3.6 6.7-5.3 2.2-2 4.5-2.5 6.7 0 2.2 2.1 3.7 5.6 6.7 6.8 3.7 1.4 6.1-2.7 9.2-3.8 3.5-1.4 7.3-1.4 11-2q2.7-.5 5-2c1.8-1 3.7-2.8 5.8-2.3 2 .9 3.6 2.8 5 4.4q2.9 3.5 6.8 5.5" class="b"/><path d="M11.7 32.7c5.2 1.8 7.6 1.2 12.6-.2q3-.8 5.9-1.7l7.5-3a54 54 0 0 1 11-2.8q2.3-.4 5 0c1.6 0 3.3.6 5 .7q2 0 4.2.2 2.5.4 5 1c4.2.8 8.4 2.2 12.6 3 2.3.5 4.5-.3 6.7-1 2-.5 4.1.5 5.9 1.4 2 1.3 3.7 3.3 5.8 4.5 3 1.8 6.1-.8 9.2-.3 2 .4 3.5 1.7 5 2.7 3.1 2.1 6 .6 8.5-1.6 4-3.3 6.9-6.8 11.7-2.2 1.5 1.2 3 2.8 5 3 2.8.5 5-1.9 7.6-2.4 3.8-.7 7.8-.1 11.7-.3q2.7 0 5-1.1t4.3-2.7c4.8-3 7.7 7.7 13.4 9.2" class="b"/><path d="M11.7 30.8q2.9 1.2 5.9 1.4 4.6-.4 9.2-1.8 4.4-.8 8.4-2.7c3.3-1.5 6.5-3.1 10-3.8q3.7-1 7.6-1.2 3 .1 5.9.6l4.2.2q2.5.2 5 .9c4.3.7 8.3 3 12.6 3.8 4.6.4 6.1-2.2 10.9.3 3 1.7 5.4 5.7 9.2 4.8 3.2-1 5.9-3.2 9.2-1.2 2.4 1.4 4.6 4 7.6 3.7 3.5-.6 6.1-3.5 9.2-5.1 5.2-3 8.4 1.4 13.4 1 1.7-.1 3.4-1 5-1.3 2.6-.2 5 .8 7.6 1.1 3.6.3 7.5 1 10.9-.6 2-.9 3.6-3 5.9-3.2 1.4 0 2.5 1.5 3.3 2.5 2.2 2.6 4 6.2 7.6 7.3" class="b"/><path d="M11.7 29c4.6 2 9.6.6 14.3-.2q5-1.3 10-3l6-2.4q2.4-.8 5-1.5 6.5-2.1 13.4-.9 4.6.4 9.2 1.6c2.8 1 5.5 2.5 8.4 3.3 2.7.9 5.6.1 8.4 0 3.4 0 5.1 1.8 7.5 4 1.6 1.3 3.8 2.2 5.9 1.3 3.4-1.7 6.2-3.7 10-1.6 2.2 1.1 4.3 2.7 6.8 3 5.1-.1 9.2-4.4 14.2-5.2q3.7-.4 7.6-.2 3-.1 5.8-.6c3 .1 5.6 2 8.4 2.4 3.9.6 8.3 1.2 11.8-.9 1.8-1 3.5-3.3 5.8-2.8 1.4.7 2.5 2.3 3.4 3.5 1.8 2.5 3.7 5.4 6.7 6.8" class="b"/><path d="M11.7 27q4.2.8 8.4.2 3.8-.2 7.6-1.1c3.8-1 7.3-3 10.9-4.4 2.6-1.2 5.6-1.4 8.4-2 4.3-1.2 8.9-2 13.4-1 3.7.7 7.5 1.2 10.9 2.8 5.3 2.6 7.5 3.2 13.4 2.8 2 .1 4.3.5 5.9 1.8 2.9 2.7 5.2 5 9.2 2.4 8.4-5.3 10 .4 17.6.3q4.3-.6 8.4-2.3 5.7-2.3 11.7-3.3c2.2-.3 4.5-.8 6.7-.5 3.3.8 6 3.2 9.3 3.7q4.2.5 8.3-.4a14 14 0 0 0 4.2-2.5c6.4-5.4 7 4.7 14.3 9.7" class="b"/><path d="M11.7 24.5c3.4.7 6.7.3 10 .1 3.8-.1 7.6-.3 11-1.9 4.3-2.4 7.2-5.5 12.6-5.4 5-.7 10-1.9 15-.7q4.7 1 9.3 2.6 3.3 1.5 6.7 2.7c3.5 1.1 7.3.5 10.9 1.6 5 1.1 5.7 6.7 11.7 3 10.6-7 12.8 2.7 28.5-3.8l8.4-3c2.7-1 5.6-2 8.4-1.2 3 1.2 5.3 3.8 8.4 4.6 3.3.7 7 .4 10-1 2.5-1.1 4.6-4.5 7.6-3.4 2.2 1.2 3.5 3.8 5 5.8q2.4 3 5 6" class="b"/><path d="M11.7 22.4q4.6.1 9.2-.2c2.5.2 5 .7 7.6.7 7.5 0 11.8-8.5 19.3-8.6a41 41 0 0 1 21.8 3.3q3.3 1.5 6.7 2.6c3.3 1 6.8.8 10 1.8 5.2.8 6 6.9 11.8 2.8 7-5.6 11.2-3.6 19.3-3.1 3.9.4 7.6-1.3 10.9-3.1a78 78 0 0 1 7.5-3.8c2.6-1.2 5.8-2 8.4-.6 2.6 1.6 4.7 4.1 7.6 5.3 2.9 1.1 6.3.8 9.2-.2 2.8-.8 4.7-3.6 7.6-4 3.2 0 4.8 3.6 6.7 5.7 1.5 2 3.5 4 5 6" class="b"/><path d="M11.7 20.7c4.2-.6 8.5-1 12.6 0 3.6.9 7.6 1 10.9-.9 4.4-2.1 8-6 12.6-7.7q3-.6 5.9-.1 3.7.3 7.5 1.3a96 96 0 0 1 8.4 2.8c2.2.9 4.4 2 6.7 2.5 3.3 1 6.8.8 10 2q2.4.5 4.3 2c2.1 1.8 4 3.3 6.7 1.2 5.5-4.5 8.3-6.8 15.9-6.1 2.5.2 5 1 7.5.4 4.5-1.3 7.9-4.8 11.8-7 4-2.6 8.6-4.2 12.6-.5 1.8 1.7 3.6 3.8 5.8 5 2.8 1.7 6.3 1.7 9.3.9q2.2-.7 4.1-2.2c1.2-.8 2.7-1.8 4.2-1.9 3 .2 4.9 3.2 6.7 5.2q2.7 2.8 5 5.8" class="b"/></svg>