<svg xmlns="http://www.w3.org/2000/svg" id="a" width="1920" height="2400" viewBox="0 0 192 240"><defs><style>.b{fill:none;stroke:#fff;stroke-miterlimit:10;stroke-width:.3px}</style></defs><path d="M0 0h192v240H0z" style="stroke-width:0"/><path d="M10.7 231.8c4.8-1.4 9.5-3.6 14.5-4.5 4.1-.8 8.6 0 12.7-1.6 6.6-2.8 9-7.2 17-6.3a37 37 0 0 0 11-1.3c5.2-1.5 10.5-5 16.1-3.6q2.8.8 5 2.4c2.1 1.6 4.2 3.8 6.9 3.8q4.3.4 8.5-.8c3.3-1 6.8-.7 10.1 0 4 1 8 2.3 12 3q2.4.8 5 1.2 2.6.2 5.1-.3c2.6-.5 5-1.5 7.7-2q2.5-.1 5-.7 3-.9 6-2.3c12.9-7 14.6-4.5 28-2.2" class="b"/><path d="M10.7 227.8c8.2.8 9.7-.4 17-3 2.7-.8 5.7-1.2 8.5-2 3-.9 5.7-2.6 8.5-4 4.7-2.5 7.8-.8 12.7-.5q6 .3 11.9-1.3c3.8-1 7.8-2.8 11.9-2.2q2.7.5 5 1.5 2.6 1.4 5.1 2.8c1 .5 2.4.7 3.4.9q2.2.5 4.3.6c2.3 0 4.6-1 6.8-1.8q2.9-.9 5.9-.4c4.6.5 9 2 13.6 2.4 2.5.4 5 1 7.6.7 3.2-.3 6.3-1.4 9.3-2.2 4.6-.5 8.7-2.5 12.8-4.4 10.5-5 15.9-2.3 26.3.2" class="b"/><path d="M10.7 222.3c2.6.7 5 2 7.7 2.6 3.6.8 7-1 10.1-2.6q3.7-1.9 7.7-3c4.4-1.4 8.7-4.3 13.6-3.7 2.5.4 5 1.3 7.6 1.5q7.7.8 15.3-1.4 7.3-2 14.4.5 3.7 1.6 7.6 2.3c3 1 6.2 2.7 9.4 1.3 2.4-1 5-2.2 7.6-2 5.7 0 11.3 1.6 17 1.6 5.9.5 11.4-1.7 17-3.2 4.3-1.4 8.3-3.8 12.7-5 8-2.5 15.3.1 22.9 2.5" class="b"/><path d="M10.7 216.8c4.7 1.2 8.5 6.3 13.6 5.3 3.3-1.1 6-3.8 9.3-5 4.9-1.6 10-4 15.3-3 2.5.5 5 1.4 7.6 1.8q5.2.8 10.2 0c2.8-.2 5.7-1 8.5-1.4q5.6-.6 11 .7 4.3.8 8.5 1.4c1.8.5 3.5 1.6 5.1 2.4 2.2 1.3 4.6 1 6.8 0 6.1-3 13-1 19.5-.8 5.6.4 11-1 16.2-3 4.3-1.2 8.4-3.5 12.7-5 9-3.4 17.6-1.1 26.3 2" class="b"/><path d="M10.7 212.5c3.3.2 5.9 2.7 8.5 4.5 1.5 1.1 3.1 2.6 5.1 2.6 2.9-.5 5-3 7.6-4.2q6.5-3 13.6-2.8c3.5.3 6.8 1.6 10.2 2 5.4 1 10.8.4 16.1-.6q5.1-.7 10.2-.4l6.8.9c6.7.5 6.6-.5 12.7 3.6q2.9 1.5 6 .3c3.2-1.2 6.8-1.2 10.1-1.4 3.1 0 6.3.6 9.4.5 5.3 0 10.4-1.8 15.2-3.8 4.9-1.8 9.5-4.5 14.5-5.8 8.2-2.2 16.8-.1 24.6 2.6" class="b"/><path d="M10.7 208.8c3.7 0 6.8 2.6 9.4 5 2.5 2.6 4.1 4 7.6 1.8 4.4-3 9.9-4.5 15.3-4 5.6 1 11.2 2.3 17 2.2 6.2 0 12.4-1.4 18.6-1.3 3.1 0 6.2.7 9.3.8 2.5.2 5.2-.3 7.7 0q2.3.2 4.2 1.4c1.6 1 3.2 2.5 5.1 3q2.5.3 5-.2 4.4 0 8.6-.6c3-.2 6.2.3 9.3 0 5.8-.3 11-3 16.1-5.4 5-2.3 9.9-5 15.3-5.7 3-.5 6.3-.2 9.3 0q6.5.6 12.8 2.6" class="b"/><path d="M10.7 205.3c3.3 0 6.2 2.1 8.5 4.3 1.8 1.6 3.4 4.3 6 4.3 2-.3 4-1.5 5.9-2.2q4.2-1.4 8.5-.9c2.5.3 5 1.2 7.6 1.5q5.6.7 11 .2 8.6-.7 17-1.3c2.8 0 5.7.7 8.5 1q4.3.5 8.5 0c2.5-.3 5.3-.7 7.6.6 2 1 3.9 2.7 6 3.6 3.1 1.3 6.8 1.7 10.2 1.1 3.5-1 7.3-.6 11-1 7.7-.7 14.3-5.4 21.2-8.6q8.8-4.6 18.7-3.7c4.8.2 9.7.4 14.4 1.8" class="b"/><path d="M10.7 202.2c4.2.3 7.4 3.5 10.2 6.3 2.6 2.8 4.1 3 7.6 2 10.2-3 12.8 2.4 22.1 1.7 4.8-.3 9.6-1.6 14.4-2 3.1-.3 6.3-1 9.4-.7 3.7.3 7.3 1.8 11 2.4q3.8.3 7.6-.4c2-.3 4-.9 6-.6 3 .7 5.2 3.1 7.6 4.8 3.8 2.8 7.6 2.1 11.9 1.2 2.5-.5 5.1-.5 7.6-1 8.7-1.4 15.9-7 23.8-10.3a42 42 0 0 1 17-3.3 53 53 0 0 1 14.4 1.2" class="b"/><path d="M10.7 199.5c3.4.4 6 2.6 8.5 4.7 2 1.7 4 4.3 6.8 4 3.4 0 6.9-.3 10.2.7 2 .5 4 1.6 6 2.3q5 1.6 10.1 0c4.5-1.2 9-3 13.6-3.6q6-1.3 11.9.5c8 2.9 10 4.9 18.6 1.6 2.4-.9 5 0 6.8 1.6 2.8 2.3 5.4 5.7 9.3 5.5q5.6-.7 11-1.5 6.8-1.4 12.8-4.6c4-2 7.8-4.6 11.9-6.3 10-4.1 22.6-5.2 33-3" class="b"/><path d="M10.7 197c3.2.7 6 2.7 8.5 4.6 1.8 1.5 3.6 3.5 6 4q4.7.8 9.3 2.3c3.7 1.2 7 4 11 4 4.3-.1 8.1-2.5 11.9-4.3a27 27 0 0 1 23.8 0c2.4 1 4.9 2.4 7.6 2.5s5.2-1.2 7.6-2.3c2.4-.8 5 0 6.8 1.6 2.4 1.9 4.6 4.5 7.7 5q2.5.1 5-.2l5.1-.4q8.5-1.7 16.2-5.8c3.7-2 7-4.6 11-6.2 3.5-1.4 7.3-1.8 11-2.4 4.5-.7 9-1.3 13.6-.8q4.3.1 8.5 1.3" class="b"/><path d="M10.7 195c4.7 1.4 8.8 4.3 12.8 7.2q1.7.8 3.3 1.5 3 1.5 6 3.2c7.6 3.9 11.3 7.2 19.5 1.8 2.2-1.4 4.4-3 6.8-4a24 24 0 0 1 11-1.4q6.1.6 11.9 2.8c5 2 8 2.8 12.7 0 2.2-1.1 4.8-1 6.8.2 2.5 1.3 4.8 3.5 7.7 4 1.9.3 4 .1 5.9.2 2 0 4 .4 6 0q3.8-.7 7.6-2.1 5.3-1.7 10.2-4.1c3.5-1.7 6.4-4.6 10.1-5.9 3.3-1 6.9-.6 10.2-1 4-.4 8-1 11.9-.5 3.4.3 7 .5 10.2 1.9" class="b"/><path d="M10.7 193.3q4.4 1.5 8.5 3.5c2.3 1.3 4.4 3 6.8 4.2 2.4 1.7 4.4 4.1 6.8 5.9 5 3.3 11.5 6 17 2 5.6-3.8 7.8-7 15.2-6.9 7 0 13.6 2 20.4 3q2.3.3 4.2-.2c1.7-.4 3.4-1.3 5.1-1.7 4.5-1.3 7.8 2 12 2.7 2.1.3 4.5-.3 6.7-.2 2 0 4 .5 6 .7 2.8.2 5.7-.8 8.4-1.5q2.6-.7 5.1-1.6l6-3.2c4-1.8 7.5-4.9 11.8-5.6 2-.3 4 .2 6 .5 3.3.6 6.8 0 10.2.1 4.8.4 9.8 1 14.4 3" class="b"/><path d="M10.7 192q4.3 1.5 8.5 2.6c2.5 1 4.7 2.8 6.8 4.4 3.3 3.4 5.4 8 10.2 9.6q3.6 1.4 7.6 1.3c2.6-.1 4.9-1.6 6.8-3.1 2.4-2 4.7-4.2 7.6-5.1 7.3-2 14.8.6 22.1.9q3 .1 6-.4c2.8-.6 5.5-1.8 8.4-2 3.6-.5 6.8 1.6 10.2 1.8 2 .1 4-.6 6-.9q2.5-.4 5 0 2.6.8 5.1 1c3.2 0 6.4-1 9.4-2 2.7-1.1 5-3.2 7.6-4.7q3.3-1.5 6.8-2.5c2.4-1 5-2.3 7.6-2.3 3 .2 5.6 1.8 8.5 2.2q3.4.4 6.8.7 6.8 1.3 13.6 3" class="b"/><path d="M10.7 191q3.6 1.5 7.7 1.7c2.6.3 4.8 2 6.8 3.6 3.1 3 4.5 8 8.4 10.3a17 17 0 0 0 7.7 1.7q3.6.5 6.8-1.5c2.8-1.9 5.3-4.5 8.5-5.7 2.6-1.1 5.6-1.2 8.5-1.1q4.2 0 8.4.6 5.3 1 10.2-.7c4.1-1.3 8.4-3 12.7-2.4 2 .2 4 .8 6 1 3.8.3 7.3-2 11-1.7 2.3 0 4.6 1 6.8 1.5 5.7.6 11-2.3 15.3-5.8a20 20 0 0 1 9.3-3c2.8-.6 5.5-2.2 8.5-2.1 2 0 4 .8 6 1.5q2.8 1 5.9 1.7c2 .3 4 1 6 1.3 3.3.6 6.8 1 10.1 2.2" class="b"/><path d="M10.7 190.2q2.5 1 5.1 1 2.2 0 4.3.2c6 1.2 7.5 7.6 11 11.8 3 3.8 8.4 3.2 12.7 3.2 2.6-.4 4.7-2.2 6.8-3.6 5.6-4.2 11.2-3.8 17.8-3.5 4.2 0 8.7.5 12.7-1.1q6.6-3 13.6-3.5c2.6 0 5.1.7 7.7.5 6.2-1 8.3-3.6 15.2-1.1 3.9 1.8 8.4.8 12-1.3 2.8-1.6 5.3-4 8.4-5q2-1 4.3-1c1.6-.2 3.5-.2 5-.8 7.6-2.6 10.6-.6 17.9.9q3 .7 5.9 1.6 5.3.9 10.2 3" class="b"/><path d="M10.7 189.3c3 1.5 6.2.7 9.4.7 6.7.3 7.6 8.4 11.8 12.2 2.3 2 5.6 2 8.5 1.9l3.4-.2c1.8-.3 3.5-1.3 5.1-2.2 6-3.9 11-3.7 17.8-3q5.7.1 11-1.4 2.3-1 4.3-2 5.3-2.4 11-2.4c3.1 0 6.3.5 9.3-.5s6-2.9 9.4-2.8c3.3-.1 6.2 1.7 9.3 2.2 6.1.6 10.8-4.3 16.1-6.5q2.5-1.1 5.1-1.5 2.2-.1 4.3-.4 5.4-1.5 11-1c4.3.5 8.7.8 12.7 2.6 3.7 1.1 7.5 2 11 3.7" class="b"/><path d="M10.7 188.6c2.7 1.4 5.7 1 8.5.4 2-.4 4.4-.1 6 1.4 2.5 2.7 4 6.6 6.7 9.1 2.6 2.1 6.2 2.1 9.4 2q1.6 0 3.4-.4c2.3-.7 4.5-2 6.8-2.8q4.6-1.5 9.3-1.1c2.8.2 5.7.8 8.5.6a25 25 0 0 0 8.5-2.5q1.7-1 3.3-2.2 4-2.3 8.5-1.7l7.7-.1c5 0 8.7-4.3 13.6-4.9q3-.1 5.9 1c1.6.5 3.3 1.3 5 1.4 3 .1 6-1.2 8.6-2.5q5.3-2.7 11-5a21 21 0 0 1 4.2-.7q4.7-.8 9.4-.5c3.4.2 6.8 0 10.2.4 2.3.3 4.5 1.6 6.8 2.2q4.7 1.2 9.3 3" class="b"/><path d="M10.7 187.9c4 2.4 7 1 11-.1 2.2-.6 4 .9 5.1 2.5 1.7 2 3.2 4.3 5.1 6 1.9 1.6 4.5 2.2 6.8 2.3 2.8 0 5.8.3 8.5-.8 13.2-5 17.7 1.2 27.2-2.7q1.8-.6 3.3-1.9 1.6-1.5 3.4-2.8c2.5-1.5 5-1 7.7-.7 3.3.2 6.9.9 10.2-.1 5.7-2 9.3-7.5 16-5.9 3.2.7 6.2 2.4 9.4 2 4.1-.6 8-2.3 11.9-3.9 2.8-1.3 5.4-3.2 8.5-3.8 3.6-1 7.4-.7 11-.3h7.7q2.1.2 4.2.8 2.1.9 4.2 1.5 4.8 1 9.4 3" class="b"/><path d="M10.7 186.5a10 10 0 0 0 10.2.7c3-1.5 4.7-.5 6.8 1.7 4.4 5 6.8 6.6 13.6 6.7 2.8.4 5.7-.2 8.5-.8q3.7-.6 7.6-.6c5.4-.1 11 2 16.1-.6 2.4-1 4.2-3.1 6-5 2.3-2.3 4.8-1.7 7.6-.8l6 1.3c3.5 1 6.5-.3 9.3-2.5 4.8-3.7 8.7-7.3 15.2-5.4 3.3 1.1 6.8 2 10.2 1.7q5-.6 9.3-2.8c2.8-1.6 5.4-3.8 8.5-4.7 4.4-1.7 9.1-.3 13.6-.2q3.5-.1 6.8.5c1.7.2 3.4 1.1 5.1 1.6 3.4 1 7 1.7 10.2 3.3" class="b"/><path d="M10.7 184.1c3.2 2.4 7.4 3.5 11 1.7 3-1.6 5.5.4 7.7 2.3s4.7 3.6 7.6 4.1c4.5 1 9.1.7 13.6.4q4.3-.2 8.5 0c2.5.1 5.1.6 7.6.6 4.5.2 8.3-2.6 11-6 2.1-2.6 3.8-3.1 6.9-1.8q3.7 1.6 7.6 2.9 2.5 1 5 .7c3.3-.7 5.3-3.6 7.7-5.5 3.9-3.5 9.2-6.3 14.5-4.4 3.8 1.3 7.8 2.7 11.8 2 6.7-.8 9.6-5.8 15.3-8.2 4-1.7 8.6-.6 12.7-.3q4 .3 7.7 1l4.2 1.5c3.4 1 7 1.7 10.2 3.3" class="b"/><path d="M10.7 181c11.5 8 10.5-.1 17.8 4.4 2.5 1.5 4.9 3.2 7.7 4 3.2 1 6.8 1 10.2 1l8.5.2q3.4 0 6.7.4c2.8.3 5.9.5 8.5-.8 3-1.3 5.4-3.8 7.7-6.1 2.6-3.3 6.5-.2 9.3 1.3q3.3 1.7 6.8 2.9c4.9 1.8 8-2.5 11-5.6 3.5-3 8-5.9 12.7-5.5 2.4.3 4.6 1.4 6.8 2.1q4.3 1.4 8.5.3c6-1.3 9.6-7.3 15.3-9.3 3.3-1 6.8-.7 10.2-.2q4.3.5 8.5 1.5c4.8 1.6 9.8 2.6 14.4 4.6" class="b"/><path d="m10.7 177.5 5.1 3.2c1.8 1 3.8 2.1 6 2 1.6-.2 3.4-.5 5 .2 2.4.8 4.6 2.3 6.8 3.3 4.8 2.5 10.2 2 15.3 2.2l10.2.3c4.3.3 8.2.5 11.9-2.2 2.6-1.7 4.9-4 7.6-5.5 3-.6 5.9 2 8.5 3.4q3.7 1.9 7.6 3.2c4.5 1.4 7.5-2.7 10.2-5.5 3.2-3 7.5-5.2 11.9-5.5 2.6 0 5.1 1.3 7.6 2q4.3 1.4 8.5 0c6.3-2 10-8.2 16.1-10.2 5.9-1.8 12 0 17.9 1.2 4.8 1.3 9.8 2.4 14.4 4.4" class="b"/><path d="M10.7 174.7q3 1.6 6 3.5 2 1.3 4.2 2.2 2.1.6 4.2.5 2.3.3 4.3 1.3c3.2 1.5 6.5 3.5 10.2 4q3.3.1 6.8.1 4.6.1 9.3.1c6.3-.1 9.8.4 15.2-3.5q3.3-2 6.8-3.4c1.8-.5 3.6.5 5.1 1.3q2.6 1.6 5.1 2.8 3 1.3 6 2.4c7.5 2.8 9.7-5.5 16-7.9 6.8-2.8 8.2-1.5 14.5.4q4 .8 7.7-.9c6.6-2.4 11-8.9 17.8-11 5-1.4 10.2-.1 15.2.7 5.5 1 11 2 16.2 4.4" class="b"/><path d="m10.7 173.1 6 2.7c1.9 1 3.8 2.4 5.9 3.2 1.6.5 3.5.3 5 .8 3 .8 5.7 2.8 8.6 3.7 3.5 1.3 7.3.7 11 .8 5.1 0 10.3 0 15.3-1 3.4-.6 6.2-2.7 9.3-3.9q2-.7 4.3-1a6 6 0 0 1 4.2.1q3.3 1.7 6.8 3.2 3.4 1.3 6.8 2.5c8.2 3.2 10.6-5.9 18.6-7.4 4.7-1.2 6.8.5 11 1.5q3.7.7 6.9-1.1a65 65 0 0 0 7.6-4.7c4.4-3.2 9-6.8 14.4-7.5 4.3-.7 8.6.3 12.8.6q4.7.4 9.3 1.3 3.5.9 6.8 2.5" class="b"/><path d="M10.7 172.9q4 .3 7.7 2c1.6.7 3.3 1.8 5 2.4 1 .4 2.4.4 3.4.5 2.8.4 5.2 2.1 7.7 3.3q2.8 1.3 6 1.3l6.7-.3q6 .1 11.9-1 3-.6 6-1.8c2.1-1 4.3-2 6.7-2.2 5.7-.5 5.6-1.2 11 1.3 3.6 1.5 7.5 2 11 3.4 6.2 2.6 9.6-.6 14.5-3.6 3.6-2.2 8.1-2.6 11.9-.7 2.4 1 5.3 1 7.6-.4 8.3-5.1 16.2-12.2 26.3-13 4.3-.3 8.5.2 12.8 0 6-.1 9 0 14.4 3" class="b"/><path d="M10.7 174c7.3-1.4 7-1.1 13.6 1.7 2 .5 4.1.5 6 1.4 2.2 1 4.3 2.5 6.7 3 3.1.7 6.3.1 9.4-.2q4.3-.3 8.5-.8c4-.5 8-2.2 11.8-3.5q3.4-.8 6.8-.5c1.4 0 3-.3 4.3 0 2 .5 4 1.4 5.9 1.8 3.7.6 7.6.6 11 2.3 2.4.9 5 1.7 7.7 1.3 2.4-.5 4.5-2 6.8-3 2.8-1.3 6.3-1.8 9.3-.7 2.1 1 4.7 1.3 6.8 0 3.2-1.8 6-4.7 9.3-6.5q7.6-4.5 16.1-6 5.5-1 11-1c4-.2 8-1 12-1.4 2.7 0 5.3 1.5 7.6 3" class="b"/><path d="M10.7 174.5q2.2 0 4.3-.8c1.3-.4 2.8-1.1 4.2-1 1.8 0 3.5.9 5 1.4q1.8.6 3.5.7c3 .4 5.6 2.4 8.5 3.2 5.3 1 10.8-.8 16-1.2a45 45 0 0 0 10.3-2.7q2.5-1 5-1.3 2.2 0 4.3.3c1.7.2 3.5 0 5 .3 2 .3 4 1 6 1.2 6.3 0 7.8-.3 13.6 2.6 6.8 3.1 9.7.6 16.1-1a15 15 0 0 1 5.1 0c1.7.3 3.5.6 5.1-.2 1.9-.8 3.5-2.3 5.1-3.6q2.7-2.3 6-3.8 6.4-2.7 13.5-3.9 6.3-1.5 12.8-2 5.1-.4 10.1-1.7c4.8-2 7-1.6 11 1.7" class="b"/><path d="M10.7 172.6q3 1 6 .2 1.6-.7 3.4-.9c2.3 0 4.5 1.2 6.7 1.5 3.3.2 6.2 1.7 9.4 2.3 5 .6 10.2-.6 15.2-1.5q4.4-.7 8.5-2.1c2.8-.9 5.6-2 8.5-1.7q3.8.8 7.7.9 3 .5 5.9.8 2.2 0 4.2-.2 2.7-.1 5.1 1c5.2 1.8 10.5 4.6 16.2 3.3q5.4-1.4 11-1.7c4.8-.3 7.6-5 11.9-6.7 5.9-2.4 12.4-2.8 18.6-4.2q5.1-1.2 10.2-1.7c2.8 0 5.7.4 8.5 0 6.4-1.3 6.8-7.5 13.6-1" class="b"/><path d="M10.7 169.2c2 1.2 4.4 2.5 6.8 2.1q2.1-.4 4.3-.3c1.6.2 3.4.9 5 1.1l8.5.9c3.1 0 6.3-.6 9.4-.6 4.6-.2 9.1-1.4 13.5-2.6 2.8-.7 5.6-1.8 8.5-1.9 2 0 4 .7 6 .9q2.1 0 4.2.2 2.5.3 5.1.4c2.2-.2 4.7-.5 6.8.5q3 1 6 1.7 3.7 1.3 7.6 2c3.7.4 7.4-.4 11-1.2 2.2-.5 4.6-.7 6.8-1.6 3-1.3 5.4-3.8 8.5-5 5.4-1.8 11.3-1.9 17-3 3.9-.7 7.9-1.4 11.8-1.2 3.7.2 7.4 1.4 11 .5 6-2 6.2-9.6 12.8-2.1" class="b"/><path d="M10.7 165.4c2.3 1.6 4.8 3.5 7.7 3.8q2.5-.1 5 .4 2.5.8 5.1 1.1c4 .1 8-1.2 12-1.9 3.6-.7 7.3.5 11-.2 5.4-.8 10.6-3.2 16-3.1 2.3.3 4.6 1 6.9.8 3.3-.2 6.8.1 10.1 0 1.2 0 2.4.6 3.4 1q2.5.8 5.1 1.1 4.2.8 8.5 1.4 4.3.3 8.5-.4 5.3-.9 10.2-2.5c2.5-1.1 5-2.8 7.6-3.5 3.6-1 7.4-.8 11-1.3q3.8-.7 7.7-1.2 5.1-.2 10.2.4c3.9.4 8 1.5 11.9.2 3.2-1 4.5-5 7.6-6.2 2.3 0 3.7 2.8 5 4.2" class="b"/><path d="M10.7 162.1c3 1.7 5.9 4.1 9.4 4.4q2.5.3 5 1c1.4.4 2.9 1 4.3 1 2-.1 4-1 6-1.8q2.8-1.1 5.9-1.8c3.3-1 6.8.2 10.1.3 4 0 8-1.3 12-1.9 2.7-.6 5.6 0 8.4.3q2.2.2 4.3-.2 2.5-.2 5-.1c2.7-.2 5.1 1 7.7 1.5a78 78 0 0 0 23.7.5q4-.6 7.7-1.8c2.7-1 5.5-2.2 8.5-2.5 2.5-.3 5.1 0 7.6-.3 2.3-.1 4.5-.8 6.8-.9 4.8-.4 9.7.4 14.4 1.1 4 .6 8.4.9 12-1.4 1.9-1.4 3.2-3.7 5-5.3 3.1-2.3 5 3.1 6.8 5" class="b"/><path d="M10.7 159.8c3 1.2 6 3 9.4 3.5q2.5.2 5 .8c1.7.3 3.4 1.3 5.1 1.4 2.1 0 4-1.3 6-2q3.3-1.3 6.8-2.2c3.6-1 7.3 0 11 .3 4 .2 8-.8 11.9-.9 2.2 0 4.5.6 6.8.4 2.5-.3 5-1 7.6-.8 2.3 0 4.5 1 6.8 1.2q7.2.6 14.4 1c4.8.3 9.7.5 14.5-.4 4-.5 7.8-2.4 11.8-2.8 2.5-.3 5.2 0 7.7 0 2.5-.1 5-.7 7.6-.6 5.4 0 10.7 1.3 16.1 1.5 13 .8 13.1-12.1 17.9-8.1 1.6 1.8 2.7 4.4 4.2 6.4" class="b"/><path d="M10.7 158c2.8.8 5.6 1.8 8.5 2.2q2.6.1 5.1.2 2.7.3 5 1.5c2.3 1 4.8-.1 6.9-1q3-1.2 6-2.2 4.9-1.8 10.1-1 4.6.8 9.3 1 4.7-.2 9.4 0c2.8 0 5.6-1.3 8.4-1.2 1.7-.1 3.5.6 5.1.6q5.6-.1 11 .4c6 .3 11.9 2.1 17.9 1.9 5-.2 9.6-2.2 14.4-2.9q3.4-.1 6.8 0 3 .2 6 0c4.5-.1 9 .9 13.5 1.4s9.2.4 12.8-2.5c1.5-1.2 3-3 4.2-4.6 1-1.2 2.3-3.6 4.2-3.2 3 1.8 3.6 6 6 8.4" class="b"/><path d="M10.7 156.9q4.3.6 8.5.8c3 0 6.4-1 9.3.4 3.1 1.9 4.5 2 7.7.3q3.6-1.7 7.6-2.9 5-1.7 10.2-.8 3.7 1 7.6 1.7 4.7.6 9.4.2c2.5-.3 5-1.6 7.6-1.8 1.7-.1 3.4.5 5.1.3 2.2-.3 4.5-.9 6.8-.9q5.6.3 11 1.6c5.5 1.5 10.3 3.3 16.1 2.1 5.1-.9 10-3 15.3-2.4q6.3.3 12.7 1c6 .9 14.2 2.4 19.6-.9 2-1.4 3.7-3.6 5-5.6 1.2-1.4 2.3-3.9 4.3-4.2 3.5 1 4 7 6.8 9.2" class="b"/><path d="M10.7 155.9q4.3-.2 8.5-.7c3.7-.7 7.9-1.4 11 1 1.5 1.2 3.5 1.2 5.1.3 4.5-2.3 9.4-4.2 14.5-4.6 4.1-.5 8 1.3 11.8 2.5q4.6 1.1 9.4.3c2.3-.6 4.4-1.9 6.8-2.2 1.9-.4 4 .2 5.9-.3 2.5-.8 5-1.8 7.6-1.7q3.5.2 6.8 1a39 39 0 0 1 7.7 2.5c7.4 3.2 12 2 19.5 0q4.6-1.3 9.3-.6l10.2 1.8q5.5 1.1 11 .6c6.8-.8 9.6-1 13.6-7.1 1.3-1.7 2.3-4.1 4.3-5.2 3.5-.6 5 7.2 7.6 9.2" class="b"/><path d="M10.7 154.4q4-.7 7.7-1.7c2.2-.5 4.5-1.3 6.8-1.1 1.8 0 3.6 1 5 2.1 2.2 1.9 4.6 1 6.8-.2q3-1.6 6-2.6c4.6-1.6 9.8-1.8 14.4-.1 2.5.9 5 2.3 7.6 2.6q4 .3 7.7-1.3c1.8-1 3.8-2.1 6-2.2 7 .3 8.7-4.2 16.9-2.4a24 24 0 0 1 8.5 2.6 24 24 0 0 0 11.9 3.5c2.5-.1 5.1-1 7.6-1.6a27 27 0 0 1 8.5-1c2.3 0 4.6 1 6.8 1.7 4.4 1.1 9 2.6 13.6 1.9q3.3-.6 6.7-1.6c2-.5 4.3-.7 6-1.9 2.1-1.5 3.6-4 5-6.1 1.2-1.6 3-4.8 5.2-3 2.3 2.5 3.4 6.3 6 8.6" class="b"/><path d="m10.7 152.4 10.2-3.2c9.6-2.9 8.5 5.9 15.3 2.6 5.6-2.8 11.4-5.3 17.8-3.8q3 .5 6 1.8c1.8.8 3.8 1.9 5.9 2 3.8.3 6.9-2.2 10.1-3.8 1.3-.5 3-.5 4.3-.6q2.3-.4 4.2-1.2 3.7-1.7 7.7-2 4.8-.2 9.3 1.6c4.3 2.2 8.6 5.1 13.6 5.3 2.9.2 5.7-.8 8.5-1.5a27 27 0 0 1 8.5-.7q3 .4 5.9 2 3.3 1.5 6.8 2.3c4.6 1.5 8.4.3 12.7-1.5 2.4-1.1 5.3-1.4 7.7-2.5 2.2-1.4 3.6-3.9 5-6 .9-1.2 2-3 3.4-3.4 2.2.2 3.2 3 4.3 4.5a21 21 0 0 0 3.4 4.5" class="b"/><path d="M10.7 150c4.3-1.2 8.3-3.8 12.8-4.4 6.4-.6 6.8 6 11.8 4.4 4.2-1.6 8.3-4 12.8-4.3q4.6 0 9.3 1.1c2 .6 4 1.7 6 2.5 4 1.8 7.7-.7 11-2.9 2-1.4 4.5-1.2 6.7-1.7 3.2-.8 6.2-2.3 9.4-2.8 10.3-1.5 12 3 20.4 6q5.9 1.8 11.8-.2a24 24 0 0 1 11-.2c1.8.5 3.5 1.6 5.2 2.4 3.2 1.5 6.5 3 10.1 3.2 5.5 0 10-4.2 15.3-4.8 5-.8 7.4-11.7 11-9 2.3 2.3 3.5 5.7 6 7.8" class="b"/><path d="M10.7 147.4c5.6-1.8 12-7.7 17.8-3.5 1.9 1.4 3.4 3.9 6 3.8 2.6-.3 5-1.8 7.6-2.6q4.6-1.7 9.3-1 4 .3 7.7 1.5c4 1.7 6.8 3.5 11 1 2.4-1.5 4.7-3.5 7.7-3.7 3.1-.5 6.2-1.8 9.3-2.6q5.9-1.7 11.9-.3c3.8 1.3 7.1 4 11 5.3q4.6 1.8 9.3 1.2c3.7-.6 7.4-1.3 11-1.2 2.8 0 5.4 1.2 7.7 2.5 2.7 1.4 5.5 3 8.5 3.8 6.4 2.1 11.6-3.4 17.8-3.7 3.2-.3 5.2-3.3 6.8-5.8.8-1.2 1.8-3.1 3.4-3.5 1.6 0 2.6 1.7 3.4 2.9q1.3 2.3 3.4 4.1" class="b"/><path d="M10.7 144.6c5.3-2.3 11-8 17-4.9 2 1 3.3 3 5 4.3 2.4 1.7 5.3.6 7.7-.2q3.3-1.2 6.8-1.5 5.2 0 10.2 1.1c3.7 1.1 7.2 3.6 11 1.7 2.1-1 4-2.5 6-3.5q1.6-.6 3.3-1c4-.9 7.8-2.6 12-2.8 9.9-.7 10.2.6 18.6 4.6q5.2 2.6 11 2.3c4.5-.2 9.1-1.2 13.6-.7 3 .6 5.8 2.1 8.5 3.4 6.4 3.4 10 4 17 1.6q2-.7 4.2-1 2.9.2 5.1-1.5a16 16 0 0 0 3.4-4.1c1.1-1.6 2.7-5.3 5-3.5 1.8 1.7 3 4.2 5.2 5.5" class="b"/><path d="M10.7 141.5c8.4-5.1 14-11 22-1.7 2.1 2.1 5 2.6 7.7 2q3-.7 6-1 3.7-.2 7.6.3 4 .7 7.6 2.2c5.9 2 8.7-2.6 13.6-4 4.2-1.2 8.4-3 12.7-3.3q5.2-.1 10.2.4c2.7.3 5.3 1.5 7.7 2.7a31 31 0 0 0 20.3 3.7c3.4-.3 7-.8 10.2.3 4.4 1.2 8.3 3.7 12.7 4.8 3 .7 6.3.4 9.4.3 2.2-.2 4.6.3 6.8-.3 5.2-1.3 7.1-12 11-9.2 1.6 1.6 3 3.5 5 4.5" class="b"/><path d="M10.7 138c20.4-16.2 18.7-.2 28.9 1 5 .4 10.2-.6 15.2.5 8.3 2.1 9 4 17-1q2.5-1 5.1-1.8 4.2-1.6 8.5-2.5 3.4-.3 6.8.2l6 .5c6 .5 11.2 4.2 16.9 6q4.6 1 9.3.7c3.1-.1 6.2-.8 9.3-.7 5 .1 9.7 2.4 14.5 3.7 3 .7 6.2.6 9.3 1.2 2.8.4 5.7 2.1 8.5.8 1.8-.9 3.1-2.7 4.2-4.4 1.4-1.8 3.3-5.8 6-3.7.7.6 1.7 1.6 2.5 2l2.6 1.2" class="b"/><path d="M10.7 134.7c3.9-3.4 10-7.7 15.3-7.7 4 .2 6.6 3.6 9.3 6 4 3.4 9.5 3.4 14.5 3.7q3 .2 5.9 1c2.2.7 4.4 1.7 6.8 1.9 3.3.2 6.4-1.7 9.3-3.1l6-2.1c3.2-1.3 6.6-2.5 10.1-2.1 2.6.2 5.1.8 7.7 1 3 .2 6.3.3 9.3 1.4 4 1.4 7.8 3.5 11.9 4.8q3 .7 6 .7c3.3 0 6.7-.6 10.1-1q3.8-.2 7.6.3c2.3.4 4.6 1.2 6.8 1.5q3.4.5 6.8.6c3.2.1 6.2 1.5 9.3 1.9 5.6.6 8-8.3 12-6.2l2.5 1.6 3.4 1" class="b"/><path d="M10.7 131.5q4.7-3.8 10.2-6.2c7.7-3.9 10.5.4 16.1 4.7q5.1 3.2 11 4 3.5.5 6.8 1.4c2 .6 4 1.5 6 1.8 3.2.6 6.4-1 9.3-2.1 1.6-.8 3.5-1.1 5.1-1.8q3-1.3 6-2.3c4.8-1.7 9.5.3 14.4 1q3.8.3 7.6.4c3.6.3 7 2 10.2 3.6a24 24 0 0 0 16.1 2c4.2-.8 8.5-1.5 12.7-1.1 4.2.8 8.5.5 12.8.6 3.3.1 6.9 1 10.1 0l6-2.5c.7-.3 1.8-.4 2.5-.1 1.2.4 2.3 1.4 3.4 1.8l4.3.9" class="b"/><path d="M10.7 129q4.1-2.7 8.5-4.6c1.7-.8 3.4-2 5.1-2.6 5.5-2.2 9.5 2.5 13.6 5.3q5.9 3.5 12.7 5c5.9 1.4 10 4.4 16.1 1.9q4.3-1.3 8.5-2.7c3.7-1.7 7.7-3.4 11.9-2.7 3.1.4 6.2 1.6 9.3 2 2.8.5 5.7 0 8.5 0 4 .2 7.5 2.5 11 4.2q3.3 1.4 6.8 1.5c3.7.4 7.5-.4 11-1.2q3.8-1 7.7-1.3h3.4q2.5 0 5-.2c3.7-.2 7.5.5 11.1-.6 2.6-.7 5-2.3 7.7-2.5 1 0 2.4 0 3.3.6 1.2.7 2.3 1.8 3.4 2.5q3 1.2 6 1.7" class="b"/><path d="M10.7 127.4q4.4-1.7 8.5-3.8l4.3-2.9c6-3.8 10.4 1.2 15.2 4.2q3.3 2 6.8 3.4 3.4 1.3 6.8 2.2c3.3.9 6.7 2.5 10.2 2.1 2-.2 4-1 6-1.4q4.7-1 9.3-3.1 4.8-2.2 10.1-1c3.7.6 7.3 2.4 11 2.3 4-.2 8.2-1.8 12 .2 3.3 1.4 6.4 3.7 10.1 4 6.8 1.6 12.4-1.1 18.7-2.8 1.9-.5 4-.3 6-.4q3.7-.3 7.6.2c5.8.8 8-1.9 12.7-4.2 3.6-1.6 6 1.8 8.5 3.7 2.1 1.1 4.4 2.3 6.8 2.8" class="b"/><path d="M10.7 126.4a20 20 0 0 0 11-5.6c6.1-5.7 10.5-2.3 16.2 1.7 4.2 2.5 8.7 4.7 13.6 5.8 3.6.8 7.2 2.2 11 1.8q4.6-.8 9.3-1.7c2.3-.6 4.6-1.7 6.8-2.5q3.2-1.3 6.8-.6c3.2.2 6.3 1.2 9.3 2q3.4.8 6.8 0c2.2-.5 4.5-1.4 6.8-1.2 3 .2 5.7 2.2 8.5 3.4q2.5 1 5 1.3c8.4 1.8 12.4-2.9 19.6-3.9q5.3 0 10.2 1.5c2.8 1 6 .7 8.5-1 2.6-1.7 5-5 8.5-4.2 1.5.4 3 1.6 4.2 2.5 2.8 1.6 5.4 4 8.5 5" class="b"/><path d="M10.7 125.3c4 0 7.6-2.2 10.2-4.9 6.4-7 10.5-3.5 17 .8a41 41 0 0 0 13.6 5.3c3.3.5 6.7 1.3 10.1 1.3q2.6-.1 5.1-.7 2.6-.2 5.1-.6c3.5-.4 6.7-2.6 10.2-2.8q1.6 0 3.4.5l4.2.5c2.5.5 5 1.3 7.7 1.2 4 0 7.7-2.6 11.8-2.4 2.5 0 4.7 1.5 6.8 2.5q2.5 1 5.1 1.3c9.4 2 12.2-3.5 19.5-3.7 3.4.3 6.4 2 9.4 3.4 2.6 1.4 5.8 2 8.5.2 3.7-2.2 7-7.2 11.8-5.5q1.8.5 3.4 1.3c2.7 1.6 4.8 4.2 7.7 5.5" class="b"/><path d="M10.7 123.5c4.4.4 8.2-2.4 11-5.5 6.2-6.5 11.1-.4 17 2.7q3.7 1.7 7.7 3 4.6 1 9.3 1.3 5 .5 10.2.1l6.8-.3c2.9-.1 5.6-1.5 8.5-2 1.7-.2 3.4.6 5 .9l7.7.7c7 .9 11.7-4.5 17.8-3.2 1.7.4 3.4 1.3 5 1.8 1.4.4 3 .3 4.3.5 4.4.6 8-.6 12-2.2 2.6-1.1 5.8-1.4 8.4.2q3 1.6 6 4c1.7 1.2 3.6 2.7 5.9 2.8 6.2-.1 9.5-7 15.3-8.4 1.6-.3 3.5-.6 5 0 2.9 1.7 4.8 4.7 7.7 6.3" class="b"/><path d="M10.7 122c4.9.4 8.6-3.2 11.9-6.2 5.6-4.8 10.3 1 15.3 3.5q4.5 1.8 9.3 2.7c6.5.8 13 .6 19.5.7 2.8 0 5.7.4 8.5.2 2-.1 4-.7 6-.8 1.7-.1 3.4 1 5 1.4q3.8.4 7.7.1c5.4-.2 10-3.6 15.2-4.8 2.6-.6 5.2 0 7.7.4q2.1.2 4.2 0 3 0 6-.6c2.5-.5 5-1.5 7.6-1.4 6 .3 9.4 6.7 14.4 9.2 8.5 3.9 15.6-8.3 23.8-9.2 1.7 0 3.1 1.6 4.2 2.7 1.3 1.4 2.7 3 4.3 4" class="b"/><path d="M10.7 120.6c3.2 0 6-1.7 8.5-3.5 2.8-2.5 6.2-5.4 10.2-4 2.7 1.1 5 3.1 7.6 4.5 3 1.3 6.2 1.7 9.4 2.2 5.9.6 11.9 0 17.8 0 5 0 10.2 1.2 15.3 1q1.7 0 3.3.5c1.2.3 2.3 1.2 3.4 1.5 3 .7 6.4 0 9.4-.5 3.8-1 7.3-2.9 11-4.3q3.3-1.5 6.8-2l6-.6q3-.2 5.9-.6c2.2-.2 4.5-.6 6.8-.4 6.6.3 9.5 7.5 15.2 10 8.6 3.5 17.4-5.3 24.6-9 3.8-1.9 6.6 4.4 9.4 6.2" class="b"/><path d="M10.7 118.8c4.2-.4 7.7-3.3 11-5.6 4.7-3.3 9.5-1 13.6 2 2 1.3 4.5 1.5 6.8 1.8q4.6.6 9.3.5c4.3-.1 8.5-.7 12.8-.8q5.1 0 10.2.6c2.8.4 5.8.4 8.4 1.5 1.2.5 2.3 1.4 3.4 1.8 7 1.9 14-2.2 20.4-4.3 5.5-2 11.1-3.7 17-4 2.8-.3 5.7-.5 8.5.2 6.1 1.4 9 8.3 15.2 9.8 4 1 8.1 0 12-1.2 3.6-1.2 6.8-3.6 10.1-5.6 1.3-.8 2.8-2 4.2-2.4 3.3-.3 5.3 4.1 7.7 5.9" class="b"/><path d="M10.7 116.7c4.5-.8 8-4 11.9-6 3.3-1.3 7-.1 10.2 1.2 1.7.7 3.2 2.1 5 2.4q8.2 1 16.2.4c5.6-.6 11.3-1.7 17-1.7 3.3.1 6.8 0 10.1.7 2.8.7 4.8 3 7.7 3.3 6 1 12-1.3 17.8-2.7 5.4-1.2 10.6-3.2 16.1-3.5 4.3-.5 8.9-.3 12.8 1.8 3.3 1.7 5.6 5.2 9.3 6.4 4.7 1.7 13.2.7 17.8-1.1 2.7-1.1 5.2-3 7.6-4.5 1.3-.8 2.7-1.9 4.3-2 3-.2 4.7 3 6.8 4.8" class="b"/><path d="M10.7 114.4c3-.8 5.8-2.6 8.5-4.1 2.6-1.7 5.5-2.5 8.5-1.5 2.8 1 5.9 1.5 8.5 3 1.8.8 4 .5 6 .6h6.7c5.2 0 10.3-1.3 15.3-2.3q6.4-1.1 12.7-1.5 3.5-.5 6.8.8 1.6 1 3.4 1.7a29 29 0 0 0 9.3 1.9q8.6-.2 17-2a70 70 0 0 1 9.3-1.5c4.5-.4 9.5-1.2 13.6 1.1 2.8 2 5 4.9 8.5 5.6 2.7.8 5.7.8 8.5.8 3.1 0 6.3-.1 9.3-1.1 4-1.3 7.3-4.2 11-6 3-1.3 5.7 1.4 7.7 3.3" class="b"/><path d="M10.7 112c4.8-1.5 9.2-6.2 14.5-5.6 2.3.4 4.5 1.8 6.7 2.4l6 1.4c2 .2 4-.1 6 0q8 .4 16-1.9 6-1.7 12-2.6c3-.6 6.1-1.5 9.2-1.7 1.8-.2 3.5.5 5.1 1q4.5 1 8.5 2.6c4.7 1.4 9.6 1.6 14.5 1.7 5.7 0 11.3-1.9 17-2.6 2.4-.3 5-.9 7.6-.5q2.4.6 4.2 2.4c4.4 5 10 5.2 16.1 5.5 6.5.5 10.7-.5 16.2-4 4.6-2.8 6.5-3.1 11 .4" class="b"/><path d="M10.7 109.4c4.9-2 9.7-7 15.3-5 3.7 1.6 5.8 4 10.2 4 2.5.6 5-.3 7.6-.2 4.8.2 9.8.2 14.4-1.3q8-2.8 16.2-5.2c2.7-.8 5.6-1.8 8.4-2.1l6 .1c2.7.2 5.2 1.5 7.6 2.5q4.2 1.8 8.5 2.9 3.8 1 7.7.8 3.3-.4 6.7-1c3.1-.5 6.4-.4 9.4-1.3 4.6-1.4 6.6-2.4 10.2 1.8s9.3 4.7 14.4 5.5c6.4.9 11.3.8 17-2.7 4-2.2 6.9-3.3 11-.3" class="b"/><path d="M10.7 106.7c6-3 11.2-8.2 17.8-3 3.9 2.8 5.2 4 10.2 3.8 5.9-1.3 12 .7 17.8-1 3.6-1 6.7-3.3 10.2-4.6q6.8-2.2 13.6-4.1 2.5-.8 5-1.5c2.5-.7 5.2-1.4 7.7-.8 2.7.6 5.2 2.2 7.7 3.2 3.5 1.6 7.1 3.2 11 3.4q3.4.1 6.8.2c8 1.3 8.6.9 15.3-3.4 2.4-1.5 4.4.8 5.9 2.5q1.9 2.1 4.2 3.2a52 52 0 0 0 20.4 4c5.7-.9 11-7 17-3.4" class="b"/><path d="M10.7 103.8c6.3-3.7 11-8 17.8-2.3 2.6 2 5 5 8.5 5.1 2 .3 4-.2 6-.3q3.3.2 6.8.5c7.9.9 11.1-3.8 17.8-6.2 4.1-1.3 8.6-1.9 12.7-3.3 3.6-1 6.7-3.5 10.2-4.9 4.1-1.6 7.4.5 11 2.3q5.7 3.2 11.9 4.6c3 .5 5.7 2 8.5 3 5.8 2.2 9.3-2.5 12.7-6.3 3.9-4 6.2 2 9.4 3.7 5.4 3.8 11.9 6.7 18.6 7 3 .1 5.9-1.3 8.5-2.7 3.1-1.5 6.8-2.6 10.2-1.4" class="b"/><path d="M10.7 100.7c2-1 3.9-2.7 6-3.7 4.4-2.1 8.4-.8 11.8 2.5 2.6 2.2 4.9 5.5 8.5 6 2.3.5 4.6 0 6.8.1q4.3.5 8.5.8c4.7.1 8.7-2.7 12.7-4.7q2.5-1 5.1-1.5l6.8-1.7c9-2 11-8 17.8-9.4 1.8-.3 3.6.4 5.1 1.2l4.3 2.2 11 5.8c2.3 1.3 4.4 3 6.8 4.1 5.7 2.4 10-2 12.7-6.5 1.5-2 3.8-6.3 6.8-4.2 3.1 2.2 5.7 5.2 8.5 7.8 5.2 4.4 13.3 7.2 19.5 3.3 3.6-2 7.8-3.3 11.9-2.3" class="b"/><path d="M10.7 97.8c4.7-3 9-6.1 14.5-2.8 4.5 2.7 7 8.7 12.7 9.1 2.5.3 5.1-.2 7.6.1 3.4.4 6.8 1.1 10.2.7 3.6-.5 6.8-2.3 10.2-3.4q2.1-.5 4.2-.8l7.7-2.2q4.3-1 7.6-3.9c3.7-3 7.3-8.2 12.7-7.7 5.4 1.9 10 5.4 14.5 9 3 2.2 5.7 5 9.3 6.4 4.3 1.6 9.3-.3 11.9-4 2.3-3 3.9-7 6.8-9.6 4.9-3.6 9.4 7.2 12.7 9.9a14 14 0 0 0 6.8 3.7c5.2 1.3 7.5-1.2 11.9-3 2.9-1.2 6.2-1.2 9.3-.8" class="b"/><path d="M10.7 95.1c4.6-2.4 8.5-4.8 13.6-2 5.2 2.9 7.8 9.3 14.4 9.2 2.6 0 5.1-.6 7.7-.4 5 .5 10.2 1.4 15.2.2l5.1-1.1q1.8-.2 3.4-.6l6-1.8 5-1.3c5.4-1.7 8.3-7.1 12.8-10.1 2.6-1.9 4.9-2.5 7.6-.6q5 3 9.4 7.2c2.6 2.4 5.2 5.1 8.4 6.8 3.7 1.7 8.3 1.3 12-.4 3.5-1.8 5.5-5.7 7.6-9 9.9-16.5 11.5 7.3 21.2 9 5.3 1.6 7.4-1.8 11.9-3.3 3-.9 6.2-.5 9.3-.3" class="b"/><path d="M10.7 92.7c2.2-.7 4.5-1.9 6.8-2.1 5.8-.8 9.7 3.4 13.6 7 2.3 1.8 5.5 2.8 8.5 2.2 6-1.8 9.2-1.4 15.3-.5q3.7.7 7.6.8 3.9 0 7.6-.8 3-1 6-2c2.2-.5 4.6-.6 6.8-1.2 5.8-1.7 10.1-10.7 16-11.3 2 .3 3.6 2 5.2 3 4.6 3.4 8.4 8 13.6 10.5q3.6 1.5 7.6 1.2c10.5 0 11.4-5.8 17-12.8 1.6-1.7 4.5-4.3 6.8-2.3 4.3 4.3 5.2 12.6 11.8 14.2 4.4 1 7.2-3 11-3.9 3.1-.7 6.3-.1 9.4.1" class="b"/><path d="M10.7 90.4C16.6 89 20.7 88 26 92c2.4 1.8 4.7 4.2 7.6 5.1 6.5 2 9-3.8 16.2-3.1 10.7 1 12.7 6.6 24.6 2q3.7-1.1 7.6-1c3.4 0 6.1-2.4 8.5-4.5q2.7-2.6 6-4.8c3.2-2 5.1.6 7.6 2.5 3 2.2 6 4.6 9.3 6.3q2.9 1.5 6 2 3.4.1 6.7.1c6 .3 9.2-.9 12.8-5.8q3-4.6 7.6-7.8c3.3-2.6 5.5 2.4 6.8 4.8 1.9 3.4 3.5 8 7.6 9.2 4 1 6.8-2.9 10.2-4 3.3-1 6.8-.2 10.2 0" class="b"/><path d="M10.7 88.1c6-1.1 10.2-1.4 15.3 2.4 2.9 2.3 6.2 5.1 10.2 4.3 2.3-.3 4.1-2.1 6-3.5 3-2.7 7-3.8 11-2.4 5 1.3 8.8 6.2 14.4 6 3.6.3 6.7-2 10.1-2.4q2.6-.1 5.1.4c3.4.5 6.1-2 8.5-4 9.5-7.3 7.8-2.8 16.2 1.6q5.9 3 12.7 2.8 3.3-.1 6.8 0c3.5.3 7.5.1 10.2-2.5 2-1.9 3.8-4.2 5.9-6l3.4-2.5a6 6 0 0 1 2.5-1.5c5 .5 6.4 13.6 12.8 14.7 4 .5 6.4-3.9 10.1-4.6 3.1-.6 6.3 0 9.4.2" class="b"/><path d="M10.7 85.7c3.7-.6 7.6-1.2 11 .4 4.3 1.6 7.2 6.4 12 6.7 4.7-.2 6.8-5.2 10.1-7.8 4.1-3.5 9.5-2.5 13.6.5 2.5 1.8 4.7 4.4 7.6 5.7 4.2 1.8 6.4.3 10.2-1.1a10 10 0 0 1 5.1-.2c5.2 1.6 6.8 1 11-2.3 2.7-1.8 6.4-4.2 9.4-1.9q5 4.8 11.8 4.8 6.5.3 12.8-.3c3.6-.4 7.6.4 11-1.4 2.1-1.3 4-3.4 6-4.9l3.3-2c1.3-1 2.6-2.3 4.3-2.2 5 1.9 6.3 13.6 12.7 14.4 3.7.2 6-3.7 9.3-4.4 3-.7 6.3-.1 9.4 0" class="b"/><path d="M10.7 83.2c3.3-.7 7-1.5 10.2-.2 4.7 1.5 8 8.3 12.7 7.8 5.2-1 6.6-8.1 11-10.8 3-2 7-2.2 10.2-.7 5 2.1 7.5 7.8 12.8 9.4 3.5.8 6.6-2.1 10.1-1.9 5.2.5 6.6 3.5 12-.2 2.6-1.9 6-4.1 9.3-2.5 1.7 1 3.1 2.8 5 3.5 2.4 1 5.2.8 7.7.7q3.8-.2 7.6-.2c3.5 0 6.9-1 10.2-1.8 4-.5 6.8 0 10.2-2.9 1.7-1.4 4-2.3 6-3.3 1.4-.8 3.3-2 5-1.2 4.9 3.2 6 11.7 11.9 13.6 3.6.8 6.1-2.8 9.3-3.6 3-.9 6.3-.5 9.4-.7" class="b"/><path d="M10.7 80.6C15 79 19.6 78 23.5 81c2.9 2 4.7 5.5 7.6 7.5 5.6 3 8-6.7 11-9.7C45 75.5 50 75 54 75.8c5.5 1 8 6.8 12.7 9.3 3 1.5 6.3-.6 9.4-.8 6.2-.1 7.2 4 13.5-.8 2.8-2 6.5-3 9.4-.6 2.5 2.5 4.8 3.6 8.5 3.2 3.9-.3 7.9-1 11.8-.7 3.3 0 6.5-1.3 9.4-2.6a13 13 0 0 1 6.8-1.3c2.4.2 4.6-1.4 6.7-2.3 1-.4 2.4-.7 3.4-1q2.2-1 4.3-.6c5.9 2.3 7.6 12.9 14.4 13.4 2.8 0 5-2 7.6-2.7 3-1 6.3-.9 9.4-1.3" class="b"/><path d="M10.7 77.7c4.4-2 9.6-3.7 13.6 0q2.4 2.3 4.2 5c1.4 2 3.1 5.2 6 4.6 3.9-2 4.7-8.8 8.5-11.5q2.7-1.7 6-1.8 2.4-.2 5-.2c5.2 0 8 5 11.9 7.7 2.5 1.9 5.7.9 8.5.5q3.4-.3 6.8.8c2 .7 4.2-.1 5.9-1.4 2.8-2.2 5.8-4 9.3-2 1.8 1 3.1 3 5.1 3.7 2.2.8 4.6.3 6.8 0q3.8-.9 7.7-1h4.2q3-.3 6-1.7c2.6-1.2 5.2-3.8 8.4-3.2q1.6.3 3.4.5 1.3-.1 2.6-.5c5.6-1.5 9.3-2.2 13.5 2.7 3.4 3.3 5.8 9 11 9.3 2.1 0 4-1 6-1.5 3.3-1 6.8-1.3 10.2-2" class="b"/><path d="M10.7 74.6c4.5-2.3 10.3-4.9 14.5-.7q2.4 2.4 4.2 5.6c1.4 2.2 2.8 6.1 6 5.8 1-.5 2-2 2.5-3 1.5-2.5 2.6-5.8 5-7.8q2.4-1.4 5.2-1.4l5-.6c8.2-1.2 9.6 6.8 16.2 7.6 2.8 0 5.7-.6 8.5-.2 1.6.1 3.4.5 5 .1 3.5-1.3 6-6.2 10.2-4.3 2 .6 3.5 2.1 5.1 3.3 2.3 1.5 5.1 1.2 7.7.7q3.7-.7 7.6-1.2 3.4-.2 6.8 0 3.6-.3 6.8-2c2.4-1 4.8-3.4 7.6-2.8q1.8.3 3.4 1c1.6.4 3.5.1 5.1 0q2.6-.3 5 .3c4.8 1.3 7.8 5.5 11.1 8.7 3.9 3.9 6.8 4 11.9 2.6 3.4-.7 6.9-1 10.2-2" class="b"/><path d="M10.7 71c3.6-1.9 7.8-3.8 11.9-3 3.1.8 5.2 3.7 6.8 6.3 1.9 2.8 3 6.8 6 8.6h.8c2.1-1.2 3-4.2 4.2-6.2 2.5-4.8 5.4-5 10.2-5.5 6-1 8.1-.7 12.7 3.2 1.5 1.2 3.2 2.5 5.1 3q3.4.4 6.8.2c2 0 4 .2 6-.3 2-.7 3.4-2.5 5-3.8 3.6-3 6.9 1.1 10.2 2.3 4.2 1.3 8.6-.2 12.8-1q4.6-.8 9.3 0 3.9.5 7.6-.8 3-1 6-2.4 2.1-.8 4.2.1c1.6.7 3.3 1.6 5 1.6 15.4 0 16 11.8 26.4 11.7 4.5-.5 9.2-.5 13.6-2" class="b"/><path d="M10.7 68q5.4-1.8 11-2.4c4.9-.7 7.3 3 9.4 6.8 1.5 2.5 2.6 5.9 5 7.7h1c1-.5 1.9-2 2.5-3 1.2-2 2.4-4.4 4.2-6 2-1.4 4.5-1.8 6.8-2.2 2.5-.3 5.2-.7 7.6 0 2.2.5 4.1 2 6 3.2q4.6 3.2 10.2 3c9.8.7 9-6.8 15.2-4.1 6.2 4.1 11.4 1.3 17.9-.1 9.7-2.5 12.3 3.3 22.9-.2 5.6-2.1 6-.1 11 1.5 3.7.8 7.6 1.3 11 3 4.1 2 7.5 5.6 11.9 7q3.7.9 7.6.7c3.2 0 6.4.1 9.4-1" class="b"/><path d="M10.7 66.2c3.4-.7 6.9-1 10.2-1.7 4.9-1.1 7.6-.7 10.2 3.9l3.4 5.6c.6 1 1.4 2.6 2.5 3.2h.9c2.6-1.5 3.6-5 6-7.1 3.6-3.6 9.4-4.4 14.3-3.6 2.8.6 5.2 2.2 7.7 3.5q4 2.1 8.5 2.3c7.4.5 9-5.8 14.4-1.9q1.6.7 3.4.5a16 16 0 0 0 5-.7c5.5-2 11.2-4.9 17-3.5 4.5 1.3 8.9 3.5 13.6 3.1 2.3 0 4.6-.8 6.8-1 2.8 0 5.1 2 7.7 2.8 3 .9 6.3 1.4 9.3 2.5 3.5 1.2 6.7 3.2 10.2 4.6q3.7 1.3 7.6 1.9c3.9.6 8.1 1.7 11.9 0" class="b"/><path d="M10.7 64.9q4.3-.3 8.5-1l6-1.5c3.2-.8 5.3 1.8 6.7 4.2l4.3 6.4c1.7 2.7 3.3 2 5-.1q2-2.6 4.3-4.7c3.8-3.5 9.4-4.7 14.4-3.4 3 .6 5.7 2.3 8.5 3.3 3 1 6.2 1.7 9.4 1.3q2.5-.4 5-1c2 0 3.3 2 5.1 1.8 1.5-.1 3-.9 4.3-1.4q1.6-.5 3.4-1.2c3.8-1.7 7.6-3.8 11.9-4.6 3.5-.7 7 .5 10.1 2.2 2.7 1.3 5.6 2.6 8.5 3.1 3.1.7 6.3-.3 9.3-.2 2.1.3 4.1 1.4 6 2.3q2 .9 4.2 1.3 7.3 1.6 14.5 3.9 4.2 1 8.5 2c4 1 8.4 3.4 12.7 1.8" class="b"/><path d="M10.7 63.6q4.7.2 9.4-.8 2.6-.8 5-2c3.2-1.3 5.1.4 6.8 2.9q2.2 3 4.3 6.2c1.1 1.8 2.7 4 5 2.5q3.2-2.5 6-5.2c8.7-7.3 16.1-3.4 25.5-.2q2 .6 4.2.8c1.4.2 3 0 4.2.4q1.5.6 2.6 1.4 1.2 1 2.5.5c2.2-1 3.9-3 6-4.1 4-1.7 7.8-4 11.9-5.4 7.8-2.7 11.4 1.6 17.8 4.8 3 1.6 6.7 2.5 10.2 2q2.5-.6 5 .1c2 .7 4 2 6 2.5q7.1 1.7 14.4 2.7 4.7.4 9.3 1.3c5 .8 9.3 4.8 14.5 3.6" class="b"/><path d="M10.7 62.1q4.3.4 8.5-.2 2.8-.6 5.1-2.2c1.3-.7 2.8-1.5 4.2-1.2 2.8.8 5.2 4.7 6.8 7 1.5 2 2.6 5 5.1 6 3.3.6 6.7-3.3 9.4-5 7.2-5.4 15-4.6 22.9-.7 2.1 1 4.5 1.5 6.7 2.4 1.2.5 2.4 1.5 3.4 2.1 2.2.5 3.7-2 5.1-3.3q2-2 4.3-3.3c4.3-1.8 8.2-4.7 12.7-6 7.6-2.3 11.8 4 17.8 7 2.3 1.2 5 2 7.7 1.6q2.5-.5 5-.4c2.1.3 4 1.6 6 2.3q3 .8 6 1 5 .8 10.1.9 5.2-.1 10.2.6c4.7 1 8.6 5 13.6 4.6" class="b"/><path d="M10.7 60.5c2.8.3 5.7.6 8.5.1 1.9-.3 3.6-1.4 5.1-2.5 1.2-.9 2.7-1.8 4.2-1.6 2.9 1 5.1 3.8 6.8 6.1 2.1 2.8 3.7 7.3 7.7 7.8 4-.1 7.5-2.9 11-4.5 5.5-3 12.4-3.8 17.8-.4q3.4 1.7 6.8 3c1.2.6 2.2 1.9 3.4 2.5 2.3.4 3.7-2.4 5-3.7q2.4-2.6 5.2-4.5c4.3-2.3 8-6 12.7-7.3 7.3-2.1 11.5 4.9 17 8q3.6 2.2 7.6 1.5c1.7-.2 3.4-.7 5.1-.6 1.8 0 3.5 1 5.1 1.7q3 .7 6 .7 5.9.4 11.8 0c4.6-.2 9.3-.3 13.6 1.4 3.3 1.5 6.5 3.7 10.2 4" class="b"/><path d="M10.7 58.8c2.8.5 5.7 1 8.5.3 3.2-.7 5.2-4.4 8.5-4.5 3.6.8 6.4 3.7 8.5 6.6 1.9 2.6 3.7 5.8 6.8 7.3 4.8 1.7 9.9-.7 14.4-2.2 3.5-1.2 7.3-2.5 11-1.7q2.2.7 4.3 1.6c1.7.6 3.7 1.1 5 2.4 1.2.9 2.1 2.4 3.5 3 2.4.2 3.6-3 5-4.5q2.2-2.8 5.1-5 2.7-1.8 5.1-3.7c2.4-1.8 4.8-3.9 7.7-4.9 4-1.5 8.2 1 11 3.8 4.6 4.7 8.2 8.6 15.3 6.1 1.8-.5 4-1.2 6-.4q1.6.8 3.3 1 5.6 0 11-.5c6.5-.6 13.3-1.3 19.6 1 3.6 1.2 7.1 3.1 11 3.9" class="b"/><path d="M10.7 57.4c2.8.7 5.8 1 8.5-.1 3-1.4 5.6-5.6 9.3-4C38.3 56.6 38 66.7 49 67.8a28 28 0 0 0 12.7-1.4c2.2-.6 4.5-1.3 6.8-1.2 2.4.2 4.9.5 6.8 1.9l2.6 2c1.1 1.3 2.6 2.6 4.2 1.2 1.7-1.6 2.8-4 4.3-6 1.8-2.7 4.9-4.3 7.6-6 4.4-2.9 8.6-8.8 14.4-7 8.9 3.5 10.4 16.6 22 10.6 5.2-2.5 4.8 0 9.4-.6q4.3-.7 8.5-1.1 4.6-.8 9.3-1.1 6-.1 12 1.7 5.6 2.4 11.8 3.5" class="b"/><path d="M10.7 56.1c2.8 1 6 .5 8.5-1 1.5-.8 2.8-2.2 4.3-3 2.1-1.2 4.6-.2 6.7.5 2.6 1 4.9 2.9 6.8 4.8 1.4 1.4 2.8 3.2 4.3 4.4 3 2.9 7.1 3.8 11 4.8 5.6 1.3 9.2-.4 14.4-1.7q3-.7 6 .5 2.3 1 4.2 2.4c2 1.8 3.4 2.2 5.1 0 2.4-3.4 3.7-8 7.6-9.8q2.2-1 4.3-2.2c4.5-2.8 9.4-9.5 15.2-5.8 3.2 2 5.4 5.2 7.7 8 2.5 3.5 5.8 6 10.2 4.2 2.3-.8 4.3-2.7 6.8-3.3q1.7.2 3.3.2 2.6-.5 5.1-1.3l9.4-1.6q6.3-1.3 12.7 0 2.7.6 5 1.3l4.3 2c2.5.7 5.2.6 7.7.9" class="b"/><path d="M10.7 55c4.5 1.2 8.3-2.2 11.9-4.2q2.6-.9 5-.1 2.8.5 5.2 1.9 2.8 1.3 5 3.2c1.7 1.5 3.3 3.3 5.2 4.6 3.4 2.5 7.8 3.3 11.8 4.3 4 .8 8-.4 12-1q3-.3 5.9.6c5.2 1.2 6.5 5.8 10.1-1 1.7-3 3.2-7 6.8-8.2q2.8-.6 5.1-2.2c5.3-3.7 10-9.3 16.1-3.3 2.3 2.1 4.1 5 6 7.4 2.1 3.1 5.3 6.3 9.3 4.6 2.5-1 4.4-3.1 6.8-4.2 1-.4 2.3 0 3.4-.3 2-.3 4-1.3 6-1.9Q148 54 154 53c5.1-.5 10.3.5 15.3 1.8 6.1 3 4.6 2.9 11.9 2.2" class="b"/><path d="M10.7 53.6c2.1.3 4.2-.6 6-1.6 2.9-1.5 6-3.4 9.3-2.6q3 .5 6 1.8c2.6.8 5.4 1.7 7.6 3.4 1.9 1.5 3.7 3.4 6 4.6q5.1 2.4 11 3c4.7.6 9.6-.7 14.4-.1q3.6.2 6.8 2c4.5 1.7 6.2-8.3 9.3-10.4a9 9 0 0 1 4.2-1.6q1.9-.4 3.4-1.4c5.5-3.5 10-8.5 16.1-2.7 2.7 2.5 4.6 5.9 6.8 8.7 2 2.8 5 5.1 8.5 3.4 2.5-1 4.4-3.3 6.8-4.4 1-.3 2.3-.1 3.4-.4 2-.5 4-1.5 6-2.1 4.4-1 9-2.4 13.5-2.3q6.8.7 13.6 1.7c6 2.5 4.8 3.4 11.9 1.6" class="b"/><path d="M10.7 51.9c2.8-.1 5-2 7.7-2.8 4.2-1.9 8.6-.6 12.7 1q3 .7 6 1.3c2.9.6 5.2 2.7 7.6 4.4 4.2 2.7 9.4 3.6 14.4 4 4.5.1 9-.4 13.6.1q2.3.1 4.2 1c2.2 1.4 3.9 0 5.1-1.8 2.2-3 3.1-7.6 6.8-9 2-.6 4.2-.7 6-1.7 5.1-2.8 9.4-7.1 15.2-2.7 2.7 2.2 4.6 5.3 6.8 8 1.8 2.4 4.3 5.4 7.6 4.8 3-.5 5.2-2.7 7.7-4.2 1.5-.8 3.4-.5 5-1q3-1 6-2c3.3-.7 6.8-1.7 10.2-1.6 2.5 0 5 .9 7.6 1q4.3-.2 8.5.1c5.7 1.8 5.3 3.4 11.9 1.2" class="b"/><path d="M10.7 49.7C14.1 49 17.4 47 21 47c3.9-.3 7.4 1.4 11 2.5 2.2.5 4.6.5 6.8 1 3.2.3 5.6 2.7 8.5 4 4.5 2 9.5 2.6 14.4 2.7q6.5-.2 12.8.4c1.4.1 2.8 1 4.2 1.3 2.6-.3 3.9-3.2 5.1-5.1 1.5-2.5 3-5.7 6-6.5q3.5-.6 6.7-2c4-2.1 7.4-4.1 12-2 6.8 3 10.2 16.2 19.4 11.3 2-.9 3.8-2.4 6-2.8l4.2-.5c3.4-.7 6.8-1.9 10.2-2.3q3-.4 6 .3c1.9.4 3.9 1.1 5.9 1 2.5-.2 5-1 7.6-1.1 5.7-.4 6.4 3.2 13.6 1" class="b"/><path d="M10.7 47.3c2.6-.2 5.1-1.2 7.7-1.5 4.7-.7 9.1 1.3 13.5 2.6 3.6 1 7.6.2 11 1.5 1.7.8 3.4 1.9 5.2 2.4q6.6 2.3 13.5 2.3c4.5.1 9.2 0 13.6.9 3.5 1 4.2 1.7 6.8-1.4 3.7-5 4.3-8.5 11-9.8 3.7-1 7.1-3.5 11-3.3 8.2-.1 11.4 9.4 18.7 11.1 4 .9 7.5-1.4 11-2.3 3.7-.4 7.5-.5 11.1-1.4q3.9-.7 7.6.2c2.8.8 5.7 2 8.5.9 12-4.9 10.5.3 20.4-1" class="b"/><path d="M10.7 45.3c2.9-.1 5.7-1 8.5-1 4.7 0 9 2 13.6 3 3 .6 6.2.2 9.3.6q2.3.5 4.3 1.6l3.4 1.1c6.3 1.9 13 1.3 19.5 1.7q3 .3 6 1c1 .4 2.2 1 3.3 1 4-1.1 5.9-7 9.3-9.5 2.5-1.9 5.6-2.7 8.5-3.7 2.7-1 5.6-2 8.5-1.5 4 .4 7.2 2.8 10.2 5.2 3.4 2.5 7.6 4.2 11.9 4.2q3.3-.2 6.8-1 3.3-.4 6.7-.4c6-.7 7.6-1.1 13.6 1.1 6.5 2.4 8.9-4.6 17.8-3 3.1.6 6.3 1.2 9.4 1" class="b"/><path d="M10.7 43.4c2.8 0 5.7-.5 8.5-.4 4.7.2 9 2 13.6 2.8 3.4.7 6.8 0 10.2.3 1.4.2 2.8 1.1 4.2 1.6q3 .9 6 1.4c5.5 1 11.3 0 17 1q2.5.3 5 1.3c2.3 1 4 1.1 6-.6 2.9-2.7 5-6.3 8.4-8.4q3.2-2.2 6.8-3.3 5.1-1.9 10.2-.5c4 .9 7.3 3.4 11 4.8 4 1.2 7.9 2.6 12 3 2.4.3 5-.2 7.6-.2q2.5 0 5-.3 2.6-.5 5.1-.3c2.6.4 5 1.7 7.7 2 3.1.4 5.7-2.1 8.5-3.2 3.2-1.4 6.8-.8 10.1-.2q3.8.6 7.7.4" class="b"/><path d="M10.7 41.6c3.1.2 6.3-.4 9.4 0 4.2.6 8.4 2 12.7 2.6q3.4.4 6.8 0 1.6-.1 3.4-.1c1 0 2.3.6 3.4 1q5.7 1.9 11.8 2c4 .2 8-.3 12 .6 2.2.4 4.5 1.5 6.7 2.3 4.5.8 7.9-5.1 11-7.6a19 19 0 0 1 21.2-4.4q3.4 1.2 6.8 2.3 3.6.7 6.8 1.7c4.4 1.6 8.8 3.8 13.6 3.3a30 30 0 0 0 5-.5c1.7-.3 3.5-.8 5.2-.7 4.9.6 8 2.8 12.7-.3 5.3-3.2 7.8-2.7 13.6-1.3q4.3.7 8.5.1" class="b"/><path d="M10.7 39.8c3.1.2 6.3-.2 9.4.3 3.9.8 7.8 2 11.8 2.4q2.6.4 5.1.1l5.1-.8c1.7 0 3.4.8 5.1 1q5.4 1.6 11 1.8c4 .1 8-.5 12 .6 2.2.5 4.4 1.8 6.7 2.5 5.6 1 10.7-7.5 15.3-10.3 6.4-4.7 13.6-2 20.3.3 3.3 1.2 7 .8 10.2 2.1 4 1.5 7.5 4.6 11.9 5a18 18 0 0 0 6.8-.8c1.6-.5 3.3-1.2 5-1.2 2.6 0 5.2.5 7.7 0 2.4-.5 4.6-1.9 6.8-2.8 6.1-2.4 9 1.6 14.4 1.6q3-.2 6-1" class="b"/><path d="M10.7 37.7q4.3 0 8.5.4c4 1 7.8 2.5 11.9 2.7 3.4.4 6.8-.6 10.2-1.3q3 0 6 .6c3.5.8 7.2 1.6 11 1.6 3.6.1 7.4-.7 11 .3 2.7.5 5 2.2 7.6 3 3.7 1 7-1.7 9.3-4.1S91 36 94 34.3c3.3-1.7 7.4-1.5 11-.5 3.7 1 7.2 2.8 11 3.4 2 .3 4.1.2 6 .9 5.1 1.8 9.4 6.7 15.2 5.7 3.9-.4 7.2-2.8 11-3q3.5-.2 6.9-1.2c2.2-.7 4.4-1.8 6.8-2 2.2-.4 4.7.1 6.7 1 2.1 1 4.4 2.3 6.8 2 2-.4 4-1.4 6-1.8" class="b"/><path d="M10.7 35.5q4.3-.2 8.5.7c2.3.6 4.5 1.7 6.8 2.2q3.8 1 7.6.4c2.3-.3 4.6-1.2 6.8-1.6q4.3-.2 8.5.3c3.7.5 7.4 1 11 .6 3.4-.3 7-1.3 10.2 0 2.8.7 5 2.9 7.7 4 3.4 1.6 6.2-.7 8.5-3 2.4-2.3 4.7-5 7.6-6.9 3.4-1.7 7.5-1.1 11 0 3.5 1 6.7 3 10.2 3.8 2 .6 4 .4 6 .9 7.5 2.5 9.7 7.2 18.6 3.8l5.1-1.8q3.4-.7 6.8-1.2c3.4-.7 6.7-2 10.2-1.8q3.6.2 6.8 2c2 1 4.4 2.3 6.8 1.4 2-.7 3.8-1.9 5.9-2.2" class="b"/><path d="M10.7 33.6q3.9-.4 7.7.3c2 .5 4 1.5 5.9 2q3.3 1 6.8.8c2.9-.2 5.6-1.4 8.5-2l7.6-.3c3.4 0 6.8.4 10.2 0 2.9-.3 5.7-1.4 8.5-2q2.7-.2 5 .9c4.6 1.8 8.3 10.2 13.7 5.5 3.3-2.6 5.7-6.3 9.3-8.6 5.3-2.4 11.3.2 16.1 2.8q2.9 1.6 6 2.4c1.6.4 3.4.3 5 .7 3.2.9 6.1 2.8 9.4 3.4 5.4.7 10-3.1 15.2-3.8 5-.7 10.2-1.7 15.3-1.1q3.6.5 6.8 2.3c2.3 1.2 5 2.4 7.6 1.1 2-.8 3.9-2 6-2.2" class="b"/><path d="M10.7 31.8q4.3-.6 8.5.1c2.8.9 5.6 2 8.5 2.2 3.2.3 6.3-.8 9.3-1.6q1.7-.3 3.4-.2 1.8 0 3.4-.4c8.8-1 11.6.3 20.4-3.7 4.5-2.1 8.2.1 11 3.7 1.8 2 3.3 4.9 6 6 3.9 1 8.1-5.8 11-8 3-3.3 8-2.6 11.9-1.2 4.3 1.6 8 5 12.7 6q2.1.2 4.2.6l6 1.8c6 1.7 11.3-2.8 17-4.1q7-1.5 14.4-.1 4 .7 7.6 2.4c2.6 1.1 5.6 2.8 8.5 1.8 2.2-.8 4.4-2.1 6.8-2.5" class="b"/><path d="M10.7 30.2q4.3-.6 8.5-.4c2.8.4 5.6 1.3 8.5 1.3 2.9.1 5.7-1 8.5-1.3h3.4q2.6-.2 5-.8c5.2-.9 10.6-.4 15.3-2.7 2.3-1 4.5-2.5 6.8-3.2 6.7-1.5 9.4 6.4 12.8 10.6 5.1 6.9 10.7-4.8 15.2-7 3-1.4 6.5-.6 9.4.6 5.7 2.4 9.4 6.4 16 6.6q3.4.9 6.9 1.5c6 .7 11.3-3.4 17-5 4.1-1.1 8.5-.6 12.7.5q4.7 1.3 9.3 3.2c2.2.8 4.4 2 6.8 2 3-.1 5.6-1.9 8.5-2.6" class="b"/><path d="M10.7 28.8q4.6-.9 9.4-1 6.4.3 12.7-.4c1.6-.3 3.4 0 5 0 2 .1 4.1-.5 6-1 5.3-1.3 11.2-.1 16.1-2.8 2.6-1.3 5-3 7.7-3.9 7-1.6 9.3 7.6 12.7 11.9C83.5 36 87.6 33 90.5 30c2.2-2 4.3-5 7.6-5 5.4-.3 9.9 3.2 14.5 5.4q2 1 4.2 1.5 2.6.3 5 .8c8.8 2.3 14.3-1.1 22.1-4 3.9-1.5 8.1-1 12 .3 5.3 1.7 10.6 3.8 16 5.3 3.2.7 6.4-.6 9.4-1.7" class="b"/><path d="M10.7 27.6q4.6-1.1 9.4-2 4.6-.5 9.3-.7 3.3 0 6.8.3c2.6 0 5.1-1 7.6-1.7 5.7-1.4 10.3 1 16.1-2 2.9-1.3 5.5-3.3 8.5-4.1 7-2 9.2 7.8 12.7 11.9 3.2 3.8 6.8 3.1 10.2 0 1.7-1.3 3.2-3.2 5.1-4.1 3.9-1.8 8.2 0 11.9 1.5 2.5 1 5 2.3 7.6 2.9q3.5.6 6.8 1.1c7.8 1.7 15-.4 22-3.6 3.6-1.5 7.6-1 11.1.2q6 2 11.9 3.5c5 1.7 8.3 2.8 13.6.7" class="b"/><path d="M10.7 26.6a48 48 0 0 1 23-3.6c4.3-.2 8.3-2.5 12.7-2.7 6 .3 9.4 1.5 15.2-1.4 3-1.4 6-3.5 9.4-3.5 5.5.4 7.5 7.8 11 11.3 2.8 3 6.3 4.9 10.2 2.3 1.4-.9 2.8-2.2 4.2-3q4-2.4 8.5-1.5c4.8.9 9.5 2.8 14.4 3.1 5.6 1 11.3 2.2 17 1.5 3.3-.4 6.3-2 9.3-3.2 3.3-1.4 7-1.2 10.2-.1 4.4 1.4 9 2.2 13.6 3.2 3.8 1.1 7.9 2.4 11.9 1.2" class="b"/><path d="M10.7 25.5c4.9-2.2 10-4.4 15.3-4.8 2.2-.3 4.6 0 6.8-.1 5-.7 10-2.8 15.3-2.5a27 27 0 0 0 15.2-1.7c11.7-5.9 12.2.2 19.5 7.5 2.8 2.8 6.9 6.4 11 4.4 2.6-1.3 5-3.1 7.7-4 4.1-1.3 8.5-.6 12.7-.1q3.8.4 7.7 1 5.5 1 11 2.2 4.8.6 9.3-1.3c2.8-1 5.5-2.5 8.5-2.5 2.9 0 5.8 1 8.5 1.6q4.3 1 8.5 1.8c4.5.7 9 2.2 13.6 1.4" class="b"/><path d="M10.7 23.6c6.1-2.9 12.6-6.2 19.5-5.2 2.3.1 4.6-.6 6.8-1q4.7-.9 9.4-1.3c6 0 12.1.4 17.8-1.8 5-2 9.4-2.8 13.6 1.5Q81 19 84.6 22c5.2 4.6 8.5 7.9 15.2 3.5 3.1-2 6.5-3.6 10.2-4 6.9-.5 13.7 1 20.4 2.4q6.4 2.4 12.7 0c6.8-2.8 10.2-1.5 17 0q6.3 1.6 12.7 2.6c2.8.5 5.7.9 8.5.4" class="b"/><path d="M10.7 21.1c4.7-2.1 9.2-4.9 14.5-5.3 2-.2 4 .5 5.9.3 1.7 0 3.4-.6 5-.9l6-.6q5.6-.6 11-1 4.4-.1 8.5-.8c4.2-.8 8.5-3 12.8-1.5q3.2 1.7 6 4 3.4 2.5 6.7 5.5c4.4 3.9 8.7 7.8 14.4 3.6 2.7-1.8 5.4-4 8.5-5 6.7-1.7 13.7.7 20.4 1.6q2.5.8 5 1.1 3.5.4 6.9-.6c7.2-1.8 10.8-.4 17.8 1 4.5 1 9 2.2 13.6 2.6 2.5.3 5 .8 7.6.5" class="b"/><path d="M10.7 18.4c4.5-2.4 9.2-5.2 14.5-5.2q3.4.6 6.7.3 4.3-1 8.5-1.1 4.7-.4 9.4-.9 5-.7 10.1-1c4.6-.4 9-2.9 13.6-2.1 2.6.5 4.8 2.3 6.8 3.9 3 2 6 4 8.5 6.5 4 3.6 8.2 8.2 13.6 4.2 3-2 5.7-5 9.3-6 4.2-1.1 8.6.1 12.7 1 2.5.5 5.2.4 7.7.7 5.6 1.1 11.3-.4 17 .4l14.4 2.6q5.4 1.4 11 1.8 3.4.6 6.8.4" class="b"/></svg>