<svg xmlns="http://www.w3.org/2000/svg" id="a" width="1920" height="2400" viewBox="0 0 192 240"><defs><style>.b{fill:none;stroke:#fff;stroke-miterlimit:10;stroke-width:.3px}</style></defs><path d="M0 0h192v240H0z" style="stroke-width:0"/><path d="M10.7 218.7c3-.1 6.2.5 9.3.8q4.3.2 8.5 0c4.8.3 9.7 1.1 14.4 0 4.5-1 7.9 2.9 12 3.9 3.8 1 7.4-1.5 11-2.5 2.5-.7 5.2-1 7.6-2.2 2.9-1.1 5.5-3.2 8.5-4 3.3-.8 6.5 1.2 9.3 2.7 6 3 9.4 9.3 15.3 12.3 9.3 4.5 14-4.2 22-2.6q3.5.8 6.9 2c2.2.8 4.2 2.9 6.8 2.7 1.6-.2 3-1.6 4.2-2.7l4.3-4.5q3.1-3.1 6.8-5.8 3.4-2.9 7.6-4.3c5.2-1.7 10.8.3 16.1-1" class="b"/><path d="M10.7 218.6c3.4 0 6.8.4 10.2.4 2.8 0 5.6-.7 8.5-.6 2.8.1 5.6.9 8.4 1q3-.2 6-.6c4.9-.7 8.8 3.5 13.6 3.5 3.1-.2 5.7-2.3 8.5-3.5q2.9-1.2 5.9-2.2l6.8-2.9c1.8-.9 3.8-1.8 6-1.7 3.5.2 7 1.9 10.1 3.6 4.7 3 8.6 7.3 13.6 10 9 5 13-2.1 21.2-.6q3 .5 6 1.1 2.2.9 4.2 2c5 2.5 8.6-2.7 12-5.5q5.8-5.3 12.7-9.2c5.2-2.4 11.3-2.4 17-2.8" class="b"/><path d="M10.7 218.5q3.3 0 6.8.2 3.8.3 7.6-.5a19 19 0 0 1 6.8-.5c2.2.3 4.5 1 6.8 1s4.5-.6 6.8-.6c3.6-.2 6.8 1.8 10.2 2.7 3.6 1 6.5-2 9.3-3.8q3.6-2.1 7.6-3.3c8.2-2.6 10.9-4.7 19.6-1.6 5.3 1.9 9.7 5.5 14.4 8.4 3.8 2.4 8.1 5.2 12.7 3.8 2.8-.7 5.6-1.9 8.5-1.8l4.3.3q2.6-.1 5 .6c7.8 3.5 8.4 4.3 15.3-1.6q6-5 12.8-8.8c5-2.3 10.5-4 16.1-3.7" class="b"/><path d="m10.7 218.3 6 .1q2.4.3 5 .3c2.9-.2 5.7-1.2 8.5-1.5 4.2-.4 8.5 1.2 12.7.4 8.7-1.7 11.2 3 16.2 1.5 2.2-.9 4-2.9 5.9-4.4 2.9-2.4 6.6-3.4 10.2-4.1q3.7-.9 7.6-1c7 .3 13.6 2.6 19.6 6l7.6 4c2.8 1.7 6 3.4 9.3 2.4 2.6-.5 5-1.5 7.7-1.8l5-.4c1.1 0 2.4-.4 3.5-.4 5.7-.4 9.5 8.5 15.2 4.5q3-2.1 6-4.4 4.9-3.5 10.2-6.3c4.5-2.2 9.3-4.4 14.4-4" class="b"/><path d="m10.7 217.6 6 .3q4.1.4 8.4.6c3.2-.1 6.2-1.3 9.3-1.5 2.3-.1 4.6.2 6.8 0 2.5-.1 5.1-.6 7.7-.5 3.1.1 6.2 2.2 9.3 1.4 3.5-1.3 5.4-5 8.5-7 5-3 13-2.8 18.7-1.6q6 1 11.9 3.1 5.4 2.3 11 4.2c3.6 1.3 7 4.3 11 3.2q3-.8 6-1.7 3-.6 6-1.1c2.2-.4 4.4-1.9 6.7-1.2 4.7 1.3 7.7 10.8 12.8 9.3 2.5-1 4.5-3.4 6.7-5q3.7-2.4 7.7-4.4c5-3 10.2-6.3 16.1-6.4" class="b"/><path d="M10.7 216.2c3.4.4 6.8.5 10.2 1.2 2.5.6 5 1.7 7.6 1.5 3.2-.2 6.2-1.7 9.3-2q5.6-.7 11-.8c2.4 0 4.6.8 6.9.9 9.4-1 5-15.3 29.7-8.3q8.5 2.2 17 5c2.4.8 5 1 7.6 1.7s5 2.3 7.7 2.1q3.8-.5 7.6-1.7 3.4-.8 6.8-2c1.6-.6 3.3-1.8 5-1.9 3.8.5 5.6 5.3 7.7 8 5.7 9 6.8 6 13.6.4 2.6-2 5.9-2.9 8.5-4.7 4.5-2.7 9-5.8 14.4-6.4" class="b"/><path d="M10.7 214.1q4.2.5 8.5 1.5c2.3.7 4.6 2 6.8 3 4 2.2 7.8.5 11.8-.7q4.3-1.3 8.5-1.7 3.5-.2 6.8.2c11.8 0 4.9-17.8 32.3-8.4 6.2 1.8 12.3 4 18.7 5.2 1.9.5 4 .3 6 .3q2.5.3 5 1.1c2.8.6 5.8-.2 8.5-.8q4.4-1 8.5-2.8c1.8-.8 3.8-2.4 6-1.8 1.8.7 3 2.8 4.2 4.4l3.4 5.4c1.8 2.8 4.6 8.4 8.5 5.2 1.7-1.4 3.3-3.3 5-4.6q2-1.4 4.3-2.1 2.2-1 4.3-2.4c4.3-2.5 8.5-5.9 13.5-6.8" class="b"/><path d="M10.7 211.8c13.6 1.3 15 9 22.9 8.2 4-.4 8-1.8 11.9-2.6 2.2-.4 4.6-.2 6.8-.3 7.2-.7 8.2-11 15.3-12.2 6-1.4 12 .4 17.8 2.3 6.4 1.9 12.8 4.5 19.5 5 2.3.2 4.5-.7 6.8-.7q2.6.1 5.1.4 3.9 0 7.6-.8c3.3-.6 6.4-2 9.4-3.4 3.6-1.7 5.7.2 7.6 3.1q2.2 3 4.3 6c2 2.5 4.5 8.3 8.5 6.4 1.8-1.1 3.4-3 5-4.3q2.4-1.8 5.1-2.7 2.7-1.4 5.1-3c3.8-2.4 7.4-5.5 12-6.4" class="b"/><path d="M10.7 209.5c12.6 1 14.2 8.6 22.9 9.9q6 .6 11.9-.4c2.2-.3 4.6-.3 6.8-1 4.5-1.7 6.3-6.7 9.3-10 2.5-3.1 6.5-4 10.2-4.3 5-.2 9.7 1.6 14.4 2.8l8.5 2.3c3.6 1.1 7.3 2.2 11 1.8 2.3-.3 4.6-1.2 6.9-1.5 3-.3 6.2 0 9.3-.3q4-.2 7.6-1.6c2.7-1 6-2.2 8.5-.4 2 1.6 3.4 4 5.1 6l5.1 5c2 2.2 4.7 4.8 7.7 2.8 2-1.3 3.8-3.1 5.9-4.2q3.6-1.4 6.8-3.4c4.2-2.3 7.8-6.2 12.7-7.2" class="b"/><path d="M10.7 207.3c9.9.6 11 4 18.7 8.1 2.6 1.4 5.6 2 8.4 2.7 4.7 1.3 10 2.6 14.5.2 4.1-2.5 6-7.4 9.3-10.8 3.2-3.5 8.2-4.7 12.7-4.3 4.3.5 8.5 1.8 12.8 2.4 13 1.8 11.1 5 25.5 1.5 4.1-.8 8.5-.5 12.7-1 4.4-.4 9.1-2.6 12.7 1.2 1.4 1.3 2.7 3 4.3 4.1s3.5 1.8 5 2.8c2.7 1.5 5.2 4.5 8.6 3.8 2-.5 4-1.8 6-2.6q2-.8 4.2-1.6l3.4-1.8c4-2.2 7.2-6 11.9-7" class="b"/><path d="M10.7 205.5q7.3 0 13.6 4c3 2 6.7 3 10.1 4l7.7 3c3.4 1.6 7.7 3 11 .5 3.8-3 5.8-7.6 9.4-10.6 4.4-4 10.6-4.2 16.1-3q5 1 10.2 1.2 6 .9 11.9 1.2 7.6 0 15.3-.9l9.3-.4c3.1-.1 6.5-.5 9.3.9 1.9.9 3.5 2.5 5.1 3.6 2 1.5 4.5 1.4 6.8 1.7q3.1.8 6 2.5c3 1.8 6 1.5 9.3.7 2.6-.5 5.3-1 7.6-2.4 4.2-2 7.3-6.1 12-7.2" class="b"/><path d="M10.7 204.3c4.7-.2 9.2 1.5 13.6 3 2.4.8 5 .6 7.6 1 3 .5 5.7 2 8.5 3.2 4.4 1.8 9.9 6 14.4 2.2 5.4-4.7 8-10.3 16.2-11 3-.4 6.2.4 9.3.6H93c3.1-.1 6.3-.8 9.4-.8 4 0 7.9 1 11.9 1.2 5.9.5 12-.5 17.8 1 3.3.7 6 3.3 9.3 3.6 2.8-.1 5.7-1.2 8.5-.2 2.3.7 4.5 2 6.8 2.8q4.2 1.3 8.5 1.2 4.3-.6 7.6-3.3c2.7-2 5.2-4.6 8.5-5.3" class="b"/><path d="M10.7 204q3.8-.5 7.6 0c2.2.4 4.5 1.4 6.8 1.2 1.7-.2 3.4-1 5-1.4 3.7-1 7 1.4 10.3 2.8l6.8 2.8c2 1 4.4 2 6.8 1.6 3-.6 5.2-3.1 7.6-4.9 3.8-3 8.8-4 13.6-3.7 5.1.6 10.2-.6 15.3-1.5 3.6-.5 7.3-1.7 11-1.8 4.2-.1 8 1.7 11.9 3q3.7 1 7.6 1.2 5.2.4 10.2 1c3.5.2 6.7 2.3 10.2 1.8 2.3-.4 4.5-1.3 6.8-1.3 5.5.1 10.3 3.5 15.3 5.5 7.2 2.8 11.3-6.7 17.8-7.8" class="b"/><path d="M10.7 203.7a28 28 0 0 1 7.6-1.4c2.3 0 4.7.2 6.8-.9 2-.9 3.8-2.3 6-2.8 3.4-.7 6.3 1.7 9.3 3.1q2.8 1.3 6 2l5 2.2c6 2.7 9-1.4 14.4-3 5-1.5 10.4-.5 15.3-1.9q3.8-1.4 7.7-2.8c2.1-.7 4.5-.8 6.8-1.3 5-1.4 8.8-1.9 13.5 1 2.5 1.3 5 3 7.7 3.8q7.1 1.5 14.4 1.4c2.9 0 5.7 1.1 8.5 1 2.6 0 5-1.3 7.6-1.7 5.6-1 11 1.5 15.3 5 1.7 1.3 3.9 2.5 6 1.5 4.6-1.9 7.4-7.2 12.7-7.9" class="b"/><path d="M10.7 202.6c3.5-1.8 7.4-2.4 11-4 3.3-1.5 5.7-4.7 9.4-5.6 2-.5 4.2.7 5.9 1.8 1.9 1.2 3.8 2.6 6 3.3 2.4.8 5.2 1.3 7.6 2.4 4 1.8 7.5 3.2 11.9 1.8q4.6-1 9.3-1.4 4.5-.1 8.5-1.7c6.4-3.3 5.9-4.2 13.6-4.5 3.4-.5 6.7-2.4 10.2-2 6.2 1.2 9 7.6 16.1 8.3q3.3.7 6.8.5c2 0 4-.5 6-.3 6.2 1 7.3 1.5 13.5-.6 4.5-1.3 9.8-1 13.6 1.9 2 1.4 3.6 3.7 6 4.6 5.4.7 8.2-7.8 15.2-8" class="b"/><path d="M10.7 199.7a42 42 0 0 0 9.3-4.9c3-2 5.6-4.6 8.5-6.7 6-4.4 9 2.1 13.6 5 2.6 1.4 5.8 1.6 8.5 2.7 3 1.3 6 3 9.3 3.4q4.6.5 9.4-.1 3.9-.3 7.6-1.2c3.4-1 6-3.8 9.3-5a11 11 0 0 1 5.1-.3c3.4.6 6.4-1.4 9.4-2.4 7-2.8 10.5 5.7 16.1 8q4.6 1.7 9.3 1.4c1.7-.2 3.5-.8 5.1-.8 3.4.1 6.8 1.6 10.2 1.3 2.3-.2 4.6-1.2 6.8-1.8 2.8-.6 5.8-1 8.5-.1 3.1.9 5.2 3.7 7.6 5.6 4.1 2.7 7.8-3.7 11-5.4a12 12 0 0 1 6-1.6" class="b"/><path d="M10.7 194.9c3.5-.8 6.6-3 9.3-5.4 4.3-3.7 9.7-11 16.1-7.7 2 1.2 3.5 3.2 5.1 4.8q2.6 2.7 6 4c3.6.7 6.8 2.7 10.2 4.1q2.5.9 5 1.2 3 .6 6 .3c3.4-.3 7-.6 10.2-2.3 2.5-1.3 4.9-3 7.6-3.7 2.3-.5 4.6.5 6.8.4 4.2-.4 7.6-4.3 11.9-3.8 6.8 2 6.8 9.5 17.8 10.6q2.6.1 5.1-.7c3.4-1.2 7 .3 10.2 1 3.2 1 6.3.1 9.4-.9 3.8-1.2 8.4-1.8 11.8.7 3.2 2.3 5.3 6.3 9.4 2.9 2.6-2 5-5 8.5-5.4q2.1-.2 4.2-.6" class="b"/><path d="M10.7 188.8c6.6 0 9.6-7.2 15.3-9.6 13.9-5.8 11.6.1 21.2 7q2.4 1.3 5 2.4 2.6 1.5 5.2 2.7 4.8 1.9 10.2 1.7c3-.3 6.3-.6 9.3-1.7s6-3 9.3-3.4c2-.3 4 .3 6 .4 4.3 0 7.6-3.8 11.9-4.4 4.5-.2 6.9 5 10.2 7.3 2.9 2.5 7.1 4.2 11 3.6 2-.5 3.9-1.7 6-1.3 3.1.4 6.1 1.9 9.3 2.4 2.5.4 5.1-.5 7.6-1.1s5.2-1 7.6-.3q2.4.8 4.3 2.4c1.2 1 2.6 2.2 4.2 2.2 1.3 0 2.5-.9 3.4-1.6q2.4-2.2 5.1-3.7c2.7-1.2 5.8-.9 8.5-2" class="b"/><path d="M10.7 183c5.8-.1 8.7-5.8 14.4-6.5q3-.2 6-.9c1.6-.4 3.3-1.3 5-1.6 2.4-.5 4.5 1.2 6 2.9l5 5.4c3 2.6 6.7 4.6 10.2 6.5 4.3 2 9.1 1.7 13.6 1 4.4-.5 8.5-2.4 12.8-3.6 2.7-.7 5.6-.5 8.5-.5 2 0 4-1 6-1.8 2-1 4.3-2.5 6.7-2.4 2 0 3.7 1.6 5 3 2 1.8 3.9 4 6 5.4 2.5 1.6 5.6 2.8 8.5 2.2 3.6-1.2 4.4-2.3 8.5-1 3.1.9 6.1 2.5 9.3 2.8 7.6 0 10.4-2.8 17.9 1.9 1.5.9 3.6.9 5-.1 1.7-1.1 3.4-2.6 5.2-3.5 1.7-1 4-1.1 5.9-1.5q2.6-.4 5-1.6" class="b"/><path d="M10.7 178.6q2.6-.5 5-1.6c2-.8 3.9-1.9 6-2 3-.3 6.3 1 9.3 0 3.2-.8 6-4.4 9.4-3 3.2 1.7 5.1 5.3 7.6 8 3.3 3.3 7.3 6.5 12 7.7 8 1.5 16-1.7 23.7-3.6 3-.8 6.2-.5 9.3-.7 3-.4 5.7-2 8.5-3 7.4-3.5 10.4 6 16.1 8.5 5.9 2.4 6.6-1.3 11-1.3 2.1.2 4 1.1 6 1.7 2.5.8 5 2 7.7 2.4s5.6.2 8.4.4q2.6.1 5.1 1c1.6.4 3.4 1 5.1.7 3.2-.6 5.4-3.4 8.5-4.2q3.4-.6 6.8-1.2 2.6-.6 5.1-1.8" class="b"/><path d="M10.7 175.8c4.4-1.4 8-3.3 12.7-1.7q2.5.9 5.1 1c5.7.3 8.5-6.2 12.7-5.1 3.1 1.4 4.8 4.8 6.8 7.3 3.1 4.2 7.5 8 12.8 8.6 8.1.8 15.9-2.6 23.7-4.2q3-.5 6-.5 2.5.1 5-.2c2.7-.6 5.2-2 7.7-2.9 7.5-2.7 9.4 9 16.1 9.1 1.9.1 3.6-1 5.1-1.8 2.6-1.2 5.3.1 7.7 1l6 1.7q5.3 1.7 11 2.3c3.6.5 7.4 1.4 11 .1 2.8-1 5.4-2.8 8.5-3.2q3.8-.4 7.6-1c1.7-.4 3.4-1.3 5.1-1.7" class="b"/><path d="M10.7 173.8c9.5-4 9.6 0 17.8 1 8 .6 10.4-11.4 17-3.1 4.1 5.5 7.5 11.6 15.3 12.1 8.1.5 15.8-2.8 23.7-4.3a36 36 0 0 1 6.8-.7q2.6.1 5.1-.2 3.5-1 6.8-2.6c6.7-3.2 8.6 6.5 13.6 8.7 2.1.7 4.2-.7 6-1.8 2.1-1.1 4.6-.1 6.7.7q2.5.8 5.1 1.4c7 1.4 14 4 21.2 2.7 4-.7 7.9-2.3 12-2.7q4.2-.3 8.4-1 2.5-.7 5.1-1.3" class="b"/><path d="M10.7 172c8-3.7 9.8 1 17 2.3 8.8 1.4 11.2-10.3 17.8-4 4.8 5.2 7 10.9 15.3 11.2s16.4-3.2 24.6-4.5q3-.5 6-.7 2.5.1 5 0c2.7-.2 5.2-1.6 7.6-2.8 5.7-2.8 7.8 5.2 11 8.2 2.5 2.2 4.7 0 6.9-1.3 1.6-.7 3.5-.2 5 .5 3.3 1.4 6.9 1.5 10.3 2.2 4.7 1 9.5 2 14.4 1.6 4.5-.4 9-1.5 13.6-1.8q5.1-.4 10.2-1c2-.1 4-.8 6-1" class="b"/><path d="M10.7 170.2c8.8-4.2 12 4.4 20.4 3.2 4.8-.5 8.4-6.5 13.5-4.3 2 1 3.6 2.8 5.1 4.3 3.8 4.4 8 6 13.6 5.6q5.7-.5 11-2 6.4-1.6 12.8-2.6c10.3-1.5 8.2 2.2 18.7-3.8 5.2-2 6.6 7.3 10.2 9.6 4 1.6 3.8-4.6 10.2-1.5 3.1 1.4 6.8 1 10.1 1.9 2.8.5 5.7 1.2 8.5 1.3q5.2-.1 10.2-.9c8.8-1 17.7-.4 26.4-2.1" class="b"/><path d="M10.7 168c8.7-4 12.2 5 20.4 4.4 2.6-.2 5-1.7 7.6-2.5 2.4-.7 5.2-1 7.6-.4 3 1 5 3.6 7.7 5a23 23 0 0 0 15.2 1c7.3-1.5 14.6-3.7 22.1-4 4.3.2 7 1.8 11-.8 2-1 3.7-3 6-3.2 4.3.6 5.2 10.8 9.4 10.7 1.5-.4 2.6-2.2 4.2-2.5 1.8-.3 3.5.7 5 1.2q2.6.6 5.2.6c3.4.3 6.7 1.6 10.2 1.8 4.5.3 9-1 13.6-1.3 5-.3 10.2-.1 15.2-.4 3.4 0 6.9 0 10.2-.8" class="b"/><path d="M10.7 165.5c6.7-2.6 9.9 1 15.3 4 2.5 1.5 5.6 1.8 8.4 1.1q3.8-.8 7.7-.7c1.7-.1 3.4-.8 5-.8 2.2 0 4.2 1.3 6 2.2q3.3 1.7 6.8 2.2c4.6.7 9.2-.5 13.6-1.5 5.3-1.1 10.7-2.5 16.1-2.8s8.2 3.1 13.6-.6l3.4-2.8c.9-.7 2.2-1.7 3.4-1.3 3.6 2.3 4 9.6 7.7 11.3 2.6-.2 3-3.3 6.7-2.2q3.3 1.3 6.8 1.5c2 0 4 .7 6 1.2q4.6 1.5 9.3.5 5.1-1.3 10.2-1.7c4.2-.2 8.5.2 12.7 0 4 0 8 .4 12-.3" class="b"/><path d="M10.7 162.6c10-3.3 11.6 4.4 19.5 6.7 2.2.4 4.6 0 6.8.2q2.2.2 4.2.5c5.6 0 5.9-3.7 12.8-1.1a28 28 0 0 0 12.7 2c5.4-1 10.7-2.5 16.1-3.4 3.1-.5 6.3-1 9.4-.5 1.4.2 2.9 1 4.2 1.3 3.1.8 6.3-.7 8.5-2.7l3.4-3.4c.6-.6 1.7-1.4 2.6-1.3 3.7 2 4 10 7.6 12.3 1 .2 1.9-.6 2.6-1q1.6-1.1 3.4-1 2.6.7 5 1.3 4 .6 7.7 1.9 4.7 1.6 9.3.2 4.5-1.5 9.4-2t10.2-.1c5-.2 10.2.7 15.2 0" class="b"/><path d="M10.7 159.6c11.6-3 11.7 5.5 20.4 8.1 2.4.6 5.1.6 7.6 1.3 4.5 1.6 6.4-.6 10.2-2.4 2.1-1 4.6-.6 6.8 0 10.1 3.1 14.7 1 24.6-1 3-.5 6.2-1.3 9.3-1.2 2 0 4.1.8 6 1.6 2.9 1 6-.3 8.5-1.9q2.3-1.7 4.2-3.9c1-1 2-2.5 3.4-3l.9.1c3.5 3 3.7 11 7.6 13.3.9.1 1.8-.5 2.5-.8q1.3-.5 2.6-.6c4.4.5 8.5 2.3 12.7 3.6q4.7 1.5 9.4-.4a44 44 0 0 1 20.4-2.5c2.5-.1 5 .3 7.6.4l6-.3" class="b"/><path d="M10.7 156.4c12.7-2.3 11.4 6.5 20.4 10 2.7.9 5.7 1.1 8.4 2.2 3.4 1.2 6-.5 8.5-2.5 4.4-3.4 7.9-2.4 12.8-1.2q6.6 1.4 13.6 0l8.4-1.8c3.4-.7 7-1.1 10.2.3q1.3.6 2.6.8 1.6.2 3.4-.3 3.6-.8 6.8-2.8 2.4-2 4.2-4.3c1-1 2-2.5 3.4-2.8 3.8 1.2 4.7 12.3 8.5 14.2 1.4 0 2.9-.5 4.3-.5 4.8 0 9 3 13.6 4 4.7 1 9-2 13.5-3.2 4.1-1.3 8.5-1.4 12.8-1.1q3.8 0 7.6.3c2.6.1 5.2-.5 7.7-.7" class="b"/><path d="M10.7 153c13-1.7 11.4 8.6 20.4 12.4q2.9 1 5.9 1.7 2.1.7 4.2 1.3c3.8.6 6.6-2.4 9.4-4.5 3.4-2.7 7-2.5 11-1.7q4.6.9 9.4 1 5.1-.1 10.1-1.3c2.3-.4 4.6-1 6.8-.7 2 0 4 1 6 1.3a31 31 0 0 0 12.7-2.2c2.3-1.4 3.7-4 5.1-6 .6-1 1.5-2.3 2.6-2.8h.8c3.8 2.3 4.8 14.8 9.3 14.6q2.6-.1 5.1.5c2.4.6 4.6 1.8 6.8 2.7 2.4 1 5.1 1.6 7.7 1 4-1.1 7.8-3.3 11.9-4.3 5.2-1.4 10.7-.7 16-.9 3.2.1 6.3-1 9.4-1.2" class="b"/><path d="M10.7 149.9c13-1.7 11.2 10.6 20.4 14.6q2.9 1.1 5.9 1.9 1.6.6 3.4 1.1c6.7 1.4 10.9-6 17-7.2 4.2-.8 8.5 0 12.7.3q5.1.4 10.2 0a26 26 0 0 1 10.2.3q4.6.6 9.3.7c3.5-.1 6.9-2 9.4-4.4 2.4-2.5 3.4-6.4 6-9l.8-.2c4.3 2.3 4.8 14.3 9.3 16 2.2.8 4.6 1.2 6.8 2.2 3.7 1.7 7.7 3.7 11.9 2.6 5.4-1.5 10.4-4.7 16.1-5.5 4-.6 8-.4 11.9-1 3.1-.2 6.2-1.4 9.3-1.5" class="b"/><path d="M10.7 147c12.3-1.7 11.1 11.7 19.5 16.1q3 1.4 6 2.3c1.3.4 2.8 1.2 4.2 1.5 2 .4 4.1-.6 6-1.5q3.4-1.7 6.7-3.8a32 32 0 0 1 17-3q8.1 0 16.1.5c1.7.2 3.5.9 5.1 1.3q3 .7 6-.1c2.3-.7 4.4-2 6.7-2.8q5.7-1.4 8.5-6.5c1.3-2 2.1-5.1 4.3-6.4l.8.2c4.2 4.2 4 12.6 8.5 16.6q2.9 2 6 3.4c3.3 1.8 7.1 3.3 11 2.7 6-1.1 11.2-4.5 17-6 3.6-1 7.4-1.2 11-2 3.4-.4 6.8-1.7 10.2-1.6" class="b"/><path d="M10.7 144.6c11.5-1.9 11 12.2 18.7 17 2.9 1.7 6.2 2.8 9.3 4.3 3.5 1.6 6.5-1.4 9.3-3.1 6.5-3.9 11.7-6.6 19.6-6.3q5 .4 10.2.6 3.4.3 6.7.5 2.3.2 4.3.8 3.1.5 6-1c3-1.7 5.5-5.3 9.3-5.4 1.6 0 3.4.7 5 .3 5-1.3 5.1-7.8 8.6-10.7l.8-.1c4 2.6 4.7 13.8 9.3 18 10.3 10.7 20 5.9 31.5.6 3.4-1.6 7.3-2.3 11-3.2 3.6-.7 7.3-1.8 11-1.3" class="b"/><path d="M10.7 142.5c10.7-1.7 11 12.5 17.8 17.4q2.9 1.9 6 3.3c1.6.9 3.2 2.2 5 2.6 2 .4 3.7-.9 5.1-2q2.6-2 5.1-4a34 34 0 0 1 17.8-6.5c4 .2 8 1.2 12 1.5q2.5.1 5 0c1.4.1 2.9.5 4.3.2 4-.8 6.7-4.2 9.3-7 1.5-1.5 3.7-3.2 6-2.4 1.8.8 3.3 2.5 5 3.4 5.2 2 6.4-7.3 9.4-9.8h1.7c1.2.8 2 2.8 2.5 4.2 1.1 2.8 2.2 6.3 3.4 9.2 2 4.1 4.9 8.6 9.4 10.3 5 1.8 10.3 1 15.3-.4 4.8-1.4 9-4.3 13.5-6.2 5.2-1.8 11.6-3.8 17-2.4" class="b"/><path d="M10.7 140.7c10.1-1 10.7 12.2 17 17.3 2 1.8 4.5 3 6.7 4.4 2 1.2 4.2 4 6.8 2.8 2-1 3.5-2.7 5.1-4.1q2.8-2.7 6-4.7a52 52 0 0 1 13.5-5.8q3.8-.6 7.7.1 5.5.9 11 .6c5.8.2 9.4-5.1 12.8-9 2-2.3 4.8-4.3 7.6-2 2 1.7 3.3 4.1 5.1 5.9 4.5 4 6.8-6.6 9.3-8.9q1.3-.6 2.6 0c2.4 3.6 3.4 8.4 5 12.4 1.7 3.6 3.5 7.7 6.9 10 3.8 2.2 8.5 2.5 12.7 1.9q4.4-.3 8.5-1.9c3.9-1.4 7.3-4 11-5.8 4.8-2.1 10.4-3.3 15.3-1.3" class="b"/><path d="M10.7 139c9.1-.8 10.6 12 16.1 17 1.7 1.7 4 3 6 4.3 1.7 1.2 3.3 2.9 5 4.1 2.3 1.6 4.4-.7 6-2.2l5-4.5q3.3-2.5 6.9-4.4l9.3-4q2.8-1.4 6-1.8c2.1-.3 4.5-.1 6.7-.2 4.4 0 9.2 0 12.8-3q2.7-2 5-4.9c1.7-1.7 3.5-4 6-4.3 5.4 0 6.7 6.8 10.2 9.8 3.9 2.6 6.4-8.2 9.3-10q1 0 1.7.2c1.6 2.1 2.5 5.3 3.4 7.7q1.7 5.3 4.3 10.2c1.1 2 2.7 4.3 5 5.2 4.1 1.6 8.5 1.6 12.8 1.2q7.4-.2 13.6-4.1c6.1-4.1 12.2-7.5 19.5-4" class="b"/><path d="M10.7 137.5c8.1-.8 10.5 11.6 15.3 16.4 2.1 2.4 5.2 3.7 7.6 5.8 2.2 1.7 4.5 6.2 7.6 3.5 2-1.7 3.8-3.8 6-5.3q5-3.8 11-6 4-1.3 7.6-3.6c3.2-2 6.4-4.3 10.2-4.7 2.6-.3 5.2-.3 7.7-.9q5.1-.7 9.3-3.8c2.4-1.7 4.2-4.4 6.8-5.8 1.3-.5 3-.3 4.3-.2 2.8 1.4 4.3 4.5 5.9 7 4.1 7.7 6.5 1.6 9.3-2.9 1-1.3 1.7-3.6 3.4-4 2.7 1.6 3.9 8 5.1 10.8 2 4.5 3.5 10.5 8.5 12.2a25 25 0 0 0 10.2 1.3 28 28 0 0 0 16.1-3.5c2.3-1.3 4.5-3 6.8-4.2 3.8-1.7 8.4-1.8 12 .4" class="b"/><path d="M10.7 135.8c8.2-.6 10.6 13 16.1 17.4 2.1 1.8 4.9 3 6.8 5 1.8 1.7 3.8 5.8 6.8 4 1.5-1 2.8-2.7 4.2-4q4.7-3.5 10.2-5.3 3.9-1.2 7.7-2.7c6.5-3 8-8.9 16-10.2l6.9-1.5c2.8-.3 6-.5 8.5-2 2-1.3 3.8-3.4 6-4.7 5-3 8.7 3.3 11 7 1.4 2.5 3.4 4.8 5.9 2 2.4-2.6 3.6-6.2 6-8.7l.8-.2c2.6 1.8 3.7 8 5 11 1.6 3.3 3 7.4 6 9.6 4.8 3.1 10.7 2.7 16.1 2.8a25 25 0 0 0 13.6-3.8c5.5-3.8 10.5-6.9 17-3.2" class="b"/><path d="M10.7 134c6.7-.3 10 10.2 13.6 14.7 1.4 2.1 3.7 3.7 5.9 5 2.4 1.4 4.1 3.8 6 5.8 2.2 2.3 4 1.2 5.9-.8 5.8-6.5 11.3-5.6 18.7-8.1 7.3-2.1 10-10.5 17-13.2q3.7-1.6 7.6-2.2c2.5-.2 5.1.5 7.6 0 2.6-.6 4.6-2.6 6.8-4 4.3-3 8 1 10.2 4.5 3.2 5 5 7.1 9.3 1.4 1.4-1.8 2.4-4.4 4.3-5.7h.8c1.2.8 2 2.8 2.6 4.2 1 2.6 2 5.8 3.4 8.3q3.9 8 12.7 9.1 5.6.5 11 0 6.2-.4 11.1-3.8c5-3.6 10-6 16.1-3.1" class="b"/><path d="M10.7 132.4c6.5-.1 10 10 13.6 14.4 1.5 2.1 3.8 3.6 5.9 5 2.3 1.5 4 4 6 6 2.1 2.2 4.1.6 5.9-1.2 6.6-6.7 12-4.2 19.5-7.2 4.2-1.3 6.9-4.4 9.3-7.8 3.5-4.7 8.4-8.9 14.5-9.4 2.5 0 5 1 7.6 1 4.7.4 7.5-4.8 12-3.2 4.9 1.7 7.4 11.8 12.6 7.7q2-1.5 3.4-3.5c1-1.1 2-2.9 3.4-3 1.9.6 2.6 3.2 3.4 4.8 1.2 2.6 2.4 5.7 4.3 8 3 3.6 7.4 6 11.9 6.9q7.7.8 15.3-1c3.7-1 6.8-3.4 10.2-5.1 3.6-1.8 8-2.5 11.9-1.3" class="b"/><path d="M10.7 131c7.9 0 10.7 13 17 16.8q2.9 1.8 5 4.4c1.5 1.6 2.9 4 5.1 4.6 2 .2 3.6-1.7 5.1-2.8 6-5.3 13.5-3.5 20.4-6.4 3.3-1.1 5.6-4 7.6-6.7 2.5-3.2 5-6.5 8.5-8.7 6.5-4 9.8-.9 16.2-1 2 0 4-1 5.9-1.5 4.8-1.2 7.6 4 11 6.2 3.9 2.6 7.4-1.8 10.2-4 2.4-1.8 4.1 1.2 5.1 3s2.1 4 3.4 5.7q2.3 2.4 5.1 4.2c2.8 1.8 6 3.6 9.3 4q8.3.6 16.2-2.3 3.8-1.7 7.6-3.5c3.7-1.5 7.9-2.5 12-2.2" class="b"/><path d="M10.7 129.7c6.1-.7 10.1 8.5 13.6 12.5 1.6 2 4 3.6 5.9 5.3 2.7 2 5.3 8.3 9.3 6.8 2.1-1 4-2.7 6-3.7q3.6-2 7.6-2.6c2.5-.4 5.2-.4 7.7-1 6.4-1.4 10.2-7 14.4-11.6 3-3.4 7.2-6.4 11.9-6.8q3.3.2 6.8.6h5c2.4-.1 4.8 0 6.9 1.2 2.2 1.3 4.3 3 6.7 4 3.7 1.3 7-1.6 10.2-3 4-1.1 6 5 8.5 7.2q2.4 2 5.1 3.4c4 2.3 8 5.4 12.8 4.9 6.4-.6 12.6-3 18.6-5.3 4.5-1.3 9-2.7 13.6-3.2" class="b"/><path d="M10.7 128.2c5.4-1 9.8 6.4 12.7 10.2 1.9 2.6 4.5 4.6 6.8 6.7 2.7 2.5 5 7.7 9.3 6.8q2.7-1 5.1-2.6 3-1.6 6-2.6 3.3-1 6.8-1.2c11-1 15.5-9.5 23.7-15.3 4.4-3.3 7.4-3.8 12.8-3 2.8.4 5.8.6 8.5 1.6 3 1.2 6 3 9.3 3.7q3 .6 6-.5c1.6-.5 3.3-1.3 5-1.4 4.3 0 6 4.9 9.4 6.9q2.1 1.1 4.2 2.1c11 6.1 9.8 6.9 22.1 2.3q6.7-2.3 13.6-3.4 4.7-1 9.3-2.2" class="b"/><path d="M10.7 126.7c6-1.3 11 6.7 14.4 10.7l5 5.2c1.7 1.7 3.3 3.8 5.2 5.2 3.4 2.8 7.7.4 11-1.2q4.1-2.3 8.5-3.3c6.8-1.3 10.4-1.6 16.1-5.8 3.6-2.5 6.9-5.5 10.2-8.2 3.8-3.2 6.8-4.8 12-4a27 27 0 0 1 9.3 2.8c3.2 2 7.2 3 11 2.7 2.6 0 5-1.3 7.6-1.7 5.7-.6 7.2 6.2 14.5 8.2q3.5 1.3 6.8 3.3c2.5 1.7 5.4 3 8.4 1.6 4-1.6 7.7-4 12-4.8 3-.6 6.2-.5 9.3-.8q4.7-.7 9.3-2.1" class="b"/><path d="M10.7 125c3.4-.8 6.7 1.4 9.3 3.5 3.7 3.5 6.6 7.8 10.2 11.4 4.1 4.8 8 7.6 14.4 5 2.6-1.2 5-3 7.7-4.2 3.6-1.9 7.9-1.5 11.9-2.2 5.8-1.5 10.6-5.6 15.2-9.3 4.4-3.8 7.5-6.4 13.6-5.4q3.6.6 6.8 2.3 2 1.2 4.3 2.3 5 1.4 10.2.5c2-.4 3.9-1.5 5.9-1.9 5.5-1 8 7 14.4 8.4q4 1 7.7 3c2.6 1.7 5.4 3.4 8.5 1.7 3.8-2.2 7.3-5.4 11.8-5.8 2.9-.3 5.7.2 8.5.3q5.3 0 10.2-1.8" class="b"/><path d="M10.7 123.3c3.2-.6 6.6 1 9.3 2.6 4 3 6.6 7.6 10.2 11.1 3.7 4.3 9 6.4 14.4 4.4q2.7-1.5 5.1-3.5c2.9-2.3 6.5-3.7 10.2-3 1.6.2 3.4.6 5.1.4 3.4-.5 6.5-2.3 9.3-4.2 3.8-2.4 7-6 11-8 2.7-1 5.8-.7 8.6-.2 8.7 2.4 6.7 5.8 17.8 4.6q2.7-.2 5-1.6c1.6-.8 3.4-1.8 5.2-1.3 2.4.7 4.2 2.9 6 4.6 1.8 2 4 3.9 6.7 4.7q4 .9 7.6 2.6c4.1 2.5 6.1 3.8 10.2.2 3.1-2.7 6.7-5.7 11-5.4 2.6 0 5.2.8 7.7 1.1q5.3.6 10.2-1.2" class="b"/><path d="M10.7 121.7c2.9-.5 5.8.7 8.5 1.6 4.8 2 7.3 7.3 11 10.7 3.4 3.6 8.1 4.5 12.7 3.4 2-.3 3.7-2 5.1-3.2 3-2.8 6.9-5.7 11-4.2 2 .7 4 1.8 6 2 3.3.3 6.6-1.4 9.4-3 8.2-5 9.7-9.9 20.3-6.6 3 .8 5.5 3 8.5 3.8q2.6.3 5.1.2 2.6 0 5.1-.7c3-1.2 5.8-4.7 9.3-3 4.9 2.4 7.4 8.3 12.8 9.8q3.5.9 6.8 2.2c1.6.8 3.2 2.1 5 2.4 4.6.2 7.5-7 12.8-8.2 4-1.1 8 1 11.9 1.5 3 .4 6.4.1 9.3-.9" class="b"/><path d="M10.7 120.2c2-.2 4 .4 6 1q2.1.4 4.2 1.2c3.5 1.7 5.7 5.2 8.5 7.8 3 3.3 7.6 4 11.8 2.8 3-.4 4.8-2 6.8-4 3-2.8 7-5.9 11-3.8 2 1 4 2.4 6 3.1q2.2.7 4.3.1a16 16 0 0 0 5-1.6c9-4.4 9.4-8.8 20.4-5 6.5 2.8 6 3.7 13.6 3.3q2.7.1 5.1-.8c3.3-1.8 6.2-5 10.2-3.2 5 2.4 7.5 8.2 12.7 10 2 .7 4.1 1 6 2q2.1 1 4.2 2c6.8 1.6 8.3-11.8 19.6-8.3 4.9 1.3 10.2 2.5 15.2.9" class="b"/><path d="M10.7 119c2 0 4 .6 6 1q2.5.5 5 1.2c4 1.7 6.3 5.9 10.2 7.7s8.1 0 11.9-1.2c4.4-2.4 7.9-8.3 13.6-7.1 2.7.6 5 2.6 7.6 3.7q2 .8 4.3.6a15 15 0 0 0 7.6-1.3c2.6-1.1 5-3 7.6-3.7 4.4-1 8.8 1.3 12.8 2.9 2.9 1.4 6.2 1.2 9.3 1 3.9.2 6.1.2 9.4-2.2 2.6-2 6.2-3.3 9.3-1.6 4 2 6.4 6.3 10.2 8.7 2 1.2 4.6 1.7 6.8 2.7 1.9.8 3.8 2.4 6 2.2 2-.4 3.6-2.2 5-3.6 2-2 4-4.3 6.8-5.2 2.8-.8 5.7.3 8.5.6a29 29 0 0 0 12.7.3" class="b"/><path d="M10.7 118.2c2.2-.1 4.5.6 6.8.9s4.7.3 6.8 1.2c6 3.2 7.6 6.4 15.2 4.4q2.7-.6 5.1-1.6c2.6-1.4 5-3.5 7.7-4.6 4.4-1.8 8.7.4 12.7 2.1q2 .8 4.3.8 2 .4 4.2.5c3.3 0 6.3-1.4 9.3-2.3 5.4-1.6 10.2 2.5 15.3 3.3q3.5 0 6.8-.4 3 .2 6 0c2.4-.4 4.6-2 6.7-3.1 4.3-2.1 8.3-2.3 12 1 2 1.8 3.8 4 5.9 5.8q2.4 1.8 5 2.8c2.8 1 5.5 3.3 8.6 2.6 4.4-1.6 7-6.8 11.8-7.8 6.8-1 13.7 2 20.4.3" class="b"/><path d="M10.7 117.4c2.8-.1 5.7.4 8.5.6 2.2.2 4.5 0 6.8.5s4.5 1.5 6.7 2q3 .6 6 .4t6-1c3.8-1.4 7.5-3.7 11.8-3.8 3.2-.3 6.3.7 9.3 1.4 1.4.3 3 .2 4.3.5q3 .9 6 1.1c2.7.3 5.6-.4 8.4-.2 3 .3 5.7 2 8.5 2.8 3.4 1 6.8-.4 10.2-.7 3.1-.2 6.4.5 9.3-.7 11.2-4.8 14.3-7.1 23 3.2 2.5 2.6 6 4.2 9.3 5.6 5.8 2.9 9.6-3.2 14.4-5.1q3.7-1.4 7.7-1.7c1.7-.2 3.4.3 5 .5 3.1.4 6.4.9 9.4 0" class="b"/><path d="M10.7 116.7c3.6-.6 7.3.1 11 .2 3.4 0 6.8-.7 10.2-.2 13 1.8 11.4 1.7 23.8-1.7q5-1.3 10.2-.6c1.6.2 3.4-.1 5 .4q6.4 1.9 12.8 3.9c5.3 2 7 2.5 12.7 1.5a43 43 0 0 1 6.8-.8c3.1 0 6.4 0 9.4-1 4.5-1.3 8.8-3.6 13.6-4 3.5 0 6.3 2.7 8.4 5.2q4.1 5.1 10.2 7.4c4.4 2 8.2-.4 12-2.6 3.1-1.7 6.5-3.3 10.1-3.9 1.7-.2 3.5.5 5.1.8 3 .5 6.3 1.2 9.3.3" class="b"/><path d="M10.7 115.7c4-.8 7.9.2 11.9.3 3.4 0 6.7-1.7 10.2-1.7 3.1 0 6.2 1 9.3 1.7q3.4.6 6.8 0c3.8-.5 7.3-2.4 11-3.4q4.6-1 9.4-1c5.2.6 9 4.8 13.6 7 2 1 4.5 1 6.7.6q5.1-1 10.2-1.3c3.7 0 7.5 0 11-1q5.3-1.3 10.3-3c3.9-1.3 8.6-2.5 11.9.9 2.2 2.3 4.1 5.2 6.7 7.2 4.1 3.1 8.8 4.5 13.6 1.9 4.4-2 8.6-5.4 13.6-5.6 2.6.2 5.1 1.1 7.7 1.6 2.1.4 4.5 1 6.7.3" class="b"/><path d="M10.7 114.4q3.8-.3 7.6.4c2.5.4 5.1.9 7.6.3 2-.4 4-1.4 6-2 3.1-.8 6.4 0 9.3 1.2q3.4 1 6.8 1c3.3 0 6.4-1.6 9.4-3q4-1.9 8.5-2.6c7.8-1.5 9.3 9.4 17.8 8 3.4-.4 6.8-1.3 10.2-1.5 3.3-.3 6.8 0 10.2-.1 3.7-.3 7.4-1.5 11-2.3 5.1-1 12-5.1 17-2.5 2.4 1.5 3.9 4.3 6 6.3 3.6 4 8.5 6 13.5 3.2 4.3-2.1 8.5-5.4 13.6-5.3q4.4.3 8.5 1.6c2.4.8 5 1.9 7.6 1.2" class="b"/><path d="M10.7 112.6c4.9.3 9.5 2.5 14.4 2.5 4.4-.2 8.2-3.7 12.7-3.2q2.3.6 4.3 1.4l4.2.8c6.2 1.2 11.5-3.2 17-5.1 5-1.8 7.7 4.3 12 5.5 1.5.5 3.4.2 5 .1q7.2-.5 14.4-.6 4.3.2 8.5.2c4-.2 8-1.4 12-2.3 3.3-1 6.6-2.6 10.1-3.1 2.8-.6 6.1-1.3 8.5.7 1.6 1.4 2.8 3.5 4.2 5 3 3.3 7 5 11 2.6 5.1-2.8 9-6.5 15.4-5 2.5.6 5.2.8 7.6 1.7 3 1.1 6 3.3 9.3 2.2" class="b"/><path d="M10.7 110.6c3 .5 5.6 2.3 8.5 3 7.2 2.7 10.5 1 17-2.2 1.9-.9 4-.3 5.9.4q3.3.7 6.8 1.3c3.6 0 7-1.3 10.2-3 2-1.2 4.5-3 6.7-1.3 1.7 1 3.3 2.7 5.1 3.5 4.2 1.1 5.2-3.2 11-1 4.4 1.7 9.1 1 13.7.9 4.2-.1 8.6.4 12.7-.7a42 42 0 0 0 7.6-2.2q4.1-1.9 8.5-2c3.4 0 7.2-1.6 10.2.3 3 2.2 5.2 6.4 9.4 6 4.5-.7 7.4-5.2 11.9-6.4 3.8-1.1 7.4 1.6 11 2.4q3.2.6 6 2c2.5 1.5 5.5 3.4 8.4 2" class="b"/><path d="M10.7 109c1.5 0 3 1 4.2 1.8q2 1.4 4.3 2.5c4.7 2.2 11 2.6 15.3-1 2.4-1.9 4.4-3.3 7.6-2.3 4.8.7 8.8 2.6 13.6.6 2-.7 3.9-2.3 6-3.1 5.1-1 5.5 7.7 11.8 1.2 1.8-1.7 3.8-2.5 6-1 1.6 1 3.2 2.5 5 3.2 3.6 1 7.5-.5 11-.6 2.9-.3 5.8 0 8.6-.2a38 38 0 0 0 8.5-1.8q2.6-1 5-2c3.4-1.1 6.9.4 10.2.3 1.7 0 3.5-.4 5.1-.4 1.4 0 3 .6 4.3 1 1.6.5 3.3 1.6 5 1.5 5.4-.7 8.5-7.3 14.5-6.6 2.5.4 4.6 2 6.8 3.2 2.1 1.2 4.6 1.8 6.8 2.7 3.5 1.6 6.8 5.5 11 3.3" class="b"/><path d="M10.7 107.8c2.4-.6 4.2 1.7 6 3q1.9 1.7 4.2 2.9c3.1 1.3 6.8 1.7 10.2.8 4.1-1.2 6.1-7.2 11-6.4 2.9 0 5.7 1 8.5 1.5 6.2 1 9-5 12.7-2.8 1.6 1 3 3.4 5.1 2.8 3.4-1.3 5-8.4 9.3-5.8 2 1.2 3.4 3.1 5.1 4.5 2.6 2.1 5.6 1.4 8.5.5q3.8-1 7.7-1 6 .6 11.9-1.2c2.8-.8 5.4-3 8.4-2.6 3.3.7 6 3 9.4 3.4 4.5.6 8.6-1.6 12.7-3 3.5-1 6-4 9.4-5.5 5.8-2.9 8.9 1 13.6 3.8 2.4 1.4 5.2 2.2 7.6 3.8 3 2 5.7 4.1 9.3 2.2" class="b"/><path d="M10.7 107c5.7-2.7 7.1 10.4 20.4 7.3 3.6-1.1 5.4-5.1 8.4-7.2 1.8-1 4-.9 6-.8 5.5.9 7.4 1.6 12.7-1q2.2-.9 4.3 0c1 .7 2.2 1.8 3.4 2.3 2.4.6 3.9-2.4 5-4.1 2.1-3.3 4-5.8 7.7-2.5 2.3 1.8 4 4.6 6.8 5.6 3.1.6 6.2-1.2 9.3-1.4 3.1-.5 6.3.3 9.4.1q3.5 0 6.8-1.3c1.9-.7 3.8-1.8 5.9-2 5.3.1 8.4 7.1 14.4 7.4 4 .4 6.7-4.1 9.4-6.5q2.3-2.4 5-4.3c2.8-2 5.9-4 9.4-4 2.6 0 4.8 1.5 6.8 3a47 47 0 0 0 7.6 4.7c3.9 1.9 7.4 5.8 12 3.3" class="b"/><path d="M10.7 106.8c1.3-.7 3-1 4.2-.2q2.7 2.3 5.1 4.7a10 10 0 0 0 6.8 2.7q2.6.2 5-.6c3.9-1.8 5.5-6.6 9.4-8.3 3.6-1.2 7.4 0 11-.2 3.2 0 6.3-2.5 9.4-1.3 2.8 1.4 4.2 3.3 6.8.2 2.3-2.4 4.1-9.8 8.5-7.6 1.9 1 3.5 2.7 5 4.2q1.5 1.7 3.5 2.6c1.6.6 3.5.2 5-.1q3.5-.9 6.9-.7c5.2.7 9.5.8 14.4-1.2 6.4-2.9 8.8 1.5 12.7 5.7 2.1 2.2 4.7 4.3 7.7 5 2.8.3 4.5-2.7 6-4.7 3.2-5.3 6.7-11.2 12.7-14 5.1-2.3 8.4-1.3 12.7 2.2q4 3.2 8.5 5.6c2.8 2 6 3.3 9.3 1.5" class="b"/><path d="M10.7 107.4c1.3-.5 2.7-1.4 4.2-1.1 2.7.7 4.6 3 6.8 4.5 2.6 1.6 7.3 2.7 10.2 1.6 1.7-.8 3-2.5 4.3-3.9 3.6-4.7 6-5.6 11.8-5.4q3 .3 6-.2c1.6-.3 3.4-1 5-1.1 1.9-.2 3.5.9 5.2 1.5 4.5 1 6.2-7.8 9.3-10.2 3.2-2.8 8 3 10.2 5.2 2.6 3 6.8 1.3 10.2 1.2s6.8.7 10.2.5c2.9 0 5.7-1.1 8.5-1.8 6.9-1.4 9.8 7.8 14.4 11.5 1.7 1.4 3.6 3.4 6 3.6 3.4-.5 5-4.8 6.7-7.5 3.5-6.8 10-17.3 18.7-16.6 3.7.8 6.4 3.8 9.3 6q3.3 2.2 6.8 4c2.1 1 4.7 1 6.8-.1" class="b"/><path d="M10.7 108.2c2.8-.6 5.5-3 8.5-1.8 2.6 1 5 2.8 7.6 3.7 1.8.8 4.1 1.5 6 .3 4.8-3.7 5.4-8.3 12.7-8.6 2.5-.2 5.1 0 7.6-.4 2.8-.5 5.7-2 8.5-.9 4 1.9 5.7-.2 7.7-3.5 2-3.4 4.2-10.5 9.3-7q2.3 1.5 4.2 3.5c.7.8 1.7 2 2.6 2.5 1.7 1 4 .7 6 .7 4-.3 7.8.7 11.8.7 3.2 0 6.2-1.3 9.4-1.4 4.9.1 7.6 5 10.2 8.6a27 27 0 0 0 5.9 6.3c6.4 5.7 10-3 12.7-7.7 3.5-5.7 10.9-18.2 18.7-16 4.2 1.4 7.1 5 11 7 3 2 6.8 3.4 10.2 1.7" class="b"/><path d="M10.7 108.6c3.2-.1 5-3.3 7.6-4.8 3-1.8 6 1 8.5 2.5 1.6 1 3.1 2.6 5 2.4 4.6-1.5 5.8-7.6 12-8.2 3.3-.6 6.9-.3 10.2-1.2 2.1-.6 4.5-1.4 6.8-.9q1.6.6 3.4.7c7.2-.8 7-18.2 16-11.7 1.7 1 3.1 2.7 4.3 4.2 2.2 2.4 5.6 1.8 8.5 2.2 3.4 0 6.8 1.1 10.2 1 2.9 0 5.7-1.2 8.5-1 8.1 1.4 9.8 11.3 16.1 15.4 6.5 5.1 11.3-3.6 14.5-8.2l6-8.1c2.6-3.6 6-7.9 11-7.7 3.5.5 6.3 3.1 9.3 4.8 4 2 8.2 4.8 12.7 3" class="b"/><path d="M10.7 107.5c3-.2 5-3 6.8-5.2 1.3-1.5 2.8-3.7 5-3.4 3.5 1 5.8 4.3 8.5 6.4 2.4 1.4 4.4-1.3 6-2.8q1.8-2 4.2-3.2 3-1 6-1.2 3-.3 6-.8 2.4-.8 5-1.1c4.6 0 6.7 2.5 10.2-2.2 2.5-3.2 4.2-10 8.5-11 2.2-.1 4.3 1.3 6 2.8 1.4 1.6 2.7 3.8 5 4.2l6.8 1c2.5.5 5 1.2 7.6 1.2 2.9 0 5.7-1 8.5-.7 2.3.4 4.3 2 6 3.5 3 2.8 5 6.7 7.6 9.8 1.5 1.6 3.6 3.5 6 3.4 3.4-.6 6-3.4 8.4-5.7q5.6-5.4 10.2-11.6c4.6-6.3 8.9-8.5 16.2-4.5q3 1.4 5.9 2.6a14 14 0 0 0 10.2 1.1" class="b"/><path d="M10.7 104.7c3.4-.5 5.7-3.6 7.6-6.2 1.3-1.6 2.7-4.2 5.1-4.2 3.1.7 5.5 4 7.6 6.1 3.3 4.2 6.3-1.4 9.4-3a18 18 0 0 1 5-1.7l6-.9c2-.3 4-.9 6-1 2-.2 4 .5 5.9.7 6 0 7.7-8.2 11-12 2.2-3 6-2.7 8.5-.3 1.7 1.4 2.8 3.9 5.1 4.4 4 .7 8 2 11.9 2.7q3.4.5 6.8-.2 2.6-.5 5 .4c2.7 1.3 4.8 3.6 6.9 5.7 5.2 5.6 7.7 15.6 16.1 6.9q2.4-2.4 5-4.5c2-1.4 4.3-2.5 6-4.2 5-5.1 7.7-11.4 16.2-8.7 6.2 2.1 12.8 4.7 19.5 3" class="b"/><path d="M10.7 100.7c9.9-2.2 9.8-15.8 17.8-8.6q2.3 2.1 4.3 4.5c1.8 2 4 .6 5.9-.7q5-3.4 11-4 3.8-.9 7.7-1c5.3.5 7.4 3.1 11.9-2 3-3.3 4.6-9.9 9.3-11.1 3.7-.8 5.5 2.2 7.6 4.5 1.2 1 2.9 1.2 4.3 1.6l6.8 2q3 1.1 6 1c1.6 0 3.4-.5 5-.5 2.7-.1 5 1.7 6.8 3.4s3.7 3.3 5 5.1c2.8 3.4 6 11 11.1 7 3.3-2.7 5.6-6.5 9.4-8.4 1.6-.7 3.6-1 5-2.2 2.2-1.6 3.9-4 6-5.6 3.8-2.8 8.7-1.1 12.7.3 5.5 2 11.4.7 17 0" class="b"/><path d="M10.7 96q3.6-1 6.8-3.2c3.6-2.5 5.7-9.3 11-5.8q2.3 1.5 4.3 3.5c2 2.6 3.6 3.2 6.7 1.7 5.5-2.8 11.7-5 17.9-4.3 2.5.4 5 2 7.6 1.6 8-1.1 9.2-16.8 17.8-13.8 3.3 2.1 3 4.6 7.7 5.4 4.3.9 8.2 3.6 12.7 3.3 2.2-.2 4.6-1 6.8-.6 2.4.6 4.2 2.4 6 4 1.3 1.3 3 2.5 4.2 4 2.3 2.5 4.6 8.9 8.5 8.2 4.7-.7 6.8-6.7 11-8.8 2.2-1 4.9-.7 6.8-2.3 3.3-2.6 5.5-5.5 10.2-4.6 4.3.8 8.3 3.8 12.7 3 4-.8 7.9-2 12-2" class="b"/><path d="M10.7 91.3q3.8-1.5 7.6-3c4-1.8 5.9-7.7 11-5.2q2.8 1.3 5.1 3.2 2.9 3 6.8 1.5c5.4-1.9 11.2-4.5 17-2.7 2.5.7 5 2.3 7.6 1.8 5.1-.9 7.3-6.2 10.2-9.8 1.8-2.1 4.8-4.8 7.7-3.3 2.6 1.9 3 4.6 6.8 5 2.9.6 5.6 2.2 8.5 2.9q3.4.7 6.7-.5c5.6-2 8 .7 12 4 2.6 1.8 4.2 4.8 5.9 7.4 1 1.5 2.3 3.6 4.2 4 5 1 7.5-4.5 11-6.8 1.8-1.3 4-1.1 6-1.6 2.2-.8 3.9-2.7 6-3.7 4-1.9 8.1.9 11.8 2.3 1.9.7 4 1.3 6 .6 4.1-1.4 8.3-2.7 12.7-2.2" class="b"/><path d="M10.7 86.4q2.4-1.1 5-1.8 2.2-.1 4.3-.7c2.3-.8 3.8-3 6-4 4.2-1.4 8.3 1.6 11.8 3.6 2.2 1 4.7.3 6.8-.3 3.6-.9 7.3-2.3 11-1.8 3.1.3 5.7 2.2 8.6 3 7.8 1.5 10-7.3 15.2-11 1.5-1 3.6-1.8 5.1-.5 1 .7 1.9 2 2.6 2.9 1 1.2 2.7 2 4.2 2.3l4.3 1.1c5.3 1.6 8.2-1 12.7-2.8 2.8-1 5.6.4 7.7 2.2 1.3 1.2 3 2.4 4.2 3.8 3 3 4.2 8.8 8.5 10 2 .5 4.3.5 6-.8 2.5-2 4.9-4.6 8.4-4.6 4.8-.4 6-4.9 12-3.6 2.6.6 5 2 7.6 2.8 7 2.6 8.2-3.6 18.6-.8" class="b"/><path d="M10.7 81.3c7-3.3 8 0 12.7-2 1.4-.6 2.8-1.6 4.3-1.9q3-.5 5.9.3c2 .5 4 1.7 6 2.4 3.6.7 7.4-.7 11-1.5 8.9-2.1 10.5 3.6 17.8 3.7 5.9.2 10.4-12.4 16.1-9.3 1.7 1.3 2.6 3.5 4.3 4.7 1.4 1 3.4 1 5 1 3.2 0 6-1.8 8.6-3.6 3.4-2.4 7.7-6 11.9-3.1 2.4 1.7 5 3.7 6.7 6.1 2.5 3.1 3.9 7.6 7.7 9.3 1.9.7 3.9 2 6 1.6 2-.6 3.8-2.3 5.9-3 1.6-.6 3.5-.5 5-1.4 3.6-2.2 6-3.4 10.3-2.3 2.8.8 5.5 2 8.4 2.6q2.6.4 5.1-.6c4.3-1.6 7.8-.7 12 .8" class="b"/><path d="M10.7 76.3c2.6-1.2 5.7-1.7 8.5-.7q2 .8 4.2 1.1 2.3 0 4.3-1 2.5-.6 5-.4c3 0 5.7 1.5 8.5 1.9 5.5.5 10.7-2.8 16.2-1.7s10.4 7 16.1 3.8c2.9-1.5 5.2-4.4 8.5-5 2.7-.5 4.2 2.5 6 4 4 3.4 12.3-7.4 16-9.4 3.6-2.4 7.4-3.2 11.1-.5q3.3 2.3 6 5.4c1.9 2.4 3.4 5.4 5.9 7.3 1.3 1 3 1.8 4.2 2.8 1 .7 2.2 1.7 3.4 2.2 2.1.5 4-1 6-1.6l3.4-1q1.7-1 3.4-2c2.2-1.4 5-1.7 7.6-1.3 4 .6 7.8 2.5 11.9 2.4l4.2-.9c3.6-.6 7 1.1 10.2 2.4" class="b"/><path d="M10.7 71.7a14 14 0 0 1 10.2 1c1.6.6 3.3 1.5 5 1.5 1.5-.1 3-.7 4.3-.8q3.9-.3 7.6.5c4.5 1.2 9.2.4 13.6-.9 5-1.3 9.3 0 13.6 2.3 6.5 3.6 9 2.1 15.3-.4 3.7-1.3 4.7.7 7.6 1.9 2 .1 3.6-1.7 5.1-2.9 3.1-2.3 6-5.2 9.4-7 3.5-2 8-3.5 11.9-1.4a29 29 0 0 1 7.6 6q1.8 2.4 4.3 4 2.3 1.3 4.2 2.8c2.6 2.2 4.5 6.5 8.5 5q3.5-1.1 6.8-3.2a13 13 0 0 1 6.8-2.3c4.6-.3 9 1.5 13.6 1.8 1.6.2 3.4-.3 5-.4 3.8-.4 7 2 10.2 3.3" class="b"/><path d="M10.7 68q3.4-.7 6.8.5c2.4 1 5 2.3 7.6 3 2.8.8 5.7-.4 8.5 0 2.5 0 5.1.5 7.6.7q4.4.2 8.5-.9c4.2-1.2 8.5-1.9 12.8-.4 4.9 1.6 9.2 4 14.4 2.2 2-.5 4-1.4 6-1.4s3.8 1.6 5.9 1q1.6-.4 3.4-1.3l4.2-1.6c3.2-1.4 6.1-3.5 9.4-4.8 6.5-3 10.8.5 16 4 6.7 4 6.8 1 12 8.9 3.7 6 8.3 1.6 12.7-.8q4-1.8 8.5-1.7c3.4 0 6.8.6 10.2.8 2 .2 4-.1 6 0q2.6 0 5 1.3 2.5 1.5 5.1 2.8" class="b"/><path d="M10.7 65.6c7.9-1.1 8.8 2.4 15.3 4 3.3.7 6.8 0 10.1.4q5.1.7 10.2.6 3.5-.5 6.8-1.5c4.1-1.2 8.6-1 12.8-.3 3.9.8 8 1.3 11.8 0 4.3-1.3 5.8-.6 9.4 1.5 7.2 2.8 14.3-4.5 21.2-6 4.6-1.3 7.7.5 12 1.8 2 .7 4.5.6 6.7.6 5.5.9 6 8.2 10.2 11 3 1.4 5.8-1.6 8.5-2.7q2.8-1.1 6-1.7c6-1.1 12.4-.4 18.6-1 4.3.2 7.5 3.5 11 5.4" class="b"/><path d="M10.7 63.8c8.6-2 10.5 3.6 17.8 4.7q4.6.3 9.3.5c3.7 0 7.5.3 11-.6C55.5 66.5 58 65 65 66.1q2.5.4 5.1.4c2.5-.1 5.1-.7 7.6-1a8 8 0 0 1 5.1 1c4.8 3.6 5.2 4 11 2 5.7-1.6 11.2-3.8 17-4.6 3.7-.4 7.5.8 11 0 3-.8 6.1-3.4 8.6-.5 3 3.2 4.2 9.8 8.5 11.4 2.7.4 5-2 7.6-2.5q8.4-2.1 17-3.2 3.3-.5 6.8-.8c4.5.4 7.5 4.4 11 6.7" class="b"/><path d="M10.7 62.2c10.2-2.8 11.6 6.4 24.6 4.7q3.4-.4 6.8 0 3.4 0 6.8-.8c4.8-1 9.3-4.1 14.4-3.6 2 .2 4 1 6 1.3 2.2.3 4.5-.1 6.7-.3 2-.1 4.3.4 6 1.5 4 3.2 5.3 3.4 10.2 1.6 3.5-1 7.3-1.3 11-1.7q4.7-.6 9.3-1.6c3.2-.5 6.6-1 9.4-2.7q2.1-1.3 4.2-3c7.3-3.8 7.7 13.7 14.5 14 1.7-.1 3.4-1 5-1.4q2.6-.4 5.1-.9c4.6-.9 9-2.5 13.6-3.7q3-.8 6-1.1c4.7.5 7.5 5.2 11 8" class="b"/><path d="M10.7 60.5c5.2-1.8 8.2.5 12.7 2.6q3.3 1.4 6.8 1.4c2.5-.3 5-1.1 7.6-1q3 .2 6 .7 3 .1 6-.3c4.4-.7 8.2-3.7 12.7-4.7 2.3-.4 4.6.5 6.7 1.3 3 1.2 6.4.8 9.4 1.8 2.7.7 4.8 3.2 7.6 3.5 2.7.1 5.1-1.3 7.7-1.6 3-.4 6.2-.2 9.3-.3q8.7-.7 16.1-5c2.3-1.4 4-3.5 6-5.2 5-4.9 7.4 1.2 9.3 5.3 1.6 3.3 3 7.9 6.8 9 1.7.3 3.4-.2 5.1-.3q3.5.1 6.8-.8c4.4-1.3 8.4-3.8 12.7-5.2 7.7-3.4 10.6 3.2 15.3 7.8" class="b"/><path d="M10.7 59c6.2-3 9.5 2 15.3 2.8 4 .5 7.8-2.2 11.8-1.5 2 .2 4 1 6 1.5 4.6 1 9.6.6 13.6-2.2 4.7-3 7.3-4.8 12.7-1.8 2.7 1.4 5.7 2 8.5 3 1.8.6 3.4 1.7 5 2.4 3.4 1.6 7-.2 10.3-.8 3.6-.7 7.4-.2 11-.7q7.5-1.1 13.6-5.4 3.2-2.6 6-5.8c3-3.3 6.4-5.5 9.3-.5 2.4 4 3.7 9 6.8 12.7 1.4 1.7 3.8 2 6 2.2 2.4.4 5.1 1 7.6 0 4.5-1.7 8.1-5.2 12.7-6.9 6.6-3.2 10.8 3.9 14.4 8.2" class="b"/><path d="M10.7 57.3c6.4-3.5 10 2.8 16.1 2.2 4.5-1.3 8-3.2 12.7-1 5 2.4 11.2 3.4 16.2.6 2.8-1.6 5.2-4.3 8.5-5.2 4.1-.9 7.3 2.9 11 4q4 1 7.6 2.8 4.6 2.3 9.4 0c3.5-1.4 7.3-1.5 11-1.8 5.4-.7 11-2.4 15.3-5.7 3-2.5 5.5-5.6 8.5-8 1-.8 2.3-.4 3.4-.5h4.2c4.2 4.6 5 12.3 11 15.3 5.9 3.3 8 4.3 13.7-.1 10.5-8.4 14.3-7.9 22 3.1" class="b"/><path d="M10.7 55.8c5-3.2 8 .1 12.7 1.4a9 9 0 0 0 3.4.2c2.2-.6 4.5-1.7 6.8-1.7 2.8-.1 5.2 1.5 7.6 2.5a17 17 0 0 0 8.5 1.1c8-.8 11.1-8.8 17-7.4 2.5.7 4.5 2.5 6.8 3.5 2.4 1 5.1 1 7.6 1.7 2 .5 4 1.6 6 2 3 .6 5.7-1.3 8.5-2.2q3.7-1 7.6-1.4c3.7-.8 7.5-1.5 11-3 3.7-1.3 6.5-4.2 9.4-6.8 1.3-1 2.7-2.4 4.2-3.1h7.6q1.5-.2 2.6.5c2.7 3.7 4.9 8 8.5 11 2.5 2 4.8 5.8 8.5 5.3 3.3-.8 5.7-3.6 8.5-5.4 8.4-5.8 12.9-.7 17.8 6.2" class="b"/><path d="M10.7 53.9c5.6-4 9 .8 14.4 1.7 2.6.5 5-.8 7.6-.9 4.2-.2 7.8 2.7 12 2.7 4 .3 8.4-.9 11.8-3.2 2.4-1.6 4.7-3.9 7.7-4.3 4.7-.3 7.8 4.6 12.7 4.2 2 0 4-.3 6 0 1.9.5 3.9 1.3 5.9 1.4 3 .3 5.7-1.1 8.5-1.9q4.6-1.5 9.3-2.5 5.3-1 10.2-3.4c3.5-2.2 6.5-5.2 10.2-7 1.3-.4 2.9-.1 4.2-.2h7.7c1.3.8 2.4 2.4 3.4 3.5q2 2.3 4.2 4.6c2.3 2 4 5 6.8 6.5 4.8 2.4 9.5-5.5 15.3-6 5.7-.9 9.6 4.4 12.7 8.3" class="b"/><path d="M10.7 51.7c2.6-2 5.5-2.7 8.5-1 2.9 1.5 5.9 3.6 9.3 3.8 3.1-.1 6.3-.5 9.3.2 5.4 1.2 11.1.3 16.2-1.9 2.3-1 4.4-2.9 6.8-3.9 4-2 7.4.7 11 2.5q2.5 1.1 5 .7 2.7-.6 5.2-1.1c2-.3 4 .1 6 .4q3 .3 5.9-.1c3.7-.7 7.3-2.2 11-3.2 3.7-1.2 7.5-2.1 11-3.8 3.7-1.9 7-4.7 11-5.9H138a3 3 0 0 1 2.6 1l2.5 2.2 4.3 3.7 4.2 4.6c5.7 6 10.3-2 16.2-3 5.7-1.2 10 3.9 13.5 7.7" class="b"/><path d="M10.7 49.2c1.8-1.6 4.3-3 6.8-2.3 5 1.7 8.8 7 14.4 7.1A70 70 0 0 0 53 50q2.2-.9 4.3-2.1c7.8-4 10.2 1.9 17 3 2.3.2 4.6-.8 6.7-1.7 4-2 8.5-1 12.8-1.6 5-.6 9.7-2.3 14.4-3.9q4.3-1.5 8.5-3.2 4.5-2.5 9.3-4.1 4.7-.1 9.4-.1 1.6-.1 3.4.2l5 3.5a28 28 0 0 1 5.2 4.1c1.7 1.9 3.5 4.1 5.9 5.1 2.7 1 5.4-.6 7.6-1.9 8-5 12.8-1 18.7 4.6" class="b"/><path d="M10.7 46.4c1.6-1.5 3.7-3 6-3 5.2.8 8.5 5.8 12.7 8.7 4 3.2 8.7-.1 12.7-1.4q4.7-1.7 9.3-3c3.8-1.8 7.6-4.2 12-2.6 3.5 1.4 6.4 4.2 10.1 5 4.8 1.1 8.4-3 12.8-4.3q4.1-1 8.4-1.6 4-.6 7.7-1.7 7.7-2.1 15.3-5.1 4.1-1.9 8.4-3.2h6c5.7-.1 4.5 0 9.3 2.8q2.6 1.2 5.1 2.7c2.2 1.6 4 3.8 6 5.7 2.4 2.4 5.3 3.2 8.5 1.5 2.2-1 4.4-2.4 6.7-3 5.2-1.3 9.7 2.6 13.6 5.3" class="b"/><path d="M10.7 43.3c8.3-8.2 13.9 1.5 19.5 7.2 3.7 4 6.6 1 10.2-1.2 3.6-2.5 8.2-2.8 11.9-5 8.6-4.7 11.8.9 18.7 4.6 6 3 9.6-.3 14.4-3.6 3.3-2.2 7.2-3.2 11-4q10-2.3 19.6-5.5l6.8-2.6c1.6-.6 3.3-1.3 5-1 8-.2 6-.3 12.8 3.4l4.2 1.7c3.5 1.4 5.7 4.8 8.5 7.2q3.9 3.5 8.5 1 3-1.6 6-3c4.8-1.3 9.3 2 13.5 3.8" class="b"/><path d="M10.7 40c5.2-4.9 9.7-4 14.4 1 2.8 2.9 4.7 6.7 7.6 9.4 3.5 2.8 6.6-2.8 9.4-4.3 1.8-1.1 4-1.6 6-2.4C50 43 51.7 41.4 54 41c8.5-1.7 11.2 5.1 17.8 8 6.2 2.7 9.9-.5 14.4-4.4q2.8-2.2 6-3.6t6.7-2.2l12.8-3.5a59 59 0 0 0 8.5-2.8c3.4-1.5 7.2-3 11-1.8 3 .7 5.7 2.5 8.5 3.9 2.1 1.1 4.8 1 6.8 2.4 3.9 2.5 6.3 7.7 11 8.5 2.5.1 4.8-1.5 6.8-2.7 6.2-4 10.7-1 17 .7" class="b"/><path d="M10.7 36.7C16 32 21.3 33 26 38c3 3.2 4.7 7.4 7.6 10.7 1.8 1.8 3.7.2 5-1.3 1.3-1.4 2.7-3 4.3-3.9q2.1-.9 4.3-1.8c2-1.2 4.2-2.8 6.8-2.8q2.6.2 5 1.1 2.3.7 4.3 2c2 1.4 3.8 3.4 6 4.7 3.6 2.5 8.7 3.8 12.7 1.3 2.1-1.3 4-3.3 6-4.9 3.3-3 7.5-5 11.8-6.3q6.7-2.2 13.6-3.7 3.5-.9 6.8-2.2a13 13 0 0 1 9.3-1.2c3.6 1 6.9 2.7 10.2 4.1 2.2 1 4.9.6 6.8 2.1 3.7 2.3 6 6.8 10.2 8 2.1.4 4.2-.8 6-2 2-1.2 4.2-2.7 6.7-3 4-.5 8 1.1 12 1.2" class="b"/><path d="M10.7 33.4c6.4-4.8 12.3-2.5 17 3.2 2.5 3.2 4 7.4 6.7 10.6 2 2 4-.5 5.1-2 1.2-1.5 2.5-3.2 4.3-3.9 3.4-1.1 6.3-4.9 10.2-4 1.7.5 3.4 1.7 5 2.5q2.7.7 5.2 2c5 4 11 9.2 17.8 6 2.9-1.5 5.1-4 7.6-6a40 40 0 0 1 12-6.5c4.5-2 9.5-3 14.3-3.9 4.6-1 7.8-3.3 12.8-1.7q5.6 1.5 11 3.8c2.2.8 4.8.5 6.8 1.9 3.6 2.1 6.5 7.5 11 7.3 2.3-.3 4.2-1.9 6-3q2.3-1.7 5-2.5c2.3-.6 4.6-.3 6.9-.2l6-.1" class="b"/><path d="M10.7 30.2c2.3-1.3 5-2.5 7.6-2.2 4.7.6 8.5 4 11 7.9q1.8 2.8 3.4 6c1.1 1.5 2 4.4 4.3 4.4 1.5-.5 2.5-2.2 3.4-3.5q1.5-2.5 4.3-3.7c5.4-3 7.1-5.8 12.7-.8q1.6 1.3 3.4 1.8 2.3.3 4.2 1c2.9 1.7 5.6 3.8 8.5 5.3 7.3 3.7 12.4-2 17.9-6a67 67 0 0 1 16-8.4q4.2-1 8.6-1.3c2-.2 4-.9 6-1.2q2.9-.5 5.9.1 3.4.7 6.7 1.7l5.1 2c2.2 1 4.8.6 6.8 1.8 3.3 1.8 5.5 5.6 9.4 6.2 2.2.2 4.2-1.3 6-2.5q3-2.4 6.7-3.7c1.9-.6 4-.5 6-.6q3.3-.5 6.7-.7" class="b"/><path d="M10.7 27.1c2.3-1 5-2 7.6-2 4.7.7 8.4 4.4 11 8q2.4 3.6 4.3 7.4c.9 1.4 1.8 3.5 3.4 4.2h.8c2-1 3-3.3 4.3-4.8 1.8-2 4.5-3.2 6.8-4.6 5-3.1 7.3 1.7 11 4 1.5 1 3.4.7 5.1.8 3.5.6 6.4 2.8 9.4 4.6 6.6 4.2 12.3-1.8 17.8-5 3.4-2 6.6-4.5 10.2-6.2 3-1.9 6.5-3.5 10.2-3.4q3 .1 6 0 3.7-.7 7.5-.6 4 .1 7.7 1.5 3 1.4 6 3 1.6.5 3.3.8 1.8 0 3.4.6c4.4 2.1 7.6 7.1 12.8 3.4 3.2-2.2 6.4-4.9 10.2-6q2.5-.5 5-.8c2.3-.4 4.6-1 6.8-.8" class="b"/><path d="M10.7 24.5c2.4-.9 5-2 7.6-2 4.8.3 8.3 4.4 11 8q2.9 4.2 5.1 8.6c1 1.4 1.9 3.4 3.4 4.2h.9c1-.5 2-1.7 2.5-2.6 1-1.3 2.2-2.9 3.4-4q2-1.5 4.3-2.3c2.3-1 4.7-1.2 6.8.5 2.2 1.5 4 4.2 6.8 4.6 6.4-.4 7.4-.1 12.7 3.6 3.9 2.7 7.3 1.7 11-.5L94 38q3-2 6-4 2-1.1 4.2-2.2c2.4-1.2 4.9-2.7 7.6-2.7 2.3 0 4.6.6 6.8.7h6.8q4 0 7.6 1.5c2 1 4 2.4 6 3.3q2 .8 4.2 1.2 2.7 0 5.1 1c3 1.4 6.1 3 9.4 1s6.7-4.4 10.2-6.3c2-1 4.5-1.1 6.7-1.6s4.6-1 6.8-.6" class="b"/><path d="M10.7 22.5c6.6-3 9.7-4.5 15.3 1.3q3.9 4.5 6.7 9.6l3.4 5.7c1 1.4 2.5 3.7 4.3 2.2 2.6-2.4 4-6.7 7.6-7.7 6.4-1.8 8 1 12.8 4.2 3 2 6.8-.3 10.2.8 1.8.5 3.5 2 5 3 2 1.5 4.6 2.3 6.8 1.3 2.7-1.2 5.1-3 7.7-4.3 3.8-1.8 7.3-4.5 11-6.6 3.4-1.3 6.6-3.2 10.2-3.6 3.2-.2 6.2 1.2 9.4 1.7s6.9.5 10.1 1.6q2.7 1.1 5.1 2.5c3 1.3 6.1 2.5 9.4 2.5 7.9.8 7.9 1.6 15.3-2.7l3.4-1.7q2.4-1.6 5-2.6l5.1-1a21 21 0 0 1 6.8-.4" class="b"/><path d="M10.7 20.4c3.4-1.3 7.2-4.4 11-2.6 5.1 2.9 8.7 10 11.9 14.9l3.4 5.2c.7.8 1.5 2 2.6 2.4 4.3-.3 4.6-9.3 11-8.3q4.2.3 7.6 2.7c5.8 4.1 6.4 2.8 12.8 2.2 2.3.1 4.1 1.9 6 3.1 3.1 2.5 5.3 1.8 8.4-.3 3.5-2.4 7.4-4 11-6.2l5.1-3c1.3-.7 3-1 4.3-1.6 3.8-1.3 8-2.4 11.9-.7q3.7 1.5 7.6 2.6c2.5.6 5.2.9 7.7 1.7 4.3 1.7 8.7 4.5 13.5 3.6q3-.2 6-.8 3-.8 6-2 4.7-1.8 9.3-3.8c2-.9 4.5-1.2 6.7-1.6q3.5-.6 6.8-.4" class="b"/><path d="M10.7 18.4c3.8-1.1 7.8-5.4 11.9-2.7 3.4 2.5 5.4 6.6 7.6 10a99 99 0 0 0 8.5 12.1c4.2 3.5 5.9-7.1 10.2-7.3q1.6 0 3.4.6 2.2.6 4.2 1.4c2.3.9 4.5 2.4 6.8 3.2q2.5.7 5.1.4c1.4-.3 2.8-.9 4.3-.7 3.4.4 5.6 4.8 9.3 4 2.2-.7 4-2.3 6-3.4 2-1.3 4.5-2.3 6.7-3.5 2.6-1.3 5-3 7.7-4.1A32 32 0 0 1 115 26c4 .4 7.3 3 11 4.1 2 .7 4 .7 6 1.3 3.1 1 6.1 2.7 9.3 3.4 2 .5 4-.3 6-1l6-1.4q5.8-1.3 11.8-2.7a62 62 0 0 1 16.1-3" class="b"/><path d="M10.7 16.5q2.7-.5 5-2c1.8-1 4-2.4 6-1.5 3.8 2.1 5.5 6.7 7.6 10.2q3.6 6.6 8.5 12.1c4.7 5 6.5-4.7 10.2-6.1 2-.7 4 .7 6 1.2q3.4.8 6.7 2.1c9.8 4.3 9.3 0 14.5 1.5 1.7.7 3.3 2 5 2.7 1.5.4 3.1-.2 4.3-1l4.3-2.4q3-1.4 6-2.6c2.2-1.2 4.4-2.7 6.7-3.7q6.1-2.6 12.7-2.6c4.7.2 8.4 3.5 12.8 4.7q1.6.3 3.4.5 1.6.4 3.4 1.2c2.4.9 5 2.4 7.6 2.4q1.8-.1 3.4-1l4.3-1.5c3.3-.9 6.8-1 10.2-1.2 7.4-.6 14.7-2.3 22-3.7" class="b"/><path d="M10.7 14.8c3.9.5 6-2.6 9.3-3.5 4.6-1 8.8 11.2 11 14.7q2.5 4 6 7.5c4.3 4.3 6.6-2.4 9.3-5 2.6-2.7 5.6.1 8.5.5q3 .4 6 1.1 3.7 1.3 7.6 2.2 2.2.1 4.2-.5c2.9-.9 5.2.6 7.7 1.6 1.7.5 3.5-.2 5-1l4.3-1.7q2.6-.9 5.1-2c2.3-1 4.5-2.6 6.8-3.6a31 31 0 0 1 13.6-2.3c3.6.7 6.8 2.8 10.2 4 1.6.8 3.4.8 5 1.1q2.7.9 5.2 2.1c1.5.7 3.3 1.5 5 1.2 1.5-.3 2.9-1.5 4.3-2a20 20 0 0 1 8.5-1.3c9.4.2 19.1 0 28-3.6" class="b"/><path d="M10.7 13.5c5.2 1.5 6-2.3 10.2-3.1 4.3 0 7.8 12.2 10.2 15.7 1.8 2.6 5.5 8.4 9.3 6.4 3.3-1.9 4.8-8 9.3-6.8 1.1.3 2.3 1 3.4 1.2q2.2.4 4.3.3 3.9 0 7.6 1.1c1.7.5 3.4 1.5 5.1 1.5 2 0 4-.8 6-.6 2.2 0 4.5 1.2 6.7.9l5.1-1.5q3.5-.6 6.8-1.7c6.4-3.2 8.4-5.5 16.2-6 5.6-.8 7.9 2.3 12.7 4q1.6.7 3.4 1c1 .1 2.4.1 3.4.5 2.3.8 4.4 2.2 6.8 2.8 1.9.5 3.6-.8 5-1.7q2-1 4.3-1.2 3.5-.2 6.8 0 6.3 0 12.7.6 4.8.1 9.4-1.6 3-1.3 6-3.2" class="b"/><path d="M10.7 12.3c3.3 1.3 4.8 1.2 7.6-1 1-.7 2.2-1.5 3.4-1.4 4 1.6 6.3 11 8.5 14.8 2.5 4.2 6.4 8.7 11 4 2.3-2.1 4.8-6.3 8.5-4.7q2 .9 4.3 1.2c4-.2 8-1.3 11.9 0 1.6.5 3.3 1.7 5 1.6 2 0 4-.4 6-.3 2.2 0 4.6.8 6.8.3 7-2 9.4-.1 16.1-4.6q5.9-3.8 12.8-3.2 2.7.1 5 1.7c1.9 1.3 3.8 2.7 6 3.3l3.4.7c1 0 2.4 0 3.4.5 2.4.7 5 2.5 7.6 1.7 1.1-.4 2.3-1.3 3.4-1.7q1.6-.6 3.4-.6 2.6.1 5.1.4 3-.1 6-.4c3.4-.4 6.8.8 10.2 1.4 3.2.4 6.6-.5 9.3-2.3 2.1-1.3 4-3.3 6-4.8" class="b"/><path d="M10.7 11.3c1.8.6 4 1.8 6 .7s4.5-4.4 6.7-1.6c5.3 6.8 7 26.4 18.7 14.2 5.8-6 6.7-.8 12.7-1.7 3.9-.8 8-2.1 12-.9 1.8.8 3.8 1.7 5.9 1.5q4.6-.2 9.3.3c1.7 0 3.4-.7 5-.8q3-.1 6-.2c7.7-1.1 10.2-7.4 19.6-5.6 5 .9 7.3 6.4 12.7 6.2q2.2-.2 4.2.2c2.2.5 4.5 1.7 6.8 1.2 2.2-.8 4.4-2 6.8-1.7 2.2.4 4.6.9 6.8.5 2.8-.4 5.6-1.6 8.5-1.1 2.6.3 5 1.7 7.6 2.2 6.7 1 10.5-5.8 15.3-9.1" class="b"/><path d="M10.7 10.4c2.6 1 4.4 2 6.8 0 1-.8 2.1-1.9 3.4-2.2 3.7-.1 6 9.9 7.6 12.8 5 10.2 9 3.5 15.3-.7 3.1-2 6 1 9.3.6 5.3-1 10.9-4 16.2-1.4 2.4.7 5 .3 7.6.6q2.5.2 5 .4 1.8-.1 3.5-.6c3.4-.5 6.8.7 10.2.1 5-1.1 9-5.6 14.4-4.8 5.4.5 7.4 5.2 11.9 6.6 2 .6 4-.3 6-.1 1.9.3 3.9 1 5.9 1 1.4 0 2.9-.6 4.2-.9q2.2-.5 4.3 0c7.8 2.3 10.5-3.5 17-1.5 2.2.6 4.3 2.3 6.7 2.6 6 0 10.2-7.6 15.3-10.3" class="b"/></svg>