<svg xmlns="http://www.w3.org/2000/svg" id="a" width="1920" height="2400" viewBox="0 0 192 240"><defs><style>.b{fill:none;stroke:#fff;stroke-miterlimit:10;stroke-width:.3px}</style></defs><path d="M0 0h192v240H0z" style="stroke-width:0"/><path d="M8.6 225c6.7-.2 13.4-.2 20-.8 3-.1 5.9-.8 8.7-1.2l4.4.5c4.9.4 9.9.7 14.7 1.8 3 .6 5.8 1.5 8.7 1.8q3.5.2 7 .1 42.2.1 84.3 0c4.2-.2 8.2-1.6 12.2-2.3q7.3-1.2 14.8-1.3" class="b"/><path d="M8.6 223.2c7-.2 14-.1 20.9-.7q4.4-.4 8.7-1.4 2.2.2 4.3.5 7 .4 14 1.9 4.2 1.1 8.6 1.9 3 .1 6.1 0h85.2c4.1 0 8.2-1.2 12.2-2q7.3-1.2 14.8-1.4" class="b"/><path d="M8.6 221.5c7.3-.2 14.6-.2 21.8-.8q3.5-.3 7-1l2.5-.5 2.6.3q6.6.7 13 2c3.2.7 6.4 1.7 9.6 2.2h90.4c4.8 0 9.4-1.1 14-2q6.8-1 13.9-1.3" class="b"/><path d="M8.6 219.8c7.3-.3 14.6-.3 21.8-.8a77 77 0 0 0 10.4-1.7l2.6.3q6.6.9 13 2.4 4.3 1.1 8.7 2h91.3c4.7 0 9.3-1.2 14-2q6.3-1 13-1.2" class="b"/><path d="M8.6 218c7.3-.3 14.6-.2 21.8-.8q3.9-.3 7.8-1c2-.4 4-1 6-.4q6.3.9 12.2 2.4 4.3 1.2 8.7 2 2.7.1 5.3 0h86c4.7 0 9.3-1.2 14-2q6.3-.8 13-1" class="b"/><path d="M8.6 216.2c7.8-.4 15.7-.2 23.5-1q5.7-.7 11.3-1.6 5.7 1 11.3 2.4c3.5.8 7 2 10.4 2.5q8.7.1 17.4 0h48.7q13.5.2 27 0c4-.3 8-1.4 12.1-2q6.5-.8 13-1" class="b"/><path d="M8.6 214.3c7.8-.4 15.7-.2 23.5-1q6-.6 12.2-1.6l9.5 2.3c3.8.9 7.5 2.2 11.3 2.7q8.7.1 17.4.1h47.8q13.5.2 27-.1c4.4-.2 8.7-1.3 13-2q6.5-.8 13-.8" class="b"/><path d="M8.6 212.4c7.8-.4 15.7-.1 23.5-1 4.3-.3 8.7-1.3 13-1.4l7.9 2c4 1 8 2.4 12.1 3q8.7.1 17.4 0h47c9 0 18 .3 27 0 4.6-.3 9.2-1.5 13.8-2.2q6.5-.7 13-.6" class="b"/><path d="M8.6 210.5c7.8-.5 15.7-.2 23.5-1l13-1.4 7 1.9c4.3 1 8.6 2.6 13 3.2q8.7.1 17.4.1 36 .1 72.2 0 7.5-.8 14.8-2.3 7-.7 13.9-.6" class="b"/><path d="M8.6 208.5c7.6-.5 15.1-.2 22.6-1 4.7-.3 9.3-1 14-1.2l6 1.7c4.7 1.2 9.2 2.8 14 3.5q8.6.1 17.3 0c23.5 0 47 .3 70.5 0 5.5-.4 11-1.5 16.5-2.5q7-.7 13.9-.4" class="b"/><path d="M8.6 206.4c7.5-.6 15.1-.3 22.6-1q6.6-.6 13-1c2.1.3 4.2 1.2 6.2 1.6 4.9 1.3 9.7 3 14.7 3.7 6.1.3 12.2 0 18.3.1h67c6.4-.5 12.7-1.8 19-2.8q7-.5 14-.2" class="b"/><path d="M8.6 204.2c7.3-.6 14.5-.3 21.8-.9 4.6-.2 9.3-1 13.9-.7l6 1.8c5 1.3 9.8 2.8 14.8 3.6 7.3.3 14.5 0 21.8.1h60.8c7.6-.6 15-2.4 22.6-3.3q6.5-.1 13 .2" class="b"/><path d="M8.6 201.8q8.7-.7 17.4-.6 6.6-.3 13-.7h3.5l14 3.9q4.2 1.1 8.6 1.8c2.9.3 5.9.1 8.7.2h20l52.2-.1c3.8-.3 7.6-1.2 11.3-1.8q6-1 12.2-1.8 7-.1 13.9.4" class="b"/><path d="M8.6 199.3q8.7-1 17.4-.7c4.4 0 8.7-.4 13-.4 2.7.4 5.3 1.5 7.9 2.1q6 1.6 12.2 3 3.4.8 6.9 1.3h64.3q7 .2 14-.1c3.7-.5 7.5-1.6 11.2-2.2q6.5-1.2 13-1.7c5-.3 10 .4 14.9.7" class="b"/><path d="M8.6 196.5q8.7-1.2 17.4-.7h6.1q2.2-.2 4.4.1 5.1 1.6 10.4 3a236 236 0 0 0 13.9 3q5.6 1.2 11.3 1h62.6c3.2 0 6.5.2 9.6-.6q5.5-1.7 11.2-2.8 7.6-1 14.8-1.3 6.6.5 13 1.2" class="b"/><path d="M8.6 193.7q7-.2 14 0c3.4 0 7-.3 10.4.1 4.4.8 8.6 2.5 13 3.5a208 208 0 0 0 20.9 3.8q32.5.2 65.2 0h7q3-.6 6-2 3.3-1.3 7-2c6-1 12.1-1 18.2-1q6.6.6 13 1.5" class="b"/><path d="M8.6 191.9h14c2.8 0 5.8-.2 8.6.2 3 .5 5.9 1.6 8.7 2.4a98 98 0 0 0 9.6 2.2q7 1.2 13.9 2 5.6 1 11.3.7h60.8c2.6.2 4.9-1.3 7-2.5q3-1.6 6-2.5c5.2-1.2 10.5-.8 15.7-.7l7 .1 12.1 1.9" class="b"/><path d="M8.6 190.2c6.7 0 13.4-.3 20 .1 5 .8 9.8 2.9 14.8 3.8 8.3 1.7 16.8 2.4 25.2 3.4 5.8.3 11.6.1 17.4.2h43.5q3 0 6-.2c1.7-.5 3.1-1.8 4.4-2.8q4.8-4.1 11.3-4c6.7-.1 13.4.7 20 .9q6 1.2 12.2 2.2" class="b"/><path d="M8.6 188.4H20q4 0 7.9.3 4.4.9 8.6 2.4 4.3 1.2 8.7 2 7 1 14 1.5 6.4.8 13 1.2c7 .3 13.9 0 20.8.1h35.7c2.3 0 5.1.6 7-1.3s3.5-4.3 6-5.5c1.6-.8 3.5-.7 5.2-.7h6.1c6.1-.1 12.2.7 18.3 1q6 1.5 12.2 2.6" class="b"/><path d="M8.6 186.7h10.5q3.8-.2 7.8.3c3 .5 5.8 1.7 8.7 2.5q4.2 1.4 8.7 2 12 1.3 24.3 2c9.5.8 19.1.7 28.7.7h31.3c2 0 3.8.2 5.2-1.5 1.8-1.8 3-4.6 5.2-5.9 4-.3 8.2 0 12.2-.1 6 0 12.2-.2 18.2.5 4.7.6 9.3 2.2 14 3" class="b"/><path d="M8.6 185h10.5q3.8-.2 7.8.4c3.5.8 6.9 2.3 10.4 3.2 4.3 1.2 8.7 1.6 13 2q11 .5 21.8.8 7 .6 13.9 1h41.7c1.1 0 2.5.2 3.5-.5 2.2-1.8 3.1-5 5.2-6.8 1.4-.3 3 0 4.4-.2h26q4 .1 7.9 1.5 4.3 1.2 8.7 2" class="b"/><path d="M8.6 183.2h7.9q8.3 1.1 16.5 2.7 3.8 1.2 7.8 2 6 .8 12.2 1c6.6.3 13.3-.2 20 0 2.6 0 5.2.6 7.8.8q7.8 1 15.6 1H126c2.4.1 3.9 0 5.3-2 1.1-1.7 2.1-3.9 3.5-5.3 1.3-.4 3-.1 4.3-.2h27.8c2.7-.2 5.3.7 7.9 1.5q4.2 1.3 8.6 2.2" class="b"/><path d="M8.6 181.5H13c1.7.3 3.5 1 5.2 1.3q4.3 1 8.7 1.7 6.5 1.3 13 1.6 6.5 1 13 .8 5.3 0 10.5-.3l10.4-.6q5.7 1 11.3 1.8 6.1.9 12.2 1.1 8.7 0 17.4 0h8.7c1.7 0 3.7.4 5.2-.7 2.3-1.7 3-5.1 5.2-6.7q17.9-.2 35.7 0 3 .7 6 1.9 4 1.2 7.9 2" class="b"/><path d="M8.6 179.7c3 0 5.9 1.5 8.7 2.2q6 1.4 12.2 2.2 5.2.8 10.4.8 3-.2 6.1 0 5.7 0 11.3-.3c3.8-.3 7.6-1 11.3-1.3l4.4-.3 8.6 1.7q9.6 1.7 19.2 2.5h14.8q5.2.1 10.4 0c3.1-1 4.2-4.7 6-7 .7-.6 1.9-.5 2.7-.5h26.9c2.6.1 5.3-.2 7.9.2 2 .5 4 1.5 6 2.2a49 49 0 0 0 7.9 1.9" class="b"/><path d="M8.6 178c3.2 1 6.3 2.4 9.6 3.1a101 101 0 0 0 26 2q3-.4 6.2-.6c7-.2 13.8-2.2 20.8-2.6q6.5 1.4 13 2.7 9.1 1.8 18.3 2.8c6.4.3 12.8 0 19.1.1 4.1.4 5.6-1.1 7.9-4.2.9-1.2 2-2.8 3.4-3.3h29.6c2 0 4.1-.2 6.1.2 2 .8 4 2 6 2.7q4.4 1.4 8.8 1.8" class="b"/><path d="M8.6 176.7q3.9 1.6 7.9 2.8 5 1.4 10.4 1.8c5.4.6 11 1 16.5.3q3.7-.6 7-2.3 2.6-.2 5.2-.8a86 86 0 0 1 12.1-1.7c1.8 0 3.6.8 5.3 1 5.2.9 10.4 2.2 15.6 3.1s10.4 2 15.7 2.5c4.9.5 9.8.3 14.7.3 1.7 0 3.6.2 5.3-.4 3.2-1.3 5-4.8 7.8-6.6 1.3-.7 3-.4 4.3-.5h27c1.4.1 3-.3 4.3.4 4.8 3.9 9.7 4.7 15.7 5" class="b"/><path d="M8.6 175.4a63 63 0 0 0 25.2 4.9c4.7 0 9.7.1 14-2 1.7-.8 3-2.5 4.3-3.7q4.4-.1 8.7 0c2.3 0 4.7-.3 7 .1 4.2.9 8.7 1.3 13 2.2q12 2.5 24.3 4.5 5.6.8 11.3.6c2.6 0 5.5.3 7.8-1 2.3-1.2 4.1-3.2 6.1-4.7q1.6-1.3 3.5-1.7h28.7c1.1 0 2.5-.3 3.5.2 1.3 2 2.9 4 5.2 4.8 3.9 1.3 8.1 1 12.2 1.1" class="b"/><path d="M8.6 174c6.2 3 13.2 4 20 4.3 5 .2 10 .5 14.8-.6q3-.8 5.2-2.9c.8-.6 1.6-1.8 2.6-2h7.9c3.4 0 7-.2 10.4.3 5.2.7 10.5 1.2 15.6 2.4l13 2.3q4.5.9 8.8 1.6c4.8.8 10 1.3 14.7.4 3-.9 5.4-3 7.9-4.8 2.6-2 5.4-2.4 8.7-2.2h25.2l.8.8c.3 1 .7 5.7 1.8 6.3 1.9.6 4 .3 6 .3q5.7-.1 11.4-.5" class="b"/><path d="M8.6 172.5c6 3 12.6 3.8 19.2 4 4.6.1 9.3.3 13.9-.7 2.7-.6 5-2.3 7-4.3.6-.6 1.7-.5 2.5-.5h13.1q3.9 0 7.8.6 3.5.2 7 .7l20.8 3.4c6.8 1.2 13.9 3.6 20.9 2 4.4-1.2 7.8-4.7 12.1-6q3.5-.7 7-.6t7 .2c4.6.4 8.7 3 12.1 6.2.3.3 1.3.9 1.7 1h22.7" class="b"/><path d="M8.6 170.9a41 41 0 0 0 17.4 3.7c4.6.1 9.4.3 14-.7q3.4-.8 6-3.3c1.9-1.6 4.7-1.3 7-1.3h7.8q5.7-.1 11.3.5 4 .2 7.8.6l20.9 3c5.7 1 11.5 3 17.4 2.6 4.7-.5 8.6-3.7 13-5.3 4.7-1.6 10-1.5 14.8-.3 3.6 1 6.6 3.3 9.5 5.4 1.8 1.4 4.1 1 6.1 1h3.5c1.4-.4 3-1.2 4.4-1.5 2-.7 4-.4 6 0l7.9.8" class="b"/><path d="M8.6 169.1a36 36 0 0 0 15.7 3.5q6.5.4 13-.5l3.5-1 1.7-.7c3.3-.6 6.4-2 9.6-2.7 3.4-.4 7 0 10.4-.2q4.8 0 9.6.6 4 .2 7.8.5 10.8 1.3 21.7 2.7l9.6 1.8c2.8.6 5.9 1 8.7.2 3.9-1.1 7.5-3.1 11.3-4.3 4.2-1.2 8.9-1.2 13 .1q4.3 1.7 7.9 4.3c1.2.8 2.7 1.8 4.3 1.6q2.8.3 5.2-1c4.3-4 9.2-4.4 14.8-3.2a26 26 0 0 0 7 2.4" class="b"/><path d="M8.6 168c1.5-.1 3 .6 4.4 1q3 1 6 1.3 7 .8 14 .2l4.3-.8a56 56 0 0 0 7-1c3.5-.6 7-2 10.4-2.7 1.7-.3 3.5-.1 5.2-.2l6.1.1q6.5.6 13 1l11.4 1.2c7 .5 14 1 20.8 2.5q3.5 1 7 .5c5.3-.8 10.2-3.6 15.6-4.3a22 22 0 0 1 15.7 4.3c1.5 1 3.3 2.3 5.2 2.2 2.2.1 4.4-1.1 6-2.5 1.2-.9 2.2-2.5 3.6-3 3.9-1.2 8.2-.7 12.1 0l4.4 1q1.2.8 2.6 1.2" class="b"/><path d="M8.6 166.9c2 .2 4.2.1 6.1.7q3.9 1 7.8 1 5.7.3 11.3-.5 4.9 0 9.6-.7c4.7-.6 9.3-2.2 14-3.2a47 47 0 0 1 9.5.3q6 .5 12.1.8 6.1.8 12.2 1.1c6.7.4 13.4.4 20 1.7q3.5.8 7 .5l6-1.3c8.2-2.4 15-3.6 22.6 1.3 5.7 3.9 7.4 4 13-.2q1.5-1 2.7-2.2c.5-.8 1.7-1.2 2.6-1.2 6.1-.6 12.3.6 18.3 2.1" class="b"/><path d="m8.6 165.6 7.9.5q3.4.4 6.9.5 3 0 6-.2 7 .2 14-.7c5.6-.6 11-2.3 16.5-3.3q4.4.2 8.7.8 5.3.5 10.4.8 6.1.7 12.2.9c7 .1 14-.3 20.9.8q3 .5 6 .3c.8-.1 2-.3 2.7-.6q2.2 0 4.3-.5c6.1-1.4 12.4-2.4 18.3.6 2.3 1.1 4.5 2.9 7 4 4 1.7 9.7-4.1 13-6.2.6-.5 1.8-.5 2.6-.5h4.3q6.7.4 13 2.1" class="b"/><path d="M8.6 164.2q7.5.4 14.8.4 10 .3 20-.5 5.7-.6 11.3-2c2.3-.3 4.6-1.3 7-1.2l10.4 1.4q8.3.9 16.5 1.3c5.2.1 10.5-.5 15.7-.6 5.5-.4 11 1.3 16.5 0 7.7 0 14-3 21.7.8 3 1.2 5.5 3.8 8.7 4.3 4.6-1 8.1-4.5 12.2-6.6.6-.5 1.8-.7 2.6-.6a79 79 0 0 1 17.4 2" class="b"/><path d="M8.6 162.6q7.5.4 14.8.3 8.3 0 16.5-.3c7.4-.4 14.6-1.9 21.8-3 10.5 1.7 21.4 3.5 32.1 2.6 5.8-.5 11.6-1.5 17.4-1.4q4.8.5 9.6-.3 3.5.3 7 0c5.3-.8 10.9-.5 15.6 2.5 2.2 1.2 4.3 3.2 7 3.3 4.6-1.3 8.5-4.8 13-6.6 2-1.1 4.6-.5 7-.6q6.5.4 13 1.7" class="b"/><path d="M8.6 161q8.7.1 17.4 0a190 190 0 0 0 35.7-2.7l7 1.4a96 96 0 0 0 20.8 1.8c5.5-.2 11-1.7 16.5-2.5 4.6-.8 9.3-.2 13.9-1 4 .8 8.1.4 12.2.4q5 0 9.5 2.5c2 1.1 4 2.6 6.1 3.4 1.5.6 3-.3 4.4-1l5.2-2.7q4-2.2 8.7-3.4a94 94 0 0 1 17.4 1.7" class="b"/><path d="M8.6 159.3q8.7 0 17.4 0 14 0 27.8-1.3c3-.1 5.9-.7 8.7-.7l6.1 1.4c7.4 1.5 15 2.6 22.6 1.8 4.8-.5 9.3-2.2 14-3.2 4.5-1.2 9.2-1.1 13.8-1.6q3.5.6 7 .9c9.4 0 11 .3 19.1 5.3q1.2.8 2.6.9l1.8-.6 5.2-2.6q5.8-2.9 12.2-4 8.3 0 16.5 1.4" class="b"/><path d="M8.6 157.5q9.1 0 18.3-.2 13.5.1 27-.7l8.6-.3 4.4 1.2c8.7 2 18 3.5 27 1.7 3.8-.8 7.5-2.6 11.2-3.8q5.2-1.5 10.5-1.7c3.5-.4 7 .7 10.4 1q3.5 0 7 .4 3.1.7 6 2.2c7.8 4.5 5.7 4.8 14 .7 4.8-2.3 10.3-3.4 15.6-4.2q7.5.3 14.8 1.4" class="b"/><path d="M8.6 155.8c9.3-.1 18.6-.5 27.9-.4 7.8 0 15.6-.3 23.4 0q2.8 0 5.2.8 3 .8 6.1 1.4 9 1.9 18.3 1.4 4.6-.4 8.7-2c3.7-1.7 7.2-4 11.3-4.8 2.5-.5 5.2-.2 7.8-.3 3-.2 5.8.5 8.7.8 3.8.4 7.9.5 11.3 2.5 2 1.1 4 2.6 6 3.6 2.2 1.2 4.3-.8 6.2-1.5q3-1.6 6-2.5 4.8-1.2 9.6-1.8c2-.2 4.1-.7 6.1-.7q6.1.4 12.2 1.2" class="b"/><path d="M8.6 154c8.7-.2 17.4-.7 26.1-.4 7.8.2 15.7 0 23.5.7q4.4.3 8.7 1.6 4.3 1 8.7 1.5c3.4.4 7 .1 10.4.2 4 0 8.4.3 12.2-1.5q3-1.7 6-4 3.1-2.1 7-2h7.8q4 .2 7.8.9 3.7.3 7 1.3c3.4 1.2 6 4.2 9.5 5.2 2.8-.7 5.2-2.5 7.9-3.4q5-1.8 10.4-2.1 5.7-.4 11.3-1.1 5.3.2 10.4 1" class="b"/><path d="M8.6 152q8.7-.2 17.4-.4 14.4.1 28.7 1.3c5.6.4 11 2.2 16.5 2.8q3 .3 6.1-.2 4.8-.4 9.6-.1c3.4.4 7 .9 10.4.3 2-.6 3.7-2.3 5.2-3.7s3.1-3.3 5.3-3.6h10.4q4.8 0 9.5.9 5.3.6 9.6 3.9c1.6 1 3.3 2.6 5.2 2.5l2.6-1.2c6.3-4 13.8-3.9 20.9-4.1q5.3-.2 10.4-.8l7 .7" class="b"/><path d="M8.6 150.2c5.5 0 11-.5 16.6-.5q12 .3 24.3 1.5 5.7.6 11.3 1.7c3.1.6 6.4 1.6 9.5 1 5.2-.6 10.4-1.9 15.7-1.5 3.2.3 6.3 1.8 9.6 1.8 1.4 0 3 .2 4.3-.6 1.4-.8 2.6-2.3 3.5-3.7 1.4-2.5 2.1-3.5 5.2-3.2h7c2.8 0 5.8-.2 8.7.2s6 1 8.6 2.4c2.7 1.4 5 4 7.9 4.8 2.4-.7 4.5-2.5 7-3.4 5.4-2 11.5-1.5 17.3-1.5q4.8 0 9.6-.3l4.3-.5q2.2 0 4.4.4" class="b"/><path d="M8.6 148.3c5.5 0 11-.5 16.6-.4a227 227 0 0 1 31.2 3.3c2.6.4 5.3 1.2 7.9 1.1q6.5-.9 13-2.4 4.3-1.1 8.7-1l4.3 1.6c2.6.9 5.1 2.1 7.9 2 1.5.1 3.2-.4 4.3-1.5 1-1 2-2.7 2.6-3.9.2-.5 1.1-2 1.8-2.1h13q4.6-.3 8.7 1.1c2.6.7 5 2.3 7 4 2.9 2.2 3.6 3.1 6.9.8 6-4.3 13.8-3.3 20.8-3q6.1.3 12.2 0c2.6-.1 5.3-1 7.8-.6" class="b"/><path d="M8.6 146.4c6.1 0 12.2-.6 18.3-.2 10.2.7 20.3 2.5 30.4 4.2 3.2.5 6.5-.6 9.6-1.2q4.3-1 8.7-2.2 4.2-1.3 8.7-2.2 4.2 2.4 8.6 4 2.2 1 4.4 1.7 1.7.3 3.5.2c2.6-.2 4-3 5.2-5 .3-.7 1-2.1 1.7-2.5h16.6q3.1.7 6 2.1c2.4 2 4.8 4.4 7.9 5.3 1.8-.5 3.5-1.7 5.2-2.5 2.7-1.3 5.6-2.4 8.7-2.2 4.6 0 9.3.6 13.9.8q8.8.4 17.4-.9" class="b"/><path d="M8.6 144.6c5.5.1 11-.4 16.6 0 7.5.5 15 2 22.6 3.3 2.8.4 5.8 1.2 8.6.7a55 55 0 0 0 8.7-2l7.9-2.1c3.1-1 6.2-2.7 9.5-3q1.8.9 3.5 1.8 3.8 1.9 7.8 3.5c2.5 1 5 2.4 7.8 2.2 4-.2 4.6-5.2 7-7.5q7.8-.1 15.6 0c3.4 1 5.8 3.8 8.7 5.5 3.8 2.2 4 2.2 7.9.3q5.3-2.7 11.2-3.2 5.3.4 10.5 1 10.6 1 20.8-.4" class="b"/><path d="M8.6 142.8c6.7.4 13.4-.4 20 .9l14 2.6c2.8.4 5.8 1 8.6.5q4.9-.6 9.6-2c1.7-.5 3.4-1.5 5.2-1.8q3-.7 6.1-1.7c1.7-.6 3.5-1.4 5.2-1.6h5.2c1.5.4 3 1.3 4.4 1.9l5.2 2.1 5.2 2.1c2.4 1.1 5.6 2.4 7.9.5 1-.9 2-2.5 2.6-3.8.2-.7 1-2.2 1.7-2.5 1.3-.4 3-.2 4.4-.3 10.9-.5 11.2 2.5 20 6.7q1.2.6 2.5.5 2.3-.8 4.4-1.8a33 33 0 0 1 14-2.4l8.6 1q10 .8 20-.4" class="b"/><path d="M8.6 141c5.5.6 11.1.6 16.6 1.5 6 1 12 3 18.2 2.8q8-.9 15.7-3.3 2.6-.8 5.2-2l6-1.5c2.6-.8 5.3-.5 7.9-.5 2 0 4.2-.3 6 .5 4 1.8 8.2 3.1 12.2 4.7 2.6 1 5 2.7 7.9 2.3 3-.8 4.2-4.5 7-5.7 5.7-2.3 12.1.3 17.3 3q3 1.6 6.1 2.5l3.5-1.2a43 43 0 0 1 17.4-2.8c2.8.2 5.8.8 8.7 1q9.5.6 19-.5" class="b"/><path d="m8.6 139.5 10.5 1.6q6.8 2 13.9 2.6c4.7.3 9.3-1 13.9-2a86 86 0 0 0 17.4-5c4-.8 8.1-.3 12.1-.4h6.1c2.4.6 4.7 1.7 7 2.4 2.9 1 5.9 1.7 8.7 3 2.5 1 5 2.8 7.8 1.8 2.5-1.1 4.2-3.6 7-4.3 6.3-1.8 12.4 1.5 18.2 3.7q1.3.4 2.6.6l5.3-1.7a38 38 0 0 1 10.4-1.8h7.8q3.9.4 7.8.7 9 .5 18.3-.4" class="b"/><path d="m8.6 138.3 10.5 2.8q5.2 1.2 10.4.8c4.1-.3 8-2 12.2-2.7 5.7-1.3 11.7-2 17.4-3.7 1.3-.4 2.9-1 4.3-1h18.3c1 .1 2.4.6 3.4 1 3.7 1.3 7.6 2 11.3 3.3q2.3.8 4.4 1.9c1 .5 2.3 1.3 3.5 1.3 1.9.3 3.6-.7 5.2-1.7q2.4-1.5 5.2-2a23 23 0 0 1 11.3 1.4l4.4 1.5q1.6.8 3.4.2c3.7-1.2 7.5-2.4 11.3-2.7q9.6-.6 19.2.4 9.5.3 19-.5" class="b"/><path d="M8.6 137.7c2.8 1.3 5.7 2.5 8.7 2.5q2.6.2 5.2-.4 3.5-.6 7-1.4 2.2-.6 4.3-1.8 1.6-1 3.5-1.2c6.4-1 12.8-1.2 19.1-2.3 2.6-.5 5.3-.3 7.9-.3h17.4c3.1.8 6.3 2 9.5 2.6q4.6 1 8.7 2.7c3 1.5 5.4 3.1 8.7 1.5q3.3-1.7 7-2.3 5.2-.5 10.4 1.3c2.2.5 4.6 1.9 7 1q4.2-1.3 8.6-2.2 6.5-.7 13-.4l9.6.4q9.6.3 19.1-.4" class="b"/><path d="M8.6 137.9c1.3.7 3 .6 4.4.6 3.2.1 6.4-1.2 9.5-1.9q5-1 9.6-2.8c2-.8 3.9-2.6 6-2.8h42.7c3.2.7 6.4 1.8 9.6 2.4q4.5.8 8.6 2.3c3.3 1.6 6.8 3.9 10.5 2.1q6.7-2.6 13.9-1.1l4.3 1c1.1.3 2.4.8 3.5.5 3.7-1 7.5-2.3 11.3-2.6 5-.5 9.9-.1 14.8 0q13 .5 26-.3" class="b"/><path d="M8.6 136.8h2.6q2.7-.8 5.3-1.7c3.4-1 7-1.6 10.4-2.6 3-.7 5.8-2 8.7-3 1.6-.4 3.5-.1 5.2-.2h38.3c2.9.1 5.8 1.4 8.6 1.8 3.5.8 7.2 1 10.5 2.5 3 1.2 6.1 3 9.5 3.1q3-.6 6.1-1.4 5.7-1 11.3.5l4.4.8 4.3-1q4.7-1.5 9.6-1.8c5.2-.2 10.4.3 15.6.3q12.2.1 24.4-.5" class="b"/><path d="M8.6 134.9c5.4-3.7 12.2-3.6 18.3-5 2.9-.6 5.8-1.7 8.7-2.3q9.5-.2 19.1 0H79c4.1.6 8.1 1.9 12.2 2.4s7.6 2.2 11.3 3.5q3 1 6.1 1.4c2.6-.3 5.2-1.1 7.8-1.3a29 29 0 0 1 7.9.6c1.6.2 3.5.8 5.2.4 4.3-1 8.6-2.2 13-2.4 5.2-.3 10.5.2 15.7.3 8.4.2 16.8-.4 25.2-.6" class="b"/><path d="M8.6 129.9c2.2-1 4.7-1 7-1.3q5.2-.1 10.4-.9c3.2-.4 6.4-1.4 9.6-1.9h42.6c2.9.3 5.7 1.3 8.6 1.7 5.1.6 10 2.2 14.8 3.8q2.6.9 5.3 1.3c1.3.3 2.9.7 4.3.3q3.9-.7 7.8-.7 3 .2 6.1.6c3 .6 5.8-.6 8.7-1.2q5.2-1.1 10.4-1.2c6.1 0 12.2.6 18.3.5 7-.1 13.9-.8 20.8-.6" class="b"/><path d="M8.6 124.1a43 43 0 0 0 17.4 1.4c3.5-.3 7-1.3 10.5-1.4h41.7l7 1.4c8.7 1.3 17.1 4.8 26 5.9q3.9-.6 7.8-.6c2.6 0 5.3.5 7.8.4 4.4-.8 8.7-2 13-2.3 6.7-.5 13.4.4 20 .3 7.9 0 15.7-.7 23.5-.5" class="b"/><path d="M8.6 122.3H13q4.3.8 8.7 1.2c4.6.2 9.3-.8 13.9-1.2h41.7q11 2 21.7 4.6 4.4 1 8.7 2 2.6.4 5.3.7l3.4-.3c3.2-.2 6.5.4 9.6.1 4.9-.8 9.8-2.2 14.8-2.3 6.3-.2 12.7.5 19.1.4 7.8 0 15.7-.6 23.5-.4" class="b"/><path d="M8.6 120.6h7.9q3.8.6 7.8.8c4.3 0 8.7-1 13-.8H73q3.9-.2 7.8.7l20.8 4.4c4 .7 8.1 1.7 12.2 2.1 1.7.2 3.5-.1 5.2 0 2.3 0 4.7.2 7-.2 4.9-.9 9.8-2.2 14.8-2.2 6.3-.2 12.7.5 19 .5 7.9 0 15.7-.6 23.5-.4" class="b"/><path d="M8.6 118.9h10.5q3.4.3 7 .4c9.7-.6 19.6-.4 29.5-.4h21.7q3 .5 6 1.3l20 4c5.5.9 11 2 16.6 2 7.6-.2 15-3 22.6-2.6 5.8 0 11.6.5 17.4.5 7.8 0 15.6-.5 23.5-.2" class="b"/><path d="M8.6 117.1h47q10.9 0 21.7.1c3.2.5 6.4 1.6 9.6 2l19 3.5c5 .8 10 1.9 14.9 1.5 4.4-.1 8.7-1.1 13-1.8q4.7-.7 9.6-.5 8.3.3 16.5.5c7.8 0 15.7-.4 23.5-.2" class="b"/><path d="m8.6 115.4 16.6.1c10-.3 20.2 0 30.4-.1h20.8c3 .2 5.8 1.3 8.7 1.8l20 3.3c5.2.8 10.4 2.1 15.7 1.8 4.3-.1 8.7-1 13-1.7q4.7-.6 9.6-.5 8.3.5 16.5.5 11.8-.1 23.5 0" class="b"/><path d="M8.6 113.6q8.2 0 16.6.2c10.4-.3 20.8-.1 31.3-.2h20.8q3 .6 6.1 1.5c6.6 1.3 13.4 2 20 3.2 5.8.8 11.5 2.4 17.4 2q6.1-.2 12.2-1.4 4.8-.6 9.5-.5c5.5 0 11 .5 16.5.5q12.2-.1 24.4 0" class="b"/><path d="M8.6 111.9q8.7 0 17.4.2 15.3-.3 30.5-.2h21.7l4.3 1.2c6.9 1.5 14 2.1 20.9 3.2 5.7.8 11.5 2.4 17.4 2.1 7 0 13.8-2 20.8-1.8 5.5 0 11 .5 16.6.5q12.6 0 25.2.2" class="b"/><path d="M8.6 110.2h69.6q2.2.3 4.3 1c6.9 1.6 14 2 20.9 3 6 .8 12 2.6 18.2 2.3q4.5 0 8.7-.7 5.2-1 10.5-1c5.8 0 11.6.5 17.4.6q12.5 0 25.2.2" class="b"/><path d="M8.6 109c2.2-1 4.7-.4 7-.6H79c2.6.4 5.2 1.3 7.9 1.7q6 1 12.1 1.6c6.1.6 12.2 1.9 18.3 2.7q3.9.2 7.8.1c3.8 0 7.6-.8 11.3-1.3q7-.3 14 .2c11 .4 22 .1 33 .6" class="b"/><path d="M8.6 107.8q1.8-.8 3.5-1.1H80c2.6.3 5.2 1.2 7.8 1.6q7.5 1 14.8 1.8 7.5 1 14.8 2.3 5.2.5 10.4.3c3.5-.2 7-1 10.5-1.3q7.8 0 15.6.4c9.9.2 19.7 0 29.6.5" class="b"/><path d="M8.6 106.7c1.7-.5 3.5-1.5 5.3-1.7h66.9c2.6.2 5.2 1 7.8 1.4q5.7.8 11.3 1.4c6.1.4 12.2 1.6 18.3 2.7q5.2.6 10.4.3c3.8-.1 7.5-1 11.3-1.1q7.4 0 14.8.4c9.5.2 19.1.1 28.7.6" class="b"/><path d="M8.6 105.5q3-1 6.1-2.1c3.4-.4 7-.1 10.5-.2h55.6q3 0 6 .8 3.5.8 7 1.1c5.5.7 11 .9 16.5 1.9q4.5.7 8.7 1.7 5.3.5 10.5.3 5.2-.4 10.4-1l14.8.3q14.3.1 28.7.7" class="b"/><path d="M8.6 104.2c3-.6 5.8-2.2 8.7-2.7H79q3-.2 6.1.1 5.7 1.3 11.3 1.8 6.6.4 13 1.3l7 1.3c1.1.2 2.4.8 3.5.9q5.2.5 10.4.3 5.2-.4 10.5-1 7.3.1 14.7.4 14 .1 27.9.8" class="b"/><path d="M8.6 102.8c3.6-.6 7-2.5 10.5-3h58.2q4.3-.2 8.7 0 3.9.7 7.8 1.3c5 .6 10 .7 14.8 1.4q4 .5 7.8 1.4 2.1.8 4.4 1.2 5.6.6 11.3.2c3.4-.1 7-.7 10.4-.7 13.6.3 27.3.3 40.9 1.2" class="b"/><path d="M8.6 101.3a52 52 0 0 0 7-1.9c2-.6 4-1.5 6-1.4l34 .1q14.3-.1 28.7-.1c4.4-.2 8.6 1.2 13 1.5 4.6.4 9.3.5 14 1.3l6 1.2q1.7.8 3.5 1.1 5.6.7 11.3.5c3.4-.2 7-.7 10.4-.6 13.6.2 27.3.2 40.9 1.2" class="b"/><path d="M8.6 99.7c4.5-.6 8.7-2.5 13-3.3 6.4-.3 12.8 0 19.2-.2 4.6 0 9.3.6 14 .6q5.2-.2 10.3-.6h23.5q3.5.4 7 1 6 .7 12.1 1.1 5.2.6 10.5 1.9 3.7 1.5 7.8 1.6c5.5.4 11-.5 16.5-.5 13.6.2 27.3.2 40.9 1.4" class="b"/><path d="M8.6 98q4-.6 7.9-1.7 3.8-1.4 7.8-1.8l15.6.1c6.7.5 13.4 1.2 20 .7q3.9-.3 7.8-.8h20.9q3.9 0 7.8.8l9.6 1q6.1.4 12.1 2 1.8.3 3.5 1 2.6.6 5.2.7c5.2.3 10.5-.3 15.7-.3 13.6 0 27.3 0 40.9 1.5" class="b"/><path d="M8.6 96.4c5.6-.7 11-3 16.6-3.5q6.5-.3 13 .1c7 .6 13.9 1.5 20.8 1.1 3.8 0 7.6-1 11.3-1.3h21.8c2.6 0 5.2.6 7.8.9l9.6 1c5 .4 9.9 2 14.7 3.1 7.2 1 14.6.2 21.8.3 12.4 0 25 .1 37.4 1.8" class="b"/><path d="M8.6 94.6c5.6-.6 11-2.9 16.6-3.3 11.3-.9 22.5 2.3 33.8 1.6a54 54 0 0 0 7.9-.8c2.2-.4 4.6-1.2 7-1q10.8-.1 21.7 0 5.2.7 10.4 1.3 8.9.8 17.4 3.4 5.6 1 11.3 1c10.4-.2 20.9-.5 31.3 0l9.5.8c2.6.3 5.3 1 7.9.3" class="b"/><path d="M8.6 92.8c5.3-.6 10.4-2.5 15.7-3.1 6.4-.7 12.8.3 19.1 1.1q8.3 1.1 16.5.9 4.5-.1 8.7-1c2-.4 4-1.3 6.1-1.4h15.7c3.4 0 7-.2 10.4.4 5.5.9 11.1 1.2 16.5 2.6 2.9.6 5.8 1.6 8.7 2.2q6.5 1 13 .7 13-.5 26.1.1c4 .2 8.2.9 12.2 1.2l6-1" class="b"/><path d="M8.6 91c5.6-.7 11-2.8 16.6-3.1 6-.4 12.2.7 18.2 1.6q9.6 1.4 19.1.9 4.6-.2 8.7-1.4c2-.4 4-1.6 6.1-1.4h14.8c3.5 0 7-.2 10.4.4 4.4.7 8.8 1.1 13 2s8.1 2.4 12.2 3c6.6 1 13.4.7 20 .6q10-.2 20 .7c1.7.1 3.6.5 5.3.4q5.2-.5 10.4-1.7" class="b"/><path d="M8.6 89c5.9-.8 11.5-3 17.4-3 5.9-.2 11.6 1.2 17.4 2q10.5 1.6 20.9 1 4.4-.1 8.7-1.4c2-.5 4-1.9 6-1.8h14.8c3.5 0 7-.2 10.5.5 4.6.8 9.3 1.3 13.9 2.4q4.8 1.4 9.5 2.6 4.4.8 8.7 1c8.4.1 16.9-.3 25.2.3 7.3 1 14.6-.9 21.8-2" class="b"/><path d="M8.6 87c4.1-.6 8.1-1.8 12.2-2.5q3.9-.5 7.8-.3c5.3.3 10.4 1.9 15.7 2.6q10.8 1.6 21.7 1 4.6-.2 8.7-1.6c2-.6 4-2 6-2.1h14.9c3.1 0 6.4-.2 9.5.4 4.3.9 8.8 1.3 13 2.4 4.7 1 9.2 3 14 3.5q7.7.6 15.6.5l12.2.3c7.9-.4 15.7-1.9 23.5-3" class="b"/><path d="M8.6 85c3.8-.7 7.5-1.9 11.3-2.4q5.7-.6 11.3 0c4.7.8 9.3 2.3 14 3q9.9 1.5 20 1.1 5.2 0 10.4-1.6c2.4-.6 4.5-2.4 7-2.8h13.8c2.9.1 5.9-.2 8.7.3 4.6.9 9.3 1.5 14 2.6 4.8 1.2 9.6 3.1 14.7 3.7 9 1 18 .5 27-.2 7.5-.7 15-2 22.5-2.4" class="b"/><path d="M8.6 82.7q4.4-1 8.7-1.9 3-.3 6.1-.2c3.8 0 7.7-.2 11.3 1a94 94 0 0 0 30.4 4c4.4-.1 9-.4 13-2 2.2-.8 4-2.5 6.2-3h20q3.4.5 7 1.2 4.7.7 9.5 1.9c5.4 1.5 10.8 3.6 16.5 4 3.5.3 7-.4 10.4-.5 12-.5 23.7-2.7 35.7-2.7" class="b"/><path d="M8.6 80.2q3.5-.9 7-1.3h7.8c3.8 0 7.7-.5 11.3 1 10 3.9 20.7 4.6 31.3 4.5 5-.1 10.2-.3 14.8-2.5 1.8-.8 3.3-2.4 5.2-3h19.1q3 .2 6.1 1l7.8 1.5c4.2.8 8.1 2.5 12.2 3.5q3.5.9 7 1.2l6-.6q8.3-.7 16.6-1.9c7.5-.5 15-1 22.6-.6" class="b"/><path d="M8.6 77.6c4.3-.9 8.8-.3 13-.5h7c1.7 0 3.6-.2 5.2.6 3.4 1.4 6.9 3 10.5 3.7 7.7 1.6 15.6 1.9 23.4 1.8 4.7-.1 9.6-.2 14-2.1q2.8-1.4 5.2-3.5c1-.7 2.3-.4 3.4-.5q8 .2 15.7 0c3.2 0 6.4 1.2 9.6 1.7q4.4.6 8.7 2 3.5 1.1 6.9 2.2 3 .9 6 1.3c2 0 4.2-.5 6.2-.7l16.5-2.3q11.8-.6 23.5.1" class="b"/><path d="M8.6 75.4h21.7c1.2 0 2.5-.2 3.6.3 3 1.6 6 3.5 9.5 4.3 8 1.9 16.2 2 24.4 2 5.2-.1 10.7 0 15.6-2a14 14 0 0 0 3.5-2.2q.8-.9 1.7-1.3c6.1.2 12.2-1.1 18.3-1.1 3.2 0 6.4 1 9.5 1.6a82 82 0 0 1 15.7 4.4q2.6.8 5.2 1.2c2-.1 4.1-.7 6.1-1q7.5-1.1 14.8-2.5 12.6-.2 25.2.8" class="b"/><path d="M8.6 73.6h15.7c3.1.2 6.4-.2 9.5.3 1.3.3 2.4 1.5 3.5 2.2q2 1.4 4.4 2.2c7.2 2.4 15 2.1 22.6 2.4 6.3 0 12.9.4 19.1-1q2.3-.6 4.4-2.1 1.2-.6 2.6-.7c6-1.1 12-2.6 18.2-3.2 3.2 0 6.4 1.1 9.6 1.6 5 .8 10 2.6 14.8 4.4q2.5 1 5.2 1.1l5.2-1 14-2.9q13 .3 26 1.4" class="b"/><path d="M8.6 72h14.8c2.9 0 6-.5 8.7.5q3 1.3 6 3 1.7 1.3 3.6 1.9 4.6 1.4 9.5 1.5l11.3.3c7.3-.2 14.6.5 21.8-.3 2.3-.3 4.6-1.4 7-2 6.2-1.7 12.6-3.8 19-4.9 2.7-.1 5.3.9 7.9 1.3q8 1.4 15.6 4.7 2.2.8 4.4 1.2l6-1.5 12.2-2.9c9 .3 18 1.2 27 1.8" class="b"/><path d="M8.6 70.2H20c2.6 0 5.3-.2 7.9.3 3.7 1 6.9 3.5 10.4 5 7.6 3.3 16.2 1.7 24.3 1.7q7.5-.3 14.8 0c3.7.2 7.6.9 11.3.1 5.3-1.1 10.5-3 15.7-4.6l6-1.9q1.8-.5 3.5-.4 6.1 1 12.2 2.6c3.5 1 7 2.7 10.4 3.9q1.3.5 2.6.5l4.4-1.2q4.3-1.4 8.7-2.6 1.6-.5 3.5-.9l8.6.6c6.4.5 12.8 1.2 19.2 1.3" class="b"/><path d="m8.6 68.5 10.5.6q3.4-.1 7 .5c3.3 1 6.3 3.2 9.5 4.5A24 24 0 0 0 46.9 76q16.9-1.7 33.9-.8c2.9.1 5.8.7 8.7.8 5.4-.3 10.6-2.3 15.6-4.2 3.1-1.1 6.3-2.5 9.6-3.1q2.2 0 4.3.6 5.9 1 11.3 3.1l5.2 2.2c1.4.5 3 1.3 4.4 1.2 3.5-1 7-2.6 10.4-3.7 1.7-.4 3.5-1.4 5.2-1.3 9.3.6 18.6 2 27.9 1.8" class="b"/><path d="M8.6 67.2q9.5 2 19.2 3.2c3.1 1.2 6 3.3 9.5 3.6 4.4.5 8.7 0 13-.6q6.1-.6 12.2-.8 10.5-.3 20.9 0c3.4.4 7 1.2 10.4 1.4q2.2 0 4.4-.6c6.3-1.4 12-5.1 18.2-6.6 3.2 0 6.5 1 9.6 1.8 4.8 1.3 9.1 4 13.9 5.4 3-.5 5.8-2.2 8.7-3.3l5.2-2 4.4.3c8.3.7 16.8 1.9 25.2 1.2" class="b"/><path d="M8.6 67.3c5.8 1.2 11.7 1.7 17.4 2.9 3.3.5 6.3 2.3 9.6 2.2q5.7.2 11.3-1.3 4.8-.6 9.5-.7 12.6-.4 25.3-.5 2.2 0 4.3.6a148 148 0 0 0 11.3 1.8c5.6-.5 10.7-3.2 15.7-5.6s7-2 12.1-.7c3.6 1 7 2.7 10.5 4.2 4.5 2.1 4.7 2.9 9.5.5a91 91 0 0 1 7.8-3.8l4.4.1c8.6.6 17.4 2 26 .8" class="b"/><path d="M8.6 67c5 .8 10 1 14.8 2q3.9.8 7.8 1.7 3.1 0 6.1-.3 4-.8 7.8-1.9c1.4-.3 3-1 4.4-.9q14.7.4 29.6-.2l2.6-.1 3.4.8q4.4.8 8.7 1.4l6.1 1q4.1-.3 7.8-2.1c3.8-1.7 7.3-4.2 11.3-5.1q2.2-.2 4.4.1c4.3.6 8.3 2.8 12.2 4.7l3.4 1.7c1 .5 2.4 1 3.5.4 3.4-1.1 6.3-3.5 9.6-5h4.3c9 .3 18.1 1.9 27 0" class="b"/><path d="M8.6 66.1c4.6.7 9.4.9 14 1.7 6 1 8.7 2 14.7 0L49.5 64q1.3 0 2.6.2l4.4.5q7.3.4 14.7.2l8.7-.3c4.5 1.5 9.3 2 14 2.7l8.6 1.4q2.2-.3 4.4-1c3-1.1 5.8-3 8.7-4.6a16 16 0 0 1 4.3-1.7h2.6c7.2-.5 12.8 5 19.1 7.3 3.3-.5 6-3 8.7-4.7 1.3-.8 3-.7 4.4-.8 9.5 0 19.3 1.9 28.7-.6" class="b"/><path d="M8.6 65q4.4.5 8.7.9L27 67c3.9 0 7.6-1.4 11.3-2.6q6.5-1.8 13-4a79 79 0 0 0 23.5 1.7l2.6-.1 3.5 1.1q3.8 1 7.8 1.5 7.5.8 14.8 2.2c4.4.6 8.6-2.6 12.1-4.8q2.4-1.7 5.3-2.3h2.6c2.3 0 4.8-.2 7 .9 4 1.6 7.3 4.5 11.2 6.3 2.3.7 5.2-2.2 7-3.4 2.6-2.2 6.3-2 9.5-2 8.4.2 17 1 25.2-1.4" class="b"/><path d="M8.6 63.8q5.2.3 10.5 1 2.6.3 5.2.5 2.2-.2 4.3-.6c2.8-.3 5.3-1.7 7.9-2.5 5.1-1.4 10.3-3.1 15.6-4.2 1.7 0 3.5.5 5.2.7a62 62 0 0 0 14 .9c1.3 0 3-.4 4.3 0 6.5 3 13.8 3.2 20.8 4.1q4.8.6 9.6 1.6c5-.2 8.9-4.1 13-6.5q2.1-1 4.4-.8h6c3.7.8 6.7 3.4 9.6 5.4 2 1.4 3.9 3 6.1 1.2 1.2-.7 2.4-1.9 3.5-2.7 4.8-2.6 10.4-2 15.7-2q5.6.1 11.3-.5 3.9-.6 7.8-1.4" class="b"/><path d="M8.6 62.5q6.1.4 12.2 1 5.8-.3 11.3-2.1a36 36 0 0 1 7.8-2.7q4.8-1.3 9.6-2.3c5.5-.5 11 .1 16.5.4h6q1.6.2 2.7.9 2.2 1 4.4 1.6c4.7 1.4 9.8 1.8 14.7 2.3q6.7.5 13 1.8c3.2.6 6.3-1.6 8.8-3.4 5.4-4.2 4.5-3.8 11.3-3.8h4.3c3 .5 5.5 3 7.8 5 2.8 2.4 4.8 3.9 7.9.7 5.2-4.5 12.6-3.8 19-4q4.9-.2 9.6-.8c2.6-.4 5.2-1 7.9-.9" class="b"/><path d="M8.6 61q4.8.5 9.6.7 5.3-.3 10.4-1.6 3.2-.8 6.1-2.3l7.8-2 6.1-1.2q3-.1 6.1-.1h14.8c1.8-.2 3.6 1 5.2 1.6A33 33 0 0 0 80 58c6 1.4 12.2 1.6 18.3 2.2q3 .3 6 .8c1.8.3 3.6.9 5.3 1 4.2-.7 7.2-4 10.4-6.5 1.2-1 3-1 4.4-1h5.2q2.2 0 4.4.2c2.4.8 4.2 3 6 4.9 2.1 2.3 4.3 3.7 7 1.2 5.4-4.9 13.2-4.4 20-4.9q5.2-.3 10.4-1.1 3-.3 6.1-.2" class="b"/><path d="M8.6 59.6c2 0 4.1.4 6.1.3q7-.4 14-2.1 2.6-.8 5.2-2l9.5-2q2.6-.6 5.2-1h21.8q1.8.5 3.4 1.4 3.3 1.5 7 2.2c9.4 2.1 19.4 1 28.7 3.6 3 .5 5.7-1.7 7.8-3.5 1.6-1.3 3-3.6 5.2-3.7h13.1c1.9.6 3.1 2.6 4.3 4 1 1.2 2 3 3.5 3.4q2 .3 3.5-.8c5.4-4.7 12.3-4.9 19.1-5.4q5.3-.5 10.4-1.2h7" class="b"/><path d="M8.6 58.1c3.5.2 7-.3 10.5-.7q6.7-.7 13-3 5.2-1.1 10.4-2.1c2.6-.5 5.2-1.3 7.9-1.3h20c2.3.8 4.5 2.1 6.9 2.8q5.2 1.4 10.4 2c5.5.5 11 .4 16.5 1.1q3.6.6 7 1.6a9 9 0 0 0 3.5-1.1c2.7-1.5 4.5-4.3 7-6.2q1.6-.2 3.4-.2h12.2c3.3 1.5 3.2 8 7.8 7.5 2-.1 3.5-2 5.2-2.8q2.9-1.5 6.1-2.3c4-.8 8.1-1 12.2-1.6l7-.8h7.7" class="b"/><path d="M8.6 56.3q8-.5 15.7-2l5.2-1.3q3.9-.8 7.8-1.3c4.4-.6 8.7-1.8 13-2.4h19.2c1.8.1 3.5 1.3 5.2 1.9q3 1.2 6.1 1.8c6.9 1.4 14 1.4 20.9 1.9q3.5.1 7 1c2.7.8 4.1 1.4 6.9-.2 2.7-1.5 4.4-4.6 7-6.4h15.6c2.2 2.8 3.3 8.2 7.8 7.5 1.9-.5 3.5-2 5.2-2.9q4.1-2 8.7-2.7 7-1 13.9-1.8 4.7-.1 9.6-.1" class="b"/><path d="M8.6 54.2c5.9-.4 11.7-1.5 17.4-2.5l16.5-2.4c3-.4 5.8-1.3 8.7-1.7h13q3.1-.2 6.2 0c3.9 1.7 7.9 3.4 12.1 4q7.4 1 14.8 1.2c4 .3 8.2.4 12.2 1.4 4.7 1.7 7.2.1 10.4-3.3 1-1.1 2-2.8 3.5-3.4h1.7l13 .1c2 2.1 2.9 5.3 5.3 7 2.4 1.3 4.9-.2 7-1.5q2.8-1.7 6-2.6c4.3-1.2 8.7-1.6 13-2.3 4.6-.8 9.3-.7 14-.7" class="b"/><path d="M8.6 52 26 50Q34 49 41.7 48c3.5-.4 7-1.5 10.4-2.2q6-.2 12.2 0 3-.2 6 0c4 1.7 8 3.4 12.2 4 8.6 1.5 17.5.7 26.1 2.2l4.4 1.1c3.1.2 5.8-2 7.8-4.2 1.2-1.2 2.3-3.5 4.3-3.2h13c2.1 2 2.9 5.2 5.3 6.8 2.7 1.8 5.4 0 7.8-1.4q2.5-1.2 5.2-2.2c4.3-1.2 8.7-1.7 13-2.4 4.7-1 9.3-.8 14-.8" class="b"/><path d="m8.6 49.9 6.1-.8 6.1-.4c7.2-.9 14.5-1.2 21.7-2q3.1-.5 6.1-1.2c1.7-.4 3.5-1.2 5.3-1.4h15.6c1.8 0 3.5 1.3 5.2 1.9a35 35 0 0 0 7 2c8.8 1.7 18 .9 27 2.3l4.3 1c3 .5 5.7-1.3 7.8-3.2l2.6-2.8c.5-.7 1.6-1.4 2.6-1.2h12.2c.7.2 1.4 1.3 1.7 2a21 21 0 0 0 2.6 3.9c2 2.3 5.5 1.9 7.8.3q3-1.6 6.1-2.7c4.3-1.3 8.7-1.8 13-2.5l6.2-1h7.8" class="b"/><path d="M8.6 47.7c3.8-.7 7.6-.6 11.3-.8 7.8-.7 15.7-.8 23.5-1.7 3.9-.4 7.6-1.6 11.3-2.8h15.6c1.8.5 3.5 1.5 5.3 2.1q3 1.1 6 1.7c8.6 1.6 17.5 1.1 26.1 2.2q2.2.3 4.4.9 1.2.4 2.6.4c2.6-.3 5-1.8 7-3.5 1.4-1.2 2.6-3 4.3-3.8q6.5-.2 13 0c2 3 3.5 7.9 7.9 7.4 1.5.2 3-.7 4.3-1.3q3-1.6 6-2.5c4.3-1.3 8.8-1.8 13.1-2.5q3.5-.8 7-1.1h6" class="b"/><path d="M8.6 45.4c3.7-.5 7.6 0 11.3-.3 8.4-.5 16.9-.5 25.2-1.4q5.4-.7 10.5-3c2-.3 4 0 6-.1h7.9c1.8-.2 3.5 1 5.2 1.7q3 1.3 6 2c8 1.6 16.3 1.4 24.4 2q4.5.3 8.7 1.6c4.5.3 8.2-3 11.3-5.9l1.8-1.3q2.2-.1 4.3-.1h7.8c.7.4 1.5 1.8 1.8 2.5.6 1.3 1.5 3 2.6 3.8 1.6 1.5 4.1 1.5 6 .9 2.6-1 5.2-2.4 7.9-3.2 4.5-1.3 9.3-1.9 13.9-2.7l7-1.2q2.5-.1 5.2-.1" class="b"/><path d="m8.6 43.2 8.7.2 10.5-.3c6.3-.2 12.8 0 19-1q5.1-.6 9.6-3c1.7-.5 3.6-.2 5.3-.3h8.6c1.6 0 3 1 4.4 1.6q3 1.3 6 2c7.5 1.6 15.2 1.6 22.7 2q4 .2 7.8 1c1.7.3 3.5 1.1 5.2.6 3-.5 5.6-2.4 7.8-4.2 1.4-1 2.7-2.5 4.4-3h11.3c1.8 3.5 3 8.1 7.8 7.6 1.8.1 3.6-.9 5.2-1.6l5.3-1.8c4.5-1.2 9.2-1.8 13.9-2.6 3.7-.5 7.5-1.7 11.3-1.5" class="b"/><path d="M8.6 41.3q9.6.6 19.2.3c6.3-.1 12.7 0 19-.7q4.2-.5 8-2 1.6-1 3.4-1.7h2.6c3.7 0 7.6-.3 11.3 0q3.4 1.7 7 2.9c6.4 1.8 13.3 2 20 2.4 4.9.2 10 .4 14.7 1.7 3.4.8 6.8-1 9.6-2.9 2.2-1.3 4.2-3.6 7-4.1q4.6-.1 9.5 0l.9.6c1.8 4.8 2.9 7.4 8.6 6.8 3.3-.7 6.3-2.5 9.6-3.2 4.6-1.1 9.3-1.6 14-2.4 3.4-.5 6.9-1.5 10.3-1.9" class="b"/><path d="M8.6 39.5q10 .7 20 .5c6.4 0 12.8.2 19.2-.6q4-.4 7.8-2c1.1-.5 2.3-1.4 3.5-1.9q1.2-.2 2.6-.1H72c1.8.4 3.5 1.5 5.2 2.1a62 62 0 0 0 18.3 3c5.5.4 11 .4 16.5 1.5l3.5.7q4.2-.3 7.8-2.5c2.9-1.6 5.5-4 8.7-4.8q4.4 0 8.7 0c1.3 2.2 1.8 5.7 4.3 7a8 8 0 0 0 3.5.5q1.4 0 2.6-.2c2.9-1 5.8-2.2 8.7-2.8 7.8-1.7 15.8-2.2 23.5-4.1" class="b"/><path d="M8.6 37.7c6.7.8 13.4.7 20 .8 6.7 0 13.4.2 20-.5q4.1-.5 7.8-2.1l3.5-2q1.3-.4 2.6-.3H73q2.2.8 4.3 1.9a57 57 0 0 0 18.3 3.3c6 .4 12.3.3 18.2 1.7 7.4 2 13.4-4.7 20-6.8h4.4c1 0 2.4-.2 3.5.3 1 2.6 1.7 6.7 5.2 7q2.6.4 5.2 0 4.4-1.6 8.7-2.7c7.5-1.5 15.1-1.9 22.6-3.6" class="b"/><path d="M8.6 36c6.7.9 13.4.9 20 1 6.7 0 13.4.2 20-.4q4.6-.5 8.7-2.3 1.8-1 3.5-2.1 1.2-.5 2.6-.3h10.4q1.5.4 2.6 1c6 3 12.7 3.7 19.2 4.1 6.6.5 13.4.5 20 2 3.2.6 6.6-.8 9.5-2q3.5-1.9 7-3.4 1.6-1 3.4-1.7h3.5q2-.1 3.5.6c1 2.3 1.4 6.2 4.4 6.7q2.5.3 5.2.2c2.9-.7 5.7-1.8 8.7-2.4 7.4-1.5 15.1-1.9 22.6-3.3" class="b"/><path d="M8.6 34.4q10 1.2 20 1c7 .2 14 .4 20.9-.4q4.6-.5 8.7-2.4c1.4-.6 2.8-2 4.3-2.4h8.8q2.2-.2 4.3.2 2.5 1.2 5.2 2.3c5.8 2 12.1 2.4 18.2 2.8 5.6.3 11.2.5 16.6 1.7 5.2 1.1 11.7-2.6 16.5-4.5 1.8-.7 3.3-2.3 5.2-2.5 2 .1 4.5-.4 6.1 1.2.8 2.5 2 6.4 5.2 6.3h4.4c2.9-.6 5.7-1.7 8.7-2.2 7.1-1.4 14.5-1.8 21.7-2.8" class="b"/><path d="M8.6 32.9c9.5 1.2 19.2 1 28.7 1.2 6.4-.2 13 0 19.2-2 2.5-.7 4.6-2.6 6.9-3.7q6.5-.2 13 .2c2.3.9 4.6 2.2 7 3 11 3 22.7 1.5 33.9 4 3.2.3 6.5-.9 9.5-1.8q4.2-1.4 7.9-3.3l2.6-1.7c2 0 4.2-.2 6 .5 1.3 2 1.9 5.3 4.4 6.2 2 .7 4.1.4 6.1.4 3-.5 5.8-1.5 8.7-2 6.9-1.2 14-1.6 20.9-2.3" class="b"/><path d="M8.6 31.3c8.7 1.2 17.4 1.2 26.1 1.3q7 0 14-.6c4.8-.4 9.8-1.4 13.8-4.3l1.8-1h13q2.3 1 4.4 2c8.2 3.5 17.3 3 26 3.8q3.5.3 7 .9c1.7.2 3.5.8 5.2.6a47 47 0 0 0 17.4-6.2q2.2-.3 4.3-.3 1.5 0 2.7.8c1 3.6 2.8 6 7 5.9 4 .3 8-1 12-1.8q10-1.5 20-2" class="b"/><path d="M8.6 29.8c9.2 1.3 18.6 1.2 27.9 1.2 9.4-.3 19.7.1 27.8-5.5 1-.7 2.3-.5 3.5-.6h10.4q1.8.6 3.5 1.6c7 3.5 15 3.4 22.6 4q4.8.2 9.5.9c2.3.2 4.7 1 7 .8q6.6-.7 13-3 1.9-.9 3.5-2 3.4-1 7-.8c.9 2.4 2.4 5.2 5.2 5.7 4.9 1.1 9.9-.3 14.7-1.2q9.6-1.4 19.2-1.5" class="b"/><path d="M8.6 28.3c9 1.3 18 1.2 27 1.2 9.4-.4 20.4 0 28.7-5.1 1-.7 2.2-1.4 3.4-1.2H73q3.4-.1 7 .1l2.5 1.4C87.8 27.6 94 28 100 28.5q9.6.3 19.1 2c2 .3 4.2-.1 6.1-.4q4.6-.6 8.7-2c1.6-.4 3-1.5 4.4-2q3-.9 6-1.1c1 1.8 2.2 4.1 4.4 4.8 5.4 1.8 11.1.4 16.5-.4q9-1.3 18.3-1.2" class="b"/><path d="M8.6 26.8c9 1.4 18 1.2 27 1.1 9.4-.4 21.2-.3 29.5-5.2q1.3-.7 2.7-1.2h13l2.6 1.3c4 2.4 8.6 3.1 13 3.6 5 .5 10 .6 14.8 1.1 3.5.3 7 1 10.5 1.3q5.6-.2 11.3-1.5c1.8-.3 3.5-1.3 5.2-2q3-.9 6-1.6c1.6 2.7 3 4.2 6.2 4.7 5.1 1.1 10.4.2 15.6-.4q8.7-1.2 17.4-1" class="b"/><path d="M8.6 25.2c9.2 1.5 18.6 1.3 27.9 1s21.4-.6 29.5-5c1-.6 2.3-1.5 3.5-1.5h12.2q1.3.4 2.6 1.3c7.5 4.5 17.6 3.7 26 4.6 5 .3 10 1.5 14.8 1.5a67 67 0 0 0 9.6-1.3q1.8-.4 3.5-1.2l6-2c1.6 3.1 4.8 3.8 7.9 4.2 4.9.8 9.9.1 14.8-.3q8.2-1 16.5-.6" class="b"/><path d="M8.6 23.5c9.7 1.9 19.8 1.4 29.6 1q7.9-.2 15.6-1.4c4.5-.6 9-1.5 13-3.6C68 19 69.2 18 70.5 18h11.3q2-.2 3.4 1.2c3.9 2.5 8.6 3.3 13 3.7q7 .6 14 1c5 .5 9.9 1.3 14.8 1.5q4.8-.2 9.5-1l4.4-1.2c1-.3 2.3-1 3.5-1 2 2.7 7.2 2.5 10.4 3q6 .4 12.2-.2c5.4-.3 11-.7 16.5-.3" class="b"/><path d="M8.6 21.6c4.8 1.3 9.9 1.5 14.8 1.6a215 215 0 0 0 31.3-1.9 46 46 0 0 0 12.2-3c1.4-.6 2.8-1.6 4.3-2h10.5c1 0 2.5-.2 3.4.5a26 26 0 0 0 13 4.3q7 .6 14 1l15.7 1.6q5.6.2 11.3-.7 2.2-.3 4.3-1.1 2.2.5 4.4.8 5.6.5 11.2.9c8.2.4 16.3-.8 24.4-.1" class="b"/><path d="M8.6 19.6q8.2 2.1 16.6 2a202 202 0 0 0 30.4-2.1q6.2-.7 12.1-2.9 2.3-1 4.4-2 2.6-.1 5.2-.1h5.2q1.9-.1 3.5.5a30 30 0 0 0 16.5 4.7l16.6 1 10.4 1.2q3.9.1 7.8.1l5.2-.1q3.5-1 7-.7c5.5 0 11 .6 16.5.7q8.7 0 17.4 0" class="b"/><path d="M8.6 17.5a92 92 0 0 0 32.2 1.7q7-.4 14-1.3 6.6-.6 13-2.6c2-.7 4-2 6-2.5h8.7q2.3-.2 4.4.6c1.4.7 2.8 1.8 4.3 2.4q5.1 1.8 10.5 2c6.3.6 12.7.6 19.1 1q5.3.5 10.4 1.4 2.6.2 5.3 0h6.9q4.7-.7 9.6-.7c10 .2 20.2 1.2 30.4.4" class="b"/></svg>