<svg xmlns="http://www.w3.org/2000/svg" id="a" width="1920" height="2400" viewBox="0 0 192 240"><defs><style>.b{fill:none;stroke:#fff;stroke-miterlimit:10;stroke-width:.3px}</style></defs><path d="M0 0h192v240H0z" style="stroke-width:0"/><path d="M8 225c4-.3 8.2-.6 12.3.2 4.8.8 10.5 3 14.9-.4 2.4-1.7 4.6-4.7 7.8-4.7h3.5c1.4 0 2.5 1.3 3.5 1.9q1.7 1 3.5 1.4c3.5.7 7 .5 10.5 1.2 3.9.6 7.6 2.3 11.4 2.6 8.1-1.2 16.4-1 24.5-1.2q8.4-.2 16.7-.2 12.2.3 24.5 1.1c6.4.6 12.8-.2 19.2 0l11.4.3c4-.3 8.2-1 12.3-1.2" class="b"/><path d="M8 223.4a53 53 0 0 1 14 0c6.7 1.1 10.3 2.6 15.8-2.5 2.3-2 3.8-2.8 7-2.6l3.5.1q1.7 1.2 3.5 2.3 2.1.9 4.4 1.2c3.5.4 7 .6 10.5 1.5l5.2 1.5c1.4.3 3 .8 4.4.4 7.8-1.1 15.8-.9 23.6-1q8.4-.2 16.7-.2 12.2.4 24.5 1.1 4.8.4 9.6 0h10.5q4.9.2 9.6.2c4.4-.3 8.8-1 13.2-1.2" class="b"/><path d="M8 222c4.6-.5 9.4-1.2 14-.7s10 2.4 14-.8c1.6-1.4 3.3-3 5.3-3.8 1.7-.3 3.5 0 5.2-.1h2.7l1.7 1.2c2.3 1.7 5.2 2.2 7.9 2.5q4.9.4 9.6 1.8c2.9.8 5.8 2.1 8.8 1.3 7.8-1 15.7-.8 23.6-1h15.8q12.7.4 25.4 1.1c3.4.3 7 0 10.5 0q7-.2 14 .1c5.8.4 11.6-1 17.5-1.2" class="b"/><path d="M8 220.4c4-.3 8.2-1 12.3-1 3.2 0 6.4.6 9.6.8 2 0 4.3-.2 6.1-1.3 1-.5 2-1.6 2.7-2.4a5 5 0 0 1 4.3-1.7h4.4c3.5-.3 3.4.9 6.2 2.2 2.4 1.2 5.2 1.3 7.8 1.7q4.5.7 8.8 2.2 2.2.7 4.4 1 1.7 0 3.5-.4c7.5-1 15.2-.6 22.7-.7q7.9-.1 15.8 0 13.1.3 26.2 1 4.8.1 9.7-.1 7.8-.2 15.7.3c5.3-.4 10.5-1.2 15.8-1.4" class="b"/><path d="M8 219c4-.4 8.2-1.2 12.3-1.4q4.8.2 9.6.6c2.4 0 5-.2 7-1.5 1.3-.8 2.5-2.2 3.5-3.3 1-.6 2.4-.3 3.5-.3h5.3q1.4-.2 2.6.5 1.6 1.3 3.5 2c2.8 1 5.9 1 8.7 1.7 3.6.7 7 2.2 10.5 2.9q2.3-.2 4.4-.6c7.6-.8 15.2-.5 22.8-.6 14-.4 28 .5 42 1.2 8.2-.5 16.4-.2 24.5 0 5.3-.4 10.5-1.2 15.8-1.4" class="b"/><path d="M8 217.4c5.3-.5 10.5-1.6 15.8-1.5 7.5.1 11.8 1.8 17.5-4.5q2.6-.2 5.2 0 2.7-.1 5.3 0c1.7 1 3.3 2.2 5.2 2.7q4 .9 8 1.6 3.8 1 7.8 2.3 1.3.4 2.6.5l2.6-.5q3.5-.5 7-.6c8.8-.3 17.6-.1 26.3-.2 10.2 0 20.4.8 30.6 1.2l13.2-.3c4.3 0 8.8.5 13.1.3q7.8-1 15.8-1.4" class="b"/><path d="M8 215.8c5.6-.5 11-1.8 16.6-1.7 4.7 0 10 1 14-1.8 1.2-.7 2.3-2 3.5-2.7q5.3-.1 10.6 0c1.3.9 2.8 2 4.3 2.4 2.6.8 5.3 1.1 8 1.8 2.9.6 5.8 1.8 8.7 2.6 1.4.5 3 .1 4.3-.2l7-.6c8.8-.3 17.6-.1 26.3-.2 10 .1 19.9.8 29.8 1.2q7.5-.2 14.9-.2c3.7 0 7.6.4 11.3.3 5.6-.5 11.1-1.3 16.7-1.5" class="b"/><path d="M8 214.2c4.4-.4 8.8-1.3 13.1-1.7 3.5-.3 7 0 10.5-.1q3.8 0 7-1.7c1.6-.7 2.7-2.5 4.4-2.9h8.8c2-.3 3.5 1.5 5.2 2.1 2.8 1.1 6 1.4 8.8 2.2 3.2.8 6.4 2.2 9.6 2.9l4.4-.7c6-.8 12.3-.6 18.4-.7q9.1 0 18.4.2c10.8.3 21.6 1.4 32.4.9h11.3c2.3 0 4.7.4 7 .2 5.6-.5 11.1-1.3 16.7-1.4" class="b"/><path d="M8 212.5c5-.4 10-1.5 14.9-1.9 4-.3 8.2.2 12.3-.5q2.2-.3 4.3-1.6c1.2-.6 2.3-1.8 3.5-2.4h9.7c2-.3 3.5 1.5 5.2 2 2.8 1.1 6 1.4 8.8 2.3s5.8 2 8.7 2.7c1.4.2 3-.4 4.4-.5 5.8-.9 11.7-.8 17.5-.8q9.2 0 18.4.2c10.5.3 21 1.5 31.5.9q6 0 12.3 0c2.6 0 5.3.5 7.8.3 5.6-.5 11.1-1.5 16.7-1.6" class="b"/><path d="M8 210.7c4.7-.3 9.4-1.3 14-1.8 4.4-.4 8.8 0 13.2-.6q2.8-.5 5.2-2c1.1-.6 2.2-1.8 3.5-2h9.6c2-.2 3.5 1.6 5.3 2.1 2.8 1 5.9 1.4 8.7 2.3 3 .8 5.8 2.1 8.8 2.8l4.4-.8c5.7-.8 11.6-.7 17.5-.7q9 0 18.4.3c10.2.4 20.4 1.5 30.6.8q6-.2 12.3 0c2.6 0 5.2.5 7.8.4 5.6-.6 11.1-1.6 16.7-1.7" class="b"/><path d="M8 209c4.7-.3 9.3-1.4 14-1.9 4.4-.4 8.8 0 13.2-.7q2.7-.4 5.2-1.8c1.1-.6 2.3-1.6 3.5-2h10.5c1.9 0 3.5 1.6 5.3 2 2.8 1 5.9 1.5 8.7 2.4 3 .8 5.8 2.3 8.8 2.7l3.5-.6c5.7-1 11.6-.9 17.5-.8q8.7 0 17.5.2l14.9.8q5.6.6 11.3.2 8.8-.4 17.5-.2c3 0 6 .6 8.8.4 5.2-.5 10.5-1.6 15.8-1.6" class="b"/><path d="M8 207.1c4.7-.2 9.3-1.4 14-1.8 4.4-.4 8.8 0 13.2-.7q2.7-.5 5.2-1.8c1.1-.5 2.3-1.5 3.5-2h10.5c2.2-.2 4 1.6 6.1 2.1 2.6.9 5.3 1.3 8 2.1 2.9.9 5.7 2.2 8.7 3 1.4 0 3-.6 4.3-.7 5.2-.9 10.6-.9 15.8-.8q8.8 0 17.5.2l14.9.9q4.9.5 9.6.2 14.5-1 29 .2c5.2-.5 10.4-1.7 15.7-1.7" class="b"/><path d="M8 205.3c4.4-.3 8.8-1.5 13.1-1.8 4.7-.5 9.4-.1 14-.9q2.8-.4 5.3-1.6 1.7-1 3.5-1.9 6 0 12.3 0c1.7.4 3.4 1.6 5.2 2.1 2.9 1 6 1.4 8.8 2.3s5.7 2.5 8.7 2.7l4.4-.8a289.1 289.1 0 0 1 33.3-.3q8.7.6 17.5 1 4.8-.1 9.6-.4 12.8-.6 25.4.6c5-.5 9.9-1.7 14.9-1.7" class="b"/><path d="M8 203.3c4.4-.3 8.7-1.6 13.1-1.8 4.7-.4 9.4 0 14-.8q2.8-.5 5.3-1.7 1.7-1 3.5-1.7h8.8c1.6.1 3.6-.3 5.2.4 4.4 2.4 9.4 2.8 14 4.4 8.7 3 5.2 2.6 14 1.4 4.6-.6 9.4-.4 14-.4q8.8-.1 17.5.4l15 1q7-.5 14-.8 7.4-.3 14.8 0c3.2.1 6.5.8 9.6.7 4.4-.5 8.8-1.4 13.2-1.5" class="b"/><path d="M8 201.3c3.8-.3 7.6-1.4 11.4-1.7 5-.5 10 0 14.9-.8q3.1-.5 6.1-1.8c1.4-.7 2.8-1.7 4.4-1.5H57q1.8.6 3.5 1.4c3.4 1.4 7 2 10.5 3 3 .7 5.9 2 8.8 2.7 1.4.4 3-.3 4.4-.4q3.4-.7 7-.7h20.1l18.4 1.2c6.7-.2 13.4-1 20.1-1q11-.2 22 1c4-.4 8-1.3 12.2-1.5" class="b"/><path d="M8 199.2q3.5-.3 7-1 2.6-.7 5.3-.9c5.5-.2 11.2.3 16.6-1.2 2-.5 4-1.7 6.1-2.3h13.2c2.1-.1 4 1.3 6 1.9q4 1 8 2c3.5.8 7 2.2 10.5 3.1 2.3.6 4.7-.5 7-.6q5.2-.5 10.5-.4 7.9 0 15.7.3l15 .9c7.5-.5 15-1.4 22.7-1.4q11 0 21.9 1.4c3.5-.4 7-1.2 10.5-1.4" class="b"/><path d="M8 197.1q4.9-.3 9.6-1.5c2.3-.7 4.7-.6 7-.5 3.5 0 7.1 0 10.5-.8q2.3-.6 4.4-1.4a8 8 0 0 1 3.5-.9h14c2.1.4 4.1 1.6 6.2 2 3.7 1.2 7.6 1.8 11.4 3 2.8.7 5.7 2 8.7 2.4l5.3-.8q8.7-.7 17.5-.2l12.2.4c3.2 0 6.5.5 9.7.4 8.1-.6 16.3-1.7 24.5-1.7q10.5 0 21 1.5c1.7.4 3.5 0 5.2-.3l5.3-.7" class="b"/><path d="M8 195q7.2-.4 14-2.4 4.9.4 9.7 0c3-.4 5.8-1.6 8.7-2.3h13.1c1.8 0 3.7-.2 5.3.5 5.6 2.3 11.7 3 17.5 4.7 9.7 3 6.4 2 15.8 1.3 6-.3 12.2 0 18.3 0l10.6.4c2.3 0 4.7.4 7 .3 8.1-.7 16.3-2 24.5-2q8.2-.2 16.6.8l8.7 1.2 6.2-1" class="b"/><path d="M8 192.8a74 74 0 0 0 15.8-2.5H29c3.3-.1 6.5-1.2 9.7-1.8H57c2 .6 4.1 1.6 6.2 2 4.6 1.3 9.4 2 14 3.3 9.8 3.1 7.1 1.7 16.6 1.3q10-.2 20.1 0l8.8.4c2 0 4.1.4 6.1.2 7.9-.8 15.7-2.3 23.7-2.4q9.2-.3 18.3 1 4.6.5 8.8 1.3c1.4.3 3-.3 4.4-.5" class="b"/><path d="M8 190.7c6-.1 12-.7 17.5-2.8 2-.3 4.2 0 6.2-.4q3.4-.8 7-.7h17.5c2.6.4 5.2 1.7 7.8 2.2 5 1.2 10 2 15 3.5 2.2.6 4.6 1.4 7 1.6 3.1-.2 6.4-.7 9.6-.7q11.3-.3 22.7 0c3.8 0 7.6.8 11.4.6 6.4-.7 12.8-2.2 19.3-2.7q10.5-.7 21 .5c4.6.4 9.3 1.5 14 2.1" class="b"/><path d="M8 188.6q6.7.1 13.1-1.2c2.4-.6 4.7-1.6 7-2.2q2.2 0 4.4-.2h23.7c2.6.5 5.2 1.7 7.8 2.3q7.5 1.5 15 3.4 3.3 1 7 1.6c1.3.2 2.9-.2 4.3-.3l5.3-.4q12.2-.3 24.5 0 3.5 0 7 .5c1.4 0 3 .4 4.3.2 5.9-.8 11.6-2.5 17.5-3 11.7-1.2 23.6 0 35 2.2" class="b"/><path d="M8 186.6c4.4 0 8.9 0 13.1-1.1 2.4-.6 4.7-1.7 7-2.2h28.1c2.6.5 5.2 1.6 7.8 2.2 5 1.2 10 2 15 3.4q3.3 1 7 1.7c1.3.2 2.9-.2 4.3-.3l6.1-.5c8.5-.2 17-.6 25.4-.3q4.9.3 9.6 1c2.7.4 5.4-.7 8-1.3q5-1.5 10.4-2.2a133.9 133.9 0 0 1 34.1 2" class="b"/><path d="M8 184.7c4 0 8.3 0 12.3-1 2.3-.5 4.6-1.7 7-2.2h28.9q3.9 1.1 7.8 2.2l13.2 3q4.3 1.2 8.7 2.1c1.4.1 3-.3 4.4-.3l6.1-.5c8.2-.3 16.4-.8 24.5-.7 4.7 0 9.4 1 14 1.6 5.1-.7 9.9-3 15-3.7a124 124 0 0 1 34 1" class="b"/><path d="M8 182.8q5.8.3 11.4-.8c2-.5 4-1.6 6.1-2.1q1.8-.2 3.5-.1h27.2c2.3.4 4.6 1.4 7 2l11.3 2.6c3.8.8 7.6 2 11.4 2.7q2.2-.1 4.4-.6c7.5-.8 15.2-.7 22.8-1.2a85 85 0 0 1 21 1.3c1.4.3 3 .7 4.3.3 5-1.1 9.8-3.2 15-3.7q7-.7 14-.5 8.2-.2 16.6 1" class="b"/><path d="M8 181c3.5 0 7.1 0 10.5-1 2.1-.4 4-1.5 6.1-2h31.5c2.4.4 4.8 1.4 7 2l9.7 2.3c4.4 1 8.7 2.5 13.1 3a115 115 0 0 1 19.3-1.7c9.9-.5 20-1.5 29.8.9l4.3.9q2.7-.4 5.3-1.3a60 60 0 0 1 23.6-3.2l8.8-.2 7 .7" class="b"/><path d="M8 179.1a34 34 0 0 0 11.4-1.5q1.8-.7 3.5-1.3h23.6q5.3-.2 10.5.1 7.9 2.2 15.8 4.3 6 1.6 12.3 2.9c2.3-.2 4.6-1 7-1.3q5.2-.6 10.5-.7c11.6-.4 23.6-2 35 1q2.2.7 4.4 1 2.6-.4 5.2-1.4a56 56 0 0 1 10.5-2.6q6.6-.7 13.2-.6 4.3 0 8.7-.2l4.4.5" class="b"/><path d="M8 177.3q4-.1 7.9-1 2.6-1 5.2-1.7 8.8-.2 17.6 0 9-.1 18.3 0 3.6 1 7 2l8.8 2.4q5.7 1.6 11.4 2.8c2.6 0 5.2-1.2 7.8-1.6q4.8-.7 9.7-.7 10.5-.7 21-.7c5.9 0 11.8.4 17.5 2q2.2.8 4.4 1 2.6-.6 5.2-1.4 5.2-1.9 10.5-2.7 6-.6 12.3-.5l6.1-.1q2.6-.3 5.3 0" class="b"/><path d="M8 175.3q3.1-.3 6.1-1c1.8-.5 3.5-1.3 5.3-1.5h31.5q3.5-.2 7 .1 7.9 2.4 15.8 4.7 5.2 1.4 10.5 2.5 3.5-.6 7-1.7c2.2-.8 4.7-.8 7-1l10.5-.3 16.6-.3q9-.3 17.5 2.3c4.2 1.3 4.6 1.2 8.8-.2q6.8-2.7 14-3.3c6-.6 12.3-.1 18.4-.7" class="b"/><path d="M8 173.9c3.6-.7 7-2.1 10.5-2.9h22l8.7.2q4.3-.1 8.7-.1c2.4.5 4.7 1.5 7 2.2l9.6 3 8.8 2c3.6-.2 7-1.8 10.5-2.7 6.7-.7 13.4-.4 20.1-.7 6.4 0 12.9-.3 19.3 0q6.3.4 12.3 2.4c4.2 1.4 4.5 1.3 8.7-.2q6.3-2.6 13.1-3.4c5.5-.7 11.1-.4 16.7-.8" class="b"/><path d="M8 172.8c3.9-.8 7.6-2.3 11.4-3.4 3.8-.3 7.6 0 11.4-.1h7l6.1.5c5 .4 10 0 14.9-.4 2.4.6 4.7 1.7 7 2.4q4.7 1.7 9.6 3 3.9 1 7.9 1.8 4-.8 7.9-2.2c1.4-.4 2.9-1.2 4.3-1.2 7.3-.4 14.6-.1 22-.3 5.8 0 11.6-.3 17.4 0q6.8.5 13.2 2.6c4.2 1.4 4.5 1.4 8.7-.2 4-1.4 8-2.8 12.3-3.4 4.9-.8 10-.8 14.9-1.3" class="b"/><path d="M8 171.5c4.2-.8 8.2-2.6 12.3-3.9q6.5-.1 13.1 0c3.8.3 7.6 1.1 11.4 1.2q6.6.2 13.1-.7 1.4-.1 2.6 0 2.7.9 5.3 2 5.5 2 11.4 3.5c2 .4 4 1.2 6.1 1.1q4.5-.8 8.8-2.4c1.4-.4 2.8-1.4 4.3-1.5q11.8.2 23.7.2c5.5 0 11-.5 16.6-.2q7.2.6 14 3c4.2 1.3 4.5 1.5 8.8-.2q5.5-2.3 11.3-3.5c4.3-1 8.8-1.3 13.2-1.8" class="b"/><path d="M8 170c4.2-.9 8.2-2.6 12.3-4q1.7-.3 3.5-.2h6.1c3 .2 5.8 1 8.8 1.4q6 .7 12.2.4 5.3-.4 10.5-1.2a87 87 0 0 0 17.5 6l3.5.6a50 50 0 0 0 11.4-3.3c1.1-.3 2.3-1 3.5-1.2 8.7.2 17.5.7 26.3.5 7.3-.2 14.7-1 21.9.7 4.1.8 8 2.5 12.2 3.4 2.7-.2 5.3-1.6 7.9-2.5A75 75 0 0 1 184 166" class="b"/><path d="M8 168.3q3.6-.8 7-2c2-.7 4-1.8 6.1-2.2q3.6-.2 7 0 4.5 1 8.8 1.8 6.5.8 13.1.5 5.8-.4 11.4-1.2c.9-.3 1.9.2 2.6.6a65 65 0 0 0 15.8 5.1c1.7.6 3.5.2 5.2-.3a73 73 0 0 0 10.5-3.3c1.1-.4 2.4-1.3 3.5-1 9.6.6 19.3 1.2 29 .7a63 63 0 0 1 21 1c3.8.8 7.5 2.4 11.3 3.3 2.1.2 4.2-1 6.2-1.6 5.6-2.4 11.4-4.9 17.5-5.7" class="b"/><path d="M8 166.6q4.1-.9 7.9-2.4c2.2-.8 4.5-2.2 7-2q3 .1 6.1 1 3.5.8 7 1.4 7 .8 14 .5 6.1-.3 12.3-1.3c1.2-.4 2.4.5 3.5 1a50 50 0 0 0 14.9 4.6c1.4.2 3-.4 4.3-.6a90 90 0 0 0 12.3-4c.8-.3 1.8-.9 2.6-.8 10.5 1 21 1.8 31.6.7q10.6-1.1 21 1.5 4 1.1 7.8 2.5 1.8.7 3.5 1 1.9-.2 3.5-.9c3.3-1.2 6.5-3 9.7-4.3 2.2-1 4.5-2.1 7-2.2" class="b"/><path d="M8 164.9q5.4-1.3 10.5-3.6c2.9-1.5 5.9-.3 8.8.4q4.3 1.2 8.7 1.6a98 98 0 0 0 25.4-.6c1.1-.1 2.4-.6 3.5-.1q5.3 3 11.4 4.3c2 .4 4.1 1.2 6.1.6a102 102 0 0 0 16.7-5q1.2-.7 2.6-.6 11.3 1.5 22.7 1.3c3.8 0 7.6-.8 11.4-1q9.8-.5 19.3 2 4 1 7.9 2.6c1.6.4 3.5 1.4 5.2 1 3.5-.7 6.6-2.6 9.6-4.4 2-1 4-2.6 6.2-2.9" class="b"/><path d="M8 163.1q5-1 9.6-3.2 1.3-.6 2.7-.9l6.1 1.5q5.2 1.2 10.5 1.6 12.3.8 24.5-.7l3.5-.3c1.8.6 3.5 1.8 5.3 2.4q4.7 1.7 9.6 2.5 2.6-.2 5.3-1a129 129 0 0 0 16.6-5.2l2.6.2q10 1.4 20.1 1.2c5-.2 10-1.4 15-1.3a67 67 0 0 1 16.6 1.7q5.7 1.6 11.3 3.7c2 .7 4.2 1.3 6.2.5 4-1.2 7-4.5 10.5-6.9" class="b"/><path d="M8 161.4q5-1 9.6-3.2c1.1-.7 2.4-.2 3.5 0l3.5.8q5.7 1.2 11.4 1.6 12.8.8 25.4-.4c5.9-.6 3.8-.2 8.8 1.8 3 1 6.3 2 9.6 2.2l4.4-.8q6.6-1.5 13.1-3.4l6.1-2.3 2.7.3c6.3.8 12.8 1.4 19.2 1q4-.2 7.9-1a74 74 0 0 1 30.6 2.7c8.5 2.6 13.7 7.9 20.2-1.8" class="b"/><path d="M8 159.7q5-1 9.6-3.2a141 141 0 0 0 43.8 2.4h5.3l2.6 1.2q4.7 1.8 9.6 2.4a159 159 0 0 0 26.3-6.7q7 .8 14 1.2 4.4.1 8.8-.4 3.8-.8 7.8-1.1a106 106 0 0 1 26.3 1.5q5.4 1.2 10.5 3.2c2 .8 4 2 6.1 2.6q2.7.2 5.3-.2" class="b"/><path d="M8 158q4.6-.9 8.8-2.7 7.4 1.3 14.8 2 8 .8 15.8.6c6.4 0 12.9-.6 19.3-.2.8 0 1.8.6 2.6.9a36 36 0 0 0 8.7 2.1q3.5-.6 7-1.3 7.5-1.4 15-3.3l4.3-1.4q1.3-.5 2.6-.8l1.8.1c7 .7 14 1.4 21 0 3.1-.7 6.4-.5 9.6-.5h14q5.8 0 11.4.8c2.6.4 5.4.6 7.9 1.5a48 48 0 0 1 7 3c1.4.7 2.9 1.8 4.4 2.2" class="b"/><path d="M8 156.2q4.1-.7 7.9-2.2c1.4 0 3 .5 4.4.6l9.6 1.1q7.8.7 15.8.7l14.8-.2q3.5 0 7 .3 1.8.7 3.5 1.3 3 .8 6.2 1.2l3.5-.7 11.3-2.1q5.3-1 10.6-2.3l4.3-1.4q1.3-.6 2.7-.5c4.6.3 9.3.8 14 .5 3.5-.2 7-1 10.5-.8h30.6q4.8.5 9.7 1.4 4.9 1 9.6 2.2" class="b"/><path d="M8 154.5q2.7-.4 5.3-1.2c1-.3 2.3-1 3.5-.6q10.8 1.6 21.8 2c8.5.3 17-.2 25.4.2q2.2 0 4.4.5 2.6 1 5.3 1.5 2.2.6 4.3 0l5.3-1q7-1.3 14-2.4a76 76 0 0 0 7.9-1.7c2-.5 4-1.5 6.1-1.7q5.2.4 10.5.3 5.3-.4 10.5-.4h34.2c5.8.2 11.7 1.2 17.5.7" class="b"/><path d="m8 152.8 5.3-1.1q1.6-.6 3.5-.4 10.5 1.4 21 1.7c6.7.3 13.4.1 20.1.2q4.9 0 9.6.7 2.7.7 5.3 1.3c1.7.5 3.5 0 5.2-.3l6.2-1q8.2-1.3 16.6-2.6c4.2-.6 8.1-2.2 12.3-3H184" class="b"/><path d="M8 151q2.7-.3 5.3-.9 1.6-.6 3.5-.3 10 1.2 20.1 1.5 9.2.3 18.4.3a61 61 0 0 1 18.4 2.2l8.7-1.6q8.3-1.3 16.7-2.2 4.4-.6 8.7-1.7 3.5-1 7-1.7c6.1-.3 12.3 0 18.4-.1H184" class="b"/><path d="m8 149.4 5.3-.8c1-.2 2.3-.7 3.5-.4q9.5 1.1 19.2 1.5 9.2.2 18.4.3 8 0 15.8 1.6c1.7.6 3.5.3 5.2 0q3-.7 6.1-1.2 8.7-1.3 17.6-2 6.1-.8 12.2-2.3 3-.7 6.2-1.3H184" class="b"/><path d="M8 147.8c3-.3 5.9-1 8.8-1.2q9 1 18.3 1.3c10.8.6 21.8-.2 32.4 1.7 1.4.2 3 .8 4.4.6l7.9-1.4q7.8-1.3 15.8-1.8 7-.6 14-1.8c4-.8 8-2 12.2-2.2h54.3q4-.2 7.9.1" class="b"/><path d="M8 146.1q4.5-.3 8.8-1 8.7.7 17.5 1c10.2.6 20.5.2 30.6 1.5l5.3 1L78 147q8.3-1.4 16.7-1.8t16.6-1.8c5.8-1 11.6-2.4 17.5-2.2h47.3c2.6 0 5.4-.3 7.9.6" class="b"/><path d="M8 144.5q5.3-.4 10.5-1.1l14.9 1c9.6.5 19.3.3 28.9 1.3l6.1 1c1.4.1 3-.4 4.4-.6l5.3-1q9-1.1 18.3-1.6 7-.4 14-1.3c4.4-.5 8.8-1.4 13.2-1.8 3.5-.5 7-.2 10.5-.4q3-.1 6.1-.5H170q4.4-.1 8.7.1 2.7.4 5.3 1.2" class="b"/><path d="m8 142.9 12.3-1.1q7 .5 14 .9c9 .4 18.1.3 27.1 1.4q3.1.3 6.2.9c4-.4 8.1-1.5 12.2-2 7.3-.8 14.6-1 21.9-1.5s14.6-1.5 21.9-2.2c3.2-.4 6.4-.2 9.6-.3 3.5-.2 7-.9 10.5-1.2h28c4.2-.1 8.3.9 12.3 1.9" class="b"/><path d="M8 141.2q7-.3 14-1 6.6.4 13.2.7c9.3.5 18.7.5 28 1.8l3.5.5 5.2-.8q5.2-1 10.5-1.5c10.2-.8 20.5-.9 30.7-1.8q6.5-.8 13.1-1.1c3.8-.2 7.6 0 11.4-.6q4.4-.6 8.7-1.4h11.4q7-.1 14 .4 6.2.7 12.3 2" class="b"/><path d="M8 139.6c5.6-.2 11.1-.8 16.6-1l8.8.5c9.6.6 19.3.6 28.9 1.9q1.7.3 3.5.4l5.2-.8q5.3-.9 10.5-1.4c11.1-.9 22.2-.9 33.3-1.7q6-.6 12.3-.8 8.8.1 17.5-1.6 2.6-.6 5.2-.3h7q13.7-.1 27.2 2.3" class="b"/><path d="M8 137.9c6.4-.1 12.9-.8 19.3-1 10.8.9 21.6.9 32.4 2.2l4.3.5q2.7-.2 5.3-.6 5.6-1 11.4-1.5c10.5-.8 21-.8 31.5-1.4q7-.4 14-.7 9.7 0 19.3-1.7c1.3-.4 3 0 4.3 0l7 .1q13.7 0 27.2 1.9" class="b"/><path d="M8 136.2q10.1-.3 20.2-1l11.3.7q8 .4 15.8 1l7.9 1q2.2 0 4.3-.6c10.1-1.8 20.4-2.1 30.7-2.4q12.7-.3 25.4-.9 5.7-.1 11.4-.4t11.3-1.3c12.6.7 25.2.3 37.7 2" class="b"/><path d="M8 134.5c7.9-.1 15.8-.7 23.7-.9l20 1.3 7 .8c1.8.2 3.6.6 5.3.3 19.1-3.3 38.5-2.6 57.8-3.5q7-.1 14-.4 5.3-.5 10.5-1.1c12.6.8 25.2.5 37.7 1.7" class="b"/><path d="m8 132.8 24.5-.8a349 349 0 0 1 29 2.4c2.5-.2 5.2-.8 7.8-1q5.7-.9 11.4-1.2c13-1 26.2-.8 39.4-1.2q7.9-.2 15.7-.5c3.5-.2 7-.8 10.5-1 12.6 1 25.2.8 37.7 1.7" class="b"/><path d="M8 131.1c9-.1 18.1-.6 27.2-.7q12.7.4 25.3 2.2c3 0 5.9-.8 8.8-1q6.1-.9 12.2-1.2c12.6-.8 25.2-.8 37.7-1 8.7-.3 17.6-.3 26.3-1.4 12.8 1.2 25.6 1 38.5 1.6" class="b"/><path d="M8 129.4c10.2-.1 20.4-.7 30.7-.6q7 .4 14 1.2l5.2.6q1.8.3 3.5.2c20.3-3.2 40.8-2.9 61.3-3.3q11.4-.1 22.7-1c12.8 1.4 25.7 1.2 38.6 1.6" class="b"/><path d="M8 127.7c11.4-.1 22.8-.8 34.2-.4q8.2.5 16.6 1.7c2.6.2 5.3-.5 7.9-.7 24.6-3.2 49.6-1.7 74.4-3.2l4.4-.3a139 139 0 0 0 13 1.3c8.5.5 17 .3 25.5.5" class="b"/><path d="M8 126c16-.3 32.2-1.3 48.2 1 3.7.7 7.6-.2 11.3-.6q8.3-.9 16.7-1.5c11-.7 22.1-.7 33.2-.9q13.2-.1 26.3-.8c2-.1 4.1.5 6.1.7q4.8.6 9.7.8c8.1.5 16.3.3 24.5.3" class="b"/><path d="M8 124.2c10.5-.1 21-.6 31.5-.3 6.8.1 13.5 1.2 20.2 1.6q21.3-2.7 42.9-3.1 20.1-.2 40.2-.8c2-.2 4.2.4 6.2.7q4.7.7 9.6 1c8.4.6 17 .3 25.4.2" class="b"/><path d="M8 122.4c11.4 0 22.8-.6 34.2 0q8.2.4 16.6 1.4 7-.6 14-1.4 14-1.4 28-1.9 16.6-.3 33.3-.6l10.5.1q5.6 1.4 11.4 1.9c9.3.8 18.7.4 28 0" class="b"/><path d="M8 120.7c10-.1 19.9-.5 29.8-.2q10.5.3 21 1.5c11.4-1 22.7-2.3 34.1-3 14-.9 28-.8 42-1q4.8.2 9.7.6 5.2 1.4 10.5 2c9.6.9 19.3.3 28.9-.2" class="b"/><path d="M8 118.9c10 0 19.9-.5 29.8-.2 7.3.1 14.6 1 21.9 1.6 13-1.3 26.2-2.9 39.4-3.3l7-.6 11.4-.2c5.8 0 11.6-.3 17.5 0q4.4.3 8.7 1 5.2 1.6 10.5 2c10 1 19.9.4 29.8-.3" class="b"/><path d="M8 117.1c10.2 0 20.5-.5 30.7-.1q6.5.2 13 .8c3 .2 6 .8 8.8.7q13.5-1.4 27.2-2.7c6-.2 12.3-.2 18.4-.9l5.2-.8 8.8-.1q7.5-.2 14.8.5 4.6.6 8.8 1.6 3.8 1.4 7.9 1.8c10.7 1 21.6.5 32.4-.5" class="b"/><path d="M8 115.3c10.2 0 20.5-.5 30.7-.1l14 .9c2.8.2 5.8.8 8.7.6q12.8-1.3 25.4-2.5c7.6-.2 15.3 0 22.8-1.2q2.6-.5 5.2-1.2h6.1c4.7.1 9.5.1 14 1.1 5 1.1 9.8 3.4 15 3.8q17 1.1 34-.8" class="b"/><path d="M8 113.6c10.5-.1 21-.6 31.5-.2q7 .3 14 1c3 .1 5.9.8 8.8.5l22.8-2.3c8.7-.2 17.5 0 26.2-1.3l4.4-1c1.1-.2 2.3-1 3.5-.9 4.7.2 9.5.5 14 1.8 3.3 1 6.4 2.6 9.6 3.5 5.5 1.5 11.1.2 16.7.2q7.5 0 14.8.4 4.9-.1 9.7-.9" class="b"/><path d="M8 111.8c10-.1 19.9-.6 29.8-.3q7.5.3 14.9 1c3.2.2 6.4.8 9.6.8 7.3-.7 14.6-1.8 21.9-2.4 8.4-.1 17 0 25.4-.9q6.2-.6 12.2-2.6c2.7 0 5.4.8 8 1.5 2.7.7 5.2 2.4 7.8 3.7 3.2 1.7 7 1.2 10.5.6q4-.5 7.9-.6 7.8 0 15.7.5c2.3 0 4.7.4 7 .4q2.7-.1 5.3-.5" class="b"/><path d="M8 110c12-.2 24-.8 36 0q9 .6 18.3 1.6c5.3-.3 10.5-1.2 15.8-1.7q5.7-.7 11.3-.6 7.5 0 15-.4 6.5-.3 13-1.3c3-.3 5.9-1.3 8.8-1.2q3.3 1.3 6.1 3.4 1.6 1.4 3.5 2 1.4.3 2.7.2c2 .2 4.1-.7 6-1.2 4.4-1 8.9-.7 13.2-.7q8 .2 15.8 1c3.5.2 7 1.1 10.5.4" class="b"/><path d="M8 108.1c8.8 0 17.5-.5 26.3-.4q14 .3 28 2c2 .3 4.1-.1 6.1-.3l8.8-1c4.3-.8 8.7-.7 13.1-.8q8.7 0 17.5-.4 7-.6 14-.8c4.2 0 6.4 1.3 9.7 3.7q2.2.3 4.3.1c2.4-.7 4-3.1 6.2-4.1q14 1.3 28 2.4 4 .3 7.9 1c2 .1 4 .8 6 .5" class="b"/><path d="M8 106.3q11.9-.3 23.7-.5 14 0 28 1.7 3 .4 6.1.6l4.4-.5c5.5-.7 11-1.6 16.6-1.5q13.1-.2 26.3-.6c3.2 0 6.5 0 9.6.8 2.1.4 4 1.6 6.1 2.2 2.1.3 4.2-.5 5.3-2.4.7-1.4 1.3-3.8 2.6-4.8q1.2-.5 2.6-.3h3.5c2 .7 4 1.8 6.2 2.3q4.7 1.4 9.6 1.7 7.5.7 14.9 1.6c3.5.4 7 1.3 10.5 1.8" class="b"/><path d="M8 104.5q10-.3 20.2-.6 12.7 0 25.3 1l14 1.4c6.5-.6 12.8-1.8 19.3-1.8q12.8-.3 25.4-.2a37 37 0 0 1 13.1 2.4q2.4-.2 4.4-1.5c2.3-1.4 3.7-3.9 5.3-5.9q2.6-.2 5.2 0 3.1-.2 6.2 0c3.4 1.2 6.8 2.5 10.5 3 5.2.8 10.5 1 15.7 1.8q5.8.9 11.4 2.4" class="b"/><path d="M8 102.7q9.7-.4 19.3-.7 12.7-.1 25.4.8 8.2.8 16.6 1.8c6.1-.7 12.2-1.7 18.4-1.7 7.8-.1 15.8-.4 23.6.1q5 .4 9.7 1.7c2 .1 4.2-.9 6-1.8q2.5-1.4 4.5-3.2c.7-.7 1.7-1.7 2.6-2.2h14c3.2.7 6.4 2 9.6 2.5 5.5 1 11.2 1.1 16.7 2q4.9.8 9.6 2.6" class="b"/><path d="M8 101c6.4-.3 12.9-1 19.3-1q11.8-.1 23.6.7c7 .3 14 1.4 21 2.2q5.7-.7 11.4-1.3 12.3-.7 24.5 0 4.9.4 9.6 1.3a26 26 0 0 0 12.3-5.1c1.3-.8 2.7-2.2 4.4-2q7.8-.1 15.7 0c3 .6 5.8 1.7 8.8 2 8.5 1.5 17.4 1 25.4 4.6" class="b"/><path d="M8 99.2c5.6-.3 11.1-1 16.6-1.2q8.3.2 16.7.1l12.2.7q8.4.5 16.7 1.8c1.7.1 3.5.6 5.2.5l6.1-.7q11.4-.9 22.8-.3 4.5.3 8.8 1a37 37 0 0 0 14-4.6c1.9-1 3.9-2.4 6-2.5h17.6c2.6.4 5.2 1.4 7.9 1.7 8.4 1.6 17.5.4 25.4 4.5" class="b"/><path d="M8 97.5q6-.5 12.3-1.3l10.5.3c7.3.1 14.6-.4 21.9.1q8.3.4 16.6 1.6c4 .4 8.2 1.6 12.3 1a136 136 0 0 1 19.2-.5q4 .2 7.9.6a54 54 0 0 0 16.6-4.6q3.4-1.6 7-2.5h18.4c2.7.2 5.3 1.2 7.9 1.5 8.4 1.6 17.6 0 25.4 4.2" class="b"/><path d="m8 96 9.6-1.5 21 .3c7 0 14-.5 21 .1 8 .4 15.8 2 23.7 2.6 4.4.2 8.8-.4 13.1-.2q3.1.2 6.2.2 5.7-.3 11.3-1.7 5-1.2 9.7-2.8c2.8-.9 5.7-2 8.7-2.5h19.3c2.6.3 5.2 1.2 7.9 1.5q6 .6 12.2.7c4.2.2 8.6.6 12.3 2.8" class="b"/><path d="M8 94.4q4-.6 7.9-1.5c8.2-.2 16.3.3 24.5.3 6.4 0 12.9-.7 19.3-.4q7 .4 14 1.1 5.2.8 10.5 1.3a97 97 0 0 0 28.9-1.8q5.7-1.2 11.4-2.6 4.3-1.4 8.7-2h18.4c2.6.3 5.2 1 7.9 1.3 4.3.6 8.7.5 13.1.6 3.9 0 8 .4 11.4 2.4" class="b"/><path d="M8 93c2.6-.4 5.2-1.5 7.9-1.6 9-.6 18 .2 27.1.2 7 .1 14-.9 21-.6q4.8 0 9.7.4 6 1 12.2 1.4c9.4.8 18.8-.1 28-1.9l12.3-2.2 4.4-1c1-.2 2.4-.8 3.5-.6 5.2.5 10.5-.3 15.8-.2q2.6.1 5.2.8 2.6.6 5.3.8 6 .3 12.2.1c3.8 0 8 .1 11.4 2.1" class="b"/><path d="M8 91.5C20.3 88.2 33.1 90 45.7 90c7.3.1 14.5-1 21.8-1 6.5-.1 12.9 1 19.3 1.4 9.4.7 18.7-.6 28-1.7 5.6-.6 11.2-1.1 16.7-2.5q1.7.1 3.5.4 3 .3 6 0c3.3-.1 6.5-.9 9.7-1.3 3 .4 5.8 1.4 8.8 1.5 4.6.4 9.3 0 14-.2 3.5 0 7.3 0 10.5 1.7" class="b"/><path d="M8 90.1a76 76 0 0 1 17.5-2.3c7.3-.2 14.6.6 22 .7 10.7.2 21.5-2.1 32.3-1q8.8.9 17.5.5c6.4-.2 12.9-1 19.3-1.2q4.8 0 9.6-.7c1.4-.1 3-.6 4.4-.7a32 32 0 0 0 15.7.3q2.2-.3 4.4-1c.8-.1 1.9-.6 2.7-.2 5.6 1.6 11.7 1 17.5.4 4.3-.3 9-.9 13 1" class="b"/><path d="M8 88.6A85 85 0 0 1 28.2 86c7.5 0 15.1 1 22.7 1 7 .2 14-.9 21-1.4 6.1-.4 12.3.2 18.4.2q10 0 20.2-.4c6-.1 12.3.4 18.3-.8 4.6 1.3 9.4 1.2 14 1q6-.3 11.4-2 4.8.8 9.7.4c6.6-.4 13.6-2.7 20.1-.4" class="b"/><path d="M8 87A89 89 0 0 1 30 84.4c7.9 0 15.8 1.3 23.6 1.4 9.7.2 19.3-2 29-2H106c4.3 0 8.7.5 13.1.6q4 .1 7.9-.5 3.5.7 7 .9c7 0 14.2.2 21-1.5 1.3-.6 3-.3 4.4-.3q3 0 6.1-.6c6-.8 12.3-2.7 18.4-1" class="b"/><path d="M8 85.4q12.1-3 24.5-2.8c8.5.2 17 1.7 25.4 1.7 7.4 0 14.6-1.3 21.9-1.9q13-1 26.3-.2c6.4.5 12.8 1.6 19.2.7q7 .8 14 .6 6.6.1 13.2-.4 3-.3 6-1.2 4-.1 8-1c5.7-1.3 11.6-3 17.5-1.9" class="b"/><path d="M8 83.6q6.5-1.8 13.1-2.3a95 95 0 0 1 14-.4c8.2.3 16.4 1.9 24.6 2 7 .3 14-.8 21-1.6q10-1.2 20.1-.7c4.7.1 9.4 1 14 1.4q4.9.3 9.7-.2c5.2.4 10.5.1 15.7.2 5.3 0 10.6.3 15.8-.2q2.6-.3 5.2-1.1 3.1-.4 6.2-1.3c5.3-1.6 10.9-3.3 16.6-2.5" class="b"/><path d="M8 81.5c4-1.4 8.2-1.6 12.3-2a122 122 0 0 1 15.7-.4c9.1.4 18 2.3 27.2 2.5 14 .3 28-3.8 42-1.6q6 1 12.2 1 2.7-.2 5.3-.6h5.3c9.3-.4 18.6.4 28 .3q3.6 0 7-1.2 4-1 7.8-2.5 6.4-2.6 13.2-2.2" class="b"/><path d="M8 78.5c4-1 8.2-.7 12.3-1q9.6-.6 19.2 0c10.3.7 20.4 3 30.7 2.6 7.3 0 14.6-1 21.9-1.2q9.1-.2 18.4.9 3.5.2 7-.2c1.4-.1 2.9-.9 4.3-.9l11.4-.3c7.9 0 15.8.9 23.7 1q3 0 6-.6l3.6-1.2c6.9-2.4 9.5-5 17.5-4.6" class="b"/><path d="M8 74q5.3 1 10.5 1.4c7.9.1 15.8-.3 23.7.3 6.7.5 13.4 2 20.1 2.6 7.6.6 15.2.3 22.8 0q9.6-.6 19.2 0 4.5 0 8.8.3c3 .2 4-.7 6.1-2.9 2 .5 4.1.3 6.1.4q7 0 14 .4c7.9.4 15.8 1.8 23.7 1.2 5-.6 9.3-4.1 14-5.8 2.2-.8 4.7-.7 7-.7" class="b"/><path d="M8 69.4c1.9.1 3.5 1.7 5.3 2.2a27 27 0 0 0 7 1.5c10.4.7 21 .1 31.5 1.7q7.8 1.5 15.7 2c8.5.4 17 0 25.4-.1h15c2.2 0 4.7.2 7-.6 1.7-.7 2-4 2.5-5.5l1.8-1c.5.4 1.4 1.3 1.7 1.8 2.4 2 5.8 1.8 8.8 2q6.6.5 13.1 1.3c7.6.8 15.2 2.2 22.8 1.4 2.9-.4 5.4-2.3 7.9-3.7a15 15 0 0 1 10.5-3" class="b"/><path d="M8 67.7c2 0 4.3-.3 6.1.8q4.3 2 8.8 2.4c11 1.3 22.3.5 33.3 2.5q7 1.4 14 1.8 11.3.1 22.7-.1l11.4-.1c3-.1 6 0 8.8-.9a7 7 0 0 0 2.6-2.1q2.5-1.6 5.2-2.7c1.2-.3 2.4-1 3.5-.2q2.6 1 5.3 1.5 9.1 1.5 18.4 2.7a98 98 0 0 0 13.1 1.4c3.2 0 6.8.3 9.6-1.4q3.7-2.9 8-5c1.5-.7 3.5-.6 5.2-.6" class="b"/><path d="M8 66c2.6 0 5.3-.3 7.9.1a44 44 0 0 0 12.3 3.1c9.5 1.2 19.3.6 28.8 2.2q7 1.1 14 2 10.1.2 20.2 0l10.5-.2c2.9-.1 6-.1 8.8-.9a10 10 0 0 0 3.5-1.8l5.2-2q2.5-1.1 5.3-1.6 1.2-.5 2.6 0 6 2 12.2 3c7.3 1.1 14.6 2.7 22 3 3.4.1 7.2.6 10.4-.9 2.7-1.8 5-4.3 8-5.6 1.2-.6 2.9-.5 4.3-.5" class="b"/><path d="M8 64.2h5.3q1.7-.1 3.5.2c4.2 1.6 8.7 2 13 2.8 8.2 1.3 16.5.8 24.6 1.5 6.2.6 12.3 1.8 18.4 2.7q8.8.4 17.5.2c5.8-.2 11.8 0 17.5-1.1q2.3-.5 4.4-1.7l6.1-2c3.7-1 7.6-1.9 11.4-1.6q4.3 1.4 8.8 2.4 5.6 1.2 11.3 2 4.8 1 9.7 1.5c4.3.1 9 1 13-.6 1.5-.5 2.6-2 3.6-3a13 13 0 0 1 5.2-3.3h2.7" class="b"/><path d="M8 62.4c2.6.1 5.3-.2 7.9.2q6 1.8 12.3 2.6 6.5.6 13 1c5.9.3 11.8.1 17.6.5q5.7.3 11.4 1.3c2.8.7 5.7 1.5 8.7 1.5q7 .3 14 0 6.2 0 12.3-1 2.7-.3 5.2-1.6l7-1.7a61 61 0 0 1 15-1.5q3.8 1.3 7.8 2.2l11.4 2.1q5.6 1.1 11.4 1.5c3.7 0 7.9.8 11.3-1 1.5-.8 2.5-2.6 3.5-3.9q1.6-1.3 3.5-2.1h2.7" class="b"/><path d="M8 60.7q3.5-.2 7 .1 5.6 1.9 11.4 2.5 7 1 14 .9 7.5.4 14.9 0 8.2-.2 16.6 0c1.5.5 2.8 1.6 4.4 2 4.5 1.2 9.3 1.1 14 1.1q7 0 14-1l4.4-1.3 6.1-1.2q6-1 12.3-1.4 3.5 0 7-.2l7 2q5.6 1.2 11.4 2 5.6 1.3 11.3 1.6c3.8 0 8 .7 11.4-1 4-2.4 2.6-6.7 8.8-6.1" class="b"/><path d="M8 59h5.3c1.7.3 3.5 1.2 5.2 1.6 3.4.8 7 1 10.5 1.5q8.3 1 16.6.4a131 131 0 0 0 21-1.8l3.6-.8q1.2-.5 2.6-.4c5.3 5 13.1 5.3 20.1 5.2q6.7 0 13.2-1.5 5.6-.9 11.3-1.4 8.3-.9 16.7-1 1.8-.1 3.5.5l3.5 1q5.6 1.1 11.4 2 6.5 1.3 13 1.7c3.5.1 7.4.6 10.6-1 2-1.1 3.2-3.6 4.4-5.6 1-.8 2.3-.4 3.5-.5" class="b"/><path d="M8 57.9c1.4-.4 3-1 4.4-.6q3.4 1.4 7 2.2Q29 61 38.7 61.2c4.3 0 8.8 0 13-.9q4-.1 8-.9c3-.5 5.8-1.5 8.7-2.1q2.6-.1 5.3-.1c1.5-.2 3 .7 4.3 1.5q2.2 1.2 4.4 2C87 62 91.7 62 96.4 62c3 0 5.9-.7 8.8-1l14.9-1q5.7-.4 11.3-.5c2 0 4.2-.7 6.2 0q6.9 1.8 14 2.8c4.3.7 8.7 1.6 13.1 1.8 4.2.2 9.5 1.1 13.1-1.5 1-.8 2-2.3 2.7-3.4l.8-1.5 1-.5h1.7" class="b"/><path d="M8 57.2c1.4-.2 3-1.1 4.4-1q3.8 1.6 7.9 2.2 11.3 1.2 22.7 1.2 6.8.1 13.2-1.4 4.4-1.3 8.7-2.5c2-.5 4.1-.2 6.1-.3h7c1.9.3 3.6 1.5 5.3 2a29 29 0 0 0 7 1.7q4 .4 7.9.2 3-.3 6.1-.3 11-.1 21.9-.8 4.8-.1 9.6-.5c1.1-.3 2.4.3 3.5.5l4.4 1c9.3 1.4 18.6 3.4 28 3.3 10.2.2 8.5-7.4 12.3-7" class="b"/><path d="m8 56.4 4.4-1.1c2.9.7 5.8 1.6 8.7 1.8q12.3 1 24.6.9c4.4-.1 8.9-.3 13-1.7 2.2-.6 4.1-2 6.2-2.6h5.3q5.6-.2 11.3 0c3.7 1.3 7.5 2.7 11.4 3q9.7.4 19.3.5 11 0 21.9-.9c1 0 2.4-.4 3.5-.2q3 .8 6.1 1.3l17.5 2.6c5.2.4 10.7 1.4 15.8 0 2.8-.9 4.5-3.6 6.1-6l.9-.3" class="b"/><path d="M8 55.3q2.6-.5 5.3-1 4.7 1.3 9.6 1.5 12.2.8 24.5.6c4.4-.1 9-.3 13.1-1.7 2.2-.6 4-2 6.2-2.8H71c4.4.1 8.8-.2 13.2.1q3 1 6.1 1.7l7.9 1.2a206 206 0 0 0 38.5-.5q3.5.7 7 1.3l18.4 2.5c5.2.4 10.7 1.3 15.7-.3 2.8-1 4.5-3.6 6.2-5.8" class="b"/><path d="m8 54 5.3-1 6 1q8.4.7 16.7.8c8.2 0 16.5.5 24.5-1.1q2.8-.6 5.3-2l2.6-1.5H85c4.4 1.2 8.7 2.7 13.2 3a190 190 0 0 0 38.5-.4q3.5.8 7 1.2l16.6 2c5.2.6 10.6 1.3 15.8.6 3.3-.4 6-2.8 7.9-5.5" class="b"/><path d="m8 52.4 5.3-.8q4.3.7 8.7 1 10 .6 20.2.6c7.2-.1 14.7.4 21.8-1.6l3.5-1.5c1.1-.5 2.3-1.5 3.5-1.7 4.1.1 8.2-.2 12.3.1 4.3 1.2 8.7 2.6 13.1 3a191 191 0 0 0 40.3-.2l5.3.8q8.2.8 16.6 1.8 6.5.9 13.1 1c4.8.2 9.3-1 12.3-5" class="b"/><path d="m8 50.7 4.4-.5q4.8.5 9.6.7 11 .7 22 .7 7.4.1 14.8-.4c4.7-.2 9.3-1.3 13.1-4.1 1.3-.7 3-.3 4.4-.4q2.2-.1 4.4.2Q87 49.1 93.8 50q18.8 2 37.7.6 3-.2 6-.7l5.3.6q8 .5 15.8 1.5 6 .7 12.3 1c4.7.2 10-.6 13-4.6" class="b"/><path d="M8 49q2.2-.2 4.4-.4 4.4.6 8.7.7 11.8.7 23.7.6 7.5.1 14.9-.2c4.8-.2 10-1 14-4 1-.8 2.3-.5 3.5-.2l4.3 1.4a58 58 0 0 0 8.8 1.6q11 1 21.9 1.1c7.9 0 15.8.1 23.6-.9 2.9-.7 5.9 0 8.8.1q7 .4 14 1.2c4.3.4 8.7 1 13.1 1s9.2-.9 12.3-4.4" class="b"/><path d="M8 47.2q3.5-.3 7 .2l7.9.4q13.5.6 27.1.5c5.9 0 11.8.3 17.5-.6a22 22 0 0 0 7-2.3c.5 0 1.4 0 1.8.2 10 2.5 20.4 2.1 30.6 2.5q11.8.4 23.7-.1 3-.2 6.1-.7l2.6-.5 2.7.2q9.6.3 19.2 1.3c7.5.5 16.9 2.3 22.8-3.6" class="b"/><path d="M8 45.5c2.6-.2 5.3.3 7.9.4q5.7.4 11.4.5 18.3.3 36.7.5 5.5 0 10.6-1.3 6.5.7 13 1h18.5q9.6.5 19.2.3 7.5-.1 15-1.6 4.3-.2 8.7 0c5.8.2 11.7 1 17.5 1.3 6 .4 12.8.4 17.5-4" class="b"/><path d="M8 43.9c15.7 1.4 31.5.8 47.3 1.3l13.1.5h14.9c8.5-.2 17-.6 25.4-.3 8.7.3 17.5.4 26.2-.6 2.7-.2 5.3-1 8-1.3q9-.2 18.3.6c7.8.6 16.4 1.7 22.8-3.6" class="b"/><path d="M8 42.5c14.9 1.2 29.8.5 44.7 1 7.3.2 14.6 1 21.8 1.5q9.3 0 18.4-.6c8.2-.6 16.4-.3 24.5-.1 8.8-.2 17.7-.3 26.3-2.5 2.3-.5 4.7-.2 7-.3q6.6.1 13.1.7c5 .3 10.2.5 15-1.1q2.6-1.2 5.2-2.8" class="b"/><path d="M8 41.3c14.3.8 28.6.1 43 .5q7 .2 14 1c4 .4 8 1 12.2.9 9.3.1 18.7-.8 28-1q10 .3 20.1-.1 9.8-.2 19.3-2.3c3.1-1 6.4-.8 9.6-.8 6.2 0 12.3 1 18.4.5q3.1-.2 6.2-1.4c1.7-.7 3.4-1.8 5.2-2.4" class="b"/><path d="M8 40.1c15.8.7 31.6-.7 47.3.2q7 .6 14 1.5 10.5-.6 21-.1c6.1.3 12.3-.3 18.4-.2 10.5-.1 21.1-.2 31.5-1.7q5.7-1 11.4-2.4l8.8.1c4.9.2 10 .6 14.8-.4q2.3-.5 4.4-1.4c1.4-.5 2.9-1.3 4.4-1.3" class="b"/><path d="M8 39c10.2.2 20.5-.4 30.7-.5q13.1-.7 26.2 1.2c2.3.5 4.7 0 7-.3q4.8-.5 9.6-.4c6.5 0 12.9.6 19.3.8a284 284 0 0 0 37.6-1.3c6.2-.8 12.3-2.3 18.4-3.4 5.3-.1 10.6.5 15.8-.2q2.7-.3 5.2-1.1 3-1.2 6.2-1.1" class="b"/><path d="M8 37.8c14.3.1 28.6-1.3 43-1.1q4.8.1 9.5.8c2 .2 4.1.8 6.2.6q7-1.2 14-1.5c5.8-.1 11.7.5 17.5.9 7.6.6 15.2.3 22.8.5q9.7.2 19.2-1.2c7.3-1.1 14.6-2.8 21.9-3.8 3.4-.7 7-.3 10.5-.8 2.3-.3 4.7-1 7-1.3h4.4" class="b"/><path d="M8 36q7-.1 14 .2c10.2-.5 20.5-1.4 30.7-1.1 4 0 8.1 1 12.2 1.3 7.3-1 14.5-2.4 22-2 4.9 0 9.8.6 14.8 1q6.5.4 13.1.5c5.8 0 11.7.8 17.5.1 6.5-.4 13-1.6 19.3-2.6q7.5-1.2 14.9-2.2 4.8-1 9.6-2 4-.1 7.9 0" class="b"/><path d="M8 33.8q10.1 0 20.2.6c7.5-.4 15.1-1 22.7-1q4.5 0 8.8.6c1.7.2 3.5.8 5.2.6 6.4-1 12.8-2.3 19.3-2.5 6.7-.4 13.4.6 20.1 1.1l21.9 1.2c6.1.5 12.3-.6 18.4-1.4q10-1.6 20.1-2.9 6.3-.9 12.3-2.4c2.3-.5 4.7-.3 7-.3" class="b"/><path d="M8 31.7q12.3 0 24.5 1 9.2-.8 18.4-1c4.4 0 8.8.8 13.1 1.2 6.5-1 12.8-2.4 19.3-2.9 8.8-1 17.5.6 26.3 1.3l16.6 1.2 5.2.4 8-.8c9.5-1.4 19.2-2.4 28.8-3.8q4.9-.8 9.6-2.1 3-.8 6.2-.5" class="b"/><path d="M8 29.7q13.5 0 27.2 1.2c5.5-.2 11-1 16.6-.8q3.5 0 7 .4c1.7.2 3.5.7 5.2.6 6.5-.9 12.8-2.4 19.3-3.1 7.6-1.1 15.2-.6 22.8.5a472 472 0 0 0 26.2 2.6q2.6-.1 5.3-.4 7.8-1.1 15.7-2 8-.7 15.8-1.9 4-.6 7.9-1.6 3.3-1.1 7-1.3" class="b"/><path d="M8 27.8q15-.1 29.8 1.4c5-.1 9.9-1 14.9-.8q3.5 0 7 .5c1.4.1 3 .6 4.3.4 6.8-1 13.5-2.5 20.2-3.5q5.6-1 11.4-1 5.7 0 11.3 1.2 13.5 2.5 27.2 3.4l12.2-1.5c7.9-1 15.8-1.4 23.7-2.6 4.7-.6 9.3-2.1 14-2.9" class="b"/><path d="M8 26q15.7-.3 31.5 1.4c2 .2 4.2-.2 6.2-.3a71 71 0 0 1 8.7-.4q4.5.3 8.8.9c7.6-1 15.2-2.8 22.7-4.2 3.7-.8 7.6-.7 11.4-.8l6.1-.1 4.4.9q13.4 3.4 27.1 4.2l13.2-1.5c7.3-.8 14.6-1.2 21.9-2.2 4.7-.6 9.3-1.8 14-2.6" class="b"/><path d="M8 24.1c10.8 0 21.7.1 32.4 1.4 2 .4 4.1 0 6.1-.1q4.5-.4 8.8-.3 4 .3 7.9.7 7-1 14-2.5c2.9-.5 5.8-1.5 8.7-1.8q7.5-.5 14.9-.5l5.3-.2c1.4 0 3-.2 4.3.4a93 93 0 0 0 25.4 4.7q7-.9 14-1.6c6.7-.7 13.5-1 20.2-1.8 4.6-.5 9.3-1.6 14-2.1" class="b"/><path d="M8 22.4c12-.1 24 0 36 1.6q3.4-.2 7-.5 5.2-.2 10.4.4c2 .3 4.2-.3 6.1-.5l8.8-1.7q3-.6 6.1-1.6 2.2-.2 4.4-.3 7.8-.2 15.8-.5l7-.3c1 0 2.4-.3 3.5.2a67 67 0 0 0 23.6 5q6.6-1 13.1-1.6Q160 22 170 21c4.6-.3 9.3-1.4 14-1.5" class="b"/><path d="M8 20.6c8.2 0 16.4-.2 24.5.3q4.5.3 8.8.9 3.5.6 7 .2 6.6-.6 13.1.2c2.6.2 5.3-.5 7.9-1q4.4-.7 8.7-1.8c1.4-.3 3-1 4.4-1 10.8-.6 21.6-.3 32.4-1.5a54 54 0 0 0 21.9 5.5c4.4-.3 8.8-1.1 13.1-1.4q10.1-.8 20.2-1.4c4.6-.3 9.3-1.3 14-1" class="b"/><path d="M8 18.8c11.1 0 22.3-.4 33.3 1.1 2.3.2 4.7.8 7 .5q5.6-.5 11.4 0 4.4.3 8.7-.7 5.8-1 11.4-2.7 4.3-.4 8.7-.5 9.3 0 18.4-.6l6.2-.5c1.3 0 3-.8 4.3-.2 6 3.9 13.2 4.9 20.2 5.5q6.5-.8 13.1-1.4 9.6-.6 19.3-1.2c4.6-.2 9.3-1.1 14-.4" class="b"/><path d="M8 17c11.4 0 22.9-.6 34.2 1.1 2.8.4 5.8.8 8.7.4q5.2-.2 10.5.2a63 63 0 0 0 12.3-2c2.5-.6 5.2-1.5 7.8-1.5 12.3-.6 24.7 0 36.8-2.4 1 .2 1.9 1 2.6 1.5l3.5 1.8c4.5 1.8 9.3 2.4 14 2.8 3.8-.2 7.6-1 11.4-1.1q9.6-.7 19.3-1.1c5-.2 10-1 14.9 0" class="b"/></svg>