<svg xmlns="http://www.w3.org/2000/svg" id="a" width="1920" height="2400" viewBox="0 0 192 240"><defs><style>.b{fill:none;stroke:#fff;stroke-miterlimit:10;stroke-width:.3px}</style></defs><path d="M0 0h192v240H0z" style="stroke-width:0"/><path d="M8.2 221.5q7.4 1.2 14.8 1.8c5.5.5 11.3.7 16.6-.9 1.8-.5 3.5-1.5 5.3-2a21 21 0 0 1 10.5 1.3q2.8 1.5 5.2 3.6c1.3 1 2.7 2.2 4.4 2.4 3.2-1 6.1-3 9.6-3.1 7.2-.4 14.6.8 21.8 1.1q5.7.4 11.4 1.1l5.2.8q2.7-.2 5.3-1c4.8-1 9.2-3.7 14-5.3 4.8-1.3 10-1 14.8 0 5.5 1.4 11 2.7 16.6 2.8 6.7.3 13.4-.4 20.1.2" class="b"/><path d="M8.2 220c8.4 1 16.9 2 25.3 1.1q3.1-.3 6.1-1.4a11 11 0 0 1 5.3-1.1c2.9 0 6-.4 8.7.7q3 1.4 5.3 3.5c1.6 1.2 3.8 3.8 6 3q2.7-1.2 5.3-2.3 3-1 6.1-.9c6.7.2 13.5 1 20.1 1.4q5.7.4 11.4 1.1c1.7.2 3.5.7 5.2.7q3.1-.3 6.2-1.3c4.1-1.1 8.1-3 12.2-4.5 6.9-2.3 14.2-.4 21 1.4 10.3 2.6 21 .7 31.4.9" class="b"/><path d="M8.2 218.5c7.5.7 15.2 1.2 22.7.5 3.3-.2 6.4-1.4 9.6-2.2h9.6c6-.5 10.1 8.7 14 7.2 3-1.3 6.2-3 9.6-3.1 7-.3 14 .9 21 1.2q8.7.6 17.5 2 5.8-.8 11.3-2.9c6.4-2.4 11.2-4.5 18.4-3.4 4.7.7 9.2 2.5 14 3.2 9.2 1.5 18.6-.2 28-.7" class="b"/><path d="M8.2 217q10.5 1 21 0 4.4-.8 8.7-2h10.5c1.7 0 3.7-.2 5.2.8 3.2 1.9 5.1 5.8 8.8 6.8 2-.6 4-1.8 6-2.5 5.1-1.8 10.6-1 15.8-.6 7.9.8 15.8 1.1 23.6 2.2l3.5.5q3-.2 6.1-1c6.2-1.4 12-4.7 18.4-5.1 7.5-.5 14.4 3.5 21.8 4 8.8 1 17.6-.6 26.2-1.6" class="b"/><path d="M8.2 215.6c8.7.6 17.7.3 26.2-2.1q2.2-.3 4.4-.2H50c1.2 0 2.5 0 3.5.8 2.2 1.7 3.6 4.5 6.1 5.9 1.7 1 2.8.7 4.4 0q2.6-1.2 5.3-1.9 4.3-.7 8.7-.9l9.6.9q11.4.8 22.7 2.3c7-.4 13.4-3.4 20.1-5q6.6-1.7 13.1.3c4.9 1.5 9.8 3.2 14.9 3.5 8.5.7 17-.9 25.3-2.4" class="b"/><path d="M8.2 214.3q8.3.5 16.6-.9c3-.3 5.8-1.4 8.7-1.8h15.8q1.4-.2 2.6.4c2.7 2.4 5 5.7 8.7 6.8 1.2.3 2.4-.4 3.5-.7a44 44 0 0 1 15.7-2.4c3.8 0 7.6.7 11.4 1l12.2 1.1 4.4.6q1.7.4 3.5.2c6.9-1 13.3-3.7 20.1-5 7.5-1.7 14 2 21 3.6a69 69 0 0 0 31.4-2" class="b"/><path d="M8.2 213a68 68 0 0 0 15.7-1.2c2.7-.5 5.2-1.6 7.9-2h15.7q1.4-.1 2.6.4c3 2.1 5.4 5 8.8 6.4 1.6.8 2.7.5 4.3 0a55 55 0 0 1 18.4-2.5q3.5.2 7 .6l9.6.9 7.8 1c1.7.2 3.6.5 5.3 0 6.5-1 12.7-3.3 19.2-4.5 8-1.7 14.4 2.4 21.8 4 10.5 1.7 21.5 1 31.5-2.4" class="b"/><path d="M8.2 211.8q7.6.2 14.8-1.5c2.7-.5 5.2-2 7.9-2.3h11.4c2 .2 4.2-.3 6 .5 3.8 2.2 7 5.6 11.4 6.7 1.1.4 2.4-.2 3.5-.5q7.3-2.1 14.9-2c3.5-.1 7-.3 10.5.2l13 1.4 4.4.6c1.1.1 2.4.4 3.5.1 6.8-1 13.4-3.4 20.2-4.4 8-1.6 14.2 2.3 21.8 4 4.6.9 9.3.9 14 .9q9.4.2 18.3-3.2" class="b"/><path d="M8.2 210.6q7 .2 14-1.5c2.4-.6 4.6-1.9 7-2.7 5.2-.3 10.5 0 15.7-.1 1.2 0 2.4.9 3.5 1.5l3.5 2.1q3 2 6.1 3 1.3.5 2.6.7.9-.1 1.8-.4c7.9-2.4 16.2-2.2 24.4-2.2l13.1 1.4c2.6.3 5.3 1 8 1 6.7-1 13.2-3.2 20-4.3 9.2-1.7 14.3 2 22.7 3.8 5.2 1 10.5 1 15.8 1 5.9 0 12-.3 17.4-3" class="b"/><path d="M8.2 209.5c6.2 0 12.8-.5 18.3-3.7q1.3-.7 2.7-1.2h9.6c5.6-.1 4.7-.2 9.6 2.4 3 1.4 10 5.4 13 4.7a87 87 0 0 1 25.4-2.2c6.4.4 12.9 1.4 19.2 2.2 6.8-.9 13.4-3 20.1-4 11.3-2 15.3 2 25.4 3.9 5.2.7 10.5.4 15.7.5 5.6 0 11.6.3 16.6-2.4" class="b"/><path d="M8.2 208.5c5 0 10.2-.3 14.8-2.1q2.3-1.1 4.4-2.7 1.6-1.1 3.5-.9h10.5c2.1.6 4 2 6.1 2.9 4.3 1.7 8.6 3.5 13.1 4.4 3.8-.7 7.6-1.6 11.4-1.9q7.5-.5 14.8-.3c5.3.2 10.5 1.1 15.8 1.7 2.6.6 5.3-.2 7.8-.6q6.6-1.6 13.1-2.7c14-2.3 16 1.5 28 3.6 5.8.7 11.7.3 17.5.4 5 0 10.4.7 14.8-2" class="b"/><path d="M8.2 207.4q4.8 0 9.6-.6c2-.3 4.3-.6 6.1-1.8a20 20 0 0 0 3.5-2.6c.7-.7 1.6-1.6 2.6-1.3h6.2c1.3 0 3-.3 4.3.3q5 2.9 10.5 4.3 4.4 1.4 8.7 2.4c1.8.4 3.6-.3 5.3-.5a91 91 0 0 1 26.2-1l11.4 1.5c2.3.2 4.7-.6 7-1q6-1.3 12.2-2.4c5.5-.7 11.2-1.2 16.6.2 4.6 1.2 9.2 2.9 14 3.4 5.7.5 11.6.2 17.4.3 4.7-.2 10 .9 14-2" class="b"/><path d="M8.2 206.2q7 .3 14-1c2.9-1 5-3.4 7-5.7 2.5-.4 5.2 0 7.8-.2 1.6.3 3 1.6 4.4 2.1 3.8 1.8 8.1 2.5 12.2 3.5 2.9.5 5.8 1.6 8.7 1.6l5.3-.9a99 99 0 0 1 22.7-.5l8.8 1 2.6.4 3.5-.5c10.3-1.9 20.9-4.9 31.4-3 4.7.9 9.3 2.5 14 3.2 5.5.8 11 .6 16.6.7h7.9c3 0 6.4 0 8.7-2.2" class="b"/><path d="M8.2 204.8q5.3.2 10.5 0c1.7-.1 3.6 0 5.2-.8a9 9 0 0 0 4.4-3.6c.3-.7 1.2-2.2 1.7-2.7q2.7-.2 5.3 0c4.5 4 10.9 4.1 16.6 5.3q5.2 1 10.5 1.7c3.5-.2 7-1 10.5-1.3q7.4-.5 14.8 0 6.1.6 12.2 1.4 5.3-.6 10.5-1.8c9.4-2 19.3-3.3 28.9-1.3q6 1.5 12.2 2.6 7.8.8 15.7.8h8.8c3.4.1 5.9-.5 7.8-3.6" class="b"/><path d="M8.2 202.5q4.4 0 8.7.3c3.8.5 8 1.2 11.4-1 .8-1 2.3-1.7 3.5-2.4.8-.4 1.7-1.2 2.6-1 2.5 1.8 5.8 1.7 8.7 2l11.4 1.3q4.8.7 9.6 1.3c5.5-.7 11-1.6 16.6-1.4 5.9 0 11.7.8 17.5 1.4 6.2-.7 12.2-2.2 18.3-3a78 78 0 0 1 26.3.3c2.9.4 5.8 1.3 8.7 1.7q7.8.7 15.7.9c3.8 0 7.7.4 11.4-.4 2.7-.5 3.7-3.7 4.4-6l.8-.7" class="b"/><path d="M8.2 200.2q5.3-.2 10.5.4c1.4.1 3 .7 4.3.8q2.6.3 5.3.2 2.2.1 4.4-.3 2-.9 4.3-1.3 6.5-.8 13.1-.4c5.3.3 10.5 1.3 15.8 1.6 5.2-.6 10.4-1.3 15.7-1.1 5 0 10 .9 14.8 1 7.3-.7 14.5-2.5 21.9-3.2q8.7-.8 17.5-.9 3.9 0 7.8.4c1.2 0 2.4.9 3.5 1.2 6.5 1.8 13.4 1.5 20.1 1.8q3.5 0 7-.2 2.9-.1 5.3-1.6c.5-.4 1.3-1.5 1.7-2.1l.9-1.7.9-.7h.8" class="b"/><path d="M8.2 197.8q7.6-.5 14.8.7 2.4.2 4.4 1.2c1.4.3 3 .1 4.4.2H36q2.7-.7 5.3-1.1 4.7-.9 9.6-.7c5.5.2 11 1 16.6 1.4 5.8-.7 11.6-1.3 17.5-.8 3.2.1 6.4 1 9.6.6 8.2-1 16.2-2.7 24.5-3.3q7.9-.5 15.7-1.4 2.2 0 4.3-.4c1.1 0 2.5-.4 3.6 0l3.4 1.4c5.4 1.5 11.1 1.8 16.7 2 4 0 8.2 0 12.2-.8 2-.4 4-1.5 5.2-3l.9-1.1.9-.4h1.7" class="b"/><path d="M8.2 195.5c4.6-.2 9.3-.6 14-.2 2 0 4.2-1 6 0 2.2 3.4 2.5 2.8 6.2 2.8h5.2q4-.9 7.9-1.3c5.8-.5 11.7 0 17.5.5q2.6.3 5.2.4l7-.5q6.1-.2 12.2.4c3.5.2 7-.6 10.5-1q8.2-1.4 16.6-2.2 5.7-.4 11.4-1 4.8-.8 9.6-1.9c1-.2 2.4-.7 3.5-.4q3.3 1.6 7 2.4a80 80 0 0 0 25.3.5q3.4-.6 6.1-2.7c1.2-1 3-.7 4.4-.7" class="b"/><path d="M8.2 193.2q5.7-.2 11.3-.8c3.7 0 6-1.3 8.8-3.5 2.5 1.6 3 5.3 5.2 7.2 1.7.5 3.6.2 5.3.3q4 0 7.8-.8a95 95 0 0 1 23.6.2c2.6.4 5.3 0 7.9 0a85 85 0 0 1 8.7.2c7-.5 14-1.7 21-2.5 6-.7 12.3-1 18.3-2 3.9-.4 7.5-2.2 11.4-2.7q2.7-.1 5.2.8 3 1 6.2 1.5a83 83 0 0 0 20 .7q4.1-.4 8-1.9 1.2-.6 2.5-1h4.4" class="b"/><path d="M8.2 191a73 73 0 0 0 13-1.5c2-.3 3.6-1.6 5.3-2.4h5.3l.8.6c.8 2.4 1.6 5.7 4.4 6.5 2.2.6 4.7.4 7 .4q3.5-.5 7-1 8.7-.8 17.5 0c12.8 1.8 25.7-.6 38.4-1.9 6.1-.6 12.3-.9 18.4-2q3.5-.9 7-2.2 2.2-.6 4.3-.4h4.4q3.5.9 7 1.6a79 79 0 0 0 25.3-.2q2.6-.8 5.3-1.4l5.2.2" class="b"/><path d="M8.2 188.8a49 49 0 0 0 14-2c1-.5 2.3-1.3 3.5-1.5h7.8c1.3 2 2.3 4.7 4.4 6 1.8 1.2 4 1.4 6.1 1.5 2.6.2 5.3-.4 7.9-.8q8.1-1.1 16.6-.4 4.7.5 9.6.7c9-.2 18-1.5 27-2.3 6.2-.6 12.4-.9 18.4-2q3.1-.9 6.1-2 2.2-.9 4.4-.7c3.2.1 6.5-.3 9.6.4a77 77 0 0 0 29.7.6q2.2-.6 4.4-.9l6.1.5" class="b"/><path d="M8.2 186.8c5.3-.2 10.8-.9 15.7-3 2-.4 4.1-.1 6.1-.2h3.5q1-.1 1.8.4c2.4 4 4.9 6.3 9.6 6.8l3.5.3 5.2-.8q5.3-.8 10.5-.9c4.7 0 9.4.7 14 .8q7.5-.1 14.9-1c9-1 18-1.2 27-2.7q3.1-.6 6.2-1.7c1.3-.5 2.8-1.3 4.3-1.2H142q3.9.7 7.8 1.3 9.2 1.5 18.4.4c2.6-.2 5.3-1 7.9-1.3l7.8.5" class="b"/><path d="M8.2 184.8a50 50 0 0 0 9.6-1q3-1 6.1-2h12.2c1.3 1 2.3 2.6 3.5 3.7q2 1.6 4.4 2.6 3.4 1.1 7 1.2 3-.7 6.1-1c6-1 12.3-.7 18.4-.3 6.7.4 13.4-.5 20-1 7-.6 14.1-.9 21-1.9q3.1-.4 6.2-1.3 2.5-1 5.2-2h7q4 0 7.8.2c5.5 1 11 2.2 16.7 2.2q7 .3 14-1.3l10.4.4" class="b"/><path d="M8.2 183q4.9 0 9.6-1.2c2-.4 4-1.4 6.1-1.7h8.8q2.5-.2 5.2.1c1.5 1.2 2.8 2.8 4.4 3.8a19 19 0 0 0 7.8 3.2c2 .6 4.1 0 6.1-.4q4.4-.9 8.8-1c4.6-.2 9.3.3 14 .3q8.7-.3 17.4-1c7.3-.7 14.7-.8 21.9-2.3 2.7-.6 5.2-1.8 7.8-2.6q4-.1 8-.1 3.8-.2 7.8.1c6 1.3 12 2.9 18.3 3q4.9 0 9.6-.7l14-.2" class="b"/><path d="M8.2 181.2q4.9 0 9.6-1.2c2-.4 4-1.4 6.1-1.7h9.6c2 .1 4.2-.2 6.1.3 2 1.4 4 3.3 6.2 4.5 2.6 1.4 5.7 2.7 8.7 2.6q5.6-1.4 11.4-1.7c4.9-.3 9.9.2 14.8 0q9.6-.4 19.2-1.1c6.2-.5 12.4-.7 18.4-2.3 2.3-.5 4.6-1.8 7-2.3h14c2.3.1 4.7 1.1 7 1.7q3.8 1.2 7.8 1.8c9.9 1.6 19.8.3 29.7-.4" class="b"/><path d="M8.2 179.4q7.6-.1 14.8-2.7c5-.3 10 0 14.9-.1 1.4 0 3.1-.3 4.4.7 2.2 1.6 4.5 3.5 7 4.7q2.8 1.6 6 2 1.9-.1 3.6-.7c8.3-2 16.9-.8 25.3-1.3 10-.7 20-.9 29.7-2.4q3.1-.6 6.1-1.7c1.4-.5 3-1.3 4.4-1.3h9.6q2.6-.2 5.3.2c4.9 1.7 9.6 4.1 14.8 5 9.9 1.7 19.9 0 29.7-1" class="b"/><path d="M8.2 177.7q4.9 0 9.6-1.1c2-.5 4-1.4 6.1-1.7h14q2.7-.2 5.2 0c2.5 1.3 4.6 3.3 7 4.7 2.1 1.3 4.5 2.5 7 2.6q2.6-.6 5.3-1c6.3-1.2 12.8-.8 19.2-1q12.6-.7 25.3-1.7 5.3-.3 10.5-2l4.4-1.5q1.7-.3 3.5-.2c3.7.1 7.6-.2 11.3.2 2.6.7 4.7 2.6 7 3.7 3.8 1.9 8.1 2.5 12.3 2.9 9.3.7 18.7-.3 28-1.4" class="b"/><path d="M8.2 176q4.9 0 9.6-1.1 3-.9 6.1-1.8h16.6q2.2-.2 4.4.2c2.8 1.4 5 3.8 7.8 5.2 1.9 1 4 2 6.2 1.8l3.5-.7a89 89 0 0 1 17.4-1.3l11.4-.6c7-.5 14-.6 21-2q3-.5 6-1.6 2.2-1 4.5-1h7.8c1.4 0 3-.2 4.4.4 2.3 1 3.8 3.4 6.1 4.4 3.2 1.7 7 2.1 10.5 2.4 4.6.2 9.3-.4 14-.2l7.8.2 10.5-.9" class="b"/><path d="M8.2 174.4a45 45 0 0 0 9.6-1.1c2.3-.5 4.6-1.6 7-2h13q3.6 0 7 .2c3.5 1.4 6.3 4 9.7 5.5 1.9.8 4 1.9 6.1 1.5q8.6-2 17.5-2 6.6-.1 13.1-.7c8.8-.6 17.8-.6 26.2-3.5q1.7-.6 3.5-1h9.6c3 .3 4.7 3.6 7 5.2 3 1.8 7 2.5 10.5 1.9a153 153 0 0 1 29.7 0q3 .4 6.1 0" class="b"/><path d="M8.2 172.8q4.9 0 9.6-1.1c2.3-.5 4.6-1.5 7-2q9-.1 18.3-.1c3 0 5.4 1.9 7.9 3.2 3 1.7 6.2 3.3 9.6 4 1.4.2 3-.5 4.4-.7l6-.9c5.3-.6 10.6-.6 15.8-1 9.6-.7 19.5-.6 28.9-3.3q2.2-.7 4.3-1.3h7.9c1.4 0 2.6 1.4 3.5 2.3l2.6 2.7c1.6 1.6 4 2.2 6.1 2.4l3.5-.6c5.5-1 11.1-1 16.6-1q12-.3 23.6 1.2" class="b"/><path d="M8.2 171.2q5.8 0 11.3-1.6c2.6-.6 5.2-2 7.9-1.8H44q2.3.6 4.4 1.5c4.5 2.1 9 4.8 14 5.7 2 0 4-.7 6-1 5.2-1 10.6-1.2 15.8-1.5q10.5-.6 21-1.6 6.6-.8 13-2.7c2.6-.7 5.4-.3 8-.3 2 1.4 3.2 4 5.2 5.7 3 2.6 5.3 1.6 8.7.8q4-.7 7.9-.9c12-.3 24-.7 35.8.8" class="b"/><path d="M8.2 169.6q5.8-.2 11.3-1.5 3-1 6.2-1.8 2.2-.3 4.3-.2h13.1c6.5 1 12.1 4.9 18.4 6.6l2.6.6c1.7 0 3.6-.6 5.3-.9q4.3-.8 8.7-1.2c10.8-1 21.6-1.3 32.3-3 3.3-.4 6.4-1.4 9.6-2l3.5-.1c.8.2 1.4 1.1 1.8 1.8 2.9 4.8 4.6 7.2 10.5 4.7 3.3-1 7-1.1 10.5-1.2h11.3c8.8 0 17.5-.3 26.2.5" class="b"/><path d="M8.2 168q5.3-.1 10.5-1.3 3.9-1.1 7.8-2.2c3.5-.4 7 0 10.5-.1h6.1q2.7.4 5.3 1.3 5.7 1.9 11.3 4.1 3 1.1 6.2 1.8 1.7-.2 3.5-.6c6.3-1.4 12.8-1.8 19.2-2.4 7.8-.7 15.8-1 23.6-2.3q3-.5 6-1.2c1.2-.2 2.5-.7 3.6-.7 2.3 3.5 3.1 9.2 8.7 7.1q2.5-1.4 5.3-1.8c4-.6 8.1-.4 12.2-.3 12 .4 23.9-.3 35.8.3" class="b"/><path d="M8.2 166.3q5.3 0 10.5-1.2 4.4-1.2 8.7-2.3c2-.4 4.1-.1 6.1-.2h8.8q7.5 1.5 14.8 4c3.7 1.2 7.5 3 11.4 3.2l6.1-1.1c9.2-1.6 18.6-2 28-3l10.5-.8 4.3-.2c1.2 0 2.7.1 3.5 1 1.3 3.6 2 5.2 6.1 4.3 1.8-.9 3.3-2.4 5.3-2.6 4-.6 8.2-.1 12.2 0 13.1.7 26.2 0 39.3.2" class="b"/><path d="M8.2 164.7c6.9 0 13.5-2 20-3.6 2-.4 4.2-.2 6.2-.2h7q10.3 1.7 20 5c3 .8 5.9 2 8.8 2.2l9.6-1.7q4.8-.6 9.7-1 7-.8 14-1.3c3.7-.1 7.6-.5 11.3.3 2.2.3 4 2 5.2 3.8q1.3.3 2.7.2 1 0 1.7-.4 2.5-2 5.2-3.5 3.1-.2 6.2.3c16 1.8 32 1.1 48 .8" class="b"/><path d="M8.2 163q6.1-.2 12.2-1.6c3.5-.7 7-1.8 10.5-2.2h9.6c2.3.2 4.7.9 7 1.3q8.9 1.4 17.5 4.1c7.8 2.5 7 1.9 14.8.5 5-.7 10-.8 14.9-1.5q4.8-.8 9.6-.8 4.6-.2 8.7 1.1 1.9.8 3.5 2 1.2 1 2.7.7c2.3.3 2.7-.6 4.3-2.1q2.7-2.4 6.2-3c8.2 2 16.8 2.6 25.3 2.7q14.4.1 28.8-.6" class="b"/><path d="M8.2 161.3a71 71 0 0 0 14-1.9c4-.8 8-2 12.2-2q3-.1 6.1 0l7 1.5c5.3.8 10.6 1.3 15.7 2.8 3.8 1 7.5 2.4 11.4 3q2.6-.1 5.2-.7 7-1 14-1.3c4-.3 8.2-1.1 12.2-.6a21 21 0 0 1 7.9 2.5c1.3.6 3 .2 4.4.3 1-.6 1.8-2 2.6-2.9 2-2 5-2.7 7.9-3.1 1.1 0 2.3.7 3.5 1l6 1.4q7 1 14 1.2 15.8.4 31.5-.8" class="b"/><path d="M8.2 159.6c9.4-.1 18.5-3.5 28-4h3.4l6.2 1.4q5.6.9 11.3 1.3 5.3.7 10.5 2.2c3.2.8 6.4 2 9.6 2.5 3 0 5.9-.8 8.8-1l13-.7q5-.4 9.7 1 2 1 4.3.8c.8 0 2 .1 2.7-.2 1.3-.8 2-3.1 2.6-4.5 1.2-1 2.9-1.2 4.4-1.4q3-.3 6-.5c2.4.6 4.7 1.9 7 2.4q7 1.5 14 1.7 17.1.8 34.1-.8" class="b"/><path d="M8.2 158c7.7-.3 15.1-2.4 22.7-3.3 3.4-.3 7-1.4 10.5-.4 7.6 2.4 15.8 1.6 23.6 3.1 5.6 1 10.9 3.5 16.6 3.9 2.6 0 5.3-.5 7.8-.6 5.3-.2 10.6-.5 15.8.4q2.6.4 5.2.3c1.8.2 3.5-1 4.4-2.4.9-1.5 1.5-3.8 2.6-5.1q5.7.6 11.4.6c1.7.4 3.4 1.5 5.2 2q3.8 1.3 7.9 1.8 10 1 20 .9 11 0 22-1.2" class="b"/><path d="M8.2 156.2c5.3-.2 10.5-1.2 15.7-2q7.5-1.3 14.9-1.8c1.7-.4 3.5.5 5.2 1q3 .7 6.1 1c6.7.4 13.5.1 20.1 1.6l6.1 1.5q3 1.1 6.2 1.6c4.9.8 9.9.2 14.8.3l7.9.3c2 0 4.4-.4 6-1.8 2-1.5 2.8-4.1 4.5-5.8q4.8-.1 9.6.4 2.2 0 4.3.3 5.8 3 12.3 3.7c6.6 1 13.4 1 20 1q11 0 22-1.3" class="b"/><path d="M8.2 154.5c8.5-.4 16.8-2.6 25.3-3.1l7.9-.7 4.3 1.3c4.9 1.2 10 1 14.9 1q7-.1 14 1c2.7.3 5.2 1.9 7.8 2.4q7 1.3 14 1.2c4.8 0 10.4.2 14-3.5 1.2-1.1 2.2-2.8 3.5-3.7q7.9-.2 15.7.5 5.8 3 12.3 3.9c6.6.9 13.4.9 20 .9q11 .1 22-1.3" class="b"/><path d="M8.2 152.7c5.6-.2 11-1.3 16.6-2q8.2-1 16.6-1.3c1.8-.3 3.5.7 5.2 1q3.5.8 7 .9c7.3 0 14.6-.6 21.9 0 2.2-.2 4 1.2 6 1.8q5.2 1.5 10.6 1.8c8.8.4 12.3 0 19.2-5.8 1-.7 2.4-.4 3.5-.5h5.2q4.9.1 9.6.4 5.9 3.1 12.3 4c6.9 1 14 1 21 1q10.5 0 21-1.4" class="b"/><path d="M8.2 151c5.6-.3 11-1.4 16.6-2q8.2-.9 16.6-1l2.6-.1c1.4.2 3 .8 4.4 1q4.3 1 8.7.7c6.7-.2 13.4-.8 20.1-1 .8 0 2 .2 2.6.6q1.8.8 3.5 1.3Q89 152 94.7 152q4 .1 7.9-1.3 2.5-1.6 5.2-2.7c1-.5 2.3-1.2 3.5-1.1h12.2l4.4.3q1.4-.1 2.6.4 5.3 2.9 11.4 3.7c6.9 1 14 .9 21 .9 7-.1 14-.2 21-1.3" class="b"/><path d="M8.2 149.1c5.6-.2 11-1.3 16.6-1.9q8.2-.7 16.6-.6 2.2 0 4.4-.2 3 .8 6 1.3 5.8.6 11.4 0c5.6-.4 11-1.3 16.6-1.5 2 .4 4 1.3 6.2 1.7q6.5 1.7 13 .3 2.3-.6 4.4-1.8c2-.4 4-1.3 6.2-1.3 5.8.1 11.6-.2 17.4.3q1.8 0 3.5.3l3.5 1.7a31 31 0 0 0 7.9 2.1c7 1 14 1 21 1 7-.2 14-.2 21-1.4" class="b"/><path d="M8.2 147.3c5.5-.2 11-1.3 16.6-1.8q8.7-.7 17.5-.4h6q2.7.7 5.3 1 6.6.6 13.1-.3l9.6-1.4c2.6-.3 5.4-.9 7.9-.2q6.1 1.7 12.2 1 2.3-.3 4.4-1.1l4.4-.6c3.4-.3 7 0 10.5-.1q7-.1 14 .3c1.2 0 2.4 1 3.4 1.4q2.2 1 4.4 1.7c6 1.6 12.2 1.6 18.4 1.8 9.3 0 18.7.2 28-1.2" class="b"/><path d="M8.2 145.5c5-.2 9.9-1 14.8-1.6q6.6-.7 13.1-.5 7 .1 14 0 6 1.5 12.3 1.1c6.4-.2 12.7-2.2 19.2-2.7q3.9-.2 7.8.4 4 .3 7.9-.1c4.6-.8 9.3-.4 14-.5q8.7 0 17.5.2c1.2-.1 2.4.7 3.4 1.2q2.6 1.3 5.3 2.1c5.1 1.3 10.5 1.5 15.7 1.7 10.2.1 20.5.4 30.6-1.2" class="b"/><path d="M8.2 143.7c7.6-.4 15-2 22.7-2 7.3-.2 14.6.4 21.9.1q5.2 1.1 10.4.9c5.4-.2 10.5-1.7 15.8-2.6 4.9-.5 9.9-.1 14.8-.2H128c1.5-.1 3 .9 4.4 1.5q2 1 4.3 1.8a61 61 0 0 0 14 1.8q8.8.3 17.5 0 8 0 15.7-1.2" class="b"/><path d="M8.2 141.8c7.3-.3 14.5-1.9 21.8-1.9 7.9-.1 15.8.5 23.6.3q2.3-.2 4.4.3a38 38 0 0 0 14-.8c2.3-.4 4.6-1.2 7-1.4 4.9-.3 9.9 0 14.8-.2h34c1.6.2 3 1.2 4.5 1.8q2 1 4.3 1.6c5.7 1.5 11.7 1.6 17.5 1.8 9.9 0 20 .3 29.7-1.4" class="b"/><path d="M8.2 140c8.1-.4 16.2-2 24.5-1.8l18.3.3q3.5 0 7-.2l5.2.3q4.5.1 8.8-.8 3-.7 6-1.3c5.3-.3 10.6 0 15.8-.1H127c1.6 0 3 1 4.4 1.6q2.5 1.2 5.2 1.9c5.7 1.3 11.7 1.5 17.5 1.6 10 0 20 .4 29.7-1.5" class="b"/><path d="M8.2 138.2c6.4-.3 12.8-1.5 19.2-1.7 9.9-.2 19.8.6 29.7.1q2.2 0 4.4-.4l3.5.2a39 39 0 0 0 9.6-1.2c2.5-.8 5.2-.5 7.8-.6h32.4c4 .1 8.2-.2 12.2.2 3 1 5.7 2.6 8.7 3.3 6.6 1.5 13.4 1.6 20.2 1.7 9.3 0 18.8.3 28-1.7" class="b"/><path d="M8.2 136.3c6.1-.2 12.2-1.3 18.3-1.5 8.8-.1 17.5.4 26.2.2q6.2.1 12.3-1.1c3.5.2 7-.4 10.5-1h46.3q2.2-.2 4.3.2c3.2 1.2 6.3 2.8 9.7 3.4 6.5 1.4 13.3 1.5 20 1.6 9.4-.1 19 .3 28-2" class="b"/><path d="M8.2 134.5c6.1-.1 12.2-1.2 18.3-1.3 9-.1 18.1.4 27.1 0q4.9 0 9.6-.7c2.4-.3 4.7-1.2 7-1.2 6.4-.4 12.8 0 19.2-.2h22.8c4 .1 8.2-.2 12.2.2 3.2 1 6.3 2.7 9.6 3.4 6.9 1.5 14 1.5 21 1.6q7.5 0 14.8-.2c4.7-.2 9.5-.6 14-2.1" class="b"/><path d="M8.2 132.7c6.1-.1 12.2-1 18.3-1.2 8.8 0 17.5.6 26.2.2q5.2-.2 10.5-1c2.4-.2 4.7-1 7-1.3h39.3c4.4.1 8.8-.2 13.1.1 3.5 1.1 6.9 3 10.5 3.6 7 1.4 14 1.5 21 1.6 7.3 0 14.6 0 21.9-.9q2.6-.3 5.2-1 1.3-.6 2.6-.8" class="b"/><path d="M8.2 131c6.1-.1 12.2-1 18.3-1 8.5 0 17 .7 25.4.1a97 97 0 0 0 18.3-2.4h45.4q2.6-.2 5.3.1c3.7 1.3 7.4 3.1 11.3 3.8 7.2 1.4 14.6 1.4 21.9 1.5 6.7 0 13.4 0 20.1-.8q3.1-.3 6.1-1.3c1-.5 2.4-.1 3.5-.3" class="b"/><path d="M8.2 129.2c6 0 12.2-.8 18.3-.8 7.9.2 15.8.9 23.6.4q10.2-.4 20.1-2.8c4-.3 8.2 0 12.2-.1l35.9.1c4 1.2 8 3.3 12.2 4 7.8 1.5 15.7 1.4 23.6 1.5q9.2.2 18.4-.6 3.5-.4 7-1.5h4.3" class="b"/><path d="M8.2 127.5c6 0 12.2-.6 18.3-.5 7.6.3 15.2 1 22.8.5q7.5-.3 14.8-1.7 3.5-.7 7-1.6h28c4.9.3 9.8 1 14.8 1 2.3.3 4.8 0 7 1q5.9 2.3 12.2 3 8.8 1 17.5.8 9.1 0 18.3-.3c3-.2 6-.4 8.8-1.6q3 .3 6.1 0" class="b"/><path d="M8.2 125.9c5.8 0 11.6-.4 17.5-.3 7.2.3 14.5 1.1 21.8.8q8.5-.3 16.6-2c3.5-.6 6.9-2.3 10.5-2H93c4.4-.2 8.7.6 13 1.3q7.5 1 15 2c1.4.1 2.9.8 4.3 1q3.8 1 7.8 1.4 9.2.6 18.4.5 9 0 18.3-.3 3.2 0 6.2-1.2 3.9 0 7.8-.3" class="b"/><path d="M8.2 124.3H23q4.9.5 9.6.5 5.7.5 11.4.5 9.8.1 19.2-2c3.3-.6 6.4-2 9.6-2.6h15.8c4 0 8.2-.3 12.2.8q14.8 3.4 29.7 5.2 10 .8 20.1.6h19.2q2.7-.4 5.3-1 4.4-.2 8.7-.8" class="b"/><path d="M8.2 122.8h14q4.7.8 9.6 1c15.3.7 26.4 1.4 41-4.7 1.7-.4 3.6-.1 5.3-.2h8.7c4 .1 8.3-.4 12.2.8a172 172 0 0 0 28 5.8c7.5.7 15.2.5 22.7.6 7 0 14 .4 21 0q2.7-.2 5.2-.8l7.9-1" class="b"/><path d="M8.2 121.4q6.5 0 13 .2 7.5 1 15 1.2c12.3.6 25.4.8 36.6-5 1.6-1 3.6-.6 5.3-.6h14q3-.3 6 .8c9.2 2.9 18.5 5.5 28 6.3 7.3.6 14.6-.3 21.9-.2 8.7 0 17.5 1 26.2.6l9.6-1.7" class="b"/><path d="M8.2 120q6.5 0 13 .3 9.7 1.3 19.3 1.4c11.2.5 23.4.6 33.2-5.6 1.3-.9 3-.7 4.4-.7h13.1q2.7-.1 5.2.5 5.3 1.7 10.5 3.5 9 2.8 18.4 3.4l12.2-.9q8.8-.4 17.5 0 4 0 7.8.2l6.2.8h7.8q3.5-.4 7-1.2" class="b"/><path d="M8.2 118.7q6.1 0 12.2.3 5.7.7 11.4 1 7.8.5 15.7.6 6.6.2 13.1-.7 5.5-.7 10.5-3.1 1.8-1 3.5-2.2 1.2-1 2.6-1h11.4q3 0 6.1.2 1.8.4 3.5 1c7.6 2.9 15.4 6 23.6 6.3q5.7-.7 11.4-1.3c7.2-.6 14.5-.4 21.8-.9q4.8-.3 9.6-.7c1.7 0 3.8-.4 5.3.6l.8 1.7c1.5 1 3.6.6 5.3.7a30 30 0 0 0 7.8-.7" class="b"/><path d="M8.2 117.4q8.2 0 16.6.8 10.9.7 21.8 1a86 86 0 0 0 17.5-1q7-1.1 12.2-5.8c3.8-.7 7.7-.3 11.4-.5 3.2.1 6.6-.4 9.6 1 6.8 2.6 13.6 5.9 21 6.5 3.2-.4 6.4-1.2 9.6-1.5q7-.8 14-1c6.7-.2 13.5-.3 20-1.8a12 12 0 0 0 4.4-2l1.8-1.2h1.7c1.5 1.7 1.7 4.8 3.5 6.3 1.5 1.2 3.5 1.3 5.3 1.3q2.6 0 5.2-.3" class="b"/><path d="M8.2 116.2c10.2 0 20.4.9 30.6 1.2 4.3.2 8.7-.3 13-.1 6.8.3 14 .5 20.2-2.4q1.9-1 3.5-2.3 1-1.3 2.6-1.4c3.7-.7 7.6-.7 11.4-.9 2.6 0 5.4-.4 7.8.8 6.3 2.5 12.4 6.2 19.2 6.4q4.5-.8 8.8-1.7 6.5-.9 13-1c7.4-.3 14.7-.5 22-1.9q2.2-.4 4.3-1.3c1.4-.6 2.8-1.7 4.4-1.4 1.5.8 2.2 3 3.5 4.1 3 3.4 7 3.5 11.3 3.4" class="b"/><path d="M8.2 115q14.4 0 28.8.7c5.2-.1 10.5-.6 15.7-.5l11.4.5q5.1-.2 9.6-2.4 1.5-.9 2.6-2 1.8-.7 3.5-1.2c3.4-1 7-1.2 10.5-1.4 2.4-.1 4.9-.5 7 .7 5.7 2.2 11.2 6.1 17.5 6.4q4-.8 7.9-1.9c4.5-1 9.3-1 14-1.2 7.8-.3 15.8-.4 23.5-2q2.3-.3 4.4-1.1 1.6-.7 3.5-1.2c1.7.8 2.9 2.6 4.4 3.7 3.1 2.6 7.2 4.1 11.3 3.9" class="b"/><path d="M8.2 113.7q13.1-.1 26.2.3l14-.8q7-.2 14 .3c2.6.2 5.2.8 7.8 0q2.3-.3 4.4-1.4l2.6-1.8a42 42 0 0 1 17.5-3.5c2.8.3 5.3 2.1 7.8 3.3 3.2 1.5 7.8 4.4 11.4 3.8 3.8-.9 7.5-2.3 11.4-2.8s8.1-.4 12.2-.5c8.2-.2 16.4-.4 24.5-2.2l3.5-1c.4 0 1.3-.3 1.7-.5.5 0 1.4.4 1.8.7 4.3 3.2 9.2 6.4 14.8 6.6" class="b"/><path d="M8.2 112.4c8.4-.3 16.9 0 25.3-.3 6.7-.2 13.4-1 20.1-1q5.7 0 11.4.5l5.2.6q2.3-.1 4.4-1c1.2-.4 2.3-1.4 3.5-2q3-1.5 6.1-2.5a39 39 0 0 1 11.4-1.7q1.8.5 3.5 1.4c4 2 8.5 5.7 13 5.9 3-.7 5.9-2 8.8-2.7q6.1-1.3 12.2-1c11.4 0 23 0 34.1-3.2 2.2.7 4.1 2.2 6.1 3.2 3.3 1.6 6.9 3.2 10.5 3.8" class="b"/><path d="M8.2 110.4q14.9.5 29.7-.3c10.7-.7 21.6-1.6 32.3.1 4.2 1.1 7-1.3 10.5-3.2q6.5-3.5 14-3.8c5-.4 11.5 7.7 16.6 7.3 3.8-1 7.4-3 11.3-3.6 4.7-.8 9.4-.2 14-.2q10.1.3 20.1-.9 5.2-.5 10.5-1.7c5.6 2 10.8 5 16.6 6.4" class="b"/><path d="M8.2 108.2q13.1.8 26.2.2c6.7-.2 13.4-1 20-1a105 105 0 0 1 17.6 1q1.7.5 3.5.2c2.9-.5 5.2-2.8 7.8-4q5.3-3.2 11.4-3.2l2.6.1q1.4.5 2.6 1.4c3.2 2 6 5 9.6 6 1.9-.1 3.6-1.3 5.3-2q3-1.3 6.1-2c4.6-1 9.3-.4 14-.2a152 152 0 0 0 32.3-2q1.4.2 2.6.6 1.8.7 3.5 1.3 5.3 2 10.5 3.8" class="b"/><path d="M8.2 105.9q11.3 1 22.7.8c7.3-.1 14.6-.8 21.9-1.1 7.8-.4 15.8-.2 23.5 1.5 2.4-.3 4.3-1.8 6.2-3.1 3.3-2.4 7.1-4.7 11.3-4.3 1.7 0 3.7-.4 5.3.5 3.4 1.8 6.6 6.7 10.5 6.9 2.7-.9 5.1-2.7 7.8-3.6 7.6-2.6 15.8-.1 23.6-.3a153 153 0 0 0 27-1.8c1.8 0 3.6.8 5.3 1.2q5.3 1.7 10.5 3.7" class="b"/><path d="M8.2 103.6q10.5 1.3 21 1.3c7.8 0 15.7-.8 23.5-1 7.9-.4 16-.8 23.6 1.1 3.2 1 5.7-1.7 7.9-3.5 2.7-2.2 5-4 8.7-3.6h4.4c.8 0 2 0 2.6.5 3 2 5 6.2 8.8 7 1.5-.3 3-1.4 4.3-2.2 7.8-5.3 16.8-2.1 25.4-1.8a145 145 0 0 0 26.2-1c2-.1 4.1-.6 6.1-.4q6.8 1.5 13.1 4" class="b"/><path d="M8.2 101.2c6.6.9 13.4 1.8 20 1.8 8.2.1 16.4-.6 24.6-1 8-.2 16.4-.8 24.4 1.1 3.7 1.5 6.8-1.9 8.8-4.6 2.1-2.2 3-2.5 6-2.3h8c3.1 1.7 4.2 6.3 7.8 7.5 1.3 0 2.5-1 3.5-1.7 7.6-6.5 15.7-3.4 24.5-2.6q8.7.8 17.4.2 9.3-.5 18.4-1.1 6.3 1 12.2 3.3" class="b"/><path d="M8.2 98.8c7.8 1.2 15.6 2.6 23.6 2.4 9 0 18-.9 27-1.1 5-.1 10-.3 15 .3q3 .5 6 1.3c1.2.2 2.5-.4 3.5-1 1.8-1 3.2-3 4.4-4.7.3-.5 1.2-1.4 1.8-1.6h11.3c2.8 1.5 3.7 8.6 7.9 7.4 2.4-1.5 4.2-4 7-5q3.8-1 7.8-.7 2.6 0 5.3.5c10.3 2.2 21 1.6 31.4 1l12.3-.6a48 48 0 0 1 11.3 2.5" class="b"/><path d="M8.2 96.3 18.7 98q3.8.9 7.8 1.2c8.8.5 17.5-.3 26.2-.7q8.4-.3 16.6-.4a40 40 0 0 1 12.3 1.9q1.4-.4 2.6-1c2.6-1.4 4.1-4.2 6.1-6.2 1.4-.4 3-.2 4.4-.2h7c2.2 2.2 2.6 9 7 7.2 1.9-1.5 3.7-3.4 6-4.1 5.2-1.7 10.6-.4 15.8-.3 3.5 0 7 .7 10.5.8q8.8.2 17.5-.3 7.5-.4 14.8-.6 5.4.4 10.5 2" class="b"/><path d="M8.2 93.7a224 224 0 0 1 16.6 3.6c9.3.9 18.6 0 28-.4q8.7-.5 17.4-.4 4.5 0 8.8.9l3.5.9q2.4-.4 4.3-2c2-1.5 3.3-4 5.3-5.3h5.2q1.8-.2 3.5.1c2.4 2 3.8 9.2 7.9 6.9q2.4-2 5.2-3.4c4.8-1.7 10-.6 14.9-.3 9.8.6 19.8.3 29.7 0 8.4-.3 17-1.2 25.3 1" class="b"/><path d="M8.2 91q4 .7 7.8 1.8c.9.2 1.8.9 2.7 1.2q2 .9 4.3 1.2c7.8 1.1 15.8.8 23.6.3 9-.4 18-1 27.1-.7q3.6 0 7 1c2.2.6 3 1 5.2-.1q2.5-1.4 4.4-3.5c1-1 2-2.6 3.5-3 6.6 0 5.7-.8 9.6 4.7 1.8 2.3 3.4 4 6.1 1.6q2.4-1.8 5.3-2.6c3.7-1 7.6-.4 11.3 0 13.4 1.5 26.9-.4 40.2-.5 5.9-.1 11.8-.2 17.5 1" class="b"/><path d="M8.2 88.3q3 .5 6.1 1.2c1 .2 1.8 1.2 2.6 1.7q2.5 1.5 5.3 2c10 1.8 20.4.9 30.5.3q7.5-.4 14.9-.5c3.5 0 7-.2 10.5.3q3 .5 6.1 1.4c3.6-.3 6.3-3.4 8.7-5.8l1.8-1.4h2.6c4.2.7 5.6 6.3 9.6 7.4 2.2-.6 4-2.2 6.1-3 5.7-2.1 11.7-.3 17.5 0q8.3.4 16.6 0 10.5-.7 21-1c5.2-.1 10.5-.3 15.7.6" class="b"/><path d="M8.2 85.8q2.6 0 5.2.6c4 4.6 9 5.4 14.9 5.8q9 .7 18.3 0c10-.6 19.8-1.2 29.7-1q3.1.2 6.2 1c2.8 1 3.4 1 6-.5 2.7-1.5 4.7-4 7-5.7 4.2-.7 7.6 6.3 11.4 7.1q3-1.4 6.2-2.9c5.6-2 11.7-.1 17.4.2q8.3.5 16.6 0l21-1c5.2-.1 10.5-.4 15.7.3" class="b"/><path d="M8.2 84q2.2-.2 4.4 0c1.4 1.2 2.7 2.8 4.3 3.7a29 29 0 0 0 12.3 2.8c8.4.8 16.9.1 25.3-.5q9.6-.5 19.2-.6 4.9-.1 9.6 1l2.6.8c2.3-.2 4.4-1.8 6.2-3.2 1.4-1 2.6-2.8 4.3-3.3q3 1.2 5.3 3.2c1.5 1.3 3.2 3 5.2 3.4 2.3-.9 4.6-2.3 7-3 5.5-1.3 11.1.2 16.6.5q8.2.7 16.6.1l21.9-1c4.9-.1 9.9-.4 14.8.1" class="b"/><path d="M8.2 82.2c1.4 0 3-.2 4.4.2 2 2 4.2 3.9 7 4.7 4.1 1.4 8.7 1.7 13 2q8 .3 15.8-.3 11.3-1 22.7-1.1c3.5 0 7-.3 10.5.4q2.6.5 5.2 1.4 1.5-.2 2.6-1c1.6-.7 3.1-2 4.4-3 .7-.6 1.7-1.7 2.6-2a17 17 0 0 1 5.3 2.9c1.6 1.2 3.2 2.7 5.2 3.2 2.6-1 5.1-2.5 7.9-3 5.2-1 10.5.3 15.7.7q8.2.5 16.6.1 11.4-.6 22.7-1 7-.5 14 0" class="b"/><path d="M8.2 80.5c1.4 0 3.2-.4 4.4.4 3.8 4 8.6 5.4 14 6q9 1 18.3.5 11.3-1 22.7-1.4c4.4 0 8.8-.4 13.1 0q3.6.5 7 1.8 2.9-.9 5.2-2.8c1.2-.8 2.3-2.1 3.5-2.7 4 .7 6.8 4.3 10.5 5.5 2.6-1 5.2-2.4 7.9-3 5.2-1 10.5.4 15.7.8q8.3.6 16.6.2l22.7-1c4.7-.1 9.4-.4 14 0" class="b"/><path d="M8.2 78.7c1.4.1 3.2-.4 4.4.7 4 4.2 10 5.4 15.7 5.9q8.8.9 17.5.4 11.3-1 22.7-1.4c4.3-.1 8.8-.5 13 0 2.5.2 4.8 1.2 7 1.7 3.2-.8 5.4-3.3 8-5 4 .3 6.7 3.8 10.4 5 2.4-.6 4.6-2 7-2.6 5.4-1.4 11.1.1 16.6.5q8.3.6 16.6.3c12.2-.4 24.5-1.5 36.7-1" class="b"/><path d="M8.2 77c2.6 0 3.3-.3 5.2 1.6a18 18 0 0 0 6.1 3.3c5.1 1.6 10.5 1.9 15.8 2.2q8.2.2 16.6-.5 10.8-1 21.8-1.3c3.5 0 7-.3 10.5.5 1.7.3 3.5 1.2 5.2 1.4 2.8-.8 5-3 7-4.8 3 0 5.5 2 7.9 3.6 2.9 1.7 3.2 1.4 6.1 0q4.2-1.9 8.8-2c6.7.4 13.3 1.7 20 1.6 15 0 29.8-1.6 44.6-1" class="b"/><path d="M8.2 75.2c2.8 0 3-.1 5.2 1.8a19 19 0 0 0 6.1 3.2 67 67 0 0 0 20.1 2.1q6.6.3 13.2-.4a332 332 0 0 1 21.8-1.4c3.2-.1 6.5-.3 9.6.3q2.7.6 5.2 1.6c3 0 5.1-2.7 7-4.6 4.5-.4 7.3 4 11.4 4.7 2.3-.8 4.6-2.1 7-2.6 5.4-1.3 11.1.2 16.6.6q7.8.5 15.7.3c12.2-.3 24.5-1.3 36.7-.8" class="b"/><path d="M8.2 73.5c3.5-.3 3.5.7 6.1 2.5q3.2 2 7 3a70 70 0 0 0 19.2 1.5l7 .2 6.1-.5q11-1.2 21.9-1.5c3.1-.1 6.5-.4 9.6.2q2.6.8 5.2 1.9c2.6-.3 4.6-2.7 6.1-4.6 4.4-1.1 7.4 3.7 11.4 4.6 2.1-.4 4-1.8 6.1-2.4 5.7-1.8 11.7-.2 17.5.2q7.8.7 15.7.4c12.3-.2 24.5-1.1 36.7-.6" class="b"/><path d="m8.2 71.7 2.6.1q2.2 1.7 4.4 3 3.7 2 7.8 2.8 4.8 1 9.6 1.2 4-.1 7.9-.1c4.7 0 9.3.5 14-.3q10-1 20-1.5c3.8-.1 7.7-.6 11.4.2q2.7 1 5.3 2c1.8-.3 3.3-1.9 4.4-3.3.3-.6 1-1.6 1.7-1.8 5-.6 8.7 7.2 13.1 4.3a24 24 0 0 1 15.7-2c19.2 2.4 38.5-.4 57.7.5" class="b"/><path d="M8.2 70q1.3-.1 2.6.2 2.1 1.5 4.4 3 4.6 2.3 9.6 3 3.5.6 7 .9l9.6-.3q4.4 0 8.7.4l6.1-.6q10-1.2 20.1-1.6c3.5-.2 7.1-.7 10.5.2 1.8.5 3.5 1.7 5.3 2.2 2.6-.7 3.6-3.7 5.2-5.6 5-1.2 8.6 7.3 13.1 5a24 24 0 0 1 16.6-2.4c18.9 2.4 37.9-.1 56.8.8" class="b"/><path d="M8.2 68.2q1.4 0 2.6.3c1.7 1.1 3.4 2.5 5.2 3.4q5.1 2.3 10.5 3 3 .4 6.2.4 4.7-.3 9.6-.3 4.7 0 9.6.4 3-.2 6-.7A300 300 0 0 1 78.2 73c3.5-.2 7.2-.8 10.5.6 1.4.6 2.8 1.9 4.4 2 2.5-.8 3.3-4.2 4.3-6.3 5.2-1.6 8.2 7.3 13.1 6.1 6.3-3.3 9.6-3.7 16.6-2.9 18.9 2.4 38 .1 56.8 1" class="b"/><path d="M8.2 66.5q2-.3 3.5 1 2 1.6 4.4 2.7 5.4 2.5 11.3 3 3.5.6 7 .1a141 141 0 0 1 18.4.3q2.6-.1 5.2-.5 10.8-1.4 21.8-2.2c2.6-.1 5.4-.5 7.9 0q2.3 1 4.4 2.6c3.7 2.4 4.3-4.8 5.2-7 1.5 0 3.1-.2 4.4.7 2.9 2 5.3 7.8 9.6 6.4 6-3.4 9.8-3.7 16.6-2.9 18.6 2.3 37.3.3 56 1.3" class="b"/><path d="M8.2 64.7q2-.2 3.5 1.1 2 1.5 4.4 2.8 6.2 2.8 13 3.2 8.8-.7 17.5-.4 4 .1 7.9.5l5.2-.7q12.7-1.8 25.4-2.7 4.1-.4 7 2.7 1 1.2 2.6 1l.9-.7c.3-1.6 1-5.2 1.7-6.8q1.8 0 3.5.2c1.7 1.7 3.2 4 5.3 5.3 1.5 1 3.4 2.1 5.2 1.8 2.6-.8 5.2-2.3 7.8-3.1 4-1 8.2 0 12.3.3 8.7 1 17.5.9 26.2.9q13.1-.1 26.2.3" class="b"/><path d="M8.2 63c2.1-.4 3.6 1.5 5.2 2.5q3.7 2.5 7.9 3.5 3.4.9 7 1a130 130 0 0 1 27 .1c5.9-.5 11.7-2 17.5-2.4 4.7-.3 9.4-1.2 14-1.7 4-.2 4.7 2.3 7 4.5h1.8c.9-1.3 1.5-6 1.7-7.5 2.5 1.2 4.7 3.2 7 4.7a20 20 0 0 0 7 2.7c2.6-.6 5.2-1.8 7.8-2.6q2.2-.8 4.4-1.1 4.8.2 9.6.8c8.4.9 17 .8 25.4.8q12.7 0 25.3.5" class="b"/><path d="M8.2 61.2c1.7-.2 3 1.3 4.4 2.2q2.4 1.9 5.2 3a32 32 0 0 0 8.7 2 125 125 0 0 1 21-.8c3.2 0 6.4.6 9.6.7 3.8-.4 7.6-1.4 11.4-2 4.6-.7 9.4-1 14-2 2.6-.3 6.4-2.1 8.7-.4.9 1.3 1.8 3.3 2.6 4.6q1.4.5 2.6 0c1.1-2.7 2-4.4 5.3-3.2q3 1.4 6 2.3l3.6.9c2 0 4.1-1 6.1-1.4 2.9-.8 5.8-1.8 8.8-2.1q8.7 1 17.4 1.4c13.4.3 26.8.2 40.2.8" class="b"/><path d="M8.2 59.5c1-.2 2 .5 2.6 1.1q1.6 1.6 3.5 2.7 4 2.4 8.7 3.1c1.4.4 3 .1 4.4 0q3-.5 6.1-.6 10.1-.6 20.1.3l4.4.5c4.1-.4 8.1-1.9 12.2-2.5 4.7-.7 9.5-1 14-2.6l3.5-1.2c3.6 0 4.7 4.6 7 6.6h1.8c2.5-2.4 3.3-3.2 7-2.1l6 1.5q2.3.6 4.4.2c4.7-1 9.3-2.5 14-3.1 5.5.3 11 1 16.6 1.2 13.1.4 26.2.4 39.3.9" class="b"/><path d="M8.2 57.7c1 0 2 1 2.6 1.6q2 2 4.4 3.3 3.7 1.9 7.8 2.3A102 102 0 0 1 45 63.7q7 .2 14 1.1c3.5-.3 7-1.5 10.5-2.5 3.4-.7 7-1 10.4-2q2.3-.5 4.4-1.5 2.8-.3 5.2.7c1.8.9 3.1 2.8 4.4 4.3.9 1.1 2.1 2 3.5 1 2-1.8 4.5-1.9 7-1.3q4.3.9 8.7 1.5 4.6-.7 8.8-1.8 4.3-1 8.7-1.5l7 .7q11.9.8 23.6.9l22.7.6" class="b"/><path d="M8.2 56c1.3.7 2.4 2.2 3.5 3.1q3.8 3.4 8.7 4c1.4.2 3-.3 4.4-.5l6.1-.6a152 152 0 0 1 22.7.3q3 .5 6.2.8 4.4-.7 8.7-2.1C74 59.5 84 56 89.5 58c1.7.7 3 2.4 4.3 3.6 1 1 2.2 2.2 3.5 1.6q2.4-1.7 5.3-1.5c3.7.3 7.5 1.2 11.3 1.4q4.9-.7 9.6-1.7 4.5-.9 8.8-1.3l7 .6c14.8.9 29.7 1 44.5 1.4" class="b"/><path d="M8.2 54.7c2.9 3.6 5.7 6.3 10.5 6.8 3.7-.5 7.5-1.3 11.3-1.5a159 159 0 0 1 29.7 1.3q3.6-.3 7-1.4c6-1.7 16.8-5 22.8-3.2 2 .7 3.6 2.5 5.2 3.8 1 1 2.2 1.6 3.5.8q2.5-1.2 5.2-1l10.5 1.2q5.3-.5 10.5-1.6l8.7-1.3q4 .4 8 .6 21.3 1.1 42.7 1.3" class="b"/><path d="M8.2 54.3c1.9 3 5 5.6 8.7 5.5q2.6-.6 5.3-1 7-1.1 14-1 8.3 0 16.5.7 3.1.2 6.2.8 2.2.4 4.3-.2c5.3-1.2 10.4-3 15.8-3.7 3.1-.5 6.4-1 9.6-.5 2 .3 3.7 1.6 5.2 2.9 1 .8 2.2 2 3.5 2.2 1.7-.6 3.5-1.3 5.2-1.2q5.3.1 10.5.8c3 .4 6-.4 8.8-.8l12.2-1.7q7 .5 14 .8 18 .9 35.8 1" class="b"/><path d="M8.2 55q2.3 3.2 6.1 3.2l4.4-1.1a46 46 0 0 1 8.7-1.2q8.7-.2 17.5.2a112 112 0 0 1 15.7 1.7q1.4 0 2.6-.4c3.8-.8 7.6-2.1 11.4-2.8q4.3-.9 8.7-1.3c3.3-.4 7-.3 9.6 2 1.7 1 3.2 3 5.3 2.8q3.3-1.2 7-.9 5.3.3 10.5.8 6-.6 12.2-1.5l7-.8q4.4.1 8.7.4c13.4.6 26.8 1.3 40.2 1" class="b"/><path d="M8.2 56c2.3 1 4.8.2 7-.6q2.5-.9 5.2-1.3c5.5-.8 11.1-.4 16.6-.2q8.3.1 16.6 1 4 .4 7.9 1.2 3-.6 6-1.5a81 81 0 0 1 19.3-3q3.3 0 6.1 1.8c1.5.8 2.8 2.2 4.4 2.7 1.4.5 3-.5 4.4-.5 5.2-.3 10.5.4 15.7.5q6.6-.6 13.1-1.3c2.3-.2 4.7-.7 7-.5l22.7.9q11.9.6 23.6 0" class="b"/><path d="M8.2 54.7c4.6-1.2 9.2-2.8 14-3.4q6.5 0 13 .6c8.5.5 17.1.4 25.4 2.2 1.4.5 3-.2 4.4-.5q3.4-1 7-1.7 4.7-1 9.6-1.4c2.9-.3 5.9-.7 8.7 0 2.6.6 4.6 2.7 7 3.7 1 .5 2.4.2 3.5 0 6.1-.7 12.3.1 18.4.2l13-1.2c2.4-.1 4.8-.5 7-.3l22.8.8c7.2.2 14.6.4 21.8-.4" class="b"/><path d="M8.2 51.8q9-2.4 18.3-2.7 5.7.6 11.4 1c7.9.5 15.9.5 23.6 2.4 3.5-.2 7-1.8 10.5-2.3q7.8-1.4 15.7-1.6 3.3.1 6.1 1.7c1.4.9 2.8 2 4.4 2.3 1 .4 2.4 0 3.5-.2l4.4-.2q7 0 14 .4c7.5-.3 15-1.3 22.7-1 8.4.1 16.9.6 25.3.6 5.2-.1 10.6.2 15.7-1" class="b"/><path d="M8.2 49c7.5-1.3 15.1-1.5 22.7-1.6q8.2 1 16.6 1.4 4.9.3 9.6 1c2 .2 4.1 1.3 6.1.8l7.9-2q4.7-.7 9.6-1c4.7-.5 10-1.4 14 1.5q2.4 1.6 5.2 2l2.6-.4q4-.3 7.9-.2l12.2.3c6.4-.2 12.9-.7 19.3-.7 8.7 0 17.4.6 26.2.5 5.2-.3 10.8.2 15.7-2" class="b"/><path d="M8.2 46.2c8.4-.5 16.9-.1 25.3-.4q7.5.8 14.9 1.2c4.7.2 9.3 1.2 14 2 4.8-1.1 9.7-2.5 14.8-2.8l7-.6c2.9-.3 6-.4 8.7.7 2 1 4 2.4 6.2 2.7 2.5.5 5.2-.3 7.8-.2q6.6-.2 13.1.1c5.5.4 11.1 0 16.6-.2q9.2-.1 18.4.1 7.5.3 14.8 0c4.8-.2 10-.1 14-3.1" class="b"/><path d="M8.2 43.7q11.7.7 23.6.7 2.6-.1 5.2-.1 5.3.5 10.5.8 7.5.5 14.9 2.2 3.9-.9 7.8-1.9 4.4-.7 8.8-1c4.6-.1 9.4-1.4 14 .1q3 2.2 7 2.8c2.8.4 5.8-.4 8.7-.3q8.2 0 16.6.3 6 .1 12.2 0H155q7.5.1 14.8-.2c5-.3 10.5-1 14-4.8" class="b"/><path d="M8.2 41.5q10.5 1.4 21 1.4l9.6-.3 7.8.6q8 .5 15.7 2.3 4.5-1 8.8-2 4.7-.6 9.6-.8c4-.2 8.3-1.3 12.2 0q3.3 2 7 2.7c3.2.5 6.4-.1 9.6-.1q8.3-.2 16.6.1 15.8.4 31.5.3c6.1-.2 12.4 0 18.3-1.6 3.2-.8 5.6-3.1 7.9-5.2" class="b"/><path d="M8.2 39.5q11.2 2.1 22.7 1.8 4.8-.1 9.6-.4l5.2.4q4.9.3 9.7 1 3.4.8 7 1.5 4.3-1.2 8.7-2 4.3-.5 8.7-.7c2.6 0 5.3-.5 7.9-.6 1.7 0 3.7-.2 5.2.5 2.5 1.2 5.1 2.4 7.9 2.6 3.2.5 6.4 0 9.6 0q7.6-.2 14.8 0l20.1.4c8 .2 15.8.3 23.6-.7 3-.3 6.2-1 8.8-2.7q1.8-1.3 3.5-2.8 1-1.1 2.6-1" class="b"/><path d="M8.2 37.6A90 90 0 0 0 41.4 39l4.4.3q4.8.4 9.6 1.1c2.3.4 4.6 1.2 7 1.5q4.3-1.2 8.7-2 4.4-.4 8.7-.5l7-.7c2-.1 4.3-.4 6.1.5 2.6 1 5.2 2.2 8 2.4 3 .5 6.3.3 9.5.2q6.6-.3 13.1-.1l21.9.3c8.1.4 16.4.6 24.4-1.1q3.9-.9 7-3c1.4-1 2.7-2.5 4.4-3h2.6" class="b"/><path d="M8.2 35.8a102.2 102.2 0 0 0 32.3 1.9q2.6-.5 5.2-.1 4.9.2 9.7 1.2c2.3.3 4.6 1.3 7 1.5q3.8-1.2 7.8-1.9 4.4-.5 8.8-.6 3.9-.1 7.8-.7c2-.2 4.2-.6 6.1.4 2.6.9 5.2 2 7.9 2.3q5.6.8 11.4.3h11.3q11 0 21.9.2 4.4.1 8.7.4c4.7-.2 9.5-.5 14-1.7 3.5-1 6.7-3 9.6-5.1.6-.5 1.8-.7 2.6-.7h3.5" class="b"/><path d="M8.2 34A53 53 0 0 0 23 36.5q8.8.3 17.5-.5 1.8-.3 3.5-.4 4.4.2 8.8.9t8.7 2c2.3 0 4.7-1.2 7-1.6q4.7-.8 9.6-.8 4 0 7.9-.6c2.3-.3 4.7-.9 7 .1 2.5.9 5.1 2 7.8 2.3q6.5 1 13.1.5a430 430 0 0 1 28.8.1c4.1 0 8.2.6 12.3.2q6.3-.2 12.2-2.3 2.8-1 5.2-2.6c1.4-.8 2.8-2 4.4-2.3h7" class="b"/><path d="M8.2 32.3c5 1.9 10.4 2.4 15.7 2.6q8.3.3 16.6-.6l4.4-.6q4 .3 7.8 1 4.5.8 8.8 2c2.3-.2 4.6-1.2 7-1.6q4.7-.8 9.6-.7c4 0 8.2-.8 12.2-1.3 2.7.5 5.3 1.6 7.9 2.3q3.3.8 7 1c4.9.6 9.9.3 14.8.3h20.1c7.3.4 14.8.8 21.9-1.3 3.4-1 6.5-3 9.6-4.7 1.5-1 3.4-1 5.2-1h7" class="b"/><path d="M8.2 30.5c9 3.8 23.5 3 33.2 2l4.4-.6a77 77 0 0 1 13 2.5l2.7.7 1.7-.4q3.9-1.3 7.9-1.8 4.3-.3 8.7-.3 4.6-.2 8.8-1.1c2.6-.6 5.3.7 7.8 1.4q4.2 1.3 8.8 1.6c10.7 1.1 21.5.1 32.3.6 7.9.3 16 .5 23.6-2q4.2-1.6 7.9-4 1.2-.9 2.6-1.1h12.2" class="b"/><path d="M8.2 28.7c8.3 4 23.9 3 33.2 2.1l5.2-.7q3.6.3 7 1.1 4 1 7.9 2.2 2.2-.7 4.4-1.3c4.8-1.5 9.9-1.1 14.8-1.3q4-.2 7.9-1.2c2.3-.5 4.7.5 7 1q4.3 1.3 8.7 1.8c9.8 1.3 19.8 1 29.7 1 8.5 0 17.2.2 25.3-2.5 3-1 6-2.7 8.8-4 1.8-1 4-.5 6.1-.6h9.6" class="b"/><path d="M8.2 27.2c1.2-.1 2.4.8 3.5 1q2.6 1 5.2 1.1c8.4 1 17 .6 25.4-.3l5.2-.7q3.5.4 7 1.3c9.8 3 4.5 2.1 14 0 4.6-1 9.3-.2 14-.7q3.5-.4 7-1.4c5 .4 9.8 2.3 14.8 2.9a217 217 0 0 0 28.8 1.2c9.2-.1 18.5-.4 27.1-3.8 2.6-1 5.2-2.5 7.9-3.2q7.8-.2 15.7 0" class="b"/><path d="M8.2 26.1q1.3-.1 2.6 0a24 24 0 0 0 7.9 1.6c9.9.9 19.8 0 29.7-1.2q4.5.6 8.7 2.2c3.5 1.2 3.4 1.7 7 .2q4.3-1.5 8.7-1.7c4.4 0 8.9.5 13.2-.7l3.5-1 5.2.7q5.2 1.3 10.5 2.2c9 1.2 18 1.2 27 1q9.4.1 18.4-1.6 7.2-1.7 14-4.3c2.5-1 5.3-.7 7.9-.7h11.3" class="b"/><path d="M8.2 24.9q2.2-.2 4.4-.2 3 .9 6 1.2a112 112 0 0 0 25.4-.6c2-.1 4.2-.8 6.1-.4 3.6.7 7 2.2 10.5 3.3 3.5-1 6.8-2.7 10.5-2.8 5.5-.3 11.3.8 16.6-1.3 1.3-.7 3-.4 4.4-.3q3.5.4 7 1.2a94 94 0 0 0 14 2q14 .9 28-.4 7.5-.9 14.8-2.8c3.2-.8 6.4-2 9.6-2.6 2.2-.4 4.7-.1 7-.2h11.3" class="b"/><path d="M8.2 23.5q2.6 0 5.2-.4 3 .7 6.1 1a112 112 0 0 0 24.5-.6c2.3-.1 4.7-.8 7-.3 3.3.7 6.3 2.5 9.6 3.3C64.3 25 68 23.4 72 23.4c4-.2 8.2.6 12.2-.2q2.2-.5 4.4-1.5 3-.2 6 .3c5.9 1 11.7 2.2 17.6 2.5q13.1 1 26.2-.3c8.8-.8 17.5-2.8 26.2-4.7q3.5-.4 7-.2h12.2" class="b"/><path d="M8.2 22c2.6 0 5.3-.6 7.8-.5 4.9 1.1 10 1 14.9 1q6.6-.1 13.1-.8c3.2-.1 6.6-1 9.6.4 7.7 3 4.6 3.6 12.2.4q3.5-1.1 7-1.1c5 0 10.3 1 14.9-1.3a3 3 0 0 1 1.7-.5H93c4.1.3 8.2 1.3 12.3 1.8q10.8 1.4 21.8 1c12.6-.5 25.2-2.5 37.6-4.8q9.6-.1 19.2 0" class="b"/><path d="M8.2 20.4c3.2 0 6.4-.6 9.6-.6q8.1 1.3 16.6.8c6-.1 12.3-1.4 18.3-.6 2.4.8 4.7 2.2 7 3 2.4-.6 4.6-2.1 7-2.8 5.1-1.7 10.5-.3 15.7-.6q3.3-.3 6.2-2 4-.2 7.8.1c4.7.5 9.3 1.5 14 1.8q11.9.9 23.6-.3a482 482 0 0 0 30.6-3.4h19.2" class="b"/><path d="m8.2 18.8 10.5-.9q7.8 1 15.7.8c6 0 12.3-1.2 18.4-.3 2.5.4 4.5 2.5 7 2.9 2-.8 4-2.1 6-3 5-2 10.6-.7 15.8-.6 2.6 0 4.8-1.1 7-2.4h7.8c3.5.3 7 1 10.5 1.3q11.9 1.3 23.6.2c9-.9 18.1-1 27.1-2l7.9-.8h18.3" class="b"/><path d="M8.2 17a128 128 0 0 0 12.2-1q1.8.1 3.5.4c7.9.8 15.8 0 23.6 0 10.4-.2 9.7 5 14 2.2 6.5-4.4 11-4 18.3-3.2 4 .4 5.5-.4 8.8-2.5 3.5.3 7 0 10.5.3 7.2.8 14.5 1.6 21.8 1.5 5 0 10-.7 14.9-1q8.7-.3 17.4-.4c4.4 0 8.8-.7 13.2-1h17.4" class="b"/></svg>