<svg xmlns="http://www.w3.org/2000/svg" id="a" width="1920" height="2400" viewBox="0 0 192 240"><defs><style>.b{fill:none;stroke:#fff;stroke-miterlimit:10;stroke-width:.3px}</style></defs><path d="M0 0h192v240H0z" style="stroke-width:0"/><path d="M8.4 224.2c6.6.8 13.4.5 20 .3q14.4 1.2 28.8 2h10.5c2 0 4.3.4 6-.9 2.1-1.8 2.8-5.3 5.3-6.6h5.2c1.1 0 2.5-.2 3.5.4 2.8 2 4.8 5.1 7.9 6.7 1.2 0 2.3-1.1 3.4-1.6q2.9-1.5 6.1-1.3l8.8.8q4.7.2 9.6.1 5.7 0 11.3 1 3 .6 6.1.9l2.6-.3c8.7-.9 17.5-.7 26.2-.4 4.6 0 9.3 1 14 .6" class="b"/><path d="M8.4 222.4q10 .8 20-.1l14.9 1.2c7.5.8 15 1.5 22.6 1.3h4.4c1.6.1 3.3-.4 4.3-1.6 1.2-1.7 2.2-4 3.5-5.7 1-.4 2.4-.2 3.5-.3H86q2.5-.2 4.3 1.9c2 1.8 3.7 4.2 6.1 5.4 1.2-.4 2.4-1.4 3.5-2q2.9-1.3 6.1-1c5.5.4 11 1 16.6.9q5.7 0 11.3.9l6.1 1q1.8-.1 3.5-.4c8.4-.8 16.9-.6 25.3-.3 5 .1 10 1 14.8.4" class="b"/><path d="M8.4 220.4c7 .8 14 .3 20.9-.4q6 .8 12.2 1.2c8.1.8 16.3 2 24.4 1.8H72a5 5 0 0 0 3.5-2.7c.7-1.4 1.6-3.5 2.6-4.7q4-.1 7.9 0c3.3-.3 3.8 0 6 2.5 1.7 1.6 3.2 3.7 5.3 4.7 4.6-3.1 6.6-3.7 12.2-3q6.5 1 13.1.8 5.7 0 11.3.9c3 .4 5.9 1.4 8.8.8 8.3-1 16.8-.8 25.2-.4 5.3.2 10.5.9 15.7.3" class="b"/><path d="M8.4 218.4a74 74 0 0 0 19.2-.4c1.3 0 3-.4 4.3 0q9.6 1 19.2 2 5.7.8 11.3 1.2 4.9.1 9.6 0c4.2-.7 3.8-5 6.1-7.5h8.7c4.2-.2 4.4.2 7 3.3 1.3 1.4 2.6 3.3 4.4 4 3.6-2.6 5.8-3.8 10.4-3.2q7 1 14 1 5.7 0 11.3.9c2.9.4 5.9 1.4 8.8.8 8-1 16.2-.7 24.4-.4l10.4.6 6.1-.3" class="b"/><path d="M8.4 216.4q7 .8 14 0c3.1-.1 6.3-.8 9.5-.8 5.8 1 11.7 1.3 17.5 2 6 .6 12.1 2 18.3 2 6.4.1 7.7-.7 9.5-7l1-.6h12.1q1.6-.1 2.7.8c2 2 3.4 5.3 6 6.5 2.4-1.7 4.8-3.7 7.9-3.5q4 .2 7.8.8 4 .4 7.9.5 5.7-.1 11.3.8c2.9.4 5.9 1.4 8.8.9 8-1 16.2-.7 24.4-.4l8.7.6 7.8-.4" class="b"/><path d="M8.4 214.3q7 .8 14 0c3.4-.2 7-1 10.4-1 6 1 12.2 1.4 18.3 2.2 5.8.5 11.6 2.1 17.4 2.2 6.4 0 7.4-1.7 9.6-7.2 1.6-.5 3.6-.1 5.3-.2h7.8c3.8 1.2 5.4 5.6 8.7 7.3 2.2-1.4 4.2-3.6 7-3.7 2.6-.2 5.3.4 7.9.8q3.8.4 7.8.6 5.7-.1 11.3.8c3 .3 5.9 1.5 8.8 1 8.3-1 16.8-.7 25.3-.3l7 .5 8.6-.5" class="b"/><path d="M8.4 212.1q7 .9 14 0l6.9-.7c1.4 0 3-.5 4.4-.2 6 1 12.2 1.3 18.3 2 5.5.5 11 2 16.5 2.4 2.8.1 5.8-.2 7.9-2.2 1-1.1 1.8-3.1 2.6-4.4 1-.8 2.4-.4 3.5-.5h5.2c3-.4 5.6 1.4 7.9 3.1 1.7 1.4 3.3 3.2 5.2 4.2q2.3-1.2 4.4-2.6 2-1 4.3-1c2.3-.2 4.7.5 7 .8q4 .5 7.9.5 5.2 0 10.4 1c2.6.3 5.3 1.2 7.9.9 9.8-1.2 19.8-.6 29.6 0 3.8.2 7.6-.4 11.4-.5" class="b"/><path d="M8.4 209.8q7.8 1 15.7 0l6-.7q2.7-.4 5.3.1c6.4 1 12.8 1.1 19.2 1.9 7 .4 15.4 4.5 21.8.9 2-1.1 2.7-3.8 4.3-5.2h4.4q2.2 0 4.4.3 4.2 1.4 7.8 3.9 2.1 1.6 4.4 3c2.1-.6 3.9-2.4 6-2.9 3.5-1 7.1-.5 10.5.1q4 .5 7.9.6 4.8 0 9.6 1c2.5.3 5.2 1.3 7.8.8 9.6-1.2 19.2-.5 28.8.1l11.3-.6" class="b"/><path d="M8.4 207.4q7.3 1.2 14.8.2l7.8-.7q2.7-.3 5.3.2c6.9 1 14 1 20.9 1.8 6.9.7 14.3 4.4 21 .6 1.5-1.3 2.5-3.5 4.3-4.4a30 30 0 0 1 17.4 5.5c1 .5 2.2 1.7 3.5 1.5 2-.9 4-2.2 6.1-2.6 4.6-1.1 9.3 0 14 .3q4.3.2 8.7.6 4 .5 7.8 1.3 2.2.5 4.4 0l5.2-.3q11-.3 21.8.6l12.2-.6" class="b"/><path d="M8.4 204.8c7.5 1.8 15 .3 22.6-.1 3.2-.3 6.4.7 9.6.8 6.7.6 13.5.4 20 1.4 6 1 12.4 3.5 18.4.9 1.5-1.1 2.8-2.8 4.3-3.8 4.5.5 9 1 13.1 2.7 2.7 1 5.1 2.9 7.9 3.8 2-.8 4-2 6-2.5 4.4-1 8.8-.5 13.2 0q4.3.2 8.7.5 3.9.6 7.8 1.3l2.6.4 4.4-.3q4.8-.4 9.6-.3 7 0 14 .7 6.5-.4 13-.7" class="b"/><path d="M8.4 202.3q5.2 1 10.4 1c4.4-.3 8.7-.9 13.1-.8 1.7 0 3.5.5 5.2.6q4.9.6 9.6.7c6.7.2 13.6 0 20 1.7 4.3 1.1 8.9 1.8 13.2.6 5-3.2 2.4-3 8.7-2.5q4.9.3 9.6 1.9 3.4 1.5 7 3.2c2-.3 4-1.7 6-2.2q5.6-1.3 11.4-.5 4.8.4 9.6.7 4.4.6 8.7 1.4l2.6.4q2.2-.1 4.4-.4 4.3-.3 8.7-.2 7 .2 14 .6 6.5-.5 13-.7" class="b"/><path d="M8.4 199.9q4.7.6 9.6.8c3.4 0 7-.5 10.4-.4 3.8-.2 7.5 1 11.4 1.2 7 .7 14 0 20.9.5q4.9.5 9.6 1.8a29 29 0 0 0 10.5.6l2.6-1.4c.9-.9 2.3-.5 3.5-.6q3 0 6 .3 4 .3 8 1.7c2 .8 4 2 6 2.5 2.3-.7 4.6-1.9 7-2.3q5.6-1 11.3-.2 4 .3 7.9.6 4.4.6 8.7 1.4l2.6.4 4.4-.4q4.3-.3 8.7-.2 6.1 0 12.2.6l14-.8" class="b"/><path d="m8.4 198 9.6.2q5.2-.1 10.4-.1c2 .1 4.1.7 6.1 1q4.4.7 8.7.9c6.4.3 12.9-.4 19.2 0 4.5.2 8.7 1.7 13.1 2.4 2.3.3 4.8.7 7 0 1-.3 2.3-1.3 3.5-1.1 5.8 0 12-.4 17.4 2 5.4 2.3 4.1 2.3 9.6.2a28 28 0 0 1 10.5-1c4 .4 8.1.4 12.2 1l7 1.2q2 .4 4.3.2c7.3-.8 14.6-.3 21.8 0 5 0 9.9-.5 14.8-.6" class="b"/><path d="M8.4 196.3h20c4 .6 8.1 1.6 12.2 1.8 8.2.8 16.3-.7 24.5-.1 5 .3 9.8 2.4 14.8 2.8l2.6.1q1.8-.4 3.5-1c5.8.2 11.8-.8 17.4 1.2q2.2.7 4.4 1.7c.7.3 1.8.8 2.6.5 2-.6 4-1.6 6.1-2q3.5-.8 7-.7l12.2 1 7 1.2c1.4.1 3 .6 4.3.4a138 138 0 0 1 21.8 0c5 0 10-.5 14.9-.6" class="b"/><path d="M8.4 194.6q10-.1 20 0c6 1.2 12.2 2.4 18.3 2.3 6.7 0 13.4-1.4 20-1 5.4.4 10.4 2.8 15.8 3.2 1.4.1 3-.4 4.3-.6 4.4.2 8.8-.5 13.1-.1 4 .2 7.7 2 11.4 3.3 1.8-.3 3.5-1.2 5.2-1.8q2.6-.8 5.2-1c2.3-.2 4.7.3 7 .4q8 .5 15.7 1.9 3 .4 6.1 0 4-.1 7.9-.1 5.6.1 11.3.4 7-.4 14-.6" class="b"/><path d="M8.4 192.8h19.2c5.7 1.2 11.5 2.6 17.4 2.7 8.5.7 16.8-2.2 25.3-1.3 3.8.4 7.5 2 11.3 2.6q3 .7 6.1 0c4.3.4 8.8-.3 13.1-.2s8.3 1.9 12.2 3.4c1.8-.4 3.5-1.4 5.2-2q2.6-.7 5.3-1 10.5.7 20.9 2.3 3 .6 6.1.3 4-.3 7.9-.2 5.6 0 11.3.4 7-.5 14-.6" class="b"/><path d="m8.4 191 18.3.1c5.7 1.3 11.5 3 17.4 3.3q5.7.4 11.4-.4c6.3-1.2 12.8-2.8 19.1-1.3 3.5.8 7 2 10.5 2.5q1.8 0 3.5-.2 2.6.4 5.2.2c10-.5 11.6-1.1 21 3.1 3.1-1 6.1-3 9.5-2.7q10.5.5 21 2 3 .5 6 .3a128 128 0 0 1 18.4.1l14-.5" class="b"/><path d="M8.4 189.3h17.4q3.6 1 7 2 5.6 1.5 11.3 2 7.5 1 14.9-.6c4-.9 8-2.6 12.2-2.5 4.7 0 9.3 1.8 14 2.7q2 .5 4.3 0 1.7.5 3.5.5c6 .3 12.4-1.7 18.3.8 1.7.7 3.4 1.8 5.2 2.4q2.3-.8 4.4-2c2.4-.8 5.2-.5 7.8-.4q8.8.4 17.5 1.7 3 .5 6 .2a147 147 0 0 1 18.4.2l13-.5" class="b"/><path d="M8.4 187.6h16.5c2.4.5 4.7 1.6 7 2.2q6 1.8 12.2 2.8a39 39 0 0 0 23.6-3.1c6.2-2.5 13 .1 19.1 1.4q2.2.1 4.4.1 3.4.9 7 .6c5-.3 10.1-1.6 14.8.7 1.7.7 3.4 2 5.2 2.6 1.5-.5 3-1.4 4.4-1.8 2.5-.7 5.3-.6 7.9-.5q8.3.4 16.5 1.6 3 .4 6.1.2a158 158 0 0 1 18.3.2l12.2-.4" class="b"/><path d="M8.4 185.8H24q3.4 1.2 7 2.6 6.3 2.2 13 3.4a37 37 0 0 0 27-4.4c5.9-1.6 11.8.5 17.5 1.3q1.7.2 3.5 0 3.3 1.4 7 1c5.2-.1 10.8-2 15.7.7 1.7.8 3.3 2.3 5.2 2.7q2.2-.9 4.4-1.6c2.5-.6 5.2-.5 7.8-.5 5.6.2 11 1 16.6 1.5q3 .4 6 .2l7-.1 11.4.2 10.5-.2" class="b"/><path d="M8.4 184h10.4l4.4.1q2.3.8 4.3 1.8 8.9 3.8 18.4 5.3 2.6.3 5.2.2h6q6.6.3 12.3-3l3.5-2.1q3.3-1.2 7-1c4 0 8 1.3 12.2 1.3 1.2-.2 2.4.5 3.5.8 1.3.4 3 .5 4.3.5 3 0 5.9-.8 8.8-1 4.6-.6 7.6 1.4 11.3 3.9.4.2 1.3.5 1.7.5l2.7-1q2-.6 4.3-.8c5.8-.4 11.7.4 17.5 1l7 .5q4.8-.2 9.5-.2c7 0 14 .4 21 .2" class="b"/><path d="M8.4 182.4H18c1.7 0 3.6-.3 5.2.2a84 84 0 0 0 16.6 6.5q2 .6 4.3.4 4.8-.9 9.6-1 4.4 0 8.7.6l3.5.6q4.5-.8 7.9-3.8c3.9-2.3 8.6-2.4 13-2q4 .6 7.9.5 1.6.8 3.5 1.2c5.5 1.5 11-2 16.5-.5 2.7.6 4.6 2.8 7 4 1.4.8 3 0 4.4-.4q2.5-.7 5.2-.8c5.8-.3 11.7.5 17.5 1 4.6.7 9.3 0 14 .1l20.8.3" class="b"/><path d="M8.4 180.6H17c1.7.1 3.6-.1 5.2.3a68 68 0 0 0 17.5 7l3.5-.7q5.6-1.5 11.3-2 8 .3 15.7 2.7c2.4-.1 4.2-2 6-3.1 5.7-3.7 12.2-2.4 18.4-2.6 1.5-.3 3 .8 4.4 1.2q3.9 1.2 7.8.2c3.7-.9 7.9-1.7 11.3.4a18 18 0 0 0 5.3 3.4c1 .6 2.4.1 3.5-.2a32 32 0 0 1 5.2-.9c5.8-.3 11.7.4 17.4 1 4.4.5 8.8-.1 13.1 0h21" class="b"/><path d="M8.4 179.1q6.5.2 13 .5c1 0 2 .7 2.7 1.2q1.2.8 2.6 1.4 4.6 2.4 9.6 3.8c1.7.4 3.6-.6 5.2-1a93 93 0 0 1 13-2.7q4 .3 8 .8a36 36 0 0 1 11.3 3c1.2.4 2.5-.7 3.5-1.3q1.6-1.2 3.5-2.2c5-3 11-2 16.5-2.7 2.5 1.2 5.2 2.2 7.9 2 4.5-.2 10-3 14 .2q3 2.7 7 3.9 1.3-.1 2.5-.5 4.8-.9 9.6-.7c5.5 0 11 1 16.6 1 9.6-.7 19.2-.1 28.8-.4" class="b"/><path d="m8.4 177.7 8.7.6c2 .2 4.2 0 6 .9a40 40 0 0 0 11.4 5.1c2.1 0 4.1-1 6.1-1.6q7-2 14-2.9c2 0 4 .5 6 .6q4.5.3 8.8 1 2.8.3 5.2 1.6c1.4.7 3 2 4.4 1 2.8-1.7 5.5-3.8 8.7-4.6q3.5-1 7-1 2.2-.4 4.4-.5c6.6 3 8.2 1.6 14.8.7 2.1-.2 4.5 0 6 1.6 2.5 1.7 5.7 4.2 8.8 4 7.7-1.8 15.7-.6 23.5-.2 3.8.1 7.6-.4 11.4-.4q10 .1 20-.4" class="b"/><path d="M8.4 176.3c4.6.5 9.4.7 14 1.6 1.5.5 2.8 1.8 4.3 2.4q3 1.6 6 2.4l3.6-1a71 71 0 0 1 19.2-4q4.3.8 8.7.9c3.7.2 7.7 0 11.3 1 1.8 1 3.4 2.5 5.2 3.1 2.6-.7 4.7-2.8 7-4q3.7-1.7 7.9-2.2l4.3-.7c2.4.4 4.6 1.7 7 1.7 4 .1 8.2-1.8 12.2-.4l4.4 3q2.8 1.7 6 2.4a45 45 0 0 1 8-.8c5.2-.2 10.4.8 15.6.6 10.2-.8 20.4-.4 30.6-1.2" class="b"/><path d="M8.4 174.9c4.6.5 9.4.8 14 2.2 1.7.7 3.3 2 5.2 2.7q1.6.8 3.4 1.1c2.7-.7 5.2-2 7.9-2.6 5.4-1.5 11-1.9 16.6-2.3q4.6 1 9.6.8 3.3 0 7-.2c1.3 0 3-.2 4.3.2 2.4 1.1 4.6 3 7 4 1.2.3 2.4-.8 3.5-1.4q2-1.6 4.3-2.7a43 43 0 0 1 10.5-3c2 .5 4 1.3 6 1.5 3 .2 5.9-.6 8.8-.6q1.4 0 2.6.3c1.6.6 3 2 4.4 2.8 2.8 1.7 6.2 3.6 9.6 2.8 5.7-.8 11.6 0 17.4.1 11-.9 22.1-.7 33.1-1.6" class="b"/><path d="M8.4 173.4q6.1.6 12.2 2.2c2.7.8 5 2.9 7.8 3.5 1.5 0 3-.8 4.4-1.3q3.4-1.3 7-2 5.2-.8 10.4-1 2.7 0 5.3-.2l3.4.6a49 49 0 0 0 16.6-1q1.4.1 2.6.7 2.8 1 5.3 2.6c1 .7 2.2 1.7 3.5 1.7 2.1-1 4-2.7 6-3.9q4.6-2.4 9.6-3.4c2.4 0 4.7 1 7 1 2.6.1 5.3-.3 7.9-.2q1.8-.1 3.5.8 3 2.2 6 3.8 3 1.4 6.2 1.7a44 44 0 0 1 9.6-.3c5.8.5 11.6-.3 17.4-.6 7.8-.4 15.7-.4 23.5-1.1" class="b"/><path d="M8.4 171.8q5.3.8 10.4 2.3c2.1.6 4.1 1.9 6.1 2.8 1.8.9 2.7.4 4.4-.3q2.6-1.1 5.2-1.8c6.5-1.8 13.4-1.2 20-1.3q1.9.1 3.6.5a40 40 0 0 0 16.5-1.2c1-.5 2.4-.2 3.5 0a22 22 0 0 1 8.8 3.6q1 .8 2.6 1c1.8-.8 3.5-2.3 5.2-3.4a29 29 0 0 1 8.7-3.8c2.3-.2 4.7.4 7 .5h7c1.8.2 3.8.4 5.2 1.6q2.9 2.2 6.1 3.6 3 1.2 6.1 1.4 4.4-.6 8.7-.2 3.5.3 7-.2l8.7-.6q12.3-.4 24.4-1.3" class="b"/><path d="M8.4 170.3q5.4.9 10.4 3c2 .7 4 2.4 6.1 2.4l2.7-1q5.4-2.5 11.3-2.7c5.5-.2 11 .5 16.6.6a47 47 0 0 0 16.5-.3c1.8-.3 3.5-1.3 5.3-1.1q4.5-.2 8.7 1.6 1.8.9 3.5 2c.7.3 1.7 1 2.6.8 2.1-1.1 4-2.8 6-4 5.7-3.7 6.7-3.4 13.2-3 3.7.3 7.8-.2 11.3 1.4 4 3.1 8.8 5.4 14 5.6q4.3-.4 8.7-.1l7.8-.7c10.2-.8 20.4-.8 30.6-1.8" class="b"/><path d="M8.4 168.8q5.4 1.4 10.4 4c1 .4 2.3 1.1 3.5 1.3q2.3-.9 4.4-1.9 5-2 10.4-1.9c5.9 0 11.7 1 17.5 1.4q4.7.6 9.6.6 4 0 7.8-.9c1.4-.3 3-1 4.4-1.1 4-.6 8.4-.8 12.2 1 1.7.7 3.4 2 5.2 2.7 2-.6 3.6-2.2 5.3-3.3 2.1-1.5 4.3-3.5 7-4l8.7.1c2.6.2 5.3.3 7.8 1.2 1.3.4 2.4 1.5 3.5 2.2q1.6 1.1 3.5 1.8c4.6 2.2 9.8 1.8 14.8 1.7q8.2-.6 16.6-1.2c7.5-.5 15.1-.6 22.6-1.5" class="b"/><path d="M8.4 167.7c3.3 1 6.4 2.8 9.6 4.2q1.8.8 3.5-.3l3.4-1.6a26 26 0 0 1 10.5-1.4c4.4.2 8.7 1 13 1.6q7.9.9 15.8 1 4.4 0 8.7-.9 3.5-.9 7-1.5c2.8-.4 5.9-.7 8.7 0q2.3.6 4.4 1.8c1 .6 2.2 1.6 3.5 1.6 3.8-1.8 6.5-5.6 10.4-7.2q4-.1 7.9 0 4.5 0 8.7 1.6c2.4 1 4.4 3 7 3.8 4.3 2 9.2 1.8 14 1.5q9-.7 18.2-1.3 10.5-.4 21-1.5" class="b"/><path d="M8.4 167.3c2.5 1 5 2.8 7.8 3.4 2-.2 3.5-1.9 5.3-2.6 3.8-1.5 8-1.6 12.2-1.2 4.6.5 9.3 1.5 14 2.1q9 1 18.2.9c4.4 0 8.8-.9 13.1-1.9 3.4-.7 7-1.6 10.5-1 3.2.2 5.8 2.3 8.7 3.5 3.8-1.3 6.2-5 9.6-7.1 1.6-.5 3.5-.2 5.2-.2q4-.1 7.9.8c3.1.7 5.8 2.9 8.7 4.2 4.6 2.3 9.8 2.3 14.8 2q9.6-.9 19.2-1.5 10-.6 20-1.3" class="b"/><path d="M8.4 168.3c3 1 5.4 1 7.8-1.3 1-.8 2.1-2 3.5-2 8.2-1.4 16.3 1.4 24.4 2.3q12.1 1.5 24.4 1 5.8 0 11.4-1.5c3.4-.8 6.9-1.8 10.4-1.7q2.8.2 5.3 1.3 2.2 1.2 4.3 2.3c3.5-.4 6-4.7 8.7-6.8 1-.7 2.4-.4 3.5-.5q2.2 0 4.4.2 3.7.3 7 1.7 2.7 1.3 5.2 3a31 31 0 0 0 15.7 2.2c7.8-.6 15.7-1.5 23.5-1.9 5.3-.2 10.5-.8 15.7-.9" class="b"/><path d="M8.4 167.1c1.8-.2 3-2.1 4.3-3.3 1.3-1 2.7-2.7 4.4-2.9 3.1 1 6.4 1.4 9.6 2q6.5 1.5 13 2.6 7.8 1 15.8 1.2c6 0 12.2.3 18.3-.1 4.1-.3 8.2-1.4 12.2-2.4 3-.8 6.5-1.2 9.6-.2 2.1.6 4 2 6 3 1.4.2 2.6-1 3.6-1.7 1.9-1.5 3.2-4 5.2-5.3 4-.5 8.4-.2 12.2 1.5 2.4 1 4.6 2.6 7 3.6 4.4 1.8 9.2 1.8 14 1.8 5.5-.2 11-1.2 16.5-1.5 7.8-.5 15.7-1.3 23.5-1.3" class="b"/><path d="m8.4 161.9 1.7-4q3.5-.1 7 .2 5.1 2.1 10.5 3.6c7.3 2.1 15 2.8 22.6 3q6.6.3 13.1.3c4.6 0 9.3.3 14-.3 7-.6 13.9-4.7 20.9-2.2q1.8.6 3.5 1.7c.7.4 1.7 1 2.6 1a11 11 0 0 0 4.4-3.4c.7-1 1.5-2.4 2.6-3 3.4-1 7.2-.4 10.4 1 2.5.9 4.7 2.5 7 3.5q3.8 1.5 7.9 1.8 4.3-.1 8.7 0c4.3-.1 8.7-.9 13-1.3 8.5-.6 17-1.4 25.4-1" class="b"/><path d="m8.4 156.8.8-.6c13-.2 6.4 0 17.5 3.8a67 67 0 0 0 20 2.8l16.6.3c5.2.1 10.5.4 15.7-.2 7-.6 14-4.6 21-2.3 2 .7 4 2.3 6 3 1.9-.5 3.3-2.2 4.4-3.7.3-.6 1-1.7 1.7-2 3-1.4 6.7-.5 9.6.7 2.4 1 4.6 2.6 7 3.4q3.3 1.2 7 1.4 4.7-.5 9.6-.2c4.3.4 8.7-.5 13-.8 8.4-.7 17-1.5 25.3-.8" class="b"/><path d="M8.4 154.4h6c1.5.1 3.1-.2 4.4.3q3 2 6.1 3.3a50 50 0 0 0 18.3 2.9q10 0 20.1.2c5.8.2 11.7.6 17.4-.1 7.3-.6 14.6-4.8 21.8-2 1.9.7 3.5 2 5.3 2.9 2 0 3.2-2.3 4.3-3.7 4.8-4.5 10.9.6 15.7 2.3q4.2 1.6 8.8 1a59 59 0 0 1 8.7-.3q3 .3 6 .4l7-.6c8.4-.6 17-1.5 25.3 0" class="b"/><path d="M8.4 152.7h6q2.3-.2 4.4.2c2 1.2 4 2.7 6.1 3.6a45 45 0 0 0 17.5 2.5c6.4-.2 12.8-.5 19.2 0 7 .1 14 1 20.9 0 7.5-.6 15.3-5 22.7-1.6 1.8.7 3.3 2.5 5.2 2.8 1.8-.4 2.8-2.5 4.3-3.3 4.1-2.3 8.3 1.1 12.3 2.2q2 .8 4.3.9 2.2-.2 4.4-.5 4.3-.5 8.7-.3 5.3.2 10.5.6 5.6-.4 11.3-.6a78 78 0 0 1 11.3.2c2 0 4.1.7 6.1.6" class="b"/><path d="M8.4 151H18c1.6.2 2.9 1.8 4.3 2.5q2.5 1.5 5.3 2.3c7.6 2 15.7 1 23.5.8 10.5-.4 21 1.5 31.4.7 8.1-.4 16.4-5.2 24.4-2.1q1.4.7 2.6 1.6c.8.5 1.7 1.5 2.6 1.7 1.3.2 2.5-.7 3.5-1.3q1.7-1 3.5-1c3 .3 5.8 1.8 8.7 2 2.6.4 5.3-.8 7.9-.9q6.5-.6 13 0l13.1.9 7-.2c5 .1 10.1.5 14.8-1.3" class="b"/><path d="M8.4 149.2h7c2.2 0 3.4-.4 5.2 1.3q2.7 2.3 6 3.3c4.3 1.3 8.8 1.4 13.2 1.3 6.6-.3 13.3-1 20-.5 8.7.2 17.5 1.6 26.2.6 7.6-.8 16-5.1 23.5-2.1 1.3.6 2.5 2 3.5 3 .6.7 1.8.7 2.6.6l3.5-.2c2.3-.2 4.7.3 7 .2 2.6-.3 5.2-1.2 7.8-1.5q7.8-.7 15.7 0c6.1.4 12.2 1 18.3.7a36 36 0 0 0 15.7-3.1" class="b"/><path d="M8.4 147.5H18c1.7-.2 3 1.7 4.3 2.5q2.8 1.8 6.1 2.4c7.8 1.5 15.7 0 23.6-.1 6-.2 12.2.5 18.3.7a69 69 0 0 0 21.8-.6c4.3-1 8.6-2.2 13-2.7 3-.3 6.6-.4 8.8 2.1q1.5 3.3 5.2 3.2c4.5.2 8.7-1.8 13-2.2 5.3-.6 10.6-.3 15.8 0 8.4.4 17 1.2 25.3-.3 3.6-.6 7-2.1 10.4-3.3" class="b"/><path d="M8.4 145.7H18c2-.2 3.5 2 5.2 2.8q4 2.2 8.7 2.4c6.4.4 12.8-.5 19.2-.7 4.3-.2 8.7.3 13 .4q6.1.3 12.3.8 6.5.4 13-.3c5.7-.8 11.1-2.6 16.6-3.8q3-.7 6.1-1.2c.8 0 1.9-.5 2.7 0 1.3 1.4 2.4 3.5 4.3 4.3 5 1.4 9.9-1 14.8-.7q7 .2 14 .6c7 .4 14 .7 21-.2 5-.6 9.7-2.8 14.7-3.6" class="b"/><path d="M8.4 144h10.4c1-.1 2 .7 2.6 1.2q1.3 1 2.7 1.7a25 25 0 0 0 11.3 2c7 0 14-1.2 21-.6l14.8.5c4.9.5 9.8 1 14.8.7 7.8-.2 15.3-2.8 22.6-5.3 1.4-.4 3-.2 4.4-.2h6.1c1 1 2.1 2.3 3.5 2.8 2.8 1 5.9.4 8.7.1 3-.4 5.8.1 8.7.4 8.4.6 17 1.2 25.3.2 6.2-.5 12.1-3.2 18.3-2.7" class="b"/><path d="M8.4 142.2h7.8c1.7.1 3.9-.4 5.3.9q2.7 2 6 3c4.3 1 8.8.7 13.1.5l10.5-.5q10 .6 20 .7c2.3 0 4.7.5 7 .6q5.7.5 11.4 0t11.3-2.4c2.3-.8 4.6-2 7-2.7q3.5-.2 7 0 2.6-.1 5.2 0c3.3 2.6 7.4 2.7 11.3 2.4q5.2-.2 10.5 0 10.5 1.3 21 .3 4.8-.5 9.5-1.3c3.8-.4 8.3-1.4 11.4 1.4" class="b"/><path d="M8.4 140.5h12.2c.9.1 1.8.9 2.6 1.3 3.1 2 6.9 2.6 10.5 2.7 5.5.2 11-.3 16.5-.4 2.3-.1 4.7.3 7 .4q6.1.3 12.2.3c3-.2 5.9.3 8.7.6q6 .5 12.3 0 5.3-.5 10.4-2.4c2.6-.8 5-2.8 7.9-2.5q5.7-.2 11.3 0c1.9 1 4 2 6.1 2.1q3.5.3 7 .2h9.6q10.8.2 21.8-.6c4.3-.3 8.8-1.3 13 0 2.5.8 3.9 3.4 5.3 5.4l.9.4" class="b"/><path d="M8.4 138.8h13c1.9.2 3.5 1.7 5.3 2.2q3.4 1.1 7 1.3 8.3.3 16.5-.2 3.5.2 7 .5a159 159 0 0 0 14.8.1l6.1.7q5.3.4 10.5.1 5.8-.2 11.3-2.1 2.7-1.2 5.3-2.5 1.2-.2 2.6-.2H119c1.8.5 3.5 1.5 5.3 1.9q3.8.8 7.8.6h7.9q10.8.3 21.8-.7c4.6-.4 10.1-1.8 14 1.6 1.2 1.2 2 3.2 3.4 4.2h4.4" class="b"/><path d="M8.4 137.2c2-.4 4-.1 6-.2h8.8c1.4.4 3 1.3 4.3 1.7a30 30 0 0 0 7 1.3c5.5.4 11 .2 16.6.2 3.2.1 6.4.6 9.6.6q5.7.1 11.3-.1 5.7.7 11.4 1c4.6 0 9.4-.2 14-1.5a26 26 0 0 0 5.2-2.2l1.7-.8q1.3-.2 2.6-.2h11.4q2.2.8 4.3 1.6 2.6.7 5.2 1 12.8.6 25.3.2c5.2 0 10.6-.8 15.7.3a9 9 0 0 1 3.5 1.9c.8.7 1.8 1.9 2.6 2.5h8.8" class="b"/><path d="M8.4 135.9c1.9-1 4-.6 6-.7h9.7c1.7 0 3.5 1 5.2 1.5q3.4 1 7 1.2 8.3.5 16.5.4l7 .5h7.9q3.5 0 7 .2c6.9.8 14 1.2 20.9-.4q2.7-.6 5.2-2c1-.5 2.3-1.4 3.5-1.4h5.2l7.9.1q2.5 1 5.2 2c4.2 1 8.7 1 13 1.2l14 .3q6.1-.1 12.2.5 2.8.4 5.3 1.4c1.4.6 2.8 1.7 4.3 2h12.2" class="b"/><path d="M8.4 134.7c1.6-.6 3.4-1.4 5.2-1.2h7.9q3-.2 6 .2 4.8 1.6 9.6 2.1 8.8.8 17.5.7 6 .6 12.2.4c3.8-.3 7.6.3 11.3.6q6.6.5 13.1-.2a26 26 0 0 0 10.5-3.5q1.2-.4 2.6-.3l3.5.1 8.7.3c1.1.2 2.4 1 3.5 1.3q2.5.9 5.2 1.3c7.8.9 15.7 1 23.6 1.4q5.6.1 11.3 1c2.7.4 5.2 1.8 7.9 2.1h15.6" class="b"/><path d="m8.4 133.7 4.3-1.8c2.9-.4 5.9 0 8.8-.1q3.8-.2 7.8.1 4.4 1.1 8.7 2c7.8 1 15.7.9 23.6 1q5.2 0 10.4.2c5.8.5 11.7 1 17.5.4a25 25 0 0 0 9.6-2.7c1.7-1.1 4-.3 6-.4q6 .5 12.3.7c5.7 2.5 12.1 2.5 18.3 3 6 .5 12.2.7 18.3 1.4 3.2.4 6.4 1.3 9.6 1.7h20" class="b"/><path d="M8.4 132.7c2.1-.5 4.1-1.7 6-2.5 2-.3 4.2-.1 6.2-.2h9.6c2.9.5 5.8 1.5 8.7 2q8.6 1.2 17.4 1.2 7.6 0 14.8.2c5.3.2 10.5.7 15.7.3q4.1-.2 7.9-1.3l3.5-1.5q1.3 0 2.6.2 8.2 1 16.6 1 7.6 2.2 15.7 2.6l16.5 1.5q5.3.7 10.5 1.3h23.5" class="b"/><path d="M8.4 131.7q2.7-.5 5.2-1.8c1.4-.7 2.7-1.8 4.4-1.6h14q3 .7 6 1.6 7.4 1.4 14.8 1.7c6.7.3 13.4 0 20 .1 7.3.3 14.9.8 21.9-1.6l1.7-.7q1.8 0 3.5.4a188 188 0 0 0 14.8 1.1c1.4.1 3 0 4.4.5 6.6 1.6 13.4 1.9 20 2.7l16.6 1.7h28" class="b"/><path d="M8.4 130.8q3.7-.4 7-2.2c1.3-.7 2.6-2.3 4.3-2h13c2.4.5 4.7 1.4 7 1.8q5.7 1.2 11.4 1.5 9.6.4 19.2.1c4.3 0 8.7.3 13 0a46 46 0 0 0 11.4-2.2q1.8 0 3.5.4a122 122 0 0 0 19.2 1.6c2.3.1 4.6 1 7 1.2q6 .8 12.2 1.5c5.5.6 11 1.4 16.5 1.6h30.6" class="b"/><path d="M8.4 129.8a17 17 0 0 0 12.2-4.8c2-.4 4-.1 6-.2q3.6-.2 7 .1 7.6 2.9 15.8 3.4c10.1.8 20.3 0 30.5 0q4.8-.1 9.6-1c1.4-.3 2.9-1 4.3-1.2q1.4.1 2.7.4 6 1.1 12.2 1.6 4.8.3 9.5.3a276 276 0 0 0 29.7 3.9h35.8" class="b"/><path d="M8.4 128.9c3.8 0 8-.2 11.3-2.4 1.3-.8 2.4-2.3 3.5-3.3 3.2-.3 6.4 0 9.6-.1 1.8.4 3.5 1.4 5.2 1.9q3.9 1.2 7.9 1.6c11.3 1.3 22.7.2 34 0q4.4-.2 8.7-1.2c1.4-.2 3-1.2 4.4-1 6 1 12.1 2.2 18.3 2.4q3.9 0 7.8.2l5.3 1q9 1.4 18.3 2.4c5.2.4 10.4.1 15.7.2h25.2" class="b"/><path d="M8.4 127.8c4.3.1 9 .4 13-1.3 2.1-1 3.3-3.2 4.4-5q2.2-.3 4.4-.2 1.8-.2 3.5.7c3 2 6.8 2.7 10.4 3.1 8.4 1 16.9.7 25.3.2 4.6-.3 9.4-.2 14-.9q2.6-.4 5.2-1c1.1-.3 2.3-1.1 3.5-.8 6.3 1.2 12.7 2.4 19.2 2.6 3.1.2 6.4 0 9.5.5q10 1.8 20.1 2.9c5.5.4 11 .1 16.6.2h26.1" class="b"/><path d="M8.4 126.6q6 .4 12.2.2c6 0 6.6-1.7 7.8-7.2h2.7c1 1 2 2.3 3.4 2.9 3 1.2 6.4 1.3 9.6 1.6q9.6.7 19.2.1l10.5-.7c5.6-.3 11.3-.7 16.5-2.8 7.2 1.4 14.5 2.8 21.8 3q3.5 0 7 .2l13.1 2c7.5 1.4 15.1 1.2 22.7 1.2h28.7" class="b"/><path d="M8.4 124.8q5.2-.3 10.4 0 2.6.2 5.3.5H31c.9-.2 1.8-.9 2.6-1.2q2.2-.7 4.4-.8 7.9-.1 15.7-.1 7-.2 14-.8c5.8-.5 11.7-.6 17.4-2l4.4-1.4q3.9.6 7.8 1.4 7.8 1.3 15.7 1.6 4.4-.1 8.7.6 8.7 1.6 17.5 2.6c7.8.3 15.7 0 23.5.1h13c2.7 0 5.4.2 8-.2" class="b"/><path d="M8.4 122.5c5.2-.4 10.5-.9 15.7-.5 1.9.1 3.4 1 5.2 1.5h3.5q3 .3 6-.5 3.1-.6 6.2-.7 12.6-.4 25.3-1.6c4.3-.5 8.8-.7 13-1.7 7.3-2 3.5-2.2 11.4-.7q7.8 1.4 15.7 1.9 4.8.1 9.6.4c6.4 1 12.7 2.4 19.2 2.9q13 .2 26.1 0h10.5c2.6 0 5.3.2 7.8-.3" class="b"/><path d="m8.4 120.2 11.3-1.3c2.6-.3 5.4-.5 7.9-1.6 9.2 6.8 12.3 4 22.6 3.6 10.2-.7 20.5-1.4 30.6-3l5.2-1.5c1-.4 2.3-1.2 3.5-.7q10.4 2 20.9 2.7c3.5.2 7 .1 10.5.5 6 1 12.1 2.5 18.3 2.9h35.7q4.5.2 8.7-.6" class="b"/><path d="M8.4 118q7-.8 14-2.3c5.6-1.4 3-3.3 8.6.1a28 28 0 0 0 15.7 4q11.9-.8 23.6-2c5.9-.8 12-1.4 17.4-4q10.8 2 21.8 2.8c5.3.3 10.6 0 15.7 1.3 4.3.8 8.7 1.8 13.1 2.1q8.7.2 17.4 0h15.7q6.2.4 12.2-.7" class="b"/><path d="M8.4 115.8c5.5-.8 11.4-1.4 16.5-3.7 1.5-1.1 3-.2 4.4.4l6.1 2.5c5.8 2.2 12 3.7 18.3 3 8.2-.8 16.4-1.5 24.4-3q3.1-.5 6.1-1.6c1.1-.4 2.3-1.2 3.5-1.3a141 141 0 0 0 22.7 2.7c3.1.2 6.4 0 9.6.3 5.5.7 11 2.5 16.5 3 3.5.4 7 .2 10.5.2h29.7q3.4-.3 7-1" class="b"/><path d="M8.4 113.7q6.1-.7 12.2-2.3c5.5-1.7 3.6-2.5 9.6-.5 7 2.4 14.3 4.7 21.8 5.4q3.5.3 7-.3l9.5-1c6.3-.9 12.7-1.7 18.4-4.6q11.1 2 22.6 2.4c5 .4 10-.2 14.8 1.1q6 1.6 12.3 2.5c6 .4 12.2.1 18.3.2h18.3c3.5.1 7-.7 10.4-1.2" class="b"/><path d="M8.4 111.7q8-.7 15.7-3.7c1.7 0 3.5.7 5.2 1l7.9 2.1c7.1 1.6 14.4 3.8 21.7 3.4q7.5-.6 14.9-1.8c4.2-.7 8.4-1.6 12.2-3.7 2-.2 4 .5 6 .6a192 192 0 0 0 20.1 1.4q4.5-.1 8.8.2c5.2.7 10.3 3 15.7 3.5 8.4.4 16.8 0 25.2.2l13.1-.1c3-.3 5.9-1 8.7-1.3" class="b"/><path d="M8.4 109.8a65 65 0 0 0 13-2.8q1.4-.6 2.7-.4 6.6 1.2 13 2.7l10.5 1.9q5.6 1.2 11.4 1.6c4 .2 8.1-.6 12.2-1.1a45 45 0 0 0 14.8-4.4c8 1.2 16.2 1.4 24.4 1.6 4.3.2 8.8-.6 13 .5s8.1 2.8 12.3 3.5q3.4.3 7 .2H153q10.5.2 21 0 4.7-.8 9.5-1.6" class="b"/><path d="M8.4 107.9q4.4-.4 8.7-1.5c1.7-.3 3.5-1.5 5.2-1.2 8.5 1 16.9 2.8 25.3 4q5.2.9 10.5 1.5 3.9.6 7.8.1 7.1-.6 14-2.6l3.5-1.4c.7-.4 1.7-1.1 2.6-1q13 1.3 26.1 1c3.2 0 6.5-.4 9.6-.2 1.8 0 3.6 1 5.3 1.6 2.8 1.1 5.7 2.4 8.7 3 3.1.4 6.4 0 9.6.2H160q6.5 0 13-.2c3.6-.4 7-1.3 10.5-1.6" class="b"/><path d="M8.4 106q5.7-.4 11.3-2.2 6.1.5 12.2 1.4c6.7 1 13.4 1.6 20 2.6q5.7.9 11.4 1.5c2.3.3 4.7-.2 7-.5a54 54 0 0 0 9.6-2.1c1.8-.5 3.5-1.7 5.2-2.3q16.1 1.3 32.3-.2l5.2-.3c4.9 1 8.9 5 14 5.6 10.7.3 21.5 0 32.2.1 5 .2 9.8-1.7 14.8-2" class="b"/><path d="M8.4 104.2a57 57 0 0 0 9.6-1.7l2.6.2q15.3 1.3 30.5 3c5.2.6 10.5 1.6 15.7 2 6-.5 12.3-1.4 17.5-4.7q9.5.5 19.1 0 8.4-.2 16.6-1.8l3.5-.4c3.6 1 6.4 3.7 9.6 5.5q2 1.2 4.3 1.5H154q8.2.1 16.6 0c4.3-.9 8.6-2 13-2.2" class="b"/><path d="M8.4 102.4q4-.3 7.8-1.3l19.2 1.4q10 .7 20 1.8l8.8 1.2c2 .3 4 .7 6 .3 4.6-.5 9.2-1.4 13.1-3.8q4.5-.3 8.8-.3 9-.2 18.3-1.3 4.4-.8 8.7-1.6c2.3-.3 4.7-.1 7-.2 3.4.3 5.3 3.8 7.8 5.6 1 .8 2.3 1.7 3.5 1.9h31.4c2-.3 4-1.2 6.1-1.6q4.3-.9 8.7-1" class="b"/><path d="M8.4 100.7a54 54 0 0 0 7-1.1l1.7.2c6.3.7 12.8.7 19.2 1.2q10.5.5 20.9 1.5l8.7 1.3c2 .3 4.1.7 6.1.3q3.6-.3 7-1.5c1.5-.4 2.9-1.4 4.3-1.8q9.2-.6 18.4-1.4c5-.4 9.9-1.5 14.8-2.5h13c2.7-.4 3.9 2.8 5.3 4.5 2 2.7 2.7 3.2 6 3h19.3q3.5.2 7-.2c2.9-.7 5.7-2 8.7-2.6q3.8-.3 7.8-.4" class="b"/><path d="M8.4 98.8q2.6-.1 5.2-.7 2.2.2 4.4.5 6 .5 12.2.5 10 .4 20 1 7 .1 14 1.5 3.5.6 7 1 4 0 7.8-1.3l3.5-1.5 5.2-.6q7-.7 14-1.6c4.4-.4 8.7-1.7 13-2.5h17.5c1.9 2 2.8 5 5.2 6.4 2 1.2 4.7 1.2 7 1.2h7.9c3.7-.2 7.6.3 11.3-.3 6.6-1.5 13.2-4.2 20-3.6" class="b"/><path d="M8.4 97c1.4 0 3-.5 4.3-.4l5.3.7q7 .3 14 .3 9.5.2 19 .7 4.5.1 8.8.5 4 .6 7.9 1.4 5.7 1.5 11.3-.2 2.1-.8 4.4-1.3c9.2-1.7 18.8-2.4 27.9-5 2.5-.6 5.2-.2 7.8-.3h12.2c1.7 1 2.8 3.1 4.4 4.4 3.5 3.1 8.6 3 13 3s8.9.2 13.1-.8c7.1-2 14.4-3.6 21.8-3.4" class="b"/><path d="M8.4 95.1q1.3-.2 2.6-.2a46 46 0 0 0 8.7 1c13.7.2 27.4.1 41 1 6.3.6 12.7 3.6 19.2 1.6 3.6-1.2 7.5-1.7 11.3-2.5 5.9-1 11.8-1.9 17.5-3.6 3.3-1.2 7-.7 10.4-.8h7.9c1.4.1 3-.2 4.3.3 2.5 2 4.7 4.6 7.9 5.5 3 1.1 6.4 1.2 9.6 1.3a64 64 0 0 0 9.6-.6c2.3-.3 4.6-1.5 7-1.9a76 76 0 0 1 18.2-1.5" class="b"/><path d="M8.4 93.1c2.3.2 4.6.9 7 1q5.2.4 10.4.3h21.8l10.5.3q3.5-.2 7 .7 3.9.9 7.8 1.9 2.6.1 5.2.1c2.7 0 5.3-1.2 7.9-1.6 7.6-1.5 15.3-2.9 22.6-5.4 1.7-.6 3.6-.5 5.3-.5h13c1.5 0 3.1-.3 4.4.3 6.2 4.7 8.5 6 16.6 6.2 5.9 0 12-.4 17.4-3.2q9-1.2 18.3-.5" class="b"/><path d="M8.4 91.6c6.3 1.4 12.8 1.2 19.2 1.2a1219 1219 0 0 1 31.3 0h4.4q1.8.1 3.5.7c2.6.6 5.2 1.7 7.8 2.1h6.1l6.1-1.2c6.8-1.4 13.6-2.8 20-5.3q2.6-1 5.3-1h14c1.7.2 3.6-.2 5.2.4q2.7 1.5 5.2 3.2a21 21 0 0 0 7.9 2.2c7.3.6 15 0 21.8-3.2.6-.6 1.8-.6 2.6-.6a135 135 0 0 1 14.8.6" class="b"/><path d="M8.4 90.1c6.9 1.3 14 1 20.9 1l31.4-.5 3.5-.3 4.3 1.1c2.4.7 4.6 1.9 7 2.4q3.5.3 7 0 10.3-1.4 20-4.7c2.4-.8 4.7-2.1 7-2.6h21c1.5.1 3 1.1 4.3 1.9a25 25 0 0 0 5.3 2.3c7.3 2 15.3 1.1 22.6-.8 2.4-.5 4.7-1.8 7-2.5q7 .5 14 1.2" class="b"/><path d="M8.4 88.6c8 1.3 16.3.8 24.4.7 8.4-.3 16.9-.2 25.3-.7q3-.2 6-.8c3.4 0 6.7 1.5 9.7 3q3.1 1.7 7 1.4 5.3 0 10.4-1.3 5.9-1 11.3-3.3c2.4-.9 4.6-2.4 7-3h19.2q1.7 0 3.5.3l3.5 1.6c4.5 2.5 9.7 3.2 14.8 3 7.2-.2 14.2-2 21-4.3 4 0 8.1.9 12.1 1.3" class="b"/><path d="M8.4 87c10 1.4 20.3.5 30.5.3q7-.1 14-.5c3.7-.3 7.7-.4 11.3-1.8 1.3-.7 3 .1 4.3.3q4.3 1.3 7.9 4 3 1.1 6 1 3.1.3 6.2-.2a49 49 0 0 0 17.4-5.7c1.3-.7 2.8-1.6 4.4-1.5h21c1.7 0 3.5 1 5.1 1.6q3.3 1.6 7 2.3c5 .8 10 .3 14.8-.4q4.9-.6 9.6-1.8c2.3-.5 4.7-1.4 7-1.5q4.5.5 8.7 1.2" class="b"/><path d="M8.4 85.3c10.4 1.3 21 .4 31.4.1q6.5-.2 13-.7c4.2-.3 8.6-1 12.3-3.2q4.6.1 8.7 2.3 1.6 2.4 4.3 3.5a34 34 0 0 0 20-.4c3.6-1 6.7-3 9.7-5q1.6-1 3.5-.7h22.6c2.1.5 4.1 1.5 6.1 2.2q5.6 1.7 11.4 1.4c5.8-.2 11.7-1.2 17.4-2.1q4.4-.8 8.7-1.4 3.1.2 6.1.9" class="b"/><path d="M8.4 83.6c7.5 1 15.1.6 22.6.3q11-.2 21.8-1.4 5.5-.5 10.5-2.9c1.4-.3 3-.1 4.4-.2q2.7-.2 5.2.4c3.5 5.6 9.6 6.5 15.7 7q6.3.5 12.2-1.8c2.9-1.1 5.3-3.2 7.9-5 1-.7 2.3-.5 3.4-.6h18.4l5.2.1q2.2.6 4.3 1.3 5.2 1.6 10.5 1.6c7 0 14-1 21-1.7l7-.9q2.6-.4 5.1.3" class="b"/><path d="M8.4 81.8c11.8 1.3 23.8.2 35.7-.5 5.6-.5 11.3-1.2 16.6-3.4q1.7-.3 3.5-.2h5.2c4-.1 3.3 0 6.1 2.5q2.8 2 6.1 3c6.7 1.8 14.3 3.3 21 .2 2.4-1.2 4.4-3.4 7-4.6 2.3-1.4 5.1-1 7.8-1.1h9.6c3.7.1 7.6-.3 11.3.2 3.7.9 7.5 2 11.3 2 5.3.3 10.5-.2 15.7-.4q9.2-.5 18.3-1.4" class="b"/><path d="M8.4 80c6.6.8 13.4.6 20 .3q8.7-.4 17.5-1.4Q52 78 58 76c2.2-.4 4.7 0 7-.2h7.8q2.6 1.7 5.2 3.1 5.5 2.4 11.4 3.4c4.2 1 8.8 1.7 13 .3q3.8-1.7 7-4c1.9-1.3 3.9-2.7 6.1-2.8h16.6c3.5.1 7-.3 10.5.5 6.8 1.6 14 1.3 20.9 1.2 6.7-.1 13.4.1 20-.4" class="b"/><path d="M8.4 78.2c11.6 1 23.3.2 34.9-1.3 4-.5 8.1-1.8 12.2-2.7h17.4q1.8.5 3.5 1.4 6.7 2.8 14 4.3c4.2 1.1 8.6 2.4 13 1.6 3-.7 5.5-2.5 7.9-4.3 3.4-2.5 4.3-3.3 8.7-3h23.5q4.9.6 9.6 1l14.9.6q7.8.6 15.7.6" class="b"/><path d="M8.4 76.3a119 119 0 0 0 41.8-3.6c2.6-.5 5.3-.1 7.9-.2h13q3.2-.2 6.2 1l6 1.8c4.4 1.1 8.7 2.7 13.1 3.6a20 20 0 0 0 9.6.8c3-.8 5.6-2.8 7.9-4.7 3.2-2.7 3.7-2.6 7.8-2.5h9.6c6.7 0 13.4-.3 20 .3q8 .5 15.8 1.3 8.3 1 16.5 1.5" class="b"/><path d="M8.4 74.3a109 109 0 0 0 34-2.5c2.2-.6 4.6-1.2 7-1q12.6-.1 25.3 0 2.6.3 5.2 1 3.4 1.2 7 2.3 5.6 1.6 11.3 2.8c3.4.7 7 2 10.5.9q2.9-1 5.2-3l3.5-3.2q1-1 2.6-.9h29.6q4.5-.1 8.8.5c8.4.8 16.8 2.8 25.3 3.5" class="b"/><path d="M8.4 72.2A91 91 0 0 0 38 70c2-.5 4-1.2 6.1-1q16.1-.1 32.3 0c2 .3 4 1.3 6 2q3.5 1 7 1.8 6.2 1.2 12.3 2.5c3.1.5 6.5 1.8 9.6.6 3.3-1.2 5.4-4.3 7.8-6.6q1.2-.5 2.6-.4h17.4c4.1-.1 8.2.5 12.3.6l5.2-.1q2.2-.4 4.4 0c7.5 1.4 15 3.6 22.6 4.4" class="b"/><path d="M8.4 70a80 80 0 0 0 25.3-1.9q3-.9 6-.9h35.8c2.4.5 4.7 1.5 7 2.1a74 74 0 0 0 8.7 2q6.7.9 13 2.1c3.3.5 6.6 2.2 9.7.5a13 13 0 0 0 4.3-4c.9-1 1.9-3 3.5-2.7h13.1c3.5 0 7-.1 10.5.6q5.6.7 11.3.5c2.3 0 4.7-.5 7-.3 6.6 1.9 13.2 4 20 4.8" class="b"/><path d="M8.4 67.8q7.4.5 14.8-.4c3.2-.4 6.4-1.5 9.6-2h29.6q6.1.1 12.2.2c4.4 1.1 8.7 2.7 13.1 3.3 6.4 1.1 12.9 1.5 19.2 2.7 4 .7 7 2.8 10.5-.5 1.7-1.5 2.5-4.3 4.3-5.6H140c3 .4 5.8 1.2 8.8 1.4q6.5.5 13 .2 2.2-.1 4.4 0l5.2 1.9q6 2 12.2 2.8" class="b"/><path d="M8.4 65.4q6 .1 12.2-.5c2.6-.3 5.2-1.2 7.8-1.2h35.8c3.1.1 6.4-.2 9.6.2a84 84 0 0 0 16.5 3.7c6.1.8 12.3.9 18.4 2 2.3.3 4.6 1.5 7 1.6 4-.3 4.8-4.8 7-7.4q3.4-.1 6.9 0 4.8-.2 9.6 0 3.4.6 7 1.4 4.7.7 9.6.8 6-.1 12.2.4 3 1.1 6 2.2 4.8 1.5 9.7 2" class="b"/><path d="M8.4 62.7q6-.1 12.2-.7h26.1q6.2 0 12.2.4 6.1-.1 12.3-.4c3.2.6 6.3 2 9.5 2.5a91 91 0 0 0 14 1.8c5.2.5 10.5.3 15.7 1.2q2.2.5 4.4 1.2c1.6.8 3.7 1.2 5.2 0 2.3-2 3.2-7 7-6.7h11.3c3.8.7 7.5 1.9 11.3 2.2 6.4.7 12.9.6 19.2 1.6 1.8.1 3.5 1.2 5.3 1.7q4.6 1.6 9.6 1.8" class="b"/><path d="M8.4 60.3h33.1c4 0 8.1 1 12.2 1 5.5.3 11-.4 16.6-.9 1.4.2 3 1 4.3 1.3q3 .9 6.1 1.4 8.8 1.5 17.5 1.7c5.8.3 11.8-.3 17.4 1.6 1.7.6 3.4 1.8 5.2 1.3 3-1.6 4.1-5.4 7-7.1 1-.5 2.4-.3 3.5-.3h6.1c3 .4 5.8 1.5 8.7 2 5 .8 10 1 14.9 1.5q5.3.4 10.4 1.7c2.8 1 5.7 2 8.7 2.1l3.5-.4" class="b"/><path d="M8.4 60c2.3-1.6 4.2-1.6 7-1.5h20.9c5.2.9 10.3 2 15.7 2q8.8 0 17.4-1.5c1.2 0 2.4.6 3.5 1q2.2.6 4.4 1 9 1.8 18.3 2l12.2.1c4.2 0 8.6.2 12.2 2.5q1.2.7 2.6.4a7 7 0 0 0 2.6-2c1.9-1.9 3.5-4.8 6.1-5.5h6.1c3 .6 5.8 1.7 8.8 2.2 5.4 1 11 1.2 16.5 2q4 .4 7.9 1.5c2 .5 4 1.3 6 1.5 2.4.3 4.8-.5 7-.7" class="b"/><path d="M8.4 60.7c6.1-4.8 5.6-3.9 13-4h8.8c2.9.5 5.8 1.5 8.7 1.9a79 79 0 0 0 30.5-1q6.3 2.3 13 3c8.8 1 17.5.9 26.2.7 3.2 0 6.6-.2 9.6.7 1.6.4 3 1.6 4.4 2.2q2.6.4 4.4-1.6c1.4-1.4 2.8-3.3 4.3-4.7q1.6-1.3 3.5-1.1c2.4-.2 4.7.6 7 1.2q4.3 1.2 8.7 1.8c5.8.7 11.7 1.1 17.4 2.5 9.8 2.5 5.9 2 15.7.6" class="b"/><path d="M8.4 61c2.8-1.5 5-4 7.8-5.6q1.7-.6 3.5-.4c4.8-.1 9.3 1.5 14 2.2a91 91 0 0 0 28.7.2c2.3-.2 4.7-1 7-1q2.2.8 4.4 1.3c11.1 2.2 22.6 2.2 34 1.9 3.7 0 7.6-.5 11.3.2q2.4.6 4.4 2.2c3.7 2.2 6.5-2.4 8.7-4.7 2.8-3.1 5.2-2.4 8.7-1.2a64 64 0 0 0 7.9 1.8c6.3 1 12.9 1.4 19.2 3l6 1.5c3.3-.2 6.4-1.3 9.6-1.6" class="b"/><path d="M8.4 60.2c2.6-.6 4.7-2.4 7-3.9 6.5-2 13.4 0 20 .3q8.2.6 16.6.3 8.3-.2 16.5-2 7.3 2.3 14.9 2.6 14.3 1 28.7.2c4.1 0 8.8-.9 12.2 2 5.5 4.3 8-4.1 12.2-6 1.4-.8 3 .1 4.4.5q2.6.8 5.2 1.5c4.9 1.1 10 1.5 14.9 2.3q3.9.7 7.8 1.7c2 .4 4 1.2 6.1.7q4.4-1.1 8.7-1.7" class="b"/><path d="M8.4 58.8c4.2-.5 8-3 12.2-3.3 4-.6 8.1-.3 12.2-.2q7 .4 14 .3 10.5.1 20.9-1.9c.8-.3 1.8.2 2.6.4l4.3 1q9.6 1.2 19.2 1.3c8.5.2 16.9-.4 25.3-.7 2.1 0 4.4.4 6.1 1.6q1.2 1 2.6 1.7h1.8c4 0 6.2-8.6 10.4-7.2 7.5 3.1 15.7 3.5 23.6 5.2l7.8 1.7c2 .3 4.2-.6 6.1-1q3-.6 6.1-1" class="b"/><path d="M8.4 57c5.6-.3 11-2.6 16.5-2.8 10.2-.4 20.4.3 30.6-.4q3.8-.3 7.8-.8 2.6-.5 5.2-.7 3 .9 6.1 1.2c9.6 1.2 19.2 1.3 28.8 1.2l12.2-.5c4.2-.2 8.8-.7 12.2 2.2q1.2 1 2.6.9 2.1.2 3.5-1.2c2-2 3.3-5.2 6.1-6.2q1.5.1 2.7.7c5 2.1 10.4 3 15.7 3.7q5.2 1 10.4 2.3l2.6.5q2.7-.4 5.3-1.1 3.3-1 7-1.2" class="b"/><path d="M8.4 55.2c5.8-.4 11.6-1.9 17.4-2.3 7.8-.5 15.7-.2 23.6-.4q7-.2 13.9-1 2.6-.4 5.2-.7 2.7.7 5.3 1c14.7 1.7 29.6 1.3 44.4.6 2.6-.1 5.4-.3 7.9.6 1.5.5 2.9 1.7 4.3 2.4q1.8.4 3.5 0 1.6-.6 2.7-2c1.4-1.9 2.7-4.7 5.2-5.3q7.5 3.5 15.7 4.4 5.7 1.2 11.3 2.5c2.6.8 5.3-.3 7.9-1q3.3-.7 7-1" class="b"/><path d="M8.4 53c6.4-.3 12.7-1.4 19.2-1.8 7.8-.4 15.7-.1 23.5-.4q8.2-.2 16.6-1.3c1-.3 2.3.2 3.4.3q2.2.5 4.4.6c14.8 1.3 29.7 1 44.5.1 2.6 0 5.4 0 7.8 1q2.2 1.3 4.4 2.2c1.8.3 3.8.2 5.2-1.2 1.8-1.8 3-4.6 5.2-6 1.5.1 3 1.4 4.4 1.8q3 1.1 6.1 1.8c2.3.6 4.7.7 7 1.3 3.2.6 6.4 1.6 9.6 2.1 2.3.3 4.7-.8 7-1.3a40 40 0 0 1 7-1" class="b"/><path d="M8.4 50.8c7-.2 14-1 20.9-1.4 7.5-.2 15.1 0 22.7-.3q8.3 0 16.5-1.2c3 .2 5.9.8 8.8.9q22.2 1.3 44.4-.2 3.1-.2 6.1.7c3.3 1.4 7 4.3 10.5 2 2.5-1.6 3.4-5 6-6.4 4.5 2.8 9.8 3.8 15 4.6q4.7 1.1 9.5 2.2c2.3.5 4.7-.6 7-1.1q3.8-1 7.8-1.1" class="b"/><path d="M8.4 48.4c7 0 14-.6 20.9-.7 7.8-.2 15.7 0 23.5-.2q8.4-.2 16.6-1.1l9.6.8q14.9.8 29.7.4 7.3-.5 14.8-.9 3.1-.1 6 1c2.3 1 4.5 2.8 7 2.6 1.6.2 3.1-.8 4.4-1.6 1.4-1.6 2.8-3.6 4.4-5 1.2 0 2.3 1.1 3.5 1.5q3.3 1.3 7 2.2c4.7.4 9.2 2 13.9 2.7 2 0 4.1-.8 6-1.3q4-.9 8-1" class="b"/><path d="M8.4 46.1q10.8 0 21.8-.3 11.8.1 23.5 0 8.2 0 16.6-1 4.8.5 9.6.7 15.2.8 30.5.3c5 0 9.9-.8 14.8-1q3.8-.1 7 1.8c1.7.7 3.3 2.1 5.2 2 1.9 0 3.7-1 5.2-2 1.5-1.4 2.7-3.4 4.4-4.7q3.2 2.4 7 3.2 3 1 6 1.3c3 .5 5.9 1.5 8.8 2 2.3.3 4.7-.9 7-1.3q3.8-.9 7.8-1" class="b"/><path d="M8.4 44q10.8.1 21.8 0 11.8.3 23.5.2 9.1-.1 18.3-1l9.6.6q15.3.8 30.5.3c5-.1 10-1 14.9-1.2a15 15 0 0 1 7.8 2.4c2 1.4 3.8 2.2 6.1 1l2.6-1.1c1.7-1.2 3-3.2 4.4-4.6 1.2 0 2.3 1.3 3.5 1.7l6 2.1c4.2.3 8.2 1.8 12.3 2.3 2-.1 4-.9 6-1.3a47 47 0 0 1 8-1" class="b"/><path d="M8.4 42.2h20.9q11.8.4 23.5.4 9.7 0 19.2-.9c3.5-.2 7 .2 10.5.3q15.7.8 31.4.4c5-.1 9.8-1.3 14.8-1.5 2.8 0 5.5 1.2 7.8 2.7 2 1.7 3.7 2 6.1.6 1.1-.6 2.6-1 3.5-2 1.2-1 2.2-2.7 3.5-3.6 2.1 2 5.1 3 7.9 4q2.2.5 4.3.8 4 1 7.9 1.6c2-.1 4-.9 6-1.2q4-.9 8-1" class="b"/><path d="M8.4 40.5h20.9q11.8.5 23.5.5 8 0 15.7-.6l7-.5 7 .3c11 .3 22.1 1 33.1.5 4.7-.2 9.3-1.4 14-1.7 2.7-.2 5.6.7 7.8 2.3 2.6 2.1 3.9 2.9 7 .9l2.6-1.5q1.9-2 3.5-4.2c1 .3 1.8 1.4 2.6 2q2.5 1.5 5.3 2.6c3.8.5 7.5 1.6 11.3 2 2 0 4.1-.7 6.1-1q3.9-.7 7.9-1" class="b"/><path d="m8.4 38.8 20.9.1q11.3.5 22.7.5 8.7 0 17.4-.6c4.6-.3 9.3-.8 14-.4 11 .4 22 1.3 33 .7 5-.1 10-1.6 15-2.1 10.7-.4 7.4 9.5 17.3 1.3 1.2-1.2 2-3.5 3.5-4.1q3 3.3 7 5.3c3.5.5 7 1.6 10.5 1.9 1.7.1 3.5-.5 5.2-.7a69 69 0 0 1 8.7-1.2" class="b"/><path d="M8.4 37.3q10.5-.1 20.9 0 10.5.5 21 .5t20.9-.7c4-.2 8.1-.8 12.2-.6 11.5.5 23.3 1.7 34.9 1 5-.2 9.8-2 14.8-2.5 7.8-.5 8 5.8 12.2 4.7 1.6-.5 3-1.8 4.3-2.9 1-1 2-2.8 2.7-4a3 3 0 0 1 1.7-.5c1.4.7 2.3 2.5 3.5 3.5q1.1 1.2 2.6 1.9l5.2 1.3q3 .6 6.1.7 6-1.1 12.3-1.7" class="b"/><path d="M8.4 35.7h20q10 .3 20 .5 17.6-.2 35-1.6 10.8.7 21.8 1.3 7 .5 14 .1 3.8-.3 7.8-1.3c2.5-.6 5.2-1.5 7.8-1.7 7.1-.6 7.3 5.1 11.3 5.1 3.6-.6 5.8-4 7-7.1 1-.6 2.4-.4 3.5-.4 2 2 3.2 5.2 6.1 5.9a38 38 0 0 0 8.7 1.4l12.2-1.5" class="b"/><path d="M8.4 34.2q10-.2 20 0t20 .4q18-.4 35.8-1.6c2.3-.2 4.7.2 7 .3l12.2.9c6.1.3 12.3.8 18.3.1q4.1-.4 7.9-1.6c2.2-.7 4.6-1.6 7-1.7 2.8-.4 5 1 7 2.9 1.1 1 2.5 2.7 4.3 2.5 3.3-.6 5.3-4.1 6.1-7l.9-.5h3.5c2 3.7 2.3 5.6 7 6.4q3.3.8 7 .9l11.3-1.4" class="b"/><path d="M8.4 32.6c13.3-.1 26.7.3 40 .4q18-.6 35.8-1.6c4.7-.4 9.3.4 14 .7q7 .6 14 .9c3.7.1 7.5.3 11.3-.3q3.5-.5 7-1.6c2.5-1 5-2 7.8-2.2 2.7-.1 5.1 1.6 7 3.3.7.7 1.7 1.7 2.6 2.2 1.5.5 3.3 0 4.4-1 .6-.6 1.3-2 1.7-2.6.2-.9 1-3.1 1.7-3.7h2.7l.8.5c1.9 4.1 3.5 5.3 7.9 6.1q3 .6 6 .7 5.3-.4 10.5-1.1" class="b"/><path d="M8.4 31c13.3 0 26.7.5 40 .3 12-.3 24-1.1 35.8-1.6 5.3-.5 10.5.4 15.7.9q7 .5 14 .9c3.7 0 7.6.3 11.3-.4q3.7-.6 7-2c2.2-.8 4.6-1.9 7-2 4-.1 6.9 2.4 9.6 5.1.6.6 1.8.7 2.6.7q1.6-.2 2.6-1.3c1-1 2.1-2.6 2.6-3.9l.9-1.8.9-.5h.8c2.5 3.9 3 5.3 7.9 6.4q3.8.8 7.8.9 4.5-.4 8.8-1" class="b"/><path d="M8.4 29.4c12.5 0 25 .6 37.5.3 12.8-.4 25.5-1.3 38.3-1.6q3.5-.3 7-.2a458 458 0 0 0 25.3 2q5.3.3 10.4-.4 3.7-.8 7-2.3c2.2-1 4.6-2 7-1.9 7 0 8.3 6 11.3 5.8 4 .4 6-3.9 7.9-6.6 2.5 4 4.2 4.7 8.7 5.6q3.5.7 7 .9 4-.2 7.8-.8" class="b"/><path d="M8.4 27.8c11.9.1 23.8.5 35.7.3 14.8-.7 29.6-1.7 44.5-1.8 5.2-.2 10.5 1 15.7 1.3q7 .6 14 .8c3.4 0 7 .1 10.4-.6 4.5-.9 8.4-4.1 13-4.2 10-.5 8 8.8 15.8 4.9 1.6-1 2.7-3 4.3-3.8 2.4 2.8 6.2 3.3 9.6 4l6.1.5q3-.1 6.1-.5" class="b"/><path d="M8.4 26.1c11.9.2 23.8.6 35.7.3 6.7-.1 13.4-1 20-1.2 10-.3 19.9-.8 29.7-.4a221 221 0 0 0 20 1.9c5 .2 10 .4 14.9-.3 4.6-.7 8.5-3.8 13-4.4 5.6-1 7.7 1 11.4 4.7 1.6 1.5 4.3 1 6.1 0q1.4-.7 2.6-1.8l.9-.6.9-.2c2.5 1.8 5.7 2 8.7 2.7q5.6 1.1 11.3.4" class="b"/><path d="M8.4 24.5c12.5.1 25 .6 37.5.2 5-.2 9.9-1 14.8-1.2q15.7-.8 31.4-.5c2.6 0 5.2.6 7.8.9q6.1.7 12.2 1c6.7.2 13.6 1 20-.8 3.6-1 6.9-3.2 10.5-3.8 5.6-1.4 8.4 1.3 12.3 4.8 1.6 1.3 4.3 1 6 0 5.6-3.4 3-1.8 8.8-.8 4.5.8 9.3 1.8 14 1.4" class="b"/><path d="M8.4 22.7c12.5.2 25 .7 37.5.2l7.8-.6q3-.5 6.1-.8 16.1-.5 32.3-.1 3.9.2 7.8.8 5.7.7 11.4 1c6.9.3 14 1 20.9-.5 3.3-.7 6.3-2.6 9.6-3.6 5.6-2.1 9.8-.2 14 3.8 1.3 1.3 3.3 1.5 5.2 1q1.7-.6 3.4-1.5l1.8-.8c.4 0 1.3.1 1.7.3q7.8 1.7 15.7 2.2" class="b"/><path d="M8.4 21q14 .4 27.9.4 11.8.2 23.5-1.8 7.6-.3 14.8-.2 8.8 0 17.5.3 3.9.2 7.8.8 5.3.7 10.5 1c7.2.3 14.6.9 21.8-.3 3.7-.6 7-2.6 10.4-3.8 6.1-2 10.2 0 14.9 4 1.4 1.2 3.5 1.3 5.2.7 2-.5 4-2 6-2 5 .7 10 1.9 15 2.2" class="b"/><path d="M8.4 19.2c16.8.2 33.8 1.5 50.5-1.4 2.9-.6 5.9-.4 8.8-.4l12.2.2q7 0 14 .5 7.3 1 14.7 1.6c7.9.4 15.8 1 23.6 0 3.6-.6 7-2.3 10.4-3.6q8.8-3.1 15.7 3a6 6 0 0 0 6.1 1.2c2-.6 4-1.8 6.1-2 4.4.3 8.7 1.8 13.1 2.1" class="b"/><path d="M8.4 17.4c16.8.2 33.8 1.4 50.5-1.4l3.5-.6q2.2-.1 4.4 0l10.5.3q7.8 0 15.7.6c4.6.5 9.2 1.3 13.9 1.5q11.3 1 22.7.5a40 40 0 0 0 13-3.4 16 16 0 0 1 17.5 2.8c1.7 1.2 4 1.5 6 .8l6.2-2.3c3.8 0 7.5 1.9 11.3 2.3" class="b"/></svg>