<svg xmlns="http://www.w3.org/2000/svg" id="a" width="1920" height="2400" viewBox="0 0 192 240"><defs><style>.b{fill:none;stroke:#fff;stroke-miterlimit:10;stroke-width:.3px}</style></defs><path d="M0 0h192v240H0z" style="stroke-width:0"/><path d="M10.2 209.8c5.4 1.6 9.2 6.5 14.5 8 2.5.9 5.2.7 7.7.7l5.1.5q7 .4 12.8 3.5c6 3.4 12.2 6.5 18.8 8.1q2.6.7 5.1 1.3 3 .3 6-.4c3.2-.8 6.2-2.4 9.4-3.2 4.2-1 8.6-1.3 12.8-2.2 4.3-.7 8.5-2 12.8-2.3 4.2-.3 8.6 0 12.8 0a39 39 0 0 1 12.8 1.2c4.3 1.2 8.4 3.3 12.8 4.5 3.4 1.2 7.1 1 10.2-.8 7.2-4 9.3-5.7 18-5.8" class="b"/><path d="M10.2 204.5c4.9 3 8.6 7.5 13.7 10.2q3.6 1.8 7.7 2.7l4.2 1.5c3.6 1 7.5 1 11.1 1.7 4 .8 7.4 3.4 11.1 5q6.1 2.8 12.8 3.7c6 1.8 11-1.5 16.2-3.7q3.4-1.4 6.9-1.6l6-1.3c4.4-1 9-2.3 13.6-2.2 2.8.1 5.7.6 8.5.7 3.1.3 6.3 0 9.4.2 4.2 0 8.2 1.3 12 3 5.4 2.6 11.7 6.2 17.9 3.8 8.6-4.1 9.4-7.5 20.5-8.5" class="b"/><path d="M10.2 200c3.8 3.3 7 7.3 11.1 10.2 3.1 2.3 6.8 3.7 10.3 5.4 2.2 1.2 4.3 2.9 6.8 3.3 3.4.7 6.9-.2 10.2.3 3.4.6 6.3 2.8 9.4 4a35 35 0 0 0 12 2.7c1.4 0 2.9.4 4.3.4 4.5-.3 8.5-2.7 12.8-4q3.2-1 6.8-1.4 3.5-.7 6.8-2c8.6-2.8 10.3-2 18.8-.6 4 .6 8-.4 12 0q6.3.4 11.9 3.4c2.7 1.4 5.5 3 8.5 3.8 2.7.8 5.8 1.3 8.5.4 3.8-1.2 7-4 10.3-6q5.2-3 11-4.3" class="b"/><path d="M10.2 196.3c4.2 4 7.6 9 12.8 12q3.8 2 7.7 3.7 2.6 1.7 5.1 3.4c5 2.8 10.3.2 15.4 2 1.7.5 3.4 1.5 5.1 2.2 3.8 1.6 8 1.8 12 1.6 2.2-.1 4.5.2 6.8 0 2.9-.2 5.7-1.1 8.5-1.8q5-1.3 10.3-1.9 3.9-1 7.6-2.6c7.9-3 9.6-1.5 17.1.1 4 .8 8-.6 12-.2q6 .6 12 3c3 1.3 6 3 9.3 3.8 3.3 1 7 1.6 10.2.2 3.5-1.5 6.4-4 9.4-6a45 45 0 0 1 10.3-5" class="b"/><path d="M10.2 194c2.3 1.7 4 4.2 6 6.2q2.7 2.8 6 4.8c3 1.8 6.4 2.8 9.4 4.5 2.2 1.3 4.2 3.3 6.8 4.1 3.3 1.3 6.8 1 10.2 1.2 3 .3 5.7 1.8 8.6 2.2 4 .5 8-.7 12-1.4 1.8-.4 4-.2 5.9-.3q6-.7 12-1.2l5.9-.5a25 25 0 0 0 5.1-1.7c3.3-1.4 6.7-3.1 10.3-3.3 2.3-.2 4.6.7 6.8 1.5q3 1.1 6 1.5 2.5.2 5-.1 3.5-.3 7 .5a52 52 0 0 1 8.4 2.1c3.4 1.1 6.7 2.8 10.3 3.4 3.6.8 7.6 1 11-.7 3.5-1.5 6.4-4 9.5-6a55 55 0 0 1 9.4-4.8" class="b"/><path d="M10.2 193.8c3.7 2.4 6.3 6.3 10.3 8.4 3.2 2 6.9 3.3 10.2 5 2.4 1.3 4.5 3.1 6.8 4.3 4.2 2.2 8.4 1.6 12.8 1.6 1.7 0 3.5.5 5.2.4 4.1-.1 8-2 12-3.2A81.9 81.9 0 0 1 82 209c3.9.1 8 .7 11.9-.2 3.8-1 7.3-3.4 11-4.6 7.2-2.6 11.3 3.4 18 4 2.5.1 5.1-.2 7.7.1q5.2.7 10.2 2.1c3.4 1 6.7 2.5 10.2 2.6a28 28 0 0 0 18.8-5.4q5.7-3.6 12-6" class="b"/><path d="M10.2 194.2c3.5 1.5 6 4.5 9.4 6q4.8 2.2 9.4 4.7 4.2 2.6 8.5 5c4.4 2.2 8.3 1.4 12.8.3l5.2-.7q4.3-1.2 8.5-2.9 5-1.8 10.2-2.2 4.7-.7 9.4-.7c8.7.5 10 .5 18-3.2 12-5.7 13 3.6 23 4.2 2.8 0 5.7-.3 8.5.2 4.1.5 8 2 12 3 4.8 1.7 9.8.1 14.5-1.3q6.6-2 12.8-5.2 4.6-2 9.4-3.9" class="b"/><path d="M10.2 193.8c2.2.4 4.1 1.6 6 2.6l6.8 2.8c4.8 2.2 9 5.4 13.7 7.5 6.8 3.6 10.7 0 17-1.8q4.3-1.4 8.6-2.4 4.6-.8 9.4-1.2c3.7-.5 7.4-1.9 11-2.4 3.4-.6 7-.5 10.3-.9q3-.6 6-1.6c8.7-3.2 11.2-3 18.8 2.4 2.2 1.5 5 2.5 7.6 2.3q3-.2 6-.5 3.5 0 6.8 1.2c10.5 3.5 10.2 3.6 20.5-.4 3.4-1.1 7-1.7 10.3-2.9 4.2-1.6 8.7-2.6 12.8-4.5" class="b"/><path d="M10.2 191.4c2.4.2 4.6 1.3 6.9 2a40 40 0 0 1 12.8 5q2.9 1.6 6 2.8c2.3 1.1 5 2 7.6 1.7 3.3-.5 6.3-2.4 9.4-3.5q4.5-1.6 9.4-1.7c3.4-.1 6.9.6 10.2 0 4.5-.9 8.4-3.4 12.8-4.4q3.9-1 7.7-1.2 3-.4 6-1.1c17.6-4.5 15.5 8.3 29 5.4q5.3-1.2 10.2.5c12.1 4.3 10 2.7 21.4-1q3.8-.7 7.7-1.3 7.5-1.5 14.5-4.3" class="b"/><path d="M10.2 188c2.3.1 4.6 1 6.9 1.2 2.5.2 5.2.1 7.6.7q4 1 7.7 2.9c2.6.8 5 2 7.7 2.7 6 1.4 11.2-3.2 17-3.3 4.4-.3 8.6 1 12.9 1.2 5.6 0 10-4.4 15.3-5.9 3.3-1.1 6.9-1 10.3-1.4 4.8-.6 9.8-1 14.5.6 4 1.4 7.5 4.9 12 5.1 2.8.1 5.6-1 8.5-1.5a24 24 0 0 1 11 2.1c8.6 3.4 10 .4 18-1 2.8-.6 5.7-.4 8.5-.8 4.7-.9 9.4-2.1 13.7-4.4" class="b"/><path d="M10.2 185.1q3 .5 6 .5c2.3-.2 4.6-1 6.8-1 3-.3 5.9.5 8.6 1.5q4.2 1.5 8.5 2.5c5.8 1.3 11.3-2.6 17-2 6 .6 12.4 3.4 18 .2 3-1.7 6-3.8 9.4-4.9 3.2-1.2 6.8-1.1 10.2-1.3 4.9-.2 9.9-.2 14.5 1.4 4.3 1.5 8.1 4.9 12.8 4.5 2.3-.3 4.6-1.2 6.9-1.8 3.3-.7 7 0 10.2 1 11.4 4.3 9 3.2 20.5 1.4 8-.6 15-.5 22.2-4.8" class="b"/><path d="M10.2 183.5c5.7 1.5 9.9-2.8 15.4-2.7 3.5 0 6.8 1.5 10.2 2.1q5.2 1.4 10.3.5c3-.5 6.2-1.4 9.4-1.1 5.7.7 11.3 2.5 17 .2 2.8-1 5.2-3 7.7-4.4 4.6-2.7 8.7-2.3 13.7-2.3 4.5-.3 9.2-.7 13.6.5 4.2 1 7.7 4 12 4.6 3.2.5 6.3-.9 9.4-1.5q5.3-.5 10.2.9 3.8 1.2 7.7 2.6c5 1.7 10.3-.2 15.4-.6l9.3-1q5.5-.2 10.3-2.8" class="b"/><path d="M10.2 182.8c5.8 1.5 9.7-4.7 16.3-4.1 2.3 0 4.5 1 6.8 1.4 3.3.6 6.8 1 10.2.4 3.1-.5 6.3-1.4 9.4-1.4 2.3-.1 4.6.5 6.8.8q5.8.8 11.1-1.4c4.9-1.7 8.6-6 13.7-7 3-.6 6.3.2 9.4 0 3.7-.3 7.4-1.2 11-1.1 5.8-.2 10 4.4 15.4 5.3 3.2.5 6.3-.5 9.4-.7 4.6.2 9.3 0 13.7 1.5q3.3 1.2 6.8 2c5.2.6 10.3-1.1 15.4-1.8a40 40 0 0 1 8.5-.6q4 0 7.7-1.4" class="b"/><path d="M10.2 182c5.8.7 9.3-6 16.3-5.2 2.2.1 4.5 1 6.8 1.4q4.6.7 9.4 0c3-.6 6.2-1.7 9.4-1.9 2.2-.2 4.6.3 6.8.6q5.7.8 11-1.5c5.6-1.8 9.5-7 15.4-7.9 3.1-.4 6.3.5 9.4 0 3.7-.5 7.4-2 11.1-2.1 8-.2 10.8 7 20.5 6.2q3.5-.1 6.8.1c2.9 0 5.8-.4 8.6 0 3.7.3 7.3 2 11 2.2 5.6 0 10.8-2.3 16.3-2.8 4.2-.3 8.6 1.1 12.8 0" class="b"/><path d="M10.2 180.6a14 14 0 0 0 6-2.6c5.2-3.6 8.6-3.8 14.5-2 3.6 1 7.5.5 11.1-.1 4-.8 7.9-2.2 12-2 6.8.6 10.4 1 17-1.8 5.7-2 10-7.2 16.2-7.6 2.9-.2 5.8.2 8.6-.5 4.2-1 8.3-3.2 12.8-3 2.8 0 5.3 1.7 7.6 3.1 2.4 1.5 5 3 7.7 3.6q4.6 1 9.4 1l6.9-.6q3.4 0 6.8.7c2.2.5 4.5 1.2 6.8 1 4.7-.2 9.1-2 13.7-2.8 4.8-1.1 9.6 1.2 14.5.4" class="b"/><path d="M10.2 178.9q3.2-1.5 6-3.6c4.6-3.2 8.5-3 13.7-1.5 2.8.8 5.7.2 8.5-.4 4.5-.9 9-2.5 13.7-2.5 8.5.4 11.4.2 19.6-2.8 3-1 5.7-2.7 8.5-4 4.2-2.4 9-2.9 13.7-3.3 5.7-.6 11.1-4.3 17-3.6 2.8.5 5.3 2.1 7.7 3.6a35 35 0 0 0 7.7 3.7q3 1 6 1c2.5 0 5.1-.5 7.6-.5 3.5-.2 7 .7 10.3 1.4 3.1.7 6.4-.1 9.4-1q4.3-1.2 8.5-2.2c4.5-.8 9.1 1.2 13.7.4" class="b"/><path d="M10.2 176.8c4.8-2.8 8.4-7.3 14.5-7 2.9.1 5.7 1 8.6.6 4.8-1.2 9.5-3.3 14.5-3.7 2.8-.3 5.7.1 8.5 0 4.1-.1 8-1.4 12-2.6q3.9-1 7.6-2.2c4.3-1.6 8.4-3.6 12.8-4.6 3.4-.9 6.9-1 10.3-1.5 4.5-.5 9-2.5 13.6-1.8 5.3 1.1 9.5 5 14.5 7 3.8 1.7 8 .8 12 .8 3.5-.1 6.9.8 10.2 1.6 3.4.8 7 0 10.3-.9l7.7-2c4.7-1 9.7.5 14.5-.6" class="b"/><path d="M10.2 174.5c7.6-4.9 8.8-8.2 18.8-8.2 4.6.1 8.5-2.6 12.8-3.9q3.4-1 6.8-1c2.9 0 5.8.5 8.6 0 4-.6 8-2.2 12-3.3q3.7-.8 7.6-1.7 4.3-1.3 8.5-2.8c8.2-3 9-2 17.1-1.6 4 .2 8-1.2 12-.6 5.5 1.1 9.9 5.2 15.3 6.6q3.4.4 6.8.2 4 0 7.7.9c2.8.6 5.7 1.7 8.6 1.7 4.6-.1 9-1.4 13.6-2.1 5-1.1 10.4-.2 15.4-1.9" class="b"/><path d="M10.2 171.9c2.6-1 4.7-3 6.9-4.6q3.8-3 8.5-4c2.8-.8 5.8-1 8.5-2 3.6-1.6 7.2-3.6 11.1-4.2 3.4-.7 6.9 0 10.3-.3 3.5-.4 6.9-1.7 10.2-2.8 3.6-1.4 7.4-1.8 11.1-2.7q4.8-1.4 9.4-3.2c7-2.7 8.5-1.7 15.3.2q3.4.8 6.9.8 2.5-.2 5.1-.2c6.1.4 11 5 17 5.8 3.2.2 6.4-.3 9.5 0 3.7.4 7.3 2 11 2.5 3.4.5 7 .2 10.3 0l9.4-.9c3.7 0 7.6-.2 11-1.5" class="b"/><path d="M10.2 169c2.6-.7 4.8-2.5 6.9-4q3.1-2.7 6.8-4.3c3-1.4 6.3-1.8 9.4-2.6 3.2-1 6.2-2.6 9.4-3.6 4.3-1.7 9-1.4 13.6-2 4.1-.6 8-2.2 12-3.6q3.4-1 6.8-2 4-1.3 7.7-3c7.6-3 10.1-4.1 18-.6q3.7 1.6 7.6 2.4c2.8.5 5.8.5 8.5 1.5 4.8 1.7 9.3 4.8 14.5 5 2.6 0 5.2-.4 7.7-.3 5.5 0 10.7 2.3 16.2 2.7a78 78 0 0 0 26.5-1.3" class="b"/><path d="M10.2 165.3c3.3-.5 6-3 8.6-4.9q3.7-3.2 8.5-4.4c2.5-.6 5.2-.7 7.7-1.4 4.3-1.1 8.5-3 12.8-4.2 3.3-1 6.8-1.3 10.2-1.9q4-.7 7.7-2.2 6.9-2.7 13.6-5.8c6.7-3.3 13.3-6 20.5-2.5 3.2 1.3 6.2 3 9.4 4.2q4.8 1.4 9.4 3.5c9.4 4.6 11.5 3.9 21.4 3.8 4.3 0 8.5 1 12.7 1.8 4.3 1 8.5 2.3 12.9 2.6q3 .1 6 0 5.3-.1 10.2-2.1" class="b"/><path d="M10.2 160.9c5-1 8.4-5.1 12.8-7.2 3.5-1.9 7.4-1.3 11.1-1.6 6-.5 11.5-3.6 17-5.5 4.2-1.4 8.8-1.3 12.9-2.8 7.7-2.8 14.3-8.1 22.2-10.1 4.7-1 9.9-1.2 14.5.5 3.6 1.3 6.8 3.6 10.2 5.4 3.2 1.4 6.2 3.3 9.4 4.6 6.5 2.8 13.7 2 20.5 2.5 4.3.3 8.7.7 12.8 2 4 1.2 7.8 3 12 3.5q3.3.3 6.8 0 4.8-.2 9.4-2" class="b"/><path d="M10.2 155.7c8.1-2 10.9-8.4 19.7-7q6 1 12-1c3.7-1.4 7.2-3.7 11-5 3-.9 6.3-.8 9.4-1.7 7.1-1.9 12.6-7.5 19.6-9.5 3-1 6.3-1 9.4-.8q3.9-.2 7.7.1c4.9.7 8.8 4 12.8 6.5a24 24 0 0 0 16.2 5c3.4-.3 6.9.2 10.2.6 5.2.7 10.5.9 15.4 2.7 4 1.4 7.8 3.5 12 4.2 2.2.5 4.5.3 6.8.2q4.8 0 9.4-1.2" class="b"/><path d="M10.2 150q3-.9 6-2.2c3.4-1.8 7-4 11-3.6 2.3.1 4.6.9 7 .8q4.8 0 9.3-2c3.2-1.3 6.2-3.2 9.4-4.4q3-.7 6-1c5.7-.5 10.6-3.6 15.3-6.6 6.5-3.7 11-3.4 18-2.5 3.7 0 7.6-.3 11 1.3 6.6 3 11.8 9.4 19.7 8.6 3.4-.2 6.8-1.5 10.2-1q8.7.9 17 3.3c4.8 1.4 9 4.5 13.7 5.8 2.8 1 5.7 1 8.6 1.2 3 .3 6.3.6 9.4 0" class="b"/><path d="m10.2 144.3 6-2c3-1.3 6-2.8 9.4-2.8 2.2-.1 4.6.4 6.8.5q3 0 6-.6 5.3-1.2 10.2-3.4c3-1.4 6.1-2.6 9.4-2.7q6.4-.5 12-3.4c2.7-1.5 5.4-3.4 8.5-4.2a29 29 0 0 1 12.8-.1c2.8.2 5.8 0 8.5.6 5.5 1 9.6 5 14.5 7.2 6.4 2.7 10.2.4 16.3-1 5.3-.7 10.5 1.2 15.3 3.2q3.5 1.3 6.9 3c2.8 1.4 5.5 3.2 8.5 4.4 3.5 1.4 7.4 1.8 11 2.2 3.2.5 6.3 1.2 9.5.9" class="b"/><path d="M10.2 139.1a142 142 0 0 1 13.7-3.7c2.8-.3 5.7.2 8.5 0l8.5-1.7a89 89 0 0 0 8.6-2.3c2-.6 4-1.5 6-1.9 3.6-.7 7.4-.6 11-1.7 3-.8 5.8-2.5 8.6-3.8q3.7-1.5 7.6-2 4.4-.3 8.6.2 3.4 0 6.8.5c9 1.7 16 10 25.6 8 4.5-1 8.9-3.5 13.7-2.5 3.7.7 7 3 10.2 4.8q2.5 1.4 5.1 3 3 2 6 3.7c3.9 2.2 8.5 2.5 12.8 3.1 3.4.6 6.8 1.5 10.2 1.3" class="b"/><path d="M10.2 135c3.4-.8 6.8-2 10.3-2.5 3.3-.5 6.8 0 10.2-.4 2.4-.2 4.6-1.3 6.8-1.8q5.1-1.2 10.3-1.9c3-.4 5.6-1.8 8.5-2.4 3.7-.7 7.5-.7 11.1-1.7 3-.7 5.7-2.5 8.5-3.6q4.6-1.5 9.4-2 2.6-.2 5.2-.2 3 0 6 .3c4.9 1 9 4 13.6 6 5.4 2 11.3 4.7 17 2.6 2.3-.7 4.6-1.9 6.9-2.4 5-1.4 9.7 1.9 13.6 4.8q3.2 2 6 4c2.4 1.9 4.9 4 7.7 5.1 3.2 1.2 6.8 1.4 10.2 1.8s6.9 1.2 10.3 1.1" class="b"/><path d="M10.2 132c2.6-.5 5.1-1.6 7.7-2 3.4-.4 6.9 0 10.3 0q2.6.1 5-.8 3-1.3 6-2c4.2-1 8.7-.8 12.8-2.3 4.9-2.3 10.3-2.3 15.4-3.8 3-.7 5.7-2.5 8.5-3.7q4.6-1.4 9.4-2.2c12.3-1.5 12.7.2 23 5.7 1.9 1 4.1 1.3 6 2 3 1.2 6.1 2.5 9.4 2.6 4 .2 7.5-2.1 11.1-3.3 5.2-1.9 9.7 1.5 13.7 4.5q2.7 1.8 5.1 4c2.4 2 4.8 4.5 7.7 6 3.1 1.6 6.8 1.8 10.2 2 3.4.3 6.9.9 10.3.7" class="b"/><path d="M10.2 129.4q2.7-.4 5.2-1.2t5-.6c4.3 0 8.7 1.5 12.9 0q4.1-1.7 8.5-2.6 3.9-.6 7.7-1.3c2-.4 4-1.4 6-2q3-1 6-1.8 5.3-1.4 10.2-4 5.1-3 11-3.5 4-.6 7.7-.7 4.6-.8 8.6 1c3.5 1.6 6.7 4 10.2 5.6 1.3.6 3 1 4.3 1.3 5.6 2 10.4 4 16.2 1.4 6.2-2.7 10-4.7 16.2-.5q3.6 2.3 6.8 5c3.1 2.8 5.8 6.4 9.4 8.4 3.1 1.8 6.8 2.1 10.3 2.4q4.6.7 9.4.7" class="b"/><path d="M10.2 127.6c3.5-.1 6.8-1.7 10.3-1.5 4.2-.1 8.5 1.4 12.8.6l10.2-3.3a121 121 0 0 0 26.5-10 32 32 0 0 1 11-4.3q4.4-.7 8.6-1c2.3-.2 4.6-.5 6.8.3 4.4 1.3 8 4.4 12 6.5q2.8 1.4 6 2 4.6 1.5 9.3 1c3.2-.4 6.4-1.6 9.4-2.6 2.5-.8 5.1-1.7 7.7-1.3 4.3.6 7.8 3.5 11.1 6 3.5 3.2 6.3 7 10.2 9.7q4.8 2.9 10.3 3.6 4.5 1 9.4 1.1" class="b"/><path d="M10.2 125.5c4.3.1 8.5-1.6 12.8-1.3 4.6 0 9.2 1.7 13.7.2 4-1.3 7.9-3.1 12-4.3 3.3-1 7-1.5 10.2-3.2 3.8-1.8 7.3-4.4 11-6.4a52 52 0 0 1 10.3-4c5-1.3 10.2-2.7 15.4-1.8 9.2 2.3 13.9 9.7 24.7 8.8 3-.1 5.8-1 8.5-1.7q2.2-.4 4.3-.8c2.8-.6 5.7-1.4 8.6-.9 7.4 1.5 12.2 8.3 17.9 12.8q4.3 3.4 9.4 5.6c4 1.9 8.3 3.1 12.8 2.6" class="b"/><path d="M10.2 122.9c5 0 9.7-1.9 14.5-1.7 3.2 0 6.3 1 9.4 1.2q2.6 0 5.2-.9c3.3-1.2 6.7-2.6 10.2-3.4 2.8-.7 5.9-.6 8.5-2 4.3-2 7.8-5.2 12-7.4 3.2-1.6 6.9-2.4 10.2-3.9a43 43 0 0 1 10.2-3c5.3-.5 10.6.9 15.4 3 5.3 2.3 9.4 4.3 15.4 3.6 2.5-.2 5.1-.9 7.6-1.1 1.7-.2 3.5.1 5.2-.1 4.3-.6 8.9-1 12.8 1.4 2.8 1.6 5 4 7.6 6q5.3 4 11.2 7.3c5.6 3.4 9 6.8 16.2 5" class="b"/><path d="m10.2 119.8 6-.8c3-.7 6.2-1.6 9.4-1.5 2.9 0 5.7 1 8.5 1.6q2.6.3 5.1-.2 5.5-1.5 11.1-2.6c2.6-.3 5.4-.1 7.7-1.4 5.6-2.6 10-7.7 16.2-8.9 5-1.5 9.5-4.4 14.5-5.8 2.2-.7 4.6-.5 6.9-.7 3.6-.3 7.4-.6 11 .2 3.8.8 7.3 2.8 11.2 3.2 4.5.8 9.2 0 13.6 1 4 .6 8-.8 12 .2 3.7.6 6.5 3.3 9.4 5.5 3.1 2.2 6.8 3.7 10.2 5.5 7.5 3.6 9.4 10.2 18.8 6.5" class="b"/><path d="M10.2 116.5q3-.8 6-1.1 3.8-1 7.7-1.4c3.8-.1 7.4 1.4 11 2.2 4.3.7 8.6-.4 12.9-.8q3.4-.3 6.8-.5 2.8-.5 5.1-2c3.5-1.8 6.7-4.6 10.3-6.3 2.7-1.3 5.8-1.7 8.5-3q5.8-2.9 12-4.6 2.1-.3 4.2-.7c3.7-1 7.3-2.5 11.1-2.8 3.9-.4 7.5 1.4 11.1 2.4q4.3 1.2 8.5 2.1 3 .5 6 1.1c2.8.5 5.7-.4 8.5-.8 5.8-.8 8.4 1.2 12.8 4.4q4.1 2.2 8.6 4 4 2.1 7.6 4.8c4 3.8 7.8 4.5 12.8 2.4" class="b"/><path d="M10.2 112.7q3-.7 6-.9c2.5-.3 5.1-.8 7.7-.6 3.8 0 7.4 1.5 11 2.5 4.5 1 9.2.5 13.7.4q3.4-.2 6.9-.5a22 22 0 0 0 6-2.3c2.8-1.5 5.5-3.5 8.5-5q2.4-1 5-1.9 3.4-1.3 7-2.8 4.1-1.5 8.4-2.7 3.5-.6 6.9-2c3.8-1.8 7.6-4 12-4 6.2.1 11.8 3.6 17.8 4.8 4.2.9 6.2 1 10.3-.7 9-3.7 10.3-1.2 17.9 3 4.3 2.2 8.7 4.1 12.8 6.5 4.4 3 8 5 13.7 3.8" class="b"/><path d="M10.2 109q3-.3 6-.2 4.2-.4 8.5-.1c3.8.2 7.5 1.6 11.1 2.5 4.8 1 9.7.8 14.5.5q3.4-.1 6.9-.7 3.6-.8 6.8-2.5c3-1.6 6-3.5 9.4-4.7 3-1.3 6.2-3 9.4-4 4.2-1.1 8.6-1.8 12.8-3.4 7.3-3 13-7.5 21.3-4.7 3.2.8 6.2 2.3 9.4 3 8.5 1.6 10.7-4.1 18-5.2 3-.4 6 1 8.4 2.7q3.4 2.2 6.9 4 2.5 1.5 5.1 2.6 2.6.8 5.1 1.8c3.8 1.9 7.7 3.9 12 4.4" class="b"/><path d="M10.2 105.6c2.6 0 5.2.5 7.7.4 5.4-.1 11-.4 16.2 1.3 5.6 1.5 11.4 1 17.1.4 7.1-.4 10.7-.7 17-4.3q3.4-1.7 6.9-3.3c3-1.4 6.1-2.9 9.4-3.4 7.7-1 15-3.8 22.2-6.6 3-1.1 6.2-1.8 9.4-1.2 6 1 11 4 17 .5 2.9-1.7 5.4-4 8.6-5.1 5.2-2 10.5 1.2 14.5 4.4a34 34 0 0 0 7.7 4.5c2.4.9 5.2.8 7.6 1.8 3.5 1.3 6.7 3.6 10.3 5" class="b"/><path d="M10.2 102c2.6.4 5.2 1 7.7 1 3.7 0 7.4-.8 11.1-.7 2.6 0 5.1 1 7.7 1.3q4.6.5 9.4-.1 3.8-.7 7.6-.8c3.8 0 7.6-.1 11.1-1.6 5.4-2.2 10.6-5.1 16.3-6.7 3.9-1 8-.6 12-2q5.5-1.2 11-3.2c3-1 6.1-2.7 9.4-3.2 4.6-.6 9.1 1.5 13.7.8 6-.9 9.5-6.9 15.3-8 3.2-.6 6.5.6 9.4 2 2.1 1.1 4 2.9 6 4.3 2.2 1.7 4.8 3.3 7.7 3.6 1.6.3 3.4.1 5 .5 4.1 1 7.5 3.8 11.2 5.5" class="b"/><path d="M10.2 97.9c3.1.5 6.3 1.3 9.4.8 6.2-.8 10-2.3 16.2-.4 5.1 1 10.3-.2 15.4-.6 4.3-.1 8.6.6 12.8-.6 2.3-.5 4.6-1.5 6.8-2.2q4.7-1.6 9.4-2.5c3.4-.6 6.9-.3 10.3-.9a66 66 0 0 0 11-3.2q4.8-2.1 9.4-4.5a17 17 0 0 1 9.4-1c2.6.3 5.2.9 7.7.1 5-1.3 8.1-6 12.8-7.6 3.4-1.3 7 0 10.3 1 2.5 1.1 4.6 3.2 6.8 4.7 2.3 1.6 4.9 3.1 7.7 3.5q2.6.2 5 .5c4 1 7.5 3 11.2 4.6" class="b"/><path d="M10.2 93.3c1.7.2 3.5.8 5.2 1q2.5.4 5 0c4-.6 8-2.2 12-1.9 7.4 1.9 14.8-.1 22.2.6q3.8.5 7.7.3 3.9-.4 7.7-1.1 6.7-.6 13.6-1 9 0 17.1-3.6c3.3-1.4 6.3-3.5 9.4-5.4q4.3-2.9 9.4-3 2.6.2 5.1.6c4.4.7 7.8-1.6 11.1-4.2 4.2-3.3 8.3-5.4 13.7-3.6 3.3.8 5.8 3.3 8.5 5.2q3 2.4 6.8 3.4 2.6.5 5.1.9 6 1.5 12 3.7" class="b"/><path d="M10.2 88.3c6 1.9 9.3 2.4 15.4.8q3-.8 6-1 2 0 4.2.3c4.3.2 8.6-.5 12.8-.3 3.7 0 7.4.8 11.1 1 3.7.3 7.4 0 11.1.2 3.4.3 6.8 1.2 10.3 1.3 4 .4 8-.3 11.9-1.2q7.5-1.3 13.7-5.6c3-2 6-4.6 9.3-6.2 7.5-3.6 11.5 2 18.8-3.8 4.5-3.3 9.5-7.6 15.4-5.4 4 1.5 7 4.9 11 6.5 2.2 1 4.6 1.3 7 1.7q6.8 1.7 13.6 3.9" class="b"/><path d="M10.2 83c9.3 3.8 12 3 21.4 1.4 1.6-.1 3.4.2 5 0 3.2-.3 6.3-1 9.5-1 4.3 0 8.5 1.2 12.8 1.4 4.5.3 9.3 0 13.6 1.5 9.6 3.8 11.4 3.6 21.4 1.8 7.5-.6 12.3-3.3 17.9-8.1 2.7-2.2 5.3-4.8 8.5-6 3-1.3 6.3-.4 9.4-.7 7-1 11.2-9.8 18.8-9.1 4.3.8 7.7 4.2 12 5.2 2.4.8 5.1.7 7.6 1.1 4.6 1.4 9.3 2.6 13.7 4.5" class="b"/><path d="M10.2 77.7c4.6 2 9.5 4 14.5 3.9q3.5-.2 6.9-.8c1.3-.2 2.9 0 4.2-.2 2.9-.5 5.7-1.4 8.6-1.7 3.4-.5 6.9.1 10.2.7q3.9.4 7.7.3 4.3-.1 8.5 1.1c5 2 9.7 5.9 15.4 5.5 3.4-.1 6.8-.8 10.2-.6 8.7.5 14.1-4.7 19.6-10.6 8.7-9 12-2.2 20.5-8.7 3.8-2.6 7.9-6.6 12.8-5.4 2.3.7 4.5 2 6.9 2.7 3.3 1.1 6.8.5 10.2 0 2-.2 4 .6 6 1.1q4.8 1.3 9.4 3.7" class="b"/><path d="M10.2 72.4q5 2 10.3 3.6 4.5 1.4 9.4.8c2-.3 4-.2 6-.6 2.8-.8 5.6-2.2 8.5-2.8q3-.6 6-.4 2.5.5 5 .8c3.4.3 6.9-.2 10.3 0 7.3-.1 12 6.7 18.8 8.2q4.2.9 8.5.8 2.6.4 5.1.7c7.6 1.2 13.5-4.4 18-9.8 2.9-3.4 6.4-6.7 11-7.5q2.7-.4 5.2-1.2c4.1-1.6 7.6-4.9 12-6.1 5.6-1.7 9.3 3.2 15.3 2 2.9-.3 5.6-2 8.5-2.4 1.4-.2 3 .3 4.3.5q5 1 9.4 3.3" class="b"/><path d="M10.2 67.3c2.9.5 5.9.8 8.6 2 4.9 2 10 3.6 15.3 2.6 3.7-.9 6.7-3.5 10.3-4.7q3.3-1.1 6.8-.6 2.6.6 5.1.9c3.7.2 7.4-.5 11.1 0 6.2 1 10 6.6 15.4 9.4 3.1 1.7 6.7 2.4 10.2 3.2q3 1 6 1.6c7.7 1.5 13.5-5.2 17.9-10.6 3-3.6 6.5-7 11-8.4q3.1-.8 6-2c4.3-2 8.8-5 13.7-4.3 2 .4 4 1.3 6 1.8q4 1.1 7.7-.5c2.5-1 4.9-3 7.6-3.5 4.4-.2 8.9 1 12.8 2.7" class="b"/><path d="m10.2 62.7 5.2-.5c4.8.2 8.9 3.5 13.6 4.2 5 1 8-1.7 12-4.2 3-2 6.7-2.8 10.2-1.9q2.5.8 5.1 1.2c4 .4 8.1-.2 12 1 5.4 1.6 9 6.5 13.6 9.5q4.8 3 10.3 4.9c2.5 1 5 2.4 7.6 2.8 3.8.7 7.4-1.1 10.3-3.4 4-3 6.7-7.2 10.2-10.6q3-3 6.9-4.7c2.5-1 5.2-1.7 7.6-3 4.2-2.1 8.9-4.6 13.7-3.5q3 .8 6 1.6c2.5.6 5.3.1 7.6-1.2 2.3-1.2 4.4-2.8 6.9-3.7 4.2-1 8.7.2 12.8 1.5" class="b"/><path d="m10.2 58.4 5.2-1.7c4.7-1 9 2 13.6 2.7 4.8 1 8-2.2 12-4.4 5.3-3 9.3-.3 14.5 1.2 4.2 1 8.7.7 12.8 2.3Q72 60.2 75 63q3.3 2.8 6.8 5.2c3 1.8 6.3 3 9.4 4.6 3 1.5 6 3.7 9.4 4.2 7.3.8 14-7.5 18.8-12 3-3 7-4.7 11-6 5.6-2 10.2-6.6 16.3-6.8 2.6 0 5.2.9 7.7 1.4q4.6 1 8.5-1.4 3-1.8 6-3.5c4.1-1.5 8.7-.3 12.8.7" class="b"/><path d="M10.2 53.7c2.7-.8 5-2.6 7.7-3 5.4-1 11 2.2 16.2.1 9-4.6 9.7-5.2 18.8 0 3.7 1.8 8 2 12 3.1q3 .9 6 2.6 3 2.3 5.9 4.6 4.6 3.5 10.2 5 3.7 1.3 6.9 3.4c3 2 6.5 4 10.2 3.3 6.8-1.6 11.3-7.4 17-10.9 3.5-2 7.6-2.4 11.2-4 3.8-2 7.1-5 11-6.7 3-1.5 6.4-1.4 9.5-.6 10.2 2.5 11.8-4.7 19.6-6.1 3.1-.4 6.3.4 9.4 1" class="b"/><path d="M10.2 48.6c2.2-.6 4-1.9 6-2.9 4-2 8.5-1.8 12.8-2q2.6-.2 5.1-1c2.5-1 5-2.3 7.7-2.5 3.6-.1 6.6 2.3 9.4 4.2q3.5 2.5 7.7 3.9c3.7 1.3 7.6 2.4 11 4.4 3.3 1.9 6 4.7 9.4 6.2 3.2 1.6 7 1.8 10.3 3 3.6 1.2 6.6 3.8 10.2 5.1 6.1 2.5 12-1.7 17.1-4.6q3.6-2.2 7.7-3 3.4-.7 6.8-1.8c5-2.2 8.7-6.5 13.7-8.8 2.6-1.3 5.7-1.2 8.5-1 9.4 1 11.6-5.4 18.8-7.5 3-.7 6.3 0 9.4.7" class="b"/><path d="M10.2 43.4c2.8-.9 5-3 7.7-4 4-2 8.5-2.5 12.8-3.2 5.4-.8 10-4.4 15.4-1.4q3 1.8 6 4.2 4.1 3 8.5 5.6c4 2.7 8.7 4.5 12.8 7.3Q78 55 83.6 56.3q3.5.4 6.8 1c5.2 1.5 10 4.6 15.4 5 4.1.4 8-1.5 12-2.5 4.2-1.1 8.6-1.5 12.8-2.9 6.3-2.4 10.7-8.2 17-10.8 3.5-1.4 7.5-1 11.1-1.9 9.3-2.2 12-10.7 23-7.8" class="b"/><path d="M10.2 38q3-1.6 6-3.6c4.6-2.8 10.1-3.5 15.4-4.2 4.5-.7 9.1-3.2 13.6-1.2 2.5 1 4.7 2.8 6.8 4.5 4.3 3 7.8 7 12 10q4 2.6 8.5 4.4c3.1 1.5 6.2 3.2 9.4 4.3 5 1.5 10.3 1.5 15.4 2.4 4.3.7 8.4 2.6 12.8 3.2q5.6 0 11-.6 5.8-.9 11.2-3.2c4.2-1.9 8-4.7 12-7.1a35 35 0 0 1 7.6-3.8c2.5-.7 5.2-1 7.7-1.7a24 24 0 0 0 7.7-3.5c4.3-3.1 8.7-7 14.5-5.8" class="b"/><path d="M10.2 33c2.7-2 5.4-4.3 8.6-5.5 4.6-1.8 9.6-1.2 14.5-1.8 6-1.2 9.7-2.4 15.3 1.3q4.2 2.8 7.7 6.2c3.4 3.5 6.6 7.4 11.1 9.4 2.4 1.1 5.3 1.3 7.7 2.5 3.4 1.6 6.6 3.9 10.2 5q3.4 1 6.8.7 3-.4 6-.7c4-.3 7.6 1.6 11.1 3q3.7 1 7.7 1.5c5.8.7 11-2.6 16.2-4.4q9.3-3.1 18-8c3.1-1.6 6.8-2.2 10.2-3.2 8.6-1.9 12.3-11.1 20.4-10.8" class="b"/><path d="M10.2 29c8.2-8.1 11.7-6.7 22.2-6.4 5.8-.5 9-1.5 14.5 1.5q4.6 3 8.6 6.7c2.9 3 5.6 6.3 9.4 8.2a14 14 0 0 0 4.2 1.3c2 .2 4.2.2 6 1.1 4.8 2.2 9 6.5 14.5 6.6 4.4 0 8.3-3.2 12.8-2.2 3.3.5 6.2 2.7 9.4 3.6 8 2.6 10.6 1.2 18-2 4.8-2 10.3-1.4 15.3-3.2 2.7-.9 5.1-2.4 7.6-3.6q4.6-1.7 9.4-3.2c8.3-2.2 12-11.4 19.7-12.2" class="b"/><path d="M10.2 25.5c4-4.5 8.3-7.5 14.5-6.4 2.6.4 5.2 1.2 7.7 1.4 6.3.1 9 0 14.5 3.4 3 2.1 5.8 4.8 8.6 7.2s5.6 5.2 9.4 6c2.5.6 5.1-.1 7.6 0 6.4 1.2 11 8 18 7.2 4-.7 7.7-3.4 11.9-2.6 3.6.6 6.7 3 10.2 4 7.6 2.5 10.4 0 17.1-2.6 3.3-1.2 6.9-.8 10.3-.9a28 28 0 0 0 9.3-1.4c5.5-2.7 11.8-3.7 17.1-6.9 5.4-3.1 9.1-9.2 15.4-10.8" class="b"/><path d="M10.2 22.4c6.5-8 11.8-7.5 20.5-3.7 3.5 1.5 7.6 1.2 11.1 2.5q4.8 1.7 8.5 5c3.7 3.2 7 7.5 12 8.6 3.1.6 6.3-.8 9.4-1 2.4 0 4.7 1.4 6.8 2.6 3.4 2 7 4.4 11 4 5-.6 8.4-3.6 13.7-2q3.5 1.4 6.9 3c3 1.2 6.2 2 9.4 1.5s6.2-2.4 9.4-3.5c4-1.5 8.5-1.2 12.8-1q3.3.4 6.8.1 3-.6 6-1.5a51 51 0 0 0 11.9-4.7c5.4-3 9.6-8 15.4-10.4" class="b"/><path d="M10.2 20c3.3-3.9 8.4-7 13.7-5.8 3.3.7 6.3 2.6 9.4 3.8 4.8 1.6 10 1.8 14.5 4.2 3.2 1.9 5.7 5 8.5 7.3C61 33.4 64.6 32.7 70 31c1.7-.5 3.5 0 5.1.6 4.2 1.8 8.1 4.8 12.8 5 3.2 0 6.2-1.6 9.4-2 4.2-.7 8.2 1.3 12 3q2.8 1.2 6 1.6c4.5 1 7.9-.7 11.9-2.5 2.7-1.2 5.6-1.5 8.5-2 4.6-.6 9.1.4 13.7.8 8.4-.1 16-4.3 23-8.4 3-1.9 6-4 9.4-5.5" class="b"/><path d="M10.2 18.6c4-3.8 9.7-7 15.4-5.8 3.6.7 6.7 3 10.2 4 5.2 1.1 11.2.5 15.4 4.2 2.3 1.9 4.4 4.3 6.8 6 3.8 3 7.5 2.7 12 1.8q2.7-.4 5 .8c4.2 1.6 8.3 4 12.9 3.8 2.9-.1 5.7-1.2 8.5-1.7 4.4-.8 8.8.8 12.8 2.4a53 53 0 0 0 7.7 1.7q2.6.4 5.1-.1 3-.8 6-1.9 2.5-.7 5.1-1.2 3.4-.9 6.8-1.2c4.7-.4 9 2 13.7 1.6 5.2-.3 10-2.9 14.5-5.1q6.8-3 13.7-5.8" class="b"/><path d="M10.2 17.5q3.2-2.3 6.9-3.9c2.9-1.4 6-2.7 9.4-2.4 3.6.2 6.7 2.4 10.2 3s6.9.5 10.2 1.2c5 1.3 8 6 12 9a13 13 0 0 0 8.5 2.8c1.7 0 3.5-.3 5.1 0 4.6 1.1 8.9 3.8 13.7 4 4 .1 8-1.6 12-2.3s8 .4 11.9 1.4c3.7.5 7.3 2 11 2 3-.2 5.8-1.2 8.6-1.7 3.2-.5 6.2-1.7 9.4-2 3.5-.4 7 .8 10.3 2 6.2 2 12.4-1.3 17.9-4 4.6-2 9.6-2.9 14.5-4.1" class="b"/><path d="M10.2 16q3-1.4 6-2.4l5.1-2.4c5.7-2.5 9-1.8 14.5 0 3.7.8 7.5.7 11.1 1.4 5.6 1 9.2 5.7 13.7 8.6q3.1 2.2 6.8 3 3 .3 6 1c4.7 1.5 9.4 4.1 14.5 3.6 4.7-.4 9-2.5 13.7-2.9 4-.2 8 .7 12 1.2 3 .6 6.1 1.7 9.3 1.5l9.4-1.5c3.9-1 8-1.8 12-.8 3 .7 6 2.2 9.3 2.2 5.2 0 9.8-2.6 14.5-4.3 4.4-1.3 9.1-1.6 13.7-2" class="b"/><path d="M10.2 13.9c2.6-.7 5.3-.9 7.7-1.9 4.2-1.6 8.2-4 12.8-4 3.2.2 6.2 1.6 9.4 1.9 3.7.6 7.5.4 11 1.3 5.7 1.8 10.2 5.9 15.4 8.4 3.3 1.7 7 2.5 10.3 4.2C82 26.4 86.3 27 92 25.6c3.1-.6 6.3-1.7 9.4-1.9 3.1-.3 6.3.2 9.4.3 4-.2 8 1.5 12 1.2 5.7-.4 11.3-2.2 17-2.2 4.7-.2 9 2 13.7 1.7 5-.2 9.7-2 14.5-3 4.5-.8 9.1-.7 13.7-.7" class="b"/></svg>