<svg xmlns="http://www.w3.org/2000/svg" id="a" width="1920" height="2400" viewBox="0 0 192 240"><defs><style>.b{fill:none;stroke:#fff;stroke-miterlimit:10;stroke-width:.3px}</style></defs><path d="M0 0h192v240H0z" style="stroke-width:0"/><path d="M7.7 227c3.7 1 7.6.6 11.4.5 4.7-.2 9.5-.5 14-2q3-1 5.3-3.2c2.2-2.2 2.2-2.3 5.3-2.2h10.5c3.5.7 7 1.8 10.6 2q5.3.4 10.5-.2 4.9-.9 9.7-1c4-.2 4.5-.2 7 3 6.1 8.2 5.6.9 11.5-1a17 17 0 0 1 12.3 3.2c.7.5 1.7 1.3 2.6 1.2 5.8-4.2 7.7-2.5 14-2 5 .3 10.1-.1 15 .8q3.5.7 7 1.1a98 98 0 0 1 20.3 0l9.7-.8" class="b"/><path d="M7.7 224.1c4.7 2.5 19.3 1 24.6-.6a17 17 0 0 0 6.1-3.3c2.2-2 2.4-1.9 5.3-1.8H55c3 .3 5.9 1.2 8.8 1.5q4.8.5 9.7 0c4.3-.6 8.8-1.6 13.2-1.4 2.2.6 3.8 2.6 5.2 4.2 7 8.8 5.4-3.3 15-1.5 2 .2 4.3.8 6.1 1.8 1.5.8 3 2 4.4 2.6 1.3-.2 2.4-1.2 3.6-1.8 3.2-1.7 7-.5 10.5-.3 5.3.5 10.6 0 15.8.8q4 .7 8 1.2 4.3-.3 8.7-.4 4.8 0 9.7.3 5.3-.3 10.5-.7" class="b"/><path d="M7.7 221.1c5.1 3.3 18.7 2 24.6.2q2.8-.8 5.2-2.5c2-1.4 2.7-2.5 5.3-2.2h14q5.8 1.1 11.5 1.3c5 0 10-1.6 15-1.3 3.4-.3 5.7 1.2 7.9 3.8 8 9.8 5.3-2.8 15.8-.8q3.3.5 6.1 2c1.5.7 3 1.8 4.4 2.4 6-3.7 7.4-2.8 14.1-2.2 5 .4 10 0 15 .6q4.8.7 9.6 1.3 4-.2 8-.2 4.7 0 9.6.2 5.2-.4 10.6-.6" class="b"/><path d="M7.7 218.2c5 4 17.6 2.7 23.7 1.2q3.3-.9 6.1-2.7c2-1.4 2.7-2 5.3-1.8h15c3.2.1 6.4.7 9.6.6q4.5-.2 8.8-.6c3.2 0 6.5-.3 9.7.2 3.4.9 5.3 4.4 7.9 6.6 4.3 3 4.4-4.7 11.4-3.9q3.7.3 7 1.7c1.8.8 3.4 2.3 5.3 2.6 5.5-3.3 8-2.6 14.1-2 4.7.3 9.4 0 14 .5 4.7.3 9.4 1.4 14.1 1.3q6.2 0 12.3 0l12.4-.5" class="b"/><path d="M7.7 215.5c5.1 4.3 17.5 3.3 23.7 1.7q2.8-.7 5.3-2.1 1.6-1 3.5-2h5.2q10.5 0 21.2.2 8.8-.2 17.5-.2c6.3-.4 9 10.7 13.2 6.7 1.6-1.8 3.6-3.7 6.2-3.7q6.1 0 11.4 3.3c1.1.7 2.3 1.3 3.5.4 4.4-2.8 9.2-1.8 14-1.4 4.2.2 8.3 0 12.4.3 4.7.3 9.4 1.1 14 1.4 8.6.4 17-.2 25.6-.4" class="b"/><path d="M7.7 213c5.6 4.5 17 3.6 23.7 2q3.7-1 7-3c1.3-.9 3-.6 4.4-.7h41.3c4-.2 6.3 3.9 8.8 6.4 3.5 3.5 4.9-1.5 8-2.7 2.1-1 4.7-.4 7 0 3.1.5 5.9 2.4 8.8 3.6 1.5-.2 2.9-1.3 4.4-1.7a18 18 0 0 1 7-.6c5.2.5 10.6.4 15.8.6 6.2.3 12.3 1.3 18.5 1.4 7.3.2 14.6-.3 22-.3" class="b"/><path d="M7.7 210.6c6 4.6 15.7 3.9 22.8 2.4 2.8-.6 5.4-2 8-3.2 1.3-.4 3-.1 4.3-.2h41.3c3.7-.5 6 3 8 5.5 5.6 6.5 4.5-4.1 14-2 3.9.3 7 2.4 10.6 3.8 1.4-.4 3-1.3 4.4-1.7q3-.9 6.1-.7 8 .6 15.8.6c6.5.2 13 1.1 19.4 1.4 7.3.2 14.6-.3 22-.2" class="b"/><path d="M7.7 208.3c6.6 4.5 15.3 4.1 22.8 2.4 2.7-.6 5.2-2.1 8-2.8H84c3.8-.5 5.1 1.6 7 4.3 6 8.1 5.7-1.6 13.3-.8q3.1.2 6.1 1.2c2 .8 4 2 6.2 2.5a24 24 0 0 1 9.6-2.3q8 .5 15.9.5c6.7.1 13.4 1 20.2 1.3 7.3.2 14.6-.1 22 0" class="b"/><path d="M7.7 206.2c2 .8 4 2 6.1 2.6q8.4 1.8 16.7-.4c2.4-.6 4.7-1.8 7-2.3h45.7c3.5-.5 5.7 2.8 8 4.9 7.5 7.8 4.3-4.9 20.2.5 1.7.6 3.5 1.5 5.2 1.8 3.1-1.1 6.4-2.3 9.7-2.2 5.3 0 10.6.5 15.8.5 7 0 14.1.8 21.1 1.1 7 .2 14.1 0 21.1.3" class="b"/><path d="M7.7 204.3c1.2 0 2.4.7 3.5 1.2q1.7.7 3.5 1.1a36 36 0 0 0 20.2-2c2.5-.6 5.3-.2 8-.3h39.5c2 .2 3.7 1.4 5.2 2.5 2.4 1.6 4.4 3.9 7 5 1.7.4 3.1-1 4.5-1.6q2.8-1.5 6.1-1.3 2.7.3 5.3.8c2 .5 4 1.5 6.2 1.8 7-2.6 10.3-2.3 17.5-1.9l14.1.4 15 .8c7 .3 14 .2 21 .5" class="b"/><path d="M7.7 202.6c2.7-.2 5.2 1.5 7.9 1.9 6.2 1.4 12.5-.1 18.4-1.8 9.7-.4 19.4 0 29-.1h17.6q2.3.6 4.4 1.7 3.2 1.6 6.2 3.6 2 1.6 4.4 2.2c2-.4 4-1.8 6.1-2.2 4.4-1 9 .3 13.2 1.5 2 .8 4.1-.6 6.2-1q4.3-1 8.7-.7c7.6.4 15.3.3 22.9.7q15.8.8 31.7 1.2" class="b"/><path d="m7.7 200.8 3.5.1q3 1 6.1 1.5 4.6.5 8.8-.2c2.3-.4 4.7-1.2 7-1.4h37c2.9.1 5.9-.2 8.8.2q2.6.8 5.2 1.8 4 1.7 8 4c3 1.6 3.7 2 7 .5 3.6-1.4 7.6-1.2 11.4-.6l3.5.8c1.1.2 2.4.7 3.5.2q4.3-1.4 8.8-1.7c5-.2 10 .3 15 .3 10.8 0 21.6.9 32.5 1.2 3.5.1 7 .6 10.5.3" class="b"/><path d="m7.7 199 5.2.1q3.5.9 7 1c3.9.3 7.7-1 11.5-1h44c1.7 0 3.5.8 5.2 1.3q3.6 1.2 7 2.5c3 1.1 5.7 3 8.8 3.6 3.2-.7 6.4-1.9 9.7-1.7q3.1.2 6.2.7c1.4.2 3 .7 4.4.7q3.9-1 7.9-1.7 4.4-.3 8.8-.2c9 .3 18.1.2 27.2.8l14 .7c3.3.2 6.5.5 9.7 0" class="b"/><path d="M7.7 197.3h7q3.5.4 7 .4 2.6-.1 5.3-.4h47.4q2.7.6 5.3 1.5l7 2.2c3 1 5.9 2.5 8.8 3.4 2.4.7 4.7-.6 7-.8 3-.4 6 0 8.9.2l4.4.6c2.3 0 4.7-1 7-1.3q6-.8 12.3-.5 14.1.1 28.1.8l11.5.7 4.4.3q2.6-.1 5.2-.4" class="b"/><path d="M7.7 195.5c14.9.1 29.9-.1 44.8.2 7-.1 14-.4 21 0 2.4.4 4.8 1.4 7.1 2q5.4 1.4 10.6 3.2c2.2.9 4.6 2 7 2l4.4-.8c3.5-.4 7 0 10.6.3l2.6.3 3.5-.6q4-.9 8-1.1c8.4-.3 17 .1 25.4.1q8.9.1 17.6.9l7.9.6q3.1-.1 6.2-.5" class="b"/><path d="M7.7 193.8q22.8-.2 45.7.2 9.7-.4 19.3-.2c2.4.6 4.7 1.6 7 2.1q6.3 1.4 12.3 3.4 3.5 1.6 7 1.8l4.5-.6c3.5-.3 7 .3 10.5.4 2 .2 4.2-.4 6.2-.7q4-.7 7.9-1 7-.1 14 0 9.3-.1 18.5.4 8 .4 15.8 1.2c2.6.2 5.3-.5 8-.7" class="b"/><path d="M7.7 192h34.2c4.1.1 8.3.6 12.4.4q5.6-.5 11.4-.4 3.5-.2 7 .2 3.5 1 7 2 6.8 1.4 13.2 3.5 3.5 1.4 7 1.6c1.8 0 3.6-.4 5.3-.4 3.2-.2 6.5.6 9.7.3 5.6-.6 11.1-1.8 16.7-1.8q15-.1 29.9.4 7.5.3 15 1.3 3.9-.3 7.8-1" class="b"/><path d="M7.7 190.2h32.5c4.4.2 8.8.9 13.2.6 3.8-.1 7.6-.7 11.4-.6 2.6.1 5.3-.2 8 .2q3.8 1.2 7.8 2.3c4.4 1 9 1.8 13.2 3.3q3.8 1.4 8 1.6l4.3-.3c3.2 0 6.5.5 9.7 0q5.7-.8 11.4-1.3t11.4-.3q11.5 0 23 .3c4.9.1 9.9 1 14.9 1.4l7.9-1.1" class="b"/><path d="M7.7 188.5h30.7c4.7.2 9.4 1 14 .8 3.3 0 6.6-.6 9.8-.8h10.5c2.7.6 5.3 1.7 8 2.2q7 1.3 14 3.6 6 1.8 12.3 1.4 4.5 0 8.8-.3 11.8-1.6 23.7-1.5 10.6 0 21.1.2 7.5.5 15 1.5 4.4-.4 8.8-1.2" class="b"/><path d="M7.7 186.7h29.8c4.4.5 8.8 1.2 13.2 1q5.8-.1 11.5-1h9.6c3 0 5.9 1.5 8.8 2q6.8 1.3 13.2 3.2c6.8 2.4 14 2.3 21.1 1.7q10.1-1.2 20.2-1.3 12.3-.2 24.7 0c5.2.2 10.5 1.1 15.8 1.5l8.8-1.1" class="b"/><path d="M7.7 185h27.2c5 .3 10 1.4 15 1.2q6-.2 12.3-1.1c3.4-.3 7 0 10.5-.1q2.7 0 5.3 1l7 1.5 8 2q3.3 1 7 2 7 1 14 .3c5.6-.4 11.1-1.2 16.7-1.2q14.1-.3 28.1 0c5.6 0 11.2 1.1 16.7 1.5l8.8-1" class="b"/><path d="M7.7 183.2H33c5.3.6 10.6 1.5 15.9 1.4q4.4 0 8.8-.7 3.5-.5 7-.7h10.5q2.7.4 5.3 1.1c4.7 1 9.5 1.8 14 3.4q9.1 3.3 18.5 2.4c5.6-.4 11.2-1.2 16.7-1.3q14.6-.4 29 0c5.6.2 11.2 1 16.7 1.5l8.8-1" class="b"/><path d="M7.7 182.2c1.8-1 4-.7 6.1-.8h8.8l8.8.1c5.2.7 10.5 1.5 15.8 1.4 5.3.1 10.6-.7 15.8-1.4h8.8q3.6-.2 7 .2 7.1 1 14.1 3 4.4 1.6 8.8 2.8 5.2 1.2 10.5 1 8-.8 15.9-1.3 15-.5 29.9-.2c5.8.2 11.7 1.1 17.5 1.6q4.6-.3 8.8-1" class="b"/><path d="M7.7 181.8c4.1-2.4 8.5-2.1 13.1-2.1h8c5 .6 9.9 1.5 14.9 1.5 6.5.3 13-.6 19.3-1.4q6.7-.1 13.2-.1 9.1-.1 17.6 2.5c2.7.9 5.3 2.2 8 3q5.1 1.6 10.5 1.4c5.2-.2 10.5-1 15.8-1.2q14.5-.4 29-.2 9.3.7 18.5 1.6 4.4-.2 8.8-.8" class="b"/><path d="M7.7 181.4c5.3-3 11.5-3.4 17.5-3.4l9.7 1.1q7 .7 14 .3 6.7-.5 13.3-1.4 7-.1 14 0 5.8-.2 11.5 0c12.3.9 11.8 7.1 25.4 6.8 5 0 10-.8 15-1q14.1-.6 28.1-.4c6.5.3 13 1.2 19.4 1.7l8.8-.8" class="b"/><path d="M7.7 180.7c5.6-3 12.1-3.8 18.4-4l8.8.9q7 .5 14 0c4.5-.3 8.9-1.1 13.3-1.4h19.3q5.2-.2 10.6.1c3 .7 5.8 2.7 8.7 4q6.3 2.9 13.2 2.7c5 0 10-.7 15-.9a527 527 0 0 1 26.3-.4c6.8.3 13.5 1.4 20.3 1.6l8.8-.8" class="b"/><path d="M7.7 179.8c6-3 12.7-3.9 19.3-4.3q7.5.6 15 .5c6.1 0 12.3-1 18.4-1.6h23.7c3.6 0 7.3-.4 10.6 1 6.8 3 13.5 6.2 21 5.8 4.8 0 9.5-.6 14.2-.7q12.2-.6 24.6-.4c6.4.2 12.9 1.1 19.3 1.5l10.6-.9" class="b"/><path d="M7.7 178.7c6.2-3.1 13.3-4 20.2-4.5q6.5.2 13.2 0c5.5-.2 11.1-1.1 16.7-1.5h29q2.2-.1 4.4.1c3 .6 5.9 1.9 8.8 2.8a49 49 0 0 0 17.5 3.8q7-.2 14.1-.5 11-.4 22-.3c6.1.1 12.3 1 18.5 1.3q6-.4 12.3-1" class="b"/><path d="M7.7 177.4q3.4-1.5 7-2.6 6-1.4 12.3-2c4-.4 8.2-.1 12.3-.5q7.5-.6 15-1.4h35.1c3.3.2 6.5 1.5 9.7 2.4 6.6 2 13.3 4.3 20.2 4.3q7 0 14-.3 9.8-.3 19.4-.2c5.9.1 11.8.8 17.6 1l14-1" class="b"/><path d="M7.7 176c3.4-1.2 6.8-2.7 10.5-3.3a145 145 0 0 1 18.5-2.1q6.6-.6 13.2-1.4 5.2-.2 10.5 0 15-.1 29.9 0c3 .4 5.9 1.5 8.8 2.2l12.3 3A62 62 0 0 0 128 176q8.7-.2 17.6-.2 10.5-.1 21 .7 9-.5 17.7-1.2" class="b"/><path d="M7.7 174.6c2.6-.8 5.2-2.1 7.9-2.7 5.4-1.4 11.1-2 16.7-2.8 4.7-.4 9.3-1.3 14-1.7h44c3.2.4 6.4 1.5 9.7 2.2q5.6 1.4 11.4 2.6 4.8 1 9.7 1.8c7.8.5 15.8.2 23.7.3 6.1-.1 12.3.3 18.5.4l21-1.3" class="b"/><path d="M7.7 173c3.5-1 6.9-2.7 10.5-3.3l19.3-3.3c4-.8 8.2-.8 12.4-.8h15.8q12.8 0 25.5.1c3 .4 5.8 1.4 8.8 2q4.7.8 9.6 1.8 7 1.6 14 2.7c6.5.6 13 .5 19.4.6l15 .2q13.2-.8 26.4-1.6" class="b"/><path d="M7.7 171.2c1.5 0 3-.8 4.4-1.3q2.5-1 5.2-1.6l11.5-2.2 9.6-2c2.9-.4 6-.2 8.8-.2h13.2q12.3-.2 24.6 0c4.7.6 9.4 1.5 14 1.5 7.1 1.3 14.2 2.2 21.2 3.7 6.9 1.7 14 2 21 2 14.5.5 28.8-1.2 43.2-1.7" class="b"/><path d="M7.7 169.3c1.1.5 2.4-.3 3.5-.7a50 50 0 0 1 6.1-2q5.8-1 11.5-2.3c3.2-.7 6.4-1.8 9.6-2.2h43.1c4.4.7 8.7 1.9 13.2 2.1q3.5.3 7 .2 2.2-.1 4.4 0 6.7.8 13.2 2c3 .5 5.9 1.4 8.8 1.8q5.7 1.1 11.4 1.3 5.2-.2 10.6-.3 8.3-.3 16.7-1.1 8.7-.5 17.6-.7" class="b"/><path d="M7.7 167.4c1.4.7 3-.2 4.4-.7l5.2-1.7q5.2-1.2 10.6-2.4c2.9-.7 5.8-1.8 8.8-2.2h35.1c2.6 0 5.4-.3 8 .2 4.6 1 9.2 2.2 14 2.5q7.5.6 15-.5 4.4.3 8.8.8c7.4.7 14.5 4 22 4.3 4 0 8.2-.5 12.2-.7q4.5-.1 8.8-.7c1.8-.1 3.6-.7 5.3-.7 6.1-.3 12.3-.1 18.5-.3" class="b"/><path d="m7.7 165.4 1.7.6q3-1 6.2-2.1 3.9-1.3 7.9-2.1c3.8-.8 7.6-2.3 11.4-3.1q10.1-.1 20.2-.1 11-.2 22 .1c2.4.4 4.7 1.3 7 1.8q4.9 1.2 9.7 1.4 9.8.8 19.3-1.3 4.9-.1 9.7.4 6.9 1 13.2 4 3 1 6.2 1 4-.3 7.9-.7c5.2-.6 10.7-.8 15.8-2.2 1-.5 2.4-.3 3.5-.3l15 .4" class="b"/><path d="M7.7 163.4c1.7.9 2.6 1 4.4.1l5.2-1.9q7.2-1.8 14-4.2c2.9-1 6-.5 8.9-.6h34.3c3.6.4 7 2 10.5 2.7a70 70 0 0 0 30.8-1c1.6-.7 3.5-.6 5.3-.8a30 30 0 0 1 13.2 2 12 12 0 0 0 7.9 4.3c1.7.4 3.5.1 5.2-.1l7-1c5.1-.6 10.4-1 15-3.3q7.5 1.3 15 1.3" class="b"/><path d="M7.7 161.3c1 .5 2.3 1.3 3.5 1l6.1-2.3q6.8-2 13.2-4.5 2.2-.6 4.4-.4h5.3q7.5-.1 15 0c6 .6 12.2-.2 18.4 0 3.3.4 6.4 2 9.7 2.7q6.9 1.5 14 1.6c6.8 0 13.8-.2 20.3-2.6q2.1-1 4.4-1.7h9.6q1.8-.2 3.5.2c3 4.1 5.3 6.5 10.6 7.1 2.6.2 5.3-.7 7.9-1 6.3-.9 12.8-1.7 18.5-4.8q6 1.8 12.3 2" class="b"/><path d="M7.7 159.2q1.6 1 3.5 1.5c3.8-1.3 7.5-3 11.4-4.2q4-1.7 8-3.1 8.2-.1 16.6 0c3.5.2 7 1 10.6 1.1 5.3.3 10.5-.6 15.8-1 3.2.7 6.4 2.1 9.7 2.9q6 1.4 12.3 1.5c6.7.2 13.6 0 20.2-1.6 2.4-.5 4.8-1.7 7-2.7q1.7-.4 3.5-.3h9.7a3 3 0 0 1 1.8.4c1.9 2.4 4 5 7 6q2.1.8 4.4 1 4.5-.7 8.8-1.5 5.3-1 10.5-2.6c2-.7 4.2-2.3 6.2-2.8q4.6 1.6 9.7 2.2" class="b"/><path d="M7.7 157c4.3 2.8 4.4 2 8.7.1q5.8-2.3 11.5-5c1.3-.7 3-.5 4.4-.5h7q2.7-.2 5.3.1 4.2 1.2 8.8 1.7 10.1.7 20.2-1c1.4-.5 3 .5 4.4 1l5.2 1.5q7.5 1.4 15 1.5a55 55 0 0 0 27.3-4.8h14c1.8 1.4 3.3 3.6 5.3 4.9q3.2 2 7 2.5l3.5-.8c4.4-1 9-1.8 13.2-3.3q2.8-1 5.3-2.3 2.5-1.6 5.3-.7 2.6.7 5.3 1.3" class="b"/><path d="M7.7 154.9c4.2 2.6 4.3 3 8.7.7l7-3.5q2.3-1.2 4.5-2.2 4.4-.1 8.8-.1 2.2-.1 4.4.1l3.5 1c10 2.7 20.6 1.8 30.7.2 1.8 0 3.6 1.2 5.3 1.5q4.4 1.3 8.8 1.7c9 .9 18.3 1 27.3-.6q3.1-.6 6.1-1.8c2-.9 3.9-2.4 6.2-2.1h7.9c1.7.1 3.6-.3 5.2.3q2.2 2.2 4.4 4a16 16 0 0 0 8 3q2.2-.3 4.4-1 4.9-1.1 9.6-2.7 2.7-1 5.3-2.2 1.6-1 3.5-1.4c2.3 0 4.8-.2 7 .4" class="b"/><path d="M7.7 152.6c1.6 1 3.3 2.4 5.2 3 3.2-.9 6-3 8.8-4.6 1.7-1 3.4-2.4 5.3-3h7q2.2-.1 4.4.2 7.6 3 15.8 3 10.2.5 20.2-1l2.7-.3a54 54 0 0 0 10.5 2.5q14.1 1.8 28.2.1 4.5-.5 8.8-2.2c1.4-.7 2.9-1.7 4.4-2.2h10.5q2.3.2 4.4 1.3c4.4 1.9 8.2 5.7 13.2 6q6.8-1.6 13.2-4.1c2.7-1 5.1-2.7 7.9-3.3h6.2" class="b"/><path d="M7.7 150.3c2 1.2 3.7 3.2 6.1 3.5 3.6-1.2 6.6-4 9.7-6.1 1.8-1.6 3-1.5 5.2-1.4H35c3 .6 5.7 2.1 8.8 2.6a92 92 0 0 0 20.2 1q7-.4 14-1.3a61 61 0 0 0 16.8 2.8q11 .8 22-.4 5.4-.6 10.5-2.7l3.5-1.8c2.3-.5 4.8 0 7 .3q6.4 1.1 12.4 3.5c2.9 1 5.7 2.6 8.8 3.3 1.7 0 3.5-.8 5.2-1.3q4.6-1.5 8.8-3.5 2.6-1.4 5.3-2.4c2-.3 4.1 0 6.1-.1" class="b"/><path d="M7.7 148c2 1.2 3.8 3.3 6.1 4 3.3 0 7.1-4.7 9.7-6.7 1.1-1.1 2.9-.7 4.4-.8l5.2.1c1.8.5 3.6 1.4 5.3 1.9q3.9 1.2 8 1.5c10.4 1 21 .4 31.6-.6 1.1-.3 2.4.4 3.5.6l4.4.8q7 1 14 1c7 .2 14.2.3 21.2-.9q3-.5 6.1-1.5c1.1-.3 2.3-1.1 3.5-1.2l7 .3q7.7.5 15 2.6l6.2 2q1.2.6 2.6.7a105.3 105.3 0 0 0 13.2-5.3q2.1-1.2 4.4-1.9 2.6-.2 5.3 0" class="b"/><path d="M7.7 145.7c2.2 1.2 3.8 3.4 6.1 4.5 3.9.8 6.8-5.4 9.7-7.3q3.5-.3 7 0c2 .4 4.1 1.4 6.2 2 4.2 1.3 8.7 1.7 13.1 2a234 234 0 0 0 30-1q1.2.2 2.6.5 3 .7 6.1 1 14.6 1.3 29 .4 5.8-.4 11.5-1.9c7 .7 14-.3 21 .8 4.6.5 8.9 2.2 13.3 3.4 5.6-1.3 10.3-5.2 15.8-7.1q2.5-.4 5.2-.2" class="b"/><path d="M7.7 143.4c2.3 1.1 4 3.6 6.1 5 4.7 1.4 5.8-5.3 8.8-7.4q2.7-.1 5.3.2 3.5 1 7 2.2 6.5 1.6 13.2 1.8 11.4.5 22.8-.1 4.9-.2 9.7-.7c1.7 0 3.6.7 5.3.8 9 1.2 18.2 1 27.2 1q4.9-.1 9.7-.7c1.7 0 3.6-.8 5.3-.6q3.5.4 7 .5 5.2-.2 10.6-.3 6.7-.3 13.1 1.4l6.2 1.8 2.6-.7q3.3-1.3 6.2-3.2 2.4-1.8 5.2-3c1.7-.6 3.6-.4 5.3-.4" class="b"/><path d="M7.7 141q2.5 1.5 4.4 3.8c1.4 1.8 2 2.2 4.4 2 1.5-.9 2.3-3.1 3.5-4.5 3.2-4.3 9-1.2 13.2-.5 7.2 1.7 14.6 1.9 22 2a378 378 0 0 0 24.5-.7c1.5 0 3-.3 4.4.1 10.8 1.7 21.8 1.2 32.6.8q3 0 6.1-.4 2.2-.5 4.4-.2c4.1.3 8.2 1 12.3.8 5.3-.1 10.6-.8 15.9-.3q4 .4 7.9 1.6 1.7.6 3.5 1l1.8-.4q4.1-1.6 7.9-4c2.8-2 4-3.1 7.9-2.9" class="b"/><path d="M7.7 138.5c1.8 1 3 3 4.4 4.6.8 1.1 2 2.2 3.5 2 2.2 0 3.6-2.7 5.2-3.8 3.5-2.9 8.3-1.3 12.4-.7 14.2 2.3 28.7 1.6 43 1.3l5.3-.3q1.8-.2 3.5.1 8.4 1.3 16.7 1.1a214 214 0 0 0 22-1.4q2.6.1 5.3.4c3.8.2 7.6.9 11.4 1 4.7 0 9.4-.6 14-.6q4 0 8 .8 3 .9 6.1 1.8c3.5-.9 6.7-2.7 9.7-4.5 2-1 3.8-2.9 6.1-2.8" class="b"/><path d="M7.7 137.7c2.6 1.4 4 5 7 5.6 2.8.3 4.7-2.5 7-3.6 4.1-2 8.9-.7 13.2-.3 14.6 1.6 29.3 1 44 1l6.1-.2 6.2.8q6.5.6 13.2.4c6.1-.1 12.3-1 18.4-1.7q5.2.4 10.6.6c4 .4 8.2 1 12.3.7 4.6 0 9.4-.7 14-.3 3.3.2 6.6 1.2 9.7 2.2 1.8.1 3.6-1 5.3-1.6 3.3-1.5 6.4-3.6 9.7-5.1" class="b"/><path d="M7.7 137c2.2 1 3.8 3.4 6.1 4.4 3 .7 5.3-2 8-3 4-1.8 8.7-1 13.1-.6 13.1 1.2 26.4 1.1 39.6 1l12.3.3q8.7 1.4 17.6 1 8.3-.2 16.7-1.4 8.3-.4 16.7.1 5.6.6 11.4.5c4.4-.1 8.8-.6 13.2-.2q4 .4 7.9 1.8c1.7.7 3.6-.6 5.2-1.2q4.6-2 8.8-4.3" class="b"/><path d="M7.7 136c8 5 5.5 4.7 14 .8 3.6-1.4 7.7-1 11.5-.8q15.3 1.2 30.7 1.2 10.5-.1 21.1.6 4 .3 8 .8 4.7.4 9.6.4c12.3.2 24.6-2.4 37-1.9q6 .4 12.2.4c4.1 0 8.3-.5 12.3-.1q4 .4 8 1.9h.8l1-.2 3.4-1.4 7-3.2" class="b"/><path d="M7.7 134.8c2 1 3.9 2.6 6.1 3.1 2.8-.2 5.3-1.9 8-2.8 3-1.1 6.4-1.1 9.6-1q12.3 1.1 24.6 1.3c7.9.2 15.9 0 23.7.6 5.9.3 11.7 1.7 17.6 1.5q5.8-.3 11.4-.2c2.7 0 5.4.4 8 .2 8.5-.6 17-2 25.4-2q6.2.2 12.4.2c3.8 0 7.6-.3 11.4 0q3.7.4 7 1.6c1.4.7 3-.4 4.4-.9l7-3" class="b"/><path d="M7.7 133.6c2 .8 3.9 2.4 6.1 2.5 3.5-1 6.9-3 10.6-3.5 6-.9 12.3.4 18.4.6 10.5.7 21.1.4 31.7.9q7.5.5 15 1.7c2.2.3 4.6-.3 7-.4 9.6-.9 19.3-.4 29 .4 7-.5 14-1.8 21-1.9h10.6q5.2-.2 10.6.1 3.1.4 6.1 1.5c1.4.7 3-.1 4.4-.7l6.2-2.6" class="b"/><path d="M7.7 132.3c1.6.7 3.4 1.8 5.2 2q3.6-1.1 7-2.5 4-1.4 8-1.4c6.1.1 12.3 1 18.4 1.2 8.8.5 17.6.3 26.4.7 5 .3 10 1.2 15 1.8q7-1 14-1.3 12-.4 23.8.5c2.9.1 5.8.7 8.7.7 4.7-.5 9.4-1.4 14.1-1.7q6.6-.1 13.2-.2 4.5-.1 8.8.4 3 .6 6.1 1.6c2.7-.8 5.3-2.2 8-3.2" class="b"/><path d="M7.7 131q2 .9 4.4 1.6c3-.8 5.8-2.3 8.7-3q5.1-1.5 10.6-1 16.3 1.6 32.5 1.7 6.2 0 12.3.7 5 .7 9.7 1.3c12.2-2 24.6-1.8 37-1.4l10.5.6c2.3.2 4.7.7 7 .7 4.4-.5 8.8-1.5 13.2-1.6q7-.3 14-.2 5.2.1 9.7 1.9c2.5-.5 4.7-1.9 7-2.8" class="b"/><path d="M7.7 129.5c1.3.5 2.9 1.5 4.4 1.1 2.9-1 5.8-2.3 8.7-3q5.1-1.4 10.6-.8 15 1.6 29.9 1.7 6.6 0 13.2.6 4.8.6 9.6 1.5 6.1-1 12.4-1.5 10.5-.5 21-.2c9.2 0 18.3 0 27.3 1.6q4.4-.8 8.8-1.4 4.8-.4 9.7-.4c3.8 0 7.7-.2 11.4.7l3.5 1c2.2 0 4.2-1.4 6.2-2.2" class="b"/><path d="M7.7 128q1.2.7 2.6 1c1.8 0 3.6-1.2 5.3-1.7q4.6-2 9.6-2.6c5-.3 10 .6 15 1q8.7.9 17.6 1 7.5-.1 15 .5c3.4.3 7 1.1 10.5 1.6q12-2.2 24.6-1.8l18.4.1c6.5 0 13 .1 19.4 1.2 1 0 2.4.5 3.5.4l5.3-1a71 71 0 0 1 9.6-.7q5.3-.3 10.6.4c5.6 1.3 3.9 2.3 9.7-.5" class="b"/><path d="M7.7 126.5q1.1.7 2.6.7 2.3-.7 4.4-1.6 4.3-1.9 8.8-2.8c4.7-.7 9.4.2 14 .7q8.4 1 16.7 1.3c6.2.2 12.4 0 18.5.6l7 1.1c1.1.2 2.4.6 3.6.4q3.5-.7 7-1.1c7.6-.9 15.2-.5 22.9-.5q12.3.2 24.6 0 7 .1 14 1.7c3.5-.6 7-1.5 10.6-1.6q6-.5 12.3.1c2 .2 4.1 1.2 6.2 1.5l3.5-1.5" class="b"/><path d="M7.7 125q.8.4 1.7.5 1.8-.4 3.5-1.3 3.5-1.6 7-2.6a33 33 0 0 1 15.9-.3q7.5 1 15 1.5c7 .5 14 0 21 .7 3.6.3 7 1.3 10.6 1.7q4.3-.8 8.8-1.4c10.8-.8 21.7 0 32.5-.1 7.3 0 14.7-.5 22 0q3.1.3 6.1.9c1.1.2 2.4.7 3.6.6a61 61 0 0 1 18.4-1.6c2.7 0 5.3 1 8 1.7l2.6-1" class="b"/><path d="M7.7 123.5c1.7.7 3.6-.8 5.2-1.4q3-1.5 6.2-2.5a30 30 0 0 1 16.7-.4q7.8 1.3 15.8 1.8c7 .5 14.1 0 21 .7q4.5.6 8.9 1.7c1.4.1 3-.5 4.4-.7q3-.6 6.1-.9c11.4-.5 22.9.3 34.3.1 7.3 0 14.7-.5 22 0q3.1 0 6.1.9c1.1.2 2.4.8 3.6.5q8.1-2.1 16.7-1.5c2.7 0 5.3 1 7.9 1.7.4 0 1.3-.4 1.7-.6" class="b"/><path d="M7.7 121.9c1.5.2 3-1 4.4-1.6q3-1.6 6.1-2.7c6.2-2.5 11.2-1.9 17.6-.6q7.8 1.6 15.8 2.1c7.3.6 14.7-.2 22 .8q3.5.6 7 1.5c1.7.7 3.6-.2 5.3-.5q3.5-.7 7-1c12.6-.2 25.2.6 37.8.2 6.7 0 13.5-.6 20.2-.1q2.7.2 5.3.9c1.4.3 3 1 4.4.5a47 47 0 0 1 15.8-1.4q3.7.5 7 1.8l1-.3" class="b"/><path d="M7.7 120.3c1.8-.6 3.5-1.8 5.2-2.7q3-1.6 6.2-2.7c5.9-2.5 12.4-1.3 18.4.2a94 94 0 0 0 14.1 2.2c7.3.6 14.7-.3 22 .6q3.5.6 7 1.6l1.8.5 3.5-.9q3.5-.8 7-1 7.5-.1 15 .2 11.4.4 22.8.1c7.3 0 14.7-.7 22-.3 3 .1 5.9 1.3 8.8 1.8 7.4-2 15.6-2.9 22.9.2" class="b"/><path d="M7.7 118.4c2.4-1.1 4.6-3 7-4.1 3.8-2 8-3.4 12.3-3.2 4.5-.1 8.9 1 13.2 2.2q5.2 1.5 10.5 2c7.6.9 15.3-.2 22.9.5q2.7.4 5.3 1.2c1.4.4 2.9 1.2 4.4 1.2a39 39 0 0 1 8.8-1.9c5.2-.3 10.5.2 15.8.3q11.9.4 23.7 0c7.3 0 14.7-.6 22-.4q2.6.1 5.3.8c1.4.3 2.9 1.1 4.4 1.1 6.7-2 14.4-3 21 0" class="b"/><path d="M7.7 116.4c2-1.2 4-3 6.1-4.2 2.7-1.5 5.7-3 8.8-2.9q5.2 0 10.5.2c3 .5 5.9 1.5 8.8 2s5.9 1.4 8.8 1.7c7.6 1.2 15.3 0 22.9.5q3.1.3 6.1 1.5c1.7.5 3.5 1.8 5.3.9q3-1.1 6.2-1.5c5.5-.6 11.1.1 16.7.2a493 493 0 0 0 39.5-.4c3.2-.1 6.5-.4 9.7 0q3.1.6 6.1 1.8c1.1.5 2.5-.1 3.6-.4l3.5-.8c4.6-.7 9.6-1 14 1" class="b"/><path d="M7.7 114.4c3.2-2.5 6.2-6 10.5-6.7q3-.1 6.2-.1H33q2.3.4 4.4 1c4.6 1.4 9.5 1.7 14.1 2.6 6.4 1.1 13 .5 19.3.3q4.2-.2 8 1l4.4 2c1 .6 2.4-.2 3.5-.5q2.2-.9 4.4-1.2c5.5-.8 11.1.2 16.7.3q12.3.3 24.6.1 7.5 0 15-.5c5-.3 10.1-1 14.9 1 1 .3 2.3 1 3.5 1q2.2-.7 4.4-1.3c4.6-1 9.6-1.4 14 .4" class="b"/><path d="M7.7 112.3c7-7.2 5.9-6.5 15.8-6.5H34c3.2.7 6.4 2 9.7 2.5q4.4.7 8.8.8 3.5.7 7 .8 4.9.1 9.7-.4c2.9-.2 6-.5 8.8.3 2.4.6 4.7 2.2 7 3.2 1.5-.1 3-1.1 4.4-1.5q2.6-.9 5.3-.9c7 .1 14 1 21 .9 7.7.2 15.3-.1 23 0q5.6 0 11.4-.5c2.3-.2 4.7-.7 7-.6 3.4 0 6.5 1.5 9.7 2.6a27 27 0 0 1 17.5-1.4" class="b"/><path d="M7.7 110.1c2-2.1 3.7-6 7-6h8.8q5.6-.2 11.4.1c4.3 1.3 8.7 2.6 13.2 3q4 .3 7.9.1 2.2.5 4.4.6c4.1.2 8.2-.5 12.3-.9q4.2-.6 8 1l3.4 2.2c.8.5 1.8 1.2 2.7 1l3.5-1.6c4.5-1.7 9.4-.6 14-.3q9.3.6 18.5.5c7.6-.2 15.3.2 22.9-.1q4-.1 7.9-.6 3-.5 6.2-.5c2.7.3 5.3 1.7 7.9 2.7 2-.5 4-1.5 6.1-2a23 23 0 0 1 10.6 0" class="b"/><path d="M7.7 107.7c1.3-1.8 2.6-5.5 5.2-5.4h9.7c4 .1 8.2-.2 12.3.1 3.5 1 7 2.2 10.6 2.7q4.7.7 9.6.7c2 0 4.2-.6 6.2-.2q4.9.4 9.6-.7c3.5-.6 7.4-1.5 10.6.6 2 1.3 3.8 3.4 6.1 4 5.3-2.8 9.2-3 15-2.3q7 .7 14 .8H130q5.2.1 10.5.1 7.5 0 15-.8c6.8-1 7-.6 13.1 2.3q2.7-1 5.3-1.9 5.2-1.5 10.6-.7" class="b"/><path d="M7.7 104.8c.7-1.2 1.6-3 2.6-4 1-.4 2.4-.2 3.5-.3h19.4c1.8 0 3.5.9 5.2 1.3q4 1.2 8 1.6c5.1.5 10.6 1.4 15.8 0 1-.4 2.4 0 3.5-.1q2.7-.1 5.2-.7c2.6-.4 6.5-2.2 8.8-.8 3 1.8 5.7 4.4 8.8 6 1.5-.4 3-1.4 4.4-1.9q2.7-.8 5.3-.9 4.5.1 8.8.7 5.2.4 10.5.5H129q6.5.3 13.2.2 7 0 14-.8c3.2-.4 6.7-.9 9.7.5l3.5 1.8q2.6-1 5.3-2 4.6-1.5 9.7-1.2" class="b"/><path d="M7.7 101.6c.3-.8 1.1-2.2 1.7-2.7 5.6-.3 11.2 0 16.7-.1 2 .3 4 1 6.2 1q1.7 0 3.5-.3a40 40 0 0 0 11.4 2.2c5 .4 10 1.1 15 .3a10 10 0 0 0 3.5-1.5q3.5-.1 7-1c3.2-1 5-1 8 .6q2.7 1.5 5.2 3.3c1.3.9 2.8 2.2 4.4 2.6 5.4-3.2 9.8-3 15.8-2.4q6 .7 12.3.8 11.9.2 23.8.3 7.5 0 15-.9c3.1-.4 6.6-.8 9.6.7 1 .4 2.3 1.3 3.5 1.6 1.7-.7 3.5-1.7 5.3-2.2a32 32 0 0 1 8.8-1.5" class="b"/><path d="m7.7 98.3.8-1.2h15c1.2.2 2.4 1.1 3.5 1.6q1.7.6 3.5 1 2.2 0 4.4-.3c1.1-.1 2.4-.7 3.5-.6q5.2 1 10.6 1.3l8.8.5q3.6.2 7-.7c1.7-.5 3-2 4.4-2.8h4.4q2.2-.1 4.4 0l3.5 1.4c3.6 1.2 6.4 3.9 9.7 5.6 1.2 0 2.4-1 3.5-1.4q2.5-1 5.3-1.2c3.5-.2 7 .3 10.5.6q5.2.5 10.6.6c12.6 0 25.3.9 37.8-.7 10.4-1.6 9.8 4.1 14 1.5q5.4-2.8 11.5-3.4" class="b"/><path d="m7.7 95.9.8-.6h13.2q1.8 1.3 3.5 2.5 2.5 1.2 5.3 1.4c3.3 0 6.6-.9 9.7-1.8a213 213 0 0 0 19.3 1.2c4.7 0 7 0 10.6-3.3h7q3 .8 6.2 1.8c3.6 1 6.3 3.8 9.6 5.4 1.5-.5 3-1.5 4.4-2a16 16 0 0 1 5.3-.9c6.2.2 12.3 1.3 18.5 1.3q11.4.4 22.8.3 6.6.1 13.2-.7c6.1-.8 8.6-1 14 2.1 2-.2 3.6-1.6 5.3-2.3q3.8-1.4 8-2.4" class="b"/><path d="M7.7 93.7c1.6-.4 3.5-.1 5.2-.2h7c1.6 1 2.8 2.8 4.5 3.6 4.6 2.3 10.1.8 14.9-.5l3.5-1 6.2.5q6 .3 12.3.4c4.1 0 6.4-.1 9.7-3H77c1.1.3 2.4 1 3.5 1.2q2.7.4 5.3 1.1 2.3.8 4.4 2.3c1.4.9 2.8 2.2 4.4 2.7 4.7-2.9 7.7-3.3 13.2-2.8q7.5.8 15 1.1 10.5.4 21 .4 7.1 0 14.1-.8c3.2-.4 6.6-1 9.7.2 1.4.5 2.9 1.5 4.4 2q2.6-1.3 5.2-2.5 3.5-1.4 7-2.5" class="b"/><path d="M7.7 91.8h10.5c1.9 1.2 3.2 3.5 5.3 4.4 5.3 2.3 11.3.2 16.7-1q2.6-.8 5.2-1.3l3.6.2q5.6.3 11.4.3c3.6 0 7.5.1 10.5-2q3.1.4 6.2-.4c.9 0 1.8.7 2.6 1q2.6.6 5.3.7 3.9.3 7 2.6c1.4.9 2.7 2.5 4.4 2.7 5.4-3.5 8.8-3.3 15-2.7a207 207 0 0 0 31.6 1.4q8.4.1 16.7-1c5.2-.7 7.7-.2 12.3 2.2 1.3.4 2.5-.7 3.6-1.2q4.2-2.2 8.8-3.7" class="b"/><path d="M7.7 90h8.7c2 1.1 3.3 3.5 5.3 4.6 5.9 3 12.5.3 18.5-1 4.3-.8 8.7-1.7 13.2-1.3q7.5.2 15-.6c2.8.7 5.7 2 8.7 1.5 1.2-.2 2.4-1 3.5-1.5 1.7.4 3.6.2 5.3.3q3.8 0 7 1.9c.8.5 2 1.3 2.7 2 .7.5 1.6 1.3 2.6 1.3 4.3-2.8 7.2-3.5 12.3-3q7.5.7 15 1.3 10.1.7 20.2.4 7 0 14-1c5.9-.7 8-.2 13.3 2.4 1.5-.3 3-1.4 4.3-2q3.6-1.7 7-3.2" class="b"/><path d="M7.7 88.2h7c1.8.6 2.9 2.8 4.4 4 2.8 2.5 7 2.6 10.5 2.1 3.9-.5 7.6-1.7 11.5-2.3q6.5-.7 13.2-1.3 2.6 0 5.2-.2c1.7 0 3.6-.4 5.3-.2 3.3.2 6.5 1.3 9.7 2.1 2.3.6 4.9.6 7-.6.7-.5 1.7-1.3 2.6-1.2 4-.6 8-.7 11.5 2 1.4.9 2.6 2.8 4.4 2.8a16 16 0 0 1 8.8-3.3c5.8 0 11.7 1.3 17.5 1.6q9.8.7 19.4.4 4.9.1 9.6-.4c3-.2 6-.8 8.8-.9q2.8 0 5.3.9c1.5.5 2.9 1.5 4.4 1.8q2.3-1 4.4-2.2l6.2-2.9" class="b"/><path d="M7.7 86.5h6.1c1.3 1 2.4 2.5 3.5 3.6a10 10 0 0 0 4.4 2.5c5 1.2 10.1-.3 15-1.4q4.7-1 9.6-1c6.5 0 13-1.2 19.4-1 3.6.2 7 1.4 10.5 2.2 2.7.6 5.7.5 8-1 .3-.4 1.3-1 1.7-1.4l1.8-.3q6-1.5 10.5 2.7c1 .8 2.1 2.3 3.5 2.3 2.4-1.6 5-3.3 8-3.4 5.8-.4 11.7 1.2 17.5 1.6a198 198 0 0 0 32.6-.4c5.8-.9 8.7-.6 14 2.2 1.6 0 3-1.3 4.4-1.9l6.2-3" class="b"/><path d="M7.7 84.7c1.6.1 3.7-.3 5.2.4 5 5.3 6.4 6.9 14 6.3C32 91 37 89 42 89q6.2.2 12.4-.1c4-.2 8.2-.9 12.3-.8 4.8 0 9.3 2.2 14 2.4a9 9 0 0 0 6.2-1.9c.7-.7 1.6-1.6 2.6-1.7q6.1-2 10.6 2.6c1 .9 2 2.4 3.5 2.6 2.4-1.7 4.9-3.5 7.9-3.7 5.9-.5 11.7 1.4 17.6 1.8q9.2.8 18.4.5c6 0 11.8-1 17.6-1.4q2.7 0 5.3.9 2.2 1 4.4 2 2.3-1 4.4-2.2l5.3-2.6" class="b"/><path d="M7.7 83h3.5c2 1.1 3.3 3.6 5.2 5 5.3 3.7 12.7 1.4 18.5 0q4.9-.8 9.7-.4 5.7.3 11.4 0c4-.3 8.2-1 12.3-.9 5.4 0 10.5 2.8 15.8 2.3q2.5-.2 4.4-1.8c.9-.7 1.7-2 2.7-2.5 3.2-1.3 7.2-.9 9.6 1.7 1.5 1.3 2.6 3.3 4.4 4 2.8-2 5.2-4 8.8-4.2q4.6 0 8.8 1 4.9.9 9.7 1.3 14.5 1 29-.8c10.5-1.7 12.1 3.8 15 2.1l7.9-4" class="b"/><path d="M7.7 81.2h2.6c1.4.8 2.4 2.5 3.5 3.6q2.5 2.7 6.2 3.3 4 .5 7.9-.2c2.3-.4 4.7-1.2 7-1.6 3.8-.7 7.7-.3 11.4 0q5.8.5 11.5 0c3.8-.3 7.6-1 11.4-1 5.7 0 11 2.7 16.7 2.3 3.1 0 5.5-2.6 7-5.1a8 8 0 0 1 8 0c2.4 1.6 3.6 4.6 6 6.2 2.2-1.2 3.9-3.2 6.2-4 2.9-.9 6-.4 8.8.1q4.5 1 8.8 1.6c5.8.7 11.7.6 17.6.6 6.2 0 12.3-1.4 18.5-1.5q2.2 0 4.4.9c1.4.5 2.9 1.5 4.4 2 1.2 0 2.4-.8 3.5-1.3l5.2-2.8" class="b"/><path d="M7.7 79.4h1.7c1.4.8 2.4 2.6 3.5 3.7q2.2 2.4 5.3 3.2 4.8.8 9.7-.2c3.7-.8 7.5-2 11.4-1.8 4.7.3 9.4 1.2 14 1 4.8 0 9.5-.9 14.1-1.3q5-.5 9.7.6c4 .8 8.2 2 12.3 1.2 3.2-.6 4.3-4 6.2-6.2q2.6-.3 5.2-.1c1.9.1 3.4 1.6 4.4 3s2.1 3.3 3.6 4.3c1.7 0 2.8-2.2 4.4-3 6-3.4 13 .3 19.3.8a128 128 0 0 0 27.3-.4c2.8-.3 5.8-.8 8.7-.4 2.9.2 5.3 2 8 3 2.7-1 5.3-2.6 7.9-3.8" class="b"/><path d="M7.7 77.7c1.5-.3 2.6 1.5 3.5 2.5q1.5 2 3.5 3.4c3.4 2 7.7 1.5 11.4 1 3.5-.5 7-2 10.6-2 5.3 0 10.5 1.5 15.8 1.4 5.6.2 11.1-1.1 16.7-1.6a37 37 0 0 1 11.4 1.1c3.7.8 7.8 1.8 11.5.4a8 8 0 0 0 3.5-3.7c.2-.7 1.2-2 1.7-2.5h5.3c2.2-.1 3.1 0 4.4 2 1.3 1.7 2.2 4.9 4.4 5.5 1.8-1.2 3.3-3 5.3-3.8a13 13 0 0 1 8.8-.3q4.3 1.2 8.8 1.7a115 115 0 0 0 26.3-.5q4.5-.8 8.8-.4c2.8.5 5.2 2.4 8 3 2.3-.7 4.7-2.1 7-3.3" class="b"/><path d="M7.7 76c1.5.3 2.5 2.2 3.5 3.4a10 10 0 0 0 4.4 3.3c3.7 1 7.7.7 11.4 0 3.4-.8 7-2 10.6-1.7 5.2.5 10.5 1.7 15.8 1.6 5.6 0 11.1-1.2 16.7-1.8 7.1-.9 14 2.8 21 2.3 4.2-.2 5.5-3.9 7.1-7 1.4-.4 3-.1 4.4-.2h5.3c2 2.3 2.5 6 5.2 7.5 1.4-.5 2.4-1.9 3.6-2.7q1.9-1.5 4.4-2c2.6-.7 5.3.5 7.9 1q4.3 1.1 8.8 1.5c8.5.7 17 0 25.4-1.1 6.2-1 8.7.6 14.1 3 .8.3 1.9-.2 2.7-.6l4.4-2.2" class="b"/><path d="M7.7 74.3c4.7 4.8 4.2 7.4 12.3 7.3q4 0 7.9-.9c3.4-1 7-1.7 10.5-1.2 6.1 1 12.3 2 18.5 1.5 5.3-.2 10.5-1.8 15.8-2 5.7-.1 11 2.3 16.7 2.6 2 0 4.3.2 6.2-.7 1.1-.8 2-2.4 2.6-3.7.2-.7 1-2.6 1.8-3h6.1c1.1 0 2.5-.2 3.5.2 2 2.1 2.8 5.6 5.3 7.2 1 0 2-1.1 2.6-1.8q2-1.8 4.4-2.7c2.6-1.2 5.4.1 8 .7q4.3 1.1 8.7 1.5c8.2.7 16.5 0 24.7-1q2.2-.3 4.4-.4c3 .3 6 1.5 8.7 2.7q1.4.6 2.7.9 2.7-1 5.3-2.4" class="b"/><path d="M7.7 73c4.9 6.7 5.6 7.2 14 6.9 3.3 0 6.5-1.2 9.7-2q3.5-.5 7 0a74 74 0 0 0 19.4 1.4c5.3-.2 10.5-2 15.8-2 4.5 0 8.8 1.5 13.2 2.4q2.6.4 5.2.3 2.3.1 4.4-.2c2.9-1.1 3-5.1 4.4-7.4h7c3.5-.1 3.6.2 5.3 3 1 1.5 2 3.6 3.6 4.5 1-.1 1.9-1.2 2.6-1.9q1.9-1.9 4.4-3c2.3-1 4.8.4 7 .9q4.4 1.1 8.8 1.5 11.5.9 22.9-.9l4.4-.5a32 32 0 0 1 9.6 2.5q1.7.7 3.6 1.3a21 21 0 0 0 4.4-1.9" class="b"/><path d="M7.7 71.8c1.3 1.7 2.5 4 4.4 5.2 3.1 1.8 7 1.1 10.5 1 2.7 0 5.3-1 8-1.7q3.8-.8 7.8 0c4 .6 8.2 1.6 12.3 1.3 3-.1 6 .3 8.8 0 4.7-.6 9.4-1.8 14-1.9s9 1.4 13.3 2.3q4 .4 7.9.2h3.5c2.3-1.1 2.5-4.9 3.5-7l1-.5q4.7-.2 9.6 0c2.6 2 3.2 6 6.1 7.5 1.4-.6 2.4-2 3.5-3q2-1.8 4.4-2.5 3.2.6 6.2 1.5 4 .9 8 1.3 10.9.9 21.9-.8c4.4-1 9 0 13.2 1.4q2.6 1 5.2 2 1.9-.5 3.6-1.3" class="b"/><path d="M7.7 70.7c2 3.2 3.7 5.8 7.9 5.7 4.4.2 9 0 13.2-1.5 5.7-1.9 11.7.4 17.5 1 2 .1 4.2-.2 6.2-.1 2 0 4.1.3 6.1 0C64 75.5 69.1 74 74.4 74c4.2 0 8.3 1.3 12.4 2.2 2 .4 4.1.2 6.1.3h7c2.3-1.7 2.8-5.2 4.4-7.3q1.3-.4 2.7-.3h6.1c3 1.5 3.6 5.5 6.2 7.4h.9c2.2-1.6 4.8-6 7.9-5.4 4.3 1.1 8.7 2.4 13.2 2.7q7.9.7 15.8-.2 4-.3 7.9-1a45 45 0 0 1 14 2.8c2 .8 3.2 1.4 5.3.4" class="b"/><path d="M7.7 69.7c1.4 2.2 3.2 4.8 6.1 5 3.5 0 7.1.2 10.6-.4 7.4-2 9-2.5 16.7-1q3 .6 6.1.9l4.4-.2c2.3 0 4.7.4 7 0 5.9-.5 11.7-2 17.6-1.6 4 0 7.6 1.6 11.4 2.2q6.2.1 12.3.1c3.7.2 4.4-5.6 7-7.4 1.8-.3 3.6-.1 5.3-.2 2.2-.2 3.2.5 4.4 2.2 1.4 1.7 2.2 4.7 4.4 5.4 2.6-1.5 4-5 7-5.9 3.9.8 7.6 2.2 11.5 2.6 8.2 1.2 16.5.5 24.6-.6a52 52 0 0 1 16.7 2.9c1.1.3 2.4 1.1 3.6.6" class="b"/><path d="M7.7 68.8c2.4 4 4.2 4.3 8.7 4.2q3.6 0 7-.3 3.2-.8 6.2-1.6 4-.7 8 0 4.3.8 8.7 1.3l4.4-.1 6.2.2 7-.8a42 42 0 0 1 21.1.6q3.4.9 7 .7h8.8c4 .3 5.3-4.9 8-6.9 1.4-1.2 3.5-.6 5.2-.7 4.4-.4 5 5.4 8 7.5l.8-.1c2-1.8 3.4-5 6.1-5.8 3.6.6 7 1.8 10.6 2.4q6.5 1 13.2.7c3.8-.1 7.6-.8 11.4-1q6.7-.1 13.2 1.3c2.4.5 4.7 1.6 7 2.3" class="b"/><path d="M7.7 68c2.3 3.8 4.8 3.2 8.7 3.2q3.1 0 6.2-.2 3-.6 6.1-1.5c3.5-1 7.1-.5 10.6.2q3.5.7 7 1l4.4-.2q4.9.4 9.7-.2c6.7-.6 13.5-2.3 20.2-1q3.6.9 7 1.8c5 .3 10 0 15 .1 4-.2 6-5.8 9.7-7.4q1.7-.2 3.5-.2c2-.3 3.4 1.6 4.4 3.1 1 1.4 1.7 3.9 3.5 4.5 1.1-.3 2-1.8 2.6-2.7s1.7-2.3 2.7-3c1.3-.7 3 .1 4.4.3q3.9 1.1 7.9 1.8 6 .8 12.3.5 4.8-.2 9.7-.8c7 .2 14.4.5 21 3.2" class="b"/><path d="M7.7 67c.8 1.2 2 2.3 3.5 2.4h6.1q3.1.1 6.2-.4c2.3-.5 4.6-1.4 7-1.7 6.5-.7 12.8 2.2 19.3 1.5a89 89 0 0 0 15.9-.9c6.4-.9 13-1.4 19.3.6 3 1.2 6.4 1 9.7 1h6.1q2.2 0 4.4-.3c4.1-1.4 7-7.6 11.5-7.4 4.6-.7 5.3 5 7.9 7.5h.8c1.9-1.4 2.8-4 4.4-5.7 1.1-.4 2.5-.1 3.6 0l5.2 1.3q5.7 1.2 11.5 1.3 6.6 0 13.2-.8c7 .3 14.3.4 21 2.8" class="b"/><path d="M7.7 66.2q1.7 1.7 4.4 1.5h4.4q3.5.1 7-.5c2.9-.7 5.8-1.8 8.8-1.8 4.1 0 8.2 1.2 12.3 1.6q4.9.3 9.7.1c7.3-.1 14.6-1.7 22-1.7 3.8-.1 7.7.9 11.4 2q2.5.5 5.2.3h6.2c2.9-.2 6.1.5 8.8-.8a28 28 0 0 0 5.2-4c1.5-1.2 3.3-2.8 5.3-2.8 1.2 0 2.7-.1 3.5.9 1 1.1 2 3.1 2.7 4.5l.8 1.6 1 .6.8-.3c1.3-1.6 2.3-3.9 3.5-5.5 3-.7 6 .5 8.8 1q5.2 1.1 10.6 1.3c4.4.2 8.8-.3 13.2-.6 7 .4 14.2.3 21 2.3" class="b"/><path d="M7.7 65.1q1.6 1 3.5.8h4.4q3 .1 6.1-.2 3-.6 6.2-1.5 4.3-1 8.8-.2 5.2 1 10.5 1.4 10.1 0 20.2-1.2c4.7-.5 9.4-1 14.1-.2 2.7.3 5.3 1.4 8 1.8q3 .1 6 .1 5.8.2 11.5 0c4.2-.8 7.1-4.4 10.5-6.7 1.5-1 3.6-1 5.3-.8 2.4 1.5 2.8 5.2 4.4 7.4l.9.1c1.8-1 2-4 3.5-5.4 2.8-1.3 6-.1 8.8.4q5.2 1.1 10.6 1.3 6 .1 12.3-.4c7 .4 14.2.3 21 2" class="b"/><path d="M7.7 63.8c1.6.6 3.5.3 5.2.4q4 0 8-.2c3.8-.5 7.4-2.2 11.4-2.1 4.7 0 9.3 1.4 14 1.6 8.3.2 16.5-.6 24.7-1.4q5.2-.5 10.5 0c2.7.3 5.3 1.3 8 1.8 3.7.5 7.6.1 11.3.3 2.6-.1 5.4.2 8-.3 4.2-.8 7-4.2 10.5-6.5a6 6 0 0 1 3.5-.8c.8 0 2-.1 2.7.4.6.8 1.4 3 1.7 4 .3.8 1 2.7 1.8 3.2h.9c1.2-1.7 1.4-4.7 3.5-5.7 1.6-.7 3.5-.4 5.2-.1l7 1.3q4.9.6 9.8.6c4 0 8.2-.6 12.3-.2 5.5.3 11.2.4 16.7 1.4" class="b"/><path d="M7.7 62.3q3.5.1 7 .1 3 .1 6.1-.2c3.8-.5 7.5-2.2 11.5-2 4.7 0 9.3 1.3 14 1.4 8.5.2 17-.5 25.5-1.3q5.3-.4 10.6.1 3.5.6 7 1.6c4 .7 8.2.3 12.3.4 3.2-.1 6.6.4 9.7-.6 4-1.2 6.8-5 10.5-6.7 1.7-.5 3.6-.3 5.3-.2 1.1 2 1.6 5.4 2.6 7.5h1l.8-.5c1.6-5.3 3.4-6.2 8.8-5.3q5.7 1.2 11.4 1.7 6.6.3 13.2-.2c6.4.4 13 .4 19.3 1.2" class="b"/><path d="M7.7 60.7c4.3-.1 8.8.2 13.1-.3 3.8-.6 7.6-2.1 11.5-2 4.4 0 8.7 1.1 13.2 1.3 9 .3 18.2-.5 27.2-1.2q5.2-.4 10.6.2c2.6.4 5.2 1.3 7.9 1.6 4 .6 8.2.3 12.3.4 7.1.1 10 0 15.8-4.8 4-3.3 4.7-2.9 9.7-2.8a35 35 0 0 1 1.7 7.3 4 4 0 0 0 1.8.3c1-1.9 1.5-4.6 3.5-5.7 1.6-.7 3.6-.5 5.3-.3l7 1.2q4.8.7 9.7.6l8.8-.2 6.1.3c3.8.2 7.7 0 11.4.8" class="b"/><path d="M7.7 58.9c4.3-.1 8.8.3 13.1-.3 3.5-.6 7-1.9 10.6-2 5-.1 10 1.2 15 1.2 9 .2 18.1-.4 27.2-1a60 60 0 0 1 9.7.1c2.9.4 5.8 1.2 8.8 1.6 4.6.6 9.4.3 14 .4 9.6.3 10.4-2.3 17.6-7 1-.7 2.4-.6 3.5-.6h3.5c.3 1.5.8 6.5 1.8 7.6h.9c1.3-1.6 1.7-4.3 3.5-5.4 3.4-1.7 8.6.2 12.3.5q5.2.7 10.6.7c8.2 0 16.5-.7 24.6.9" class="b"/><path d="M7.7 57.1q6 .2 12.3-.1c3.8-.5 7.5-2 11.4-2.1 5-.2 10 1 15 1 9.3.2 18.7-.4 28-1a65 65 0 0 1 9.7.3q4.6.8 8.8 1.5c4.7.6 9.4.4 14.1.4 9.3 0 10.5-2.2 17.6-7q1.7-.8 3.5-.6h3.5l1.8 7.6h.9c1.5-1.3 1.7-4 3.5-5.2 3.3-2 8.6 0 12.3.3q5.2.7 10.5.8c8 0 16-.5 23.8.8" class="b"/><path d="M7.7 55.4c4-.1 8.2.2 12.3-.2 4-.6 8-2 12.3-2 5-.2 10 .8 15 .8 9.3.2 18.7-.4 28-.8l8 .1 9.6 1.4q7 .9 14 .6c9.6-.1 11.1-2 18.6-7q1.6-.8 3.5-.5h3.5c.2 1.6.8 6.3 1.8 7.6h.8c.8-.4 1.5-2.2 1.8-3 .7-1.4 1.9-2.8 3.5-3 2.3-.3 4.8.2 7 .5q4.5.9 8.8 1.1c9.4.7 18.8-.1 28.2 1.2" class="b"/><path d="M7.7 53.6c4 0 8.2.2 12.3-.2 4-.6 8.1-2 12.3-2 5-.2 10 .7 15 .6q13.5.1 27.2-.6l8.8.1 8.7 1.2q7.5 1 15 .7c9.7-.2 11.5-1.7 19.3-6.8 1.9-1 4.2-.5 6.2-.6.7 1.5 1.4 5.1 1.7 6.7l1 .9h.8c2-2 1.7-5.5 5.3-6 2.3-.3 4.7.2 7 .6q4 .6 8 1c9.3.9 18.7.3 28 1.3" class="b"/><path d="M7.7 51.9c4-.1 8.2.2 12.3-.3 4-.5 8.1-1.8 12.3-2 5-.2 10 .5 15 .5q13 .3 26.3-.4 6-.2 12.3.4c6.7.9 13.4 1.7 20.2 1.5q5.4 0 10.6-1.2 3.7-1.2 7-3.3c2.7-1.8 5.4-3.5 8.8-2.7 1.2 2 1.8 5.1 2.6 7.2.4.2 1.3.3 1.8.3 1.6-3 1.9-6.4 6.1-6.2 4.7.2 9.4 1.6 14.1 2 9 .8 18.2.4 27.2 1.2" class="b"/><path d="M7.7 50c4 0 8.2.3 12.3-.2 4.4-.5 8.7-1.8 13.2-2q6.6 0 13.1.4 12 .1 23.8-.2 6-.2 12.3 0c5.8.5 11.7 1.4 17.6 1.6 6.7 0 13.8.3 20.2-2.2 3.8-1.5 7.2-4.6 11.4-4.9l.9.4c1.6 2 2 5.2 3.5 7.2.5 0 1.4-.1 1.8-.4 1.4-3.3 1.5-6.4 6.1-6 4.4.5 8.8 1.8 13.2 2.2 9 1 18.2.7 27.3 1.3" class="b"/><path d="M7.7 48.3c4 0 8.2.2 12.3-.2 4.4-.5 8.7-1.7 13.2-2q6.6-.1 13.1.2h21.1q6.6-.1 13.2 0 6.2.3 12.3 1c8.8.6 17.9 1 26.4-1.4 4.2-1.2 8-4 12.3-4.7l.9.3c1.5 1.9 2.3 4.6 3.5 6.6q.9.3 1.8.2c1.1-1.4 1.9-3.9 2.6-5.5q.7-.9 1.8-1c2.3-.1 4.7.5 7 1l8 1.4c9 1 18.1.8 27.2 1.4" class="b"/><path d="M7.7 46.5q6.6.3 13.1-.3c4.4-.5 8.8-1.5 13.2-1.7 9.7-.4 19.4.2 29 0q8.9-.1 17.6 0c6.2.3 12.3 1 18.5 1.3 6.4.1 13 0 19.3-1.4q4-1.2 8-2.8c1.9-.7 4-1.8 6-1.4 1 1.2 2 3 2.7 4.4.3.6 1 1.8 1.8 2h.9c2-1.7 2.4-5 4.4-6.8 2.6 0 5.3.8 7.9 1.3a77 77 0 0 0 8.8 1.6c8.4.9 17 .8 25.4 1.2" class="b"/><path d="M7.7 44.7q6.6.3 13.1-.2c5-.6 10-1.6 15-1.8 5.5-.3 11.1 0 16.7 0h22c12.3 0 24.6 2 36.9.9a50 50 0 0 0 11.4-2.3c3.1-.9 6.4-2.7 9.7-2.1 1.8 1.5 2.3 4.5 4.4 5.6h.9c2.3-1.6 3-5.1 5.2-7 2-.2 4.2.9 6.2 1.3q4.3 1.1 8.8 1.7c8.7 1.2 17.6 1 26.3 1.4" class="b"/><path d="M7.7 42.8q6.6.4 13.1 0c5.3-.6 10.6-1.6 15.9-1.8 7.3-.3 14.6 0 22 0q14-.2 28 .5c8.8.5 17.7 1 26.4 0q5.4-.6 10.6-2.1c2.8-.7 5.9-2 8.8-1.1 2 1 2.5 5 5.2 4.7 2.8-1.8 3.7-6.1 7-7.1 4.4 1.3 8.8 2.7 13.3 3.2 8.7 1.2 17.6 1 26.3 1.4" class="b"/><path d="M7.7 41q7 .3 14-.1c5.3-.5 10.6-1.3 15.8-1.5q8-.3 15.9-.1h21c12 .2 24.1 1.5 36.1.5q6.2-.5 12.3-1.9c3.1-.6 6.6-1.9 9.7-.6 1.4.8 2.2 2.7 3.5 3.7 3.3 1.7 4.6-5.4 9.7-6.8 3.7 1.2 7.5 2.5 11.4 3 9 1.4 18.2 1.2 27.3 1.6" class="b"/><path d="M7.7 39q7.8.4 15.8 0 7.8-.7 15.8-1.2c5.8-.3 11.7 0 17.6-.1q14 0 28.1.3c8.8.3 17.6.6 26.4-.1q5.3-.5 10.5-1.5c2.9-.5 5.9-1.3 8.8-.7q1.5.4 2.7 1.2c1 1 2 2.7 3.5 2.6 2.1-.9 3.4-3.3 5.2-4.7q2-1.5 4.4-2.2 1.4.2 2.7.8 6 2.2 12.3 2.7c7.6.7 15.2.7 22.9 1" class="b"/><path d="M7.7 37c10.8.8 21.7-.3 32.5-.8 5.2-.3 10.5 0 15.8 0q14.1-.2 28.1.1c8.8.3 17.6.5 26.4-.2q4.9-.5 9.7-1.2c2.8-.3 5.8-1 8.8-.7q1.8.2 3.5 1.2c1.1.7 2.1 2 3.5 2.4 1.8-.4 3-2.2 4.4-3.3a13 13 0 0 1 7-3.5c1.2 0 2.4.8 3.6 1.2q3 1 6.1 1.5c9 1.5 18.2 1.3 27.3 1.6" class="b"/><path d="M7.7 35c11.4.8 22.8 0 34.2-.4q7-.2 14.1 0h26.4q13.2.5 26.3-.3c6-.3 11.8-1.4 17.6-1.6q2.8 0 5.3 1.1c1.2.6 2.3 1.8 3.5 2.2 1.8-.2 3-1.9 4.4-2.9q3.5-2.9 8-3.5c1.5-.5 3 .6 4.3 1q2.6.9 5.3 1.4c9 1.5 18.2 1.3 27.3 1.6" class="b"/><path d="M7.7 33c11.7.7 23.4.2 35.1 0q6.6-.1 13.2.2l21.1-.2c9.7 0 19.4.2 29-.4q7.5-.5 15-1.2c3.2-.2 6.6-.4 9.6 1 1.2.5 2.4 1.4 3.6 1.8 2-.4 3.5-2.3 5.2-3.3q4-2.6 8.8-2.9c1.2-.3 2.5.3 3.5.8q2.6.9 5.3 1.4c9 1.6 18.2 1.3 27.3 1.6" class="b"/><path d="M7.7 31q18 .5 36 .3 6.6 0 13.2.4l13.2-.1c10.5-.3 21-.2 31.6-.6 6.2-.2 12.3-.9 18.5-1.2 2.9-.1 6-.1 8.8.8 1.4.4 2.9 1.4 4.4 1.8 2-.6 3.5-2.3 5.2-3.3 3.2-2 7-2.5 10.6-2.7 1.2-.2 2.4.4 3.5.8q2.6.9 5.3 1.4c8.7 1.3 17.6 1.1 26.4 1.4" class="b"/><path d="M7.7 28.9q12.2.2 24.6.5 7.8 0 15.8.2c3.8 0 7.6.5 11.4.5q20.3-.1 40.5-.9l13.2-.7c4-.3 8.2-.6 12.3 0q2.7.6 5.2 1.7c2 1 3.8-1 5.3-1.9q2.8-1.9 6.2-2.7 4.3-.8 8.7-.8 4.3 1.7 8.8 2.2c8.2 1.1 16.5 1 24.7 1.2" class="b"/><path d="M7.7 26.8q12.2 0 24.6.5 13.6.3 27.2 1.1c10.3.2 20.5-.4 30.8-.7L106 27c4.7-.2 9.4-.6 14-.4q3.7.1 7.1 1.1c2 .7 3.2 1.5 5.3.3 2.4-1.7 5-3.4 7.9-4 3.7-.8 7.6-.7 11.4-.7q4.3 1.5 8.8 2c7.9 1 15.8.8 23.8 1" class="b"/><path d="M7.7 24.8q10.5-.4 21 .2 10.1.5 20.3.8l13.2.9q9.7.1 19.3-.4 14.6-.8 29-1.3 5.8-.3 11.4.4 2.3.3 4.4 1 1.4.5 2.7.5a12 12 0 0 0 4.4-2.2 10 10 0 0 1 3.5-1.8c5-1.7 10.6-1.1 15.8-1.2q3.8 1.4 8 1.8c7.8 1 15.8.8 23.7 1" class="b"/><path d="M7.7 22.8q8.3-.3 16.7-.4c8.4.7 17 .8 25.4 1.3 4.4.2 8.8.8 13.2 1q7.5.3 15-.1c11.7-.6 23.4-1.4 35.1-1.4q5 .1 9.7 1l3.5 1a14 14 0 0 0 5.3-2c4-3.6 9.8-3.3 15-3.2q3.5 0 7 .2a38 38 0 0 0 7.9 1.6c7.6.7 15.2.6 22.8.8" class="b"/><path d="m7.7 20.9 17.5-.6c8.8.7 17.6.7 26.4 1.2 4.4.2 8.8.9 13.2 1.2q6.6.2 13.2 0c10.8-.6 21.7-1.3 32.5-1.2q4.9.2 9.7 1l3.5.8q2.7-.2 5.3-1.4 2.3-1.1 4.4-2.8c3-1 6.4-1 9.6-1q5.2.3 10.6.4 2.6.6 5.3 1c8.4 1.3 17 .9 25.5 1.1" class="b"/><path d="M7.7 19q8.7-.1 17.5-.7 13.6.7 27.3.9c5.2.3 10.5 1 15.8 1.3q7.5.3 15-.2c8.7-.3 17.6-.8 26.3-.4q5.8.4 11.5 1.6 3.1-.2 6.1-1.4c2.2-.8 4.2-2.3 6.2-3.4 6.4-1 12.9.2 19.3.2 1.4-.2 3 .3 4.4.6l5.3.7c7.3.5 14.6.3 22 .5" class="b"/><path d="m7.7 17.4 12.3-.3q4.8-.5 9.6-.2c8.8.5 17.6-.2 26.4.4 5.6.2 11.1.9 16.7 1q4.5 0 8.8-.3h15.8c5.6 0 11.2 0 16.7 1 1.7.3 3.6 1 5.3.7q5.5-.8 10.5-3.6l2.7-1.6q2.6-.3 5.2-.1 6.2.4 12.4.7h4.4q4.3 1 8.7 1.2c7 .5 14.1.2 21.1.3" class="b"/><path d="M7.7 15.9q9.7.2 19.3-.3 4.9.2 9.7.2l13.2-.3q11 0 22 .4c4 .2 8.2-.3 12.2-.2 8.5.4 17.1.2 25.5 1.4q3.1.5 6.2 1c5.6-.9 11.1-2.5 15.8-5.8 4.7-.3 9.4.7 14 1l6.2.2c1.7 0 3.6-.2 5.3.3 9 1.3 18.2.5 27.2.7" class="b"/></svg>