<svg xmlns="http://www.w3.org/2000/svg" id="a" width="1920" height="2400" viewBox="0 0 192 240"><defs><style>.b{fill:none;stroke:#fff;stroke-miterlimit:10;stroke-width:.3px}</style></defs><path d="M0 0h192v240H0z" style="stroke-width:0"/><path d="M8.5 227c4.7.3 9.3-.4 14-.3 3.5 0 7 .9 10.4 0q9-2 17.4-5.6 1.6-.9 3.5-.6l5.2.9q6 1 12.2 1.4c3.4.2 7 0 10.4.3 5.8.5 11.6 1.5 17.4 2q15.2 1.3 30.5.5c6.4-.2 13-.7 19.1-2.7q4.8-1.7 9.6-2.4 6-.7 12.2-.3c1.7 0 3.5.8 5.2 1.3a51 51 0 0 0 7.8 1.5" class="b"/><path d="M8.5 225.3c7 0 14-1 21-.4 2 .1 4 .7 6 .4 5-.7 10-2.3 14.8-4 1.4-.3 2.9-1.3 4.4-1.3l10.4 1.2c6.4.8 12.8.4 19.1 1.1q11.8 1.3 23.5 1.9 12.2.3 24.4-.3 9-.2 17.4-2.7a58 58 0 0 1 19.1-2.5q7.3 2.2 14.8 3" class="b"/><path d="M8.5 223.6c7 0 14-1 21-.7q3 0 6 .4c1.4 0 3 .5 4.4.3q6.1-.8 12.1-2.5c1.7-.5 3.5-1.4 5.3-1.2l11.3.6q6 .3 12.2.4l18.2 1.4q17.9.9 35.7-.2 8-.4 15.7-2.7 7.3-2 14.8-2.3c2.3.3 4.6 1.2 7 1.6q5.5 1 11.2 1.4" class="b"/><path d="M8.5 221.8c8.2-.1 16.3-1 24.4-.9q5.3 0 10.4.9c2 .3 4.2-.2 6.1-.4 3-.4 5.8-1.2 8.7-1.5q5.3-.4 10.5-.2c11.9-.1 23.8 1 35.7 1.3q9.5.2 19.1-.1 7.5-.1 14.8-.7c4.4-.5 8.7-1.7 13-2.7q5.6-1.4 11.4-1.8 10.3 2.4 20.8 2.9" class="b"/><path d="M8.5 220c8.5-.1 16.9-1 25.3-1q9 0 18.3 1.2 11.6-1.4 23.4-1.4c10.2 0 20.4.7 30.5.7l18.3-.3c5.5-.2 11-.2 16.5-1.1 6.1-1.2 12-3.1 18.3-3.7 1-.3 2.4.2 3.5.4l5.2 1q7.8 1 15.6 1.2" class="b"/><path d="M8.5 218.2c8.7 0 17.4-1 26.2-1q11.7-.3 23.4 1c5.2.7 10.5-.2 15.7-.3q10.5-.2 20.9 0 13.5 0 27-.3c4.9-.2 9.9-.1 14.8-.7 6.7-.7 13.2-3.3 20-4 1-.3 2.4.2 3.5.4l5.2 1q9 1 18.3 1.1" class="b"/><path d="M8.5 216.4c13.7-.2 27.3-1.5 41-1.1 7.2 0 14.4.8 21.7 1.3q7.5.2 14.8-.2 23.1 0 46.1-.8c7.5-.2 14.4-3.2 21.8-4.3 1-.3 2.4.2 3.4.4q3 .7 6.1 1 10 1 20 1.1" class="b"/><path d="M8.5 214.6c15.7-.3 31.4-1.6 47-1.3q9.2.1 18.3 1 8.7.4 17.4.5 20.4-.1 40.9-.9c6.6-.2 12.7-3.2 19.1-4.3 1.5-.4 3 .3 4.4.6l6 1q11 1 21.8 1" class="b"/><path d="M8.5 212.8c17.7-.3 35.4-1.5 53.1-1.4q7 0 14 .8l20 .9c6.3.1 12.7-.3 19.1-.4 5.8-.2 11.6 0 17.4-.5 6-.3 11.5-3.4 17.4-4.5 1.1-.2 2.4.4 3.5.6l6 1.2q12.2 1 24.4 1.1" class="b"/><path d="M8.5 211c19.2-.3 38.3-1.4 57.5-1.5 3.7-.1 7.5.4 11.3.7q10.8.7 21.7 1.1c6.1.2 12.2-.3 18.3-.4 5.2-.1 10.5.2 15.7-.5 3.6-.4 7-2.3 10.4-3.5q1.7-.7 3.5-1.1l.9-.3.8.3c6.2 2 12.7 2.5 19.2 2.8q7.8.4 15.6.5" class="b"/><path d="M8.5 209c20.3 0 40.7-1.1 61-1.4 10.7.5 21.4 1.6 32.2 2 5.8 0 11.6-.4 17.4-.4 4.9 0 10 .3 14.8-.8 2.7-.8 5.2-2.4 7.8-3.6 1.3-.6 2.8-1.4 4.3-1.4q4.3 1.6 8.7 2.5c4.6.8 9.3.9 14 1.2q7.4.4 14.7.4" class="b"/><path d="M8.5 207.2c21.2 0 42.4-1 63.6-1.4 10.7.4 21.4 2 32.2 2q8.6-.3 17.4-.2c5.8 0 10.7.5 15.6-3.3 1.9-1.1 4.8-3.7 7-3 3.7 1.3 7.4 2.7 11.3 3.2q6.5.7 13 1 7.6.6 14.8.5" class="b"/><path d="M8.5 205.4c22 0 44.1-1 66.2-1.3 6.4.2 12.8 1 19.1 1.5 4 .2 8.2.7 12.2.5q8.3-.4 16.5-.1c7 .2 9.7.2 14.8-5.2.7-.6 1.7-1.4 2.6-1.6l1.8-.1c2.4 0 4.7 1.5 7 2.2q4.6 1.5 9.5 1.9c8.4.5 16.8 1.6 25.2 1.4" class="b"/><path d="M8.5 203.5q30.5 0 61-1c9.6-.5 19.1.8 28.7 1.6q5.2.5 10.4.1h10.5c4.3 0 9.4 1.4 13-1.6 1.7-1.4 2.7-3.7 4.4-5.1q3-.3 6-.1c1.6.2 3 1 4.4 1.6q3 1.3 6 1.9 6.6.8 13.1 1.4c5.8.5 11.6 1.2 17.4.9" class="b"/><path d="M8.5 201.6h25.3q16.1-.1 32.2-.7c7.5-.2 15.1-.5 22.6.5q6.5.8 13 1.3c4.7 0 9.4-.4 14-.2q3.9 0 7.8.4c2 0 4.2.2 6.1-.7 2.3-1.3 3-4.5 4.4-6.5h8.6c1.6.2 3 1.2 4.4 1.7a25 25 0 0 0 5.2 1.7q6.1.9 12.2 1.5c6.3.8 12.7 1.6 19.1 1.2" class="b"/><path d="M8.5 199.8q13.1-.1 26.2 0 16-.2 32.2-.6c7.2-.2 14.5-.5 21.7.4q6.5.8 13 1.4 6.6-.4 13.1-.2c4.3 0 8.8 1 13 .2 3.1-.6 4.3-4 5.3-6.6l.8-.5h8.7q1.8.6 3.5 1.6 2.5 1.2 5.2 1.8 5.7.8 11.4 1.7c6.8 1 13.9 2 20.8 1.5" class="b"/><path d="M8.5 198c9.3-.4 18.6 0 27.9 0q15.7-.1 31.3-.5c7.3-.2 14.6-.5 21.8.4l11.3 1.4q6.5-.4 13-.2c4.7.2 9.4 1 14 .1 3-.8 3.8-4.6 5.2-7h6c1.5 0 3.1-.3 4.4.3q3.3 2 7 2.9c4.3 1 8.7 1.5 13 2.4a80 80 0 0 0 20 1.4" class="b"/><path d="m8.5 196 13-.1 16.6.3q16.5-.1 33-.5 8-.3 15.8.2 5.6.6 11.3 1.5c2 .3 4 0 6 0q6.2-.3 12.2.2c2.6.3 5.3 0 7.9.2 5 .4 5.7-2.4 7.8-6.2 3.2-1.4 7-1 10.4-1 1.5.5 3 1.6 4.4 2q3.3 1.3 7 2c4.8.9 9.7 2.2 14.7 2.8q2.6.1 5.3-.2 4.7-.2 9.5.2" class="b"/><path d="m8.5 194.2 15.7-.2q8.3.3 16.5.4 18.7-.2 37.5-.5 5.2 0 10.4.5l9.6 1.4c4.6 0 9.3-.6 13.9-.2q2.6.3 5.2.4 3-.2 6 0c8 1.2 4-5.4 14-6.1q3.5-.2 7 .3c1.4.4 2.9 1.2 4.3 1.6q7 1.8 14 3.4 1.6.5 3.4.6 2.6-.5 5.2-.6 6.1-.5 12.2.2" class="b"/><path d="m8.5 192.4 18.3-.3q7.5.5 14.8.5 17.8-.1 35.7-.5c6.7-.1 13.4 1 20 2 4.6-.1 9.3-.8 14-.2 1.3 0 2.9.4 4.3.4l4.3-.4c2-.1 4.1.6 6.1.5 1.4-.2 2.5-1.6 3.5-2.5 2.3-2.1 5.6-3 8.7-3l7.8.5a263 263 0 0 0 16.5 4.6l1.8-.3 4.3-.6q7.6-.8 14.8.2" class="b"/><path d="m8.5 190.6 20-.3 14 .5c11.6.1 23.2-.3 34.8-.4 6.4-.1 12.8 1 19.1 2 4.4-.2 8.7-.9 13-.4l4.4.5 5.2-.5c2.4-.2 4.7.9 7 .6 1.3-.5 2.4-1.8 3.5-2.5 2.2-1.6 5.1-2.3 7.8-2.3q5.3.2 10.5.7l7.8 2.6q2.2.9 4.3 1.1l2.6-.5q5.7-1 11.4-1 4.8-.3 9.5.5" class="b"/><path d="m8.5 188.8 21.8-.4q6.5.5 13 .5 17 .2 34-.2c6.1-.2 12.2 1 18.3 2 4-.4 8.1-1 12.1-.5l4.4.6c2 0 4-.6 6-.7q1.9-.1 3.6.2 1.6.6 3.4.6c1.7-.3 3-1.9 4.4-2.6 2-1.1 4.6-1.8 7-1.7q5.6 0 11.3.8c3 .6 5.7 2.2 8.7 3 1 .4 2.3-.3 3.4-.5q2.2-.5 4.4-.7 4.7-.5 9.6-.6a38 38 0 0 1 9.5.6" class="b"/><path d="M8.5 187q11.4-.2 22.7-.5 6 .5 12.1.6 17 .3 34-.2c5.5 0 11 1 16.5 2 3.8 0 7.6-1 11.3-.6q3 .3 6.1.8l4.4-.8q2.5-.5 5.2 0c1 .3 2.3 1 3.5.9 1.6 0 3-1.5 4.3-2.2q3.3-1.9 7-1.8 5.6 0 11.3.9c2.7.5 5.2 1.9 7.8 2.6 1.8 0 3.5-.9 5.2-1q3.5-.7 7-.8c5.5-.3 11-.6 16.5.5" class="b"/><path d="M8.5 185.2q11.8-.2 23.5-.5l11.4.6c11.3.3 22.6 0 33.9-.1 5.3 0 10.5 1 15.6 2 3-.2 5.9-.8 8.7-.8q2.7 0 5.3.5c1.4.2 3 .6 4.3.3 4.4-1 7-2.2 11.3 0 2 .8 3.6-.7 5.2-1.7 2.2-1 4.6-1.9 7-1.8q5.7-.1 11.3 1c2.4.5 4.7 1.6 7 2.3 2-.4 4-1.2 6-1.5q4.5-.5 8.8-.6 7.9-.4 15.6.6" class="b"/><path d="M8.5 183.4q12.6-.2 25.3-.5 13 1 26 .8c7 0 14-.5 21 0q4 .3 7.8 1.1l3.5.6 2.6-.3q3.5-.6 7-.5c2.3 0 4.6.7 7 1 2.6-.2 5.1-1.4 7.7-1.8q1.8-.3 3.5.4c1.3.7 2.9 1.6 4.4 1.3 1.4-.6 2.8-1.7 4.3-2.2 3-1.5 6.4-1.2 9.6-1q3.5.2 7 1c2 .4 4 1.4 6 2 2-.5 4-1.3 6.1-1.6q4.8-.6 9.6-.6c5.5 0 11-.1 16.5.7" class="b"/><path d="m8.5 181.7 18.3-.4 7.8-.2 6.1.4q10.5.5 21 .4 7.7-.2 15.6-.2 6.6.3 13 2c3.5-.1 7-1.3 10.5-1 2.3.1 4.6 1 7 1.2 3.5-.3 6.7-3 10.4-2.6q2.2 1.9 5.2 2.6c2.3-.8 4.5-2.5 7-3q3.3-.5 7-.2t7.7 1.3q2.3.7 4.4 1.5 1.8-.3 3.5-1c4.7-1.4 9.8-1.1 14.8-1.1 5.2.1 10.5-.1 15.6.7" class="b"/><path d="m8.5 179.9 18.3-.3c4 0 8.2-.6 12.2 0q10.8.6 21.7.6 8-.2 15.7-.2c4.4 0 8.8 1.1 13 2 3.2-.3 6.4-1.3 9.6-1.1 2.4 0 4.7.8 7 1.3 3.8 0 6.8-3 10.4-3.9 2 1.7 4.3 3.5 7 3.8 2-.9 4-2.2 6-2.7 4.7-.8 9.5-.2 14 .8 1.7.4 3.4 1.5 5.2 1.5l2.6-.9c5-1.5 10.5-1 15.7-1 5.5.1 11-.2 16.5.6" class="b"/><path d="M8.5 178c9-.2 18 0 27-.5q15.7 1.3 31.3.8c4-.1 8.2-.3 12.2.2 3.2.3 6.4 1.3 9.6 1.7 4-.6 8.1-1.9 12.2-.9 1.4.3 2.9 1 4.3 1.2 3.8 0 6.5-3.3 9.6-5 1.5.8 2.8 2.3 4.3 3.1 1.4.7 2.9 1.8 4.4 1.6 1.7-.7 3.4-1.8 5.2-2.3q4.4-.8 8.7-.2c3.3.2 6.5 1.3 9.6 2.4q3.3-1.4 7-1.8c4-.5 8-.2 12.1-.2 5.8.2 11.7-.3 17.4.6" class="b"/><path d="M8.5 176.2c9.3-.3 18.6 0 27.9-.5q14.7 1.4 29.6.8c4.6 0 9.3-.3 13.9.5l7 1.5c1 0 2.4-.4 3.4-.6 11-2.8 11.8 2.5 16.6.2 2.3-1.3 4-3.6 6-5.4l1 .1q3.6 3.9 8.6 5.7c2.2-.4 4-2 6.1-2.4 5.6-1 11.3.2 16.6 2 .8.3 1.8-.2 2.6-.4q2-.8 4.3-1c4-.6 8.2-.2 12.2-.2 6.4.2 12.8-.5 19.1.6" class="b"/><path d="M8.5 174.3c9.3-.3 18.6.2 27.9-.3a226 226 0 0 0 30.5.7c4.3 0 8.7-.2 13 .7 7.1 1.6 5 1.7 12.2.1q3.4-.7 7 .1c2.7 1 5.2 2.6 7.8 0 1.2-1.2 2.4-3 3.4-4.3l1-1 .8-.4c3 2.8 6.5 5.5 10.4 7 1.8-.5 3.4-1.9 5.2-2.3a31 31 0 0 1 16.6 1.9q1.3-.2 2.6-.6l4.3-1c4.4-.5 8.8 0 13 0 6.5.2 13-.6 19.2.6" class="b"/><path d="M8.5 172.3c9.3-.3 18.6.4 27.9-.1q14.7 1.3 29.6.7c4.3 0 8.8-.1 13 .8l5.3 1.2c2.3 0 4.6-1 7-1.3q3.4-1 6.9.1l3.4 1.5q2 .3 3.5-.7c1.9-1.7 2.8-4.5 4.4-6.5 2-1 3.6 1.6 5.2 2.5 2.4 1.7 5 3.7 7.8 4.6 1.8-.6 3.4-2 5.2-2.2a30 30 0 0 1 15.7 1.8c1.2.1 2.4-.6 3.5-.8q2.2-.6 4.3-.8c4.4-.4 8.8 0 13 0 6.5.3 13-.6 19.2 1" class="b"/><path d="M8.5 170.1c9.3-.2 18.6.8 27.9.3q14.7 1.3 29.6.7 4.8-.1 9.6.4 3.4.6 7 1.6c1 .4 2.3-.1 3.4-.3q3-.9 6-1.5 3.3-.5 6.2.8c1.3.7 2.7 1.7 4.3 1.4 3.1-.3 3.6-5.2 5.2-7.4 3.5-.7 4.5 1 7 2.7l4.4 2.8q1.5 1.2 3.4 1.7 6.6-3.6 14-2c2.3.3 4.6 1.3 7 1.7q3.2-1.2 6.9-1.6c4.3-.4 8.7 0 13 0 6.7.3 13.6-.8 20 1.2" class="b"/><path d="M8.5 167.9c6.7-.3 13.4.6 20 .7h7.9q7.4.8 14.8.9c7 .1 14-.5 20.9 0q4.8.4 9.5 2c1.5.1 3-.5 4.4-.8 3.6-1 7.7-2.5 11.3-.7l2.6 1.6q1.3.3 2.6.1c2.1-1.4 2.5-4.8 3.5-7q.8-.5 1.7-.4h2.6q2 .9 3.5 2.1l5.2 3.4c1.1.6 2.3 1.6 3.5 1.8a21 21 0 0 1 15.7-1.5c6.2 1.8 3.5 1.2 9.6-.1 5.7-1 11.6-.2 17.4-.3 6 0 12.4-.6 18.2 1.5" class="b"/><path d="M8.5 165.4c6.1-.2 12.2.8 18.3 1.2h9.6q7 1 13.9 1c7 .2 14-.4 20.9.2q3 .2 6 1c1.5.3 3 1.1 4.4.9q3-.7 6.1-1.7c3.5-1.1 7.6-1.7 10.5 1.1.5.7 1.7 1 2.6 1h.8l1-.5c1-2 1.5-5.1 2.5-7q2.7-.1 5.2 0c2.8 1.3 5.3 3.3 7.9 4.9 1.3.8 2.7 2 4.3 2.3 6.9-3.5 13-2.3 20-.1q3.4-1.1 7-1.7c4.9-.4 9.9 0 14.8 0 4 0 8.1-.2 12.2.3l3.4.6c1.1.3 2.4 1 3.5.4" class="b"/><path d="M8.5 162.7q4.9 0 9.6.6 4.8.8 9.6 1.2 4.4.2 8.7.2 4.3.7 8.7.9c6.3.3 12.8 0 19.1.1q7.5 0 14.8 2.2c1.1.3 2.4-.2 3.5-.5l4.3-1.4c2.8-.8 6-1.8 8.7-.4 1.3.6 2.3 2 3.5 2.7q1.4 0 2.6-.2l.9-2c.2-1 .8-4.5 1.7-5.3q3.1-.2 6.1.1c2.8 1.2 5.3 3.1 7.9 4.7 1.3.9 2.7 2 4.3 2.4 1.7-.4 3.5-1.4 5.2-1.7q4.9-1 9.6.2l5.2 1.4 1.8-.5c4.4-1.4 9.2-1.4 13.9-1.3q7 0 13.9.2 3 .2 6 .9l2.7.6 2.6-.8" class="b"/><path d="M8.5 160q4.9-.2 9.6.7c3.2.6 6.4 1.4 9.6 1.6l7.8.3q4.7.9 9.6 1c6.6.5 13.3.1 20 .4q6.7.2 13 2.3c2.7-.2 5.3-1.5 7.9-2.3s5.9-2 8.7-.8c1.4.7 2.4 2.3 3.5 3.3h2.6c.9-1 1.5-5.6 1.7-7q1.2-.6 2.6-.5h4.4c1.5.3 3 1.3 4.3 2q3.6 2.2 7 4.5c2.3 1.2 3 .4 5.2-.4q3.3-1 7-.9 3 .3 6 1c1.4.3 3 1.3 4.4.7l5.2-1.2c3.7-.5 7.6-.3 11.3-.3q5.7 0 11.3.3 4 .2 7.9 1.4 2.2-.6 4.3-1.3" class="b"/><path d="M8.5 157.3q4.9-.2 9.6.7c2.9.6 5.8 1.6 8.7 1.9q4 .3 7.8.5 4.3.9 8.7 1.2c6.1.5 12.2.3 18.3.5q6.7 0 13 1.9 1.3.4 2.7.5 3-.7 6-1.9c3.4-1 7-3.1 10.5-2 1.6.8 2.5 2.6 3.5 4q1.2.3 2.6.2c1.1-.7 1.5-6.3 1.7-7.5h7.9c2.7 1 5.3 2.7 7.8 4.1q2 1.6 4.3 2.6c1.8 1 3.5-.4 5.3-.8q3.3-.9 7-.6c2.6.2 5.2 1 7.7 1.6 1.4.5 3-.4 4.4-.6q3-.7 6-.9 9.3-.2 18.4.3l4.3.7c1.1.1 2.4.7 3.5.5l5.2-1.5" class="b"/><path d="M8.5 155.6c4.4-.2 8.8.4 13 .6q4.5 1.2 8.8 1.7c3.8.2 7.5 1.3 11.3 1.6q8.3.6 16.5.7 5.8 0 11.3 1.1c2 .4 4.1 1.2 6.1 1.5q2.3-.4 4.4-1.2c3.4-1 9.7-4.8 13-3.5 2.2 1 2.7 3.6 4.4 5H99l.9-.5.9-7h5.2q1.7-.1 3.5.2 3.6 1.4 7 3.4c2.1 1.3 4.4 2.9 6.9 3.6 6-2.5 10.3-2.3 16.5-.7l2.6.6 5.2-1.1q5.2-.9 10.5-.6 5.6-.1 11.3.4 3 .3 6 1c1.2.2 2.5-.3 3.6-.6q2-.7 4.3-1" class="b"/><path d="M8.5 153.8c5 0 9.9.7 14.8.7 4.4.3 8.7 1.6 13 2.3 7.5 1.3 15.2 1.3 22.7 1.6q5.3.2 10.4 1.6 2.2.6 4.4 1 2.7-.4 5.2-1.4c3.8-1.4 7.4-3.6 11.3-4.3 3.5 0 4.7 3.5 6.1 6H99l.9-7.5h7.8c5.7 1.3 10.3 5.3 15.7 7.2 6.3-2.1 9.1-2.3 15.6-.8l3.5.7q2.6-.4 5.2-1c4-.7 8.2-.6 12.2-.6a79 79 0 0 1 14.8 1.6c3-.6 5.8-1.7 8.7-2" class="b"/><path d="M8.5 152c3.8 0 7.6.7 11.4.8 5-.2 9.9.7 14.7 1.7 8.3 1.7 16.9 1.6 25.3 2.3a65 65 0 0 1 11.3 2.3c.8.3 1.8 0 2.6-.1l3.5-1.2c3.5-1.3 6.9-3.2 10.4-4.4 4.9-1.8 6.5 2 7.8 5.8q1.3.6 2.7.4l.8-7.5h7.9c4.9 1.1 9.3 3.9 13.9 6 3 1.6 3 1.2 6 .2q3.1-.9 6.2-.7 3.5.2 7 1 1.6.5 3.4.5 3.5-.8 7-1.2 11.4-1 22.6 1.1c3.5-.2 6.9-2 10.4-2" class="b"/><path d="M8.5 150.4c3.5 0 7 .6 10.5.6 3.7 0 7.6 0 11.3.8q6.8 1.4 14 2c5.1.6 10.4.7 15.6 1.4q5.3.9 10.4 2.4 3.1-.6 6.1-1.8 4-1.7 7.8-3.6c2.4-1 5.3-2.4 7.9-1.1 2 1.4 1.9 5 3.4 6.8h1.8c.3-1.9 1.1-5.8 1.7-7.5q3.5-.1 7 0c5.1 1.4 10 3.8 14.8 6 3 1.5 3 1.3 6 .2q3-.7 6.1-.7c3.6.1 7 1.2 10.5 1.5l6-1a81 81 0 0 1 22.7 1c3.7-.7 7.5-2.1 11.3-2" class="b"/><path d="M8.5 148.6c3 0 5.9.5 8.7.6q4 .1 7.9 0c4.6.3 9.3 1.5 13.9 2.1 8.7 1.4 17.6 1.2 26.1 3.7l3.5.8q3-.5 6-1.8c4-1.4 7.5-3.6 11.4-5 2-.6 4-.4 6-.3l1 .8 1.7 6.6h1.7c.9-1.2 1.5-5.3 1.8-6.7l.8-.8 5.3.1q2.2.4 4.3 1.2 6.2 2 12.2 4.7c2 1 3 1.6 5.2.7a21 21 0 0 1 7-1c3.5 0 7 .9 10.4 1.4l5.2-.7a78 78 0 0 1 20 .3q1.4.4 2.6.2c4-.7 8-2 12.2-2" class="b"/><path d="M8.5 146.9c3.8 0 7.6.7 11.4.6q7.5-.4 14.7 1.2c9.9 1.9 20 2 29.6 4.7l2.6.7q1.3-.2 2.7-.7 3.5-1 7-2.5c3-1.3 6-3.4 9.5-4h7l.8 7.5h1.7l1-.6c.2-1.3.7-5.5 1.7-6.6 4-1.3 9 1.2 13 2.2q4 1.2 7.8 2.7c1.7.6 3.5 1.6 5.3 2q6.3-2.2 13-1.2c2.9.3 5.8 1.4 8.7.7q7.8-1 15.7-.5c2.6 0 5.2.6 7.8.7 4.6-.8 9.2-2.3 14-2" class="b"/><path d="M8.5 145.1c3.5 0 7 .5 10.5.5 3.7-.1 7.6-.3 11.3.4q6.5 1.1 13 2.2c6.5.9 13 1.7 19.2 3.5l2.6.7q2.2-.5 4.3-1.3c3-1 6-2 8.7-3.4q3-1.6 6.1-2.5 4-.2 7.9 0l.8.7.9 6.7h1.7c2-7.8 2.8-8 10.5-6 4.6 1.3 9.4 2.4 13.9 4.1 5 2 3.7 1.7 8.7.6q4.4-.7 8.7-.1c2.6.2 5.2.9 7.8 1q8.2-1.2 16.6-.7c2.3 0 4.7.8 7 .5 4.8-.9 9.7-2.3 14.7-1.9" class="b"/><path d="m8.5 143.4 10.5.2q5.2-.2 10.4.2c4.4.6 8.7 1.7 13 2.4q9.8 1.4 19.2 4 1.3.5 2.6.2l4.4-1.3q4.9-1.5 9.5-3.7c1.7-.7 3.5-1.7 5.3-2h7.8c1 1 1.5 6.2 1.7 7.5h1.8c.8-1.5 1.5-4 2.6-5.4 2-2.2 6-.6 8.7-.2 4.6 1.2 9.4 2 13.9 3.7 1.7.5 3.4 1.6 5.2 1.4l2.6-.6q4.4-.8 8.7-.4c3.2.2 6.4.9 9.6 1a84 84 0 0 1 19.1 0c3.2-.2 6.4-1 9.6-1.5q4.3-.8 8.7-.5" class="b"/><path d="M8.5 141.6H20q4.8 0 9.5.2c4.4.5 8.7 1.7 13 2.6q9.3 1.7 18.3 4.3 1.4.3 2.6-.3l4.4-1.4q5.3-1.6 10.4-4c1.4-.6 2.9-1.4 4.4-1.4h7.8l.9.9c.2 1 .6 6 1.7 6.7h.9c2.2-2.2 2-6.4 6-6.3q4 .3 8 1.4 4.3.8 8.6 2 3 .7 6.1 1.8 1.3.5 2.6.7l2.6-.6q3-.7 6.1-.6c4.7 0 9.3 1 14 1q4.7-.3 9.5-.3c2.3 0 4.7.5 7 .3 6.3-.7 12.6-2.6 19.1-1.9" class="b"/><path d="M8.5 139.9c7.6.1 15.2-.2 22.7.1 3.8.5 7.5 1.7 11.3 2.5q8.3 2.1 16.5 4.5c1.1.3 2.4-.3 3.5-.6l4.3-1.5c3.5-1.2 7.2-2.2 10.5-4l2.6-1h10.5c.2 1.9 1 5.8 1.7 7.5.4 0 1.3 0 1.7-.3 2.4-5.6 3.4-6.6 9.6-5.4q6 1.4 12.2 2.6 3 .6 6 1.7c1.4.4 3 1.2 4.4.9q3.8-1 7.8-1c5 0 10 .7 14.8 1 2.3.1 4.7-.2 7-.1q3 .1 6 0c4.4-.3 8.8-1.2 13.1-1.7q4.4-.5 8.7-.1" class="b"/><path d="M8.5 138.2h15.7q4.3-.2 8.7.1c3.5.5 7 1.7 10.4 2.6q7 2.2 14 4.3c1 .5 2.4-.2 3.4-.5l4.4-1.6c3.4-1.3 7.1-2.3 10.4-3.9l2.6-1h11.3c.9 1.2 1.5 5.1 1.8 6.6l.9.9h.8c2.2-3 2.1-6.7 7-6.2 2.6.2 5.2 1 7.8 1.5l7.8 1.5q3.1.6 6.1 1.7c1.7.4 3.5 1.4 5.3.8a34 34 0 0 1 7-.9c8.3 0 16.7 1.5 25.2.9 5.2-.2 10.4-1.3 15.6-1.8q4.4-.4 8.7 0" class="b"/><path d="M8.5 136.4h15.7q5.3-.1 10.4.2c5.7 1.2 11.1 3.4 16.6 5.4 5.3 2 5 2.3 10.4 0q4.7-1.9 9.6-3.5c1.7-.6 3.5-1.6 5.2-2h12.2c1.3 1.8 1.5 5.3 2.6 7.3l.9.2.8-.4c3-5.8 5-7 11.3-5.2q6.1 1.4 12.2 2.5 3.1.7 6.1 1.7c1.4.4 3 1.2 4.4.8q3.3-.8 7-1c8-.1 16.2 1.2 24.3.7 5.2-.2 10.4-1.1 15.7-1.6q4.8-.4 9.5-.1" class="b"/><path d="M8.5 134.7c9.3 0 18.6-.2 27.9.3 4.8 1.2 9.4 3.4 14 5.3 5.3 2.4 5.1 2 10.4-.4q4.2-1.9 8.7-3.5c1.6-.5 3.4-1.4 5.2-1.7h13c1.4 2.1 1.6 5.7 3.5 7.5h.9c1.2-1.2 2.2-3 3.5-4 2.1-1.8 5.1-2 7.8-2q6.5 1.8 13 2.9 3.1.7 6.1 1.6c1.7.5 3.5 1.4 5.2.8a38 38 0 0 1 7-.8c7.8-.2 15.7.9 23.5.4 5-.2 9.9-1 14.8-1.4q5.2-.3 10.4-.1" class="b"/><path d="M8.5 133H26l11.4.3c1.4.1 3 1 4.3 1.4l7.8 3.9c4.7 2.3 5 2 9.6-.3q4.2-2.3 8.7-4c1.7-.5 3.5-1.3 5.2-1.4h8.7c1.7.1 3.6-.2 5.2.2 1.6 2.2 2 6 4.4 7.4 1-.2 1.9-1.4 2.6-2.2q1.5-1.7 3.5-2.3 3.3-1.1 7-.9 2.6 0 5.2.8 4.3.8 8.7 1.7c2.9.7 5.7 1.8 8.7 2.4q4.2-.9 8.7-1c7.5-.2 15 .5 22.6 0 5-.1 9.9-.8 14.8-1.1q5.2-.1 10.4 0" class="b"/><path d="M8.5 131.2c7.9 0 15.7-.2 23.5.5q4 0 7.9.3 4 1.8 7.8 4.2c5 3 5.4 3.2 10.4 0q5.3-3.3 11.3-5h14.8c.5-.1 1.4.1 1.8.4l.8 1.3c1.3 2 2 5 4.4 5.8 1.3-.6 2.3-2 3.5-2.7a12 12 0 0 1 4.3-1.7c3.4-.7 7-.3 10.5-.2q5.2.8 10.4 2c10.9 3.3 5.4 1.8 15.7 1.1 7.2-.3 14.5.3 21.7 0 5-.2 9.9-.8 14.8-1q5.7-.2 11.3 0" class="b"/><path d="M8.5 129.5h14.8l8.7.6c10.2.4 8.2-.5 16.6 5.3 3.4 2.3 4.6 1.7 7.8-.6 3.1-2.2 6.6-4.5 10.4-5.3q8.8 0 17.4 0c2.8 1.5 3.8 6.8 7 7.4 1.2-.6 2.3-1.7 3.5-2.4 3.4-2 7.5-2 11.3-1.9l7 .2q4.3.7 8.6 1.9l6.1 1.7c1.1.2 2.4-.3 3.5-.5l5.2-.5c7-.3 14 0 21-.2q7.3-.4 14.7-.7h11.3" class="b"/><path d="M8.5 127.7h13q4.5.6 8.8.7c4 .3 8.2 0 12.2 1 1.5.8 3 2.2 4.3 3.2 4.3 3.6 5.5 3.3 9.6-.3 2.5-2 5.3-4.4 8.7-4.6h15.7c2.8-.2 3.5.6 5.2 2.7 1.5 1.6 2.8 4.4 5.2 4.7 5.8-4 9.8-4 16.5-3.8h7.8q3.6.7 7 1.6c8.7 2.8 5.6 1.5 14 .8 7.2-.4 14.4-.2 21.7-.5q7-.1 14-.4h11.2" class="b"/><path d="M8.5 126H19c3.1.2 6.4.8 9.5.8 3.5.2 7 0 10.5.5q4.6.4 7.8 3.7c3.8 3.6 5.3 3 8.7-.5 2-1.9 4.1-4.2 7-4.5h17.4q1.3-.1 2.6.2c3 1.5 5.6 6.6 8.7 7 5.8-3.5 10.8-3.6 17.4-3.4l9.6.1q3 .6 6 1.5 2.6.8 5.3 1.5c1 .2 2.4-.3 3.4-.4q2.2-.5 4.4-.6c7.8-.5 15.7-.4 23.5-.6 7.5-.3 15.1 0 22.6-.3" class="b"/><path d="M8.5 124.2q4.9 0 9.6.3 4.8.6 9.6.8c6.4.3 14.1-1 19.1 4 3.2 3.4 5 3.1 7.9-.4 1.6-1.8 3.4-4.4 6-4.7h17.4q1.8-.1 3.5.4c2.3 1.2 4.2 3.1 6.1 4.8 1 .8 2.2 1.9 3.5 2 6.5-3.5 12-3.2 19.1-3 3.5 0 7-.3 10.5.1q2.6.6 5.2 1.4l5.2 1.4q3.5-.8 7-1.2c9.5-.7 19.1-.5 28.7-.7q8.3.2 16.5-.2" class="b"/><path d="M8.5 122.6c6.4.1 12.8 1.2 19.2 1.2 6.1.1 13.2-1.1 18.3 3.2 3 2.8 4.6 4.8 7.8.6 1.5-1.7 2.8-4.4 5.2-5.1h13c2.6.1 5.3-.3 7.9.2 4.3 1.4 7.2 5.3 11.3 7 7.5-3.4 12-3 20-2.9 3.8 0 7.6-.3 11.3.2q2.7.4 5.2 1.3 2.2.8 4.4 1.2 3.4-.7 7-1c14.7-1.4 29.6-.3 44.3-1" class="b"/><path d="m8.5 121.4 15.7.9q6-.2 12.2-.2c5.6.1 8.2 1.8 12.2 5.6 4.8 3.2 6-8 11.3-7H72c3 .1 6-.3 8.7 1q3.3 1.5 6.1 3.5l3.5 2.2q1.4.7 2.6 0a30 30 0 0 1 8.7-2c3.2-.3 6.4-.1 9.6-.2h9.6c4.2-.2 8.1 1.5 12.2 2.5 1.7.1 3.5-.6 5.2-.8q4.3-.5 8.7-.8c12.1-.5 24.4.3 36.5-.4" class="b"/><path d="M8.5 120.2q9.1.8 18.3.5c6.8-.2 14.8-1.7 20 3.7 2.2 2.2 3.9 3.2 6.1.3 1.8-2 3.2-5.2 6.1-5.7h10.4c2.9.2 6-.4 8.7.5q3.7 1.1 7 3c2.3 1.2 4.5 2.9 7 3.7 8.5-3.3 13.8-2.5 22.6-2.6 3.7 0 7.6-.4 11.3.2q3 .5 6 1.6c1.2.2 2.4.8 3.6.6 7.4-1.8 15-1.9 22.6-1.9 8.4 0 16.8.4 25.2-.2" class="b"/><path d="M8.5 119.1q7.9.6 15.7.2c3.8-.1 7.6-.6 11.3-.6a15 15 0 0 1 12.2 4.7c5 5.2 6.7-6.5 12.2-6.1h14.8c2.3.2 4.6 1.3 7 2 3 1 5.8 2.7 8.6 4.2q1.3.6 2.6.9l3.5-1.1q3.8-1.2 7.8-1.3h10.5l9.5-.3c4.3 0 8.2 1.7 12.2 2.6q6.5-1.4 13-1.8c11.4-.5 22.7.4 34-.4" class="b"/><path d="M8.5 117.9q7.6.4 14.8 0 6.1-.6 12.2-1c5-.1 8.7 1 12.2 4.7 5 5.3 6.7-6 12.2-6q7.4-.1 14.8 0l8.7 2.7q3.9 1.7 7.8 3.5a8 8 0 0 0 2.6.8q2.2-.7 4.4-1.3 3.8-1 7.8-1h10.4c3.2 0 6.4-.4 9.6-.3 4.2 0 8.1 1.6 12.2 2.6q6-1.4 12.1-1.8c11-.6 22.1.3 33.1-.5" class="b"/><path d="M8.5 116.5q7 .4 14-.2 6-.6 12.1-1c5.3-.3 9.3.5 13 4.4 5.2 5.5 6.8-5.6 12.3-5.9h13.9q2.6.6 5.2 1.6 4.9 1.2 9.6 3.3 3 1.4 6 2.2 4.3-1.5 8.8-2c6.3-.6 12.7 0 19.1-.5q5.3-.5 10.4.5 2.7.7 5.3 1.5 1.6.7 3.4.2a81 81 0 0 1 21-1.8c6.9 0 13.9.2 20.8-.3" class="b"/><path d="M8.5 115q6.7.1 13-.2 6.6-.7 13.1-1.3c5.3-.4 9.4.4 13 4.4 5.4 5.7 6.9-5.4 12.3-5.8h13.9c2 .4 4 1.3 6 1.8q5 1.4 9.6 3.2 3 1.2 6.1 2c3-.6 5.8-1.6 8.7-1.9 6.7-.7 13.4 0 20-.5q4.9-.6 9.6.2c3 .5 5.8 1.9 8.7 2.2q8.2-2 16.6-2c8-.1 16.2.1 24.3-.4" class="b"/><path d="M8.5 113.3q6.7.1 13-.2c4.7-.4 9.4-1.2 14-1.4 5-.3 8.8.7 12.2 4.3 5.6 6 6.8-5.1 12.2-5.6q7-.1 13.9-.1c2 .3 4 1.3 6 1.8q5.9 1.5 11.4 3.6c2 .7 4 1.5 6 1.6q4.8-1.4 9.6-2c7.3-.5 14.6.1 21.8-.6a26 26 0 0 1 9.6 1l4.3 1.2q1.8.7 3.5.2a72 72 0 0 1 18.3-1.8q9.6.1 19.1-.4" class="b"/><path d="M8.5 111.4q6.1.1 12.2 0 7-.8 14-1.4c5.2-.4 8.1 0 12.1 3.6 7.3 7.3 6.9-3.8 13-5h14.9q3 .8 6 1.9 5.7 1.5 11.4 3.5 3 1 6 1.6a63 63 0 0 1 10.5-2c7.2-.6 14.5 0 21.8-.7q4.8-.5 9.5.9l4.4 1.2c1 .2 2.3.8 3.4.5a79 79 0 0 1 13.1-2c7.5-.2 15.1 0 22.6-.3" class="b"/><path d="M8.5 109.5c4.4 0 8.8.3 13 0 4.7-.3 9.4-1.1 14-1.3 5-.7 9.3 2.2 13 5 6 4.7 6.8-7 12.2-6.4h14.8c2.1.4 4.1 1.4 6.1 2l12.2 3.7q2.6.8 5.2 1.3c1.1.1 2.4-.4 3.5-.6l4.4-.8q7.7-1.2 15.6-.9c4.4.1 8.7-.5 13-.6q5.4.6 10.5 2.1l3.5.9q1.3 0 2.6-.4 4.3-1 8.7-1.4c7.5-.6 15-.3 22.6-.6" class="b"/><path d="M8.5 107.4q6.7.5 13 .2c4.4-.2 8.8-.9 13.1-1.2 2.1-.3 4.2.4 6.1 1 3.1 1 6 2.8 8.7 4.5 2.9 2 5.4-1.5 7-3.5q1.2-1.6 2.6-3 1.3-.5 2.6-.3 7.9-.2 15.7 0 8.6 3.1 17.4 5.6c8 2 5.3 1.4 13 0a83 83 0 0 1 15.7-1q6-.2 12.2-.6 5.7.3 11.3 1.7 3 1 6 1.4 5.2-1.2 10.5-1.7c6.6-.7 13.4-.5 20-.6" class="b"/><path d="M8.5 105.4q6.1.5 12.2.4c4.4-.1 8.7-.7 13-1 1.8-.2 3.6.6 5.3 1q5.4 1.6 10.4 4.3c3.1 2 5.9-1.6 7.9-3.6 1.6-1.8 2.5-3.5 5.2-3.2h10.4q3 0 6.1.2 8.2 3.2 16.5 5.4 3.5.9 7 1.5l5.2-1a86 86 0 0 1 15.7-1.8q5.6 0 11.3-.3c3.4.3 7 .3 10.4.9q3.5.6 7 1.4c2 .5 4 1.1 6 .5q12.7-2.3 25.3-1.7" class="b"/><path d="M8.5 103.3q7 .8 14 .6l7-.5c1.3 0 2.9-.5 4.3 0a80 80 0 0 1 16.5 5.3c2.7 1 6-2.4 7.8-4 2.2-2 3-3.4 6.1-3.1H80c2 .4 4 1.6 6 2.3a89 89 0 0 0 10.5 3.1c2.6.5 5.2 1.4 7.8 1.6 6.4-1.1 12.7-2.7 19.2-3q5.2 0 10.4-.2c3.4.5 7 .4 10.5.7 5 .2 9.8 1.6 14.7 2.6 3.2-.2 6.4-1 9.6-1.3q7.5-.7 14.8-.4" class="b"/><path d="M8.5 101.2a75 75 0 0 0 20 .6c1.2 0 2.5-.3 3.5 0q9.4 2 18.3 5.2c2.5.8 5.8-1.9 7.8-3.3 2.2-1.4 4.1-4.2 7-3.8h16.5c2.1.4 4 1.7 6.1 2.4q4.6 1.8 9.6 2.9l7.8 1.7c5.9-.5 11.6-2.6 17.4-3.2q4.8-.4 9.6-.3 5.2 1 10.4.9 4.8 0 9.6.7 5.3.9 10.4 1.9 1.8.2 3.5-.3l4.4-.5q6.5-.7 13-.4" class="b"/><path d="M8.5 99.2a69 69 0 0 0 19.2 1q2.2-.2 4.3.5 9.3 2 18.3 4.6c2.8.5 7.2-2.4 9.6-3.8 2.1-1.3 4.2-3.6 7-3.4H78c2 .1 4.2-.2 6.1.2 3.7 1.6 7.4 3.4 11.3 4.4q5.7 1.5 11.4 2.5c5-.3 9.8-2.3 14.7-3.3a46 46 0 0 1 9.6-1q3.8 1.5 7.8 1.6c4.7.3 9.4 0 14 .5 4.3.4 8.7 1.4 13 2 2.3.5 4.7-.2 7-.3q5.2-.4 10.4-.4" class="b"/><path d="M8.5 97.2a68 68 0 0 0 19.2 1.5q6 1.5 12.2 2.7l7 1.4c1.6.4 3.4 1.1 5.1.6q5.1-1.3 9.6-3.9c2.2-1 4.4-3 7-3.1H85c2.5.3 4.6 2.1 7 3 5.2 2 11 3 16.5 4 3.9-.1 7.6-1.7 11.3-2.8 3.3-1 6.9-2 10.4-2q2.2.9 4.4 1.5c7.1 1.7 14.5.4 21.8 1.2 4.9.5 9.8 1.6 14.7 2.2 4 0 8.2-.7 12.2-.5" class="b"/><path d="M8.5 95.8c2-.3 4.1.3 6.1.7q4.3.7 8.7.7 2.3.1 4.4.7l6 1.2q7 1.3 14 2.4c3.2.8 6.5-.5 9.6-1.3q4-1.4 7.8-3.3c1.7-.7 3.4-1.8 5.2-2.2q8.7 0 17.4 0C91 96.1 94 98 97.3 99q6 1.6 12.2 2.8c2.3.4 4.7-.7 7-1.4 3.1-1 6.2-2.6 9.5-3.5q1.7-.5 3.5-.7l1.7.8c8.3 3.6 17.4 2 26.1 2.4 6.1.4 12.2 1.9 18.3 2.3 2.6.3 5.2 0 7.8 0" class="b"/><path d="M8.5 94.7c11.2 0 22 3.3 33.1 4.5 2.9.2 5.8 1.2 8.7.7q7.2-1 14-3.5c2.9-1 5.7-2.5 8.6-3.4q5.3-.1 10.5-.1h4.3q1.4-.1 2.6.4c3.5 2 7.3 3.9 11.3 4.7q4.8 1.1 9.6 2c1.1.3 2.4-.2 3.5-.5q3.2-1 6-2.4 3-1.6 6.2-2.7l1.7-.6q1.4.3 2.6 1c9.4 3.9 17.3 2.6 27 2.7 8.5.1 16.8 2.4 25.2 2.3" class="b"/><path d="M8.5 93.7c12.9.8 25.5 4 38.3 4.6q14.1-1 27-6.3c2.7-1.3 5.8-.7 8.7-.8h6.1c1.1 0 2.5-.2 3.5.3q2.5 1.6 5.2 3 3.8 1.4 7.8 2.4l5.3 1.1c1 .2 2.3.6 3.4.3 5.5-1 9.6-5.1 14.8-6.7 13.4 5.3 17.6 4.4 31.4 4 7.8-.1 15.6 1.8 23.4 2" class="b"/><path d="M8.5 92.6c11.4 1.2 22.6 3.3 34 4 5-.1 9.9-.9 14.8-1.4A92 92 0 0 0 79 89.5q3-.1 6.1-.1H93c2 1 3.9 2.7 6 3.6 3.3 1.5 7 2.2 10.5 3 1.4.3 3 .8 4.3.7 5-.7 8.8-4.4 13-6.6l1.8-.6 1.8.6 3.4 1.1a61 61 0 0 0 8.7 2.3c7 1.3 14 .2 21 .2 6.6-.1 13.3 1.2 20 1.6" class="b"/><path d="M8.5 91.6c8.1 1 16.3 2.3 24.4 2.8q3.5.3 7 .4l7.8-.6c8.7-.6 17.6-1.4 26.1-3.6q2.7-.6 5.2-1.7c1.1-.5 2.3-1.2 3.5-1.2h11.3c1.3 0 2.5 1.3 3.5 2l3.5 2Q106.3 94 112 95c3.4.6 6.8-1.5 9.6-3.4 2.3-1.6 4.7-4.3 7.8-3.8 6.6 1.8 13 4.5 20 4.6 5.8.3 11.6-.6 17.4-.6 5.5 0 11 .9 16.5 1.3" class="b"/><path d="M8.5 90.4q12.6 2.1 25.3 2.7 10.5-.6 20.9-1.3 11-.5 21.7-2.8 2.7-.5 5.3-2c.7-.3 1.7-.9 2.6-1H92c1.5 0 3.2-.5 4.4.4q2.4 2.3 5.3 4 2.4 1 5.2 1.8c2.2.5 4.6 1.4 7 1 4.4-.7 7.8-3.9 11.2-6.5q1.7-1 3.5-.8 2.7 0 5.3.8c6.2 1.9 12.5 3.9 19 3.9 5.3 0 10.5-.8 15.8-.9q7.4.1 14.7 1" class="b"/><path d="M8.5 89.2q9.6 1.6 19.2 2.1l29.6-1.5q10.5-.4 20.9-2.2c2.7-.6 5.3-2 7.8-3.3q2.2-.1 4.3-.1h6.1c1.7.8 2.8 2.8 4.4 3.9q3.1 2.3 7 3 4.4 1.4 8.6-.8c3-1.3 5.3-3.7 7.9-5.6 1.5-.9 3.5-.4 5.2-.5 4.6-.4 8.7 1.5 13 2.6q7 2 14 1.9c4.6 0 9.2-.8 13.9-1q6.5-.1 13 .6" class="b"/><path d="M8.5 88q7.5 1.3 14.8 1.6l14-.8c10.7-.5 21.4-.6 32.2-1.5C74 87 79 86.7 83.4 85c1.8-.6 3.4-2 5.2-2.5h7.8c2.4 1.9 4.2 4.6 7 6 7.2 3.7 12.8-.3 18.2-4.9q1.1-1 2.7-1.1h4.3c2.9 0 6-.4 8.7.4 6.6 1.7 13.2 4 20 3.9q6.1-.2 12.2-1l14 .3" class="b"/><path d="M8.5 86.6q5.3.9 10.5 1.3l12.2-.8q12.6-.6 25.2-.8l14.8-.7q5.3-.2 10.4-1.1 4.3-.8 7.9-3.2c.9-.7 2.3-.6 3.4-.6.8 0 2 0 2.6.3 3.5 4.3 7.1 8 13.1 7.2q7.6-1.7 13-7.1 1.3-.6 2.7-.4h4.3q4.8-.1 9.6.1c6 1.2 12 3.4 18.2 3.8 3.5.4 7-.1 10.5-.2q8.3 0 16.5-.2" class="b"/><path d="M8.5 85.2q4 .7 7.9 1l11.3-1q12-.6 24.4-.7 9-.1 18.2-.5c3.8-.2 7.6-.2 11.3-.8q4.1-.5 7.9-2.1c1.4-.6 2.7-2.2 4.3-2.1 1.3 1.2 2.2 3 3.5 4.2 2 2 5 3.3 7.8 3.3 5.9-.4 11.8-3.5 16.5-6.9 1-.7 2.4-.6 3.5-.6H140c5.3.5 10.4 2.4 15.7 3.1 2.5.5 5.2.4 7.8.5 6.6.6 13.4.2 20 0" class="b"/><path d="M8.5 83.7q3 .6 6.1.7 5.7-.7 11.3-1 11.8-.6 23.5-.7 11.3-.1 22.7-.5c7.3-.1 14.8-.4 21.7-3 1.9 3.5 5.7 5.7 9.6 5.5q2.7-.4 5.2-1.3 7-1.8 13-5.4 1.7-1 3.6-.8h16.5c3.8-.1 7.6 1 11.3 1.7q3 .7 6 1 2.3.6 4.4 1c6.7.8 13.4.3 20 0" class="b"/><path d="m8.5 82.2 3.5.4q3-.2 6.1-.5 6-.6 12.2-.9c12.5-.5 25-.3 37.4-.6q5.7 0 11.3-.2c4.4-.2 8.7-.7 13-.7.5 0 1.4.1 1.8.3l1.8 1.5c2 1.2 4.6 1.8 7 1.3q3.9-1 7.7-2.2 6-1.4 11.3-4.2 1.3-.6 2.7-1h9.6l13.8.1q4 .3 7.9 1c1.1.2 2.4.9 3.5 1.3q2.5.9 5.2 1.3c6.3 1 12.8.6 19.1.3" class="b"/><path d="M8.5 80.6c2.6.6 5.3 0 7.9-.3l12.1-1c11-.4 22.1-.2 33.1-.4l17.4-.2c3.8-.1 7.6-.4 11.3 0q2.4.1 4.4 1.6 2 .9 4.3 1c2.7-.3 5.3-1.3 7.9-2q5.2-1.3 10.4-2.8 3-1 6-2.4c1.4-.5 3-.3 4.4-.3H147c2.5 0 5.3-.3 7.8.2 3.1 1 6.2 2.6 9.6 3.2 6.3 1.1 12.8 1 19.1.6" class="b"/><path d="M8.5 79c2.3.5 4.7-.2 7-.4q5.7-.8 11.3-1c10.4-.6 20.9-.3 31.3-.5l24.4-.2q4-.1 7.8.5c2.1.4 4 1.9 6.1 2 3 .4 5.9-1 8.7-1.7q5.3-1.3 10.5-2.5c3.2-.8 6.3-2.3 9.5-3.1h5.3q12-.1 24.3 0c3.3.8 6.3 2.5 9.6 3a75 75 0 0 0 19.1 1" class="b"/><path d="M8.5 77.3c2.3.5 4.7-.3 7-.5q5.7-.9 11.3-1.2c10.2-.4 20.3 0 30.5-.3 7.5 0 15-.4 22.6-.2 3.5 0 7-.1 10.4.8 1.5.5 2.9 1.4 4.4 1.7 2.6.6 5.3-.6 7.8-1.2q4.7-1.3 9.6-2.2 4.4-1 8.7-2.3l4.3-1.4q1.8-.3 3.5-.2h26.1c1.8.1 3.6 1 5.3 1.5q3 1 6 1.7 8.8 1.4 17.4 1" class="b"/><path d="M8.5 75.6c2.3.5 4.7-.3 7-.6q5.2-.9 10.4-1.3c10.2-.5 20.3 0 30.5-.2 7.5 0 15-.5 22.6-.3 3.5 0 7.1-.1 10.5.8 1.4.4 2.8 1.4 4.3 1.7 2 .6 4.2 0 6.1-.6l7.8-1.9q5.8-1 11.3-2.5c3-.6 5.7-2.2 8.7-2.2h27.9c3.5.7 6.9 2.3 10.4 3a77 77 0 0 0 17.4 1" class="b"/><path d="M8.5 73.9c2.3.5 4.7-.4 7-.7q5.2-1 10.4-1.4c9.9-.5 19.8 0 29.6-.1 7.6 0 15.1-.6 22.7-.5 3.7.1 7.6-.2 11.3.9l3.4 1.6 2.7.5q1.7-.1 3.4-.7 3.5-1 7-1.6 5.3-1 10.4-2.1 4.9-1.2 9.6-2.8 2.2-.3 4.4-.2h26c3.6.6 7 2 10.5 2.7q8.2 1.5 16.5 1.1" class="b"/><path d="M8.5 72.2c2 .5 4.2-.3 6.1-.7q4.3-1 8.7-1.6c7.2-.7 14.5-.1 21.8-.1q10 0 20-.3c7.2-.3 14.5-.8 21.8-.2 1.2 0 2.4 1 3.4 1.5q1.8.8 3.5 1.2a9 9 0 0 0 5.3-.2l7-1.6a144 144 0 0 0 19-4.4q3-1 6.1-.8h25.3c3.5.1 7 1.8 10.4 2.3q8.2 1.5 16.5 1.2" class="b"/><path d="M8.5 70.6c2 .4 4.2-.6 6.1-1q4.3-1.4 8.7-1.8c7.3-.7 14.5 0 21.8 0q9.6.3 19.1-.1c7.3-.3 14.5-1.2 21.8-.9l2.6 1.3q2.5 1.2 5.2 2c1.4.2 3 .7 4.4.3l7-1.5q7.9-1.4 15.6-3.4c2.6-.7 5.2-1.7 7.8-2.1q4-.1 7.9-.1h20c3.8-.3 7.5 1.4 11.3 2q7.7 1.3 15.6 1" class="b"/><path d="M8.5 69c1.8.2 3.6-.7 5.3-1.2q3.4-1.4 7-2c7.7-1.2 15.6 0 23.4.2 13.4.5 26.7-.7 40-2q4.2 2.5 8.7 3.7c2 .5 4.1 1.2 6.1 1 7-1.4 14-2.5 21-4.5 3.1-.8 6.3-2 9.5-2.6h31.3c3 .4 5.8 1.3 8.7 1.7q7 1.1 14 .7" class="b"/><path d="M8.5 67.3c1.6.2 3-.7 4.4-1.4A28 28 0 0 1 31.2 63l11.3.8a194 194 0 0 0 34-1.4c2-.1 4-.9 6-.7q4.6 2.1 9.6 3.6c2.8.7 5.8 1.5 8.7 1.6q7.9-1.2 15.6-3.2 5.7-1.8 11.3-3.4 1.4-.3 2.6-.2 2.2 0 4.4-.2c8.1-.4 16.3 0 24.4-.2l4.3.1q3.5.7 7 1.3 6.5 1 13 .5" class="b"/><path d="M8.5 65.6c1 .2 2-.5 2.6-1q1.6-1.6 3.5-2.6c7.4-3.7 15.8-1 23.5-.5q10 1 20 .7 8.9-.3 17.4-1.8 2.2-.4 4.4-.7 3.4 1.2 7 2.1c5.4 1.4 10.9 3 16.5 3.5a82 82 0 0 0 11.3-2.2l7.8-2.7c2-.7 4-1.7 6.1-1.3 4.1.4 8.2-.6 12.2-1h16.5c3.2 0 6.5-.3 9.6.2q8.2 2 16.5 1" class="b"/><path d="M8.5 63.9h1c1.4-2.8 2.5-6.1 6-6.6 6.7-1.3 13.4.6 20 1.7a128 128 0 0 0 36.6 0l4.3-.9q1.3-.3 2.6.3c6 1.6 12.2 2.5 18.3 3.6q4.7.9 9.6 1.6 3-.3 6-1c4.3-1 8.2-3.2 12.2-4.6 4 0 8.2.3 12.2-.4 2-.3 4-1 6.1-1.2h21.8c2.9-.2 5.8.4 8.7.7q4.7.6 9.5 0" class="b"/><path d="M8.5 61.8c1.6-2.4 2.4-6 5.3-7.1 1.3-.2 3 0 4.3-.1h8.7q2.6.4 5.2 1.1 12 3 24.4 2.7a85 85 0 0 0 18.3-2c2.9.4 5.8 1.2 8.7 1.6q7.4 1 14.8 1.8l8.7 1.3c2 .2 4 .9 6 .5a26 26 0 0 0 7-2.3c1.4-.6 2.8-1.8 4.4-2 4.3-.6 8.7 0 13-.7 3.2-.4 6.4-1.5 9.6-2h25.3q5.5.8 11.2.2" class="b"/><path d="M8.5 58.4c2-2.6 4.4-5.4 7.9-5.5h13.9c3.5.4 7 1.8 10.4 2.4A91 91 0 0 0 73 55l8.7 1.4c7.5.8 15.1 1 22.6 1.9q4 .4 7.9 1c1.4.2 3 1 4.3.5 2.8-.5 5.1-2.4 7.9-3 4.8-1.4 9.8-.9 14.7-1.5 4.2-.4 8.1-2 12.2-2.5h32.2" class="b"/><path d="M8.5 55.9c4.2-5.2 11.4-4.8 17.4-4.8l7.9.1q3.4.9 7 1.8c8.8 2 18 2.1 27 1.2 1.6-.2 3.4-.8 5.1-.3q4.4.9 8.7 1.1 10.5.7 21 1 5.6.1 11.2 1c1.8.3 3.5 1.3 5.3 1.3l2.6-1a35 35 0 0 1 10.4-2.7c4.6-.3 9.4-.5 14-1.5q4.6-1.1 9.5-1.9 6-.2 12.2 0h10.4c2 0 3.6 1.3 5.2 2.1" class="b"/><path d="M8.5 53.7c4.9-4.6 12.1-3.9 18.3-4.3q4.8-.2 9.6.1 3.4 1 7 1.9 6.8 1.4 13.9 1.5 6 0 12.1-.7 5.3 1 10.5 1.3c10.1.8 20.3.3 30.4.7q5 0 9.6 2 1.4.5 2.6 0L126 55c5.6-2 11.6-1.9 17.4-2.6q5.7-.8 11.3-1.7 5.2-.7 10.5-.8c12.7-.4 9.3 5 18.2 6.5" class="b"/><path d="M8.5 51.6C13.5 48 20 48.5 26 48q6.1-.5 12.2-.2c3.2.8 6.3 2 9.6 2.4a76 76 0 0 0 20 .5l4.4.8c11.5 1.5 23.2 1 34.8.7 3.1 0 6.4-.3 9.5.2l4.4 1.6c1 .3 2.3 1 3.5.7q4.6-1.6 9.5-2.5 5.7-.7 11.3-1c6.1-.7 12.2-1.8 18.3-1q3.7.4 7 1.8c2.3 1 4.5 2.3 7 2.9 1.9.5 4 .3 6 .3" class="b"/><path d="m8.5 49.6 3.5-1.7c4-1 8.2-1 12.2-1.3 5.5-.3 11-1.2 16.5-.5A58 58 0 0 0 65.1 49q2.2.4 4.3.7a170 170 0 0 0 31.4 1q7-.3 13.9-.8 5.3 1.4 10.4 3c1.4.5 3-.5 4.4-.8q3.3-1 7-1.5 6-.6 12.1-1c4-.4 8.2-.8 12.2-.3q3 .5 6 1.2 3.7 1 7 2.2 4.8 1.4 9.6.5" class="b"/><path d="M8.5 47.5Q10.8 47 13 46c3.7-.6 7.5-.6 11.3-.8 5.5-.3 11-.9 16.5-.9 1.8 0 3.6.8 5.3 1.2q3.4.9 7 1.3 4.6.4 9.5.4l7 1.1A178 178 0 0 0 113 48q6.1.9 12.1 2.5c1.1.3 2.4.9 3.5.7q3.4-1 7-1.8 7.3-1 14.8-1.3c4.6-.2 9.4-.4 13.9.8 4.4.7 8.6 2.6 13 2.7q3-.2 6.1-.7" class="b"/><path d="m8.5 45.5 5.3-1.5q4.8-.3 9.5-.4 7.5-.5 14.8-.8l7 .1q3.4 1 7 1.6 3.8.4 7.8.7 5.2 1 10.4 1.6a199 199 0 0 0 41-.4l7.7.8q5 .6 9.6 2c2 .6 4.1-.6 6.1-1q4.7-.9 9.6-1.2 7.8-.6 15.6-.1c5.3.5 10.4 2.1 15.7 2.8q3.9-.3 7.8-1" class="b"/><path d="m8.5 43.5 6.1-1.4q4.8 0 9.6-.2 7.8-.3 15.7-.5c10-.2 19.7 2.8 29.6 3.8a223 223 0 0 0 37.4.2q2.2-.5 4.3-.3 5.7.2 11.3.7 4.5.7 8.7 1.8c1.8 0 3.6-.7 5.3-1q3.8-.7 7.8-1 7.4-.6 14.8-.1c5.2.3 10.4 1.9 15.6 2.4q4.5-.4 8.7-1" class="b"/><path d="M8.5 41.4c2.3-.2 4.7-1 7-1.1h7.8c5.2 0 10.5-.4 15.7-.4 10 0 19.7 2.6 29.6 3.5a250 250 0 0 0 37.4.4q3-.4 6 0 5.8 0 11.4.3 4.8.5 9.6 1.8c2.3-.2 4.6-1 7-1.3a83 83 0 0 1 23.4-.1q4.8.9 9.6 1.5 2.2.2 4.3-.3l6.1-.6" class="b"/><path d="m8.5 39.4 7-1 7.8.1c5.5 0 11-.3 16.6 0 9.6.2 19 2.5 28.7 3.3a290 290 0 0 0 38.3.3l8.7.2q5.2 0 10.4.3 4.5.5 8.7 1.6 9-2 18.3-2 5.6.1 11.3.9c2.6.3 5.2 1 7.8 1.1q2.2.3 4.4-.2l7-.8" class="b"/><path d="m8.5 37.3 7.9-.8 7 .2q8.2-.2 16.5.1c9.3.5 18.5 2.5 27.8 3.2q18.7 1.6 37.4.6c4.7 0 9.3.3 14 0q5.2-.1 10.4.5c2.3.3 4.6 1.1 7 1.3q8.2-1.8 16.5-1.7c6.4 0 12.8 1 19.1 2 3.8-.3 7.6-1 11.3-1.2" class="b"/><path d="M8.5 35.1q4 0 7.9-.6l7 .2q8.6 0 17.3.4c9 .7 18 2.6 27 3.2q18.3 1.3 36.6.7 8.2.4 16.5 0 4.8-.1 9.6.4c2.3.3 4.6 1 7 1.3a69 69 0 0 1 15.6-1.6c6.4 0 12.8 1 19.1 1.8q5.7-.7 11.3-1.2" class="b"/><path d="M8.5 33c3.5 0 7-.6 10.5-.4 7 .3 14 .1 20.9.7 8.7.7 17.3 2.5 26 3.1q18.3 1.3 36.6 1 4 0 7.9.2l11.3-.3a60 60 0 0 1 9.5.3q3.5.6 7 1.4 7.3-1.5 14.8-1.5c6.1 0 12.2 1 18.3 1.6 4-.3 8-1 12.1-1.2" class="b"/><path d="M8.5 30.8c3.5.1 7-.3 10.5-.3 7.2.4 14.5.2 21.7 1Q50 32.8 59 34 69.5 35 80 35.5c9.9.3 19.7-.2 29.6.4 6.4.3 12.8-.5 19.1-.3 3.6 0 7 1 10.5 1.7q4.3-.9 8.7-1.2c7.5-.7 15.1.4 22.6 1.3 4.3-.3 8.7-1 13-1.3" class="b"/><path d="M8.5 28.6H19q10-.2 20 .7c6.1.7 12.2 2 18.3 2.7q10.4 1.4 20.9 1.6 11.2.3 22.6.2 9.6.7 19.1.2c4.4-.2 8.8-.5 13 .1l5.3 1q1.7.7 3.5 0c9.2-1.6 18.6-.6 27.8.5 4.7-.3 9.3-1 14-1.3" class="b"/><path d="M8.5 26.7c9.6.2 19.2-.3 28.8.4 8.4.8 16.7 3 25.2 3.7C74.4 32 86.3 32.2 98.2 32q3.9 0 7.8.4 6.1.3 12.2 0c6.4-.3 12.9-1 19.1.8l2.6.5q1.8-.1 3.5-.4 3-.4 6.1-.6c6.4-.4 12.8.5 19.1 1.2q7.6-.8 14.8-1.4" class="b"/><path d="M8.5 25h19.2q5.6-.1 11.3.2c7.9 1 15.6 3.2 23.5 3.9 11.8 1.2 23.8 1.2 35.7 1q3.4.2 7 .5 5.6.3 11.2.1c5.2 0 10.5-.7 15.7-.3 3 .2 5.8 1.2 8.7 1.7q3-.6 6-1c7-.6 14 .2 21 1l15.6-1.5" class="b"/><path d="M8.5 23.3h21q6-.2 12.1.1c3.2.4 6.4 1.4 9.6 2q5.6 1.3 11.3 1.9c11.5 1.2 23.2 1.2 34.8 1q4 .2 7.8.5 6.1.4 12.2.2c5-.2 9.9-.8 14.8-.4 3 .3 5.8 1.2 8.7 1.8l3.5-.6c7.5-1.1 15.1-.2 22.6.6q8.3-1 16.5-1.7" class="b"/><path d="M8.5 21.5h34.9q4.4 1 8.7 2 5.5 1.4 11.3 2c11 1.2 22 1.2 33 1 3 0 5.9.5 8.7.6q6.7.3 13 0c5-.2 10-.8 14.9-.2q3.4.6 7 1.6c1 .3 2.3-.2 3.4-.3 7.5-1.4 15.1-.3 22.6.5q8.7-1 17.4-2" class="b"/><path d="M8.5 19.8h36.6c3 .4 5.8 1.5 8.7 2.2A82 82 0 0 0 65 23.9c10.1 1 20.3 1 30.5.9 3.1-.1 6.4.4 9.5.5q7.9.4 15.7-.1c4-.3 8.2-.6 12.2 0 2.6.3 5.2 1.4 7.8 1.7l4.4-.8c6.6-1 13.3.3 20 .9q9-1.2 18.2-2.2" class="b"/><path d="M8.5 18h38.3c3 .4 5.8 1.7 8.7 2.4q5.7 1.3 11.3 1.8c9.6 1 19.2.9 28.8.7q5.6.4 11.3.7 7.8.3 15.6-.4 4.9-.4 9.6 0 3.5.8 7 1.8c1.3.4 3-.2 4.3-.4q2.6-.5 5.2-.6 4.5 0 8.7.5c2.3.2 4.7.8 7 .8 6.4-.8 12.7-2.2 19.1-2.7" class="b"/><path d="M8.5 16.3h40c3 .5 5.9 1.8 8.8 2.5q6 1.4 12.1 1.8c8.7.8 17.5.7 26.2.5q7.8.7 15.6.7 6.6 0 13-.6 4-.2 7.9.3c2.4.4 4.7 1.4 7 2 1.4 0 3-.6 4.3-.8q3.5-.7 7-.6 3.5.2 7 .8c2 .2 4 .9 6 .7q5.3-.9 10.5-2 4.8-.7 9.5-1.2" class="b"/><path d="M8.5 14.6h41c3 0 5.7 1.7 8.6 2.3q7 1.7 14 2c8 .8 16.2.3 24.3.5q8.7.8 17.4.5c4.4 0 8.7-.6 13-.6q3.7 0 7 1c1.7.4 3.5 1.4 5.3 1.5 4.2-1.2 8.6-2.1 13-1.3q3 .4 6.1 1c1.4.2 3 .6 4.4.4q5.3-1.1 10.4-2.5 5.2-.9 10.4-1.6" class="b"/><path d="M8.5 12.8h42.7c1.4 0 3 .7 4.3 1.2q2.6.9 5.3 1.5Q68 17 75.5 17.4q9.6.3 19.2.1 6.5.5 13 .6c7 .3 14-1 21-.6q4 .5 7.8 2.2c1.6.8 3.5-.3 5.2-.6q3-.8 6-.9c4.5-.2 8.7 2.1 13.1 2 3.6-.3 7-2.1 10.5-3 4-1.1 8-1.5 12.1-2.2" class="b"/></svg>