<svg xmlns="http://www.w3.org/2000/svg" id="a" width="1920" height="2400" viewBox="0 0 192 240"><defs><style>.b{fill:none;stroke:#fff;stroke-miterlimit:10;stroke-width:.3px}</style></defs><path d="M0 0h192v240H0z" style="stroke-width:0"/><path d="M8.3 219.2c1.8-1 2.5-1 4.4-.4l5.2.8c8 .7 8.4 1 14.9 5.6q1.7.5 3.5.2c3.2-1.5 4.4-5.9 7.8-7.2 2-.5 4.1-.2 6.1-.3h9.6c1.5.1 3 1 4.4 1.4q2 .8 4.3 1c4.4.5 9-.1 13.1 2 1.7.9 3.4 2.2 5.2 2.8 5.8-3 9.5-2.8 15.7-2.5q7.5.2 14.9 0c9.3-.3 18.6-1.4 27.9-1.2 12.8.6 25.6 2 38.4 3.2" class="b"/><path d="M8.3 216.5a11 11 0 0 1 5.3 0l6 1c7.3.4 8.5 2 14 5.9 1.3.5 3.2.5 4.4-.3 2.4-2 4-5.3 7-6.6 1.6-.5 3.5-.3 5.2-.3H59c1.5 0 3 .8 4.4 1.3q2.2.9 4.4 1.1c4.3.6 9-.3 13 1.6 2.1.8 4 2.3 6.1 3.2 1.5-.5 3-1.4 4.4-1.9 4-1.2 8.2-.7 12.2-.7q8.8.2 17.5-.2c9.5-.4 19.2-1.4 28.7-.6q11 1 21.8 2.4l7 .7q2.6.5 5.3 0" class="b"/><path d="M8.3 214.4q4.5-.1 8.8.5 3.5.3 7 .7 3.3.6 6 2.6c1.8 1.2 3.2 3.2 5.3 3.8 1.1 0 2.5 0 3.5-.8 2.7-2.3 4.7-6.4 8.7-6.7h11.3c3 .8 5.7 2.3 8.8 2.5 4.3.5 8.9-.5 13 1.2 2.1.9 4 2.4 6.1 3.3q1.5-.2 2.7-.9 1.6-.8 3.5-1.2c5.4-1 11-.1 16.5-.3 10 0 19.8-.8 29.7-1 10.5-.1 21 2.2 31.4 3.3q3 .5 6 0 3.7-.4 7-.9" class="b"/><path d="M8.3 212.7q5.7 0 11.4.3 3.5 0 7 .9c3 .9 5.4 3.4 7.8 5.4 1.2 1 3 1.1 4.4.7 1.3-.8 2.4-2.3 3.5-3.4 1.5-1.9 3.6-3.7 6-3.9h8c2-.2 4 .6 6 1.4q2.6.9 5.3 1.2c4.6.4 9.6-.8 14 1.3 2 1 4 2.4 6 3.3 2.3-1 4.6-2.2 7-2.5 5-.5 10 0 14.8-.1 9.3 0 18.7-.7 28-.8 9.7-.2 19.1 2.3 28.7 3.4 2.3 0 4.7-.5 7-.7l10.5-1.5" class="b"/><path d="M8.3 211c5.8 0 11.7-.4 17.5.3 3.5.5 6.3 3 8.7 5.5 1.4 1.5 2.4 1.8 4.4 1.7 1.4-.3 2.5-1.8 3.5-2.8 1.9-2.5 4.5-4.8 7.8-4.7h7.9c3.2.7 6.2 2.4 9.6 2.6 4.9.4 10.2-1.2 14.8 1.3 2 1 3.9 2.7 6.1 3.2q3-1.7 6.1-2.3c4.9-.7 10-.2 14.8-.3 9 0 18-.5 27-.4 8 0 15.8 2 23.6 3 3.2 0 6.5-.8 9.6-1.2l14-1.8" class="b"/><path d="M8.3 209.2h14.9c5.8-.3 8.5 1.6 12.2 5.8 1.4 1.6 2.3 1.9 4.3 1.7 1.5-.4 2.6-1.9 3.5-3 3.2-3.9 5.5-4.7 10.5-4.5h4.4c2 .4 4 1.5 6 2q4 1 8 .6c4.2-.5 8.4-.6 12.1 1.8 1.7.9 3.3 2.5 5.3 2.8a25 25 0 0 1 13-2.7h13.1c7 0 14-.3 21 0q7 .6 14 2.1l4.3.7c3.5-.3 7-1.2 10.4-1.7q9.1-1.3 18.4-2.2" class="b"/><path d="M8.3 207.5H24c6.5-.4 8.2 1 12.3 5.7 1.3 1.6 2.2 2 4.3 1.8 1.5-.5 2.5-2 3.5-3.2 3.1-4 5.6-4.6 10.5-4.4q2.2 0 4.3.2c2 .6 4 1.6 6.1 2q4 .9 7.9.3c4.3-.7 8.4-.7 12.2 1.8 1.7 1 3.3 2.5 5.2 3q2.6-1.2 5.3-2 3.4-.7 7-.7h13c6.7.2 13.4 0 20 .6 4.8.3 9.4 1.5 14 2.2 5.3-.5 10.5-2.2 15.7-2.9 6.1-1 12.3-1 18.4-1.8" class="b"/><path d="M8.3 205.7H24c7.5-.1 8.3-.4 13.1 5.6 1.4 1.7 2.2 2.1 4.4 2 1.9-.8 3-3 4.3-4.4 3-3.6 6.3-3.2 10.5-3.2 3.4-.4 6.4 1.6 9.6 2.3 2.6.6 5.3.3 7.8-.1 4.3-1 8.6-.8 12.3 1.8 1.6 1 3.3 2.5 5.2 3.2 2-.5 4-1.6 6.1-2 5.2-.9 10.5-.5 15.7-.5 8.4.3 17 .2 25.3 1.6l6.1 1c2.6 0 5.3-.8 7.9-1.4q6.8-2 14-2.7c5.7-.6 11.6-.6 17.4-1.3" class="b"/><path d="M8.3 204H25c7.5 0 8.3-1.1 13 5.4 1.4 1.8 2.2 2.3 4.5 2 1.8-.8 3-3 4.3-4.4 3.1-3.9 7-3 11.3-3 3.1-.2 5.8 1.9 8.8 2.4 3.8.8 7.6-.7 11.3-1.1 3.5-.5 6.9.8 9.6 2.9 1.6 1 3.3 2.7 5.2 3a42 42 0 0 1 19.2-2.3c7 .3 14 .5 21 1.4q3.4.7 7 1 3.9-.6 7.8-1.7 4.7-1.6 9.6-2.6 5.6-1 11.3-1.2l8.7-.3q3 .5 6.1.5" class="b"/><path d="M8.3 202.2h18.4c8.6 0 7.8-.6 13 6.3q.8.9 1.8 1.2h1.7c1-.4 2-1.6 2.6-2.5 2.9-3.8 4.7-5.3 9.6-5h5.3q1.8.6 3.5 1.3c7.5 3.7 11.9-1.8 19.1-.2a14 14 0 0 1 5.3 2.6c1.9 1.2 4.5 4.3 7 3.4 5.2-2 11-2 16.5-1.7q8 .3 15.7 1.1l7 .9c8-.5 14.9-5 22.7-6 4.3-.8 8.7-.8 13-.8 4.4.7 8.7 1.6 13.1 1.7" class="b"/><path d="M8.3 200.5h26.2c3.4.8 4.7 4.8 7 7q.8.6 1.7.5 1 0 1.8-.5c2.2-2.3 3.7-5.8 7-6.8 1.6-.4 3.5-.2 5.2-.2q2.6-.2 5.2.1c1.8.6 3.5 1.6 5.2 2.1 3.6 1.2 7.1-.6 10.5-1.5 6-1.2 9.6.3 14 4.2 2 1.7 4.2 3 7 2 4.5-1.2 9.3-1.2 14-1q7 .3 13.9 1.1c4.6.6 9.5-.6 14-2 3.4-1.3 6.8-3.2 10.4-4.2q4.3-1 8.7-.8 3.5-.1 7 0c5.5 1.2 11 2.4 16.6 2.4" class="b"/><path d="M8.3 198.7H32l4.4.1c3.3 1.3 4.2 5.5 7 7.4 1.6.3 2.4-.1 3.4-1.4 1.3-1.8 2.6-3.9 4.4-5.2 1.8-1.2 4-.8 6-.9h5.3q1.9.1 3.5 1a10 10 0 0 0 9.6.6c3-1.6 6.3-1.7 9.6-1.5 6 0 9 7 14.8 7.3q7.8-1.3 15.7-.7l7 .5q3.5-.1 7-.7 5-.9 9.6-2.8c2.9-1.2 5.7-2.9 8.7-3.5 2.6-.4 5.3-.1 7.9-.2q4.7-.1 9.6.1c6 1.2 12 2.7 18.3 2.6" class="b"/><path d="M8.3 197h26.2q1.8-.2 3.5.2c2.8 1.6 3.8 5 6.1 7.1q2.3.8 3.5-1.2c1.7-2.2 3.2-5.3 6.1-6q4-.1 7.9-.1H65c4 1.3 5.9 4 10.4 1.7l1.8-.8h2.6q3.5-.6 7-.5c1.7 0 3.7 0 5.2 1 3 2 5.8 4.9 9.6 5.4q3.8.7 7.8.4 8.8.1 17.5-1.4 5-.9 9.6-3c2.5-1 5-2.8 7.8-2.8q9.6-.2 19.2 0 4.4 1 8.7 1.9 5.6 1 11.4 1" class="b"/><path d="M8.3 195.2h28.8c3.6-.3 5.2 3.7 7 6 2 3 3.8 1.3 5.2-1 1.5-2.1 3.2-5 6.2-5h11.3c3.2 1 4.9 3.8 8.7 2.3 2.5 1.3 5.3-.3 7.9-.8a27 27 0 0 1 9.5-.8c2 .4 3.6 2.1 5.3 3q3.5 2.2 7.8 2.6 5.3.3 10.5-.1 5.7-.5 11.3-1.7c3.7-.8 7-2.7 10.5-4 2-.8 4.1-.4 6.1-.5h9.6l7.9.1q2.6.4 5.2 1.1 8.2 2 16.6 2.1" class="b"/><path d="M8.3 193.5h11.4c3.5.4 7 0 10.5 0h7c2.2-.1 3.6 0 5.2 1.9 1.5 1.6 2.6 4 4.3 5.5 2.2.7 3.3-2.2 4.4-3.6 2-2.9 3.3-4.1 7-3.8h9.6c2.1-.3 3.5 1.4 5.2 2.4 1 .2 1.8 1.2 2.6 1.8 2.6 1.2 5.4-.5 7.9-1.4q5.8-2.6 12.2-2.3 2.6 1.2 5.2 2.6c6.8 3.1 14.6 2 21.8 1.2q4-.5 7.9-2c2-.7 4-2 6-2.3H155l5.2.1q4.4 1 8.7 2a83 83 0 0 0 14.9 1.6" class="b"/><path d="M8.3 191.7h7.9q2.6.7 5.2 1 3 .2 6.1-.3 4.3-.7 8.7-.7c1.7.1 3.7-.2 5.3.4 1.8.9 3.2 2.9 4.3 4.5.7 1 1.6 2.3 2.7 2.7l.8-.2c2.6-2 3.6-6.2 7-7.3q7-.1 14 0c4.6-.6 2.4 6.2 7.8 6 2.8-.2 5.4-1.8 7.9-3a23 23 0 0 1 11.3-2.8c2 .5 4.1 1.5 6.1 2.1 4.8 1.6 9.9 1.6 14.8 1.3a45 45 0 0 0 9.6-1.6c2-.6 4-1.9 6.2-2h20c4.5-.3 8.8 1.2 13 2.1q8.3 1.8 16.7 2" class="b"/><path d="M8.3 190q3.1-.2 6.1.2c2.8 1 5.8 2 8.8 1.7 3.5-.1 7-1.2 10.4-1.7q2.7-.3 5.3-.2 1.7-.2 3.5.3c3.1 1.3 4.5 5 7 7l.8.2c2.8-1.9 3.7-6 7-7.3 2-.4 4.1-.1 6.1-.2h9.6c1.6 1.6 1.4 5 3.5 6.3 5.3 2 10.2-2.4 14.8-4.6 6.5-3.3 10.1-.8 16.6.4q8.7 1.3 17.4-.4 2.7-.7 5.3-1.6 3.4-.1 7 0H154c4.4.3 8.7 1.9 13 2.7q8.3 1.6 16.7 1.8" class="b"/><path d="M8.3 188.3c1.8 0 3.8-.4 5.3.6q3.5 2.3 7.8 2.3 4.6-.1 8.7-1.4c2.6-.7 5.2-1.6 7.9-1.5 2 0 4.3-.3 6.1.7 3 1.4 4.3 5 7 6.7 1.1-.1 2-1.4 2.6-2.3q1.5-2.2 3.5-4.2c2-1.6 4.7-.8 7-1h9.6c1 .6 1.4 3.4 1.7 4.3s1 2 1.7 2.5c2.5 1 5.4.5 7.9-.3 3.1-1.2 5.8-3.5 8.7-5.1q2.8-1.7 6.1-1.3c3 .2 5.8 1 8.7 1.3q9.3 1.2 18.4-1 2.5-.6 5.2-.4h7c4.6.2 9.3-.2 14 .3 4.6.8 9.2 2.3 13.9 3.1q8.2 1.5 16.6 1.7" class="b"/><path d="M8.3 186.5q1.4 0 2.7.2 1.6 1.3 3.5 2.5c3.7 1.7 8.2 1.4 12.2.7 3.8-.7 7.5-2.5 11.3-3.3 3-.3 6.3-.3 8.7 1.7q2 1.7 3.5 3.6c.7.7 1.6 2 2.6 2 2.8-1.8 4-5.6 7-7 2-.7 4.1-.3 6.1-.4h9.6c.9 3 1.2 7.7 5.2 7.5q3.1.1 6.2-.5c4-1.2 6.8-4.7 10.4-6.6q1.3-.5 2.6-.3l3.5.2q5.3.6 10.5.8 4 .2 7.9-.4 3.3-.7 7-.7h13c2.9 0 5.9-.2 8.7.3 5 .9 9.9 2.6 14.9 3.5q9 1.6 18.3 1.6" class="b"/><path d="M8.3 184.8h1c2.8 3.1 5.2 4.5 9.5 4.7 5.4.4 10.7-.9 15.7-2.8 4.6-2 9.8-3.1 14 .3 1.9 1.4 3.3 3.7 5.2 5.1h.9c2.5-2 3.8-5.7 7-7 1.6-.6 3.5-.3 5.2-.4h9.6l.8 1c1.1 3.9 1 7 6.1 6.6 2.7 0 5.5.2 7.9-1 2-1 3.7-2.7 5.2-4.2l1.8-1.6 1.7-.3c5-.4 10 .3 14.8.2q4-.2 7.9-.6h22.7q3.9.7 7.8 1.6c4 .9 8.1 2.3 12.2 2.9q9 1.3 18.3 1.3" class="b"/><path d="M8.3 183.5c2.7 4.1 6.8 5 11.4 5q8.6.2 16.6-3.3c5.2-2.2 9-3.3 14 .4 1.8 1.4 3.1 3.7 5.1 4.9 1.1-.2 2-1.4 2.7-2.2 1.2-1.6 2.6-3.5 4.3-4.6 1.8-1 4.1-.6 6.1-.7h9.6c1 1.8 1.8 4.6 2.6 6.4l1 .8q1.2.5 2.5.4c2.9-.2 6 .3 8.8-.4 2.6-.8 4.1-3.4 6-5.1q2.2-1 4.4-1.4 4.4-.4 8.7-.4c6.7-.4 13.4-.2 20.1-.3 3.5.2 7-.3 10.5.4q7.7 2 15.7 3.6c8.2 2 16.8 2.2 25.3 2.2" class="b"/><path d="M8.3 183.6c2.6 3.5 7.4 3.7 11.4 3.8a43 43 0 0 0 16.6-3c5.7-2.2 8.9-4.7 14.8-.9 2.2 1.4 3.7 4 6 5.3 2.7-1.2 4-4.4 6.2-6.1 1.9-1.8 4.6-1.4 7-1.4H79c1.8 1.1 2.4 4 3.5 5.8q.5 1.2 1.7 1.7h3.5q4 .1 7.9-.1c4.3-1.4 4-6.1 10.4-7 3.8-.6 7.6-.4 11.4-.4h20q3 .7 6.1 1.7a134 134 0 0 0 40.2 4.7" class="b"/><path d="M8.3 183.4c3.3 3 8.2 2.6 12.3 2.7q8 .1 15.7-2.5c3.2-1.1 6.2-2.8 9.6-3.6 2-.2 4.2.6 6 1.5a18 18 0 0 1 3.6 2.7c1 1 2 2.4 3.4 2.8 2.6-1.2 4-4.2 6.2-6 2-1.8 4.4-1.5 7-1.5h8.7c1.6 1 2.4 3.3 3.4 4.9 2 3.3 2.7 2.6 6.2 2.7h7.8c1.3-.6 1.9-2.6 2.6-3.7 1.3-2.1 3.5-4 6.1-3.9H127c2.6.1 5.3-.2 7.9.3q11.9 4 24.4 5.9c8 .9 16.3.7 24.4.6" class="b"/><path d="M8.3 182.9c3.7 2.1 8.2 1.6 12.3 1.7 5.8 0 11.8-.5 17.4-2.5 3-1 5.8-2.6 8.7-3.5 1.4-.6 3 0 4.4.3q2.9 1 5.2 3c1.4 1 2.7 2.8 4.4 3.4 2.2-.8 3.5-3.3 5.2-4.9 2.6-2.7 4.3-2.7 7.9-2.6h8.7c1 .1 2 1.2 2.6 2q1.6 2.2 3.5 4.3.8.8 1.7 1.2h7.9l.8-.7c.3-1.6 1-5.2 1.8-6.7 2.2-.3 4.7 0 7-.1h13c3.5 0 7-.3 10.5.1q2.6.9 5.2 1.9c6.5 2.1 13.3 4 20.1 4.7 9 .8 18 .4 27 .2" class="b"/><path d="M8.3 182c4 1.4 8.2 1 12.3 1.1 6.1 0 12.4-.3 18.3-2.3q3.5-1.4 7-2.9 1.6-.8 3.4-1.1 1.3 0 2.7.4 3.4.8 6 3c1.5 1.1 2.8 2.7 4.4 3.3 2.3-.5 3.6-3 5.3-4.5 1.4-1.4 3.1-2.9 5.2-3h7.8c2 .2 4.3-.4 6.2.5 2.3 1.5 4 4.3 7 4.9 2.9.4 4-3.2 5.2-5.2 2.5-.4 5.2 0 7.8-.2h14.8l6.2.1c3.2.9 6.3 2.6 9.6 3.5a71 71 0 0 0 15.7 3.6q2.6.2 5.2-.1 3.5-.3 7-.3c6-.1 12.2.4 18.3.4" class="b"/><path d="M8.3 180.8c4.3 1 8.8.7 13.1.7a49.9 49.9 0 0 0 24.4-4.5l4.4-1.7 2.6.2q3.9.7 7 3c1.4 1 2.8 2.5 4.4 3.2 1.8-.1 3-2 4.3-3.2 1.5-1.5 3.2-3.2 5.2-4 2-.4 4.2-.1 6.2-.2h9.6q2.6.2 5.2.4c1.4 0 3-.5 4.3-.4h16.6c3.2 0 6.5-.3 9.6.2 2.7.7 5.3 2.1 7.9 3q5.5 2.3 11.3 3.5 3.5.8 7 .2 4.3-.6 8.7-.7c7.9-.2 15.7.5 23.6.8" class="b"/><path d="M8.3 179.4c4 .6 8.2.5 12.3.5q7 .2 14-.6c4.8-.6 9.5-2.3 13.9-4.3q1.6-.7 3.5-1.2 4.1.1 7.8 2 2.3 1.4 4.4 3c.7.5 1.7 1.2 2.6 1.1 3.3-1.7 5.3-5.4 8.7-7 1.3-.6 3-.3 4.4-.4h29.6c4 .1 8.2-.2 12.2.2 4.9 1.1 9.2 4 14 5.3 2.8.8 5.8 2 8.7 1.6q7-1.1 14-1.6c8.4.1 16.9 1 25.3 1.3" class="b"/><path d="M8.3 178q6 .3 12.3.2 7 .1 14-.4 5.7-.6 11.3-2.7l4.3-1.8q1.3-.7 2.6-1h1.8q4.7.3 8.7 2.8c1.7 1 3.3 2.5 5.2 3.2 3.5-1.4 5.5-5 8.7-6.9 2.2-1 4.7-.5 7-.6h32.3c4 .3 7.7 2.1 11.3 3.8 3.6 1.5 7.4 3.1 11.4 3.4l5.2-.9q7-1 14-1.4l25.3 1.7" class="b"/><path d="M8.3 176.4q8.3.3 16.6.1 8.4.2 16.6-1.3 4.6-1 8.7-3l3.5-1.4a22 22 0 0 1 14.8 4.7c1.8 1.2 2.7 1.2 4.4-.2 8-7 5.8-6.3 16.6-6.2h21.8c7-.4 12.8 4 19.2 6q2 .9 4.3 1.2 2.6-.3 5.2-1a137 137 0 0 1 18.4-1.7l25.3 1.9" class="b"/><path d="M8.3 174.8c9.3 0 18.7.2 28-.4q6.2-.5 12.2-2.5l6-2.5q1.9-.2 3.6-.1 4.6.1 8.7 2.2c2 1 4 2.5 6 3.3 2.5-.8 4.3-3 6.2-4.5 1.7-1.5 3.8-3 6.1-3h20.1q3.5-.1 7 .3c4.3.7 8.2 3 12.2 4.7 7.8 3.4 7 2 14.8.8 6-1 12.2-1 18.3-1.5l26.2 2" class="b"/><path d="M8.3 173c10.2 0 20.4.4 30.6-.5a47 47 0 0 0 14.8-3.8q1.6-.9 3.5-1c12.6-.6 16.2 6.7 19.2 4.9 3.6-2 6.2-6 10.5-6.9 3.1-.3 6.4 0 9.5-.1q5.7-.1 11.4 0c7.2.7 13 5.9 20 7.2q4.5-1 8.8-1.7 6-.7 12.2-1c4 0 8.1-.6 12.2 0l22.7 1.5" class="b"/><path d="M8.3 171.4c10-.1 19.8.2 29.7-.5a54 54 0 0 0 16.6-3.7 10 10 0 0 1 4.3-1q6.5-.4 12.2 2c2.1.9 4 2.3 6.2 3 1.6 0 3-1.3 4.3-2.3q2.5-2 5.2-3.7c3-1.7 6.4-1.4 9.6-1.4s6.5-.2 9.6.3c3.4.5 6.6 2 9.6 3.5 2.8 1.2 7.6 4.1 10.5 3.2 7.4-2 15-2.2 22.7-2.5 3.4 0 7-.6 10.4-.2q12.3 1 24.5 1.6" class="b"/><path d="M8.3 169.6c10 0 19.8.2 29.7-.3q6.7-.4 13-2.1 3.6-1.2 7-2.5c6.8-.8 13.5.2 19.3 3.8 2.6 1.7 3.7 1 6-.6 3.2-2.3 6.5-5 10.5-5.6q5.3-.5 10.5.4c4 .8 7.7 2.9 11.3 4.6q3 1.5 6.2 2l2.6-.6c7.3-2 15-1.9 22.7-2q5.2-.2 10.4-.6 13.1 1.2 26.2 1.7" class="b"/><path d="M8.3 167.9h18.4c6 0 12.2 0 18.3-1q7.2-1 14-3.8 4.7-.7 9.5-.1 6 .8 11.4 4c2.6 1.7 4.7 0 7-1.4q3.2-2.4 7-3.9c2.4-1 5.2-.6 7.8-.2 4 .6 7.7 2.5 11.3 4.2a25 25 0 0 0 5.3 1.9q1.7-.1 3.4-.7c7.1-2.1 14.6-1.9 21.9-2q7 0 14-.5 13 1 26 1.5" class="b"/><path d="M8.3 166.1h19.2c6.1 0 12.3 0 18.4-.8q5.3-.7 10.4-2.5 2.2-.9 4.4-1.5 2.6-.4 5.2-.4 5.9-.1 11.3 2c2.4 1 4.5 2.7 7 3.2 2.6-.2 4.8-2 7-3.1 2.4-1.4 5-2.5 7.9-2.3 3.3.1 6.6 1.3 9.6 2.7q3.3 1.6 7 2.5 1.2-.1 2.6-.5c6.7-2.4 13.9-2.3 20.9-2.3q9 .2 18.3-.5 13.1.9 26.2 1.3" class="b"/><path d="M8.3 164.4h19.2c6.4 0 12.9 0 19.2-.9q5.3-.6 10.5-2.4 2.2-.7 4.3-1.6l3.5-.4c16.8-1.2 17.5 7.8 24.5 4.5 5.2-2.5 7.9-4.2 14-2.6 3.2.8 6.2 2.6 9.5 3.2q1.8-.2 3.5-.8c8.7-3.2 18-2 27-2q6.6 0 13.1-.6 13.5.8 27 1.1" class="b"/><path d="M8.3 162.6h20.1c6.4 0 12.8 0 19.2-.8q5.3-.7 10.5-2.4c2.5-.8 5-2.2 7.8-2.2 5.7-.4 11.7 0 16.6 3.2 1.8 1 3.9 2.4 6 2.2 2.8-.2 5.3-1.8 8-2.4q3.9-.8 7.8.5c2.3.6 4.6 1.6 7 1.8 3.5-.7 6.8-2.4 10.4-2.8 6.7-1 13.4-.1 20.1-.1q7.6 0 14.8-.6 13.5.9 27 .9" class="b"/><path d="M8.3 160.9h21c6.4 0 12.8 0 19.2-.8q5.3-.7 10.4-2.4c2.9-1 5.7-2.4 8.8-2.5 16-1.3 15.2 6.5 23.5 5.6 2.6-.5 5.2-1.7 7.9-1.7 3.5-.2 6.9 1.5 10.4 1.7q2.3-.4 4.4-1.4c8.8-3.8 18.6-1.6 27.9-1.6q7.5 0 14.8-.7c9 .4 18 1 27 .7" class="b"/><path d="M8.3 159.1h21.8c6.4 0 12.9.1 19.2-.8q5.4-.7 10.5-2.5c3.2-1 6.3-2.5 9.6-2.8 16.3-1.2 13.6 7.9 24.4 5.9 2.6-.7 5.3-1.2 7.9-.7 2 .2 4 .9 6 1 2.2-.1 4.2-1.4 6.2-2.2q3.3-1.5 7-1.8c4-.4 8.1 0 12.2.3a136 136 0 0 0 22.7-.3q7 .4 14 .5 7 .2 13.9-.2" class="b"/><path d="M8.3 157.4H31c6.1 0 12.3.1 18.3-.7q5.4-.6 10.5-2.4c3.7-1.2 7.4-2.8 11.4-3.3 3.5-.5 7.3.1 10.4 1.9 2.1 1.1 4 2.8 6.1 3.9 2.7 1.1 6 .5 8.8 0 2.5-.4 5.2 0 7.8.4 3.4.6 5-.1 7.9-1.8q4-2.3 8.7-2.6c4.6-.3 9.3.5 14 .8q9.1.8 18.2 0c3-.5 5.9 0 8.8 0 7.2 0 14.6.5 21.8-.5" class="b"/><path d="M8.3 155.7H32c6 0 12.3.1 18.3-.7a51 51 0 0 0 10.5-2.6c3.7-1.2 7.4-2.7 11.3-3.1 4.3-.4 8.8.8 12.2 3.5 2.6 2 4.5 3.2 7.9 2.8 2.9.1 5.8-.9 8.7-.4q2.6.5 5.2.5c.8 0 2-.1 2.6-.5 4.4-2.9 6.7-4.8 12.3-5 5 0 9.8 1 14.8 1.5q9.6.8 19.2-.4 7.4.3 14.8.2c4.7 0 9.4 0 14-1.1" class="b"/><path d="M8.3 153.9h24.5c5.8 0 11.6.2 17.4-.5a57 57 0 0 0 11.4-3c3.9-1.3 8-2.8 12.2-2.8 5 0 8.3 2 12.2 4.8q1.2.8 2.6 1.4 1.7.1 3.5.1c2.3.1 4.6-.7 7-.6q1.7.2 3.5.5c1.3.2 3 0 4.3.1q1.6-.2 2.6-1.3c1-1 2.3-2.4 3.5-3.2 5.2-3.2 11.9-1.4 17.5-.6q7 1.2 14 1.1c4.4.2 8.6-.8 13-.5l13-.1c4.5-.2 9-.5 13.2-2" class="b"/><path d="M8.3 152.2h25.3c5.5-.1 11.1.2 16.6-.5q6.3-1 12.2-3.3c4.2-1.4 8.6-3 13.1-2.4q4.3.5 7.9 3.2c1.5 1.1 3.2 2.6 5.2 3q2.6 0 5.2-.2c1.7-.4 3.5-1 5.2-.7q1.8.3 3.5.8h5.3c2-1.3 3.3-3.8 5.2-5.3 2.1-1.9 5.1-2.2 7.8-2 3.9.2 7.6 1.1 11.4 1.8q6.5 1.2 13 1.1 4.6 0 8.8-.6 7.5.2 14.8-.2 4.5-.2 8.7-1c2-.4 4-1.3 6.1-1.3" class="b"/><path d="M8.3 150.4h38.4c7-.3 13.5-3.1 20-5.2 4-1.1 8.4-1.5 12.3 0q2.8 1.4 5.2 3.4c1.3 1 2.8 2 4.4 1.8 1.4 0 3 .2 4.3-.4 1.8-.6 3.4-1.9 5.3-2 1.2.3 2.4 1.3 3.5 2 1.8.8 4 .3 6 .4 1.2-.4 2-1.8 2.7-2.7q1.7-2.6 4.4-4c2.7-1.1 5.8-.7 8.7-.8 3.8-.2 7.6 1 11.3 1.7q7 1.2 14 .8c6.4-.7 12.7-.2 19.2-1q4.8-.5 9.6-1.4 3-.1 6-.1" class="b"/><path d="M8.3 148.7H39c12.1.2 14.9-.7 26.1-4.7 4.5-1.5 9.6-2.2 14 0 2.5 1 4.5 3.4 7 4.5q1.2.2 2.6.2c4.8.5 6.4-5.3 9.6-7.6l.9.5c1.2 2 1.8 5 3.5 6.8 1 .4 2.4.2 3.5.3q1.3 0 2.6-.3c4.4-6.6 4.8-7.5 13-7.3l9.6.1q4 .7 7.9 1.3c4.9.8 9.9.3 14.8.2q9.3-.2 18.3-1.5h11.4" class="b"/><path d="M8.3 147H38c12.6 0 14.3-.2 26.2-4.5 4.1-1.4 8.9-2.2 13-.5 3 1 5 3.6 7.9 4.8 1.7.2 3.8.4 5.2-.8 2-1.7 2.7-4.7 4.4-6.6h5.2c1.5 2.1 1.5 5.7 3.5 7.5h5.2c4.3-6.5 3.7-7.6 12.3-7.5 5.7 0 11.6-.2 17.4.4q7.8 1 15.7.8 6.6-.5 13-1.2h16.6" class="b"/><path d="M8.3 145.2h33.2c4 0 8.2 0 12.2-1 3.8-1 7.5-2.6 11.3-3.7 5.6-1.7 11.2-1.3 15.7 2.5 1.6 1.2 3.3 2.5 5.3 2.2 1.8.2 3.2-1.4 4.3-2.6 2.3-2.4 5.3-4.8 8.8-4.6 1.4 2.4 2.4 5.9 5.2 7.1h4.3c2.6-1.8 2.6-6.4 6.2-7 2.8-.6 5.8-.4 8.7-.4q5.6 0 11.3.2c5.2.4 10.5 1 15.7.7 4 0 8.2-.7 12.2-1h21" class="b"/><path d="M8.3 143.4H46q4.4 0 8.7-1.1c3.5-1 6.9-2.6 10.4-3.5a16 16 0 0 1 13.1 1.5c2.6 1.7 5.5 4.5 8.7 2.5 3.6-2.5 7.7-5.2 12.2-4.8 3 4 4.2 6 9.6 5.3 2.2-1.1 3.6-3.6 5.3-5.4 2-2.2 3.4-1.9 6-2l8.8.2c7.6 0 15.1 1.2 22.7.5l7-.6q3.8-.1 7.8 0h17.5" class="b"/><path d="M8.3 141.7h35.8c4.4.2 9-.4 13-2 7.8-3 14.7-5.2 21.9.2 4.2 3.1 5.5 1.5 9.6-.5 2.5-1.2 9.2-3.4 11.3-1.3 2.3 2.7 5.2 4.2 8.7 3.5 3.3-1.5 5.5-4.7 8.8-6.2q1.2-.7 2.6-1h4.3q4.9 0 9.6.3 7.5.6 14.9.2c2.6-.1 5.2-.6 7.8-.7H181c.8.2 2 .6 2.7 1" class="b"/><path d="M8.3 140h35q3 0 6-.2a28 28 0 0 0 7-1.7c5.5-2 11.7-4.4 17.5-2.1 2.1.8 4 2.3 6 3.3 2.4 1.4 4.8-.4 7-1.2a23 23 0 0 1 12.3-1.6c1.2.6 2.3 1.7 3.5 2.3 2.3 1.3 5.5 1.7 7.8.2 4.3-2.8 8.8-5.5 14-6.2q6 .2 12.2.5 7 .4 14-.4c6-.9 12.2-.4 18.3-.5h9.6c1.8.4 3.5 1.4 5.2 2" class="b"/><path d="M8.3 138.2h41q3.2-.5 6.2-1.5c5.8-2.4 12.2-4.8 18.3-1.9 2 .9 4 2.5 6 3.1 1.2.5 2.5-.2 3.6-.6l4.3-1.4q5.2-1.3 10.5-.7c1.3 0 2.4 1 3.5 1.6 3.3 1.7 6.3 2 9.6 0a49 49 0 0 1 17.4-5.5c5.3.1 10.5.6 15.7.4 3.2-.1 6.5-.7 9.6-1h19.2c1.4 0 3-.2 4.4.3q3 1.3 6 2.5" class="b"/><path d="M8.3 136.5h35.8c7.8.3 9.6-1.2 16.6-3.6 12-3.9 15.2 4.4 20 3.2 5.8-2 12.2-3.3 18.3-2 .9.1 1.9.8 2.7 1.1q2.4 1.1 5.2 1.2c2.1-.2 4.1-1.3 6.1-2 4.2-1.8 8.7-2.7 13-3.5 2.4-.3 4.7-1 7-1q6.6.3 13.1 0l7-1H175c3 1 5.8 2.5 8.8 3.4" class="b"/><path d="M8.3 134.7h38.4c6.2.5 11.4-3.8 17.5-4.4 3.6-.4 7.4.6 10.4 2.6q2 1.3 4.4 1.6l2.6-.8q8.2-2.3 16.6-1.2c2 .4 4 1.5 6.1 1.9q2.7.6 5.2-.5 3-1.1 6.1-2c6.9-1.8 14-2.4 21-3.5q2.5-.1 5.2 0 4-.2 7.8-.8c3.2-.6 6.5-.4 9.6-.4h13.1c1.9-.2 3.6.9 5.3 1.6q3 1.2 6 2.1" class="b"/><path d="M8.3 132.8c10-.1 19.8.3 29.7.2l11.3-.1c2.5-.2 4.8-1.2 7-2.2 3.6-1.5 7.5-2.7 11.4-2 3.8.5 6.6 3.7 10.4 4q3.9-1.2 7.9-1.7 6.1-.8 12.2.1c2.6.5 5.2 1.7 7.8 1.8q2.7-.6 5.3-1.4 4.6-1.5 9.6-2.2c10.1-1.3 20.4-2.2 30.5-3.7 5.8-.3 11.6 0 17.4-.2h3.5c1.2.2 2.5.9 3.5 1.3q3.8 1.8 7.9 2.8" class="b"/><path d="M8.3 131c10-.2 19.8.4 29.7.2 4-.1 8.2.3 12.2-.2 2.7-.6 5.3-2 7.9-3 3-1.1 6.4-1.7 9.6-.8 2.5.5 4.5 2.3 7 3.1q1.2.5 2.6.6l3.5-.8a47 47 0 0 1 17.4-.4c2.3.4 4.6 1.2 7 1.4 3-.4 5.8-1.6 8.7-2.2q5.6-1.2 11.3-1.6c8.5-.8 17-1.1 25.3-3q4.4-.9 8.8-.6h9.5q1.8-.1 3.5.1 1.8.7 3.5 1.5 3.8 1.7 7.9 2.7" class="b"/><path d="M8.3 129.1c10-.2 19.8.6 29.7.4h7q2.6 0 5.2-.3c2.4-.5 4.7-1.8 7-2.7 3-1.3 6.4-2 9.6-1.1 1.6.2 3 1.3 4.3 2a18 18 0 0 0 4.4 1.7q1.3.1 2.6-.4a47 47 0 0 1 13.1-1.2q3.5.1 7 .7 3 .8 6.1 1.1c3.5-.4 7-1.7 10.5-2.3q6.5-1 13-1.4c6.4-.5 12.9-.6 19.2-1.6q4.9-1 9.6-2 5.3-.1 10.5 0h4.4q1.3.4 2.6 1 4.6 2.3 9.6 3.4" class="b"/><path d="M8.3 127.3c10-.2 19.8.6 29.7.4q5.7.2 11.3-.1c2.5-.5 4.8-1.7 7-2.7a15 15 0 0 1 9.6-1.4q2 .5 3.5 1.7 2.4 1.5 5.2 2 1.4.3 2.7-.2a52 52 0 0 1 20.9-.3c2 .3 4.1 1 6.1.7 3.8-.7 7.5-1.8 11.4-2.3q7-.8 14-1.1c6.3-.5 12.8-.6 19.1-1.6 3.5-.4 7-1.5 10.5-2q3.4-.2 7-.2c2 .1 4.2-.3 6 .4q5.6 2.8 11.4 4.2" class="b"/><path d="M8.3 125.4c10-.1 19.8.8 29.7.6 3.8-.1 7.6.2 11.3-.2 2.5-.6 4.8-2 7-3 2.7-1.2 5.8-1.9 8.7-1.2 1.3.1 2.4 1.1 3.5 1.7q2.9 1.7 6.1 2.3a59 59 0 0 1 23.6-.4c2 .3 4.1.9 6.1.2q6-1.3 12.2-2.2 7.5-.7 14.8-1c6.4-.3 12.9-.4 19.2-1.4 5.3-.7 10.3-2.7 15.7-2.4 2 .2 4.3-.3 6.1.4q5.4 3 11.4 4.3" class="b"/><path d="M8.3 123.6c10-.1 19.8.9 29.7.6q5.3.2 10.5 0c2.4-.5 4.7-1.9 7-3 2.6-1.3 5.7-2.1 8.7-1.6 1.2.3 2.4 1.3 3.5 1.9q2.8 1.6 6 2.4a68 68 0 0 1 23.6-.4l3.5.5q1.8 0 3.5-.6c8.9-2 18-2.5 27-2.8 6.7-.3 13.5-.3 20.1-1.3 5-.6 9.8-2.6 14.8-2.6 2 .2 4.2-.3 6.1.4a43 43 0 0 0 11.4 4.4" class="b"/><path d="M8.3 121.8c10-.1 19.8 1 29.7.7 3.5-.1 7 .2 10.5-.2q2.8-.7 5.2-2.2c2.9-1.6 6.2-3 9.6-2.5 3.2 1.5 6 3.8 9.6 4.4 1.7.1 3.5-.5 5.2-.6a65 65 0 0 1 17.5.4c2 .2 4 .7 6 .1q7-1.4 14-2.2 7.9-.6 15.7-.9c6.4-.2 12.9-.2 19.2-1 5.3-.5 10.5-2 15.7-2.8h3.5q1.4-.1 2.6.2 5.3 3.2 11.4 4.6" class="b"/><path d="M8.3 120q9.2 0 18.4.6 5.6.2 11.3.2h6.1q2.7.2 5.2-.6c4.3-1.7 8.2-5.2 13.1-4.7 12.2 7.3 8.4 4 21 4q4.8 0 9.5.5c2 0 4.1.6 6.1.3q7.8-1.5 15.7-2.3 7.5-.6 14.9-.9c6.4-.3 12.8-.2 19.2-.7q7.8-.8 15.7-2.5 2.5-.5 5.2-.7c1.1 0 2.5-.1 3.5.5q4.8 3.1 10.5 4.4" class="b"/><path d="M8.3 118.3c6.7-.3 13.4.3 20.1.6h18.3c5-.7 8.7-5.4 14-5.5 1.6.1 3 1.4 4.3 2.1a23 23 0 0 0 7 3c1.1.2 2.4-.2 3.5-.3q2.2-.3 4.4-.3 5.2-.1 10.4.3c2 0 4.2.5 6.2.4 4.9-.6 9.8-1.6 14.8-2.1q8.2-1 16.6-1.1c10.1-.6 20.4 0 30.5-1.9q5.6-1 11.3-1.8l2.6-.2c1.6.2 3 1.5 4.4 2.2q3.3 1.9 7 2.7" class="b"/><path d="M8.3 116.5c6.7-.2 13.4.3 20.1.7h15.7c5.7.7 9.5-4.8 14.8-5.7q1.5-.3 2.6.5l3.5 2c2.4 1.3 5 2.8 7.9 2.8a46 46 0 0 1 14.8-.4c2.3.1 4.7.6 7 .4 4.4-.4 8.7-1.3 13-1.8a185 185 0 0 1 17.5-1.4c10.5-.7 21 0 31.4-1.4l11.4-1.8 4.3-.5q1.5-.2 2.7.6 3.9 3 8.7 4.3" class="b"/><path d="M8.3 114.7c6.7-.2 13.4.4 20.1.8h17.5c4.2-.7 7.2-4.4 11.3-5.7.8-.3 1.8-.7 2.6-.3q2.3 1.1 4.4 2.4 3.6 2.3 7.8 3.2 2.2-.2 4.4-.4 3-.2 6 0c4.4 0 8.8.8 13.2 0 8.6-1.2 17.4-2.4 26.1-2.8l13.1-.6c5.2 0 10.5.2 15.7-.2 8.2-.4 16.2-2.5 24.4-2.7 2.8 1.8 5.5 4 8.8 4.8" class="b"/><path d="M8.3 113c9.4-.3 18.6 1 28 .8h6q2.3.1 4.4-.5c4.1-1.3 7-5 11.4-6 5 1.6 9.3 5.8 14.8 6.1q5.2-.7 10.5-.3c2.2 0 4.6.5 7 .2 7.5-.7 15-2 22.6-2.7q10.5-.9 21-1.3c5.8 0 11.6.4 17.4 0 8.2-.4 16.2-2.5 24.4-2.4 1.4.3 2.4 1.6 3.5 2.3q2 1.5 4.4 2.3" class="b"/><path d="M8.3 111.3c9-.3 18 1 27 .7 3.5-.1 7.2.4 10.5-.4 4.3-1.2 7.1-5.2 11.4-6.4 4.6 1.4 8.4 4.8 13 6q2.2.6 4.4.3 2.7-.2 5.3-.1l6 .3q8.4-.7 16.6-1.9 13.1-1.5 26.2-2.3c7.8-.7 15.7.6 23.6 0 8.4-.4 16.8-2.7 25.3-2 1.9 1.4 3.8 3.3 6 4.2" class="b"/><path d="M8.3 109.6c6.1-.2 12.3.3 18.4.6H38c3.6.1 7.5.4 10.5-1.9 2.5-1.6 4.8-4.2 7.8-5 2.8.7 5.4 2.2 7.9 3.6a23 23 0 0 0 9.6 3H79q6.6.1 13-.8 9.3-1 18.4-2.1 11.3-1.2 22.7-1.9c4.3 0 8.7.6 13 .8q7.5.2 14.9-1c5.7-.7 11.6-1.8 17.4-1.1a5 5 0 0 1 1.8 1.3q1.6 1.6 3.5 2.7" class="b"/><path d="M8.3 107.9q9.2 0 18.4.6H38c3.4.1 6.7.1 9.6-2 7.4-4.8 5.8-7 14.8-2.4q3.7 2.2 7.9 3.4c5.1 1.1 10.5.7 15.7.2l20.9-2.3 14.8-1.6q5.7-.8 11.4-1c4.3.1 8.7 1 13 1.3q7 .4 14-.7c5.2-.8 10.4-1.8 15.7-1.8 5.4 0 4 1 7.9 3.9" class="b"/><path d="M8.3 106.2q8.8 0 17.5.6H37c3.4.1 6.7 0 9.6-2 2.5-1.4 4.5-3.6 7-5 2.4-.3 4.8.9 7 1.7 4.8 2.4 9.3 4.7 14.8 4.7q6.7.1 13-.8l15-1.5 17.4-2.1c4-.4 8.1-.2 12.2-.4q2.2-.2 4.3-.4c3.2.5 6.4 1.3 9.6 1.6 4.7.4 9.4-.2 14-1 4.9-.8 9.8-1.9 14.8-2 1.7 0 3.7-.3 5.3.4l2.6 2.8" class="b"/><path d="M8.3 104.6c7.9-.1 15.8.6 23.6.4 4-.1 8.4.6 12.2-1.1 2.9-1.3 5.4-3.5 7.9-5.4 1.4-1.1 3.5-.2 5.2 0 4 1 7.4 3.4 11.3 4.6 5 1.6 10.5 1.2 15.7.7l13.1-1.2c6.1-.5 12.2-1.5 18.3-1.9q8.2-.5 16.6 0 4.4.2 8.7-.8 3 1 6.1 1.4c4.7.5 9.4-.2 14-1.2 5.4-1.2 11-2.6 16.6-2.6 1.4.1 3-.3 4.3.4l1.8 1.9" class="b"/><path d="M8.3 103c10 0 19.8.6 29.7.2 5.5 0 9.7-4 14-7q4 0 7.8 1.5c3.5 1.2 6.9 3 10.5 3.7 5.4 1.2 11 .5 16.6 0q8.2-.5 16.5-1.4 9-1 18.3-.9c5 .1 10 .8 14.9 1q3.5.1 7-.5 5.4 2 11.3.7c5.3-.8 10.4-3 15.7-4.1q3-.6 6.1-.4h6.1l.9.7" class="b"/><path d="M8.3 101.4q10 0 20.1.1c4.7 0 9.6.5 14-1.4 2.8-1.2 5.3-3.3 7.8-5.1 1.2-.9 3-.3 4.4-.2 6 .6 11.4 4 17.4 4.7 4.3.7 8.8.1 13.1 0 13-.6 26.2-2.8 39.3-1.5l15.6 1.8c3 .3 5.9 1 8.8 1q6.9-.2 13-3.1c3.4-1.4 6.8-3.4 10.5-3.7h11.4" class="b"/><path d="M8.3 99.7c8.5-.1 17 .2 25.3 0q5.1 0 9.6-2.4 2.3-1.2 4.4-2.8c.8-.6 1.7-1.4 2.6-1.6q2.6 0 5.2.3c5.7.8 11 3.5 16.6 4 4.3.5 8.7.3 13 .2q7-.3 14-.9 10-.9 20.1-.2c7 .5 14 1.8 21 3q3.3.7 7 .5h8.6c4-.3 7.3-3 10.5-5q2-1.5 4.4-2.3 1.7-.3 3.5-.2h9.6" class="b"/><path d="M8.3 98h12.3q6 0 12.2-.2 5-.3 9.6-2.5c7.1-3.8 4-4.7 13-3.7 3.6.4 7 1.5 10.5 2.3q4.3.8 8.7 1.4c8.7.5 17.5-.4 26.2-.9 6 0 12.2-.2 18.3.5 6.7.7 13.4 2.3 20 3.1q11 .2 21.9 0c4.4-.4 7-4.8 10.5-7.2 1.3-.5 3-.2 4.3-.3h7.9" class="b"/><path d="m8.3 96.3 11.4-.2q6.1.1 12.2-.2 4.6-.4 8.7-2.2c7.9-3.6 4.1-4.6 14-3.9 5.2.4 10.4 2 15.7 2.5q4.3 1.2 8.7 1 10-.1 20-.8 13.7-.2 27 2.2c4.4.7 8.8 1.7 13.2 1.6H161c3.7 0 5.7 0 8.7-2.6 1.8-1.5 3.1-3.9 5.2-5h8.8" class="b"/><path d="m8.3 94.6 12.3-.3c4.9 0 10 0 14.8-1.1q5.6-1.5 10.5-4.9c2.5-.5 5.2-.3 7.8-.2 5 .3 9.9 1.3 14.8 1.8q4.7 1.4 9.6 1.4 9.6 0 19.2-.7 10.2.2 20 1.5c5 .7 10 1.8 14.9 2.4q10.5.1 21 0h9.5c2 0 4.2.3 6.1-.2q3-1 5.3-3.6c1-1.1 2.1-2.7 3.5-3.6h6" class="b"/><path d="m8.3 92.8 11.4-.3c5-.1 10-.2 14.8-1.4q3.1-.8 6.1-2.2 2.3-1.2 4.4-2.4 4.3-.3 8.7 0c4.4.1 8.7.7 13 1 1.5.1 3 .9 4.4 1q3.5.6 7 .7 8.8 0 17.5-.5 11 .5 21.8 2.1 6 1.2 12.2 2 11.8.2 23.5 0h11.4c2.3 0 4.7.3 7-.2 3.8-1 6-4.6 8.7-7.1q1.7-.3 3.5-.2" class="b"/><path d="M8.3 91c8.2-.5 16.5 0 24.5-1.8a36 36 0 0 0 7-2.4c1.4-.5 2.8-2 4.3-2q5.7-.3 11.3 0l10.5.6c1.5 0 3 .8 4.4 1q3.8.7 7.8.7 8.2.1 16.6-.2 13.2.8 26.2 3.3c4.8 1 9.8.9 14.8.9h20l17.5-.1c4.3-.6 6.7-4.6 9.6-7.3l.9-.2" class="b"/><path d="M8.3 89.3c7.9-.6 15.9-.4 23.6-2.3q3.1-.7 6.1-2c1.4-.4 2.8-1.6 4.4-1.8q3.4-.2 7-.3 7.8.1 15.6.4c1.5 0 3 .8 4.4 1q3.5.7 7 .8 8.2.2 16.6 0 11.3 1 22.6 3 4 .8 7.9 1.1 4.8.1 9.6.1h41.8c3.6-.5 6.5-3 8.8-5.6" class="b"/><path d="M8.3 87.4c7-.6 14.1-.6 21-2.1a47 47 0 0 0 10.4-3.7l2.7-.2c7.5-.5 15-.1 22.6 0q4.7 1.3 9.6 1.6 7.9.3 15.7.2 4.9.4 9.6 1.1c6.7.8 13.4 2.3 20.1 3.2 10.2.3 20.4 0 30.5 0H168c5.8 0 10.7.8 15.7-3.2" class="b"/><path d="M8.3 85.4c6.7-.6 13.5-.8 20.1-2.4 3.3-.6 6.5-1.9 9.6-3.1q3.5-.3 7-.4 9.5-.3 19.2-.2 5.1 1.5 10.4 1.7l14 .3a537 537 0 0 1 21.8 3.4q3.5.7 7 1 5.2.1 10.5.1h41c5 0 10.2.3 14.8-2" class="b"/><path d="M8.3 83.3c8.5-.8 17.3-1.4 25.3-4.4 2.2-1 4.7-.9 7-1.1l11.4-.3 11.3-.1c4 .8 8.1 1.6 12.2 1.6l10.5.4c9 1.3 18 3.2 27 4.5 5.2.4 10.5 0 15.7.2H169c5 0 10 0 14.8-1.6" class="b"/><path d="M8.3 81q8.5-.7 16.6-2.3 2.7-.5 5.2-1.4 2.2-.8 4.4-1c8.7-.8 17.5-.8 26.2-.9q2.6 0 5.2.7l5.2.7c4.4.4 8.8.2 13.1.8l15.7 3c4 .7 8.1 1.6 12.2 1.8H155c9.6-.2 19.3.7 28.7-1.5" class="b"/><path d="M8.3 78.3q7-.6 14-1.7c3.2-.6 6.3-2 9.6-2 9.3-1 18.6-1.1 27.9-1.1q2.2 0 4.4.4l6 .8 8.8.5q2.6.3 5.2 1 7.5 1.4 14.8 3c4 .7 8.2 1.5 12.3 1.4h39.2c11 0 22.2.3 33.2-1.5" class="b"/><path d="M8.3 75.1q8.5-.2 16.6-1.9 7-.7 14-1.2 10-.6 20-.5c5.2.5 10.5 1.3 15.7 1.4q3.1.2 6.1 1l11.4 2.5c6 1.4 12 2.8 18.3 2.5q22.7 0 45.4-.1 13.9-.6 27.9-1.6" class="b"/><path d="M8.3 71.9q7-.2 14-.5c8.1-.7 16.3-1.6 24.4-1.7q5.3-.2 10.5 0 7.9.7 15.7 1c8.5 1.5 16.8 4.1 25.3 5.8 3.7.7 7.6.6 11.3.6q19.2.2 38.4 0l24.4-1.7c3.8-.2 7.6 0 11.4-.3" class="b"/><path d="M8.3 69.6q7 0 14-.3c6.7-.5 13.4-1.3 20-1.4q10.1-.2 20.1.4c4 .3 8.3-.2 12.2 1 7.9 1.7 15.6 4.4 23.6 5.6 4.9.8 9.9.4 14.8.5 9.6-.1 19.2.2 28.8-.2l33.1-2.3q4.5.2 8.8 0" class="b"/><path d="M8.3 67.4q6 0 12.3 0 6.5-.6 13-1Q39 66 44.1 66q6.1 0 12.2.3 6.6.2 13 0 4.6.6 8.8 1.9c7 1.8 13.8 4 21 5 5.4.6 11 .2 16.5.3h17.5l16.5-1.4 18.3-1 8.8-.6 7 .3" class="b"/><path d="M8.3 65.4q6 0 12.3 0c4-.1 8.1-.7 12.2-1q7-.1 14 0l8.6.6c4.7.1 9.4-.6 14-.5 5.6.8 11 2.6 16.6 4 4.8 1.3 9.8 2.7 14.8 3.2 5.2.4 10.5.1 15.7.2q5.7.1 11.3-.1 9.6-1 19.2-1.7l21-.9q5.2-.2 10.4-.7 2.6.2 5.3.3" class="b"/><path d="M8.3 63.5c4.7 0 9.4.3 14 0 4.4-.2 8.7-1 13-.9h6.2q5.6 1 11.3 1.1c5.3.1 10.5-1 15.7-1 3 0 6 .8 8.8 1.5l10.4 2.6q7.4 2 14.8 3.1c4.4.4 8.8.2 13.1.2 5 .1 10-.6 14.9-1.1q6.5-.7 13-1 11.9-.2 23.6-.5l9.6-.6q3.5-.3 7-.1" class="b"/><path d="M8.3 61.8c4.7.1 9.4.4 14 0 3.8-.1 7.6-1 11.3-1 2 0 4.2.7 6.1 1q4 .9 7.9 1 6.1.1 12.2-1 3.5-.6 7-1 4 0 7.8.8l20.1 4.2c5.2 1 10.4 2.3 15.7 2.2 9 0 18-2.1 27-2q14 .2 28-.1 5.2-.1 10.4-.6c2.6-.1 5.3-.6 7.9-.4" class="b"/><path d="M8.3 60.3q6.6.3 13.1.2c3 0 5.9-.8 8.7-.9 10.5 3.3 21.8 3 32.3.3 6.4-1.9 12.9 0 19.2 1q9 1.7 18.3 2 1.8.4 3.5 1 3 .6 6.1.7c7.3.2 14.6-1 21.8-.8 10.8.2 21.6.8 32.3.6 6.7 0 13.4-.7 20-1.2" class="b"/><path d="M8.3 59c5.8.3 11.7.8 17.5-.1 11 3 22.9 3 34 .3q3-1 6.1-1.8H72c6.4.7 12.8 1.8 19.2 1.6q2.7 0 5.2-.4l5.3 1.4a63 63 0 0 0 13 1c9.7-.2 19.3.8 28.8 1.4 13.4.7 26.9 1 40.2-.6" class="b"/><path d="M8.3 58q7 .6 14 .6l9.6 1.4q12.3 1 24.4-1.2c3.3-.7 6.5-2 9.6-3 5.8-.7 11.7.5 17.5.5q4.8 0 9.5-.6 4 .7 7.9 1.3c7.2 1 14.6 1 21.8 1.6 20.3 2.3 40.7 4.5 61 2" class="b"/><path d="M8.3 57.8c6.7 0 13.4.8 20.1 1.2q10 .6 20-.3 6.3-.5 12.3-2.3c2.6-.7 5-2.6 7.8-2.5l12.2.1Q86 54 91.2 54c5 0 9.9 1 14.8 1.2 12.7.3 25 2.9 37.5 4.3q20.1 2.2 40.2.1" class="b"/><path d="M8.3 57.3c7.3.1 14.6.8 21.8.8 9 0 18.2-.2 27-2a35 35 0 0 0 7-2.3c1.7-.7 3.4-1.8 5.3-1.6H93q7.3.6 14.8 1c13 .4 25.5 4 38.4 5.3a128 128 0 0 0 19.2.5l9.5.2q4.5-.2 8.8-.7" class="b"/><path d="M8.3 56.3c10 .4 19.8.8 29.7.3 6.4-.3 12.9-.6 19.2-1.8q4.1-.7 7.8-2.5c1.7-.8 3.4-2.1 5.3-2H93q5.6.5 11.3.9l8.7.5q4.4 1.2 8.7 1.7 3.5.5 7 .9 7.8 1.8 15.7 2.8 3.5.5 7 0l7.8-.4q12.3-.2 24.5.7" class="b"/><path d="M8.3 55.2q19.3.7 38.4-.6c5.3-.4 10.6-.8 15.7-2.4q2.7-.8 5.3-2.3c1-.6 2.2-1.4 3.4-1.3H93l10.4.8q3.5.2 7 .6 4.3 1.2 8.7 1.9l11.4 1.6q5.6 1.4 11.3 2.1c1.4.2 3-.2 4.4-.3l7-.5q15.2-.7 30.5.3" class="b"/><path d="M8.3 53.8q19.7.4 39.3-.8c5.5-.4 11.2-.8 16.6-2.4q2.2-.8 4.3-2c1.3-.7 2.8-1.9 4.4-1.7h16.5q6.2 0 12.3.6l4.3.4q4.4 1.2 8.7 2 6.6 1.2 13.1 2.2 4.8 1 9.6 1.7c1.7.4 3.6-.2 5.2-.3q4-.5 7.9-.6 16.5-.6 33.1 0" class="b"/><path d="M8.3 52.2a552 552 0 0 0 38.4-.7c6.7-.5 13.7-.6 20-2.8q2.3-.9 4.4-2.2c1-.6 2.3-1.5 3.5-1.3h14q5.7-.2 11.3.4c1.5 0 3 .7 4.4 1q3 1 6.1 1.5 12.2 2.1 24.4 4.2c3-.1 5.8-.9 8.7-1q7.5-.5 14.9-.4 12.6-.1 25.3 0" class="b"/><path d="m8.3 50.4 17.5.1q10-.1 20-.6c7-.4 14.2-.5 21-2.2 3.2-.7 6-2.5 8.7-4.1q2.2-.2 4.4-.2h7.8c3.5 0 7.1-.4 10.5.9 7 2.3 14.5 3.2 21.8 4.3l8.7 1.5 3.5.5 3.5-.6c8-1.3 16.3-.9 24.4-.9h23.6" class="b"/><path d="m8.3 48.5 20.1.3 19.2-.6q7.5-.3 14.8-1c5.3-.4 10.6-1.7 14.9-4.9q1.6-.9 3.4-.6h8.8c2 .2 4 1 6 1.4 8.3 2.4 17 3.1 25.4 4.5q4.3.8 8.7 1.2c3.8-.5 7.5-1.3 11.3-1.4 7.3-.3 14.6 0 21.8 0q10.5.2 21-.2" class="b"/><path d="M8.3 46.6q11 0 21.8.5l19.2-.7q7-.1 14-.6c5.4-.5 11.1-1.2 15.7-4.4q1.2-.9 2.6-1.5 2.2.1 4.4.7l8.7 1.9c10 2 20.4 2.9 30.5 4.4 1.7.3 3.6-.2 5.3-.4 3.4-.4 7-1 10.4-1 7.6-.2 15.2.2 22.7.3l20-.2" class="b"/><path d="M8.3 44.8q11.4 0 22.7.5l21-.6q7.4-.2 14.8-.6c5-.5 10.5-1 14.8-4q15.3 2.1 30.5 3.8 5.3.7 10.5 1.3c1.7.2 3.6-.3 5.2-.4q6.6-.8 13.1-1.2 7.5 0 14.9.3 13.9.4 27.9 0" class="b"/><path d="M8.3 43q12.3 0 24.5.5c12.2-.6 24.4-.4 36.6-1 4.1-.4 8.4-.7 12.2-2.4l7 .2 32.3 3.3q8.3-1.1 16.5-1.6c6.1-.5 12.2 0 18.3.1q14 .5 28 .1" class="b"/><path d="M8.3 41.1q12.3.1 24.5.7 18.3-.6 36.6-.7 6.7-.2 13-1.6 5.2-.2 10.5.2 12.8 1 25.3 2.1 10.5-1.2 21-1.7c5.5-.3 11 .2 16.5.3q14 .4 28 .1" class="b"/><path d="M8.3 39.3q12.8.2 25.3.7 18.7-.4 37.6-.4L79 39q2.6-.5 5.2-.6 8-.1 15.7.5l15.7 1.2q11.4-1.3 22.7-1.7 8.7-.3 17.5.2 13.9.4 27.9.2" class="b"/><path d="M8.3 37.6q13.5.2 27 .7c12.3-.5 24.5-.2 36.7-.3q3.5 0 7-.3 3.9-.6 7.9-.6 11.8.2 23.5 1.1c4.3.3 8.7-.6 13-.8q8.8-.6 17.5-.7 7.5-.2 14.9.2 13.9.4 27.9.2M8.3 35.8c9.3 0 18.7.5 28 .7q10.5-.2 20.9-.2 7.9.1 15.7.1c5 0 9.9-.7 14.8-.7 7.3 0 14.6.7 21.8.9 5-.3 10-1 14.8-1.2q10-.5 20.1-.5c13 0 26.2.7 39.3.5M8.3 34q15.3.2 30.6.8 9.6-.2 19.2-.2 7.8.2 15.7.2c5.8 0 11.6-.7 17.4-.5 5.8 0 11.7.8 17.5.4q6-.4 12.2-1 7-.3 14-.4c16.2-.3 32.5.5 48.8.3M8.3 32.2q15.3.2 30.6.7H58c6 .2 12.2 0 18.3.3l12.2-.4c5.2 0 10.5.5 15.7.2 7-.3 14-1.1 21-1.3 19.4-.5 38.9.2 58.4.1M8.3 30.4c16 .1 32 1 48 .9q12.2-.3 24.4.1h9.6q4.8.1 9.6-.1c7.9-.3 15.7-1.2 23.6-1.4 20-.3 40.1.2 60.2.2M8.3 28.7c19 0 37.8 1.3 56.7.6 10.5-.2 21 .9 31.4.2 8.8-.3 17.5-1.2 26.2-1.4 20.4-.2 40.7.3 61 .2M8.3 26.9q18 .1 35.8.7 10.9.2 21.8-.2 10 .1 20 .5 6.2 0 12.3-.4c9.9-.4 19.7-1.5 29.6-1.3q28 .4 55.9.4M8.3 25q18 .2 35.8.8 11.8 0 23.5-.3c6.7 0 13.4.4 20.1.4q11-.2 21.8-1c12-1 23.9-.4 35.8-.2q19.2.1 38.4.1M8.3 23.2q17 .1 34 .7 11.9.2 23.6-.2c7.3-.1 14.6.4 21.8.3q13.1-.4 26.2-1.3c11.3-.6 22.7.2 34 .4q18 .2 35.8 0M8.3 21.4q15.8 0 31.4.6 11.8.1 23.6 0c7.5-.4 15.1.2 22.7 0 9.6 0 19.2-.8 28.8-1.3 11.3-.5 22.6.5 34 .7 11.6.3 23.2-.1 34.9 0M8.3 19.5c15.5-.3 30.9 1 46.3.7l15.7-.2q7 .2 14 .2c10.1-.2 20.3-1 30.5-1.5 11.6-.4 23.2.8 34.8 1 11.4.4 22.7-.2 34 0M8.3 17.7c14.6-.4 29.1.8 43.7.6l17.4-.2q6.5.2 13 .2c3.6 0 7-.5 10.5-.5 7.3-.1 14.6-.8 21.9-1.1 11.6-.3 23.2 1 34.9 1.3 11.3.4 22.6-.2 34-.1M8.3 15.8q11.4-.3 22.7.2 13.5.6 27 .4c8.6-.3 16.9 0 25.4 0q2.6 0 5.2-.3c1.1 0 2.4-.5 3.5-.5q10.5-.2 21-1 5.6-.2 11.2.3 12.8.7 25.3 1.3c11.4.6 22.7 0 34 0" class="b"/></svg>