<svg xmlns="http://www.w3.org/2000/svg" id="a" width="1920" height="2400" viewBox="0 0 192 240"><defs><style>.b{fill:none;stroke:#fff;stroke-miterlimit:10;stroke-width:.3px}</style></defs><path d="M0 0h192v240H0z" style="stroke-width:0"/><path d="M8 220.4c5.8-.1 9.5 3.5 14 6.2 2.5 1 5.3 1 8 1q5.2 0 10.4-.5 11.8-.9 23.7-.7c7.5.1 15.2.5 22.7-.2 7.3-.6 14.6-2.5 21.9-.9q4.3 1 8.7 1.9 2.7.3 5.3.3c2.9 0 5.9.7 8.7 0 4.5-.8 8.6-3 13.2-3.2 7.2-.7 14.6-.5 21.8-1.1q4.9-.4 9.6-1.3 4 0 8 1" class="b"/><path d="M8 218.7c5.2-.1 7.4-.5 11.4 3.1 1.4 1.1 2.6 2.8 4.4 3.3 2.5.8 5.3.8 7.9.8l10.5-.3q12.6-.7 25.3-.7 9.3.1 18.4-.5c5.3-.4 10.5-1.4 15.8-1.4 6.5-.1 12.7 2.6 19.2 3q5.2.5 10.5-.6c5-1.1 9.9-2.8 14.9-3.6 6.3-1 12.8-1 19.2-1A95 95 0 0 1 184 222" class="b"/><path d="M8 216.9h9.7q1.6.5 2.6 1.8c.5.7 1.2 2.1 1.8 2.8 2.3 2.7 6.3 2.7 9.6 2.8 10.2.2 20.4-.7 30.6-1q10-.1 20.1-.6c5.6-.3 11.1-1 16.6-1.3a43 43 0 0 1 9.7.7c3.4.7 7 1.7 10.5 2.1 3.7-.2 7.6-.2 11.3-.8 5.3-1.1 10.4-2.9 15.8-3.5q9-1 18.3-.6 9.8.2 19.3 1.7" class="b"/><path d="M8 215.2h12.3c1.6 1.6 2.4 4.4 4.4 5.7q2.8 1.7 6.1 1.7h7c8.8 0 17.5-.7 26.3-1q9.6-.3 19.2-1c5.5-.3 11-.9 16.6-.9 6-.2 11.7 1.5 17.5 2.6q12-.5 23.7-3.6a80 80 0 0 1 21.8-1.2q10.5.5 21 2" class="b"/><path d="M8 213.4h14c1.8 1.3 2.6 3.8 4.4 5 3.8 2.7 8.8 2.2 13.2 2.4 8.7 0 17.5-.7 26.2-1.2 11.4-.5 22.8-1.5 34.1-1.6 5.7 0 11.2 1.4 16.7 2.5q1.2.2 2.6-.1l4.3-.7c6.5-.6 12.9-2.4 19.3-3.4 13.6-2.4 27.5.1 41.1 1.6" class="b"/><path d="M8 211.7h15c1 0 2.5-.3 3.4.4 1.6 1.8 3.1 3.9 5.3 5 4 2 8.7 1.7 13.1 1.7 18.4-.6 36.7-2.9 55.1-2.5q5.8.2 11.4 1.4l5.3 1.1q1.7 0 3.5-.4 6.1-.9 12.2-2.1c5.8-1.3 11.6-2.8 17.5-3 11.4-.5 22.8 1.9 34.1 3" class="b"/><path d="M8 209.9h23.7c.5.1 1.4.8 1.7 1.2 4 4.8 9 5.3 15 5.2 7.5-.2 15-1 22.7-1.3q12.7-.8 25.3-.5 7 0 14 1.4l6.2 1.2q3.5-.5 7-1.1 5.2-.8 10.5-2 6.5-1.7 13-2.6c2-.3 4.2 0 6.2-.1q3-.2 6.1.1c8.2 1 16.3 2.4 24.5 3.1" class="b"/><path d="M8 208.2h31.6c1.6-.3 3 .7 4.3 1.4q2.7 1 5.3 1.8c5.1 1.3 10.5 1 15.7 1 12.3-.2 24.6-.3 36.8.6 5 .3 10 1.4 14.9 2.3q3.5-.4 7-1.1 8.3-1.4 16.6-3.5l11.4.3q7.8 0 15.7-.3c5.5.7 11 1.7 16.6 2" class="b"/><path d="M8 206.4h45.6c2-.2 4.1.4 6 1q3.5 1 7 1.4 5.8.6 11.5.8l13 1q8.4.3 16.7 1.4l8.7 1.6q3.6-.4 7-1.1c4.7-1 9.5-1.7 14-2.9q8.4.6 16.7.6 9 0 18.3-.5 5.7.9 11.4 1.3" class="b"/><path d="M8 204.7h57c2.6-.1 5.2.9 7.8 1.3 7.9 1.2 15.7 2.5 23.6 3.1q6.6.5 13.2 1.5 3.4.7 7 1.2c1.7 0 3.5-.5 5.2-.7q7-1.2 14-2.6a304 304 0 0 0 39.4 0l8.7.8" class="b"/><path d="M8 202.9c9.1 0 18.2-.2 27.2.3 5 .2 10-.4 14.9-.3q12.2-.2 24.5.1c5 .7 9.8 2.7 14.8 3.4 5.8 1 11.7 1.4 17.5 2.2l7 1q2.2.6 4.4.3 8.3-1.2 16.6-2.6a331 331 0 0 0 35.9.2l7-.4 6.1.5" class="b"/><path d="M8 201.2c5.3.3 10.6 0 15.8 0 5 .3 10 1 14.9 1 4.7.2 9.3-.7 14-1h21.9q2.6-.1 5.2 0c3.5 1 7 2.7 10.5 3.4 7.5 1.6 15.2 1.9 22.8 3.2q2.2.4 4.3.5l6.2-.8 7-1q2.5-.4 5.2-.3 15.3.6 30.6.1c5.8 0 11.7-.9 17.5-.4" class="b"/><path d="M8 199.6c4.7.4 9.4 0 14 0 6.5.8 12.9 1.8 19.3 1.7 5.6 0 11.2-1 16.6-1.9h24.5c2.7 1 5.2 2.5 7.9 3.2q6 1.5 12.3 2.1c5 .5 9.9 1.5 14.8 1.9 5.6-.4 11.1-1.4 16.6-1.7q16.6.5 33.3 0c5.5 0 11-.7 16.6-.6" class="b"/><path d="M8 198c4.4.5 8.9 0 13.2 0 5.5 1 11 2 16.6 2.2q8.4.5 16.6-.6c3.9-.3 7.6-2 11.4-2h16.6c.8 0 2 0 2.6.5 6.2 4.1 13.9 4.6 21 5.4q5.7.7 11.4 1.3c5.8-.3 11.7-1 17.5-1.1q24.5.4 49-1" class="b"/><path d="M8 196.4q5.8.4 11.4 0 5.7 1.4 11.4 2.2 9.1 1.1 18.4.9 9.8-.1 19.2-3.1c2.2-.8 4.7-.4 7-.5H85c2 .6 3.4 2.4 5.3 3 4.7 2 9.9 2.3 14.9 2.9q6 .7 12.2 1.3 8.7-.5 17.5-.8 24.6.3 49-1" class="b"/><path d="M8 194.7q5 .4 9.7.2 5.2 1.3 10.5 2.2a139 139 0 0 0 42-.4q3.6-1 7-2.4c2.9-.3 5.8 0 8.7-.1 1.6.8 2.8 2.5 4.4 3.3 4.3 2 9.3 2 14 2.6q6.6.8 13.1 1.2 8.8-.1 17.5-.4c16.4 0 32.7 0 49-1.2" class="b"/><path d="m8 193 8 .3q6 1.6 12.2 2.8a243.2 243.2 0 0 0 42 1.2c2.9-.4 6-.4 8.7-1.7 1.4-.7 2.3-2.3 3.5-3.2 1.4.1 3.1-.3 4.4.3 1.7 3.3 4.4 4.6 7.9 5l9.6.9q6.6.6 13.1 1h12.3c18-.1 36.2 0 54.2-1.5" class="b"/><path d="M8 191c2.4.4 4.9 0 7 .9q6.6 2 13.2 3c9.8 1.6 19.8 1.7 29.7 1.9l17.5.2h5.3c1.1 0 2.6-.3 3.5-1l.9-1.4 1.7-1.3c1.1 3.6 3.9 3.1 7 3.4q4.5 0 8.8.3 5.7.3 11.3.7 5.3.3 10.5.2c8 .3 15.8-.4 23.7-.3l14 .1q11-.3 21.8-1" class="b"/><path d="M8 189.2c3 0 6 1.2 8.8 2q5.3 1.5 10.5 2.4c9.3 1.5 18.7 1.7 28 2 8.5 0 17 .6 25.4.8h9.6c2-.1 4.1-.6 6.1-.7 7-.6 14 .3 21 .4 8.5.2 17-.4 25.4-.5q12.8-.2 25.4.4 7.8-.3 15.7-1" class="b"/><path d="M8 187.4c2.7.5 5.3 1.6 8 2.2q6.4 2 13 3c16.6 2.1 33.3 1.7 50 1 2.5 0 5.2-.3 7.8.2l1.8.9h6.1c3.2-.1 6.4-.7 9.6-.6q6.6.2 13.1.2c7.6.1 15.2-.6 22.8-.7q11.3 0 22.7.2c3.2 0 6.5.4 9.6.4l11.4-.8" class="b"/><path d="M8 185.9c7 2 14 4.3 21 5.3 5.9.9 11.7 1 17.6 1.3l12.2-.5q9.2-.2 18.4-.9c3-.4 6.3-.5 8.7-2.5.6-.5 1.4-1.9 1.8-2.6l.9-.6 1.7.2c.7 2.4 1.4 5.8 4.4 6.4 3.7.8 7.6.7 11.4.6q9.6.2 19.2-.2 10-1 20.1-.8 10.1 0 20.1.4 4.9.2 9.7.5l8.7-.7" class="b"/><path d="M8 184.4c7.3 2.2 14.5 4.6 22 5.5q5.6.7 11.3.8l14.9-.6q8.7-.3 17.5-1c3.5-.4 7.3-.6 10.5-2.4 1.3-.7 2.4-2 3.5-3H92c1 2.1 2 4.7 4.3 5.7 4.2 1.6 8.8 1.4 13.1 1.4q4.9-.1 9.7 0 4.8 0 9.6-.6c5.8-.8 11.7-.5 17.5-.5q10.5.1 21 .5l9.6.5q3.5-.2 7-.6" class="b"/><path d="M8 183c8.1 2.2 16.1 5.3 24.6 5.7 5.5.6 11-.1 16.6-.3q12.7-.4 25.4-1.5c3.2-.4 6.7-.9 9.6-2.6 1.2-.6 2.2-2 3.5-2.4h3.5q1.4-.2 2.6.4c1 1.8 2.4 3.9 4.4 4.8 4 2 8.7 1.7 13 1.7q4 0 8 .3 5.7-.3 11.3-1c5.5-.7 11.1-.3 16.7-.3q10.5.2 21 .5 5.2.3 10.5.7l5.2-.5" class="b"/><path d="M8 181.4c7.6 2 15 5.1 22.8 5.7 5 .4 10-.4 14.9-.4q12.7-.5 25.4-1.5c4-.4 8.4-.7 12.2-2.5q1.8-1 3.5-2.3c1-.4 2.4-.2 3.5-.3h4.4c1.2 1.2 2.2 3 3.5 4 3.7 2.7 8.7 2.7 13.1 2.8 2.9 0 5.9.4 8.8.4q5.2-.4 10.5-1.3c5.2-.4 10.5 0 15.7 0q11.4.1 22.8.5l9.6.7q2.6-.1 5.2-.4" class="b"/><path d="m8 179.8 10.6 3.1c5.3 1.9 11 3 16.6 2.4 14.6-1 29.3-.7 43.7-3a19 19 0 0 0 5.3-2c1-.6 2.2-1.7 3.5-1.9h5.2c1.2 0 2.6-.2 3.5.5 4 5.4 9.5 6 15.8 6l7.9.7q5.3-.6 10.5-1.5c5.2-.3 10.5 0 15.7 0l22.8.6 7.8.5q3.5.5 7-.1" class="b"/><path d="M8 178.2q4.6 1.2 8.8 2.5c4 1.4 8 2.8 12.3 3 13.7-1 27.4-1 41-2.2 4.8-.5 9.8-.7 14-3l2.7-1.6q1.7-.3 3.5-.2c2.3 0 4.8-.2 7 .2 5.2 5.7 9.5 5.6 16.6 6.2l6.2.8c3.5-.2 7-1.3 10.5-1.7 4.9-.3 9.9 0 14.8 0q11.9.3 23.6.6l11.4 1 3.5-.5" class="b"/><path d="M8 176.5q4.6 1 8.8 2.6c3.1 1.1 6.3 2.4 9.6 2.8q2.7.3 5.3-.2l6.1-.4q13-.3 26.3-1.1c5.5-.5 11.2-.6 16.6-2q1.8-.5 3.5-1.4 1.2-.8 2.6-1.3 5.7-.5 11.4-.4c5.7 5.1 8.5 5.2 15.7 6l6.1 1c3.3 0 6.5-1.3 9.7-1.6 4.9-.4 9.9-.1 14.8 0q12.3.2 24.5.5a158 158 0 0 1 11.4 1q1.8-.1 3.5-.4" class="b"/><path d="M8 174.9q4 .8 8 2.1c2.8 1 5.7 2.4 8.7 3q2.2.5 4.4.1l5.2-.5q7.5-.3 14.9-.5c9.3-.4 18.7-.7 28-1.9a27 27 0 0 0 5.2-1.3c1.2-.3 2.3-1.3 3.5-1.4 4.4-.4 8.8-1 13.2-1 1.5.7 2.8 2 4.3 2.9 3.2 1.9 7 2 10.5 2.7q3.5.7 7 1.3c2.7-.2 5.3-1.2 7.9-1.6 5-.6 10-.2 14.9-.2q12.6.3 25.3.6a129 129 0 0 1 11.4 1q1.8 0 3.5-.4" class="b"/><path d="M8 173.1q5 1 9.7 2.9c3 1 6.3 3 9.6 2.5q5.2-.8 10.5-1 13.5-.2 27.1-1c5.3-.4 10.6-.5 15.8-1.7q1.8-.5 3.5-1.1l7.8-1 6.2-.8c2.1-.4 2.6.2 4.3 1.4q2.5 1.7 5.3 2.4 4 .8 7.9 1.7 2.6.7 5.2 1.3c2.7 0 5.2-1.4 7.9-1.6 5.2-.7 10.5-.3 15.7-.2 8.2.2 16.4.1 24.5.5a103 103 0 0 1 11.4 1.1l3.5-.6" class="b"/><path d="M8 171.4q5 .9 9.7 2.8c3 1.1 6.3 3.2 9.6 2.4q4.8-.8 9.6-.9 14-.3 28-1c5.3-.3 10.6-.4 15.8-1.5 1.6-.6 3.5-.6 5.2-.8q3.5-.3 7-1 4-.8 7.9-1.3c1.2.2 2.4 1.2 3.5 1.8 3.7 2.1 8.2 2.3 12.3 3.7 7.2 2.5 5.5 1 12.2-.3 5.5-.8 11.1-.3 16.6-.2 8.2.3 16.4.2 24.5.6q4 .2 7.9.8c2 .5 4.1 0 6.1-.5" class="b"/><path d="M8 169.6c3 .7 6 1.2 8.8 2.4 2.9 1 5.6 3 8.8 3q4.7-1 9.6-1c15.1-.7 30.4-.4 45.5-2.3q7-.3 14-1.9l5.2-1.1q1.3-.3 2.7-.2 1.6 1 3.5 1.8c2.1 1 4.6 1.4 7 2 2.6.8 5.2 2 7.8 2.7 1.4.6 3 0 4.4-.5q2.2-.7 4.4-1c5.8-.8 11.6-.2 17.5-.2 7.5.3 15.1.2 22.7.6q4.5.3 8.8 1c1.7.2 3.5-.5 5.2-.9" class="b"/><path d="M8 167.8c3 .7 6 1 8.8 2.3 2.5 1.2 5.1 2.6 7.9 3.2q1.8-.2 3.5-.5 6.1-.9 12.2-.9l12.3-.3c9.3-.2 18.7-.9 28-1.2q7.5-.2 14.9-2l5.2-1.4q1.3-.3 2.6-.3 2.6 1.3 5.3 2.2 4 1 7.9 2.5l4.3 1.8c.8.2 1.9.6 2.6.2q3.8-1.3 8-1.9c6-.4 12.2 0 18.3.1 6.7.2 13.4.1 20.1.5q4.5.5 8.8 1.1 2.6-.4 5.2-1.2" class="b"/><path d="M8 166c2.6.7 5.5.8 8 1.9 2.2 1 4.6 2.3 7 3.1l1.7.5q1.3 0 2.6-.4c7.8-1.3 15.8-.8 23.6-1.2 10.5-.4 21-1 31.5-1q4.9 0 9.7-1 4.8-1.1 9.6-2.5c1-.4 2.4-.8 3.5-.1q2.5 1 5.2 1.7 3.6.8 7 2.5c2.2 1 4.6 3 7 2q3.8-1.4 7.9-1.7c6.4-.5 12.8 0 19.2 0q9.3.1 18.4.7c2.6 0 5.3.8 7.9 1q3-.7 6.1-1.6" class="b"/><path d="M8 164c3 .9 6.1 1 8.8 2.4 2.6 1.1 5.1 2.6 7.9 3.3 1.1.2 2.4-.3 3.5-.5 8-1.3 16.3-.8 24.5-1.2q8.8-.3 17.5-.5c5-.1 10 .3 14.9 0 6.6-.2 12.9-2.6 19.2-4.4 1.2-.1 2.4.6 3.5.9l4.4 1a27 27 0 0 1 6.1 2.8c1.9 1 4 2.8 6.1 2.1q4.7-1.7 9.6-2c6.4-.2 12.9.2 19.3.2q8.3 0 16.6.7 3.1.3 6.1 1c2.7-.3 5.3-1.5 7.9-2" class="b"/><path d="M8 162.2c2.3.7 4.9.7 7 1.5 3.6 1.3 6.9 3.6 10.6 4.4 5.4-1.5 11-1.5 16.6-1.6 8.7 0 17.5-.5 26.2-.6 7.3 0 14.7.8 22-.4q5.3-1 10.4-2.8c1.7-.5 3.5-1.4 5.3-1.4 2.5.8 5.3 1.1 7.8 2q2.9 1.2 5.3 2.9c2.4 1.6 4 2.9 7 1.5q4.3-1.5 8.7-1.6c6.4-.2 12.9.2 19.3.3 6.7.1 13.5.2 20.1 1.5 3.3 0 6.4-1.8 9.6-2.4" class="b"/><path d="M8 160.4q3.1.7 6.2 1.2l3.5 1.4c2.6 1 5.1 2.5 7.9 3.3l3.5-.7c4.3-.9 8.7-.8 13-1q8.4 0 16.7-.2 7-.3 14 0c6.7.3 13.5.6 20.1-.9 4.5-1 8.8-2.8 13.1-4 3 .6 6 1 8.8 2.1q3.3 1.7 6.1 4c2.5 1.9 4.4.5 7-.2q3.9-1 7.9-1 9-.1 18.3.2 9.8 0 19.3 1.7c3.6-.5 7-2.4 10.5-3" class="b"/><path d="M8 158.5q3.1.8 6.2 1.2 5 2 9.6 4c1 .5 2.4 1 3.5.5q2.6-.7 5.3-1c9.3-.6 18.6-.3 28-.6 11.3-.4 23 2 34-1.1 4.2-1 8.2-2.8 12.3-3.7 2.6.6 5.5 1 7.9 2 2.2 1 4.2 2.8 6.1 4.2 2.2 1.6 4 .5 6.1-.2q4-1.1 8-1.2c6-.2 12.2.2 18.3.3q6.1 0 12.2.7l4.4.6q1.3.3 2.6.2 3.1-.6 6.1-1.8 2.6-1.3 5.3-1.6" class="b"/><path d="M8 156.8c2 .4 4.2 1 6.2 1l4.4 1.7 5.2 2.3 2.6 1 1.8-.5c4.8-1.2 9.9-1.1 14.9-1.2q11.3-.1 22.7-.1c8.4.1 17 1.4 25.4-.3 5.3-1.2 10.5-3.1 15.7-4.6q3.1.7 6.1 1.6a20 20 0 0 1 5.3 3.1c1.5 1.1 3.2 2.8 5.2 2.2 2.8-1 5.8-2 8.8-2.2 6.7-.4 13.4.2 20.1.3q6 .1 12.3.8l5.2.8q1.4 0 2.6-.4 3.1-.8 6.2-2.1c1.6-.7 3.4-1.6 5.2-1.6" class="b"/><path d="M8 155q3.1.8 6.2 1.1 2.7.8 5.2 1.9c2.6.9 5.1 2.7 8 3q1.6-.6 3.4-1 5.6-.7 11.4-.6 11-.1 21.8 0c8.2 0 16.4 1.2 24.5 0 6.3-1 12.3-3.3 18.4-4.7 3 .9 6.2 1.5 8.8 3.4 2 1 3.7 3.3 6 3.4 1.3-.2 2.5-.9 3.6-1.2a27 27 0 0 1 7.9-1.4q9-.1 18.3.4 5.8.2 11.4.8c2 .2 4.1.8 6.1.9l3.5-.9q3.7-1 7-2.6c1.4-.5 2.9-1.4 4.4-1.3" class="b"/><path d="M8 153.4q2.7.4 5.3 1c1.8 0 3.6.7 5.3 1.3q2.6 1 5.2 2.2c1.4.4 3 1.6 4.4 1.1q6-1.6 12.2-1.4h22.8c7.8.2 15.8 1.3 23.6.3 6.8-.8 13.3-3.6 20.1-4.5 2.3 1 4.9 1.7 7 3 2.7 1.4 5.6 4.7 8.8 2.6q4.6-2.1 9.6-2c5.8-.2 11.7.3 17.5.5q8.4.1 16.6 1.6 1.4.3 2.6-.2 2.3-.5 4.4-1.3 5.2-2 10.5-4" class="b"/><path d="M8 151.8c1.8 0 3.6.7 5.3 1l2.6.1 4.4 1.5c2.6.9 5.1 2.6 7.9 3q2.6-.8 5.2-1.2 6-.6 12.3-.4 7.5 0 14.9.2c6.7 0 13.4.8 20 .6q7.6-.2 15-2.4 5-1.5 10.4-1.8c1.6.2 3 1.3 4.4 1.8q2.3 1 4.4 2.3c1.5 1 3.4 2 5.2 1.1q1.8-1 3.5-1.7 3.9-1.1 7.9-1 7.8.1 15.8.7c6 .3 12.3.6 18.3 1.9 3-.4 6-1.5 8.8-2.4q4.9-1.7 9.6-3.6" class="b"/><path d="M8 150.2c1.8 0 3.6.7 5.3 1l3.5.1 3.5 1.2q2.7 1 5.3 2.2c1 .3 2.3 1.2 3.5.8l4.3-1c4-.6 8.2-.4 12.3-.4q7 0 14 .2c7.3 0 14.6 1 21.9.5 5-.1 10-1.5 14.8-2.8q4.9-1.1 9.7-.5 3 2 6 3.3c2 1 4.1 2 6.2.8 1.5-.6 2.9-1.8 4.4-2.4 3.7-.7 7.6-.5 11.3-.3q10.5.6 21 1.5c3.2.2 6.5 1 9.7 1.3q4.8-1 9.6-2.8 4.9-1.4 9.6-3.4" class="b"/><path d="M8 148.7c1.8-.1 3.6.6 5.3.9s3.6 0 5.3.3c3.6 1 7 3 10.5 4 5.5-2 11.6-1.7 17.5-1.6q10.5.2 21 .7 8.2.7 16.6-.2c4.7-.6 9.3-2.3 14-2.8 3-.2 6.4 0 8.7 2q2.8 1.8 6.2 2.4c2.1-.1 4.2-1.3 6-2.4 1.7-.7 3.4-2.3 5.3-2l8.8.8c7 .7 14 1 21 1.8q3 .3 6.1.9c1 .1 2.4.6 3.5.4q4.9-1.2 9.6-2.8 5.4-1.4 10.5-3.5" class="b"/><path d="M8 147.2c1.8-.2 3.6.5 5.3.8q2.7.5 5.3.2c3.7.3 7 2.7 10.5 3.9.8.2 1.8-.3 2.6-.5l3.5-.8q5.6-.6 11.4-.2l16.6.5c5.2.2 10.5.6 15.7.3a59 59 0 0 0 9.6-1.5c3-.6 5.8-1.4 8.8-1.5q3.7 0 7 1.7c1.4.8 2.8 2 4.4 2.4 4.1.8 11.3-4.8 15.7-5.2q5.2 1 10.5 1.6c9 1.2 18.2 1.3 27.1 3.4 3.6-.7 7-2 10.5-3 3.9-1 7.8-1.7 11.4-3.5" class="b"/><path d="M8 145.8c3-.5 5.9 1.3 8.8 1l3.5-.2c3.1.5 5.9 2.3 8.8 3.5q1.3.5 2.6 0 1.7-.7 3.5-1 4.7-.6 9.6-.4l17.5.7q7.5.5 14.9.2 5.2-.3 10.5-1.6c3.1-.7 6.4-1.6 9.6-1.2q2.8.5 5.3 2c1.5 1 3.3 2.7 5.2 1.7 5.8-2 11.5-4.5 17.5-5.6 3.1 1 6.4 1.4 9.6 2 5.5.9 11.1 1.2 16.6 1.9q5 .6 9.7 1.7c3.8-.8 7.5-2.2 11.3-3 3.9-1 7.9-1.6 11.4-3.5" class="b"/><path d="M8 144.3c1.8-.5 3.7.2 5.3.6q2.7.6 5.3.3 1.7-.1 3.5-.1c3 .8 5.8 2.5 8.7 3.6 1.7-.4 3.5-1.2 5.3-1.4q5.2-.7 10.5-.3l17.5.8a77 77 0 0 0 16.6-.6c5.7-.8 11.8-3.7 17.5-1.3 1.8.7 3.5 2.2 5.2 3.1 1 .1 2-.5 2.7-.9q1.2-.7 2.6-1.2a89 89 0 0 1 17.5-3.9l7 1.6c5.7 1 11.7 1.5 17.5 2.3q4.8.8 9.6 1.8c3.8-.9 7.5-2.3 11.4-3 4.2-.8 8.5-1.6 12.2-3.7" class="b"/><path d="M8 142.7c1.5-.5 3 0 4.4.3q2.6.9 5.3.8 2.6-.4 5.2-.4c3.1.8 5.9 2.5 8.8 3.6a34 34 0 0 1 15.7-1.8l15.8.8q8 .5 15.7-.7c5.8-.8 12-3.8 17.5-1.1 1.9.8 3.3 2.6 5.3 3.1 1.5-.6 2.8-2 4.4-2.6 3.5-1.6 7.5-1.9 11.3-2.5q4.9-.7 9.7-1 3.3 1 7 1.6c8 1.6 16.5 1.6 24.5 4 1.4.5 3-.5 4.3-.8q3-1 6.1-1.7c3-.7 6-1 8.8-1.8 2.1-.5 4.1-1.7 6.1-2.5" class="b"/><path d="M8 141c1.5-.5 3-.1 4.4.3q2.6.9 5.3.9 2.6-.2 5.2-.5c3.5.1 6.5 2.6 9.7 3.6q3-1.2 6-1.8 4-.5 8-.2 7.4.5 14.8.8 7.5.5 14.9-.7 4-.7 7.9-1.6c2.8-.6 5.9-1.1 8.7-.1 2.3.7 4 2.7 6.1 3.9 1 0 2-1 2.7-1.7q1.2-1.1 2.6-2c2.4-1 5.2-1.1 7.8-1.3l9.7-.7 5.2-.3c3.5.6 7 1.6 10.5 2 6.4 1 13 1.2 19.3 3.1l1.7.5q1.8-.2 3.5-.9 3-1 6.1-1.8c3.2-.7 6.5-1 9.7-1.8 2-.6 4-2.2 6-2.5" class="b"/><path d="M8 139.4c1.8-.8 3.7 0 5.3.4q2.6 1 5.3.8l5.2-.6c3.5 0 6.5 2.5 9.6 3.6q2.6-1 5.3-1.8 4.3-.7 8.7-.4l14 .8q6.7.4 13.2-.6c5.3-1.1 11.1-4 16.6-2q1.9 1 3.5 2.4c.7.7 1.6 1.6 2.6 1.8 2-.9 2.7-3.3 4.4-4.4 2-1.1 4.7-1 7-1h7.8l11.4-.3q4.4 1.2 8.8 1.6c6 .8 12.4 1 18.3 2.8q1.8.6 3.5 1 4.4-1.7 8.8-2.9c3.1-.7 6.5-.9 9.6-1.8q1.8-.5 3.5-1.5t3.5-.8" class="b"/><path d="M8 137.7c1.7-.8 3.7-.2 5.3.4q2.6 1 5.3 1c2-.1 4-.7 6-.8 3.6 0 6.6 2.4 9.7 3.5 2.5-1 5.2-2 7.9-2.1 6.4-.5 12.8.4 19.2.6q6.2.2 12.3-.6a37 37 0 0 0 8.7-2.6q1.7-.4 3.5-.3c4.3.2 5.8 3 8.8 5.3l.9-.2c1.8-1.5 2.9-4 4.3-6 2-.7 4.2 0 6.1 0q4.5.6 8.8.8 6.1.3 12.2.1c1.8.1 3.6.7 5.3.9 8.2 1.2 16.7.6 24.5 3.8 1.1.6 2.4-.1 3.5-.5l3.5-1.4q4.3-1.4 8.7-1.8 3.3-.4 6.2-1.8l1.7-.9q1.8 0 3.5.2" class="b"/><path d="M8 136c1.7-1 3.7-.3 5.3.3q2.6 1 5.3 1.2c2 0 4-.6 6-.8 4-.5 7.2 2 10.6 3.3 2-.4 4-1.6 6.1-1.9 6.7-1.2 13.4.2 20.1.3a70 70 0 0 0 20.2-2.6c2-.4 4.3-1.5 6-.1 1 .5 2 1.6 2.7 2.4s1.5 2 2.6 2.3c2.5-1.6 3-5.3 5.3-7.3 3.8-.9 7.6 1 11.3 1.5q8.7 1.4 17.5 1.1c6.7 1.3 13.5.9 20.2 1.5 3.6.3 7 1.7 10.5 2.8 2.6-1 5.1-2.3 7.8-3q4-.8 7.9-1.4 2.8-.5 5.2-2 2.7-.1 5.3.4" class="b"/><path d="M8 134.2c3.9-2.1 7.3 3 14 1.4 2.3-.4 4.8-1 7-.4q2.9.9 5.3 2.2c1 .5 2.4 1.2 3.5.4 5.3-2.4 11-2 16.6-1.6a101 101 0 0 0 22.8-1c2.3-.4 4.7-.9 7-.7q2 .2 3.5 1.4c.8.8 1.7 2.1 2.6 2.8l.9-.2c2-2 2.2-5.5 4.4-7.3q3.9-.1 7.8 0l5.3 1.7a64 64 0 0 0 18.3 2q3.1.4 6.2.5c4.6 0 9.3-.5 14 0q4.6.4 8.7 2.4c1.8 1 3.6-.6 5.3-1.2 3.5-1.8 7.5-2.3 11.3-2.9q2.3-.5 4.4-1.6 3.6-.2 7 .7" class="b"/><path d="M8 132.3c2-1.3 4.3-.1 6.2.7q2.5 1.3 5.2 1.4c2 0 4.2-.7 6.2-1 4.4-1 8.3 1.7 12.2 3.2a27 27 0 0 1 8.8-2.4c5.8-.3 11.6.5 17.5.3l9.6-.6c2.6-.2 5.3-.6 7.9-.3q2.3.3 4.3 1.6c.8.6 1.7 1.5 2.6 1.7 2.2-1.3 2.7-4.8 3.5-7l1-.5h8.7c2.2-.2 4.1 1.2 6 2q3.5 1.4 7 2c5.3 1 10.6 1 15.8 1 6.2 0 12.3-1.5 18.4-.7 2.8.4 5.4 1.6 7.9 2.8 2.1-.4 4-2 6-2.8q4-1.4 8-1.8l2.6-.7c.8-.2 1.8-.8 2.6-.8 2.6.2 5.4 0 7.9 1" class="b"/><path d="M8 130.5c3.5-2.2 7 2 10.6 2.2 4.4.6 8.7-2.1 13-.9q2.3.6 4.5 1.7c1 .4 2.3 1.2 3.5 1.2 4.4-2 9.2-2.4 14-2.2q8.2.2 16.6-.1c6-.2 10.3-.7 15.7 2.7 2.2-.7 3.4-3.3 4.4-5.2.3-.7 1-2 1.8-2.3h9.6c2-.2 3.5 1.7 5.2 2.6q3.3 1.8 7 2.5a57 57 0 0 0 15.8 1c6.4-.3 12.8-2.5 19.2-1.9 2.8.3 5.4 1.8 7.9 3 2.1-.7 4-2.3 6.1-3.2q3.4-1.3 7-1.8l2.6-.6c.8-.3 1.8-.8 2.7-.5 2.9.3 6 0 8.7 1.4" class="b"/><path d="M8 128.6c4.3-3 7.7 4.3 15 2.5q3.4-1 7-1.3c2.7-.1 5.4 1 7.8 2s2.8 1.5 5.3.5c6.4-2.1 13.4-1.3 20-1.5 6.8 0 14-.7 20.2 2.3 3.8-.6 5.2-5 7.9-7.2h10.5c1.7.3 2.9 2.4 4.3 3.4q2.4 1.8 5.3 2.5a56 56 0 0 0 17.5 1q4.9-.4 9.6-1.5c3.2-.7 6.4-1.5 9.6-1.4 3.2 0 6 1.8 8.8 3.2 2-1 4-2.7 6.1-3.6 2.5-1.2 5.3-1.5 7.9-2.2l1.7-.6 3.5.3c2.7.2 5.6.2 7.9 1.7" class="b"/><path d="M8 126.6c3.4-2.4 6.6 1.7 9.7 2.7 2.2.9 4.7.6 7 0 4.7-1.3 8.5-1.9 13.1.2 1.7.5 3.4 1.6 5.3 1.7 6.7-2.3 14-2 21-2q5.7-.1 11.3.7l3.5.9c.8.2 1.8.7 2.7.4 2.3-.9 4.3-2.6 6-4.3.8-.8 1.8-1.9 2.7-2.5q1.2-.4 2.6-.3h5.3q1.7-.1 3.5.3c1.3 1.7 2.5 3.8 4.3 5 3.3 2.3 7.6 2.1 11.4 2.3 5.2 0 10.6.2 15.8-.5 6-.7 12.1-4.5 18.3-2.5 1.9.5 3.5 2 5.3 2.6 1.8-1 3.4-2.5 5.2-3.6q2.5-1.3 5.3-2 2.2-.4 4.3-1.1l1.8.3c3.5.6 7.5 0 10.5 2.4" class="b"/><path d="M8 124.6c4.5-3.3 8 5 15 3.8 2.9-.4 5.7-1.7 8.7-2 4.6-.5 8.8 2 13.1 3a62 62 0 0 1 17.5-1.7q7.5 0 14.9 1.7c1.4.3 3-.6 4.3-1.1 3.2-1.5 5.8-4 8.8-5.8 1.7-.3 3.6 0 5.3-.1 2.8-.2 3.4.1 5.2 2.4 4.7 6.2 7 5 14 5.1h12.3c2.9 0 5.9.1 8.7-.5 5.5-1 11-4.9 16.6-2.3 1.5.6 2.8 2 4.4 2.4 2.8-2 5.3-4.7 8.7-5.6l3.5-1q1.4-.5 2.7-.2c4 1 8.9 0 12.2 3.1" class="b"/><path d="M8 122.5c3.6-2.5 6.8 2 9.7 3.5 2.4 1.3 5.3 1.3 7.9.6 11.1-3.6 11.4-1.4 21.8 1.1q4.8-.9 9.7-1.1 8.3-.3 16.6 1c5 .2 11.2-4 15.7-6.3 1.3-.8 3-.7 4.4-.7 4-.3 5.9 7 10.5 7.5q4.8.1 9.6 0h19.3q4 0 7.8-1.6c3.9-1.5 8.5-3.4 12.3-.8 1.1.6 2.2 2 3.5 2 1.8-1.2 3.4-3.2 5.2-4.5 2.8-1.8 6.4-3.1 9.7-2.3 4.3 1 8.9 0 12.2 3.5" class="b"/><path d="M8 120.4c3.8-2.5 6.9 2 9.7 3.9 2 1.4 4.6 1.6 7 1.2 7-1.5 9.8-3.7 17.5-1.6q4.3 1.4 8.7 2c2 0 4.1-.4 6.2-.4q4.3-.1 8.7.2l4.4.3q3.5-.4 7-1.5c5-1.4 9.8-4.1 14.9-5.6 3.2 1.3 4.8 5.2 7.8 6.9q1.7.8 3.5.6h28c2.6 0 5.4.3 7.9-.6 4.2-1.4 8.7-4.8 13.1-2.5q1.4.7 2.6 1.9l.9.7.9.1c2.3-2 4.1-4.9 7-6.2 2.1-1.2 4.6-1 7-.9q3.5.5 7 .8 3.6.5 6 3.2" class="b"/><path d="M8 118.1c4.5-2.4 7.3 3.2 10.6 5q2.9 1.5 6 1c2.8-.2 5.4-1.2 8-2q5.2-1.4 10.5-.2c3.7.7 7.5 1.7 11.3 2q9.7.9 19.3-1c5.9-1.3 11.6-3.5 17.5-4.7 2.9 2 4.8 6.3 8.7 6.5h32.4c2.3 0 4.8.2 7-.4 6.9-2.3 10.3-7 16.6-.1h.9c2.6-2.2 4.2-6.3 7.9-7h4.3q3.6-.1 7 .4 4.8 0 8 3.7" class="b"/><path d="M8 116c5.1-2.1 7.2 3.1 10.6 5.6 1.7 1.1 4 1.2 6 1.1 3.4 0 6.6-1.3 9.7-2.2q4.8-1.3 9.6-.6c4.1.6 8.2 1.5 12.3 1.7q6.5.3 13.1-.5 5.7-.9 11.4-2.1c3.1-.7 6.4-1.4 9.6-1.2 2 1.6 3.6 4.1 6.1 5 2.9.4 5.9 0 8.8.1h21c4.3 0 8.8.3 13-.1 3.5-.8 6.3-3.4 9.7-4 3-.6 5.2 1.7 7 3.6l.9.2c2.2-2.2 3.2-5.7 6.1-7.1q3-.1 6.1-.1 4.9-.1 9.6.6c2.2.4 3.9 2 5.3 3.6" class="b"/><path d="M8 113.8q2.3-.5 4.4 0c2.6 1.5 3.7 4.7 6.2 6.2 2 1.3 4.6 1.1 7 1.1 3.6.1 7-1.3 10.5-2.3 4.8-1.3 10-.7 14.8-.1q5.2.6 10.5.5c7 0 14-1.5 21-2.3 2.5-.1 6-.7 7.9 1.2 2.7 2.8 4 3.3 7.9 3h35c2.9 0 6 .6 8.7-.7 6-3.2 8.9-6.4 14 .3l.9.2c2-2.1 2.7-5.6 5.2-7.2h11.4c4.8 0 7.3.2 10.5 4.1" class="b"/><path d="M8 111.9h3.6c3.2.9 4.2 4.8 7 6.5 2.6 1.6 5.8.9 8.7 1 4.6.2 8.7-2 13.1-2.7 5.8-1 11.7 0 17.5.1 7.3.3 14.6-.9 22-1.3q3.9-.5 7.8.8c1.8.8 3.1 2.9 5.2 3.1h44.6q2.3.1 4.4-.6c6-3.1 8.8-7.2 14 .2l.9.1c1.7-2 2.4-5.3 4.4-7.1 3.7-.3 7.6 0 11.3-.1 5-.3 8 .6 11.4 4.3" class="b"/><path d="m8 110.1 3.6.1c2.7.9 4 4 6 5.7 2.3 2.5 5.9 1.6 8.8 1.8q3.1.1 6.2-.2c2.6-.5 5.2-1.5 7.8-2 5.8-1.4 11.7-.9 17.5-.8q6.1 0 12.3-.5c4-.2 8.2-.6 12.2 0q2.3.2 4.4 1.3c1.1.6 2.3 1.6 3.5 2 5 .4 10.6 0 15.8.2h32.3q1.8.1 3.5-.4c3-1.3 5.4-4.4 8.8-4.5 2.5 0 3.9 2.7 5.2 4.5l.9.2c1.5-2 2.2-5 3.5-7 1-.6 2.4-.3 3.5-.3h10.5q5.6.6 9.6 4.4" class="b"/><path d="M8 108.4h3.6c3 1.1 4.5 4.6 7 6.4q2 1.4 4.3 1.1h10.5q2.7-.4 5.3-1.1c6.5-2 13.4-2 20.1-2.1q5.7 0 11.4-.4c4-.1 8.2-.3 12.2.7 2.2.4 4 2 6.1 2.9h49.9c1.4 0 3 .1 4.4-.7 2.8-1.5 5.2-4.8 8.7-4.3 2.2.5 3.2 3 4.4 4.6l.9.3c1.5-2.1 1.7-5.5 3.5-7.4h7.8c1.7 0 3.6-.2 5.3.2l6.1 1.6q2.3 1 4.4 2.6" class="b"/><path d="M8 106.6q1.9 0 3.6.2c3 1 4.6 4.3 7 6.2 1.6 1.5 4 1.2 6 1.2h7q2.8 0 5.3-.2 4.5-1 8.8-2c4.6-.9 9.3-1 14-1.1 6.7-.1 13.5-1 20.1.4 2.5.4 4.7 2 7 2.9h52.5q1.8.2 3.5-.6c2.7-1.4 4.7-4.4 7.9-4.8 2.8-.2 4 3 5.2 5l.9.3c1.2-2 1.8-5 2.6-7 .7-.6 1.8-.5 2.6-.5h4.4c2.3 0 4.8-.3 7 .7q3.1.7 6.1 1.4 2.4.9 4.4 2.3" class="b"/><path d="M8 104.9h3.6c3.4 1 5 5 7.8 6.8q1.7 1 3.5.7h14c3.6-.1 7-1.3 10.5-2q6.5-1 13.2-1.3c6-.2 12.4-.7 18.3.9q1.9.5 3.5 1.3c1 .5 2.3 1.3 3.5 1.2h54.3q1.9 0 3.5-1.1c2.6-1.7 5.1-5.6 8.7-4.4 1.8 1 2.6 3.4 3.5 5l.9.4c1.2-2 1.7-5.4 2.6-7.5H170c1.5 0 3 1 4.4 1.3 3.3.6 6.8 1 9.6 3" class="b"/><path d="M8 103.1h3.6c3.5.9 5 4.8 7.8 6.7 1.8 1.3 4.1.8 6.2.9h8.7l6.1-.1q4-.6 7.9-1.5a98 98 0 0 1 27.1-1.1q2.7.6 5.3 1.6a8 8 0 0 0 4.3 1h54.3c3.7.5 5.3-1.8 7.8-4 5-4.2 6.8-1 8.8 3.7l.9.3c1.1-2 1.3-5.6 2.6-7.5h9.6c1.6-.2 3 1 4.4 1.3q3 .6 6.1 1 2.3.5 4.4 1.8" class="b"/><path d="M8 101.4q2.3-.1 4.4.1c3.5 1.2 4.9 5.2 8 7 1 .6 2.3.4 3.4.4h17.5c3.2-.1 6.5-1 9.6-1.5q5.7-1 11.4-1.3a30 30 0 0 1 16.6 2q2 1 4.4.8h56.9c3.4.4 5.4-3.2 7.8-5 4.9-3.5 6.3.7 7.9 4.7l.9.3.8-2.1c.3-1.1.8-4.8 1.8-5.4h10.5q1.7.8 3.5 1.4c3.5.8 7.3.5 10.5 2.4" class="b"/><path d="M8 99.6q2.7 0 5.3.2c3 1.4 4.4 5 7 6.8 1 .7 2.4.6 3.5.6h18.4c3.5 0 7-.7 10.5-1.3q5.6-1 11.4-1.3c3.2 0 6.5 0 9.6.8 2.3.4 4.6 1.8 7 1.8H141c3-.3 4.6-3.7 7-5.4 5-3.6 6.3 1 7.8 5.1l.9.3c.8-1.4 1.5-5.3 1.8-6.9l.8-.6h9.7c1.5-.1 2.9 1 4.3 1.3 3.5.8 7.3.5 10.5 2.1" class="b"/><path d="M8 97.9h4.4a4 4 0 0 1 3.5 1.5c1.8 1.8 3 4.4 5.3 5.8q1.3.3 2.6.2 11.9.2 23.6 0c6.1-.7 12.2-2 18.4-2q3.5 0 7 .7c2.3.6 4.6 1.6 7 1.3h49.9q6.1.2 12.2-.1c2.5-1.2 4-4 6.1-5.6 5.4-3.6 6.4 1.3 8 5.5l.8.2c.7-1.5 1.5-5.5 1.7-7.1q1.3-.6 2.7-.4h8.7c1.2.1 2.4.8 3.5 1.1 3.4 1 7.2.5 10.5 1.9" class="b"/><path d="M8 96.1h4.4c2 0 3.1 0 4.4 1.7 1.7 2 2.8 4.8 5.3 5.8h2.6q12.7.1 25.4 0c5.8-.4 11.6-1.7 17.5-1.3 2.6 0 5.2.8 7.8 1.3q9.2.2 18.4 0h44.6q1.7.2 3.5-.1c2.5-1.4 3.9-4.3 6.1-6 1.2-.9 3-1.3 4.4-.9 2.3 1.2 2.5 4.8 3.5 6.9l.9.2c.7-1.6 1.4-5.7 1.7-7.5H170c1.5 0 3 1 4.4 1.2 3.1.7 6.6.1 9.6 1.5" class="b"/><path d="M8 94.4h6.2c2.7-.4 3.9 2.7 5.2 4.5 2.6 4 3.8 2.9 8 3h16.5c4.1 0 8.2.2 12.3-.3q5.3-.5 10.5-.5c2.6 0 5.2.8 7.9.8h62.1c1.7 0 3.6.3 5.2-.3 3-2 4-6.5 7.9-7.2 1 0 2.5-.2 3.5.4 1.4 1.8 1.9 5 2.6 7l.9.1 1.7-7.5H170c1.5 0 3 .9 4.4 1.1 3.2.6 6.5.2 9.6 1.6" class="b"/><path d="M8 92.6h7c2.8-.2 4 3.2 5.3 5 2 3.3 3.7 2.5 7 2.6h27.1c3.5 0 7-.5 10.5-.5q4.5.2 8.8.5h63c1.7-.1 3.7.4 5.2-.6 4.3-3.3 4.6-8.5 11.4-6.7 1.5 1.8 1.9 5.2 2.6 7.3h.9c.4-1.9 1.2-5.7 1.8-7.6h7.8c2 0 4.2-.1 6.1.7q3 .9 6.2 1 2.6.2 5.2 1" class="b"/><path d="M8 90.9h6.2c1.8 0 3.1-.3 4.4 1.3 1.6 2 2.5 5.4 5.2 6.2h4.4c11.6 0 23.3.2 35-.2q8.2.2 16.6.2h56c6.5.3 6.2-.8 10.5-5.2 1.5-1.7 4-2.7 6.1-2 2.2 1.4 2.4 5 3.5 7.2h.9l1.7-7.5h8q2.2-.2 4.3.2a20 20 0 0 0 7 1.3q3 .4 6.1 1.1" class="b"/><path d="M8 89.1h7c3.2-.2 3.8.5 5.3 3 1.2 2 2.6 5 5.3 4.6h5.2q21.5-.2 42.9 0h61.2c4 0 5.7.4 8.8-2.7 2.4-2.3 6.5-6.4 9.6-3 1 1.5 1.8 4 2.6 5.7l.9-.1 1.8-7.4q3.4-.2 7 0 2.2-.1 4.3 0l2.6.9q3.1.7 6.2.7l5.2 1" class="b"/><path d="M8 87.4h9.7c2.3.2 3.2 3.2 4.4 4.8.8 1.2 1.9 2.7 3.5 2.7H134c3.6 0 5.9.3 8.8-2.1 2.7-2 6-5.8 9.6-3.6 1.7 1.4 2.3 4 3.5 5.7l.9-.3 1.8-6.6.8-.6h9.7q2.1.7 4.3 1.3 2.6.6 5.3.4l5.2.8" class="b"/><path d="M8 85.6h10.6c2.3.5 3.1 3.4 4.3 5q1 1.6 2.7 2.5 2.6.1 5.2 0 15.8 0 31.5 0h70.9c2 0 4.2.3 6.1-.5 3.2-1.1 5.6-3.9 8.8-5 4.9-1.6 5.4 2.7 7.8 5.6l.9-.7c.9-2 1.2-5.2 2.6-6.9q4.5-.1 8.8.1 2.6.8 5.2 1.4 3 .6 6.1.4 2.3.2 4.4.6" class="b"/><path d="M8 83.9h10.6c1.5-.3 2.7 1 3.5 2.1 1 1.7 2 3.7 3.5 4.9 1.2.8 3 .5 4.3.5h101.5c2 0 4.2.2 6.2-.3 4.6-.9 8.2-5.9 13-5 1.6.4 2.8 2 3.6 3.2.2.6 1.2 1.9 1.7 2.1 1.9-1.7 2-5.2 3.5-7.3q1.3-.3 2.6-.2h4.4c2.4.3 4.7 1.3 7 1.7 3.5.7 7-.2 10.5.6" class="b"/><path d="M8 82.1h12.3c1.7.5 2.8 2.3 3.5 3.7 1 1.6 2.3 3.8 4.4 3.9h100.6c2.9 0 6 .3 8.8-.6 7-2.3 11.9-9 17.5.2l.8.2c1.6-1.6 2-4.7 3.5-6.3 2.5-1.8 6.9-.8 9.6-.1q4 1.1 8 1.2c2.2.1 4.6-.5 7 0" class="b"/><path d="M8 80.4h12.3c4.2 0 4.4 6 7.9 7.3 2.3.5 4.7.1 7 .2q17 .1 34.1-.1c19.5.3 39 0 58.6.1 3.2 0 6.6.2 9.7-1 4.4-1.2 9.3-5.7 14-2.8 1.3 1 2.3 2.6 3.5 3.7l.8-.3c1.3-1.5 2-4 3.5-5.3 3-2.4 7.2-1 10.5-.4q4 1 7.9 1c2 0 4.1-.5 6.1-.3" class="b"/><path d="M8 78.6h12.3c4.7-.6 5.2 5.6 8.8 7.3 2 .6 4.1.2 6 .3q17.6 0 35-.3c18.5.5 36.8.2 55.2.3q4.4.1 8.8-.4 3-.7 6-2c3.6-1.5 8-3.5 11.5-.9 1.2 1 2.2 2.4 3.5 3.2 1-.6 1.9-2.2 2.6-3.3 2.2-3.4 6-3.5 9.6-2.9q3.9.8 7.9 1.2 4.4.1 8.7-.4" class="b"/><path d="M8 76.9h13.2c4.6-.7 5.4 5.3 8.7 7.1 1.4.6 3 .4 4.4.4h25.4c3.7 0 7.6-.4 11.3-.4q6.6.1 13.2.4h37.6q5.7.1 11.4-.5 4-1 7.8-2.6c2.5-.9 5.3-1.7 7.9-1 2.1.6 3.7 2.4 5.3 3.8h.8c1.3-1 2.3-2.8 3.5-3.9 2.9-2.6 7-2 10.5-1.4q7.5 1.1 14.9.3" class="b"/><path d="M8 75.3c1.8-.3 3.6-.1 5.3-.2h8.8c4.5-.6 5.5 5 8.7 7 1.3.8 3 .6 4.4.6h23.6q7-.4 14-.6 7 .2 14 .6h31.5c5 0 10 .1 14.9-.9 5.1-1 10.4-4.6 15.7-2.9 2 .7 3.5 2.7 5.3 3.7 1.3-.8 2.4-2.3 3.5-3.3 2-2 5-2.5 7.9-2.3 2.9.1 5.8.7 8.7.8q4.9.3 9.6-.4" class="b"/><path d="M8 74.2c2.9-1.1 5.9-.8 8.8-.8h5.3q1.7-.1 3.5.3c3.3 1.8 4.3 7.2 8.7 7.2H58c5.3-.2 10.5-.8 15.8-.7 5.5-.1 11 .5 16.6.7h21.9c6.7 0 13.5.3 20.1-1 5.1-1.2 10.4-4.4 15.8-2.7 2 .7 3.5 2.4 5.2 3.5 1.4-.1 2.4-1.7 3.5-2.5q2.3-2 5.3-2.5c3.4-.5 7 .2 10.5.4q5.6.3 11.3-.3" class="b"/><path d="M8 73c1.5-.3 3-1 4.4-1.3H23q1.8-.2 3.5.1c3.7 1.7 4.2 6.7 8.8 7.3q11 .2 21.9 0c5.5-.3 11-1 16.6-1q9.2.2 18.3 1h15c7.5 0 15.2.3 22.7-1 5.7-.9 11.5-4.4 17.5-2.6 2 .7 3.6 2.2 5.2 3.4h.9c5.3-4.2 7-5.2 14-4.7q8.2.8 16.6 0" class="b"/><path d="M8 71.8c2.2-.2 4.1-1.6 6.2-2 4.3.2 8.8-.1 13.1.2 1.6.4 2.7 2 3.5 3.3 1.3 1.7 3 3.4 5.3 3.9 2.5.5 5.2.2 7.8.2h11.4c5.8-.4 11.7-1.3 17.5-1.3 10.5-.3 21 1.5 31.5 1.3 8.2-.1 16.4.2 24.5-1.3 6-1.2 12.4-4.7 18.4-2q1.4.7 2.6 1.7c.7.5 1.7 1.4 2.6 1.4 4.6-3.1 6.4-4.8 12.3-4.7 6.4.3 12.8.7 19.2 0" class="b"/><path d="M8 70.4c2.6-.2 4.8-1.5 7-2.3h8.8c1.7.1 3.6-.2 5.3.3 1 .6 1.9 2 2.6 3q2.3 3 6.1 4c2.6.4 5.3.2 7.9.3h8.7c5.6-.5 11-1.5 16.7-1.6q8.2-.2 16.6.3 7.8.8 15.7 1c8.2 0 16.5.3 24.5-1.5 6-1.3 12.5-4.4 18.4-1.5q1.4.7 2.6 1.7c.7.6 1.7 1.4 2.6 1.3 5.4-3.5 7.3-4.7 14-4.4q9.2.6 18.4-.2" class="b"/><path d="M8 69q2.3-.3 4.4-1.1 1.8-.9 3.5-1.5h8.8c1.7 0 3.6-.3 5.2.2 1.5 1.4 2.8 3.4 4.4 4.7 3.4 2.7 8.1 2.5 12.3 2.6l7.8-.1 7.9-1.1q7-.7 14-.7c12.6-.3 25 2 37.6 1.3q8.5-.1 16.6-2.6c4.5-1.3 9.6-2.5 14-.5 2 .8 3.5 2.4 5.3 3.4 1.6.2 3-1.4 4.4-2.1q2.4-1.5 5.2-1.9c3.8-.6 7.6-.1 11.4 0q6.6.2 13.1-.5" class="b"/><path d="M8 67.4q2.8-.3 5.3-1.3c1.1-.5 2.3-1.3 3.5-1.5H30c1.7 1 2.9 3 4.4 4.1C38 71.8 43 72 47.4 72c4.7.2 9.4-.7 14-1.3q7.5-.8 14.9-.8 9.7 0 19.3.7c6 .4 12.2 1 18.3.6a56 56 0 0 0 11.4-1.7c4.3-1.1 8.6-2.8 13.1-2.6q3.9.2 7 2.6c1 .8 2.2 2 3.5 2.5 1.6-.2 3-1.6 4.4-2.3q2.8-1.5 6.1-1.9 5.7-.3 11.4.2 6.5.2 13-.5" class="b"/><path d="M8 65.8q2.8-.3 5.3-1.2 1.8-1 3.5-1.7H30c1.8.4 3 2.4 4.4 3.5 2.7 2.2 6.2 3.2 9.6 3.4q5.2.5 10.5-.2 6-1 12.3-1.4c12.8-.6 25.7 0 38.5.7q11.7.9 22.7-3c4.8-1.3 10.5-2.4 14.9.5 1.8 1.2 3.1 3.3 5.2 4 1.6-.6 3-1.8 4.4-2.5a22 22 0 0 1 11.4-1.9q10 .7 20.1-.2" class="b"/><path d="M8 64.1q2.8-.2 5.3-1.2c1.5-.5 2.8-1.7 4.4-1.8h7.9q2.6-.1 5.2.2c4.7 3.9 6.7 5.7 13.1 6.4 6.2.8 12.4-.4 18.4-1.5q8.3-.5 16.6-.3 12.3.2 24.5.5 4 .2 7.9.2a43 43 0 0 0 10.5-1.7c3.2-.9 6.3-2.2 9.6-2.7 4.8-.6 9.3 0 12.3 4.2 2.5 2.6 3 2.7 6 .6 5-3.4 11.1-2.8 16.7-2.5q8.8.5 17.5-.3" class="b"/><path d="M8 62.4q2.8-.4 5.3-1.2 1.8-.8 3.5-1.7c2-.3 4.1 0 6.1-.1h5.3c1.2 0 2.6-.2 3.5.7q7.1 6.3 16.6 5.8 5.3-.1 10.5-1c2-.3 4-1.1 6.1-1 13.2-.2 26.3.4 39.4 0h6.1q3.6 0 7-.9c3.3-.7 6.4-2 9.6-2.9q4.4-1 8.8-.5 1.8 0 3.5 1c2 2 3.3 5.2 6.1 6.3 1.6-.4 3-1.7 4.4-2.5a22 22 0 0 1 12.2-1.8q11 .9 21.9-.1" class="b"/><path d="M8 60.7q3.3-.5 6.2-1.7c1.4-.7 2.8-1.6 4.4-1.4h7.8c1.8.1 3.8-.4 5.3.8 6.8 5.6 14.4 5.9 22.7 5.1q5.9-.5 11.4-2 13.5.5 27.1.5a139 139 0 0 0 15.8-1.1q2.2 0 4.3-.2c4-.4 7.6-2.1 11.4-3q3-.2 6.1 0 3.5-.1 7 0c2.6 1.9 3.5 7.1 7 7.4 1.8-.8 3.4-2.4 5.3-3.2 4.4-2 9.3-1.2 14-1q10 .9 20-.1" class="b"/><path d="M8 58.9q2.8-.4 5.3-1.4c1.4-.5 2.8-1.7 4.4-1.6h12.2q2 .8 3.5 2l4.4 2.2a55 55 0 0 0 29.7-.7q1.8-.1 3.5.1l7 .3c7.6.1 15.2.3 22.8-.3q3.5-.3 7-1c1.1-.3 2.4-.9 3.5-1 3.2 0 6.4-1.5 9.6-1.6h14c.8 0 2-.1 2.6.4 1.8 2.1 3.3 9.3 7 6.4a19 19 0 0 1 4.4-3c3-1.2 6.4-1.1 9.6-1 8.5.8 17 1.2 25.4.4" class="b"/><path d="M8 57a24 24 0 0 0 5.3-1.5c1.4-.6 2.8-1.6 4.4-1.4H29c1.2.1 2.4 1 3.5 1.7q2.5 1.5 5.2 2.4c8 2.6 18 1.6 26.3.3q3-.6 6-1.3 4 .4 8 .5 10 .4 20-.2 4.5-.2 8.8-1.4c2-.4 4-1.5 6.1-1.9q11.9-.1 23.7 0c1.7 2 2.2 9.1 6 7.1 1.7-1.4 3.3-3.1 5.3-3.8a21 21 0 0 1 8.8-.7q13.5 1.7 27.1.5" class="b"/><path d="M8 55q2.3-.3 4.4-1.2c1.2-.4 2.4-1.2 3.5-1.4h11.4c1.6-.2 3 .6 4.4 1.4q2.9 1.6 6.1 2.6a66 66 0 0 0 31.5-.6c1-.1 2.4-.8 3.5-.5q11.3 1 22.7.3 5-.3 9.7-1.4c2.3-.5 4.6-1.7 7-1.8h23.6c1.8 1.8 1.3 5.8 3.5 7.5h1.7c1.9-1.3 3-3.6 5.3-4.5 5-2 10.5-.3 15.7 0q6.6.8 13.2.6c2.8 0 5.8-.5 8.7-.1" class="b"/><path d="M8 53.1c2.5-.4 4.8-1.7 7-2.5h11.4q2.4 0 4.4 1.3 3 1.6 6.1 2.4a72 72 0 0 0 26.3 1q3.5-.5 7-1.2c1.4-.2 3-.9 4.4-.8q10 .9 20 .3 5-.3 9.7-1.5c2-.4 4-1.4 6.1-1.5h19.3q1.7-.1 3.5.3c1.8 2 2.5 5 4.3 7a4 4 0 0 0 2.6.1c1.7-1.7 2.8-4.5 5.3-5.2 2.5-.9 5.3-.6 7.9-.3q4.4.6 8.7 1 6 .9 12.3.7l5.2-.1 4.4.4" class="b"/><path d="M8 51q2.9-.6 5.3-1.9 1.7-.4 3.5-.2h7c1.4 0 3-.2 4.4.4a51 51 0 0 0 24.5 4.8q12.1-.2 23.6-2.9 7.8.7 15.8.4 4.4-.1 8.7-1c2.3-.4 4.7-1.3 7-1.7h18.4c1 0 2.4-.2 3.5.2 2.7 2 4 5.6 7 7.2 1.7.6 3.2-.9 4.4-2 1.9-2 4.2-3.9 7-4.5 2-.4 4 .3 6 .6q5.2 1 10.6 1.5 5.2.6 10.5.4 4.4.4 8.7.7" class="b"/><path d="M8 49c1.8-.4 3.6-1.4 5.3-1.9h10.5q1.4 0 2.6.2l2.7 1.1q2.5 1.1 5.2 1.8c6.8 1.9 14 2.2 21 2Q67.4 52 79 49.3q2.2-.1 4.4.2a83 83 0 0 0 16.6-1q3-.9 6.1-1.4h15.8q2.2 0 4.4.2c3.8 1.8 5.9 7 10.5 7.4 1.9-.6 3.5-2.2 5.2-3.1 3.1-2 6.9-3 10.5-3 4.1 0 8.2.8 12.3 1.3q9.6 1.1 19.2 1.6" class="b"/><path d="M8 47q2.3-1 4.4-1.6h11.4c1.9 0 3.6 1.1 5.3 1.7q3 1 6 1.7a140.3 140.3 0 0 0 41.1-.2c2.4-.3 4.8-1.2 7.1-1.5q3 .2 6.1.1c4.7 0 9.4-1 14-1.8h19.3c3.9 1.6 6.7 5.2 10.5 7 2.4 1.3 4.8-.8 7-1.7q3.3-1.7 7-2.4c5.8-1 11.7 0 17.5.4q9.6 1 19.2 1.3" class="b"/><path d="M8 44.8q1.8-.7 3.6-1.2h11.3c1.6 0 3 1 4.4 1.5q3.4 1.3 7 1.9c9.5 1.8 19.3 1.8 28.9 1.3 8-.4 16-1.1 23.6-3.4q6.6-.1 13.1-1.2 6-.2 12.3 0 3.5-.2 7 0c4.1 1.2 7.4 4.4 11.3 6.2q1.7.9 3.5 1.2 2.7-.8 5.3-2c7.2-3 15.1-2.4 22.7-1.8q11 .7 22 1.1" class="b"/><path d="M8 42.6c2-1 4.2-.7 6.2-.7H22c1.7.5 3.5 1.5 5.2 2q3.5 1 7 1.5a160 160 0 0 0 49-.8c3.8-.7 7.6-2 11.4-2.6 5.8-.3 11.7 0 17.5-.1h3.5a19 19 0 0 1 5.2 2c3.2 1.7 6.3 3.6 9.7 4.8a8 8 0 0 0 2.6.5q2.6-.7 5.2-1.7 4.3-1.2 8.8-1.7c5.8-.5 11.7 0 17.5.3l19.2.7" class="b"/><path d="M8 40.4c1.7-.5 3.6-.2 5.3-.3h7c2 .6 4 1.8 6.1 2.3q4.4 1 8.8 1.5 13.5 1.5 27.1 1a156 156 0 0 0 22.8-2c4-.7 8.1-1.8 12.2-2.4q7.5-.7 14.9-.1c5 .7 9.4 3.5 14 5.3 2 .7 4 1.8 6.1 1.7 2.3-.5 4.7-1.4 7-1.9q5.2-1.1 10.5-1.2 7.8 0 15.8.4l18.3.5" class="b"/><path d="M8 38.4h10.6c1.4.4 2.9 1.4 4.3 1.9q4.3 1.3 8.8 1.6a236 236 0 0 0 57.7-1 60 60 0 0 1 22.8-1.4c4.5 1 8.8 3 13.1 4.6 2.2.7 4.7 2 7 1.3 3.8-.9 7.5-2 11.4-2.2 6.4-.6 12.8-.3 19.2-.1l21 .4" class="b"/><path d="M8 36.6h7q1.5 0 2.7.2 1.3 1 2.6 1.7 3 1.1 6.1 1.5c21 1.7 42.2 2.6 63-.6a62 62 0 0 1 22.8-1c4.2 1 8.1 2.8 12.2 4 2.3.7 4.7 1.8 7 1.2q6-1.5 12.3-2c6.4-.5 12.8-.2 19.2 0l21 .3" class="b"/><path d="M8 34.9h8c1 .8 2.2 2 3.4 2.6 2.5 1 5.3 1.1 8 1.4q6.5 0 13 .4c16.4.7 32.8 1 49-1.4a59 59 0 0 1 25.4 0c4.4 1.3 8.6 3 13.1 4q1.8.3 3.5-.3l3.5-.6q4.8-1 9.6-1.1c6.1-.3 12.3 0 18.4 0l21 .3" class="b"/><path d="M8 33.1c2.4 0 4.9-.2 7 .6q3 3.8 8 3.7c3.1.3 6.4 0 9.6 0l16.6.5c12.8.3 25.7.3 38.5-1.3 8.7-1.2 17.6-2.5 26.2-.2 4.4 1 8.7 2.8 13.2 3.7 2 .5 4-.5 6-.7q5.2-.9 10.6-1.1c13.4-.3 26.8.1 40.2.2" class="b"/><path d="M8 31.4q3.3 0 6.2 1.5 1 1.5 2.6 2.4c2.1 1 4.7 1 7 1.1 4 0 8.2-.5 12.3-.4 16.3.1 32.7 1 49-.8 9.2-1 18.7-2.8 28-.6 4 1 8 2.5 12.2 3.5q1.3.3 2.6.4l4.4-.8q5.6-1 11.4-1.1c13.4-.2 26.8.1 40.2.1" class="b"/><path d="M8 29.9q2.3.5 4.4 1.8c1.2.8 2.2 2.2 3.5 2.7q3 1 6.2.9 3 0 6-.3a120 120 0 0 1 15.8-.6c11.4.1 22.8.4 34.2-.3 11-.6 22.1-3.6 33.2-1.5 5.3 1 10.4 3.3 15.8 4.2q7.3-1.5 14.8-1.9c14-.2 28 .1 42 .1" class="b"/><path d="M8 28.9q1.9 1 3.6 2 1.4 1.7 3.5 2.5c2.5.8 5.2.7 7.8.7 4.7-.2 9.4-1.2 14-1.2 12.3-.4 24.6.3 36.8-.4A215 215 0 0 0 90.3 31c6.7-.8 13.5-1.5 20.1-.3q5.3 1 10.5 2.9c2.2.5 4.8 1.7 7 1.2q6.5-1.3 13.2-1.6 21.3-.2 42.8 0" class="b"/><path d="M8 28.2q2 1.3 3.6 2.9 1.6 1.1 3.5 1.5 6.1.6 12.2-.1 5.3-.9 10.5-1.2c12-.6 24 0 35.9-.5a210 210 0 0 0 16.6-1.6 64 64 0 0 1 20.1-.4c3.6.7 7 2 10.5 3 2 .6 4 1.5 6.2 1.4q6.9-1.4 14-1.7 21.3 0 42.8 0" class="b"/><path d="m8 27.8 2.7 2.3c2.3 1.4 5.2 1.3 7.9 1.3q6.1.1 12.2-.8 7.5-1.1 14.9-1.2c10.8-.2 21.6 0 32.3-.8 11.1-.7 22.3-4 33.3-1.6 4.8 1 9.2 3.3 14 4.3 2 .5 4.1-.5 6.1-.7q4.8-.7 9.6-.8h43" class="b"/><path d="M8 27.5c3 3.1 7.7 2.3 11.4 2.4q7.5 0 15-1.2 7.7-1 15.7-1.1c11.6-.3 23.4-.1 35-1.7 9.2-1.2 18.8-3.3 28-.5q4.8 1.7 9.6 3.5l3.5.9c1.7 0 3.5-.7 5.2-1q4.8-.7 9.7-.8h42.8" class="b"/><path d="M8 27.1c1.6 1 3.6 1.1 5.3 1.2a139 139 0 0 0 16.6-.4q7.9-1.4 15.8-2c9-.5 18-.3 27.1-.9q9.7-.6 19.3-2.2a42 42 0 0 1 23.6 1.4c3.7 1.3 7.4 3.5 11.4 3.8q6.9-1.7 14-1.7l42.8-.1" class="b"/><path d="M8 26c3.2 1 6.5.5 9.7.5 2.6-.1 5.3.2 7.9 0 7.9-.2 15.7-2.2 23.6-2.6 8.4-.5 17-.4 25.3-1q9.8-.8 19.3-2.6a36 36 0 0 1 23.6 2.5c3.1 1.4 6.2 3 9.6 3.5q7-1.8 14-1.8h23.7q9.6-.1 19.2 0" class="b"/><path d="M8 24.7c3.2.5 6.5-.1 9.7-.1 3.5-.2 7 .5 10.5.1q6.6-.5 13.1-1.5 5.2-1 10.5-1.5c7.9-.5 15.8-.4 23.6-1 6.2-.4 12.3-1.7 18.4-2.7q5.6-.7 11.4-.6c4.6-.2 8.2.8 12.2 3 2.7 1.5 7.5 4.5 10.5 4q3.5-.8 7-1.3c4.4-.6 8.8-.4 13.1-.4 12 .3 24 0 36 0" class="b"/><path d="M8 23c3.6.3 7-.5 10.6-.4 3.4 0 7 .7 10.5.3q7.9-.5 15.7-2c3-.4 5.8-1.4 8.8-1.5 7.2-.5 14.6-.3 21.8-.8 5.6-.5 11.1-1.8 16.7-2.7 4.3-.6 8.7-.2 13-.3l7 .1q2.5.4 4.5 1.8c3.5 2 7 5 11.3 5.3a53 53 0 0 1 7.9-1.6c4.3-.5 8.8-.2 13.1-.2q17.6.3 35-.2" class="b"/><path d="M8 21.4c3.3 0 6.5-.6 9.7-.6q5.3.2 10.5.5c8.5-.7 17.1-1.6 25.4-4 1.9-.6 4-.4 6-.5l11.4-.2c6-.2 11.8-1.4 17.5-2.5 2.3-.4 4.7-.2 7-.2h15.7c1.8 0 3.8-.2 5.3.8 3 2 5.6 4.4 8.8 5.7 1 .3 2.4 1 3.5.6q3.5-1 7-1.5c4.3-.6 8.8-.3 13.1-.3q10.5.2 21 .1c4.7 0 9.4-.4 14-.3" class="b"/><path d="M8 19.6q5.2-.6 10.6-.7 4.8.1 9.6.6 8.3-.5 16.6-1.9 4.5-.7 8.8-1.8c2-.4 4-1.6 6-1.5q7 0 14-.2 5.4-.6 10.6-1.6c4.3-.7 8.8-.2 13.1-.4h19.3c1.7.6 3 2.1 4.3 3.2q2.8 2.5 6.1 3.8 1.8.6 3.5-.1l3.5-.9c4.9-1 10-.7 15-.7q10.4.3 21 .2 7-.4 14-.4" class="b"/></svg>