<svg xmlns="http://www.w3.org/2000/svg" id="a" width="1920" height="2400" viewBox="0 0 192 240"><defs><style>.b{fill:none;stroke:#fff;stroke-miterlimit:10;stroke-width:.3px}</style></defs><path d="M0 0h192v240H0z" style="stroke-width:0"/><path d="M8 225.6c4.9-.3 10-1.2 14.9.4 1.4.4 2.8 1.7 4.3 1.8 2-1 3.4-3.3 4.4-5.2.3-.6 1-1.8 1.8-2.1h7.8q2.7-.2 5.3.2c6.8 2.3 14 2.7 21 3.3 9.7.6 19.3-.4 29-.7 2-.2 4 .5 6 .7q5.2.7 10.6.8 9.1.2 18.4 0c3.2 0 6.6 0 9.6 1.2 1.5.5 2.9 1.6 4.4 2 3-.5 4-4.5 5.2-6.9l1-.6H184" class="b"/><path d="M8 223.8c7.5-.5 12.3-1.3 19.2 2.3 2-.6 3.3-2.5 4.4-4.1.7-1 1.4-2.8 2.6-3.3h14q3 .9 6.2 1.6 4.8.7 9.6.8 7.9.3 15.8.1l16.6.2c3.5.5 7 1.2 10.5 1.3q10.1.7 20.2.4c4 0 8.3-.3 12.3.8 1.8.5 3.5 1.6 5.2 2.3 3.4-.5 4.4-4.7 6.1-7.2 1.4-.5 3-.2 4.4-.3H184" class="b"/><path d="M8 222c7.1-.4 12.6-1.2 19.2 2.3 2.4-.2 4-2.7 5.3-4.5.7-1 1.5-2.4 2.6-2.8h15c2 .2 4 1 6 1.2q4.5.7 8.8.7 7 .2 14 0 7.5.2 15 .5 2.2 0 4.3.6l6.1.8q10.1.8 20.2.5c4.3 0 8.8-.4 13.1.5q3.3 1 6.1 2.6c3.8-.4 4.8-5 7-7.4q16.7-.1 33.3 0" class="b"/><path d="M8 220.3c4.6-.2 9.4-.9 14 .2 2 .4 4 1.8 6.1 2 2.2-.8 3.8-3 5.3-4.8.7-.8 1.5-2.1 2.6-2.5h16.6c2 .2 4.1.8 6.2 1q4 .6 7.9.6 6-.1 12.2-.1 7.5.3 14.9.8c10.9 2.4 22.2 2.2 33.3 2q4.4-.3 8.7.3 2.8.5 5.3 1.8c2.4 1.6 3.3 1 5.3-1 1.5-1.6 2.4-4.3 4.3-5.4H184" class="b"/><path d="M8 218.5c5-.2 10-.9 14.9.4 1.7.5 3.5 1.5 5.2 2 2.2-.6 3.8-2.5 5.3-4.1 1-1.1 2-2.8 3.5-3.3H56q6.2 1.1 12.3 1.3H79q5.7.2 11.4.7c2 0 4.1.8 6.1 1q4.5.7 8.8 1 10.1.7 20.2.2c4-.2 8.3-.5 12.2.8 1.8.5 3.4 2 5.3 2.4 4.6-2 4.9-8 11.4-7.4H184" class="b"/><path d="M8 216.7c4-.2 8.2-.6 12.2 0 9.4 1.4 6.7 5.8 15-2.9.6-.7 1.6-1.7 2.6-2h21.9q4.7.6 9.6 1 9.2-.2 18.4.8c2.9.3 5.8 1.2 8.7 1.5q12.2 1.5 24.6 1c5.2-.2 10.6-1.2 15.7.4 1.9.6 3.5 2 5.3 2.7 1.7-.6 3-2.2 4.4-3.4 2-2.1 4.8-3.7 7.8-3.8 5-.4 10 .1 15 .2q7.4.1 14.8 0" class="b"/><path d="M8 215c5.2-.4 10.6-.9 15.7.6l4.4 1.7c3.4 0 6.2-4.2 8.8-6.1q1.5-1.4 3.5-1.2h22.8q5.6.6 11.3 1 5.3 0 10.5.6 5.7 1.4 11.4 2 11.8 1.2 23.7.7c5.2-.2 10.7-1.4 15.8.2 1.8.6 3.5 2 5.2 2.8 1.8-.1 3-1.8 4.4-2.8q4.5-3.9 10.5-3.6c4 0 8.2.6 12.3.6q7.8-.2 15.7-.4" class="b"/><path d="M8 213c6.1-.2 12.6-.7 18.4 1.8 1 .5 2.3 1.1 3.5.5 3.6-1.6 6-5.2 9.6-6.8 2.2-.6 4.7-.2 7-.3h14.9a70 70 0 0 1 11.4.6c2.6.3 5.3.3 7.9 1q7 1.4 14 2.1 12.7 1.3 25.4.6c5.2-.2 10.7-1.9 15.7.2q1.5.6 2.7 1.5c.6.6 1.7 1.4 2.6 1.4 1.9-1 3.5-2.6 5.3-3.7 4.7-3 10.5-1.7 15.7-1.5 7.3.5 14.6-.6 22-.5" class="b"/><path d="M8 211.3c6.1-.4 12.6-.6 18.4 1.8 2.8 1.5 4.6.2 7-1.5 7.8-6.2 7-5 16.6-5.1 5.8 0 11.7-.3 17.5.1 9.4 1.4 18.6 3.4 28 4 8.2.4 16.4.8 24.6 0 5.2-.3 10.9-2.4 15.8.2 1.4 1 2.7 2.5 4.3 3.1 2-.8 3.5-2.5 5.3-3.5 4.8-2.8 10.5-1.2 15.8-1 7.5.3 15.1-1 22.7-.7" class="b"/><path d="M8 209.4c5-.2 10-.3 14.9 1q2.6.6 5.2 1.6c3.8.3 7.3-3.8 10.5-5.4a13 13 0 0 1 5.3-1.9h16.6q3.6-.2 7 .5 14.3 3.4 29 4c7.8.2 15.7.6 23.6-.3 4.6-.5 9.4-2.6 14-.9 1.9 1 3.4 3 5.3 4 2 0 3.4-2.3 5.2-3.1 4.8-2.7 10.6-1 15.8-.9 7.9.3 15.8-.9 23.6-.4" class="b"/><path d="M8 207.6c4.6-.1 9.4-.2 14 .9 6.2 1.4 6.1 3.3 12.2-.5 8.2-5.5 10.8-5.1 20.2-5q5.7-.2 11.4 0c2.9.7 5.8 1.8 8.7 2.3q11.3 2 22.8 2.3c7.9.2 15.9.6 23.7-.7 3.9-.6 9.8-3.6 13.1-.6 1.8 1.2 3.1 3.4 5.3 4.1 1.8-1 3.3-2.7 5.2-3.6 5-2 10.6-.1 15.8-.2 7.9.1 15.8-.9 23.6 0" class="b"/><path d="M8 205.8q7-.3 14 1.1 3 1 6.1 1.7 1.8-.3 3.5-1c2.7-1 5.2-2.8 7.9-4a39 39 0 0 1 17.5-2.4c3.2.1 6.5-.2 9.6.2 3.2.9 6.4 2.2 9.7 2.7 7.5 1.6 15.1 1.8 22.7 2 7 .1 14.2.4 21-1 3.3-.6 6.4-2.2 9.7-2.6 1.6-.2 3.2 1.1 4.4 2 1.4 1.3 2.7 3.2 4.3 4.1 1.7-.3 3-2.1 4.4-2.9 4.8-2.8 10.6-.7 15.8-.7q6.6.1 13.1-.2 6.2 0 12.3.7" class="b"/><path d="M8 204q7.5-.1 14.9 1.7c1.7.3 3.5 1.2 5.2 1 3.7-.7 7.1-2.6 10.5-4a50 50 0 0 1 20.2-3.2h7.9c3.5.8 6.9 2.5 10.5 3.1 7.4 1.6 15.1 1.8 22.7 2h10.5c3.6-.2 7.2-.4 10.6-1.6 2.6-.9 5.1-2.4 7.8-3q2.5.3 4.4 2c1.8 1.5 3 4.2 5.3 4.9 1.7-1.2 3.2-2.9 5.2-3.6 2.5-1 5.3-.7 8-.4q3.3.5 7 .5h12.2q6.6 0 13.1 1.2" class="b"/><path d="M8 202.4q4.9 0 9.6.8 4.5.8 8.8 1.9c5.2-.5 9.9-3.4 14.9-4.8q5.2-1.4 10.5-2t10.5-.6q3-.2 6.1.2c3.5 1 7 2.6 10.5 3.3 7.8 1.6 15.8 1.8 23.7 1.9 5.5-.2 11.2.2 16.6-1.4q2.7-1 5.3-2.5c1.3-.8 2.8-1.6 4.3-1.2 4.2.3 5.8 4.8 8.8 7l.9-.1c1.6-1.4 3.2-3 5.2-3.5 4.3-1.1 8.8.3 13.2.3q6.6.1 13.1.2 7 .4 14 1.8" class="b"/><path d="M8 200.8q5.7.2 11.4 1.4c2.5.4 5.2 1.6 7.8.8 5.3-1.2 10.5-3.4 15.8-4.5q5.6-1 11.4-1.7c3.5-.4 7-1 10.5-.8 2 0 4.2-.2 6.1.7q4.8 1.8 9.7 3 11.7 2 23.6 1.8c5.6-.3 11.7.4 16.7-2.5 1.4-.9 2.8-2.1 4.3-2.8a9 9 0 0 1 6.2.7c2.4 1.6 3.5 5 6.1 6.5 1.5-.9 2.8-2.5 4.4-3.3q3.3-1.3 7-.7l7 .6c4.6.2 9.4 0 14 .5 4.7.5 9.4 1.5 14 2.2" class="b"/><path d="M8 199.3q5.7.6 11.4 1.7 2.2.5 4.3.6l5.3-1.1q12-3.6 24.5-4.9c4.4-.4 8.8-1.5 13.2-1.4l3.5.1q1.7.4 3.5 1.1 3.8 1.5 7.8 2.4a113 113 0 0 0 23.7 2c4.6-.2 9.7.4 14-1.8 1.9-1 3.3-3 5.3-3.8h4.3c4.1-.1 5.3 4.8 8 7l.8.3c1.6-1.3 3.2-3.1 5.3-3.7 4-1 8.2.4 12.2.4 5 .2 10 .2 15 1l8.7 1.6c1.7.2 3.5.7 5.2.5" class="b"/><path d="M8 198.1q5.6.9 11.4 1.6c2.3.3 4.7-.4 7-.8q5.2-1.3 10.5-2.3Q46.4 195 56 194c4.7-.6 9.3-1.8 14-1.5 2.2 0 4.2 1 6.2 1.7a57 57 0 0 0 7 2c8 1.7 16.3 2 24.5 2 3.5 0 7.3.2 10.5-1.5 1.7-1 3-2.6 4.4-3.9.4-.2 1.3-.4 1.8-.4h3.5c5-.7 5.6 4.6 8.7 7.3l.9-.1c1.7-1.7 3.6-3.5 6.1-3.8 4.1-.3 8.2.7 12.3.8q7 .1 14 1.4 4.3 1 8.8 1.6l5.2-.7" class="b"/><path d="M8 197q3.9.7 7.9 1c5.6-.2 11-1.8 16.6-2.6 8.7-1.5 17.6-1.9 26.3-3.1 4.6-.6 9.3-2.2 14-1.4q3 1 6.1 2a95 95 0 0 0 27.2 3.7c4 0 8.6.7 12.2-1.6 1.7-1 2.7-3.4 4.4-4.3h6.1c2.2-.3 3.3 1 4.4 2.6 1 1.5 2 3.6 3.5 4.8 1.6-.7 2.7-2.6 4.4-3.3a13 13 0 0 1 7-.6l6.1.6q5.2.2 10.5 1l9.7 2q1.7.1 3.5-.4l6.1-.8" class="b"/><path d="M8 196.1c2.9.5 5.9-.1 8.7-.5 5.3-.7 10.5-1.9 15.8-2.4 10.5-1 21.1-1.1 31.5-3.1 9.5-2.2 9.7-1 18.4 1.6 7.7 2.2 15.7 3 23.7 3.3 3.9 0 9.1 1 12.2-1.8 1.4-1 2.1-3.2 3.5-4.2q3.1-.1 6.2 0c2.9-.2 3.6 0 5.2 2.5 1 1.6 2 3.8 3.5 5 1.2-1 2.3-2.3 3.5-3 2.9-1.9 6.5-1.1 9.7-.8 5.5.5 11.2.8 16.6 2.2 2 .4 4 1.3 6.1 1q5.7-1 11.4-1.6" class="b"/><path d="M8 194.2c7.6-1 15-2.7 22.7-3.1 12-.6 24.2-.3 36-2.8 9.2-2.3 9.8-.6 18.3 1.8a104 104 0 0 0 28 3.5q2.5.1 4.4-1.3c1.6-1.2 2.2-3.5 3.5-4.8 1.1-.5 2.4-.3 3.5-.3h5.3c3.8-.4 4 6 7 7.4 1.2-.9 2.3-2.2 3.5-3 3-1.7 6.5-1 9.6-.7q4.8.5 9.7 1.2l8.7 2c.8.3 1.9 0 2.7 0a135 135 0 0 1 13.1-2" class="b"/><path d="M8 191.2c6.9-1.3 14-2.6 21-2.6 13.7.2 27.7 1 41.2-2.2 7.7-2 9.4-.3 16.6 1.7q10.7 3.1 21.9 4c3.3 0 7.8 1 9.6-2.6.5-1.3 1.4-3.3 2.7-4q5.2-.1 10.5 0c2.4 1.8 2.6 6 5.2 7.4 4.5-4.6 6-4.5 12.3-3.8 6 .5 11.7 2 17.5 3.4 2.3-.2 4.7-1 7-1.2q5.2-1 10.5-1" class="b"/><path d="M8 187.3q8.2-1.3 16.6-1.6c5.3 0 10.5.8 15.8 1.1q15.9 1.2 31.5-1.9c8.6-2.2 9.4-1.1 17.5 1.5a108 108 0 0 0 23.7 4.5c1.6 0 3.4-.2 4.4-1.7.6-1.6 1.5-3.9 2.6-5.2 1-.5 2.4-.3 3.5-.3h5.2c2.2-.4 3.4 1.5 4.4 3.1 1 1.4 1.8 3.7 3.5 4.3 4.4-4 6.5-4.5 12.3-3.7 5 .5 10 2 14.9 3.3 1.1.3 2.4-.3 3.5-.5a65 65 0 0 1 16.6-1.8" class="b"/><path d="M8 183c6-.3 12.3-.8 18.4-.3q6 .9 12.2 1.8A103 103 0 0 0 71 184c4.1-.6 8.1-2.2 12.3-2 2.4.2 4.8 1.2 7 2l7 2.3a82 82 0 0 0 12.3 2.8c2.2.3 4.7.7 7 .1 1.7-1.9 1.7-5.4 3.5-7.3h7.9c2.3 0 4 2.1 5.2 3.8 1 1.2 2 3 3.5 3.6 1.9-1.3 3.8-2.8 6.2-3.1 5-.7 10 .2 14.8 1.6 1.7.3 3.5 1.2 5.3 1.2l2.6-.7a71 71 0 0 1 18.4-1.7" class="b"/><path d="M8 180.2c7 0 14-.3 21 .1 3.8.5 7.6 1.7 11.4 2.3q7 1.2 14 1.3 9.2 0 18.4-1.5c4.4-.6 8.7-2 13.1-2.2 2.4-.1 4.8.9 7 1.7l8.8 3.6a36 36 0 0 0 7.9 2.2h7.9l1.7-6.4c2.3-1.4 7-1.3 9.6-.4 3.3 1.2 5 4.9 8 6.6 1.6-.8 3.3-2 5.2-2.4 4.6-.9 9.5-.1 14 1l4.4 1.1q1.7-.1 3.5-.7c6.5-1.8 13.4-1.5 20.1-1.6" class="b"/><path d="m8 178.4 24.5.1c3.2.5 6.4 1.6 9.6 2.2q7 1.5 14 1.6 8.9 0 17.6-1.2c5-.7 9.8-2 14.8-2.5q1.8-.2 3.5 0 2.3.6 4.4 1.8c3.5 1.7 6.8 4 10.5 5.3q2.2.5 4.4.3h6.1c1.2-.8 1.8-2.7 2.7-3.8 1.7-2.5 5-3.4 7.8-2.6 3.6.8 5.7 4.3 8.8 6 1.8-.3 3.4-1.6 5.3-1.8 5.6-1 11.2.5 16.6 1.7 1.1 0 2.4-.5 3.5-.7q3-.8 6.1-1.1 8-.6 15.8-.4" class="b"/><path d="M8 176.7H35c2 .2 4.2 1 6.1 1.6q4 1 8 1.7 10.4 1.4 21 .2c5.5-.5 11-1.7 16.6-2.5a48 48 0 0 1 10.5-.2c.9.2 1.9 1 2.6 1.5 2.4 1.7 4.3 4.3 7 5.2h10.5c1.2-.2 2-1.6 2.7-2.4a9 9 0 0 1 5.2-3.4c3-.6 5.8 1 8 2.9 1.2.9 2.6 2.4 4.3 2.5 6-3 13-1.5 19.3 0 1.1 0 2.4-.5 3.5-.7q3-.8 6.1-1c5.8-.6 11.7-.4 17.5-.5" class="b"/><path d="M8 175h29.8c3.8.7 7.5 2.4 11.3 3a72 72 0 0 0 17.6 1q7.5-.5 14.8-1.7c6.3-.9 13.6-2.7 19.3.8 2.1 1.2 3.7 3.9 6.1 4.4h7.9q1.8.2 3.5-.3c1.2-.8 2.4-2.1 3.5-3a8 8 0 0 1 9.7-.8c2 1.2 3.9 3 6 3.7 1.5-.3 3-1 4.5-1.1q3.9-.5 7.8 0c2 .2 4.1 1 6.2 1q4.7-1.2 9.6-1.7c6.1-.5 12.3-.2 18.4-.4" class="b"/><path d="M8 173.2h31.5c1.8.1 3.6 1 5.3 1.5q3.4 1.2 7 2c9 1.5 18.2.9 27.1-.4 6.3-.8 13-2.5 19.3-.6 2.6.8 4.8 2.8 7 4.4q1.6.9 3.5.6h5.3c1.7 0 3.7.5 5.2-.6 3.5-2.9 6.7-5.7 11.4-3.6 2.4 1 4.5 2.8 7 3.6l.9.2.9-.2a26 26 0 0 1 10.5-.5l4.4.7q4.7-1 9.6-1.7c6.7-.5 13.4 0 20.1-.3" class="b"/><path d="M8 172.5q2.6-.7 5.2-1h28.1c1.5 0 3 .7 4.3 1.2A46 46 0 0 0 65 176q8.8-.2 17.5-1.7c5.8-.7 12-1.9 17.6.7 2.4 1 4.4 3.3 7 4h5.2q3.1.1 6.2-.2c4-1.9 6.2-5.6 11.3-4.2 3 .8 5.7 3 8.8 3.8 1.1.3 2.4-.2 3.5-.3q3-.4 6.1-.1 2.2.1 4.4.5c3.5-.5 7-1.4 10.5-1.6 7-.5 14 0 21-.3" class="b"/><path d="M8 173c4-.5 7.5-2.4 11.4-3.3q11.4-.2 22.7 0c2.8-.2 5.3 1.6 8 2.4q5 1.8 10.4 2 10.1.6 20.2-1c5.7-.8 11.8-2 17.5-.4 2.9.8 5.2 2.9 7.9 4.2q1.7.4 3.5.3h7.8c1.7 0 3.1-1.2 4.4-2 2-1.5 4.5-2.7 7-2.4 4 .6 7.4 3.5 11.4 4q2.6-.4 5.3-.4l5.2.3c3.8-.4 7.6-1.3 11.4-1.5 7.3-.4 14.6 0 22-.3" class="b"/><path d="M8 172.7c4.6-.3 9-2 13.1-3.8q1.7-.7 3.5-1H29c5.5.1 11.1-.2 16.6.1 2 .7 4.1 2 6.2 2.6a35 35 0 0 0 7.8 1.7c7 .8 14.1.1 21-.8 5.8-.7 11.9-2 17.6-.5 2.5.7 4.8 2.3 7 3.7 1.2.9 3 .8 4.4.8h7.8c2 0 3.7-1.5 5.3-2.4q2.8-2 6.1-1.9c2.5.2 4.8 1.4 7 2.3q4.3 1.7 8.8 1.4c5.9.3 11.7-1.3 17.5-1.5 7.3-.3 14.6.1 22-.2" class="b"/><path d="M8 171.9q6-.3 11.4-2.5l4.3-2c1.4-.6 2.9-1.4 4.4-1.2h18.4c1.8.3 3.5 1.5 5.3 2.2q3.8 1.6 7.8 2.2c7 .9 14.1.2 21-.8 5.8-.7 11.8-2 17.6-.6q3.3 1 6.1 3 1.2 1 2.6 1.5h8.8q1.8.2 3.5-.3c3-1.2 5.5-3.6 8.8-3.8 2.7-.2 5.3 1 7.8 2q3.8 1.3 8 1.5c5.8.2 11.6-1.2 17.4-1.4 7.6-.2 15.3.2 22.8-.2" class="b"/><path d="M8 170.7a37 37 0 0 0 17.5-4.8c1.3-.7 2.8-1.6 4.4-1.5h18.4c1.8.7 3.5 1.9 5.2 2.6q3 1.2 6.1 1.8c7.3 1 14.7.2 22-.8 5.7-.7 11.8-2 17.5-.4q3.3 1.2 6.1 3.4c1.2 1 2.9 1 4.4 1h6.1c1.8 0 3.7 0 5.3-1 2.1-1.2 4.4-2.7 7-3 3-.3 6 1 8.7 1.9q3 1 6.2 1.1c6.1.4 12.2-1 18.4-1 7.5-.2 15.2.2 22.7-.2" class="b"/><path d="M8 169.2q7.2-.2 14-2.7c3-1 5.7-3.1 8.7-3.8H43q3.5-.2 7 .1c3 1.7 6.1 3.6 9.6 4.1 7.3 1.3 14.7.4 22-.6 5.7-.8 11.7-2.2 17.5-.7a16 16 0 0 1 5.2 2.8c1.8 1.5 2.9 2 5.3 1.8h7.9c5.1 0 7.2-5 14-3.7 3 .5 5.8 1.7 8.7 2.2 6.1 1 12.3-.2 18.4-.4 8.5-.4 17 .3 25.4-.3" class="b"/><path d="M8 167.6q7.6-.1 14.9-2.8c3-1 5.7-2.9 8.7-3.8q5.7-.1 11.4 0c3 0 6-.3 8.8.5 1.2.3 2.3 1.3 3.5 1.8q2.5 1.3 5.2 1.8c7.3 1.4 14.7.3 22-.8 5.4-.8 11-2 16.6-.8q2.9.8 5.2 2.7c1.6 1.6 3 2.5 5.3 2.3h8.8c2.2-.2 4.1-1.6 6-2.5q3-1.5 6.2-1.4c3.9.3 7.5 2 11.4 2.3 5 .5 10 0 14.9-.3 9-.4 18.1.3 27.1-.4" class="b"/><path d="M8 166q7.5-.2 14.9-2.7c3.3-1 6.3-2.8 9.6-4 2.8-.4 5.9 0 8.8-.1 3.1 0 6.4-.2 9.6.4q2.7.4 5.2 1.5 3.3 1.9 7 2.4c6.7.8 13.6-.2 20.2-1.2 5.7-.9 11.8-2.4 17.5-.6 3.5 1 4.7 5.5 8.8 5h6.1q2.2.1 4.4-.2c3.2-1.2 6-3.6 9.6-3.6 3.3-.1 6.5 1 9.7 1.6q4.7.8 9.6.6 6.5-.3 13.1-.4c7.3 0 14.6.2 22-.3" class="b"/><path d="M8 164.2q7.5-.2 14.9-2.4c3.9-1 7.5-3 11.4-4.2 2.2-.4 4.7-.1 7-.2q4.8-.1 9.6.5l8.8 2q3.3 1.4 7 1.7 7 .2 14-1c4.6-.6 17.4-3.7 21-.8 3.4 3 4.5 5.7 9.6 5.2h7.9c1.9-.3 3.6-1.4 5.3-2.2q2.8-1.6 6-1.6c3.3 0 6.5 1 9.7 1.4q4.8.8 9.7.6l14.8-.3q9.8.2 19.3-.3" class="b"/><path d="M8 162.4q7.5-.2 14.9-2.2c4.1-1 8.1-2.8 12.2-4.1 2-.5 4.1-.3 6.1-.4q4.9-.2 9.7.6c4 .6 8.1 1.7 12.2 2 2.6.3 5.3 1 8 .9 5.8 0 11.7-1.2 17.4-2.2q4.5-.7 8.8-.9c2 0 3.8 1.3 5.3 2.5 3.5 3.3 4.4 5 9.6 4.6h7c2.2-.2 4.2-1.5 6.1-2.4q3-1.4 6.2-1.4c3.2.1 6.4 1 9.6 1.4q4.4.6 8.8.5 10.9-.2 21.8-.1c4.1 0 8.3-.4 12.3-.4" class="b"/><path d="M8 160.6q7.5-.2 14.9-2 6.2-1.7 12.2-3.7c4.6-.9 9.4-.7 14-.5 5 .4 10 1.7 15 2 3.1.2 6.4-.2 9.6 0q6.1-.2 12.2-1.4c4.9-.7 10.3-2 14.9.5 2 1 3.6 2.8 5.3 4.2 2.4 2.3 4.9 1.7 7.8 1.8h5.3c2.8-.3 5.3-1.9 7.9-3q2.5-.8 5.2-.8c5.6.4 11 1.8 16.7 1.7h23.6c3.8 0 7.6-.5 11.4-.4" class="b"/><path d="M8 158.8q8-.5 15.7-2.1c3.9-.8 7.6-2.1 11.4-3q7.8-1.2 15.8-.7c6.7.5 13.4 1.7 20.1 1.2 6.8 0 13.5-1.6 20.2-1.9 9.5-.3 9.8 1 16.6 6.6 2 1.3 4.7.7 7 .8q5 .3 9.7-1.3l5.2-2q2.2-.4 4.4-.3c3.5.2 7 1 10.5 1.2q6 .4 12.3.3l16.6-.1c3.5 0 7-.6 10.5-.4" class="b"/><path d="M8 157c12.4-.4 24.3-4.8 36.8-5.4 8.7-.5 17.5.9 26.2.5l8-.3c5.1-.6 10.4-1.4 15.7-1.2 6.2-.1 8.8 2.1 13.1 6.2 2.4 1.4 5.3 1 8 1.1q5.2 0 10.4-1.6 3-1 6.1-1.9l3.5.1c4.1.3 8.2 1 12.3 1.1q11 .3 22 .1c4.6 0 9.3-.7 14-.5" class="b"/><path d="M8 155.1c13.2-.8 26.2-4.1 39.4-5q7.9-.1 15.7 0l13.2-.1c6.1-.2 12.2-1.4 18.4-1.2 14.6-.1 6.1 7.5 21 7.3a45 45 0 0 0 12.3-1.6l5.2-1.6q2.2-.1 4.4 0a231 231 0 0 0 41.2.4c1.6-.3 3.5 0 5.2 0" class="b"/><path d="M8 153.3c6.7-.5 13.4-1.5 20.1-2.1 7.6-1 15.2-2.1 22.8-2.5q14-.7 28-.7c4-.2 8.2-.8 12.3-1q4.9-.2 9.6.4c1.5.5 2.3 2.3 3.5 3.3 2.5 2.5 6.2 3.3 9.6 3.4q7.2.4 14-1l7-1.9h3.6q14.4 1.3 28.9.9 5.6 0 11.4-.9l5.2.2" class="b"/><path d="m8 151.5 22.7-2q13.5-1.7 27.2-2.7 7-.5 14-.7 7.5.3 14.9-.5 5.7-.5 11.4-.3c1.8-.2 3 1.8 4.4 2.8 2.9 2.5 6.7 3.8 10.5 4a65 65 0 0 0 22.8-2.3q2.2-.2 4.3 0c9 .4 18.1.8 27.2.4q5.7-.1 11.4-1 2.6.3 5.2.3" class="b"/><path d="M8 149.6c12.5-1 25.1-1.6 37.6-3q7-.8 14-1.4 4.5-.6 8.8-.8c4.6-.3 9.4.2 14-.2q7-.7 14-.8c2.3.6 4.1 2.5 6.1 3.6q4.1 2.4 8.8 3a70 70 0 0 0 25.4-1.7q2.2-.2 4.4-.2c8.7.3 17.5.7 26.3.3q5.2-.2 10.5-1c2-.2 4.1.2 6.1.2" class="b"/><path d="M8 147.8c9.3-.8 18.7-.9 28-1.7q7.9-.7 15.8-1.6 4.8 0 9.6-.4 3.5-.2 7-.9c1.4-.2 3-.8 4.4-.8 2.9 0 5.9.3 8.7 0l10.6-.7c3.1-.1 5.9 2 8.7 3.2q5 2.5 10.5 3.3c6.7 1 13.5.6 20.2-.1q3.5-.5 7-1.3 2.6-.2 5.3-.2c8.1.1 16.3.4 24.5-.1q4.9-.2 9.6-1.2 3 .1 6.1.4" class="b"/><path d="M8 145.9c9.6-.5 19.3-.6 28.9-1.4q7-.5 14-1.3h7.9q6.1-.1 12.2-1l6.1-1.5q2.2 0 4.4-.2c3 0 6-.7 8.8 0 7.1 1.5 13.7 5 21 5.9a99 99 0 0 0 28-1.1q4-.3 8-.3 10.8.2 21.8-.4 4.5-.4 8.8-1.4 3 .2 6.1.5" class="b"/><path d="M8 144q14.5-.2 28.9-1l8.7-.7q2.7-.5 5.3-.5 9.6.4 19.3-.4c4-.4 8.1-1.6 12.2-1.8 10.5-.6 20.3 4.3 30.7 5.2q10 .8 20.1 0c3 0 5.9-.8 8.8-1 5.8-.5 11.7-.4 17.5-.6q6.6 0 13.1-1 3.1-.5 6.2-1.2l5.2.7" class="b"/><path d="M8 142.2q21 0 42-1.8 10.1.4 20.2-.2c4-.2 8.1-1 12.2-1.2 11.6-.6 22.7 3.6 34.2 4.2q9.6.5 19.3 0c3.1-.3 6.4-1 9.6-1.1 6.7-.4 13.4-.4 20.1-1a60 60 0 0 0 13.2-2.3l5.2.7" class="b"/><path d="M8 140.5c13.7-.1 27.5-.3 41.1-1.6q10.5.5 21 0c4.4-.1 8.8-.8 13.2-.9 12.4-.4 24.5 3.3 36.8 3.6q8.8.3 17.5-.2l9.6-.9q10.1-.4 20.2-1.3 4.9-.5 9.6-2l2.7-.8 4.3.8" class="b"/><path d="M8 138.7c13.4 0 26.9 0 40.3-1.4q10.9.6 21.9.2 6.5-.3 13.1-.7c13.5-.4 26.8 3 40.3 3q7.8.3 15.8 0l9.6-.9c6.4-.5 12.9-.7 19.3-1.6q4.6-.5 8.7-2.1c1.1-.4 2.4-1.2 3.5-1.3l3.5.8" class="b"/><path d="M8 137q20.2.2 40.3-1.2 10.9.5 21.9.2c4.3 0 8.7-.5 13.1-.5 13.5-.5 26.8 2.3 40.3 2.6q13.5.5 27.1-.8 9.4-.6 18.4-2 4-.7 8-2.2c1.3-.5 2.8-1.6 4.3-1.7l2.6.5" class="b"/><path d="M8 135.2c13.1 0 26.3 0 39.4-1q18 .7 35.9-.2c10.2-.3 20.5.8 30.6 1.7a234 234 0 0 0 36.8 0q9.4-.6 18.4-2.2 4-.8 8-2.6 1.6-.9 3.4-1.5h3.5" class="b"/><path d="M8 133.5c13.1 0 26.3 0 39.4-1 12.8.8 25.7.3 38.5 0 15-.4 29.8 2.2 44.7 2.2q10.1.4 20.1-.6 8.4-.6 16.7-2.1a41 41 0 0 0 10.5-3.7c1.8-1 4.1-.6 6.1-.7" class="b"/><path d="M8 131.7q19.3.3 38.5-.8 12.3.6 24.5.3c5.9 0 11.7-.4 17.6-.4 9.3 0 18.7.8 28 1.5q10.5.7 21 .7 7.5.2 14.9-.8 7.5-.6 14.9-2.2 5.3-1.4 10.5-4c2-.4 4.1 0 6.1-.1" class="b"/><path d="M8 130q19.3.3 38.5-.8 12.3.6 24.5.4 10.1-.4 20.2-.4 12.8.1 25.4 1.3 12.2.6 24.5.6a126 126 0 0 0 26.3-3.2q3.1-.9 6.1-2.2c1.4-.5 2.9-1.5 4.4-1.6h6.1" class="b"/><path d="M8 128.1q18.8.4 37.6-.6 10.1.6 20.2.4c14.9 0 29.8-.9 44.7.3q14.4 1 28.9.8 3 0 6-.4 6.8-.2 13.2-1.2c5.4-.8 10.8-2 15.8-4.4q2.1-.9 4.4-.6h5.2" class="b"/><path d="M8 126.4q18.3.4 36.8-.5 11.7.5 23.6.3c10.2 0 20.4-.5 30.7-.3 9 .2 18 1 27.1 1h10.5c2.7-.1 5.4-.2 8-1.2q3.8.3 7.8 0 4.9-.5 9.6-1.2 3.7-.6 7-1.8c1.7-.5 3.5-1.6 5.3-1.8 3.1-.5 6.4-.2 9.6-.3" class="b"/><path d="M8 124.6q18 .4 35.9-.4 11 .4 21.9.3 14-.2 28-.4 11 0 22 .6c7.2.2 14.5.5 21.8-.2 2.1-.2 4.4-.7 6.1-2 .4-.1 1.4-.2 1.8 0l2.6.3q8 .5 15.8-1c2.6-.6 5.3-.6 7.9-1.2 4-.7 8-2 12.2-1.8" class="b"/><path d="M8 122.8q18 .5 35.9-.3 18.8.7 37.6 0 15-.4 29.8.2 9.2.4 18.4 0c3.5-.1 7.2-.2 10.5-1.6 1.4-.6 2.5-2 3.5-3 4.9 2.5 10.5 2 15.8 2q7 .6 14-.7c3.5-.5 7-1.6 10.5-2.1" class="b"/><path d="M8 121q17.4.4 35-.2 18.8.6 37.7 0c9.9-.1 19.8-.4 29.7 0q8.8.2 17.6-.1c5.5-.4 10.2-.4 14-5.1 2.3-.8 4.7.6 7 1.2q2.2.5 4.4.7 2 .9 4.3 1.2c8.8 1.2 17.7-.4 26.3-2.4" class="b"/><path d="M8 119.4q17.1 0 34.1-.3 19.3.6 38.6 0 14-.5 28-.3 8.8.4 17.5-.2c3.6-.3 7.4-.4 10.5-2.3 1.2-.7 2.4-1.9 3.5-2.7h6.2q1.3 0 2.6.4l2.6 1.6q2.5 1.3 5.3 1.6c9 1.3 18.3.1 27.1-1.9" class="b"/><path d="M8 117.7H28c5 0 10-.5 15-.3 16.8.5 33.8 0 50.7-.4q11.4-.1 22.8 0l9.6-.6c3.7-.3 7.6-1 10.5-3.5.4-.4 1.3-1 1.8-1h7c.8-.2 2 0 2.6.7 4.2 3.2 9.8 3.5 14.9 3.7a87 87 0 0 0 21-2" class="b"/><path d="M8 116q10-.2 20.1-.2l11.4-.2 9.6.3q22 .2 43.8-.6 10.1-.3 20.2-.3c6.6-.2 15.4.1 21-3.5l1.8-1.2c1.3-.4 3-.1 4.3-.2h3.5q1.5-.1 2.7.5c4.4 3.6 10.3 4 15.7 4.3a89 89 0 0 0 22-1.8" class="b"/><path d="M8 114.5c7.3-.5 14.6-.4 21.9-.5 8.1-.2 16.3.2 24.5.2q19.7 0 39.4-.8l20.2-.4c5.5-.2 11.4-.3 16.6-2.5q1.8-1 3.5-2 1.7-.2 3.5-.1h4.4q1.4-.1 2.6.3c4.9 4 11.5 4.4 17.5 4.7q11 .5 22-1.5" class="b"/><path d="M8 113.1c16.8-1.7 33.9-.5 50.8-.7q19.3-.1 38.5-1c7.3-.3 14.6 0 22-.7a37 37 0 0 0 7.8-1.5c1.8-.6 3.6-1.7 5.3-2.5q4.7-.1 9.6-.1c1 0 1.9.8 2.6 1.4q1.2.8 2.6 1.4c4.2 1.7 8.8 2 13.2 2.3q11.9.8 23.6-1.2" class="b"/><path d="M8 111.8c14.2-2.2 28.6-1.1 42.9-1.1 16.6.1 33.3-.6 50-1.2 7.2-.3 14.6 0 21.8-1.5 2.8-.5 5.4-1.9 7.9-3.1H141l2.6 1.7q2.9 1.8 6.2 2.3c5.1 1 10.5 1.2 15.7 1.4q9.4.2 18.4-1.1" class="b"/><path d="m8 109.8 2.6.4 4.4-.7q4.3-.7 8.7-.8c9.4-.3 18.7.4 28 .2q22 0 43.9-1.1c7.5-.4 15.2-.2 22.7-1.2q3.1-.4 6.2-1.4c1.4-.5 3-1.5 4.3-2q5.2-.1 10.5 0c1.8.7 3.4 2.2 5.3 2.9 5 1.9 10.5 2 15.8 2.3 7.8.3 15.8.4 23.6-.7" class="b"/><path d="M8 107.5c2.3.3 4.7 1.3 7 .7q6-1.3 12.2-1.4 29 1 57.9-.4l21-.9c6.1-.3 12.6-.2 18.4-2.7l2.6-1.3c1.7-.3 3.5-.1 5.3-.2h3.4c1.2 0 2.6 0 3.5.9 6.2 4.4 14.6 4 22 4.5 7.5.2 15.2.4 22.7-.5" class="b"/><path d="M8 105.2q4 .6 7.9 1.5a51 51 0 0 1 13-1.5q25.5.6 50.9-.3c7.6-.2 15.2-1.1 22.8-1.1 7.6-.4 16 .1 22.7-4 1.4-.5 3-.1 4.4-.2h6.1c1 0 2 .8 2.7 1.3l2.6 1.4c6.4 2.5 13.4 2.3 20.1 2.6q11.5.5 22.8-.2" class="b"/><path d="M8 103c3.6 0 7 1.5 10.5 2q5.5-1.7 11.4-1.5 22.4.5 44.6-.2 7 0 14-.5c3.8-.2 7.7-.8 11.4-.8 6.5-.1 13 0 19.3-1.6q1.9-.5 3.5-1.5 1.3-.8 2.6-1h8.8c1-.2 2 .5 2.6 1l2.7 1.5q3.3 1.4 7 1.9c6.3.8 12.8.8 19.2.9q9.3.1 18.4-.2" class="b"/><path d="M8 100.9c4.2 0 8.2 1.4 12.2 2.3q4.7-1.5 9.7-1.4 21 .4 42-.2 7.8 0 15.8-.4c4.6-.2 9.3-.9 14-1 5.5 0 11.2.1 16.6-1.4q1.9-.5 3.5-1.5c1-.7 2.3-1.4 3.5-1.2h7.9c1.6.3 2.9 1.8 4.4 2.4q3.7 1.6 7.9 2c6.6.9 13.4.9 20.1.9q9.2 0 18.4-.2" class="b"/><path d="M8 99.4q4.4-.2 8.7.7 2.7.7 5.3 1.3l2.6-.6c7-1.3 14-.4 21-.6q15 0 29.8-.4c9.4 0 18.7-.8 28-1.2 5 .1 10.2 0 15-1.5q1.8-.7 3.4-2 1.2-.9 2.7-.8h7c1.6 0 3 1.6 4.4 2.2q3.3 1.7 7 2.1c13.6 2 27.4.5 41.1.8" class="b"/><path d="M8 98c2.9-.1 5.9-.4 8.7 0q3.6.8 7 1.6c6-1.7 12.3-1.1 18.4-1.1q11.4 0 22.8-.3 7-.2 14-.2 7.5-.1 14.9-.5c5.5-.2 11.1 0 16.6-.4 3-.3 6.2-.6 8.8-2 1.2-.7 2.3-2 3.5-2.5 2.9 0 6-.3 8.8.1 1 .7 2.3 1.7 3.5 2.2 5.4 2.6 11.6 2.6 17.5 3q8.2.3 16.6-.1c5-.1 10-.6 15-.2" class="b"/><path d="M8 96.7c3.2-.1 6.4-.7 9.6-.4q3.6.5 7 1.4c.8.3 1.8-.1 2.6-.3L30 97q5.2-.5 10.5-.3 13.5 0 27.1-.3 6.2-.1 12.3-.1 7.5-.3 14.9-.4c5.5-.1 11.1.4 16.6-.2 4.4-.3 7.6-1.2 10.5-4.7 1.4-.4 3-.1 4.4-.2 1.4.1 3.1-.3 4.4.4 3.5 2.8 7.9 4 12.3 4.4q11.7 1.4 23.6.8c5.8-.2 11.7-1.1 17.5-.6" class="b"/><path d="M8 95.4c3.7-.2 7.6-1 11.4-.8q3.5.5 7 1.4 1.3 0 2.6-.4l3.5-.4q5.7-.3 11.4-.2 12.8.1 25.4-.4c8.7.1 17.5-.4 26.3-.3 3.7.1 7.6.6 11.4.6q3.5 0 7-.6 2.9-.4 5.2-2.3c.9-.8 1.8-2.2 2.7-3h4.3c1.2.1 2.6-.2 3.5.7 3.3 2.6 7.4 3.6 11.4 4.2q12.7 1.8 25.4 1.1c5.9-.2 11.7-1.6 17.6-1.1" class="b"/><path d="M8 94c4-.1 8.1-1 12.2-1 2.4 0 4.8.6 7 1 1.5.5 3-.1 4.4-.3q3-.4 6.1-.4 16.3 0 32.5-.4c8.4.1 17-.5 25.4 0 7.2.3 15 2.2 21.9-.7 1-.5 2-1.7 2.6-2.6l.9-1.6.8-.7c2 .1 4.2-.2 6.2.3q3.8 3.1 8.7 4.1 6.5 1.4 13.2 1.8 8.2.7 16.6.3c5.9-.2 11.7-2 17.5-1.7" class="b"/><path d="M8 92.5c4.7.1 9.3-1.3 14-1.3 2.3 0 4.7.7 7 1.2 1.4.4 3-.4 4.4-.5l6.1-.4q15.4.1 30.7-.4c7.3.1 14.6-.3 21.9 0 7.8.4 15.8 2.6 23.6.9a7 7 0 0 0 4.4-3.5c.2-.8 1.2-2.4 1.7-3h3.5q1 0 1.8.5 3.9 3 8.8 4.2 7.3 1.5 14.8 2 8.9.7 17.6.2c5.3-.3 10.4-2 15.7-2.2" class="b"/><path d="M8 91c6.4.4 12.8-2.4 19.2-1 1.7.2 3.6 1 5.3.6q4.4-.8 8.8-.8 14 0 28-.4c7.3 0 14.6-.3 21.9 0q6.1.7 12.2 1.6 4.6.3 8.8.2c3.1 0 6.6-.2 7.9-3.6.2-1 1.2-3 1.7-3.8q1.8 0 3.5.2 2.4 2 5.3 3.3c4.7 1.9 9.9 2.6 14.9 3.2l4.4.3a127 127 0 0 1 14-.4c2.3 0 4.7.5 7 .4 4.4-.5 8.7-2 13.1-2.3" class="b"/><path d="M8 89.2q3.5.3 7-.2c3.5-.4 7-1.3 10.5-1.1 2.3 0 4.7.6 7 1q4.8-.6 9.6-.8 12.8-.1 25.4-.4c7.3 0 14.7-.3 22 0q5.7.6 11.3 1.6 4-.4 7.9-.2 3.5.6 7 .5 2 0 3.5-1.2c1.3-1.5 1.3-4.8 2.6-6.3h1.8c1.5.8 2.8 2.2 4.4 3 5.2 2.4 11 3.3 16.6 4 1.7.1 3.6-.4 5.3-.5a107 107 0 0 1 18.4 0c1.7 0 3.5.5 5.2.4 3.5-.4 7-1.7 10.5-2.2" class="b"/><path d="M8 87.5q4.4.4 8.7-.2c3.2-.4 6.4-1.2 9.7-1.2 2.6 0 5.3.7 7.8 1.2q4.9-.9 9.7-1 14.4-.1 28.9-.4c5.5 0 11-.2 16.6.3q4.5.5 8.8 1.3 3-.4 6.1-.6 4.5-.2 8.8.8 1.7.3 3.5.2 1.4.1 2.6-.4c1-.7 1.5-5.7 1.7-6.8l1-.4c.6 0 1.3.8 1.7 1.2l1.7 1.3c4.6 2.4 9.8 3.6 15 4.4q2 .3 4.3-.2l5.3-.5a156 156 0 0 1 25.3.8c3-.5 5.9-1.5 8.8-2" class="b"/><path d="M8 85.7q4.7.6 9.6 0c3.2-.4 6.4-1.3 9.6-1.3 3 0 5.9.7 8.8 1q4.3-.6 8.8-.8 14.8-.4 29.7-.4c5.6 0 11.2 0 16.7.8 1.7.2 3.5.7 5.2.7q4-.6 8-1c3.2-.3 6.4.4 9.5 1.3q1.8.1 3.5.1c.8 0 2 .1 2.7-.3l.8-7.1c.8 2.1 2.5 2.7 4.4 3.4l6.2 2q3.8 1.1 7.8 1.6 4.8-1 9.7-1.3 6.5-.2 13.1 0c4.7 0 9.4 0 14 1.1 2.7 0 5.3-1.3 7.9-1.8" class="b"/><path d="M8 83.8q5.6.8 11.4.2c3.1-.5 6.4-1.4 9.6-1.4q4 .2 7.9 1c1.4.1 3-.3 4.4-.3q3.5-.4 7-.4l22.7-.4c5.6 0 11.2-.1 16.7.6l6.1.8c4-.4 8.2-1.4 12.3-1.5 3 0 5.9 1 8.7 2h5.3c.3-.9 1.2-2.6 1.7-3.3 2.3-.7 4.8.7 7 1.2a46 46 0 0 0 8 1.7q1.6-.2 3.4-.7c7-1.4 14-.8 21-.9 4.1.1 8.3 0 12.3.6l4.4.8q3-.8 6.1-1.7" class="b"/><path d="M8 81.9q6.1 1 12.2.4c3.2-.4 6.4-1.4 9.7-1.4q4.3.2 8.7 1 4.8-.4 9.6-.7 9.8-.3 19.3-.4c6.4 0 13-.1 19.3.7q2.6.5 5.2.6c4.7-.6 9.4-1.8 14-1.8 3.1-.1 6 1 8.8 2.3h5.3c.5-.3 1.4-1.2 1.7-1.7 1.6-1 3.6-.5 5.3-.1q3.8 1.1 7.9 1.5l3.5-.8c5.1-1.3 10.5-1 15.7-1q8 0 15.8.3 4.6 0 8.8 1.3 2.6-.7 5.2-1.6" class="b"/><path d="M8 79.9c4.5 1.2 9.3 1 14 .6 2.6-.4 5.2-1.2 7.9-1.3q3.5-.2 7 .5c1.7.2 3.5.7 5.2.4 6.7-.8 13.5-.8 20.2-.9 7 0 14-.3 21 .4l6.1.8c4.4-.5 8.8-1.5 13.2-2 3.9-.6 8-.2 11.4 2q1.2.6 2.6.5h3.5c.5-.1 1.4-.6 1.7-1 1.6-.9 3.6-.5 5.3-.2q3 .7 6.1 1a40 40 0 0 1 11.4-2.2c6.1 0 12.3.4 18.4.4 5.6 0 11.3-.3 16.6 1.5q2.3-.7 4.4-1.5" class="b"/><path d="M8 77.8q7.3 2 14.9 1c2.9-.4 5.8-1.3 8.7-1.4 3.8-.3 7.6 1 11.4 1q9.2-.9 18.4-.8 8.3-.2 16.6.1 3.1.1 6.2.6c1.4.1 3 .5 4.3.2l10.6-1.7q4.7-1 9.6-.5 1.8.4 3.5 1.2c1 .6 2.2 1.8 3.5 1.6h4.4c1.1-.1 2.3-1 3.5-1 2.6 0 5.2.8 7.8.8 2-.4 4.1-1.3 6.2-1.7q3.4-.8 7-.6 6.6.2 13.1.5h14q4 .1 8 1.3c1.4.4 2.9-.7 4.3-1" class="b"/><path d="M8 75.7q3 1 6.1 1.4 4.9.5 9.6 0c3-.4 5.9-1.2 8.8-1.5 3.8-.2 7.6.7 11.4 1.1q8.8-.6 17.5-.8 9.7-.2 19.3.5l4.3.5q4-.5 8-1.2c5.4-.7 11-2.6 16.6-1.2 2 .4 3.4 2 5.2 2.9h3.5l2.7-.1q1.2-.5 2.6-.5l4.4.3q1.2.2 2.6 0c3.7-1 7.5-2.6 11.4-2.5 5 0 10 .6 14.9.7q7.5.2 14.9 0 3.5 0 7 1l1.7.4q1.8-.2 3.5-1" class="b"/><path d="M8 73.6q3.4 1 7 1.7 4.8.5 9.6 0c3.2-.3 6.4-1.3 9.6-1.5 4.1-.2 8.2.8 12.3 1.2q16.6-1.5 33.3 0 3.5.3 7-.4l8.8-1.4c4.5-.8 9.4-2 14-.7q1.4.5 2.6 1.4c.7.5 1.6 1.5 2.6 1.7h4.4c1.4 0 3-.4 4.4-.3q2.6.2 5.2 0c5.2-1.3 10.4-3.1 15.8-2.5q9.7.9 19.3.9c3.8 0 7.6-.3 11.4 0q3 .5 6.1 1.4l2.6-1" class="b"/><path d="M8 71.5c2.6.5 5.2 1.6 7.9 2q3.8.5 7.8.2C28 73.6 32 72.1 36 72c4 0 8.2.8 12.3 1.2 1.7.2 3.5-.2 5.2-.2a164 164 0 0 1 25.4.4q3.5-.2 7-.8 7-1 14-2.1c5.8-.8 9.6-1 14 3.3q4.8.2 9.7-.1 2.2.2 4.4 0c4-1.2 8-2.6 12.2-2.7 4.7-.3 9.4.6 14 .8 5.6.4 11.1.1 16.7 0a31 31 0 0 1 10.5 1.5q1.3-.2 2.6-.8" class="b"/><path d="M8 69.5c3 .2 5.8 1.6 8.7 2.2q7.5 1 15-.7c4.5-1.2 9.3-.9 14-.2l7 .7q6-.4 12.2-.3 5.7.1 11.4.4 6.6-.6 13.1-1.5c6.2-.6 14.4-3.2 20.2-1q1.9 1 3.5 2.5 1.2.7 2.6.5l7.9-.1q1.7.1 3.5-.1c4.6-1.3 9.2-2.7 14-2.6 4.7-.2 9.4.6 14 .8 5.5.4 11.1 0 16.6 0a26 26 0 0 1 9.7 1.4q1.4-.1 2.6-.7" class="b"/><path d="M8 67.6c3.7-.2 7 1.8 10.5 2.4q7 1 14-.7a34 34 0 0 1 13.1-.6q5.7.7 11.4 1H65c7.3.4 14.7-.3 21.9-1.3L98.2 67c3.5-.4 7.2-.8 10.5.3q1.9.9 3.5 2.3 1 1 2.6.8 5.8.1 11.4-.1l7-2q3.5-.6 7-.7c5.3-.1 10.6.6 15.8.9q7.9.3 15.8-.2 3.5-.2 7 .7c1 .2 2.4.9 3.5.8l1.7-.7" class="b"/><path d="M8 65.8a13 13 0 0 1 5.2.3q2.6 1 5.3 1.9c3.4.9 7 .6 10.5.4 3-.3 5.8-1.2 8.8-1.6q4.3-.6 8.7 0 19.3 2.3 38.6-.1l12.2-1.5c3.5-.4 7.2-.8 10.5.3q2.5 1 4.4 2.6 1.2.7 2.6.5h8c1 0 2.4 0 3.4-.3 4.6-1.4 9.2-2.6 14-2.5 5.9 0 11.7.7 17.6 1l14.8-.3q3.1 0 6.2.6c1 .3 2.3 1 3.5 1l1.7-.8" class="b"/><path d="M8 64.4c8.1-2.4 9.3 3 18.4 2.4 6 .3 11.5-2.3 17.5-2.1 5.2 0 10.5.9 15.7 1q10.6.5 21-.5l14-1.5c3.8-.3 7.7-.9 11.5 0q2.3.4 4.3 1.8l1.8 1.2q1.3.2 2.6.1h10.5q3-.9 6.2-1.8 3.8-.9 7.8-1c6.2 0 12.3.7 18.4 1l15-.3a24 24 0 0 1 8.7 1.6q1.4-.2 2.6-.8" class="b"/><path d="M8 63.3c7.7-3.4 8.2-.4 14.9 1.5q4.7.6 9.6 0c3.8-.5 7.5-1.9 11.4-2q5.7.1 11.4.7 6.1.4 12.2.4 11-.3 22-1.4c4.6-.4 9.3-1.1 14-.7q2.7.2 5.2 1.5c1.1.5 2.3 1.4 3.5 1.8h4.4l8.7-.1q3-.9 6.2-1.8 4.3-.9 8.7-.9c6.2 0 12.3.7 18.4.8 5 .2 10-.2 15-.2a22 22 0 0 1 7.8 1.7q1.4-.1 2.6-.9" class="b"/><path d="M8 62.5c3-1.4 6.2-3.7 9.6-2.4 1.8.6 3.5 1.8 5.3 2.5 3.3 1.1 7 .8 10.5.5 3.8-.5 7.5-1.8 11.4-1.9 8.1-.2 16.3 1 24.5.6q9.2-.2 18.4-1c4.6-.3 9.3-.9 14-.6q2.7 0 5.2 1c1.5.5 3 1.5 4.4 2 3.8.3 7.6 0 11.4 0q1.4.1 2.6 0 1.9-.4 3.5-1 3-1 6.2-1.4c6.7-.7 13.4.2 20.1.3q6.6.4 13.2 0c4.4-.2 9 0 13.1 1.8l2.6-1" class="b"/><path d="M8 61.4c2 .2 3.6-1.6 5.2-2.5 4.3-2.8 6.8-.5 10.5 1.5 3 1.5 6.5 1.2 9.7 1 3.5-.2 7-1.3 10.5-1.6 4.3-.5 8.8-.2 13.1-.1q12.8.5 25.4-.3c5.8-.3 11.7-1 17.5-.8q3.1 0 6.2 1c1.7.5 3.4 1.7 5.2 2h6.2q2.5-.6 5.2-.1h2.6c1.2-.1 2.5-.7 3.5-1a31 31 0 0 1 7-1.5c7.6-.7 15.2.3 22.8.4 5.3.2 10.6-.4 15.8 0q3.1.5 6.1 1.6c1.2.2 2.5-.6 3.5-1" class="b"/><path d="M8 58.6c1 .4 2.3 1.3 3.5 1 3-1.8 5.6-5.7 9.6-3.6 2.5 1.4 4.9 3.5 7.9 3.7 6.8.6 13.4-1.8 20.1-1.9q9.2 0 18.4.2 11-.1 22-.8c4.6-.1 9.3-.5 14 .4q2.2.5 4.3 1.3 1.7.8 3.5 1c2.1 0 4.7 0 6.1-1.8 1.6-.2 3 1 4.4 1.4q1.7.4 3.5.3c1.8 0 3.5-1.2 5.3-1.6q4.3-1.2 8.7-1.3c7.3 0 14.6.6 22 .6 6.4.1 13.1-.7 19.2 1.9q1.8-.5 3.5-1.4" class="b"/><path d="M8 54.8c1.8.9 3.2 2.7 5.2 3.3 1.8-.9 2.9-2.8 4.4-4 4-2.8 6.4 1.3 9.6 2.8 2.2 1 4.7 1 7 1 5.3-.2 10.5-1.6 15.8-1.7 5.5-.3 11.1 0 16.7 0q9 0 18.3-.5c5.6-.1 11.2-.6 16.7.2 3 .3 5.8 1.8 8.7 2.2 2.6 0 5.6-.8 7-3l1-.2c2.6 1.8 5.3 4 8.7 3q2.6-1.2 5.3-1.9c5.4-1.3 11-.9 16.6-.7l13.1.4h9.7q4 .4 7.8 1.8c1.6 0 3-1 4.4-1.4" class="b"/><path d="M8 49.8q2 1 3.5 3c1 1.2 2 2.8 3.5 3.5l.8-.3c1.2-1.2 2.1-3 3.5-3.9 3.2-1.7 6 1.5 8.8 2.7a20 20 0 0 0 9.6 1.1c5.6-.6 11.1-1.5 16.7-1.5q15.7 0 31.5-.4c5.2 0 10.6-.4 15.8.5q3.5.6 7 1.7c2.4.1 5-.6 7-1.8.9-.5 1.8-1.6 2.6-2.2 2.6 2 5.3 4.5 8.8 4 2.6-.8 5.1-2.1 7.9-2.5 5.5-.8 11-.3 16.6-.2 6.7.3 13.5 0 20.2.5q2.2.3 4.3.9c1.1.2 2.4.9 3.5.9Q182 55 184 54" class="b"/><path d="M8 47h3.5c1.4.6 2 2.7 2.6 4a9 9 0 0 0 2.6 3.4l1-.2c5.3-6.4 6.8-2.9 13-.8 3.4 1 7 .9 10.6.5q12.1-1.5 24.5-1.3l21-.3c4.7 0 9.4-.1 14 .6q3.5.6 7 1.5c3.8-.2 7.9-1.5 10.5-4.3 3.1 1.6 5.8 5 9.7 4.4 2.5-1 5-2.4 7.8-2.7 5.8-.8 11.7-.2 17.6-.1 5.8.2 11.7 0 17.5.5q2.2.3 4.4.9 1.6.6 3.5 1 2.6-1 5.2-2" class="b"/><path d="M8 45.3h4.4c1 .7 1.9 2.4 2.6 3.4.9 1.4 2.1 3 3.5 3.8l.9-.1c5.4-5.4 7.1-2.3 13.1-.7 3.4.8 7 .6 10.5.4 14.5-1.7 29.2-1.1 43.8-1.4 6.2 0 12.4 0 18.4 1.6q1.7.4 3.5 0a22 22 0 0 0 8.7-3.2l1-.6.8-.2c2.7 1.8 5.3 4.3 8.8 4.5 1.5-.2 3-1 4.3-1.6a19 19 0 0 1 5.3-1.3c5.8-.7 11.7-.1 17.5 0 5.3.1 10.6 0 15.8.7 9.4 2 3.7 2.6 13.1-.3" class="b"/><path d="M8 43.5h4.4c1.4.7 2.4 2.3 3.4 3.4q2 2.1 4.4 3.8c1-.1 1.9-1 2.7-1.6 3-2.4 6.4-.5 9.6.4 4.5 1.3 9.4 1 14 .6 13.7-1.2 27.5-1 41.2-1q8.7-.1 17.5 1.6c4.9-.2 9.9-1.8 14-4.5 3.1 1.8 6 4.5 9.6 4.8 1.5-.2 3-1 4.4-1.4q2.6-1 5.3-1.4c5.8-.9 11.7-.2 17.5-.1 5.5.2 11.2.1 16.6 1.5l3.5 1c2.7-.4 5.2-1.7 8-2.1" class="b"/><path d="M8 42.6c1.1-1 2.9-.9 4.4-.8l2.6 2q3.3 2.9 7 5.2c5.6-3.7 6.2-2.7 12.3-1.2 4 1 8.1.8 12.2.6 13.1-1 26.3-1 39.4-1a96 96 0 0 1 18.4 1.6 42 42 0 0 0 13.1-3.4c.8-.4 1.8-1 2.7-1 2.5 1.5 5 3.5 7.8 4.2 2.2.9 4.1-.2 6.2-.8q3-1 6.1-1.4c5.5-.7 11.1-.3 16.6-.2q5.8.2 11.4 1c2.4.3 4.7 1.1 7 1.5q4.4-1.4 8.8-2.2" class="b"/><path d="M8 43c1.2-1 2.6-2.6 4.4-2.7l7 4.4c1.4.7 2.7 2.1 4.3 2.4 5.3-3.8 7.6-1.8 13.2-.8 4 .6 8.2.4 12.2.2q18.5-1.2 36.8-.8 8.8.1 17.5 1.4 8.8-.9 16.7-4.5c1.8.7 3.5 2 5.2 3a25 25 0 0 0 6.2 1.8l3.5-1q3.3-1 7-1.4 7.8-.6 15.8-.2a93 93 0 0 1 14 2c.7.1 1.8.5 2.6.1q4.8-1.4 9.6-2" class="b"/><path d="M8 43c1.5-1.3 3.2-3 5.2-3.6 3.8 2 7.8 3.7 11.4 6q1.5-.5 2.6-1.3c3-1.6 6.5-.4 9.7.1q6.6 1 13.1.5 17.1-1 34.2-.7 8.8 0 17.5 1.4 6.2-.6 12.3-2.4c2.3-.5 4.6-1.6 7-2.2l5.2 3q3 1.3 6.2 1.8c3.5-.5 7-1.7 10.5-2q7-.7 14-.3c5 .2 10 1.2 14.9 2 4-.8 8-2 12.2-2.2" class="b"/><path d="M8 42.3c2-1.3 3.8-3.2 6.1-3.9l7.9 3.1c1.4.6 2.8 1.7 4.4 2 4.3-2.6 6.6-2 11.4-1.1q5.7.8 11.3.6 14-.8 28-.8 10.6-.2 21 1l2.7.4a134 134 0 0 0 13.1-2.5q2.7-.7 5.3-1.5c2.2-1 2.4-.7 4.4.5q4.9 2.9 10.5 3.7c3.5-.5 7-1.4 10.5-1.6a90 90 0 0 1 20.1.7c1.7.2 3.6.8 5.3.6 4.6-.9 9.3-2 14-2.2" class="b"/><path d="M8 41.4c2.3-1.3 4.4-3.6 7-4.1q6.4 1.4 12.2 4.5c1.8-.5 3.4-1.7 5.3-1.8 4-.1 8.2 1.2 12.3 1.2 7.8.2 15.7-.5 23.6-.6q10.1-.3 20.2.2c3.8 0 7.6.8 11.4 1q11.1-1.4 21.9-4.8 2.2 1 4.3 2.3 4.7 2 9.7 2.7c2 0 4-.6 6-.8a78 78 0 0 1 24.6.7c5.8-.8 11.6-2.3 17.5-2.3" class="b"/><path d="M8 40.1c1.8-.7 3.5-2.1 5.2-3 .8-.5 1.7-1.2 2.7-1.1A56 56 0 0 1 26.4 39c.8.4 1.7 1 2.6.8 4.4-2.7 8.4-1.3 13.1-.9q7 .6 14 .2c13.8-.5 27.6-1 41.2.8q1.8.2 3.5-.3l5.3-.8c5.6-.9 11.1-2.5 16.6-3.8q7.7 4.6 16.7 5.1a97 97 0 0 1 19.2-.3c1.7 0 3.6.5 5.3.2 6.7-1 13.3-2.3 20.1-2.3" class="b"/><path d="M8 38.4c1.2.3 2.4-.7 3.5-1.3l4.3-2.6q4.6.4 8.8 1.7c1.8.5 3.5 1.9 5.3 2 4.2-2.4 7.7-1.6 12.2-1q5.7.5 11.4.3c10-.2 19.9-.7 29.8-.3q4.9 0 9.6.6l4.4.5 2.6-.3a188 188 0 0 0 21-4.3c2.2-.7 2.5-.6 4.4.5a45 45 0 0 0 17.6 4.3q3.5-.2 7-.2l7.9.3c4.3-.3 8.7-1.3 13.1-1.8q6.5-.8 13.1-.8" class="b"/><path d="m8 36.2 1.7.6c2.5-.9 4.6-3 7-3.8q4.6.2 8.8 1.5c1.8.5 3.4 1.7 5.2 2 4.3-2.3 7.8-1.7 12.3-1.2q5.7.6 11.4.4c9.3-.2 18.7-.6 28-.3q4.5.1 8.8.6c2.3.2 4.7.8 7 .3a217 217 0 0 0 22.8-4.4l2.6-.7a63.6 63.6 0 0 0 33.3 5.2q6.6-1 13.1-1.7 7-.5 14-.5" class="b"/><path d="M8 34q1.3.4 2.6 1c2.2-.7 4.2-2.3 6.1-3.5a27 27 0 0 1 9.7 1.3c1.7.4 3.4 1.6 5.2 2 5-2.7 9.7-1.4 15-1.1 6 .4 12.2.1 18.3 0a246 246 0 0 1 26.3.7c1.4 0 3 .5 4.4.3q14.6-2 28.9-5.7c7.1 3.8 14.7 5 22.7 5.1q4.8.1 9.7-.3 3.4-.5 7-1c6.6-.6 13.4-.4 20.1-.4" class="b"/><path d="M8 32q1.8.4 3.5 1.2c2.2-.5 4-2.5 6.1-3.3 3.2-.4 6.5.4 9.6 1.2 1.8.4 3.5 1.7 5.3 1.9q4.1-2.1 8.7-1.6 4.9.5 9.7.6c8.1.2 16.3-.4 24.5-.2q6 0 12.3.6c2.3 0 4.7.8 7 .5q15.4-2 30.6-6a51 51 0 0 0 34.2 4q2.2-.7 4.4-.6c6.7-.2 13.4.2 20.1.2" class="b"/><path d="M8 29.9c1.5.2 3 1 4.4 1.6 2.2-.5 3.8-2.8 6-3.3 4.9-.5 9.8.9 14 3 1.6 0 3-1 4.5-1.3q3-.5 6.1-.2c15.4 1.4 31-.8 46.4 1.2 1.4.1 3 .5 4.4.2a218 218 0 0 0 22.8-4.1c3.2-.7 6.4-1.7 9.6-2.2a40 40 0 0 0 19.3 4.6q5.7.2 11.4-.6c2-.2 4-1.1 6-1.3q10.5 1 21.1 1.1" class="b"/><path d="M8 27.8c1.8.2 3.6 1.2 5.2 2 2-.6 3.4-2.4 5.3-3 2-.7 4.1-.4 6.1 0q4.5.6 8.8 2.8c1.1-.3 2.4-1 3.5-1.2q1.7-.5 3.5-.6c5.2 0 10.5.7 15.8.6 7.5 0 15.1-.3 22.7 0q4.5.2 8.8.7c1.7.1 3.5.6 5.2.3a251 251 0 0 0 20.2-3.7c4.4-1 8.7-2.3 13.1-3 1.6-.2 3 1 4.4 1.5q2.6 1.2 5.3 1.8a57 57 0 0 0 26.3-.9q1.7-.6 3.5 0l4.3.6q7 .9 14 1" class="b"/><path d="M8 25.8c2.2 0 4.1 1.5 6.1 2.2 2-.6 3.3-2.6 5.3-3.1 3.1-.7 6.5 0 9.6.9 1.8.4 3.5 1.5 5.3 2 4.1-2 7.7-2 12.2-1.6q5.7.4 11.4.4 11-.3 21.9.1 4.9.3 9.6 1c1.7.2 3.6-.3 5.3-.5a244 244 0 0 0 18.4-3.7c4.3-1 8.7-2.4 13.1-2.7q2.8-.3 5.3 1.2 2.9 1.3 6.1 2a55 55 0 0 0 27.2-2 84 84 0 0 0 19.2 2.7" class="b"/><path d="M8 23.8q1.8 0 3.5.8c1 .5 2.2 1.6 3.5 1.7 1.6-.7 2.7-2.3 4.3-3 3.4-1.1 7.2 0 10.6.8l3.5 1.5c1 .8 2.4.1 3.5-.3q1.6-.7 3.5-1c5.2-.3 10.5.5 15.7.4 8.5 0 17-.3 25.4.4l8 1 3.4-.5c9.2-1.4 18.2-3.8 27.2-6q5.2-1 10.5-.5c3.4 1.3 6.8 2.7 10.5 3a60 60 0 0 0 23.6-2.2c1-.6 2.5-.1 3.5.2a69 69 0 0 0 15.8 2.5" class="b"/><path d="M8 21.8c2.6-.1 4.9 1.4 7 2.8 2.1 0 3.2-2.6 5.2-3.2 3.2-1 6.6 0 9.7.9 1.8.5 3.5 1.6 5.2 2q4.6-2 9.7-1.9 6.1.4 12.2.5 10.1-.2 20.2.2l7.8.7c1.8.2 3.6.6 5.3.2q9.3-1.4 18.4-3.8 5.3-1.7 10.5-2.8 4-.3 7.9-.2h5.3l3.4 1.2q5.2 1.7 10.6 1.9 8.8.4 17.5-2 1.7-.7 3.5-1c2 0 4.1.9 6.1 1.3q5.2 1.3 10.5 1.8" class="b"/><path d="M8 19.8c3.5-.2 5 1.6 7.9 3.2 2-.7 3-3 5.2-3.5 4.8-1 9.7 1.2 14 3.1.9 0 1.9-.6 2.6-.9q2.2-.7 4.4-1c5.3-.3 10.6.4 15.8.3q9.7-.1 19.3.4l7 .7c1.7.2 3.5.6 5.2.2C97.8 21 106 18.7 114 16c4.2-1.2 8.8-.5 13.1-.6q4-.1 7.9 0 5.6 2 11.4 2.5 6.1.4 12.2-.5 4-.7 8-1.9 3.4-.5 7 .2Q178.7 17 184 18" class="b"/><path d="M8 17.7c3.3-.3 5.5 1.4 7.9 3.4l.8.1c1.3-.6 2.3-2.2 3.5-2.9 3-1.6 6.6-.7 9.7.3l3.5 1.5c.7.3 1.7.9 2.6.7q1.7-.7 3.5-1.3c5.4-1.3 11.1-.3 16.6-.3 7.6 0 15.3-.1 22.8.7 2.6.1 5.3.7 7.9.9q6.1-.9 12.2-2.5c3.2-.8 6.4-2 9.7-2.5 2.9-.5 5.8-1.5 8.7-2h19.3c3.2.6 6.4 1.7 9.6 2q6.2.6 12.3-.3c3.2-.2 6.4-1.5 9.6-1.8l8.8.1q3.5.8 7 1.8" class="b"/><path d="M8 15.6c2.1-.3 4.5.3 6.1 1.8.8.7 1.6 1.9 2.6 2.1l1-.2c1-1 2-2.4 3.4-3 2.8-1.3 6-.4 8.8.5q2.6 1 5.2 2.3c1.2.2 2.4-.7 3.5-1 5.7-1.9 11.7-.8 17.5-.8q11-.2 22 .8 3.5.3 7 .9c4.7-.4 9.4-1.6 14-2.8 6.1-1 12.4-1.7 18.4-3.6 1.9-.8 4-.7 6-.6h15.9c2.6.5 5.2 1.3 7.8 1.5q6.2.8 12.3 0 4-.6 7.9-1.5 3.5-.1 7 0c3.2 0 6.6-.5 9.6.7" class="b"/></svg>