<svg xmlns="http://www.w3.org/2000/svg" id="a" width="1920" height="2400" viewBox="0 0 192 240"><defs><style>.b{fill:none;stroke:#fff;stroke-miterlimit:10;stroke-width:.3px}</style></defs><path d="M0 0h192v240H0z" style="stroke-width:0"/><path d="M8.9 223.7h42.4c2.6 0 5.3-.3 7.8.1l7 1.1q2.2.5 4.3.5c4.3-.4 8.7-1.5 13-1.5q1.8 0 3.5.3l2.6 1c1.5 1 3.1-.6 4.3-1.4 1.6-1.1 3.3-2.4 5.2-2.6 2.6-.2 5.3.1 7.8 0q2.6.8 5.2 1.2 6.5.8 13 1.4c6.7.5 13.3 1.3 20 1.5q5.6.2 11.3 0h6c1.8-.1 4 0 5.2-1.6.5-1.8 1.7-4 3.5-4.8 1 .5 1.7 1.7 2.6 2.2 3 1.5 6.4 1.7 9.5 2" class="b"/><path d="M8.9 222h30.3l12.1-.2c2.6 0 5.3-.3 7.8.1 3.8.5 7.5 1.5 11.3 1.8l8.7-1.4q3.4-.6 7-.3l4.3 1.7c.9.1 1.8-.5 2.6-1 1.5-1 3.2-2.4 5.2-2.8 2.8-.5 5.8 0 8.6-.3q2.6.8 5.2 1.2 6.5.8 13 1.4 9.6.8 19.1 1.4l9.6-.2q4.8 0 9.5-.3c3.7-.2 4.4-3 5.2-6.2q1.2-.4 2.6-.3c1 .5 1.7 1.8 2.6 2.4 2.8 1.8 6.3 2 9.5 2.4" class="b"/><path d="M8.9 220.2q15.6.3 31.2 0 5.6 0 11.2-.2c3 0 5.9-.5 8.7.2 3.5.5 7 1.4 10.4 1.8q4.4-.7 8.7-1.6l3.5-.3c1-.1 2.4-.3 3.4 0q2.3.9 4.4 1.8c1.2.3 2.4-.9 3.4-1.5q2-1.5 4.4-2 3-.3 6-.3h2.6q1.8.3 3.5.7 7 1.2 13.9 1.7l18.2 1.4 10.4-.4q3.5 0 7-.2 2.7.2 5.2-1c1.8-1.1 2.4-3.7 3.4-5.5q1.8-.1 3.5.3c2.5 3.6 7.2 4.1 11.3 4.5" class="b"/><path d="M8.9 218.5a958 958 0 0 0 46-.4c1.3 0 2.9-.3 4.3 0l6.9 1.3c1.7.3 3.5 1 5.2.7 3.2-.5 6.3-1.4 9.5-1.8 1.4 0 3-.6 4.4-.2 2 .4 4 1.8 6 2.1 2.4-1 4.4-3 7-3.3 2.8-.4 5.8-.2 8.7-.4 1.4 0 2.9.7 4.3.9 5.7 1 11.6 1.3 17.3 1.8l13 1q5.3-.4 10.4-.5c3.5-.2 7 0 10.5-.7 2.6-.5 4.3-2.9 5.2-5.3l.8-.6h3.5c3.3 3.7 6.5 4.3 11.3 4.8" class="b"/><path d="M8.9 216.8q18.6.2 37.2-.2l7.8-.3c1.7 0 3.6-.4 5.2 0q3.5.5 7 1.3c1.7.3 3.5 1.2 5.2.8 4.3-.8 8.6-2.3 13-2.3 2.4.4 4.6 1.7 7 2.4 1.4-.6 2.8-1.7 4.3-2.4q1.6-.7 3.4-.9 4.4-.1 8.7-.3l4.4 1q8.6 1.2 17.3 1.7l10.4.7q5.6-.2 11.3-.5c3.7-.2 7.6 0 11.2-1 2.6-.6 4.2-3 5.2-5.3 1.4-.3 3 0 4.4-.1 1 .2 1.8 1.4 2.6 2a17 17 0 0 0 8.7 2.7" class="b"/><path d="M8.9 215c12 0 24.2.3 36.4 0l8.6-.5c1.7 0 3.6-.4 5.2-.2l7 1.5c1.7.3 3.5 1.2 5.2 1 4-1 8-2.2 12.1-2.7 2.7.4 5.3 1.7 7.8 2.7q1.8-.7 3.5-1.9 2-1 4.3-1.2l8.7-.3c1.7.2 3.5.8 5.2 1q8.6 1 17.3 1.7 4.8.3 9.6.5l11.2-.6c4-.3 8.4 0 12.2-1.6 2-1 3.2-3 4.3-4.7h5.2c3.2 3.2 6 4.1 10.4 4.6" class="b"/><path d="M8.9 213.3c11.8 0 23.7.3 35.5-.1 5 0 9.9-.6 14.7-.8q3.5.6 7 1.5c1.7.4 3.4 1.3 5.2 1.2 4-1 8-2.7 12.1-2.9 2.7.5 5.3 1.7 7.8 2.8 1.2-.2 2.4-1.1 3.5-1.7q1.6-.8 3.5-1 5.2-.4 10.4-.4l5.2 1q9.5 1.1 19 1.6c5.8.7 11.6 0 17.4-.3 4.3-.3 9 0 13-2 1.8-.8 3.1-2.7 4.3-4.2h3.5c.8 0 1.9-.2 2.6.2 2.4 2.7 6 4 9.5 4.3" class="b"/><path d="M8.9 211.6q17.2.2 34.6-.1 7.9-.2 15.7-1 4.4.7 8.6 2.1l2.6.8c1.8 0 3.5-.9 5.2-1.3q3.4-1.2 7-1.9c1 .2 2.4.5 3.4.9q2.7 1 5.2 2c1.3.2 2.4-.9 3.5-1.4q2-1 4.3-1 5.3-.3 10.4-.3 5.3 1 10.5 1.5 9 .8 18.2 1.2l11.2-.7c4.7-.3 9.6-.1 14-2.2 1.7-.8 3-2.5 4.3-4q3-.1 6 0c1.3.5 2.3 1.8 3.5 2.5q2.8 1.5 6 1.9" class="b"/><path d="M8.9 210c13-.3 26 .1 39-.4l7.8-.5c1.6 0 3.5-.5 5.2-.2q3 .7 6 1.6c1.7.4 3.5 1.6 5.2 1l7-2.4q1.6-.6 3.5-.8l1.7.4c2.7.6 5.2 2.1 7.8 2.8a19 19 0 0 1 11.3-2.6c3.4 0 7-.1 10.4.6q9.5 1.2 19 1.7c5.5.5 11-.3 16.5-.6 6.4-.4 14-.3 18.2-6q1.3-.3 2.6-.2h4.4c1.1.7 2.2 1.9 3.4 2.5q2.5 1.3 5.2 1.7" class="b"/><path d="M8.9 208.2c12.7-.2 25.4.2 38.1-.3l8.7-.5c2-.1 4-.7 6-.3q3.1.6 6.1 1.8c1.4.4 3 1.4 4.4.9l6.9-2.6c1-.3 2.3-.9 3.5-.7 3.3.6 6.4 2 9.5 3.3 1.4-.4 2.9-1.4 4.3-1.7 2.6-.7 5.3-.6 7.8-.7h7q5.6.9 11.3 1.4c4.8.3 9.8.9 14.7.8 6.6-.5 13.3-.7 20-1.5 2.6-.5 5.5-1.1 7.7-2.6 1.2-.8 2.2-2.2 3.5-2.8h7c1.1.7 2.2 1.8 3.4 2.4q2.1 1.1 4.4 1.5" class="b"/><path d="M8.9 206.5c14.7-.3 29.5.3 44.2-.7 2.8-.1 5.8-.6 8.6-.6q3.2.6 6.1 1.8c1.4.5 3 1.4 4.4 1.1 3.2-1 6.2-2.7 9.5-3.7q3.5.7 7 2.1c1.3.4 2.8 1.6 4.3 1.4 3.7-2 8-2 12.1-2q6-.1 12.2.7 9 .8 18.2 1.4l12.1-.9c5.2-.4 10.7-.6 15.6-2.5 2-.7 3.6-2.2 5.2-3.5q3-.3 6-.1h1.8c.9.3 1.9 1.2 2.6 1.7a14 14 0 0 0 4.4 1.9" class="b"/><path d="M8.9 204.8c15-.4 30 .2 45-.8 2.9-.1 5.8-.6 8.7-.6q2.8.6 5.2 1.7c1.4.5 2.9 1.4 4.4 1.4 3.2-1 6.2-3 9.5-4.1q3 .8 6 2c1.8.5 3.5 1.5 5.3 2 4.5-2.4 9.8-2 14.7-1.9q6 0 12.1.8l14 1q12.1-.6 24.2-2.1 3.6-.6 7-2l2.5-1.8c.7-.6 1.7-1.3 2.6-1.2h5.2c1.2 0 2.6 0 3.5.9q2 1.5 4.3 2.3" class="b"/><path d="M8.9 203c12.4-.2 24.8 0 37.2-.3 5.8 0 11.6-1 17.4-1 3 .6 5.7 2.3 8.7 3.1 3.3-1 6.2-3.2 9.5-4.4 3.8 1 7.6 2.7 11.3 4.2 1.7-.4 3.4-1.2 5.2-1.4q4.3-.3 8.6-.2c9-.1 18 1.3 27 1.5 8.3-.6 16.7-1 25-2.3q3.7-.5 7-2.1c1.5-.7 2.7-2.2 4.3-2.6h8.7c1.4.7 2.8 1.9 4.3 2.4" class="b"/><path d="M8.9 201.3c15-.4 30 .2 45-.8 3.5-.2 7-.7 10.5-.6q2.2.6 4.3 1.7c1.4.5 2.8 1.6 4.3 1.4 3-1.1 5.7-3.2 8.7-4.6.9 0 1.8.6 2.6 1q2.2.7 4.3 1.6l3.5 1.4q1.3.7 2.6 0c3.6-1.1 7.5-1 11.3-.9q7 0 13.9.6c4.3.2 8.6.8 13 .6q12-.6 24.3-2 4.5-.6 8.6-2.1l2.6-1.5c.7-.5 1.7-1.3 2.6-1.3h9.6l2.6 1.5" class="b"/><path d="M8.9 199.5c12.7-.3 25.4 0 38.1-.4 6 0 12.2-1 18.2-1 2.7.8 5.1 2.6 7.8 3.3 3.2-1 5.7-3.4 8.7-4.8q1-.1 1.7.4l2.6 1.2 7.8 3c4.7-1.6 9.8-1.2 14.8-1.1q6.5 0 13 .5c3.1.2 6.3.6 9.5.4q14.3-.7 28.6-2.5 4.1-.5 7.8-2.2c1.5-.6 2.8-1.9 4.4-2.3h7c1.3.1 3-.2 4.2.5" class="b"/><path d="M8.9 197.7c15.3-.4 30.6.3 46-.7 3.4-.2 6.9-.7 10.3-.6 1.6 0 3 1 4.4 1.6 1.3.6 2.8 1.7 4.3 1.6 3.2-1 5.6-3.9 8.7-5q3.7 2 7.8 3.4c1.3.5 2.8 1.4 4.3 1.3 5-1.5 10.4-.8 15.6-.7 5.5 0 11 .6 16.5.7q14.3-.8 28.6-2c5.7-.6 11.7-1.4 16.5-4.6 1.3-.7 3-.3 4.3-.4h7" class="b"/><path d="M8.9 195.9c15.3-.5 30.6.3 46-.7 3.6-.2 7.4-.7 11.2-.5 1.5 0 3 1 4.3 1.7 1.3.5 2.9 1.8 4.4 1.4 2.8-1.2 5-3.4 7.8-4.9 1.7.6 3.4 1.7 5.2 2.4q3.4 1.4 6.9 2.4c5-1.5 10.4-.8 15.6-.6 4.6 0 9.3.6 13.9.5q16-1 32-2.3c5.7-.5 11.6-1 16.6-4.1 1.2-.9 2.9-.6 4.3-.6h6" class="b"/><path d="M8.9 194H27c9.5 0 19 .1 28.6-.6 3.7-.2 7.5-.8 11.3-.5 1.5.1 2.9 1.3 4.3 1.9q1.6 1 3.5 1.4c3.2-.7 5.5-3.8 8.6-4.7q3.8 2 7.8 3.3c1.4.4 3 1.3 4.4 1 5.4-1.2 11-.4 16.5-.2 6.6.5 13.3 0 19.9-.5l24.3-1.5c4.6-.4 9.4-.8 13.8-2.3q2.7-1 5.3-2.4 3.8-.2 7.7 0" class="b"/><path d="M8.9 192.1c6.9.3 13.8 0 20.8 0 9 .1 17.9.2 26.8-.5 3.8-.2 7.6-.8 11.3-.4 1.6.2 3 1.4 4.3 2 1 .5 2.3 1.2 3.5 1.3 2.9-.8 5.2-3.1 7.8-4.5 1.2.1 2.4 1 3.5 1.3 2.8 1.1 5.6 2.6 8.7 3q3.4-.8 6.9-.9c4 .1 8.1.6 12.1.7 6.1-.1 12.2-.7 18.2-1 11-.9 22-.8 33-2.3q3.5-.5 7-1.8c1.4-.5 2.8-1.4 4.3-1.9h6" class="b"/><path d="M8.9 190.3q11.3.3 22.5 0 12.6.4 25.2-.4c4-.2 8-.8 12-.3 1.7.1 3 1.2 4.4 1.9 1 .5 2.3 1.3 3.5 1.3 2.9-.8 5.2-3 7.8-4.4 3.7 1.6 7.4 3.3 11.3 4.2a28 28 0 0 1 7-.9c3.4 0 6.9.5 10.3.7q4.3-.2 8.7-.6 13.4-1.1 26.9-1.5c7.2-.4 14.5-.4 21.7-1.8 3-.6 5.8-2 8.6-3.1h4.4" class="b"/><path d="M8.9 188.4q11.6.5 23.4 0 12.5.5 25.1-.2 4.8-.4 9.5-.5 3.9 0 7 2c1 .6 2.3 1.4 3.5 1.4 2.9-.6 5.1-3 7.8-4q5 2.3 10.4 3.8 3.8-.9 7.8-1 4.7.3 9.5.8l11.3-1q6-.3 12.1-1l9.6-.3c8-.2 16.2-.2 24.2-1.5q3.7-.5 7-2c1-.3 2.3-1 3.4-1.2h2.6" class="b"/><path d="M8.9 186.5q12.1.7 24.2 0 12.6.7 25.2 0c3.7-.2 7.5-.6 11.3-.3 1.8.1 3.5 1 5.2 1.8q1.6 1 3.4 1.4c3-.2 5.2-2.6 7.8-3.6q3 1.4 6 2.3c1.5.4 3 1 4.4 1a25 25 0 0 1 7-1c3.4 0 7 .7 10.4.8l13-1.2q5.6-.4 11.3-1.2h8.6c8.7-.2 17.5 0 26-1.6q3.1-.6 6.1-1.7c1.4-.5 2.9-1.3 4.4-1.3" class="b"/><path d="M8.9 184.5q12.5.8 25.1.2 12.6.8 25.2 0c4 0 8-.5 12 0 2 .3 3.6 1.3 5.3 2 3.8 2.4 6.8-.6 10.4-1.9 3.1 1 6.3 2.3 9.5 2.6q3.8-1.2 7.8-1 5.3.2 10.4.8 7.5-1 14.8-1.6l11.3-1.2h7.8c11.6 0 23.7.6 34.7-3.9" class="b"/><path d="M8.9 182.5q8.2.7 16.4.6 5.3-.2 10.4-.1c11.3 1 22.6-.2 33.9 0q2.6 0 5.2.8l3.4 1.4c2.5 1.4 5.4.5 7.8-.5l1.8-.5q1.3.1 2.6.4 2.5.7 5.2 1c1.4.2 2.9-.6 4.3-.9q3-.5 6-.3l7 .7q1.7.3 3.5.4l2.6-.4c7.7-1.2 15.6-1.6 23.4-2.7 7.2 0 14.5.3 21.7 0 6.4-.3 13-.8 19-3" class="b"/><path d="M8.9 180.5c8.9 1 17.9.7 26.8.6 11.6 1.2 23.2 0 34.7.2q2.7.1 5.2.7c2 .7 4 1.7 6 2.1h3.6l3.4-.5q3.5.1 7 .5c2-.2 4-1.3 6-1.5 5-.5 10 .4 14.8 1 1.7.4 3.5-.1 5.2-.4l7-1q5.5-.5 11.2-1.2c2-.2 4-.7 6-.7q10 .5 20 .2c5.8-.2 11.7-.6 17.3-2.2" class="b"/><path d="M8.9 178.4c8.6 1.1 17.3 1 26 .8 12 1.3 24.3.4 36.4.5q3 0 6 .8 2.7 1 5.3 1.7c1.6.4 3.5.2 5.2.2h7.8c1.7-.2 3.5-1.1 5.2-1.6 2.8-.7 5.8-.4 8.6-.2q5.3.8 10.4 1.5l5.2-1q7.4-1 14.8-1.8c2.8-.2 5.8-1 8.6-1 11.6.5 23.4 1.1 34.7-1.2" class="b"/><path d="M8.9 176.2c8.5 1.4 17.3 1.4 26 1.1q9 1 18.2 1c7.5 0 15-.6 22.5 0 3.6.2 6.9 2 10.4 2.4h7c1.7 0 3.6.1 5.2-.7q2-1 4.3-1.6 2.2-.4 4.4-.2c5 .2 9.8 1.5 14.7 2.2 4-.5 8-1.6 12.1-2L145 177c2-.1 4-.7 6-.7 10.7.7 21.6 1.1 32.2-.6" class="b"/><path d="M8.9 174c8.5 1.7 17.3 1.7 26 1.4q9.5 1.3 19 1.2c7.8.1 15.7-.6 23.5.1 4.1.2 8 2.4 12.1 2.3h6c1.3 0 2.5-.8 3.5-1.3 3.3-1.8 6-2.2 9.6-1.6 5 .2 9.8 1.6 14.7 2.5 1.4.2 3-.4 4.4-.6q3.4-.8 6.9-1.3 9.5-1.2 19-2.4c9.9.8 19.8 1.2 29.6 0" class="b"/><path d="M8.9 171.7c8.1 2 16.7 2 25.1 1.8 2.3 0 4.6.7 7 .8q5.6.6 11.2.6c8.7.2 17.4-.5 26 0q3 .3 6.1 1 4.2 1.3 8.7 1.3 1.7.1 3.4-.2 3-2 6.1-3c2.5-1 5.3-.6 7.8-.2 5 .5 9.9 1.9 14.7 3 1.7.4 3.6-.4 5.2-.7q3.5-.8 7-1.3c6.3-1 12.8-1.4 19-2.4 9 .8 18 1.2 27 .3" class="b"/><path d="M8.9 169.2a80 80 0 0 0 25.1 2.4q1.8 0 3.5.4 3 .5 6 .8 9 .8 18.3.5c6.9 0 13.9-.4 20.8.3 2.9.1 5.7 1.2 8.6 1.4 1.7.2 3.6.3 5.2-.5 1.5-.6 2.2-2.3 3.5-3 2.6-.3 5.2-1.1 7.8-.7a146 146 0 0 1 20.8 4.4l3.5-.7q3-.8 6-1.3c6.3-1.1 12.8-1.4 19.1-2.4q2.2-.4 4.4-.1a129 129 0 0 0 21.6.4" class="b"/><path d="M8.9 166.7a70 70 0 0 0 25.1 2.9c1.4-.1 3 .6 4.3.7q3 .6 6.1.9c9.5.8 19.1.4 28.6.3 5 0 9.9 0 14.8.8q2.6.3 5.2.8c4.1.1 6.5-3 8.6-6.1l1-.2c2 1 4.6.6 6.9 1.2q9.6 2.4 19 5c3 1 5.9-.5 8.7-1q6-1.4 12.1-1.8 6.7-.5 13-1.6 10.5 1.4 20.9.9" class="b"/><path d="M8.9 164.5c1.4 0 2.9.7 4.3 1q2.6.9 5.2 1.2c4.8.9 9.8.9 14.7.9 1.5-.2 3 .4 4.4.7q3 .7 6 1 10.9 1 21.7.7c7.8-.1 15.7-.4 23.4.4l7 .6c1.6-.2 3-1.5 4.3-2.6 1.6-1.3 2.7-4.2 5.2-3.9 3.6-.2 7 1 10.4 2.1q5.7 1.7 11.3 3.6c5.7 1.8 5.4 2 11.3.3q6-1.5 12.1-2 4.8-.4 9.5-.9c2-.1 4.1-.7 6.1-.7q8.6 1.3 17.3.9" class="b"/><path d="m8.9 162.8 3.4.1q3.4 1 7 1.7c4.8.9 9.8.9 14.7 1 5.9 1.9 12 2.5 18.2 2.7 7.5.3 15 0 22.6 0q6.5-.1 13 .2c3.4.2 7 .6 10.4.2 1.7-.4 3-2.2 4.3-3.4 1-.9 2-2.5 3.5-2.5h7q2.6.6 5.1 1.7l6.1 2.2c3.4 1.2 6.9 2.6 10.4 3.4q3-.6 6-1.6 4-.8 7.9-1.4c6.3-.7 12.8-.8 19-2 5.2.5 10.5 1.2 15.7 1" class="b"/><path d="m8.9 161 5.1.1c3.2.6 6.4 1.6 9.6 2l9.5.4c.9 0 1.8.5 2.6.7q2.2.8 4.4 1.2c11.1 2 22.5 1.5 33.8 1.3q8.7-.2 17.3.3c3.2.1 6.5.4 9.6-.5.5-.1 1.3-.8 1.7-1.3l3.5-3.3q1-1 2.6-.8h3.4q2.7-.1 5.2 0 2.3.8 4.4 1.8l9.5 3.8c2 .6 4 1.7 6 1.5 3.5-.9 7-2 10.5-2.4 7.5-1.2 15.1-1 22.5-2.6q6.5 1.2 13 1" class="b"/><path d="M8.9 160c1.2-1 2.8-.6 4.3-.7 3.8-.3 7.5 1.2 11.3 1.6q4.3.4 8.6.6 6.7 2.6 13.9 3.2c13 1.4 26 .2 39 .5 4.6-.1 14.8 1.5 18.2-1.3q1.2-1.4 2.6-2.6c1-.8 2.2-2 3.5-2h9.5c1.9.4 3.6 1.5 5.2 2.2a126 126 0 0 0 11.3 4.7q1.7.6 3.5 0c7.8-2.6 16.1-2.8 24.3-3.5a62 62 0 0 0 7.8-1.2q5.5.8 11.2 1" class="b"/><path d="M8.9 160.2c2.3-2.2 2.7-2.8 6-2.6h4.4q2.6.6 5.2 1l7.8.7c1.1.2 2.3 1 3.4 1.3q2.2.8 4.4 1.2c8 1.8 16.1 2 24.2 2q11-.2 21.7-.2c5.8 0 11.7.9 17.4 0q1.4-.3 2.6-1c1.1-1 2.2-2.4 3.4-3.3 2.1-2 3.5-1.8 6.1-1.7h7c1.5.2 3 1.2 4.3 2 3.2 1.6 10.5 5.5 13.9 5.1q4.6-1.4 9.5-2.3 7-.9 13.9-1.3 3-.2 6-.7 2.2-.5 4.4-.7 4.3.9 8.6 1" class="b"/><path d="M8.9 160.3c1.7-1.3 3.1-3.5 5.1-4.4H22q5.1.9 10.4 1.3 2.5 1.3 5.2 2.2c7 2.1 14.4 2.6 21.6 2.9 10.2.2 20.3-.3 30.4 0 5.7 0 11.7.8 17.3-.5 2.5-1.1 4-3.7 6.1-5 1.5-1.3 3.5-.9 5.2-1h6c1.7 0 3 1.2 4.4 2l5.2 2.7q3.7 1.8 7.8 2.6l3.5-.9c6.7-2 13.8-2.2 20.8-2.8q4.8-.3 9.5-1.4c2.6.2 5.2.8 7.8.8" class="b"/><path d="M8.9 160q2.3-1.7 4.3-3.8c.7-.7 1.6-1.8 2.6-2 4 0 8.1-.3 12.1.3 1.7.3 3.7.2 5.2 1.1a61 61 0 0 0 24.3 5c9.5.5 19.1-.1 28.6.2l14 .3c2.8-.1 5.8.2 8.6-.7 3.6-1 5-5.5 8.7-6.3h6c1.4.1 3-.2 4.4.3q3.3 2.3 6.9 4.1c2.7 1.3 5.6 2.6 8.7 2.8l3.4-.9c6.8-2 13.9-2 20.8-2.7q4.9-.5 9.6-1.5 3 .6 6 .8" class="b"/><path d="M8.9 159c2.8-1 4.9-3.5 6.9-5.7q1-1.1 2.6-1H21q3.9 0 7.8.2c1.4.2 3 .2 4.3 1q3 1.7 6.1 2.7 8.9 2.4 18.2 2.8c7.8.3 15.6.1 23.4.2 8.7.1 17.4.6 26 .4 2.5 0 5.1-.9 7-2.5 1.4-1.3 2.6-3.2 4.3-4.1s3.5-.6 5.2-.6h3.5q1.4-.1 2.6.4a37 37 0 0 0 14.7 6.8q1.4-.2 2.6-.6c7-2 14.4-2.4 21.7-3q4.8-.4 9.6-1.5 2.5.4 5.2.7" class="b"/><path d="M8.9 157.9c2.3-.5 4.4-2 6-3.7 1.1-1.1 2.1-2.7 3.5-3.5h7.8c2 0 4.1-.2 6 .4a41 41 0 0 0 7.9 3.5q8 2.3 16.4 2.7 11.8.4 23.5.4 5.2 0 10.4.3l9.5-.2c3.7 0 7.6.6 11.3 0 6-.8 5.9-6 11.2-7 2-.3 4.1-.1 6.1-.2 1.3-.2 2.6.6 3.5 1.5l2.6 1.8c3.4 2 7.3 3.6 11.2 3.9q5.2-1.5 10.5-2.3 6.3-.8 13-1.2a75 75 0 0 0 9.5-1.4q2.2.2 4.3.5" class="b"/><path d="M8.9 156.4c4.6-.3 7.5-3.9 10.4-7.1 1-.6 2.3-.3 3.4-.4h4.4l5.2.1 2.6 1.3a52 52 0 0 0 21.7 5.3c11.5.7 23 .2 34.6.3 5.2 0 10.5-.4 15.6.1 15.2 2.1 9.4-6.4 20.9-6.9 5-.3 4 .9 7.8 3.1a31 31 0 0 0 11.2 4l6.1-1.5a81 81 0 0 1 10.4-1.5q5.6-.4 11.3-1.1l5.2-1c1 .3 2.4.5 3.4.6" class="b"/><path d="M8.9 154.5c2.7.5 5.6-.8 7.7-2.6 1.6-1.3 2.9-3.2 4.4-4.5 2.8-.4 5.8-.1 8.7-.2 3.7-.1 3.8 0 6.9 1.9q3.7 2 7.8 3a97 97 0 0 0 26.9 2q15.6 0 31.2-.6 4.4.2 8.7.6c1.7 0 3.5.7 5.2.4 2-.2 3.7-1.8 5.2-3.2 2.7-2.5 6.7-3.6 10.4-3q1.6.2 2.6 1.3l2.6 1.6a34 34 0 0 0 10.4 3.1q1.3-.1 2.6-.5l4.3-1c5.7-1.2 11.6-1.5 17.4-2.1l7.8-1.2q1.6.2 3.4.5" class="b"/><path d="M8.9 152.4c3.3 1.2 6.9-.2 9.5-2.4 1.6-1.2 2.8-3.2 4.3-4.4 2.3-.3 4.7 0 7-.1 1.7 0 3.5-.2 5.2.3q3.6 2.4 7.8 4 6.3 1.9 13 2.4 5.2.6 10.4.2 12.6-.2 25.1-.7c4.4 0 8.7-.5 13-.4 3.5.1 7 .1 10.5.8 1.6.3 3.5 1.2 5.2.6 1.5-.6 3-1.9 4.3-2.8q3.5-2.3 7.8-2.3l2.6.3c1.4.7 2.9 1.7 4.3 2.2q4.6 1.8 9.6 2.5c3.2-.4 6.3-1.5 9.5-2q6.5-.9 13-1.5 4.5-.4 8.7-1.3l3.5.6" class="b"/><path d="m8.9 150.4 3.4.7q3.3-.1 6-1.7c2.5-1.4 4.2-3.7 6.2-5.6q3-.1 6 0 3.1-.3 6.1.7c2.3 1 4.4 2.7 7 3.5q5.4 1.9 11.2 2.4 4.8.7 9.6.3c12-.5 24.3-.6 36.4-1.6q6.5-.4 13 .2 3 .5 6 1.7c1.9.7 3.7-.6 5.2-1.4q2.4-1.6 5.2-2.2 3-.5 6.1-.1a39 39 0 0 0 11.3 3.3c2.3.7 4.7-.3 7-.8q4.2-1 8.6-1.6l11.3-1.3 4.3-.7c1.4 0 3 .5 4.3.6" class="b"/><path d="M8.9 148.4q2.5.6 5.1 1c5.3-.5 8.8-3.4 12.2-7.2 1.6-.5 3.5-.1 5.2-.2 2.7-.2 5.3 1 7.8 1.9 2.3.9 4.5 2.3 7 3a53 53 0 0 0 13 2.3c3.1 0 6.3-.5 9.5-.5l13.8-.5q7.8-.3 15.7-1 8.7-1 17.3-.4 2.2.3 4.3 1.2c1.6.9 3.4 2 5.2 1.2 2.6-1 5.1-2.3 7.8-2.6 2-.1 4.2-.5 6.1.1q3.9 1.1 7.8 1.9c1.7.2 3.5.8 5.2.3q9.5-2.4 19-3.4c2.7-.3 5.3-1 7.9-1q2.2.5 4.3.7" class="b"/><path d="M8.9 146.5c2.8.4 5.7 1.6 8.6.8q4.3-1 7.8-3.9c1.2-.9 2.2-2.4 3.5-3.2 4-.3 7.7 1.2 11.3 2.6a55 55 0 0 0 19 4.7l10.5-.7q11.2-.3 22.5-1c6-.4 12.1-1.5 18.2-1.5 3.2-.1 6.5-.4 9.6.6 2 .9 3.8 2.5 6 2.8 1.8 0 3.5-.8 5.2-1.3q3-.6 6-1c2.1-.3 4.2.4 6.2.7 2.8.5 5.7 1.4 8.6 1.2 6.3-1.4 12.7-2.9 19.1-3.6l7-1 5.1 1" class="b"/><path d="M8.9 144.6c2.5.3 5.2 1.1 7.7 1.2q8.4-.6 14-7c1-.3 2.3.3 3.4.6l5.2 1.8c4.5 1.8 9 3.6 13.9 4.2q3.8.6 7.8.2 4.3-.5 8.6-.6c9-.4 18-.5 27-1.5q4.2-.3 8.6-1l8.7-.6c6.5-.5 6.6.3 12.1 3.2 2.5 1.3 4.4.8 7 .2 3-.6 6.3-1.5 9.5-1q4.7.8 9.5 1.4l4.4-.8a162 162 0 0 1 20.8-4c2 .3 4 1 6 1.2" class="b"/><path d="M8.9 142.9q4.2.6 8.6 1.2c5.4-.5 11-2 14.8-6.2 4.4 1 8.6 3 13 4.3q5.5 1.6 11.2 1.9c14.2-1.4 28.4-1 42.5-2.8q6.5-.9 13-1.3c2.6-.1 5.3-.7 7.8-.4 3.8.6 6.8 3.4 10.5 4.3 1.3.5 2.9.2 4.3 0 2.3-.3 4.6-1 7-1q3.4 0 6.9.6c2 .3 4 .7 6 .2q10.4-2.5 20.8-4.2l1.8-.3 1.7.4 4.3.8" class="b"/><path d="M8.9 141.1q4.7.6 9.5 1.2a30 30 0 0 0 15.6-4.6c7.1 2 14.2 4.9 21.7 4.6l11.2-.9c11.6-.6 23.2-.7 34.7-2.3q5.7-.8 11.3-1.2c2.9-.2 5.8-.9 8.7-.2 4.3.8 7.9 3.8 12.1 4.6 3.5.6 7-1 10.4-.8q3 0 6.1.5 2.6.5 5.2 0 10.3-2.6 20.8-4.4 1.3-.1 2.6.4 2.2.5 4.3.7" class="b"/><path d="m8.9 139.4 7.7.8c1.7.2 3.5.6 5.2.3a68 68 0 0 0 12.2-2.3q1.3-.6 2.6-.3c5.4 1.2 10.9 2.8 16.5 2.8q7.3-.7 14.7-1.2c12.5-.5 25-.9 37.3-2.8q4.3-.4 8.7-.7l4.3-.6q4 0 7.8 1.2c3.8 1.2 7.3 3.6 11.3 4.1 3.1.1 6.3-.9 9.5-.7q3.5.2 7 .6l3.4-.6c6.4-1.4 12.7-3 19.1-4 .8-.3 1.8.1 2.6.3l4.3.8" class="b"/><path d="M8.9 137.7q4.3.3 8.6.8c2 .1 4.1.5 6 .3l9.6-1 4.4-.2 3.4.5q4.8.9 9.6.9c5.5-.4 11-1.2 16.5-1.5 7.7-.4 15.6-.4 23.4-1 6-.4 12.1-1.6 18.2-2q4.8-.3 9.5-1 4.9-.2 9.6 1.3c4 1 7.8 3.7 12.1 4.1 2.9.3 5.8-.6 8.7-.4l5.2.3q2.6-.1 5.2-.7 8.6-2.1 17.3-3.8c.8-.3 1.8.1 2.6.3l4.3.8" class="b"/><path d="M8.9 136q7.4.4 14.7 1.1c4 0 8.1-.4 12.1-.2q6 .4 12.2.4c4.6-.3 9.2-1.1 13.9-1.4 7.2-.6 14.4-.6 21.6-1q11-.6 21.7-2 4.8-.1 9.6-.7a31 31 0 0 1 18.2 2c2.5.9 5 2.3 7.8 2.7 2.8.7 5.8 0 8.6 0l5.2.2q3-.3 6.1-1 8.2-2 16.5-3.6 3 .8 6 1.2" class="b"/><path d="M8.9 134.4q8.6.2 17.3 1l17.3.2c5.3-.2 10.4-1.4 15.6-1.7 7.5-.7 15-.7 22.6-1q10.9-.5 21.7-1.8 5.2 0 10.4-.6c2-.2 4-.8 6-.7q6.7 0 13 1.9c3 .9 5.8 2.3 8.7 3q4.3 1 8.7.7h4.3q4.5-.3 8.7-1.4c4.6-1 9.2-2.3 13.9-3 2 .2 4 .8 6 1" class="b"/><path d="M8.9 132.7c10.6 0 21.3 1.3 32 1 2.4 0 4.7-.6 7-1q4.3-.7 8.7-1c8.6-.8 17.3-.6 26-1q6-.2 12.1-.8c2.9-.3 5.8-.8 8.7-.7q5.2 0 10.4-.5c2-.2 4-.8 6-.8q6.7 0 13 1.5c3.3.8 6.4 2.2 9.6 3a28 28 0 0 0 8.7 1.3A55 55 0 0 0 165 132c4.3-.9 8.6-2.4 13-2.7l5.2.9" class="b"/><path d="M8.9 131.1c9.8-.2 19.6.7 29.4.3q4.1-.2 7.8-1.5l7.8-.9c9.3-.6 18.5-.1 27.8-.4a281 281 0 0 0 15.6-1.2h7a95 95 0 0 0 9.5-.5c2-.2 4-.8 6-.8q6.7 0 13 1.1c3.9.9 7.6 2.4 11.3 3.4 7 2.2 14.6 1.3 21.7-.1q6-1.6 12.1-2.7l5.2.9" class="b"/><path d="M8.9 129.5c10-.4 20.2.4 30.3-.6q3.6-.5 7-1.9l2.5-1.2h3.5q13.5.2 26.9.4c5.5 0 11-.7 16.5-.9q8.2.6 16.5 0c2.6-.2 5.2-1 7.8-1q6.5 0 13 .8c3.5.6 7 1.8 10.4 2.8 2.2.7 4.5 1.6 7 1.8 5 .7 10.4.1 15.5-.8 4-.8 8-2 12.2-2.6q2.6.2 5.2.7" class="b"/><path d="M8.9 128c10-.7 20.3-.1 30.3-1.6q4-.6 7.8-2.2c1.7-.5 3.4-2 5.2-2.2l8.7.7c9.8.7 19.6 1.2 29.5.4 2-.1 4 .4 6 .5q5.3.3 10.4.2 6.1-.2 12.2-1.4c5.5.2 11 .2 16.5 1.2q4.8 1.1 9.5 2.5 2.2.8 4.3 1.4c4.9 1.1 9.9.7 14.8.2 4.6-.7 9.2-2 13.9-2.8 1.6-.3 3.5.3 5.2.5" class="b"/><path d="M8.9 126.4c10.3-1 20.9-.6 31.2-2.5q5.7-1.2 11.2-3.5c2.5-1.3 5.2-1 7.8-1 9.3.6 18.5 1.6 27.8 1q8.6 1.6 17.3 1.6 7.5 0 14.8-1.5 6.9.2 13.9.7 6 .8 12 2.6c1.5.3 3 1.2 4.4 1.5q3.8 1.1 7.8 1 7 0 14-1.5 4.2-.9 8.6-1.5l3.5.5" class="b"/><path d="M8.9 124.8c10.3-1 20.9-1.3 31.2-3.1 4.7-.8 9.3-2.4 13.8-3.8q2.2-.3 4.4-.2h25.1c5.8 1.2 11.5 2.3 17.4 2.4q9.1.4 18.2-1.5 7 .4 13.9.6a74 74 0 0 1 13 2.6c3 1.3 6.2 2.5 9.5 2.5q7 .5 13.9-.7 3.9-.7 7.8-1.3 1.7-.4 3.5-.4l2.6.3" class="b"/><path d="M8.9 123.2q7.4-.7 14.7-1.6 9.1-.7 18.2-2.4c4.7-.7 9.2-2.3 13.9-3.2h15.6q6.5-.2 13 0a76.5 76.5 0 0 0 34.7.7c5.2.5 10.4.4 15.6.8q5.7.7 11.3 2.1c1.1.3 2.3 1.1 3.4 1.5q2.5.9 5.2 1.2 7.5.7 14.8-.2l7.8-1.2q3-.6 6-.2" class="b"/><path d="M8.9 121.4c2.2.2 4.6-.4 6.9-.7l11.3-1.5c8.4-1.1 16.8-2 25.1-4l4.3-.9q3.5-.2 7 0h20.8q3 .5 6 1.1a72 72 0 0 0 28.7-.6q4.3.4 8.7.6a66 66 0 0 1 19 2.4q3.3 1.8 7 2.4a74 74 0 0 0 15.6.4l7.8-1.1c2-.2 4-.6 6-.3" class="b"/><path d="M8.9 119.6c2.2.5 4.6-.3 6.9-.6q5.2-1 10.4-1.8c8-1.2 16.3-1.8 24.3-3.2q3.9-.9 7.8-1.5h23.4q4-.1 7.8.9a71 71 0 0 0 28.6-.5c2.9 0 5.8.6 8.7.6q6-.2 12.1.7 4 .6 7.8 1.5 3.3 1.8 7 2.6c5.4.9 11 .8 16.5.5 4.3-.3 8.6-1.3 13-1" class="b"/><path d="M8.9 117.8c2.2.7 4.6-.1 6.9-.6q4.7-1.2 9.5-2c7.8-1.4 15.7-1.6 23.4-2.6 3.8-.4 7.5-1.4 11.3-1.8h26l4.4.8q4.6 1 9.5 1 9.2.3 18.2-1.6 4.4.5 8.7.8 7-.2 13.9.7l6 1.2q3.3 1.8 7 2.7c5.7 1.1 11.5 1 17.3.8 4-.3 8.1-.9 12.1-.8" class="b"/><path d="m8.9 115.9 2.5.5c2-.2 4.1-1 6.1-1.5q5.6-1.6 11.3-2.4c10-1.2 20.4-1 30.3-3 3.4-.8 7-.4 10.5-.5h15.6c2.9 0 5.7 1 8.6 1.3a66 66 0 0 0 20-.6c2-.3 4-.8 6-.4q5.7.9 11.3.7a64 64 0 0 1 15.6 1.8c2.3 1 4.5 2.2 7 2.7 9.7 2 19.6.6 29.4.5" class="b"/><path d="M8.9 113.9q1.6.6 3.4.8c2.7-.5 5.2-1.7 7.8-2.5a46 46 0 0 1 13-2.3c6.4-.3 12.8-.2 19.1-.8l7-1a28 28 0 0 1 6.9-.8h20.8c2.3 0 4.7.7 7 1a61 61 0 0 0 17.3-.2c2.5-.3 5.2-1 7.8-.8q4.4.6 8.7 1 7.3-.3 14.7.8 2.7.3 5.2 1.1 3.7 2 7.8 2.8c9.2 1.7 18.5.5 27.7.6" class="b"/><path d="M8.9 111.6c4.5 2.7 6.1.7 10.4-1a30 30 0 0 1 10.4-2.6c11-.5 22.1.6 33-1.9 3.6-1 7.5-.4 11.2-.5h14.7c5 .5 9.8 1.4 14.8 1.1 4.3 0 8.6-1 13-1.2 3.5-.2 7 .7 10.4.9 5 0 9.8 0 14.7.8q3.1.3 6.1 1.1 4.6 2.5 9.5 3.2c8.6 1.3 17.4.5 26 .6" class="b"/><path d="M8.9 109c2 1.6 4.4 3.2 6.9 1.6 2.2-1.2 4.5-2.7 7-3.5 3.8-1.5 8-1.4 12-1.2 7 .2 14 .6 20.9 0q4.8-.5 9.5-1.6 2.6-.1 5.2 0c3.8 0 7.5.4 11.3.3q5.2-.2 10.4-.7 6.5.9 13 .6c3.2-.1 6.4-.7 9.6-.7h6q2.6.5 5.2.7 3.5.3 7 .1 4.3.2 8.6.8 3.1.4 6.1 1.1 4.6 2.3 9.5 3.2c8.6 1.4 17.4.8 26 1" class="b"/><path d="M8.9 105.8c6.3 7.3 6.5 2.3 13-.2 4.4-1.4 9.2-1.5 13.8-1.6 9.5.7 19.3 1.3 28.7-.7 1.9-.5 4-.1 6-.1q5.7.3 11.3.3 6.6-.1 13-1.3 3.5.2 7 .2l8.6-.3h10.4l6.1.8c4.3.1 8.7 0 13 .6q4 .4 7.8 1.3 4.6 2.2 9.6 3.1c8.5 1.5 17.3 1.1 26 1.3" class="b"/><path d="M8.9 103c1.6 1.6 3 3.9 5.1 4.8 2.1.4 3.7-1.3 5.3-2.4q2-1.2 4.3-1.9c4.2-1 8.7-.9 13-1 2.6-.2 5.2.3 7.8.4q6 .4 12.1.1 4.9-.2 9.6-1.1 4.8 0 9.5.3 7 .3 13.9-.4c3.5-.4 6.9-1.6 10.4-1.4h20.8c2.3.1 4.7.7 7 .8q4.7 0 9.5.4t9.5 1.3c1.5.3 3 1.2 4.4 1.6q3 1 6 1.7c8.6 1.6 17.4 1.4 26 1.5" class="b"/><path d="M8.9 100.5c1.4 1.3 2.8 3.1 4.3 4.5q2 1.9 4.3.3 2-1.6 4.4-2.8c5.5-2 11.6-1.3 17.3-1.5q3 .1 6 .4a117 117 0 0 0 18.3-.3c1.7 0 3.5-.7 5.2-.6 7.2.3 14.5.8 21.7-.2q4.4-.8 8.6-1.7h22.6l4.3.8c3.5.4 7 0 10.4.5q5.3.5 10.4 1.4c1.5.3 3 1.1 4.4 1.5q3 1 6 1.6a110 110 0 0 0 26 1.3" class="b"/><path d="M8.9 98c1.5 1.3 2.9 3.1 4.3 4.5 1.2 1.3 2.6 2.4 4.3 1.3 1.8-1 3.3-2.5 5.2-3.2 5.6-1.9 11.6-.9 17.4-1.1 4.3.2 8.6.8 13 .7q5.6.1 11.2-.4c2 0 4.1-.6 6.1-.7 7 .3 14 .6 20.8-.4 3-.4 5.8-1.3 8.7-1.8h13c3.4 0 7-.4 10.4.3 3.7.9 7.5.7 11.3 1q6 .4 12.1 1.5c1.5.2 3 1 4.4 1.4a63 63 0 0 0 18.2 3q7-.2 13.9-.6" class="b"/><path d="M8.9 95.9c1.6 1.1 3 2.8 4.3 4.2 1 1 2 2.3 3.5 2.5 1.9-.5 3.5-2.1 5.2-3.1 5-2.5 11-1.4 16.4-1.5 3.2-.2 6.4.4 9.6.6 7.2.3 14.5.4 21.7-.5 2.8-.8 5.8-.3 8.6-.3q6.7.2 13-.6c3.6-.4 7-1.8 10.5-2q10.4-.2 20.8 0 2.6.6 5.2 1 3 0 6 .3 7 .6 14 1.7a74 74 0 0 0 19.9 4.2c5.2 0 10.4-.7 15.6-1.1" class="b"/><path d="M8.9 94c2 1 3.5 3 5.1 4.7 1 .8 2.1 2.2 3.5 2 1.8-.8 3.5-2.2 5.2-3.1 3.2-1.5 7-1.4 10.4-1.3 3.2.2 6.4 0 9.6.3a154 154 0 0 0 29.5 0q1.6-.5 3.4-.5 11 .8 21.7-1.6 2.6-.8 5.2-1.1h10.4q5.3-.2 10.4.1c4 1 8.1 1 12.2 1.4l12.1 1.6q8.5 3 17.3 4c2.6.4 5.3 0 7.8-.2 3.5-.2 7-1 10.5-1.3" class="b"/><path d="M8.9 92.1c3.3 1.6 5.2 5.4 8.6 7q1.5-.5 2.6-1.4 1.6-1.1 3.5-2c2.7-1.2 5.8-1.1 8.7-1l8.6.2a155 155 0 0 0 35.6-.2h5.2q6 0 12.1-1c3-.3 5.8-1.3 8.7-2H118c2.3 0 4.7-.3 7 .3 3.6.9 7.5.7 11.2 1.3l8.7 1.2q3 .4 6 1.4a80 80 0 0 0 16.5 3.2q5.3-.5 10.4-1.4c1.7-.3 3.5-.9 5.2-1" class="b"/><path d="M8.9 90.4c2.3 1 4.1 3.1 6 4.8 1 .8 2.2 2 3.5 2 3-1.7 5.9-4 9.5-4.1q4.4-.3 8.7.2 3.5-.1 7 .3 6.8.6 13.8.7a124 124 0 0 0 21.7-1.1A105 105 0 0 0 95.6 92c2.9-.5 5.8-1.5 8.7-2.1h15.6c2.3 0 4.7-.2 6.9.4q3 .6 6 .7l7.9 1.1 7 1 5.1 1.5c4.6 1.1 9.2 2.3 13.9 2.7a68 68 0 0 0 16.5-3" class="b"/><path d="m8.9 89.2.8-.2c3.2 1.7 5.4 5 8.7 6.5 1.3-.1 2.4-1.3 3.5-1.9a15 15 0 0 1 5.2-2c2.8-.5 5.8-.1 8.6 0 2.6.2 5.3 0 7.8.5q7.5.5 14.8.7c6.3.2 12.7.3 19-.5q2.2-.4 4.4-.7h5.2Q93 91.2 99 90c2.3-.5 4.7-1.4 7-1.8h15.6q3-.1 6 .5 10.6 1.4 20.8 3 5.6 1.6 11.3 2.9 3.5.9 7 1 2.6 0 5.2-.6 5.7-1 11.2-2.8" class="b"/><path d="M8.9 88.4c2.1-.7 2.7 0 4.3 1.3 1.9 1.4 3.7 3.6 6 4.1 3.4-2.1 6.3-4.2 10.5-4.1q3.8.1 7.8.4h3.4l3.5.5c11 .5 22 1.4 33 .4l6-.9a88 88 0 0 0 20.8-2.7q2.6-.9 5.2-1h11.3c2.3.1 4.7-.1 7 .3 6.9 1 13.8 2.5 20.8 3.3q6.4 1.8 13 3.3 5.2 1.1 10.4-.1 5.7-1.4 11.2-3" class="b"/><path d="M8.9 87.3q1.6-.5 3.4-.2c2.3 1.6 4.3 4 7 5 1.2-.3 2.3-1.4 3.4-2q2.4-1.5 5.2-2c2.9-.3 5.8.1 8.7.3q2.2 0 4.3.2l3.5.4c11.5.4 23.2 1.5 34.7.4l6-.9a90 90 0 0 0 20.9-2.7c1.4-.4 2.9-1 4.3-1q8.7-.2 17.4 0c5.5.8 11 2.3 16.5 3l6 .9q5.2 1.5 10.4 2.7 3.9 1 7.8.6c5-.7 10-2.4 14.8-3.8" class="b"/><path d="M8.9 86.1c1.3-.2 3-.7 4.3-.2 2.2 1.4 4.2 4.1 7 4.4 2.8-2 5.9-4 9.5-4q3.8.2 7.8.5c2.3 0 4.6.5 7 .6 11.5.3 23 1.5 34.6.5q3.9-.3 7.8-1 7.9-.1 15.6-1.4c3-.5 5.8-1.6 8.7-2.4 5.4-.3 11 0 16.5-.1 4.4.5 8.6 2.1 13 2.8q5.2.8 10.4 1.4l5.2 1.4c3.4.9 6.8 1.9 10.4 1.9 5.7-.4 11-2.7 16.5-4.2" class="b"/><path d="M8.9 84.8q2-.5 4.3-.5c2.5 1 4.2 3.7 7 4.3 1.1-.4 2.3-1.5 3.4-2.2q2.4-1.4 5.2-1.7c2.6-.3 5.2.1 7.8.3 2.7 0 5.1.6 7.8.8 11.5.2 23.1 1.4 34.7.6q4.4-.3 8.7-1 7.8-.2 15.6-1.4c3.5-.4 7-1.8 10.4-2.7h13.8c2.1 0 4.2.8 6.1 1.5q3 1 6 1.5c5 1 10 .7 14.8 2 3.2.8 6.3 2 9.6 2.3 6.6.7 12.8-2.4 19-4" class="b"/><path d="M8.9 83.4c7.4-1.9 5.5 1 11.2 3.4 1 0 1.9-.8 2.6-1.3q2-1.5 4.4-2.2c2.5-.7 5.2-.3 7.8-.1l4.3.3q2.2.5 4.3.7c11.6.2 23.2 1.3 34.7.6q5.3-.3 10.4-1 8.3-.2 16.5-1.2 3.5-.7 7-1.6 2.1-.8 4.3-1.4h10.4c1.9-.3 3.6.7 5.2 1.4a26 26 0 0 0 5.2 1.9c5.1 1.1 10.4.9 15.6 1.5 3 .4 5.8 1.6 8.7 2.2q3.4.6 7 .4c5-.7 9.8-2.7 14.7-4.1" class="b"/><path d="M8.9 81.9c2.1-.4 5-1.4 6.9.2 1.6 1 3.2 3 5.2 3q1.7-1.2 3.5-2.4 2.4-1.3 5.2-1.5c2.8-.2 5.8.4 8.6.6q3 .6 6.1.8c10.4 0 20.8 1 31.2.7q7-.3 13.9-1.2c6-.2 12.2-.3 18.2-1.2q5.5-.6 10.4-2.7 1.7-.6 3.5-.4h3.5c1 0 2.4-.2 3.4.4a20 20 0 0 0 4.4 3c5.4 2.5 11.6 1.3 17.3 1.6q2.6 0 5.2.5l5.2 1.4q2.2.6 4.3.5h4.4c4.7-.7 9.3-2.5 13.9-4" class="b"/><path d="M8.9 80.3c1.9-.4 4-.9 6-.6.9.4 1.9 1.3 2.6 1.8q1.5 1.4 3.5 2c1.2-.6 2.3-1.7 3.5-2.4a12 12 0 0 1 5.2-1.7c2.8-.2 5.8.5 8.6.6q3.4 1 7 1c8.6 0 17.3.6 26 .6q9.1 0 18.2-1.2 10.9 0 21.7-1 4-.3 7.8-1.4 1.8-.8 3.5-1.9h4.3c1.4 2 1.9 4.8 4.3 5.8 2.2 1 4.7.9 7 .8q4.3-.3 8.6-.7 4.9-.6 9.6.1 2.6.7 5.2 1.3 4.3.3 8.6 0c4.5-.7 8.8-2.3 13-3.7" class="b"/><path d="M8.9 78.7c9-2 5.6.2 12 3 1.4-.4 2.5-1.5 3.6-2.2q1.6-1.1 3.4-1.6c2.9-.7 5.9-.1 8.7.2 1.7.1 3.5 1 5.2 1 3.1.4 6.4.2 9.5.3q6.6 0 13 .4 12.7.4 25.2-1.1 12 0 24.3-.4c3.1.1 6.5-.1 9.5.8.8.7 1.7 2 2.6 2.4 2 .6 4.1.2 6 .3q5.7.2 11.4-.1c3.4-.3 6.9-1 10.4-1q3.4.2 7 1 4.2.1 8.6.1c4.8-.2 9.3-2 13.8-3.5" class="b"/><path d="M8.9 77c2.2-.4 4.6-1 6.9-.5l1.7 1.3Q19 79.2 21 80c1-.2 1.9-1 2.6-1.6q1.5-1.3 3.5-2c3-1.1 6.4-.5 9.5-.1 1.4.1 2.9 1 4.3 1q4.3.6 8.7.4l9.5.1c9.6.4 19.2.5 28.7-.8 5.7-.2 11.5.2 17.3 0q6.1-.1 12.2 1.1c1 .3 2.4.8 3.4 1.3q1.2.8 2.6.6h24.3c3.2 0 6.4-.6 9.5-.3 4.3.6 8.7.3 13 .3 4.5 0 8.9-1.7 13-3.2" class="b"/><path d="M8.9 75.3c2.2-.3 6-1.6 7.7 0 1.4 1 2.8 2.3 4.4 3 1-.2 1.9-1 2.6-1.6q1.5-1.3 3.5-2 3.3-1.2 6.9-.6l2.6.4 2.6.9c5.4 1.2 11 .4 16.5.6q11.3.5 22.5 0 4.8-.2 9.6-.8l12.1.3q6.1-.2 12.2.8 2.2.4 4.3 1.1c1 .3 2.3.9 3.5 1H165q4.3 0 8.6-.2c3.3-.4 6.5-1.6 9.6-2.7" class="b"/><path d="M8.9 73.6c2.2-.4 4.6-1 6.9-.7l1.7 1.3q1.5 1.4 3.5 2.3c1 0 1.9-1 2.6-1.5q1.5-1.3 3.5-2.2c2.7-1 5.8-.7 8.6-.3 1.2.3 2.4 1 3.5 1.2 4.8 1.1 9.8.5 14.7.6 7.5 0 15 .3 22.6 0q5.2-.3 10.4-1a265 265 0 0 1 22.5 1.5c3 .4 5.7 2 8.7 1.8q7 .1 13.9-.4 5.2 0 10.4.4h22.5q5.3.1 10.4-.1 4-.8 7.8-2.4" class="b"/><path d="M8.9 71.8c9-1.8 5.5-.6 12 3q1.6-.5 2.7-1.6Q25 71.9 27 71c2.7-1 5.8-.8 8.6-.3a14 14 0 0 0 3.5 1.3c4.8 1.1 9.9.5 14.7.6 8.7 0 17.4.2 26-.4l6.1-.7q5.3.1 10.4.6 5.3.1 10.4 1c2.4.4 4.7 1.3 7 1.7 3.1 0 6.4.3 9.5-.1q3-.7 6.1-1.3 3.5-.4 7 0 5.1.6 10.3 1.4 8.2.1 16.5 0h12.2c2.7 0 5.3-1 7.8-2" class="b"/><path d="M8.9 70c8.9-1.8 5.5-.6 12 3 1-.1 2-1 2.7-1.6a14 14 0 0 1 3.5-2.2q3.8-1.3 7.8-.6 2 1.1 4.3 1.8c5.7 1.1 11.6.3 17.3.4q9.6 0 19.1-.3 3.5-.1 7-.5 2.2-.4 4.3-.2 7.9.4 15.6 1.2c3 .4 5.8 1.4 8.7 2q3.4.2 7 .1 2.6-.6 5.1-1.7 5.1-1.8 10.4-1c5.6.3 11 2 16.5 2.7H178q2.7-.2 5.2-1.4" class="b"/><path d="M8.9 68.2c9-1.8 5.4-.7 12 3.1 1.4-.3 2.5-1.6 3.6-2.3 2.3-2 5.6-2.8 8.6-2.5 1.3-.1 2.4.9 3.5 1.3q2 .9 4.3 1.2 5.3.5 10.5.2l12-.1a229 229 0 0 0 20-1.1q2.2 0 4.4.2c4.9.4 9.9.6 14.7 1.5q3.5.9 7 1.6 3 .3 6-.1c3.2-1.2 6.2-3.2 9.6-4 4-1 8.2-.2 12.1.7 4.6 1 9.2 2.4 13.9 3.2q3.3.5 7 .3h19c2 0 4.2.2 6-.7" class="b"/><path d="M8.9 66.4c9-1.8 5.4-.9 12 3.2q1.6-.5 2.7-1.7 1.5-1.5 3.5-2.4 2.9-1.2 6-1c1.5.4 2.9 1.5 4.4 2 3 1 6.3 1 9.5 1q12-.1 24.3-.5 5.6-.2 11.3-.9c8 .7 16.3 1.1 24.2 3.3 2.3.4 4.9.6 7-.4 3.4-1.7 6.7-3.8 10.4-4.7 4-1 8.2-.2 12.1.6 5.5 1.2 11 3.1 16.5 4.2 4.3.9 8.7.5 13 .6h17.4" class="b"/><path d="M8.9 64.6c9-1.9 5.5-1 12 3.2 1.5-.1 2.5-1.5 3.6-2.4q1.9-1.6 4.3-2.5c5-1.3 4.5.5 8.7 1.8C41 66 45 66 48.7 65.8c9.9-.3 19.7-.2 29.5-1.1 2.9-.5 5.8 0 8.7.2L98.2 66l6 1.3q3 .9 6.1.3c2.1-.7 4-2 6-3q4.2-2.4 8.7-3.1c4.4-.7 8.8.3 13 1.3 5.5 1.4 11 3.1 16.5 4.3 4 .9 8.1.7 12.2.7H183" class="b"/><path d="M8.9 62.8c9-1.9 5.5-1.4 12 3.3 1.5 0 2.6-1.6 3.6-2.4 2-2 4.9-3.4 7.8-3.3 5 3.6 11.3 3.8 17.3 3.7l16.5-.5q7-.3 13.9-1 8.2.8 16.4 1.8c3.2.4 6.4 1.4 9.6 1.8 3.2 0 5.9-2 8.6-3.4a27 27 0 0 1 20-2.9c8.4 1.8 16.6 4.8 25.1 6 3.2.5 6.4 0 9.6 0q6.9.5 13.8.3" class="b"/><path d="M8.9 61c2.2-.4 4.6-1.2 6.9-1.1 1.8 1.2 3.3 3.2 5.2 4.4h.9c3.3-2.6 4.7-5.5 9.5-6 6.2 3.9 11 4.2 18.2 4a737 737 0 0 0 25.2-1.1c1.3 0 3-.5 4.3-.3q8.3.7 16.5 1.9 4.4.8 8.7 1.6a13 13 0 0 0 6.9-2.4q4-2.4 8.7-4c1.9-.4 4-1 6-.6q4 .7 7.8.6c1.5-.2 3 .3 4.4.6l5.2 1.5c5.4 1.4 10.9 3 16.5 3.9 4 .8 8 0 12 0q2.7.1 5.3.5h6" class="b"/><path d="M8.9 59.2c2.2-.5 4.6-1.2 6.9-1.2 2 1.1 3.3 3.3 5.2 4.5h.9c2.6-1.8 4.4-5 7.8-5.8 1.5-.7 3 .9 4.3 1.4q2.5 1.2 5.2 1.8c4.3.9 8.7.7 13 .6q8.7-.2 17.3-.8 3.5-.1 7-.6 3.4.3 7 .7 9 .8 18.1 2.7c3.9.8 7.2-1.8 10.4-3.5a34 34 0 0 1 8.7-3.4c2.3-.6 4.6.6 7 .8q4.7.5 9.5.1c2.6.4 5.2 1.5 7.8 2.1a188 188 0 0 0 19 4c3.5 0 7-.6 10.5-.7q2.2-.1 4.3.4 2.2.6 4.4.4" class="b"/><path d="M8.9 57.4q3.4-1 6.9-1.3c1 .3 1.9 1.4 2.6 2.1 1 1 2 2.6 3.5 2.7 2-1.2 3.3-3.6 5.2-4.9 2.9-2 3.2-1.6 6 0q3 1.4 6.1 2.1c4.3.9 8.7.7 13 .6a432 432 0 0 0 23.4-1.4l7 .8q7.4.8 14.7 2 2.2.5 4.3.8 1.8-.1 3.5-.6c1.8-.6 3.5-2 5.2-2.8 3-1.5 6.2-3.2 9.6-3.8 1-.3 2.4.3 3.4.6q2.2.6 4.4.9 5.6.5 11.2 0 1.4 0 2.6.5a155 155 0 0 0 15.7 4c3.7.7 7.5 1.5 11.2.9l7.8-.9c2.3-.1 4.8-.4 7 .5" class="b"/><path d="m8.9 55.7 4.3-1c1-.2 2.4-.6 3.5-.3l2.6 2.8c.6.7 1.5 1.9 2.6 2 1.4-.7 2.4-2.3 3.4-3.4 1.2-1.3 2.7-2.6 4.4-3.1 3.4 1.4 6.7 3.2 10.4 3.8 7.4 1.1 15 .3 22.5 0q5.3-.2 10.4-.7c2-.4 4.1.2 6.1.4q7.5.8 14.7 1.8l6.1 1.1q2.2 0 4.4-.7c1.5-.4 2.9-1.7 4.3-2.4 3-1.6 6.2-3.4 9.5-4 1.2-.4 2.4.2 3.5.6l3.5 1q5.6 1 11.2.5l4.4-.3q1.3.1 2.6.7l4.3 1.2a144 144 0 0 0 17.4 3.4q2.6-.1 5.2-.5 6.5-.9 13-1.6" class="b"/><path d="M8.9 54c2.5-.6 5.1-1.5 7.7-1.5 2 1.4 3 4 5.2 5 3-1.5 4.2-6 7.8-6.5 3.7 1.5 7.4 3.3 11.3 3.8 7.5 1 15 .2 22.6-.1q5.2-.3 10.4-.9l6 .9q6.7.7 13 1.7 3 .6 6.1 1 3.2-.2 6.1-1.6c2-1.6 4.6-2.8 7-4 2.4-1.1 5.1-2.5 7.7-1 5 2 10.4 2.2 15.6 2l4.4-.1c1 0 2.4-.3 3.5 0a101 101 0 0 0 21.6 4.6q2.2-.1 4.4-.4 7-.7 13.8-2" class="b"/><path d="M8.9 52.3c2.5-.6 5.1-1.5 7.7-1.6 2.2 1.2 3 4 5.2 5 1.6-.3 2.5-2.1 3.5-3.2 1.1-1.3 2.5-3.2 4.4-3.3l1.7.7q3.8 1.6 7.8 2.7c4.2 1 8.7.9 13 .8a304 304 0 0 0 19-1.1q2.3-.3 4.4.2l5.2.7q5.7.7 11.3 1.5l5.2.9c2.7-.1 5.6-.6 7.8-2q2.3-2.1 5.2-3.3c2-1 4.6-2.6 7-1.8 8 4 17.3 3.1 26 2.9q10.6 3.1 21.6 4.1 9.2-.8 18.2-2.4" class="b"/><path d="m8.9 50.6 5.1-1.2c1.1-.2 2.5-.5 3.5 0C19 50.7 20 53 22 54c1 0 2-1.2 2.6-2 1.4-1.7 2.8-4.2 5.2-4.6 3.7 1.3 7.3 3 11.2 3.7 7.8 1 15.7.2 23.4-.1l7.8-.6 8.7 1.2 11.3 1.6c2 .3 4 1 6 .5 2.9-.3 6-1 7.9-3.5 2.6-1.5 5.5-3.3 8.6-3.6 1.2 0 2.4.8 3.5 1.3q5 2 10.4 2.2 7.8.4 15.6.1a90 90 0 0 0 13.9 2.9l6 .6a416 416 0 0 0 19.1-2.4" class="b"/><path d="M8.9 49c2.8-.6 5.7-1.8 8.6-1.4 1.6 1.3 2.5 3.7 4.4 4.7l.8-.1c2.5-2 3.8-5.5 7-6.7 3.5 1 6.8 2.8 10.4 3.4 7.7 1.5 15.6.6 23.4.2q3.9-.2 7.8-.5 4.3.8 8.7 1.3l11.2 1.6q2.2.5 4.4.6l2.6-.2c2.5-.4 5.2-1.1 7-3.1.6-1.3 2.2-1.9 3.4-2.5 1.6-.8 3.4-1.6 5.2-1.5 1.5.3 2.9 1.5 4.3 2q3.3 1.3 7 1.7c6.3.7 12.7.4 19 .5q1.8.2 3.5.8l6 1.1c3.8.5 7.6 1.4 11.3 1q9.1-1 18.3-2.3" class="b"/><path d="M8.9 47.5c2.6-.6 7-2.4 9.5-1 1 1.4 2 3.2 3.5 4h.8c2.8-2 4.1-6.2 7.8-6.8 3.7 1.3 7.4 3 11.3 3.6 7.5 1 15 .2 22.6-.1l5.1-.3q3.5.4 7 1l12.1 1.6c2.6.4 5.2 1.2 7.8.7 3.2-.3 7-1 8.7-4 .5-1 1.7-1.7 2.6-2a10 10 0 0 1 5.2-1.1q1.8.8 3.5 1.9 2.8 1.3 6 1.7c5.2.9 10.4.9 15.6 1 3.5 0 7-.1 10.5.8q6.8 1.4 13.8 1.7 10.5-.9 20.8-2.4" class="b"/><path d="M8.9 46c3-.6 6.4-2.2 9.5-1 1.1 1.2 2 3 3.5 3.8h.8c2.6-1.7 4-5.3 7-6.5 1.5-.8 2.9 0 4.3.6q2.6 1 5.2 1.8 5.2 1.4 10.4 1.2 7-.1 13.9-.5l5.2-.3 5.2.8q6.5 1 13 1.8l6 1q2.7 0 5.3-.5c7.2-1.3 5.2-4.6 8.7-6.3q2.5-.9 5.2-.4c1.3.8 2.8 2 4.3 2.5 3.3 1.3 7 1.6 10.4 1.9 5.8.4 11.6.3 17.3.6 2 0 4.1.7 6.1 1l8.7.9c3.4.4 7-.4 10.4-.6q7-.7 13.9-1.7" class="b"/><path d="M8.9 44.4c3-.5 7.7-2.4 10.4-.1.8 1 1.8 2.9 3.4 2.8 2.1-1.2 3.3-3.8 5.2-5.3q1.9-1.5 4.4-1.7 2.2.6 4.3 1.6 4.6 1.7 9.5 2c5 .4 9.9 0 14.8-.2l6-.2 3.5.5c5.8 1 11.6 1.5 17.4 2.5 2.2.4 4.6.9 7 .5 2.2-.2 4.8-.5 6.9-1.6 1-.6 2-1.9 2.6-3 .2-.6.9-2.2 1.7-2.6h4.3c1 .3 1.9 1.2 2.6 1.7a14 14 0 0 0 4.4 2c5.9 1.3 12.1 1.3 18.2 1.6q4.8 0 9.5.2 7.4 1 14.7 1.7c3.2.1 6.4-.5 9.6-.8l13.9-1.6" class="b"/><path d="M8.9 42.8c3-.5 7.5-1.9 10.4 0 1 1 2 2.7 3.4 2.6 2.2-1 3.3-3.7 5.2-5 1.7-1.4 4-1.9 6.1-1.9q1.8.5 3.5 1.2 4.2 1.5 8.6 2 7 .3 14-.1 2.5-.1 5.1-.1l4.3.6L86 44.4c2 .3 4.1.9 6.1.8 2.9-.2 6-.2 8.7-1.5 2.3-1 3-3.9 4.3-5.8h4.4c3.7 4.3 9.5 4.6 14.7 5q9 .6 18.2.6 3.9.1 7.8.7l10.4.9q11.2-.8 22.6-2.4" class="b"/><path d="M8.9 41.2c3-.6 6.4-1.2 9.5-.1q1.4.8 2.6 2c2.2 1.7 3.8-1.3 5.2-2.7a10 10 0 0 1 5.2-3.1q3-.4 6 0a32 32 0 0 0 7.9 2c4 .6 8 .4 12.1.3 2.3 0 4.7-.2 7 .2l19 2.6q3.5.6 7 1 3 .1 6-.3c5-.5 6.4-2.3 7.8-6.9h3.5c1.1.9 2.1 2.3 3.5 3 3.2 1.5 6.9 1.7 10.4 2 6.9.7 13.9.6 20.8.8 6.3.2 12.7 1.1 19 1.3q11-.6 21.7-2.2" class="b"/><path d="M8.9 39.6c3-.7 6.5-1.1 9.5.2q1.4.8 2.6 1.8c2.2 1.3 3.8-1.5 5.2-2.8 1.6-1.6 3.7-3 6-3.1 5.3-.4 10.5 1.2 15.7 1.7q4.3.2 8.6.2 4 .2 7.8.7 10.5 1.2 20.9 2.8c2.5.5 5.2 1 7.8.6q3.5-.1 6.9-1 1.6-1 2.6-2.6c.2-.9 1-3.2 1.7-3.7h1.7c1 .6 1.7 2.2 2.6 3 3 2 7 2 10.5 2.3 7.2.8 14.4.6 21.6.7s14.5 1 21.7 1.1q10.6-.5 20.8-2" class="b"/><path d="M8.9 38q3-.7 6-.6 2.3.3 4.4 1.5c2 1.4 3.3 2 5.2 0 2.5-3 5.5-5 9.5-4.7 4.4.1 8.7 1.2 13 1.5 7.2.3 14.5.5 21.7 1.5q7 .7 13.9 1.9c3.1.4 6.3 1.2 9.5 1 2.9-.3 6 0 8.7-1.5 1.2-1.2 3-2.1 4.3-3.2h.9c1.1 1.7 3.3 2.1 5.2 2.3l6 .6c7.8.7 15.7.4 23.5.6 7.8 0 15.6.7 23.4.9q9.5-.4 19-1.7" class="b"/><path d="M8.9 36.4c3-.5 6.6-1.3 9.5.5 1.3.7 2.7 1.8 4.3 1.5 1.3-.7 2.4-2.1 3.5-3q2.3-2 5.2-2.6c3.2-.4 6.4.3 9.5.8 9 1.3 18 .6 27 1.8q6.8.8 13.8 1.9 3.4.6 7 1 2.5.1 5.1 0 6.2-.1 12.2-2c3 .5 6.4.3 9.5.6 3.5 0 7 .5 10.4.4q14.8-.2 29.5.4 5.6.2 11.3.4 8.3-.4 16.5-1.4" class="b"/><path d="M8.9 34.7c10.8-2 8.6 2.1 13.8 2 1.9-1.3 3.2-3.4 5.2-4.3 5.2-2.6 11-.2 16.5.1 4.3.5 8.7.4 13 .6q6.5.2 13 1c5.8.6 11.6 1.7 17.4 2.5q5.2.2 10.4-.1l10.4-.9q6.5-.2 13 .2h27.8q10 0 19.9.6 7-.3 13.9-1" class="b"/><path d="M8.9 33.1c11-2 8.8 2 13.8 1.8 1.9-1.1 3.2-3.4 5.2-4.3 2.7-1.3 5.8-1 8.7-.6q4.4.7 8.7 1.1 6.5.4 13 .4 7.4.2 14.7 1.2c5 .5 9.8 1.6 14.8 2.2q6.9.2 13.8-.1 4.8-.1 9.6-.6 4.8-.1 9.5.1l33-.3c9.8 0 19.6 1.2 29.4 0" class="b"/><path d="M8.9 31.5c5-.8 7.6-1.1 12 1.6 1.7.4 2.6 0 3.6-1.3 1-1 2.1-2.3 3.4-2.9 2.7-1.2 5.9-.9 8.7-.5q4.8.8 9.5 1.2c8.7.4 17.4 0 26 1.2q7.5 1 14.8 2.3c4 .3 8.1 0 12.1 0h7.8q4-.4 7.8-.4 6.6.2 13-.1 12.2-.1 24.3-.4 10.6 0 20.8.3c3.5.1 7 .6 10.5.2" class="b"/><path d="M8.9 29.9c3-.5 6.5-1.1 9.5.1 1.4.6 2.8 1.7 4.3 1.5 1.1-.2 2-1.5 2.6-2.2 1.7-2 4.4-3 7-2.9 3.2.1 6.4.9 9.5 1.3q5.2.5 10.4.5 8.7-.1 17.4.6 7.8.8 15.6 2.3 3.8.6 7.8.4h11.2c4.4 0 8.7-.4 13-.3q4 0 7.8-.2l11.3-.1a488 488 0 0 1 46.8.2" class="b"/><path d="M8.9 28.3C20.3 26 19 30.6 23.5 29.6c3.3-3.5 4.3-5.1 9.5-4.8 3.5.3 7 1.2 10.4 1.5q5.7.4 11.3.3 8.7-.2 17.3.7c5 .5 9.9 1.6 14.8 2.3 6.3.4 12.7 0 19 .2q17.4-.2 34.8-.8 12.1-.5 24.2-.5c6.1 0 12.2-.2 18.2.4" class="b"/><path d="M8.9 26.7q3-.6 6-.7 2.3 0 4.4.9c1.7.8 3.5 1.8 5.2.4 2.2-3.2 4.7-4.5 8.6-4.1 3.5.3 7 1.2 10.4 1.5q6 .5 12.2.2 8.2-.1 16.5.6c4.6.5 9.2 1.5 13.8 2 7 .7 14 .4 20.8.3 8.7-.2 17.4.1 26-.2q15.7-1 31.3-1c6.3-.1 12.7-.5 19 0" class="b"/><path d="M8.9 25q3-.4 6-.6 2.2 0 4.4.8c1.7.7 3.4 1.7 5.2.4.9-.7 1.7-2 2.6-2.7 1.6-1.3 4-1.6 6-1.4 3.5.3 7 1.2 10.4 1.6q5.7.3 11.3.2 8.7-.4 17.3.3c4.7.4 9.3 1.5 14 2 7.1.8 14.4.3 21.6.2l8.7.1h6c3.2 0 6.4.3 9.6 0q15-.9 30.3-1.3c7 0 14-.6 20.8 0" class="b"/><path d="M8.9 23.5q3-.5 6-.7 2.7 0 5.2 1c1.4.6 3 1.1 4.4.1 3.5-3.3 4.3-4.6 9.5-4 3.5.4 7 1.4 10.4 1.6q5.6.4 11.3 0 9.1-.3 18.2.4c4.3.4 8.6 1.6 13 2 7.5.6 15 0 22.5-.2l7 .3h5.2c3.4 0 7 .6 10.4.3q14.2-1.1 28.6-1.5c7.5-.3 15-.8 22.6-.3" class="b"/><path d="M8.9 22q3-.6 6-.8 2.7 0 5.2.9c2.1.9 3.5 1 5.2-.6 2.5-3 4.8-4 8.7-3.4 3.7.5 7.5 1.6 11.3 1.8 4.3.4 8.7 0 13-.1q8.7-.5 17.3.3 2.6.4 5.2 1 3.5.6 7 .8c8.6.7 17.3-.6 26 0 2.8.2 5.8 0 8.6.2 3.8.3 7.6.8 11.3.3q13-1.1 26-1.4l13-.7 10.5.3" class="b"/><path d="M8.9 20.5c2.8-.3 5.7-1.2 8.6-.8q1.8.4 3.5 1 1.8.7 3.5-.2c.9-.5 1.9-1.6 2.6-2.4a8 8 0 0 1 6-1.8c3.2.3 6.4 1.2 9.6 1.7q4.7.7 9.5.4c7.2-.3 14.5-1 21.7-.5 2 0 4 .7 6 1.1q4 .7 7.9 1c7.2.4 14.4-.2 21.6-.3 2.3 0 4.7.4 7 .3 4.3 0 8.7.6 13 .9 3.4 0 7-.6 10.4-.9q10.5-.6 20.8-1l11.3-.6 11.2.2" class="b"/><path d="M8.9 19c2.8-.3 5.7-1.2 8.6-.9 2.3.1 4.8 2 7 .8 1.3-.8 2.4-2.3 3.4-3.3a9 9 0 0 1 5.2-1c3 .2 5.8 1 8.7 1.5q4.3.8 8.7.7c7.5-.2 15-1.2 22.5-1 2 0 4.1.8 6 1.1q4 .9 7.9 1c7.5.6 15 0 22.5-.2q4.4.2 8.7.4c4 .1 8.1.8 12.2 1 4-.2 8-.9 12-1.1q10-.4 20-.9l8.7-.5 12.1.2" class="b"/></svg>