<svg xmlns="http://www.w3.org/2000/svg" id="a" width="1920" height="2400" viewBox="0 0 192 240"><defs><style>.b{fill:none;stroke:#fff;stroke-miterlimit:10;stroke-width:.3px}</style></defs><path d="M0 0h192v240H0z" style="stroke-width:0"/><path d="M9.1 222.6q21.2.2 42.4.5c8.3.3 16.7.8 25-.1q5.7-.6 11.3-.4c3.2.1 6.7 0 9.5-1.7 1.3-.9 2.3-2.5 3.5-3.6h8.6c2.5.3 4.3 2.5 6 4 1.5 1.4 3.2 2.9 5.2 3.3l2.6-.8c3.1-.8 6.4-.7 9.5-.6l10.4.3q13 .2 26 .7 6.9-.2 13.8-.5" class="b"/><path d="M9.1 220.8q20.7.2 41.5.6c8 .2 16.2.8 24.2 0q5.6-.6 11.3-.6c3.4.1 7.3.2 10.3-1.7 1.3-.8 2.4-2.3 3.5-3.4 2.2-.4 4.6-.1 7-.2 2.6-.2 4.2.7 6 2.6 1.8 1.7 3.5 4 6 4.7.8 0 1.8-.5 2.6-.7 3.6-1.1 7.5-.8 11.2-.6l10.4.3 23.4.7 16.4-.6" class="b"/><path d="M9.1 219q20.7.3 41.5.7c7.5.1 15 .8 22.5 0 4-.1 8-.7 12.1-.6 5.9.1 10 0 13.8-5 2-.6 4.1-.2 6-.3 2.7 0 4.2-.2 6.1 1.7 2 1.8 3.6 4.4 6 5.5 1 .2 2-.3 2.7-.6 3.8-1.4 8-1 12-.8l13 .6q9.2.4 18.2.5 10-.3 20-.7" class="b"/><path d="M9.1 217.3c13.5 0 27.1.5 40.6.6 5.8.1 11.6.6 17.3.4q7.5-.2 14.7-1c3.5-.2 7 .3 10.4-.6a10 10 0 0 0 4.3-2.4c.8-.7 1.6-2 2.6-2.2h8.7c3.6 1.4 5 6 8.6 7.3 1.5-.3 2.9-1.2 4.3-1.4 2.9-.7 5.8-.5 8.7-.3l15.6.9q7.3.3 14.7.4 11.6-.5 23.3-.8" class="b"/><path d="M9.1 215.6c12.7 0 25.4.5 38 .6 6 0 12.2.5 18.2.4q8.7-.2 17.3-1c4-.2 8.6.2 12.1-2.2 1.2-.8 2.2-2.3 3.5-3h6c2.4-.2 3.5-.1 5.2 1.8 2 1.8 3.4 4.8 6 5.5 5-2.6 8.6-2.3 13.9-1.8q7.3.7 14.7 1c13 .8 26-.4 39-.5" class="b"/><path d="M9.1 213.8q13.5.1 26.8.5 11.7 0 23.4.5c7.2.3 14.4-.3 21.6-.9 7-.6 11.1.6 16.4-5.1 2.3-.4 4.7-.1 7-.2 2.5-.3 3.6 1 5.1 2.8 1.5 1.5 2.9 4.2 5.2 4.5 4.7-2.9 8.6-2.4 13.9-2q7.2.9 14.6 1.3 7.8.5 15.6 0c8-.1 16.1-.6 24.2-.6" class="b"/><path d="M9.1 212.1c13 0 26 .6 39 .6 6 0 12 .5 18 .4 5 0 9.9-.6 14.8-1 2.8-.3 5.8-.1 8.6-.7q3-.7 5.2-2.5c1-.9 2-2.3 3.5-2h6c4-.6 6 7.2 9.5 7.2 2.1-1.2 4.4-2.5 7-2.5 4.6 0 9.2.8 13.8 1.2q7.7.9 15.6.9 8.6-.4 17.2-.6 7.8-.3 15.6-.4" class="b"/><path d="M9.1 210.4q12.6.1 25 .4 11 .1 21.7.4 11.7.5 23.4-.7c4.3-.5 9-.1 13-2 1.5-.8 2.8-2.3 4.2-3.3q3-.2 6 0c2.7-.3 3.7.5 5.3 2.5 1.4 1.5 3 4.6 5.2 4.7q1.7-1 3.4-2 1.7-.7 3.5-.8c5 0 9.8 1 14.7 1.5s9.8 1.2 14.7.8q9-.4 18.1-.6 7.8-.4 15.6-.4" class="b"/><path d="M9.1 208.7c12.4 0 24.8.5 37.2.6 6.3 0 12.7.4 19 .3q7-.1 13.8-.9 4.9-.3 9.6-1 2.2-.6 4.3-2c1-.6 2.1-2 3.4-2.3h6c2-.3 3.3 1 4.4 2.4 1.5 1.7 2.8 4.3 5.2 5 2-1 3.7-2.9 6-3.1 5.2-.5 10.5 1 15.6 1.5 4.8.6 9.8 1.4 14.7 1q9-.5 18.2-.7 8.2-.5 16.4-.4" class="b"/><path d="M9.1 207c11.8 0 23.6.5 35.5.5 6.6 0 13.2.4 19.8.3q11.3-.3 22.5-1.8a15 15 0 0 0 5.2-1.8c1.1-.7 2.3-1.8 3.5-2.4 1.3-.2 3-.1 4.3-.1h3.4c3.3 1.5 4.5 5.9 7.8 7.3 2.4-1 4.3-3 7-3.5 5.2-.1 10.4 1.2 15.5 1.9 4.6.6 9.2 1.5 13.8 1q9.6-.6 19-.8 8.3-.4 16.5-.3" class="b"/><path d="M9.1 205.2q27.2.6 54.5.8 11.7-.1 23.3-2c3-.4 5.5-2 7.8-3.8 1.6-.5 3.5-.1 5.2-.2 1 0 2.5-.2 3.5.3 2.6 1.8 4 5.3 6.9 6.9 1 0 1.9-.7 2.6-1.2q2-1.5 4.3-2.1c2.2-.8 4.6-.3 7 0l9.4 1.6c4.6.8 9.2 1.8 13.9 1.1q9.5-.6 19-.8l7.8-.4h8.6" class="b"/><path d="M9.1 203.5q27.2.6 54.5.7 11.3-.1 22.5-2 2.7-.5 5.2-1.8c1.3-.7 2.6-2.2 4.3-2.2h6c3.5.5 5.1 6.6 8.7 7.3 2.2-1.2 4.3-3 6.9-3.5a19 19 0 0 1 8.6.2l7.8 1.5c4.6.8 9.2 1.9 13.9 1.1q9.5-.7 19-.9 4.3 0 8.6-.4l7.8.1" class="b"/><path d="M9.1 201.8q26.9.6 53.6.7 11.3-.1 22.5-2 2.7-.6 5.2-1.8c1.4-.6 2.8-1.9 4.3-2.2h6c3.3-.2 5.4 6 8.7 7.3.9-.1 1.9-.8 2.6-1.3q1.6-1 3.4-1.7c3-1 6.4-.9 9.6-.8l9.5 2a90 90 0 0 0 9.5 1.5l3.4-.4q9.5-.8 19-1 4.5 0 8.7-.4l7.8.1" class="b"/><path d="M9.1 200q26.9.7 53.6.7 10.9-.2 21.6-2 3.2-.7 6-2c1.7-1 3.3-2.2 5.3-2q3 0 6 .2c3 1.9 4.3 6.2 7.8 7.1 2.8-1.4 5.4-3.3 8.6-3.5q4.8-.3 9.6 0l7.7 1.7q4.4 1 8.7 1.5 2.2-.1 4.3-.4 9.5-.9 19-1l8.7-.4 6.9.1" class="b"/><path d="m9.1 198.4 23.4.3q14.6.2 29.4.2 10.9-.1 21.6-2 3-.7 6-2c1.4-.6 2.8-1.6 4.3-1.9h7c1 .3 1.9 1.4 2.6 2.2 1.5 1.8 3 4 5.1 5 1.3 0 2.4-1 3.5-1.5q2.5-1.3 5.2-1.7c4-.5 8-.2 12.1 0 2.6.2 5.2 1 7.8 1.6q3.8.8 7.8 1.4l4.3-.5q9.5-.9 19-1 7.4-.4 14.7-.3" class="b"/><path d="M9.1 196.7q16.9.4 33.7.4c10.4 0 20.8.4 31.2-.7 4.6-.6 9.4-1.2 13.8-2.9 1.7-.6 3.4-1.7 5.2-2.2h7.8c3 2 4.2 6.1 7.7 7.3 1.5-.5 3-1.5 4.4-2 3.2-1.6 6.9-1.5 10.3-1.5l8.7.3q3.4.7 7 1.6 3.3.8 6.8 1.3l4.4-.6q9.3-.9 19-1c4.6-.1 9.2-.5 13.8-.3" class="b"/><path d="M9.1 195c11 .4 22 .2 32.9.3 10.3 0 20.8.4 31-.7 5-.6 10.1-1.3 14.8-3.2q2.2-1 4.3-1.8 4.4 0 8.7 0c2.7 2.1 4 6.5 7.7 7.3 6.8-3.6 9-3.6 16.5-3.3l8.6.1q3.5.8 7 1.7l6 1.1q2.6-.2 5.2-.6 9-.7 18.1-1c4.4 0 8.7-.5 13-.3" class="b"/><path d="M9.1 193.2c10.4.5 20.8.2 31.1.4 10.4 0 20.8.3 31.2-.7q9.4-.8 18.1-4.4c1.6-.8 3.5-.7 5.2-.7l6 .1c1.7 1.4 2.8 3.7 4.4 5.2 1.8 1.8 2.8 2.7 5.2 1.2q4-2.3 8.6-2.4h15.6c3.2.4 6.3 1.6 9.5 2.2l4.3.7 2.6-.3c6.3-.9 12.7-1 19-1.3 4.3 0 8.7-.4 13-.4" class="b"/><path d="M9.1 191.5c10 .6 20.2.2 30.3.3 10.6 0 21.3.3 32-.8q6-.7 12-2.2c2-.6 4-1.7 6.1-2.3 1.6-.6 3.5-.4 5.2-.4h6c1.7 1.6 2.8 4 4.4 5.5 2 1.8 2.7 2.3 5.2.9a20 20 0 0 1 8.6-2.3q4.3 0 8.7 0h8.6c3.5.5 7 1.7 10.4 2.3l3.5.5 3.4-.3c9.8-1.2 19.6-1 29.4-1.6" class="b"/><path d="M9.1 189.7c9.8.7 19.6.3 29.4.4 11-.1 22 .3 32.9-1q3.4-.4 6.9-1 5.5-.4 10.4-3.2c1.5-.8 3.5-.5 5.1-.5h7c2.3 2.3 3.5 6.2 6.9 7.3 2-.4 4-1.8 6-2.4 4.5-1.4 9.3-.7 13.9-.8 3.4.1 7-.2 10.4 0q6.8 1.6 13.8 2.7c1.4.3 3-.1 4.3-.3l7-.5q9.8-.6 19.8-.7" class="b"/><path d="M9.1 187.9c9.8 1 19.6.4 29.4.4 11.2 0 22.6.3 33.7-1 5.6-1 11.5-1 16.4-4 1.6-1 3.5-.6 5.2-.7h7c1 .8 1.8 2.5 2.6 3.6 1 1.5 2.4 3.2 4.3 3.8 2-.5 4-1.8 6-2.4 4.5-1.4 9.3-.9 13.9-.8l10.3-.3q7.8 1.6 15.6 2.8 2.6.5 5.2 0l6-.4q9.1-.5 18.2-.5" class="b"/><path d="M9.1 186q4.8.5 9.5.8l19.9-.2c11.2-.1 22.6.2 33.7-1.2 5.6-.8 11.4-.8 16.4-3.6 1.6-1 3.5-1 5.2-.9h7c1.2.5 1.8 2.5 2.6 3.5 1 1.6 2.4 3.4 4.3 3.9 2-.5 4-1.8 6-2.4 4.7-1.6 9.8-1 14.7-1 3.5.2 7-.2 10.4-.2a390 390 0 0 0 21.6 3.2l7.8-.5q7.4-.3 14.7-.1" class="b"/><path d="M9.1 184c3.2.4 6.3 1 9.5 1 6.6.2 13.3-.1 19.9-.1 11.5-.2 23.1.1 34.6-1.4 5.6-.5 11.4-1 16.4-3.7 1.8-1 4-.5 6-.6 2 .1 4.2-.3 6.1.2 1.6 2.6 2.8 6.3 6 7.2 2.1-.6 4-1.8 6.1-2.4 4.7-1.7 9.8-1.2 14.7-1.1q4.8 0 9.5-.3c3.2.3 6.4 1 9.5 1.3q9 1.5 18.2 2c5.7 0 11.5-.3 17.3 0" class="b"/><path d="M9.1 182c9.3 2.2 19 1.2 28.5 1.2 11.3-.2 22.6 0 33.8-1.3 5.2-.7 10.6-.6 15.5-2.5 1.4-.5 3-1.4 4.3-1.9q5.3-.1 10.4 0c1.8 2.5 2.6 6.6 6 7.4 2.4-.7 4.6-2.2 7-2.8 6.2-1.8 12.7-.7 19-1l4.3-.2q2.2.2 4.4.6 5.6.8 11.2 1.3 14.6 1.8 29.4 1.6" class="b"/><path d="M9.1 180c9.3 2.5 19 1.5 28.5 1.4 11-.2 22 0 32.9-1.1 5.2-.7 10.5-.7 15.6-2.3q2.6-.8 5.2-2c1.3-.4 2.9-.2 4.3-.3h6c.8.4 1.5 2.1 1.7 2.8.9 1.9 2.1 4.4 4.4 4.7 2-.6 4-2 6-2.7 3.9-1.3 8-1.5 12.1-1.4h7.8l4.3-.2 2.6.4c14 1.8 28.2 3.1 42.4 3" class="b"/><path d="M9.1 178.2c9.6 2.6 19.6 1.6 29.4 1.5 11-.2 22-.1 32.9-1.3 4.8-.6 9.9-.6 14.7-2 2.3-.5 4.5-2 6.9-2.3q2.6-.1 5.2-.1c1.3 0 3-.1 4.3.1 1.2 2.5 1.8 7 5.2 7.4q1.8-.7 3.4-1.6 4.1-2.2 8.7-2.6c3.4-.4 7-.2 10.4-.2 2.5 0 5.2-.3 7.8 0q9.3 1.3 19 2 13 1.1 26 1.2" class="b"/><path d="M9.1 176.2c9.6 2.7 19.6 2 29.4 1.7 10.7-.2 21.4-.2 32-1.1 4.9-.6 9.9-.7 14.7-1.8 2.6-.5 5.1-1.8 7.8-2.3q4.7-.7 9.5-.3c1.2 1.5 1.6 4.4 2.6 6.1 2 2.8 4.8.2 6.9-1q3.2-1.6 7-2.2 5.5-.6 11.2-.4c2.2 0 4.6-.3 6.9.1 6.5 1.2 13.2 1.5 19.9 2q12.9 1.1 25.9 1.2" class="b"/><path d="M9.1 174.3a87 87 0 0 0 26.8 2q13-.3 26-.7 9-.4 18.1-1.4c5.6-.5 10.9-2.6 16.4-3.2 6.3-.8 6.9.7 8.7 6.3l.9.7c1.9 0 2.8 0 4.3-1.3q2.3-2 5.2-2.8c4.1-1.3 8.6-1.2 13-1.3l6 .1q3 .7 6 1c14.1 1.5 28.3 2 42.4 2.7" class="b"/><path d="M9.1 172.4a89 89 0 0 0 27.7 2q12.5-.1 25-.6 9.2-.3 18.2-1.3 7.4-1 14.7-2.3c6.6-1 7.8 0 10.4 6h3.5c1.2-.8 2.2-2.2 3.4-3.1 3-2.2 6.8-2.5 10.4-2.7q4.3-.2 8.6-.1 6.9 1.5 13.9 2c12.6 1 25.4 1.3 38 2.4" class="b"/><path d="M9.1 170.5c4.5 1 9.2 2 13.8 2.2 6 .4 12.2 0 18.2 0q15.6-.3 31.1-1 9.7-.6 19-2c3.7-.2 8.4-1.8 11.3 1.4.8 1 1.5 2.7 2.6 3.5h3.4c3-4.4 3.7-6.2 9.5-6.6q4.4-.4 8.7 0 7.4 1.3 14.7 2c9.5.9 19 1.2 28.5 2q6.5.7 13 1.3" class="b"/><path d="M9.1 168.6c4.3.9 8.6 1.9 13 2.2q7.8.6 15.5.1l26-.6a472 472 0 0 0 19.9-1c4.3-.3 8.6-1.2 13-.9 3.7 0 5.5 1.4 7.7 4.2 1.4.4 3 .2 4.3.2.3-1.5 1-5.6 1.8-6.9 1.2-.9 2.9-.4 4.3-.5q3 0 6 .2 8.6 1.4 17.3 2.3 13 .8 26 1.7c6.3.8 12.6 1.9 19 2.5" class="b"/><path d="M9.1 166.8c4.9.8 9.8 2 14.7 2.3 6.3.5 12.7 0 19 0q17.8-.4 35.5-1 5.2-.1 10.4-.5c3-.3 6.4-.6 9.5.4q1.8.3 3.4 1.4c.8.5 1.7 1.4 2.6 1.7h3.5c.5-1.8 1.4-5.7 1.7-7.5q4.8-.1 9.5.2 9.4 1.7 19 2.4 9.6.4 19 1c8.7 1.2 17.3 2.9 26 3.7" class="b"/><path d="M9.1 165c5.2.6 10.3 2 15.6 2.3 6.3.5 12.7 0 19-.1q18.6-.3 37.2-.7 3.8 0 7.7-.2t7.8.2c2.5.4 4.6 2.2 7 2.9 1-.1 2.4.2 3.4-.4 1.7-1.8 2.3-4.8 3.5-6.9q1.6-.4 3.4-.2h4.3c3.5.5 7 1.4 10.4 1.8 7.2.9 14.4.8 21.6 1.1 3.3 0 6.4.9 9.5 1.5q4.3.9 8.7 1.5 4.8.8 9.5 1.3 2.6-.1 5.2-.5" class="b"/><path d="M9.1 163.1c6 .5 12 2.4 18.2 2.6 5.7.2 11.5-.2 17.2-.3q8.7-.2 17.3-.2l26.9-.2c3.1 0 6.4 0 9.5 1q1.6.6 3.4 1.5 2.2.4 4.3-.2c2.7-1.7 3.5-5.4 6-7.1q4-.2 7.9.1 4.7 1.1 9.5 1.8c6.8.8 13.8.6 20.7.9q5.7 1.4 11.3 2.7 5.6 1 11.2 1.6c1.4.3 3-.1 4.3-.3q3-.4 6-1.2" class="b"/><path d="M9.1 161.3c6.4.2 12.6 2.5 19 2.5q8.3.3 16.4-.2 7.8-.2 15.6 0 13.5-.1 26.8 0c3.2.1 6.4 0 9.5.7 1.8.3 3.5 1.1 5.2 1.5 1.9.2 3.9 0 5.2-1.4 2.3-2 4-4.9 7-6l6.9.1 6.9 1.5q6.4 1 13 1 3.8-.1 7.7.1a84 84 0 0 0 21.6 4.5q6.7-.7 13-2.7" class="b"/><path d="M9.1 159.6c6.4-.2 12.6 2.3 19 2.4q7.8.3 15.6-.2 7.8-.1 15.5 0c9 .2 18 0 26.9.3q5.2.1 10.3 1 2.2.4 4.3 1c2.5 0 5-1.2 7-2.5 2.5-2 5.2-4.6 8.6-5l5.2.1q3.9.9 7.8 1.6c4.5.7 9.2.7 13.8.8h3.5q3.3 1.6 7 2.6 6 1.7 12 2.3 8.9-1 17.3-4" class="b"/><path d="M9.1 157.7c6.4-.5 12.6 2.3 19 2.5 5.2.3 10.4-.1 15.6-.2q6.9-.2 13.8.1 13.9.3 27.7.4 4.8.2 9.5.9c2 .2 4 1.2 6 .8 6-1.1 10.5-6.1 16.5-7q3-.4 6-.1c2.3.3 4.7 1 7 1.2q6.3.9 13 .6h1.7c1 .5 2.3 1.4 3.4 1.9q3.8 1.5 7.8 2.4 3 .8 6 1 3.5 0 7-1 7-1.4 13.8-3.8" class="b"/><path d="M9.1 155.9c4-.6 8.2.5 12.1 1.4q5.2 1 10.4 1.1c5.2.1 10.4-.4 15.6-.3q8.6.2 17.2.6c9 .3 18-.2 26.8.7l7 1.1c3.4 0 6.5-1.9 9.5-3.3 6.4-3.4 13.5-5 20.7-3.4 5.2 1 10.4.7 15.6.7 4.4 4 10.6 5.7 16.4 6q11.5-1.6 22.5-5.7" class="b"/><path d="M9.1 153.9c6.5-1 12.6 2.3 19 2.5 8 .6 16.2-.6 24.2 0q7.8.5 15.6.8l15.5.1q6.1 0 12.2 1.2c3.9.9 7.7-1.5 11.2-3q5.5-2.5 11.2-3.5c5.2-1 10.4-.4 15.6 0l6-.1c1.1 0 2.5-.4 3.5 0 2.7 2.7 5.8 5 9.5 5.9 2.5.7 5.2 1.3 7.8.7a125 125 0 0 0 22.5-6" class="b"/><path d="M9.1 151.7c6.2-1.1 12 2.2 18.2 2.7 7.1.8 14.4-.4 21.6 0 5.7.3 11.5 1 17.3 1.1 5.7.3 11.5 0 17.3.3q5.6 0 11.2 1c4 .8 7.7-1.5 11.2-2.8q5.9-2.6 12.1-3.6c4.6-.8 9.3-.6 13.9-.6h7c1.3 0 3-.2 4.2.2 2.3 2.3 4.7 4.7 7.8 5.8q3 1.1 6 1.3 2.2-.2 4.4-.7 11-2.3 21.6-6.2" class="b"/><path d="M9.1 149.4c4.7-.8 9.4 1 13.8 2.2q4.3 1.2 8.7 1.2c4.6 0 9.2-.5 13.8-.4s9.3.8 13.9 1.1c8.3.8 16.7.4 25 .7q5.7.1 11.3 1 4-.4 7.8-2.2 10.7-4.9 22.4-5h11.3c2 .1 4-.1 6 .2 1.7 1.5 3.2 3.5 5.2 4.7 3 1.8 6.9 3 10.4 2.2a164 164 0 0 0 15.6-4.2c2.8-.9 5.7-2.2 8.6-2.8" class="b"/><path d="M9.1 147c6.3-1 11.4 2.2 17.3 3.3 5.7 1.2 11.5 0 17.3.3 6 .3 12 1.2 18.1 1.5q9.6.6 19 .3 6.7-.1 13 1c3.9.5 7.8-1.7 11.3-3q5.4-2.4 11.2-3.3c4.3-.9 8.7-.8 13-.8H143c2 1 3.3 3.2 5.2 4.4 3.2 2.2 7.4 3.7 11.2 2.4q7.1-1.8 13.9-4c3.1-1 6.2-3 9.5-2.8" class="b"/><path d="M9.1 144.7a26 26 0 0 1 9.5 1c2.6.8 5.1 2 7.8 2.5 5.7 1.1 11.5.4 17.3.8 6.3.2 12.7 1.2 19 1.6q9.5.5 19 .2 6 0 12.1 1c4 .2 7.7-2 11.3-3.4a44 44 0 0 1 10.4-3.1q6-1 12-.7h14.8c2.2-.4 3.5 2 5.1 3q3.1 2.6 7 3.7 1.6.6 3.4.5 3-.7 6-1.6 4.6-1.3 8.7-3 5-2.3 10.4-2.6" class="b"/><path d="M9.1 142.9c3.1 0 6.4-.4 9.5.3 2.4.7 4.6 1.9 7 2.7 3.2 1.2 6.8 1.3 10.3 1.3 7.8-.2 15.6.8 23.4 1.5q9.9.8 19.9.5 4.7 0 9.5.3c2.2.1 4.6.8 6.9.5 6-1 11.2-5.1 17.3-6.3 4.2-1 8.6-.8 13-.8H144a12 12 0 0 1 2.6 1.8q2.5 2 5.2 3.4c2.1 1 4.5 2 6.9 2q4-.8 7.8-2.3c5.3-2 10.7-4.1 16.4-4.8" class="b"/><path d="M9.1 141.1h6q1.9-.2 3.5.4a28 28 0 0 0 17.3 4.1c7.5-.2 15 .6 22.5 1.4q9.9.9 19.9.6 5.2-.3 10.4.2c2.5.2 5.2 1 7.7.3 5.8-1.3 10.6-5.3 16.5-6.5 3.6-.8 7.5-.4 11.2-.5h17.3c1.8-.1 3.6.9 5.2 1.8q3 1.8 6 3.3c6.3 2.9 7.5 2.9 13.9.4 5.4-1.9 10.7-4.3 16.4-5.3" class="b"/><path d="M9.1 139.4h7c2.3.8 4.4 2.5 6.8 3.2 4.7 1.6 9.8 1.4 14.7 1.4 7-.2 13.9.7 20.8 1.3q9.5.9 19 .7 5.6-.2 11.2.1l5.2.6q2.7-.2 5.2-1.2c4.7-1.8 8.8-5.1 13.9-6 4.2-.3 8.6 0 13-.1q7.3-.2 14.6.1c5.8 1.3 10.9 4.6 16.5 6.3 4.6 1.6 6.7 1 11.2-.7 4.9-1.7 9.6-4.2 14.7-5.3" class="b"/><path d="M9.1 137.7h5.2c1.5.3 3 1.4 4.3 2q2.5 1.3 5.2 1.9c6 1.3 12.1.5 18.2.7 5.4.1 11 .8 16.4 1.3q8.6.8 17.3.7 6-.1 12 0l6.1.6q2.8-.3 5.2-1.2c4.7-1.8 8.9-4.9 13.9-5.6 4.5-.7 9.2-.4 13.8-.4s9.3-.3 13.9.8c5 1 9.8 2.8 14.7 4.4q4 1.7 8.6 2.2 2.2-.1 4.3-.8c5-1.6 9.7-4.5 14.7-6" class="b"/><path d="M9.1 136c1.7 0 3.7-.4 5.2.5q4 2.6 8.6 3.5c6.6 1.3 13.3.4 20 .7 10 .4 20 2 30.2 1.9 4.6 0 9.2-.3 13.8 0 2.3 0 4.7.5 7 .6q2.2-.3 4.3-1c4.9-1.6 9.4-4.7 14.7-5.3q6-.7 12-.6 8.4 0 16.5 1.3 7.5 1.2 14.7 3.3c3.7 1 7.4 2.5 11.3 2.5 5.6-.5 10.4-4.1 15.5-6.2" class="b"/><path d="M9.1 134.2q1.3 0 2.6.2l2.6 1.3q2.5 1.4 5.2 2.2c7.6 2 15.6.8 23.3 1 9.3.4 18.5 1.8 27.7 1.9 5.2.1 10.4-.2 15.6 0q3 .1 6 .5 2.2.3 4.3-.3c5.6-1.4 10.6-4.8 16.5-5.4q6-.6 12-.2a208 208 0 0 1 31.2 3.2q5.7 1.4 11.2 2.8c5.7 1.3 10.9-2.2 15.6-4.8" class="b"/><path d="M9.1 132.5c1.2 0 2.4.8 3.5 1.3q2 1.2 4.3 2c8 2.7 16.7 1.2 25 1.5 8.7.1 17.3 1.3 26 1.6 5.7.3 11.5 0 17.3.1 2.9 0 5.8.6 8.6.7 5.2-.5 9.8-3.3 14.7-4.6 5.1-1.4 10.4-1.1 15.6-.8l13.8.7c7.8.5 15.7.8 23.4 2.3 9.1 1.8 12.7 5.1 21.6-.8" class="b"/><path d="M9.1 131.1c3 1.6 6.1 3.3 9.5 3.9 8 1.6 16.2.3 24.2.6S59 136.7 67 137c7.2.4 14.5-.1 21.7.5q2.5.2 5.1.5c4-.4 7.6-2 11.3-3.4 5.5-2 11.5-2.1 17.3-1.7 10.3.9 20.7 1 31.1 1.4q6.5.3 13 1.6c5.7 1.2 10.7 4 16.4.7" class="b"/><path d="M9.1 130.2c7.3 4.3 16 4 24.2 3.8q10.5-.4 20.8.4 7.7.6 15.5.9h13.9q4.7.3 9.5 1c4.8 0 9.3-2.5 13.8-3.8 6.2-1.8 12.7-1.2 19-.7q9 .6 18.2.7c7.8.2 15.6 0 23.3 1.1q3.5.6 7 1.7c2.7.9 5.7 1.7 8.6.9" class="b"/><path d="M9.1 129.2c7.4 3.9 16 3.3 24.2 3q11.3-.4 22.5.5c9.2.7 18.4.7 27.7.8q5.2.3 10.3 1a33 33 0 0 0 7-1.5c11.4-4.5 17.6-3.2 29.4-2.5q8.6.6 17.3.5c7.4 0 15-.3 22.4.7q3.5.5 7 1.6c1.9.6 4 1.4 6 1.5" class="b"/><path d="M9.1 128.1c7.9 3.5 16.7 2.5 25 2.3 8.7-.3 17.4.2 26 .7 8 .5 16.2.2 24.2.6 12.2 1 8.3 2.3 20.8-1.8a50 50 0 0 1 19.9-1.3q8.2.6 16.4.8c9.2.1 18.5-.4 27.7.2q4 .2 7.7 1 3 1 6.1 1.9" class="b"/><path d="M9.1 127c8.6 3 17.9 1.7 26.8 1.6 10.1-.3 20.2.4 30.3.7 8.6.2 17.4-.2 26 1.5q3 .6 6-.4 4.7-1.4 9.5-2.8c6.2-1.5 12.7-1 19-.5q8.6.6 17.3.6h21.6q5.7-.2 11.2.7c2 .3 4 1.2 6 1.6" class="b"/><path d="M9.1 125.6c5.3 1.6 11 1.6 16.4 1.5l14.7-.3q11.2 0 22.5.4 8.7 0 17.3.2 4.8.3 9.5 1.1c2 .3 4 1 6 .8q4.5-.8 8.7-2.3a51 51 0 0 1 20.8-1.7q8.6.6 17.3.8l22.4-.1q6-.1 12.1.4l6 1.4" class="b"/><path d="M9.1 124c10.2 2.4 20.8.8 31.1 1q12.1-.2 24.2.1c6.4.2 12.8-.3 19 .6 4.1.4 8.1 1.6 12.2 2a46 46 0 0 0 6.9-1.8q6.3-2.1 13-2.6c8.3-.2 16.7 1 25 1q12.2.3 24.2.1 5.7 0 11.3.2 3.4.8 7 1.2" class="b"/><path d="M9.1 122.5a77 77 0 0 0 17.3.9l15.6-.3 22.4-.1c5.8 0 11.6-.6 17.3.4q6.6 1 13 2.4c2.3.3 4.7-.7 7-1.2 4.1-1.3 8.4-2.6 12.9-2.9 8.6-.5 17.3 1 26 1q12.5.4 25 .2h9.5c2.6.3 5.2 1 7.8 1.1" class="b"/><path d="M9.1 120.8c6 1 12.1.8 18.2.7l17.2-.4q10 0 20-.3l7.7-.3q3-.3 6 .3 5.7.9 11.3 2.1c2.3.5 4.6 1.3 7 1.3q2.1-.3 4.2-1c4.3-1.2 8.6-2.7 13-3 9-.8 17.9.8 26.8 1q11.7.4 23.4.4l10.4-.1c2.8.1 5.7.6 8.6.7" class="b"/><path d="M9.1 119c6.9 1 13.8.6 20.8.5l24.2-.6q6.4-.2 13-.7l6-.4q1.7.2 3.4.6 6.6 1.1 13 2.6 3.4 1 7 1.5 2.5-.3 5.1-1.1c4-1.2 8-2.5 12.1-3 8.7-.7 17.3 1 26 1.2a466 466 0 0 0 34.6.6q4.2.2 8.6.3" class="b"/><path d="M9.1 117c6.9.9 13.8.6 20.8.5q12-.2 24.2-.8 6-.3 12-1l5.3-.5 3.4.7q7.5 1.4 14.7 3.2c6.7 1.7 7 2.4 13.9.2 3.6-1.1 7.4-2.3 11.2-2.6 8-.6 16.2 1 24.2 1.4q12 1 24.2 1l20-.2" class="b"/><path d="M9.1 114.8c6.6.9 13.3.7 19.9.6q11.7-.1 23.3-.8 5.7-.4 11.3-1.1l6-.9 2.6.6c5.5 1.3 11 2.3 16.5 3.8 2.8.7 5.7 1.7 8.6 2q3.5-.3 7-1.5c12.6-4.6 20.9-1.7 33.6-.8 15 1.3 30 1.8 45 .7" class="b"/><path d="M9.1 112.5a305.7 305.7 0 0 0 40.6 0q6-.5 12.1-1.4c2.6-.3 5.3-1.2 7.8-.6q9.1 2 18.2 4.3c3.4.8 6.8 2.3 10.4 2.6q3-.4 6-1.4c13.1-4.8 19.8-1.8 32.9-.6a231 231 0 0 0 45.8.6" class="b"/><path d="M9.1 110c6.3 1 12.7.9 19 .8q9.5.1 19-.5 5.3-.3 10.4-1.2 5.2-1 10.4-.8 4.8.6 9.5 2 5.7 1.2 11.3 2.7c3 1 6.2 2.2 9.5 2.6q2.2 0 4.3-.6c3.4-.9 6.8-2.2 10.4-2.8 8.4-1.3 16.7 1.5 25 2a253 253 0 0 0 45 .4" class="b"/><path d="M9.1 107.4q9 1.2 18.2.8c5.7 0 11.5.2 17.2-.2q7-.6 13.9-1.4H67c5.4-.2 10.5 1.7 15.6 2.8l8.7 2.4c2.5.8 5 1.8 7.7 2.1 3.6 0 7-1.4 10.4-2.4 6.2-2 12.8-.8 19 .4q9 1.4 18.2 1.8 4.8-.1 9.5-.4 6-.2 12.1-.1 4.8 0 9.5.5 2.6 0 5.2-.4" class="b"/><path d="M9.1 105.5c3.4-.6 7 0 10.4 0 8-.2 16.1.2 24.2-.1q4.7-.3 9.5-.6h9.5q4.8-.1 9.5.1 3 .4 6 1.3 6.7 1.5 13 3.6c5 1.7 8.5 3.4 13.9 1.7 2.6-.6 5.1-1.6 7.8-2 6-.6 12.1.8 18.1 1.7 4.9.6 9.8 1.1 14.7.5q12.5-1 25.1-.8 3.5.2 7 .6c1.6.2 3.4.7 5.1.4" class="b"/><path d="M9.1 104.3q8.6-.8 17.3-.9c9.2-.6 18.4-.3 27.7-.3H74q10.1 1.9 19.8 5.6c7.8 3 9.8 1.7 17.3.2 4.6-.5 9.3 0 13.9.5 3.7.4 7.5 1 11.2 1q6.9-.8 13.9-1.2c10.9-.8 22-1.2 32.8 1" class="b"/><path d="M9.1 103.1q5.2-.4 10.4-.7 6 0 12-.6c8.7-.9 17.4-.3 26-.5 6.4.1 12.7-.2 19 .2 6.9 1.2 13.5 3.5 20 6q4.6 1.8 9.4 1.2 3-.5 6.1-.8 7-.3 13.8.5c6.4.9 12.7-.6 19-1 12.7-1 25.6-2 38.1.7" class="b"/><path d="M9.1 101.9q6-.7 12.1-.9 7.4-.1 14.7-1c3.4-.6 7-.4 10.4-.4H61c6 .1 12.1-.2 18.1.2 6.3 1 12.3 3.4 18.2 5.8 4.6 2.2 9.8 1.5 14.7 1.1q6-.2 12.1.2c7 .3 13.8-1.3 20.8-1.7q9.5-.6 19-.8c6.4-.1 12.8 0 19 1.5" class="b"/><path d="m9.1 100.5 11.2-.9q8.2 0 16.5-1.3c3.4-.7 6.9-.4 10.4-.4h27.6c2.6 0 5.3-.2 7.8.2 5.5.9 10.6 3.2 15.6 5.4q2.5 1.2 5.1 1.7 3.5.2 7 .1c4-.2 8 0 12-.2q8-.3 15.6-1.4 8.7-.7 17.3-1c9.2-.3 18.6-.9 27.7 1" class="b"/><path d="M9.1 99q5.6-.6 11.2-1 9.2 0 18.2-1.6c3.4-.5 7-.1 10.4-.2h16.4q10.5-.1 20.8 0c4.6.7 8.8 3 13 5q2 1 4.3 1.8 3 .5 6 .5 6 0 12.1-.4 7.8-.5 15.6-1.5 9-.5 18.1-.8c9.2-.1 18.6-1 27.7.9" class="b"/><path d="M9.1 97.5q5.2-.7 10.4-1.1c6-.3 12.2-.4 18.1-1.7 3.7-.6 7.6-.1 11.3-.3h39.8c4.3.2 8.3 2.4 12 4.3 1 .4 1.8 1.3 2.7 1.7q2.8 1 6 1 6 0 12.1-.3c5.5-.2 11-1 16.5-1.5q9-.3 18.1-.6c9 0 18-.8 26.8.7" class="b"/><path d="M9.1 96q5.6-1 11.2-1.5c5.5-.3 11-.3 16.5-1.4q2.5-.6 5.2-.4h51.8a27 27 0 0 1 7 2.1c2.6 5 9 4.4 13.8 4.4 7.8 0 15.6-1 23.3-1.4q11.7-.5 23.4-.6c7.2 0 14.5-.6 21.6.5" class="b"/><path d="M9.1 94.3q5.2-1 10.4-1.6 4.3-.3 8.6-.5 3-.2 6-.6c1.8-.2 3.5-.8 5.3-.6q5.2.3 10.4 0h13l20.7.1q8.2-.3 16.4 0c1.4.9 2 2.9 3.5 3.8 2.7 2 6.3 2 9.5 2.2 7.2.3 14.4-.5 21.6-.8q13.8-.5 27.7-.9c6.9 0 13.8-.4 20.7.4" class="b"/><path d="M9.1 92.7q5.6-1.4 11.2-2c5-.4 9.9-.4 14.7-1.1 3.1.8 6.3 1.7 9.5 1.6 3.8-.1 7.5-1.4 11.3-1.8 3.4-.3 7-.1 10.4-.2q6.4-.1 13 .4 5.6.3 11.2-.4l10.4.1c1 1.2 2 2.8 3.4 3.7 3 2 7 2 10.4 2.2q9 0 18.2-.5l20.7-.5c9.8-.5 19.6-1 29.4-.2" class="b"/><path d="M9.1 90.9q5.1-1.3 10.4-2.2 5.6-.4 11.2-.7c1.2-.3 2.4.2 3.5.6q2.4 1.1 5.2 1.8 4.3 1 8.6.1c3.2-.5 6.3-1.7 9.5-2.2q5.2-.7 10.4-.6c5 0 9.8.8 14.7.7q4-.1 7.8-.8 3.8-.2 7.8 0c1 0 2.4-.3 3.4.3a11 11 0 0 0 7.8 4.8c3.7.7 7.5.5 11.2.5l16.5-.2q9 0 18.1-.4a258 258 0 0 1 27.7-.4" class="b"/><path d="M9.1 89c3.4-.9 6.9-2 10.4-2.4q4.8-.5 9.5-.6c2.4.3 4.6 2 7 2.8 4 1.7 8.6 1.7 12.9.8s8.5-2.4 13-2.8c6.3-.7 12.7.2 19 .3q5.2 0 10.4-1.3h10.3c3.9 4.5 6.4 5 12.1 5.4q7.5.4 14.7.3 12.6 0 25.1-.3 7.4-.3 14.7-.9l14.7.1" class="b"/><path d="M9.1 87q4.2-1.3 8.7-2.3 4.6-.8 9.5-.6c2.4.7 4.6 2.3 6.9 3.3 4.3 2 9.2 2.2 13.8 1.3 5-.8 9.7-2.6 14.7-3 6-.7 12.1 0 18.2 0q5.7-.1 11.2-1.7h9.5c1 .4 1.9 1.7 2.6 2.4A14 14 0 0 0 112 89q8.2.8 16.4.8c9 0 18 .2 26.8-.3q7.5-.4 14.7-1l13 .1" class="b"/><path d="M9.1 85q4.2-1.7 8.7-2.4 3.8-.5 7.7-.2c2.6.5 4.6 2.4 7 3.4 4.2 2.2 9.1 2.6 13.8 2 5-.6 9.7-2.4 14.7-3 5.7-.8 11.5-.5 17.3-.4a46 46 0 0 0 9.5-.7l4.3-1.2c1.7-.3 3.5-.1 5.2-.2 1.7.1 3.6-.2 5.2.3 2.6 3 5.5 4.3 9.5 4.7 6.9.9 13.8 1 20.8 1.1q10.7.3 21.6-.1 8.2-.4 16.4-1.3h12.1" class="b"/><path d="M9.1 82.7c2.5-.9 5.1-1.9 7.8-2 2.5 0 5.2-.3 7.8 0 2.4.9 4.5 2.8 6.9 3.9a25 25 0 0 0 14.7 1.7c5.5-.7 10.9-2.5 16.4-3 6.3-.7 12.7 0 19-.4q5.8-.2 11.3-2.3h9.5c4 4.5 7.3 4.8 13 5.4q8.2.7 16.4 1 13.8.4 27.6-.3 6-.6 12.2-1.3h11.2" class="b"/><path d="M9.1 80.3q3-1.2 6-1.4H23c2.6.8 4.6 2.8 7 4a26 26 0 0 0 15.5 2c5.5-.6 11-2.3 16.4-2.9 6.6-.7 13.3-.2 20-.6q5.8-.3 11.2-2.5h9.5c1 1 2.2 2.3 3.4 3.1 2.9 1.7 6.3 2 9.5 2.4q8.7.8 17.3 1 14.2.7 28.6-.1 5.6-.6 11.2-1.4 5.3-.3 10.4-.2" class="b"/><path d="M9.1 77.8q3-.9 6-.7h6.1c2.9.8 5.1 3.2 7.8 4.5a27 27 0 0 0 15.5 1.8c5.8-.6 11.5-2.3 17.3-2.8 6.6-.7 13.3-.3 20-.8q5.8-.3 11.2-2.5c1.3-.3 2.9-.1 4.3-.2q2.6-.1 5.2.1c1.4 1.6 3 3.4 5.2 4.2 4.1 1.4 8.6 1.6 13 2l13.8.7 10.4-.3c6-.2 12 .6 18.1 0 3.5-.2 7-1 10.4-1.4q4.7-.5 9.5-.4" class="b"/><path d="M9.1 75.5q5.2-.2 10.4 0c2.9.8 5.1 3 7.8 4.4 5 2.7 10.9 2.5 16.4 2 7.5-.9 14.9-3 22.5-3.1 6.3-.4 12.7 0 19-1a29 29 0 0 0 5.2-1.2q1.6-.8 3.4-1.2h6c1.7 0 2.6 0 3.5 1.5q1.8 2.2 4.4 3.2c4.4 1.3 9.2 1.5 13.8 2l7 .3 12-.6q8.3-.2 16.5.1c2.8 0 5.8.7 8.6.5q4.4-.6 8.7-1.4t8.6-.6" class="b"/><path d="M9.1 73.7q3.9-.2 7.8 0c4.1 1 7.2 4.4 11.2 5.7 5 1.6 10.4 1.3 15.6.8 7.5-1 14.9-2.8 22.5-3 6.6-.4 13.3-.1 19.8-1.2 2.7-.3 5.3-1.5 7.8-2.3q2.6 0 5.2.2c1.1.2 2.5.2 3.5.8q1.5 2.8 4.3 4c3.3 1 7 1.2 10.4 1.6l6 .4 7-.5a252 252 0 0 1 32-.2c2.2.1 4.6.7 6.9.7 4.5-.7 9.1-2 13.8-2" class="b"/><path d="M9.1 72c7.6-.6 9.3 2.3 15.6 5.1 4.3 2 9.2 2 13.8 1.8 9-.5 17.8-3 26.8-3.3 6.6-.3 13.3-.2 19.9-1.1q3-.5 6-1.5 1.3-.6 2.6-.8 1.4 0 2.6.6 3 .8 6 2c1 1 2.2 2.2 3.5 2.7 3.6 1.2 7.6 1 11.3 1.5 3.7.1 7.5-.7 11.2-.8q10.5-.7 20.8-.6c7.5.1 15 0 22.5 1.4 3.7-.4 7.4-1.7 11.2-1.8" class="b"/><path d="M9.1 70.3c5 .3 9.2 3.7 13.8 5.4 3.9 1.5 8 1.7 12.1 1.6 9.6 0 19-2.7 28.6-3.2 6.9-.5 13.9-.4 20.7-1.3q3.1-.2 6-1.1c1.2-.4 2.5-1 3.6-.3 3.8 1.5 7.4 3.8 11.2 5.3 6.5 1.5 13.3 0 19.9-.5a221 221 0 0 1 20.7-.5q10.5 0 20.8.3c2.9.1 5.8 1 8.6 1.3q3.9-1 7.8-1.6" class="b"/><path d="M9.1 69.5c4.5 1.3 8.5 4 13 5.1 12.9 3 26-1 38.9-2 9.8-1 19.7-.6 29.4-2.4 1.2-.6 2.4.4 3.4 1l3.5 2c6.4 3.8 7.9 2.6 14.7 2q13-1.6 26-1.4c9.7.3 19.5.1 29.3.3q5.3.2 10.4 1.4l5.2-1.1" class="b"/><path d="M9.1 69.4c4.2 1.7 8.5 3.5 13 4.1 10.6 1.5 21.4-.3 32-2 6.5-.9 13.2-1.1 19.9-1.5l16.4-1c3.7 2.6 8 6.6 13 4.6 2.4-1 5.1-1.1 7.7-1.2q10-.5 20-.5 9.3.3 19 .5l19.8-.2q3.5.1 7 .8l3.4.8 2.6-.6" class="b"/><path d="M9.1 69.4c10 3.7 20.8 3.2 31.1 2.3 7.2-.8 14.4-2.3 21.6-2.8l15.6-.9 7-.2q2.5-.2 5.1.7c2.2 1.8 4.8 4.2 7.8 3.9q2.7-.8 5.2-2c1.3-.4 2.8-1.3 4.3-1.2 6.6.6 13.3.5 19.9.7 10 .6 20.2 1.2 30.3.9 6 0 12-.6 18.1-.3 2.7.1 5.2 1.2 7.8 1.5" class="b"/><path d="M9.1 69q7.3 1.7 14.7 1.6 8.7.3 17.3-.8 5.2-.6 10.4-1.5 7.3-1.1 14.7-1.6 6.4-.4 13-.6c2.8 0 6 .1 8.6 1.4C92 71 93 71.7 98.2 68.9q4-2 8.6-2.8c1.7.1 3.5.7 5.2.8q7.4.7 14.7 1.3a233 233 0 0 0 40.7.6c5.2-.2 10.5-.6 15.5 1" class="b"/><path d="M9.1 68.2q16 1.7 32-.2c3.7-.3 7.5-1.2 11.2-1.7a189 189 0 0 1 17.3-1.7c4-.1 8.2-.5 12.1.1q2.3.5 4.4 1.7c1.8 1.5 3.4 3.5 6 2.3l4.3-2.4c3.2-1.6 6.9-2.1 10.4-2.4q2.2-.1 4.3.5 3 .7 6 1c9.8 1.4 19.6 2.5 29.5 2.4q10.4 0 20.7-.5c5.2-.2 10.5-1 15.6.3" class="b"/><path d="M9.1 67q16 .8 32-.8 6-.8 12.1-2 9-1.2 18.2-1.6c4.9-.2 10-.3 13.8 3.5 1.4 1.6 3.6 1.6 5.2.2 5-4.3 11-4.2 17.3-4q2.6-.2 5.2.5a141 141 0 0 0 26 3.3 521 521 0 0 0 36.2-.9q4-.4 7.8.2" class="b"/><path d="M9.1 65.4c11 .2 22 .2 32.9-1.1q6-.7 12-2 8.3-1.3 16.5-1.6c3.5-.1 7.4-.2 10.4 1.8q1.8 1.4 3.4 3c2 .5 3-.7 4.4-2q2.2-2 5.1-2.8c3.7-.8 7.6-.2 11.3 0q3.8.4 7.8.6 9 2.3 18.1 3c11.8.7 23.7 0 35.5-.2l8.6-.5c2.6-.1 5.3-.5 7.8-.2" class="b"/><path d="M9.1 63.8c13.9 0 27.8-.2 41.5-2.6q6.8-1.5 13.8-2.2c4-.4 8.2-.7 12.2.4q2.4 1 4.3 3c.3.5 1.2 1.2 1.7 1.4l1.7-.1c1.1-1.4 2.1-3.2 3.5-4.2 2.7-2 6.4-1.5 9.5-1.1 4.9.8 9.8 1.8 14.7 2 3.5.2 7 1.1 10.4 1.7q6 .9 12.1 1 16.5-.2 32.9-.7c5.1 0 10.4-.8 15.5-.8" class="b"/><path d="M9.1 62a280 280 0 0 0 37.2-2q6-.7 12-2.4a78 78 0 0 1 9.6-1c3 0 6.1.1 8.7 1.8 1.2.9 2.3 2.4 3.4 3.5.4.1 1.3.3 1.7.2.9-.5 1.5-2.5 1.8-3.4.6-1.4 1.7-3 3.4-3.3 3.2-.5 6.5.4 9.5 1.2q5.1 1.6 10.4 2.5 4.4.4 8.7 1 7.3 1.1 14.7 1.3c8 .2 16.1-.3 24.2-.4q14.3 0 28.5-1.2" class="b"/><path d="M9.1 60.3q16 0 32-1.5 7-.6 13.8-2 3.9-.8 7.8-2a25 25 0 0 1 9.5.3q2 .5 3.5 2c.8 1 1.7 2.4 2.6 3.2H80l.9-2.2c.2-1 .6-4.7 1.7-5.2 7.6 0 7.7-.3 14.7 3q7 2.8 14.7 3c5.2.3 10.4 1 15.6 1q10.8-.1 21.6-.6c11.2-.3 22.5.1 33.7-1.2" class="b"/><path d="M9.1 58.5q16.5-.2 32.9-1.7 6.9-.6 13.8-1.9c4.5-.6 11.3-3.1 15.6-1.8 1.4.6 2.6 2 3.4 3.3.3.6 1.2 1.9 1.7 2.2q1 .1 1.8-.4c.3-1.7 1-5.5 1.7-7h10.4q1.3.5 2.6 1.4 3.3 2.2 6.9 3.6c6 2.2 12.7 1.4 19 2 10.4.6 20.8-.5 31.1-.7 11-.3 22 .3 33-1" class="b"/><path d="M9.1 56.7q19-.3 38-2.2c5.3-.5 10.4-1.6 15.6-2.3 2.9-.3 6.2-.5 8.7 1.3 1.2.9 2.2 2.5 3.4 3.4h.9c2-1.7 1.8-5.5 3.4-7.4h7c1.6 0 3.7-.5 5.1.7 2 1.6 3.8 3.4 6.1 4.5 5.4 2.5 11.5 1.7 17.3 2l17.3-.1q8.6-.6 17.3-.9c11.2-.3 22.5.4 33.7-.8" class="b"/><path d="M9.1 54.9q18.2-.4 36.3-2.1 7.4-.8 14.7-1.7c3.2-.3 6.7-.4 9.5 1.3 1.2.7 2.4 1.9 3.5 2.6h.9c2.2-1.7 2.7-5 4.3-7.2q3-.2 6 0c1.7 0 3.7-.4 5.2.7 2.2 1.3 3.8 3.7 6 5 2.4 1.3 5.2 1.5 7.8 1.6h8.7q9.5 0 19-.2c6-.3 12.1-1 18.2-1 11.2-.3 22.5.5 33.7-.6" class="b"/><path d="M9.1 53q11.3-.3 22.5-1l14.7-1.2q5.2-.4 10.4-1c3.1-.3 6.4-.5 9.5.5q1.8.5 3.4 1.7c.8.5 1.7 1.4 2.6 1.2 2.8-1.6 3.5-5.5 6-7.2h6.1c4.4 1 7 5.7 11.3 7q3 .6 6 .4h7q9.8 0 19.8-.2c8-.4 16.1-1.2 24.2-1.2 10.1-.1 20.2.5 30.3-.3" class="b"/><path d="M9.1 51c11.5-.3 23.1-.5 34.6-1.8l10.4-.9c3.1-.2 6.4-.4 9.5.3q2.3.5 4.3 1.7c.7.4 1.7 1.1 2.6 1.1 2.9-1.5 4.4-4.8 7-6.8C83.2 42.5 87.2 49 92 51c1.3.6 3 .8 4.3.7h20.8q7.8 0 15.5-.5c5-.3 9.8-.9 14.7-.9 11.8-.3 23.7.6 35.5-.2" class="b"/><path d="M9.1 49.2c10.4-.4 20.8-.4 31.1-1.5q4.4-.5 8.7-.8 4.7-.3 9.5-.3 3 .1 6 1.2c1.5.5 2.9 1.5 4.4 2 3.6-1.6 5.7-5.8 9.5-7.1 3 .5 5.4 2.6 7.7 4.3 4 3 5.7 3.1 10.4 3h11.3q16 .3 32-1.2c14.3-1 28.8.5 43.2-.4" class="b"/><path d="M9.1 47.3c9.8-.3 19.6-.3 29.4-1.2l6-.8 8.7-.4c5.2-.2 9.2.7 13.8 3 3.9-1.4 6.5-5.1 10.4-6.4 3.6.9 6.2 4.2 9.5 5.8 2.7 1.4 5.8.8 8.7 1h12q16.2.2 32-1.3c14.5-1.1 29 .5 43.3-.3" class="b"/><path d="M9.1 45.5c9.5-.3 19-.3 28.5-1.1 3.2-.2 6.4-1 9.5-1 6.7-.4 12.1-.3 18.2 2.7 2-.2 3.6-1.7 5.2-2.7 2-1.3 4.4-3 7-2.8 3.1 1.7 5.8 4.7 9.4 5.7q2.2.3 4.4.2h23.3c10.7.1 21.3-1.3 32-1.7 12 0 24.2.7 36.3.2" class="b"/><path d="M9.1 43.6c12.4-.4 25 0 37.2-2.1 5.2-.2 10.7 0 15.5 2 2.5 1.3 3 .8 5.2-.5 3-1.7 6-3.7 9.5-3.6 3 1.9 5.9 4.8 9.6 5.4h19q16.5.2 32.8-1.2l8.7-.6 8.6.1c9.2.1 18.5.6 27.7.3" class="b"/><path d="M9.1 41.7q14.3 0 28.5-.8 4.8-.5 9.5-1.2 4.9-.2 9.6 1c2 .4 4 1.5 6 2 4.1-1.5 9.3-6 13.8-4 2.4 1.8 4.8 4 7.8 4.3q14.7.1 29.4 0c11.3 0 22.5-1.3 33.7-1.8 11.9.2 23.7.7 35.5.5" class="b"/><path d="M9.1 39.9q14.3 0 28.5-.8Q43 38.7 48 38a34 34 0 0 1 13 3c2.1-.6 4-1.9 6-2.8 2.7-1.2 6-1.9 8.7-.7 2 1.6 4.2 3.5 7 3.9q15.5.1 31 0c11.3-.2 22.5-1.3 33.8-1.9 11.8.1 23.6.8 35.4.6" class="b"/><path d="M9.1 38q13.5.1 26.8-.5l8.7-.8 4.3-.5q2.2.3 4.3.8 3 1 6 2.2c1.9-.2 3.6-1.5 5.2-2.2a13 13 0 0 1 8.7-1.5q2 .5 3.5 2a9 9 0 0 0 6 2.1h24.2c13.6.2 27.1-1.2 40.7-1.9 11.7 0 23.6.8 35.4.6" class="b"/><path d="M9.1 36.2q13.9.1 27.7-.5 6.4-.5 13-1 3.4.9 6.9 2.4c2.8 1.8 8-5.3 15.5-3q1.9.5 3.5 2 1.9 1.6 4.3 1.8h26.8c13.9 0 27.7-1.3 41.5-2 11.5.1 23 .8 34.6.6" class="b"/><path d="M9.1 34.4q13.5.1 26.8-.4c4.9-.1 9.8-1 14.7-.3 2 .5 4 2 6 2 4.8-2.2 9.3-5.3 14.8-3.1 1.5.5 3 1.7 4.3 2.7 1.2.8 2.9 1 4.3.9h25.9c14.2 0 28.3-1.3 42.4-2 3.7-.2 7.5.2 11.2.3q11.7.4 23.4.3" class="b"/><path d="M9.1 32.6q13 0 26-.3c4.5 0 9.2-.6 13.8 0q1.8.3 3.4 1 1.3.6 2.6.8c5.2-2.5 9.7-5.8 15.6-3 1.8.7 3.3 2.4 5.2 3.1q1.6.3 3.4.2h26c14.7 0 29.4-1.2 44-1.9 11.3 0 22.6.8 33.8.6" class="b"/><path d="M9.1 30.7q12.6.2 25 0c4-.1 8.2-.4 12.2 0q2.2.4 4.3 1 1.3.6 2.6.6c2-.8 4-2.2 6-3 3-1.4 6.6-1.6 9.6-.3 1.5.7 3 2 4.3 2.9 1.2 1 2.9.8 4.3.8h25.1c15.6 0 31.1-1.2 46.7-1.9 3.7-.2 7.5.2 11.2.3q11.3.4 22.5.3" class="b"/><path d="M9.1 29h28.5a48 48 0 0 1 13.9 1.5c1.8-.6 3.4-2 5.2-2.8 2.8-1.5 6.3-2.1 9.5-1.1 2.3.7 4.1 2.5 6 3.9 1 .6 2.4.4 3.5.4h24.2l7.8-.1h7.8L150 29c11 .1 22 .8 33 .6" class="b"/><path d="M9.1 27c10.4.4 20.8 0 31.1.5q2.6 0 5.2.6c1.4.2 3 1 4.3.6 2.3-.6 4.2-2.2 6-3.4 2.7-1.3 6-1.7 8.7-.9q2.4.9 4.4 2.7c1 .8 2 2 3.4 2.1h24.2q5.3 0 10.4-.2h9.5q16.5-.7 32.9-1.5c4-.2 8 .2 12 .2q11 .4 21.7.3" class="b"/><path d="M9.1 25.3c9.2.3 18.5.1 27.7.5l6 .6c1.7.3 3.5 1 5.2.4a26 26 0 0 0 7.8-4c1.6-1.3 4-1.1 6-.9 3.3.6 5.4 3.3 7.8 5.3 1 .5 2.4.3 3.5.3h17.3q6.9 0 13.8-.3 4.8-.1 9.5 0c11 0 22-.7 32.9-1.1q6.9-.4 13.8 0 11.3.3 22.5.2" class="b"/><path d="m9.1 23.5 17.3.4c5.8.2 11.6.3 17.3 1.5 3.6-.4 7-2 10.4-3.5l3.4-1.8q1.3-.8 2.6-.5c3 .4 5.1 2.6 7 4.8.6.7 1.5 1.6 2.5 1.4h27.6q4-.4 7.9-.5 5.2.2 10.4.2 7.3 0 14.6-.4 11.3-.5 22.5-.8c10.1 0 20.2.4 30.3.2" class="b"/><path d="M9.1 21.8c9.5.5 19 .3 28.5 1.4l3.5.4a41 41 0 0 0 7-1.6c4.2-1.2 8.4-3.3 12.9-4 2.8 1 3.9 4.3 6 6q9.6.1 19 0h9.6l7.8-.6q4.2 0 8.6.4h9.5q15.6-.6 31.1-1c10.1 0 20.2.3 30.3 0" class="b"/><path d="M9.1 20.1c8.6.5 17.3.5 26 1.5 3.1.6 6.3-.3 9.4-1 5-1 9.7-3 14.7-2.9 3 .1 4.5 2.3 6.1 4.5 3.4.3 7 0 10.4.1H93c2.8 0 5.7-.5 8.6-.7a56 56 0 0 1 9.5.4c12.7.6 25.4-.4 38-.6 11.3-.4 22.6 0 33.8-.4" class="b"/><path d="M9.1 18.6q8.3.4 16.4.9c3.5 0 7 1 10.4.4q6.6-1 13-2.4c3-.5 6.4-1.2 9.5-.5q1.9.4 3.5 1.6c1 .8 2 2.2 3.4 2H87q4.8.2 9.5-.4 7-1 13.9 0c12.4.9 24.8 0 37.2-.3 11.8-.4 23.6-.2 35.4-.6" class="b"/><path d="M9.1 17.4q6.5.2 13 .6l6 .4q2.2 0 4.3-.4 7-.9 13.9-2c3.7-.4 7.6-1 11.2 0 1.9.6 3.5 1.8 5.2 2.7 1.7.3 3.5 0 5.2.2h7.8l17.3-.1q4.2-.6 8.6-1c4-.2 8.1.8 12.1 1q11.3.1 22.5-.1 12.1-.3 24.2-.7 11.3-.1 22.5-.5" class="b"/></svg>