<svg xmlns="http://www.w3.org/2000/svg" id="a" width="1920" height="2400" viewBox="0 0 192 240"><defs><style>.b{fill:none;stroke:#fff;stroke-miterlimit:10;stroke-width:.3px}</style></defs><path d="M0 0h192v240H0z" style="stroke-width:0"/><path d="M8.5 226.7c9-.4 18-1.2 27-1 8.7 0 17.4.9 26.1.7q11.3-.2 22.7-.9c6.7-.4 13.6-.7 20-3 1.7-.5 3.4-1.6 5.2-2h13c1.2.2 2.5 1 3.5 1.5q2.2 1 4.4 1.7c5.6 1.6 11.6 2 17.4 2.2 11.9.5 23.8-.2 35.7-.2" class="b"/><path d="M8.5 224.8c9-.3 18-1 27-1 8.4.2 16.8 1 25.2 1q11.8-.1 23.5-1c6.8-.4 13.7-.7 20-3 2-.6 4-2 6.2-2h13c2.6 1 5.1 2.4 7.9 3 5.9 1.6 12.1 2 18.2 2.2 11.3.6 22.7 0 34-.1" class="b"/><path d="M8.5 222.9c8.7-.2 17.4-.9 26.1-.8 8.1 0 16.3.8 24.4.8q12.2 0 24.4-.7c7-.5 14.2-.8 20.9-3 2-.7 4-2 6-2.1h13.1c2.3.6 4.6 1.8 7 2.3a91 91 0 0 0 20 2.8c11 .6 22 0 33 0" class="b"/><path d="M8.5 221c12.5-.3 25-1.2 37.4-.3q16.5 1 33.1 0c8.2-.5 16.5-.6 24.4-3 2.3-.6 4.5-2.2 7-2.4l13.9.1c9.7 3.5 20.2 4.6 30.5 5 9.5.6 19.1 0 28.7 0" class="b"/><path d="M8.5 219c10.4 0 20.9-.8 31.3-.4 12.8.7 25.6 1.2 38.4.4 7.8-.5 15.8-.7 23.5-2.6 2.6-.6 5.2-2 7.8-2.7q7.5-.1 14.8-.1 13.3 3.6 27 4.6c10.7.9 21.5.7 32.2.4" class="b"/><path d="M8.5 217.2c9.9 0 19.7-.8 29.6-.5 7.5.3 15 .9 22.6.9q15.8.2 31.4-1.3 5.3-.5 10.4-2c2.4-.5 4.7-1.7 7-2.3 5.2-.3 10.5 0 15.7-.1 2.3.2 4.6 1.1 7 1.4q10.3 1.8 20.8 3 15.2 1.3 30.5.6" class="b"/><path d="M8.5 215.3c9.9 0 19.7-.8 29.6-.5q11.7.7 23.5 1 13.5.2 27-1a80 80 0 0 0 13-2c2.7-.6 5.3-1.8 7.9-2.6q7.9-.1 15.7 0c3.2-.2 6.4.8 9.5 1.1q10.5 1.7 21 3 13.8 1.5 27.8 1" class="b"/><path d="M8.5 213.4c10.4 0 20.9-.8 31.3-.5 7.3.2 14.6.9 21.8 1q11.8.3 23.5-.6 7.5-.3 14.8-2c3.3-.6 6.4-2 9.6-2.8 5.5-.3 11 0 16.5-.1q6.2-.1 12.2.8c7.3.7 14.5 2.4 21.8 3.4q11.8 1.6 23.5 1" class="b"/><path d="M8.5 211.5c11 0 22-1 33-.6 6.5.2 12.8.9 19.2 1.1q10.5.4 21-.2a117 117 0 0 0 17.3-2c3.3-.7 6.5-2 9.6-2.9 2.3-.5 4.7-.2 7-.3h11.3c7.5 0 15.2-.2 22.6 1.3 5.5 1.1 11 2.7 16.6 3.5q8.6 1.3 17.4.7" class="b"/><path d="M8.5 209.6c11.3 0 22.6-1.2 34-1 5.5.1 11 1 16.5 1.4q9 .6 18.3.2c10-.5 20-1.2 29.6-4.6 2.4-1 5.2-.7 7.8-.7h27c3.5 0 7-.3 10.5.4 4.7 1 9.2 3 13.9 4a71 71 0 0 0 17.4 1.4" class="b"/><path d="M8.5 207.6q9.6-.2 19.2-.8 7.3-.7 14.8-.9c2 0 4 .5 6 .7q4.8.3 9.6 1.1 7.5.9 14.8.7 12.3 0 24.4-2.1c3.8-.7 7.6-2 11.3-3 3.5-.4 7 0 10.5-.2h32.2l5.2.1q2.3.6 4.4 1.6c7.6 4 14 4.9 22.6 4.6" class="b"/><path d="M8.5 205.6q14.5-.2 28.7-2.5c1.8-.4 3.5.9 5.3 1.1a43 43 0 0 0 9.5 1.3c2 .1 4.1-.3 6.1-.3q6.5 1.3 13 1.3 12.8.1 25.3-2 4-.8 7.9-2c2.2-.6 4.6-1.3 7-1.1h42.6c3.9 0 8-.4 11.3 2.2a29 29 0 0 0 18.3 4.6" class="b"/><path d="M8.5 203.5c8.8-.3 17.7-.8 26.1-3.3q2.6 1.1 5.2 2.2 4.7 1.4 9.6 1.7 4 .3 7.9-.1c1.4-.1 2.9-.8 4.3-1 9.8 3 29 1 39.2-1.5 2.6-.6 5.2-1.5 7.8-1.8h46.2c4 0 8.4-.3 12.2 1.5 4.9 4.5 9.8 6 16.5 5.6" class="b"/><path d="M8.5 201.5c7.3-.4 14.8-1.1 21.8-3.5 1.9-.5 3.6.7 5.2 1.6q2.5 1.3 5.2 2a50 50 0 0 0 20 .5q1.8-.6 3.5-1.6 3.7 1.8 7.9 1.9 4.8.1 9.5-.2 12-.8 23.5-3.8 4-.7 7.9-.5h41.8c4 .2 8.2-.4 12.2.6q1.3.3 2.6 1l2.6 2.5c3 2.7 7.4 3.7 11.3 2.9" class="b"/><path d="M8.5 199.3a75 75 0 0 0 15.7-2.6q2-.7 4.3-.5c1.1 0 2.5-.2 3.5.5a30 30 0 0 0 17.4 5.1q4.3.3 8.7-.1c3-.2 6.2-1.2 7.9-3.8h.8c4 3.3 10.9 2.3 15.7 2.1 7.3-.5 14.6-2 21.8-3.4q3.3-.6 7-.4h52.2c2.9 0 6.3-.3 8.7 1.7 2.4 3.7 6.7 6.6 11.3 5.3" class="b"/><path d="M8.5 197.2q6.2-.7 12.2-2.5c2-.4 4-.2 6-.3 1.6 0 3.3-.2 4.4 1a21 21 0 0 0 12.2 4.9q7 .8 14 .6c5.2-.2 8.4-.7 10.4-6l.9-.5c1 1 2 2.3 3.4 2.8 2.8 1 5.9.7 8.8.6a136 136 0 0 0 17.4-2.2q3.3-.8 7-1.1H166c2.6.1 5.5-.6 7.8.8 2 3.5 5.1 7.5 9.6 6.3" class="b"/><path d="M8.5 195c3.3-.3 6.4-1.7 9.6-2.3q5.2-.2 10.4.1c2.1 2 4.1 4.5 7 5.3 5.3 1.6 11 1.5 16.5 1.7H60c2 0 4.2 0 6-.8 2.3-1 2.4-4.4 3.5-6.3H72c2.8 2.9 7 2.5 10.5 2.4q7.9-.5 15.7-1.8 5.2-.8 10.4-.6H141q5.2.4 10.4.5c3.7 0 7.5-.6 11.3-.5q6.5-.2 13 .1c2.3 3.2 3.1 7.3 7.9 7.4" class="b"/><path d="M8.5 192.9q3-.7 6-1.9 5.2-.1 10.5 0c2.9 4.2 4.4 6 9.6 6.6q7.4 1 14.8.7 6.6.1 13 .1c2.4-.1 5 .1 7-1 .8-.5 1.5-2.2 1.8-3q1.7-.6 3.5-.7 3-.5 6-1.3 1.8-.4 3.5-.3 2.2 0 4.4-.2 5.3-.4 10.4-.9h39.2c3.8.2 7.6 1 11.3 1.1 5.9.5 11.7-.2 17.4-1.1h11.4c1.1 2.6 1.8 6.8 5.2 7.4" class="b"/><path d="M8.5 190.8q2.6-1.2 5.2-1.4c2.3-.3 4.7-.1 7-.2.5.4 1.4 1.7 1.7 2.3q1.3 2.3 3.5 3.5c6 2.7 12.8 1.2 19.2 1q8.6-.2 17.4.7h5.2q2.3.1 4.3-1c2.5-2.7 6.4-3.5 9.6-4.7q3-1.1 6.1-1.7h49.6q3.5.3 7 1a75 75 0 0 0 22.6.3q3.5-.7 7-1.3h6l1 .7c.7 1.9 1 5 2.6 6.5" class="b"/><path d="M8.5 189.6q4.4-.4 8.7-1.2c.8.4 1.4 1.8 1.8 2.5q1.3 2.1 3.4 3c3.6 1.4 7.6 1.1 11.4.5q4.3-.5 8.7-.6c7-.1 14-.1 20.9.8 3.4.4 8.3 1 11.3-1.2 3-2.4 6.8-3.8 10.4-5.2q3-1 6.1-.7h26.1c3.8 0 7.6.6 11.3.4 3.5-.1 7-.8 10.5 0q14.6 3.5 29.6 2.1 3.9-.5 7.8-.5 2.7-.5 5.3-1.3c.7.8 1.4 3.4 1.7 4.5" class="b"/><path d="M8.5 189.3q3.6-.1 7 1c.7.6 1.6 1.6 2.6 2a20 20 0 0 0 11.3.1q3.9-.5 7.8-.6a272 272 0 0 1 27 .7c4 .7 8.5 1.4 12.2-.8.5-.3 1.4-1 1.7-1.5l5.3-2.9c1.3-.6 2.8-1.4 4.3-1.6h29.6l6.1.7q6.6.6 13-.4c2.4-.4 4.8.8 7 1.2q5.2 1.3 10.5 1.7 7.8.6 15.6.4c3 0 6-.2 8.8.4 1.7 0 3.7.2 5.2 1.2" class="b"/><path d="M8.5 189.2q3.1.5 6 1.9c3.5.8 7.1.3 10.5-.5q3.5-.6 7-.8 10-.2 20 0 6.6.1 13 .8l6.2.9q3.6-.1 7-1.6 2.4-1.4 4.3-3.5 2-1.5 4.3-2.3c2.3-.3 4.7 0 7-.1h22.6c3.8.6 7.6 1.4 11.3 1.5q4.5 0 8.8-.5l3.4-.4 2.6.8c8 2.3 16.3 2.5 24.4 2.8 3.5.1 7 0 10.5.5q3 .4 6 1" class="b"/><path d="M8.5 189a25 25 0 0 0 14-.5q4.6-.8 9.5-.7 14-.1 27.9.5 3.9.2 7.8.8c2.6.4 5.3.8 7.8.2 8.6-1.2 10.6-7.2 14-7h21.7q3.1-.2 6.1.4a60 60 0 0 0 24.4.7l4.4 1.2q4.7 1.1 9.6 1.5c9.2.9 18.6.6 27.8 2.1" class="b"/><path d="M8.5 188H12l4.3-.8q4.8-1 9.6-1.3 15.7-.1 31.4.4c5.5.1 11 1 16.5 1.5q6-.4 11.3-3c2-1.2 4-2.8 6.1-3.9q1.7-.6 3.5-.4h19.1c5.8 1.2 11.5 2.7 17.4 2.6q6.2 0 12.2-1 5.6 1.7 11.4 2.3c9.5 1 19.2 1 28.7 2.2" class="b"/><path d="M8.5 186c4.3-.6 8.7-1.7 13-2 6.1-.3 12.3.1 18.3.2 10.8.2 21.6.2 32.3 1.6q3 .4 6-.2 5-.7 9.6-2.8c3-1.2 5.6-3.4 8.7-4h4.4c4.3 0 8.8-.3 13 .1 5.2 1.3 10.4 2.6 15.7 2.8a76 76 0 0 0 15.7-.9l3.5.9c11.4 2.3 23.2 1.8 34.8 3.2" class="b"/><path d="M8.5 183.3c2-.6 4-.5 6-.7 8.2-1 16.4-.3 24.5-.2 11.9.3 23.8.4 35.7 1.9a49 49 0 0 0 15.6-3.4c5.2-2 8.1-4.3 14-3.9 3.1.1 6.4-.3 9.6.3a69 69 0 0 0 32.2 2.2c.8-.3 1.8.1 2.6.3 5.7 1.4 11.6 1.7 17.4 2.1l17.4 1.2" class="b"/><path d="M8.5 180.4c1.7-.3 3.5 0 5.2 0q8.2-.5 16.6 0c9.2.4 18.5.4 27.8.8l12.2.8c2.9.3 5.8.7 8.7.2q7.2-.7 14-3 4.2-1.8 8.7-3.2 3.4-.8 7-.7 2-.1 4.3.2c3.2.7 6.3 2 9.6 2.5a73 73 0 0 0 20 .5l6-.6q4.8 1.2 9.6 1.6c8.4.8 16.9 1 25.3 1.8" class="b"/><path d="M8.5 177.6q3.9.7 7.8.6l7.9.2q15.2.7 30.5 1l15.6.9q3 .2 6.1.4 4-.2 7.8-.8a83 83 0 0 0 15.7-4q6-1.8 12.2-1.9c1.8-.3 3.6.5 5.2 1q3.9 1.3 7.9 1.8a88 88 0 0 0 22.6-.3l1.7-.3q1.8.4 3.5.7 3.5.7 7 1c7.8.7 15.7.9 23.5 1.5" class="b"/><path d="M8.5 175.4q3.8.9 7.8 1l7.9.2q14 .7 27.8 1l17.5.8 7 .5 8.6-.7c6.2-.6 12.3-2.4 18.3-4q5.2-1 10.5-1.2 1.2-.1 2.6 0a47 47 0 0 0 9.5 2.3c7.5 1 15.2.4 22.7-.5q1.2-.2 2.6-.2l2.6.6 7 1c7.5.6 15 .7 22.6 1.3" class="b"/><path d="M8.5 173.2q3.8 1.2 7.8 1.2l8.8.5q12.6.7 25.2 1 9 .2 18.3.7l7.8.5q4.4-.1 8.7-.5c6.8-.5 13.4-2.2 20-3.5 3.5-.7 7-.7 10.5-1q1.3-.2 2.6-.2a34 34 0 0 0 8.7 2c7.8.7 15.7.1 23.5-.9l1.8-.2a47 47 0 0 0 9.5 1.6c7.3.6 14.6.7 21.8 1.2" class="b"/><path d="M8.5 171.2c5.6 1.8 11.6 1.5 17.4 2q14.4.7 28.7 1l14 .7c3.1.1 6.4.5 9.5.4q8-.2 15.7-1.2 6-1 12.2-2.1c4.3-.6 8.7-.7 13-1.2 1.7 0 3.5 1 5.3 1q5.2.9 10.4.7a138 138 0 0 0 18.3-1.4c10 2.4 20.3 2 30.5 2.7" class="b"/><path d="M8.5 169.1c5.6 2 11.6 1.9 17.4 2.3q13.5.8 27 1 12.2.4 24.4 1.2 9.6-.2 19.1-1.2 5.7-.9 11.4-1.6 6.5-.4 13-1.2c1.7 0 3.5.8 5.2.9q4.8.5 9.6.3 9.2-.2 18.3-1.4c9.7 2.2 19.7 2 29.6 2.5" class="b"/><path d="M8.5 167.1c5.2 2 11 2 16.5 2.5q12.6.8 25.3 1 13 .4 26.1 1.2 7 .1 14-.4c5.5-.2 11-1 16.5-1.6 4.9-.5 9.9-.6 14.8-1.3q1.7-.3 3.5.2l3.4.4a129 129 0 0 0 22.7-1l3.5-.4q1.2.1 2.6.5c8.5 1.7 17.4 1.4 26 1.8" class="b"/><path d="M8.5 165c5 2 10.4 2.3 15.7 2.7q11.2.9 22.6 1 10.5.3 20.9.8c6 .3 12.2.8 18.3.5a264 264 0 0 0 21.8-1.4q7.9-.4 15.6-1.3 1.8-.3 3.5 0l5.2.1q11 0 21.8-1.3l2.6-.2a38 38 0 0 0 7.8 1.4c6.4.7 12.8.7 19.2.9" class="b"/><path d="M8.5 162.9c5.2 2.3 11 2.6 16.5 3q11.7 1 23.6 1.2 10.8.2 21.7.8 10 .7 20 .4c6.7 0 13.4-.6 20-1 5.6-.3 11.2-.6 16.6-1.7q6.5.3 13-.2 7.5-.3 14.9-1 1.2-.2 2.6-.2a38 38 0 0 0 7.8 1.4c6 .7 12.2.6 18.3.8" class="b"/><path d="M8.5 160.7c5.4 2.5 11.5 3 17.4 3.5q12.7 1 25.3 1.2c15.2.2 30 1.7 45.2 1.2q8.2 0 16.6-.6a81 81 0 0 0 15.6-2c8.2.1 16.3-.7 24.4-1.2l5.2-.5q4 1.1 7.9 1.5 8.6.7 17.4.7" class="b"/><path d="M8.5 158.4c7.6 3.4 16.1 3.9 24.4 4.5 11.3.7 22.6.7 34 1.2l22.6 1q13.5.2 27-.6 7-.4 13.9-2l14-.9q6.8-.4 13.8-1c1.2-.3 2.4.3 3.5.5l5.3 1q8.2.6 16.5.6" class="b"/><path d="M8.5 156.3c2.9.8 5.7 2.1 8.7 2.7 6.6 1.5 13.3 2 20 2.4 11.3.5 22.7.5 34 1 16.2.7 32.5 1.8 48.7.5q4.5-.4 8.7-1.2c1.5-.2 3-1 4.4-1 8.7-.8 17.4-1.2 26.1-2 1.1-.2 2.4.3 3.5.6q2.6.6 5.2.9 7.9.8 15.7.6" class="b"/><path d="M8.5 154.4q2.3.1 4.4 1a61 61 0 0 0 19.1 3.8q12.6.9 25.3 1 14.3.3 28.7 1c12.7.4 25.6 1 38.3-.1q3.5-.3 7-1.2c1.3-.4 2.8-1.1 4.3-1.1 8.4-1 16.9-1.3 25.3-2 1-.1 2.3.5 3.4.7l4.4.8q7.4.7 14.8.6" class="b"/><path d="M8.5 152.6q1.8 0 3.5.2c2.6.6 5.2 1.8 7.8 2.4q7.7 2 15.7 2.4c11.9.8 23.8.8 35.7 1.2 10.1.2 20.3.9 30.5 1 9 0 18 .7 27-.6q2.6-.5 5.2-1.2c1-.4 2.3-1 3.4-1 8.1-1.2 16.3-1.4 24.4-2.1 1.2-.3 2.4.4 3.5.6l4.4.8q7 .8 13.9.7" class="b"/><path d="M8.5 150.9h5.2c2.4.5 4.7 1.6 7 2.3q6.8 2 14 2.5c13 1 26 .9 39 1.3 10.8.2 21.6 1 32.3.9 8.7 0 17.5 1 26.1-.6q3.2-.7 6.1-2.2c8-1.3 16.3-1.5 24.4-2.1a7 7 0 0 1 3.5.4q2.2.6 4.3.9 6.5.8 13 .7" class="b"/><path d="M8.5 149.2c3.2 0 6.6-.5 9.6.7a57 57 0 0 0 16.5 4c13.6 1 27.3.9 41 1.2q8.7.1 17.3.7l16.6.3c8.7 0 17.6 1.4 26.1-1q1.8-.6 3.5-1.4c.6-.6 1.8-.8 2.6-1 7-1 14-1.1 20.9-1.6l2.6-.3q3 .8 6 1.4 6.1.8 12.3.8" class="b"/><path d="M8.5 147.4h6q2.3-.1 4.4.4 3.9 1.5 7.9 2.8 4.3 1.1 8.7 1.5c13.6 1.2 27.3.9 41 1.1q7.3.2 14.7.6l20 .5q5.2 0 10.5.3c5.5.3 11.3.4 16.5-1.5q1.4-.5 2.6-1.3t2.6-1.2q7.5-1 14.8-1.2 4.5-.2 8.8-.6c5.3 1.7 11 2 16.5 2.2" class="b"/><path d="M8.5 145.7q5.7-.1 11.3 0c2.7.9 5.2 2.4 7.9 3q4.6 1.4 9.5 1.7c13.4 1 26.8.7 40 1 4.4-.1 8.8.4 13.1.5l22.7.6q5.6 0 11.3.3c5.5.3 11.4.5 16.6-1.9l2.6-1.6.8-.7.9-.2q6-.7 12.2-1 5.3-.2 10.4-.6c2 .2 4.1 1 6.1 1.3q4.8.7 9.6.8" class="b"/><path d="M8.5 144h7.8q2.7-.2 5.3.1c3.4 1.4 6.7 3.2 10.4 3.8 8.6 1.5 17.4 1.3 26.1 1.5h21q12 .9 24.3 1 10.5.2 20.9.6c5.8.3 12 .8 17.4-1.5 2-.8 3.6-2.4 5.2-3.6q11.3-.6 22.7-1.2 6.8 2 13.9 2.1" class="b"/><path d="M8.5 142.2h9.6q2.6-.2 5.2.2c2 .8 4 2 6 2.7q5.2 1.6 10.5 1.9c12 .8 23.8.5 35.7.5 4.4 0 8.8.6 13.1.6l27.9.9q5.6 0 11.3.4c6.5.4 14 .6 19.1-4.2 2.3-2.4 2-2.1 5.3-2l7-.2 11.2-.3q6.5 1.6 13 2" class="b"/><path d="M8.5 140.4h15.7c1.8.3 3.5 1.7 5.2 2.4q3.3 1.5 7 2c11.8 1.3 23.8.9 35.7.8 4.6-.1 9.3.5 13.9.6q11.8.5 23.5.7 10.5.3 20.9.8c5 .4 10.3.3 14.8-2.1 2.4-1.2 3.9-3.7 6-5.1q10 .3 20 .2 6.1 1.3 12.3 1.9" class="b"/><path d="M8.5 138.7c6 .1 12.2-.2 18.3.1q2.1 1 4.3 2.3 3.4 1.5 7 1.9c11.3 1.3 22.6.8 34 .6 12.7 1 25.5 1.2 38.3 1.6l21.7.8c5 .2 10.5.2 14.8-2.6 2-1.2 3.4-3.4 5.2-4.7h20c3.8.5 7.6 1.4 11.4 1.8" class="b"/><path d="M8.5 137h20c1.5.6 3 1.7 4.4 2.3q3.3 1.4 7 2 10.4.9 20.8.6c4 0 8.2-.3 12.2 0 13 1 26.1 1.1 39.2 1.5q11.2.5 22.6.9c4.8-.2 10 0 14-3.1 1.5-1.2 2.7-3.1 4.3-4.2h20c3.5.2 7 1 10.5 1.4" class="b"/><path d="M8.5 135.2c7.2.1 14.5-.3 21.8.3q1.4.1 2.6 1 1.6 1 3.5 1.7c5 1.9 10.4 1.6 15.6 1.8 6.4.2 12.8-.4 19.2.2q17.8 1 35.7 1.3c9.6.2 19.1 1 28.7 1 4.7-.4 10 .1 14-2.6 1.7-1.2 2.6-3.5 4.3-4.7h21.7q4 .5 7.9 1.2" class="b"/><path d="M8.5 133.5h13c3.2 0 6.5-.1 9.6.6l4.4 1q2.4 1.5 5.2 2.1c4.6 1 9.3.8 14 .9 7.8-.3 15.6.5 23.5.7q16 .6 32.2 1c9.5.3 19.1 1.2 28.7.7 4.4-.3 9.1-.1 13-2.3 2-1.2 3.4-3.3 5.3-4.7h20l6.1.8" class="b"/><path d="M8.5 132c3.2.4 6.4 0 9.6-.3q4.7-.1 9.6.2c3.2.5 6.4 1.7 9.5 2.6q4.3 1 8.7 1.5c12.5.1 25 .9 37.5 1.3q19 .4 38.3 1.2 9 .6 18.3.1c6.4-.1 13.1-.3 18.3-4.6 1-.8 2.1-2 3.4-2.3h7.9c4.6.1 9.3-.3 14 .6" class="b"/><path d="M8.5 130.9q4 .1 7.8-.2c3.7-.6 7.6-1 11.4-.4 4.1.8 8 3 12.2 3.8 5.7 1.2 11.6.5 17.4.7q26.1.6 52.2 1.5c8.7.2 17.4 1 26.1.6 5.2-.2 10.5 0 15.7-.9q5-.7 9.6-3.2c4.2-2.5 3.4-3 8.7-2.8 4.6.1 9.3-.3 14 .3" class="b"/><path d="M8.5 130q7.6.1 14.8-1.6c4.3-.4 8.3 1.7 12.2 3.3a31 31 0 0 0 11.3 2c6.4-.1 12.8-.6 19.2-.4l43.5 1.2 17.4.8q8.3-.3 16.5-.4a51 51 0 0 0 27-6.6h4.4q4.3 0 8.7 0" class="b"/><path d="M8.5 129.3q6.1-.3 12.2-1.3l5.2-1.1q1.3.2 2.6.6 4 1.5 7.9 3.3 3.4 1.1 7 1.5c6.9.5 13.9-.7 20.8-.6q18.8.2 37.5.8c8.6.2 17.5.9 26 1 10.5-.5 21-.2 31.4-1.7q8.3-1 15.7-5c1-.4 2.4-.2 3.5-.3h5.2" class="b"/><path d="M8.5 128.8q9.6-1.1 19.2-2.8c3.2.9 6.4 2.6 9.5 4q4.3 1.2 8.7 1.2c6.7 0 13.4-1.2 20-1.2 12-.1 23.9.5 35.8.8q11.7.3 23.5 1 5.6-.2 11.3-.4 5.6 0 11.3-.3c9.6-.6 19.4-1 28.7-3.6q2.3-.6 4.4-1.8 1.2-.8 2.6-1" class="b"/><path d="M8.5 128.3c5-.5 9.9-1.6 14.8-2.2l4.4-.4q1.8-.4 3.4.5l7 2.8c1.3.5 3 .5 4.3.7 8.8.9 17.4-1.4 26.2-1.4q27.8.2 55.7 1.7 17.8-.5 35.7-1.3l12.2-.7c3.7 0 8-.6 11.3 1.6" class="b"/><path d="M8.5 127.7c7.3-.6 14.4-2.8 21.8-2.3q1.8.2 3.4 1l5.3 1.5q3.4.8 7 .5 3.4.1 6.9-.2c5.5-.4 11-1.5 16.5-1.6 8.4-.2 16.9.2 25.3.4 10.1.2 20.3 1 30.5 1.3q16-.7 32.2-1.2c8.7 0 17.7-1.2 26 1.6" class="b"/><path d="M8.5 126.8c7.6-.4 15-2.6 22.6-1.7 3.5.3 7 1.7 10.5 1.7q4.7-1 9.6-.5c1.7 0 3.5.5 5.2.3 4.3-.5 8.7-1.5 13-1.7 5.8-.3 11.7 0 17.5 0q12 .4 24.3 1c5 .1 10 .8 14.8.5q15.3-.6 30.5-1c5.8 0 11.6-.3 17.4.2 3.2.2 6.4 1.1 9.6 1.5" class="b"/><path d="m8.5 124.9 5.2.3 9.6-.9q6.5-.2 13 .7 2.3.2 4.4-.3l5.2-.7a55 55 0 0 1 11.4.7c2.3.5 4.6-.3 7-.7q3.8-.6 7.7-.9c14-.4 28 .5 41.8 1.2l9.6.5q7.9-.5 15.7-.7c10.7-.3 21.5-.8 32.2-.2q3.5.2 7 .7 2.6.6 5.2.7" class="b"/><path d="M8.5 122.3q5.3.5 10.5 1.2 8.2-.5 16.5 0c2 0 4-.9 6-1.2q4-.6 8-.6 3.8 0 7.8.7c1.7.2 3.5.8 5.2.7 3.4-.6 7-1.5 10.4-1.7q6.1-.4 12.2-.1 12.2.1 24.4 1c5.2.2 10.5.9 15.7.6a514 514 0 0 1 43.5-.8q4.4.3 8.7.9c2 .2 4.1.7 6.1.5" class="b"/><path d="M8.5 119.8c4.4.2 8.7 1 13 1.6q5.3.5 10.5.3c3.3 0 6.4-1 9.6-1.6a58 58 0 0 1 18.3.4c1.7.2 3.5.9 5.2.9l7-1.4q6-.9 12.2-.6 7.3 0 14.8.5l23.5 1.4 22.6-1q11.8-.3 23.5.2 4 .2 7.8.7c2.3.3 4.7.7 7 .4" class="b"/><path d="M8.5 117.3c7.9.4 15.6 2.4 23.5 2.1 3.6 0 7-1 10.5-1.6a76 76 0 0 1 19.1.6c2 .3 4 1.2 6.1 1.3q4.8-1.4 9.6-2c6.4-.4 12.8 0 19.1.2q13.1.8 26.2 1.7 11.7-.7 23.5-1a300 300 0 0 1 30.4 1q3.5.6 7 0" class="b"/><path d="M8.5 115c7.6.3 15 1.8 22.6 2q3.5 0 7-.6c2-.4 4-1 6-1q7-.3 14 .2 4 .3 7.9 1.3 2 .8 4.3 1l2.6-.6q3.4-1 7-1.4c9.6-.6 19.2.2 28.7 1l9.6.7q3.9.5 7.8 0a413 413 0 0 1 36.6-.7q5.7.2 11.3.7l5.2.6q2.2 0 4.4-.4" class="b"/><path d="M8.5 112.5c8.1.5 16.2 2 24.4 2a45 45 0 0 0 7-.5q3-.8 6-.8 7.8-.1 15.7.4 3.5.3 7 1.4 2 .7 4.3 1.3l1.7-.5q3.5-1.2 7-1.7c9.9-.8 19.8.3 29.6 1 5 .4 9.9 1.3 14.8.9a372 372 0 0 1 47 0q2.7.1 5.2.4 2.7 0 5.3-.5" class="b"/><path d="M8.5 110.2c8.7.5 17.4 2 26.1 2q5.3-.1 10.5-1.2l8.7.2c4.9.2 10 0 14.8 1 2.3.5 4.6 1.6 7 2.3 1.1 0 2.4-.7 3.4-1 4.7-1.8 9.9-1.6 14.8-1.5q10.5.5 21 1.7l8.6.7 11.4-.6a304 304 0 0 1 40 .6c2.9.5 5.8.1 8.7-.3" class="b"/><path d="M8.5 107.8c9.9.7 19.7 2.5 29.6 2.1 2.9 0 5.8-.6 8.7-1q6.1.3 12.2.3c4.3.1 8.8-.2 13 1 2.4.7 4.6 2.2 7 2.6q3.4-1.4 7-2.2c3.4-.5 7-.1 10.4 0q9.2.3 18.3 1.3l9.6.9 8.7-.6a315 315 0 0 1 43.5.7q3.5-.1 7-.8" class="b"/><path d="M8.5 105.4c9 .6 18 2.4 27 2.5q4.3 0 8.7-.5c2-.2 4-.9 6-.6l11.4.3c3.5 0 7-.3 10.5.2q3.1.6 6 2.1c1.4.6 2.9 1.7 4.4 1.7q5-2 10.4-2l11.4.3c6.4.3 12.7 1.2 19.1 1.6 3.5 0 7-.5 10.5-.6a271 271 0 0 1 34 0l7.8.7q3.9 0 7.8-.9" class="b"/><path d="m8.5 103.7 5.2-.3 5.2.7q8.2 1.4 16.6 1.7 7.6.3 14.8-1.3 7 .5 14 .2c4-.2 8.2-.7 12.1.5 3.4.9 6 3.7 9.6 4.1l3.5-.7c9.5-1.6 19.2-.3 28.7.4l6 .3 7-.4a360 360 0 0 1 43.6.4q4.3-.1 8.7-1" class="b"/><path d="M8.5 102.1q3 0 6-.2c1.2-.1 2.5-.5 3.6-.4 6.3 1.1 12.7 2.3 19.1 2.3 5 0 10-.2 14.8-1.6q7.9.4 15.7-.2c2.5-.1 5.3-.7 7.8 0 4.7 1.7 9 4.5 14 5.4 1.6.3 3.5-.4 5.2-.5 8.7-.7 17.4.2 26.1.7 8.7-.3 17.4-1 26.1-.9a394 394 0 0 1 27 .8q4.9-.2 9.6-1.1" class="b"/><path d="M8.5 100.5q4 .1 7.8-.3c1.5 0 3-.6 4.4-.6a86 86 0 0 0 18.3 2.3q5.2.1 10.4-1c1.8-.2 3.5-1 5.2-1.2q6.6.3 13.1-.4 2.6-.3 5.2-.2l5.2 1.8c6.8 2.2 13.7 5.4 21 4.7 5.7-.4 11.6.2 17.3.2 10.8-.3 21.5-.9 32.2-.7q8.4 0 16.6.2l7.8.5q5.3-.3 10.5-1.3" class="b"/><path d="M8.5 98.9q7 .6 14-1.3a73 73 0 0 0 17.3 2.3q8 .2 15.7-2.5c1-.5 2.4-.3 3.5-.3l5.2-.2h7.9q2.5 1 5.2 1.8c7.2 1.8 14.3 4.3 21.7 4.8 6.7.5 13.4.1 20 0l28.8-.2q8.3 0 16.5.4l7.9.3q5.6-.2 11.3-1.5" class="b"/><path d="M8.5 97.2q8 .7 15.7-1.4 6.3 1.7 13 2 6.6.5 13-.7 3.2-.8 6.2-1.8c1.7-.3 3.5 0 5.2-.1h7c1.7 0 3.6-.3 5.2.5a85 85 0 0 0 12.2 3q5.2 1.3 10.4 2c7.5 1.2 15.1.6 22.7.6q11.7-.1 23.5.2l20 .4 7.8.4q6.7-.2 13-1.7" class="b"/><path d="M8.5 95.5a47 47 0 0 0 14.8-1q1.3-.5 2.6-.4l3.5.8a58 58 0 0 0 19.1.6q4-.8 7.9-2h12.2c1.7 0 3.5-.3 5.2.2 7.3 2.5 15 3.5 22.6 4.6 6.4 1 12.8.8 19.2.6q11.3-.1 22.6.5 10.9.5 21.8.8 4.8.1 9.6.4 7-.2 13.9-2" class="b"/><path d="M8.5 93.7q6.1.8 12.2-.2 3-.6 6-1.3l3.6.8a55 55 0 0 0 18.2.5c2.7-.3 5.3-1.3 7.9-1.8h13c2 0 4.2-.2 6.1.5a113 113 0 0 0 25.3 4.2c5.8.5 11.6.1 17.4 0q9 0 18.3.6c7.5 1 15 1.1 22.6 1.5 3.5 0 7 .5 10.5.3l7.8-.8q3-.6 6.1-1" class="b"/><path d="M8.5 92a43 43 0 0 0 19.2-1.7l1.7.4a58 58 0 0 0 20 .8q3.4-.8 7-1.6h7q6 0 12.1.2c4.4 1 8.7 2.4 13 3q8.4 1.1 16.6 1.3 7 0 14-.2c6.3-.2 12.7.3 19.1.6 1.7 0 3.5.6 5.2.8q4.8.6 9.6.8l9.6.5q3 .3 6 .2c5-.2 10-1.3 14.9-1.9" class="b"/><path d="M8.5 90q8.9 1.4 17.4-1c1.1-.1 2.4-.7 3.5-.3a60 60 0 0 0 18.3 1c2.6-.2 5.2-1 7.8-1.4q5.7-.1 11.3 0 5.3-.2 10.5 0 3.9 1 7.8 2 4.4.9 8.7 1.3c10.7 1.4 21.5.3 32.2.5q7.6.2 14.8.7c2 .1 4.1.9 6.1 1q4.8.7 9.6 1c4 .2 8.2.8 12.2.6 5-.2 9.9-1.3 14.8-1.8" class="b"/><path d="M8.5 88.2q6.6 1 13 0l7-1.4c1.1-.2 2.4.3 3.5.4a54 54 0 0 0 14.8.7q4.4-.6 8.7-1.4h14c3.4 0 7-.3 10.4.1 5.4 1.3 11 2.8 16.5 3.2 11.6 1.2 23.3-.2 34.9.4q6 .1 12.1.5c1.8.2 3.5 1 5.3 1.2q4.8.8 9.5 1.2c3.2.2 6.5.7 9.6.5 5.3-.2 10.5-1.2 15.7-1.7" class="b"/><path d="M8.5 86.2q6.6 1.2 13 .1l5.3-1c1.4-.2 3-.6 4.3-.2q7.4 1.4 14.8.9c3.2-.2 6.4-1 9.6-1.3H73c3.2.1 6.5-.2 9.6.2 5.4 1.3 11 2.7 16.5 3 6.1.7 12.2.4 18.3.4q9.1-.2 18.3 0 5.7 0 11.3.6c4.5 1.5 9.3 2 14 2.5l6 .6c5.6-.3 11-1.2 16.6-1.8" class="b"/><path d="M8.5 84.2q6.6 1.3 13 .2 4.5-.9 8.8-1.3 1.7.1 3.5.4 6.5 1 13 .4c3.2-.2 6.4-1 9.6-1 4.6 0 9.3.7 14 .8 3.4.1 6.9-.6 10.4-.7 3.2-.3 6.4.8 9.5 1.5q5.6 1.3 11.4 1.7 9.5.5 19.1.2h21q3.8 0 7.7.6 1.8.7 3.5 1a90 90 0 0 0 14.8 2.3l5.2-.5 10.5-1.2" class="b"/><path d="M8.5 82q5.6 1.3 11.3.6 4.4-.7 8.7-1.3c3.2-.3 6.4.6 9.6.7q6.1.3 12.2-.4c2.9-.5 5.8-.1 8.7.3q5.6.9 11.3 1c3.2.3 6.4-.3 9.6-.6q4.8-.5 9.6-.2c10.2 3 20.8 3 31.3 2.7l13-.3c4.1-.1 8.2-.4 12.3-.1q2.6.1 5.2.6c1.4.3 3 1 4.3 1.2q5.6 1.4 11.4 2c2.3.6 4.6.1 7-.2l9.5-1" class="b"/><path d="M8.5 79.7q5.2 1.3 10.5.8c2.8-.3 5.7-1 8.7-1q4.8 0 9.5.4 4.9.4 9.6 0c5-.5 10 .8 14.8 1.4q8.2 1.6 16.6.8 8.6-.5 17.4 0c1.7 0 3.5.5 5.2.6q4.7.6 9.6.7c7 .2 14-.4 20.9-.6 4.9-.2 9.8-.7 14.8-.6q5.8 0 11.3 2a106 106 0 0 0 14 2.6l3.4-.4 8.7-1" class="b"/><path d="M8.5 77.8c2.6-.2 5.2.6 7.8.4 3.2 0 6.4-.6 9.6-.5q6.6-.1 13 .4h8.8c7.6 1 15 2.6 22.6 3.4 4.4.5 8.8.1 13 .4l18.4.5c4 .1 8.1.6 12.2.5 3.2-.1 6.4-.8 9.5-1q7.9-.8 15.7-1.5c4.6-.4 9.4-.8 14 0q3 .6 6 1.7l8.7 2.1q2.6.5 5.3.8 5.2-.6 10.4-1" class="b"/><path d="M8.5 77.5q1.2-1 2.6-1.5h17.4q5.7 0 11.3.2 3.5-.1 7 .4c11 2 22 4 33 5q11.8 1 23.6.8c6 0 12.3.4 18.3-.8q8.2-2 16.5-3c5.2-.6 10.5-1.3 15.7-.6q3 .5 6 1.8c4.7 1.2 9.2 2.8 14 3.3 1.4.3 3 0 4.4 0q2.5-.4 5.2-.6" class="b"/><path d="M8.5 77.5c3.5-3.3 3.1-3.4 7.8-3.2h20.9c3.2 0 6.5 0 9.6.8 10.3 2.5 20.9 3.8 31.4 5.5 6.5 1.5 13.3 1.2 20 1l14-.3c2.2 0 4.6.3 6.9 0a41 41 0 0 0 7.8-1.4q3.4-1.3 7-2.2a78 78 0 0 1 15.6-2.3q3.6-.1 7 .5 2.2.6 4.4 1.4c5.1 1.5 10.2 3.5 15.6 4 2.3.4 4.7 0 7-.2" class="b"/><path d="M8.5 77.1c1.8-1.4 3.1-3.6 5.2-4.6h23.5q4-.2 7.9.7c9.1 2.5 18.5 4 27.8 5.4 3.2.5 6.4 1.3 9.6 1.4 4.4 0 8.7-.8 13-1.1q5.7-.4 11.4-.3 7-.2 14 .6l3.4.6q5.1-.8 9.6-3.2a50 50 0 0 1 22.6-3.3l9.6 2.8a47 47 0 0 0 17.4 3.7" class="b"/><path d="M8.5 76.3q1.9-1.5 3.5-3.3c.7-.8 1.6-1.9 2.6-2.2h22.6c2.3 0 4.8-.2 7 .5A161 161 0 0 0 69.4 77l7.9 1.2c2.3.3 4.7-.3 7-.7q4.3-1 8.7-1.4 7.3-.7 14.8-.3 7.9 0 15.6 1.2l5.3 1.1q1.7-.3 3.4-1c1.9-.7 3.5-2 5.3-3q4.8-2.6 10.4-3 4-.3 7.8-.1 5.7 1.5 11.4 2.6c2 .6 4 1.7 6 2.3q5.2 1.6 10.5 2" class="b"/><path d="M8.5 75.2c2.4-1.5 4-4 6-5.9 1.7-.6 3.6-.2 5.3-.3h8.7c4.6.1 9.3-.2 14 .1 3.2.9 6.3 2.3 9.5 3.1q6.5 1.7 13 2.6 5.3 1 10.5 1.6c5.7-.2 11-3.1 16.6-3.6 5.8-.5 11.6 0 17.4.4 5.5.4 11.1.5 16.5 1.5q3 .8 6.1 1.6a11 11 0 0 0 3.5-1.4q1.8-1.3 3.5-3c2.2-1.7 5-3 7.8-2.9q4.8 0 9.6.1 6.5 1.4 13 2.1a43 43 0 0 0 14 4.2" class="b"/><path d="M8.5 73.9c2.9-1.5 4.6-4.4 7-6.5 3.1-.3 6.4 0 9.5-.1h16.6c1.5 0 3 .8 4.3 1.4q3 1.2 6.1 2.2c6.6 1.8 13.3 2.7 20 3.7 3 .2 6-.7 8.7-1.4l7.9-2q2.6-.9 5.2-1.6h3.5c6 .5 12.2 1.4 18.3 1.7q6.1.3 12.2 1.1 3.6.8 7 2.2c1.6 0 3.2-1.4 4.3-2.6 1-1.4 2-3.2 3.4-4.1s3-.5 4.4-.6h9.6a79 79 0 0 0 14.8 1.4c3.9 1.7 8 3.3 12.2 4" class="b"/><path d="M8.5 72.3q3-1.2 5.2-3.8c2.3-2.4 2.7-3.2 6.1-3h22.7c1.8.5 3.5 1.7 5.2 2.5a39 39 0 0 0 7.8 2.5q7 1.5 14 2.3c2.8.2 5.8-.6 8.6-1.3q6.6-1.3 13.1-2.8 2.2-.4 4.4-1.2c.7-.2 1.8-.7 2.6-.5q6.9 1 13.9 2c6 .6 12.3.3 18.3 1.3 2.5.3 4.7 1.7 7 2.7 3.6-.4 4-5.1 6-7.5h13q5.3.9 10.5 1 3 0 6.1-.3c1.5 0 3 1 4.4 1.5q3 1.2 6 2" class="b"/><path d="M8.5 70.6c3.8-1 6.4-4.2 9.6-6.2q1.6-.8 3.5-.6h18.3c1 0 2.4-.2 3.4.2 2 1.1 4 2.6 6.1 3.4a52 52 0 0 0 12.2 3c2.6.3 5.2 1 7.8.6q3.7-.4 7-1.4l6-1q6.2-1 12.3-2.1l4.3-1.2q1.8-.5 3.5 0 5.6 1.2 11.3 1.8 6.5.6 13 .5c3 0 6.1 0 8.8 1.3 1.2.5 2.4 1.5 3.5 2.2 3.7 1.3 4-5 5.2-7.3h12.2q4.7.8 9.6.8 3 0 6-.4c1.8-.2 3.6-.7 5.3 0q3 1.3 6 2.2" class="b"/><path d="M8.5 68.9c4.9-1 8.3-5.4 13-6.6 2.9-.5 5.9-.2 8.8-.2H39c4 0 3.8-.5 7 2.1a20 20 0 0 0 6 3q6 1.8 12.2 2.2 4-.3 7.9-1c1.4-.3 2.9-1 4.3-1.1 7-.9 14-1.4 20.9-2.7l6-1.4q4.9 1.2 9.7 1.9 5.6.6 11.3.5c4.3.1 8.9-1 13 .5 1.8.7 2.9 2.5 4.4 3.5h1.7c1-1 1.5-5.8 1.8-7q.8-.7 1.7-.6h3.5l5.2.1q4.8.6 9.6.7c4 .1 8.1-1 12.2-.8q3.2-.1 6 .8" class="b"/><path d="M8.5 67.1c4.7-1 8.5-4.3 13-5.7q2.2-.6 4.4-1H32c3.7 0 7.6-.3 11.3 0 4 4.3 6.4 5.7 12.2 6.6q4.4.9 8.7.3 4.9-.5 9.6-1.8c1.6-.7 3.5-.4 5.2-.6a283 283 0 0 0 20-2c2.4-.2 4.7-1.1 7-1.2a61 61 0 0 0 26.1 1.3c2.9-.3 6.3-1.2 8.7.8 1 1 2 2.8 2.7 4l2.6-.1c1.7-2.3 2.2-6.2 5.2-7.3 3.8 0 7.5.8 11.3.8 3.8.2 7.6-.4 11.3-.8h9.6" class="b"/><path d="M8.5 65.3c5.2-1.1 9.6-4.3 14.8-5.5q2.6-.7 5.2-1.2h5.2q4.9-.2 9.6.1c2.4 3.2 3.7 5.3 7.9 6.4q3 .8 6 .9l9.6-1.4q3.7-.6 7-1.7c1.4-.3 3 0 4.3 0q14 .2 27.9-2.5c.8-.1 1.8-.5 2.6-.1a54 54 0 0 0 24.4.4c2.8-.6 5.7-1.7 8.7-1.7 1.6 2.1 2.2 5.4 4.4 7h1.7c1.4-.7 2.4-2.3 3.5-3.4a10 10 0 0 1 4.3-2.8q4-.1 7.9-.1c3.4 0 7-.7 10.4-1q4.8-.1 9.6-.1" class="b"/><path d="M8.5 63.5c3.6-.8 7-2.4 10.5-3.7q4.2-1.3 8.7-2.3c2.5-.8 5.2-.7 7.8-.7h4.4q1.7-.2 3.4.3c1.2 2 2.1 4.8 4.4 6 4.4 2.2 9.3.7 14 0 4-.7 8.2-1.3 12.1-2.8 2.3.1 4.7.6 7 .6q14.4.3 28.7-2.3a45 45 0 0 0 25.2-.5c2.5-1 5.8-2.3 7.9 0 2.2 1.8 4.5 7.3 7.8 6 3-2 6-4.4 9.6-5.4l6-.6q4-.6 8-1.2h9.5" class="b"/><path d="M8.5 61.6q5.3-1.3 10.5-3.3 3.3-1 7-1.7l6.9-1.4q4.7-.2 9.6 0c1.7 1.6 1.7 4.8 3.4 6.4 3.2 2 7.1.6 10.5 0 4.3-1 8.7-1.5 13-2.5q2.3-.5 4.4-1.3 3 .6 6 1 15.8 1 31.4-1.7 1.8 0 3.5.5l4.4.5a32 32 0 0 0 17.4-2.7c5.2-1.4 9 3.7 13 6.1 2.7 1.7 3.6.6 6.1-.6q3-1.5 6.1-2.5 6.5-2.2 13-3.3h8.8" class="b"/><path d="M8.5 59.7c3.5-.7 7-2 10.5-3q3.3-.9 7-1.4c4-.6 8-2 12.1-2 3 1 4.1 4.5 6.1 6.6.9 1.1 2.2 1 3.5 1a8 8 0 0 0 3.5-.5c7.2-2.8 15.3-2.2 22.6-5 .9-.2 1.8.3 2.6.6l2.6.6q6.1.8 12.2.7 11-.1 21.8-1.7c1.7-.2 3.5.4 5.2.5 4 .4 8.2.6 12.2-.4q2.6-.8 5.2-2c5.3 0 10.2 2.9 14.8 5.3 4.4 2.1 4.2 2 8.7.3q6.5-2.2 13-3.8c3.8-1 7.5-2.4 11.4-2.1" class="b"/><path d="M8.5 57.8c3.5-.7 7-1.9 10.5-2.7q4.7-1 9.5-1.7l5.3-.7c1-.2 2.5-.6 3.4.3 2.3 1.5 3.9 4.1 6.1 5.7 1 .6 2.4.4 3.5.4 1.2.2 2.5-.6 3.5-1.2q2-1 4.3-1.5c6.7-1.2 13.6-1.3 20-3.6 7.3 3.7 19.8 2.7 28 2.3q6.4-.5 13-1.2 3 .4 6 .5 4.1.3 7.9-.4c1.8-.3 3.5-1.3 5.2-1.5q4.9.6 9.6 1.8c4.4 1.2 8.6 3.3 13 4.4 1.2.3 2.5-.2 3.5-.5l5.3-1.2c5.7-1.2 11.5-2.7 17.4-3.5" class="b"/><path d="M8.5 56q5.3-1.2 10.5-2.6 5.2-1 10.4-1.3c7-.6 6-.7 11.3 3.9a6 6 0 0 0 2.6 1.4q1.8.1 3.5-.5 2.3-1.2 4.4-2.9c2.3-1.1 5.2-1 7.8-1.2q4.8-.3 9.6-1c2-.3 4-1 6-1.3q5.8 2.8 12.3 3a127 127 0 0 0 24.3-.7l5.3-.6 3.4.3q6.7.6 13.1-1.2 5.7.6 11.3 1.5c5 .9 9.9 2.5 14.8 3.8q1.8.5 3.5.5l6-1q7.5-1.2 14.9-1.3" class="b"/><path d="M8.5 54c3.5-.5 7-1.6 10.5-2.2q6.4-1 13-1c1.8.2 3.8.4 5.2 1.7 4.7 4 6.3 4.3 11.3.6l5.3-3.5c1.6-.3 3.5 0 5.2 0q7 .2 14-1.2c1.5-.5 3 .7 4.3 1.2q2.4 1 5.2 1.5c7.7 1.3 15.7.9 23.5.5l11.3-1q4 .2 7.9.2 2.2 0 4.3-.5 1.3-.4 2.6-.4l9.6 1.1c8.2.9 16.2 3 24.4 4.3 2.3.3 4.7-.2 7-.3q5.2-.4 10.4 0" class="b"/><path d="M8.5 52.2c5-.8 9.8-2.3 14.8-2.5 4-.2 8.3-.4 12.2 1 2.6 1 4.8 4.1 7.8 3 4-1.9 7.3-5 11.4-6.8q1.6-.7 3.4-.4l4.4.1c3.7.1 7.5-.3 11.3-.2 1.2 0 2.4.8 3.5 1.2q1.6.8 3.5 1.2c4.5 1.2 9.2 1.3 13.9 1.4q10.5 0 20.9-1.2c3.1-.5 6.4 0 9.6 0q2.6 0 5.2-.6 3 .1 6 .6 9.7 1 19.2 2.3a131 131 0 0 0 27.9 2.2" class="b"/><path d="M8.5 50.3c3.5-.4 7-1.4 10.5-1.8 4.8-.4 10-.7 14.8.6q1.8.5 3.4 1.5c1.6 1 3.4 2.1 5.2 1.3 4-2 7.3-5 11.4-6.7 2.4-1 5.2-.4 7.8-.6h12.2c2.1 0 4 1.6 6 2.1q5.3 1.3 10.5 1.5c9.6.5 19.2-.2 28.8-1.2q3.8.3 7.8.1c1.4 0 3-.4 4.4-.2q12.6 1.4 25.2 2.6c9 1 18 2 27 1.3" class="b"/><path d="M8.5 48.5c3.2-.4 6.4-1.2 9.6-1.5a46 46 0 0 1 14.8.6q2.2.6 4.3 1.7c1.3.7 3 1.5 4.4.8 4-1.9 7.2-5 11.3-6.7 2.5-.9 5.3-.3 7.8-.5h13.1c1.8 0 3.5 1.2 5.2 1.7q3 .9 6.1 1.3c11 1.3 22.1.4 33-.5 3.5 0 7 .4 10.5-.1 1.7-.3 3.6.1 5.3.3l8.7 1c13.6 1 27.2 2.5 40.9 1.9" class="b"/><path d="m8.5 46.6 8.7-1.2c4.6-.3 9.4-.4 14 .5q2.6.6 5.2 1.6c1.3.6 2.9 1.5 4.3.9 4-1.7 7.2-5.2 11.3-6.7 1.7-.7 3.5-.5 5.3-.5h17.4q1.3.1 2.6.9c9.7 4 26.7 2.5 37.4 1.7 3.2-.4 6.4 0 9.6 0q2.6 0 5.2-.3 2.6.1 5.2.5 10.8 1.4 21.8 1.9 13.5.9 27 .5" class="b"/><path d="M8.5 44.8a64 64 0 0 1 22.6-.3q3.6.9 7 2.1c3.7.7 9.2-4.3 12.2-6.3q2-1.1 4.3-.9h20.1q2.2.6 4.3 1.5 3 .9 6.1 1.3c9.2 1.1 18.6.6 27.9-.1 3.7-.6 7.5 0 11.3 0q3 0 6-.4l3.5.5c16.5 2.3 33.1 2.6 49.7 2.3" class="b"/><path d="M8.5 43c7.5-1 15.2-1.5 22.6 0q3.6 1 7 2c1.8 0 3.6-1 5.2-1.6q3.6-1.6 7-3.6c4.3-2.6 5.7-2.1 10.4-2.1h13c1.6-.1 3 .7 4.4 1.1q3 1 6.1 1.5c9.3 1.2 18.6.6 27.9 0 3.8-.6 7.5.3 11.3.2q3 0 6.1-.3 2.2-.3 4.4.2c16.3 2.6 33 2.5 49.6 2.4" class="b"/><path d="M8.5 41.2q10.5-1.7 20.9 0c3 .5 5.8 1.5 8.7 2q5-1.2 9.6-3.2c3.4-1.4 6.8-3 10.4-3.8 2-.4 4.1-.2 6.1-.3h9.6c1.5 0 3 .7 4.4 1.1q3 .9 6 1.4c9 1 18 .5 27 0q2.7-.4 5.2 0a77 77 0 0 0 12.2.2q2.7-.5 5.3 0c16.3 2.7 33 2.5 49.6 2.5" class="b"/><path d="M8.5 39.4q10-1.4 20 .1c11 2 7.2 2.8 18.3-.6 5.5-1.7 11-3.5 16.5-4.4 3.8-.5 7.6-.2 11.4-.3 2.8.6 5.7 1.8 8.7 2.1 8.6 1.2 17.4.6 26 0a17 17 0 0 1 5.3.3 74 74 0 0 0 14 .4c1.6-.1 3.5-.6 5.2-.2 16.3 2.9 33 2.5 49.6 2.6" class="b"/><path d="M8.5 37.5c9-1 18.2-.1 27 1.8 2 .6 4.1-.2 6-.6l8-2q9-2 18.2-3.7c2.6-.3 5.3-.7 7.8-.4l5.3 1.4c9.1 1.7 18.6.9 27.8.3q1.8 0 3.5.3a64 64 0 0 0 17.4.7l3.5-.4 5.2.9q5.2.8 10.5 1.1c11.5.8 23.2.8 34.8.9" class="b"/><path d="M8.5 35.7a95 95 0 0 1 27.9 2.1c3.2-.2 6.4-1.2 9.5-1.8L59 33.6c5.5-.8 11-2 16.5-2.5q1.4-.1 2.6.3l4.4 1q6 .6 12.2.5 6.5-.2 13-.7 9 2 18.3 1.6 4 0 7.9-.6 7.3 1.5 14.8 2c11.5.8 23.2.7 34.8 1" class="b"/><path d="M8.5 34c9.3-1 18.7.7 27.9 2q6.5-1 13-2.2L66 31.5c4.3-.6 8.7-1.7 13-1.8 6.9 1.4 14 1.1 21 .7l6-.4 6 1.4q7 1 14 .7c3 0 5.9-.5 8.7-.6q7.4 1.4 14.8 2c11.3.8 22.7.7 34 1" class="b"/><path d="M8.5 32.1c9-.7 18 1 27 2.2 5-.5 9.8-1.6 14.8-2.1 7-.9 14-1.5 20.9-2.7l6-1c.8 0 2-.3 2.7-.5q1.3 0 2.6.2c6.3.7 12.8.2 19.1-.2l2.6-.2 2.7.8q3 .9 6 1.3 10.5 1.2 21 0c2-.4 4 .6 6 .7q4.3.7 8.7 1c11.6 1 23.3 1 34.9 1.3" class="b"/><path d="M8.5 30.3c8.8-.4 17.5 1.2 26.1 2.2 2 0 4.1-.5 6.1-.7l9.6-1.2q12.7-1 25.2-3 2.3-.3 4.4-.9 1.3-.4 2.6-.7l1.7.2c5.8.3 11.7-.3 17.4-.5 1.5 0 3 .7 4.4 1q2.6.9 5.2 1.3 12.1 1.6 24.4 0c15.7 3.3 32 2.5 47.9 3.3" class="b"/><path d="M8.5 28.5c8.8-.2 17.4 1.5 26.1 2.3q9-1.1 18.3-2c8.7-.7 17.5-1.4 26.1-3.2 1.8-.4 3.5-1.3 5.2-1.6h5.3q6-.3 12.2-.2 6 2.2 12.1 2.8 11 1.1 21.8-.2c15.8 3 32 2.5 47.9 3.4" class="b"/><path d="M8.5 26.8c5.8 0 11.6.8 17.4 1.4 3.5.4 7 1.2 10.5.6q12-1.3 24.3-2.2c6.7-.6 13.6-1 20-3 1.5-.4 3-1.2 4.4-1.5l5.2-.1q5.7-.2 11.3.1 3 1 6.1 1.9 5.2 1 10.5 1.2 8.7.4 17.4-.5c1.7-.1 3.5.6 5.2.8l7.9 1c11.5 1 23.2 1 34.8 1.7" class="b"/><path d="M8.5 25c7.9.3 15.7 1.6 23.5 2.3q6.6-.5 13-1.1 11.4-.8 22.7-1.7c4.7-.6 9.5-1 14-2.7l3.4-1.4c2-.3 4.1 0 6.1-.1h6.1q2.2-.2 4.4.1a52 52 0 0 0 17.4 3q8.3.3 16.5-.4c1.7-.2 3.5.6 5.2.7q4.4.8 8.7 1.1c11.3 1 22.7 1.1 34 2" class="b"/><path d="M8.5 23.5c7.3.3 14.5 1.5 21.8 2 6-.2 12.2-1 18.3-1.3q10.5-.4 20.8-1.4c4.4-.6 9-1 13.1-2.9q1.6-1 3.5-1.4h11.2q2.3-.2 4.4.3a52 52 0 0 0 17.5 3q8.3.1 16.5-.5c1.7-.2 3.5.6 5.2.8q4.4.6 8.7 1c11.3 1 22.7 1.2 34 2.2" class="b"/><path d="M8.5 22c6.7.4 13.3 1.4 20 1.8q10.5-.7 21-1.3c6.9-.3 13.9-.4 20.8-1.3 4.4-.5 9-1.1 13-3.3q1.3-.6 2.7-1l6-.1h6.2q1.7 0 3.4.3c5.3 2 11 2.6 16.6 2.8q8.3.1 16.5-.3c2-.3 4.1.5 6.1.8l9.6 1.2c11 1 22 1.3 33 2.2" class="b"/><path d="M8.5 20.7 25.9 22q11.3-.8 22.7-1.2c6.9-.3 14-.3 20.8-1 4.8-.6 9.7-1.2 14-3.5q1.2-.7 2.6-1.3h11.3c1.4 0 3-.2 4.3.3 5.3 2 11 2.5 16.6 2.6q8.3.2 16.5-.2c1.1-.2 2.4.3 3.5.5l4.4.7q6.5 1 13 1.4l16.5 1c3.8.2 7.6.8 11.4.7" class="b"/><path d="M8.5 19.5c4.6.3 9.3 1 14 .9q13-1 26-1.2c7-.2 14-.2 21-.9a33 33 0 0 0 16.5-5h13.9q1.8.2 3.5.9C112.9 17 123 16 133 16q2.2-.1 4.3.5l5.2.9q8.8 1.2 17.5 1.7l13 .9q5.3.6 10.5.2" class="b"/></svg>