<svg xmlns="http://www.w3.org/2000/svg" id="a" width="1920" height="2400" viewBox="0 0 192 240"><defs><style>.b{fill:none;stroke:#fff;stroke-miterlimit:10;stroke-width:.3px}</style></defs><path d="M0 0h192v240H0z" style="stroke-width:0"/><path d="M8.2 226.9c5.5-.1 11 .9 16.6 0 4.8-.7 9.2-2.9 14-3.7 3.1-.7 6.4-.4 9.6-.5 6.8-.3 12.3-4.8 18.3-7.4 6.5-3 13.6-.5 20.1 1.1 3.1.8 6.4 1.3 9.6.6 6.8-1.5 10.5-2.4 17.5-.6 5.2.9 10.5.4 15.7.2q4.5.2 8.8 0 5.3-.1 10.5-1.2c6-.7 11.5-3.3 17.4-4s11.7.4 17.5 0" class="b"/><path d="M8.2 223.5c4.3-.2 8.8.1 13-.6 5.3-.8 10.5-2.4 15.8-3 5.2-.7 10.6 0 15.7-1.3s9.2-4.7 14-6.6c6-2.5 12.4.2 18.4 1.1 3.1.5 6.4 1 9.6.6 4.9-1 9.8-2.9 14.8-2.2 3.5.5 7 1.5 10.5 1.4 4.1.2 8.2-.7 12.3-1.1 6-.3 12.3-.2 18.3-1.5 4.7-.9 9.2-3 14-3.2 3.2-.3 6.4 0 9.6-.1q4.8-.2 9.6-.6" class="b"/><path d="M8.2 219.4c3.5-.2 7 0 10.5-.7q5.2-1 10.5-2l7-.4q9.1-.6 18.3-2.5c4.7-1.4 9-4 14-4.7 4-.5 8.1.8 12.2 1.2q6.5.6 13.1 0c5-1 9.8-2.6 14.9-2 4.3.6 8.7 1.9 13 1.5 3.3-.1 6.5-1 9.7-1.7q3.5-.6 7-1 6.1-.2 12.2-1.7c3.2-.7 6.4-1.9 9.6-2.3 4-.6 8.2.3 12.3.4 3.7 0 7.5-1 11.3-1" class="b"/><path d="M8.2 214.4q3.5-.3 7-.4 4.3-.5 8.7-1.1c4-.7 8.2-.3 12.2-.5 4.5-.3 8.8-1.7 13.2-2.6l5.2-.7 7.9-1.4a31 31 0 0 1 7-.4q3.4.3 7 .9 5.2.7 10.4-.6 4-.7 7.9-1.2a42 42 0 0 1 11.4-.8c7.8 1 13.9 3 21.8.3 5.4-1.9 11-2.4 16.6-3.6 5-.8 9.8-2.6 14.9-3.1 4-.4 8.1 1 12.2 1.3 4 .1 8.2-1.1 12.2-1" class="b"/><path d="M8.2 208.8q3.8-.5 7.8-.5h9.6c3.8 0 7.7.6 11.4-.1 4.2-.7 8-2.7 12.2-3.5 2.3-.4 4.7-.1 7-.3q6-.3 12.3.6c4.3.8 8.7 2 13 1 3-.5 5.9-2 8.8-2.7q5.6-1.2 11.4-1c8.3.9 16 4.1 24.4 1.2q3.5-1.3 7-2.4 5.3-1.3 10.5-2.4c5-1 9.8-2.7 14.9-2.8 4.5 0 8.7 2 13 2.3 4.2.1 8.3-1 12.3-.5" class="b"/><path d="M8.2 203.5c3.7-.7 7.6-.4 11.3 0q6.6.8 13.1 1c5.3.1 10-3 14.9-4.4 3.7-1 7.6.2 11.4.5q4.9.5 9.6 1.8c2.5.7 5.2 1.7 7.8 2 6.3 1 10.9-3.8 16.6-4.8 5-1.2 10-.6 14.9.9 5 1.2 10.6 2 15.7.7 3-.8 5.9-2.3 8.8-3.3q5.5-1.7 11.3-2.8c5-.9 9.9-2.8 14.9-2.2 4.2.4 8 2.7 12.2 3.3 4.4.3 8.8-1 13.1-.2" class="b"/><path d="M8.2 199.2c4-.8 8.2-.1 12.2.4q5.7.6 11.4.7c5.5.2 10.3-3.5 15.7-4.3 3.5-.5 7 1 10.5 1.4q5.3.8 10.5 2.4 3.9 1.5 7.9 2.7c4.5 1.1 8.4-1.2 12.2-3.3q3.3-1.7 7-2.4c4.7-1.2 9.4 0 14 1.2 4.2.8 8.8 1.5 13 .6 3.5-.7 6.5-2.6 9.7-3.9q4.7-1.6 9.6-2.3l7.8-1.5c2.9-.7 5.9-1.3 8.8-.7 4.2.6 8 3.2 12.2 3.8 4.4.2 8.8-1 13.1-.2" class="b"/><path d="M8.2 195.7c4.6-1 9.3.3 14 .2q6-.2 12.2-.6c3-.5 5.8-1.6 8.7-2.1 5.4-1.4 8.2.4 13.1 1.5q4.9.8 9.6 1.8 4.5 1.3 8.8 3.4c6.1 3 9.5.8 14.8-2.2 4.6-2.1 9.7-4.1 15-3.5q3 .4 6 1.1 4 .6 7.9 1c6.8.5 10.6-3.3 16.6-5 4.3-1.2 8.8-1.4 13.1-2 3-.5 5.8-1.7 8.7-1.6 4.7 0 8.7 2.6 13.2 3.4 4.6.5 9.3-1 14 0" class="b"/><path d="M8.2 191.7c4.3-.9 8.7.3 13-.1 4.2-.3 8.2-1.4 12.3-1.4 3.5-.2 7-1 10.5-1 4.4-.3 8.1 2.2 12.2 3.2 5.4 1.2 11 2 15.8 4.6 3.4 2 7.3 4.4 11.3 3 2.8-.8 5.3-2.6 7.9-4 4.2-1.7 8.4-4.1 13.1-4 3.2.2 6.4 1 9.6 1.2 4 .8 8.3 1.3 12.3-.2 2.9-1 5.6-2.8 8.7-3.5 4.3-1 8.8-1 13.1-1.6 3-.4 5.8-1.6 8.7-1.8 4.5-.4 8.8 1.6 13.2 2.3 4.6.4 9.4-.8 14 .6" class="b"/><path d="M8.2 187.2c4.3-1 8.7 0 13-.6q4.6-.6 8.8-1.4 6-.4 12.3 0 3 .2 6 1.2c2.4.8 4.7 2 7 2.8 4.7 1.4 9.6 2.4 14 4.5 4 1.8 7.7 5 12.3 4.8 2.1 0 4.2-1.1 6.1-2a63 63 0 0 1 15.7-6q3.5-.2 7 .3 4 .2 7.9.9 4.5.7 8.7-.5c2.3-.6 4.7-1.7 7-2.3 4.6-1 9.4-1 14-2 3.8-.6 7.5-2.2 11.3-2.2s7.6 1.2 11.4 1.6c4.4 0 9 .1 13.1 1.8" class="b"/><path d="M8.2 183c4.2-1.3 8.7-.8 13-1.4 4.7-.4 9.4-1.5 14-1q5.9.3 11.4 1.8 3.6 1.4 7 2.7 7.1 2.1 14 5.1c5.2 2.4 10.6 6.4 16.6 4.8 3.5-1 7-2.7 10.5-3.8a59 59 0 0 1 20-2.6q5 .5 9.7.8c3.2.1 6.4-.8 9.6-1.3q4.9-.6 9.6-1.2c5.6-.8 11-3.2 16.6-3.4 3.2 0 6.5.9 9.6 1.3q3.1.1 6.1.7 4.1.9 7.9 2.5" class="b"/><path d="M8.2 179.2c4.2-1.4 8.7-1.6 13-1.7l11.4-.5q5 .2 9.6 1.4 3.6.7 7 1.7a74 74 0 0 1 16.6 6.2c5.4 3 11.3 5.8 17.5 4.8 3.5-.6 7-1.7 10.5-2.4q5.3-.8 10.5-1.7c3.5-.7 7-1.7 10.5-1.9 5-.3 9.9 1.3 14.8 1.4 5.3-.4 10.6 0 15.8-1.1s10.3-3.2 15.7-3c3.8.3 7.5 1.7 11.4 1.8 4 .5 7.6 2.4 11.3 3.8" class="b"/><path d="M8.2 176.2c8.9-3.1 14-1.2 22.7-1.2 5-.5 9.9 1 14.9 1.5 10.3 1.4 13 2.3 21.8 7.7 8.8 5.8 17.6 1.3 27 .8q5 .2 9.7-1c3.7-1.2 7.4-2.9 11.4-3.2 4.4-.6 8.8 1 13 2 2 .5 4.2.4 6.2.7q4.7.8 9.6.3c5.3-.8 10.4-3 15.7-2.6 4.2.3 8 2.2 12.3 2.4 3.9.5 7.5 2.5 11.3 3.4" class="b"/><path d="M8.2 173.9c3-1 6.3-1.9 9.6-1.7 5.2.1 10.4 1.8 15.7 1.1 3 0 5.9.5 8.8.7q6.1.3 12.2 1c5.2 1.1 9.5 4.4 14 6.9 4.6 2.9 9.8 1.9 14.8.8q6-1.6 12.3-1.6 3.5.2 7-.6 3.5-1 7-2.6a22 22 0 0 1 14.8-.3q3 1.1 6.1 2 2.2.3 4.4.8c3.4.8 7 1.7 10.5 1.4 5-.4 9.8-2.5 14.8-2 3.6.3 7 1.9 10.5 2.3 4.5 0 8.7 2 13.1 2.4" class="b"/><path d="M8.2 171.6c6.6-2 11.7-1 18.3-.4q3.5.2 7-.1 3 0 6.1.6 5.3.8 10.5 1.1 5 0 9.6 2c3.6 1.4 7 3.8 10.5 5.3 6.2 2.6 12.4-1.5 18.4-2.7 3.1-.8 6.4-.6 9.6-.6q3.6-.1 7-1.4l5.2-1.8q5.7-1.5 11.4 0c3.5.8 6.8 2.6 10.5 3.1 4.9 1 9.7 3 14.8 2.9 5 0 10-1.5 14.9-.7q3.5.8 7 1.2 2.6.1 5.2.1c3.2.3 6.4 1 9.6.9" class="b"/><path d="M8.2 169.1c4.3-1 8.7-.4 13-.2 4.2.3 8.3-.3 12.3-.6 3.3.1 6.4 1.3 9.6 1.9q3.5.6 7 .8 2.7.1 5.3.2c3.7.4 7.2 2 10.4 3.7 3 1.4 6.2 3.2 9.7 2.6 8.5-1.7 12-6.6 21.8-5.3q4.6.5 8.7-1c3.4-1 7-1.8 10.5-1.4 4.6.5 8.8 2.6 13.1 3.9q4 .7 8 1.4 5.6 1.4 11.3 2.3c2.8.4 5.8.2 8.7.6 3.2.1 6.4.7 9.6.7 2.3 0 4.7-.6 7-.8q4.9.2 9.6-.2" class="b"/><path d="M8.2 166.3c5-.8 9.9 1.2 14.8.7 7-.6 9.4-2.6 16.6-.3q5.2 1.4 10.5 1.4 3-.1 6.1 0 3.6.1 7 1.4c3.2 1 6.3 2.8 9.6 3.4 6 .5 11-3.7 16.6-5 4.7-1.4 9.3.9 14 .4 6.3-.7 9.2-2.4 15.7 0 3.8 1.4 7.5 3.4 11.4 4.2 2.9.5 5.9.2 8.7.5q5 .7 9.7 2.5 2.5.8 5.2 1.2a29 29 0 0 0 14 .8c2-.5 4-1.3 6.1-1.6 3.2-.6 6.5-.6 9.6-1.1" class="b"/><path d="M8.2 163.7c4.7-.5 9.2 1.9 14 1.4 3.2-.2 6.4-1.4 9.6-2 2.6-.3 5.2.2 7.8.5q5.7.8 11.4.2c4-.5 8.2-.9 12.2.2 3.8.9 7.4 3 11.4 2.9 6-.1 11.4-4 17.5-4.2 4.1.1 8 2.2 12.2 2 7-.2 9-1.5 15.7 2.2 4.6 2.5 9.5 5.8 14.9 4.6q3.5-.6 7-.2c2.7.4 5.4 1.6 7.9 2.8 3.4 1.2 6.8 2.7 10.5 3.2q3 .5 6-.4c2.1-.7 4.2-1.8 6.2-2.5 3.6-1.3 7.6-1.5 11.4-2.2" class="b"/><path d="M8.2 161.7c2.6-.3 5.3.4 7.8 1q4 .8 8 .3c2.9-.5 5.7-1.7 8.7-2 4.6-.5 9.3-.4 14-1.3 5.4-.9 11-2.4 16.5-1.5 2.7.4 5.3 1.3 7.9 1.8 5.6 1.1 11.1-1 16.6-1.8 6-1.2 9.3 1.5 14.9 2.4 5.4.8 9.6-1.2 14.8 2 5 2.6 9.6 7.8 15.7 7.3 2.6-.2 5.3-1 8-.7 3 .3 6 1.8 8.7 3q4.6 2.1 9.6 3.4c5.2 1 8.6-1.4 13-3.4 3.7-1.5 7.7-2 11.4-3" class="b"/><path d="M8.2 159.5c4.6-.8 9.3.9 14 .5 3.2-.2 6.4-1.1 9.6-1.7q8.3-1 16.6-3.2c4.6-.8 9.3-1.8 14-1.7 3.7.1 7.5 1.3 11.3 1.3 5.3 0 10.5-1.9 15.7-2.2 4.3-.4 8.2 1.8 12.3 2.7 3.4 1 7 .6 10.5 1.2 7 1.6 11.6 8.1 18.3 10.3q3 .6 6.1.4c4.6-.2 9 1.2 13.1 2.8q4.4 1.1 8.8 2 4 .7 7.8-.3 3.2-1 6.2-2.3c3.6-1.4 7.6-2 11.3-3.2" class="b"/><path d="M8.2 156.7c3.4-.9 7-.7 10.5-.9q5.3-.2 10.5-1.2 7.5-.9 14.8-2.5 5.6-1.1 11.4-1.5 4.7-.9 9.6-1c3.2 0 6.4.4 9.6.3 4.1-.2 8.2-1.6 12.2-2.5 5.3-1.5 10 .7 14.9 2.2 4.6 1.4 9.6 1.7 14 4 6.3 3 11.3 8.7 18.3 10.1a101 101 0 0 0 16.6 3.1c5.5 0 11.1.6 16.6.1q3.6-.6 7-1.6 4.9-1.2 9.6-2.7" class="b"/><path d="M8.2 153.6c8-2.1 16.2-3.8 24.4-4.2 4.7-.4 9.3-1.4 14-1.6 2.9-.3 5.9 0 8.8-.3 4.3-.5 8.7-1.6 13-2 2.7-.1 5.4.2 8-.2q4.8-.8 9.5-2.3c5.8-2 11.2 0 16.7 1.9q9.5 3 18.3 7.5c3.6 2 6.9 4.5 10.5 6.4 2.9 1.4 5.7 3.2 8.7 4.2 6.4 2 12.9-1.2 19.3-1.6 3.5-.4 7 .7 10.5.6q7.2-.7 14-3.4" class="b"/><path d="M8.2 150.3q3.5-1 7-2.3c3-1.1 6.3-2.4 9.6-3 3.7-.7 7.6-.4 11.3-.7q4.8-.6 9.6-.5 4.5.2 8.8.4c4.8-.1 9.3-2 14-2.8 2.8-.5 5.8-.1 8.7-.5 3.5-.3 7-1.3 10.5-2 4-1 8.3.2 12.2 1.3 5.5 1.5 10.4 4.5 15.8 6.5a54 54 0 0 1 14.8 7.6c3.2 2 6 4.7 9.6 6 3.2 1.3 6.7.3 9.6-1q4-1.6 7.9-2.9c10.6-2.3 9.6 5.4 26.2-2" class="b"/><path d="M8.2 146.8q3.5-1 7-2.3c3-1.4 6.2-2.9 9.6-3.6 3.1-.8 6.4-.5 9.6-.5 3.5-.2 7-.8 10.5-.9l8.7.3q3.1 0 6.1-.9c3.5-1 7-2.4 10.5-2.8 2.3-.3 4.7 0 7 0H86c9.5-.7 18.7 2.5 27.1 6.5 3.8 1.3 7.9 2.1 11.4 4.1q5 2.9 9.6 6.4c4 3 8 5.7 13.1 3.5q3.5-1.6 7-2.8c2.5-1 5.2-2 7.9-1.9s5.2 1.3 7.9 1.8c4.8.8 9.6-1.3 14-3.4" class="b"/><path d="M8.2 143.5q3.6-.8 7-2.3c4.4-2.2 8.9-5 14-5.3 2.8 0 5.8.5 8.7.1q5.7-.6 11.3-1 2.7-.1 5.3-.1c7.2-1 13.3-5.2 21-4 7.3 1 14.4 3.5 21.8 4.4 5.3.5 10.8.8 15.7 3.2 3.8 1.3 7.8 2.1 11.4 4q5 2.7 9.6 5.9c3.5 2.5 7.8 4.8 12.2 3.7l7.9-2c2.5-.8 5.2-1.7 7.9-1.7 2.6 0 5.2.8 7.8 1.2 4.9.7 9.6-1 14-2.8" class="b"/><path d="M8.2 139.6q4-.9 7.8-2.7c4.4-2.3 8.9-5.4 14-5.2 1.7 0 3.5.5 5.3.6q3 .3 6 .1 4.5-.3 8.8-1 2.7-.1 5.3-.7c4.3-1.2 8.5-3.2 13-3.7 8-1 14.7 1.7 22 4.4q4.1 1.7 8.7 1.6c4 0 8.3-1 12.2.5l5.2 2q6 1.6 11.4 4.4c3.5 1.8 6.8 4 10.5 5.4 3.6 1.5 7.5 1.5 11.3 1.2q3.1 0 6.2-.5 3.3-.6 7-.7c3.1 0 6.4.4 9.6.4 3.8 0 7.7-1 11.3-2" class="b"/><path d="M8.2 135c2.6-.9 5.4-1.4 7.8-2.5 4.4-2 9-4.6 14-4 2.7.3 5.3 1.3 7.9 1.7q4.4.8 8.7.2 4.6-.7 8.8-2c4.5-1.8 9-3.9 14-3.8 4.9 0 10-.3 14.8 1l6.1 2q3 1.6 6.2 2c5.5.8 11.4-2 16.6.9 4.5 2 9.4 3.2 14 5 4.6 1.9 9 4.1 14 4.9q3.8.7 7.8 1.2 3 .6 6.1 1c3.2.2 6.4-.2 9.6-.2q4.9-.1 9.6-.2 5-.5 9.6-1.8" class="b"/><path d="M8.2 129.2q3-1 6-1.5 4-1 8-2c8-1.3 14.1 4 21.8 4.1 3 0 6-1 8.8-1.7 2.7-.9 5.2-2.4 7.8-3.5q3.8-1.6 7.9-1.7c2.3 0 4.7.3 7 0 3.7-.7 7.6-1.6 11.3-.9 3.4.4 6.4 2.5 9.7 3.2 4 1 8.1 0 12.2.5 2.8.3 5.2 2 7.9 2.8q5.6 2 11.3 3.5c2.4.6 4.6 1.7 7 2.1 3.5.7 7 .8 10.5 1.5 4.4.8 8.6 3 13.1 3.5 4 .5 8.2.1 12.2 0 4.5.2 8.9-1.2 13.1-2.3" class="b"/><path d="M8.2 123.3q3.4-1 7-1.1 4.4-.6 8.7.4c3.9 1 7.6 2.7 11.4 4 4 1.8 8.7 2.8 13 1.4q3.2-.9 6.2-2.1c3.4-1.7 6.7-3.9 10.5-4.7 3.4-.8 7 .3 10.5-.6 4.5-1.1 9.1-3.3 14-2.3 2 .3 4 1.5 6 2.2q4 1.2 8 1.7 3.4.2 7 1 5 2.3 10.4 3.5l8.7 2c1.7.5 3.5 1.3 5.3 1.4 3.7.5 7.6 0 11.3.8 4.9 1 9.2 3.7 14 4.3q4.9.8 9.6.8h4.4c3.3-.7 6.5-2.1 9.6-3.3" class="b"/><path d="M8.2 117.8c5-1.8 11-1 15.7 1.5 6.6 3.8 13.9 9 21.9 7l8.7-3.1c3.4-1.6 6.8-3.7 10.5-4.5 3.1-.9 6.4 0 9.6-.6 3.6-.8 6.9-2.7 10.5-3.5 4.8-1.2 7.9.3 12.2 2a87 87 0 0 0 12.2 3.8c5.7 1.9 11.7 2.6 17.5 3.7 2.4.4 4.7 1.3 7 1.6 2.9.3 5.9-.3 8.8-.4q5.5-.2 10.4 2.2a59 59 0 0 0 20.1 5.2c3.8-.3 7.2-2.4 10.5-3.9" class="b"/><path d="M8.2 113.8c4.8-1.9 10.5-1.3 14.8 1.5 2.8 1.7 5.2 4 7.9 5.8q4.8 3.1 10.5 3c3.7-.3 7-2.4 10.5-3.5 4.8-1.3 9-4.3 14-5.1 3.1-.8 6.4 0 9.6-.8 8.2-2 13.2-6 21.8-2 4 1.6 8 3.3 12.2 4.2 4.3 1 8.8 1 13.2 1.5l7 1.4c1.6.4 3.5 1 5.2.8 2.9 0 5.8-.9 8.7-1q3.1-.3 6.2.6 3.9 1.5 7.8 3.2c3.8 1.3 7.5 3 11.4 4 1.6.5 3.5 1.2 5.2 1 3.4-.3 6.5-2 9.6-3.4" class="b"/><path d="M8.2 111.7q3-1 6-1.1 4.7-.6 8.8 1.7c2.9 1.6 5.3 4 7.9 5.8 6 4 11.4 3.3 17.5.1 2.2-1.1 4.7-1.6 7-2.4 3.4-1.2 6.9-2.8 10.5-3.6 4-.9 8.2-.1 12.2-1 4.4-.7 8.7-2.1 13.1-2.5 2.3-.2 4.8.4 7 1 3.7 1.1 7.5 2.3 11.3 2.5s7.6-.2 11.4.2c4.7.4 9.2 2.5 14 2.5 2.9-.2 5.8-1 8.7-1q3.7-.2 7 1l7.9 3q5.3 1.7 10.5 4c1.7.5 3.4 1.4 5.2 1.5 3.4.1 6.5-1.4 9.6-2.4" class="b"/><path d="M8.2 111q3-.7 6-1 3.1-.7 6.2-.6c3.7.5 6.7 2.9 9.6 5a15 15 0 0 0 16.6 1.3l4.4-1.8q2.2-.5 4.4-1.2c3.4-1.1 6.9-2.6 10.5-3.4 4.5-1.1 9.3-.2 14-.5s9.2-1.7 14-1.9c5.4 0 11 1 16.5.2 9.9-1.3 10.8-.5 20.1 1.7 4.3 1 8.8-.3 13.1-.1 3.4 0 6.6 1.2 9.6 2.5q3.5 1 7 1.7c3 .7 6 2 8.8 3 1.7.7 3.4 1.8 5.2 2 3.2.4 6.5-.7 9.6-1.4" class="b"/><path d="m8.2 110.5 6-.7c2-.4 4.2-1 6.2-1 3.5-.2 6.7 1.7 9.6 3.4 6.3 3.7 11.9 3.2 18.4.4 2.5-1.1 5.3-1.5 7.8-2.4 3.5-1.2 7-2.8 10.5-3.5 4.4-.9 8.8.3 13.1.2q5.8-.1 11.4-1.5 3.5-.6 7-.8 5.3-.3 10.5-1.2c3.4-.6 7-1.4 10.5-1.3 4.1 0 8 1.8 12.2 2.3 4 .4 8.2-.5 12.2 0 3.7.2 7 1.9 10.5 2.9 2.9.6 6 .7 8.8 1.3q3 .8 6 2c1.5.4 3 1.3 4.4 1.7 3.5 1 7.1-.2 10.5-.9" class="b"/><path d="M8.2 109.8q3 .5 6 .2 4-.8 8-1c4.5 0 8.6 2.4 13 2.8 4.8.6 9.5-.8 14-2.1q3.6-.8 7-1.7c3.3-1 6.4-2.4 9.6-3.4 5.5-1.9 11.1.2 16.7 0 5.3 0 10.3-2.2 15.7-2.3q6.6-.3 13-1.9a27 27 0 0 1 15.8-.7c5.5 1.2 11.1-.4 16.6.6 3.3.5 6.5 2 9.6 3 3.2.7 6.5.2 9.7.6q4 .4 7.8 1.9c4 2.2 8.7 2 13.1 1" class="b"/><path d="M8.2 108c3.8 1.6 8.1 1.2 12.2 1q6.1-.2 12.2.2c5.4-.1 10.5-1.8 15.8-2.6 3.2-.5 6.5-.7 9.6-1.6 3.2-.8 6.4-2.3 9.6-3.2 5.7-1.7 11.6.8 17.5.4 3.3 0 6.4-1.4 9.6-2 3.1-.3 6.4 0 9.6-.2 10.5-.7 11.4-5.3 23.6-3.1 5.2.6 10.5-1.3 15.7-.4 3.6.5 7 2.3 10.5 2.9 2.6.3 5.3 0 7.9 0q4.5 0 8.7 1.5c4.1 1.9 8.6 3 13.1 2" class="b"/><path d="M8.2 104.7q4.2 2 8.7 2.4c5.2 1 10.6.4 15.7-.5 3-.6 5.9-2 8.8-2.7q4.3-1 8.7-1.1c3.8-.2 7.7-.2 11.4-1 3.8-1 7.4-2.8 11.3-2.8 4.7 0 9.3 1.7 14 1.3 2.4-.1 4.7-1 7-1.7a23 23 0 0 1 5.3-.3c4 .2 8.3.5 12.2-1 3-1.3 6.2-2.7 9.6-2.8 3.8-.2 7.6 1.1 11.3.5 5.4-1 10.3-2.6 15.8-1 2.3.5 4.6 1.4 7 1.5 2.3.2 4.7 0 7 .2q2.6.1 5.2.7c5.8.7 10.5 5 16.6 3.5" class="b"/><path d="M8.2 100.6q3 1.3 6 2 3.6 1.2 7 1.9c4.8.6 9.7-.6 14-2.3 4-1.7 8-3.4 12.3-3.2q3.5 0 7 .2 3.5.5 7 .4c4.1-.3 8-2 12.2-2 5 .2 9.9 2.1 14.9 1.3q2.7-.6 5.2-1.6 2.2-.5 4.4-.6c3.8-.1 7.7.1 11.4-1 2.6-.9 5-2.3 7.8-2.8 3.8-1 7.6.5 11.4 1 3 .3 6-.8 8.7-1.7a22 22 0 0 1 11.4-1.3c1.7.3 3.5.9 5.2 1q3 .3 6.1.5c2.7.1 5.3.8 8 1.3 5.3.7 10 5 15.6 3.3" class="b"/><path d="M8.2 96.5q3 1 6 1.7 3.6 1 7 1.7a30 30 0 0 0 11.4-1.2c9.3-3 10-4 20.1-3 4.4.5 8.7 2.1 13.2 1.7q3.8-.3 7.8-.5c3.2.2 6.4 1 9.6 1.3q3.6.3 7-.7c1.7-.5 3.5-1.4 5.3-1.8 4.9-1.3 10-2 14.8-3.8 4.7-2.2 9-3 14-1 2.2.7 4.6 1.5 7 1.4 2.7-.2 5.3-1.4 7.8-2.4q5.2-2.1 10.5-1.5 5.7 1 11.4 1.3 4 .6 7.9 1.4c5 .7 9.7 3.8 14.8 2.1" class="b"/><path d="M8.2 92q6.8 2 14 2.4 5.6-.2 11.3-.9c6.6-1 13.3-2.5 20.1-2 3.3.6 6.4 2.2 9.6 3.2q5.2 1.5 10.5 1.4c4.4.3 8.8 1.3 13.1.7 3.4-.5 6.5-2 9.6-3.4q6-2.8 12.3-5.1c5.1-2 9.5-3 14.8-.8 2.3.8 4.6 1.9 7 2.2 2.7.3 5.4-.7 7.9-1.6 3-1.2 6.3-2.4 9.6-2.5 2.6-.1 5.3.6 7.9.8 5 .4 9.9 1.4 14.8 1.7 4.4.5 8.8 1.4 13.1.3" class="b"/><path d="M8.2 87.7c6.8 2 14 .8 21 .7 3.7 0 7.5.9 11.3.7 3.2 0 6.4-1 9.6-1.5q5-1 9.6 1.6c3.7 1.6 7.3 3.8 11.4 4.4l6.1.5c15.5 2.1 19.3-6.3 32.3-10 4.6-1.2 9.5-1.4 14 .2 2.6.8 5.2 1.9 7.9 2.3 5.4.7 10.4-2.7 15.7-3.1 2.6-.4 5.3.2 7.9.6a86 86 0 0 0 28.8-1" class="b"/><path d="M8.2 83.4c7.3 2.5 12.8-.9 20-.3 4.3.2 8.1 2.5 12.3 3 5.7.4 10.8-4.3 16.6-2.5 4.6 1 8.6 4 13.1 5.4q4.8.7 9.6 1c14.7 1.2 18-9.2 33.2-9.2q4.9-.4 9.6.2c3.3.5 6.5 1.6 9.7 2.4 3.7.8 7.6-.4 11.3-1q3.5-.8 7-.4c3.4.6 7 1.3 10.5 1q4 0 7.9-1.1 2.5-.6 5.2-1.2c3.1-1 6.3-2.3 9.6-2.7" class="b"/><path d="M8.2 79c4.9 1.8 8.3.5 13-.6 3.8-.8 7.9-.7 11.4.8q3 1.5 6.2 2.8c5.5 2.2 10.2-2.8 15.7-2.9 5.2-.4 10 2.2 14.8 3.8 2 .7 4.2.7 6.2 1q4.3 1 8.7.8c6.4 0 11.5-4.3 17.5-5.9 3.4-.9 7-.6 10.5-.5l7.8-.3q4.5 0 8.8 1c2.5.8 5.1 2 7.9 2 3.7.2 7.6-.5 11.3-.3 3.2.1 6.4 1.2 9.6 1.2q6-.1 11.4-2.6 2.7-1 5.2-2c3.1-1.4 6.2-3.1 9.6-3.7" class="b"/><path d="M8.2 74c5.3 1.6 9.7-.8 14.8-1.5q5.6-.7 10.5 1.7c2.5 1.2 5 2.8 7.9 3.2 3.3.5 6.4-1.3 9.6-2q5.7-.7 11.4.4l7.8 1.9 5.3.7c3.4.6 7 1.3 10.5 1 4-.2 7.5-2.5 11.3-3.7 4.8-1.7 10-.8 14.9-.5 4.6 0 9.3-1 14-.3 3 .5 5.8 2 8.7 2.8q4.7.9 9.6 1c5 0 9.9 2.1 14.9 1.4 3.7-.4 7.2-2 10.5-3.7q2.2-.8 4.3-2c3-1.6 6.2-3.6 9.6-4.2" class="b"/><path d="M8.2 69c8.1.3 13.3-4.5 21.8-2.2 4.8 1.1 9 4.4 14 4.4 2.3-.1 4.7-.5 7-.4 4.4.2 8.7 1 13.1 1.5q5.3.6 10.5 1.1c3.7.5 7.5 1.4 11.3 1.3 2.8 0 5.4-1.2 8-2.2q5.4-2 11.3-1.2c2.6.3 5.2.8 7.8.5 4.4-.5 8.8-1.8 13.2-1.1 3 .4 5.8 2.2 8.7 3.2 3.7 1.2 7.6 1.6 11.4 2.1 4.9.5 9.8 2.7 14.8 1.4 4.8-1 8.9-4.2 13.1-6.5 3-1.8 6.1-3.8 9.6-4.3" class="b"/><path d="M8.2 65c15.7-4.5 13.9-6.4 30.6-1.7 3.4 1 7 .9 10.5 1.6 3.5.6 6.9 2.3 10.4 3.1 5.8 1.4 11.8.3 17.5 1.5 4.6.8 9.5 1.7 14-.1a22 22 0 0 1 7-1.9c4.3-.3 8.7.7 13.1.4 4.4-.4 8.6-2.3 13.1-1.9 3.5.2 6.5 2.2 9.6 3.6a45 45 0 0 0 10.5 2.7q4 .5 7.9 1.3c3.4 1 7 1.4 10.5.1 4.2-1.5 7.6-4.6 11.3-7 2.9-2 6-4.1 9.6-4.4" class="b"/><path d="M8.2 62q3.4-1.6 7-3.1c3.3-1.5 6.8-3 10.5-3 3.5 0 7 1 10.4 1 4.1.4 8.4.2 12.3 1.5 5.1 1.6 9.3 5.7 14.8 6.4 3.2.5 6.5-.3 9.6 0 5.6.3 11.1 2.4 16.7 1.2 2.5-.7 5.1-1.9 7.8-2 4.4-.4 8.8.2 13.1-.3 4.1-.4 8-2.3 12.3-2 5.1.3 9.1 4.1 14 5.4 5.3 1.7 11 1.5 16.5 2.7q8.3 2.5 15-3l6-5c2.8-2.1 6-4.3 9.6-4.6" class="b"/><path d="M8.2 59q3-1.8 6-3.2 3.5-1.8 7-3 5.3-1.3 10.6-.2c3.7.6 7.6-.4 11.3-.4a16 16 0 0 1 9.6 3c4 2.6 8.2 5.5 13.2 4.9q3-.4 6-.7c5.7 0 11 2.4 16.7 2 2-.1 4-1 6-1.3 4.7-.6 9.4.1 14-.3 4.2-.2 8.2-2 12.3-1.5 4.2.3 7.7 2.8 11.4 4.7 6 2.9 12.8 2 19.2 2.6 5.8 1 9.6 1.5 14.8-2.2q4-3.2 8-6.5c2.7-2.4 5.8-4.8 9.5-5.3" class="b"/><path d="M8.2 55.7c4.4-1.8 8.6-4 13-5.4q5.3-1.4 10.6-.3c5.8 1 11.8-1.8 17.5.1 4.6 1.6 8.7 5.3 14 5 2.6 0 5.2-.9 7.8-1.3 4.4-.5 8.9.7 13.1 1.9q3 .8 6.1.7 2.7-.4 5.3-.4c3.8.1 7.6.9 11.3 1 7.1 0 11.2-2.1 18.4.8 2 .8 4 2.1 6.1 3a33 33 0 0 0 15.7 1.7c5-.5 10.2.7 14.9-1.4s8.3-5.9 12.2-9a23 23 0 0 1 9.6-5.6" class="b"/><path d="M8.2 52c6.7-1.3 13.1-4.5 20-4.6q3.6.1 7 .4 5.8 0 11.4.3c4.2.4 8.2 2.2 12.3 3 4 .7 8.2-.6 12.2-1.5q5.2-1.1 10.5 0c2.6.7 5.2 2 7.9 2.6 2 .4 4 .4 6 .9q4.5 1 8.8 1.7c3.2.4 6.4.2 9.6.2q5.9.1 11.4 1.9c2.9.9 5.7 2 8.7 2.5q9.2 1.4 18.4-.5 6.6-1 12.2-4.3c6.4-4 11.8-10.1 19.2-12" class="b"/><path d="M8.2 47.3c2.3.1 4.7-.4 7-.6l7.8-1c3.8-.6 7.6-1.6 11.4-1 4.4.5 8.7 2 13.1 2.5 2.3.4 4.7.3 7 .5 2.9.2 5.8.6 8.7.3 5-.2 9.9-2.2 14.9-2.9 3.8-.5 7.2 1.5 10.5 3.2q2.5 1.1 5.2 2 3 1.3 6.1 2.2c4.6 1.5 9.4 1 14 1.5 6.1.9 12.2 2.5 18.4 2.5 4.9 0 10 .6 14.8-.2q3.7-.7 7-2.3 5.4-2.2 10.5-5c6.3-3.5 12-8.3 19.2-9.6" class="b"/><path d="M8.2 42.1q3 .3 6 .2c2.7.1 5.4.5 8 .3 3.5-.2 7-1.5 10.5-1.7 5.2.2 9.6 4 14.8 4.6 3 .6 5.8-.5 8.7-.4 3.8 0 7.6.5 11.4 0q3.1-.2 6.1-1.4c2.5-1 5.2-2.1 7.9-1.7 3 .4 5.4 2.4 7.9 4 3.8 2.3 7.8 4.8 12.2 5.8 3.7.9 7.6 0 11.4.7 2.9.6 5.8 1.6 8.7 2q3.5.3 7 0 3.9-.8 7.9-1.1c3.8-.3 7.7-.2 11.3-1.3 2.2-.6 4.2-1.9 6.2-3q4.2-2.6 8.7-4.8c3.8-1.6 7.5-3.7 11.4-5.4q4.6-1.7 9.6-2.2" class="b"/><path d="M8.2 37.8c2.3.2 4.7 0 7 .4 3.1.5 6.4 1.2 9.6.7 2.3-.3 4.6-1 7-1.3 4.4-.4 8.2 2.8 12.2 4.3q3.4 1.3 7 1 2.2-.6 4.4-.8c3.2-.2 6.4.5 9.6.7 9.8 1.3 12.8-7 21-1.5 5.3 3.7 10.7 8.5 17.4 9 3 .2 5.9-.5 8.8-.1 2.6.4 5.2 1.5 7.8 2.1 3.8 1 7.8.5 11.4-.6 5.7-2 12-1.7 17.5-4.2 2.5-1.1 4.6-3 7-4.4q4.5-3 9.6-4.8 4.4-1.7 8.7-3.4 4.7-1.1 9.6-1" class="b"/><path d="M8.2 35q3 0 6 .2c2.7.3 5.3.9 8 .8 3.5 0 7-1.7 10.5-1.8 5.6 0 10.2 4.3 15.7 5 2.3.6 4.7-.1 7 0 3.7.2 7.5 1 11.3 1 3.7 0 7.1-1.6 10.5-2.7 4.9-1.6 8.6 1.6 12.3 4.3a30 30 0 0 0 14.8 6.3c3 .2 5.9-.5 8.8 0 2.6.4 5.2 1.6 7.8 2.3a20 20 0 0 0 14-1.3q7.2-2.5 14-6c3.2-2 6.2-4.3 9.6-6 3.6-2 7.5-3.3 11.3-4.7q2.6-1.1 5.3-1.6a35 35 0 0 1 8.7-.1" class="b"/><path d="M8.2 33.2q3 0 6 .2 3.1.5 6.2.3c8.4-.7 10.6-5.6 20.1-1.6 3.2 1.3 6.3 3 9.6 4 1.4.5 3 .5 4.4.8 2.9.5 5.8 1.3 8.7 1.2q5-.2 9.6-1.6c2.3-.7 4.7-1.4 7-1.2 3 .3 5.5 2.1 7.9 3.7q3.3 2.3 7 3.8 4.1 2.3 8.7 3.2c3.8.7 7.7-.4 11.4.4 10 2.6 13.8 5.2 23.6-.9 9-5.6 17.8-11.8 28-15.4 6.7-2.8 10-4.3 17.4-2.4" class="b"/><path d="m8.2 31.6 6 .3c2.7.2 5.4.4 8-.3 3-.8 5.8-2.7 8.7-3.8q3.4-.9 7-.6c4.5.5 8.4 3.3 12.2 5.5q2.2 1.1 4.4 1.9a21 21 0 0 0 7.9 2.2c2.6 0 5.3-.8 7.8-1.5 2.6-.6 5.3-1.2 7.9-1 4.3 0 7.7 3 11.4 4.8q2.5 1 5.2 1.7 3.4 1.4 7 2.4 3.8 1 7.8.7c3-.3 6-.5 8.8.2 7.3 1.4 12.4 3.5 19.2-1 4.1-2.6 8-5.6 12.3-7.9 3.9-2.1 8.2-3.6 12.2-5.6 7.4-3.2 13.4-7.8 21.8-4.8" class="b"/><path d="M8.2 29.3q3.5.5 7 .6 5.6.7 10.5-2c1.7-.8 3.4-2 5.2-2.7q2.2-.9 4.4-1.3c8.2-2.4 12.7 4.2 19.2 7.8 9.7 6.7 11.4 1.6 21 1.5 5.6-.2 9 2.8 14 4.8 1.6.6 3.5.6 5.2 1 4.6.9 9.2 2.2 14 1.7q3.4-.5 7-1c5-.5 9.8 1 14.8 1 5.1-.2 9.5-3.5 14-5.5 4.7-2.4 10-3.7 14.8-5.6 7.9-3.2 15.6-10.3 24.5-7.3" class="b"/><path d="M8.2 25.7q3 .5 6 .6c2.7.3 5.4.7 8 0 4-.9 7.4-3.8 11.3-5 4.8-2 8.6-2.8 13.1.3l7.9 5.8c3.2 2.7 7 5.5 11.4 5q2.6-.2 5.2-.8a24 24 0 0 1 7.9.3c4 .8 7.4 3.5 11.3 4.4 2 .4 4.1.3 6.1.5q5.8.7 11.4-.2c3.5-.6 7-1.9 10.5-2.2 5.2-.7 10.5 1 15.7-.1 3.5-.8 7-2 10.5-2.7 5-1 10-1.8 14.9-3.4 4.5-1.6 8.5-4.6 13-6.2 3.7-1.5 7.6-2.7 11.5-1.8" class="b"/><path d="M8.2 21.3q3 .4 6 .4c2.4.3 4.8 1 7 .9 3.1 0 6-1.2 8.8-2.4l3.5-1.4q2.6-1.3 5.3-2.3c5-1.9 9.2 1.2 13 4 4.9 3.1 8.8 8.5 15 9 2.8.1 5.8-.2 8.7 0q3.5.2 7 1.1 3 1 6 2c2.3.5 4.8.3 7 .5 4.1.2 8.3.3 12.3-.7 4.6-1.1 9.1-3.1 14-3.1 3.2-.2 6.4.4 9.6.1s6.4-1.2 9.6-1.6c6-.8 12.3-.5 18.4-1.7 3.3-.7 6.4-2.4 9.6-3.7 4.7-1.7 9.7-3.7 14.8-3.5" class="b"/><path d="M8.2 17.3h6c2.7.4 5.3 1.2 8 1.2 4.2.2 8.3-1.2 12.2-2.7 3-1.5 6.2-3.3 9.6-3 4.9.5 9.5 4.1 13.1 7.2 7.1 6.4 11.1 6.2 20.1 6.9 3.8.2 7.6 1 11.4 1.2 2.9.1 5.9-.1 8.7.4 13.5 2 13-2.3 23.6-3.3 3.8-.3 7.6.6 11.4-.1q3.9-1 7.8-2a32 32 0 0 1 8.8-.3c4 .1 8.2.7 12.2.2 3-.5 5.9-1.6 8.8-2.4q6.8-2 14-2.6" class="b"/></svg>