<svg xmlns="http://www.w3.org/2000/svg" id="a" width="1920" height="2400" viewBox="0 0 192 240"><defs><style>.b{fill:none;stroke:#fff;stroke-miterlimit:10;stroke-width:.3px}</style></defs><path d="M0 0h192v240H0z" style="stroke-width:0"/><path d="M8 223.1c6.2 0 12.4 0 18.4-.8q4.6-.8 8.8-2.3c4 1.3 8.2 2 12.2 3 3.3.7 6.4 2 9.7 2.7 2.6-.3 5.2-1.4 7.8-2 2-.6 4-1.5 6.2-1.8 2.5.9 4.5 3.1 7 4 1.3 0 2.4-1.1 3.5-1.8q1.6-1.1 3.5-1.8c2.2-.8 4.7-.6 7-.4 4.4.2 8.8 1.3 13 2.1a74 74 0 0 0 19.4.9c5.8-.5 11.6-1.4 17.5-1.6q6.1 0 12.2.2 6.6 0 13.1-.6 8.4-.3 16.7-1.2" class="b"/><path d="M8 221.5c7.3-.1 14.8 0 22-1.6 1.3-.3 3-.8 4.3-1.3q1.3-.7 2.6-.7 5.8 1.8 11.4 3.6l7 2.4c1.1.3 2.4-.3 3.5-.6q4-1.3 7.9-2.8l2.6-1c1.6 0 3 1 4.4 1.8 1.7 1 3.3 2.7 5.2 2.8 2.6-1.2 5-3.2 8-3.6 6.7-.7 13.4.9 20 2q9.2 1.3 18.4.6c6.4-.5 12.9-1.4 19.3-1.6q5.3-.1 10.5 0l11.4-.4c5.8-.4 11.7-.4 17.5-1.2" class="b"/><path d="M8 219.8c6.5 0 13 0 19.3-1.1q5.3-1 10.5-3 5 1.7 9.6 3.8 3.4 1.6 7 2.8c2.2-.1 4.2-1.3 6.2-2L64 219c1.4-.6 2.8-1.5 4.3-1.8q3.3.9 6.2 2.9 2 1.5 4.3 2.5c2.5-.7 4.6-2.6 7-3.2 2.3-.6 4.7-.4 7-.4 5 0 10 1.1 15 1.8q9.5 1.4 19.2.6c7.8-.7 15.7-1.6 23.6-1.7q10.1 0 20.2-.5 6.6-.1 13-1" class="b"/><path d="M8 218.1q9.4.1 18.4-1a77 77 0 0 0 13.2-3.2c1 .5 2.4 1 3.4 1.6 3.6 1.7 6.8 4.1 10.5 5.2 2.2-.5 4.2-1.7 6.2-2.6q3.6-1.7 7-3.5c3.5.5 6.7 2.6 9.6 4.6 2.7 1.7 3.4 1.8 6.1.2a15 15 0 0 1 8.8-2q6.1-.4 12.2.8 9.2 1.6 18.4 1.6c8 0 15.8-1.3 23.6-1.7l22.8-.7c5.3-.2 10.6-.2 15.8-1.3" class="b"/><path d="M8 216.4q9.4 0 18.4-1.2c4.8-.7 9.4-2.1 14-3.1 1.3.2 2.5 1.2 3.5 1.8l4.4 3c1.5 1 3.4 2.6 5.3 1.7 2.7-1.1 5.2-3 7.8-4.3 1.6-.9 3.3-2.7 5.3-2q3.8 1 7 3.1c2 1.2 3.9 2.9 6.1 3.6 1.2-.1 2.5-1 3.5-1.5q1.7-.8 3.5-1.2 5.6-.8 11.4-.5c4.4.3 8.7 1.1 13.1 1.5q9.2 1.1 18.4.5 14.4-1.4 28.9-1.8c8.4-.4 17.1.1 25.4-2" class="b"/><path d="M8 214.7q9.8 0 19.3-1.5c5-.8 9.9-2.3 14.9-2.7 2.1 1.5 4 3.6 6.1 5.3 3 2.5 4.4 1.2 7-.7q3-2.3 6.1-4.3a5 5 0 0 1 4.4-.8q2.8.5 5.3 1.8 2.7 1.6 5.2 3.3c1.3.8 2.8 2 4.4 2.1 2.6-1 5-2.4 7.9-2.6 3.7-.3 7.6-.8 11.4-.5 9 .8 18 2.4 27 2 10-.4 20-1.5 29.8-1.7 9-.5 18.4.1 27.2-2.5" class="b"/><path d="M8 213a158 158 0 0 0 28-3.3c2.5-.2 5.6-1 8 .2 2.9 3.1 5.2 8.5 9.6 3.7 2-2 4-4.7 7-5.6H64c5.8-.5 10.2 4 14.8 6.7q1.3.9 2.7.7 2.2-1 4.3-1.7 4.9-.9 9.7-1.2 6.1-.3 12.2.5 7.5.9 15 1.3c10.4.4 21-1.1 31.4-1.4 10-.6 20.2 0 29.8-3.1" class="b"/><path d="M8 211.3q11.5-.5 22.8-2.6c4.2-.6 9.3-2 13.1.3 1.8 1.1 2.5 3.8 4.4 4.8 1.7.2 2.5-.2 3.5-1.5 1.4-1.8 2.7-4 4.4-5.6q1.2-.6 2.6-.5h4.4c4 0 6.2-.3 9.6 2.1l4.4 3.2c1 .7 2.2 1.7 3.5 2 1.5.5 3-.5 4.4-.9 3-.9 6.4-1.1 9.6-1.6 6.1-.8 12.3 0 18.4.6 7.3.7 14.6 1.3 21.9.8l24.5-1.4c8.2-.3 16.7-.5 24.5-3.4" class="b"/><path d="M8 209.5q9.4-.5 18.4-2c4.6-.8 9.4-2 14-1 2.8.4 4.6 3 6.2 5.1.6.6 1.8.5 2.6.5 1.3-.6 2-2.7 2.6-3.9s1.2-3.2 2.6-3.7h14.9c2.7.5 5 2.5 7 4 2.2 1.8 5 4 7.9 3 3.4-1 7-1.3 10.5-2 6.4-1 12.9-.4 19.3.2q9.6 1 19.2 1c8.2-.2 16.4-1 24.5-1.2a81 81 0 0 0 26.3-4.2" class="b"/><path d="M8 207.7c5.6-.2 11.2-1.2 16.7-2.1 5.2-.8 11.6-2.6 16.6-.3 1.8 1 3.1 3 4.4 4.5q.8.5 1.7.5c.5.1 1.4-.2 1.8-.5 1-2 1.4-5.2 2.6-7h16.6q1.9-.1 3.5.3c3.6 1.6 6 5.3 9.7 6.4q1.2.5 2.6.6 2.6-.7 5.2-1 3.6-.7 7-1.3 4.5-.6 8.8-.6c7.3 0 14.6 1.1 21.9 1.4q11.7.4 23.6-.5c11.2-.6 22.7-.7 33.3-5" class="b"/><path d="M8 206c8.3-.5 16.3-3 24.6-3.8 3.3-.2 7.1 0 9.6 2.6 1.1 1 2 3 3.5 3.7q1.4.2 2.6-.4c1-2 1.7-5 2.6-7.1h14c2.6.1 5.4-.3 8 .3 3.5 1.5 5.7 5.3 9.5 6.4 1.1.3 2.4.8 3.5.6q2.7-.6 5.3-.8c4.6-1 9.3-2 14-2 6.7-.2 13.4.5 20.1 1q7.9.5 15.8.3c9.6-.3 19.3-.7 28.9-2q4-.7 7.8-1.8 3-1 6.2-2" class="b"/><path d="M8 204.1c9.5-.6 18.5-4.8 28-4q4 .4 6.2 3.6c.7 1 1.5 2.5 2.6 3.1q1.4 0 2.6-.2c1.2-1.9 1.9-5 2.7-7 1-.6 2.3-.3 3.5-.3H58q6.1-.1 12.2 0 3.7.7 7 2.6 1.5 1 2.6 2.2l2.7 1.3q2 .8 4.3 1.2 5-.3 9.7-1.6c12-2.7 24.5-.6 36.7-.2 12.3.2 24.7-.1 36.8-2q4-.8 7.9-2c2-.6 4-1.6 6.1-1.6" class="b"/><path d="M8 202.3c9.7-1 19-6 29-4.3 3.6.6 4.7 4.6 7 7h2.6c1.8-1.9 1.5-5.8 3.5-7.5h13q6.5-.4 12.3 2c3.4 1 6.3 3.4 9.7 4.5 4 1.6 8.2.5 12.2-.5a61 61 0 0 1 10.5-1.5c7.6-.5 15.2.1 22.8.6a181 181 0 0 0 39.4-1.9q3.5-.7 7-1.8c2.2-.8 4.5-1.7 7-1.4" class="b"/><path d="M8 200.4c5.1-.6 10-2.7 15-4 3-.8 6.4-.7 9.6-.7q2.6-.1 5.2.3c3 1 3.7 4.7 5.3 7q1.2.5 2.6.3l.9-.6c.9-2 1.2-5.3 2.6-7h10.5q4-.1 7.9.4 5.3.9 10.5 2.5c3 1 5.7 2.7 8.7 3.6q3 .9 6.2 1 3.5-.6 7-1.5 5.6-1.2 11.3-1.5c7.6-.6 15.2 0 22.8.5a179 179 0 0 0 36.8-2.2q4.4-1.2 8.7-2.5c1.4-.4 3-.2 4.4-.3" class="b"/><path d="M8 198.5a46 46 0 0 0 8-2.3c2.2-.8 4.5-1.9 7-2.2h13.9q1.5-.2 2.7.5c.6.7 1.4 2.7 1.7 3.7.3.8.9 2.9 1.8 3.3h2.6c1.2-1.9 1.2-5.7 2.6-7.5 6.4.1 13-.5 19.3.7 4 .8 8.3 1.2 12.2 2.4q1.8.7 3.5 1.1 3 1.6 6.2 2.3 3 .7 6 .9l5.3-1q6-1.5 12.3-2c7.8-.8 15.8-.2 23.6.2q8.3.3 16.6 0 8.9-.5 17.5-2.2c3-.6 5.9-1.8 8.8-2.4h4.4" class="b"/><path d="M8 196.5c4-.8 7.6-2.9 11.4-4 2.6-.5 5.3-.2 7.9-.3h12.3l.8.8 1.8 6.8 3.5-.1c.2-1.4.7-6.5 1.7-7.5q7-.1 14 .1 5.7.8 11.4 1.7 3.1.4 6.1.9 2.7.6 5.3 1.2 3.4 1.7 7 2.4c2.6.4 5.3 1.3 7.9 1 4.6-.8 9.3-2 14-2.5 13.3-2.2 26.8.2 40.2-.6a108 108 0 0 0 16.7-2c2.9-.5 5.8-1.5 8.7-2.1h5.3" class="b"/><path d="M8 194.4q3.2-.9 6.2-2.4c1.3-.6 2.8-1.5 4.3-1.5h13.2q3.5-.2 7 .2c2 1.7 2 5.3 3.5 7.4h2.6c.2-1.4.7-6.6 1.8-7.6h14c4.3.6 8.7 1.5 13 1.9q5.8.4 11.5 1.5 4.2 1.9 8.7 2.7 3.5.8 7 1.3c3-.2 5.9-1 8.8-1.5 6-1.2 12.2-2.3 18.3-2.4 8.2-.2 16.4.7 24.6.3q8.8-.2 17.5-1.8 3.9-.9 7.8-1.9 3.1-.1 6.2-.1" class="b"/><path d="M8 192.3q3.7-1.4 7-3.2c1.7-.6 3.6-.3 5.3-.4h14c2.6-.2 4 .5 5.3 2.8.8 1.3 1.2 3.9 2.6 4.8h2.6c.6-1.8 1.4-5.7 1.8-7.6q7 0 14 .1c4 .5 8.1 1.4 12.2 1.7q4 .2 7.9.5l5.2.7a46 46 0 0 0 9.7 2.8q4.3 1.1 8.7 1.7 3.5-.4 7-1.2c6-1.3 12.2-2.9 18.4-3.1 8.2-.3 16.4.5 24.5.1q8-.2 15.8-1.5 3.9-.8 7.8-1.7h6.2" class="b"/><path d="M8 190c2.1-.7 4.1-2 6.2-2.8 1.3-.4 3-.1 4.3-.2h8c8.4.2 10.6-1.7 14.8 7l.9.5h2.6l.9-2.3c.3-1 .8-4.5 1.8-5.2q6.5-.2 13 0 6.2 1 12.3 1.7 6.6.1 13.2.6c1.7.2 3.5 1.3 5.2 1.6l7.9 1.9c3.1.7 6.4 1.5 9.6 1.6q3.1-.3 6.1-1.1c5.5-1.4 11-3.2 16.7-3.5 7.8-.6 15.7.3 23.6 0q7.5-.3 14.9-1.3 3.9-.7 7.9-1.5h6.1" class="b"/><path d="M8 187.8q2.7-1.2 5.3-2.4c2.5-.4 5.3 0 7.9-.2h7q3-.1 6.1.5c3.4.8 5.2 4 7 6.7 1 .6 2.4.4 3.5.3 1.1-2 1.8-4.9 2.6-6.9l1-.6 12.2.1c4.3.6 8.7 1.5 13 1.6q6.8 0 13.2.3c1.8 0 3.5 1 5.3 1.4l10.5 2.4q4.7 1.2 9.6 1.7 3.1-.3 6.1-1.3c4-1.2 8.1-2.8 12.3-3.5 8-1.2 16.3-.2 24.5-.5q7.5 0 14.9-1l7-1.1q3.5-.1 7 0" class="b"/><path d="m8 185.6 4.4-2c2.6-.4 5.3 0 7.9-.1 4.4.1 8.9-.5 13.1.7 3 .7 5.4 3 7 5.4.3.5 1.2 1.3 1.8 1.4q1.3 0 2.6-.2c1.5-2 2.1-5 3.5-7 1.4-.6 3-.2 4.4-.3h7c4.4.3 8.7 1.5 13.1 1.6 5.3.1 10.5-.3 15.8 0 1.7.1 3.5 1 5.2 1.3l12.3 2.7c3.1.7 6.4 1.7 9.6 1.9q3.1-.4 6.1-1.6c3.5-1.4 6.9-3 10.5-3.7 7.8-1.5 15.8-.5 23.7-.6q7.6 0 14.8-1l5.3-.6h7.9" class="b"/><path d="M8 183.5q2.2-1 4.4-1.7h7c4.7 0 9.5-.4 14 1 2.9.9 5.2 2.9 7 5.2.4.4 1.2 1.1 1.8 1.3q1.3 0 2.6-.2c1.9-2 2.4-5.3 4.4-7.3q3-.1 6.1 0 3-.2 6.1 0c4.1.6 8.2 1.4 12.3 1.5 5.5 0 11-.5 16.6-.2 1.8 0 3.6.7 5.3 1q7.5 1.4 14.9 3.3c5.4 1.7 8.6 3 14 0q7-3.4 14.8-5c5.9-.3 11.7.2 17.5.2q8.8 0 17.5-.8h9.7" class="b"/><path d="M8 181.4q1.8-.7 3.5-1.3c2.3-.3 4.7 0 7-.1 4.7 0 9.5-.2 14 1.2q4.1 1.3 7 4.2c1.8 2 2.6 2.5 5.3 2 2.3-2 2.8-5.7 5.2-7.4q6.1-.2 12.3.1c4 .6 8.1 1.4 12.2 1.3 6.7-.1 13.5-.5 20.2-.2 6.8 1.2 13.9 2 20.1 5.2 5 2.4 10 .8 14.9-1a80 80 0 0 1 18.4-5.1q3.8-.4 7.8-.2c9.4.3 18.7-.3 28-.1" class="b"/><path d="m8 179.5 3.5-1.2q3.5-.2 7 0c4.7-.2 9.5 0 14 1.6q3.4 1 6.2 3.3c2.2 1.8 2.9 3.1 6.1 2.5 1.5-1.1 2.5-3.2 3.5-4.7.7-1 1.4-2.5 2.6-2.8 5 .2 10-.4 15 .6q6.4 1.2 13 .6 8.3-.4 16.7 0c5 0 10.2.7 14.9 3 2.5 1.2 5 2.7 7.8 3.2q3.6.5 7 0 3.6-.8 7-2a132 132 0 0 1 23.7-5.2c3.4-.3 7-.1 10.5-.2H184" class="b"/><path d="M8 177.7q2.2-.7 4.4-1.2H22q7.5.4 14 3.6c2.2 1 4 3 6.2 3.9h2.6c2.4-1.5 3.5-4.6 5.3-6.6.8-1 2.2-1 3.5-1h5.2c5-.2 10 1.3 14.9 1.3 7.3 0 14.6-.7 21.9-.1q5.8.2 11.4 2c4 1.3 8 3.5 12.2 4.1 4.4.8 8.8-.2 13.1-1.1q8.3-1.9 16.7-3.5 8.6-1.7 17.5-2.6H184" class="b"/><path d="m8 176 4.4-1.1c1.4-.3 3-.1 4.4-.2 3 0 6-.1 8.7.6q5.5 1.3 10.5 3.5c2.2 1 4 2.7 6.2 3.5l2.6-.1c2-1 3.1-3.2 4.4-4.8.7-.9 1.6-2.1 2.6-2.6h5.3q3.5-.1 7 0c4 .5 8.1 1.2 12.2 1 9-.2 18.3-.7 27.2 1.3 3.6.8 7 2.5 10.5 3.7 4.7 1.7 9.9 1.7 14.8.9l13.2-2q10.5-1.8 21-3c6.9-1.1 14-2.4 21-1.4" class="b"/><path d="M8 174.6q3-.7 6.2-1.5 1.7-.2 3.5-.1 3.5-.3 7 .8 4.4 1.3 8.7 2.8 2.7 1 5.3 2.4c1.3.7 2.8 1.7 4.3 1.5 3.8.4 5.6-4.2 8-6.4q.7-.8 1.7-1.1h12.2q4.5.7 8.8 1c6.4 0 12.8-.4 19.2.1q6.4.4 12.3 2.3c3.8 1.2 7.4 3.3 11.4 3.8 4.3.7 8.8 0 13.1-.3 10.3-.6 20.4-2.6 30.6-3.3 4.4-.3 8.8-1.2 13.2-1.4 3.5-.1 7.3 0 10.5 1.7" class="b"/><path d="M8 173.5q4-.8 8-2 3-.7 6 .4l13.2 4.4c3 1 6.2 3.3 9.6 2.2 3.3-1.4 4.8-5.3 7.9-7.1q1.7-.3 3.5-.2c4.7 0 9.4-.2 14 .6 4 .5 8.2.2 12.2.2 5.9 0 11.9.3 17.5 1.8 4.6 1 8.7 3.3 13.2 4.5 4.9 1 10-.2 14.9-.3q6.5-.2 13-.5 7.2-.7 14-1.3 4-.3 8-.5c7-.8 14.4-1.6 21 1.2" class="b"/><path d="M8 172.6q3.7-.3 7-1.2c1.5-.4 3-1.2 4.4-1.3a89 89 0 0 0 14.9 5.1c2.9.7 5.8 2.1 8.8 1.8 4.3-.4 6.2-5 9.6-7 1-.7 2.3-.5 3.5-.5h11.4q4.3.7 8.7.7a65 65 0 0 1 29.8 4.8c4.6 2 7.2 2.5 12.2 1.6q6-.8 12.3-.6 7.5.1 14.9-.2 8.7-.8 17.5-1a52 52 0 0 1 21 1.3" class="b"/><path d="M8 172.1a63 63 0 0 0 12.3-1.4 57 57 0 0 0 14 3.8c4.9 1 10 1.4 14-2.1 1.6-1.6 3.2-3.5 5.2-4.4 1.4-.5 3-.2 4.4-.3h10.5l6.1.6c5.6.1 11.2.1 16.7 1q5.9 1.1 11.4 3.5c3.3 1.4 6.8 3.1 10.5 2.2a49 49 0 0 1 9.6-1.4c5-.2 10 .4 14.9.6q6.5.2 13.1-.2 6-.3 12.3-.3a70 70 0 0 1 21 1" class="b"/><path d="M8 171.8q7 .1 14 .7c7.6 1 17.4 2 24.6-1q3-1.5 5.2-4a7 7 0 0 1 5.3-1.5c5.2 0 10.5-.3 15.7.3 4.4.3 8.8.2 13.1.8q6.8.8 13.2 3.5c3.3 1.3 6.8 3.4 10.5 2.8 3.1-.8 6.3-2 9.6-2 9-.7 18 1.5 27.1 1.2l16.6-.2q10.6-.7 21 .8" class="b"/><path d="M8 171.2c5.3.6 10.5.3 15.8.3q5.3.1 10.5-.4 5.3-.3 10.5-1.3 3.9-1 7-3.4c1.8-1.6 2.7-2.4 5.2-2.2h14c4.4.4 8.8.5 13.2 1.1q6.3.9 12.2 3.4c3.6 1.3 7.4 3.8 11.4 2.8 1.8-.4 3.5-1.4 5.2-1.8 4.3-1.1 8.8-1 13.2-.6 6.7.4 13.3 2 20.1 1.9l10.5-.1 9.6-.1q8.8-.1 17.5.8" class="b"/><path d="M8 169q8-.3 15.8-2 3 .3 6.1.8h7a39 39 0 0 0 12.3-1.6l3.5-1.6c1-.7 2.2-1.7 3.5-2.1h7c7.3 0 14.7 0 21.8 1.5 4.6.9 9 2.8 13.2 4.6 8.6 4 9.6-1.5 17.5-2 5.8-.4 11.7.3 17.5 1.2q5.3 1 10.5 1.4 6.6.3 13.1.2 6.1.1 12.3-.1 7.5 0 14.9.6" class="b"/><path d="M8 166.2a81 81 0 0 0 15-2.7q1.1-.7 2.6-.7 5.6 1.5 11.3 1.8 6.1.7 12.3-.5 3.6-.7 7-2.8c1.2-.8 3-.6 4.4-.6h7q4-.1 7.8.1 6.3.5 12.3 2.6c4.4 1.4 8.5 4 13.1 4.8 3.6.6 6.5-1.9 9.6-3.1 4.5-1.4 9.4-1 14-.6q6.7.7 13.2 2.2 5.2 1 10.5 1 9.6.1 19.2 0 8.4.1 16.7.5" class="b"/><path d="M8 163.8a81 81 0 0 0 15.8-3.2c.8-.2 1.8-.7 2.6-.7q5.7 1.3 11.4 2 6.6.8 13.1 0 2.8-.5 5.3-1.5c1-.5 2.3-1.3 3.5-1.4h13.1c5.8-.3 11.4 1.9 16.7 4.1 3.8 1.6 7.9 4 12.2 3.3 3.2-.6 5.7-3.1 8.8-4 3.4-.9 7-.6 10.5-.4q6.7.6 13 2a56 56 0 0 0 15.8 2.1q8.8.2 17.5 0 8.3 0 16.7.3" class="b"/><path d="M8 161.8a83 83 0 0 0 16.7-3.2q1.2-.6 2.6-.6 7 1.2 14 1.7 6.6.8 13.1-.2c2.5-.3 4.8-1.4 7-2.2h12.3q3.1-.3 6.1.8 5.3 2.2 10.5 4.8c4.2 2 9 2.9 13.1.2l5.3-3.2c2.8-.9 5.8-.7 8.7-.6a81 81 0 0 1 17.5 2.9q7.4 2.3 15 2.2 17 0 34 .3" class="b"/><path d="M8 160c6.5-.5 13.2-1 19.3-3.5q8.8 1 17.5 1.4c4.4.2 8.8.3 13.1-.5l3.5-.9c.8-.3 1.8-.9 2.7-1h13.1c1.6.5 3 1.6 4.4 2.4q3.3 2.4 7 4 2.9 1.2 6.1 1.1 3.4.1 6.1-1.7c2.3-1.4 4.6-3.2 7-4.4q1.8-.4 3.5-.3 9.8 0 19.3 2.1c4.4 1 8.6 3.3 13.1 3.7q5.2.6 10.5.1h7c7.6 0 15.2.6 22.8.4" class="b"/><path d="M8 158.4c5.3-.3 10.6-.4 15.8-1.4 1.4-.2 3-1 4.4-1.1 8.1.6 16.3.2 24.5.3 3.2-.2 6.5 0 9.6-.8l4.4-1.7h9.6q.9 0 1.8.4c2.8 3.5 6.3 7.6 11.4 7.1h4.3c4.6-1.2 7.8-5.5 12.3-7 1-.5 2.4-.3 3.5-.3l6.1.3c5.3.5 10.6.9 15.8 2.3 2.4.6 4.6 1.8 7 2.7q5.1 1.8 10.5 1.8c11.6-1 23.3.1 35 .2" class="b"/><path d="M8 156.8q8 0 15.8-.3 2.2-.2 4.4-.6h2.6c5-.1 10-.8 14.9-1.1q7.5-.5 14.9-.5c3.6 0 7-1.3 10.5-2.3h6l1 .5c.5 2 1 5.4 2.6 6.8 1.3.5 3 .2 4.4.2h5.2c5-1.9 8.2-8 14-7.5q9.2-.2 18.4.5c5.2.4 10.4 1.4 14.9 4.2q5 2.5 10.5 2.6 4.8-.6 9.6-.6c8.8-.2 17.5.6 26.3.7" class="b"/><path d="M8 155.2q6.1 0 12.3.2c4.6.3 9.4.8 14 .2q7-1.1 14-2.2 7.5-1 14.9-.7c3.4 0 7.2-.7 10.5.6 1.6.9 2.4 3 3.5 4.5 3.1 0 6.4.2 9.6-.2 2.6-2.4 4.3-6.1 7.9-7.2 1.4-.3 3-.1 4.4-.2h22.8c3.7.2 7.7.3 11.3 1.6 2.2.7 4 2.4 6.1 3.5a17 17 0 0 0 9.7 2c11.6-1.3 23.3 0 35 .2" class="b"/><path d="M8 153.5q7-.2 14 .6c2.6.3 5.3 1 8 1.2q3.8.2 7.8-.6c4.4-.7 8.8-2 13.1-2.8q6.5-1.2 13.2-.9c3 .2 6.2.4 8.7 2.2 1.2.8 2.2 2.2 3.5 2.8h7l.9-7.6h44.6c8.7 0 8.6 5.6 16.7 7 2.3.7 4.7-.1 7-.3q4.3-.3 8.7-.3c7.6-.2 15.2.7 22.8.8" class="b"/><path d="M8 151.8q7.5-.3 15 .8l6 1.2q3.6.4 7 .2c8.1-.2 15.7-3.9 23.7-4.6 3.5-.2 7.2-.2 10.5 1 2 .7 3.6 2.3 5.2 3.6 1.6.6 3.6.2 5.3.2 2.2-1.4 2.4-5.2 3.5-7.4 15.4-.3 31 0 46.4 0 2 0 4.4-.3 6.1 1.1 2.5 2.4 5.2 5 8.8 5.8 2.2.7 4.6-.2 7-.4q3.8-.4 7.8-.4c8-.3 15.8.6 23.7.8" class="b"/><path d="M8 150q5.3-.1 10.5.2 5.9.7 11.4 2 7 .7 14-.2 5.9-1 11.4-3c4.2-1.2 8.8-2 13.1-1 2.7.5 5 2.4 7 4 .7.6 1.8.5 2.7.5 3.6.2 4.4-4.7 6-7l1-.5h46.4q2.6-.2 5.2 0c1.3.9 2.4 2.4 3.5 3.5q2.6 2.7 6.1 3.6c2 .5 4.2-.5 6.2-.6q3.8-.5 7.8-.5c8-.4 15.8.5 23.7.6" class="b"/><path d="M8 148.3q6.1-.3 12.3.1c3.5.5 7 1.5 10.5 2q7 .7 14 .2 6.3-.7 12.2-3c4-1.3 8.2-2.3 12.3-1.3 2.7.5 4.8 2.7 7 4.2 4.7 1.7 6-4.8 8.7-7.1 2-.4 4.2-.1 6.2-.2h45.5q1 0 1.7.4c2.4 2.4 4.4 5.8 8 6.7 1.6.6 3.5-.3 5.2-.5q3.8-.7 7.8-.7c8.2-.6 16.4.3 24.5.4" class="b"/><path d="M8 146.5c4.7-.1 9.4-.4 14 .1q2.3.4 4.4 1l4.4.9c4 .7 8.2.5 12.2.5 5.8.2 11.4-1.2 16.7-3.3 16-6 15.4 7.4 21 1.9 1.8-1.7 3.5-6 6.1-6.1h16.6c12 0 24-.3 36 0 2 2 3.4 5.2 6 6.6 2.4 1.3 3.8.4 6.2-.1q3-.8 6.1-.9c8.8-.6 17.5.1 26.3.2" class="b"/><path d="M8 144.8q7-.5 14-.2c5.5 1.1 11 2.7 16.7 2.7 5.5-.1 11.2.5 16.6-1.2 5.9-1.5 12.4-6 18.4-2.4 1.8 1 3.1 3.3 5.2 3.5 3.2-1.2 4.4-5 7-7q1.2-.5 2.7-.5h51.6c1.9 1.3 2.7 4 4.4 5.6 2.7 2.5 3.8 2 7 .9q3-1 6.1-1c8.7-.8 17.5-.1 26.3-.3" class="b"/><path d="M8 143c4.7 0 9.4-.7 14-.2 6.2.8 12.2 2.7 18.4 2.7 5.6-.1 11.3.6 16.7-1 5.6-1.5 11.7-6.3 17.5-2.7q1.4 1 2.6 2.2c.6.6 1.6 1.5 2.6 1.4 3-1.5 4.2-5.2 7-7 1.9-.9 4.1-.3 6.1-.4h8.8q4.4-.2 8.7.1c2.6.5 5.3 1.4 8 1.2 1.7-.2 3.5-.9 5.2-1.3h14c1.4 0 3-.3 4.4.2 1.7 2.6 3 7.7 7 7.2q2.1-.9 4.3-1.6c3.2-.9 6.5-.9 9.7-1 7-.4 14 0 21-.5" class="b"/><path d="M8 141.4c5 0 10-1 15-.3 6.4.6 12.7 2.5 19.2 2.7 5.2-.2 10.6.5 15.7-.8 5.5-1.3 11-6.2 16.7-3.6 2 1 3.4 3 5.2 4.2h.9c2.7-1.7 4-5.3 7-6.8 1.9-1 4.1-.5 6.1-.6 4.3.2 9-.3 13.1.3 2.1.3 4.2 1.4 6.2 2 2.8 1 6 1.3 8.7 0 1.8-.6 3.4-2 5.3-2.3h15.7c1.9 2.4 2.3 7.8 6.2 7.5q2.1-1 4.3-1.9c2.8-1 5.9-1.1 8.8-1.2q7-.4 14-.5l4.4-.3c1 0 2.4-.4 3.5-.2" class="b"/><path d="M8 139.6c5.6 0 11.1-.8 16.7-.1 6.4.5 12.7 2.2 19.2 2.5h7c3 0 6 0 8.8-.9 5.1-1.3 10.3-6.2 15.7-3.6 2 1 3.4 3.1 5.3 4.3h.9c3-2 4.6-6.7 8.7-7.2q3.5-.3 7-.1 3.1-.1 6.1.2c3.4.5 6.5 2.3 9.7 3.5 3.4 1.2 7.3 1.3 10.5-.6 2-1 3.8-3 6.1-3.1h14c1.7 1.8 1.7 5.3 3.5 7.2 2.3 1.2 4.2-1.3 6.1-2a18 18 0 0 1 6.2-1.5l14.8-.7q3.1-.1 6.2-.7l3.5.8" class="b"/><path d="m8 137.9 9.7-.4q4.8 0 9.6.4c6.2.4 12.2 1.9 18.4 2.3h7c2.9 0 6 0 8.7-1 5-1.4 10.6-6.7 15.8-3 1.5 1.1 2.7 3 4.4 4h.8c1.4-.9 2.5-2.6 3.5-3.8 2.7-3.4 5.6-3.8 9.7-3.7 10-.3 11.9 3.6 20.1 5.4 6.2 1.1 9.2-1.7 14-4.9 1.9-.9 4.1-.3 6.1-.5h8.8l.9.6c.2 1.6 1 5.2 1.7 6.6q1.2.6 2.6.3c1.5-1.1 2.7-2.7 4.4-3.5 3.8-1.8 8.2-1.2 12.3-1.6q5.3-.1 10.5-.9 3.4.8 7 1.6" class="b"/><path d="M8 136.1q11-.5 22 .1c5.8.4 11.6 1.7 17.4 2.2 5 0 10.1.6 15-.9 5-1.4 10.4-6.9 15.7-3.2 1.5 1.1 2.7 3 4.3 4.1h1c1.3-.9 2.4-2.5 3.4-3.8 2.7-3.4 6.5-3.7 10.5-3.4 7.2.1 13 5.6 20.1 6 6.5.5 9.1-2.9 14-5.8 1.6-.7 3.6-.4 5.3-.4h7c1.9 1.6 2.3 4.9 3.5 7l.9.5h1.7c1.1-.7 1.8-2.4 2.7-3.5 2.4-3 6.9-2.7 10.5-2.8 3.1.1 6.4-.4 9.6-.3q5.6 1.2 11.4 2" class="b"/><path d="M8 134.4q12.3-.5 24.6.1c5.2.3 10.5 1.3 15.7 1.9 5.2.3 10.7.8 15.8-1 4.7-1.6 9.9-6.5 14.8-2.9 1.6 1.2 2.8 3 4.4 4.1 1 0 2-1.2 2.6-1.9 1.3-1.5 2.7-3.1 4.4-4 3.5-1.7 7.8-1.2 11.4-.1 3.6 1.2 7 3.2 10.5 4.4 3.6 1 7.7 1.4 11.4.2 3.9-1.2 6.5-5 10.5-6h4.4c1.4 0 3-.2 4.3.3 2.4 1.8 2.9 5.5 5.3 7.2 1.6.3 2.6-.6 3.5-1.7q1.8-2.4 4.4-3.9c6.2-3 20.5.7 28 1" class="b"/><path d="M8 132.6q13.5-.3 27.2.2 7.5.5 14.9 1.7c4.9.4 10 .7 14.8-1 4.7-1.6 10-6.4 15-2.7 1.5 1.2 2.6 3 4.3 4.1 1-.3 2-1.5 2.6-2.3 1.2-1.4 2.7-3 4.4-3.7 8-3.2 15.2 3.7 22.8 5.2 4 .7 8.5.7 12.2-1.4 2.4-1.3 4.5-3.3 7-4.5 1.9-1 4.1-.8 6.1-.8 5.2-.7 6.5 9 10.5 7.3 4-3 6-5 11.4-5.5 7.6-.4 15.2.9 22.8 1.1" class="b"/><path d="M8 130.8h26.3c5.9.1 11.7 1 17.5 1.7 4.7.4 9.5.6 14-1s10-5.6 14.9-2.3c1.6 1.1 2.6 3.1 4.4 4 2.5-1.7 4-5 7-6 7.2-2.6 13.4 3.4 20.1 5 4.3 1 9 1.3 13.1-.3 2.9-1.3 5.2-3.5 8-5 2.6-1.3 6.2-1.9 8.7.2q1.8 1.7 3.5 3.7c.9 1 2 2.3 3.5 2.4 1.5-.6 3-1.8 4.3-2.6q2.5-1.4 5.3-2c4-.7 8.2-.6 12.2-.5q6.6.3 13.2.4" class="b"/><path d="m8 129 20.2.1q12.2-.4 24.5 1.2c4.6.5 9.5.7 14-.7 4.7-1.3 10.2-5 14.9-1.8l2.6 2.5.9.8.8.2c3.7-3 5-6.4 10.5-6.2 6.1.2 10.8 5 16.7 5.9 5 .7 10.5 1 14.9-2 2.5-1.6 4.9-3.7 7.8-4.4 5-1.6 8 3.8 11.4 6.2 1.2 1 2.4.4 3.5-.3l4.4-2.2c4.2-1.4 8.7-1.5 13.1-1.5H184" class="b"/><path d="M8 127.3h21c8.5-.1 17-.2 25.4.9 4.7.5 9.5.5 14-.8 4.3-1 8.9-3.7 13.2-1.6 1.6.9 2.9 2.5 4.3 3.7l1-.1c3-2.8 4.9-6 9.5-5.8 5.8 0 10.3 4.4 15.8 5.6q3 .6 6.1.5 3.1.1 6.2-.5c5-1.3 9.1-7.9 14.8-5.9 3.3 1.5 5.5 4.9 8.8 6.2 1.5 0 3-1.2 4.4-1.7q2.5-1.2 5.2-1.6c8.7-1.3 17.5-.7 26.3-1.3" class="b"/><path d="M8 125.5q12 .1 23.7 0c8.1-.1 16.4-.5 24.5.6q7 1 14-.7c4-1 8.3-3 12.2-1 1.6.8 2.9 2.5 4.4 3.5 2.4-1.2 3.7-4 6.1-5 6.9-3.2 13 3.2 19.3 4.7q3 .5 6.1.4 3.1.1 6.2-.4c4.9-1.1 8.5-7.3 14-6 3.6 1.4 6 5 9.6 6.2 2-.7 4-1.8 6.1-2.4q4.7-1.2 9.6-1.3 10.1-.4 20.2-1" class="b"/><path d="M8 123.8q12.3.1 24.6 0 6-.1 12.2-.3 6 0 12.3.6c4.9.4 10 .5 14.8-.8 4-1 8.7-2.6 12.3.2 1.1.8 2 2.3 3.5 2.6 2.3-1.7 4-4.5 7-5.3 6.7-1.9 12 4.2 18.4 5.2 2 .4 4 .2 6 .2q3.2.2 6.2-.5c3-1 5.2-3.5 7.9-4.8q1.7-.9 3.5-1c3 .4 5.5 2.7 7.9 4.4 2 1.4 2.9 2.2 5.2 1 5.2-2.4 11-2.6 16.7-2.9a293 293 0 0 0 17.5-1.2" class="b"/><path d="M8 122q12 .2 23.7 0c8.1 0 16.3-.4 24.5.1 5 .3 10 .6 14.9-.3 4-.6 8.3-2.5 12.2-.8 1.6.7 3 2.3 4.4 3.3 1 0 2-1.1 2.6-1.8q1.6-1.6 3.5-2.8c6.2-3 11.9 2.5 17.5 4.2 2.3.8 4.7.6 7 .6s4.8.2 7-.5c3-1 5.1-3.5 8-4.9 5.2-3 9.2 3.6 14 5 1.7-.2 3.4-1.2 5.2-1.7q3.8-1 7.8-1.2c8-.5 15.8-.7 23.7-1.8" class="b"/><path d="M8 120.3q23.3.2 46.4 0c5.6 0 11.2.5 16.7-.3 4.3-.5 9-2.5 13-.5 1.7.8 2.8 2.5 4.5 3 2.4-1.4 4.1-4.1 7-5 6-1.7 11 3.6 16.6 5 2.3.5 4.7.2 7 .3 2 0 4.2.2 6.1-.5 3.5-1.3 5.9-4.9 9.7-5.7 1.5-.2 3 .6 4.3 1.3 2.7 1.4 5 3.9 8 4.5q3.3-1.4 7-2.2 5.5-.7 11.3-1 9.2-.3 18.4-1.6" class="b"/><path d="M8 118.5c14.6.1 29.2.4 43.8 0 6.1-.1 12.3.3 18.4-.2 4.6-.2 9.5-2.4 14-.7 1.6.7 2.9 2.3 4.4 3.1 1 0 1.9-1 2.6-1.6 1.2-1.1 2.7-2.4 4.4-3 6.4-2.4 11.5 3.7 17.5 4.8q3.5.1 7 .1c1.7 0 3.6.2 5.2-.4 2.7-1 4.6-3.5 7-4.9 4-2.5 8 1.7 11.4 3.6 2.3 1.4 2.8 1.7 5.3.6 5.2-2 11-2 16.6-2.3q9.2-.3 18.4-1.9" class="b"/><path d="M8 116.8c14 0 28 .6 42 .2 6.7-.3 13.5 0 20.2-.5q3.5-.3 7-1c2.6-.3 5.5-.6 7.9.7 1.4.8 2.7 2.4 4.3 2.8 2.8-1.8 5.2-5 8.8-5 5.2-.6 9.2 3.6 14 5 2.2.5 4.7.2 7 .3 2-.1 4.2.3 6.1-.5 3-1.3 4.9-4.4 7.9-5.6 4.7-1 8.8 4.9 13.1 5.7 5.8-2.6 12.2-2.6 18.4-2.9q9.8-.2 19.3-2.1" class="b"/><path d="M8 115c13.8 0 27.5.7 41.2.4q10-.2 20.1-.7 3.5-.2 7-.7c2.3-.3 4.7-.7 7-.3 2.3.7 4.1 2.5 6.1 3.6 2.6-1 4.3-3.7 7-4.6 5.8-2.2 10.6 2.8 15.8 4.5 2 .5 4.1.2 6.1.3s4.2.2 6.1-.2c3-1 4.6-3.8 7-5.4 4.6-2.8 9.8 4 14 5.2 2.4-.6 4.6-1.6 7-2q5.7-.6 11.4-.7A108 108 0 0 0 184 112" class="b"/><path d="M8 113.2c13.5.1 26.9.8 40.3.6l20.1-.8c4.7-.1 9.4-1.3 14-1.2 2.6.6 4.8 2.2 7 3.6 1.4 0 2.5-1.3 3.5-2q2-1.6 4.4-2.6c6.5-2 10.7 4.2 16.6 5h7c1.9 0 3.9 0 5.3-1.3 1.8-1.6 3.2-3.7 5.2-5 2.8-.8 5.7 1 8 2.5 1.8 1.2 3.7 3.2 6 3.3 5.8-2.6 12.2-2.4 18.4-2.6q10.3-.3 20.2-2.6" class="b"/><path d="M8 111.4c13.2.2 26.3.8 39.4.8q10.1-.2 20.2-.9 4.3-.2 8.7-.8c2.3-.3 4.8-.8 7 0q2.3.6 4.4 2c.7.4 1.7 1.1 2.6 1.2 3.8-2.3 6.5-5.6 11.4-4.8 3.9.6 6.9 3.5 10.5 4.7 2 .6 4.1.3 6.1.4 2-.1 4.2.3 6.2-.3 2.5-1.4 3.7-4.4 6-6 5.6-1.5 9.2 4.6 14 6 5.8-2.7 12.3-2.5 18.5-2.7 7-.2 14.1-.8 21-2.7" class="b"/><path d="M8 109.7c13.2.1 26.3.8 39.4.8a282 282 0 0 0 27.2-1.6c2-.1 4-.7 6.1-.5q2.7.3 5.2 1.4 2.3 1.1 4.4 2.2c2.5-1.2 4.5-3.4 7-4.3 5.4-2.2 9.5 1.6 14 3.8q2.5 1 5.3.7h6.1c3.5-.3 4.5-4.7 7-6.6 5.7-1.3 9.2 4.5 14 6.3 2-.6 4-1.6 6.1-1.9 4-.6 8.2-.5 12.3-.7a84 84 0 0 0 21.9-2.9" class="b"/><path d="M8 107.9c13.2.1 26.3.8 39.4 1a213 213 0 0 0 30.7-2.2q3.5 0 7 1.1 2.7 1 5.2 2.4c2-.7 3.5-2.3 5.3-3.2 3.1-2.1 7.2-2.2 10.5-.3 2.8 1.4 5.4 4 8.7 3.8h7.9c1.6-.2 2.7-2 3.5-3.3.9-1.3 1.7-3.5 3.5-3.7 5-.6 8.3 4 12.2 6.2q1.4.7 2.7 0a24 24 0 0 1 9.6-2c10-.2 20.2 0 29.8-3" class="b"/><path d="M8 106c13.2.3 26.3 1 39.4 1.2q8.8 0 17.5-.8c4.1-.3 8.2-1 12.3-1.3q4 .2 7.9 1 2.7 1 5.2 2.3c2-.5 3.6-2 5.3-3 3-2 7.2-2.4 10.5-.6 3 1.6 6 4.3 9.6 4q3.5 0 7-.2c2.3-1 3-4.2 4.4-6.2a4 4 0 0 1 2.6-.9c5.1-.2 8 4.8 12.3 6.7.8.3 1.8-.3 2.6-.6l2.6-.9q4-.8 7.9-.7c9.7-.2 19.6 0 28.9-3.2" class="b"/><path d="M8 104.2c13.2.3 26.3 1 39.4 1.3q8.8 0 17.5-.7 5.3-.5 10.5-1.3 4.5.1 8.8.9 3.1.7 6.1 2.2c1.3-.1 2.5-1 3.5-1.7q2.1-1.4 4.4-2.4c6.2-2.3 9.7 2.3 14.9 4.3 1.6.4 3.5.1 5.2.2 1.4-.1 3.2.3 4.4-.5 3.1-3.2 2-7.7 7.9-6.8 4.7.6 7 5.8 11.4 7 5.6-3 12.2-2.4 18.3-2.5 8-.2 16.1-.5 23.7-3.2" class="b"/><path d="M8 102.4q13.2.3 26.3 1a190 190 0 0 0 39.4-1.4l4.4.1a33 33 0 0 1 11.3 2.4q.9.4 1.8.2c3-1.3 5.5-3.7 8.7-4.3 5.2-1.2 8.8 2.9 13.2 4.5 1.6.5 3.5.3 5.2.3s3.3.3 4.4-1.5c1.1-1.6 1.5-4.5 3.5-5.4 2-.7 4.3-.5 6.1.3 3.3 1.6 5.3 5.2 8.8 6.3 5.6-3 12.2-2.4 18.4-2.4 8.2-.1 16.6-.4 24.5-3.1" class="b"/><path d="M8 100.5c15.5.2 31 1.6 46.4 1.5q5.8 0 11.4-.7c3-.2 5.8-1 8.8-.8q5.7-.2 11.3 1c5 1.4 3.9 2.7 8.8-.4 5.4-3.5 9.6-3.4 14.9.2q2 1.4 4.3 2 1.8.3 3.5.2c3.2.2 4-.4 5.3-3.3.5-1.6 1.7-3.5 3.5-4 2-.3 4.3 0 6.1 1 2.8 1.7 4.8 4.8 8 6 5.6-3.2 12-2.4 18.3-2.4 8.5-.1 17.2-.3 25.4-3" class="b"/><path d="M8 98.5c16 .3 32.1 2 48.2 1.7q6.1 0 12.2-1c2.9-.5 5.9-.2 8.8-.2q4.4 0 8.7.9 1.9.4 3.5 1.1 1.3.6 2.7-.1c3.8-2 7.6-5 12.2-3.9 4 1 7.2 4.5 11.4 4.7 2 .1 4.1.2 5.2-1.7 1-2.3 2.5-5.3 5.3-5.6q2.8-.4 5.2.9c3 1.6 4.8 4.9 8 6.2 1.6-.7 3.3-1.7 5.2-2 4.6-1 9.3-.4 14-.5 8.5 0 17.2-.2 25.3-2.8" class="b"/><path d="M8 96.5c15.5.4 31 2 46.4 2q4.5 0 8.8-.3c2.9-.3 5.8-.9 8.7-.8q6.2-.1 12.3.5 2.2.3 4.4 1c.7.4 1.8.9 2.6.6 3.5-1.3 6.6-4.2 10.5-4.4 4.9-.4 8.5 3.8 13.1 4.6 2 .3 4.2.1 5.3-1.8 1-1.8 2.3-4.1 4.3-5 2.3-.6 5-.4 7 1 2.5 1.7 4.3 4.6 7 5.8 1.8-.6 3.5-1.7 5.3-2 4.6-1 9.4-.4 14-.4 8.8 0 17.7-.2 26.3-2.5" class="b"/><path d="M8 94.5c15.2.3 30.4 2.2 45.6 2.3q4.7.1 9.6-.4 5.2-.7 10.5-.6a43 43 0 0 1 16.6 2.1c2.6-.5 4.7-2.3 7-3.3 6-2.9 9.6-.2 14.9 2.3 2.3 1 5.6 1.5 7-1.2 1.2-1.5 2.5-3.5 4.4-4.4 2.2-.8 5-.6 7 .7 2.5 1.7 4.2 4.6 7 6 1.7-.6 3.4-1.9 5.2-2.2 4.9-1 10-.2 14.9-.3 8.8 0 17.7-.2 26.3-2" class="b"/><path d="M8 92.4c15 .3 29.8 2.5 44.7 2.6q6.1.1 12.2-.6l10.5-.3c5 0 10.2.2 15 2.1 2.7-.8 5.1-2.7 7.8-3.7 5.4-2.3 9.1.3 14 2.4 2.3 1 4.4.9 6.1-1.2 1.4-1.3 2.7-3 4.4-4 2.2-.9 5-.8 7 .4 2.6 1.6 4.2 4.7 7 6.1 1.8-.5 3.4-1.9 5.3-2.2 4.8-1 9.9-.2 14.8-.2q13.6.3 27.2-1.6" class="b"/><path d="M8 90.2c13.8.3 27.4 2.5 41.2 2.9 11 .5 22.2-1.2 33.2-.4q3.7.3 7 1.5.9.3 1.8-.1 1.8-.7 3.5-1.7a17 17 0 0 1 7.9-2.6c2.7 0 5.3 1.3 7.8 2.3q2.2 1 4.4 1c3.2-.9 5-4.2 8-5.3 7.4-2 8.1 3.6 13 6.7 1-.1 1.9-.9 2.7-1.3q1.2-.7 2.6-1c5.2-1.2 10.5 0 15.7-.2 9.1.3 18.2-.4 27.2-1" class="b"/><path d="M8 88c13 .4 25.7 2.5 38.6 3 10.7.8 21.5-.4 32.3-.2q3.6 0 7 .7c1.5.3 3 1 4.4 1 5-1.7 9.3-5.7 14.9-4.3 2.6.6 5.2 2 7.9 2.4q1.8 0 3.5-.9c1.7-1 3.3-2.7 5.2-3.5 2.6-1 5.8-.6 7.9 1.4 1.8 1.6 3.2 4 5.3 5.1.9 0 1.8-.8 2.6-1.3a12 12 0 0 1 3.5-1.3c5.2-.8 10.5.2 15.7.2 9 .2 18.1-.6 27.2-.7" class="b"/><path d="M8 85.6c5.5 1 11.1 1 16.7 1.3q8.7 1.2 17.5 2c11.3 1 22.7.3 34.1.2 3.5 0 7.1 0 10.5 1 2.9.9 3.4 1 6.1-.4 5.9-3.3 9.2-4.8 15.8-2.4 10 3.4 9.3-4.6 17.5-3 3.5 1 5 4.9 7.9 6.6 1 .1 1.9-.7 2.6-1.2q1.3-.8 2.7-1.2c2.5-.8 5.2-.6 7.8-.4q4.5.3 8.8.4c9.3.4 18.7-.7 28-.2" class="b"/><path d="M8 83.5q6.5 1.3 13.2 1.3c2.6.2 5.3 0 7.9.5 9.8 1.6 19.8 2.1 29.7 2.4l14.9-.3c4.7-.1 9.5-.1 14 1.2q1.3.5 2.6.4 3.2-1.3 6.1-3c6.2-3.2 8.9-1.2 15-.5q3.2 1.2 6-.8c3-2 7.4-3.3 10.6-.8 1.8 1.5 3.2 4 5.2 5.3h.9c2-1.5 4.4-3 7-3 4.6-.3 9.3.5 14 .5 9.6.4 19.3-.8 28.9.2" class="b"/><path d="M8 81.4c6.9 1.8 14 1.3 21 1.7 3.8.4 7.6 1.2 11.4 1.5q6.6.7 13.2 1c5.8.4 11.6 0 17.5 0 4 0 8.2-.2 12.2.4q3.1.5 6.2 1.4 2.3-.7 4.3-1.9c3-1.7 6.2-3.4 9.7-3.2q2.2 0 4.3.5 1.9 0 3.5.8c2 .9 4.3 0 6.2-1 2.8-1.6 6.7-2.6 9.6-.5 2 1.5 3.3 3.9 5.2 5.3h1a13 13 0 0 1 10.4-3.2q6 .6 12.3.7c9.3.3 18.7-.8 28 .4" class="b"/><path d="M8 79.2c8 2.5 16.4 1.3 24.6 2.2 7.2.8 14.5 2 21.8 2.4q7.9.3 15.8 0c4.3 0 8.8-.2 13.1.5q3 .5 6.1 1.3 1.9-.6 3.5-1.5c3.5-2 7.2-4.2 11.4-3.9q2.2.1 4.4.5 1.2.8 2.6 1.2c3.1.8 6-1.4 8.8-2.2 7.6-2 8.2 4.8 12.2 6 2.5-1.7 4.7-3.4 8-3.4 4.9 0 9.8.8 14.8.8 9.6.4 19.3-.8 28.9.6" class="b"/><path d="M8 77c8 2.7 16.4 1.5 24.6 2.4 6.7.7 13.3 1.9 20 2.4 5.9.5 11.8.3 17.6.2 4.3 0 8.8-.2 13.1.5q2.7.4 5.3 1.2c1.5.3 3-.8 4.3-1.5 4.5-3 7.7-4.4 13.2-4h.9l.8.5q1.3.8 2.7 1.2c2.3.7 4.8-.2 7-1.1 3.2-1.5 7-1.6 9.6 1.3 1.4 1.2 2.5 3.3 4.4 4 1.1-.6 2.3-1.7 3.5-2.4q2-1 4.4-1.2c5.2 0 10.5.9 15.7.8 9.6.3 19.4-.8 28.9.8" class="b"/><path d="M8 75c3 .2 5.8 1.4 8.8 1.6 5.2.5 10.5.2 15.7.8 6.7.7 13.4 2 20.2 2.5 5.8.5 11.6.3 17.5.3 4.3 0 8.8-.2 13.1.5q2.7.5 5.3 1.4c1.2 0 2.4-.8 3.5-1.3 4.5-3 7.4-5 13-5 1.6.5 3 1.6 4.5 2q3.1.9 6.1-.3c3.5-1.3 7.5-2.2 10.5.7 1.4 1.3 2.7 3.2 4.4 4.1 1.2-.4 2.3-1.6 3.5-2.3q1.6-.9 3.5-1.2c2.6-.4 5.3 0 7.9.2q4.3.4 8.7.5c10 .3 20-.8 29.8.8" class="b"/><path d="M8 73.2c3.3-.3 6.4 1 9.7 1.3 3.7.4 7.6.2 11.4.6 8.7.7 17.4 2.6 26.2 3q8.3.4 16.6.2c5.6 0 11.4 0 16.7 2.1 2.6-.6 4.7-2.6 7-4 2.5-1.7 5.7-2.9 8.7-2.6 2.7 1.4 5.6 3.1 8.8 2.5 3.7-.7 7.8-2.9 11.4-.5 2 1.2 3.3 3.4 5.2 4.7 1 0 1.9-1 2.6-1.5q1.6-1.3 3.5-1.8c2.9-.8 6-.3 8.8 0q4.4.4 8.7.4c10.2.4 20.5-.7 30.7 1" class="b"/><path d="m8 71.4 5.3.1 4.4.8q3.8.3 7.8.4c9.7.5 19.3 2.8 29 3.5q8.6.4 17.4.2 5.8-.2 11.4.7c1.8.3 3.5 1.2 5.3 1.6 3.9-1.3 6.5-5.1 10.5-6.4 1.7-.6 3.6-1.1 5.2-.1 2.7 1.5 5.7 2.8 8.8 2.2 4.3-.8 8.5-2.6 12.2.9 1.4 1 2.5 3.2 4.4 3.4 2.8-2 5-3.8 8.8-3.7 4.9.1 9.9 1 14.8 1 10.2.1 20.5-.8 30.7.7" class="b"/><path d="M8 69.7h7l5.3.6q6.6.3 13.1 1.1c5.8.8 11.7 2 17.5 2.5q7.9.7 15.8.6c5 0 10-.2 14.9.5q2.7.4 5.2 1.5c1.5 1 3.2-.2 4.4-1.1 3-2.5 6.2-6.1 10.5-5.7 1.8.3 3.5 1.4 5.2 2.2q3 1.2 6.2.7c3.8-.7 8-2 11.4.8 1.4 1.1 2.7 2.9 4.3 3.7 2.3-1.3 4.3-3.5 7-3.6 2.6-.3 5.3.2 8 .5q4.3.4 8.7.5c10.5.2 21-1.2 31.5.3" class="b"/><path d="M8 68q12-.4 23.7 1 8.7 1.5 17.5 2.7 7.9.9 15.7.9c5.3 0 10.6-.3 15.8.3q2.7.4 5.2 1.5c2 1.1 2.7 1 4.4-.4 2.3-1.9 4.2-4.7 7-5.8q2.2-.5 4.4-.2 1.8.5 3.5 1.4 3.3 1.7 7 1.4c3.8-.4 8-1.8 11.4.8 1.5 1 2.8 2.6 4.3 3.6 1 0 2-.9 2.7-1.4a9 9 0 0 1 3.5-1.7c2.8-.6 5.9 0 8.7.3q4.5.5 8.8.5l16.6-.3q7.8-.6 15.8.3" class="b"/><path d="M8 66.7q3.5-.1 7-.5 6.1-.1 12.3.2c5.9.5 11.7 1.9 17.5 2.7q8.2 1.4 16.6 1.4c6.1.2 12.3-.3 18.4.3 2.8.2 5.4 1.7 7.9 2.8 3.4-1.2 4.8-5.3 7.9-7.1 1.6-.6 3.5-.2 5.2-.3 1.9.1 3.6 1.2 5.3 1.9q2.5 1 5.2 1c4.2-.3 8.6-1.7 12.3 1.2 1.4 1 2.7 2.7 4.3 3.2 1.5-.8 2.8-2.1 4.4-2.7 4-1.2 8.2 0 12.3.2q6.5.5 13.1.3l13.1-.4q6.6-.5 13.2.1" class="b"/><path d="M8 65.5q5-.2 9.7-1 4.4 0 8.7 0c6.2-.1 12.3 1.7 18.4 2.6q8.2 1.2 16.6 1.4h11.4c2.6 0 5.3-.2 7.9.4q2.3.5 4.4 1.8c.7.5 1.7 1.2 2.6 1.1 3.1-1.5 4-5.9 7-7.4h6.1c1.9.3 3.6 1.4 5.3 2q2.5 1 5.2.9c3.8-.2 8-1.2 11.4 1.1 1.5 1 2.9 2.4 4.4 3.3 1 0 1.9-.9 2.6-1.4q1.6-1.1 3.5-1.5c2.6-.4 5.3 0 7.9.3q4.8.6 9.6.6 9.2 0 18.4-.4c5-.3 10-.6 14.9-.1" class="b"/><path d="M8 64.2q4 0 8-.8a23 23 0 0 1 7-.7q5.2-.2 10.4.1c4.1.6 8.2 1.6 12.3 2.2q8.2 1.3 16.6 1.3h10.5c2.3-.1 4.7-.3 7 .2q1.9.4 3.5 1.4c1.1.7 2.2 1.9 3.5 2.3 3.2-1 3.4-5.9 6.1-7.5h5.3q1.7-.1 3.5.2c2.5 1 5 2.4 7.9 2.5 4.4.3 9.1-1.1 13 1.7 1.5.9 2.8 2.4 4.5 2.9 1.1-.6 2.3-1.6 3.5-2.1q2-.9 4.3-.9c5 .2 10 1.1 15 1a427 427 0 0 0 28-.9l6 .3" class="b"/><path d="M8 62.9q4.6 0 8.8-.9c2-.4 4-1.2 6.1-1 4.4 0 8.8-.3 13.2 0q5.6 1 11.3 2A108 108 0 0 0 72 64c2.3-.1 4.8-.4 7 0q2.6.5 4.4 2.3c.7.7 1.7 1.9 2.6 2.3h1c2.3-1.7 2-5.8 4.3-7.6q4.9-.1 9.6.1c2.7.8 5.1 2.4 8 2.6 3.7.4 7.6-.6 11.3.8 2.2.8 4.1 2.5 6.1 3.7 1 .1 2-.7 2.6-1.2q1.7-1 3.5-1.4c2.6-.4 5.3 0 8 .3q4.7.6 9.6.5a466 466 0 0 0 28-.9l6.1.2" class="b"/><path d="M8 61.5q4.6 0 8.8-.8c2-.4 4-1.2 6.1-1.5h15.8l8.7 1.4a96 96 0 0 0 24.5.6c2.3-.1 4.8-.6 7-.2q2.2.6 3.5 2.4c.8 1 1.5 2.7 2.7 3.3.4 0 1.3 0 1.7-.3l.9-2.5c.2-1 .7-4.2 1.7-4.8 3.8.1 7.7-.2 11.4.2 2.3.8 4.6 2 7 2.4 4 .6 8.4-.4 12.3 1.2 2.2.8 4 2.6 6.1 3.6 1.2-.5 2.3-1.5 3.5-2q1.7-.8 3.5-.8c5.3 0 10.5 1 15.8 1q10.5 0 21-.5c4.7-.2 9.2-.7 14-.3" class="b"/><path d="M8 60.1a61 61 0 0 0 9.7-1c2.3-.3 4.6-1.3 7-1.7h15.7c3 0 5.9.7 8.8 1a87 87 0 0 0 26.2-.5c6-1 6.4 1.5 7.9 6.5l.9.6h1.7l1-6.7.8-.9h12.2c2.7.8 5.1 2.4 8 2.7 4.6.4 9.7-.3 14 2.3 1.3.6 2.7 2.1 4.3 2.2 4-2.5 5.7-3 10.5-2.4q6 .7 12.3.8 10.5 0 21-.4c4.6-.3 9.3-.8 14-.4" class="b"/><path d="M8 58.7q8.1-.1 15.8-2.4c3.4-1 7-.5 10.5-.6h12.2q6.1.6 12.3.8 6.1-.1 12.2-.8h8.8l.9.7c.5 1.5 1.4 4.8 1.7 6.4q1.2.6 2.6.4l1.8-7.5h7q3-.2 6.1 0c2.3.8 4.6 2.1 7 2.5 8.9 1 10.2-.5 18.4 4.7 1 0 1.9-.7 2.6-1.2q1.7-.9 3.5-1.3c2.6-.3 5.3.1 8 .3q4.7.6 9.5.6 10.5 0 21-.4c4.7-.2 9.4-.8 14-.4" class="b"/><path d="M8 57.2q5.8-.1 11.4-1.1c3.2-.7 6.4-1.8 9.7-2.1q24.9-.1 49.8 0l1 1 1.7 6.4h2.6c1.4-2.3 1.8-6 4.4-7.4H92c2.6 0 5.3-.4 7.9.2 2 .7 4 1.8 6 2.2 4.1.7 8.4.3 12.3 1.5 2.5.7 4.7 2.2 7 3.3q1.8-.7 3.5-1.8 1.7-.6 3.5-.8 4 0 8 .5 4.3.5 8.7.5 10.5 0 21-.4c4.6-.2 9.3-.8 14-.4" class="b"/><path d="M8 55.7a85 85 0 0 0 11.4-1c4.1-.8 8.1-2.1 12.3-2.5q22.7-.1 45.5 0c1.7 1.9 1.5 5.6 3.5 7.4 1.8.3 2.5 0 3.5-1.5 1.6-2.3 3-5.5 6.1-5.9h4.4q2.2-.2 4.4.1c2 .7 4 1.8 6.1 2.2 4.3 1 8.9.5 13.1 1.8 2.5.6 4.6 2.3 7 3q1.8-.8 3.5-1.7 2.2-.7 4.4-.7c5.2.1 10.5 1 15.8 1q10.9 0 21.8-.5c4.4-.2 8.8-.8 13.2-.4" class="b"/><path d="M8 54.3q6.2-.2 12.3-1.1c5-1 9.8-2.3 14.9-2.7q12.2-.2 24.5 0h13.1q1.4-.2 2.6.2c1.4 2.6 2.9 9.7 7 6.5 2-1.8 3.6-4.5 6.2-5.6 3.3-1.3 7-1 10.5-.6 1.1.2 2.4.9 3.5 1.2 1.3.5 3 .8 4.3 1 4.1.5 8.4.4 12.3 1.8q2.3.9 4.4 2c1.2.9 2.3.5 3.5-.2 3.4-2.2 7.6-1.7 11.4-1.3q5.2.6 10.5.6 10.9 0 21.8-.4c4.4-.1 8.8-.8 13.2-.4" class="b"/><path d="M8 52.8q6.2-.2 12.3-1c5.8-1 11.6-2.3 17.5-2.8 5.8-.6 11.7-.2 17.5-.3h11.4q3-.2 6.1.1c2.1 3 4 10.1 8.8 6.4 1.9-1.7 3.7-3.7 6.1-4.6 3.9-1.6 8.2-1 12.2-.7 2.6.7 5.2 1.6 8 1.8 3.7.3 7.7.4 11.3 1.7q2.7 1 5.3 2.3c1.2.3 2.4-.7 3.5-1.1 3.2-1.7 7-1.1 10.5-.9q5.6.7 11.3.7 11 0 22-.5c4 0 8.1-.6 12.2-.4" class="b"/><path d="M8 51.3c10.7 0 21-2.5 31.6-3.6 9.8-1.2 19.8-.8 29.7-.7 3 2.2 4.3 7.9 8.8 7.4q1.8-.6 3.5-2 2.4-1.8 5.2-2.8c4.5-1.6 9.4-1 14-.9q3.9 1 7.9 1.4c5.1.3 10.3 1.1 14.9 3.5 1.1.7 2.4.3 3.5-.3q2-1 4.3-1.4c3-.4 6 0 8.8.3q5.3.5 10.5.5 10.5 0 21-.5c4 0 8.2-.6 12.3-.4" class="b"/><path d="M8 49.8q10.5-.3 21-1.8 10.1-1.3 20.2-2.2a167 167 0 0 1 15.7-.5c1.8.6 3 2.4 4.4 3.7 5.8 5.7 6.8 3.7 13.1.6 6-2.9 12.8-2.2 19.3-2.2q2.2.3 4.4.8l7 .7q4 .4 7.9 1.9c1.6.4 3.5 2 5.2 1.2q2.2-1 4.4-1.7 2.6-.5 5.2-.3 6.6.6 13.2.9c11.6.3 23.3-.4 35-.9" class="b"/><path d="M8 48.3c12.3-.2 24.5-2 36.8-2.9 5.5-.4 11.1-1 16.6-.6 1 0 2 .9 2.7 1.4q1.6 1.2 3.5 2.4c5 3.3 6.1 2.6 11.3.4 5.6-2.4 11.6-3 17.5-3h6.2c1.4 0 3 .5 4.4.6 3.4.5 7 .6 10.5 1.4 2.6.6 5.2 1.9 7.8 2.6 2.4-.7 4.6-2 7-2.3 5.9-.3 11.7.9 17.5.8q17.1.1 34.2-.8" class="b"/><path d="M8 46.7c15.8-.1 31.5-2.4 47.3-2.3q2.2-.1 4.4.5c3.3 1.6 6.7 3.7 10.5 4.2 2 .1 4.1-1 6.1-1.5q4-1.2 7.9-2c5.8-1 11.7-.7 17.5-1 2-.3 4.1.3 6.1.5q4.9.3 9.7 1.3 2.6.5 5.2 1.5l2.6 1 1.8-.5c2.2-.8 4.6-1.9 7-2 5.2 0 10.5.9 15.7 1q17.1.1 34.2-.8" class="b"/><path d="M8 45.2c15 0 29.8-1.7 44.7-1.2q2.2 0 4.4.5l3.5 1.2q3.4 1.1 7 1.6 1.7-.1 3.5-.6c8-2.4 16.2-3.2 24.5-3.3l6.1-.3q2.2-.4 4.4 0 5.3.7 10.5 1.4 4.5.9 8.7 2.4c1.2.3 2.5-.4 3.5-.7 2-.7 4-1.5 6.2-1.5 5.8 0 11.6 1 17.5 1q15.8 0 31.5-.8" class="b"/><path d="M8 43.6c14 0 28-1 42-.3 4.5.2 8.8 1.6 13.2 2.1 3 .4 5.9-.9 8.7-1.3q5.7-1.1 11.4-1.6 7-.4 14-.7 3.5-.1 7-.5l5.3.6a84 84 0 0 1 14.8 2.8q1.3.6 2.7.5c3.1-.9 6.3-2.3 9.6-2.2 5.5 0 11 .8 16.6.8q15.4.3 30.7-.7" class="b"/><path d="M8 42c17 .1 34-1 50.8 1.6q2.7.3 5.3-.4l6-1q8-1 15.8-1.4 7-.2 14-.7 2.6-.1 5.3-.4l6.1.7a81 81 0 0 1 15.8 3.2l1.7-.4c3.1-1 6.3-2.2 9.6-2 5.6.2 11.1.8 16.7.9q14.4.3 28.9-.7" class="b"/><path d="M8 40.3c10.8.1 21.6 0 32.4.5l9.7.7q3 .5 6 .5 6.7-1 13.2-1.8 7.5-.7 14.9-.9t14.9-.7l6.1-.6 7 .8q8 .8 15.7 3c2.7-.4 5.3-1.5 8-2q2-.4 4.3-.2c5.8.1 11.7.7 17.5.7q13.1.3 26.3-.7" class="b"/><path d="M8 38.6q14.5.1 29 .7c4.6.2 9.3.8 14 .9 4.6-.4 9.3-1.3 14-1.7q7.7-.7 15.7-.7 8.2-.2 16.6-.7 4-.2 7.9-.8c2 .1 4.1.6 6.1.7q5.7.5 11.4 1.6c2.3.3 4.6 1.3 7 1.4 3.7-.9 7.5-2.3 11.4-2.1 6 0 12.2.6 18.3.6q12.3.3 24.6-.7" class="b"/><path d="M8 36.9q12.3.2 24.6.8c4.3.1 8.7.7 13 .7 4.8-.3 9.4-1.2 14-1.6q8.9-.6 17.6-.7 9.6 0 19.2-.6c3.2-.1 6.5-.7 9.7-.9l5.2.7q5.8.5 11.4 1.3 4 .8 7.9 1.7 3.5-.6 7-1.7 2.6-.4 5.2-.4c6.2 0 12.3.4 18.4.4q11.4.3 22.8-.7" class="b"/><path d="m8 35.1 20.2.8q6.5.5 13.1.7c4.7-.3 9.4-1.1 14-1.6q8.8-.7 17.5-.6 11.4.1 22.8-.5 5.3-.4 10.5-1l5.2.6q6 .6 12.3 1.4 4.4.7 8.7 1.6 3-.5 6.1-1.3 2.6-.5 5.3-.6c6.1-.3 12.3.1 18.4.1q11 .2 21.9-.7" class="b"/><path d="M8 33.3q9.3.4 18.4.9c4 .1 8.2.8 12.3.6q7.5-.7 14.9-1.8 7.4-.5 14.8-.4c8.5.1 17 .3 25.4-.3q6-.3 12.3-1.2l6 .8q11.1.7 22 2.8c1.4.2 3-.4 4.3-.7q3.1-.7 6.2-1c6-.4 12.2-.1 18.4-.1q10.5 0 21-.9" class="b"/><path d="M8 31.5q8.8.4 17.6 1c3.7 0 7.6.8 11.3.5q8.4-.9 16.7-2 6.5-.4 13-.1 13.7.4 27.2-.2 6.2-.4 12.3-1.3l7 .8q7.9.6 15.7 1.5 3 .4 6.1 1l2.7.3q1.3-.1 2.6-.5c6.9-1.4 14-1.3 21-1.4q11.4 0 22.8-1" class="b"/><path d="m8 29.6 16.7 1c3.7.2 7.6 1 11.4.6q8.8-.9 17.5-2.2h12.2q14 .6 28 0 6.2-.5 12.3-1.4 3.9.5 7.9.9 8.8.5 17.5 1.4 3 .3 6 1c1.2.1 2.5.5 3.6.3 14.1-2.6 28.6-1.5 42.9-2.9" class="b"/><path d="M8 27.6q8.4.4 16.7 1.2c3.4.2 7 1 10.5.6q9.6-1 19.2-2.3l11.4.2q14 .7 28-.1 6.2-.4 12.3-1.3 5.3.6 10.5 1c5.8.5 11.7.6 17.5 1.1 3.2.3 6.4 1.1 9.6 1.5q2.6-.2 5.3-.5 4.3-.5 8.7-.9 13.2-.6 26.3-1.4" class="b"/><path d="M8 25.7c5.6 0 11.1.8 16.7 1.3 3.1.2 6.4 1 9.6.7l21-2.4 12.3.3q15.8.7 31.5-.5 3.9-.5 7.9-1 6.5 1 13 1.3c5.6.3 11.2.2 16.7.7 3.8.3 7.6 1.3 11.4 1.6 4.6 0 9.3-.8 14-1.1l21.9-1.4" class="b"/><path d="M8 23.8c5.6-.3 11.1.8 16.7 1.3 3.1.3 6.4 1 9.6.9q11-1.3 21.9-2.5 6.5.1 13.1.5 19 .7 37.6-1.5 9.2 1.2 18.4 1.3l12.3.1q7.8 1.4 15.7 2c3.8.2 7.6-.5 11.4-.7L184 24" class="b"/><path d="M8 21.9h7l5.3.7c4.6.5 9.4 1.5 14 1.7q11-1.4 21.9-2.5 4.7 0 9.6.3c13.7.5 27.5.4 41.1-1.2q11 1.3 22 1.1l6-.1q2.3-.1 4.4.2 9.2 1.4 18.4 2c3.5.5 7 0 10.5-.2l15.8-1" class="b"/><path d="M8 20q4.5-.2 8.8 0 8.2 1.5 16.6 2.5c3.2.1 6.5-.8 9.7-1q7.4-.8 14.8-1.5c15.8.8 31.6 1 47.3-.4 2.6-.4 5.3.4 7.9.5a169 169 0 0 0 23.6-.2q7.5 1 14.9 1.6 8.7.6 17.5 1c5 0 10-.4 14.9-.4" class="b"/><path d="M8 18q5.3-.2 10.5 0 7.8 1.6 15.8 2.7c1.7.2 3.6-.3 5.2-.5l6.2-.7 10.5-1q3.9-.4 7.8 0 20.6.7 41.2-.2c3.2-.2 6.4.5 9.6.5a150 150 0 0 0 21-.6l4.4.5 9.6.7 34.2 1.5" class="b"/><path d="M8 16q5.8-.1 11.4.1c5.3.9 10.5 2.2 15.8 2.8 1.4.3 3-.1 4.3-.3l6.2-.8 10.5-.9q3.5-.4 7-.3c12.2.7 24.5.3 36.7.5q5.8 0 11.4.5A135 135 0 0 0 135 17l13.2.5 35.9.9" class="b"/><path d="M8 14.3q6.6-.4 13.2 0c5 .9 9.9 2.2 14.9 2.8q2.2.3 4.3-.3l6.2-.7 11.3-1q4.9-.4 9.7 0c9.3.3 18.7.1 28 .5 7.3.3 14.5 1.6 21.9 1.4 7.9.2 15.7-.8 23.6-1q21.5 0 42.9-.4" class="b"/></svg>