<svg xmlns="http://www.w3.org/2000/svg" id="a" width="1920" height="2400" viewBox="0 0 192 240"><defs><style>.b{fill:none;stroke:#fff;stroke-miterlimit:10;stroke-width:.3px}</style></defs><path d="M0 0h192v240H0z" style="stroke-width:0"/><path d="M8.2 226.2q12.7-.6 25.3-1c4 0 8.2-.4 12.3 0 3.2.2 6.4 1.1 9.6 1.9 1.7.4 3.5-.2 5.2-.4l3.5-.2q2.6-.6 5.2-.6c8 .2 15.7-1.6 23.6-1.8q11.9-.2 23.6-.3c7-.1 14 .5 21-.2q5.3-.5 10.5-2 2.6-.9 5.2-1.6h3.5c.6.3 1.4 1.5 1.8 2.2a12 12 0 0 0 2.6 3 12 12 0 0 0 5.2 2l3.5-.8c4.6-1.2 9.3-1.5 14-1.8" class="b"/><path d="m8.2 224.4 26.2-.9c4.4-.1 8.8-.6 13.1 0 3.3.2 6.4 1.5 9.6 2 2.3 0 4.7-.7 7-.5 3.7-.8 7.6-.4 11.4-.7 5-.3 9.9-1.2 14.8-1.5q6.6-.2 13.1-.2 7-.3 14-.3c7-.1 14 .4 21-.4q4.9-.5 9.6-2 2.6-.8 5.2-1.7c1.4 0 3-.2 4.4.2 2.4 4 4.8 6.3 9.6 7 1.7 0 3.5-.7 5.2-1q5.7-1 11.4-1.3" class="b"/><path d="M8.2 222.7q13.1-.4 26.2-1c4 0 8.2-.5 12.2-.3q3.6.3 7 1.3c1.7.5 3.5 1.3 5.3 1 2.6-.4 5.3-.3 7.8-.7q4.5 0 8.8-.2c4.6-.2 9.3-1.1 14-1.5q7-.1 14-.3t14-.3c6.9-.2 14 .3 20.9-.5q4.9-.5 9.6-2c1.7-.5 3.5-1.4 5.2-1.8h4.4c1.5 1.5 2.5 3.7 4.4 5q2.4 1.5 5.2 2 1.4.4 2.6.1 7-1.4 14-2" class="b"/><path d="M8.2 220.9q13.5-.3 27-1c3.8 0 7.7-.5 11.4-.4 4 0 7.6 1.6 11.4 2.5q1.8.2 3.5-.2 2.2 0 4.4-.3 3.8-.1 7.8-.1c5.6-.1 11-1.3 16.6-1.7q7-.1 14-.3 9.1-.4 18.4-.4c6.7 0 13.4.2 20-1.2q3.1-.6 6.2-1.8c1.6-.6 3.4-1.5 5.2-1.3h3.5c.7.1 1.4 1 1.7 1.6q1.2 1.6 2.7 2.8c2.5 1.8 5.7 2.7 8.7 2.8q6.5-1.3 13-1.8" class="b"/><path d="M8.2 219q14-.1 28-.8c3.7-.2 7.5-.7 11.3-.6q3.1.1 6.1 1.1c1.7.6 3.5 1.4 5.3 1.6q1.7.2 3.5-.1 2.2 0 4.3-.3l7-.1c6.2 0 12.2-1.6 18.4-1.7q12.6-.2 25.3-.8c6.4-.2 12.8.1 19.2-.4q6.8-.5 13.1-3.3 2.1-.9 4.4-.7 2.2 0 4.4.2c3.6 5.1 7 6.3 13 7q6.1-.9 12.3-1.5" class="b"/><path d="M8.2 217.2q14 0 28-.8c4-.1 8.1-.9 12.2-.8q2.7.3 5.2 1 2.6 1.2 5.3 2c2 .3 4-.1 6-.1q3.1-.4 6.2-.3 4.9 0 9.6-.5 4.3-.6 8.8-1.1 6.5-.3 13-.4t13.1-.6c6.4-.3 12.9-.1 19.3-.5q4-.2 7.8-1.1 3.7-1.1 7-2.6c1-.4 2.4-.2 3.5-.2h5.3c1.2.9 2.2 2.5 3.4 3.5a20 20 0 0 0 10.5 3.6c1.4.2 3-.3 4.4-.4q3.5-.5 7-.7" class="b"/><path d="M8.2 215.4q14.4 0 28.8-.8c4.1-.1 8.2-1.1 12.3-1 3.4.2 6.4 2 9.6 3.2 2.5.4 5.3 0 7.8-.1h6.1q4.5-.1 8.8-.6 4.4-.8 8.7-1.1 7-.3 14-.5l14.9-.8c7.5-.4 15.2.2 22.7-1.4q2.2-.5 4.3-1.5c1-.5 2.3-1.4 3.5-1.4h8.8c1.4.5 2.3 2.2 3.5 3a23 23 0 0 0 13 4.3l8.8-1" class="b"/><path d="M8.2 213.6q14.4.2 28.8-.8c5.8-.1 12-2.6 17.5 0 1.7.7 3.4 2 5.2 2.4q3.5 0 7-.2 5.7 0 11.4-.2c3.8-.2 7.6-1 11.4-1.4 4.9-.4 9.9-.3 14.8-.6q9.1-.7 18.4-1.2c4.9-.2 9.9 0 14.8-.5a28 28 0 0 0 7-1.6c1.4-.5 2.9-1.5 4.4-1.8q5.2-.2 10.4.1 2.1 2 4.4 3.7a28 28 0 0 0 11.4 3.3c2.8.3 5.8-.5 8.7-.5" class="b"/><path d="M8.2 211.8q11 .1 21.8-.4 8.4-.2 16.6-1.8c3.3-.6 6.9-.1 9.6 1.9 1.6 1 3.3 2.2 5.3 2l8.7-.2q4.9 0 9.6-.3c3.5-.3 7-1.1 10.5-1.3 7-.4 14-.5 21-1.2q8.2-.8 16.6-1.1c4.7-.2 9.4.2 14-1.1q2.2-.6 4.3-1.7 1.7-.8 3.5-.7h7c1.1 0 2.6-.3 3.5.5 3.5 3.5 8.3 5.4 13.1 6.1l5.3.7 5.2-.4" class="b"/><path d="M8.2 210q11.4.2 22.7-.4 4.9-.2 9.6-.8 3.5-.6 7-1.5a11 11 0 0 1 7.9 1.1c1.5 1 2.7 2.6 4.3 3.3h7.9l7-.3q2.6.2 5.2 0c3.5-.3 7-1.1 10.5-1.3q13.2-.6 26.2-2 6.1-.7 12.2-1c3 0 6 .4 8.8 0q3.1-.5 6.1-1.5c1.7-.7 3.4-1.6 5.2-1.4h7c1.8.1 3.9-.5 5.3.8 3.6 3.2 8.4 4.8 13 5.6q4.8 1 9.7.7" class="b"/><path d="M8.2 208.2q12.3.1 24.5-.4c3.4-.3 7-.4 10.4-1.5 4.2-1.2 9.4-3.3 13.1-.2 1.3 1 2 3 3.5 3.9h8.8q3.5-.5 7-.5l5.2.2c2.9-.3 5.8-1 8.7-1.2q7.9-.6 15.8-1c5.2-.5 10.4-1.5 15.7-2.1q3.5-.5 7-.7c2 0 4 .5 6 .4a30 30 0 0 0 7-1q2.7-.8 5.3-1.6h8.8c1.7 0 3.5-.3 5.2.2 1.2.3 2.4 1.3 3.5 2q1.6 1 3.5 1.7c5.2 2.2 11 3 16.6 3.3" class="b"/><path d="M8.2 206.4q12.2.1 24.5-.4c3.2-.3 6.5-.4 9.6-1.4l5.2-2q2.7-.4 5.2 0c3.8.6 4.9 3 7 5.6h7.9q3.5-.3 7-.5l7 .2q3.5-.4 7-1c5.8-.6 11.6-.6 17.4-1.4 6.2-.8 12.3-2.2 18.4-3.1l2.6-.4 3.5.6q3 .4 6.1 0 4-.4 7.9-1.8c2-.3 4.1 0 6.1-.1q3.5-.1 7 .1l6.1 1.7q2.2 1 4.4 2 7.6 2.8 15.7 3.3" class="b"/><path d="M8.2 204.6c9.3 0 18.7.2 28-.7q2.2-.1 4.3-.7l4.4-1.5c6.3-1.7 10.8-.6 14.8 4.6 1.1.3 2.4.1 3.5.2h4.4c2.9-.2 5.8-.8 8.7-.6l6.2.3q3.4-.6 7-1c5.2-.5 10.5-.7 15.7-1.5 6.8-.8 13.3-3.2 20-4.3 2.7-.2 5.3 1 8 1 3.5.3 7-.8 10.4-1.4q5.7-.2 11.4 0c3.7.9 7.5 2 11.3 2.5a67 67 0 0 0 17.5 4.3" class="b"/><path d="M8.2 202.8c9.3 0 18.7.3 28-.7 4.1-.4 8-2.2 12.2-2.6 4.9-.4 7.9 1.6 11.3 4.7 1.6.7 3.6.5 5.3.5 2.9.1 5.8-.4 8.7-.6a58 58 0 0 1 8.8.3c2.3 0 4.6-.6 7-.9l10.4-1q7.2-.6 14-3c2.6-.7 5.2-1.8 7.9-2.2a48 48 0 0 1 7 0c4 1 8.2.7 12.2 0q4.4-.1 8.7-.1c2.7-.1 5.3 1 7.9 1.4q5.2 1 10.5 1.4c1.7.2 3.5 1.1 5.2 1.5q5.2 1.5 10.5 2.3" class="b"/><path d="M8.2 201c9.3 0 18.7.3 28-.7 4.1-.3 8-2 12.2-2.4 4.8-.2 7.6 1.7 11.3 4.4 1.7.6 3.6.5 5.3.6 2.9.1 5.8-.5 8.7-.6q4.5-.2 8.8.4c2 0 4-.5 6-.7l9.7-1q6.2-.7 12.2-2.7c2.6-.8 5.2-2.3 7.9-2.8h5.2l11.4.1q5.6-.2 11.3-.1 2.7 0 5.3.9 2.6.7 5.2 1c5 .8 10 .8 14.9 1.2q6 1.8 12.2 3" class="b"/><path d="M8.2 199.2c9.9.1 19.9.4 29.7-.8 2.6-.4 5.2-1.4 7.9-1.9q3.9-.7 7.8.6 2.9 1.1 5.3 3c2.6 1.2 5.8.9 8.7 1q4-.5 7.9-.7 3.9 0 7.8.6 7.9-1.2 15.7-2a44 44 0 0 0 10.5-2.8c2.5-1 5-2.8 7.9-2.5h20q3.7-.1 7 .1 3.6 1 7 1.7a92 92 0 0 0 21.9 1q5.3 1.6 10.5 2.6" class="b"/><path d="M8.2 197.4c9.9.1 19.9.5 29.7-.8 2.6-.4 5.2-1.4 7.9-1.9q4.5-.6 8.7 1c1.6.7 3 1.9 4.4 2.7q2.5.8 5.2.8 3.5 0 7-.3 4-.4 7.9 0c2 0 4 .6 6 .1 8.6-1.4 17.7-1.5 25.4-5.8q1.3-.7 2.6-1.2h16.6c3.8 0 7.7-.3 11.4.2q7.3 2.1 14.8 2.8c6.4.4 13 .5 19.3-.5 2.9.4 5.8 1.4 8.7 2" class="b"/><path d="M8.2 195.7c9.6 0 19.3.5 28.8-.7 2.7-.5 5.3-1.5 7.9-2q5-1 9.6 1c1.6.6 2.8 2.2 4.4 2.7q3 .7 6 .7c3.6.1 7.1-.4 10.6-.4 2.9-.2 5.8.6 8.7.4 6.1-1 12.4-1.6 18.4-3.3q2.7-.8 5.2-2.1 1.6-1 3.5-1.7 3-.2 6.1 0c6.4 0 12.8-.3 19.2 0q4 1 7.9 2a65 65 0 0 0 9.6 1.3q8.3.5 16.6-.2 3.5-.4 7-1.2l6.1 1.3" class="b"/><path d="M8.2 193.9c9.3 0 18.7.7 28-.6 2.6-.5 5.2-1.6 7.8-2.1q5-1.1 9.6.8 1.6.5 2.6 1.7 1.2.8 2.7 1.3c6.9 1.4 14-.3 21 .5q1.6.2 3.4.2 3-.3 6.1-1 6.8-.7 13.1-2.8 3.2-1.2 6.2-3c1.2-.7 3-.4 4.3-.4h7.9c4 0 8.2-.3 12.2.4q4.4 1 8.8 2 5.2 1 10.4 1.3 9.6.7 19.3-.5 4-.5 7.8-2.1l4.4.6" class="b"/><path d="M8.2 192.1c8.7.1 17.5.7 26.2-.3 3-.5 5.8-1.8 8.7-2.4a17 17 0 0 1 9.7.5q1.5.5 2.6 1.8 2 1.5 4.3 1.8c7.3.8 14.6-.5 21.9.5 3.2 0 6.4-1 9.6-1.4 5.5-1 11-2.3 15.7-5.3 1.8-1 4.1-.4 6.1-.6h8.8c2-.1 4.1.5 6.1.9q7 1.2 14 2.5a111 111 0 0 0 34-1c1.9-.4 3.6-1.5 5.3-2.2l2.6.1" class="b"/><path d="M8.2 190.4c8.4.1 17 .8 25.3-.3 3-.5 5.8-1.9 8.8-2.5q4.8-1.2 9.6.3c1 .2 1.9 1.2 2.6 1.8a9 9 0 0 0 4.4 1.9c7.2.9 14.6-.2 21.8.6 3.2.2 6.5-.9 9.6-1.4 4.8-.9 9.8-2 14-4.6 2.3-1.4 5.3-1.2 7.9-1.2h7c1.4-.2 3 .4 4.3.9q2.6.8 5.3 1.4c5.2.7 10.4 1.7 15.7 2q13.1 1 26.2-.6 3.6-.5 7-1.7l3.5-1.8q1.2-.3 2.6-.2" class="b"/><path d="M8.2 188.7c8.1.2 16.4 1 24.5-.3 3-.6 5.8-2 8.7-2.7q4.8-1.2 9.6.2c1 .2 1.8 1.4 2.6 2q2.3 1.7 5.3 2c6.6.6 13.4 0 20 .5 3.6.5 7.1-.7 10.5-1.3 4.2-.9 8.5-1.9 12.3-4 1.2-.8 2.9-1 4.3-1.3 3.8-.8 7.6-.5 11.4-.6 1.2 0 2.4.7 3.5 1.1q2.5 1.2 5.2 1.8 14.3 2.6 28.9 2.3c6.4-.2 12.9-.5 19.2-1.9q2.7-.5 5.2-2c.8-.3 1.8-1 2.6-1.2h1.8" class="b"/><path d="M8.2 187c7.8.2 15.8 1 23.6-.4 3-.7 5.8-2.1 8.7-2.8q4.9-1.2 9.6 0c4.4 4.2 7.3 4.5 13.1 4.5q7 .1 14 .3c3.5.5 7-.4 10.5-1.1q5.3-1 10.5-3l2.6-1.3q2.2-.7 4.4-1 5.2-.9 10.5-.7c1.2 0 2.4.8 3.4 1.3q2.6 1.3 5.3 2a133 133 0 0 0 50.6 0q2.3-.7 4.4-1.7c1.4-.7 2.8-1.9 4.4-1.6" class="b"/><path d="M8.2 185.5c7.3.2 14.7.8 21.8-.5 3-.7 5.8-2.2 8.8-3q4.6-1.3 9.6-.4c1.2.7 2.3 2 3.5 2.7 2.5 1.7 5.7 2.1 8.7 2.2l15.7.4c3.9.4 7.7-.6 11.4-1.4 4.2-1 8.5-2 12.2-4a64 64 0 0 1 14.9-1.7c1.7.7 3.4 2 5.2 2.7q4.3 1.6 8.8 2.1 8.6 1.2 17.4 1.4c9.7.1 19.5-.4 28.9-2.8q2.7-.8 5.2-2c1-.6 2.3-1.6 3.5-1.5" class="b"/><path d="M8.2 184c6.7 0 13.5.6 20-.7 3-.7 5.9-2.2 8.8-3q3.5-1.1 7-1 2-.2 3.5.7c4.4 4.3 9 4.8 14.9 4.8l13 .4c3.9.3 7.7-.6 11.4-1.4 4.2-1 8.5-2 12.3-4 1.9-.8 4-.9 6-1.2l8-.5c1.2 0 2.3 1.2 3.4 1.8a21 21 0 0 0 4.4 2c6.8 2 14 2.3 21 2.8q14 .7 28-1.7 4.4-.8 8.6-2.4c1.8-.7 3.5-2 5.3-2.6" class="b"/><path d="M8.2 182.5c6.4 0 13 .5 19.2-1.1 3-1 5.8-2.5 8.8-3.3q3-.8 6-.8c1.2 0 2.6-.1 3.6.6 4.1 3.8 8.4 5 14 5.1l13 .5q5.3.3 10.5-1a81 81 0 0 0 11.4-2.8c1.8-.6 3.5-1.8 5.2-2.4q5.7-.7 11.4-.9c1.7-.3 3 1.3 4.4 2q2 1.5 4.3 2.1 6 1.8 12.3 2.2 6 .8 12.2.5c4.6-.3 9.3.2 14 0 8.7-.6 17.7-2.2 25.3-6.7" class="b"/><path d="M8.2 181c5.5-.1 11.2.3 16.6-1.2 2.4-.6 4.7-1.9 7-2.8q5.4-2.2 11.3-1.7c7.4 6.2 12 5.8 21 6 3.8.1 7.6.6 11.4.5q9.8-1 19.2-4.1 2.7-1.1 5.2-2.5a61 61 0 0 1 11.4-.5c1 0 1.9 1 2.6 1.6 4 3.2 9.1 4 14 4.7 3.2.4 6.4.8 9.6.3a172 172 0 0 1 25.3.3c7.3-.8 14.6-2.8 21-6.5" class="b"/><path d="M8.2 179.4q5.7.1 11.4-.6c3.4-.4 6.5-2.2 9.6-3.6a24 24 0 0 1 11.3-2c1.3.3 2.4 1.5 3.5 2.2q2.5 1.6 5.3 2.7c3.3 1.2 7 1.3 10.4 1.4l11.4.5q4.9.1 9.6-.8 6.3-1 12.2-2.8a30 30 0 0 0 7-3.2q2.7-.4 5.3-.3 3-.2 6 .1c5 5.4 11.6 6.3 18.4 6.9a192 192 0 0 1 26.3-1.1q5.2.3 10.4 1 9.3-1.3 17.5-6" class="b"/><path d="M8.2 177.8q5.8-.1 11.4-1.1c2.7-.8 5.2-2.7 7.8-3.8a23 23 0 0 1 11.4-1.7c2.8 1.7 5.5 3.9 8.7 5 6.7 2.2 14 1.3 21 2 3.8.4 7.6-.2 11.4-.8q6.6-1.1 13-2.8c2.8-.7 5.4-2.3 8-3.5h9.5c1.2 1 2.3 2.4 3.5 3.3 3.2 2.5 7.4 3.2 11.4 3.7 1.7.1 3.5-.4 5.2-.5q4.8-.5 9.6-.7 7.8-.3 15.7-.3 6.7 0 13.1 1.5c5.3-.8 10.2-3.3 14.9-5.6" class="b"/><path d="M8.2 176c3.5-.2 7.2-.3 10.5-1.6 1.6-.6 2.9-2 4.4-2.8q3.9-2.6 8.7-2.4c1.7.1 3.6-.2 5.2.3 2.3 1.3 4.6 3 7 4 5.2 2.4 11 2.4 16.6 2.6 3.8 0 7.6.7 11.4.4q10.5-1.2 21-3.7a26 26 0 0 0 5.2-2l2.6-1.5h8.8c1 .3 1.8 1.8 2.6 2.6 2 2.3 4.9 3.6 7.8 4.1q2.2.6 4.4.2c9.8-1.5 19.8-1.4 29.7-1.6 5.6 0 11.2.1 16.6 1.7 1.8.2 3.6-.8 5.2-1.4 2.7-1 5.3-2.5 7.9-3.7" class="b"/><path d="M8.2 174.1c16.2-1.2 8.2-7.3 20-6.6h6.2c1.6.3 3 1.6 4.4 2.3q2.4 1.6 5.2 2.5c5.6 2 11.7 1.8 17.5 2.1l7 .4q4-.1 7.8-.8 8.5-1 16.6-3 2.8-.6 5.3-1.8c1.3-.6 2.7-2 4.3-1.7h7c1.6 2 2.9 4.6 5.3 5.7q2.5 1.2 5.2 1.5 2.2-.2 4.4-.7 6-.8 12.2-1l20.1-.3c21.5-.7 9.8 6.1 27-2.8" class="b"/><path d="M8.2 172c3-.4 6.3-1 8.7-3.2 1.2-.9 2.2-2.4 3.5-3h8.8c1.7 0 3.7-.4 5.2.6a39 39 0 0 0 7 3.7c7.8 3 16.3 2.1 24.5 2.9 4.3.2 8.7-.7 13-1.3q7.5-.9 15-2.5 2.6-.6 5.1-2c1.4-.6 2.8-1.7 4.4-1.5h3.5q1.4 0 2.6.3c1.7 3.8 3.5 6.3 7.9 7 1.7 0 3.5-.7 5.2-1q6.6-.8 13.1-.8 11-.1 21.9-.4c3.4-.1 7-.3 10.5.2 2.3.3 4.6 1.5 7 1.9 3-1 5.7-3 8.7-4.4" class="b"/><path d="M8.2 169.7q5.2-1 8.7-4.9c1-1 2.3-.8 3.5-.8H30c2.4-.3 4.2 1.7 6.1 2.6q3.8 2.1 8 3c3.9 1 8 1 12.1 1.2 3.5 0 7 .5 10.5.5q5.7-.4 11.4-1.3l13-1.9q5.7-.7 10.6-3.5c1-.7 2.3-.6 3.4-.6h3.5c.8.5 1.5 2.4 1.8 3.2 1 2.1 2.8 4 5.2 4.2 1.8-.3 3.5-1 5.3-1.2q3.8-.8 7.8-.8c8.8-.2 17.5 0 26.2-.3 4.7 0 9.4-.7 14-.1 2.4.2 4.8 1.3 7 2.2 2.9-.5 5.2-2.8 7.9-4" class="b"/><path d="M8.2 167q2.9-.8 5.2-2.8c1-.7 2.1-2.1 3.5-2h12.3c1.6 0 3 1.3 4.3 2q3 1.8 6.2 2.8c7 2.3 14.5 1.8 21.8 2.4 5.2.5 10.5-.6 15.7-1.2 5.8-.8 11.7-1.3 17.5-2.3q4.6-.9 8.7-3.4c1.6-.5 3.6-.1 5.3-.3 1 1.7 1.4 4.6 2.6 6.2 1.7 1.8 3.2 1.4 5.2.5q3-1 6.1-1.3 6-.3 12.3-.1c7.5 0 15.1.2 22.7-.2 4.9-.1 10-1.3 14.8.1 1.8.5 3.4 1.8 5.3 2 2.1-.9 4-2.4 6-3.5" class="b"/><path d="M8.2 164q2.8-1.2 5.2-3.2c1.3-.6 3-.2 4.4-.3H24q2.6-.2 5.3.2c2.8 1.5 5.6 3.5 8.7 4.4 6.7 2.3 14 2 21 2.5 5.5.5 11-.4 16.6-1q8.8-1 17.5-2 4.4-.5 8.7-2c1.5-.4 3-1.4 4.4-2h2.6c.3 1.6 1.2 5 1.7 6.6l.9.8q1.9.3 3.5-.9 2-1 4.4-1.3c3.1-.5 6.4-.3 9.6-.3l11.3.3q7.9.2 15.8 0l8.7-.7q4-.6 7.9 0c2.1.5 4 2 6 2.7 2-.8 3.6-2.3 5.3-3.3" class="b"/><path d="M8.2 160.8c3.3-1.7 3.1-2.2 7-2h10.5c2-.4 3.6 1 5.2 2q2.9 1.8 6.1 2.8c6.8 2 14 1.8 21 2.3 7.9.5 15.7-1.3 23.6-1.9q8.2-.7 16.6-1.6c2.9-.5 6-.7 8.7-1.8.8 1.6 1.6 4 2.6 5.5q1.3.3 2.7 0c3.4-3.5 8.6-3 13-2.7l13.2.6q8.7.4 17.4.1 4.5-.2 8.8-.8c2.6-.3 5.3-.8 7.8-.3 2.6.3 4.7 2 7 3 1.6-.6 3-1.9 4.4-2.8" class="b"/><path d="M8.2 158.6q2.2-.9 4.4-1.5 1.7-.1 3.5-.1h9.6c2.1.8 4 2.5 6 3.4a31 31 0 0 0 8 2.4q6.4 1 13 1 6.1.7 12.3.1c9-1 18-2 27-2.4 4.1-.3 8.2-.8 12.3-.4q1.6.3 2.6 1.4a8 8 0 0 0 1.8 2c3.5.7 2.9-2 5.2-3.3 3-1 6.5-.3 9.6 0q6.1.7 12.2 1 9.7.4 19.3.3 4.3 0 8.7-.8c2.9-.4 5.8-1.1 8.7-.9q2.3.2 4.4 1.5c1 .6 2.3 1.6 3.5 2 1.2-.5 2.4-1.6 3.5-2.3" class="b"/><path d="M8.2 157.4c2.9-.7 5.7-2 8.7-2.1h4.4q1.8-.2 3.5.2a33 33 0 0 0 18.3 6.2q4.9.4 9.7.5 3.9.4 7.8.1c7.9-.4 15.7-1.7 23.6-2 6.1-.3 12.3-1 18.4-.3q2.5.5 4.3 2.2c3.7 2.4 5.3-3.6 7.9-5.2 11.3 3.5 23.2 3.7 35 4q7 .2 14-1c4.2-.6 9-2.4 13 0 1.5.7 2.8 2.1 4.4 2.6l2.6-1.8" class="b"/><path d="M8.2 156.2c4.6-1 9.2-2.5 14-2.5.9 0 1.9.7 2.6 1.2q2 1.4 4.4 2.5c4.4 1.9 9.2 2.4 14 2.7 5.5.2 11 .8 16.6.4 8.1-.4 16.2-1.7 24.4-2q5.7-.3 11.4-.2c3.6 0 7.4.2 10.5 2.3 2 1.4 3.9-.9 5.2-2.2q2.3-2.6 5.2-4.1a47 47 0 0 0 19.3 4.4q8.3.6 16.5.7 6.2 0 12.3-1.1c4.2-1 9-2.5 13 0 1.6.6 2.8 2.3 4.4 2.5l1.8-1.2" class="b"/><path d="M8.2 155c5-.6 9.9-1.9 14.9-1.7 6 4.3 13.7 4.9 21 5.2l9.5.4q4.5 0 8.8-.4c9-1 18-1.9 27-1.9q5.8-.2 11.4.7 2.7.6 5.2 1.9c1.4.1 2.6-1 3.5-1.7 2.1-1.7 7-5.6 9.6-4.8 6.3 3.8 13.9 4 21 4.6 7 .4 14 1 21 0 4.9-.7 9.8-2.8 14.8-1.7 2.3.5 4.2 2.1 6.2 3.4h.8l.9-.7" class="b"/><path d="M8.2 153.9c22-2.4 10.6.3 27 2.4q5.8.5 11.4.7 5.7.3 11.4-.1 5.7-.3 11.4-1 6.5-.6 13-.9c6.2 0 12.4-.4 18.4 1 4 .8 4 2.6 7.9-.2 3.5-2.5 7.7-5 12.2-4.8q2 1.4 4.4 2.3c5 1.8 10.4 2 15.7 2.5 7 .5 14 1 21-.1 5.1-.7 10.5-3.1 15.7-1.4 1.9.6 3.5 2.1 5.2 3l.9-.2" class="b"/><path d="M8.2 152.7c5-.3 10-.6 14.9-.1q1.3.1 2.6.7l4.3.9q6 .7 12.3 1c3.4 0 7 .3 10.5 0q8.2-.1 16.6-1.3 10-.8 20-.6c3.8.1 7.7.2 11.4 1.2l3.5 1.1c.4 0 1.3-.3 1.7-.5 5.7-3.6 9.7-5.5 16.6-5.4a33 33 0 0 0 14.9 4.2q7.8.9 15.7 1 5.7 0 11.4-1c4.8-1 10-3.1 14.8-.8 1.5.7 2.8 2 4.4 2.6" class="b"/><path d="M8.2 151.5q7.5-.3 14.9.2 2.2.3 4.3.7 3.5.6 7 .7 6.6.5 13.1.5c6.1-.3 12.3-.4 18.4-1.1q4.3-.6 8.7-.8 6.1-.3 12.2-.2c5.6.1 11.3.6 16.6 2.4 2.8-.7 5.2-2.8 7.9-3.7 4.1-1.7 8.7-2 13-1.6q3 1.7 6.2 2.4a99 99 0 0 0 34 1.3c5-.9 10-3.1 15-1.1 1.5.6 2.9 1.8 4.3 2.6" class="b"/><path d="M8.2 150.2q7.5-.1 14.9.4 7 .9 14 1 7.3.4 14.8 0 8.8-.3 17.5-1.5 9.5-.6 19.2-.2 4.9.1 9.6 1c3.7.9 4.2 1.9 7.8-.2a25 25 0 0 1 7-2.9c4.3-1 8.8-.8 13.1-.3 1.7.6 3.5 1.6 5.3 2q7.6 2 15.7 2.3 8.8.6 17.5-1c7-1.6 12.7-4.3 19.2 1" class="b"/><path d="M8.2 148.8c9.6 0 19.2 1 28.8 1.3 4.4.2 8.8-.3 13.1-.4 6.4-.2 13-.4 19.3-1.5a176 176 0 0 1 19.2 0q4.9.2 9.6 1.2 1.7.6 3.5.8 2.8-.6 5.2-2.2 3-1.5 6.1-2a39 39 0 0 1 14.9.4l3.5 1.4a62 62 0 0 0 15.7 2.5 73 73 0 0 0 17.5-1c6.6-1.5 13.1-4.4 19.2.5" class="b"/><path d="M8.2 147.4c9 0 18 .9 27 1 11.1-.6 22.3-.3 33.3-1.9 2.3-.5 4.7-.3 7-.4a122 122 0 0 1 21.8 1.6q1.8.6 3.5.8 2.8-.7 5.2-2.1t5.3-1.9q8.3-1.3 16.6.6c2.3.4 4.6 1.5 7 2.1q5.2 1.2 10.5 1.4c6 .2 12.3.3 18.3-.8 6.7-1.3 14-4.7 20 0" class="b"/><path d="M8.2 146c9.9.2 19.8 1 29.7.4 9.9-.4 19.9-.3 29.7-1.6q4-.7 7.9-.5a114 114 0 0 1 21 1.7c1 .2 2.3.7 3.4.7q2.3-.5 4.4-1.5c1.7-.8 3.4-1.9 5.2-2.2 5.8-1.2 11.8-.7 17.5.5 3 .6 5.8 1.7 8.7 2.4q4.4 1 8.8 1c6.4.1 12.9.3 19.2-.9 6.6-1.2 14-4.4 20-.3" class="b"/><path d="m8.2 144.4 15.7.6 14-.5c9.9-.3 19.9-.3 29.7-1.5l4.4-.6h3.5q6.1 0 12.2.6 5.3.5 10.5 2c1.8 0 3.6-1 5.2-1.5 1.8-.6 3.4-1.9 5.3-2.2q8.7-1.5 17.4.5c5.5 1.3 11 3.3 16.6 3.4 7 .1 14 .3 21-1 6.6-1.1 13.8-4 20-.3" class="b"/><path d="M8.2 143c9 .5 18-.2 27-.4 11.1-.2 22.3-.2 33.3-1.5l4.4-.6h4.3q6.6.2 13.1 1.2l7 1.5c2.7-.3 5.4-1.5 7.9-2.6 1-.4 2.3-1.2 3.5-1.3 5.5-.8 11.1-.3 16.6.7 5.5 1.3 10.9 3.3 16.6 3.4 7 .2 14 .3 21-.8 6.8-1.2 14.2-4 20.9-.6" class="b"/><path d="M8.2 141.3q13.5-.2 27-.5c11.4-.2 22.8-.3 34.2-1.6 6-1 12.2-.3 18.3.5q4 .7 7.9 1.6c1.4.5 3-.4 4.3-.7 3-.9 5.8-2.4 8.8-3.2q8.3-.6 16.6 1c5.4 1.3 10.9 3.1 16.6 3.2 7 .3 14 .3 21-1 6.8-1 14.2-3.3 21-.3" class="b"/><path d="m8.2 139.4 23.6-.5c12.2-.1 24.5-.1 36.7-1.3l6.1-.8q6.1.2 12.2 1.2 4 .7 7.9 1.6c1.7.2 3.6-.7 5.2-1.1l8.8-3.1q7.8-.4 15.7 1.1c5.5 1.2 11 3 16.6 3.2q10.5.6 21-1c7.1-1 14.8-3 21.8-.2" class="b"/><path d="M8.2 137.4c20-.6 40.2.1 60.3-1.6l7-.8q6.1.3 12.2 1.6l4.4 1q1.3.4 2.6.3c4.7-1.2 9.3-3 14-4.4 2-.3 4 0 6 0q5 .4 9.7 1.3c5.5 1 11 2.7 16.6 3 7 .4 14-.2 21-1 7.2-1 14.8-2.5 21.8 0" class="b"/><path d="M8.2 135.5c19.8-.6 39.6.2 59.4-1.4l8.7-.8q5.3.5 10.5 1.6l4.4 1q1.3.5 2.6.1c4.7-1.2 9.3-3 14-4.1 2.8-.9 5.9-.2 8.7 0 7.7.5 15.1 3 22.7 3.7 7.3.5 14.7-.1 21.9-1 7.5-.8 15.4-1.8 22.7.6" class="b"/><path d="M8.2 133.6c19.8-.6 39.6.2 59.4-1.2q4.8-.4 9.6-.7 4.5.6 8.7 1.6l3.5.9q1.3.5 2.7.2c4.6-1.2 9.2-3 14-4l4.3-1 7 .6c6.7.6 13.3 2.5 20 3.1 7.6.7 15.3.2 22.8-.5a61 61 0 0 1 23.6 1" class="b"/><path d="M8.2 131.7c10.5-.4 21-.1 31.5-.2q17.8 0 35.8-1.3c3.2-.2 6.5.8 9.6 1.5 1.7.3 3.5 1.2 5.2 1q3.6-1 7-2.1 6.8-2.2 14-3c7.3.3 14.6 1.6 21.8 2.6 8.1 1.2 16.4.9 24.5.4a77 77 0 0 1 26.2 1.6" class="b"/><path d="M8.2 129.8c9.3-.4 18.6-.1 28-.1q17.8 0 35.8-1c3.2-.1 6.5-.1 9.6.8q3 .8 6.1 1.5 1.8-.1 3.5-.8a84 84 0 0 1 20-4.5c3-.4 6 .4 8.8.6 9 1 18 2.5 27.1 2.3 7.6 0 15.2-.5 22.7 0q7 .4 14 2" class="b"/><path d="M8.2 128c9.6-.5 19.2 0 28.8-.1q17.1 0 34.1-.7c2.9 0 6-.2 8.7.6l4.4 1.2q1.8.5 3.5 0 4.4-1.4 8.7-2.8c5.7-1.6 11.7-2 17.5-2.6 8.7.5 17.5 1.7 26.2 2.4s17.5.2 26.2.7c6 .3 11.7 1.4 17.5 2.5" class="b"/><path d="M8.2 126c14.6-.4 29.1.3 43.7 0 7.5 0 15.1-.7 22.7-.3q2.7.2 5.2.9c1.7.3 3.6 1.3 5.3.8 4.3-1.2 8.6-3.1 13-4 5.5-1 11.1-1.2 16.7-1.7 2.5-.4 5.2.2 7.8.2q8 .5 15.7 1.4 9.7.9 19.3 1.2a145 145 0 0 1 21.8 2.6q2.2.6 4.4.2" class="b"/><path d="M8.2 124.2c9.6-.4 19.2 0 28.8 0 10.2.2 20.4-.2 30.6-.2q4.9 0 9.6.8c5 1.3 4.7 1.5 9.6-.4a68 68 0 0 1 23.6-4.3c4.7-.2 9.3-1 14-.6 6.1.2 12.3 1.3 18.4 2q10.5 1 21 2l10.4 1.6q2.6.5 5.2.7l4.4-.7" class="b"/><path d="M8.2 122.3c9.3-.3 18.6.2 28 .2l29.6-.2q5.3 0 10.5 1.2 1.8.4 3.5.7 3.6-1 7-2.4 5.5-2 11.4-2.8c5.5-.7 11-.6 16.6-1 5.2-.4 10.5-1.2 15.7-.7 4.7.5 9.3 1.6 14 2.3q8.7 1.4 17.4 2.5l13.1 2q4.6-.4 8.8-1.3" class="b"/><path d="M8.2 120.5c12.2-.3 24.5.3 36.7.2 10.5.2 21.2-1 31.4 1.6 1.2.3 2.5-.2 3.5-.6l6.1-2.3a50 50 0 0 1 14-2.7q7-.2 14-.6c6.4-.5 12.8-1.2 19.2-.3q8.8 1.3 17.5 3.3 9.6 1.9 19.2 3.2c4.7 0 9.4-1.3 14-2" class="b"/><path d="M8.2 118.7c11.6-.3 23.3.3 35 .2 7.2 0 14.5-.2 21.8.3 3.2.2 6.4 1 9.6 1.4 3.6-.6 7-2.6 10.5-3.6q6.4-2 13-2.2 6.2 0 12.3-.4c7-.5 14-1.4 21-.4 5 .9 9.9 2.4 14.8 3.4 6.4 1.3 12.8 2.7 19.2 3.2 6.2-.6 12.3-2 18.4-2.9" class="b"/><path d="M8.2 117c12.2-.5 24.5.2 36.7.2q8.8 0 17.5.3l6 .9c1.5.1 3 .6 4.4.3 3.6-.9 7-2.9 10.5-3.8a48 48 0 0 1 13.1-1.9q5.7.2 11.4-.1c7.2-.8 14.6-2 21.8-.7 6.2 1.3 12.1 3.8 18.4 5l7.8 1.2c1.7.2 3.6.6 5.3.3 7.6-.6 15-2.9 22.7-3.8" class="b"/><path d="M8.2 115.1c6.7-.3 13.4 0 20 0q12 .3 23.7.4 5.3 0 10.5.6c2.6.2 5.2 1.3 7.8.7 3.1-.5 5.8-2.4 8.8-3.3q7.2-2.3 14.8-2.2c4.4 0 8.8.6 13.1.1 3-.3 5.8-1.1 8.7-1.4 4.4-.2 8.9-.5 13.1.4 4 1 7.6 2.9 11.4 4q6.4 1.9 13.1 2.6c2 .2 4.1-.3 6.1-.4l8.8-1.3q4.5-.9 8.7-2.4 3.5-.7 7-1" class="b"/><path d="M8.2 113.4c7.3-.4 14.6-.1 21.8 0l21.9.4q4.3.3 8.7.8c2.3.3 4.7 1 7 .4q2.7-.6 5.3-1.8c1-.5 2.2-1.4 3.4-1.7q7.4-2.2 14.9-1.7c5 0 10 1.3 14.8.6 3-.4 5.8-1.8 8.8-2.2q3.5-.1 7-.1 3-.2 6 .4c3.4 1 6.4 3 9.7 4.2q5.9 2.2 12.2 2.6c7-.7 14.1-1.2 21-2.8q3.5-.9 7-2.2c2-.8 4-1.9 6.1-1.6" class="b"/><path d="M8.2 111.6c8.7-.4 17.5 0 26.2.1 8.4.2 17 .1 25.3 1.5q2.6.6 5.3-.1 4.2-.7 7.8-3c3-2.2 11.2-2 14.9-2q4 .3 7.8 1.2c2.9.5 5.9 1.2 8.8.9 3.5-.3 6.3-2.9 9.6-3.7 2.3-.3 4.7-.1 7-.2 2.3 0 4.8-.3 7 .6 2.1.8 4 2.2 6 3.3a28 28 0 0 0 12.3 3.4l7-.8c6.2-.6 12.4-1.1 18.4-2.6q3.5-1 7-2.4c1.6-.6 3.4-1.4 5.2-1.5" class="b"/><path d="m8.2 109.9 11.4-.3 14 .3c7.5.2 15.2.4 22.7 1.5q1.2.1 2.6.4l2.6-.5q4.6-.7 8.7-2.8c1.2-.5 2.3-1.6 3.5-1.9a53 53 0 0 1 18.4 1.5q3.3 1.2 7 2c11.3 2.4 10-6 17.4-5.5h6.1c1.4 0 3-.2 4.4.3 2 .7 3.6 2.1 5.2 3.2q2.9 2 6.2 3c1.6.4 3.5.9 5.2.7l8.8-1c6.4-.5 12.9-1 19.2-2.5q3-.8 6-2c2-.8 4-1.8 6.2-1.7" class="b"/><path d="M8.2 108.1c7-.1 14-.5 21-.1 7.5.3 15.2.5 22.7 1.5 1.4.1 3 .6 4.3.4q4.5-.6 8.8-2a32 32 0 0 0 7-3.4c1.6-.6 3.5 0 5.2 0q4 .3 7.9 1.2 4 1.2 7.8 2.8c3.1 1 6.4 1.9 9.6 1.8 4.7.2 6.2-.8 8.8-4.6 2-2.9 2.7-3 6.1-2.9h7.9c2.8 0 4.7 2.8 7 4.3q3.9 2.9 8.7 3l7-.9c7.3-.6 14.7-.7 21.8-2.3a46 46 0 0 0 7-2.2c2.2-.8 4.6-2 7-1.9" class="b"/><path d="m8.2 106.4 15.7-.4q7 .2 14 .7 7 .6 14 1.5a78 78 0 0 0 7.8-1.4q6-1.4 11.4-4.5 1.3-.3 2.6 0a72 72 0 0 1 11.4 3c2.5 1 5.1 2.4 7.8 3 2.9.6 5.9.2 8.8.3h4.4c1 0 2.4.2 3.4-.2 2.3-1.8 2.5-5.8 5.3-7 1.6-.5 3.5-.3 5.2-.3q3-.1 6.1.2c1.8.4 3 2.1 4.4 3.3 2.1 2 5 3.5 7.9 3.8 3.4-.3 7-1 10.5-1.1 6-.4 12.2-.4 18.3-1.4q4.6-.8 8.7-2.5c2.6-1 5-2.6 7.9-2.3" class="b"/><path d="M8.2 104.7c8.4-.1 17-.8 25.3.1q7.5.8 14.9 1.6a76 76 0 0 0 16.6-3.8c7-2.8 4.5-3.3 12.2-.7 4.2 1.3 8 3.9 12.2 4.8 4 .4 8.2 0 12.3.2h6q1.9.1 3.6-.3c1.5-2.2 2.5-5.5 5.2-6.6 3.3-1 7.4-.7 10.5.5 1.4.5 2.5 1.8 3.5 2.9a11 11 0 0 0 7 3.3c9.5-2 19.3-.9 28.8-2.2q5-.7 9.6-2.7c2.5-1 5-2.8 7.9-2.5" class="b"/><path d="M8.2 103.1q10-.2 20-.2 7.5.6 15 1.7c1.3.3 3-.2 4.3-.3l6.1-1.1q5.4-1 10.5-2.7 3-1.2 6.1-2.3c5 1.3 9.2 4.6 14 6.3 3.4 1.1 7 .5 10.5.6h17.5c2.8-3.4 3.2-7.2 8.7-7a14 14 0 0 1 8.7 3.2q1.6 1.7 3.5 2.8 1.7.9 3.5.8l3.5-.6q4-.5 7.9-.6c7.2-.2 14.7.3 21.8-1.2q4.6-1 8.8-3.4 2.5-.7 5.2-1" class="b"/><path d="M8.2 101.5c7 0 14-.2 21 .2 3.5.3 7 1 10.5 1.3q6-.7 12.2-2 9-1.5 17.4-4.6c4.7 1.7 8.3 5.5 13.1 6.7q2.2.5 4.4.3H113c1.7-1.6 2.5-4.2 4.4-5.5 4.7-3.1 10.3.6 14 3.7a8 8 0 0 0 4.3 1.6q3-.7 6.2-1c8.4-.6 16.9.3 25.3-.6q4.6-.5 8.7-2.3l7.9-1.6" class="b"/><path d="M8.2 100q8.8 0 17.5.3 3 0 6 .6c1.5.1 3 .5 4.4.4 11-1.8 21.9-3.3 32.4-6.7 1.9.8 3.5 2.3 5.2 3.5 2.6 1.6 5.5 3.6 8.7 3.5q15.8 0 31.5 0c1.6-1.5 2.5-3.9 4.4-5.1 4.5-3 9.3 1.1 13 3.6q1.7 1 3.6 1.4c2-.4 4-1 6-1 8.5-.6 17 .4 25.4-.2a34 34 0 0 0 7-1.2l10.5-2" class="b"/><path d="M8.2 98.4q7.5 0 14.9.4c2.8.1 5.8.7 8.7.8q7.5-1.2 14.8-2.5 10.5-1.6 21-4.3c4 2 6.9 6 11.4 7q4.3.1 8.7 0h17.5c3.1 0 6.4.3 9.6 0 1.2-1.3 2.2-3 3.5-4.2 3.1-2.8 7.5-.7 10.5 1.4 5.9 4 5 2.5 11.3 1.8 8.2-.5 16.3.5 24.5.2 6.5-.1 12.9-1.6 19.2-2.8" class="b"/><path d="M8.2 96.7q6.6.2 13.1.6c2.6 0 5.3.7 7.9.4 4-.3 8.1-1.5 12.2-2.1C49.3 94.2 57.2 93 65 91c2-.8 3.8 1 5.2 2.2q2.3 2.3 5.3 4.1c1.5 1 3.5.8 5.2.8h30.5c1.5 0 3.2.3 4.5-.3 1.3-1.4 2.5-3.4 4.3-4.3 2.3-1.1 5-.2 7 1 2.5 1.2 5 3.6 7.9 3.4 4-1.1 8.1-1.1 12.2-1 7 .4 14 .9 21 .6a135 135 0 0 0 15.7-2.4" class="b"/><path d="M8.2 94.8q6.1.3 12.2.8c3 .2 5.9.7 8.8.1q3.5-.3 7-1.2 2.1-.7 4.3-1.3L53.6 91l7-1.5c2.5-.5 5.7-1.3 7.9.5 2.6 2 4.6 5.3 7.8 6.4q5.7.1 11.4.1h28c1.3-.8 2.3-2.4 3.4-3.4 2.6-2.3 6.1-1.2 8.8.4 1.9 1.1 3.9 2.4 6 2.8 1.8-.2 3.6-.8 5.3-.9 4.4-.3 8.8.2 13.1.4q6 .4 12.3.3c6.4.3 12.8-1 19.2-2" class="b"/><path d="m8.2 92.8 12.2 1c3 .2 5.9.8 8.8.2q4-.4 7.8-1.6c1.8-.5 3.5-1.5 5.3-2q8.2-1.8 16.6-3.2 3-.1 6-.1c1.7 0 3.3 0 4.5 1.2 2.3 2 3.9 5.4 7 6.3h37.5c1.3 0 2.7.2 3.5-1 2.4-2.8 5-4.4 8.8-2.7 2.6 1.1 5 3 7.8 3.5a39 39 0 0 1 13.1-.7l7 .5q4.8-.2 9.6-.2l7.9.3q6.1-.6 12.2-1.7" class="b"/><path d="M8.2 90.8q6.6.3 13.1 1c2.6.2 5.3 1 7.9.6q8.5-.8 15.7-5.4c4-.9 8-1.9 12.2-1.7H65c1.7.2 3.8-.4 5.2.9 2.2 2 3.4 5.1 6.1 6.5 1.4.4 3 .1 4.4.2h33.2c1.1 0 2.5.2 3.5-.5 2.5-2.6 4.9-4.7 8.7-3.1 2.7.9 6 3.7 8.8 3.2 4.8-1.3 9.9-.6 14.8-.2q3 .2 6.1-.1l8.8-.3c3.2 0 6.4.5 9.6.6q4.8-.5 9.6-1.4" class="b"/><path d="M8.2 88.8q7 .3 14 1c2.9.2 5.8 1.2 8.7 1q7.7-1 14-5.4 1.6-1.2 3.5-1.8h21.8c1.2.5 2 2 2.7 3a12 12 0 0 0 4.3 4.1c2 .8 4.1.3 6.1.4h31.5c2.1.1 2.8 0 4.4-1.6 3-3 6-2.7 9.6-.8 6.5 3.6 5.7 1.3 12.2 1.3 3.2 0 6.4.5 9.6.7l6.1-.5q8.8-.5 17.5.4c3.2.3 6.4-.6 9.6-1" class="b"/><path d="M8.2 86.8q8.3 0 16.6 1.2c2.6.3 5.3 1 7.9 1.2q3.2-.5 6-1.5 3.3-1.4 6.2-3.5c1.3-1 2.7-2.3 4.4-2.3h20c1-.1 2 .8 2.7 1.4q1.2 1.5 2.6 2.7c4.6 4.5 6.5 3.2 12.2 3.4h29.7c1.4.2 2.6-1 3.5-1.9 1.2-1 2.8-1.9 4.4-1.8 4 0 7.3 4.1 11.3 3.1 4.4-.9 8.8-.3 13.1.1 2.6 0 5.3-.5 7.9-.5a87 87 0 0 1 14 0l7 .5 6-.8" class="b"/><path d="M8.2 85q13.6-.5 27 2.5c5-.1 9-3.2 12.3-6.3 1.2-1.3 2.8-1.1 4.4-1.1h17.5c1.6.2 3 1.6 4.3 2.5 2.2 1.7 4.5 3.6 7 4.7 2.2.7 4.7.2 7 .3h29.7c1 0 2-.8 2.6-1.4 1.4-1.2 3.3-2.4 5.3-2.1 3.4.3 6.2 3.1 9.6 3.1l3.5-.5c3.4-.3 7 .2 10.4.5l7.9-.7q7-.4 14 0l7.8.7 5.3-.7" class="b"/><path d="M8.2 83.2c6.7-.2 13.4-.4 20 .5q3.6.4 7 1.3c2 .6 4.2 1.2 6.2.4 3.5-.9 5.5-4.2 7.9-6.6 1-.7 2.3-.4 3.5-.4H65q2.7-.2 5.2.2c4.8 1.7 8.5 5.5 13.1 7.3h34.1c1.3.2 2.5-.9 3.5-1.7a7 7 0 0 1 4.3-1.8c2.5 0 4.8 1.6 7 2.4 1 .5 2.4 1 3.5.5 4-.8 8.2-.4 12.3 0 2.8.1 5.8-.5 8.7-.6q7.5-.5 14.9.1l7.8.6 4.4-.5" class="b"/><path d="M8.2 81.5c8.1-.4 16.4-1.1 24.5 0q2.6.5 5.2 1.4c2.8 1.2 6.3 2.2 8.7-.3 1.8-1.6 2.7-4.3 4.4-6h16.6c6.1.6 11.6 4 16.6 7.2 1 .5 2.4.3 3.5.4h30.6c1.3 0 2.5-1.2 3.5-2 3.4-3 7-.8 10.5.8l2.6.8 1.7-.3a27 27 0 0 1 5.3-.4q3.5.2 7 .6 6-.8 12.2-1 7 0 14 .6l4.3.3q2.2 0 4.4-.4" class="b"/><path d="M8.2 79.8c6.4-.3 12.8-1 19.2-1.2s11.1.1 16.6 3.5c1 .5 2.4.3 3.5.3 1 0 2-1.1 2.6-1.8 4.5-5.9 8-5.7 14.9-5.5 6 .3 12.2 1.3 17.4 4.4 1.5.9 2.8 2.5 4.4 3h32.3c1-.2 2-1 2.7-1.6 1.4-1.2 3.3-2.2 5.2-1.8 2.1.3 4.1 1.5 6.1 2.3q1.3.6 2.6.5 2.2-.4 4.4-.6 4.4 0 8.7.6c2.6 0 5.3-.5 8-.6q7.7-.5 15.6 0c3.8.3 7.6.8 11.4.2" class="b"/><path d="M8.2 78.1c10-.4 19.8-2.6 29.7-2.5q2.2 0 4.4.8c2.5 1.5 4.5 4.7 7.8 4.2 4.8-.5 5.8-6 16.6-6.4q7.6-.3 14.9 1.7 1.9.6 3.5 2c.8.7 1.7 1.8 2.6 2.4 1.3.6 3 .3 4.4.4H120c2.3-1.2 4.2-3.8 7-3.5 3.1.3 5.7 2.7 8.7 3l3.5-.6c3.5-.3 7 .3 10.5.6l6.1-.6q7.8-.4 15.7 0c4.1.2 8.2.8 12.3.2" class="b"/><path d="M8.2 76.3c7-.2 14-1.6 21-2.8q3.9-.8 7.8-1.3c4 0 7.5 2 10.5 4.2 2.7 2 5.5 3.5 8.8 1.6 5.4-3.3 10.2-5 16.6-5.1 3.7 0 7.7-.3 11.3.8 5.8 6.6 5.8 5 14 5.2h19.2c1.4 0 3.2.3 4.4-.7 3.8-3.3 6-3.5 10.5-1l3.5 1.4q3-.8 6-.8 4.6 0 8.8.6 3.5-.2 7-.5 7.5-.4 14.9.1l6 .4q2.7-.1 5.3-.4" class="b"/><path d="M8.2 74.7a97 97 0 0 0 15.7-2.4l7-1.7q4.4-.7 8.8-.1 4.6.6 8.7 3.1c2.5 1.4 5 3.3 7.9 3.5q2.7-.5 5.2-1.9 3-1.4 6.1-2.4c4.8-1.5 9.9-1.8 14.9-2.3 2.5 1.4 4.5 3.7 7 5.2 2.1 1.6 4.4 1.5 7 1.5h24.4c1.3-.4 2.4-1.6 3.5-2.3 2.9-2.3 6-1 8.7.6 1 .5 2.3 1.3 3.5 1.2q3-.8 6.1-.8l9.7.8 4.3-.4a147 147 0 0 1 21 .4l6.1-.5" class="b"/><path d="M8.2 73c6.9 0 13.4-2.3 20-3.6a37 37 0 0 1 16.7 0c4.9 1.4 9 5 14 6 3.4-.3 6.4-2.4 9.6-3.5q6-2.1 12.2-3.3c3.6.8 6.5 3.4 9.6 5q2 1.3 4.4 1.8H120q2 .3 3.5-1.1c5.2-5 7.9-1.2 13.1.8q3-.9 6.1-1c3.5 0 7 .5 10.5.7q3 .1 6.1-.2h7.9l8.7.3 7.9-.5" class="b"/><path d="M8.2 71.2c6.9.1 13.5-1.9 20-3.4q7-1.5 14-.8 5 .7 9.7 2.7c3.1 1.3 6.2 3 9.6 3.8 1.1.2 2.4-.3 3.5-.6l4.3-1.7q4.8-2 9.7-3.8c1.7-.2 3.5.6 5.2 1.1 3.9 1.3 7.4 3.6 11.4 4.9 2.2.5 4.7.2 7 .3q10 0 20-.1c2.1-1.1 3.6-3.6 6.2-3.8 3 0 5.2 2.3 7.8 3.3 1.1.4 2.4-.4 3.5-.5q3-.5 6.1-.3l10.5.8q4.4-.1 8.8-.1l8.7.1 9.6-.6" class="b"/><path d="M8.2 69.4c7.2.3 14-1.8 21-3.4a44 44 0 0 1 21 .7c4.4 1.3 8.6 3.3 13 4.6 2.1.9 4.1.3 6.2-.5q4-1.7 7.8-3.6c2.2-.8 4.8-.3 7 0 4.8.8 9.3 3.1 14 4.5 2.5.5 5.3.1 7.8.2h11.4q3 .2 6.1-.1c2-1.3 3.6-3.8 6.1-4 2.7 0 4.8 2 7 3.2 1.4 1 3-.1 4.4-.2q3-.6 6.1-.3c5.5.3 11 1 16.6.9q10 0 20.1-.8" class="b"/><path d="M8.2 67.6q5.2 0 10.5-.8 5.2-1 10.5-2.3a59 59 0 0 1 33.2 3.8c2.2.7 4.6 1.8 7 1.7 2.4-.4 4.7-1.6 7-2.7 3.8-1.4 8.1-1.3 12.2-.7 4.4.7 8.6 2.7 13 3.5q9.3.2 18.4 0 2.2.2 4.4 0l1.7-1.6c2.3-2.6 4.8-3.8 7.9-1.6 1.4.9 2.8 2.3 4.4 2.8 2-.3 4-1 6-1 5-.2 10 .5 15 .6 8 .5 16.3 0 24.4-.6" class="b"/><path d="M8.2 65.7q5.7 0 11.4-.8c4-.7 8-1.9 12.2-2.5 11.2-1.6 22.5.8 33.2 4 9.6 3.2 6.7 1.8 15.7-.6a31 31 0 0 1 9.6-.5q4.6.5 8.8 1.8 2.5.7 5.2 1.3h20.1c1 0 2-1 2.6-1.8a9 9 0 0 1 3.5-3c2-.6 4.1.5 5.2 2.1a9 9 0 0 0 3.5 2.3c6.8-2.2 14-.7 21-.6 7.9.5 15.7-.1 23.6-.6" class="b"/><path d="M8.2 63.8a90 90 0 0 0 11.4-.8c4.3-.6 8.7-1.7 13-2.3q9.2-.9 18.4.6a137 137 0 0 1 21 4.4c1.6.6 3.5 1 5.2.4a43 43 0 0 1 28.8.4c3.2.4 6.5 0 9.6.2q5.3 0 10.5-.1c2.1-1.7 3.2-5.1 6.2-5.6 1.5-.3 2.5 1.3 3.4 2.2 1.2 1.3 2.7 2.6 4.4 3 6.8-2.2 14-.8 21-.7 7.6.4 15.1-.2 22.7-.6" class="b"/><path d="M8.2 62q5.7-.2 11.4-.9c4.6-.7 9.2-1.7 14-2 7-.6 14 .2 21 1q7.4.8 14.8 2.3 3.4 1 7 2 2.2.5 4.3-.2a46 46 0 0 1 19.2-1.4c3 .4 5.9 1.4 8.8 2 2.5.3 5.3 0 7.8.1H127c2-1.8 2.7-5.1 5.3-6.3 1.4 0 2.5 1.4 3.4 2.3 1.5 1.4 3.2 3 5.3 3.6 6.5-2.1 13.4-1 20-1q11.6.4 22.8-.5" class="b"/><path d="M8.2 60.2q5.7-.3 11.4-1 7-1.2 14-1.7c3.1-.2 6.4.2 9.5.2 7 .1 14 1 21 1.7 5 .4 10 2 14.9 3.1 2.6.8 5.2-.4 7.8-.8q6-1.1 12.3-1c4.4.2 8.7 1.7 13 2.4q8 .2 15.8 0c1.5-1.6 2.1-4.3 3.5-6 3.3-.9 6.5 4.3 9.6 5.3 1.4.8 3-.4 4.4-.6 5.7-.8 11.6-.2 17.4-.1q10.5.3 21-.6" class="b"/><path d="M8.2 58.4C14.6 58 21 57 27.4 56.3q1.8-.1 3.5 0l5.2.4c5.9.2 11.7 0 17.5.2 5.5.4 11.2.5 16.6 1.5q4.5.8 8.8 1.8c2 .3 4 1.1 6 .6a61 61 0 0 1 20.2-1.4c3.5.3 7 1.9 10.5 2h7.8c1.7 0 3.6.3 5.3-.2.8-1.4 1.4-3.7 2.6-4.8 3-2 6.2 1.8 8.7 3.3 1 .6 2.3 1.4 3.5 1.2q2.2-1 4.4-1c5.5-.5 11-.1 16.6-.1q9.6.2 19.2-.5" class="b"/><path d="M8.2 56.6q8.3-.7 16.6-1.9c2-.1 4.1.6 6.1.6q4.9.4 9.6.3c8.2 0 16.4-.2 24.5.5 7 .5 14 2.1 21 3.2 2.6-.2 5.2-1 7.8-1.2q6-1 12.3-.6c3.5.2 7 1.3 10.4 2 4 .4 8.2.1 12.3.2 1-1 1.6-3 2.6-4 3-2.8 6.8.5 9.6 2.2 1 .6 2.3 1.4 3.5 1.3q2-.9 4.4-1c5.2-.6 10.5-.3 15.7-.3q9.6.2 19.2-.4" class="b"/><path d="M8.2 54.9q7.5-.7 14.9-1.8c2 0 4 .7 6 .7q5.3.5 10.5.5c9 0 18.1-.4 27.1.3 7.4.5 14.6 2 21.9 2.9 6.9-1 13.9-2.5 21-1.7 3.8.3 7.5 1.8 11.3 2.1h5.2c1.1 0 2.6.3 3.5-.4 2.9-6.4 7.6-4.5 12.3-1.4 4 2.5 3.7.8 7.8.3 5-.6 10-.3 14.9-.3q9.6 0 19.2-.4" class="b"/><path d="M8.2 53.2q7-.7 14-1.7 8.7 1.3 17.5 1.3c9 0 18-.3 27 .2 7.6.4 15.2 1.5 22.7 2.5 2.6.5 5.3-.5 7.9-.7a66 66 0 0 1 12.2-1c4.8 0 9.4 1.5 14 2.4h5.3c.5-.4 1.4-1.5 1.7-2.1q1.7-2.1 4.4-2.4c4.2-.4 7.5 3 11.3 4.1 5.4-1.9 11-1.5 16.6-1.5q10.5 0 21-.4" class="b"/><path d="M8.2 51.5q6.6-.7 13.1-1.5c2.3 0 4.7.6 7 .7q7 .5 14 .5c9.6 0 19.2-.3 28.8.4q7.5.6 14.9 1.5l5.2.6q1.7.4 3.5 0c6-.8 12.2-2 18.3-1.7 3 .1 5.9.7 8.8 1 3.3.7 6.9 1.3 8.7-2.3 1.7 0 3.5-.7 5.2-.6 4.2-.2 7.7 2.5 11.4 3.9 1.7-.1 3.5-1 5.2-1.2q5.3-.5 10.5-.3 10.5 0 21-.4" class="b"/><path d="M8.2 49.9q6.6-.7 13.1-1.5 8.2 1 16.6 1c12.8.3 25.7-.2 38.4.9q9.7.9 19.3 1.9 6-.9 12.2-1.8 4.8-.6 9.6-.3 3 .3 6.1.2 1.5 0 2.6-.8c2.7.2 4-.4 6.2-2q1.6.9 3.5.8 2.2 0 4.3.6c3 .6 5.7 2.7 8.8 3.4 5-1.8 10.4-1.6 15.7-1.6q9.6 0 19.2-.4" class="b"/><path d="m8.2 48.3 13.1-1.4q7.8.8 15.7.9c12.5.2 25-.1 37.6.7q10.5.7 21 1.8 2.2.3 4.3-.2l7-1q4.3-.9 8.7-1c2.6-.2 5.4.1 8-.4.7-.2 1.7-.8 2.5-.9h2.7c1.7 0 3.7-1 5.2-1.3 2.7 1.4 6 1 8.7 2.2q2.3.8 4.4 1.8c1 .4 2.3 1.2 3.5.9 5-1.7 10.5-1.4 15.7-1.5q8.8 0 17.5-.4" class="b"/><path d="m8.2 46.7 13.1-1.4q7 .6 14 .7 11.7.1 23.6.4 7.4 0 14.8.4l17.5 1.1c3.5.2 7 1.2 10.5.5q7-1.1 14-2.2c3.1-.5 6.6-.1 9.6-1.7q4.8.8 9.6-.8c.8-.1 1.8.5 2.6.7l4.4 1c3 .7 5.8 2.1 8.7 3.2 1.1.3 2.4-.4 3.5-.6q2.6-.6 5.2-.7c8.2-.3 16.4-.2 24.5-.6" class="b"/><path d="M8.2 45.2q7-.9 14-1.4 11.7.8 23.6.6 12.7.4 25.3.6 12.7.6 25.3 1.5l4.4.4q1.8 0 3.5-.4 6.6-1 13-2.3l5.3-1c.8 0 1.8-.6 2.6-.5q3.1.4 6.2 0l3.5-.4c.7-.1 1.8-.5 2.6-.2 3.3 1.4 7.1 1.7 10.5 3.2l4.3 1.7q1.4-.1 2.6-.6c4.6-1.1 9.4-1 14-1l14.9-.4" class="b"/><path d="M8.2 43.6c5.2-.4 10.5-1.3 15.7-1.2 8.5.3 17 .2 25.4.6l22.7.4q12.2.5 24.4 1.3c2.3 0 4.7.5 7 .4 6.5-.7 12.9-2.3 19.2-3.8l1.8-.6 1.7.3q2.7.2 5.3 0 3.5 0 7-.8c3.7 1.3 7.6 2.1 11.3 3.5q2.2.9 4.4 1.5l2.6-.7c4.6-1 9.3-1 14-1l13-.3" class="b"/><path d="M8.2 42q7.5-.7 14.9-1.2 13.5.1 27 .7l22.7.3q12.3.6 24.5 1.1l7 .5a76 76 0 0 0 15.7-3.1q2.2-.7 4.4-1.3 4 .5 7.8.3 4 0 7.9-.8c3.4 1.3 7 2.1 10.5 3.3l4.4 1.5c.8.2 1.8-.2 2.6-.4 4.5-1.1 9.3-1.2 14-1.3l12.2-.2" class="b"/><path d="M8.2 40.4q8.2-.9 16.6-1 12.7 0 25.3.5l23.6.4q12.7.4 25.3 1 3.5 0 7 .4 6.9-.5 13.1-2.6c1.8-.5 3.5-1.5 5.3-1.7q4.4.3 8.7.2a57 57 0 0 0 8.8-.8q5.2 1.8 10.4 3.4l4.4 1.4q1.4 0 2.6-.4c8-1.9 16.3-1.2 24.5-1.7" class="b"/><path d="M8.2 38.8q7.8-.7 15.7-1 12.8.1 25.4.5 26.2.4 52.4 1.3l6 .3q7.8-.5 15-3.5c1.5-.7 3.5-.4 5.2-.4l7.8-.2q4 0 7.9-.7c3.4 1.4 7 2.2 10.5 3.4l4.3 1.4q1.4-.1 2.7-.5c7.4-1.8 15.1-1.4 22.7-1.7" class="b"/><path d="M8.2 37.2c13.7-1.4 27.4-.8 41-.5q27.2.4 54.2 1.2l6.1.3q7.3-.5 14-3.5 7-.7 14-.6 4 0 7.9-.6 5.2 1.8 10.4 3.3l4.4 1.4q1.4-.1 2.6-.5c6.9-1.7 14-1.6 21-1.9" class="b"/><path d="M8.2 35.6c13.7-1.3 27.4-.7 41-.5l56.8 1c2.3.1 4.7.5 7 .2q3.7-.3 7-1.5c1.4-.3 3-1.1 4.4-1.4 5.2-1 10.5-1 15.7-1l7-.6q5.2 1.7 10.5 3.3c1.7.5 3.5 1.3 5.2 1.4l1.8-.5c6.2-1.6 12.8-1.7 19.2-2" class="b"/><path d="M8.2 33.9c13.7-1.2 27.4-.6 41-.5l35.9.8q11.3 0 22.7.2l5.2.3q2.2-.1 4.4-.5c3-.6 5.8-1.9 8.7-2.5 5.2-1 10.5-1 15.8-1.1q3.5-.1 7-.6 5.2 1.8 10.4 3.3 2.2.8 4.4 1.3 1.4.3 2.6-.2a85 85 0 0 1 17.5-2.2" class="b"/><path d="M8.2 32.2c14.8-1.2 29.7-.5 44.6-.4l33.2.7q11.8 0 23.5.2c2 0 4.2.4 6.2.2 4.2-.3 8.1-2 12.2-2.8 5.4-1.3 11-1.1 16.6-1.3l4.4-.4c.7 0 1.8-.3 2.6 0q4.3 1.6 8.7 2.8c2.3.6 4.7 1.6 7 1.8q8.2-2 16.6-2.5" class="b"/><path d="M8.2 30.5c14-1 28-.5 42-.4l35.7.8q11.9-.1 23.6 0c2.6 0 5.3.5 7.9.3 4.1-.5 8.2-2 12.2-2.8 5.5-1.3 11.1-1.2 16.6-1.4 2.3 0 4.7-.6 7-.5l9.6 3c2.3.7 4.7 1.6 7 1.8q7-1.7 14-2.4" class="b"/><path d="M8.2 28.7c12.2-.8 24.5-.4 36.7-.3q20.1.2 40.2.8l22.7-.1q3.5 0 7 .2 3.4.5 7-.3c3.8-.7 7.5-2 11.3-2.7q7-1 14-1 4-.2 7.9-.7c5.5 1.7 11 3.6 16.6 4.9 1.7.3 3.5-.6 5.2-.8q3.5-.8 7-1.2" class="b"/><path d="M8.2 27c13-.9 26.2-.4 39.3-.3q18.4.3 36.7.8 9.6 0 19.2-.2 5.7-.1 11.4.1c2.3 0 4.7.7 7 .2q5.7-1 11.3-2.6a81 81 0 0 1 14-1.4 78 78 0 0 0 9.6-.9q1.4.3 2.6.7c5.3 1.4 10.4 3.4 15.8 4.5 2.9-.2 5.8-1.2 8.7-1.6" class="b"/><path d="M8.2 25.2c16.6-1 33.2-.1 49.8 0 13.4.1 26.8 1 40.2.4q7.4-.1 14.8-.1l6.1.3q2.2.4 4.4 0 4.9-.8 9.6-2 5.3-1.2 10.5-1.7c3.5-.3 7-.2 10.5-.6q2.6-.3 5.2-.7l2.6.7q6.2 1.6 12.3 3.6l4.3 1q2.7-.2 5.3-.8" class="b"/><path d="M8.2 23.4c16.3-.9 32.6 0 49 0 12.7.1 25.6 1 38.4.5 6.4 0 12.8-.4 19.2-.2q4.4 0 8.7.7 4-.4 7.9-1.5 6.5-1.6 13-2.4 4.8-.3 9.7-.6 2.6-.2 5.2-.7c1.1-.2 2.4-.5 3.5 0q5.8 1.1 11.4 3 3 .9 6.1 1.8c1 .2 2.4.6 3.5.4" class="b"/><path d="M8.2 21.6c16.3-.9 32.6 0 49 0 13 .1 26.1 1 39.2.5 6.7-.1 13.4-.5 20.1-.2 3.2 0 6.5.5 9.6.7q4-.6 7.9-1.5 7-1.6 14-2.4c5.2-.4 10.6-.4 15.7-1.8q5.3.7 10.5 2 4.8 1.4 9.6 3" class="b"/><path d="M8.2 19.7c15.7-.8 31.5.2 47.2.1 14.5.2 29 1 43.7.4 6.6-.1 13.4-.5 20-.1 3 0 5.9.6 8.8.8 3.2-.3 6.4-1.2 9.6-1.8q5.3-1.2 10.5-1.9c3.7-.5 7.6-.5 11.3-.9q2.2-.2 4.4-.7c1.1-.2 2.4-.7 3.5-.7 5.6.7 11.3 1.3 16.6 3.4" class="b"/><path d="M8.2 17.9c12.8-.8 25.6 0 38.4 0q18 .2 35.9.8 12.2-.1 24.4-.5 11.4-.6 22.7 1 6.6-.8 13.1-2.3c6.3-1.6 12.8-1.7 19.3-2.3q4-.6 7.8-1.8c4.7.4 9.4.3 14 1.4" class="b"/></svg>