<svg xmlns="http://www.w3.org/2000/svg" id="a" width="1920" height="2400" viewBox="0 0 192 240"><defs><style>.b{fill:none;stroke:#fff;stroke-miterlimit:10;stroke-width:.3px}</style></defs><path d="M0 0h192v240H0z" style="stroke-width:0"/><path d="M11.6 227.5q4.2-1.5 8.4-2.8c2.5-.5 5-1.2 7.6-1.1q3.3.8 6.7 1.2c1.5-2.5 2-3.3 5-3 2.3 0 4.6-.6 6.8-1q4.9-1.1 10-1.2 5.1.3 10 1.1c8.4.5 16 4 23.6 7q2.8 1.4 5.9 1.5 3.7 1.4 7.5 1c2.7-.2 5.2-1.3 7.6-2.5 1.3-.6 2.7-1.5 4.2-1.7q3.7.4 7.5.3 5.2-.6 10 .5c2.3.2 4 2 6 2.7 7.9 3.7 12.7 2.6 21 1.3l12.5-2.1q4.2-1 8.4-1.5" class="b"/><path d="M11.6 223.9c4.8-.9 9.6-1 14.3-2.2 1.1-.2 2.3.4 3.4.5 1.3.2 2.8.9 4.2.7.5-1 1.4-2.4 2.5-3 1-.1 2.3.4 3.4.4q3-.1 5.8-.8c4.4-.8 9-1.5 13.5-1 6.4 1 13 1.2 19.3 3.1q4.6 1.5 9.2 3.2a23 23 0 0 0 8.4 2c4.4 1.6 9.2 1.1 13.4-.8l3.4-1.4c.7-.2 1.7-.7 2.5-.6q4.6 1 9.2.7 4.7-.3 9.3 1a33 33 0 0 0 15.9 4.7c3.4 0 6.8-.8 10-1.3l12.7-2.3q4-1 8.4-1.7" class="b"/><path d="M11.6 221.9c3 0 6.3.4 9.3-.3 1.6-.4 3.3-1.4 5-1.7 1.4 0 2.9.7 4.2 1 .8.2 1.8.6 2.5.2 2.7-4.4 2.7-2.7 6.7-2.2 2 .2 4-.4 6-.7q5.3-1.2 10.8-1c3.7 0 7.3 1 11 1q7.6.6 15 3c3.4 1 6.7 2.4 10.1 3.1q1.6.2 3.4.2l3.3.7q4.7.4 9.3-1.2l5-1.8c1-.3 2.3.2 3.4.3q2 .5 4.2.6 2.5.2 5 0 3 0 5.9.6c1.5.2 2.8 1.4 4.2 2q3.3 1.2 6.7 2c5.8 1.6 11.8.5 17.6-.5l11.8-2.3q4.2-1 8.4-1.7" class="b"/><path d="M11.6 221.4q4.4 1.2 8.4-.5c1.7-.7 3.3-2 5-2.6q1.4-.3 2.6.5l3.3 1 .9-.4c.8-1.2 1.7-3 3.3-3 1.1.3 2.3 1 3.4 1.2 2 .3 4-.2 5.9-.6 2.4-.6 5-.6 7.5-.9 3.4-.5 6.8 0 10.1.3 4.2.5 8.5.4 12.6 1.3q5.2 1 10 2.5c2.8.8 5.6 1.9 8.5 2h2.5q2.5.5 5 .5c3.7.1 7.4-1 11-2.1l1.6-.5 3.4.7q3.3.8 6.7.8 4.2-.2 8.4.3 5.5 2.7 11.7 4c5.6 1.2 11.3.3 16.8-.7 6.7-1.2 13.4-2.8 20.2-4" class="b"/><path d="M11.6 221.5c2.9 1 6.1 0 8.4-1.8 1.6-1 3.1-2.7 5-3q1.4.1 2.6.8l2.5.8c1.4-.6 1.9-2.7 3.4-3.3 1.1-.4 2.3.4 3.3.9q2.1.7 4.2.5c1.1-.1 2.3-.6 3.4-.6q6.3-.3 12.6-1c5.3.4 10.7.5 16 1.2q5.5.7 10.8 2.3c2.8.6 5.6 1.6 8.4 1.8 1 0 2.4 0 3.4-.3q3 .5 5.9.5c3.4 0 6.8-1 10-1.7 1.7-.5 3.4.4 5 .6q3.8.8 7.6.7 3.8-.3 7.6 0l2.5 1.2q5.3 1.8 11 2.6c5 1 10 .1 15-.6 6.8-1 13.5-2.6 20.2-3.8" class="b"/><path d="M11.6 221.2c2.8 1 5.6-.8 7.6-2.5 1.5-1.3 3-3.1 5-3.5 1.8-.2 3.4 1.3 5 1.7 1-.6 1.8-2 2.6-2.9 2-1.7 3.9.4 5.9 1s4.5-.1 6.7-.2q4.2 0 8.4-.6c2.2-.3 4.5-.8 6.7-.5q8 .3 16 1.1c4.8.7 9.5 2.1 14.2 3q3.4.5 6.7-.3c4.8.9 9.6.2 14.3-.8 1.6-.4 3.4.3 5 .6q4.2.8 8.4.7 3.8-.4 7.6 0l3.4 1q6.6 1.6 13.4 2.4c5 .2 10.1-.6 15-1.2 5.7-.7 11.3-2 16.9-3" class="b"/><path d="M11.6 220c4.7.9 7.2-4.6 11-6.1 2-.7 4 .5 5.8 1.2 1.4-1 2.4-3 4.2-3.2 1.9 0 3.4 1.4 5 1.8q3.5.6 6.8 0 2.5 0 5-.2c3.7-.1 7.3-1.3 11-1q8 .1 15.9 1 5 .6 10 1.7 3.4.7 6.8.7 2.1-.2 4.2-.6c4.4.8 9 .2 13.4-.5 2 0 4 .7 5.9.9q4.6.7 9.2.2 3.4-.3 6.7 0l4.2.8c4 .5 7.9 1.3 11.8 1.6q5 .2 10-.2 3.4 0 6.8-.2c5-.6 10-2 15-2.8" class="b"/><path d="M11.6 217.6c2 .2 3.6-1.2 5-2.2 4.3-3.5 5.7-3.8 11-2.2 1.5-1.8 3.4-3.4 5.9-2.5 1.3.5 2.7 1.4 4.2 1.8q3 .6 5.8.1 3 0 6-.2c3.6 0 7.2-1.2 10.8-1.2l15.2.6q5 .6 10 1.3c4.2.7 8.5 1.2 12.6.1q5.4.7 11 0c1.6-.4 3.3 0 5 .3q3.4.5 6.7.7 3.3 0 6.7-.4h6.7l8.4.6q5 .8 10 .7 2.2 0 4.3.5 2.5.4 5 .4c6.3-.2 12.4-1.8 18.5-3.3" class="b"/><path d="M11.6 214.2c1.8 0 3.5-1.3 5-2 4-1.9 6-1.4 10.1-1 3.7-4.2 7.6-.6 11.8.1 2 .3 4 0 5.9-.1h5.9q4.5-.7 9.2-1.3l8.4.2h6.7q5.8 1 11.7 1.2 3 0 6 .4 3.3.2 6.6-.3c2.2-.4 4.5.2 6.7 0l4.2-.1 6 .6c4.1.5 8.3.1 12.5-.2q7.2-.1 14.3.2c2.8.2 5.6-.1 8.4 0q5 1.5 10 2 5.6 0 11-1.3 4.1-.7 8.4-2" class="b"/><path d="M11.6 210.8c1.7-.4 3.5 0 5-.5l3.4-.9q1.7-.1 3.4.1 1.3.2 2.5-.1 1.8-1.6 4.2-1.5c2.3 0 4.5 1.1 6.7 1.7q3.4.4 6.7 0c2.5-.2 5.1.2 7.6 0 2.8-.1 5.6-.8 8.4-1.1q7.5.4 15.1 0 4.2.9 8.4 1.2 3 .3 5.9 0c1.9 0 4-.4 5.8 0 3.4.4 6.8-.1 10.1-.1q5.4.1 11 .4 5.8.2 11.7-.4c4.2 0 8.4-.4 12.6-.2s8.4 1 12.6 1.5l9.2.8q4.2 0 8.4-1 5.2-.3 10-1.8" class="b"/><path d="M11.6 208.3c2.5.6 5.1 0 7.6-.4 1.4-.2 2.8.1 4.2 0 .9.2 1.8-.4 2.5-.8q2-.8 4.2-.4c2.9 0 5.5 1.6 8.4 1.6 1.7 0 3.4-.5 5-.6q3 0 6 .2c3 .2 6.1-.4 9.2-.9l6.7.3q4.5-.1 9.2-.3 3.8.7 7.5 1 6.4.8 12.6-.3l5 .6 6-.1q9.1.2 18.4-.4c5.3 0 10.7-1.2 16 0 3.8.8 7.8 1.9 11.7 2.2 4.2.4 8.5 0 12.6-.4 5.3-.9 10.8-.7 16-2.2" class="b"/><path d="M11.6 206.3q3.8.5 7.6 0h4.2c2.5-1.7 5.6-1 8.4-.8q5 1.7 10 1c1.4-.2 2.9-.8 4.3-.8a41 41 0 0 0 11.7-.2l4.2.3q6.3.1 12.6-.5 5.8 1 11.7 1.6a43 43 0 0 0 10.1-.8q5.3 1.1 11 .7 5 0 10-.5 5.4 0 10.9-.9 3.3-.5 6.7-.4 2.6.4 5 1.4c10 3.8 15.9 3 26 1 4.8-.9 9.7-.3 14.3-1.4" class="b"/><path d="M11.6 204.4c3.4.6 6.8.2 10.1.2q1.6-.5 3.4-.8h4.2q2.1.1 4.2.7 2.9.8 5.8.7c4 0 7.9-1.3 11.8-1.2h5a78 78 0 0 0 18.5-.3q5.4.9 11 1.6 3.2.3 6.6.1c1.7 0 3.4-.5 5-.6 1.5.1 2.9 1.1 4.3 1.4q2.9.6 5.8.4 4.3-.2 8.4-1.1l8.4-1.5c3.9-.8 8-1.9 11.8-.6 3 1 6 2.6 9.2 3.3 6.4 1.5 13 .7 19.3-1a33 33 0 0 1 6.7-1c3.1.1 6.3.5 9.3-.3" class="b"/><path d="M11.6 202.7q4.3.6 8.4.2 1.7-.2 3.4-.5 2-.3 4.2-.1c2.5-.2 5 .6 7.5 1q4.3.8 8.4.4a77 77 0 0 1 12.6-1q8.8.8 17.7-.3 2-.3 4.2.2l6.7 1q2.5.4 5 .6l4.2.8c2.2.4 4.6.1 6.7.6 6.5.8 13-1.1 19.3-2.6 3.9-1 7.8-2.4 11.8-2.1 3.9-.1 7.2 2.3 10.9 3.3 4 1.2 8.4 1.1 12.6 1 4.5-.3 8.9-2 13.4-2.6h4.2q3.8.6 7.6-.1" class="b"/><path d="M11.6 200.8q4.6.7 9.3.2 4.1-.4 8.4-.3c5.5.6 11 2.5 16.8 1.6q4.5-.6 9.2-.8l7.5.2c4.5.1 9-.6 13.5-.9 6.2.7 12.1 3.2 18.4 3.5q6 .5 11.8-.5 4.1-.5 8.4-1.4c4.2-.9 8.3-2.5 12.6-3.3q3-.1 5.8.4c1 .2 2.4 0 3.4.4a44.6 44.6 0 0 0 27.7.9c1-.3 2.3.3 3.4.3q2 .3 4.2 0c1 0 2.3-.4 3.3-.4q2.7.3 5-.2" class="b"/><path d="M11.6 198.8c6.4 1 13 0 19.4.4 5.3.7 10.5 2.7 15.9 2.2l8.4-.6h7.5c4.5 0 9-.5 13.5-.7 2.2.1 4.5.9 6.7 1.1q5.9 1.2 11.7 1.1h6.8q2.4-.3 5-1c2.8-.4 5.7-.2 8.4-.9q3.4-.7 6.7-1.8c2.4-.7 5-1.6 7.6-1.3q2.4.5 5 .8 2 .1 4.2 0a47 47 0 0 0 24.3.6q3 .9 6 1 3.7 0 7.5-1 2.1.2 4.2-.3" class="b"/><path d="M11.6 196.5c5 1 10.1.8 15.2 1.2 1.9.1 4 0 5.8.6 2.9.6 5.6 2 8.4 2.8 5.5 1.8 11.3.8 16.8.3 6.2-.3 12.3-1.3 18.5-1.7 3-.1 6.2.3 9.2.3 3.7.3 7.3-.8 11-.8q3.2 0 6.6.3 1.6-.5 3.4-.8c2.2-.3 4.5 0 6.7 0l5-1c2.8-.7 5.6-1.8 8.4-2.2q2.2 0 4.2.4 3 .7 6 .7c1.3 0 2.8-.6 4.1-.3q9.2 1.8 18.5.6c1.3-.3 2.8.2 4.2.5a27 27 0 0 0 12.6-.6q2.1 0 4.2-.7" class="b"/><path d="M11.6 193.5q4.6 1.4 9.3 2 3 .5 5.9 1.2 2.4.8 5 .9 1.6.6 3.3 1.4a26 26 0 0 0 18.5 3.2l10-1.6q5.6-1 11-1.8c4.2-.5 8.4-.5 12.6-1 3-.8 6-2.1 9.2-2.3 2.8-.4 5.6.5 8.4.9 2.5-.8 5-.3 7.6 0q3.3-.3 6.7-1c2.2-.4 4.4-1.3 6.7-1.6 2-.4 4 .3 5.9.6q3.3.6 6.7.4l5.9-.6c4.7.5 9.5 1.1 14.2.7q1.8-.2 3.4.3a34 34 0 0 0 13.4-.4q2.7 0 5-1.2" class="b"/><path d="m11.6 191.5 6 1.5c1.8.3 4 .5 5.8 1.2 2.2 1 4.4 2.3 6.7 3 1.6.7 3.6.5 5 1.4a21 21 0 0 0 12.6 3.9c8.7-.2 16.9-3.3 25.2-5.2q3.3-.7 6.7-1 3.5 0 6.7-.9c2.3-.6 4.5-2 6.8-2.7 4.5-1.7 8.1-.8 12.5.7q1.3.1 2.6.2 1.7.1 3.3.5c3.7 0 7.5-.1 11-1.4q2-.6 4.1-.8c2.8.2 5.6 1 8.4 1 4.2.4 8.4 0 12.6-.1 2.2-.1 4.5-.4 6.7 0q3.3.2 6.7.2l5 .3q4.3-.1 8.5-.7 3-.5 5.8-1.7" class="b"/><path d="M11.6 190.7a64 64 0 0 1 11.8 1.8c2.5 1.6 4.8 3.8 7.6 5q2.3 1 5 1.2c1.7.7 3.3 1.9 5 2.4 6.7 2 13.7-.1 20.2-2 5.6-1.8 10.9-4.8 16.8-5.5l4.2-.2c1 .1 2.3.3 3.3-.2 6-2.2 10-6.2 16.8-4q3 1 5.9 2a35 35 0 0 0 11.7.4c1.4-.3 2.9-.9 4.2-1 2.8-.8 5.7.1 8.4.4q5.4.5 11 .3h7.5q4.2-.5 8.4-.2 6.3.4 12.6-.5c2.8-.4 5.6-1.7 8.4-2.2" class="b"/><path d="M11.6 190q3.8-.6 7.6-.4 2.2.1 4.2.9c.4.3 1.3 1 1.7 1.5 2.8 2.8 6 5.9 10 6.7l3.4.4 1.7.8c6.8 2.4 15.3-.6 21.8-3 8-3.5 14.1-9.1 23.5-6.2 2-.5 4-2 5.9-2.9 3.6-2 7.9-2.6 11.7-1q3 1.2 6 2.2 4.8 1.2 10 .9 1.6-.2 3.3-.8c2-.4 4-.8 6-.3q7.5.7 15 .7 7.2.1 14.3-.5 4.2.4 8.4-.1c4.8-.5 9.4-2.5 14.3-2.7" class="b"/><path d="M11.6 188.6q3.7-.6 7.6-.7c2.1-.1 4.5.4 5.9 2.1 4.2 5 8 8.8 15 8.7a25 25 0 0 0 14.3-1.4c2.9-1 5.8-1.8 8.4-3.2 3.6-1.7 6.6-4.4 10.1-6.2a16 16 0 0 1 14.3 0c5.8-3 10.2-5.9 16.8-3q7.2 3.5 15 3.2c1.5 0 3-.7 4.3-.9q1.7-.3 3.3-.3 3 .5 6 .6h20.9c2.2 0 4.5-.5 6.7-.4 6.8-.4 13.3-3.3 20.2-2.7" class="b"/><path d="M11.6 186.7q3.7-.5 7.6-.6 1.6-.1 3.4.3 1.6.3 2.5 1.5c2.8 3.4 5.6 7.2 10 8.5a27 27 0 0 0 10.1 1c3.8-.6 7.4-2 11-3.3 2.5-.6 4.4-2.7 6.6-4a16 16 0 0 1 3.4-1.6c.8-.2 1.9-.7 2.5-1.3 4.4-3.5 9.5-5.4 15.1-4 1.7.4 3.4 1.5 5 2 9.1-4.5 10.4-4 19.4-.4 4 1 8.4 1.9 12.6 1.2a26 26 0 0 1 5-.7c2 0 4 .6 5.9.5l16.8-.4q5 .2 10-.4c3.2 0 6.2-1.2 9.3-1.7q6.2-1.2 12.6-.4" class="b"/><path d="M11.6 184.4q3.8-.3 7.6-.2c2 .1 4.4 0 5.9 1.4 3.1 4 6.3 8.4 11.7 9 3 .2 6.3 1 9.3 0q5-1.6 10-3.7c2.2-1.7 4.3-3.8 6.7-5.3q2.8-1.5 6-1.7a21 21 0 0 1 8.3-3.7q5.8-1.4 11 1.8c1.8 1 2.1 1 4.1.1 3-1.1 6.1-2.1 9.2-1.3 2.9.7 5.5 2.1 8.4 2.6q5 1.3 10.1 1l4.2-.6c2.2-.4 4.5.4 6.7.5q3.7-.2 7.6-.5l10.9-.4q4.1.1 8.4-.2 3.3-.5 6.7-1.4a43 43 0 0 1 16-.3" class="b"/><path d="M11.6 182a53 53 0 0 1 13.5 1.2c5.2 6.2 6.3 8.9 15 8.5 2 0 4 .2 6-.2q3-1 5.8-2.3c3-1.6 5.5-4.1 8.4-5.8q3.1-2 6.7-2.5l2.6-.2q1.2-.7 2.5-1.3c3.9-1.3 8.5-2.5 12.6-1.4 2.3.6 4.3 2.4 6.7 3 3.2-1 6.6-2.4 10-1.6 2 .4 4 1.3 6 1.8a52 52 0 0 0 12.5 1.5q3.4-.6 6.7-.5c2 .2 4 .7 6 .6q5.3-.7 10.8-1l6.7-.3q3.8 0 7.6-.3c2.6-.2 5-1.3 7.5-1.7q7.6-1 15.2.6" class="b"/><path d="M11.6 179.7q6.8-.3 13.5 1.4c2 1.3 3.2 3.7 5 5.2 3 2.8 5.5 2.5 9.2 2 10.8-.2 12.7-5 21.9-8q4-1.3 8.4-1.8 4.5-1.4 9.2-2.3c5.9-1.2 7.7.7 12.6 3.2 1.4.2 2.8-.6 4.2-.9q2.5-.7 5-.4c2.3.2 4.5 1.1 6.7 1.6q6.2 1.3 12.6 1.3a29 29 0 0 1 6.7-.3c2 .1 4 .7 5.9.7 2.5 0 5-.6 7.6-.8l9.2-.7q4.2.1 8.4-.5c2.2-.3 4.4-1.3 6.7-1.6q8-1.2 16 1" class="b"/><path d="M11.6 177.7a63 63 0 0 1 14.3 1.6c2.9 2.6 5.6 7.2 10 6.3 4.5-1.3 9.3-1.6 13.5-3.6a45 45 0 0 1 12.6-3c2.6-.3 5-1.3 7.6-1.9q3.3-.7 6.7-1.5c2.4-.6 5-1.4 7.5-1.1 2.8.3 5 2.2 7.6 3.4 1.3.2 2.8-.5 4.2-.7q2.4-.6 5-.4 3 .4 5.9 1.2a77 77 0 0 0 12.6 1.3q3-.3 5.8-.3c2.9 0 5.6 1 8.4 1q3 0 6-.6l7.5-.7q4.6-.3 9.2-.8 3.4-.5 6.7-1.6a35 35 0 0 1 17.6 1" class="b"/><path d="M11.6 175.5c5.2 0 10.2 1 15.2 2 2.2 2.4 4.8 5.7 8.3 5.3 1.5-.2 2.8-1 4.2-1.5q3.8-.9 7.6-1.6 3.4-.8 6.7-.8c3.6 0 7.4.3 11-.8l4.1-1.5q2.1-.5 4.2-.9c2.5-.6 5-1.7 7.6-2.2 4.8-1.1 6.9 1.3 10.9 3 2.5-.3 5-1.1 7.5-1.1q3.4.2 6.7.9l6.8 1c3 .4 6.1 0 9.2 0q5.2.1 10 1c3 .7 6.2.2 9.3-.1l10-1.1q3.9-.4 7.6-1.3c3.8-1 7.8-2.3 11.8-1.6q5 1.4 10 2" class="b"/><path d="M11.6 173.3q3.8 0 7.6.5l7.5 1.8q1.1.2 1.7 1 1.5 1.6 3.4 2.7c2.5 1.1 4.4.4 6.7-.8a15 15 0 0 1 5-1q3.4-.2 6.8.1c2.7.4 5.5 1.2 8.3 1q4.9-.2 9.3-2.3 4.7-.9 9.2-2.7c2.9-1.1 6.3-2 9.2-.6q2.1 1 4.2 2c2.8-.4 5.6-1.1 8.4-1.1 2.5-.1 5 .7 7.6.8q3.7.2 7.5.6 4.3-.1 8.4.4c3.4.2 6.7 1 10 1.4 2.6.2 5.2-.3 7.6-.6 3-.4 6.2 0 9.3-.4q6.8-1.2 13.4-3 2-.5 4.2-.6c1.7.1 3.4.8 5 1.3q4.1 1.3 8.4 1.3" class="b"/><path d="M11.6 171.1q4.7-.2 9.3.7 3.7 1 7.5 2.3c1.5 1.1 3.1 2.6 5 2.8 2.2.3 4-1 6-1.6q3-.3 5.8.2c4.3.4 8.2 2.8 12.6 2.5a26 26 0 0 0 8.4-1.9q2.5-.5 5-1.1 3.4-1.2 6.8-2.6c8.6-3 8.4 1.6 13.4.7q3.3-.6 6.7-.9 2-.6 4.2-.7c3.4-.1 6.8.6 10 1.3q2.2.3 4.3.4l7.5 1c3 .6 6.2 1.5 9.3 1.2 3-.4 6-1.3 9.2-1.3 3.9.2 8 .8 11.7-.4 3.1-.6 6.1-1.8 9.3-2.3 6.2-1.2 7.1 3.5 16.7 2.5" class="b"/><path d="M11.6 169.2q5.1-.5 10.1.4c2.6.5 5 1.7 7.6 2.6 2.2 1.6 4.9 2.8 7.5 1.4 2-1.3 4.5-.8 6.7-.3 4.3.9 8.2 3.4 12.6 3.4q3.8 0 7.6-1 3-.2 5.8-1c5-1.4 9.8-4.6 15.1-4q1.8.3 3.4 1 1.3 0 2.5-.3l4.2-.6 2.5-1c3.5-1.5 7.4-1.2 11-.3 2.2.5 4.4 1.3 6.7 1.4q3.7.6 7.5 1.3c3 .5 6.2 1.4 9.3 1 2-.2 3.9-.9 5.8-1.2a24 24 0 0 1 6.8-.2c3.5.6 7.3 1.5 10.9.3 2.8-.6 5.5-1.7 8.4-2.2 6.3-.8 6.9 4.4 16.7 2.8" class="b"/><path d="M11.6 167.3c18.3-2.2 18.2 6.9 26 3.1 4.5-.9 9.2 2.8 13.5 3.8 4.1 1.3 8.4.3 12.6.5 8.3-.1 15.8-6.7 24.3-4.5 2.2-.4 4.7-.4 6.7-1.6q4.8-2.5 10.1-2c2.9.3 5.6 1.6 8.4 2 5 .6 10 2.3 15.1 2.2 2 0 4-.7 5.9-1.2q3-.7 5.9-.6t5.8.8c2.5.7 5 1.4 7.6 1.2 2.9-.3 5.6-1.6 8.4-2.2 7.4-2 8.3 4.5 18.4 2.5" class="b"/><path d="M11.6 165.3c21-2 17.7 6.3 26.9 2.7 1.7-.3 3.5.5 5 1.2q3 1.6 6 2.6c4 1.3 8.3 1 12.5 1.4 7.6.5 14.5-3.4 21.8-4.4H88l4.2-.9c1.4-.3 2.8-1.2 4.2-1.7a20 20 0 0 1 6.7-1.3c3.2-.1 6.2 1 9.3 1.7 3.7.1 7.2 1.7 10.9 1.6q3 0 5.9-.7 3.2-1 6.7-1.4 5.2 0 10 1.5c2.7.8 5.6 2 8.4 1.6q3.9-.6 7.6-1.8c6.8-1.7 9.2 4.2 18.5 2.4" class="b"/><path d="M11.6 163.3c5.3-.5 10.8-.6 16 .7 2.3.5 4.5 1.7 6.7 2.6q2.7.3 5-.7c1.5-.3 3 .3 4.2 1q2.5 1.2 5 2.3c4.1 1.4 8.5 1.7 12.7 2.2 7.7.9 15.2-1.8 22.6-3.4 2.8-.6 5.7-.8 8.4-1.6 3.6-1.1 7.1-2.6 11-2.8q3-.2 5.8.4c1 .2 2.3.7 3.4.7q2.5.2 5 .7c1 .1 2.3.7 3.4.6 4-.1 7.8-2.2 11.7-2.8a59 59 0 0 1 17.6 3.7q4.3.5 8.4 0c2.2-.5 4.4-1.6 6.7-1.2 2.6.3 5 1.3 7.6 2q3.7.8 7.5.4" class="b"/><path d="M11.6 161.3c5.6-.4 11.4-.7 16.8.5q3 .8 6 2l1.6.8a8 8 0 0 0 3.4-.2q2-1 4.2-.2c1.9.8 3.8 2 5.8 2.6q6 2.2 12.6 3c7.4.8 14.7-.8 21.8-2.5l11-2.8q4-1.2 8.3-1.9 3-.3 6 0 2.4.5 5 .6l4.2.5q1.2.4 2.5.2c3.2-.5 6.1-2.4 9.2-3.4 4-1 8 .7 11.8 1.7q3.4.8 6.7 2.2c2.2.2 4.5.8 6.7.9q2.1 0 4.2-.2c1.3-.2 2.8-.8 4.2-.8 5.6 0 11.1 2.2 16.8 2" class="b"/><path d="M11.6 159.4q4.6-.5 9.3-.3 4.1-.1 8.4.4c2.6.4 5 1.8 7.5 2.6l1.7.7q1.3 0 2.5-.2 2.5-1 5 0l5 2a51 51 0 0 0 12.7 3.8 68.7 68.7 0 0 0 26-3.6q3.7-1.1 7.6-1.8l6.7-1.4c3.8-.6 7.8.1 11.7.1 2 .1 4 .7 5.9 0 3-1 5.4-3 8.4-3.9 3.7-.8 7.4 1 10.9 2q4.4 1.5 9.2 2.6 3.7 1.2 7.6 1.2c2.2 0 4.4-.9 6.7-.9q4.1.1 8.4.5 3.8.4 7.5 1" class="b"/><path d="M11.6 157.5c3.6-.5 7.3-.2 11-.1 2.7 0 5.6-.3 8.3 0 3.9.4 7.2 3 11 3.5 1-.1 2.2-.6 3.3-.6 2.3.1 4.6 1.1 6.7 2 4 1.9 8.2 4 12.6 4.7 7.3 1.2 14.8 0 21.8-1.7q3-.7 6-2 7-1.7 14.2-2.8c3-.4 6.2 0 9.2-.1l3.4.1q1.7-.2 3.3-.9c2.6-1 4.9-3 7.6-3.9 2.2-.6 4.6-.1 6.7.5l6.7 2.3q3 1 5.9 1.8c2.2.6 4.4 1.4 6.7 1.6q3.7-.2 7.6-.6l5.8-.2c1.7-.2 3.4.3 5 0 2-.2 4 .5 6 .8" class="b"/><path d="M11.6 155.6c5-.8 10.1.8 15.2.3 8.8-1.3 9 .6 16.7 2.7q1.3.4 2.6 0 1.6 0 3.3.4c3.3.8 6.2 2.8 9.3 4.3q4 2 8.3 2.6c6.5.8 13 .1 19.4-1.2q3.7-1 7.5-2.3c6-1.4 12.2-3.4 18.5-3.2l5.8-.1q3.6-.4 6.8-2c1.8-1 3.8-2.3 5.8-2.8 4-.9 8.1.7 11.8 2.2q2.1.6 4.2 1 3 1.1 5.9 2 5.4 1.2 10.9.4l5-.5q2.6.5 5 .8a18 18 0 0 0 4.3-.5c.7-.2 1.8-.4 2.5-.1" class="b"/><path d="M11.6 153.7c4.3-.8 8.4.7 12.6 1 4 .2 7.8-1.5 11.8-1 2 .1 4 .8 5.9 1.2q5.4 1 10.9 2.7c2.4 1 4.5 2.7 6.7 4q3.1 1.8 6.7 2.5c9.2 1.7 18.8.6 27.7-2.1 5.5-1.5 11-3.3 16.8-3.9 3.6-.2 7.3-.2 10.9-1 2.9-.6 5.6-2 8.4-2.9q4.7-1 9.2.4c1.3.5 2.9 0 4.2.3 3 .5 5.6 2 8.4 2.8 5 .6 10.1 1.7 15.1.4 2.2-.4 4.5.9 6.7 1q3.4.3 6.8-.4" class="b"/><path d="M11.6 151.9c6.7-1 11.5 2.7 18.5.7q6.7-1.5 13.4 0 3.5.8 6.8 1.8 2.6.8 5 1.8c3 2 5.7 4.6 9.2 5.7s7.3 1.3 11 1.5c5.6.4 11.2-.5 16.7-1.7 4.9-1 9.5-2.8 14.3-3.8 4.4-1 9-1.3 13.4-2 3.7-.4 7.3-1.6 11-1.9q2.4 0 5 .2c1.6-.5 3.3-1.2 5-1.1 3.2 0 6.2 1.6 9.2 2.5 3.7.1 7.3 1.3 11 1.7 2.2.4 4.5 0 6.7 0 4.7 1.8 7.1 3.6 12.6 2.5" class="b"/><path d="M11.6 150.1c4.3-.7 8.4.9 12.6 1.2q3 .2 6-.5a42 42 0 0 1 17.5 1.1q4.3 1 8.4 2.3c1.6.6 2.9 2.2 4.2 3.2a16 16 0 0 0 6 3c4.8 1.2 10 1.4 15 1.7q6.8-.5 13.4-2c4-.5 7.8-2.4 11.8-3.3q10-2.2 20.2-3c1.3-.3 2.8-.1 4.2-.4 3.2-.8 6.5-2.4 10-1.9 2.6.4 5.1 1.5 7.6 2.2q3 0 5.8.4c4.2.9 8.3 2.5 12.6 2.2 1.6 0 2.9 1.4 4.2 2q4.2 2.9 9.3 2.2" class="b"/><path d="M11.6 148.4c4.3-.6 8.4.7 12.6.9 2.6 0 5 1.5 7.6 1.4 2.8 0 5.6-.6 8.4-.7q3.3-.2 6.7.4 5.6.6 10.9 2.3c1.3.4 2.3 1.8 3.4 2.7q3.2 3 7.5 3.6 3.7.5 7.6.9 3.4.4 6.7.6c5-.4 10-1.5 15-2.3 3-.5 5.6-2 8.5-2.7 7.2-1.7 14.4-3.4 21.8-4.1 4.4-.8 9-2.2 13.4-.9l4.2 1.2c.7.2 1.8.6 2.5.4 6.7-1.5 12.8 3 19.3 3.4 4.4 2.6 7.1 5.5 12.6 5.1" class="b"/><path d="M11.6 146.7q3.9-.3 7.6.4c4.1 1.4 8 4.5 12.6 4.2 3.7-.2 7.2-1.7 10.9-2 1.6-.2 3.4.4 5 .3 2 .2 4-.1 6 0l5.8 1.5c5 4.3 5.4 5.8 12.6 6.2l7.5.9c1.7.2 3.4.6 5 .4 5.4-.4 10.7-1.6 16-2.4 2-.6 4-1.7 5.9-2.2q4.6-1.4 9.2-2.6 5.3-1.7 11-2.3c3-.2 6.1-.7 9.2-.6 1.3.3 2.8-.1 4.2-.2q3 0 5.8.8c1.4.4 2.9-.2 4.2 0q3.5.6 6.8 1.6c3.9 1.3 7.7 3.2 11.7 4.1 3.4 2.7 7.3 5.3 11.8 5.3" class="b"/><path d="M11.6 145.2h5c4 1.5 7 4.7 11 6 4.6 1.4 9-1.4 13.4-2.5l2.5-.4q1.3.3 2.6.3 3 .1 5.8-.2l3.4-.3q2.6.4 5 1.2c1 .3 1.8 1.4 2.6 2.1q3.4 3.6 8.4 3.7 3.4.1 6.7.5c2.5.3 5 1 7.5 1 5.4-.2 10.7-1.7 16-2.4 1.7-.3 3.3-1.4 5-2l9.2-3q4.2-1.6 8.4-2.2 3.8-.3 7.6-.1h2.5q2.3-1.2 5-1.4c2.3-.3 4.6.3 6.8.7q1.7 0 3.3.3 3 .6 5.9 1.7 2.1.6 4.2 1.4 4.5 2.3 9.2 4.2c1.5.6 2.8 1.9 4.2 2.7q3.6 2.2 7.6 2.6" class="b"/><path d="M11.6 143.7h4.2c2.3.6 4 2.6 6 3.9 4.6 3.8 7.8 4.2 13.3 2 2.5-.9 5-2 7.6-2.5 2.7.6 5.6.2 8.4 0l5.9-.7q2.5.3 5 1.3c1.5 1.5 3.1 3.3 5 4.3 2.3 1.2 5 1 7.6 1q3.7 0 7.6.9c1.9.2 3.9.7 5.8.6 4.6-.3 9-1.9 13.5-2.5l2.5-.5 2.5-1.2 4.2-1.7c7.6-2.8 11-4.6 19.3-3.5 1.4 0 3 .7 4.2-.3 3.4-2.2 7.1-2.2 11-1.3 3.1 0 6.2 1.3 9.1 2.4q2.6.8 5 1.6l4.3 2.2q3.7 2.2 7.5 4.1 4.2 3.2 9.3 3.8" class="b"/><path d="M11.6 142.4h4.2c2.3.6 4 2.8 6 4.2 4.1 3.5 7.6 3.4 12.5 1.5l6.7-2.4 3.4.2 4.2-.3 8.4-.7q3-.4 5.9.7l1.6 1.7c5 5.5 8.9 2.8 15.2 3.7q4.2.8 8.3 1.2c4.6 0 9-2 13.5-2.7l3.3-.6 3.4-1.7c4.6-1.8 9.2-4.3 14.3-4.6 2.5-.1 5 .6 7.5.9 1 0 2.4.6 3.4 0 2.8-2.1 6.5-3.3 10-2.6l3.4.4q3 .5 5.9 1.8l5 1.9q2.7.7 5 2.2 4.5 3 9.3 5.4 3.8 2.6 8.4 3" class="b"/><path d="M11.6 141q2.6.3 5 .2c2.1 1.1 4 3 6 4.2 4.6 3.3 10.3.6 15-1q1.7-.5 3.4-.2h3.4q9.2-1.1 18.5-1 1 .5 1.6 1.2 1.5 1.6 3.4 3c3.5 2.5 7.8.7 11.8 1.1 2.5.2 5 1 7.5 1.2 5.2.3 10-2.4 15.1-3l3.4-.6q2-1.2 4.2-2.2c4.1-2 8.7-4 13.4-3.4 2.5.4 5 1.3 7.6 1.6l1.6.3q1-.2 1.7-.9c2.6-2 6-3.1 9.2-2.7q4.9.2 9.3 2.1l5 2q2.7.6 5 2.1c5.4 3.2 11.2 8.1 17.7 7.8" class="b"/><path d="M11.6 139.8q2.6.3 5 .2c1.3-.2 2.4.9 3.4 1.5a14 14 0 0 0 6 2.4c2.8.2 5.6-.8 8.3-1.4q3 .4 5.9.2 4.2-.1 8.4-1 3.4-.2 6.7-.1l5.9.1c1 .1 2.4-.1 3.3.5 2.7 2 5.7 4.6 9.3 4.4q3-.3 5.9-.5c2.5 0 5 .7 7.5.9q3.4.1 6.7-1a38 38 0 0 1 11-2.4c.8 0 1.7-.7 2.4-1.2l3.4-1.8c10.5-5.6 12.6-.6 22.7.3 2.3-2 5.1-3.9 8.3-4q4-.2 7.6.8 3.8 1.2 7.6 2.7c1.6.7 3.5 1 5 1.8 5.5 3 11.9 8.9 18.5 7.2" class="b"/><path d="M11.6 138.6q4.3.4 8.4.5c1.9.8 3.9 1.6 6 1.6 1 0 2.2-.5 3.3-.2 6.7 2.3 12.6.3 19.3-.6 4.7-.4 9.5 0 14.2.3h1.7q2.1 1.5 4.2 2.7c3.7 2 7.1.7 11 .3q2.5 0 5 .6c4.6 1.2 8.3-.3 12.6-1.8 2.7-1 5.6-1 8.4-1.2a31 31 0 0 1 10.9-5.3c2.9-.6 5.8.6 8.4 1.8a18 18 0 0 0 5.8 1.8c1 0 2.4.4 3.4 0 7.5-7.4 16.8-3 25.2 0 4.2 1.2 7.7 4.3 11.7 6 3.2 1.3 6 2 9.3.3" class="b"/><path d="M11.6 137.2c5 .8 10.2.3 15.2 1.6 7.6 2.4 11 1.5 18.4 0 5.5-1.2 11.2-.8 16.8-.4l3.4.3c2.2 1.5 4.8 2.8 7.5 2.5 2.2-.2 4.5-1.1 6.7-1.1 3.2 0 6.1 1.8 9.3 1.5 2.9-.3 5.6-1.7 8.3-2.5q3.8-1 7.6-.7c1.2-.2 2.3-1.4 3.4-2 2.5-1.6 5.3-3.2 8.3-3.6 4.5-.7 7.8 3 11.8 4.2q3 .6 5.9.7c.9-.3 1.8-1.2 2.5-1.8q2-1.4 4.2-2.1c7.2-2.3 14.3 2 21 4 5.7 2.5 12.3 7.8 18.4 3.5" class="b"/><path d="M11.6 135.6c4.2.7 8.5.8 12.6 1.3 3.1.5 6.2 1.5 9.3 1.7 5 .4 10-1.7 15-2a100 100 0 0 1 17.7.3 14 14 0 0 0 3.4 1.5c3.4 1 6.6-1.2 10-1.2q2.3.2 4.2 1.1c3.4 1.5 6.8.5 10.1-.7a25 25 0 0 1 10-1.5q.9 0 1.8-.3c3.5-2.4 7.4-4.9 11.7-5.3 2.5-.2 4.8 1 6.7 2.5 1 .7 2.2 1.7 3.4 1.9 2.5.1 5 1.4 7.5 1 1-.3 1.8-1.2 2.6-1.7q1.6-1.1 3.3-1.8c5.2-2.3 11-.7 16 1.3q3.8 1.3 7.5 3c5.2 2.4 10.8 4.7 16 .8" class="b"/><path d="M11.6 134q6.8 1 13.5 1.3c3.3.5 6.7 1.2 10 1.2q3.9-.1 7.6-1 3.8-.6 7.5-.7c5-.2 10.1-.6 15.1 0a9 9 0 0 1 3.4.8q3.4 1 6.7 0c7.2-2.8 8 2 14.3 1 3.3-.8 6.6-2.3 10-2.5 2-.3 4 .1 6-.1l2.5-1.7c3.9-2.3 8.8-4.7 13.4-3 1.8.8 3.4 2.4 5 3.5q2.6.2 5 1 1.7.6 3.4.2c1.3.1 2.4-.8 3.4-1.5a22 22 0 0 1 5.9-2.6c8-2 15.3 3 22.6 5.4 5 1.7 9 2 13.5-1.1" class="b"/><path d="M11.6 132.5q6.8.7 13.5.8 5.4.6 10.9.8c2.8 0 5.6-.6 8.4-.9l10-.4q6.4-.6 12.6 0c1.1 0 2.3.5 3.4.7 3 .8 6.2-.3 9.2-.9q2.7-.3 5 1c4.3 2.1 7.7.5 11.8-.7q3-.7 5.9-.6c1.3-.2 3 .4 4.2-.2q2.4-1.6 5-3c3.4-1.6 7.4-2.5 11-1.2 1.8.7 3.3 2.2 5 3.1 1.4 0 2.9.8 4.2 1.2q3 .1 5.9-.3c2.6-1.5 5.4-3.1 8.4-3.9 6-1.5 12.1 1 17.6 3.6a22 22 0 0 0 11.7 2 17 17 0 0 0 5-2" class="b"/><path d="M11.6 130.9q7.5.4 15.2.2c4.7 0 9.5.6 14.2.2 3.9-.5 7.9 0 11.8-.3 4.7-.3 9.5-1 14.2-.5 2 0 4 .7 6 1 5 .5 8.2-2.6 13.3.2 4.5 2.3 8.2.2 12.6-.6q2.6-.4 5-.4c1.5 0 3.2.5 4.3-.6 5-3.6 11.9-5.8 17.6-2.4q2.4 1.4 5 2.2 4.3.7 8.4.1 4-2.3 8.4-3.7a23 23 0 0 1 16 2.6c1.8.9 3.8 2 5.9 2.2 3.6.7 7.6.4 10.9-1.6" class="b"/><path d="M11.6 129.2c7.3.3 14.6-1 21.9-.6l6.7.2q3-.1 5.9 0c4.7.6 9.5 0 14.2-.5q4.6-.5 9.3.2 2 .3 4.2.5 2.5-.2 5-.8c5.8-1.2 8.4 2.3 13.4 3q3-.2 6-1.1 4.8-1.2 10-.7c1.4-.6 2.8-1.8 4.2-2.5q3.9-2.2 8.4-2.2c2.9 0 5.7 1.1 8.4 2 3.5 1 7.2 2.1 10.9 1.8 2.6-.8 5-2.5 7.5-3.3 4.9-2 10.3-1.5 15.1.4q2.3.8 4.2 2c1 .4 2.2 1.2 3.4 1.2q3 .3 5.9 0 2.3.1 4.2-1" class="b"/><path d="M11.6 127.5c6 0 11.8-1.1 17.7-1.5 4.7-.2 9.5.2 14.2.2 2.3.2 4.5.7 6.8.7 4.7.2 9.5-.9 14.2-1l7.6.1 3.3.3q1.6-.1 3.4-.4 3.9-.5 7.6.9c1.6.5 3.3 1.5 5 2q2.9 1.1 5.9.4 2.9-.7 5.8-1.3 3.4-.4 6.8 0c1.1-.3 2.2-1.4 3.3-2a19 19 0 0 1 16-1.3q3.8.7 7.5 1.9 3 .8 5.9.2c3.6-1.6 7-4 11-4.6a29 29 0 0 1 16.7 3.9c1.2.8 2.8.6 4.2.6 2 0 4 .2 5.9-.3" class="b"/><path d="M11.6 125.7q7.7-.5 15.2-1.9c5 .5 10 1.1 15 .1 1.7-.5 3.5 0 5.1.3q2.5.6 5 .5 4.3 0 8.4-.6 4.3-.3 8.4-.8a35 35 0 0 1 11.8.5l4.2.6c2.8.5 5.6 1.7 8.4 2.7 6.5 2.2 9.3-2.6 18.4-.5 1.2-.4 2.3-1.4 3.4-2q2-1 4.2-1.7c6.1-1.7 12.6.1 18.5 2 7 2 8.5-1.4 14.2-3.7 5.4-2.3 11.5-.7 16.8 1q3 1 5.9 2.4 3 .2 5.9.2" class="b"/><path d="M11.6 123.9q6.8-.7 13.5-1.9 5.4 1.3 10.9 1.6c3.7.3 7.3-.8 10.9-1.1q3-.2 5.9 0 6-.2 11.7-1.2c5.2-1 10.7-2.5 16-.8q3 1 5.9 2.3l5 1.1c2.2.8 4.3 2 6.7 2 2.3 0 4.5-.8 6.7-1.1 2.8-.5 5.7 0 8.4.5 7.2-5.9 16-5.2 24.3-2.2q2.5.8 5 .3l2.6-.2q1.3-.6 2.5-1.4c7-5.3 15.8-3.9 23.5-1.4q3 .9 5.9 2.4 1.6.3 3.4.4" class="b"/><path d="m11.6 122 8.4-1c1.7-.3 3.4-1 5-.6 3.1.7 6.2 1.6 9.3 1.9 3.4.4 6.8-.2 10-.7q5.1-.7 10.1-1c8.5-.8 16.6-5.2 25.2-3.5 3.5.9 6.7 2.9 10 4.1q2.2.4 4.3 1c1.6.8 3.3 1.7 5 1.8 2.6.2 5-.6 7.6-.8q3.7-.1 7.5.8a22 22 0 0 1 22.7-2.6c1.6.4 3.4-.1 5-.2 1.7-.3 3.5 0 5-.4a22 22 0 0 1 17.7-4.2c5.5.7 11 2.1 16 5" class="b"/><path d="M11.6 120.2q6-.6 11.8-1.8c3.9.7 7.7 2.2 11.7 2.3q4.7-.1 9.3-1 4.6-.4 9.2-1.2c5.1-1 10-3 15.1-4a29 29 0 0 1 13.4.3q3.5 1.3 6.8 3 3.7 1.3 7.5 2.9c3.5 2 7 1.4 11 1.1q2 0 4.1.3c1 .1 2.4.7 3.4.2l3.3-2q6.5-3 13.5-1.7c1.6.1 3.3 1.4 5 1q3.7-.6 7.6-.8h3.3c5.4-4 11-5 17.6-4.1q4.7.4 9.3 1.5c2 .5 3.9 1.5 5.8 2" class="b"/><path d="m11.6 118.4 7.6-1.1c1.4-.1 2.8-.8 4.2-.6 2 .2 4 .9 5.9 1.3q3.7.8 7.5.5 7.6-.6 15.1-2.2c5.4-1.4 10.5-3.6 16-4.4q6.2-1 12.6-.6c3 .4 5.7 1.7 8.4 3q4.1 2 8.3 4c1.6.7 3.3 1.6 5 1.9 2.3.3 4.6 0 6.8.3 1.6 0 3.4.5 5 .5q4-2.3 8.4-3.5 4.2-1 8.4-.3c1.4.1 2.8 1 4.2.8q6.7-1.6 13.4-1a23 23 0 0 1 16-4.3q8 .4 16 2.3" class="b"/><path d="m11.6 116.4 7.6-1c1.4-.1 2.8-.7 4.2-.6 3.3.5 6.7 1.6 10 1.5q7.7-.5 15.2-1.8c4.9-1 9.4-3.3 14.2-4.3q4.2-1 8.4-1.3 1.3-.2 2.6-.6a24.3 24.3 0 0 1 16.8 3.1l5.8 3.5 5.9 2.9c2.9 1.2 6.2 1 9.2 1.4 5-1.4 10-3.5 15.1-3.5a31 31 0 0 1 6.8 1l1.6-.4a38 38 0 0 1 12.6-1.3c.8 0 1.9.2 2.6-.3a22 22 0 0 1 16.7-3.4q6.7.4 13.5 1" class="b"/><path d="m11.6 114.4 11.8-1.5c2.5.3 5 1 7.5 1.1a42 42 0 0 0 8.4-.5q6-.6 11.8-2 3.8-1.5 7.5-2.7 5-1.5 10.1-2c1.4 0 2.8-.8 4.2-1 5.6-1 11.6-.7 16.8 1.8 3.2 1.5 6.1 3.8 9.2 5.6 2.4 1.2 5 2.7 7.6 3.3 3.3.6 6.7-.6 10-1q4.2-.8 8.4-1.1 3.8 0 7.6 1 6.5-2.4 13.4-2.3l4.2.3c.9 0 1.8-.8 2.5-1.2q1.6-.9 3.4-1.6c4.1-2 8.3-1 12.6-.3q5.9.3 11.7.5" class="b"/><path d="m11.6 112.4 8.4-.9c1.7 0 3.4-.6 5-.3q3.9.6 7.6.7 4.7-.1 9.2-1 4.7-.5 9.3-1.8c2.5-.8 5-2 7.5-2.6q5-1.3 10.1-1.8 4.1-1 8.4-1.3c19.8-2.1 21.8 12.3 34.4 10.2q7-.6 14.3-.4 3 .2 5.8.8c2-.5 4-1.4 6-1.7q4.5-1 9.2-.8c1.6 0 3.4.4 5 .3l1.7-1.1c5.7-3.7 8-3.2 14.2-1.4 4.2.9 8.5.7 12.6.6" class="b"/><path d="M11.6 110.4q4.6-.6 9.3-.8c1.6 0 3.4-.4 5-.3q7.6 1 15.1-.3 4.8-.7 9.2-1.9 3.4-1.1 6.8-2.2c4.3-1.2 9-1.7 13.4-2.3 3.3-.3 6.7-1 10-1.3 4.6-.3 9.3.1 13.5 2q4.4 2.4 8.4 5.3c2.2 1.5 4.7 3 7.5 2.7q5.5-.3 11 .2 3.4 0 6.7.6c1.6.1 3.4 1 5 .2 4.2-1.7 8.9-2.2 13.4-2.4l6.7.3c8.4-6.1 8.3-3.4 16.8-1 3.6.7 7.3.4 11 .1" class="b"/><path d="M11.6 108.3c5-.6 10.1-.3 15.2-.8q7.5.8 15-.6 4.3-.6 8.5-1.7 3.3-1.2 6.7-2.1 7.4-1.5 15-2c3.2-.2 6.2-1.2 9.3-1.5 4.8-.5 9.8-.4 14.3 1.6 2 .8 4 2.3 5.8 3.5q3.3 2.2 6.8 4c2.1.6 4.5.2 6.7.4l12.6 1.5q2 .4 4.2.6c2.2-.6 4.4-1.6 6.7-2q3.8-.5 7.5-.7h7.6c8.4-6.9 8.7-1.3 16.8.5 3.3.6 6.8 0 10-.5" class="b"/><path d="M11.6 106.2c5.6-.6 11.3.1 16.8-.4 1.7-.1 3.4.2 5 .1q4.3 0 8.5-.7a60 60 0 0 0 8.4-1.8q3.7-1.4 7.5-2.2c5.5-1 11.2-.9 16.8-1.6 8-1.9 16.5-3.8 24.3.2q2.3 1.1 4.2 2.8 3.7 2.2 7.6 4.2 3 .3 5.9.5 6.6 1.3 13.4 2c1 .1 2.3.6 3.4.2q2.8-1 5.8-1.7c5-.8 10.1-.7 15.1-1.2 8.6-7.6 9.3 3 19.4 1.8q2.5-.2 5-.9l1.7.5" class="b"/><path d="M11.6 104c4.2-.3 8.5.3 12.6.3q4.3 0 8.4-.2 3 0 5.9-.2 5.1-.5 10-1.7 3.8-1.2 7.6-2.3c5-1 10.1-.4 15.1-1 4-.2 7.9-1.6 11.8-2.5a26 26 0 0 1 19.3 2.2c3.1 2.3 6.7 4 10 5.9q1.2.5 2.6.6l3.3.5q5.8 1.7 11.8 2l4.2.5 2.5-1q5.3-1.3 11-1.6c2.4-.3 5-.2 7.5-1 3-2.6 5.2-2.9 8.4-.3 4.8 3.6 7.7 3.8 13.4 2.1q1.5 1 3.4 1.4" class="b"/><path d="M11.6 101.9c4-.2 7.9.5 11.8.7q6.8.2 13.4-.2 6-.4 11.8-1.8c2.8-.7 5.5-2 8.4-2.4 4.7-.7 9.5.5 14.2-.1q3.9-.5 7.6-1.7l6.7-2C91 93 97 93.8 102.3 96q2.6 1.2 5 2.9l4.2 2 4.2 2.3q1.6.2 3.4.7 3.7 1 7.5 1.8 4.6.5 9.3.7a37 37 0 0 1 6.7-1.6q4.1-.7 8.4-1c2-.4 4.2-.5 5.8-1.8 3.9-2.6 6.8 1.8 10.1 3.2q4.2 1.8 8.4-.2 1 .2 1.7.8 1.6 1 3.3 1.4" class="b"/><path d="M11.6 99.7c5.6.2 11.2 1.5 16.8 1.4q6 .1 11.8-.6 5-1 10-2.3c3.6-.7 7.3-2 11-1.5 4.4.6 9 1 13.4 0q3.8-1 7.5-2.2 3-1.2 6-2.1a30 30 0 0 1 15.9 1.7q2.6 1 5 2.6l4.2 2c2.2 1 4.3 2.5 6.7 3 2.5.8 5 1.8 7.6 2.2q4.6.5 9.2.4 1.6.1 3.4-.5l4.2-.8 8.4-1.3 3.3-.8 1.7-1c3.5-1.4 6.1 2.6 9.2 3.5q1.6.7 3.4.7 2.3-.1 4.2-1c1.8 1.1 3.6 2.7 5.9 3" class="b"/><path d="M11.6 97.7c3.7.2 7.3 1 11 1.4q6.7.7 13.4.4c4.3-.1 8.4-1.7 12.6-2.8a36 36 0 0 1 11.7-1.4c9 1.7 13 1.3 21.8-1.5 2.5-1 5-2.5 7.6-3.2 4.4-1 9 0 13.4 1q3.6 1 6.7 2.8 5.2 2.2 10.1 4.8c3.7 1.5 7.7 3.2 11.8 3.2q4.5 0 9.2-.3 4.5-.9 9.2-1.6 3-.5 5.9-1.2c1.2-.7 2.7-1.4 4.2-1 1.8.4 3.4 1.7 5 2.5 2.6 1.2 5.8 1.7 8.4.2 2 1.5 4 3.5 6.7 3.6" class="b"/><path d="M11.6 95.6c4 .5 7.9 1.5 11.8 2q7.5.8 15.1.2c3.5-.3 6.7-2 10-2.9a32 32 0 0 1 11.8-.8 37 37 0 0 0 21.8-.8c2.9-1.2 5.5-3.1 8.4-4.2 3-1 6.2-.5 9.3 0a45 45 0 0 1 15.9 5.3c4.7 2.1 9.2 4.7 14.3 5.9 3 .4 6.2.1 9.2 0 4-.1 7.9-.9 11.8-1.6q2.5-.4 5-1.1 1.6-.8 3.3-1c1.8 0 3.5 1.2 5 1.8 2.7 1 5.8 1.8 8.5.5 1.2.6 2.2 1.9 3.3 2.6q2 1.3 4.2 1.5" class="b"/><path d="M11.6 93.7c4.2.7 8.4 1.8 12.6 2.2q7.5.8 15.1.4C43 96 46 94 49.4 93.2q3.4-.9 6.7-.7 2.7-.1 5 .5a37 37 0 0 0 22.7-1c3.4-1.5 6.3-4.2 10-4.8a48.2 48.2 0 0 1 16 2.4c6.4 2.2 12.3 5.4 18.5 7.9 3.2 1.4 6.7 1.1 10 1 3.1-.4 6.3-.3 9.3-.8q3.8-.7 7.6-1.5c1.8-.6 3.8-1.5 5.8-.9l4.2 1.4q2.1.4 4.2.5h1.7l.8-.3.9.1c2.1 1.9 4.6 3.8 7.5 4" class="b"/><path d="M11.6 91.8c4 .7 7.8 1.8 11.8 2.3q5.5.6 10.9.7c3 0 6.3.3 9.2-.7q3-1.2 6-2.3c3.4-1 7.3-.8 10.8-.3 3.6.8 7.3 1.7 11 1.6q5 0 10-1c1-.2 2.4-.4 3.4-.9 3.2-1.4 5.9-4 9.2-5 3.5-1.2 7.3-.3 10.9.2 8 1.2 15.1 5.5 22.7 8.2 1.6.5 3.3 1.5 5 1.8 3.3.5 6.7 0 10-.2h4.3l7.5-1.5c2-.4 3.9-1.4 5.9-1.2 2.3.1 4.5 1.1 6.7 1.3l3.4.2c.7 0 1.8-.4 2.5 0 2.2 1.6 4.8 3.1 7.6 3.1" class="b"/><path d="M11.6 90.1c3.4.5 6.7 1.5 10.1 2 3.6.6 7.3.6 11 .8q2.4.2 5 .5 3 .3 5.8-.5c2-.4 4-1.7 6-2.3 3.4-1 7.3-1 10.8-.3 3.3.7 6.7 1.5 10.1 1.6 4.5.1 9-.6 13.4-1 3.8-.8 6.8-3.5 10.1-5.3s7.3-1.4 11-.8q5 .6 10 2.6c5 1.8 10 4.2 15 5.7 2 .7 4 1.5 6 1.5l7.5-.2q3.4.1 6.7-.6 3-.5 6-1.3a12 12 0 0 1 4.1-.7c4.2.2 8.4 1.6 12.6 1 2.3 1.1 4.9 2.3 7.6 2.2" class="b"/><path d="M11.6 88.5c3.1.3 6.2 1.2 9.3 1.6 3 .5 6.2.5 9.2 1 1 0 2.3.5 3.4.7q3 .6 5.8.4 4-.4 7.6-1.5 1.6-.9 3.4-1.5 5.4-1.4 10.9 0 5.3 1.2 10.9 1.3c3.9 0 7.8-.4 11.7-.3 4.5-.3 8-3.7 11.8-5.8 3-1.7 6.7-1.7 10-1.2 3.5.4 6.8 1.6 10.1 2.7 7 2.1 13.8 5.5 21 6.7q3.8 0 7.5-.2 4.3 0 8.4-.9 3-.6 6-1.4c2.7-.5 5.5.1 8.3.5q3.3.6 6.7.1 3.3 1.1 6.7 1.2" class="b"/><path d="M11.6 87c5.7.5 11.3 1.7 16.8 2.6 2.2.6 4.4 1.5 6.8 1.5q4.2-.1 8.3-1.3 2.2-.5 4.2-.7 1.3-.8 2.6-1.2c4-1.7 8.4-.4 12.6.3 6 1.2 12.3 1 18.4.8 7.1 1.4 9.6-1.6 15.1-5.1 6.3-4.4 13.6-1.4 20.2.5 7.2 2 14.3 5 21.8 6.2q4.6 0 9.2-.3 3.9-.1 7.6-1Q158 88 161 88c3.6 0 7.2.9 10.9 1q2.5 0 5-.3 1.6.2 3.4.1" class="b"/><path d="M11.6 85.4c5.1.5 10.1 1.6 15.2 2.5 1 .2 2.2.9 3.3 1.2q3 .8 5.9.3c2.3-.3 4.5-1.3 6.7-1.9q2.5-.5 5-.5c1.5.1 2.8-1 4.2-1.2 4-.7 8 .7 11.8 1.1 4.4.8 9 .7 13.4.8 2.2.3 4.5 1 6.7 1 2.8.1 5.1-1.5 7.6-2.4q1.2-.5 2.5-.5c1.3-.3 2.3-1.5 3.4-2.3 6.4-5.4 12-2.6 19.3-.9 4.5 1.1 9 2.7 13.4 4q5 1.1 10 1.9a81 81 0 0 0 15.2-1.2q2.8-1.1 5.9-1.3c6.4-.2 12.8 2.3 19.3 1" class="b"/><path d="M11.6 83.9c4.6.3 9 1.5 13.5 2.3 1.1.1 2.2.9 3.3 1.2 2.5 1 5.2.6 7.6-.2 1.6-.5 3.3-1.4 5-1.9q2.5-.5 5-.5l3.4.2c1.4-.3 2.8-.9 4.2-.8 4 .2 7.8 1.2 11.8 1.5q3.4.3 6.7.4 4.5 1.2 9.2 2c5.8.6 10.4-6.7 16-4.1 1-.1 1.8-1.3 2.5-1.9q2.8-3 6.7-3c2.5 0 5 .8 7.6 1.3q7.2 1.6 14.2 3.6a79 79 0 0 0 17.6 2.3q4.3-.2 8.4-1c2.8-.5 5.6-1.4 8.4-1.4 6 .1 11.7 2.5 17.6 2" class="b"/><path d="M11.6 82.4c4.3.1 8.5 1.4 12.6 2.1 3.4 1.4 5.6 2.4 9.3 1.1q2.6-1 5-2 3.6-1.3 7.6-.9 2 .4 4.1.4l2.6-.3q1.6 0 3.3.3 6.3 1 12.6 1.3l8.4 2.2c2.7.7 5.8.8 8.4-.4 3-1.6 5.8-4 9.2-4.6q2.8-.8 5 1c1-.3 1.9-1.6 2.6-2.4 2.6-2.9 5.8-2.7 9.2-2 6 1 11.8 2.7 17.7 4a62 62 0 0 0 17.6 2c5.9-.3 11.7-2.2 17.6-2.2q3.8.5 7.6 1.3c2.7.7 5.5 1.4 8.4 1.3" class="b"/><path d="M11.6 80.8Q16 81 20 82l3.4.8q1.5.8 3.4 1.3 3 .8 5.8-.4 2.6-1 5-2.2c3.3-1 6.8-.8 10.1-.3 2.2.4 4.5 0 6.8.3q5.4 1 10.9 1.1c2.8.5 5.6 1.5 8.4 2.2q2.4 1 5 1.6c5.3 1.1 8.4-3.1 12.6-5.4q2.8-1.3 5.9-1.3 2.4-.2 4.2 1.5l.8-.3c1-1.2 2-3 3.4-3.8 2.4-1 5-.4 7.5 0 5.4.6 10.7 2.2 16 3.3q2.5.3 5 .7 6.2 1.3 12.6 1c7-.4 14-2.2 21-1.5 4.2.4 8.3 2.2 12.6 2.4" class="b"/><path d="m11.6 79.2 4.2.2 6 1.3q1.9 1 4.1 1.6 3 .6 5.9-.4c2-.7 3.9-1.8 5.9-2.3 4.7-1 9.5.3 14.2.3 2.6 0 5.1.7 7.6 1q2.1 0 4.2.2l4.2 1 4.2 1.4c2.6 1.3 5.4 2.8 8.4 2.5 5-1 7.8-6 12.6-7.5a12 12 0 0 1 5-.3q1.3 0 2.5.2 1.5.5 2.6 1.7c1-1.4 1.8-3.3 3.3-4.2 2.4-1 5.1-.6 7.6-.3q7.2 1.2 14.2 2.9 3.7.8 7.6.8a44 44 0 0 0 10.9 1c7.8-.5 15.7-1.6 23.5-1.4 3.4.5 6.6 2 10 2" class="b"/><path d="M11.6 77.6q4.4 0 8.4 1c2.7 1 5.5 2.3 8.4 2 3.2-.2 6.1-2 9.3-2.6 3.3-.5 6.7 0 10 .2q3.7.2 7.6.5 3 .5 5.9.8 4.2.8 8.3 2.2c3.5 1.4 7 4.6 11 3.3 3.5-1.4 6-4.6 9.2-6.7q4.2-3.1 9.2-1.7c1 .2 2.4.2 3.4.5q1.2.6 2.5.8c.8-1.4 1.8-3 3.4-3.5 2.7-.7 5.6-.3 8.3 0q6.4 1.1 12.6 2.4 4.2 1 8.4.8 4.6 1 9.2.8 6.7-.3 13.5-.8 5.8-.2 11.7-.5c2.8.5 5.6 1.4 8.4 1.6" class="b"/><path d="M11.6 76q3.5.1 6.8.7c3.2 1 6.5 2.4 10 2 3.7-.3 7.2-2.1 11-2.4q4.5 0 9.2.5a58 58 0 0 1 20.1 3.8c3.6 1.9 7.6 5.3 11.8 3 5.6-3 9.5-10.3 16.7-9.4 2 .3 4 1 6 1.2 1 .2 2.2.6 3.3.3 1.3-2.3 3.4-3 5.9-3q3.3 0 6.7.6 5.4.8 10.9 1.9 4.5 1 9.2.6 4.1.8 8.4.8 10-.4 20.1-1 3 .1 6-.4 3.2.8 6.6 1.1" class="b"/><path d="m11.6 74.4 5 .4 5.1 1.3q5 1.3 10 .3c2.6-.4 5.1-1.2 7.6-1.5a36 36 0 0 1 6.8.1c2.4.3 5 .2 7.5.5a59 59 0 0 1 14.3 4c2.3 1.4 4.7 3.2 7.5 3.7 3.3.6 6.1-1.6 8.4-3.7 6.6-6 10.1-9.8 19.3-6q2.2.5 4.2.5c.6 0 1.4-.7 1.7-1.2 2.6-2.2 7.8-1.4 11-1 5 .7 10 1.8 15 2.4h5c2.3.1 4.6.6 6.8.6q10.8-.2 21.8-.8a52 52 0 0 0 6.7-.6q2.5.2 5 .5" class="b"/><path d="M11.6 72.9c4.6 0 9 1.5 13.5 1.9q5 .3 10-.5c1.7-.5 3.3-1.3 5-1.2q2.6.3 5.1.4 3.7 0 7.6.2c4 .5 8 1.9 11.7 3.4 3.7 1.4 6.7 4.8 11 5 3.7 0 6.6-2.9 9.2-5.3 5-4.8 9.2-8.4 16.7-6.3 2 .5 3.9 1.8 6 1.7.7 0 1.8.1 2.4-.3 1.3-1.4 3.3-1.8 5-1.8q2.6-.2 5.1.3c5.9.6 11.7 2 17.7 2.2l4.2-.2a53 53 0 0 0 10 .7q9.3-.2 18.5-.8c3.4-.1 6.7-1.2 10-.6" class="b"/><path d="M11.6 71.4c3.4 0 6.8.7 10.1 1.1q5 .6 10 .3c2.3-.3 4.5-1.4 6.8-1.4q2.5.3 5 .7c3.6.2 7.4-.6 11 0s6.8 2.3 10 3.8c3.3 2.2 6.8 5 11 4.7 3.7-.4 6.5-3.4 9.1-5.8 5.6-5.3 8.8-7.8 16.8-6.7 1.8.3 3.5 1.3 5 2 1.3.7 3 .3 4.3.3.8-.3 1.7-1 2.5-1.2q3.4-.9 6.7-.4 7.5 1 15.1 2c3 .3 6.2-.4 9.3.1q4.5.6 9.2.4 5.5 0 10.9-.2c5.3-.2 10.6-1.2 16-1.5" class="b"/><path d="M11.6 69.8c6.2.3 12.3 1.2 18.5 1.1l6.7-1.2c2.6-.1 5 1 7.6 1q2.5 0 5-.3 3-.1 5.9.4c7 1.2 12 8.5 19.3 8.2 6.4-1 10.6-8 16-11.2 2.9-2 6.6-1.8 10-1.7q2.7 0 5 1.2 1.3.8 2.6 1.4h4.2q1.2-.7 2.5-1 3.7-.8 7.6-.1c6.4.8 12.8 1.8 19.3 1.4 1.9-.2 4 .3 5.8.4l9.3.2q5 .1 10-.3c4.5-.5 9-1.3 13.5-1.6" class="b"/><path d="M11.6 68.1q9.3.6 18.5.7c2.5-.4 5-1 7.6-.9 2.5.3 5 1.4 7.5 1.4l4.2-.3q2.2 0 4.2.4c7.1 1.3 12.5 8.3 20.2 7.8 4.8-.6 8.3-4.5 11.7-7.6 1.7-1.4 3-3.4 5-4.4 2.9-1.5 6.2-1 9.3-.8 2 .1 4-.2 5.9.6l2.5 1.6a19 19 0 0 0 5.9.3q2-.8 4.2-1c2.5-.3 5 .3 7.5.5q8.8 1 17.6.9 8.4.5 16.8.7 6 .3 11.8-1.1 4.1-.7 8.4-1" class="b"/><path d="M11.6 66.4c6.2.2 12.4 0 18.5.3q3.7-.6 7.6-.7c2.5.2 5 1.4 7.5 1.6 2.2.1 4.5-.3 6.7.3 7.3 1.4 13.1 8.3 21 7.3 4.7-.7 9.8-4.8 12.6-8.5 3.9-5.3 7.4-5 13.4-4 2.2.4 4.6-.2 6.7.3a9 9 0 0 1 2.6 1.4l4.2.8c1.3 0 2.9.2 4.2-.3q2-.4 4.2-.5 7.1.6 14.2.9 9.3.2 18.5.6c3.9.1 7.8.7 11.8.6 2.8-.2 5.6-1 8.3-1.5q3.3-.7 6.8-.9" class="b"/><path d="M11.6 64.7c6.5 0 13-.4 19.4 0q3.7-.8 7.5-.6c2.3.2 4.5 1.3 6.7 1.6q2.2.2 4.2.3 2.6.3 5 1.4c5.6 2.5 11.2 6.7 17.7 5.5a19 19 0 0 0 7.5-3.5q2-1.2 3.4-3c4.8-6.7 7-7.6 15.1-5.8q2.1.5 4.2.5 1.6-.1 3.4 0 1.3.3 2.5 1 3 .8 5.9 1.4c2.5.4 5-.5 7.5-.6q6.8.2 13.4.7c4.8.5 9.6 0 14.3.7q3.3.5 6.7.2 5.1.4 10.1.4 3.9-.2 7.6-1.4 3.3-.6 6.7-1" class="b"/><path d="M11.6 62.9c6.5-.2 13-.8 19.4-.4 2.7.1 5.5-.7 8.3-.4 2 .2 4 1 6 1.4 2.5.4 5.1.6 7.5 1.7 6 2.7 11.3 7 18.4 5.3a23 23 0 0 0 7.6-3.6c1.1-.8 2.6-1.7 3.4-2.9 5.3-7.7 8.1-7.3 16.7-5.4 2.2.6 4.5.4 6.8.5l5 1.5c1.6.4 3.3 1.2 5 1.4 2.8.3 5.6-.8 8.4-.6 4.2-.1 8.4.7 12.6 1h8.4c3 .4 6.1 1.3 9.2 1.3q2.2 0 4.2-.2 4.3.4 8.4 0c4.6-.4 9-1.9 13.5-2.6" class="b"/><path d="M11.6 61.1c6.2-.3 12.4-1 18.5-.7 3.4.5 6.7-.7 10-.4 1.8 0 3.5.7 5.1 1 2.3.5 4.6.8 6.7 1.8 6.6 3.2 11.5 7.9 19.3 5a30 30 0 0 0 6.8-3.6c1-.8 2.5-1.6 3.3-2.7 5.7-8.1 8.8-7.3 17.6-5.1 2.8.7 5.7.4 8.4 1.2q2.7.5 5 1.4 2.2 1 4.3 1.4c3 .3 6.1-.7 9.2-.5 4.2.2 8.4 1 12.6 1q4.6 0 9.2.6a35 35 0 0 0 13.5 1l5.8-.1c4.6-.6 9-1.9 13.5-2.8" class="b"/><path d="M11.6 59.4c5.4-.4 10.7-1.2 16-1.1l6.7.3q3.4-.7 6.7-.7 3.5.2 6.7 1.7c1.6.6 3.6.4 5 1.4 6.4 3.5 11 7.8 18.5 4.1 3.3-1.6 6.4-4 9.3-6.1 1.7-2.5 3.9-5 6.7-6.2 1.8-.9 4-.5 5.9-.1l6.7 1.4c3.6.6 7.4 1.1 10.9 2.3 2.2.6 4.4 2 6.7 2.4 2.8.3 5.6-.6 8.4-.5 4.2.3 8.4 1.2 12.6 1.1l10 1q3.7 1 7.6 1.3 6 .1 11.7-.7 6.4-1.2 12.6-2.8" class="b"/><path d="M11.6 57.6c5.4-.4 10.7-1.3 16-1.3 2.5-.1 5 .4 7.5.4 2-.3 4-1 6-.9 2.2.1 4.4 1.3 6.6 1.8 2 .5 4.2 0 6 1.3C60 62.9 64.4 67 72 62c2.6-1.7 5-4 7.5-5.8 2.4-2.6 4.8-5.8 8.4-6.6q2.7-.3 5 .5 3.5.7 6.8 1.5 5.4 1 10.9 2.6c2.5.8 4.8 2.6 7.5 2.9s5.7-.6 8.4-.5c3.7.3 7.3 1.2 11 1.2 3.8.3 7.8 1 11.7 1.3q3.2.9 6.7 1.2 7.6.6 15.1-1.4c3-1 6.2-1.2 9.2-2" class="b"/><path d="M11.6 56c7-.8 14-2.3 21-1.4q2.2 0 4.2-.7 2.2-.4 4.2 0c2.3.4 4.5 1.3 6.7 1.6l5 .3 1.8 1c6 4 10.6 8.5 17.6 2.9q3.9-3.2 7.5-6.9c2.2-2.2 4.4-5 7.6-5.7q2.5-.2 5 .4L99 49q3 .6 6 1.5c1.8.5 4 1 5.8 1.8 2.3.9 4.3 2.5 6.7 3 3.3.6 6.7-.1 10 0q3 .5 6 .8 2 .2 4.1 0c4.3.3 8.4 1.4 12.6 1.9q3.3 1 6.8 1 3.3-.1 6.7-.4 3-.2 5.8-.5 2.6-.9 5-1.4 3-.4 6-1" class="b"/><path d="M11.6 54.2q6.3-.8 12.6-1.6c2.2-.2 4.6.1 6.8-.1q2.5-.2 5-.8 2.5-.3 5 .4 3.7 1.2 7.6 1.4h4.2q1.3.5 2.5 1.2c5.8 3.8 10.3 8.7 16.8 2.8 4.6-3.9 8.8-11.7 15.1-12.9 3.7-.2 7.3 1.1 11 1.8q2.9.5 5.8 1.7 3 .7 5.9 2c2.5 1 4.8 3 7.5 3.5q2.1.3 4.2.2h5.9c2.8.3 5.6 1 8.4.5 3.1-.2 6.2.7 9.2 1.3 3.3.6 6.7 1.5 10 1.8 3.7.1 7.4-1 11-1.3 2.2-.3 4.5-.1 6.7-.6 2.4-.8 5.1-.7 7.6-1.5" class="b"/><path d="M11.6 52.5c4.2-.4 8.4-1.3 12.6-1.6 1.7-.2 3.4 0 5-.2 2-.1 4-.9 6-1.1 3.7-.2 7.1 1.9 10.9 1.8l5-.1q1.3-.1 2.5.3c6.9 5.7 10.8 9.6 18.5 2.3 4.3-4.3 8-10 14.3-11.5 4-.5 7.9.8 11.7 1.6 1.7.3 3.4 1.2 5 1.9q2.7.7 5 1.8c2.7 1 5 2.9 7.6 3.7 1.6.6 3.4.4 5 .5q5.1.3 10.2.8c2.7.5 5.6-.7 8.3-.2 3.7.6 7.3 1.8 11 2.5q3.2.9 6.7.6c3.7-.4 7.2-2 10.9-2.5q3.3-.3 6.7-.5 3-.5 5.9-1" class="b"/><path d="M11.6 50.8c5-.4 10-1.9 15.2-1.6 2.5 0 5-1.5 7.5-1.5 2 0 4 .8 5.9 1.3q2.5.5 5 .5 2.6-.1 5-.3 1.8.3 3.4 1C61.1 57 65 57.8 72.1 50q2.3-2.9 5-5.3 3.2-2.5 6.7-4.3c4.5-1.2 9.1.1 13.5 1.1q2.3.6 4.2 1.8 1.9 1.4 4.2 2c3.4 1.2 6.4 3.6 10 4.4 4.5 0 9 .7 13.5 1q2 .5 4.2.2 1.7-.3 3.3-.5c2.6-.2 5.2.6 7.6 1.3 3.3.8 6.6 2 10 2.2 4.5.2 8.5-2.4 12.6-3.5q3.7-1 7.6-1 3-.5 5.9-.7" class="b"/><path d="M11.6 49.3c4.8-.5 9.5-2 14.3-1.8 2.3.2 4.4-1.5 6.7-1.5 3.7 0 7.2 2 11 1.8 2.2 0 4.5-.9 6.7-.1 1.4.4 3.1.5 4.2 1.7 8.4 8.2 12.3 2.6 18.4-4.3q2.2-2.6 5-4.4 3-1.4 6-2.6c3.8-.7 8 0 11.7 1 2.8.8 5.3 2.6 7.5 4.3 3.8 1.1 7.2 3.4 11 4.3 5.6 0 11.2 1 16.7 1.4 2.3.2 4.5-1 6.7-.8 3.8.1 7.4 1.7 11 2.6q3.2 1.2 6.7 1c4.2-.4 7.8-3 11.7-4.4q4.1-1.3 8.4-1.3 2.5-.4 5-.3" class="b"/><path d="M11.6 47.7c5-.4 10-2.1 15.2-1.8 1.8-.8 3.8-1.6 5.8-1.5 3.7.4 7.2 2.1 11 1.6q2-.1 4.1-.5 3 .5 6 1.5c8.2 8 11.5 3.8 17.6-3.5 3.9-5 7.2-6.5 13.4-7.6q2.6-.2 5 .6 2.3.3 4.2 1c3.2 1 5.9 3 8.4 5q3 1.1 5.9 2 2.4 1.1 5 1.3 6-.1 11.8.8 3.4.6 6.7.5c1.4-.1 2.8-.7 4.2-1 3.2-.4 6.3 1 9.2 1.8 3 1 6 2.2 9.3 1.8 3.6-.2 6.8-2.2 10-3.6 5-2.4 10.6-2.8 16-2.5" class="b"/><path d="M11.6 46.1q5.5-.6 11-1.7c1.9-.3 4 0 5.8-1 3.6-1.4 7.3.3 11 .8 2.7.4 5.6-.1 8.3-.4q2.6.4 5 1c1.9 1 3.3 2.8 5.1 3.7 4.4 2.7 8.3-1.6 11-4.8C71 41 73.1 38 76.2 36q3.9-1.9 8.4-2 3 0 5.8 1.5 3 1.7 6 3.4c1.3.8 2.7 2 4.1 2.6q2 .9 4.2 1.3 2.5.8 5 1.3c3.1-.1 6.2-.5 9.3 0 3.9.1 7.8 1.2 11.7 1 2-.1 4-1 6-1.1 5.2-.1 9.8 3.3 15 3.5 5.2.4 9.6-2.6 14.3-4.2a41 41 0 0 1 14.3-1.6" class="b"/><path d="M11.6 44.3q7.5-1 15.2-2c1 0 2.2-.6 3.3-.8 2.2-.5 4.5 0 6.7.5q3.7.8 7.6.4c1.3 0 2.8-.4 4.2-.3l3.3.6q1 .2 1.7.8 1.6 1.5 3.4 2.6c4.3 2.9 8-.2 10.9-3.5s5.4-7.1 9.2-9.2c3.4-1.4 7.5-2 11-.5 5 2.2 8.7 7 14.2 8.5 1.3.2 2.9.9 4.2.4q2.1-.5 4.2-1 3.8-.1 7.6.6 6.1 1.5 12.5 1.3 2.3-.3 4.2-.9c3.2-.6 6.3.6 9.3 1.6l5 1.5q3 .3 5.9-.1c3.2-.5 6.1-2 9.2-2.9a67 67 0 0 1 16-2" class="b"/><path d="M11.6 42.5q4.6-.3 9.3-1 3.3-.5 6.7-.9c2-.3 3.9-1 5.9-1q3.8.4 7.5 1 3.7.2 7.6-.2 1.6 0 3.3.4c1.2.5 2.3 1.6 3.4 2.3 5.5 4.3 9.4 1.4 13.4-3 2.9-3.1 5.4-6.8 9.2-8.8 3.5-1.5 7.7-1.3 11 .7 3.5 1.7 9 7.9 12.5 7.9a12 12 0 0 1 4.2-1.4q3-1.2 6-1.1c3.4.2 6.7 1.6 10 2.3q4.6 1 9.2.8c2-.1 4-1 6-1 3.7 0 7.2 2 10.8 2.8 1.6.5 3.4.3 5 .3 4.4 0 8.4-2 12.6-2.5q3.8-.6 7.6-.8l7.5-.8" class="b"/><path d="M11.6 40.5c4-.2 8-.2 11.8-1q4.3-.4 8.4-1.3c3.6-.6 7.3.2 10.9.4q4.2.1 8.4.1c1.7.8 3.3 2.2 5 3.2 4.3 2.6 8.4 1 11.8-2.3q3.3-3.4 6.7-7c2.4-2.5 5.6-4.4 9.2-3.7 5.6.6 9 5.5 13.4 8.3a15 15 0 0 1 7.6-2.9q2.5-.9 5-.7c4.2.3 7.8 2.5 11.8 3.4 2.5.4 5 1.2 7.5 1.4 2.6.2 5-.6 7.6-.8 3.7 0 7.3 1.7 10.9 2.4 5 1.3 10.1-.5 15.1-1.2 3.3-.5 6.7-.3 10-.6q3.9-.5 7.6-1" class="b"/><path d="M11.6 38.4q3.8.1 7.6 0c2.8-.2 5.6-.9 8.4-1.1q3.3-.3 6.7-1 3.8-.2 7.5.2c2.8.3 5.7.2 8.4.6l6 3c4.6 2.3 7.6.8 10.8-3 2.8-2.8 5.1-6.9 9.2-8l1.7-.2q1.2-.8 2.6-1.2c3-.4 6 1 8.3 2.8 1.5 1 2.7 2.8 4.2 3.5 2.7-3 7-4.4 11-4a29 29 0 0 1 15 3.5c2.4 1 5.1 1.3 7.6 2l4.2.9q2.2 0 4.2-.4c2.8-.7 5.7 0 8.4.8 3 .7 6.1 1.6 9.2 1.6 3.7-.1 7.3-1.3 11-1.4q4.5.2 9.2 0c2.5-.1 5-.9 7.5-1.2" class="b"/><path d="M11.6 36.4c3.4 0 6.8.5 10.1 0q5.4-.7 11-1.3c2.7-.6 5.5-.4 8.3-.2 8.5.5 5.8-.7 13.4 3.4q6 3.1 10.1-2.2c3.6-3.8 7-11.5 13.4-9.2q1 .3 1.7.8 1.3 0 2.5.2c2.7.6 5 2.3 6.8 4.2 1.1-1.2 2-3.1 3.3-4.2 3-2.6 7.3-1.8 11-1.2a82 82 0 0 1 12.5 2.7c2.3.7 4.4 2 6.7 2.7q5 1.2 10 2.1c1.7.4 3.5-.1 5.1-.2 3.7-.1 7.3 1.2 11 1.7a37 37 0 0 0 11.7-.1c3.9-.6 7.8.2 11.7.1 2.9 0 5.7-.8 8.4-1.2" class="b"/><path d="M11.6 34.2q5.1.5 10.1.5c3.7-.2 7.3-1 11-1.3 3.5-.4 7.2.2 10.8.2h2.6l2.5 1q2.5.9 5 2.1c4.3 2.3 7.4.6 10-3 3.4-4.4 8-12.8 14.4-8.1q2.3 1.7 4.2 3.9 1.7.8 3.3 2.1c1.3-1.8 2-4.4 3.4-6.2 1.6-2.3 4.1-2.6 6.7-2.2l6.7 1.4c6.4 1.5 13.2 1.8 19.3 4.7 2.4 1.1 5 1.4 7.6 2 2.7.4 5.6 1 8.4 1 3.6-.4 7.3.7 10.9 1 3.9.3 7.8.1 11.7.3h5q3.5.4 6.8.5c2.8 0 5.6-.6 8.4-1" class="b"/><path d="M11.6 32q5.1.5 10.1.7 3.7 0 7.6-.4 4.1-.6 8.4-.5 3 .1 5.8.5c2.6.6 5 1.8 7.6 2.5 4.2 1 6.5 2.6 10-1C64.9 30.2 67.3 23 73 22.5c3.3 0 5.6 3 7.6 5.3.7.9 1.5 2.4 2.5 3 2.3-3 2.3-9 6.7-10 2 0 4 .8 5.9 1.2a71 71 0 0 0 8.3 1.7l9.3 1q6 1.1 11.7 3.5 5 1 10.1 1.4 3.3 0 6.7.4c1.7.2 3.4.8 5 .8 4.5.4 9 .1 13.5.5 4.2.2 8.4 1 12.6 1.1q3.8-.1 7.5-1" class="b"/><path d="M11.6 29.9q6.8.7 13.5.8c3.6 0 7.3-.5 10.9-.5q3.4 0 6.7 1c2.5.7 5 2 7.5 2.6q3 .6 6 .6c1.9 0 3.7-1.4 5-2.8 3.7-4 7.5-13.1 14.2-9.3 2.1 1.2 3.2 3.6 5 5 1.8-2.6 3-7.2 6-8.3 1.7-.3 3.4.8 5 1.5 3.1 1.4 6.7 1.7 10 1.8 5.4.2 10.8.3 16 1.5q4.3 1 8.4 2.5l5 .7c5.3.5 10.9-.4 16 1.6q3 .3 5.9.1 3.3 0 6.7.4l7.5.8q3 .6 6 .8c2.4.1 5-.6 7.5-.8" class="b"/><path d="M11.6 27.7q3.3.5 6.8.5 3.7.3 7.5.4c3.6 0 7.3-.3 11 0q3 .3 5.8 1.4 3.3 1.7 6.7 2.6 3 .6 5.9.2t5-2.2c2.8-2.5 4.7-6 7.6-8.4 3.7-3 7.5-1.6 10 2 .8-.2 1.4-1.5 1.7-2.1.7-1.3 1.6-3 2.6-4 2.2-2.1 4.7.9 6.7 2q2.3 1.4 5 1.4c4.7 0 9.5-.5 14.3-.2q9 .4 17.6 3c5.3 1 10.6.5 16 .7 2.5.1 5 1 7.5 1.7h5q9 .4 17.7 2c2.7.3 5.6-.3 8.4-.5" class="b"/><path d="M11.6 25.6q2.6.5 5 .5 3.9 0 7.6.3c4.2.3 8.5-.2 12.6.3q2.7.3 5 1.4 3 1.7 6 2.9c3.8 1.3 8 0 11.7-1.4 3-2 4.9-5.3 7.5-7.6 2.8-2.5 6.6-3 9.3 0 .7-.3 1.4-1.4 1.7-2 .8-1.4 1.7-3.3 3.3-4 2.5.2 3.9 2.8 5.9 4 2.5 1.6 5.6 1 8.4.7a84 84 0 0 1 23.5.5q3.3.6 6.7 1.4 3.3.4 6.7.4c3.6 0 7.3-.4 11-.1q2.4.4 5 1c1.3.4 2.7 1 4.2.7 9.3-.3 18.4 2.7 27.7 1.7" class="b"/><path d="M11.6 23.7q2.2.3 4.2.5l3.4-.1 8.4.2c4.2.2 8.6-.4 12.6 1.1 3.6 1.4 6.7 4.8 10.9 4.5 3.5-.3 6.8-2 10-3.2q3-2.7 6-5.5c1.6-1.2 3.7-2.2 5.8-1.7.8.1 1.7.7 2.5.9 1.3-1.7 2.7-5.3 5-5.4 2.6 1.2 4 4.3 6.8 5.1 2.5.6 5 0 7.6-.3q4.1-.6 8.3-.7 8-.2 16 .8c4.2.5 8.3 1.5 12.6 1.4 3.6 0 7.3-.5 10.9-.5q5.2.3 10 1.8c2.8.3 5.7 0 8.5.4 6.4.6 12.8 1.6 19.3 1.4" class="b"/><path d="M11.6 22c1.1 0 2.3.4 3.4.4q2.1-.3 4.2-.3 7.5-.1 15.1.5 2.6.2 5 .6 2 .2 3.4 1.2c5 3.8 7.5 4.9 13.4 2.2l4.2-1.7q1.4-.3 2.6-1c3-2.5 6.6-6.3 10.9-4.7l.8-.3c1.3-1.6 2.6-4.8 5-4.7 2.4 1.4 3.8 4.6 6.8 5 2.5.4 5-.2 7.5-.5q4.6-.5 9.2-.6 9-.2 17.7.7 6.2 1 12.6.8 4.5-.3 9.2-.6 6 0 11.7 1.5 1.6.5 3.4.3l5 .3 7.6 1 10 .3" class="b"/><path d="M11.6 20.5c2 .5 4-.4 6-.6q3.7-.3 7.5 0c3-.1 6.1.8 9.2 1.3 2.2.3 4.5 0 6.7.6l1.7.2q1.3.8 2.5 1.8c1.7 1.3 3.7 2.5 5.9 2.3 4.4-.6 8.2-3.5 12.6-4.2 2.3-1.5 4.7-3.4 7.5-3.7.8 0 1.8.3 2.6-.2 1.3-1.7 2.6-4.4 5-4.6 1 .2 1.9 1.3 2.5 2a7 7 0 0 0 5 2.7c2.3.2 4.6-.3 6.8-.4q5-.4 10-.5c7.6-.5 15.2.2 22.7.8q7.2.5 14.3-.4c6.4-.8 13 0 19.3 1.5 4 0 7.9.7 11.7 1.2q4.6.1 9.3.2" class="b"/><path d="M11.6 18q4.6-1 9.3-.6c1.9.1 4 0 5.9.5 2.5.5 5 1.7 7.5 2q3 .5 5.9 0 2 .3 4.2.7c3.4 2.7 5.6 4.5 10 2.7q4.9-2.2 10.1-3.4 2.1-1 4.2-1.9 2.1-.7 4.2-.6c6.8-8.9 5.8-3 11-.9 2.4.8 5 .4 7.5.2 7.2-.2 14.5-.7 21.8-.6 6.4 0 12.9.9 19.3.7q5.5-.1 11-1a48.8 48.8 0 0 1 20.1 1.5c1.8.7 3.9.8 5.8 1.2q2.6.4 5 0h6" class="b"/><path d="M11.6 15.2A38 38 0 0 1 20 15q3 0 6 .7c5.7 2 9.5 4.1 15.9 2.4q2.1.2 4.2 1c2.8 2.6 5.5 3.3 9.2 2q5.3-2.1 10.9-3.3 2.4-1.1 5-1.5c2 .1 2.9-2.2 4.2-3.2 2.5-2.1 3.9-1.3 6 .8 2.7 2.4 6.6 1.7 10 1.7l5-.1c1.7 0 3.4-.4 5-.3l14.3-.2c5.3 0 10.7.4 16 .4 8.2.1 16.2-2.3 24.3-1.9a66 66 0 0 1 14.3 2.4l10 .1" class="b"/><path d="M11.6 12.8q6-.3 11.8.4c3.2.7 6.1 2.3 9.2 3.2q3.6 1 7.6.6c1.6-.2 3.4-1 5-.4l1.7.4 1.7 1.3q1.9 1.4 4.2 1.3c2.8-.1 5.6-1.2 8.4-2 3.6-.9 7.2-2.1 10.9-2.5 1.4-1 2.7-2.5 4.2-3.4 2.5-1.5 4 .3 5.9 1.7q2.3 1.3 5 1.2h8.4c1.6-.1 3.4-.6 5-.4q7.2.2 14.3-.3 6.3.3 12.6.2 4.6.2 9.2 0c6.2-.3 12.3-2.4 18.5-2.5q6.4 0 12.6 1.2c1.3.2 2.8 0 4.2.2 2.8.2 5.6.8 8.4 1" class="b"/><path d="M11.6 10.8a71 71 0 0 1 11.8.3c2.6.6 5 1.8 7.5 2.6q6.7 2.4 13.5.7c1-.4 2.3.2 3.3.5l2.6 1.6c2.6 1.4 5.6.8 8.3.2q5.1-1.4 10.1-2.6l3.4-.7c2.8-1.8 5.8-4.8 9.2-2.1s7.8 2.2 11.8 2.1c1.9 0 3.9-.5 5.8-.6q4.3.3 8.4.1c2.2 0 4.5-.5 6.7-.3q6 .5 11.8.3c4.7-.2 9.5.1 14.3-.3 4.5-.5 8.8-2.3 13.4-2.7a81 81 0 0 1 16 .7c3.5.8 7.1 2 10.8 2.2" class="b"/><path d="M11.6 8.9q3.4-.4 6.8-.2 2.5 0 5 .3c2.8.7 5.6 2 8.4 2.8q6.1 1.7 12.6.6c1-.1 2.3-.6 3.3-.2q1.4.6 2.6 1.5 1.9 1.1 4.2 1.3c4 .2 7.9-1 11.7-2 2.8-.8 5.8-1 8.4-2.6 7.2-3.6 7.2 1.5 14.3 1.6 3 .2 6.2-.4 9.2-.9q6.2.9 12.6 0 1.7-.1 3.3.2l5 .5q6.8-.1 13.5-.4c4.5 0 9.1.2 13.4-1.2q3.7-1.4 7.6-2c3-.5 6.2-.3 9.2-.2q2.2-.1 4.2.4 2.2.6 4.2 1.6c3 1.1 6.1 2 9.3 1.7" class="b"/></svg>