<svg xmlns="http://www.w3.org/2000/svg" id="a" width="1920" height="2400" viewBox="0 0 192 240"><defs><style>.b{fill:none;stroke:#fff;stroke-miterlimit:10;stroke-width:.3px}</style></defs><path d="M0 0h192v240H0z" style="stroke-width:0"/><path d="M10.8 231.2c7-.4 14.3-1 21.2-2.8 2.8-.7 5.5-2.2 8.5-2.6q7.5-1 15.2-.8 8.1.7 16.1 1.7c2.8.2 5.7.8 8.5.6 8.5-1 11.1-3.4 20.4-1.3a73 73 0 0 1 9.3 2.4c3.3 1 6.7 2.3 10.2 2.5 2.8.2 5.6-.5 8.4-.3q4.3.4 8.5.3 4.3.7 8.5 1 4.3-.2 8.5-.2 5.4.2 11-.1c5.4.1 10.7-.7 16.1-.9" class="b"/><path d="M10.8 229.6c6.2-.4 12.5-.7 18.6-1.9 4.6-.9 9-3 13.6-3.4q4.6-.8 9.3-.7 7.3.7 14.5 1.3l7.6.6q3.8.6 7.6.1c3.4-.4 6.8-1.4 10.2-1.7 4-.3 8 .3 11.9 1 6 1.1 11.5 5.2 17.8 5.2 3 0 6.2-.7 9.3-1l4.2.3 11 .7h6l6 .2c4.2 0 8.4-.5 12.7-.6q5.1-.6 10.1-1.4" class="b"/><path d="M10.8 227.9c5.9-.3 12-.2 17.8-1.2q4.7-1 9.3-2.5l8.5-1.9c4.3-.6 8.5.5 12.7 1.2s8.5.5 12.7.7c4.3 0 8.6.6 12.8-.3q4.2-1 8.4-1.4 6.5-.5 12.8 1c5.8 1.2 10.8 5.4 17 5.5 2.5 0 5-.7 7.5-1 2.3-.6 4.6-.2 6.8 0q4.3.5 8.5.4c5 0 10.2.6 15.3.4q6.3-.3 12.7-1.3 3.7-.8 7.6-1.4" class="b"/><path d="M10.8 226.1c4.8-.1 9.6.4 14.4-.2 5.8-.5 11.4-2.5 17-4.1q4.9-1.8 10.1-.8 4.3 1 8.5 2 4.6.6 9.3.3 3.5 0 6.8-.2 3.4.3 6.8-.2c3.4-.5 6.8-1.5 10.2-1.8q6.9-.8 13.5.8c10.6 3.3 11.6 7.4 23.8 4.5l2.5-.4a77 77 0 0 0 12 1.2c5.5-.2 11.2.4 16.9.1a91 91 0 0 0 11-1.6c2.5-.5 5-1.5 7.6-1.8" class="b"/><path d="M10.8 224.4a60 60 0 0 0 23.7-1.5l6.8-2.2a17 17 0 0 1 9.3-1.5c2.9.5 5.7 1.6 8.5 2.3q4.6 1.1 9.3 1 4.7 0 9.4-.5 3.4.1 6.7-.4c3.2-.4 6.3-1.3 9.4-1.8q7.2-1.2 14.4.3c6.3 1.4 12 6.2 18.7 5.3q3.4-.4 6.7-1.2l2.6.6q7.1 1.3 14.4 1 5.1.2 10.2.1 6.3-.4 12.7-2c2.5-.6 5-1.8 7.6-2" class="b"/><path d="M10.8 223.7c4.7.7 9.6.2 14.4-.4q5.2-.6 10.2-1.7 3.4-1.2 6.7-2.5c3-1.4 6.2-2.3 9.4-1.4 2.8.7 5.6 2 8.5 2.7a46 46 0 0 0 18.6.4q3.8.1 7.6-.5 4.3-.9 8.5-1.8c5.3-.9 10.9-1.3 16.1.2 5.7 1.5 11 5.3 17 4.7q2.2 0 4.2-.6 1.3-.3 2.6-.2 2 .7 4.2 1c3.9 1 8 1 11.9 1q4.1 1.1 8.5 1 4.3-.3 8.4-2l5.1-1c2.9-.7 5.6-2.3 8.5-2.4" class="b"/><path d="M10.8 223.2c5.4.2 10.7-1 16-1.6 2.9-.4 5.8-.5 8.6-1.2 3.2-.9 6.2-2.5 9.3-3.8 3-1.5 6.4-1.2 9.3 0q6 3 12.7 3.3c3.4.1 6.9.4 10.2 0q2.6-.5 5.1-.3 2.6 0 5.1-.5c9.4-2 19.6-5.1 28.8-1 5.3 2.3 10.3 4.2 16.1 2.9 2.4-.7 4.5.5 6.8.9q3.8 1 7.6 1.1c3.8 1.4 7.8 2.6 12 2.2a25 25 0 0 0 7.5-2c2-.7 3.9-1.9 6-2 3.1-.6 6-2.7 9.3-2.6" class="b"/><path d="M10.8 222.2q5.1-.2 10.1-1.3 3.5-.3 6.8-.7c3.4-.5 7-.4 10.2-1.6q3.4-1.6 6.8-3.4 4.5-2.5 9.3-.3 3.3 1.7 6.8 2.6 6.3 1 12.7 1.1 2.6 0 5.1-.3 2.2.1 4.3.1c4.3 0 8.5-1 12.7-2.1 4.7-1 9.5-2.1 14.4-1.8 4.1.3 8 2.4 11.9 3.5 2.4.7 5 1.5 7.6 1.5l5-.5 3.5.8 4.2 1q1.4 0 2.6.6 4.9 3.3 11 3.4 5.4 0 10.1-2.5c2.3-1 4.4-2.5 6.8-2.9 2.8-.8 5.5-2.5 8.5-2.1" class="b"/><path d="M10.8 220.8q4.3-.4 8.5-1.2 4.6.3 9.3-.5c3.4.3 6.8-1 10.2-1.7 2.4-1 4.4-2.8 6.7-4a8 8 0 0 1 8.5-.4q3 1.6 6 2.6c3.5.9 7.3 1 11 1.3q3.8.4 7.6 0 4.3.5 8.5 0c5.5-.5 10.7-2.4 16.1-3.4 3.6-.8 7.4-1.3 11-.3q3.5 1 6.8 2.3 3.3 1 6.8 1.7c2.7.7 5.7 0 8.5.2l4.2 1c.8.2 2 .4 2.5 1a20 20 0 0 0 16.1 4.4c5.2-1 9.5-4.5 14.5-6 2.4-1 5-2.1 7.6-1.7" class="b"/><path d="M10.8 219q3.7-.3 7.6-1 3.3.9 6.8.6 2.5-.3 5-.2 3-.4 6-1.4 2.3-.5 4.2-1.2c1.9-.9 3.5-2.4 5.1-3.6 3.2-2.3 6-2.8 9.4-.7q2.4 1.4 5 2.3 3 .6 6 1 5.1.6 10.2.6c2-.2 4 .3 6 .4q3.7.2 7.6-.3c4.8-.7 9.6-2.3 14.4-3.5 4.1-1.2 8.6-1.7 12.7-.1q3 1.1 6 2l7.6 1.6q3 .4 5.9.3 1.7-.2 3.4.4 1 .2 1.7.8 11.7 10.7 25.4 2.8 2.6-1.4 5.1-2.5c2.8-1.6 6.1-2.8 9.3-2.3" class="b"/><path d="M10.8 216.7q3.4 0 6.7-.4 3 1.1 6 1.2l4.2-.1q1.8 0 3.4-.2l10.2-3c1.7-.3 3-1.8 4.2-3 1.8-1.6 4.2-3.4 6.8-2.8 2.4.7 4.4 2.5 6.8 3.3 4 1.2 8.5 1.5 12.7 1.8h4.3q5.4 1.1 11 1c7-.3 13.6-2.9 20.3-4.7 6.1-2 9.7.3 15.3 2q3.8.9 7.6 1.5 4.5 1 9.4 1c3.2 2.4 6.2 5.3 10.1 6.6 4.1 1.4 8.7 1.2 12.8-.2 2-.6 3.9-2 5.9-2.8q3-1.4 6-3.1a14 14 0 0 1 6.7-1" class="b"/><path d="M10.8 214.2q3 .3 6 .1 5.2 2.4 11 1.9c3.2.1 6.1-1.8 9.3-2.5 2.3-.4 4.5-1.5 6.7-1.8 1.4-.5 2.4-2.1 3.4-3.1q4-4.2 8.5-.7c2.7 2 6 2.6 9.3 3q4.7.7 9.4.6c2.8.2 5.6 1 8.5 1.3q4.6.4 9.3-.3 6-1 11.9-3.2c4-1.4 8.4-3.2 12.7-1.7 2.5.8 5 2 7.6 2.6q3.8.8 7.6 1.1c2.3.3 4.5 1.2 6.8 1.3q2.3 1.1 4.2 2.4 3.6 2.8 7.7 4.4c4.4 1.6 9.3 1 13.6-.7l6.7-2.9q2.3-1.1 4.3-2.6 2.9-1.1 6-.9" class="b"/><path d="M10.8 211.5c1.9.4 4 .3 6 .8q2.3 1.4 5 2 3.9.8 7.6 0 2.6-.8 5.1-2l4.3-1.2q3.1-1.6 6.7-1.4c2-1.6 3.2-4.6 6-5 2.6-.2 4.5 2.1 6.8 3 2.6 1.3 5.6 1.3 8.4 1.8q2.6.3 5.1.4 1.8-.2 3.4 0a43 43 0 0 0 30.6-2.2c5.6-2.5 8.6-3.2 14.4-.5q4.4 2 9.3 2.4 4.4 0 8.5 1.3c2.3 1 4.5 2.5 6.8 3.6q2 1.4 4.2 2.8c5.5 3.3 12.3 1.8 17.8-.7q3-1 6-2.3c1.5-.6 2.8-2 4.2-2.7q2.1-.5 4.2-.6" class="b"/><path d="m10.8 208.8 5 .8a17 17 0 0 0 8.5 3.3c4.7.6 8.5-2.5 12.8-3.7 2.8-1.4 6.1-2.9 9.3-1.7 1.5-1.2 2.4-3.5 4.2-4.3 3-1.1 5.2 1.9 7.7 2.9 2.6 1 5.6 1 8.4 1.5q2.6.5 5.1.5c1.4 0 3-.3 4.3.2a37 37 0 0 0 19.5 1.2q5.3-1 10.2-3c3.7-1.9 7.7-4 11.8-2.1 2 .7 4 1.9 6 2.6q3.7 1.5 7.6 1.5 3-.2 6 .1a9 9 0 0 1 3.3 1.6l5.1 3.2c2.6 1.3 4.7 3.7 7.7 4.1 5.8 1 12.3-1.7 17.8-3.7a21 21 0 0 0 5-2.5l1.8-1.4 3.3-.6" class="b"/><path d="M10.8 207q2-.1 4.2-.1 1.4.6 2.6 1.6a16 16 0 0 0 5 2.3c3 .7 6-.1 8.5-1.5q2.6-1 5.1-2.3c2.3-1.3 5-2.6 7.6-2.6 1.2 0 2.3.7 3.4.6 3.7-6 5.3-4 10.2-1q2.5 1 5.1 1.2c2.8.2 5.7 1 8.5 1.1q2.2.1 4.2-.2l1.7.5a34 34 0 0 0 22 .8q4-.8 7.7-2.7c1.9-1 3.9-2.2 6-2.6 3.7-1 7 1.6 10.1 3.1q4 2.1 8.5 2.4c2.5.2 5.1-.5 7.6-.3 2.2 1 4 3 6 4.2q2 1.4 4.2 2.5 1.2 1 2.5 1.6c2.5 1 5.2.4 7.7-.1l6-1.3q5.1-1.5 10.1-3.6 1.8-.9 3.4-2.2 1.1-.7 2.5-.8" class="b"/><path d="m10.8 206 4.2-.1c2.4 1.2 5 2.7 7.6 3.1a13 13 0 0 0 7.7-1.5c2.7-1 5-2.9 7.6-4.1 2-.9 4.5-1.7 6.8-1.4.8.2 1.7.8 2.5.6 3.6-5.8 5.9-2.4 10.2-.1 1.8.8 4 .8 6 .9q3 .3 5.9.9 3.4.6 6.8 0c3 1 6.1 2.2 9.3 2.8q3.4.6 6.8.2 2.5-.7 5-1.3c2.6-.7 5.4-.7 7.7-1.9 2.6-1.1 5-3 7.6-3.8 3.4-1 6.5 1.3 9.3 2.9 3 1.6 6 3 9.4 3.4 2.8.4 5.7-.5 8.5-.6 1.2.5 2.3 1.7 3.4 2.5 1.7 1.4 3.7 3 5.9 3.9.8.2 1.7 1 2.5 1.4 1.9.9 4 .5 6 0q2.5-.8 5-1.3 2.6-.3 5.1-.7 4.3-1.7 8.5-3c1.8-.8 3.4-2.2 5.1-3" class="b"/><path d="M10.8 205h3.4c.8-.1 1.8.5 2.5.8q2 .8 4.2 1.3a14 14 0 0 0 7.7-1.2q2.3-.8 4.2-2 3.8-3 8.5-4 2.7-.7 5 .5c1-.6 1.7-1.8 2.6-2.4 2.9-1.3 5.2 1.5 7.6 2.6 3 1.3 6.3.6 9.4 1.2 2.2.3 4.5 1 6.8 1.1 1.7.3 3.4-.3 5-.1 3 1 6.2 2.4 9.4 2.9q2.1.4 4.2 0c2.5-.8 5-2 7.6-2.3l6-.7c2.9-1.3 5.4-3.6 8.5-4.3s5.9 1.6 8.4 3.1c3.9 2.3 8.2 4.3 12.8 4 2 0 4-.7 6-.9 1.9 1.5 3.7 3.4 5.8 4.7 1.9 1.2 4 1.9 6 3 2.3.8 4.6-.4 6.8-1.1 3-1.3 6.2-1.2 9.3-1.5q3.7-1.6 7.6-2.6 2.7-1 5.1-2.6" class="b"/><path d="M10.8 203.8h3.4c2.2.5 4.4 1.5 6.7 1.5 3.6 0 7-1.3 10.2-2.7 2.8-2 5.9-4 9.4-4.5 1.6-.3 3.5-.8 5 0 1-.3 1.7-1.5 2.6-1.9 3.5-1.2 6 2.5 9.3 3.1 3 .6 6.3 0 9.3.6 4 .7 8 2.1 12 1 2.4 1 5 2.2 7.5 2.8 1.1.2 2.3.8 3.4.4 2.4-.6 4.5-2.2 6.8-2.8 2.5-.7 5.1-.4 7.6-.6q1.4.1 2.6-.4 2.6-1.6 5-3c3.7-2 7.2.4 10.3 2.3 4 2.5 8.7 4.6 13.5 4.4q2.6-.2 5.1-.8c1 .2 1.8 1.3 2.6 1.9a17.5 17.5 0 0 0 8.5 4.8q2 1 4.2.5c2-.5 4-1.7 6-2.3q2.8-1 5.9-.8c.7 0 1.8 0 2.5-.2l3.4-1.2q4-.9 7.6-2.8" class="b"/><path d="M10.8 202.3h3.4l2.5.7c3 .8 6.4.2 9.3-.8q2.1-.7 4.3-1.3 2.1-1.2 4.2-2.6 2.8-1.5 6-2 2.1-.8 4.2-.2c.8-.4 1.7-1.4 2.5-1.7 3.2-.8 5.7 2 8.5 2.9 2.2.7 4.6.5 6.8.4 4-.3 8 1.2 11.9 1.8 2 .4 4 0 5.9-.2l5 2.1c2 1 3.1 1.6 5.2.4 2.2-1.1 4.3-2.8 6.8-3.2q2.5-.3 5 0 2.2 0 4.3.2c4-2.3 7-6 11.9-3 5.1 3.2 10.6 6.6 17 6.5 1.9 0 4-.6 5.9-.6 2.8 3 6 5.7 10.1 6.5 1.4.3 2.9.9 4.3.4 2.6-.8 5-2.8 7.6-3.6 2.7-.9 5.7-.4 8.5-.6q4.8-.8 9.3-2.7" class="b"/><path d="M10.8 200.7h3.4q1.6.5 3.4.7c4.4.4 8.5-1.6 12.7-2.6 1.5-.5 2.8-1.7 4.2-2.3 2.9-1.4 6.1-2.5 9.3-2.1 3-3.7 7-.6 10.2.8 3.5 1.5 7.4.5 11 .7 3.8.1 7.4 1.6 11 2q2.6.3 5.2-.4l3.3 1.3c.9.4 1.8 1.3 2.6 1.6 1.8.7 3.6-.7 5-1.7q2-1.4 4.3-2.2 2.5-.6 5.1 0l4.2.4c1.3.4 2.5-.7 3.4-1.3 1.8-1.3 3.7-2.9 6-2.7 3.2.4 5.7 2.8 8.5 4.3a25 25 0 0 0 17.8 2.7c2.8 3 6 6 10.1 6.6 1.7.3 3.6.7 5.1 0 3.2-1.6 5.8-4.4 9.4-5 2.5-.5 5 0 7.6-.2s5.1-.9 7.6-1.3" class="b"/><path d="M10.8 199h3.4q2 .5 4.2.5c4.4 0 8.4-2.2 12.7-3 3.4-1.6 7-4 11-3.4 3.5-3.8 6.4-1.5 10.2.1 2.7 1.2 5.7 1.2 8.5 1q3.8-.4 7.6.2 3.8.8 7.7 1.6c2.2.5 4.5.2 6.7-.1 1.3.3 2.4 1.4 3.4 2.2 3.5 2.3 6.3-2.2 9.4-3.3 1.8-.8 4-.6 5.9-.3l5 .7c1 0 2-1 2.6-1.5 1.5-1.2 3.2-2.6 5.1-2.7 3.2.1 5.8 2.6 8.5 4 5.8 3.6 12 4.1 18.7 3.1 2.2 2.3 4.5 4.9 7.6 6 2.4.8 5.3 1.5 7.6.4 3.3-1.8 5.7-5 9.4-6.2 2.4-.8 5-.4 7.6-.3s5-.2 7.6-.2" class="b"/><path d="m10.8 197.3 3.4-.2c1 0 2.3.4 3.4.4q3 0 5.9-.9c2.8-.8 5.6-1.8 8.5-2.1a18 18 0 0 1 8.5-2.4q1.1-1.2 2.5-2.3c2.9-1.4 5.8 1 8.5 2q3.6 1.2 7.6.7 5.6-.7 11 .3c4.5 1 9 2.4 13.6 1.4 1.3.9 2.6 2.3 4.2 2.6 2 .3 3.6-1.2 5.1-2.2s3.3-2 5.1-2.2q4.3.2 8.5 1c2.6-1.2 4.4-4.6 7.6-4.3 3.2.6 5.7 3 8.5 4.3a29 29 0 0 0 18.7 2.9c2.2 2.3 4.5 5 7.6 6.1 2.4.8 5.3 1.3 7.6.2 3.4-2 5.7-5.6 9.4-7.2 2.6-1.3 5.6-.9 8.4-.5l6.8.5" class="b"/><path d="m10.8 195.4 4.2-.3q3 .5 6 0c4-.6 7.8-2.3 11.8-2.6q3-1 6-1.2c1.2-1.2 2.4-3 4.2-3.5 2.1-.2 4 1 6 1.8q2.8 1.4 5.9 1.4c3.6 0 7.3-.8 11-.6 3.7.1 7.4 1.2 11 2q2.2.3 4.3.4c.7 0 1.8 0 2.5.3 2 .6 3.8 2.3 6 1.8 1.8-.6 3.4-2 5-2.9q3.2-1.7 6.8-1 2.6 0 5.1.5c2-1.6 3.9-4.5 6.8-4.3 2.1.3 4 1.7 6 2.7q3.1 2 6.7 3.4c4.9 1.9 10.2 1.2 15.3 1.1 2.2 2.3 4.5 5 7.6 6.3 2.6.9 6.1 1.2 8.5-.5 3-2.2 5.1-5.6 8.4-7.4 2.6-1.5 5.7-1.3 8.5-.8l6.8 1" class="b"/><path d="m10.8 193.3 4.2-.4q2.6.3 5.1.1c3.5-.2 6.8-1.3 10.2-2q1.6-.5 3.4-.5 1.6.1 3.4-.4c1.6-1.2 3-3.3 5-4 2.5 0 4.7 1.6 6.8 2.5 3.5 1.5 7.4.6 11 .2q5.7-.7 11 .3 4.3 1 8.5 1.7 1.8.2 3.4.5 1.6.8 3.4 1.3c6.3 2 7.5-3.6 14.5-3.4h3.3q1.3.3 2.6 0c3.5-4 5.2-5.4 10.2-2.3 4 2.1 8.1 4.6 12.7 5.3 3.9.7 8 0 11.9.2 2.6 2.8 5.3 6.2 9.3 7 2.2.2 4.9.2 6.8-1.1 3-2.3 5.2-5.8 8.4-7.8 2.8-1.8 6.3-1.6 9.4-1l6 1" class="b"/><path d="M10.8 191.2c1.6-.2 3.4-.7 5-.7l4.3.2c2.8 0 5.7-.7 8.5-1.3l4.2-.8a7 7 0 0 0 3.4-.8c1.8-.8 3.1-2.7 5.1-3.2 2.8-.1 5 2 7.6 2.9 3.3 1.1 6.9 0 10.2-.4q6-.9 11.9 0 5.1 1.2 10.2 2c1.4.2 2.8 1.3 4.2 1.5 3.9 1.1 7.5-1.1 11-2.4q4.7-1.1 9.3-.7c3.2-3.4 4.5-6 9.4-3.1q3.3 1.8 6.8 3.3c1.8.8 3.8 1.8 5.9 2.2 4.4 1 9 0 13.6.5 2.9 2.8 5.8 6.7 10.1 7.1 2 .1 4.3 0 6-1.1 3-2.4 5.2-5.8 8.5-7.9 2.7-1.9 6.2-1.8 9.3-1.3l6 1" class="b"/><path d="M10.8 189c2.2-.5 4.5-1.4 6.7-1q5.7.4 11-.6c2-.4 4.2-.6 6-1.5l4.2-2.2q1.6-1 3.4-.5c5.1 2.1 6.7 4.5 12.8 3 9.7-2.5 15-1.4 24.6.8 2 .2 3.8 1.5 5.9 1.6 4.4.4 7.6-3.6 11.9-3.9 1.4-.1 2.8.8 4.2 1q1.6-.3 3.4-.2c.6-.2 1.4-1.1 1.7-1.7 1-1.3 2.4-3 4.2-2.8 2.2.3 4 1.8 6 2.6q3 1.4 6 2.4a23 23 0 0 0 10 2.2c2.9 0 5.8-.4 8.6 0 4.7 4.8 8.7 10 16 6.2 3.1-2.2 5.4-5.5 8.6-7.6 2.7-1.9 6.1-2 9.3-1.6l6 .9" class="b"/><path d="M10.8 186.6q3-1 6-1.6c3 1.6 6.7 1.3 10 .6q2.7-.3 5.2-1c2.6-.9 5-2.4 7.6-3 1.1-.3 2.4.3 3.4.8 2.1 1.2 4.3 2.6 6.8 2.9 2.3.2 4.6-.5 6.8-1q3.6-1.2 7.6-1.4c3.7-.2 7.4.5 11 1.2 2.6.6 5.3 1 7.6 2.1 7.4 2 11-9.3 18.7-2.2q1.6-.3 3.4-.4c3.4-5.8 4.5-5.6 10.2-2.6q5.3 2.3 11 4c5 1.5 10.2.6 15.2 1 4.8 4.4 9 10.5 16.2 6.6 3.3-2.3 5.7-5.9 9.3-7.8 4.4-2.4 9.7-1.3 14.4-.8" class="b"/><path d="m10.8 184.2 2.5-1q1.3.2 2.5.6 2.1.6 4.3.8a19 19 0 0 0 5-.5c2.6-.7 5.3-1 7.7-1.9s5-2.4 7.6-2c2.7.9 5 2.8 7.7 3.5 2.5.7 5.2 0 7.6-.8q3.3-1 6.8-1.5c4.5-.8 9 .5 13.6 1l4.2 1q1.5.9 3.4 1.1c2.6 0 4.7-2 6.8-3.5 4.3-3.2 7.4-3.2 11 1h2.5c2.7-3.7 3.4-7 8.5-4q2.5 1.2 5 2c1.6 1 3.3 2.3 5.2 2.6q1.6.3 3.4.2 2.5.6 5 .7 5.2.1 10.2.2c3.5 2.5 6 6.7 10.2 8 8 2 11-9 20.4-9.8q2-.3 4.2-.5 2.6.1 5.1.5" class="b"/><path d="m10.8 181.9 1.7-.6c3 1.6 6.7 2.2 10.1 1.6l9.4-2.3c2.5-.8 5-1.9 7.6-2q1.3.5 2.5 1.2c4.4 2.7 7.8 3.5 12.8 1.9 4.9-1.6 10-3 15.2-1.9l8.5 1.4c1.4.3 2.8 1.2 4.3 1.3 3 0 5.2-2.7 7.6-4.3 4.6-3.3 7.7-2.7 11 2 2 .4 2.7-.6 3.4-2.2.9-1.5 2.2-3.7 4.2-3.3 2.4.5 4.5 2 6.8 2.6q1.5 1.4 3.4 2.6c4.6 2.7 10.2 1 15.3 1.3q3.3 0 6.7.3c2 .9 3.5 3 5.1 4.4 2.6 2.6 6.5 5.2 10.2 3.4 3.1-1.5 5.6-4.2 8.5-6q2.4-1.5 5-2.4 1.8-.8 3.5-1.1a23 23 0 0 1 7.6 0" class="b"/><path d="m10.8 179.8.8-.4c7.8 4.7 13.4.8 21.2-.9q3-.9 6-1.3 1.3.3 2.5 1c2.8 1.6 6 3 9.3 2.7 6-.6 11.7-3.8 17.8-3l9.4 1.4c1.7.3 3.3 1.5 5 1.3 3.1-.5 5.2-3.3 7.7-4.9 5.1-3 7.8-2.4 11 2.6q.8.4 1.7.3c2.3-4 3.1-7.9 8.5-5l3.4 1.4a15 15 0 0 0 9.3 4.6c6 1 12-.5 17.8.3 3.7 2.9 6.8 7.8 11.9 8 3.6 0 6.4-2.9 9.3-4.7q3.6-2.5 7.7-4.2 4.9-1.4 10.1-1" class="b"/><path d="M10.8 177.7c1.4 0 2.8 1.3 4.2 1.6 5.1 2 10.4-.5 15.3-1.9 2.4-.5 5.1-1.4 7.6-1.6 1.5.1 3 1 4.3 1.6 9.3 5 18.3-2.7 28-1l7.6 1.3c1.5.6 3.3 1.3 5 .9 2.7-.8 4.7-2.9 6.8-4.3 2.3-1.4 5-2.7 7.7-2.1 1.4.4 2.5 1.9 3.4 3 .2.6 1 1.6 1.7 1.8l.8-.5c3.2-7.3 4.1-6.8 11-3.9 3 3.1 5.7 5.1 10.2 5.2q3.8.4 7.6.6c3.4.1 6.8-.2 10.2 0 1.3.4 2.4 1.8 3.4 2.7 2.6 2.3 5.6 5.3 9.3 5 2.5-.3 4.7-1.8 6.8-3l6.8-4q3.2-1.6 6.8-2 3-.4 6-.7" class="b"/><path d="M10.8 175.8c8.2 4.5 12.1 2.2 20.3-.1 3.6-1 6.7-1.9 10.2 0 7.9 3.5 15.8-.1 23.8-1a40 40 0 0 1 11 1c1 .2 2.3.9 3.4 1a7 7 0 0 0 3.3-.1c3.7-1.3 6.5-4.4 10.2-5.6 1.6-.5 3.5-1 5.1-.2 1 .5 2 1.7 2.6 2.7.2.5 1 1.6 1.7 1.8 2.7-3.2 2.7-8.9 8.4-5.8 1.1.5 2.6.8 3.4 1.7 2 2.2 4.6 4.3 7.7 4.7 2.8.3 5.7.1 8.4.5q6.3.9 12.8.7c2.5 1.9 4.8 4.4 7.6 6 3.6 2.2 7.6.7 11-1.3l7.6-4.1q3-1 6-1.5l6-1.2" class="b"/><path d="M10.8 174.2c7.4 3.6 11 3 18.6.5 2.8-.7 5.7-1.5 8.5-1.4 1.4.1 2.9.7 4.2 1 8 2.2 16-.6 23.8-1q4.7-.2 9.3.8c2.5.8 5.1 1.7 7.7.7 2.5-.6 4.6-2.3 6.7-3.6 2.3-1.3 5-2.5 7.7-2.2 1.4.2 2.6 1.6 3.4 2.7l.8 1.3.9.4c2-2.6 3-8.6 7.6-6 1.3.8 3 1.3 4.2 2.4 2.2 2.4 5.2 4.3 8.5 4.5 2.8.2 5.7 0 8.5.3 4.2.5 8.4 1.3 12.7 1.2 5 4.4 10 8.8 17 5.2 2.8-1.3 5.5-3 8.4-4.1 3.8-1.6 8-1.6 12-3" class="b"/><path d="M10.8 172.5c3.7 1.4 7.7 2.9 11.8 2.4 5.1-.8 10.1-2.9 15.3-3q3 .3 6 .9c7.9.9 15.8-1 23.7-1q3.4 0 6.8.6c2.9 1.2 6.3 1.7 9.3.6 2.2-.6 4-2.1 6-3.2 2.2-1.3 5-2.4 7.6-2.3 1.3.2 2.6 1.3 3.4 2.4l.8 1.2.9.4c2.1-1.9 2.7-8 6.7-6 1.7.8 3.4 2 5.1 2.7l2.6 2.2c2.2 1.6 5 2.1 7.6 2.3 3 .2 6.2 0 9.3.3 3.7.4 7.4 1.3 11 1.4 4.1 3.7 9.6 7.8 15.3 5.6 3.2-1 6.1-3 9.3-4.2 3.8-1.4 8-1.4 12-2.8" class="b"/><path d="M10.8 170.7c3.9 1 7.8 2.6 11.8 2.5 2.3-.1 4.6-.9 6.8-1.2q4.6-1.2 9.4-1.6c3 0 6.2.5 9.3.3 7.3 0 14.7-.7 22-.3q2.7.1 5.1 1 3.4 1.1 6.8.6c2.8-.5 5.2-2.2 7.6-3.6 2.6-1.3 5.6-2.7 8.5-2.2q1.6.6 2.6 1.8c.4.8 1.5 1.7 2.5 1.5 1-2 2.2-6.3 5-6 1.3.4 2.5 1.4 3.5 2q1.6 1.3 3.4 1.9 1.2 1 2.5 1.7c2.3 1.3 5 1.7 7.6 2 3.1.3 6.3 0 9.4.2 3.6.4 7.3 1.2 11 1.5 4 3.8 9.5 7.8 15.2 5.6 3-1 5.6-2.7 8.5-3.7 3.8-1.4 8-1.2 11.9-2.5" class="b"/><path d="M10.8 168.8q3 .5 6 1.3 3.6 1.5 7.5 1.3 2.6-.3 5.1-1c3.1-.4 6.3-1.2 9.4-1.6q5.9-.4 11.8-.5 9.8.1 19.5.7c1.5 0 2.9.8 4.3 1.1q3.3 1 6.8.5c3-.4 5.8-2.1 8.4-3.6 2.7-1.2 5.6-2.5 8.5-2.4 1.4.2 2.6 1.3 3.4 2.2l1.7 1c1.4-1.3 2-3.8 3.4-5.2 1.8-1.6 3.7.5 5 1.6q2 1.7 4.3 2.4c1.2.2 2.3 1 3.4 1.4q3 1 6 1.2c3 .4 6.2.2 9.3.4l11.9 1.5c4.3 4 9 8 15.2 5.6 2.6-.9 5-2.2 7.7-3 3.7-1.5 8-1.3 11.8-2.3" class="b"/><path d="M10.8 166.7q2.6.1 5 .8 3.3 1.4 6.8 2c4.4.5 8.5-1 12.8-1.8a73 73 0 0 1 16-1.7q8.6.6 17 1.4c1.7.2 3.4 1 5.1 1.3q3.8.8 7.7.3c3-.4 5.7-2 8.4-3.4q3.6-1.7 7.7-2.5c2.8-.6 4.8 1.7 6.7 3.3 1.3-1.9 1.9-5.2 4.3-6 2.3.5 3.8 3.2 6 4.2q1.9 1 4.2 1.1 3.2 1.2 6.7 1.5c3.1.3 6.3 0 9.4.3 4.2.5 8.4 1.5 12.7 2 3.4 3.2 6.7 7 11.9 6.4 3.6-.4 6.8-2.3 10.1-3.4 3.8-1.4 8-1.3 12-2" class="b"/><path d="M10.8 165.1q1.6.2 3.4.3l4.2.6a22 22 0 0 0 16.1.1q4.7-1 9.3-1.8l5.1.3q3.5.1 6.8-.2 2.2-.1 4.3.4l6.7 1c4.7 1.4 9.6 2.3 14.5 1.5q4-.8 7.6-2.8 3.7-1.7 7.6-2.7c4.3-1.2 5.6 0 8.5 3 .9-1.8 1.6-4.6 3.4-5.7 1.4-.3 2.5 1.1 3.4 2q1.7 1.7 4.2 2.6 2 .5 4.3.5 2.9 1 5.9 1c3.7 0 7.4-.6 11 .1 2.8.6 5.7 1 8.5 2 1.1.3 2.6.4 3.4 1.3q2.3 2.6 5 4.4c5 3 10.5 0 15.3-1.8 3.8-1.3 8-1.6 12-1.8" class="b"/><path d="M10.8 163.7q2.1.4 4.2.8 3.7 1 7.6.6c1.4-.1 2.9.5 4.3.5a20 20 0 0 0 9.3-1.6l6-1.3c3.9.2 7.9.8 11.8.5q2.5-.2 5.1-.4l6 1.1 3.3 1.1q5.5 1.4 11 .8c3-.2 5.9-1.3 8.5-2.5q3.7-1.6 7.7-2.6c3.5-.9 6.8-2.2 9.3 1.4h.8c.7-1.3 1.6-3.1 2.6-4.2l.8-.3c1.4.3 2.4 1.7 3.4 2.5q3 2.4 6.8 2.3 1.7 0 3.4.5 1.6.3 3.4.3c3.6 0 7.4-.8 11-.3q6.1.8 11.9 3.3 2.3 2.7 5 4.7c4.9 3.3 9.6 1.2 14.5-.6q3.7-1.3 7.6-2.1c1.7-.3 3.5 0 5.1-.2" class="b"/><path d="m10.8 162.3 4.2.8 3.4.8q3.9.4 7.6-.4c1.4-.3 2.9.2 4.3 0q4-.2 7.6-1.7c1.9-.7 4-.5 6-.5 3.3.2 6.7.6 10.1.4q3-.2 6-.6 3 .6 5.9 1.8 6.6 2.1 13.6 1.2c3.5-.3 6.9-1.9 10.1-3.2q3.4-1.1 6.8-1.8c3.4-.7 7-2.5 9.4 1.2 1-1.4 1.9-3.2 3.4-4 3.2.2 3.2 4.5 11 4.2q1.2.1 2.5.5 2.2.3 4.3.3c3.6-.2 7.3-1 11-.5q2.5.3 5 .8 3 .8 6 2.3c1.6 1.6 3.2 3.5 5 4.8 6 4.3 11 1.3 17-.7 1.8-.3 3.5-1.2 5.1-1.7 1.7-.4 3.5 0 5.1-.1" class="b"/><path d="m10.8 160.6 4.2.8a26 26 0 0 0 13.6.2c1-.3 2.3 0 3.4-.1 2.6-.1 5-1.3 7.6-1.6q5.1-.3 10.2.2 5.5.1 11-.6c1.7.5 3.3 1.6 5 2a29 29 0 0 0 10.3 1.2q5.7-.2 11-2.6c3-1.3 6.2-1.8 9.3-2.3 3-.3 6.9-2.8 9.3-.1h.9c.7-1.2 1.9-2.7 3.4-2.8 1.8.6 3.2 2.5 5 3q1.8.7 3.5.7 1.7-.2 3.3.4c5.6 1.5 11.4-1 17-.2q5.4.3 10.2 2.8 2.3 2.6 5 5c6.7 5.1 12 1.4 18.7-.6 3.6-1.9 4.5-2.2 8.5-1.9" class="b"/><path d="M10.8 158.7c4.7.9 9.5 1.9 14.4 1.6q3.8-.3 7.6-1l10.2-1q4.3-.2 8.5 0h5c1.4 0 3-.4 4.3-.2a30 30 0 0 0 15.3 2.8q4.3-.3 8.5-1.6l4.2-1.5c2.7-1 5.7-1.2 8.5-1.6l5-1.2a4 4 0 0 1 4.3 1.2c.8-1.2 2-2.4 3.4-2.7.9 0 1.8.8 2.5 1.3q1.6 1.1 3.4 1.5 2.1.6 4.3.3 2 .7 4.2 1c5.1.5 10.2-1.3 15.3-.8q5 0 9.3 2.5 2.6 3.2 6 5.7c6.2 4.6 11.4 1.3 17.7-.8 3.4-2 4.3-3 8.5-2.4" class="b"/><path d="M10.8 156.5a76 76 0 0 0 18.6 1.5q7.6-.6 15.3-1.4 4.3-.2 8.5 0 4.3 0 8.5.5 6.9 2.7 14.4 2c5-.4 9.7-2 14.4-3.4q3.8-.7 7.6-1.2l4.3-.8c1.4-.5 3.1-.5 4.2.8 5.7-5.4 4.4.7 12.7.2 1.7.2 3.4 1 5.1 1.1 4.8.6 9.6-.8 14.4-.8l5.1.2q2.3.2 4.3 1.1 2.9 3 6 5.9c7 6 12 2.2 19.4-.4 2.4-2 4.5-3 7.7-2.4" class="b"/><path d="M10.8 154.1a111 111 0 0 0 22 1.7q6-.2 11.9-.9 4.6-.2 9.3.1l8.5.8a33 33 0 0 0 14.4 1.3c7.1-1.1 14-3.5 21.2-4.1l4.3-.8c1.4-.5 3.1-.4 4.2.7.9-.3 1.8-1.2 2.5-1.8 1.7-1 3.5.7 5.1 1q2.5.8 5.1.6l2.6 1c5.8 1.5 11.9-.2 17.8-.4l7.6 1c3.3 1.6 5.5 5 8.5 7 6.5 4.8 12.3 0 18.6-2.5 1.1-.4 2.3-1.3 3.4-1.7q1.6-.3 3.4-.2" class="b"/><path d="M10.8 151.7a204 204 0 0 0 22.9 2.2c4.2.1 8.4-.7 12.7-.7q5.5 0 11 .6 3.9.1 7.6 1 6.8 1.4 13.6.1 9.8-2.3 19.5-3.5c2.8-.1 6.1-2 8.5.2.5-.2 1.3-.9 1.7-1.3 1.6-1.8 4-.2 6 .2q2 .5 4.2.3 2 .7 4.2 1.3c5.6 1.3 11.3.2 17-.2 1.3-.2 2.9.3 4.2.5l2.5.6q1 .4 1.7 1.2 3 2 6 3.7 1.5 1.3 3.4 2.3c4.7 2.7 9.4-.4 13.5-2.8a29 29 0 0 1 10.2-3.8" class="b"/><path d="M10.8 149.3q6.4.7 12.7 1.3 5.4 1.1 11 1.3c4 .2 8-.6 11.9-.6q10.2.4 20.3 1.8 6.9 1.1 13.6-.4 8.4-2 17-2.8c2-.2 4-.8 5.9-.9q2 .1 3.4 1.3c2.2-3.5 4.3-2.1 7.6-1.5 1.4.3 2.9 0 4.3.2q2.8 1.3 5.9 1.7c5.3.8 10.8.2 16.1-.4 1.7-.3 3.5.4 5.1 1l4.2 3.2c2.9 2 6.2 3.1 9.4 4.3 7.7 1.9 12.7-8.7 22-8.6" class="b"/><path d="M10.8 147q5 .7 10.1 1.3l6 .6c5.3 1 10.8 1.5 16.1.7 5-.4 10.2.3 15.3.8q7.2.8 14.4 1.3c3.7 0 7.4-.8 11-1.5q5.5-1 11-1.7c2.5-.2 5.1-1 7.7-1 1 0 2.3.7 3.3.8.5-.2 1.3-.9 1.7-1.2 2.1-1.2 4.6 0 6.8 0h3.4c2.2.7 4.5 1.7 6.8 2a58 58 0 0 0 17-.2c.7-.1 1.8-.4 2.5 0a30 30 0 0 0 11 6.7c2.2.6 4.5 1.4 6.8 1 7.4-1.7 10.7-11.1 19.5-9.5" class="b"/><path d="M10.8 144.4c4.3.2 8.5 1.2 12.7 2q6 1 11.9 1.6c3.4.4 6.8-.4 10.1-.4 4.8 0 9.7.6 14.5 1 5.3.5 10.7 1.3 16 1 6-.7 12-2.1 17.9-2.8 2.8-.3 5.6-1.2 8.5-.7a7 7 0 0 0 2.5.3c1-.5 2.2-1.4 3.4-1.4 2.8 0 5.7.8 8.5.4.8-.2 1.8.3 2.5.5q1.6.7 3.4 1a54 54 0 0 0 18.7.7q1.6.3 3.4.9l2.5 1.8q5 3.3 11 3.5 2.2.3 4.3 0 1.3-.7 2.5-1.6c5.2-4 8.4-10.6 16.1-7.7" class="b"/><path d="M10.8 141.6c4.9 0 9.7 1.4 14.4 2.7q4.1 1 8.5 1.5 3 .4 6 .4 2.4-.2 5-.5 5.1.2 10.2.6c7.6.6 15.3 1.7 22.9 1q7.2-1 14.4-2.2c3-.4 6.3-1.2 9.3-.5q1.3.3 2.6-.1 1.2-.9 2.5-1 2.6-.3 5.1.2 3 .3 6 0c3 1 6 2 9.3 2.2q3.7.5 7.6.6 2.6 0 5 .3c3 .6 6 .9 8.6 2.5 3.4 1.7 7.3 1.7 11 1.4q2.2 0 4.2-.4 1.4-1 2.6-2.1c5.1-5 7.2-9.4 15.2-6" class="b"/><path d="M10.8 139c7.7-.7 14.6 3.7 22 4.6 3.7.6 7.4 1 11 .3q4.3-.1 8.5.4c8.8.6 17.6 1.7 26.3.8q6.4-.7 12.7-1.9c3.4-.4 6.9-1 10.2-.1 3.9-2.4 6.9-1.1 11-1h5.1q3.7 1 7.7 1.8c5.3.8 10.7 1 16 2l6 1.3q2.5.9 5 .9c3.8-.1 7.5-1.1 11.1-1.5 1-.2 1.9-1.2 2.6-1.9q2.4-2.5 5-4.9c3.3-2.5 6.8-1.3 10.2.1" class="b"/><path d="M10.8 136.8q5.7-.4 11 1.4c4.2 1.3 8.3 3.2 12.7 3.7q5.1.6 10.2 0 4.6.2 9.3.6 9 .9 17.8.9c6.3-.2 12.5-1.2 18.7-2q3.7-.6 7.6-.7 3.4-.7 6.8-1c4.2.3 8.5 1 12.7.7 2.6.4 5.1 1.3 7.6 1.7q4.3.7 8.5 1.3c4.9 0 9.7.9 14.5 1.8 2.8.8 5.7 0 8.4-.8q3.8-1.2 7.7-1.6c7-5.5 7.3-9.4 17-5.2" class="b"/><path d="M10.8 135q6.5-.4 12.7 1.7c4.2 1.3 8.3 3.2 12.7 3.5 3.7.4 7.4-.6 11-.3 6.5.4 13 1.5 19.5 1.5 6.3.3 12.5-.6 18.7-1.6q3.5-.1 6.8-.7 3-.7 6-1t5.9-.3q3.7.3 7.6.7 3.3.3 6.8.2 4.6 1.2 9.3 2 3.8 1.2 7.6.6 3.8 0 7.7.3l5.9.9c1 0 2.3.5 3.4.2q3.7-1.4 7.6-2.5l3.4-.7q1 0 1.7-.6c7-5.4 7-7.1 16.1-3.7" class="b"/><path d="M10.8 133.4q6.8-.1 13.5 1.7c4.2 1.1 8.3 3.1 12.8 3.3 3 .3 6.2-.8 9.3-.6 6.5.5 13 1.8 19.5 1.7q6.3.2 12.7-.8c3.1-.4 6.2-1.3 9.4-1.1a25 25 0 0 1 7.6-1.4l9.3-.3q2.2.1 4.2.4l6.8.6q2.6 0 5.1.6c3.1.5 6.2 1.9 9.3 2 3.2 0 6.3-1 9.4-1.2 4.5-.4 9 1 13.6 1.2q2.4-.8 5-1.7 3-.8 6-1.3c7.4-4.8 7.5-6.8 17-3.5" class="b"/><path d="M10.8 132a70 70 0 0 1 15.2 1.7c4 1.1 7.8 2.9 11.9 3 2.8.1 5.6-1 8.5-.6 5.6.4 11.2 1.8 17 1.6 4.2-.1 8.5 0 12.7-.7 5-.7 10-2.1 15.2-2.5q7.3.2 14.5-.4c3 0 6.2.7 9.3.9 2.5.3 5.2.3 7.6 1 1.1.1 2.3.8 3.4 1q3 .9 6 .1c9.6-3.3 10.6-2.1 20.3-1a9 9 0 0 0 4.2-.4l6-1.7c1.8-.2 3.4-1.4 5-2.3 4.9-3 8.5-2.2 13.6-.6" class="b"/><path d="M10.8 130.4q6 0 11.8 1.2 2.6.2 5.1.8c3.4 1 6.7 2.4 10.2 2.5 2.5.2 5-.8 7.6-.5 4.3.3 8.5 1.5 12.8 1.7q4.3.3 8.4-.3l6.8-.4c4.3-.6 8.5-1.7 12.7-2.4 2.5-.6 5.2 0 7.7 0 3.6 0 7.3-.5 11-.7s7.4.4 11 .9l5.1.7q1.8 0 3.4.8c4.5 1.7 7 .4 11-1.4a26 26 0 0 1 7.6-1.2c5.4 0 10.8 1.6 16.1.4 5.3-1 9.9-4.6 15.3-4.4 1 0 2.4.3 3.4.5l3.4.1" class="b"/><path d="M10.8 128.8c6 0 11.9 1.3 17.8 2.2 4.9 1.4 8.3 3 13.5 1.8 5.5-.3 10.7 2 16.2 2 3.4.2 6.8-.5 10.1-.8 4.3-.1 8.6-1.3 12.8-2.1q2.5-.6 5-1c2 .1 4 .6 6 .4 5.6-.5 11.3-1.2 17-1q6.3.6 12.7 2c2.7.5 5.6 1.8 8.5.8 1.4-.5 2.8-1.4 4.2-1.9q3-.9 6-1.3c5.8-1 11.8.2 17.7-.5 4.6-.5 9-1.8 13.6-2.3q4.6-1.2 9.3-.6" class="b"/><path d="M10.8 127.3c6.2 0 12.5 1.4 18.6 2.4 2.6.5 5 1.5 7.7 1.8q2 .2 4.2-.2 2.2 0 4.2.3c4.5.8 9 2.2 13.6 1.9 4-.1 8-1 11.9-1.4 3.1-.4 6.2-1.5 9.3-2q2.2-.5 4.3-.8 3 .4 5.9.2 9.7-1.7 19.5-1.2 4.7.1 9.3 1.3c2.8.7 5.6 1.6 8.5 1.5 1.4 0 3 0 4.3-.9 2.3-1.2 5-1.5 7.6-2q5.4-1.2 11-1.5l16.1-.3c4.6-1.8 9.5-3 14.4-2" class="b"/><path d="M10.8 125.7c6.3 0 12.5 1.3 18.6 2.6 2.3.3 4.5 1.3 6.8 1.6 1.7.3 3.4 0 5.1-.1q3.5.1 6.8 1.1c6 1.9 12.5 1.2 18.6.1q3.5-.5 6.8-1.1 3.4-1 6.8-1.7c2.7-.7 5.7-.2 8.5-.7 7-1 14-1.9 21.2-1.4q4.6.1 9.3 1c2 .5 4 1.5 6 1.4q3.7-.1 7.6-.5 1.2-.5 2.5-.8c4.9-.6 9.6-1.9 14.4-2.6q7.7-1 15.3.4c1.7-.2 3.4-1.4 5-1.8a20 20 0 0 1 11.1-.6" class="b"/><path d="M10.8 124c8 .1 16 2 23.7 4 2.5.6 5.1 0 7.6.3 3.2.4 6.2 2 9.4 2.3 4.5.6 9-.4 13.5-1q4.3-.6 8.5-1.4c2.3-.5 4.5-1.4 6.8-1.8 5.1-.4 10.2-1.4 15.3-2a80 80 0 0 1 28.8 1.7h2.5c2.8-.3 5.8 0 8.5-.5q3.5-.2 6.8-.8c4.2-.7 8.4-2 12.7-2.2q4.7 0 9.4 1c.8.3 1.8-.4 2.5-.7l3.4-1.4q5.4-1.9 11-.3" class="b"/><path d="M10.8 122.4q7.7.1 15.2 2 4.3 1 8.5 2c2.5.4 5.2 0 7.6.6 3.2.7 6.1 2.4 9.4 2.5 2.8.2 5.7-.4 8.5-.8q4.6-.5 9.3-1.4c4.6-.6 9-2.4 13.6-3 5.8-1.1 11.8-2.3 17.8-2.8q6-.2 11.8.3 7.3.5 14.5 2.2c3.6 0 7.3.2 11-.2 4.8.2 9.6-1 14.4-1.8q5-.7 10.2.2l1.7.2q1.6-.6 3.4-1.4a18 18 0 0 1 13.5-1" class="b"/><path d="M10.8 120.8q6.8 0 13.5 1.5c3.4.7 6.8 1.9 10.2 2.3 2.2.3 4.6.1 6.8.8 3.1 1 6 2.8 9.3 2.9 3.7 0 7.4-1.1 11-1.6 7.5-.7 14.8-2.6 22.1-4.6 9-2.4 18.6-3.7 28-2.5l13.6 1.8 3.3.7a107 107 0 0 0 12 .2q3 0 5.9-.2c4.2-.5 8.4-1.3 12.7-1.2l3.4.1c.7.1 1.8.1 2.5-.3 5.1-2 10.7-3.7 16.1-1.5" class="b"/><path d="M10.8 119.3q6.4-.2 12.7 1.2c4.7 1 9.5 2.3 14.4 2.7 4.2.5 7.6 3.7 11.9 3.8 3.7 0 7.3-1.4 11-2q4.7-.4 9.3-1.4 6-1 11.9-2.9a62 62 0 0 1 27.1-3.5c6.3.9 12.4 2.4 18.7 2.7q4.6 1 9.3 1c3.7.2 7.4-.2 11-.4q8.1-1 16.2-.8c4.9-1.4 10.3-2.8 15.2-.7l1.7-.4" class="b"/><path d="M10.8 117.8q8.6-.3 17 2c3.6.7 7.4 1 11 2 3.6 1.2 7 4 11 3.8 2.8-.1 5.7-1.2 8.5-1.8q3.3-.9 6.7-1 3.4-1 6.8-1.6 4.8-.4 9.3-2a47 47 0 0 1 26.3-4.4c5.2.8 10.2 2.5 15.3 3.2 3 .4 6.3.2 9.3.7q3.8.5 7.7.5 2.5.2 5 .1 11-.8 22-1 4-.1 7.7-.1c2.3 0 4.6-.5 6.8-.6" class="b"/><path d="M10.8 116.4q5-.3 10.1.4 3.5.6 6.8 1.2c3.7.6 7.6.8 11 2.2 2 .8 4 2.1 6 3 3 1.6 6.3 1 9.3 0q5-1.7 10.2-2.2 3.3-1.4 6.8-2 3-.3 6-.4a21 21 0 0 0 7.5-2.7q7.3-3.6 15.3-3.8 5.2 0 10.2 1.3c4 1 7.8 2.3 11.9 3q3.7.6 7.6.6 3.8.1 7.6.5c5.1.1 10.2.4 15.3 0l17-.7c.7 0 1.8.1 2.5-.3 3.2-1.2 6-3.3 9.3-4.4" class="b"/><path d="M10.8 115.1q4.6-.5 9.3 0 3.8.6 7.6 1c3.7.5 7.6.8 11 2.3 2 1 4 2.5 6 3.4 3.5 2 7.5.4 11-.9q3.7-1.3 7.6-1.9c2.4-1.1 5-2.3 7.7-2.6s5.7.3 8.5 0q1.2-.4 2.5-.7 1.6-1 3.4-2c4.3-2.6 9.4-4 14.4-3.9q4.7.5 9.3 1.6c5.7 1.3 11.1 3.9 17 4q3.8 0 7.6.2 5.1.4 10.2.4c6 0 11.9-.5 17.8-.3 2.4.1 4.7-1.1 6.8-2.1 4-2 8-4.9 12.7-4.7" class="b"/><path d="M10.8 113.9c5.6-.8 11.3 0 17 .5 3.6.3 7.5.6 11 2.1 2 1 3.9 2.6 5.9 3.7 3.5 2.1 7.6.5 11-1q3.4-1.3 6.8-2.2c2.6-1.5 5.4-3 8.5-3.4 4.1-.8 9 2.4 12.7-.4 4.3-3.5 9.7-6 15.2-5.6 3.5.3 6.8 1.6 10.2 2.3 5.2.7 10 3.2 15.3 3.8 4 .5 8 .2 11.9.4 6.2.7 12.4.2 18.6-.3l5.1.1c2.4-.4 4.7-1.7 6.8-2.9 5.3-3 8-4.7 14.4-3.7" class="b"/><path d="M10.8 112.3q10.5-.5 21.2.6c2.6.3 5.4.7 7.6 2.2 3.8 2.5 8 6 12.7 4l5.1-2.3q1.7-.6 3.4-1.5c2.5-1.4 5-3 7.6-4a16 16 0 0 1 10.2.5c1.6.4 3.6 1 5.1 0q2.3-2.2 5-3.9c3.6-2.2 8-3 12-2 4.4 1.3 8.8 3.1 13.5 3.6 2.6.2 5.1 1.4 7.7 2q4.6 1 9.3.8l6 .1q2 .4 4.2.4 4.6.1 9.3-.3 3.8-.5 7.6-.5a16 16 0 0 0 5.1-1.9c3.8-1.9 7.5-5 11.9-4.7 2 .4 4 1.6 6 2.2" class="b"/><path d="M10.8 110.7q11.9-.7 23.7.4c3.8.6 6.2 4 9.3 5.8 3.8 2.6 8.4.8 12-1.3 6.7-3.7 12.8-9.5 21.1-7 2.2.6 4.4 1.9 6.8 1.7 1.3-.7 2.3-2 3.4-3q2.6-2.3 6-3.4c4.7-1.6 9.1.8 13.5 2.5q4.1 1.6 8.5 2c1.6.3 3.5 0 5 .6 5 1.5 10.2 1.6 15.3 1.6q2.6.1 5.1.5 3.8.2 7.7 0l5.9-.6c2-.2 4-.2 6-1q3.4-1.7 6.7-3.6c1.6-.8 3.3-1.8 5.1-1.8 1.6 0 3 1.2 4.2 2.1a20 20 0 0 0 5.1 3" class="b"/><path d="M10.8 108.8c3-.3 6.2 0 9.3-.2q6.7-.2 13.6.2c4 .4 6.2 4.3 9.3 6.5 3.5 2.7 7.7.7 11-1.3 7.3-4.5 14.7-10.4 23.8-7.8 2.2.6 4.4 2.5 6.7 2.2 1-.6 1.8-1.8 2.6-2.6q1.5-1.6 3.4-2.7c4.6-2.8 9-1.7 13.6.7a32 32 0 0 0 17.8 3.6l2.5.5q3.8.6 7.6.7c2.6.2 5.2 0 7.7.6q4.1.6 8.4.2l9.4-1q3.5-1.3 6.8-3.2c2.6-1.5 5.7-3.5 8.4-1 2.4 2.4 5 5.3 8.5 5.8" class="b"/><path d="M10.8 106.6c3-.3 6.2.3 9.3 0h6q2.5.1 5 0c5.8-.7 7.4 3.3 11 6.7 3.7 3.4 7.6.9 11-1.4 4.3-2.8 8.7-5.7 13.6-7.3 3.9-1 8-1.6 12-.5q1.6.5 3.3 1.5l1.7.9h1.7c3.2-3.7 6.6-7.4 11.9-7 3 .3 5.7 2.2 8.5 3.5q5.5 2.8 11.8 3.1 3.5.2 6.8-.2c4.2.7 8.5.7 12.7.9 1.4 0 2.9.7 4.3.9q3 .6 5.9.3 5.1-.6 10.2-1.6 3.5-1.2 6.8-3c4-2.8 6.5-1.7 9.3 2.1 1.9 2.3 4.5 4.4 7.6 4.3" class="b"/><path d="M10.8 104.2c2.5-.1 5 .5 7.6.6q5.5-.7 11-.1 1.6 0 3.4-.2c4-.3 6.2 3.7 8.5 6.3 3.4 4 6.5 2.5 10.2-.2a41 41 0 0 1 19.5-8.5c5-.6 8.5-1 12.7 2.2h2.5c3.2-3.7 6.6-7.3 12-6.5 2.7.4 5 2.2 7.5 3.4q5.6 2.8 12 3.3c2.7.3 5.6 0 8.4-.1a75 75 0 0 1 11.9.7q1.6.8 3.4 1.2 2.9.7 5.9.3 3.3-.6 6.8-1.3 3.5-.6 6.7-2c2-.8 4-2.1 6-2.6 3.6-.7 5.5 3.3 7.6 5.5a8 8 0 0 0 6.8 2.4" class="b"/><path d="M10.8 101.7q3.4.2 6.7 1a39 39 0 0 1 12.8 0c1 .3 2.3-.2 3.4-.1 3.8-.3 5.5 3.7 7.6 6.2 3 4 5.7 3.1 9.3.4a38 38 0 0 1 16.1-7.6c3.7-.6 7.3-1.6 11-1.6q1.8-.1 3.4.5c.8.3 1.8 1 2.6 1.2l3.4.3c1.2-.8 2.2-2.3 3.4-3.3q1.8-1.7 4.2-2.4c4-1.5 7.7 1 11 2.8q6.1 2.9 12.7 3.5c2.8.4 5.7.2 8.5.3q4.7 0 9.3.6c1.8 0 3.5 1 5.1 1.4q3 .7 6 .2 3.3-.6 6.8-1.5 3.4-.6 6.7-2c6.6-3 8-3.7 12.8 2.4a8 8 0 0 0 7.6 3" class="b"/><path d="M10.8 99.2q2.2.2 4.2.9 1.2.5 2.6.5a33 33 0 0 1 14.4.4q1.2-.1 2.5-.4c3.4-.2 5 3.6 6.8 5.9 3 4.4 5.4 4.2 9.3 1 8.5-7 14.8-6.1 24.6-8.7 2.5-.6 5.3-.9 7.6.2l3.4.4c.8.1 1.8.5 2.6 0 2.6-3 6.6-6.1 11-5.2 2.7.6 5 2.4 7.6 3.5q3.2 1.3 6.8 1.9 3.3.8 6.8 1.2 8.1.4 16 1.3c1.6 0 3 1 4.3 1.3q3.4.7 6.8 0l6.8-1.7q3-.7 6-1.8c5.9-2.5 8-3.4 12.7 2a8 8 0 0 0 7.6 3" class="b"/><path d="M10.8 96.9q1.6.1 3.4.8c1 .4 2.2 1 3.4.6 4.4-1 9-.3 13.5.6l1.7.3q1.3-.2 2.6-.4c3.5-.2 5 4 6.7 6.3 2.7 3.9 5 4 8.5 1.2 6.9-5.9 12-6 20.4-7.4 2.8-.5 5.6-1.6 8.5-2.1q1.7-.2 3.3 0 3.5 0 6.8 1c3-3.2 7.3-6.7 11.9-5.2 2.7.9 5 2.8 7.6 3.6 2.2.8 4.6 1 6.8 1.4q3.3.7 6.8 1.3l15.2 1.8c1.2 0 2.3.8 3.4 1q3.4.7 6.8 0 6-1.2 11.9-3c5.5-2.2 9.7-3.7 14.4 1a8 8 0 0 0 6.8 2.8" class="b"/><path d="M10.8 94.8c1.7.1 3.4 1 5 1.6Q21 95.1 26 96a17 17 0 0 1 6.8 1.4c1.1.3 2.3-.5 3.4-.5 3-.1 4.5 3.3 6 5.4 2.7 4.5 4.8 6 9.3 2.2 4.5-3.9 9.3-5.3 15.2-5.9 2.3-.2 4.6 0 6.8-.6 3.5-.8 6.5-3.2 10.2-3.2q2.2 0 4.2.3c1.1.1 2.3.8 3.4.5 2.7-2.7 6.2-5.6 10.2-5.1 2.8.6 5 2.6 7.6 3.6 2.7 1.1 5.7 1.2 8.5 1.6q3 .4 6 1.2 7.1 1.2 14.4 2c1.4 0 2.8.8 4.2 1q2.6.4 5.1 0c4-.5 8-1.6 11.9-2.5 3.7-1.3 7.2-3 11-1 2.2.9 4.4 2.1 6.8 2.2q2 1.3 4.2 1.4" class="b"/><path d="M10.8 93q2.3.4 4.2 1.4 3.3-.8 6.8-.8l2.5.2 2.6-.5q2.6 0 5 .9c1.1.3 2.3 1.1 3.4 1 1.1 0 2.4-.3 3.4.2 2.8 1.8 4 5.3 6 7.7 3.4 4.6 6.9.2 10.2-2 3.4-2.4 7.7-3.2 11.8-3.5q3 .4 6 .2c7.3-.8 10-7 18.6-4.3 1.4.7 2.4-.7 3.4-1.4 2.6-2.1 6-4.7 9.3-3 2.3 1 4.4 2.7 6.8 3.6 3.3 1.2 6.8.7 10.2 1.2 3.7.6 7.3 1.9 11 2.3l7.7.8q1.6.5 3.4.8a32 32 0 0 0 10.1-.8q4.8-1 9.4-2.3c6.8-2.2 9.8 4.7 17 2 .3.3 1.2.5 1.6.6" class="b"/><path d="M10.8 91.3q1.6.1 3.4 1c.8.2 1.7-.2 2.5-.3a24 24 0 0 1 6-.2c.7 0 1.7-.6 2.5-.8q1.6-.4 3.4-.2 2.1.1 4.2 1c1 .3 2.2 1 3.4 1 4.7.7 5.3 2.3 7.6 6 2.7 4.4 4.7 6.8 9.4 2.8a21 21 0 0 1 12.7-5l5 .6a13 13 0 0 0 7.7-1.5c3.4-2 7-4.5 11-4.9 1.7 0 3.4.6 5.1.9 2.2-1.5 4.1-3.9 6.8-4.7 4.9-1.2 7.9 5.6 16 5q3.5-.2 6.9.2c2.5.5 5 1.4 7.6 1.8q4.3.7 8.5.9c2 .3 4 .9 6 .8 5.4 0 10.8-1.3 16-2.6q3-.7 6 .7c2.8 1.3 6 2.8 9.3 2 1.1-.3 2.3-1 3.4-1.2" class="b"/><path d="M10.8 89.5q1.6.2 3.4 1l2.5-.3 4.2-.3c1.2.3 2.4-.6 3.4-1q1.6-.4 3.4-.4 3 .2 6 1.2 1.6.6 3.3 1c4.4 1.1 5.4 2.5 7.7 6.2 2.5 4 4.6 7.5 9.3 3.4 1.6-1.2 3.3-2.6 5.1-3.3a22 22 0 0 1 6.8-1.6q3 .5 6 .8c2.8.2 5.9-.3 8.4-1.8 3.5-2 7-4.4 11-5.4q1.7-.3 3.4 0c.8.1 1.7.6 2.5.5 1.8-1.6 3.6-3.7 6-4.3 2.6-.4 4.7 1.7 6.8 3q2.6 2 6 2.5c2.1.2 4.5-.3 6.7-.5q2.5-.2 5 .3c3.2.6 6.3 1.5 9.4 1.8l5.1.4q2.2.5 4.2.6 7.8.1 15.3-1.7 3-.7 6 .5c5 2.2 8.4 3.2 13.5.5" class="b"/><path d="M10.8 87.7q1.6.2 3.4 1 1.2.1 2.5-.2 2.2-.2 4.2-.2 1 0 1.7-.6 1.6-1 3.4-1.1c3.8 0 7.5 1 11 2.1 4.8 1.4 5.9 2.2 8.5 6.4 2.4 3.6 4.8 8 9.4 4 1.8-1.4 3.7-3 5.9-3.9 1.6-.5 3.4-1.2 5-1.2q4 .7 7.7.7 4.6.1 8.5-1.8 4.7-2.3 9.3-5 2.5-1 5.1-1c.8.1 1.7 1 2.6 1 7-8.3 8.2-2.8 15.2 1 4 2.3 7.8-.1 11.9-.4 4.9-.3 9.6 1.4 14.4 1.8q4.6.3 9.3.8a59 59 0 0 0 11-1q3.5-.8 6.8.3c5 2.1 8.5 2.7 13.6.5" class="b"/><path d="M10.8 86c1.4 0 2.9.7 4.2 1.1q3-.5 6-.3c1.2-.7 2.6-1.7 4.2-2 3.1-.2 6.3.9 9.3 1.4q3.5.8 6.8 2c2.8 1.2 4.2 4.3 6 6.5 2.7 4 5 6.4 9.3 2.6q2.6-2.4 6-3.8c.6-.4 1.6-1 2.4-1q5.1.6 10.2.2 2.6 0 5.1-.3 2.6-.5 5.1-1.7c3.8-1.2 11-8.1 14.4-4.3l.9-.1c6-8 7.8-3.2 13.5 1.4 3.3 2.6 5.8 2.2 9.4.6a28 28 0 0 1 16-.7q3.4.6 6.9.8 4.1.6 8.5.3c2.8 0 5.6-.6 8.4-.8q3 .1 6 1.2 5.9 2.2 11.8-.2" class="b"/><path d="M10.8 84q2.3.3 4.2 1.4 3-.1 6-.1a8 8 0 0 1 5.9-2.2c2.8.2 5.7 1 8.5 1.6q3 .7 6 1.7c3 1 4.8 4.4 6.7 6.8 2.6 3.7 5.1 6.4 9.3 2.8l3.4-2.5c1.2-1.2 2.5-2.6 4.3-2.7 4.5.8 9-1 13.5-.6q5 .7 9.4-1.4c2.8-1.3 5.4-3.4 8.4-4.6q3.2-1.4 5.1 1.5c6.4-9.3 7.5-4.5 13.6 1.3 3.2 3.2 5.7 2.4 9.3.6 9.1-5 19.2-1.3 28.8-1.1l6-.1q3-.4 6-.2c6.5 1.1 9 2.7 16 .8" class="b"/><path d="M10.8 82.2c1.7.1 3.4 1 5 1.6q2.6-.2 5.1 0a9 9 0 0 1 7.7-2.2q3.8.5 7.6 1.5c7.2 2.1 7.2 1.7 11.9 7.8 2.2 2.8 5.5 7.2 9.3 4.2 2.5-2 4.1-5.9 7.6-6.1h3.4c6-1 7-2.6 13.6-1.1q4.6.8 8.5-1.3l6-3.3c2.4-1.2 4-1.3 5.9 1 1.2-.5 1.6-2.4 2.5-3.5 4.7-5.4 8 2.6 11 5.6 3 3.4 6 2 9.3.3 3-1.5 6-2.9 9.4-3.3 6.2-.8 12.4.4 18.6.8 4.3.2 8.6-.2 12.8.2 2.5.3 5 1 7.6 1.1q3.8.2 7.6-.6" class="b"/><path d="M10.8 80.4c2 0 4 1.2 6 1.7 1.3 0 2.8.4 4.2 0a10 10 0 0 1 5-2.3c4-.3 8 1 12 2.1 5.3 1.4 5.7 1.6 9.2 6q2.3 2.9 5.1 5.3c1.7 1.6 3.6 1.1 5.1-.3 2.4-2 4.2-5.8 7.7-6q2.1.2 4.2-.3c6.4-2.2 7.4-3.5 14.4-1.3 2.5.6 5.2.8 7.6-.3q2.6-1.2 5.1-2.6c1.3-.6 2.8-1.5 4.3-1.3.4 0 1.3.6 1.7.9l1.7.2c.9-1.8 2.1-4 4.2-4.6 1.8-.8 3.3.8 4.2 2q2 3.1 4.3 5.9c2.6 3.4 6.2 1.5 9.3 0 3-1.5 6-3 9.3-3.5 6-1 12-.5 17.9 0 4.2.3 8.5.1 12.7.4 5 .5 10.2 1.3 15.2.5" class="b"/><path d="M10.8 78.6c2.7 0 5 1.8 7.6 2 .8 0 1.8.4 2.5-.1q2.6-2.1 6-2.4c4-.2 8 1.6 11.9 2.5 1.3.4 3 .5 4.2 1.2 2.3 1.7 4 4.1 6 6.2 3.3 3.5 5 6.5 9.3 1.8 1.9-2 3.7-5 6.7-5q1.8 0 3.4-.3c3.4-1 6.5-3.6 10.2-3.5 4.3.1 8.3 3.2 12.7 2.5 3.4-.6 6.1-3 9.4-3.8 1.3 0 2.9-.3 4.2.1l.8-.4c1.1-1.7 3-3.7 5.1-3.6 1.5.6 2.6 2.4 3.4 3.6 1.3 2 2.5 4.3 4.3 5.8 3 2 6.5-.4 9.3-1.6q6.4-3.3 13.6-3.7 3.7-.2 7.6-.2l6 .4q5.9.3 11.8.5c4.8.3 9.6.7 14.4.3" class="b"/><path d="M10.8 76.8c3.2.2 6 2.1 9.3 2.5 6.7-5 9.1-2.8 16.1-.8l6 1.3c1.3.4 2.4 1.7 3.3 2.7q2 2.4 4.3 4.6c4.4 4.4 5.4 3.8 9.3-.6 1.6-1.8 3.4-4 6-4q1.6 0 3.3-.5c3.7-1.2 7-4.2 11-3.9 4.5.1 8.3 3.3 12.8 3.3 3.7-.1 6.7-2.7 10.2-3.5 1.3-.5 3-.7 4.2 0 1.5-1.3 2.9-3.5 5-3.7 2.6 1.2 3.6 4.4 5.2 6.4 1 1.5 2.3 3.3 4.2 3.5 4 0 7.4-2.5 11-3.8 4.6-1.8 9.6-2 14.5-2.2 4.5-.4 9 .2 13.5.3q6.8.1 13.6.5 3.8 0 7.6.4" class="b"/><path d="M10.8 75.1c2.9.2 5.6 1.7 8.5 2.4 1 0 1.7-1 2.5-1.4a8 8 0 0 1 5-1.8c2.4.2 4.6 1.4 6.9 2.1q3.6 1.2 7.6 1.7c1.8 0 3 1.7 4.2 2.9l4.3 4.4C55 90.2 56 87.7 60 83.2c4-4.8 4.8-2.1 9.3-4 3.5-1.6 7-4.1 11-3.7 4.8.2 8.8 3.6 13.6 3.7 2.7 0 5.2-1.3 7.6-2.4 2.1-.9 4.7-2.2 6.8-.6 1-1.4 2.5-3.1 4.2-3.5 2.5 1 3.5 4.2 5.1 6.1 1 1.4 2.4 3 4.3 3 3.8 0 7.3-2.2 11-3.4 4.6-1.7 9.6-1.5 14.4-2 5-.5 10.2.1 15.3.3 6.2.2 12.5.2 18.6 1" class="b"/><path d="M10.8 73.5c2.9.3 5.6 1.7 8.5 2.2 6.2-5.6 7.7-2.8 14.4-.4 3 1.1 6.2 1.3 9.3 1.7 3.7 3 6.7 8.3 11.9 9 1.8-.5 3-2.4 4.2-3.7 2-2.5 4.1-5.2 7.6-4.8 2.2-.2 4.1-1.4 6-2.4q4.4-2.5 9.3-2c6.7.9 11.8 6.1 18.7 2.9l3.4-1.5c1.5-.8 3.6-1.5 5-.1l.9-.2c1-1 1.9-2.8 3.4-3.1 2 .6 3 3 4.2 4.5 4.2 6.2 9.6 2.7 15.3 1 4.9-1.8 10.2-1.2 15.3-1.7l7.6-.5 7.6.4q9 .1 17.8 1.2" class="b"/><path d="M10.8 71.9q3.9.5 7.6 1.9c1.8-.8 3-2.8 5-3.3 3.2-.6 5.8 2 8.6 3.1 3.4 1.6 7.3 1.9 11 2 3 2.5 5.5 6.1 9.3 7.5 1.6.5 3.8.9 5.1-.5 2.3-2.3 3.8-5.6 6.8-7.1 1.6-.7 3.5-.2 5-1 3.6-1.6 7.1-3.7 11.1-3.7 5.7-.3 10.7 3 16.1 4q4 .4 7.6-1.3c2.7-1.3 4.5-3 6.8 0 1-1.2 1.6-3.7 3.4-4 2.2.6 3.4 3.2 5.1 4.6 4 3.8 9.8 1.6 14.4.3 4.4-1.4 9-.6 13.6-1q8.4-1 17-.5 8.4.1 17 1.2" class="b"/><path d="M10.8 70q2.2.1 4.2.8c1 .3 2.3 1.2 3.4 1 5.5-5.9 7-2.7 12.7.2q3 1.4 6 2 3 .3 5.9.4c1 .3 1.8 1.4 2.5 2q2.3 2.4 5.1 3.9c2.5 1 5.4.8 7.7-.5 2.2-1.8 3.4-4.8 5.9-6.4q1.6-1 3.4-.8 1.3 0 2.5-.6c9.6-4.7 14-3.8 23.8-.5q4.1 1.5 8.5 1.3a11 11 0 0 0 5-2.2c1.7-1.1 3.1 0 4.3 1.2 1-1.2 1.6-3.6 3.4-3.9 2.3.5 3.7 3 6 3.8q2 1 4.2 1.4c1.3.4 2.8 1 4.2.8 3.2-.4 6-2.5 9.3-2.2q3.5.2 6.8.2 6-.4 11.9-.9c7.9-.1 15.9 0 23.7 1.2" class="b"/><path d="M10.8 68c2.3 0 4.6 1.2 6.7 2 4.5-3.5 5-5.1 10.2-1.3q4.6 3.3 10.2 4c2 .3 4 .1 6 .4 5.2 5.5 9.5 7.3 16 2.3 2.2-1.3 3.6-3.9 6-4.9 1.3-.5 3-.1 4.2-.6 3.4-1.2 6.7-2.8 10.2-3.5 6.5-1 12.5 2.6 18.7 3.8 5.7 1.3 5.3 1.2 10.2-1.7 1.1-.3 2.2.8 3.3 1 .6-.5 1.4-1.6 1.7-2.2 1.3-1.5 2.8-1 4.3 0l3.4 1.4c2.7 3.3 4.7 5.5 9.3 3.8q2.6-1 5.1-2.3c1.5-.8 3.5-.3 5-.2q3.5.4 6.9 0c6.2-.4 12.4-1 18.6-.8q7.3 0 14.5 1" class="b"/><path d="M10.8 66.1q3 .3 6 1.8 1.6-1.3 3.3-2.3c.9-.7 2.2-1.3 3.4-1 2.2.7 4 2.6 6 3.7 4.3 2.5 9.4 3 14.4 3 1.4.9 2.7 2.4 4.2 3.3 3.6 2.5 8 .4 11-2 2.7-1.8 5.1-4.7 8.5-5 2.7.2 5.2-1.5 7.6-2.4q5-2 10.2-1.4c5.3.7 10.1 3.1 15.3 4.3 1.9.4 4 1.3 6 .5 1-.5 2.1-1.5 3.3-1.8 1 0 2.4 0 3.4.4.6-.2 1.4-1.2 1.7-1.7 1.4-1.4 3.4-.7 5-.3 1.6 1.6 2.8 3.8 4.3 5.4 3 3 7.2.7 10.2-1 4-2.6 4-1.8 8.5-1.2 5.6.5 11.3-.7 17-1a90 90 0 0 1 11 0q5-.1 10.1.8" class="b"/><path d="M10.8 64.3q2.7.1 5 1.3c1.6-1.1 3.2-2.5 5.1-2.8 2.3-1 4.3.8 6 2a24 24 0 0 0 11.9 4.4c1.9.3 4 0 5.9.4 5.5 5.3 8.8 4.5 14.4-.1 2.4-1.8 4.6-4.3 7.6-4.8q1.8 0 3.4-.3c2-.5 4-1.5 6-2q4.6-1.4 9.3-.9c4.4.4 8.6 2 12.7 3.5 3 .9 6.2 2.4 9.4 1.5 2-1.2 4.4-2.3 6.7-1.3.6-.2 1.4-1 1.7-1.4a5 5 0 0 1 3.4-1c4.7 4 4.5 10.7 12.8 6.8 2.3-1.1 4.3-3 6.7-3.8q1.8.2 3.4.6c6.5 1 13-.5 19.5-1q6-.4 11.9.1 3.9 0 7.6.6" class="b"/><path d="M10.8 62.5q2.3 0 4.2.9c2.9-2.3 3.7-3.4 7.6-3 2.6.7 4.5 3 6.8 4.2a26 26 0 0 0 12.7 2.7c1.1 0 2.5-.2 3.4.5q1.6 1.3 3.4 2.4c7 3.3 11-6.5 17-8.1 1-.3 2.3 0 3.4-.1q2.2-.4 4.2-1.1A35 35 0 0 1 94 61q3.3 1 6.7 2.4c1.4.4 2.8 1.1 4.3 1.2q2.3 0 4.2-.7c1.9-.6 4-1.7 6-.7 1.2-.9 2.5-2.2 4.2-2 1.5.8 2.4 2.8 3.4 4.2q3.4 5.7 9.3 2.7c2.6-1.3 4.8-3.5 7.6-4.3q1.3.1 2.6.6c7.3 1.5 14.7-.5 22-1.2q5.6-.5 11 .2 3-.1 6 .5" class="b"/><path d="M10.8 60.6q1.6 0 3.4.6l1.7-1.5c2-2.2 5-1.2 7.6-.8.9.1 1.8 1 2.5 1.4q2 1.6 4.3 2.6 3.7 1.6 7.6 2c2.5.2 5.1 0 7.6.3 2.7 2 6 4.6 9.4 2.7 3.8-2 6.2-6 10.1-8 1.9-.9 4 0 6-.4a45 45 0 0 1 30.5 2c1.6.8 3.4 1.5 5.1 1 1.3-.4 3-.2 4.2-.7 1.6-.6 3.6-1.1 5.1-.1a6 6 0 0 1 3.4-2c4.2 2 4 11 13.6 6.5 3.2-1.5 6.4-5.1 10.2-3.5 3.5.8 7.3.5 11 .3 4-.3 7.9-1.4 11.9-1.8q5.5-.6 11 .3 2.2 0 4.2.4" class="b"/><path d="M10.8 58.8c.7 0 1.8 0 2.5.2q1-.5 1.7-1.6c1.7-1.9 3.9-1.2 6-.4q2 .6 4.2 1 1.3.6 2.5 1.5 1.6 1 3.4 1.6 3.3 1.3 6.8 1.5c2.8.2 5.7 0 8.5.3 9.6 7.7 11.2 0 18.6-4.8q1.6-.9 3.4-.8c1 .2 2.4.3 3.4.1a55 55 0 0 1 29.7 2q1.6.8 3.4 1.1 3-.5 6-.6c1.6-.3 3.4-1.2 5-.2q1-.1 1.7-.8l1.7-.9c4 .7 4.2 11.3 15.3 5.6 2.8-1.6 6-3.7 9.3-2.9q3.4.8 6.8.6 3 0 6-.2c3.4-.5 6.7-1.6 10.1-2q5.2-.7 10.2.2 2.3 0 4.2.5" class="b"/><path d="M10.8 56.9c.8 0 1.8.2 2.5-.3 2.3-4 4.3-2.2 7.6-1q1.6.7 3.4 1 2 0 3.4 1 4 2.2 8.5 2.8c3.4.4 6.8 0 10.2 0 1.2.2 2.3 1.4 3.4 2 9.4 5.4 11.5-6.3 19.5-7 3.7.8 7.3-.5 11-.6q4.6-.2 9.3.4 4.4.1 8.5 1.2l3.4 1q1.6.9 3.4 1 1.6 0 3.4-.3 2.1-.4 4.2-.5 2.3-.4 4.3.6 1.3-.8 2.5-1.7h.9c2 1.2 3.2 3.6 5 5 4 3.1 9 .7 12.8-1.3q2-.9 4.2-1c1 0 2.3-.4 3.4-.1q4.6.6 9.3.5a35 35 0 0 0 8.5-1.5q6.3-1.9 12.7-1c1.7.3 3.5.2 5.1.8" class="b"/><path d="M10.8 55q.8 0 1.7-.2c1.2-2.2 2.5-3.5 5-2q3 1.7 6 2.3l3.4.4 1.7 1q3.3 1.4 6.8 1.9c2.8.4 5.6 0 8.5 0 1.3 0 2.9-.3 4.2.1l1.7 1c5.5 3.1 9 2.1 13.6-1.8 1.5-1.4 3.1-3 5-3.9 1.4-.6 3-.3 4.3 0q2.1 0 4.2-.2c2 0 4-.4 6-.3q3.8 0 7.6.5 6.5.3 12.7 2.5c2.5.3 5.2-.4 7.6-.8 2-.1 4.3-.3 6 1l3.4-1.8c1 .2 1.9 1.2 2.5 1.9q1.6 1.6 3.4 3c4.1 2.5 8.8.3 12.7-1.3q2.2-.6 4.3-.6 2.5-.3 5-.3c4 .2 8 1 12 0 3.9-.8 7.7-2.3 11.8-2.3q2.1 0 4.3.2 2.6 0 5 .9" class="b"/><path d="M10.8 52.8h.8c3-4.9 4.6-1.7 8.5-.3 2.1 1 4.5 1.2 6.8 1.4a25.4 25.4 0 0 0 11.9 2.7l6.7-.4q1.8-.1 3.4.2c4.6 2.5 8.3 3.8 12.7.1 2-1.5 3.8-3.4 6-4.5a7 7 0 0 1 5-.4q2.6.3 5.2.2 4.6 0 9.3 0 7.7.7 15.3 2.5 1.6.2 3.3-.2 2.2-.3 4.3-.7c2.3-.5 5 .2 6.8 1.6 1.2-.4 2-2 3.4-2.1 3.3.9 4.9 5 8.4 5.4q3 .3 6-.4c2-.4 3.9-1.3 6-1.6l8.4-.4c2.2 0 4.5.8 6.8.7 2.8-.2 5.6-1.2 8.4-1.6q4.5-1.3 9.4-1.5h4.2q1.8.4 3.4 1.2" class="b"/><path d="M10.8 50.6c1.1-.7 1.8-2.5 3.4-2.4 1.4.3 2.9 1.2 4.2 1.8q2 1 4.2 1.4 2.2.5 4.3.8 2.9 1.3 6 1.9c4.1 1 8.4.2 12.6 0q2.2-.1 4.3.2 1.6.8 3.4 1.5c5.4 2.3 9.4-2.4 13.5-5.1q3.6-2.1 7.7-.9 3 .4 6 .6l3.3.1q2.6-.3 5-.3c3.8.2 7.5 1.2 11.1 1.7q1.6.4 3.4.3c1 0 2.3-.6 3.4-.7 4.7-.8 6-.6 10.2 2 .8-.7 1.6-2 2.5-2.4 3.3-1 5.3 4.7 9.3 5 2.6.2 5.2-.4 7.7-.8q3.3-.9 6.7-.9c1.7.1 3.6-.4 5.1.1q3.8 1 7.7.6 3.3-.6 6.7-1.4 3-.4 6-1c2.2-.7 4.6-.7 6.8-1 2-.3 4.1.6 6 1.5" class="b"/><path d="M10.8 48.3c1.5-2.7 3.4-2.2 6-1q2.4 1.1 5 1.8 2.5.8 5 1.2 3.5 1.1 6.9 1.8c3.3.6 6.8.2 10.1 0q3.5 0 6.8.2c4.9 2.5 8.2 2.3 12.8-.7 8.1-5.7 9.8-3.7 18.6-2.3l2.6.2q3-.6 5.9-1c3.1 0 6.2 1 9.3 1.4 2.3.4 4.6-.2 6.8-.7 3.6-.7 6.5.5 9.3 2.8 1-1 2-2.6 3.4-3.1 2.8-.9 5 4.8 9.4 5 2 .2 4-.3 5.9-.6q4.3-.8 8.5-.7h2.5l2.5.9q3 .6 6 .2 4.3-.5 8.5-1.6c1.9-.5 4-.3 6-.7q3.3-.9 6.7-1.3c2-.1 4 .7 6 1.5" class="b"/><path d="M10.8 45.7c2-2.8 5.1-.8 7.6 0a78 78 0 0 0 19.5 4.4h10.2q1.6 0 3.4.2l2.5 1c5.5 1.8 10.3-2.2 15.3-4a19 19 0 0 1 10.1-.3c2.3.4 4.5 1.8 6.8 1.4 2.8-.4 5.6-1.7 8.5-1.5 2.2.1 4.5.8 6.8.7q2.5-.2 5-.5 2.3.1 4.3.8c1.4.5 2.7 1.8 4.3 2 1.2-1.1 2.3-3.2 4.2-3.3 1.3.2 2.4 1.4 3.4 2.2 1.4 1.3 3.1 2.7 5 3 2.6.4 5.2-.6 7.7-1q3-.4 6-.3 1.7 0 3.3.3 1.3.6 2.6 1 3 .7 6 .3 4.6-.5 9.2-1.7c2.3-.4 4.6-.3 6.8-.5 5.3-1.3 6.4-2 11.9 0" class="b"/><path d="M10.8 43.4c2.5-2.9 6.4 0 9.3.7q5.4 2 11 3.4 3.4.7 6.8.6 3-.2 6-.2 3.6 0 7.6.4c2.2.3 4.4 1.4 6.7 1.2 5.3-.3 10-3.5 15.3-3.7q4.3-.2 8.5.4c2.5.4 5.1 1.3 7.6.8 2.3-.5 4.5-1.7 6.8-1.8h5q2.6-.1 5.2.1 2.3.5 4.2 1.6c1 .4 2.3 1.2 3.4.8 5.4-7.5 6.8 1 12.7 2.1 3 .6 5.8-.6 8.5-1.3q2.5-.5 5.1-.2 1.6 0 3.4.3l1.7 1q2.9 1 6 .8c6.2-.5 12.3-2.3 18.6-2 1-.1 2.3-.7 3.4-1 2.5-.5 5.2.2 7.6.8" class="b"/><path d="M10.8 41.2c1.7-2 4.6-1.2 6.7-.3l6 2.2c4.3 1.6 8.9 3.2 13.6 3.3 3.9.1 7.9-.6 11.8-.1q2.6 0 5.1.4 3 .8 6 .6c3.7-.4 7.3-1.8 11-2 4.2-.4 8.5.2 12.7.6l4.2-.3q2.2.5 4.3 0 2.1-.8 4.2-1.6 2.5-.7 5.1-.5 2.6 0 5.1.6 2.6 1 5 2l1-.3c5.4-7.1 7.1-.1 12.7 1.9 2.4.9 5.2.4 7.6-.5 1.9-.6 4-1.5 6-1l4.2.6q1.3.5 2.5 1 1.6.5 3.4.7c7.1.3 14-2 21.2-1.8 1.7 0 3.4-.6 5-.7q3-.1 6 .4" class="b"/><path d="M10.8 39.3c2.8-3.2 7-.5 10.1.7q4.5 2.1 9.4 3.6 4.6 1.2 9.3 1.1c2.5 0 5.1-.5 7.6-.3 4.8 0 9.7 1 14.5.6 3-.3 6.2-.9 9.3-.9 2.2 0 4.5.5 6.8.3 2.2 0 4.5-.6 6.8-.5q1.6.1 3.3.5h3.4c2.1.4 4-.8 6-1.4 4.4-1.4 8.5.5 12.7 1.7 6-6.6 6.5-3.6 12.7.2 3.7 2.2 8.1.9 11.9-.5q4.3.6 8.5.8 1.3.2 2.5.8l2.5.6c4.8.6 9.7-.3 14.5-.8q4.6-.5 9.3-.8 4.6-.5 9.3-.2" class="b"/><path d="M10.8 37.3c2-2.5 5.1-1.6 7.6-.4q3.7 1.8 7.6 3.5 5.3 2.2 11 2.5c3.1.3 6.3-.2 9.4-.4q5.4.2 11 .5 6 .1 11.9-.5l4.2-.4q2.6-.9 5.1-1.6 4.3-1.1 8.5 0 3 1 6 2.4c2.5.1 5-1 7.6-1q2.5-.4 5 0c1.3.7 2.4-.4 3.4-1q2-1.3 4.3-1.8c1.8-.6 3.6.6 5 1.5 1.6 1 3.3 2.2 5.1 2.7 2.8 1 5.8.3 8.5-.6 2 .2 4 .8 6 .8q3 0 6 .2 4 1.5 8.4 1.4c9.6-.1 19.2-2.4 28.8-1.4" class="b"/><path d="M10.8 35c2.3-2.6 5.9-.9 8.5.5q3.7 2 7.6 3.8 5.4 2 11 2c3.7.3 7.4-.5 11-.6 4.8 0 9.7.5 14.4.1 2.6-.2 5.3-.1 7.7-.9 3.3-1.2 6.6-2.8 10.1-3q4-.2 7.7 1 3.4.8 6.8 2c1.9.6 4 0 5.9 0 3-1 6-2.6 9.3-2.7q2.6 0 5.1.5c2.5 1.1 5 2.9 7.6 3.5q3 .5 6-.3c1.7 0 3.4.7 5 .9q3.5.3 6.9.3c1.3 0 3-.1 4.2.5 4 1.3 8.5 1 12.7.8 4.8-.2 9.6-.8 14.4-.9a33 33 0 0 1 8.5.5" class="b"/><path d="M10.8 32.7c2.5-2.2 6-.1 8.5 1.2 2.7 1.5 5.4 3.3 8.4 4.3q5.3 2 11 1.8c4.6 0 9-1.3 13.6-1q7.3.2 14.4-.5c2.4-.1 4.6-1.2 6.8-2 6.8-2.8 11-1.5 17.8-1q3.5.4 6.8.4c2.5-.1 5.1-.6 7.6-.5 3.2 0 6.3 1 9.4 1.6 2.2.6 4.6.7 6.7 1.5q2.2.5 4.3.4l4.2.7q6.3.9 12.7.8c1.5 0 2.9.8 4.3 1q3 .6 6 .6c5.9.3 11.8-.4 17.7-.4q5.3-.2 10.2.8" class="b"/><path d="M10.8 30.3c5-2 12 5.1 17 6.6a28 28 0 0 0 11.8 1.8c4.3-.3 8.5-1.4 12.7-1.4q7.3 0 14.4-.6 3.5-.8 6.8-2t6.8-1.5h7.6c4.5.2 9.1 0 13.6.5 5.8.7 11.2 3 17 3.6q6.3.9 12.7 1.1c4.2.2 8.5 0 12.7.3 3.7 1.6 7.9 1.8 11.9 2q5.4.2 11-.1c4.8 0 9.7-.2 14.4.7" class="b"/><path d="M10.8 28.4c6.2-.7 10.7 4.6 16 6.7a28 28 0 0 0 12.8 2.3c4-.3 8-1.2 11.9-1.6 6.8-.3 13.8 0 20.3-2q5.8-2.1 11.9-2.1c1.6 0 3.4-.4 5-.3q4.8.3 9.4 1c6.6 1.2 12.9 3.6 19.5 4.3q6 .6 11.9.5l11-.5h2.6q2.4 1 5 1.5 5.1.8 10.2 1.3c4.5.2 9-.2 13.6-.2q4.6-.2 9.3.2" class="b"/><path d="M10.8 27.1q2.5 0 5 .3c4.3 1.7 7.7 5 12 6.4 8.6 3.7 13.2 2.3 22 .8 2.8-.5 5.7-.4 8.5-.6q5-.3 10.1-1c4.3-.6 8.4-2.3 12.8-2.7q3.3-.1 6.7-.5 4 .4 7.7 1.3c5.9 1.5 11.8 3.2 17.8 4.2q10.6 1.6 21.2 0l7.6-.4 4.2 1.2q3 .7 6 1 4.6 1.3 9.3 1 6.4 0 12.7-1c2.3-.3 4.6 0 6.8-.5" class="b"/><path d="M10.8 26q3 0 6 .3c3.8 1.3 7 4.4 11 5.7 9 4 12.8 2.9 22 1.2q4.3-.6 8.5-.7l9.3-.9c4.9-.3 9.5-2.3 14.4-2.8q3-.2 6-.5 4.3.6 8.4 2a133 133 0 0 0 16.1 3.7q11 1.6 22-.2 3.5-.6 6.9-.7l6 1.5c3 .4 6.1 1.5 9.2 2q3 .2 6 0 2.6.1 5-.5c2.6-.5 5.1-1.7 7.7-2.2 2-.4 4-.5 6-1.3" class="b"/><path d="M10.8 24.8q2.5 0 5 .2c1.1.1 2.5 0 3.4.6q3 1.7 6 3.4l6.8 2.9c6.5 2.7 12.8.5 19.5-.5q4.6-.5 9.3-.6 5.6-.5 11-1.2c2.9-.5 5.7-1.5 8.5-2 2.5-.6 5.1-.6 7.6-.8 4.4.6 8.5 2.3 12.8 3.3a75 75 0 0 0 35.6 1.7c1.6-.2 3.4-.6 5-.2l8.5 1.7q5.4 2 11 1.6c2.3-.2 4.8 0 6.8-1 2.7-1 5.1-2.8 7.7-4.1 1.8-1 4-1 6-2" class="b"/><path d="M10.8 23.7q4.6-.1 9.3.5Q25.9 27.5 32 30q4.8 2.2 10.1 1.4c5.1-.9 10.1-2.2 15.3-2 2.5-.3 5.1.3 7.6 0l5.1-.9q3.5-.4 6.8-1.3a27 27 0 0 1 14.4-1.3q3.5 1 6.8 2l10.2 2.3a72 72 0 0 0 18.6 1.3c4-.2 8-1.4 12-1.6l10.1 1.5q2.6.9 5 1.6 3 .5 6 .3l5.1-.5q2.3-.9 4.3-2.4c2.5-2 4.7-4.6 7.6-6 1.3-.5 3-.8 4.2-1.4" class="b"/><path d="M10.8 22.5q5-.2 10.1.4c1.5.4 2.9 1.4 4.3 2q3.8 1.6 7.6 3.4 5 2 10.2 1 3.7-.9 7.6-1.6 3.8-.4 7.7-.3 2.5 1 5 1c3.2.2 6.4-.8 9.4-1.6q3.9-.8 7.6-2c2.7-1.2 5.7-1 8.5-1 2.9 0 5.7 1 8.5 1.8 5.9 1.3 11.8 3 17.8 3.6q7.2.9 14.4 0 3.4-.4 6.8-1 3.3 0 6.8.4 2.5.2 5 .7 2.2.6 4.3 1.4c3.8 1.2 8 .4 11.9 0 4.7-1.5 7.2-6.7 11-9.7 1.6-1.5 4-1.9 6-2.5" class="b"/><path d="M10.8 21.2q5.4-.3 11 .2 3 1.3 6 2.5c2.4 1.1 4.9 2.5 7.6 3.2 5.7 1.6 11.2-1.6 17-1.7h4.2q2 1 4.2 1.8c4.5 1.6 9.3 0 13.6-1.7 2.4-1 5.1-1.6 7.6-2.6 2.1-1 4.5-.8 6.8-.6h3.4l6 1.5c6 1.3 12.2 3 18.6 3.5q8.5.9 17-.6c3.8-.4 7.9 0 11.8.3 3.5.2 6.6 2.3 10.2 2.4q3.3 0 6.8-.5l1.7-.2c1.2-.5 2.4-1.6 3.3-2.5 4.6-4.7 6.3-10.2 13.6-11" class="b"/><path d="M10.8 19.9a72 72 0 0 1 7.6-.4q2.3-.2 4.2.4 3.4 1.4 6.8 2.9c2.7 1.2 5.5 2.5 8.5 2.7 3.2.2 6.3-1 9.3-1.7q3.4-.7 6.8-.5c1.3-.2 2.4.6 3.4 1.2l3.4 1.8c5.1 2.4 10.6.2 15.3-2.2 2-1.1 4.5-1.8 6.7-2.8 2.4-1.2 5.1-.7 7.7-.5q3.4-.2 6.7.7c7.3 1.5 14.6 3.3 22 3.7 8.3.6 16.5-1 24.7-.4q1.6 0 3.4.4l4.2 1.4q3.7 1.2 7.6.7 2.6-.3 5.1-.7c3.4-1.8 5.3-5.5 7.7-8.4 2.4-3.3 5.1-4.9 9.3-5.1" class="b"/><path d="M10.8 18.5q3.4-.5 6.7-.7c1.4 0 3-.4 4.3 0l7.6 3.2a19 19 0 0 0 10.2 2.4c3.5-.3 6.7-2.1 10.2-2.2h3.4a3 3 0 0 1 1.7.4c6 4.3 10.5 7.3 17.8 3.7 3.4-1.5 6.6-3.9 10.2-5.2q1.6-.7 3.3-1.2c2.3 0 4.6.4 6.8.4 4-.1 8 .9 11.9 1.6q7.1 1.4 14.4 1.8c4.8.2 9.7 0 14.4.3q5.1-.7 10.2-.3c4.1 0 7.8 2.4 11.9 2.7q3.8.1 7.6-.8l1.7-.4c.5-.3 1.3-1.1 1.7-1.5 1.5-1.6 3-3.7 4.3-5.4 2.6-3.8 5.4-5.6 10.1-5.7" class="b"/><path d="M10.8 17.2c3.3-.5 6.8-1.4 10.1-1.2q4.3 1.5 8.5 3.2c3.7 1.6 7.8 3 11.9 2 2.5-.6 5-1.8 7.6-2q2.2 0 4.3.3c2.4 2 4.7 4.6 7.6 6q3.2 1.2 6.8 1 3-.4 6-2c3.4-1.8 6.5-4.3 10.1-5.8q2-1.2 4.2-1.4 5.1.4 10.2.4l6 1q9.7 1.5 19.5 1.6l6 .3q1.6.5 3.3.6 2.2-.1 4.2-.6 3.5-.3 6.8 0c5.2.2 10 3.5 15.3 2.7q3.5-.4 6.8-1.5c2.2-2 4-4.7 5.9-7 2.4-3.2 5.4-4.3 9.3-4.4" class="b"/><path d="M10.8 15.9a95 95 0 0 1 9.3-1.7q3 .4 6 1.8 4.2 1.7 8.4 3c3 .7 6.4.4 9.4-.6 1.8-.5 3.9-1.4 5.9-1 1.2.2 2.6.3 3.4 1.4 3.3 3.3 6.7 8 11.8 7.6q4-.4 7.7-2.3c4.8-2.6 9.3-6 14.4-8.2q2.1-.4 4.2-.2l6.8.1c5.6.6 11.3 1.5 17 1.6q6.4.3 12.7.9c1.7.2 3.4 1 5 .9q2.3-.1 4.3-.6 3-.4 6-.3c3.5 0 6.8 1.5 10.1 2.4 4.6 1.4 9.4.3 13.6-1.5 1.5-.4 2.4-2.2 3.4-3.2 3.2-4.3 5.4-6.5 11-6.8" class="b"/><path d="m10.8 14.7 6-1.4c1.3-.2 2.8-.7 4.2-.6 4.9.8 9.5 3.3 14.4 4.2 3.4.8 6.9 0 10.2-.8 1.9-.5 4.1-1 5.9.1l1.7 2C58.9 25 62 28.4 71 23.8c5.7-3 11.2-6.7 17-9.6 2.1-.6 4.5-.3 6.7-.4 6 0 11.9 1 17.9 1L127 16c2 .2 3.9 1.3 6 1.2q2.5-.2 5-.8a26 26 0 0 1 11 .8c6 2 10 3 16.1.5q2.6-1 5.1-2.5c3.4-4 5.3-6.6 11-7" class="b"/></svg>