<svg xmlns="http://www.w3.org/2000/svg" id="a" width="1920" height="2400" viewBox="0 0 192 240"><defs><style>.b{fill:none;stroke:#fff;stroke-miterlimit:10;stroke-width:.3px}</style></defs><path d="M0 0h192v240H0z" style="stroke-width:0"/><path d="M8.2 225c5.6-2 8.9-8.1 14.8-9.5 3-.7 5.9.4 8.8.7q4.6.1 8.7-2c2.7-1.3 5.2-3.2 7.9-4.5 2.7-1.5 5.8-1 8.7-.5q4.4.8 8.8 1.2c9.5.3 13.2 3.7 21 8.4 2.6 1.5 5.5 3 8.7 3.1q4 0 7.8.5c3.4.6 6.5 2 9.6 3.2 4.1 2 8.6 3.4 13.2 2.4 2-.4 4-1.3 6-1.7 5.4-1 10.5 2 15.8 2 2.4 0 4.7-1.1 7-1.5 4.6-.8 9.3.2 14 .3 5 0 10-1.8 14.8-3.4" class="b"/><path d="M8.2 223c5.7-2.7 10-8.6 16.6-9.1 2.3-.2 4.7.4 7 .5q4.6-.1 8.7-2.3c9.1-5.2 8-6.8 19.2-6.2q5.3 0 10.5.5c7.4 1.1 13.5 5.7 20.1 8.6 3.3 1.6 7 1.4 10.5 1.7q5.1.4 9.6 2.8c5.6 2.5 10 6.4 16.6 5 2.3-.5 4.7-1.5 7-1.4 5.4.2 10.3 3.4 15.8 2.6 2.8-.6 5.7-1.9 8.7-2 3.2-.2 6.4.5 9.6 1 5.5.8 10.9-1.3 15.7-3.5" class="b"/><path d="m8.2 219.3 7-4.4a23 23 0 0 1 8.7-3.9c2.9-.5 5.9.2 8.7 0q4.5-.2 8.8-2.3c7.8-4.4 7.9-6 17.5-6.6q5.2-.5 10.5-.2c5.7.8 11.2 3 16.6 5.4 3.3 1.4 6.7 3.1 10.4 3.2 9.2 0 13.8 2.8 21 8 9.2 6 11.8-.4 21 2.4 3.7 1 7.5 2.4 11.4 1.8q2.6-.6 5.2-1.5 3.4-1 7-.8c2.6.3 5.2 1.2 7.9 1.5 4.8.4 9.6-.9 14-2.9" class="b"/><path d="M8.2 214.5q4.5-3.3 9.6-5.6c9-4.6 14 1 23.6-3.7 2.7-1.3 5.2-3.2 7.9-4.7q2.8-1.5 6-2.1a53 53 0 0 1 14-1c6 .7 12 2.7 17.5 5 3.1 1.2 6.3 2.6 9.6 2.4 6.2-.3 10.6.3 15.8 4 4.7 3.6 9.1 8.7 15.7 7.8 2.6-.4 5.3-.7 7.9 0 5.4 1.4 11 4.4 16.6 2.3 2.5-.8 5.1-1.7 7.8-1.7 3.3-.2 6.5 1 9.6 1.4q7.2.4 14-2" class="b"/><path d="M8.2 209.6q2.8-2.2 6-3.6 3.4-1.7 7-2.8c3.2-.7 6.5-.2 9.7.3 5.4.8 10.7-1 14.9-4.5 7.1-5.7 12-6.3 21-5.9q6.6.4 13 2c3.9 1.1 7.6 2.8 11.4 4 2.8 1 5.9.4 8.7.2q3.6-.4 7 .9c6.7 2.2 10.5 9.6 17.5 11.2 2.6.6 5.3.1 7.9.5 6.3 1 11.7 5.8 18.3 5.2 3.8-.6 7.5-2.4 11.4-2.4 2.6 0 5.3.6 7.9.7 4.6-.2 9.5-.2 14-1.6" class="b"/><path d="M8.2 205.3q2.8-2 6-3.2 3-1.3 6.2-2.4c8.5-2.4 15.1 4 23.6-2.1 2.7-2 5.1-4.3 7.9-6 6-3.9 13.4-1.3 20-1.3 3.3 0 6.6-.1 9.7.6 3.5.7 7 2 10.5 3 2.5.5 5.3.1 7.9.1q3.6 0 7 1.3c6.2 2.5 10.1 8.9 16.5 11.2q3.5 1 7 1.3 3.2.8 6.2 2.1c4.9 2.3 10 5.5 15.7 4.8 3.5-.6 6.9-2.1 10.5-2.3 3.7-.2 7.6 0 11.3-.4a37 37 0 0 0 9.6-1" class="b"/><path d="M8.2 201.8c2.1-1.4 4.6-2 7-3s5-2.2 7.8-2.5c6.4-.7 13 4 19.3.7 3-1.5 5.3-4.1 7.8-6.3 5.3-5 10.9-4 17.5-3.4 5 .5 9.9-1.5 14.9-.7 3.5.5 7 2 10.5 2.6 3.1.3 6.4 0 9.6.5 7.7 1.1 12.5 7.9 19.2 11.2 3 1.5 6.5 1.9 9.6 3 7.1 2.9 13.8 8 21.9 7.9 4-.5 8-2.1 12.2-2 6.1-.5 12.4 0 18.4-1.7" class="b"/><path d="M8.2 198.7q3-1.3 6-2.2c2.6-.9 5.2-2 8-2.3 7-1 14.2 5.4 21 1.5 3.2-2 5.7-5.1 8.7-7.6 5.3-4.6 12.7-2.9 19.2-3.7 8.4-2 10-2.5 18.4.4 3.6 1.2 7.5.7 11.3.9 7.9.2 12.7 5.5 19.2 9 3.3 1.7 7.1 2.3 10.5 3.8 5 2.4 9.7 5.4 14.9 7.3 9 3.3 9.7 1.7 18.3 1.3 6.8 0 13.8.6 20.1-2.3" class="b"/><path d="M8.2 194.8q3-1 6-1.7 3.5-1.2 7-1.5c8-.5 16.4 8.3 23.7 2 2.1-1.7 4-3.9 6.1-5.7 4.4-4.4 10.7-5.4 16.6-6.3 8.1-1.2 10.9-4 19.2-.3q4.5 2.3 9.7 1.7c9.7-1.6 11.7-.9 20 4 4.4 2.6 9.5 3.3 14 5.3 6 3.3 11.8 7.3 18.4 9.5q2.5 1 5.2 1.5c2.9.4 5.9.3 8.8.7 7.9 1.2 13.7 1.5 21-2.7" class="b"/><path d="M8.2 190.4q3-.8 6-1.1 3.6-.8 7-.8c4.7.1 8.9 2.5 13.2 4 3.6 1.4 7.4 1.4 10.5-1.1 4-3.2 7.4-7.6 12.2-9.7q6-2.5 12.3-3.7c2.5-.5 5.2-1.4 7.8-1.3 5.4 0 9.7 4.2 14.9 4.8 3.3.1 6.5-1.5 9.6-2.3 7.8-2.4 11.4 2 18.4 4 3 1 6.5 1 9.6 2.2 2.7 1 5.3 2.8 7.8 4.3 4.5 2.7 9 5.3 14 7 4 1.5 8.3 2 12.3 3.4a21 21 0 0 0 20-2.3" class="b"/><path d="M8.2 186.3c2.3-.5 4.7-.3 7-.4 2.6 0 5.2-.3 7.8 0 3.6.2 7.2 1.4 10.5 2.7 5 2.2 8.9 2.4 13.1-1.4 6.3-5.7 9.8-9 18.4-11.1l6.1-1.3q3.5-1 7-.1c4.8 1 8.8 5.3 14 5.1 3.7-.5 6.9-2.9 10.5-4 7.1-2.4 12.2 2.7 19.2 3.2 2.9.3 6 .1 8.7 1 7.3 3.1 13.7 8 21 11 3.5 1.4 7.1 2.4 10.5 3.9 8 4 14 4.2 21.9-.4" class="b"/><path d="M8.2 182.2c2.9-.3 5.8.8 8.7.8 4 .2 8.2-.2 12.3.6 7.4 1.6 11 6.1 18.3.1 6.3-5.5 10.7-9 19.2-10.3l7-.9q2.7.1 5.3 1.1c4.6 2 9.6 6 14.8 3.4 3-1.3 5.7-3.2 8.8-4 6.5-2 12.7 2.5 19.2 2.8 2.6.2 5.3-.1 7.8.3 2.8.5 5.4 2 8 3 4.4 2.2 8.5 5.2 13 7.3 4 1.7 8.3 2.7 12.3 4.4a22 22 0 0 0 21 .2" class="b"/><path d="M8.2 178c3.3.2 6.3 1.8 9.6 2 4 .5 8.2-.3 12.2.3 7.7 1.7 10.7 6.3 18.4.2 6.1-5.2 10.8-8.5 19.2-8.9q2.7 0 5.2-.4c3.8-.1 7.2 1.8 10.5 3 8.6 4 11.8-2.4 19.3-4.2 2.6-.6 5.3 0 7.8.6 3.6.6 7 2 10.5 2.7 2.9.4 5.9.2 8.8.5A51 51 0 0 1 147 182q3 2 6.2 2.8c2.8.8 5.8 1.1 8.7 2 7 2.2 14.9 4 21.9.7" class="b"/><path d="M8.2 173.6c3.3.4 6.3 2.1 9.6 2.7 4 .8 8.2.5 12.2 1.1 8.1 2 11 6.9 19.3.4 4.8-4.1 10-7.5 16.6-8q2.6 0 5.2-.2 2.2-.2 4.4.1c3.8.8 7.4 3 11.3 3.5 6.4.7 10.7-5.4 16.6-6.2 3.2-.5 6.5.6 9.6 1 3 .6 5.8 2 8.8 2.6 2.8.6 5.9.7 8.7 1.2a46 46 0 0 1 15.8 7.5c6.4 4.5 9.5 3 16.5 3.9 7 1 14.3 3.3 21 .2" class="b"/><path d="M8.2 170.1c3.8.8 7.5 2.2 11.3 3 3.8 1 7.7 1.5 11.4 2.4 8.8 2.9 11.7 5.6 20-.6a37 37 0 0 1 18.4-7q3.6-.7 7-.1c3.9.5 7.5 2.4 11.4 2.6 6 .1 10.7-5 16.6-5.5q3-.4 6.1-.1 2.2 0 4.4.3 4.8 1.4 9.6 3c3.2 1 6.5 1.4 9.6 2.5 4 1.5 7.7 4 11.4 6.2 7.6 4.8 10.4 2.3 18.3 2.4 6.7.4 13.6 1.8 20.1-.6" class="b"/><path d="M8.2 167.5c2.8.7 5.9.9 8.7 1.6 7.6 2 15 4.5 22.7 5.8 6.1 1 10.5-1.9 15.8-4.2 7.7-3 15.9-6.8 24.4-5.1 3.5.5 7 2 10.5 1.6 2.7-.3 5.3-1.3 7.9-2q4.3-1.3 8.7-2l6.1-1.2c4.6-.5 9 1.6 13.2 3.2 2.8 1.3 5.9 1.9 8.7 3.1q4.9 2.5 9.6 5.2c6.6 3.7 10.6 2 17.5 1.3q5.6 0 11.3-.3 5.3-.4 10.5-1.2" class="b"/><path d="M8.2 164.8c2.5.5 5.3 0 7.8.4 4 .5 7.7 1.8 11.4 3a42 42 0 0 0 11.4 1.6q4.7.3 9.6-.2 3-.6 6-1.4 3.6-.7 7-1.8 4-1.6 8-3 5.5-1.6 11.3-1c3 .4 5.8 1.7 8.7 2 2 .1 4.2-.3 6.2-.4q4.9-.2 9.6-1.7 4-1.5 7.8-3.3c4.4-1.6 9.2-.1 13.2 1.9 3 1.7 6.5 2.4 9.6 4 4 2 7.8 4.7 12.2 5.5 3.5.6 7-.2 10.5-.3 3.2-.2 6.4.2 9.6 0 5.3-.4 10.4-2.3 15.7-2" class="b"/><path d="M8.2 161.5c2.6.3 5.2-.6 7.8-.4 4.8.1 9.4 2.2 14 3 2.9.7 5.9.2 8.8 0q3.9-.1 7.8.2 3.5.2 7-.1 4 .1 7.9-.5c2.7-.6 5.3-1.8 7.9-2.7q2.5-.7 5.2-1c5.8-1.3 8.7.4 14 2q2.6.6 5.2.5c2.6 0 5.3.1 7.9-.6 3.9-1 7.1-3.6 10.5-5.7 6-3.8 10.7-2 16.6 1 2.2 1 4.8 1.5 7 2.7 3.8 2 7.8 4.5 12.2 4.7 3 0 5.9-.8 8.8-.4 3.5.2 7 1.3 10.5 1.5 3 .1 5.9-1 8.7-2q3.9-1.1 7.9-.6" class="b"/><path d="M8.2 157.3c2 .1 4-.3 6-.4q2.8 0 5.3.5c5.2 1 10.3 3.8 15.8 2.8q3-.5 6-.6 3.6 0 7 .5c2.4.3 4.8 0 7 .5 5.5 1.1 8.9.4 14-1.2 4.3-1 8.9-1.9 13.2-.6 2.6.7 5.1 2 7.8 2.4q2.7.1 5.3 0c5.8 0 10.5-3.7 14.8-7.2 6.7-5.1 11-4.8 18.4-1.5 2 .8 4.2 1.1 6 2 4.3 2 8.5 4.5 13.2 4.5q2.6-.2 5.2-.6 2.7 0 5.3.6c2.9.7 5.7 2 8.7 2.4 2.7.3 5.4-.7 7.9-1.7 2.7-1 5.8-1.8 8.7-1.4" class="b"/><path d="M8.2 153.4c3.2.4 6.5-.3 9.6.6 7.3 1.8 11.2 5.3 19.2 3.6 4.4-.8 8.8-.2 13.1.2q2.2 0 4.4.2 3.5.6 7 1 4 0 7.9-.5l7.8-.3c3.9-.3 7.6.9 11.4 1.3q2.6.2 5.2-.3 2.7-.3 5.3-1c4-1.3 7.2-4 10.5-6.5 6.7-5.4 11.1-5.7 19.2-3 2.3.6 4.8.7 7 1.6 4 1.6 7.9 3.7 12.2 4q2.6.2 5.3-.3 2.2 0 4.3.3c3.6.6 7 2.3 10.5 2.6 2.7.2 5.4-.8 7.9-1.6q3.8-1.3 7.8-1.1" class="b"/><path d="M8.2 150.2c3.1.8 6.5.3 9.6 1.5 5.4 1.8 10.6 6 16.6 4.9 5.2-.8 10.5-.6 15.7-.2q6-.3 12.3.2c4 .2 8.1 1.3 12.2 1.8q6.5.5 13.1-.5 5.8-1.2 11.4-2.7c12.4-4.5 13-13.1 28.8-9.6 2.9.5 6 .1 8.8 1 4.6 1.3 9 3.7 14 3.8q4.8-.6 9.5.1c3 .4 5.8 1.5 8.8 1.5 5 .2 9.8-2 14.8-1.6" class="b"/><path d="M8.2 147.5q3 1 6 1.3 2.3.6 4.5 1.6c5 2.3 9.9 6.3 15.7 5.1 5.5-.7 11-.3 16.6-.5 4-.5 8.1-1.8 12.2-1.2 8.8 1.5 11.5 7 21.9 3.5 2.7-1 5.2-2.5 7.9-3.5 3.8-1.2 7.8-2 11.3-4 8-4.2 10.2-8 20.1-6.6q3 .4 6.1.3 3.1-.4 6.2-.3c4.2.4 8.1 2 12.2 3 2 .4 4.1.1 6.1 0q4-.2 7.9 0 4.7.9 9.6 1c3.8-.1 7.6-.7 11.4-.7" class="b"/><path d="M8.2 144.7c2.7 1.4 6 1.5 8.7 3 4.2 1.9 7.8 5 12.3 6.3 2 .6 4 .2 6 0l7-.5c3.5-.3 7.1-.2 10.5-1 6.1-2 9.8-3.6 15.8 0 3 1.8 6 4.1 9.6 4.6 6 1 10.5-4.2 15.7-6.2 4.1-1.6 8.4-2.9 12.3-5 3.4-1.8 6.5-4.6 10.5-5s8.1 1 12.2.7c2 0 4.1-.7 6.1-1q3.5-.7 7-.3c3.2.4 6.4 1.7 9.6 1.9 3.5 0 7-.7 10.5-.6 3.8.2 7.6.9 11.4 1q5.2.1 10.5-.5" class="b"/><path d="M8.2 141.4c3.1 1.5 6.6 2.1 9.6 4 4.2 2.4 8.2 6 13 6.6q3.2 0 6.2-.5l9.6-1.4q3.1-.4 6.1-1c2-.5 4.1-1.4 6.2-1.8 6-1.5 10.7 3.5 15.7 6.1 7.3 4 11.4.2 17.5-3.5 3.1-1.8 6.5-3.2 9.6-5q4.8-2.9 9.6-5.8c5.7-3.6 12.2.6 18.3-.2 4.1-.8 8-2.7 12.3-2.6 3.5-.1 7 1.1 10.5 1 2.9 0 5.8-.4 8.7-.3 3 .1 5.9.8 8.8 1.2 4.6.8 9.3 0 14-.8" class="b"/><path d="M8.2 138.3q4.9 2.2 9.6 4.8c3.7 2 7.3 4.4 11.3 5.6 5.9 1.4 12-.4 17.5-2.2l6.1-1.4q3-.9 6.2-1c4.9 0 9 3.1 13 5.4 4 2 8.8 3.7 13.2 2a77 77 0 0 0 19.2-12.2c9.2-7.3 10.3-5.7 21-3.8 6.1.9 11.5-3.3 17.5-3.5 2.9-.3 5.8.3 8.7.4 3.5 0 7-.5 10.5-.1 3.8.4 7.6 1.5 11.4 1.7 3.5.2 7-.5 10.5-1" class="b"/><path d="M8.2 135.4c3 1.4 5.7 3.7 8.7 5.2a51 51 0 0 0 18.4 6.4c10.5.3 14.2-9.4 27-4.4 4.2 1.5 7.9 4.2 12.3 5 4.3.8 9 .6 13.1-1q5.4-1.7 9.6-5.4c4.6-3.6 9.6-10.5 15.7-10.8 3.3 0 6.5 1.3 9.7 1.7 3.8.8 7.7-.2 11.3-1.5 4-1.4 8-2.8 12.2-2.6 2 0 4.2.4 6.2.3q3.9-.2 7.8-.5c4.4 0 8.8 1.2 13.1 1.7 3.5.3 7-.2 10.5-.5" class="b"/><path d="M8.2 132.3c2.8 1.5 5 4 7.8 5.6q5.1 2.8 10.5 4.3c4.3 1.3 8.6 4.1 13.1 2.9 5.8-1.6 10-8 16.7-6.7 5.3.9 10.2 3.9 15.7 4.6q3.5.1 7-.5c16-2.2 13.7-2 25.3-12.3 7-5.9 10-2 17.5-.8 4.2.6 8.3-1 12.2-2 3.4-1.2 7-2.5 10.5-2.5 3.8 0 7.6.8 11.4 0q3.4-.7 7-.8 4.8 0 9.6 1c3.7.6 7.6.2 11.3 0" class="b"/><path d="M8.2 128.6c3.2 1.8 5.5 5 8.7 6.8 4.4 2.6 9.5 3.9 14 6.2 3.3 1.9 6.8 3.4 10.5 1.6 4.5-2.2 7.7-7.3 13-7.5 2.7 0 5.4.7 8 1.1q4.7 1 9.6.7c3.3-.3 6.3-1.8 9.6-2.4 3.4-.7 7-.6 10.5-1.3 6.5-2.1 10.4-9.4 17.5-10.3 2.7-.2 5.3 1.3 7.8 2 6.2 2.3 9.2.3 14.9-1 4.5-1.2 9.2-2.9 14-2.4 2.5.2 5.2.9 7.8.4 3.5-.5 7-1.8 10.5-1.8 3.2-.2 6.5.7 9.6 1 3.2.3 6.5-.1 9.6-.3" class="b"/><path d="M8.2 124.1c3.5 2.1 6 5.6 9.6 7.6q5.1 2.9 10.5 5.5c2.3 1.2 4.5 2.8 7 3.7 3.8 1.5 7.7-.8 10.5-3.4 4.5-4 7-5.3 13-5.6q6.6-.6 13.2-1.5c2.3-.3 4.6-1.3 7-1.9 4-1 8.1-.3 12.2-.7 6.2-1 10.4-7 16.6-8.2 7-1.2 10.4 5.4 20.1 2.4 2.2-.8 4.7-1.1 7-1.7q6.4-2 13.1-1 3 .6 6.1.3c3.5-.5 7-1.8 10.5-1.8 3-.1 5.9.6 8.8 1.1 3.5.4 7-.6 10.5-1.2" class="b"/><path d="M8.2 119.3c3 1.5 5.2 4.3 7.8 6.2a86 86 0 0 0 9.6 6l6.2 3.4c2.6 1.5 5.6 3 8.7 2.1 3.8-1 6.5-4.3 9.6-6.6 3.4-2.4 7.5-3.9 11.4-5.4q5.5-2.1 11.3-2.4c2.6-.3 5.3-1 8-.9 3.7 0 7.5 1.3 11.3.8 5.8-1.2 10-6.1 15.7-7.7 6.6-1.8 11.2 4.3 21.9 2.1 4.9-.5 9.8-1.6 14.8-1 2.6.1 5.2 1 7.9 1 3.2 0 6.4-1 9.6-1.4 10.1-.8 10.3 3.8 21.8-.5" class="b"/><path d="M8.2 115c2.9 1.5 5.2 4 7.8 6q5.1 3.5 10.5 6.3l6.2 3c2.1 1.1 4.5 2.3 7 2.2 4.2-.2 7.3-3.9 10.4-6.4 3.7-2.8 7.4-5.8 11.4-8q5-2.6 10.5-2 4 0 7.9.3c4.6.4 9.3 2.2 14 1 6-1.5 10.5-6.7 16.5-8 5-.5 10 1.3 14.9 2.2 4.3.7 8.8.4 13.1.4 4.7-.2 9.3 1.2 14 1.6 3.2 0 6.4-.9 9.6-1 9-.8 12.5 4.6 21.9.6" class="b"/><path d="M8.2 111.7c2.5 1.3 4.6 3.4 7 5q3.7 2.6 7.8 4.5 4.9 2 9.6 3.8c2.3 1 4.6 2.3 7 2.4 4.4.2 7.6-3.4 10.5-6 3.6-3 6.7-6.6 10.5-9.1 4.3-2.7 7.7-1.7 12.3-.7q5.6.8 11.3 1.2 5.8.7 11.4-.4 4.2-1.2 7.8-3.6c3-1.8 6-4.2 9.7-4.5q4.3-.4 8.7.6 3 1 6.1 2 4.7 1.3 9.6 1.3 4.5.1 8.8.7c2.3.3 4.6.9 7 .9 4-.1 8-1.4 12.2-1 6.4.5 11.8 5.3 18.3 2.7" class="b"/><path d="M8.2 109c2.3 1.5 4.6 3.4 7 4.8q4.5 2.6 9.6 4 4 1 7.8 2c2.3 1 4.6 2.3 7 2.5 4.3.4 7.6-3 10.5-5.8 3-2.6 5.7-5.7 8.8-8.1 7-5.4 10.9.6 18.3.5a86 86 0 0 0 14-1c2.9-.1 6 0 8.7-1 4.7-1.5 8.4-5.2 13.1-6.3 9.4-2.8 12.7 3.2 21 4 4.4.4 8.8 0 13.1.3 2.3.2 4.7.8 7 .7 2.6-.2 5.3-.8 7.9-1 10.5-1.2 14.3 6.5 21.8 4.9" class="b"/><path d="M8.2 106.4a32 32 0 0 0 17.5 7.5q3.5.5 7 1.3l4.3 1.5c4.8 1.7 8.9-1 12.2-4.2q3.6-3.1 7-6.4c6-5.4 9-4.5 15.8-1.6q3.9 1 7.8.3l11.4-2.1c2.3-.2 4.7.1 7 0 6-.1 10.9-4.2 16.6-5.4 6.2-1.6 9.4 1.4 14.8 3.4 6 2.2 12.3-.3 18.4.2 2.3 0 4.7.7 7 .4 4.3-.5 8.8-1.7 13.1-.5q2.8.6 5.2 2c3.2 1.8 6.7 4.2 10.5 3.5" class="b"/><path d="M8.2 104.7c6.6 5.5 15.5 5.1 23.6 5.5 2.9.2 5.8 1.2 8.7.8 3.3-.4 6.2-2.5 8.8-4.6q3-2.4 6-4.9c11-9.1 13.3 1 24.5-.9l7-1.4c2.3-.6 4.6-1.4 7-1.4 3.5 0 7.1 0 10.5-.8 6.8-1.8 12-5.5 19.2-2.1 7.7 4 11.1 3.1 19.3 2 3.7-.7 7.6 0 11.3 0 4-.3 8.3-1 12.3 0q3.6.8 7 2.4c3.2 1.7 6.7 3.8 10.5 3.2" class="b"/><path d="M8.2 102.6c5.7 3.8 17.7 3 24.4 2.2 2.6-.3 5.3-.2 8-.7 5.5-1.2 10.1-5 14.8-8.1 5.8-4.2 9.5-3.6 15.7-.7a29 29 0 0 0 15.7.9q3-1 6.1-2c4-.8 8.3-1 12.3-2 3.2-.6 6.3-2 9.6-2.5a17 17 0 0 1 7.9 1.5c2 .8 4 1.9 6 2.2 3 .6 6 .1 8.8-.3q4.9-.7 9.6-.7c6.1.5 12.4-.8 18.4.9q4 1.2 7.9 2.7c3.2 1.5 6.8 3.1 10.4 2.5" class="b"/><path d="M8.2 99.4c2.5 1 5.2.8 7.8.9 3.5 0 7 .3 10.5 0 2.7-.1 5.3-1 7.9-1.7s5.3-1 7.9-1.7q5-1.3 9.6-3.9c2.5-1.4 5-3.2 7.8-4 4-1.2 7.9.4 11.4 2 6.2 2.2 12.8 5.3 19.2 2q8-3.5 16.6-5.2c2.4-.4 4.7-1.4 7-1.7 4.7-.5 8.8 2.2 13.1 3.5 2.6.6 5.3 0 8-.5q4.6-.7 9.5-.4l6.1.3c4.1-.4 8.3-.8 12.3.2 3.8 1 7.6 2.5 11.3 3.7 3 1.1 6.4 2.2 9.7 1.8" class="b"/><path d="M8.2 95.5c2.6.3 5.2-.3 7.8-.3 3.8 0 7.6.7 11.4.3 2.8-.2 5.3-1.7 7.9-2.5 2.8-.9 5.8-1.2 8.7-1.7a27 27 0 0 0 7.9-2.5c3.7-2 7.7-4.7 12.2-4q3.2.6 6.1 2.1 2.6 1 5.3 2.2c4.6 2.4 9.8 4.6 14.8 2q5.6-2.9 11.4-5 3.9-1 7.9-1.8 2.2-.7 4.3-1.2c4.3-.3 8.3 1.8 12.3 2.9 3.2.8 6.4-.7 9.6-1 3.4-.5 7-.1 10.5.3q3.5.5 7 0A29 29 0 0 1 169 87q2.7.7 5.2 1.5c3.1 1 6.3 2.2 9.6 2.2" class="b"/><path d="M8.2 91.2c3.2 0 6.4-.8 9.6-.1 4.9.7 10.3 2 14.8-.7 5.1-2.8 11.2-2 16.7-3.6 4.9-1.7 9.2-6 14.8-5 2.5.3 4.8 1.5 7 2.6 3.3 1.2 6.3 3.2 9.6 4.3 4.2 1.4 7.6.4 11.4-1.5q5.4-2.5 11.3-3.6 3.1-.4 6.1-1.1c1.5-.3 3-1 4.4-1.3a22 22 0 0 1 7.9.4c2 .4 4 1.1 6.1 1 3.2 0 6.4-1.3 9.6-1.4 4.1-.3 8.2.6 12.3.7 2.9 0 5.8-1 8.7-1.2 4.7-.6 9.4.6 14 1.8 3.8 1.1 7.3 3.3 11.3 3.8" class="b"/><path d="M8.2 86.6q3 0 6 .2c3.7.7 7 2.5 10.6 3 5.3.7 7.7-2.4 12.2-3.9 4.2-1.5 8.9-1 13.1-2.3 3.9-1.4 7.2-4.3 11.4-4.8 3.7-.6 7.2 1.3 10.5 3 8.2 4 11.2 5.9 20 1.7 5-2 10.5-2.4 15.8-3 2.7-.3 5.2-1.6 7.9-2.2q3.4-.8 7-.8 2.6.3 5.2.4c3.5 0 7-.7 10.5-.7 5.5-.2 11.1 1.2 16.6 0q4.8-1 9.6-1.4 5 0 9.6 1.6c3.2 1.4 6.3 3.2 9.6 4" class="b"/><path d="M8.2 83c2.3.6 4.8.7 7 1.6 3 1.3 6.1 3.2 9.6 3.4 5.1.6 8.7-3.8 13-5.6 4-1.8 8.3-1.6 12.3-2.7 2.5-.7 4.7-2.3 7-3.3C70 69.6 75.8 86 88.6 80.9q5-2 10.5-2.7c3.4-.4 7-.2 10.4-1 2.8-.6 5.3-2.1 8-3q2.4-1.1 5.2-1.5 3.4-.1 7 .2 7.4.7 14.8.6c3.2 0 6.4.5 9.6.2 6.1-.7 12.2-3.2 18.4-1.6 3.9 1 7.5 3 11.3 4.2" class="b"/><path d="M8.2 81c2.2 1 4.7 1.6 7 2.7 3.7 1.9 8 3.8 12.2 1.9s7.4-5.5 11.4-7.6c4.5-3 10.2-2.3 14.8-5 8.9-5 12.6-5 21 .8 3 2 6.6 4.1 10.5 3.9q3-.3 6.1-1.4l5.2-1c4.4-.7 8.8-.5 13.1-1.4 5.3-1.2 9.4-5.7 15-5.8 4 0 8 1.7 12.1 2 4.4.6 8.8 0 13.2.3q4.3.7 8.7-.1c3.5-.6 7-1.9 10.5-1.9 5 0 9.9 2 14.9 2.8" class="b"/><path d="M8.2 79.8c2.4 1.6 5.2 2.5 7.8 3.6 5.6 2.5 9.7.9 14-3 4.4-3.5 8.5-8 14-10 2.3-.7 4.8-1.1 7-2 4.3-1.7 8.3-5 13.1-5 7 .4 11.5 6.8 17.5 9.5 3 1.4 6.4 1 9.6.4l7-.9c5-.6 10.3-.2 14.8-2.6 2-1 4-2.4 6.2-3.4 3.6-2 7.6-1.6 11.3-.2a29 29 0 0 0 7.9 1.9q4.4.1 8.7 0c3.5 0 7 1.1 10.5.5 3.9-.5 7.5-2.2 11.4-2.5q3-.1 6.1.2l8.7.3" class="b"/><path d="M8.2 78.2q2.8 2 6 2.9c2.9 1 6 1.3 8.8 0 3-1.3 5.5-3.7 7.9-5.9 3.1-2.7 6.2-5.7 9.6-8 3.1-2.1 7-2.7 10.5-4.2 3.7-1.6 7.2-4 11.4-4.3 7.8-.5 13 6.6 19.2 10.1 3.2 1.8 7 1.8 10.5 1.8q4.4 0 8.7-.4c3.2-.3 6.5-.5 9.6-1.4 3.7-1.1 6.9-3.5 10.5-4.5 4.1-1.4 8.3.3 12.3 1.4q3.8.9 7.8.7c2.6 0 5.3-.3 7.9 0 2.9.3 5.8 1 8.7.5 3.6-.5 7-2.1 10.5-2.8 2.3-.4 4.7-.2 7-.4l8.8-.7" class="b"/><path d="M8.2 75.9c8.9 5.8 15 1.9 21.8-4.5q5.5-4.6 11.4-8.8c2.4-1.7 5.2-2.6 7.9-3.7 9.7-4.7 15-5 24.4.8 2.9 1.7 5.7 3.7 8.8 5q5.1 2 10.4 3.2c7.7 1.2 15.5-1 22.8-3.2a29 29 0 0 1 16.6-.5c4.6.7 9.3-.5 14-.4 3.5 0 7 1.5 10.4 1 4-.3 7.6-2.1 11.4-2.8 2.3-.5 4.7-.3 7-.5l8.7-1.1" class="b"/><path d="M8.2 72.7c7.3 5 14 .4 20-4.2 2.9-2.1 6-3.8 8.8-6q3-2.4 6.1-4.4 3.8-2.3 7.9-4c3.5-1.7 7.6-1.6 11.4-.9 4.2.7 8.2 2.4 12.2 4q7.2 2.6 14 5.9c2.4 1.3 5 2.8 7.9 3 4.1.5 8.2-.9 12.2-1.8q3.8-1 7.9-1.2c4-.3 8.1-1 12.2-1.2l5.2-.1q3.6-.6 7-1 4-.4 7.9.3c2.8.8 5.8 1.4 8.7.8 3.6-.6 7-2.2 10.5-2.7 2.3-.4 4.7 0 7-.2q4.5-.4 8.8-1.1" class="b"/><path d="M8.2 68.9a11 11 0 0 0 9.6 1c5.2-1.9 9.7-5.5 14.8-7.7 5.4-2.5 9.6-6.8 14.9-9.5 2.4-1.4 5-2.6 7.9-2.4q4.4.6 8.7 1.7 5 .8 9.6 2.4c3.2.6 6.6 1 9.6 2.5 5.3 1.9 9 7.5 14.9 7.5 3.9.1 7.6-1.5 11.3-2.3 2.6-.6 5.3-.2 8-.3 3.8-.1 7.6-1.5 11.3-2.6q3.9-.9 7.8-1.6 5.3-1.3 10.5 0c2 .5 4 1.4 6.2 1.6 4.9.3 9.3-2.4 14-3.3 2.5-.5 5.2 0 7.8 0q4.4-.1 8.7-.8" class="b"/><path d="M8.2 65.1c6 2.8 10.3.1 15.7-2.5q3-1.6 6.1-2.8 2.7-.9 5.3-2c5.6-3 10.3-7.8 16.6-9.5 2.9-.5 5.9.6 8.7 1.1q4.4.8 8.7 1.1 3.5.9 7 1.2c13.7 1.2 13.8 13.5 27.1 10 2.6-.6 5.2-1.5 7.9-1.6 2.6 0 5.3.3 7.9-.2 5.2-1.2 9.5-5.1 14.8-5.8 7.4-2 10.7-.4 17.5 1.9 5.6 1.3 10.5-2.9 15.7-4 2.6-.5 5.3.2 7.9.2q4.5 0 8.7-.9" class="b"/><path d="M8.2 61.4c6.9 2.2 11.3-1.1 17.5-3.6a64 64 0 0 1 7.8-2.7q2.7-1 5.3-2.7c4.6-2.8 10-7.5 15.7-6.6 3.4.5 7 1.2 10.5 1.1q2.6 0 5.2.3l7 1.4c12.4 3.3 13.2 14.4 28 10.5q3-.8 6.1-1.2c3 0 6 0 8.7-1 3.4-1.1 6.4-3.3 9.6-4.8q2.6-1 5.3-1.4 5.3-1.1 10.5.8c2.3.7 4.6 2 7 2.2 5.4.4 9.8-3.7 14.8-5.2 2.6-.8 5.3-.3 7.9-.3 2.9 0 5.9-.6 8.7-1" class="b"/><path d="M8.2 57.2c7.5 1 11.5-1.5 18.3-3.7 2.6-.9 5.3-1.2 7.9-2C39 49.7 42.9 46 47.5 44c3.4-1.7 7-.7 10.5-.2 3.2.4 6.4 0 9.6-.2 6.8-.1 13 3.5 18.4 7.2 6 4.8 11.5 6.8 19.2 5.2q3.4-.9 7-1.4 4.5-.4 8.7-1.7c6-2 11.8-5.7 18.4-5.2 3.6.2 7 1.7 10.4 2.7q3.6 1 7-.3c3.1-1 6-2.8 8.8-4.3 2.9-1.7 6.3-2 9.6-2.1l8.7-.4" class="b"/><path d="M8.2 52.5q3.5 0 7-.4c4.4-.8 8.6-2.6 13-3.4 2-.5 4.2-.5 6.2-1 4.7-1.4 8.5-4.8 13.1-6.3 3.5-1.4 7 .2 10.5.5 3.5.5 7-.2 10.5-.3 6.8.1 12.4 4.7 18.3 7.4a27 27 0 0 0 7.9 2.7q5.2 1.3 10.5.7c3-.4 5.8-1.4 8.7-2.1q6.6-1.2 13.1-2.8c10.2-3 11.5-3 21.9-.4 3.8.8 7.8-.1 11.4-1.5C170 40.9 172 39 183.8 40" class="b"/><path d="M8.2 47.5c2.6-.3 5.3-.2 7.8-.8 4.4-1 8.7-2.6 13.2-3 2.2-.4 4.7 0 7-.8 4-1.1 7.9-3.6 12.2-4 2-.4 4.1.3 6.1.9q3 .9 6.1 1c4.4.3 9-.8 13.1.7 3.2 1 6.4 2.5 9.6 3.4q5.2 1.4 10.5 1.7c4.3.8 8.7 2.2 13.1 1.5 3.3-.5 6.4-2.2 9.6-2.7 4-.7 8.2-.7 12.3-1.3 2.6-.4 5.2-1.5 7.9-1.7 4.6-.6 9.3.7 14 .9 4.3-.3 8.9-.4 13-2 8.2-3.2 10.8-5.7 20.2-4" class="b"/><path d="M8.2 42.5q4-.1 7.8-1c3.8-1 7.5-2.5 11.4-3 2.9-.6 5.9.2 8.7-.1 3.8-.3 7.6-1.5 11.4-1.6 4.6 0 8.6 2.7 13.1 3 2.9.4 5.9 0 8.7 0q3.7.2 7 1 4.4 1 8.8 1c2.9.1 5.8-.3 8.7 0 5.2.7 10.4 3.3 15.7 2 2.6-.8 5.2-2 8-2.3 4-.6 8.1-.5 12.2-1l4.3-1.2q3-.6 6.2-.7c4 0 8.1.9 12.2.4q4-.2 7.9 0 3-.2 6-1.2c7.6-2.6 8.8-4.5 17.6-3.3" class="b"/><path d="M8.2 37.4q4-.3 7.8-1.3c4-1.2 8-3 12.3-3.1 2.6-.2 5.2.6 7.9.8 3.7.3 7.6 0 11.3.3 4.6.6 8.6 3.4 13.1 4.4 3.7.8 7.6.2 11.4.2 6.7.6 13.4-.8 20-1.2 5.1-.1 9.9 2.5 15 2.6 2.9.2 5.8-.9 8.7-1.2 3.7-.5 7.6-.5 11.3-1.1 3-.3 5.9-1.5 8.8-2.1q5.2-1 10.5-.4h4.3q2.2-.2 4.4 0c3.5.2 7 .8 10.5.1 3-.4 5.9-1.7 8.7-2.7q4.7-1.4 9.7-1.4" class="b"/><path d="M8.2 32.5c7-1.1 13.7-5 21-4.4 2.3.1 4.6.8 7 1.1l10.4 1.3c4.4.7 8.3 3 12.3 4.8 3.8 2 8 2 12.2 1.5 7.9-.6 15.6-3.5 23.6-2.9 4.4.4 8.7 1.7 13.1 2.1 2.9.4 5.9 0 8.8.4 7.8 1 12-.8 19.2-3.1 4.8-1.5 9.9-1 14.8-1 5.3-.7 10.5 1.3 15.8.4 3-.3 5.8-1.5 8.7-2.3q4.3-1.3 8.7-2" class="b"/><path d="M8.2 28.1c12-4.3 14.2-5.7 27-3.2 4.4.6 8.9.8 13.2 1.8 3.7 1 7.1 3 10.5 4.9 7.6 4.7 15.6.7 23.6-.5 4.3-.7 8.7-.2 13-.2 5.4 0 10.6 1.2 15.8 2.3q3.6.8 7 1.9c5.8 1.7 11.3-1.5 16.6-3.4q6.4-2 13.1-1.6c2.3.2 4.7-.2 7 0 3.5 0 7 .4 10.5 0q4.5-.6 8.7-2l9.6-2" class="b"/><path d="M8.2 24.4A31 31 0 0 1 26.5 20q4.4.8 8.8 1.2c6.2.4 12.6.5 18.3 3.2 2.6 1.3 5.1 3.1 7.9 4.1 4 1.6 8.2.7 12.2-.2q4.7-1.2 9.6-1.2c3.2.1 6.4 1 9.6 1.2 3.8 0 7.7-.3 11.4.6q5 1.3 9.6 3.1c2.5 1 5.1 2.4 7.9 2.4 3 0 6-1.6 8.7-2.8a30 30 0 0 1 19.3-3q2.6-.1 5.2-.4 4.4-.1 8.7-1 5.3-1 10.5-2.2 4.9-.8 9.6-1.2" class="b"/><path d="M8.2 21C13.9 18 20 15.9 26.5 17q5.2 1 10.5 1.2c5 .3 10.1.7 14.9 2.5 4 1.4 7.8 4.3 12.2 4.4 2.7.2 5.3-.5 7.9-1q4.7-1 9.6-.6c3.6.4 7 1.8 10.5 2.4 3.7.5 7.6 0 11.3 1q5.3 1.6 10.5 3.8c3.3 1.4 7 2.7 10.5 1.1q3.6-1.6 7-3.6c6.2-3 10.9-2.9 17.5-1.8 3.8.3 7.6-.6 11.3-1.3 4.4-1 8.7-2.8 13.2-3.6q5.2-.6 10.5-.2" class="b"/><path d="M8.2 16.9c8.7-3.6 13.8-2.6 22.7-1.2 3.2.3 6.4.1 9.6.4q5.9.4 11.4 2.4c4.6 1.5 9 3 14 1.8a27 27 0 0 1 18.3 1.4c3.1 1 6.3 2.5 9.6 2.7 3.8.2 7.7.2 11.4 1.5 4.3 1.4 8.5 3.6 13 4.2q3.9.2 7-1.7c9-5.5 12.5-5.6 22.8-4.2 3.8.5 7.7-.8 11.3-1.9 4.7-1.5 9.1-3.8 14-4.4 3.5-.5 7 .1 10.5.5" class="b"/><path d="M8.2 12.6c7.2-2.4 13.8.9 21 1.5 3.4.3 7-.4 10.4-.4q5.9 0 11.4 1.8c7.3 2.3 11.5-.2 18.4-1.2 4-.4 7.8 2 11.3 3.8 3.8 2 7.9 4 12.2 4.5 3.2.2 6.5-.2 9.7.4 6.3 1.3 12.5 6 19.2 3.5 2.4-.8 4.7-2.3 7-3.4 5.4-2.9 11.6-1.2 17.5-1.2q5.9 0 11.3-2.4c4.9-2 9.6-4.7 14.9-5.3 3.8-.5 7.6.3 11.3.8" class="b"/></svg>