<svg xmlns="http://www.w3.org/2000/svg" id="a" width="1920" height="2400" viewBox="0 0 192 240"><defs><style>.b{fill:none;stroke:#fff;stroke-miterlimit:10;stroke-width:.3px}</style></defs><path d="M0 0h192v240H0z" style="stroke-width:0"/><path d="M13.5 230.4c1.7-.1 3.3-.8 5-1.1 2.3-.6 4.9-.7 7.3-1.1 3-.6 6.1-.2 9-.7 1.9-.5 3.4-1.8 5-2.7q2.6-1.5 5.7-2c2.6 0 5 1.5 7.4 2.1q4.1 1 8.2.5c5.2-.4 10.4-1.5 15.6-.7q2.8 2.4 5.8 4.5 3.6 2.7 8.2 2c2.1-.6 3.8-2.2 5.7-3.3 3.5-2 7.6-2.5 11.5-3.1 1.9-.4 4 0 5.7-1.2 1.8-1 3.7-2 5.8-2.1 2 0 4 0 5.7-1.2 1.5-1 2.7-2.7 4.1-3.7 2.6-1.1 4.1 2.4 5 4.3 1.3-3.3 2.7-8 7.3-6.7 2.5 1.3 4.7 3.4 7.4 4.4q2.8 1 5.7 1.6 4 1.9 8.3 3c5 1.3 10.4 1.2 15.5 1.1" class="b"/><path d="M13.5 227.8q3.8-.8 7.4-1.4 4.1-.3 8.2-.6c7.5.1 6-.1 12.3-3.3 2.4-1 4-1.6 6.6-.8q3.6 1.4 7.4 1.9c6.6.4 13.1-1.5 19.7-1 4.8 3.7 10 8.7 16.4 5.8 2.4-1.1 4.7-2.7 7.4-3.3 3.8-1 7.7-1.3 11.5-2.3q2.2-.7 4-1.9c2.3-1.2 5-1 7.5-.9 4.8-.1 6.7-9.3 10.6-1.2l.9.4c1-3.6 2.9-7.8 7.3-6.2q2.1 1 4.1 2.3 3.6 2 7.4 3.1c8.1 4.1 17.4 4.1 26.3 3.9" class="b"/><path d="M13.5 225.2c3-.3 6-1.2 9-1.4 2.2-.2 4.5.1 6.6 0q2.9.1 5.8 0c1.7-.3 3.4-1.3 4.9-2.1q2.4-1.2 4.9-2c3.6 0 7 2 10.7 2 6 .1 12-1.4 18-1.2 5 3.2 9.2 7.8 15.6 6.2 2.3-.5 4.4-1.7 6.6-2.4 3.4-1 7.1-1.4 10.7-2.1a36 36 0 0 0 6.5-2.6c5.2-2.8 8.2.7 11.5-1.9 1.3-1 2.4-2.7 4.1-3 1.7.2 2.6 2.2 3.3 3.6.7-.5 1.4-2.3 1.6-3.1 1.4-2.7 3.5-4.3 6.6-3.4 2.8 1 5.4 2.8 8.2 4a26 26 0 0 0 9.9 3.7q4.8.7 9.8.6 5.3.3 10.7 0" class="b"/><path d="M13.5 222.5c3.9 0 7.7-1.4 11.5-1.2 3.5.3 7.2.8 10.7.3 1.7-.3 3.3-1.3 4.9-2 5.1-2.2 5.5-1.3 10.7-.3 3.2.8 6.6.5 9.8.1q5-.6 9.9-1a3 3 0 0 1 1.6.7l2.5 1.6c3 1.9 6.2 3.9 9.8 4 3.1-.1 6.1-1.1 9-1.9l7.4-1.2c4.4-.6 8.1-3.2 12.3-4.3q2.5-.6 5 0c1.6.2 3.4.5 4.9-.5 1.4-.8 2.5-2.5 4-2.9 1.7.2 2.7 2 3.4 3.4.6-.6 1.3-2.3 1.6-3.1a7 7 0 0 1 3.3-3.3c4.4-1.3 8.6 1.9 12.3 4q3.8 2.3 8.2 3 6.2.8 12.3 0h9.9" class="b"/><path d="M13.5 220c4.4.2 8.8-1.6 13.2-.9 3.2.6 6.6 1 9.8.3 2.5-.7 4.9-1.8 7.4-2.5 1.8-.7 3.9 0 5.7.3q3.7.8 7.4.6l7.4-.8q1.7-.3 3.3-.3l2.4.5 1.7 1c9.6 5.3 12 4 22.1 2.6q5.2-.3 9.9-1.9c4.5-2 8.8-4 14-2.8 1.5.2 3.4.6 4.9-.2 3.3-2 4.4-4.7 7.4 0l.8-.5c1.4-4.9 5-6.6 9.8-5.6 2.7.9 5 2.6 7.4 3.9q5.4 2.7 11.5 4c6.3 1 12.6-1.7 18.9-1.8" class="b"/><path d="M13.5 217.5c3.9.3 7.7-.9 11.5-.8 2.2 0 4.4.6 6.6.9q3.3.2 6.5-.7c9.4-2.9 6.5-1.8 15.6-1q3.8 0 7.4-.5c1.6-.1 3.4-.7 5-.3 2 .2 3.8 1.4 5.7 2.1a29 29 0 0 0 7.4 2c4.3.5 8.7-.9 13.1-.5q5 .2 9.9-1.4 3.2-1.2 6.5-2.2 4.6-.8 9 .1c5.3 1 5.7-2.5 9-2.6 1.3.2 2.2 1.5 3.4 1.6 1-2.7 2.1-4 4.9-5 2.3-.7 5-1.2 7.4-.1 5.8 3 11.5 6.6 18 7.6 3.4.6 6.6-.1 9.9-1a43 43 0 0 1 8.2-1.3" class="b"/><path d="m13.5 215.2 5-.1q3.6-.6 7.3-.6 3 .2 5.8.8 2.4.2 4.9-.1c3.3-.4 6.5-1.6 9.8-2 4.7.6 9.4 1 14 .3 1.3 0 2.8-.5 4-.2 2.9.7 5.5 2 8.3 2.6q4.1.9 8.2.7c2.2-.1 4.4-.6 6.6-.6 3 0 6 1 9 .6 5-.5 9.7-2.8 14.8-2.7 3 0 6 .8 9 .2 1.7-.3 3.3-1.5 5-2q2-.4 4 .2c.9-.7 1.6-2 2.5-2.6q1.2-.6 2.5-1c2.5-1 5.5-2.3 8.2-1.1q3 1.4 5.7 3c4.9 2.4 10 4.7 15.6 4.7 2.2 0 4.4-.8 6.6-1.4q4-1.4 8.2-1.2" class="b"/><path d="M13.5 213q2.9 0 5.8-.2 3.3-.4 6.5-.5 3.3.2 6.6.8h4.1l9.9-1.5 7.3.3q3.8 0 7.4-.4c2-.1 3.9 1 5.8 1.3a39 39 0 0 0 14.8 1q3.7-.8 7.3-.1c2.2.4 4.4 1.1 6.6 1.1 4.1.1 8.2-1.2 12.3-1.2q5.8.1 11.5-.4c3.3-.8 6.4-2.8 9.9-2.6q1-1.2 2.4-2l2.5-.8c2.3-.9 4.8-2.5 7.4-2 2.6.8 4.9 2.6 7.4 3.7 5 2 10.1 4.4 15.6 3.8 2.2-.4 4.4-1.4 6.5-2 2.4-.3 5 0 7.4 0" class="b"/><path d="M13.5 210.9c4.1 0 8.2-.5 12.3-.6 3.3 0 6.6.9 9.9.5q5.8-.3 11.5-1l6.5.1 5.8-.1q4.1.7 8.2 1.3 6 .6 12.3.3c2.2-.1 4.4-.6 6.6-.5 2.5.1 5 1.2 7.4 1.8q3.1.7 6.5.6h5q1.6 0 3.2-.3c3.2-1 6.6-.8 9.9-.9 2.8-.2 5.5-1.6 8.2-2.4l2.4-.7 1.7-1q2.5-.7 5-1.7c1.7-.8 3.6-2 5.6-1.8 1.8.3 3.4 1.4 5 2.3q2.3 1.3 4.9 2.1c3.2 1 6.4 2.3 9.8 2.3 2.3 0 4.4-1 6.6-1.3q5.3-.6 10.7 0" class="b"/><path d="M13.5 208.7c4.7 0 9.3-.6 14-.4 7 .5 14.2 0 21.3-.3q6.6-.2 13.1.6 5.8.6 11.5.5 3.8.2 7.4 0c2.4-.3 5-.7 7.4-.4s5 1.3 7.4 2q4.1 1.2 8.2 1.4c2.8.1 5.5-.9 8.2-1.1s5.5.1 8.2-.3c3.4-.6 6.7-2.1 9.9-3.3 1.8-.8 4-1 5.7-2 1.6-.6 3.2-1.7 5-2.1 1.7-.3 3.4.7 4.9 1.5q2.3 1.4 4.9 2.2 4.8 1.7 9.8 2c3.3.3 6.6-.6 9.9-1.1 2.7-.4 5.5 0 8.2.3" class="b"/><path d="M13.5 206.5c4.1.2 8.2-.2 12.3-.3l4.1.1q3.3-.2 6.6-.2 18.9.1 37.8 1c5.1-.3 10.4-1.8 15.5-.6 5.5 1.1 10.8 4 16.5 3.8 2.4-.1 4.9-.6 7.3-.6 2.8 0 5.6.1 8.3-.5 3-.6 6-2 9-3.2q3-.6 5.7-1.7c1.7-.6 3.2-2 5-2.3s3.4 1 4.9 1.8q2.3 1.2 4.9 2 5.2 1.5 10.6 1.5c6.7-.4 9-3.2 16.5-1.1" class="b"/><path d="M13.5 204.4c5 .2 9.9-.3 14.8-.2q4.1-.4 8.2-.5l17.2.6q7.8 0 15.6.4c3 .3 6-.4 9-.7 4.4-.3 8.9-.5 13.2.5 5.3 1 10.2 3.8 15.6 4.2 5.4 0 11 .1 16.4-1q4.3-1 8.2-3l4-1q2.7-.9 5-2.4c1.9-1.3 4 0 5.7 1q2.8 1.5 5.8 2.1a33 33 0 0 0 9.8 1c6.4-.4 9.4-4.6 16.4-1.7" class="b"/><path d="M13.5 202.5c3.8.1 7.7-.3 11.5 0q5-.7 9.9-1h5.7c2.7-.2 5.5.1 8.2.1q9.4.1 18.9 1c3.8 0 7.6-.9 11.5-.9 4.9 0 10-.2 14.7.8 4.8 1 9.2 3.6 14 4.4 8.5 1 17.7.1 25.4-3.7q3.5-.7 6.6-2.2c2-1.4 3.4-2.1 5.7-.7q3 1.8 6.6 2.6 5.3 1.2 10.7.4c5.8-1 9.1-5.3 15.6-2.4" class="b"/><path d="M13.5 200.6q2.4.3 5 .2 2.4 0 4.9-.2c4.3-.4 8.7-1.2 13-1 4.1-.9 8.3-.2 12.4-.3 5.7 0 11.6-.3 17.2.8q4.5-.7 9-.9l10 .2q7 0 13.9 1.8c2.5.7 4.9 1.9 7.3 2.7 6.6 2.4 13.9 2 20.6.4q4.6-.9 9-3 2.5-.7 5-1.7c3.6-2.8 4.6-.5 8.1.9a24 24 0 0 0 12.3.8c6.6-.6 10.5-6 17.3-3" class="b"/><path d="M13.5 198.9c6.6.8 13.2-1 19.7-1q4.5-1.1 9-.7c7.1.5 14.3-.7 21.4 0 2.2 0 4.4-.5 6.6-.5h10.6l9 .6q4.2.6 8.3 1.3 5.1.7 9.8 3.2a19 19 0 0 0 9.9 2q3.7-.1 7.4-.6c3.8-1 7.8-1.6 11.4-3 .8-.3 1.7-1 2.5-1.1q1.3-.2 2.5-.9c2.3-1.5 3.3-1.5 5.7 0 4 2.2 8.8 2.3 13.1 1.2q3.4-.8 6.6-2c3.7-1.8 7.6-2.9 11.5-1" class="b"/><path d="M13.5 197.2c5.5.5 11-.5 16.4-.8q3.7-.9 7.4-1.2c3-.2 6 .4 9 .2q8.7-.4 17.3-.6 11.4-.5 23 .3c3.5.3 7 1.1 10.6 1.3l6.6 1.3c1.9 1 3.8 2.3 5.7 3 2.9 1.2 6 1.1 9 .9l7.5-.3 6.5-1.5c2.5-.5 5.2-.8 7.4-2 .4-.3 1.3-.6 1.7-.6l2.4-1.3c1.1-.4 2.4.2 3.3.8q1.9 1 4.1 1.5 4.2.8 8.2-.7 3.7-1.3 7.4-2.4a15 15 0 0 1 11.5-.2" class="b"/><path d="M13.5 195.5c4.7.4 9.4-.2 14-.6q4.5-1 9-1.5c2.7-.3 5.5.2 8.2.2L57 193q9-.3 18-.1 8.3 0 16.5 1.2c1.9.3 3.9.3 5.7.8l7.4 1.7c2.1 1 4.2 2.5 6.6 2.8 2.7.4 5.5-.2 8.2-.3q3.7-.2 7.4.1c2.2-.3 4.4-1.2 6.6-1.5 2.4-.4 5-.5 7.3-1.4l3.3-1.5c1.4-.7 3 0 4.1.7q1.6.8 3.3 1.2 3.8.6 7.4-.8l5-2 4-.8q5.4-1.3 10.7.9" class="b"/><path d="M13.5 193.8q5.8.3 11.5-.4 6.5-1.2 13.1-1.8 3.8 0 7.4.1 8.7-.5 17.3-.7 9.5-.2 18.8.6c3.9 0 7.7.7 11.5 1 2.8.3 5.5 1.2 8.2 1.8l4.1 1q1.6.9 3.3 1.5c3.2 1 6.6-.2 9.9-.5 2.7-.3 5.5.2 8.2.5q1.7.1 3.3-.5l3.2-.8c2.4-.4 5-.2 7.4-.7q2.1-.6 4.1-1.6c2.4-.5 4.3 1.7 6.6 1.9q3.4.5 6.6-.7c2.1-.8 4.3-1.9 6.5-2.4q7.2-1.2 14 1.1" class="b"/><path d="M13.5 192.1c9.1.6 18-1.8 27.1-2.2 6 .2 12-.4 18-.6q5.4-.1 10.7.1 3.3 0 6.6.3c3.8.6 7.7.5 11.5.7l7.4.8 5.7 1.2 5 1.3c1 .3 2.1 1 3.2 1.2 2.8.5 5.5-.6 8.2-1.1 3.6-.8 7.2.2 10.7.7q1.2.1 2.4-.4l3.3-.7q3.7-.1 7.4-.2c2 0 3.8-1.4 5.8-1.3 1.6.3 3.2 1.4 4.9 1.7q3.7.6 7.4-.9c2-.8 4.3-1.8 6.5-2q6.8-.1 13.2 1.9" class="b"/><path d="M13.5 189.7c8.2 1 16.5-.2 24.6-1.2q3.3-.2 6.6-.2 4.1-.1 8.2-.4a140 140 0 0 1 23.8.5q4.1.6 8.2.6 3.4-.1 6.6.2 3.7.3 7.4 1l6.6 1.6c1 .4 2.2 1 3.2 1 2.3.4 4.5-.5 6.6-1.1q4.6-1.5 9-.1l3.3.7c1.4-.2 2.8-.8 4.1-1 2.7-.3 5.5.3 8.2.3 2.3 0 4.4-.8 6.6-1.1q1.7.2 3.3 1 2 .8 4 .8c2.6 0 5.1-1 7.5-1.7q3.1-1.2 6.5-.9 5.4 1 10.7 2.3" class="b"/><path d="M13.5 187.8a107 107 0 0 0 26.3-.8c3.2-.3 6.6-.2 9.8-.5 6-.4 12-.8 18-.4 4.5-.2 8.8 1 13.2 1.4 3.3.3 6.6 0 9.9 0q2.8.4 5.7.5c3 .1 6 1.2 9 1.9 2.5 1.5 5.6 1 8.2 0 5.1-2 8.1-1.3 13.2 0 5.7-1.9 8.4-.1 14 0 2.4 0 4.9-.6 7.3-.6q2 .8 4.1 1.2 3 .5 5.7-.2c2.5-.5 5-1.3 7.4-1.5 2-.2 4 .4 5.8.8q3.7 1 7.4 1.5" class="b"/><path d="M13.5 186.5c9.6 1 19.2 0 28.7-1 8-.3 15.9-1.4 23.8-1.1q3 0 5.8.3l8.2 1.4c4 .5 8.2.1 12.3 0q2.4.3 5 .4 2.4-.1 4.8.5 2.2.5 4.1 1.5a7 7 0 0 0 4.1.2c7.2-2.2 7.8-3.6 15.6-1.2.8.3 1.7-.1 2.5-.3l2.4-.3q3.4.2 6.6 1 3.2.6 6.6.4h5q1.1-.1 2.4.4 2 .5 4 .5c4 0 7.7-1.4 11.6-1.2q2.4.2 4.9 1 3.2.8 6.5 1" class="b"/><path d="M13.5 185.5c7.1.4 14.3-.2 21.4-.6l8.2-.8q4.1-.1 8.2-.5c7-.5 14.3-1.3 21.3-.3 4 .7 8.2 1.7 12.3 1.7q4.2-.1 8.2-.5a39 39 0 0 0 9 .5c1.2.1 2.3 1 3.3 1.4 2.4 1.2 5.2.4 7.4-.7 5.5-2.8 8.4-2.1 14-.6 1.3.4 2.6-.3 4-.1 2.3 0 4.5.7 6.7 1.2 2 .5 4.4.4 6.5.7l5 .5q2-.1 4-.1c4.7.9 9.3-.4 14-.2 3.9.2 7.6 1.8 11.5 2" class="b"/><path d="M13.5 184.4q4.1.1 8.2 0c5.8.2 11.6-.5 17.3-1q5.2-.6 10.6-.8 7-.8 14-1.2 4.5-.1 9 .4c3.3.5 6.6 1.4 9.9 1.7q5.3.4 10.6-.5 1.6.1 3.3.4 2.4.4 5 .3l2.4.4q1.6.9 3.3 1c2.3.2 4.5-1 6.5-2 2-1.1 4.3-2 6.6-1.8 2.8.1 5.5 1.2 8.2 1.7 1.6.3 3.4 0 5 .5l5.7 1.2 4.9.7c3 .6 6 1.4 9 1.4 4.7.1 9.3-.6 14-.2 3.8.3 7.5 1.7 11.5 1.4" class="b"/><path d="M13.5 183q2.9.3 5.8.2 2.4.3 4.9.4 6.6-.2 13.1-1.1 7-.8 14-1.2 7.7-1 15.6-1.3c6-.4 12 1.9 18 2.2q3 0 5.7-.3c1.4-.1 2.8-.7 4.1-.4l6.6 1.4 5.8.5c1.7 0 3.4-1 4.9-1.8 6.5-4 9.5-2.7 16.4-1q3.7.9 7.4 1.5 4 .9 8.2 1.7 4.8 1.6 9.8 2.5c4.4.6 8.8.3 13.2.3 3.8 0 7.7.4 11.4-.2" class="b"/><path d="M13.5 181.6c1.6.2 3.4 0 5 .4q3.1 1 6.5.7 7-.5 14-1.7 7.3-.8 14.7-1.4c7.1 0 14.3-1.7 21.4-.5 3.5.6 7 1.6 10.6 1.7 2.8.1 5.5-.5 8.2-.5 1.4 0 2.8.8 4.1 1q3 .5 5.8.4c4.2.3 5.5-.6 9-2.7a13 13 0 0 1 7.4-2.2c5 .4 9.8 2.4 14.8 3.3q4.5.8 9 2c3 1 6 2.5 9 3.2q6.5 1.3 13.2.7 3.3-.2 6.5-.6 3-.7 5.8-1.5" class="b"/><path d="m13.5 179.7 3.3.5a12 12 0 0 0 5.7 1.6q7-.5 14-2 7-1.2 14-2c4-.3 8.2 0 12.2 0 4.1-.2 8.3-.8 12.4-.2 3.8.5 7.6 1.5 11.5 1.8q2.8.3 5.7.3 1.7-.1 3.3.1c3.2 1 6.6 0 9.8-.1.7 0 1.8 0 2.5-.2 2-.8 3.8-2.2 5.7-3.2 4-2.4 8.9-1.4 13.1-.2l6.6 1.7q2.5.4 5 1c2.2.8 5.3 1.4 7.3 2.1 2.7 1.3 5.3 2.9 8.2 3.5 5.2 1 10.5.3 15.6-.5 3.2-.3 6-2.1 9-3.2" class="b"/><path d="m13.5 177.6 1.7.3 1.6 1.1a10 10 0 0 0 5.7 1.7c3.4-.2 6.6-1.3 9.9-1.9 4.4-.7 8.7-2.2 13.1-2.8q7-1 14-.3 6 .8 12.3.3c4.2-.2 8.3.9 12.3 1.8q4.9 1 9.8 1H98q3-.6 5.8-1.4c1.6-.4 3.4 0 4.9-.4l2.5-1.5c4.9-3.3 9.3-2.8 14.7-1.4q3.8.9 7.4 2 2 0 4.1.6c3.3 1 6.5 2.5 9.9 3.2 2.2 1.5 4.6 3 7.4 3.3q3.7.3 7.3-.5 3.8-.6 7.4-1.4 2.6-.8 5-2 2-1.6 4-2.6" class="b"/><path d="M13.5 175.2c1.2.6 2.2 1.9 3.3 2.6 3.7 3 7.5 1.5 11.5 0q4-1.4 8.2-2.1l5.7-2c6.5-1.9 13.3-1 19.7.3 4.6 1 9.4.4 14 .8 5.5.7 10.8 2.3 16.4 2.5q2.5.2 5-.1c4.4-1.4 6.3-3.2 11.4-2.6 2.5-1.5 5.2-3 8.2-3.2 4.4-.1 9 1 13.1 2.2l2.5.7 1.6-.1q2.2 0 4.1.9c2.5 1 5 2.4 7.4 3.4 1.6.6 3.6.8 5 2 4.4 3 9.4 0 14-1.1 3-1 6.2-1.8 9-3.5 1.7-1 3.1-2.6 4.9-3.5" class="b"/><path d="M13.5 173.4c5.9 5.9 7.5 6.5 14.8 2.2a24 24 0 0 1 8.2-2.7l3.3-1.5c5-2.5 11-2.5 16.4-1.1 3.3.5 6.5 1.7 9.8 2.3 3.8.5 7.7.3 11.5.8q7.4 1.4 14.8 1.9 2.4.2 5-.1l3.2-1.7c2.4-1.5 5.4-2 8.2-1.5 2.6-1.2 5.3-2.3 8.2-2.2q6.8.4 13.1 2.5c1.6.2 3.3-.4 5 0 2.3.2 4.5 1.7 6.5 2.8a33 33 0 0 0 7.4 3.5c4.4 1.2 5 2.9 9.9.4q3.2-1.7 6.5-3.3 3.8-1.4 7.4-3.4c2.2-1 3.7-3 5.8-4.1" class="b"/><path d="M13.5 173.5q1.2.7 2.5 1c.8.5 1.7 1.4 2.4 1.9 4.4 2.7 8-2.3 11.5-4.3q3-2 6.6-2.3c1.2-.3 2.2-1.3 3.3-1.8 5-2.8 11.1-2.7 16.4-.7q2 .7 4 1.3l4.2 1.5c3.5.4 7 1.3 10.7 1.3 6.8.7 13.6 1.5 20.5 1.3h1.6c.8-.2 1.8-.9 2.5-1.3 2.9-2 5.6-2.5 9-1.8 5.8-2.6 12.2-.6 18 .8 1.4.6 2.8.2 4.2 0a10 10 0 0 1 6.5.8c2.8 1.5 5.4 3.6 8.2 5a28 28 0 0 0 9 2.6c3.3-.5 5.7-3 8.3-4.8 3.3-2.4 7-4 10.6-6 1.8-.9 3.2-2.6 5-3.5" class="b"/><path d="M13.5 173.6c2.1.9 4.5 1.3 6.6 2.2 4 .6 6.9-4.6 9.8-6.7 2.1-1.8 4.7-2.5 7.4-2.9q3.7-2.7 8.2-3.4 4.2-.7 8.3.5c3.3 1 6.5 2.7 9.8 3.6l9 2.4q3 0 5.8.3 5.7.1 11.5 0l7.3-.1q1.9-.2 3.3-1.3 1.6-.8 3.3-1.2 2-.2 4.1.3 3.7-1.1 7.4-.6 3.4.4 6.6 1.5c1.3.3 2.7 1 4 .8q2-.9 4.2-1.2c2.9 0 5.5 1.4 8.2 2.4 2.1 1.4 4.2 3.2 6.5 4.4a24 24 0 0 0 8.3 2.6c2.1.5 4.2-.7 5.7-2.1l5-4.7c2.8-2.7 6.4-4.4 9.8-6.3 1.7-1 3.1-2.5 4.9-3.3" class="b"/><path d="M13.5 173.2q2.4.9 5 1.2c1 0 2.2.3 3.2 0 5.5-3 6.6-10.2 14-11.2 2-.2 3.8-1.5 5.7-2.2q4.4-1.5 9-1.3c2.6 0 5 .9 7.4 1.5q4.5 2 9 3.8l5 1.9q1.6.2 3.3.2c4 .1 8.2-.5 12.3-.9q4.5-.3 9-.3c2.2-.1 4.5-.1 6.6-.8h2.4q3.3-.6 6.6-.3 3 0 5.7.8l5 1.7c.8 0 1.7-.6 2.4-.8q2.3-1 5-.5c3 .9 5.8 2.8 9 3.6 1.6 1.1 3.2 2.6 4.9 3.5a20 20 0 0 0 11.5 2.5q1.4-.7 2.4-1.7c2-2 3.8-4.5 5.8-6.6a29 29 0 0 1 9-6.7c2-1 3.7-2.5 5.8-3" class="b"/><path d="M13.5 172.3q2.9.7 5.8.5 1.7.1 3.2-.5c3.8-3.2 5.3-9 9.9-11.2q3.2-1 6.6-1.6l3.2-1.1a26 26 0 0 1 17.3.3l7.4 3.5c1.5.7 3.2 1.8 4.9 2.2 6.3.6 12.6-1.5 18.9-1.8q10.3-.4 20.5.5 3 .2 5.7.8c1.7.3 3.3 1.4 5 1.6 5.8-3.5 9.3.5 14.7 2.5l2.5.8q1.3.8 2.4 1.7 4 3 9 3.1 3.4.2 6.6-.7c2.5-2.6 4.4-5.9 6.6-8.6q3.3-4.4 8.2-6.7 2.6-3 6.6-3.2" class="b"/><path d="M13.5 170.8a22 22 0 0 0 9.9-1.7c1-.6 1.8-2.2 2.4-3.3 1.6-2.5 3-5.7 5.8-7.1 3.4-1 7.1-1.4 10.6-2.3 10.5-2.5 13.5-3 23 2.4 2.1 1 4.2 2.8 6.6 3 7.2.7 14.1-2.5 21.3-2.2 5.3 0 10.5 1.1 15.6 2q3.7.3 7.4.6 2.6.6 5 1.6c1.4-.8 3.1-1.5 4.9-1.2 3.2.5 6 2.6 9 3.8q2 .8 4 1.3 3 2.5 6.6 3.6c4.2.8 8.7.1 12.4-2 1.9-1 2.8-3.6 4-5.3a24 24 0 0 1 6.6-7.4q1.5-1.7 3.3-2.8c2-1 4.4 0 6.6 0" class="b"/><path d="M13.5 169a27 27 0 0 0 12.3-5.8l1.7-3c1.9-3.2 2.8-4 6.5-4.1 4.5-.5 8.8-1.8 13.2-2.7 4.5-1.1 9.7-1.9 14 .6q2.7 2 5.7 3.6 1.5 1 3.2 1.8 1.7.4 3.3.4c3.6 0 7.2-.8 10.7-1.4q5.2-1.6 10.7-1c4.7.7 9.2 2.4 14 3.1 2.3.4 4.9.2 7.3.3 1.7.1 3.3.8 5 1.2 3.5-2 7.4 0 10.6 1.7q3.2 1.4 6.6 2.7c3 2.4 6.8 4 10.6 3.3 14-1.8 14.1-14.6 21.4-17.3 3-.4 5 3.2 8.2 2.5" class="b"/><path d="M13.5 167.2c3-1.1 5.6-3.4 8.2-5.2l5-3.8c.8-.8 1.6-2.2 2.4-3 1.1-1 2.7-.7 4.1-.7q2 0 4.1-.3c3.9-.8 7.7-2.1 11.5-3a19 19 0 0 1 9.9-.4c2.9.8 5 3.3 7.3 5 2.9 1.7 4.7 3.2 8.3 2.8q5.3-.5 10.6-1.8c4.7-1.4 8.4-2 13.1-.4q4.5 1.5 9 2.6c4.4 1 9-.1 13.2 1 1 .3 2.2-.2 3.3-.3q2 0 4 .7c2.8 1 5.5 2.5 8.3 3.5 3.4 2.8 7.8 4.8 12.3 3.8 13.9-2 15.6-19.4 22.2-16 2.6 1.7 4.6 6 8.2 4.5" class="b"/><path d="M13.5 165.2c2.8-1.6 5-4.3 7.4-6.4 2.7-2.4 5.7-5 9-6.2 2.4.6 5 1 7.4.3 6-1.5 11.9-4 18-4.3 4.6-.1 7 3.2 10 6q3 2.2 6.5 3.8c2.2-.5 4.2-1.7 6.6-1.6q1.6 0 3.2.3 1.3-.1 2.5-.4c6.3-1.5 8.8-4 15.6-1.5 4.5 1.6 9.1 3.2 14 3q4-.2 8.2.3c3-.4 6.2.4 9 1.6 3 1.7 5.7 4.1 9 5.3 6.4 2.2 13.8-.6 18-5.7q2.3-2.5 4.2-5.4c1.2-1.6 2.6-3.9 4.9-4 4.5.5 6.2 9.4 11.5 6.3" class="b"/><path d="M13.5 163.4c2-1.2 3.4-3.3 5-5 2.6-3.2 5.6-6.5 9.8-7.4 1.7-.4 3.2 1 5 1.1 1.9.2 3.8-.5 5.7-1l5.7-1.7q4.1-1.2 8.2-2c3.1-.6 6.2.4 8.2 3l2.5 3.2q1.5 1.3 3.3 2.2c2.8-3.2 5.6-4.4 9.8-3 4 0 7.8 1.1 11.5 2.5 2-.4 3.8-1.5 5.7-2 4.5-1.1 8.9 1.5 13.2 2.5q4.4 1.2 9 1.1c4.7.2 9.8-.5 14 2.2 2.6 1.6 5.2 3.4 8.1 4.5 6.3 2 13.6 0 18.1-4.7q2.7-2.9 5-6c1-1.4 2.2-3.2 4-3.6 4.7-.5 7.3 11.4 13.1 6.5" class="b"/><path d="M13.5 161.8c5.3-4 7.5-13.1 15.6-12.4 1.3.5 2.6 1.5 4.1 1.5 2.8 0 5.5-1.2 8.2-1.9q4.1-1.4 8.2-2.2c2.7-.6 5.9-1.2 8.2.7 1.4 1 2.5 2.7 3.3 4.1.5 1 1.4 2.3 2.5 2.7 3.4-7.3 8-8.9 15.6-6.2q1.6.6 3.2 1.5a52 52 0 0 1 8.2 2.5c1 .3 2.2 1 3.3 1 4-2 8.4-.6 12.3.6q5.2 1.9 10.7 2 3.3.3 6.6.2 2 .5 4 1.3c3.3 1.6 6.4 3.9 10 4.8 4.3 1 9 .3 13-1.4 5.1-2 8-7 11.5-10.8s6 .2 8.3 2.9c2.3 2.8 5.6 4.4 8.2.7" class="b"/><path d="M13.5 160c4.7-3.5 6.3-11.9 13.2-12 5.6 0 3.6 3.2 11.4.7q3-1 5.8-2 3.7-.9 7.4-1.2c4.7-.7 7 4 9 7.5 1.5-2.5 2.6-5.7 5-7.7 3.3-2.7 8.1-2.5 12.2-1.7q4 .8 7.4 2.8 2 .5 4.1 1.2c3.3 1 6.5 2.5 9.9 3.2 1.8.5 3.9.3 5.7.8 3.3.8 6.5 2 9.9 2.7q2.8.6 5.7.7 2 0 4.1.3c4.6 1.8 8.8 5 14 5.2 5 0 10.4-.7 14.7-3.5 3.2-2.2 5.5-5.5 8.2-8.2 3.5-3.4 5.6-.8 8.2 2q5.6 5.7 9-1.6" class="b"/><path d="M13.5 157.6c1.5-.4 2.4-2.3 3.3-3.5 2-2.8 3.8-6.7 7.4-7.4 1.9-.3 3.9.2 5.7.4q2.8 1.6 5.8.8c2.3-.5 4.3-1.9 6.5-2.5q2-.2 4.1-.2c6.2-.2 7.4.8 10.7 6 1-1 1.7-3 2.5-4.1 1-1.7 2.3-3.6 4-4.5 6.7-3.5 14.7-1.8 21.4.5q6.5 2.5 13.1 4.8a102 102 0 0 0 9.9 3q3.3 1 6.6 2 2.8.9 5.7 1.2c1.3.2 2.9 0 4.1.6a26 26 0 0 0 16.4 3.6c5.9-.6 11.4-1.9 15.6-6.3 2-1.7 3.5-4 5.7-5.3 1.6-.8 3.5-.3 5 .3 1.3.9 2.6 2.1 4 2.7 3.8 1.8 5.8-3 7.5-5.5" class="b"/><path d="m13.5 154.1 2.5-1.5c2-2.6 3.6-6.7 7.4-7.3 2.1-.2 4.4.6 6.5.5q1 0 1.7.2 1.2.2 2.4 0c2.6-.2 4.8-2.6 7.4-2 2 .1 4 1.3 5.8 2q1.7.6 3.2 1.3 1.4.8 2.5 1.9c1-.6 1.9-1.8 2.5-2.7 1.3-1.9 2.8-4 4.9-5 6.2-3 12.4-3 18.9-1.3q7 1.4 14 4 8 3.1 16.3 5.5c4 1.5 8 3.4 12.3 3.8 1.8 0 3.3 1.2 5 1.8q3.1 1.3 6.5 1.3c3 .2 6.1-.4 9-1q3.8-.4 7.5-1.6 3.6-1.5 6.5-4.1c1-1.1 2-2.6 3.3-3.4 5-2.8 7.2 3.3 13.1-.4 2.5-1 3.4-4.1 5.8-5" class="b"/><path d="m13.5 150.4 3.3-2.1c1.6-2.1 3.6-4.8 6.6-4.3 2.7.4 5.6 1 8.2 0 3.1-1.4 6.9-3.3 9.8-.5 1.1.8 2 2.4 3.3 2.9 1.8-2.3 4.3-1.1 6.6-2.3q2.2-1.8 4.9-3.2 2.4-.8 5-1.5c3.4-1 7-2 10.6-1.6 3.3.3 6.6 1.4 9.8 2.3l11.5 3c4 .8 7.7 2.3 11.5 3.6q3 .8 5.8 1.7c1.9.8 3.8 2 5.7 2.7q3.5 1.4 7.4 2 2 .8 4 1.4c4.2.8 8.4 0 12.4-1 5.7-1.3 12.5-1.4 16.4-6.3 5.8-6 10.6 3.7 16.4-3.3 1.5-1.4 3.4-5.1 5.8-3.6" class="b"/><path d="M13.5 146.9q2.7-1.4 5-3.3c2.1-1.8 4.9-.5 7.3-.2a9 9 0 0 0 5-1c5-2.8 6.5-3 9.8 2.1 2-4.2 4.3-3.4 8.2-3.9 4-.9 8.3-1.2 12.3-2.3 3-1 6-2 9-1.7 6 .4 11.6 3 17.3 4.5 6.4 2 13.3 2.5 19.7 4.8l3.3 1c2.5 1.2 4.8 2.9 7.4 3.9q3.1 1.1 6.5 1.5 1.7.6 3.3.7c3.3.2 6.7-.7 9.9-1.5 4.8-1.4 10-1.6 14.7-3.6 1.2-.4 2.3-1.4 3.3-2.2 2.8-2.3 6.6-1 9.9-.5 1.7.2 3.6-.3 4.9-1.5 2.5-2 5-7.7 8.2-3" class="b"/><path d="m13.5 143.7 2.5-1.1q1.2-.7 2.4-1.2c2-.4 4 .5 5.8.8a8 8 0 0 0 4.9-.8c3.3-1.8 5.6-4.5 8.2 0l.8-.1c1.3-2.1 2.4-3 5-2.3q2.8.5 5.7.3 4.5-.2 9-1.1 3.3-1 6.6-2c7.9-2.6 15.6 1.9 23 4.2q4.8 1.7 9.8 2.6c4.4.5 9 .7 13.2 2.6 2.5 1 4.7 3.2 7.3 4.2q5.3 1.7 10.7 1.3c3.6-.5 7.1-1.8 10.7-2.6 5.1-1.5 11-1.2 15.6-4.2 3-1.6 6.6-.4 9.8-.8 6.7.1 8.6-11.3 14-1.5" class="b"/><path d="M13.5 141c5-1.9 5-1 9.9-.1q2 .2 4-.6c2.5-1.1 5.2-4.7 7.5-1.3h.8c3.5-5.3 6.1 1.3 10.6.3q5.9-.6 11.5-2c2.8-.6 5.5-1.9 8.3-2.6 5.8-1.6 11.7 1 17.2 3 3.8 1.4 7.5 3 11.5 4q4.4.9 9 1l2.5.2q2.4 1 4.9 2.3c2.3.8 4.2 2.6 6.6 3.4 2.6 1 5.4.8 8.2.7 2.2-.1 4.4-1 6.5-1.6 5.3-1.9 11-2.6 16.4-3.5l5.8-1.6q2.4-.3 4.9-.2 4 0 7.4-1.8c4-2.8 6.2-5.3 9.8-.2l.9.1.8-2.1" class="b"/><path d="M13.5 138.6c3-.8 6 .7 9 .8q2.3 0 4.1-1c2.2-1 4.6-3.7 6.6-.8q2.4-3.5 5.8-1.2c1 1.4 2.3 2.9 4 3.1s3.4-.4 5-.7l7.4-1.7c10.1-2 12.6-6.2 23.8-2.2 5.2 1.6 10.2 4.1 15.6 5.5 3.4.9 7 1 10.6 1.2a44 44 0 0 0 9 4.3c2.7 1.8 6 1.9 9 1.4q2.7-.3 5-.7 4-1.7 8.2-2.7c3.8-.8 7.7-1.1 11.5-1.7 2.2-.2 4.4-.9 6.6-1 3.3 0 6.8 0 9.8-1.4 1.7-.7 3.3-1.9 5-2.6 2.5-.9 5 1 6.5 2.9.6-1.6 1.4-3.7 2.5-5" class="b"/><path d="M13.5 136.8q3.7.7 7.4 1 3-.1 5.8-1.7c1.7-1 3.2-1.8 4.9-.2q2-2.8 4.9-1.2c3 3.4 2.7 5.5 8.2 4.3q4.1-1.2 8.2-2.2l7.4-1.6c4.9-1.5 9.6-3.7 14.8-2.6 6.5 1.2 12.5 4.2 18.9 6q4 1 8.2 1.3c.7 0 1.8 0 2.4.5q2 1.5 4.1 2.6 2.8 1.4 5.8 2 1.6.6 3.2.7c3.6 0 7.1-1.4 10.7-1.8 2.2-.5 4.3-1.8 6.6-2.2q3.7-.6 7.4-.8l9.8-1.2c3.3-.1 6.7.3 9.9-.8 3-1 5.7-3 9-2.6 1.3.3 2.4 1.5 3.3 2.3 1.5-1.4 2-4.2 4-5.2" class="b"/><path d="M13.5 135.6q4.2 1 8.2.1c2.7-.3 5.8-3.5 8.2-1q1.9-2.9 5-1.4c1.4 1.5 2 4.2 4 5.1 1.4.5 2.9.2 4.2 0q3.8-1 7.4-2c3.7-1 7.7-1.3 11.4-2.3s7.6-2.7 11.5-2.5c8 .4 15.3 4.2 23 5.6l5.8 1c1.1.5 2.2 1.7 3.2 2.3a18 18 0 0 0 5.8 2.7c6 1.5 7.5.4 13.1-1.3a32 32 0 0 1 5.7-1.2q2-.8 4.1-1.3c3.3-.6 6.6-.3 9.9-.7l7.4-.8q2.9.1 5.7 0c3.7-.1 7-2 10.7-2.4q1.7-.3 3.3 0 1.3.6 2.4 1.6c1.4-1.7 2.5-4.5 5-4.6" class="b"/><path d="M13.5 134.5q3.7.3 7.4-.7c2.4-.7 5.2-2.4 7.4-.4 1.9-1.6 2.2-2.5 5-1.6 1.6 1.4 2 4.2 4 5.4 1.3.7 2.8.4 4.1.2 2.9-.1 5.5-1.3 8.2-2 1.6-.6 3.4-.6 5-.9q4-.7 8.2-1.4c3-.6 6-1.8 9-2.1s6 .2 9 .7l9.9 2.2 9 2.1c1.6.3 2.8 1.8 4.1 2.8 3.4 2.8 8 3.9 12.3 3.2 2.8-.7 5.5-2 8.2-2.9q3.2-1 6.6-1.3a14 14 0 0 1 5.7-1c4.4.4 8.8-.3 13.2-.7 2.7-.3 5.5.2 8.2-.2q4-.7 8.2-1.3c1.9-.3 4-.7 5.7.3 1.3 0 2.3-1.5 3.3-2.2 1-.5 2.2-1.2 3.3-.9" class="b"/><path d="M13.5 133c3.6.2 7.1-1.9 10.7-1.8l1.6.4q.8.5 1.7.6c1-2 2.9-3 4.9-1.5l2.5 4c1.6 2.4 4.8 1.6 7.3 1.3 2.3-.2 4.4-1.6 6.6-2.2q2.9 0 5.8-.4l4-.8q2.5-.2 5-.5c3.3-.5 6.5-1.6 9.8-1.8s6.6.3 9.9.7c5 .4 9.9 1.7 14.7 3 3.3 1.4 5.5 4.8 9 5.8q3.7 1.2 7.5.4 2.4-.8 4.9-2 4.7-1.8 9.8-2.8 2.4-.5 5-.8l4.9.2c3 .1 6-.6 9-.8 4-.3 8.2.2 12.3-.3 3.5 0 7.2-1.2 10.7-.4q2-1 4-2c1.1-.2 2.3-.6 3.4-.3" class="b"/><path d="m13.5 131.3 1.7-.3q1.6 0 3.2-.3l3.3-1q2.4.2 4.1 1.7c.8-.8 1.5-2 2.5-2.6 3.5-1.5 4.3 4.7 7.4 5.9 2 .7 4.5.3 6.5-.3 1.5-.4 2.8-1.4 4.1-2q3.4.4 6.6.1 3.8-.4 7.4-1.5 3 0 5.7-.3 3.3-.4 6.6-1 9.5-.7 18.9 1.4 2.5.5 5 1.3 2.5 1.3 4.8 3.3c1.7 1.2 3.6 2.5 5.8 2.8q4.3.8 8.2-1 5.9-2.9 12.3-4 2.4-.7 5-1 2.3-.1 4.8 0c3.9.3 7.7-1 11.5-.7q6.6.3 13.1.2c2.5 0 5-.4 7.4-.2 1.4-.2 2.8-1 4.1-1.3.7-.2 1.8-.2 2.5-.2q1.2-.3 2.5-.2" class="b"/><path d="M13.5 129.2c1 0 2.3.3 3.3.1q1.7-.3 3.3-1c2-.7 3.4.5 4.9 1.7 3.4-6 5.3-1 8.2 2 1.9 2 5 1.8 7.4 1q1.8-.8 3.3-2c1-.4 2.2 0 3.3.1q2.8.5 5.7.2c3-.3 6-1.2 9-1.8 4.7.2 9.3-.5 14-.8q9.6-.3 18.9 2.4c4.4 1.7 7.9 6.3 13 5.8 4.3.2 7.8-2.6 11.6-4q4-1.3 8.2-1.9c2.1-.3 4.4-.9 6.6-.8q2.8 0 5.7-.2 2.4-.4 5-.6 2.3.2 4.8.6c4.4-.2 8.8.3 13.2.3h5.7q1.6-.7 3.3-1h4l2.5-.2" class="b"/><path d="M13.5 127.4a9 9 0 0 0 4.1-.1c1.9-.6 4-1.2 5.8.1h.8c4-5.2 6.7 4 10.7 4.4q3 .5 5.7-1.2c.7-.5 1.6-1.3 2.5-1.5 9.5 2 11.4.7 20.5-1H71a67 67 0 0 1 14 .3q3.2.4 6.5 1 3 .9 5.7 2.5c1.6.9 3.3 2 5 2.5 2.9 1 6.2.9 9-.4 2.4-1.1 4.8-2.6 7.4-3.6 3.6-1.4 7.6-1.5 11.5-2.1 3.4-.7 7-.7 10.6-1 2.8-.3 5.5.6 8.2 1.1 6.6-.7 13.2.7 19.7-.2 3.3-.5 6.7.8 9.9-.1" class="b"/><path d="M13.5 125.5c3 .5 6.2-1.3 9 0l1.7-1c1.5-.6 3 .4 4 1.4 1.4 1.2 2.7 2.7 4.2 3.6 3.1 1.8 6.7 0 9-2.3 10.7 2.7 12.8 1.3 23-.5 1.9-.4 3.9.1 5.7 0l9.9.4c4.7.3 9.7.3 14 2.6 5.2 2.6 9.7 5 15.5 2.3 8.4-4.4 8-5.2 18-5.8 3.3-.2 6.6-1 10-1 3 0 6 .9 9 1.4q1.6.1 3.2-.2 2.1-.2 4.1-.2 7.8.4 15.6.5c3 .1 6.1 1.3 9 .4" class="b"/><path d="M13.5 123.4c2.7.3 5.6-.3 8.2.4 6.5-4.6 8.8 11.2 19 1.3q2.7 1.2 5.6 1.7 3 .7 5.8.6c4.4-.3 8.7-1.6 13.1-2q1.7-.4 3.3-.3 2.4.4 5 .7c3.5.2 7 0 10.6.3 1.9.2 4 .2 5.7 1 5.4 2.2 9.3 5.6 15.6 3.8 4.5-1.2 8-4.7 12.3-6.2 3.2-1 6.6-.8 9.9-1h6.6q3.3.1 6.5 1c5.7-2.5 12.1-.8 18-.4q5.9.5 11.6 1.2c2.7.3 5.5 1.2 8.2.6" class="b"/><path d="M13.5 121.4q3.7.4 7.4.9c6.4-4.3 9.4 10.4 18.9 1.1 1.1 0 2.2 1 3.3 1.3q4 1.2 8.2 1.4c3.9.1 7.6-1.3 11.5-1.8 3.2-.5 6.6.3 9.8.4 4.1 0 8.3-.5 12.3 0 2.4.3 4.6 1.5 6.6 2.6 4.2 2.3 8.6 3.3 13.1 1.3 4.4-1.7 7.9-5 12.3-6.5 4.3-1.2 8.8-.6 13.2-.8 2.8 0 5.4 1.4 8.2 1.6 4.6-4 13.3-.8 18.9-.3q5.3.3 10.6 1c3.5.6 7.1 1.8 10.7 1.3" class="b"/><path d="M13.5 119.7q3.3.8 6.6 1c3.6-2.7 6.7 1.4 9.8 3 4.2 2.3 6.6 0 9.9-2.4q3 2 6.6 2.7 2.8.8 5.7.8c3 0 6-1 9-1.6q5.4.2 10.7.3c3.3 0 6.6-.3 9.9 0 7.7.3 12 7.4 20.5 3.5 4.8-2 8.8-6 14-7.4 3.4-1 7-.5 10.6-.6q2.4 0 5 .3c1.5.2 3.2 1 4.8 1 4.8-4.4 17 .6 23 1 2.2.4 4.4.2 6.6.3 3.9 1.4 8 3.1 12.3 2" class="b"/><path d="M13.5 118.3q2.8.8 5.8 1c.7-.3 1.6-1 2.4-1.1 2.8-.3 5 2 7.4 3.2q4.3 2.5 8.2-.4c.7-.5 1.6-1.4 2.5-1.5a27 27 0 0 0 14 3.8c2.2 0 4.3-1.2 6.5-1q6 .4 12.3.2c4.4-.1 9-.5 13.2 1.3 4.9 2 9.5 4.4 14.7 1.5 5-2.6 9.2-6.8 14.8-8 3-.7 6-.4 9-.5 3.6 0 7.2 0 10.7 1 .8-.1 1.7-1 2.4-1.3q2.5-.6 5-.4c5.9.4 11.4 2.5 17.2 3.6 2.4.5 5 .3 7.4.8 1.4.3 2.7 1.1 4 1.5 2.5.7 5.1 1 7.5.1" class="b"/><path d="M13.5 116.5c1.6.4 3.3 1.3 5 1.4 1.5-1 3-1.9 4.9-1.2 3 1.1 5.7 3.4 9 3.9q2.7 0 5-1.6c.6-.5 1.5-1.3 2.4-1.4a30 30 0 0 0 13.1 4.1q2-.1 4.1-.4l3.3.1q6.6.5 13.1.2 4.5-.1 9 .6 3 .7 5.8 1.9c4.3 1.7 8.4 1.7 12.3-1.2 3.7-2.6 7-6 11.5-7.2q1.6-.5 3.3-.6 2-.8 4-.7 2.1.2 4.2.6c3.5-.2 7.2-.4 10.6.6.8-.4 1.7-1.2 2.5-1.5 2-.8 4.4-.5 6.6-.3q5 .7 9.8 2.2c3.5 1 7 2.2 10.7 2.6 1.9.3 3.8 1 5.7 1.1 2.8 1.3 6.1 1.8 9 .6" class="b"/><path d="M13.5 114.8q2 .8 4.1 1.2c3.5-1.9 4.8-1.5 8.2.2 6 2.9 8.5 3.5 14-.6 3.4 1.6 6.9 3.5 10.7 4.2 1.5.3 3.3 0 4.9.4l11.5.6c4.6.2 9.3-.4 14 .3 2.7.4 5.4 1.5 8.1 2.3 4.3 1.3 8.2.1 11.5-2.8 3.3-2.7 6.3-6.3 10.7-7.1 1.1-.2 2.2-1.3 3.3-1.7q2-.8 4-.7 3 .3 5.8 2c3-.1 6-.4 9 .4.9-.4 1.7-1.3 2.5-1.6 2.6-1.1 5.5-.7 8.2-.3q5 .5 9.9 2.1c3.2 1 6.4 2.4 9.8 3q3.6 1.2 7.4 1.8c2.4.7 5 1.1 7.4 0" class="b"/><path d="m13.5 113.3 2.5.6 4-1c2.7-.1 5.1 1.3 7.5 2.2 5.9 2.5 7.8 1.8 13.1-1.3 2.4 1 4.9 2.4 7.4 3.3 2.1.8 4.4 1 6.6 1.7q2.8.5 5.7.5l7.4.5c3.5.1 7.1-.2 10.7 0 3.3.3 6.6 1.4 9.8 2.2q6.5 1.6 11.5-3c2.4-2 4.6-4.6 7.4-6.3l2.4-1 .9-.2.8-.8c2.4-2.1 5.9-3.5 9-2.4 1.8.7 3.4 2 5 3h4.9c1 0 2.2.5 3.2.2 2.8-3.4 7.7-3 11.5-2.3q3.8.4 7.4 1.4 4.5 1.4 9 3.2 3.7 1.3 7.4 2.3c3.2.7 6.7 2 9.9.6" class="b"/><path d="M13.5 112c3.2-.7 6.7-1.5 9.9-.1 3.7 1.2 7.4 3.4 11.5 3 2.3-.4 4.5-1.6 6.5-2.7 1.8.3 3.3 1.5 5 2.1q1.6.8 3.2 1.2 2.4 1.3 5 1.9c2.3.6 4.9.5 7.3.8q6.6.7 13.2.3c5.8-.3 11.4 2.8 17.2 2.3 7.4-.7 10.3-9.6 17.2-11.3 2.7-2.8 6.7-5.7 10.7-4 2.2 1 3.8 3 5.7 4.4q3.4-.3 6.6.4c3.1-4 7.6-4.6 12.3-3.7 2.5.3 5 .4 7.4 1.1 6.2 1.8 11.8 5.3 18 6.7l4.2.8q2 .5 4-.3" class="b"/><path d="M13.5 109.3q3.3-.1 6.6 0c4.7 1 9 3.8 14 4.1 3.2 0 6-1.7 9-2.8L48 113q2.6 1.7 5.7 2.7c2.7.8 5.5.8 8.2 1.1q6.2.9 12.4.4c6-.4 12 2.7 18 1.9 7.6-1.5 10-9.5 17.2-12 1.6-1.6 3.5-3.5 5.8-4.2q2.5-1 4.9-.1c2.5 1.4 4.2 4 6.6 5.7 1.8 0 3.8.6 5.7.5 2.5-4.2 7.7-5.7 12.3-5 1.9.2 3.9 0 5.7.5 6.2 1 11.4 5 17.3 6.8q3.3 1 6.5 1.6c1.4.2 2.9.7 4.1.2" class="b"/><path d="M13.5 107c3 .1 6.2.2 9 1.3 4.6 1.4 9.1 4.1 14 3.5q2.6-.6 5-1.6c1-.3 2.1-1 3.2-1 1.4.7 2.7 2 4.1 2.8q4.6 2.8 9.9 3.1c2.2 0 4.3.8 6.5 1 3.3 0 6.6-.4 9.9-.4 7.5-.1 15.3 4.5 22.1-.8 4.2-3 7-8.4 12.3-9.5 2.3-2.7 5.7-5.8 9.9-5.1 2 .5 3.5 2.4 5 3.9q1.7 2 4 3.4l3.3.4.8-.3c2.7-4.5 8-6.8 13.1-6.2q4.3-.5 8.2 1c4.6 1.4 8.7 4.2 13.2 6.1q3.2 1.3 6.5 1.9c1.6.2 3.4.8 5 .6" class="b"/><path d="M13.5 104.9q5.5.3 10.7 2.2c4.2 1.5 8.5 3.8 13.1 3.2q2.6-.6 5-1.4 1.6-.7 3.2-.5c1.4.7 2.7 2 4.1 2.7q4.6 2.5 9.9 2.7c1.3 0 2.7.7 4 .7 3.9.1 7.8-.4 11.6-.6 4.7 0 9.2 1.8 14 1.7 10.6 0 12.6-11.6 21.3-12.3 2.2-2.8 6-5.7 9.8-4.6 2.4 1 3.9 3.4 5.7 5l3.3 2.3q1.1 1 2.5 1l.8-.4c2.6-4.2 7.3-7.3 12.3-7.6l3.3-.3q3 0 5.7 1c5.2 1.7 9.8 5 14.8 7.2q4.8 1.6 9.9 2.3" class="b"/><path d="M13.5 102.9q3.7.5 7.4 1.3 5 1.6 9.9 3.4c2.3.8 4.9 1.4 7.3 1 1.4 0 2.8-.6 4.1-.8h4.1c1.3.2 2.3 1.4 3.3 1.9q3.9 2 8.2 2.5 2.6.2 5 .6c4 0 8.2-.7 12.3-.8q3.7 0 7.4 1c3 .4 6 .8 9 .3 6-1 9.4-6.5 14-10q1.5-1 3.2-1.5c.7-.2 1.8 0 2.5-.3 2.3-3.1 7-6 10.7-3.5 2 1.4 3.6 3.6 5.7 4.8 1.6.9 3.1 2.3 5 2.6 2.6-3.7 6.3-6.8 10.6-8.3q2.5-.5 4.9-.9 3-.2 5.7.8c5.8 2 10.9 5.6 16.4 8q4 1.5 8.3 2.1" class="b"/><path d="M13.5 100.9q4.2.8 8.2 1.7c4.2 1.2 8.2 2.9 12.3 4q3.3.9 6.6.1l4.1.2q1.6-.1 3.3.4 2.3 1.6 5 2.4 3.5 1 7.3 1.1 3.7.3 7.4-.3 4.9-.6 9.8-.5c4.9.7 9.9 2 14.8 1 7.8-1.1 12-11.5 18.9-10.6 1.4-1 2.5-2.7 4-3.5 3.5-1.8 6.4-1 9.1 1.6q3.7 3 8.2 4.8c1.1-.8 2.2-2.1 3.3-2.9q3-2.2 5.7-4.3c1.7-1.2 3.8-1.6 5.8-2 2.4-.6 5 0 7.4.8 8.1 2.8 15 9 23.8 10.1" class="b"/><path d="M13.5 99c3.6.8 7.2 1.3 10.7 2.4 4.1 1 8.1 2.8 12.3 3.7q1.6.2 3.3.1 4.1.5 8.2.8c1 .4 2.2 1.2 3.3 1.5q2.8 1 5.7 1.2 2.9.3 5.8.2 3.6-.6 7.3-1 3.4-.2 6.6-.2c2.2.1 4.4.7 6.6 1 6.9 1 12.5.9 18-4 2-1.6 4.2-3.5 6.6-4.6q1.6-.7 3.3-.7c.5-.1 1.3-.8 1.6-1.2 2.2-2.5 5.8-4 9-2.5 1.8.7 3.4 2 5 2.9l4 2c.8.2 1.7.7 2.5.5q3.2-2.9 6.6-5a14 14 0 0 1 8.2-4.3c6.8-.8 14.5 4.8 20.5 7.5 3.2 1.5 6.3 3.4 9.9 3.6" class="b"/><path d="M13.5 97q2.5.4 5 1.1 4.5.9 9 2.2c3.8 1 7.5 2.8 11.5 3q4.5.8 9 1.2c1 .3 2.2 1 3.3 1.3q2.8.8 5.7.8h5.8c2.4-.3 4.9-.9 7.3-1l6.6-.3c2.5.1 5 .7 7.4 1 8.1 1.1 13 1.3 19.7-4q2.3-1.6 5-3 1.5-.5 3.2-.9c3.8-3.7 7.3-5 12.3-2.6q4.5 2 9 3.5c1-.2 1.8-1 2.5-1.6l5-3.4c1.6-1.5 3.4-3.4 5.7-4 3.5-1.3 7.3-.1 10.6 1.2q5.5 2.3 10.7 5l5.7 2.6q2.3 1.4 5 1.6" class="b"/><path d="M13.5 95.1q3 .4 5.8 1.3 4.5.8 9 2 3.8 1 7.4 2.2 6 1.5 12.3 2.2c1.6.5 3.2 1.2 5 1.3 3.2.3 6.5 0 9.8 0 1.9 0 3.8-.6 5.7-.8q3.7-.4 7.4-.4c3.8 0 7.7.7 11.5 1.2 9.8 1.5 12.1.8 20.5-4.4q2-1 4.1-1.8 2.3-1.8 5-3c2.5-1 5.5-.5 8.1.2 3.2.5 6 1.8 9 2.5 1.2-.4 2.3-1.4 3.3-2l4.1-3c1.8-2 4-3.9 6.6-4.5 3.7-1 7.3 1.2 10.7 2.4 6.7 2.3 13 5.8 19.7 8" class="b"/><path d="M13.5 93.3q3.3.4 6.6 1.4 4.1.7 8.2 1.5 3.8 1 7.4 2.2 4.8 1.2 9.8 2c2.3.3 4.4 1.3 6.6 1.4 3 .2 6-.3 9-.3q4.2-.1 8.3-.8 3.7-.3 7.3-.4c6.1 0 12.1 1.5 18 2.3q4.8.7 9.1-1c5.3-2.1 10-6 15.6-7q4.9-.8 9.9-.2l4 1.2q1.3.5 2.5.2 3-1.9 5.8-4c2.3-2.6 5-5.9 9-5.5 2.9.4 5.4 2.3 8.2 3.2q10 3 19.7 6.8" class="b"/><path d="M13.5 91.6c2.5 0 5 .8 7.4 1.3l5.8 1q4.5.7 9 2.2l9 2c2.2.4 4.4 1.2 6.6 1.3q4.1-.2 8.2-.5l6.6-.3L71 98c6.3-.3 12.7-.3 18.9 1.3 6.2 1.5 12 2.2 18-.6l3.3-1.3c2.5-1.8 5.1-3.8 8.2-4.4 1.6-.4 3.3.3 5 .6l4-.8c2.8-.2 5.4 1.5 8.2 1.7q3.2-1.7 5.8-4c1.7-2.3 3.7-4.7 6.5-5.4 2.1-.5 4.1.7 5.8 1.8q2.3 1.6 4.9 2.5c2.6.9 5.5 1 8.2 1.6q5.4 1.3 10.7 3.2" class="b"/><path d="M13.5 90.2c3.6-.4 7.1 1 10.7 1.3q5.8.7 11.5 2.4l4 .8q4.6 1.1 9.1 2.1c3.5.6 7.1-.3 10.7-.4l5.7-.2q4.5-1 9-1c4.4 0 8.9-.1 13.2.8 5.1 1 10.3 2.9 15.6 2.4 2.7-.3 5.5-1.2 8.2-1.9 4.9-3.6 8.3-8 14.8-4.4 5-2.5 6.6 0 11.4.7 1.2 0 2.3-1 3.3-1.6 1.7-1 2.9-3 4.1-4.4 1.8-2 4.7-4.3 7.4-2.6 3 1.9 5.5 4.7 9 5.4 2.7.6 5.5.4 8.2.6q4.6.6 9 1.9" class="b"/><path d="M13.5 89c4.4-.8 8.8.5 13.2.9s8.7 2 13 2.4c3.3.7 6.6 2 10 2.3 4.3.2 8.7-.7 13-.6 1.4 0 2.8-.6 4.2-.7l6.5-.6c5-.1 10-.3 14.8.7 5.2 1 10.2 3.2 15.6 3.2q2 0 4-.4 1.8-.1 3.4-.7c5-3.7 8.7-9.3 15.6-5.1 4.9-3.2 6.7-.2 11.5.7 2.7.7 5.7-3.9 7.3-5.7 1.8-2.3 3.8-4.1 6.6-2.3 2.3 1.6 4.1 4 6.6 5.4 3 1.7 6.5 1.3 9.8 1a37 37 0 0 1 9.9.8" class="b"/><path d="M13.5 87.8q5.8-1.2 11.5-.1 4.5.5 9 1.4 3.8.8 7.4 1.3c3.2 1 6.5 2 9.9 2.1q4.1 0 8.2-.3 5.2-1.3 10.7-1.7c6.5-.4 13.2-1 19.7.4 4.1.7 8.1 2.4 12.3 3.4q2.8.6 5.7.5 2.3.2 4.1-1c3.6-2.3 6.7-6.7 11.5-6.3.7 0 1.8.3 2.5.6.3.2 1.2.4 1.6.4 5-3.5 8 .7 13.1 1 2.6-1 4-4 5.8-6.1q2.9-3.8 6.5-.8c2.1 2 4 4.6 6.6 5.9 2.5 1.2 5.5 1 8.2.6 3.5-.3 7.1-1 10.7-.5" class="b"/><path d="M13.5 86.7c7.1-2.2 14.2-.8 21.4.4q3.6.8 7.4 1.3 4 1.4 8.2 1.8c5.5.5 10.9-1.3 16.4-1.6 8.7-.7 17.6-1.6 26.2 0 3.1.6 6.1 2 9 3a17 17 0 0 0 8.3 1.4c7-2.2 8.6-9.7 18-6.1 5-3.2 8.9.2 14 .8a26 26 0 0 0 3.2-4.1c.9-1.2 1.9-2.8 3.3-3.3 5.5-1 6.9 8 14 8.3 5.2.4 10.3-1.8 15.6-1.2" class="b"/><path d="M13.5 85.4c6.3-1.9 11.7-2.4 18-1L44 86.7q2 .8 4 1c4.2.8 8.3-.2 12.4-.6q6-.6 12.3-1a107 107 0 0 1 23.8.4c4.8 1 9.9 5.4 14.8 4.8 4.4-1 7-5.5 11.5-6.6 2.3-.7 5-.3 7.3.2 1.1 0 2.3-.6 3.3-.7 3.4-.3 6.7.6 9.9 1.6 2-1.6 2.8-4.4 4.9-6 3-1.7 5.6 1.5 7.4 3.6 2 2.4 5 4.3 8.2 4.2q5-.1 9.8-1.3c1.6-.4 3.4 0 5 0" class="b"/><path d="M13.5 84c5.6-1.4 11.5-3.5 17.3-2.1q5.6 1.4 11.4 2.5c2.5.3 5 1.2 7.4 1.2 4.4-.2 8.8-1 13.2-1 5.7-.1 11.5-.7 17.2-1q2.8-.5 5.7-.6 5-.2 9.9.9c1.9.4 4 .3 5.7 1.2l5 2.7c1.6 1 3.6 2 5.7 1.8 2.5-.5 4.5-2.4 6.5-4 2-1.4 4.2-2.7 6.6-3.1 2.7-.6 5.5-.2 8.2.2 3.6-.4 7.4-.8 10.7 1 1.5-1.4 2.4-3.7 4.1-4.8 6-3.2 6.8 7.9 16.4 7q4.6-.1 9-1.3 2.5 0 5 .3" class="b"/><path d="M13.5 82.4q3.7-1.2 7.4-2 2.8-1 5.8-1.4c3.7-.5 7.1 1.2 10.6 2.2 3.6.6 7.1 1.7 10.7 2q3.3 0 6.6-.4H61q7.8-.1 15.6-.7 3.7-1 7.4-1.2c5.3-.3 10.4 1 15.6 1.6q1.7.1 3.3.7l2.4 1.4c2.3 1.5 4.6 3.7 7.4 3.4 2.6-.3 4.6-2.3 6.6-3.8q3.3-2.9 7.4-3.8 4.6-1 9 .4c1.9 0 3.9-.4 5.8-.1 1 .1 2.2.7 3.2 1 1.6-2.4 4.2-5.8 7.4-3.8 1.5 1 2.8 2.5 4.1 3.6 2.3 2 5.3 2.7 8.2 2.5 3 0 6.1-.7 9-1.3l5 .6" class="b"/><path d="M13.5 80.7c2.7-.9 5.4-2 8.2-2.3 3-1.5 6.5-2.9 9.9-1.9q3 1 5.7 2.2 5.4.8 10.7 2 2.4.2 5 0h6.5q7 .3 14 0c1.6-.2 3.2-1 4.9-1.2q4-.7 8.2-.3c2.7.4 5.4 1.3 8.2 1.1q4.5.8 9 1 2.1 1.2 4.1 2.5c1.8 1.5 4 3.1 6.6 2.6 2.5-.7 4.5-2.8 6.5-4.4 3.6-3 8.5-4.8 13.2-3.5 1 .2 2.2.7 3.2.7 2.5-.3 5.2-.3 7.4.9 1.7-1.2 2.8-3.3 5-3.7 4.8-.2 5.4 6.3 15.5 5.3q3.8-.2 7.4-.8 3 .1 5.8.7" class="b"/><path d="M13.5 78.7c1.5 0 2.8-1 4.1-1.4a21 21 0 0 1 5-1.3c2-1.2 4-2.7 6.5-2.6q2.6 0 5 1c1.2.6 2.6 1.4 4 1.4q5.9.8 11.5 2.5c1 .3 2.3.1 3.3.2l5.7.3q6.6.6 13.2.4c3.5-.9 7-2 10.6-1.8 4.2.4 8.2 1.8 12.4 1.4q4.8 1.3 9.8 1.2 3 1.7 5.7 3.2c1.4 1.1 3.2 2 5 1.7s3.5-1.7 4.9-2.9c2-1.7 4-3.6 6.6-4.7 3.4-1.7 7.3-.8 10.6.5q2.4-.2 5 0c1 .1 2.2.7 3.2.8 5.1-5.6 6-2.6 11.5 0q2.8 1 5.7 1l9-.6q3.4.2 6.6.8" class="b"/><path d="M13.5 76.6q1.3.1 2.5-.3 2-1.3 4-2.1 1.6-.6 3.4-1 1.8-1.7 4-2.4c2-.4 4 0 5.8.4 1.3.4 2.7 1.2 4.1 1.1 6.7.7 13 4.2 19.7 4.6 3.8.3 7.7.8 11.5.6 4-.5 8.1-1.8 12.3-1.4 4.4.3 8.7 1.5 13.1 1q5.1 1.7 10.7 1.8c.5 0 1.3.3 1.6.7a34 34 0 0 0 6.6 3.1 6 6 0 0 0 3.3.7c4-.7 6.5-4.7 9.8-6.8 3.6-2.6 7.7-1.7 11.5-.3q2.4-.1 5 0l2.4.6.8.2h.8q1.3-1.2 2.5-2.3c2.8-1.4 5.5 1.3 8.2 2 2.1.7 4.4.6 6.6.5q3.7.6 7.4.1 3.7 0 7.4.7" class="b"/><path d="M13.5 74.3q1.3 0 2.5.3c2.2-1.7 4.7-3.3 7.4-4 1.3-1.3 3-2.6 4.9-2.5 4.7.3 9.4 1.6 14 2.8 4.9 1.2 9.7 2.9 14.7 4q3.2.6 6.6.8 3.7-.2 7.4-.7 7-.6 14 .1 4 .4 8.1.2 5.6 2.3 11.5 2.4c1.5.3 2.7 1.6 4.1 2.1q3 1.6 6.6 2c4.5.8 7.5-3.7 10.7-6.1 3.5-3.2 7.3-2.4 11.4-1q4.6-.2 9 1c1.3-.5 2.1-1.9 3.4-2.2q2-.4 4 .5a21 21 0 0 0 5 1.3h3.3q2.4.7 4.9.9c3.2 0 6.6-.5 9.8 0l1.7 1.2" class="b"/><path d="M13.5 71.8q1.3.2 2.5.7 1-.1 1.6-1l2.5-2c1.2-.9 2.9-1.4 4-2.4 1.6-1.6 3.9-1.3 5.8-.8q2.5.3 5 .8 3.6 1.2 7.3 2.3 3.7.8 7.4 1.4 4.5 1.2 9 2.1 3.8.7 7.4.5h11.5c4.7 0 9.4.3 14 0a37 37 0 0 0 13.1 3l1.7 1q1.6 1 3.2 1.7c3.5 1.3 8.3 2.1 11.5 0 3.7-2.4 6.5-7.5 11.5-7 1.6 0 3.3.7 5 .9q2.8-.2 5.7.5c1.8.4 4.2.7 5.7-.6 2.6-1.5 5.5.3 8.2.6 1.6.3 3.4 0 5 0q2 .8 4 1.1c3 .7 6.1-.3 9 .2l3.3 2.3" class="b"/><path d="M13.5 69.3c1.1.2 2.2 1 3.3 1.1 2.4-2.8 5.3-5.7 9-6.6q1.7.1 3.3.7 2.4.8 5 1.2a39 39 0 0 0 8.1 2.7q4.5.6 9 1 5.8 1 11.6 2c6.2 1 12.5.5 18.8.5q3.8.1 7.4-.4c2 0 3.9 1.3 5.8 1.8q4.4 1.6 9 2c6.3 3.4 11.2 4.8 18 1.7 3.3-1.2 5-5 8.3-6 1.8-.7 3.9-.3 5.7 0q4.3 0 8.2 1.1 3.4.2 6.6-1 2.5 0 4.9.7 3.2.5 6.6 0 1.6.7 3.2 1 2.4.8 5 .9c1 0 2.3-.4 3.2.2l5 2.9" class="b"/><path d="M13.5 66.6q1.7.6 3.3 1.7c2.2-3.2 5.3-7.7 9.9-6.2l3.2 1.6 2.5.7 3.3 1.4q5 1.8 10.6 2 4.6-.1 9 .4 5.8 1.4 11.6 2.2c4.9.6 9.8 0 14.7-.1 2.2 0 4.5-.5 6.6-.4 2.3.2 4.4 1.3 6.6 2q4 1.5 8.2 2c6.7 3.6 12 4.2 18.9.3l4.9-2.5c1.5-1 3-2.4 4.9-2.6 2.4 0 5-.3 7.4.2 2.2.4 4.3 1.4 6.6 1.1 2.1 0 4.4-.5 6.5-.5 3.3.5 6.6 1 9.9.2 2.7.8 5.3 2 8.2 2.4q4 2.1 8.2 3.8" class="b"/><path d="M13.5 63.8c1.2.5 2.3 1.5 3.3 2.2 1.8-3 4-7.4 8.2-5.5 3 1.4 6 3.1 9 4.2q6 1.9 12.4 2c2.7.1 5.5-.6 8.2 0 6.1 1.5 12.4 3 18.8 2.5l9-.6q2.2-.3 4.2-.2 3.4.3 6.5 1.5 2.9 1.2 5.8 1.8c1.3.4 2.9.5 4 1.2a17 17 0 0 0 17.3-.5c5-3 10.4-6.3 16.4-5.4 2.5.2 4.9 1.6 7.4 1.6q4.5.3 9 .2 4.2.6 8.2 0c1.4-.6 2.9.3 4.1.7l2.5 1 2.5 1.8q3.7 2.3 8.2 3" class="b"/><path d="M13.5 61.3c1.2.4 2 1.8 3.3 2 3.6-7.3 4.9-5.2 10.7-1.6q3.9 1.9 8.2 2.6 5.2 1 10.6 1.2c2 0 4-.5 5.8-.2q5.4 1 10.7 2 5.6.9 11.5.3l6.5-.6c1.3 0 2.8-.3 4.1-.1q3.4.3 6.6 1 3.2 1.2 6.6 2c2.3.4 4.3 1.7 6.5 2.3 8.7 2.4 13.5-1.3 20.5-5.5a17 17 0 0 1 11.5-1.7q2.6.6 5 1.4l4.9.7q4.1.5 8.2.5 4.1.3 8.2-.7c2.3.4 4 2.4 5.7 3.7 2.8 2.2 6.4 3.3 9.9 3" class="b"/><path d="M13.5 59c.9.4 1.8 1.4 2.5 2.1l.8-.5c3.5-8.3 5.8-.7 10.7 1q4.4 1.4 9 1.8t9 .8c2 0 3.9-.3 5.8 0 5.2.6 10.3 2 15.6 2.2l8.2-.1q3.7-.3 7.4-.7a48 48 0 0 1 18.8 4c4.5 1.6 9.6 1.6 14-.2 3.5-1.3 6.6-3.6 9.8-5.4 3.3-1.6 7.2-2 10.7-1.1 2.4.5 4.9 1.4 7.4 1.8q5.2 1.2 10.7 1.7c3.2.3 6.5-.2 9.8-.3 5.1 3.3 8 7 14.8 4.8" class="b"/><path d="M13.5 57c.9.6 1.8 1.7 2.5 2.5.6-1.3 1.3-3.2 2.4-4.2l.9-.2c1.3.5 2.3 2 3.2 3a9 9 0 0 0 4.1 2.8c3 .8 6 .8 9 1.2 4.7.5 9.4.5 14 1 4.7.3 9.3 1.2 14 1.7q2.8.3 5.7.2c1.3 0 2.8.4 4.1.4q3.3-.1 6.6-.5l4.9.3q3.2 0 6.6.2 3.3.4 6.5 1.6a24 24 0 0 0 20.6-1.8c3.6-2 7.1-4.7 11.4-4.9 3.7-.4 7.2 1 10.7 1.9 6.2 1.5 12.5 3.2 18.9 3.2 1.6.1 3.3-.2 5 0l1.6 1.2c3.9 3 7.9 3.8 12.3 1" class="b"/><path d="M13.5 55.4c.5.4 1.3 1.4 1.7 1.9l.8-.4c.3-.9 1-2.5 1.6-3.2l.8-.2c1.5.7 2.3 2.5 3.3 3.6 1 1.3 2.5 2.5 4.1 2.8q2.9.5 5.8.6l6.5.5 5 .2 5.7.6c6.3.3 12.5 1.7 18.9 1.7a24 24 0 0 0 11.5.6l4 .2c2.5.2 5-.2 7.4-.1 4.2.2 8.2 1.6 12.4 2.1 5.7.5 11.4-1.3 16.4-4 5.3-3 9.2-5.3 15.6-3.8 9.4 2.5 18.8 5.7 28.7 5.9 1.8-.2 3.3 1.3 4.9 2 3.3 1.6 7.2.2 9.8-2" class="b"/><path d="m13.5 54.3 1.7 2c.3-1 1-3.1 1.6-4l.8-.5c1.1.5 1.9 2 2.5 3 1 1.5 2.2 3.3 4 3.8 2.5.6 5 .4 7.5.6q5.2.6 10.6.4c3.8.9 7.7 1 11.5 1.2q5 .6 9.9 1 1.6.2 3.3.3 2.3 1.1 4.9 1.3 3.7.3 7.4-.2c3.3.4 6.6-.3 9.8-.6 5.5-.3 11 2 16.4 1.6 5.9-.3 11.3-2.6 16.4-5.4q4-2.2 8.2-3c2.5-.2 5 .6 7.4 1.2 9 2.6 17.9 5.3 27.1 6.1l1.7.2 2.4 1c3.6 1.5 7.3-.5 9.9-3" class="b"/><path d="m13.5 53.9.8 1.2c.7-1.4 1.2-3.9 2.5-5l.8.4c3.5 5 2.8 7.4 9.9 7.2 3 .1 6 .7 9 .7q2.4 0 5-.4c1 0 2.2.5 3.2.7 3.2.6 6.6.6 9.9.8q4.8.5 9.8.9c.8-.1 1.7.5 2.5.8q2 1 4 1.1 5.9.3 11.5-.4c2.5-.4 5-1.4 7.4-1.4 5 0 9.8 1.8 14.8 1.7 7-.4 13.6-3.3 19.7-6.6 1.2-1 2.5-2.1 4.1-2.3 3.4-.4 6.7 1 9.9 1.8 8.3 2.6 16.8 5 25.4 6.3q3 .2 5.7 1c3.5.8 6.7-1.4 9-3.7" class="b"/><path d="M13.5 54.1c.9-1.6 1.4-4.1 2.5-5.6l.8.2c2 2.3 2.4 6.6 5.7 7.4q2.5.1 5 .2c3 .2 6 1 9 .8q2.4-.1 5-.8 1.1.1 2.4.5c3.4 1 7 1.1 10.6 1.2l9 .8c1.4.5 2.8 1.5 4.2 1.8 2.3.6 5 .4 7.4.3 2.1-.2 4.4 0 6.5-.7q3-.9 5.8-1.8 2.8-.5 5.7 0c3.5.6 7 1.6 10.7 1.7 6 0 11.9-2 17.2-4.7 1.6-1.4 2.9-3.4 5-4.2 1.7-.6 3.8-.2 5.7.1l5.7 1.5q6.5 1.8 13.1 3.8Q156.3 58 162 59q4.1.7 8.2 1.2c3.2.4 6.1-1.6 8.3-3.7" class="b"/><path d="M13.5 51.4c.3-1 1-3.4 1.7-4.4l.8-.2c2.2 2.3 2.3 7 5.7 7.9h4.1c8 .8 8 2.4 16.4-.4q2.9 1 5.8 1.7c4 .6 8.2.5 12.3 1q1.2 0 2.4.4l1.7 1q2.7 1.3 5.7 1 5-.9 9.9-.9 1.3 0 2.4-.7l3.3-1.4q4-1.4 8.2-.3c8 2.4 13.4 3 21.4.2a7 7 0 0 0 3.2-2.2l3.3-3.1c2.5-2.7 5.8-2.3 9-1.6q4.2.7 8.3 1.7c3.8 1 7.6 2.5 11.5 3.5q5.6 1.3 11.4 2.2 5 .9 9.9 1.2c2.6-.1 4.8-1.8 6.6-3.5" class="b"/><path d="M13.5 47.7c.3-.8.9-2.4 1.7-2.8 2.3 2 2.2 6.2 4.9 8 1.5.6 3.3 0 4.9.2 2 0 3.9.6 5.7 1 4.4 1.4 8.3-.4 12.4-1.7 1.6.5 3.2 1.4 4.9 1.7 4 .8 8.2.8 12.3 1.4.9 0 1.7.8 2.4 1.2q1.6.9 3.3 1c2.9.2 5.5-1.3 8.2-1.9 2.7-.7 5.5 0 8.2-.3 4.4-2.6 7.5-3.1 12.4-1.5 4.7 1.7 9.7 2.8 14.7 2q4.5-1.7 8.2-4.9c2-1.5 4-3.6 6.6-4q3-.2 5.7.4 3.8.5 7.4 1.4 2.5.3 5 1 3.1 1.3 6.5 2.3c3.5 1 7.1 1.3 10.7 2q5.3.8 10.7 1.2c3.7.3 5.3 0 8.2-2.7" class="b"/><path d="m13.5 43.4.8-.2.9.4c1.6 2.5 2 7.8 5.7 8q2-.2 4.1 0 3 .3 5.7 1.3c4 1.2 7.9-.5 11.5-1.8 2.4-1 2.8-.2 5 .6q2.4.7 4.9 1.1l7.4 1 2.4 1.6c4.5 2.3 8.3-2 12.3-3.5 3.2-1.2 6.6-.4 9.9 0 1-.2 2.2-1 3.3-1.2 4.6-1 8.7 2.2 13 2.7 9.2-.1 11.5-1.6 19-6.4 2.7-1.9 5.8-1.8 9-1.4 2.8.1 5.5 1 8.2 1.5 2.4.4 5 .4 7.4 1.3l3.3 1.5 3.3.8c3 .6 6 .7 9 1.2q6 1 12.3 1 2 0 4.1-.2l2.5-1.5" class="b"/><path d="M13.5 42.4q1.4 1.4 2.5 2.9c.8 1.8 1.7 4.6 4 4.7q2.2-.2 4.2 0c7.8 1.4 7.9 3.5 16.4.2l5-1.4q1.5.6 3.2 1.1 4 1.3 8.2 1.9c.9 0 1.7 1 2.5 1.3 1.9 1.4 4.5 1.7 6.5.4 4.6-2.7 8-6.9 14-6.2q3 .2 5.7 1c1.3-.1 2.8-.6 4.1-.3q2.2.2 4.1 1.2c1 .3 2.2 1.1 3.3 1q3.3-.1 6.6-.5 3.7 0 7.4-1.3c4.1-1.2 7.9-4 12.3-4.5q2.8-.2 5.7.1c2.2.4 4.4 1.2 6.6 1.5 2.4.5 5 .1 7.4.6 2 .5 3.8 1.7 5.7 2.4 3.5.9 7.2.5 10.7 1.1a66 66 0 0 0 18.8.2" class="b"/><path d="M13.5 43.6c.9 1.2 2.4 2 3.3 3q1.6 2.1 4.1 1.8 2-.1 4.1.4c8 2.4 9.3 2.1 17.2-.5l5-1.1 3.2 1q2.4.9 5 1.4c2.7 1.8 5.5 4.2 9 2.4 2.7-1.5 4.8-4 7.4-5.7 4.3-3 10-2.5 14.7-1.1 1.4.2 2.9 0 4.1.5 1.4.3 2.7 1.2 4.1 1.2 4.1.3 8.3-.2 12.3-.6 3.7-.4 7.2-1.6 10.7-2.6a27 27 0 0 1 9.9-1.3c2.1.4 4.3 1.2 6.5 1.6q2.5.3 5 .2c1.6 0 3.3-.2 4.9.2q2.4 1 4.9 2.2 2 .6 4.1.5l5 .1c3.2.3 6.5 1 9.8 1 3.5.2 7.1-.2 10.6-.1" class="b"/><path d="M13.5 44.3c1.4 1.1 3.4 1.5 5 2.3 2.4.4 5 .4 7.3 1.2 6.4 2.2 12.6.3 19-1.3q2-.4 4-.9 2.1.6 4.1 1.4c1.2.4 2.2 1.7 3.3 2.3 2.1 1.6 5 2.4 7.4.8 2.9-1.8 5.1-4.8 8.2-6.4 4.5-2.5 10-2.5 14.8-1.2q1.2.3 2.4.5l3.3 1c4.9.7 9.9.1 14.8-.2 4.6-.5 9.2-1.7 14-2.3q2-.2 4-.7 1.6 0 3.3.5 6 2.1 12.3 1 2.6-.1 5 1c1.5.8 3.1 1.9 4.8 1.9 2.2 0 4.5-.4 6.6-.2l8.2.9c4.4.4 8.8 0 13.2.2" class="b"/><path d="M13.5 43.9q2.4.7 5 1 4.5 1 9 1.7 6 .2 12.3-.3 5.4-.7 10.7-2.2c1 0 1.7 1.1 2.4 1.7q1.6 1.5 3.3 2.6c5.5 3.6 9-2.8 13.1-5.5a23 23 0 0 1 13.2-3.3c2.2.1 4.4.8 6.5 1.2q2 .8 4.1 1.2c2.7.4 5.5.1 8.2 0q4.1 0 8.2-.5 6.1-1 12.4-1.3.9 0 1.6-.5c1.6-.8 3.4-.1 5 .3q3.9 1.3 8.1 1c2.5 0 5-1 7.4.1l4.1 2c3 .6 6-.4 9-.1l9.9.9c3.8.2 7.7 0 11.5.2" class="b"/><path d="M13.5 42.6q3.2.6 6.6.8 2.8.5 5.7.6c3 0 6-.5 9 0 2.8.4 5.5.9 8.3.6l3.2-.6q1.6-.6 3.3-.2 2.4.3 4.1 1.9c2.4 2.1 5.4 3.2 8.2 1.1 2.5-1.8 4.6-4.4 7.4-5.8q2.8-1.1 5.8-2 2.8-.9 5.7-1.2 2.5 0 5 .6l3.2.8c1.6.6 3.2 1.6 5 1.6 3.2.4 6.5-.5 9.8-.6 6 0 12-1.2 18-1 2-1.6 3.5-1.6 5.8-.9q2.8.9 5.7 1c7.2.4 7-2.2 14 2.3q2 .1 4-.2 1.7-.7 3.3-.7c3.9.2 7.7 1 11.5 1l7.4.2q2.5.2 5-.1" class="b"/><path d="M13.5 41q3.7.7 7.4.7 1.3-.1 2.5-.6 1.6-.2 3.3-.3c2.1-.3 4.4-.6 6.5 0 2.8.6 5.4 2 8.2 2.3q2.1.2 4.1 0c1.1 0 2.3.6 3.3.8l5 1c2.5 1.6 4.6 2.3 7.3.4 2-1.3 3.7-3.3 5.8-4.6 2.2-1.4 4.9-1.8 7.3-2.7 6.5-2.5 7.6-2 14 0l5.7 2.1c1.3.4 2.8 0 4.1-.2q3.3-.6 6.6-1l11.5-.7h4.1c.8.1 1.8-.5 2.5-1 2.1-1.6 5-.4 7.3 0q5 .6 9.9 0c2 0 4 1.2 5.7 2.2.9.8 2.3.5 3.3.5a9 9 0 0 1 5-1.2q7.7 1 15.5 1c3-.1 6.2.4 9-.6" class="b"/><path d="M13.5 39.3c12 2.8 13.3-4 20.5-1 2.2.9 4.4 2.2 6.6 3l3.3.7 4 1.6q3.4 1 6.7 1 1.2.2 2.4.4c1.5.1 3-.7 4.1-1.6q2.4-2 5-3.8 2.2-1.1 4.9-1.8c2.8-.7 5.3-2.3 8.2-2.8q3.5-.6 6.5 1.4l5 1.6c1.1-.2 2-1.3 3.2-1.5 2-.5 4 .2 5.8.9l2.4.5c1.6.5 3.4-.2 5-.3q4.1-.3 8.2-.4l4-.1q1.5.1 2.5-.5 1.6-1 3.3-1.5c1.6-.3 3.3.1 5 .3q3.1.5 6.5.4c1.9 0 4-.2 5.7.6l3.3 1.8c.7.3 1.8.1 2.5 0a8 8 0 0 1 4-1.2q3.4.1 6.7.6 4.8.3 9.8.2c3.3-.1 6.9.3 9.9-1.4" class="b"/><path d="M13.5 37.3q6.2 1.7 12.3 0 3.7-.8 7.4-1.7c3 .9 5.4 3 8.2 4.1q3 2.3 6.6 3.4 4.9 1 9.9.3c2.1-.7 3.9-2.5 5.7-3.8 2.1-1.7 4.8-2.3 7.4-3q2.5-.7 4.9-2c2.5-1.2 5.7-1.8 8.2-.3 1.4.7 2.6 2 4.1 2.2 1.2-.8 2-2.3 3.3-3 2.7-1.8 6.3-.8 9 .3 2.3 1 4.8 3.1 7.4 2.6 4.4-.6 8.8-.3 13.1-.6 2.4-1 4.8-2.5 7.4-2.2q5 .5 9.9.7c2.6 0 5 1.2 7.4 2.4l1.6-.1 1.6-.8q2.5-.7 5-.3 7 .7 14 .4c3.5 0 7.5 0 10.6-2.2" class="b"/><path d="M13.5 35.1c4.5 1.6 9.4 1.3 14 .7q4.1-.3 8.2-1.3c1.4.6 2.8 1.7 4 2.5q1.3 1.3 2.5 2.4c2.5 2 5.9 3 9 2.7q3.7 0 7.5-.9c2.7-1.6 5-4 8.2-4.7q3.4-.6 6.5-2c5.2-2.6 8.4-4.4 13.2.3 2.1-1.3 2.9-4.4 5.7-4.7q2-.2 4.1.2 3 .2 5.7 1.1c2.3.8 4.3 2.5 6.6 3.3 1 .4 2.3 0 3.3 0l4.1-.1c2.5-.1 5 .2 7.4-.8 1.8-.6 3.7-1.5 5.7-1.4q5.4.1 10.7.7 2.1.4 4.1 1.2c1 .5 2.2 1 3.3.6 3.5-2 7.7-.5 11.5-.6q4.9.1 9.8-.2c3.5 0 7.1-.6 9.9-2.8" class="b"/><path d="M13.5 32.8c6 2.1 12.6 2 18.9 1.9l3.3-.5c.7-.2 1.7-.6 2.4-.3 3.3 4.3 6.6 7.5 12.4 6.3l8.2-1.6c2.1-.3 3.7-2.1 5.7-2.8 2-.8 4.5-.7 6.6-1.4 4.5-1.1 9.4-6.8 14-2.7h.7q1.6-1.5 3.3-2.5 1.8-1.4 4.1-.9 2 .4 4.1.6c3.4 0 6.9.1 9.9 1.9 1.5.8 3.1 2 4.9 2.4q4.9-.2 9.8-.2c3-.5 6-1.8 9-1.9q5 0 10 .7c1.8.3 3.7 1.3 5.7 1.5 1 0 2.2-.6 3.2-.8q2.5-.1 5 0 6 .6 12.3 0c4.3-.2 8-.5 11.5-3.3" class="b"/><path d="M13.5 31.3H16a74 74 0 0 0 18.9 2.6l2.4.7 2.5.5c.5.2 1.3 1 1.6 1.3 3.5 3.5 6.6 2.2 10.7.9q4.1-.8 8.2-1.7c1.7-.3 3.2-1.2 5-1.5 2.4-.3 5-.1 7.3-1.1 3.6-1.3 7.6-6.2 11.5-3.7l2.5-1.6q2-1 4-1.1c2.2.3 4.4 1.2 6.6 1 4.2-.1 8.5-.6 12.3 1.6 1.6.8 3.2 2.2 5 2.3 3.2-.2 6.6.2 9.8-.3 3.6-.5 7-1.8 10.7-1.2q5.4.2 10.6 1.6c2.5 0 5-.8 7.4-.5q7 .6 14-.1c4.3-.3 8-.6 11.5-3.4" class="b"/><path d="M13.5 30q2.5.1 5-.4 3.6.9 7.3 2l6.6 1.5q3.5 1.8 7.4 2.3l2.5.5 1.6.8c3.2 1 6-1.6 9-2.2q3.7-.6 7.4-1c1.6-.2 3.3-.7 5-.7 2.4 0 5 .4 7.3-.5q2.7-1.1 5-3c1.6-1 3.5-2.8 5.7-2.2a13 13 0 0 1 7.4-2q3.1 1.6 6.5 1.3c4.7-.3 9.7-1.3 14 1 1.9.7 3.6 2.6 5.7 2.4 3.3 0 6.6.3 9.9-.3 1.6 0 3.3-.6 4.9-.9q3 0 5.7.3 4.2.3 8.2 1c2.5 0 5-.3 7.4-.1q7.6.6 14.8-.4c4-.3 7.4-.7 10.7-3.2" class="b"/><path d="M13.5 28.7q3.8.2 7.4-.7 3.8 1.1 7.4 2.7 4.5 3 9.9 3.7c2.6.3 5.5 1 8.2.6 1.4-.5 2.7-1.5 4-2.1a11 11 0 0 1 4.2-1q3.3-.1 6.5-.1 1.6-.1 3.3-.4l2.5.4c5 1 8.7-1.4 12.3-4.5l2.4-1.6q1-.1 1.7-.5c2-1 4.4-1 6.5-1.2q1.3-.1 2.5.5 1.2.4 2.5.5c3.5 0 7-.8 10.6-.7q3.8-.1 7.4 1.4c2 .7 3.7 2.4 5.8 2.4l6.5.2 4.1-.4q2-.6 4.1-.7 5.8.4 11.5 1.2 6.1 0 12.3.3 5.4.1 10.7-.7c3.7-.4 7.6-.7 10.7-3" class="b"/><path d="M13.5 27.3c2.5.4 5 0 7.4-.2l1.7-.1c1.1.3 2.2 1.2 3.2 1.8 3.7 2.7 7 3.6 11.5 3.5l6.6.2c1.3 0 2.9.2 4-.4q3.7-2.9 8.3-2.3 3 .4 5.7.5c1.4 0 2.8-.3 4.1.2 6.8 1.7 10.1-1.6 14.8-5.7 3-1.8 6.6-1.3 9.9-2q1.2.2 2.4.5t2.5.2c4-.4 8.2-1 12.3-.8q3.4 0 6.6 1.4l3.2 1.5q1.2.7 2.5.7c2.7 0 5.5.5 8.2.2q2-.1 4.1-.6 2.4-.1 5 .3 6.5.8 13 1 8.3 1.2 16.5-.4c3.9-.7 8.1-.7 11.5-3" class="b"/><path d="M13.5 27.5q3.7.5 7.4.5 2 0 4.1.1c1.8 1 3.7 2 5.7 2.1 2.6.2 5-.8 7.4-1.3q3.7-.6 7.4-.7 4.2-.2 8.2-.6 2.6.1 5 .8l3.2.5q1.7-.2 3.3.2c4 1 8.2.7 11.5-2 2.1-1.6 3.8-4.2 6.6-4.5q4.1-.4 8.2-1c1.3 0 2.8.4 4 .2q3.4-.3 6.7-.8 4.1-.2 8.2.1c2.5.1 5 1.1 7.4 2.1l2.4 1.1q1.2.2 2.5.3c2.1.1 4.4.5 6.5.4 1.4-.1 2.8-.6 4.2-.6q2 0 4 .4 5.4.6 10.7 1.2 7.5 1.2 14.8.2l9-1.4q3.5-.4 6.6-2" class="b"/><path d="M13.5 27.2q6 1 12.3 1c1.4 0 2.8.6 4.1.4 3.4-.5 5.8-3.3 9-4 3.8-1.1 7.8-.8 11.6 0 4.6 1 9.2 2.5 13.9 2.9 4.2 1 8.8.8 12.3-2 1.9-1.3 3.4-3.6 5.8-4 2-.5 4.4-.5 6.5-.9 1.4 0 2.8-.7 4.1-.5 3 .3 6-.6 9-.9a50 50 0 0 1 8.3.1q4.2.3 8.2 2c1.3.5 2.7 1.4 4 1.4q3.4.6 6.6.7c2.2-.2 4.4-.7 6.6-.2l9 1.2c3.8.6 7.7 1.4 11.5 1.2 4.1-.2 8.3-1 12.3-1.5 3.3-.7 6.9-.9 9.9-2.4" class="b"/><path d="M13.5 26.2c4.7.3 9.4 0 14 .7 3.7.2 6.1-3.6 9-5.4 2.6-1.8 6.1-1.8 9-.8 3.6 1.2 7 3 10.7 4q3.2.7 6.6 1 3.2.4 6.5.4 4.7-.2 8.3-3.2c1.2-1 2.5-2.2 4-2.7 2.7-.6 5.6-.7 8.3-1.1l3.2-.6q2.1 0 4.1-.3 5.8-1.2 11.5-.8 4.6.2 9 1.5 2.6.9 5 2l2.4.3q2.9.6 5.8.5a15 15 0 0 1 6.5.3q3.4.6 6.6 1.1c3.8.8 7.6 1.6 11.5 1.3 3.3-.2 6.6-1 9.9-1.4q4.1-.5 8.2-1.2c1.6-.3 3.4-.4 4.9-1.1" class="b"/><path d="M13.5 24.6c2.5-.2 5-.9 7.4-1.3 3-.5 6 0 9 .5 2.9-2 4.7-5.7 8.3-6.8 3.6-.7 6.8 1.5 9.8 3.2a26 26 0 0 0 7.4 3c3 .7 6 .5 9 .6 4.2.3 8.7 0 12.3-2.4 1.6-.9 3.2-2.2 5-2.7q3.6-.8 7.3-1.1 3.8-.7 7.4-1c3-.5 6-1.3 9-1.2 3.9.2 7.8.4 11.6 1.4 3.1.7 5.7 2.4 9 2.8q2 .4 4 .5c1.4 0 2.9-.4 4.2-.2q3 .4 5.7 1.2 4.2.8 8.2 1.7 3.7.7 7.4.2c2.8-.3 5.5-1.3 8.2-1.7 5-.8 10-.4 14.8-1.9" class="b"/><path d="M13.5 22.4c7.2-1.9 9.6-5.8 18-3.5 1.6-1.5 3-3.5 5-4.4 4-1.3 7.5 2 10.7 4q3 2 6.5 2.8c4.3 1 8.8.2 13.2.2q4.6 0 9-1.8C78 19 80 17.3 82.5 17q3.2-.6 6.5-1 4.1-.7 8.2-1.2c3.8-.9 7.6-1.7 11.5-1a53 53 0 0 1 14.8 3.4q2 .6 4.1 1 1.7.4 3.3.3 2-.4 4 0c5.3 1 10.4 2.9 15.7 3.2 4.8.6 9.3-1.8 14-2.7 4.5-.7 9.4.6 13.9-1" class="b"/><path d="M13.5 19.7C16 19 18 17.4 20.1 16q6.1-4.1 13.1-2.6c1.1-.3 2.1-1.3 3.3-1.5 4.6-.7 7.9 3.4 11.5 5.4a18 18 0 0 0 11.5 2c5.7-.5 11.7.1 17.2-2 1.9-.7 3.8-1.8 5.8-2.1 3.5-.8 7.1-1 10.6-1.7q5.3-1 10.7-2c3-.2 6 .3 9 .7a49 49 0 0 1 11.5 3.3l4.1.9 2.5.3q2-.5 4-.2c4 .8 7.7 2.3 11.6 3 4 .8 8.4.6 12.3-1a20 20 0 0 1 13.1-1.9l3.3.2q1.6-.4 3.3-1" class="b"/><path d="m13.5 15.7 2.5-.3c6.3-4.6 9.5-8.6 18-6q.9.1 1.7.4l1.6-.2q1.7.3 3.3 1c6.3 3.8 8 7.2 16.4 6.4q2.4-.3 5-.3l3.2.3c3.8-.2 7.8-.3 11.5-1.6q3.1-1.4 6.6-2 3.3-.4 6.5-1c4.4-.5 8.7-2 13.2-2.5 5.5-.6 11 .5 16.4 1.9 2.7.7 5.3 2.2 8.2 2.7l3.3.5c1 0 2.2-.4 3.2-.3a39 39 0 0 1 8.2 2.1c5 1.8 10.7 2 15.6 0 5.6-2.5 8.6-4.2 14.8-2.2l1.7.3q2-.6 4-1.4" class="b"/></svg>