<svg xmlns="http://www.w3.org/2000/svg" id="a" width="1920" height="2400" viewBox="0 0 192 240"><defs><style>.b{fill:none;stroke:#fff;stroke-miterlimit:10;stroke-width:.3px}</style></defs><path d="M0 0h192v240H0z" style="stroke-width:0"/><path d="M13.8 218q7.1.7 13.9 3c3.8 1.1 7.5 2.7 11.4 3.6q3.6 2.9 8.2 3.4 5.8.7 11.5 0 4.9-.1 9.8-1 5.3-1 10.6-2c2.7-.5 5.5-.2 8.2 0q2 .3 4 .8c2.2.7 4.4 1.8 6.6 2 4.4 0 7.6-3.7 11.5-5.3 1.8-1.7 3.2-1.8 5 .1 3.4 4 6.5 7.9 12.2 8.6q2.5.4 4.9.4 2.4.2 4.9-.2c2.3-.5 4.4-1.8 6.5-2.9 3.2-1.5 6.4-3.1 9.9-3.7q6.4-1.5 13-1.3c4.2.2 8.2 1.5 12.3 1.3" class="b"/><path d="M13.8 216.3a72 72 0 0 1 12.2 2.3q5.8 1.8 11.5 3.8c1.5.2 2.7 1.5 4 2q3.7 1.4 7.5 1.9 4.8.6 9.8.4 4.5 0 9-.8c3.8-.7 7.6-2 11.4-2.6q3.7-.5 7.4-.4 3.3 0 6.5 1c1.7.4 3.3 1.2 5 1.5 3 .7 5.7-1 8.1-2.6q2.8-1.7 5.8-3.2c3.4-.6 6.2 7.4 13 9.3a42 42 0 0 0 10.7 1.4 18 18 0 0 0 7.4-2.5q3.2-1.7 6.5-3.2a45 45 0 0 1 12.3-2.3c5.4-.4 10.9 1 16.3.6" class="b"/><path d="M13.8 214.8q5.8.4 11.4 1.8c4.2 1 8.2 2.6 12.3 3.9 1.2.2 2.2 1.3 3.3 1.8q2.7 1.1 5.7 1.6a55 55 0 0 0 12.3 1.3q4.5.1 9-.5c5.7-1 11.2-3.5 17.2-3.8q5.4-.7 10.6 1.2c6.8 2.6 8 1.3 13.9-2.3 4.1-3.8 5.8-1.2 9 2 3 3.2 7.1 5.2 11.5 5.9 2.6.5 5.4 1 8.1.5 5.2-1 9.5-4.8 14.8-5.7q4.4-1.3 9-1.5c5.4-.2 10.9.5 16.3 0" class="b"/><path d="M13.8 213.3q5.3.1 10.6 1.3 6.6 1.7 13.1 4c.8.2 1.7 1 2.5 1.4q2 1 4 1.4c3.8.8 7.6 1.9 11.5 2.2 4.6.2 9.4.3 14-.6 4.6-1 9-3.1 13.8-4 13.6-3.2 17.4 6.9 26.2-.4 1.9-1.3 4.2-3.3 6.6-2 2.8 1.8 5.1 4.5 8.1 6.2q3 1.7 6.6 2.5c2.6.7 5.4 1.3 8.2.7 4.5-1 8.4-4.1 13-4.7 3-.6 6-1.4 9-1.6 5.8-.3 11.5 0 17.2-.5" class="b"/><path d="M13.8 211.7q5.3 0 10.6 1.2 6.2 1.6 12.3 3.5 1.4.3 2.4 1.2 1.6 1 3.3 1.4c4.7 1 9.2 2.7 14 3.2q3.1.3 6.5 0 3.3 0 6.5-.5c3.7-.7 7.2-2.3 10.6-3.6 15.3-5.7 18.8 3 27 .5 3.2-1 5.7-3.7 9-4.3 3.2.2 5.6 3 8.2 4.6 3.3 2 6.9 3.8 10.7 4.5 3 .6 6.2-.4 9-1.7q2.7-1.1 5.7-2 3-.2 5.7-.7l5.8-.9 6.5-.1q5.3-.2 10.6-.8" class="b"/><path d="M13.8 210.2q5.3-.2 10.6.9 6.6 1.7 13.1 3.5 2 1.5 4 2.2 2.6.6 5 1.1c3.8 1.1 7.5 2.7 11.5 3q3.2.2 6.5-.2 3.8-.1 7.4-1c5.3-1.6 10-5 15.5-5.7q5.4-.7 10.7 1c3.4 1.1 7 2.6 10.6 1.5 2.9-.8 5.5-2.5 8.2-3.6 2.9-1.3 5.8.8 8.2 2.2q3.1 2.1 6.5 3.9c2.5 1.4 5.5 1.8 8.2 1l4-1.2 4.2-.7 2.4-.7q2.4 0 5-.2 6-.9 12.2-1 5.3-.3 10.6-1" class="b"/><path d="M13.8 208.7q5.8-.4 11.4.8l12.3 3.3a17 17 0 0 0 4 2q3 .7 5.8 1.4c4.5 1.6 9 3.6 14 3.4 2.1 0 4.3-.6 6.5-.6 4.1-.2 7.9-2 11.4-4q4.6-2.7 9.9-3.4a31 31 0 0 1 11.4 1.5c4.8 1.9 9 2.6 14 .5 2.6-1 5-4 8.1-2.6q2.5 1 5 2.2 2.2.7 4 1.9 3.4 2.2 7.4 1.6c1 0 2.2-.6 3.2-.5 3 .2 6-.7 9-1.1q5.8.3 11.5-.4 7.8-.2 15.6-1.4" class="b"/><path d="M13.8 207.3q5.8-.8 11.4.4l12.3 3.3q2.3 1.4 5 2.1 2.8.6 5.6 1.4c6.3 2.6 11.1 4.4 18 3 6 .6 9.9-2.3 14.8-5.2q3-1.6 6.5-2.5 7-1 14 1c3.9 1.1 8 2.8 12.2 2.2q2.6-1 5-2.7c2.9-2 4.9-1.5 8-.4q2.5.9 5 1.3l3.3 1.4c1.5.5 3.3.3 4.9.4 3.2.6 6.6 0 9.8-.2 1.6-.3 3.3.2 5 .2h6.5c2.4-.3 4.9-.1 7.3-.4q5-.5 9.8-1.3" class="b"/><path d="M13.8 206c8.2-1.6 13.5.5 21.2 2.6 2 .4 3.9 1.4 5.8 2l6.5 1.6c2.2.6 4.4 1.8 6.6 2.5q3.1 1.1 6.5 1.5 2.4.2 5-.1c3.3.5 6.8 0 9.7-1.8 3.8-2.2 7.3-5 11.5-6.2q1.6-.3 3.3-.4l1.6-.3q3.7 0 7.4.6 4.5.6 9 2c3.6 1.2 6.2 2 9.8 0 6.6-3.9 6.6-3 14-2 1.2.3 2.6 1 4 1.2l5 .8q4 .1 8 .1c2.5.2 5 .8 7.5.9 2.4.1 4.9-.2 7.3 0 5 .2 9.9-1 14.7-1.7" class="b"/><path d="M13.8 204.8q5.2-1.2 10.6-.6 7 1.4 14 3.6c2.6.9 5.4 1.3 8.1 2.1q4.5 1.7 9 3.2 2.8.9 5.7 1.1 2.5.1 5 .7c3 .6 6.3 0 9-1.7 3.7-2.3 7.1-5.4 11.4-6.8l1.6-.2 2.5-.6q4.1 0 8.2.4 3.7.3 7.3 1 3.8 1 7.4 2c3.8 1 7.3-1.4 10.6-2.7q3.6-1.3 7.4-.7c2.4.4 4.9 1 7.4 1 5.7.2 11.4 1.8 17.1 2.2h5.8q3.3.2 6.5.1c3.3-.2 6.6-1.3 9.8-1.7" class="b"/><path d="M13.8 203.5c3.2-.5 6.5-1.2 9.8-1 4.1.5 8.2 1.7 12.3 2.7 2.6.9 5.5 1.2 8.1 1.9q3.8 1.2 7.4 2.5 4.5 1.4 9 2.4l5.7 1.7c4.8 1.3 8.8-1 12.3-3.9l4-2.9c1.3-.8 2.7-1.8 4.2-2 1.4-.2 2.7-1 4-1l6.6.2q5.3.2 10.7.9c2.5.4 4.9 1.4 7.3 2 3 .9 6.2 0 9-1q2.5-.6 5-1.5c2-1 4.3-.7 6.5-.5l6.5.7q6.6 1 13.1 1.9 4.1.1 8.2.2 3.2.3 6.6 0l8.1-1.7" class="b"/><path d="M13.8 202.2c3.2-.4 6.5-1.2 9.8-1q3.3.1 6.5 1 3 .3 5.8 1c2.3.8 5 1 7.3 1.6q4.2 1.1 8.2 2.6l9 2.7q3 1.2 5.7 2.3c4.3 1.5 8.2-.3 11.5-3q3.5-3.1 7.4-5.5c1-.6 2.2-.5 3.2-1 2-.9 4.4-.8 6.6-.5 2.6.6 5.5.4 8.2.4q4.1.1 8.1.8c2.5.2 5 1.4 7.4 1.8q4.1.6 8.2-.4l3.2-1.7c1.8-1 3.9-1 5.8-1q3.7 0 7.3.7 5.8.6 11.5 1.3 4.1.3 8.2.3c2.1 0 4.4.4 6.5.2q4.5-.6 9-1.7" class="b"/><path d="M13.8 200.9c3.2-.3 6.5-1.2 9.8-1.2q3 0 5.7.6 3.8.2 7.4 1.2c2 .5 4.4.6 6.5 1.1q4.5 1.2 9 2.8 4.2 1.3 8.2 2.7 3 1.5 5.7 2.8c4.3 1.8 8.2.1 11.5-2.7q3.5-3.1 7.4-5.6 1-.7 2.4-.9 2-.9 4.1-1 2 .3 4 .7 3 .3 5.8.1 5.3-.2 10.7.3l4 .5 3.3 1c5 1 7.7.5 12.3-1.6 4.2-1.6 8.8-.5 13-.4 6 .3 12 1.4 18 1.1a39 39 0 0 0 15.6-1.2" class="b"/><path d="M13.8 199.6c3.5-.3 7-1.3 10.6-1.4q2.4 0 5 .4 4.5 0 9 1.2 7.5 1 14.7 3.5 3.7 1 7.3 2.6 3 1.7 5.7 3.2c7.7 3.9 12.3-3.5 18-7.2 1.7-1.2 3.9-1.7 5.8-2.4q2-.3 4 .3 2.1.2 4.2.2 7.3-.3 14.7.2 2.4 0 4.9.3 2.4.7 4.9 1.1c3.9 1 7.8-.5 11.5-1.6q3.2-.7 6.5-.5h5.7c2.2 0 4.4.5 6.6.7q5.3.3 10.6.1c2.2 0 4.4.4 6.6.4q4.3 0 8.2-1.6" class="b"/><path d="M13.8 198.3c3.5-.3 7-1.4 10.6-1.6q2.4-.1 5 .2h4c2.5.2 5 1 7.4 1.3a76 76 0 0 1 19.6 5.3q3 1.7 5.7 3.5c9.6 5.8 14.4-6.6 23-8.5 2-1 4.3-.2 6.5-.3h4q3 .3 5.8.2h9q3-.2 5.7.7c8.4 2.6 12.7-1 20.5-1.2 3.5-.7 7.1 0 10.7.4q4.8.6 9.8.2 3.7-.3 7.3.2 5.1.2 9.9-1.8" class="b"/><path d="M13.8 197c3.8-.3 7.6-1.7 11.4-2q2.4 0 5 .2H35c2.5.2 5 1 7.4 1.2q8.4 1 16.4 3.8c3 1.2 5.4 3.4 8.1 5 6.5 4 10.5-.4 15.6-4.1 2.6-2 5.6-4 9-4.5q2.9 0 5.7-.2 1.7.1 3.3.4 6 .4 12.3.1h4q3 .6 5.8 1.1 4.9.7 9.8-.4 5.2-1.2 10.6-1.7c4.4 0 8.8.9 13.1 1q2.9 0 5.8-.3 2-.2 4-.2 3.8.5 7.4-.2c1.7-.2 3.3-1.1 5-1.3" class="b"/><path d="M13.8 195.6c3.9-.3 7.6-1.9 11.4-2.3 3-.3 6 .2 9 0 3 0 6 .8 9 1.3q3.8.4 7.4 1.1 4.2.6 8.2 1.9c3 1.1 5.5 3.4 8.2 5.2 5.2 3.8 9.3 2 13.9-1.5 2-1.5 4.2-3.2 6.5-4.3 2.6-1 5.3-2.1 8.2-2.2 2.2 0 4.4.6 6.5.7q4.1.4 8.2 0h4.1l5 .6q5.2.8 10.6.3 5.7-1 11.4-2c2.2-.3 4.4 0 6.6 0q5.7.7 11.4.6c3 0 6-.7 9-.5q3 0 5.8-.6c1.3-.4 2.7-1.1 4-1" class="b"/><path d="m13.8 194 5.7-1.2q3.2-1 6.6-1.3c3.7-.3 7.6.1 11.4.2 2.8 0 5.5 1 8.2 1.2l6.5 1q3.4.2 6.6 1c3.1 1 5.7 3.3 8.2 5.2 4.4 3.7 8.4 3.6 13 .4 3-1.8 5.8-3.9 9-4.8 2.5-.8 4.9-2 7.4-2.2 2.5 0 5 .7 7.4.7 2.7.2 5.5 0 8.2.3 5.7.4 11.4 1 17.1.3a131 131 0 0 0 11.5-1.9q3.2-.3 6.6-.2 6.9.6 13.9.3 2.8 0 5.7-.5 2.4 0 4.9-.3c2.2-.2 4.3-1.5 6.6-1.3" class="b"/><path d="M13.8 192.1q3.2-.7 6.5-1.2 3.2-.9 6.6-1.2 6.5-.3 13 .2c2.8.2 5.5 1 8.2 1.4q5.4.6 10.7 1c2.8.5 5.2 2.3 7.3 4 4.6 4 8.3 5.6 14 2.5q2.8-1.5 5.7-2.8l3.3-1c2.1-.5 4.2-1.7 6.5-1.9q3.3 0 6.6.5 3.7.3 7.3.3 9 .3 18-.4 5-.5 9.8-1.5t9.8-.9q12 .6 23.8-.8c2.4-.2 4.8-1.7 7.3-1.3" class="b"/><path d="M13.8 190.2q3.7-.8 7.3-1.3 4.9-1 9.8-1 3.8-.2 7.4.1 5.8 0 11.5 1.4c3.2.4 6.5.3 9.8.6 2.8.3 5.2 2.1 7.3 3.8 6.7 5.5 9.7 4.4 17.2 1.6 1.8-.6 4-.7 5.8-1.3q2-.7 4-1.2h3.3c7.6 1 15.3.5 23-.2q7.3-.5 14.7-1.7c3.5-.6 7-1.6 10.6-1.5h9a141 141 0 0 0 18.8-1.7c1.6-.5 3.3-1 5-.7" class="b"/><path d="M13.8 188.3c8.6-1.3 17.4-2.7 26.2-2.1q3.3 0 6.5.2 3.3.4 6.6 1.2c10 .2 8.7-.9 17.1 5.2 4.6 3 9 2.2 14 1.1 1.8-.5 3.8-.4 5.7-.8l3.2-.7h4.1c6.6.8 13.1.1 19.7-.6 9-.8 18-2.4 27-3.7q5.2-.5 10.6-.3 4.5 0 9-.6 4.1-.4 8.2-1c2.1-.5 4.3-1.4 6.5-1" class="b"/><path d="M13.8 186.5q11.8-1.5 23.7-2.2h10.6q3 .2 5.8.8 1.6.4 3.2.6c10.1-.9 9.3 2 17.2 5.6 5 2 10.4.7 15.6.5 4.3-.5 8.7.1 13 0 8.8-.4 17.6-1.9 26.2-3q5.4-.9 10.7-1.3 4.8-.7 9.8-1.2c2.4-.4 5-.1 7.4-.3q5.2-.4 10.6-1.1l5-.9a12 12 0 0 1 5.6-.5" class="b"/><path d="m13.8 184.8 26.2-2.4c3.2-.3 6.5 0 9.8-.4q3.7 0 7.3.7c1.6.2 3.3 1 5 .8 5.8-.6 9.6 3.5 14.7 5.4 4.4 1.7 9.2 1.5 13.9 1.6 4.3 0 8.7.5 13 0l18-2.3c5.7-1.2 11.5-1.6 17.3-2q6.1-.6 12.2-1.4c2.1-.5 4.4-.3 6.6-.5q6.1-.6 12.2-1.6c2.7-.6 5.5-1.6 8.2-1" class="b"/><path d="M13.8 183q11.5-.6 22.9-1.8c2.7-.3 5.4-1 8.2-1.2q2-.2 4-.2 1.7-.1 3.3-.4c5-.5 10 .8 14.8 2.2 4.1.5 7.6 3.2 11.4 4.8 3.6 1.7 7.6 2.2 11.5 2.5 4.3.3 8.7.6 13 0q8.3-1.4 16.4-2.2c2.8-.3 5.5-1.2 8.2-1.3 6.5-.5 13.1-.6 19.6-1.4q4.2-.4 8.2-1.2c3.6 0 7.1-.7 10.7-1.2q2.4-.3 4.9-.9c2.3-.6 5-1.2 7.3-.5" class="b"/><path d="m13.8 181.1 14.7-.7c3.5-.2 7.2-.2 10.6-1 3.8-.9 7.6-2.4 11.5-2.3 1.9-.4 3.8-1.1 5.7-1 4.9-.2 9.5 2 14 3.5 4.3 1.3 8.1 3.8 12.2 5.6q3.6 1.3 7.4 1.8 5.2.9 10.6.3c4.4-.5 8.7-1.8 13.1-2.3l6.6-.5q3.1-.8 6.5-1.1 4.1-.1 8.2-.1a239 239 0 0 0 31.9-3.5c3.8-.5 7.6-2.4 11.5-1.2" class="b"/><path d="M13.8 179.2c6.8-.2 13.6 0 20.4-.6q4.7 0 9-2a33 33 0 0 1 9-2.6l2.5-.9c3.4-.8 6.7.6 9.8 1.9 4.2 1.9 8.9 2.8 13 4.6 2.6 1.2 5 2.8 7.5 3.8 4.1 1.4 8.6 2.4 13 2.1s8.7-2 13.1-2.6a59 59 0 0 1 8.2-.6c1.6-.2 3.3-.8 5-1 2.9-.3 6 .1 9 .2q5.6-.2 11.4-.6 10.3-.5 20.4-2.4c4.5-.5 8.7-2.9 13.1-1.4" class="b"/><path d="M13.8 177.1c6 .2 12 .9 18 .3 2.7-.4 5.5-.2 8.1-1 4.3-1.3 7.9-4.4 12.3-5.3.8 0 1.7-.7 2.5-.8q2-.6 4 .4c2.6 1.1 4.8 3 7.4 4 4 1.4 8.3 1.2 12.3 2.5 2.6.8 4.9 2.6 7.3 3.7q4.8 2 9.9 2.5c3.6.2 7.2-.8 10.6-1.9a44 44 0 0 1 13.1-1.7q2.8-.8 5.7-.9 3.3.2 6.6.5 4.1.2 8.2 0 7.3-.6 14.7-.9 3.7-.4 7.4-1 3.3-.4 6.5-1.3 2.8-.8 5.7-1.2 2.1 0 4.1.6" class="b"/><path d="M13.8 175.3c6.5.7 13 1.7 19.6.6 2.7-.6 5.6-.2 8.2-1.3s4.9-3.1 7.3-4.5q2.7-1.5 5.8-2.5c2.3-.2 4.1 1.8 5.7 3.3s3.5 3.2 5.7 4c4 1.2 8.3-.7 12.3.1l3.3.8q2.4 1.2 4.9 2.6 3.6 1.6 7.3 2.5c5 1 9.4-.8 14-2.2q5.6-1.7 11.4-1.7 3.2-.8 6.6-.5c2.4.3 4.9 1 7.3 1 5 .3 9.9-.5 14.8-.5q4 0 8.1-.2c3.3-.7 6.6-.8 9.9-1.5 4.2-1.2 7.8-2.5 12.2-1.2" class="b"/><path d="M13.8 173.7c6 .8 12 2.1 18 1.3l4.9-1c1.9-.1 4 0 5.7-1 4-2.2 7.2-5.8 11.5-7.5 2.3-.3 3.7 2.2 4.9 3.7q2 3.2 4.9 5.5c6.8 4.2 11.1-3.9 19.6-.9 1.5.4 2.8 1.5 4.1 2.1q2.3 1.2 5 2 4.7 1.6 9.7.4c4.6-1.5 9.2-3.4 14-3.8 3.2-.2 6.5-1 9.8-.3 1.9.2 3.8.8 5.7 1q4.5.6 9 .3 6.5-.5 13.1-.3 2-.2 4-.5l5-.5c6-.3 9-3.4 15.6-1.6" class="b"/><path d="M13.8 172q4.8 1 9.8 1.7 3.3.8 6.5.5 3.8-.4 7.4-1.6c1.6-.2 3.4-.1 5-.8 3-1.4 5.4-4.2 8-6.3 1.1-.7 2.1-1.9 3.4-2 2 .3 3 2.8 4 4.4q1.8 3.2 4.1 5.8a9 9 0 0 0 9.9 1.6c2.2-1 4.2-2.5 6.5-3.3 2.4-1 5-.6 7.4.2l4 2.1c10.7 4.9 14.7.3 24.6-2.1q7-1.7 14 .3c5.8 1.7 12 1 18 1h6.5q4.8-1 9.8-1c2.8 0 5.5-.9 8.2-1.5q3.7-.7 7.3.2" class="b"/><path d="m13.8 170.3 9 1.6q3.1 1.4 6.5 1.2a30 30 0 0 0 8.2-1.5q2-.2 4-.8c3.5-.9 6-3.8 8.3-6.2q1.1-1.2 2.4-2.2.5-.6 1.7-.8c4.4 2.5 4.3 11.7 11.4 13 9.8 2 10.9-4 18-4.9q3.5 0 6.6 2 2.8 1.2 5.7 2 5.5 1.2 10.6-1c5-1.7 10.1-4.2 15.6-4q3.4 0 6.5 1.2c1.6.5 3.3 1.3 5 1.5 5 .8 10.3 0 15.5.4 2.5.1 5-.8 7.4-.9 2.7-.4 5.5.2 8.1-.1 4.6-.8 9.3-2.2 14-1" class="b"/><path d="m13.8 168.4 5.7 1.1q1.7.2 3.3 1c4.6 2.3 10 1.4 14.7 0 2.3-.2 4.4-1.2 6.6-2 1.8-1 3.4-2.8 4.9-4.4 1.4-1.5 2.7-3.9 4.9-4.2 2.2 1.2 2.9 4.4 4 6.5 2.7 5.8 4.7 6 10.7 6.6 9.5 1.2 11.3-5.4 18-5 2 .1 3.8 1.3 5.7 2 2.9 1.1 6 2 9 1.8 7.7-.7 14.2-6.6 22.1-5.7 3.7.3 7.2 2 10.7 3.3 3.7.9 7.6.4 11.4.5 2.8.2 5.5-.7 8.2-1q4.5-.3 9 .2c1.9 0 3.8-.6 5.7-.8q5-.6 9.9 0" class="b"/><path d="m13.8 166.5 7.3 1.6a15 15 0 0 0 9 2.5c2.5-.1 5-.8 7.4-1.2q2.5-.8 4.9-2c1.3-.7 3.1-.8 4-2q2.3-2.2 4.2-4.8c.8-1 1.9-2.3 3.3-2.5 2.3.9 3.5 6.3 4.9 8.4 2 4.2 5 3.7 9 4.2 12.9 2 13.1-4.7 20.4-4.5 2 .2 3.9 1.2 5.8 1.8 3 1 6.5 1.8 9.8 1.3 7-1 13-6.5 20.4-5.5 8.6 1.5 11.3 5.5 21.3 4q4.9-.8 9.8-1c2.7-.1 5.5.4 8.2.6q7.4-1.6 14.7-.4" class="b"/><path d="M13.8 165q1.6-.2 3.2.3 1.6.3 3.3.8c1.8 1.1 3.7 2.3 5.7 2.8q3.7.8 7.4 0 2.5-.3 5-1.3c2.5-1.4 5-3.6 8-3.6q2.4-2.3 4.2-5c.8-1 1.8-2.4 3.2-2.6l.9.3c2.8 3 2.9 8.3 6.5 10.7 1.2.7 2.8.7 4.1.9q2 .1 4.1.4c13 1.4 14-4.6 20.5-4.3 2.2.3 4.4 1.2 6.5 1.8a20 20 0 0 0 7.4 1c7.3-.6 13.7-6.2 21.2-5.2 4 .5 7.6 2.3 11.5 3.1 4.8 1.1 9.9 0 14.7-.2 4.1-.4 8.3.2 12.3.8q7.4-1.5 14.7 0" class="b"/><path d="M13.8 163.5q2-.3 4 .2c1.3 0 2.4 1 3.3 1.6 4.2 3 8.3 2.9 13.1 2 5-.5 7.7-7.3 13.1-5.7 2.5-1.8 3.5-6 6.6-6.8 3.8 1 3.6 9.3 8.1 10.8a47 47 0 0 0 18.9.1c3-.6 5.8-2.6 9-3.1 3.6-.4 7 1.7 10.6 2.2 4.2.8 8.4-.3 12.3-1.9 4-1.1 8-2.7 12.2-2.5 4.5.2 8.7 2.3 13.1 2.8s8.8-.1 13.1-.3c4.1-.4 8.3.3 12.3 1q7.4-1.3 14.7-.2" class="b"/><path d="M13.8 162q1.2-.3 2.4-.4l1.7.4c2 1.3 4 3.1 6.5 3.9 3.2 1 6.6.3 9.8-.1 5-1.5 8.1-10.2 14-6.7 2-1.7 2.9-5.2 5.7-6 4.2 1.3 3.8 8.6 8.2 10.3 3.1 1 6.5 1 9.8 1.3q1.2 0 2.4-.2c.8-.2 1.7-.7 2.5-.6q3.7 0 7.3-1c2.2-.4 4.4-1.4 6.6-1.9 3.9-.9 7.6 1.2 11.4 1.8 4.5.8 9-.8 13.1-2.1q2-.6 4.1-.8a27 27 0 0 1 5.8-.8c4.1-.2 8.1 1.4 12.2 2 4.6.6 9.4.3 14 0q3.7-.1 7.3.2c1.9.1 3.8.7 5.7.7q7-1.2 14-.3" class="b"/><path d="M13.8 160.3c1.9-.5 2.6-.6 4 .8 1.6 1.1 3.2 2.4 5 3.1q3.7 1.4 7.3.5 2.1-.2 4.1-.8c4.5-2.5 9-12.3 14.7-7.1 1.6-1.7 2.6-4.5 5-5.3 2 .3 3 2.9 4 4.5 1 2.2 2.5 4.6 5 5.5 2.3.9 5 .5 7.3 1q2.5.4 5 0 1.5-.7 3.2-1.2a42 42 0 0 0 12.3-1.6q3.7-.8 7.3-.1c2.7.6 5.4 1.5 8.2 1.4 3.6 0 7.1-1.3 10.6-2 2.7-.6 5.5-.6 8.2-1 3.9-.5 7.7.5 11.5 1.3 3 .6 6 .5 9 .7q4.9-.1 9.8-.5 4.5-.1 9 .7c4.6-.6 9.3-1.2 14-.7" class="b"/><path d="M13.8 158.5c1.6-.4 2.8 1.2 4 2 2 1.5 4.1 3 6.6 3.1q3 .1 5.7-.8c1.3-.4 3-.3 4.1-1 4-3.2 7.2-10 13.1-9 .9.3 1.6 1.3 2.5 1.4 1.3-1.5 2.5-4.5 4.9-4.2 3.9 2.5 4.4 9.5 9.8 10q2 0 4 .2 2.6.5 5 .5c2 0 3.9-1.3 5.7-1.9q4.1.4 8.2 0c3-.4 6-1 9-1q3.4-.1 6.6.8 2.8.7 5.7.5c3.3-.1 6.5-1.3 9.8-1.8 2.4-.4 5 0 7.4-.5 5.8-.9 11.4 1.7 17.1 1.5q5-.7 9.9 0 6.1-.9 12.2 0c4.4-.6 8.7-1.3 13.1-1" class="b"/><path d="M13.8 157.7c1.9.2 3.2 2.1 4.9 3 3.2 2.3 6.4 1.7 9.8.4q2.8-1 5.7-1.4c3-3 5.6-7.3 9.9-8.8 2.1-.7 4.3-.7 5.7 1.4 1.4-1.1 2.3-3.2 4-4 3.7-.5 5.3 8.7 9.9 9.5q2.5.3 4.9.4 2.4.3 5 .5c2.3 0 4.3-1.5 6.5-2.2 4.8.9 9.8.5 14.7 0a35 35 0 0 1 6.5 0c2.8.4 5.4 1 8.2.8 3.3 0 6.6-1.2 9.8-1.5 2.5-.4 5 .3 7.4-.3 4-.6 8.2.4 12.3.8 3 .2 6-.4 9-.4q3.7.1 7.3.5a44 44 0 0 1 10.7 0c4-.4 8.1-1.4 12.2-1" class="b"/><path d="M13.8 157.1c.9.1 1.7 1 2.4 1.5q1.6 1.1 3.3 2c2.5.9 5.1-.3 7.3-1.4 2-1 4.3-2 6.6-2.1 1.6.3 2.4-1.5 3.3-2.5l3.2-3.4q2.5-2 5.8-2.6c1.5-.3 3.1.1 4 1.4l.9.2c6.1-9.1 7 2.9 12.3 5.3 1.7.8 3.8.5 5.7.7 6 .8 6.7 1 12.3-2q6.4 1.5 13 1 4.1-.4 8.2-.2l4.1.6q3.7 0 7.4-.3 2.8-.6 5.7-1t5.7 0q3.3-.5 6.6-.5c3-.6 6 .3 9 .2l7.3-.2q4.2.2 8.2.8l5.8-.3 5.7.3c3.5-.5 7-1.2 10.6-1" class="b"/><path d="M13.8 156.6c1.8 1 3.5 2.7 5.7 3 5.4 0 8.3-6.6 15.6-5.6.9-.5 1.6-1.8 2.4-2.5q2-2.4 5-3.8c1.7-.6 3.7-1.2 5.6-.8 1 .3 1.8 1.4 2.5 2 6.6-9.3 6.9 1.6 12.3 4.6 1.7.8 3.8.5 5.7.7 2.2 0 4.4.7 6.5.6 2.7-.3 5-1.9 7.4-2.7 5.8 2 12 1.6 18 1.4 2.4 0 5 .7 7.4.5q3.7 0 7.3-.5c3.2-.7 6.6-1.3 9.8-.8q2-.4 4.1-.5 3.2-1 6.6-.8c3.8.6 7.6 0 11.4-.4q3.4 0 6.6.6 1.6.3 3.3.4l3.2-.2q3.8 0 7.4 1 2-.1 4-.5a35 35 0 0 1 6.6-.6" class="b"/><path d="M13.8 156c1.7 1 3.6 2.5 5.7 2 1.9-.4 3.5-1.8 5-3 3.1-3 6.8-5.2 11.4-4.2 2-1.6 3.8-4 6.5-4.9 1.8-.5 3.9-1 5.8-.7 1 .4 1.8 1.5 2.4 2.3.9-.6 1.7-1.8 2.5-2.6 2.9-3.3 4.9 1 6.5 3.2 2.6 4 4.6 4 9 4.1 3 .2 6 1.1 9 .3 2.2-.5 4.3-1.8 6.6-2.2 5.2 1.7 10.8 2 16.3 1.8 1.3 0 2.8.5 4.1.5q3.3 0 6.6-.3 4.5-.4 9-1.2c1.8-.3 3.8.2 5.7-.3l2.4-.3 2.5-.8q2.4-.5 4.9-.3c3.6.6 7.1-.3 10.6-.8q3.3-.3 6.6.1l3.2.5q3-.3 5.8-.4c1.9 0 3.8.7 5.7 1l6.6.3 4-.2" class="b"/><path d="M13.8 155.3c9.6 6 9.5-10.8 22.9-7.4 1.8-1.2 3.5-3.1 5.7-3.7 3.3-.8 6-1.6 8.2 1.8l.8-.3c6.5-9.4 6.8 3 13.1 4.2 2.7.4 5.5.3 8.2.8 4.5.9 8.8-1.1 13-2.2q4.5 1.3 9 1.8c2.2.4 4.5 0 6.6.6 4.6 1 9.3-.2 14-.6 1.8 0 3.8-.6 5.7-.8q2 0 4-.2l3.3-.6a17 17 0 0 1 4.1-1c1.9-.3 3.9 0 5.7 0q2.6 0 5-.7 2.8-.8 5.7-1.1 3.7 0 7.3.4 2.9-.6 5.8-.5c1.6 0 3.3.6 4.9.8q5.8 0 11.4 1.5" class="b"/><path d="M13.8 154.6c1.8.7 4 1 5.7-.3 3-2.4 5-6 8.2-8.1 2.9-1.8 6.6-1.7 9.8-1.1 1.6-.8 3-2.2 5-2.6 3.2-.8 6-1.1 8 2h1c7.2-10.4 6.4 3.9 15.5 3.7 3.2 0 6.5.8 9.8.7 3.6-.2 7-1.3 10.6-1.9 3.5.5 7 1.7 10.7 1.9 1.8.3 3.7 1.1 5.7 1.1 3.8 0 7.6-.9 11.5-1.2 2.7-.2 5.4-1 8.1-1q3-.4 5.8-.9a17 17 0 0 1 4-1l5 .1q2 0 4-.7c2-.5 3.9-1.3 5.8-1.6q4.1-.4 8.2-.2a17 17 0 0 1 5.7-.6c1.3 0 2.8.5 4 .5q6.4 0 12.3 2" class="b"/><path d="M13.8 153.6c6 1.3 8.4-5.7 12.2-8.8 2.7-2.3 6.5-2.5 9.9-2.4q1.2 0 2.4.2c.8-.1 1.7-.8 2.5-1.1 3.6-1.4 7.1-1.8 9.8 1.5l.8.2c6-8.7 6.6-1 12.3 2 1.7.8 3.8.9 5.7 1.1l6.6.6q4.8 0 9.8-.8c1.6-.2 3.3-.8 4.9-.5q2.8.8 5.7 1.3 2 .8 4.1 1.4c4 1 8.2-.2 12.3-.7l9-1.2c2.7-.1 5.4-.8 8.2-1.1q2.3-.9 4.9-1 2.4.1 4.9 0c2.8-.5 5.4-2 8.1-2.7q3.7-.7 7.4-.7 2-.6 4.1-.8c1.9-.2 3.9.3 5.7.4 4.5 0 8.9 1.2 13.1 2.4" class="b"/><path d="M13.8 152.2c5.5 0 7.9-5.8 11.4-9 2.2-2.1 5.4-2.4 8.2-2.8l4.1-.2c1 0 2.3.3 3.3-.3 2.3-.8 5-1.3 7.3-.1 1.2.5 2 1.9 3.3 2.1 6.2-8.9 6.8-1.3 13 1.3q3 .8 5.8 1 3.3.5 6.6.7 5.2.2 10.6-.4c2.3 0 4.4-.9 6.6-.1q1.6.6 3.2 1.6 2.8 1.3 5.8 1.3c2.7 0 5.5-.6 8.1-1 2.7-.5 5.6-.5 8.2-1.1 2.1-.6 4.4-.4 6.6-.8q2.4-.6 4.9-.7 2-.6 4-.8c2-.2 4 0 5.8-.3 2.8-.6 5.4-2.4 8.2-3.1q2.8-.7 5.7-1c1.3-.2 2.7-.8 4.1-.9 6.7-.1 13.2 1.5 19.6 3.2" class="b"/><path d="M13.8 150.4c6.3-.8 8.3-8.4 13.9-10.6 2.6-.8 5.5-1 8.2-1.4q2.5-.1 4.9 0c2.3-.8 5.1-1 7.3.3 1.1.5 2.1 1.6 3.3 2 6.3-9 7-2 14 .3q5.5 1.3 11.4 1.7a100 100 0 0 0 13.9.2q1.2-.2 2.4.1c1.5.3 2.8 1.2 4.1 1.8q2.3 1 5 1c3 .2 6-.7 9-1.1 2.6-.5 5.5-.5 8.1-1.2q3.2-.6 6.6-.6 3.1-.7 6.5-1l3.3-.5q3-.1 5.7-.5c2.6-.7 4.9-2.2 7.4-3.1q2.4-.9 4.9-1.3 2-.8 4-1.1a38 38 0 0 1 11.5 1.5l9 2.2" class="b"/><path d="M13.8 148.4c5.7-1.2 8.2-7.4 13-9.9q3.2-1 6.6-1.3a33 33 0 0 1 8.2-.6c4.2-.9 6.4 1 9.8 2.8 6.2-8.2 6.8-3.5 14-1 3 1 6.5 1.4 9.7 1.8 5 .7 9.8 1.5 14.8 1.4 1.3.2 2.7.8 4 1l5 1.4c5.2 1.3 10.3-1.2 15.5-1.5 2.5 0 5-1 7.4-1.2q2.4-.1 4.9 0 3.7-.7 7.3-1c3-.6 6.2-.4 9-1.2q3-1.4 5.8-2.9 2.4-.9 4.9-1.8c4.7-2.2 10-.4 14.7 1l9.8 2.3" class="b"/><path d="M13.8 146.3c5.4-1.3 8.3-6.7 13-9.1 2-1 4.4-1 6.6-1.5 2.4-.4 5-1 7.4-.8 1.3.2 2.8 0 4 .3 2.4.5 4.5 1.9 6.6 3 6.8-9.2 8.7-2.7 17.2-1.4 6.5 1 13 2.6 19.6 3.2q4 1.6 8.2 2.3c5.5 1 7.8.6 13.1-.8l4-.7q2.3 0 4.2-.7 4.4-1.3 9-.6c1.6.3 3.3-.3 4.9-.4 3.8-.3 7.7-.5 11.5-1.4 1.7-.3 3.3-1.5 4.9-2.4l5.7-2.9c2.5-1.1 5.5-.8 8.2-.2 5.3 1.7 10.7 3.6 16.3 4.3" class="b"/><path d="M13.8 144.3c5.2-1.2 8.5-5.8 13-8.3 1.8-1 3.9-1.2 5.8-1.6q3.6-.8 7.4-1.1 2.5 0 4.9.6 3.3 1.3 6.5 3c6.6-8.3 8.7-4.2 17.2-2.5q9 2 18 3.6 1.2.8 2.4 1.2 2.4.8 5 1.2c6 1 8.8 1.3 14.7-.6q3.2-.9 6.5-1.2 2-.7 4.1-1.3 2.9-.8 5.8-.2 1.6.3 3.2.7l2.5-.2c3.8-.4 7.7-.2 11.4-1.2 3.7-.7 6.8-3 9.9-5 4.3-2.8 9.6-.7 13.9 1.1q6 2.3 12.2 3" class="b"/><path d="M13.8 142.5c5.7-1 9.6-5.8 14.7-8.2q2.8-1 5.7-1.5 3.7-1 7.4-1 2.6.3 4.9 1.4t5 1.8c1.7-1.6 3.2-3.8 5.6-4.4 2.5-.6 5 0 7.4.6l6.6 1.6q6.4 1.6 13 2.8c1.2 0 2.3 1.1 3.3 1.6q1.9 1 4.1 1.1c4 .5 8.2 1.3 12.3.8q3.3-.8 6.5-1.9c1.6-.4 3.4-.4 5-1.1a15 15 0 0 1 10.6-1.4c1.6.3 3.2 1.5 4.9 1.2q5.7-.3 11.4-.9 3-.8 5.8-2.5c1.8-1.2 3.6-2.8 5.7-3.5 4-1.3 8 .6 11.5 2.3q6.3 2.6 13 3" class="b"/><path d="M13.8 140.7c5.9-.7 10.6-4.8 15.5-7.7 1.8-1 3.9-1.2 5.8-1.7q3.1-.9 6.5-.9 3 .2 5.7 1.3l4.1 1.1c1-.3 1.7-1.3 2.5-2q1.5-1 3.2-1.7c4.9-1 10.9 1 15.6 2.3q3.6 1.2 7.4 2c1.3.2 2.8 0 4 .6 2 1.2 4 2.6 6.6 2.5 4.6.2 9.3.8 13.9.2 1.7-.3 3.3-1.2 5-1.6 1.5-.5 3.4-.7 4.8-1.6 3.8-2 8.2-3.2 12.3-1.4l3.3 1.5q.7.5 1.6.4c4-.2 8.2-.9 12.3-.9 3-1 5.4-3.3 8.1-5 4-2.2 8.7-.1 12.3 1.8q2.3 1 5 1.6 4.3 1.4 9 1.6" class="b"/><path d="M13.8 138.8c7.9 0 8-3.5 13.9-6.5 1.8-.9 3.8-1 5.7-1.5 2.4-.6 4.9-1.7 7.4-1.9 3.8 0 7.7 1.8 11.4 1.7q3.1-3 7.4-3.4c4.4-.1 8.9 1.1 13 2.4q3.3 1.1 6.6 2l3.3.8 2.4 1.1q2 .9 4.1 1h5q4.8.1 9.8-.5 3-.5 5.7-1.7c1.3-.4 2.9-.8 4-1.5 4-2 8.8-3.8 13.2-2 1.7.7 3.3 2 4.9 3 4-.4 8.2-1.2 12.3-.8 1.5.4 2.9-.8 4-1.6 2-1.4 4-3.3 6.6-3.6q3.4 0 6.6 1.3 4.2 2.3 9 3.2 4 1.3 8.1 1.3" class="b"/><path d="M13.8 136.6c5.8 1.4 8.3-3 13-5 1.9-.8 4-.8 5.8-1.3 2.5-.7 4.9-1.8 7.4-2.5 1.5-.4 3.3 0 4.9 0l7.3 1c4.7-3.8 9.2-3.9 14.7-2.6 6 1.3 11.5 3.7 17.2 5.4 2.4.7 5 .3 7.4.4q6 .3 12.3-.9 3-.5 5.7-1.7 2-.7 4-1.6c6-3 13.2-4.5 18 1 .8.4 1.8.1 2.5 0l4.1-.5q2-.2 4.1 0c1.3 0 2.8.5 4.1.7 2.6-1.6 5-4.4 8.2-4.5q3.8.1 7.3 1.7a41 41 0 0 0 16.4 3.9" class="b"/><path d="M13.8 134.1c5.6 3.3 10-3.7 15.5-4 8-1.3 9.4-4.6 18.8-3.6 1.6 0 3.4.4 5 0 4-3 9-3.3 13.9-2.3q4.5 1.1 9 2.8c2 .8 4.2 1.8 6.5 2 2.2.5 4.4 0 6.6-.2h9q3.7.1 7.3-1 4-1.7 8.2-2.6 5-2.3 10.6-2.6 5-.1 8.2 3.5c3.2-.4 6.6-1.2 9.8-.8q2.5.6 5 1.6c5-4.2 6.8-4.5 13-2.6 2.8.9 5.4 2.2 8.2 2.9q4.8 1.3 9.8 1.1" class="b"/><path d="M13.8 132.2c5 3.3 9.1-1.4 13.9-2.6q3.3-.6 6.5-1.6 4.5-1.8 9-2.9a32 32 0 0 1 9.8-.2c1.4-.5 2.8-1.5 4.1-2q2.8-1 5.8-1 5.5.3 10.6 2.2c2.2.7 4.3 2 6.6 2.4 2.4.4 5-.4 7.3-.7q3.3-.1 6.6 0 3.7 0 7.3-.3 3.8-.7 7.4-2.1c2.7-1 5.6-.8 8.2-1.7q2.4-.7 4.9-.9 3.3-.6 6.5-.2a8 8 0 0 1 3.3 1.5c.3.4 1.2 1 1.6 1.2 3.2-.7 6.6-1.4 9.9-.7 1.7.4 3.2 1.7 4.9 2 1.8-1.4 4-2.9 6.5-2.8 3.4.3 6.7 1.4 9.8 2.4q6.8 2.5 14 2.2" class="b"/><path d="M13.8 130.2c4.7 3.8 8.4.4 13-1.3q3-.7 5.8-1.4c2.7-.8 5.4-2 8.2-2.7a33 33 0 0 1 13-1.7q2.1-1 4.2-2c4.7-1.5 10-.7 14.7.7 2.2.7 4.3 1.9 6.5 2.5 3 0 6-1.4 9-1.3q8.3.6 16.4-1.3 3.2-.9 6.5-1.5 3.8-.3 7.4-.7l7.4-.9c2.6-.3 5.4.1 7.3 2 3.2-.5 6.6-1.2 9.8-.5 1.8.5 3.4 1.6 5 2.4 1.1 0 2.1-1.1 3.2-1.5 3.5-1.3 7.3.2 10.7 1.1a44 44 0 0 0 16.3 2.5" class="b"/><path d="M13.8 128.2c5.8 5.6 10-.3 16.3-1.2 5.6-1 10.9-3.4 16.4-4.9a27 27 0 0 1 8.2-.7l1.6-.7c5-2.6 11-2.3 16.4-.8l4 1.4c1 .4 2.2 1.2 3.3.9 3-.5 6-2 9-1.5 6.7.7 13.2-1.2 19.7-2.2q6.5-.6 13-.8c2.5-.1 5-.7 7.4-.7 1 0 2.4.2 3.3.7l.8.5.8.1c3.2-.5 6.7-.9 9.9 0 1.7.6 3.2 1.9 4.9 2.6 4.6-3.4 10.5-1 15.5.5 4.5 1.3 9.2 2.3 14 2" class="b"/><path d="M13.8 125.9c5 5.7 8 3 13.9.8 3.5-1.1 7.2-1.6 10.6-2.8 4.8-1.8 9.6-3.9 14.8-4h2.4c.8-.1 1.7-.7 2.5-1q2.6-1.2 5.7-1.5 5.8-.6 11.4 1.3c5.9 2 3.8 2.4 9.9.2 2-.7 4.4 0 6.5 0q3.8 0 7.4-.7t7.3-1.2q5.4-.3 10.7-.7 1.6 0 3.2.2 2.1 0 4.1-.2 3.3-.7 6.6-.7c1.4 0 2.7 1 4 .7 3-.3 6.2-.5 9 .4 1.8.6 3.4 1.8 5 2.6 4.8-3 10.5-.9 15.5.6 4.5 1.3 9.2 2.5 14 2.3" class="b"/><path d="M13.8 123.4c5.4 7 7.7 4.7 14.7 2 2.6-1 5.5-1.2 8.2-2 4.3-1.6 8.5-3.6 13-4.4 2.5-.4 5-.2 7.4-.6q2-1 4.1-1.6 3.2-1 6.6-1 2-.2 4 0c2.3.3 4.5 1.3 6.6 2l2.5 1c2.5 0 4.7-2.4 7.3-2.1q3.3.5 6.6.3c3.3-.3 6.5-1.2 9.8-1.6 2.7-.3 5.5-.1 8.2-.3 2.1 0 4.4-.6 6.5 0 4.1.8 8.2-1 12.3-.8.4 0 1.3.2 1.6.4q2.9-.1 5.8-.1 3 0 5.7 1.2c1.3.6 2.7 1.6 4 2 5-2.7 10.6-1 15.6.5a49 49 0 0 0 14 2.6" class="b"/><path d="M13.8 120.8c2 2.8 4.9 6.8 9 5.8 2-.5 3.8-1.6 5.7-2.3 2.6-1 5.5-1.1 8.2-2q4.4-2.1 9-3.6 2.8-.8 5.7-1.3l6.6-.3c2.1-.6 4.2-1.7 6.5-2 1.4-.3 2.7-1.2 4.1-1.5a13 13 0 0 1 8.2.8c2.1.9 4.2 2.4 6.5 2.7q2.1-.9 4.1-1.9c1.3-.4 2.8-.1 4.1 0q2.4.4 5 0c2.7-.2 5.4-1 8.1-1.5q3.2-.4 6.6-.3l5.7-.3c1.6.3 3.2.9 4.9.9 2.7 0 5.5-.8 8.2-1q1.6-.2 3.2.2h5q3 .2 5.7 1.1c1.6.6 3.1 2 4.9 2.2 4.9-2.7 10.5-1.2 15.5.2 4.6 1.3 9.2 2.7 14 2.9" class="b"/><path d="M13.8 118c2.2 3 4.6 7.7 9 7.4 2-.3 3.8-1.4 5.7-2.1q3.5-1.4 7.4-1.8c1.4-.4 2.7-1.5 4-2q5.5-2.8 11.5-3.6 3.7-.1 7.4-.3c1.4.1 2.8-.6 4-1 2.1-.6 3.8-2.2 5.8-2.9 3.4-1.3 7.4-.7 10.6.8l2.5 1.5 3.3 1.3c1.4-.4 2.7-1.3 4-1.8q2-.3 4.1.2 2.5.3 5 0c3.5-.4 7-1.8 10.6-2q4.1-.5 8.2-.3c1.3.2 2.7.8 4 1 3 .3 6-.6 9-.8 4.1.4 8.3.1 12.3 1.1 2 .6 3.9 1.7 5.8 2.5l1.6-.4 2.4-.9q2-.5 4.1-.3c7.5.6 14.6 3.9 22.1 4.5" class="b"/><path d="M13.8 115.2c2.3 3 4.7 8.5 9 8.9 2 0 3.9-1.2 5.7-2 2.5-1.3 5.4-1.7 8.2-2.2l4-2.5q5.8-3.1 12.3-3.4h6.6c3.9.5 5.2-1.8 8.2-3.6 3.6-2.2 8.4-1.7 12.2-.3q1.3.5 2.5 1.3 2.4.8 4.9 1.7c1-.2 2.2-.9 3.3-1.1 3-.5 6 .7 9 .2 2.5-.3 5-1.2 7.3-1.8q3.7-.7 7.4-.8c2-.3 3.9.3 5.7.7q2 .5 4.1.3c1.9-.1 3.9-.5 5.7-.4 3 .3 6 .3 9 .8 3.2.3 6.1 1.9 9 3 1.4-.3 2.6-1.6 4.1-1.7q2.4-.4 5 0 2 0 4 .4c5.7 1.3 11.4 2.9 17.2 3.6" class="b"/><path d="M13.8 114q1.7.7 2.4 2.2c.7 1 1.7 2.5 2.5 3.4 4.2 5.5 7.4 2.3 12.2 0 2-.8 4.5-.9 6.6-1.6l4-3a26 26 0 0 1 14-3h4c1.4.1 2.9.5 4.2.3 2.4-1.6 4.4-4.1 7.3-4.9 3.8-.8 7.9 0 11.5 1.2a33 33 0 0 1 7.4 2.3c.4.1 1.2 0 1.6-.2l2.4-.2q3 .2 5.8.3 3 0 5.7-.9 3.2-.8 6.6-1.4c1.3-.2 2.7-.7 4-.7 2.5 0 5 .9 7.4.9h5l4 .3q7.2.4 14 3.1c1 .6 2.2-.1 3.2-.7q2-.7 4-.7 6 0 11.5 1.3 6.6 1.5 13.1 2.6" class="b"/><path d="M13.8 113.3q1.7.8 3.2 1.7c1.9 2.7 4.3 7 8.2 6 2.4-.6 4.3-2.4 6.6-3.3q2.8-1 5.7-1.7 1-.1 1.6-.9l2.5-2q2.6-1.8 5.7-2.6c4.8-.9 10-1.4 14.8 0q2.4.6 4-1.3c4.5-4.8 7.9-4.2 14-3.4 4.4.7 9 1.6 13 3.5 3.3-.3 6.6.2 9.9 0q3.7-.5 7.3-1.5 1.6-.8 3.3-1.2c2.4-.7 5-.4 7.4-.2q3.3.3 6.5.6c4 .7 8.3.9 12.3 1.9q2 .3 4 1l2.5.7 1.6-.2c3.9-1.8 8.2-.9 12.3-.9q9 1.5 18 3.2" class="b"/><path d="m13.8 112.9 4 1.5c1 .5 1.8 2 2.5 2.8 1.2 1.5 3 2.9 5 2.4 2.4-.6 4.3-2.7 6.5-3.9q3.1-1.4 6.5-2.5l1.7-.5 2.4-2.1q2.2-1.7 5-2.5a26 26 0 0 1 14.7.2q1.6.2 3.2.2a4 4 0 0 0 1.7-1.3c4.3-5.1 8-3.6 13.9-3q4.9.7 9.8 1.8l3.3 1q1.1.6 2.4.8c4.4 0 8.8.1 13.1-1q2.4-1 5-1.8c4-.8 8.2-.4 12.2.4a223 223 0 0 1 17.2 3q1.6.6 3.2.4c1.7-.1 3.3-.8 5-.8q4-.2 8.1 0l18 2.7" class="b"/><path d="M13.8 112.3q2.8 1.1 5.7 1.9c2.3 2 3.7 5.3 7.4 3.2 1.7-1 3.2-2.7 4.9-3.9q2-1.2 4-2.2l6.6-2.8q1.8-1.6 4.1-2.6 4.8-1.6 9.8-1.2c3.3.2 6.6 1.2 9.8 1.8 1-.4 1.8-1.6 2.5-2.3 2.5-2.8 5.6-2.5 9-1.9q3.7.5 7.4 1.3c2.7.4 5.5.5 8.1 1.2q2.5.6 5 1.5 5.6.1 11.4-.7c3-.8 5.9-2.2 9-2.2q3-.2 5.7.4 5.8.5 11.5 1.7 3.7.7 7.4 1.2 2.4.7 4.9.4 2.5-.5 4.9-.5h8.1l17.2 2" class="b"/><path d="M13.8 111.5q3.6 1.4 7.3 2.4c2.6 2.9 4.4 3.5 7.4.6q2-2.1 4-3.9l5-3.1q2.4-1.3 4.9-2.3 1.3-.4 2.4-1.1c3.4-2.2 7.7-2.3 11.5-2 3.7-.3 7.3 1.2 10.6 2.6 3.4-4.5 5.3-5.4 10.7-3.8q3.3.6 6.5 1.4 3.3.5 6.6.6 3 0 5.7.8 1.6.5 3.3 1 4.9 0 9.8-.7c2.5-.2 5-1 7.4-1.3q4-.4 8.1-.2c6 .5 12 2.1 18 2.6q4.1.7 8.2.2 3.8-.2 7.4-.2c2.7-.2 5.5.3 8.2.5q5.7.4 11.4 1" class="b"/><path d="M13.8 110.4q3.9 1.8 8.1 2.6c1.2.4 2 1.6 3.3 1.6 3.5-.4 5.4-5.2 8.2-7 3.3-3 7.2-5.4 11.5-6.4 2.3-1.6 5.3-1.9 8.1-1.8 2.4.2 5 0 7.4.4s4.5 1.8 6.5 3c1-.6 1.7-1.8 2.5-2.6 2.1-2.3 4.7-1.8 7.3-.8q2.8 1.2 5.8 1.4 3.3.7 6.5.7 5.9-.1 11.5 1.4 4.1.1 8.2-.4c5.1-.6 10.3-1.7 15.5-1.4 6.3.4 12.5 2 18.8 2.5 5.5.6 11 0 16.4 0l18.8 1" class="b"/><path d="M13.8 108.8q4.2 2.3 9 3.2c.7.1 1.6.7 2.4.8 2.3 0 3.7-2.3 5-3.9q2.4-3.5 5.7-6.2 3.9-3.4 9-4.6c2.9-1.7 6.5-1.2 9.8-1 5.5.5 7.7-.1 12.2 3.9q1.1-.5 1.7-1.6c.8-1 2-2.2 3.3-2.5 2.6-.2 4.9 1.6 7.3 2.4s5 .6 7.4.8c3.2.2 6.6 0 9.8.3l5 .9q2.8 0 5.6-.2c5-.5 9.8-1.5 14.8-1.4 7.4.2 14.7 1.8 22 2.5q7.5.5 14.8 0 9.8.2 19.6.6" class="b"/><path d="M13.8 107a26 26 0 0 0 7.3 3c1.6.4 3.3 1 5 .8 2.6-1.2 4-4.3 5.7-6.5 2.2-2.9 4.9-5.8 8.1-7.4 1.9-1 4-1.3 5.8-2.2 3-.7 6 0 9 .2 5.8.7 7.9-.2 12.3 4.4.5-.2 1.3-1.2 1.6-1.7.6-.8 1.5-1.8 2.4-2.2 2.4-.7 4.6 1.2 6.6 2.1q2.7 1.5 5.7 1.5a79.7 79.7 0 0 1 12.3-.2q3.3.3 6.5.8h4.1c5-.5 9.8-1.5 14.8-1.3q3.3.1 6.5.5l6.6.5c3.8.5 7.6 1.4 11.4 1.6q8.6.4 17.2.2 7.8-.4 15.6-.2" class="b"/><path d="M13.8 104.8q5.1 3.7 11.4 4c2.4-.3 3.7-3 5-4.7 2.7-4.4 6.2-9.2 11.4-10.8q1.3-.3 2.5-1 1.6-.5 3.2-.4 5.3.8 10.7 1.3c4.9.2 5.8 1.1 9 4.7 1.2-1.5 2-3.8 4-4.4 2.2-.2 4 1.6 5.8 2.5q2.6 1.6 5.7 2c3.3.4 6.5-1.1 9.8-1q5 .3 9.9 1 2.8.1 5.7-.2c4-.4 8.2-1 12.3-.9q3.7.2 7.3.6 3.3.2 6.6.2c4.9.6 9.7 2.2 14.7 2.2q8.2.4 16.3-.3 6.6-.6 13.1-.6" class="b"/><path d="M13.8 102.4c3.2 2.5 7.2 4.6 11.4 4.3 3.4-1.5 4.6-5.6 6.6-8.3 1.7-2.5 4-5 6.5-6.6q1.6-.8 3.3-1.3 1.2-.8 2.5-1.1c2.1-.4 4.4.4 6.5.8 3.5.8 7.2.7 10.6 1.4 2.2.5 3.6 2.6 5 4.2l.8.1c5-10 6.8 1.3 17.2 1 3 0 6-1.2 9-1.4 3.2 0 6.5.9 9.8 1 6 .1 12-1.4 18-.9l6.5.6q3.3-.5 6.6-.2c2.7.3 5.5 1.2 8.1 1.9q3.7.8 7.4 1l9-.1 9-1.2 6.6-.3 4-.4" class="b"/><path d="M13.8 99.9c2.5 2.2 5.5 4.3 9 4.6 4.4.6 6.6-6.8 9-9.7 1.8-2.3 4-4.7 6.5-6.1q1.2-.6 2.5-1 1-.9 2.4-1c2.5-.2 5 1 7.4 1.4 3.7 1 8 .2 11.4 2 1.7 1.2 2.8 3.3 4.1 4.7 5.3-11.4 6.1.6 18 .7 3.6.1 7.1-1.2 10.7-1.3 3-.1 6 .8 9 .8 3.8 0 7.6-.6 11.4-.8q4.5-.1 9 .2c4.4-.4 8.9-.7 13.1.5q3.3 1.2 6.6 2 5.6 1.3 11.4.8c4.2-.1 8.2-1.3 12.3-1.9q3-.2 5.7-.2 2.4-.4 5-.7" class="b"/><path d="M13.8 97.5c2.3 1.8 5.9 5 9 4.7 3.8-1.2 5.2-5.8 7.3-8.8q2.3-3.9 5.8-6.5 1.8-1.4 4-2c3.3-2.4 7.2.9 10.7 1.2 2.1.4 4.4.1 6.5.4 4.5.7 5.9 2.5 8.2 6.1 6-11.3 5.4 1.7 21.3 1.2 3-.1 6-.9 9-1s6 .7 9 .6q6-.2 12.3-.7h4.9a53 53 0 0 1 6.5-.5q4.6-.1 9 1c3.5 1.3 7 2.8 10.7 3.2q4.9.5 9.8-.2c3-.5 6-1.5 9-2q3.3-.6 6.5-.4c1.6-.1 3.3-.7 5-.8" class="b"/><path d="M13.8 96.4c9 8.6 11.9-.6 16.3-7.6q2-2.9 5-5c1.4-1 3.2-1.3 4.8-2s3.4-.1 5 .5q3.1 1.3 6.5 1.7 2.4-.1 5-.1a11 11 0 0 1 4.8 2.1c1.3 1.3 2.4 3.2 3.3 4.7 3.7-8.5 5.7-3.6 11.5-1A30 30 0 0 0 87.4 92c3.5 0 7.1-.6 10.7-.5l4.9.3 7.3-.5q4.5 0 9-.2 2.1-.2 4.1-.5a41 41 0 0 1 14 1c3.1 1.3 6.3 2.9 9.7 3.4q5.8.8 11.5-.3c2.7-.6 5.4-1.7 8.2-2.2q3.7-.8 7.3-.5l4.1-.8" class="b"/><path d="M13.8 95.2c8 7.4 11.7-4.8 15.5-10.1q2.6-3.3 6.6-5 2.8-.8 5.7-1 2.5.5 5 1.4 2.7.8 5.6.8c4.1-.4 5.1-.1 8.2 2.7l1.7 2.3c.2.6 1 1.8 1.6 2 1-2.6 2.5-5.9 5.7-4 2.5 1.2 4.8 3 7.4 3.8q6 1.8 12.3 2h8.1c1.6 0 3.3.3 5 .1 3.7-.3 7.6-1 11.4-.8q3 .1 5.7 0 4.5-1.1 9-.9 4.6.4 9 1.5c2.7 1.2 5.4 2.6 8.2 3.3q2.9.7 5.7.7 3.8-.3 7.4-.9c2.8-.3 5.4-1.6 8.2-2.2q3.7-.7 7.3-.6l4.1-.8" class="b"/><path d="M13.8 93.7c8.9 6.7 10.9-11.2 17.2-14.2 3-2.2 7-2.6 10.6-2.7 1.9 0 3.8.7 5.7 1 2.4.4 5 .1 7.4.5 3.6 1.3 5.7 5.3 7.3 8.5 1.2-1.8 1.8-5 4.1-5.4 1.8 0 3.4 1 5 1.9q2.6 1.6 5.7 2.6c3.7 1.2 7.6 1.6 11.4 2.1q4.1.5 8.2.5 2 .2 4.1.2c3.3-.2 6.5-1 9.8-1.1 2.5-.2 5 .3 7.4.2 2.7-.3 5.4-1.2 8.2-1q5.3.1 10.6 1.4c2.5 1 4.9 2.4 7.4 3.2a23 23 0 0 0 5.7 1.2q3 0 5.7-.5 5-.5 9.8-2 4.1-1 8.2-1.2 2.4-.6 5-.9" class="b"/><path d="M13.8 91.8c7.4 5.4 10-10.5 14.7-13.8 4-3 9.2-3.1 14-3.4q4-.1 8 .4c5.4.3 7.8 5.9 10 10 1.4-1.4 1.6-4 3.2-5.5 1.4-1.3 3.4-.4 4.9.4q2.8 1.7 5.7 3c4.2 1.8 8.7 2 13.1 2.8q6 1.2 12.3 1.3c3-.2 6-1 9-1.2q4.1-.2 8.2.3c2.4-.2 4.9-.9 7.3-1q5.8 0 11.5 1.4 3.3 1.4 6.5 3c5.3 2.1 10 2.3 15.6 1.3 6.8-1 13.5-3.3 20.4-3.9" class="b"/><path d="M13.8 89.7c5.9 4.1 8.9-7 11.4-10.6 1.7-3.1 4.1-4.4 7.4-5.2q4.1-.9 8.2-1.3c3.5-.6 7.3-.4 10.6 1.1 3.8 2 5.6 6.3 7.4 10 2-2.1 1.8-6.4 4.9-7.6 1.4-.3 2.9.5 4 1.2q2.4 1.6 5 2.8 5.8 2.5 12.3 3c4.6.5 9.2 2 13.9 2 2.4 0 4.9-.6 7.3-.9q5-.5 9.8.2l5.8-.8q4.1-.4 8.1.3c2 .4 4 .5 5.8 1.2 5.5 2.4 11 5.4 17.2 5.4 5.2-.1 10.4-1.5 15.5-2.5q4.8-1.4 9.8-1.7" class="b"/><path d="M13.8 87.5c2.8 1.8 4.9.2 6.5-2.2 1.8-2.7 3.2-6 5-8.7a8 8 0 0 1 5.7-4q4-1 8.1-1.7c3-.7 6.1-1.3 9-.3 5.1 1.2 7.2 6.6 9 10.9 2-3 3.2-10.8 8.2-7.8 2.2 1.4 4.2 3.2 6.6 4.2 3.6 1.6 7.6 2 11.4 3 2.2.4 4.5.3 6.6.8 3.2.7 6.5 1.8 9.8 1.5 3.5-.4 7-1 10.6-.9q2.5 0 5 .4 2.8-.4 5.7-.7 4.5-.4 9 .4 2.5.3 4.9 1c3.6 1.4 7 3.5 10.6 4.6 3 1 6 2 9 1.8q6.6-.7 13.1-2.2 5.2-1.3 10.7-1.5" class="b"/><path d="M13.8 85.5c1.6.5 3.5.7 4.9-.6 2.5-2.3 4-5.8 5.7-8.7s3.3-4.5 6.6-5.2q5.6-1.6 11.4-2.8c3-.4 5.9.8 8.2 2.5 2.5 2 3.2 5.4 5 7.9 1.5-3.6 3.8-11.8 9-7.2 2 1.7 4 3.6 6.5 4.6 3.4 1.3 7 1.6 10.6 2.3a88 88 0 0 0 9.8 1.7c2.7.5 5.4 1.6 8.2 1.3q5.3-.6 10.6-.5l4.1.2 5.8-.5q7-.6 13.9 1.4c4.4 1.7 8.5 4.4 13 5.7q4.1 1.7 8.2 1.5c7.7-.6 15.2-3 23-3.2" class="b"/><path d="M13.8 83.3c1.8.3 4.3.3 5.7-1.1 3.5-3.5 4.8-9 9-11.9 2-1 4.4-1.4 6.6-2.1 2.3-.7 4.8-1.6 7.3-1.6 2.8 0 5.3 1.8 7.4 3.5 1.4 1.4 2.1 3.6 3.2 5.2 2.1-4 4.7-11.9 9.9-6.4 2 2 4 4 6.5 5.2 3.1 1.3 6.6 1.1 9.8 1.6 2.8.3 5.5 1.1 8.2 1.6q5.7 1.1 11.5 2.2c3.5 0 7-.5 10.6-.3s7.1-.4 10.6-.3c4.4-.1 9 0 13.1 1.5 4.8 1.8 9 4.8 14 6.3 2.6.8 5.3 1.8 8.1 1.6 5-.3 9.8-1.4 14.7-2 2.7-.6 5.5-.5 8.2-.8" class="b"/><path d="M13.8 81c2.3.2 4.6-.8 6.5-2 1.4-.7 2.4-2.4 3.3-3.7 1.4-2 2.9-4.4 4.9-6q2-1.4 4-1.8l5-1.5c5.4-1.6 8.3 1.7 11.5 5.5l.8.2c2-2.5 3.4-6 6.5-7.4 5-1.2 7.5 10.4 18.9 9.6q2.4-.2 4.9-.2 3.3.3 6.5 1.2l6.6 1.3q2.8.7 5.7 1.3c7 .6 14.2-.5 21.3-.2 4 0 8.3.3 12.2 1.7 4.3 1.5 8.1 4 12.3 5.9q4.8 2 9.8 2.5c4.4 0 8.8-1.1 13.1-1.6 3.5-.6 7.2-.5 10.7-1.1" class="b"/><path d="M13.8 78.7c4.2-.1 7.4-3.3 10.6-5.7 2-1.7 3.4-4.2 5.7-5.5q3.5-2 7.4-2.2c3-.2 5.7 1.9 7.4 4.3 1.3-.8 2-2.7 3.2-3.6 2-1.7 3.9-4.2 6.6-4.3 3.4.4 5.6 4.7 8.2 6.8 2.3 2 5 4 8.1 4.5 3.4.5 6.6-1.2 9.9-1.2 2.4 0 5 .7 7.3 1.2l7.4 1.5c3.4 1 7 1 10.6 1q6.2 0 12.3.2c3.8.1 7.7.2 11.4 1.2 4.7 1.3 8.8 4.1 13.1 6.2q5.8 3 12.3 3.3c4.1 0 8.2-1 12.3-1.6 3.5-.6 7.2-.3 10.6-1.2" class="b"/><path d="M13.8 76.5c5.5-.5 9-5.6 13.9-7.7 1.8-1.1 3.6-2.7 5.7-3.2 3-.9 6.3.3 8.2 2.7l.8-.4c1.8-3.5 4.3-7 8.2-8s6.6 2.9 9 5.3c2.6 2.6 5.4 5.4 9 6.7C73.9 73.4 78.8 69 84 70l16.4 3.2q8.6.3 17.2.9c4 .2 8.3.2 12.3 1.4 9.2 3 15.5 10.2 26.1 9.8 3.9-.1 7.7-1.2 11.5-1.8 3.5-.5 7.2-.3 10.6-1.3" class="b"/><path d="M13.8 74.4c4.7-.1 8.1-4.2 12.2-6q1.6-.7 3.3-1 5.4-3.6 9.8.9c1.7-3 3-6.4 5.8-8.5 2.6-2 6.3-2 9 0C58.3 63 61.4 68 66 70.7c5.8 2.3 11.4-2.5 17.2-2.4q3.8 0 7.4 1l9.8 1.8q2.8.5 5.7.5l8.2.7c4.6.4 9.4.4 14 1.3 10.8 2.7 16.7 12 29.4 10.3 3.5-.5 7-1.7 10.6-2.1 3.3-.4 6.7 0 9.8-1.2" class="b"/><path d="M13.8 72.4c4.2 0 7.6-3.1 11.4-4.7q2.3-1 5-1a7 7 0 0 1 6.5 1.4c1-1.1 1.7-3.3 2.4-4.6q1.1-1.8 2.5-3.5c3.5-4 9.3-3 13 .1 4.2 3 6.5 8.4 11.5 9.9 2.5.5 5-.5 7.4-1.2 3-1 6-2 9-2.2q4.5-.5 9 .7l8.2 1.5c6 1.1 12 1.3 18 2q8.8.5 17.2 3.7c3.1 1.3 6 3.5 9 5a23 23 0 0 0 18.8 1.5q4-1.4 8.2-1.7c2.4-.2 5 .3 7.3-.7" class="b"/><path d="M13.8 70.3c5.5 0 10-4.9 15.5-4.4 2 .2 3.8 1.7 5.8 1.7 1.9-3.6 3.4-8.2 7.3-10.2 3.7-1.6 8.2-.9 11.5 1.4 4 2.8 6.2 8.6 11.4 9.6 2.8.4 5.6-.9 8.2-1.7q4-1.4 8.2-1.7c6-.8 12 .8 18 1.9 5.4 1 10.9 1.4 16.3 2 7.4.5 14.7 2.8 21.3 6 9.2 4.2 14.1 8 24.6 4.2q3.2-1.2 6.5-2.1 4.9-1 9.8-.8" class="b"/><path d="M13.8 68.3c5.4 0 10-4.2 15.5-3.6q1.3.2 2.5.9.7.5 1.6.5c2.3-2.2 3.2-5.9 5.7-8 3.6-2.8 9-3.2 13.1-1.4 4.5 2.3 6.5 8 11.5 9.6 2.5.7 5-.3 7.4-1q4-1.6 8.1-1.8 9.2-.9 18 1.1 8.2 1.7 16.4 2.3 3.7.4 7.4 1 7.1 1.6 13.9 4.9c5.4 2.5 11 5.6 17.1 5.8 2.8.2 5.6-.6 8.2-1.2s4.9-2.1 7.4-3c3.4-.9 7-1.9 10.6-2" class="b"/><path d="M13.8 66.4c6-.3 11.8-4.7 18-2.5 2.5-2.2 4.5-5.1 7.3-7a15 15 0 0 1 14.8-.6c3.3 2.8 5.9 7.5 10.6 8 2.8 0 5.5-1.3 8.2-2q4-.9 8.2-.7 6.5 0 13 .6 3.3.7 6.6 1.3c5.1 1 10.4 1.3 15.6 2 5.4.3 10.6 2.2 15.5 4.4 6.1 3.1 12.6 6.4 19.6 6.3 4.3 0 8.2-1.9 12.3-2.7q3.5-2 7.4-3.3 3.5-1.5 7.3-2" class="b"/><path d="M13.8 64.4c3.9-.2 7.6-1.6 11.4-2.3q1.6-.4 3.3-.3 1.3.2 2.5 0 3-2.8 6.5-5c3.7-2 8-3.6 12.3-3.2 2 .4 3.9 1.5 5.7 2.4 2.7 2.6 5.7 6 9.8 5.8 2-.1 3.9-.8 5.7-1.2q2.9-.8 5.8-.8 4.9 0 9.8.4 5.4.1 10.6 1 5.7 1.4 11.5 1.8 6 .5 12.3 1.3 5.1 1.2 9.8 3.5c3.4 1.8 6.8 3.7 10.6 4.6q6.6 1.7 13.1.2 3.3-1.2 6.6-2 2-.4 4-1 2.8-1.7 5.8-3 3.5-1.9 7.3-2.6" class="b"/><path d="M13.8 62.5c5.5-.2 10.8-2.3 16.3-2.4q5.3-3.9 11.5-6c2.3-.9 4.8-1.9 7.4-1.9 1.7.1 3.3 1 4.9 1.7q1.7.7 3.2 1.5c2.3 2 5 4 8.2 4 2.2 0 4.4-.7 6.6-1q4-.7 8.1-.3l9.9.8q5.3.3 10.6 1.3c3.4 1 7 1 10.6 1.2q5.4.5 10.7 1.2 5.1 1 9.8 3.6 5 3.1 10.6 3.8 5.8.7 11.5-.8c3.7-1.3 7.5-2.9 11.5-3.1 4.1-2.3 8.3-5 13-5.8" class="b"/><path d="M13.8 60.6c2.1-.3 4.4-.2 6.5-.6q5-.9 9.8-1.6c4-2.3 8.3-3.6 12.3-5.5 5-2.2 6.4-2.7 11.5-.4q2 .8 4 1.3 2.6 2.3 5.8 3.2c4 .7 8.2-1 12.3-.7 6 0 12 1.1 18 1.5q5.3.5 10.6 1.8 3.3.2 6.5 0 5.8.5 11.5 1.2a23 23 0 0 1 8.2 2.6 22 22 0 0 0 10.6 3.8A37 37 0 0 0 153 66q2.5-.8 4.9-2 3.1-1 6.5-1.5c.8 0 1.9-.3 2.5-.8L170 60q3.8-2 8.1-2.9" class="b"/><path d="M13.8 58.5q3.3-.2 6.5 0l9-1.4c1.1 0 2.3-.7 3.3-1l5.7-2.1c3.4-1.2 6.3-3.6 9.8-4.3 2-.2 4 .6 5.8 1.2l4.9 1.4q1.5 1.2 3.3 2c3 1.4 6.5.7 9.8.5q4.8-.2 9.8.3l14.7 1.5q4.1.6 8.2 1.4c2.1.2 4.4-.2 6.6 0q6.1.1 12.2 1c8.2.4 10 5.3 17.2 5.6q6.2 0 12.3-2c2.7-1 5.3-2.4 8.1-3 1.6-.5 3.4-.5 5-1 3.9-1.9 7.9-3.9 12.2-4.7" class="b"/><path d="M13.8 56.5c2.7-.1 5.4.3 8.1.3l9-1.2q3.4-.9 6.6-2c2.3-.6 4.5-2 6.6-3.2 2.1-1.4 4.7-2.6 7.3-2l7.4 1.8q2.5 2 5.7 2.8c2.7.5 5.5.1 8.2.2l7.3.3 15.6 1.7c3 .3 6 1 9 1.2 2.1.2 4.4-.3 6.5-.3q6.6.1 13.1.8 3 .3 5.8 1c1.7.6 3.3 1.8 4.9 2.6a14 14 0 0 0 5.7 1.7q6.4.1 12.3-2.2l6.5-2.9 4.1-1.1q1.3-.2 2.5-.6c4-1.7 8-3.5 12.2-4.4" class="b"/><path d="M13.8 54.6q4.5.4 9 .7 8.8-.5 17.2-3c3.8-1.7 6.9-5.8 11.4-5.4q3.8.5 7.4 1.3 2.6 2 5.7 2.9c3 .7 6 .3 9 .5l9 .8L94 53.7q4.8.8 9.8 1.1c2.4.3 4.9-.4 7.3-.5q7-.2 14 .6 2.8.3 5.7.8c3.1 1 5.7 3.5 9 4 4 .9 8.4 0 12.2-1.4 2.6-1 5-2.5 7.4-3.6q3.2-1.4 6.6-2.4 6-2.3 12.2-4" class="b"/><path d="M13.8 52.7c3.7.6 7.6 1.4 11.4 1.2q5.4-.1 10.7-1.4 3-.5 5.7-1.5c3.6-1.7 6.3-5.8 10.6-5.6q3 .1 5.8.6 1.7.8 3.2 1.9 2 1.1 4.1 1.5c3 .6 6 .5 9 .8q10.3.8 20.5 2.4 4.8.9 9.8.8 3.3-.6 6.6-1 7.3-.6 14.7.4c1.9.3 3.9.2 5.7.6 3.2.8 5.8 3.3 9 4 3.8 1 7.9.5 11.5-.7 3.5-1.4 6.6-3.7 9.8-5.6 1.7-1 3.8-1.4 5.7-2l10.7-3.2" class="b"/><path d="M13.8 51q4.5 1.1 9 1.6 4.9.4 9.8-.3c1.9-.3 3.8-1 5.7-1.3s4-.6 5.8-1.6c2.9-1.9 5.2-5.2 9-5.5a26 26 0 0 1 4.9.3c2.6 1.4 5.1 3.2 8.1 3.7 5 .7 10.5 1 15.6 1.5q6.7.6 13 2c3.3.8 6.7.5 9.9.4q3.3-.7 6.6-1.3 6.1-.8 12.2-.3 3.3.4 6.6 1 2-.3 4 .3c3.2 1 5.9 3.2 9 4q5.1 1 9.9-.7l4.9-4q3-2.4 6.5-3.3 7.1-1.3 14-3.7" class="b"/><path d="M13.8 49.4a52 52 0 0 0 18.8 2q3.8-.6 7.4-1.6c1.8-.6 4-.7 5.7-1.7 3-1.9 5.2-5.4 9-5.6 3-.4 4.1.4 6.5 1.9q3 1.7 6.6 2.2l11.4 1.1q5 .2 9.9 1.2l2.4.5 2.5 1q3.7.6 7.3 0c3 0 6-1 9-1.6a56 56 0 0 1 20.5.2q2 .1 4 .2 2.7.6 5 1.9c3.2 1.7 6.9 3.1 10.6 2.6 2.2-.6 4-2.5 5.8-4a20 20 0 0 1 7.3-4.1q2-.5 4.1-.8l5-1.4q1.6-.4 3.2-.4 1.2-.2 2.4-.8" class="b"/><path d="M13.8 47.8q4 1 8.1 1.7 3 .7 5.8.8 6.7.1 13-1.5c2.2-.7 4.6-1 6.6-2.1 3-1.8 5.3-5.2 9-5.5 2.4-.5 4.5 1.5 6.6 2.4q3.4 1.5 7.3 1.7l8.2.9q5 .2 9.8 1 1.9.3 3.3 1.3 1.6 1 3.3 1c2.4.2 5-.5 7.3-.8l3.3-.5 5-1.4a58 58 0 0 1 11.4-1.1q3.3-.1 6.5.1l7.4 1.1c4.8.8 9 4.3 13.9 4.6 1.8.1 3.5-1 4.9-2q2.4-2 4.9-3.6 2.3-1.4 5-2 3.9-1.5 8-2.4h3.4q1.2.5 2.4 0" class="b"/><path d="M13.8 46.2q4 1 8.1 1.7 3 .6 5.8.9 5.3.1 10.6-.5 5.1-1 9.8-2.7c3-1.3 5-4.2 8.2-5.3q1.2-.6 2.5-.3c2.4 1 4.7 2.7 7.3 3.2q5.3.9 10.7 1.3c3.2.4 6.6.4 9.8 1l1.6.2q1 .5 1.7 1.1a8 8 0 0 0 7.3 1q3.3-.9 6.6-1.6 2.4-.3 4.9-1c5.6-1.5 11.4-1.5 17.2-1.8q6.3 0 12.2 1.7c4.7 1 9 4.5 14 4 2.3-.6 4.4-2.3 6.5-3.5l3.3-1.8q1.6-1.1 3.2-2 4-1.6 8.2-1.5 1.6.1 3.3.8c.3.2 1.2.3 1.6.3" class="b"/><path d="M13.8 44.5q4 1 8.1 1.7c2.2.3 4.4.9 6.6.9l9-.3q4.1-.8 8.2-1.7 2.4-.7 4.9-1.5c1.6-1 3.2-2.4 4.9-3.4q2.1-2.4 5-1 2.3 1.4 4.8 2.2 3.2.8 6.6 1 7.3.9 14.7 1.5c2.9 2.1 5.3 4 9 2.6q3.6-1.7 7.4-2.7l3.2-.5q1.7 0 3.3-.3 5.6-1.2 11.5-1.3a19 19 0 0 1 5.7-.2q4.1.2 8.2.7c2.6.8 5.5 1 8.1 2 6 2.7 10.7 4.5 16.4-.1 2.3-1.7 4.6-3.6 7.4-4.5q3.2-.8 6.5-.1c1.6.3 3.3 1.2 5 1.4" class="b"/><path d="M13.8 42.8q6.8 1.6 13.9 2.4 4.5-.1 9-.1 3.2-.9 6.5-1.5 3-.4 5.8-1l2.4-.4q1.3-.6 2.5-1.5c3-2.6 4-4.5 8.1-2.1q4.4 2 9 2.3l8.2.8 4.1.4q1.3-.1 2.5.5 1.5 1.3 3.2 2.2c2 1 4.6.7 6.6-.4 4.8-2.8 9-4 14.7-3.6 3.5-.4 7.1-1 10.7-.7q2-1 4-.6l9 1q2.4.8 5 1l4.9.7c1.9.7 3.7 1.7 5.7 2.1 3 1 6.4.4 9-1.3 5.3-3.5 9-6 15.5-4 1.4.3 2.7 1.3 4.1 1.4" class="b"/><path d="M13.8 41q6.4 1.5 13 2.2 5 .1 9.9-.2 6.7-2.4 13.9-2.4 1.2 0 2.4-.4l3.3-2.7c2.6-2.4 4.7-.8 7.4.3s6 1.4 9 1.7l10.6 1.1c2 .3 3.7 2.3 5.7 2.8 3.5.7 6.8-1.7 9.9-3.2 4-2 8.7-2 13-1.7q3-.1 5.8-.1l2.4.2q1-.1 1.7-.7 1.2-.5 2.4-.4 3.8.5 7.4 1c1.6.5 3.2 1.3 4.9 1.5 3 .4 6 .2 9 .7q2.4 1 4.9 1.7c2.7.7 5.7.2 8.2-1 4.7-2.7 9.2-4.8 14.7-3q1.3.4 2.5 1l2.4.5" class="b"/><path d="M13.8 39.2q6.5 1.6 13 2h6.6c1-.2 2.3 0 3.3-.4q3.6-1.2 7.3-2 2.9-.3 5.8-.3c1.3 0 2.8.2 4-.3q2-1.7 4.2-3c1.9-.9 3.9.4 5.7 1q2.8 1.1 5.7 1.4l10.7 1q1.6.2 3.2.6l3.3 1.7c2.4 1.6 5.2.4 7.4-1q2.6-1.7 5.7-2.6c2.6-1 5.4-.9 8.2-.9 2.1 0 4.4-.2 6.5.2q3 .3 5.7 1a6 6 0 0 1 5.8-1.9c1.6.3 3.5.4 4.9 1.4q4.2 2.3 9 1.9 3.3 0 6.5.2c1.4.3 2.8 1 4.1 1.3q3 .6 5.8-.1c4.5-1.3 9-4.3 13.9-3.4 1.9.3 3.8 1.2 5.7 1.4l2.4-2.5" class="b"/><path d="M13.8 37.4c3.7.6 7.6 1.5 11.4 1.8q5 .2 9.9-.1c1.3 0 2.7-.7 4-1q2.4-.9 5-1.2c3.2-.5 6.5 0 9.8-.2 6.8-5 5.8-2.8 13-1.1 5.2.9 10.5.7 15.6 1.9 3.9 1.9 5.8 3.6 9.8.7 5.5-4 9.2-3.8 15.6-3.6 2.7 0 5.6-.6 8.2.4 1 .4 2.1 1.3 3.2 1.6 1-.4 1.7-1.5 2.5-2 2.3-1.5 5.2-.6 7.3.7a18 18 0 0 0 5.8 2.2c3.7.5 7.6-.2 11.4.1 1.1 0 2.3.6 3.3.9q2 .5 4 .5c4.6-.3 8.6-3.1 13.2-3.2 2.4-.2 5 1.2 7.3.6q2-2.1 4.1-3.8" class="b"/><path d="M13.8 35.6c4 .5 8.1 1.5 12.2 1.6q3.3.2 6.6 0 2 0 4-.3 3.8-1.2 7.4-1.9 3.3-.2 6.6 0c1.6.1 3.6.5 4.9-.7 1.4-1 3.1-2.1 5-2.1 2.1.1 4.3 1.3 6.5 1.6q4.4.7 9 1 2.8.3 5.7.8c1.8.8 3.7 1.9 5.7 2.2 1.9.1 3.5-1.2 5-2.3 1.8-1.4 4-2.7 6.5-3 3-.3 6 0 9 0 3.6-.1 7.5-.6 10.6 1.8h.8c4.8-5.1 8 .2 13.1 1.5 4.3 1.2 8.8 0 13.1.2q1.7-.1 3.3.5 2 .8 4 .8c4 0 7.7-2.1 11.5-2.7q3-.4 5.8.2h2.4c2-1.5 3.6-3.7 5.7-4.9" class="b"/><path d="M13.8 33.8c3.5.3 7 1 10.6 1.3q5.8.4 11.5 0c2.4-.5 4.9-1.4 7.3-1.6a35 35 0 0 1 6.6 0l3.3-.3c.8.1 1.7-.5 2.4-.8 1.8-.8 3.7-1.9 5.7-1.6 2.2.2 4.4 1.1 6.6 1.5 3.5.5 7.1.5 10.6 1q1.6.2 3.3.6c1.8.7 3.7 1.9 5.7 1.9 2-.3 3.4-1.8 5-2.9q2-1.7 4.8-2.3c5-.5 9.9-.2 14.8-.1q2 0 4 .8c.8.2 1.7.8 2.5.6 2.4-2.4 4.8-1.6 7.4 0q2.6 1.6 5.7 2.5c4.6 1.3 9.3-.1 14 0 1.3-.2 2.7.4 4 .8q2 .6 4 .4c3.2-.2 6.1-1.5 9-2.2 2.2-.6 4.5-.4 6.6-.3l2.5-.2c2.4-1.4 3.9-4.1 6.5-5" class="b"/><path d="M13.8 31.8q5.2.7 10.6 1.3c3.5.4 7.1.2 10.7.2q2-.2 4-.7a29 29 0 0 1 5-.8H49q2.4-.3 4.9-.6c2.4-1.3 5.4-2.2 8.1-1.9q3.8.9 7.4 1.5 4.9.3 9.8.8c2.9.2 5.3 2.5 8.2 2 3.3-1 5.5-4.5 9-5 3-.5 6-.3 9-.3q5.9-.2 11.5 1.6c2.7-1.6 3.6-1.8 6.5-.2 2.3 1.3 4.8 2.7 7.4 3.3q4 .8 8.2.3c2.6-.2 5.5-.8 8.1-.3 6.3 2.8 10.4 0 16.4-1.3a17 17 0 0 1 4-.1q1.6-.5 3.4-.7c1.3.1 2.3-1.3 3.2-2.1 1.2-1.1 2.6-2.3 4.1-2.8" class="b"/><path d="M13.8 30c6 .5 12 1.5 18 1.3h5.7q2.4-.5 5-.9 2.3-.2 4.8-.2 2.4-.4 5-.6c1 0 2.1-.9 3.2-1.1q2.8-1 5.7-.8c3 .3 6 1.2 9 1.4 3.6.3 7.2.3 10.7 1 7.8 3.2 6.8 1 13-2.8q3.2-1.4 6.6-1.2 3 0 5.7.3 3.8.2 7.4 1c.7.2 1.7.6 2.5.3a4 4 0 0 1 3.2-.9c2.4.6 4.3 2.3 6.6 3.2 6.3 3 12.2 1.7 18.8 1.2 1.4-.1 2.8.8 4 1.1q3.4 1 6.6.2c3.6-.8 7-2.5 10.7-2.5 1 0 2.2-.7 3.2-1l3.3-.4c1.7-1.6 3.5-3.4 5.7-4.1" class="b"/><path d="M13.8 28c6 .4 12 1.5 18 1.2H39q3.8-.5 7.4-.8 2.4-.1 4.9-.4c1.9-.6 3.7-1.6 5.7-1.7 4.7-.8 9.3 1 14 1.1q4.8.2 9.8.8c2.3.7 4.9 2 7.3 1 2.6-1.2 4.7-3.5 7.4-4.3q5.3-1.5 10.6.1 3.8.4 7.4 1.3c.5-.1 1.3-.6 1.6-1q2.1-1 4.1 0c2.7 1.5 5.2 3.2 8.2 4 5.3 1.5 11 1 16.4.4.8-.2 1.7.4 2.4.7q2 .7 4 1c5 .7 9.3-2.2 14-2.7 1.4 0 2.8-.9 4-1.3q2.5-1 5-.8c1.5-1.3 3-2.8 5-3.4" class="b"/><path d="M13.8 26.2c4.9 0 9.8 1 14.7 1H40q2.8-.1 5.7-.6c1.6-.2 3.3 0 4.9-.4q2.8-1.3 5.7-1.6c5-.7 9.8.8 14.8 1q4.8.3 9.8.7c2.3.6 4.9 1.8 7.3 1s4.3-2.6 6.6-3.5c3.3-1.5 7.2-1 10.6 0l5.7 1.4c.6-.1 1.4-.8 1.7-1.2q1.1-.8 2.4-1.2c2.1-.2 4 1 5.8 2q2.6 1.7 5.7 2.5 8.1 1.9 16.4.8c2.6.8 5.3 2.2 8.1 2.2 3.2 0 6.1-1.3 9-2.2q2.4-.7 5-1.1l4-2q1.7-.5 3.3-.6h1.7q.9-.1 1.6-.8c.6-.5 1.7-1.1 2.4-1.4" class="b"/><path d="M13.8 24.4c4.9-.2 9.8.7 14.7.7l7.4.1q3.7.2 7.3-.2l5-.5 5.7-1.5q4-.4 8.1-.1 4.1.6 8.2 1l9 .4c2.8 0 5.4 1.4 8.2 1.1 2.6-.2 5-1.7 7.4-2.6 3.1-1.2 6.6-.6 9.8.2 1.3.4 2.7 1.2 4 1.3 5.5-6 8-3.2 14-.3a35 35 0 0 0 8.2 2c3.7.7 7.6.6 11.4.6 4.7 2.1 9 3.4 14 1.4q3.9-1.6 8.1-2.5c2.2-.9 4.2-2.3 6.6-2.8q2.4-.6 4.9 0c.8-.1 1.7-.9 2.4-1.3" class="b"/><path d="M13.8 22.4c3.8-.2 7.6.4 11.4.5q7.8.4 15.6.3l4.9-.6q2.8-.8 5.7-1.3c3-.5 6-.1 9 0 2.8-.1 5.5.4 8.2.6q4.5.4 9 .4c3.6 0 7 1.3 10.6 1 2.5-.1 5-1 7.4-1.5q3-.3 5.7 0l3.3.7c1.6-1 3-2.6 5-3.3 3.9-1.5 7-.3 10.5 1.6q5 2.4 10.7 3.2 4.8.8 9.8.7c4 1.8 8.6 4 13.1 2.6 2.5-.7 5-1.9 7.4-2.7 1.2-.5 2.8-.5 4-1.2 4.5-2.8 8-3.7 13.1-2.3" class="b"/><path d="M13.8 20.5c3.5-.3 7 .3 10.6.4l14.7.3c4.2-.3 8.2-1.8 12.3-1.9 3-.3 6 .5 9 .5 4.7-.2 9.2.7 14 .7l6.5.1c3 .3 6 .8 9 .6q3.7-.1 7.3-.5c1.4-.2 3 .6 4.1-.2 2.4-2 4.9-4.6 8.2-4.5q2.4.1 5 .8 1.6.2 3.2.8a50 50 0 0 0 21.3 5.2c1.6.5 3.2 1.6 4.9 2.2 8.7 3.9 12.5-1.4 20.4-3.1 1.4-.5 2.7-1.6 4.1-2.2 3-1.5 6.6-1.3 9.8-.5" class="b"/><path d="M13.8 18.4q4 .2 8.1.5 7 .3 14 .3c4.3-.3 8.7-1.5 13-1.6q2.1-.1 4.1 0 3 .5 5.8.7 4.1.1 8.2 0 3.7.4 7.3.4 7 0 14 .4 2.8.1 5.7 0 2.4-.4 4.9-1.6c2.6-1.4 4.9-4.2 8.1-3.9 2 .2 3.9 1 5.8 1.5q2.8.8 5.7 1.2c1.4 0 2.8.7 4 1.2q3.4 1.1 6.6 1.9 4.5 1 9 1.3l5 2.6c8 3.8 11.7.3 18.8-2.8q1.6-.6 3.2-1l1.7-1a14 14 0 0 1 11.4-1.2" class="b"/><path d="M13.8 16.5q7.3.8 14.7.8c5.7-.2 11.5-1 17.2-1.4 1.8 0 3.8-.3 5.7-.1q3.2.8 6.6 1.3c4 .3 8.2-.7 12.2-.3 3.3.3 6.6 0 9.8 0 4.7.1 9.4.2 14-.8q3-1 5.7-2.8 2.2-1.5 4.9-1.6c3.6.5 7 2 10.6 2.6q3.8.6 7.4 1.3 3.6 1 7.4 2c2.3.5 5 .6 7.3 1.2q2.4 1.5 5 2.7c7.2 3.9 11.5 1.5 18-2.4a18 18 0 0 1 5.7-2.2c3.5-2.4 8.1-3.4 12.2-1.9" class="b"/><path d="M13.8 14.8q5.2.8 10.6 1l7.4-1q4-.1 8.1-.2l9-.5c1.1-.2 2.3.4 3.3.7q2 .7 4.1 1c5.5.7 11-1.2 16.4-.6l5.7-.1c4.6 0 9.4-.1 14-1.4 3.3-.8 6.2-3.5 9.7-3.8 3-.1 6 1.3 9 1.7q7.5 1.2 14.8 3c3.2.4 6.5 1.4 9.8 1.7 2 .7 3.8 2.2 5.7 3.1C149.8 24.2 154 21 161 16q2-1.2 4.1-2c1-.3 2.4-.4 3.3-1 3.1-1.1 6.6-2.4 9.8-1" class="b"/><path d="M13.8 13.3q4 .7 8.1.6 4.5-1 9-1c3.6-.1 7.2.6 10.7.2l7.4-.7 1.6.6c7 3.5 14 .8 21.3.4 6.5-.1 13.2.3 19.6-1.6 3-.9 5.8-2.9 9-3.4 3-.4 6 .6 9 1q4.9.9 9.8 1.5c2.8.5 5.5 1.6 8.2 2.3 2.4.6 5 .4 7.4.9.8 0 1.7.8 2.4 1.2q2.9 1.7 5.7 3.2c6.7 3.4 11.1.4 16.4-3.7q2.6-2 5.7-3.2 2.4-.8 5-1.1c2.5-.8 5.3-1.8 8.1-1.4" class="b"/></svg>