<svg xmlns="http://www.w3.org/2000/svg" id="a" width="1920" height="2400" viewBox="0 0 192 240"><defs><style>.b{fill:none;stroke:#fff;stroke-miterlimit:10;stroke-width:.3px}</style></defs><path d="M0 0h192v240H0z" style="stroke-width:0"/><path d="M13.6 227.3c5.4.6 10.9-.8 16.4-.3 4.9.6 9.7 2.2 14.7 2.3 1 0 2.3.5 3.3.6q2.5.4 5-.3l7.3-2.3c1.6-.6 3.4-.8 5-1.6q3.1-1.5 6.5-2.5c1.8-.6 3.8-1.7 5.7-1.2.6-.1 1.4-.9 1.7-1.3.8-1 2-2 3.2-2.2q1.4.2 2.5.8 1.6.8 3.3.8 4.5-.5 9 0c3.3.4 6.6 1.4 9.9 2 4.8.9 9.9 1 14.7 1.8 2.6 2.4 5.6 4.6 9 5.5a11 11 0 0 0 5 2q3.7.6 7.3 0 5.7-.4 10.7-2.3c5.6-2.2 9.5-7.9 15.6-8.8q1.6 0 3.3.8 1.7.2 3.3 1.2c1.1-.8 1.7-2.6 2.4-3.7" class="b"/><path d="M13.6 225.7c5 .3 9.8-1.5 14.7-1.4 3.4 0 6.7 1 9.9 2q4.8 1.2 9.8 1.7c2.6.2 5-.7 7.4-1.5q3.2-1 6.6-1.7c3.9-.7 7.7-2.2 11.5-3.6l2.4-1c.8-.1 1.8.1 2.5-.3 1.2-1.4 2.9-3.2 4.9-2.7 1.2.7 2.7 1.4 4 1.3 5-.5 10-1.2 14.9.2q3.7 1 7.3 2 4.1.5 8.2.7c1.4.2 2.9.1 4.1.6l1.7 1.5q3.3 3 7.4 4.7c2.4 1.5 5.4 1.6 8.2 1.5 4.6-.8 9.5-.7 14-2.7 5.6-2.5 10.6-9 17.1-8.9 2 .3 3.2 2 5 2.7 1.3-1.4 2-3.8 3.2-5.4" class="b"/><path d="M13.6 224c3.6 0 7.1-1.4 10.6-2.2 3.8-1 7.8-.2 11.5 1 3.8 1 7.6 2.3 11.5 2.8 2.5.5 5-.2 7.4-1q3.2-1 6.5-1.6l5-.7q3-.7 5.7-1.8 2.1-.8 4.1-1.8 1.2-.3 2.5-.4c1.1-1.4 3-3 4.9-2.4q2.2 1.4 4.9 1c9.1-1.7 11.6-2.1 20.5 1.3q4.8 1.3 9.9 1.4 1.7 0 3.2.3l3.3 3c2.2 1.7 4.7 3.4 7.4 4.2q3 .5 5.7.2c2.5-.4 5-1.1 7.4-1.2 6.5-.4 10.3-3.5 15.6-6.6 2.6-1.2 5.3-2.9 8.2-3.3 2-.2 3.5 1.6 5 2.8l.7-.5c1-1.7 2-4 3.3-5.5" class="b"/><path d="M13.6 222.2c3-.2 6-1.6 9-2.6q4.4-1.6 9-.8c4.7 1 9.2 2.8 14 3.8q2.8.6 5.7.7c3-.6 6-1.6 9-2l5.7-.5a40 40 0 0 0 8.2-2.6c1.3-.7 2.7-1.6 4.1-1.4 2.1-2 3.9-3.2 6.6-1.5 1.6.5 3.3 0 5-.3q2.8-.7 5.7-1.3 3.7-.7 7.3 0c3.2.5 6 2.2 9 3.1 3.2 1 6.6.9 10 1 6 5.7 8.4 8.4 17.1 6.5q3.7-1 7.4-1 3.4-.3 6.6-1.5 2.9-1.2 5.7-2.5 3.4-1.2 6.6-2.7c2-1 4.4-2.9 6.5-1.2.8.6 1.6 1.6 2.5 2 1.4-1.9 2-4.8 4.1-6" class="b"/><path d="M13.6 220.3c3.5-.4 6.5-2.4 9.8-3.5 4.3-1.8 8.9-.7 13.1.6q6 2 12.3 3 2.5.3 5 .2 2.8-.4 5.7-1c3.5-.4 7.2 0 10.7-1q2-.7 4-1.6c1.3-.7 2.6-1.8 4.2-2 1.3-.6 2.5-1.9 4-2 .9-.1 1.8.5 2.5.8 2 .7 4-.2 5.8-.6 4.5-1.2 9.2-2.7 14-1.8 3.1.6 6 2.4 9 3.5q4 1.2 8.1 1c1.2.8 2.3 2.1 3.3 3a12 12 0 0 0 5.8 3c3.2.3 6.6-.4 9.8-.9 2.4-.3 5 0 7.4-.3 4.5-.3 8.8-2 13.1-3q2.6-.7 5-2.2c1.2-.8 2.5-2 4-2 1.7-.1 2.6 1.9 4.1 2 1.1-1.9 2-4.7 4.1-5.3" class="b"/><path d="M13.6 218.5c2.9-.5 5.5-2.1 8.2-3.3 7-3.7 12.6-.4 19.6 1.1a58 58 0 0 0 14.8 1.8c1.9.1 3.9-.3 5.7-.3q3-.1 5.8-.2 3.5-.3 6.5-1.7c1.6-.9 3-2.4 5-2.5 4.8-4 4.5.2 9-1 5.9-1.5 11.8-4.2 18-3.1 3 .5 5.6 2 8.2 3.3q4 1.5 8.2 1.8c2.6 2.3 5.4 5 9 4.7 3-.2 6-.8 9-.7 3.6.2 7.2.8 10.8.3q5.8-.6 11.4-2.1 2.7-1 5-3c1.6-1.3 3.2-2 4.9-.3h1.6c1-1.5 2-4 4.1-4.1" class="b"/><path d="M13.6 216.6c7.8-1.7 10-7 19.6-4.5q9 2.6 18 3.5c6.6.5 13.3.8 19.8 0 2.4-.3 4.6-1.7 6.5-3 .7-.5 1.8-.7 2.5-1q1.2-.8 2.5-1.3 1.3-.2 2.4.6 1.7.5 3.3 0c7.2-1.9 14.7-5.6 22.1-3q3 1 5.8 2.6 3.1 1.6 6.5 2c2.3 1 4 3.3 6.6 3.6q2 .3 4.1-.2 2.4-.2 5-.1c3.5.4 7 1.6 10.6 1.6a43 43 0 0 0 14.8-2q2.2-.9 4-2.6c1-.7 2.1-1.7 3.3-1.6 1 .5 2.3 0 3.3 0 1.4-1 2.2-3.1 4.1-3" class="b"/><path d="M13.6 214.8c6.4-1.2 9.5-6 17.2-5 4.1.6 8.2 1.8 12.3 2.5 9.4 1.7 19.1 3 28.7 1.6 2.5-.2 4.5-1.9 6.6-3 .4-.3 1.2-.5 1.6-.6 1-.5 2-1.4 3.3-1.4q1.2.2 2.4.6 1.6.2 3.3-.3c7.2-2 14.6-5.6 22.2-3.7 3.7 1 7 3.4 10.6 4.8 2.6.7 4.8 2.6 7.4 3.2 2.2.3 4.4-.6 6.6-.3 3 .2 6 1.4 9 2q5.8 1.2 11.5.4 4.2-.3 8.2-1.6c2.2-.8 3.8-2.7 5.7-3.7l1.7-.2q1.6-.7 3.3-.8c.8-1 2-2 3.2-2" class="b"/><path d="M13.6 212.6c2.3 0 4.5-1 6.5-2.1q3.5-1.9 7.4-2.3a24 24 0 0 1 5.7.3q2.1-.1 4.1.3 4.2 1 8.2 2c9.6 2 20 4 29.6.7 1.8-1 3.6-2.6 5.7-2.8q1.1-.7 2.5-1.2 1.6 0 3.2.4 2.2 0 4.1-.8c7.6-2.4 15.9-5.7 23.8-3q4.3 1.6 8.2 3.9c2.3 1.2 4.8 2.4 7.4 2.5q3.4-.1 6.6.5c4.6 1 9.1 2.9 14 3.1q7.5.6 14.7-1.7c2.1-.7 3.7-2.5 5.7-3.3q2.4-1 5-1.6a5 5 0 0 1 2.4-1.2" class="b"/><path d="M13.6 210.3q2.4-.2 4.9-.8 2.3-1.1 4.9-2 2.8-1 5.7-1l2.5-.5c4.5-.7 8.9 1.2 13.1 2.4 7 2 14 4 21.4 3.5q5-.4 9.8-2.4 2-1 4.1-2 1.3-.4 2.5-1c2-1.2 4.4 0 6.5-.5 5.2-1.5 10.3-3.5 15.6-4.3q5.8-1 11.5.5 5.2 1.8 9.9 4.7c2.9 1 6 .3 9 1 4.6 1.3 9.1 3.5 14 4.1 5.6.9 11.6.4 17.1-1.2q2.3-.9 4.1-2.2 4.1-1.7 8.2-3.2" class="b"/><path d="M13.6 208q5-.4 9.8-2.1c2.7-.8 5.4-2 8.2-2.3 4-.4 7.8 1 11.5 2 4.1 1.1 8.2 2.7 12.3 3.9q5.3 1.3 10.7 1c6.2-.1 11.6-3.5 17.2-5.7 2-1 4.4-.2 6.6-.7 5.1-1.3 10.2-3.3 15.5-4q6.8-1 13.2.6 4.6 1.6 9 3.9c2.1.3 4.5.1 6.6.6 3.6 1 7 2.8 10.6 3.8q10.7 3 21.4.4c1.6-.4 3.2-1.4 4.9-1.9 2.5-.7 5-2 7.4-2.9" class="b"/><path d="M13.6 206q5-.6 9.8-2.2c3-1 6-2.3 9-2.4 2.8 0 5.6.8 8.2 1.4l9.9 2.6c2.2.7 4.3 2 6.5 2.5a28 28 0 0 0 17.3-.5q4.4-2.2 9-4 1.6-.7 3.2-1 2.5 0 5-.3c4.4-1 8.6-2.6 13.1-3.3q7.8-1.3 15.6.2 3.3 1 6.5 2.3l2.5 1c1.6.2 3.4.1 5 .6 3.3 1 6.4 2.6 9.8 3.6a42 42 0 0 0 26.2.4q4.3-1 8.2-2.8" class="b"/><path d="M13.6 204.2c5-.5 9.9-2.4 14.7-4 3.2-1 6.6-.6 9.9 0l9 1.9q3.3.8 6.5 1.9l4.1 2q6.5 2.4 13.2 1.3c3.3-.5 6.2-2.2 9-3.8q4-2 8.2-2.9c5.4.4 10.4-1.8 15.6-3 4.8-1 9.9-.8 14.8-.6 4 .1 7.8 1.5 11.5 3 .9.5 2.2.2 3.2.5q3 .6 5.8 1.9a59 59 0 0 0 17.2 4.3q11.3.4 22.2-3.3" class="b"/><path d="M13.6 202.5c5.6-.6 10.9-3 16.4-4.3a60.6 60.6 0 0 1 20.5 2.2q2.5.6 4.9 1.5l3.3 2q5.4 2.7 11.5 2.4 4.9-.5 9-3.2c2.3-1.4 4.7-3.1 7.4-3.7l2.4-.5 2.5.3q3 0 5.7-1 4.5-1.2 9-2.2 5.8-.6 11.5-.4 3.8-.1 7.4.4 3.4.8 6.6 2c1 .6 2.2.3 3.3.6l5.7 2c13 5.2 24.4 5.2 37.7 1.8" class="b"/><path d="M13.6 200.8c5-.6 9.9-2.3 14.7-3.8 8.6-2.5 17.2-.6 25.5 1.9 2.7.5 5 2.4 7.3 3.8a17 17 0 0 0 8.2 2.4c4.5.3 8.7-1.7 12.3-4.2 1.4-.9 2.6-2.2 4.1-2.7l4.1-.7q3.4.6 6.6-.2c3.3-.7 6.5-2 9.8-2.5q5.4-.6 10.7-.5c3.8-.1 7.7-.4 11.5.3q3.4.7 6.6 2c3.1.2 6 2 9 2.9a55 55 0 0 0 21.3 3.2c4.4-.2 8.8-1.2 13.1-1.9" class="b"/><path d="M13.6 199c5.6-.5 11-2.3 16.4-3.9q4.4-1 9-1.3c2.5.2 4.9 1.2 7.4 1.3q3 .1 5.7 1 2.5.6 5 1.5c4.2 2.2 7 6 12.2 6.3 4.5.4 8.7-1.4 12.3-3.8 1.7-1 3-2.8 5-3.3q2-.6 4-.8 3 .5 5.8-.1c3-.6 6-1.7 9-2.2q5.3-.8 10.7-.7c4.6 0 9.3-.8 14-.1q3.4.4 6.5 1.9a43 43 0 0 1 8.2 2.5q5.5 2.2 11.5 2.8 4.5.6 9 .5c4.4-.1 8.8-1.2 13.1-1.6" class="b"/><path d="M13.6 197.3q7.5-1 14.7-3l5-1 2.4-1c3.4-1.4 6.5 1.4 9.9 1.5 1.8.2 3.8-.2 5.7 0 1.6.2 3.3 1 5 1.2 4.8 1.6 7.6 7.1 13 7.6 5.7.6 11.4-2 15.6-5.6.7-.6 1.7-1.5 2.5-1.8l3.3-.8c3.9.7 7.7-.4 11.5-1.3q5.6-1.2 11.4-1.3c7.7 0 15.6-2 23 .3q2.2.8 4.1 2 2.5.3 5 1.1 2.8 1 5.7 1.7 4.9 1 9.8 1.4 4.5.3 9-.2 4.2-.7 8.3-1" class="b"/><path d="M13.6 195.7q5.3-.8 10.6-2l7.4-1.4c6.7-4.3 6.8-1.2 13.1.4 2 .4 4-.1 5.8-.4q3.8-.4 7.3 1.2c4 2 6.3 6.5 10.7 7.5 6.3 1.4 13.5-1.7 18-6 1.6-1.5 3.5-2.6 5.8-2 2.8.3 5.6-.4 8.2-1l9-1.2c4.1-.5 8.3-.4 12.3-.8 4.7-.4 9.4-1.1 14-.3 2.9.4 5.6 1.7 8.2 3 2.8.2 5.4 1.4 8.2 2l7.4 1q2.8.5 5.7.5c4.4 0 8.8-.8 13.1-1" class="b"/><path d="M13.6 194q4.5-.7 9-1.8 3.6-1 7.3-1c5.4-2.8 6-4.3 11.5-.8a10 10 0 0 0 7.4 1c4.6-1.4 8.8-1.3 12.3 2.3 2 1.9 4 4.3 6.6 5.4 4.9 1.9 10.2.1 14.8-1.9 2.7-1.3 4.9-3.6 7.3-5.4 1.2-.9 2.8-.2 4.1-.3q2.6-.1 5-.7c1.5-.5 3.3-.4 4.9-.6q4.5-.7 9-1 9-.6 18-1.5 6-.4 11.5 1.4 5.2 2 10.7 3.3 4.9.7 9.9 1.3c5.1 1 10.4 0 15.5-.2" class="b"/><path d="M13.6 192.5q6-1.3 12.3-2.8c1.3-.3 2.8-.2 4-.7 7-3.4 6-2.9 12.4.8q3.6 1.5 7.4.3c11-4 10.5 2.6 18 7.1 5.7 2.7 15-.5 19.7-4.3l1.6-1.2 2.5-.9q2-1 4-1l4.2-.8q2 0 4-.3c7.7-1.2 15.4-1.5 23-2.2 5.2-.7 10.5-1 15.6.2 4.8 1 9.2 3.4 14 3.9q6.6.6 13.1 1.5l9-.3" class="b"/><path d="M13.6 191q5.7-1.5 11.4-2.8 2.5-.5 5-1.1 2-1 4-1.7c3.2-1 5.6 2 8.3 3.2 2.3 1 5 1 7.3.3 2.9-.9 6-2.1 9-1.3 1.7.5 3 2 4.2 3.2 1.7 1.7 3.5 3.7 5.7 4.7 4.8 2 10.1.3 14.8-1.3 2-.7 3.7-2.3 5.7-2.8a30 30 0 0 0 7.4-3.2q2-.5 4-.8c4.5 0 8.8-1.1 13.2-1.5q9.5-.8 18.9-1.7 6.6-.6 13.1 1c3 .5 6 2 9 2.7 2.7.6 5.5.6 8.2 1 5.2.5 10.5 1.7 15.6.6" class="b"/><path d="M13.6 189.3q3.7-.9 7.3-1.9 4.5-1 9-2.2c6.6-3.1 6.8-.7 12.4 2 2.3 1 5 .9 7.3.3 2.4-.7 5-1.5 7.4-1.6 1.8-.2 2.8-.2 4.1 1 2.7 2.3 5 5.4 8.2 6.8 4.3 1.7 9 .4 13.2-.7q1.6-.4 3.2-1.2l4.1-1.1q3.5-1.1 6.6-3c1-.5 2-1.6 3.3-1.7 1.5-.4 3.3-.1 4.9-.4l7.4-1.1c5.4-.2 11-.3 16.4-1.2 6.2-1 12.6-1.6 18.8-.4 3.2.5 6 1.9 9 2.8q3 .6 5.8.7c5.5.5 11 1.9 16.4.7" class="b"/><path d="M13.6 187.6q7.8-2 15.5-3.9c6.6-2.6 6.5-1.4 12.4 1.5q3.9 1.6 8.2.6 3.6-.8 7.3-1.3c2.6-.4 4-.1 5.8 1.7 2 1.9 4 4 6.5 5.3 3.9 1.8 8.4 1 12.3 0q4.7-.6 9-2 5.3-1.7 10-4.9c1.3-1 3.2-.4 4.8-.7 7-1.3 14.3-.2 21.4-1.4 7.3-1.1 14.7-3.2 22.1-2a30 30 0 0 1 6.6 1.9c1.3.5 2.7 1.3 4 1.5l7.4.8c3.8.6 7.7 1 11.5.2" class="b"/><path d="M13.6 185.9c5.2-1 10.3-2.7 15.5-4 5.6-2 6.4-1.1 11.5 1.2q4 1.5 8.2 1 4.1-.7 8.2-1l2.5-.2c1.1.2 2.2 1 3.3 1.5 2.4 1.2 4 3.6 6.5 4.8 3.3 1.7 7.2 1.4 10.7.9q5.9-.6 11.5-2.3t10.7-4.8c.8-.7 2.2-.7 3.2-.8l3.3-.2c6.3-.4 12.7.5 18.9-.7 7.6-1.4 15.1-4.3 23-3.4 3.8.4 7.2 2.2 10.6 3.8 2.4.7 5 .6 7.4 1q4.9 1 9.9.2" class="b"/><path d="M13.6 184c5-.7 9.8-2.5 14.7-3.5 4.8-1.3 6-1.7 10.7.2q4.3 1.5 9 1.3 4.1-.5 8.2-.4c1.3.1 2.9-.3 4.1.3q3.1 1.9 6.6 3.3l2.4 1.7c3.8 2.1 8.3 1.5 12.3 1a111 111 0 0 0 13.2-2.7q5-1.7 9.8-4.1c1.5-.6 3.3-.4 5-.5 6.2-.3 12.6.8 18.8-.6 7.6-2 15-5.2 23-4.6 4.7.1 9 2.6 13.1 4.7 4.6.5 9.3 1.5 14 1" class="b"/><path d="M13.6 182.2c5-.6 9.8-2.4 14.7-3.4q2.8-.8 5.8-1c3 .4 6 1.6 9 1.8 4.3.3 8.8-.2 13.1.3l2.5.1q.9 0 1.6.5 4.6 3 9.9 4.6c5.2 2.1 11 .8 16.4-.2 4.4-.8 8.9-1.3 13.1-2.8q3.7-1.5 7.4-2.8c7.3-.8 14.9 1 22.1-.8 4.2-1.2 8.2-3 12.3-4.1A40 40 0 0 1 153 173q4.3.3 8.2 2l4.1 2.2q1.2.8 2.5 1.2c3.5.4 7.1 1 10.7.8" class="b"/><path d="M13.6 180.2c7-.5 13.5-3.7 20.5-3.8 3.2.2 6.5 1 9.8 1h7.4q4.1.4 8.2 1.2 4.8 3.5 10.7 4.8c5.7 1.3 11.5 0 17.2-1 3.3-.6 6.6-.8 9.8-1.4q5-1.2 9.9-2.7c2-.9 4.4-.7 6.6-.7 4.6 0 9.3.7 13.9-.2 4.6-1 8.7-3.3 13.1-4.7a42 42 0 0 1 14-1.4c5.9 0 9.9 2.1 14.8 5.1q4.4 1 9 1.1" class="b"/><path d="M13.6 178.1c6-.2 12-2.5 18-3.2 3-.4 6 .2 9 .2 4.1.1 8.3-.1 12.3.5q2.1.2 4.1.7 1.3.1 2.5.7 4.8 3.6 10.7 4.4 5.3.5 10.6-.5 5.3-1.2 10.7-1.5 6.6-.3 13.1-1.8l6.6-1.6h3.3c6.4 0 11.8 1 18-1.7 4.6-1.8 9-4.5 14-4.6l9 .2q4.6-.2 9 1 3.8 1.5 7.4 3.8 3.2.8 6.6 1.1" class="b"/><path d="M13.6 176c5.8 0 11.4-2 17.2-2.7 3-.4 6 0 9-.2 4.6 0 9.4-.2 14 .6l3.2.7q1.4.1 2.5 1c2.9 2 6.3 3.5 9.8 3.7q5.9.2 11.5-.8 4.9-1.4 9.9-1.4a87 87 0 0 0 22.1-2.6q2-.1 4.1 0l7.4.2c5.3 0 10-2.6 14.8-4.7a14 14 0 0 1 8.2-1.7c3.2.5 6.5 1.2 9.8 1.3s6.7-.3 9.9.4c2.6.5 5 2.1 7.4 3.3q2 .7 4 1" class="b"/><path d="M13.6 173.9c5.5.2 10.9-1.5 16.4-2.2 3.2-.5 6.5-.4 9.8-.5q7.5-.6 14.8.7l3.3.8 3.2 1.9q3.5 2 7.4 2a68 68 0 0 0 12.3-1.2c2.7-.6 5.5-1.4 8.2-1.2l8.2.2q4.5-.2 9-.6l6.6-1a17 17 0 0 1 5-.4l7.3.3c5.3-.2 10.1-2.8 14.8-5 3.2-1.8 5.6-1.6 9-.6q6 1.9 12.3 2.1c2.5.2 5-.3 7.4-.3q2.6 0 5 1.2 2.2 1.4 4.8 2" class="b"/><path d="M13.6 171.8c5.5.2 10.9-1.4 16.4-2l9.8-.7q4.1-.2 8.2.3c2.5.2 5 0 7.4.8l2.5.6 2.4 1.4a15 15 0 0 0 7.4 2c4.1-.1 8.2-.9 12.3-1.6 2.4-.4 4.9-1.3 7.4-1.2 4.4 0 8.7.7 13.1.6q5.8 0 11.5-.7c2.2-.2 4.4-.8 6.6-.8 2.7 0 5.5.4 8.2.2q3.8-.4 7.3-1.8 3.4-1.6 6.6-3.4c3.5-2 7.2.4 10.7 1.3a58 58 0 0 0 18.8 1.6 8 8 0 0 1 5 .3q1.6.8 3.2 1.4" class="b"/><path d="M13.6 169.6c3.5.1 7-.5 10.6-1q7.5-.7 14.8-1.3c5-.2 9.8 1 14.8.7 2.3 0 4.5 1 6.5 2q3.5 1.8 7.4 1.6c4.1-.2 8.2-1.2 12.3-2q4-1.1 8.2-1l6.6.8c3.8 0 7.6.5 11.5.4q5.2-.2 10.6-.8 2.4-.3 5-.3 6.8.8 13-1.8c2-.8 3.9-2.2 5.8-3.1 3-1.6 6.2.4 9 1.2q4.5 1.3 9 1.9 4.5.8 9 1c2.3 0 4.5-.6 6.6-1q2.3.1 4.1 1.1" class="b"/><path d="M13.6 167.2q3.7.1 7.3-.4 5.8 0 11.5-.7 4.5-.5 9-.4 4.2.2 8.2.6l5 .1q1.7-.1 3.2.4c4.4 2.1 8.4 2.9 13.2 2l9-1.8q2.8-.7 5.7-1 3.8 0 7.4.8c3.6-.2 7.1.4 10.7.7 5.7.7 11.5 0 17.2-.5 3-.4 6 0 9-.5q3-.3 5.8-1.6c2.8-1.5 5.6-4.3 9-3q2.4 1 5 1.7 3.5.9 7.3 1.3 5.2 1 10.7 1.4 2.8.2 5.7-.3a10 10 0 0 1 5 0" class="b"/><path d="m13.6 165 5.7-.3q4.1.3 8.2-.1 5.8-.5 11.5-.8 4.9 0 9.8.6 4.5.2 9 .5c2 .4 3.9 1.2 5.8 1.5 6 .9 12.1-1.2 18-2.2q3.3-.7 6.6-.4c1.3.1 2.8.8 4.1.5 4.1-.4 8.3.4 12.3.9q6.6 1 13.1.5 4.1-.5 8.2-.8c4-.2 8.2-.4 11.5-2.8 5.3-4 7.7-.8 13.2 0q4.1.7 8.2 1 4.5.8 9 1.4c3.5.5 7.1 0 10.6-.2" class="b"/><path d="m13.6 162.7 10.6-.1c7.7-.6 15.4-1.3 23-.5l10.7 1c3 .4 6 1.2 9 1.1 5.8 0 11.4-1.9 17.2-2.4q2.5 0 5 .7c1.3 0 2.7-.6 4-.6q4.2-.3 8.2.3 8.6 1.7 17.3 1.6 3.7 0 7.3-.8 3-.2 5.8-.5a13 13 0 0 0 4.9-1.6c2-1.3 4.1-2.8 6.6-2.1q2.8.7 5.7 1.3c3.3.5 6.6.5 9.9 1 6.5 1 13 2.3 19.6 1.8" class="b"/><path d="M13.6 160.3q6.5.3 13-.4l11.6-.3c8.2 0 16.4 1 24.6 2.1 6.6 1 13.1-1.1 19.7-1.5q1.6 0 3.2.3c.8.2 1.7.6 2.5.3 1.4-.3 3-.4 4.1-1.3 1.5-.8 3.3-.6 5-.2l5.7 1c5.4.6 10.9 1.4 16.4 1.5 3.3.1 6.6-.4 9.8-.7 2.2-.4 4.6-.6 6.6-1.6 1.6-.8 3.1-2 5-2.2 2.1 0 4.3.8 6.5 1 3 .3 6 .1 9 .5 4.6.4 9.3 1.3 14 1.8q4 .6 8.1.8" class="b"/><path d="M13.6 157.4c3.5.5 7 .2 10.6 0q6.2.1 12.3 0 6.2 0 12.3.5 5.8.4 11.5 1.2 3.7.6 7.4.7 4.5-.2 9-.8 2.9-.3 5.8 0c1 0 2.2.5 3.2.3 1.7-.7 3.2-2 5-2.6 1.6-.5 3.3.1 4.9.5l5 1c3.4.4 7 .4 10.6.8 5.4.5 11 1 16.4.4q3.3-.3 6.6-1c1.7-.5 3.2-1.7 4.9-2.3 1.5-.4 3.3 0 4.9.2l4 .2h5.8q2.9.6 5.8.7 4.8.6 9.8 1.2 4.5.7 9 1.3" class="b"/><path d="M13.6 154.4q4 .7 8.2.4 3.6 0 7.3.4 5.4 0 10.7 0c4.1 0 8.2.5 12.3.7q7.5.5 14.8 1.7c3 .3 6-.1 9-.2H80c3 0 5.4-2 8.2-2.7 1.9-.6 4 .1 5.7.6q2 .5 4.1.6 4.1.4 8.2.5l6.6.9q7.8.8 15.6.2 3.4-.3 6.5-1.2c1.6-.6 3.2-1.7 5-1.8q2.5 0 4.9.2l7.4-.2c3.5.6 7.1.6 10.6 1q3.8.6 7.4 1l8.2 1.4" class="b"/><path d="m13.6 151.8 10.6.7q5.8.6 11.5.4c5.2-.2 10.4.4 15.6.8q7.5.3 14.8 1.3 4.5.6 9 .2c1.9-.2 4-.1 5.7-.8 2.6-.8 5.4-2 8.2-1.7 2.2.3 4.4 1.1 6.6 1.1 1.3.2 2.7 1 4 1.1q8.2 1.1 16.5 1.2 6-.1 12.3-.4 3.4-.3 6.6-1.1c1.8-.7 3.7-1.7 5.7-1.7 3.5.2 7.1-.3 10.7-.4 3.8.7 7.7.7 11.5 1.1l7.3 1 8.2 1.4" class="b"/><path d="M13.6 149.8h5.7l9.8.9c5 0 10-.2 14.8.2 6.3.6 12.6.7 18.9 1.3q5.7.8 11.5.4 2 0 4-.3l4.2-1c3.5-.7 7.1-.2 10.6.5q4.1 3 9 3.1c8.8.6 17.6-.5 26.3-1q3.8-.3 7.4-1.3 1.6-.7 3.3-1 2.4-.5 4.9-.5 3.3-.3 6.5-.4l9 .7q3.4.3 6.6.8 6.3.7 12.3 2" class="b"/><path d="M13.6 148.5q3.7-.5 7.3-.7 3.8.3 7.4.7 5.3-.2 10.7.2l18 .9c3.3 0 6.6.5 9.9.5q7 .2 14-.5a35 35 0 0 1 9.8 0c3 2 6 4.7 9.8 4.7 8.8.3 17.5-1.3 26.3-2.1q5.9-.1 11.5-2.1c2.6-.8 5.5-.8 8.2-1.1 6-.5 12 .2 18 1.1 4.7.4 9.3 1.5 14 2.1" class="b"/><path d="M13.6 147.5c5-.8 10.3-1.4 15.5-1q10.2 1 20.6.7c7.6 0 15.3.8 23 .7l10.6-.3c3.4 0 5.3-.4 8.2 1.9 2.2 1.6 4.6 3.4 7.4 3.9 8.2.7 16.4-1.5 24.6-2.5 3.5-.5 7.2-.6 10.7-1.3 1.9-.3 3.8-1.1 5.7-1.5q3.2-.7 6.6-.9a70 70 0 0 1 11.4.2q5 .7 9.9 1.3c3.6.3 7 1.5 10.7 1.9" class="b"/><path d="M13.6 146.4c4.8-.7 9.8-1.5 14.7-1.4q10.3.9 20.5.4c8-.2 15.9.6 23.8.6h9c3.2-.1 6.5 0 9 2 2.4 1.6 4.7 3.4 7.4 4.1s5.5.3 8.2.1c5-.4 10-1.6 14.8-2.4 4.3-.9 8.8-1 13.1-2q3-.5 5.8-1.4 2.8-.6 5.7-.9 6.2-.5 12.3.1 5 .7 9.9 1.3c3.6.3 7 1.6 10.6 2" class="b"/><path d="M13.6 145q6.5-1 13-1.4c3.9 0 7.7.4 11.6.3 8.2-.2 16.4-.6 24.6 0q7 .4 14 .5c3.7 0 7.8-.3 11.4 1 3.4 1.5 6.2 4.4 9.9 5.2 2.3.6 5 .4 7.3.3 5.3-.3 10.5-1.5 15.6-2.6 4.6-1 9.4-1.4 14-2.2 3.5-.7 7-2 10.7-2.3q5.2-.3 10.6-.2 4.5.4 9 1.2l5 .5 8.2 2" class="b"/><path d="M13.6 143.4c4.3-.4 8.7-1.2 13-1.4 3.9-.2 7.7.2 11.6.1 8.4-.2 17-.6 25.4 0q6 .5 12.3.7c4.1 0 8.4-.2 12.3 1.2 3.4 1.3 6.3 4 9.9 4.8 2.3.7 5 .5 7.3.4 5.6-.1 11-1.5 16.5-2.5q6.8-1.4 14-2.4c3.4-.8 7-2 10.6-2.3q4.9-.3 9.8-.2 4.2.3 8.2 1l5.8.7 8.2 2" class="b"/><path d="M13.6 141.7c4.3-.4 8.7-1.2 13-1.5 3.9-.2 7.7.2 11.6 0 8.4 0 17-.5 25.4.1q5.7.6 11.5.8c4.4.1 8.9 0 13.1 1.2 3.7 1.3 6.8 4 10.7 4.7 4.6.8 9.3.3 14-.3q4.9-.4 9.8-1.6 6.9-1.8 14-2.7c3.7-.9 7.5-2.1 11.4-2.2q4.1-.2 8.2-.2 4.2.1 8.2 1 2.9.4 5.8.6l8.2 2.2" class="b"/><path d="M13.6 139.8c4.3-.3 8.7-1.2 13-1.5q5.4 0 10.7.1c8 .1 16-.4 23.8 0l12.4.9q7 .1 13.9 1.1c4.4.8 8 3.9 12.3 4.6q4.9.6 9.9.2c4.7.4 9.4-.6 14-2 4.4-1.4 9.2-2 13.9-2.7 3.7-1 7.5-2 11.5-2q3.7-.4 7.3-.4c3 .1 6 .7 9 1q2.1.4 4.2.5l9 2.4" class="b"/><path d="m13.6 138 11.4-1.5c7.7.9 15.4.6 23 .2 9.3-.5 18.6.3 27.9 1 3.3.1 6.6.8 9.9 1 5.2 0 9.7 3.3 14.7 4.2q2 .3 4.1.2 2.4.6 5 .8c4.7.3 9.4-.9 13.9-2.3 4.5-1.6 9.2-2.3 14-2.9 3.7-.8 7.5-2 11.4-2q4.1-.4 8.2-.3c3.6.2 7.2.9 10.7 1.2 1.6 0 3.3.7 5 1.1l5.7 1.5" class="b"/><path d="M13.6 136q4.8-.4 9.8-1.2 8.6 1.2 17.2.8 9.4-.6 18.9-.6 10.7.1 21.3 1.7c3 .6 6 .5 9 .9q3.4.7 6.6 1.8 2.5.8 5 1.7c6.9 2.5 14.4 1.3 21.3-1q5.2-1.8 10.6-2.7c1.6-.4 3.4-.2 5-.5 2.7-.5 5.4-1.5 8.1-1.8q5-.5 9.9-.4 6.1.4 12.3 1.1 4.9 1.6 9.9 2.7" class="b"/><path d="M13.6 134.2c3.2-.1 6.5-1 9.8-1q10.2 1.6 20.5.9 11.1-1 22.2-.5 8.3.4 16.4 2c4 .7 8.3.2 12.3 1.5q2.8 1.2 5.7 2.6c7 2.4 14.6 1 21.3-1.2q5.2-1.9 10.7-3c1.3-.1 2.8.2 4.1 0q2.5-.1 5-1c7.6-2.5 15.8-1.4 23.7-.8 2 0 4 .7 5.8 1.2l7.3 2" class="b"/><path d="M13.6 132.4q4.5-.2 9-.7 10.2 1.4 20.5 1.1c8.2-.4 16.4-1 24.6-.7 5.2.2 10.4 1.2 15.6 2.1 3.2.6 6.6.6 9.8 1.2q3.4 1.4 6.6 2.8c6.9 2.5 14.5.9 21.3-1.3 3.5-1 7-2.5 10.7-3l4 .3q2.6-.2 5-1l6.6-1.7c4.6-.8 9.3 0 14 .2l4.8.2c4.1 1.1 8.2 2.5 12.3 3.4" class="b"/><path d="M13.6 130.8q4.5-.1 9-.5c7 .6 14.2 1.4 21.3 1.2 9.8-.5 19.7-1.4 29.5-.5 4.2.4 8.2 1.5 12.3 2.1q3 .5 5.8 1.2l3.3.7 3.2 1.2c7.2 2.9 15.1 1.3 22.2-.9 3.5-1 7-2.5 10.7-3 1.3 0 2.7.5 4 .5 2 0 4-.7 5.8-1.2 9.5-2.9 10-2.5 19.7-1.6l5 .2c4.3 1.2 8.6 2.7 13 3.7" class="b"/><path d="M13.6 129.4c4.6 0 9.3-.4 13.9 0 7.1.3 14.2 1.1 21.3.6 9-.4 18.1-1.4 27.1-.3q5 .7 9.9 2 5.2 1.6 10.6 2.8 3.3 1 6.6 1.4c5.5.4 11.1-.6 16.4-2.2 3.5-1 7-2.5 10.7-3q1.6 0 3.2.6c2.8.4 5.6-.9 8.2-1.6q4.5-1.4 9-2.2 5 .1 10 .7c1.5.3 3.3 0 4.8.6q6.5 2 13.2 3.5" class="b"/><path d="M13.6 128.3q9.7-.3 19.6 0c6 .4 12 1 18 .4 9.4-.4 18.8-1.8 28-.2 5.9 1 11.4 3.3 17.2 4.6a47 47 0 0 0 23.8-1.5l5-1.5q2.3-1 4.8-1c1.4 0 2.8.7 4.1.7 4.3-.4 8.2-2.4 12.4-3.2 1.8-.3 3.8-1 5.7-1l10.7 1c5.2.9 10.2 3.3 15.6 4" class="b"/><path d="M13.6 127.5c6.5 0 13-.6 19.6-.4s13.2 1 19.7.4c8.8-.5 17.6-2 26.3-.8q3 .5 5.7 1.1c4.1 1.1 8.1 2.5 12.3 3.2 8.2 1.6 16.7.7 24.6-1.7 3-.7 6-2.5 9-1.8a9 9 0 0 0 4.2.5c4.1-.8 8-2.5 12.3-3.2q3.7-1 7.3-.6 4.6.3 9 .8c5 1 9.8 3 14.8 3.8" class="b"/><path d="M13.6 126.9c7-.2 14.2-1.1 21.3-1 6 0 12 1 18 .3 5-.6 9.9-.6 14.8-1.2a68 68 0 0 1 8.2-.3q3.3.3 6.6.4c5.8.7 11.4 3 17.2 4 10.2 2.1 13.4.8 23-2 2.6-.7 5.4-2.2 8.2-1.4q1.6.7 3.2.7c1.7 0 3.4-.7 5-1.2l5.7-1.5c2.7-.6 5.5-1.3 8.2-1.3 3.8.2 7.7.2 11.5 1 4.7.8 9.2 2.6 14 3.4" class="b"/><path d="M13.6 125.7c7-.3 14.2-1.2 21.3-1 5.7-.2 11.5 1.1 17.2 0q3.7-.6 7.4-1 3.7-.2 7.4 0c3.8-.3 7.6-.9 11.5-.5q2.8-.4 5.7-.3c5.7.7 11 3.1 16.4 4.7 8.5 2.5 11.7 1.7 19.7-1.6q3.2-1.1 6.6-2.1c4.8-1.3 4.8 2.4 11.4 0q6.4-2 13.2-3a76 76 0 0 1 11.5.3c5.3.5 10.3 2.5 15.6 3.3" class="b"/><path d="M13.6 125.2q15.9-2.3 32-1.4c4.7.3 9.3-1.5 13.9-2.2 3.8-.5 7.7.4 11.5.2q3.7-.5 7.4-.4 2-.3 4-.7c6.5-.6 12.3 3.3 18.1 5.6 6.3 2.4 11.4 2.5 17.2-1q3.6-1.8 7.4-2.8c5.6-2.5 6.1 1.6 11.5.3l9.9-2.5q3.6-.9 7.3-1 5.4-.3 10.7.3c4.7.5 9.3 1.7 14 2.7" class="b"/><path d="M13.6 124.7q9-1.7 18-2.4c4.6-.2 9.3.2 14 .2q4.5-.1 9-1.6c2.3-.8 4.8-1.7 7.3-1.7q3 0 5.8.6c1.3.1 2.8.5 4 .2l6.6-.6q1.7.1 3.3-.2c6.6-2.2 12.6 2.1 18 5.1 5.2 2.7 11.5 3.4 16.5.1 2.7-1.7 5.8-3.3 9-3.8 2.4-1.5 5-.8 7.4.3 3 1 6-.5 9-1q4.5-1.2 9-1.9c3.6 0 7.2-.7 10.7-.6q4.5.2 9 1.1 4.3.5 8.2 1.6" class="b"/><path d="M13.6 123c5.7-.6 11.4-1.7 17.2-2.1 4.6-.2 9.3.4 14 .4a26 26 0 0 0 9.8-2c2.4-1 4.8-2.2 7.4-2.2 2.8 0 5.4 1.1 8.2 1.5l4.9-1q2.8-.2 5.7-.6c1.7-.1 3.4.6 5 0 4.5-.8 8.7 1.8 12.3 4.3 4.7 3.2 11.1 5 16.4 2q2.7-1.8 5.7-3.2c2.4-.7 4.9-1.7 7.4-2 2.3-.7 4.4.8 6.5 1.1a13 13 0 0 0 4.1-.4l5-1 4.9-1q2 0 4-.3 4.5-.6 9.1-.8 5 0 9.8 1c2.5.4 5 .5 7.4 1.3" class="b"/><path d="M13.6 120c5.7.2 11.4-.7 17.2-.9 4-.1 8.2.9 12.3.9q2.5.2 5-.6 2.4-1 4.8-2 1.6-.4 3.3-.4c1.8-1 3.7-2 5.8-2q2.4.3 4.9 1.2c1 .4 2.2 1 3.2.4 3-2.2 6.3-4 9.9-2.2a12 12 0 0 1 7.4 1.3c1.6 0 3.3-.3 4.9 0 2.7.7 5 2.5 7.4 3.9 3.6 2.2 8 4 12.3 2.3 2-.7 3.8-2 5.7-2.8l6.6-2q3.7-.4 7.4-.6 1.6.5 3.2.8c2.5 0 5-.6 7.4-1 2-.3 3.8-1 5.8-.9 5-.1 9.8-1.5 14.7-1.5q4.6 0 9 .9 3.4.3 6.6 1.2" class="b"/><path d="M13.6 116.5c5.7 1 11.4.4 17.2.5 4.1 0 8.2 1.5 12.3 1.6 3.7-.1 6.5-3.1 9.8-4.3 1.6-.6 3.4-.2 5 0 2.1-1.6 5-1.6 7.3-.4 1 .4 2.2 1.3 3.3 1.3 2.7-2.6 5.6-6.6 9.9-5.5q2 .6 4 1.5 1.3 0 2.5.5 3 1.1 5.8 2.8 2.4-.4 4.9.1c4.2 1.4 7.8 4.8 12.3 5.2 3 .3 5.5-1.3 8.2-2.1q3.8-.5 7.4-2h4l5.8-.8q2 .7 4.1.4 4.1-.3 8.2-1.3 2.4 0 5-.2c4.3-.4 8.7-1.5 13-1.7q7.6-.1 14.8 1.9" class="b"/><path d="M13.6 112.7a80 80 0 0 0 15.5 1.7q5.5.5 10.7 2.2c2.7 1 4.5-.2 6.6-1.7l3.3-2.5c1.1-.8 2.5-1.9 4-2 1.8-.2 3.4.7 5 1.3 2-1.4 4.6-.8 6.5.5q1.3.8 2.5 1.3c2.4-2.6 4.1-7.1 8.2-7.2 2.5 0 5 1 7.4 1.8q5.4 1.7 9.8 5.3c6.9-1.7 10.2 3.7 16.4 3.5q1.7-.1 3.3-.5 3-.1 5.7-.5 1.7-.3 3.3-1t3.3-.6c2.5 0 5-.6 7.4-1 .7-.2 1.7.2 2.4.3q1.3.3 2.5 0a58 58 0 0 0 8.2-1.1c1.9-.2 3.9 0 5.7-.3 4.2-.4 8.2-1.4 12.4-1.8q7.5-.5 14.7 1.5" class="b"/><path d="M13.6 109.1c3.2.7 6.5 1.7 9.8 2a50 50 0 0 1 17.2 4c1.6-.1 3-1.5 4.1-2.5 2.3-2 4.7-4.4 7.4-5.8 2.4-1 4.8.8 6.6 2.1.7.1 1.7-.3 2.4-.3 2.3 0 4 1.9 5.8 3.2 2.4-2.4 3.2-6.5 6.5-7.9 2-.5 4 .3 5.8.7q5.5 1.4 10.6 3.5 2.1 1.2 4.1 2.6 1.1 1 2.5.7c2.9-.4 5.5 1.3 8.2 2 4.8 1.2 9.9 2 14.8.8 1.6-.3 3.2-1.2 4.9-1.5 3 .2 6-.8 9-1.2 2.6.9 5.5.5 8.2.3 2.2-.2 4.4-1 6.6-1 5 .2 9.9-1.1 14.7-1.9q8-1.2 15.6.9" class="b"/><path d="M13.6 106c3 .4 6 1.6 9 2q4.1.5 8.2 1.3 4.7 1 9 3.3c2.3-1.2 4-3.3 5.7-5q3-3.1 6.6-4.7c2.7-.7 4.8 1.7 6.6 3.3.7.2 1.7-.2 2.4-.1 2 .3 3.5 2 5 3.4l.8-.3c2.1-2.4 2.7-7.2 6.5-7.7q1.7.2 3.3.8 2 .8 4 1.2c1.5.3 2.8 1.2 4.2 1.6q2.3.7 5 1c2.6.6 5 2.3 7.3 3.5 2-.3 4 .5 5.7 1.2q3.2 1.2 6.6 1.8 7.6 1.4 14.8-1.5 3.7-.1 7.3-1l1.7-.4 2.4.5q3 .3 5.8 0 3.7-.4 7.4-1.2 3.7 0 7.3-.3c8.3-1.6 13.7-3.1 22.2-1" class="b"/><path d="M13.6 103.5c2.7.1 5.4 1.3 8.2 1.6 1.9-.2 3.8.7 5.7 1 3.7.4 7.2 1.8 10.7 3 3.4-1 5.4-4.6 8.2-6.7 5.6-4.2 7.8-4 12.3 1.3 1.8-.8 3.6.1 4.9 1.5.7.6 1.4 2 2.5 2.1l1.6-2c1.1-2.1 2-5.7 5-5.9 1.6.3 3.2 1.5 4.8 2l2.5.8c2 1.1 4.2 2.5 6.5 2.9 2.2.5 4.5.1 6.6.3 2 .4 3.9 1.6 5.8 2.5 3 .2 6 1.6 9 2.4q6 1.8 12.3.5 2.4-.6 4.9-1.5c3 0 6-.9 9-1.3 4.6 1.2 9.4.7 14-.1q2.4-.7 4.9-.5 3 0 5.7-.6c7.4-1.6 12-2.7 19.7-1.4" class="b"/><path d="M13.6 101.5q2-.2 4 .4c3-1.6 5-2.3 8.2-1.3 4 1 7.4 4 11.5 4 3.5-.4 5.6-3.8 8.2-5.6 2.3-1.6 5.4-3.2 8.2-2.3 2.1.8 3.2 3 5 4.2 3-1 5 2.5 6.5 4.5 1-1.5 2.4-3.4 3.3-5 .7-1.3 1.6-3 3.3-3q1.8.7 3.3 1.9 2 1.2 4 1.8c3.3 2.6 7.3 4.6 11.6 3.9 5-1 5.2-.8 9.8 1.4 3 .3 6 1.5 9 2.3q4.9 1.2 9.9.5 3.3-.5 6.5-1.6 4.5-.6 9-1.3a34 34 0 0 0 17.3-.7q3.7.3 7.4-.3c3.5-.7 7-1.8 10.6-2.1 2.7-.4 5.5 0 8.2.1" class="b"/><path d="M13.6 100c.7-.2 1.7 0 2.4-.5l2.5-2.2c4.5-3.4 10.2-.6 14.7 1.3 2.3 1 5.2 1.7 7.4.2 3-2 6-4.6 9.9-5 3.3-.6 5.6 1.7 7.4 4.2 3.2-.4 5 2.4 6.5 4.9l.8-.4q1.8-3.4 4.1-6.3c1.4-1.3 3 0 4.1 1q2.2 1.8 5 2.9a20 20 0 0 0 8.1 4.4c3.4.8 6.6-.6 9.9-1 2-.3 4 .6 5.7 1.3 5.2 1 10.3 3.1 15.6 2.8q5.1-.3 9.9-2 3.3-.2 6.5-.7 1.3-.4 2.5-.3l3.3.5q3.7.4 7.4 0 2.9-.3 5.7-1c2.4-.2 5 .1 7.4-.4 3.3-.6 6.5-1.6 9.8-2 2.7-.6 5.5-.3 8.2-.5" class="b"/><path d="M13.6 98.2c1.8-2 3.8-4.4 6.5-5.4 4.6-1.3 9.6-.4 14 1.5 2 .8 4.4 1.5 6.5.6s3.8-2 5.8-2.7c2.3-.7 5-1 7.3-.2 1.7.7 2.7 2.4 4.1 3.4 3.6 0 4.5 3.7 6.6 5.7 1.3-2.5 2.4-5.7 5-7.2 2-.3 3.3 2.1 4.8 3.2 1.2 1 3 1.5 4.1 2.5 5.9 4.6 11 5.4 18 3 4.3-1 8.4 1.3 12.4 2.4q2.4.6 5 .6a33 33 0 0 0 13-1.1q2-.7 4.1-.8 3.8-.3 7.4-.8c3.8.7 7.7 1.2 11.5.5q2.4-.4 5-1 3.2.3 6.5-.2c3.3-.5 6.5-1.6 9.8-2.1 2.5-.5 5-.3 7.4-.8" class="b"/><path d="M13.6 94.6c3.1-3.2 5.3-4.4 9.8-4.8q6.4-1.2 12.3 1.2 2.8 1.2 5.7.3c3.7-1.3 7.7-2.4 11.5-1.6 1.7.4 3 1.8 4.1 3 3.5.4 5.2 3.9 6.6 6.7 1.5-2 3.2-9 6.6-7 1.4 1.2 2.6 2.9 4 4q1.7 1 3.3 1.7 3 2.3 6.6 3.6a19 19 0 0 0 9.9.6c2.1-.4 4.3-1.2 6.5-1.1 2.4-.1 4.5 1 6.6 1.9a20 20 0 0 0 8.2 1.3q3.3-.4 6.5-.6a51 51 0 0 0 8.2-1.6c1.9-.4 3.9-.2 5.8-.5 1.6 0 3.4-.8 4.9-.4q3.7.8 7.4.8c2.4-.1 5-.8 7.3-1.3 4.8.7 9.4-.6 14-1.8a31 31 0 0 1 5.7-.8l3.3-.7" class="b"/><path d="M13.6 91.8c3-2.7 5-3.3 9-3.8q4-.9 8.2-1c3.3 0 6.5 2 9.8 1.7 4-.7 8.2-1.8 12.3-.8q1.9.6 3.3 2c.4.2 1.3.5 1.6.8 2.5 1.3 3.9 4 5 6.4l.8-.2c1-2.2 1.8-5.3 4-6.6h1c2.1 1.3 3.4 4 5.6 5.2 1.3.9 3 1.2 4.1 2q4.3 2.5 9 3.4 3.8.5 7.4 0 3.8-1 7.4-1c1.5 0 2.8 1.1 4.1 1.6q3 1.4 6.6 1.6a29 29 0 0 0 8.2-.8l5-.7 6.5-1.3h3.2q3-.2 5.8-1c3 .7 6 1.4 9 1l5.7-1.1q3 .3 5.8.1 4.2-.6 8.2-1.7 2.4-.5 5-.8l3.2-1" class="b"/><path d="M13.6 89.7q2.1-1.7 4.9-2.6l4-.7q4.2-.6 8.3-1.1 3-.2 5.7.4 2.8.8 5.7.5c6.4-.6 11.4-1.4 16.5 3.4 1.8 1.7 2.6 4.5 4 6.5 1-2.5 1.9-5.9 4.2-7.5h.8c2.4 1.6 3.8 4.7 6.5 5.9a23 23 0 0 0 4.1 1.6 29 29 0 0 0 19 2.7q2-.3 4-.3 1.3-.1 2.5.5c5.9 3.6 11.5 3.3 18 1.7q3.7-.7 7.4-1.3l5-.8h3.2q3-.1 5.7-1 4.1 1.2 8.2 1 3-.4 5.8-1 2.8.5 5.7.2c2.8-.2 5.5-1 8.2-1.5l3.3-.5 4.1-1.5" class="b"/><path d="M13.6 88.4c1.4-1 3.1-2.2 4.9-2.7q3.7-.7 7.3-1c4.1-.6 8.3-1.5 12.4-.6 1.3 0 2.7-.6 4-.7q4.2-.1 8.3.5c6.2 0 9.5 5.7 11.4 10.9 1.4-2.5 2-6.1 4.1-8h.9c2.6 2 4.1 5.4 7.3 6.6q2.4 1 5 1.4 5.2 2 10.6 2.4c4.1.2 8.2-.6 12.3-.4 1.6.8 3.3 1.9 5 2.5 5.2 2.2 11 .6 16.4-.5q5.2-1.2 10.6-1.8 2.5-.1 5-.1c1.9-.1 3.8-.7 5.7-1q3.7 1 7.4.8c1.9 0 3.8-.6 5.7-.7q2.4.4 5 .3c2.7 0 5.5-.7 8.1-1.2q1.7-.2 3.3-.5l4.1-1.7" class="b"/><path d="M13.6 88c4.7-4 6.2-4.1 12.3-4.6 3.8-.2 7.6-1.2 11.5-.9 1 0 2.2-.5 3.2-.6q4.5-.5 9-.1 2.7.1 5 1.3c3.3 2.2 5.2 6.1 6.5 9.8l.9-.7c1-2.2 1.3-5.6 3.2-7.1h.9c2.3 1.5 3.4 4.5 5.7 6 2.4 1.6 5.4 2 8.2 2.4 1.9.3 3.8 1 5.7 1.2 3.8.4 7.7 0 11.5 0l4.1.2 1.7 1c6 3.9 10.5 3.2 17.2 1.8 6-1.2 12-2.7 18-2.5q3.8 0 7.4-1c2.4.4 5 1 7.4.9q2.4-.1 5-.5 2.8.4 5.7.3 4.5-.3 9-1.1c2-.2 3.9-1.3 5.7-2.1" class="b"/><path d="M13.6 88.8c2.5-2.2 4.7-5.3 8.2-6 2.6-.7 5.4-.7 8.1-1l8.3-.7c3.5-.4 7-.3 10.6-.5q2.5-.1 5 .6c3.3 2 5.1 6.2 6.5 9.8l.8.4c1-2.5 1.3-6.2 3.3-8h.8c1.5.5 2.4 2.3 3.3 3.5a10 10 0 0 0 5 4q3.6 1 7.3 1.1 2.9.4 5.7.6c4.7 0 9.4-.5 14 .2 4 2.6 8 5 13.1 4.1 4.4-.7 8.8-1.8 13.1-2.5q5.3-1.2 10.7-1.2 4.5.2 9-.6 2.5.5 5 1 3.7.2 7.3 0 3.3.4 6.6 0 3.3-.3 6.6-1 3.5-.2 6.5-2" class="b"/><path d="M13.6 90.2c1.8-1.5 3.3-3.6 4.9-5.4 3.6-4.6 8.7-3.7 14-4.2l6.5-.5q2.8.2 5.7 0c2.7 0 5.5-.7 8.2-.2 4.3 1.5 5.2 6.9 7.4 10.3 1-2.6 1.4-6.2 3.3-8.3l.8-.3c1.5.4 2.4 2.3 3.3 3.4 1 1.5 2.4 3.2 4 4 2.6 1.2 5.5 1.2 8.3 1.4q4.5.5 9 .1 4.1 0 8.2.2 1.3-.1 2.5.4l2.4 1.4a23 23 0 0 0 7.4 2.8c4 .3 7.7-1.4 11.5-2q3.7-.8 7.4-1.2a36 36 0 0 1 9.8-1q4.1.2 8.2-.2 1.7.2 3.3.7a30 30 0 0 0 9.8.8q3 .5 5.8.2 2.9-.3 5.7-1 3.8-.5 7.4-1.8" class="b"/><path d="m13.6 88.8 3.2-.9c6.9-9.4 7.2-7.9 18-8.4l4.2-.3q3.3.3 6.5 0c10.6-1.5 10 .6 14 9.3 1-2.7 1.4-7 4-8.5l1 .1c3.8 3.5 4.3 8 10.6 8.6q7.8.5 15.6.3l7.4.5 2.4 1.6c3.6 2.6 8 3 12.3 2.2 2.8-.7 5.5-1.8 8.2-2.4q4.5-1 9-1.1 5-1.2 9.9-.8h6.6c2.7.7 5.4 1.7 8.2 2q5.2.6 10.6.5 6.8-.7 13.1-2.9" class="b"/><path d="M13.6 87.6a25 25 0 0 1 4.9-1c1.7-2 3-4.5 4.9-6.2 3-2.6 7-1.7 10.7-1.6q5.2-.1 10.6-.4c10.4-.7 9.4-1.8 14 7.8 1.2-2.3 1.5-5.6 3.3-7.5l.8-.2c1.7.5 2.8 2.4 4 3.6 1.5 1.6 3 3.5 5 4.4 3.3 1.4 7.1.9 10.7 1q6.6-.2 13.1.4c1.6 0 2.8 1.5 4.1 2.2 2.6 1.8 5.9 2.4 9 2q2.5-.3 5-1c2.9-1 5.9-2.3 9-3q4.8-.9 9.8-.7 2-.2 4.1-.6 2.4-.1 5 .1 2.8.1 5.7.5c2.7.8 5.4 2 8.2 2.4 7.7 1.5 15.6.3 23-2.3" class="b"/><path d="M13.6 86.3q2.8-.9 5.7-1.3c1.7 0 2.4-2 3.3-3 1-1.5 2.4-3.1 4-3.8 2.4-1 5-.6 7.5-.3q3.3.3 6.5.3c3.9.1 7.7-.7 11.5-1 3.4.1 4.1 4.3 5.7 6.6 1.7-1.6 1.4-5 3.3-6.5h.8c2.3 1.4 3.5 4.3 5.8 5.7l2.4 1.2q1.6 1 3.3 1.5c4 .8 8.3.2 12.3 0q5-.1 9.9.8c5.6 4.5 8.8 4.6 15.6 2.9a26 26 0 0 0 6.5-2q3.7-1.5 7.4-2c2.7-.7 5.5-.4 8.2-.3q4-1 8.2-.3 3.7.5 7.4 1.2 3.2 1.3 6.5 2.3c7.6 2.1 15.7.7 23-1.8" class="b"/><path d="M13.6 85q4.4-1.3 9-2.1c5.2-7.1 6.2-7 14.7-5.5q3.8.6 7.4.3l5-.9c1.7-.5 3.6-.6 4.9 1l2.4 3.8h.8c.6-1.6 1-4.4 2.5-5.4h.8c2.2 1.8 3.3 4.8 5.8 6.2q2 1 4 1 1.7.9 3.3 1.2c3.8.5 7.7 0 11.5-.4q4.2-.3 8.2.3c2.6 1.7 5.1 3.8 8.2 4.1 2.2.2 4.5-.4 6.6-1l7.4-1.8c2.6-1 5.3-2.2 8.2-2.6 2.4-.5 4.9-1 7.4-.6 1 0 2.2-.6 3.2-.6q3.3.2 6.6.8l8.2 1.5c1.9.7 3.8 1.8 5.7 2.4 7.5 2.8 15.7 1.1 23-1.3" class="b"/><path d="M13.6 83.7c2.2-.3 4.4-1.2 6.5-1.7 1.6-.5 3.4-.7 5-1.5 1.4-2 3.2-4.1 5.7-4.8 1.9-.4 3.9.2 5.7.6q3.2.8 6.6 1 3 0 5.7-.9c1.6-.5 3.5-1.2 5 0 .5.5 1.2 1.7 1.6 2.4l1.6 1.8c.6-1.6 1-4.3 2.5-5.3l.8.1c2.5 2.2 3.7 6.3 7.4 6.8q1.6.2 3.3-.1 2 .8 4 1.2 5.4.2 10.7-.7a32 32 0 0 1 7.4.2l1.6 1.2c4 3 7.7 3.6 12.4 1.7q4.8-1.8 9.8-2.5c1-.1 2.2-.8 3.3-1a42 42 0 0 1 10.6-2q1.2-.5 2.5-.4c2.7.4 5.4 1.3 8.2 1.4q5 .4 9.9 1.6 2.3 1.6 4.9 2.6c7.1 3 15 .7 22.1-1.4" class="b"/><path d="M13.6 81.9c2.2.1 4.4-.7 6.5-1.3l6.6-2c1.8-1.3 3.3-3.5 5.7-3.9 1.6-.3 3.4.3 5 .7q3.1.8 6.5 1.1 2.5 0 5-.8c1.5-.5 3.5-1.1 4.8.2.7.8 1.5 2 2.5 2.6 1-.9 1.4-3 2.5-4h.8c1.3.9 2.3 2.6 3.3 3.8 2 2.9 5 3.3 8.2 2.2 6.8 3.1 14.2-.5 21.3.4 6.9 5.5 9.6 4.6 17.2 1.5q4.4-1.4 9-1.8l5.8-1.6q3.3-.7 6.5-1.2c1.7 0 3.3 1 5 1.4 3.1 1 6.5.3 9.8.8q3.3.4 6.6 1.1 2.3 1.7 4.9 3c4.3 2 9.4 1.4 14 .4 2.4-.6 4.9-1.7 7.3-2.4" class="b"/><path d="M13.6 79.7c3.3 1 6.6-.8 9.8-1.7l5.7-1.6q1.9-1.7 4.1-2.5 2.1-.3 4.1.3 3.3 1 6.6 1.4 2.5.3 5-.6c1.5-.5 3.4-1.1 4.8 0 .6.8 1.6 1.8 2.5 2 .7-1 1.3-2.8 2.5-3.4 1 .1 1.8 1.2 2.4 2 2.8 3.8 5.4 4.8 9.9 3 6.4 3.5 13.7 0 20.5.5 7.4 5.7 10.1 4.3 18 1q4.9-1.4 9.9-1.8l4-1.2q3-.6 5.8-1.2c2.3.2 4.3 1.9 6.6 2.3q2.8.5 5.7 0a22 22 0 0 1 5.8.1l5.7 1.2c1.6 1.1 3.2 2.5 5 3.3 3 1.4 6.5 1.2 9.8.6l4-.8q3.4-1.3 6.6-2.7" class="b"/><path d="M13.6 77.5c3.5 1.6 7.2-.3 10.6-1.5q2.4-.8 5-1.2c1-.2 2.4-.2 3.2-1 3.3-2 7.3 0 10.7.7q2.4.6 5 0c1.5-.2 3.2-1 4.8-.7 1.2.3 2 1.7 3.3 1.7.9-.7 1.4-2.2 2.5-2.6 1.3.1 2.3 1.6 3.3 2.4 2.7 3 5.5 2.7 9 1.3 5.3 3.6 12 1.1 18 .9 1.6-.4 2.8 1 4.1 1.6q3.4 2.1 7.4 2c3.5-.3 6.6-2.3 9.9-3.4s7.1-1.1 10.6-1.8q2.9-.9 5.8-1.3.6-.4 1.6-.5c2.3.5 4.2 2.3 6.6 2.6 1.8.4 3.9 0 5.7-.3 2 0 3.8.3 5.7 0 1-.3 2.3.2 3.3.4q2 .7 4.1 1c2.7 2.6 6 4.8 9.9 4.4q4.5-.5 9-1.7l5.7-2.9" class="b"/><path d="M13.6 75.3q3.2 1.5 6.5.5c3-1 6-2.2 9-2.6q2-.3 4.1-.3c2.8-1.7 6.2-.6 9 .3 7 2.5 9.4-2.2 13.2.7H57c.3-.5 1-1.5 1.7-1.8 3.8 0 4.1 6 12.3 2.4 5.3 3.8 12 1.9 18 1.4 2 .6 3.8 2 5.8 2.6 3.8 1.4 7.9.4 11.4-1.3a27 27 0 0 1 8.2-2.5q3.3-.6 6.6-.6l4.1-.9c.7-.4 1.6-1 2.5-.9 4 1.6 5.8 3.8 10.6 2.4 3.7 2 7.8 1 11.5 0q2.1.5 4.1 1.2c1 .4 1.8 1.4 2.5 2q1.5 1.2 3.3 2c2.9 1 6 .2 9-.5l4-1q3-1.3 5.8-3" class="b"/><path d="M13.6 73.3c6.5 2.5 9.3-1 15.5-1.6q2.5-.3 5-.2 1.2-.2 2.4-.4l2.5.1c4.7 1 7.2 3 12.3 1.3a8 8 0 0 1 3.3-.4q1.6.7 3.3.1c1.2-1.5 2.6-1 4 0q2 1.2 4.2 1.5 1.6 0 3.2-.4c.8-.2 1.7-.8 2.5-.5l2.5 1.2c4.4 1.6 9.3.7 13.9.5q3 1.7 6.6 2.4c3.6.9 7.2-.5 10.6-1.5q2.8-1.3 5.8-2.2 3.2-.7 6.5-1 1.6-.2 3.3.3l2.5-.5c.7-.4 1.6-1.3 2.4-1.5 1.5 0 2.8 1 4.1 1.5q2.8 1.3 5.8.9c4.3 3.4 9.1 2.5 14 .6l1.6-.5c1 .1 2.2.7 3.2 1 4 4.2 6.6 5.5 12.3 3.8l6.6-1.7 5-2.6" class="b"/><path d="M13.6 71.3c1.3.3 2.7.9 4 1 4.2.3 8.2-2 12.4-2h4.9c1.6-.2 3.3-.5 4.9 0 4.7 1.1 7.2 3.3 12.3 1.4q1.6-.6 3.3-.6c1 .2 2.2-.2 3.3-.4 1.6-.8 3.4 0 4.9.6q2.4 1 5 .4l2.4-.6q.8-.3 1.6-.1c4 2.1 8.7 2 13.1 2q1 0 1.7.3l2.4 1q2.8 1 5.8 1 3.8-.2 7.4-1.7 2.4-.7 4.9-1.6a27 27 0 0 1 11.5-1.6c.7.1 1.6.7 2.4.7 1.2-.5 2-2.1 3.3-2.4 1.4-.2 2.8.8 4.1 1.2q2 .8 4.1.7c5 5.3 11.2 4.3 17.2 1.6 2-.7 3.2-1.3 5 .2 4 4.6 6.5 5.1 12.3 3.1l6.5-1.7q2.1-1 4.1-2.1" class="b"/><path d="M13.6 69.3q2 .6 4 1c3 .5 6.1-.5 9-1q4.2-.5 8.3-.2 1.6-.4 3.2-.3c5.9.6 8.2 4.5 14.8 2q3.7-1 7.4-1.3c1.6-.3 3.3.5 5 .7q2.4.2 4.8-.3c1-.2 2.3-.7 3.3-.7q5.1 2 10.7 1.9c3.4 1.2 7 2.6 10.7 2 3.6-.2 7.2-1.5 10.6-2.7q3.2-1.3 6.6-1.8 3-.4 5.7-.4c1.1 0 2.3.8 3.3.5 1.6-.7 3-2.4 5-1.9q2 .8 4 1.2c1.4 1 2.7 2.4 4.1 3.4 3.3 2.5 7.7 2.1 11.5 1.4 3.1-.7 6-2.2 9-3.2 1 .2 1.8 1.4 2.5 2q3.8 4.4 9 2.4 3.3-1.1 6.6-2 1.7-.3 3.3-.8l2.4-1.3" class="b"/><path d="M13.6 67.6q2.4.4 4.9 1c4.4.3 8.7-1.4 13.1-1l4.1.2q3-.6 5.7.4c4 1.6 7.2 3.2 11.5 1.9l2.5-.7q2-.3 4-.3c2.5 0 5-.6 7.5-.3 2.4 0 5-.7 7.3-1.2 2.2.5 4.4 1.2 6.6 1.3q4 1.5 8.2 2.2c5.4.8 10.5-1.7 15.6-3.1q6.8-2.4 14-1.6c9.2-5 10.8 4.6 18.8 5.6q5 .3 9.9-1c2.7-.8 5.4-2 8.2-2.8 1 0 1.7 1.2 2.4 1.8q3.5 3.8 8.2 2 3.3-1 6.6-2l3.3-.7 2.4-1.1" class="b"/><path d="M13.6 65.8c2.4.4 4.9 1 7.3 1 4.1-.4 8.2-1.3 12.3-.8l4.1.4q2.2-.1 4.1.4c3 1 5.9 2.7 9 2.6q2.6-.1 5-.7 4.5.5 9 .2 3.8-.6 7.4-1.4c1.6-.2 3.4-1 4.9-.5q4.1 1.3 8.2 1.9 3.7.8 7.4.2c4.2-.9 8.1-2.9 12.3-3.8a38 38 0 0 1 10.7-1.2c1 .2 2.2-.6 3.2-.7q3.6-.3 6.6 1.6c3.2 2 6 4.8 9.9 5.5 2.4.5 5 .1 7.3-.3q4.3-.7 8.2-1.8l5-1.5q1.2.1 2.4.7c3.9 4 6.7 3.3 11.5 1.5q2.8-1 5.7-1.6c1.1 0 2.3-.8 3.3-1.2" class="b"/><path d="m13.6 64 7.3.9q3.8-.3 7.4-.7c3.3-.2 6.6.4 9.9.8q1.6.1 3.2.4 2.6.9 5 1.8 2.3 1 4.9 1c1.3.1 2.8-.4 4 0a32 32 0 0 0 16.5-.5q2.9-.7 5.7-1 3.8.6 7.4.7c7 .6 9.4-1.4 15.6-3.6q6-1.9 12.3-1.6 1.3-.2 2.5-.7 2.5-.2 4.9 1c3.4 1.5 6.4 4 9.8 5.5q4.4 1.8 9 1l9-1.7 5.8-1.4 1.7-.4q1.2.2 2.4.6c1.2.2 2.3 1 3.3 1.6a7 7 0 0 0 4.1.7c2.2-.3 4.4-1.3 6.6-1.9q3.3-.8 6.5-2" class="b"/><path d="m13.6 62.1 8.2.8q3.2-.3 6.5-.6 4.1 0 8.2.8 3.4.5 6.6 1.3 2.8 1.2 5.7 2.1 2.4.6 5 .7a30 30 0 0 0 9.8 1.6c5-.1 9.8-1.9 14.8-2.5S89 66.2 93.9 64q3.3-1.6 6.6-2.8 4.4-1.1 9-1c.8.2 1.8-.4 2.5-.7q2-.6 4 .2 3.1 1.5 5.8 3.5c3.5 2.2 7.3 4.2 11.5 4.4 4.2.4 8.2-1.3 12.3-2l6.6-1.1c1.6-.2 3.3-1 4.9-.3l4.1 1.1q1.6.8 3.3 1c2.2 0 4.4-.8 6.5-1.3 2.5-.7 5-1.9 7.4-2.5" class="b"/><path d="M13.6 60.2q3.7 0 7.3.7 2.1.2 4.1-.3c5-.8 10 .5 14.8 1.4 3.1.6 6 2 9 3l3.3.7q2.4 1 5 1.6c6.8 1.9 13.7-.5 20.4-2q7.6-1.3 14.8-3c2.5-.7 4.9-2.2 7.4-3q3.6-1 7.4-.6.9 0 1.6-.7a5 5 0 0 1 4.1-.9c3.1 1 5.4 3.8 8.2 5.5 7.5 4.3 14.2 4.1 22.1 1.5 4-1.1 8.3-1.3 12.4-2 4.7 1.4 9.8 3 14.7 1.2q4-1.6 8.2-2.6" class="b"/><path d="M13.6 58.3q4.1.1 8.2.8l4.9-.6c4.4-.4 8.8 1 13.1 1.9 4 .8 7.7 2.5 11.5 3.8 8.7 4 14.1 2.8 23 .4 6.8-1.8 13.5-4.3 20.5-5.3 2.6-1 5.3-2.4 8.2-2.1.7 0 1.7.3 2.4 0 1.4-1.3 3-2.7 5-2.5 1.9.3 3.5 1.8 4.9 3q2.2 2.3 4.9 3.9c6.6 3 14.5 3.3 21.3.9 4.2-1.6 8.7-1.8 13.2-2.2q1.2-.1 2.4.5l3.3.9c6.4 1.7 11.9-1.8 18-3" class="b"/><path d="M13.6 56.4c2.7 0 5.4.7 8.2.8 4.9-.9 9-1 13.9.5 3.8 1 7.9 1.6 11.5 3.3 3.2 1.3 6.4 3 9.8 3.8 5.5 1.2 11.2-.4 16.5-2 5.7-1.7 11.3-4 17.2-5.5q3.3-.6 6.5-.7 1.6-.5 3.3-.5 1.3.2 2.5-.1c1.7-1.8 3.8-4.4 6.5-3.5 3.8 1.7 6 6 9.9 7.5 5.2 1.9 11 2.3 16.4 1.7 2.8-.1 5.5-1.3 8.2-2 3.4-1.2 7.1-1.4 10.7-1.5 1.6.1 3.2 1.1 4.9 1.4q3.7 1 7.4.2c3.8-.9 7.6-2.3 11.5-3" class="b"/><path d="M13.6 54.7c1.6 0 3.3.4 4.9.2q1.6.2 3.2 0c2.7-.4 5.6-.1 8.3-.1 4.1.4 8.1 2 12.3 2.7 4 1 7.6 3.2 11.5 4.6 5 2 10.5 1.4 15.5 0 6.2-1.8 12-4.4 18-6.4a25 25 0 0 1 9.1-1.3c1.4.1 2.7 1 4.1 1 1.5-1.8 3-3.9 5-5 2.6-1.4 4.8 1.3 6.5 3s3.5 3.5 5.7 4.5c2 1 4.4 1 6.6 1.3q4.9.6 9.8.4c3.7 0 7.2-1 10.7-2.1q4.5-1.4 9-1.4c2 0 3.8 1.2 5.8 1.6 6.4 1.8 12.5-2 18.8-2.8" class="b"/><path d="m13.6 53.1 2.4.2 1.7-.4c2.1-.1 4.3-.9 6.5-1 2.5 0 5 .8 7.4 1.3 3.6.4 7 2 10.7 2.6 6.1 1.2 11.5 5.9 18 5.6C69 61.2 77 57.1 85 54.2 89 52.8 94 51.4 98 53l.9-.2c1.3-1.3 2.6-3 4-4.1 3.1-2.2 5.4.3 7.4 2.5q2.5 2.9 5.8 4.7c2.3 1 4.9 1.1 7.4 1.2l9 .1c2.4 0 5 .2 7.4-.3 4-1 8-2.3 12.3-2.6q1.7-.3 3.3.2 2.3.9 4.9 1.5c3.5.8 7.2-.1 10.6-1.2q3.8-1 7.4-2" class="b"/><path d="m13.6 51.5 1.6.2 2.5-1q2-.7 4-1.3 3-.6 5.8.2 3.3.9 6.6 2.1c3 .6 6 1.8 9 2.2 3.4.9 6.5 2.9 9.8 4 5.8 2.6 12.3 1 18-.7 3.4-1 6.5-2.8 10-3.6 5-1.7 10.1-4 15.5-3 2.1-1.2 3.3-4 5.8-4.7 1.7-.4 3.4.8 4.9 1.7a13 13 0 0 1 3.3 2.8q1.8 1.9 4 3c5 2.3 10.5.9 15.6 1 3.3 0 6.6.5 9.9.1 4-.7 8.1-1.9 12.3-2.3q2.1-.2 4.1.7l3.3.8c6.4 1.5 12.7-1.6 18.8-3" class="b"/><path d="M13.6 50h.8c8.3-6 11.8-3.8 20.5-.3 1.8.7 3.9 1 5.7 1.7 1.3.4 2.9.4 4.1 1 3 1 6 2.6 9 3.6q2.9 1 5.8 1.2 4.5-.2 9-1.5 4.5-2.2 9-3.7 4.1-1.4 8.2-2 4.5-1.5 9-1.3c3.7-3.1 4.7-6.8 9.9-2.8q2 1.6 4 2.7c1.3.3 2.4 1.2 3.4 1.9 4.4 2.7 9.8 1.8 14.7 1.5 4.1-.5 8.3.2 12.3.2 4.2-.3 8.2-1.3 12.4-1.8l1.6-.2 1.6.8a16 16 0 0 0 8.2 1q2.1 0 4.1-.3c3.9-.8 7.7-2.1 11.5-3" class="b"/><path d="M13.6 48.3c8.3-8.4 11.9-5 21.3-1q3.2 1.3 6.5 2.2 2.2.3 4.1 1c4.3 1.4 8.6 3.4 13.2 3.8 6.6.7 12.5-3.4 18.8-5q4.9-1.2 9.9-1.6 2.8-.9 5.7-.7c1.6-1 2.6-2.8 4.1-3.8 2.4-1.6 4.8.6 6.6 2a16 16 0 0 0 5 2.7l3.2.7q2 .8 4 1.1c2.5.4 5 .1 7.5 0q4.5-.5 9-.5c2.4.1 5 .7 7.4.6q4.1-.2 8.2-.9c1.5 0 3.4-.8 4.9-.1 4.5 2.5 9.2 2.1 14 .8 3.7-.8 7.6-2 11.4-2.5" class="b"/><path d="M13.6 45.4c2-2.3 4.1-5 7.3-5.5 5.8-.5 10.5 3.7 15.6 5.7l5.8 2q2.4.3 4.9 1c4 1.1 8 2.5 12.3 2.6 6.5 0 12.6-3 18.9-4.3 3-.5 6-1.3 9-1.2q2.4-.4 4.9-.3c7-9.1 7.9-.8 15.6.9q3.3.8 6.5.6c3.3.7 6.6.3 9.9 0q4.5-.3 9 0c3 .2 6 .7 9 .5q3.3 0 6.6-.4c1 0 2.3-.4 3.3-.2q3.1 1.8 6.5 2.3c4 .4 7.9-1 11.5-2.2 2.7-.5 5.5-1.2 8.2-1.1" class="b"/><path d="M13.6 41.7c3.8-5.7 6.9-5.9 13-3.7q3 1 5.8 2.7 2.7 2 5.8 3.2l4.9 1.8q2.4 0 4.9.6 4.8 1.2 9.9 1.7c8.3.5 16.4-2.5 24.6-3.8 2.9-.8 6-.1 9-.6 6.8-8.7 7-.3 16.4.7q3.7.8 7.4.8c2.2 0 4.4-.6 6.5-.7 5.2-.1 10.5-.2 15.6.6q7 .6 14 0c1 .2 2.2 1 3.2 1.4q2.8 1.2 5.8 1.3c3.7.2 7.2-1.2 10.7-2.5 2.4-.4 4.9-1 7.3-.7" class="b"/><path d="M13.6 37.5c2.3-3.2 4.3-4.2 8.2-3q4 1 8.1 2c2.9.8 5 2.9 7.4 4.5q2.8 1.6 5.8 2.5 2.8.3 5.7.5 4.5.8 9 1.1a62 62 0 0 0 17.3-1.3q4.9-1 9.8-1.9c1.9-.1 3.9.3 5.7.3 5.3-7 6.2-3 12.4-.9 2.3.7 5 .6 7.3 1q4.5 1 9 .8 3.8-.5 7.4-1.2c1.6-.2 3.4.2 5 .3 2.7.1 5.4.8 8.2 1l9 .3c1 0 2.2-.3 3.3 0 4 2 8.5 3.7 13 2.5 2.4-.4 4.5-1.5 6.6-2.3q3.3-.7 6.6-.6" class="b"/><path d="M13.6 33.3c1.6-1.8 3.6-1.7 5.7-.8q2.4 1 5 1.4c7.9.6 8.4-.3 14.7 5.2q2.6 1.8 5.7 2.5l5 .2q5.2.2 10.6.7 4.1.4 8.2.3 4.1-.3 8.2-1c3-.5 6-1.7 9-1.9q2.1.2 4.1.6c1.7-1.8 3.7-4.7 6.6-3.6 1.6.7 3.2 1.8 5 2.3 2 .6 4.3.3 6.5.3s4.4.6 6.5 1q3.3.8 6.6.6c3.3-.2 6.6-.9 9.8-1q3.8 0 7.4.9 2.9.4 5.8.5 4.1.4 8.2.2c1.7.4 3.3 1.5 4.9 2.1 3 1.4 6.6 1.7 9.8.9 2.3-.5 4.5-1.8 6.6-2.8q2.4-.5 5-.5" class="b"/><path d="M13.6 30.3c1.3-.5 2.8.2 4 1a18 18 0 0 0 4.1 1.7c4.9 1.3 10.3-2 14.8.6 2 1.3 3.7 3.4 5.8 4.6l3.2 1.3q3 .2 5.8.2 4.5-.4 9 .1c3.8.5 7.7 1.2 11.5.8q4.5-.5 9-1.7c1.6-.3 3.3-1 5-.8l3.2.7c1.4-1 2.4-2.8 4.1-3.4q2.2-.5 4.1.7a12 12 0 0 0 4.1 1.4c2.4.3 5-.5 7.4-.4 3 .1 6 1.3 9 1.7 4.9.9 9.9-.4 14.8-.2 5.2 0 10.4 1.2 15.6 1.6l4-.1 2.5.6q3 2 6.6 3 5.6 1.1 10.7-1.6 2-1.2 4-2.2l2.5-.3" class="b"/><path d="M13.6 28.8c2 .5 3.7 2.2 5.7 3 5 2.2 10.4-.5 15.6-1 3.8-.3 6.1 3.3 9 5.2q2.4 1.3 5 1.7c3.2.5 6.5-.8 9.8-.6 4.3.2 8.7 1.5 13.1 1.2q3.7-.1 7.4-1c3.7-1 5.2-1.8 9 0a5 5 0 0 0 1.6-1.7q1.1-1.2 2.5-1.7c3-.9 5.3 2 8.2 2 2.5.1 5-.8 7.4-1 4.2-.2 8.2 1.5 12.3 2 4.9.7 9.8-.4 14.8 0 5.2.2 10.3 1.7 15.5 1.8l1.7-.1 2.4.7c2.1.4 3.8 2 5.8 2.6 4 1.6 8.6 1.4 12.3-.7 1.9-1 3.6-2.5 5.7-2.9" class="b"/><path d="M13.6 28c2 1.3 4 3 6.5 3.4 5.3 1 10.5-1 15.6-2.1 3.8-1 6.3 1.6 9 3.7 1.7 1.3 4 1.8 5.8 2.7 3 .8 6-.8 9-1q3.7.1 7.4.7 3.3.2 6.5.6 3.8.2 7.4-1.2c2.3-1 4.5-.1 6.6 1 .8-.7 1.5-2 2.4-2.6 2.4-2 5-.3 7.4.7q2.8.8 5.7.2c7.5-2 10-.8 17.3.6 5.4 1.1 11 .1 16.4.6 4.7.1 9.2 1.8 14 1.8 1.3-.2 2.7.5 4 .9 1 .3 2.4.4 3.3 1.1 3.4 2 7.5 3.4 11.5 2.6q2.6-.5 5-1.9l1.6-1 2.4-.4" class="b"/><path d="M13.6 27.6c3.6 2.5 7 3.1 11.4 2.5q3.4-.3 6.6-1c1.9-.5 3.8-1.3 5.7-1.6 3.2-.7 5.9.8 8.2 2.7q3.3 1.5 6.6 3c2.5 1.7 5.5 0 8.2-.4a29 29 0 0 1 5.7 0q3 0 5.8.7 2.4.4 4.9 0c1.6-.3 3.3-1 5-1q1.6.3 3.2.8l1.6.6c3.8-5 5.8-3 10.7-1.4q3 .5 5.7 0c2.2-.3 4.4-1 6.6-1.1 3-.3 6 .3 9 .8q4.1.8 8.2 1.2l11.5.3q2.1 0 4.1.6c3 .5 6 1.3 9 1.2q1.7.5 3.3 1.1l3.3 1c3.8 2.4 8.6 4 13.1 3q2.6-.7 5-2.2h2.4" class="b"/><path d="M13.6 27c4 2.3 8.7 1.7 13 1.1q3-.2 5.8-.8c2.5-.6 5-1.5 7.4-1.7q3-.1 5.7 1.3c3.9 1 7.3 3 10.7 5q2.9-.3 5.8-.7c1.3-.2 2.8 0 4-.4 2.4-.8 5 0 7.4 0 2 .1 3.9-.3 5.8-.2.7 0 1.7.5 2.4.4q1.7.2 3.3.8c4.7-5 7.9-1.6 13.1-.7 3.6.5 7.2-.2 10.7-.9 6.6-1.3 13.1 1 19.7 1.4l9.9.5c1 0 2.2-.3 3.2 0q5 1.3 9.9 1.6 3.1 1.6 6.5 2.4c3.7 2.2 8 4 12.3 3.6q3-.2 5.8-1.7l2.5.2" class="b"/><path d="M13.6 26.2c4 1.5 8.2.6 12.3 0q3.3-.1 6.5-.7c2.7-.5 5.5-1.3 8.2-1.6 2.2-.3 4.5.2 6.6.6a26 26 0 0 1 10.7 4.4l1.6 1 4-.3 3.4-.1q2-1 4-1c2.5 0 5.1 0 7.4.8 1.3.6 2.9.1 4.1.6 1.1-.6 2.2-1.6 3.3-2 3.3-1 6.7 0 9.9 1q6 1.4 12.3.4 4.8-1 9.8-.8c4.4.3 8.8 1.2 13.2 1.5 3.8.3 7.6.8 11.5.3 2.7.5 5.4 1.3 8.2 1.4q1.6.6 3.2 1.5 2 .9 4.1 1.4c3.7 2.4 8 4 12.3 3.9a16 16 0 0 0 5.8-1.1q1.2-.1 2.4.2" class="b"/><path d="M13.6 25.2c4.3.9 8.7-.5 13-1 2.5-.3 5-.3 7.5-.8 2.7-.4 5.4-1.3 8.2-1.1 4.6.1 9.5 0 14 1.6 2.5 1 5 2.7 7.3 4.2q3.2 0 6.6.2 1.6-.3 3.2-.3c2 .1 3.8.7 5.8.6 1.8-1.5 4-3 6.5-2.8q5.4.7 10.7 2 3.2.9 6.6.4c1.3-.3 2.8 0 4-.1 3.9-.3 7.7-1 11.6-1 4.9 0 9.8 1 14.7 1.4q3.7.5 7.4.5l4.1-.3 3.3.7 2.4.3a40 40 0 0 0 6.6 3q2.3 1.5 5 2.5 5 2 10.6 1.7 2-.1 4-.6l1.7.2" class="b"/><path d="M13.6 24c5 .5 9.8-1.4 14.7-1.9q3.8-.1 7.4-.7l10.7-.4c3.8 0 7.7-.2 11.5.4 5.8 1 11 5.6 17.2 4.2l5-1.5c4.1-.9 8.2 1.3 12.2 2.1a24 24 0 0 0 14 .2h5.7q7.8-1.2 15.6-.4c6.3.7 12.6 1.8 18.9 1.2q2-.2 4 .6l3.3 1.8c3 1.3 5.9 3.2 9 4a40 40 0 0 0 10.7 1.5c1.6 0 3.4-.4 5 0" class="b"/><path d="M13.6 23c4.7 0 9.2-2 13.9-2.2q4.9-.5 9.9-.5l19.6-1c5.3 0 10.4 1.5 15.6 2 3 .3 6.1.2 9 1 3.4.7 6.6 2.1 9.9 3a28 28 0 0 0 16.4-.5c.7-.3 1.7 0 2.5 0h3.2c5-.3 9.9-.8 14.8-.4q6.1.6 12.3 1.4c3 .2 6-.1 9 0 4 2 8 4.4 12.4 5.6q4 1 8.2 1.2 4 .5 8.2.5" class="b"/><path d="M13.6 21.8c4.1-.1 8.1-1.8 12.3-2q2.9-.4 5.7-.7 5 0 9.9-.3 8.5-.7 17.2-.8c10.3.3 20.7 1.8 30.3 5.7a30 30 0 0 0 20.6-.5c1-.5 2.2-.2 3.2 0h3.3c4 0 8.2-.5 12.3-.4 6.9.3 13.7 1.9 20.5 1.4 4.4 1.7 8.5 4 13.2 5q4.4.7 9 .8l7.4.9" class="b"/><path d="M13.6 20.7c3-.1 6-1 9-1.6q4.1-.5 8.2-1.2c2.7-.4 5.5 0 8.2-.3q7.7-.9 15.6-1c5.2 0 10.4 1.1 15.6 1.9s10.5 1.2 15.5 3c7 2.5 11.5 3.4 19 1.8q3.7-.8 7.3-2c1-.2 2.2.2 3.3.3h4.9q6-.4 12.3-.1c5.2.4 10.4 1.3 15.6 1.2 4.6 1.2 9.1 3.4 14 4 3.2.4 6.5.3 9.8.6 2.2.1 4.4.9 6.5 1" class="b"/><path d="M13.6 19.7q4.5-.2 9-1.4c3.5-.4 7-1.4 10.6-1.9q3.8 0 7.4-.4c4.9-.7 9.9-1.4 14.8-1.1 4 .3 7.7 1.8 11.5 2.8Q72 19.2 77.5 19c9 .2 15.4 5.2 24.7 3.4q5.7-1.1 11.4-2.8c2 0 3.9.6 5.8.5q5.3-.2 10.7-.2 4.8 0 9.8.6c3.6.5 7.2.2 10.7 1.3a56 56 0 0 0 13.1 2.4c3 .2 6 0 9 .4 2 0 3.9.9 5.8 1.1" class="b"/><path d="M13.6 18.7c3.3 0 6.6-.8 9.8-1.4 3.6 0 7.1-1.6 10.7-2.1 2.1-.4 4.4-.2 6.5-.6 4.4-.8 8.7-1.8 13.2-1.7 6.2 0 11.2 4.4 17.2 5.5 2.4.5 5 .2 7.4 0q2.8 0 5.7.3c5.5.8 10.8 3 16.4 2.4q5-.7 9.9-2c2.1-.6 4.3-1.4 6.5-.8 5 .6 9.9 0 14.8 0 4.4 0 8.8.6 13.1.9 3 0 6 .9 9 1.4 5.4 1 11 1 16.5 1 2.8 0 5.4.8 8.2 1.4" class="b"/><path d="M13.6 17.6q5-.1 9.8-1.4 3 .2 5.7-.6c2.5-.6 5-1.5 7.4-1.9q3.8-.2 7.4-1c3.5-.8 7-1.9 10.7-1.5 1.6.2 3.4.2 4.9 1 2.5 1.1 4.9 2.8 7.4 4 6 3.1 9.4 1.3 15.6 1.2 5.2 0 10.3 1.7 15.6 2 5.5 0 11-1.9 16.4-2.9 1.8 0 3.8.5 5.7.5l9.9-.1q10.3-.1 20.5 1.2 7 1 14 .9 4 0 8.1.2 3 .5 5.7 1.1" class="b"/><path d="M13.6 17.3q3.3.1 6.5-1c1.4-.3 2.7-1.2 4.1-1.3 5.1.7 9.8-2 14.8-2.6 4.5-.2 8.7-2.1 13.1-2.6 2.2-.2 4.5.3 6.6.7l2.4.6q1.3.7 2.5 1.6c6.4 4.4 9.8 4.5 17.2 3.6 5-.5 9.9 0 14.8.7 5.8.7 11.6-.9 17.2-2q1.7-.2 3.3.2l4.1.4 10.7-.2c8.5-.3 17 .6 25.4 1 4.4.2 8.8-.1 13.1.1 3 .1 6 .8 9 1.3" class="b"/><path d="M13.6 17q3.7.2 7.3-.9c1.4-.3 2.8-1 4.1-1.3q6.3-1.3 12.3-3c2.2-.6 4.5-.6 6.6-1 8.1-2 8.6-3.8 17.2-1q1.3.3 2.5.8l2.5 1.6q2.3 1.4 4.9 2.2c3.7 1 7.7.4 11.5.2q6.5-.5 13 .2c5.6.5 11-.5 16.5-1.4 1.6-.4 3.3.6 5 .7q4 .5 8.1.1c9.6-.8 19.2-.3 28.7 0 4.7.2 9.3-.3 14-.2 3.5 0 7 1 10.6 1.3" class="b"/></svg>