<svg xmlns="http://www.w3.org/2000/svg" id="a" width="1920" height="2400" viewBox="0 0 192 240"><defs><style>.b{fill:none;stroke:#fff;stroke-miterlimit:10;stroke-width:.3px}</style></defs><path d="M0 0h192v240H0z" style="stroke-width:0"/><path d="M8.3 215.6c5.6 1.3 10 5.6 15.7 6.8 3.7.8 7.6.1 11.3.6 5.5.6 11 1.6 16.6 1.4 4.8-.5 9.5-.7 14 1.3 6.7 2.7 13.4 7.1 21 6.1a40 40 0 0 0 17.4-8.2c4.2-3.3 7.8-8 13-9.6 4.5-1.4 8.9.5 13.2 1 4.3.2 8.7-.4 13-.2q4.5 0 8.8.9c6.8 2.2 12.3 10.3 20 7.5 4-1.6 7.2-4.6 11.4-5.2" class="b"/><path d="M8.3 213c5.2.6 9.1 4.4 14 6 3 1.2 6.4 1 9.5.9q4.6-.1 8.8.3 5.2.7 10.4 1c4.1-.3 8.3-.6 12.3.8 3 1 5.8 2.6 8.7 3.9 4.1 1.7 8.6 3.3 13 3.2q4.2-.2 8-1.6a29 29 0 0 0 10.4-5.7c4.1-3.3 7.5-7.8 12.2-10.3 4.6-2.4 9.2-1.1 14-.5 4.6.1 9.3-.5 14-.5 3.2 0 6.5-.2 9.6.6 6.6 2.3 11.4 10.8 19.2 8.8 3.9-1.4 7.2-4.3 11.3-5.2" class="b"/><path d="M8.3 210.9c9 1.3 11.6 8 22.7 6.1 6-.8 12.2 0 18.3.5 3.8.2 7.6-.7 11.4 0 4 .8 7.6 2.8 11.3 4.5q5 2.2 10.5 2.5 4.9.2 9.6-1 3.6-.8 7-2.3c4.7-2.2 8.3-6.2 12.2-9.6 5-4.4 9.9-5.7 16.6-5.2q2.6.1 5.2-.2 3-.2 6.1 0l10.5.2c3.2-.3 6.2 1 8.7 2.8 2.9 1.9 5.6 4.2 8.7 5.6 2.9 1.3 6 .6 8.8-.6q3.7-1.7 7.8-2.4" class="b"/><path d="M8.3 208.7c4.4.6 8.1 3.2 12.2 4.6a20 20 0 0 0 11.4 0q3.8-.5 7.8-.6c3.8-.1 7.6.4 11.4.4 3.7-.3 7.6-1 11.3-.1 3.7.7 7 2.6 10.5 4q5.8 2.2 12.2 2 4-.3 7.9-1a28 28 0 0 0 7-1.7c8.6-3.9 13-12.4 23.5-13.9q3-.2 6.1-.6c2-.3 4.1-.8 6.1-.7 3.2.2 6.5.8 9.6 1 2.6.3 5.3 0 7.9.3 4.5.8 8.2 3.9 12.2 6 2.1 1.1 4.6 2 7 1.7 3.7-.4 7.6-1.3 11.3-.8" class="b"/><path d="M8.3 205.7q5 1.5 9.6 3.6c4.3 1.8 8.6 1.6 13 .4q5.3-.9 10.5-1.2 4.9-.2 9.6-.5c4.7-.6 9.5-1.3 14 .2 4.7 1.4 9 4.1 14 4.4 4.3.6 8.8.1 13-.4 4.6-.3 9.3-1 13.2-3.5 4.8-3 9.4-6.8 14.8-8.7q4.3-1.3 8.7-2.1c2.3-.5 4.7-1.3 7-1.2 3.8.1 7.6 1.1 11.4 1.4 3.1.4 6.5-.2 9.6 1 4.2 1.2 8 3.9 12.2 5.2 2.2.6 4.7.6 7 1q4 .7 7.8 2.4" class="b"/><path d="m8.3 202.1 6 2.2c2.9 1 5.8 2.2 8.8 2.5 3.2.4 6.5-.3 9.6-.6 7.6-.5 15.2-2.2 22.7-3.4q5.8-.6 11.4 1.2c3.1 1 6.3 2.3 9.6 2.6 5.2.6 10.5 0 15.7-.5 4.7-.2 9.5-.3 14-2 6.4-2.6 12.4-6.4 19.1-8.2 3.5-.9 7-2.5 10.5-2.6 3.8 0 7.6.8 11.4 1.2 3.4.5 7 .1 10.4.9 4 .6 7.7 2.3 11.4 3.7q3.6 1 7 2.6 4 2.2 7.8 4.9" class="b"/><path d="M8.3 197.8c4.8 1.8 9.7 3.9 14.8 4.7q4 .5 7.9.3 4 .1 7.8-.2c6-.4 11.5-3.3 17.5-3.7 5.3-.3 10.6 1.2 15.7 2.2q4.3.8 8.7.6 7 0 14-.4c5.6-.2 11.2-.4 16.6-2 5.3-1.4 10.4-3.8 15.7-5.4 4.2-1.6 8.6-2.8 13-2.7q5.4 0 10.6.4 4.7 0 9.6.7 7.5 1.5 14 5.7c3.2 2 6.3 4.6 9.5 6.8" class="b"/><path d="M8.3 193.5q6.8 2.7 14 4.4 4.7.7 9.5 1c7.5 1.2 12.3.3 19.3-2.3 3.3-1.2 7-1.2 10.4-.8q4.8.6 9.6 1 4 .3 7.9.6c4.3.3 8.7 1.1 13 1q6.6-.4 13.2-.7 8 0 15.7-2.4c5.5-1.7 11-3.7 16.6-5 4.5-1.1 9.2-2 14-1.8 5 .3 10.2.4 14.8 2.8 6.1 3 11.2 7.8 17.4 10.7" class="b"/><path d="M8.3 190q6 2.4 12.2 3.6 5.2.7 10.5 1c11.2 1.8 12 1.4 22.7-2 5.1-1 10.5-.3 15.7-.3 3.8 0 7.7 0 11.3 1.1 4.9 1.3 9.8 3.3 14.9 2.6q4.3-.4 8.7-.7 4.4 0 8.7 0 7.2-.2 14-2.3 4.5-1.2 8.7-2.8c3.8-1.4 7.5-3.3 11.4-4.2q3.4-.7 7-.3 5 .2 9.6 2c3.7 1.7 7 4.3 10.4 6.7q4.5 3 9.6 4.4" class="b"/><path d="M8.3 187.7c9.5 3.9 13 3 22.7 2.5 5.2.2 10.4 1.7 15.7 1 3-.3 5.8-1.4 8.7-2q8.6-1.6 17.5-1.7c4.3.2 8.3 2.2 12.2 4 3 1.5 6.2 3 9.6 3 4.7-.1 9.3-1.3 14-1.3 6.3 0 13 .8 19.2-1q4.6-1.3 8.7-3.4c4-2.1 7.8-4.7 12.2-5.9 4.6-1 9.7-.4 14 1.7 8 4 11.1 9.3 21 10.4" class="b"/><path d="M8.3 185.8a24 24 0 0 0 15.7 2.1c2.9-.5 5.8-1.6 8.7-1.6 6.2-.2 12.2 1.7 18.3 1.2 8.2-1 16.2-6 24.5-3.5 4 1.1 7.7 3.5 11.3 5.5 3.2 1.9 6.7 3.5 10.5 3.4 4.4 0 8.7-1.5 13.1-1.7 3.5 0 7 .8 10.5.9 9 .6 16-5.7 23.5-9.6 5-2.8 11.3-4 16.6-1.6 3.5 1.5 6.5 4 9.6 6.2a24 24 0 0 0 13.1 4.2" class="b"/><path d="M8.3 183.7A24 24 0 0 0 24 186c3-.7 5.7-2 8.7-2.5 3.2-.4 6.4-.9 9.6-.5 2.6.2 5.3 1 7.9 1.2 7.9 1 14.8-6 22.7-4q6.9 1.9 13 5.3c3.2 1.6 6.3 3.7 9.7 4.7 4.6 1.6 9.4.1 14-.7 3.1-.5 6.4.4 9.5.8 3.2.4 6.7.2 9.6-1.2 4-1.8 7.5-4.4 11.4-6.4q4.6-2.5 9.6-4.2c3.3-1.2 7-1.8 10.5-.5 4.2 1.5 7.5 4.8 11.3 7 3.7 2.2 8 2.6 12.2 3.2" class="b"/><path d="M8.3 181.3q3 1.2 6 2c3.2.8 6.5 1.5 9.7.8 3.6-.7 7-2.3 10.5-3.2 3.3-1.2 6.9-2.3 10.4-1.8 3.2.4 6.4 1.7 9.6 1.2 5.1-.5 9.7-3.7 14.9-3.6 2.6.2 5.2 1.6 7.8 2 3.8 1 7.8 1.7 11.4 3.5 7.3 4 10 7.6 19.2 5.5q4.3-1 8.7-.2c6.2 1 10.7 0 15.7-3.9 5.7-4 12.7-5.3 19.2-7.3 9.2-3.5 13.5 2.7 21 6.2 3.6 1.4 7.6 2 11.3 3" class="b"/><path d="m8.3 178.6 6 1.7c2.9.8 5.8 1.8 8.8 1.7a44 44 0 0 0 14-4.7c2.6-1.4 5.6-2.5 8.7-2.2 2.3.1 4.7.8 7 1 4.5.3 8.7-1.6 13-2.3q2.8-.4 5.3.3 2.2 1 4.4 1.4c4 .9 8.3.5 12.2 1.9 6.3 2.3 10 8.4 17.5 8 2.6-.2 5.2-1 7.8-1 5 .2 10.3.8 14.9-2q2.7-1.6 5.2-3.4c4.1-2.7 9.2-3.1 14-3.6 4-.3 8-2.6 12.2-1.6 4.1.8 7.6 3.5 11.3 5.3 4.2 1.7 8.8 2.3 13.1 3.8" class="b"/><path d="M8.3 175.5q3 .5 6 1.4c2.7.8 5.3 2 8 2.3 4.2.7 8.5-.9 12.2-2.8 2.5-1.5 5-3.4 7.8-4.5 3.4-1.4 7-.8 10.5-.3q3.5.2 7-.3c3.7-.6 7.6-1.7 11.3-.7 4.5 1.7 9.4 2 14 3 6.2 1.1 10.6 6.4 16.6 8.2 3.4 1 7 .4 10.4 0 3.5-.1 7.2-.2 10.5-1.4 3.9-1.3 7.1-3.9 10.5-6 5.2-3 11-1.5 16.6-1.5 1.7 0 3.5-.5 5.2-.5 5-.2 9.5 2.1 14 3.9 4.8 1.7 10 2 14.8 3.5" class="b"/><path d="M8.3 172.5q3 .2 6 1c2.7.9 5.3 2.2 8 2.8 4.1 1 8.6-.3 12.2-2.5 3.1-2 6-4.8 9.6-6s7.6-.3 11.3 0c4.7.4 9.3-1 14-1.1 3.6.1 7 1.5 10.5 2.4 6.3 1.9 12.2 5 18.3 7.6a30 30 0 0 0 20 1.3q4.6-1.6 8.8-4.3c3.9-2.7 8.2-5.5 13-5.2 4 0 7.6 1.6 11.4 2 4.8.1 9.3 2.2 14 3 6 1.2 12.4 1 18.3 2.8" class="b"/><path d="M8.3 169.6q3.5.3 7 1.2c2.8 1 5.7 2.3 8.7 2.5 3.7.2 7.4-1.3 10.5-3.1 3.3-2.2 6.5-5.1 10.4-6 3.8-.8 7.6 0 11.4.4q4.9.5 9.6-.6c2.2-.4 4.6-1 7-.7 5.3.8 10 4 14.8 6.1 3.6 1.7 7.6 2.3 11.4 3.3 4 1 8 2.4 12.2 2.7a26 26 0 0 0 14-4.7c6.8-4.4 13.6-7.6 21.8-4.7l6 1.8 5.3 2.2q3 1.3 6.1 1.4c2.6.1 5.3-.3 7.9-.4q5.7-.2 11.3 1.1" class="b"/><path d="M8.3 166.9q4.4.4 8.7 1.5 6.9 2 13.1-1c6.6-2.6 10.7-7.9 18.3-6.8 3.8.3 7.6 1.2 11.4 1.6q4 0 7.8-1c6.8-2.3 10.8.5 16.6 3.6 2.7 1.4 5.6 2.7 8.7 2.8 3.5 0 7.1 0 10.5.9s6.9 2.2 10.5 1.9c5.3-.3 10.1-2.7 14.8-4.8q3.6-1.3 7-2.5c6.4-2.4 11.5-1.5 17.5 1.4 2 1 4 2.4 6 3.2 8 3.1 10.8-3.3 24.5-.1" class="b"/><path d="M8.3 163.7a60 60 0 0 0 12.2 1.2c3.4-.2 6.6-1.7 9.6-3.3q2.7-1.2 5.2-2.5c3.2-1.8 6.8-3.3 10.5-2.8q2.7.3 5.3 1 2.6.3 5.2 1 5.7 1.9 11.3.6c2.3-.5 4.7-1 7-.6 5.2.8 9.7 3.9 14.9 4.8 4 .7 8.1-.7 12.2-.2 3 .2 5.8 1.2 8.7 1.7q3.5.3 7 .1c5.6-.3 11.1-1.6 16.6-2.9 3.4-1 6.8-2.7 10.5-2.7q4.6.2 8.7 2.4c2.5 1.3 5 3.1 7.8 3.8 7.5 1.1 9.5-4.5 22.7-2" class="b"/><path d="M8.3 160c5 .5 10.1.6 14.8-1.3 4.2-1.7 8-4.3 12.2-5.8q6-2.8 12.3-1 3.4.9 7 1.4 3 1 6 1.7c3.5.8 7 .5 10.5.4q4.6.2 8.7 1.7c9 3.2 10.7 3.6 20.1 1.9 5-.7 10 0 14.9 0 4.6.3 9.3 1.3 14 1.6q2.5 0 5.2-.3c2.9-.6 5.8-1.7 8.7-2.2 4.9-.9 9.7 1 14 3.2 5.1 2.6 8.8 1.5 14-.2a42 42 0 0 1 13-1.6" class="b"/><path d="M8.3 156c4-.6 8.3-1.2 12.2-2.6 3.3-1.1 6.4-3 9.6-4.4 8-3.3 11.8-3.4 20-1.1l4.4.6 7.9 1.8c3.4.8 7 1 10.5 1.6 11.8 3 14.6 8 27.9 4.2 6-1.3 12.3-3 18.3-1.5 3.6.8 7 2.5 10.5 3.5 6 1.6 12.2-1.5 18.3-.8 4 .2 7.6 2 11.4 2.8 3.2.7 6.5 0 9.6-.9 5-1 9.8-2.8 14.8-3.3" class="b"/><path d="M8.3 151.4q6.8-2.6 14-4.8c4.8-1.7 9.6-3.7 14.8-4.2 4.7-.6 9.3.8 14 1.5q11.1.8 21.8 4.2c3.3 1 6.4 2.6 9.6 4 9.9 4.9 17.2 2.3 27-.8 6.5-2 11.7-1 17.5 2.3q5.7 3 12.2 2.8 5.2-.2 10.5.2c3.5.3 7 1 10.5 1q4.3-.3 8.7-1.4l5.2-1c3.2-1 6.4-2.3 9.6-2.8" class="b"/><path d="M8.3 146.7c8-5.4 17.7-6.6 27-7.6 5.6-.4 11.1 1.2 16.6 1.7 3.5.1 7 0 10.5.6 7.3 1.3 14 4.7 21 7.4q4.6 1.9 9.5 2.3 4 .5 7.9.1c4.2-.5 8.1-2.3 12.2-3.2 10.2-2.9 13.2 2.5 21.8 5.2 4.3 1.3 8.7 1.5 13.1 1.6 3.2 0 6.5.3 9.6-.1 5.3-.8 10.4-2.5 15.7-3.2 3.5-.9 7-2.3 10.5-2.6" class="b"/><path d="M8.3 142.2c6.3-5 13-6.2 21-6.2 2.8 0 5.8-.4 8.7-.1 4.3.5 8.7 1.6 13 2.2 4.4.5 8.9.1 13.1 1.1 4.8 1 9.3 3.2 14 4.2l8.7 1.8q3.1.2 6.2.6c3.4.5 7 1.4 10.4 1.2 5.6 0 11-2.7 16.6-2.7 4.2 0 7.8 2.5 11.4 4.4q3.2 1.8 7 2.7 5.1 1.2 10.4.8a33 33 0 0 0 7.9-.8c5.2-1.4 10.3-3.8 15.7-4.5 3.7-.7 7.5-1.8 11.3-1.5" class="b"/><path d="M8.3 137.3c6.4-5.3 12.2-5.4 20-4.7 2.6.3 5.3 0 8 .3 3.1.3 6.3 1.1 9.5 1.5q3.5.6 7 .8 4-.1 7.9.2c3.9.4 7.6 2 11.3 3.3 6.2 2.2 12.8.7 19.2.7 3.3.2 6.5 1.5 9.6 2.4q6 2.1 12.2 1.4c6.4-.8 11.6-1.1 17.5 2a28 28 0 0 0 8.7 3.2c4.3.7 8.8.4 13.1 0q4.1-.9 7.9-2.7c4.1-1.8 8.5-3.4 13-3.8q5.3-1 10.5-.4" class="b"/><path d="M8.3 132c6.1-4.5 11.1-4 18.3-3.2 4.4.5 8.8.6 13.1 1.7a48 48 0 0 0 15.7 1c10.4-1.5 12.7 3.7 21 4.4 3.8 0 7.6-.8 11.3-1.3 5.4-1.1 10.8 1.3 15.7 3.2q5.4 2.5 11.4 3c4.3.7 8.8.2 13 1 2.4.4 4.7 1.5 7 2.2q4.7 1.2 9.6 1.3c7.3.2 10.3-1.2 16.6-4.4 7-3.3 15.1-3.4 22.7-2.7" class="b"/><path d="M8.3 127.1c5.8-3.3 10.2-3 16.6-2.4q4.3.2 8.7.6c3 .6 5.8 1.8 8.7 2.5q5.2 1.4 10.5.5c2.3-.4 4.6-1.2 7-1.3 8.6 0 10.6 6.2 21.8 4.7 4-.3 8.2-1.4 12.2-.7q4.9.4 9.6 2 7 2.6 14 5.3c3.6 1.4 7.5.9 11.3 1q2.7.2 5.3.8 3 .7 6 1 4.8 1 9.7.7c3.8-.3 7-2.6 10.5-4.2q4.6-2 9.6-2.3 7 0 14 .1" class="b"/><path d="M8.3 123c3-1 6.3-2 9.6-2.1l11.3-1c5.2-.6 9.5 2.6 14 4.5q4.6 1.8 9.6.8c2.3-.5 4.6-1.6 7-1.9 3.7-.6 7.2 1.2 10.5 2.8q3.3 1.4 7 1.9 6.5.6 13 .1c1.4 0 3 .4 4.4.3q3.5-.4 7-.5c3.3 0 6.6 1.3 9.6 2.8 4 2 7.4 5.9 12.2 6.1 2.6.2 5.2-.4 7.8-.4q4.9.4 9.6 1c3.2.6 6.4 1.4 9.6.9 4.7-1 8.4-4.5 13.1-5.3 3.8-.7 7.6-.2 11.4 0q4.4.4 8.7 0" class="b"/><path d="M8.3 120.2q6-1.6 12.2-3 4.3-1.4 8.7-2.3c4-1 7.5 1.1 10.5 3.3 6 4.4 10.1 6.4 17.5 3.4 5.3-2 9-.4 14 1.5q5.9 1.6 12.2 1.8l7 .1q2 .3 4.3.2c3.5-.5 6.9-2 10.5-1.8 8.8.4 12 9.8 20 10q2.7-.1 5.3-.5h6c3.9 0 7.7 1 11.4 1.1 4.9.2 8.7-3.2 13.1-4.6 4.3-1.5 8.8-.5 13.1.2q4.8.8 9.6.5" class="b"/><path d="M8.3 118.2a71 71 0 0 0 14.8-6c7-3.7 10.2-4.8 16.6.5 4.1 3.2 8.3 8 14 7.5 4-.5 8-1.8 12.2-1.4 6.7.8 13.4 1 20 2.3l7 1q2.7-.1 5.3-1.1c5.5-2.2 10.6-4 15.7.2 2.6 2.1 5 4.7 7.9 6.3 4.8 3 10.5 1 15.7 1 10.6 0 10.9 1.4 21-3.7 8.2-3.9 16.8 1.4 25.2 1.7" class="b"/><path d="M8.3 115.8a81 81 0 0 0 14-7.4c5.7-3.7 10.3-6.3 16.5-1.8 3.7 2.6 6.8 6 10.5 8.5 6.8 4.2 16.2 1.4 23.6.4 8.3-1.3 11.6.8 19.2 2.4 3.6.5 7.1-1 10.4-2.1 3.4-1.3 7.3-2.2 10.5-.3 6.3 3.9 10.9 10.3 19.2 8.8 5.5-.8 11.2-.8 16.6-2 4.5-1.1 8.5-3.9 13.1-4.5 3.8-.3 7.7.7 11.4 1.6 3.4 1.1 6.8 2.6 10.4 3" class="b"/><path d="M8.3 112.3c4.6-2.7 9.2-5.7 14-8.2 5.1-2.8 11-4.6 16.5-2 4.3 2 7.7 5.6 11.4 8.5q3.6 2.5 7.8 4 5 1.4 9.6-.4c6.5-2.6 12.2-5.5 19.2-2.8a29 29 0 0 0 17.5.8c2.8-.6 6-1.3 8.7-.3 8.2 3 12.1 9.1 21.9 6.9q6.1-.8 12.2-2.6c3.7-1.1 7.5-2.8 11.3-3.6 4.7-1 9.4.7 14 1.8 3.8 1.2 7.3 3.4 11.3 4" class="b"/><path d="M8.3 107.7A38 38 0 0 1 39.7 99c4 1.1 7.3 4 10.5 6.6q2.5 2 5.2 4c3.6 3 7.7 4.7 12.2 2.6l7.9-4a15 15 0 0 1 10.5-2l5.2 1.1 4.4.8q4.3 1.2 8.7 1.3c2.6 0 5.3-.4 7.9-.1 5.7.4 10.9 3.6 16.5 4.4q3.1.1 6.2-.5 4.8-.6 9.6-2 4.7-1.7 9.6-3.1c7-2 11.7.8 18.3 2.6 3.8 1.4 7.3 3.7 11.3 4.3" class="b"/><path d="M8.3 102.7C13 98.8 16.8 96.3 23 96q4.4 0 8.7 0c2.6.1 5.3-.2 8 .2 5.8 1 10.2 5.6 14.8 9.1 3.3 3 7.4 6.4 12.2 5q4-1.5 7.8-3.8c2.8-1.6 5.6-3.5 8.8-4 2.8-.6 5.8 0 8.7.2q3.6.5 7 1.8 3.8 1.3 7.8 1.4 5.7-.1 11.4.5c3.5.4 7 1.4 10.5 1.5 2 .2 4-.3 6-.5q5.4-.6 10.5-1.9c5.5-1.5 11-3.4 16.6-1.5q3.6 1.4 7 3 2.7.8 5.2 2c3.1 1.4 6.2 3 9.7 3.4" class="b"/><path d="M8.3 97.4c10-8 18-4.8 29.7-3.8 6.2.7 11 4.1 15.7 8 3.5 2.8 7.3 6.7 12.2 6.1 3-.4 6-1.9 8.7-3.4 2.8-1.8 5.6-4 8.8-5.2q5.1-1.3 10.4-.6c3 .7 5.8 2.2 8.8 3 4.2 1 8.7.2 13-.3 4.4-.8 8.8.2 13.1.8 2.9.3 5.9 0 8.8 0q4.4-.4 8.7-1.6a21 21 0 0 1 12.2-1.1c4.4 1.1 8 4.1 12.2 5.8 4.4 1.5 8.4 4.5 13.1 5" class="b"/><path d="M8.3 92.5c5.4-3.3 12-4.8 18.3-4.2 3.3.3 6.4 1.6 9.6 2.5q5.3 1.4 10.5 3.5 3.6 1.9 7 4.4c4.3 3.4 9 6.9 14.8 5q3.7-1.1 7-3.1c2.8-1.9 5.5-4.1 8.7-5.2a24 24 0 0 1 10.5-.7C98.4 96 102 98 106 97.4c3.9-.4 7.6-1.8 11.4-2.7 4.1-1 8.3.6 12.2 1.7 4.3 1 8.8 1.5 13 .6 6.3-1.4 10.2-3.8 16.7-1.2 4.5 1.9 8.3 5.4 13 6.9 3.8 1.5 7.3 3.8 11.4 4.2" class="b"/><path d="M8.3 88.2C11 87 14 86.7 17 86c4.2-1 8.8-2 13.1-.5 3.5 1.4 6.8 3.5 10.5 4.7q3.4 1 7 2.3a41 41 0 0 1 7 4c3 2 6.6 3.9 10.4 3.6 2 0 4.2-.8 6.1-1.4q3.3-1 6.1-3c3-2 6.1-3.7 9.6-4.2 2.6-.3 5.3-.7 7.9-.1 6.6 2.2 9.2 2.6 15.7-.5 3.4-1.2 6.7-3.4 10.5-3 3.1.2 6 2 8.7 3.4 3.5 1.5 7.4 2.8 11.3 2.7 3.3-.1 6.4-1.5 9.6-2.1q2.6-.4 5.3 0c4.8.8 8.8 3.8 13 6q2.6 1 5.3 2c3 1.4 6.2 3 9.6 3" class="b"/><path d="M8.3 84.5c2.8-.5 5.9-.1 8.7-.8 4-.8 8.2-2 12.2-.9 2.2.6 4.1 2.1 6.1 3.1q3.8 2 7.9 3 3.6.6 7 2c3 1.2 5.6 3.2 8.7 4.3 4.6 1.8 9.5.4 14-1 2.7-1 5.2-2.6 7.8-3.8 3.3-1.5 7-1.6 10.5-1.8 2-.3 4.1.3 6.1.7 5 1.2 9-1.2 13.1-3.8 4-2 8.5-5.1 13.1-3 3.4 1.5 6.2 4.2 9.6 5.5 3.5 1.8 7.4 3.4 11.4 2.9 2-.2 4-.8 6-1a28 28 0 0 1 11.4 1.8l7 3c1.6.7 3.6 1 5.2 1.8 3 1.1 6.3 2.5 9.6 2.4" class="b"/><path d="M8.3 81.5c2.9.3 5.8.9 8.7.5 4.3-.4 8.8-1.5 13.1-.1 2.6 1 5 2.6 7.9 3.3 4 1.2 8.3.7 12.2 2 6.5 2.7 10.6 6.3 18.3 4.8q2.7-.4 5.2-1.1c2.4-.8 4.7-2 7-2.8q4.3-1.3 8.8-1.6 2.6-.3 5.2-.2c3 .3 6 .3 8.7-1 2.8-1.2 5.2-3.3 7.9-4.8 2.5-1.2 5-2.9 7.8-3.2 4-.4 7.4 2.4 10.5 4.5l8.8 4.9q5 2.2 10.4 1.9 3.5 0 7 .4c6.3.6 12.2 3 18.3 4.5 3.1 1 6.4 2 9.6 1.8" class="b"/><path d="M8.3 79.7c9.7 4.6 16-1.6 24.4 1q4.6 1.3 9.6 1.3c3.3 0 6.6.1 9.6 1.4 3.5 1.5 6.9 3.4 10.5 4.3 5.4 1.4 11.3.8 16.6-.8 6-1.7 12.2-2.4 18.3-3.5q4.2-1.1 7.9-3.7c4.7-3.3 10.5-7.3 16.5-5.6 2.9.8 5.4 2.6 8 4.1q2.2 1.2 4.3 2.3c4.3 2.7 8.8 5.6 14 6.2 6.3 1 12.8.7 19.2 1.9q3.4.7 7 1.5c3 1 6.3 2 9.5 1.7" class="b"/><path d="M8.3 77.9c4.2 3.1 9.9 3.4 14.8 2q3.5-1 7-1.7 2.2-.2 4.4 0c5.5-.4 11.2-1.6 16.5.5 9.4 3.6 19.5 7.3 29.7 5.4a74 74 0 0 0 9.6-2.4 43 43 0 0 0 9.6-3.5c6.6-3.6 11.9-9.1 20.1-7.2 4.3.9 8 3.5 12.2 4.9 4 1.6 7.5 4.4 11.4 6.1q5.3 2.4 11.3 2.7c5.3 0 10.6-.1 15.7 1 4.4.7 8.6 2.9 13.1 2.4" class="b"/><path d="M8.3 75.3c3.8 3 9 4.6 14 3.8 2.6-.4 5.2-1.6 7.8-2.5q2.2-.7 4.4-1.2c4.1-1.3 8.6-2.7 13-1.6 2.4.5 4.7 1.5 7 2L65 78c4.4.7 8.7 2.3 13.1 2.5 4 .1 7.8-1.3 11.4-2.8q4.9-1.6 9.6-3.8c7-3.4 12.7-7.3 20.9-5.2q4.5 1.1 8.7 2.4 2.6.6 5.3 1.5c3.6 1.4 6.9 3.7 10.4 5.3q5.1 2.3 10.5 2.5 5.3 0 10.5.6 3 .6 6.1 1.2c4 .7 8 2.5 12.2 2" class="b"/><path d="M8.3 72c3 2.4 6.8 4 10.5 5.3 5.4 2 10.8-1.2 15.7-3.5 3.7-2 7.8-4 12.2-3.3 2.6.4 5.2 1.5 7.8 1.7 3.5.3 7 0 10.5.4 5.7.3 10.9 3.9 16.6 2.8 3.7-.6 7-2.8 10.5-3.9 7.1-2.1 14.3-4.7 21.8-5.2q4 0 7.8.5c4 .5 8.3.5 12.3 1.5 5 1.7 9.6 5 14.8 6.3 2.5.7 5.3.7 7.9 1q4 .1 7.8 1 2.6.6 5.3 1.3l4.3.8c3.1.8 6.4 1.4 9.6.8" class="b"/><path d="M8.3 68.4c2.7 2 6 3.6 8.7 5.6 6.4 4.6 11.2 4.2 17.5-.3C38 71.1 42 68 46.7 68.2c2.9.2 5.8 1.2 8.7 1 3.8-.1 7.6-1 11.4-1 4.4 0 8.6 2.7 13 2 5-.3 9.1-3.6 14-4.1 4.6-.7 9.4-.7 14-.9l12.2-.6c4.6-.1 9.4-1 14 0 5 1.1 9.7 3.8 14.8 5q3.5.5 7 .7 3.5.5 7 1.4c3.5.8 6.9 2.2 10.5 2.5 3.4.7 7 1.2 10.4.3" class="b"/><path d="M8.3 65.7c2.5 1.7 5.5 3 7.8 5 4 3.5 9.3 8.7 14.9 5.6 4-2.2 6.6-6.1 10.5-8.5 3.4-2.4 7.5-1.7 11.3-1q4.4.4 8.7-.6 4-1 7.9-1.1c2.6 0 5.2 1 7.8.6 5.2-.3 9.7-3.5 14.9-3.8 6.1-.3 12.2 1 18.3 1.1q4.8.2 9.6 0 4.8-.6 9.6-1.4c6.5-.7 13 1.2 19.2 2.6q3.5.6 7 1.1 4 .8 7.9 2c3.1 1 6.3 2.1 9.6 2.5 3.4.6 7 1 10.4 0" class="b"/><path d="M8.3 64.6c2.5 1.7 5.5 2.7 7.8 4.8 4.3 3.5 10 10 15.8 5.8 3.8-2.8 6.4-7.3 10.4-9.8 2.9-2 6.4-1.6 9.6-1q3.5.7 7 .5c3.6-.3 7-1.6 10.5-2.3 2-.4 4.1 0 6-.5 4.8-.8 9.2-3.4 14-3.7q4 .1 8 .5l11.3 1c3.7.2 7.5 1.2 11.3 1.1 4.5 0 8.7-1.8 13.1-2q4-.6 7.9-.6 4 .3 7.8 1.3L168 64c5.2 1 10.5 2.5 15.7 1.4" class="b"/><path d="M8.3 64.6c2.7 1.9 6 2.8 8.7 5 4.7 3.4 10.3 7.7 15.7 3 3.8-3.4 6.5-8.4 11.4-10.5a13 13 0 0 1 7 0c3.4.5 7 1.4 10.4.7 2.7-.5 5.3-1.7 7.9-2.6 2-.7 4.2-.7 6-1.5 5-2 10.3-4.3 15.8-3 6 1.2 12.2-.1 18.3.3 7.5 1 10 3.8 18.4 1.4q3-.8 6-1.3c3.7-1 7.7-1.7 11.4-.8 3.8 1 7.5 2.5 11.4 3 3.7.7 7.6.5 11.3.8 5.2.5 10.4 2.5 15.7 1.7" class="b"/><path d="M8.3 64.1c2.7 1.9 6 2.8 8.7 4.5 6.4 3.7 12 5.3 17.5-.8 3-3.2 5.9-7.5 10.4-8.7 2-.4 4.2 0 6.1.3 3.2.2 6.5 1 9.6.4s6-2.2 8.8-3.5c1.6-.7 3.5-1 5.2-1.7 6.5-2.7 10.4-4 17.5-2 5.8 1.3 11.6-1.2 17.4-.9 2.8.2 5.3 1.4 7.9 2.2q3.4 1 7 .8c3.2-.5 6.4-1.6 9.6-2.2 3-1 6.4-1.6 9.6-.9 2.7.6 5.2 2 7.8 2.8 5.2 1.6 10.5.3 15.7-.2 3-.2 6 .7 8.8 1.3q3.8.9 7.8.6" class="b"/><path d="M8.3 61.8Q12.2 64 16 66c5 2.8 10.6 4.8 15.8 1.4 6-4.2 9-11.3 17.4-11.1 3.5-.3 7-.2 10.5-.7 3-.6 6-2 8.7-3.3 2-1 4.1-1.4 6.1-2.1 2.8-1 5.7-2.2 8.8-2.4 3.5-.5 7 1 10.4 1.4 5.6.6 11-2.2 16.6-1.8 2.4.2 4.7 1.3 7 2q3.3 1.1 7 1c6-.5 12.1-3.4 18.3-2 3 .7 5.8 2.2 8.7 3 5.6 1.4 11.1-1.1 16.6-1.6 2.7-.2 5.3.7 7.9 1.1q3.8.8 7.8.6" class="b"/><path d="M8.3 58.2C17 63.5 24 70.8 34.5 63.4c2.6-2 5.1-4.5 7.8-6.4a35 35 0 0 1 7.9-4c3.6-1.6 7.5-2.3 11.3-3l7.9-2q3.5-.9 7-2c6.4-2.3 10-2 16.6-.6q4 .4 7.8-.7c6.3-1.7 9.3-3 15.7-.7 9 3 11.4 1.8 20.1 1.4 4.8-.2 9.4 1.6 14 2.5 5.9 1.1 11.6-1.4 17.4-1.8 2.7-.2 5.3.4 7.9.7q4 .6 7.9.5" class="b"/><path d="M8.3 54c3.4 2 6.1 5.1 9.6 7.2 6 4 13.4 2.2 19.2-1.4s10.8-8.4 16.6-12.2A26 26 0 0 1 65 44c3.5-.3 7.1-.3 10.5-1.5 4-1.2 8-2.2 12.2-1.9l6.1.9a23 23 0 0 0 7.9-1c7.6-2.3 9.4-3 17.4-.8 2.9.7 5.8 1.7 8.8 2 2.8.5 5.8.3 8.7.7 5 .5 9.9 1.7 14.8 1.6 5.6 0 11-1.2 16.6-1.3 5.3 0 10.5.8 15.7.8" class="b"/><path d="M8.3 49.9c4 3 7.2 7.5 12.2 9.2 3.4 1.2 7 .7 10.5-.2 2.6-.6 5.4-1 7.8-2.2 9.2-4 13.6-15.1 23.6-17.4 3.4-.8 7 .2 10.5-.4 4.3-.8 8.6-2.2 13-2.2 4.1-.2 8.2 1.1 12.3.7 4.2-.2 8.1-1.8 12.2-2.5q4-.2 7.9.3c3.8.5 7.5 2 11.3 2.7 5.5.6 11 2.3 16.6 2.1 3.2 0 6.4-.6 9.6-.7q5.3 0 10.5.4 4.3.3 8.7.1l8.7.3" class="b"/><path d="M8.3 46.7c7.5 6.5 10 11 21 7.8 3.3-1.1 7-.8 10.4-1.8 7.5-2.7 11.5-10.3 17.5-15 4.3-3.9 8.3-4.4 14-4 4.3 0 8.6-1.3 13-1.3 4.4-.2 8.8 1 13.1 1.2 4.1.4 8.2-.6 12.2-1.4q3-.4 6.1-.5 3.6-.3 7 .1l9.6 2c3.8.7 7.5 2 11.4 2.2 3.5.2 7-.7 10.4-.8q5.3 0 10.5 1.2 4.8 1 9.6.5 4.8-.2 9.6-.2" class="b"/><path d="M8.3 45c2 1.5 4 3.5 6 5 4.9 3.4 10 1.6 15-.3 3.2-1.5 7-.9 10.4-1.5 4.7-.9 8.3-4.3 11.4-7.7 5.2-5.5 10.7-13 19.2-12.5 4.3 0 8.7-.4 13 .1 6.4.7 12.8 2.2 19.2 2.4 3.5 0 7-.6 10.5-.9 2.6-.3 5.3-1 7.9-1.2q3-.4 6-.1 4 0 8 1c4 1.3 8 3 12.2 3 3.2.1 6.4-.5 9.6-.2 4 .2 8 1.7 12.2 2 5 .2 9.9-.6 14.8-.8" class="b"/><path d="M8.3 43.6c2 1.2 4 3 6 4.2 5.4 2.9 10.8-.8 15.8-2.5 3.3-1.4 7-.4 10.5-1.3 4.2-1 7.5-4.2 10.4-7.3 5.4-5.2 10.3-12.5 18.4-13.3q3.8-.4 7.8 0 5 1 9.6 2c4 1 8.2.8 12.3 1.6q7.3 1.4 14.8.3c3.2-.5 6.4-1.7 9.6-2.2 4-.6 8.3-1.3 12.2.2 4.6 1.7 9 4 14 4 2.9 0 5.8-.4 8.7 0 3.5.3 7 1.7 10.5 2 5 .4 10-.5 14.8-1.1" class="b"/><path d="M8.3 41.7c2 1 4 2.5 6 3.5 4.5 1.8 9.1-.7 13.2-2.4q2.4-1.1 5.2-1.5c2.3-.3 4.8-.1 7-.7 4.7-1.3 8.1-5 11.4-8.3 5-4.9 10.2-10.7 17.4-11.8 6.6-1 10.5.5 16.6 2.2q2.6.6 5.2.8h5.3c5 .3 9.8 1.4 14.8 1.3 4.7-.2 9.3-1.6 14-2.2s8.5-1.7 13 .2c4.3 1.5 8.5 3.7 13.2 3.5q3.8-.5 7.8-.2c3.6.2 7 1.7 10.5 2.2 5 .6 10-.1 14.8-.9" class="b"/><path d="M8.3 39c2.1.8 4 2.2 6 3 5.5 1.7 10.7-1.9 15.8-3.2 2.3-.6 4.7-.5 7-.9 6.4-1 10.5-6.7 14.8-11 3.7-3.5 8-6.6 13.1-7.7q3-.5 6.1-.6 3.5-.4 7 .3c3.7.8 7.5 2 11.4 2 2.8 0 5.8-.6 8.7-.6q5.7.2 11.3.5 8.3-.3 16.6-.2c2.6 0 5.3-.8 7.9-.7 7.8.8 11.4 4 20 2.5q4-.5 8 .6 3.4 1 6.9 2 7.5 1 14.8 0" class="b"/><path d="M8.3 35.9c2 .6 4 1.8 6 2.5 5.5 1.4 10.6-2 15.8-3 2.3-.5 4.7-.3 7-.7 6.5-1.3 10.3-7.3 14.8-11.6 5-4.8 10.7-6.5 17.5-6.2l5.2-.3q3 0 6.1.5 7 1.3 14-.1 6.5-1 13-.8c3.3.1 6.6-.1 9.7.6 4.6 1 9.2 2.5 14 1.5s9.9.3 14.8.4c4 .3 8.1-1.2 12.2-.6 3.7.4 7 2.3 10.5 3.3q2.5.5 5.2.7 4.9.5 9.6.3" class="b"/><path d="M8.3 32.9c2 .7 4 1.8 6 2.2 5.6.8 10.5-2.5 15.8-3.3 2.6-.5 5.3-.2 7.9-1 6.6-2.2 10.2-8.8 15.7-12.6 4.8-3.3 11-3.2 16.5-3.2 7.3-.9 14.6-1 21.9-2q6-1 12.2-.9l9.6.6c3.6.8 7 2.4 10.5 3.4 3.4 1.1 7 .3 10.4-.3q5.7-.7 11.4-.9c2.9 0 5.8-.6 8.7-.7q3.6 0 7 1.1c2.9 1 5.7 2.4 8.7 3 4.4.5 8.7 1.6 13.1 1.8" class="b"/><path d="M8.3 29.8q2.5 1 5.2 1.7c4.6.5 8.8-2 13.1-2.9 2.5-.7 5.3-.7 7.9-.9q2.8-.4 5.2-1.8c5.7-3.1 9.3-9.6 15.7-11.5 5.7-1.6 11.7-.7 17.5-1.8 8-1.8 16-4.5 24.4-4.6q5.7 0 11.4 1c1.7.3 3.5.3 5.2.8 3.9 1.1 7.4 3.2 11.4 4.2 3.8 1 7.6-.3 11.3-1.3q4.7-1.3 9.6-1.5a43 43 0 0 1 20 2.7q4 1 8 1.7 4.7 1.1 9.5 2" class="b"/></svg>