<svg xmlns="http://www.w3.org/2000/svg" id="a" width="1920" height="2400" viewBox="0 0 192 240"><defs><style>.b{fill:none;stroke:#fff;stroke-miterlimit:10;stroke-width:.3px}</style></defs><path d="M0 0h192v240H0z" style="stroke-width:0"/><path d="M14.7 217c3-1.4 6.3.3 8.9 2 1.1 1.7 2.2 3.8 4 5 1.7.8 3.8.6 5.7.6l6.5-.6c6.7-.8 13.4-2.2 20.2-2.4 6.2-.4 12.4-.3 18.6-.5 3-.3 6-.1 8.9-.6q6.8-1.4 13.8-2.2c4.8-.4 8.8 0 12 4 2.8 2.9 4.5 7.2 8.2 9 2.9 1.3 6 0 8.9-.9 4.5-1.4 8.5-4.2 13-6q3.8-1.4 8-1.8 4-.2 8.1 0 4.5.2 9 .7c2.9.4 5.8 1.2 8.8 1.5" class="b"/><path d="M14.7 215.5c2.2-.3 4.5.7 6.4 1.7q1.6.8 2.5 2.3c1 1.4 2.2 3 4 3.3 2.4.6 4.9.3 7.3.3 6-.2 11.9-1.2 17.8-2q10.5-1.3 21-1.6l7.3-.5q3 .1 5.7-.4c5.3-.8 10.8-1.9 16.2-1.2 7.2.3 9.8 5.8 13.7 10.8 2.4 3.2 5.3 3.7 9 2.6q4.6-1.2 8.8-3.2c3-1.5 5.8-3.6 9-4.8 5-2 10.7-1.8 16.1-2q4.1 0 8.1.5c3.3.5 6.5 1.4 9.7 1.8" class="b"/><path d="M14.7 214.5c2 .1 3.8 1 5.6 1.8 1.5.3 2.3 1.7 3.3 2.7a9 9 0 0 0 4 2.5q3.7.6 7.3.2 5.7-.2 11.3-.9c9.5-1 18.9-2.5 28.4-3l6.4-.5q2.4 0 4.9-.3c5-.6 10.3-1.5 15.4-.6 7.4.8 9.6 4.8 13.7 10.3 2.8 3.7 5.3 4.3 9.7 3q4.3-1.1 8.1-2.8c3.1-1.6 5.8-4 9-5.5q1.4-.8 3.2-.8 2-.1 4-.5l6.5-.8 6.5.2q3.1.2 6.4 0c3 .6 6 1.5 9 1.8" class="b"/><path d="M14.7 213.6q2.9.8 5.6 1.8c1.3.3 2.2 1.6 3.3 2.4a9 9 0 0 0 4.8 2.4c3.5.4 7-.2 10.6 0 2.4 0 4.8-1 7.2-1 9.8-.2 19.4-2.3 29.2-2.9l5.6-.6q3.3-.1 6.5-.5c4.6-.2 9.3-.9 13.8.2 7.3 1 9.4 5.6 13.7 10.7 2.6 3 5.2 3.4 9 2.3q4.6-1 8.8-3.4c2.5-1.6 4.8-3.8 7.3-5.3h2.4q2.4-.1 4.9-.5c3-.5 6-1.4 8.9-1.5 4.6.3 9.2.7 13.8.2q3.6 1 7.2 1.6" class="b"/><path d="m14.7 212.8 5.6 1.5c1.3.1 2.3 1.2 3.3 2a9 9 0 0 0 6.4 2.3l4-.3 4.1.3q4.5 0 9-1.3c1-.3 2.2 0 3.2 0H55q6.9-.6 13.8-1.7 2.4-.4 4.9-.5l5.6-.8q2.4-.2 4.9-.2 4.8-.4 9.7-.6 4.2-.2 8 .7 3.1.5 5.8 2.4c3.4 2.6 5.5 6.7 8.9 9.4 2.8 2.2 6.6 1 9.7 0q3.1-.9 5.6-2.7c2.2-1.7 4.2-3.8 6.5-5.4 1.6.1 3.3.6 4.9.5 4-.3 8-1.6 12.1-2.4 1.3-.2 2.8.2 4 .2q3.8.4 7.3.4l4-.4q3.3 1 6.6 1.5" class="b"/><path d="M14.7 211.9q3.6.8 7.2 1.4c1.6 1 3.1 2.3 4.9 2.8s3.8.3 5.7 0a31 31 0 0 0 17.8-1c6.7 1.3 13.6 0 20.2-1.1q2-.2 4-.3l5.7-.8q7.4-.1 14.6-.7c5-.4 10.8.2 14.6 4 2.7 2.6 4.8 6 8 8 4.2 2.1 9.5-.2 13-2.5 2.6-1.6 4.5-4.6 7.3-6 5.8 2.5 12 0 17.8-1.3 1.3-.4 2.8 0 4 0q3.3.3 6.5.4l5.7-.3 5.7 1.4" class="b"/><path d="M14.7 210.9q4 .9 8 1.2c1.4.4 2.7 1.3 4.1 1.6 1.6.4 3.3-.2 4.9.4q5.1 1.4 10.5 1.2 5.2-.6 10.5-2.1a36 36 0 0 0 14.6 0 24 24 0 0 1 5.6-.6c3.3 0 6.5-1.2 9.7-1q5 .1 9.8-.5c5-.7 10.7-1.1 15.3 1.6 3.6 2.4 6.1 6.2 9.7 8.5 4 2.3 8.8.4 12.2-2 2.3-1.6 4.2-3.9 6.5-5.6 1.9.1 3.7 1.3 5.6 1.4 5 .5 9.8-1.5 14.6-2.4 1.3-.4 2.7 0 4 0l5.7.3 5.7-.2q2.8.8 5.7 1.3" class="b"/><path d="M14.7 209.9c4.2.8 8.6.7 13 1.5q3 .8 6.4 1.6 3.5.7 7.3.6 4.5.1 8.9-1c2-.3 4.3-1.4 6.4-.9a32 32 0 0 0 13-.4q1.6 0 3.2 0c3.5.1 7-1.3 10.5-.8q3.7 0 7.3-.3c3.2-.4 6.5-1.2 9.7-1.1q2.4 0 4.9.5c.8.2 1.9.5 2.4 1.2 1.4 1.5 3 3.2 4.9 4.2 1 .5 2.4.6 3.2 1.5 7.5 5.8 13.6-.6 19.4-5.2 2.2.5 4.3 1.6 6.5 1.9 5 .6 9.8-1.4 14.6-2.3q2-.5 4-.2l5.7.3q2.8-.1 5.7-.1 2.8.7 5.6 1.3" class="b"/><path d="M14.7 208.6c4.2.6 8.6.7 13 1.4 2.3.3 4.8 1.1 7.2 1.5q4.5.7 8.9.5c5 .1 9.7-1.4 14.6-2.1q3.5.7 7.2.4c1.6 0 3.3-.5 4.9-.3q2.8.4 5.7 0c2-.2 4.3-.8 6.4-.7q4.1.6 8.1-.1c3.2-.6 6.5-1.5 9.7-1.6h4l1.7.2c.5.2 1.3.9 1.6 1.3 2.2 2.4 4.6 5.3 8.1 5.2 1 0 2.3-.5 3.3 0 5.7 2.2 10.9-2 15.3-5 2.2.3 4.4 1.3 6.5 1.8 5.2 1 10.3-1 15.4-1.9 3.1-.8 6.5-.2 9.7-.2h5.7q2.8.7 5.6 1.3" class="b"/><path d="M14.7 207.2q7 .5 13.7 1.5 4 .9 8.1 1.5 6 .6 12.2.2 5.3-.6 10.5-1.7c2-.5 4.3 0 6.4 0l3.3-.2q2.8.4 5.6.5c2.5 0 5-.7 7.3-.7 1.9 0 3.8.5 5.7.3 3.3-.1 6.5-1.3 9.7-1.9q4.5-.8 9-.8c5.2 4.3 6.5 9.3 14.5 5.7 1-.7 2.2-.4 3.2-.5a18 18 0 0 0 4.9-1.4q2.5-1 4.8-2.3 1.7 0 3.3.5c1.8.5 3.7 1.3 5.7 1.5 4.9.3 9.7-1.4 14.5-2.1 3.2-.7 6.5-.3 9.7-.3q3 0 5.7.2l4.9 1.2" class="b"/><path d="M14.7 205.7c7.4 0 14.5 2.2 21.8 3.1q5.7.6 11.3.3 5.8-.2 11.4-1.4c1.5-.3 3.2 0 4.8 0q4.8.4 9.7.3 4.1-.4 8.1-.7c2.2 0 4.4.6 6.5.3 3-.2 6-1.3 8.9-2q4.4-1 8.9-1.4c2.3 1.2 3.7 3.7 5.7 5.3 4.9 4.3 9.8 0 14.5-2q2.4-.4 4.9-1.2 2.4-1 4.9-.5c1.9.2 3.7 1 5.6 1.4 5.2.7 10.3-1 15.4-1.8 3.7-.7 7.6-.5 11.3-.3l4.9.2q2 .4 4 1" class="b"/><path d="M14.7 204c4-.2 8.2.7 12.1 1.8q3.3.7 6.5 1.2c6.4 1.2 13 .8 19.4.6 2.4-.4 4.9.5 7.3.5a91 91 0 0 0 20.2-1.8c2.7-.5 5.4.7 8 .4 4.2-.4 8.2-2.1 12.2-2.9l5.7-1.1c1.3.1 2.4 1.4 3.2 2.3 2.6 2.9 5.6 5.7 9.8 4.5 3-.9 5.9-2.8 8.9-4q3.8-1.5 8-1.6 2.5.3 4.9 1c3.2.7 6.5.2 9.7-.3 4.6-.7 9.1-1.7 13.8-1.8q3.7.1 7.3.5c1.8.2 3.8.2 5.6.8" class="b"/><path d="M14.7 202.1c4.4-.3 8.7 1.1 13 2.5q3.5 1 7.2 1.5c5 .7 10.3.4 15.4.2q2.7.9 5.6 1.5c4.3.7 8.7.1 13-.4q6.5-.7 13-1.9l2.4-.3q2.3.6 4.8.4c3.3-.4 6.5-1.6 9.7-2.4q2.4-.7 4.9-1.2 1.6-.5 3.2-.6c4.2 2 5.9 7.2 11.4 6.8 3.1-.3 6-2 8.9-3.3 3-1.4 6.3-2.6 9.7-2.7 1.9.1 3.8.8 5.6.9q4.1.1 8.1-.5c4.9-.5 9.7-1.7 14.6-1.9 4 0 8.1.9 12.1 1.3" class="b"/><path d="M14.7 200.7c2 .2 4.3-.1 6.4 0q3.8 1 7.3 2.5 3.1.9 6.5 1.5c4 .8 8 .5 12.1.3 1.4.3 2.7 1.3 4 1.7q2.8 1 5.7 1.3c6.6.5 13-1.2 19.5-2q4.8-.6 9.7-1.5 1.6-.1 3.2 0 2-.2 4-.7l10.6-3 3.2-.8c2 .3 3.5 2 4.9 3.3a10 10 0 0 0 5.6 3c3.2.2 6.2-1.2 9-2.5 3-1.3 6.2-3 9.7-3.2 5 0 10.2 1 15.3.3 4.7-.5 9.1-2.2 13.8-2.4 4 0 8.1 1 12.1 1.5" class="b"/><path d="M14.7 199.5a30 30 0 0 0 8-.5l1.7.5q2.8 1.2 5.7 2.2 2.7.8 5.6 1.4 4.9.8 9.7.5c8 6.2 16.8 4.3 26 2.7q6-.7 12-1.8 5.8-.8 11.4-2 4.5-1.6 8.9-2.7c3.5-1 4.1-1.8 7.3.7 1.9 1.6 3.9 3.4 6.5 3.7 4.6.3 8.7-2.3 12.9-4 1-.3 2.2-1 3.2-1.1l3.3.1c4.8.6 9.8 1.5 14.6.2 5.3-1.1 10.6-3.7 16.1-3q4.9 1 9.8 1.7" class="b"/><path d="M14.7 198.2q5 .6 9.7-.8c1.9.5 3.8 1.5 5.6 2.1q5.6 1.8 11.4 2.3 1.2-.1 2.4.4l1.6 1.1c3.7 2.8 8.3 4.1 13 4 4.9 0 9.7-1 14.5-1.8q5.3-.6 10.6-1.6 4.9-.7 9.7-1.7 4.5-.9 8.9-3 1.6-.6 3.2-1c1-.3 2.2-1 3.2-.7 2.5.6 4.3 2.5 6.5 3.6 5 2.4 10.8-1 15.4-2.8l2.4-1 3.3.3c3 .4 5.9 1.3 8.9 1.3 7 0 13.2-4.8 20.2-4.7 1.9.1 3.8.8 5.7 1.2q3.1.5 6.4.7" class="b"/><path d="M14.7 196.8q5.7 1 11.3-1c1.7.3 3.3 1.3 4.9 1.7q3.5 1.1 7.2 1.8l3.3.6q2 1.6 4 2.8 4.5 3 9.7 3.4c8.5.7 16.8-1.6 25.1-2.3 5.4-1 10.9-1.7 16.2-3q5.2-1.3 9.7-4c4-2 7.5 2.2 11.4 2.8 4.7.6 9.4-1.6 13.7-3.3l1.6-.7c1.4 0 2.8.5 4 .7 3.8.8 7.7 1.9 11.4.7 6-1.6 12.3-6 18.6-4.2 3.3 1.4 7 1.1 10.5 1.3" class="b"/><path d="M14.7 195.3a26 26 0 0 0 13-1c.7-.1 1.6.4 2.3.6q4 1.3 8.1 2.2 1 .2 1.7.8 1.5 1.3 3.2 2.4 4.5 3.2 9.7 4.3c7.5 1 15.2-.4 22.7-1.3q7.3-.8 14.5-2c3.8-.8 7.7-1.3 11.4-2.6q3.3-1.3 6.4-3.3c4.5-1.7 7.5 3.4 14.6 1.9q5-1 9.7-2.9c1.8-1 3.8.4 5.7.6 3.4.8 7.1 1.6 10.5.3 6.2-2.1 12.8-6.9 19.4-3.6 3.1 1 6.5 0 9.7.2" class="b"/><path d="M14.7 193.8c5.8 1.1 9.7.9 15.3-1q1.7.3 3.3.9 1.6.3 3.2.8c4.4 3.4 9 7 14.6 8.3 6.7 1.2 13.5.4 20.2-.3q10.5-1.1 21-2.8c5.4-.9 11-1.5 15.4-4.7l3.3-.6c.7 0 1.7-.4 2.4-.1 5.2 1.9 9.4 1.1 14.6-.1l5.7-1.7c5 .8 10.2 3.3 15.3.8 4.7-1.9 9.4-5 14.6-4.4 2 .3 3.7 1.5 5.7 1.6 2.7 0 5.4-1 8-1" class="b"/><path d="M14.7 192.2c4 .7 8 1.4 12.1.5 2.2-.3 4.3-1.2 6.5-1.4 2.8 1.7 5.4 3.9 8 5.7q6 3.9 13 4.5c7 .4 14-.3 21-1q12.3-1.3 24.3-3.1 2.5-.4 4.9-1.3c1.3-.4 2.6-1.4 4-1.4q3.7-.4 7.3-1.2c1.3-.5 2.8 0 4-.1q5.4-.4 10.6-1.5c1.8-.2 3.8-1.3 5.7-.7 10 2.7 10.5 1.5 19.4-2.6 2.2-1 4.8-1.9 7.3-1.6q2 .3 4 1.2c3.5 1.2 7-.8 10.5-1" class="b"/><path d="M14.7 190.7c2.6.3 5.4 1 8 1q3.8.3 7.3-.6 3.8.2 7.3 1.7c4.7 3.6 9.4 6 15.4 6.5 10.2.9 20.5-.4 30.7-1.3l12.2-1.4c3.5-.4 7.2-.6 10.5-1.9 3.8-.6 7.7-.8 11.3-1.8 2.2-.5 4.3-1.6 6.5-1.9q6-.6 12.1-1.5c2.7.4 5.3 1.9 8.1 1.6 5-.3 9.1-3.7 13.8-5.2 6.4-2.4 8 1.6 13 .7q3.1-1 6.4-1.7" class="b"/><path d="M14.7 189.2c2.7 0 5.4.8 8 1q6.2.3 12.2 1.9 2 .7 4 1.3c1 .4 2.4.5 3.3 1.2q5 2.2 10.5 2.6 5.7.4 11.3.2l9-.8 12.9-.6 16.2-1.5c4.8-.8 9.8-.9 14.5-2 5.2-1 10.1-3 15.4-3.2q2.5-.3 4.9-.3l3.2.8c4.9.8 9.6-1.7 13.8-3.8 2.8-1.3 5.7-2.8 8.9-2.7q2 .3 4 1c3.5 1.4 7.2-.6 10.6-1.4" class="b"/><path d="M14.7 187.8c4 0 8.1 1 12.1 2q5.7 1.2 11.3 2.8c2.7.8 5.5.7 8.1 1.4q8.5 1.5 17 1c3.2-.2 6.5-.9 9.7-1 3.8-.3 7.6 0 11.4-.1q12.5-.5 25-1.4 5-.4 9.8-1.3c3.2-.6 6.4-1.5 9.7-1.9q4.5-.4 8.9-.6 1.6 0 3.2 0 2 0 4-.7l5.7-2q4-2 8.1-3.6a11 11 0 0 1 5.7-.7q2 .4 4 1c3 .7 6-.8 9-1.6" class="b"/><path d="M14.7 186c6 .3 12 2.5 17.8 4 2.9.8 5.8 1.7 8.9 1.6 6.7.2 13.5 1.3 20.2 1 3-.1 6-.8 8.9-1.2q4-.6 8-.2 7 .3 13.9.2 10.1.1 20.2-.6c7.8-.7 15.6-2.4 23.5-2.7q2.8-.3 5.6-.9 3-.9 5.7-2 2-.7 4-1 3.3-1.6 6.5-3c2-.9 4.3-1.5 6.5-.9 4.4 1.4 8.6.7 13-1" class="b"/><path d="M14.7 184q5.7.5 11.3 2.4c4 1.2 8 2.8 12.1 3 7.6-.4 15.1.8 22.7.7 3.3-.1 6.5-1 9.7-1.4q4-.6 8-.2 5.4.4 10.6.4 9 .6 17.8.5c7.6 0 15.2-1 22.7-2q5.7-.5 11.3-1.8c2.2-.7 4.3-1.8 6.5-2.4q2.3-.7 4.8-.9l4.9-2.2c2.6-1.6 4.3-1.8 7.3-.7 4.7 1.9 8.5 0 13-1.6" class="b"/><path d="M14.7 182q5.3.5 10.5 2c4 1.2 8 3 12.1 3q5.3-.3 10.5-.1 6.5.4 13 .6c3.3 0 6.5-.9 9.7-1.2q4.9-.5 9.7-.2 4.5.1 9 .2c4.8.3 9.6 1 14.5 1q11.4.6 22.6-1.1c5-.5 9.8-2 14.6-3.2 2.2-.4 4.3-1.6 6.5-2 1.8-.5 3.8-.2 5.6-.6l3.3-1.5c2.9-2.2 5-1.7 8-.4 4.6 2 9-.4 13-2.3" class="b"/><path d="M14.7 179.7q5.3.5 10.5 2c3.7 1 7.4 2.7 11.3 2.9l4.9-.3 5.6-.1q3.3.1 6.5.4l7.3.3c3.8.2 7.6-.7 11.3-1q6.5-.1 13-.2c7.3-.2 14.5 1.5 21.8 1.7 7 .2 14.1-1 21-1.8l3.3-.6q3.2-1.3 6.5-2.3a28 28 0 0 1 5.6-1l1.7-.4a16 16 0 0 1 4.8-.6l3.3.2 1.6-.7q1.5-1.2 3.2-2c2-.7 4 .2 5.7 1 5 2.3 9.3-.1 13.8-2.4" class="b"/><path d="M14.7 177.5c3.7.6 7.6.8 11.3 1.8 4 1 8 2.9 12.1 2.7 3.5-.2 7-.8 10.6-.5q4.8.5 9.7.5 2.8.3 5.6.4c5.2-.2 10.3-.7 15.4-.7 4-.4 8.1-.8 12.1-.3 5.7.5 11.3 1.9 17 1.9 3 0 6-.7 9-1.3 4.2-.8 8.6-1 12.9-2 1.1 0 2.2-.8 3.2-1.3q2-1 4-1.6 3.3-.6 6.6-.2 2.3-.5 4.8-.2c6 1 3.3.7 8.1-1.9 1.6-.6 3.4-.2 4.9.4 5.8 2.8 10 1.3 15.4-1.6" class="b"/><path d="M14.7 175.4c3.7.8 7.6.7 11.3 1.4s7.5 2.2 11.3 2.6q2 .2 4 0 2-.7 4.1-.7c2.4 0 4.9.5 7.3.4l6.5.1 4.8.5q8.1.3 16.2-.3c2.4-.2 4.9-.9 7.3-.8 4.6 0 9.2 1 13.8 1.7 9.8 1.6 9.4.7 18.6-1.8 3.7-.9 7.6-.8 11.3-2q2-1.3 4-2.2 4.5-1.6 9 .2c3-.4 6 .5 8.9 1 2.8-1.9 4.5-3.3 8-2a18 18 0 0 0 16.2-1" class="b"/><path d="M14.7 173.5c4 .6 8 .5 12.1 1 3.5.5 7 1.5 10.5 2.1q1.6.3 3.3.1 2-.6 4-.7l4.9.2q3.2 0 6.4 0c4 .1 8.1.7 12.2 1q6.4 0 13-.3c2-.1 4.2-1 6.4-.8 5.4.1 10.8 1.3 16.2 1.9 1.6.2 3.2.8 4.8 1 5 .3 9.1-3.1 13.8-4q4.1-.5 8.1-1.4 1.8-1.6 4-2.5c3.2-1.4 6.8-.3 9.8 1q2.5 0 4.8.6c1.3.3 2.7 1 4 1 4.3-3.2 5.9-2.4 10.6-1.2 4.5 1 9.5.8 13.8-1.1" class="b"/><path d="M14.7 171.3q6.4.6 13 1c3.4.4 7 1.3 10.4 1.8 2.2.4 4.3-.9 6.5-.8h8q8.6.4 17 1 5.8.5 11.4.1c2.2 0 4.3-.9 6.5-.9q8.6.5 17 2c2 .1 3.7 1.1 5.7 1.3 2.9.3 5.5-1.3 8-2.5q3.5-1.6 7.3-2.3l4-1c1.6-1 3-2.5 5-3 3-.7 6.2.3 8.8 1.7q4.5.4 9 2 1.6-.5 3.2-1.3c2.6-1.1 5.4 0 8 .3a42 42 0 0 0 13.8-.4" class="b"/><path d="M14.7 169q2.3.5 4.8.7 2.5-.3 4.9 0 7.3.5 14.6 1.8 2 0 4-.5l4-.5c8.4-.1 16.8.6 25.1 1.2q4.9.3 9.8 0c2.1 0 4.3-.8 6.4-.8q5.3.3 10.5.8 4.1.7 8.1 1.6 2.1.4 4 1.2a7 7 0 0 0 4.1 0c2.5-1 4.8-2.5 7.3-3.5q3.2-1 6.5-2c1.3-1 2.5-2.4 4-3 3-1.3 6.2-.2 9 1 1.3 1 3.2 1 4.8 1.4q2.4.7 4.9 1.6c5.3-2.1 5.7-1.9 11.3-1.1 4.8.4 9.7.7 14.6 0" class="b"/><path d="m14.7 167 1.6.4a14 14 0 0 1 4.8-.6c6 .3 12 1.4 17.8 1.9q3.3.3 6.5-.4 3.3-.5 6.5-.5c6.5-.3 13 .4 19.4.9q5.7.5 11.3.4c2.7-.1 5.4-.9 8.1-.8 2.8 0 5.4 1 8.1 1.2q2.4.3 4.9.4l7.3 1.9c5 2.1 6.8.5 11.3-1.8q2.8-1.4 5.7-2.5c1-1.4 2.4-2.9 4-3.7 2.9-1.3 6.2-.1 9 1.1l2.3 1.3 2.5.7q2 .6 4 1.3c.8.2 1.7-.4 2.5-.6q3.1-1.2 6.4-.8l5.7.7q6.4 1.3 13 .3" class="b"/><path d="M14.7 165c3.3-1.3 7-.6 10.5-.3 6.1.5 12.4 2.3 18.6 1.1q7.6-.7 15.4-.6 8 1 16.2 1.4h8c2.2-.1 4.4-.7 6.5-.3 1.6.2 3.3.8 4.9 1a105 105 0 0 0 11.3 1c.7 0 1.8 0 2.4.3q3.3 1.1 6.5 1.8 3 .9 5.7-.4 2.5-1.2 4.8-2.5c1.4-1.4 2.6-3.3 4-4.7 3-2.9 7.4-1.6 10.6 0 2.9 1.4 5.6 3.7 9 4 4.6-3.8 11.6-1 17-.3q5.5 1 11.2.1" class="b"/><path d="M14.7 162.4c3.4-.8 7-.3 10.5.2q5.6.7 11.3 1.3c2.7.3 5.4-.2 8.1-.5q4.5-.1 8.9 0 4 .2 8 .2c6.2.8 12.5 1.6 18.7 1.2q2.8-.1 5.7-.5 2.5 0 4.8.5 4 .8 8.1 1 4.5.8 9 1l2.4-.1q2 .7 4 1.3c7.6 2.2 10-2 14.6-7 2.8-3 7.2-2 10.5-.3 2.4 1.3 4.7 3 7.3 4q.9-.2 1.6-.8l2.4-1c3.8-.3 7.7.6 11.4 1.5a41 41 0 0 0 15.3 1" class="b"/><path d="M14.7 160.3c3.2-.6 6.5 0 9.7.5q2.8.4 5.6.5l5.7.6c3.5.2 7-.7 10.5-.6 4.6 0 9.2.9 13.8.7l3.2-.1q2.9.3 5.7.7 5.3.6 10.5.3 3.3-.3 6.5-.5 3.2.2 6.5.8l8 .7q4.1.6 8.1 1c1.3.2 2.8 0 4 .3l2.5.7c6 1.6 9.3-2.3 13-6.2 3-3.4 7.7-2.5 11.3-.5 1.8 1.1 3.6 2.6 5.7 3.3 2.9-1.9 4.7-2 8-1.4q4.5.7 9 1.9 7.6 1.8 15.3 1" class="b"/><path d="M14.7 158.6c1 0 2.2-.4 3.2-.3q2.9.4 5.7 1 3.1.3 6.4.2l4.9.4c3.5.2 7-.6 10.5-.6 4.3.1 8.7 1 13 1q3.2 0 6.4-.2c4.6.5 9.2 1 13.8.7q3.7-.2 7.3-.4c2.4 0 4.9.6 7.3.9q8.1.4 16.2 1.6l4.8.4 2.4.5c4.7.7 8.2-2.9 11.4-5.6 3-2.9 7.1-2.5 10.5-.7 1.6 1 3.1 2.3 4.9 3 2.7-2.6 5.5-1.9 8.9-1.1l4 .7 4.9 1.2a51 51 0 0 0 11.3 1.4q2.4.3 4.9.4" class="b"/><path d="M14.7 157.2c2.5-1.1 5.4.2 8 .3q3.3.2 6.5 0 2.5.3 4.9.5c3.2.1 6.5-.6 9.7-.5q4.5.6 8.9.5 4 .6 8 .5l5.7-.2 5.7.4q6 .2 12.2-.3c3.2-.4 6.5.7 9.7 1a303 303 0 0 1 21 1.8q1.6.4 3.3.5c4 0 7.2-3 10.5-5 2.6-1.9 6-1.8 8.9-.5 1.4.6 2.7 1.8 4 2.6 2.8-3.3 5.4-2.3 9-1.3 2.3.7 4.9.8 7.2 1.5q6 1.4 12.2 2c2.3.4 4.8 1.3 7.2 1.1" class="b"/><path d="M14.7 155.5c2.6-.7 5.4.2 8 .2l5.7-.1q3.3.5 6.5.6t6.5-.4c2.1 0 4.3.5 6.4.7q3 .1 5.7-.2 2.4.3 4.9.3c3.5.1 7-.4 10.5-.1 5.6.5 11.3.1 17-.1 2.4-.1 4.9.6 7.3.9l15.3 1.2 7.3.6c1 0 2.2.4 3.3.4q2.5 0 4.8-1c5.9-2.6 10.3-5.7 16.2-1 2.2-3.7 4.4-3.5 8.1-2.2q3.6 1 7.3 1.7 6.3 1.4 13 1.9c2.8 1 5.7 2.4 8.8 2.2" class="b"/><path d="M14.7 154.1c2.8-.8 6-.1 8.9-.3l4-.1q3.7.7 7.3.8 3.7 0 7.3-.4c2.9.5 5.9 1 8.9.7 3.7-.5 7.5 0 11.3-.1q5.7-.2 11.3 0 5.7 0 11.4-.2c2.7-.2 5.4.5 8 .8q6.1.5 12.2.9l11.3.8c2.4.2 5 .6 7.3.1q4.2-.7 8-2.2 2.2-.6 4.1.1c.8.3 1.7 1 2.5 1.2 1.7-2.5 3-4.7 6.4-3.5 3.2 1 6.5 2.2 9.8 2.8q6 .9 12 1.2c3.5 1.4 6.8 3.4 10.6 3.2" class="b"/><path d="M14.7 152.9c2.3-.9 4.8-.7 7.2-.9 2.5 0 5-.4 7.3.2q4 .7 8.1.6c1.9 0 3.8-.4 5.7-.2 4.5 1 9.2.5 13.7.2h22.7q5.3 0 10.5.6c2.1.4 4.4 0 6.5.2 9.1.8 18.4 1 27.5 1.8 4.3-.1 7.7-3.7 12.1-1.6 1-1 2.1-2.3 3.3-3 3.1-1.8 6.7 1.7 9.7 2.4 2.6 1 5.4 1.1 8 1.2q4.2 0 8.2.4c1.4.3 2.7 1.3 4 1.8a18 18 0 0 0 8.1 2" class="b"/><path d="M14.7 151.7c3.2-1.5 7-1.3 10.5-1.6 3.2-.2 6.5.8 9.7 1q3.7.2 7.3-.2 2.8.6 5.6.7c3.8.2 7.6-.4 11.4-.5q10.1-.2 20.2 0c4.3 0 8.6.8 13 1 2.9.2 6-.3 8.9-.3q8.8.9 17.8 1l4.8.3c2 0 3.8-.8 5.7-1.2q1.6-.3 3.2-.5 2-1.4 4-2.9c2.3-1.4 4.7.6 6.6 1.7q2.8 2.2 6.4 2.8 3.7.4 7.3 0 2.9-.3 5.7 0c1.9 0 3.2 1.5 4.8 2.3 3 1.6 6.4 2.9 9.7 2.2" class="b"/><path d="M14.7 150.4c4-1.6 8.5-2 13-2 2.6.1 5.3.7 8 1q3.3.1 6.5 0 2.8.5 5.6.7c4.6 0 9.2-.5 13.8-.7q7.2-.2 14.6-.1c6.2 0 12.4 1.6 18.6 1.4q6-.1 12.1-.4l10.5.5c4.1.2 8.4 0 12.2-1.8 2-.8 3.6-2.4 5.6-3 4.7-1 7 6.7 15.4 6.3q3.7-.1 7.3-.7c1.6-.1 3.3-.7 4.9-.2 1.4.6 2.7 1.9 4 2.6 3 2 7 3.1 10.5 1.7" class="b"/><path d="M14.7 149c1.9-.3 3.7-1.1 5.6-1.5q4.5-.7 9-.8c2.3.2 4.8.8 7.2 1q2.8.1 5.7.1c4.7 1.2 9.7.7 14.5.4 7.6-.4 15.2-.9 22.7-.5q4 .4 8.1 1.2 4.5.6 8.9.4l13.8-.3c4.3-.1 8.7.2 13-.8q3.4-1 6.4-2.7c1.5-.8 3.1-1.8 4.8-1.6 2.4.4 4 2.5 5.7 4 4.8 4.3 9.5 3.9 15.4 2.9l4.9-.8 1.6-.3q.9.3 1.6 1c4 3.5 8.6 5.8 13.8 3" class="b"/><path d="m14.7 147.3 3.2-.5 3.2-.8q4-.7 8.1-1c2.7 0 5.4.8 8.1 1h4q1.6.5 3.3.8c5.1.7 10.3 0 15.4-.2 6.4-.5 13-1 19.4-.6 3 .3 6 1.1 9 1.5q5.2.5 10.4.3l11.4-.3c3.5-.2 7-.2 10.5-1a29 29 0 0 0 6.4-2.6c2-1 4.3-2.3 6.5-1.5 2.3.9 4 3 5.7 4.5 4.8 4.2 11 3.5 17 2.5 1.6-.1 3.3-.8 4.8-.6l2.5.9c1.4.7 2.6 2 4 2.7 3.1 1.7 7 .8 9.7-1.2" class="b"/><path d="M14.7 145.4q2.3-.3 4.8-.3 2.9-.6 5.7-1 2.4-.5 4.8-.8c3.6.2 7 1.2 10.6 1.1q3.1.9 6.4 1.2c7.9.4 15.7-.8 23.5-1.1 3.2-.1 6.5-.4 9.7 0 2.7.2 5.4 1.1 8.1 1.4q7.6.9 15.4.4c5.6-.4 11.5-.3 17-1.8 2.2-.6 4.4-1.8 6.5-2.8s4.4-1.5 6.4-.3c2.1 1.2 3.8 3.1 5.7 4.5 4.5 3 10.2 3 15.4 2.4l4.8-.6a42 42 0 0 0 5.7 1.9q1.6 1 3.3 1.6c3 1 6.4-.6 8.9-2.5" class="b"/><path d="M14.7 143.3c2.4-.4 4.8.2 7.2.2l4.9-1q2.8-1 5.7-.7 4 .7 8 1c3.6 1.4 7.6 1.5 11.4 1.5 9-.2 17.8-1.7 26.7-1.6 4.4 0 8.6 1.8 13 2q13.4 1 26.7-1.2c2.8-.5 5.5-1.8 8-3 3.5-1.8 6-1.5 9 .9 1.7 1.3 3.5 2.9 5.6 3.6 5.4 2 11.3 2.2 17 1.6q2.8 1.2 5.7 1.9 2.5.3 4.8 1.1c3.3.6 6.5-1.4 9-3.4" class="b"/><path d="M14.7 141.2q2-.3 4 0c1.6.3 3.3.9 4.9.8 3.2-.6 6.4-2.1 9.7-1.7q3.2.4 6.5.7 1.5.7 3.2 1.1 4.8 1 9.7.9c9.2-.2 18.3-2 27.5-1.8 4.1.2 8 1.9 12.2 2.1a94 94 0 0 0 18.6-.2q4.8-.4 9.7-1.5c2.2-.6 4.3-2 6.5-2.8 4-2 7.1.4 10.5 2.6q3.4 1.9 7.3 2.5 5.5 1.4 11.3 1.4 2.7 1.2 5.7 2 4 .8 8 .5c2.7-.7 5.2-2.3 7.3-4" class="b"/><path d="M14.7 139q2.5-.2 4.8.4 2.4.8 4.9 1.1 2-.2 4-1 2.5-.9 4.9-.8l5.7.6q2 .6 4 1.4 4.8 1.2 9.7 1 6.5-.4 13-1c5.3-.4 10.8-1 16.2-.8 3.8.2 7.5 1.7 11.3 2q6.4.4 13 .3 7.7-.5 15.3-2c2.6-.7 4.8-2.4 7.3-3 2.8-1 5.6.4 8 1.7q2.4 1.3 5 2l8.8 2c1.6.5 3.6.3 5 1 4.2 2.7 9.6 2.8 14.5 1.9q3.9-1.6 7.3-4.4" class="b"/><path d="M14.7 137q2.9-.4 5.6.6c2 .8 4.3 1.7 6.5 1.4q3-1.7 6.5-1.7 2.8 0 5.6.4 2.1.6 4 1.4c3 1 6 1.1 9 1.1q7.2 0 14.6-.7 8-1.1 16.1-1c3.3 0 6.5 1.1 9.8 1.6l4.8.3q3.7.7 7.3.8c5.7-.5 11.3-1.5 17-2.2 2.3-.4 4.4-1.7 6.5-2.5 3.3-1.5 6.5-.5 9.7.9q3.5 1.2 7.3 2l8 2.1q2.3 1.7 5 2.7c3.9 1.2 8.1.3 12-.7 2.7-.9 5-2.7 7.3-4.2" class="b"/><path d="M14.7 135c5.2-1 7.5 2.5 12.1 2.5 1.4-.2 2.7-1 4-1.3q3.3-.6 6.5-.2c2.6-.1 4.9 1.4 7.3 2q3.6.9 7.3.9 7.6-.2 15.4-.8c5.6-.4 11.3-1.2 17-.9q3.7.3 7.2 1 4.8 1.5 9.8 1.8c2.7.2 5.4-.4 8-.9q4.1-.7 8.1-1c2.4-.4 5-.4 7.3-1 2.6-1.1 5.2-2.5 8.1-2.4 2.2 0 4.4.9 6.5 1.4l6.4 1.4 4.9 1.3c1.8 1.3 3.6 2.9 5.7 3.6 4 1.6 8.3.4 12.1-1q4.6-1.5 9-4.1" class="b"/><path d="M14.7 133c5.9-1.1 8 3 12.1 2.8 2-.2 3.8-.9 5.7-1.3 1.8-.3 3.8 0 5.6 0 2.6 0 5 1.5 7.3 2.1q4 1 8.1.8 4 .1 8.1.1 3.7-.2 7.3-.9 7.6-.8 15.4-.7c5 0 9.6 2.5 14.5 2.8q3.3.4 6.5-.3 4.5-1.3 8.9-1.7 5.7-.3 11.3-1c2.2-.5 4.3-1.7 6.5-2 2.4-.3 5 .3 7.3.8l6.5 1.1 2.4.5c2 1.2 3.6 3 5.7 4 4 2.6 8.9 1.3 12.9-.4l10.5-4.4" class="b"/><path d="M14.7 131.3c4.4-1.1 6.7 1 10.5 2.6l4-.3c1.7 0 3.3-.6 4.9-.7h4q1.6 0 3.3.5c1.9.6 3.7 1.6 5.7 2l6.4 1q5.8.7 11.4-.8 3.1-1 6.4-1.4 3.7-.4 7.3 0c3.2.6 6.5.1 9.7.8 6.2 2 12.3 3.7 18.6 1.2q6-1.8 12.2-1.5c2-.2 4.3-.8 6.4-.6 2.8 0 5.4-1.2 8.1-1.4 3.3-.3 6.5.9 9.7 1l2.5.2c2 1 3.8 2.6 5.6 3.8 5 3.6 9.4 2.6 14.6.2q5.7-2.5 11.3-4.8" class="b"/><path d="M14.7 129.5q1.1 0 2.4-.2 1.6-.2 3.2.3 1.7.7 3.3 1.6 2 .4 4 .4c2.1 0 4.4.2 6.5-.2q3.3-.1 6.5.1 2.9.7 5.6 1.9 2 .5 4 1.3c3.7 1 7.7.6 11.4-.2 2.8-.7 5.4-2 8.1-2.8 5.1-1.6 10.3.8 15.4 1.4 2.8 0 5.4 1.3 8 2q5.4 1.2 10.6.2c1.9-.5 3.7-1.4 5.7-1.7 3.1-.8 6.4-.8 9.7-.8 2.9-.7 6-.6 8.9-.5q3.2 0 6.4-.6 2.4-.1 4.9.4l3.2.5 3.3 1.5c1.8.9 4 1.6 5.7 2.8 4.5 2.8 9 1.5 13.7-.5l12.2-5" class="b"/><path d="M14.7 127.7q3.2-.3 6.4.2 4.4 1.5 9 1.8c2.9.4 5.9 0 8.8.2 3.8-.1 7.2 1.7 10.6 3.2 3.4 1 7 .1 10.5-.6 5.6-1.6 9.8-6.1 16.2-4.4q2.9.8 5.6 1.8l5.7 1.6c3.6 1.3 7.5 2.5 11.3 2l5.7-.6q4-1.5 8-1.9 3-.1 5.8-.2 2.3-.5 4.8-.6l5.7.3h5.7c4 0 7.7 2 11.3 3.6a29 29 0 0 0 12.1 2.8c2.8-.3 5.5-1.4 8.1-2.4q5.8-2 11.4-4.8" class="b"/><path d="M14.7 126.4c6.5-1.5 11.5 1 17.8 1.7q2.8.3 5.6.1 3.3 0 6.5 1c.8.1 1.7.8 2.4 1.2q1.6 1 3.3 1.1 3.3.1 6.5-1 2.9-.6 5.6-2c3.1-1.6 6.1-4 9.7-4.3s6.7 1.3 9.7 2.8q4 1.7 8.1 3.1c4.3 1.4 8.7.2 13 0h3.2q3.3-.6 6.5-.8c5.6-.2 11.3-1.2 17-.4q4.1.2 8 1.5c3.1 1 6 2.5 9 3.6a25 25 0 0 0 17.8-.3q6.7-2.2 13-5.5" class="b"/><path d="M14.7 125.3c7.6-1.8 11.4 0 18.6 1.2 3.7.5 7.7-.4 11.3.9 1.6.7 3 2 4.9 2 2.2.3 4.4-.4 6.4-1.1q3-1.1 5.7-2.4c2.9-1.6 5.6-4 8.9-4.6 5.3-1 10 2.1 14.6 4.3a20 20 0 0 0 8.9 2.3l6.4-.2q4.5.3 9 .3 4 0 8-.3 4.5.2 9 0c7.8-.6 13.8 3.8 21 6 5.3 1.5 11 .4 16.2-1.2a53 53 0 0 0 13.7-5.8" class="b"/><path d="M14.7 124q3.6-.7 7.2-.9c3.8.2 7.6 1.2 11.4 1.7q2.4.3 4.8 0 3-.1 5.7.5c2 .5 3.6 2 5.7 2.2 2.9.5 5.6-1 8-2.3q2.6-1.3 5-2.7c1.7-1.2 3.6-2.6 5.6-3.3 3.7-1.1 7.8-.4 11.3 1 3 1.2 5.8 3 9 4 3.6 1.2 7.5.7 11.3 1.3 2.3.4 4.8 1 7.2 1 1.9 0 3.8.4 5.7.4q3.3-.2 6.5 0l6.4.6q3.3-.2 6.5.4c5 1 9.6 3.8 14.6 5a31 31 0 0 0 16.2-1.6 45 45 0 0 0 14.5-6" class="b"/><path d="M14.7 122.9c2.6-.3 5.4-.9 8-1 3.6 0 7 1 10.6 1.4q1.2.2 2.4-.2 1.6-.3 3.2-.4 3.4 0 6.5 1 1.6 1 3.2 1.8c3.2 1.2 6.3-.9 9-2.5 3-1.7 5.7-4 8.8-5.4q3.2-1 6.5-.7 3 .1 5.7.8c3 1 5.9 2.8 8.9 3.8 3 1.2 6.5 1 9.7 1.6 3.5.7 6.9 2.2 10.5 2.2 1.6 0 3.3.6 4.9.7 1.6.2 3.3-.2 4.8 0 4 .4 8.1 1.2 12.2 1.4 4.7.6 9.1 2.7 13.7 3.9 6.5 1.8 13.2.4 19.5-1.4 5-1.4 10.3-3 14.5-6.1" class="b"/><path d="M14.7 121.8q3.6-.4 7.2-1 4.5 0 9 .5 2 .3 4-.4 2.5-.3 4.9 0 3.2.2 6.4 1.1c1.3.8 2.6 1.8 4 2.1 2.8.6 5.2-1.4 7.3-2.8q3.6-2.5 7.3-4.8 3.1-1.4 6.5-1.2 2.9-.1 5.7.2c3.1.6 5.9 2.4 8.9 3.5q2.7 1.2 5.6 1.4c2.2.1 4.5.1 6.5.8 3.2 1.2 6.3 2.7 9.7 2.8 2.1.4 4.3 1.2 6.5 1.1l3.2-.1c3.6.3 7 1.2 10.5 1.7 6.9.7 13.3 4.1 20.3 4q4.5-.2 8.9-1.3 5.3-.8 10.5-2.6c1.8-.7 3.9-1 5.7-1.9 1.4-.6 2.7-1.7 4-2.5" class="b"/><path d="m14.7 120.8 6.4-.9q4.9-.4 9.7-.2 1.6 0 3.3-.4l4-.1q4.1.2 8.1.9 1.7 1 3.3 2c2.8 1.5 5.8-.2 8-2q3.3-2.2 6.5-4.5 3.1-1.7 6.5-1.8 2.5-.2 4.8-.2c2.7.3 5 2 7.3 3.2l2.5 1q1.6 0 3.2.2 4 .8 8 .8c2.7.3 5 1.8 7.4 2.6l3.2.8q2.7 1.2 5.7 1.7 3.1.5 6.5 0 4 .5 8 1.6c10 1.6 16.1 5 26.8 2.3q4.4-1 8.8-1.3 3-.8 5.7-1.7c1.6-.5 3.4-.6 4.9-1.3 1.4-.6 2.8-1.7 4-2.5" class="b"/><path d="M14.7 119.7q8.4-1.1 17-1.6c1.5 0 3.2-.4 4.8-.4q2.9 0 5.7.4c1.3.2 2.8.1 4 .5q1.6.9 3.3 1.6c3.3 2 6.2.2 8.9-1.9 2.4-1.6 4.6-3.7 7.3-4.8q3.8-1.5 8-1.4c3.3.2 5.5 2.8 8.1 4.4q2.4-.2 4.9-.4 2.4.1 4.9.4c3 .2 6 .1 8.9 1.2q4.4 1.7 8.9 3.8 3.8 1.4 8 1.3 2.1-.2 4.1-.2 2.9.5 5.7 1.3c5.9 1.1 11.7 3.1 17.8 2.9 5.2 0 10.1-2.3 15.4-2.2q1.6 0 3.2-.3l4.9-1.4c4.4-.4 5.2-.6 8.9-3.4" class="b"/><path d="m14.7 118.7 16.2-1.8 5.6-.6q2.9 0 5.7.4l2.4.3c1.4.4 2.7 1.3 4 1.8 4 1.4 6.6.7 9.8-1.8q3.1-2.4 6.5-4.4a15 15 0 0 1 8.9-1.5c2.6.7 4.2 3.2 6.4 4.7l2.5-.4a7 7 0 0 1 4-1.5c1.7 0 3.2 1.2 4.9 1h5.6q3 .3 5.7 1.4c2.5 1 4.8 2.6 7.3 3.6q4 1.5 8 1.4c2 .1 4-.4 5.7 0 5.4 1 10.7 2.9 16.2 3.3q5 .4 9.7-.5c2.7-.5 5.4-1.5 8.1-1.6h4.9q2.4-.8 4.9-1.3c5.1-.2 5.3 0 9.7-3.1" class="b"/><path d="M14.7 117.6q6-.5 12.1-1.4c3.5-.4 7-1 10.5-1q3.3-.2 6.5.8c1.6.4 3.2 1.3 4.9 1.6q3.1.6 6.4-.1l3.3-2c2.8-1.9 5.5-4.2 8.9-5.1 1.8-.6 3.8-1 5.6-.4q1.9.6 3.3 2.2c.6.6 1.4 1.8 2.4 2 .5-.3 1.3-1.2 1.6-1.6q1.4-1.7 3.3-2.6c1.8-.8 3.8-.3 5.6.3 2 .6 4 2 5.7 3.2 10.1-1.3 11.3 3.8 19.4 5.6q3.7.7 7.3.5c1.6 0 3.3-.3 4.9.2 8.8 2.3 15 3.8 24.2 2 3.2-.7 6.5-1.5 9.8-1.2 2.1 0 4.2-1.2 6.4-1.2 6 .1 5.3.6 10.5-2.7" class="b"/><path d="M14.7 116.4c8.1.3 16-2.5 24.2-2 3.1 0 6 1.3 9 1.9q2.8.3 5.6-.4c1.4-.3 3-.6 4-1.5 3.3-2.2 6.6-4.7 10.6-5.5q4.3-1.2 7.3 2.2c1 0 2.2-.7 3.2-1 2-2.5 4-4 7.3-3 2.6.8 5.5 1.1 8 2.1 1.8.6 3.2 2 5 2.5 3-.2 6.2.6 8.8 2.3 4.6 3 9.1 4 14.6 3.9h4q2.5.3 5 1a47 47 0 0 0 21.8.5q2-.4 4-.6a12 12 0 0 0 4-.5q2.4-.7 5-.7 2 .1 4 .4c2.6.2 5-1.3 7.3-2.6" class="b"/><path d="M14.7 115.5c6.5.5 13-1.4 19.4-1.8q3.7-.4 7.3.2c1.8.3 3.7.9 5.6 1q5 0 9.7-1.8c4.2-2.7 12.6-8.5 17-4.1l4.9-2.7c1.1-.9 2.6-1.7 4-1.4 2 .5 3.8 1.6 5.7 2 2.1.6 4.4.4 6.5.6q3.4.4 6.5 2 1 .6 2.4.6 1.7.3 3.2 1c2.5 1.1 4.8 2.8 7.3 3.7 4.7 1.6 9.7 1 14.6 1.4 3.2.4 6.4 1.5 9.7 1.8q6.5.5 13-.2l4.8-.7q3.6-1.2 7.3-1.4 2.9.2 5.7.6c2.8.2 5.6-.9 8-2.2" class="b"/><path d="M14.7 114.5c6.5.5 13-1.2 19.4-1.7q3.2-.1 6.4 0 2.8.5 5.7.5c3.3.1 6.5-1 9.7-1.7q4.5-3 9.7-4.7c2.1-.7 4.6-1.3 6.5 0 .5 0 1.3-.4 1.6-.7q1.6-1 3.3-1.9c3.3-1.8 5.1-.7 8 1q3.5 2 7.3 1.7c2.7-.1 5.5-.5 8.1 0q6.2 1 11.4 4 4 2.6 8.9 3c4.3.3 8.6.1 13 .8a61 61 0 0 0 17 1c3.2-.5 6.4-1.6 9.6-2 2.7-.3 5.5.5 8.1.8q4.6.2 9-2" class="b"/><path d="M14.7 113.3c6 .3 11.8-1 17.8-1.4 4.3-.6 8.6 0 13-.2 3.2 0 6.5-1 9.6-1.8 1.1-.3 2.2-1.2 3.3-1.7A38 38 0 0 1 64 106c2.4-.7 5-1.9 7.3-.5 2.8-2 6.3-4.6 9.7-2.8 5.5 2.6 6.2 4.5 13 3.7q4-.5 8-.5 3.8.2 7.4 1.4c2.4 1 4.8 2.5 7.2 3.5 3.9 1.5 8.1 1.2 12.2 1.5 6 .3 11.8 1.4 17.8 1.4 4.4 0 8.6-1.5 13-1.8 2.6-.2 5.4.6 8 1q5 0 9.7-1.9" class="b"/><path d="M14.7 111.9c5.7 0 11.3-1.4 17-1.6 5.9-.5 11.9.2 17.8-1q2.8-.4 5.6-1.3 3.8-2 8.1-3.2c2.4-.6 5-1.9 7.3-.8 10-7.6 8.3 1.7 20.2 1.7 3.8 0 7.6-.8 11.4-1.1q5.3-.2 10.5 1.5c3.6 1.8 7.2 3.8 11.3 4 7.3 0 14.6 1 21.9 1.2 4 .1 8-1 12.1-1.1 2.7-.2 5.4.4 8.1.7a32 32 0 0 0 11.3-1.7" class="b"/><path d="M14.7 110.3c5.2 0 10.2-2 15.3-2.2 5.7-.4 11.4.4 17-.3q3.8-.5 7.3-1.5a37 37 0 0 1 8.1-2.6c2.4-.6 4.9-2 7.3-1.1 2.2-1.3 4.6-3.2 7.3-2.7 1.8.6 3.3 2 4.8 3q2.6 2 5.7 2.2 2.4 0 4.9-.8l4-.4q3.2-.6 6.5-1 4-.2 8 .7 2.2.3 4.1 1c2.6 1.3 5.2 2.7 8.1 3.1 3.2.4 6.5.1 9.7.5 5.4.3 10.8 1 16.2.7 3.5-.2 7-.6 10.5-.4a47 47 0 0 0 17.8-1.2" class="b"/><path d="M14.7 108.5c5 0 9.6-2.4 14.5-3 5.1-.6 10.3.7 15.4.4a44 44 0 0 0 8.1-1q4.3-1.7 8.9-2.5c2.4-.4 4.8-2 7.3-1.3 1.9-.7 3.6-2.1 5.6-2.5 2.5-.3 4.6 1.6 6.5 3q3 2.3 6.5 2.6c3 .2 6-1 8.9-1.7 3.7-.7 7.5-1.8 11.3-1.4q4.5.5 9 1.6 3 1.6 6.4 2.7 3.1.6 6.5.4l6.4.2q5.7.5 11.4.6h9.7q5.2.3 10.5.1a30 30 0 0 0 9.7-1.5" class="b"/><path d="M14.7 106.6c4.2-.1 8.1-2 12.1-3.3 4.9-1.7 9.7-.2 14.6.4q4.9.3 9.7-.5 2.8-.9 5.7-1.5 4.5-.6 8.9-2c1-.3 2.2.1 3.2-.1l1.6-.9c2.7-1.4 3.8-1.7 6.5-.1q3.3 1.3 6.5 3a12 12 0 0 0 7.2 1q9-1.8 17.8-2.8 2.4-.2 4.9 0l5.7 1.3c3 1.4 6.3 2.8 9.7 2.6 4.8-.4 9.7 0 14.5.3q7.4.3 14.6.5c6.5 0 13.2.6 19.4-1.5" class="b"/><path d="M14.7 104.4c1.8-.4 3.9-.4 5.6-1 3.7-1.4 7.3-3.8 11.4-3.8q3.7.2 7.2 1.4 3.3.7 6.5.7 3.8-.2 7.3-1.1 3.6-.7 7.3-1.1c2.7-.5 5.2-1.7 8-1.2 5.6-3 4.5-2.3 9.8.1q2.7 1.1 5.6 1.3c2.1.6 4.3 1.3 6.5 1.2q3.3-.3 6.5-.9l7.3-.7c4.3-.3 8.6-1 13-.8 3.9 0 7.4 2.3 11.2 2.8 2.4.4 5 0 7.3 0q4.8 0 9.7.3l17 .6c5.2.1 10.5 0 15.4-1.7" class="b"/><path d="M14.7 101.8q3.1-1 6.4-1.1C24.5 99 27.8 97 31.6 97c4.2-.1 8 2.7 12.2 2.5l15.4-1.8c2.6-.3 5.4-1.4 8-.8 1.4-.5 2.7-1.5 4.1-1.8 2.4-.1 4.2 2.1 6.5 2.6q3.1.7 6.5.3a19 19 0 0 0 6.4 1q3.7-.2 7.3-.6l8-.6c4.7-.4 9.3-1 13.9-.7 3.6 0 7 1.7 10.5 2 2 .3 4.3 0 6.4 0h9q6.4.5 12.9.6c6.2.3 12.6 0 18.6-1.7" class="b"/><path d="M14.7 99.1q2.3-.8 4.8-1.2c1-.2 2.3 0 3.3-.4 4.4-2.4 8.7-4 13.7-2q1.6.7 3.3 1.3l7.2-.2q5.2 0 10.6-.6c2.9-.3 6-1.1 8.9-.6 1-.3 2.1-1.1 3.2-1.5 3-.6 5.2 2.3 8 2.4q2.1.3 4.1 0 1.3-.2 2.5-.2 3.5 1.2 7.3 1.3l15.3-1c4.6-.4 9.2-1 13.8-1 3.8 0 7.5 1.2 11.3 1.5q2.8.2 5.7 0h8c6.3 0 12.5.4 18.7.3 4.3-.1 8.6-1 13-1.5" class="b"/><path d="M14.7 96.7q4-1.4 8-1.7c2.6-1.1 5.3-2.5 8.1-2.6q2.1 0 4 .4c1.1.3 2.3 1 3.3 1 3.3-.5 6.5.3 9.7.4q6.1.3 12.2-.4 2.8-.2 5.7 0c3.7-2.6 6-1 9.7.4 2.6.8 5.4 0 8-.2q4 1.5 8.1 1.7 3.8 0 7.3-.4c9-.2 17.8-1.8 26.7-1.4 3 .1 6 .6 9 .7l13.7-.2c5.6-.1 11.3.2 17-.1 4-.2 8.1 0 12.1-.6" class="b"/><path d="M14.7 94.6q3.5-1.1 7.2-1.8c2.9-1.2 5.8-2.5 9-2.6 1.9-.2 3.7.6 5.6.8q3.3-.5 6.5.2 4.8 1 9.7 1 4.5-.3 8.9-.2L64 92q1.2-.5 2.5-.8c3.5-.8 6.9 1.5 10.5 1.5q2.5 0 4.8-.7c2.3.5 4.7 1.5 7.3 1.8 4 .7 8.1 0 12.2-.2l19.4-1.4c7.5-.1 15 .2 22.6 0q9.7-.6 19.5-.2c4.8 0 9.7.3 14.5-.2" class="b"/><path d="M14.7 92.2c4.8-.5 9-3.2 13.7-4q3.3-.4 6.5.4c3.8-1 7.6.1 11.3.9 2.4.4 4.9 1 7.3.5q3.6-.2 7.3 0c1.3 0 2.7-.6 4-.7q3 0 5.7.7a23 23 0 0 0 9.7.1q.9-.2 1.6 0Q87 92 92.4 92.4q5.2-.1 10.5-.7 12.9-1.3 25.9-1.5 9.7-.5 19.4-.8c9.7-.2 19.4 1 29.1.4" class="b"/><path d="M14.7 89.8c4.7-.7 9-3.1 13.7-3.7 1.9-.3 3.8.1 5.7.2q2-.4 4-.4c3.6.2 7.1 1.2 10.6 2.1q1.1.4 2.4.4l2.4-.4c1.6-.2 3.3 0 4.9-.2 3.5-.8 7-.1 10.5.6 3.7.8 7.6 0 11.3-.2q6.3 2 13 2.3 4.5-.1 8.9-.7 8.4-1.2 17-1.5 10.5 0 21-.9c7-.4 14 .2 21 0 5.4 0 10.9.5 16.3.1" class="b"/><path d="M14.7 87.7c5.6-1 11-4.2 17-3.5 1.9.6 3.7-.4 5.6-.3 4.2 0 8.2 1.4 12.2 2.7q1.2.5 2.4-.2l2.4-.9c4.7-1.3 9.3.9 13.8 1.7q3.3.4 6.5-.2c1.5-.1 3.2-.7 4.8-.5 2.4.5 4.8 1.4 7.3 1.7q6.5.9 13 0c5.3-.6 10.7-1.6 16.1-2Q122 86 128 86l13-.7c6.4-.2 12.9.6 19.4.4 1.8 0 3.8-.4 5.6-.2q5.7.5 11.4 0" class="b"/><path d="M14.7 85.8c5.6-1.1 11.1-4.1 17-3.1q1.2.3 2.4-.3l2.4-.3q4.6 0 9 1.5 2.7-.7 5.6-.6c1.3-.2 2.7-.6 4-.4 3.1.3 6 1.8 9 2.8q3.1 1 6.4.7 2.4-.3 4.9-1c1-.1 2.2-.5 3.2-.3q2.9.7 5.7 1.3c11 2.3 22.1-1.7 33.2-2.1 4.5-.3 9.2-.1 13.7-.4 5.4-.3 10.8-.7 16.2-.1q4 .6 8.1.9 4.8-.2 9.7-.6c4 0 8 .5 12.2 0" class="b"/><path d="M14.7 84.1c5.3-1 10.6-3.8 16.2-2.9 1.5.6 3.2-.5 4.8-.5l4 .1q1.3.3 2.5.3c2-1.6 4.8-1.5 7.3-1.3q3.3.1 6.4 1.2c5.2 2.1 9.5 5.5 15.4 3.7l5.7-1.5c1-.4 2.2.2 3.2.3q2.8.8 5.7 1.3 5.6.5 11.3-.3c5.2-.5 10.3-1.6 15.4-2.3q4.8-.3 9.7-.4c6.5-.2 13-1 19.4-.7 4.2.2 8 1.9 12.2 2.2 4 .3 8-.8 12.1-1.2 3.8 0 7.6.5 11.3 0" class="b"/><path d="M14.7 82.6c4.3-.9 8.5-2.7 13-2.8q2 .2 4 .5 3.5-1.2 7.2-.7c1.7-1.4 3.4-2.7 5.7-2.3 3 .4 6 1.2 9 1.3 5 2 9.5 6.4 15.3 5.5 3.3-.4 6.4-2.5 9.7-2.6q3.7.9 7.3 1.5c3.4.5 7 .1 10.5-.3q6.9-1 13.8-2.2 6.4-.3 13-.8l8.8-.7q4.5-.5 9 .1c4 .6 7.8 2.8 12 3.1s8.2-1 12.2-1.5c1.6-.3 3.3 0 4.9 0q3.6 0 7.2-.2" class="b"/><path d="M14.7 81.1c4-.7 8-2.3 12.1-2.4q2 0 4 .6a13 13 0 0 1 5.7-1c1.3-1 2.5-2.5 4-3 1.7-.5 3.4.3 5 1q2.3.9 4.8 1.2 2 0 4 .2l1.7 1c3.6 2.1 7.6 4.7 12.1 4.3 3.1-.2 6-1.9 8.9-2.7q1.2-.4 2.4-.5l3.3.7q4 1.2 8 1 9-1 17.9-2.6c5.1-.2 10.2-.9 15.4-1.3 5.6-.5 11.4-1.6 17 0q3.6 1.2 7.2 2.6 4 1.2 8.1.6c3-.4 6-1.4 9-1.8 1.5-.2 3.2.2 4.8.1q3.7.1 7.3-.3" class="b"/><path d="M14.7 79.7c3.5-.6 7-1.8 10.5-2q1.6 0 3.2 0 1.3.5 2.5 0c1.2-.5 2.8-.5 4-1.1l2.4-2.2a4 4 0 0 1 4.9-.4 14 14 0 0 0 8.9 2.7c1 0 2.3-.3 3.2.1C57.7 78.7 61 81 65 81.6q4.5.8 8.8-1.2 2.8-1.3 5.7-2c.8 0 1.7-.4 2.4 0 1.4.2 2.8.9 4.1 1.3q3.2 1 6.5.3c2.4-.4 4.8-1.2 7.2-1.5q4.9-.7 9.8-1.3 7.6-1 15.3-1.5c4.9-.6 9.9-1.2 14.6.2 4.8 1.5 9.4 4.2 14.6 3.6 3.6-.2 7-1.5 10.5-2.2q6.5.8 13 0" class="b"/><path d="M14.7 78.2c3.2-.3 6.4-1.4 9.7-1.7q2.5-.2 4.8 0l3.3-1c1-.7 2.1-1.8 3.2-2.5q2.9-2.4 5.7-.2c2.8 2 5.3 3.2 8.9 2.7 1 0 2.2-.4 3.2 0 3.9 2 7.8 4.1 12.2 4.6 7.4 1.2 12.5-4.2 17.8-2.8 5.1 3.1 10 1.2 15.4-.1 4.2-1 8.6-1.4 12.9-2.2q5.6-.7 11.3-.8c2.7-.2 5.4-.7 8.1-.6 4.9-.2 9.3 2 13.8 3.5q4.4 1.4 8.9.9c3-.4 6-1.5 8.9-2.3q7.3 1.3 14.5 0" class="b"/><path d="M14.7 76.6c3.2-.1 6.4-1 9.7-1.4 1.5-.2 3.3.2 4.8-.5q1.3-.3 2.5-.9l2.4-2c2.2-1.6 4-2.3 6.5-.4 2.7 2 5.3 3.4 8.9 2.8 1 0 2.2-.6 3.2 0 4.9 2 10 4 15.4 4.1q3.7.1 7.3-1c1.8-.4 3.7-1.5 5.6-1.1q2 .3 4 .3 2.4 1 5 1c3.8-.4 7.5-1.6 11.3-2.4l5.6-1q4-1 8.1-1.4l9-.1c3.4-.4 7-.7 10.5.2 3 .7 5.9 2 8.9 3 6.3 2 12.5.4 18.6-1.8 4.9 1.7 10.3 1.1 15.3.4" class="b"/><path d="M14.7 75q4.5-.2 8.9-1 3.3-.3 6.4-1.3 1.8-1 3.3-2.2c2-1.4 4.2-2.4 6.4-.7 2.8 2 5.4 3.6 9 3 1-.1 2.2-.7 3.2-.3 6 2.1 12.2 3.8 18.6 3.7 2.7 0 5.4-.7 8-1.3.8-.2 1.8.2 2.5.4a25 25 0 0 0 6.5.4q1.6.3 3.2 0c4.9-.8 9.7-2.1 14.6-3 3.4-.8 7-2 10.5-1.8q3.7.1 7.3.1c2.7-.1 5.4-.5 8 0 3.5.5 6.6 2.2 9.8 3 6.8 2.2 13.8 1 20.2-1.7 5.2 2.1 10.9 1.6 16.2.7" class="b"/><path d="M14.7 73.3c3 .3 6-.3 8.9-.8s6.3-1.1 8.9-3c1.8-1.3 4.2-2.7 6.4-1.5 2.8 1.7 5.5 3.7 9 3 1.2 0 2.7-.6 4 0q4.8 1.3 9.7 2 5.2.9 10.5 1a52 52 0 0 0 6.5-.7q4.3 1.5 8.9 1c5.7-.5 11.3-2.3 17-3.1 3.2-.9 6.4-2.2 9.7-2.1l8.9.2c2.1 0 4.4-.3 6.5 0 4 .6 7.4 2.9 11.3 3.6a32 32 0 0 0 19.4-2.1c1.6 0 3.2 1 4.9 1.3 4 .7 8.1.2 12.1-.5" class="b"/><path d="M14.7 71.7c4.9.5 9.8-.7 14.5-2.1 3.5-1.1 6.8-5 10.6-2.6s6 2.9 10.5 1.8c3 1.1 6.5 1.2 9.7 1.6q5.2.6 10.5 1c2.7.3 5.4 0 8 .1q2.1.8 4.1 1.2c4.7.7 9.3-.9 13.8-1.8q3.7-.8 7.3-1.3l5.7-1.8c3.4-1 7-.5 10.5-.3q4.5.1 8.9.2c3.4.4 6.4 2.4 9.7 3.3 7.2 1.8 15 1 21.8-2a26 26 0 0 0 17 1.2" class="b"/><path d="M14.7 70.2c4.3.4 8.7-.4 13-1.6 2.5-.7 4.9-2 7.2-3.1 2.6-1.4 5-.1 7.3 1a11 11 0 0 0 7.2.6c1.1-.2 2.3.4 3.3.5 3 .4 6 .3 8.9.5q5.3.2 10.5.9l5.7.3c1.6.4 3.2 1.4 4.8 1.6 3 .5 6-.2 9-.9q5.6-1.4 11.3-2.2c2.2-.3 4.3-1.4 6.4-2 3-.7 6-.5 9-.3 3.7.2 7.6 0 11.3.7 2.5.5 4.8 1.9 7.3 2.8 2.8 1 5.9 1 8.9 1q7.6.2 14.5-2.8a25 25 0 0 0 17 1.5" class="b"/><path d="M14.7 69c7.3.6 14.5-2 21-5 2.2-1 4.5-.2 6.5.7q2.7 1.1 5.6.7l2.5-.3 2.4.6h4.9l9.7.1q5.3.6 10.5 1.3c1.6.6 3.1 1.6 4.9 1.9 2.7.5 5.4-.2 8-.9l9.8-2c3.3-.3 6.4-1.7 9.7-2.3q3.1-.5 6.4-.2c2.5-.1 4.9.6 7.3.8 1.9.3 3.9-.4 5.7 0 3.6 1 6.7 3.4 10.5 3.7a48 48 0 0 0 20.2-2.5q1.3.2 2.5.7c4.6 2 9.7 2 14.5 1" class="b"/><path d="M14.7 67.7c7.3.7 14.4-2 21-4.8 3.3-1.7 5.7-.1 8.9.5q2.8.3 5.7-.3 2 .6 4 .7 3.3-.2 6.5-.2 4.9.9 9.7.9l4.9-.3 2.4.5c1.8.8 3.6 2 5.7 2.3 2.4.3 4.9-.4 7.2-1l9-1.8c5-1 10-3 15.3-2.3 3 .4 5.9 1.7 9 1.8a19 19 0 0 0 4-.4c1-.2 2.2-.6 3.2-.2q3 1.2 5.7 2.4 2.3.7 4.8.7c6.6.1 13.2-.2 19.5-2.4 5.8 2.4 9.8 3.3 16.2 2" class="b"/><path d="M14.7 66.5c6.7.7 13.2-1.7 19.4-4 4-1.8 5.4-2.4 9.7-1.2 2.4.6 4.9.1 7.3 0q2.3.6 4.8.5 1.6-.1 3.3 0c5 1 10.2 2.1 15.4 1.4q1.6-.1 3.2-.4c.8-.2 1.7.5 2.4.9q1.6.9 3.3 1c3 .5 6-.5 8.9-1q3.1-.9 6.4-1.5a36 36 0 0 1 10.6-2q3.7 0 7.2 1c2.4.7 4.8 1.6 7.3 1.5 2.2 0 4.3-.7 6.5-1q1.7-.4 3.2.5 2.4 1 4.9 1.7c2.9.5 6 .2 8.9.1q7.4 0 14.6-1.9c5.5 2 9.4 3.3 15.3 2.1" class="b"/><path d="M14.7 65.3c3.8.5 7.6-.3 11.3-1.3 4.4-1 8.6-3 13-4.4 2.6-.9 5.3.3 8 .2l4.9-.2q2 .4 4 .4c3-.2 6 1 9 1.5q6.8 1.4 13.7-.2c1.7 0 3.2 1 4.9 1.2 3.2.4 6.6-.4 9.7-1.2l3.2-.8q2.4-1 4.9-1.4 5.2-.8 10.5 0 4 .8 8 2c4.2 1 8.2-.6 12.2-1 1.7-.3 3.3 1 4.9 1.3q3.1.9 6.5.6c4-.2 8 0 12-.4l5-.6c1 0 2.2-.6 3.2-.4 2.4.7 4.8 1.7 7.3 2q3.1.5 6.4 0" class="b"/><path d="M14.7 64q4 .5 8-.6 4.1-.9 8.1-2c3.6-1 7-3 10.6-3.5 2-.3 4.3.3 6.4.2q4.5-.2 9 .1c7.3 1.3 13.3 3.4 21 1.7 2.1-.6 4.3.2 6.4.5q3 0 5.7-.5a41 41 0 0 0 9-2.5q9.3-.9 18.5 1.5 4.5 1.2 9 .5c2-.3 4.2-1 6.4-1 2-.2 3.8 1 5.7 1.2 3.2.3 6.5-.3 9.7 0q5.3.3 10.5 0c2.1 0 4.4-.5 6.5-.6 4 1 8 2.7 12.1 2" class="b"/><path d="M14.7 62.7c3.8.5 7.6-.8 11.3-1.6q4.1-.9 8-2c2.5-.8 4.9-2 7.4-2.5 2-.5 4.3-.2 6.4-.2q4.1 0 8.1.2c6 .7 11.8 2.6 17.8 2q3.3-.4 6.5-1c1-.1 2.2.4 3.2.5q3 .2 5.7-.3c3-.1 5.3-1.8 8.1-2.3 2.4-.3 4.9.1 7.3.2q6.5.3 13 1.3 4 .8 8 .5c2.2 0 4.4-.6 6.5-.7 2.4-.2 4.8.8 7.3.9q2.8 0 5.6-.2 1.6-.4 3.3-.4c6.2.6 12.4 1.5 18.6.4 1.1-.3 2.3.6 3.2 1a12 12 0 0 0 7.3 1" class="b"/><path d="M14.7 61.2c3.8.5 7.6-1 11.3-1.8 4.6-1 9.3-1.8 13.8-3.5a21 21 0 0 1 8.9-1q3.5-.1 7.2.1c5.2.5 10.2 2 15.4 1.8q4.5-.2 9-1.2 3.1.5 6.4.2 2.5-.1 4.8-.7c1.8-.8 3.7-1.6 5.7-1.5q3.3.4 6.5.7 4.9.3 9.7.5 9.3 1 18.6.2c2 0 3.8.6 5.7 1q2 .3 4 .3 3 0 5.7-.5c1.6-.1 3.3-.9 4.8-.5a74 74 0 0 0 12.2 1.1q1.2-.1 2.4.1c1.6.4 3.4.4 4.9 1.2q2.8.7 5.7.2" class="b"/><path d="M14.7 59.4c3.9.7 7.6-1.4 11.3-2.2 4.3-1 8.7-1.4 13-2.5 2.3-.4 4.7-1.5 7.2-1.4h9l8.8 1.2q7.7 1 15.4-.6 1.2-.2 2.4 0h4q2.1-.2 4.1-.6c2.4-.8 4.8-1.8 7.3-1.2a51 51 0 0 0 14.6 1 41 41 0 0 0 16.2.4 18 18 0 0 1 8 .4c2.6 1 5.5.9 8.2.8q3.2-.1 6.4-.8l2.5-.4 2.4.3q4.5.9 8.9 1.2 3.5 1.2 7.3 1.3 2.8.3 5.6-.2" class="b"/><path d="m14.7 57.2 2.4.3q2.5-.6 4.8-1.5 4.5-1.6 9-2.3 5.6-.8 11.3-1.3c2.1-.3 4.3-1 6.4-.8 6-.3 12 .8 17.9 1.3q6 .5 12.1-.7c1.8-.3 3.8 0 5.7-.2q2.4-.2 4.8-.6c1.8-.6 3.8-1.3 5.7-1 2.2.1 4.3.8 6.5 1.1a32 32 0 0 0 9.7 0l1.6.4q2.8.6 5.7.8 4 .3 8-.5c2.2-.3 4.4-1 6.5-.8 2.3 0 4.3 1.2 6.5 1.5 4.6.6 9.2-.3 13.8-.9 1.8-.5 3.8.2 5.6.5l4 .7 3.3 1q5.7 1 11.4-.2" class="b"/><path d="m14.7 54.8 2.4.3q2.5-.7 4.8-1.8 4.4-1.6 9-2.4 4-.5 8-.8c2.2-.1 4.4.4 6.5.1 6.7-1.2 13.5.4 20.2.8 6.5.4 13-.8 19.5-1 3 0 5.8-1.4 8.9-1.1 4 .4 8 1.8 12.1 1.5q2.5-.2 4.9-.4a38 38 0 0 0 15.3.7c2.2-.3 4.3-1.2 6.5-1 2.3-.2 4.3 1 6.5 1.5 3.7.7 7.6 0 11.3-.6 1.9 0 3.8-.7 5.7-.4q2.8.6 5.6 1 1.6.8 3.3 1c4 .5 8.1 0 12.1-.4" class="b"/><path d="M14.7 52.3q2 .4 4-.6l4.9-1.8q5.1-2 10.5-2.2 3.2-.5 6.5-.3c1.8.1 3.7.8 5.6 1a65 65 0 0 1 15.4.4c5.7.6 11.4.2 17-.1q4 0 8.1-.4c1.9-.2 3.8-.9 5.7-.9 4.3 0 8.6 1.5 13 1.4q2.7 0 5.6-.5 6 1.6 12.1 1.2 3.3-.3 6.5-1 3.2-1 6.5-.1c1.8.6 3.7 1.4 5.6 1.4 5 .3 9.7-1.6 14.6-1.4l4.9 1q2 .6 4 .8c4 0 8.1-.7 12.2-.9" class="b"/><path d="M14.7 49.8c3.8-.8 7.5-2.6 11.3-3.6a50 50 0 0 1 15.4-1.4c2.1.3 4.2 1.4 6.4 1.6l4-.3c5 0 9.8.9 14.7 1l9.7-.2q4 .2 8 .1c3.3 0 6.5-1.3 9.8-1 4.6.2 9.1 1.6 13.7 1q2 0 4-.4c2.7.4 5.5 1 8.2 1 4 .4 8.1-.3 12.1-1.2q2 0 4 .3c1.6.4 3.3 1.2 5 1.3 4.3.5 8.6-.8 12.9-1.3q2-.3 4 .3c2.4.2 4.9 1 7.3 1.1 4 0 8-1 12.1-1" class="b"/><path d="M14.7 46.7c5.6-1.5 11.1-3.7 17-4.4 3.2-.3 6.5-.8 9.7-.1 2.7.4 5.2 2.7 8 2.2 5.5-.7 10.9.3 16.3.6h10.5c2.6.1 5.4.6 8 .5q3-.1 5.7-.7 2.4-.3 4.9-.2c4-.1 8 1 12.1.8q3.7 0 7.3-.6 4 .6 8.1.9 3.3 0 6.5-.4c1.5-.2 3.2-.7 4.8-.4q1.7 0 3.3.2 2.3.9 4.8 1c4.1.2 8.2-.8 12.2-1.3a111 111 0 0 0 11.3 1.4q3.7-.2 7.3-.6c1.6-.2 3.3 0 4.8-.4" class="b"/><path d="M14.7 43.8c5.8-1.6 11.7-3.3 17.8-4 2.9-.3 6-.8 8.9 0 2.2.6 4.2 2.2 6.4 2.8l2.5-.3q6-.5 12.1.4 3.7.2 7.3.5 4 .2 8 .1c3 .4 6 .9 9 .5q5.6-1 11.3-.8c3.2.2 6.5.8 9.7.8 3.8 0 7.6-.5 11.3-.7q6.1.9 12.2 0l5.7.3q2.3.5 4.8.6a50 50 0 0 0 6.5-.4c1.3-.1 2.7-.6 4-.4q4.5.7 9 .9 2.8.2 5.6.2 2.9-.1 5.7-.4 2.5 0 4.8-.4" class="b"/><path d="M14.7 41.2Q22.3 39.3 30 38c3.5-.4 7.1-1.2 10.6-.5q2.1.6 4 1.9c1 .5 2 1.4 3.2 1.3l3.3-.5c8.1-1 16.2 1.5 24.3 1.4l2.4-.1 4 .6q3.7.5 7.3-.1 4.9-.7 9.7-.7 5.7.7 11.4 1 6.4-.2 13-.8 3.1 0 6.4 0l8.9.3c3.2.4 6.5 0 9.7-.4q8.4 1.4 17 1.2 6-.3 12.1-1" class="b"/><path d="M14.7 39q7.3-1.6 14.5-2.7l6.5-.9q3.4-.6 6.5.9l3.2 2q1.1 1 2.4.3 2.5-.5 4.9-1.1c3.2-.5 6.5.4 9.7.7 3.8.5 7.6 1.4 11.3 1.6q2.4.2 4.9-.1l4 .8q4.1.5 8.1-.2l6.5-.6c2.4-.1 4.9.4 7.3.6q5.3.7 10.5.6c3.8 0 7.6-.7 11.3-.8q6.9.1 13.8 0l4.9-.3c4 .5 8 1.3 12.1 1.4q6 .3 12.1-.5c2.7-.4 5.5-.3 8.1-1" class="b"/><path d="M14.7 37q8-1.4 16.2-2.6c7.3-1 8.2-2 14.5 2.6.9.1 1.7-.5 2.5-.7l2.4-.7q1.5-.8 3.2-1 2.4 0 4.9.4 4 .5 8 1.4 4 1 8.2 1.6 2.3.2 4.8 0 3.7.9 7.3 1c4.3 0 8.6-1 13-1 5 .5 10.2 1.5 15.3 1.6 4.9 0 9.7-.9 14.6-.9q6.9 0 13.8-.5l12.1 1.8c4 .6 8.1-.2 12.1-.8 3.2-.5 6.6-.5 9.7-1.4" class="b"/><path d="M14.7 35.5c5.3-1.2 10.8-1.7 16.2-2.7 6.7-1 8-2 13.7 2.5.9 0 1.7-.7 2.4-1 2-.8 3.7-2 5.7-2.4 3-.3 6 .4 9 .8 4.5.9 9 2.8 13.7 3.4q2.3.3 4.8.1 4.8 1.3 9.7 1c3.5-.3 7-.9 10.6-.8 4 .3 8 1.2 12.1 1.6 4.8.5 9.7 0 14.6-.4 1.8-.2 3.8.3 5.6.3q3.3.3 6.5-.5c1.8-.3 3.8-.9 5.7-.4 4 .8 8 2.5 12.1 2.3 3.5-.1 7-1 10.5-1.6 3.2-.6 6.6-.8 9.7-1.6" class="b"/><path d="m14.7 34.1 9.7-1.6c2.4-.4 4.8-1.3 7.3-1.2 6-.9 7.1-1 12 2.7q1-.1 1.7-.9c1.9-1.2 3.6-2.8 5.7-3.6 2-.7 4.3-.5 6.5-.2 4.7.4 9.3 2.1 13.7 3.7a25 25 0 0 0 6.5 1.5c1.3.2 2.7-.2 4 0q5.6 1.5 11.4.7c2.6-.2 5.4-.7 8-.5 4.6.5 9.2 1.6 13.8 2 3.5.3 7-.1 10.5 0a49 49 0 0 0 18.7-.5l3.2.8c2.4.5 4.8 1.2 7.3 1.3 3.5.1 7-1 10.5-1.6q6-1 12.1-2.2" class="b"/><path d="M14.7 32.7q2.8-.2 5.6-.8c3.4-1.1 7-2.3 10.5-2.6q2-.2 4.1.2l3.2.9c1.8.5 3.3 1.7 4.9 2.4 1-.2 1.7-1.5 2.4-2.2q2-2.3 4.9-3.5C55.7 25 63 27 68 29.2c3.6 1.6 7.3 3.5 11.3 3.7l3.3-.1c2.6.4 5.4 1 8 .8 3.6 0 7-.7 10.6-.7 3.5.3 7 1.2 10.5 1.7q4.8.6 9.7.8c4.3.4 8.6 1 13 1 3.5.3 7-.3 10.5-.8 3.2.6 6.4 1.8 9.7 1.6 3.3 0 6.5-1.2 9.7-1.9q6.5-1 13-2.3" class="b"/><path d="M14.7 31.1c6.7-.8 13.2-4.4 20.2-3.8q2.5.4 4.9 1.5c1 .5 2 1.3 3.2 1.4 2.3-2.9 5.3-5.5 8.9-6.3 4.6-1 9.5-.1 13.8 1.6 4.8 1.9 9.2 5.3 14.5 5.7h4c2 .1 3.9.6 5.7.6 3.3.2 6.5-.5 9.7-.5h3.3q3.2.4 6.5 1 8.4 1.5 17 2.2 4.8.6 9.7 1.1c3.5.3 7-.3 10.5-.6 2.6.6 5.4 1.2 8 1 3.4-.3 6.6-1.6 9.8-2.2q6.5-1 13-2.3" class="b"/><path d="M14.7 29.3c2.7-.2 5.4-1.1 8-1.9l7.3-1.6q6.5-1.6 12.2 1.8c.9-.3 1.7-1.4 2.4-2q1.9-1.6 4-2.9c5.9-3.2 13-1.9 18.7.9 5 2.2 9.6 6.1 15.3 6l3.3-.1q2.8.2 5.6.8c2.4.3 5-.4 7.3-.2q2 .2 4 0 1.7-.1 3.3.1 4 .9 8.1 1.5t8.1.7c4.1.1 8.1 1 12.1 1.8q4.5.7 9 .3l4.8-.2c2.7.4 5.5.7 8 0 2.8-.6 5.5-1.6 8.2-2.1 4.3-.9 8.7-1.2 13-2.2" class="b"/><path d="M14.7 27.7q3.7-.6 7.2-1.6 3.7-.8 7.3-1.5c4.4-1 9-1.8 13 .7 3.7-3.1 7.8-6.5 13-6.9 6.6-.3 13 2.7 18.5 6.1 4.7 3 8.3 3.9 13.8 3.3 1.4 0 2.7.9 4 1.1q2.4.5 4.9.4c2.1 0 4.3.5 6.5.4 2.1 0 4.3-.3 6.4.1 5.4 1 10.8.2 16.2.7 3 .4 6 1.5 9 2q5.2 1.1 10.5 1c3.1-.2 6.5 0 9.7-.3 2.7-.4 5.4-1.5 8-2.3 4.8-1.3 9.8-1.2 14.6-2.3" class="b"/><path d="M14.7 26q3.7-.3 7.2-1.2 3.7-.8 7.3-1.5c4.2-.9 9-2.2 13 0 1.4-.7 2.7-2 4-3 2.6-1.9 5.6-3.7 9-4 3-.2 6 .8 8.8 1.5 4.4 1.1 8.4 3.4 12.2 5.8 4 2.6 7.4 2.8 12.1 2.6q2.6 1.5 5.7 2 3.2.2 6.4.6c3.5.5 7-.2 10.6 0 4.3.2 8.6-.7 13-.6 4.1.1 8 2.2 12 2.9a67 67 0 0 0 16.2.8c4.3 0 8.1-2 12.2-3 4.2-1 8.7-.8 13-1.7" class="b"/><path d="M14.7 24.6a63 63 0 0 0 8-1.2L30 22c3.2-.7 6.5-1.8 9.7-1.3 1 .1 2.2.7 3.3.8 3.8-3 7.7-7.3 13-7 1.8 0 3.7.7 5.6 1.1 2.7.6 5.5 1 8 2.1 3.6 1.3 6.5 3.7 9.8 5.4q2.3 1.1 4.9 1.3h4q4 2.8 9 3 2.7.2 5.6.4 7-.3 13.7-1.1c3-.4 6-1 9-.7 3.6.5 6.9 2.3 10.5 3a54 54 0 0 0 21.8.2q3.6-1.3 7.3-2.2c4-.8 8.1-.8 12.1-1.4" class="b"/><path d="M14.7 23c2.6.3 5.4-.3 8-.7q4.1-.5 8.1-1.5c3-.6 6-1.5 9-1.4 1.3 0 2.7.8 4 .6 3.5-2.6 7.3-7.8 12.1-7 5.1 1.3 10.5 1.4 15.4 3.5 3.4 1.3 6.3 3.9 9.7 5.3a14 14 0 0 0 6.5.8q1 .3 1.6.9c4.2 3 9.7 3 14.6 2.9l13-1.5c3.1-.5 6.4-1.5 9.7-1 1.9.2 3.8 1.1 5.6 1.8a44 44 0 0 0 19.4 2.5c5.2-.7 10.3-2.4 15.4-3.4 3.5-.7 7-.7 10.5-.8" class="b"/><path d="M14.7 21.6q4 .4 8-.4 3.8-.4 7.3-1.2c5.4-1.3 9-2.4 14.6-1.2q3-2.7 5.7-5.3 2.7-2.7 6.4-2c4 1 8.2 1 12.2 2.2q3.8 1.2 7.3 3.2c1.8 1 3.6 2.4 5.6 3.1q1.6.6 3.3.8c1 0 2.3-.1 3.2.5q1.5 1.3 3.2 2.1a24 24 0 0 0 12.2 1.2c4.8-.6 9.6-2.1 14.6-2 2.6-.2 5.3-1.2 8-1q3 .5 5.7 1.7 3.1 1.3 6.5 2 6.4 1.6 13 .7c10-2.5 14.9-5.5 25.8-3.7" class="b"/><path d="M14.7 20.3q4 .5 8-.1 3.8-.4 7.3-1.1c4.3-1 8.6-2.3 13-2l2.4.2c1.4-.3 2.3-1.9 3.3-2.8 5.6-6.9 7-4.3 14.5-3.7 5.1.3 9.4 2 13.8 4.5 2.7 1.6 5.6 3.4 8.9 3.6 5.2.7 2.7 4.5 14.6 4 4.1 0 8-1.5 12-2.4q4.1-.9 8.2-.4c1.3.2 2.7-.4 4-.5q3-.3 5.7.6c2.7 1 5.3 2.3 8 3q6.6 1.8 13 .4c3.6-1 7-2.7 10.6-3.7 5-1.5 10.4-1 15.3.3" class="b"/><path d="M14.7 19.2c5.7.7 11.4-.4 17-1.5q6-1.6 12.1-1.9c4.5 0 3.8 0 6.5-3.3C54.9 6 57.4 8.7 64 9q6.2.4 11.4 3.3 3 1.9 6.4 3.4 2.4.9 4.9 1.5l1.6.6 2.4 1.8c3.5 1.9 7.6 1 11.4.7l6.4-1a25 25 0 0 1 14.6-1.5q2.9-.5 5.7-.3c4 .4 7.4 2.9 11.3 3.8q6.2 1.7 12.2-.3c3-1.2 5.8-3 8.8-4 5.3-2 11.1-1.1 16.2.7" class="b"/></svg>