<svg xmlns="http://www.w3.org/2000/svg" id="a" width="1920" height="2400" viewBox="0 0 192 240"><defs><style>.b{fill:none;stroke:#fff;stroke-miterlimit:10;stroke-width:.3px}</style></defs><path d="M0 0h192v240H0z" style="stroke-width:0"/><path d="M11.3 230c2.5-.9 4.5-2.6 6.7-4 4.2-2.8 8.5.1 12.7 1.4q5.3 1.8 11 2.2c7 .3 14-1.2 21 .2 5.8 1 11.7 2.2 17.7 2 2.8-.2 5.6-.8 8.4-1q7.6-.5 15.2 0 6-.2 11.8-.6 5.6-.3 11-.4c3.4-.3 6.8-1.2 10.1-1.7q2.5-.2 5-.3l4.3-.4q6.4-.2 12.6 1 3 0 6 .3 3.7.6 7.5.8 4.3-.2 8.5-.6" class="b"/><path d="M11.3 227.4c2.1-.5 4-1.9 5.9-3 4.8-3.2 8.7-.9 13.5 1a44 44 0 0 0 11 2.5c3.5.4 7.2.2 10.9.4 3.4.2 6.7 1 10 1.5 4.5.7 9 1.3 13.6 1 3.7-.2 7.2-1.5 11-1.7l10 .2c3.7.2 7.4.6 11 .4l9.3-.8 9.3-.7c4.2-.5 8.4-2 12.6-2.3q7.6-1 15.2-.2 4.3.4 8.4.9 3.5.8 6.8 1.2c3.6.5 7.3-.2 11-.5" class="b"/><path d="M11.3 225.2c2.7-.4 5-2 7.5-3 5.6-2.7 10.8.8 16 2.4 5 1.5 10.1 2.1 15.3 2.6q4.6.7 9.2 1.9a39 39 0 0 0 16 .1c3.4-.6 6.7-2 10.2-2.2q3 0 5.9.5 2.5 0 5 .3c4.8.5 9.6 1.2 14.4.6q8.4-.8 16.8-2c4.3-.7 8.4-2 12.7-2.5q7-.8 14.3-.2 5.1.8 10.1 1.5 3 .7 6 1c3.3.4 6.7 0 10-.3" class="b"/><path d="M11.3 223.1c5.7 0 11-3.4 16.8-2.7 4 .6 7.8 2.6 11.8 3.5q5.5 1.3 11 2.4l7.6 2c7 1.7 13.7-.8 20.2-3 3-1 6.2-1.5 9.3-.7 2.7 1 5.7.9 8.4 1.4a49 49 0 0 0 15.2 1c5-.6 10.2-1 15.2-2 4.2-.8 8.4-2.2 12.6-2.8 4.8-.5 9.7-1 14.4-.4 4.4 1 8.9 2 13.5 2q6.7 1.4 13.5.5" class="b"/><path d="M11.3 220.6q3.4-.9 6.7-2.3 3.6-1.6 7.6-1c3.5.5 6.8 2 10.1 3.1q10 3.3 20.3 6.4c7.3 2.2 12.9-1.6 19.3-4.3a18 18 0 0 1 10.2-1.2l4.2 1.4q2.5.3 5 1 6.3 1.7 12.7 2.2 3.8 0 7.6-.7 3 0 5.9-.6c6-1 11.8-2.8 17.7-4l5.9-.7c2.2-.2 4.6-.5 6.8 0 2.8.5 5.6 1.5 8.4 2q4.1.5 8.4.4c4.2.3 8.5.9 12.7.5" class="b"/><path d="M11.3 215.3c8.3-6.3 13-2 21 1.5 3.3 1.5 6.8 2.4 10.2 3.7 4.4 1.7 8.8 4 13.4 5 5.8 1.6 10.7-2.4 15.2-5.3 5.6-3.8 11-3.5 16.9-.8q2.1.6 4.2 1 5 1.8 10.1 3 3.8.9 7.6.8l7.6-.6q4.3-.5 8.4-1.7l10.2-2.7c2.1-.6 4.5-.6 6.7-1 2.2-.3 4.5-.8 6.8-.2 2.8.6 5.5 1.7 8.4 2.2 3.3.6 6.8.4 10.1.2q2.6-.3 5 .2 4 .6 7.7.4" class="b"/><path d="M11.3 209.3c3.5-3.2 8.2-.3 11.8 1.4a97 97 0 0 0 16 6.6q2.7.6 5 1.8c5 2.3 11.2 6.8 17 4.4 3.5-1.5 6.2-4.6 9.2-7s6.3-3.7 10.1-2.7c3.5.8 6.7 2.5 10.1 3.5 5.5 2 11 4.4 16.9 5q5.5.2 11-.2c2.8-.3 5.6-1.3 8.4-2.1l6.7-1.9a41 41 0 0 1 8.5-1.6c1.9-.3 4-1 5.9-.4q4.2 1.2 8.4 2.2 5.4.9 11 .2l4.2-.3q4.6.9 9.3 1" class="b"/><path d="M11.3 205.3c1.8-.1 3.5 1.1 5 2q2.8 1.9 6 3.2c5.1 2 10.7 2.7 16 4.4 1.6.6 3.4.8 5 1.6 3.6 1.8 7 4.4 11 5.6 8 2.6 11.7-7.3 17.7-10.6 2.8-1.8 6.3-1 9.2 0q5.3 1.6 10.2 3.9a95 95 0 0 0 14.3 4.4q7.2 1.3 14.3.2 3.5-.7 6.8-1.8l6.7-2q3.7-1.1 7.6-1.6c2-.3 4-1.1 6-.3q4.8 1.5 10 2.1 5.1.4 10.2 0 2.5-.4 5-.3c2.8.4 5.6 1.1 8.5 1.2" class="b"/><path d="M11.3 203.9c2.6 1.5 4.8 3.9 7.5 5.2q3.6 1.5 7.6 2 5.1 1 10.2 1.4l6.7 1.6q3.7 2.5 7.6 4.8c10.1 6 12.7-4.2 19.4-9.1 2.8-2.2 6.2-1.1 9.3-.2l5 1.3 4.3 2c2.9 1.4 6.1 2 9.2 2.7q5 1.4 10.2 2.3 7.6 1 15.1-.7l10.2-2.9q3.7-1.2 7.5-1.7 1.6-.4 3.4-.6a85.3 85.3 0 0 0 15.2 2.2q5.1.1 10.1-.4 2.6-.2 5 .6 3 1 6 1" class="b"/><path d="M11.3 203.8c4.2 4.5 7.1 6.1 13.5 6.1 3.6 0 7.2 1 11 1 2.2 0 4.5.8 6.7 1.3 1.6.2 2.9 1.6 4.2 2.5 3.3 2.5 7.5 5 11.8 4 4.4-1.9 6.5-6.8 10.1-9.8 3.4-3.1 6.4-1.4 10.1-.2q2.6.7 5 1 2.2 1.3 4.3 2.1c4 1.4 8.5 1.2 12.7 2.3a41 41 0 0 0 21 1.2c7.5-1.1 14.4-4.4 22-5.3q12 2 24.4 1.6c1.4-.1 2.9.4 4.2.6 2.8.3 5.6 1.2 8.5 1.1" class="b"/><path d="M11.3 204.3c6.5 7.3 13.7 2.8 21.9 4.8 1.6.4 3.4.2 5 .3q3 .6 6 1.7c6.4 5.8 9.8 7 17.7 2.7q1.5-.8 2.5-2.3c1.2-1.5 2.6-3.3 4.2-4.5 4-3 7.8 1.4 11.8 2h2.5c2.1 1 4.4 2.2 6.8 2.2 3 .1 6.2-.2 9.3.5 2.2.4 4.4 1.5 6.7 2 3.6.7 7.3 1.3 11 .7a188 188 0 0 0 16.8-4.3q3.7-1.1 7.6-1.8 2.5-.6 5 0 9.8.9 19.5 1c2 0 4 .6 5.9.8q4.6.8 9.2 1" class="b"/><path d="M11.3 204.3c5 4.3 11.7 2.5 17.7 2.3 2.5 0 5 .8 7.6 1.2H39l4.2 1.2c1.3.4 2.3 1.8 3.4 2.6 3.4 3.2 7.1 2.5 11 .5q5.5-3.2 10.9-6.6c2.6-1.6 5.4.3 7.6 1.6q2.7 1.6 5.9 1.4c4.3 2.6 7.2 1.8 11.8.8 1.6-.1 3.5-.3 5 .5a30 30 0 0 0 12.7 3.3c3.8.1 7.4-1 11-2.2q4.6-1 9.2-2.5c2.3-.4 4.5-1.4 6.8-1.9q2-.4 4.2-.6l3.4.2q3.7.3 7.6.3 4.6 0 9.2.2c6 .7 11.8 2 17.8 2.2" class="b"/><path d="M11.3 203.6c3.7 2.2 8.4 2.1 12.6 1.6 3.6-.6 7.4-.8 11 .2q3 .8 5.9.9l3.3 1.2c1.7 1.6 3.5 3.6 6 3.8 3 .3 5.8-1.7 8.4-3 3.6-2 7.5-4.1 11.8-4.3 2.8 0 5 2.6 7.6 3.3q1.2.4 2.5.5l1.7.8c3.1 1.6 6.2 1 9.3-.5 2.5-1 5.1-1.7 7.5 0a21 21 0 0 0 17 2.9q2.9-.8 5.8-2 2.6-.3 5-1c2.3-.6 4.5-1.6 6.8-2q3-1.2 6-1.7 2.8-.6 5.8-.2h6c9.8-.5 19.7 1 29.4 2.3" class="b"/><path d="M11.3 202.6c6.2 2.4 13 0 19.4.1 3.1 0 6.1 1.3 9.2 1.7q2.3 0 4.3 1.2c2 2.5 5.2 4.2 8.4 2.8 2.8-1.1 5.5-2.8 8.4-3.7q5.9-2 11.8-.1c4.4 1.4 8.7 5 13.5 3.8 2.1-.5 4-2 6-3 2.5-1 4.2-.8 6.7.7 6 3.8 10.7 5 17.7 2.5l3.3-1.2q2.6-.3 5.1-.8c2.3-.5 4.5-1.7 6.8-2.3 2.4-.7 5-1.7 7.5-2 5-.3 10.2 0 15.2-.1a110 110 0 0 1 26.2 1.5" class="b"/><path d="M11.3 201.4c6.7 1.3 13.4-1.1 20.2-.7q4.4.4 8.4 1.8c1 .3 2.4.4 3.4.6 1 .4 1.7 1.5 2.5 2 2.3 1.7 5.2 1.6 7.6.4 5.9-2.7 9.8-2.6 16-1.7 3.2.6 6.2 2 9.3 3 2.2.6 4.6 1 6.8.1 3-1 5.1-4.1 8.4-4.4 8.3 0 9.6 8.3 22.8 3.7q2-.8 4.2-.8 2.7 0 5-1 3-1.3 6-2 2.8-1.2 5.8-1.6c2.5-.3 5.1 0 7.6 0 6.8.4 13.5-.6 20.3-1q7.6-.6 15.2 1" class="b"/><path d="M11.3 200c5.9.5 11.7-1.3 17.7-1.4q4.3-.1 8.4 1c2.2.6 4.5 1.6 6.8 2 4.9 5.1 9.5.4 15.1.5q3 .1 6 .7 2.5.1 5 .6c4.1 1 8.4 3 12.6 2.1 2.3-.5 4.2-2.2 6-3.5 2.3-2 4.7-2 7.5-1.1 3 .3 5.7 1.8 8.5 2.9q2.8 1 5.9.9c2.2-.1 4.5-.8 6.7-1.2q2.7 0 5-.3 3-.8 6-1.9 2.5-.6 5-1.4 2.6-.5 5-.7c1.7-.3 3.5.1 5.2.2q3.3.3 6.7.2c4.3-.1 8.5-1 12.7-1.7q4.5-.8 9.2-.8c2.8 0 5.7.2 8.5-.3" class="b"/><path d="M11.3 198.6c4 0 7.9-.8 11.8-1.4q5-.8 10-.5 5.4.4 10.2 2.8c.9.1 1.8.9 2.5 1.2q2 1 4.3 1c2.5-.2 5-1.2 7.5-1 2.3 0 4.6.7 6.8 1 2 .3 4 .1 5.9.5 3.6.6 7.3 1.8 11 1.2 4-.7 6.6-5.3 11-5.1q2.4.4 5 1l3.3.5c2.8.6 5.6 1.7 8.5 2q3.3.1 6.7-.3h4.2c3-.2 5.7-1.5 8.5-2a31 31 0 0 1 6.7-1.3c1.7-.2 3.4-.8 5-.7q6.8 1 13.6.3c4-.5 7.9-1.5 11.8-2.2 5-1 10.2-1.3 15.2-2.3" class="b"/><path d="M11.3 197.2c4.5-.3 9-1.4 13.5-2 4.7-.6 9.6-.8 14.3.4 2 .4 4 1.6 5.9 2.5 3.1 1.4 5.9 1.5 9.3 1s6.7.8 10 1.2c2.6.4 5.2 0 7.7.3 3.6.3 7.6 1 11-.7q2.4-1.5 5-2.8c1.8-.8 4-.6 5.9-.2q3 .7 5.9 1c3.7.3 7.3 1.4 11 1.5 4.2 0 8.5.6 12.6-.6q3.3-1 6.8-1.6 4.6-.1 9.2-1.4c4.2.5 8.5 1 12.7.5 4.8-.4 9.6-1.7 14.3-2.7q3.3-.7 6.8-1 3.7-.8 7.6-1.2" class="b"/><path d="M11.3 195.8c4.5-.4 9-1.6 13.5-2.4 5.2-.6 10.8-1.1 16 .3 1.7.5 3.3 1.7 5 2.4q3.7 1 7.6 1 2.6 0 5 .3c2.6.4 5.1 1.2 7.7 1.4l8.4-.3c2.5 0 5.2 0 7.6-1 4.5-2.2 6.8-3.2 11.8-2.2q6.7 1 13.5 1.7c5.6.5 11.4 1.4 16.8-.3 2.7-1 5.7-1 8.5-1a41 41 0 0 0 6.7-1.5c4.2.5 8.5 1 12.7.5s8.4-1.7 12.6-2.4c5.4-.3 10.6-2 16-1.7" class="b"/><path d="M11.3 194.5c4.8-.5 9.5-2 14.3-2.8 5.3-.6 10.8-1.4 16 0 1.8.4 3.4 1.6 5 2.3l7.7.9c4 .2 7.8 2 11.8 2.5q2.5.1 5-.3 2.7-.2 5-1 3-.3 6-1.2c4.9-2 8.4-1.7 13.5-1.1l14.3 1.4q5 .8 10.1.4c3.4-.5 6.7-1.6 10.1-1.4 3.2.1 6.3-.8 9.3-1.8 4 .5 7.9 1 11.8.5q5.1-.6 10.1-1.9 2.6.3 5.1 0 3.3-.3 6.8-1 3.7-.2 7.5.2" class="b"/><path d="M11.3 193.2c5.4-.6 10.6-2.5 16-3.2 5-.7 10.2-1.5 15.2-.4l3.3 1.3q1.2.8 2.6 1.1 3.7.2 7.6 1c3.4.7 6.6 2.5 10 2.8q5.8.3 11-1.7c4.2-.8 8.4-2.4 12.7-2.3q8.5.2 16.8 1.1 5.1.8 10.2 1c2.5.1 5-.5 7.6-.8l3.3-.4h3.4c2.9 0 5.7-1 8.4-1.9 2 0 4 .5 6 .6q3.3.1 6.7-.4 3.3-.5 6.7-1.3 3.3.6 6.8.5c2.2-.1 4.5-.9 6.7-1q4.3-.4 8.5.6" class="b"/><path d="M11.3 192c5.1-.7 10-2.4 15.1-3.3 5.6-1 11.3-2 16.9-1.2 2.4.4 4.5 1.7 6.8 2.4q4.3 0 8.4 1.6c2.7 1 5.5 2.2 8.4 2.5q5.2.3 10.1-1.5l6-1.3c6.8-1.5 14-1 21-.4 4.5.3 9 1.2 13.5 1.2 2 .1 4-.4 5.9-.5q2.5 0 5-.4h3.4c3-.2 5.6-1.7 8.5-2q2 0 4.2.4 3.7.3 7.6-.4c1.6-.2 3.4-.8 5-.8q3.3.8 6.8 1c2.5 0 5-1 7.6-1.2q4.6-.3 9.3.8" class="b"/><path d="M11.3 190.6c4.8-.5 9.5-2 14.3-3.1 6.3-1.2 12.9-2.7 19.4-1.9q3.5.6 6.7 2.2 2.2.1 4.3.6 2.5.7 5 1.6c3.2 1.3 6.7 2.3 10.1 2 4.2-.5 8.6-1.6 12.7-2.3a78 78 0 0 1 21.9-.7q5.4.8 11 1.2c2.2.2 4.5-.3 6.7-.2 2.8 0 5.7-.5 8.4-.6 3-.2 5.7-1.4 8.5-2.1q3.7.3 7.6.3 3.3-.3 6.7-1c3 .7 6.1 1.7 9.3 1.6 2.6 0 5-1 7.6-1.3q4.6-.3 9.3.8" class="b"/><path d="M11.3 189.2c4.3-.3 8.4-1.6 12.6-2.6a89 89 0 0 1 18.6-3q6.5.2 12.6 2.4c2.6.2 5.1 1.2 7.6 2q4.5 1.8 9.3 1.7l6.7-.6 8.5-1.4a73 73 0 0 1 21.9-.1c3.3.4 6.7 1 10.1.9 3-.2 6.2 0 9.3-.3q3-.4 5.9-.9c2.2-.5 4.5-1.4 6.7-1.8q5.6.3 11-.5c2.3.3 4.5 1.2 6.7 1.6 9.5 1.9 9.8-3 22-.3" class="b"/><path d="M11.3 187.7c7.1-.4 14-3 21-4.4q8-1.7 16-.7c5.8.3 11.4 2 17 3.7 4.3 1.3 9 1.3 13.4 1.1 4.5-.4 9-1.4 13.5-2a75 75 0 0 1 21 1q4.3.4 8.5.4h6.8c2-.3 4-1 5.9-1.2q3.7-1 7.5-2 3.8 0 7.6-.3c2.9.4 5.7 1.4 8.5 2 10 2 10.9-3 22.7-.6" class="b"/><path d="M11.3 185.9c9 .2 17.3-3.8 26.1-4.8 4.5-.7 9 0 13.5.4q4.6.3 9.3.9l8.4 2.1q5 1 10.1 1.1c6-.3 11.8-1.8 17.7-2.3q4.6-.2 9.3.2c4.5.5 9 1.4 13.5 1.6 3.4 0 6.8.4 10.1 0 4.8-.9 9.5-2.6 14.3-3.3 5.3-.9 10.2 1.7 15.2 2.4q3.9.5 7.6-.1c2-.3 4-1.1 6-1.4a28 28 0 0 1 8.4.3" class="b"/><path d="M11.3 183.8c9 1.2 17.4-3 26.1-4.2 5.4-.7 10.7.9 16 1 3.4.4 6.8 0 10.1.4 2.9.3 5.6 1.3 8.5 1.7q3 .6 5.9 1 3.4 0 6.7-.4c4.5-.5 9-1.7 13.5-1.9l6.8.1 7.5 1a79 79 0 0 0 18.6.7c4.5-1 8.9-2.8 13.5-3 2.9-.2 5.7.7 8.4 1.5a32 32 0 0 0 19.4-.4q4.3-.7 8.5 0" class="b"/><path d="M11.3 181.4c7.6 1.8 15.4-.6 22.7-2.6q4.6-1.2 9.3-.6 7.5 1.6 15.2 1.5 4.2-.3 8.4-.2c2.6.2 5 1 7.6 1.4q5 1.1 10.1.8c5-.6 10-2.2 15.2-2 5.4-.2 10.7.8 16 1.6q6 .7 11.8.7c6.6-.2 12.7-4.3 19.4-3.1 2.3.3 4.5 1.2 6.8 1.8q3.7.9 7.6.8a46 46 0 0 0 9.2-1.1q2.2-.6 4.3-1 3-.2 5.9.1" class="b"/><path d="M11.3 178.9c8.1 2.5 14.9.9 22.7-1.6q4.6-1.2 9.3-.5 6.7 1.6 13.5 1.7c3.7.1 7.3-.5 11-.6a20 20 0 0 1 6.7.8c2.8.6 5.6 1.4 8.4 1.4 5.4-.2 10.6-2.2 16-2.2q7.7-.2 15.2 1.3 7.1 1.3 14.4 1c5.7-.2 11-3.8 16.8-3.1 3.5.3 6.7 2 10.1 2.4 5.4.7 10.8-.1 16-1q2.2-.2 4.3-.8 2.5-.4 5 0" class="b"/><path d="M11.3 176.2c8.9 3 13.9 2.6 22.7-.2q4.2-1.4 8.5-.7 10.3 2.3 21 1.6 5.1-.6 10.2-.5c4.5 1.3 8.7 2.5 13.4 1.3q9.2-2.1 18.6-1.5c7 .6 14 2.3 21 2.2q4.9-.2 9.4-1.7c2.7-.8 5.5-1.8 8.4-1.5s5.6 1.5 8.4 2c6.4 1.5 13-.2 19.4-.7 2.8-.2 5.6-1.2 8.4-.9" class="b"/><path d="M11.3 173.7c6.6 2.2 12.3 4 19.4 2 2.7-.7 5.5-1.9 8.4-2 2.2-.2 4.5.4 6.7.8l6.8.5q5.9.5 11.8.4 4.6-.3 9.3-.5c2-.2 4 .8 5.9 1.1q3 .7 5.9 0a72 72 0 0 1 17.7-1.8c7 .1 14 2 21 2.3 4.4.3 8.6-1 12.7-2.1q2.2-.6 4.2-1 3-.5 6 .3c8 2.6 12 2.4 20.2.9q4.1-.7 8.4-.7c1.7 0 3.4-.5 5-.5" class="b"/><path d="M11.3 171.9c.8-.4 1.7 0 2.5.3l5 1.5a24 24 0 0 0 11 .7c3.1-.5 6.1-1.9 9.3-2.1q3.4-.1 6.7.4l9.3.4q5.4.4 11 .5l9.3-.2c1.6 0 3.3.7 5 .8 2.3.2 4.6-.3 6.8-.7q3.7-.7 7.6-.9 4.6-.7 9.2-.4c6.6.1 13 1.9 19.4 2.2 5.3.5 10.1-1.7 15.2-2.5a15 15 0 0 1 8.4-.3c8.3 2.6 12 2 20.3.4 1.6-.3 3.4-.1 5-.2q4.3-.1 8.5-.6" class="b"/><path d="M11.3 170.7c1-.1 2.2-.5 3.3-.4l4.2 1.1q4.6 1.5 9.3 1.6c3.8 0 7.3-1.6 11-2.1q3.4-.3 6.7-.1 7.6 0 15.2.4t15.2.6c2 0 4 .5 5.9.2 2.8-.4 5.6-1.3 8.4-1.4q2.7.1 5 0 2.2-.5 4.3-.6 6.4 0 12.7 1c4.1.5 8.4 1.3 12.6 1.2 2.9-.1 5.7-1 8.4-1.7q3-.6 6-1c3.5-1.3 7.4-.4 10.9.8 4.7 1.3 9.6.6 14.3-.2q1.3-.2 2.6.2l3.3.4q5.1 0 10.2-1" class="b"/><path d="m11.3 169.4 5-.7c4 .6 7.7 3 11.8 2.6q2.6 0 5-.5c2.3-.4 4.6-1.3 6.8-1.6q9.8-.9 19.4-.3l14.4.6c2.2 0 4.5.3 6.7.1q2.6-.3 5-1c3-.7 6.3-.4 9.3 0l4.3-.8c9-.6 17.9 2.4 27 1.9 2.8-.2 5.6-1.3 8.4-1.8 1.6-.5 3.6 0 5-.6 4.5-1.7 7.6-.2 11.8 1 4 .8 8 .2 11.8-.2q3.3.8 6.8 1.1 5.5.2 11-.9" class="b"/><path d="M11.3 167.8c1.7-.2 3.3.5 5 .7 2.4 0 4.5 1.3 6.8 1.8q3.7.8 7.6-.1L34 169l3.4-.8a63 63 0 0 1 15.2-1.8c9.8-.1 19.7 1.3 29.5.3 3.6-.7 7.3-1.6 11-.6 1.9-.4 3.9-1.1 5.9-1.2q5.4-.3 11 .8l10 1.5q3.8.5 7.6 0c2.3-.3 4.5-1.2 6.8-1.6q1.7-.3 3.3 0 3-1.4 6-1.4c2.6 0 5 1.4 7.5 1.9 3 .5 6.3.2 9.3-.1 3 .5 6.2 1.4 9.3 1.6q5.5.1 11-.8" class="b"/><path d="M11.3 167q4 1.7 8.4 1.8 3.3 1 6.7 1c3.9 0 7.4-2 11-3q6.7-2 13.5-2.4c5.6-.3 11.3.1 16.9.2q7.5.2 15.1-.3c2.5-.2 5-.8 7.6-.6 2-.4 4-1.4 6-1.6 3.6-.3 7.3.9 10.9 1.6q5.4 1 11 1.2 3.7.8 7.5.6c2.6 0 5.1-1 7.6-1.5 1-.3 2.4 0 3.4-.4 3.6-1.4 6.4-2 10.1-.6q3.3 1.5 6.8 1.5c1.9.1 4-.5 5.9 0 3.3.6 6.7 1.4 10 1.6a73 73 0 0 0 11-.7" class="b"/><path d="M11.3 166.6a19 19 0 0 0 10 2q4 .8 7.7-.4c3.7-1 7.3-2.7 11-3.8q6-1.8 12.6-2.1c9.5-.5 19.1.7 28.7-.4q3.4-.2 6.7-.8l5-1.1c3.3-.5 6.4 1 9.3 2 6.3 2.5 12 2.5 18.6 1.7q3.4-.3 6.7-.4 3.5-.7 6.8-1.3 2.2-.4 4.2-1.1 1.6-.8 3.4-.2c1.6.6 3.3 1.3 5 1.3 2-.1 4 .6 6 .6 3.6-.2 7.3.7 10.9 1.2q4.2.7 8.4.5t8.5-.5" class="b"/><path d="M11.3 166.1q3.9 2.3 8.4 2.1 3-.2 5.9-.6c3.2-.7 6.1-2.2 9.3-3.2 2.2-.6 4.5-1.6 6.7-2.2q6.7-1.8 13.5-2.2c8.7-.4 17.5.5 26.2-.4q4.2-.5 8.4-1.4c2.6-.7 5.2.1 7.6 1.2q3.3 1.6 6.7 2.7c5.7 2 12 1.5 17.7.3q4.7-.7 9.3-1.6l6-1.3c2-1 3-.6 5 .5 2 1 4.5 1.1 6.7.9q3.4-.1 6.8.2 6.8.7 13.5 1.3l5.9-.2q3 0 5.9-.2" class="b"/><path d="M11.3 165.6c4.4 2.4 8.7 2 13.5.7 2.9-.7 5.6-2.2 8.4-3.2q3-1 5.9-1.7l4.2-1.4q6.7-1.9 13.5-2.1c10-.7 20.4.9 30.4-1.4 3.6-.9 6-.2 9.2 1.5q4.1 2 8.5 3.1a33 33 0 0 0 11.8.7q6-1 11.8-2.2l6.7-1.4c1.4-.3 2.8-1.1 4.2-.5 1.9 1 3.9 1.9 6 1.8 3-.1 6.1-.6 9.2-.3 4.8.1 9.6.9 14.4 1q3.3.2 6.7 0 2.5.2 5 .2" class="b"/><path d="M11.3 165c3.8 1.7 7.8 1.2 11.8 0 3.5-.8 6.7-2.7 10-4q3.4-.8 6.8-1.7l6-1.8q7.4-1.8 15.1-2c6.2-.3 12.4.2 18.6 0q2.5 0 5-.4c2-.3 4-.8 6-.7 2.6.2 5 1.8 7.5 2.7q5 2 10.1 2.8c5.1.7 10.3 0 15.2-1.1l11.8-2.2 2.6-.6c.7 0 1.8.4 2.5.7q2.4 1 5 1 2.6-.4 5.1-.6a38 38 0 0 0 7.6.1l8.4.8q4.3.2 8.5 0 2.9.6 5.9.7" class="b"/><path d="M11.3 164.3c4.8 1 7.3 0 11.8-1.7l4.2-1.1 5-2.2c2.7-1 5.7-1.3 8.5-2q3.4-1 6.7-2 4.2-1 8.5-1.7 5.8-.5 11.8-.5c4.4.1 9 .6 13.5.4 3 0 6.1-1 9.2-.8 3 .4 5.7 1.9 8.5 2.7q6.5 2.4 13.5 2.7c4 .2 7.9-.7 11.8-1.4q6.4-.7 12.6-2c2.3-.4 4.5 1 6.8 1 2.5.1 5-1 7.6-.3 5 .7 10.1 0 15.1.4q3.4.1 6.8.3c2.5.4 5 .9 7.6.7" class="b"/><path d="M11.3 163.3c6 .5 9.6-3.5 15.1-4.7l3.4-.5a28 28 0 0 1 6-1.9q3.3-.4 6.7-1.1c3-1.2 6.2-1.8 9.2-2.8q5-1.5 10.2-1.3 3-.2 5.9-.2c5 .3 10 1 15.1.8 3.1 0 6.3-1 9.3-.3 8.3 2 16.6 5.6 25.3 4.5q8-1 16-2c1.7 0 3.4-.6 5.1-.7 2 .2 4 .8 5.9.7q3-.1 5.9-.5 6.3.8 12.7.8 4.6-.1 9.2.4c2.8.3 5.7.9 8.5.5" class="b"/><path d="M11.3 161.5c5.4-.2 8.6-4 13.5-5.9q2-.6 4.2-.8c1 0 2.3.3 3.3 0 3.3-1.2 6.8-1 10.2-1.5l6.7-2q3.7-1.7 7.6-2.4 5.4-.6 11-.4c4.7.4 9.5 1.4 14.3 1.4q4.2-.2 8.4-.4 3.5.2 6.8 1c4.2.7 8.4 2.1 12.6 2.8 4 .7 8 .3 11.8 0 2.8-.4 5.7-.2 8.5-.5l5-.5c1.4-.2 2.9-.7 4.2-.6 1.7 0 3.4.4 5.1.4q3.3-.1 6.8-.4 3.3-.1 6.7.4l10.1.6c4.2 0 8.5 1 12.7.4" class="b"/><path d="M11.3 159q2.6-.7 5-1.7c4-2.5 7.7-6.1 12.7-6 1.4 0 2.8.5 4.2.7q1.6-.4 3.4-.6c2.7-.2 5.7.4 8.4-.6 3-.8 5.6-2.3 8.4-3.3q3-1 6-1.1 3.2-.7 6.7-.4c5 .5 10 2 15.2 2.2 4.4.4 9-.7 13.4.1q3.8.7 7.6 1 3.5.6 6.8 1.4 3.7.8 7.6.8l5.9.1c5.6.4 11.3-.3 16.8-1.3l6 .2q4.1-.1 8.4-.4c3-.3 6.2.2 9.2.5 6 .4 11.9 1.2 17.8.5" class="b"/><path d="M11.3 156q2.6-1 5-2.2c3.6-2.4 7.2-5.9 11.8-6q1.8 0 3.4.6l1.7.7q.8 0 1.7-.3c3-.7 6.2.9 9.2.4s5.7-2.2 8.5-3.5q2-.7 4.2-1.2 2.5-1 5-1.1c7.2 0 14 3 21.1 3.3q4.7.2 9.3-.1c2.6.1 5 1 7.6 1.2 2.5.4 5.1-.1 7.6.3q4.6 1 9.3 1.4 2.5.7 5 .9c6.2.5 12.5-.3 18.6-1.5q3-.1 5.9 0l7.6-.3 5.9-.4 5.9.7q7.5 1 15.2.1" class="b"/><path d="M11.3 152.5c7.5-2.6 13.2-11.6 21.9-6.2 4.3-1.3 6.1.2 10.1 1 3.2.3 5.8-1.8 8.4-3.2 1.3-.7 3-1 4.2-1.9 3.1-1.8 6.8-1.6 10.2-.8 5.3 1.2 10.5 3 16 3.7q3.4.3 6.7.3c2.3 0 4.6-.2 6.8.3q3.7.8 7.6 1.1c2.5.2 5-.2 7.6.1q2.6.4 5 1.3 3.3 1 6.8 1.1c6.8.3 13.5-.8 20.2-1.8 4.2-.3 8.5-.2 12.7-.5 3-.1 6.2-.7 9.2-.1 5.4.7 10.8 1 16 .1" class="b"/><path d="M11.3 148.3c5.5-1.7 10-6.4 16-6.5q1.6 0 3.4.5c.7.3 1.7 1 2.5 1.1 4.3-1.4 6.3.3 10.1 1.7 2 .7 4.2-.1 5.9-1.3q2-1.3 4.2-2.4c3.3-3.1 6.6-3.9 11-2.7 7.8 2.1 15.4 5.3 23.6 5.4q3.3.1 6.7.1c2.8.4 5.6 1.2 8.5 1.4l5 .1 4.2.6c2.6.5 5 1.5 7.6 1.6 6.8.5 13.5-.6 20.3-1.1l8.4-1 8.4-.4c2.5 0 5.1-.7 7.6-.5a58 58 0 0 0 16 0" class="b"/><path d="M11.3 144.5c6.5-1.5 14.4-7.8 21-3.8 1.1 0 2.3-.5 3.4-.6 2.1-.3 4.1.7 6 1.8 1.6 1 3.9 2 5.8 1.1a23 23 0 0 0 6-4.1c2.8-3.3 6-3.9 10-2.7 8 2.5 16 6 24.5 6.6a61 61 0 0 0 8.4.4c6.2 1 12.3 2.4 18.6 2.9q5.4.7 11 .2 4.1-.2 8.3-.6 6-.4 11.8-.9 6.8-.8 13.5-1.3c2.5-.2 5.1-.7 7.6-.4q6.8.7 13.5-.2" class="b"/><path d="M11.3 141.7c4.2-.7 8.4-2.3 12.6-3.3 2.8-.7 5.9-1.5 8.4 0 1.9-.5 4-1.3 6-.8 3 .8 5.2 3.8 8.4 4 7.4-2.3 6.8-11 16.8-7.5 7.6 2.5 14.9 6 22.8 7.2 3.3.6 6.8.5 10.1.8q3.4.6 6.8 1.5 3.3.7 6.7 1 4.6.4 9.3.3c2.5-.1 5-.7 7.6-.9 2.2-.2 4.5.1 6.7 0q6-.8 11.8-.7c6.8-.3 13.6-1.4 20.3-2.1q3.7-.1 7.6.1 3.7.2 7.6-.4" class="b"/><path d="M11.3 139.8c4.2-.6 8.4-2 12.6-2.9 2.7-.6 5.7-1.5 8.4-.5 4.2-1.8 6.4-1.7 10.2 1 1.4 1.1 3.2 2.2 5 2.2q3-1.7 5-4.4c1.4-1.7 3-3.6 5.1-4 3.9-.4 7.5 1.5 11 2.7q7 3 14.3 5.2c4.1 1.3 8.4 1.5 12.7 1.9 2.5.4 5 1.2 7.6 1.5q4.6.4 9.3.4l7.5-.1q3.4-1 6.8-1.7c2.2-.3 4.5.2 6.7.5 4.8-.8 9.6-.6 14.4-.4 6.5 0 13-1.2 19.4-2.1 4.4-.1 9 .5 13.5-.2" class="b"/><path d="M11.3 137.9q5.9-1 11.8-2.3c3-.7 6.2-1.4 9.2-.8 2.2-.8 4.5-2 6.8-1.3 2.8.8 4.8 3.3 7.6 4.1q1.4.5 2.5-.6 1.5-1.2 2.5-2.6c4.5-6.2 6.6-6.1 13.5-3.7 6.7 2.6 13.3 5.7 20.3 7.7 2.7.6 5.6.7 8.4 1.3 3 .4 6.2 1.2 9.3 1.1 5.6-.3 11.2-1 16.8-1 1.5-.3 2.9-1.2 4.3-1.6a13 13 0 0 1 8.4 0c.4 0 1.3.4 1.7.5l2.5-.2h5c4.5.3 9 1 13.6.4 4.5-.4 9-1.4 13.5-1.9 3.9 0 7.9.6 11.8 0" class="b"/><path d="M11.3 136c5.6-.5 11.2-2 16.8-2.8q2.2-.2 4.2.1c2-.4 3.9-1.6 6-1.5 3.8 0 6.3 3.9 10 4.3 3.7-1.7 4.8-6.6 8.5-8.3 4.2-1.4 9.5 1.5 13.5 3q5.8 2.7 11.8 5 2 .7 4.2 1.3 3.4.3 6.8.8c5.3 1 7.1 2 12.6.4q7-2 14.3-2.3c1.2 0 2.3-1 3.4-1.4q3.7-1.8 7.6-.7 2.2.6 4.2 1.5c2 .2 4 0 6 .3 3.9.3 7.8 1.3 11.7 1.3 5.4 0 10.8-1.2 16-2q3 .1 6 .4 3 .2 5.9-.4" class="b"/><path d="M11.3 134.3c5.6-.3 11.2-1.8 16.8-2.7q2.6-.2 5 .3c2-.6 4-1.5 6-1.4 2.5 0 4.6 1.7 6.7 3q1.7.2 3.4.6c1.1-1 2.5-2 3.4-3.2 1.3-2 2.7-4.3 5-5 6.6-1.5 18 6.2 24.5 8.4q2 .8 4.2 1.1 3.8-.1 7.6.2c2.2.2 4.5 1 6.7 1.5q1.8-.2 3.4-.8c5.1-2.1 10.5-4.1 16-4.4q1.4-.3 2.6-1 2-1 4.2-1c3.2-.2 6.3 1 9.3 2.3q2 .4 4.2.6c4.8.6 9.4 2.4 14.3 2.2 4.8-.2 9.6-1.3 14.3-2 2.3 0 4.5.8 6.8.8q1.6 0 3.4-.4c.3-.2 1.3-.2 1.7 0" class="b"/><path d="M11.3 132.8c6-.2 11.8-2 17.7-2.8 2-.3 4 .2 5.9.2 3-1.3 6.5-1.1 9.2.5q3 .4 6 1.4 1.2-1.2 2.5-2.3c1.4-1.9 2.7-4.4 5-5.3 4-1.3 8.2.7 11.8 2.1 4.7 1.7 8.7 5 13.5 6.4q2.5 1 5 .4c2.3-.4 4.6-1 6.8-.9s4.6.7 6.8 1l1.7.3q1.3-.3 2.5-1 6.9-3.4 14.3-4.6 3.3-1.5 6.8-1.2c3.2.1 6.3 1.3 9.3 2.3l5.9 1.3c4.4 1 8.8 2.8 13.5 2.4 4.2-.2 8.4-1.3 12.6-1.8 1.7 0 3.4.6 5 .9q3 .4 6-.5l1.7.7" class="b"/><path d="m11.3 130.7 5.9.2c4.7-1 9.5-2.4 14.3-2.9q2.6 0 5 .5 2.2-.5 4.3-.3c1.3.3 2.8.1 4.2.2 2 0 4 1 5.9 1.9.8-.7 1.9-1.7 2.5-2.6 1.3-1.9 2.8-4.1 5-4.8 4.1-1.4 8.2.7 11.9 2.1q3.5 1.6 6.7 3.6c1.4.7 2.8 1.8 4.3 2.2 1.3.3 2.8.9 4.2.9 2.5-.5 5-1.8 7.6-2.2 4.4-1 9 .4 13.5-.1 2-.4 3.9-1.6 5.9-2.2q3.3-1 6.7-2c4.4-1.3 9.2-.4 13.5.9l8.4 2.2 8.5 2c1.9.4 3.9 1 5.9.8 4 0 7.8-1.3 11.8-1.8 4.4.4 5.8 2.8 11 .7q1.2.8 2.5 1.2" class="b"/><path d="M11.3 128.7q3.8.1 7.5.5c4.5-1 9-2.5 13.5-3.2 2.8-.3 5.7.4 8.5.3 4.4-.2 7.1-.4 11 2.3 1.4-.8 2.3-2.7 3.3-4q1.6-2.2 4.2-3.3c3-1.1 6.4-.2 9.3 1 4 1.5 7.5 3.9 11 6.1 1.1.8 2.8.9 4.2 1.2 2.4.2 4.5-1.7 6.7-2.3 3.5-1.2 7.3-1.4 11-1.5 12.8-.4 14.8-5.4 29.5-2.1q5.5 1.4 11 2.9l12.6 2.3c2 .4 4 0 6-.2 2.3-.7 5-1.5 7.5-.8 3.3 1.2 5.7 2.3 9.3.7 1.2 0 2.2 1 3.4 1.2" class="b"/><path d="M11.3 126.9q4.2.2 8.4.6l11-3c3-1 6.1-.8 9.2-.8 5-.1 8.5.4 12.7 3.2 1-.4 1.8-2 2.5-2.9a12 12 0 0 1 5-4.3c6.5-2.3 14.4 3.5 19.5 7 1.4.8 3.4.9 5 .7 2-.7 3.8-2.3 6-2.8 3.7-1.1 7.8-1.3 11.7-1.7q5.5-.8 11-1.7 4.2-.5 8.4-.5c6.3.2 12.5 2.1 18.6 3.7q4.6 1 9.2 1.7l5.1.7q2.1.5 4.2.3 1.3-.1 2.6-.7 1.7-.5 3.3-.6c5 .5 7.2 3.8 12.7 1 1 .4 2.2 1.2 3.3 1.3" class="b"/><path d="m11.3 125.2 8.4.7 12.6-3.8q3.3-.8 6.8-.9 3.8-.3 7.6.5 2.3.7 4.2 2l3.4 1c2-2.6 4.1-6 7.6-7 6.4-1.5 12.8 3.5 17.7 7 1.4 1 3.4.8 5 .3 1.8-.7 3.3-2.2 5-2.7 4-1 8-.9 11.9-1.6 5-.7 10-1.7 15.2-1.6 2.5 0 5-.2 7.6.3q8 1.3 16 3.4 6.7 1.3 13.5 1.8 2 .4 4.2.7c.8.1 1.8-.5 2.5-.8q1.6-.6 3.4-.5c5.5 1.2 7.7 3.7 13.5.8q1.5 1 3.4 1.4" class="b"/><path d="M11.3 123.6q4.1.5 8.4.5l6.7-1.9q3.8-1.2 7.6-2.4 5-1.3 10.2-1.1c1.7 0 3.4.8 5 1.2 2 .4 4 1.6 6 2.5l.7-.1c2.1-2.9 4.7-6.1 8.5-6.5 6.2-.5 11.5 3.8 16 7.5 4.4.6 5.7-2.1 9.3-3.3 2.1-.5 4.5-.3 6.7-.5q4.2-.4 8.5-1 3.7-.6 7.5-.8 3.5.1 6.8 0 4.7 0 9.3 1c4 .6 7.8 1.8 11.8 2.6q4.2.6 8.4 1t8.5 1.1c2.9-1.6 5.3-1.4 8.4-.3 4.4 1.5 7.4 2 11.8-.2q1.6.8 3.4 1.3" class="b"/><path d="M11.3 121.8c2.7.3 5.6.9 8.4.3L28 120c3-1 6.1-2.2 9.3-2.8q4.1-1 8.4-.8c1.4.3 2.9 0 4.3.3 2.5.4 4.7 2.1 6.7 3.6 1-.3 1.8-1.8 2.5-2.6q1.8-2.1 4.3-3.3a11 11 0 0 1 7.5.3c4 1 7.2 4 10.2 6.7l2.5-.2c2.6-1 4.7-3.4 7.6-3.4q3.4.2 6.7 0c5.6-.5 11.3-1.6 16.9-1 5-.9 10.2 0 15.2 1 3 .6 6.1 1.6 9.3 2a149 149 0 0 1 15.1 1.8q1.3-.3 2.6-.8 2-.6 4.2-.2c5.7 1.3 10.3 3.6 16 .5l3.4 1.2" class="b"/><path d="M11.3 119.6c5.6 1.4 10.5 0 16-1.2 5.8-1.6 11.6-4 17.7-4.3 5.7-1.8 8.8 0 12.6 4.1l.9-.2c2.8-4.2 5.6-6.8 11-6.3 5.4.1 9.9 3.8 13.4 7.6l2.6-.3c1.1-.5 2.3-1.5 3.3-2.1 2-1.3 4.5-1 6.8-.7q3.7.3 7.6-.2 5-.5 10-.2c2.3-.3 4.6-.8 6.8-.6 5.5.2 10.7 1.8 16 2.7s10.8 1 16 1.6c2.5-.6 5.1-1.2 7.7-.8 6.3 1.3 11.3 3.7 17.7.6 1 0 2.3.7 3.4 1" class="b"/><path d="M11.3 117.3q4.1.8 8.4.5 4.6-.7 9.3-1.6c4.1-1.2 8.3-2.7 12.6-3.5 2-.2 4-1 6-1.5 5.2-1.2 7.9 2 10.9 5.6 4.7-7.8 10-9.6 18.5-6.3q3 1.3 5 3.4c1.2 1 2.2 2.6 3.5 3.5.7-.1 1.8-.2 2.5-.5q1.6-1.2 3.4-2c2.1-.8 4.5-.2 6.7 0q4.3.2 8.4 0l5.1.2a34 34 0 0 1 16 .2q5.5.9 11 1.9 2.5.4 5 .2l5.1.1q3.3-.6 6.8-.6 3.3-.3 6.7.8 5 1.5 10.1 1.2 1.8-.2 3.4-.8c.7-.2 1.7-.7 2.5-.6l2.6.8" class="b"/><path d="M11.3 115.2q5.4.8 11 .2 3.7-.4 7.5-1 5.9-1.8 11.8-3.2c8.4-2.8 11.4-4.2 16.9 4 2.7-3.7 5.5-9.3 11-8.6 2.5.2 5 1 7.5 1.4q5 .8 8.5 4.4 1.3 1.4 2.5 3c1.5 1 3-.5 4.2-1.2q1.6-.8 3.4-1c2.8 0 5.6.5 8.4.6l5 .4c4-.5 8-1.2 11.9-.8q7.2.9 14.3 1.9l5 .8 4.3-.2q4.6-1 9.3-.7 2.5-.1 5 0c3.4.7 6.7 1.7 10.2 1.8a19 19 0 0 0 6.7-.8q1.2-.4 2.5-.6l2.6.7" class="b"/><path d="M11.3 113.5q9.3.4 18.5-.8c3.1-.5 6.2-1.6 9.3-2.3 2.5-.6 5-1.7 7.6-2.3 1.9-.4 4-1 5.9-.3 2.7 1 4 4 5.9 6 2.3-3.8 4.5-10.2 10.1-9q3.4 1 6.8 2c2.4.7 5 .6 7.5.8 2.3.3 4.4 1.7 6 3.3 1 1 2 2.6 3.3 3.2 5.4-2.8 9.5-1.7 15.2-1.2q6.8-.7 13.5-.4 3.4.1 6.7.8 4.7.2 9.3.7 2.5-.3 5-.2l3.4-.3c3.7-.3 7.4 0 11 0 3.4 0 6.7 1.3 10.1 1.6q3.9.4 7.6-.3c1.4-.2 2.9-.8 4.2-1l2.6.5" class="b"/><path d="M11.3 112q6.3-.1 12.6-.7c3.7-.2 7.4-.1 11-1.1 5.4-1 10.4-4 16-4 3.2.3 5 3.4 6.7 5.9l.9-.5c3.8-8.3 5.4-10.6 14.3-6.3a16 16 0 0 0 6.8 1.6c3 0 6.4-1.1 9.2.4q1.6 1 3.4 1.7c2 .7 4 1.8 6 2.4l2.4-.2q3 .2 6 .5c3-.6 6.2-.4 9.2-.5q4.7-.2 9.3.7h5.9c2 .3 4-.3 5.9-.4q3-.2 5.9 0 5.1 0 10.1.3h4.2c4 .7 7.9 1.7 11.8 1.6a25 25 0 0 0 9.3-1.6l2.6.5" class="b"/><path d="M11.3 110.6q10-1.3 20.2-1.3 4.3-.4 8.4-1.8c3.7-1 9-3.3 12.7-1.7 2 1 3 3.4 5 4.3 3.4-7.2 5.3-11 13.5-6.5 2.4 1.1 5 2.5 7.6 2.6 3.4.3 6.8-1.5 10.1-.6q5.2.8 10.2 2.4l3.3 1.5q1.2.6 2.6.7l2.5.3 2.5-.4a69 69 0 0 1 12.7.3l3.3-.2h4.3q2.5-.5 5-.7 7.6.2 15.2.6 3 .1 5.9.1c4 .5 7.8 1.4 11.8 1.4a30 30 0 0 0 10.1-1.6l2.6.3" class="b"/><path d="m11.3 108.6 8.4-.7q2.5-.5 5-.5c3.7-.2 7.4.4 11-.1 7.4-.8 15.3-6.5 21 1.2 2-3.9 4.8-10 10.2-7.7 3.2 1 6.2 2.7 9.3 3.9 2.4.8 5 .2 7.6.7 5.8.8 11.8.4 17.7 1.1q2.7.5 5 1.5c1 .4 2.3 1 3.4 1q3-.3 6-.2 3.7.2 7.5-.2c3.4 0 6.8-.6 10.1-.8 5.7-.2 11.3.5 16.9.7h5c4 .5 7.9 1.4 11.9 1.4q3.7 0 7.6-.8c2-.4 3.8-1.2 5.9-.8" class="b"/><path d="M11.3 106.7q3 .1 5.9-.1 3.7-.8 7.6-1.2c4.1-.1 8.4.8 12.6.3q4.6-.6 9.3-1.7c3.8-.9 6.6-.6 9.3 2.7l2.5-4c.8-1.3 1.8-3 3.4-3.4 2.7-.6 5.2 1.5 7.6 2.5a29 29 0 0 0 9.2 3.2q8.5 1.4 16.9.8 3.7-.3 7.6-.6 3.4.1 6.7 1c5.6 1.3 11.3.6 16.9.2q8.5-.6 16.9 0 3.8.5 7.5.5 2.2-.2 4.3 0c3.6.4 7.3 1.2 11 1.2q4.1 0 8.4-.9c1.9-.4 3.9-1.2 5.9-.9" class="b"/><path d="M11.3 104.7q1.6.5 3.3.6 3.4-.6 6.8-1.3 5.4-.8 11 0c3 .2 6.2.4 9.2-.2 2.8-.4 5.6-1.3 8.5-1.3 2 0 3.7 1.2 5 2.6 1.9-2.3 2.8-6.2 6-7 2.4-.1 4.5 1.7 6.7 2.7q3.9 2.4 8.4 3.2c7.8 1 15.8 1.7 23.6.7q3.3-.7 6.8-.7c4.2.1 8.4.8 12.6.8 8.2 0 16.3-.8 24.5.1l7.5.3q2.2-.2 4.3 0c3.3.4 6.7 1.1 10 1.2q4.4 0 8.5-.9c2.2-.4 4.5-1.3 6.8-1.2" class="b"/><path d="M11.3 103c1.3.4 2.8 0 4.2-.3 3 0 6.2-.6 9.3-.7 4.4-.2 9 .5 13.4.6q4 0 7.6-.8c2.6-.5 5.6-.6 7.6 1.3h.9c2-3.1 4-7.7 8.4-5.3 2.8 1.3 5.5 3 8.4 4.1q2.5.7 5 .9c8 .7 15.9 2 23.7.8 7-1.3 14-.5 21-.4q6.8-.1 13.6-.4c3.9 0 7.8.6 11.8.7h8.4c3.6.4 7.3 1.2 11 1.2q4.6 0 9.2-1.2 3-.8 6-1.1" class="b"/><path d="M11.3 101.7c4.3-2.7 8.5-3.2 13.5-2 1.9.5 3.8 1.4 5.9 1.2q6.2.2 12.6 0c2 0 4-.4 5.9-.2 1.1 0 2.3.8 3.4.9 4.3-5.6 5-6.9 11.8-3.5q2.9 1.3 5.9 2.2 3.7.7 7.6 1 5.8 1.1 11.8 1.4 5.9.2 11.8-.8c6.7-1 13.5-.1 20.2-.3q5.5-.2 11-.5c4.5.2 9 .8 13.5.7h7.6q5.8 1 11.8 1.1c5.1 0 10-1.7 15.1-2.5" class="b"/><path d="m11.3 99.3.8-.2c4-3.8 8.5-3.7 13.5-2.4Q31 98 36.6 99c3 .8 6.1.4 9.2.5 4.6 0 4 1 7.6-2.3C55.8 95 58 94.8 61 96q3.3 1.2 6.8 2c4.6 1.3 9.5 1.8 14.3 2.8q6.7 1 13.5.1c3-.3 6.2-1 9.3-1 7.8 0 15.7.6 23.6-.3 5-.4 10 .8 15.2.6h5l4.2.4q4.2.8 8.5 1l4.2-.4q2.5-.1 5-.5 5.1-1.1 10.2-2.2" class="b"/><path d="M11.3 96.6q1.6 0 2.5-1.2a8 8 0 0 1 5.9-2.2q4.3.3 8.4 1.4c5.4.8 10.7 2.2 16 2.8 7 1.1 8.2-4.2 14.4-2.9 3.6 1 7.3 1.3 11 2.2 5.2 1.3 10.5 2.9 16 3 5.6 0 11.2-1.3 16.8-1.8 5.9-.1 11.8.8 17.7.5q4.6-.2 9.3-.6 5.4.5 11 .8c2.5.1 5-.4 7.6 0 3.9.4 7.8 1.6 11.8 1.9q4.7.2 9.2-1.4c4-.6 7.9-1.7 11.8-2.4" class="b"/><path d="M11.3 94h1.6c2.4-2.9 4.9-3.4 8.5-2.7q3 .4 5.9 1 3.3 1 6.7 1.4c4.2.6 8.5 1.3 12.7 1.2 2.8-.1 5.5-1.5 8.4-1.6q2.6.1 5 .5l6 .6q4.6.8 9.3 2.2 5.3 1.7 11 1.1 2.9-.5 5.8-1.1 3.3-.3 6.8-.4c2.8 0 5.6-.6 8.4-.3q9.3 1.3 18.5.4a15 15 0 0 1 4.3 0l5.9.4q2.5.3 5 .2 2.2-.2 4.2 0c4.9.4 9.5 2.4 14.4 2.5q5.6 0 11-2.4l10-2.1" class="b"/><path d="m11.3 91.4 1.6.4q1-.5 1.7-1.3c1.6-1.5 4-1.5 6-1.1l4.2.6c1.9.7 3.8 1.9 5.9 2.3 4.4 1 9 1 13.4.9 3.1 0 6.2-.7 9.3-.9q5.1.1 10.1.3c5.2.2 10.2 2 15.2 3q3.4.5 6.8-.2 3.7.3 7.6 0 5 0 10-.4c2.9-.1 5.7-1 8.5-.7q5 .6 10.1.5c1.7 0 3.4-.4 5-.4l4.3.3 8.4.5c2 0 4-.4 6 0 1.7.1 3.4 1 5 1.4 3.6 1 7.3 1.8 11 1.4 3.8-.2 7.5-1.6 11-3.2q4.1-1 8.4-1.7" class="b"/><path d="M11.3 89c.7.3 1.7.9 2.5 1 2.4-3.7 5.7-2.5 9.3-1.9 2 1 3.8 2.6 5.9 3.3 4 1.3 8.4.8 12.6.6l11-.8h11.8c4.5.1 9 1.3 13.5 2.1q2.5.4 5 .2 2.2.4 4.3.6 4.1.2 8.4 0 4.6 0 9.3-.3 4.6-.8 9.2-1.2l4.3.3q3.4 0 6.7-.2 4.3.4 8.5.5l5.9.2c1.6 0 3.4-.3 5 0 2 .2 4 1.5 6 2 3.4 1 7.2 1.7 10.9 1.3 4.1-.4 8.1-2 11.8-3.9q3.7-.5 7.6-1.4" class="b"/><path d="M11.3 87q1.3.7 2.5 1.7c2.3-3 4-3.4 7.6-2.5 2 1 3.8 2.8 5.9 3.7A21 21 0 0 0 37.4 91c6.4-.6 13-1.4 19.4-1.3 3.3 0 6.8-.4 10.1 0 3.7.2 7.3.9 11 1.3 1.3.3 2.9-.1 4.2.3C87 93 92.2 92.7 97.3 93c6 .2 11.8-1.1 17.7-1.7q5.9-.1 11.8 0c2.8.2 5.6 0 8.4.2q2.6.3 5 .2a17 17 0 0 1 4.3 0c1.4.3 2.8 1.3 4.2 1.8a27 27 0 0 0 20.2-.1q2.5-1.2 5.1-2.2l6.8-1.2" class="b"/><path d="m11.3 85.1 2.5 2.2c1-.5 1.6-1.8 2.5-2.4 3.7-2.4 6.9 2 10.1 3.3 3.4 1.5 7.3 1.5 11 1.2q9.7-1 19.4-1.2 7.2-.5 14.3 0 3.4.4 6.8.7 2.1-.1 4.2.5c4.6 1.5 9.5 1.7 14.3 2q4.3 0 8.4-.3c2.5-.2 5.1-.8 7.6-.7l15.2-.9q4.6-.5 9.3 0 3 .3 5.9 0c1.9-.1 3.4 1.1 5 1.8q3 1.4 6 2c5 1 10.4.4 15.1-1.5l6-2.4 5.8-1" class="b"/><path d="M11.3 83.4q1.3 1.2 2.5 2.7l.8-.3c4-6.5 7-1 11.8.7 4 1.5 8.5 1 12.7.5 5.9-.5 11.8-.1 17.7-.4q6.3-.5 12.7-.3c3.3 0 6.7.5 10 .5q4.3 1 8.5 2 3.7.5 7.6.9 5 .3 10.1-.2 5.1.2 10.1-.5l11-1.4q2.5-.6 5-.9 2.6 0 5.1.5 2.2.5 4.2.5c1 0 2.4-.3 3.4-.1a29 29 0 0 0 27 1.6l4.2-1.5q2.5-.5 5-.6" class="b"/><path d="m11.3 81.7 2.5 3.1.8-.3c3.8-8 6.6-.2 14.4.5q2.5.1 5 0 5.4 1.2 11 .8c4-.3 7.8-1 11.8-1q7-.5 14.3-.5 4.6 0 9.3.5 4.2 1 8.4 2 5.4 1.1 11 1.2 2.5 0 5 .4 3.5 0 6.8-.5 6.7-1 13.5-2.3c1.7-.3 3.4-1 5-1.3q2.6-.3 5.1.2c3 .5 6.2 1.4 9.3 1 3.2 1.5 6.5 3.2 10.1 3.8q3.8.5 7.6 0 3.4-.1 6.7-.7 1.8-.5 3.4-1.2l4.2-1.5q2.2 0 4.3-.6" class="b"/><path d="m11.3 79.5 2.5 3 .8-.5c2.6-5.2 5.4-2 9.3-.5q2.5 1 5 1 2.3 0 4.3.8 7 1.7 14.3 1c4.5-.2 9-1.1 13.5-1.4q8.5-1 16.9-.4c4.8.3 9.5 2.3 14.3 3q3.3.5 6.8.6c3 1 6.2.8 9.2.3q7.7-.9 15.2-2.7 2.6-.6 5-1.6a11 11 0 0 1 5.1 0q3.3.6 6.8 1 2.5.3 5 .5c2.9.9 5.5 2.7 8.5 3.2 2.4.6 5 .2 7.6 0q3-.4 5.9-.3c2.9.1 5.7-1 8.4-1.8 1.6-.7 3.5-.8 5-1.4" class="b"/><path d="m11.3 77.6 2.5 3c3-4.7 3.9-3.8 8.4-1.8q3 1.1 6 1.5l3.3 1Q38 83.3 45 83c8.7-.1 17.3-2.5 26.1-2.6q4.3-.1 8.5.4 5 .9 10 2.2 3.5.6 6.8 1l2.6.7c3.3.6 6.8 0 10-.5a143 143 0 0 0 15.3-2.9c2-1 4.3-2 6.7-1.7 2.8.5 5.6 1.3 8.4 1.5l4.3.3c.7 0 1.8 0 2.5.2 2.9.7 5.4 2.6 8.4 3 3.4.5 6.8-.9 10.1-.9 2.3 0 4.6.4 6.8.1q4.7-.8 9.3-2.7" class="b"/><path d="m11.3 76.4 1.6 2c1.1-.5 1.7-2 2.6-2.8 1.3-.8 2.9-.3 4.2.3l4.2 1.5q2.2.5 4.2 1.4 4.2 1.3 8.5 2c7.8 1.2 15.8.4 23.6-.9 7-1.2 14-1.9 21-.7 4.6.7 9 2 13.5 2.7q3.7 1.4 7.6 1c6.2-1 12.5-1.6 18.6-3l2.5-.5c1.8-1 3.8-2 6-1.8 2.7.4 5.5 1.3 8.3 1.5 2.8.4 5.7.2 8.5.4l4.2 1.1c2 1 4.4 2 6.8 1.7 3-.3 6-1.6 9.2-1.3 2 0 4 .5 6 .4q4.4-.4 8.4-2.7" class="b"/><path d="m11.3 76.2.8 1.1c1.7-3.2 2.8-5.4 6.8-3.6q2 1 4.2 1.5l3.3 1.4a53 53 0 0 0 22.8 2.8q6.4-.5 12.7-1.4a57 57 0 0 1 18.5-.8c4 .5 7.9 1.6 11.8 2.3 1.1 0 2.3.8 3.4 1q2.1.5 4.2.3c2.8-.2 5.6-1 8.4-1.2q5.1-.3 10.2-1.2 2.1-.3 4.2-.9a13 13 0 0 1 4.2-1.7c2.9-.3 5.6 1.2 8.4 1.4 3.7.5 7.4.3 11 .3q3 .5 5.9 1.4 3.6 1.7 7.6.6c2.7-.8 5.6-1.4 8.4-1q3 .5 6 .5 3.6-.6 6.7-2.9" class="b"/><path d="M11.3 75c1.2-2.6 2.6-5.1 5.9-3.7q4.5 1.8 9.2 3.8c6.8 2.3 14 2.7 21.1 2.4l14.3-1.2c2.6-.3 5.1-.9 7.6-1q5.1-.5 10.2 0 5.4.7 11 2c1.3.1 2.7.9 4.1 1q2.6.5 5.1 0 3.7-.4 7.6-1 5.5-.1 11-.8 1.6-.2 3.3-.8 2-1.2 4.2-1.7c3-.2 5.6 1.5 8.5 1.6 3.9.4 7.9 0 11.8 0 3 .2 6.3 1.3 9.3 2q3 .2 5.9-.8 3.7-1.1 7.5-.6c2.2.2 4.6 1 6.8.3 1.9-.5 3.4-2.2 5-3" class="b"/><path d="M11.3 69.3c3-2 6.4 1 9.2 2.1a43 43 0 0 0 10.2 3 73 73 0 0 0 21.9.6q4.6-.3 9.3-.6l5.9-.8c6.7-.9 13.6 0 20.2 1.3 2.3.2 4.5 1.3 6.8 1.4 3.6 0 7.3-.9 11-1.2 3.5-.3 7.3 0 10.9-.4q2.1-.2 4.2-.8c1.7-1 3.8-2 5.9-1.6 1.7.4 3.4 1.3 5 1.6 4.5.8 9-.3 13.5-.3 4.3 0 8.4 2 12.7 1.7 2.5-.3 5-1.3 7.6-1.4q2.5-.2 5 .4c1.7.2 3.6.8 5.1-.1 1.7-1.1 3.2-2.6 5-3.4" class="b"/><path d="M11.3 66.3c2.6 1 4.9 2.8 7.5 3.7 3.8 1.3 8 1.7 11.9 2.4 6.6 1.3 13.5 1 20.2.6l9.3-.4 7.6-1c6.1-.7 12.4 0 18.5 1l6 1.2c2.7.4 5.6-.3 8.3-.7q6-.8 11.8-.3 3.5.2 6.8-.3c1.1-.5 2.2-1.4 3.4-1.8 2.2-.8 4.6.4 6.7 1.2q2 .7 4.2.7c4.8 0 9.6-1.7 14.4-.7 3.3.4 6.7 1.2 10 1 2.9-.2 5.7-1.1 8.5-1.1 2.3 0 4.5.7 6.8.8 1.2-.1 2.4-1.2 3.3-2q1.8-1.7 4.3-2.4" class="b"/><path d="M11.3 66.1c5.5 4.5 10.4 3.3 16.8 3.9 4 .3 7.9 1.2 11.8 1.1q14 0 27.9-1.5c7.9-.7 15.8.5 23.6 2 3.6.3 7.3-1 11-1.1q4.5-.3 9.2.3 3 .2 5.9 0c1.5 0 2.7-1.5 4.2-2 2-.6 4.1.4 6 1.2a12 12 0 0 0 5 1.1c3.4 0 6.7-1 10.1-1.4l3.4.3c4.2.3 8.4.8 12.6.7 2.2-.2 4.5-.8 6.8-.8 1.6-.1 3.4.4 5 .3q2.4 0 4.3-1.3 2.4-2.2 5.9-3" class="b"/><path d="M11.3 67.2c4.8 3.7 10.6.7 16 .7 4 0 7.9 1 11.8 1 9.8 0 19.7-1.1 29.5-1.6q7.2-.1 14.3.9c2.8.3 5.6 1 8.4 1.3 3.4 0 6.8-1 10.2-1.1a37 37 0 0 1 7.6.3q3.7-.1 7.6.4c1.9-.7 3.6-2.6 5.9-2.2 1.7.3 3.4 1.3 5 2 4 1.7 8.6.1 12.7-.8 1.6-.5 3.4.1 5 .2l6.8.2q5.4 0 11-.5 4.1-.1 8.4-.7 2.3-.3 4.2-2 2.3-1.2 5-1.3" class="b"/><path d="M11.3 68c5.3 3 10.6-2 16-2q3 .1 5.9.2 3.7.5 7.6.5c6.7-.1 13.5-1 20.2-1.3q14.4-.9 28.7 1.8c4.2.4 8.4-1.1 12.6-.8q2.2 0 4.3.3 4.2-.6 8.4.3c.8.3 1.8-.3 2.5-.8q1.6-1.2 3.4-1.2c1.8 0 3.4 1.2 5 2q2.5 1.1 5.1 1.2c3.2-.1 6.2-1.3 9.3-2a81 81 0 0 0 18.5-.2c4.2-.5 8.6-.5 12.7-1.4 1.4-.3 2.8-1.3 4.2-1.9 1.6-.6 3.4-.4 5-.4" class="b"/><path d="M11.3 68c4.7 1.9 9.1-1.7 13.5-3.2q1.2-.4 2.5-.2h4.2l5.9-.2q3.3.2 6.8 0c4.2-.3 8.4-1 12.6-1.2a138 138 0 0 1 28.7 1.4q2 .4 4.2.7 3 0 5.9-.5 3.7-.3 7.6 0 3-.5 5.9-.5c1.7 0 3.4.5 5 .6q1.4-.2 2.6-.8 1.2-.9 2.5-1c1.9-.1 3.5 1.1 5 2q2.8 1.7 6 1.7c3.1-.2 6.2-1.4 9.2-2.3 2 0 4 .5 6 .5 4.2 0 8.4-.6 12.6-1 3.9-.5 8-.7 11.8-1.5 1.7-.4 3.3-1.4 5-1.8 2-.4 4 0 6 .1" class="b"/><path d="M11.3 67.2c5.2 1.7 9.7-2.5 14.3-4.2 1.6-.3 3.4.1 5 0l12.7-.8q6-.7 11.8-1.2 14.8-.7 29.5 1.4c1.7.2 3.4.8 5 .9q3.5-.1 6.8-.4 2.1-.1 4.3.2a20 20 0 0 1 11-.4q2-.5 4.1-.8l1.7-.7c2.3-.4 4.2 1.4 6 2.5q2.2 1.4 5 1.7c3.8 0 7.4-1.6 11-2.7 5.8 1.2 11.8.1 17.7-.6q5.4-.6 11-1.5 3.6-1.6 7.5-1.8 2.6.3 5 .7" class="b"/><path d="M11.3 65.8c5.6 2 10.3-2.5 15.1-4.6.8-.3 1.8 0 2.6 0h4.2c5.3-.5 10.7-1.4 16-1.8 12.4-.6 24.8-.7 37.1 1.4q1.6.3 3.4.5l5.9-.2q1.6 0 3.4.2 2.4-.8 5-1.1 2.7-.3 5 .2c1.7-.2 3.5-.8 5.1-.8 1.1 0 2.3-.5 3.4-.4 4.6 1.4 5.6 5.3 11.8 4.7 3.5-.4 6.8-1.9 10.1-2.9q3.3.5 6.8.5 4.6-.3 9.3-1.1 4.6-.7 9.2-1.2 2.2-.7 4.3-1.3 3-.7 5.9-.6 3 .4 5.9 1" class="b"/><path d="M11.3 64c8.4 3 13.3-5.4 18.5-4.7 5.7.4 11.2-1.4 16.9-1.7q3.3 0 6.7.2 6.3-.1 12.7-.4 10.6 0 21 1.6c2.5.7 5.1.3 7.6.3q1.8 0 3.4.3c.4 0 1.3-.3 1.7-.5a18 18 0 0 1 4.2-.9q1.7.1 3.4 0 3.3-1 6.7-.9c1.1 0 2.4-.2 3.4.4 4.5 2.6 5.8 5.7 11.8 4.7 3.8-.6 7.3-2.2 11-3.2 4.4 1 9 .4 13.5-.4l8.4-1.1q3.3-1 6.8-1.4 3-.4 5.9-.1l5.9 1" class="b"/><path d="M11.3 62c6.6 2.7 11.2-1.3 16.8-4q1.3-.5 2.5-.8 2.2.3 4.3 0c2.8 0 5.6-1 8.4-1.2q3.8-.4 7.6.5 2.5.3 5 .2c4.8-.2 9.6-.8 14.4-.8q9 0 17.7 1.4c1.9.4 4 0 5.9.1l2.5.2q1.3.5 2.6 0 2.3-.8 5-1.1 2.9-1.2 6-1.3h5c1.6.3 3 1.5 4.2 2.5 2.8 2.6 5.4 3.8 9.3 3.2 4.3-.6 8.4-2.5 12.6-3.4q5.6.6 11-.2 3.7-.6 7.6-1 3.3-.8 6.7-1.2 3.8-.2 7.6 0 3.3.5 6.8.9" class="b"/><path d="M11.3 59.8c8.4 3.2 12-1.4 19.4-3.9 2.1-.8 4.5-.4 6.7-.8 2.2-.3 4.5-1 6.8-.9 2.8 0 5.5 1.4 8.4 1.5 6.2.1 12.3-.9 18.5-1.1q9-.2 17.7 1c3.1 0 6.3-.4 9.3.6l4.2-1.2q2-1.1 4.3-1.7 3.7-.3 7.6 0c1.9.5 3.5 2 5 3.3 3.7 3.4 8 3 12.7 2q5.3-1.7 11-3 4.1.5 8.4 0 6.3-.9 12.6-1.6c5.6-.2 11.3.4 16.9.8" class="b"/><path d="M11.3 57.4c4 1.5 8.6 1.7 12.6 0 2.5-1 5-2.3 7.6-3q3.3-.8 6.8-1.2 2.5-.5 5-.5c2.6.1 5 1.5 7.6 1.9 4 .4 8-.1 11.8-.4a112 112 0 0 1 16.9-1q4.6.1 9.2.6 2.6-.4 5.1-.3 2.3.1 4.2.8c1.5.4 3-.6 4.2-1.4q2.4-1.6 5.1-1.6 3-.1 5.9.1c4.3 1.3 7 5.7 11.8 5.7 6.6.2 13-2.4 19.4-3.2q2.5-.1 5 0 6.4-.7 12.7-1.2 3.8 0 7.6.4l11 .4" class="b"/><path d="M11.3 54.8c4.6 1.5 9.7 1.9 14.3.3 3-1 6-2.3 9.3-2.8 3.6-.5 7.4-1.8 11-.3a18 18 0 0 0 5.8 1.4c6.2.1 12.4-.8 18.6-1.2q7.5-.4 15.2 0c2.5.2 5-.6 7.6-.6q2.1 0 4.2.5 1.2.4 2.5.7c1.8-1.2 3.7-2.7 5.9-3q2.1-.4 4.2-.3 1.7 0 3.4.3c2.4.8 4.5 2.5 6.7 3.5 4.2 2 9 1.3 13.5.8q6.3-1 12.7-2l15.2-.8c2.8 0 5.6.5 8.4.7q5.4.2 11 .2" class="b"/><path d="M11.3 52.3c4.9 1 10.1 1.8 15.1.7q5-1.4 10.2-2.3c3.4-.7 5.8-1.2 9.2.1q5 1.3 10.2 1 8-.6 16-1h13.5c2 .1 4-.5 5.9-.7q4.4-.8 8.4.8c1.2-.1 2.3-1.3 3.4-1.8q3.1-1.6 6.7-1.3c4-.3 7.3 2.3 11 3.2 4.6 1.2 9.6 1 14.3.6q6.3-.6 12.7-1.4l12.6-.4c3.1 0 6.2.7 9.3 1q5.4 0 11-.2" class="b"/><path d="M11.3 49.8c5 .6 10 1.5 15.1 1.1 3.7-.3 7.4-1.2 11-1.7 2-.3 4-.8 5.9-.5a49 49 0 0 0 8.4 1.2q5.6 0 11-.4 9.7-.5 19.4 0 3 .3 5.9 0c4.1-1 8.5-2 12.6-.4 1.8-.5 3.3-2 5-2.4 6-1.7 11.2 1 17 2q7.5 1 15.1.5 5.6-.2 11-.8 5.9-.2 11.8 0c3.4 0 6.8.7 10.1.9 3.4 0 6.8-.4 10.1-.3" class="b"/><path d="M11.3 47.4c5 0 10 1 15.1 1.3 4.3 0 8.5-.7 12.7-1.2 3.3-.8 6.7 0 10.1.2q6 .4 11.8 0c5.3-.1 10.7-.6 16 0q2.6 0 5 .4 3.5.9 6.8.1 4.2-1 8.5-1.4h2.5q1.3.5 2.5.2c2.2-.8 4.4-2.1 6.8-2.3 4.2-.4 8.4.6 12.6 1Q131 47 140.3 47c3.6 0 7.3-.5 11-.3q5-.1 10 .1c3.1.1 6.3.7 9.3.8l10.2-.3" class="b"/><path d="M11.3 45.2q4.6 1 9.2.2c3.4.5 6.8 1.2 10.2 1.1q5.9-.2 11.8-1.1 6.3.1 12.6.4c7 .1 14-1 21-.3q2.2.1 4.3.6c1.8.8 3.9 1.6 5.9 1.5 2.6-.2 5-1.4 7.6-1.8q4.6-.8 9.3-.4 2.4-1.1 5-1.9 4.3-1 8.5-.7c7 .3 14 1.5 21 1.7q4.3.1 8.5.1 5.9.6 11.8.3c4-.1 7.9.6 11.8.8 3.6.2 7.3-.3 11-.2" class="b"/><path d="M11.3 43.4a21 21 0 0 0 8.4.8c1.7 0 3.4-.9 5-.7q6.4 1.3 12.7.7c2.5-.1 5-.8 7.6-.7 4.5-.1 9 .3 13.5.2q3.7-.1 7.6-.5a71 71 0 0 0 9.3 1.1q1.7-.1 3.3 0c2.3.6 4.3 2.3 6.8 2.2 3.2-.1 6-2.2 9.2-2.6 3-.6 6.3 0 9.3-.3q1.3-.1 2.6-.7l3.3-1.2q4.6-1.4 9.3-1 11 .8 22 1.5c4.1.4 8.4 1.2 12.6 1.3l8.4-.2 6.8.7c3.9.3 7.9-.3 11.8 0" class="b"/><path d="M11.3 41.5q5.3 1.9 11 1l4.1-.9q1.7.2 3.4.5c3.9.6 8 .3 11.8-.1 2.8-.6 5.7-.5 8.4-.5 4.8.3 9.6.6 14.4-.1 3.6.7 7.2 1.6 11 1.7q3.2 1.1 6.7 1.7c1.6.3 3.4.7 5 0 3.4-1.2 6.5-3.3 10.2-3.4 2.8-.2 5.6.3 8.4.3 1.8.2 3.4-1.2 5-1.8q4.1-1.7 8.5-1.6c2.2 0 4.5.6 6.7.7q5.1.2 10.2.6c5 .4 10 1.8 15.1 2.4 4.2.4 8.5-.2 12.7-.2l8.4.8q4.3 0 8.5.3" class="b"/><path d="M11.3 39.6c5.7 2.2 11 1.9 16.8.3 1.7 0 3.4.6 5 .6q5.2.3 10.2-.5c4.5-.8 9-.4 13.5-.1q3.4 0 6.7-.2l7.6 1.5q2.7.3 5 1.4 3.5 1 6.8 1.1c2.8.5 5.3-.9 7.6-2.3s5-2.4 7.6-2.5q5.1 0 10.1.9c3.2-1.6 6.4-4 10.2-4 2 .1 4 .8 5.9 1.2 2.2.4 4.5.2 6.7.3q3.8.2 7.6 1c5 1 10 3.3 15.2 3 3.9-.3 7.8-1.1 11.8-1 2.2.4 4.5 1.3 6.7 1.7q4.3.5 8.5.9" class="b"/><path d="M11.3 37.7c7.6 2.7 11 1.9 18.5.4q6 1.3 11.8.4 3-.5 6-.8c3.3-.4 6.7 0 10 .2h5.1l8.4 1.7c1.7.4 3.4 1.3 5 1.6q4 .7 7.7.7c7.6 0 7.8-9 25.3-4 2.7-1.8 5.7-4.6 9.3-4.4 2 .3 3.9 1.5 5.9 2 2.2.4 4.5.3 6.7.6q4 .3 7.6 1.4c4.7 1.3 9.4 3.8 14.3 3 3.7-.3 7.3-1.6 11-1.8l3.4.7 5 2c2.8.7 5.7.8 8.5 1.3" class="b"/><path d="M11.3 36c7.9 2.2 10.5 2 18.5.4 5.8 1.6 11.9.4 17.7-.5a169 169 0 0 1 12.7.1q3.3.1 6.7 1l3.4.6q1.6.8 3.4 1.2a34 34 0 0 0 13.5.3q2.4-1.7 5-3a20 20 0 0 1 16.9-.2c.5-.1 1.3-.8 1.7-1.2q1.6-1.4 3.3-2.4c3.2-2.2 5.6-.3 8.5 1.2 4.2 1.8 9 1.3 13.5 2.7l7.5 2.4c2.7 1 5.6 1.7 8.5 1.2 3.4-.5 6.7-1.9 10-2.5q1.8-.3 3.5.4c2.4.5 4.4 2.1 6.7 3 2.7 1 5.6 1.2 8.4 1.5" class="b"/><path d="M11.3 34.5q3 .5 5.9 1a28 28 0 0 0 11-.7q1.2-.3 2.5.2 2 .5 4.2.6c4.2.1 8.5-.9 12.6-1.5a72 72 0 0 1 22 1.4l4.2 1.4q5.4 1 11 .4c2.9-.1 5-2.3 7.5-3.5 5.3-2.2 11.8-2.8 16.9.2 1-.6 1.8-1.8 2.5-2.5 1.4-1.2 3.2-2.5 5-2.5 2.4.5 4 2.5 6 3.6 2.5 1.4 5.6 1.7 8.4 2 4 .3 8 1.4 11.8 2.2 2.5.6 5 1.5 7.6 1.3 2.9-.1 5.7-1 8.4-1.8 1.6-.4 3.4-1 5-1q2.9 1 5.2 2.7c3.6 2.7 7.3 3.2 11.8 3.2" class="b"/><path d="M11.3 33c2.5.2 5 .8 7.5.8q4.3.1 8.5-.8 1.6.1 3.4.6 3.3.7 6.7.4c4.5-.3 9-1.8 13.5-2q6.4-.3 12.6.6c2.6.4 5.2.6 7.6 1.5 4.6 1.5 9.7 1.6 14.4.8 2.4-.5 4.3-2.5 6.7-3.3q4.9-1.7 10.1-1.8 1.8.1 3.4.7 1.7.8 3.4 1.7c1.6-2.2 3.7-5.3 6.7-5.2 1.7.5 3 2.1 4.2 3.3q3.2 3.1 7.6 3.6h3.4c1.9.7 3.9 1.6 5.9 1.7q2.6-.1 5-1.4c2.3.2 4.6.9 6.8 1a34 34 0 0 0 10.1-1.2c2-.3 4.2-1.3 6-.3 5.8 4.7 7.9 7.1 16 5.9" class="b"/><path d="M11.3 32.2c2.7-.2 5.6 0 8.4-.2 2.2 0 4.5-.6 6.7-.6q5 1.7 10.2 1.1c5-.4 10-2.1 15.1-2.6q5.6-.1 11 .6 3.9.3 7.6 1.3A34 34 0 0 0 84.6 33c1.8-.5 3.4-1.8 5-2.5q3-1.3 6-1.8c4.6-1 8.8-1.8 12.6 1.7.6-.3 1.4-1.3 1.7-1.9q1.3-1.8 3.4-3.1c4.6-1.6 5.9 10 16 8 5.6 2.8 8.5 4.2 14.3.6q2.4-1.6 5.1-2.6l2.5.2c3.4.3 6.8-.2 10.2-.6.7 0 1.8.3 2.5.6l2.5 2.3c5 4.8 7.8 5.2 14.3 3.5" class="b"/><path d="M11.3 31.2c4.4-.4 9-.4 13.5-1q2.9.6 5.9.8 3.4-.1 6.7-.5 3.8-.4 7.6-1.2c2.2-.5 4.5-1.3 6.7-1.6 6-.3 12 .8 17.7 1.7A37 37 0 0 0 83.9 31c1.7-.4 3.4-1.6 5-2.3q3-1.3 6-1.7c4.5-.8 8.8-2.3 12.6 1.5h.8c1.3-1.6 2.7-5.1 5-5.1 2 .8 3 3 4.3 4.6 1.6 2.3 3.9 4.6 6.8 5.2q1.7.1 3.3-.2 1.5-.5 2.6.5c3.3 2 7.1 3.2 11 1.7 2.5-1 5-2.7 7.5-3.7 4.8-2 10.2-2.1 15.2-1.1 6.7 6.5 7.8 7.4 16.9 4.4" class="b"/><path d="M11.3 29.7q5.9-.2 11.8-.8 3 .3 5.9.3 3-.1 5.9-.7 3-.3 5.9-.5a24 24 0 0 0 5-.7q3-1.2 6-1.8c3-.5 6.2.1 9.2.5q5.6.6 11 2 6.2 1.6 12.6.6 3-1.2 6-2.5 3.1-1 6.7-1.4c4.5-1 6.7-.7 10 2.7 1.2-2 2-4.9 4.3-5.7 1.6.1 2.6 2.1 3.4 3.3 1 1.6 2 3.6 3.3 5q4.5 4.6 10.2 1.7c1.1.3 2.2 1.2 3.3 1.7q2.8 1.4 6 1.4c4.1-.2 7.8-2.7 11.7-4a34 34 0 0 1 14.4-1.6c7.4 7 7.8 6.1 16.8 3" class="b"/><path d="M11.3 27.9q5.4-.2 11-.5H28c2.5-.3 5-1.1 7.6-1.3q3.8-.1 7.6-.2 2.3-.2 4.2-1.3 2-1 4.2-1.5c2.5-.4 5.1 0 7.6.3q4.7.4 9.3 1.5 3.3.8 6.8 1.5 4.1.6 8.4.1c2 0 4-1 5.9-1.8q3.3-1.2 6.7-1.7c4.7-1 6.6-1 10.2 2.5 1-1.8 1.8-5 4.2-5.4 1.1.4 2 1.8 2.5 2.8q1.5 3 3.4 5.9a9 9 0 0 0 5.9 3.4c2 .1 4.2-.8 5.9-1.9q1 0 1.7.6l2.5 1.2c3.8 1.9 8 .5 11.8-.9Q154 28 164 28c2.7 2 5.5 5.2 9.3 4.3 2.6-.6 5-2.2 7.6-2.9" class="b"/><path d="M11.3 25.7c6.4 0 13 .5 19.4-1q2.8-.8 5.9-.8c2.4 0 5 .5 7.5.1 1.5-.3 2.9-1.4 4.3-2 3.7-2 7-1.1 11-1 5.2-.2 10.1 1.9 15.1 3.1q3.7.7 7.6.4c5.5-.2 10.6-3 16-3.5 3.7-.6 5 .3 7.6 2.7 1-1.6 1.7-4 3.4-5h.8c1.2.6 2 2.4 2.5 3.5 1 2 2 4.4 3.4 6.2a8 8 0 0 0 7.6 2.8c2.2-.4 4-1.9 5.9-3 4.3 2.4 7 3.3 11.8 1.7q4.9-1.6 10.1-2.1 6.3-.8 12.7-1.1c2 1 3.7 2.8 5.9 3.4 4 1.1 7.3-2.2 11-3.2" class="b"/><path d="M11.3 23.2q4.1.4 8.4.7 6-.1 11.8-1.4c3.9-1.1 7.9.2 11.8-.2 1.5-.3 3-1.3 4.2-2 3.5-2.2 6.3-1.8 10.1-1.7 4.3-.7 8.6.4 12.7 1.7q3 1 5.9 2 2 .3 4.2.2c5.2 0 10.1-2 15.2-2.7 4-.9 6.4-1.2 9.3 2.2.9-1.6 1.6-4 3.3-5l.9.2c3.7 3.5 3.6 11.2 9.3 12.7q4.7 1 8.4-1.9c1.1-.6 2-2.1 3.4-2.3 4.7 2.5 6.8 2.3 11.8.6 2.4-.8 5-.7 7.6-.7q7 .2 14.3-.5c2 .8 3.7 2.4 5.9 2.9 4 1 7.3-2.4 11-3.4" class="b"/><path d="M11.3 20.7q4.1.8 8.4 1.2 2.5 0 5-.4c3.1-.2 6.2-.9 9.3-1 2.5-.2 5.1.2 7.6.2l2.5-.7 2.6-1.5a14 14 0 0 1 8.4-2.1c1.4 0 2.8-.6 4.2-.6 3.4.1 6.8 1 10.1 1.6 3 .6 5.6 2.4 8.5 3q3.7.1 7.6-.4 3.3-.6 6.7-1.3c2.5-.4 5-1.1 7.6-1 1.7 0 3.1 1.2 4.2 2.3 1-1.4 1.7-3.7 3.4-4.5l.8.2c3.1 3.3 3.5 8.5 6.8 11.7 2 1.8 5.1 1.4 7.6 1 3-1 5.3-3.6 7.6-5.7 1.4 0 2.8 1 4.2 1.1 4 .5 7.7-2.6 11.8-1.7 2.8.4 5.6 1.3 8.4 1.5q4.6.2 9.3-.4c2 .7 3.8 2.1 5.9 2.5 4 1 7.4-2 11-3.2" class="b"/><path d="M11.3 18.3q4.1 1 8.4 1.6c6.5-.2 13-1.3 19.4-1 1.7.1 3.4-.7 5-1 2.6-1.6 5.4-3.3 8.5-3.5q2.1-.1 4.2-.7a13 13 0 0 1 4.2.2q3 .6 6 1c2.1.4 4.5.6 6.7 1.4q2.8 1.2 5.9 2 3.4 0 6.7-.3c2.5-.3 5-1 7.6-1.3 2.2-.2 4.6-1 6.8-.3.8.3 1.6 1.1 2.5 1.3 1.2-1 1.8-3 3.4-3.7l.8.2c3.1 3 3.5 8.3 6.7 11.4 2.1 1.9 5.2 1.3 7.6.7 3.5-1.2 5.9-4.2 8.5-6.6 1.3-.4 2.8.4 4.2.4 6.4-.5 7-3.8 14.3-.8 5.3 2.2 9.5 2.8 15.2 2 1.7.4 3.3 1.4 5 1.8 4.2 1.4 8-1.1 11.9-2.4" class="b"/><path d="M11.3 16q4.1 1.1 8.4 1.8l12.6-.3q3-.1 6-.2l5.8-1.5c1.9-1.1 3.8-2.3 6-2.8 1.6-.5 3.4-.4 5-1.1 3.4-1 6.8 1 10.1 1.3 2.8.5 5.7.2 8.4.8 2 .5 4 1.4 6 1.8q2 .7 4.2.5c3.4 0 6.7-.8 10-1 2.6-.5 5.4-1.2 7.7.3 1-.2 1.7-1.2 2.5-1.7q.8-1 1.7-1.4l.8.1c4.3 3.5 4.6 13.3 11.8 11.9 3.8-.6 6.7-3.2 9.3-5.7 1-.8 2-2.2 3.4-2 1.6-.1 3.5 0 5-.5 3.4-1 6.6-3 10.2-1.4 6.5 3 10 5.6 17.7 4.3 7.7 2.9 9.2 2.2 16.8-.4" class="b"/><path d="M11.3 13.8q4.5 1.4 9.2 2 4.6.3 9.3.2l6-.2q2.9-.5 5.8-1.4 1.3-.3 2.5-.7 2-1.1 4.3-2a21 21 0 0 1 4.2-1q1.2-.5 2.5-.8c2-.3 4 .6 6 1.3 4 1.5 8.3 1 12.6.9q2 .2 4.2.9 2.5.5 5 1.3c3.4.6 6.8-.1 10.2-.2 2.4-.7 5.1-1.3 7.6-.3q1.5-1.5 3.3-2.3 1.3-.9 2.6 0c4.1 4.5 5.3 13.1 13.4 9.4q3-1.3 5.1-3.5c1.3-1 2.5-2.6 4.2-2.7 2.2-.5 4.6-.6 6.8-1.4 2.5-.7 4.9-2.6 7.6-2.4 2.8.4 5.2 2.3 7.6 3.7a18 18 0 0 0 11 2.7c.7 0 1.7-.3 2.4.1a20 20 0 0 0 16-1" class="b"/><path d="M11.3 11.8a61 61 0 0 0 16 2.5q6 .3 11.8-1.1l3.3-1q1.4 0 2.6-.7 2-1.1 4.2-1.7 1.6-.5 3.4-.9c5.5-2.7 7.6 5 21 1.9 3.2-.7 6.3.6 9.3 1.3q2.1.8 4.2.8l4.3-.1q2.5-.6 5-1l2.6.1c1.4-.4 2.7-1.6 4.2-2 2.3-1 3.8.8 5 2.5s2.6 3.7 4.3 5c4.3 3.2 9.1-1.1 12.6-3.7 2.6 0 5.1-1 7.6-1.7 3-.5 5.7-2.2 8.4-3.4 3-1.4 6 .7 8.5 2.4 3 2.1 6.3 4.2 10 4.4 1.4.1 3-.2 4.3 0 6 2 11 1 16.9-1.2" class="b"/></svg>