<svg xmlns="http://www.w3.org/2000/svg" id="a" width="1920" height="2400" viewBox="0 0 192 240"><defs><style>.b{fill:none;stroke:#fff;stroke-miterlimit:10;stroke-width:.3px}</style></defs><path d="M0 0h192v240H0z" style="stroke-width:0"/><path d="M8.5 217.3q3.5 1.7 7 3.3c3.4 1.9 7.3 3.3 11.3 2.5 2.6-.5 5.2-1.5 7.8-1.5 5-.2 10 1.2 14.8.2 2.7-.5 5.2-2 7.9-2.5 4-1 8.2-1.6 12.2-3 3.8-1.2 7.3-3.7 11.3-4.6 2.8-.7 5.8-.4 8.7-.4 5-.3 10-.1 14.8-1.6q3.4-1.2 7-2.2c5.4-1 10 2.8 14.7 5q2.2 1 4.4 1.7 2.2.3 4.3 1a41 41 0 0 1 7 2.7c10.3 5.3 9 2.8 19.2 2.9 3.2.2 6.3 1.6 9.5 2.1 4.4.8 8.8 1 13.1 2" class="b"/><path d="M8.5 213.4q3.4 1.9 7 3.6a18 18 0 0 0 7.8 2.6c3.3.1 6.4-1.5 9.6-2 4.9-1 9.9.2 14.8.4 2.7.1 5.2-1 7.8-1.6q5.3-1 10.5-2.6c5-1.7 9.4-5 14.8-5.3 2.9-.3 5.8.2 8.7.2 1.7 0 3.5-.5 5.2-.7q4.4-.5 8.7-1.2c5.7-1 10-3.1 15.7-.7 3.2 1.2 6.3 2.9 9.6 4q2.5 1 5.2 1.4c4 1.3 7.5 3.8 11.3 5.5q3.8 1.8 7.8 1c7.4-2 9.3-2 16.6.5 4.5 1.4 9.4 1.9 14 3.4" class="b"/><path d="M8.5 209.1q3.4 2.1 7 4c2.8 1.6 6.1 3.2 9.5 2.8 3.3-.4 6.4-2 9.6-2.5a27 27 0 0 1 7-.4c2.6.2 5.2.8 7.8.8 2 0 4.1-.7 6.1-1q4.9-.6 9.6-2.2c4.7-1.7 8.8-5.3 14-5.4 3.4-.3 7 .6 10.4.4 2.6-.2 5.2-1.2 7.8-1.3 3.8-.3 7.6-.1 11.3-.4q2.2-.2 4.4-.5 2.7-.1 5.2.6c5 1.4 9.6 4.1 14.8 5 4 1.2 7.5 4 11.3 5.7 2.7 1.4 6 1.8 8.7.7 7-3 9.5-3.7 16.6-.5 4.4 2 9.4 2 14 3.4" class="b"/><path d="M8.5 204q3.4 2.2 7 4.3a20 20 0 0 0 7.8 3.6c3.6.6 7-1.2 10.5-2q6-1.6 12.2-.8 2.5.3 5.2.2l3.4-.6c3.5-.3 7.2-.3 10.5-1.5 4.7-1.6 8.8-5.2 14-5.3 3.4-.2 7 .5 10.4.2 2.6-.4 5.2-1.4 7.8-1.3 3.8 0 7.6 1.1 11.3 1.3 2.6.1 5.3-.7 7.9-.1 4.6.8 8.7 3.4 13 4.8 1.7.6 3.6.7 5.3 1.5 3.2 1.3 6.2 3.4 9.5 4.6 5.6 2.1 9-.7 14-2.6 5.2-2 9.2 1.1 13.9 3 3.6 1.1 7.6.8 11.3 1.8" class="b"/><path d="M8.5 198.6q3.6 2 7 4.3c3.7 3 8 6.1 13 5.1 5.8-1 11.5-3.4 17.4-3.1l5.3-.1q2-.4 4.3-.4c5.5.3 9.8.4 14.8-2.3a31 31 0 0 1 16.5-4c3 .1 5.8-.9 8.8-1 4 .1 8 1.7 12.1 2.2 3 .5 6-.7 8.8.2 4.4 1.2 8 4.2 12.1 6.2 1.6.8 3.6 1 5.3 1.5 10 3.3 12.3 5 22.6.3 2.8-1 6-1.1 8.7 0 2.7.9 5.1 2.5 7.9 3.2 3.4.9 7 .8 10.4 1.9" class="b"/><path d="M8.5 194q3.7 1.5 7 4c4.2 3.4 8.8 7.3 14.8 6.4 3.5-.3 7-1.7 10.4-2.5q3.8-.8 7.8-.7c2.3 0 4.7-.4 7-.2 7.6 1.2 10.7.7 17.4-3a39 39 0 0 1 15.7-3.7c2.6-.2 5.2-.8 7.8-.4 4.1.6 8 2.3 12.2 2.6q2.2 0 4.4-.3 3.1.2 6 1.8c4.6 2.3 8.1 6.7 13.1 8.1 5 1.5 10.5 2.5 15.7 1 8.4-2.6 12-5 20.9-1.2 4.8 1.8 10.2 1.4 14.8 4" class="b"/><path d="M8.5 190.4c8.6 2.4 12.8 11 22.6 10.1 3.3 0 6.5-1.2 9.6-2q4.3-.8 8.7-.6 2.2 0 4.4.2 3 .4 6 1c5.5.7 10.1-2.6 14.9-4.6a33 33 0 0 1 14.8-2.8c2.6 0 5.3-.2 7.8.4 3.8.7 7.5 2 11.3 2.2l4.4-.2q3.7.1 7 2c4.5 2.6 8 7 13 8.7 10.4 3.6 14.1-.9 23.5-2.4 4.7-.8 9.3.4 14 1 4.6.2 9 .3 13 3" class="b"/><path d="M8.5 187.8c3.9.6 7.1 3 10.5 5 5.1 3.2 11.4 3.9 17.4 2.6 4.2-1 8.7-1.5 13-.7q2.7.2 5.2.7c3.1.8 6.4 1.7 9.6.9 3.4-.8 6.4-3 9.6-4.3a27 27 0 0 1 15.7-1.6c2.6.2 5.3.2 7.8.8 3.7.7 7.5 1.7 11.3 1.8l5.3-.1q3 0 6 1.3c3.5 1.5 6.5 4 9.6 6.1q2.9 1.7 6.1 3c9 3.2 12.7-1 21-1.8 4.2-.5 8.6 0 13-.3 5-.6 9.2-1.7 13.9 1" class="b"/><path d="M8.5 185.2c4 .6 7.6 2.9 11.3 4.3 4.4 1.8 9.3 1.5 14 1.3 2.6-.3 5.2-1 7.8-1a31 31 0 0 1 9.6 1.2c2.6.4 5.2 1.6 7.8 2.3 8.7 2.2 12.6-5.8 22.7-5.3 3.2 0 6.4 1 9.5 1.4 4.8 0 9.3 1.5 14 2.2 4.5 1 9.3.2 13.9 1.1 3.8.8 7.2 3 10.4 4.9 4.7 2.4 9.5 5.4 14.8 5.4 3.6 0 7-2 10.5-2.4 4.3-.7 8.7-.3 13-.7 5.3-.2 10.4-3.3 15.7-1.7" class="b"/><path d="M8.5 182.6c4.2.5 8 2.7 12.2 3.5q4.7.9 9.6.4 5.2-.2 10.4-.7a60.4 60.4 0 0 1 17.4 4c5.3 2 9.1.6 14-1.5q5-1.8 10.4-1.7l7.9.3q3.5-.3 7 .4c3.8.9 7.4 2.6 11.2 3.7q4.3 1.1 8.7 1c5.5.1 10.7 2 15.7 4 2.3 1 4.6 2.4 7 3.3 3 1.3 6.5 1.7 9.6.6 3.8-1.6 8-2.6 12.2-2.2q3.8.6 7.8.6c4.8 0 9-3.1 14-3.1" class="b"/><path d="M8.5 180.5c4.4.3 8.6 2.1 13 2.5 3 .3 5.9 0 8.8-.1h6q6.7-.1 13.1 1.7c5.2 1.2 10.3 3.5 15.7 3.3 3 0 5.8-1 8.7-1.4 4-.5 8.2-.7 12.2-1.9 8.7-2.5 11-3.3 19.1 1.7 5.6 3.7 9.9 5 16.6 4.9 3.7 0 7.6-.4 11.3.6 5.4 1.6 10.7 6.3 16.5 4.2 2.3-.9 4.5-2.2 7-2.6 5.1-1.1 9.8 2.1 14.8 2.4 4.2 0 8-2.2 12.2-2.7" class="b"/><path d="M8.5 178.5c4.4.2 8.7 1.4 13 1.5q4.9-.2 9.6-.2 5.3.4 10.5 1.2c4.7.6 9.3 2 14 2.8q8.2 1.2 16.5 1c11 .8 11.1-1.2 20-6.4 7-3.7 12 1 17.4 5.2 1.5 1.1 3.5 2 5.2 2.8a20 20 0 0 0 9.6 2.1c2.9 0 5.8-1 8.7-1 3.6.4 7 2.2 10.5 3.1 7.7 2.2 10.1-5.5 18.2-3.2 2.1.7 4.1 2 6.1 3 4.9 2.6 10.5 1.1 15.7.4" class="b"/><path d="M8.5 176.8q4.8.2 9.6.4 5.2-.1 10.4-.4c4.7-.2 9.3 1.5 14 2.2l7 1.2q2.5.6 5.1 1 4.5 0 8.7-.2 6.3.3 12.2 1.6c8.4 2.2 12.3-6 18.3-9.8 5.8-4.1 10-2 14.8 2 1.6 1.4 3.6 2.4 5.2 3.6q3 2.4 6.1 4.5c4.4 2.7 7.6 2 12.2.7q3.5-.6 7 .1c8.3 1.6 8.5 1.3 15.7-2.8a9 9 0 0 1 9.5 1 23 23 0 0 0 19.2 5.5" class="b"/><path d="M8.5 175.4c4-.1 8.2 0 12.2-.7 4.6-.8 9.3-1.8 14-.4q6.4 1.6 13 2.6c2.3.3 4.6 1 7 1.2s5.2-.3 7.8-.3q3.5 0 7 .6c2.9.3 5.7 1.3 8.6 1.8 6.4.7 10-5.5 14-9.3 4.6-4.5 9-9.3 15.7-5.1 2.3 1.5 5 2.8 7 4.7 3.8 3.6 7.2 9.3 13 9.4 2.3 0 4.6-1.1 7-1.3 4.8-.7 10 1 14.7-1 2.1-.9 4-2.4 6.1-3.2 5.8-2.5 9.7 2.7 14 5.6 4 2.9 9.1 3.6 13.9 2.9" class="b"/><path d="M8.5 174.4c3.5-.5 7-.7 10.5-1.6 4.2-.9 8.6-2.3 13-1.6 3.8.8 7.5 2.1 11.3 2.8q3.5.4 7 1.2c1.7.3 3.5.9 5.2.8 3.2 0 6.4-.7 9.6-.7s6.5-.1 9.6.6c3.4 1.1 7.1 2 10.4 0 3.8-2.5 6.6-6.3 9.6-9.5 2.3-2.6 4.7-5.4 7.8-6.8 3.5-1.5 7.4.2 10.5 1.9 3.6 2.6 6.2 6.4 9.6 9.3 5.5 5 8.5 2.2 14.8 2.6 4.3.3 9 1.3 13-.6q2.6-1.2 5.3-2.3c3.5-1.4 6.9 0 9.5 2.4 6 5.3 10 8.5 18.3 6.2" class="b"/><path d="M8.5 173.6c3.2-.9 6.5-1.4 9.6-2.4a31 31 0 0 1 13-1.6c4.2.8 8 2.6 12.2 3.4q3.5.5 7 1.1c1.7.4 3.5 1 5.2.9 4.4-.3 8.7-1.6 13-1.9q2.7-.3 5.3-.2 3 .6 6 1.4c4.3.7 7.8-1.4 10.5-4.4 3.7-3.7 6.6-8.2 10.5-11.7 4.6-4.3 10.9-3.8 15.7 0 5.2 4 9.3 9.7 16.5 9.7 9.4 1.4 12.2 3.3 21.8-.3q6-1.8 10.4 2.5c6.1 5.2 9.6 9.5 18.3 6.2" class="b"/><path d="M8.5 172.7q3.9-1.3 7.8-2.5c4.2-1.3 8.7-2.5 13.1-1.8 3.3.4 6.4 1.8 9.6 2.8q3.8 1.2 7.8 1.6 3.5.4 7 1.2c3.5.3 7-.5 10.4-1.1q4.8-1 9.6-1.4 3 .3 6.1.8c2.7.2 5.6-.2 7.8-1.9 4-3 7-7.4 10.5-11 5.1-5.6 10.8-7.8 18.3-5.5 4.5 1.5 8 5 12.2 7.1q3 1.4 6 2.4 3.9 1.4 7.9 2c3.8.5 7.6-.3 11.3-.8 3.7-.8 7.5-.5 10.5 2 6.5 5.2 9.8 11 19.1 6.9" class="b"/><path d="m8.5 171.4 7.8-2.7c4.2-1.6 8.7-2.6 13.1-1.6 4.7 1 9.1 3.4 14 4q5.2.5 10.4 1.4 4.3.4 8.7 0c4-.4 8.1-1.1 12.2-1.3 6.3.2 11.2-.4 15.7-5.3 5.4-5.8 10.9-12.6 19.1-14 2.9-.4 5.8-1.2 8.7-1 4.7.6 8.2 4 12.2 6.2 4.2 2.4 9 4.3 14 4 2.5 0 5.2-.8 7.8-.5 3.9-.1 8-.5 11.3 2 7 5 10.3 11.8 20 7.2" class="b"/><path d="M8.5 169.3c4.2-1 8.1-2.7 12.2-4.1q5.1-1.6 10.4-.1c6.4 2.1 9.6 4 16.6 3.6 2.6 0 5.2.6 7.8 1l8.7 1q4.8.3 9.6-.1c5-.2 10.1-1.3 14-4.7 5-4.6 9.3-10.5 15.6-13.6q3.8-1.8 7.8-2.8c2.3-.6 4.6-1.5 7-1.5 3.6 0 6.7 2.3 9.6 4.2 4.3 3 9.5 5.2 14.8 4.4 2.3-.2 4.7-.9 7-1.1 1.4-.2 3 .2 4.3.3 3 0 6.1.3 8.7 2 7.6 4.7 10.9 12.2 21 6.9" class="b"/><path d="M8.5 167.2c6.7-.2 11.6-6.3 18.3-6.6 5-.3 9.2 3 14 4 3.3.9 6.9-.1 10.4.2 4.5.3 8.7 2.3 13 3.7q3.3 1.3 7 1.3a34 34 0 0 0 12.2-3.3c5.5-2.5 9.2-7.7 13.9-11.3q5.5-4.5 12.2-6.9c2.2-.8 4.5-1.8 7-2 3.5-.2 6.7 1.6 9.5 3.4 8.7 5.6 12 3.2 21 .7q1.6-.5 3.4-.4 1.8.3 3.5.7 3.1.7 6 1.6c4.2 1.7 7.5 4.8 11.4 6.8 3.7 2.4 8.5 1.6 12.2-.4" class="b"/><path d="M8.5 164.6c7.1.2 11.2-7.8 18.3-8.2 5.4-.3 9.6 4 14.8 5 2 .5 4 0 6-.2 6.3-1.1 8.8.3 14 3.4 8.4 5 10.8 3.3 19.2-.2q4.5-1.8 8.7-4.3c4.8-3.5 9.5-7.4 14.8-10.3q3-1.7 6-3a12 12 0 0 1 6.1-1.4c3.8.3 7 2.6 10.5 4 6.7 3.1 10.6-.8 16.5-3.2 5-1.9 7.7-.8 12.2 1.3 5.9 2.4 11.2 6.2 17.4 7.6 3.5.8 7.2 0 10.5-1.3" class="b"/><path d="M8.5 161c3.4 0 6.2-2.4 8.7-4.4 6.3-5.2 10.5-5.2 17.4-1.1 6.4 3.9 7.6 4.3 14.8 2.5 3.8-1 6.3-.3 9.6 1.6 4 2.2 8.4 5.5 13 4 2.7-1 5.3-2.6 7.9-3.7 3-1.4 6.5-1.8 9.6-3 5.1-2.2 9.9-5.3 14.8-8 11.2-6.5 10.6-4.2 21.8-.6 5.8 1.3 9.3-2.3 13.9-5 10.4-6.3 17.8 7 27.8 8 5.2.7 10.6 1.1 15.7-.5" class="b"/><path d="M8.5 156.5c6.4-1.6 11-10 18.3-7.4q4 1.6 7.8 4c3.3 2 7.2 4.8 11.3 3.2 2.6-.7 5.2-1.9 7.9-2 5.4.6 10 5 15.7 4.3 3.8-.6 6.8-3.5 10.4-4.8 3.3-1.4 7-.8 10.5-1.2a91 91 0 0 0 17.4-6.8c3.2-1.6 6-2.3 9.5-1 6.2 2.1 9.9 3.6 15.7-.5 2.5-1.8 4.9-4 7.8-5.2 3.4-1.3 6.8.4 9.6 2 5 2.6 8.6 7.3 14 9 2.8.8 5.8 0 8.7 0 3.4-.1 7 0 10.4-.8" class="b"/><path d="M8.5 151.2c4-1.8 7-5.4 11.3-6.7 3.8-1 7.4 1.3 10.5 3.2q2.2 1.2 4.3 2.3c2.2 1.3 4.5 2.8 7 3.3 1.7.3 3.6-.3 5.2-1 2.8-1 5.7-2.4 8.7-1.8 6.5 1.2 11.9 4.1 18.3.3 3.2-1.8 6.6-3.9 10.4-3.9l6.1.3q4.5-.5 8.7-1.2c4.4-.5 8.7-2.2 13.1-2.8 2.7-.2 5.3 1 7.8 1.7 7.7 2.7 11.8-2.3 17.4-6.5 4.4-3.1 8-1.8 12.2 1q2.3 1.1 4.4 2.5c3.5 2.6 6.9 5.9 11.3 6.7 2.6.5 5.3-.3 7.8-.3 3.5-.2 7 0 10.5-.5" class="b"/><path d="M8.5 145.6c7.8-6.2 11.2-9 20-2.3a21 21 0 0 0 6.1 3c2.7 1 5.7 2.4 8.7 1.8 3.8-1 7.4-3.1 11.3-2.8 3 .2 5.8 1 8.8 1.4q4.8.9 9.5-.8c3-1.3 5.7-3.2 8.7-4.1a68.4 68.4 0 0 1 18.3.3q4 .3 7.9.3c2 0 4.1-.2 6 .3 7.1 2.2 10.8 4.7 17.5-.5 4-3 7.6-7.7 13-7q2.7.5 5.3 1.7 2.2.8 4.3 1.9c3.4 2 6.7 4.4 10.5 5.6 2.7 1 5.8.5 8.7.6 3.4.2 7 .6 10.4.3" class="b"/><path d="M8.5 140.7c4.7-4.6 9.2-8.2 15.7-4.4 2.3 1.3 4.5 3 7 4q5 1.5 10.4 1.3c3-.2 5.7-1.7 8.7-2 3.5-.4 7 .4 10.4 1a36 36 0 0 0 12.2.5c3.7-1 6.8-3.4 10.5-4.5 8.3-2.6 16.2 3.1 24.4 4 2.3.4 4.8.7 7 1.7 4 2 8.7 4.1 13 1.6 5.7-3 9.7-9.5 16.5-10.2q2.7 0 5.2.6 2.2.3 4.4.8c3.9 1.2 7.5 3.3 11.3 4.8 2.8 1 5.8 1.2 8.7 1.6q4.8.7 9.6.7" class="b"/><path d="M8.5 137.1c4.3-4.1 8.6-7.4 14.8-5.3 2.3.7 4.6 1.9 7 2.5 2.5.5 5.2 0 7.8 0l5.2-.4c2-.4 4-.9 6.1-.7 5.6.3 11 1.8 16.5 2.7 2.6.4 5.3 1.2 7.9.9 3.4-.6 6.3-2.6 9.6-3.6q5.3-1.9 10.4.5t10.5 4c3.1 1 6.6 1.4 9.5 2.9 7.7 4.1 11 5.2 18.3-.7 3.8-2.9 7.5-6.2 12.2-7.3q3-.6 6.1-.5 4.6-.2 8.7 1c3.3 1.1 6.3 3 9.6 4.2 4.7 1.6 9.9 2 14.8 1.5" class="b"/><path d="M8.5 134.8c4.9-3.8 9.2-7 15.7-6.9q3.9.2 7.8-.2 7.8-1.7 15.7-1.4l14.8 3.2q3.5.7 7 1.8c2.5.9 5.1 1.4 7.8.7 2.9-.7 5.7-1.8 8.7-2 5.4-.2 9.7 3.8 14.8 5.1 4 1.4 8.4 1.4 12.2 3.3 7.2 4 10.9 6.4 18.3.8 4-3 8.1-5.9 13-7q3-.7 6.1-1c2.6-.4 5.3-.9 7.8-.5 2.8.4 5.4 1.8 7.9 3.1a23 23 0 0 0 17.4 2" class="b"/><path d="M8.5 132.4c3.6-1.9 6.8-4.5 10.5-6.3 4-2.2 8.6-3.3 13-4.4a31 31 0 0 1 14.8-1.2c2.6.6 5.2 1.6 7.9 2 3.7.7 7.6 1 11.3 1.9 3 .5 5.7 2 8.7 2.6 3.7.5 7.6-.3 11.3.3 5.4.9 9.5 5 14.8 6.3 3.4 1 7 .9 10.5 2 8.2 3.5 11.4 7.2 20 1q7-4.9 15.6-4.9c3.3 0 6.4-1.1 9.6-1.4q3.7-.2 7 1.2c8.2 3.9 11.2 4.3 20 1.6" class="b"/><path d="M8.5 129.3c5-1.8 8.7-5.8 13-8.5q6.5-4.2 14-5.6 5.8-.7 11.3 1c3.1 1 6.3 2.3 9.6 2.3 3.7 0 7.6-.4 11.3.5 2.1.5 4.1 1.6 6.1 2.4q3.3 1.2 7 1.7c11 1.3 13.4 6.9 22.6 9.4 2.8.7 5.9.8 8.7 1.5 5 1.6 10.5 3.5 15.7 1.4 3.2-1.2 6-3.3 9.6-3.6 4-.4 8.1.4 12.2-.2 2.3-.5 4.6-1.6 7-2q3.8-.9 7.8 0a27 27 0 0 0 19.1-.3" class="b"/><path d="M8.5 125.4c3.8-.8 6.7-3.6 9.6-6 4.5-4.1 8.8-6.6 14.8-8 4.6-1.1 9.4-.1 14 1.2 2.5.6 5 1.7 7.7 1.9 5 .1 10.1-1.7 14.8.3 2.7 1.1 5.1 3 7.9 4 3.4 1.3 7 2 10.4 3.2s6.7 3.4 9.6 5.6c6.2 4.6 11 4.4 18.3 4.4 5.8-.1 11.8.2 17.4-1.7 2.9-.5 5.8 0 8.7.1q4 .3 7.9-.8 2.6-1 5.2-2.3c2.7-1 5.7-2 8.7-1.9q3.9.3 7.8.4 6.2-.2 12.2-1.4" class="b"/><path d="M8.5 121c8.9-1.4 10.5-10.7 23.5-12 7.3-1.6 14.6.1 21.8 1.5 3.7.3 7.5-.8 11.3-.4 3.3.3 6.1 2.2 8.7 4q2.9 2 6.1 3.4c4.2 1.9 9 2.4 13 4.7q3.2 2.1 6.2 4.4c6.7 5 11.9 2.7 19.1.8 3.1-.8 6.4-.5 9.6 0 2.9.4 5.8-.2 8.7.2 6.7 1 11-1.3 16.5-4.7a27 27 0 0 1 8.7-3q3.5-.4 7-.4 3-.3 6-.5h8.8" class="b"/><path d="M8.5 116.6c4.9 0 8.3-4 12.2-6.4 3.4-2.3 7.3-2.6 11.3-2.7q5.7-.8 11.3-1.4h7q2.6.4 5.2.6c5.2-.1 10.3-.3 14.8 2.9 3.9 2.7 7.7 6 12.2 7.7 2.8 1.1 5.9 1.7 8.7 2.8 4.3 1.6 7.5 5.6 12.2 6.6 6.1 1.2 11-3.9 16.5-5.2 4.5-1 8.6 2.2 13.1 2 12 2 13.4-4.8 22.6-9 3.9-1.7 8.1-1.6 12.2-1.6 2.3 0 4.7-.7 7-.5 3 .1 5.8 1 8.7 1.4" class="b"/><path d="M8.5 112c2.8.5 5.5-.9 7.8-2.3q3.3-2.2 7-3.6c2.8-.9 5.8-.6 8.7-.7q5.3-.6 10.5-2a71 71 0 0 1 7.8-.9l5.2.3a23 23 0 0 1 15.7 4.2c3.8 2.7 7.3 5.8 11.3 8.2q4.6 2.8 9.6 4.4c3.6 1.6 7.1 4.3 11.3 3.9 3.9-.4 7.2-2.8 10.5-4.8 2.3-1.5 5-3.1 7.8-3.3 2.7 0 5.3 1.3 7.8 2 1.7.5 3.6.4 5.3.6q4.7.5 8.7-1.9c4.3-2.6 7.4-7.1 12.2-9 3.9-1.5 8.1-.5 12.2 0 2.2.4 4.6-.3 7 0 2.9.2 5.8 1.1 8.6 1.8" class="b"/><path d="M8.5 106.4c5.4 1 9.7-3.5 14.8-4.3 2.9-.6 5.8-.1 8.7-.2 5-.3 9.9-1.6 14.8-2q3.9-.9 7.9-.9c4-.2 8.3-.2 12.1 1.4q4.7 1.9 8.8 5c4.1 3.2 7.7 7.3 12.1 10.2q2.5 1.5 5.3 2.4 2.4 1 5.2 1.6c7 1.6 12.8-3.9 18.3-7.3 2.5-1.7 5.6-2.9 8.7-2.4q2.6.4 5.2.7h3.5a16 16 0 0 0 10.4-2.4c8.4-5.8 10.1-12 21.8-7.4q2.2.7 4.3 1h4.4q4.5.6 8.7 1.6" class="b"/><path d="M8.5 100.5c4.9.5 9.2-2.4 14-3 2.8-.4 5.8 0 8.6.2l9.6-.2q3 0 6.1-.3c2.3-.3 4.7-1 7-1.2q7.5-1.7 14.8.7c2 .8 4.2 1.3 6 2.4 5.5 3.2 9 9 14 12.6a13 13 0 0 0 5.2 2q2.6.5 5.2.8c6.6.5 12.2-3.6 17.4-7 2.7-1.6 5.6-3 8.7-3.4q4.5-.3 8.8-1c3.2-.2 6.6-.3 9.5-1.8 8.9-4.4 11-13.6 22.7-7.7q2 1 4.3 1.7l4.4.4q4.4.4 8.7 1.5" class="b"/><path d="M8.5 94.8c4.8.1 9.2-2 14-2.3 2.5-.2 5.2.3 7.8.6l4.3.1q3 .4 6.1 1c3.2.5 6.5 1 9.6 0 9-2.9 12.8-2.2 21.8-1 7.6.7 11.3 8.7 17.4 12.2 1.5.9 3.5 1 5.2 1.1q3.9.5 7.8.6 4.6-.2 8.7-2c4.2-2.2 8.5-4.7 13.1-5.9q2.6-.6 5.2-1.4c1.7-.5 3.5-1.3 5.2-1.5a25 25 0 0 0 14-4.8c3-2.4 5.7-5.8 9.5-6.9 4-1.2 7.9 1.1 11.4 2.8 2.1 1 4.6 1.2 7 1.6q3.5.5 6.9 2" class="b"/><path d="M8.5 89.8c4.4 0 8.7-1.6 13-1.9 3.3-.2 6.5.5 9.6 1 3.6 0 7 1.1 10.5 2.1 3.3 1 6.3 1.5 9.6.2a36 36 0 0 1 17.4-1.9c2.9.2 5.9-.8 8.7.4 4.6 1.4 7.8 5.6 12.2 7.5 2.4 1 5.2.7 7.8 1 3.7.4 7.6 1 11.3.3 1.8-.3 3.6-1.2 5.3-1.8q3.3-1.1 7-2 3.9-.6 7.8-1.9c2-.7 4-2 6-2.6 8-1.8 12.3-3 18.3-8.9 6.5-5.7 10-5.4 17.4-1.4 4.4 1.7 9.1 2.6 13.1 5.2" class="b"/><path d="M8.5 85.3c4.4 0 8.7-1.6 13-1.7 3 0 6 .7 8.8 1.3q2.2.3 4.3.6l5.2 1.4c4.6 1.3 7.7 2 12.2.2 5.3-2 11-1.2 16.6-1.2q2.6-.1 5.2-.7c4.3-.7 8.5 1.3 12.2 3.5q2.4 1.3 5.2 1.9l7.8.5q4.9.4 9.6-.3c2.4-.4 4.6-1.7 7-2 4.6-.8 9.5.4 14-1.2 1.7-.7 3.4-1.9 5.1-2.6q4-1.4 7.9-3.3c4.4-2.2 8.2-5.5 12.2-8.4 5.7-4 9.7-3 15.6.1a48 48 0 0 1 13 7.3" class="b"/><path d="M8.5 80.6c4.1.1 8.1-1.4 12.2-1.7 3.2-.2 6.5.8 9.6 1.7q5.2 1.1 10.4 2.4 3 .6 6.1 1c3.5-.1 7-1.2 10.5-1.4q5.6-.3 11.3-1c2.6-.4 5.2-1.6 7.8-1.4 4.8 0 8.7 3 13 4.2 2.3.6 4.8.4 7 .7 3.5.4 7 .8 10.5.3q3.2-.6 6-2 3.5-1.2 7-.9c3.5.3 7.1 1.4 10.5.1q5.9-2.9 11.3-6.4c4.1-2.7 7.9-6 12.2-8.5 5-2.8 9.9-2 14.8.3 2 1 4.2 1.5 6.1 2.6q4.7 2.7 8.7 6.5" class="b"/><path d="M8.5 75.7c3.3 0 6.4-1 9.6-1.8 4.5-1.1 8.8.1 13 1.7q5.6 1.5 11.4 2.3 4.6 1 9.5.9 4.5.4 8.8-.1 4.8-.9 9.5-2.5a14 14 0 0 1 8.7-.6c3.6.7 6.9 2.8 10.5 3.6 2.3.5 4.7.3 7 .9 4 .9 8.1 2 12.1.8 2.8-.7 5.1-2.6 7.9-3.2 3.7-1 7.5 0 11.3 0 3.2-.1 6-2.1 8.7-3.5 5.9-3 10.4-8.3 16.5-10.8 5.2-2 10.8.1 15.7 2l4.4 1.1c4 1.6 7.2 4.6 10.4 7.4" class="b"/><path d="M8.5 70.5c5.7-.2 10.8-3.9 16.5-3 3.3.5 6.4 2.1 9.6 2.7q4.8.9 9.6 1.7l7 1.3q2.1.6 4.3 1c9.7 2 14.2-5.4 22.7-3.4 3.5.7 6.9 2.4 10.4 3.2 2.3.5 4.8.2 7 1 4.7 1.6 9.8 4.5 14.8 2.2 2-1 4-2.5 6-3.6q3.4-1.6 7-2c2.3-.1 4.7 0 7-.6q5.3-2 10.4-4.5c3.2-1.6 6.3-3.9 9.6-5.3 5.5-2.5 11.2.8 16.5 2.2q3 .8 6.1 1.1c4 1 7.2 3.7 10.5 6" class="b"/><path d="M8.5 65.6c5.8-.2 10.7-4.5 16.5-4.1 4 .3 7.5 2.1 11.4 2.6q6.1.7 12.2 2.3c2.6.6 5.2 2 7.8 2.9 7.6 2.5 11.5-1.8 18.3-2.2 4 0 8.1 1 12.2 1.7 2.5.6 5.3.1 7.8 1 3.9 1.3 7.2 4.1 11.3 4.7 3 .4 5.7-1 7.9-2.8q3.1-2.5 7-4.3c3-1.4 6.4-1.5 9.5-2.3 4.5-2 9.4-2.3 14-3.9 10.6-4 10.7-2.2 20.8.9q3.9 1 7.9.8c3.7.4 7.1 2.4 10.4 4" class="b"/><path d="M8.5 61.2c5.6-.2 10.1-4.4 15.7-4.6 3.6-.1 7 1.5 10.4 2l8.7 1q3.6.8 7 2c2.7 1 5.2 2.5 7.8 3.4 5 2 9.9 1 14.8 0q4-.2 7.9-.1l11.3-.2c3.9.2 7 2.8 10.4 4.4 8 4.2 11-1 17.5-4.5 2.9-1.7 6.3-2.5 9.5-3.4 1.7-.5 3.5-1.4 5.3-1.7q3.8-.3 7.8-.5 4.8-.5 9.6-1c3.9 0 7.6 2 11.3 3q3 .6 6 .7 2.3-.2 4.4-.2 5 .2 9.6 1.7" class="b"/><path d="M8.5 56.9c4.3 0 8-3 12.2-3.7 3.8-.9 7.6.4 11.3 1.1 3.7.5 7.6.7 11.3 1.4 12 2.4 14.7 7.5 28.8 6.7q3.8 0 7.8.2 4.8-.3 9.6-1c8.2-1.3 12.7 5.6 20 6.3 2.5 0 4.8-1.4 7-2.6a77 77 0 0 1 13-6.7c2-.8 4-1.7 6.1-1.8 3.8-.3 7.6.1 11.3.2q3 0 6.1.5 3.6.7 7 2.1c8.9 3.5 14.7 0 23.5-.1" class="b"/><path d="M8.5 53c2.5 0 4.7-1.2 7-2 6.5-2.6 10.2-.7 16.5.2q5.7 0 11.3 1.4Q49 54.3 54.6 56q4.9 1 9.6 2 4.3.7 8.7 1.3c2.6.4 5.2 1.1 7.9 1.2 7.4 0 12.6-3 20 .7 3.6 1.6 7.2 4.6 11.3 4.2 7.1-1.4 12.5-6.9 19.2-9.4 5.7-2.3 14.9-1.6 20.9-.3 4.1 1 8 3.4 12.2 4q4.3.7 8.7-.2c3.5-.9 6.9-2.5 10.4-3.1" class="b"/><path d="M8.5 49.8c2.5 0 4.7-1.2 7-2q3.8-1.4 7.8-.9c2.3.2 4.7.9 7 1.2s4.7-.2 7 .3c4.4.7 8.7 2.6 13 4 4.5 1.5 9.4.8 14 2q4.7 1.4 9.5 2.6c2.8.9 5.7 2 8.7 2 4.7 0 9.3-1.5 14-1.3a21 21 0 0 1 9.5 3c3 1.6 6.1 2.8 9.6 1.7 6-1.6 10.6-6.5 16.5-8.5 5-1.5 10.5-2.2 15.7-1.6 8.5 1.4 13.2 6.9 22.6 5.6 4.6-.4 8.6-2.9 13.1-3.6" class="b"/><path d="M8.5 47.7c2.5 0 4.7-1.3 7-2.2q4.1-1.5 8.7-1.2l6 .6c1.8 0 3.6-.3 5.3-.1 4.9.5 9.3 3 14 4.6 3.8 1.4 8 .9 12.1 1.7 3 .7 5.9 2.1 8.7 3.3q3.5 1 7 2.4 5.6 1.9 11.3.2 3.5-.7 7-1.2 4.3-1 8.7.5c6.3 2.6 8.8 4.3 15.6 1.2 3.6-1.7 6.8-4.3 10.5-5.7 5.3-1.6 11-2.6 16.5-2 5.3.5 9.8 3.7 14.8 5 3.7 1 7.6.6 11.3 0 3.5-.8 7-1.8 10.5-1.8" class="b"/><path d="M8.5 46.5c2.2 0 4.2-1 6-2q3-1.4 6.2-2.3c4-1.2 8.1-.9 12.2-1.2s7.7 1.5 11.3 3q3.8 2 7.8 3.2c3.2.8 6.6 1.3 9.6 2.6 3 1.2 5.8 3 8.7 4.3 4.2 1.4 8.6 2.9 13 2 2.7-.3 5.3-1.2 8-1.7s5.7-1.4 8.6-1.6c3.3-.2 6.5.8 9.6 1.5 6.9 1.7 13.1-2.4 19.2-5a45.1 45.1 0 0 1 17.4-1.8c4 .4 7.6 2.1 11.3 3.4q4.7 1.6 9.6 1.3c5.5-.5 11-2 16.5-.5" class="b"/><path d="M8.5 45.6c4.5-.3 8.2-3.4 12.2-5.2q6.6-3 14-2.4 4 .8 7.8 2.7t7.8 3.7q5 1.5 9.6 4c6.8 3.7 10.8 7.3 19.1 6.3 3.6-.5 7-1.7 10.5-2.3q2.6-.3 5.2-.6l7-1c5.2-.3 10.5.5 15.6-.6 4.6-.7 8.7-2.8 13.1-4q8.2-1.7 16.5-.5c5.6.9 11 3.1 16.6 3.2 8 0 11.9-2.5 20 1.1" class="b"/><path d="M8.5 44.3c4.2-.5 7.8-3 11.3-5 7.5-4.5 14.9-4 22.7-.6q3.9 1.6 7.8 3.4 3.1 1.3 6 3c6.1 3.8 12.5 9.4 20.1 7.5 3-.5 5.8-1.5 8.7-2q4-.5 7.9-.2c5.8.3 11.6-1 17.4-2 4.3-.8 8.8-1 13-2.1 4.6-1.2 9.2-3 14-2.8 7.6.2 15 2.1 22.6 2.7q5.6.5 11.3-.1 6.3-1.1 12.2 1.4" class="b"/><path d="M8.5 42.3c4-.9 7.7-2.8 11.3-4.8 7.6-4.2 16.5-2 24.4 0q5.5 1.4 10.5 4.4c7.2 5.1 13.1 10.4 22.6 7.3 5.7-1.8 9-1.4 14.8-.2 7 1.3 11.7.2 18.3-2.1 4.5-1.5 9.4-1.5 13.9-2.7q4.4-1.2 8.7-2.3 3.5-.3 7 .4c4 .7 8 1.7 12.2 2 5.8 0 11.6.5 17.4.6 4.6-.4 9.2-1.7 13.9-1" class="b"/><path d="M8.5 40q3.5-1.4 7-2.7A27 27 0 0 1 26.8 34c4 0 8.1.6 12.2.7 4 .2 8.4.2 12.2 2 6 2.8 10.4 8.9 17.4 9.7q2.5.5 5.2.2c2.6-.4 5.2-1.1 7.8-1.2 3 0 6 1 8.7 1.8q3.5.7 7 1c4.9.4 9.4-1.7 14-3.3 3.9-1.3 8.1-1.5 12.1-2.6q4.8-1.6 9.6-2.7c5.4-.4 10.4 2.5 15.7 3.2 3.1.6 6.4 0 9.5 0 3.8 0 7.6.6 11.4.6 4.8-.3 9.1-3 13.9-3.6" class="b"/><path d="M8.5 38q3.5-1.2 7-2.6c3.3-1.4 6.8-2.7 10.4-2.9 3.8-.1 7.6.5 11.3.2 3.8 0 7.6-1 11.4-.4 3.6.4 6.7 2.9 9.5 5 3.2 2.4 6.6 4.9 10.5 6 4.5 1.4 9.3.2 14 .8 2.5.2 5.2 1 7.7 1.5 4 .5 8.2 1 12.2.4 3.9-.6 7.6-2.1 11.4-2.9q3.8-.7 7.8-1.7 3.9-1.2 7.8-2.6 5.3-1.8 10.5-.2c3.1.9 6.3 2 9.6 2.5 2 .3 4 0 6 0q3.5-.3 7-.3 4 0 7.9-.3c4.5-.8 8.6-3.4 13-4.5" class="b"/><path d="M8.5 36.2q3.5-1 7-2c3.4-1.4 6.8-3 10.4-3.5 4-.6 8.2 0 12.2-.4 3.5-.2 7-1.2 10.5-1 7.5.3 14.5 9 21.7 11.9 3.9 1.5 8.1 1.6 12.2 2q5.3.4 10.5.4 4.3.1 8.7.1 5.7-.1 11.3-1.3 3.5-.5 7-1.3c3.6-.8 6.9-2.7 10.4-3.8q5.6-2 11.3-.8c3 .4 5.8 1.4 8.7 1.9q5.3.3 10.5-.4 5.7-.6 11.3-2c3.8-1.2 7.5-2.9 11.3-3.9" class="b"/><path d="M8.5 34q3.1-.2 6-1c3.4-1 6.4-2.7 9.7-3.7C29 27.5 34 28 39 28.3c3.4 0 7-.9 10.4-.8 8.4.7 14.4 7.3 21 11.8q4.4 2.6 9.5 3.1 4 .3 7.8-.7a51 51 0 0 1 14-1q5.6.5 11.3-.1 4-.1 7.8-1c4-1 7.5-3.2 11.3-4.4 4-1.5 8.1-2.5 12.2-1.8 2.4.4 4.7 1.3 7 1.7q4 .6 7.8 0c3.6-.5 7-1.9 10.5-3q7-2.1 14-3.9" class="b"/><path d="M8.5 30.9q3.5.4 7-.4c5.2-1.5 10.1-4.3 15.6-4.4 4.1-.1 8.1 1.4 12.2 1.2 2.3 0 4.7-.4 7-.3q5 .4 9.6 2.4c3.9 2 7 5.2 10.4 7.9 12.3 8.5 14.9.8 27 0 4.3-.6 8.7.2 13 .3 3.8-.2 7.7.3 11.4-.6 2.4-.5 4.7-1.8 7-2.8l6-2.6a16 16 0 0 1 11.4-1.5c8 2.8 12 3.4 20-.3 5.5-2.7 11.6-3.7 17.4-5.3" class="b"/><path d="M8.5 27q3 .4 6 .2c3.6-.4 7-1.4 10.5-1.8q4.4-.6 8.8 0c2.5.5 5.1 1.4 7.8 1.7 3.2.3 6.4-.4 9.6-.4 3.8.4 7.8.2 11.3 2 4 2 7.2 5.7 11.3 7.7 6.3 3.6 9.5 2.1 15.7-.4q6.3-2 13-2.5c3.8-.1 7.6.2 11.4.1 2.8.2 5.9.5 8.7-.3 4.2-1.4 8.1-3.6 12.2-5.3a14 14 0 0 1 10.4-1.3q2.7 1 5.2 2c4.2 1.5 9 1.5 13-.3q3.6-1.4 7-3 6.7-2 13.1-4.5" class="b"/><path d="M8.5 23.3c7.8.8 15.7.2 23.5.9 3.6.2 7 1.9 10.5 2.2 3.4.4 7-.2 10.4 0 3.8-.2 7.8-.5 11.3 1.4 2.5 1 4.7 2.8 7 4.2 3.2 1.7 6.7 3.5 10.4 3.3 3-.2 5.9-1.6 8.8-2.4 5.7-1.2 11.4-3.6 17.4-3.5q3 0 6 .2 3.1.3 6.1.2c5.7-.4 10.3-4.3 15.7-5.8a15 15 0 0 1 10.5.9c2 .8 4 1.8 6 2.1 6.2 1.2 11-.1 16.6-2.5a64 64 0 0 0 14.8-6.7" class="b"/><path d="M8.5 20.2c4.7 0 9.3 1.6 14 2.1 4 .7 8 0 12.1.4 3 .5 5.8 1.6 8.7 2.1 4.3.8 8.8.5 13 0A21 21 0 0 1 68.7 28c4 2 8.5 3.9 13 3.8 2.7-.2 5.3-1.2 7.9-1.7l4.3-.8q3-1 6.1-2.2c6.2-2.2 12-1.1 18.3-.7 7 .5 12.3-5.8 19.2-5.7 4.5 0 8.6 2.4 13 3.3q5.6.4 11.3-.2a53 53 0 0 0 21.8-8.6" class="b"/></svg>