<svg xmlns="http://www.w3.org/2000/svg" id="a" width="1920" height="2400" viewBox="0 0 192 240"><defs><style>.b{fill:none;stroke:#fff;stroke-miterlimit:10;stroke-width:.3px}</style></defs><path d="M0 0h192v240H0z" style="stroke-width:0"/><path d="M13.6 220.2c4.9 2 9.3 5.6 14.7 6.1q2.5.2 5-.1c1.3-.2 2.7-.6 4-.1 5.7 1 11.6.2 17.3.2 8.4 0 5.1.3 11.5 3.8q3.2 1.5 6.5.8c2.7-.7 5.5-1.5 8.2-1.3 5.5.7 10.9 2.2 16.4 2.4q7 0 14-1.3c2.4-.7 4.5-2.2 6.5-3.4 4-2.5 8.6-4.1 13.2-3q3-1.6 5.7-3.8c2.6-2 5.5-4.7 9-4.7 3 0 5.6 1.5 8.2 2.5q4.6 1.5 9 3.2c3.7 1.5 7 3.7 10.7 5.2 1.5.8 3.4.8 5 1.6" class="b"/><path d="M13.6 219c4.7 2.2 9.2 5.8 14.7 6 2.2.3 4.4-.4 6.6-.6q2.4.7 4.9.8c5 0 9.9-.8 14.8-.9q3.7-.2 7.4.6 2.2 2 4.9 3.3t5.7.5c2.4-.7 4.9-1.5 7.4-1.4 5.3.5 10.3 2.5 15.6 3.1s10.4-.2 15.6-1c2.4-.4 4.5-2.1 6.5-3.4a18 18 0 0 1 13.2-3.7q3-2.2 5.7-4.4c2.2-1.7 4.6-3.7 7.4-4 2.7-.2 5 1.6 7.4 2.8 4 2.5 8.8 2.2 13 3.6 3.2 1 6.2 2.7 9.1 4.1 1.5.8 3.4 1 5 1.8" class="b"/><path d="M13.6 217.5c4.9 2.7 9.6 6.4 15.5 6.2 1.7 0 3.3-.6 5-.8q2.8.9 5.7.8c5-.2 9.8-1.2 14.8-1.3l4.9.4c1.4 0 3 0 4 1q1.6 1.1 3.4 2 2.7 1.4 5.7.6c2.4-.6 4.9-1.5 7.4-1.4 4.2.5 8.2 2.2 12.3 3.2a38 38 0 0 0 17.2.3q1.7-.2 3.3-.6 2.6-1.3 5-3c3.7-2.7 8.3-5.1 13-4.4 3.7-2.4 6.7-6 10.7-7.8 2.7-1.2 5.4.3 7.4 2 2.4 2 5 4 8.2 4.1 2.7.2 5.5-.5 8.2 0 3.2.6 6.2 2.2 9 3.7q2.1.8 4.1 1.5" class="b"/><path d="M13.6 216c4.6 2.6 9.1 6.3 14.7 6.3q1.6 0 3.3-.4c1-.2 2.2-.7 3.3-.3 3.8.9 7.7.1 11.5-.4l6.5-.7 4.1.5c2.2.3 4.5-.3 6.6.4 8 6.6 10.1.3 18 1.6q5.1 1.3 9.9 3.1c5.2 2 11 2.3 16.4 1.3q3-.4 5.7-1l2.5-1.5a30 30 0 0 1 11.5-5.8c1.3-.4 2.8 0 4-.4q2.3-1.7 4.2-3.5c2-1.7 4-3.7 6.5-4.4 4.7-.9 7.4 5.6 11.5 7.3 4.7 2.5 9.2-1.4 14-.5q3 .7 5.7 2 2.4 1.5 5 2.2" class="b"/><path d="M13.6 214.3c5.6 3.3 10 7.6 17.2 6.4 1.3-.2 2.7-.9 4-1q3 .7 5.8.3 5-.7 9.9-1.3c1.3-.3 2.7.3 4 .5q3 .4 5.8.3c1 0 2.3-.3 3.3-.1 1.5.3 2.7 1.7 4 2.2q3 1.1 5.8.3c5.3-1.7 8-1.4 13.1.4 4.6 1.6 9 4 14 4.2q4.5.3 9-.6c2-.4 4.1-.4 5.8-1.5 4.9-3.3 10.1-7.3 16.4-6.9 3.7-2 8.7-9.9 13.1-8 2.7 1.4 4.3 4.2 6.6 6.2a9 9 0 0 0 8.2 2.8c2.8-.4 5.3-2.4 8.2-2.5q3 0 5.7 1.4c1.6.8 3.1 2 5 2.3" class="b"/><path d="M13.6 212.5c2.3 1 4.3 2.9 6.5 4.2q4.6 2.9 9.8 2.6 3-.4 5.8-1.4 3 .1 5.7-.2c2.7-.3 5.5-1 8.2-1l5 1q2.8.4 5.7.2c1.3 0 2.8-.4 4-.3 1 .1 1.8.8 2.6 1.2q2 1.1 4 1.2c2.3.1 4.5-.7 6.6-1a22 22 0 0 1 9.8 1.5c4.1 1.5 8 3.7 12.4 4.4q4.5.6 9 0c2.1-.5 4.5-.7 6.5-1.6 5.2-3.5 10.7-7.5 17.3-7.1q2.5-2.1 4.9-4.5c2.1-1.9 5-5.4 8.2-3.4 2.5 2 4.2 5 6.5 7s5.3 3 8.2 2.4c2.7-.4 5-2 7.4-3a9 9 0 0 1 6.6.8c1.3.7 2.6 1.9 4 2.3" class="b"/><path d="M13.6 210.7c2.3.9 4.4 2.7 6.5 4 3.8 2.6 8.7 3.5 13.1 2.3 2.5-.6 5-1.4 7.4-1.5 1.6-.2 3.3-.7 5-.6 3.5.2 7 1.3 10.6 1.5 3 .2 6-.3 9-.6q1.3.3 2.5 1 2 1 4 1c2.5 0 5-.7 7.5-.8q4.6.2 9 1.6c3.6 1.3 7 3.4 10.6 4.4 5.4 1.5 11.2.7 16.4-1 2.3-1.2 4.4-2.8 6.6-4q5.4-3 11.5-3.3 2.7-2 5-4.4c1.8-1.6 3.7-4.5 6.5-4 4.8 2.1 6.2 9.6 13.1 10.4 2.5.3 5.1-.5 7.4-1.6 1.6-.7 3.2-1.8 5-2.2 3-.6 5.7 1.2 8.1 3" class="b"/><path d="M13.6 209c2.7.6 5 2.6 7.3 4 6.8 4.1 11.8 2.2 18.9 1 4.4-.8 8.8 0 13.1.7q4.5.7 9 0l4.2-.6c1.9.2 3.7 1.4 5.7 1.4 2.1.2 4.4-.2 6.5-.3 4.2.1 8.5.5 12.4 2.1 3.2 1.5 6.4 3.4 9.8 4.3q7 1.8 14-.7c2.6-1 4.8-2.9 7.3-4.1q3.6-1.8 7.4-2.8 2.4-.5 5-.7 2.5-2 4.9-4.3c1.4-1.4 2.9-3.4 4.9-4.2 4.5-.8 6.9 9.7 14 10.4q3.7.5 7.3-1.2 2.3-1.2 5-2c2.7-.8 5.7-.3 8.1 1.4" class="b"/><path d="M13.6 207.5c2.7 0 5 1.9 7.3 3.2 6.4 4 12 2.6 18.9 1.9a38 38 0 0 1 5.7-.1c3.3.4 6.6 1.1 9.9 1.2a48 48 0 0 0 8.2-.8c1.6-.2 3.3-.9 4.9-.4 3.4 1.3 7.1.6 10.7.7 9.3.3 10.8 1 18.8 5.4a20 20 0 0 0 14.8 1.5c2.3-.7 4.5-2.2 6.6-3.4q4.6-2.7 9.8-4.1 3-.6 5.7-.8 2.7-1.9 5-4.2c1.2-1.3 2.5-3 4-4 5.2-2.2 7 10.8 16.5 10q2 0 4-.7 3 0 5.8-.8c2.6-.8 5.5-2.2 8.2-.9" class="b"/><path d="M13.6 206.3c4.5-.7 8 3 12.3 4 4.5 1.4 9.3.7 14 .7q2.8 0 5.7.2c3.5.6 7 1.4 10.6 1.2q5.8-.4 11.5-1.8c1.6 0 3.3.5 5 .5 3.2 0 6.5-.3 9.8 0 3 .2 6.2.4 9 1.6 3.4 1.5 6.4 3.8 9.8 5.2 6.5 2.7 10.6 1.2 16.4-2.1 2.5-1.2 4.7-3.2 7.4-4q1.6-.7 3.3-.5c2.3-.8 5-.7 7.4-1q2.7-1.8 4.9-4.1c2-2.2 4.3-6.2 7.4-3 3.9 4.4 6.3 9.2 13.1 8.6q4.9.6 9.8-.3c2.5-.4 4.8-2.2 7.4-2" class="b"/><path d="M13.6 205.4c5.1-1.9 9.7 2.4 14.7 3.1 7 1 14.4.6 21.3 2.2 5 .9 10 0 14.8-1l4.1-1q2 .4 4.1.4c5.2-.4 10.5-.6 15.6.3 5.8 1 10.1 5.6 15.6 7.4 3.5 1.4 7.4.2 10.7-1.3q3.9-1.6 7.3-3.9c2-1.1 4.3-2.2 6.6-2.3l2.5-.3q2 0 4-.2 1.5 0 2.5-.7 2.4-1.4 4.1-3.5c5.8-8.3 7.3-1.2 12.3 3 1.8 1.5 4.4 1.9 6.6 2.5q5.8 1 11.5.3c2.2-.3 4.4-1.3 6.6-2" class="b"/><path d="M13.6 204.7c5.3-2.6 9.5.3 14.7 1.4q4.5.8 9 1.2l9.9 1.5c5.1 1.4 10.5.9 15.6-.4l5.7-1.5q2 .3 4.1.2 7.4-1.3 14.8-.2c5.7.5 10 4.7 14.7 7.3 4.2 2.4 9 .8 13.2-1q2-.7 4-1.6c1.9-1 3.8-2.3 5.8-3q2.4-1 5-1l2.4-.4q2.4 0 5-.3l2.4-1.5c2-1.5 3-4 4.9-5.4 3.5-1.9 6.4 3.5 9 5.3q3.4 2.4 7.4 3.1c5.7 1 11.7 1.1 17.2-.9" class="b"/><path d="M13.6 204c5.6-2.9 8.3-1.1 13.9 0q4.5.6 9 1.3 5 .9 9.9 1.9c5.3 1.4 11 1 16.4-.4l5.7-1.6q3 .4 5.7-.2c5.7-1.4 11.6-.6 17.3.6 3 1 5.5 3.3 8.2 5 3 2 6.2 3.4 9.8 2.6q4.6-1 9-2.8c1.4-.5 2.8-1.5 4.1-2q2.4-1.2 5-1.9c1-.3 2.2-.2 3.2-.6 2.4-.7 5-.4 7.4-.8q1.9-.9 3.3-2.3c1.4-1.6 2.6-4 5-4.4 1.8 0 3.4 1.6 4.8 2.8a27 27 0 0 0 5 3.5c3.5 1.8 7.5 2.2 11.4 2.4q5.4.4 10.7-.7" class="b"/><path d="M13.6 203.1c5.9-3 7.9-1.6 13.9-.6q2 .3 4.1.3 1.6 0 3.3.2c4 .7 8.2 2 12.3 2.7 5.4 1.3 11 .5 16.4-.7l5-1.5q3.7.4 7.3-1c4.6-1.3 9.5-.5 14 .8l3.2.7q2.6 1.5 5 3.2c2.9 2 6.1 4.2 9.8 4.2 2.5 0 5-.8 7.4-1.5q2.5-.7 4.9-1.8a33 33 0 0 1 7.4-3l2.4-.3q1.7-.6 3.3-.8l4.1-.6h1.6l1.7-1.1c1.5-1.2 2.7-2.9 4-4.1 1.8-1.6 4.2-.7 5.8.5 1.6 1 3.3 2.4 5 3.3 6.2 3.6 15.9 3.6 23 2.9" class="b"/><path d="M13.6 202c7-2.8 7.5-1.8 14.7-1q3.3.1 6.6 0c3.8.8 7.6 2.2 11.5 2.8a41 41 0 0 0 22.1-2q1.3.2 2.5 0c2.5-.2 4.8-1.6 7.4-2 6-1 10 1 15.5 2.4 5 2.8 9.6 7.6 15.6 7.2q5.2-.4 9.9-2.5c2.3-1 4.8-2.3 7.4-3l3.2-.4 1.7-.5c2.9-1 6.3-.5 9-2 2.4-1.4 3.8-4.3 6.6-4.8 1.7-.2 3.4.8 4.9 1.6 1.8 1 3.7 2.3 5.7 3.1a50 50 0 0 0 20.5 2.4" class="b"/><path d="M13.6 201.1c7.5-3 8.8-2 16.4-1.7q2.4 0 4.9-.2c3.8.8 7.6 2.2 11.5 2.8q4.5.8 9 .6l7.4-1.1q3-.4 5.7-1.2 3-.2 5.8-1.4a19 19 0 0 1 16.4 0q2 .8 4 1.4 3.4 2.2 6.6 4.3c2.3 1.3 4.8 2.6 7.4 2.7q5.6.3 10.7-2 3.1-1.6 6.5-2.7 1.6-.3 3.3-.3l2.5-.7c3.2-.8 6.9-.6 9.8-2.4 2.3-1.2 4-3.8 6.6-4.3 2-.2 4 .8 5.7 1.7q3.2 1.6 6.6 2.9c5.8 1.8 12 2.2 18 2.1" class="b"/><path d="m13.6 200.3 5.7-2c4-1 8.2-.5 12.3-.7 1.3 0 2.8-.3 4.1 0 3.6.7 7 2 10.7 2.5q4.1.5 8.2.6 4.5-.7 9-1.3 4.7-.6 9-2c5.8-2.7 11-4.2 17.2-1.3l4.1 1.7q1.8.5 3.3 1.5c7.8 5.8 13.7 8.2 23 3.8 2.6-1 5.3-2.3 8.2-2.1q1.3-.2 2.4-.6 1.7-.5 3.3-.7a20 20 0 0 0 8.2-2c1.8-1 3.3-2.4 5-3.4 4.2-2.3 9 1.7 13 2.8 5.9 2 12 2.6 18.1 2.7" class="b"/><path d="M13.6 199.4c3-.7 6-2.2 9-2.9 4-.5 8.2-.4 12.3-.9 4.1.7 8.1 2.2 12.3 2.6 2.2 0 4.4.6 6.6.5 3.5-.3 7-1.1 10.6-1.4q3.4-.4 6.6-1.3c6-2.5 11.5-5.8 18-2.8q2.6 1 5 2.2c1.3.6 2.9 1 4 1.9 8.1 6 13.4 8 23 3.7q2.4-1 5-1.4c1.3-.1 2.8.2 4-.5q2.9-.9 5.8-1.3 3 0 5.7-1c4.2-1.2 6.7-5.6 11.5-4.5 3.4.8 6.5 2.4 9.9 3.2q7.6 2.2 15.5 2.5" class="b"/><path d="M13.6 198.2q5.4-1.2 10.6-3.1 5.3-.8 10.7-1.2c4.6.8 9.2 2.2 14 2.3q4.4.9 9 0 4-.6 8.1-1.1 4.5-.7 8.2-2.7c4.7-3.4 7.5-5 13.2-2.6q3.8 1.6 7.3 3.6l3.3 1.3 3.3 2.2c6.3 4.7 11.5 5.6 18.9 2.6 2.6-1 5.4-1.8 8.2-1.5 2.1-.6 4.3-1.5 6.5-1.8q2.5-.3 5-.3 3.6-.5 6.5-2.5c3.1-2.5 6-3.3 9.9-2 7 2 14 4.2 21.3 4.7l.8.5" class="b"/><path d="M13.6 196.8q6.2-1 12.3-3.1 3.7-1 7.3-1.3 2.1-.3 4.1.3l5.8 1c2.7.5 5.5.4 8.2.8 2.7.2 5.5-.3 8.2-.6q4.1-.4 8.2-1.2c2.5-.6 4.6-2.5 6.5-4.1 4.5-4 9-2.9 14-.7a96 96 0 0 1 14 7.1c6.7 4.8 11.1 5.3 18.8 2.3q2.4-.9 5-1.1c1-.1 2.2.2 3.2-.2 2.1-.7 4.3-1.6 6.6-1.8 5.3-.4 7.4.6 12.3-2.7q4-3 9-1.9c4.4 1 8.7 2.4 13.1 3.4l6.6 1 1.6 1.1" class="b"/><path d="M13.6 195.2q5.8-.6 11.4-2.2c3-1 6-2.2 9-2.3 3.6.2 7.2.9 10.7 1.3l6.6.5q4.5-.1 9-.7c2.2-.4 4.6-.3 6.6-1.2 2.1-1 3.9-3 5.7-4.6 4.5-4 9.8-1.5 14.8.2q7.2 2.1 14 5.9c3.7 2.7 8.2 5.3 13 5 2.6-.2 5-1.2 7.4-2a16 16 0 0 1 7.4-.8c2.7-.9 5.4-2.1 8.2-2.1 3.3 0 6.8.7 9.8-1.1q2.4-1.5 5-2.7c2.3-.9 5-.6 7.3 0q3.8.7 7.4 1.7l6.6 1.5 2.4.4 2.5 1.6" class="b"/><path d="M13.6 193.6q6.7-.6 13-2.3c2.6-.5 5-2 7.5-2.1q5.3.1 10.6 1l6.6.2q4.1 0 8.2-.6c1.9-.3 4-.2 5.7-1.2 2.4-1.4 4.2-3.8 6.6-5.2 3.3-2 7.3-.7 10.7.5q3.1 1 6.5 1.8a41 41 0 0 1 13.1 4.6c4 3 9 5 14 4.7 2.2-.4 4.4-1.4 6.6-2.2q4-1.5 8.2-.7 2.7-1.2 5.7-1.7c2.7-.4 5.5.1 8.2.2 1 0 2.3-.7 3.3-1 1.6-.6 3.2-1.9 4.9-2.5 4-1.6 8.3-.2 12.3.7l7.4 1.8 2.4.4c1.2.4 2.3 1.4 3.3 2" class="b"/><path d="M13.6 192q7.5-.7 14.7-2.5c2.2-.5 4.4-1.6 6.6-1.8q5-.1 9.8.4 3.7.2 7.4 0l6.6-.3q3 0 5.7-1.8c4-3 5.9-6.1 11.5-4.5 2.5.5 5 1.5 7.4 2.1q4.4 1 9 1.6 5.1.7 9.8 2.8 2.3 1.8 5 3 5 2.1 10.6 1.7 3-1.2 5.7-2.4 3.6-1.6 7.4-1l1.7.5q1.2-.2 2.4-.8 3.7-1.1 7.4-.7l3.3.5c.7 0 1.7-.5 2.4-.7l2.5-.7q1.2-.7 2.5-1.3c2.2-1.2 4.9-1.5 7.3-1.1q5.1.8 9.9 2 2.5.6 5 1.2l3.2 2" class="b"/><path d="M13.6 190.2q7.8-.4 15.5-2.4c3.5-.9 7-2 10.7-1.9q6.6.4 13.1 0c2.5-.2 5.1 0 7.4-.9 3.3-1.1 5.6-4.3 9-5 2-.4 4 .4 5.8.8l8.2 2c4.8 1 10 .7 14.7 1.9q2.6.6 5 1.7a20 20 0 0 0 11.4 4c1.3 0 2.9.4 4.1 0 6.6-3.2 9-5.7 16.4-3 3.1-1.3 6.7-1.7 9.9-1q1.2.6 2.4.1l3.3-.7c1.5 0 2.8-1 4.1-1.6q2.8-1 5.8-.9 5 .6 9.8 2l4.1 1 4.1 2" class="b"/><path d="M13.6 188.5c5.8-.1 11.5-1.5 17.2-2.7 3.5-.8 7-1.8 10.7-1.8l7.3-.3c3-.1 6.1 0 9-.9 3.8-1 6.7-4.3 10.7-4.2 2.3.2 4.4 1.2 6.6 1.6 4.9.6 9.8 1.6 14.8 2l6.5.4q3.8.5 7.4 2 2 1.5 4 2.3 3.4 1.1 6.7 1.2c1.3 0 2.8.4 4 0 6.9-3.7 10-6.7 18.1-3.2 3.1-1.1 6.7-1.6 9.8-.4q2.9-.7 5.8-.8l1.6-.2 2.5-1.1q2-.7 4-.7c3.1.1 6.2.9 9.1 1.6l4.1 1 5 2" class="b"/><path d="M13.6 186.7q7.6-.1 14.7-2l6.6-1.5q4-1.1 8.2-1.3l5.7-.8c3-.3 6.2-.5 9-1.4 3.2-1.2 6.4-3 9.9-2.2 2.2.4 4.3 1.3 6.5 1.6s4.5 0 6.6.3l10.7 1.2q2.8.1 5.7.4 3.4.4 6.6 1.6c2 1.1 4.2 2.4 6.5 2.9q2.5.4 5 .6c1 0 2.3.3 3.2-.3 3.5-1.8 6.7-4.6 10.7-5 3-.7 6.1.5 9 1.4 2.7-.7 5.6-1.3 8.2-.2q4.1-.7 8.2-.6c1.1.2 2.2-.7 3.3-1q2.4-.6 5-.2 4 .6 8.1 1.7 3.8 1 7.4 2.5" class="b"/><path d="M13.6 184.9a50 50 0 0 0 12.3-1.3q4.9-1.2 9.8-2.4c3.5-.9 7.2-1.3 10.7-2.1q7-1.2 14-2.8c4.4-1 8.7 1 13 1.4 2.5.3 5-.2 7.4-.1 3.6 0 7.2.7 10.7 1.1 3.8.4 7.8.3 11.5 1.6 2.3.7 4.2 2.3 6.5 2.9q2.5.6 5 .7c1 0 2.3.3 3.2 0 2.6-1.3 4.9-3.1 7.4-4.3 4.9-2.2 9-1.7 14-.2q1.2 0 2.4-.3 2.1-.5 4.1 0c.7.4 1.8.2 2.5 0h4.1q2.4 0 5 .2 2.3-1 4.8-.9 3.8.4 7.4 1.4 4.6 1.1 9 2.5" class="b"/><path d="M13.6 182.8q5.3.3 10.6-.4c2.2-.3 4.4-1.2 6.6-1.8q3.3-.7 6.5-1.6l9-2c5.4-1.2 11-2.7 16.5-2.2 3.5.3 7 1.4 10.6 1.5 3.8 0 7.7-.8 11.5-.4q4.1.4 8.2 1c3 .3 6.1.4 9 1.3 3 .6 5.4 2.4 8.2 3.1q2 .6 4.1.6 1.7.3 3.3-.5c6-3.2 10-6.3 17.2-5.6q2.6.3 5 1c1.3-.1 2.7-.6 4-.5q1.3 0 2.5.4a45 45 0 0 1 11.5.4c1.6-.2 3.3-.7 5-.4q4 .6 8.1 1.8 3.8.7 7.4 1.7" class="b"/><path d="M13.6 180.7q6.2.5 12.3-.2 9-2.8 18-5c4.8-1 9.8-2.2 14.8-2.1 4.1 0 8.2 1 12.3 1.3 4 .2 8.2-.4 12.3-.5q5-.1 9.8.8c3.3.4 6.7.6 9.9 1.6 4.7 1.4 9.8 5 14.8 2.4 5.6-2.8 10.6-5.9 17.2-5.4 2.1 0 4.4.9 6.5.4l2.5-.2q1.2.2 2.5.2h6.5c2.2 0 4.4.8 6.6 1q1.6-.3 3.3-.1c2.8.2 5.5 1.3 8.2 1.9q3.7.4 7.3 1.2" class="b"/><path d="M13.6 178.7q3.7.3 7.3.2 3 .2 5.8-.1 2.2-.6 4-1.5 5-1.5 10-2.8 7.1-2 14.7-2.4c4.4-.2 8.7.5 13.1.8q5.3.3 10.7 0 4.9-.2 9.8-.2 6.6.6 13.1 2c5.8 1.4 9.5 4.6 15.6 1.9 5.3-2.2 10.6-5.2 16.4-5l5.8.2 2.4-.4 3.3.1a44 44 0 0 1 11.5.8c1 .2 2.2.8 3.3.7 3-.4 6.1.7 9 1.6 3 .5 6 .6 9 1.3" class="b"/><path d="M13.6 176.8q3.7.4 7.3.2c2 0 3.9.3 5.8.1 1.7-.1 3.3-1.1 4.9-1.7q6-2 12.3-3.5a76 76 0 0 1 12.3-1.3c5.8 0 11.5.8 17.2.8 2.8-.1 5.5.3 8.2.2l9-.2 6.6.8c4 .4 7.7 1.7 11.5 2.8q4.2 1 8.2-.4c4.6-1.5 9.1-3.7 14-4.6 2.6-.6 5.5 0 8.2-.5q2.8-.6 5.7-.2a36 36 0 0 1 12.3.8c1 .3 2.2 1 3.3.9 2.8-.3 5.5.8 8.2 1.5q2 0 4 .5 3 .2 5.8.9" class="b"/><path d="M13.6 174.8c2.3.7 4.9.4 7.3.5 2.2 0 4.4.3 6.6 0 1.4-.2 2.8-1 4-1.6l10-2.9c4.2-1.1 8.7-1.3 13-1.6l9 .1 5.8.6q6.2.6 12.3.5c5 0 10-.3 14.8.3 4.4.4 8.7 2 13.1 2.6q3.8.3 7.4-.9 6.8-2.4 14-4 2-.3 4-.5 2-.6 4.2-.9 2.4-.3 4.9.1a32 32 0 0 1 12.3.8c1 .3 2.2 1 3.3 1 2.4-.3 5 .4 7.3 1.2a21 21 0 0 1 6.6.8q2.5.3 5 1" class="b"/><path d="M13.6 172.8c2.3.7 4.9.7 7.3.8 2.2 0 4.4.3 6.6 0 1.7-.2 3.3-1.1 5-1.7l6.5-2q2.4-.7 4.9-1.3l5.7-.6 6.6-.3q2-.2 4 .1a77 77 0 0 0 14.9 1.2l18 .5q4.5 0 9 1c3.5.6 7.2 1.2 10.7.5q3.8-1 7.4-2 3.7-.8 7.3-1.4c3.3-1 6.5-2.3 9.9-2.7q3-.3 5.7.2c5-1 10.3-.5 14.8 1.8 2.5-.6 5 0 7.4.7q.8.4 1.6.1l2.5.1q4.5 1 9 2.3" class="b"/><path d="M13.6 170.7q6.9 1.7 13.9 1.1c2.3-.2 4.4-1.4 6.6-2 3.5-.9 7-2.3 10.6-3l7.4-.6c1.9 0 3.9-.3 5.7 0a85 85 0 0 0 10.7 1.4q7.5 0 14.8.4 4.1.1 8.2.5 3 0 5.7.2c3.8.2 7.7 1.2 11.5.6 3.6-.7 7-2.1 10.7-2.7q3.3-.5 6.5-.7a23 23 0 0 1 4.1-1.5q3.7-1.2 7.4-1.5c1.6-.2 3.3.2 5 .3 4.6-1.3 9.6-.6 13.9 1.5 2.7-.7 5.6-.2 8.2.6q1.2.1 2.4 0l2.5.5q4.6 1 9 2.6" class="b"/><path d="M13.6 168.4a32 32 0 0 0 18 .7q6-2 12.3-3.6 5.8-1 11.5-1.1c4 .5 8.2 1.3 12.3 1.6 4.4.4 8.8.1 13.1.5q2.1 0 4.1.3 2 .5 4.1.7 2.5.2 5 0l7.3.3c4 .2 7.8-1.5 11.5-2.8q6-2 12.3-1.3 1 .2 1.7-.3l2.4-.8c2.4-.6 5-1.4 7.4-1.4 1.6-.2 3.3.3 5 .6q4.4-1.7 9-.6c1.3.3 2.7 1.1 4 1.4 3-1.4 6.2-.5 9 .4q1.3.1 2.5.2 1.7.2 3.3.7l9 2.7" class="b"/><path d="M13.6 166.1c5.2 1.7 10.9 2.7 16.4 1.7 5.2-1 10.3-3 15.6-4.1q4.4-1 9-1c4.4.2 8.7 1.3 13.1 1.7 4 .4 8.2.2 12.3.5 2.5 0 4.9 1.4 7.4 1.6 2.7.3 5.5-.1 8.2 0 9.9.4 13.4-5.1 22.1-5.8 3-.2 6 .6 9 1q4.5-1.5 9-1.9 1.8 0 3.4.4c.7.2 1.6.7 2.4.5q3.2-1.2 6.6-1 2 .5 4 1.1c3.1-2.6 7.4-1.5 10.7-.3 1.3.4 2.9.3 4.1.7 3.9 1 7.7 2.5 11.5 3.6" class="b"/><path d="M13.6 164c5.8 1.7 12 3 18 1.8 8.5-1.6 16.7-5.5 25.4-4.8q5.4.8 10.7 1.6 5.3.6 10.7.7 1.2 0 2.4.6 2 .8 4.1 1.2c3.2.8 6.6.3 9.9 0 6.2-.2 10.8-4 16.4-6.1q4.7-1.8 9.8-1c2.5.4 4.9 1.4 7.4 1.6 2.4-.4 4.9-1 7.4-.9 2 0 3.8 1 5.7 1.4 2.4-.6 5-1 7.4-.4 1.2-.5 2.1-1.9 3.3-2.4 2.8-1.6 6.1-.7 9 .2 1.8.9 3.9.8 5.7 1.5l11.5 3.8" class="b"/><path d="M13.6 161.9a44 44 0 0 0 20.5 1.7q5-1 9.8-2.4 3.2-1 6.6-1.6 3.3-.4 6.5-.4 3.8.4 7.4 1.1 4.1.9 8.2 1.1c1.9.2 4 0 5.7.6 9 3.5 9 2.4 18 1.2 4-1 7.2-3.6 10.8-5.4a20 20 0 0 1 17.2-1.6q2.9 1 5.7 1.9c4.2-1 8.7-.3 12.3 1.9l3.3-.2c4.8-5.8 6.2-7.4 14-5.2q3.2 1 6.5 1.9 6.1 2 12.3 4.3" class="b"/><path d="M13.6 159.7c12.4 3 16 3.7 28.7.5q3.3-.9 6.5-1.8a33 33 0 0 1 6.6-.9c6.4-.2 12.5 2.1 18.9 2.4 1.3 0 2.8.6 4 1 2.2.7 4.4 1.7 6.6 2.1 3.7.3 7.1-1.7 10.7-2.3l2.4-.1q2.7-1.4 5-3.2 5.8-4.3 13-4.9a14 14 0 0 1 8.3 1.6c1.8 1 4 1.7 5.7 2.9 1.3.3 2.8-.1 4.1 0q3 .3 5.8 1.4l3.2-1c1-.5 1.8-1.8 2.5-2.6q1.7-2.2 4.1-3.4c3-1 6 .3 9 .8q4.3.9 8.2 2.4 5.8 1.8 11.5 4" class="b"/><path d="M13.6 157.5q3.3.6 6.5 1.5 4.1 1 8.2 1.4c5.2.2 10.5-1 15.6-2.2 2.7-.6 5.4-1.8 8.2-2.1 5.2-.8 10.5 0 15.6 1.2l6.5 1 3.3 1.2c2.2.6 4.3 1.7 6.6 2 4.2.3 7.6-3.1 11.5-4.1q2-.5 4-.2c1-.2 1.8-1 2.5-1.6q2-1.6 4.1-2.7c4-2 8.7-2.8 13.2-2.4a51.6 51.6 0 0 1 10.7 6.4c2.1.3 2.6-.5 4-1.9q1.6-1.3 3.3-2.3 3.6-1.5 7.4-2.4c1.2-.8 2.6-1.6 4-1.6 2 0 4 .7 5.8 1.2q2.9.6 5.8.9c2.2.3 4.3 1.4 6.5 1.9q6 1.4 11.5 3.7" class="b"/><path d="M13.6 155.4c2.5.1 5 1 7.3 1.7q3.7.9 7.4 1.3c4.1.4 8.2-.6 12.3-1q3.8-1.2 7.4-2 2-.7 4.1-1c5.2-.9 10.5-.1 15.6 1q2.4.7 5 1l4 1.4c2.2.7 4.3 1.8 6.6 2 2.4.2 4.6-1.3 6.5-2.7 3.8-3 6.5-4.7 11.5-3.4 1-.2 1.7-1.1 2.5-1.6q1.6-1 3.3-1.7 3.1-1.3 6.5-1.6 2.4-.4 5-.1c3.4.7 5.4 4 8.1 6q1 0 1.7-.4c.6-.1 1.3-.9 1.6-1.4 1-1.2 2-2.7 3.3-3.6 2.3-1.7 5.4-2.2 8.2-2.4 2.1-.2 4.5-.5 6.6 0 1.9.6 3.8 1.6 5.7 2.1q3.2.8 6.6.5c2.1.4 4.3 1.3 6.5 1.6 4 .6 7.9 1.3 11.5 3" class="b"/><path d="M13.6 152.5q2.8 1.2 5.7 2 5.1 1.6 10.6 2.1c3 .2 6-.5 9-.8 2.3 0 4.5-1.2 6.6-1.7q1.7-.4 3.3-.5 2.4-1 5-1.3c5.7-.6 11.5.8 17.2 2 3 .9 6 2.3 9 3.1 5.7 2.6 9-3.5 13.1-6.3 2.9-2.1 6.7-1.6 9.9-.6 4-2.5 9-4 13.9-3.5 3 .5 4.7 3.4 6.6 5.4l2.4-2c.8-.5 1.9-1.2 2.5-2 1-1.3 2.3-2.6 4-2.8q3-.1 5.8 0 3.8 0 7.4.3c2.6.3 4.9 2 7.4 2.6 2.4.7 5 .3 7.4.2l4 .9c4.7.7 9.6.2 14 2.2" class="b"/><path d="M13.6 150.1q4.8 2 9.8 3.4 4 1.2 8.2 1.3 2.8-.2 5.7-.6 2.6 0 5-1 2.3-1 4.9-1.4c1-.2 2.3 0 3.2-.4 4.5-1.8 9.4-1 14-.3q5 .8 9.8 2.7l5.8 2c1.6.4 3.4.7 4.9-.2 4.1-2.5 6.3-8.2 11.5-9q2.4-.2 5 .4c1.2.2 2.7 1.1 4 .2 3.3-1.2 7.1-2.4 10.7-1.5 2 .7 3.2 3 4.9 4.3q2.5-2.2 5-4.3c1.4-2 2.5-2.2 4.8-1.5q3.2 1.2 6.6 1.4 5.3 0 10.6 1 3.2 1.2 6.6 1.7c1.6.2 3.3-.3 5-.2q3.1.5 6.5.6c4 0 8.4-.6 12.3.9" class="b"/><path d="M13.6 148c5.5 2.1 11.2 4.4 17.2 5q3-.1 5.7-.5 2.6-.1 5-1 2.6-1.5 5.7-1.7c1.3-.2 2.8.3 4-.3 4.8-2 10-.8 14.9 0q4.5 1 9 2.7 2.8 1 5.7 1.8 2.3.7 4.1-.5c4-2.7 6-8.9 11.5-9.3a22 22 0 0 1 8.2 1.2l1.6-.3c5.4-1.4 8.8-2 12.3 3 .6 0 1.3-.6 1.7-1l2.4-2.5c1-1.1 2.4-3 4.1-2.3 1.9 1 3.7 2.3 5.8 2.9 2.6.8 5.5.4 8.2.6 2.7 0 5.5.5 8.2.7q4.5 1.2 9 .9 4.1.3 8.2.2c4 0 8.3-1.1 12.3-.1" class="b"/><path d="M13.6 146.3q4 1.5 8.2 2.6 3.5 1.4 7.3 2c3 .6 6 0 9-.4 1.5-.1 2.9-1 4.1-1.5a16 16 0 0 1 9-1 16 16 0 0 1 10.7-1q3.8.4 7.4 1.5c4 .7 13.4 5.4 16.4 2.6 6.8-6.8 6-10.6 17.2-8.2l2.5.6 2.5-.4c4.1-.7 6.5.4 9 3.8 1.4-.5 2.2-2.3 3.3-3.2 1-1.3 2.1-3.8 4-2.8 1.5.9 2.7 2.3 4.2 3.1 4 2.4 8.7 1 13.1 1.2q5 .2 9.8 1 5.4.5 10.7.5 4.1 0 8.2-.6c2.7-.3 5.5-.8 8.2-.4" class="b"/><path d="M13.6 144.5c3 1 6 2 9 2.8q2.3 1 4.9 1.6 2.4.5 5 .6 2.8-.3 5.7-1c2.4-.6 4.7-2.1 7.3-2.4 2.2-.4 4.4.4 6.6.3q5-2.7 10.7-1.3 5.8 1.1 11.4 2.8c4.5 1.5 7.8 2.1 12.4.8 5.7-6.1 6-9.5 15.5-7.6l3.3.7c2.2-.2 4.6-.3 6.6.7a11 11 0 0 1 2.4 2.1q.6 1 1.7 1.3c.8-1.1 1.9-2.6 2.4-3.8.6-1 1.4-2.3 2.5-2.7 1-.1 1.9.7 2.5 1.3q1.4 1.7 3.2 2.9c3 1.6 6.6 1.4 9.9.8 1.8-.4 3.8-.1 5.7 0q5.4.4 10.7.6a60 60 0 0 0 18-.3c2.4-.4 5-.9 7.4-.7" class="b"/><path d="M13.6 143c1.6.2 3.3.9 4.9 1.3q2.5.7 4.9 1.5a20 20 0 0 0 13.1 1.2c3.3-.7 6.4-2.8 9.9-2.7 1.9 0 3.8.7 5.7.8 1.4-.4 2.7-1.4 4.1-1.8 4.4-1.4 8.9.2 13.1 1.3q2 .7 4.1 1 2.4.7 5 1.3c2.4.5 5-.2 7.3-1.1l3.3-1.1c1.9-2 3.8-4.5 6.6-5.3 3-.6 6 0 9 .7 5 .5 6.5.7 9.8 5 2-2 2.2-5.9 5-7 2.2.3 3.2 3 4.9 4.2 2.3 1.7 5.4 1.7 8.2 1.5 1.3 0 2.7-.6 4-.6q3 .2 5.8.3H153q4.5.5 9 .5 4.5-.1 9-.7 3.7-.7 7.4-.9" class="b"/><path d="M13.6 141.5q2.8.5 5.7 1.4l3.3.8 3.2 1.3q5.9 1.7 11.5-.2c2.2-.8 4.3-2 6.6-2.6 3.3-1 6 .4 9 1.2 10-5.5 12.5-.9 22.2.6 4.4 1.1 6.6 1.2 10.6-1.2q3.6-1.8 7.4-3a9 9 0 0 1 4.1-1.7 23 23 0 0 1 6.6.4q2 .3 4 1c2 .8 3.9 2.3 5.8 3.4 1-2 2-5 4.1-6 2.3.1 3.4 2.8 5 4.2 1.4 1.4 3.7 1.6 5.7 1.6q3.3 0 6.5-.6 8.3.4 16.4-.3a16 16 0 0 1 5 0q3.3.5 6.5.5c5.2 0 10.4-1 15.6-1.4" class="b"/><path d="M13.6 140q4.5.8 9 2.1l3.2 1.4a19 19 0 0 0 11.5-.8c4.1-2.4 8.4-6 13.2-3 1 .4 2.1 1.3 3.3 1.2 2-1.2 4.2-2.3 6.5-2.2q2.5 0 5 .3c2.2.5 4.3 1.7 6.5 2.4q1.6.5 3.3.6c1.6.2 3.3.7 4.9.7 3.8-.2 6.4-3.5 9.8-4.7a24 24 0 0 1 17.3 0q1.7.6 3.2 1.3c.8.3 1.7 1 2.5 1 4.2-8.3 5-3.1 9.8.4 2.3 1 5 .7 7.4.7 2-.1 3.8-.7 5.8-.5h7.3q5.8-.4 11.5-1.2c1.4-.2 2.8.4 4.1.4q2.9.4 5.8.4c4.6 0 9.3-.6 14-1" class="b"/><path d="M13.6 138.5c3.6.7 7.3 1.3 10.6 3 4 1.6 8.4.6 12.3-.6 3.3-1.9 5.8-5.6 9.9-5.8 2.8 0 5 2.2 7.3 3.5 1.8-1 3.7-2.2 5.8-2.3q1.6-.1 3.3.1 2 0 4 .6c2.6.7 4.8 2.5 7.4 3 3.3.1 7 1.6 9.9-.7 6-4.8 9.7-5.7 17.2-4q2.1.4 4.1 1.1l3.3.8c1 .2 2.2 1 3.3.8 4.1-7.6 6 0 10.6 1.8a31 31 0 0 0 9.9-.1h3.2c3-.2 6.1 0 9-.4q5.8-.7 11.6-1.5c3.2.2 6.5 1 9.8 1q6.1-.2 12.3-.6" class="b"/><path d="M13.6 137.2q3.7.6 7.3 1.4 2 1 4.1 1.7c2.4.7 5 .3 7.4-.3 1.3-.4 3-.6 4.1-1.3 3-2.3 5.2-6 9-6.8 3.3-.6 5.9 2.3 8.2 4.1 1.2 0 2.3-1 3.3-1.5q1.6-.6 3.3-.7l5 .4c3.2.4 6 2.4 9 3.7 1.2.5 2.7.3 4 .6 2 .3 4.2.3 5.8-1 6-4.9 8.7-5.4 16.4-3.8q2 .5 4 1.4l6.6 1c4-6.5 7 1.5 11.5 2.4q4.6.8 9-.1 3.4.1 6.6-.2c6.4 0 12.6-1.5 18.9-2.3 1-.2 2.2.2 3.3.3q2.8.5 5.7.6c4 .4 8.2.1 12.3 0" class="b"/><path d="M13.6 135.9q3.3.3 6.5 1.2 2.7 1.4 5.7 2c2.5.2 5-.5 7.4-1.2l2.5-.9 1.6-1.5c3-3.1 6.7-8 11.5-6q1.8 1 3.3 2.4c.7.6 1.6 1.7 2.5 2 3.8-2.7 4.6-2.3 9-2.2 4.2-.3 7.9 2.4 11.5 4.2 1.2.7 2.8.4 4 .7 1.7.2 3.5.4 5-.5 6.4-5 9.2-5.8 17.2-3.4l2.5 1.1 2.4.2c1.4 0 2.9.7 4.1.4 4.1-5.7 7.8 2.3 13.2 2.7q3.7.6 7.3-.1c3 .4 6.1 0 9-.2 6.2-.3 12-2 18.1-2.8 2.7 0 5.5.6 8.2.7q6 .5 12.3.5" class="b"/><path d="M13.6 134.5q2.4.4 4.9.9c2.5 1.3 5.3 2.3 8.2 2.1q3-.2 5.7-1.4c1-.4 2.4-.6 3.3-1.4 2.4-2.3 4.4-5.3 7.4-7 4.8-2.5 8.4 1 11.5 4.4 3.3-2 4-2.8 8.2-2.6 4.7-.8 9.2 2.1 13 4.4l1.7.7q1.3 0 2.5.2c1.6.2 3.4.4 5-.5 2.2-1.4 4.5-3.3 7.3-4 3.6-.7 7.4.7 10.6 2.3l4.1.1c.8 0 1.8.3 2.5 0 2.3-2.6 4.8-1.5 7.4 0q2.7 1.6 5.7 2.6 3.3.9 6.6 0c3.8.8 7.7.5 11.5.1 6-.5 12-2.5 18-3 6.6 0 13.2.9 19.7 1.2" class="b"/><path d="m13.6 133.2 2.4.4 3.3 1.4c5.4 2.3 9.7.4 14.8-1.4 1-.2 1.8-1.3 2.4-2 1.6-1.7 3.1-3.7 5-5.1 5-3.3 9.7-.7 13 3.6l.9.1q2.7-2.7 6.6-2.7c5-1.1 10.5 1.9 14.7 4.3l1.7 1q1.2.3 2.4.2c1.6.3 3.4.6 5-.1 7.2-4.3 8.4-4.8 16.4-1.6 2-.3 4.4.1 6.5 0 2.1-2.2 5-1.3 7.4-.3 3.9 1.5 8 3.9 12.3 2.4q1.6.6 3.3.9 3.3.4 6.5 0c6.2-.3 12-2.2 18-3.2 7.4-1 15 0 22.2.8" class="b"/><path d="M13.6 131.9c3.8 1.6 8 3.4 12.3 2.5q3-.8 5.7-2c1.5-.6 3.2-1 4.1-2.5 2.3-2.8 5-6.4 9-6.4 1.6 0 3.4-.2 5 .5q3.2 1.9 5.7 5c2.9-3.2 4.3-3 8.2-3.6 3.7 0 7.2 1.6 10.6 2.8q2.6 1.1 5 2.5 1.5.8 3.2.8c5 1.3 7.1-2.1 11.5-2.8q2.2-.1 4.1.5c1 .3 2.2 1 3.3.8l3.3-.2 3.3-.1 1.6-.8c1.6-.5 3.4-.1 5 .3l5.7 1.6q2.3.9 4.9 1c1 .1 2.2-.6 3.3-.3q3.1 1.6 6.5 1.6 5 0 9.9-.9c4-.8 8.1-2 12.3-2.6q6-.8 12.3-.2 4.5.1 9 .8" class="b"/><path d="M13.6 131.2c6 2.4 9.6 2.7 15.5-.1l4.1-1.6c1.7-1.1 2.7-3.3 4.1-4.7 3.1-3 5-2.7 9-2.6q1.6-.2 3.3.1 3.4 1.8 5.8 4.7h.8c2-2.4 3.7-2.7 6.6-3.1 2.2-.3 4.4.5 6.5 1q5 1.5 9.9 3.4a20 20 0 0 0 7.3 2q2.2-.1 4.1-1c1.8-.7 3.9-1.3 5.8-1 1 .1 2.2.6 3.3.6q3.7-.7 7.3-.7 2-1 4.1-.8c3 0 6.1 1 9 1.6q2.1.6 4.2.8 1.6-.1 3.2-.5c4 2.1 7.1 2.5 11.5 2.2 5.6-.1 11-2.2 16.4-3q7-1.1 14-.4l9 .4" class="b"/><path d="M13.6 130.4c8 2.6 11.5-.6 18.8-3 2-1.9 3.2-4.7 5.8-6 2.5-1.4 5.5 0 8.2-.3 1.3-.2 2.8-.6 4 0q3.2 2 5.8 4.7c1.7-1.6 3.3-3 5.7-3.1 2.5-.8 5 .1 7.4.8q5.3 1.7 10.7 3.2c2.6.9 5.4 2 8.2 2.2 1.6 0 3.3-.7 4.9-1s3.3-.2 5-.2q3.1-.7 6.5-.8 2-.2 4-.8 2.2-.3 4.2-.2 4.5.6 9 1.6 1.6.4 3.3.3 1.2-.2 2.4-.5c1.9.9 3.8 2 5.8 2.4q4.5.8 9 0c4.2-.4 8.2-2 12.3-2.7 1.6-.3 3.3-.1 5-.3q2.4-.2 4.9-.2 6.9.6 13.9.7" class="b"/><path d="M13.6 129c6.8 1.6 11.8-2 18-4 2.2-2.4 4.2-6.4 8.2-5.6 1.6.2 3.3 1 5 1 1.6 0 3.2-.8 4.8-1 3 .3 5 3.4 7.4 4.8q1.6-2 4.1-2.8 1.6-.2 3.3-.4c2 .1 3.9.9 5.7 1.4l10.7 3c5.3 1.3 7.5 2.7 13.1 1.4 2-.2 3.9-.8 5.8-1q2.8-.5 5.7-.5 1.6-.2 3.3-.7 2-.5 4-.3 4.2.3 8.3 1.2c2.1.4 4.5.7 6.5-.2 3 1.4 5.8 3 9 3q4.2.3 8.3-.5c2.7-.5 5.4-1.6 8.2-2.2 1.5-.3 3.3.2 4.9 0q3.3-.2 6.5-.6l6.6.8h7.4" class="b"/><path d="M13.6 127.2c6.1.8 11.5-3 17.2-4.6 4.5-5.2 4.8-5.8 11.5-3.3q2 .7 4 0c1.4-.3 2.8-1.1 4.2-1.1 2.9.4 4.8 3.1 7.4 4.4a7 7 0 0 1 4-2.5c1-.1 2.3-.6 3.3-.4 2.5.3 5 1.4 7.4 2q7 1.9 14 3.6c4 .8 8.2-.6 12.3-1.3q3.7-.5 7.3-.5 2.4-.8 5-1c3.3-.2 6.6.6 9.8 1.1 1.9.3 3.9.8 5.8.3 1.1-.5 2.2 0 3.2.6l3.3 1.4c5.7 1.8 11.8.5 17.2-1.4l1.7-.5 4 .5q4.2.1 8.3-.7c1.8-.4 3.8.5 5.7.7q4.1.3 8.2 0" class="b"/><path d="M13.6 125.1c5.5.1 10.3-3.3 15.5-4.7 1-.1 1.9-1.2 2.5-1.9.8-1 2-2 3.3-2.2 3.2 0 5.8 2.6 9 2.6 1.7 0 3.4-.8 5-1.5 1.5-.8 3.4-.5 4.8.4q2.6 1.3 5 3.1 2-2.2 4.9-2.2 1.2-.4 2.4-.3c2.3.4 4.4 1.4 6.6 2a223 223 0 0 0 14.8 3.3c3.3.2 6.6-.8 9.8-1.4q3.7-.8 7.4-.6h2.4l3.3-1q2.9-.4 5.8.1c3 .5 6 1.4 9 1.7q1.2 0 2.4-.3 1.3-.5 2.5.3c7.5 4 13.7 2.7 21.3-.1 4.8 1.6 10 1.2 14.8-.1 2.2.2 4.4 1 6.6 1 1.9.2 3.9 0 5.7.5" class="b"/><path d="M13.6 123c5.2-.4 9.7-3.6 14.7-5 1-.1 1.9-1 2.5-1.6q1.3-1.5 3.3-1.7c1.4.1 2.8 1 4 1.8 1.8.9 3.8 1.7 5.8 1.6 2-.2 3.9-1.4 5.7-2.2 3.5-1.2 7 1.6 9.9 3.1q1.3-1.2 3.3-1.6l3.2-.3c2.6.3 5 1.4 7.4 2l8.2 1.7q2.8.9 5.8 1c3.3.1 6.6-1 9.8-1.6q4.1-.7 8.2-.5c1.7.2 3.3-.6 5-1a15 15 0 0 1 5.7 0c3.2.6 6.5 1.9 9.8 2.1.7 0 1.8-.1 2.5-.3q.8-.3 1.6-.1c2.8 1.4 5.8 2.7 9 2.8a34 34 0 0 0 11.5-2 20 20 0 0 0 11.5 1.1q2-.4 4.1-1c.7-.3 1.8-.4 2.5 0q4.7 1.7 9.8 2.9" class="b"/><path d="M13.6 121c5.2-.7 9.6-4.1 14.7-5.4 1.6-.8 3-2.7 5-2.4 1.4.3 2.8 1.3 4 2q3 2 6.6 1.7c2-.4 3.9-1.6 5.7-2.3 2.5-1 5.1.2 7.4 1 1.1.4 2.2 1.5 3.3 1.4q2.3-1.3 5-1c2.7-.5 5.4 1 8.1 1.6q4.1 1 8.2 1.6a19 19 0 0 0 9.9.3q3.7-.9 7.3-1.5c2.5-.3 5-.1 7.4-.2 1.4-.3 2.8-1.1 4.1-1.4 3.3-.9 6.7.2 9.9 1.1 2.4.7 4.8 1.7 7.3 1.6 1.1 0 2.3-.7 3.3-.5a21 21 0 0 0 9.9 2.7c2.7 0 5.5.1 8.2-.7q1.2-.4 2.4.2 1.7.8 3.3 1.2c4.9 1.4 9.3.5 14-1.1 1.3.3 2.7 1.2 4 1.7q2.9 1.1 5.8 1.9" class="b"/><path d="M13.6 119c5.2-.7 9.6-4.3 14.7-5.6 1.4-1 3.1-2.3 5-1.5 3.5 1.5 5.4 4 9.8 3.4 2.5-.3 4.8-1.9 7.4-2.3 3.3-.3 6.9.9 9.8 2.4q1.6-.6 3.3-.8 1.6.1 3.3 0c2.5.1 4.9 1.2 7.3 1.7q3.3.7 6.6 1.1c3 .7 6 1.3 9 .7 2.8-.4 5.5-1.4 8.2-1.8q3.7-.3 7.4-.3c3.2-1.6 6.1-3.2 9.8-2.2 4.2.9 8 3.2 12.3 3.6 1.4.2 2.9-.6 4.1-.4 2.9 1.3 6 2.4 9 2.5q4.6 1 9-.2a24 24 0 0 0 20.6 1.8q3.9 2.2 8.2 3.4" class="b"/><path d="M13.6 117.1c3.5-.4 6.6-2.3 9.8-3.8l5-2c1-.4 2-1.2 3.2-1.2 1.8 0 3.4 1.2 5 2q2.5 1.5 5.7 1.2l4-1c1.7-.1 3.4-.7 5-.8q4.2.2 8.2 1.7l1.6.5a8 8 0 0 1 2.5-.5c1 0 2.2.3 3.3.1q2 0 4 .6c3.8 1.1 7.7 1.5 11.5 2.2q2.9.6 5.8.4c2.2-.1 4.4-.8 6.5-1.3q4.5-1 9-1c2.5-1 4.6-3.2 7.4-3.5 4.4-.3 8.3 2.2 12.3 3.5 2.6 1 5.5 1.9 8.2.8 2 .6 3.8 1.7 5.8 2q1.6.5 3.3.7a19 19 0 0 0 7.3.7c.8 0 1.8-.4 2.5 0 6.4 4 14.1 4.5 21.3 2.9q3.2 1.6 6.6 2.5" class="b"/><path d="M13.6 115.2c3.2-.3 6.1-2 9-3.4q4.4-2.1 9-3.3c2.3-.1 4.4 1.5 6.5 2 1.9.6 4 .2 5.8.7 2.6.7 5-.9 7.4-1.1a38 38 0 0 1 9.8 2.1q1.6-.2 3.3-.2 2 .1 4 0 2.6.4 5 1l5.7 1q3.8.7 7.4.8 4.2 0 8.2-1.3a36 36 0 0 1 7.4-1c.8-.2 1.8-1 2.5-1.5 2-1.6 4.5-3.5 7.3-3.2 4.7.7 8.8 3.2 13.2 4.7q2.3 1 4.9 1.1c1 0 2.3-.6 3.3 0q3.6 1.5 7.4 2.2c3 1.3 6.5 1.4 9.8 1.2 2 1.2 4.2 2.5 6.6 3q5.6 1.4 11.4 1.4l5-.1 4.9 1.4" class="b"/><path d="M13.6 113.3c5-.4 9.1-4 13.9-5.3a13 13 0 0 1 7.4-.7q2 .7 4 1 2.1 1 4.2 1.6c2.5.6 5-.7 7.4-1.2 2.7-.1 5.5.7 8.2 1.2l3.2 1 1.7-.2q1.2 0 2.4.2 1.6-.2 3.3 0c5.7.7 11.5 2 17.3 2.2 4.7.1 9.2-1.8 13.9-2 2.6-1.7 4.6-4.2 7.4-5.6 2.7-1.3 5.6 0 8.2 1q3.3 1.3 6.5 2.8c2.9 1.1 5.9 2.8 9 2.3 1.1-.3 2.3.3 3.3.7l3.3.9c1.7.2 3.3 1 5 1.5q3.1 1 6.5 1c1.2-.2 2.3.9 3.3 1.3a17 17 0 0 0 4 1.7c3 .7 6.1.6 9.1 1 4 .7 8.3.7 12.3 1.5" class="b"/><path d="M13.6 111.4c3.5.1 6.7-1.7 9.8-3.2 3.8-1.9 8-3.5 12.3-2.3 3.5.9 7 3.2 10.7 2.2 1.6-.4 3.2-1.1 4.9-1l8.2 1.7c1.3.2 2.7.8 4 .7h5q5 .3 9.9 1.3 4.8.6 9.8.4 3.3-.5 6.6-1 2-.2 4-.6c3.7-2.5 6.6-8.2 11.5-7.4 2.6.4 5 1.6 7.4 2.6q5 2.3 9.9 4.2 2.8 1 5.7.7 3.2 1 6.6 1.7 2.4.9 4.9 1.8 2.8.7 5.7 1c2 1.2 4.2 2.5 6.6 3 3.2.6 6.6 0 9.8.3 3.8.6 7.7 1.6 11.5 1.9" class="b"/><path d="M13.6 109.6c7 .7 12.6-5.7 19.6-5.6 3.4 0 6.5 1.9 9.9 2.1 2.4.3 5-.7 7.4-.5q4.8 1.1 9.8 1.9c1.9.2 3.9 1 5.7.7 4.7-.5 9.3 1.1 14 1.3 2.7 0 5.5.2 8.2-.2 2.4-.3 4.9-1 7.4-1 1.7.2 3-1.3 4-2.4 3.4-3.5 6-8.1 11.6-6 6 2.3 11.9 5.3 18 7.5 1.8.7 4 .3 5.7.8q2.9.8 5.8 1.2a40 40 0 0 0 9 3c1.4.5 2.7 1.5 4.1 2 3.9 2 8.2.7 12.3.5s8.2 1.7 12.3 1.9" class="b"/><path d="M13.6 107.7c7 1.4 12.2-4 18.8-5.1 3.3-.6 6.6.8 9.9 1.1 3 .4 6-.3 9 .7q6.5 1.5 13.1 2.2 2.4-.1 5 .2c4 .6 8.1 1.4 12.2 1.2l5.8-.4c2.4-.4 4.9-1.1 7.4-1.1 2.2 0 3.6-2.3 4.9-3.8 3.4-4.6 5.4-7.5 11.5-4.9q9.3 4 18.8 7.8 2.9.7 5.8.7l3.3.6c2.3 0 4.4 1.5 6.5 2.3 1.3.5 3 .8 4.1 1.5 2.7 1.7 5.8 3.2 9 3s6.5-1.8 9.9-1.6c3.3 0 6.5 1.4 9.8 1.3" class="b"/><path d="M13.6 105.8c8.7 2 12.6-3.3 20.5-4.7q3.7-.4 7.3.4 3.4.2 6.6.7l6.6 1.5 9 1.2c3.3 0 6.6.9 9.8 1.4q5 .6 9.9 0c3.6-.2 7-1.4 10.6-1.7 3.2-1 4.8-4 6.6-6.6 3.6-5.6 7.3-3.5 12.3-1.3q5.7 2.4 11.5 4.5c2.7 1 5.4 2.4 8.2 3s5.5.3 8.2.6c1.1 0 2.3.9 3.3 1.3q3 1.3 5.7 3.1c2.7 1.5 5.8 2.9 9 2.4 3.6-.6 7-2.6 10.7-2.7 3 0 6 1 9 .8" class="b"/><path d="M13.6 103.8c8 1.8 10.8-.3 18-3 4.8-1.7 9.9-1.2 14.8-.3 2.7.4 5.4 1.3 8.2 1.7q5.3.8 10.6 1.4c2.5.4 5 1.2 7.4 1.5 4.4.6 8.8-.2 13.2-.9 2.1-.3 4.3-1 6.5-1.3q2.3-.7 4.1-2.4c3.1-3.4 4.7-10.4 10.7-7.7 2.3.8 4.2 2.9 6.5 3.7 2.7 1 5.6 1 8.2 2 4 1.1 7.6 3 11.5 4q4.1.7 8.2 1c1.2 0 2.3 1 3.3 1.4q3.2 1.9 6.6 3.5a12 12 0 0 0 9 .5c3.7-1.3 7.4-3.5 11.5-3.2 2.1 0 4.4.5 6.5.2" class="b"/><path d="M13.6 101.7c4.6 1.2 9.3 1.6 13.9-.2q4.1-1.4 8.2-2.7c2.4-.8 5-.6 7.4-.3q4.5.6 9 1.7c3.8.8 7.7 1.1 11.5 1.8 2.7.5 5.4 1.6 8.2 2q5 .5 9.8-.7l9.9-2.1c7.9-2.8 6.9-13.5 14-10.3 1.2.4 2.3 1.5 3.2 2.4q3.1 3 7.4 3.4c3.6-.1 7.2.8 10.6 1.7 2.8.8 5.5 2 8.2 2.6q3.8.7 7.4 1c3.3 1.7 6.4 3.8 9.9 4.9 4.4 1.5 8.4-.3 12.3-2.4q3.4-1.8 7.3-2.1h4.1q1.4.1 2.5-.4" class="b"/><path d="M13.6 99.7c11.5 3 13.3.6 23.7-2.6 2.2-.5 4.5-.1 6.6.1q5.4.8 10.7 2 4.9.7 9.8 1.7c3.7 1.4 7.5 2.6 11.5 2q5-1 9.8-2.2 3-.7 5.8-1.6 3-1.6 4.9-4.5c1.6-2.5 3.5-7.8 7.4-5.4 2.2 1 3.7 3 5.7 4.3 2.4 1.7 5.4 2 8.2 2.4 3.5.7 7.2.4 10.7 1.3q3.3 1 6.5 2c2.7.7 5.6.9 8.2 1.7 4.3 2.3 9 5.1 14 4.2 4.2-.9 7.5-4 11.5-5.3 2.3-.8 5-.6 7.4-.8q1-.8 2.4-1.2" class="b"/><path d="M13.6 97.8c3.2.6 6.5 1.6 9.8 1.6 4.9 0 9.3-2.2 14-3.5 2.3-.6 5-.2 7.3 0l9.9 1.8q2.8.6 5.7 1.3 2.5.6 5 1c4.5 2.2 8.3 2.2 13 .8L89 98.1c3.3-.7 5.9-3.5 7.4-6.4 1.2-2 2.8-5.7 5.7-4.3 2.5 1 4.3 3.2 6.6 4.6 2.5 1.5 5.4 2 8.2 2.5 3.7 1 7.7.9 11.5 1.3q3.3.6 6.5 1.6 3.3.8 6.6 1.4c1.8.2 3.3 1.4 5 2.1 3.4 1.8 7.6 3 11.4 1.5 3.8-1.4 6.8-4.4 10.7-5.7q2.8-.8 5.7-.8 1.9-1.2 4.1-1.4" class="b"/><path d="M13.6 96.1c2.7.1 5.4 1.2 8.2 1.4 5.8 1 10.9-1.5 16.4-3 2.4-.5 5 0 7.3.3q4.3.5 8.2 1.4c2.5.5 5 1.5 7.4 2.1q2.5.6 5 1 1.5.7 3.2 1c3.6.8 7.3-.7 10.7-1.7 3.2-1 6.6-1.6 9.8-2.6 2.5-1 4.5-3.2 5.8-5.5 1.2-2 2.7-5.7 5.7-4.5 2.2.7 3.8 2.6 5.7 3.8 2.5 1.5 5.4 2.1 8.2 2.7q3.8.9 7.4 1.5 3.3.5 6.6.6c3.6.5 7 1.6 10.6 2.2l3.3.7q1.2.7 2.5 1.3c3.5 1.8 7.7 3 11.5 1.4 3.8-1.5 6.8-4.7 10.6-6.2q2.8-1 5.8-1a10 10 0 0 1 4.9-1.2" class="b"/><path d="M13.6 94.6c2.7-.3 5.4 1 8.2 1.3 6.8 1 11-1 17.2-2.6q3.7-.4 7.4.4 3.3.4 6.5 1.1c2.8.7 5.5 2 8.2 2.8q2.9.7 5.8.8l2.4.7c3.7.5 7.2-1.2 10.7-2.3 3.2-1 6.6-1.6 9.8-2.7 2.6-1 4.3-3.6 5.8-6 4.1-7.1 6.4-2.3 11.4.3q3.7 1.4 7.4 2.2c5.2 1.1 10.3 2.4 15.6 2.7q5.8 1 11.5 2c1.5 0 2.8 1.1 4.1 1.7q2.8 1.5 5.7 2c6 .6 10-4.7 14.8-7.4q3.5-1.8 7.4-1.6a13 13 0 0 1 5-.6" class="b"/><path d="M13.6 93c2.7-.4 5.4 1 8.2 1.2 6.9 1.4 11.5-.7 18-2 2.2-.4 4.4 0 6.6.3q3.3.4 6.5 1.4 3.3 1.2 6.6 2.5 4.4 1.4 9 1.2c4 .9 7.8-1.4 11.5-2.7 8-2.6 10.5-.6 15.6-8.7 3.7-5.8 6.2-1.6 10.7.4 3.3 1.4 7.1 1.8 10.6 2.8q11.8 2.7 23.8 4l1.6.2 2.5 1.3a25 25 0 0 0 5 2c7.6 2.1 11.5-7 18-9.1 3.4-1 7.1-.5 10.6-.4" class="b"/><path d="M13.6 91.1c1.3-.2 2.7.3 4 .6l4.1 1.1c6.1 1.7 12.2-.5 18.1-1.7A33.5 33.5 0 0 1 52.9 93q3.7 1.6 7.4 2.7 5.7 1.4 11.5.5c2.9-.6 5.5-2.2 8.2-3.2 8.5-2.7 9.7-.2 15.6-8.5 3.4-5 6.6-.7 10.7.6q3.2.9 6.5 1.5 3.8.8 7.4 1.8 2.9.8 5.7 1 3.7 1.2 7.4 1.6l8.2.8c1.7.6 3.3 1.7 5 2.3 10.8 5.3 12.5-5.1 20.4-8.8 3.7-1.1 7.8-.5 11.5 0" class="b"/><path d="M13.6 89.2c2.5.2 4.9 1.7 7.3 2.4 6 1.9 12.2-.2 18-1.5 4.5-1 9 .1 13.2 1.5 2.7.9 5.4 2 8.2 2.5q5.8 1 11.5.3c2.9-.7 5.5-2.4 8.2-3.4 2-.8 4.4-1 6.6-1.5 4.1-.4 6.4-3.8 9-6.6 3.2-4.3 6.8-.4 10.7.4q4 .9 8.2 1.6c3 .7 6 1.8 9 2.4l4.9.7q2.8 1 5.7 1.4l6.6.4 4 2c7.3 3.4 10.5 2.7 15.7-3.3 1.9-2.1 3.8-4.6 6.5-5.6 3.7-1 7.8-.4 11.5 0" class="b"/><path d="M13.6 87.7c2.6 1.3 5.2 3 8.2 3.5 5.5.8 11-1.3 16.4-2.3 4.3-1 8.9-.3 13 1q3.3 1 6.6 1.9 3.8.6 7.4.7h5q1.7.2 3.2-.4c2.5-1 4.9-2.4 7.4-3.3q3.2-.7 6.6-1.3c3.1-.4 5.2-3.1 7.3-5.2 1.2-1 2.4-2.6 4.1-2.6 2.6 0 5 1.4 7.4 1.9 3 .6 6.1.8 9 1.6 3.3.8 6.6 2 9.9 2.7q2.4.6 5 .4c1.8.5 3.7 1.3 5.6 1.5l3.3.2c2.5.9 4.9 2.4 7.4 3.2C157.8 95.7 159 85 167 81c3.7-1.1 7.7-.5 11.5 0" class="b"/><path d="M13.6 87.4a17 17 0 0 0 8.2 2.8c4.7 0 9.3-1.7 13.9-2.5q7-1.7 14 .1c2.7.6 5.4 1.6 8.2 1.9 3.2.3 6.5.1 9.8.3l5.7.2c2.6-.8 4.9-2.5 7.4-3.2 2.1-.6 4.4-.7 6.6-1.3q2.9-.5 4.9-2.6 2.3-2.2 5-4c2.8-1.6 6 .4 9 .7l7.3 1q4.2 1 8.2 2.4c3.2 1.1 6.5 2 9.9 1.5q1.2.1 2.4.7 1.6.5 3.3.7c1.4.4 2.7 1.5 4 2a25 25 0 0 0 9.1 2.5c3.8-.2 7.4-2.3 9.9-5.2 2.1-2.3 4.3-5.1 7.3-6.2 3.5-1 7.2-.5 10.7.1" class="b"/><path d="M13.6 87.2c2.7 1.4 6 2 9 1.3 3.8-.9 7.6-2.1 11.5-2.6a38 38 0 0 1 14.7 0c2.7.5 5.5 1.3 8.2 1.5 3 .2 6-.2 9-.2q4.2.1 8.2.5c1.5 0 2.8-1 4.1-1.5 3.7-1.7 7.8-1.4 11.5-2.8 3-1.9 5.6-4.9 9-6q2.6-.3 5 .3l5.7.7c6 .5 11.6 2.9 17.2 4.6q3.2.8 6.6.4c1-.1 2.3.5 3.3.8.6.6 1.7 1.3 2.4 1.7q4 2 8.2 2.8C153 90 157.4 85 162 82.4c1.8-1.5 3.6-3.4 5.8-4.3 3.3-1.4 7.2-.8 10.6 0" class="b"/><path d="M13.6 86.7c5.6 1.9 10.9-2 16.4-2.9q6-1 12.3-.6c4.4.2 8.7 1.4 13.1 1.8 3.3.3 6.6-.3 9.8-.5 3.6-.3 7.2.4 10.7.8a29 29 0 0 1 5.7-1.9c3-.5 6.3-.6 9-2 3.2-2 6.1-4.9 9.9-5.4q3.3 0 6.6.4 4.1.3 8.2 1.1c4.8 1 9.2 3.4 14 4.4q2 .4 4 .2c.7 0 1.8-.1 2.5.1 3.3 3.4 8.4 5 13.1 4.9 3.5-.3 6.4-2.8 9-4.9q2.7-2.2 5.8-3.6 1.6-.5 3.2-.8c3.5-2.3 7.8-1.6 11.5-.5" class="b"/><path d="M13.6 85.5c5 .5 9.2-3 13.9-4.2 4.6-1.3 9.3-.5 14-.3 3.6-.2 7 1.4 10.6 1.6 5.5.8 11-1 16.4-1q4.2.4 8.2 1.4L80 82c3.6-.6 7.3-.7 10.7-2.2 1.8-1 3.8-2.4 5.7-3.4 3.8-2.2 7.2-2 11.5-1.6 6.5.1 12.8 2.1 18.9 4.6q3.5 1.4 7.3 1.3c1.3 0 2.2 1.2 3.3 1.6a20 20 0 0 0 9.9 2.9c7.2.2 10.6-8.1 17.2-9.7a9 9 0 0 1 5 .5c1-.1 2.1-.5 3.2-.4q3 .3 5.7 1.1" class="b"/><path d="M13.6 83.6c3-.2 5.6-1.8 8.2-3.1 5.5-3.3 11-2.9 17.2-1.8a24 24 0 0 1 12.3 1.8q3.2.5 6.6 0c4.3-.6 8.7-1.8 13-1.2 2.6.3 5 1.2 7.5 1.5 2.4-.6 5-.6 7.3-1 6-.8 10.6-5.4 16.4-6.3a47 47 0 0 1 14.8.8c4 .8 7.7 2.5 11.5 3.8q2.8 1 5.7 1 2 1.3 4.2 2.2c3.7 1.7 8.2 2.5 12.3 1.4 6.1-2.3 9.6-11.2 17.2-9.3q2.2.5 4 1.9 3.4.3 6.6 1" class="b"/><path d="M13.6 81.4c4.9-1.2 8.8-5.2 13.9-5.8 3.3-.5 6.6.2 9.8.8 1 .1 2.3-.3 3.3-.3q2.5-.1 5 .2c2.7.4 5.5 1.5 8.1 2.3q2.5.1 5-.4c4.3-.5 8.7-1.9 13-1.1q3.8.7 7.5 1.7l3.2-.2q4.2-.3 8.2-1.6c3.3-1.3 6.5-3 9.9-4.2a30 30 0 0 1 10.7-1c6 .2 11.7 2.1 17.2 4.4q2.8 1 5.7 1.4a15 15 0 0 0 3.3 1.7c3.4 1.3 7 2.2 10.7 1.7 1.6-.3 3.5-.4 4.9-1.4 3-2 5-5.3 8.2-7.2 5-3 8.9-.1 13.1 2.7q2 0 4.1.4" class="b"/><path d="M13.6 79c7.5-2.8 9.5-7 18.8-5.5q2.1.4 4.1.9 4.5-1.2 9-.5c3.4.4 6.6 1.7 9.9 2.5 1.3.4 2.8-.2 4-.3 2.5-.3 5-1 7.5-1.3q3.3-.2 6.5.4c2.8.4 5.5 1.7 8.2 1.8q4.2-.2 8.2-1.2c3.6-1.1 7.1-2.8 10.7-4a37 37 0 0 1 23 .5c3 1 5.9 2.5 9 3.2 1.1.1 2.3.8 3.3 1.3l3.2 1.1q5.7 2 11.5.6l2.5-.6q1.7-1.2 3.3-2.8c3-3.3 6.6-6.8 11.5-5.3 2.7.9 4.9 2.9 7.3 4.2l2.5.2.8-.5" class="b"/><path d="M13.6 76.5c5.5-2 9.1-5.7 15.5-5 2 0 3.9.8 5.8.8q6-1.4 12.3-.5c3.6.6 7 2 10.7 2.4q1.6 0 3.2-.4c5-1 9-1.7 14-.3 2.4.6 4.9 1.5 7.4 1.7 6.5 0 12.6-2.8 18.8-4.6 7.1-2.5 15-2.4 22.2-.3q3.8 1.2 7.4 2.8c2.7.8 5.4 2 8.2 2.8q5.6 2.2 11.5.6c1.3-.3 3-.2 4-1.3 3.5-2.8 6.5-7.7 11.5-7 2.8.3 5 2.1 7.4 3.4 1.2.7 2.7 1.5 4.1 1l.8-.8" class="b"/><path d="M13.6 73.7C18 72 22.5 69.3 27.5 70c1.6 0 3.4.8 5 .3q3.6-.8 7.3-.8 3.7-.3 7.4 0c3.6.5 7 1.7 10.6 2.2q2.1.2 4.1.2c3-.7 6-1.4 9-1 5 .3 9.8 2.9 14.8 2.4q4.3-.5 8.2-1.7c5-1.2 9.8-3 14.8-3.8 11.8-2 18.9 2.2 29.5 5.9 4.8 1.8 8 2.4 13.2 1.1l2.4-.4q1.3-.8 2.5-2c2.8-2.7 6.2-6.4 10.7-5.2 2.9.8 5.3 2.9 8.2 3.7.6.4 1.7.5 2.4.2l.8-.8" class="b"/><path d="M13.6 70.7c2.9-1 5.9-2 9-2.2 1.6-.2 3.3.3 4.9 0 4.5-1.2 9.3-1 14-1.2a48 48 0 0 1 13 1.3q4.6.6 9 1C74 66.5 79.8 72.8 89 71q2.5-.5 5-1.2l9-1.8a41 41 0 0 1 18.8-1.9c6.6 1.2 12.6 4.2 18.9 6.3 4.2 1.5 7 1.8 11.5.8 5.3-.6 7.6-8.7 14.8-7 3.6.8 6.8 3.6 10.6 3.2l.8-.6" class="b"/><path d="M13.6 67.5q4.4-1 9-.5 2.8-.8 5.7-1.2c3.3-.5 6.6-.3 9.9-.2l7.3-.1c3.6 0 7.2.7 10.7 1q4.1.4 8.2 1 3.2-.8 6.6-.6c5.8.3 11.3 3 17.2 2.5 3.6-.2 7-1.7 10.6-2 4.5-.4 8.8-2 13.2-2.7q5.7-1.2 11.5-.2c6.2 1.3 12 3.9 18 6.2q3.2 1.2 6.6 1.6 2.5-.1 4.9-.5c6.1-2.7 8.5-9 16.4-5.8 2.8 1 6 2.6 9 1.5" class="b"/><path d="M13.6 64.5q2-.1 4 .2c1 .1 2.3.6 3.3.4q6.5-1.8 13.2-1.3c5.4.7 11-.1 16.4.2L61 65q2 .4 4.1.5l3.3-.4c6.4-.4 12.5 2.3 18.9 2.7 3.6.2 7.2-.7 10.6-1.6 4.5-.3 8.8-1.5 13.2-2.5 4-.8 8.2-1.6 12.3-1q5 .9 9.8 2.7c2.8.8 5.5 2.2 8.2 3.3 16.7 7.2 15.4-7.2 28-3.6 2.8.9 5.9 1.6 9 1" class="b"/><path d="M13.6 61.8q2.4.5 4.9 1.4c1.3.7 2.7 0 4-.2q3-.6 5.8-.7c4.1 0 8.2.6 12.3.6 4.1-.1 8.2-.7 12.3-.4q6.2.5 12.3 1.3a46 46 0 0 1 11.5.3c5 .5 9.8 2.3 14.8 2.1a31 31 0 0 0 8.2-1.5c5-.5 9.9-1.8 14.8-2.9 4-.7 8.2-1.4 12.3-.3q3.8 1 7.4 2.2 3.3 1 6.5 2.7C156.4 74 156 64 167 63.8q3.3.4 6.5 1 2.5 0 5-.3" class="b"/><path d="M13.6 59.7c1.9.7 3.8 1.8 5.7 2.4 3-.3 6-.9 9-.8q6.6.4 13.1.4c3.6 0 7.2-.8 10.7-.7 4.1 0 8.2.7 12.3 1q6.6 0 13.1.4c4.2 0 8.2 1.5 12.3 2.2 4.2.5 8.4-.4 12.4-1.6q4.9-.6 9.8-1.9c2.7-.6 5.4-1.4 8.2-1.5q3-.5 5.7-.1c3.1.4 6 1.7 9 2.6q1.7.4 3.3.9l2.5 1.3c2.8 1.5 5.8 3 9 3.5 5 .7 9.3-3 14-4.1q3.2-.7 6.5-.8c2.7.1 5.5.5 8.2.2" class="b"/><path d="M13.6 58.4q2.6 1.7 5.7 2.3c6.2-3.5 10-2 16.4-.4 2.1.4 4.4 0 6.6.2 4 0 8.2-1.2 12.3-1q2.8.1 5.7.6 3.7.2 7.4.2c3.5.1 7.1.6 10.7.3 4-.3 7.7 1.2 11.5 2.1 7 1.5 13.6-1.6 20.5-2.5 2.4-.4 4.9-1.4 7.3-1.9q4.1-.7 8.2-.6c3.2.3 6 1.7 9 2.5 1.6.5 3.5.6 5 1.3 3.1 1.8 6.2 4 9.8 4.7 3 .7 6.3-.2 9-1.5 3.4-1.7 6.7-4.2 10.7-4.1 3 .1 6 1.2 9 1" class="b"/><path d="m13.6 57.7.8.2 4.9-1.6q1.6-1 3.3-1.3a44.1 44.1 0 0 1 14 3 11 11 0 0 0 4.8 1q4.5.2 9-.7 4.2-.6 8.3.2c1.5.2 3.3 0 4.9.2q5.8-.4 11.5.1c2.1.4 4.4-.2 6.5-.1 2.9 0 5.6 1.2 8.2 2.1q2.9.9 5.8.7c4.4 0 8.8-1.2 13-2.4 3.8-.1 7.2-2 10.8-2.6q4.4-.9 9-.2c2.2.5 4.4 1.5 6.5 2q2.5.7 5 1.1c1.4.4 2.8 1.6 4 2.3q2.8 1.9 5.8 3c8.1 2.8 11.6-6.6 18.9-6.8 3.3 0 6.4 2.2 9.8 2" class="b"/><path d="M13.6 54c2.7-1.5 5.8-3 9-2.7 5.3.6 10.6 2.7 15.6 4.7 6 3.2 11 .4 17.2.6q1.2 0 2.5.3l2.4-.2 4.1.3q2 0 4.1-.3 2-.6 4.1-.8 3 0 5.7.4a17 17 0 0 1 5 .4l4 1q2.5 1 5 1.8c3.8.8 7.7.3 11.5-.4q4.5-.9 9-2c3.5-1.1 7-2.6 10.7-2.6q2.8-.1 5.7.3c2.7.8 5.4 2 8.2 2.3q2 .2 4.1.7c3.2 2 6.2 4.6 9.8 5.7 7.3 1.7 10.3-8.8 17.3-8.5 3.4.3 6.3 3 9.8 2.8" class="b"/><path d="M13.6 49.7c4.5-3 8.6.4 13 1.5 2.7.7 5.6 1 8.3 1.7 2.5.6 4.9 1.8 7.4 2.6q2 .4 4 .4 3-.2 5.8-.8a18 18 0 0 1 5 0c1.5 0 3.2-.3 4.8 0q1.7.4 3.3.2c2-1 4.3-2.1 6.6-2.4 2.8-.4 5.5.5 8.2 1 3 .3 6 1.5 9 2.1q2.3 1.2 5 1.8c6.5 1.3 13.2-.7 19.6-2.3 3.5-1.2 7-2.5 10.7-2.5q2.4-.2 4.9.2c2.2.5 4.3 1.6 6.6 2q2.8.3 5.7.5c2.2.8 4 2.5 5.7 4 9.9 9 12.9-8.3 22.2-7.2 2.4.2 4.3 2.2 6.6 2.6h2.4" class="b"/><path d="M13.6 46.5c1.8 0 3.4 1 4.9 2q2.3 1.6 4.9 2.5c4.8 1.5 10-.4 14.8 1.3 3.1 1 6.4 2.5 9.8 2 3-.6 6-1.4 9-1q2.4-.3 5 .1C66 54.7 67 48 77.4 51q6.2 1.7 12.3 3.2c1.4.3 2.8 1.2 4.1 1.6q4.5 1.3 9 .5c4.5-.6 8.8-2 13.2-3a28 28 0 0 1 11.5-1.6c3.2-.3 5.9 2 9 2.2 1.9.3 3.9 0 5.7.2q1.3.8 2.5 1.7c3.8 4.1 7.2 7.5 12.3 2.8 3.5-3 6.4-7.9 11.5-8.1q2.2 0 4.1.8c.7.3 1.7 1 2.5.8q1.6-.3 3.2-.2" class="b"/><path d="M13.6 46.2c6.9 5.7 9.1 6.3 18 4.5a16 16 0 0 1 8.2.6c8.5 3 7.8.7 15.6.2 2.2.2 4.4-.4 6.6.2 1.2.6 2.3-.4 3.2-1.1q1.6-1.2 3.3-2c2.9-1.2 6.1-.5 9 .2q3.4.8 6.6 1.8 3.7 1 7.4 1.8l4 1.8c3.7 1.5 7.8 0 11.6-.7q4.8-1.1 9.8-2c2.7-.6 5.4-1.3 8.2-1.2h3.3q1.2 0 2.4.3c4.7 2 6.4 2.2 11.5 1.8 1 .7 2.4 1.5 3.3 2.4 1.2 1.3 2.6 2.9 4.1 3.9 6 3.3 10.6-7 15.6-9 2.5-1.3 5.6-1.1 8.2-.2q2.4-.5 5-.7" class="b"/><path d="M13.6 47.2c5.8 5.7 11.8 3.8 18.8 2q3.8-.5 7.4.6c5.4 1.7 5.6 2.5 11.5.8q2-.6 4-.7 2.2 0 4.2-.2c1.3 0 2.8.5 4 .3 2.8-2.3 6.2-4.5 10-4 2.7.3 5.4 1.3 8.1 2 3.3.7 6.5 2 9.9 2.2 1.2.3 2.2 1.3 3.3 1.9 3.3 2 7.1.2 10.6-.3q6-1.2 12.3-1.9l5-.8 5.7-.1c2.4-.5 4.4 1.1 6.6 1.8 2.3 1 4.9.3 7.3.4l4.1 2.8c1 1 2.1 2.3 3.3 3 5.6 3.8 10.4-5.6 14.8-8 2.4-1.6 5.4-2 8.2-1.5.8.1 1.7-.4 2.4-.6q1.7-.4 3.3-.6" class="b"/><path d="M13.6 47.6c5 3.8 11.7 2.1 17.2.4q4.5-1.2 9 .3c1.4.3 2.7 1.4 4.1 1.8 3.7 1.3 7-1.5 10.7-1.8 1.8-.2 3.7 0 5.7-.3 1.3.1 2.8.4 4.1 0q2.3-2 5-3.2c4.8-2 9.9.9 14.7 1.9a35 35 0 0 0 8.2 1.8c1 .6 2.1 1.6 3.3 2 2 1 4.4.6 6.5 0l5.8-1q4.8-.7 9.8-1c3-.3 6-.9 9-.8 1.3 0 2.8-.3 4.1 0 3.9 1.6 6.3 3.1 10.7 2.3q3.2 2.3 6.6 4.2c1.2.8 2.5 2.2 4 2.4 4.8.4 8.5-6.2 12.4-8.6 2.3-1.7 5.3-2.2 8.2-2.1q2.7-1.4 5.7-1.5" class="b"/><path d="M13.6 47c3.2 1.7 7.1 1.6 10.6.8q2-.4 4.1-1.2l3.3-.1q3.3-.1 6.6.2 1.8.2 3.2 1.4 1.6 1.1 3.3 1.4c3.3.1 5.9-2.5 9-3q2.5-.5 5-.1 1.6-.1 3.2 0 1.6 0 3.3-.2c2.4-1.9 5-4 8.2-4 6 .4 11.5 3.3 17.2 4.4q1.3 0 2.5.3l1.6 1c3 2.3 6.7.8 9.9.2q7-1 14-1l4.9-.6q3.3-.2 6.5-.5c2 .3 3.9 1.5 5.8 2.2q2.3.8 4.9.9 4.4 3.5 9.8 5.2c5.4 3.5 10-4.6 14-7.1 2-1.7 4.7-2.4 7.3-2.7q3-1.7 6.6-1.8" class="b"/><path d="M13.6 45.5c4.2 1.8 8.9.9 13-.5l7.5.2c1.6.2 3.5-.2 4.9.7 5.3 4.9 7.3 2 12.3-1q2.7-1.5 5.7-1.1 2.9.4 5.8.6c1.6 0 3.7.4 4.9-1 3-2.7 6-3.5 9.8-2.5l6.6 1.9c2.9 1 5.9 2.3 9 2.4 2.2.7 4.2 2.2 6.6 2 3-.3 6-1.2 9-1.4 3.8-.4 7.7-.2 11.5-.4l9.8-1q2.6.5 5 1.7l4 1.4a27 27 0 0 0 14.8 6.4c4.2-.4 6.8-4.5 9.8-6.9a16 16 0 0 1 6.6-3.5q3.8-2.2 8.2-2.1" class="b"/><path d="M13.6 43.6q4.4 1.4 9 .4c1.6-.2 3.3-1.2 4.9-.9q4.5.6 9 1c1.3.3 2.2 1.7 3.3 2.4q3.4 2.4 6.6-.4c2.3-1.8 4.3-4.5 7.3-5.2 2.2-.5 4.5.3 6.6.8q3.7.6 7.4.9c1.8-1.8 4-3.6 6.5-3.8 4.6-.2 9 1.7 13.2 3.3a27 27 0 0 0 6.5 1.6q2 .9 4.1 1.3c2.7.7 5.5-.2 8.2-.6 4.6-.8 9.3-.5 14-.5 2.4 0 5-.6 7.4-.7 1.3-.1 2.8-.4 4 .1 2 .6 4.2 1.1 5.8 2.5a26 26 0 0 0 17.2 6.7c2.6-.3 4.7-2.4 6.6-4 3.3-3.1 7.1-6 11.5-7.6 1.8-.7 3.8-.5 5.7-.8" class="b"/><path d="M13.6 42c1.6-.5 3.3.2 4.9.2q3.7 0 7.3-.9 1.7-.3 3.3.2l5 .9q1.5 0 2.4 1.3 1.2 1 2.5 2c2.4 1.7 4.7.7 6.5-1.3 2.1-2 3.9-4.8 6.6-6.2 2.3-1 5-.6 7.4.3q1.6.4 3.3.9 2.8 1.1 5.7 1.6c2-2 4.4-4.2 7.4-4 3.5 0 6.6 1.5 9.8 2.8q4.9 1.4 9.9 2.6 2.8.8 5.7 1 3-.1 5.7-.8c4.6-1 9.4-.3 14-.2q3.3 0 6.5-.6 2.1-.5 4.1 0c2.9.7 5.1 2.9 7.4 4.6q3.4 2.5 7.4 3.7c3.7.9 8 1.8 11.5 0 3.6-2.4 6.6-5.5 9.8-8.3a15 15 0 0 1 8.2-2.6c.7-.3 1.8-.5 2.5-.6" class="b"/><path d="M13.6 40.5c1-.2 2.1-1 3.2-.8q3.3.8 6.6.3 2.4-.2 5-.7l4 1c1 0 1.9 1 2.5 1.7l2.4 2.2c3 2.3 5.3 1 7.4-1.6 3.2-4 5.6-8.8 11.5-7.9q2.9.6 5.7 1.4a21 21 0 0 1 4.1 2c1 .6 2.2 1.5 3.3 1.2 2.1-2.7 5.5-5 9-4 2.3.5 4.4 1.9 6.6 2.6q4.9 1.2 9.8 2.3c4.3 1 8.8 1.7 13.2.7 4.6-1 9.3-.3 14-.1l5.7-.3q2-.3 4 .3c2.9.8 5 3 7.4 4.5q3.8 2.7 8.2 3.7c8 1.7 11.9 0 17.3-6a13.8 13.8 0 0 1 10.7-5l3.2-.8" class="b"/><path d="M13.6 39.1c1.3-.4 2.7-1.2 4-1.5a24 24 0 0 0 9.9.5c1.3-.2 2.8-.5 4 .1 9 10.9 10 5.1 16.5-3.3 2.2-2.8 5-2.9 8.2-2.6q1.7.2 3.3.5 1.2 0 2.4.4c2.8.8 5 3 7.4 4.4 2.7-3.4 5.5-6 9.9-3.7 1.6.7 3.2 1.8 4.9 2.3 2.9.8 6 .8 9 1.5q4.1 1 8.2 1.4 3.7.7 7.4 0c4.6-1 9.3-.2 14 0h4.9q2.4-.2 4.9.7c2.6 1.1 4.9 3.2 7.3 4.7q3.9 2.3 8.2 3.1c14 2.5 13.1-6.7 22.2-10.1a15 15 0 0 1 5-.8q1.5-.6 3.2-.8" class="b"/><path d="M13.6 37.9q2.4-1.2 4.9-2.2c3.4 1 7 1.6 10.6 1q1.7 1 3.3 2.2c1.4 1.4 3 3.2 5 3.8 4 .9 6.2-5.3 8.1-8 2.8-4.2 4-5.2 9-4.5 8.3.2 8.4-.3 14.8 5.1 6-8.2 7.8-2.6 14.8-.6 2.7.7 5.5.5 8.2.9 3.2.5 6.5 1.3 9.8 1.5l4.1.4q4.1-.6 8.2-.8 3.8.1 7.4.6 4.5.4 9 .5c3.4.8 6.1 3.3 9 5q4.3 2.6 9 3.3c13.2 2 12.4-7.1 21.4-10.1q2.4-.7 5-.6 1.6-.6 3.2-.8" class="b"/><path d="M13.6 36.8c8.8-4.6 4.4-2 13-1.1 2.8 2.1 5.8 4.2 9.1 5.4 5 2.3 7.5-6.8 9.9-9.8 3.5-5.5 4.8-2.7 9.8-2.7a20 20 0 0 1 4-.1c1.7 0 3.5-.2 5 .6 2 .9 3.1 3 5 4 4-6.3 6.2-4 11.4-1 2.3 1.3 5 1.4 7.4 1.4q4.5 0 9 1 3.7.5 7.4.8 3 .3 5.7-.2 3.3-.3 6.6-.2l9.8 1.1c2.2.4 4.5.4 6.6 1 2.6 1.2 4.9 3 7.4 4.5q4.2 2.4 9 3c12.3 1.8 11.8-7.4 20.5-10q2.4-.6 5-.6l3.2-.6" class="b"/><path d="M13.6 35.7c2.4-1 4.7-2.8 7.3-3.3 1 .6 2.4 1 3.3 1.6q2.3 2.2 5 4c2.8 1.9 6.6 2.7 9.8 1 1.4-1.2 2.4-3.3 3.2-5 1.7-2.7 3.5-8.9 7.4-8.3 1.9.4 3.8 1.6 5.8 1.2 1-.3 2.2.2 3.3.3q1.6-.1 3.2-.5c3-.7 4.9 2.3 6.6 4.2 1-.3 1.7-1.8 2.5-2.5 2.1-2.3 4.4-1 6.5.6q4.3 3.3 9.9 2.8 3.3-.2 6.5.1 5.3 1 10.7 1.4 3.3.3 6.5-.1 3.8-.4 7.4 0 8.3.7 16.4 2.8c2.3 1 4.3 2.8 6.6 4q3.8 2 8.2 2.8 2.9.5 5.7 0 3.2-.8 5.8-3c2.3-2.2 4.3-5.1 7.3-6.4 3.2-1.3 6.6-.8 9.9-1.4" class="b"/><path d="M13.6 34.5q2.4-1 4.9-2.2c1-.5 2.1-1.1 3.2-.8 7.4 8.5 12.3 10 19.7.5 2.4-2.6 3-7.5 6.6-8.6 1.7-.1 3.3 1 5 1.5l1.6.1q1.6.7 3.2 1.2c1.8.2 3.4-1 5-1.5 2.8-.4 3.7 3.3 5.7 4.5 3.6-6.1 5.2-4 9.8-.8 2.4 1.6 5.4 1.9 8.2 1.7q3.8-.4 7.4 0c3.6.3 7.1 1 10.7 1.3 4.3.5 8.7-.5 13.1-.2a63 63 0 0 1 18.9 4c2 .6 3.8 2 5.7 3.1a25 25 0 0 0 7.4 2.7c4.5 1.2 8.6-1.6 12.3-3.7 2-1.5 3.5-3.9 5.7-5.2 3.3-1.7 7.2-1 10.7-1.6" class="b"/><path d="m13.6 33.3 4-1.5q2.6 0 5 .5c2 1.8 3.8 4.3 6.5 4.8 4.6.5 8.2-6 10.7-9.1 2.2-2.7 4.5-6.3 8.2-6.8 2.1.2 4 1.4 5.7 2.5s3.9 2 5.8 1c1-.6 2.1-1.6 3.3-2 2.5 0 3.4 3.4 4.9 5 4.1-7.6 5.4-3.6 10.7-.3q3.1 1.5 6.5 1c2.7-.1 5.5-.5 8.2-.3q5 .5 9.9 1.2c4.3.6 8.7 0 13 0q9.9-.1 19 3.5 3.7 1.6 7.3 3.4 3 1.8 6.6 2.7c4.2 1.3 8-1 11.5-3l3.3-1.8c1.2-1.3 2.5-2.8 4-3.7 1.8-1 3.9-1.1 5.8-1.2l5-.1" class="b"/><path d="M13.6 32c1.2-.5 2.7 0 4 .1l5.8.7c2 2 4.6 4.4 7.4 2 5-4.2 6.9-13.3 13.1-15.8 4.2-1.2 7.2 3 10.7 4.4 4.6 1.8 5-2.3 8.2-2.7 2 1 2.7 3.7 4 5.4 4.3-8.4 5.4-3.7 10.7-.1q3.2 1.3 6.6 1c2.7-.4 5.5-1 8.2-.8q5 .2 9.8 1c4.7.7 9.4.4 14 .3a41 41 0 0 1 19.7 3.7c4.3 2 8.5 4.5 13.1 5.7 4 1 7.4-.8 10.7-2.8l4.9-2.8q1.5-1.6 3.3-2.8c1.7-1 3.8-1 5.7-1h5" class="b"/><path d="M13.6 31.1c3.1 1 6.5 1.2 9.8 1.7.5 0 1.3.4 1.6.8q1.2.8 2.5.9c5.8-1 8-17.3 14.8-18q2.6.2 4.9 1.7c2 1.3 4.2 2.9 6.5 3.6 4.8 1.6 5.2-3 8.2-3.1 1.7 1 2.5 3.3 3.3 5l.8.5c3.9-8 5-4.4 9.9 0 2.3 1.7 5.4 1.6 8.2 1.1 2.4-.4 4.9-1 7.4-1q4.9.1 9.8 1 7 .8 14 .5c6.9-.2 14.2-.1 20.5 3.3 4 2 8 4.3 12.3 5.5s7.8-.4 11.5-2.7l4.9-3c1-.6 2.1-1.7 3.3-2.4 3.3-1.5 7.1-.7 10.6-.8" class="b"/><path d="M13.6 30.2q4.8 1.6 9.8 2.2 1.3 0 2.5.6c1.8.4 3.2-1.3 4-2.7 1.9-3.2 3.3-6.9 5-10.1 1.2-2.2 2.7-5.6 5.7-5.5 2.1.2 4 1.6 5.8 2.6a23 23 0 0 0 5.7 2.4c5 1.5 4.7-1.4 8.2-3.2l.8.2c1.6 1.6 2.4 4.3 3.3 6.2 1.4-1.3 1.6-4 3.3-5.3 3-1.3 5.1 3.9 7.3 5.3 2.1 1.7 5 1.6 7.4 1.2 2.7-.5 5.5-1.4 8.2-1.5 6-.4 12 1.4 18 1.2q5.4 0 10.7.2c5-.2 10.2 0 14.8 2.1 4.3 2.1 8.5 4.8 13.2 6.2 4.8 1.5 8.2 0 12.3-2.7l5.7-3.6q1.5-1.3 3.3-2c3.2-.9 6.6-.2 9.8-.2" class="b"/><path d="M13.6 28.8q5 2.2 10.6 2.7 1.8.2 3.3-.7c2-1.9 3-5 4-7.4 1.6-2.8 3.7-10.3 7.5-10 2 .2 3.9 1.5 5.7 2.4q2.8 1.3 5.8 1.7c5.5 1.2 4.4-.4 8.2-3.2h.8c1.8 1.4 2.4 4.3 3.3 6.3l.8.4c.7-1.8 1.2-5 3.3-5.8 4.5.6 5.2 7.5 10.6 7.9 4.5.4 8.7-1.8 13.2-2.2q3.3-.3 6.5.2c4.4.4 8.8 1 13.1.7q6.2-.2 12.4.3 4.9-.2 9.8 1.2c4.3 1.5 8 4.5 12.3 6 7.6 3 11.1.9 17.2-3.6 2.2-1.3 4.1-3.3 6.6-4 3.2-.7 6.6 0 9.8 0" class="b"/><path d="M13.6 27c3.3 1.7 6.9 3.1 10.6 3 4.3.2 5.8-6.9 7.4-10 1.3-2.6 2.6-7.1 5.7-7.9 2 0 4 1.5 5.8 2.2q2.7 1.1 5.7 1.2c5.4.7 4.6.2 8.2-3.3h.8c2.4 1.6 2.5 5.3 4.1 7.6.8-2 1.2-5.6 3.3-6.7 2.3.1 3.8 2.4 5 4.2 2.7 4.2 5.8 5 10.6 4.4 3.3-.5 6.5-2 9.8-2.4 2.2-.4 4.5 0 6.6.2 3.5.1 7.1.6 10.7.4 3.5-.3 7-.8 10.6-.4q3.3.3 6.6.8 2.5 0 4.9.4c4.6.4 8.3 3.6 12.3 5.5 7 3.3 12 3.4 18-1.6 2.3-1.9 4.6-4 7.4-4.8 1.9-.5 4-.1 5.8 0 1.6 0 3.3-.4 4.9-.1" class="b"/><path d="M13.6 25C17 27 21 29.2 25 28c3.5-1.7 4.8-7.8 6.6-11 1.2-2.2 2.3-5.3 5-6 2 0 3.8 1.4 5.7 2q2.8.8 5.7.8c2 .1 4.4 0 5.7-1.8.7-.7 1.5-2 2.5-2 2.5 1.6 2.8 5.7 4.1 8.2.8-2.2 1.2-5.8 3.3-7.3 4.3.2 5 8.1 10.7 8.8 8 1.5 10-.7 17.2-2q3-.3 5.7 0 4.5.4 9 .4c3-.2 6-.9 9-1q4.6-.2 9 .8c3.9 1 8 .5 11.6 2.4 3.9 2.3 7.7 5.1 12.3 5.9 2.5.4 5.2.4 7.4-1.2 3.7-2.3 7-5.8 11.4-6.9 2.2-.5 4.5.1 6.6 0 1.6-.1 3.3-.8 5-.6" class="b"/><path d="M13.6 22.9c9.6 5.9 12 4.9 16.4-5.3 1.4-2.7 2.7-6.3 5.7-7.4 1.7-.4 3.4.5 5 1q2.6 1 5.7.9c2 0 4.2-.5 5.7-2 .7-.7 1.5-1.8 2.5-2l.8.3c1.6 2 2.4 5.3 3.3 7.8 1-2.2 1.3-5.7 3.2-7.4h.9c2.3 1 3.4 3.7 4.9 5.6 2 2.7 4.3 2.9 7.4 3.2q3.2.6 6.5.8c3.7-.2 7-2 10.7-2.3 4.3-.4 8.8.5 13.1.2 4.4-.3 8.7-1.7 13.1-1.5 4.8.1 9.3 1.8 14 2.3 2.8.4 5.1 2 7.4 3.6 2.9 2 6.3 3.5 9.8 3.6q1.3 0 2.5-.2c1.5-.4 2.8-1.5 4-2.4q3.2-2.4 6.6-4 2.4-1 5-1.3l4 .1q2.2 0 4.2-.9h2.4" class="b"/></svg>