<svg xmlns="http://www.w3.org/2000/svg" id="a" width="1920" height="2400" viewBox="0 0 192 240"><defs><style>.b{fill:none;stroke:#fff;stroke-miterlimit:10;stroke-width:.3px}</style></defs><path d="M0 0h192v240H0z" style="stroke-width:0"/><path d="M13 216.6q3.9 1.3 7.5 3.1c1.3.7 2.6 1.6 4.1 1.7 2.2.3 4.5-.3 6.6-.9q3-.7 5.8-1.8 2.8-.8 5.8-.8 1.6-.6 3.3-.7c2.9 0 5.6 1.2 8.2 2.2q4.2 1 8.3 1.3 7.3.3 14 3.2 4.1 1.7 8.3 3.5l5 1.6c5.3 2.2 9.7 3.6 15.6 2.8 2.2-.1 4.4-.8 6.6-1.3q3.4 0 6.6-.6 6.2-1.3 12.4-2.4 3.7-.4 7.4-1c2.8-.3 5.5-1.2 8.3-1.8q3.7-.7 7.4-1.2c3.5-.9 7.2-1.1 10.7-1.5q7-.7 14-1" class="b"/><path d="M13 215c4.4 1 8.4 3 12.5 4.6 4.4 1 8.4-1.4 12.3-3q2.9-1 5.8-.7 2-1 4.2-.8c2.9.3 5.6 1.8 8.2 2.9q4 .7 8.3.9 6.4.2 12.3 2.7c3.4 1.3 6.5 3.4 10 4.5 7.7 2.7 10.9 5 19.7 4q5-.6 10-1.4 4-1.2 8.2-2.1c6-1.1 12.2-1.8 18.1-3.3q6.1-1.6 12.4-2 12-1.4 24-2" class="b"/><path d="M13 213.3q6.1 1.4 11.6 3.8c4 2.5 8.8.2 12.4-2q3.1-1.4 6.6-1.2c.8 0 1.7-.6 2.5-.7q1.2-.3 2.5-.1c3 .4 5.6 2 8.2 3.4q5 .8 10 .5 5 .5 9.8 2c2.9 1.1 5.6 2.8 8.3 4.2l9.9 3.9q6 2 12.4 1c3-.3 6.1-.4 9-1.4 3.8-1.3 7.6-3 11.6-3.5 6.6-.7 13.2-2.3 19.8-3.3q15.7-1.6 31.3-2.2" class="b"/><path d="M13 211.9q7.8 1.2 15 4.4c4 .9 7.2-1.9 10.7-3.4 1.8-.8 3.8-.7 5.7-1a7 7 0 0 1 5-.8q2.6.8 5 2.1c1.2.7 2.5 2 4 2 1.7.2 3.5.5 5-.3 2.2-.7 4.5-.2 6.6.3 4 1 8 1.3 11.6 3.3q2.4 1.6 5 2.8l4.9 2A27 27 0 0 0 108 226l5.8-.7c4.6-1 8.5-4.3 13.2-5.2q5.7-1 11.5-1.4l11.6-1.4q14.4-.9 28.8-1.5" class="b"/><path d="M13 210.7q5.6.4 10.8 2c2.5.7 4.8 2.4 7.4 2 3.4-.4 6-3 9.1-3.7q1.6-.5 3.3-.5c1.5-.9 3.2-1.7 5-1.5 2.4.2 4.6 1.5 6.6 2.9l2.4 1.7q1.3.6 2.5.5a8 8 0 0 1 5.8-2c3 .3 6 1.3 9 1.8q2.6.4 5 1 3 1.2 5.8 3a25 25 0 0 0 4.1 1.9l5 2.2c6.9 3.2 11.8 2.3 19 1.2 2.7-.4 5-2.3 7.4-3.5 2.8-1.6 5.9-2.9 9-3.1q4.2-.4 8.3-.3 3.8-.7 7.5-1.2 4.9-.2 9.9-.1 11.6-.6 23-1" class="b"/><path d="M13 209.6q4.2.1 8.3.7 3.8.8 7.5 2.3c5 2 9.1-3 14-3.3 1.9-1.5 4.1-2.8 6.6-2.2 3.6.8 6.2 3.5 9 5.6 1.3-.6 2.2-2 3.4-2.5 3.4-1.7 7.2.2 10.7.9q4.5 1.2 9 2 4.2 2 8.3 3.7c2.3.9 4.4 2.2 6.6 3.1 6.5 3 11.5 2.3 18.2 1 2.3-.8 4.5-2.4 6.6-3.6q6.7-4.6 14.8-3.5c6.2-1.8 12.7-1.2 19-1 3.6.2 7.2-.4 10.7-.3 4.4-.2 8.9 0 13.2-.3" class="b"/><path d="M13 208.6a65 65 0 0 1 8.3.3c2.3 0 4.5.8 6.6 1.6 3.7 1.7 6.4.8 10-.7 1.5-1 3.7-1 4.9-2.4q5-4.5 10.7-.4c1.4.9 2.6 2.5 4.1 3.1 2-1.4 4.2-3 6.6-3.2 3.8.2 7.3 1.7 10.8 2.8l5 1.4q2 .3 4 .7a50 50 0 0 0 8.3 3.3q3 1.2 5.8 2.7c5.7 3 11.3 2.4 17.3.6 4.3-1.9 7.9-5.3 12.4-6.7q2-.6 4.1-.6c1 0 2.3.4 3.3 0 5.1-1.5 10.5-1 15.7-.6l5.8.6q4.5-.6 9-.7c4.5 0 8.9.8 13.3.3" class="b"/><path d="M13 207.5q6 0 11.6.3 3 .6 5.8 1.7 3 .9 5.8-.2 2.1-.7 4.1-1.6c3.6-3.7 7.4-6.1 12.4-3.2 1.5.7 2.6 2.4 4.1 3 2.1-2.3 5.2-3.8 8.3-3 4 .7 7.7 2.5 11.5 3.6q4.5 1.4 9.1 1.7 1.7.6 3.3 1.4l4.1 1.4c2.4.7 4.5 2 6.6 3.1 5.6 3 11.8 2.1 17.4-.2 3.8-2 7.2-5 11.5-6.2q2-.6 4.2-.4c2.1-.4 4.3-1 6.5-1 4.7-.4 9.4.3 14 .9q2.2.4 4.2 0a16 16 0 0 1 5-.7c5.4.3 11 1.7 16.5 1" class="b"/><path d="M13 206.4c4.2.1 8.4-.2 12.5.1q3 .4 5.7 1.6 2.5.8 5 0c3-.5 4.9-3.6 7.4-5 4.2-2.9 9.2-1.6 12.4 2.1 3.4-4 7-4 11.6-2.3l9.9 3.2c3.7 1.2 7.6 1.4 11.5 1.8q2 .8 4.1 1.5c2.5 1.3 5 3 7.5 4.2 5.6 2.9 11.8 2 17.3-.8 3.7-1.6 6.8-4.3 10.7-5.4 1.3-.5 2.8-.4 4.2-.6q3.6-.9 7.4-1l6.6.3c1.3.1 2.8.6 4.1.3a56 56 0 0 1 9-.5c6.4.9 12.7 2.4 19 1.6" class="b"/><path d="M13 205.1q6 .3 11.6 0c2.6 0 5 .9 7.5 1.6 5.5 1.2 8-3.6 12.3-5.8 3.5-1.6 8.1-1.2 10.8 1.7h.8c3.5-4.4 7.9-3.1 12.4-1.4q4 1.6 8.2 2.3 3.8 1 7.5 1.4l5 .7q2 .2 4 1c2.9 1.4 5.4 3.6 8.3 5a19 19 0 0 0 16.5-1l5.8-2.8q3-2 6.6-2.6l2.4-.1a41 41 0 0 1 11.6-.9c1.4.3 2.8-.3 4.1-.5q3-.2 5.8-.2c3.4-.2 6.6 1 10 1.6q7.3 1.2 14.8.5" class="b"/><path d="m13 203.7 7.5.3h5.8c2.2 0 4.4 1.2 6.6 1.2 5 .4 6.9-3.4 10.7-5.5 3.6-1.7 8.6-1.8 11.6 1.2l.8-.2c4.8-6.2 10.8-1.1 16.5.4 3 .8 6 1 9 1.5l8.3 1.2 4.2.8c.7.2 1.8.4 2.4 1 2.1 1.5 4.2 3.2 6.6 4.1 5.5 2.2 11.4.5 16.5-1.7l3.3-1.4a23 23 0 0 1 5-2.4 14 14 0 0 1 5-.6 36 36 0 0 1 9.8-1 20 20 0 0 1 9.1-1.4c3.7-.1 7.2 1.6 10.8 2.1q8.2 1.1 16.5.3" class="b"/><path d="M13 202.1c4.7.7 9.4.6 14.1.8 1.6.2 3.3 1 5 1 4.6.8 7-3.3 10.7-5.3 3.8-1.9 9-2.4 12.4.7h.8c5.1-6.6 9.7-1.8 15.7-.2q4.1 1 8.2 1.4c4.7.5 9.5.8 14 2.2 1.7.5 3.5.7 5 1.5q2.3 1.9 5 3.2c5.3 2.3 11.3.4 16.5-1.4 2.6-.7 4.7-2.6 7.4-3.3q2.4-.6 5-.5a41 41 0 0 1 7.4-1.2q1.2-.6 2.5-1c2-.7 4.4-.6 6.6-.6l3.2.1c2.8.7 5.5 1.8 8.3 2.2 2.7.4 5.5.2 8.3.2q4.9.1 9.9-.4" class="b"/><path d="M13 200.4q6.7.9 13.3 1.2A18 18 0 0 0 32 203c4 .1 6.6-3.7 9.9-5.5 4.3-2 10.4-3 14 1 3.5-4.9 6.4-5.1 11.5-2.7q3.2 1.2 6.6 1.7 5.9.8 11.6 1.2 4.6.6 9 1.9 3 .7 5.8 1.5c1.1.7 2.2 1.8 3.3 2.4 5.4 3.2 11.8 1.3 17.4-.2 2.3-1.3 4.8-2.6 7.4-3q1.7-.4 3.3-.4 1.7-.3 3.3-.8l3.3-.6q1.6-.8 3.3-1.3 3.3-.5 6.6-.4 2.6-.2 5 .8 2.8 1.1 5.7 1.5c3 .3 6.1-.1 9.1-.3q5.4-.1 10.8-.4" class="b"/><path d="M13 198.6q6 .9 11.6 1.6 2.8 1.3 5.8 1.7c4.4.4 7.3-3.5 10.7-5.4q2.8-1.4 5.8-1.8 2.5-.6 5-.2 1.3.3 2.5 1c.7.4 1.5 1.4 2.4 1.6 2.8-4.1 5.2-5.5 10-3.5q3.6 1.3 7.4 1.6l10.7 1 6.6 1.4q2 .5 4.1.5 2.1.5 4.1 1.2l3.3 1.1q1.2 1.1 2.5 1.9c3.2 2 7.2 2 10.8 1.5q3.4-.4 6.6-2a24 24 0 0 1 5.7-1.8c1.7-.3 3.4-.3 5-1l4.1-1.1q1.2-.6 2.5-1 3.2-.5 6.6-.6h2.5l2.5.7q3 1.2 6.6 1.4c2.7.2 5.5-.3 8.2-.6q6.2.6 12.4-.3" class="b"/><path d="M13 196.7q4.7.7 9.2 1.5c2.3 1.2 4.8 2.4 7.4 2.6 4.3.2 7.2-3.6 10.7-5.5q3.1-1.5 6.6-2 2.5-.4 5-.3 1.6.3 3.3 1.2c.7.5 1.5 1.5 2.4 1.7 3.2-4.8 4.3-5.8 10-4q4.4 1 9 1.2 3.4.1 6.6.7c3.6.6 7.2 1.9 10.8 2.7 2.1.6 4.4.3 6.6.2l2.4.9c.9.2 2 .5 2.5 1.2 3.7 3 8.7 3.5 13.2 2.8q3-.8 5.8-1.9c2.7-1 5.6-1 8.3-1.9q3.2-1.2 6.5-2 3.4-.7 6.6-.9 3-.3 5.8.7a22 22 0 0 0 11.6.4c1.6.2 3.3.8 5 .9 3.5.3 7.1-.2 10.7-.6" class="b"/><path d="M13 195c2.3-.2 4.5.5 6.7.9 2.8 1.6 5.8 3.4 9 3.6 4.7.2 7.7-4 11.6-5.7 3.4-1.5 7.2-1.8 10.7-2.3q2.7 0 5 1.3c.8.5 1.6 1.5 2.5 2 1.7-3.4 3-6.2 7.4-5.1q4 .9 8.3 1 7.5 0 14.8 2.3c4.5 1.3 9.3 3.2 14 2q1.7 0 3.3.7 1.6 1.3 3.3 2.3a18 18 0 0 0 9.1 1.6q3.3-.6 6.6-1.6l5-1q3.3-.9 6.6-2.1 3.2-.7 6.6-1.2c1.6-.1 3.3-.6 5-.3 2 .3 4.3 1 6.5 1.1q3.3.2 6.6-.4c6.8 2.4 10.4 2 17.3.9" class="b"/><path d="M13 193.7c1.7.1 3.5-.4 5 .1 3.1 1.8 6.3 4 10 4.4 4.5.3 7.6-3.8 11.5-5.6q3.1-1.3 6.6-1.6 2.9-.6 5.8-.9 2 0 4 .9c1.1.5 2.2 1.4 3.4 1.7 2-4.2 3.6-5.4 8.2-4.5q4.2.4 8.3.5 7.5-.2 14.8 2.2c4.3 1.2 8.7 3.2 13.2 2.8 4.7-.3 3.6-.1 7.5 2 5.4 3.2 10 1.5 15.7.6 3.3-.5 6.6-1.9 9.9-2.8l9.9-1.7c1.8-.2 3.8.4 5.7.6q3.4.5 6.6 0 1.7-.3 3.3.5 2 .8 4.2 1.2c4 1 8.3 0 12.3-.5" class="b"/><path d="M13 192.6a40 40 0 0 1 8.3 2c2.5 1.3 5.4 2.8 8.3 2.1 4.2-1.2 7.2-5.1 11.5-6.2q3.7-.7 7.5-1.2c2.1-.4 4.4-.8 6.6-.3 1.4 0 3 .6 4 1.5h1c2-4.3 4.7-4.5 9-3.8q3.7.2 7.4 0 7.2-.5 14 1.5c5.2 1.7 10.3 3.9 15.7 4l2.5.2c1.7.6 3.3 1.8 5 2.3 4.8 1.7 10 .5 14.8-.1q4.5-1.3 9.1-2.5l9.9-1.8c3.6 0 7.2.8 10.7.3 2.3-.5 4.5 1 6.6 1.6 4.5 1.8 9.5.8 14 0" class="b"/><path d="M13 191.9q5 1 10 2.4c2.8.8 5.4 1.9 8.2.3 7.1-4.4 6.7-5.4 15.7-6.4 4-.4 9.7-2.1 13.2.6l.8-.3c2-3.5 4.6-3.9 8.3-3.4l6.6-.3c15.4-2.1 18.7 4 32.2 5.7l2.4.4q2.4 1.4 5 2.1 3.7.8 7.4.6 3.4-.1 6.6-.7 3-.8 5.8-1.3l3.3-1q2-.2 4.1-.7c2.8-.5 5.5-1.5 8.3-1a46 46 0 0 0 8.3-.3q1.6.2 3.3 1c6.6 2.8 9.5 2.6 16.5 1" class="b"/><path d="m13 191 10 2.3c3 .6 6.4 1.2 9-.7 6.2-4.3 7.4-5 15-5.8 4.3-.3 10.1-2.4 14 .4.4-.3 1.3-1.2 1.6-1.7 1.4-1.6 3.7-2.1 5.8-2a50 50 0 0 0 9.9-.9q7-1.2 14 .9c5.4 2 10.8 4.2 16.5 5.2q1.6.2 3.3.7a19 19 0 0 0 5 1.8 36 36 0 0 0 14-.2c4.5-.3 8.8-1.9 13.2-2.7 2.1-.6 4.3-1.3 6.6-1h5.8c1-.1 2.2-.5 3.3-.4l2.4.8c6.7 3 9.4 3.3 16.5 1.5" class="b"/><path d="M13 189.9c5.4 1.3 11 3 16.6 1.8 2.5-.4 4.5-2.3 6.6-3.6 3.6-2.4 8.2-2.3 12.4-2.9 4.1-.3 9.5-2 13.2.5 2.4-3.7 5-3.5 9-3.6q5-.5 10-1.6c6-1.1 10.8 0 16.4 2.5a79 79 0 0 0 13.2 4c2.4.2 4.4 1.5 6.6 2q5.8 1.4 11.6 1 2-.3 4.1-.5c5.4-.4 10.5-2.4 15.7-3.7q3.7 0 7.4-.2l2.5-.2c.7-.2 1.8-.4 2.5 0q3.3 1 6.6 2.6c3.7 1.4 7.8.7 11.5-.2" class="b"/><path d="M13 188.5c5.6 1.7 11.9 2.8 17.4.5 2.8-1.1 5.4-3 8.3-3.9 3.7-1.2 7.7-1 11.5-1.5 3-.3 6-.8 9-.6 1.2 0 2.3.7 3.4.6q1.9-2.2 5-2.7 3.3-.1 6.5-.5c4.2-.5 8.2-2.2 12.4-2.3 4.4-.3 8.4 1.6 12.4 3.1q6.5 2.5 13.2 4c2.3.4 4.3 1.7 6.6 2q4.9 1.2 9.9 1.2l5.8-.4 8.2-1.6c2-.6 3.8-1.6 5.8-2q4 0 8.3-.5c1.3 0 2.8-.6 4-.4q3.6 1 6.7 2.6c3.6 1.5 7.8 1.2 11.5.3" class="b"/><path d="M13 186.9c5.1 1.9 10.8 2 15.8-.1 2.7-1 5.4-2.6 8.2-3.4 4-1 8.3-.6 12.4-1.2l7.4-.6c2 0 4-.3 5.8.5 1.1-.5 2.1-1.6 3.3-2 2.9-.9 6.1-.5 9-1 4.6-.5 8.7-2.7 13.3-2.8 4-.2 7.8 1.7 11.5 3q7 2.4 14 4.2 1.8.5 3.4 1.1 2 .8 4 1.1c4.7 1 9.5 1.5 14.1.6 4.4-1.1 9.3-.7 13.2-3.4q1.7-.2 3.3 0l5-.6 2.4-.3q1.3-.4 2.5-.2c2.3.5 4.5 1.7 6.6 2.7a19 19 0 0 0 10.8.5" class="b"/><path d="M13 185c6.3 2.8 11.5.8 17.4-1.8q4-1.9 8.3-2.1 3.2 0 6.6-.2l9.9-.6c2.7 0 5.5-.5 8.2.2 2-1.8 4.8-2.2 7.4-2.3l5.8-.5c4.3-.5 8.1-2.8 12.4-3 4-.4 7.8 1.5 11.6 2.7q7.3 2.4 14.8 4.3a44 44 0 0 0 9.9 2.8c3.5.6 7.3 1 10.7-.1 3-.9 6-1 9.1-1.2 1.7-.2 3.3-1.2 5-1.4q3.7-.7 7.4-1.2 2-.5 4.1-.6 1.7.2 3.3.8a21 21 0 0 0 14 2.6" class="b"/><path d="M13 182.7c6.6 3.7 10.5.5 16.6-2 4.7-2 9.9-1.2 14.8-1.4q5.8-.5 11.6-.5c2.4 0 5-.3 7.4 0q1 0 1.7-.6 1.6-.7 3.3-1c3.8-.3 7.7-.4 11.5-1.1 3.6-1 7-2.8 10.7-2.9 4.3-.1 8.3 2 12.4 2.9l12.4 3.5q6 2.2 12.4 3.3 2.4.6 5 .4c2.4-.5 4.8-1.5 7.4-1.8 2.4-.4 5 .1 7.4-.2q7-1.8 14-3c2.7-.2 5 1.2 7.5 2.2q4.7 1.7 9.9 1.2" class="b"/><path d="M13 180.1c6.9 4.6 9.4 1.2 15.8-1.5 5-2.1 10.4-.6 15.6-1.1 5.8-.7 11.6.2 17.4-.3h2.4q2.4-1 5-1.2 6.2-.2 12.4-1.2c3.3-.9 6.4-2.6 9.9-2.9 2.5-.2 5 .6 7.4 1.2q3.8.6 7.4 1.8l10 2.9q5.6 1.9 11.5 3.2 2 .5 4.1.5c2.8-.5 5.4-2 8.3-2.3 2.7-.5 5.5.2 8.2.4 1.4-.2 2.8-.8 4.2-1l7.4-1.6c4.1-1.2 6.1 0 9.9 1.5q4.4 1.5 9 1.4" class="b"/><path d="M13 177.3c7 5.2 8.3 2.8 15-.4a19 19 0 0 1 9-1.2h8.3c4.6-.4 9.3.4 14 .3a87 87 0 0 0 10.7-1.2q6.7 0 13.2-1.2c3-.9 6-2.5 9.1-2.8q3.4-.1 6.6.7 3-.2 5.8.7 5.3 1.8 10.7 3.2 5.7 1.8 11.6 3.3c4 1.3 5.2.9 9-.8q4.4-1.7 9.1-1.1c1.4.1 2.8.7 4.2.8 2.8-1.2 6-1.5 9-1.9 2.2-.3 4.4-1 6.6-1 2 .1 4 1.2 5.8 1.7q4 1.4 8.3 1.5" class="b"/><path d="M13 174.3c7.8 6.5 7.9 4 15.8.4 2.3-.9 5-.9 7.4-.9h8.2c4.2 0 8.3.5 12.4.7q5.4 0 10.8-.9c4.3-.1 8.8.2 13.2-.7q1.6-.2 3.3-.3l3.3-1c3-1.4 6.5-2.3 9.8-1.8 2 .5 4-.4 5.8 0 2.6.2 5 1.3 7.5 2.2l5.7 1.6 12.4 3.4c3 1 5.7-1 8.3-2 4-1.5 8.4-1.4 12.4.3q4.7-1.8 9.8-1.5c2.3 0 4.5-1 6.7-1 1.6 0 3.3.8 4.9 1.2q4 1.5 8.3 1.8" class="b"/><path d="m13 172.4 1-.2c1.6 1 3 2.7 4.9 3.4 3.8 2 7.1-1.7 10.7-2.7 2.6-1 5.5-1 8.2-1l9.1.3q5.4.4 10.8.6c3.5.1 7.1-.4 10.7-.6q3.3.2 6.6.2 4.1 0 8.2-.9c3.2.4 6.1-1.4 9.1-2.2q3.2-.8 6.6-.4 2.8-1.2 5.8-.8c2.5.4 5 1.5 7.4 2.3l12.4 3.3q2.4.7 5 1.3c2 0 4-1.1 5.7-2a17 17 0 0 1 14-.5c1.1.1 2.3-.6 3.4-.7 2.7-.5 5.5-.2 8.2 0q2-.1 4.1-.7c2-.6 4 0 5.8.6q4 1.5 8.3 2" class="b"/><path d="M13 170.9q1.3-.4 2.6-.3c6.5 6 8 3 14.8.6 3.7-1.2 7.7-1 11.6-1l15.6.9c4.4.1 8.9-.4 13.2 0 4.2.2 8.4.3 12.4-.7 1-.3 2.3.1 3.3 0 1.7 0 3.4-.8 5-1.3a20 20 0 0 1 7.4-1.2c1.4-.3 2.7-1.2 4.1-1.4 3.2-.5 6.2.8 9.1 1.9q2.5.5 5 1.2 3.2.8 6.6 1.7c1.8.4 3.8 1.4 5.7 1.3 2.7-.2 5-2.2 7.5-3 4.2-1.4 9-1.5 13.2.4 2.5-1 5.5-1 8.2-.7 1.6.2 3.4 1 5 .5 1.3-.2 2.7-1 4.1-1 4 .5 7.6 2.6 11.5 2.8" class="b"/><path d="M13 169.2c1.1-.2 2.3-.7 3.4-.5 7.4 7 10.8.7 19 0 8-.9 16 .3 23.9.6h6.6c2.7.3 5.5 1 8.2 1q5 .2 10-.6 1.2-.1 2.4-.2 1.7-.1 3.3-.7l6.6-1.5c1.3-.3 3 0 4.1-.8 3.9-2.6 7.5-2 11.6-.4 2.4 1 5 1.2 7.4 2.1q2.5.5 5 1.1c2 .7 4.4 1.3 6.6.4 1.7-.8 3.3-2 5-2.6 3-1.3 6.6-1 9.8-1 1.8 0 3.4.8 5 1q2.4-.6 5-.4 2.4 0 4.9 1c1 .2 2.2.6 3.3.1l2.5-1a6 6 0 0 1 2.4 0c3.3 1 6.5 2.4 10 2.7" class="b"/><path d="M13 167.8q2.2-.7 4.2-1c3.4 2.9 6.4 3.9 10.7 2.4q4.5-1.6 9.1-2.2c7.1-1.1 14.4-.2 21.5.3q3.7.3 7.4.5 3.3.9 6.6 1.3c3.6.2 7.2-.4 10.7-.3q1.6 0 3.3-.3c2-.6 3.8-2 5.8-2.3 2.7-.7 5.8 1.3 8.3-.4 5-4 8.3-3.2 14-1l4.1 1q1.6.7 3.3 1c2.2.3 4.4 1 6.6.9 2.5-.2 4.5-2 6.6-3 3.7-1.6 7.8-.5 11.6-1 1.6-.1 3.3.5 5 .8a18 18 0 0 1 9 1c1 .4 2.2 1.1 3.3.5 2-1 3.3-2 5.8-1 3 .9 6 2.2 9 2.5" class="b"/><path d="m13 166.5 3.4-1q1.2-.5 2.5-.2c3.2 2.8 6.7 3 10.7 2l9-2.2q3.3-.5 6.7-.6 5.3.2 10.7.6 5 .7 9.9 1.1c2.1.7 4.3 1.5 6.6 1.5 2.5-.1 5-.9 7.4-1.2q3.4-.1 6.6.4c1-.2 1.8-1 2.5-1.5 1.2-.9 2.6-1.9 4.1-2.1 2-.3 4 .9 5.8 1.5.8.3 1.8-.1 2.5-.3 1.4-.8 2.6-2.1 4.1-2.7 4.4-1.9 9 .7 13.2 1.9q2.1.8 4.2 1.4c2.1 0 4.4.3 6.6-.2 2.3-.6 4.2-2.6 6.6-3.1 2.1-.5 4.4 0 6.6 0q3 0 5.7-.4 1.7 0 3.3.4a3 3 0 0 0 1.7.2c3.2-.3 6.3.8 9 2.4 1.7.1 2.8-1.4 4.2-2 2-.6 4 .6 5.8 1.2a29 29 0 0 0 6.6 1.9" class="b"/><path d="M13 165.2q3-1 5.9-1.5c1.4.1 2.8.9 4 1.4 5 1.7 10.2-.5 15-1.8 4.5-1 9.3-.7 14-.5 4.4 0 8.8 1.1 13.2 1.6 2.1.4 4.2 1.8 6.6 1.5 2.2-.3 4.4-1.3 6.6-2a18 18 0 0 1 9.9-.2c4-3.7 6-5.2 10.7-1.5 1.6 0 3.3-.8 5-.6.7-.4 1.6-1.2 2.4-1.6 4.6-2.3 9.7.1 14 1.7l3.4 1.1q2.9.3 5.7-.4c1.5-.5 2.8-1.5 4.2-2.2 3-1.7 6.6-.4 9.9-.4 3 .1 6-1.2 9-.3 1.6.6 3.4.2 5 .8q1.7.6 3.3 1.4c.3.3 1.2.7 1.7.7l1.6-.8c.9-.8 2-1.7 3.3-1.7 1.7 0 3.4 1 5 1.7q3 1.3 6.6 1.8" class="b"/><path d="M13 164q3.4-1 6.7-1.8c2.7.8 5.4 1.7 8.2 1.6 2.9 0 5.6-1.3 8.3-2.1q3.7-1 7.4-1H51q3 0 5.8.7 4.2.5 8.3 1.2c1.3.3 2.7 1.2 4.1 1.3 3 .3 5.7-1.5 8.2-2.8 4.6-2.5 7.5-2 12.4-1.5 1.7-1.7 4.2-3.5 6.6-2.2.8.3 1.6 1.2 2.5 1.3q3.4-.7 6.6.5c4.8-4.3 11.3-1.7 16.5.2q2 1 4.1 1.4a14 14 0 0 0 4.2-.9c6.5-3.9 6.1-2.7 13.2-2.1 2.4 0 5-.9 7.4-.8a7 7 0 0 1 3.3 1q3.7 0 6.6 2.2c.9 0 1.7-.8 2.5-1 1.1-.4 2-1.6 3.3-1.7 2 0 3.9 1.5 5.8 2.2q3 1.4 6.6 1.7" class="b"/><path d="M13 162.6 19 161c1.3-.4 2.8.3 4 .5q3 .7 5.9.3c3.9-.7 7.5-2.9 11.5-3H47q2-.3 4.2-.2 3.7.3 7.4 1 2.5.3 5 .7 2 .4 4 1.3c2.7.8 5.3-.7 7.5-2 6.3-4.1 8.2-4.7 15.7-4.4.8.1 1.7-.5 2.5-1 1.3-.5 2.9-.3 4 .5 3.4-.3 6.4.2 9.2 2.3 4.7-4.8 11.9-2 17.3 0l4.1 1.6a9 9 0 0 0 3.3-1c6.6-4 6.3-2.4 13.2-2.3 2.5 0 5-1 7.4-.4a9 9 0 0 1 2.5 1.3q1.3 0 2.5.4c1.1.2 2.2 1.2 3.3 1.2 1.4-1.7 3.7-2.4 5.8-2.8 1.5 0 2.8 1 4.1 1.6q4.3 2.3 9.1 2.7" class="b"/><path d="M13 161q3-.7 5.9-1.3c1.3-.3 2.8.4 4 .5q3 .5 5.9-.2c2.2-.5 4.4-1.5 6.6-2.2 2.9-1 6-1 9-.8q1.7.2 3.3-.3 1.6-.3 3.3-.1 6.3.6 12.4 1.9c1.4.2 2.8.9 4.2 1.2 2.7.5 5.2-1 7.4-2.5 5.7-4.1 8.5-5.5 15.7-5.7 5.8-.5 11.3-1 15.6 3.7 4.3-3.4 6.2-3.7 11.6-3q2.6.5 5 1.7 3.7 1.5 7.4 2.8c4.8-1.2 5.5-4.2 11.5-3.7 4.1.3 8.2-1.3 11.6 2q2.2 0 4.1.8c1.2-.6 2-2 3.3-2.5q2.4-.8 5-.3 1.7.6 3.3 1.6 4.6 2.6 9.9 2.8" class="b"/><path d="M13 159.3q3-.6 5.9-1.1c3.5.6 7.2.9 10.7-.3 6.1-2.4 8.9-3.7 15.7-2.8 5.6-2 11.6.2 17.3 1.1q2.4.7 5 1.3c3 .3 5.8-1.6 8.2-3.2 5.4-3.8 9.1-5.1 15.7-5.8 3.9-.5 8.2-.4 11.5 2q1.7 1.7 3.3 3.2c1.7-2 4-3.8 6.6-4.2 1.6-.5 3.3-1.2 5-.9q3.5.4 6.6 2.3c1.3.7 2.6 1.9 4.1 2.3l4.1 1.6c.8.1 1.8-.4 2.5-.7 1.8-1 3.7-2.3 5.8-2.6 3.7-.6 8-.5 10.7 2.3q1.7 0 3.3.2c1-.4 1.7-1.7 2.5-2.3 2.6-2 6.2-.4 9-.1 3.8 2.2 8 3.7 12.5 3.6" class="b"/><path d="m13 157.5 4.2-.8q2.4.2 5 .5 4.7 0 9-1.9c5.5-2.2 7.5-2.5 13.2-2 6-3.1 13-.4 19 1 5.6 1.6 7.4 1.2 12.4-1.7 2.4-1.4 4.8-3 7.4-4q4-1.4 8.3-2c6-1.2 10.6 0 14 5.3l.8.1q1.8-2.3 4.2-3.8 1.1-1 2.4-2c2-1.2 4.5-1 6.6-.4q4 .7 7.5 2.4c2.3 1.2 4.1 3.3 6.6 4.1q1.2.6 2.5 1c2 .1 3.8-1.5 5.7-2 2.6-.7 5.4 0 7.5 1.5q1.6-.1 3.3-.1c3.5-4.7 4.4-4.4 9.9-3q2.8.7 5.7 1 1.7.7 3.4 1.3c2.3.8 5 .6 7.4 1.3" class="b"/><path d="M13 155.7q1.7-.3 3.4-.4l2.5.2q3.7.4 7.4-.4c5.6-1.4 10.4-4.6 16.5-3.4 6.8-4.7 15.2-1.4 22.3.7 4 1.3 7 .7 10.7-1.1 6-3 12.3-5.9 19-6.7 5.3-.4 8.2 2.3 10.7 6.6 1.2-1 2.3-2.6 3.3-3.8 1.5-2.8 4-5.4 7.4-4.4q3.3 1 6.6 1.8 3 .5 5.8 1.1c3.1.9 5.7 3 8.3 4.8q1.6.8 3.3 1.5l2.5-.3h2.4q1.3.1 2.5-.2 1.6 0 2.5-1.2c1.6-2 3.8-4.1 6.6-3.2q2.8.9 5.8 1.6 3.2.6 6.6 1 5 1.2 9.9 2.3" class="b"/><path d="M13 153.9c1.7-.4 3.4.1 5 .2q3.8.3 7.5-.5c5.1-1.3 10.2-4.2 15.6-3.4 1.7-.7 3.2-2.3 5-2.8 6-1.8 12.5-.2 18.1 2 6.2 2.8 8.9 2 14.9-.3q4.2-1.5 8.2-3.2c3.9-1.7 8.3-3.5 12.4-1.8 2.8 1 3.9 4 5.8 6 1.6-2.1 2.4-5.1 4.1-7.3 4.8-5.8 8 3.2 18.2 1.9 8.4-.9 10.6 4.2 16.5 4q2.6-.5 5-2c3.4-2.2 6.3-.5 9.8.5 3.2 1 6.7 1.2 10 1.7s6.5 1.6 9.8 2.1" class="b"/><path d="M13 152.1c13 2.7 16.2-3.6 27.3-3.5 1.3-1 2.6-2.4 4.1-3.1q4.3-1.8 9.1-1.6c5.6 0 10.8 2.3 15.7 4.6 3.4 1.6 7.4.6 10.7-.7 4.4-1.3 8-4.7 12.4-5.6q2.5-.7 5 .3 1.7.2 3.3 1c1.8 1.2 2.7 3.3 4 4.9.9-.3 1.5-2 1.7-2.7 1.2-2.3 2.3-5.7 5-6.6 1.5-.2 3 1 4.1 1.8q2 1.6 4.1 2.8c4 2 8.4.9 12.4.2q3-.5 5.8 0c2.2.5 4.4 1.2 6.6 1 2 0 3.9-.6 5.8-.8 3.7 0 7.1 1.9 10.7 2.4 2.7.6 5.6.7 8.3 1.2q4.9 1 9.9 2" class="b"/><path d="M13 150.6c13.7 3.3 16.8-5.4 25.7-3.5 1.6-.1 2.7-2.3 4-3.1 3.4-2.2 7.7-2.7 11.6-2.9q7 .2 13.2 3.3 2.6 1.1 5 2.5 2.5.4 5-.5 3.3-1 6.5-2.3 2.9-1.6 5.8-2.7c6.6-2.5 10.2-.2 14.9 4.4 1.8-2.5 3.2-9.7 7.4-7.9 2.4 1.5 4.2 3.9 6.6 5.3a15 15 0 0 0 9.9 1c2.7-.5 5.5-1.5 8.3-1.7 2.1-.2 4.4.2 6.5.3q3.4-.2 6.6 0 3.8.8 7.5 1.7c3.8.9 7.7 1 11.5 1.7 3.3.6 6.6 1.6 10 2" class="b"/><path d="M13 149c6.4 1.8 11 .7 16.6-2.5q2.6-1.6 5.8-1.9c1 0 2.2.4 3.3.2 4.2-3.8 6-4.6 11.5-5.8 7.3-1.7 15 .1 21.5 3.8l3.3 2c1 .2 2.2-.3 3.3-.5l4-1.2c2.4-.6 4.5-1.9 6.7-2.7 6-2.5 11-2 15.7 2.8 1.3-2.6 3.5-9.3 7.4-6.2 2 1.6 3.6 3.7 5.8 5a20 20 0 0 0 12.4 1.1c3-.6 6-1.7 9-1.9q5 0 10 .4 4 .6 8.2 1.4 5.8.7 11.5 1.3c3.3.6 6.6 1.7 10 2.1" class="b"/><path d="M13 147.4c3 .9 6.2 1.5 9.2.8 5.2-1.6 9.8-7 15.6-5.2q2-1.8 4.2-3.3 1.9-1 4.1-1.7 4.8-1.7 9.9-2.3c7.7-.5 15.1 2.9 21.5 7 1.3 0 2.8-.6 4-.8q2.3-.5 4.2-1c6.3-3 13.2-5.5 19-.2 5-10 6.1-5.2 12.4-.2 1.9 1.3 4.3 1.5 6.6 1.7q3.2.2 6.6-.1c2.7-.5 5.4-1.5 8.2-2 5.8-.6 11.6.4 17.3 1.2q6.7.4 13.2 1c3.4.5 6.6 1.8 10 2.3" class="b"/><path d="M13 145.9c7.4 3.9 11.2-.6 17.4-3.8q2.3-1.2 5-1.4c.7 0 1.7.3 2.4 0q3.1-3 7.5-4.3l6.6-2.3a25 25 0 0 1 16.5 1q6.1 2.3 11.5 6l4.1-1q1.8-.2 3.3-.8c5.3-2.5 12.4-5 17.4-.6 5-9.2 6.6-4 12.4.4 1.9 1.3 4.3 1.3 6.6 1.5q3.2.6 6.6.2c2.7-.3 5.4-1.7 8.2-1.7q5-.1 10-.1 4 .5 8.2.8c4.3.2 8.8 0 13.2.4 3 .5 6 1.8 9 2.4" class="b"/><path d="M13 145.3c6.6 3 11.1-1.5 16.6-4.3 2.2-1.2 4.8-2.6 7.4-1.8 1.3-.3 2.2-1.7 3.3-2.4 1.2-1 2.8-1.3 4.1-1.8 3.8-1.4 7.5-3.4 11.6-3.9 5.4-.7 10.7 1 15.7 3q2.5 1 5 2.1l4.9 3.2c1 .2 2.2-.3 3.3-.5q2.5-.3 5-1.4c4.3-2 10.8-4.2 14.8-.4 5.8-8.9 7-3.3 13.2.7 1.7 1 3.8 1 5.7 1.3 3.3.5 6.8.7 10-.4q.8-.3 1.6-.2h3.3q5 0 9.9-.6 2-.2 4.1.2 3 .3 5.8.2c4.4 0 8.9-.7 13.2 0 2.5.5 5 1.6 7.4 2.1" class="b"/><path d="M13 144.4c2.4 1 5.2 1 7.5 0 3.1-1.3 6-3.2 9-4.8 2.3-1.2 5-2.9 7.5-2 1.7-.5 2.6-2.4 4.1-3.1q2.2-.5 4.2-1.4c3.7-1.7 7.4-3.8 11.5-4a45 45 0 0 1 14 2.8q3.3 1 6.7 2.4 3 1.7 5.7 3.7c1 .3 2.3-.2 3.3-.4 2.9-.5 5.6-1.8 8.3-2.8 3.2-1 7.2-1.8 9.9.8 1.4-.7 2-2.5 3.3-3.4 2-1.8 4-1.2 5.8.4 1.8 1.5 3.6 3.2 5.7 4q2 .7 4.2.9 2.7.6 5.8.5 1.6-.2 3.3-.7 2.4.4 5 .3 7 0 14-1 3.7.5 7.4.2c4.3-.2 8.8-1 13.2-.4q3.3.8 6.6 1.9" class="b"/><path d="M13 143.3c3.4 1.4 7 .3 10-1.4q3.4-1.7 6.6-3.6c1.8-1 3.6-2.3 5.8-2.5.7 0 1.7.4 2.4.2.5-.4 1.3-1.4 1.7-2q1-.9 2.5-1.2 1.6-.4 3.3-1.2c3.6-1.8 7.3-4 11.5-4a92 92 0 0 1 17.3 3.7q3 .9 5.8 1.9 2.7 1.3 5 3.2c5.2.6 9.7-3.2 14.8-3.5q1.7-.2 3.3.3c.8.4 1.7 1.2 2.5 1.5 7.2-10.5 8.6-.9 16.5.9l5.8.9q2-.1 4.1-.5 4 .9 8.3.7a67 67 0 0 0 12.4-1.3q1.6 0 3.2.2 2.6 0 5-.2c7-.8 11.3-1.8 18.1.8" class="b"/><path d="M13 142c3 1.3 6.4.4 9.2-1q3.4-1.5 6.6-3.3c2.8-1.7 5.5-4 9-3 2.4-4.2 3-2.4 6.6-4 2.7-1.5 5.3-3.2 8.3-4 3.3-.8 6.6.6 9.9 1.2q3.2.4 6.6.7 4.6 1 9 2.5c2 .5 4.1.9 5.8 2 .8.3 1.7 1.1 2.5 1.3q2.5.1 5-.2c2.7-.6 5.4-2 8.2-2.3 2.2-.5 4.2.4 5.8 1.9l.8-.2c7.2-10.2 8.6-1.8 16.5.4 2.7.6 5.6 1.2 8.3.5q5.3 1.2 10.7 1 5.9-.1 11.6-1.4 1.6-.1 3.3.1 2.4.2 5-.1c5.7-.7 11.7-2.1 17.3.2" class="b"/><path d="M13 140.6c2.7 1.2 5.8.7 8.3-.4q3.4-1.4 6.6-3.2c2.2-1.2 4.2-3 6.6-3.7q1.6-.3 3.3-.6c2.9-3.4 2.3-1.7 5.8-3 2.5-1.2 4.8-2.9 7.4-3.7 4.8-1.7 9.3 1.8 14 1.8 2.5.2 5-.2 7.5.3 3.6.7 7 2.2 10.7 2.7 1.5.3 2.8 1.2 4.2 1.7l3.3.2q3-.3 5.7-1 2.4-.9 5-1c1.8 0 3.3 1.4 5 2 .9-.5 1.7-1.8 2.4-2.5 1.2-1.1 2.6-2.4 4.2-2.8 1.8-.3 3.5 1 4.9 2 2 1.3 4.1 2.8 6.6 3.2 2.1.4 4.5.8 6.6.3 1.4 0 2.8.7 4.1.8q3.7.5 7.5.5c3.9 0 7.7-.8 11.5-1.5 1-.2 2.3.2 3.3.2q2.5.1 5-.2c5.4-.6 11.1-2.2 16.5-.2" class="b"/><path d="M13 139c3.6 1.9 7.5.4 10.8-1.2q3-1.3 5.8-3 2-1.4 4.1-2.5l5-1.9c.3-.4 1-1.2 1.6-1.3q1.3 0 2.5-.4c6-2.7 8.9-5.7 15.7-2.8q3.5 1.5 7.4 1.6c2.5 0 5-.4 7.4-.3 2.3 0 4.5 1 6.6 1.5 2.2.6 4.6.7 6.6 1.6 3.1 1.5 6.7.5 10 0q3.2-.6 6.5-.6 2.3-.2 4.2.5c1-.3 1.7-1.4 2.4-2q2.2-1.7 5-2c4 .4 6.8 4.1 10.7 4.7q3.4.8 6.6.2 5.7 1.5 11.6 1.6 5.4-.2 10.7-1.4 1.7-.1 3.3.2 2.5.2 5 0c5.4-.6 11-2.5 16.5-.7" class="b"/><path d="M13 137.5c3.5 1.7 6.7.9 10-.6a51 51 0 0 0 9-4.9q2.4-1.5 5-2.5 1.8-.6 3.3-1.7c2 0 4-1 5.8-2 3.3-1.7 7-2.6 10.7-1.1 4.8 2 8.8 2.6 14 2 3-.3 6.2-.6 9.1.5q3 .6 5.8 1.2c1.3.3 2.8 1 4.1 1.2 2.8.3 5.6-.7 8.3-1.1q3.7-.6 7.4-.8c1 0 2.3.4 3.3.3q2.9-2.5 6.6-3c3.7-.1 6.5 3 10 3.9q4 1.2 8.2.4a42 42 0 0 0 9.9 1.5q5.3-.1 10.7-.8 4 .6 8.3.2c5.4-.5 11-2.6 16.4-1" class="b"/><path d="m13 136.3 3.4.7q2.5.2 5-.9 3.3-1.2 6.5-2.8 3-1.7 5.8-3.3l4.1-2.3q1.4-.5 2.5-1.2c1-.3 2.3-.3 3.3-.8 3.6-1.6 7.5-3.5 11.6-2.3q3.3 1 6.6 2 4.5 1 9 .7c4.2-.2 8.4-1 12.4 0q2.2.4 4.2 1.2 2 .9 4 1c3.4-.3 6.6-1.6 10-1.8 2.7-.4 5.6-1 8.2 0 2.5-1.5 5.3-3 8.3-2.8 3.2.6 5.9 2.9 9 3.6q3 .8 5.8.7 1.7-.1 3.4-.4 4.8 1.2 9.9 1.2c1.6.3 3.2 1 4.9.8 1 0 2.3-.3 3.3 0q2.9.6 5.8.2c6.2-1 12.6-3.5 19-2.3" class="b"/><path d="M13 135.1c4.6 1 7.5 0 11.6-1.6 3.2-1.2 6.2-3 9.1-4.5a42 42 0 0 1 8.3-4.2q1.2-.1 2.4-.7c3.8-1.7 7.5-2.7 11.6-1.3q8.8 3 18.1 2.4c3 0 6.1-1 9.1-.8q3 .6 5.8 1.9c3 1.4 6.1-.1 9-.8q4.2-.8 8.3-1.1 2.5 0 5 .5c9.1-5.6 10.4-.4 19 1.3a16 16 0 0 0 8.2-.3l2.5.3q1.7.3 3.3.6 1.6 1 3.3 1.5 2.4.6 5 .6 1.6.5 3.2.5c7.8-.4 15.2-4.6 23.1-3.5" class="b"/><path d="M13 133.8c4.6 1 9.1-.7 13.3-2.3 3-1.3 6.3-2.6 9-4.6q3.1-2.1 6.7-3.6 1.2 0 2.4-.5c2.6-1.1 5.4-2.1 8.3-1.7q4.2.8 8.2 1.9 6.6 1.2 13.2 1.4 3 .2 5.8-.5c2.1-.6 4.5-1.3 6.6-.3 1.7.5 3.2 1.7 5 1.9q3 0 5.7-1a57 57 0 0 1 11.6-1.7c1.4 0 2.8.7 4.1.5q2.3-1.4 5-2c2.5-.8 5.1.4 7.4 1.3q3.2 1.5 6.6 2.2 3 .6 5.8.2c2-.2 4-1.1 5.8.2 3.9 2.3 8.6 4 13.2 2.8q3.3-1 6.6-2l5.8-.8c3.2-.6 6.5-1.5 9.9-1" class="b"/><path d="M13 132.2c4 .9 8-.4 11.6-1.5q4.3-1.3 8.3-3.1c3.8-2.2 7-5.5 11.5-6.2 2.6-1 5.4-2 8.3-1.4q5.8 1.4 11.5 2.3 6.2 1 12.4 1.4 3.5-.1 6.6-1.5 2.5-.6 5 .3c4 3.1 8 1 12.3 0q3.8-.8 7.5-1.2 2 0 4.1.3 1.2.5 2.5.2 2-1 4.1-1.8c2.5-.8 5.1.3 7.4 1.2q3.3 1.5 6.6 2.3 3 .5 5.8.3c.8 0 1.8-.3 2.5 0l1.6 1q2 1 4.2 1.7c3.2 1 6.8.8 9.9-.4q3.2-1.5 6.6-2.5 3.2-.7 6.6-.6c3 0 6-.9 9-.6" class="b"/><path d="M13 130.5c4 1 8-.2 11.6-1.2 2.8-.9 5.7-1.5 8.3-2.9 4.1-2.1 7.6-5.9 12.4-6.6 2.9-1.1 5.1-2 8.2-.9 3.5 1.2 7.2 1.5 10.7 2 4.4.8 8.8 1.7 13.2 1.9q2.2 0 4.2-.7c2-.8 4.4-2 6.6-1q1.6 1 3.3 1.7c2.7.8 5.6-.3 8.2-1a51 51 0 0 1 7.4-1.7 20 20 0 0 1 8.3.4c1.4-.3 2.7-1.4 4.1-1.9 4.4-1.1 8.4 2 12.4 3.2q3.7 1 7.4.7c2.1 1.1 4.3 2.3 6.6 2.8 7 1.5 11.3-2.4 17.4-4 3.2-1 6.6-.7 9.9-.6 1.9.1 3.8-.3 5.7-.2" class="b"/><path d="M13 128.6c5.3 1.4 10.7-.6 15.8-1.8 4.9-1.3 8.8-4.8 13.2-7.2 1.5-1 3.2-1.3 5-1.8a9 9 0 0 1 7.3 0c2.9 1.2 6 1.3 9.1 1.8q5.7 1 11.6 1.8c2.4.4 5 .5 7.4-.5 1.5-.6 3.2-1.4 5-1.4 4.5 3.5 7.2 3 12.3 1a37 37 0 0 1 17.4-1.6c4.9-4 9.9-.4 14.8 1.5q3.2 1 6.6 1l2.5 1.2c3.9 1.8 8.4 1.5 12.4.2 2.5-.9 5-2.2 7.4-3q4-1.6 8.2-1.5 3 .1 5.8.4l4.2-.2" class="b"/><path d="M13 126.6c4.4 1.5 9 .3 13.3-.6 5.8-1 10.7-4.7 15.7-7.6a21 21 0 0 1 5.7-2.2q3.5-1.4 6.6.1c2.6 1.3 5.5 1.6 8.3 2q3.3.4 6.6 1c3.8.5 7.7 1.6 11.5.9 2-.4 3.9-1.4 5.8-1.7 7 5.1 8.5 2 15.7 0a54 54 0 0 1 14-1.6q1.3.1 2.5-.2c4.4-2.6 9.1.6 13.2 2.3q2.8 1 5.8 1.1 2.7 1.5 5.8 2c3.9.3 7.9-.9 11.5-2.2 3.7-1.5 7.5-3.2 11.6-3.5 2.7-.4 5.5.2 8.2.4l4.2-.2" class="b"/><path d="M13 124.4c4 1.7 8.4 1 12.5.1q4.7-.9 9-3c2.8-1.5 5.5-3.4 8.3-4.8a24 24 0 0 1 5.8-2.2c1.8-.6 4-.9 5.7.2q3.5 1.9 7.5 2.1l6.6 1q5.3 1 10.7 1.1c2.3 0 4.4-1.2 6.6-1.4 6.5 5.2 8.2 2.6 14.9.1a67 67 0 0 1 19-2.5 9 9 0 0 1 5.7-.4c2.6.7 5 2.3 7.4 3.2q2 .6 4.2.8a15 15 0 0 0 5 1.5c4.1.4 8.3-1 12.3-2 4-1.5 8-3.3 12.4-3.7q3.7-.3 7.4.3c1.6.1 3.3-.3 5-.2" class="b"/><path d="M13 122.2c3.9 2 8.4 1.3 12.5.6q5.1-1 9.9-3.3c2.4-1.3 4.8-3 7.4-4q3-1.7 6.6-2.7 3-1 5.8.5c3.4 2.2 7.6 2.2 11.5 3q4.5.6 9.1.7 4.2.4 8.3-.8c2.3 1.4 4.5 3.5 7.4 3.4 3.6-.2 6.4-3.1 9.9-3.9 4-1 8.2-1.2 12.4-1.8q4.9-.3 9.9-1c3 .1 5.6 2 8.2 3.1q2 1 4.1 1.1 1.2.6 2.5 1c3.3.7 6.7.2 10-.6 5-1 9.8-3 14.8-4.2 3.2-.8 6.6-.6 9.9-.4 1.9 0 3.8-.5 5.7-.4" class="b"/><path d="M13 119.9c5.5 3.3 13.4 1 19-.8q2.7-.7 5-2a40 40 0 0 1 6.6-3.4c3.6-1.4 7.7-4.1 11.6-2.1q4.6 2.5 9.9 2.9 5.3.8 10.7.5 3.3 0 6.6-.3c3.6 2.3 7.2 5.5 11.5 3 2-1 3.8-2.4 5.8-3.2 3.2-1.2 6.6-1.2 10-1.5l10.7-1.2c3.6-.4 5.7-.6 9 1.3q2.8 1.5 5.8 2.3 2.8 1.3 5.8 1.2c2.5 0 5-.7 7.4-1.2q5.4-1 10.8-2.6 6.4-2 13.2-1.6 3.2-1 6.6-.8" class="b"/><path d="M13 117.4c6.1 4.2 15.1 1 21.5-1 3.2-.9 6-3.1 9.1-4.2 4-1.3 8.2-4.3 12.4-2.2a33 33 0 0 0 14.8 3.2c3.3 0 6.7-.7 10-.4 3.9 3 8.3 6.7 13.1 3.3 4.5-3.1 6.8-4.5 12.4-4.5 4.4 0 8.8-.7 13.2-1.1 2.5-.2 5-.8 7.5-.2q2.5.9 4.9 2.1l3.3 1.4c5 2.1 10.5-.1 15.7-.9 6.3-1.2 12.5-3.3 19-3.3q1.6-.2 3.3-.8 2.9-.7 5.7-.4" class="b"/><path d="M13 114.9c3.5 2.8 8.3 2.6 12.5 2 3-.4 6-1.5 9-2.3q3-1 5.8-2.6 2.4-1.2 5-2c3-.8 5.9-2.6 9-2.3 2.3.3 4.5 1.6 6.7 2.2q4 1.2 8.2 1.3 3.8-.1 7.4-.7l1.7-.1c1.2.2 2.3 1.5 3.3 2.1 1.7 1.3 3.7 2.7 5.8 3.4 6 2 9-5.7 14.8-5.9 2.4-.3 5 0 7.4-.2q4.2-.1 8.3-.7c8.2-.9 9-1.1 16.5 2.6 3.6 1.7 7.8 1 11.5.1 7.7-1.3 15.3-3.3 23.1-3.9 1.1-.2 2.3-.9 3.3-1.2 2.1-.5 4.5-.9 6.6 0" class="b"/><path d="M13 112.2c3.1 2.9 7.6 3.1 11.6 2.6 3.7-.1 7.2-1.5 10.8-2.4 2.3-.7 4.3-2 6.6-3l9-2.9c2.4-1 5.1-.6 7.5.3a40 40 0 0 0 6.6 1.9c3.8.7 7.7.2 11.5-.4 4 1.8 7.2 5.6 11.6 6.5 1.9.3 3.6-1 5-2.2 2.5-2.6 5.1-5.3 9-5 3.8.3 7.7.7 11.5.3 5-.4 10-1.5 14.9-.4q3 1 5.8 2.3 2.4 1 5 1c3 0 6-1 9-1.4 5-.8 9.9-1.9 14.9-2.5 1.6-.3 3.4-.3 5-.8 3.1-1.9 7.2-2.9 10.6-.9" class="b"/><path d="M13 109.7q4.2 3 9.2 3 3.2 0 6.6-.6 3.7-.8 7.4-2c2-.7 3.8-1.8 5.8-2.5q2.8-.8 5.7-1.7c3-.7 6-2.1 9.1-1.6 2.5.4 5 1.4 7.5 1.9q4.9 1 9.9.2c1.4.1 2.8 1.2 4 1.8 2.2 1 4 2.6 5.9 3.9 5.6 4 8.8-4.2 13.2-6.3 2.3-1.1 5-.4 7.4 0q3.7.8 7.4.6c5.5-.4 11-1.6 16.5-.5 2.6.5 5 1.8 7.5 2.4 4.4 1.1 8.8-.2 13.2-.9 2.5-.2 5-1.2 7.4-1.7 2.7-.6 5.5-.4 8.2-.9 1.5 0 2.8-1.2 4.2-1.7q5.1-2.3 9.9 1" class="b"/><path d="M13 107.4q5 3.3 10.8 2.9 8.2-.2 15.7-3.7 4-1.5 8.2-2.5c3.3-.8 6.6-1.8 10-1.7 3 .4 6 1.5 9 1.9q2 .3 4.1.3c.8 0 1.8-.2 2.5.2l5 2.3c1.6 1.2 3 3 5 3.7 5.6 2.3 8.5-6 13.1-7.8 2.4-1 5 .1 7.5.7q3.6 1 7.4 1c5.7-.4 11.6-1.4 17.3-.5 3.1.4 6 1.7 9.1 2.1q4.1.6 8.3-.2 3-.3 5.7-1.3c4-1.5 8.3-1.5 12.4-1.8 2.8-1.5 5.8-3.3 9-2.7 2.2.3 4 1.7 5.9 2.7" class="b"/><path d="M13 105a18 18 0 0 0 13.3 2.8c4.9-.2 9.5-2 14-3.7 3.8-1.2 7.7-1.8 11.6-2.8 2.7-.5 5.5-.4 8.2-.5 3.5.6 7.1 1.6 10.7 1.6l6.6 3.2c3.7 3.7 6.8 5 10.8.8 2.8-2.6 5.5-7 9.9-6.4 4.4.8 8.6 3 13.2 3 2.2-.1 4.4-.7 6.6-.7q5.3-.5 10.7-.1l5.8.9q2.4.7 5 1c2.6.4 5.5 0 8.2-.3 2.1-.6 4.4-1.5 6.6-1.9q2.4-.4 5-.6 1.6 0 3.2-.4c3.3-1.6 7-3.5 10.8-2.1 2 .7 3.8 2.1 5.7 3" class="b"/><path d="M13 102.4c5 3.6 10 3.5 15.8 2.6 4.5-.5 8.7-2.4 13.2-3.5 3.8-.7 7.6-1.8 11.5-2.2l9-.1 5 .9 1.7.2 2.5 1.2q2.3 1.3 5 2.5c1.5 1.3 3.5 3 5.7 2.7 3.2-.8 5.1-4.1 7.4-6.3 4.4-4.5 7-3.3 12.4-1.5 2.7.9 5.4 2 8.3 2q2 .2 4-.3 3.7-.1 7.5-.5l5.8-.2q2 .4 4.1.7t4.2.2l4 .9q3.3.5 6.7 0 3.7-1 7.4-1.8 3-.4 5.8-.8c3.1-1.3 6.4-3 9.9-2.5 3.3.4 6 2.8 9 3.9" class="b"/><path d="M13 99.8c2.8 1.7 5.9 3.1 9.2 3.2 6.8.2 13.2-2.2 19.8-3.7 4.3-.6 8.7-2 13.2-1.9q2.8.3 5.7.2 2.6-.3 5 .3 1.2 0 2.5.4l4.1 2.3 4.1 2q1.6 1.2 3.3 1.7c3 .5 5-2.4 6.6-4.4 1.8-2 3.8-4.6 6.6-5.3 5.2-.5 10 2.6 14.9 3.9 2.1.6 4.4.3 6.6 0q5.3-.3 10.7-.8c2.5-.3 5 .8 7.4.8h5c1.3.1 2.8.7 4.1.8 4.5.7 8.8-1.1 13.2-1.6 3-.2 5.5-1.8 8.3-2.6 5.8-1.9 10.3 2.4 15.6 3.7" class="b"/><path d="M13 97a26 26 0 0 0 10 3.6c6 .3 11.6-2 17.3-3.1q6.2-1.2 12.4-2c2.2-.2 4.4.3 6.6.3h5c1.6.3 3.5.4 4.9 1.4q3.6 2.2 7.4 3.8c1.3.5 2.7 1.3 4.2 1 2.2-.6 3.6-2.9 4.9-4.6 4.8-7 8.4-6.6 15.7-3.7 3 1 5.9 2.7 9 3 5-.2 10-1 15-1.3 1.8 0 3.8.6 5.7.7q2.9.3 5.8.1c1.3 0 2.8-.2 4.1.3 3.9 1.2 7.7 0 11.5-.5 3.5-.4 6.6-2.3 10-2.9 2.8-.5 5.6.4 8.2 1.5 2.6 1 5.4 2.2 8.3 2.5" class="b"/><path d="M13 95c1.3-.4 2.4.3 3.4.8l3.3 1.5c5 2.5 11.4 0 16.5-1.2a122 122 0 0 1 11.5-1.9c1.6-.2 3.3-.8 5-.8 3.3 0 6.6.7 9.9.4q2.4.4 5 1c2.4 1.1 4.8 2.7 7.4 3.6 2.3.8 5.3 2.3 7.4.2 2-1.8 3.2-4.4 5-6.5 3.2-4 7-3.6 11.5-1.8 3.3 1.2 6.5 3 9.9 3.7q2 .4 4.1 0l5-.3q2.4-.2 5-.3 2.4-.3 4.9.1c4 .7 8.2.6 12.4.6 1.6-.1 3.3.4 4.9.4q5.5 0 10.7-2c3.5-1.1 7.3-2 10.8-.3 3.9 1.7 8 3.2 12.3 3.1" class="b"/><path d="M13 93q1.3-.4 2.6-.5c1.7.7 3.2 2.2 5 2.9 4.2 1.7 8.9 0 13.1-.9q5.4-1.2 10.7-2c2 0 3.9-.9 5.8-1q8.4-.5 16.5 1.5c2.1.2 3.8 1.7 5.8 2.4a23 23 0 0 0 9 1.5c3-2 4.2-5.8 6.7-8.2 2.8-3.2 6.3-2.7 9.9-1.2 3.5 1.3 7 3.2 10.7 4 2.4.5 5-.2 7.4 0l5 .2c.8 0 1.7-.5 2.5-.6q2.4-.2 5 .4l5.7.5q6.6.2 13.2 0c3-.3 6-1.5 9-2q3.9-1 7.5.4c4.9 2.3 9.4 3.6 14.9 3" class="b"/><path d="m13 90.8 1.7-.4 1.7.4c1.4.6 2.7 1.8 4.1 2.3 3.4 1.5 7.3.6 10.7-.2a176 176 0 0 1 13.3-2.5q1.6-.5 3.3-.8 4.9-.1 9.9.2 4.1.5 8.2 1.4l3.3.6q1.2.7 2.5 1c3.7 1.5 7.7 1 11.5.4 2.3-2.1 3.5-5.4 5.8-7.5 2.8-3 6.7-1.7 10-.3q4.4 2 9 3.5c2.1.6 4.4.2 6.6.2q2.6.2 5 1.4c.8-.4 1.6-1.2 2.4-1.5 2.2-.6 4.5.1 6.6.4q5.7 1 11.6.7 4.1 0 8.2-.6c3.3-.6 6.6-1.4 10-1.5 3.1 0 6 1.8 9 2.6 3.7 1.1 7.7 1 11.6.6" class="b"/><path d="M13 88.6c1.7.3 3.4 1 5 1.2l3.3 1.4c3.5 1.2 7.3.2 10.8-.6l9.9-2 3.3-.8q2.4-.2 5 0 3.6 0 7.3.2 6 .5 11.6 1.8 2.4.8 5 1.1c3.6.2 7.1-.9 10.7-1.6 1.9-2.3 3.2-5.3 5.7-7 2.6-1.6 5.7-.4 8.3.6q4 1.8 8.3 3.2c2 .8 4.4.7 6.6.7 1.4 0 2.7.9 4 1 3-2.1 6.8-1 10-.2q4.9.7 9.9.7 4.1 0 8.2-.6c3.6-.4 7.2-1.2 10.8-1.3 3.3.3 6.5 1.8 9.9 2.3q6.2 1 12.3.2" class="b"/><path d="M13 87.2q3.4 1 6.7 1.4 2.4.9 5 1c3 0 6-.8 9-1.5l7.4-1.6c3-.9 6.1-.6 9.1-.6q8-.3 15.7 1l6.6 1.2c3.6.6 7.2-.8 10.7-1.4 1.1-.2 2.5-.3 3.3-1.2 1.2-1.8 2.5-3.8 4.2-5.1 2-1.8 5-1.2 7.4-.3l6.6 2.7q2.7 1 5.8 1.5 1.2 0 2.4.2l2.5.6c4-2.1 8.4.8 12.4 1.5q4.6.5 9-.2l5.9-.3c4-.2 8.2-1.4 12.4-1q4.1.4 8.2 1.2l7.4.7q4.2 0 8.3-.4" class="b"/><path d="M13 86a25 25 0 0 0 8.3 1.3q2.5.5 5 .3c5.5-.7 10.9-2.9 16.5-3.3 6.3 0 12.6-.8 19-.3q5 .3 9.9 1.3c2.7 1 5.6.2 8.2-.6l5-1.1c1-.3 2.4-.4 3.3-1.3q1-1.7 2.4-3C93 76.7 96 77 99 78.1q3.3 1.2 6.6 2.5 3.2 1 6.6 1.7c.8.2 1.7-.3 2.5-.3q1.7 0 3.3.5c6.6 2 9 3.8 16.5 2.6A84 84 0 0 1 155 84q3.7.4 7.4.3l4.2 1.1c4 1 8.3.3 12.3-.8" class="b"/><path d="M13 84.7a23 23 0 0 0 10 1.2q2.4 0 5-.4l5.7-1.5q4-.7 8.3-1.2 9.7-1.4 19.8-1.3a56 56 0 0 1 14 1.8q1.6 0 3.3-.6 5.3-1.5 10.7-2.5c1.7-2 3.8-4.3 6.6-4.2 4.7.2 8.8 2.7 13.2 4.1 2.4-1 5.1 0 7.5.7q3.6 1.3 7.4 2.5 3.7.8 7.4.5c3.3-.2 6.6-.9 10-1q7.3-.5 14.8-.3l4-.2 3.4 1c5.1 2 9.8 1.2 14.8-.6" class="b"/><path d="M13 83.3a27 27 0 0 0 15.8.1q7.3-1.6 14.8-2.8 10.2-1.7 20.6-1.9 4.5-.1 9.1.7c2 .2 3.9 1 5.8 1.4 4-.8 8.2-2.2 12.4-2.1 1.4-.8 2.6-2.3 4.1-2.8 3.6-1.5 7.4.4 10.7 1.8 3.8-2.2 8 .4 11.6 1.6 3.7 1.4 7.5 2.6 11.5 2.5 4.2 0 8.3-.6 12.4-.6 5-.4 10-.1 14.9-.5q1.6-.2 3.3-.4l3.3 1.4c5.6 2.5 10.1 1.7 15.7-.6" class="b"/><path d="M13 81.9a25 25 0 0 0 14.1.2c4.7-.9 9.3-2.4 14-3.3q6.2-1.2 12.4-1.8 5.7-.9 11.6-1c5.8-.3 12 0 17.3 2.6 3.5-.5 7.2-1.5 10.7-.4q1.4-.6 2.5-1.4c2-1 4.5-1.3 6.6-.6 1.6-1.4 3.6-2.6 5.8-2.3 3.8.5 7.2 2.5 10.7 3.7q5.1 2.2 10.8 2.2 8.2-.1 16.5-.4c4.4 0 8.8 0 13.2-1 7.7 3.6 11.6 5.1 19.8 1.1" class="b"/><path d="M13 80.3a25 25 0 0 0 14.1 0q3.4-.8 6.6-1.7 2.8-1 5.8-1.7 6.5-1.5 13.2-2.3 9-1.7 18.1-1.7 8.6-.2 16.5 3.3c1.3.6 2.8.4 4.2.7l2.4.7q.8.4 1.7.3c1-.2 1.9-1.2 2.5-1.9 1.2-1.4 2.5-3 4.1-4 2-1.4 4.5-1.3 6.6-.5 4.7 1.7 9.1 4.3 14 5.5 4 .9 8.3.7 12.4.7h11.6q4.1.1 8.2-.4 1.7-.2 3.3-.7 1.3.2 2.5 1c6.5 3.2 11.4 4.2 18.2.5" class="b"/><path d="M13 78.7a24 24 0 0 0 13.3-.1l6.6-1.8q2.8-1 5.8-2 6-1.5 12.3-2.4a89.6 89.6 0 0 1 40.4-1q2.2.5 4.2.4c.8 0 1.9-.2 2.5-.9 3.5-3.8 7.2-3.5 11.5-1.3 11 5.8 14.1 6.1 26.4 6.1q5.9.3 11.6.2c3.6 0 7.3 0 10.7-1.2 7.2 3.3 13 6.3 20.6 1.9" class="b"/><path d="M13 77c6 2 12.4.1 18.2-1.6 2.6-.8 4.9-2.2 7.5-2.9q6-1.6 12.3-2.7 7.4-2.5 14.9-3.7 2.9-.5 5.8-.2 2.4.3 5 .3c4.6-.1 9.3-1 14-.9 3.5.2 7.1-.5 10.7-.4 2.3 0 4.6 1 6.6 2.1 4.7 2.6 9.5 5.2 14.8 6 3.8.7 7.8.6 11.6.7q5.3.3 10.7.3 4.6 0 9-.3 2.2-.3 4.2-.8l2.5 1c6.1 2.8 11.8 4.6 18.1 1.1" class="b"/><path d="M13 75.3a19 19 0 0 0 13.3-.3l5.8-1.8q2.4-1 5-2.3c4.7-1.7 9.8-2.7 14.8-4 3-1 6-2 9-2.7q4.9-1.6 10-2 3.7-.3 7.4.3c1.6.4 3.3-.1 5-.4 6.2-1 13-1.6 18.9.9 4 1.7 7.5 4.1 11.6 5.7q4 1.6 8.2 2.4 5.7.8 11.6.8c5.7.1 11.5.5 17.3.2q3.8-.2 7.4-1l4.1 1.6c5.4 2.2 11.1 3.7 16.5.9" class="b"/><path d="M13 73.9c4.9 2.5 10.2.3 15-1.2q2.4-.7 4.9-1.8c1.9-.9 3.7-2.2 5.8-2.7q5.8-2 11.5-3.4 4-1.5 8.3-2.6c3-.5 6-1.5 9-2q7-1 14-.7c2 .3 4-.2 5.9-.4q3.2-.3 6.6.1c7.2 1 13 6.1 19.8 8.3a77 77 0 0 0 20.6 2.7c6.3.2 12.7.5 19 0q2.4-.3 5-1 3.7 1.5 7.3 2.7c4.3 1.5 9 2 13.2.3" class="b"/><path d="M13 72.8c4.4 2.1 9 0 13.3-1.4q3.3-1 6.6-2.3c1.6-.8 3.2-2 5-2.7q8.6-3 17.3-5.5 3.2-.9 6.6-1.3 2.8-.6 5.7-.8 5.4.1 10.8-.6 6-.9 12.4-.7 4.3.4 8.2 2.2c5.2 2.2 10 5.6 15.7 6.8q4.5 1 9 1.2 7.9.9 15.7 1a129 129 0 0 0 17.4-.9c.7-.1 1.7-.5 2.4-.2 6.4 2 13.1 5.3 19.8 3.2" class="b"/><path d="M13 71.7c4.8 2 9.6-1 14.1-2.4 2.2-.8 4.6-1.2 6.6-2.3 2.1-1.2 4.2-2.7 6.6-3.3A90 90 0 0 1 63.4 58c3-.2 6 .4 9 .4 6.4-.2 12.7-3 19-2 8.3 1.4 15 7.3 23.2 8.7 3.8.7 7.7.5 11.5 1.2q9 .8 18.2.6 4.9 0 9.9-.6c1.6 0 3.3-.6 5-.7 6.4 1.7 13 5 19.7 3.7" class="b"/><path d="M13 70.4c4.3 1.5 8.5-1.2 12.5-2.4 2.7-1 5.6-1.5 8.2-2.6q2.5-1.4 5-3A68 68 0 0 1 56 58.3c2.4-.3 5-1 7.4-1q3.8.3 7.5.9 3.7 0 7.4-1c4.3-.8 8.8-2.3 13.2-1.5 5 .9 9.5 3 14 5.3a30 30 0 0 0 11.6 3q2 .2 4 .2 4.6 1 9.2 1c9.6.5 19.4.5 28.9-1.2 6.5 1.2 12.9 4.7 19.8 4" class="b"/><path d="M13 69c4.4 1.1 8.4-1.9 12.5-3q4.2-1 8.2-2.2c2.6-1 4.8-3.1 7.4-4q3.7-1.4 7.5-1.9 4.5-.3 9-.7l5-.8c3 0 6 1 9 .9 4.5-.4 8.9-1.8 13.3-2.5 4.7-1.2 9.6 0 14 1.7 3.3 1.3 6.5 3.1 10 4.3q4.4 1.5 9 1.4c1.6 0 3.3.6 5 .8a127 127 0 0 0 33.8-.4c1.3-.2 2.8-.7 4.1-.3q4.6 1.1 9 2.5 4.5 1.6 9.2 1.6" class="b"/><path d="M13 67.5c2.3.5 4.6-.4 6.7-1.3q2.8-1.3 5.8-2c3.2-1 6.8-1.2 9.9-2.6 2-1 3.7-2.5 5.7-3.4C46 56 49.4 57 54.3 56.8q4.6-.4 9.1-1.3 4 .7 8.3.7c6-.5 12-2.8 18.1-3 6.8.1 12.8 3.7 19 5.8 2.6 1 5.5 1 8.3 1.4q4.8 1.4 9.9 1.8a155 155 0 0 0 29.7-1.4c1.6-.2 3.3-.8 4.9-.2q4.2.8 8.3 2.1c2.9 1 6 2 9 2.1" class="b"/><path d="M13 65.7c2 .3 4-.4 5.9-1.1q3-1.5 6.6-2.4c3-.9 6.1-.8 9-1.9 2.5-1.2 4.8-3 7.5-3.9 4-2.1 7.3-.5 11.5-.5q3.8-.2 7.4-.9c1.7-.2 3.4-.6 5-.2q3.3.4 6.6.1 5.8-.7 11.5-2c3.6-.6 7.2-1.2 10.8-.5 5.1 1 9.9 3.4 14.8 5 2.1.7 4.5.5 6.6 1.3q6.9 2.2 14 2.2a198 198 0 0 0 27.3-2c1.6-.2 3.3-.6 5-.1q4.1.7 8.2 2.2 4 1.7 8.2 2.2" class="b"/><path d="M13 63.8c3 .3 5.7-1.3 8.3-2.2q4.8-1.9 10-2.1 2-.4 4-1.2l3.4-2q3-1.6 6.6-2.4c1.9-.3 3.9.4 5.7.7q2.1.3 4.2 0 4.5-.4 9-1c2.8 0 5.6.3 8.3.1q6.6-.6 13.2-1.8c5-1.4 9-1.5 14 0 3.6 1.1 7.2 2.6 10.8 3.7 1.6.5 3.4.4 5 1.3a41 41 0 0 0 17.2 2.5 246 246 0 0 0 25.6-2.3q2.4-.6 5-.1 3.8.5 7.4 2c2.7 1 5.4 2.2 8.3 2.6" class="b"/><path d="M13 61.8c2.7.2 5.1-1 7.5-1.8q5.6-2.1 11.6-2.3l4-1.4 3.4-2q3.1-1.4 6.6-2c2-.1 3.9.9 5.8 1.1 3.3.2 6.6-.4 9.9-.6a31 31 0 0 1 6.6-.2 84 84 0 0 0 16.5-1.2l5-1.4c4-1.2 8.3-.4 12.3.8 3.9 1 7.6 2.8 11.6 3.5q3 1.6 6.6 2.6 6.9 1.5 14 .9a316 316 0 0 0 24-2.5q2.3-.5 4.9-.2 3.8.6 7.4 1.9c2.7 1 5.4 2.4 8.2 2.9" class="b"/><path d="M13 59.6c2.3.3 4.6-.6 6.7-1.2 3.8-1 7.6-2.4 11.5-2.3q1.8-.2 3.3-1c1-.3 2.4-.5 3.3-1.2a25 25 0 0 1 7.5-2.8c1.6-.6 3.4-.1 5 .4q2 .6 4 .5 5.9-.4 11.6-.7 5.4.3 10.7.1c3.6-.1 7.4 0 10.8-1.4 5.3-2.1 8.2-2.7 14-1.3 4.2.9 8.2 2.7 12.4 3.6q2.8 1.5 5.7 2.5c4.5 1.6 9.4 1.7 14 1.4q9.6-.7 19-2l5.8-.7q3-.5 5.8-.2 3.4.5 6.6 1.7c2.7 1 5.4 2.6 8.3 3" class="b"/><path d="M13 57.4c2.3.4 4.5-.4 6.7-.8l8.2-1.8c1.9-.6 4 0 5.8-1l4.1-1.2q2.8-1.4 5.8-2.3l3.3-.9c2.3-.3 4.4 1 6.6 1 5 0 10-.6 14.9-.3 5.7.4 11.6.8 17.3-.1 5-1.3 8.6-4.4 14-3.4q5.5.9 10.8 2.8c1.6.6 3.4.8 5 1.6 5.6 2.7 11 4.2 17.2 3.6l19.8-2.1c3.9-.4 7.7-1.5 11.6-1q3.4.4 6.6 1.6c2.7 1 5.3 2.6 8.2 3" class="b"/><path d="M13 55c2.3.6 4.5 0 6.7-.2q4.5-.5 9-1.7 2.1-.4 4.2-.4a43 43 0 0 1 6.6-2q2.4-1 5-1.8 2-.6 4-1 2.2.2 4.2.7 4.5.2 9 0l7.5.2a101 101 0 0 0 14 .7q2.6 0 5-.7c3-1 5.9-3 9-3.6 6-.8 11.7 2 17.4 3.4 5.2 2.2 10.7 4.8 16.5 4.4 3.6-.2 7.2-1 10.7-1.4q5-.6 10-.9c4.3-.3 8.7-1.4 13.1-.9q3.5.4 6.6 1.8c2.4 1 4.8 2.3 7.5 2.7" class="b"/><path d="M13 52.7c2.5.6 5 .3 7.5.3 3.4 0 6.7-.9 10-1.6q1-.2 2.4-.3 2-.7 4.1-1.3c1.9-.7 4-.7 5.8-1.4a41 41 0 0 1 7.4-2q3 .4 5.8.5 7.9.3 15.7.8 8.2 1.2 16.5.6c4.1-.6 7.4-3.9 11.5-4.5 5.1-.7 10 1.5 14.9 2.8 4.9 1.6 9.6 4.3 14.8 4.6 4.5.2 8.8-1.3 13.2-1.8 2.2-.4 4.4.2 6.6 0q5.9-.6 11.6-1.3 5.1-.6 9.9 1.3c2.7 1 5.3 2.6 8.2 3" class="b"/><path d="M13 50.2q4.2 1.2 8.3 1c3 .2 6.1-.5 9.1-1.2 4-.4 7.6-2.2 11.6-2.7q2.1-.1 4-1l4.2-1c1.9-.5 4-.2 5.8-.2 6.3.3 12.7 1.1 19 1.5q4.1.6 8.2.6c7.4.3 8.4.4 14.9-3.5 4-2.3 8.2-1.5 12.4-.4l5.7 1.7c3.8 1.4 7.6 3.1 11.6 4 4.2 1.1 8.3-.6 12.4-1.3 1.6-.5 3.3.3 5 .4q3.2.2 6.5-.3c6.7-.7 13.3-3 19.8 0 2.4 1 4.8 2.4 7.4 2.7" class="b"/><path d="M13 47.7c1.2.1 2.3.7 3.4 1q2.8.6 5.8.7 6.7 0 13.2-1.7 3.6-1.2 7.4-2c1.3-.4 2.9-.1 4.1-.6q3.7-1.2 7.5-1.5c5-.1 9.9.6 14.8 1.2q6.6.8 13.2 1c3 0 6 .4 9 .3 4.1-.2 7.3-3 10.8-4.6 3.4-1.6 7.3-.3 10.7.6 4.8 1.1 9.4 3.2 14 4.6 5 1.5 7.7.4 12.5-.9.7-.2 1.7.3 2.4.5a21 21 0 0 0 9.1.3c6.9-.8 14-3.5 20.6-.6 2.4 1 4.9 2.2 7.5 2.5" class="b"/><path d="M13 45.2c2.9.5 5.5 1.9 8.3 2.2 3.3.5 6.7.1 10-.2q3.3-.6 6.5-1.8a39 39 0 0 1 10.8-1.8c5.3-1.8 11-1.7 16.5-.9q5.8.9 11.5 1.5 7.8.3 15.7.5c4.3.2 7.3-1.9 10.7-4.2 3.2-2.3 7.3-1.1 10.7-.3q6 1.6 11.6 3.7c3.2 1 6.6 2 9.9 1.1 1.3-.2 2.8-.9 4.1-1q5.3 2.1 10.8 1.2 5-.6 9.9-1.7c3.5-.7 7.2-.9 10.7.3 2.7.8 5.4 2.3 8.2 2.6" class="b"/><path d="M13 43c3 0 5.6 1.5 8.3 2.2q5.9 1.5 11.6 0 4.8-1.7 9.9-2.8 3.7-.7 7.4-.4 8.2-2 16.5-.7c4.7.7 9.3 1.6 14 1.7h5q3.2.6 6.6.8c3-.2 6.4-.7 9-2.4 2-1.1 3.6-3 5.8-3.7 3.6-.7 7.3.8 10.8 1.6 6.5 1.5 13 5.5 19.8 3.3.7-.4 1.8-.3 2.5.1l2.4.8q3.7.8 7.5.1 4.5-.6 9-1.6c3.8-.8 7.8-1.3 11.6-.1 2.7.7 5.4 2 8.3 2.4" class="b"/><path d="m13 41 3.4.4 4.1 1.5c7.1 2.3 11.4.6 18.2-1.4q4-1.2 8.2-1.6 3 .1 5.8.4c5.6-1.5 11.6-1 17.3-.1q5.7 1 11.6 1.4c3.5.7 7.1 1.4 10.7 1 2.5-.4 5-1.2 7.4-1.4 2 0 3.6-1.4 5-2.7 1.1-1.1 2.5-2.3 4.1-2.6 2.5-.3 5 .4 7.4 1q4.5 1 9.1 2.5c3.5 1 7 2.2 10.7 1.8 1-.1 2.3-.6 3.3-.6q1.7.7 3.3 1.1 3.8.8 7.5.2 5.4-.6 10.7-1.9a21 21 0 0 1 10.7.2c2.5.6 5 1.7 7.5 2" class="b"/><path d="m13 39 5 1q2 .8 4.2 1.3c7 1.8 13-1.2 19.8-2.5 2.1-.4 4.4-1 6.6-1q2.8.3 5.7.7c1.4 0 2.8-.6 4.2-.6a65 65 0 0 1 12.4.7q4.9.6 9.9 1.6c3.4.5 7.2 1.5 10.7.4q2.4-1 5-1.9c1.8-.5 3.8-.1 5.7.2.9 0 1.8-.7 2.5-1.1 1.4-1.5 2.8-3.4 5-3.7 2.7-.2 5.5.4 8.2 1l9 2.5c3.5 1 7.2 2 10.8 1.6l2.5-.3 3.3 1q3.7.5 7.4 0 4.1-.4 8.3-1.3c3.7-1 7.7-1.5 11.5-.6 2.8.5 5.5 1.7 8.3 2" class="b"/><path d="M13 36.8 19 38q2 .8 4 1.2c4.8 1 9.6 0 14.1-1.2l8.3-1.7q2-.4 4.1-.5c2.2.1 4.4.7 6.6.8q1.3 0 2.5-.2l3.3-.2a97 97 0 0 1 17.3 2q3.7.6 7.4 1c6.3-.4 8.6-6.2 15.7-2.8q1.3.6 2.5-.4c1.8-.9 2.9-3.2 5-3.7 3.2-.3 6.7.4 9.9 1.1l8.2 2.2q4.5 1.4 9 1.8c1.7.2 3.4-.3 5-.1q4.5 1.2 9.1.7l7.4-1q3.3-1 6.6-1.3c4.8-.3 9.4 1.5 14 2.4" class="b"/><path d="m13 34.5 7.5 1.7q2 .6 4.1 1c4.5.5 9-.3 13.2-1.4l8.3-1.6c3.5-.9 7.2.2 10.7.6 8.3-1 16.6.4 24.8 1.8 6.7 1.4 8.4-2 14-3.8 2-.6 4 0 5.8.8.7.3 1.6 1 2.5.8l2.4-1.5c.7-.7 1.6-1.7 2.5-2.1 1.6-.7 3.4-.4 5-.3q3.3.2 6.6 1l8.2 1.9q4.5 1.2 9.1 2c2.2.3 4.4 0 6.6.1q3.7.7 7.4.5 3-.2 5.8-.8 2.4-.6 5-1.2c5.5-.8 11 1 16.5 2.1" class="b"/><path d="M13 32.2c4.2.7 8.3 1.9 12.5 2.7 4.4.6 8.9-.1 13.2-1.2 3.5-.6 7-1.7 10.7-1.7q3.8.5 7.4 1.1 4-.7 8.3-.6c5.5 0 11 1.3 16.5 2 7 1.3 10.2-4.8 16.5-4 1.7.3 3.3 1.5 5 2q1.7-.9 3.2-2 1.6-1.8 4.1-2 6.3 0 12.4 1.4l10.8 2.1a71 71 0 0 0 23 1.4q3-.8 5.8-1.4 3.4-.3 6.6.4c3.4.2 6.7 1.2 10 1.8" class="b"/><path d="M13 30q4.7.6 9.2 1.7A29 29 0 0 0 32 33q3.8-.3 7.4-1.5c3-.5 6-1.3 9-1.3q3.4.4 6.7 1.2c1 .1 2.2-.6 3.3-.7q2.8-.3 5.7-.5c5.6-.2 11 1.3 16.5 2 8.9 1.6 12.4-6.8 20.7-1.5 1.1-.2 2.2-1 3.3-1.4 1.2-1 2.4-2.5 4.1-2.5h7.4q3.4.3 6.6 1c3.9.6 7.8.8 11.6 1.7a62 62 0 0 0 17.3 2h4.1c2.2-.5 4.4-1.4 6.6-1.6 2.2-.1 4.5.4 6.6.7 3.4.3 6.7 1.2 10 1.7" class="b"/><path d="M13 28q5.6.4 10.8 1.6c3.8 1 7.7 2 11.6 1.3s7.6-2.2 11.5-2.2q3.4.1 6.6 1c1.1.1 2.2-.7 3.3-.9 5.4-1.4 11-1.2 16.5-.2l6.6 1c2.2.3 4.4.7 6.6.3 5.7-1.1 7.1-3 13.2-1q2.1-.8 4.1-1.8c1.1-1 2.6-2 4.2-2 3.5.4 7.1-.1 10.7.1q3 .3 5.8.8 4.5 0 9 .7c5.8 1.1 11.5 2.4 17.4 2h6.6q2.4-.7 5-.8c2.1 0 4.4.7 6.5 1 3.4.3 6.6 1.2 10 1.6" class="b"/><path d="M13 26.2q6 0 11.6 1c3 .7 6 2 9.1 1.8q5.4-.1 10.7-1.4 3.8-.6 7.5.5c5.5-3 12-3 18.1-2.5 4.7.6 9.3 1.5 14 1.7 7 .4 14.5.1 20.7-3.5 2.1-.7 4.4.2 6.6 0q2.9-.1 5.8-.4 3.7 0 7.4.6 4.5-.2 9 .1c4.2.5 8.3 1.6 12.4 1.7q5.9.3 11.6.2c1.6 0 3.3-.3 5 0 2.1.2 4.4.9 6.5 1.2q5 .6 10 1.4" class="b"/><path d="M13 24.5c3 0 6.2-.4 9.2 0 3.9.4 7.7 1.6 11.5 2.2 3.3.2 6.6-.2 10-.3a17 17 0 0 1 5.7 0c4.6-3 10.4-3.4 15.7-3.2q6.2 0 12.4 1a77 77 0 0 0 23.9-1.5q1.2-.5 2.5-.7 2-.1 4 .4 2.2.3 4.2 0 6.6-1 13.2-.3 3.8-.3 7.4-.3 4.2.2 8.3 1c6.8.8 13.8.8 20.6 1q3.4.7 6.6 1.6 5.4.9 10.8 1.4" class="b"/><path d="M13 23c3.1 0 6.1-.6 9.2-.6q7.9 1 15.6 2.3 2.6 0 5 .2c1.3.1 3 .2 4.1-.6 4.1-2.5 9.3-3.2 14-2.9 4.4.7 8.9.1 13.3.1 9 1 18.1-.1 27.2-1 2-.3 3.9.3 5.8.7q2.8.4 5.7 0a52 52 0 0 1 12.4-.9q2.1-.1 4.2-.4c4-.5 8.2 0 12.3.6l11.6 1.3q5.3.6 10.7.8 7.4 1.8 14.9 2.3" class="b"/><path d="M13 22c3.4.2 6.7-.8 10-1.2 2.4 0 5 .5 7.4.6l10 .7c2.5.5 5-.6 7.3-1.5q3.2-.9 6.6-1c3.7-.4 7.2 1.2 10.8 1.3 3.6 0 7.1-1.2 10.7-1.2 8.3.2 16.5-.8 24.8-.8 1.9 0 3.9.7 5.7 1q2.5.6 5 .3c2.4-.3 5-1 7.4-1.2q3.7-.4 7.4-.3a44 44 0 0 1 14-.5c6.5.5 12.7 2.2 19 3.2q5.4.6 10.8.7 4.5.8 9 .9" class="b"/><path d="M13 21c4 .8 7.9-.8 11.6-1.6 1.6-.4 3.4 0 5 0q3.3.2 6.6.1h5q2.4-.4 4.9-1l5-.5q2.8-.4 5.7.4c8.5 3 9.2 1.8 17.3-.1 2.2-.3 4.5 0 6.6 0l11.6-.2H103q3.2 1 6.6 1.1c2.5 0 5-.7 7.5-1.1q4.1-.8 8.2-1c2 0 3.9-.6 5.8-.8q3.2-.4 6.6-.2 5.4.4 10.7 1.7c3.6 1 7 2.4 10.7 3 5 .8 10 .5 14.9 0q2.4.3 5 .2" class="b"/><path d="M13 20.2c4.8 1.8 9.5-.8 14.1-2 4.3-1.1 8.8-.2 13.2-.8s8.8-.6 13.2-.9c2.3.6 4.4 1.7 6.6 2.4 4 1.5 7.9-.1 11.6-1.5 1.2-.6 2.8.2 4 .2l6.7.2q7.6.3 14.8 0 3 .1 5.8-.5c2.4.3 5 1.1 7.4.8 5.3-.6 10.4-2.1 15.7-2.3 3.8-.7 7.7-1.6 11.6-1.3q5.5.3 10.7 2.1c3.8 1.4 7.5 3.4 11.6 3.9s8.3-.2 12.3-.7c2.2-.3 4.4-.8 6.6-.7" class="b"/><path d="M13 19.4c4.4 2.5 9 .6 13.3-1q4.4-1.6 9-1.7 3.8-.4 7.5-.7h5.8l3.3-.4q1.2-.3 2.4.2c6.7 3.3 9 3.9 15.7.5a3 3 0 0 1 1.7.3q1.6.6 3.3 1 4.5.4 9 .4 6.8.2 13.3-.7l3.3-.4c1-.1 2.2-.6 3.3-.6q3.6 1 7.4.6c3-.3 6-1.1 9-1.6q3.7-.6 7.5-1c3.5-.8 7.1-1.5 10.7-1.2 5 .3 9.7 2.2 14 4.5 2.9 1.4 6 2.5 9.1 2.4 5.9-.2 11.6-1.9 17.4-2.7" class="b"/><path d="M13 18.4c4.4 3.2 8.8 1.8 13.3 0q3.5-1.4 7.4-1.8 4.5-.9 9-1 4.7 0 9.2-1c1.4-.6 2.8.7 4.1 1.2 4.5 2.4 8 1.8 12.4-.6 1.7.5 3.3 1.6 5 2.2 2 .8 4.3.7 6.5.8a72 72 0 0 0 20.7-2.4c1-.2 2.2-1 3.3-.6q2.8.7 5.7.6c4.8-.1 9.4-1.5 14-2.2q4.7-.7 9.1-1.6 6.9-1.1 13.3 1.5c3.3 1.3 6.4 3.6 9.8 4.8 3.8 1.3 7.8.7 11.6-.1q5.7-1.3 11.6-2.5" class="b"/><path d="M13 16.9c7 5.7 12.5 0 19.9-.7q4.9-.9 9.9-1.3 4.3 0 8.2-1.3c1.8-.8 3.4.8 5 1.3 2.5 1.2 5.6 1.5 8.2.4 1-.3 2.2-1.3 3.3-1.3 3.9 2.2 6 4.2 10.8 4q6.7 0 13.2-1.6c2.4-.6 4.8-1.7 7.4-2l2.5-.6q2.8.6 5.8.8c3.8.3 7.7-.5 11.5-1.2q5.7-1 11.6-2a22 22 0 0 1 14 .4c3.5 1.2 6.5 3.5 9.9 4.8 3.9 1.7 8.3 1.3 12.4.2l12.3-2.9" class="b"/><path d="M13 14.8c6.6 5.7 12 1.4 19 .6q6.6-1.2 13.3-1.7c2.2-.2 4.4-1.2 6.6-1.7 6.5 3.1 8.2 3.6 14.8.5 2.7 1.4 5.2 3.8 8.3 4.3 7 .8 14.2-1.2 20.6-4 .7-.4 1.7-.1 2.5 0q3.7.1 7.4.5 4.6.3 9-.3c5.3-.8 10.5-2 15.8-2.6 4.5-1.1 8.6-1.8 13.2-.2 3.1 1 6 2.7 9 4.1a18 18 0 0 0 10.8 1.6c5.2-1 10.4-2.8 15.6-3.8" class="b"/><path d="M13 12.4c6.3 5.4 11.3 2 18.2 1.5 3.3-.2 6.6-.9 10-1.2q2.4-.3 4.9-.6 2.4-.6 5-1.5c1.3.2 2.7 1 4 1.5q3.3 1.3 6.7.6 1.7-.4 3.3-1.2c.3-.3 1.2-.6 1.6-.6 2.5 1.3 4.7 3.2 7.4 4 5 1.1 10.2-.4 14.9-2Q91 12 93 11c.8-.2 1.7.3 2.5.5 1.9.5 3.9.1 5.8.3q6.6.6 13.2-.1c5.8-.8 11.5-2.1 17.3-2.8 4.1-1 8.3-1.5 12.4-.2 5 1.5 9.5 5 14.8 5.2 4.5.4 9-1.1 13.2-2.3 2.2-.5 4.4-1.5 6.6-1.2" class="b"/></svg>