<svg xmlns="http://www.w3.org/2000/svg" id="a" width="1920" height="2400" viewBox="0 0 192 240"><defs><style>.b{fill:none;stroke:#fff;stroke-miterlimit:10;stroke-width:.3px}</style></defs><path d="M0 0h192v240H0z" style="stroke-width:0"/><path d="M10.9 231.1c2.5.2 5.1.6 7.6 0q3.5-1 6.8-2.3l5-1.8q3-1.6 6-3.5c1.3-.9 3-1.6 4.2-2.6 2.5-1.5 4.8-3.8 7.6-4.7 5.3-1 8.4 4.9 11.9 7.7q2 1.6 4.2 2.9l4.3 2.8c4 2.7 8.6 3.5 12.7.4 3.6-2.3 8.3-9.3 12.7-8.3 5 .8 10.2-.2 15.2-.1 2.9 0 5.7.7 8.5 1q5.1 0 10.2-.2c6 4.2 13.6 1 20.3 1.2q7.6-.4 15.3.3 4.3.6 8.4 2c3 1.1 6.3 2.2 9.4 1.1" class="b"/><path d="M10.9 229.7c6.2 1.3 8.8 0 14.4-2.4l5.9-2q2.3-1 4.2-2.4 3.5-2.3 6.8-4.7c2.5-1.8 5.2-4.4 8.5-3.7 4.3 1.2 6.7 5.6 10.1 8.1 1.6 1.3 3.5 2 5.1 3.2 3 2 6.4 4.3 10.2 4.2 6.4.2 10.6-5.6 16.1-8q2-1 4.2-1.3h3.4q6-.4 11.9 1c4.7 1 9.7.4 14.4-.4 3.3 2.5 5.3 2.6 9.3 2.3q5.1-.2 10.2-.9A79 79 0 0 1 171 224c3.3.8 6.7 2.4 10.2 1.7" class="b"/><path d="M10.9 228.4c8 2.3 11.5-2.1 18.6-4 2-.5 4.2-1 6-2.3l3.3-2.7 2.6-1.6c2.3-1.8 4.6-4.2 7.6-4.9 5.2-.6 8.2 4.8 11.8 7.6 1.7 1.5 4 2.4 6 3.6 2.3 1.4 4.8 3 7.6 3.4 7.1 1.4 13.1-3.5 19.5-5.8a24 24 0 0 1 10.1-1.4c3.4.2 6.8 1.1 10.2 1.4 3.7.2 7.5-.7 11-1.7 2.7 2.2 4.2 2.8 7.6 2.6q5.6 0 11-1 4.3-.3 8.5-.7l6 .1c3.9.2 8 .2 11.8 1.1 3.6.7 7.3 2.6 11 1.7" class="b"/><path d="M10.9 227.2c7 2.4 11-1.5 16.9-4 2.1-.9 4.6-.9 6.8-1.6 1.6-.6 3-2 4.2-3q1.7-1.3 3.4-2.4 2.4-2.2 5-3.8c2.1-1.3 4.9-1.4 6.9 0 2.8 1.8 5 4.4 7.6 6.5q2 1.5 4.2 2.5l4.3 2.2c7.6 3.7 16 .2 23.7-1.8 3.6-1 7.2-2.2 11-1.8 8.5.9 10.9 1.7 19.5-1.3 1.5.3 2.7 2 4.2 2.4q3 .6 6 .4c3.4 0 6.8-.8 10.1-1.2q4.3-.2 8.5-.8l6 .2c3.9.2 8 0 11.8 1 3.4.6 6.7 2.4 10.2 1" class="b"/><path d="M10.9 226c9.5 3.8 14-6.3 22.8-5.8 3 .1 4.6-2 6.8-3.6 3.8-2 8-8 12.7-6.2 2.1 1 4 2.7 6 3.9q2 2 4.2 3.7c1.2.8 2.9 1.4 4.2 2 2.9 1.5 6 2.7 9.4 2.7 5 .1 10.1-.8 15.2-1.3 3.4-.4 6.8-1.5 10.2-2 3.3-.3 6.8.3 10.1.3 4.1.1 8.1-1.1 11.9-2.5 1.7.8 3.2 2.3 5 2.8 5.1 1 10.3-.3 15.3-1q4.7-.3 9.4-1l5 .3c4 .3 8 0 11.9.9q2.6.4 5 1.2 2.8.5 5.2-.8" class="b"/><path d="M10.9 224.8c5.7 2.7 10.7-1.1 15.2-4.4a13 13 0 0 1 6-2.4q1.2 0 2.5.2l4.2-.6q2.9-2.4 6-4.6c7.3-5.6 6.7-5.6 14.4-.7.9.3 1.8 1.3 2.5 2a19 19 0 0 0 3.4 2.4q3.7 1.7 7.6 2.8 5 .9 10.2.6c5.6-.3 11.4.3 17-1.2 4.3-1.2 9-.4 13.5-.6 3.7-.2 7.4-1.4 11-2.7 2 .9 3.7 2.5 5.9 3 5 1.1 10.2-.4 15.3-1l7.6-1c2-.2 4 .2 5.9.3l6 .1q2.5-.1 5 .4 2.2.3 4.3 1a7 7 0 0 0 6.7-1" class="b"/><path d="M10.9 223.5c3.2 1.8 7.2 1 10.1-1 3.4-2.2 6.1-6 10.2-6.9q2.2-.3 4.2.2c1.7-.3 3.5 0 5.1 0l6.8-5c2.1-1.7 4.7-4.4 7.6-2.9q3 1.7 6 3.2a19 19 0 0 0 9.3 5.2c5 1.4 10.1 1 15.2 1.1 4.8.3 9.7 1.2 14.4.2 4.2-1 8.5-.7 12.7-.9q5.3-.2 10.2-2c2-.8 2.4-.5 4.2.4a15 15 0 0 0 7.7 2.5c4.5 0 9-1.4 13.5-2 2.2-.3 4.5-1.2 6.8-.6q4.6.6 9.3.6h6c4.8.8 6.1 3.5 11-.2" class="b"/><path d="M10.9 222.3c3.7 2.2 7.8.3 11-2 2-1.7 3.8-4 5.9-5.7 2.1-1.9 5-2.6 7.6-1.5 1.4.2 3 0 4.3.4 2.8.7 2.8.8 5-.9q2.8-2 5.1-4.3c1.6-1.4 3.8-2.7 6-1.8 2 .8 3.9 2.1 5.9 3 2.5 1.9 5.3 3.8 8.4 4.5 4.8 1 9.7.4 14.4.7 4 .2 8 1.2 12 1.2 3 0 6.1-.6 9.2-.7 4.2 0 8.6.2 12.7-.7q3-.7 6-1.7c3.5.2 6.5 3 10.1 3.2a24 24 0 0 0 8.5-1.1l5-1c2-.5 4-1.3 6-.6a69 69 0 0 0 17.8.9l1.7.9c2.7 1.5 5.5.4 7.6-1.5" class="b"/><path d="M10.9 220.9c3.6 2.1 7.2.5 10.1-2 2.6-2 4.5-4.7 6.8-6.9s5.7-3.2 8.5-1.6q1.6.5 3.4.6c1.6.4 3.3 1.2 5 1.3 4.3-1.3 6.3-7.5 11-7.3 2.4.5 4.6 2 6.8 2.8 3 1.7 6 3.6 9.4 4.1 4.4.7 9 0 13.5.4 4.5.3 9 1.5 13.6 1.5 2.8 0 5.6-.4 8.4-.3 5.1 0 10.4 0 15.3-1.6l1.7-.5c.7 0 1.8.2 2.5.4 3.2.6 6 2.6 9.3 2.6q3.5 0 6.8-1.3l4.2-1q2.2-.6 4.3-1a55 55 0 0 0 18.6 1.6c1.2-.1 2.3.7 3.4 1 2.8 1.4 5.5.2 7.6-1.7" class="b"/><path d="M10.9 219.4c4 2.3 7.3.1 10.1-2.8q3.5-3.4 6.8-7c2.5-2.1 6.2-3.6 9.3-2.2l6 2.2c1.5.6 3.4 1.2 5 .7q1-.7 1.7-1.6c1.6-1.6 3-3.7 5.1-4.5 2.3-1 4.7.4 6.8 1.3 3.6 1.3 7.1 3.4 11 4 5 .9 10.2.4 15.3.9 5 .5 10 1.7 15.2 1.3 1.7-.2 3.4.3 5 .6q4 .6 7.7-.2 4.3-1.2 8.5-2.2l6.7 1.2q2.2.8 4.3 1.3c2.6.5 5.2-.3 7.6-1.2l4.3-1q1.6-.6 3.3-.8a46 46 0 0 0 18.7 2c4.7 1.2 7.8 2.8 11.8-1.2" class="b"/><path d="M10.9 217.8c5 2.9 8.7-1.7 11.8-5.2 3.1-3.3 6.4-7 11-8 3-.6 5.8.6 8.5 1.6q3.6 1.7 7.6 2.4l.9-.3c1.7-1.9 3.3-4.6 5.9-5.4 2.3-.6 4.7.6 6.8 1.4q3 1 6 2c7 2.1 14.6 1.8 22 2.5q4.1.6 8.4 1c5.9 2 12.6 3.7 18.7 1.5q2.6-1 5-2.4c1-.3 2.4 0 3.4 0q2.5.5 5.1.6c2 .5 4 1.2 6 1.1 2.9 0 5.5-1.7 8.4-2.1 1.4-.3 2.9-1.3 4.2-.6a43 43 0 0 0 13.6 2.3c1.4.1 2.9-.2 4.2 0 2.7.8 5.7 1.5 8.5 1q2.4-1 4.2-2.8" class="b"/><path d="M10.9 216.1c8.7 4.2 12-11 22.8-13.6 3.5-.8 7 .4 10.2 1.5 2.8 1 5.8 1.7 8.5 2.9 5.9-8.3 8-4.9 16-2.6q3 .7 6 .9l5 .8c5.1.6 10.3.7 15.3 1.3 2.4.3 4.6 1.7 6.8 2.5 6 2.1 12.7 3 18.7.7l2.5-1.2 5-1.6c2.3.3 4.7.1 6.9.6 1.9.4 4 .7 5.9.1 2.8-.8 5.6-2 8.5-2.5a49 49 0 0 0 10.1 2.6c2.5.4 5.2.2 7.6.5q5.1 1.4 10.2.5 2.4-1.2 4.2-3" class="b"/><path d="M10.9 214.2c5 2.3 8.8-2.7 11.8-6 3.3-3.3 7-7 11.9-7.8 3.7-.5 7.4.7 11 1.8 1.3.4 2.9.4 4.2.8q2.3.8 4.3 2c1.5-1.6 3-3.7 5-4.4 2-.5 4.1.2 6 .9q3.3 1.3 6.8 1.9 6.7.6 13.5 1.2l6 .5q1.7.8 3.3 1.2c2.9 1 5.6 2.4 8.5 3.3q6.6 2.3 13.6 1.2c3-.6 6.3-1.8 9.3-2.6 1.9-.5 3.9-1.9 5.9-1.8 2.5.1 5.1.7 7.6.5 3-.4 5.6-2 8.5-2.7 2.5.7 5 1.8 7.6 2.4q4.3.8 8.5.8 5.9 1.5 11.8.5c2-.4 3.6-2 5.1-3.1" class="b"/><path d="M10.9 212c5 2 8.6-3 11.8-6q3.6-3.3 7.6-6c5-2.8 11-1 16.1.3q2.6.4 5.1.8c1.5.3 2.9 1.2 4.3 1.7 3-4.2 6.6-4 11-2.4q3.7 1.4 7.6 1.8l13.5 1.2c.9.2 1.8.8 2.6 1q2.5 1 5 1.8c3.7 1.3 7.3 2.8 11 3.7a41 41 0 0 0 20.4-2.3q2.7-.8 5-1.8c.8-.4 1.8-1 2.6-.8q2.6.3 5.1.2c1.7 0 3.5-.8 5-1.4 1.1-.4 2.3-1.2 3.5-1l5 1.7q3 1 6 1.4c1.3.2 2.9 0 4.2.5 3.9 1 8 .7 11.9.1 2.3-.3 4.1-2 6-3.3" class="b"/><path d="M10.9 209.8c5.1 1.8 9-4.2 12.7-6.9 1.3-1 3-1.8 4.2-2.9q3.6-3.1 8.5-2.8 2.5 0 5 .3c2 .2 4 .9 6 1.3 3.1.5 6.4.3 9.3 1.8 1.2-.5 2.1-1.7 3.4-2 4.6-1.6 9 1.5 13.6 2 4.2.5 8.5.6 12.7 1.2q3.1 1.8 6.7 3c6 2.5 12.1 5 18.7 4.8a68 68 0 0 0 24.5-6c4.9.4 6.8-.7 11-2.5 3 .6 5.7 2.1 8.5 3q2.2.5 4.3.7 1.6.7 3.4 1c3.9.6 8 0 11.8-.7 2.2-.4 4-2.2 6-3.4" class="b"/><path d="M10.9 207.5c4.3 1.5 7.8-3.3 11-5.5q2.4-1.8 5-3.1c1.8-1.4 3.7-2.9 6-3l4.2.2c2.2 0 4.6-.3 6.8.3q5 1.3 10.2 1.4c1.4 0 2.8.8 4.2.7 3.2-2.5 7.5-1.7 11-.6q3.3 1 6.8 1.3c2.8.3 5.7.3 8.5.8q3.7 2.2 7.6 3.6c4.3 2 8.8 4 13.5 4.5 4.8.5 9.7-.3 14.4-1 4-.7 8-1.1 11.9-2.2a23 23 0 0 0 6.8-2.9c1.6-.3 3.5-.4 5-1.1 4-1.6 3.4-2 7.7-.2q2.5 1.2 5 2.1 4 2.4 8.5 2.4 5.7-.1 11-1.7 2.7-1.4 5.1-3.2" class="b"/><path d="M10.9 205.1c3.6 1.4 6.6-2.2 9.3-4q3.2-2.5 6.8-4.1c1-.5 2.2-1.6 3.4-2 2.4-.8 5 .5 7.6.1q2.5-.4 5-.3c2 .2 4 .9 6 1.1 3.3.5 6.9 0 10.1 1 3.7-2.2 8-1.3 12-.3q4.5 1 9.2 1.2 1.3 0 2.6.3l4.2 2.3q2.6 1.2 5 2.2c3.8 1.9 7.8 3.4 12 3.7 7.3.3 14.6-1.3 22-1.8 4-.3 8.1-.4 11.8-2 2.6-1 5-2.9 7.7-3.6 1-.3 2.2-1.2 3.4-1 2.2.6 4 2 5.9 3.4q5.7 4.2 12.7 2.8 4.3-.7 8.5-2 2.6-1.4 5-3.1" class="b"/><path d="M10.9 202.7c3.4 2 6.6-1.9 9.3-3.6q4-2.7 8.5-4.7c3.1-2.3 6.7.4 10.1-.5 4-1.3 8 .1 11.9.6 3 .2 6.3-.2 9.3.6q3-1 6-1c2.5 0 5 .8 7.6 1.2q3.7.6 7.6.7c2.3.8 4.5 2.5 6.8 3.5 3.1 1 6 3 9.3 3.9 5.5 1.7 11.3.3 17-.2 2.4-.1 5-1 7.5-.6 5.7-.6 11.4.9 17-.6 3.8-1 7.2-3.2 11-4.2 4 1.7 7.3 5.3 11.8 5.7 3.5.4 7-.7 10.2-1.6l4.2-1.2 5.1-3.2" class="b"/><path d="M10.9 200c2.8 2.7 6-.1 8.4-2a52 52 0 0 1 11.9-6c2.5-.1 5 1.2 7.6.5 2.8-.8 5.7-.6 8.5-.3 2 .3 4 .9 6 .8 2.4 0 5-.2 7.5.4 2.8-.6 5.7-1.1 8.5-.6q5.5.8 11 1.4 5 2.6 10.2 4.7a23 23 0 0 0 10.2 3.1c4.5 0 9-1.4 13.5-1.5 2.4-1 5-1.9 7.6-1.2q1.3.2 2.6.7 2.1 0 4.2.4 5 1.2 10.2 1c4.4 0 8.4-2.4 12.7-3.1 3.8 1.7 7.4 5 11.8 4.3 3.2-.3 6.3-1.5 9.4-2.5q2.1-.6 4.2-1.4l4.2-2.8" class="b"/><path d="M10.9 197c3 3.4 5.3 2 8.4-.3A53 53 0 0 1 27 192l4.3-1.5q2.2-.2 4.2.3c2.3.4 4.6-.4 6.8-.5q4.3-.1 8.5.7 3 .4 6 .2 2.4 0 5 .4 4.1-1 8.5-.6 4.6.4 9.3 1.5c3.5 1.7 7 3.7 11 4.6 2 .7 3.9 2 6 2.3 5.4 1.3 10.6-1.7 16-1.7 3.5-1.8 6-4.1 10.2-2.4q2.2.9 4.2 2.2 3 .7 6 1.6a29 29 0 0 0 16.9 0q1.6-.5 3.4-.5l2.5 1.2c5.3 3 9.1 1.6 14.4-.5q3.3-1.3 6.8-2.4c1.5-.6 2.9-1.9 4.2-2.7" class="b"/><path d="M10.9 194c2.4 2.6 4.2 4.3 7.6 2q3.6-2.7 7.6-4.9c2.3-1.2 5-2.2 7.6-2.1 2.8.4 5.7 0 8.5-.1q5.1-.3 10.2.7 3.7-.2 7.6.1l2.5.3q1.6-.5 3.4-.7a29 29 0 0 1 6.8.4q3.4.6 6.8 1.4l5 2.5q5 2 10.2 3.4c4 1.5 8.1.3 11.9-1q1.3-.4 2.5-.7 1.4 0 2.6-.7c4-3.5 7.5-6.4 12.7-2.8 2 1.2 3.8 3 5.9 4.2 4.3 1.7 8.9 3.3 13.6 3.6q3.3.3 6.7-.4c1.4-.1 3-.8 4.3-.3 6.6 3 9.1 1.4 15.2-1.4q3.8-1.7 7.6-2.8 1.8-1 3.4-2.2" class="b"/><path d="m10.9 191.3 2.5 2.1c1.1 1 2.6 2 4.2 1.5q2.3-1 4.3-2.5 3-1.8 6-3.5c3.6-1.8 7.8-1.5 11.8-1.5 3.6 0 7.4-.7 11 .2 1.6.4 3.4.1 5 .2q3-.2 6 .4c1 .3 2.3-.5 3.4-.6q2.5-.3 5-.1 4.8.5 9.4 1.8l4.2 2.2c5.1 2.3 13.2 5.2 18.7 3.6l6.7-2.4c6-5.6 9-10.8 17-4 2.7 2.2 5.3 4.8 8.4 6.5 5.4 2.2 11.1 4.2 17 3.5q1.6-.2 3.4-.2c2.2.5 4.5 1.2 6.8.7 3.3-.7 6.1-3 9.3-4.3l6-2.3c1.3-.5 3-1 4.1-2" class="b"/><path d="M10.9 188.6q1.9 2 4.2 3.4 2 1.5 4.2.7c3.2-1.6 6.2-4 9.4-5.6q2.8-1.3 5.9-1.4h6.8q3-.2 5.9-.3 2.2.1 4.2.6l4.3-.1c2.2-.2 4.5.5 6.8.6 4.6-1.9 9.7-.9 14.4.4q3 .6 5.9 2.2 3 1.5 6 2.6a24 24 0 0 0 14.3.3c3.5-1.1 6-4 8.5-6.5 1.8-2 4-4.2 6.8-4.3 4.3.3 7.8 3.6 11 6.3q3.7 3.4 7.6 6.3c3.3 1.4 6.7 2.9 10.2 3.6q3.3.5 6.7.3c2.3.2 4.6.7 6.8.1 3.1-.8 5.7-3 8.5-4.5q5.7-3 11.9-5.1" class="b"/><path d="M10.9 185.8c2.1 2.1 4.6 4.4 7.6 5.1q1.9-.1 3.4-1l4.2-2.6c1.8-1.2 3.8-2.5 6-3 2.4-.6 5-.4 7.6-.3l5-.3q2.6 0 5.1.5l4.3-.2q2 0 4.2.2l3.4.6q2-1 4.2-1.4 5.3-.3 10.2 1.2c2 .7 4.1.9 6 1.9 6.3 3.6 10.5 5 17.7 3 10.5-2.6 12.2-15.3 21.2-11 6.5 3 11.7 8 17 12.7 1 1.1 2.8 1.7 4.2 2.3q2.5 1.2 5 2 3.4 1 6.8 1 4 .6 7.7-1c2.3-1.3 4.4-3 6.7-4.3l6.8-3.8q3-1.3 6-2.4" class="b"/><path d="M10.9 184h.8c2.4 2 5.1 4.7 8.5 4.8 2.5-.5 4.6-2.2 6.8-3.4 4.5-3.5 7.2-3.5 12.7-3.3h5c1.4 0 3 .4 4.3.3q3.8-.6 7.6-.2c1.4 0 2.8 1 4.2.8 2.1-1.9 5-2 7.7-1.9 4.6.2 9 2 13.5 3.1 6.4 3.2 8.7 5.3 16.1 2.7 10.9-3.4 12.9-14.8 21.2-11.4q4 1.7 7.6 4 5 3 9.3 6.8c1.7 1.4 3.3 3.1 5.1 4.3 3.6 1.6 7.2 3.4 11 4 5.3.7 8.6-1 12.7-4q2.2-1.5 4.3-2.6 2-1.5 4.2-2.8 3.7-2 7.6-3.3" class="b"/><path d="m10.9 182 1.6.1c2.6 2 5.8 4.9 9.4 4.4 3-1 5.8-3 8.4-4.7q3.5-2 7.7-1.5 4.3-.1 8.4.6c4.2-.9 8.7-1.2 12.7.4 2.7-2.4 5-2.8 8.5-2.4 1.7.2 3.5.1 5 .6q5.2 1.5 10.3 2.8c1.5.3 2.8 1.4 4.2 2 3.3 2 6.8 1.7 10.2.3q5.3-2.3 9.3-6.2c3.2-3 7-7.5 11.9-5.6q3.9 1.7 7.6 4 5.2 3 10.1 6.6c3 2.3 5.8 5 9.4 6.4 2.4 1 4.9 2.4 7.6 2.3 5.6.2 9-2.8 13.5-5.4 2.4-1.3 4.5-3.2 6.8-4.5a36 36 0 0 1 7.6-3.1" class="b"/><path d="m10.9 180.1 2.5.1c2.4 2 5.3 3.8 8.5 4.2 1.4 0 3-.8 4.2-1.5q2.7-1.2 5-2.8 2.8-1.5 6-1.4 3.5.1 6.8.8c4.4-.9 9.3-2.3 13.6 0 .9-.4 1.7-1.4 2.5-2 2-1.3 4.5-1 6.8-.7 1.9.3 4 .1 5.9.5q5.4 1.8 11 3.2 2.3.4 4.2 1.7a9 9 0 0 0 8.5.5c3.8-1.3 7.2-3.9 10.2-6.5 3.3-2.8 7-7.5 11.8-5.7 2.7 1 5.2 2.7 7.7 4q4.7 2.8 9.3 5.9c3.6 2.4 7 5.2 11 6.9 1.6.7 3.3 1.5 5 1.6 5.3.6 10-2.1 14.5-4.4 2.3-1.3 4.4-3.2 6.8-4.5q4-2.2 8.4-3.3" class="b"/><path d="M10.9 178q1.7.2 3.3.3c2 1.5 4.3 3 6.8 3.4a6 6 0 0 0 3.4.2q2.6-.9 5.1-1.9 2.4-1.4 5-2a18 18 0 0 1 5.2 0q1.2.4 2.5.2c4-1.4 9.7-2.9 13.5-.7l.9-.2c3-4 6-3 10.2-2.3q2 .3 4.2.3c.8 0 1.8-.2 2.5.2q6.7 2.6 13.6 3.6c1.2.2 2.3 1.1 3.4 1.5q2.8 1 6 .2c4.1-1.1 7.7-3.9 11-6.6 3.1-2.5 6.4-7 11-5.8 2.7.8 5.1 2.5 7.6 3.9q4.3 2.4 8.4 5.1 3.7 2.7 7.7 5.1l6.7 2.9c5.6 1.3 11.2-.9 16.1-3.1 2.3-1.3 4.5-3.1 6.8-4.3q4.6-2.2 9.3-3.4" class="b"/><path d="m10.9 176 4.2.5 2.5 1.6c2.9 1.3 6.3 2.1 9.4 1.2q3.7-1.1 7.6-1.9c1.6-.3 3.5.1 5-.3q4.1-1.7 8.5-2.3 3.2-.7 6 .8h.8c5.3-6.8 8.5-.7 16.1-2h1.7a42 42 0 0 0 11 3.2l6 .6c2 1 4.4 1.8 6.7 1.5 11-1.3 15.8-13 22-12.3 2.5.3 4.7 1.6 6.8 2.8q4.4 2.4 8.5 5.2 3 2 6 4 4.9 2.3 10.1 4.2c4.6.4 9.2-1 13.5-2.4 2.7-1.2 5-3 7.7-4.3q4.9-2.3 10.1-3.5" class="b"/><path d="M10.9 174q2.5.4 5 .7 1.6 1 3.4 1.7 3.7 1.2 7.6.8 3.8-.7 7.7-1.2c4-.2 7.8-2.2 11.8-2.7 2-.5 4.2-.8 6 .3 1.3-.2 2.2-1.7 3.4-2.4 2.4-1.8 5.2-.6 7.6.5q2.4 1 5 1c1.4 0 3-.6 4.3-.4q4 1.9 8.5 2.7c3.3.6 6.7.3 10.1.4 1.7.3 3.4 1.1 5.1 1.2 12.6.7 15.5-10.7 22.9-11.3 4.6.3 9.7 4.1 13.5 6.5q2 1.6 4.3 3l7.6 3q3 1.3 6 2.2 3.8-.2 7.5-.8c4-.4 7.5-2.8 11-4.6q5.8-2.5 12-4" class="b"/><path d="M10.9 172.2q.8-.3 1.6 0l3.4.5c.9.2 1.8.8 2.6 1q2 1 4.2 1 5.2.3 10.2-.8 3-.3 6-.7c3.3-.7 6.6-2.1 10-2 1.2.4 2.5-.1 3.5-.6l1.7-1.4c2.6-1.7 5.2-.4 7.6 1q2.8 1.5 6 1.6 2 0 4.2-.5c.8-.2 1.7.5 2.5.7q1.6.6 3.4 1c3.9 1 8 .8 11.9.4l4.2-.2q1.6.6 3.4 1c5.6.8 10.1-.6 14.4-4.4 7.6-6.8 9.9-7 18.6-1.5 1.4.8 2.7 2.2 4.3 2.6l7.6 3.2a54 54 0 0 0 10.2 3.1l5.9-.5c4-.5 7.4-3 11-4.4 3.8-1.6 7.9-2.5 11.8-3.5" class="b"/><path d="M10.9 171q1.7-.5 3.3-.7 1.3.1 2.6.4a17 17 0 0 0 6.8 1.8c3.7.2 7.3-.6 11-1.2q2.5-.2 5-.6 2.6-.6 5.1-1 2.6-.2 5.1-.9c.9-.3 1.8-1.1 2.6-1.5q2.9-1.4 5.9.1c5 3 8.5 4.3 14.4 3a37 37 0 0 0 17.8.8c2.2-.2 4.6-.6 6.8.1 3.5 1 7.5 1.3 11-.1 10-4.8 11-11.8 22.8-3.7 4.2.8 8 2.7 11.9 4.3a37 37 0 0 0 11 2.6q3 .1 6-.6c2.6-.7 5-2.1 7.6-3.1q6.6-2.4 13.5-3.8" class="b"/><path d="M10.9 169.8c8.7-2.5 7 .6 14.4.4 4-.1 7.9-1 11.8-1.7q4.6-.6 9.3-1.4c1.2-.1 2.4-.8 3.4-1.3a9 9 0 0 1 7.7.1c5.2 3 10 4.4 16 3.4 2.6.2 5.1.7 7.7.6 3 0 6.2-.6 9.3-1a34 34 0 0 1 7.6-.1c1.7.4 3.4 1 5 1 10.6.8 13.4-7.2 21.3-6.4l3.4 1c1 .5 2.2 1.3 3.4 1.2 6 .4 11.1 4 16.9 5.4 3.9.8 8 1.2 11.9.3q3-1 5.9-2.2a81 81 0 0 1 15.2-3.9" class="b"/><path d="M10.9 168.5q3.3-.8 6.7-1.1 4.3.8 8.5.6 6.4-.6 12.7-2c2.5-.6 5.2-.6 7.6-1.4 4-1 6.1-2.3 10.2-.4 4.8 2.2 10 4 15.3 3.7l4.2-.3h4.2c4.8-.3 9.6-1.3 14.4-1.3a66 66 0 0 1 9.4 1.3q4.8.4 9.3-1.2c4-1.8 8.1-4.3 12.7-3.2 1 .2 2.4.6 3.4 1l1.7-.1q4.3 0 8.4 1.4c3.4 1.2 6.7 2.7 10.2 3.3q4.7.7 9.3.1 2.6-.6 5.1-1.6 4.2-1.4 8.5-2.5c2.7-.9 5.6-1 8.4-1.3" class="b"/><path d="M10.9 167q3-.3 5.9-1 5.1.6 10.2-.2 6-.7 11.8-2 2.1-.5 4.3-.5l3.4-1c3.3-1.3 6-1.2 9.3 0 4.6 1.6 9.4 3.2 14.4 3.6q3.3 0 6.7-.4c3.4-.3 6.8 0 10.2.1 3.4 0 6.8-.5 10.2-.5 4.5-.3 9 1 13.5.4 7.3-1.3 10.6-5 18.7-2.3 3.9-.8 8-.3 11.8.6 2.9.8 5.6 1.9 8.5 2.4q5.5 1 11-.1c3.7-1 7.3-2.5 11-3.4q4.6-.9 9.4-.9" class="b"/><path d="M10.9 165.4q2.5-.3 5-.5 4.7.3 9.4-.7 4.6-.8 9.3-1.7l4.2-1q1.7 0 3.4-.4c2.5-.6 5-1.8 7.6-1.7 7 .6 13.4 3.7 20.4 4.2 3.6.2 7.3-.6 11 0 2.5.2 5 .7 7.6.7q4.6 0 9.3-.5 3.8-.3 7.6-.4 3 .3 6 .2c3.1-.3 6.2-1.6 9.3-2.1q4.6-.7 9.3.6c2.7-.8 5.7-.6 8.5-.4 4 0 7.9 1.3 11.8 2q5.2.8 10.2-.4c3.4-.9 6.7-2.2 10.2-2.7q2.5-.4 5-.3 2.6-.4 5.1 0" class="b"/><path d="M10.9 163.5q2.5-.1 5 .2 3 0 6-.6 5.5-1 11-2.3c2-.5 3.9-1.5 6-1.7 1.6 0 3.3-.6 5-1 4-1.2 8-.4 11.8.4 4.6.8 9 2.3 13.6 2.8 3 .4 6.2-.4 9.3 0 3.2.1 6.2 1.2 9.3 1.5 3.7.5 7.4 0 11-.5q4.3-.7 8.5-.7 2.6.1 5.1 0c3.4-.3 6.7-1.6 10.2-1.9q3-.2 5.9.4c1.4 0 3 .8 4.2.3 2.8-.7 5.7 0 8.5-.1 4.3-.3 8.5 1 12.7 1 4.7.3 9-1.7 13.6-2.6q3.3-.5 6.8-.2c2.2-.2 4.6-.7 6.7.1" class="b"/><path d="M10.9 161.6c3.9 1 8 .3 11.8-.7q3.9-.8 7.6-1.7 3-1.1 6-2.2c1-.3 2.3-.2 3.4-.5 2.2-.4 4.5-1 6.7-1q3.5.1 6.8.7c5.1.6 10.2 2 15.3 2.8 3.3.6 6.8-.3 10.1.1 3 .3 5.7 1.4 8.5 2q4.6.9 9.3 0l11-1.4c2-.1 4 .2 6 0 3.6-.6 7.2-1.9 11-1.8q5.1.2 10.2.8 2-.3 4.2 0c4 .3 8-.6 11.9 0q3.7.3 7.6-.3c2.8-.5 5.6-1.6 8.4-2q3.5-.2 6.8.3c2.5-.4 5.3-.8 7.6.4" class="b"/><path d="M10.9 159.9c4.2 1.2 8.6-.4 12.7-1.5l5-1.2q3-1.2 6-2.5 1.6-.4 3.4-.4 3.4-.5 6.7-.6 5.6.2 11 1 2.2 0 4.3.7 3.3 1.1 6.8 1.3l4.2.3c2.5 0 5.1-.4 7.6 0 2.7.3 5.2 1.4 7.7 2.2 4.4 1.5 9 .9 13.5 0q4.3-.8 8.5-1.3c2.5-.2 5.1 0 7.6-.5q3.3-.8 6.8-1.1 3.3-.1 6.8.2h6.7q2.2.4 4.3.7c2.8.2 5.7-.4 8.5-.7q3.7 0 7.6-.3c2.5-.2 5-1.1 7.6-1.6a23 23 0 0 1 7.6.2c1 .3 2.3-.2 3.4-.3 2-.2 4.3 0 6 1.3" class="b"/><path d="M10.9 158c4 1.2 8-.5 11.8-1.7 1.6-.5 3.5-.7 5.1-1.4q3-1.5 6-2.7c1.8-.5 4 0 5.9-.2q7.5-.1 15.2.5c1.7 0 3.4.8 5 1.2q3.8 1 7.7 1h6q3-.3 5.9.2c2.6.5 5.1 1.8 7.6 2.7 5.2 1.9 10.8.4 16-.6q3.4-.7 6.9-1 2.1 0 4.2-.3c3.4-.4 6.7-2 10.2-2.4q3.8-.3 7.6.3c1 .2 2.4.7 3.4 1.1h3.4q3.3.4 6.8 1 3.3-.7 6.7-1.3 5.6-.6 11-1.7a23 23 0 0 1 7.7.3c1.3.4 2.8-.3 4.2-.3 1 0 2.4 0 3.4.5.8.3 1.7 1 2.5 1.2" class="b"/><path d="M10.9 156c3.7 1 7.4-.3 11-1.6q2-.7 4.2-1.2l4.2-2.4c3.3-1.7 4.4-1 7.7-.7 3 .3 6.2 0 9.3.1l6 .2a84 84 0 0 0 11 2.1c3.3.4 6.7.2 10.1.3l3.4-.3q1.6.2 3.4.7c2.6.7 5 2.1 7.6 3 6.5 2 13-.8 19.5-1.7 2.5-.5 5.2-.3 7.6-1 2.6-.7 5-2 7.6-2.7 3.8-1 8-1.9 11.9-.5q1.7.7 3.4 1.6c.7.4 1.6 1.2 2.5 1.2q3 .1 6 .5 1.7.3 3.3-.1 4.3-1.3 8.5-1.8 6-1.4 11.9-.1c1.9-.1 4-.7 5.9-.2 1.1.2 2.2 1.1 3.4 1.3l.8-.7" class="b"/><path d="M10.9 154.8q3-.4 5.9-.8c2.5-.6 5-1.8 7.6-2.4 2.3-1.1 4.3-3 6.8-3.7 1.4-.6 2.9-.3 4.2.1q2.6.6 5.1.6l9.3-.3q4.6 1 9.4 1.4 3.4.6 6.7 1 4.3 0 8.5.2 2.6 0 5-.3 3.1.6 6 2C88 153.8 91 155 94 155c6.3.2 12.4-2.3 18.6-2.9 3.7 0 7-2 10.2-3.5 6.1-2.7 9.8-3.3 16-.6q2.3 1 4.3 2.4l1.7 1.1h1.7q2.6.4 5 .4c6.1-1.6 12.5-3.4 18.7-2 1.3.6 2.9 0 4.3 0 1.7 0 3.4 1 5 1.4l1.7-1.3" class="b"/><path d="m10.9 153.3 6.7-1.6 6-2c2.2-1.3 4.2-3.2 6.7-4q2.3-.4 4.3.5t4.2.9q3 0 6-.4l4.2.4c3.6.4 7.4-.1 11 .5q3.3.8 6.8 1.1l9.3.5q2.7.1 5-.4 3.1.7 6 2.2a19 19 0 0 0 11.9 2.1 192 192 0 0 0 16-3c4.7-1 8.3-4.5 12.8-5.8 2.5-.8 5.1-.2 7.6.3q5 .9 9.3 3.3l3.4 2.3q3 .5 6-.1c5.2-1.2 10.7-2.7 16-1.2l1.7.4 2.6-.2q2.2.1 4.2.9c.8-.6 2-1.3 2.5-2" class="b"/><path d="M10.9 151.4a89 89 0 0 0 11-3.1c2.6-1.3 4.7-3.8 7.6-4.5 2.4-.7 4.5 1.2 6.8 1.6q2.5.4 5 .1l5.1.2c3.7.1 7.4-.8 11-.6 4.3.3 8.4 1.8 12.7 2 3.1.1 6.3.6 9.4.5q1.6 0 3.4-.5c1.4 0 2.9 1 4.2 1.5 4.8 2.5 9 3.3 14.4 2.3 4.4.2 8.5-1.7 12.7-2.4 5.4-.6 9-5.6 14.4-6.3 2.3 0 4.6.6 6.8.9 3.7.5 7.5 1 11 2.4l6 3 2.5-.2c4-.2 7.9-1.3 11.8-1q2.6.3 5.1.8 3-.4 6 .3 1.9-.9 3.3-2.4" class="b"/><path d="M10.9 149.3q4.7-1 9.3-2.5c1.6-.4 3-1.7 4.2-2.7 2-1.4 4.4-2.7 6.8-2 1.7.6 3.3 1.8 5 2q2.2.2 4.3.5 4.7 0 9.3-.8c2.8-.5 5.7-1.2 8.5-.9 2.6.2 5.1 1 7.6 1.5q3.4.7 6.8 1c4.2.6 8.6 1.2 12.7.1 2.6.8 5 2.3 7.6 3q3.4 1 6.8.7 3 .4 6 0 3.3-.9 6.7-2 3-.6 6-1.7c3.3-1.5 6.2-4.9 10.1-4.6q3.5.8 6.8 1.2 3.8 0 7.6.3c4.1.4 8 2 11.9 3.4 1.5.8 3.4.7 5 .7q3.5-.1 6.9 0l4.2.3a35 35 0 0 1 6-.1c1.5-.2 2.9-1.5 4.2-2.4" class="b"/><path d="M10.9 147.3q4.7-1 9.3-2.6c3.6-2.2 7.4-6.3 11.8-3.5a11 11 0 0 0 3.4 1.5q1.3.2 2.6.6 2.5.4 5 0 2.6-.2 5.1-.7c2.8-.7 5.6-1.6 8.5-1.7 3.1-.2 6.3.6 9.3 1.4q3.8.9 7.6 1.4c3.4.5 6.8 1.2 10.2 1 5.5-.6 3.2-1.2 8.5 1q2.8 1.1 6 1.3 2.3.6 5 .8c3.5.1 6.9-1.2 10.2-2.3l4.2-1.3c3.5-1 6.3-4.7 10.2-4.3q3.3 1 6.7 1.3c4.8 0 9.7-.7 14.4.2 4.4.7 8.5 2.2 12.8 3.4l7.6.4q3.7-.4 7.6-.3c1.5-.3 3-1.3 4.2-2" class="b"/><path d="M10.9 145.2q4.3-1 8.4-2.3c3-1.6 5.7-4.4 9.3-4.2 1.6 0 3 1 4.3 1.8q1.6.9 3.4 1.3c1.8.9 4 .7 6 .4a54 54 0 0 0 6.7-1.3c3.8-1 7.8-2.2 11.9-1.7 4.8.6 9.5 2.2 14.4 3 3.8.7 7.8 1.5 11.8 1l2.6-.3c.7-.2 1.8-.3 2.5.1q2.5 1 5 1.4 1.8.8 3.5 1.3c4.6 1.4 9.3-.2 13.5-2q2.6-.8 5-1.7c1.8-.8 3.5-2 5.2-2.7q2.1-.8 4.2 0 2 .9 4.3 1c3.9.1 7.9-.7 11.8-.7q6-.1 11.9 1.2 5 1.4 10.1 2.3H177q2.3-.4 4.2-1.4" class="b"/><path d="M10.9 143q3.8-.6 7.6-1.9c2.5-1.3 4.8-3.2 7.6-3.8 4-1 6 1.8 9.3 3.1q2.8 1.3 6 .6l5-.8c4-.7 7.9-2.3 11.9-2.7s8 .5 11.9 1.5c4.7 1 9.5 2.4 14.4 3q5 .3 10.1-.7c2 0 3.4 1.6 5.1 2.2 5 2.1 9.7 1.1 14.4-1.1 2.1-1.1 4.6-1.5 6.8-2.6 3.4-1.8 4.7-2.6 8.5-1 2.7 1 5.7.4 8.4 0a66 66 0 0 1 24.6 1 58 58 0 0 0 11.9 1.6q3.4.3 6.7-.8" class="b"/><path d="M10.9 140.8q3.4-.4 6.7-1.5c3.3-1.5 6.5-3.8 10.2-3.7 3 0 5.2 2.5 7.6 3.8 2.2 1 4.6.5 6.8 0l5-.7c3.8-.6 7.4-1.9 11.1-2.6 4.5-1 9.2 0 13.6 1.2q5.4 1.4 11 2.7 4.1 1 8.4.8l3.4-.3a3 3 0 0 1 1.7.1q3.4 1 6.8 2c2.7 1 5.8.6 8.5-.4q2.6-1 5-2.4 4-1.1 7.7-2.6c2.6-1 5 1.4 7.6 1.2 2.2-.2 4.5-.9 6.8-1.2q11-1.6 22 .3c6.7 1.1 13.5 3 20.3 2" class="b"/><path d="M10.9 138.6q3.4-.1 6.7-1.4c4-1.7 8.4-4.3 12.8-2.7 1.5.9 2.7 2.5 4.2 3.3 2.4 1.2 5.2.7 7.6.1q3-.5 6-.8c3.7-.4 7.3-1.6 11-2.5 4.4-1.2 9.1-.5 13.5.7l11 3.1q5.4 1.6 11 1c3 .9 6.1 2 9.3 1.8q3.4 1 6.8.1 2.7-.8 5.1-2.2 1.5-1 3.4-1.6c2.5-.5 5-1.9 7.6-1.5 5 2.2 6 .9 11-.1a68 68 0 0 1 24.6 0c6.2 1 12.4 2.9 18.6 2" class="b"/><path d="M10.9 136.6c4.1 0 8-2 11.8-3.2 1.9-.5 4-1.3 6-.8 2.1.8 3.8 2.8 5.9 3.8 2.7 1.2 5.7.2 8.4-.5 2.2-.5 4.6-.3 6.8-.6 3.8-.2 7.4-1.4 11-2.4a24 24 0 0 1 13.6.7q5.5 1.7 11 3.3 3 .8 6 1.1c1.3.2 3 0 4.2.6a19 19 0 0 0 10.1 1.4q3 .8 6 0c2.8-.8 5.2-2.5 7.6-4q1.6-.5 3.4-.7c6.2-1.8 5.9 1.7 11 .3q2.1-.7 4.2-1 5.6-1.1 11-1.3 7.3 0 14.4 1.2l8.5 1.4q4.7 1.2 9.3.4" class="b"/><path d="M10.9 134.5c3.8.1 7.4-1.4 11-2.5 1.8-.4 4-1.4 5.9-.9 2.7.9 4.8 3.2 7.6 3.9 3 .6 5.7-.7 8.5-1.4 2.8-.5 5.7 0 8.5-.2 3.7 0 7.3-1.4 11-2.3 8.7-2.2 17 3 25.4 4.7q2.5.6 5 .8c2.2.8 4.5 1.8 6.8 2.2q3 .6 6 0a14 14 0 0 0 11-2.6c1-.7 2.1-1.9 3.4-2.2 2-.1 4-.6 5.9-.6 2 .1 3.9 1.5 6 1a75 75 0 0 1 37.2-.5c1.7.2 3.4 1 5 1.2q3 .4 6-.6" class="b"/><path d="M10.9 132.5c3.4.1 6.8-1 10.1-1.8 2.5-.7 5.2-1.8 7.7-.5 2.4 1 4.9 2.6 7.6 2.8h4.2q3-.7 6-1.3 1.6 0 3.3-.4 3 .2 6 .2c3.8 0 7.3-1.9 11-2.5 8.6-1.4 16.3 4.2 24.5 5.4l2.6.4 1.7.8q2.8 1.4 5.9 2 3 .5 6-.1c2.1.6 4.6.4 6.7-.4q2.8-1 5-3c.8-.5 1.8-1.5 2.6-1.9h1.7c1.7-.2 3.5-.5 5.1-.1 1 .2 2.3.8 3.4.9q1.6 0 3.4-.4a82 82 0 0 1 22.8-2q6 .6 12 1.5c1 .2 2.2 1 3.3 1.2 2.5.7 5.3 0 7.6-1" class="b"/><path d="M10.9 130.5c3.4.2 6.8-.6 10.1-1.4 2.2-.5 4.6-1.3 6.8-.7 2.8.8 5.6 2 8.5 2.2.8 0 1.7.5 2.5.7q2.2.3 4.3-.2c2.7-.7 5.6-.7 8.4-1.2l2.6-.4q2.5.3 5 .1c3-.3 5.7-1.6 8.5-2.2 6.5-1.7 12.7 1.8 18.7 3.8 2.4.9 5 1.2 7.6 1.7 2.7 1.3 5.5 2.7 8.5 3.2q2.5.4 5 0c6 2 11.2-1.5 15.3-5.6 2 0 4-.3 6-.1 1.6.1 3.3 1 5 .8 5.6-.6 11.2-1.8 17-2a73 73 0 0 1 19.4 1.5c4 2.2 7.5 1.2 11-1.1" class="b"/><path d="M10.9 128.5a33 33 0 0 0 8.4-.6q3.3-.8 6.8-1.1c3.1 0 6.2 1.2 9.3 1.2.9.1 1.8.8 2.6 1.1q1.6.7 3.4.7 2-.2 4.2-.6 3.4-.2 6.8-.6l4.2-.8q2.1.1 4.3 0c4-.4 7.7-2.9 11.8-2.9 4.5 0 8.6 2.3 12.7 3.9q2.5.9 5.1 1.5c1.4.3 3 .2 4.3 1q4 2.2 8.4 3.2c1.7.3 3.5 0 5.1.6 5.4 1.4 10.8-1.4 14.4-5.3.3-.4 1-1 1.7-1l2.5-.2 3.4.1c1.4.2 2.9.7 4.3.6 2.2 0 4.5-.6 6.7-.8q4.3-.5 8.5-.9c4.2-.3 8.5-.6 12.7.3q3.5.5 6.8 1.2c4.8 2.6 8 0 11.9-2.7" class="b"/><path d="M10.9 126.7q3 0 5.9-.2c2.8-.2 5.6-.8 8.5-1 3-.4 6.2.2 9.3.2 2.5.8 4.8 2.5 7.6 2.3q5.5-.2 11-.9c2.3-.1 4.5-1 6.8-.9 3 .2 5.8-.8 8.5-2 7.1-3.2 12.1.3 18.6 3 2.1 1 4.6 1 6.8 1.6q3 1.5 6 2.8 2.7 1 5.8 1.4 1.6.7 3.4 1 5 .5 9.4-1.7c2.2-1.1 4-3 5.9-4.7.9-.8 2.3-.6 3.4-.7 2.5-.3 5 .3 7.6.4q3.3-.3 6.8-.8l9.3-.7 5-.3 6 1c11.2 1.6 7.8 4.2 18.6-2.7" class="b"/><path d="M10.9 125q4.6 0 9.3-.4c4.5-.5 9-1.2 13.5-.8 3.2.6 6 2.5 9.4 2.5q9 0 17.7-1.8 4 .1 7.7-1.6c6.6-3.4 10.6-2.1 16.9 1.2q2.4 1.3 5 2 1.8.3 3.5.5 1.2.7 2.5 1.3 3.3 1.6 6.8 2.7 2.4 1 5 1.7c4.7.5 9.9-.5 13.6-3.3 1.7-1.2 3.3-2.9 5.1-3.9q4.6-.5 9.3-.2 3.5-.3 6.8-.6 5.6-.2 11-.6 5.1.6 10.2 1.5c2 .2 4 1 6 1.2 4-.1 7.4-2.8 11-4.5" class="b"/><path d="M10.9 123.5q5.4-.2 11-.6c3.3-.2 6.7-.9 10.1-.9 4.4 0 8.4 2.6 12.8 2.5q5 0 10.1-.5 3.9-.5 7.6-1.1 4-.2 7.7-2.2c6.1-3.3 10.3-1.9 16 1.2 2.4 1.3 5 2.4 7.7 2.5l5 2.5c2.6 1 5 2.6 7.7 3.2 4.7 1 10 .1 14.4-1.8q3.5-2 6.8-4.8c1.2-.6 2.8-.5 4.2-.7q2.5-.2 5-.3 4.7-.6 9.4-.4c2.8 0 5.7-.4 8.5.2l9.3 1.3c2 .2 4 1 6 1 4-.3 7.3-2.7 11-4.1" class="b"/><path d="M10.9 121.9q4.6.1 9.3-.2c4.2-.3 8.5-1.1 12.7-1.1 4.6 0 9 2.2 13.5 2 1.7 0 3.5.4 5.1.3a80 80 0 0 0 11-1.4c8.8-.7 11.7-7.7 21.2-3.4 2.5 1 5 2.6 7.6 3.5l2.6.6 3.4 1.5c2.3 1 4.4 2.5 6.7 3.4a26 26 0 0 0 24.6-4.9l.9-.6h.8c2.8-.4 5.7-.2 8.5-.5 4.2-.5 8.5-1.2 12.7-.7q6.3.7 12.7 1.7c2 .2 4 1 6 .8 3.9 0 7.2-2.4 11-3.5" class="b"/><path d="M10.9 120q5.4.6 11 0c4-.3 7.9-1 11.8-1 2.9 0 5.7.7 8.5 1.3 1.3.4 2.9.3 4.2.7 2.8.6 5.7 0 8.5-.4q4.3-.5 8.5-.8c7.3-.4 11.5-7.6 19.5-4.6 2.9 1 5.6 2.6 8.4 3.8q1.6.7 3.4 1l2.6 1.3c2 .9 3.9 2.2 5.9 3 4.2 1.9 9 2 13.5 1.4q4-.5 7.7-2c2.3-1.1 4.4-2.7 6.7-3.7q3.8-.2 7.7-.3 6.3-1 12.7-.7 6.3.5 12.7 1.5c2.2.3 4.5 1.1 6.8.9 3.6 0 6.7-2.2 10.1-2.8" class="b"/><path d="M10.9 118.1c3.6.6 7.3.2 11 0l5-.2 6-.6c4.3-.3 8.5 1 12.7 1.9 3.4.5 6.8-.6 10.2-1 3.3-.6 6.8-.5 10.1-.6 6.1-1.6 10-7.2 17-5.1 3.2 1 6.2 2.8 9.3 4.2 1.9.9 4.1 1.3 6 2.4 1.9.9 3.8 2.2 5.9 3q5.7 2.1 11.8 1.5c5.7-.4 11.1-2.4 16.1-5.1 6.5-.3 13-1.4 19.5-1.1q6.3.5 12.7 1.4c2 .5 4 1.2 6 1.2q2.5.2 5-.5 3-1 6-1.7" class="b"/><path d="M10.9 116c3.9.5 7.9 0 11.8 0 3.4.4 6.8-.6 10.2-.7a30 30 0 0 1 7.6.7q2.6.8 5 1.1c2.6.2 5.2-.5 7.7-.8q6-1 11.9-.8c1.5-.2 2.9-1.6 4.2-2.4 3.8-2.8 7.1-4.2 11.9-3.6 6 1 11 5.1 17 6.8 4.9 2.7 10.2 5.5 16 5q3-.3 6-.7t5.9-1.1q3.4-1 6.7-2.6 3-.4 6-.7a71 71 0 0 1 17.8 0l6.7.8c3 .8 6.2 1.8 9.4 1.8 2.9 0 5.6-1.4 8.4-1.8" class="b"/><path d="M10.9 113.9q5 .4 10.1.1l4.3.2 5-.9q4.4-.5 8.5.4c2 .3 4 1 6 1.2 2.5.3 5-.4 7.6-.7q5.9-.5 11.8-.6c1.3-.5 2.4-1.9 3.4-2.8 2.7-2.8 6.1-5.4 10.2-4.6l6 1.5 4.2 2q5.8 2.6 11.8 4.7c4 2.2 8.1 4.5 12.7 4.3 2.6 0 5.1-.5 7.7-.6 1.9-.2 4 0 5.9-.6q4.3-1.2 8.5-2.6l5-.7q8.6-1 17 .1l6.8 1q4.5 1.7 9.3 2.2c2.8.3 5.6-.8 8.4-1.2" class="b"/><path d="m10.9 111.5 13.5.7c2.3-.3 4.5-1 6.8-1.2a28 28 0 0 1 6.8.3c2.5.3 5 1.3 7.6 1.4s5-.5 7.6-.5q3.3-1.4 6.8-.7 1.6.8 3.4.3c3-2.8 5.4-8 10.1-7.8 2.1.3 4 1.4 6 2q2.5.6 5 1 2.2 1.1 4.3 1.9 3.4.9 6.8 1.8 3.4 1.1 6.8 2.4 6.1 4 13.5 2.9 4.3-.3 8.5-.2c4.5-1 9-2.5 13.5-3.4 7.6-1.2 15.3-.6 22.9.6 1.4 0 2.9.7 4.2 1.2q3.3 1 6.8 1.7c3.1.8 6.3 0 9.3-.5" class="b"/><path d="M10.9 109.2q4.2 0 8.4.3c2 .1 4 .5 6 0 6.5-1.8 13-.5 19.4 1 2.2.3 4.6 0 6.8 0 4.2-2 6-2.2 10.2-.4 1-.4 1.9-1.6 2.5-2.5 1.5-1.8 3-4 5.1-5 5.2-1.7 7.3 6.5 15.3 4.3q2 1 4.2 1.7 2.5.4 5 .5 4 .2 7.7 1.5l2.5.7q1.6.9 3.4 1.6c3 1.2 6.3 1 9.4.8h6.7q5.9-1.7 11.9-2.6a51 51 0 0 1 16-1.2l6.9.8c1.3.3 3 .3 4.2.8 6 2 12.4 4.7 18.6 2.6" class="b"/><path d="M10.9 107q5.4-.4 11 .2c3.6-.5 7.3-1.2 11-.8q4.3.3 8.4 1c2.8.7 5.6 1.7 8.5 1.3 2.5-.9 5-2.4 7.6-1.9.8.2 1.8.7 2.6.4l3.4-2c1.2-1.5 2.5-3.3 4.2-4.2 5.8-2 7.8 10.1 17 6.4q2.4.9 5 1c3.7 0 7.4-.8 11 0q3 .6 6 1.4 2 1.1 4.2 1.6c3.3.7 6.8.2 10.2.3q2.2.2 4.2-.7t4.3-1.2q3.6-.6 7.6-1 6.7-1.4 13.5-.9 4 .3 7.7.9 2.6.2 5 1.1c4.2 1.4 8.4 3.1 12.7 3.5 1.7.2 3.5-.4 5.1-.7" class="b"/><path d="M10.9 105q5-.6 10.1-.4 3.5-.4 6.8-.5 4.3.1 8.5.5 4.8.1 9.3 1.6c2.6 1.5 5.1-.3 7.6-1q1.3-.4 2.6-.4.8.1 1.7-.1l7.6-4.5c3.3-2.9 6.3 1.2 8.4 3.5 3 3.5 6.4 5.7 11 3.9 3.4.7 6.9 0 10.2-.7q5.2-1 10.2.3l3.4.6q2 1 4.2 1.5 3.8.6 7.6.4c2 .2 4-.6 6-1.3q2.5-.8 5-1.1 3.5-.3 6.8-.4a47 47 0 0 1 19.5-.3q3.6.4 6.8 1.7c3.3 1.1 6.7 2.5 10.2 3.2q1.6.4 3.4.3l3.3-.6" class="b"/><path d="M10.9 103q11.3-1.4 22.8-.5c3.7.3 7.5-.1 11 1 3.4 1.5 7 .3 10.2-1.2 2.6-1 5-2.5 7.6-3.6 2.8-1.2 5.4-1.3 7.7 1 2.2 2 4.2 4.6 6.7 6.4 2.2 1.5 5.1 2 7.7 1.1 5.7 0 11.1-3 16.9-2.6q4.3.5 8.5 1.2 4 1.9 8.4 2 2.2 0 4.3-.3c2.5-.7 5-1.8 7.6-2.2 3-.5 6.2 0 9.3-.4a47 47 0 0 1 17-.3l4.2.6q5.1 1.7 10.2 3.5 2.8 1 5.9 1.4 2.2-.2 4.2-.5" class="b"/><path d="M10.9 101.4c4.4-.6 9-1.4 13.5-1.2 3.1 0 6.2.4 9.3.4h8.5c5.2 1 7.8.5 12.7-1.4 3.5-1 7.4-3.7 11-1.7 3.6 2.2 5.5 6.5 9.3 8.3 4.6 2.2 9.9.5 14.4-1a36 36 0 0 1 11.9-2.2q5.1.5 10.2 1.2a18 18 0 0 0 11 1.7c2.8-.6 5.6-1.9 8.5-2.2 2.7-.4 5.6.1 8.4 0 2.8-.4 5.6-1.3 8.5-1.3q3.8.1 7.6.5 3.4.3 6.8 1.1c4.3 1.3 8.4 3.3 12.7 4.3q3 .6 6 0" class="b"/><path d="M10.9 99.8c3.6-.4 7.3-1.3 11-1.4 5.6 0 11.3.6 17 .2 4.1-.3 8.5.4 12.6-.9l6-1.5c1.9-.6 4-.8 5.9.2 3.1 1.9 4.9 5.5 7.6 8a10 10 0 0 0 9.3 1.8c1.4-.3 2.8-1.2 4.3-1.2q3-.4 5.9-1.8c1.6-.8 3.3-2 5-2.2 5.7-1.1 11.4.1 17 .7 1.1.2 2.3 1 3.4 1.3q3 .8 6 .6c2.8 0 5.6-1.4 8.4-2s5.7-.2 8.5 0c2.3.1 4.5-1 6.7-1.3q3.8-.6 7.7 0c4.2.5 8.6.8 12.7 2.3 3.4 1 6.6 2.7 10.1 3.4q2.6.4 5.1.1" class="b"/><path d="M10.9 98.3c4.2-.4 8.4-1.3 12.7-1.6q7.2.2 14.4 0c4-.3 8-.1 11.8-.8 12.2-2.3 10.9-2.6 18.7 6.7 4.2 4.6 10.4 3.4 15.2.5q3 .1 6-1c2.2-1 4.4-2.2 6.7-2.8q4.6-1 9.4-.5l8.4 1.2q2 1.1 4.3 1.5 4.3.5 8.4-.6 2.5-.8 5.1-1.3 2.5-.2 5 0 1.8 0 3.5-.2 2.2 0 4.2-.9 2-.5 4.3-.5 4.6 0 9.3.9 3.8.5 7.6 1.4c3.4 1 6.7 2.6 10.2 3.5q2.5.5 5 .3" class="b"/><path d="M10.9 96.9c6.5-.6 13-1.6 19.4-2h6q3.7.3 7.6-.1c4.2-.4 8.5-1.3 12.7-1.6 4.3-.3 6.8 3.7 9.3 6.6 3.1 4 9 5.1 13.6 3.3q2.2-1 4.2-2.3c1.6-.2 3.5 0 5-.6 2.4-.7 4.6-2 6.9-2.6a27 27 0 0 1 6.7-.5h6l6 1c1.3.3 2.7 1.3 4.1 1.5 2.9.5 5.8-.4 8.5-1q4.6-.8 9.3-1.3 3.8-.3 7.7-.3 2-.8 4.2-1c4-.3 8 .4 11.9 1a68 68 0 0 1 11 2.6c3.2 1.3 6.6 2.6 10.1 2.3" class="b"/><path d="M10.9 95.5 31.2 94c3.6-.1 7.4.2 11-.3q4.3-.8 8.5-1.3c2.4-.4 5.2-.8 7.6 0 3.2 1.1 5.1 4.3 7.6 6.4 2.7 2.5 6.6 3.2 10.2 2.8q3-.6 6-2.4l1.6-1h1.7q2.3 0 4.2-.7c6.3-2.6 7.7-2.7 14.4-2.3q4.3 0 8.5.7l2.5.4 1.7 1c4.2 1.9 8.5-1 12.7-1.5q7.6-1.7 15.3-1c1 0 2.3-.6 3.4-.7q3.8-.3 7.6.1 7.3 1 14.4 2.8c3.7.9 7.2 2.8 11 2.6" class="b"/><path d="M10.9 94q10 0 20.3-.7 4.6 0 9.3-.5c4.5-.6 9-2.3 13.6-1.7 1.6.3 3.6-.2 5 .7 2.8 1.5 5 4.1 7.7 5.8a13 13 0 0 0 11.8.5q1.8-.8 3.4-1.9c.7-.4 1.7-1 2.6-.7 4.2.4 7.8-2 11.8-2.6q4.2-.2 8.5.4 3.8.3 7.6 1l2.5.3 1.7 1c2.8 1.3 5.9.3 8.5-.8a36.8 36.8 0 0 1 21.2-2l1.7-.4q1.6-.4 3.4-.4c6.3-.3 12.5 1.4 18.6 2.6l6 1.5q2.4.9 5 1" class="b"/><path d="M10.9 92.4c5.9 0 11.8.6 17.8.3 3-.2 6.2 0 9.3-.5 3.4-.4 6.7-1.6 10.1-2.2 2.5-.4 5.1.5 7.7.6 1.6.2 3.6-.4 5 .7 3.6 2.4 7.3 5.4 11.9 5.3 3.7 0 7-2.2 10.2-3.8q3 .3 5.9-.3c2.5-.5 5-1.6 7.6-2 3.1.1 6.2 1 9.3 1.4l6 .6c1 .2 2.4.1 3.4.6 3.4 2.4 6.6 1.6 10.1 0q7-3 14.4-3 2.6 0 5.1.4c1 .1 2.3.6 3.4.4 5.6-1.7 11.4-.8 17 .4l6.7 1.3q4.6 1.2 9.3 1.9" class="b"/><path d="M10.9 90.6c10.4.4 21.1 2.8 31.3-.3 1.7-.5 3.4-1.3 5-1.5l4.3.6q5 1.1 10.2.3c8 4.3 11.2 5.3 19.5 1.1 1-.5 2.3-.2 3.4-.3q3.4 0 6.7-.8 2.2-.7 4.3-1.3c3.1.2 6.2 1.3 9.3 1.9q4.3.7 8.5 1c1.1.2 2.2 1.1 3.4 1.4 3.8 1.5 7.5-1 11-2.1q6.1-2 12.7-2.4 4.3.1 8.5 1.2c6.9-2.4 10.9-1.4 17.7 0q3.8.9 7.7 1.3 3.4.7 6.7 1.1" class="b"/><path d="M10.9 88.7c10.9.5 22.5 4.5 33-.4l1.7-.7q2.2.2 4.2.8 3.8 1 7.7 1c2.5 0 5-.6 7.6-.7q3.7 1.7 7.6 1.8c2.6 0 5.2-1.1 7.6-2 3.4 0 6.9.1 10.2-.6q2.6-.8 5-1.6c3.6.4 6.8 2 10.2 2.7q3.4.8 6.8.9c2.9 1.3 5.2 2.6 8.5 1.8 2.6-.7 5-2 7.6-2.7a55 55 0 0 1 13.6-2.4q2.5 0 5 .7c1 .2 2.3 1 3.4.7 6.5-3 9.4-2.1 16.1-.7 4.8 1 9.7 1.1 14.4 1.8" class="b"/><path d="M10.9 86.6c9 .2 18 3.8 27 2.2q2.3-.5 4.3-1.3c1-.4 2.2-1.2 3.4-1.3 9 3 12.8 2.9 22 1q1.7-.4 3.4 0a15 15 0 0 0 7.6-.6q3 .1 6 .1 3.4 0 6.8-.8c2-.4 3.9-2 5.9-1.3 3.2.8 6.1 2.5 9.3 3.3q2.5.6 5 .9 2.2 1.1 4.3 1.8c4.4 1 8.6-1.5 12.7-2.7l8.5-2q3.8-1 7.6-.8 1.8.2 3.4.8c1 .3 2.3.8 3.4.7a23 23 0 0 1 6-2.5c2.7-.5 5.6.4 8.4.7q7.5 1.2 15.3 1.6" class="b"/><path d="M10.9 84.6c12-.5 22.1 6.6 33.9 0 2.5.5 5 1.9 7.6 2.4 6.2 1.3 12.5-.2 18.6-1.5 5.8-1.3 11.9.1 17.8-.7a18 18 0 0 0 5-1.1c1.4-.5 3-1.4 4.3-.7 3 1 5.6 2.6 8.5 3.6q1.6.5 3.4 1 2 1.2 4.2 1.9c4.4 1.4 8.6-1 12.7-2.1q7.6-1.9 15.3-3.5c3.3-.6 6.8-.1 10.1.3q1.7-.7 3.4-1.2c1.1-.2 2.3-.8 3.4-1q2.6 0 5.1.2 3.8 0 7.6.5 4.6.8 9.3 1" class="b"/><path d="M10.9 82.7q2.5.2 5 .4c1.7 0 3.5-.5 5.1 0 8.4 1.9 15.6 4 23.7-.2 2.6.7 5 2 7.7 2.6q6.3 1.3 12.7.1 4.6-1 9.3-2c6.7-.8 13.8 1 20.3-1.4l3.4-1q3 1.1 6 2.8c1.2.8 2.9 1.3 4.2 2.1q5.4 4.2 11.8 2.3l6-1.8q5-1 10.1-2.3c6-1.5 11.6-3.2 17.8-2.4 1.8-.9 4-1.1 6-1.7q3-.3 5.9-.4c5.1-.7 10.2.5 15.2 1.1" class="b"/><path d="M10.9 81c2.7.4 5.6 1.1 8.4.8q1.8-.1 3.4-.5.8-.3 1.7 0c3.9 1 7.8 2 11.9 2a21 21 0 0 0 8.4-2.1c1.5.1 3 1 4.3 1.4q3.6 1.6 7.6 1.9 5.6.4 11-.6c3.1-.6 6.2-1.6 9.3-2 4.8-.3 9.7.4 14.4 0 2.9-.2 5.7-1.4 8.5-1.8q3 1.5 6 3.5c2.5 2.2 5.7 4.4 9.3 4.3 3.1 0 6.2-1.4 9.3-2q6.3-1 12.7-2.6c5.2-1.2 12.5-4.4 17.8-3.2 1.9-.8 4-1.1 5.9-1.9q4.6-.9 9.3-1.3c3.7-.2 7.4.5 11 .9" class="b"/><path d="M10.9 79.4q.8-.2 1.6.2 1.6.6 3.4 1c3.7.7 7.5 0 11-1.2 7.4 2 11.4 2.6 18.7 0q3.7 1.6 7.6 2.7 6 1.1 11.9.7c4.3-.3 8.4-1.8 12.7-2.4 4.5-.5 9 .4 13.5.3 3.5 0 6.8-1 10.2-1.4 2.8 1.6 4.8 4.3 7.6 5.8 3.7 2.4 8 1.2 11.9.2 2.7-.7 5.7-.8 8.5-1.3q5.6-1 11-2.6c3.6-1 7.2-2.4 11-3.1q1.6-.5 3.4-.2c.7.2 1.8.2 2.5-.3l2.5-.8q1.6-.9 3.4-1.3a45 45 0 0 1 17.8-1.1" class="b"/><path d="M10.9 78.1c1.3-.9 2.8.4 4.2.8q2.5.8 5 1a25 25 0 0 0 8.5-1.9c1.4-.6 3 .4 4.3.6q4.2 1 8.5.4c1.7-.2 3.4-1 5-1.2 3.3 1.2 6.7 2.7 10.2 2.8 4.2.5 8.5 1 12.7.2 4.8-.9 9.5-2.7 14.4-2.1 3.7.3 7.4.8 11 .7 2.8-.1 5.8-1 8.5 0 2.5 2.1 5 4.8 8.5 5.4 3.4.5 6.8-1 10.1-1.3a80 80 0 0 0 25.5-5.4c3.2-.9 6.8-2.7 10.1-1.4q1.6-.8 3.4-1.6 1.6-1 3.4-1.6c5.4-1.9 11.3-2.1 17-1.8" class="b"/><path d="m10.9 77.6 1.6-.7c6.4 4.1 12 3.1 18.7.3.8-.2 1.8.2 2.5.3q2.1.6 4.3.7 4.7.5 9.3-.8c2.4 1 5 2.2 7.6 2.7q6.4.6 12.7-.6c2.2-.6 4.6-.8 6.8-1.4 2.8-.6 5.6-1.4 8.5-1.2 4.2.2 8.4 1 12.7 1.1q1.6.1 3.4.5l5 .8c2.3 1.2 4.2 3.4 6.8 3.7 3.2.4 6.3-.9 9.4-1a84 84 0 0 0 33-7c1.6-.5 3.5-.8 5 0 2.3-.6 4-2.5 6-3.3 5.3-2.4 11.3-2.2 17-2.1" class="b"/><path d="m10.9 77.6 1.6-.7c1.2 0 2.3 1 3.4 1.2 5.3 2 11 .8 16.1-1.2 1.1-.6 2.4 0 3.4.2l3.4.7q4.7.7 9.3-.4c.9-.2 1.8.4 2.6.7q2.4 1 5 1.6 6.5.5 12.8-.4c3.7-.7 7.3-2.2 11-3.3 3.3-1 6.8-.5 10.2 0 4.5.8 9 2 13.5 2.7q1.3 0 2.5.4l1.7 1c3 1.8 6.3.5 9.4 0 2.2-.4 4.5-.1 6.7-.2q6-.2 11.9-1 6.5-1 12.7-3.3l6-2.3c1.5-.5 3.4-.9 5 0 2-.3 3.2-2.7 5-3.4 3-1.6 6.2-1.9 9.4-1.8l7.6.3" class="b"/><path d="M10.9 77.2q1.2-.6 2.5-.8 4 1.7 8.5 1.6 5.6 0 11-2c1-.5 2.3.2 3.4.4q2 .7 4.2 1 4.6.8 9.3-.3c.9-.2 1.8.4 2.6.7q1.6.7 3.4 1c8 1 16-.3 23.7-3 6.8-2.2 15 .5 22 1.4l5 1q1.7.7 3.5.6c2.5-.3 5-1.3 7.6-1.3q4.3.3 8.5.1 5.5.2 11-.5 6-.9 11.8-3l6-2.4c1.6-.6 3.5-1 5 0h.9a11 11 0 0 1 11-5l9.3 1.2" class="b"/><path d="M10.9 76.1q1.2-.3 2.5-.5l2.5.5c2.3.2 4.6 0 6.8.2A30 30 0 0 0 33 75q.9-.4 1.7 0c5.9 1.8 10.7 2.8 17 1.7q.8-.1 1.6.3 1.6.7 3.4 1 6.8.7 13.5-.8l7.7-1.6q3-.7 5.9-1.3c5.6-.6 11.3.3 17 1 2.5.3 5 1 7.6 1 1.7 0 3.4-.7 5-1 2.2-.6 4.6-.3 6.8 0h3.4c3.4.1 6.8.6 10.2.4q4.6-.1 9.3-1.3 4.4-.7 8.5-2.4c2-.8 3.9-1.9 5.9-2.4 1.1-.3 2.4.2 3.4.7 1.3-1.4 2.4-3.3 4.2-4 5.1-2.4 11 .2 16.1 1.2" class="b"/><path d="M10.9 74.6c1.9-.5 4-.2 5.9-.4 3.6-.4 7.3.2 11 0q2.2 0 4.2-.5 1.8-.5 3.4 0a40 40 0 0 0 17.8 2.4c1.4-.1 2.8.7 4.3.8q4.6.3 9.3-.5Q73 74.8 79.5 74a64 64 0 0 1 22.9-.6l4.2.4q2.2-.1 4.3-1 2-.7 4.2-.7c1.4 0 2.9.5 4.2.7 5.4 0 10.7 1.5 16.1 1.2 2.6 0 5.1-.8 7.7-1.1q3.9-.5 7.6-1.5c2.6-.9 5-2.5 7.6-3.3h3.4c4.9-7.4 12.8-3 19.5-1.2" class="b"/><path d="M10.9 72.7c2.5-.3 5-1 7.6-1.1 2.2-.2 4.5.2 6.8.3q3 .3 5.9.1c1.4 0 3-.5 4.2 0 6 1.8 12.3 3.5 18.7 3.1 1-.1 2.3.4 3.4.5q3.8.3 7.6-.4c3.7-.7 7.2-2.4 11-3q3.3-.5 6.8-.8 5.4-.7 11-1c3.6 0 7.4.4 11 .4q3-.6 6-1.5c2.5-.8 5 0 7.5.6 1.7.4 3.5.3 5.1.6 3.6.7 7.3 1.6 11 1.7 2.9-.2 5.7-1 8.5-1.3q4.3-.1 8.5-1c2.3-.7 4.5-2.3 6.8-3.2a17 17 0 0 1 4.2-.8c1.7-2.9 5.3-3.7 8.5-3.5 3.5.5 6.7 2.3 10.1 3.3" class="b"/><path d="M10.9 70.2c7-2.2 9.9-1.2 16.9-.5q3.8.2 7.6.1c4 1 7.9 2.3 11.9 3.1q3.7.8 7.6.9c3.4.4 6.9.6 10.2-.3 3.7-1 7.2-3 11-4 2.7-.8 5.6-.8 8.5-1a93 93 0 0 1 16-.3c3.8-.5 7.3-2.4 11-2.5 2.4 0 4.7 1 6.8 1.7 1.7.4 3.5.4 5.1.9 4.2.9 8.4 2.4 12.7 1.7q3.5-.8 6.8-1.1c1.7-.2 3.5.1 5-.1 1.7-.2 3.6 0 5.2-.6 2.3-.9 4.4-2.6 6.8-3.5 1-.5 2.4-.5 3.3-1 .3-.5 1.3-1.3 1.7-1.5 6.7-3.2 10 .2 16.1 2" class="b"/><path d="M10.9 66.7c4.4-1.2 9-.8 13.5-.1q5.5.8 11 1.1c3.8.3 7.4 1.7 11 2.7q6 1.6 11.9 2c9.5.6 13.6-5.7 22-7a70 70 0 0 1 17 0c4-.6 7.7-2.7 11.8-3 3.6-.2 6.9 1.6 10.2 2.8q2.5.6 5 1 3.5 1 6.8 1.7c3.5.7 6.8-1 10.2-1.3q3-.1 6 .5 1.7-.1 3.3-.1c3 .4 5.2-.8 7.7-2.5q2.3-1.7 5-2.3 1.3-1 2.6-1.7 2.4-1 5-1.2c1.5.3 2.9 1.2 4.3 1.5l2.5.5q1.6.6 3.4 1" class="b"/><path d="M10.9 62.9c4.8-.3 9.6.5 14.4 1q8.5 1 16.9 2.7c5.7 1.2 11 4.3 17 4 9.5.2 14.1-7.7 22.8-9.1q4.3-.8 8.5 0l3.4.7q1.2.5 2.5.2c7.9-3.2 12.2-4.6 20.3-.8q3 1.4 6 2.3 1.6 0 3.4.5c2.4.8 5 2 7.6 1.4 3.3-.6 6.7-2 10.2-1.4q2 .3 4.2 1h2.5c3.1.4 5 .2 7.7-1.6 1.8-1.2 3.6-3 5.9-3.4q1.8-1.5 4.2-2 1.2-.6 2.6-.1c1.6.5 3.3 1.4 5 1.6s3.5 0 5.1.6" class="b"/><path d="M10.9 59.3c3 .4 6.2 1.2 9.3 1.5 4.5.5 9 .7 13.5 1.6q4.7 1 9.4 2.3c3.3 1 6.7 2.6 10.1 3.4 4.8 1.1 10 .7 14.4-1.6 5.4-3 9.9-7.8 16.1-9 3.8-1 7.5.8 11 2.2 2.8-1.2 5.5-2.8 8.5-3.2 4.6-.6 9.3 1 13.6 2.5q2.5 1.2 5 2 1.3.4 2.6.6 1.6.5 3.4 1.2c4.5 2.2 9-.2 13.5-.5q3.5 0 6.8 1.3c.7.2 1.8.1 2.5.2 1 .1 2.4.4 3.4.4 4.4 0 7.2-4.1 11-5.5q1.2-.8 2.6-1.4c.7-.3 1.7-.7 2.5-.4q2.6 1 5 1.6 3 .3 6 0" class="b"/><path d="M10.9 56.2c2.2.5 4.4 1.6 6.7 2l6.8.5q3.9-.2 7.6.5a70 70 0 0 1 11 3c3.4 1.4 6.7 3 10.2 3.8 5.1 1.3 10.7.7 15.3-2 5.8-3.3 10.7-9.3 17.8-10 2.7 0 5.2 1.5 7.6 2.7 1.4-.3 2.8-1.3 4.2-1.8 4-1.9 7.9-1 11.9.2l3.4.8q2.2 0 4.2.7 2.6 1 5 2.3 2.7.4 5.2 1.6c4.6 2.3 8 1.3 12.7.5q3-.2 6 .4l3.3 1 2.5.3c3.8.8 7.4-1.1 10.2-3.5q1.5-1.4 3.4-2.2 1.5-1 3.4-1.4c1.7.3 3.4 1.1 5 1.4q3.5.5 6.8-.2" class="b"/><path d="M10.9 53.6q1.7.8 3.3 1.8c1.7.1 3.5-.2 5.1 0q3.5.5 6.8.7 3.4-.2 6.8.3A52 52 0 0 1 43 59.6q4.4 2.3 9.3 4c5 1.5 10.5 1.3 15.2-1 5.3-2.5 9.2-7.2 14.4-9.8a9 9 0 0 1 5.1-1.5q2.3.2 4.3 1.4c.7.4 1.6 1.1 2.5 1.1 3.3-1.7 7.3-3 11-1.6 2 .7 4 1.7 6 2.1 4.8-2.1 8.4.1 12.6 2.3 1.3.6 3 .8 4.3 1.3 2.4 1 4.9 2.4 7.6 2.5 3.7.2 7.4-1 11-.4q2.6.4 5 1.3c4 .7 8-.3 11.1-2.8a18 18 0 0 1 5-3.6q1.3-.8 2.6-.5 5.4 2.1 11 .8" class="b"/><path d="m10.9 51.7 1.6 1.3a27 27 0 0 1 7.7 0c1 .2 2.3-.2 3.4-.1l5.9.2c4 .5 8.1 1 11.8 2.7 8 3.4 13.4 8.4 23 6.2 7-1.4 11.7-7.4 17.7-11 4-2.7 7.2-2.1 11 .5 4.8-2 8.2-2.5 12.7.5 2.2 1.2 2.6 1.8 5.1.8 6.3-2 10.5-.7 16.1 2.3q1.6.6 3.4 1l3.4 1.5c3.7 2.2 7.8 1.4 11.8 1.2 2.6-.1 5.2.7 7.7 1.2 3.9.4 8.1-1 11-3.7q2.1-2.3 5-3.3 1.4 0 2.6.6c3 1 6.3.7 9.3 0" class="b"/><path d="m10.9 50.7.8.3q2.2-.5 4.3-.3c1.3-.7 2.6-1.7 4.2-1.7 2.8-.1 5.7.7 8.5 1q4.6 1 9.3 2.2c1.9.5 4 .6 6 1.2 5.8 2.9 11.5 7.9 18.5 7 4.5-.1 6.8-2.3 10.2-4.7l3.4-2.2c1.1-.5 2.5-1.1 3.4-2 3-2 6.4-4.7 10.2-3.6 1 .3 2.2 1.2 3.4 1.2 4.2-1.3 7.4-1 11 1.7.9 1 2.3.7 3.4.2.4-.3 1.2-1 1.7-1.2 2.5-1.8 5.9-1.1 8.4.4l2.6 1.6h1.7c3.7-1.1 5.2.5 8.4 1.7q3.1.7 6 2.3 3.1 2 6.7 1.9c2 0 4-.3 6 0 1.6 0 3.4.6 5 .8 2.3.2 4.7-.4 6.8-1q3-1.1 5.1-3.5c5.9-5.5 4.6.7 15.3-2" class="b"/><path d="m10.9 49.6 1.6-.2c3.5-4 4.3-4.8 9.4-2.6 2.4 1 5 1.3 7.6 1.8q3 .5 6 .6 5.8 1.4 11.8 2.3c3.3 1.4 6 4.2 9.3 5.6q4 2 8.5 1.3c2.2-.5 4.1-2 5.9-3.4 3-2.3 6.3-4.8 10.2-5.6 1.8-1.1 3.7-2.5 5.9-2.8 1-.2 2.4-.1 3.4.2.7.3 1.8.4 2.5.3q3-.6 6 .5c1 .4 2.2 1.3 3.4 1.6q2-1.6 4.2-2.9 1.1-1.2 2.5-1.9c4.1-1.4 8.1 1.4 11.9 2.6l4.2 2q1.3.3 2.6.6 1.6.6 3.4 1.4l4.2 1.4q2.3.9 4.2 2.2a12 12 0 0 0 5.1 1.4q3 0 6 .3 2.5.5 5 .5c2.9-.3 6-.6 8.5-2.1 1.5-1 2.8-2.6 4.2-3.7 1.8-1.6 4-.2 6 0q3.4.2 6.8-.7" class="b"/><path d="M10.9 47c4.4-8.1 6-2 11 1.2q3.5 2 7.6 1.4c2.5-.5 5-1.6 7.6-1.8 1.4-.2 2.9.3 4.2.4 3.1.5 6.2 1.2 9.4 1.2 3.5 2.3 6.7 5.6 11 6.7 1.3.3 2.8.7 4.2.2 3.3-1 5.7-3.7 8.5-5.6a19 19 0 0 1 6-3c1.2-.5 2.9-.5 4.2-1.2 3-1.6 6.7-1 10.1-.8q1.8.1 3.4.8c.8.3 1.7 1 2.6 1 2.6-3.5 6-7.8 11-6l8.4 3c3.4 1 7 1.8 10.2 3.4 2.5 1 5.2 1.5 7.6 2.4 1.2.5 2.3 1.6 3.4 2.2q2 1.2 4.3 1.6 3 .4 5.9.6 3.8.5 7.6 0c3.4-.4 6-1.3 8.5-3.9 3-3.2 4-1.5 7.6-1.3q3-.1 6-1" class="b"/><path d="M10.9 41.9c.3-.4 1.1-1.1 1.6-1.3 3.2 0 6 8.6 10.2 10.3 7.4 3 12-6.6 20.3-4.3q4.7.7 9.4.5c1.2.2 2.3 1.4 3.4 2.1 2.8 2.1 5.4 5.7 9.3 5.6 4.7-.7 7.7-5.3 11.8-7.3q4.6-2 9.4-2.8 2.5-.6 5-.6 4 .2 7.7 2l.8-.4c1.4-2.2 2.7-5 5-6.3 2.3-.9 4.7 0 6.9.7l6.7 2.5q3.8 1.3 7.7 2.2l4.2.4q1.8.5 3.4 1.3 2.2.6 4.2 1c2.6.6 4.4 2.8 6.8 3.7 5 2 10.8 2 16.1 1.4q3.3-.3 6-2.2l2.5-1.9 1.7-.6c1.2-.7 2.8 0 4.2 0 2 0 4-.6 6-1" class="b"/><path d="M10.9 38.6c4.6 0 6 13.7 13.5 13 6-.4 9.9-7.4 16.1-6.8 2 .1 4 .6 6 .5 2.7-.2 5.9-1 8.4.4 2.7 2.5 5 5.7 8.5 7.2 4.8 1.3 8.8-4.3 12.7-6.3q6-3.1 12.7-3.8a13 13 0 0 1 7.6.7q1.2.9 2.6 1c4.6-8.8 5.4-8.4 14.4-5.3q6.8 2 13.5 3.7c2.2.5 4.6.3 6.8.9 1.1.2 2.3 1 3.4 1.2q2.3.1 4.2 1a24 24 0 0 0 16.1 4.8q4 .2 7.7-1l2.5-1.4 3.4-1.1c1.3-.5 2.7-1.4 4.2-1.1q3-.3 6-1.1" class="b"/><path d="M10.9 37.4c1.7.5 2.5 2.8 3.3 4.2 1.3 2.3 2.5 4.9 4.3 6.8 6 5.8 11.6-2.9 17-5.1 1-.6 2.2-.3 3.3-.2l6 .7q2.1-.1 4.2-.7 1.3-.3 2.5 0l4.3 1.1C64.3 54 65.2 53 75.3 46q2.8-1.7 5.9-2.7 3.3-1.3 6.8-1.6c3.2-1.2 7.4-1.1 10.1 1.2l.9-.3c1.6-2.7 3-7.2 6.8-7 1.7.2 3.4 1 5 1.4q3.4.8 6.8 1.3l11 2.7q3.8.6 7.7 1.2l3.3 1q1.4 0 2.6.6 3.3 1.7 6.8 3.4a22 22 0 0 0 6.7 1.5 41 41 0 0 0 19.5-4l6-1.3" class="b"/><path d="M10.9 37c1.7.6 2.5 2.7 3.3 4.2 1.8 3.2 4.2 7.7 8.5 7 3.1-.5 5.4-3 7.6-5 1-.8 2.1-2 3.4-2l6 .4c1.9 0 4 .6 5.9.3 1.7-.2 3.4-1.4 5-1q2.6.7 5.1 1.7c1.1.1 1.9 1.5 2.6 2.2 1.7 1.8 3.5 3.8 6 4.6 4.6 1.2 9.2-4.4 13.5-6q3.3-1.5 6.7-2.6 2.2-.4 4.3-1.1c2.4-1 5.3-1.2 7.6 0 .8.4 1.7 1.2 2.5 1.3 3-5 3.4-9 10.2-6.3q3.8 1 7.6 1.2l6 1.2c6.7 1.6 13.6 2.7 20.3 4.4 4 1.5 7.6 4 11.9 4.6a36 36 0 0 0 22-3.6l4.2-1.1" class="b"/><path d="m10.9 36.3 1.6 1c4.6 8.5 8.3 12 16.2 3.9l1.6-1.6c1.4-.3 2.9.4 4.3.3l5 .1c1.7 0 3.5.4 5.1.2 2-.2 4-1.3 6-1.7q3 1.1 5.9 2.5c1.8 1.4 3.3 3.4 5 4.8 5.9 5 10.8-1.2 16.2-3.6q4.5-2.1 9.3-3.4c4-2.3 8.3-3.2 11.9.5l.8-.5c1.5-2.7 2.9-7.5 6.8-6.4 2 .5 4 1.2 6 1.3q2.5.2 5 .3 3.8.6 7.6 1.2 7.3 1.5 14.4 3.2 3 .6 6 1.6c3 1.2 6 3 9.3 3.7 6.1 1.5 12.6.4 18.6-1.2q2.7-.9 5-2.2l2.6-.7" class="b"/><path d="M10.9 35.2q1.7.6 2.5 2.3l2.5 3.5c4.6 5 9.2.4 12.7-3.2 2 .2 4 .8 6 .7q4.6 0 9.3.2c2.7-.2 5-1.8 7.6-2.2q2.6 1 5.1 2.3c2.4 1.7 4.2 4.4 6.8 5.9 3.8 2.6 7.6.3 11-1.8a45 45 0 0 1 11.8-5.2c2.8-1.6 6-3.5 9.4-3 .8.1 1.9.8 2.5 1.4.4.4 1.1 1 1.7 1 1.3-.8 1.8-3 2.5-4.1 1.9-3.2 4-2.4 6.8-1.4q2.5.6 5.1.5 3 0 6 .3l5 .4q9.4 1.5 18.6 4.3c4.7 1 8.8 4.1 13.6 4.8q4.3.3 8.5-.3 3.3-.3 6.7-.8 2.2-.4 4.3-1.3c1.3-.6 2.7-1.5 4.2-1.8" class="b"/><path d="M10.9 33.4c.6.1 1.3 1 1.6 1.5.7 1 1.7 2.4 2.6 3.3 4 4.5 8.4 1.5 11.9-1.9 1.2-.4 2.8.4 4.2.5q3.3.4 6.8 0c2.8-.1 5.7.7 8.4-.2q3-1.4 6-1.7c.8-.2 1.8.4 2.5.7l2.5 1.3q2.5 2.5 5.1 4.8c3.8 3.1 7 2.7 11 .3q3.3-1.9 6.8-3.5 4-1.4 7.6-3.5c2.8-1.3 6.2-3.2 9.4-2l1.6 1.5c.4.2 1.3.4 1.7.3 1.4-1.4 1.9-3.9 3.4-5 1.3-1 3-.5 4.3 0q1.6.5 3.4.7c3 .2 6.2-.4 9.3 0 9.3-.1 18.2 2.9 27 5.4 3.2 1.2 6.1 3 9.4 3.5s6.8-.5 10.2-.5 7 0 10.1-1.5c1.1-.4 2.3-1.3 3.4-1.5" class="b"/><path d="M10.9 31.3c2.7 3.5 6 8.4 11 5.8 1.5-.7 2.7-2 4.2-2.7q6.3 1.3 12.7.7c2.3-.1 4.6.4 6.8 0 1.7-.4 3.4-1.2 5-1.4 2-.3 4.2-.5 6 .3 1 .4 1.8 1.4 2.5 2l3.4 3.2c4.1 3.5 7.3 3.5 11.9.9q4.5-2.6 9.3-4.5c3-1.4 6.1-3.1 9.3-4.2 2-.8 4.5-1 6 .7q1.2.6 2.5.4c4-8.7 5.4-2.9 12.7-3.5 4.8-.4 9.6-.8 14.4-.3 4 .4 8 1.6 11.9 2.7q5.1 1.4 10.2 3c2.6 1.2 5.4 2.8 8.4 2.7 3.1 0 6.2-.9 9.3-.7 5 .6 8.4 0 12.7-2.3" class="b"/><path d="M10.9 30c4.3 5.3 7.5 7.2 13.5 2.7q2.1.2 4.3.5 3 .4 5.9.3l6-.3c1.6 0 3.3.3 5 0q2.5-.7 5-1.2a21 21 0 0 1 6.8.7c2.3 1.2 4 3 6 4.6 3.6 3 6.8 3.4 11 1.1a68 68 0 0 1 8.5-4q3.7-1.9 7.6-3.3 2.5-1 5-1.9 2-.4 3.5.8c.3.2 1.2.3 1.6.2l.9.1.8-.3c2.6-6 4.6-3.2 9.4-2.6 3.6.3 7.3-.6 11-.7 8.4-.9 16.5 2.2 24.5 4.2q2.6.8 5.1 1.7c1.9.8 3.9 1.8 6 2.1 3 .3 6.2-.7 9.3-.5 2.5.1 5 .6 7.6.1 2-.2 4-1.1 6-1.7" class="b"/><path d="M10.9 28.6c2.7 3 6 5.4 10.1 3.5 1.1-.3 2.2-1.5 3.4-1.3q3.8.8 7.6.9 3.9-.1 7.7-.4h5c1.7 0 3.4-.9 5.1-1q4-.6 7.6 1l3.4 2.3c3 1.5 5.7 4.5 9.3 4.3 2.8-.2 5.2-1.8 7.7-3a110 110 0 0 1 11.8-4.7l4.3-1.7c1.2-.6 2.8-1.3 4.2-1 1.2 1 2.9.6 4.2 1 1-1.3 1.7-3.3 3.4-3.7q1.8 0 3.4.6 2.2.6 4.3.6 4.2-.2 8.4-1 6.9-.6 13.6.7 6 1.5 11.8 3 3.5 1 6.8 2 2.5 1.3 5.1 1.8c2.8.3 5.7-.4 8.5-.3q3.3.3 6.8.2 3.4-.3 6.7-1.4" class="b"/><path d="M10.9 27c4.2 4 7.5 4.5 12.7 1.7q7.1 1.4 14.4.8c2.5-.4 5 0 7.6-.3 1.6-.3 3.4-1 5-1q3.6-.3 6.8 1.2 4 3.2 8.5 5.3a9 9 0 0 0 7.6.2q8.3-3.8 17-6.3C93 28 95.4 26 98 26c1.3.6 2.9.2 4.2.6 1-.6 1.6-2.1 2.6-2.8 1.3-.7 2.9 0 4.2.3q2.2.5 4.3.5c5.3-.3 10.6-1.8 16-1.3 6.7.3 13 2.4 19.5 3.7q3.5 1 6.8 2 2 1 4.3 1.4c2.7.4 5.6 0 8.4 0q6.5.6 12.7-1" class="b"/><path d="M10.9 25c3 2.6 6.3 4 10.1 2.7 1.1-.3 2.3-1.1 3.4-1a59 59 0 0 0 17 .6l4.2-.1q2.6-.6 5-1 1.4-.2 2.6.1 1.7.2 3.4.5c3.7 2.5 7.3 5.9 11.9 6.7 3 .4 5.7-1.1 8.4-2.1q5.4-2 11-3.5 2.6-.6 5.1-1.7c1.6-.7 3.3-1.8 5.1-1.8q1.2.1 2.6 0c.7 0 1.8.3 2.5 0 1.5-2.9 3.2-2.7 6-1.9q2.3.7 5 .5c3.7-.3 7.3-1.1 11-1.4a44 44 0 0 1 7.6.1c6 .7 11.9 2.4 17.8 3.5 3.4.8 6.8 2.2 10.2 3 2.8.5 5.7.2 8.5.3q6 .3 11.8-1.1" class="b"/><path d="M10.9 23c3 2.3 6.4 3.7 10.1 2.7 1.4-.2 2.9-1.2 4.3-1q8 1.4 16 .5h4.3l3.4-.7q1.3-.2 2.5.2 2.2.5 4.3.6c1.6 0 2.9 1.6 4.2 2.3 2.5 1.8 5.4 3.6 8.5 3.7 2.9 0 5.7-1.2 8.5-2l6.7-1.8q3-1 6-1.7c2.9-.6 5.5-2.7 8.4-3h2.6q1.3.2 2.5-.1c2-3.4 4.7-1.6 7.6-1.3s5.7-.2 8.5-.6c3-.4 6.2-1 9.3-1 5.2 0 10.3 1 15.3 2l9.3 2c3 .8 6.2 2 9.3 2.5q4.3.3 8.5.2a41 41 0 0 0 10.2-1" class="b"/><path d="M10.9 20.9c5.7 3.8 8.9 3.4 15.2 1.7q7.2 1 14.4.7 2.6-.2 5-.2c1.2 0 2.4-.4 3.5-.4q3.7.8 7.6 1.2c5.5 3.9 9.2 6.2 16.1 4.4q6-1.2 11.9-2.5c1.7-.4 3.4-1.3 5-1.8 2.4-.5 4.6-1.6 6.8-2.4q3-.7 6-.3c1-.3 1.5-1.4 2.5-1.9 1-.3 2.3 0 3.4.1q2 .5 4.2.5c3.7-.1 7.4-.9 11-1.3 6.2-1.3 12.5-.1 18.7 1l11 2 7.6 2c3 1 6.2.8 9.3.7q5.6.3 11-.7" class="b"/><path d="M10.9 18.7c6.9 3.9 9.5 3.3 16.9 2 2.8 0 5.7.6 8.5.6 3.3.1 6.8-.3 10.1-.2 1.7-.3 3.5.2 5.1.4 1.7.4 3.5.4 5.1.9 3.5 2.3 7.5 4.6 11.9 4.2 6-.6 12-1.1 17.8-3l3.3-1.3 6-2c2-.9 4.5-.6 6.7-.5 2.2-2 3-2.3 6-1.6q3 .5 6 .2l10-1.3q4.7-1 9.4-.5 7.6 1 15.3 2.5l5.9 1 7.6 2c2.8.6 5.7.4 8.5.3q5 .1 10.1-.5" class="b"/><path d="M10.9 16.5c8.7 4 9.4 3.2 18.6 2.5 2.5-.4 5.1.1 7.6.2 2.8.2 5.7-.1 8.5 0q3-.1 6 .5c1.6.4 3.4.3 5 1 3.6 2.3 7.5 3.8 11.9 3.6q8.5.1 16.9-2.1c1.7-.5 3.4-1.5 5-2.1 2.4-.5 4.6-1.6 6.9-2 1.6 0 3.4.6 5 0 1.3-1.8 3.1-1.9 5.1-1.4q2.2.4 4.3.4c3.3 0 6.7-.8 10.1-1s6.8-1.2 10.2-1.2c4 0 8 1 11.9 1.5q5.4 1 11 1.8c3 .7 6.2 1.7 9.3 2.2 2.8.3 5.7 0 8.5 0q4.3 0 8.4-.6" class="b"/><path d="M10.9 14.6c2.3.3 4.5 1.5 6.7 2.1 3 .9 6.3.8 9.4.6q4.6-.2 9.3-.2c3.6.3 7.3 0 11 .2q4.3.4 8.5 1 2.1 1 4.2 2c3.7 1.7 7.9 1.7 11.9 1.9q3.8.2 7.6-.6a28 28 0 0 0 7.6-2.2 19 19 0 0 1 5-1.7l4.3-1.3q1.3-.1 2.6.2c.6.5 1.7.5 2.5.3.8-1 2-2 3.4-2 2 .2 4 .8 6 .7 3.3.1 6.7-.8 10-.8l6.9-.7c1.9-.3 4-.8 5.9-.7 3.4 0 6.8.9 10.2 1.3l11 1.7c3.3.7 6.7 1.8 10.1 2.2q4 .1 7.7-.3 4.3 0 8.4-.7" class="b"/><path d="M10.9 13c1.7-.3 3.4.3 5 .8q3 1 6 1.3 7.5.5 15.2.2c4.8.3 9.6 0 14.4.4l4.3.5q2.9 1.4 5.9 2.5A61 61 0 0 0 74.4 20q5.3-.3 10.2-2l3.4-1.5q2.1-.4 4.2-.9c2-.4 4-1.5 6-1 .7.1 1.6.8 2.5.8q1.8-2.7 5-2 2.6.7 5.1.7 4-.2 7.7-.6h3.3q4-.4 7.7-.9 2.5-.4 5-.7c3.4 0 6.9.7 10.2 1.2l10.2 1.5c3.3.7 6.7 1.7 10.1 2.1q4 .1 7.7-.5 4.3-.2 8.4-.9" class="b"/><path d="M10.9 11.7c2.1-.8 4.6-.3 6.7.3q3.4.9 6.8 1c5.7.5 11.3.4 17 .7l11.8.3h2.6q2.9 1.4 5.9 2.3 6.2 1.3 12.7 1.5c4 0 8.1-1.4 11.9-3q2.5-.3 5-.9c2.5-.5 5.2-2 7.7-.6q1.7-.6 3.4-1.4c2.4-.3 5 1 7.6 1q3.7 0 7.6-.6 5 .1 10.2-.4c2.8-.2 5.6-1 8.4-1.1 3.7 0 7.4.7 11 1.2q4.7.4 9.4 1.5c2.8.5 5.6 1.4 8.4 1.6 2.9.1 5.7-.4 8.5-.7l7.6-1" class="b"/><path d="M10.9 10.8c3.6-2.3 8-.6 11.8-.2q8.1.7 16.1 1.3 3.8.2 7.6 0 5.1.3 10.2.7c3.4.7 6.7 1.8 10.2 2 3.3.5 6.8 1 10.2.4q3.8-.6 7.6-2l5-.8q2.6-.7 5.1-1.3h2.6l4.2-.8c1.4-.2 3 .3 4.3.7q3 .6 5.9.6 3.7-.2 7.6-.5c4.2.3 8.5-.2 12.7-.5 2-.2 4-.8 6-.8q4.2.1 8.4.7 6.4.8 12.7 2.1 3 .8 6 1 4.3.1 8.4-.8 3.9-.4 7.6-1.3" class="b"/><path d="M10.9 10C14 7.6 18 8 21.9 8.5c4.2.4 8.4 1.2 12.7 1.5q5 .6 10.1.2 4 0 7.7.3 4.6.4 9.3 1.2 5 .7 10.2 1c4.2.3 8.5-.9 12.7-1.6q3-.6 5.9-1.2 4.1-1.1 8.5-1.4c1.3 0 2.9-.3 4.2.1a28 28 0 0 0 6.8 1.3q4.6.1 9.3-.4 3.8.4 7.6 0 3.5 0 6.8-.3c1.7-.2 3.4-.7 5-.7 4.3 0 8.6.8 12.8 1.2q5.6.8 11 2.2c6.3.9 12.5-1 18.7-2.2" class="b"/></svg>