<svg xmlns="http://www.w3.org/2000/svg" id="a" width="1920" height="2400" viewBox="0 0 192 240"><defs><style>.b{fill:none;stroke:#fff;stroke-miterlimit:10;stroke-width:.3px}</style></defs><path d="M0 0h192v240H0z" style="stroke-width:0"/><path d="M13.2 227.9c1-.9 2.1-.7 3.3-.5q2.4.4 5 .3c3.6 0 7.1-1.2 10.6-1.8q2-.4 4.2-.3 5 .1 9.9.7c2.4.3 5-.2 7.4.1l5 1.2c1.1.3 2.2 1.4 3.2 2 2.5 2 5.2 3.2 8.2 1.8 4-1.9 7.8-4.9 12.4-4.6.9-.2 1.7-1 2.5-1.5q2.7-1.5 5.7-1l7.5 1.8q5.4.8 10.7 2 2.1.4 4.1 1.3c2.6 1.3 5.5 1.1 8.2.7q6-1 11.6-2.6 7.4-1.4 14.8-1.9 3.8-.2 7.4.5 3 .7 5.8 1.3c4.2 1 8 3.2 12.4 4q3 .3 5.7-1" class="b"/><path d="M13.2 227.4c1.2-.7 2.6-1.8 4.1-1.5q3.3.3 6.6-.1l6.6-1.5c4.1.1 8.2-.3 12.3.1q2.6.2 5 .1l2.5-.2 2.4.6 7.4 1.4c3 1.8 6.2 4.8 10 3.5 3.9-1.3 7.3-4.2 11.5-4.9.8-.4 1.7-1.3 2.4-1.8q1.6-1 3.3-1.1c3.1-.2 6.1 1.2 9.1 1.7q5.8 1 11.5 2.3c1.4.3 3 .3 4.2.9 2.5 1 5.4 2 8.2 1.4 4.2-.5 8.3-1.8 12.4-2.6q7-1.5 14-1.8 3.2-.1 6.6.2l6.6 1.5c4.7 1 9 4 14 3.8q2.5-.6 5-1.7" class="b"/><path d="M13.2 226.6q2.8-1.2 5.8-2.2a25 25 0 0 0 9-1.4l4.1.2q3 0 5.8-.3h6.6q1.6 0 3.3-.3 1.3.1 2.5.5c3.7 1 7.7 1.2 11.5 1.8 2.6 1.9 5.7 4 9 3.1 3.6-1 6.7-3 10-4.5 1.2-1.6 2.9-3.1 4.9-3.5 2.2-.5 4.5.1 6.6.6q2.9.8 5.8 1.1 5 .8 9.8 2 2.5.4 5 1c2.4.7 4.9 1.5 7.4 1.4 4-.2 7.7-1.5 11.5-2.3q7-1.5 14-1.9 6.8 0 13.2 1.8c5 1 9.6 4.3 14.9 3.3q2.5-.9 5-2.4" class="b"/><path d="M13.2 225.8q4.2-1.4 8.2-3.2l4.2-.8q1.1-.4 2.4 0l4.1.2q3-.1 5.8-.4l7.4-.4c.8-.1 1.8-.5 2.5-.1q2 .8 4.1 1.2c3 .6 6 .5 9 .7l1.7.1 2.5 1.5c2 1 4.3 2 6.6 1.6q4-.7 7.4-3.3c1.4-1.7 2.8-3.7 5-4.6 4-1.3 8.2.5 12.3.8s8.3 1.5 12.4 2.3q3.2.6 6.6 1l4 .8c4 .8 7.8-.5 11.6-1.4q6.5-1.4 13.2-1.8 7.1-.1 14 1.8c3.1.5 6 2 9 2.7q4.3.8 8.3-.7 1.7-1 3.3-2.2" class="b"/><path d="M13.2 224.8q3.8-1 7.4-2.6c1.4-.5 2.7-1.6 4.1-2 1-.3 2.3.1 3.3.2l4.2.3q4.9-.3 9.8-.8c1.7 0 3.4-.7 5-.6q3.9 2 8.2 2h7.4c1.2-.2 2.3.6 3.3 1.2q2.7 1.6 5.8 1.8c6 .3 6.7-4.2 10.7-7.2 3.4-2.2 9.4-.8 13.2-.1 3.3.5 6.7.5 9.9 1.2a96 96 0 0 0 14 2q3.3.6 6.6.5c4.4-.4 8.7-2 13.2-2.3q7.5-.9 14.8.7 3.8.7 7.4 1.7c2.2.6 4.3 1.7 6.6 1.7q3.4-.2 6.6-1.4c.7-.3 1.8-.6 2.5-1l1.6-1.4" class="b"/><path d="M13.2 223.6a41 41 0 0 0 7.4-2.3c1.7-.6 3.2-2 5-2.3 1-.4 2.2 0 3.2.1q2.2.3 4.2.2 2.4-.2 5-.5 4.1-.1 8.1-1.3c5.4 2.7 9.1 2.7 14.9 2 1.3 0 2.8-.4 4.1 0l1.7 1c7.1 3.8 9.1 1.5 14-3.9 2.3-2.3 5.9-2.5 9-2.2q2.4.6 5 1.1c1.9.3 3.8-.2 5.7-.2q3.4.3 6.6.9c6.8 1 13.7 2.2 20.6 2.2 4.4 0 8.8-1.5 13.2-1.4l9-.3q2.6.3 5 1l6.6 1.2c2.6 1 5.5 1.8 8.2 1q2.6-.7 5-1.8c1.4-.5 3.1-.6 4-2" class="b"/><path d="M13.2 222.1q3.8-.6 7.4-2l3.3-1.5 2.5-.5c2.1-.7 4.4-.1 6.6-.3q2.4-.2 5-.6c2.7-.2 5.5-.4 8.1-1.5 4.6 3.2 10.5 2.8 15.7 1.9 1.3-.1 2.8-.5 4.1-.2l1.7 1c6.5 3.9 8.5 1.2 13.2-3.3 2.2-2 5.4-2.5 8.2-2.3 2 .3 3.8 1.2 5.8 1.2 1.7.1 3.3-.8 5-1l2.4.5 3.3.3c9.6 1 19.2 3.8 28.8 2.3q2.5-.5 5-.3c2 .5 3 1 4.9-.3 3.4-1.6 7.3-.9 10.7.1q1.6.8 3.3 1c.7 0 1.8 0 2.5.2 1.6.3 3.3 1 5 1.1 4.3.5 8-3 12.3-3.4l.8-.8" class="b"/><path d="M13.2 220.3q4.7-.4 9-2.2 3-.7 5.8-1.3l2.5-.6h3.3q2.9-.5 5.8-.8 3.3-.4 6.6-1.3c4.7 3.5 11 2.4 16.4 1.5 4.2-.6 4-.3 7.5 1.9 5.5 3 8.7-3.3 13.1-5.1q2.1-.7 4.2-1.2c2.2-.1 4.3 1 6.5 1 1.8.2 3.3-1 5-1.2.8 0 1.7.6 2.5.8q3.7 0 7.4.5c2.7.3 5.5.3 8.2.9 2.7.4 5.5 1.2 8.3 1.4q5.7.1 11.5-.5c1-.1 2.3.2 3.3 0q2-.6 4.1-1c3.5-1 7.3-.4 10.7.5l3.3 1q1.7 0 3.3.4c2.1.5 4.4 1.2 6.6.7 3.4-.9 6.3-3.2 9.9-3.4l.8-1" class="b"/><path d="M13.2 218c2.8.2 5.5-.4 8.2-1q5-.8 10-2.4c1.5-.4 3.3-.2 4.9-.5 3-.7 6.1-.8 9-1.8 1.2 0 2.2 1.2 3.3 1.5q3.1 1 6.6.8c3.3-.2 6.6-1 9.9-1.3 2.2-.3 2.5.2 4.1 1.5 2.1 1.7 5.1 2 7.4.6q2.7-1.5 5-3.3 1.6-.9 3.3-1.5c1.9-1.4 4.4-1 6.6-.5q2 .4 4-.3c1.6-.7 2.9-.9 4.2.5q2.5-.1 5 .2c2.7-1.9 6 .1 9 .3q5 .4 9.9 1c4.3.5 8.9 1.1 13.2.2q7.7-2.1 15.6-1c3.4.5 6.6 1.5 10 2.1 2.3.6 5 1 7.3.2 2.5-.8 4.8-2.4 7.5-2.6.5-.4 1.3-1.3 1.6-1.8" class="b"/><path d="M13.2 216c6.7.7 13.5-1.1 19.8-3.4a140 140 0 0 0 12.3-2.3c4.2 3 9.3 2.7 14 1.5q2.5-.5 5-.7 1.6.2 3.3.6c2.8 2.5 6.3 3.6 9.9 1.8 1.7-.8 3.2-2.2 5-3q.7-.5 1.6-.7 1.1-.8 2.4-1.4c1.9-.7 4-.1 5.8 0q2.1-.2 4.1-.8c1-.1 2 .8 2.5 1.5q1.2.2 2.5.3c1-.7 2-2 3.3-2 2.5.2 4.8 1.7 7.4 2 2.4.3 5 .1 7.4.2q4.1.1 8.2.7 3 .3 5.8 0c1.6 0 3.3-.6 5-.8a50.8 50.8 0 0 1 19.8.5c3.1.8 6.5 1.8 9.8 1.6 2.8-.2 5.6-1.3 8.3-2l2.4-3.3" class="b"/><path d="M13.2 214c5.5 1 11.2-.2 16.5-1.7 1.9-.5 3.8-1.6 5.7-2q3.4-.6 6.6-1.4c1.6-.3 2.7-.9 4.2.3 4 2.5 8.9 1.3 13.1.2q1.3-.5 2.5-.2l4.1 1q1.3.2 2.5.6l1.6 1c2 1 4.5 1.4 6.6.6 2.9-1.1 5.2-3.6 8.3-4.2 1.8-1.6 4.2-1.8 6.6-1.6 1.6 0 3.3-.4 4.9-.4 1 .4 1.8 1.7 2.5 2.5l.8.2c2.8-5.8 5.3-2.2 9.9-1.3q3.7.6 7.4.3l3.3.5q2.9.2 5.8 0 2.8.4 5.7.5c2 0 4-.7 5.8-.9l8.3-.8q8.8-1 17.3 1.9c4 1 8.3.3 12.3-.6 1.2-1 2.3-2.8 3.3-4" class="b"/><path d="M13.2 211.8c5.7 1.3 11.8.2 17.3-1.5q2.4-.8 5-1.9c2.7-.5 5.4-1.5 8.2-2 1.3.5 2.6 1.6 4 2 3.4.9 6.8-.1 10-1.1q1.3.1 2.4.5a44 44 0 0 0 7.5 1.6q.9 0 1.6.5c2.5 1.6 5.7 2 8.3.5 1.9-1 3.7-2.5 5.7-3.2.7-.3 1.8-.5 2.5-.6a9 9 0 0 1 3.3-1.4q2.4-.2 5-.2 2.6-.5 4 1.8h.9c2.7-3.6 3.4-3 7.4-1.7q2 .6 4.1.9 3.6 1.6 7.4 1.8 3 .2 5.8-.4c1.3-.1 2.8-.7 4.1-.4q2.5.5 5 .4l4-.6q4.2-.3 8.3-1a39 39 0 0 1 19.8 1.4c3.5.7 7.2.2 10.7-.2 1.3-.9 2.3-2.5 3.3-3.7" class="b"/><path d="M13.2 209.3c6 1.6 12.3.8 18.1-1q3.7-1.5 7.4-2.7c1.3-.3 2.8-1 4.2-.8 1.4.3 2.7 1.4 4 1.8 3.1 1 6.2-.6 9.1-1 2.7.9 5.5 2 8.3 2.4q2 .3 4.1.4 1.6.9 3.3 1.3c4 1 7.3-2.3 10.7-3.8q2-.8 4.1-1 1.2-.6 2.5-1 2-.3 4.1-.4 2.3-.2 4.1 1h.9c6.1-6 10.9 5 23.9 2l4.9-1.2q2.4.6 5 .7 2 0 4-.4 4.7-.2 9.1-1.4a44 44 0 0 1 10-1.2q4.1 0 8.2 1.2 2 .7 4 1.3 2.2.2 4.2.1c4.6-.2 4.1.6 7.4-3.1" class="b"/><path d="M13.2 206.6c6.1 2 12.9 1.6 19-.5 3.4-1.1 6.9-3.4 10.6-2.5 3.1 1.3 4.8 2.5 8.3 1.2 1-.3 2.2-1 3.3-.9 3 1 6 2.4 9 3l5 .5q1.2.6 2.5.8c4.3 1 7.8-2.5 11.5-4a16 16 0 0 1 5-1q2.2-1 4.9-1 2.5-.4 5 .7c7.3-5.6 9.9 5.6 24.6 2 1.7-.2 3.3-1 5-1q2.4.6 5 .9l4-.3c3.4-.1 6.7-1.2 10-2q4.8-1.5 9.8-1.6c4.2-.1 8.4 1 12.4 2.4 1.7.9 3.8.6 5.7.7h1.7q1.9-.8 3.3-2.3" class="b"/><path d="M13.2 203.9a31 31 0 0 0 23-1.2q3.3-1.2 6.6-.3c4.7 2.1 5.5 1.6 10-.3 2.2.6 4.3 1.7 6.5 2.5q3.7 1.2 7.5 1.4c1 0 2.2.5 3.3.7q2 .4 4-.3c3.2-1 6-3.2 9.1-4.2 1.9-.7 4-.3 5.8-1.1q2.8-.7 5.8-.6 1.2 0 2.4.4 1 0 1.7-.7c4.9-2.4 9.6 5.5 19.8 3.4l7.4-1.5q2 .7 4.1 1 2.9.6 5.8.2 3.8-.4 7.4-1.6a45 45 0 0 1 17.3-2.8 35 35 0 0 1 9 2.3c3.9 1.7 5.5 1.6 9.1-.5" class="b"/><path d="M13.2 201.2a32 32 0 0 0 22.2.1q3.3-1 6.6-.4c4.4 1.6 5.7 2 10-.5 1.3 0 2.7 1 4 1.4q3.2 1.6 6.6 2.3 2.5.5 5 .6 2.8 1 5.7.1c3.7-1.1 7-3.6 10.7-4.6 1.6-.4 3.5-.1 5-.7q2.3-.7 5-.7 2 0 4 .3 2.9-1.6 5.8-.1 2.8 1.4 5.8 2.4 3.2 1 6.6.7c3-.4 6-1.4 9-1.7l4.2 1.1c5.5 1.7 11.2-.4 16.4-2 6.7-2 13.7-3.5 20.6-2.2q4.2 1 8.3 1.9c1.3 0 2.8.7 4.1.2" class="b"/><path d="M13.2 198.7c6.6 1.6 11.2 3.2 18.1 1.8 3-.4 6-1.6 9-1.2 2 0 4 1 5.9 1.3q2.2.2 4-1c.8-.3 1.7-1 2.5-.9l3.3 1.4q4.7 2.4 10 2.9c1.5.2 3.2 1 4.9.6 4.4-.8 8-3.6 12.3-4.9q2.5-.6 5-.7a15 15 0 0 1 5-.8q2-.1 4-.1 1.3.2 2.5-.3 1.3-.3 2.5 0c3 1 5.9 2.7 9 3.2 4 .8 7.8-.5 11.6-1.3 1.6-.2 3.3.6 5 1q2.7.9 5.7 1.1c4 0 7.8-1.3 11.5-2.4 4.1-1.3 8.4-2 12.4-3.5a28 28 0 0 1 9.9-1.7l11.5.5" class="b"/><path d="M13.2 196.4c3.3.4 6.6 1.6 9.9 2.2q4.5.6 9 0c2.2-.2 4.4-.9 6.6-1 7 .2 6.9 3.5 14-.9 3 1.3 6 3 9.1 3.9q2 .5 4.1.8 1.6.6 3.3.6c4.1-.3 7.7-2.7 11.6-4q3.1-1.4 6.5-1.6 1.7-.6 3.3-.7 4.2-.3 8.3-.2a5 5 0 0 1 3.3-.3c3.3 1 6.4 2.6 9.9 3 3.3.3 6.6-.8 9.9-1.3 3.8.7 7.6 2.2 11.5 2.5 3.1.4 6.1-.8 9-1.6 3.3-1.1 6.8-1.7 10-2.8 3.6-1.5 7-3.7 10.7-5.1q7.7-2.9 15.6-2" class="b"/><path d="M13.2 194.4c4.2.1 8.2 1.7 12.4 2.2s8.8 0 13.1-.6q2.2-.1 4.1.4c1.9.5 4 1.2 5.8.7s3.3-1.5 5-2c3.5 1.4 6.9 3.5 10.7 4.1q2.7 1.5 5.7 1c4.3-1 8.2-3.2 12.4-4.4q2-.6 4.1-.9 1.2-.5 2.5-.7c2.1-.4 4.4-.2 6.6-.5q1.6-.1 3.3.1a6 6 0 0 1 4.1-.2c6.4 2.2 9.7 3 16.5 1.6q2 .2 4.1.8l5.8 1.3c1 .3 2.2 1 3.3 1.3q2.4.5 5-.2c2.7-.6 5.3-2.2 8.2-3 2.8-.6 5.7-1 8.2-2.7 9.5-6 12.4-10.8 24.7-8.6" class="b"/><path d="M13.2 192.7c4.5-.4 8.8 1.2 13.2 1.8s8.8.2 13.2-.2q3 0 5.7 1c3.2 1 6.2-.9 9-2 2.8 1 5.5 2.5 8.3 3.4 2.6 1.6 5.2 2.5 8.3 1.6q6-2.2 12.3-4.2c2-.4 3.8-1.5 5.8-1.7l7.4-.4c1 0 2.3.4 3.3-.2 3-.8 6 1 9 1.4 3 .7 6.1.3 9.1.1q4 1.1 8.3 2c1.1 0 2.3.9 3.3 1.4 3.6 2.2 7 1.3 10.7-.1q3.8-1.3 7.4-2.7 3-.5 5.8-2c5-3 10-10.3 15.6-10.7 3.4 0 6.6 1 10 1.4" class="b"/><path d="M13.2 191c4.4-.6 8.9.5 13.2 1.3q4.1.7 8.2.6c2.7 0 5.5-.4 8.2 0 2.5.4 5 1.3 7.5.5l3.3-1c.7-.3 1.6-.8 2.4-.6 2.2 1 4.7 1.7 6.6 3.2q4.6 3.2 10 1 3.1-1.3 6.5-2.2l3.3-.9 2.5-1.1q3.6-1.3 7.4-1.3c1.9 0 4-.5 5.8.2 2.5-1.5 5.5-.7 8.2 0q4.1 1 8.2.7c3.6.7 7.2 1.9 10.8 2.6 2.4 1.5 5.2 3.3 8.2 3 2.9-.1 5.5-1.8 8.2-2.5q3.8-.8 7.5-2c1.3-.5 3-1 4-1.8q4.1-3.2 7.5-6.9c2.2-2.1 5-5 8.2-3.9 3.3.8 6.5 2.3 10 2.6" class="b"/><path d="M13.2 189.3c5-.8 10 .3 14.8 1.2a64 64 0 0 0 14.9.6q2 .3 4 .7c3.5.6 6.7-1 10-1.8 1.9.4 3.4 1.8 4.9 2.9q3 2.1 6.6 2.3c2.8-.1 5.5-1.5 8.2-2.2l4.2-1.1q1.4-1.1 3.3-1.8c2.6-1 5.4-1.1 8.2-1.3 1.6-.2 3.4-.5 5 .3 1-.3 2.1-1 3.2-1 2-.3 4 .2 5.8.5 2.4.6 5 .4 7.4 1.1q5 1.4 10 2.7c2.5 1.8 5.6 3.7 9 3.3 3.2-.3 5.8-2.8 9-3.4l5-.5c2.2-.7 4.3-2 6.6-2.4.9-.2 1.8-1.2 2.4-1.8l4.2-4.4c2-2.2 4.7-5.9 8.2-4.3 3.5 1.4 6.9 3.4 10.7 3.6" class="b"/><path d="M13.2 187.4q4.1-.5 8.2 0c4.4.6 8.8 1.8 13.2 2l10.7.2q2 .4 4.1.5 3-.1 5.8-1c1-.3 2.3 0 3.3 0q2.7 2.1 5.8 3.6c3.5 1.5 7.3.3 10.7-.8l3.3-.9c1.8-1 3.7-2.3 5.8-2.7q3.6-1 7.4-1.2c1.6-.2 3.4-.5 5 .4q.8-.2 1.6-.6 1.6-.7 3.3-.7c4.1 0 8.3 1 12.3 2l8.3 2.4c4.4 2.7 8 5.2 13.1 2.1 5.3-3.2 5.3-3.8 11.6-2.9.9.1 1.7-.7 2.5-1.1q2-1 4-1.5c.8-.1 1.9-.1 2.5-.5l2.5-2.7c2.2-2.2 4.8-7 8.3-6.4 1.7.5 3.3 1.7 4.9 2.4q3.5 1.8 7.4 2" class="b"/><path d="M13.2 185.4a38 38 0 0 1 10.7.4 85 85 0 0 0 14.8 1.9c2.8 0 5.5.5 8.3.7q5.3-.2 10.7.3l2.4.4q2.7 1.6 5.8 2.4 3.8.4 7.4-.8c1.4-.4 3-.6 4.2-1.4 3.1-2.2 7-2.9 10.7-3.5 2.4-.2 5.1-1.4 7.4.1 1.6-.5 3.2-1.7 5-1.6q5.7.3 11.5 2 4.5 1 9 2.4c2.1 1.2 4.2 2.9 6.6 3.3 4.6.9 8-3 11.6-5 3-2 5.3-.4 8.2.4a10 10 0 0 1 9-2.5c2.4-2.2 4.1-5.2 6.7-7.3 2-1.7 3.7-.8 5.7.5q4.5 2.7 10 2.8" class="b"/><path d="M13.2 183.5q4.1-.3 8.2 0c4.1.6 8.3 1.6 12.4 2l8.2.7q3.3.6 6.6 1 6.7.6 13.2 1.6 2 .7 4.1 1 4.2.3 8.3-1.1c2.1-1 4.2-2.4 6.5-3l7.5-1.6c2.4-.5 4.2-1.1 6.6.2 2.8-2 4-2 7.4-1.6a111 111 0 0 1 18.1 4c.9.1 1.7 1 2.5 1.4a11 11 0 0 0 4 1.7c5.1.6 8.5-4 12.5-6.3 3-2 5.4-.6 8.2 1 1 0 1.7-1 2.5-1.5 2.2-1.2 5-.9 7.4 0 .6-.2 1.3-1 1.6-1.5l3.3-4c5-4.8 5.3 2.1 16.5 2" class="b"/><path d="M13.2 181.6q4.5-.2 9 .1 5 1 10 1.7c3.5.5 7.1.6 10.6 1.2a165 165 0 0 0 20.7 3.4q5 .6 9.8-1.1c2.2-1 4.3-2.2 6.6-2.6l7.5-1.8c1.8-.5 4-1 5.7 0 1.3 0 2-1.4 3.3-1.7 1.6-.4 3.4-.1 5 0a94 94 0 0 1 19 3.8q1.1.6 2.4 1.5 5.3 3.1 9.9-1c3.2-2.2 6.3-6.3 10.7-6 1.8.4 3.4 1.6 5 2.5 2.6-2.9 6.7-2 9.8-.4l.8-.2c2-2.3 4-6.2 7.5-6 1.4.3 2.7 1.4 4 1.9q4.1 1.3 8.3 1.3" class="b"/><path d="M13.2 179.7q4.5-.1 9 .2 4.2.6 8.3 1.4c4 .7 8.3.7 12.4 1.5 8.3 2 16.8 4.7 25.5 3.6 2.9-.4 5.5-1.9 8.2-2.9q3.4-.9 6.6-1.6 2.9-1 5.8-1.6c1 0 2.2.6 3.3.7 1.8-2.2 3.9-2.4 6.6-2.1a81 81 0 0 1 17.3 2.4q2.5.5 5 1.4c.3.3 1.1 1 1.6 1.2 3.6 2.4 6.9 1.2 9.9-1.5 4.9-4.4 9.2-9 15.6-4h.8c3-2.2 7-.3 10 1.2l.7-.1c1.9-2.3 4-6 7.5-5.2 1 .3 2.2 1.1 3.3 1.5q4 1 8.2 1.1" class="b"/><path d="M13.2 178c3-.3 6 0 9 .1q4.6.6 9.1 1.5c3.8.5 7.8.6 11.6 1.3 3.8 1 7.6 2.4 11.5 3.2q5.8 1.2 11.5.8c3.2-.2 6.2-1.5 9-2.5q3.4-1 6.7-1.8c1.9-.5 3.8-1.5 5.8-1.8q1.6 0 3.3.6c2-2.6 4.4-2.4 7.4-2.3q5.8-.3 11.5.8l11.6 2.4 1.6 1.2c3.7 2.7 6.9 1.5 9.9-1.5 5-5 9.7-9 16.5-4 3.6-1.8 7.5.3 10.7 2.1h.8c1.8-2.4 4-5.6 7.4-4.5q1.6.7 3.3 1.3 3.7.8 7.4 1" class="b"/><path d="M13.2 176.3c1.9-.4 3.9-.1 5.8 0q6.2.1 12.3 1.5c3.8.6 7.8.6 11.6 1.3 3.6.8 7 2.3 10.7 3.2q4.8 1.3 9.9 1.1c3.7 0 7.2-1.3 10.7-2.5l6.6-1.9q2.4-1 4.9-1.7 1.7-.2 3.3.3c2.8-2.7 4.7-2.1 8.2-2.3q6.2-.8 12.4.4l11.5 2.2q1.4.7 2.5 1.6c3.4 2.5 6.4 1.5 9-1.4 3.3-3.4 7.3-7.6 12.4-6.5 1.8.3 3.3 1.5 5 2 2.8-1 5.7.5 8.2 1.7 1 .4 2.1 1.4 3.3 1.2 3.9-4.9 5.2-4.6 10.7-2.5q3.3.7 6.6.9" class="b"/><path d="M13.2 174.8c2.1-.6 4.4-.3 6.6-.2q5.8.2 11.5 1.4c4.1.4 8.3.6 12.4 1.4 3.3.8 6.5 2.3 9.9 3.2 4.8 1.3 10 1.5 14.8.4q8-2.1 15.7-5 1.6-.5 3.3-.2c1.1-.3 2-1.6 3.3-1.8 2.4-.4 5-.2 7.4-.6q6.2-1.2 12.3.2 5 1 10 2.2 1.2 0 2.4.5c1 .6 2.2 1.6 3.3 2.1 8.2 3.7 10-15 23.9-6.8 3.2-.6 6.2 1 9 2.1 1 .4 2.2 1.2 3.4 1.3 3-3.4 4.7-4.1 9-2.5q3.7 1.3 7.4 1.5" class="b"/><path d="M13.2 173.2q3.2-.6 6.6-.3 5.4.2 10.7 1c3.6.4 7.2.4 10.7 1.2 6 .8 11.3 4.2 17.3 4.7 6.5.8 12.9-1.2 19-3.2 3-.9 5.7-2.8 9-2.5 2.5-2 3.6-1.9 6.6-2q3.8-.2 7.4-1c7.6-1.5 15 1.8 22.3 3.3 2 .9 4.2 2.5 6.6 2.5 2-.2 3.6-1.9 4.9-3.3 1.7-1.8 3.5-3.8 5.8-5 3.1-1.5 7-.7 9.9 1 2.2-.3 4.5.4 6.6 1.2l6.5 2.6c1.6-1 3-2.5 5-2.6 3.6 0 7 2 10.7 2.2" class="b"/><path d="M13.2 171.7q3.7-.7 7.4-.3 4.5 0 9 .6 3 .1 5.8.3 3.4.1 6.6 1c4 .8 7.7 2.5 11.6 3.7a29 29 0 0 0 12.3 1q6-.9 11.6-3c2.4-.9 4.7-2.5 7.4-2.6.9.1 1.7-.8 2.5-1.2q1-.6 2.4-.6c4.2.1 8.3-1 12.4-1.7 7.6-1.3 15 1.9 22.2 4 2 1 5.3 2.4 7.5 1.4 5.6-3.7 7.2-10.1 15.6-7.4.7.3 1.7.9 2.5.7q2-.1 4.1.5l6.6 2.4q2 1 4.1 1.3c4.8-3.5 9-1.3 14-.3" class="b"/><path d="M13.2 170.2c4.9-.8 9.9-.2 14.8-.1q3.3.1 6.6 0 3.4.2 6.6 1c5 1.3 9.8 3.4 14.8 4.7q5.3 1.4 10.7.3a47 47 0 0 0 10-2.5c2.4-.9 4.7-2.5 7.4-2.8.8-.1 1.7-.9 2.4-1.2q1.6-.7 3.3-.7c10 0 14-4.6 24.7-1.3 3.4.6 6.7 2 10 3a13 13 0 0 0 9 1c2.2-1.4 3.7-3.7 5.8-5.1 2.3-1.8 5.5-1.9 8.2-.9q1.7.1 3.3.1c5.2.5 9.7 3.7 14.8 4.6.8.3 1.8-.1 2.5-.4q1.2-.4 2.5-.7c2.7-.4 5.5.3 8.2.8" class="b"/><path d="M13.2 168.8c4.6-.8 9.3-.3 14-.4 4.4 0 8.9-.6 13.2.6 5.9 1.4 11.4 4.2 17.3 5.5 2.7.6 5.5.1 8.2-.3 3.3-.5 6.8-.8 10-2 2.7-1 5.3-2.6 8.1-3.3 1.3-.6 2.7-1.4 4.2-1.6a38 38 0 0 0 10.7-1.5c4-1 8.2-2.4 12.3-1.6q6.8 1.4 13.2 4c4.7 2.3 7.9 1.6 12.4-.7 1.4-.8 2.6-2.2 4.1-2.9 1.5-.8 3.3-.6 5-.6q3.3-.4 6.5.3c3.1.7 6 2.1 9 3.1 1.6.6 3.4 1.3 5 1.3 4.1.2 8.3-.7 12.4 0" class="b"/><path d="M13.2 167.3q5.8-.6 11.5-.3c3.3-.1 6.6-.7 10-.7q5 .3 9.8 2c6.2 2 12.3 5.9 19 4.2 3.8-.8 7.7-1 11.5-1.9q3.4-1 6.6-2.7l5-2c1.2-.4 2.7 0 4 0q3-.4 5.8-1.3c4.4-1 8.6-3 13.2-3.1q3 0 5.8 1a37 37 0 0 1 6.6 2c4.6 1.8 7.4 4.5 12.3 1.6 5.4-3.2 9.2-5 15.7-4 4.8.9 9.3 3.1 14 4.5 5 .4 10 .6 14.8 1.4" class="b"/><path d="M13.2 165.7q5.8 0 11.5-.2c3-.3 6-.9 9-.9q5.6.1 10.8 2c5.6 1.7 11.2 5.7 17.3 4.2q3.3-.8 6.6-1.4 3.7-.3 7.4-1c3.2-.7 6-2.4 9-3.6q2.5-.7 5-.6 2.1-.2 4.1-.8l7.5-2.2c2.6-1 5.4-2 8.2-2.2q3.4-.1 6.6.9 3.4.5 6.6 2 2.4 1.3 5 2.4c1.1.7 2.6 1.2 4 .7 1.8-.5 3.4-1.7 5-2.6 3.1-2 7-2.7 10.7-2.1 5.1.5 9.9 2.7 14.8 4 2.1.6 4.5.5 6.6 1q5 .7 9.9 1.8" class="b"/><path d="M13.2 164.5q3.7-.2 7.4-.5c1.9-.2 3.9 0 5.8-.3q7.5-1.5 14.8.2 4.6 1.2 9 3.2c3.2 1.3 6.6 2.7 10 2 3-.6 6-1.8 9-2 3.3-.5 6.8-.4 10-1.6 2.4-.8 4.8-2.2 7.3-2.8 2-.4 4-.1 5.8-.8l9-2.7q3.3-1.4 6.7-2.3 3.2-.7 6.5-.3 3 .1 5.8 1c3.2 1 6.1 2.8 9 4.2 2.2 1.4 2.8 1.3 5 0 2.3-1.5 4.7-3 7.4-3.4 6.3-.5 12.3 2 18.2 3.6 2.6 1 5.5 1 8.2 1.6 3.6.7 7.2 1.9 10.7 2.7" class="b"/><path d="M13.2 163c4.6-.5 9.3-1.4 14-1a37 37 0 0 1 20.6 2.2c2.7 1.1 5.4 2.5 8.2 3.1 4.4 1 8.3-1.8 12.4-2.4 2.7-.5 5.5-.3 8.2-.8a37 37 0 0 0 7.5-2.4q1.6-.7 3.3-1 1.6 0 3.3-.3 5.3-1.4 10.7-3.3c3.4-1.5 7-3 10.7-3.1 2.4-.2 5-.7 7.4-.2 5 1 9.6 3.7 14 6.2.9 0 1.8-.8 2.5-1.2q1.9-1.3 4.1-1.8c5.6-1 11.1 1.2 16.5 2.6l5 1.4q2.8.3 5.7 1c3.9.9 7.6 2.5 11.5 3.1" class="b"/><path d="M13.2 161.3q3.7-.7 7.4-1.3 4.1-.3 8.2.1l4.2-.2a43 43 0 0 1 14 2.3c3 1.1 5.9 2.7 9 3.4 4.4 1 8.3-2 12.4-2.8 2.7-.6 5.5-.5 8.2-.8q4.8-.8 9.1-2.9c1.5-.6 3.4-.2 5-.6q7.2-1.8 14-4.8 3.1-1.3 6.5-1.9 3.3-1 6.6-1c6.7 0 13.2 2.7 19 5.8.8 0 1.7-.6 2.4-.8q1.6-.4 3.4-.4c4.7.2 9.3 1.7 14 2.8l4.9 1.1q2.5.3 5 1c4 1 8 2.8 12.3 2.9" class="b"/><path d="M13.2 159.4c6-1.9 10.2-2 16.5-1.2 1.3.3 2.8 0 4 0q2.6 0 5 .3 4.7.4 9 2.3c5.4 2.3 10.1 4.8 15.7 1.8q3.6-1.8 7.5-2.4c2.4-.3 5-.1 7.4-.6 2.6-.4 5-1.5 7.4-2.5q1.2-.4 2.5-.2 1.6-.1 3.3-.5 5.9-1.5 11.5-4 3.2-1.3 6.6-2 3.7-1.3 7.4-1.3c5.8.1 11.7.3 17.3 1.9q5.2 1.4 10 3.8 2 .2 4 .7c5.8 1.1 11.6 1.8 17.3 3 2.5.5 5 1.6 7.5 2.1q2.8.6 5.7.3" class="b"/><path d="M13.2 157.4c6.2-2.5 10.9-1.8 17.3-1q2.9.3 5.8.3 3.7.2 7.4 1c2.8.8 5.5 2.2 8.2 3.3 3.4 1.2 7.4 1.9 10.7 0 9-4.8 11-1.8 19-4.3 1.7-.4 3.1-1.8 5-1.9q1.6.1 3.2 0 4.6-.9 9-2.5c4.4-1.5 8.7-3.4 13.3-4q3.2-.3 6.6.3c5.1.8 10.4.2 15.6.4q5.5.2 10.7 2c3.2 1.2 6 3 9 4.4q4.6 0 9.1.9c3.4.5 6.6 2 10 2.6q2.8.3 5.7-.3" class="b"/><path d="M13.2 155.1c5.7-2.4 10.6-1.5 16.5-.7 4 .7 8.3.4 12.3 1.5 3 .5 5.6 2.1 8.3 3.3a17 17 0 0 0 9.9 1c2.6-.8 4.8-2.5 7.4-3.4 3.4-1.3 7.2-.8 10.7-1.3q2.1-.2 4.1-1.2c1.2-.7 2.7-1.6 4.1-1.5q2 .5 4.2 0 6.3-1.4 12.3-3.5a23 23 0 0 1 12.4-1.8c1.6.3 3.3 1 5 1.2 5.7.6 11.5-.2 17.2-.5q6.4-.1 12.4 2 3.8 1.4 7.4 3.5 1.7.3 3.3.3l4.1.8c6 1.6 7.4 3.4 14 1.5" class="b"/><path d="M13.2 152.8c5.1-2.3 10.4-1.2 15.7-.3 3.8.7 7.7.6 11.5 1.4 6.5 1.8 9.8 5.6 17.3 4.8 4.3 0 7.4-3.6 11.5-4.4 4.6-1.1 10 .2 14-2.8 1.8-1.1 3-.7 5-.4q2.4.2 5-.5c6-1.2 11.8-4 18-4.3q3.9 0 7.5 1.5 2 .5 4 .6c5.6.4 11-.9 16.6-1.1q6.7-.5 13.1 1.5 3.8 1.3 7.5 3.3 3 .1 5.7 1c3 1 6 2.2 9.1 2.2q2.1-.5 4.1-1.1" class="b"/><path d="M13.2 150.3c4.8-1.9 10-.8 14.8.2 3.5.7 7.2.7 10.7 1.5 6 1.7 9.7 5.7 16.5 5q2.5-.1 5-.5c2.8-1 5.3-3 8.2-4 2.6-.7 5.5-.7 8.2-1q2.7 0 5-1.4c4.9-3 4.9.1 9.9-.8 5.3-.6 10.4-2.6 15.6-3.6q4.1-.8 8.3 0c2.1.6 4.3 1.6 6.5 1.7 5.6.6 11-.9 16.5-1.3a43 43 0 0 1 19.8 2.8q1.6.9 3.3 1.5c2.5.3 5 1.3 7.4 1.8 3.2.3 6.7.9 10 .1" class="b"/><path d="M13.2 148c4.6-1.5 9.4-.4 14 .5 3.5.8 7.2.7 10.7 1.6 6.3 2.3 8.9 6.2 16.5 5q3.7-.4 7.4-1.1c2.4-1.2 4.8-2.8 7.4-3.5 3.3-.8 6.7-.8 10-1.4q1.5-1.2 3.2-1.9c2.8-1 5.5.9 8.3.7 5.3-.2 10.4-2 15.6-3 10.4-2 11.4 2 19.8 1.6 3.6-.2 7.2-1 10.7-1.5a48 48 0 0 1 21.4 2c2 .7 3.8 1.8 5.8 2q3.7 1.2 7.4.8l7.5-.3" class="b"/><path d="M13.2 146c3-.8 6-.4 9 0 3-.2 6.1.5 9.1 1 2.2.5 4.5.6 6.6 1.4 6 2.9 8 6.2 15.7 4.7l5.7-1.1q2.2-.3 4.2-.7 2.7-1.6 5.7-2.6c3-.8 6-1 9-1.7a10 10 0 0 1 3.4-1.7c1.3-.3 2.8.2 4.1.5q1.2.3 2.5.2l2.4.4c4.2.1 8.4-.8 12.4-1.8 16.2-4 14.5 1.7 25.5.5 7.4-1.2 14.8-2.6 22.3-1.5a41 41 0 0 1 11.5 3.2l3.3.7c2 .4 4-.1 5.8-.4q3.7-.5 7.4 0" class="b"/><path d="M13.2 144.3h4.1q2.3-1.2 5-1.1c2.7 0 5.5.9 8.2 1.5q3.3.6 6.6 1.4c4 1.7 6.7 5.6 11.5 5.4 3.7 0 7.1-1.6 10.7-2 2-.4 4-.4 5.8-.8q2.3-1.2 5-2 3.6-.9 7.4-1.6c3-2.4 4.2-1.6 7.4-.4 1.3.4 2.8 0 4.1 0q4.6.8 9 0c7.3-1.5 13.2-3.7 20.7-1.9 5.9 1.8 9.7 1.4 15.6.2a67 67 0 0 1 14.8-1q4.6 0 9.1 1.3c2.5.8 4.8 2.2 7.4 2.3 1.7.3 3.4-.3 5-.8q4.2-1 8.2.8" class="b"/><path d="M13.2 143.4c1.7-.8 3-2.3 5-2.7 2-.7 4.4-.3 6.5.2q3 .6 5.8 1.5c2.4.8 5 1.1 7.4 2 2.3 1.3 4.1 3.6 6.6 4.6 4.4 1.6 8.9-1 13.2-1.7q4.1-.7 8.2-1 1.7-.5 3.3-1.1l5-1.4c1-.3 2.4-.3 3.3-1.2 3.4-2.4 5.2 1.8 9 1.3 1.4 0 2.8-.9 4.1-.5q4.6.6 9.1-.3c4-.8 8.2-2.2 12.4-2q3.7 0 7.4.8 3.7 1 7.4 1c3.3-.1 6.6-.9 9.9-1.4a77 77 0 0 1 11.5-1q4.2 0 8.3.7 3.4.8 6.6 2.2 2.4.7 4.9.2c4.3-2 6.7-1.7 10.7.9" class="b"/><path d="M13.2 140.2c5.9-5.7 11.8-1.6 18.1.5 2.4.9 5.2 1 7.4 2.1 2 1.4 3.5 3.5 5.8 4.3 2.4.8 5 .1 7.4-.6a44 44 0 0 1 6.6-1.6q4.5-.6 9-1 4.2-1.4 8.3-2.4c1-.7 2.1-1.5 3.3-1.3 1.6.3 2.7 1.7 4.1 2.4a7 7 0 0 0 5 0q1.2-.6 2.5-1 4.1 1 8.2.2c3.5-.5 7-1.9 10.7-1.7q4.5-.2 9 .2c2.5.4 5 1.1 7.5 1.2 4.1.3 8.3-.8 12.3-1.3a43 43 0 0 1 24 1.2c2 1 4.5 1 6.5.2 4-2.2 6.5-1 10 1.5" class="b"/><path d="M13.2 135.2c4.1-2.8 8.4-.6 12.4 1.3 3.3 1.7 6.9 3.2 10.7 3.4 5.4 1 5.4 6.2 11.5 5.4 3.9-.7 7.6-2.3 11.5-2.6 3.6-.6 7.4-.2 10.8-1.4 2.1-.8 4.7-1 6.5-2.5 2.7-1.3 4.4 2.1 6.6 2.9 3.1 1.2 5.6-.5 8.3-1.8l3.3.4c3.9.5 7.7-1.2 11.5-1.3 4.4.1 8.8-.5 13.2-.1a53 53 0 0 1 8.2 1.5c3.6 0 7.2-.8 10.7-1.3A69 69 0 0 1 155 138q4 0 7.4 1.7 2.3 1.3 5 .8c1.4-.1 2.8-.9 4.1-1.5 2.7-1 5.3.9 7.4 2.3" class="b"/><path d="M13.2 131c4.8-1.4 12 3.5 16.5 5.5q2.3 1.1 5 1.5 1.6 0 3.2.5l2.5 1.1 1.6 1.7c3 3.2 7.1 1.7 10.7.7 5.1-1.4 10.5-1.4 15.7-2l5.8-1.8q1.1-.7 2.4-1.3c3.3-.5 4.5 4.1 8.3 4 3 .3 5.4-2 8.2-2.9q2.4.3 5 .2c1.6-.1 3.3-.6 4.9-.5 5.5.5 11-.5 16.5-.5 2.2.2 4.4 1 6.6 1.6q2.3.4 5 .2c8.7-.8 17.4-3.4 26.3-2.5q3 .3 5.7 1.5c2 1.2 4.5 1.2 6.6.3q1.6-.7 3.3-1.2c2.1-.3 4 1 5.8 2" class="b"/><path d="M13.2 128.2c2.8 0 5.6 1.2 8.2 2 3.8 1.3 7.2 3.4 10.7 5.2q2.4 1 5 .9l2.4.9c1.4.3 2.4 1.5 3.3 2.4 3.6 3.2 8.4.4 12.4 0 4.6-.6 9.4-.7 14-1.7l5-1.6q1-.8 2.4-1.2c3.6.5 4.6 4.8 9 4.4 2.5-.1 4.5-1.7 6.7-2.4 3.2-1 6.6-.6 9.9-.4q4.9.2 9.9-.4c2.4-.2 5-.7 7.4-.6q3.4.3 6.6 1.5 2.8.7 5.7.5 8-.9 15.7-2.5c2.1-.3 4.4-.1 6.6-.3q3.7-.1 7.4.6l3.3 1.2 3.3.6c4.9-.7 5-3 10.7-.6" class="b"/><path d="M13.2 126.4a62 62 0 0 1 16.5 5.1c2 1.2 4.1 2.9 6.6 3h1.6l2.5 1 1.6.7c.5.5 1.2 1.3 1.7 1.6 2.9 2.3 6.6.7 9.9.3 5.2-.6 10.5-.7 15.6-2 2-.7 4.1-1 5.8-2.2 3.2-1.6 5.5 2.2 8.2 3.2 3.4 1.3 6-.5 9.1-1.4q3.7-.5 7.4-.2 5.7.3 11.6-.4c3.2-.3 6.6-1.3 9.8-.8 3.4.2 6.5 2 10 2 4 0 8.2-.8 12.3-1.6 2.4-.4 5-1.4 7.4-1.1 3 0 6-.4 9 0 1.7 0 3.4.7 5 1.1l5.8.7 1.6-.6q3.3-1 6.6 0" class="b"/><path d="M13.2 125.2c5.3.9 10.6 1.8 15.7 3.7 2.5.9 4.8 2.7 7.4 3.7q1.6.3 3.3.4 1.6.7 3.3 1.3c2.6 3 5.5 2.8 9 2.3 5.5-.6 11.2-.7 16.5-2.2q2.5-.5 5-1.4c1.4-1 3.2-1.7 4.9-1 4.3 1.8 6.4 4.4 11.5 2.7 2.1-.8 4.4-.6 6.6-.5l6.6.3c5 0 10-.9 14.8-1.7a19 19 0 0 1 10.7 1.3q3.3 1 6.6.5c4.8-.3 9.4-1.6 14-2.5h6.6q3.7-.4 7.5.4c1.8.5 3.8.4 5.7.6q2 .2 4.1.2 3-.7 5.8-.3" class="b"/><path d="M13.2 124.1q5 .5 9.9 1.7 3.7.7 7.4 1.7c3.4 1 6.2 3.9 9.9 3.6 7.2 2.1 3.3 4.3 13.2 3.5q4.1-.1 8.2-.7t8.3-1.7q2.2-.4 4-1.5c2.8-1.5 5.7-.8 8.3.7q2.7 1.3 5.8 1.3c1.3 0 2.8-.5 4.1-.4q5.8.9 11.5.9 6.3-.1 12.4-1.5l5.8-.9a8 8 0 0 1 3.3.2c2.2.4 4.3 1.5 6.6 1.9 6.1.8 12-1.4 18-2.3 3.4.3 6.7 0 10 0 2.4 0 5 .4 7.4.4l11.5.5" class="b"/><path d="M13.2 123c3.9.2 7.7 1.3 11.5 2 4 .6 8 1 11.6 3q2 1 4 1.4 1.8-.2 3.4.6c1.2.2 2.2 1.3 3.3 1.8 2.5 1.2 5.5.8 8.2.8a51 51 0 0 0 19-3.7c3-1.1 5.7 1.2 8.2 2.4 2.2 1.3 4.7.6 6.6-1 1.3-.5 2.8-.2 4.1 0 5.3 1.7 11 1.8 16.5 1.2 5-.6 9.9-2 14.8-2.4 2.9-.5 5.6 1.2 8.3 1.8 4.4 1 8.9-.3 13.2-1l5-.7q3.1.3 6.5 0h11.5l5.8.5q2 .3 4.1.4" class="b"/><path d="M13.2 121.9c4.2 0 8.2 1.5 12.4 2.2 4 .6 8.4.6 12.3 2.3q2 .8 4.1 1.2 2.2.2 4.1.8c3.5 2.8 8.3 2.2 12.4 2.1q5.4-.4 10.7-1.8c2.2-.4 4.4-2 6.6-1.2 3.8 1.4 7.3 6.1 11.6 3.2l2.4-2c.3-.4 1.2-1 1.7-1.1 2 .4 3.8 1.5 5.7 2 7.1 1.7 14.5.3 21.5-1.2l5.7-.8c1.6-.2 3.4-.6 5 0 1.9.4 3.8 1.3 5.7 1.5 4.4.5 8.9-.5 13.2-1 3-.6 6 0 9-.2q4.2-.2 8.3-.5 6.7 0 13.2 1.2" class="b"/><path d="M13.2 120.7c4.5-.2 8.8 1.6 13.2 2.4 2.7.5 5.5.4 8.2.8q3.3.6 6.6 1.5 2.9.6 5.8.9c1.3.5 2.6 1.5 4 1.7a39 39 0 0 0 17.4-1c4-1 5.5-2.1 9 .8 2.4 1.6 5.2 4.1 8.3 3 2.7-.9 4.4-3.4 6.6-5.2q1.3.2 2.5 1L98 128c6.7 1.9 13.8.2 20.6-1.1q3.7-.7 7.4-1c1.6-.3 3.3-.6 5 0q2.7.6 5.7 1.3c4 .3 8.3-.3 12.3-.6q3-.4 5.8 0 2.5 0 5-.4 9.4-1.3 18.9.5" class="b"/><path d="M13.2 119.4q3.8 0 7.4.9 3.3 1 6.6 1.7c2.7.5 5.5.4 8.2.7q3.8.3 7.5 1.1 3.2.5 6.6.8a15 15 0 0 0 4 1.4q7.6 1.3 14.9-.9c3.3-1 5.4-1.2 8.2 1.2 4.2 3 7.7 5.8 12.4 1.6 1.6-1.4 3-3.3 5-4.3 1.8 1 3.6 2.4 5.7 3 6.7 1.8 13.2 0 19.8-1.3q3.7-.7 7.4-1c1.6-.1 3.3-.5 5-.1 3 .5 6 1.5 9 1.4q7.8.1 15.7-.5 4.5-.8 9-1.2 6.7-.1 13.2.8" class="b"/><path d="M13.2 118.3q2.9-.2 5.8.1c2.8.5 5.4 1.9 8.2 2.4 4.3.7 8.8.4 13.2 1q5.3.7 10.7 1c5 1.4 10.5 2.3 15.7 1 4.1-1.3 6.1-1.8 9.8 1 4.6 3.2 8.3 5.7 13.2 1.3 1.8-1.6 3.6-3.4 5.8-4.3q2 1.5 4.1 2.6 2.8 1 5.8 1.2c4.7.4 9.3-1.3 14-2q4.1-.7 8.2-1c2-.1 4-.4 5.8 0q3.7.8 7.4 1.2t7.4 0c3.6 0 7.2 0 10.7-.8 6.5-1.5 13.2-1.1 19.8-.6" class="b"/><path d="M13.2 117q2.9-.2 5.8 0c3.6.6 7 2.6 10.7 2.9l9 .3 14 1c3 .2 6 1.3 9.1 1.3q3.4.3 6.6-.7c2.8-1.1 4.7-1 7.4.6 5 3 9.3 6.5 14.8 2.2q3-2.5 6.6-4.2 1.6 1 3.3 2a21 21 0 0 0 6.6 1.5c4.5.1 8.8-1.6 13.2-2.2q6.5-1 13.2-.9c3.3.3 6.5 1.5 9.9 1.4l8.2-.3q3 .1 5.8-.4 4.5-1 9-1.4 6.2-.2 12.4 0" class="b"/><path d="M13.2 115.8q2.9-.2 5.8-.2c3.9.5 7.5 2.6 11.5 2.9 5.5.4 11 .4 16.5.8 4 .2 8.3 0 12.3 1 2.7.6 5.6 1 8.3.4q2.4-.6 5-1.4c1.7 0 3.4 1 4.9 1.8 3.8 1.8 8 5 12.3 3q4.7-2.2 9-5l2.5 1.4q2 .8 4.2 1.4c2.7.8 5.5.2 8.2-.5q3.3-.8 6.6-1.4 6.5-1.2 13.2-1c3 .2 6 1.3 9 1.2l9.1-.3c1.9-.1 4 .2 5.8-.2q4.8-1 9.9-1.5 5.8-.3 11.5-.5" class="b"/><path d="M13.2 114.4c2.4-.2 5-.6 7.4-.1 3.6.7 7 2.4 10.7 2.7q8.3.7 16.5 1c4.1 0 8.3 0 12.4.8q6.8 2.2 13.1-1c1.7-.7 3.5.8 5 1.3 2.5 1 4.9 2.4 7.4 3.3 5.2 1.7 10.2-2 14.8-4 7.6 5.1 11.3 1 19-.1q7-1.2 14-1c3 0 6 1 9 1l9.1-.3q3 .1 5.8 0 4.9-1.1 9.9-1.7 5.8-.3 11.5-.8" class="b"/><path d="M13.2 113.1q4.1-.8 8.2-.3c3 .5 6 1.7 9 2.3 6.6 1 13.3 1.3 19.9 1.7 3.8.2 7.8.2 11.5 1q7.4 2.3 14-1.5c1.7.2 3.4.9 5 1.3l5.7 2.6a16 16 0 0 0 10 .4c1.9-.5 3.8-1.6 5.7-2.3 3.9 2.5 7.7.9 11.5-.6q3.7-1.3 7.4-1.6 5-.6 10-.7 2.8-.3 5.7.1 6.1 1 12.4.7c2.6-.1 5.6.3 8.2 0q5-1.2 9.9-1.9 5.8-.5 11.5-.9" class="b"/><path d="M13.2 112.1c6.3-2.2 12-.4 18.1 1.2 5.4 1.2 11 1.6 16.5 2.2q5 .3 9.9.8c1.6.2 3.4.1 5 .6 6 2 10 .8 15.6-1.5q3.8 1 7.4 2.8c2.6 1.3 5.3 2.6 8.2 2.3q3-.3 5.8-1.2l2.5-1q.7-.5 1.6-.2c4.2 1 7.7-2.1 11.6-3 3-.8 6-.8 9-1 3-.3 6-1 9.1-1 2.8 0 5.5.8 8.2 1q7 .4 14 .4 5.4-1 10.8-2 6-.8 12.3-1" class="b"/><path d="M13.2 111.1q2.4-.8 5-1.4 3.2-.2 6.5 0c5 1 9.8 2.7 14.9 3.3a285 285 0 0 0 20.5 2.5c2 0 3.9 1 5.8 1.2q4.6 1 9-.1c2.3-.4 4.4-1.5 6.7-1.7 3.9 1.2 7.3 4.4 11.5 4.5q5.6-.2 10.7-2.3a14 14 0 0 0 5-1.3c2.8-1.5 5.8-2.9 9-3q3.8-.2 7.4-.6l5-1.1c3.3-.8 6.6.1 9.9.7q4.9.8 9.9 1c4.7.5 9.4-.7 14-1.5a69 69 0 0 1 14.8-1.1" class="b"/><path d="M13.2 110q2.8-1 5.8-1.7h8.2c4.4.9 8.7 2.4 13.2 3.1q10.2 2 20.6 2.9c1.4 0 2.8.8 4.1 1q3.2.8 6.6.9 5.8-.2 11.5-1.4 1.3-.4 2.5.3l3.3 1.7c5 2.5 10.7 0 15.7-1.3 2.9-.7 5.4-2.7 8.2-3.6 3.2-1.2 6.7-.6 9.9-1.3q3-.5 5.8-1.4c4-1.4 8.3-.2 12.3.7q7 1.6 14 1c8-.6 16-3 24-2" class="b"/><path d="M13.2 109c1.9-.7 3.8-1.7 5.8-2 3.5-.3 7.1 0 10.7-.2 4 1 8.1 2.5 12.3 3.2 6.6 1.2 13.2 2.4 19.8 2.8 5 1.9 10.4 2.2 15.7 2q5 .1 9.9-.6c1.8.9 3.7 1.9 5.7 1.9 4.3 0 8.3-2 12.4-3 1.4-.3 2.8-1.4 4.1-2q3-1.5 6.6-1.6c1.4 0 2.8-.6 4.1-.8l4.1-.4c3.7-1.5 7.7-2.5 11.6-1.6q4.5 1 9 2 5.8.8 11.6.5c4.7-.4 9.3-1.4 14-1.7q4.2-.6 8.2.2" class="b"/><path d="M13.2 108.3q2.3-1.6 5-2.5c3.7-.5 7.6-.3 11.5-.4 2.2-.4 4.4.7 6.6 1.3q3.6 1.2 7.4 1.7c5.7 1 11.5 2.2 17.3 2.6 1.3.2 2.8.8 4.1 1q2.9.6 5.8.8 8.6.7 17.3.8c1.3-.2 2.7.3 4 .5 3 .2 5.7-1 8.3-2q3.2-1.3 6.6-2.2 2.7-1.5 5.8-2 5.1-2.2 10.7-1.6c3.6-1.3 7.6-2.8 11.5-2 6.6 1.5 13 3.4 19.8 3.4 5.3 0 10.4-1.3 15.7-1.7q4.2-.6 8.2.4" class="b"/><path d="M13.2 107.3c1.6-.9 3.1-2.3 5-2.8q4.5-.5 9-.5c1.9 0 3.9-.5 5.8-.2q4.8 1.6 9.8 2.5c6 1 12 2.3 18.2 2.7q5.1 1.6 10.7 1.8 6.2.3 12.3.9c3.6.4 7.2.7 10.8.1 2-.4 3.9-1.5 5.7-2.4q3.7-1.7 7.4-2.8 3.3-1.3 6.6-2.4 2.5-.8 5-.5c1.3 0 2.8.8 4.1.5q3-1 5.8-2c1.8-.7 3.9-.3 5.7.2 6.9 1.5 13.6 3.6 20.6 4 5 0 10-1.4 14.9-1.8q2-.3 4-.4 2.3.1 4.2.8" class="b"/><path d="M13.2 106a14 14 0 0 0 4.1-2.5q1.6-.5 3.3-.6 2.4-.1 5-.4l7.4-.5q3.6 1.2 7.4 2l5.8.7q4.1.7 8.2 1.3 3.3.6 6.6.7 1.6.7 3.3 1c4.8 1.1 9.9.8 14.8 1q3.8.3 7.4.7 4.6.3 9.1-.4c2.1-.3 3.9-1.9 5.8-2.8q3-1.6 6.6-2.7c6-2.3 8.5-3.4 14.8-1l3.3-1.1c1.4-1.1 3.2-1.9 5-1.6 1.9.2 3.8 1 5.7 1.4l9.9 2.1c4 1 8.1 2.3 12.4 1.8q5.7-1 11.5-1.9 2-.4 4.1-.5t4.1.6" class="b"/><path d="M13.2 104.4c1.9-.2 3.3-1.6 5-2.4 2-.6 4.4-.5 6.5-1q4-.4 8.3-.7 3.6 1 7.4 1.8 2.9.3 5.8.5 4.1.4 8.2 1 3.2.5 6.6.8 2 .8 4.1 1.2c4.6 1 9.4.6 14 .6q3.3.1 6.6.4 3.8 0 7.4-.6 4.9-.6 9-2.9 3.3-1.5 6.7-2.5c4.4-1.6 8.9-2.6 13.2 0q1.2-.2 2.4-.6c2.2-1.6 3.9-2.7 6.6-1.8q2.8 1 5.8 1.8c3.8.6 7.8 1 11.5 2.1 4 1.6 8.2 2.6 12.4 1.7q5.3-1.2 10.7-2.2 2-.6 4.1-.7 1.7.2 3.3.5" class="b"/><path d="M13.2 102.7q1.7-.1 3.3-1t3.3-1.5q6.1-.9 12.3-1.6c4.1.8 8.2 2.1 12.4 1.8 5.2 0 10.4 1 15.7 1.3a35 35 0 0 0 16.5 2.1l5.7-.2q2 .2 4.1.1 5-.5 10-1.8 3.1-1 6.5-1.7 2.4-1 5-1.6 4-1.2 8.2-1.5 2.7.1 5 1.6 1.2.2 2.4-.3 1.2-1 2.5-1.8c2.5-1.1 5 .5 7.4 1.3 2.3 1 5 1 7.4 1.2 3.1.3 6.3.8 9 2.3 5.6 2.7 10.1 2 15.7.2 2.5-.6 5-1.6 7.5-2q2.8-1 5.7-.1" class="b"/><path d="M13.2 100.8q1.7 0 3.3-.7l4.1-1.5 9-1.5q2.2-.4 4.2.1 2.9.7 5.8 1.1c2.4.4 5 0 7.4 0q6 .2 12.3.8c1.2-.1 2.3.6 3.3 1q2.4.8 5 1.2c4.3.8 8.8.2 13.2-.2 2.7-.2 5.5.2 8.2-.4l10.7-2.3 4.1-.7 3.3-.8q4.5-.8 9-1.4c1.9-.2 3.5 1 5 1.5l1.7-.3 1.6-1.2c2.6-1.8 5.7 0 8.3 1 4.2 1.4 8.8.6 13.2 1.7 1.7.4 3.3 1.6 4.9 2.4a14 14 0 0 0 11.5 1q5-1.6 10-3.4c2-.6 4.3-1.5 6.5-1" class="b"/><path d="M13.2 99c2.8 0 5.6-1.3 8.2-2.1l8.3-1.6c1.3-.4 2.8 0 4 .2q3 .7 5.9 1c2.4.3 5-.1 7.4-.3q5.8 0 11.5.4c1.5-.1 2.8.6 4.1 1q2.5.8 5 1.4c3.5.8 7.2.3 10.7 0q2.4-.3 5-.4h4c3.4-.4 6.6-1.4 10-1.9l10.6-1.6q3-.2 5.8-.7 3.5-.9 6.6.9c1.1-.2 2.5-.3 3.3-1.1 2.6-1.8 5.6-.1 8.2.6 4.3 1.3 8.9.7 13.2 1.6 1.8.4 3.4 1.6 5 2.5 2.8 2 6.4 3.3 9.9 2.5 4-1 7.7-2.7 11.5-4.2 2.4-.8 4.8-2.3 7.4-2.1" class="b"/><path d="M13.2 97q1.7-.1 3.3-.5l5-1.3q4.5-1.1 9-1.9 5 .7 9.9 1.3c2.2.3 4.4-.2 6.6-.4q4.1-.2 8.2.2 2.5 0 5 .4 2.3 1.1 4.9 1.8c4.9 1.3 10-.2 14.8-.6 3-.4 6 .3 9 0q4.2-.6 8.3-1.3l8.3-.9 5.7-.5q2.4-.4 5-.7 1.7 0 3.3.7c1.3-.2 3 0 4-.8 2.2-1 4.6-.1 6.7.4q3.2.7 6.6 1c8.1.4 8 .3 14.8 5 4.5 3.2 8.5 1.9 13.2-.2l7.4-3.2q3-1.7 6.6-2.3" class="b"/><path d="M13.2 95q8.2-1.7 16.5-3.4c3.3 0 6.6.6 9.9 1 3.5.6 7.1-.6 10.7-.3q4.5.8 9 .8c1.1.1 2.3.7 3.3 1q2 .6 4.2.7c5.8.3 11.4-2 17.3-1.6q2.4.2 4.9.5l4.1-.3q8.2-1.1 16.5-1.5c2.2 0 4.4-.6 6.6-.7q1.6.2 3.3.2l3.3-.2q1.2-.3 2.5-.4c2.1 0 4.4.6 6.5.8l8.3.7 3.3.5a31 31 0 0 1 6.6 4c5.3 4.5 8.8 3.8 14.8 1 4.6-2 9.2-4.4 14-6" class="b"/><path d="M13.2 92.5q4.5-.6 9-1.5l6.6-1.3q3 0 5.8.2c2.7.3 5.5.9 8.2.9 2 0 4-.4 5.8-.3q2.5.2 5 .6 2.8.2 5.7.3 1.3 0 2.5.4 2 .6 4.1.7c6.1.5 12-2 18.1-1.7 3.6 0 7.2.8 10.8.3q8.6-1 17.3-1 4.9-.4 9.8-.5h4.2q2.4.1 5 .4c3.4.4 7.1.3 10.6 1 3.6 1.7 6.3 4.8 10 6.3 1.9 1.3 4.1 2.3 6.5 2 3.2-.4 6.1-2 9-3.3q6-2.3 11.6-5.1" class="b"/><path d="M13.2 90c2.7-.4 5.6-.4 8.2-1 3.8-.7 7.7-1.8 11.6-1.2 3 .3 6 .9 9 1h7.5c2.4 0 4.9.6 7.4.5l4 .1q2.2.5 4.2.7c6.1.8 12-1.3 18.1-1.6 3.3-.2 6.6.4 10 .4 5.1-.4 10.4-.9 15.6-.6 7.7.3 15.4-.5 23 .4 3 .3 6.4 0 9.1 1.5 3 1.6 5.4 4.3 8.3 6q2.2 1.5 4.9 1.9 2.4.7 5 .4c2.5-.5 5-1.8 7.4-2.7q6.4-2.2 12.3-5.4" class="b"/><path d="M13.2 87.7c5-.2 9.9-1.6 14.8-2 3 0 6 .8 9 1.1 3.6.7 7.2.4 10.8.2q7 0 14 .5 5.3.7 10.7.3 5.3-.6 10.7-1.4c3.3-.4 6.6 0 10 0q5.6-.2 11.4-.2c5.5.1 11 .8 16.5.8q4.6 0 9 .2 4.4 0 8.3 1.7c4.7 2.3 8.2 6.7 13.2 8.4q3.7 1 7.4.4 3-.8 5.8-2a136 136 0 0 0 14-5.7" class="b"/><path d="M13.2 85.4c4.4-.2 8.8-1.2 13.2-1.3 5.4.7 11 2 16.5 1.9q9-.6 18-.2 6.3 0 12.4-.3c3.5-.2 6.6-1.7 10-2.6 3.4-.8 7.1-.4 10.6.2 4.4 1 8.8 1 13.2 1.2q5 .3 10 1c5.4.7 11 0 16.4 1.9 4.7 1 8.5 4.2 12.4 6.9 5.5 4 11.2 4 17.3 1.2 5.2-1.8 10.3-4.1 15.6-6" class="b"/><path d="M13.2 83.4c3.6 0 7.2-.6 10.7-.8q7.5 1.1 14.8 1.7c4.4.5 8.8 0 13.2 0q5 0 9.9-.3 5-.6 9.9-1 1.6-.1 3.3-.4 2.9-1.2 5.8-2.6c3.5-1.5 7.7-1.7 11.5-1.1q6.5 1.6 13.2 2.5 6.2 1 12.3 2.2c4.7.7 9.5 1.3 14 2.8q2.6.7 5 1.7 4.2 2.6 8.2 5.3c4.8 3.1 9.4 4 14.9 2l7.4-2.9q5.5-2.7 11.5-4.3" class="b"/><path d="M13.2 81.6q4.1-.1 8.2-.5 4.5.8 9 1.1 6 .2 11.6.7c7.7 0 15.6.2 23.1-1.7l6.6-1.2c1.3-.1 3 0 4.1-1 3.8-2.7 8.5-4.4 13.2-4.3 3.6.2 7.2 1.5 10.7 2.3q9 2.4 18.1 4.7a86 86 0 0 1 17.3 5.1q3.5 2 6.6 4.3c9.7 6.1 14 4.9 24 .5 2-1 4.2-2.5 6.5-3.3q3.2-1.1 6.6-1.6" class="b"/><path d="m13.2 79.8 5.8-.2c4 .5 8.2 1.2 12.3 1.2q5.8 0 11.6.5c6.6.2 13.4.2 19.7-1.8q5.7-1.9 11.6-2.6c1.5-1.1 3.2-2.5 5-3.3a26 26 0 0 1 6.5-2c4.2-.4 8.4 1 12.4 2q9.4 2.7 19 5.8 3.2.8 6.5 1.8 3.8 1.3 7.4 2.9c3.5 1 6.2 3.4 9 5.4 5 3.5 11.5 5.5 17.4 3.5q2.6-.6 5-2 1.7-.5 3.2-1.4c4.9-3.1 7.3-4.2 13.2-4.7" class="b"/><path d="M13.2 78.1c4.1-.4 8.2.7 12.4 1 3.8.5 7.7.1 11.5.1 8 .3 16.2 1.4 23.9-1.3q6-2.2 12.3-3.4c1.3-1 2.7-2.3 4.2-3q3-1.7 6.6-2.3c4.4-.3 8.8.8 13.1 1.7q10.5 2.7 20.6 6.5l5.8 1.7q3 1.2 5.8 2.6 2 1 4.1 2 2.6 1.7 5 3.6c5 4.1 11.8 5.9 18 4 2.4-.5 4.5-1.8 6.7-2.6 2.8-1.3 5.3-3.6 8.2-4.7q2-.7 4.1-.9c1-.1 2.3-.5 3.3-.4" class="b"/><path d="M13.2 76.4c4.4-.2 8.8 1.1 13.2 1.3 4 .4 8.2-.2 12.3-.3 7.5.2 15.1 1.3 22.3-1.3l6.6-2.3c1.5-.6 3.4-.8 5-1.5Q75 70 78.2 69q2.3-1 5-1.4a58 58 0 0 1 14 1.5l11.5 3q5.3 1.7 10.7 3.6 6 2 11.5 5c2.9 1 5.1 3.3 7.4 5.1a19 19 0 0 0 19 3c2-.6 3.8-1.7 5.8-2.4 2.4-1.3 4.7-3.2 7.4-4.3q2.4-1 5-1.2 1.5-.7 3.2-.7" class="b"/><path d="M13.2 74.6c5.2.5 10.4 1.6 15.7 1.6 4 .1 8.2-.7 12.3-.7 6.6 0 13.4 1.1 19.8-1.2l6.6-2.3c1.6-.6 3.6-.8 5-2q2.1-1.7 4.9-2.5 2.3-.8 4.9-1.4 7.6-.4 14.8 1.4 4.5 1.5 9 2.1 5 2.2 10 3.4 4.2 1 8.2 2.4l5 2.6c1.2.7 2.8 1.1 4 1.7 1.9 1.1 3.4 2.8 5 4.1 4.9 4.5 12.1 4.6 18.1 2.8q1.7-.6 3.3-1.4c1-.4 2.4-.8 3.3-1.4 2.5-1.3 4.8-3 7.5-4q2-.8 4-1 2.1-.8 4.2-1.1" class="b"/><path d="M13.2 73c5.5.5 11 1.6 16.5 1.6 4.1 0 8.2-1 12.3-1.1 6.3-.3 12.8 1.2 19-.9l9-3q2.1-1.2 4.2-2.3c2.7-.8 5.4-1.9 8.2-2.4 4.7-.8 9.5-.1 14 1.3q2.9 1 5.8 1.6 2 .3 4.1.7a42 42 0 0 0 9 3.6c3.3.8 6.7.7 10 1.7l3.3 2c2 1.2 4.5 1.7 6.5 2.8q1.8 1.4 3.3 2.9c2.9 2.8 6.9 4 10.8 3.8q4.6-.1 9-2l3.3-1.1q2.6-1.2 5-2.7a23 23 0 0 1 8.2-2.7c1.3-.3 2.8-1 4.1-1.1" class="b"/><path d="M13.2 71.4c5.8.3 11.5 1.5 17.3 1.5 3.9.1 7.7-1 11.5-1.4 6.3-1 12.8 1.2 19-.6q4.6-1.2 9-3.1c2.3-1.3 5-1.8 7.5-2.5 5.8-2.5 11.2-3 17.3-.8q3.6 1.4 7.4 2.3c1.6.5 3.4.3 5 .8q4.2 2.4 9 3.6c3.2.9 6.6.6 9.9 1 1.4.6 2.7 1.8 4 2.4q4.4 1.6 8.3 4.2c2 2 4.6 3.7 7.5 4q5.9.5 11.5-1.8 2-.6 4.1-1.2l5-2.4c3.8-2 8.2-2.4 12.3-3.4" class="b"/><path d="M13.2 69.7c8.5.3 17.1 2.9 25.5.6q2-.6 4.1-.8 2.5.5 5 .5 3.3 0 6.6-.4 3.2.2 6.6-.4 5.4-1.4 10.7-3.5c1.8-.6 4-.7 5.8-1.4 6.3-2.6 10.6-4 17.3-1 4 1.8 8.6 3.3 13.1 3.1a38 38 0 0 0 10 3.7c2.9.6 6 .5 9 .6 1.2 0 2.2 1.3 3.3 1.7q4.3 2.1 8.2 4.7c2.2 1 4.3 2.5 6.6 3 4.1.7 8.4-.3 12.4-1.4l3.3-.7c2.5-.8 4.9-2.2 7.4-3 3.4-1.3 7.1-1.8 10.7-2.4" class="b"/><path d="M13.2 68c5.2.2 10.4 1 15.7 1.4q2.8.2 5.7 0 3-.4 5.8-1.2c1-.5 2.2-.1 3.3.1q2.4.5 5 .5c4 0 8.2-1 12.3-1.4 3-.5 6-1.6 9-2.5 2.5-.6 5-.7 7.5-1.5 6.8-2.5 10-5 17.3-1.4 4.6 2 9.6 4 14.8 3.5 3.2 1.1 6.5 2.5 9.9 3q4.1.4 8.2.4c1.3 0 2.3 1 3.3 1.5 2.6 1.3 4.9 3.3 7.5 4.6 9.2 5 12.1 2.1 21.4 1.2 3.1-.6 6-2.4 9-3.3 3.2-1 6.6-1.4 10-2" class="b"/><path d="M13.2 66.2c3.4 0 6.5 1.4 9.9 1.8 4 .6 8.3 1 12.3.2 2-.4 3.9-1.4 5.8-2 5.4 1.8 11 1.1 16.5 0q5.8-.8 11.5-2.4 3.7-.6 7.4-1.1c2.6-.6 5-1.9 7.5-2.9 2.3-1 5-1.5 7.4-.6 3.3 1.2 6.5 2.8 9.9 3.9q3.1 1.2 6.6 1.7c1.6.2 3.3-.1 5-.1 4.7 1.6 9.7 2 14.7 2 1.1.1 2.5.1 3.3 1q2.3 1.2 4.2 2.7 4 3.3 9 4.6c3.5 1 7.2.3 10.7-.3 2.2-.5 4.5-.2 6.6-.8 2.8-.8 5.5-2.2 8.3-3s6-1 9-1.4" class="b"/><path d="M13.2 64.9a53 53 0 0 0 23 2.4c1.7-.4 3.4-1.3 5-1.7q4.1.4 8.2.2 5-.5 10-1.4 4.8-1 9.8-1.9c3-.4 6.2-.4 9-1.3 4-.8 7.4-4 11.6-4 2 .3 4 1.3 5.8 2q5.3 2.2 10.7 3.8 2.8 1 5.8 1.2 2.4 0 5-.6l9 .6q2.4.1 5 .7l2.4 1.4c2.4 1.7 4.6 4 7.4 5.1q4 1.8 8.2 1.7 3.4-.1 6.6-.7c2.2-.4 4.5 0 6.6-.6 2.8-.7 5.5-2.1 8.3-2.8q4-1 8.2-1.1" class="b"/><path d="M13.2 64.7q6.7 2.8 14 2.2 4.1.1 8.2-.4c2-.3 3.9-1.3 5.8-1.7l5.8-.4c6.9-.6 13.7-2 20.6-3C73 60.8 79 60.9 84 58c4.3-2.5 6-3 10.7-.8q5.2 2.2 10.7 3.7c6.2 2.1 9 3.3 15.6 1.6 1.7-.4 3.3-1.3 5-1 10.8.9 9.5 5.4 17.3 8.2 4.2 1.5 8.8.9 13.2.4 2.1-.3 4.4.1 6.6-.4 2.7-.7 5.4-2 8.2-2.7q3.7-1 7.4-.8" class="b"/><path d="M13.2 64.4a31 31 0 0 0 19 1.3q3.7-.3 7.4-1.7c5-1.3 10.4-1.7 15.6-2.4q7-1.2 14-1.8c5-.3 10.3-.4 14.9-2.5 1.6-.8 3.2-2 4.9-2.6 2-.7 4 .2 5.8 1q2.4 1 5 1.8l8.1 2.5c2.7.8 5.5 1.9 8.3 2.3 4.3.8 8.4-1 12.3-2.6 1.1-.3 2.3.3 3.3.5q2.6.8 5 2.2c2.5 2.1 5 4.4 8.2 5.3 3.8 1.2 7.8.6 11.6.2 2.4-.2 5 .2 7.4-.3s5-1.5 7.4-2.2q3.7-1 7.4-.8" class="b"/><path d="M13.2 64.1c10.5 3.8 16.3 1.5 26.4-1.6q7.2-2.3 14.8-2.7c5-.5 9.9-1.3 14.8-1.5 3.3-.1 6.7 0 10-.7 1.8-.2 4-.6 5.7-1.5 1.6-.8 3.2-2 5-2.7 1.5-.6 3.3 0 4.9.6q2.4 1.1 4.9 1.9c3 .9 6.1 1.4 9 2.4s6 2.1 9.1 2.8c4.7 1.1 8.3-.8 12.4-2.7 1.9-1 4 .2 5.8.9s3.4 2 4.9 3.2q1.9 1.5 4.1 2.5 3.6 1.4 7.4 1c2.2-.2 4.4-.7 6.6-.6q5 .5 10-.8a39 39 0 0 1 9.8-1.6" class="b"/><path d="M13.2 63.6c4 1.1 8.2 2 12.4 1.1 5-1 9.9-2.8 14.8-4.4 5.2-2.2 10.9-2.4 16.5-2.7 5.2-.4 10.4-1 15.6-.9q3.4.1 6.6-.4c3.2 0 6.5-1 9-2.8 1.5-1 3.2-2.1 5-1.6 2.8.8 5.4 2.2 8.3 2.8q3.3.7 6.5 1.5 3.8 1 7.5 2.4c3.4 1 7.1 2.1 10.7 1q2.5-1 5-2.3c1.8-1.3 3.7-1 5.7-.2 2.8.8 5 3 7.4 4.6q3.4 2.1 7.4 2c2 0 3.9-.6 5.8-.7 1.9-.2 3.9.2 5.8.2q7.9-.7 15.6-2.1" class="b"/><path d="M13.2 62.6c6 1.7 10.7 1 16.5-1.4 3.7-1.5 7.7-2.3 11.5-3.7 5.8-2 12-1.5 18.1-2l10-.3q4.9.1 9.8-.4a16 16 0 0 0 8.3-1.5c1.4-.7 2.7-2 4-2.6 2.9-1 5.6 1.3 8.3 2 3.5 1 7.3 1.2 10.7 2.4 5.6 1.7 11.4 4.4 17.3 3.1 2.4-.5 4.4-2.4 6.6-3.2 2.2-.7 4.6.3 6.6 1.2 2.7 1.6 5 4.1 8.2 4.8q2.5.5 5 .2c1.6-.3 3.3-.9 5-.9 2.4 0 4.9.7 7.4.3q2.9-.4 5.7-1.1 3.4-.4 6.6-1.4" class="b"/><path d="M13.2 61c7.2 1.7 11-.5 17.3-3.3 2.6-1.2 5.5-1.5 8.2-2 6.7-2 13.7-1.8 20.6-2q5-.1 10-.1c3 0 6 .2 9-.2 2.2 0 4.4.3 6.6-.3a15 15 0 0 0 5-2c1-1 2.5-2 4-2 2.6.4 5 2 7.5 2.5 3.5.8 7.2 1 10.7 2.3q5.1 2 10.7 2.7 3.7.7 7.4-.2c2.4-.6 4.2-2.5 6.6-3.1 5.4-1.2 9 4.5 14 5.4q2 .4 4.1 0c1.9-.4 3.8-1.1 5.8-1 2.2 0 4.4.4 6.6.1 3.9-.4 7.7-1.7 11.5-2.8" class="b"/><path d="M13.2 58.8c9.5 1.9 13.1-4.5 21.4-5.6q1.6 0 3.3-.3l1.7-.4q2.4-.4 4.9-.1 7.5-.6 14.8-.7 5 .3 10 .3c3 0 6 .3 9-.1 1.9-.1 3.9.4 5.8.1q3-.2 5.7-1.7c1.1-.5 2.2-1.5 3.3-2 1.6-.8 3.4 0 5 .6q2.8 1.2 5.7 1.7 5.6.5 10.7 2.4 4 1.1 8.3 1.5c4.4.5 9.2 1.2 13.2-1.4 2.2-1.3 5-1.7 7.4-1 1.7.7 3.3 1.9 5 2.7q1.4.8 3.2 1.3 1.7.7 3.3.4c2-.4 3.8-1.3 5.8-1.5 2.2-.3 4.4 0 6.6-.2 4-.3 7.7-1.7 11.5-2.8" class="b"/><path d="M13.2 56c6.6 1 10.7-2.3 16.5-4.5a17 17 0 0 1 5.7-1c.8 0 1.7-.6 2.5-.9a11 11 0 0 1 4.1-.5c2.2.2 4.4 1 6.6 1.1q1.6-.2 3.3-.5 2-.3 4.1-.3c4.1.2 8.3 1 12.4.9 3 .3 6 .7 9 .3 2-.6 4 0 5.8 0q3.5.2 6.6-1.2c2.2-.8 4-3.3 6.6-2.6 2 .5 3.8 1.5 5.8 2q3.2.6 6.6 1c2.4.5 4.9 1.4 7.4 1.8 2.7.3 5.5 0 8.2.4 8.1 1.4 8.7 1.6 16.5-1.1 3.4-1 4.5 0 7.4 1.5 6.5 3.7 6.9 1.4 13.2 0 2.7-.5 5.6-.5 8.2-1 3-.6 6-2 9.1-2.2" class="b"/><path d="M13.2 53.1c5.4.5 10-2 14.8-3.8q2.8-1 5.8-1c1.4-.4 2.7-1.4 4.1-1.6q3-.6 5.8 0c1.3.2 2.7 1.2 4.1 1 4-1.7 8.3-.6 12.4 0q3.7.5 7.4.9 3.2.8 6.6 1.2 2.8.2 5.7-.1 3 0 5.8-.5 2.6-.2 5-1.2 2-1 4-2.2c1.4-.6 3-.2 4.2.4a27 27 0 0 0 5 1.4q2.8.4 5.7 1 2.8.6 5.8.9c3 .2 6-.9 9-.5 8 1.6 9.5 3.4 18.2.8q1.6-.5 3.3-.4l1.6.8c2.3 1.2 4.8 2.5 7.4 2 2.3-.4 4.4-1.6 6.6-2.2q3.2-.8 6.6-1.4c3.5-.7 7-2.1 10.7-1.3" class="b"/><path d="M13.2 50.3q4.2 0 8.2-1.4c3.5-1.1 7-2.5 10.7-2.5 1.7-.6 3.2-1.7 5-2 2.7-.4 5.7-.5 8.2.7q1.3-.4 2.5-1 2-.2 4.1 0 4.2.6 8.2 1.4l8.3 1.6c3.2 1 6.5 2.1 9.9 2 1.6-.3 3.3 0 5 0 2.5-.1 4.9-1.5 7.3-2.2 3.5-1.1 5.3-3.5 9.1-2q4.9 1.5 9.9 2 2.9.5 5.8.6 3-.3 5.7-1.2 3.8-1 7.5.7c6.8 3 10.1 2.6 17.2 1.2 8.3 3.9 9.6 1.5 17.3-.9q4.5-1.2 9.1-2 2 0 4.1.2 1.3-.2 2.5-.7" class="b"/><path d="M13.2 47.8c5.9-.1 11.4-3 17.3-3 1.6-.6 3.2-1.6 5-2q4-1.1 8.2 0a6 6 0 0 1 5-1.2q2 0 4 1 2.9.8 5.8 1.2 4.5.9 9 1.4 2.6 1 5 2 4 1.7 8.2 1.2 2.5.6 5 0c2.4-.5 4.5-2 6.6-3.2q2-.8 4-1.7c2.8-.8 5.6.6 8.3 1 3.5.6 7.2 1.2 10.7 1q3.4-.5 6.6-1.7c5-1.5 9.3 2.6 14 3.4 3 .7 6.1.2 9.1-.2 2.2.4 4.4 1.3 6.6 1.3 2.9.2 5.6-1 8.2-2q2.9-1 5.8-1.8a23 23 0 0 1 8.2-.7 19 19 0 0 1 5-1.7" class="b"/><path d="M13.2 45.7q5.4-.5 10.7-1.7c1.9-.5 3.9-.4 5.8-.7Q35.5 40 42 40.9a6 6 0 0 1 5-1.3l1.6.2q1.3.5 2.5 1.2a18 18 0 0 0 6.6 2.1q3.7.6 7.4.7c1.3.2 3 0 4.1.8 3.2 2 6.8 4 10.7 3.5 1-.2 2.3.2 3.3.3q1.6.1 3.3-.4 3-1 5.8-3c1-.7 2.1-1.7 3.3-2 3.1-1.6 6.7-.8 9.9-.2 5.2 1 10.6 1.5 15.6-.3 5.7-2 9 1.2 14 2.7q4.1 1 8.3.4c1.3-.2 2.8.6 4.1.7 6.2 1.1 10.8-1.8 16.5-3.3q2.4-.6 5-.9 1.6 0 3.2 0c2-1 4.3-2.2 6.6-2" class="b"/><path d="M13.2 43.9c3.3 0 6.6-.7 9.9-1.2 1.8-.4 4-.2 5.7-.7 3.7-1.4 7.6-2.9 11.6-2.5 2.1-2 4.7-2.2 7.4-1.4 1.6 1 3.2 2.3 5 3 3.9 1.6 8.2 2 12.3 2 2.5-.1 3-.4 5 1.3q3 2.3 6.5 3.3 2.5.6 5 .1c1 0 2.2.4 3.3.2 4.3-.8 8.3-3.3 11.5-6.2 3.7-2 8.4-.8 12.4-.3q4.9.8 9.9 0c8-1.7 9.1-.3 16.4 2q3.7 1 7.5.5 5.3 1.4 10.7.3c3-.7 6-2 9-2.7q4-1.1 8.3-1c2.5-1.3 5.3-3 8.2-2.3" class="b"/><path d="M13.2 41.9c3.3.5 6.6-.2 9.9-.6q2.4-.2 5-.5 2.3-1 4.9-1.6 2.8-.9 5.7-1c1.2-.4 2.2-1.5 3.3-2q1.7-.4 3.3-.2 1 0 1.7.6 2.7 2.1 5.7 3.5A37 37 0 0 0 66 42c.8 0 1.8-.2 2.5.3a26 26 0 0 0 6.6 4.4q2.7 1 5.8 1 2-.3 4-.3c3.3-.8 6.2-2.4 9.1-3.8 4.4-2.4 3.4-4.2 9.1-4.3 3.8-.2 7.7.7 11.5.7 3.3.1 6.6-.6 10-.6 4.7.1 9.1 2.7 14 2.8h2.4q1.7.6 3.3.7 4.1.3 8.3-.6c5.4-1.1 10.7-3.6 16.4-3.3 3.3-1.5 6.2-3.7 10-2.2" class="b"/><path d="M13.2 39.7c4.9 1.1 10 0 14.8-.5 3.3-.8 6.5-2 10-2.2 2-1.6 4.6-3.5 7.3-2.6 1.7.9 3.3 2.2 5 3a39 39 0 0 0 17.3 3.4c3 2.9 6.5 5.6 10.7 6.1q5.7.6 10.7-2c2.4-1.1 5-1.8 7.4-3q2.4-1.8 5-3.3c4-1.2 8.2-.6 12.3-.4 3.6.2 7.2-.3 10.7-.1 3.1.1 6.1 1.1 9 1.9 2.2.6 4.6.4 6.7 1 5.4 1.1 11.1-.3 16.5-1.6q5.6-1.6 11.5-2 2.8-1.6 5.8-2.6c1.6-.3 3.3.3 4.9.8" class="b"/><path d="M13.2 37.6q3.2.7 6.6.7A80 80 0 0 0 37 35.6q1.6-1.1 3.3-2c3.3-1.8 4.5-1 7.4.9q3.9 2.1 8.2 3 5.3 1.7 10.8 1.9c1 .2 1.7 1.3 2.4 1.9q2.3 2 5 3.3 5.1 2 10.7.7c1.9-.8 3.8-2 5.7-2.7 2.1-.8 4.5-1.1 6.6-1.8q2.1-1 4.2-2 1.6-1 3.3-2c3.7-.7 7.7-.5 11.5-.5q5-.2 9.9.4c3.3.4 6.5 1.6 9.9 2 1.3 0 2.7.8 4 1 3.7.3 7.3-.5 10.8-1l9.9-2.1c2.1-.5 4.4-.5 6.6-.8 5.5-3 5.3-3.6 11.5-1.3" class="b"/><path d="M13.2 35.5q4.5 1 9 1 6.3-.5 12.4-2c2.4-.4 4.3-2.2 6.6-3 2.2-1 3.8-.3 5.8.9q4.4 2 9 3 5.3 1.8 10.7 2.2c6 5.7 9 7 17.3 5.9 1.2 0 2.4-.7 3.3-1.3q2-1.2 4.2-2 3.2-.9 6.6-.8a22 22 0 0 0 7.4-2.8q1.1-.9 2.4-1.6 3.4-.4 6.6-.4c4.7-.1 9.5-.2 14 .8q3 .5 5.8 1.2 2.8 1.4 5.8 1.5 3.3-.2 6.6-.8c1.6-.3 3.4-.3 5-.8 3.8-1.7 8-2 12.3-2.2.7 0 1.8 0 2.4-.3l2.5-1.5c3.5-2.2 6.5 0 9.9.9" class="b"/><path d="M13.2 33.4a40 40 0 0 0 20.6-.5c4-.8 8.1-4.9 12.4-2.7q4.3 1.8 9 2.9a91 91 0 0 0 11.5 2.6c6.4 7 10.5 6 19 5a22 22 0 0 1 7.4-3.5c2.2-.5 4.5.2 6.6.5q3.4-.3 6.6-1.5c6.5-3.2 3.7-3.1 11.5-3.5q6.3-.3 12.4 1c1.4.2 2.8 1.2 4.1 1.7 4.5 2 9.4 0 14-.3 5-2.5 7.6-3.2 13.2-3h3.3c2-.6 3.7-2 5.8-2.2 2.9-.2 5.5 1.6 8.2 2.1" class="b"/><path d="M13.2 31.4c8.7 2.4 18 1 26.4-2.3 3-1.2 5.1-1.3 8.2 0L61 32.3l3.3.8q1.3 0 2.5.7 1.5 1.6 3.3 3c4.8 3.7 10.1 1.3 15.6 1C88.1 36 91 34.3 94 34c2.3-.3 4.6.7 6.6 1.6q3.4 0 6.6-.3c3.5-.6 6.6-2.6 10-3.7q4-1.2 8.2-.5c2.5.6 5 1.8 7.4 2.7 4.4 1.8 8 .4 12.3-.3 1.9 0 3.4-1.5 5-2.3 3.7-2.3 8.2-1.6 12.3-1.3l1.7.1q1.6-.6 3.3-1.3c4-1.5 7.7 1.3 11.5 2" class="b"/><path d="M13.2 29.4a39 39 0 0 0 19.8.1l5.7-1.6c1.6-.4 3.3-1.1 5-1.2q3.3 0 6.6 1 4.1.8 8.2 1.8l7.4 1.8c1.4 1 2.7 2.5 4.1 3.4 3.9 2.8 8.2 1.7 12.4.5L85 35q2.3-1.8 5-3c2.5-1.2 5.5-1.9 8.2-.8 1.4.5 2.6 1.8 4 2l2.5.2q2.5.5 5 .5 3.3-.3 6.6-1.4l4.1-1q3.7-.2 7.4.1c2.5.5 5 1.3 7.4 1.5 2.2.1 4.5-.5 6.6-1l2.5-.5 1.7-1c6.3-5.2 9-3.7 16.4-2.7l.8.1.9-.3 2.4-.9c4.3-1 8.3 1.7 12.4 2.4" class="b"/><path d="M13.2 27.5c10.3 2.8 18 1 28-1.7 4.9-1.3 10 0 14.8 1q5 1.1 10 2.2c2.5 2.3 5.3 5 9 5 3.1 0 6-1.5 9-2.2q3.6-3.3 8.3-4.3c5.3-1.3 6.5 0 10.7 2.7 3.4.3 6.5 2 9.9 2q3.8-.1 7.4-.9 3.8-.1 7.4 0c2.5-.2 5 .1 7.5 0q3.3-.5 6.5-1.6c2-1.1 3.9-2.8 5.8-4a10 10 0 0 1 6.6-1.5c2.8.2 5.5 1.5 8.2 1.5q2.4-1 5-1c2.2-.1 4.5.7 6.6 1.4l5 1.4" class="b"/><path d="M13.2 25.6a43 43 0 0 0 18.1 1l7.4-1.6c2.5-.6 5-1.4 7.5-1.2q3.7-.1 7.4.4c4.1.6 8.2 1.8 12.3 2.6 3.1 3 7 5.6 11.6 4.3q2.5-.8 5-2l2.4-2.1c2.9-2 6.5-2.6 9.9-3.1q4-.7 7.4 1.9c.7.4 1.6 1.3 2.5 1.4 2.8.5 5.4 1.8 8.2 2.5 4 1 8.3.6 12.4.3 4.6-.4 9.7 0 14-2.3 2.6-1.3 4.8-3.5 7.4-5 4.5-2.6 9.5.1 14 1.2 6.8-2.8 11.6.4 18.1 1.9" class="b"/><path d="M13.2 23.8c6 1.3 12 2.3 18.1 1.3q3.7-.9 7.4-1.6c2-.3 3.9-1 5.8-1.2A51 51 0 0 1 61 23.6l5 1q1.5 1.6 3.2 2.6c2.4 1.6 5.5 2.1 8.3 1.2 1.1-.3 2.5-.7 3.3-1.7 2.8-3.7 5.5-4.4 9.9-5 2.4-.5 4.9-1.4 7.4-1.2 2 .1 4 1.3 5.8 2.4.7.4 1.5 1.3 2.4 1.3 6.5 1.5 13 5.2 19.8 3.4a31 31 0 0 0 18.1-6.8c2.2-1.4 5-1.8 7.5-1.3q2.4.6 4.9 1.6c1 .3 2.2 1 3.3.7q2.4-1 5-1c4.8 0 9.3 2.2 14 3.2" class="b"/><path d="M13.2 22q4.1 1 8.2 1.6 5 .5 10 0c1.9-.2 3.8-1 5.7-1.3q3.8-.6 7.4-1.5 8-1 15.7.6l4 .9q1.6 0 2.6 1c2 1.6 4.6 3 7.4 3 1.8 0 3.8-.5 5-2 3.7-4.6 5-4.4 10.6-5.3 3-.5 6-2.2 9-2 3.2.4 5.7 2.5 8.3 4q3.4.9 6.6 1.5 4.5 1.3 9 2.5c.8.3 1.8-.1 2.6-.3l4-1.2c5-.8 9.5-3.4 14-5.5q3.8-1.4 7.5-.2 2.4.8 5 1.9c.6.2 1.6.7 2.4.4q2.8-1.2 5.8-1.3c5 .2 9.9 2.4 14.8 3.4" class="b"/><path d="M13.2 20.5c3 .7 6 1.7 9 1.9q2.6.2 5-.1 2.4.1 5-.4 2.4-.4 4.9-1.3 2-.2 4-.6a42 42 0 0 1 17.4-.9l7.4 1.5c2.7 1.9 5.7 3.5 9 2.9 3.6-.6 4.9-5 8.3-6 2.4-.7 5-.6 7.4-1.4 2.8-.8 5.4-2.4 8.3-2.5 3.7 0 6.9 2.4 9.9 4.4 1.5.5 3.3.4 4.9.6q3.4.3 6.6 1.3l3.3 1 .8.3.8-.2q4.5-1.8 9-3 4.5-1.7 9.1-2.8c4.5-.6 8.4 2.1 12.4 3.5.8 0 1.7-.7 2.5-1q1.6-.7 3.3-1c6-.3 11.6 2.5 17.3 3.8" class="b"/><path d="M13.2 19.2c4.5 1.5 9.3 2.6 14 1.9l6.6-1c1.9-.5 3.8-1.3 5.8-1.5 2.7-.3 5.4-1.2 8.2-1.5a43 43 0 0 1 17.3 1.5q1.7.4 3.3 1.3t3.3 1c6.8.6 6.4-4.4 11.5-6 2.8-.6 5.7-.5 8.3-1.6 4.8-2 7.9-4 13.2-1.7q2.2 1 4 2.3c1 .9 2.3.8 3.4.7a30 30 0 0 1 10.7 1.6c1.3.3 2.8 1.3 4.1.5 4.8-2.2 12-4 17.3-3.5 3.5.8 6.6 3 9.9 4.2 1.2-.3 2.2-1.4 3.3-1.8q2-1 4.1-1c6 .2 11.6 2.8 17.3 4.2" class="b"/><path d="M13.2 18a32 32 0 0 0 19.8.8q3.3-.8 6.6-2 3.3-.3 6.6-1.1 4-.8 8.2-.8 5.5 0 10.7 1.6l4.1 1.4c2.5.6 5.1 0 7.4-.8 1.7-.6 3-2.2 4.2-3.3 2.7-2.3 6.7-1.1 9.9-2.4 2.7-1 5.3-2.6 8.2-3.2q3.7-.5 7.4.7c1.4.5 2.7 1.6 4.1 2 7.1-1.5 10.1-.4 16.5 2.4 5-2.5 11.1-2.8 16.5-1.8 3.2 1.1 6 3.3 9 4.6 1-.1 1.8-1.1 2.5-1.6 2.2-1.4 4.7-2.9 7.4-2.4 2.6.4 5 1.4 7.5 2.2l9 2.7" class="b"/></svg>