<svg xmlns="http://www.w3.org/2000/svg" id="a" width="1920" height="2400" viewBox="0 0 192 240"><defs><style>.b{fill:none;stroke:#fff;stroke-miterlimit:10;stroke-width:.3px}</style></defs><path d="M0 0h192v240H0z" style="stroke-width:0"/><path d="M11.3 229h4.2q2.5.4 5 .3 4.4-.6 8.5-2 4.7-.9 9.2-2.4 2.8-.8 5.1-2.4 3.6-2.2 7.6-2c3.3 0 6.3 1.4 9.3 2.6 4.4 2 8.7 2 13.5 1.6q3.9-.3 7.5 1.4 3 1.2 6 2.9 2.9.8 5.9.2l5.9-.7a47 47 0 0 1 16.8-1.3q4.3.8 8.4 1.8 3.8.6 7.6 1c5.6.7 11.2 2.7 16.9 1.8 3-.4 6.2-1.4 9.3-1.7 1.9-.3 4-.2 5.9-.5q3.3-.5 6.7-.4c1.3 0 2.4-1.2 3.4-1.8 2-1.4 4.4-2.3 6.7-1" class="b"/><path d="M11.3 226.8c3 0 6.2.4 9.2.3 5.6-.3 10.8-2.5 16-4q3.5-1 6.8-2.2c2.6-1 5.6-2.1 8.4-1.6 2.3.5 4.5 1.6 6.8 2.2 2.3.5 4.4 1.4 6.7 1.8 3 .6 6.2.2 9.3 0q4.4-.2 8.4 1.6c2 .8 4 2 6 2.7 4.7 1.1 9.6-1 14.2-1.8 6.2-1.2 12.5-.6 18.6.5q7.6 1 15.2 2.4 3.3.8 6.7 1.2t6.7-.5q5.4-1.4 11-1.5 4.2-.7 8.4-.6c1.3.2 2.4-.9 3.4-1.4 2.6-1.8 4.8-2.4 7.6-.5" class="b"/><path d="M11.3 224.7c3.6 0 7.3.5 11 0 5-.5 10-2 15.1-3.2s10-4.5 15.2-2.7c3 1 6 2 9.3 2.3 1.9.2 3.9 1 5.9.9 3.3.2 6.7-.4 10 0 3 .1 5.8 1.3 8.5 2.4 1.6.7 3.3 1.6 5 1.8 3.5.2 6.9-1.2 10.2-1.9q4.6-1 9.3-.7c4.2-.3 8.4.4 12.6 1q8.2.4 16 2.5 3 .6 6 .8 3.3 0 6.7-.9 4.1-.9 8.4-.9 4.6-1 9.3-.8c4.4-1.2 6-4.6 11-1" class="b"/><path d="M11.3 222.7q5.9.5 11.8 0 7.2-1 14.3-2.3c4.5-1 8.8-3.8 13.5-3 2 .3 4 1.1 5.9 1.5q3.7.8 7.6 1 3 .4 5.9.4 4.3-.2 8.4.2 4 .6 7.6 2c3.4 1.3 5.5 2.5 9.3 1.6 3.9-1 7.8-2.1 11.8-2.2q4.6-1.1 9.2-.6 3 .2 6 1c1.3.3 2.8.9 4.2.7q3.8 0 7.5.7c2.6.5 5 1.4 7.6 1.8q3 .5 6 .3c2.7-.2 5.5-1 8.4-1.3q1.7 0 3.3-.2 2.2-.5 4.3-.7c1.9-.3 4 0 5.9-.3 4.6-1.4 6.2-3.8 11-.4" class="b"/><path d="M11.3 221q6.8.5 13.5-.2 6.2-.8 12.6-1.4c3.8-.7 7.1-3 11-3.3 3.1-.1 6.2 1.1 9.2 1.5q5.1.5 10.2.8c3.6.3 7.3.1 11 .5s7.3 1.8 10.9 3c2.4 1 5.1.7 7.6 0q4.1-1.2 8.4-1.4 6.2-2.3 12.6-1.4c2.7.3 5.2 1.6 7.6 2.4l4.2-.4q3-.1 6 .7 3.2 1.2 6.7 1.8 3 .5 5.9.2c2.8-.3 5.6-1 8.4-1q3.3-.7 6.8-1.2l3.3-.1q1.3 0 2.6-.2c4.7-1.3 6.2-3 11 0" class="b"/><path d="M11.3 219.8c6.2.2 12.4-.7 18.5-1.3 2.5-.3 5.1 0 7.6-.1 4.1-.6 7.6-3.6 11.8-3.5 6.2.3 12.4 1.4 18.6 1.8 5.9.3 12 .3 17.7 2.2 7.4 1.9 6.4 3 14.3.7q2.5-.6 5-.7l3.4-1.3q5.4-1.7 11-.5 2.7.8 5 2.3c.4.2 1.3.3 1.7.2q1.2-.7 2.6-1c2.8-.7 5.7.5 8.4 1.2a30 30 0 0 0 16.9 1.6q3.8-.6 7.5-1.4 3.8-.6 7.6-.4l6-1.5c2-.3 4 .6 5.8 1.6" class="b"/><path d="M11.3 218.7c8.4-.1 16.8-2.9 25.3-1.5 2.3.1 4.6-1 6.7-2q3.3-1.5 6.8-1.7 4.1-.1 8.4.2 2.9.8 5.9 1.2 7.2.1 14.3 1c3.4.4 6.8 1.4 10.1 2.2 1.4.2 2.8 1 4.2 1 3.7 0 7.3-1.7 11-1.7 4.6-2.1 8.4-3.3 13.5-2.6l2.5.8a3 3 0 0 0 1.7.5l3.4.3c1.3-.2 2.8-1 4.2-.7 2 .3 4 1.4 5.9 2 1.9.8 4 .8 5.9 1.5 3.8 1 8 .8 11.8.4 3-.5 6.2-1.4 9.3-1.7 2.2-.3 4.5 0 6.7-.2l5.9-1.1c2-.3 4.1.5 5.9 1.4" class="b"/><path d="M11.3 217.7c4.2-.2 8.4-1.4 12.6-2q2.2-.3 4.2-.2c1.1 0 2.3-.4 3.4-.3q2.6.2 5 .7c2.1.2 4.1-.6 6-1.4a32 32 0 0 1 13.4-2.9q3.7 1.4 7.6 1.7c4.5.2 9 0 13.5.8 4.6.5 9 1.8 13.5 2.7 3 1.4 6.3.2 9.3-.4q1.7-.3 3.3-.4c2.3-.8 4.5-2.1 6.8-2.6 2.7-.6 5.7-.9 8.4 0q2.6-.2 5 0l1.8.1 1.7-.3c2.8.1 5 2.3 7.5 3.2q3.4.8 6.8.8 2.9 1 5.9.9c4.6.1 9-1.2 13.5-1.9 2.7-.5 5.6-.2 8.4-.2q3.3-.7 6.8-1 2.6 0 5 1.2" class="b"/><path d="M11.3 216.6c4.3-.4 8.4-2 12.6-2.6q2.2.3 4.2.2c1.7.1 3.4-.6 5-.5 4 .7 5.5 1.3 9.4-.4 2.7-1 5.5-2.2 8.4-2.8 1.3-.2 2.9-.7 4.2-.3 2.5.7 5 1.5 7.6 1.6 4.5.2 9-.2 13.5.5q5.1.7 10.1 2 3 .5 5.9 1.4c3.4.6 6.7-1.2 10.1-1.3.8 0 1.8-.6 2.6-.9q2.3-1.1 5-1.8 3.4-.8 6.8-.2 3.3-.7 6.7-.6c1.4.1 3 0 4.2.6 3.5 1.8 5.8 4.3 10.1 4.2l4.2-.1 2.6.6c6.5.8 12.8-2 19.4-2.2 1.9-.1 4 .3 5.9 0 3.6-.4 7.4-1.2 11 .2" class="b"/><path d="M11.3 215.3q4.3-.6 8.4-2l3.4-1q.8.3 1.7.4 2.5.5 5 .1c1.4 0 2.9-.7 4.2-.6 2.5.5 5.2 1.2 7.6.2 2.5-.8 5-2 7.6-2.7 1.6-.5 3.4-1.1 5-.8 2.6.5 5.1 1.3 7.7 1.5q3.7 0 7.6-.2 3.3 0 6.7.5 5.1.6 10.1 2l4.2.8q1.3.4 2.6.7c3 0 6.1-1.1 9.2-1.4q3.3-1.6 6.8-2.4 3.3-.8 6.7-.6 3.7-1 7.6-.7c4.6-.3 7.5 4.2 11.8 5 2.2.4 4.5 0 6.7 0 .8-.2 1.8.3 2.6.4 5.7 1 11.2-1.6 16.8-2.3 2.8-.4 5.7 0 8.5 0 3.6-.3 7.3-.7 11 .1" class="b"/><path d="M11.3 213.8c3.7-.5 7.3-2 11-3 1.3 0 2.8.5 4.2.6 2.5.4 5-.3 7.5-1 2.5.5 5.1 1.4 7.6.7q3.9-1.2 7.6-2.6l2.6-.8q1.7 0 3.3.2 3.3.8 6.8 1 3.7 0 7.6-.3 3.3 0 6.7.4 5.1.6 10.1 2l4.2.8q1.2.5 2.6.7c2.5.2 5-.6 7.5-.9 2.3-.7 4.5-1.8 6.8-2.3 2.4-.5 5-1.2 7.6-.9 3.1-1.3 6.8-1.1 10-.4 1.6.1 3 1 4.3 1.7 2 1.2 4.3 2.5 6.7 2.8 2.3.3 4.6 0 6.8 0 1 .1 2.3.6 3.4.7q2.5 0 5-.5c4.2-1 8.3-2.7 12.7-2.7l5.9.3c3.6-.1 7.3-.3 11 .3" class="b"/><path d="M11.3 212c3.8-.4 7.3-2 11-3q2 .6 4.2.8c2.5.4 5.1-.3 7.5-1 2.5.4 5 1.4 7.6 1q3.9-1.1 7.6-2.5l2.6-.8 3.3.1q3.3.6 6.8.9c4.5 0 9-1 13.5-.2q5.5.5 11 2l4.1.7q1.2.7 2.5 1c2.3.2 4.6-.4 6.8-.7a31 31 0 0 1 12.6-3.2c1.1-.1 2.4.1 3.4-.4 3.9-1.4 8-.3 11.8.9 2.3.4 4.5 1.7 6.7 2.4 2.7.9 5.7.9 8.5.9 1 0 2.2.8 3.3.8 3.8.2 7.4-1.6 11-2.6a29 29 0 0 1 13.5-.7q5.1-.2 10.1.5" class="b"/><path d="M11.3 209.9c3.8-.2 7.3-1.7 11-2.7q2.4.7 5 1c2.3.2 4.5-.7 6.7-1.1 2.8.6 5.6 1.8 8.5 1.2q3.3-.9 6.7-2.2 2.4-1 5-.8c2.6.1 5.1.6 7.7.6q3.7-.2 7.6-.5a38 38 0 0 1 6.7.3q4.7.5 9.3 1.7l4.2.7c.8.2 1.7.8 2.5 1 1.9.5 4 .2 5.9 0l4.2-1.8q3.7-1.4 7.6-1.5h5q3-1.2 6-1.3c2.9 0 5.6 1.4 8.4 2 2 .5 4 .4 5.9 1.2q2.5.8 5 1.1 1.8.1 3.4.6c2.4 1.4 5.2.6 7.6-.2q3.7-1.5 7.6-2.5 6.3-1.4 12.6-.4c1 .2 2.4 0 3.4 0l6 .9" class="b"/><path d="M11.3 207.6c3.7.2 7.4-1.2 11-2 1.6.2 3.3.7 5 .7q2.7.2 5-.7c1.1-.5 2.4.2 3.4.5 2 .5 4 1.3 6 1.1 4-.4 7.7-2.7 11.7-3.3l7.6.3c4 0 7.9-1 11.8-.7 5.4.4 10.7 1.8 16 2.6 1.2 0 2.3 1 3.4 1.3q3 .9 6-.2a24 24 0 0 1 16-2.5q.8.3 1.6-.1c6.3-3 9-1.2 15.2.5q2.5.5 5 .3c1.1 0 2.4.6 3.4.9q1.7.4 3.4.9 1.8 1.4 4.2 1.2c2.3-.3 4.6-1.3 6.7-2a43 43 0 0 1 18.6-2q4.3-.1 8.4 1" class="b"/><path d="M11.3 205.4c3.7.4 7.4-.7 11-1.5q2 .2 4.2.5 2 .1 4.2-.2c.7-.1 1.7-.6 2.5-.4q3 1 5.9 1.9c2.5.8 5.2 0 7.6-1 3.3-1 6.6-2.7 10.1-2.3q5.5 0 11-.6 3 .2 5.9.1 3.3.2 6.7.8l9.3 1.6c8.9 5.9 8.9-5.4 26.1-.6 1-.5 2.2-1.4 3.4-1.8q2-.6 4.2-.5c3.2 0 6.2 1.4 9.2 2q2.6.7 5.1.4 2.3-.5 4.2.9c3.1 3.1 6.5 1.7 10.1.4a51 51 0 0 1 20.3-2.6q4.3-.1 8.4.8" class="b"/><path d="M11.3 204.3q4.2 1 8.4 0l3.4-1c.7.1 1.8.2 2.5.1q1.7 0 3.4-.5c1.3-.5 2.8-1.3 4.2-.6 3.7 1.3 7.8 3.5 11.8 2 3.6-1.3 7.2-2.8 11-3.6q4.1.1 8.4-.4 2.5 0 5 .2 3.8.1 7.6.1 3.9.1 7.6.9l4.2.6c1.2.3 2.3 1.3 3.4 1.7 3.6 1.5 6.7-1.8 10.1-2.5q3.8-.9 7.6-.4l3.4.7 3.4-.2q1.6-1 3.3-1.4 3-.4 6 0c4 .2 7.7 2.5 11.7 2.5l2.6-.1q1.5 0 2.5 1a6 6 0 0 0 3.4 1.3q2.6-.2 5-1.1 3-1 6-1.6a72 72 0 0 1 23.5-.5" class="b"/><path d="M11.3 203.9q3.7 1.1 7.6.3c1.6-.3 3.3-1 5-1.1a16 16 0 0 0 6.8-1.4l2.5-.3q2.3.1 4.2 1.1c2.4 1 5.1 1.5 7.6.6 8.8-3 13.1-5 22.8-4q4.6.3 9.2.2 5.6 0 11 1 1.4.2 2.5 1 1.6 1 3.4 1c2-.3 4-1.5 5.9-2.2a18 18 0 0 1 11-.6c1 .1 2.3-.3 3.3-.4q1.7 0 3.4-.2 3.6-1.3 7.6-.8l3.4.3q3.3 1 6.7 2 2.5.7 5 .7 2.5 1 5.1 1.5c1.7.4 3.5-.2 5-.6q3-.8 6-1.4c8-1.1 16.3-2.1 24.4-.9" class="b"/><path d="M11.3 203.6c4.1 1.4 8.5.3 12.6-.8q2.3 0 4.2-.6 2.1-.9 4.2-.9 3.5 0 6.8.3c2.1.8 4.6.9 6.7.1 9-3.1 13-4.7 22.8-4q4.6.3 9.3.2 5 .1 10 .9 1.5.2 2.6 1 1.2.5 2.5.5c2 0 4-1.2 6-1.8 3.1-1.1 6.7-1.7 10-.8 1.1.1 2.4-.4 3.4-.5q2.2-.4 4.2-.4c1.1 0 2.3-.5 3.4-.6q2.5 0 5 .2 2.6 0 5.1.5 2.6.7 5 1.5 2.6.7 5.1 1.1 2 .8 4.3 1 2 .3 4.2 0 3.7-.8 7.6-1.5c8-.9 16.3-2 24.4-1" class="b"/><path d="M11.3 203.8c.8-.4 1.7 0 2.5 0q1.6.3 3.4.1 3.4-.3 6.7-1.3 3-.4 6-1.3a36 36 0 0 1 8.4-.3q2.5-.1 5-.1c4.7-.4 9-2.9 13.5-3.7 4.4-1 9-.8 13.5-.7 5.6.2 11.3-.2 16.9.5a6 6 0 0 1 2.5.7q1.6.7 3.4.6c2-.2 4-1.2 5.9-1.7 3-.9 6.2-1.4 9.2-.6q4.2-1.2 8.5-1.3 4.6-.8 9.2-.1c2.2.2 4.6.2 6.8.9 4.4 1.3 8.8 2.7 13.5 2.8l3.3.1q3.3-.6 6.8-1c8-.7 16.3-1.8 24.4-1" class="b"/><path d="m11.3 204 1.7-.5 1.7.2q1.7 0 3.3-.2 3.5-.6 6.8-1.5 2.5-.3 5-1.2 3-.7 6-.7c2.4 0 5 .3 7.5-.3l5-1.3q5.1-1.7 10.2-2.7c4.7-1 9.6-.6 14.3-.6q7.2-.2 14.4.2 1.7 0 3.3.7 1.7.5 3.4 0c4.4-1 9-2.8 13.5-1.7q4.1-1.4 8.4-1.6 5-.8 10.1-.1c2.8.3 5.7.4 8.5 1.2q3.7 1 7.6 1.8 2.5.2 5 .3l5 .2 5.1-.5c7.9-.4 15.8-1.5 23.6-.8" class="b"/><path d="M11.3 203.6q1.2-.5 2.5-.5 2.2.1 4.2-.1a50 50 0 0 0 6.8-1.6q3-.5 5.9-1.5c4-1.5 8.4-.4 12.6-1.2q3-.6 5.9-1.7c4.2-1.1 8.4-2.3 12.6-2.8 6-.6 11.9-.2 17.7-.5H88c1 0 2.3.5 3.3.6q2.6 0 5.1-.6 5-1.2 10.1-1 4.6-1.4 9.3-2c3.9-.6 8-.2 11.8.2q3.3.4 6.7 1t6.8 1.5q4.1.3 8.4.5 4.2.5 8.4 0c7.6-.1 15.2-1 22.8-.7" class="b"/><path d="M11.3 202.6q1.6-.5 3.3-.3 2.2 0 4.3-.4c2.5-.4 5-1.3 7.6-1.9 2.2-.3 4.5-1.3 6.7-1.9q3.7-.6 7.6-.6 3-.2 5.9-1c2.5-.5 5-1.7 7.6-2.2q4.5-1 9.2-1.6 5.1-.4 10.2-.3c5.8 0 11.8-.9 17.7-.2 2.8.1 5.6-.5 8.4-.8 2-.3 4 0 5.9-.4q5.4-1.6 11-2.4c3.9-.2 7.9-.4 11.8.3L141 191l15.2 1.2c8.1 0 16.3-.6 24.4-.7" class="b"/><path d="M11.3 201q5.5 0 11-1.3l8.4-2.2q2-.8 4.2-1.1c4.2-.8 8.5-.6 12.6-1.6q3-.5 6-1.7 2-.5 4.1-.7c6.7-1.4 13.5-1.5 20.3-1.7q5.8-.4 11.8-.7c3.9.3 7.8-.3 11.8-.4 4.3-.3 8.4-1.7 12.6-2.6q3.7-.4 7.6-.5 4.6-.3 9.3.7c3.5 1 7.3 1.2 11 1.8q5 .2 10 .9c9.5 1.3 19.2.4 28.7.1" class="b"/><path d="M11.3 198.9q7.6-.6 15.2-2.2c3.6-.8 7.2-2 11-2.6 4.1-.5 8.4-.6 12.5-1.4q3-.6 6-1.7 5-.7 10-1.3c4.5-.6 9-.5 13.6-.8 4.2-.3 8.4-1 12.6-1q6.8.1 13.5-.8c2.5-.6 5-1.7 7.6-2 2.2-.2 4.5 0 6.7-.2q3.8-.4 7.6-.4c3.4.2 6.7 1.8 10.1 1.9 3.1.1 6.2.6 9.3.7q5.4.9 11 1.5 11.3 1 22.7-.4" class="b"/><path d="M11.3 196.2q3.4-.4 6.7-1l9.3-1.2c4.2-.7 8.4-2 12.6-2.4 4-.3 8-.3 11.8-1q3.5-.6 6.8-1.6l5.9-.8q7.5-1 15.1-1.2c4-.2 8-1 11.8-1.2 3.7-.3 7.4-.2 11-.8 3.4-.3 6.7-1.5 10.1-1.7h7.6c2.8-.2 5.7-.8 8.4-.6 2.6.2 5.1 1.1 7.6 1.7q4.7-.3 9.3.4t9.3 1.5q5 .9 10 1.1c5.4.2 11 .5 16.1-1.2" class="b"/><path d="M11.3 193.1q3.4-.6 6.7-1.1l8.5-.7c3.6-.3 7.3-1.2 11-1.8 6-.7 12.4-.3 18.5-1.6l5-1.1q4.6-.7 9.3-1.3 5.4-.4 11-.5l11-1.5q7.5-.7 15-1.6c3.7-.6 7.4-.2 11-.2 3.4 0 6.8-.8 10.2-.7 2.5.1 5 1 7.6 1.5 2.2 0 4.5-.7 6.7-.3q6.3 1 12.6 2.4 5.1.9 10.2 1.3c5.4.5 10 .6 15.1-1.7" class="b"/><path d="M11.3 189.9c7.2-1.7 14.6-1.2 21.9-2.4q6.3-1 12.6-1 5.6-.1 11-.9 3.4-.4 6.7-1.3 3.8-.6 7.6-1c3.7-.6 7.4-.2 11-.5 7-.8 14-2.2 21-2.7 5.1-.6 10.2-.2 15.2 0 3.4.1 6.8-.6 10.2-.6 2.5 0 5 .8 7.5 1.3 2.3-.2 4.5-1.1 6.8-.8 3.7.5 7.3 1.6 11 2.4q5.4 1.1 10.9 1.9c3.3.3 6.8.7 10.1.1 2-.3 4-1.5 6-2.2" class="b"/><path d="M11.3 186.9c8.3-1.5 16.9-1.3 25.3-2.6 5-.4 10.1-.1 15.1-.7 3.4-.4 6.8-.3 10.2-1q6.2-1.6 12.6-2c2.8-.1 5.7.3 8.4 0 6.2-.6 12.3-2.3 18.6-2.6 5.6-.5 11.2.2 16.8.6 3.4.1 6.8-.5 10.2-.4 2.5 0 5 .7 7.6 1 1 0 2.3-.6 3.3-.9q2.1-.5 4.2-.1c6 1.2 11.8 3 17.7 3.8q6.7 2 13.5.8c2.1-.5 4-1.9 6-2.7" class="b"/><path d="M11.3 184.2q7.5-.8 15.2-1.5c4.1-.4 8.4-1.1 12.6-1.2q7.5 0 15.2-.9 3.4 0 6.7-.3 4.2-.6 8.4-1.6c2-.4 4-.2 6-.2 3-.3 6.1.2 9.2-.2 5.4-.5 10.6-2.3 16-2.2q4.3-.1 8.5 0 4.5.6 9.2 1l9.3-.2q3.3.1 6.7.8c4.5.6 5-2.8 11-1q8 2 16 3.8a23 23 0 0 0 14.3.4c1.8-.6 3.4-2 5.1-2.7" class="b"/><path d="M11.3 181.8a436 436 0 0 0 21.9-2.5c4.5-.6 9-.4 13.5-.7q3.7-.4 7.6-.7H61q3-.3 6-1c2.7 0 5.6.4 8.4.3 1.9 0 4-.5 5.8-.7q3-.1 6-.5 2.9-.7 5.9-1.3 3.7-.5 7.5-.1 4.3.2 8.5-.2 4.2.6 8.4 1 4.6.3 9.3.2 3.7.3 7.6.8c5.3.4 4.8-3.3 11.8-1.1q6.3 1.5 12.6 2.8c1.7.4 3.4 1.3 5 1.7 3.6 1 7.4.2 11-.4 2.2-.4 4-2.1 6-3.2" class="b"/><path d="M11.3 179.5q7.2-.7 14.3-1.6 6.3-1 12.6-1.6 3.5-.2 6.8-.2l5-.3c3.4 0 6.8-.5 10.2-.5 3.9-.2 7.8.5 11.8.5 5 .3 10.1-1 15.1-1.8 1.7-.3 3.4-1 5.1-1.1q3.4-.3 6.7.2c3.7.7 7.4 0 11-.2q4.6.6 9.3 1 6.3.3 12.6 1h3.4q1.6-.2 3.4-1 2-.7 4.2-.9l3.3.6 12.7 2.9c1.9.7 3.8 1.7 5.9 2 2.8.5 5.7-.3 8.4-.9q2.1-.4 4.2-.9l3.4-2.4" class="b"/><path d="M11.3 177c6-.1 11.8-1.1 17.7-2 4.2-.6 8.4-1.5 12.6-1.4 2.8.1 5.7-.3 8.4-.3h11c4.5.4 9 1.3 13.5 1.2 5.5-.2 10.8-1.9 16-3.3 3.7-.8 7.3 1 11 1q4.6-.3 9.2-.7 3 .1 6 .5c5.6.4 11.2 1.3 16.8 1.5 1.7 0 3.4-1 5-1.5q2.6-.4 5.1-.2c5.2.4 10.1 2.3 15.2 3.1 2.1.9 4.4 2 6.7 2 4.3-.2 8.4-2.3 12.7-2.6l2.5-2" class="b"/><path d="M11.3 174.3c6.5.5 13-1 19.4-2 4.1-.6 8.4-1.4 12.6-1 1.7 0 3.4-.4 5-.4q3 .1 6 .4 4.2 0 8.4.4l8.4 1.2c4.6.6 9.2-.4 13.5-1.8 3-.8 6-2.6 9.3-1.6q2.4.8 5 1.2 3.5-.1 6.8-.5a72 72 0 0 1 20.2 1q3 1 6 1c2 0 3.9-1.1 5.8-1.7q2.5-.5 5-.2c5.6.2 10.7 2.3 16.1 3.2 1.4.3 2.8 1.1 4.2 1.4q2.2.2 4.2 0c2.9-.5 5.7-1.7 8.5-2.5 1-.4 2.3-.3 3.3-.7l1.7-1.3" class="b"/><path d="M11.3 171.6c6.2.7 12.4-.4 18.5-1.4 3.6-.6 7.3-1.4 11-1.2 2.2.3 4.5-.7 6.7-.6q3 .3 6 .8l5.8.4c6 .3 11.8 2.5 17.7 1.7q4.3-.7 8.5-2.2c1.6-.5 3.3-1.4 5-1.6 2 0 4 1.2 6 1.5 2.1.4 4.5-.2 6.7-.4 1.9-.3 4 0 5.9-.2 4.2 0 8.4.6 12.6 1 1 0 2.4 0 3.4.5q2.8 1.2 5.9 1c1.7 0 3.4-.8 5-1.3q2.2-.4 4.2-.4 4.3-.1 8.5.7 5 1.4 10 2.3c2.6.5 5.1 1.5 7.7 1 3.2-.2 6.3-1.5 9.3-2.6q1.7-.6 3.3-.9l1.7-1.1" class="b"/><path d="M11.3 168.8q5.9.9 11.8 0 4.6-.4 9.2-1.2 2.5-.5 5.1-.7 1.7.1 3.4-.4 2.5-.5 5-.6 2.6.3 5.1 1c2.5.5 5 .4 7.6.6 14.2 1.2 14.7 4.8 29.5-1.2q2.1-.9 4.2 0 2.3 1.4 5 1.2 1.3-.1 2.6-.5 2.5.6 5 .7c3.3 0 6.2-1.3 9.3-.5l8.4 1c1.7.4 3.4 1.4 5.1 1.6q2.1.5 4.2 0c1.6-.4 3.4-1 5-1 3.2.2 6.3-.7 9.3-.3 3.8.3 7.3 1.8 11 2.3l4.2.5q3.4.7 6.8.1 3.9-.9 7.6-2.4 1.6-.7 3.3-1.1l1.7-1" class="b"/><path d="M11.3 166c4.4 1.2 9 .8 13.5.4q2.5-.2 5-.3 2.2-.5 4.2-.7c2.3-.1 4.5-1 6.8-1.4q2.5-.5 5-.2 2.6.4 5.1 1 3.3.5 6.7.5 4.7.3 9.3 1.3c3.6.7 7.3 1.5 11 1.1 2.9-.3 5.7-1.4 8.4-2.4 4-1.7 3.8-.8 7.6.4h2.5q1-.3 1.7 0a15 15 0 0 0 6 1.3q3-.1 5.8-1c1-.2 2.3-.7 3.4-.6q3.7.8 7.6 1.4c1.2 0 2.3 1 3.3 1.5q2.9 1.4 6 1.3c1.3-.1 2.8-.6 4.2-.6 2.8.1 5.7.2 8.4-.7s5.7-.3 8.4.4a37 37 0 0 0 17.7 1q3.5-.7 6.8-2.1 2.6-.9 5-2.1" class="b"/><path d="M11.3 163.6c2.5.3 5 .8 7.6.7 3.6 0 7.3-.4 11-.3a12 12 0 0 0 5-1q2.5-.8 5-1.3c3.4-.7 6.9 0 10.2.6q3 .4 5.9.9 2.5.3 5 .4 1.7 0 3.4.1l8.4 1.7c5.6 1.2 10-.7 15.2-2.4 1.4-.4 3 .3 4.2.7q1.6.5 3.4 0c1.4.2 2.8 1 4.2 1.5q2 .8 4.2.7 3-.1 5.9-1.1c1.4-.4 2.8-1.2 4.2-1.1l5 1.4c1.7 0 3 1.6 4.3 2.4q2.3 1.4 5 1.8c1.7.1 3.4-.3 5.1-.1 3.4.4 7 .4 10.1-1 2.4-.9 5.2-.5 7.6 0a31 31 0 0 0 9.3 1.5c7-.3 13.8-2.7 20.2-5.5" class="b"/><path d="M11.3 161.1q6.7 1 13.5.7 3.4 0 6.7-.3c3.4-.6 6.6-2.3 10.1-2.4 6 .2 11.8 2.2 17.7 2.9q3 .3 6 .2c1 0 2.3-.4 3.3-.2 4.1.9 8.4 2.1 12.6 1 2.3-.3 4.5-1.6 6.8-1.4 1.7-.2 3.4.5 5 .6l1.7-.3q1 .1 1.7.5c4.2 1.9 7.2 2.8 11.8 1.5 2.3-.5 4.5-1.6 6.8-2q2 1 4.2 1.6c1.7 1.6 3.6 3.5 5.9 4.5 2 1.1 4.5.8 6.7 1 3 .4 6.2.9 9.3.2 2 .2 4-.6 5.9-.9l3.4-.5q3.7 1 7.5 1.1c8-.1 15.5-3 22.8-6" class="b"/><path d="M11.3 159q7 .8 14.3.2 3.8 0 7.6-.5 2.6-.6 5-1.4c4-1.1 8 .3 11.9 1 4.7.9 9.4 2.3 14.3 2.5q2.5 0 5-.3c1.1 0 2.4-.5 3.4-.2q3.3.8 6.8.6 2.5-.3 5-1 2.6.5 5 .3c1.7.2 3.6.6 5.1-.2 2 .5 4 1.7 6 2.3 5 1.6 10.3-.5 15.1-2 1.9.1 3 2 4.2 3.2q1.9 2 4.2 3.4c2 1.3 4.5 1.3 6.8 1.4q4.1.8 8.4.6 2.5.1 5 0l7.7-1.1c1.9-.1 4 .3 5.9 0 3-.3 6.2-1.2 9.2-1.8q7-1.5 13.5-4.3" class="b"/><path d="M11.3 157.5c5 .4 10.1-.1 15.2-.6q3.7-.2 7.5-.8c2-.3 4-1.2 6-1.4 2.2-.3 4.5.2 6.7.7l7.6 1.6c4.7 1.1 9.4 2.5 14.3 2.3 3.4 0 6.8-.8 10.1-1 3.7 0 7.3 1 11 .6q1.6.1 3.4 0 1.2-.3 2.5-.7c8 3.9 11.8 3.7 20.2 1 2 .3 3 2.2 4.2 3.5a16 16 0 0 0 5 3.7c2 .9 4 .7 6 1q6 1 11.8-.3 2-.2 4.2 0 3 0 5.9-.2c3.8 0 7.3-1.4 11-2.3 2.7-.7 5.6-.7 8.4-1.3q4.3-1 8.4-2.9" class="b"/><path d="M11.3 156.1q7.5-.2 15.2-1.3l7.5-.9q2.2-.5 4.2-1.1c4.2-1 8.6.3 12.7 1.1 5.9 1.3 11.7 3.4 17.7 3.9 3.4.2 6.8-.3 10.1-.4 3.7 0 7.3.8 11 .2 2 0 4.1 0 5.9-1.3 1.7.5 3.4 1.5 5 2.1 4.4 1.7 9 1 13.5.4q2.7 1 5 2.2c1.7 1.3 3.2 3 5.1 4q2.8 1 6 1 4.1.5 8.4 0 1.8-.8 3.3-2 2.4-1.6 5.1-.6a54 54 0 0 0 7.6 1.5c1.4 0 2.9-.8 4.2-1.3 9.9-4.8 10.7 1 22-4.4" class="b"/><path d="M11.3 154.6q7.5-.6 15.2-1.7l6.7-.8q2.6-.6 5-1.4c4.8-1 9.7.2 14.4 1.2 5.3 1.3 10.6 3.2 16 4.1q5 .7 10.1.4c3.6 0 7.4.7 11 0q2.1-.2 4.2-.7c.7-.4 1.7-1 2.5-1a25 25 0 0 0 14.3 3.2 3 3 0 0 1 1.7.2q4.8 2 9.3 4.2c1.3.7 2.7 1.6 4.2 1.9q2.2.3 4.2.2 4 .4 7.6-.6c1.7-.9 3-2.6 4.2-4 2.3-2.3 4-2.4 6.8-.8 2.2 1 4.4 2.4 6.7 3.1 2.4-.6 4.4-2.4 6.8-3.2 3.6-1.5 7.3.7 11 1 2.5.1 5-1 7.5-1.8" class="b"/><path d="M11.3 153c7-.5 14-2 21-2.6 3.1-.7 6.1-2 9.3-2.2 9.7-.5 18.6 4.1 27.8 6.2q5.4 1.1 11 1c3.4.2 6.8.3 10.1-.5q3.2-.5 6-2.1c3.6 2 7.5 3.7 11.7 3.8 1.2 0 2.3.7 3.4 1l5 2c4 1.8 8.3 3.6 12.7 3q3 .2 5.9-.6a5 5 0 0 0 2.5-1.3c2.7-2.5 4-6.9 7.6-8.1 3.5-.6 7.8 4.8 11 6 3.5-2.1 6.6-4.7 11-3 6.3 2.7 6.5 3.5 13.4 1.5" class="b"/><path d="M11.3 151.4c5.3-.3 10.7-1.5 16-2q2.5-.2 5-.8c2.6-.5 5-1.6 7.7-2 10-2.2 19.4 2.7 28.6 5.6q6.7 2 13.5 2.2c4.9.2 10-.7 14.3-3 1-.2 1.8.5 2.6.8a27 27 0 0 0 6.7 2.5l4.2 1.8c3.9 1.3 7.8 3 11.8 3.8q3.4.6 6.7.3c2 0 4.1 0 6-.9 3-1.6 4.7-5.2 6.7-8 5.1-7.8 10.3-1.4 15.2 2.8 1.1-.3 2.3-1.2 3.3-1.7 2-1.2 4.6-1.4 6.8-.4 7 3.2 5.5 5.2 14.3 3.6" class="b"/><path d="M11.3 149.5c6.2 0 12.3-1.6 18.5-2 3.2-.4 6.2-1.6 9.3-2.4q5.4-1.6 11-1c7.4.8 14 4.6 21 6.7A47 47 0 0 0 88 153c3.3-.5 6.2-2.3 9.3-3.5 2.8 1.4 5.5 3.2 8.4 4.6q5.3 2.3 11 3.5 3.3.8 6.7.7l6.7-.5c7.4-.7 8.3-10 14.4-12.7 4.6-1.7 8.8 1.9 11.8 5q.8.1 1.7-.4 1.2-.6 2.5-1c3.3-.9 6.7 1 9.3 3 1.5 1.1 3.1 2.5 5 3l6-.1" class="b"/><path d="M11.3 147.2c5.9.7 11.8-1 17.7-1 5.2-.6 10-2.9 15.1-3.9 5.4-1.4 11-.2 16 1.8 7.2 3 14.3 6.2 22 7q5 1.5 10.1 0c1.8-.5 3.4-1.5 5-2.2 1.6.3 3 1.6 4.3 2.3q3.1 2 6.7 3a38 38 0 0 0 11 1.6q3-.1 5.9-.7 2.1 0 4.2-.3c7.6-1.2 8.9-11.2 16-12.4 4.2-.7 8 1 11 3.9 4-1.6 7.3-1.3 11 1 2 1.4 3.8 3.4 5.8 4.8 1 .5 2.4.2 3.4.4l4.2.3" class="b"/><path d="M11.3 144.7q3.7.9 7.6.6c2.2 0 4.5-.5 6.7-.4 7 .3 13.6-2.6 20.2-4.5 5-1.7 10.5-.7 15.2 1.4q6.3 2.7 12.7 5 5.8 2 11.8 3.2 3.7.7 7.5 0c1.8-.2 3.4-1.3 5.1-1.4 7.3 5 15.2 5.4 23.6 3.6 2.7-.8 5.7-.1 8.4-1.1 6-2 8.3-9.5 14.4-10.7 3.7-.6 7.8-.1 11 2 4-.8 8.4.1 11.7 2.5 1.8 1.3 3.4 3.1 5 4.5 1.1.4 2.4.2 3.5.4l5 .9" class="b"/><path d="M11.3 142q3.1 1.3 6.7 1.5c2 0 4-.3 6 0a46 46 0 0 0 23.5-5c4.8-2.1 9.8-1 14.4 1 6.3 2.5 12.7 5.5 19.3 7.2 1.7.4 3.4 1.3 5.1 1.5q6 1.3 11.8-.3c7.8 4.5 13.8 2.9 22 .7q2-.6 4.1-.5 3 .3 6-.6c5-1.7 7.6-7 12.6-8.8a20 20 0 0 1 10 .3q.9.3 1.8.2c4-.2 8.3.7 11.8 2.9 1.8 1.1 3.3 3 5 4.4 3.2 0 6.3 1 9.3 1.8" class="b"/><path d="M11.3 139.5c3.5 2 7 2.3 11 2.3q7 1.1 14.3 0c5.2-.7 9.6-3.8 14.3-6 3.6-1.5 7.5-.4 11 1 6.7 2.4 13.2 5.8 20.2 7.5q3.2 1.7 6.7 2.3 3.8.8 7.6.6l1.7-.1c1.1.2 2.3.8 3.4 1 6.2 1.8 11.9-2 17.7-3.5q3-.6 5.9 0 2.5.3 5-.5c1.6-.4 3-1.6 4.3-2.4 3.2-2 6.2-4.7 10-5.2 3.1-.4 6.3 0 9.3 0q5.8 0 11 2.3c2 1 3.6 2.7 5 4.2 3.8.4 7.4 1.8 11 3" class="b"/><path d="M11.3 137.3q4.2 2.8 9.2 2.9c2-.2 4 .3 6 .6 1.6.1 3.3.7 5 .4 3.3-.6 6.7-1.4 10.1-1.4 1.9.2 3.6-1.2 5-2 5.8-4.2 8-6.4 15.3-3.7q7.5 2.9 15.1 6l6 1.8 3.3 1.7q4.1 1.4 8.4 2c1.7.2 3.5 0 5 .5 8.2 2 13-5.2 20.3-5.5 2.5.2 5 1.2 7.6 1 1.6 0 3-1 4.2-2l5-3.1c3.7-2 7.9-2.4 11.9-2.4q4.6 0 9.3.6 3.6.4 6.7 2c1.1.8 2.3 2 3.4 2.6 4.4.9 8.4 3 12.6 4.4" class="b"/><path d="M11.3 135.5a16 16 0 0 0 12.6 3.2q1-.2 1.7.4 1.2.8 2.5 1.2c2.4.5 4.6-.7 6.8-1.4q3.6-1.1 7.6-1h4.2q1.3-.8 2.5-2c4.1-4 6.6-6.5 12.6-4.3q6.9 2.3 13.5 5.3 4.2 1.4 8.5 2.5 6.2 4.1 13.5 4.6c5 1 8.4-.3 12.6-3 2.3-1.6 4.8-3.2 7.6-3.5 2.3-.3 4.5.7 6.7 1 4 .5 4.5 0 7.6-2.2a26 26 0 0 1 7.6-3.6c3.3-.8 6.8-.4 10.1-.4 3.4.1 6.8 0 10.2.6q1.7.4 3.3 1.2c1 .5 2.2 1.6 3.4 1.7 5 1.1 9.4 4.2 14.3 5.8" class="b"/><path d="M11.3 134a13 13 0 0 0 8.4 3.9q1.6-.1 3.4 0 1.6.7 3.4 1a6 6 0 0 0 3.3.5c2-.5 4-2 6-2.6 4.5-1.7 9.5-.8 14.3-1.3 2.5-2.4 4.4-6.7 8.4-6.9 2 0 4 .8 5.9 1.4q3.8 1.2 7.6 2.8 6 2.9 12.6 4.3c2.2 1.3 4.3 2.8 6.8 3.6q4.5 1.5 9.2 1.3c3.1-.3 6-2 8.5-3.8 8.6-6.4 9.7-2.2 18.5-2.2 2.3-1 4.5-2.6 6.7-3.7 4-2.4 8.2-2.3 12.7-1.9q4.2.1 8.4 0 3.6 0 6.8 1.8 3 .4 5.9 1.4c4.3 1.6 8 4.7 12.6 6" class="b"/><path d="M11.3 133c3 2.4 5.1 4.4 9.2 4.2 3.2 1.2 7 2.3 10.2.8 2.4-1.5 4.7-3.5 7.6-4q4.1-1 8.4-1 3-.3 5.9-.2c2.2-2.7 4.2-7.2 8.4-6.1a94 94 0 0 1 11 3.5c2.8 1.2 5.5 2.8 8.4 3.7q1.6.6 3.4 1 1.3 0 2.5.6c4.8 3.1 7.6 4.4 13.5 4 5.3-.1 8.9-4.8 13.5-6.7q3.7-1.4 7.6-.1 3 .6 5.9.8c1.8.2 3.4-1.1 5-1.7 7.1-3.7 8-3.8 16-3.4 2.8 0 5.7-.3 8.5.2 1 .2 2.3.8 3.4 1q2 0 4.2.4c4 .7 7.5 3.2 11 5.2q2.8 1.5 5.8 2.2" class="b"/><path d="m11.3 133.3 2.5 1q1.5 1.3 3.4 2c5.5 1.6 7.9 2.9 13.5 0 1.5-.7 2.9-2 4.2-3 1.2-1 2.9-1.3 4.2-2 3-1.9 5.8-2.7 9.3-1.5q3-.3 5.9.5c.6-.3 1.4-1.5 1.7-2.1a12 12 0 0 1 2.5-3c1.7-1.3 4-.5 5.9 0l5.9 2c3.8 1.3 7.2 3.3 11 4.8q2.3.9 5 1.3 1.7.8 3.4 1.8c3 2 6.6 2.3 10 1.4q3.6-.6 6.8-2c2.7-1.7 5.3-4 8.5-4.6 3.4-.6 6.7.8 10 1.1l3.5.5q1.7-.1 3.3-.7c3.7-1.3 7-3.9 11-4.2q5-.4 10.1 0c1.4.2 2.8 1 4.2 1q4.3-.5 8.4.9c3 1 5.7 3.1 8.5 4.6q3.2 1.4 6.7 2" class="b"/><path d="M11.3 132.9c8 3.7 11.5 7 19.4.6q3.2-2.4 6.7-4.5c2.7-2 5.8-3.9 9.3-3.7q1.8.1 3.4 1.1 3.2 0 5.9 1.8c3.8-7 4.4-6.7 11.8-4.3 5 1.5 9.5 4 14.3 6q2 .8 4.2 1.4 1.3.1 2.5.8c1.6.9 3.3 2 5 2.4 4 .4 7.5-1.8 11-3q2.5-.8 5.1-1.5c4.5-3.1 8.5-2.5 13.5-1.3l7.6 1.4c4 0 7.4-2.4 11-3.8a16 16 0 0 1 11.7 0c2.8-.4 5.7-1 8.5-.4 4.4.7 7.7 4.2 11.8 5.8q3.3.8 6.7 1" class="b"/><path d="M11.3 131.8c6.6 3.6 10.3 7 16.8.7q2-1.8 4.3-3.5l3.3-2q3.9-2.9 8.5-4.4c2.7-.8 5-1 7.5.7 2 .2 3.7 1.4 5.1 2.8.8-.4 1.4-2 1.7-2.7 1.9-3.8 4-3.5 7.6-2.4q6 1.5 11.8 4.3c3 1.4 6 3.2 9.3 4q2.7.6 5 2c3.5 2 7-.8 10.1-2.1q4.9-2.3 10.2-2.5c4.4-1.5 9-.6 13.5.5 3.8.9 7.8 2.2 11.8 1.2 4.1-.9 8.2-3.8 12.6-2.4q1.7-.7 3.4-1.3 2.9-1 5.9-.8c3.8.2 7 2.5 10 4.5q2.5 1.5 5.1 1.5l6 .4" class="b"/><path d="m11.3 130.3 3.3 2.4q1.6.9 3.4 1.6c5.1 2.1 8.6-3.5 11.8-6.5 1.4-1.3 3.4-2 5-3q4.8-3 10.2-4.5c1.9-.4 4-1 5.9-.7.5 0 1.3.6 1.7.9l1.7.6q2 1.2 3.3 3.2c.6-.6 1.5-2.4 1.7-3.2 2-4.3 4.8-2.8 8.5-2.2q6 1.6 11.8 4.2c2.5 1.1 5 3 7.6 3.9q1.6.5 3.3.8l2.6 1.4c3.3 1.7 6.3-1.7 9.2-3 4.2-2 9-2 13.5-1.8q6.7-.3 13.5 1.3c3.9.9 7.8 2.4 11.8 1.8q2.6-.4 5-.9c2.4-.9 4.5-2.5 6.8-3.4q4.7-1.6 9.3-.1c2 .7 4 2.1 5.9 3.3q1.5.8 3.4 1.4l2.5-.1h6.7" class="b"/><path d="M11.3 128.6q3 2.8 6.7 4.3c4.1 1.6 7-2.8 9.3-5.5a14 14 0 0 1 3.4-3l4.2-2c4-2 8.4-3.1 12.6-4.3q2-.7 4.2-.7c1.2.1 2.4 1 3.4 1.6q2 1.7 3.4 4c2.3-7.4 2.5-7.6 10-6.4 2.7.3 5.2 1.3 7.7 2a43 43 0 0 1 11 5.6 14 14 0 0 0 3.3 1.4c.8.2 1.9.4 2.5.8 4.5 3 6.8-3.5 14.4-4q5.9-.3 11.8.2 4.6.3 9.2 1.2 3.4.5 6.8 1.2c1.9.5 3.9 1.2 5.9 1.2 6-.2 10.6-5.8 16.8-5.2q3.1.1 6 1.8c2.2 1.1 6 3.8 8.4 2.8q4-1.5 8.4-1.2" class="b"/><path d="M11.3 127c8.7 7.3 9.6 5.7 16-2.6q1-1.4 2.5-2.1l5-1.8q6.5-2 12.7-3.7c2-.5 4-1.5 6-1.2 2.2 1 3.7 3.3 5 5.4 3.5-7.2 1.3-7.2 10.1-6.8 2.6 0 5.1.8 7.6 1.5q6.6 1.5 11.8 5.5a18 18 0 0 0 4.2 2.4c.8.3 1.9.4 2.5 1 4 1.5 5.6-4.1 13.5-4.2a78 78 0 0 1 14.4.8c4.7 1.1 9.4 3.2 14.3 2.6 2 0 4 .5 5.9.2 4.2-.5 7.7-3.1 11.8-4a13 13 0 0 1 7.6 1c1.6.5 3.3 1.9 5 1.5a22 22 0 0 0 6.8-1.3q3.3-.8 6.7-.3" class="b"/><path d="M11.3 125.2c1.7 1.2 3.2 3 5 4 4.9 2.8 7.5-4 10.2-6.8q1-1.3 2.5-2.1l5-1.2q7.4-1.5 14.4-3.8c1.9-.5 3.9-1.7 5.9-1.2 1.8 1.1 3 3.5 4.2 5.3 1.3-1.4 1.5-4.2 2.5-5.7s2.7-1.5 4.2-1.6q2.6-.2 5 0 2.7 0 5.2.7 3.3.4 6.7 1.6a29 29 0 0 1 9.3 5.5c1.7 1.2 3.7 2.4 5.9 2.5 1.1 0 2.4-.8 3.3-1.4 4.2-3 9.6-2.4 14.4-2.3q3.3 0 6.7.7c2 .6 4 1.7 5.9 2.4 11.2-3.2 9.7 1.5 17.7-.2 3.7-.8 7.2-2.6 11-2.8q2.1-.2 4.2.4 1.2.3 2.5-.2 4.3-.7 8.4-1c3-.5 6.3-.9 9.3 0" class="b"/><path d="M11.3 123.5c1.6 1.3 3.2 3 5 4.1 4.4 2.2 7-4.6 9.3-7.2.6-.7 1.6-1.7 2.5-2q2.6-.3 5.1-.5c5.2-.5 10.2-2.2 15.2-3.7 7.4-2.5 6.1-3 10 3.8 1-.5 1.5-3.1 1.8-4a8 8 0 0 1 1.7-2.9q1.6-.6 3.3-.8 3-.5 6-.3c5 .3 10.3 1 15.1 2.9a25 25 0 0 1 6.8 4.3l2.5 1.8q1.6.6 3.4 1c2.3-.4 4.3-2 6.7-2.5a31 31 0 0 1 8.4-.6c2.3.1 4.6.1 6.8.9l2.5 1.1c1.4.2 2.8-.4 4.2-.6q2.5-.4 5-.5 3 .3 6 1.1 2 .6 4.2 1c3.4.1 6.8-1 10-1.8l3.5-.5c2.2-.7 4.4-1.8 6.7-2.3 5.8-1 12-1.2 17.7.3" class="b"/><path d="M11.3 122c1.6 1.3 3.1 3 5 4 4.3 1.6 6.7-6 9.3-8.3q1.5-1.5 3.4-1.2 2 .2 4.2.1c5.5-.2 10.8-2.1 16-3.8q2.6-.8 5-1.6c1.2-.1 2.1 1 2.6 1.9.3.9 1.1 2.7 1.7 3.4l.8-.7c.6-1.8 1-4.8 2.6-6q1.6-.9 3.3-1 6.8-1.5 13.5 0c4.6 1 9.5 1.2 13.5 3.9 1.4.8 2.6 2.3 4.2 2.7q3.3.8 6.8 1.4c1 .2 2.3-.6 3.3-.8q2.5-.7 5-.7 4-.2 7.7.7 4.6 0 9.2-.3c2.6-.4 5.2.1 7.6.6 2.8.4 5.7 1.2 8.5 1.5 13.6.8 10-9.7 36.2-4" class="b"/><path d="M11.3 121c1.5 1 3.1 2.7 5 3.2 3.9.4 6-6 8.5-8.3 1.2-1.4 2.5-1.4 4.2-1q2 .4 4.2.6c5.5-.2 10.8-2 16-3.6 6.2-2 6.4-3.9 9.3 3.1l.8-.5c1.7-6.1 1.4-6.1 7.6-7.5q3.8-1 7.6-.6 3.4.8 6.7 1.4c3.1.4 6.3.4 9.3 1.3q2.2.7 4.2 1.8l5 1.2c7 1.7 14.1 1 21.1 1.6l4.3.2q1.6-.2 3.3-.2c2.8 0 5.7.6 8.5.9 5.7.6 10.5 2.3 16-.8 2.6-1.4 5.4-3 8.4-3.3 6.5-.4 13 1 19.4 1.9" class="b"/><path d="M11.3 120c6 4.7 7.5.8 11-4 2-2.9 3.2-3.9 6.7-2.4 6.1 1.9 13.4-.7 19.4-2.4l4.2-1.4c1-.4 2.3-1 3.4-.7 1.2.9 1.8 3 2.5 4.2l.8-.1c1.8-6.8 2.3-6 8.5-7.8 6.6-1.6 7.4-.2 13.4 1 3.4.6 6.8.3 10.2.8q5.4 1.4 11 2.6a87 87 0 0 0 16 2l7.5.2 11.8.8c8.7 1 9.8 1.6 17.7-2.8q3.6-1.8 7.6-1.1 8.9 1.6 17.7 2.3" class="b"/><path d="M11.3 119.1c5.2 3 7.3-2 10.1-5.4 1.5-2 3.4-3.5 5.9-2q4.8 2 10.1 1a67 67 0 0 0 14.3-3.5c1.4-.4 2.8-1.4 4.3-1.1 1.4.7 1.7 3 3.3 3.6.7-2.3 1.5-5.6 4.2-6q2.6-.9 5.1-1.6c6.5-2 7.5-.2 13.5 1 3.3.6 6.8.5 10.1.7 3.1.6 6.2 1.6 9.3 2.2q5.4 1.3 11 1.9 4.1.1 8.4.3 3 .2 5.9.6 3.3.3 6.7.2 4.3-.1 8.5.4 3.7 0 7.5-.7c2-.6 4-2 6-2.7 2-1 4.5-1.2 6.7-.6l5.9 1.7q6.2 1 12.6 1" class="b"/><path d="M11.3 117.7c6.2 1.4 7.3-7.7 12.6-8.4 1.5 0 2.9 1.1 4.2 1.6 3.8 1.6 8 .7 11.8.3q6-.9 11.8-2.8c5.3-2.2 3.3-1.3 7.6 1.1 2.3-5 3-4 7.6-5.8q3.7-1.5 7.6-2 2.7.2 5 1c4.2 1.4 8.5 1.8 12.7 2q5.1 1.2 10.1 2.1a83 83 0 0 0 9.3 1.4c2.5.3 5 .1 7.6.4 2.2.2 4.5.8 6.7 1q3.4.1 6.8 0 3-.3 5.9-.2 2 .2 4.2 0 3.3-.6 6.7-1.4l3.4-.7 2.5-1.2q3.4-1.3 6.8 0 2.9 1.4 5.9 2.3 6.2.9 12.6.6" class="b"/><path d="M11.3 115.5c5.4-.6 7.5-10.5 13.5-7.2 4.4 3 8.5 2.4 13.5 1.8q6-.5 11.8-2c4.5-1.5 4.2-2.5 9.2-.8.7-.2 1.4-1.2 1.7-1.8 1.3-1.4 3.4-1.5 5-2.2 3.6-1.2 7.2-3 11-2.8 3.4.5 6.8 1.8 10.2 2.4q3.3.7 6.7 1 5 1 10.1 1.8 3.7.6 7.6.9 2.6 0 5 .4 4.3.8 8.5 1.3 3.7.2 7.6-.3l5-.2q2.2.1 4.3-.1c4-.8 7.8-2.4 11.8-3.1 2.4-.6 5.1-1.3 7.6-.2q2.9 1.5 5.9 2.8c4.3 1 9 .6 13.4.5" class="b"/><path d="M11.3 112.3c3.8-1.6 6.4-7.6 11-6.2 1.7.6 3.3 2 5 2.5 3.2 1.2 6.8.5 10.1.2q6-.5 11.8-1.7 2.6-.6 5-1.5 3-.6 6 0 1.1-1.2 2.5-2 2.1-.5 4.2-1.2c3-1.2 6-2.6 9.3-3.1 4.3-.6 8.5 1.6 12.6 2.6q7.5 1.8 15.2 2.6 6.8.6 13.5 1.6 3.7.6 7.6.9 3.7.1 7.6-.4 3-.3 5.9-.4 1.7.1 3.3-.2c3.7-1 7.2-2.7 11-3.4 2.7-.4 5.8-.8 8.4.3 2 1 3.9 2.4 6 3 4.3 1.2 9 .5 13.4.2" class="b"/><path d="M11.3 108.5c6.5-4.4 6.8-6.1 14.3-1.7 2.9 1.3 6.2 1 9.3.6q7.6-.9 15.1-1.8c3.7-.6 7.3-1.7 11-1.6q2.4-1.4 5-2 3-.9 6-2c2.4-1 5-2 7.6-2 3.1.3 6.2 1.4 9.2 2.4q7.5 2.6 15.2 3.5l12.6 1c5.4.6 10.7 1.1 16 .3q3-.4 6-.4 1.7 0 3.3-.2c3.2-1 6-2.8 9.3-3.5 3.3-.9 6.8-.2 10.1.5 2.1.5 3.9 2.3 6 3q2.4.6 5 .5 4.2 0 8.4-.6" class="b"/><path d="M11.3 105c4-2.4 6.6-3.5 11-1.3 3.6 2 6.8 2.6 10.9 2q5.4-1 11-1.4c2.5-.1 5 .4 7.6 0 3.6-.3 7.2-1.4 11-1.8q2.8-1 5.8-1.7 3.8-1.4 7.6-3 4.2-1.5 8.4-.2c4.4 1 8.4 3 12.7 4 7.4 2.1 15.1 1.6 22.7 2.2q4.3.3 8.5.4c3.3-.1 6.7-.7 10-.9l3.5-.1c2.6-.8 5-2.5 7.5-3.4 3.3-1.3 6.9-.5 10.2.5l4.2.8q1.6 1 3.3 1.7c4.4 1.4 9.1.3 13.5 0" class="b"/><path d="M11.3 102c8.5-3.6 12 2.7 20.2 1.5 3.4-.4 6.7-1.4 10.1-1.3 3.7.1 7.3 1.5 11 1.2q3.8-.3 7.6-1.2 4.3-.8 8.4-2c3.8-.9 7.3-2.8 11-4q3.4-.7 6.7.4c4.3.9 8.3 3.1 12.6 4q5.4 1.4 11 1.5H120q4.6.4 9.3.5 4.3 0 8.4-.6l5-.5c2.2-.7 4-2.1 6-3a10 10 0 0 1 8.4-.2q3.7 1.6 7.6 1.6c1.4.3 2.8 1.3 4.2 1.5 4 .7 8 0 11.8-.4" class="b"/><path d="M11.3 99.6c6.1-1.4 10.9 1 16.8 1.3 3.1.1 6.2-.7 9.3-1q3 0 6 .6 3.7 1 7.5 1.8 3 .4 5.9 0 7.7-1.3 15.2-3.6c3.4-1 6.6-2.7 10-3.6a21 21 0 0 1 11 2q4.2 1.6 8.5 2.6 4.6 1 9.2 1c4-.1 8-.5 11.8 0 2.6 0 5.1.5 7.6.6q3.9-.1 7.6-.8 3.5-.1 6.8-1 2-1.3 4.2-2.5a8 8 0 0 1 7.6-.4q4.8 2.3 10 2c4.7 1.8 9.7 1.2 14.4.7" class="b"/><path d="M11.3 97.9c5.6-.8 11.2.2 16.8.1 2.8 0 5.7-.5 8.5-.5 2.2.1 4.5.8 6.7 1.3 4 1 7.7 2.9 11.8 2.8 4.3 0 8.5-1 12.6-2.1q6-1.5 11.8-3.8c2.7-1.1 5.6-2.1 8.5-1.6 4.8 1 9.4 3.1 14.3 4q4.1 1 8.4 1c3.4-.2 6.8-.6 10.2-.3q3 .1 5.9 1c3.3.7 6.8 0 10-.8q2.2-.4 4.3-.6 1.3 0 2.5-.3l2.6-.9q1.6-1.2 3.3-2.2c2.5-1.4 5.1-1 7.6.2q5.2 2.4 11 2 6.2 1.2 12.6.4" class="b"/><path d="M11.3 96.4q8-1 16-1 3.3-.1 6.7-.1 2.6.1 5.1 1c10.3 1.2 12.4 6.2 24.5 3.8q6.8-1.6 13.4-3.7c2.9-.9 5.6-2.3 8.5-3.1 4.3-1 8.5 1.2 12.6 2.1a40 40 0 0 0 16 1.7q3.4-.3 6.8 0c3 .8 6.1 1.7 9.2 1.7 3.2 0 6.2-1.7 9.3-2.2q2.1-.3 4.2-.2l4.2-1.8c2.6-2 5.3-3 8.5-1.6q3.2 1.6 6.7 2.2 3.7.5 7.6.5c3.3.1 6.8.6 10.1.3" class="b"/><path d="m11.3 95 3.3-.6q2.2 0 4.3-.3 5.4-1 11-.8 3.8 0 7.5 1.2c2.2.3 4.6.2 6.7 1 6.2 2 9.8 5 17 4.3 6.5-.7 12.8-3.2 19.3-4.7 3.3-1.2 6.5-3.5 10.1-3 4.8.8 9.5 2.5 14.4 3.2 3.3.6 6.7.3 10 0h3.4q2.2.9 4.3 1.6 3.7 1 7.5.5c3.3-.2 6.1-2.3 9.3-2.8q2.5-.3 5-.2l2.6-1.2c4.2-2 5-4 10.1-1.8 7.4 3.4 15.7 2.6 23.6 3" class="b"/><path d="M11.3 93.6c1.6-.4 3.4.1 5 0q3-.3 6-1.4c2.7-.8 5.6-.6 8.4-.4 2 .2 4 .9 5.9 1.2 11.4-.6 13.4 5.2 22.7 6 3.5 0 6.8-1.3 10.2-2.1s6.8-1.4 10-2.3l5.1-1.5c2.4-1 5-2.3 7.6-1.9 4.3.6 8.4 1.9 12.7 2.4q5 .6 10 0c1.8 0 3.6 1 5.1 1.6q3.3 1.3 6.8 1c2-.3 4-.3 5.9-1 4.3-2 6.7-3.5 11.8-2.6 1.4-.5 2.8-1.5 4.2-2 1.7-1.2 3.7-2.5 5.9-2 2 .2 4 1.4 5.9 2 4 1.2 8.4 1.6 12.6 2 2.5.1 5.1-.2 7.6 0" class="b"/><path d="M11.3 92.4c3.8.9 6.6.6 10.1-1a10 10 0 0 1 5-1.1l4.3.4c1.3.1 2.8.5 4.2.4 4 .1 8.1 0 11.8 1.6 3.7 1.4 7 4.3 11 5q3.4.3 6.7-.8c2.2-.8 4.4-2 6.7-2.5 2.5-.8 5.2-.3 7.6-1q4.6-1.4 9.3-2 2-.9 4.2-1.2c4.8 0 9.5 1.6 14.3 1.9 2.2.3 4.6-.1 6.8.2l3.3.7q2.1 1 4.2 1.4c3.4.7 6.8-.7 10.2-1.1l2.5-.4 1.7-1q4.4-2.5 9.2-1.1c.9-.3 1.8-1 2.6-1.3 1-.6 2.4-1.3 3.3-2 3-2.2 5.5-1 8.5.3q4.8 1.9 10.1 2.3 3 .5 5.9.8 3 0 5.9-.1" class="b"/><path d="M11.3 92q4.8 1.3 9.2-1.2 2.4-1.4 5.1-2c2.8 0 5.6.7 8.4.5 4 .1 8.1-.1 11.8 1.3 3.5 1 6 4 9.3 5.3 3 1.3 6.4 0 9.3-1.2q3.5-1.2 6.7-2.8 2.5-1 5-1 3.8-1.2 7.7-1 3.4.2 6.7-.1c1.6-.2 3.4-.7 5-.6 3.4.1 6.8.9 10.2 1.1 3.4 0 6.7 1 10.1 1.6 1 .1 2.3.7 3.4.8q3 .4 5.9-.7c3-1 6-2 9.3-1.8 4-2 5.5-2.3 10-1.1q2.2-1.4 4.3-2.6 1.5-1.4 3.4-2.3c2.6-1 5.2 1 7.5 1.9 3.2 1.3 6.8 1.7 10.2 2.1 3.6.6 7.3 1.2 11 .9" class="b"/><path d="M11.3 91.5c3.1.8 6.5.2 9.2-1.5 1.6-.9 3.3-2 5.1-2.3 2.5-.4 5.1 0 7.6-.1 4 0 8-.2 11.8 1 3.5 1.1 6 4.3 9.3 5.9 4.4 2.1 8.7-2.4 12.6-4.1q5.6-3 11.8-3.9 3-.2 6 .4c2.1.6 4.4 1.4 6.6 1.5 3.1.1 6.3-.3 9.3 0 4.5.3 9 1.4 13.5 2q2.2.4 4.2.5 2.6 0 5-1c2.6-.8 5-2.2 7.7-2.6 1.6-.3 3.4 0 5 0q2.5-1.1 5-.6c1.1.1 2.4.7 3.5.6q1.6-1.5 3.3-2.6c1.6-1.5 3.5-3.4 6-3.1 2.3.4 4.4 2 6.7 2.7 3.2 1.3 6.7 1.6 10 2q5.1 1 10.2 1" class="b"/><path d="M11.3 90.7c8.8 1.2 9.5-3.4 16-4.4q5-.4 10.1-.4c3.1.1 6.6 0 9.3 2 2.8 1.8 5 4.8 8.4 5.7 6.5.7 11.2-11.5 25.3-10.5 4.5.1 8.4 2.7 12.6 3.6 3 .5 6.3.4 9.3.8q5.5.5 11 1.2 5.3.7 10.1-1.4c3-1.2 6-3 9.3-3 2-.2 4 .6 5.9.5 1.7-.1 3.4.7 5 1q2.3-2 4.2-4.1c1.9-2 4.1-3.4 6.8-2.2 2 .8 3.9 2 5.9 2.8 3.2 1.2 6.7 1.6 10.1 2q5 1 10.1 1" class="b"/><path d="M11.3 89.5c8.2.4 7.7-.9 14.3-3.8q3.6-1 7.6-1 4.6-.5 9.3 0c5.2.6 9 9.1 14.3 7.2 3-1.5 5.1-4.2 7.6-6.3 5.7-5.4 12-6.2 19.4-4.7 4 .9 7.7 3.3 11.8 4.2q4.6.8 9.3 1 5.4.7 11 .7c3.1-.2 6.2-1.4 9.2-2.7 2.1-.9 4.4-2 6.7-2.3 3.5-.3 7 1 10.1 2.3l.9-.2c2.9-2.9 6-9.2 11-6.8 3 1.4 5.9 3.3 9.2 4 2.8.8 5.7 1 8.4 1.5q4.6.7 9.3.7" class="b"/><path d="M11.3 87.8c2.8-.2 5.7.4 8.4-.4 2-.6 4-1.8 6-2.5q3.6-1.2 7.5-1.4c10.4-.9 9.9-.3 17.7 5.9 2.2 1.5 4.6 1.8 6.7 0 3.3-2.7 5.9-6.3 9.3-8.8 5-3.8 11.9-3 17.7-1.8 4.1.9 7.8 3.1 11.8 4.3a72 72 0 0 0 16 1.6c4 .2 8-1 11.8-2.4 2.2-.7 4.5-1.9 6.8-2.3 3.5-.7 6.9.7 10 2 2-2.2 3.8-4.8 6-6.7 3.1-3 6.3-.4 9.3 1.3a26 26 0 0 0 7.6 2.9q8.3 1.3 16.8 2" class="b"/><path d="M11.3 85.8c2.2-.2 4.5.4 6.7.4 2.7.1 5.1-1.3 7.6-2.1q3.6-1.2 7.6-1.4c3.3-.1 7-1 10.1.6 5.3 2.6 9.7 9.5 15.2 3.3 4.4-4.7 8.8-11 16-10.8q4.7-.1 9.3.6c4.7 1 9 3.3 13.5 4.6 8 2 16.5 2.4 24.4.2 4.5-1 8.8-3.6 13.5-2.6 1.4.1 2.8 1 4.2 1 2.3-2.4 4-5.4 6.8-7.4 3.1-2.3 6.5.7 9.2 2.3q4 2.3 8.5 3.2 4.1.7 8.4 1 4.2.8 8.4 1.2" class="b"/><path d="M11.3 83.7c2.2-.2 4.5.6 6.7.8 2.6.4 5.2-.6 7.6-1.3q3.7-1 7.6-1.2c3.4 0 7-.7 10.1 1.1 2.8 1.4 5.4 3.4 8.5 4.3 3 1 5.7-1.6 7.5-3.8a64 64 0 0 1 5.1-5.6q4.2-4.3 10.1-4.2 4.7-.1 9.3.6c4.3 1 8.4 3 12.6 4.3q6.7 1.9 13.5 2 5.6-.1 11-1.2 4.3-.8 8.4-2 3.9-1 7.6.3c2.7-2 4.2-5.2 6.7-7.3 3.3-3 6.2-1.2 9.3 1q3.9 2.7 8.4 4c3 1 6.2.9 9.3 1.2q5 1 10.1 1.5" class="b"/><path d="M11.3 81.9c2.8-.3 5.6 1 8.4 1q3 0 6-.8c3-.1 6.1-.6 9.2-.7q2 0 4.2.2c3.2.6 6.2 2.4 9.3 3.5 4.2 1.7 7.1.8 10-2.6 2.5-2.7 4.8-5.7 7.7-8 2.6-2.2 6-2.6 9.2-2.5 2.8-.1 5.7-.2 8.5.5 4 1.1 7.8 2.7 11.8 4q5.7 1.6 11.8 2.3c3.6.3 7.3-.5 11-.8l4.1-.7q2.6-.3 5.1-1 2-.7 4.2-.7c1-.1 2.3.3 3.4 0 2.7-2.4 4.7-5.7 7.6-8 5.8-4.3 9 4.9 20.2 6.9 2.5.5 5 .4 7.6.6q5 1 10.1 1.3" class="b"/><path d="M11.3 80.4c2.8-.2 5.6.8 8.4 1h8.4q4.3-.2 8.5-.2c4.9.1 9.4 2.9 14.3 3 4 .2 6.9-3 9.3-5.9a37 37 0 0 1 5.9-5.7c3-2.2 4.8-2.5 8.4-2.5 3 0 6.3-.1 9.3.6 6 2.1 12.1 4.5 18.5 5.5q3 .6 6 .8 2 0 4.1-.3 6-.5 11.8-1.4c2.8-.5 5.6-1.7 8.5-1.3 3-1.9 5-5.2 7.6-7.6 1.3-1.2 3.1-2.5 5-2 2.1.6 4.1 2 6 3.4q4.5 3.3 10 4.8c3.6 1.2 7.3 1 11 1q4.2.9 8.4 1" class="b"/><path d="M11.3 78.9q3.4 0 6.7.6 6.8.4 13.5 1 3.4 0 6.7.4 4.3.6 8.5 1.3c5 .7 8.5-1 11.8-4.6l3.4-3.6c1-1 2.4-2.1 3.3-3.3 2-2.1 5-2.3 7.6-2.4Q78 68 83 69c6.2 2 12.2 4.4 18.6 5.4 2.7.5 5.6 1.2 8.4 1q6.4-.7 12.6-1.8c2.8-.4 5.6-1.6 8.5-1.4 3.2-2 5.4-5.6 8.4-8 1.2-1 2.7-2 4.2-1.8 2.9.6 5.2 2.7 7.6 4.2q5.5 3.3 11.8 4.9c3.6 1 7.3.8 11 .6 2.2.2 4.5.8 6.7.8" class="b"/><path d="M11.3 77.2c5.6.5 11.3-.5 16.8.8 7 1.2 18 3.8 24.5.9 3-1.4 5.3-3.8 7.6-6 1.5-1.3 2.7-3.2 4.2-4.5 2.3-2 5.6-1.5 8.4-1.9 6.5-1 12.5 1.8 18.6 3.7a72 72 0 0 0 16.8 3.5q4.3-.3 8.5-1.1c4.5-.7 9-2 13.4-2.6q3-2.7 6-5.6c1.4-1.4 3-3 5-3.7 2.8-.9 5.4 1.4 7.6 2.8q2.4 1.6 5 2.7c4.7 1.9 9.5 3.7 14.4 4.4 2.8.3 5.6-.1 8.4-.1 1.4 0 2.9.4 4.2.4" class="b"/><path d="M11.3 75.3c3.7.2 7.3-1 11-1.2 5.2-.3 10 2 15.1 3 4.8.8 9.9.5 14.3-1.4q3.3-1.7 6-4.1 2.3-1.8 4.1-4a8 8 0 0 1 6-2.4q3-.1 5.9-.5c2.8-.2 5.6.5 8.4 1l10.1 3.2q7.4 2.5 15.2 3.1c3.7 0 7.4-.9 11-1.7l7.5-1.7c1.4-.4 3.2-.1 4.2-1.3q2.7-2.1 5-4.6c2-1.7 4.1-4 6.8-4 2.2.2 4.1 1.8 6 2.9q3.6 2.1 7.5 3.5c4.7 1.5 9.4 3.4 14.4 4 3.6.3 7.3-.4 11-.2" class="b"/><path d="M11.3 73.3c4.9-.4 9.3-3.2 14.3-2.9 4.3.3 8.4 2.2 12.6 3A26 26 0 0 0 51 71.6c3-1.3 5.6-3.5 8.4-5.2l3.4-2c1.5-.8 3.4-.7 5-.8l6-.3q3 .2 5.9.5 3 .5 5.9 1.6l6.7 2c6.5 2 13.4 3.9 20.2 2.5 5.4-1 10.6-3.2 16-3.5q3.6-2.5 6.8-5.5c1.5-1.4 3-3 5-3.5 2.9-.7 5.3 1.5 7.6 2.7 4.7 2.8 10 4 15.2 5.5q4.1 1.4 8.4 1.9 4.6.2 9.3-.2" class="b"/><path d="M11.3 71.3c2.6-.4 5.1-1.7 7.6-2.8 6.5-3.4 12.6-1.2 19.4-.1a33 33 0 0 0 12.6-2c3.4-1.1 6.6-3.2 10.1-3.8q3-.5 6-.5 4.5-.3 9.2 0 4.3.2 8.4 1.6c4.3 1 8.4 2.6 12.7 3.6 6 1.5 12.5 2.2 18.5.2 3.6-1 7.2-2.2 11-2.7l1.7-.1 2.5-1.9c3-2 5.3-5 8.4-6.7 2-1 4.2 0 6 1q2.4 1.6 5 2.8c4 2 8.4 2.6 12.6 3.8q4.2 1.2 8.5 2c3 .3 6.2 0 9.2 0" class="b"/><path d="M11.3 69.5c2.7-.5 5.2-2 7.6-3.4q2.7-1.7 5.9-2.7c3.8-.7 7.9-.5 11.8-.2 4.8.5 9.6-.7 14.3-1.4q3.4-.7 6.7-1 3.8-.3 7.6-.1c4.2-.1 8.5-.5 12.7.1q4.6.9 9.2 2c4.2 1.2 8.4 2.7 12.7 3.4 10 1.7 11.6 1.3 21-1.8a32 32 0 0 1 7.6-1.2q2.7-1.6 5.1-3.5c2-1.6 3.7-3.8 5.9-5s4.8.1 6.7 1.3q2.8 1.8 6 3c3.7 1.5 7.9 2 11.7 3q4.2 1.2 8.5 2 4.1.2 8.4 0" class="b"/><path d="M11.3 67.7c4.5-.3 7.9-4 11.8-6 4.6-2.3 10-2.5 15.1-2.6q6.4-.3 12.7-.2c4.2 0 8.4.4 12.6.3 4.2 0 8.5-.5 12.7.1 3 .6 6.2.6 9.2 1.3 4 1.2 7.8 2.6 11.8 3.3a122 122 0 0 0 12.7 2c3.2-.1 6.3-1.4 9.3-2.3q4.5-1.6 9.2-1.9c1.6 0 3-1.4 4.3-2.3 2.7-1.9 4.6-5 7.5-6.5 1.7-.7 3.6 0 5.1 1q2.4 1.5 5 2.8c4 1.9 8.5 2 12.7 3.2q4.2 1 8.4 2 4.6.6 9.3.4" class="b"/><path d="M11.3 65.7c5.3.7 9.1-4.3 13.5-6.6q3.1-1.6 6.7-2.4c8-1.8 16.4 0 24.5.7q7 .4 14.3.1 5.4.3 11 .7c2.3 0 4.5 1.1 6.7 1.9q3.3 1 6.7 1.4 4.7.6 9.3 1.7c2.4.7 5 1.5 7.6 1.2 2.9-.3 5.6-1.5 8.4-2.4q3.7-1 7.6-1.5l2.5-.3 1.7-1c3-1.7 5.1-4.7 7.6-7 2.2-2 4.6-1.1 6.8.3 5.7 4 8.7 3.8 15.1 5q5 1.4 10.1 2.4 4.6.7 9.3.5" class="b"/><path d="M11.3 63.3c2.5 1.2 5.3.5 7.6-.9 2.6-1.6 5-3.9 7.6-5.6q2.8-1.5 5.9-2.6c6-2 12.4 0 18.5.8 6.7 1 13.5 1 20.2 1.2l8.5.1c3.3.6 6.7 2 10 2.5 3.7.7 7.5.7 11 1.7 3.2.5 6.1 2.3 9.3 2.7 3 .3 5.8-.9 8.4-1.8q3.7-1.3 7.6-1.9c2-.4 4.1-.3 6-1a19 19 0 0 0 5-4.2c1.3-1.4 2.6-3.2 4.2-4.3 2-1.3 4.2 0 6 1q2.3 1.7 5 2.7c3.2 1.1 6.8 1 10 2q4.7 1.3 9.4 2.2 4.6.6 9.2.6" class="b"/><path d="M11.3 60.7c4.7 2.4 8 1.3 11.8-2 4.3-3.2 8.6-7.5 14.3-7.7 5.2 0 10 2 15.2 2.4 7.8.8 15.7 1.6 23.6 1.4q2.2 0 4.2.7c2.8.3 5.6 1 8.4 1.3 4 .6 8 .4 11.8 1.6 3.2.9 6 2.9 9.3 3.5 2.6.4 5.2-.5 7.6-1.4q3.3-1.2 6.7-1.9 4.3-.7 8.4-1.5c3.6-1.8 5.8-5.3 8.5-8 2.2-2.3 4.5-1 6.7.4q2.4 1.6 5 2.4c4 1 8 1 11.9 2.4a54 54 0 0 0 16 2.2" class="b"/><path d="M11.3 58c1.5.8 3.2 2 5 1.8 1.7-.3 3-1.7 4.2-2.9 1.9-1.8 3.6-4 6-5.2q1.6-.7 3.3-.7c.8 0 1.8.2 2.6-.3 3.7-2.7 8.5-2 12.6-.7a59 59 0 0 0 8.4 1.6c7 .8 14 1.8 21 1.8q1.8.1 3.5.5l4.2.4q6.7.7 13.5 1 4 .3 7.6 2.2c2.4 1.2 4.8 2.9 7.5 3.2 2.4.3 4.7-.5 6.8-1.3q3.3-1.3 6.7-2 3.4-.5 6.8-1.2c1.3-.5 3-.7 4.2-1.7l3.3-2.8c1.2-1.2 2.3-3 3.4-4.1 1.8-2 3.8-1.7 6-.4q2.3 1.6 5 2.5c2.4.7 5 .9 7.6 1.4q3.3.8 6.7 1.8c4.3 1.4 9 1.2 13.5 1.6" class="b"/><path d="M11.3 56.2c2.2 1.6 4.6 2.4 6.7.1 2.7-2.6 4.3-6.5 7.6-8.5 2.9-1.5 6.3-.7 9.3 0 4.3-2 9.1 0 13.5 1 5 1 10.1 1.5 15.1 2.4q4.6.7 9.3.9 4.2.7 8.4.7c4.5.2 9 0 13.5.6q3 0 6 1.1c3.2 1.2 5.9 3.8 9.2 4.8 3.8 1.1 7.4-1.4 11-2.3 2.7-.8 5.6-1 8.4-1.7 1-.3 2.3-1 3.4-1.2l3.3-1q2.3-1.6 4.2-3.5c2-2.5 3.9-6.7 7.6-4.6q3 1.7 6 2.7 2.4.5 5 .9l3.4.8q4.2 1.2 8.4 2.3 5 1 10.1 1.2" class="b"/><path d="M11.3 54.6c1.9 1.3 4.2 1.7 5.9-.1 2.2-2.4 3.7-5.6 5.9-8 1.9-2.4 4.7-2.9 7.6-2.5 2.2.2 4.5 1 6.7 1.4q2.5-.5 5-.2 4 .8 7.7 1.7l7.6 1.5A96 96 0 0 0 75.4 51c5 .1 10-.2 15.1.3q4.3.5 8.5.8c3.6 1.2 6.5 4 10 5.6 3.2 1.4 6.5 0 9.3-1.2q3.3-1.4 6.8-1.8 1.6-.2 3.4-.6l1.6-1q3-1.4 6-1.7 1.9 0 3.3-1.6c2.2-1.6 3.3-4.2 5-6.1 1.5-1.5 3.5-1.1 5.1-.2q2.5 1.3 5 2l6 1.5 5.9 1.3q3.3 1.1 6.7 2l7.6 1" class="b"/><path d="M11.3 53.2c3 1.7 5-.3 6.7-2.7 2.6-3.7 4.8-9.4 10.1-9.1q4.3.2 8.5 1.4c1 .1 2.2 1 3.3.7 4.3-.4 8.6 1 12.7 1.9 2 .4 3.9 1.6 5.9 1.8 4.2.7 8.3 2 12.6 2.1q4.6.1 9.3.1l11 .8q3.3.5 6.7.5c3.4.8 6.2 3.4 9.3 5 4.8 3 8.8.4 13.4-1.3q3-.9 6-1.3 2-1.4 4.2-2.5 2.4-1.2 5-1.2c1.4 0 3.2.5 4.2-.7 2.3-1.6 3.4-4.4 5-6.4 2-2.3 4.6-.8 6.8.2q2.6.9 5 1.5c3.3 1.5 6.9 1.5 10.2 2.4q3.3 1 6.8 2 3.3.9 6.7 1.1" class="b"/><path d="M11.3 51.8c4.6 1.4 7-5.4 9.2-8.2 2.6-3.8 4.8-4.9 9.3-4.3q5.8.4 11 3.1 4.3 0 8.4 1 2.6.7 5 1.8 2.6.2 5.1.7 3.3.9 6.8 1.5 5 .5 10 .3c2.6 0 5.2.7 7.7.9 4.7.3 9.5.9 14.3.9 5 1.7 8.8 6.5 14.3 6.3 3.9-.2 7.3-2.5 11-3.4l2.5-.6c1-.8 2.3-2 3.4-2.7 2.5-1.5 5.5-2.8 8.4-2 1 .2 2.3.7 3.4.5 2.3-1.7 3.3-4.7 5-6.9 1.7-2 3.8-1.4 6-.5 1.5.8 3.5 1 5 1.8 3.4 1.8 7.4 1.5 11 2.4 4.2 1.2 8.3 2.8 12.6 3.3" class="b"/><path d="M11.3 50.2c5 0 7.4-8.1 11-11 1.7-1.9 4.3-2.2 6.7-2q3.9.4 7.6 1.6 2.2.9 4.2 2.2 1.1.9 2.5 1.2l4.2.6 4.2 1.1q2.6 0 5 .4c2.9.4 5.7 1.2 8.5 1.4 3 .3 6.2 0 9.3.3q5 .8 10.1 1.4l8.4.8c1.4.2 3-.1 4.3.3 2.9 1 5.6 2.8 8.4 4.3 7.5 4.1 12.2-.3 19.4-2.3 3-3 6.6-5.8 11-6.2 2 0 4 1 5.8 1.6l.9-.2c2-2 2.7-5.5 5-7.4 1.5-1.2 3.5-.5 5 .1l3.5 1.1q1.2.7 2.5 1.3c3.2 1.3 6.8.9 10.1 1.6 4 1 7.8 2.6 11.8 3.2" class="b"/><path d="M11.3 48.3c6.2-1.9 7.4-10.3 13.5-12.5 3.8-1 9.3 0 12.6 2.1q2.8 2.1 6 3.7l5 1q2 .4 4.2.3 2.5 0 5 .3 3.3.6 6.8.8 3.7-.1 7.6 0 5.4.8 11 1.7l10 1c3.3.6 6.4 2 9.3 3.3 2.7 1.3 5.4 2.8 8.5 3 2.9.4 5.7-.6 8.4-1.7q2.6-.9 5-2.1c3.5-3.4 7.7-7 12.7-7.2 2.4 0 4.6 1.4 6.7 2.4 2.2-2.6 3-8 6.8-8.6q3 .5 5.9 1.6 3 2 6.7 2.5c2.2.2 4.6 0 6.7.5 3.7.7 7.3 2.2 11 3" class="b"/><path d="M11.3 46.2c8.2-3.8 8.5-15.3 21-11.8 3.7 1 6.4 4 9.3 6.1q2.6.6 5 1 2.6.4 5.1 1c2.3 0 4.5-.8 6.8-1q7.6-.3 15.2.8 5 1 10 1.9a58 58 0 0 1 19.5 5.1c2.6 1.2 5.4 2.4 8.4 2.4 3.9 0 7.5-1.8 11-3.2 2.8-2.6 5.7-5.3 9.2-6.9 2.6-1.3 5.7-2.1 8.5-1l2.5 1.3 1.7.3c2.2-3 3.4-9.6 8.4-7.8 1.8.5 3.6.9 5 2a13 13 0 0 0 6 1.9c2.2 0 4.5-.3 6.7 0 3.4.6 6.7 1.9 10.1 2.6" class="b"/><path d="M11.3 44c7.1-3.7 10.1-14.2 20.2-10.8q3 1.3 5 3.8c.8.8 1.7 2 2.6 2.5l1.7.4c1-.9 2-2.2 3.4-2.7 2.6-1 5.6-.3 8.4 0q6.7.7 13.5 1.9 9 1.3 17.7 3.4c2.2.5 4.6.6 6.7 1.3 5.7 1.7 11.2 4 16.9 5.8a19 19 0 0 0 14.3-2.4q3.4-3.5 7.6-5.9c3.3-1.8 7.2-4 11-2.4q1.2.3 2.5.2 1.3.3 2.5.8c1.8-2.9 3.1-8.7 7.6-7.3l3.4.8 2.5 1.6q3.1 1.9 6.7 1.7c2 0 4-.4 6-.2 3.1.2 6.2 1.2 9.2 2" class="b"/><path d="M11.3 41.8c3.8-2 6.5-5.7 10.1-8 3-2 7.2-2.4 10.1 0 1.7 1.3 2.8 3.3 4.2 4.8 3-3.4 2.7-7.4 8.5-7.3 6.8.5 13.6 2.6 20.2 4.4 4.7 1.5 9.5 2.4 14.3 3.6 3.1.6 6.1 1.8 9.3 2.2 3.7 1 7.3 2.7 11 4 7.7 2.9 13.1 4.7 21 .9 2.2-1.8 4.2-4 6.8-5.2l5.9-3c1.8-.9 3.8-1.7 5.9-1.4a11 11 0 0 1 5-.4l2.5.9c1.4-2.7 2.9-7.5 6.8-6.5q2.1.4 4.2 1.1 1.6 1.3 3.4 2.2 2.7 1.5 5.9 1.2c2.2-.2 4.5-.7 6.7-.6 2.6 0 5.1.7 7.6 1.3" class="b"/><path d="M11.3 39.5c5.2-2.5 10.5-9.7 16.8-6.4q1.5 1 2.6 2.3c.3.4 1 1.3 1.7 1.4 1.4-2.4 2.6-8.2 5.9-8.5 2 0 4 1 5.9 1.4q4.1.8 8.4 1.3c6.8 1 13.5 3 20.2 4.7q6.4 1.4 12.7 3.4 4 .7 7.5 2.5c4.7 2 9.4 4 14.4 5q5.6 1 11-1.3c2-1.3 3.7-3.3 5.8-4.4 4.2-2 8.2-4.5 12.7-5.7 2.8-1.3 6.4-2.5 9.2-.7l.9-.2c3-6.3 3.9-5.7 10.1-4.2 2.6 2.2 5.7 4.3 9.3 4 2.2 0 4.5-.7 6.7-.9q3.8-.2 7.6.4" class="b"/><path d="M11.3 37.3c4.2-1.9 8.5-6.1 13.5-4.8 1.5.5 2.7 2 4.2 2.6 1.5-2.2 3.1-9 5.9-9 1.9.5 3.4 2.1 5 3.2 3 2 6.8 1.7 10.2 1.8q8 .1 16 1.2 6.8 1.1 13.5 3 3 .5 5.9 1.8c2 .6 4 .9 5.9 1.8 4.9 2.4 9.8 4.8 15.2 6 3.3.6 6.9.3 10-.8 2.2-1.1 4-3 6-4.2q4.7-2.1 9.2-4.2l6-2.8c2.8-1.4 6.4-2.9 9.2-.7 3.5-4.8 2.9-5.7 9.3-4.1 1.3.2 2.3 1.7 3.4 2.4 1.9 1.4 4.3 2.6 6.7 2.6 4.8-.1 9.5-2 14.3-1.5" class="b"/><path d="M11.3 35q2.1-.9 4.2-2c2.1-1.5 5-2.5 7.6-1.7 1.1.2 2.2 1.3 3.3 1.2l2.6-5.3c.5-1 1.3-2.5 2.5-2.9 2.8.4 5 6.8 10.1 7.5 5 .3 10.2-.6 15.2-.5 5.3-.2 10.7-.7 16 .3 4.6.9 9.2 1.8 13.5 3.6q2.7.6 5 1.6c5.2 2.6 10.4 5.5 16 6.4q4 .4 7.7-.6 2.7-1.2 5-3.2c2.5-1.8 5.7-2.3 8.5-3.7q5.5-2.5 11-5.3c1.8-.8 3.8-1.8 5.8-1.4.8.1 1.7.8 2.6.9 1-2 2.5-4.5 5-4.2q2.3.1 4.2 1a16 16 0 0 0 8.5 5c5 .7 10-1.4 15.1-1.8" class="b"/><path d="M11.3 32.8c1.2-.4 2.2-1.7 3.3-2.4a8 8 0 0 1 9.3-.2c1.5-2 2.4-6.5 5-7.2 3.5 1.3 4.4 9.2 11.9 9.2q8.4-1 16.8-1.5c4.2-.3 8.5-1 12.7-1 4.9 0 9.6 1.3 14.3 2.5q3 1.2 6 2c4.6 2.4 9.2 5.2 14.2 6.6q4.3 1.3 8.5.3c2.4-.9 4.5-2.6 6.7-3.9 2-1.2 4.6-1.4 6.8-2.4q6-2.6 11.8-5.4c2.8-1.3 6.6-4 9.2-1 2.7-3.8 3.5-5.4 8.5-3.8 2.3 2 4.6 4.2 7.5 5.2 5.6 1.7 11.4 0 16.9-1.2" class="b"/><path d="M11.3 29.7c2-1.8 4.7-3.4 7.6-3.1 1.1 0 2.2.8 3.3.7 1.2-1.8 2-5 4.2-5.5 4.4 1.9 3.9 12.3 15.2 9.6 7-1.8 14.1-1.2 21-2.1 6.2-1 12.6-1.7 18.6-.1l5.1 1.3c1.6.8 3.5 1.2 5 2 5.6 3 11.3 6.8 17.8 7.1 4.1.3 7.4-2.8 11-4.5q2-.7 4.1-1 3-1 6-2.3 4.1-1.9 8.4-3.8c2.8-1.3 6.6-4.5 9.2-1.3l.9-.4c1.6-3.2 4-5.3 7.6-3.3q3 3.2 6.7 4.8c5.7 2.3 12 1.1 17.7-.4" class="b"/><path d="M11.3 26.4a10 10 0 0 1 6.7-2c.8.2 1.7.7 2.5.6.9-1.5 1.7-3.7 3.4-4.3l.9.1c2 1.7 2.8 4.6 4.2 6.6 2.8 4.7 8.2 4 12.6 2.5a36 36 0 0 1 9.3-1.5q4.6.1 9.3 0c6.7-.5 13.4-2.6 20.2-1.5q3 .6 5.9 1.4c1.5.4 3.6 1.3 5 2 5.3 3 10.6 6.9 17 7.3 4 .5 7.3-2.6 10.9-4 1.5-.8 3.4-.9 5-1.3q3.5-1 6.8-2.6 4.4-1.4 8.4-3.6c2.8-1.4 6-4.2 8.4-.6l.9-.1c1.2-2.4 3.6-6.2 6.7-4.3 2.1 1.6 4.2 3.6 6.8 4.7 5.7 2.6 12.5 1.9 18.5.4" class="b"/><path d="M11.3 23.5c2.3-1 5.2-1.5 7.6-.3.8-1.3 1.6-3.5 3.3-3.7 1.2.3 2 1.8 2.6 2.7 1.2 2.2 2.2 5 4.2 6.6 1.6 1.3 3.9 1.4 5.9 1.1 3.8-.5 7.2-2.6 11-3.2 3.6-.7 7.3-.2 11 0q5 .5 10-.3c4.8-.7 9.6-1.7 14.4-1.4q2 .4 4.2 1 2.5.5 5 1.5c2.4 1.1 4.5 3 6.8 4.2 3.2 2.1 7 3.8 11 4s7.3-2.8 10.9-4.1c1.8-.8 4-.8 5.9-1.4l7.6-2.6q4-1.3 7.6-3.5c3-1.8 5.2-3.3 7.6.3h.8c7.9-14.7 5.2 6.3 32 .5" class="b"/><path d="M11.3 21.1q3-1 5.9.2c.8-.9 1.6-2.3 2.5-3l.9-.2c1.1.4 2 2 2.5 3 1.4 2.4 2.5 5.6 5 7.1 4 1.8 8-.6 11.8-1.5q4.6-1.4 9.3-2.6c1.6-.4 3.4.1 5 .3a45 45 0 0 0 12.7.8c4.8-.5 9.5-1.9 14.3-2.1 1.4-.1 2.9.6 4.2.8l5.1 1.2c2.4 1 4.5 3 6.7 4.4 3.5 2.5 7.6 4.4 11.8 4.1 3.8 0 6.8-2.7 10.2-4 1.5-.6 3.4-.7 5-1.1l8.5-2.5q4-1.3 7.6-3.6c3.4-2.2 5-2.6 7.5 1.2l.9-.4c2.5-4.6 2.9-7.8 8.4-3.7a30 30 0 0 0 23.6 3.9" class="b"/><path d="M11.3 19c1.3-.2 3 0 4.2.5l.8-.4c.6-.9 1.4-2.3 2.6-2.4 3.5 1.5 4 9 8.4 10.5 2.5.7 5.2 0 7.6-.9q2.2-.2 4.2-1 4.5-1.6 9.3-2.5l2.5-.8q.9-.5 1.7-.2C66 25 68 24.2 81.2 21.4c1.4-.3 3 .2 4.2.6q2.6.6 5.1 1c2.3.3 4 2.3 6 3.5 3.5 2.9 7.8 5.7 12.5 5.2q2.2-.3 4.3-1c2.2-1 4.3-2.5 6.7-3.2 4.2-1.2 8.5-1.7 12.6-3.2a35 35 0 0 0 8.5-4.2c3.7-2 4.3.1 6.7 2.4 2.6-5.6 2.9-8.4 9.3-4.5q1.9 1.6 4.2 2.6 1.6.5 3.4.6c1.3.4 2.8 1 4.2 1q6 .8 11.8-.4" class="b"/><path d="M11.3 17.2c1 0 2.3.6 3.3 1 .6-1.1 1.4-2.7 2.6-3.1l.8.2c2 1.6 2.9 4.5 4.2 6.7 2.4 4.4 6.7 4.7 11 3 3.2-.5 6.2-1.8 9.3-2.6 3.6-1 7.5-1.4 11-3 9.3 2.8 14.6 4.4 24.4 1.5q2.5-.7 5-1.3 1.3.1 2.6.4l4.2 1 4.2.9 1.7 1.3c4 3.4 8.7 7.4 14.3 6.4 3.7-.5 6.7-2.8 10.1-4q2.5-1 5-1.1a46 46 0 0 0 13.6-4.8c2.7-1.8 5.2-3 7.6.2l.8.2c2-1.6 2.2-6 5.9-5.3 1.1.3 2.5.7 3.4 1.5q2 2.3 5 3.2 3 .8 6 .6a33 33 0 0 0 13.4.1" class="b"/><path d="m11.3 16 1.7.7c.7-1 1.5-2.4 2.5-3.2h.8c1.2.4 2 2 2.6 3 1 1.7 2 4 3.3 5.5 2.5 2.8 7 2.7 10.2 1.1 3.7-.4 7.2-2.1 11-2.8 2.4-.5 5-.7 7.5-1.5q2.1-.8 4.2-1.4l2.5.9A30 30 0 0 0 77 20c2.6-.5 5-1.8 7.6-2q5.4 1.4 11 2.3c8.6 7.5 11.9 10 22.8 4q2-1 4.2-1.5 2.5-.1 5-.8c2.8-.9 5.8-1.6 8.5-3 3-1.6 6.3-4.2 9.2-.9h1.7c1.9-3.8 3-6 7.6-4.3 1.1.9 2.2 2.2 3.4 3q1.6 1 3.3 1.4 3.8.9 7.6.5 6 1 11.8 0" class="b"/><path d="M11.3 15.3c1.2-1 1.7-3.2 3.3-3.7 2.4.6 3.6 4.9 5.1 6.8 2 3.2 5.7 4.4 9.3 3.7 1.1-.2 2.2-1 3.3-1.2 3.2-.4 6.2-1.7 9.3-2.2q3.8-.4 7.6-1 3.5-.8 6.7-2.3c2.6.8 5 2 7.6 2.8a26 26 0 0 0 16.9-.3l5-1.5 11 1.9c1.6.5 2.9 2.3 4.2 3.3 2.8 2.4 6.3 4.7 10.2 4 3.6-.6 6.6-3 10-4.2q2.2-.7 4.3-.9 3-.6 5.9-1.6 2.6-.7 5-2c2-1.1 4.5-2.3 6.8-1.5 1 .4 2.1 1.5 3.4 1.3 1.7-3.1 3.4-6.3 7.6-4.5 2.4 2.4 4 4 7.5 4.5q4.7 1.1 9.3.4 5 .8 10.1 0" class="b"/><path d="M11.3 11.5A5 5 0 0 1 13 9.8l.8.1c1.5 1 2.4 3 3.4 4.5 1.2 2 2.8 4 5 5q3.3 1.1 6.8.3l2.5-1.1 2.5-.5q3.3-.7 6.8-1.3l6.7-.5c3.2-.3 6.3-1.5 9.3-2.7 3.1 1 6 2.6 9.3 3.4 6.9 2 12.8.4 19.4-1.7 1.8-.8 4 .1 5.9.3 2.2.3 4.5.2 6.7.6 4.2 3.6 9 9.2 15.2 6.8 2.5-1 5-2.6 7.6-3.5q2.8-1 5.9-1.5 3-.7 5.9-1.8c5.4-2.2 6.8-3.7 12.6-1 1.6-2 3.5-6 6.7-5 1.2.7 2.3 2 3.4 2.7q2.7 1.7 5.9 2.2 5.4 1.2 11 .4 4.1.6 8.4-.1" class="b"/><path d="M11.3 8h.8c1.9 1 2.9 3.4 4.2 5 2.6 3.5 6.7 5 11 4.4q1.8-.4 3.4-1.3 3.7-.8 7.6-1.3c3.6-.2 7.3.1 11-.5 2.8-.4 5.6-1.6 8.4-2.6 3.3 1.4 6.6 3 10 4 6.3 1.5 12.6 0 18.6-1.8 2-.7 4-.4 6-.3q3.3 0 6.7.2c3.5 2.7 6.3 7 11 7.8 2.7.3 5.2-1.3 7.5-2.6 3.8-2.5 8.4-2.8 12.7-4.1q3.3-1.2 6.7-2.3 3.4-.7 6.7.2c2.2-1 3.5-3.6 6-4 1.2-.2 2.4.6 3.3 1.3q1.5 1.2 3.4 2 5 1.5 10 2 3.6.4 6.8-.4 3.8.5 7.6 0" class="b"/></svg>