<svg xmlns="http://www.w3.org/2000/svg" id="a" width="1920" height="2400" viewBox="0 0 192 240"><defs><style>.b{fill:none;stroke:#fff;stroke-miterlimit:10;stroke-width:.3px}</style></defs><path d="M0 0h192v240H0z" style="stroke-width:0"/><path d="M12.4 225.9q3.7.2 7.5 0 6 .3 11.6-1.4 5.3-1.5 10.8-2.8c4.9-1.3 6.6-2 9.2 3 6-12.1 6 1.5 19.1 2.8l8.3.7c3.3.4 6.7 1.1 10 1q3-.1 5.8-1 2.2 0 4.2-.6c1-.4 2.3-.1 3.3-.3q2.7-.5 5-2c2.9-2.1 5.4-4.8 8.3-6.7 1.1-.6 2-2 3.4-1.8s2.4 1.3 3.3 2.2c1.7 1.6 3.3 3.7 5 5.4 4.6 4.7 8.7 5.2 15 4.2 5-.6 10-1.4 15-1.2 8.4 6.3 12.9 5.1 22.4 2.8" class="b"/><path d="m12.4 223 2.5 1.4 5.8-.3c3.6-.2 7.3-.2 10.8-1q4.5-1.4 9.2-2.6c3.1-.8 6.3-1.4 8.3 1.9l.8.2c4.6-8.2 6.6-3.2 12.5-.2q3.6 1.8 7.5 2.5 4.5.7 9.1 1.3c3.3.6 6.7 1.4 10 1.4q1.7 0 3.3-.3a20 20 0 0 0 6.7-.8c1.6-.4 3.5-.5 5-1.2 1.3-.6 3-1 4.2-2 3-2.3 5.5-5.6 9.1-7.3 3-2 7 3.9 9.2 5.7 5.8 5.6 9.1 5.1 16.6 4q7.1-.7 14.2-.3c4 3 9 5.5 14.1 4.6 2.8-.6 5.5-1.7 8.3-2" class="b"/><path d="M12.4 220.7q2.2.7 4.1 1.9c.7.3 1.7 0 2.5 0 4.4-.5 9-.4 13.3-1.3q3.4-.6 6.7-1.6 2.5-.7 5-.1c.4 0 1.3.5 1.7.8q.6.8 1.6 1c1.7-2 3.6-5.6 6.7-4.7 1.7.4 3.4 1.5 5 2.3q2.3 1.1 5 1.9c4.5 1.5 9.4 2.2 14.1 3.2 4.1.8 8.3 2 12.5 1.8q3.7.6 7.5-.5 3-.6 5.8-1.9l2.5-1c.8-.2 1.9-.4 2.5-1 3.2-2.5 6.3-7.8 10.8-7 3 1.2 5.2 3.9 7.5 6 6 5.4 11.8 5.6 19.1 2.8 1.3-.5 2.8-1 4.2-.6l5.8.5c1.5.4 2.8 1.8 4.2 2.5 2.8 1.5 6 3.2 9.2 2.5 3.3-.7 6.5-2.2 10-2.5" class="b"/><path d="M12.4 218.7q3.8.7 7.5 2.2 5-.2 10-.8c4.6-.2 9.8-2.7 14 .2 1.8-1.4 3.4-3.3 5-4.6 3.7-1.9 8.2 1.6 11.7 2.4q2.5.6 5 1l10 2.3c3.6.8 7.2 2 10.8 2.5l2.5.3 2.5.6c3.1.1 6.2-.8 9.2-1.4 2.7-1.2 5.3-3 8.3-3.2 2.7-1.8 4.5-5 7.5-6.4 3.2-1.4 6.1 1.4 8.3 3.4q2.4 2.2 5 4c4.1 2.8 9.4 3.3 14.2 2 4-1.2 8.1-2.7 12.4-2 11.7 9.4 11 4 23.3 2.3" class="b"/><path d="M12.4 217q3.7.1 7.5 1c1.6.3 3.3 1.1 5 1l7.4-.6q3.7-.7 7.5 0 2.2-.8 4.2-2.1 1.1-1 2.5-1.8c1.8-1 4-.6 5.8-.3q3.4.6 6.7 1.6 4 1 8.3 1.4a317 317 0 0 1 17.5 4.5l3.3.6 1.7.7c2.1.6 4.5 0 6.6-.5 1.6-.4 3.6-.3 5-1.2a19 19 0 0 1 5.8-2.7c1.1-.3 2.5 0 3.4-.8 2.3-2.2 4.6-6 8.3-5.3 3.6 1 6.1 4 9.1 6 6 4.4 13.1 4.8 20 2.5q2.5-.7 5-1c1.1-.1 2.5-.3 3.3.6 3.7 2.8 7.8 5.6 12.5 3.7q5.3-2.1 10.8-3" class="b"/><path d="M12.4 215.4q4.5.1 9.1.5 4.2.4 8.3.6 6.9-.3 13.3-2.8c3.4-1.7 7.3-.6 10.9-.6q7.1.8 14.1 2c5.6 1.3 11 3.2 16.7 4.4l2.5.6q2.2 1.6 5 1.3c2.7-.4 5.5-1.3 8.3-1.6 1.3-.8 2.7-1.9 4.1-2.4q2-1 4.2-1.1 1.3.1 2.5-.5c1.2-1.3 2.6-3 4.1-3.8 4.3-2 8.3 2 11.7 4q3.8 2.7 8.3 3.9 4.6.9 9.2.4c3-.5 6-1.4 9.1-1.6 2.7 1.5 5.2 3.6 8.3 4.3 3.2.8 6.3-.7 9.2-1.8a50 50 0 0 1 8.3-2.4" class="b"/><path d="M12.4 214q10.8.5 21.6-.2c3.4-.3 6.7-1.4 10-2q2.5-.2 5-.2l5.8-.3q7.6 0 15 2 3.7 1 7.5 2.2l8.3 2c.9 0 1.7.8 2.5 1.2 2.3 1.4 5 .8 7.5 0q2.5-.6 5-1 1.9-1.6 4.1-2.6 3.3-1.1 6.7-1c1-.3 1.8-1.4 2.5-2 4-4 9.4 0 13.3 2.1 2.8 1.6 6 3.2 9.2 3.7 5.2.9 10.6.3 15.8-.4 2.9 1.6 5.7 3.8 9.1 4.2 3 .4 5.7-.9 8.3-2 3.3-1.3 6.6-2.6 10-3" class="b"/><path d="M12.4 212.6q7 .5 14.1.4 4.2 0 8.3-.3 4.6-1 9.2-2 2 0 4.1-.2c4.4-.7 8.9-1.6 13.4-1q6.3.7 12.4 2.8 5 1.5 10 2.6l1.7.3 1.6 1q2 1.4 4.2 1.4c2 0 4-.9 5.8-1.3 1.1-.4 2.5-.3 3.4-1.1 3.1-2.7 7.5-3.5 11.6-3.2 1-.1 1.8-1.2 2.5-1.7 2.5-1.8 5.8-1 8.3.2 3.6 1.5 7 3.7 10.9 4.8q3.6.9 7.4.9h6.7c.7 0 1.8 0 2.5.2l2.5 1.6q3 2 6.7 2.4c3.2.3 6.2-1 9.1-2.3q3.7-1.6 7.5-2.8l3.3-.7" class="b"/><path d="M12.4 211c6.9.5 13.8 1.4 20.8 1.2 3.4-.3 6.6-1.5 10-2.3q2.3-.5 5-.8l6.6-1.5c7.5-1.6 14.6 1 21.6 3.2q4.6 1.2 9.2 2 1.6 1.5 3.3 2.3c2.4 1 5.1 0 7.5-.7.7-.2 1.8-.4 2.5-.7l3.3-2.4c3.6-2 7.8-1.6 11.7-1.4 3.2-3 7.2-1.8 10.8-.2 3.3 1.3 6.5 3 10 3.8q3.3.6 6.7.4c2.1.2 4.5.1 6.6.6 2.7 2.2 5.8 4 9.2 4.6 4.4.7 8.5-1.5 12.5-3.2 3.1-1.6 6.6-2.4 10-3.6" class="b"/><path d="M12.4 209c6.7.5 13.2 2.2 20 2.5 3.4-.2 6.7-1.4 10-2.3l6.6-1.6q3.3-1 6.6-2a29 29 0 0 1 15.9 1.1c3 1 6 2.6 9.1 3.2 1.6.4 3.4.2 5 .6l1.7 1.3c3.2 2.6 6.5 1.5 10 0 1.5-1 3.2-2.4 5-3.2 3.8-1.6 8.3-1 12.4-.3 4.6-3.2 9.6-.2 14.2 1.4q2.8 1.2 5.8 1.7t5.8.4l4.2.3q1.3.8 2.5 1.9c2.8 2.2 6.3 4 10 4.1 4 0 8-2 11.6-3.6q5.4-2.4 10.8-4.4" class="b"/><path d="m12.4 207.8 5.8-.1c3.6.5 7.2 1.5 10.8 2.2 4.2.9 8.5-.2 12.5-1.4q3.7-1 7.5-2.2c2.2-.7 4.4-1.8 6.6-2.4q4.1-1.2 8.4-1.3 6.1.5 11.6 3c3.2 1.6 6.4 3.2 10 3.4 2.2 1.4 4.9 2.7 7.5 2 4-1.3 7.2-5 11.6-5.2q5.5-.3 10.9.8c1 0 2.2-.8 3.3-.9 3.2-.5 6.2 1 9.1 2a44 44 0 0 0 11.7 2.3q1.3-.1 2.5.4c4 3 8.1 6.5 13.3 6.5 3.2 0 6.3-1.2 9.2-2.3 5-2 9.8-4.8 15-6.6" class="b"/><path d="M12.4 206.7c3.3.4 6.7 0 10-.4 3.5.8 7 2.3 10.8 2.2q4.6-.1 9.1-1.4 4.7-1.1 9.2-3 3-1.6 6.6-2.5 2.9-1.2 5.9-1.5c2.5-.2 5 .6 7.4 1 4 .7 7.4 3 10.9 4.8q2 1 4.1 1.6 1.6.7 3.4.9c4.5.3 8.1-3.3 12.4-4 4.7-.9 9.5-.1 14.2.6 1 .3 2.3-.3 3.3-.5 2.8-.4 5.7.5 8.3 1.3q5 1.5 10 2.4 3.4 2 6.7 4.1c5.7 3.7 10.4 3.9 16.6 1.5q4.8-1.5 9.2-3.7l9.1-4" class="b"/><path d="M12.4 205.5q4 .8 8.3.2c1.6-.1 3.3-1 5-1q8.1 3 16.6 1.2c5.6-1 10.5-4 15.8-6 3-1.7 6.5-3.1 10-2.4q2.5.6 5 .9c3.4.5 6.4 2.3 9.2 4.3 3.3 2.3 6.7 3.9 10.8 2.5 8.2-3 13.8-3 22.4-2q2.2.3 4.2.3 3-.4 5.8.2 4.3.8 8.3 2.3c3.2 1.4 6.1 3.5 9.2 5.1 8 4.6 14.5 1.6 22.5-.9q3.6-2 7.5-3.4 3.4-1.1 6.6-2.5" class="b"/><path d="M12.4 204.2c5.2 1.5 9.9.8 15-1q.8-.3 1.6 0 1.3.5 2.5.6 3.8.6 7.5.8 5.6 0 10.8-2.2l8.3-4c2.3-1.6 4.7-3.4 7.5-4q3-.3 5.9.7 2.5 0 5 .6c3.5 1 6.2 3.5 9 5.6 3 2.4 5 2.2 8.4 1.5l4.2-.8q1.6-.5 3.3-.6h7.5q5.9.3 11.6.6c8 0 11.7 2.8 18.3 6.4q8.8 4.5 18.4 1.7l5.8-1.4q2.9-1.5 5.8-2.6l5-1.8q3-.5 5.8-2" class="b"/><path d="M12.4 202.8c6.3 2.1 10.6 1.2 16.6-1q1.6-.8 3.3-.4l4.2.8c9.1 2 13-.9 20.8-4.6 2.4-1.4 4.1-3.9 6.6-5.1 2.8-1.5 6.3-1.5 9.2-.4q2.5-.2 5 .6c4.6 1.3 7.7 5.4 11.6 7.9 1.4 1 3.4.6 5 .6 1.7-.4 3.3-1.4 5-1.6 3.4-.7 6.7.9 10 .8l8.3.2c3.7 0 7.5.2 10.8 1.9 2.8 1.3 5.5 3 8.4 4a42 42 0 0 0 24.1 0q4.1-1.6 8.3-3l4.2-1.4c2-.3 4.1-.4 5.8-1.6" class="b"/><path d="M12.4 201.4c6.7 2.4 11 1.7 17.4-.9l4.2-1q1.3.1 2.5.5a19 19 0 0 0 16.6-1.5l5-2.6q2.2-2.2 4.2-4.3c3-3.2 7.5-3.8 11.6-2.7 1 .3 2.3.1 3.4.3q4 .7 7.5 3c2.9 2 7.2 7.8 10.8 7q2.8-1 5.8-1.2c3.3.2 6.7 1 10 1.1 5.2.8 10.9-.8 15.8 1.6 5.8 3.2 8.3 4 15 4.2 5 .3 10 .5 15-.3 2.2-.2 4.4-1 6.6-1.5 3.2-.6 6.2-2 9.2-3 2.2-.5 4.8 0 6.6-1.6" class="b"/><path d="M12.4 199.8c4.2 1.5 8.9 2.4 13.3 1.2l5.8-2 3.3-.8 1.7-.4 2.5.9c3 1 6.1 1.5 9.1.6 3.6-.9 6.8-3 10-4.6 1.7-1.2 2.9-3.2 4.2-4.7 3-4 7-4.7 11.7-4a31 31 0 0 1 13.3 3.9l3.3 2.4q2.8 1.5 5.8 2l8.4 2q4.5.7 9.1 1.1a71 71 0 0 1 10.8 1.3c2.3.7 4.4 2.3 6.7 3 3.8.9 7.8-.2 11.6.1q4.6.4 9.2.5a57 57 0 0 0 15-2l5-2.2c1.8-.6 3.9 0 5.8-.4l1.6-1.3" class="b"/><path d="M12.4 198c4.2 1.4 8.8 2.6 13.3 1.7 1.6-.3 3.3-1.2 5-1.4 2.2-.4 4.5-.5 6.6-1.4q2.4 1.1 5 1.5 3.4.3 6.7-.6c3.3-.8 6.2-2.7 9.1-4.3 1-.4 2-1.5 2.5-2.3q1.6-2.4 3.4-4.5c2.3-2.7 5.7-3.2 9.1-2.9q3.7.2 7.5 1.2 6 1.4 11.7 3.5l11.6 4.1c3.8 1.3 7.8 2 11.7 3a38 38 0 0 1 10.8 2.7c2 1 4.2 2.2 6.6 1.7q2.6-.6 5-1c4-.6 7.8.6 11.7.9q3.7.2 7.5 0c2.4 0 5 0 7.5-.8l4.1-1.6q1.6-1 3.3-1.6c1.7-.2 3.4.6 5 0 .9-.4 1.7-1.4 2.5-2" class="b"/><path d="M12.4 196c4 1.2 8.2 2.4 12.4 2.1q2.6-.4 5-.3c2.2-.3 4.5-.2 6.7-.8 2.8-1.3 4.7 3.1 11.6.2q2.5-1.1 5-2.1l5.9-3.2c1.5-.6 2.4-2.6 3.3-3.9 4-6.5 7.1-6.6 14.1-5q13.8 3.5 27.5 7.4 5.4 1.8 10.8 3.2 3.4.7 6.7 2l5 1.7q1.6.8 3.3 1.1c2.4.1 4.5-1.4 6.7-2 3.3-1.2 6.7.3 10 1 3 .7 6 .5 9.1.4q2.5.4 5 .3 5-.5 9.1-3.3 1.2-.8 2.5-.8l1.7.3 2.5-.3c1.2-.5 2-2 3.3-2.4" class="b"/><path d="M12.4 194c4.3 1.2 8.7 2.5 13.3 2.1 3.4.8 7.3.6 10.8.2 1.2-.5 2.3.1 3.3.6a10 10 0 0 0 8.4-.6q6-2.7 11.6-6c1.5-.7 2.4-2.8 3.3-4.2 3.1-5.1 5.8-6.5 11.7-4.7q3.5 1.3 6.6 3 3.7 1.7 7.5 2.5 4.5.9 9.2 1.3 3.8.2 7.5 1.2l7.5 2.1q3 .8 5.8 2c3.4 1.5 7 3.4 10.8 3.3 1.5-.3 3-1.3 4.2-2.2 3.2-2.3 5.8-1.6 9.1 0 4 1.8 7.4 2 11.7 1.3q6 1.7 11.6-1.3c1.4-.7 2.7-2 4.2-2.5.4 0 1.3 0 1.6.2l3.4-.2c.5-.1 1.3-.8 1.6-1.2.6-.6 1.7-1.3 2.5-1.6" class="b"/><path d="M12.4 191.9c4 1 8.2 2.2 12.4 2.2q6.2 2 12.5 1.2c.9 0 1.8.5 2.5.7 2.5 1 5.2.4 7.5-.8 3.8-2 8-3.2 11.7-5.5l2.5-1.5 1.6-2.4c3-5 5.5-8.2 11.7-5.5 2.3 1 4.4 2.9 6.6 4.2a22 22 0 0 0 13.3 3.7c1.4 0 2.9-.3 4.2-.1 3.8.8 8 0 11.7 1.2q3 .8 5.8 1.8c2 1 3.8 2.3 5.8 3q3.6 1.5 7.5.8 2.2-1.3 4.2-3.1c2.5-2.1 4.9-1.5 7.5.2 4.1 2.9 7.5 3.7 12.4 2.3 1.1-.3 2.3.4 3.4.5q3 .5 5.8-.7 2.3-.8 4.2-2.3c.9-.7 2-1.7 3.3-1.6q1.7.3 3.3.1c.4.1 1.3 0 1.7-.3l.8-.9q1.5-1.3 3.3-1.9" class="b"/><path d="M12.4 189.8c3.8.8 7.7 1.9 11.6 2.2 1.7.4 3.3 1.2 5 1.5q3.3.7 6.7.9c1 .1 2.3-.3 3.3.2q3.9 1.3 7.5-.9c2.8-1.7 5.8-3.3 9.1-3.9q3.7-.8 6.7-3.2c2.8-3.5 5.1-10 10.8-8.2 2.3.5 4.1 2.2 5.8 3.7 3.7 3.4 8.2 6 13.4 6q2-.2 4.1-.2 3 .3 5.8.3c2.2-.2 4.5-.7 6.7-.6q2.1.2 4.2 1 2.3.4 4.1 2c5.5 4 7.3 3 13.3 1.3 1.8-1.1 3-3.2 5-4 4.1-1 6.9 5.9 12.5 6.1 2.3.2 4.5-.6 6.7-1.3 1-.2 2.2.4 3.3.4a11 11 0 0 0 4.2-.7q2.3-.9 4.1-2.4c1-.8 2.1-1.7 3.4-1.7l4.1.5c1-.4 1.7-1.5 2.5-2q1.6-1.2 3.3-1.5" class="b"/><path d="M12.4 187.7q5.7 1.2 11.6 2a35 35 0 0 0 14.2 3.5c1-.1 2.2.4 3.3.3 3.5-.1 6.1-3 9.1-4.6 2.8-1.6 6.1-1.5 9.2-1.8q3.2-1.3 5-4.2c3.5-5.7 7.1-8.6 12.5-2.7q2.1 2.2 5 3.6c2.7 2.3 6.4 3.4 10 3.4 2.4-.2 5 .3 7.4.4q3.4 0 6.7-1c1.3-.2 2.8-.6 4.1-.2q2.3.4 4.2 1.2c3 2.3 6 5.7 10 3.6 1.4-.6 2.8-1.6 4.2-2.2q1.6-.7 3.3-1.1c6-7.8 8 4.5 15 5.3 3.2.3 6.3-1.3 9.1-2.5q4 .8 7.5-1.6c1.3-.8 2.7-2 4.2-2.6 1.6-.4 3.3.2 5 .3 1.7-1.7 4-3.3 6.6-3.2" class="b"/><path d="M12.4 185.6q5.7 1 11.6 1.7a32 32 0 0 0 11.7 4c6.2.8 7.5.7 12.4-3.2 2.6-2 5.8-3.8 9.2-3.4 1.3 0 2.8.6 4.2.5 6.5-3.4 7.1-14.8 15.8-5.7q3 2.7 6.6 4.1c3 2 6.6 2.6 10 2.4q3.3.5 6.7.6c2.5-.1 5-1 7.5-1.5 1.9-.6 4-.1 5.8.7 1.6 1.4 3.1 3.1 5 4 5 2.4 7.7-5.8 14.1-5.6 1.9-1.7 3.2-2 5 0 2.6 2.8 4.4 7 8.3 8 3 .7 5.8-1 8.4-2.2 1-.5 2-1.8 3.3-1.8a10 10 0 0 0 5-1.5c1.5-.8 3.1-2.1 5-2.3 1.3 0 2.8.4 4.1 0 1.9-1.8 5-2.5 7.5-2.2" class="b"/><path d="m12.4 183.6 10.8 1.2c1.5 0 2.8 1.4 4.1 2q4.8 2.3 10 2.6c2 .1 4 .6 5.9-.2 4.7-2.4 8.3-8 14.1-7.3 2 .2 3.8 1.3 5.8 1.3 3.5-2.4 5.5-10.5 10.9-7.3 2.5 1.6 4.6 4.2 7.4 5.3q1.6.8 3.4 1.3 2 1 4.1 1.6c1.6.5 3.4.3 5 .5 3.3.5 6.7 1 10 .1 2.2-.4 4.4-1.3 6.7-1.5q1.3.1 2.5.7 2 2.2 4.1 4c5.5 4 8.1-6.5 14.2-7l2.5-.1 1.6-.4c2 .6 3.1 2.9 4.2 4.4 5.7 10 11.3 6.6 18.3.4 5.6-.8 6-3.4 12.5-2.6a8 8 0 0 1 5-1.6q2-.4 4.1 0" class="b"/><path d="M12.4 181.6q5.3.3 10.8.7c.9-.1 1.8.6 2.5 1q1.2 1 2.5 1.6c3 1.7 6.6 2.1 10 2h5c4.5-2.3 7.8-7.4 13.3-7.5q2.6.1 5 1c1 .4 2.3 1 3.3.5 1.9-2.1 3-5.4 5.8-6.5 3-.5 5.3 2 7.5 3.5a24 24 0 0 0 6.7 3c1.4.3 2.8 1.1 4.1 1.5q2 .5 4.2.5c3 .3 6.1 1 9.2.6 3-.3 6-1.7 9.1-1.8 1 .2 1.8 1.4 2.5 2.1 1.4 1.5 2.9 3.5 5 3.6 5-1 6.1-9.2 12.5-9.4l3.3.1a3 3 0 0 1 1.7.6c2.3 2.3 3.5 5.8 5.8 8.3 2.4 2.9 6.2 3.1 9.1.9q2.3-1.6 4.2-3.6c1.2-1 2.4-2.7 4.2-2.7l4.1-1h5q1.2-.6 2.5-1l3.3.1q2.6-.2 5-.2" class="b"/><path d="M12.4 179.6c3.6.1 7.2-.2 10.8.4 1.6-.1 2.9 1.2 4.1 2a12 12 0 0 0 6.7 2.4q3.8-.2 7.5-.8l3.3-.6q1-.1 1.7-.7c3.5-2.9 7.7-6.1 12.5-5 2.2.5 4.4 1.4 6.6 1.7 1.6-1.7 2.6-4.5 5-5.3 2.7-.5 5.3 1.2 7.5 2.6q2.8 1.6 5.8 2.5t5.9 2c1.8.3 3.9.2 5.8.6q2.9.5 5.8.5c2.5 0 5-.8 7.5-1.4 2.6-.8 3.5.8 5 2.5 7.6 9.7 9.1-7.6 16.6-7.3l3.4.2q1.4 0 2.5 1c1.9 2.2 3.1 5.2 5 7.5 3 3.7 6.7 3.5 10 .2l4.1-4c1.1-1.1 2.6-2.2 4.2-2q3.7-.1 7.5 0 1.1-.6 2.5-.7c1.3 0 2.8.6 4.1.7 2 0 4-.7 5.8-.6" class="b"/><path d="M12.4 177.7q2.4-.2 5 0 3.2.8 6.6 1.1c1.2.2 2.3 1.1 3.3 1.5l4.2 1.6c2 .5 4 0 5.8-.6l5-1.4q3.4-.9 6.7-1.8 2.3-1.6 5-2.5c4.1-1.2 8.3.7 12.5 1l.8-.3c1.6-2.6 3.4-4.2 6.6-3.2 3.8 1 7.1 3.1 10.9 4q2.9.9 5.8 1.8 2.5.1 5 .5c1.9.2 3.9.7 5.8.7 2.8 0 5.6-.7 8.3-1.2l3.4 2.4c1.3 1.4 2.8 3.6 5 3.3 4-1.6 5-7 8.3-9.6 1.6-1.4 3.8-1.3 5.8-1q1.7.1 3.3.5c3 2.9 4.2 8 8.4 9.6 6.3 1.7 8.5-9.4 15-7.8l5.8.6c1-.3 2.2-1 3.3-.7 1.4.1 2.8.8 4.2 1.1 2.5.5 5-.9 7.4-1" class="b"/><path d="m12.4 175.9 3.3-.3 5 1.2 4.1.7q2.8 1.3 5.9 1.9c2.7.8 4.1.4 6.6-.7q3.8-1.6 7.5-3 3.4-.9 6.7-1.2c1.6-.4 3.3-1 5-1q2.5-.1 5 .4 3.2.4 6.6.6c2.4-2.8 4-3 7.5-2.2 3.7.8 7.2 2.4 10.8 3.2q2.1.7 4.2 1.3 2.5.2 5 .5c1.9.2 3.9.8 5.8 1q2.5 0 5-.3l1.7-.3c1.2.2 2.2 1.5 3.3 2.2 3.9 2.3 5.4 5.8 9.1.8 2.4-2.9 4-8.4 8.4-8.6 1.9 0 3.9.6 5.8.4 3 2 4 6.5 7.5 8.1 4.5 1.8 6.7-4 10-6 1.8-1.4 4-1 5.8 0l4.2.8c4.4-3.5 7.7 1.8 12.4.4 1.7-.4 3.3-1.3 5-1.3" class="b"/><path d="m12.4 174.1 3.3-.3a60 60 0 0 0 9.1 2q3.3.9 6.7 1.2c1.3.1 2.9.5 4.2.1q3.6-2 7.5-3.6c4.7-1.7 10-1.6 15-1.7 3.8.4 7.7.9 11.6.7 2.4-2.4 6.1-1.1 9.1-.7q3 .5 5.9 1.3 2.5.5 5 1.3c2.3.7 5 .5 7.4 1q3 .8 5.9 1.1c1.3.2 2.8-.2 4.1 0q3.8 3.3 8.4 5.3c2.2.6 3.8-1.7 5-3.3 1.8-2.4 3.1-5.7 5.8-7.4 2.3-1.2 5 0 7.5-.3 1 .1 1.8 1.3 2.5 2q1.2 1.6 2.5 3c6 5.9 8-4.4 13.3-4.6 1.5 0 3 .9 4.1 1.7.8.5 1.6 1.4 2.5 1.4 1.2-1 2.5-2.3 4.2-2.3 3.7.2 7 3.2 10.8 2.2 2-.3 3.9-1.4 5.8-.9" class="b"/><path d="M12.4 172.5c1.3-.1 2.8-.5 4.1-.4q3.4.9 6.7 1.3a49 49 0 0 0 14.1.9q2.4-1.5 5-2.6c2.7-1 5.6-1.2 8.3-1.4a92 92 0 0 1 18.4.7q1.2.1 2.5 0l1.6-.7q2.5-.3 5 .1c4.5.6 9 1 13.3 2.3q3.3.2 6.7.8 2.9.8 5.8 1.2 1.6 0 2.5 1.2l2.5 2c2 1.2 6 3.5 8.3 2.2 3.9-2.7 5-8.1 9.2-10.5 2-1 4.5-.2 6.6-.5 1.8.5 2.9 2.4 4.2 3.6 1.6 1.6 3.8 2.6 5.8 1 1.8-1.2 3.2-3.2 5-4.4 2.7-1.5 5.3 1.2 7.5 2.5 7-4.7 9 .5 15.8.8q2.2-.1 4.2-.7 2 .1 4.1.1" class="b"/><path d="m12.4 171 5-.7q3.7 1 7.4 1.4c3.3.7 6.7.1 10-.1l5-.4q2.7-1.5 5.9-1.8 7.8-.6 15.8-.4c3.8.2 7.7.8 11.6.9 2.9-1.3 6.2-.6 9.2-.4l5.8.5 3.3.7c1.3.3 2.9 0 4.2.3 2.5.2 5 1 7.5 1.6 1.4 1 2.7 2.7 4.1 3.8a13 13 0 0 0 6.7 2.7c2.6.5 4.4-1.6 5.8-3.5 1.8-2.3 3.4-5.2 5.8-6.9 2-1.2 4.5-.8 6.7-1.1 2.5 1 4 3.8 6.7 4.3 3.6.4 5.1-4.2 8.3-5.1 1.9-.3 3.3 1.4 5 1.8 2.4-1.7 5.6-1.3 8.3-.7q3.3 1.5 6.7 2.5 2.8.7 5.8 0 1.7.4 3.3.5l3.4-.2" class="b"/><path d="m12.4 169.5 5.8-.8q4.6.6 9.1 1.4c3 0 6.2-.6 9.2-1 2.5-.2 5-.1 7.5-.8q3.2-.5 6.6-.3h16.7q3.3.5 6.6.6c1.7.2 3.4-.5 5-.6q6.3 0 12.5.9 2.5.3 5 .2 2 .2 4.2.8c1.6.7 2.7 2.7 4.1 3.9 2.6 2.5 6.3 4.5 10 3.8 5-1 7-9.5 12.5-10.8q2-.5 4.1-.4 1.5.4 2.5 1.3c2.6 1.9 5 2.7 7.5.4 2.4-2.1 4.4-4.6 7.5-2 2.5-1.5 5-1 7.5-.1l4.2 1.1q1.6.7 3.3 1.3c2.4.8 5 .4 7.5.6q2.5.5 5 .7l3.3-.3" class="b"/><path d="M12.4 168.1q4-.8 8.3-1l7.5 1.1a27 27 0 0 0 5-.3c4-.7 8.3-.7 12.4-1q5 0 10 .2c5.3 0 10.6-.3 15.8 0q3.4.4 6.7.3 2.5-.4 5-.6c3-.2 6.1.3 9.1.5q3 .3 5.9.2c2 .7 3.4 2.7 5 4 2.6 2.7 6 5.2 10 4.7 3.3-.1 5.4-3.2 7.4-5.5 1.7-1.9 3.5-4 5.9-4.8 1.5-.4 3.4-.9 5-.5 1.9.5 3.7 2 5.8 1.8 3.4-.1 5.5-5.4 9.1-3.4.8-.1 1.8-.6 2.5-.6 2 .1 4 1.2 5.9 1.7q2 .7 4.1 1 1.6.8 3.4 1.4c2.4.8 5 .1 7.5.1q2.9.4 5.8 1l4.1-.3" class="b"/><path d="M12.4 166.9c3.5-.7 7.2-1.5 10.8-1.4 3 .4 6 1.3 9.1.9a93 93 0 0 1 14.2-.8c3.6.2 7.2.7 10.8.7q10.8-.2 21.6-.1c4-.3 7.8-.9 11.7-.5l3.3.2c3 .7 5.7 2.8 8.3 4.4 2.9 2.3 6.2 4.8 10 4.4 2.8 0 4.9-2.3 6.7-4.2 2.8-3.2 5.4-6 10-6.2 2-.5 4 .3 5.8.7 4.3 1 6.3-4.2 10-2.8 2.9-1.4 5.6.7 8.3 1.4l3.4.7q2.4 2.2 5.8 2.5c2.5.2 5-.7 7.5-1.1 3.3.5 6.6 1.8 10 1.2" class="b"/><path d="M12.4 165.7q6.5-1.6 13.3-1.9c2.1.5 4.4 1.2 6.6 1 4.2-.2 8.4-.7 12.5-.5 3.4 0 6.7.8 10 1q10 .2 20-.2l11.6-.2c3.7 0 7.6.4 10.9 2.4 3.2 2 6.4 4 10 5.2 7.9 3.2 11-6.2 17.4-8.5q2-.5 4.2-.6c1-.2 2.2-.6 3.3-.4 4.7.8 5.3-.6 9.2-2.2q1.2-.1 2.5 0c.6-.4 1.7-.6 2.5-.5 1.4.2 2.8.9 4.1 1.3q1.7.3 3.4.8c5.9 5.5 9.8 3.6 16.6 1.4 3 .7 6 2.2 9.1 1.8" class="b"/><path d="M12.4 164.4q6.5-1.5 13.3-2c2.5.1 5 .9 7.5.8 3.8 0 7.7-.4 11.6-.2 3 .2 6.1.9 9.2 1.2 6.6.5 13.3 0 20 .3 6.8.5 14.2-1.5 20.7 1.4 3.1 1.4 6 3.5 9.2 4.6 10.3 3.6 12-4.6 20-7.4 2.4-.5 5.1-.2 7.4-1.3 1.4-.2 2.9 0 4.2-.3 1.7-.3 3.3-1.5 5-2h2.5q1.2-.5 2.5-.6 1.7.1 3.3.5 1.3.2 2.5.6l2.5 2.2a10 10 0 0 0 8.4 2.7c2.8-.4 5.5-1.7 8.3-2.6 1.3-.8 2.8.4 4.1.8q2.4 1 5 1.1" class="b"/><path d="M12.4 163q5.7-1.1 11.6-1.8 5 .1 10 .5 5.8-.2 11.7.1c2.7.2 5.5 1 8.3 1.3 6 .6 12.2.2 18.3.6q5.4.4 10.8.2 4.6-.2 9.2.6 2.5.8 5 2.1c4.2 2.3 9.4 3.7 14 1.8 6.3-2.9 8-6.7 15.9-6.5a12 12 0 0 0 5-1.5q1.7 0 3.3-.4c2.2-.5 4.4-2.2 6.7-1.5a10 10 0 0 1 5-1c1.6 0 3 1 4.1 2q2 1.8 4.2 3.2a10 10 0 0 0 7.5.8q3.4-1 6.6-2.3c1.4-.4 2.9-1.6 4.2-.7 1.8.9 3.8 1.9 5.8 2.1" class="b"/><path d="M12.4 161.3a118 118 0 0 1 19.1-1.3c4.4.2 8.9 0 13.3.4 5 .5 10 2 15 1.9q10 0 20 .8c2.4.2 5 0 7.5.3q6.1.5 11.6 2.8c4 1.5 8.6 1.2 12.5-.4 3.5-1.6 6.8-4.2 10.8-4.5 2-.3 4 0 5.8-.3q2.3-.4 4.2-1.6 1.7-.4 3.3-.7c2.2-.6 4.4-2 6.7-1.3 2-1 4.6-2 6.7-.5 4 2.8 7 6.3 12.4 5.5 4.4-.6 8.4-2.6 12.5-4.1q2.8 1.5 5.8 2.6" class="b"/><path d="M12.4 160.3c5-.4 10-1.2 15-1.5q6.1-.4 12.4 0 4.2 0 8.3.7 5.4 1.2 10.9 1.6 4 0 8.3.2 4.5-.1 9.1 0 5.4.8 10.9 1.1 5.4.8 10.8 2c4 1.2 8.5.3 12.5-1 2.4-.8 4.9-2.2 7.4-2.8 3.3-.9 6.7-.1 10-.6 1.8-.3 3.4-1.4 5-2q3-.5 5.9-1.7 1.2-.5 2.5-.4.8.1 1.6-.1c1.3-.5 2.8-1.3 4.2-.7 3 1 5.3 3.7 8.3 4.9 4 1.7 8.5.6 12.5-.8q3.4-1 6.6-2.6c1.8.5 3.3 1.8 5 2.3" class="b"/><path d="M12.4 159.2c8-.8 16-2.4 24-2q6 0 11.7 1c3.6.6 7.2 1.4 10.9 1.6q3.7.2 7.4.1c3-.2 6.2-.8 9.2-.7 2.8 0 5.6.8 8.3 1.4q2 .1 4.2.2 3.8.4 7.5 1.2l4.1.9q3 0 5.9-.8l5-1.2q2.8-1 5.8-1.7c3.5-.8 7.2.2 10.8-.2q2.7-.5 5-2l3.3-.7 4.2-1.5q1.7-.3 3.3-.2l1.7-.8a4 4 0 0 1 2.5.1c3.4 1.3 6.3 4 10 4.8 3.8 1 7.9 0 11.6-1.2q3.4-.9 6.7-2.4l.8.1q1.6 1.4 3.3 2.4" class="b"/><path d="M12.4 158c6.3-.8 12.7-2 19.1-2.3q11.3-.3 22.5 2.3 6.2 1 12.5.2c4.3-.9 8.8-2.4 13.3-1.2q2.4.7 5 1.6l1.6-.2q4.6-.4 9.2.7c2.2.4 4.4 1.7 6.6 1q4.1-1.1 8.4-1.9 2.7-.7 5.8-1c3.6 0 7.2 1.2 10.8.5q2.6-.6 5-1.9 2.2 0 4.2-.9t4.1-1.5l2.5-.2 1.7-.7c3.2-.5 6.2 2 9.1 3.2a18 18 0 0 0 9.2 1.5c3-.4 6.1-1.4 9.1-2.2q1.6 0 3.4-.2c1.6-.6 2.8 1.2 4.1 1.8" class="b"/><path d="M12.4 156.7q9-1.6 18.3-2.5a94 94 0 0 1 23.3 2.4q6.2 1.2 12.5-.4c7.3-2.6 10.8-4.2 18.3-.4 7-1.8 10.8-.3 17.4 1.4l5-1.4q4.2-.6 8.4-.5c3.5.4 7.1 1.6 10.8 1q2.2-.3 4.1-1.3c1.6-.3 3.5-.3 5-.9 2.5-.9 4.8-2.3 7.5-2.5 1.3-.4 2.8-.8 4.2-.3 2.5.6 5 2 7.5 2.8q4 1.5 8.3 1.2 3.4-.2 6.6-1.1l4.2.4c1.4.1 2.8-.5 4.2-.2l1.6 1" class="b"/><path d="M12.4 155.1A97 97 0 0 1 49 154q2.4.7 5 1.3c4.1.6 8.6.5 12.5-1.2 4.1-1.9 8.5-4.7 13.3-3.6 2 .3 3.9 1.4 5.8 2 5.7-2.5 11-.7 16.6.7l1.7.3 2.5-.5q2.5-.3 5 0c3.7-.1 7.2 1.5 10.8 1.9q3.4.3 6.7-1 2.5.1 5-.4c3.1-.7 5.9-2.8 9.1-3.2q3-.8 5.8 0c3.4 1 6.6 2.5 10 3q4.2.5 8.4-.1l5.8.7q1.7.2 3.3 0c1 0 2.4-.5 3.3.3" class="b"/><path d="M12.4 152.8c7.7-.5 15.5-2.1 23.3-1.5q5.8.1 11.6.7c2.2.3 4.4 1.3 6.7 1.6q6 .8 11.6-1.7c7.2-4 11.7-7.5 20-3.1 6.5-3 11-1 17.5.4 2.4.6 5 .5 7.5 1 3.3.5 6.6 1.7 10 2.5q2.4.4 5 0 3.2 0 6.6-.3c3-.4 5.6-2 8.3-3q4.1-1 8.3-.8c2.8.5 5.6 1.5 8.4 2.1 2.7.7 5.6.4 8.3 1q5 .8 10 1.2c1.3 0 2.8-.4 4.1-.2" class="b"/><path d="M12.4 150q5.3.1 10.8-.2 7-.6 14.1 0 5-.1 10 .4l5.9 1.5c3.8.7 8.1-.3 11.6-2.1 2.5-1.4 4.9-3.3 7.5-4.6a15 15 0 0 1 13.3 0c5-3 10.7-1.3 15.8.1l7.5 2.1c2.8 1 5.5 2.5 8.3 3.3a33 33 0 0 0 15.8.1c2.6-.6 5-1.9 7.5-2.7 2.7-.6 5.6-.5 8.4-.5a23 23 0 0 1 6.6.8l5.8 1q5 1.2 10 1.7 4.2.7 8.4.4" class="b"/><path d="M12.4 147.4q5.7.4 11.6.4 5.9-.3 11.7 0c3.8.4 7.8-.1 11.6.5 5.3 1.6 7.8 2.7 13.3.6 6-2.1 10.2-7.8 16.7-8.5q2.5-.4 5 0c1 .2 2.2.8 3.3.6q1.6-.8 3.3-1.2a17 17 0 0 1 6.7.8l7.5 2.3c4.4 1.2 8.1 4.2 12.4 5.8a33 33 0 0 0 20.9-1q2.3-1 5-1.4 4.8-.4 10-.4c5.8.4 11.6 2 17.4 2.7 3.6.4 7.2 1.2 10.8 1" class="b"/><path d="M12.4 145q6.6.5 13.3.7 6.2-.2 12.5.3c3.3.2 6.8-.5 10 .5 4.1 1.4 7.4 2.4 11.6.5 6-2.3 10-8.3 16.6-9.4 2.8-.6 5.6-.2 8.4.1q1.6-.9 3.3-1c4-.1 7.8 2 11.6 3.2q4.4 1.4 8.4 3.5a24 24 0 0 0 16.6 4.6c4.8-.3 9.5-1.7 14.2-2.9 3-.6 6-.6 9.1-.8 5.3-.4 10.6.5 15.8 1.2s10.5 1.8 15.8 2" class="b"/><path d="M12.4 143q3.7.2 7.5.1 2.9.1 5.8.4h6.6q3.8.3 7.5.4 3.4-.1 6.7 0c2.7.7 5.5 1.9 8.3 2.1 6.2.4 10.4-4.8 15-8 4-3 9.3-3.8 14.1-3.2 2.7-1.7 5.8-.4 8.4.9q3.2 1.6 6.6 2.8 4.3 1.1 8.3 2.8c4.1 2.3 8.6 4.4 13.4 4.5 5.6.2 11.1-1.3 16.6-2.3q5.8-.7 11.7-1c10.3-.9 20.5 1.5 30.7 2.7" class="b"/><path d="M12.4 140.6c2.7.3 5.5 0 8.3.1q4.5.6 9.1.5c3-.1 6.1.3 9.2.4h7.5c4.3.9 8.8 3.6 13.3 1.8 5.7-2.3 9-8.5 15-10.2q4-1.1 8.3-1a8 8 0 0 1 2.5-.5c3.5.4 6 3.3 9.1 4.7 3.6 2 7.8 1.8 11.7 2.8 2.2.7 4.4 1.8 6.7 2.5q4 1.3 8.3 1.2c4.7 0 9.4-1 14.1-1.3 7-.3 13.9-1.4 20.8-1.5 7.9 0 15.6 1.3 23.3 2.5" class="b"/><path d="M12.4 138q3.7.2 7.5 0c2.1.3 4.4.8 6.6.7h6.7c3.5.3 7.2.8 10.8.5h3.3c3.4.7 6.5 2.6 10 2.7 6.9.2 10.1-7.3 15.8-10q4.4-1.9 9.2-1.9l2.5-.3c1.9.3 3.5 1.7 5 2.9 6.3 5.3 8 4.8 15.8 4.3 2 0 4 .7 5.8 1.2 5.1 1.4 10.5 1.2 15.8 1 4.2 0 8.3.7 12.5.3 6.7-.4 13.3-1.4 20-1.6q6.2 0 12.4.9c2.5.4 5.1.6 7.5 1.4" class="b"/><path d="M12.4 135.2H19q3 .7 5.9 1h8.3c3.3.3 6.6.8 10 .7l5-.2c3.1.5 6 2.5 9.1 3 7 1.3 10.4-6.4 15.8-9.3q4-2 8.3-2.2c3.3-.6 4.3 0 6.7 2.1 3.9 3.8 7.5 7.4 13.3 5 2.4-.9 5-1.8 7.5-1.4l8.3 1q5 .2 10 1.1a47 47 0 0 0 17.5 1l8.3-.7q3.3-.6 6.7-.9 6.2-.4 12.5.6 3.7.4 7.4 1.3" class="b"/><path d="M12.4 132.2q2.9-.1 5.8.2 3.3 1 6.6 1.2 3.8.2 7.5 0c4.2.4 8.4 1 12.5.7l4.2-.2c3.5.6 6.4 3 10 3.5 7 1.2 10-7 15.8-9.4q3.2-1.5 6.6-1.7c1.4-.2 3-.3 4.2.6 3.6 2.4 6.1 7.2 10.8 7.4 2.8 0 5.1-2 7.5-3.2 3.3-1.8 7.3-1.1 10.8-.7q4.7.6 9.2 2.3 3 .5 5.8 1.2 7.4 1.8 15 .8 2.9-.4 5.8-.7 2.2-.1 4.2-.2 3.7-.9 7.5-1c5.8-.3 11.7.7 17.5 1.6" class="b"/><path d="M12.4 129.2q2-.2 4.1.3c2.2.6 4.4 1.4 6.7 1.6 4.5-.4 8.9.4 13.3 1q5 .3 10-.2l4.2-.2c1 0 2.3.7 3.3 1.1q2.8 1.6 5.8 2.5c6.9 1.8 10.2-6.7 15.8-9q2.8-1.2 5.9-1.4c1 0 2.3-.3 3.3.1 4.6 2.4 8 10 14.1 6.2 2.7-1.6 5-4.3 8.4-4.5 5.1-.8 9.6 2.2 14.1 4.2q1.7.6 3.3.2 1.6 0 3.4.2c3.3.5 6.6 1.5 10 1.7 3.9.4 7.7-.7 11.6-1.2q2.5-.2 5 0c2.2-.2 4.4-1 6.7-1 4.4-.5 8.9.1 13.3.8 1.6.2 3.4 0 5 .3" class="b"/><path d="M12.4 126.2c2.3.3 4.4 1.7 6.6 2.3 3.5-1.1 7.3 0 10.8.5q6.2 1.3 12.5 1t12.5 0c3.2 1.3 6.3 4.2 10 3.3 4-1.5 6.3-5.7 10-7.8 3-2 6.6-2.2 10-2 2 .4 3.4 2.1 5 3.4 8.7 7.8 10.4-4.7 18.3-3 2.9.7 5 3 7.5 4.6 1 .2 2.2-.6 3.3-.6h5c3.9.5 7.7 1.9 11.6 2.4q2.5.6 5 .6c2.8-.1 5.6-1 8.3-1.3 2.2-.4 4.5 0 6.7.2a36 36 0 0 1 5.8-1q1.6-.5 3.4-.7 4.1-.3 8.3.4 3.4 0 6.6.7" class="b"/><path d="m12.4 124.8 2.5 1.4q.9 0 1.6-.6l1.7-.6c4-.5 7.8 1.2 11.6 1.7q5 1 10 .9c3.9-.4 7.8.1 11.7.4q2.9.1 5.8.5l4.2 1.9c8.4 4.3 10-7.7 19.1-8.2q3.3-.2 6.7.3 2 1.2 4.1 2.6c5.2 3 7.5-1.7 11.7-3.5 3.8-1 6.1 3.2 8.3 5.6 3-4.7 7-3.8 11.6-2.5l10.9 3c2.1.4 4.4 1 6.6.9 3.6-.2 7.2-1.5 10.8-1.3 1.4 0 2.8.6 4.2.6l2.5-.5q2.4-1.3 5-1.9a47 47 0 0 1 16.6 1.3" class="b"/><path d="M12.4 125c2.5-4 6-3.3 10-2q4 1 8.3 1.7c3.8.5 7.8 0 11.6.2 5 .3 10 1.2 15 1.8q1.3.1 2.5.5 1.2.6 2.5 1c3.8 1.5 6 1.8 9.2-1.2 4.2-4.2 6.8-7 13.3-6l3.3.3q1.3 0 2.5.3c1.8.8 4 1.4 5.8.6 1.5-.5 2.8-1.6 4.2-2.3 3.6-2 6 2.7 7.5 5.3l.8-.2c2.8-4.6 4-5.6 9.2-3.3q3.6 1.3 7.5 1.8c4.4.5 8.8 2 13.3 2.7 2.7.3 5.5-.5 8.3-.7 2.6-.4 5 .2 7.5.8 4.5-2.8 6.2-3.7 11.6-3.5 4.6-.2 8.9 1.7 13.4 2.4" class="b"/><path d="M12.4 119.8c2.7-1.2 5.7 0 8.3 1q3.7 1 7.5 1.4c4.7.5 9.4-.2 14.1 0 5.9.6 11.7 2 17.5 3 1.7 0 3.3 1 5 1.4q2.4.8 5 .6a9 9 0 0 0 3.3-2c6.4-6.3 6.3-6 15-5.5q2-.2 4.1-.4 2.3.3 4.2-.2c1.3-.4 2.7-1.3 4.2-1.4 3.2.1 4 4 5.8 6.1 1.3-2 2.4-7 5.8-5.4 2 1 3.7 2.5 5.9 3q4.8 1.2 10 1.6c4.7.2 9.4.2 14.1.9 2.5 0 5-.5 7.5 0q1.7.2 3.3-.1c1.6-1 3.2-2.2 5-2.7 3.2-.9 6.7-.5 10-.5 3.9.8 7.7 2 11.7 2.7" class="b"/><path d="M12.4 117.3q2.8.7 5.8 1 2.9 1 5.8 1.3c5.3.5 10.6 0 15.8 0 7 .4 14 2.2 20.8 3.6q2.3.3 4.2 1a16 16 0 0 0 8.3.4l1.7-1.3c7.7-7.6 6.7-4.3 15.8-5.8 1.8-.6 4-.4 5.8-.9 5.1-1.7 6.2 1.7 8.3 5.5 1.4-1.9 1.7-5.4 4.2-6 1.3 0 2.4 1.3 3.3 2.2 2 2 4.6 3.6 7.5 3.1 5.3 2.2 11.2 1.3 16.7.3 3.8-.6 7.7-.3 11.6-.4q1.7 0 3.3-.3 2.7-1.6 5.9-2.2 5-.4 10-.3c4.1.9 8.2 2.1 12.4 2.7" class="b"/><path d="M12.4 116.5q3.2.5 6.6.3 3.8.6 7.5.5c4.7.2 9.5-.5 14.2-.2 7.2 1 14.4 2.7 21.6 4.3 2.2.3 4.4 1.3 6.7 1.4q2.4.1 5-.3c.7-.1 1.8-.4 2.4-.9 6-5.6 5.7-4.7 13.4-5.8q3.2-.6 6.6-1c3.5-.7 5.3 1.7 6.7 4.5l.8.4c1.1-1.6 1.6-4.2 3.3-5.3h.9c1.7.9 2.8 2.9 4.1 4.3 2.6 2.7 4.1 2.4 7.5 2.1a15 15 0 0 0 8.3 1.5c4.6-.4 8.9-2.3 13.4-2.9q3.7-.3 7.5-.6 2-.7 4.1-1.3c3.8-.7 7.8-.6 11.7-.9 2-.3 3.9.5 5.8 1q4.5 1.1 9.1 1.6" class="b"/><path d="m12.4 115.1 17.4-.3c3.3 0 6.7-.4 10-.1q4.2.5 8.4 1.4 7 1.3 14.1 3.2l5.8 1.4c3.4.5 6.8-.2 10-1 1.5-.9 2.7-2.4 4.2-3.3 3-1.9 6.6-1.9 10-2.5 2.7-.3 6.2-1.3 8.3 1.2.8.8 1.3 2.4 2.5 2.8 1.2-1.5 1.6-4.1 3.3-5.1h.8c3 2.1 4.2 7.1 8.4 7.5q1.2 0 2.5-.3.8-.3 1.6-.2c3 1.7 6.7 1.7 10 1.2 4.5-.8 8.8-3 13.3-3.6l4.2-.5q2.4-.7 5-1 6.7-.5 13.3-1.1c2.2.3 4.5 1.2 6.7 1.7q3.7.9 7.5 1" class="b"/><path d="M12.4 113.4q9-.9 18.3-1c2.7 0 5.5-.4 8.3-.1q4.5.5 9.1 1.7 7.6 1.4 15 3.5L69 119c3.4.4 6.8-.4 10-1.1l1.7-.5q1.3-1 2.5-2 3.1-1.9 6.7-2.2c6-.9 8.6-2.7 12.4 3.5 1.3-1.5 1.8-4 3.4-5.3h.8c1.9 1 2.8 3.4 4.2 5 3 3.8 5 3.3 9.1 2q2 1 4.2 1.1 3.3.5 6.6 0c5.1-1 9.8-3.6 15-4.1a80 80 0 0 1 10.8-1.1q4.6-.4 9.2-1 3.3 1 6.6 2 3.7.7 7.5.6" class="b"/><path d="M12.4 111.6c5.8-.6 11.6-1.4 17.4-1.4 2.8 0 5.6-.5 8.4-.2 3.6.3 7.2 1.5 10.8 2.2l6.6 1.2 7.5 2.1 6.7 1.6c3.3.4 6.7-.5 10-1.2q1.7-.3 3.3-1a13 13 0 0 1 4.2-2.3c2.7-.6 5.5-1.6 8.3-1.7 2.5-.2 4.6 1.6 5.8 3.6l.8-.2c1-1.4 1.6-3.9 3.4-4.6 1.6.2 2.5 2.2 3.3 3.3 3.2 5 5.4 5.9 10.8 3.5q2 .8 4.2 1 3.4.6 6.6 0c4.9-.8 9.4-3 14.2-3.8q5.9-.7 11.7-1 4.5-.2 9.1-.8c1.1 0 2.3.7 3.3 1q2 .7 4.2 1.1c2.2.5 4.6 0 6.7 1" class="b"/><path d="M12.4 110c5.2-.5 10.5-1.6 15.8-1.8 3 0 6-.8 9.1-.5 4.3.4 8.3 2 12.5 2.8q3.3.8 6.7 1.3 2.9.7 5.8 1.6 4.5 1.3 9.1 2.2c2.5.1 5.1-.5 7.5-1l5-1.4c2.7-1.1 5.4-2.6 8.3-3.1 4-1 6.8-.4 9.2 3.1 1.7-1.2 1.8-4.4 4.1-5 2 .7 3 3.1 4.2 4.6 3.3 4.2 5.5 3.3 10 1.8q2 .8 4.2 1 3.7.5 7.4 0c4.6-.8 8.9-2.5 13.4-3.4a84 84 0 0 1 12.4-.8c3 0 6.2-.5 9.2-.6q1.3.1 2.5.7l3.3 1q2 .5 4.2.5l3.3 1.1" class="b"/><path d="M12.4 108.5c5-.4 10-1.7 15-2 3.2-.4 6.6-1.2 10-.8 4.2.4 8.3 2 12.4 3q3.8.8 7.5 1.4l5.8 1.7 8.4 2.1q3.7.3 7.4-.8c4.4-.7 8.3-3 12.5-4.2 4-1.1 7.3-1 10 2.6 1.5-1.3 2-4.2 4.2-4.6 1.4.3 2.4 2 3.3 3 3 4 5.5 4.6 10 2.7a36 36 0 0 0 20.8-.7q5.7-1.6 11.7-2 4 0 8.3.1 4-.2 8.3-.1c1.4 0 2.8.8 4.1 1.1l3.4.7 4.1 1.2" class="b"/><path d="M12.4 107q3.8-.1 7.5-1l6.6-1c3.6-.6 7.2-1.6 10.8-1.2 4.3.4 8.4 2 12.5 3 4.1 1.1 8.4 1.5 12.5 2.9q3.3 1 6.7 1.8 1.6.6 3.3.9a22 22 0 0 0 6.6-.8c4.7-.8 8.8-3.4 13.4-4.4 3.6-.9 6.6-.5 9.1 2.4 1.6-1.1 2.2-3.7 4.2-4.2 1.4.1 2.4 1.6 3.3 2.6 3 3.7 5.6 4 10 2.4q1.3.3 2.5.7l3.3.4q4.6.6 9.2 0c5-.6 9.9-2.4 15-3 4-.7 8.3.1 12.4.3q4.2 0 8.3.4c3.4.5 6.7 1.5 10 2.2" class="b"/><path d="M12.4 105.8c4.2 0 8.3-1.4 12.4-1.8 3.3-.6 6.7-1.6 10-2 4.6-.2 9 1.4 13.4 2.7 4.6 1.2 9.5 1.8 14.1 3.1q4.6 1.3 9.2 2.8c2.1.5 4.5 0 6.6-.5 5.2-1 9.8-3.9 15-4.7 3.3-.7 5.9-.3 8.3 2.2 1.8-.6 2.4-3 4.2-3.6 1.3-.2 2.4 1.1 3.3 2 3.3 3.4 5.6 3.4 10 2.1 1.7 1 3.9 1 5.8 1.3q3.7.5 7.5.4c6.2-.2 12.2-2.3 18.3-3 4-.8 7.8.5 11.7.9q4 .3 8.3.6 4.5.6 9.1 1.3" class="b"/><path d="M12.4 104.6c4.4-.1 8.9-1.2 13.3-1.9 3.5-.9 7.1-2 10.8-2 4.3-.2 8.4 1.4 12.5 2.5q6.2 1.3 12.5 2.6c3 1 6.2 1.6 9.1 2.9 2.4 1 5.1.3 7.5-.3 5.3-1.5 10.3-4.2 15.8-4.7 3-.6 5.2-.1 7.5 2l.8-.1c1.3-.8 2-2.5 3.4-3 2.7-.7 4.7 4.2 9.1 4q1.7-.1 3.3-.5c1.4 0 2.8 1 4.2 1 5.2.5 10.6 1.4 15.8.5q5-.9 10-1.9c2.2-.4 4.4-1 6.7-.8 3 .3 6 1.5 9.1 1.9q3.8.3 7.5.4 4.2.1 8.3.4" class="b"/><path d="M12.4 103.4q4 0 8.3-.9 3-.3 5.8-1c4.6-1.3 9.4-2.7 14.2-2 3 .3 6 1.5 9.1 2.3q5.4 1.2 10.8 2 4.3.9 8.3 2.4c2.5 1.8 5.6 1.6 8.4.7 3.3-1 6.6-2.5 10-3.6q3.2-.9 6.6-1.2c4.6-.9 4.6-.1 8.3 2q1.5-1 2.5-2.4c2.6-2.2 5 1.4 7.5 2 1.9.8 4 .5 5.9.2 1 .3 2.2.9 3.3 1q1.6.3 3.3.4 4.2.6 8.3.9a43 43 0 0 0 8.4-.7l8.3-1.5c2.4-.7 5-1.2 7.5-.4 2.7.9 5.4 2 8.3 2.2 4.7.3 9.4-.1 14.1-.2" class="b"/><path d="M12.4 102.2c4.7.1 9.5-.8 14.1-1.6 5.1-1.4 10.5-2.9 15.8-2.2 2.8.4 5.6 1.4 8.3 2l10 2q3.4.1 6.7 1.3c.8.2 1.7 1 2.5 1.4 2.3 1.3 5 1 7.5.1 3-1 6-2.5 9.1-3.5q3.4-1 6.7-1.2c4.3-.7 5.5-1 9.1 2 1-.3 1.9-1.4 2.5-2.2 2.5-2.3 5 .6 7.5 1.3q3 .7 5.9.2c2.5 1.4 5.5 1.5 8.3 1.8q5 1 10 .8 6.2-.5 12.5-1.6l5-1.2c3.8-.5 7 2.3 10.8 2.8 4.9.6 10-.5 15-.8" class="b"/><path d="M12.4 100.8q5.4.3 10.8-.7 2.5-.3 5-.8A44 44 0 0 1 44 97.4q3.7.8 7.5 1.7 2.4.5 5 .9l5 1c1.6.2 3.4 0 5 .4 4 2.8 5.7 4 10.8 2 2.8-1 5.4-2.5 8.3-3.4 2.4-.9 5-1.1 7.5-1.4 4.5-.6 5.4-1 9.1 2l.9.1c3.7-4.6 4.4-3 9.1-1.3q3 .7 5.8.4c2.9 1.4 6.1 1.5 9.2 2a55 55 0 0 0 23.3-.7l4.2-1.1c2.3-.4 4.6.8 6.6 1.8q3.1 1.5 6.7 1.4 5.8-.7 11.6-1.6" class="b"/><path d="M12.4 99.5q3.7.2 7.5 0c2.4-.3 5-1 7.4-1 4.7-.7 9.4-2 14.2-2.2 3.4-.3 6.7.7 10 1.4q2.5.3 5 .8a47 47 0 0 0 8.3 1.3 3 3 0 0 1 1.7.5l2.5 1.4c2.8 1.8 6.2 1 9.1-.3 5.7-3 9.2-4.7 15.8-4.9 5-.7 5.2.3 9.2 3 3-4.7 4.6-3.7 9.1-2.1q3 .7 5.8.4 2.1.8 4.2 1.4l5 .7q4.5.9 9.1 1a100 100 0 0 0 17.5-2q2-.9 4.2-.4c2.2.7 4.3 2.3 6.6 2.8 2.5.6 5 .2 7.5-.3l7.5-1.3" class="b"/><path d="M12.4 98.5q4-.1 8.3-.4l5-.8H29c5-.6 10-1.7 15-2q3.7.1 7.5 1 3 .3 5.8.9 3.4.7 6.7 1.2 1.2.8 2.5 1.2c4.5 1.8 7.2 2.3 11.6 0 7.3-4.2 10.5-5.7 19.2-5.3 1.5.2 2.9 1.4 4.1 2.3l.8.7.9.2c3.9-4.9 4.8-3.2 10-2 1.8.4 3.9.3 5.8.6q4 1.3 8.3 1.9c4.4.7 8.9 1.3 13.3 1q4.6.2 9.2-.7l4.1-.9c1-.2 2.3-.7 3.4-.7 3.2.3 5.8 2.9 9.1 3 2.2.3 4.5-.3 6.7-.8l6.6-1.3" class="b"/><path d="M12.4 97.7q3.7.1 7.5-.5l5.8-1.2c1-.3 2.3.2 3.3.2l4.2-.3c4.4-.5 8.8-1.6 13.3-1.5q7.5.6 15 2.2 2 1 4.1 1.7 4.1 1.3 8.4 1c1.4-.2 2.8-1 4.1-1.6 6.3-3.8 10.5-6.5 18.3-5.6q2 .3 3.3 1.6c.7.5 1.7 1.5 2.5 1.7 1 0 2-1 2.5-1.7 2.3-2.4 4.8-1.1 7.5-.4q3.3.7 6.7.9c1 0 2.3.6 3.3.8q3.4.7 6.7 1.2 5.3 1.2 10.8 1 5 .8 10-.2 3.8-.8 7.5-2c2 0 4 1.1 5.8 2q2.4 1 5 .9c4-.5 7.7-2 11.7-2.6" class="b"/><path d="M12.4 96.6q7.6.5 15-1.4c5.8 0 11.6-1.3 17.4-1.7 4.5-.4 9 .3 13.3 1 2.2.9 4.4 2 6.7 2.3q4.5.7 9.2 0c1.3-.2 3-.2 4.1-1 5.5-3.4 10.6-7.2 17.5-6a7 7 0 0 1 3.3 1.5c.7.6 1.6 1.6 2.5 2q1.3-.1 2.5-.7c1.2-1.5 3-3 5-2.4q2.4.7 5 1.3 3 .5 5.8.9 5 .8 10 1.8 4.5 1.1 9.2 1.2 4 .7 8.3.4c3.7-.2 7.2-1.7 10.8-2.3 1.7 0 3.4.7 5 1.3 3.7 1.6 7.2.8 10.8-.5.7-.3 1.8-.1 2.5-.1q1.7-.1 3.3-.8" class="b"/><path d="m12.4 95.3 12.4-.3a240 240 0 0 0 18.3-2.2c3.9-.5 8-1 11.7.1A28 28 0 0 0 72.3 94a78 78 0 0 0 9.1-2.4q2.5-1.6 5-2.7c4.3-2.2 10.1-2.5 13.3 1.6.4.2 1.3.4 1.7.3q1.3.1 2.5-.4c2.6-3.6 4.7-2.8 8.3-1.5 3.8 1 7.8 1.4 11.7 2.2q2 .3 4.1.5l3.4.8q3.7 1 7.5 1.1c4.9.9 10.2 1 15-.5 1.2-.5 2.8-.7 4-1.1 3-.3 5.6 1.3 8.4 1.5a16 16 0 0 0 6.7-1.2q3.3 1 6.6-.2" class="b"/><path d="M12.4 93.5c3 0 6-.6 9.1-.5 3.3 0 6.7.7 10 .2q4.2-.7 8.3-.9 3.8-.4 7.5-.7c4-.2 7.8.8 11.7 1.2 5 .4 10.1-1.1 15-2.7 3.5-1.2 7-2.7 10.8-3.6 1-.3 2.3 0 3.3-.5q3.6-1.3 7.5-.3c1.2.4 2.3 1.5 3.3 2.4l4.2.2c1-.4 1.7-1.6 2.5-2.3 2.3-2 5 .7 7.5 1.1 2.6.8 5.6.7 8.3 1.3q2.4.6 5 1.2 2 .2 4.1.3 4.1 1.2 8.3 1.6 5 1 10 .7 3 0 5.9-1 1.7-.5 3.3-.9 1.7-.4 3.3 0c2.2.4 4.5 1 6.7.8 1.4 0 2.8-.6 4.2-.7q3.6 1.5 7.4.3" class="b"/><path d="M12.4 91.3q1.6.3 3.3-.2 2.9-.6 5.8-.7c3.6-.2 7.2.8 10.8 1q2.6-.5 5-.6 3.4-.7 6.7-.9c3.9 0 7.8.9 11.6.9q8 .3 15-3.2c5-2.3 10.1-5.4 15.8-5q2.6.1 5 .7 1.3 0 2.5.2c1.2.1 2.3 1 3.3 1.3q3 .9 5.9 1.1c1-1 1.8-2.7 3.3-3 1.2-.2 2.4.5 3.3 1q2 1.3 4.2 1.8c2.7.6 5.6.4 8.3.8 2.8.2 5.6 1.2 8.3 1.5 2 0 4 .7 5.9 1a78 78 0 0 0 14.1 1.2c3.1-.1 6.1-1.4 9.2-1.8 2.2 0 4.4.5 6.6.5q2.2 0 4.2-.5c1 .1 2.3.7 3.3 1q3 .5 5.9 0" class="b"/><path d="M12.4 88.7c1.3.6 2.8.2 4.1 0q2.5-.7 5-1c3.6-.4 7.2.3 10.8.5s7.2-1.4 10.9-1.2c3.6 0 7.1 1.5 10.8 1.4 5 0 9.6-.4 14.1-3 3.4-1.7 6.4-4.4 10-5.7 8.2-2.4 16.4 1.6 24.1 3.9l.9-.3c1.2-2.1 2.5-3.9 5-2.1 1.7 1.2 3.6 2.6 5.8 3 2.7.7 5.6.5 8.3.7q3 0 5.8.3l8.4 1.5q7 1.2 14.1 1.3c3.1.1 6.1-.8 9.2-1.3 3-.2 6.1.4 9.1-.1 1.4-.3 2.8.5 4.2.8q3.2.8 6.6.4" class="b"/><path d="m12.4 86 2.5.8 4.1-1a34 34 0 0 1 7.5-1.1c2.8-.1 5.6.3 8.3 0 2-.2 4-.8 5.9-.8 4.2-.1 8.3 1.3 12.4 2 5 .1 10-.3 14.2-3.2 3.6-2.2 6.5-5.9 10.8-6.7 2.5-.4 5 0 7.5.3a53 53 0 0 1 12.5 3.5c1.3.6 2.7 1.4 4.1 1.6.6-1 1.4-2.6 2.5-3.2 1.3-.4 2.5.7 3.4 1.4a19 19 0 0 0 3.3 2.4c2.8 1.4 6 1.4 9.1 1.4 4 .2 7.8-.5 11.7.1 6.6 1 13.3 2.2 20 2.2 3 0 6-.8 9.1-.9l7.5-.2c3.6.8 7.2 1.7 10.8 1.4" class="b"/><path d="M12.4 83.7c1.3.2 2.8 1 4.1.7 3.4-.7 6.6-1.9 10-2.4q3.8-.3 7.5-.5c2-.1 3.9-.6 5.8-.6 4.3.1 8.4 1.5 12.5 2.3q3 .5 5.8 0 4.1-.3 7.5-2.4 3.1-2 5.9-4.6c1.6-1.4 3.5-2.8 5.8-3 2.5-.3 5 .4 7.5.7q3.8.5 7.5 1.5 2.5.8 5 2c1.3.7 2.6 2 4.1 2.1.6-1.1 1.4-2.8 2.5-3.5 1.3-.4 2.5.8 3.3 1.6q1.5 1.6 3.4 2.6c2.5 1.4 5.5 1.5 8.3 1.5h6.7q2.9-.5 5.8-.3c8 .6 16 2.4 24.1 2q3.8-.5 7.5-.5l5-.2c3.9.5 7.7 1.5 11.7 1.4" class="b"/><path d="m12.4 81.6 4.1.9c3.4-.4 6.7-1.8 10-2.6A64 64 0 0 1 39 78.4c4.2.3 8.3 1.5 12.5 2.3s9.6.3 13.3-2q3-2 5.8-4.7c1.6-1.4 3.6-3 5.8-3.2 3.1-.2 6.2.9 9.2 1.1 5.2.5 10 2.8 14.2 6 .7-.2 1.3-1.5 1.6-2.2.3-.5 1.1-1.5 1.7-1.8l.8-.1c2.5 1.1 4 4 6.7 5 2.6 1 5.5 1 8.3 1 4.4.2 8.9-.4 13.3-.4 8 .6 16 2 24.1 1.7l6.7-.1c1.6 0 3.4-.4 5-.2 3.8.4 7.7 1.2 11.6 1.1" class="b"/><path d="M12.4 79.7c2.1.4 4.4 1.2 6.6.8 5-1 9.9-3.2 15-3.8 5.6-1 11.2.9 16.6 1.8q4.3.8 8.4-.3 2.8-1 5.8-1.9c4-1.8 6.4-6.4 10.8-7.4 2.2-.4 4.5.2 6.7.5q3.4.3 6.6 1.4 3.6 1.4 6.7 3.7c1 .7 2.1 2 3.3 2.4.8-1.7 1.5-4.2 3.3-5.2 1.4-.1 2.5 1.3 3.4 2.1q1.4 1.6 3.3 2.7c2.6 1.3 5.6 1.2 8.3 1.3 4.7.3 9.5-.2 14.2-.4 8.3.4 16.6 1.6 25 1.5 3.5.2 7.2-.1 10.8-.1 4.1.3 8.3.9 12.5.9" class="b"/><path d="M12.4 77.6q3.2.8 6.6 1.2c6.6-.3 12.6-3.9 19.2-3.9 4.1.2 8.3 1.4 12.4 1.8 7 .8 8.2-1 14.2-3.2l2.5-.7c2.6-1.6 4.6-4.2 7.5-5.3q2.9-.8 5.8-.2 3.5.4 6.7 1.6c3.8 1.7 6.6 5 10 7.4 1-2.2 1.6-5.8 4.1-6.6 1.4.1 2.4 1.5 3.3 2.4q1.5 1.6 3.4 2.6c2.6 1 5.5 1 8.3 1.2 5.3.2 10.5-.3 15.8-.2 8 0 16.1.9 24.1 1 3.6.2 7.3-.1 10.9 0q6.2.4 12.4.6" class="b"/><path d="M12.4 74.6c6 3.3 11.1 2.5 17.4.8 2.8-.6 5.5-1.8 8.4-1.8 3.8.2 7.7 1.3 11.6 1.2 7 .5 7.4.1 13.3-3.2q3.1-1.5 6.7-2 2.3-2 5-3.3C78.6 65 83 66 86.4 68c3.1 2 5.5 5 8.3 7.3l.9-.2c1.1-2.3 1.8-5.8 4.1-7.3 1.8-.3 3 1.6 4.2 2.7q1.5 1.5 3.3 2.3C111 74 115 74 119 74l13.3-.1c7-.3 13.9.3 20.8.4h13.3l13.3.6" class="b"/><path d="M12.4 71.8q3.3 1.5 6.6 2.8c5.5 1.5 10.5-1 15.8-2 4.4-.5 9 .5 13.4.5q4 .2 8.3 0 1.7-.5 3.3-1.5c3.5-2.3 7.4-4.5 11.7-4.5 1.8-.9 3.7-2.1 5.8-2.3 3.4-.5 6.7 1.1 9.1 3.3 3 1 5 3.3 6.7 5.8 2.5-2 2.6-7.2 5.8-8 1.7.4 3 2 4.2 3.1a10 10 0 0 0 4.1 2.3q4.5 1 9.2 1c6 .6 12.2 0 18.3-.3h10.8l10-.3q12 .2 24.1.8" class="b"/><path d="M12.4 69.3c10.9 3.8 8.8 5.1 20.8 1.7 4.6-1.1 9.4.7 14.1.5q3.8.1 7.5 0c1.4-.1 3 0 4.2-.8 4-2.8 8.2-5.9 13.3-5.8 2 .2 3.7-1 5.8-1q2.3 0 4.2 1.1c.7.4 1.6 1.2 2.5 1.3q2.4.5 4.1 2.2c.8.8 1.6 2 2.5 2.6l2.5-3.2c.7-1 1.5-2.7 2.5-3.5 3.2-1.6 4.5 4.9 12.5 5.5q10.5 1.4 20.8.8 7.1-.6 14.2-.8 5.4-.6 10.8-.9c8.3.1 16.7.9 25 1.2" class="b"/><path d="M12.4 67q3.8.9 7.5 2.4c1.8.7 3.7 1.7 5.8 1.3 3-.4 6-1.6 9.1-1.8 4-.1 7.8 1.3 11.7 1.3q6.2.1 12.5-.8c1.8-.7 3.3-2.3 5-3.2a18 18 0 0 1 11.6-2.8q1.7-.3 3.3 0c1 .3 2.3.8 3.4.7 3.9.3 5 1.7 7.4 4.4q1.7-2.7 4.2-4.6c1.6-2.3 3.3-1.4 5 .2 3.2 3 7.4 3.9 11.6 4.3q6 .8 11.7.8 5 .3 10-.2l10.8-1c3.6-.6 7.2-1.5 10.8-1.6 8.6 0 17.2 1.3 25.8 1.5" class="b"/><path d="M12.4 65q4.6.6 9.1 2.2c1.4.4 2.8 1.2 4.2 1.4l2.5-.4c10.1-2.8 10.9 1 20 .6q6.7-.1 13.3-1.8c5.4-3.4 8-5.5 15-5.1 4.1.3 9-.5 11.6 3.6l.8-.3a11 11 0 0 1 5.8-4.3c2.3.3 3.8 2.5 5.9 3.4 3.8 2 8.3 2.2 12.5 2.7q5 .6 10 .6 6.2.5 12.4-.4 3.3-.4 6.7-.9c3.8-1 7.7-2.3 11.6-2.4 5-.2 10 .6 15 1q5.5.6 10.8 1" class="b"/><path d="M12.4 63.2a42 42 0 0 1 13.3 2.6c.7.2 1.7.6 2.5.3 10.1-2.2 9.9 1.1 18.3 1.5a52 52 0 0 0 20-4.3q3.7-2.4 8.3-3h5.8c2.5 0 5.2.6 6.7 2.7l.8-.2q2.2-2.9 5.8-3.4c1.2.1 2.4 1 3.4 1.7q1.9 1.5 4.1 2.1 7 2 14.2 2.4 5 .4 10 .4 5.8.7 11.6-.5 2.5-.3 5-1c3.3-1 6.5-2.5 10-2.9 5.3-.5 10.6.5 15.8 1.2 3.9.6 7.8.7 11.7 1.4" class="b"/><path d="M12.4 61.5A45 45 0 0 1 29 64c2.7-.2 5.6-.6 8.3 0 2.2.7 4.4 1.7 6.7 2.1A28 28 0 0 0 58 64.3c4.2-1.3 8.2-3.1 12.5-3.9q4.8-2 10-1.7 2.7 0 5 1.2l1.6 1.3c1.5-2 4.1-3.4 6.7-3 2.3 1 4.3 2.7 6.7 3.2 5.4 1.6 11 2.3 16.6 3q5.4.7 10.8.1c3.6.5 7.3 0 10.8-.7 5-.7 9.2-4 14.2-4.4 5-.3 10 .8 15 1.7q5.9.6 11.6 1.7" class="b"/><path d="M12.4 59.8q9.3-.7 18.3 2.4c2.4.2 5 0 7.5.6Q41 64.1 44 65a19 19 0 0 0 12.5-1.4c3.5-1.5 7-3.2 10.8-4.2q1.7-.4 3.3-.6 1.3.1 2.5-.4c3.4-1.2 7.3-1.6 10.8-.6l1.7.6c.3.4 1.2.9 1.7.9a7 7 0 0 1 5.8-2.4c2.5.7 4.8 2.4 7.5 3q9 2.2 18.3 3.3 5.4.6 10.8-.2 2 .1 4.2.1 3-.2 5.8-1c5.5-1 10-5.2 15.8-4.8q3 .2 5.8.8 3 1 5.9 1.6c1.6.4 3.4.2 5 .4q3.7.6 7.5 1.5" class="b"/><path d="M12.4 58.3q10.2-1.3 20 2.2c1.5.5 3.3.2 5 .6 2.3.3 4.4 1.6 6.6 2.5 4 1.8 8.7 1 12.5-1C61.7 60 67 56.5 73 57.3c4.5-1.8 10-2 14.2.8 2-2.5 5.5-3 8.3-1.5q2.8 1.2 5.8 1.9c3 .7 6 1.7 9.2 1.9q4.5.9 9.1 1.5 5.9.7 11.7-.4 1.6-.1 3.3 0 2.5-.1 5-.8 3.9-.9 7.5-2.9c3.7-2.2 8.3-3.2 12.4-1.5 3 1.2 6 2.7 9.2 2.7l3.3-.2q3.7.6 7.5 1.5" class="b"/><path d="M12.4 56.8C19.6 55.6 27 56.4 34 59c1.5.6 3.4.3 5 .7 2.4.5 4.5 2 6.7 3 4 2 8 1 11.6-1.3 5-2.8 10.6-7 16.6-5.5 1.1-.1 2.3-.7 3.4-.9q2-.3 4.1-.1c2 .3 4.4.6 5.9 2 2.5-1.8 4.2-3 7.4-1.8 2.7 1 5.6 1.5 8.4 2.4q4 1.2 8.3 1.4 4.5 1.1 9.1 1.8c4.2.6 8.4-.1 12.5-.8h3.3q3-.2 5.9-1.3c4.5-1.6 9.2-6 14.1-4.7 3.5 1 6.3 3.9 10 4.3 2.2.4 4.5-.3 6.7-.6l6.6 1.4" class="b"/><path d="M12.4 55.3c7.9-1.6 15.7-.5 23.3 2.1q2 .7 4.1.8c2.5.3 4.6 1.9 6.7 3.1 4.3 2.6 7.7 1.8 11.6-.9 5.2-3 11.2-7.6 17.5-6a14 14 0 0 1 8.3-.1q2.3.3 4.2 1.7c2.4-2.8 5-2.8 8.3-1.7q3.8 1 7.5 2l5 1q1.7 0 3.3.2a54 54 0 0 0 10.8 2q3.8.3 7.5-.5c2-.3 4-1 5.9-.6 4.7.2 8.5-3 12.4-5.1 9.6-5.5 11 7.3 21.7 4q1.6-.5 3.3-.8l5.8 1" class="b"/><path d="M12.4 53.8c8-1.8 16.3-.8 24 1.8q2.6.9 5 1c2.6.5 4.6 2.3 6.7 3.6 4.6 3.1 7.5 1.7 11.7-1.1 4.3-2.9 8.9-5.9 14.1-6.4q1.6-.1 3.4.2a13 13 0 0 1 7.5.4q1.2.2 2.5.6l1.6 1c2.3-2.8 5.1-2.7 8.3-1.8l7.5 2q2.5.5 5 .7c1 .2 2.3-.2 3.3.2 3.8 1.1 7.7 2.2 11.7 2.3 3.4 0 6.7-.8 10-1.5q1.2-.1 2.5 0 1.7.1 3.3-.3c3.7-1.3 6.4-4.5 10-5.8 6.9-2.6 8.9 7.8 17.5 6.4 2.2-.3 4.4-1.3 6.6-1.9l5 .7" class="b"/><path d="M12.4 52.2a51 51 0 0 1 25.8 1.6q2.3.9 5 1.3c2.5.6 4.5 2.6 6.6 4 4.5 3.4 7.6 1.5 11.7-1.2 2.4-1.6 4.8-3.5 7.5-4.6s6-2 9.1-1.8c1 .2 2.3-.1 3.3 0q1.7 0 3.4.6c1.6.5 3.5.4 5 1.5 2.5-2.2 4.2-2.5 7.4-1.7l8.4 2q2.4.4 5 .5c1 0 2.3-.4 3.3 0q4 1.4 8.3 2.1 3.4.4 6.7.3 3.4 0 6.6-.7 4-.3 7.5-2.2c2.7-1.8 5-4.5 8.3-5.2 2-.4 3.7.9 5 2 1.6 1.4 3.2 3 5 4 3.3 2 7.4 1.5 10.8.3q2-.8 4.2-1.2 1.7-.1 3.3.1" class="b"/><path d="M12.4 50.7c8.1-2 15.2-1 23.3.7q5 .8 10 2.5c2 1.1 3.8 3 5.8 4.3 3.7 3 7.2 1.5 10.8-1 2.4-1.6 4.8-3.6 7.5-4.7q4-1.4 8.3-2h4.2c1.6-.3 3.3.5 5 .8q1.2 0 2.5.3c.3.2 1.2.4 1.6.3 2-2 5-1.5 7.5-1l7.5 1.6q2.5.4 5 .4c1 0 2.3-.4 3.3-.1q5.3 1.7 10.8 2.7a33 33 0 0 0 11.7-1l5-1.7c1.2-.3 2.3-1.5 3.3-2.4 1.8-1.6 4-3.6 6.7-3.3 3.3 1 5.4 4.2 8.3 5.9 6 3.9 12.8-.4 19.1-.7" class="b"/><path d="M12.4 49.1a47 47 0 0 1 21.6.5c3.8.8 8 .8 11.7 2.2 4.3 1.8 7.1 7.6 12.4 7 4.6-.7 7.7-4.8 11.7-6.8q2.8-1.2 5.8-1.5l5-.9q2.5-.1 5-.1 2.4.4 5 .7c.7 0 1.7.3 2.5 0 .6-.4 1.7-.7 2.5-.8 3.3 0 6.7 1 10 1.4q3.2.7 6.6.6 1.6-.2 3.4-.2l2.5.7c2 .5 3.7 1.8 5.8 2 3.8.4 7.8-.3 11.6-.7 1.5 0 2.9-1.2 4.2-1.7q2-1 4.2-1c1.8-1.6 3.4-3.8 5.8-4.7 5.7-1.9 8.2 7.7 17.5 7 4.1-.1 8.3-1.4 12.4-1.5" class="b"/><path d="M12.4 47.5a43 43 0 0 1 17.4-.4c2.5.5 5 1.3 7.5 1.6 2.8.4 5.7.3 8.4 1 4.6 1.6 7.1 7.4 12.4 7.9 5.1.3 8.4-4.4 12.5-6.5 2-1 4.5-1.2 6.7-1.5a47 47 0 0 1 16.6-.9c1.3-.1 2.8-.5 4.2-.4q5.4.6 10.8 1.5h4.1c1.1 0 2.3-.3 3.4 0 2 1 4.2 2.3 6.6 2.5 2.3.1 4.5-.5 6.7-.9q3.3-.4 6.7-.5c2.7-1.8 4.8-3 8.3-2.7 9.2-11 10.3 2 20.8 2.5 4.7.1 9.4-.6 14.1-.6" class="b"/><path d="M12.4 45.8c4.6-.7 9.4-1.6 14.1-1 4 .4 7.8 1.8 11.7 2.5 2.4.4 5 .3 7.4.5 4.2 1.1 6.4 5.4 10 7.4q3.7 2.1 7.5.1 3.6-1.6 6.7-4.2c2.1-1.6 4.9-2 7.5-2.3q2.9-.4 5.8-1l10.8-.6h5.9q3.7.2 7.5.8 2.8.3 5.8.5l4.1.7 2.5.9c3.1.9 6.3-.4 9.2-1.2q3.7-1 7.5-.8c2.7-2 4.9-2.8 8.3-2 1-.2 1.8-1.5 2.5-2.1q1.4-1.5 3.3-2c4.2-.6 7.2 5.8 14.2 6.3 2.2.3 4.5 0 6.6.1l8.4.3" class="b"/><path d="M12.4 44.2c13.6-2.3 12.7-2 25.8 1.3 2.4.6 5 .5 7.4.6 3.8.5 6.7 5.4 10 7.3q4 2.9 8.4.7l4.1-2.2q2-1.7 4.2-2.9c2-1 4.4-1 6.6-1.3q6.3-1 12.5-1.3 4.5-.6 9.2-.5c5 .1 10 1 15 1.8q2.4.6 5 .7 2.5-.1 5-1.1 3-1.5 6.6-2.2 2-.2 4.2-.2c1.8-1.4 4.3-2.1 6.6-1.2.7.3 1.7.7 2.5.4 7.6-10 9 .9 19.1 1.8 2.2.2 4.5 0 6.7.3q4.2.3 8.3 1" class="b"/><path d="M12.4 42.5q4-.6 8.3-1.5c5.6-1 11.2 1.1 16.6 2.4 11.3 2.3 7-1.8 16.7 6.9 5.6 4.6 8 4.5 14.1.9 2.2-1.4 4-3.5 6.7-4q2.8-.6 5.8-.9 2-.4 4.2-.5l2.5-.1c3.2-.5 6.6-.4 10-.7q6.7-.6 13.3.3 4.5.6 9.1 1 2.6-.4 5-1.3c2.4-1 5-2.2 7.5-2.8 1.3-.4 2.9-.1 4.2-.6 3.1-1.6 5.4-.2 8.3 1.3 1.3-.8 2.1-2.6 3.3-3.6 3.3-3.3 6.1-.4 9.2 1.5q3.4 2.1 7.5 2.7 3.7.3 7.4.5 3.8.4 7.5 1.3" class="b"/><path d="M12.4 41c2.5-.4 5-1.3 7.5-1.8 5.6-1.3 11.2.7 16.6 2q4.5 1 9.1 1.3c2.3.5 4.1 2.4 5.9 3.8 2.7 2.4 5.6 5 9.1 6.2 2 .5 4.1-.2 5.8-1.2 2-.8 3.5-2.3 5-3.6q2.3-1.8 5-2.2l7.5-1h2.5l4.2-.5c2.2-.2 4.4 0 6.6-.2l7.5-.3c6.1-.1 12.4 1.2 18.3-.3 4.7-1.5 9.2-4 14.2-4.5 2.5 0 4.6 1.7 6.6 3 1.5-.7 2.3-2.7 3.4-3.8 3.2-4 5.6-2.2 9.1.1q3.8 2.5 8.3 3.2 3.8.5 7.5.6 3.8.6 7.5 1.6" class="b"/><path d="M12.4 39.3c2.5-.6 5-1.7 7.5-2.2 4.7-1 9.5.4 14.1 1.5a84 84 0 0 0 11.6 2q1.4.4 2.5 1.3c5.2 3.6 11.4 12 18.4 8.6 1.9-.8 3.4-2.6 5-3.9q2-1.9 5-2.6 4-.4 8.3-1c2.2.1 4.4-.5 6.6-.6 3.6-.3 7.2 0 10.8-.1 6.1-.5 12.4.3 18.3-1.2 5.3-1.3 10.2-5.6 15.9-4.1q1.7.5 3.3 1.2c1 .4 2.1 1.6 3.3 1.7 8.2-13 9.7-3.6 20-1.3q2 .5 4.2.8l4.1.9h4.2q2 .4 4.1 1" class="b"/><path d="M12.4 37.4c2.2-.6 4.4-1.7 6.6-2.3 5.6-1.3 11.2.7 16.7 1.8q4.9 1.3 10 2c2.2.6 4 2.5 5.8 4 4.1 3.6 10 9.7 15.8 6 2.6-1.7 4.5-4.6 7.5-6 2.6-1.1 5.5-.8 8.3-1.2l4.2-.4 5.8-.8q4.5-.3 9.1.2l7.5-.3q4.6 0 9.2-1.2c5.8-1.8 10.2-7.1 16.6-3.3.7.5 1.8.3 2.5.4q1.3.4 2.5 1c.6-.3 1.4-1.6 1.7-2.2.8-1.5 2-3.2 3.3-4.2 4.5-2.7 9.3 2.6 13.3 4.1q3.2 1.5 6.7 2 3.2 1.3 6.6 2h4.2q1.7-.5 3.3 0" class="b"/><path d="M12.4 35.4c2.4-1 4.8-2.3 7.5-2.7 5.6-.5 11.2 1 16.6 2.4a51 51 0 0 0 10 2c2.5 1.4 4.6 3.5 6.6 5.5 3.6 3.4 9 8.3 14.2 4.9 3.1-2.2 5.3-5.9 9.1-6.9 2.5-.6 5-.3 7.5-.6 3.7-.2 7.3-1 10.9-1.5q3.7-.3 7.4.2 7.6.6 15-1.2a35 35 0 0 0 6.7-3c2-1.2 4.3-2.3 6.6-1.6 1.9.4 3.4 1.8 5 2.7h2.5c2-2.5 2.9-6.4 5.9-8.2 2.2-1 4.6.5 6.6 1.3l5.9 3q3.6 2 7.4 2.8c2.8 1 5.5 2.2 8.4 2.8q2 .4 4.1.3h1.7l1.6.7" class="b"/><path d="M12.4 33.3c2.3-1.2 4.8-2.5 7.5-2.7 5.9-.4 11.8 1 17.4 2.8q4.5 1.4 9.2 1.8c2.7.8 4.6 3.4 6.6 5.2 3.5 3.7 9 9.2 14.2 5.4 4.1-3.2 6.4-7.9 12.5-7.4q5.4 0 10.8-.8 4-1 8.3-1.3c3.6.1 7.2 1 10.8.6q3-.8 5.9-1.3c4.7 0 8.5-4.9 13.3-4 2.2.5 3.8 2.5 5.8 3.4 3.1-3.4 4.7-12.7 10.8-10 4.4 2 8.7 4.4 13.4 6q6.1 2.2 12.4 4.3c1.9.7 4 .6 5.9 1.2l2.5 1.4" class="b"/><path d="M12.4 31c4-2.3 7-3 11.6-2.5q3.4.3 6.7 1l8.3 2.4c11.2 2.9 6.1-1 15 7.6 3.8 3.1 8.2 8.6 13.3 4.4 2.4-1.8 4.1-4.5 6.6-6.2s5.6-1.4 8.4-1.3q4.1 0 8.3-.3c3.3-.4 6.6-1.7 10-1.8 3-.1 6.1.9 9.1.4q2.9-1.1 5.9-1.5c1.3-.3 2.9 0 4.1-.5 2.6-1 5.5-2.5 8.3-1.7 1.2.4 2.2 1.3 3.4 1.6 1.7-.4 2.5-2.2 3.3-3.6 1.7-2.7 3.6-7 7.5-6.4 2.4.5 4.5 1.8 6.7 2.9q3.6 1.9 7.4 3 7.5 2.3 15 5 2.5.7 5 1.2 1.6 1.2 3.3 2" class="b"/><path d="M12.4 28.8c4-2.6 7.7-2.8 12.4-2.2 5 .3 9.5 2.2 14.2 3.3 12.3 2.8 6.9-.3 15.8 8.7q2.7 2.5 5.8 4.2c2.2 1.5 4.8 1 6.7-.7 2.6-2.2 4.4-5.4 7.5-7 2-1.2 4.4-1 6.6-.8l5 .3q3.3.4 6.7-.2 3-.7 5.8-1.6c3.5-1 7.3-.1 10.8-.4 3.4-1.3 7.2-2.1 10.9-1.5 2.4-.5 5.1-1 7.4.1l2.5-1.5 1.7-2.4c2-3.1 5-7.1 9.2-6 5 1.2 9 4.7 14.1 5.9q3.8.8 7.5 1.7 4.2 1.2 8.3 2.8 2 .8 4.2 1.2c1.4.6 2.7 1.8 4.1 2.4" class="b"/><path d="M12.4 26.6c3.8-2.5 8-2.6 12.4-2 4.6.5 8.9 2.3 13.4 3.3 3.5.9 7.3 1.2 10.8 2.3 2 2 3.8 4.6 5.8 6.6 2.3 2.4 5.1 4.4 8.3 5.1 4.4.4 7-5.6 10-8 2.4-2.1 5.4-2.3 8.3-1.7 5 .6 10.1 1.8 15 .1 3.2-1 6.6-2.2 10-2.1h3.3q4-1.7 8.4-1.8 3 .1 5.8.8c2.3.8 2.7 0 4.1-1.6 4.3-5.9 8-10 15.9-7 3.4 1.4 6.4 3.8 10 4.8 3.8 1 7.8 1 11.6 2 3.4 1 6.6 2.5 10 3.4 1.4.7 2.7 1.9 4.2 2.4" class="b"/><path d="M12.4 24.4q5-2.8 10.8-1.9c4.8.8 9.4 2.4 14.1 3.4l10 2c.8.2 1.9.4 2.5.9q2.9 3.5 5.8 7c2.4 2.4 5.7 4.4 9.2 4.2 1.3 0 2.5-1.2 3.3-2.2 8-10.6 7.6-8.8 20-6.5q4.6 1 9.2-.4 3.3-1.1 6.6-2.2 3.3-.6 6.7-.7 4.4-1.7 9.1-1.7c1.7 0 3.4.7 5 .6 2.2-2 3.9-5 6.7-6.4a17 17 0 0 1 10.8-1.8c2.4.5 4.6 2 6.7 3.4q3.7 2.6 8.3 2.8c3.6.1 7.3 0 10.8 1.2q4.2 1.3 8.3 3 1.6 1.1 3.3 2" class="b"/><path d="M12.4 22.2c8-4 11.5-1 19.1 1.3q3.4.6 6.7.8 5.8 1 11.6 2.2c5 5.1 8.7 14 17.5 10.5 2.9-2.6 4.3-6.6 7.5-8.9 2.2-1.6 5-.9 7.5-.1 3.3.7 6.6 2 10 2.2 5.8.5 10.9-3.4 16.6-4 2 0 4-.7 5.8-1.2q4.2-1 8.3-.4c1.1 0 1.8-1.3 2.5-2q1.5-1.7 3.4-2.7l2.5-.7c3.7-1 7.8-3.2 11.6-1.4a41 41 0 0 1 7.5 4.4c2.2 1.4 5 2 7.5 1.8 3-.3 6.2-.8 9.2-.3 3.1.6 6.1 2 9.1 3.2q1.6 1.1 3.3 1.9" class="b"/><path d="M12.4 20.1c3-1.4 6.7-2.6 10-1.1q1.6.4 3.3 1.1 2 1.3 4.1 2.1c2.7 1 5.6 1 8.4 1 2.8-.3 5.5.5 8.3 1 1.3.2 2.9 0 4.1.6 2.6 2.9 4.6 6.4 7.5 9 3.6 3.2 8.6 1.5 11.7-1.5 2-2.8 3.7-6.9 7.5-7.6 1.6-.2 3.4.5 5 1q3.8 1.3 7.4 2.5 5 1.3 10-.5c2.3-.7 4.4-1.8 6.7-2.4 1.8-.7 4-.8 5.8-1.2q3.4-1 6.7-1.4c1.3-.3 2.8 0 4.1-.2 2.7-2.9 3.7-3.5 7.5-4 2.6-.5 5-1.7 7.5-2.3 2.7-1 5.3.9 7.5 2.2 1.6 1 3.6 1.6 5 2.8a10 10 0 0 0 7.5 2c2.8-.5 5.5-1.4 8.3-1.4 4.8 0 9.3 2.4 13.3 4.7" class="b"/><path d="M12.4 18c3.4-1.5 4.5-2.3 8.3-.6q2 .8 4.1 1.3 1.7 1 3.4 2a13 13 0 0 0 6.6 1.6c2.2 0 4.5-.7 6.7-.7q4.5 1 9.1 1.4c2.8 2.5 4.9 5.8 7.5 8.5 5.4 5.3 11.4-2.3 15-6.2 2.6-3.6 5.3-3.6 9.2-2 7 3.4 11.2 5.3 19.1 2.5q3.3-1.4 6.7-2.4 2.5-.6 5-1 4.5-1.4 9.1-1.4c3-2.8 3.6-2.8 7.5-3 2.3-.4 4.5-1.6 6.7-2.4 2.9-1.3 4.8-.9 7.4.8q3.3 2 6.7 3.8c2.5 2.2 6 3 9.2 2 8.8-3.4 11.8-2.8 20 2" class="b"/><path d="M12.4 15.9c3-2.4 5.3-.7 8.3.6q2 .7 4.1 1.2a21 21 0 0 0 3.4 2.3c2.2 1.1 5 1.6 7.5 1.2q2.4-.4 5-1c1.3-.1 2.8.4 4.1.6q3 .6 5.8.9C52 22.5 53 24 54 25c1.2 1.4 2.9 2.7 4.1 4 3.3 3.6 6.3 2 9.2-.9 3-2.7 5.1-7 9.1-8.3 3-.8 5.8 1.1 8.4 2.5q3.5 2.1 7.4 3c5.5.7 10.7-1.8 15.8-3.3q3-.8 5.9-1.3 3.7-.9 7.5-1.3c.5 0 1.3-.6 1.6-1a6 6 0 0 1 2.5-1q1.6-.1 3.4 0c2.3-.1 4.5-1.5 6.6-2.4 3.2-1.6 5.1-2 8.3-.1a84 84 0 0 1 8.4 5.4 10 10 0 0 0 8.3.7c8.6-3.6 10.7-4.2 19.1.9" class="b"/><path d="M12.4 13.4c2-1.2 4 0 5.8 1q2.4 1.3 5 1.8c1.6 0 2.8 1.6 4.1 2.3 4.3 2.4 9 1.7 13.4 0 3.3.5 6.6 1.6 10 1.8 1.3.6 2.2 2.3 3.3 3.3a24 24 0 0 0 5 4.1c1 .6 2.1 1.4 3.3 1.3 2.6-.5 4.2-3 5.8-5 4-5.1 7.3-10 14.2-5.4 3 2 6.3 4.1 10 4.7 3.9.3 7.9-.7 11.6-1.8q6.1-1.8 12.5-2.7l5-.8 2.5-1.4c1.5-.7 3.4 0 5 0 2-.1 4-1.3 5.8-2.2 1.9-.8 3.8-2 5.8-2.2 3.5.1 6.5 2.6 9.2 4.6a12 12 0 0 0 10 3.6c2-.3 4-1.6 5.8-2.5 6-2.6 8.8-1.6 14.2 1.7" class="b"/><path d="M12.4 11.3c1-.3 2.3.2 3.3.7l4.2 2q2 .7 4.1 1.1a24 24 0 0 0 7.5 3.3q3.4.5 6.7-.7 1.2-.4 2.5-.7l1.6.3 5.8 1.1c3.3.4 3 .3 5 2.7 2 2.3 4.5 4.6 7.5 5.4 3 1.2 5.1-2.2 6.7-4.3C69 19.8 70.8 17 73 15c3-2.5 6.5-.6 9.2 1.3q3 2.2 6.6 3.8c3.7 1.5 7.9.6 11.7 0l7.5-1.5 12.5-2c.8.1 1.7-.6 2.5-1a6 6 0 0 1 2.5-.5c1.3 0 2.8.4 4.1.3 2.7-.4 5-2 7.5-3.2q2-1 4.2-1.4c5.1.2 8.3 5.2 12.4 7.7a10 10 0 0 0 9.2 1.1c2.5-1 4.5-3 6.7-4.4 3.7-1.4 6.8 0 10 2" class="b"/><path d="M12.4 9.6q2.5.5 5 1.7 3.2 1.3 6.6 2.2c3.1 1.5 6.5 3.2 10 3.4q3-.3 5.8-1.5 1.6 0 3.4.4l7.4 1.2c1.4.6 2.3 2.4 3.4 3.4 2 2.1 4.5 4 7.5 4.1 4.3.5 7.8-10.4 11.6-12.8 2.7-2 6 0 8.3 1.6q3.6 2.3 7.5 4c2.7 1 5.6.6 8.3.4l9.2-.9q7.1-.5 14.2-1.5c.8 0 1.7-.7 2.5-1q1.6-.6 3.3-.5 2 .4 4.1.4c3.9-.8 7.1-3.6 10.9-4.7 2.5-.6 4.8 1 6.6 2.6 3.7 3.2 7.3 7.7 12.5 7.9 4.8.2 8-3.8 11.7-6.4 2.4-1.5 5.3 0 7.4 1.4" class="b"/><path d="M12.4 8c4.2.9 8.4 2.5 12.4 4 3.2 1.2 6.5 3 10 3q2.6-.4 5-1.3 1.6 0 3.4.3l7.4 1c1 .5 1.8 1.8 2.5 2.6 2.1 2.4 5 5 8.4 4.6 2.4 0 3.8-2.4 5-4.2 1.8-3 3.3-6.4 5.8-8.8s5.8-.7 8.3.8q3.3 1.8 6.7 3.4c2.6 1.1 5.5 1 8.3 1l6.6.3q9.2.4 18.3-1c1.4-.2 2.8-1 4.2-1.1 2-.3 4 .3 5.8.3 4-.5 7.3-3.1 10.9-4.6 5-1.9 8.8 4.9 12.4 7.5 3.4 3 8.3 4.5 12.5 2.5 2.5-1.2 4.5-3.4 6.7-5 2-2 4.4-1.8 6.6-.5" class="b"/></svg>