<svg xmlns="http://www.w3.org/2000/svg" id="a" width="1920" height="2400" viewBox="0 0 192 240"><defs><style>.b{fill:none;stroke:#fff;stroke-miterlimit:10;stroke-width:.3px}</style></defs><path d="M0 0h192v240H0z" style="stroke-width:0"/><path d="M7.9 229.7q1.3 0 2.6-.3c3.3-4.8 9.4-6.6 14.9-7 9-.8 17.8 2.3 26.3 4.8a21 21 0 0 0 15.8-1c10.2-5.4 21-8 32.4-6.1 5.3.8 10.6 2.4 15 5.4q1.4 1 2.6 2.4c.2.5 1.2 1.5 1.7 1.8h1.8c3.3-5.4 9.8-7.7 15.8-8.6a29 29 0 0 1 25.4 8.6h22" class="b"/><path d="M7.9 227.5h2.6c3.6-5 9.8-7.2 15.8-7.6 9-.8 17.7 2.1 26.3 4.4a22 22 0 0 0 15.8-1 51 51 0 0 1 30.7-5.5c6.9 1.2 14.4 3.5 18.4 9.7h1.7a21 21 0 0 1 12.3-8 34 34 0 0 1 25.5 2.3q2.8 1.6 5.2 3.7c.8.6 1.6 1.9 2.7 2H184" class="b"/><path d="M7.9 225c1 .6 2.3.4 3.5.3 3-4.7 8.7-6.8 14-7.5 9.5-1.4 18.9 1.6 28 3.8a23 23 0 0 0 15-.7c9.6-4.4 20.1-7 30.7-5 6.2 1.2 13.3 3.4 16.6 9.2l1.8.3c.5-.4 1.4-1.5 1.7-2q1.2-1.4 2.7-2.4c3.6-2.5 8-3.9 12.2-4.8 11.7-2.5 24 .8 32.5 9.2H184" class="b"/><path d="M7.9 222.2q.6.8 1.7 1 1.4.2 2.6-.3c3.1-4.6 8.8-6.5 14-7.3 9.6-1.4 19 1.4 28.1 3.5 5 1.2 10.3 1.3 15-.9A51 51 0 0 1 99 214c4.3 1 8.8 2.5 12.2 5.4 1.4 1 2.3 2.8 3.6 3.8.4 0 1.3 0 1.7-.3 3.4-5.6 10.7-7.4 16.7-8.9 12.2-2.9 25.9.2 35 9 5 .5 10.7.1 15.8.2" class="b"/><path d="m7.9 219.6 1.7 1.4c1.1 0 2.5.3 3.5-.3 3.2-4.5 8.8-6.4 14-7.2 9.5-1.5 19 1.3 28.1 3.3 4.6 1 9.6 1.1 14-.7a53 53 0 0 1 28.1-4.1c6 1 12.5 3.6 15.8 9h1.8c2.5-4 7-6 11.3-7.3q7.8-2.6 15.8-3a40 40 0 0 1 28.1 10.1c1.6.5 3.6.2 5.3.3h8.7" class="b"/><path d="m7.9 217.3 2.6 1.6c1.1 0 2.5.2 3.5-.4q2.1-2.7 5.3-4.4c9.8-5 21.3-3 31.5-.6 5.4 1.2 11.2 2.7 16.7 1.1a58 58 0 0 1 29-4.4c5.5 1 11.8 3.3 14.8 8.4 2.4 1.1 3-.9 4.4-2.2q2-1.6 4.4-2.7 5.2-2.1 10.5-3.3a51 51 0 0 1 20.2-1.4 41 41 0 0 1 21 9.7c1.4.4 3 .2 4.4.2h8" class="b"/><path d="M7.9 215.3q1.3.6 2.6 1.5c1.4-.2 3.1.3 4.4-.4 1.3-1.8 3.3-3.3 5.2-4.3 9.3-4.6 20.1-3.1 29.9-1 5.7 1.2 11.7 3 17.5 1.6 6.6-2 13.2-4.3 20.2-4.6 8.3-.4 17.6 1.6 22.8 8.7h1.7l2.6-2.6a22 22 0 0 1 6.2-3q5.6-1.7 11.4-3a45 45 0 0 1 41.2 8.6h10.5" class="b"/><path d="M7.9 213.6q1.2.6 2.6 1H14c1.5.3 2.5-1.3 3.5-2.1a29 29 0 0 1 19.3-5.2c5 .2 10 1.2 15 2.2 4.5 1 9.2 2.2 14 1.6 3-.4 5.8-1.5 8.7-2.2q5.6-1.7 11.4-2.3c7.9-.5 18 .9 22.8 7.8q1.3.3 2.6.2c4-4.4 10.2-5.4 15.8-6.7 6.6-1.6 13.4-3.3 20.2-3.2a42 42 0 0 1 26.3 9c.3.4 1.2 1 1.8 1h8.7" class="b"/><path d="M7.9 212.2c1.9.5 4 .2 6 .3 2.6.2 2.7-.7 4.5-2 6-4.5 13.8-5.4 21-4.8q7.1.8 14 2.4c4.4.9 8.8 1.8 13.2 1.2 6.7-1.5 13.3-4 20.2-4.3 7.5-.3 16.3 1.1 21 7.5 3.4 0 2.8.1 5.3-1.8q2.5-1.4 5.3-2.3c3.7-1 7.6-1.5 11.4-2.4 6.8-1.8 13.9-3.4 21-3a42 42 0 0 1 23.7 8.6c.3.3 1.2.8 1.7.9h8" class="b"/><path d="M7.9 210.3h8.7c1.2-.5 2.3-1.8 3.5-2.4 8.7-5.3 19.4-4.3 29-2.4 6.9 1.4 14 3.6 21 1.4 8-2.2 16.3-4.4 24.6-2.9a20 20 0 0 1 12.3 6.3h3.5q1-.2 1.7-1 1.7-1 3.5-1.5c4-1.4 8.3-1.6 12.3-2.5 5.8-1.3 11.6-3.1 17.5-3.7 11-1.4 22.1 2 30.7 8.7h8" class="b"/><path d="M7.9 208.2h9.6c1.6-.5 2.9-2 4.4-2.6q5-2.3 10.5-2.9c9.2-.9 18.2 2 27.2 3.4q3.5.5 7 0 4-.7 8-1.9a54 54 0 0 1 15.7-2.2q7 .2 13.2 3.7c1.2.6 2.2 2 3.5 2.5 1.7-.1 3.6.2 5.2-.3q1.3-.7 2.7-1.1c3.6-1.2 7.6-1.3 11.4-1.9 6.2-1 12.1-3.5 18.4-4.4 11-2 22.8.6 31.6 7.6h7.8" class="b"/><path d="M7.9 206h11.4c10-7 23-4.5 34.2-2.2a37 37 0 0 0 14 .9c8-2 16.1-4.9 24.5-4.1q5.6.3 10.6 2.8l2.6 1.6c.4.4 1.2 1 1.7 1h7c1.8-.1 3.6-.8 5.3-.9 3.5-.3 7.1-.2 10.5-1.2 4.8-1.3 9.3-3.2 14-4.2a38 38 0 0 1 25.5 2.2c9.5 4.9 3.1 4.2 15 4.1" class="b"/><path d="M7.9 203.9H21q2.1-1.2 4.4-2c9.5-3.3 19.5-.5 29 1.3 5.1.9 10.7 1.2 15.7-.5 5-1.5 9.9-3 15-3.6a30 30 0 0 1 21.9 4.8h14.9c2.9-.1 5.9.2 8.7-.2 4.2-1.3 8.2-3.3 12.3-4.5a37 37 0 0 1 21-.8q4.2 1.3 8 3.4c1.4.7 2.7 2.3 4.4 2.1h7.8" class="b"/><path d="M7.9 201.7h14.9c.8.2 1.8-.3 2.6-.6q1.7-.6 3.5-1 6.5-1 13.2.4l5.2 1.1q2.6.1 5.3.1h14.9q2.3.1 4.4-.8l6.1-2c5.4-1.6 11-2.5 16.7-1.9a31 31 0 0 1 12.3 4c.3.4 1.2.8 1.7.7h24.6q1.7.1 3.5-.2 3.3-1.8 7-3.2c6.7-2.5 14.2-3 21-.9q4.7 1.6 8.8 4.3h10.5" class="b"/><path d="M7.9 199.6h64l4.4-1.7c7.2-2.6 15.1-4 22.8-2.5q5.6 1.1 10.5 4.2h30.7q1.3-.4 2.6-1.2l4.4-1.7a28 28 0 0 1 23.7 2.9H184" class="b"/><path d="M7.9 197.4h65.7q2.7-1 5.3-2.1 5.5-2 11.4-2.7a33 33 0 0 1 21 4.8h32.5c1.2.2 2.4-.6 3.5-1a27 27 0 0 1 14-1.1q3.2.8 6.2 2.1H184" class="b"/><path d="M7.9 195.3H28q3.5.1 7-.1 3.1-.8 6.2-1.2 5.3-.7 10.5 0c2 .3 4 1.3 6.1 1.3h16.7q1.8-.6 3.5-1.5 3-1.3 6.2-2.2a34.4 34.4 0 0 1 28 3.7h38.6c1.7.1 3.5-.4 5.3-.4 2-.1 4 .5 6.1.4h22" class="b"/><path d="M7.9 193.1q10.5.2 21 0c3.8-.5 7.6-1.5 11.4-2a43 43 0 0 1 17.5 1.2q2.2 1 4.4.8H71c1.7 0 3.7.4 5.3-.3 7.4-4 16.2-5.9 24.5-4.3 4.1.7 7.9 2.5 11.4 4.6h69.3c.8 0 2 .1 2.6-.3" class="b"/><path d="M7.9 191c5.8-1 11.6 0 17.5-.1 5-.1 10-1.5 14.9-2.2a49 49 0 0 1 22.8 2.3h12.3c1.2.2 2.4-.8 3.5-1.3l4.4-1.9a34 34 0 0 1 16.6-1.4c3.8.6 7.6 2 10.6 4.4 2.5.5 5.3 0 7.8.2h61.5c1.4-.5 2.8-1.7 4.3-2.2" class="b"/><path d="M7.9 188.5c4.3-.6 8.8 0 13.1.3q4.9.2 9.7 0c4-.7 8.1-1.8 12.2-2.3q7.5-1 15 .4c2.6.3 5.2 1.3 7.8 2h8c1.7 0 3.7.3 5.2-1 9.1-4.8 21.3-5.6 29.8 1 2-.2 4.2.2 6.2-.3q4-2.2 8.7-2.1 3.1 0 6.2 1 1.6.8 3.5 1.3h40.4c1.3 0 3.1.4 4.3-.4q3-1.9 6.1-3.2" class="b"/><path d="M7.9 186.3c3.2-.3 6.4.3 9.6.4h18.4c1.5 0 3-.7 4.4-1q3.5-.9 7-1.1 10.4-1 20.2 2.1h7.9c1.4 0 3.2.3 4.4-.6 7.5-4 18.5-5.3 25.4.6h3.5q1-.2 1.8-1 1.6-1.1 3.5-1.8 6-2.3 12.3-1.5a35 35 0 0 1 12.3 4.1c1.3.4 3 .1 4.3.2h29.9c1.6.2 3-.9 4.3-1.6a44 44 0 0 1 7-3" class="b"/><path d="M7.9 184.5H42c1.7 0 3.5-.8 5.2-1a48 48 0 0 1 22 1h11.3a22 22 0 0 1 8.8-2.6q4.6-.4 8.8 1.2c.8.4 1.7 1.2 2.6 1.5h1.8c1.4.2 2.4-1.1 3.5-1.8q2.8-2 6.1-2.8c7.4-2.3 15.5-2 22.8.6l10.5 3.8c5.3.4 10.6 0 15.8.2h8.8c4.8-1.3 9.2-4.2 14-5.4" class="b"/><path d="M7.9 182.4H49c1.4 0 3-.7 4.4-.8a45 45 0 0 1 14.9 0c1.7.4 3.5 1 5.2.8 5-.1 10 .2 15-.3l3.5.3h5.2c8.6-6.5 21.1-8.5 31.6-7 8.9 1.6 17.3 5.5 26.3 6.6q9 1.2 17.5-1.7c3.8-1.2 7.6-2.8 11.4-3.7" class="b"/><path d="M7.9 180.3h16.6c1.4 0 3-.7 4.4-.9q3-.4 6.1-.2c2.4 0 4.7.8 7 1h13.2c1.5.1 3-.4 4.4-.6a35 35 0 0 1 7-.4q4.9.4 9.7 1h9.6c3.4-.5 6.5-2 9.7-3.2q5.5-2.2 11.4-3.6c8-1.8 16.5-2.2 24.5-.6 12.5 2.5 25 7.3 37.8 5.3 5-.8 9.9-2.7 14.9-3.8" class="b"/><path d="M7.9 178.1h14c1.7-.2 3.5-1 5.2-1.3a39 39 0 0 1 16.7.5c1.1.2 2.4.8 3.5.8h14q2.7-.5 5.3-.8 8 .2 15.8-1.3c5.6-1.1 11.1-3 16.7-4.4a82 82 0 0 1 29.8-2.2c13.4 2 26.6 6.8 40.3 5.8 5-.4 10-2 15-3" class="b"/><path d="M7.9 176H21q4.6-1.8 9.7-2.2a52 52 0 0 1 20.1 2q3.5.2 7 .1h8.8q9-1.3 17.6-4a99.3 99.3 0 0 1 40.3-5.5c14.7 1 29 6.1 43.9 6.3 5.3.1 10.5-1.3 15.7-2.1" class="b"/><path d="M7.9 173.8H20a59 59 0 0 1 27.2-1.8q4 .7 8 1.8h13.9c2.7-.5 5.3-1.8 8-2.7A100 100 0 0 1 121 164c15.4.6 30.3 4.9 45.6 6.4q4.9.5 9.6 0c2.7-.3 5.3-1 8-1.1" class="b"/><path d="M7.9 171.7H21q7.4-2 15-2.2a86 86 0 0 1 15.7.6q3.6.6 7 1.6H71q1.5-.6 2.6-1.4a81 81 0 0 1 44.8-8.7c12.4.6 24.6 2.6 36.8 4.7 5.8 1 11.7 2.2 17.6 2.6 3.8.3 7.6-.5 11.4-.8" class="b"/><path d="M7.9 169.5h16.6q8.7-1.2 17.5-1.6 6.7-.4 13.2.2c2.4.2 4.7 1 7 1.4H72c1.8-.9 3.4-2.3 5.2-3.2q4.6-2.5 9.7-4.2a73 73 0 0 1 29.8-2.6c13 1 25.9 2.3 38.6 4.7 6.5 1 12.8 3 19.3 3.6 3.2.4 6.5-.2 9.7-.3" class="b"/><path d="M7.9 167.4h32.4q5.7-1 11.4-1.4c4.1-.2 8.4 0 12.3 1.4h8.8c7.6-6.8 18-9.8 28-10.4 6.8-.4 13.5.5 20.2 1.3q12.8 1 25.4 2.6 10.3 1.3 20.2 4.2 4 1.2 7.9 2.2 4.9.1 9.6 0" class="b"/><path d="M7.9 165.2h38.5q2.7.2 5.3-.5 3-.7 6.1-.7 3.6 0 7 1c1.4.4 3 .1 4.5.2 5 0 3.3.4 7-2.6q3.6-2.7 7.9-4.4c8.2-3.4 17.4-4 26.3-2.8 4.3.5 8.7 1.4 13.1 1.8 9.7 1 19.4 1.4 29 3a76 76 0 0 1 14.9 4.1c.7.3 1.8 1 2.6.9h14" class="b"/><path d="M7.9 163h15.7c1.8 0 3.6-.9 5.3-1q4-1 7.9-.5 2.2.2 4.4.9 1.3.7 2.6.7h10.5q2.7-.7 5.3-.8c2.4-.2 4.7.4 7 .8h7c8-8.4 20.4-11 31.6-10 8 .7 15.7 3.3 23.7 3.6 9.3.8 18.9.9 28 3a49 49 0 0 1 6.2 2c1.1.4 2.3 1.2 3.5 1.4h17.5" class="b"/><path d="M7.9 161h10.5c3.7-1.3 7.5-2.9 11.4-3.5a29 29 0 0 1 11.4 0q2.8.7 5.2 2c1 .7 2.2 1.6 3.5 1.4q6.2.2 12.3-.3 5.7.4 11.4.3c1.8-1.3 3.3-3.1 5.3-4.3a37 37 0 0 1 19.3-5.5 74 74 0 0 1 20.2 3.2c5 1.4 10.5 1.7 15.7 2 9.8.5 20 .6 29 4.6h21" class="b"/><path d="M7.9 158.8h7l7.9-3c9-3.2 20-4.2 28 2 1.3 1.5 3.5.8 5.3 1H71c1.8 0 3.2.3 4.4-1.4 5.8-5.5 14-8 22-8q8 0 15.7 2.6c5.2 1.6 10.3 3.4 15.8 3.6 10 .8 20.3-.4 29.8 3 2.9.4 5.9 0 8.8.2H184" class="b"/><path d="M7.9 156.6q2.6.2 5.2-.2c4.5-1.3 8.7-3.4 13.2-4.7 9.3-3 20.7-2.4 28 4.7 2 .4 4.2.1 6.2.2h13.1c.7 0 1.4-.7 1.8-1.2a29 29 0 0 1 11.4-6.4c6.2-1.9 13-1.7 19.3-.1 5.7 1.3 11 4 16.7 5.8q4.3 1 8.7 1.1c4.7.2 9.4-.2 14 0 3 0 6 .6 8.8.8h29.8" class="b"/><path d="M7.9 154.5c5.3.4 10-2.4 14.9-4.1a36 36 0 0 1 22.8-2.2q6 1.6 10.5 6 1.2.4 2.6.3h11.5c1.3-.1 3 .2 4.3-.3a29 29 0 0 1 19.3-8.2 45 45 0 0 1 22 5.6q3 1.6 6 2.9h62.3" class="b"/><path d="M7.9 152.3q2.6.2 5.2-.1c4.5-1.4 8.7-3.8 13.2-5.2a30 30 0 0 1 31.5 5.3h14q1.5.1 2.7-.3a28 28 0 0 1 16.7-7.5c9.4-1 18.4 3 26.3 7.8H184" class="b"/><path d="M7.9 150.2h7c1.5-.3 3-1.3 4.4-1.9q3.8-1.8 7.8-3.4c8-2.9 17-3.1 24.6.7q2.3 1.1 4.4 2.7c1.7 1.4 2 2 4.4 1.9h12.3c1.4.2 2.5-1.1 3.5-1.9q1.6-1.2 3.5-2.2 5.3-3 11.4-3.4 8.7-.4 16.7 3.5c9.3 4.9 3.6 3.9 14.9 4h61.4" class="b"/><path d="M7.9 148h9.6l3.5-1.8c10-5.4 22.2-7.6 32.5-1.8l3.5 2.4c.6.6 1.6 1.4 2.6 1.2h15c9.7-9 24.2-8.9 35-1.9l2.6 1.8c1.7.3 3.6 0 5.3.1H184" class="b"/><path d="M7.9 145.9h11.3c1-.2 2-.9 2.7-1.3 9.2-5.3 21-7.4 30.7-2.5l3.5 2.1c.8.6 1.6 1.6 2.6 1.7h16.7c9-8 22.4-8.2 32.4-2l2.7 1.8c1.6.4 3.5.1 5.2.2h65.8c.8 0 2 0 2.6-.5" class="b"/><path d="M7.9 143.7h14q2.6-1.6 5.2-2.7c7.4-3.4 16.1-4.3 23.7-1.2q2.3 1 4.4 2.3c1 .7 2.1 1.9 3.5 1.6h17.6q1-.2 1.7-.9 1.3-1 2.6-1.7 4.2-2.3 8.8-2.9a27 27 0 0 1 18.4 4.5l1.8 1h71l3.5-1.5" class="b"/><path d="M7.9 141.6h16.6c1.2-.3 2.4-1.2 3.5-1.7a34 34 0 0 1 5.3-2 26 26 0 0 1 22.8 3.7h22.8c7.8-6.6 19.7-6 28-.8q1.7 1 3.6.8H177l7-2.5" class="b"/><path d="M7.9 139.4h21q1.4-.3 2.6-1 2.2-.9 4.4-1.5c5.9-1.3 12.4-.8 17.6 2.5h25.4c1.2 0 2.6 0 3.5-.8q2-1.3 4.4-2.1a24 24 0 0 1 20.2 2.7c2.2.4 4.7.1 7 .2h58.8q5.7-1.4 11.3-3.2" class="b"/><path d="M7.9 137.3c4 .1 8.1-.5 12.2-.2 4.4.4 8.8.1 13.2.2h5.3a19 19 0 0 1 8.7 0h7c3.6 0 7.1.2 10.6-.6q3-.4 6.1-.1l2.6.6h2.7c2.6 0 5.3.3 7.9 0q2-1.5 4.3-2.1c5.5-1.7 11.6-.9 16.7 1.6 1.5 1 3.6.5 5.3.6h55.2q9.3-1.4 18.4-3.9" class="b"/><path d="M7.9 134.5c7.4-1.4 15.2-2 22.8-.8q3.9.6 7.8 1.4h13.2c2.3.2 4.7-.3 7-.7q5.7-.9 11.4-1 3.2.3 6.2 1.5 1.7.3 3.5.2h7q5.4-2.7 11.4-2 2.7.3 5.3 1.1 1.6.8 3.5 1h46.5c10.2-1 20.6-2 30.7-4.5" class="b"/><path d="M7.9 131.4q10.4-2.4 21-2c7 .1 14 1.3 21 1.7q7 .4 14 0c4.5-.3 9-.6 13.2 1.1l1.8.8h9.6c1.5.2 3-.6 4.4-1a21 21 0 0 1 7-.2q2.7.4 5.3 1.2h40.3q6.1-1 12.3-1.6c8.8-.9 17.7-1.3 26.3-3" class="b"/><path d="M7.9 128.5q12.9-3.3 26.3-2.5c8.5.4 16.9 2 25.4 2.6 4.4.4 8.8-.4 13.2 0q3.1.4 6.1 1.6c1.3.8 3 .7 4.4.6h9.6c1.5 0 3-.6 4.4-.6q2.7-.2 5.3.2 1.7.5 3.5.4h32.4c1.8 0 3.7.2 5.3-.3q10.4-2.4 21-2.7 9.8-.3 19.4-1.7" class="b"/><path d="M7.9 125.9c10.1-3 21-3.8 31.5-2.7 8.5.7 16.9 3 25.5 3.3 3.4 0 7-.4 10.5.3q2.2.4 4.4 1.3 1.6.8 3.5.6 8.8.2 17.5-.3 6 .4 12.3.3h27.2c1.4-.1 3-.8 4.4-1.2q3.5-.8 7-1.4c10.7-1.8 21.7-.7 32.5-2" class="b"/><path d="M7.9 123.5c10.9-3.7 22.8-4.4 34.2-2.8 7.9 1 15.6 3.6 23.6 3.9 3.5-.1 7.1-.3 10.6.4l3.5 1q1.6.6 3.5.5h56.1c.5 0 1.4-.1 1.8-.3a54 54 0 0 1 11.4-3c10.4-1.7 21-.2 31.5-1" class="b"/><path d="M7.9 121.2a66 66 0 0 1 35-2.8c7.4 1.1 14.5 3.8 22 4.5 3.1.2 6.4-.2 9.6.2q2.2.3 4.4.8a9 9 0 0 0 3.5.5q11 .2 22-.2 6 .3 12.2.2h22.8c1.8-.2 3.5-1.4 5.3-1.8a51 51 0 0 1 7.9-2 78 78 0 0 1 17.5-.5q7 .6 14 .6" class="b"/><path d="M7.9 119.2c11-4.8 23.4-5.3 35-3 7.1 1.4 14 4 21 5.1 3.3.5 6.5 0 9.7.3l4.4.6h22.8c1.7 0 3.6-.5 5.3-.4q2.6.1 5.2.4h28.1c1.5 0 2.9-1.2 4.4-1.6q4.3-1.7 8.8-2.4c5.7-1 11.7-.8 17.5-.2q4.4.6 8.8 1l5.2.4" class="b"/><path d="M7.9 117.4a51 51 0 0 1 33.3-3.4c7.1 1.4 14 4.2 21 5.8 1.7.4 3.6.2 5.3.3h30.7q1.7 0 3.5-.2a27 27 0 0 1 12.3 0q1.7.3 3.5.2h22c.8.2 1.8-.5 2.5-.9a36 36 0 0 1 10.6-3.3q9.7-1.4 19.3.5l7 1.3q2.7.3 5.2.9" class="b"/><path d="M7.9 115.7c10.2-6 22.9-6.3 34.2-3q5.3 1.4 10.5 3.3c2.5.8 5.1 2.2 7.9 2h40.3a30 30 0 0 1 8.8-1.5 25 25 0 0 1 7.9 1.4h22.8q1.3-.5 2.6-1.2a43 43 0 0 1 27.2-2.4q4.5 1 8.8 2.4c1.6.4 3.4 1.3 5.2 1.2" class="b"/><path d="M7.9 114.3c9.1-6.2 21.1-6.9 31.5-3.7q4.5 1.3 8.8 3.2c2.2.8 4.5 2.3 7 2H100c2.3-.5 4.7-1.5 7-1.8q4.6-.6 8.8.3 2.3.6 4.4 1.5h21.1q3.7-2.4 7.9-3.4a42 42 0 0 1 26.3 2c1 .4 2.3 1.3 3.5 1.4h5.2" class="b"/><path d="M7.9 113.1c11.6-9 27.6-7.3 39.4.5h50.9q1.4.1 2.6-.2 2.2-.9 4.4-1.5 5.7-1.4 11.4-.2c1.8.3 3.6 1.4 5.3 2h19.3c3-1.5 6.2-3.1 9.6-3.7a39 39 0 0 1 24.6 3.5c2.8.3 5.9 0 8.7.2" class="b"/><path d="m7.9 111.5.8-.1a27 27 0 0 1 31.6-1.6c.8.5 1.6 1.5 2.6 1.7h56.2c.8.1 1.8-.5 2.6-.8l3.5-1.2c4.3-1.1 9-1.4 13.2 0 1.5.4 3 1.4 4.3 2h5.3c4.7-.1 9.4.2 14-.1q3.7-2.2 8-3.2c6-1.3 12.4-.8 18.3 1q2.7 1 5.3 2.3h9.7l.8-.5" class="b"/><path d="M7.9 109.3h1.7q1.5-.7 2.6-1.6 2.5-1.6 5.3-2.5c7-2.4 15.7-1.4 21 4.1h3.6c4.2-3.3 10.3-2.6 14.9-.4 1 .7 2.3.4 3.5.4h39.4l4.4-1.8a25 25 0 0 1 11.4-1 18 18 0 0 1 7 2.7c.5.1 1.4.2 1.8.1h15.8c.8 0 2 .1 2.6-.4a31 31 0 0 1 26.3-.6q1.3.8 2.7 1h9.6c1 0 1.8-.8 2.6-1.2" class="b"/><path d="M7.9 107.2h3.5c4-3 9-4.9 14-4.5 3.6.3 7.4 1.6 9.6 4.5h2.7c4-4 9.5-4.9 14.9-3.5 2.8.5 5.3 2.2 7.9 3.5H99c1.2.2 2.4-.8 3.5-1.2q2.5-1 5.2-1.5 5.8-1.2 11.4.7 1.5.5 2.7 1.3c.3.3 1.2.7 1.7.7H142c2.6-1 5.2-2.3 8-2.7a32 32 0 0 1 19.2 2.7h12.3q1.3-.6 2.6-1.4" class="b"/><path d="M7.9 105c7.3.2 3.6.1 9.6-2.4 3.6-1.3 7.8-1.5 11.4 0 1.3.6 2.4 1.8 3.5 2.4q1.4.1 2.6-.1c4.4-5.7 13-6.2 19.3-4q4 1.4 7 4c1.7.3 3.6 0 5.3.1h32.5c1.5.2 3-.9 4.4-1.3a22 22 0 0 1 16.6 0c.8.3 1.8 1 2.7 1.3H142a26 26 0 0 1 11.5-2.6 35 35 0 0 1 13.1 2.6H178q2.2.2 4.4-.1l1.8-1" class="b"/><path d="M7.9 102.9h6c1.3 0 2.4-1 3.6-1.4q3.9-1.4 7.9-.6 2 .5 3.5 1.8 1.7.3 3.5.2c4.6-6 13.2-7.3 20.2-5.5q3.7 1 7 3.2c1.2.7 2.2 2 3.5 2.3h37.7c4.2-1.7 8.7-2.8 13.2-2.4 2 .2 4.3.8 6.1 1.7 1.2 1 3 .7 4.4.7h16.7c2.2-.8 4.6-1.8 7-2q5.3-.7 10.5.6c2 .3 4 1.5 6.2 1.4h16.6c.8 0 2 .1 2.7-.4" class="b"/><path d="M7.9 100.8h9.6q2.2-1 4.4-.8 1.8.1 3.5.8h4.4c8.5-9.2 23-9 32.4-1 1.1 1.3 2.9 1 4.4 1h36a28 28 0 0 1 8.8-1.6q4.1 0 7.9 1.6h21a22 22 0 0 1 4.4-1.6q6.2-1.3 12.3.6c1 .3 2.3 1 3.5 1h23.7" class="b"/><path d="M7.9 98.6c6.4-.1 12.9.2 19.3-.1a26.4 26.4 0 0 1 36.8.1h40.3c2.7.1 5.3-.6 8-.3 2.8.5 5.8.3 8.7.3h18.4q3.3-1.4 7-1.5 3.1-.2 6.2.7c1 .2 2.3 1 3.5.8h28" class="b"/><path d="M7.9 96.5h14.9c1-.1 1.8-1.1 2.6-1.6q1.7-1.2 3.5-2.3a29 29 0 0 1 35 3.7c5.6.4 11.2 0 16.7.2h58.8q2.6-.6 5.3-.8 2.6.2 5.2.8h10.5c2-.3 4.2 0 6.2 0H184" class="b"/><path d="M7.9 94.3h10.5q1 .1 1.7-.5 1.3-.7 2.7-1.6 3.8-2.2 7.8-4c11.3-4.7 24.7-3 33.4 6h86c1.8.3 3.4-1.1 5.2-1.5q5.2-1.5 10.5-.2c1.8.3 3.6 1.5 5.3 1.8H184" class="b"/><path d="M7.9 92.2q3.9 0 7.8-.2c4.4-2 8.7-4.5 13.2-6.2 11.4-4.7 25.8-3.5 34.2 6.1 1 .4 2.4.2 3.5.3h66.7q6 0 12.3-.2 5.7-3.1 12.2-3.7a25 25 0 0 1 11.4 1.7c1.5.5 3 1.7 4.4 2.2h10.6" class="b"/><path d="M7.9 90h4.3c1.8-.5 3.6-1.6 5.3-2.3q5.5-2.8 11.4-4.9c11.2-4 25.6-2.7 33.3 7 2.6.4 5.3.1 8 .2h68.3q2.3-.7 4.4-1.6c10.5-4.3 22.9-5.6 32.5 1.6h8.7" class="b"/><path d="M7.9 87.9h2.6q2.6-1.5 5.2-2.6 6-2.8 12.3-5C39.4 76.6 53.6 78 61.3 88H65c1.4-.4 2.8-1.1 4.3-1q2.3 0 4.4.4 2.2.6 4.4.6 18.4 0 36.9-.2a33 33 0 0 1 7.9-1.2q3 .1 6.1.4 5.8.1 11.4-1.6c12.4-4 25.8-6 36.8 2.6h7" class="b"/><path d="M7.9 85.7h1.7a141.4 141.4 0 0 1 5.3-2.7 81 81 0 0 1 14.9-5.7c10-2.5 23.8-1.1 29.8 8.4h2.6c1.1-.6 2.3-1.6 3.5-2 2.9-.7 6-.2 8.8.5l2.6.8c.8.3 1.8.9 2.7.7H106q2.6.2 5.2-.1 4.7-1.8 9.7-2.3c3.8-.3 7.6.4 11.4-.1 5.3-.6 10.5-2.3 15.8-3.2a42 42 0 0 1 23.7 1.7q3.7 1.5 7 4h5.2" class="b"/><path d="M7.9 83.6h.8c3.5-2.4 7.6-4 11.4-5.6 7.2-2.9 15-4.7 22.8-3.5 5.8 1 12 3.5 15 8.7q1.2.7 2.6.1c4.8-6 14.4-2.3 20.1.3h23.7c2-.2 4.3.4 6.2-.6q5.5-2.3 11.4-2.8c2.9-.2 5.8.1 8.7-.2 6-.4 11.7-2 17.6-2.8a49 49 0 0 1 30.7 5q1.2.8 2.6 1.4h2.6" class="b"/><path d="M7.9 81.4h.8q2.8-2.2 6.2-3.6 4.6-2.2 9.6-3.7c8.8-2.7 19.2-3.1 27.2 2q2 1.5 3.5 3.3c.3.6 1.1 1.8 1.8 2h.9c1.1-.9 2.1-2.4 3.5-3 4.3-2.3 9.6-1.3 14 .2l3.5 1.5q1.3.8 2.6 1.3h27.2l1.8-1a33 33 0 0 1 12.2-3.2h6.2q7-.7 14-1.9a63 63 0 0 1 28 1.1c4.5 1.4 8.8 3.3 13.2 4.8" class="b"/><path d="M7.9 79.3h.8c1.8-1.7 4-2.6 6.2-3.6q4.6-2.2 9.6-3.7c8.6-2.4 18.8-2.7 26.3 2.6q1.6 1.2 2.7 2.6c.2.6 1.1 1.8 1.7 2h.9c5.5-7.7 16.7-5.2 23.7-1 .4.3 1.3.9 1.7 1h27.2q6.5-4 14-4.6 7-.1 14-1a89 89 0 0 1 30.8 0c5.6 1.1 11 3.3 16.6 4.5" class="b"/><path d="M7.9 77.1h.8c10.6-6.7 25.7-11.6 37.7-6q2.5 1 4.4 3c1 .8 1.6 2.4 2.7 3h.8c4.2-6.3 12.9-6.3 19.3-4q2.8.9 5.3 2.4c1 .6 2.2 1.8 3.5 1.6q7 .1 14-.2 5.8.3 11.4.2c1.4.2 2.5-.7 3.6-1.4q2.5-1.5 5.2-2.3c3.7-1.2 7.6-1.4 11.4-1.6l9.7-.8c8.4-.7 17-1 25.4.2 7.1.8 14 3.3 21 4.1" class="b"/><path d="M7.9 75h1.7c9.2-6.3 23.4-10.4 34.2-6.3q3 1.2 5.3 3.3c.9.8 1.6 2.3 2.6 3h.9c6.3-8.9 20.7-6.3 28 0h8.8a22 22 0 0 1 8-1.4q2.6.1 5.2 1c1 .6 2.4.3 3.5.4 1.7-.1 3.9.5 5.2-1a31 31 0 0 1 16.7-4.4l11.4-.8q12-.5 23.7 1c7 1 14 3 21 3.2" class="b"/><path d="M7.9 72.8h2.6c9.7-6 22.4-9.9 33.3-5.1q1.9.9 3.5 2.3c.9.7 1.7 2.2 2.7 2.8h.8c1-.5 1.8-1.9 2.7-2.5q2.4-1.8 5.2-2.5a24 24 0 0 1 21 5h8q4-2.3 8.7-2.3c3 0 6.2.5 8.8 2q1.2.5 2.6.3 1.8.1 3.5-.1c6.8-6 17.8-5.2 26.4-5.7q12.3-.1 24.5 1.7c7.3 1.1 14.5 2.8 22 2.4" class="b"/><path d="M7.9 70.7c1.6-.2 3.8.4 5.2-.7a46 46 0 0 1 8.8-4c7-2.2 15.2-2.9 22 .8 1.7.9 2.8 2.6 4.3 3.9H50c2.6-4 7.7-5.4 12.2-5.6 6-.2 12 1.8 16.7 5.6 2.3-.2 4.7.2 7-.2q2-1.5 4.4-2.1a21 21 0 0 1 17.5 2.3h4.4c1.7-1 3.4-2.4 5.3-3 4.4-1.8 9.3-2 14-2.2 9.1-.4 18.2.6 27.2 2q8.2 1.7 16.7 2.4 4.4.2 8.7-.3" class="b"/><path d="M7.9 68.5h6q4.2-2.4 8.9-4c7.8-2.4 17.7-2.5 23.6 4 2.8.2 2.5-.5 4.4-2q2.1-1.5 4.4-2.1c7.3-2.1 16-.9 22 4.1h6c1.3-.2 2.4-1.4 3.6-1.8q2.9-1.3 6.1-1.8c4.4-.6 9.1-.2 13.2 1.6q1.8 1 3.5 2h4.4c11.8-8.6 34.8-3 48.2-.3 2.9.6 6 .2 8.8.3h13.2" class="b"/><path d="M7.9 66.4c2.8-.1 5.9.2 8.7-.2q3-1.6 6.2-2.7c7.1-2.4 16-2.6 21.9 2.9 3.3 0 2.7.3 5.2-1.7q2.9-1.8 6.2-2.4c4.6-1 9.6-.4 14 1.2q2.8 1.2 5.3 2.9H78c1.4-.1 3 .2 4.4-.3l1.7-1.2q3.3-1.8 7-2.4c5-1 10.3-.6 15 1.2q2.3 1 4.4 2.5c1 .3 2.4.1 3.5.2q1.4 0 2.6-.3a18 18 0 0 1 6.1-2.5c9.4-2 19 0 28.1 2.5 1.4.5 3 .2 4.4.3h28.9" class="b"/><path d="M7.9 64.2h11.4c7.2-3.6 16.7-5 23.6 0h3.5q1 .1 1.8-.4c2.5-2 5.7-2.8 8.8-3.1q5.8-.5 11.4 1.4c1.5.5 3 1.5 4.3 2.1h4.4c1.2 0 2.5.2 3.6-.3q2.4-1.8 5.2-2.8a31 31 0 0 1 19.3-.3q3.7 1.3 7 3.4h7L122 63a28 28 0 0 1 12.3-.9q4.5.7 8.7 2h41.3" class="b"/><path d="M7.9 62h14.9c5.4-2.2 12-3 17.5-.2 1 .4 2.4.2 3.5.3l4.4-.1q3.2-1.9 7-2.4 5-.5 9.7.9c1.4.4 2.9 1.2 4.4 1.6h7.9c.9.2 1.9-.5 2.6-1q2-1.3 4.4-2.2a34 34 0 0 1 25.4 1.2q1.8 1 3.5 2h10.5c1.8-.2 3.6-.7 5.3-.6q2.6 0 5.3.6h50" class="b"/><path d="M7.9 60h19.3q3-.9 6-.8 2.7.2 5.3.7h8.8q1.9.2 3.5-.4c4.3-1.4 9-1 13.2.4h12.3a36 36 0 0 1 35-1.3c.8.4 1.8 1.2 2.7 1.3h70.2" class="b"/><path d="M7.9 57.8h66.6A42 42 0 0 1 85 53.5a38 38 0 0 1 25.5 2.5c1 .5 2.3 1.4 3.5 1.7h70.2" class="b"/><path d="M7.9 55.6h64.9c4-1.6 8-3.4 12.2-4.3a39 39 0 0 1 17.6 0q5.5 1.3 10.5 4.3h50q2.2-.3 4.4-.4 3 0 6.1.4h10.5" class="b"/><path d="M7.9 53.5H71a7 7 0 0 0 3.5-.9L79 51a47 47 0 0 1 13.2-2.7 35 35 0 0 1 18.4 4.2c.7.5 1.7 1.1 2.6 1h41.3c.8 0 1.8-.6 2.6-.9l3.5-1q7-1.5 14 0 3 .7 6.1 1.9h3.5" class="b"/><path d="M7.9 51.3h64.9l4.4-1.6a42 42 0 0 1 22.8-2.8 30 30 0 0 1 9.6 3.8q.8.6 1.8.6h27.1q5.3.1 10.6 0a41.7 41.7 0 0 1 35-.2" class="b"/><path d="M7.9 48.6c2.1 1 4.6.5 7 .6h58.7l3.6-1.4c8-3.2 17-4.9 25.4-2q2.3.8 4.4 2c.8.5 1.6 1.5 2.6 1.4h27.2c2.4.2 4.8-.4 7-1q4.8-1.6 9.7-2.7c10.1-2.4 21-1.8 30.7 2" class="b"/><path d="M7.9 45.8c1 .3 2.3 1 3.5 1.2h64q1.3-.5 2.6-1.1c9-4.2 21-5.8 29 1 1.6.3 3.5 0 5.2.1h1.8q.8-.7 1.7-1.2 2.1-1 4.4-1.5c2.3-.4 4.7 0 7 .1q4.8.3 9.7 0c6.4-.6 12.8-2 19.3-2.8q14.3-1.8 28 2.7" class="b"/><path d="M7.9 43.3q2.2.8 4.3 1.6h60.6q2.6.2 5.2-.2a26 26 0 0 1 7-3.3 24 24 0 0 1 16.7.7c5.3 3 1.8 2.9 8.8 2.8 4.1-4.7 10.6-6 16.6-5.1q6.1.3 12.3-.1c7.6-.4 15.2-1.3 22.8-1.3q11.2 0 22 3.1" class="b"/><path d="M7.9 41q2.2.6 4.3 1.7H64c1.4 0 3 .2 4.4-.2q2.7-.6 5.2.2h6.2c6.5-5.5 18.3-6.3 24.5 0h3.6c1.3-.6 2.2-2.3 3.5-3.2q4.7-3.5 10.5-4c2.3-.2 4.7.1 7 .1l10.5.2q12.3-.1 24.6.3 10.2.6 20.2 3" class="b"/><path d="M7.9 39q2.2.6 4.3 1.6h34.2c4.4 0 8.9.3 13.2-.6q4-.5 7.9-1.4c3.5-1 7.8-.6 10.5 2h3.5c3.8-3.8 9.8-4.8 15-3.8q2.2.5 4.3 1.7c.9.6 1.8 1.6 2.6 2.1q1.8.1 3.6-.2c3.3-5.3 9.6-8.3 15.7-8.7q8.9.1 17.6.7a339 339 0 0 1 43.8 4.5" class="b"/><path d="M7.9 37.3c1.4.3 2.9 1.2 4.3 1.2h32.5c1.7-.1 3.6.1 5.2-.2q4.5-1 8.8-1.7 4.8-.7 9.7-1.8c4.4-1 9.2.3 12.2 3.7.8 0 2 0 2.7-.2 3-3.3 8-4.2 12.3-3.6q2.3.5 4.4 1.7l2.6 2h2.6c.7-.1 1.5-1.2 1.8-1.8s1.2-1.6 1.7-2q2.8-2.7 6.1-4.2c4.1-2 8.7-2.4 13.2-2q5.7.2 11.4.7c15 1.5 29.8 4 44.7 6" class="b"/><path d="M7.9 36q2.2.5 4.3.3h33.4l7.9-2q5.6-1 11.4-2c2-.3 4-1 6.1-1 4.3-.2 8.8 1.5 11.4 5h1.8l1.7-1.3q1.2-1 2.6-1.5c4.5-1.6 10-.9 13.2 2.8 1 0 2.4.2 3.5-.2 3.1-5.8 9.4-9.5 15.8-10.6 2.6-.5 5.3-.3 7.9-.2q6 .3 12.3 1.2c14.3 2.2 28.4 6.3 43 7" class="b"/><path d="M7.9 34.2h30.7c1.6-.1 3.5.1 5.2-.2a83 83 0 0 1 8.8-2.3c4.6-1 9.4-1.6 14-2.6 4.7-1.3 10-1 14 1.8 1.4.8 2.3 2.4 3.6 3.3h1.7c3-3.4 8.3-4 12.3-2.2 3.4 1.8 1.6 2.4 6.1 2.2 1.3-1.3 2.2-3.3 3.5-4.5a25 25 0 0 1 12.3-6.8c4.9-1 10-.3 15 .1 8.3 1 16.4 3.2 24.5 5.5q7 2.1 14 3.3 5.3.6 10.5.5" class="b"/><path d="M7.9 32h28.9c1.7 0 3.6.2 5.3-.2a78 78 0 0 1 8.7-2.4c4.3-1 8.8-1.5 13.2-2.4 2.6-.4 5.2-1.3 7.9-1.3 5-.1 10.4 1.9 13.1 6.3l2.7-.1c3.4-3.6 9.5-3 13.1.1h3.5c4.2-7 12-12 20.2-12.2 9.6 0 19 2 28 5.1 6.6 2.1 12.8 5.2 19.4 7q3 .1 6.1.1 3 .1 6.1-.4" class="b"/><path d="M7.9 29.9h32.4l3.5-1.2a84 84 0 0 1 9.7-2.3q6.6-1 13.1-2.3a19 19 0 0 1 15.8 1.8q1.5 1 2.6 2.2c.3.6 1.3 1.5 1.8 1.7h2.6q2-1.6 4.4-1.9 3.5-.2 6.2 1.8c1.3.3 3 .1 4.3.1 4.1-6 9.5-10.2 16.7-11.8a43 43 0 0 1 14 .4c10.1 1.8 20.6 5.4 29 11.4H184" class="b"/><path d="M7.9 27.7h31.5l2.7-.9c6.5-2.1 13.4-2.9 20.1-4 3.3-.4 6.4-1.7 9.7-1.9 5.9-.3 12.2 1.9 15.8 6.8h3.5a10 10 0 0 1 4.4-1.1c1.5 0 3 .7 4.4 1.1h3.5q1 .1 1.7-.4c3.4-5.7 9.4-9.7 15.8-11.2 5-1 10-.3 15 .6 8 1.7 17.7 5 23.6 10.8 1.7.4 3.6.1 5.3.2q2.8-1.4 6.1-1.4a30 30 0 0 1 10.5 1.4h2.6" class="b"/><path d="M7.9 25.6h30.7q2.6-.8 5.2-1.6a82 82 0 0 1 8.8-1.7L63 20.7q3.5-.8 7-1.6c6.6-1.1 14.1.7 18.5 6 .6.5 1.8.5 2.6.4h14c1.5-1.4 2.7-3.5 4.4-4.9a24 24 0 0 1 16.7-6.7q10 .2 19.3 4.3 6.4 2.6 11.4 7.3h3.5c1.7-.6 3.4-1.7 5.2-2 6.1-1.2 12.6-.6 18.5 1.6" class="b"/><path d="M7.9 22.6q1.5 1 3.5.8h27.2q4.3-1.5 8.7-2.2c5.5-1 11.2-1.3 16.7-2.4 3.2-.7 6.3-2 9.6-2 6.1-.3 12.7 1.8 16.7 6.6H106c1.6-1.2 2.7-3.3 4.4-4.6a24 24 0 0 1 14.9-6.3 45 45 0 0 1 25.4 8c1.2.7 2.3 2.1 3.5 2.9h3.5c1-.1 1.9-1 2.7-1.3q1.6-.8 3.5-1.1c6.6-1.4 13.7-1 20.1 1.2" class="b"/><path d="m7.9 20 1.7 1.2q14 .2 28 0 1.5 0 2.7-.5a60 60 0 0 1 14-2.3q4.9-.3 9.7-1.2c2.6-.5 5.2-1.6 7.9-2 7.1-1.2 15 .8 20.1 6h15.8c5-6.7 13.6-10.8 22-9.6q8.9 1 16.6 5.7c2 1 3.5 2.8 5.3 4h4.4c.8-.1 1.8-.9 2.6-1.2q2.1-.9 4.4-1.3c7-1.3 14.3-1.1 21 1" class="b"/><path d="M7.9 17.8 9.5 19q9.7.1 19.3.1h9.7l5.2-1.2c6.7-1.1 13.5-.8 20.2-2.1 3.2-.7 6.3-2.2 9.6-2.5 7.2-1 14.9.9 20.2 5.8h15.8a23 23 0 0 1 16.7-8.4c7.5 0 15.1 2.6 21 7.3 1.1 1.4 2.8 1.1 4.4 1.1s3.7.3 5.3-.7c7.4-3 19.5-3 27.1-.7" class="b"/><path d="M7.9 15.8c.4.3 1.2 1 1.7 1.2h28.9q3.1-.6 6.2-1c5.8-.7 11.7-.3 17.5-1.1 4.5-.7 8.6-3 13.2-3.5 6.3-.8 13 .4 18.4 4 .8.5 1.7 1.5 2.6 1.6h5.3q5.3 0 10.5-.1a21 21 0 0 1 13.2-6.5 31 31 0 0 1 20.2 6.6h9.6c1.4-.2 3-1 4.4-1.2q4.7-.9 9.6-1.2c5-.2 10.2 0 15 1.5" class="b"/></svg>