<svg xmlns="http://www.w3.org/2000/svg" id="a" width="1920" height="2400" viewBox="0 0 192 240"><defs><style>.b{fill:none;stroke:#fff;stroke-miterlimit:10;stroke-width:.3px}</style></defs><path d="M0 0h192v240H0z" style="stroke-width:0"/><path d="m9 229.9 2.6 1.3c1.6.4 3.5.1 5.2.2H28c6.6-5.5 16.5-7 22.6 0H53q4-3.6 9.6-3.5c3.4 0 7 1 9.5 3.4q2.6.2 5.2 0c4.6-4 11.9-3.6 16.5 0h3.4c.6-.2 1.4-1.1 1.7-1.6l2.6-2.5a38 38 0 0 1 16.5-6.8q4.8-.8 9.5-.7l9.6-.2c8.1 0 16.3.7 24.2 2.9 4.7 1.2 9.3 2.9 13.9 4.3 2.5.9 5.3 1.3 7.8 2.3" class="b"/><path d="m9 228.3 1.7.9q1.7.2 3.5 0h12.1c.8 0 1.9.2 2.6-.3q2-1.6 4.3-2.6c4.4-1.8 9.7-2 13.9.4 3.2 2.1 1.5 2.8 6 2.6 4.8-5 15-4.6 20 0h5.2c4.2-3 10.5-3.5 14.7-.1h4.3c3.3-4.3 8-7.3 13-9.2q8.4-3.2 17.3-3 9.7-.6 19 .1c9 .7 17.7 3.3 26 6.4 3.4 1.3 7.1 2 10.4 3.4" class="b"/><path d="M9 227c2.2.4 4.6 0 6.9.2h11.3c1.3.2 2.4-.8 3.4-1.4q1.6-1 3.5-1.7c5.1-1.8 11.8-1.4 15.6 3H53q5-3.7 11.3-3.3 5.3.2 9.5 3.4l6-.1q2.8-1.8 6.1-1.8 2.3 0 4.4.8c.8.3 1.7 1 2.6 1h4.3c5.6-7.7 15.9-11.4 25.1-12.5q7-.3 13.9-.2c3.4 0 7-.2 10.4.2a91 91 0 0 1 26 6.6c3.3 1.5 7 2.3 10.3 3.9" class="b"/><path d="M9 225h19c1.3-.2 2.4-1.3 3.5-1.8q3.2-1.6 7-2c3.5-.4 7.4.4 10.3 2.7.3.4 1.2 1 1.7 1.1H54c4.7-4.2 15-4 20-.2 2.1.5 4.6.1 6.8.2 1.2 0 2.4-.7 3.5-.9q2.7-.5 5.2.2l1.7.6q3 .1 6 .1c5.6-7.2 14.7-11 23.5-12.4q4.3-.4 8.6-.4h12.2a72 72 0 0 1 30.3 6.6l6 2.5q2.7.8 5.2 2.2" class="b"/><path d="M9 223h18.2c1.2.1 2.4-.9 3.4-1.4q1.7-1 3.5-1.6c5.4-1.8 12.2-1.3 16.4 2.9H55l2.6-1.3c3.5-1.5 7.5-1.4 11.2-1q2.8.5 5.2 2c1 .5 2.4.3 3.5.3q4.8 0 9.5-.3 5.2.5 10.4.3a39 39 0 0 1 23.4-12.3c6-.8 12.1-.4 18.2-.5h8.6q5.7.6 11.3 2 8 2.4 15.6 6c2.8 1.3 6 2.3 8.6 4" class="b"/><path d="M9 220.8h18.2c1.2.2 2.3-1 3.4-1.5q2.2-1 4.4-1.7c5.5-1.5 12.1-.9 16.4 3.2q3 .2 6-.2 4.2-1.8 8.7-1.6 2.7 0 5.2.6c1.2.3 2.3 1.1 3.5 1.2h22.5c1.3-.4 2.3-2.2 3.5-3a42 42 0 0 1 19-8.8q3.8-.7 7.8-.7 5.6-.4 11.3-.3 4.3-.1 8.6.1 9.4 1 18.2 4.4c4.4 1.7 8.8 4 13 6l2.6 1.5.9.6.8.2" class="b"/><path d="M9 218.7q9.5 0 19-.1 3.6-2.4 7.8-3.4 5.2-1.2 10.4 0 2.3.7 4.3 1.9c.8.4 1.7 1.3 2.6 1.6h7q3-.8 6-1 2.2 0 4.4.2c1 .2 2.3.8 3.4.8h24.3c1.7-1.3 3.3-3.1 5.2-4.3q6.8-4.6 14.7-6.5c3.6-1 7.5-1 11.2-1.3 8.1-.7 16.3-1 24.3.6a67 67 0 0 1 24.2 9.8l2.6 1.6h2.6" class="b"/><path d="M9 216.6h18.2c2.7-1.5 5.5-3 8.6-3.7q5.7-1.3 11.3 0 3.7 1 7 3.4c1.5.5 3.4.1 5.1.3h39.9c2-1.4 3.9-3.3 6-4.5q7.3-4.4 15.6-6c4.3-.7 8.7-.8 13-1.3 17-1.6 31 1.8 45 11.7h4.4" class="b"/><path d="M9 214.4q9 .1 18.2 0 4-2.7 8.6-3.8 6.1-1.5 12.1 0 4.3 1 7.8 3.6c1.6.5 3.6.1 5.2.2h39.8a46 46 0 0 1 19.1-9.2c3.1-.6 6.4-.7 9.5-1.1 6.3-.7 12.7-1.3 19-.8a53 53 0 0 1 27.8 10.7q1.2.6 2.6.4h4.3" class="b"/><path d="M9 212.3h15.6q1.3.2 2.6-.4 4-2.5 8.6-3.7a28 28 0 0 1 21.7 3.8q1.2.5 2.6.3h42.4l5.2-3.2q6.1-3.2 13-4.8 4.3-.6 8.7-1c6.5-1 13.2-1.8 19.9-1.2a48 48 0 0 1 22.5 7.8c1.1.7 2.3 1.8 3.5 2.4h7.7" class="b"/><path d="M9 210.2h17.3a30 30 0 0 1 32.9-.2c2 .4 4 0 6 .2h39.9c.9-.2 1.8-.9 2.6-1.3q6.1-3.4 13-5 5.6-.8 11.2-1.7c15-2.8 29.3-2 41.6 8h9.5" class="b"/><path d="M9 208h11.2c2 0 4.2.3 6-.1a31 31 0 0 1 31.3-1.7c1.4.6 2.7 2 4.3 1.9h46.8c.4 0 1.3-.1 1.7-.4q5.4-2.7 11.3-4.1 4.7-.8 9.5-1.7a76 76 0 0 1 17.3-2.1c8.4.1 17 2.7 23.4 8.2H183" class="b"/><path d="M9 206h11.2c2-.2 4.2.2 6-.3a30 30 0 0 1 24.3-4.4q5.6 1.3 10.4 4.4c1.7.5 3.5.2 5.2.3h45.1q2.2 0 4.3-.2l1.7-.6c4.2-1.7 8.7-2 13-3.2 10.9-3 22.2-5 33-.4q3.7 1.5 6.9 4l.8.4h12.2" class="b"/><path d="M9 203.8q8.6.2 17.3 0 4-3 8.6-4.3c8.4-2.5 17.8-1 25.2 3.5 1.4 1.2 3.4.7 5.2.8h56.2q3.6.1 7-1.1 4.3-1.5 8.6-2.8c7.6-2.3 15.8-3 23.4-.6q4.6 1.5 8.7 4.3c1.6.4 3.5.1 5.2.2h8.6" class="b"/><path d="M9 201.7h17.3c1.2-.4 2.3-1.4 3.4-2a30 30 0 0 1 31.2 2h71q3.4-1.5 7-2.7 6.7-2.5 13.8-2.3a31 31 0 0 1 15.6 4.7q1.3.4 2.6.3H183" class="b"/><path d="M9 199.6h18.2a29 29 0 0 1 31.1-1.3c.8.4 1.7 1.3 2.6 1.3h75.3c1.6-.2 3-1.3 4.4-1.7q3-1.2 6-1.9 6.1-1.2 12.2 0c3.4.5 6.5 2 9.5 3.6H183" class="b"/><path d="M9 197.5h16.4c1.4.2 2.4-.7 3.5-1.3q2-1.3 4.3-2.1a28 28 0 0 1 20-.3c2.4.8 4.6 2.4 6.9 3.7h80.5c.8-.2 1.8-.8 2.6-1q3-1.3 6-1.9 5.3-1 10.5.1c2.7.5 5.2 1.7 7.7 2.8H183" class="b"/><path d="M9 195.3h17.3c9.5-6.7 23.5-7.6 32.9-.1 1.7.3 3.5 0 5.2.1h76.2c1.7-.1 3.7.4 5.2-.4q4.1-1.8 8.7-2c4.1-.2 8.2 1 12 2.4H183" class="b"/><path d="M9 193.2h16.4c9.9-6.8 24.2-7.9 33.8 0h89.2q1.7-.7 3.5-1a23 23 0 0 1 8.6-.2c1.8.1 3.5 1 5.2 1.2H183" class="b"/><path d="M9 191h15.6c9.2-6.2 22.4-8 32-1.6 2.4 2 2.2 1.7 5.2 1.7h27.7q10.5.1 20.8-.2c6.9.3 13.9.1 20.8.2h20.7q2.2-.3 4.4-.7 2.6-.1 5.2.2 1.6.5 3.4.5H183" class="b"/><path d="M9 189h9.5l5.2-.1 1.7-1c10-5.8 24-7 33 1h5.1c1.4-.2 3-.8 4.4-.8 2 0 4 1 6 .9H99q2.3 0 4.4-.8a33 33 0 0 1 13-.3c2 .2 4 1.2 6 1H183" class="b"/><path d="M9 186.9h13c.8-.1 1.8-.8 2.6-1.2L28 184c9.2-4 21.8-4.6 29.5 2.7q1.6.2 3.4.1 1.5.2 2.6-.5c3-1.4 6.6-.9 9.6.5h24.2c1.5.2 3-.9 4.3-1.2q3-1 6-1.3a33 33 0 0 1 14.8 2q1.2.6 2.6.6h58" class="b"/><path d="M9 184.7h7.8c1.6 0 3.5.3 5.2-.2a35 35 0 0 1 28.5-3.8q2.3.8 4.4 2.2c1.8 1.5 1.7 2 4.3 1.8h1.7l1.8-.9a11 11 0 0 1 8.6 0q1.3.7 2.6 1h19.9c1.1-.1 2.5.1 3.5-.4a28 28 0 0 1 14.7-3.2q6.4.2 12.1 3 1.2.7 2.6.5h8.7q1.7-.3 3.5-.4c2.3 0 4.6.6 6.9.4H183" class="b"/><path d="M9 182.6h7.8c1.4 0 3 .2 4.3-.2a51 51 0 0 1 7-3.1c7.4-2.6 16-3.1 23.3.1q1.9.8 3.5 2.1.6.9 1.7 1.1H60q.8-.7 1.7-1a12 12 0 0 1 11.2 1h22.5c1.4-.7 3-1.7 4.4-2.2a29 29 0 0 1 22.5.4c1.1.5 2.3 1.4 3.4 1.8h7c1.1.1 2.4-.4 3.4-.7q2.7-.5 5.2-.2c1.8 0 3.5.6 5.2 1H183" class="b"/><path d="M9 180.5h6.9q2.2.1 4.3-.2 4.2-2.1 8.7-3.4c8.2-2.4 19.3-2.6 26 3.6h3.4l1.8-1c2.6-1.2 5.8-1.4 8.6-.8q1.9.5 3.5 1.6c1.9.4 4 0 6 .2h13.9c1.1 0 2.5.3 3.5-.5q2.4-1.6 5.2-2.7a28 28 0 0 1 23.3 2.2c.7.5 1.7 1.2 2.6 1h6.1q2.2-.8 4.3-1.3 4-.5 7.8.3c1.7.3 3.4 1.2 5.2 1h33" class="b"/><path d="M9 178.4h10.4q4.1-2 8.6-3.3c7.9-2.1 18.6-2.5 25.1 3.2h3.5c.9 0 1.8-.8 2.6-1.1q3.8-1.4 7.8-.8 1.8.2 3.4 1.1 1.2.9 2.6.9h19q1.5.1 2.7-.4 2-1.6 4.3-2.6c4.6-2 9.8-2.6 14.7-1.8q6.2.9 11.3 4.5c2.2.5 4.7.1 7 .2 2.1-.8 4.5-1.7 6.9-1.7q3.8-.1 7.7.8c1.4.3 3 1 4.4 1h32" class="b"/><path d="M9 176.2q5.2.1 10.4 0a46 46 0 0 1 14.7-4 30 30 0 0 1 13 1.7l2.6 1.3c.7.5 1.6 1.2 2.6 1h2.6c1-.4 2.3-1.2 3.4-1.5 4-1.1 8.6-1 12.2 1.2 1 .6 2.3.3 3.4.4h5.2l14.7-.1c7.2-6.5 18.5-6.5 26.9-2.5q1.8.9 3.4 2.1 1.2.7 2.6.5h4.4q1 0 1.7-.6l2.6-.8q5.2-1 10.4 0c2.3.4 4.5 1.6 7 1.4H183" class="b"/><path d="M9 174.1h9.5c1.5.1 3-.9 4.3-1.2 7.8-2.5 18-3.6 25.1 1.2h4.4c1.1-.4 2.3-1.2 3.4-1.5a19 19 0 0 1 12.1.3c.9.3 1.8 1 2.6 1.2h7.8a12 12 0 0 1 6.1 0H93c1.4-.8 2.7-2.2 4.3-2.9 4.7-2.5 10.4-3 15.6-2q6 1.2 11.2 5h6.1c1.8 0 3.4-1.2 5.2-1.5q3.8-.7 7.8-.2c2.6.2 5.2 1.1 7.8 1.6h32" class="b"/><path d="M9 172h11.2a35 35 0 0 1 19-1.8q1.9.5 3.5 1.2 1.2.7 2.6.6 2.2.2 4.4-.2l1.7-.9q3.8-1.5 7.8-1.5t7.8 1.4q1.3.8 2.6 1.2h6.9a12 12 0 0 1 8.7 0h7.7c6.8-6.7 18-6.6 26-2.6 1.5.7 2.9 2 4.4 2.6h7.7c1.5-.3 3-1 4.4-1.2q4.8-.8 9.5.2 2.2.3 4.3 1H183" class="b"/><path d="M9 169.9h13q4.2-1.2 8.6-1.3 4 0 7.8 1.2h7a25 25 0 0 1 20.7-1.1c.8.3 1.8 1 2.6 1.2h7q4.2-1.8 8.6-.5c1.3.7 3 .4 4.4.5h2.6q1 0 1.7-.5c4.3-4 10.7-5.3 16.4-4.6a27 27 0 0 1 12.1 4.8q1.4.4 2.6.3h6.1q2.2 0 4.3-.6 4-.7 7.8-.1c2 .2 4 .8 6 .7H183" class="b"/><path d="M9 167.8h32c1 0 1.8-.7 2.6-1q2.5-1.2 5.2-1.7a26.8 26.8 0 0 1 19 2.7h7.9q1.2-.6 2.6-.9 3.5-.5 6.9.9l7-.1c7.5-7.5 20.4-5.8 28.5 0H183" class="b"/><path d="M9 165.6h29.4a29 29 0 0 1 7-2.8c7.1-1.6 15.2-1 21.6 2.8h8.6c1.4-.2 3-.7 4.4-.7q2.2 0 4.3.7h7c7-6.4 18-6 26-1.2l1.6 1c1.7.4 3.6.2 5.2.2H183" class="b"/><path d="M9 163.5h25c1.3.2 2.5-.6 3.5-1.1q2.6-1.2 5.2-1.9a33 33 0 0 1 20.8 1.5c1.2.4 2.3 1.3 3.5 1.5h6q3.5 0 7-.2 3.4.3 6.9.2h3.5c.8-.3 1.8-1.2 2.6-1.7q3.5-2.2 7.7-2.7a25 25 0 0 1 14.8 3.1c1 .6 2.2 1.5 3.4 1.3H183" class="b"/><path d="M9 161.4h23.4c.9.2 1.8-.6 2.6-1q2-1 4.3-1.6a35 35 0 0 1 26.8 2.6h22.6c1.6.2 2.8-1.6 4.3-2.1q2.8-1.4 6-2a24 24 0 0 1 16.5 4q3 .2 6 0h22.6a32 32 0 0 1 7.8-.8c2.6-.1 5.2.5 7.7.9H183" class="b"/><path d="M9 159.3h22.5q5-2.5 10.4-3.7a35 35 0 0 1 20.8 2.3c1 .4 2.2 1.4 3.4 1.4h22.6c5-4 12-4.9 18.1-3 2.5.6 4.7 2 7 3h19c2.3-.1 4.7.2 7-.2a31 31 0 0 1 18.1-.8c1.4.2 3 1 4.4 1H183" class="b"/><path d="M9 157.2h21.6a37 37 0 0 1 30.3-1.9c1.5.5 2.9 1.5 4.4 1.9h19.9q1.4.1 2.6-.4 2-1.4 4.3-2.2a21 21 0 0 1 19 2.5h24.3c1.2.2 2.4-.5 3.5-.8a31 31 0 0 1 15.6-1.2 42 42 0 0 1 7.7 2H183" class="b"/><path d="M9 155h19.9q1.4.2 2.6-.4a34 34 0 0 1 30.3-.7c1 .4 2.3 1.3 3.5 1.1h18.2c1 0 2.5.2 3.4-.6a21 21 0 0 1 22.5.6h25.1c.9.2 1.9-.5 2.6-.8q2.6-1 5.2-1.4 5.6-1 11.3-.2 4.5.9 8.6 2.4H183" class="b"/><path d="M9 153h21.6c.9-.1 1.8-.8 2.6-1.1a33 33 0 0 1 30.3 1h20.8c2-.9 4-2.2 6-2.8a19 19 0 0 1 17.4 2.7c6.9.3 13.9 0 20.8.1h7c2.1-.8 4.5-1.8 6.8-2.2a31 31 0 0 1 16.5 1.5c.8.3 1.8.9 2.6.7h21.7" class="b"/><path d="m9 149.6 4.3 1.2h19c1.8-.6 3.5-1.7 5.3-2.2a31 31 0 0 1 20.7.5c1.5.5 2.9 1.5 4.4 1.7h14.7q3.5.2 7-.2 2-1.3 4.2-2.1c5.7-2.1 12.7-1.8 17.4 2.3q3 .1 6-.1 3.3-1.5 7-1c1.7 0 3.4.9 5.2 1h11.2c1.2.2 2.4-.6 3.5-.9q2-.7 4.3-1a28 28 0 0 1 13 1.4q1.2.7 2.6.6H183" class="b"/><path d="M9 146c3.6 1.2 7.5 1.7 11.2 2.7H35c1.7-.5 3.4-1.6 5.2-2a28 28 0 0 1 16.4.5c1.4.4 2.9 1.4 4.3 1.5h20.8c1.2 0 2.6.2 3.5-.6 5.5-3 13-3.5 18.2.6h4.3l2.6-1.5c3.5-1.5 7.6-1.6 11.3-.7q2.7.8 5.2 2c3.1.3 6.3.1 9.5.2 1.5.1 3-.7 4.3-1a22 22 0 0 1 12.2.8c1 .3 2.3.1 3.4.2 5.8 0 11.6.2 17.3-.3 3.2-.1 6.4.4 9.6.3" class="b"/><path d="M9 143c4 1 8 1.4 12 2.3 1.8.3 3.6 1 5.3 1.2h13a23 23 0 0 1 11.2-1.6q3.6.3 7 1.6h27.7c4.5-2.3 10.4-3 14.7 0 6.9 0 3.3.4 8.7-2.4 5.5-2.3 11.9-1.9 17.3.6q1.8.7 3.4 1.7 2.6.1 5.2.1h24.3c1.8.2 3.5-.7 5.2-1 6.2-1.4 12.7-.8 19 0" class="b"/><path d="M9 140.2c4.5 1.2 9.2 1.4 13.8 2.2q2.7.4 5.2 1.2c1.1.3 2.3 1 3.5.8q8.3.2 16.4-.1 4 .1 7.8.1H87c1.4-.2 3-.7 4.3-.7q2.3 0 4.4.7h5.2l1.7-.1q1.2-1.1 2.6-2 3.6-2 7.8-2.5c5-.8 10.1.4 14.7 2.4l4.3 2.1q2.6.1 5.2.1H152c1.1 0 2.3-.7 3.4-1l5.2-1.3c7.5-1.4 15-.5 22.5.4" class="b"/><path d="M9 137.7c5 1.3 10.4 1.2 15.6 2q3.5.6 6.9 1.5c1.4.3 2.9 1.2 4.3 1.1H100c1.5-.7 2.8-2 4.3-2.7q3.3-1.6 7-2.3c9.2-2 15.8 2 24.2 4.6q2.5.6 5.2.4c2 0 4.1-.7 6-1.2a84 84 0 0 1 10.5-2.2c8.6-1.4 17.3 0 26 1" class="b"/><path d="M9 135.6c5.6 1.3 11.6.9 17.3 1.7q4.4.5 8.6 1.6c2 .4 4 1.4 6.1 1.3h57.2q1-.2 1.7-.9 1.6-1.2 3.4-2a29 29 0 0 1 17.4-2.7c3.8.7 7.4 2.2 11.2 3 7.6 1.7 15-1.4 22.5-2q7-.6 14 .1c4.8.6 9.7 1.5 14.6 1.8" class="b"/><path d="M9 133.8c5.4 1.2 11 .5 16.4 1 6.2.4 12.2 1.7 18.2 3 1.7.4 3.5.2 5.2.2h49.4q2.4-1.9 5.2-3a33 33 0 0 1 19-2.4q3.9 1 7.8 1.8c6.1 1 12.2-.8 18.2-1.5q8.6-1.2 17.3.1c5.8.9 11.5 2.5 17.3 2.6" class="b"/><path d="M9 132.5c4 1 8 .1 12 .2q8-.2 15.7 1 8.2 1.7 16.4 2.2h37.3q3.8.2 7.8-.1a36 36 0 0 1 23.3-5.4l6.1 1.2q3.5.5 7 .1c7.4-1 14.9-2.7 22.5-2.1a61 61 0 0 1 13 2.3q3.8 1.2 7.7 2 2.6.2 5.2.2" class="b"/><path d="M9 131.8c3 .8 6.4-.3 9.5-.5q6-.7 12.1-.3c6.7.4 13.3 1.6 20 2.1q6.4.4 13 .4 5.6.4 11.2.3h23.4q1 0 1.7-.7a41 41 0 0 1 12.1-4.3q4.8-.8 9.5-.3c2.3.2 4.7.9 7 1 5.2 0 10.4-1.7 15.6-2.3a51 51 0 0 1 27.7 4c2.2.8 4.5 1.8 7 2l4.2-.3" class="b"/><path d="M9 131.7h5.2q1.6-.8 3.4-1.3 5.2-1.3 10.4-1.2c7 0 13.9 1 20.8 1.6q13.9 1 27.7.9H100c1.2.2 2.4-.8 3.4-1.3l4.4-1.7a36 36 0 0 1 17.3-1.4c5.3.6 10.4-1.6 15.6-2.4a44 44 0 0 1 29.4 4.6c1.4.7 2.7 2.4 4.4 2.2h8.6" class="b"/><path d="M9 127.9c1.6 0 2.9 1.1 4.3 1.7h5.2c1.4-.3 2.9-1 4.3-1.2q4.7-.8 9.6-.7c8.6.3 17.3 1.4 26 1.7s17.3 0 26 .2h19.8c.9 0 1.9-.7 2.6-1a39 39 0 0 1 13.9-3.1c2-.1 4 .3 6 .1 4.8-.5 9.2-2.6 14-3.3 10-1.9 21.8-.2 29.4 7.3h4.3q1.2-.5 2.6-.5 1.3.2 2.6.5h3.4" class="b"/><path d="M9 124c2.6.4 4.8 2 6.9 3.4h7c2-.2 4-.8 6-.9q6.5-.3 13 .2l11.2.7h57.2c1.5-.3 2.9-1.2 4.3-1.6q4.6-1.6 9.6-1.5c2.7 0 5.3-1.1 7.7-2q4.3-1.6 8.7-2.5c9.2-1.6 20.6 0 26.9 7.6l2.6-.1c2.1-2.3 5.7-2.6 8.6-1.7 1.5.4 2.8 2 4.3 1.8" class="b"/><path d="M9 121c3.2.6 6 2.6 8.6 4.3H87l5.1-.8a42 42 0 0 1 15.6.8q4.4 0 8.7 0c1.1 0 2.3-1 3.4-1.2q2.5-1 5.2-1.1c2.7-.6 5.2-2.2 7.8-3.2q4.6-2 9.5-2.6c7.6-.8 16.3.7 21.7 6.5 1 2 2.9 2.3 4.3.3 4.3-3.6 10.8-2.2 14.7 1.2" class="b"/><path d="M9 118.3c3.4.9 6.6 3 9.5 5h59.8c1.3-.1 3 0 4.3-.3a54 54 0 0 1 30.3-.7q1.3.6 2.6 1h6q1.7-1 3.5-1.5 2.3-1 4.3-2.3a30 30 0 0 1 21.7-4c4.7 1 9.8 3.2 12.1 7.6l1.7.1c4.1-6.1 13.3-4.8 18.2-.5" class="b"/><path d="M9 116q3.6 1.2 6.9 3.3c1.1.5 2.2 1.7 3.5 1.8h56.2q1.8 0 3.5-.2a48 48 0 0 1 9.5-2.8 56 56 0 0 1 21.7 0q2.6.7 5.2 1.6c1.1.3 2.2 1.4 3.4 1.4h5.2c1.3-.5 2.4-1.6 3.5-2.3 6.1-4.6 14-6.9 21.7-5.4 4.7.9 9.9 3 12 7.6h1.8c1.7-3.2 5.3-4.5 8.7-4.6a17 17 0 0 1 11.2 4.3" class="b"/><path d="M9 114c3.4 1.1 6.3 3.5 9.5 5h58a47 47 0 0 1 9.5-3.4 56 56 0 0 1 20-1q5.3.7 10.4 2.7c1 .4 2.3 1.3 3.4 1.7h5.2a5 5 0 0 0 1.7-1.2c5.8-5.3 14-7.8 21.7-6.3 4.4 1 9.2 3 11.3 7.3a3 3 0 0 0 1.7 0c2.2-4.3 7.7-5.3 12.1-4.5 3.6.5 6.8 2.4 9.5 4.7" class="b"/><path d="M9 112.4c2.7 1 5.3 2.8 7.8 4.4h58a49 49 0 0 1 15.6-4.8q10.5-1.4 20.8 1.3c3 .7 5.8 2.2 8.6 3.5h6a24 24 0 0 1 20.9-7.1c4.3.7 9 2.6 11.2 6.7q.8.5 1.7.5c2.6-5 9-5.8 13.9-4.6q2.8.7 5.2 2.2c1.2.6 2.3 1.7 3.5 2.3h.8" class="b"/><path d="M9 111q3 1.7 6 3.7H74a42 42 0 0 1 19-5.5 53 53 0 0 1 23.5 4.2c1 .5 2.2 1.5 3.4 1.3h6c5.4-4.9 12.7-7.9 20-6.7 3.1.5 6.3 1.7 8.7 3.8.8.8 1.6 2.3 2.6 3h.8c5.1-7.8 16.6-5.7 22.6-.2q1.2.2 2.6.1" class="b"/><path d="M9 110.1c5 3 2.6 2.5 8.6 2.5H67c8.8.1 4.6.2 12.1-3a40 40 0 0 1 14.7-2.7q9.4 0 18.2 3.3 2.7 1 5.2 2.4h8.7c1.4-.9 2.8-2.2 4.3-3q3.2-2 7-2.8c6.5-1.5 14.2 0 18.1 5.8h.9c.6-.2 1.4-1.2 1.7-1.7l1.8-1.4c4.1-2.5 9.5-2.2 13.8-.4q2.9 1.3 5.2 3.2c1.3.5 3 .2 4.3.3" class="b"/><path d="M9 109.5q1 1 2.6 1H73c6.3-4.3 14-6 21.6-5.6a49 49 0 0 1 19 5.1c1.3.9 3 .4 4.4.5h7.8q1.4-.6 2.6-1.6a26 26 0 0 1 6-3c6.4-2 15.2-1.6 19 4.6h1.8c3.5-5.3 11-5.5 16.5-3.4 7 3.1 2.4 3.6 11.2 3.4" class="b"/><path d="M9 108.4h62.3q.9 0 1.8-.2a45 45 0 0 1 6-3.1q6.3-2.4 13-2.2t13 2.6c2.4.7 4.6 2 7 2.9h10.3q2.2 0 4.3-.2 2.9-1.9 6.1-3.2c5-2 10.7-2.3 15.6 0q1.4.8 2.6 1.9l.9 1 .8.5q.9 0 1.8-.3c3.7-4.9 11.2-4.7 16.4-2.5q2.3 1 4.3 2.6c2.6.4 5.3 0 7.8.2" class="b"/><path d="M9 106.2H73l5.1-2.8a31 31 0 0 1 13-2.2 37 37 0 0 1 14.8 3.9c1 .5 2.2 1.3 3.4 1.1h17.3c2.3-.9 4.5-2.4 7-3 5.6-1.8 13-1.9 17.3 2.9q1.2.2 2.6.1c2.2-2.8 6-3.7 9.5-3.6a20 20 0 0 1 10.4 3.6h9.5" class="b"/><path d="M9 104.1H73l1.7-.9a29 29 0 0 1 14.7-3.5q5.3.4 10.4 2.2c1.8.6 3.4 1.8 5.2 2.2H125c1.4 0 3.1.3 4.3-.6 6.3-3.1 15.1-4.4 20.8.5q1.7.3 3.5 0 .8-.7 1.7-1.2a13 13 0 0 1 5.2-1.3q3.6-.1 7 1.1c1 .4 2.2 1.2 3.4 1.5H183" class="b"/><path d="M9 102h11.2c2-.1 4-.7 6-.6 2.4 0 4.7.7 7 .6h39.9q1 0 1.7-.5a28 28 0 0 1 9.5-3c5.7-.6 11.5.7 16.5 3.5h29.4c1.8 0 3.5-1 5.2-1.3q4.3-1 8.7 0 1.8.3 3.4 1.2 2.6.2 5.2 0 3-1.2 6-1.3 2.3 0 4.4.5c1.1.2 2.3 1 3.5.9H183" class="b"/><path d="M9 99.9h6q1.8-.6 3.5-1.4 3.4-1 7-1c3.8 0 7.5 1.2 11.2 2.4h37.2c1.5 0 3-1 4.3-1.4a24 24 0 0 1 15.6 0c1.4.4 2.8 1.5 4.4 1.4h48.4c2 0 4-.8 6.1-.8q2.2 0 4.3.4 1.4.4 2.6.4H183" class="b"/><path d="M9 97.8q1.7 0 3.4-.2.9-.8 1.8-1.2 2.9-1.5 6-2.2c6.6-1 13.2.9 19 3.5h37.3c2.8-.8 5.7-1.7 8.7-1.6q4 .1 7.8 1.6h24.3q2.3-1.4 5.1-1.9c2.6-.2 5.2 0 7.8-.2 4.9-.4 9.8-1 14.7-.6q4 .1 7.8 1.3c1.4.4 2.8 1.6 4.3 1.4h23.4l2.6-2" class="b"/><path d="M9 95.6h.8c7.7-7.4 19.8-5.5 28.6-1.3l2.6 1.3h16.5c9 0 18 .3 26.8-.2 3.8.4 7.6.2 11.3.2h18.2c6-4.7 9.4-4.3 16.4-4.9 8.5-.7 18.4-1 25.1 5l22.6-.1q2.2-2.4 5.2-4" class="b"/><path d="M9 92.6c8.6-8.5 22.5-5.2 32 0 1.7 1.4 4 .8 6 .9h61.6c1 0 2.4.2 3.4-.4a21 21 0 0 1 12.1-6c10.6-1.1 23.3-2.1 31.2 6.4h4.3q1.8-.7 3.5-.7 2.2.1 4.3.7h7.8q3.4-3.6 7.8-5.6" class="b"/><path d="M9 89.1c8.6-7.6 21.8-4.5 31.2.3l3.4 2h59.8q3.4.1 6.9-.2 4.7-5.1 11.3-7.1 4.2-1 8.6-1.2c9-.8 19.2 1 25.1 8.5h3.5q2-1 4.3-1 1.4.2 2.6.6c.4.3 1.3.5 1.7.4 2-.1 4.2.2 6.1-.3 2.3-3.2 5.9-5.3 9.5-6.6" class="b"/><path d="M9 86c10-8.3 25.7-3 35.5 3.3h45.9c2.2-.2 4.6-.6 7-.4q3.8.5 7.7.4c5.1 0 3.4.3 7-3a26 26 0 0 1 11.2-5.8c11.5-2.3 24.5-1.3 32 8.8h3.5q1.6-1 3.5-1 1.7.1 3.4 1c2-.2 4.2.3 6-.3 2.6-4 6.9-6.4 11.3-7.6" class="b"/><path d="M9 83.2c9.1-7.1 22.6-3.4 32 1.5l2.6 1.5q1.2.9 2.6 1h16.5q2.5-.9 5.2-1c6 0 12.1.6 18.2.2 3.7-.2 7.5-.6 11.2-.2q1.8.3 3.5.9h7.8c6-7.9 15.4-11 25-10.7a28 28 0 0 1 17.4 6q1.5 1.2 2.6 2.7c.3.6 1.2 1.7 1.7 2h3.5q1.2-.5 2.6-.7c1.1 0 2.4.5 3.4.7h5.2q4.7-7 13-8.6" class="b"/><path d="M9 80.7c9.4-7.2 23.4-2.9 32.9 2.2l3.4 2 2.6.1h13.9q3-1.3 6-1.5 7-.4 14-.1H93q4.5 0 8.6 1.6c2.3-.1 4.7.3 7-.2 7.9-10.6 23.4-13.7 35.5-9q4.4 1.8 7.8 5.2c1.2 1 2 3 3.4 4h3.5q1.2-.3 2.6-.3l1.7.3h2.6c1.1 0 2.5.2 3.5-.3 2.8-5 8.2-8.1 13.8-8.8" class="b"/><path d="M9 78.5c9.6-7.3 24.1-2.5 33.7 2.6q1.7 1 3.5 1.8h14.7q1.5-.3 2.6-1a19 19 0 0 1 4.4-1c8.6-.7 17.3-.3 26 0 2.6.3 5.3.7 7.7 2h7c7.9-11 24.1-14.9 36.3-9a24 24 0 0 1 8.7 7.1c.3.6 1 1.7 1.7 2h12.1c.7-.3 1.4-1.3 1.8-2l1.7-2c3.1-3.3 7.6-5.2 12.1-5.5" class="b"/><path d="M9 76.6c9.5-7.5 24-2.4 33.7 2.5q1.8 1 3.5 1.7h13q1.3 0 2.6-.2l1.7-.8q2.2-.9 4.4-1.3c8.3-1 16.7-.4 25 .2q3.1.1 6.1 1 1.8.5 3.5 1h6a5 5 0 0 0 1.8-1.6 29 29 0 0 1 15.6-9.4c10.4-2.6 23 1 28.5 10.8q1.3.5 2.6.3h7.8q1.4 0 2.6-.3a18 18 0 0 1 15.6-9.2" class="b"/><path d="M9 75c9.3-7.9 24-2.3 33.7 2.2l2.6 1.3c1.7.4 3.6 0 5.2.2h11.3l1.7-1a17 17 0 0 1 4.4-1.4c8-1.3 16.2-.5 24.2.3q5.3.3 10.4 2h7q1-.5 1.7-1.6l2.6-2.6q6-5.3 13.8-7c10-2.2 21.8 2 26.9 11.2q6 .1 12 0c4.1-5.8 9.1-9.5 16.5-9.2" class="b"/><path d="M9 73.6c2.9-3 7.2-4 11.2-4.1 8.6-.2 16.5 3.7 24.3 7q9 .1 18.2 0c6-4 16.4-3.2 23.3-2.4 5 .6 10 1 14.8 2.2 1.6.5 3.5.1 5.2.2q2.5.2 5.2-.1A30 30 0 0 1 131 65c9.1-.9 18.7 3.6 23.4 11.5q6 .2 12-.1c3.5-5.8 9.7-9.5 16.5-8.8" class="b"/><path d="M9 72.6c5.7-6.5 16.1-4.9 23.4-2.2l6 2.4c1.4.6 2.9 1.5 4.3 1.6h20.8c3.4-2 7.4-2.6 11.3-2.8 8.5-.6 16.7 2.5 25 2.8H112c.6-.2 1.4-1 1.7-1.5l3.5-3.2a24.7 24.7 0 0 1 37.2 4.8h7.8c1.4-.2 3 .1 4.4-.4 3.6-5.6 9.7-9 16.4-8" class="b"/><path d="M9 72c2-3.5 6.4-4.9 10.4-5.1 6.4-.4 12.6 2.2 18.2 5.4h25.1c1 0 2.5 0 3.4-.6q5.8-2.2 12.1-1.8 4 .2 7.8 1.3c1.7.4 3.5 1.2 5.2 1.1h20c1 0 2.4.2 3.4-.3 8.2-9.8 20.7-13.5 32-6.8q3 1.7 5.3 4.2c.7.8 1.5 2.3 2.5 2.9h12.2c3.7-5.6 9.7-8.8 16.4-7.4" class="b"/><path d="M9 70.2h.8c4-4.7 10.9-5.2 16.5-3.5q2.2.8 4.3 2c.8.4 1.7 1.2 2.6 1.5h32.9c1.2-.1 2.4-.8 3.5-1a23 23 0 0 1 13 .1c1 .3 2.3 1 3.4.9h30.3c4-4 8.3-8 14-9.2 8.5-2 18.2 1.6 23.3 8.8 1.6.7 3.5.2 5.2.4h7.8c1.5-1 2.6-3 4.3-4q5.6-4 12.1-2.3" class="b"/><path d="M9 68h2.6c4.7-4.4 12.4-3.7 17.3 0h4.3a12 12 0 0 1 11.3-.9c.8.3 1.7 1 2.6 1h22.4q3.5-1 7-.8c1.4 0 3 .6 4.3.7h7.8q2.5-1.2 5.2-1.6 3.2-.3 6 .6c1.2.2 2.4 1.2 3.6 1h15.5c3.2-3.7 7.3-7 12.2-8 8.2-2.1 17.4 1.3 22.5 8h13.8c1.5-1 2.8-2.6 4.4-3.5q5.3-3.3 11.2-1.3" class="b"/><path d="M9 66h4.3c.8-.3 1.8-1 2.6-1.2a11 11 0 0 1 7 0q1.2.8 2.5 1.1h4.4c3.8-4.2 10.5-4.6 15.5-2.4q1.9.9 3.5 2 1.2.6 2.6.4h32c1 .2 2-.6 2.6-1a19 19 0 0 1 20.8.7q1.2.5 2.6.3h3.5q4.3.2 8.6-.1a20 20 0 0 1 24.3-5.6q2.8 1.3 5.2 3.4c.8.6 1.7 1.8 2.6 2.3q7.8.2 15.6-.1 6-6 13.8-3" class="b"/><path d="M9 63.8h18.2c6-7.3 17.7-6.2 24.2 0q15.2.2 30.3-.1c7.4-6.2 18.9-7.5 26.9-1.7.7.5 1.7 1.5 2.6 1.8h9.5c1 0 2.4.2 3.5-.2a19 19 0 0 1 21.6-4.7q2.8 1.1 5.2 3c.8.6 1.6 1.8 2.6 2H171l2.6-1.6c3.3-1.6 6.4-.9 9.6.5" class="b"/><path d="M9 61.7h16.4a18 18 0 0 1 18.2-5.5c3.6.8 6.8 3 9.5 5.5h26c10.7-8.4 24.5-10 34.7 0H125q1 0 1.7-.4c7.1-7 18.9-6 26 .4h22.5q2.2-.5 4.4 0h3.4" class="b"/><path d="M9 59.6h14.7c1-.5 1.8-1.6 2.6-2.3q1.6-1.4 3.5-2.4a20 20 0 0 1 18.1-.1c9.8 5.5 1.6 4.8 14.8 4.8h13c1.2.2 2.4-1 3.4-1.6l4.3-2.5a31 31 0 0 1 15.6-4c6.2.3 12.3 3 16.5 7.7 1 .6 2.4.3 3.4.4h9.6c.9-.2 1.8-1.1 2.6-1.6 3.3-2 7.4-3 11.2-2.5q3.7.5 7 2.1c1.1.5 2.2 1.8 3.4 2H183" class="b"/><path d="M9 57.4h13.8c.6 0 1.4-.8 1.8-1.3 5.6-6 15-7.7 22.5-4.5q2.8 1.1 5.2 3c1.2.7 2.2 2.2 3.4 2.8h17.4q2 .2 3.4-1l4.3-2.5A41 41 0 0 1 93 49c8.7-1.8 18.4 1 24.2 8 .4.2 1.3.4 1.7.3h11.3c1.3.2 2.4-.9 3.5-1.4q1.6-.8 3.4-1.3a18 18 0 0 1 14.7 2.7H183" class="b"/><path d="M9 55.3h8.6c1.7 0 3.6.3 5.2-.2 8.8-10.7 25-10 33.8.2h15.6c1.8-.3 3.5-1.6 5.2-2.4a49 49 0 0 1 17.3-6.7c9-1.4 18.5 2 24.3 9q7.3.1 14.7.1 4-2.1 8.6-2.3 3.1 0 6.1 1c1.1.3 2.3 1.4 3.5 1.3H183" class="b"/><path d="M9 53.2h7.8c1.6-.1 3.5.3 5.2-.3 6-7.6 17-10.5 26-6.9q3.7 1.5 6.9 4c1.1 1 2.2 2.4 3.4 3.2 17.2 0 10 1.2 25.1-6.1 9.6-4.6 21.1-5.5 30.3.4q2.3 1.4 4.4 3.3c.8.7 1.7 1.9 2.6 2.4h15.6c.8 0 1.8-.5 2.6-.7a17 17 0 0 1 11.2.7H183" class="b"/><path d="M9 51c18.5-.1 6.9 1.7 19-6.2a24 24 0 0 1 24.3.1q2.8 1.6 5.2 3.8c.8.7 1.6 2 2.6 2.4h9.5c2.1-.2 4.1-1.7 6-2.5q4.7-2.6 9.6-4.7c12.7-5.5 27.1-3.6 36.4 7.2h17.3c2 .1 4-.5 6-.4q1.8 0 3.5.4H183" class="b"/><path d="M9 49h6.9c1.4-.1 3 .2 4.3-.3a25 25 0 0 1 30.3-7.9q4.3 2 7.8 5c1.2.9 2.2 2.5 3.5 3.2 10.7 0 7 .8 16.4-4.1A47 47 0 0 1 99 38.6a31 31 0 0 1 21.7 8.3c1.7 1.8 1.6 2.2 4.3 2h58" class="b"/><path d="M9 46.8q5.2.1 10.4 0c7.1-9.7 20-13.8 31.1-9a33 33 0 0 1 11.3 7.5c.3.5 1.2 1.3 1.7 1.5h7c1.2-.2 2.3-1.1 3.4-1.7l6-3.3a44 44 0 0 1 20.9-5.3 32 32 0 0 1 21.6 9q.8 1 1.7 1.3H183" class="b"/><path d="M9 44.7h9.5c8.2-10.4 20.3-14.8 33-9.7a36 36 0 0 1 12 8.2c.3.5 1.2 1.3 1.8 1.5h4.3q1.4 0 2.6-.2 6-4.3 13-7a35 35 0 0 1 39 7q1.6.4 3.4.2H183" class="b"/><path d="M9 42.6h6c1.1 0 2.5.2 3.5-.3A27.7 27.7 0 0 1 55.7 34q4.3 2.3 7.8 5.6c1.2.9 2.2 2.4 3.5 3h2.6q1.7.1 3.4-.2a31 31 0 0 1 7.8-4.9c14.6-7.4 32.2-6.9 44.2 5h55.4c.8.1 2 .2 2.6-.3" class="b"/><path d="M9 40.5h8.6c1.6-1.4 2.8-3.6 4.4-5 4-3.9 9.1-6.8 14.7-7.8h9.5a33 33 0 0 1 9.5 3.4q5.2 2.8 9.6 6.6c1 .9 2.1 2.2 3.4 2.8l5.2-.1c4.6-4.1 10.6-6.5 16.5-8.1a36 36 0 0 1 34.6 8q1.7.3 3.5.2h52.8l1.7-1.2" class="b"/><path d="M9 38.4h8.6c3-4.6 7.2-8.6 12.2-11 1.6-.7 3.4-1.6 5.1-1.8h13.9q3.1.8 6 2.2 5.6 2.8 10.5 6.8c1.3 1.1 3 2.3 4.3 3.5 1.6.5 3.5.2 5.2.2 3.8-3.5 8.9-5.6 13.8-7.1 11.9-3.6 26-2.3 35.6 6q.6.8 1.7 1.1h54.5l2.6-1.5" class="b"/><path d="M9 36.2h8.6a29 29 0 0 1 14.8-12.5q1.2-.3 2.6-.2h14.7c1.8 0 3.5 1 5.2 1.7 4.3 2 8.3 5 12 7.9 5 3.3 2.5 3.2 8.8 3.1a44 44 0 0 1 34.6-7.4A29 29 0 0 1 125 36c2 .3 4 0 6 .1q3.5 0 7-.2 2.6 0 5.2.2h37.2l2.6-1.5" class="b"/><path d="M9 34.1h5.2c1 0 2.4.2 3.4-.3a28 28 0 0 1 14.8-12.5h19C57.2 23 62.2 27 67 30.5l3.5 2.5q.6.8 1.7 1.1c1.6-.1 3.6.3 5.2-.3L80 32c13.1-7 33.3-8.1 45 2.1q4 .2 7.8-.1c4-1.7 8.7-1.6 13-.8q2.2.4 4.3 1h30.3q1.5-.6 2.6-1.4" class="b"/><path d="M9 32h5.2c1 0 2.5.3 3.4-.5 3-5.5 8.1-9.8 13.9-12.3h19c1.9-.2 3.6.6 5.2 1.4q3.6 2 7 4.3l9.5 7h6a48 48 0 0 1 33-5.7c4.6 1 9.5 2.4 13 5.7h4.3c1.1.1 2.5.2 3.5-.6a22 22 0 0 1 11.2-1.8c3.9.2 7.6 1.4 11.3 2.5h25.1c1.1 0 2.5 0 3.4-.7" class="b"/><path d="M9 29.9h7.8c.6-.3 1.4-1.6 1.7-2.2a30 30 0 0 1 12.1-10.4c1.7-.4 3.5-.1 5.2-.2h14.8c1 0 2.4-.2 3.4.4 6.7 3.1 12.3 8 18.2 12.4H80q5.4-2.9 11.3-4c9.3-2.2 24.3-2.4 32 3.8 2 .3 4 .1 6 .2q2.2-1.2 4.4-2.2 5-1.6 10.4-1.2 4.4.3 8.6 1.7c1.8.4 3.5 1.3 5.2 1.7H183" class="b"/><path d="M9 27.7h7.8c1.3-1.2 2.2-3.3 3.4-4.7q4.3-5.1 10.4-8h22.5c5.8 2.4 10.6 6.6 15.6 10.3 3.5 2.7 2.5 2.5 7 2.4H80c1 0 2.4 0 3.4-.5 10.4-3.9 29.4-5.8 39 .5h6c1.2-.6 2.4-1.6 3.5-2q5.8-2.7 12.1-2.1 5.4.4 10.4 2c2 .6 4 1.8 6 2.1H183" class="b"/><path d="M9 25.6h7.8c1.5-1.8 2.6-4.1 4.3-5.8q4-4.5 9.5-7h9.6l13 .1q6 3 11.2 7.3c2.3 1.8 4.5 4 7 5.4H86l6.9-1.5a74 74 0 0 1 15.6-1q5.3.1 10.4 1.7c.7.3 1.7.9 2.6.8h5.2c1.3.3 2.4-1 3.4-1.6q1.7-1 3.5-1.8c8.8-3.2 18.5-.6 26.8 3 1 .6 2.4.4 3.5.4H183" class="b"/><path d="M9 23.5h7.8a31 31 0 0 1 13.8-12.8h21.7c6 2.2 10.8 6.9 15.6 11 .7.6 1.6 1.6 2.6 1.8h24.2q6.5-1 13-1 5.3-.2 10.4 1h9.5c5.2-5 13-6 20-5 5 .8 10 3 14.7 5H183" class="b"/><path d="M9 21.4h7.8c3.2-5.5 8-10.3 13.8-12.8h13q4.3 0 8.7 0c6.4 3 11.5 8 16.4 12.7h58.1c1-.1 1.8-1.2 2.6-1.7q2.3-1.6 5.1-2.7 7.4-2.3 14.8-.5 6.3 1.6 12 4.8 1.8.3 3.5.2H183" class="b"/></svg>