<svg xmlns="http://www.w3.org/2000/svg" id="a" width="1920" height="2400" viewBox="0 0 192 240"><defs><style>.b{fill:none;stroke:#fff;stroke-miterlimit:10;stroke-width:.3px}</style></defs><path d="M0 0h192v240H0z" style="stroke-width:0"/><path d="M8.3 228.6h5.2c1.5-1 2.9-2.5 4.4-3.5q3.6-2.7 7.8-4.1c9.4-3 17.5 0 23.6 7.5H59c1-.7 1.8-2.2 2.6-3q2-2.3 4.4-4a23 23 0 0 1 18.3-2 36 36 0 0 1 14.9 7.9q.7.8 1.7 1.2H141c1.4 0 2.9-1 4.3-1.2q3.5-1 7-1t7 1c1.1.3 2.3 1 3.5 1.1h21" class="b"/><path d="M8.3 226.4h5.2c1-.3 1.9-1.3 2.6-2q2.5-1.9 5.3-3.3c9.6-4.9 19.3-3 26.2 5.3H58q1.8-2.2 3.5-4.3 3-3.1 7-4.8c11-4 23.4.9 31.4 8.8 1 .5 2.4.3 3.5.3h41q1.8-.2 3.5-.6a29 29 0 0 1 9.6 0c1.1.1 2.4.7 3.5.6h22.7" class="b"/><path d="m8.3 224.3 6-.1c6.6-6.3 17-9.6 25.4-5a18 18 0 0 1 3.5 2.5c.8.7 1.7 2 2.6 2.6h11.4c1.4-.8 2.2-3 3.5-4.2 1.9-2 4.3-4 7-5 11.2-4.3 24.3.7 32.2 9.1q42 .1 83.8 0" class="b"/><path d="M8.3 222.1h6c1-.3 2-1.2 2.7-1.8q2-1.5 4.4-2.6a19 19 0 0 1 17.4.1q2 1.2 3.5 2.8c.3.5 1.2 1.3 1.8 1.5h13c2.7-3.9 6-7.7 10.5-9.3 11-4 23.7.6 31.5 8.9q1.2.6 2.6.4h82" class="b"/><path d="M8.3 220h7c2.9-2 6-4.2 9.6-5 5.8-1.6 12.8-.3 16.5 4.7 1.3.6 3 .2 4.4.3 1.1-.2 2.3-.8 3.5-.8q1.8.2 3.5.8H57c2.1-3 4.5-6.3 7.9-8a25 25 0 0 1 18.3-1.6q6.2 1.8 11.4 5.7c1.5 1.1 2.8 3 4.3 4h84.7" class="b"/><path d="M8.3 217.9H16a27 27 0 0 1 8.8-4.4c5.1-1.3 11.5-.3 14.8 4.2q1.7.3 3.5.2c2.5-1.8 5.8-2.6 8.7-1.3l1.8 1.1q1.7.3 3.5.2c.7-.3 1.4-1.5 1.7-2.1l1.8-2.2q2.9-3.2 7-4.7c10.3-3.4 22.6.4 29.6 8.6q1.3.6 2.7.4h80.3c1 0 2.5.2 3.4-.5" class="b"/><path d="M8.3 215.7h6c1.2 0 2.6.2 3.6-.3 5.6-4.2 15.1-5.8 20 .2 1.5.1 3.4.4 4.4-.8q2.8-2 6.1-2c2.2 0 4.6.9 6.1 2.5 1 .7 2.4.4 3.5.4.9-1 1.8-2.5 2.6-3.5a17 17 0 0 1 7-4.9c10.2-3.4 21.9.5 28.8 8.4H182l1.8-.9" class="b"/><path d="M8.3 213.6h10.5c4.9-3.5 12.9-5 17.4-.1q1.8.3 3.5-.2 1.6-1.5 3.5-2.3c4.6-1.8 9.6-1 13 2.6H59c3-4 5.4-6.9 10.5-8 9-2.3 19.2 1 25.3 8H99q1.8-.5 3.5-.7 2.3 0 4.4.7h71.6l3.4-.1 1.8-1" class="b"/><path d="M8.3 211.5h11.3c.9-.1 1.9-.8 2.6-1.1q2.6-1.1 5.3-1.3c2.4-.1 5.1.5 7 2.1 1 .4 2.4.2 3.5.2 4.9-5 14.5-5.7 19.2 0 1 0 2.5.3 3.4-.4 6-10.6 25-8.8 31.5.4h3.5c1.3-.6 2.8-1.5 4.3-1.7q4.6-.4 8.7 1.7H182l1.7-1.2" class="b"/><path d="M8.3 209.3h13c1 0 1.9-.6 2.7-.8q1.7-.6 3.5-.7c2.1-.2 4.2.6 6 1.5l3.6-.1c5.3-5.2 15.9-6 21 0q1.6.1 3.4.1c1-.6 1.8-2 2.6-2.7q1.6-1.3 3.5-2.1c7.3-2.8 16.8-1.5 21.9 4.8H92c1.2-.4 2.2-1.7 3.5-2 4.5-1.9 10-.7 14 2h35.7q3-.5 6.1-.6c2.3-.2 4.7.5 7 .6H182l1.7-1.1" class="b"/><path d="M8.3 207.2h14c1.7.2 3.4-.7 5.2-.8a9 9 0 0 1 4.4.7h4.3c6.2-5 16.7-6.2 22.7-.1 1.4.4 3 .1 4.4.2 1-.1 1.8-1.4 2.6-2q1.6-1 3.5-1.6c5.6-1.7 12.5-1 16.5 3.6q1.8.1 3.5-.3c5.5-5.7 15.2-4.2 21 .3h33.2q2.2 0 4.3-.5a28 28 0 0 1 12.2.5h18.4c1.7-.2 3.9.5 5.2-.9" class="b"/><path d="M8.3 205h12.2c2.3 0 4.7.2 7-.3q2.2-.2 4.3.3h3.5c1.4.3 2.5-.8 3.5-1.5q1.7-.9 3.5-1.5c5.8-1.8 12.8-1.2 17.5 3h7a14 14 0 0 1 14.8 0H86c3.8-4.4 10.2-5.5 15.7-4.4 3.5.6 6.7 2.4 9.6 4.4h34c1.5.2 3-.4 4.4-.7a25 25 0 0 1 12.2.7H182c.4.1 1.3-.1 1.7-.4" class="b"/><path d="M8.3 202.9h16.6c1.4.2 2.9-.4 4.3-.5q2.2-.2 4.4.5H37q1.5 0 2.6-.9a19 19 0 0 1 20 .9h22.7c7.8-7.6 20.7-7.3 28.9-.4q1.2.6 2.6.4h34c2.6-.6 5.2-1.4 7.9-1.3q2.6 0 5.2.7c.8.2 1.8.7 2.6.6h20.1" class="b"/><path d="M8.3 200.8h16.6c.8.1 1.8-.5 2.6-.7q2.5-1 5.2-.8 1.8 0 3.5.6c.8.2 1.7 1 2.6.9h3.5c1.5-.4 2.9-1.3 4.4-1.6q3.9-.7 7.8.2c1.5.3 3 1.3 4.4 1.4q10.5 0 21-.1a24 24 0 0 1 32.2 0c4 .3 8.2 0 12.3 0h25.3c2.5-.6 5.2-1.3 7.8-1.2q2.3 0 4.4.7 1.3.5 2.6.5h19.2" class="b"/><path d="M8.3 198.6H24q1.4-.4 2.6-1.2a21 21 0 0 1 13.1-1.2q2.8.6 5.2 2.1c1 .5 2.4.3 3.5.3h28.8c11.1-9 24.8-9.6 35.8 0h39.3q3-1 6.1-1 3 .2 6.1 1h19.2" class="b"/><path d="M8.3 196.5q7.5 0 14.8-.1 3.5-2.7 7.9-3.7 6.1-1.4 12.2-.2a38 38 0 0 1 7 2.2c1.4.5 2.8 1.5 4.3 1.8h21c1.3-.3 2.3-1.7 3.5-2.3a28 28 0 0 1 19.2-5c5.5.7 10.7 3.2 14.8 6.9 1 .6 2.4.3 3.5.4h34q1.8 0 3.5-.2 2.6-.7 5.3-.7c2 0 4 .9 6 .9h18.4" class="b"/><path d="M8.3 194.4h13l4.4-2.8c10.2-5.3 22.4-3 32.3 1.7.8.4 1.8 1 2.6 1h14.9c1.2-.6 2.3-1.8 3.5-2.5q2.9-2 6-3.2a28 28 0 0 1 28.9 5.8h31.4l7.8-.1a18 18 0 0 1 12.3 0h18.3" class="b"/><path d="M8.3 192.2H16q2.2.1 4.4-.1l1.8-1.3a35 35 0 0 1 30.5-3.3q4 1.2 7.9 2.9c1.7.6 3.3 2 5.2 1.8h10.5a28 28 0 0 1 37.5 0q17.4.2 35 0l2.5-.1a19 19 0 0 1 13.1-.9c1.2.3 2.3 1.2 3.5 1h15.7" class="b"/><path d="M8.3 190h10.5c.8-.2 1.8-1 2.6-1.6q1.6-1.1 3.5-2a42 42 0 0 1 33.1-.6c3.9 1.2 7.5 3.1 11.4 4.3h7.8c1.4-.3 2.3-1.8 3.5-2.5q2.5-1.6 5.3-2.7a29 29 0 0 1 27.9 5c11 .4 22.1 0 33.2.2 1.8.2 3.4-1.2 5.2-1.6a22 22 0 0 1 13.1 0l2.6 1.1c.4.3 1.3.6 1.8.5h14" class="b"/><path d="M8.3 188h9.6l2.6-1.8c9.7-6.5 22-7.6 33.2-4.8 5 1.2 9.9 3.2 14.8 4.7 1.5.4 3 1.3 4.4 1.8q3.5.2 7-.1c9.1-8.8 24.4-7.3 34 .1h31.4c1 .1 1.8-.7 2.6-1q2.6-1.2 5.3-2 5.2-1.1 10.4 0c2.5.6 4.8 1.9 7 3h13.1" class="b"/><path d="M8.3 185.8H17c1.5-.7 3-2 4.4-2.7q4.1-2.4 8.7-3.8a56 56 0 0 1 34 2.2c3.6 1.1 7.5 1.7 10.5 4q1.2.5 2.6.3h4.4c8.6-7 21.3-6.5 30.5-1l1.8 1h29.7c7.8-5.4 19-6.3 27-.8 1.4 1.3 3.6.6 5.3.8h7.8" class="b"/><path d="M8.3 183.7H16c1.3-.2 2.4-1.4 3.5-2a45 45 0 0 1 21.9-6.5 70 70 0 0 1 21.8 3.3c4.8 1.2 10 2 14 5.2h7c1.1-.5 2.2-1.5 3.4-2a23 23 0 0 1 7.9-2 30 30 0 0 1 17.4 4h28c.8-.2 1.8-1 2.6-1.5a26 26 0 0 1 25.3-1.2c1.5.6 2.8 2 4.3 2.7h10.5" class="b"/><path d="M8.3 181.5H16c1.2-.4 2.4-1.4 3.5-2a46 46 0 0 1 21.9-6.3c7.3-.4 14.7 1 21.8 2.7 5 1.2 10.5 2 14.8 5.1 1 .8 2.4.4 3.5.5h5.2c1.3.2 2.4-.7 3.5-1.1q2.2-.9 4.4-1.2 4.7-.7 9.6.1c2.7.4 5.3 1.5 7.8 2.2h27.2l.8-.4a32 32 0 0 1 7-3.9 26 26 0 0 1 25.3 3.1c.3.4 1.3 1 1.7 1.2h9.6" class="b"/><path d="M8.3 179.4H16c1.2-.4 2.4-1.4 3.5-2q3.4-2 7-3.2a54 54 0 0 1 15.7-3c7-.3 14.1.8 21 2.4 2.5.7 5.3 1 7.8 1.8q4.7 1.3 8.8 4h13a33 33 0 0 1 13.2-.5q1.6.3 3.4.5h28q1.3-.8 2.6-1.7 6.7-4.7 14.8-5.3c7-.4 14 2 19.2 6.6 1 .6 2.4.3 3.5.4h6.1" class="b"/><path d="M8.3 177.2H16q1 0 1.8-.7a35 35 0 0 1 10.5-4.7c9.8-3 20.4-3 30.5-1.1 4.4 1 8.8 1.6 13.1 2.8a37 37 0 0 1 5.3 2.2c1 .4 2.2 1.5 3.4 1.5h55c1.3-.3 2.4-1.6 3.5-2.3q2.9-1.9 6.1-3.2c10-4.3 22-2 29.7 5.5h8.7" class="b"/><path d="M8.3 175.1c13.6 0 5.4.7 16.6-3.7a64 64 0 0 1 20-3.6 101 101 0 0 1 24.5 3.2q3.5 1 7 2.6c1 .4 2.2 1.4 3.4 1.5q27.6.2 55-.1a30 30 0 0 1 31.5-6q3.1 1.4 6 3.5c1.2.8 2.2 2.3 3.6 2.6h7.8" class="b"/><path d="m8.3 172.3.8.7c13.7 0 5.4.5 16.6-3.5a73 73 0 0 1 21-3.2q12 .2 23.5 3.5a35 35 0 0 1 7 3.2h55.9c10-8.4 21.8-12 34-6q2.8 1.3 5.3 3.2c1.1.8 2.2 2.2 3.5 2.8h7.8" class="b"/><path d="m8.3 169.3 1.7 1.5q4.9.2 9.6-.1a75.4 75.4 0 0 1 41.9-4.3c3.6.8 7.2 1.5 10.5 3.1l2.6 1.3h50.6c2.3 0 4.8.3 7-.2q1.7-1.6 3.5-2.8a35 35 0 0 1 10.5-5.3 28 28 0 0 1 28.8 8c1 .6 2.4.3 3.5.3h5.2" class="b"/><path d="M8.3 166.5q1.2 1.1 2.6 2.2h9.6c1.5-.2 3-1 4.4-1.3a81 81 0 0 1 8.7-1.8c9-1.5 18.1-2.2 27-.5 3.6.7 7.4 1.6 10.5 3.6h59.4c4.6-3.9 9.7-7.5 15.7-9 10.3-3 21.7.8 28.8 8.7 1 .4 2.4.2 3.5.3h5.2" class="b"/><path d="m8.3 164 2.6 2.3q2.2.4 4.4.2H23c2.3 0 4.7-.7 7-1 7.2-.9 14.5-2.3 21.8-2.2q6.3 0 12.2 1.8 1.9.6 3.5 1.4h9.6l3.5-.5q3 0 6.1.6h41q1.6.1 2.7-1 1.6-1.6 3.5-2.8 5.1-3.8 11.3-5.7c10.7-3.2 22.6 1 29.7 9.4h8.7" class="b"/><path d="M8.3 161.6c2.9 2.4 2 3 6 2.8h25.4l4.4-.8a45 45 0 0 1 17.4.1c1.1.3 2.4.8 3.5.7H73c1.1-.1 2.3-.9 3.5-1.2q2.5-.7 5.2-.7c3.3 0 6.5 1 9.6 2h36.7l1.7-1.3c14.6-12.6 32-13.6 45.4 1.2h8.7" class="b"/><path d="m8.3 159.5 2.6 2.5q1.3.4 2.6.3h57.7c1.4-.4 2.8-1.4 4.3-1.8q3.3-1 7-.9 4 .1 7.8 1.4c1.4.4 2.9 1.4 4.4 1.3H127c7.1-5.7 14-10.8 23.5-11.3a28 28 0 0 1 21.9 8.8c.7.7 1.6 2 2.6 2.5h8.7" class="b"/><path d="m8.3 157.6 2.6 2.5h55.9q2.2.2 4.3-.1a21 21 0 0 1 11.4-3 29 29 0 0 1 11.3 2.4c.8.4 1.8.9 2.6.7h29.7c1.9-1 3.5-2.7 5.3-4q3.6-2.6 7.8-4.7a28 28 0 0 1 34 7.3c.4.5 1.2 1.3 1.8 1.5h8.8" class="b"/><path d="m8.3 156 1.7 1.8c2 .4 4.1.1 6.1.2h11.4q2.2 0 4.4-.6a22 22 0 0 1 8.7 0c1 0 2.3.6 3.5.6h27q5.3-3 11.4-3 7.3-.1 14 3h27.9c1.3.2 2.5-.9 3.5-1.7l3.4-2.7q5.3-3.9 11.4-6a28 28 0 0 1 30.5 8.8l1 1.1.8.5h8.7" class="b"/><path d="M8.3 154.6c.4.5 1 1.2 1.7 1.3h16.6q6-2.4 12.2-1.5c2.1.2 4.1 1 6.1 1.5h26.2q1.5 0 2.6-.7a25 25 0 0 1 16.6-1.3q3.1.6 6.1 2h28.8c1.7-.7 3-2.3 4.4-3.3 10.7-8.8 24.3-12.4 36.7-4.5q2.8 1.8 5.2 4.1c1.2 1 2.2 2.7 3.5 3.7h8.7" class="b"/><path d="M8.3 153.6c2 .3 4.1 0 6 .1H24c1.5-.1 2.9-1.2 4.4-1.4a22 22 0 0 1 7-.8q3 .3 6 1.2c1.2.2 2.4 1 3.5 1h29.7a27 27 0 0 1 20 0h28.8q1.5.1 2.7-.2l1.8-1.5a42 42 0 0 1 18.3-10 29 29 0 0 1 28.8 11.7h8.7" class="b"/><path d="M8.3 151.6h9.6c1.7-.1 3.6.3 5.2-.3 4.5-2.5 10-3 14.9-1.7 2.1.3 4 1.5 6 2H80q2.2-.5 4.3-.5 2.7.1 5.3.5H126c2.1-1.4 4-3.5 6.1-5q5.2-3.9 11.4-6a28 28 0 0 1 24.4 3.9q2.8 2 5.2 4.5c.8.8 1.7 2 2.7 2.6h7.8" class="b"/><path d="M8.3 149.5h12.2l1.8-1a21 21 0 0 1 15.7-1q1.7.5 3.5 1.4 1.2.7 2.6.6H127c1.9-1.2 3.4-3.1 5.2-4.4q4.8-3.9 10.5-6.1c12.2-4.7 25.2.3 33.2 10.2 1 .4 2.4.2 3.5.3h4.3" class="b"/><path d="M8.3 147.3h10.5c6.5-5 16-4.4 22.6 0h53.3q2.2-.5 4.3-.5 2.7.2 5.3.5h23.5c.6 0 1.4-.7 1.8-1.2 15-14.8 33-14.5 47.1 1.2h7" class="b"/><path d="M8.3 145.2H17c7-5.8 16.5-4.8 23.6 0h49.7c1.2 0 2.4-.6 3.5-.8a26 26 0 0 1 10.5 0c1.1.1 2.4.7 3.5.8h21.8c14.2-15.4 33.2-16 47.1 0h7" class="b"/><path d="M8.3 143h7a18.4 18.4 0 0 1 21.8-1.5c1 .7 2.1 1.8 3.5 1.5h48.8c1.5-.1 3-.9 4.4-1.1a27 27 0 0 1 12.2 0c1.4.3 3 1.2 4.4 1.1h20c1.9-1.2 3.4-3.2 5.3-4.5q5.5-4.4 12.2-6a27 27 0 0 1 28 10.5h7.8" class="b"/><path d="M8.3 140.9h5.2c1-.4 1.8-1.3 2.6-1.8q1.7-1 3.5-1.8c6.1-2.2 13.6-1 18.4 3.5q24 .1 48 .1 2.2.1 4.3-.1l2.6-1a28 28 0 0 1 14.9 0c1.4.2 2.9 1.2 4.3 1.1h20.1c5.7-6.4 14-11 22.7-10.7 8 0 15.7 4 20 10.7h3.6a13 13 0 0 1 5.2-2.4" class="b"/><path d="M8.3 138.8h4.3c7-6.6 17.5-6.5 24.5 0h6c1 0 2-.6 2.7-.8q1.7-.4 3.5-.4 2.8.1 5.2 1.2h35.8q3-1.2 6.1-1.9a27 27 0 0 1 14.9 1.4c.4.3 1.3.5 1.7.5h17.5q1.7.1 3.5-.3a29 29 0 0 1 19.2-9.7c7.6-.5 16.3 2.6 20 9.6q1.3.6 2.7.4c1.6-2.8 4.8-4 7.8-4.5" class="b"/><path d="M8.3 136.6h3.5c2-1.4 3.7-3.1 6-3.9a17 17 0 0 1 15.8 2c1.9 1.5 1.7 2.1 4.4 2h2.6l1.7-1a14 14 0 0 1 10.5-.6c1.2.3 2.3 1.2 3.5 1.5h6.1c1.4-.5 2.9-1 4.4-.7q1.3.3 2.6.7H86c2.2-.1 4.8.5 7-.6a27 27 0 0 1 17.4-.4c1.1.2 2.3 1 3.5 1h21l.8-.3.9-.9 2.6-2.3q4-3 8.7-4.5c6.7-2.1 14.5-1.4 20.1 3 .9.7 2 1.9 2.6 2.8.2.5 1.2 2 1.8 2.2h.8c3-4 5.5-5.5 10.5-6.2" class="b"/><path d="m8.3 134.5 3.5-.1c5.6-6.6 17-6.5 22.7 0 6.2.2 3 0 7.8-2.2a15 15 0 0 1 14.9 2.3h5.2c2-1.5 4.8-1.4 7-.4 1.9.7 4.1.3 6 .4H92q1.8-.5 3.6-1.1a28 28 0 0 1 14-.4l2.5.8c.8.3 1.8.8 2.7.7 7.5-.1 15.1.2 22.6-.1 7-7.9 20-11 28.8-4.9q1.6 1.2 2.7 2.7c.2.6 1.1 1.9 1.7 2.3h.9c2-4.9 7.2-7.2 12.2-7.6" class="b"/><path d="M8.3 132.3q1.7.1 3.5-.1c3.7-4.5 10.3-5.7 15.7-3.8q3.1 1.2 5.2 3.5 1.3.6 2.6.4c1 .2 2-.5 2.7-1.1a17 17 0 0 1 19.2 0 3 3 0 0 0 2.6 1.1h2.6c1.3-.6 2.8-1.3 4.4-1.2q2.2.4 4.3 1.2H93c1.5 0 3-1 4.4-1.2a28 28 0 0 1 14 .2c1 .3 2.3 1 3.5 1h24.4c2-1.6 3.8-3.4 6.1-4.5 5.3-2.7 12-3.5 17.5-1q2.5 1.2 4.3 3.4c.3.6 1.1 1.8 1.8 2.1h.8c2.2-5.6 8.4-8.2 14-8.6" class="b"/><path d="M8.3 130.2h3.5c5-6 15-6 20 0 1.2 0 2.6.3 3.5-.4q1.9-2 4.4-3a19 19 0 0 1 20 3.4h3.5q1.8-.8 3.5-1c2 .2 4 1.2 6.1 1h21c1.2.1 2.4-.5 3.5-.8q2.2-.6 4.3-.8 4.6-.5 8.8.4c1.7.3 3.4 1.3 5.2 1.2h26.2c5.8-6.3 19.5-8.9 24.4-.5q.9.6 1.8.5c2.7-6 9.4-9.1 15.7-9.5" class="b"/><path d="M8.3 128c6.1.3 3.2-.6 7.8-2.9 4.6-2 10.8-1.2 14 2.8a7 7 0 0 0 3.5-.1c6.3-7 20.8-6.7 27 .2H65q1.8-.5 3.5 0 4.8.1 9.6 0h16.6q2.3.1 4.3-.7a29 29 0 0 1 12.3 0c1.4.3 2.9 1 4.3.8 5.8-.1 11.7.2 17.5-.2q5.6.4 11.3.1c5.2-4.7 15.8-6.6 20.1 0h1.8c1.2-1.1 2.1-3 3.4-4.2 3.8-3.6 9-5.4 14-5.7" class="b"/><path d="M8.3 126h4.3c1-.4 1.8-1.4 2.7-2a11.2 11.2 0 0 1 12.2.6c1.2 1.6 2.7 1.3 4.3 1.3 6.5-7.2 19.2-7.4 27.1-2.5 1.2.7 2.2 2 3.5 2.5h35.8a32 32 0 0 1 7.8-1c2.7-.1 5.3.6 7.9 1H126q1.7.1 3.5-.1 2.2-.7 4.4-.7 1.7 0 3.5.5c.3.2 1.3.4 1.7.3h7.9c.4 0 1.3-.5 1.7-.8q1.7-1 3.5-1.4c4-1 7.2-.3 10.5 2.2h2.6c3.8-6.3 11-10 18.3-10.2" class="b"/><path d="m8.3 122.9 1.7.9q2.2.1 4.4-.2a9.7 9.7 0 0 1 11.4-.9l1.7 1c1.1 0 2.5.3 3.5-.4a21 21 0 0 1 13-5.5c7-.7 14 1.4 19.3 6h37.5q3-.5 6.1-.6 2.6 0 5.3.6h16.6q2-.8 4.3-1.2 4-.5 7.9 1.2h10.4c1.4-.2 3-.8 4.4-.8q1.8 0 3.5.7h5.2a25 25 0 0 1 19.2-10.2" class="b"/><path d="M8.3 120q1.5.4 2.6 1.5 1.7.3 3.5.1 1.4.1 2.6-.7 1.2-.5 2.6-.7 1.8-.1 3.5.4c.8.3 1.7 1 2.6 1h3.5c9.5-8.5 25.3-8 35 0h64.6c2.2-.7 4.5-1.5 7-1.5q2.6 0 5.1.7c1.1.4 2.4 1 3.5.8h13.1q3.6.2 7-.1c4.5-6 11.8-9.6 19.2-10" class="b"/><path d="M8.3 117.4q2 .4 3.5 2c1.3.2 3 0 4.3.1l4.4-.2c2.6.4 5.2.2 7.8.2a31 31 0 0 1 36.7 0h63.8c.8.1 1.8-.5 2.5-.7a19 19 0 0 1 10.5-.5c1.4.3 2.9 1.3 4.4 1.2h18.3a27 27 0 0 1 19.2-9.6" class="b"/><path d="M8.3 115c1.6.3 3 1.4 4.3 2.4h14q1.6 0 2.6-1 2.2-1.4 4.4-2.4a34 34 0 0 1 26.2.3l3.5 1.8c.7.5 1.6 1.3 2.6 1.3h64.6a20 20 0 0 1 16.6 0h18.3a27 27 0 0 1 18.3-8.8" class="b"/><path d="M8.3 112.9q2.5.6 4.3 2.2c4.7.3 9.4 0 14 .1 1.3.2 2.4-.8 3.5-1.3a34 34 0 0 1 20-4q8.1 1 15 5.3h66.2c2.9-.8 5.8-1.8 8.8-1.7q2.7 0 5.2.7c1.1.3 2.4 1 3.5 1h11.4c2.2 0 4.7.3 7-.1a26 26 0 0 1 16.5-7.6" class="b"/><path d="M8.3 111c1.5.3 3 1.3 4.3 2.1h15.8a37 37 0 0 1 27.9-3.4c2.7.7 5.3 2.2 7.8 3.4h69l2.6-.8a21 21 0 0 1 14 .8H167c.9 0 2 .1 2.7-.5q1.6-1.4 3.5-2.5c3-2 6.8-3 10.4-3.4" class="b"/><path d="M8.3 109.5q1.8.5 3.5 1.5h17.4q1.4 0 2.6-.8l2.7-1q4.6-1.8 9.6-2.1c6.3-.6 12.7.9 18.3 3.9h28.8c2.8-.8 5.8-1.6 8.7-1.5q2.7 0 5.3.6c1 .2 2.3 1 3.5.9h26.1c2.6-.7 5.2-1.6 7.9-1.6q2.7 0 5.2.6c1.2.2 2.4 1 3.5 1h21c3.5-2.9 7-4 11.3-4.6" class="b"/><path d="M8.3 108.3c1.6.7 3.5.5 5.2.5h15.7c1.8 0 3.7.3 5.3-.6A33 33 0 0 1 58 108l1.8.8h27.9q1.5 0 2.6-.6 1.8-.8 3.5-1.3a25 25 0 0 1 18.4 2h20c2.4-.1 4.8.2 7-.7q5.3-1.5 10.5-.1 1.3.4 2.6.7h24.4l2.7-1c1.3-.6 3-.8 4.3-1.2" class="b"/><path d="M8.3 106.7H37a34 34 0 0 1 15.7-1c1.4.3 2.9 1 4.4 1h29.6q1 0 1.8-.6 1.6-1 3.5-1.7a25 25 0 0 1 20 .7c1.4.6 2.8 1.8 4.4 1.6h22.7q2.6-.7 5.2-1.2 3.1-.3 6.1.4c1.2.2 2.4 1 3.5.8h29.7" class="b"/><path d="M8.3 104.6h78.5c1.2-.5 2.4-1.5 3.5-2.1q2.5-1.3 5.3-2.1c4.8-1.4 10-1.2 14.8.4 11.3 4.4 2.2 3.7 16.6 3.8h14c1.7-.2 3.4-1 5.2-1q3-.4 6 .2c1.2.2 2.4.9 3.6.8h28" class="b"/><path d="M8.3 102.4q39.7.2 79.4 0c8.8-8.3 23.2-7.2 32.3 0h22.7c1.1.1 2.4-.5 3.5-.7a21 21 0 0 1 8.7.1q1.6.7 3.5.6h25.3" class="b"/><path d="M8.3 100.3h68q1.7-.5 3.6-.6c1 0 2.4.3 3.4.6h5.3c8.5-9.5 23.7-7.7 33.1-.5q1.2.7 2.7.5h20.9q3.8-1.3 7.9-1.3 2.2 0 4.3.6c.8.2 1.8.7 2.7.7h23.5" class="b"/><path d="M8.3 98.1h59.3q2.7.2 5.3-.1c2.8-1.8 6.3-2.6 9.6-2.1 1.5.2 3.2.9 4.3 2q1.7.5 3.5 0c2.7-4 7.6-5.9 12.2-6.5a31 31 0 0 1 21.9 6.4q1.2.5 2.6.3H147q4.1-1.8 8.7-1.7 4 .2 7.8 1.7h20.1" class="b"/><path d="M8.3 96h60.2c.9 0 2 0 2.6-.8 5.7-4 14.3-4.8 19.2.8q.9 0 1.8-.2c2-3.8 6.3-5.8 10.4-6.7A31 31 0 0 1 127 96h20c1 .2 1.9-.5 2.7-.8q2-.8 4.3-1.4 4.5-.7 8.8.2c2 .3 4 1.3 6 2h15" class="b"/><path d="M8.3 93.9h58.5q1.5 0 2.6-1c5.3-4 13-5.8 19.2-2.8q1.5.7 2.6 2c.3.5 1.2 1.5 1.8 1.8h.8c2-4.4 6.8-6.7 11.4-7.4a30 30 0 0 1 23.5 7.3H148c1 0 1.9-.8 2.7-1.2q2-1 4.3-1.6 5.2-1.3 10.5-.3 3.1.6 6.1 1.8 1.7.8 3.5 1.4h8.7" class="b"/><path d="M8.3 91.7h53.2c1.7-.1 3.6.3 5.3-.3a25 25 0 0 1 17.4-6c4.2.4 8.7 2.2 10.5 6.3h.9c3.8-7.9 14.1-8.8 21.8-7q4.6 1.3 8.7 3.6c1.6.9 2.8 2.5 4.4 3.4h18.3c6.2-5.3 15.1-5.6 22.7-3.5l7 2.3c1.6.6 3.4 1.4 5.2 1.2" class="b"/><path d="M8.3 89.6h52.4c1.7-.1 3.8.4 5.2-.8 6-4.3 13.4-7.4 21-6.1 2.8.4 5.7 1.5 7.8 3.6 1 .8 1.5 2.6 2.6 3.3 1-1.5 2-3.4 3.5-4.5 4-3 9.2-3.7 14-3.3q6.5.7 12.2 4c1.6 1 2.9 2.6 4.3 3.8h17.5c9.9-9.4 23.5-5.7 35-1.8" class="b"/><path d="M8.3 87.4h55l1.7-1.1c5.1-3 10.6-6 16.6-6.6 6.6-.7 14.6 1.2 17.5 7.7 1-.8 1.6-2.6 2.6-3.6 2.7-2.7 6.7-3.9 10.5-4.2 6.9-.3 14.7 1.7 19.2 7.4q1 .6 2.6.4h14.8c4.6-5.5 12.3-7.4 19.2-7 5.4.4 10.6 2 15.7 3.6" class="b"/><path d="M8.3 84.5q3.5.3 7 .8h46.2q1.4-.5 2.6-1.2c7-3.8 14.6-7.7 22.7-7 5.5.3 12.2 2.4 14 8.2l.9-.3c2.7-7.4 12.4-8.3 19.2-6.8q7 1.4 11.3 7.1h10.5c2-.1 4.2.3 6-.2 4.3-5.6 11.7-7.8 18.4-7.8 5.7.1 11.3 1.6 16.6 3.4" class="b"/><path d="M8.3 81.8q4 .3 7.8 1.4h44.5c1.6-.3 3-1.4 4.4-2 5.6-2.5 11.3-5.6 17.5-6.4 6-.8 12.6 0 17.4 3.9 1.5 1 2.2 3.2 3.5 4.5 2.2-6 9.1-7.8 14.9-7.4 5.4.3 11 2.6 14 7.4h15.6c9.5-11.1 23.2-10 35.8-5.5" class="b"/><path d="M8.3 79.2q4 .7 7.8 1.8h44.6q2.1-.8 4.3-1.9c6.6-2.6 13-6.2 20-6.8 7.4-.5 17 1.1 20.2 8.7.6-.3 1.4-1.7 1.7-2.4q1.7-2.2 4.4-3.3c4.4-1.7 9.5-1.6 14 0 2.8 1.1 5.1 3.3 6.9 5.7q7.8.2 15.7 0c4-6 11.3-9 18.3-9.3 6-.2 12 1.3 17.5 3.4" class="b"/><path d="m8.3 76.9 7 2h46.2q2.6-1.2 5.3-2.2c5.8-2.1 11.2-5.4 17.4-6.3 6.8-1 14.5-.2 20 4.2 1.5 1 2.4 3 3.6 4.3 1-1.4 2-3.2 3.5-4.1 3.8-2.5 8.8-2.7 13-1.5q3 1 5.3 3c.8.7 1.7 2 2.6 2.6h14.9c8.9-11.9 24-11.6 36.6-6.2" class="b"/><path d="M8.3 74.8c2 .5 4 1.6 6 2h40.3q4.3 0 8.7-.2a36 36 0 0 1 5.2-1.9q4-1.7 7.9-3.5 4.6-2 9.6-2.9c6.8-1 14.3-.2 20 3.8q1.6 1 2.7 2.6l.8 1.5.9.6c.8-1 1.7-2.4 2.6-3a13 13 0 0 1 8.8-2.3c3.9.2 7.1 2.3 9.6 5.3h14.8c1-.6 1.8-2 2.6-2.8q1.6-1.7 3.5-3c9.3-6.4 21.6-5 31.4-.4" class="b"/><path d="M8.3 72.8q2.2 1 4.3 1.8h51.5q1.4 0 2.7-.3 1.7-.4 3.4-1.1c5.8-3 11.8-6.3 18.4-7 6.8-.9 14.2.1 20 4q1.6 1.2 2.7 2.5c.2.5 1.1 1.7 1.7 2l.9-.2c2.2-3.9 7.4-4.5 11.3-3.4 2 .6 3.7 2.2 5.3 3.5h13.1q1.4.1 2.6-.4a25 25 0 0 1 19.2-9.9 38 38 0 0 1 18.3 4.4" class="b"/><path d="m8.3 71 2.6 1.5h60.2a43 43 0 0 1 21-8.4c8.4-.7 18.2 1.3 23.5 8.4h1.8c3.4-3 7.9-2.9 11.3 0h14q1.4 0 2.6-.3a25 25 0 0 1 20-10c6.5-.2 12.9 1.7 18.4 4.8" class="b"/><path d="M8.3 69.5c1.2 1 2.9.8 4.3.8h47.2q7.4.2 14.8-.1c12.4-10.5 32.5-11.2 44.5.1H141c1.1 0 2.5.2 3.5-.3 4.8-6.5 13-10 21-10 6.4 0 12.8 2.2 18.3 5.5" class="b"/><path d="M8.3 68q1.7.3 3.5.2h65.4a35 35 0 0 1 41-2.7l2.7 1.7c.7.5 1.7 1.2 2.6 1h19.2c.6-.2 1.4-1 1.8-1.5a27 27 0 0 1 10.4-7 32 32 0 0 1 28.8 4.6" class="b"/><path d="M8.3 66h71.6c10.7-9 26-9.9 38.3-3.7q3.6 1.8 7 3.7 8.3.2 16.6 0c11.6-12.4 28.6-12.8 41.9-2.7" class="b"/><path d="M8.3 64h19.2a22.9 22.9 0 0 1 14-.9c1.3.3 2.8 1 4.3.8h36.7c9.7-8 23.3-9.3 34.9-4.5q4.9 2.1 9.6 4.5h14a30.4 30.4 0 0 1 42.7-1.4" class="b"/><path d="M8.3 61.8h16.6a23 23 0 0 1 21-1c.7.2 1.7.8 2.5 1h36.7c7-5.8 16.5-8 25.3-6.5 5.6 1 10.8 3.3 15.7 6 .7.6 1.8.5 2.6.5h8.8q1.4.1 2.6-.4a31 31 0 0 1 43.6.4" class="b"/><path d="M8.3 59.7H23c7.5-5.8 18.1-5.2 26.2-1l1.8 1h7.8c9.6-.1 19.2.1 28.8-.2 11.1-9 27-7.4 38.4.1h12.2a32 32 0 0 1 43.7 0h1.7" class="b"/><path d="M8.3 57.5h14c5.8-5.2 14.4-6 21.8-4a36 36 0 0 1 6 2.4c1.5.6 2.8 1.8 4.4 1.6h35q1.3-.8 2.6-1.7a30 30 0 0 1 32.3 1.4q1.2.5 2.6.3h8.7c1.7.2 3-1.6 4.4-2.4a38 38 0 0 1 7.9-3.9c11-4.2 23.5-1.6 32.2 6.3h3.5" class="b"/><path d="M8.3 55.4h12.2a3 3 0 0 0 1.8-.4q3.4-3 7.8-4.3 7-1.8 14 0 5.5 1.6 10.4 4.6h36.7c2-.8 4-2.3 6.1-3a29 29 0 0 1 22.7 1.3c1.1.5 2.3 1.4 3.5 1.8h9.6q1.4 0 2.6-.2a39 39 0 0 1 10.5-5.6 32 32 0 0 1 32.3 5.7h5.2" class="b"/><path d="M8.3 53.2h12.2q1.6.3 2.6-1A24 24 0 0 1 45.8 49q4.6 1.5 8.7 4 1.3.4 2.7.3h35.7q3.7-2.2 7.9-3.2a28 28 0 0 1 17.5 1.7c1 .4 2.2 1.5 3.4 1.5H134c.8-.2 1.8-1 2.6-1.3q3-1.8 6.1-3.1a33 33 0 0 1 26.2-.6q2.8 1.1 5.2 2.8c1.1.6 2.2 2.2 3.5 2.2h6.1" class="b"/><path d="M8.3 51h14c9.8-8 22-6.4 32.2-.2 2 .6 4.2.2 6.1.3h33.2c1.2-.2 2.4-1 3.5-1.4a28 28 0 0 1 14.8-1.2q3.7.7 7 2.6h12.2c.8 0 2 0 2.7-.2a52 52 0 0 1 8.7-4.2c8-3.1 17.3-3.7 25.3-.2 10.4 4.9 2.6 4.7 15.7 4.6" class="b"/><path d="M8.3 49H23c6.4-5 14-6.3 21.8-4.2q3.2.8 6.1 2.3c1.2.6 2.4 1.5 3.5 1.8h40.2c1.2 0 2.4-.8 3.5-1.2a28 28 0 0 1 13-1c2.5.3 4.8 1.4 7 2.2h11.4q1.7.1 3.5-.1a54 54 0 0 1 10.5-4.5c9.8-3.2 21.6-2.4 29.7 4.5 3.4.3 7 0 10.4.1" class="b"/><path d="M8.3 46.8H24c1-.1 1.8-1 2.6-1.4q2.5-1.5 5.3-2.2c7-2 14.9-.5 20.9 3.6h42.7q1.6-.2 2.7-.8l4.3-1c5-.9 10.3-.3 14.9 1.8h14.8a51 51 0 0 1 20.1-5.8q7.4-.2 14 2.7c1.8.8 3.5 2.3 5.2 3.1h12.2" class="b"/><path d="M8.3 44.5c2 .4 4.1 0 6 .2H25c1.3.2 2.4-.7 3.5-1.3A22 22 0 0 1 44 41.8q2.2.5 4.3 1.5l2.6 1.4h44.6c1.1.1 2.4-.5 3.5-.8l3.4-.8a28 28 0 0 1 14.9 1.6h13.9c2.4-.8 4.6-2.2 7-2.9 9.6-3.3 21.2-3.7 29.7 2.4l.9.5h14.8" class="b"/><path d="m8.3 41.6.8.8c6.4.3 12.9 0 19.3.1 1.4-.1 2.8-1.1 4.3-1.4a22 22 0 0 1 7-.8q4.2.2 7.8 2.2h7c1.5-.1 3-.8 4.4-.9q2.7-.1 5.2.3 1.3.5 2.7.6h30.5q5.2-1.8 10.5-2 3.5 0 7 1 1.6.5 3.4 1h8.8c1.7 0 3.6.3 5.2-.2 10.4-5.3 24-6.6 34 .2h17.5" class="b"/><path d="m8.3 39 1.7 1.4h16.6q5.7.1 11.4-.2 4.7.3 9.6.2h2.6l2.6-1.1a23 23 0 0 1 14-.3c1.4.4 2.9 1.2 4.3 1.4h27.1a28 28 0 0 1 21 0h12.1c1.3.2 2.4-.8 3.5-1.2q3-1.2 6.1-2c7.6-1.6 16.1-1.2 22.7 3.2h20" class="b"/><path d="m8.3 36.6 2.6 1.7h21.8l12.2-.1q7.6-3.4 15.8-3.3 4.8.1 9.5 1.6l7 1.6c2 .4 4.2 0 6.1.2h11.4q2.2 0 4.3-.2a27 27 0 0 1 10.5-2q4 0 7.9 1l3.5 1.2H133q1.8-.6 3.5-1.4a31 31 0 0 1 22.7.3c.8.4 1.7 1.1 2.6 1h21.8" class="b"/><path d="M8.3 34.4q1.6 1 3.5 1.7h13.9q5.3.2 10.5-.1c6.6-1.5 13.3-3.4 20-3.9 6.5-.6 13 .9 19.3 2q2.6.5 5.2 1.2c1.1.2 2.3.9 3.5.8H99l3.5-1.1q3.5-1 7-1.1 4.9-.2 9.6 1c2 .3 4 1.5 6.1 1.2h10.5q3.7-1.8 7.9-2.3a29 29 0 0 1 14 1.8q1.1.6 2.5.5h23.6" class="b"/><path d="M8.3 32.5C9.7 33 11 34 12.6 34h15.8q3.4-1 7-1.8 9-1.7 18.3-2.6c8.4-.8 17 .3 25.3 2a37 37 0 0 1 7 2.1c1.3.5 3 .2 4.3.3h9.6q3-1.2 6.1-1.9c7-1.3 14.2-.3 21 1.9h11.3c1.2 0 2.4-.7 3.5-.8a26 26 0 0 1 11.4 0c1 .3 2.3 1 3.5.8h27" class="b"/><path d="M8.3 30.8q1.6.6 3.5 1h14q3-1.3 6-2a125 125 0 0 1 48-1 39 39 0 0 1 8.8 3h12.2q2.9-1.3 6.1-2a49 49 0 0 1 23.6 2h53.2" class="b"/><path d="M8.3 29.3c2 .6 4 .3 6 .4h8.8c1.5.1 3-1.1 4.4-1.5q3-1 6-1.7c7.8-1.6 15.8-1.8 23.7-2 7.8 0 15.8 0 23.5 1.6a33 33 0 0 1 9.6 3.6h11.4q3.8-1.7 7.8-2.3 7-1 14-.4c4 0 7.7 1.3 11.4 2.7h48.8" class="b"/><path d="M8.3 27.6h14q1 0 1.7-.5a32 32 0 0 1 10.5-3.4c9.8-1.7 19.8-1.1 29.7-1.3 6.4-.1 13 0 19.2 1.8q2.6.6 5.2 1.8c1.1.4 2.3 1.3 3.5 1.6h10.5a27 27 0 0 1 7-2.2q5.6-1 11.3-1.1 4-.2 7.9.1a36 36 0 0 1 10.4 3q1.4.2 2.7.2h41.9" class="b"/><path d="M8.3 25.4h14q6.4-3.4 14-4.3c6.9-1 13.9-.7 20.9-.6 4.9.1 9.9-.3 14.8-.2 6.6.1 13.3 1.3 19.2 4.3q1.6 1.2 3.5.8h3.5c2.3-.1 4.8.5 7-.6 4.4-1.7 9.2-2.2 14-2.7 4-.4 8.1-1 12.2-.4a43 43 0 0 1 13 3.6q1.4.2 2.7.1h36.6" class="b"/><path d="M8.3 23.3h13a48 48 0 0 1 17.5-4.6c7.6-.6 15.2.2 22.7 0 3.8 0 7.6-.5 11.4-.5q8 .1 15.7 2.8c1.8.5 3.4 1.8 5.2 2.3h9.6c1.8.2 3.5-.9 5.3-1.3q4.3-1.1 8.7-1.8c3.5-.4 7-1.2 10.5-1.4a42 42 0 0 1 19.2 3.7l1.7.8h34.9" class="b"/><path d="M8.3 21.2h12.2c1.8-.5 3.5-1.5 5.2-2a51 51 0 0 1 9.6-2c8.2-1.1 16.3 0 24.5 0 4.4.1 8.7-.8 13-.8 7 0 14 1.1 20.1 4.2q1.2.8 2.7.6H106q1.4-.2 2.7-.7l3.5-1 14-2.9a40 40 0 0 1 22.6 3.2c1.4.6 2.8 1.6 4.4 1.3h30.5" class="b"/><path d="M8.3 19q6.1.2 12.2 0 8-3.2 16.6-3.8c7.8-.7 15.7.8 23.5.7 4.1 0 8.2-1 12.3-1.2 6.8-.2 13.8 1 20 3.7q1.7.9 3.5.6h5.3q3.8.1 7.8 0 2.2-.8 4.4-1.3l7.8-2q4-1.2 8-1.7c8-1 16.5.7 23.5 5h30.5" class="b"/><path d="M8.3 16.9h11.3a70 70 0 0 1 20.1-3.4c7.3-.2 14.5 1.5 21.8 1.2 3.5-.2 7-1.2 10.5-1.4q8-.6 15.7 1.3c2.4.5 4.7 1.6 7 2.3H112q2.7-.7 5.3-1.5c4.3-1.2 8.6-3 13-3.6 8.2-1.1 16.8.5 23.6 5h29.7" class="b"/></svg>