<svg xmlns="http://www.w3.org/2000/svg" id="a" width="1920" height="2400" viewBox="0 0 192 240"><defs><style>.b{fill:none;stroke:#fff;stroke-miterlimit:10;stroke-width:.3px}</style></defs><path d="M0 0h192v240H0z" style="stroke-width:0"/><path d="M7.6 230.3c2.6.6 5.5.6 8 1.7h21.9c1.2-.3 2.4-1.2 3.5-1.7q3-1.5 6.2-2.2 7-1.5 14 0c3.8.7 7.2 2.4 10.6 3.9h34.3a44 44 0 0 1 7-1q3.2-.1 6.2 1c1.4-.1 3.1.3 4.4-.4 6-6.8 15-10.8 23.8-12.4 2.2-.4 4.7-.1 7-.2q4-.2 8 .1c7.4 1 14.5 3.7 21.9 5" class="b"/><path d="M7.6 229.6q1.8.3 3.5.2h22c1.4 0 3 .2 4.4-.2q3.8-2.1 8-3.2a33 33 0 0 1 21 1.6c1.5.6 3 1.6 4.4 1.9H85c11.7-.1 23.5.2 35.2-.2q3.6-3.2 8-5.7a53 53 0 0 1 16.6-6.8q2.6-.5 5.3-.3h13.2l7 1.5q7 2 14.1 3.6" class="b"/><path d="M7.6 227.7h28.2c1.2-.2 2.4-1 3.5-1.5a34 34 0 0 1 26.4 0c1.1.4 2.3 1.2 3.5 1.5h36.1c2.8-.1 5.9.3 8.7-.2l5.3-2.3c8.8-4 17.4-9.7 27.3-10.5H158c2.3.1 4.8-.2 7 .3 6.6 1.3 13 3.6 19.4 5.2" class="b"/><path d="M7.6 225.5H35c1.5-.2 3-1.2 4.4-1.6a37 37 0 0 1 18.5-1.6q3.1.6 6.1 1.7c1.1.5 2.3 1.3 3.5 1.5h21.1q4.8-.7 9.7-1.2c6.5-.6 13-.8 19.4-2.6 8.7-2.4 16.6-7.1 25.5-8.8 3.1-.7 6.4-.2 9.6-.3h7q2.3-.2 4.5.1c6.8 1.4 13.5 3.9 20.2 5.9" class="b"/><path d="M7.6 223.4H34q1.8-.4 3.5-1.2 3-1 6.2-1.5a38 38 0 0 1 18.5 1.3c1 .4 2.3 1.2 3.5 1.4h14.9l3.5-1.1q4.9-1.2 9.7-1.9c8.2-1.1 16.5-.9 24.6-2.5 8.5-1.6 16.2-5.8 24.7-7.2 3.1-.6 6.4-.2 9.6-.3 3.5.1 7.1-.3 10.6.3q7.2 1.5 14 4c2.3 1 4.8 1.6 7 2.6" class="b"/><path d="M7.6 221.2h24.6c2.1 0 4.2-1 6.2-1.4a52 52 0 0 1 10.6-1.3c4.7 0 9.7.6 14 2.7h14.1a49 49 0 0 1 15-4.3c9.5-1.7 19.4-.8 29-2.4 7.7-1.5 15-4.9 22.8-6 2.9-.5 6-.2 8.8-.3 3 .1 6-.2 8.8.4q8.1 1.5 15.8 4.8c2.3 1 4.9 1.7 7 3" class="b"/><path d="M7.6 219h22.9c2 0 4.1-.7 6.1-.9q5.8-.9 11.5-1 6.8-.2 13.2 2h9.6l4.4-.1q2.6-1.6 5.3-2.5 6-2.2 12.3-3.1c10.5-1.8 21.3 0 31.7-2.1 8.7-2.2 17.3-5.2 26.4-5.2q12.3-.1 23.7 4.9c3.3 1.5 6.9 2.8 9.7 5" class="b"/><path d="M7.6 217h18.5c2 0 4.1-.6 6.1-.6l14.1-.4q4 0 8 .3c1.4 0 2.9.6 4.3.6h15c1.5-.6 3-1.7 4.4-2.3q5.9-2.8 12.3-4 8.3-1.4 16.7-1c5.3 0 10.6.5 15.8-.2 4.5-.6 8.8-2 13.2-3a67 67 0 0 1 15.9-2c8.2.1 16.4 2.2 23.7 5.9 3.1 1.7 6.8 3.2 8.8 6.3" class="b"/><path d="M7.6 214.8h14c1.2 0 2.5-.5 3.6-.6q2.2-.3 4.4-.2c3.5 0 7 1 10.6.8h32.5q1.5-.7 2.6-1.6l4.4-2.3q6.8-2.9 14.1-3.7 8-.7 15.8 0c5.3.3 10.7.9 15.9-.1 8.1-1.6 16.2-4 24.6-4a46 46 0 0 1 32.5 11.7h1.8" class="b"/><path d="M7.6 212.6h11.5a22.8 22.8 0 0 1 15 0h35.1c1 0 2.4.2 3.5-.2 9.2-7 21.3-8.9 32.5-8 7.6.7 15.3 2.4 22.9.6 8.4-1.8 16.9-3.8 25.5-3.2 9.2.6 20 3.7 26.4 10.7q2.2.3 4.4-.1" class="b"/><path d="M7.6 210.5h9.7a19 19 0 0 1 14-.4 3 3 0 0 0 1.8.4l6.2-.1q1.7-.6 3.5-.7 2.2 0 4.4.8h24.6c7.7-6 17.6-8.9 27.3-8.6 5.6 0 11.2 1.2 16.7 2q7.5 1 15-.8a87 87 0 0 1 21-2.6c9.6.4 19.5 3.2 26.4 10h5.3l.9-.9" class="b"/><path d="M7.6 208.3q4.6.1 8.8-.1 3.8-1.6 8-1.6 2.2.1 4.3.8l1.8.9h4.4c1.5-.4 2.8-1.6 4.4-1.8q4-1 7.9.4c1.4.3 2.8 1.6 4.4 1.4 6.7-.1 13.5.2 20.2-.1 7.3-6.2 17-8.8 26.4-8.5 6 .2 11.8 1.6 17.6 2.7q3.5.7 7 .7a48 48 0 0 0 8-1c6.3-1.4 12.8-2.7 19.3-2.7 9.4 0 19.2 2.6 26.4 9l7-.1.9-.7" class="b"/><path d="M7.6 206.2q4.6 0 8.8-.2c4-1.6 8.4-1.6 12.3.2 1.8-.2 4 .5 5.3-1 5.2-3.6 12.6-2.7 17.6 1h17.6c2.4.1 2.6-.4 4.4-1.8q2-1.6 4.4-2.7a38 38 0 0 1 15.8-4c5.7-.2 11.3.8 16.7 2.2 5.2 1.3 10.5 3 15.9 2 6.4-.9 12.8-2.8 19.3-3.3a41 41 0 0 1 29 7.5h9.7" class="b"/><path d="M7.6 204h9.7c1.4 0 3-.5 4.4-.5q1.8.2 3.5.5h5.3a16 16 0 0 1 15.8-3 18 18 0 0 1 5.3 2.8l1.8.2h15.8c1.5 0 2.4 0 3.5-1.2a37 37 0 0 1 30.8-6c6.5 1.2 12.7 4.4 19.3 4.9 6.6-.1 13-2.7 19.4-3.6 10.5-1.8 22-.4 30.8 5.9h11.4" class="b"/><path d="M7.6 201.8H28a18 18 0 0 1 22-1.2c.6.7 1.6 1.4 2.6 1.2h18.4c1-.2 1.9-1.2 2.7-1.8q2-1.6 4.4-2.7a36 36 0 0 1 24.6-2c6 1.3 11.6 4.3 17.6 5.9 2.9.7 6 .2 8.8-.5q4.8-1.2 9.7-2.6a43 43 0 0 1 32.5 3.7h13.2" class="b"/><path d="M7.6 199.7h16.7c1-.1 1.9-1 2.7-1.5q2.4-1.5 5.3-2.4c4.5-1.4 9.7-1.3 14 .8 1.6.7 3 2.1 4.4 3q4 .1 8 0 6.5.2 13.1 0c12.3-10.5 28-8.2 41.3-1q1.3.8 2.7 1h16.7c1.5 0 3-.8 4.4-1.2q3-1 6.2-1.8a38 38 0 0 1 26.3 3q2.6.1 5.3 0h9.7" class="b"/><path d="M7.6 197.5h15c6.2-4.4 14.5-7 22-4q1.8.6 3.5 1.9c.8.6 1.7 1.7 2.6 2.1h3.5q2.6-1 5.3-1.1 2.7.2 5.3 1.1h8.8c9.9-9 25.5-7 36-.1 2.6.3 5.4 0 8 .1h22.9q4.6-1.7 9.6-2.5a34 34 0 0 1 17.6 2.5h16.7" class="b"/><path d="M7.6 195.4h14c8.1-6.3 22-8.8 29.1 0h3.5c3.9-2.8 9.2-2 13.2 0h8.8c8-6.4 19.9-5.2 28.2 0h43.9a30 30 0 0 1 14-.7c1.2.2 2.5.8 3.6.7h18.5" class="b"/><path d="M7.6 193.2H20q1.6.2 2.7-1c8.3-5.9 21.8-7.6 29 1h2.6c1.2-.4 2.3-1.3 3.6-1.6 3-1 6.5-.6 9.6.2l2.7 1q.8.4 1.7.4h8.8c1.2-.2 2.4-1 3.5-1.2a19 19 0 0 1 10.6.3q1.3.4 2.6 1h87.1" class="b"/><path d="M7.6 191H20q1.6.3 2.7-.7c5.5-4 12.5-6.1 19.3-5 4 .6 8.2 2.4 10.6 5.8q1.7.2 3.5-.3.8-.6 1.8-1.1 2.8-1.3 6.1-1.2 4 .1 8 1.3c1.4.3 2.8 1.2 4.3 1.3h44q2.2-.5 4.4-.7c1.7 0 3.5.8 5.3.7h54.5" class="b"/><path d="M7.6 189h13.2q1.6 0 2.6-1A30 30 0 0 1 35 183a22 22 0 0 1 15.8 3c3.1 2 1.7 3 6.2 2.8 4.7-3.7 11.1-2.9 16.7-2q5.3 1 10.5 2h30q2-1.5 4.3-2.5c4.9-2 10.4-1.2 15 1.1 1 .4 2.2 1.6 3.5 1.4h47.5" class="b"/><path d="M7.6 186.8h14.1q1.5 0 2.6-.9a27 27 0 0 1 20.3-4.9c4 .7 8 2.5 10.5 5.8h3.5c3.2-2.7 7.5-3 11.5-3q6 .2 12.3.8c5.2.6 10.6.7 15.8 2 1.4.4 3 0 4.4.2h7c3.2-3 7.3-4.9 11.5-5.7 6.9-1.4 13.8 1.7 19.3 5.7h44" class="b"/><path d="M7.6 184.6h16.7a29 29 0 0 1 15-5.9c6.3-.5 13.2 1.1 17.6 6h3.5a17 17 0 0 1 6.2-2.6 95 95 0 0 1 20.2-.3c4.2.4 8.5 1 12.3 2.8h7a28 28 0 0 1 16.7-7.7c7-.6 13.9 2.6 19.4 6.7 1.2 1.3 2.8 1 4.4 1h37.8" class="b"/><path d="M7.6 182.5h18.5c9-7.2 24-8.3 32.5 0l4.4-.1c5-4 20-3.8 26.4-2.9q4.2.4 8 2.5 1 .7 2.6.4 1.7.2 3.5-.2c5-5.2 12.2-8 19.3-8.8 8.5-.7 16.7 3.6 22.9 9h38.7" class="b"/><path d="M7.6 180.3H28c8.8-6.7 24-7.8 32.5 0h5.3a14 14 0 0 1 3.5-1.6 47 47 0 0 1 22.9-.8q1.8.5 3.5 1.5c.3.4 1.2.9 1.7.9h3.6a35 35 0 0 1 22.8-10.1 30 30 0 0 1 17.6 5.4c2.2 1.3 4 3.3 6.2 4.7h36.9" class="b"/><path d="M7.6 178.1h22l1.8-.8q1.6-1.1 3.5-1.8a31 31 0 0 1 22.9-.3q1.8.8 3.5 2c.3.3 1.2.8 1.7 1h5.3q1.4-.5 2.7-1.1 2.1-.8 4.4-1.4c6.5-1.3 14.6-2 20.2 2.4q1.7.1 3.5-.1c5.4-6.7 17.2-10.3 25.5-10.7a31 31 0 0 1 17.6 6q1.8 1.2 3.5 2.6c.8.7 1.7 1.8 2.7 2.2h36" class="b"/><path d="M7.6 176h23.8c1.6.2 3-1.1 4.4-1.7q2.5-1.1 5.2-1.8c8-2 17-1.3 23.8 3.5h7q6.3-3 13.2-3 3.7 0 7 1.5c.9.4 1.8 1.2 2.7 1.5h2.6c6-7 17.6-10.4 26.4-11.1 9.4-.6 18.3 4.5 24.6 11.1h36" class="b"/><path d="M7.6 173.8h28.2c1.4-.4 2.9-1.4 4.4-1.9a33 33 0 0 1 27.2 2h7.9q5.4-3 11.5-2.4 2.8.1 5.3 1.4c1 1.2 2.9 1 4.4.9 4.4-5.5 12.6-8.3 19.3-10 4-.8 8.2-1.4 12.3-1a31 31 0 0 1 15.8 7c5.4 4.8 2 4 9.7 4h30.8" class="b"/><path d="M7.6 171.7h32.6a35 35 0 0 1 28.1-.7q1.2.7 2.6.7h7c3.4-1.3 7-2.4 10.6-1.7q2.4.3 4.4 1.7h2.7c.5-.3 1.4-1 1.7-1.5q1.7-1.6 3.6-2.6a52 52 0 0 1 21-6.7 28 28 0 0 1 23.8 9c.3.5 1.2 1.5 1.8 1.8h4.4q3-1 6.1-.5 2.2.6 4.4.5h22" class="b"/><path d="M7.6 169.5h37.8l1.8-.7q1.7-.7 3.5-1 5.1-1.3 10.6-.8t10.5 2.5h8c1.1.2 2.3-.7 3.4-1q3.6-1 7-.2 1.6.4 2.7 1.2h3.5c4.9-5.4 13.3-8 20.3-9.4 4-.7 8.2-1.3 12.3-.8 6.5 1 13.2 4.3 16.7 10q1.7.5 3.5.1c2.8-2.6 7.1-2.6 10.6-1.6q1.8.6 3.5 1.7h21.1" class="b"/><path d="M7.6 167.4H27a26 26 0 0 1 9.6 0h14.1c2-.5 4-1.4 6.2-1.6a37 37 0 0 1 13.2.7c1 .2 2.4.8 3.5.9h7.9c1.2-.2 2.4-1 3.5-1.2 3.2-.8 7-.8 9.7 1.2 3.4 0 2.8.3 5.3-2q3.1-2.4 7-3.9a57 57 0 0 1 20.2-3.8c5.2.3 10.3 2.3 14.1 5.7 1.3 1 2.2 3 3.5 4h1.8c3.7-4.1 9-4.6 14-3q1.9.7 3.6 1.6c.8.4 1.7 1.3 2.6 1.4h17.6" class="b"/><path d="M7.6 165.2h17.6c1.2 0 2.4-.6 3.5-.8q3.1-.8 6.2-.9 4.5 0 8.8 1.7h13.1a33 33 0 0 1 15.9 0h7l2.7-.1a16 16 0 0 1 3.5-1.5c3.7-1 8.3-1.1 11.4 1.5q1.8.4 3.6-.1c4.9-5.1 12.6-6.7 19.3-7.8a24 24 0 0 1 17.6 2.8q2 1.3 3.5 3c.3.7 1.2 1.8 1.8 2.2h1.7c5.3-8 17.6-5.6 23.8 0h15.8" class="b"/><path d="M7.6 163h17.6c1.2 0 2.4-.8 3.5-1.2q3-1 6.2-1.4 5-.5 9.7 1c1.4.3 2.9 1.2 4.4 1.7h32.5q2.4-1.7 5.3-2.4c4.6-1.3 10.4-1.2 14 2.2q1.8.3 3.6.1c4-4.3 10.2-5.5 15.8-6.4 3.8-.5 7.7-1 11.4 0 3 .8 6 2.3 8 4.7.8 1.6 1.7 2.1 3.5 1.6 2-3.5 5.9-5.3 9.6-5.8 6.3-.8 12.9 1.4 17.6 5.6a3 3 0 0 0 1.8.4h12.3" class="b"/><path d="M7.6 161h11.5q3.5-.1 7-.2a27 27 0 0 1 24.6-.8q1.3.9 2.7.9h27.2q1.8-1 3.5-2c3.8-1.7 8.2-2.4 12.3-1.8q4.5.5 8 3.5c1.3.6 3 .2 4.4.3a27 27 0 0 1 14-5c6-1 11.8.1 15.9 5q1.4.2 2.6-.3c4-6.2 12.6-7.6 19.3-6.1q4.2 1 8 3.3c1.5.8 2.9 2.2 4.4 3.1h11.4" class="b"/><path d="M7.6 158.8h17.6c1 0 1.9-.8 2.7-1.1a26.5 26.5 0 0 1 22-1.5q2.7 1 5.2 2.6h24.7c1.4-.7 2.8-1.8 4.3-2.5q3.9-1.7 8-2.2a23 23 0 0 1 12.3 2q1.4.7 2.6 1.7c.3.4 1.2 1 1.8 1h5.2c.9-.2 1.9-.8 2.7-1q2.2-.9 4.4-1.3c4.3-1 9.3-1.6 13.2 1.1.6.7 1.7 1.4 2.6 1.2q1.4 0 2.7-.3c5.8-8 17.7-9 26.3-5.2 12.6 6 2.4 5.5 18.5 5.5" class="b"/><path d="M7.6 156.6h18.5c6.8-4.7 15.9-6 23.7-3.3 2.5.7 4.8 2.2 7 3.3h20.3q1.4 0 2.6-.3 3.7-2.6 8-3.9a26 26 0 0 1 22 3c.6.7 1.6 1.4 2.6 1.2h11.4l3.5-.5q1.9 0 3.6.5h7a24 24 0 0 1 23.7-7.5c5.3 1.1 10 4 14.1 7.5h8.8" class="b"/><path d="M7.6 154.5h18.5a27 27 0 0 1 29-1.3c.8.4 1.7 1.2 2.6 1.2H79c10-7.6 24.2-7.6 34.3 0h23.7c7.4-8 20-10.5 29.9-6q3.3 1.4 6.2 3.5c1.1.7 2.1 2.2 3.5 2.5h7.9" class="b"/><path d="M7.6 152.3h18.5c2.7-1.6 5.6-3.4 8.8-4.1a26 26 0 0 1 18.4 2.2c1.2.5 2.3 1.6 3.6 1.9h22a29 29 0 0 1 33.4-1.4l1.7 1.2c1.1.3 2.5.1 3.6.2h16.7q1.4.1 2.6-.4l2.6-2.2a27 27 0 0 1 29-2.7c10.6 5.6 2.4 5.4 15.9 5.3" class="b"/><path d="M7.6 150.1H27a23 23 0 0 1 27.2 0q12.3.2 24.7 0c10.4-8 24.6-7.5 35.1 0h22c1.6-.7 3-2.3 4.4-3.2q3.7-2.5 8-3.7c9.4-3 20.3-.2 27.2 7h8.8" class="b"/><path d="M7.6 148H27c.9.2 1.9-.6 2.6-1q2.1-1.2 4.4-2c6-1.8 12.6-.8 17.6 3h8q1.6-.5 3.4-.5c1.8-.1 3.6.5 5.3.5h11.4a26 26 0 0 1 24.7-4q3.7 1.2 7 3.5.8.6 1.8.5H136c1.6-.7 3-2.2 4.4-3q4.1-2.7 8.8-4c8.9-2.4 19.3-.2 25.5 6.7 1.4.5 3 .2 4.4.3h2.7q1.3-.3 2.6-.8" class="b"/><path d="M7.6 145.8h22c5.5-3.5 13.1-3.9 18.5 0h5.3c.8-.2 1.8-1 2.6-1.3q2.1-.9 4.4-1.2 3.6-.3 7 .6c1.8.5 3.5 1.5 5.3 2h8c7.8-6.4 20-6 28-.2q8.4.1 16.8.1h7q2.2.2 4.4-.1a29 29 0 0 1 30.8-5 22 22 0 0 1 4.4 2.9c.8.6 1.7 1.8 2.6 2.2h4.4q1 0 1.8-.7 1.6-1 3.5-1.5" class="b"/><path d="M7.6 143.7H12q1.8-.5 3.5-.4c4.7.6 9.4.3 14.1.4q1.4 0 2.6-.2l2.7-.9q3.1-.8 6.2-.1c1.1.2 2.3 1 3.5 1.2h5.2c1.2-.6 2.4-1.7 3.6-2.2q3.3-1.7 7-2 5.5-.3 10.6 2 2.2.9 4.4 2.2h4.4c1.1 0 2.6 0 3.5-.8q2-1.2 4.4-1.9c5.6-1.4 11.9-.6 16.7 2.7h10.5q2.3-.2 4.4-.4 2.3.1 4.4.4H137l1.8-1.3c10.2-7.9 26-8.3 35.2 1.3q2.2.2 4.4-.2a13 13 0 0 1 6.1-3.2" class="b"/><path d="M7.6 141.5h2.7l1.7-.7q2.6-.7 5.3-.4c1.5.1 3 .8 4.4 1.1h25.5c.5-.2 1.4-.9 1.8-1.2q3.1-2.4 7-3.4c5.7-1.7 11.5-.4 16.7 2q1.9.8 3.5 1.8 1.2 1 2.7.8H84q3.5-1.6 7-1.6a17 17 0 0 1 7.1 1.4q1.4.3 2.7.2 3.5.2 7-.1a23 23 0 0 1 8-2q7.1-.3 14 2.1h7.9a28 28 0 0 1 27.3-5q4.1 1.4 7 4.6c1.3.7 3 .3 4.4.4 2-2.3 5-3.7 8-4.3" class="b"/><path d="M7.6 139.4h1.8l2.6-1.2a13 13 0 0 1 8-.1q1.6.7 3.5 1.3h22a24 24 0 0 1 20.2-5.8q7 1.7 13.2 5.5 1.2.4 2.6.3h20.2q2.6-1.5 5.3-2a39 39 0 0 1 24.6 1.6q1.4.6 2.7.4h4.4a27 27 0 0 1 15.8-5.8c6-.2 12.6 1.2 16.7 5.8h3.5c1.2-.8 2.3-2 3.6-2.7q2.8-1.7 6.1-2.3" class="b"/><path d="M7.6 137.2c.8 0 2 0 2.7-.3q1.1-.8 2.6-1.3c3.8-1.3 8-.3 11.4 1.6q10 .2 20.3-.1a25 25 0 0 1 18.4-6.6q4.2.3 8 2 4.5 1.8 8.7 4c1.3.9 3 .7 4.4.7h11.5c2.3-.7 4.6-1.7 7-2.2 7.7-2.1 16-2.4 23.8-.8q2.7.5 5.2 1.7 1.3.7 2.7 1.3h4.4q1.5.1 2.6-.8c7.5-5 21.5-5.9 28.1.8 5.3 0 3.2.4 7-2.5a22 22 0 0 1 8-3" class="b"/><path d="M7.6 135h2.7a12 12 0 0 1 11.4-1.5l2.6 1.1c.4.3 1.3.6 1.8.5h17.6c5.7-5 13.5-8.1 21-6.9 4.7 1 9 3.2 13.3 4.9q3 1.3 6.1 2h5.3l4.4-1a78 78 0 0 1 25.5-3.3c5.5.4 11.3.9 15.8 4.2q3.7.2 7 0c3.5-2.3 7.6-3.2 11.5-3.4q5-.3 9.7 1.3a14 14 0 0 1 3.5 2c1.7.4 3.6 0 5.3.2 3.2-3.4 7.8-5 12.3-5.7" class="b"/><path d="M7.6 132.9h3.5c3-2.5 7-2.8 10.6-1.7 1.8.4 3.4 1.9 5.3 1.7h16.7a26 26 0 0 1 20.2-7c4.6.7 8.8 3.1 13.2 4.7 7 2.9 12.3 1.5 19.4 0a96 96 0 0 1 22.8-1.9c5.7.2 11.8.8 16.7 4 2.9.4 6 .1 8.8.2 4.7-2 10-2.4 15-1.3q1.8.4 3.5 1.2 3.5.1 7 .1c4-3.3 9-5.1 14-5.7" class="b"/><path d="M7.6 130.8H12q3.5-2.6 8-2 1.7.3 3.5 1c.7.2 1.7.8 2.6 1h17.6c5.8-4.8 13.4-8.2 21-6.7 4.7 1 8.8 3.6 13.3 5 7.2 2.3 14.7-.3 22-1q8.3-1 16.7-1c3.8 0 7.7-.1 11.4.5a26 26 0 0 1 8.8 3c2 .3 4.1 0 6.2.2h24.6c1 .1 2-.6 2.6-1.1q1.7-1 3.5-2 5-2 10.6-2.6" class="b"/><path d="m7.6 128 .9.5 4.4.1c1 0 1.8-.8 2.6-1q2.2-.8 4.4-.6 1.9.2 3.6.8c.8.3 1.7 1 2.6.8h18.5c5.4-4.8 13-7.8 20.2-6.3 4 1 7.5 3.4 11.4 4.7 6.8 2.6 14.1.3 21.1-.1q8.4-.6 16.7-.8c4.7-.1 9.5-.7 14.1-.3q5 .6 9.7 2.7 4.8.1 9.7.1h19.3c1.8-.7 3.5-2 5.3-2.6q6-2.3 12.3-2.7" class="b"/><path d="M7.6 125c.8.4 1.8 1.2 2.7 1.4h4.4q1 0 1.7-.5a10 10 0 0 1 6.2-.1c.8.2 1.8.7 2.6.6h20.3a23 23 0 0 1 19.3-5.7c4 1.1 7.5 3.8 11.4 5.1 2.2 1 4.7.6 7 .7 6.2.1 12.4-.8 18.5-.4 4.4.1 8.9.5 13.2 0 5-.7 10-2.2 15-1.6 3 .1 6 1.2 8.8 2h27.2q2.6-1.5 5.3-2.5 6.4-2.1 13.2-2.3" class="b"/><path d="M7.6 122.5c1.3.3 2.3 1.4 3.5 1.8 2.6-.1 5.4.2 8-.2 1.4-.3 3 .1 4.4.2h21.9c1 .2 2-.6 2.7-1.1q1.6-1.2 3.5-2.1c5.1-2.5 11.7-3.3 16.7-.2 2 1.1 4 2.6 6.2 3.4h48.3c1.5-.2 3-.9 4.4-1q5-.7 9.7.7 1.7.5 3.5.3h23.8c1.2.2 2.4-.5 3.5-1a38 38 0 0 1 16.7-3.1" class="b"/><path d="M7.6 120.2q2 .5 3.5 1.8c12.3.3 24.7 0 37 .1 6.4-4.9 15.4-6.5 22-.8 1.1 1.1 2.9.8 4.4.8h29c3-1.1 6.3-2 9.6-1.7q3.2.3 6.2 1.7h6.2c1.4 0 3 .2 4.4-.2 2.3-.4 4.7.1 7 .2h29c1.8-.3 3.5-1.5 5.3-1.9a38 38 0 0 1 13.2-1.3" class="b"/><path d="M7.6 118.2c1.6.2 3 1.3 4.4 1.8h37.8c4.3-2.9 10-4.4 15-2.7 1.6.5 3 1.8 4.4 2.7h29c3-1.4 6.3-2.9 9.7-3.2 3.8-.5 7.9 0 11.4 1.6q1.4.6 2.6 1.5 2.2.2 4.4 0h42.3l1.7-.7q1.7-.7 3.5-1c3.5-.9 7-.6 10.6-.4" class="b"/><path d="M7.6 116.5q1.9.3 3.5 1.2c2.3.3 4.8 0 7 .1h33.5c3-1.2 6.3-2.5 9.7-2.2q1.7.1 3.5.9c1.1.4 2.2 1.5 3.5 1.3H93l2.7-.1q2.5-1.6 5.3-2.6a25 25 0 0 1 16.7-.3q2.8 1 5.2 2.7c1.4.6 3 .2 4.4.3h20.3q1.2-.8 2.6-1.2c3.7-1 8-.8 11.4 1 1.4.4 3 .1 4.4.2h6.2c3.9-1.8 8.2-1.4 12.3-.9" class="b"/><path d="M7.6 115.3c3.8.6 7.7.3 11.5.4h35.1c2-.5 4.1-1.2 6.2-1q2.3 0 4.4 1h28.1q2.7-1.5 5.3-2.8a27 27 0 0 1 12.3-2.1q4.6.3 8.8 2.3c1.5.7 3 2 4.4 2.6q9.8 0 19.4-.1a18.6 18.6 0 0 1 23.7 0h17.6" class="b"/><path d="M7.6 113.5h83.6c.9-.1 1.8-1 2.6-1.4a26 26 0 0 1 29 1.4h16.7c1-.4 1.9-1.4 2.7-2q2.4-1.9 5.3-3c7.9-3.1 16.8-.9 22.8 5h14" class="b"/><path d="M7.6 111.4h82.7l1.8-1q2-1.2 4.4-2.2 6.8-2.7 14-1.6a25 25 0 0 1 8 2.7c1 .6 2.2 1.7 3.5 2h14.9c.6 0 1.4-.8 1.8-1.2 9.8-9.9 25-8.8 34.3 1.3h11.4" class="b"/><path d="M7.6 109.2h79.2c1 0 2.4.2 3.5-.3 4.4-2.9 9.7-4.5 15-4.5a25 25 0 0 1 13.1 4c.4.3 1.3.7 1.8.8h15c8.3-9.3 20.3-12.6 31.6-6.5q2.8 1.5 5.3 3.6c1.2.8 2 2.5 3.5 2.9h8.8" class="b"/><path d="M7.6 107h73.9c2.6 0 5.3.3 7.9-.1q6.5-4 14-4.1c5.1-.1 9.9 1.7 14.1 4.2h15.9c8.3-10.1 21.4-14 33.4-7.8q3.9 2 7 4.8c1.2 1 2.2 2.5 3.6 3h7" class="b"/><path d="M7.6 104.9h80c4.5-2 9.2-3.7 14.1-3.6q4.5 0 8.8 1.6c1.5.5 2.9 1.7 4.4 2h16.7c13.5-16 32.8-15.2 46.6-.2 2 .4 4.2.1 6.2.2" class="b"/><path d="M7.6 102.3c.8.6 1.8.4 2.7.4H85c1.5.1 3-.9 4.4-1.2a37 37 0 0 1 6.2-1.4q5.3-.7 10.5.7c1.8.4 3.5 1.6 5.3 2l18.5-.1c8-9.8 21-15.4 33.4-11 6.5 2 11.7 6.6 16.7 11h4.4" class="b"/><path d="m7.6 100 .9.6h75.6q1.8-.2 3.6-.7 2.5-.6 5.2-.8 4.5-.5 8.8.4c1.5.2 3 1.1 4.4 1h21.1c2-1.1 3.5-3.2 5.3-4.5q4.5-3.8 9.7-6 5.8-2.7 12.3-2.4c4.9-.2 9.7 1.4 14 3.6a50 50 0 0 1 8.8 6c1.5 1 2.8 2.8 4.4 3.4h2.7" class="b"/><path d="M7.6 98q.8.5 1.8.4h115.2c4.8-3.6 9.4-7.8 15-10.3 3.2-1.5 6.8-3 10.5-2.6h9.7q2.7.5 5.2 1.5a50 50 0 0 1 12.3 7.2L181 97l1.7 1.3c.4 0 1.4.2 1.8.1" class="b"/><path d="M7.6 96.1c3.8.4 7.7 0 11.5.2h102c1.3-.3 2.3-1.7 3.5-2.3 6.3-4.2 12.7-8.8 20.2-10.6h11.4q2.7-.1 5.3 0l3.5 1.1c7.2 2.6 13 7.8 19.4 11.8" class="b"/><path d="M7.6 94.1h86.2c1.5.1 3-.6 4.4-.8a24 24 0 0 1 11.4.8h8c1 .2 2-.5 2.6-1.2l2.6-2c6.6-3.6 13-7.7 20.3-9.6 4-.3 8.2 0 12.3-.1h6.1c8.6 2 15.5 7.8 22.9 12.1" class="b"/><path d="M7.6 92h82.7c3.2-1.7 7-2.5 10.5-2.5q5.2-.1 9.7 2.5h6.2c2.7-3.4 6.6-5.3 10.5-7q6-3 12.3-5.2c2.5-1 5.3-.8 8-.8h12.2c2.5-.2 4.9 1 7 1.8 6.4 2.5 11.7 6.8 17.7 9.9" class="b"/><path d="M7.6 89.8h79.2c.9.2 1.8-.6 2.6-1 6.6-3.1 15-3.5 21.1 1q2.2.2 4.4-.1c4.1-5.8 11.5-7.3 17.6-10 3.1-1 6.4-2.4 9.7-2.9h16.7c2.7 0 5.4 1.2 7.9 2 6.2 2.5 11.6 6.7 17.6 9.5" class="b"/><path d="M7.6 87.7H86c6.4-4.5 17.8-6.2 23.7-.2 1.1.3 2.4.1 3.6.2 4-6.2 11-7.7 17.5-9.9 3.8-1.2 7.6-2.5 11.5-3.1h14q3.2-.2 6.2 1a51 51 0 0 1 8 3c4.7 2.2 9 5.6 14 7.6" class="b"/><path d="M7.6 85.5h76.5c.5-.1 1.4-.6 1.8-1a22 22 0 0 1 19.3-2q1.5.6 2.7 1.6c.3.4 1.3 1.2 1.7 1.4h1.8c1.4-.8 2.2-2.6 3.5-3.6 4-3.5 9.2-4.7 14-6a93 93 0 0 1 14.2-3.2c2.9-.3 5.9 0 8.8-.2 7-.1 14 2.4 20.2 5.6 4.1 2 8 5 12.3 6.6" class="b"/><path d="M7.6 83.4h74.8c.9.1 1.9-.6 2.6-1 6.8-4.4 18.3-6.1 23.8 1h1.7c1.4-1.5 2.7-3.5 4.4-4.6 4-3.1 9.2-4.2 14-5.2 7-1.7 14-3 21.2-2.8q11.1.5 21.1 5.6 4 2.2 8 4.6c1.5 1 3.3 2.4 5.2 2.3" class="b"/><path d="M7.6 81.2h74.8q1.3-.6 2.6-1.6c5.7-3.3 13.2-4.7 19.4-1.9.8.4 2 1.2 2.6 1.9.5.8 1.6 1.9 2.6 1.6 1-.7 1.8-2.2 2.7-3q3.8-3.5 8.8-5c2.2-.8 4.7-1 7-1.5q5.2-1 10.6-1.7a56 56 0 0 1 25.5 2.4 49 49 0 0 1 14 7.8c.4.3 1.3.9 1.8 1h4.4" class="b"/><path d="M7.6 79h73.9c1 0 1.9-1 2.6-1.4 6.4-4.2 19.2-6.2 23.8 1.4h1.7c2-4 6.4-6.4 10.6-7.7 4.8-1.3 10-1.6 15-2.3 9.3-1 19-.7 28 2.5 4.5 1.6 9.1 3.8 12.4 7.4 2.8.4 5.9 0 8.8.2" class="b"/><path d="M7.6 76.9h73.9c4.3-3.2 9.5-5.3 15-5.3 4.2 0 9.2 1.3 11.4 5.3a3 3 0 0 0 1.7-.4c3.9-6.6 12.4-7.8 19.4-8.3q7.5-.7 15-.6c7.1.2 14.5 1.4 21 4.5q3.6 1.5 6.2 4.3c.7.6 1.8.5 2.6.5 1-.2 1.8-.9 2.7-1.1 2.5-.9 5.5-.6 7.9.6" class="b"/><path d="M7.6 74.7h73c1 0 1.9-1 2.7-1.4 4.6-3 10.3-4.5 15.8-3.8 3.4.4 7 1.8 8.8 5q.8.3 1.7.2c1.6-3 4.8-5 8-6.1 5.3-1.9 11-1.5 16.7-1.7 10.2 0 24.7.4 32.5 7.8q1.4.1 2.6-.1a9 9 0 0 1 2.7-1.6c4-1.5 8.5-1.3 12.3.7" class="b"/><path d="M7.6 72.6h73A27 27 0 0 1 96.4 67c4.6 0 9.8 1.5 12.3 5.6.5 0 1.4-.1 1.8-.4 5.2-7.5 15.8-6.2 23.8-6q7.9.1 15.8 1.8 5.8 1.1 10.5 4.6 1.8 0 3.6-.2 1.9-1.5 4.4-2.3a21 21 0 0 1 15.8 1.3" class="b"/><path d="M7.6 70.4h67.7q2.6.2 5.3-.1l1.8-1.3c5-3.4 11.5-5 17.6-4 3.7.5 7.6 2.1 9.6 5.4h1.8c4-5.3 11.5-5.5 17.6-5q6.6.4 13.2 1.6 5.6.9 10.5 3.4h6.2a27 27 0 0 1 25.5-.9" class="b"/><path d="M7.6 68.3h72.1c6.7-5 15.6-7.5 23.8-5q2.8.9 5.2 2.7c.9.6 1.7 1.8 2.7 2.3h1.7L115 67q2-1.4 4.4-1.8c3.5-.8 7.1-.4 10.6.1q5.8.8 11.4 2.5c2.2.9 4.7.4 7 .5h4.4q1.5.1 2.7-.4c8.4-3.8 21-5.2 29 .2" class="b"/><path d="M7.6 66.1H79q1-.2 1.7-1 2.1-1.5 4.4-2.5 5.8-2.8 12.3-2.7c5 .2 10.3 1.7 14 5 .4.4 1.3 1.1 1.9 1.2h3.5a17 17 0 0 1 11.4-.8l3.5.8h15c2.7 0 5.4.4 7.9-.8 7-2.2 14.7-3.4 22-1.8a24 24 0 0 1 6.1 2.5c.4 0 1.4.2 1.8.1" class="b"/><path d="M7.6 64h66c7.1 0 4 .1 9.7-3q4.9-2.8 10.5-3.3c6.8-.7 14 1 19.4 5.2 1 1.4 2.9 1 4.4 1h35.1q1.9-.3 3.6-.8a45 45 0 0 1 16.7-1.3q3.7.5 7 2 2.2.2 4.4.2" class="b"/><path d="M7.6 61.8h16.7q3-.7 6.2-.8 3 .2 6.2.8H78c11-9 26.6-8.6 37.8 0H158l5.3-.9q6.2-.9 12.3.8 4.4.1 8.8.1" class="b"/><path d="M7.6 59.7h13.2q5.1-2 10.6-2 3.1.3 6.1 1.1l2.7.9H77c12.7-9.6 26.7-8.7 39.6 0h67.7" class="b"/><path d="M7.6 57.5h10.6A26 26 0 0 1 36.6 55q3.2.8 6.2 2c1 .6 2.4.4 3.5.4H71c2-.1 4.3.3 6.2-.2q1.7-1.4 3.5-2.5a30 30 0 0 1 19.4-4q6 1 11.4 3.7 2.7 1.5 5.3 3h67.7" class="b"/><path d="M7.6 55.4h7c3.4-1.7 6.9-3.3 10.6-3.9 5.3-1 10.8-.4 15.8 1q3.6 1.3 7 2.8h28.2c12.4-9.6 27-8.9 39.6 0h68.6" class="b"/><path d="M7.6 53.2h3.5q1-.1 1.8-.7a39 39 0 0 1 15-4.7q9-.6 17.5 2.4c3 .9 5.9 2.2 8.8 3h19.4c1.1 0 2.5.2 3.5-.4q2-1.7 4.4-3 5-2.8 10.6-3.3c6.7-.8 13.5 1 19.3 4.5l3.5 2.2h25.5a35 35 0 0 1 10.6 0h33.4" class="b"/><path d="M7.6 51c1.3.2 2.4-1 3.5-1.5q3-1.5 6.2-2.8c13.2-4.8 25-1.4 37.8 2.5q4 1.2 8 1.8h14c9.2-8.9 24.1-8.4 34.3-1.4L113 51c1.7.3 3.6 0 5.3.1h15c1.1 0 2.4-.5 3.5-.7q5.7-1.1 11.4-.5c2 .2 4.2 1 6.2 1.2h29.8" class="b"/><path d="M7.6 48a32 32 0 0 1 9.7-4.6c8-2.6 16.5-2.7 24.6-1 8.8 1.6 17.4 4.5 26.4 5.4q1.8.3 3.5 1H78c8.7-9 24-7.7 33.4-.2q1.2.4 2.6.3h14.1c1.2 0 2.4-.6 3.5-1l4.4-1a37 37 0 0 1 17.6 1.3l1.8.7H173c2.6-.1 5.3.2 7.9-.2l3.5-1.5" class="b"/><path d="M7.6 44.3a47 47 0 0 1 26.4-6c10.1.6 19.9 3.7 29.9 5 2.6.5 5.4.4 8 1.5 1.1.4 2.2 1.5 3.4 2H79c1.4-1 2.7-2.7 4.3-3.5a23 23 0 0 1 18.5-1.2q3.3 1.1 6.2 3c1 .7 2.1 1.9 3.5 1.6h13.2a51 51 0 0 1 8.8-2.7 37 37 0 0 1 21 2c.8.3 1.9.9 2.7.7h18.5c3-.4 5.9-2.3 8.8-3.2" class="b"/><path d="M7.6 41c2.4-1.6 5.2-2.4 8-3.3q6.9-2 14-2.2c8.3-.2 16.5 1.5 24.6 2.9q5.2.9 10.6 1.6c4.5.3 9.2.8 12.3 4.6q1.7 0 3.5-.2c4.7-5.9 13.6-6.3 20.2-4a23 23 0 0 1 6.2 3.2c1 1.3 2.9 1 4.4 1h6.1q1.9.1 3.6-.2a57 57 0 0 1 16.7-4.2 34 34 0 0 1 19.3 4.4h9.7q3.1 0 6.2-.2c3.9-1 7.6-2.7 11.4-4.1" class="b"/><path d="M7.6 37.8A52 52 0 0 1 28.7 33c8.3-.2 16.5 1.2 24.7 2.3l11.4 1.5c5.1.3 10.9 1.1 14 5.7h2.7c4.6-5.2 12.2-5.9 18.5-3.6q2.2.8 4.4 2.2c.8.4 1.6 1.5 2.6 1.4h8.8c1.5.1 3-.7 4.4-1.1 4.3-1.4 8.6-3 13.2-3.7a32 32 0 0 1 23.7 4.8h13.2q4-1.1 8-2.5c2-.7 4-1.8 6-2.4" class="b"/><path d="M7.6 35C14 32 21 30.9 28 30.6c8.2-.3 16.4.9 24.6 1.7l13.2 1.5c5.9.1 11 1.8 15 6.5 1.5 0 2.4 0 3.4-1.4q2.7-2.2 6.2-2.7a19 19 0 0 1 13.2 3.3q.7.7 1.7.8h8.8l1.8-.7 7-2.2q3.1-1 6.2-1.9 7.4-2 15-1c4.7.8 9.4 2.5 13.1 5.4 1.3.7 3 .3 4.4.4h8c1.7-.2 3.5-1 5.2-1.5 3.3-1 6.5-2.7 9.7-3.8" class="b"/><path d="M7.6 32.3Q17 28.7 27 28.4c7.9-.2 15.8.8 23.7 1.3L64 30.8c2.3.3 4.8.2 7 .7 4.1 1 8.3 3 10.6 6.6L84 38c3.3-4.2 9.5-4.2 14.1-2.6q1.9.8 3.5 1.8 1.1 1 2.7 1l7.9-.1q3-1.4 6.1-2.1c5-1.3 9.8-3.5 15-4.2 8.5-1.2 18 .6 24.6 6.3q6 0 12.3 0 2.7-.5 5.3-1.6c3-1 5.8-2.7 8.8-3.8" class="b"/><path d="M7.6 30a56 56 0 0 1 18.5-3.5c7.6-.2 15.2.7 22.8 1q7.5 0 15 .7c2.3.3 4.8.2 7 .7a19 19 0 0 1 11.5 7c.8 0 1.9.2 2.6-.3q1.5-1.6 3.5-2.3c4.5-1.4 9.6-.2 13.2 2.7h8.8q3-1.2 6.2-2c4.1-1 8.2-2.7 12.3-4q6-1.6 12.3-1.1 6.5.6 12.3 3.6c1.9 1 3.5 2.5 5.3 3.5h14c4-1.4 7.6-3.6 11.5-5.3" class="b"/><path d="M7.6 27.8q9-3.1 18.5-3c6.4 0 12.9.8 19.3.7q9.3-.2 18.5.4 3.6.1 7 .7c4.5 1 9 3.2 11.5 7.2H85c2.7-3.3 7.6-3.5 11.4-2.3q2.5.8 4.4 2.2 1.3.2 2.7.1h7q3.9-1.5 8-2.6c4.7-1.3 9.1-3.6 14-4.4a32 32 0 0 1 26.4 7h16.7c3-1.2 5.7-3.4 8.8-4.7" class="b"/><path d="M7.6 25.9a51 51 0 0 1 15.9-2.6c4.6-.1 9.4.6 14 .9q6.2.3 12.3-.2 7.5-.7 15-.2c6.9 0 13.3 2.2 17.6 7.9q1.4.1 2.6-.4a8 8 0 0 1 2.7-1.8c4.3-1.7 9.4-.5 13.1 2.2h9.7q1.8-.5 3.5-1.1l6.2-2c3-.9 5.8-2.3 8.8-3.2a32 32 0 0 1 29.9 6.3h18.4c1.4.2 2.5-1 3.6-1.8q1.6-1.3 3.5-2.2" class="b"/><path d="M7.6 24.2q7.7-2.5 15.9-2.2c4 .2 8.2 1.1 12.3 1.7q5.3.8 10.5-.3A70 70 0 0 1 64.8 22c6.3 0 13.1 2 16.7 7.6q1.4 0 2.6-.2c3-3.5 8.3-3.5 12.3-2.2q1.9.6 3.6 1.6a4 4 0 0 0 1.7.8h10.6l2.6-.8q6.3-2 12.3-4.7a31 31 0 0 1 30 4.4c.6.6 1.6 1.3 2.6 1.1h21q1.7-1.5 3.6-2.8" class="b"/><path d="M7.6 22.7a32 32 0 0 1 23.8 1q1.8 1 3.5 2.3c.8 1.1 2.2 1.8 3.5 1 1.1-.4 2.4.5 3.5.3 6-5.9 14.8-7.5 22.9-7.1 6.7 0 11.5 1.9 15.8 7.1h1.8c.5-.2 1.4-1 1.7-1.4l2.7-1.5a17 17 0 0 1 15 2.9q4.3 0 8.7 0c2 0 4.3.4 6.2-.6 3.6-1.2 7-3 10.5-4.5q4.6-2 9.7-2.2c7-.4 14 1.9 19.3 6.2.4.4 1.3 1 1.8 1.1h24.6q1-.3 1.8-1.1" class="b"/><path d="M7.6 21.6c6-1.8 16.9-3.2 20.3 3.5h.8c2-5.3 9-7 14.1-5.3q2.6.9 4.4 2.9c.4.6 1.2 2 1.8 2.5 2.8-5.8 10-6.7 15.8-6.5 5.3 0 11.2 1.7 14 6.5h2.7c5-6.5 15.3-4.3 21.1 0h10.6c2-.1 4.3.4 6.1-.6 4-2 8-4.5 12.3-5.5a26 26 0 0 1 21.1 3.5c1.2.7 2.3 2 3.6 2.6h28.1" class="b"/><path d="M7.6 20.7a20 20 0 0 1 12.3-.3c1.4.4 2.5 1.7 3.6 2.6h.8c3.7-7.4 13.8-10 21.1-6.8q3.2 1.4 5.3 4.2c.3.7 1.2 2.1 1.8 2.6 2.8-4.4 6.4-5.4 11.4-5.6s10.3 1 13.2 5.5q1.4.2 2.6.1c6.1-7 17-5 23.8 0h14.9c.8 0 2 .1 2.7-.3 3.6-2.1 7.3-4.4 11.4-5.3 7.4-1.9 15.7.2 21.1 5.7h30.8" class="b"/><path d="M7.6 20.2c2.8-.8 6-1.3 8.8-.5.9.2 1.8 1 2.7 1.2h1.7c.7-.2 1.5-1.4 1.8-2q1.1-1.5 2.6-2.7c4.1-3.4 9.6-5.3 15-4.9 4.2.3 8.4 2 11.4 5l1.8 2.2c.2.7 1 2.1 1.7 2.4.7-.1 1.4-1 1.8-1.7q1.5-1.5 3.5-2.1c5-1.4 11.7-.9 15 3.8 1 0 2.4.2 3.5-.4a11 11 0 0 1 4.4-3.3c7-3 15-.4 21 3.7h18.5c3.4-2.5 7.3-4.5 11.5-5.1 5.5-1 12 .3 15.8 4.9q1.7.3 3.5.2c2.8-2.6 7-2.9 10.6-1.7 1.5.3 2.8 1.8 4.4 1.7q5.7.2 11.4-.2 2.2.2 4.4.2" class="b"/><path d="M7.6 18.7h11.5c9-13.5 29.3-15 37.8 0 .4 0 1.3 0 1.7-.2 2.2-3 6.3-3 9.7-2.6 2 .3 3.6 1.7 5.3 2.8H77c4.3-5.4 12.1-6.2 18.5-4.3q3.1 1 6.1 2.5c1.1.5 2.3 1.6 3.5 1.8H122c1.2 0 2.5.2 3.6-.3q2.4-1.6 5.2-2.7c5.2-1.8 12.3-1.7 15.9 3h2.6c3-4 8.6-5 13.2-4 3 .5 5.6 2.2 8 4h14" class="b"/></svg>