<svg xmlns="http://www.w3.org/2000/svg" id="a" width="1920" height="2400" viewBox="0 0 192 240"><defs><style>.b{fill:none;stroke:#fff;stroke-miterlimit:10;stroke-width:.3px}</style></defs><path d="M0 0h192v240H0z" style="stroke-width:0"/><path d="M7.7 226.5c1.2.5 2.4 1.6 3.5 2.3h5.3a33 33 0 0 1 24.6-13c10.3-.7 20 5 26.3 12.8 2.3.4 4.8 0 7 .2H86c8.4-6.1 19.5-4.5 29-2.4q4 .9 7.9.9c3.5-.3 7-1 10.5-1.1q5.5-.2 10.6 1.1l4.4 1.5h25.4q2.6-1.6 5.3-2.5 2.6-.7 5.3-1.3" class="b"/><path d="M7.7 223.5q2.5 1.2 4.4 3.1h4.4a33 33 0 0 1 20.2-12.8c3.4-.4 7 0 10.5-.2a37 37 0 0 1 21.1 12.6q1.2.6 2.7.4h14.9c1.5-.6 2.9-2 4.4-2.5q5.4-2.5 11.4-2.6c6.5-.1 12.9 1.9 19.3 2.7q3.5.2 7-.2 4.6-.2 8.8 0 3.7.3 7 1.3c1.8.4 3.5 1.5 5.3 1.3h24.6l1-.6q1.2-.8 2.6-1.4c2.2-1 4.7-1.4 7-2.1" class="b"/><path d="M7.7 220.7a17 17 0 0 1 5.3 3.8h3.5c1.5-1.5 2.7-3.6 4.4-5 4.4-4 10-6.8 15.8-8h7.9c1.7 0 3.6-.2 5.3.3A36 36 0 0 1 67.4 222c.8.7 1.7 1.9 2.7 2.4h10.5c2-.1 4.2.1 6.2-.2 5.9-5.3 14.4-6.2 22-5.2 5 .6 9.8 2.2 14.9 2.6 5.2.2 10.6 0 15.8.9q3.7.6 7 1.9h27.3c1.5-.4 2.9-1.6 4.4-2.1q3-1.2 6.1-2" class="b"/><path d="M7.7 218.2q2.4 1 4.4 2.7c1 1.4 1.8 1.5 3.5 1.4 1.3.2 2-.8 2.6-1.8a29 29 0 0 1 17.6-11c2.3-.4 4.7 0 7-.2h7q7.2 1.8 13.3 6.2 2.8 2.1 5.2 4.4c.8.7 1.6 2 2.7 2.4h15.8c5.9-6 15-7 22.8-5.8 4.2.5 8.2 1.7 12.3 2.6q3.5.6 7 .8 5.4.4 10.6 1.2 1.8.2 3.5.7 1.3.5 2.6.5h29.9q4.3-2.3 8.8-3.6" class="b"/><path d="M7.7 215.9q3.5 1.5 6.1 4.3h3.5c4-6.6 11.2-10.8 18.5-12.8 1.7-.4 3.6-.1 5.3-.2H49c7.1.3 17.6 7.3 22 12.8 2.5.3 5.3 0 7.9.2 2.6-.1 5.3.1 7.9-.2 5.7-6 14.8-7.4 22.8-6.1 5.4.7 10.5 2.8 15.8 3.8q5.2 1 10.6 1.8c2.3.2 4.7.8 7 .7h23.7c3.8-.2 7.7.2 11.5-.2q2.8-1.7 6.1-2.7" class="b"/><path d="M7.7 213.9a19 19 0 0 1 6.1 4.1h3.5c4.7-6.4 11.6-11 19.4-12.8 4-.3 8.2 0 12.3-.2q2.2 0 4.4.9 3.6 1.1 7 3a56 56 0 0 1 8 5.7c1.1 1 2.1 2.6 3.4 3.4H85c1 .2 2-.5 2.6-1.2a22 22 0 0 1 10.6-5.3c5.8-1.2 12-.3 17.6 1.4 5 1.5 9.9 3.5 14.9 5 2.6.3 5.3 0 8 .1h42.1q1.7-1 3.5-1.7" class="b"/><path d="M7.7 212q3 1.3 5.3 3.4c1.2.8 3 .3 4.4.4 1-.4 1.8-2 2.6-2.8q2-2.2 4.4-4 6-4.4 13.2-6c1.7-.3 3.5 0 5.2-.1 3.2.1 6.6-.4 9.7.6a42 42 0 0 1 19.3 12.4h14c11-11.3 26.3-7.8 38.8-1.3l2.6 1.3h12.3l44.8-.1" class="b"/><path d="M7.7 210.6c1.9.7 3.6 2 5.3 3h5.2c4.7-6.6 12.4-11 20.2-12.6q2.2-.5 4.4-.3H49a40 40 0 0 1 22.8 13h8.8c1.7-.1 3.6.2 5.3-.2 10-11.4 27.7-7.9 38.6.1 20 .3 39.9 0 59.8 0" class="b"/><path d="M7.7 209.4q1.9.9 3.5 2c2.3.3 4.7 0 7 .1 10.7-12.2 26.5-16.9 41.3-9.1A38 38 0 0 1 71 211c.3.2 1.1.6 1.7.4H85c9.5-11 26.2-8.8 37-.8q1 1 2.6.8h59.7" class="b"/><path d="M7.7 208.6c1.3 1 3 .8 4.4.8h7c6.6-8 16.9-13 27.2-12.5 9.5.6 18.3 5.6 24.7 12.5H84c10-10.8 24.9-9.3 36-1.2q.9.8 1.8 1.2h4.4l4.4-.1q2.2-.7 4.4-.6c1.7 0 3.5.6 5.3.7h43.9" class="b"/><path d="M7.7 207.2q6 .2 12.3-.1c14.5-15.9 35.6-15.5 50 .1h13.3c1.2-.8 2.3-2.2 3.5-3.1a22 22 0 0 1 7-3.6 29 29 0 0 1 26.4 6.7h8.8c1 0 2.3-.6 3.5-.8q2.6-.3 5.2 0l3.6.8h43" class="b"/><path d="M7.7 205h13.2c9-9 20.8-13.9 33.4-9.6q5.2 1.8 9.6 5.2c1.9 1.3 3.5 3.1 5.3 4.5h13.2c9.5-10.7 24.4-9.5 35.1-1.1.4.3 1.3 1 1.8 1h10.5l2.7-.5q3-.5 6.1 0c1.1.2 2.4.7 3.5.6h42.2" class="b"/><path d="M7.7 203h15c12.8-14 32-14 44.8 0 4.5-.2 9.5.2 14-.2 9.8-11.3 25.7-9 36 .1q9.8 0 19.4-.2c5.8.5 11.7.1 17.5.2h30" class="b"/><path d="M7.7 200.8h16.7c.6-.2 1.4-1 1.8-1.5q1.6-1.6 3.5-3.1a27 27 0 0 1 36 4.5h14c10.2-10.6 24.2-10 35.2-1a3 3 0 0 0 2.6 1h66.8" class="b"/><path d="M7.7 198.6H27c9.6-12 26.9-10.8 37 0H77c1 .2 2-.6 2.6-1.4q1.3-1.2 2.7-2.2a23 23 0 0 1 22.8-2.6q3.3 1.5 6.2 3.5c1.1.8 2.3 2 3.5 2.7h69.4" class="b"/><path d="M7.7 196.5h7c1.2-.2 2.4-1 3.5-1.4q2.7-.8 5.3-.4 2 .3 3.5 1.6 1.4.3 2.6.2C33.4 190 42 188 49 189.3q4.6 1.1 8.8 3.7c1.5 1 2.8 2.5 4.4 3.5h14c.6-.1 1.4-.9 1.8-1.3q1.6-1.6 3.5-3c10.3-7 23.2-4.4 31.6 4.3h57.1q2.2-.3 4.4-.4 1.7 0 3.5.4h6.2" class="b"/><path d="M7.7 194.3H12q2.5-1.5 5.3-2.6c4.2-1.5 10.1-1.6 13.1 2.3a4 4 0 0 0 1.8.3c2.1-3.7 6.4-5.7 10.5-6 6.1-.7 12.3 1.8 16.7 6h15c.6 0 1.3-.7 1.7-1.2q1.7-1.5 3.5-2.9c10-7.1 23.8-5.2 31.7 4.1h58q2.6-.6 5.2-.6 2.3 0 4.4.6h5.3" class="b"/><path d="M7.7 192.2h1.8c7.1-5.5 19-7.6 25.4 0h1c3.2-4.8 9.8-5 14.9-3.3q2.8 1 5.2 2.8c1 .7 2.4.4 3.5.5h12.3q1.6 0 2.7-1.2c10-9.6 26-10.2 35.1.9q1.4.4 2.7.3h57.1q2.6-1 5.3-1t5.2.9h4.4" class="b"/><path d="M7.7 189.5c3.2-2.7 7.4-4 11.4-5a24 24 0 0 1 21.1 5.5h2.6l1.8-.7q3.1-.5 6.2.7h17.5c4 .2 3.2-.2 6.2-2.5q2.8-2.2 6.1-3.6a24 24 0 0 1 25.5 3.5c.8.8 1.7 2 2.7 2.6h17.5c2.3-.6 4.7-1.3 7-1.2q2.3 0 4.4.6 1.4.4 2.7.6h28.1c1.7-.1 3.5-1 5.3-1q3.1-.4 6.1.6c1.3.7 3 .3 4.4.4" class="b"/><path d="M7.7 185.7c2.6-1.8 5.8-2.7 8.8-3.6a37 37 0 0 1 20.2.6c5 1.5 9.8 3.9 15 5.2h17.5q1-.2 1.8-1l2.6-2q3.6-2.4 8-4c8.7-3.1 19.6-.9 25.4 6.7 2 .6 4.2.2 6.2.3h10.5c5.7-4 13.3-3 19.3-.3 1.7.5 3.6.2 5.3.3h20.2c.8 0 1.8-.5 2.6-.7q1.7-.5 3.5-.7 2.8-.2 5.3.6c.5.1 1.4.5 1.8.8h2.6" class="b"/><path d="M7.7 182.4q2.9-1.6 6.1-2.4 5.6-1.7 11.5-2c7.1-.2 14.2 1.4 21 3.4q4 1.1 8 2.7c1.4.4 2.8 1.8 4.3 1.6h9.7c4.8-3.9 10.5-7 16.7-7.8a22 22 0 0 1 21.1 7.8H122c6.2-5.9 16-4.2 22.9-.6 1.5 1 3.5.5 5.2.6h19.4q2.1-1 4.4-1.4 3.1-.5 6.1.2l2.7 1.2h1.7" class="b"/><path d="M7.7 179.5a57 57 0 0 1 33.4-3 45 45 0 0 1 18.4 7h7c1.4 0 2.4-1.4 3.6-2q2.9-2 6.1-3.3c10-4.4 21.7-3 29 5.4h15c6.7-7.4 18.6-5.5 26.3-.7 1.2 1 3 .6 4.4.7h15c1.4-.1 3 .2 4.3-.3 3-1.3 6.5-2 9.7-1.2 1.5.2 3 1.5 4.4 1.5" class="b"/><path d="M7.7 176.9a65 65 0 0 1 34.3-3.4 35 35 0 0 1 18.4 7.9h6.2c11.1-9 27.2-10.9 37.8 0h14c.9-.5 1.8-1.6 2.6-2.2q2.1-1.7 4.4-2.4c7.4-2.5 15.6-.5 22 3.6 1.4 1.4 3.5 1 5.3 1h17.6q7-3.7 14 0" class="b"/><path d="M7.7 174.5q4.6-1.8 9.7-2.7a67 67 0 0 1 23.7-1.3c7.3 1 15 3.3 20.2 8.7h5.3a30 30 0 0 1 23.7-6.6 24 24 0 0 1 8.8 3.3c1.6.9 2.9 2.5 4.4 3.3q7 .2 14 0c8-9.3 22.8-7.2 31.7-.3 1.3.7 3 .2 4.4.3h7.9c3.2 0 6.5.3 9.6-.1q6.6-3.2 13.2-.3" class="b"/><path d="M7.7 172.5c3-1.4 6.5-2 9.7-2.8 8-2 16.4-3 24.6-1.8 7.4 1 14.9 3.7 20.2 9.2h4.4c7-5.6 16.8-7.8 25.4-5.5q3.9 1 7 3.1c1.2.7 2.3 2.1 3.6 2.4h13.2c1.3-.3 2.3-2 3.5-2.7q2.4-1.8 5.2-2.9c8.7-2.8 18.7-.3 25.5 5.5q10.1.1 20.2 0c1.6.3 3-.7 4.4-1.1 3.2-1.1 6.6-.6 9.7.6" class="b"/><path d="M7.7 170.6c2.8-1.2 5.9-1.7 8.8-2.5q7.4-2.1 15-2.9c8.6-.7 17.8.6 25.4 5q1.9 1 3.5 2.4c.8.7 1.7 1.9 2.7 2.3h4.3c4-3.3 9-5 14.1-5.5a26 26 0 0 1 19.3 5.5q7.5.1 15 0c8.8-9.8 24.9-8.5 34.2-.3q1.4.5 2.7.3H172q.9.2 1.8-.4c3.3-1.6 7-1.3 10.5-.2" class="b"/><path d="M7.7 169c2.5-1.2 5.3-1.6 7.9-2.4 4.9-1.4 9.9-2.8 15-3.4 10.5-1.3 22.3.4 30.7 7.4 1.8 1.6 1.7 2.4 4.4 2.2h2.6c.9-.4 1.9-1.2 2.7-1.6a27 27 0 0 1 28 1.6H115c1-.4 1.8-1.4 2.6-2q4-3.1 8.8-4.3a28 28 0 0 1 21.1 3.9c1.2.6 2.2 2 3.5 2.4h22.8c1.2-.1 2.4-.8 3.6-1 2.3-.6 4.7 0 7 .4" class="b"/><path d="M7.7 167.6q2.5-1.1 5.3-1.8 3.5-1 7-2.2a51 51 0 0 1 30.8-1q5.7 1.6 10.5 5.2c.8.7 2 1.6 2.6 2.4q1.3.7 2.7.4H70q6-3.8 13.2-3.8 5 0 9.6 1.7c1.5.5 3 1.5 4.4 2.1h15.8q1.5.2 2.7-.3 3.1-3 7-4.7c9-3.6 20.2-1.8 27.3 4.9 2.8.4 5.9 0 8.7.1h15l2.6-.1 2.7-.6q2.6-.1 5.2.4" class="b"/><path d="M7.7 166.5c2.2-1.3 4.7-1.7 7-2.6 4-1.4 8.2-3 12.3-3.9 11.5-3 24.4-1.5 34.3 5.2 1.5.9 2.8 2.5 4.4 3.3h6.1c1 0 1.9-.7 2.7-1q1.7-.8 3.5-1.2 6.1-1.3 12.3.5c1.5.4 3 1.3 4.4 1.7h21c3.2-2.5 6.6-4.8 10.6-5.7a26 26 0 0 1 23.7 5.7c3.8 0 7.7.2 11.5-.4q1.7 0 3.5.3h12.3c1 .1 2.4-.3 3.5-.2l3.5.3" class="b"/><path d="M7.7 165.5c2.1-1.3 4.7-1.8 7-2.8 4.3-1.7 8.7-3.5 13.2-4.6a43 43 0 0 1 38.7 8.2h8.8a23 23 0 0 1 13.1-.6c.8.2 1.8.7 2.7.6h24.6a3 3 0 0 0 1.7-.4 24.6 24.6 0 0 1 31.7.3q3.9.3 7.9 0 2.5-1 5.2-1 2.8.2 5.3 1.1h16.7" class="b"/><path d="M7.7 164.2q1 0 1.8-.5l2.6-1c5-2 9.8-4.5 15-6a45 45 0 0 1 40.4 7.5h49.2q1.4.1 2.6-.4 3.5-2.9 8-4c4.2-1.2 8.8-1.2 13 0q3 .6 5.4 2.2c1.2.6 2.2 2 3.5 2.2h6.1c1.7-.6 3.5-1.4 5.3-1.5 3-.3 6 .5 8.8 1.5h15" class="b"/><path d="M7.7 162h3.5q1.8-.5 3.5-1.4 4.3-2.2 8.8-4a45 45 0 0 1 38.7 2c7.2 3.8 3.8 3.5 12.3 3.4h22.8q3.5-1 7-1.1 3.7.1 7 1.1h9.8c7.4-5.6 19-6 26.3 0h7a18 18 0 0 1 13.2-.9q1.3.6 2.7 1h14" class="b"/><path d="M7.7 159.9h6.1c1.6-.4 3-1.5 4.4-2.1q3.5-1.8 7-3.3a43 43 0 0 1 36 1.6q3.7 1.7 7.1 3.8H93c.5 0 1.4-.2 1.8-.5a24 24 0 0 1 15-1q2.2.6 4.3 1.5h9.7q2.1-1.2 4.4-2.1c4.4-1.6 9.5-1.7 14 0 1.5.4 3 1.6 4.4 2h7c1.4-.4 3-1.2 4.4-1.5q3.6-.7 7 0c1.8.2 3.6 1 5.3 1.6h14" class="b"/><path d="M7.7 157.7h8.8q3.4-2 7-3.6c9-4.3 19.4-5.7 29-3.1a57 57 0 0 1 15 6.4q1.2.4 2.6.3h20.2q1.4-.2 2.6-1l3.6-1.1c6.4-1.5 13.4-.9 19.3 2.1h11.4a19 19 0 0 1 12.3-1.7q2.3.5 4.4 1.6 1.7.2 3.5.1h5.3c1.4-.3 2.9-1.2 4.4-1.4a20 20 0 0 1 11.4 1c.3.2 1.3.4 1.7.4h14.1" class="b"/><path d="M7.7 155.6h7c1.4-.1 3 .2 4.4-.3q2.6-1.6 5.3-2.8a41 41 0 0 1 42.2 2.8q1.2.4 2.6.3h19.3q3-1.6 6.2-2.5a32 32 0 0 1 22 2.4h14.9q2.2-.5 4.4-.6c1.7 0 3.5.5 5.2.7h10.6c1.1 0 2.4-.8 3.5-1a20 20 0 0 1 5.3-.7q4.1.2 7.9 1.7h15.8" class="b"/><path d="M7.7 153.4H20a3 3 0 0 0 1.8-.4c8.3-5 18.4-7.7 28-6a41 41 0 0 1 15.9 6.3c.4.1 1.3.2 1.7.1h19.4c2-.7 4-2 6.1-2.5a33 33 0 0 1 23.8 2.5h35.1a24 24 0 0 1 7-1.2c2.7-.2 5.4.7 8 1.2h17.5" class="b"/><path d="M7.7 151.3h15.8a37 37 0 0 1 38.7-1.4q1.2.8 2.6 1.4H85c1 .1 1.9-.6 2.7-1a27 27 0 0 1 4.4-1.7c6.9-2 14.4-1 21 1.7l2.7 1h35.1c2-.1 4.1-.9 6.2-.8q3 .1 6.1.8h21.1" class="b"/><path d="M7.7 149.1h16.7c1.4.2 2.4-.6 3.5-1.3a32 32 0 0 1 20.2-4c5.3.5 10.4 2.6 15 5.3H85q2.6-1.3 5.3-2.2 7-2 14-.5 2.7.5 5.3 1.5c1.1.4 2.3 1.2 3.5 1.2h71.2" class="b"/><path d="M7.7 147h20.2q1-.2 1.8-.8l3.5-1.9q6.8-2.8 14-2a33 33 0 0 1 13.2 4 3 3 0 0 0 1.8.7H85a25 25 0 0 1 15.8-2.4c2.8.3 5.4 1.6 8 2.4h75.5" class="b"/><path d="M7.7 144.5q5.2-1.2 10.5-.7c2.1.1 4.1 1.2 6.2 1h5.3q1.3.2 2.6-.3c4-2.8 9.2-3.7 14-3.5a31 31 0 0 1 12.4 3.2q.8.5 1.7.6H85c1.2-.1 2.4-.8 3.5-1a24 24 0 0 1 11.5-.1q1.6.7 3.5 1h2.6c26 0 52.2.3 78.2 0" class="b"/><path d="M7.7 141.2a32 32 0 0 1 20.2 1.4q4 .1 8 0c4.2-2.2 9.2-2.9 14-2.2q2.7.4 5.2 1.3 1.8.8 3.5 1h29q2.3-.4 4.4-.5c1.8 0 3.6.5 5.3.5h41.3q3.5-.7 7-.8 3.1 0 6.2.8H179q2.7-1 5.3-2" class="b"/><path d="M7.7 138.4A42 42 0 0 1 26 138q2.3.5 4.4 1.4c.8.3 1.8 1 2.7 1.1h8.7c2-.2 4.2-.8 6.2-.7q2.7 0 5.3.7h48.3c1.5.1 3-.8 4.4-1.1a24 24 0 0 1 12.3.2c1 .4 2.3 1 3.5 1h12.3q2.2-1 4.4-1.4 4.8-.8 9.7.1c1.4.2 3 .9 4.4 1.2h22.8c1.3 0 2.4-1.1 3.5-1.6q2.6-1.1 5.3-1.8" class="b"/><path d="M7.7 135.9c9.4-2.5 20-2.3 29 2q1.2.6 2.6.4h57.1c1.9.1 3.6-1.3 5.3-1.7a30 30 0 0 1 8-1.5c4.5-.3 9.2.8 13.1 3.2h8c.4 0 1.3-.2 1.7-.5l2.6-1.1a23 23 0 0 1 15 .4c1 .3 2.3 1.3 3.5 1.3h21c2.8-2.4 6.3-3.7 9.7-4.5" class="b"/><path d="M7.7 133.7a50 50 0 0 1 25.5-.8c3.3.7 6.5 2.1 9.6 3.3h45.7c1.7 0 3.6.2 5.3-.2q3.8-1.9 8-3c7.2-1.8 15.9-1.9 21.9 3.2h6.1a20 20 0 0 1 17.6-2.8l3.5 1.4c1 .6 2.2 1.6 3.5 1.4h19.4a21 21 0 0 1 10.5-5.2" class="b"/><path d="M7.7 131.8q4.2-1.6 8.8-2.2a53 53 0 0 1 29.9 4.2c2 .5 4.1.1 6.1.2h34.3c1.4 0 3.1.4 4.4-.4q3.8-1.8 7.9-3c8.4-2.5 18.5-2.7 25.5 3.4h3.5c.5 0 1.4-.7 1.7-1.1a15 15 0 0 1 3.5-2 21 21 0 0 1 20.2 3.2q10.2 0 20.2-.1c2.7-3.1 6.7-4.8 10.6-5.6" class="b"/><path d="M7.7 130a53 53 0 0 1 42.2 1.9h37.8q1.8-.6 3.5-1.5 3.8-1.6 7.9-2.7c8.4-2 19-2.7 25.5 4.2 1 0 2.5.2 3.5-.4a13 13 0 0 1 5.3-3.7c6.7-2.6 15-1.1 20.2 4.1h7q1.7-.6 3.5-.7t3.5.7h6.2c3.3-3.4 5.8-4.8 10.5-5.8" class="b"/><path d="M7.7 128.7c2.7-1.6 5.8-2.3 8.8-3a53 53 0 0 1 35.1 3.9q1.8.2 3.5.2h29c.8 0 2 0 2.7-.2a78 78 0 0 1 11.4-4.3c8.5-2.1 20.2-3 26.4 4.5h2.6c5.8-8.5 20.3-7.7 26.4 0h3.5c.8 0 2-.2 2.6-.8a10 10 0 0 1 10.5.7h4.4c2.3-3.2 6-5 9.7-5.6" class="b"/><path d="M7.7 127.6q4.1-2.5 8.8-3.7a50 50 0 0 1 36 3.4q1.3.5 2.7.3H85c1.5-.4 3-1.3 4.4-1.8q4-1.6 8-2.7a36 36 0 0 1 21 0q1.9.8 3.5 2c.9.6 1.8 1.8 2.7 2.5h1.7c1-.8 1.8-2 2.7-2.8q1.9-1.7 4.4-2.6c6.9-2.6 15.8-.9 20.2 5.4h3.5c3.3-3 8.2-4 12.3-2.1 3.4 1.8 1.6 2.2 6.1 2 2-3 5.3-4.6 8.8-5.3" class="b"/><path d="M7.7 125.4h1.8a46 46 0 0 1 40.4-1.7l3.5 1.5q1.3.3 2.6.2h29a79 79 0 0 1 9.7-3.8c7-2 14.8-3.1 22-1.1a14 14 0 0 1 6.1 3.4l.9 1.1.9.4h1.7c5.6-9.4 21.6-9.1 27.3 0h2.6c4.3-5.2 13.4-5.4 17.6 0h2.6c.9-.7 1.8-1.9 2.7-2.6q2.4-1.5 5.2-2.2" class="b"/><path d="M7.7 123.3h3.5q1.8-.8 3.5-1.7a43 43 0 0 1 36 .3q1.8.8 3.6 1.4H85l4.4-2q4.7-1.8 9.7-2.9c7.7-1.4 19.3-2.1 24.6 4.9h1.7c1.1-.6 1.8-2 2.7-2.9q1.9-1.7 4.4-2.9c7.2-3.1 17-1.3 21 5.8h1.8c1-.6 1.8-1.9 2.7-2.5 2.7-2 6.3-2.6 9.6-2q3 .4 5.3 2.2c.8.6 1.7 1.8 2.6 2.3.8 0 2 0 2.7-.3 1.4-2 3.8-3.2 6.1-3.8" class="b"/><path d="M7.7 121.1q3.1.2 6.1-.1 4.3-2.4 8.8-3.7a40 40 0 0 1 28.1 2.6l2.7 1.2h29.9q1.3 0 2.6-.2a78 78 0 0 1 8.8-3.3c6.2-1.7 13-2.5 19.3-1.4a16 16 0 0 1 8 3.6l.8 1 .9.3h1.8c.8-.8 1.7-2.2 2.6-3q2.7-2.4 6.2-3.5c7-2.2 15.4-.1 19.3 6.5l1.7-.1c2.7-4.9 9.1-6 14.1-4.6a15 15 0 0 1 7 4.7h2.7l1.7-1.4q1.7-1.1 3.5-1.6" class="b"/><path d="M7.7 119h7c1.3 0 2.4-1.1 3.5-1.5a36 36 0 0 1 26.4-1.6 52 52 0 0 1 6.1 2.3c1.3.9 3 .8 4.4.8H86c1.2-.2 2.4-1 3.5-1.4q3.5-1.2 7-2.2a43 43 0 0 1 17.6-.7q3.2.5 6.2 2.2c.8.6 1.7 1.6 2.6 2h2.6a18 18 0 0 1 22-5.6q2 .8 3.5 2.4c1 .9 1.7 2.4 2.6 3.2h1c.8-.8 1.6-2.2 2.6-3q3.4-2.5 7.9-2.6 7.4.1 12.3 5.7h3.5c1.1-.6 2.3-1.5 3.5-1.9" class="b"/><path d="M7.7 116.8h8.8c1.2 0 2.4-1 3.5-1.5a32 32 0 0 1 22.8-1.5q3.6 1.1 7 2.8c1.1.4 2.5.2 3.6.2h34.2a50 50 0 0 1 22.9-4q4.1.3 7.9 1.9c1.2.5 2.4 1.6 3.5 2.1h3.5a18 18 0 0 1 22-5.5q2.7 1.2 4.4 3.5c.3.6 1 1.8 1.7 2h1c2.8-6.1 11-6.8 16.6-4.6q2.3 1 4.4 2.6c1 .8 2 2.3 3.5 2 1.7-.1 3.7.3 5.3-.3" class="b"/><path d="M7.7 114.7h9.7c1.8.1 3.5-1.5 5.2-2a28 28 0 0 1 20.2-.2c1.8.5 3.5 1.6 5.3 2.2h41.3q3.8-1.6 8-2.5c7.1-1.3 16.4-1.7 22.8 2.4h5.2c1.4-.6 2.3-2.2 3.5-3q2.8-2 6.2-3c6.2-1.8 14.7-.3 17.6 6h.8c1.3-1 2.1-2.7 3.6-3.5a16 16 0 0 1 14.9-.5c8 4 2 4.3 12.3 4" class="b"/><path d="M7.7 112.5q6 0 12.3 0a24 24 0 0 1 24.6 0h46.6q3.4-1 7-1.7 7.5-1.3 15 .2c1.7.3 3.5 1.1 5.2 1.5h8a19 19 0 0 1 18.4-5.7q2.8.8 5.2 2.7c1 .8 1.8 2.2 2.7 3h.8c5-8.3 17.8-6 23.8 0h7" class="b"/><path d="M7.7 110.4h13.2c4.4-2.6 9.9-3.6 15-2.5 2.1.4 4 1.5 6 2.5 3-.1 6 .2 8.9-.4q2.6-.2 5.2.4h37.8q1.8-.2 3.5-.7a38 38 0 0 1 13.2 0q1.7.5 3.5.7h13.2c3.6-3.2 8.2-5.5 13.2-5.5 4.3 0 9.2 1.4 11.4 5.5h.9c.6-.3 1.4-1.2 1.7-1.7q1.2-1.2 2.7-1.9c6.4-3 14-.6 19.3 3.6h7.9" class="b"/><path d="M7.7 108.2h13.2c.8 0 1.8-.7 2.6-1q1.7-.8 3.5-1.1a18 18 0 0 1 8 .1q1.3.3 2.6 1c.7.4 1.7 1.2 2.6 1h3.5q1.8-.9 3.5-1.5 4.5-1.2 8.8.2c1.2.3 2.4 1 3.5 1.3H129c5.6-4.8 17-6.6 22 0h1.7c5-6.3 15.2-4.4 21-.4 1.4.7 3 .3 4.5.4h6.1" class="b"/><path d="M7.7 106h13.2c1.5-.2 2.9-1.2 4.4-1.5 4-1.2 8.8-1 12.3 1.6H41c5.8-4.6 14.2-4.1 20.2 0h70.3l1.7-1c4.9-2.2 11.6-2.9 15.8.9h2.7c3.7-3.4 9.4-3.6 14-2.3q1.9.5 3.6 1.4c.7.3 1.7 1 2.6 1h12.3" class="b"/><path d="M7.7 104H20q.9 0 1.8-.6l3.5-1.4c3.8-1 8.3-.7 11.4 2 1.1-.1 2.5.1 3.5-.4q1.9-1.8 4.4-2.8a19 19 0 0 1 17.6 2.7q.8.5 1.7.4h85.3c.9.2 1.8-.6 2.6-.9q2.5-1 5.3-1 3.1 0 6.1.7c1.2.3 2.4 1 3.5 1.2h17.6" class="b"/><path d="M7.7 101.8H19c.5 0 1.4-.5 1.8-.8q1.6-.8 3.5-1.5c4-1.2 9.1-1 12.3 2.2h2.6c2-2.7 5.5-4.2 8.8-4.7a20 20 0 0 1 15.8 4.7q25.5.2 51 0h25.5c3.2.2 6.4-1 9.6-1.2q3.7-.2 7 .5c1.2.2 2.4.9 3.6.8h23.7" class="b"/><path d="M7.7 99.6h10.5c4.2-3 10-4.6 15-2.8q1.4.7 2.6 1.6a3 3 0 0 0 3.5 1c4-5.7 12.3-6.3 18.5-4.2q2.8 1 5.2 2.7c1.8 1.4 2 1.9 4.4 1.7h63.3c1.8 0 3.5-1 5.3-1.2q4.3-1 8.8-1 3.5 0 7 .8c1.4.2 3 1.3 4.4 1.4h28.1" class="b"/><path d="M7.7 97.5h8.8c1.5-.6 2.9-1.8 4.4-2.4 4-1.8 9-2.3 13.2-.3l1.7 1.2c.6.8 1.6 1.7 2.6 1.5.6-.3 1.5-1.2 1.8-1.7q1.2-1.3 2.6-2.1c5.1-2.8 11.5-2.7 16.7-.4q2.3 1 4.4 2.5c.8.5 1.6 1.6 2.7 1.7h60.6c3.1-1.3 6.3-2.7 9.7-3.1 4.3-.7 9-.6 13.2.8 1.5.4 3 1.5 4.4 2.2q2.2.2 4.3 0l2.7-1q3-.6 6.1 0 2.3.3 4.4 1h10.6l1.7-1" class="b"/><path d="M7.7 95.3h7.9c1.2-.5 2.4-1.5 3.5-2 5.4-2.8 13.6-3.6 17.6 1.8l1.7.2c3.9-5.5 11.4-7 17.6-5.5 4 .8 7.4 3 10.5 5.5h27.3c5.2-.1 10.6.3 15.8-.2q2.2-.1 4.4.2h10.5c7.4-5.3 22.4-7.2 29 0h2.7c4.8-3.4 11.6-3 16.7-.2q1.7.4 3.5.2h4.4c1.1-.5 2.3-1.6 3.5-2.1" class="b"/><path d="M7.7 93.1H13q1.4.1 2.6-.3l3.5-2C24.8 88 32.3 88 36.7 93q1 .1 1.7-.3C40.7 89.2 45 87.6 49 87c6.4-.7 12.8 1.9 17.5 6h34.3q3.1.1 6.2-.4a19 19 0 0 1 7 .4h8c6.6-5.3 16.3-7 24.5-4.6a16 16 0 0 1 4.4 2.2c.9.6 1.8 1.8 2.6 2.4h1.8c3.5-3.8 9.4-3.8 14-2.5q2.5.8 4.4 2.3c2 .5 4.2.1 6.2.2 1.4-1 2.8-2.2 4.4-2.8" class="b"/><path d="M7.7 91h7c6-4.3 15.8-6.2 21.1 0h1.8c2.5-4.1 7.6-5.8 12.3-6 6-.3 12 2.2 16.7 6h31.7q3 .2 6-.4a16 16 0 0 1 8 .3h7c5.5-4.7 13-6.9 20.2-6.5 4.9.3 10.4 1.8 13.2 6.2a3 3 0 0 0 1.8.4c4.8-5.7 15-5 20.2 0 7.7.4 3.8-.9 9.6-3.3" class="b"/><path d="M7.7 88.8q3.5.2 7-.1A20 20 0 0 1 27 85.3q3.5.3 6.2 2.2c.3.5 1.2 1.1 1.7 1.3h1.8c2.3-3.4 6.5-5 10.5-5.6 6.6-.8 13.3 1.3 18.5 5.3 1.5.7 3.6.2 5.2.4h29q2.3-.5 4.4-.8 3.2-.2 6.2.7 3 .1 6.1 0c1.6-.8 2.9-2.4 4.4-3.2q5.4-3 11.5-4c7-.8 16.4.4 20.2 7.3q1.8.1 2.6-1.6 1.2-1 2.6-1.8c6-2.4 13-.9 17.6 3.4h3.5c.5-.3 1.4-1 1.8-1.5q1.6-1.3 3.5-2" class="b"/><path d="M7.7 86.7H13q1.4.1 2.6-.5c4.7-2.5 11-3.6 15.8-.6.7.6 1.7 1.3 2.7 1q1.6.3 2.6-1.3c4.2-3.7 10.4-4.7 15.8-4a30 30 0 0 1 13.2 5.4h32.5q1.8-.5 3.5-.7c2.3-.3 4.9-.3 7 .5q3.1.4 6.2 0c8.2-9.5 30.7-11.8 37.8.2h.9c4-6.3 13.4-6 19.3-2.5q1.5.9 2.6 2.1 1.4.6 2.7.4 1.6 0 2.6-1.3 1.6-1.3 3.5-2" class="b"/><path d="M7.7 84.5h7.9q2.6-1 5.3-1.6 3.1-.5 6.1.2 1.5.4 2.7 1.2 1.2.3 2.6.2.9 0 1.8-.2l1.7-1.6a18 18 0 0 1 3.5-1.9q7-2.5 14-1A30 30 0 0 1 64 84q.8.7 1.8.5h22.9q4 .2 7.9-.1a22 22 0 0 1 7.9-.8q1.8 0 3.5 1h2.6c.8 0 2 0 2.7-.4.6-.8 1.7-1.9 2.6-2.5q3.3-2.5 7-3.9c8-2.6 17.3-3 24.6 1.5q2.1 1.3 3.5 3.2l1 1.5.8.5.9-.3c4.3-7.4 17.9-5.7 22.8.2q1.8.2 3.5.1c1.4-1 2.8-2.2 4.4-2.7" class="b"/><path d="M7.7 82.4c4.7 0 9.4.2 14-.4q1.9 0 3.6.4h6.1c8.3-7 20.8-6.3 29.9-1.3l2.6 1.3h29q1.3-.2 2.7-.6l3.5-.7c2.6-.3 5.5-.2 7.9 1.2h4.4c5-6.3 13.3-8.8 21-9 7.3 0 16 2 19.4 9h.9c.8-.8 1.7-2.1 2.6-2.9a12 12 0 0 1 3.5-1.7 19 19 0 0 1 18.5 4.6q2.2.3 4.4-.2 1.1-1 2.6-1.4" class="b"/><path d="M7.7 80.2h20.2c.5 0 1.4-.5 1.8-.8a27 27 0 0 1 13.1-4 33 33 0 0 1 19.4 4.8h28.1c1.8.2 3.5-.8 5.3-1.1 3.7-1 8-1.1 11.4 1.1h3.5c6.7-9.2 20.4-11 30.7-7.9q4.7 1.4 8 4.7c.9.8 1.5 2.6 2.6 3.2h.9c3.5-6.7 13.2-6.3 19.3-4q2.3.8 4.4 2.2c.8.6 1.7 1.5 2.6 1.8h5.3" class="b"/><path d="M7.7 78h16.7c6-3 12.6-5.1 19.3-4.8a36 36 0 0 1 15 3.8c.7.4 1.7 1.1 2.6 1h28.1c.9.2 1.9-.4 2.6-.6l2.7-.9c4-1 9-1.4 12.3 1.6h2.6c1.4-.9 2.3-2.6 3.5-3.6a26 26 0 0 1 15.9-5.7c8-.4 17.7 1.7 22 9.3h.8c1.1-1.1 2.1-2.7 3.5-3.5 5.3-3 12-2.4 17.6-.5a45 45 0 0 1 7.9 4h3.5" class="b"/><path d="M7.7 76h7.9c1.7-.2 3.6.2 5.3-.3a44 44 0 0 1 23.7-4.5q5 .6 9.7 2.5c1.8.5 3.4 1.8 5.2 2.2H85q2.2.1 4.4-.1 1.7-.9 3.5-1.5c3.7-1.2 7.8-1.8 11.4-.4q1.6.5 2.7 1.7 1.2.4 2.6.3c1.3-1 2.2-2.7 3.5-3.7 4.6-4 10.8-5.6 16.7-5.5 7.5 0 16.5 2.1 20.2 9.2l1.8-.2c3.7-6 12.3-5.8 18.5-4.6 4.7 1 9 3.7 14 3.6" class="b"/><path d="M7.7 73.8h8.8c3-1 5.8-2.3 8.8-3.1 7-2.2 14.7-2.7 22-1 3.6.9 7 2.6 10.5 4h29.8c1 0 2-.7 2.7-1q2.1-1 4.4-1.7c4.4-1 10-1.1 13.2 2.7q1.2.1 2.6-.1c4-7 12.7-9.3 20.2-8.7 6.8.5 14.8 2.5 18.5 8.9h1.7c4.3-6 12.8-5.8 19.3-4.7 4.7.8 9.3 2.7 14.1 2" class="b"/><path d="M7.7 71.6h6.1c1.5-.2 3-1 4.4-1.5q3-1.2 6.2-2A42 42 0 0 1 56 71.4l2.7.1H84c1.5 0 3.3.3 4.4-.7 5.8-3.4 15.6-5.4 20.2.7h1.8c.6-.3 1.4-1.3 1.8-2l1.7-1.8c4-3.5 9.6-4.9 15-4.6 7.2.3 14.8 2.5 19.3 8.4h1.8c4.8-5.3 12.6-5.5 19.3-4.6 5 .7 10 2 15 1.1" class="b"/><path d="M7.7 69.5H13q3-1.3 6.1-2.5a42.3 42.3 0 0 1 36 2.5h31.7c6-4.6 17.7-7.2 22.8-.1 2 .3 2.6-.1 3.5-1.8 1.8-2.2 4.4-3.8 7-4.8 7.9-2.6 21.3-.2 26.4 6.7h2.7c1.4-1 2.7-2.4 4.4-3 4.6-2 10-1.9 14.9-1.4 5.2.5 10.6 1.5 15.8.3" class="b"/><path d="M7.7 67.3H13q4.1-2.3 8.8-3.6a43 43 0 0 1 32.5 3.6h31.6c.9-.3 1.8-1.1 2.6-1.6q2.5-1.5 5.3-2.3a18 18 0 0 1 14 1c1 .5 2 1.6 2.7 2.4q1.2.7 2.6.5c3.7-5.8 10.3-7.3 16.7-6.4q8.6.7 15 6.4h3.5c5.6-4.6 13.3-4.5 20.2-4q4.8.6 9.7.6 3-.2 6.1-.9" class="b"/><path d="M7.7 65.2H13q3.7-2.1 7.9-3.5A40 40 0 0 1 50.8 64c1 .4 2.2 1.3 3.5 1.2h26.3c1.7-.1 3.6.2 5.3-.2q2.8-2.4 6.1-3.6c6.7-2.6 15.6-2.4 20.3 3.8h2.6c4.5-7 14.2-6 21-3.5q1.9.7 3.6 1.7c.8.5 1.8 1.4 2.6 1.8h5.3a23 23 0 0 1 13.2-3.6c5.2-.2 10.5.6 15.8.5q4-.1 8-1.2" class="b"/><path d="M7.7 63h6.1c10.5-6.6 24-6.3 35.2-1.5l3.5 1.5H85a23 23 0 0 1 22.9-4.3q1.8.8 3.5 2c.8.6 1.6 1.9 2.6 2.3h2.6c1-.5 1.8-1.5 2.7-2q1.6-1 3.5-1.4c4.8-.7 9.8.4 14 2.6 1.5 1.2 3.6.7 5.3.8 1.4 0 3 .3 4.4-.3 8.4-4.3 18.2-2.2 27.3-2.2q5.3 0 10.5-1.6" class="b"/><path d="M7.7 60.9H13q1.4.1 2.6-.5a31 31 0 0 1 13.2-4.2 43 43 0 0 1 22.8 4.6h32.6c8.2-7.2 23-8.8 30.7-.1 1.7.3 3.6 0 5.3.2 3.9-2.9 9-1.2 13.2 0h11.4q5.5-2.2 11.4-2.4c9.8-.3 18.5 2.1 28.1-1.4" class="b"/><path d="M7.7 58.7h7.9c1.5-.3 3-1.5 4.4-2a30 30 0 0 1 7-2A39 39 0 0 1 43.7 56c2.7.7 5.3 2 8 2.7h29.8c1.8.3 3-1.5 4.4-2.2q2.9-1.8 6.1-2.9a24 24 0 0 1 24.6 5.1H143c1.5.1 3-.6 4.4-.9q4-.7 7.9-.8c10.3 0 18.9 2.6 29-1.5" class="b"/><path d="M7.7 56.6h8.8c1.6.1 3-1.1 4.4-1.7q3-1.2 6.1-1.8 6.1-1 12.3.1 6 1.2 11.4 3.3h26.4c1.4 0 3 .3 4.4-.2 6-4.5 13.6-7 21-6.4q6.8.6 12.4 4.2c1.1.7 2.2 2 3.5 2.4h25.5q2.2 0 4.4-.5 3.4-.4 7-.3 6 .2 12.3.8h7.9c3-.3 6-1.4 8.8-2.4" class="b"/><path d="M7.7 54.4H19c.9 0 1.9-.7 2.6-1q2.7-1.2 5.3-1.8 5.7-1 11.4-.3 6.3.9 12.3 3l6.2.1h19.3q2 .2 3.5-.7c12.8-8 27.4-9.2 39.6.7h60.6q2.3-.7 4.4-1.7" class="b"/><path d="M7.7 52.2h14q5.4-2.6 11.5-3 6.7-.2 13.2 1.6 3 .8 6.1 1.5h22l3.5-1.5c14.6-7.4 28.5-9.1 42.2 1.5h62.3l1.8-.8" class="b"/><path d="M7.7 50h15.8a27 27 0 0 1 8-2.3q6.5-.8 13.1.5c3.2.5 6.4 1.6 9.7 1.9q7.9.2 15.8-.1c5.1-1.2 10-3.6 15-5.3 7-2.4 14.7-3.3 21.9-1.5a34 34 0 0 1 12.3 6c.6.7 1.8 1 2.7.9h62.3" class="b"/><path d="M7.7 48h16.7c1.2-.2 2.4-.9 3.5-1.2q3-.9 6.2-1a47 47 0 0 1 12.2.8c3 .5 5.9 1.4 8.8 1.3q5.8.2 11.5 0 3.5-.7 7-1.9c6.3-2.1 12.6-4.9 19.3-5.7 9.6-1.4 20 1 27.3 7.6h64.1" class="b"/><path d="M7.7 45.8h17.6c1.1 0 2.4-.7 3.5-.9q3-.8 6.1-1 5.3-.2 10.6.8l5.2 1h14.1c7.6-1 14.5-4.7 22-6.5a39 39 0 0 1 21-.1 32 32 0 0 1 11.5 6.3q1.2.6 2.6.4h62.4" class="b"/><path d="M7.7 43.6H27q4.3-1.2 8.8-1.4c3.9-.1 7.7.7 11.4 1.4h18.5q3.6-.6 7-2C79 39.4 85.4 36.8 92 36a33 33 0 0 1 27.3 7.7h10.5q3.5-.2 7-.1c5.9.3 11.8 0 17.6.1h29.9" class="b"/><path d="M7.7 41.5h21a27 27 0 0 1 11.5-.6q1.8.5 3.5.6h23.7q2.7-.8 5.3-1.8c6.8-2.6 13.8-5.3 21-6 8.8-.8 18.4 1.3 24.7 7.8h8.8q5.6-1.3 11.4-.6 4 .1 8 .6h37.7" class="b"/><path d="M7.7 39.3h20.2c2.3.2 4.7-.3 7-.3 6.2.5 12.3.3 18.5.3h15c.8.2 1.8-.3 2.6-.6l3.5-1.5q5.5-2.2 11.4-4a38 38 0 0 1 21-.2c4 1.1 7.8 3.1 10.6 6 1 .5 2.4.3 3.5.3h4.4c1.2 0 2.4-.6 3.5-.7q3.1-.4 6.2-.3c5 0 10 .7 15 1h34.2" class="b"/><path d="M7.7 37.2h61.5c2.2.3 4.2-1.2 6.2-1.9 13.9-6.1 29.8-9.3 42.1 1.9h5.3q1.8.1 3.5-.3c4-1 8.2-.7 12.3-.6s8.2.7 12.3.9h33.4" class="b"/><path d="M7.7 35h65q1.8-.6 3.5-1.5c5.9-2.5 12-4.8 18.5-5.4 7.7-.7 16.3 1.1 22 6.8 2.8.3 5.8 0 8.7.1q4-.7 8-.7c7.3 0 14.6.9 22 .7h14q2.6-.8 5.2-1 2.8 0 5.3 1h4.4" class="b"/><path d="M7.7 32.2c4.3-1.4 6.5-.9 10.5.7h29q1.8-.5 3.5-.7 3.6-.3 7 .7H63c4.1-.1 8.3.2 12.3-.2q3-1.5 6.2-2.7c11.5-5 25.3-6 35.1 2.9q8 0 15.9-.2 11 .3 22 .2h7.8c1.8 0 3.8.2 5.3-.8 3.5-1.5 7.7-2.2 11.4-1.1.8.2 2 .7 2.7 1.1.6.6 1.8.9 2.6.8" class="b"/><path d="M7.7 28.4c5.3-1.2 7.8 0 12.3 2.3h25.5a18 18 0 0 1 10.5-.8c1.4.3 2.9 1 4.4.8h15q1.8.2 3.5-.7l4.3-2a46 46 0 0 1 11.5-3.2c5.6-.8 11.6-.1 16.7 2.5q1.8 1 3.5 2.3c.6.6 1.7 1.3 2.6 1.1h45.7c1 0 1.9-.8 2.7-1.2 6-3 12.8-3.3 18.4.9" class="b"/><path d="M7.7 25q5-1 9.7 1.4c1.4.6 2.7 2.4 4.4 2.2h21.9c3.5-1.7 7.6-2 11.4-1.3 1.5.2 3 1 4.4 1.3h17.6q1.8.1 3.5-.2 3.5-1.9 7-3.3c6.1-2.3 13-3.2 19.4-1.4q5 1.5 8.8 4.6c1.3.4 3 .2 4.4.3h42.1c6.6-4.7 15.2-6.2 22-1.2" class="b"/><path d="M7.7 22c3.6-.5 7.4.3 10.5 2.3 1.5.7 2.6 2.4 4.4 2.1h13.2c2.3 0 4.8.3 7-.2a19 19 0 0 1 15-.3q1.6.7 3.5.5h21.9l1.8-1c9.4-5.5 22.1-6.4 30.8.9 4.3.3 8.8 0 13.1.1h29q1.8.1 3.5-.1l1.8-1.2c6.6-4 14.5-5.1 21.1-.4" class="b"/><path d="M7.7 19.3c3.7-.4 7.5.6 10.5 2.6 1.2.7 2.2 2 3.5 2.4h17.6c.8 0 2 0 2.7-.4 4-2 8.8-2.2 13.1-1l3.5 1.4H86c9-6.3 21-7.2 29.9-.1q22.3.2 44.8 0a23 23 0 0 1 16.7-5c2.5.4 4.9 1.8 7 3.1" class="b"/><path d="M7.7 17a17 17 0 0 1 13.2 5c6 .3 12.3 0 18.4.1 1.2.1 2.4-1 3.5-1.2a18 18 0 0 1 12.3.1c1.1.4 2.3 1.3 3.5 1.1h30a22 22 0 0 1 27.2 0H157c1 0 2.4.2 3.5-.3l1.7-1.2c7-4.2 15.1-5.5 22-.3" class="b"/><path d="M7.7 14.8q5.2-.3 9.7 2.7c1.1.7 2.2 2 3.5 2.4h17.6c1.1-.2 2.3-1 3.5-1.3a18 18 0 0 1 12.3.2l2.6 1.2h33.4c7-6.2 18.3-6 25.5 0h43.9c1-.2 1.9-1 2.7-1.5 7-4.3 15-5.4 22 0" class="b"/><path d="M7.7 12.9q4.7-.2 8.8 2.5c1.2.7 2.2 2 3.5 2.4h17.6q1.6-1 3.5-1.6c3-1 6.5-1.2 9.6-.4 1.9.3 3.6 1.3 5.3 2h19.4c1.5.2 3-.7 4.3-1a11 11 0 0 1 7 .7c.8.4 2 .3 2.7.3h2.7c6.2-6.4 17.1-5.4 23.7 0h44.8c5-3.6 11.5-5.9 17.6-4.2 2.3.6 4.3 2 6.1 3.4" class="b"/><path d="M7.7 11.3c4-.1 7.7 1.7 10.5 4.3H35q1 .2 1.8-.4 1.2-.8 2.6-1.2a18 18 0 0 1 15.8 1.6h17.6q2 .3 3.5-.8c4.1-2 9.5-2.2 13.2.8h3.5c5.9-6.3 16.6-5.3 22.9 0h42.1c1.1 0 2.5.2 3.6-.2l1.7-1c4.7-2.6 10.7-4 15.8-2 2 .7 3.5 2.4 5.3 3.2" class="b"/></svg>