<svg xmlns="http://www.w3.org/2000/svg" id="a" width="1920" height="2400" viewBox="0 0 192 240"><defs><style>.b{fill:none;stroke:#fff;stroke-miterlimit:10;stroke-width:.3px}</style></defs><path d="M0 0h192v240H0z" style="stroke-width:0"/><path d="M7.3 230.5H10c9.4-9.7 26.8-7.5 37 0h60q1.4-.4 2.7-1.2 2.5-1.2 5.3-1.9 6.1-1.5 12.3 0a42 42 0 0 1 8 3.1h49.4" class="b"/><path d="M7.3 228.4c.5 0 1.4 0 1.8-.2 7.1-6.6 18.4-6.9 27.4-4.4q5 1.5 9.7 4.2c1.6.6 3.5.2 5.2.3h54.7q1.8-.9 3.6-1.9 4.2-2 8.8-2.7a33 33 0 0 1 21.2 4.5q2.6.3 5.3.2h39.7" class="b"/><path d="M7.3 226c8.4-5.9 19.6-6.3 29.2-3.4q4.1 1.3 7.9 3.4c1.4.4 3 .1 4.4.2h54.7q1.4 0 2.7-.2a34 34 0 0 1 6.1-3.3c6.4-2.5 13.7-3 20.3-1.1q5.6 1.5 10.6 4.4c2 .4 4.2.1 6.2.2h35.3" class="b"/><path d="M7.3 222.6c2.4-.6 4.7-1.7 7.1-2.2a40 40 0 0 1 23.8 2.4c1.1.4 2.3 1.4 3.5 1.2h63.6q1-.1 1.7-.8 1.7-1 3.6-2 5-2.4 10.6-3.2a36 36 0 0 1 24.7 5.8c2.2.5 4.7.1 7 .2h31.8" class="b"/><path d="M7.3 219.8c2.7-.3 5.3-1.2 8-1.4q8.1-.6 15.9 2.1c1 .4 2.3 1.2 3.5 1.4h71.5c5.9-4.2 13-6.4 20.2-6.9 6.8-.1 13.6 2 19.4 5.4.8.5 1.8 1.3 2.7 1.5h36.2" class="b"/><path d="M7.3 217.3c1.8.1 3.6-.3 5.3-.4a29 29 0 0 1 8 .5q3.2.7 6.1 2.3h9.8q3.8-1 7.9-1.1 4.6-.2 8.8.5c1.7.2 3.5.7 5.3.6H107c5-3.5 10.9-5.5 16.8-6.6 9-1.7 18.3 1.5 25.6 6.6h35.3" class="b"/><path d="M7.3 215.2c3 .4 6-.2 8.9.5a22 22 0 0 1 5.3 1.8h5.2c1.3.2 2.5-.6 3.6-1q3-1.2 6.1-1.6 7.1-1 14.2 0 5.8.9 11.4 2.6h45c1.3.3 2.5-.7 3.6-1.3l3.5-1.8a41 41 0 0 1 16.8-4c5.8.4 11.7 2.2 16.7 5.4.8.5 1.8 1.4 2.7 1.7h34.4" class="b"/><path d="M7.3 213.4c2.3.6 4.8.3 7.1.9q1.4.3 2.6 1 3.1.2 6.2 0c1.3 0 2.4-1 3.6-1.5a47.9 47.9 0 0 1 20.3-2.7q6.8.7 13.2 2.8 2.2.9 4.4 1.5H107q1.8 0 3.6-.2l3.5-2q4.3-2 8.8-3.3c9-3.2 20.1-.6 27.4 5.4h34.4" class="b"/><path d="M7.3 212c2 .7 4.2.8 6.2 1.2h8q3.6-2.4 7.9-3.5a49 49 0 0 1 32.6 2.2c1.4.5 2.9 1.5 4.5 1.3H107q3.1.1 6.2 0 5-3 10.6-5c8.5-3.2 19.6-.9 26.5 5q17.2.2 34.4 0" class="b"/><path d="M7.3 211h8c1.7 0 3.6.3 5.3-.2q4.1-2.6 8.8-3.8a47 47 0 0 1 35.3 4h51.2c1.2-.2 2.4-1.1 3.5-1.6l6.2-3a27 27 0 0 1 24.7 4.6h34.4" class="b"/><path d="M7.3 208.9c4-.1 8.4.2 12.4-.1a44.9 44.9 0 0 1 41.5-1.3c1 .4 2.2 1.4 3.5 1.4h51.2c1.7 0 3.8.4 5.2-.8 2.5-1.5 5.1-3 8-3.6a26 26 0 0 1 20.3 4.1c1 .5 2.4.3 3.5.3h31.8" class="b"/><path d="M7.3 206.7h8c1.4 0 3 .2 4.4-.2q3.8-2 8-3.3a42 42 0 0 1 32.6 2.3q1.2.8 2.6 1.2h60c2.3-1.3 4.5-2.8 7-3.3a25 25 0 0 1 16.8 2c1.1.5 2.3 1.5 3.6 1.3h34.4" class="b"/><path d="M7.3 204.6h8c1.7-.1 3.6.2 5.3-.3q3.8-1.7 8-3a38 38 0 0 1 31.7 3.2h59c2.4 0 4.9.3 7.1-.1 3.2-2 7-2.7 10.6-2.6a25 25 0 0 1 9.7 2.2c.4.3 1.3.6 1.8.6h36.2" class="b"/><path d="M7.3 202.4h14.2c3-.8 5.8-2.3 8.8-3a38 38 0 0 1 15.9-1q3.6.5 7 2 2.3 1 4.4 2H130q3.8-1.3 8-1.3 3.5 0 7 1.1c1.4.4 3 .1 4.4.2h35.3" class="b"/><path d="M7.3 200.3H25c4.2-1.7 8.7-3 13.2-3.1q5.5-.3 10.6 1.2 2.3.9 4.4 1.8h131.4" class="b"/><path d="M7.3 198h23c1.1.2 2.4-.4 3.5-.5a28 28 0 0 1 9.7 0c1.1.2 2.4.7 3.6.6H182c.9-.2 2-1 2.7-1.4M7.3 196H70q1.7 0 3.5-.2 2.6-.7 5.3-.6 2.2 0 4.4.7h95.3q3-1.7 6.2-3.2" class="b"/><path d="M7.3 193.8c3.1-1.3 6.5-1.5 9.7-1.7 6.8-.4 13.6.7 20.3 1.3 10 .7 20 .3 30 .4 4.7-3.8 11.4-3.6 16.8-1.7l3.5 1.5c2.3.4 4.8 0 7 .2h76c1.7-.1 3.7.4 5.2-.7q4.3-2.3 8.9-4.1" class="b"/><path d="M7.3 189.5c3.4-1.3 7.1-1.3 10.6-1.5 8-.2 16 1 23.9 1.8q5.3.4 10.5 1.8h8.9q2 .3 3.5-1 2-1.6 4.4-2.7c6.7-2.6 14.4-.6 20.3 3q1.2.9 2.6.7h77.7c5-2 9.9-4.4 15-6" class="b"/><path d="M7.3 185.6c3.1-1 6.5-1 9.7-1.2q8 0 16 1c5 .8 10 1.4 15 2.8l3.5 1.3h7q1.6 0 2.7-1.3c9.3-8.2 21.6-6 30.8 1.2h69.7c7.9-1.6 15.3-5 23-7" class="b"/><path d="M7.3 182.2c9.8-2.5 23.7-.2 33.6 2q4.5.9 8.8 3h7c9.9-9.9 22.3-10 33.6-2.3l2.6 2q1.3.6 2.7.4H130c2.3-.2 4.7-.8 7-.8 5.9 0 11.8.3 17.7-.3 10.2-.9 20-4.4 30-6.9" class="b"/><path d="M7.3 179a72 72 0 0 1 40.6 6.1q3.1.2 6.2-.1c3.7-4.1 8.9-6.7 14.1-8.2 8.8-2 18 1.6 24.7 7.2 1 1.2 2.1 1.2 3.5 1.1h30c3.6-1.8 7.6-2.3 11.5-2.4 7.4-.3 14.8 0 22-1 8.4-1 16.6-3.3 24.8-5" class="b"/><path d="M7.3 176.3a64 64 0 0 1 38 6.4q1.2.4 2.6.3h3.6a32 32 0 0 1 16.7-9.4 31 31 0 0 1 26.5 9.3c9.4.3 18.8 0 28.2 0 1 .2 2-.4 2.7-.9l2.6-1.2q3.8-1.3 8-1.5c7.6-.7 15.3-.4 22.9-1.1 8.6-.7 17-2.5 25.6-4" class="b"/><path d="M7.3 173.8c8.8-2.5 29 1.3 36.2 7H47q1.5.2 2.7-.4 3.8-4 8.8-6.4c5.2-2.5 11-4.2 16.8-3.3q8.2 1.2 15 6c1.8 1.1 3.5 2.9 5.3 4.1h23.8l2.6-.1c.5-.3 1.3-1 1.8-1.2q2.1-1.2 4.4-2c4.6-1.3 9.4-1.6 14.1-1.9 7-.3 14.2-.3 21.2-1 7-.5 14.1-1.7 21.2-2.7" class="b"/><path d="M7.3 171.5a52 52 0 0 1 34.4 7.1H47c1.8-1.3 3.4-3.1 5.3-4.2q7.7-5 16.8-6.4c9.8-.8 19.6 3.9 26.5 10.6h22.9c1.3.2 2.4-1 3.5-1.5q2.6-1.4 5.3-2.2c5.2-1.6 10.6-2 15.9-2.3 7-.4 14.1-.4 21.2-.8q10-.7 20.3-2" class="b"/><path d="M7.3 169.6a39 39 0 0 1 18.6 1q5 1.3 9.7 3.5 1.8 1 3.5 2.2c1.7.3 3.6.1 5.3.2 1 .2 2-.6 2.6-1.4l2.7-2q4.5-3.2 9.7-5.1a33 33 0 0 1 12.3-2.4c9 .4 17.5 4.7 23.9 10.7 7 .4 14 0 21.1.2 1.3.1 2.5-1 3.6-1.5q2.9-1.6 6.1-2.5a73 73 0 0 1 16.8-2.7c7.3-.4 14.7-.3 22-.6q9.8-.3 19.5-1.2" class="b"/><path d="M7.3 167.9a39 39 0 0 1 22.1 2.5q2.7 1 5.3 2.4 1.3.9 2.6 1.5h7.1a43 43 0 0 1 18.5-9.7c11.7-3.3 24 1.8 32.7 9.7h21.1q4.5-2.9 9.7-4.3a82 82 0 0 1 17.7-2.7c13.5-.6 27 0 40.6-.8" class="b"/><path d="M7.3 166.5c7.1-1.8 14.6 0 21.2 2.7q2.8 1 5.3 2.7c1 .4 2.4.2 3.5.3 2-.1 4.2.2 6.2-.2l1.8-1.4q9.2-6.6 20.3-8.6a35 35 0 0 1 23.8 5.9l3.5 2.4c.8.6 1.7 1.6 2.7 1.9h15c2-.1 4.1.1 6.1-.2q4.5-2.9 9.7-4a88 88 0 0 1 18.6-3c13.2-.6 26.4.6 39.7.2" class="b"/><path d="M7.3 165.4c8.1-2.2 16.8.6 23.9 4.6h11.4a58 58 0 0 1 15-7.8c6.2-2.2 13-3 19.4-1.2a44 44 0 0 1 16.8 8.6c1.3.7 3 .3 4.4.4H115q1.4 0 2.6-.3 1.7-1 3.6-2 3.4-1.4 7-2c18.5-5.1 37.7-1.8 56.5-1.5" class="b"/><path d="M7.3 164.6c4.4-1.3 9-.9 13.3.4q3.1 1 6.1 2.5c1.1.5 2.5.3 3.6.3h5.3c9.5 0 5.2.8 13.2-3.4 5.8-3 12-5.3 18.5-5.8a37 37 0 0 1 24.7 8.9q.9.4 1.8.3h23.8c.5 0 1.4-.3 1.8-.6q1.6-1 3.5-1.6 4-1.2 8-2.1a80 80 0 0 1 17.6-2.4c12-.2 24.1 1.6 36.2 2.5" class="b"/><path d="M7.3 164.3c3.7-1.4 7.8-1.1 11.5 0q1.9.5 3.5 1.3h15c2.4 0 4.8.3 7.1 0q4.3-2.7 8.8-4.6c5.3-2.3 11-4 16.8-3.6a33 33 0 0 1 19.4 7.8c1 .7 2.4.4 3.5.5h27.4c2.4-1.4 5.2-2 8-2.7q6.9-2 14-3c14.2-1.4 28.4 1.3 42.4 3.4" class="b"/><path d="M7.3 163.5h38.9c1.2 0 2.4-1.1 3.5-1.6 5.7-3.1 12-5.5 18.5-5.5 6.8 0 13.6 2.4 18.5 7.1h34.5c2.4.2 4.7-.5 7-1.2q4-1.4 8-2.3a91 91 0 0 1 37.9 1.2l7 1.6c1.2.2 2.5.8 3.6.7" class="b"/><path d="M7.3 161.4H48c1.6 0 3.2.1 4.4-1a30 30 0 0 1 16-4.8c5.3.1 11 1.8 15 5.7 1.6 0 3.5.3 5.2-.2q3.8-2 8-1.3 1.7.3 3.5 1c.7.2 1.8.7 2.6.5h24.7q1.8.2 3.6-.2 8.5-3.1 17.6-3.4a90 90 0 0 1 26.5 3.6h9.7" class="b"/><path d="M7.3 159.2h44.2c1.7 0 3.8.4 5.2-1 6.9-4.2 16.7-4.5 23 1H84c.5-.1 1.4-.7 1.8-1q1.2-.8 2.6-1.4 6.2-1.8 12.4.3 2.2.9 4.4 2H136q2.3-.3 4.4-1a49 49 0 0 1 11.5-.9q4.8.2 9.7 1c1.7.3 3.6 1 5.3 1h17.6" class="b"/><path d="M7.3 157h24.8q1.7.2 3.5-.2c4.1-1.6 8.9-2.2 13.2-1 1.2.2 2.4 1 3.5 1.2H56q2.2.2 4.4-.2a15.7 15.7 0 0 1 15.9.2q3 .2 6.1-.1c6.7-6.2 17.4-5.1 24.7-.8.8.4 1.8 1.1 2.7 1h75" class="b"/><path d="M7.3 154.9h23q1.4 0 2.6-.8 2.2-.9 4.4-1.5a23 23 0 0 1 18.6 2.3q6 .1 12.3-.3 6.2.4 12.4.3c7.7-7.6 20.3-6.7 29-1.5l2.7 1.5h72.4" class="b"/><path d="M7.3 152.7h21.2c1.2-.2 2.4-1 3.5-1.5q3-1.4 6.2-2 6.1-1.4 12.4 0 2.7.6 5.3 2c1 .6 2.2 1.7 3.5 1.5 6.7-.1 13.6.2 20.3-.1 8.7-8.5 22.7-7.6 32.6-1.9l3.6 2h68.8" class="b"/><path d="M7.3 150.5h20.3q5-2.9 10.6-4 6.8-1.5 13.2.2 4.5 1.1 8 3.7c2.3.3 4.7 0 7 .1h12.4c11.7-10.3 26-8.2 38.8-1.1q1.3.8 2.7 1.1h64.4" class="b"/><path d="M7.3 148.4h19.5q5-2.9 10.5-4 6.7-1.5 13.3-.2 4.7 1 8.8 3.8a3 3 0 0 0 1.8.4h11.5c7.2 0 4 .7 9.6-3.3 6.2-4 14-5.4 21.2-4.2a52 52 0 0 1 12.3 3.9c3.2 1.3 6.4 3 9.7 3.6h59.2" class="b"/><path d="M7.3 146.2H26c10.5-5.1 23.3-6.8 33.5 0H77q12.2-10.8 28.3-7.9c5.8 1 11.2 3.6 16.7 5.5q2.7.8 5.3 1.5c1.1.2 2.4.8 3.5 1h53.9" class="b"/><path d="M7.3 144H25c1.5 0 3-1 4.4-1.4q3.5-1.3 7-1.9a34 34 0 0 1 18.6 2c1.1.3 2.3 1.5 3.5 1.4q8.9 0 17.6-.1a33 33 0 0 1 29.2-8.5c6.4 1 12.3 4 18.5 5.8 3.3.6 6.5 1.8 9.7 2.7h51.2" class="b"/><path d="M7.3 141.9H25c1.5-.1 3-.9 4.4-1.2q3-1 6.2-1.4 5.7-1 11.4 0 4.2.6 8 2.6h19.4a35 35 0 0 1 31.7-9c6.1 1.2 11.8 4 17.7 5.7q3.6.8 7 1.9c1.5.4 3 1.2 4.5 1.4h49.4" class="b"/><path d="M7.3 139.7H26c3.5-.6 7-1.6 10.6-1.9q4.9-.5 9.7.5 2.6.6 5.2 1.4h21.2c.6 0 1.4-.7 1.8-1.1q1.6-1.6 3.5-2.8a36 36 0 0 1 31.8-4.5c4.5 1.3 8.8 3.2 13.2 4.7q4 1 8 2.1c1.7.5 3.5 1.4 5.2 1.6h48.6" class="b"/><path d="M7.3 137.6h20.3c2.6-.1 5.3-.8 8-.8q4.5-.2 8.8.7 2.7.2 5.3 0h15c2.3 0 4.8.4 7-.1a42 42 0 0 1 13.3-8.2c7.9-3 16.7-2.8 24.7-.3 4.5 1.3 8.8 3.4 13.2 4.9q4 1 8 2.3c1.7.4 3.5 1.3 5.2 1.5h48.6" class="b"/><path d="M7.3 135.4H48q11.1.2 22-.1c9.1-8.6 22.2-12.7 34.5-10 6.8 1.2 13 4.5 19.4 6.9q5.3 1.5 10.6 3.2h50.3" class="b"/><path d="m7.3 133.3 61-.1a41 41 0 0 1 35.2-10.4c6.9 1.3 13 4.6 19.4 7.3l9.7 3.2h52" class="b"/><path d="M7.3 131h59.2a43 43 0 0 1 37-10.4c6.6 1.4 12.6 4.6 18.5 7.6a51 51 0 0 0 8 2.9h54.7" class="b"/><path d="M7.3 129h57.4c18.8-14.3 35.3-15.5 55.6-3.2q3 1.7 6.1 3c3.5.3 7.1 0 10.6.1h47.7" class="b"/><path d="M7.3 126.8H41q2.6-.5 5.3-.8 2.7 0 5.3.3 1.2.4 2.6.5h9.7q3.6-3.2 8-5.4 6-3.6 13.2-5.3c12.7-3 24.7 1.2 35.3 8.2 1.6.9 3.3 2.6 5.2 2.5H159c2.4-.1 4.8-.8 7.1-.7q3.1 0 6.2.7h12.4" class="b"/><path d="M7.3 124.6h28.3q2.3.1 4.4-.5 2.6-.6 5.3-.8 4.5-.1 8.8 1.3h8.8c2-2 4.6-3.4 7-4.8q4.8-2.7 9.8-4.4c14-5 27.9-1.6 39.7 7 3.4 2.5 2.8 2.3 7 2.2h31.7c3-.3 6-1.1 9-1q4.4.1 8.7 1h8.8" class="b"/><path d="M7.3 122.2q1.8.4 3.6.2h25.6c.4-.3 1.3-.6 1.7-.7q3-1 6.2-1 5-.3 9.7 1.7h8c4.4-3.5 9.7-6 15-8.3 15.9-6.5 31.2-2.5 44 8.3h37.1q2.2-.6 4.4-.8 6.1-.9 12.4.2l3.5.6h6.2" class="b"/><path d="M7.3 119.6q1.4.5 2.7.7h20.2q2.3.1 4.5-.1l1.8-.7q3.8-1.4 7.9-1.4c3.3 0 6.8.6 9.7 2.2h8q3.5-3 7.9-5 5.2-2.7 10.6-4.4a39 39 0 0 1 36.2 6.7c1 .8 2.3 2 3.5 2.7h38q7.3-1.9 15-1.2 3.5.5 7 1.2h4.4" class="b"/><path d="M7.3 117.3q1.4.5 2.7.8h22.9a26 26 0 0 1 10.6-2.5q5.6-.1 10.6 2.5h8q3.7-2.7 7.9-4.6 5.2-2.7 10.6-4.4a38 38 0 0 1 35.3 6.3c1.1.8 2.3 2 3.5 2.7h38.8c1.8 0 3.6-.7 5.3-.9a46 46 0 0 1 16.8.8q2.2.1 4.4.1" class="b"/><path d="m7.3 115.3 1.8.7h22.1q1.6-.7 3.5-1.5a25 25 0 0 1 8-1.4c3.9-.1 8 .7 11.4 2.8q4.4.2 8.8 0c4-2.8 8.7-4.8 13.2-6.8a38 38 0 0 1 42.4 6.9H159c1.7 0 3.5-.7 5.3-.8a48 48 0 0 1 15.8.8h4.4" class="b"/><path d="M7.3 113.5c1.1.5 2.5.3 3.6.3h17.6c1.6.2 3-1 4.4-1.5a24 24 0 0 1 21.2 1.3c1.7.4 3.6.1 5.3.2 1.7 0 3.6.2 5.3-.2a85 85 0 0 1 17.6-8 37 37 0 0 1 35.3 8c1 .4 2.4.2 3.5.2h29.1c5.3 0 10.7.3 16-.5q5.6-.5 11.4.5h7" class="b"/><path d="M7.3 111.6h21.2a24 24 0 0 1 23.8-1.2c1.1.5 2.3 1.4 3.6 1.2h10.6c1.5-.3 3-1.4 4.4-2.1 5.7-3.2 12-6 18.5-6.8 10.1-1.5 20.8 2 28.2 9h67" class="b"/><path d="M7.3 109.5h19.5a25 25 0 0 1 25.5-1.3c1 .5 2.3 1.5 3.6 1.3h9.7c2-.2 4.4.5 6.1-.8a51 51 0 0 1 18.6-7.5c9.7-1.6 20 1.6 27.3 8.2q33.6.2 67 0" class="b"/><path d="M7.3 107.3H25c1.2-.5 2.4-1.5 3.5-2a24 24 0 0 1 16.8-1.9q4.6 1 8.8 3.8c6.7.3 13.6 0 20.3.1 13.2-9.5 29-11.4 42.3-1.2l1.8 1.2h66.1" class="b"/><path d="M7.3 105.2h16c1.4-.7 2.8-2 4.3-2.6a24 24 0 0 1 8.8-2.5q6.6-.4 12.4 2.3c1.8.6 3.5 2 5.3 2.7h21.2q1.7.2 3.5-.2a31 31 0 0 1 40.6.2h65.3" class="b"/><path d="M7.3 103h13.3c1 .2 2-.6 2.6-1.1q1.7-1.3 3.5-2.1a25 25 0 0 1 23 1.1c3.7 2.5 2.5 2.1 7 2h23.9c.4.1 1.3 0 1.7-.1l1.8-1.5q2.8-2.3 6.2-3.6c10.6-4.4 22-1.5 30.9 5.3h63.5" class="b"/><path d="M7.3 100.8h12.4c9-7.7 22.8-8.1 31.8 0H85a25 25 0 0 1 23-7c5.7.9 11 3.7 15.8 7h60.9" class="b"/><path d="M7.3 98.7H17c6.7-5.2 15.6-8 23.9-5.5q2.8 1 5.3 2.5c1.2.8 2.2 2.2 3.5 3H54q1.3-.6 2.6-1.1a12 12 0 0 1 8.9 1q3.5.2 7 0h15c5.2-6.4 14.2-8.6 22-7.3 5.8.8 11 3.4 16 6.2q1.2.8 2.6 1.2h56.5" class="b"/><path d="M7.3 96.5c2.4-.1 4.8.3 7.1-.2C17.6 94 21.2 92 25 90.8c6-1.9 13-1.6 18.5 1.9Q45.6 94 47 96c1 .6 2.5.5 3.6.3C55.2 91 64 92 69 96q1.2.6 2.7.4h4.4c.8 0 1.8-.6 2.6-.9q2.7-.6 5.3.1l1.8.8h1.7c.8 0 2 .1 2.7-.3 4.8-6.8 14.2-8.7 22-7.4 6 .8 11.3 3.7 16.8 5.8q2.6 1 5.3 1.8 4.4.1 8.8.1h41.5" class="b"/><path d="M7.3 94.4H10q1.8-1 3.5-2 3.8-2.4 8-3.8c7.8-2.9 19-2.6 23.8 5.3q1.2.8 2.6.1c5-7.6 18.6-6.5 23.9.3h4.4c2.6-2.2 6.4-3 9.7-2 1.2.4 2.3 1.5 3.5 2H92c4.7-7.5 14.7-9.4 23-8.1 5.8.8 11.1 3.4 16.7 4.8a145 145 0 0 0 17.7 3.3h35.3" class="b"/><path d="M7.3 91.6q3.4-2.1 7.1-3.7c3.9-1.8 8-3.3 12.3-3.6 5-.4 10.3.5 14.2 3.7 1.4 1 2.3 3 3.5 4.2h.9c1-.8 1.7-2.3 2.6-3.1 2.6-2.5 6.2-3.6 9.7-3.8q6.1-.3 11.5 2.7c1.8 1 3 2.8 4.4 4.2h2.7c3.6-4.3 11.3-4.7 15-.2q1.2.3 2.6.2c3.8-7.1 12.7-9.5 20.3-9 5.4.2 10.6 2 15.9 3.3 7.8 1.8 16 2.5 23.8 4.6q1.8.6 3.5 1.1h15c1.5-.1 3-1 4.4-1.2 2.6-.5 5.4-1.1 8-.5" class="b"/><path d="M7.3 87.4c7.5-4 16.2-7.2 24.7-5.5 4.4 1 9 3.5 10.6 7.8l1 .3.8-.5c4.2-8.5 16-8.9 23.8-5.4 2.7 1.2 4.7 3.5 6.2 6h1.8c3.2-4.1 8.4-5.3 13.2-3.3q1.5.6 2.6 1.8c.9 1.2 2.2 2 3.6 1 3.8-7.2 12.7-9.4 20.3-9.2 6 .2 11.7 2.1 17.6 2.9 6.2 1 12.5 1.6 18.5 3.4q2.8.7 5.3 2c.8.3 1.8 1 2.7 1.3h8.7a27 27 0 0 1 16-3.7" class="b"/><path d="M7.3 83.7a37 37 0 0 1 23.9-4.3c4.5 1 9 3.9 10.6 8.5h.8c1.1-1.6 2-3.6 3.6-4.8A20 20 0 0 1 62 79.4c6.4 1.1 9.9 2.8 13.3 8.5h.9c.5-.3 1.4-1.3 1.7-1.8q1.6-1.5 3.5-2.3c4.6-1.6 10.8-.5 13.3 4h1.7c3.7-7 11.9-9.9 19.4-10 4.5-.3 8.9.7 13.3 1.3 6.4.9 13 1.3 19.4 2.8q5 1.1 9.7 3.7c.8.5 2 1.3 2.6 2 1.7.5 3.6.2 5.3.3q1.5-.8 2.7-1.7l3.5-1.7c3.9-1.4 8.2-2.4 12.4-2" class="b"/><path d="M7.3 80.3a35 35 0 0 1 23.9-3.2c4.3 1.2 8.4 4.2 9.7 8.6h.8c4.2-9.7 16.7-11 25.6-7.6q3.6 1.2 6.2 4c1 1 1.5 3 2.7 3.6l.8-.1c2.5-5.1 9.3-6 14.2-4q2 .7 3.5 2.3c.3.5 1.2 1.5 1.7 1.8h1c.5-.4 1.4-1.7 1.7-2.4q1.5-2 3.5-3.5c7.1-5.1 16.4-5.3 24.7-4 5.9.5 11.8.8 17.7 1.8q6.4 1 12.3 4 2.6 1.5 4.4 3.7c1 .6 2.4.4 3.5.4q4.5-4.4 10.6-5.7a25 25 0 0 1 8.9-.8" class="b"/><path d="M7.3 77.2c7.1-3.2 15.4-4.9 23-2.6 4.2 1.2 8.2 4 9.7 8.4l.9.6c1.1-1.6 2-3.8 3.5-5a21 21 0 0 1 16.8-4.4c6.3.9 12.4 3 15 9.4h.8c2.3-4.2 7-5.8 11.5-5.3q5.6.6 8.8 5.3a3 3 0 0 0 1.8-.4c3-6.4 10.2-9.3 16.7-10.2 4.7-.8 9.5-.2 14.2 0 10.1.5 26.7.7 32.6 10.4q1.4.3 2.7-.1c3.4-5.5 13.2-7.7 19.4-7.1" class="b"/><path d="M7.3 74.5c10.8-5 27.1-5.6 32.7 6.9l.9-.6c1.4-4.2 5.5-7 9.7-8.1 6-1.8 12.7-.9 18.5 1.3q3.1 1.4 5.3 3.8c.6.7 1.4 2.2 1.7 3l1 .6c.5-.4 1.4-1.5 1.7-2q1.5-1.7 3.5-2.4c5.5-2 12.6-.7 15.9 4.4h1.8c2.8-6.5 10.1-9.5 16.7-10.7 4.7-.9 9.4-.4 14.1-.5 10.9 0 26.9.4 32.7 11.2a3 3 0 0 0 1.7-.4c3.1-6 13.2-8.2 19.4-7.6" class="b"/><path d="M7.3 72c10-4.9 27.3-5.2 31.8 7.2h.9c3.7-9.1 15.2-10.8 23.8-8.7 6.3 1.3 9.9 3 13.2 8.7h1c1.9-4.2 7.1-5.4 11.4-5 3.8.2 7.3 2 9.7 5h1.7c3.7-6.7 11.3-9.8 18.6-11 3.7-.5 7.6-.3 11.4-.6 9.3-.3 19.3-.2 27.4 4.8q2 1.1 3.5 3c1 1 1.8 2.7 2.7 3.8h.8c1.9-4.3 6.3-6.6 10.6-7.6q4.4-1.1 8.9-.7" class="b"/><path d="M7.3 69.7c8.3-3.8 18.8-4.5 26.5.9q2.1 1.6 3.5 3.7c.3.8 1.2 2.3 1.8 2.8l.9-.5c3.7-9 15.5-10 23.8-8 5.2 1.1 11 3.3 13.2 8.5h1c.9-.6 1.6-2 2.6-2.5q2-1.5 4.4-1.9c3.8-.8 8-.4 11.4 1.5 1.3.6 2.4 2 3.6 2.8h1.7c1-.7 1.8-2.2 2.7-3.1q1.9-2.1 4.4-3.5c6.8-4.2 14.3-4.6 22-5.1 10.2-1 21.8-.9 30 5.9q1.6 1.3 2.7 3c.3.8 1.2 2.3 1.8 2.8.7-.3 1.4-1.7 1.7-2.3q1.4-2 3.5-3.2c4.2-2.3 9.4-3.4 14.2-2.9" class="b"/><path d="M7.3 67.7c10-4.8 26-4.4 31 7.2h.8c.6-.5 1.4-1.9 1.8-2.5q1-1.6 2.6-2.7a24 24 0 0 1 18.5-3c5.5 1.2 12 2.6 15 7.8q.9.5 1.8.4c1.1-.8 2.2-2.1 3.5-2.7 4.1-1.8 9-1.8 13.3-.4a11 11 0 0 1 4.4 2.7c1 .6 2.4.3 3.5.4 3.2-5.4 9.2-8.2 15-9.8 4.6-1.2 9.4-1.5 14.1-2.2 10-1.2 21.2-.9 29.1 6q1.6 1.3 2.7 3.1c.2.8 1.1 2.4 1.7 2.9.6-.6 1.5-2 1.8-2.7q1.4-1.9 3.5-3c4-2.1 8.8-3 13.3-2.5" class="b"/><path d="M7.3 66A26 26 0 0 1 33 67q2.1 1.4 3.6 3.5c.2.7 1 2 1.7 2.3h.9c4.7-8.6 16.1-9.2 24.7-7 6.2 1.4 9.6 2.3 14.1 7l2.7-.1c4.8-4.4 15.4-4 20.3.1 1.4 0 3 .3 4.4-.3 3.3-4.6 8.8-7.2 14-8.9 4-1.2 8.3-1.6 12.4-2.5 10-1.8 21.6-1.8 30 4.7 1.3 1 2.7 2.6 3.6 4 .3.8 1.2 2.4 1.7 3 .6-.4 1.5-1.8 1.8-2.5q1-1.6 2.6-2.5c3.9-2.4 8.8-3.3 13.3-2.8" class="b"/><path d="M7.3 64.6c9.6-5 24.3-4.3 30 6h1.8c5-8.3 16.3-8.4 24.7-6.2 5 1.2 10.5 2.3 14.1 6.2h4.4c.9-.2 1.9-.8 2.7-1a22 22 0 0 1 8-1.2c2.6.2 5.5.7 7.9 2q3 .5 6.1 0c5.6-6.8 14.7-8.9 23-10.7a48 48 0 0 1 21.1-1.3c7.1 1.3 14 5.2 16.8 12.2h.9c1.2-3.8 5-6 8.8-6.7q3.6-.9 7-.4" class="b"/><path d="M7.3 63.5c5.4-3 11.7-4 17.7-2.7 4.5.9 9.1 3.2 11.5 7.3q1.2.4 2.6.3c5.2-7 15.1-7.3 23-5.6 3.8 1 7.7 1.7 11.4 3a27 27 0 0 1 5.3 2.6h8.8a28 28 0 0 1 11.5-.3c2.3.6 4.7.2 7 .3 3.3 0 3 .2 5.3-2q2.5-2 5.3-3.5c3.9-2 8.2-3.1 12.4-4.4 5.4-1.7 11-3 16.7-3 9 .1 19.5 3.7 23 12.6l.9.3c.6-.3 1.4-1.4 1.7-2 .4-.5 1.3-1.4 1.8-1.7 3.3-2.2 7.6-3 11.5-2.5" class="b"/><path d="M7.3 62.8a24 24 0 0 1 23.9-1q1.9 1.3 3.5 2.8c.3.5 1.2 1.4 1.7 1.7h2.7c1.2-.8 2.3-2.2 3.5-2.9 4.2-2.4 9.4-3 14.1-2.5q4.5.5 8.9 1.7l7 1.5c2.4.5 4.8 1.5 7 2.2H85q13.6 0 27.3-.1c5.1-5 12-7.1 18.6-9.6a44 44 0 0 1 18.5-3.1c8.5.6 17.3 4.8 21.2 12.8.4 0 1.3-.1 1.7-.4 2.4-4 8-5.1 12.4-4.6" class="b"/><path d="M7.3 62.5a23 23 0 0 1 23-2.1q1.9 1 3.5 2.3c.4.4 1.3 1.2 1.8 1.4q2.2.1 4.4-.1c4.4-4.1 11-4.7 16.7-4.2 4.8.6 9.4 2 14.2 2.7l6.1 1c1.5.1 3 .7 4.5.6H115c1.3-.1 2.3-1.6 3.5-2.2q3.3-2.4 7-4a54 54 0 0 1 21.2-6.5c7.7-.4 15.6 2.1 21.2 7.3q1.5 1.4 2.7 3c.2.7 1.2 2 1.7 2.4h1.8c1-.4 1.8-1.4 2.6-1.9a13 13 0 0 1 8-1.4" class="b"/><path d="M7.3 62c1 .1 2-.6 2.7-1.1q2-1.5 4.4-2.2A22 22 0 0 1 32 60.4l1.8 1.4q1.7.3 3.5.1H40c1.2-.2 2.3-1.3 3.5-1.7 5.3-2.1 11.2-2 16.8-1q7 1.7 14 2.2 10.6.8 21.3.5h23.8c2.6-2.4 5.8-4 8.8-5.8a46 46 0 0 1 17.6-6.5 30 30 0 0 1 25.6 9.4c.8.8 1.5 2.5 2.7 3h3.5c.9 0 1.8-.7 2.7-1q2.1-.7 4.4-.4" class="b"/><path d="M7.3 59.8q2.7.1 5.3-.2 4.2-2.2 8.9-2.4a21 21 0 0 1 9.7 2q.8.5 1.7.6h8q1 0 1.7-.5 1.7-.7 3.5-1.1 6.7-1.4 13.3-.2c4 .6 8.2 2 12.3 1.8 17-.1 34.2.2 51.2-.1a48 48 0 0 1 23.8-12A31 31 0 0 1 175 59.6q1.7.3 3.5.2h6.2" class="b"/><path d="M7.3 57.6H18q1.8-.2 3.6-.5a20 20 0 0 1 7 .5h14.1c1.2.1 2.4-.5 3.6-.7q3-.6 6.1-.7 6.3.2 12.4 1.4h15c4.7.2 9.4-.5 14.1-.2q6.1.4 12.4.2h19.4c1.8-1.2 3.4-3 5.3-4.4q4.8-3.7 10.5-5.8c13.2-4.9 26.2.2 35.3 10.2h8" class="b"/><path d="M7.3 55.5h37c3.3 0 6.6-.8 9.8-.6q3.1.1 6.2.5H84q3.1.1 6.2-.5 4.4-.7 8.8-.2c1.7 0 3.5.8 5.3.8l23.8-.1c14.6-16 34.7-15.4 49.4 0h7" class="b"/><path d="M7.3 53.3h80.3q4.5-1.2 8.9-1.6 4-.3 7.9.5c1.4.2 3 1.2 4.4 1 7 0 14.1.3 21.2 0a31 31 0 0 1 30.8-10.5c6.8 1.7 12.5 6 17.7 10.6h6.2" class="b"/><path d="M7.3 51.1h82.1c1.7-.4 3.5-1.2 5.3-1.5 4.3-1 9-1 13.2.3 1.5.3 3 1.4 4.4 1.2H131c.5-.1 1.4-1 1.7-1.4q1.2-1.3 2.7-2.5c7.9-6.9 19.3-9.2 29-5.3 5.4 2 9.9 5.6 14.2 9.2h6.2" class="b"/><path d="M7.3 49h61.8c2.6 0 5.3-.8 8-.5 4 .7 8.2.4 12.3.5 1.1 0 2.5.2 3.5-.4a25.3 25.3 0 0 1 20.3-.1c.4.3 1.3.6 1.8.5h17.6c13.5-14.7 31.2-13.4 45 0h7" class="b"/><path d="M7.3 46.8h50.3c2.4.2 4.8-.6 7-1.2 3.2-1 6.5-2 9.8-2a23 23 0 0 1 13.2 3.2h7l3.6-1.6a23 23 0 0 1 17.7 1.1l.8.5h11.5q3.1.2 6.2-.2c11.4-13 30-12.3 41.5.2h8.8" class="b"/><path d="M7.3 44.2c1.3.8 3 .3 4.5.4h32.6a114 114 0 0 1 11.5-2.4l8.8-1.5q4-1 8-1.3c6.6-.3 14.1.7 19.3 5.3h5.3a20 20 0 0 1 16.8-2.2c1.8.5 3.5 1.5 5.3 2.2h15q1 0 1.7-.5a25.5 25.5 0 0 1 38 .5h10.6" class="b"/><path d="M7.3 40.5q1.9.8 3.6 1.9 4.4.1 8.8.1H40a44 44 0 0 1 11.5-3.8q6-1.3 12.3-2 4-.9 8-1.1c8.3-.4 17.4 1 23.8 6.9h4.4c3.8-3.3 9.4-3.6 14-2.7 2.6.4 4.9 1.7 7.2 2.7H137c1.6-1 2.9-2.5 4.4-3.5q3.7-2.4 8-3.5c7.8-1.8 16.8.7 22 7h8q2.6-.4 5.3-.3" class="b"/><path d="M7.3 37.3c2.2.8 4.1 2.2 6.2 3H34c1.3 0 3 .3 4.3-.3q3.8-2.2 8-3.6 9-2.8 18.5-3.7c10.9-1.6 25.4-.7 33.5 7.6h3.5c1.5-.7 2.9-1.9 4.5-2.3 5.2-1.7 11.3-.7 15.8 2.3h16.8c1.2-.6 2.3-1.9 3.5-2.6q2.5-1.6 5.3-2.5c7.3-2.4 16-.7 21.2 5.1h3.5q1.9.1 3.5-.6c2.8-1.1 6-.9 8.9-.7" class="b"/><path d="M7.3 34.5q3.9 1.4 7.1 3.6h22A56 56 0 0 1 63 29.5c11.3-1.5 27.4-.7 36.2 7.3.4.4 1.2 1.2 1.8 1.4q1.7 0 3.5-.2 2.3-2 5.3-2.6a18 18 0 0 1 12.3 2.3c1 .7 2.4.4 3.6.5h15c1.5-.6 2.7-2 4.4-2.7 4-2 8.8-2.6 13.2-1.5a17 17 0 0 1 5.3 2.4c.8.5 1.7 1.5 2.6 1.8h5.3c3.8-2.8 8.8-2.6 13.2-2" class="b"/><path d="M7.3 32a40 40 0 0 1 8 4c6.7-.1 13.5.2 20.3-.1 8.9-7 20.6-9.3 31.7-9.9 7.4-.4 15 .3 22 2.4q5.4 1.5 9.8 4.5c1.2.8 2.4 2.2 3.5 3.1h3.6c4.5-4 12-3.6 16.7 0h20.3q4.1-2.5 8.8-3a16 16 0 0 1 7 1.2c1.3.4 2.4 1.6 3.6 1.8h6.2c4.6-3.3 10.6-3.2 15.9-2.2" class="b"/><path d="M7.3 29.9q4.3 1.4 8 3.9h19.4c11-9.3 26.5-11.2 40.6-10.3 7.5.6 15.2 1.9 22 5.2a26 26 0 0 1 4.4 2.8c.9.6 1.8 1.8 2.7 2.4h3.5a12.5 12.5 0 0 1 15 0h23.8q2.2-1 4.5-1.1 3.1-.2 6.1 1h7q1.5.1 2.7-.2 2.2-1.2 4.5-1.9 6.6-1.7 13.2 0" class="b"/><path d="m7.3 28 4.5 1.9q1.7.9 3.5 1.8h17.6c1.4.2 2.5-1.2 3.6-2q2-1.6 4.4-2.8 7-3.7 15-5.2a87 87 0 0 1 33.5 1.7q6.2 1.4 11.4 4.4 2 1.1 3.6 2.6c.3.5 1.2 1.2 1.7 1.3h3.6l1.7-1c2.7-1.3 6-1.3 8.9-.3l2.6 1.3h42.3q1.7-1 3.6-1.7a30 30 0 0 1 15.9-.2" class="b"/><path d="m7.3 26.6 4.5 1.8 1.7 1q1.4.2 2.7.1 8.8.2 17.6-.1c11.9-10.5 28-12.1 43.2-10.1 10.3 1.3 22.2 2.9 30 10.2h4.4c1.7-.6 3.5-1.5 5.3-1.4q1.9 0 3.6.6c.7.4 1.7 1 2.6.8h41.5q2.5-1.2 5.3-1.8c4.9-1 10-.5 15 .6" class="b"/><path d="M7.3 25.6q2.3 1 4.5 1.8h19.4q1.4.1 2.6-.5a40 40 0 0 1 12.4-7.2c8-3.2 17-3.7 25.5-2.8C83 18.3 99.2 19.6 108 27.4h6.2q2.1-.9 4.4-.6c.8 0 1.8.5 2.7.6h43.2q3-1 6.2-1.4c4.7-.6 9.5.3 14 1.3" class="b"/><path d="M7.3 25.2H33a48 48 0 0 1 27.4-10.5c5.9-.3 11.8.6 17.6 1.5 10.6 1.6 22 2.5 30.9 9H166c2.4 0 4.8-.4 7-.2 3.9.4 7.8.1 11.6.2" class="b"/><path d="M7.3 23H33A48 48 0 0 1 62 13c5.7.1 11.2 1.3 16.8 2.2 10.1 1.8 21.2 2 30 7.8h75.9" class="b"/><path d="M7.3 20.9h23c1.4 0 3.2.3 4.4-.8a52 52 0 0 1 15.9-7.3c9.9-2.6 18.5-.3 28.2 1.7 6.7 1.3 13.6 1.5 20.3 3a40 40 0 0 1 8.8 3.2q1.3.2 2.7.2h74" class="b"/><path d="M7.3 18c1.2.2 2.4.8 3.6.7h23c.8.2 1.8-.4 2.6-.9l3.5-2q4.5-2.5 9.7-4a40 40 0 0 1 23 .8c3.7 1 7.5 2.2 11.4 2.6 4.4.6 8.9.6 13.2 1.1q4.5.5 8.9 2.2c1.6.5 3.5.1 5.2.2h61.8c3.7-1.2 7.8-1.2 11.5 0" class="b"/><path d="m7.3 15.2 3.6 1.4h27.3c1.5-.6 3-2 4.4-2.7q4.6-2.6 9.7-3.7c8.3-2 16.4.4 23.9 3.7 8.3 3.9 11.8 2.2 20.2 2.1 2.7 0 5.3.7 8 .6H166c2.5.3 4.7-1 7.1-1.3 3.8-.8 7.9-.8 11.5.8" class="b"/></svg>