<svg xmlns="http://www.w3.org/2000/svg" id="a" width="1920" height="2400" viewBox="0 0 192 240"><defs><style>.b{fill:none;stroke:#fff;stroke-miterlimit:10;stroke-width:.3px}</style></defs><path d="M0 0h192v240H0z" style="stroke-width:0"/><path d="M8.5 222.4c5 .9 9.7 2.4 13 6.4 1.4.3 3 0 4.4.1h22.7c4.8-5.3 11.7-9.8 19.1-9.3 5.2.5 10.2 3.8 12.2 8.7l.9.6.8-.2c2.2-5.2 9.1-6.6 14-4.4q2 1 3.4 2.6c.4.6 1.3 1.6 1.8 2 1.4.3 2-.9 2.6-2q2.4-3 6-4.4c6.7-2.5 17-.5 20.1 6.4q1 .1 1.7-.3c3.5-7.2 12.6-9.5 20-8.8 4.7.4 9.4 2.1 13.1 5q1.5 1 2.6 2.4a5 5 0 0 0 1.8 1.7h3.5l2.6-1q4.4-.6 8.7.8" class="b"/><path d="M8.5 219.9c5.1 1 9.7 2.7 13 7h25.3q1.6 0 2.6-1.4c4.8-4.8 11.3-8.9 18.3-8.4 5.7.4 11.2 4.2 13 9.7h1c.5-.4 1.3-1.6 1.7-2.2.8-1 2.2-2 3.4-2.6 5.4-2 11 0 14 4.8h1.7c3-6.8 11.7-8.8 18.3-6.9 3.6 1 7.3 3 8.7 6.7q1 .3 1.7 0c2.4-5.5 8.4-8.1 14-8.9 8.7-1.1 17.9 2.2 23.5 9.1h4.3q1.8-.5 3.5-.6c2.3-.2 4.7.7 7 .6" class="b"/><path d="M8.5 217.5c3.7 1 7.6 2 10.5 4.8.8.7 1.5 2 2.6 2.4H25q2.2-.9 4.4-.5c3 .8 6.4.4 9.6.5h6q1.9.1 3.5-.3c7.1-8.3 19.5-13.8 28.8-5.5q1.5 1.3 2.6 3.1a8 8 0 0 0 1.7 2.7h.9c3-7.7 14.9-7 18.3 0h1.7c3.5-6 9.9-8.3 16.6-7.2 4.2.7 8.8 2.9 10.4 7.1q1 .2 1.7-.3c2-4.5 6.8-7 11.4-8.1 9.2-2.1 20 .9 26 8.4 5 .3 10 0 14.9 0" class="b"/><path d="M8.5 215.3c5.7 1.6 8.3 2.7 12.2 7.3 1.1-.1 2.5.1 3.5-.3a8 8 0 0 1 6-.7q1.5.4 2.7 1h15.7c5.3-5.7 12.7-11 20.8-9.6 3.7.7 7.2 2.6 9.6 5.5 1 1 1.8 2.9 2.6 4h.9c2.7-5.5 9.7-6.8 14.8-3.8q1.5.9 2.6 2.1c.8 1.5 1.9 2.3 3.5 1.4 5-9.4 21.1-9 26.1.4h.9c1.3-1.1 2-3.2 3.5-4.2 3.3-3 7.8-4.4 12.1-4.8 6.4-.5 13 1.2 18.3 4.7 2 1.1 3.5 3 5.2 4.3h14" class="b"/><path d="M8.5 213.3c5 1.4 8.2 2.8 11.3 7.1h2.6c2.4-2.1 5.9-2.2 8.8-1.2 1 .3 2.2 1.4 3.4 1.2h14.8c5.5-6.2 14.2-11.5 22.7-8.5q4 1.5 7 4.7c.8 1 1.6 2.8 2.5 3.8h.9q3.2-5.5 9.6-5.3c4 0 7.3 2.1 9.6 5.3h1.7c1-.7 1.7-2.1 2.6-3q3-2.5 7-3.3c5.6-1 13 .7 15.6 6.1l1.8.2c6-10.3 20.6-10.5 30.4-6 15.2 7.5 1 5.8 22.7 6" class="b"/><path d="M8.5 211.4c4.6 1.5 7.5 2.8 10.5 6.9q1.2 0 2.6-.2c2.6-2.8 7.1-2.6 10.4-1.2l2.6 1.4h15.7c.6-.2 1.4-1 1.7-1.4l2.6-2.5a23 23 0 0 1 8.8-4.4c6.6-1.7 14.5 1.5 17.4 7.9q.8.4 1.7.4c2.9-5.2 9.6-6.6 14.8-4.1q2 .9 3.5 2.5c1 1.6 1.7 1.7 3.5 1.6q1.2-1.4 2.6-2.8a14 14 0 0 1 7-3c5-.5 11 1 13.9 5.5q1.3.6 2.6-.1c2.1-3.8 6.3-6 10.4-7.2 6.6-1.8 13.8-1 20 1.7 15.7 7.2 2.3 5.7 22.7 5.9" class="b"/><path d="M8.5 209.6c4.5 1.7 6.6 2.7 9.6 6.5q1.3.1 2.6-.2c2.6-2.9 7-3 10.5-1.8l2.6 1.3q1 .9 2.6.7H52c1.4-.6 2.3-2.2 3.5-3.1q3.1-2.5 7-3.9c5-1.7 10.8-.6 14.8 2.9 1.3 1 2.4 2.8 3.5 4.1h1.7c4-7.3 15.7-6.6 20 0 1.1 0 2.5.3 3.5-.4a11 11 0 0 1 4.4-3.3c5.5-2.4 12.6-1 16.5 3.8h2.6c7-9.6 21.1-9.6 31.3-5.7q3.7 1.3 7 3.3c1.4.7 2.8 2.1 4.4 2.4h11.3" class="b"/><path d="M8.5 208c2 1 4.4 1.8 6.1 3.3.9.8 1.7 2 2.6 2.7l2.6-.1c2.7-3.2 7.6-3.5 11.3-2q1.5.4 2.6 1.3t2.7.8h18.2c6.6-8.4 19-9.2 25.3 0h1.7c1-.4 1.8-1.8 2.6-2.4q1.6-1.3 3.5-2c5.4-1.9 12.2-.3 15.7 4.4h3.5c5.3-5 12.8-4.7 18.3 0 1.4 0 3 .3 4.3-.3a16 16 0 0 1 4.4-3.8 31 31 0 0 1 22.6-2.5 54 54 0 0 1 10.4 3.7c2 .9 4 2.3 6.1 3h10.5" class="b"/><path d="M8.5 206.6c1.7 1 3.7 1.7 5.2 3 2.5 2.3 1.6 2.4 5.3 2.3 4-4.4 11.3-3.8 15.6 0h7c1.7-.5 3.4-1.4 5.2-1.3q1.8 0 3.5.6.8.5 1.7.7 2.7.1 5.2-.1a14 14 0 0 1 16.6-3.9q1.9 1 3.5 2.5a5 5 0 0 0 1.7 1.5h2.6c5.4-7 17-6.7 22.6-.3 1.7.5 3.6.2 5.3.3 3.8-3 9-2.4 13 0h6.1c8.8-8.3 22.2-8.3 33-4.7a94 94 0 0 1 10.5 4c.8.3 1.8.8 2.6.7h8.8" class="b"/><path d="M8.5 205.4c2.2 1.1 4.6 2.3 6.1 4.3 1.4 0 3 .3 4.4-.2a10 10 0 0 1 5.2-2.5q4-.7 7.8 1.3c.8.4 1.7 1.3 2.6 1.4h5.2a12 12 0 0 1 14.8 0q2.7.2 5.2 0c1.2-.6 2.3-1.7 3.5-2.3 3.3-1.6 7.2-1.4 10.5 0 1.2.6 2.3 1.7 3.5 2.3 1.3 0 3 .2 4.3-.2 4-4.6 10.9-5.8 16.5-4.2 3 .7 5.6 2.5 7.9 4.4h22.6c10-7.7 23.2-7.1 34.8-3.8q5.8 1.7 11.3 3.8h8.8" class="b"/><path d="M8.5 204.3q2.7 1.7 5.2 3.3h4.4c1.4-.6 2.8-1.8 4.3-2.1 3.6-1 7.7-.3 10.5 2q2.6.2 5.2 0c5-5 14-4.8 19.1-.1q1.3.3 2.7.2h4.3q2.4-1.5 5.2-1.3 1.8 0 3.5.7a5 5 0 0 0 2.6.6H79q1.4.2 2.6-.4 4-3.8 9.6-4.5c4.1-.6 8.5.2 12.2 2.2 1.5.6 2.8 2 4.3 2.7h20.9q.9.1 1.8-.5 3.2-2 7-3a45 45 0 0 1 18.2-1.1q9.4 1 18.3 4.1c1.3.7 3 .5 4.3.5h5.3" class="b"/><path d="M8.5 203.3c1.1.7 2.3 1.7 3.5 2.2h6c1 0 1.9-.8 2.7-1q2.5-1.1 5.2-1 2.9.3 5.2 2h4.4c1-.1 1.8-1.3 2.6-1.8a15 15 0 0 1 3.5-1.9c6-2.2 13.4-.8 18.2 3.6q10 .2 20 0c1 .3 2-.4 2.7-1q1.2-1 2.6-1.7c4.2-2.2 9.2-2.8 14-1.9a23 23 0 0 1 9.5 4.4q1.2.4 2.6.3h16.5l4.4-.1q3.3-1.5 7-2.4a84 84 0 0 1 32.2 1.2q2.2.7 4.3 1.3h7.8" class="b"/><path d="M8.5 202.5c1 1 2.3 1 3.5.9h7.8q2.1-1 4.4-1 2.2 0 4.3 1h5.2a20 20 0 0 1 21-4.3 23 23 0 0 1 5.1 2.6c1 .7 2.2 1.9 3.5 1.7q9.2 0 18.3-.2c8-6.9 20.5-6.3 28.7 0 2.6.4 5.3 0 7.9.2H140l5.2-.8q8.6-1 17.4-1.2 6.2-.1 12.2 1.9 4.3 0 8.7 0" class="b"/><path d="M8.5 201.2h20c1.1 0 2.5.2 3.5-.3q1.6-1.6 3.5-2.9a23 23 0 0 1 17.4-2.3q4.1 1.2 7.8 3.4c1.4.8 2.6 2.4 4.4 2.1h16.5c1.5-.7 2.9-2 4.4-2.6a23 23 0 0 1 22.6.5c1.1.6 2.3 1.6 3.5 2.1h27.8l5.2-.6q3.1-.2 6.1.6h7.9c1.4.1 3-.5 4.3-.7a26 26 0 0 1 10.5.7h9.5" class="b"/><path d="M8.5 199h20.9c9.3-9.6 24.8-8.3 34.8-.3q1.2.6 2.6.4h15.7a24 24 0 0 1 27.8-1.6c.8.5 1.8 1.3 2.7 1.6h15.6q2.3.1 4.4-1l5.2-1.4c6-1.3 12.6-1.6 18.3 1q1.3.6 2.6 1.4h24.4" class="b"/><path d="M8.5 197h18.3c8.7-7.3 19-9.4 29.6-5.3q3.2 1.3 6 3c1.2.7 2.4 1.8 3.6 2.3h11.3c2-.2 4.2.2 6-.3q2.9-2.2 6.2-3.5a24 24 0 0 1 23.5 3.6q1.2.3 2.6.2h9.6q1.3-.2 2.6-.8l3.4-1.3q4.7-1.6 9.6-2.5 7-1.1 14 .6 2.7.8 5.2 2c1.1.5 2.2 1.8 3.5 2h20" class="b"/><path d="M8.5 194.8h14.8c1 .2 2-.5 2.6-1q1.7-1.3 3.5-2.3c11.9-7 25.9-5 36.6 3.2q8.6.1 17.4.1a24 24 0 0 1 27.8-1.6l1.8 1.4q1.2.3 2.6.2h6l5.3-2q7.1-2.8 14.8-4a36 36 0 0 1 22.6 4.5c1 .6 2.2 1.7 3.5 1.5h15.7" class="b"/><path d="M8.5 192.7h8.7c1.7-.1 3.6.3 5.2-.3 8-5.7 18.2-8.7 27.9-6.8a37 37 0 0 1 15.7 7l1.7.1h15.7c1-.2 1.8-1 2.6-1.6q2-1.2 4.3-2.2c7.5-3 16.8-1.9 22.7 3.8h6c3.4-2.4 7.6-3.1 11.4-4.5 12.8-4.3 28-4.1 39.1 4.5h14" class="b"/><path d="M8.5 190.6h11.3a39 39 0 0 1 42.7-2.1q1.7 1 3.5 2h18.3c7.7-6.2 20.4-7.3 27.8 0h4.4c4.1-3.5 9.7-4.1 14.8-5.7 13.7-4 29.1-3.1 40.9 5.8h11.3" class="b"/><path d="M8.5 188.4h9.6c2-1.1 4-2.5 6-3.4a42 42 0 0 1 40.1 2.9q1.2.8 2.6.5h17.4c1 0 1.9-.9 2.7-1.3q2-1.2 4.3-2c6.3-2.1 14.4-1.9 19.2 3.3h3.4c4.9-4 8-4.4 14-5.7a75 75 0 0 1 21.7-2.7 47 47 0 0 1 21.8 6.5c1.1.6 2.2 1.9 3.5 2h8.7" class="b"/><path d="M8.5 185.5c.9 1 2.3.8 3.5.8h5.2a35 35 0 0 1 16.6-6.4c9.8-1.4 20 .7 28.7 5.5.7.4 1.7 1 2.6.9h16.5q2.2.1 4.4-.2 1.6-1 3.5-1.8a22 22 0 0 1 9.5-1.7c2.4.2 5 .8 7 2l1.7 1.4c1 .4 2.4.2 3.5.3 5.4-5.7 13.7-5.7 21-7.3 14.9-3 30.7-1.9 43.4 7.3h7.9" class="b"/><path d="M8.5 182.7c.8.5 1.6 1.5 2.6 1.5h5.2c1-.3 1.9-1.2 2.6-1.7l3.5-1.8q7.6-2.9 15.7-2.8 8.5 0 16.5 3 4 1.4 7.9 3.2h24.3c.9.1 1.9-.5 2.7-.8q2-.8 4.3-1.1a15 15 0 0 1 10.4 2l3.5-.1c6.4-6.4 16.1-6 24.4-7.5 15-2.4 31.7-1.7 44.4 7.5h7" class="b"/><path d="m8.5 180.2 2.6 1.8h5.2c10.8-8.2 27.3-6 39.2-1.6q2.2.8 4.4 1.6h41.7c8.1-5.8 17.4-6.7 27-7.2 8.7-1 17.5-1.8 26.2-.7q8.1 1 15.6 4.1 3.6 1.7 7 3.8h6" class="b"/><path d="m8.5 178 2.6 1.7c1.7.4 3.5.1 5.2.2 8.2-6 19.3-5.5 28.8-3.2q3 .8 6 1.8c1.5.4 3 1.2 4.4 1.4H93l2.6-1.3a66 66 0 0 1 20-5.5c4.7-.5 9.4-.3 14-.5 8.7-.4 17.4-1 26.1.1a59 59 0 0 1 21.8 7.1l6 .1" class="b"/><path d="m8.5 176.2 2.6 1.4c1.7.3 3.5.1 5.2.2 1-.2 1.8-1 2.6-1.4q2.6-1.3 5.3-1.8 5.6-1.2 11.3-.4a52 52 0 0 1 13 3.6h36.6c1.6.1 3-1 4.4-1.6a72 72 0 0 1 37.4-5.5c7.2.2 14.5 0 21.7.4q10.3.3 20 3.2c3 .8 6 2.3 8.8 3.5h6" class="b"/><path d="M8.5 174.9c1 .4 2.3.9 3.5.7h5.2q3.3-1.7 7-2.4a30 30 0 0 1 15.6 1.5q1.7.8 3.5 1h38.4q.8 0 1.7-.2l6-3.5q6.7-3 14-4c8.4-1 16.9.2 25.2 1 8.7.9 17.5 1 26.2 2q7.9.8 15.6 3 2.6.8 5.2 1.6h7.9" class="b"/><path d="M8.5 173.5H19q5.4-2.1 11.3-1.4 3 .5 6 1.4h40.9q2.3.2 4.4-.2c8.9-7.4 21-9.6 32.2-8.1 6.2.8 12.2 2.2 18.3 3 7.2 1.3 14.5 2.1 21.8 3.2l12.2 2.1h17.4" class="b"/><path d="M8.5 171.4H80a37 37 0 0 1 29.6-9.2q6.7 1 13 2.9a497 497 0 0 1 21.8 6.3h7q7 0 14-.3 9 .5 18.2.3" class="b"/><path d="m8.5 168.1 1.7 1q2.6.2 5.3.1H45l3.4-.6q2.7-.3 5.3 0c1.4.2 2.9.8 4.3.6h21a33 33 0 0 1 28.6-9.6 65 65 0 0 1 14 3.8q4.4 1.4 8.7 3.3 2.6 1.2 5.2 2.5h10.5a42 42 0 0 1 23.4-2.4c2.7.4 5.3 1.6 7.9 2.4h6" class="b"/><path d="M8.5 165c3.7 2.3 2.5 2.2 7 2.1h26.1c2 .1 4-1 6-1q3.6-.6 7 .1c1.4.3 3 1 4.4.9H78a32 32 0 0 1 29.6-9.9c6.8 1.3 13 4.6 19.2 7.6 4.4 2.5 2.5 2.4 7.8 2.3h3.5q1.9.3 3.5-.7c9-3.8 19.2-5.2 28.7-3q4.6 1.3 8.7 3.7h4.4" class="b"/><path d="m8.5 162.2 3.5 2.5q1.3.4 2.6.3h27q5.9-2.2 12.2-1.3 2.2.5 4.3 1.2h19.2c.9-.5 1.8-1.7 2.6-2.4q2-1.9 4.3-3.4a29 29 0 0 1 21.8-4.4 56 56 0 0 1 20.9 10.3h9.6c1.2 0 2.3-1 3.4-1.3a66 66 0 0 1 7-2.3c11-3.1 23.4-3.2 33 3.6h3.6" class="b"/><path d="M8.5 159.8c1.5.9 2.9 2.2 4.4 3h28.7l2.6-.9q4.6-1.2 9.6-.4c1.7.2 3.5 1 5.2 1.3h14c1.3 0 3 .2 4.3-.2 13-15 31.2-13.3 45.2-.8q1.5 1.3 3.5 1h9.5q1.5-.3 2.7-.9c10.7-4 22.7-7.3 34-3.4a30 30 0 0 1 7.8 4.1c1 .4 2.4.2 3.5.2" class="b"/><path d="M8.5 157.7c1.5.9 2.8 2.3 4.4 3H39q1.7.1 3.4-.4a23 23 0 0 1 14.8-.2q1.3.6 2.7.6h16.5c1-.6 1.8-1.8 2.6-2.6a32 32 0 0 1 4.4-3.6 26 26 0 0 1 23.5-3.4q5.2 1.8 9.5 5.1c1.9 1.3 3.4 3.3 5.3 4.5h15.6c9.5-3.2 19.4-7.4 29.6-5.7q5.1.8 9.6 3.2c1.5.7 2.8 2.1 4.4 2.5h2.6" class="b"/><path d="m8.5 155.7 3.5 2.7c2.8.4 5.8 0 8.7.2h17.4l3.5-.1q1.6-.8 3.5-1.2a22 22 0 0 1 13 .8q1.2.6 2.6.5h15.7c9.9-12.3 25.9-14.8 38.3-4.7q1.9 1.6 3.5 3.3c.3.4 1.1 1.2 1.7 1.4h22.7c.8.1 1.8-.6 2.6-.9l3.5-1.6a30 30 0 0 1 31.3 2.5h3.5" class="b"/><path d="M8.5 154c3.5 2.8 2.6 2.5 7 2.4h25.2c1.1-.3 2.4-1 3.5-1.2q6.1-1.9 12.2 0 1.8.5 3.5 1.2h16.5c7.1-9.3 19.6-13.7 30.5-8.6a29 29 0 0 1 9.5 7c.4.6 1.2 1.4 1.8 1.6h14c2.8 0 5.8.3 8.6-.3 1.4-.2 3 .2 4.4.3h5.2c7.9-7 20.6-6 28.7 0h4.4" class="b"/><path d="m8.5 152.6 1.7 1.5c1.7.5 3.6.1 5.3.2h24.3q3.4-1.8 7-2.4 6.3-1 12.2 1.7 1.6.9 3.5.7h13.9c11.2-14 28.8-14 40 0h14.8c1 .1 1.9-.8 2.7-1.2a21 21 0 0 1 4.3-2c5.3-1.5 11.8-1.1 15.7 3.2h2.6c3.9-4.2 10.5-4.2 15.7-2.7l3.4 1.5c.8.4 1.8 1.1 2.6 1.2h5.3" class="b"/><path d="m8.5 151.5.9.7h27.8q1.4-.5 2.6-1.2 2.6-1 5.3-1.7a23 23 0 0 1 9.5 0c2.5.5 4.8 1.8 7 2.9h14.8c1.6-1.1 2.8-3 4.4-4.2a23 23 0 0 1 34 3.9c1.5.6 3.4.2 5.1.3h8.7c7.1-5.9 16.7-8.2 25.3-4.3q3.1 1.3 5.2 3.8c1 .8 2.4.4 3.5.5 3.5-2.6 8.4-1.8 12.2-.1q4.3.1 8.7 0" class="b"/><path d="M8.5 150h25.3c3-1.2 6.2-2.8 9.5-3.5q5.7-1.3 11.4 0c2.8.6 5.3 2.1 7.8 3.5h14.8c10-12.5 26.7-12.8 36.6 0q6.5.2 13 0a27.5 27.5 0 0 1 37.4-.3q1.3.5 2.6.3h16.6" class="b"/><path d="M8.5 148h19.2c4.7-1.3 9.1-3.5 13.9-4.4q6.6-1.5 13 .2 4.4 1 7.9 4c2 .3 4 0 6 .1h9.6c5.8-7.6 16.3-11.2 25.3-7.3q3.4 1.5 6 3.9c1.3 1 2.3 2.5 3.6 3.4h12.2c9.9-9.2 23.5-11 35.6-5.3q4.5 2.2 8.8 4.9.8.5 1.7.4h12.2" class="b"/><path d="M8.5 145.8h8.7q5.7-1.2 11.3-2.4 6-1.7 12.2-2.9a31 31 0 0 1 14 .7q4.4 1.4 7.8 4.3c2 .6 4.1.2 6 .3H79c1.8-1.5 3.3-3.5 5.3-4.6a20 20 0 0 1 24.3 1.5c1.2.9 2.1 2.6 3.5 3h11.3q1-.2 1.8-.9 1.6-1.5 3.4-2.6c10.3-7 22.8-7 34-2.4 6.7 2.7 13.4 6.7 20.9 5.8" class="b"/><path d="M8.5 142.6q11-1.6 21.8-3.5c10.7-2.2 23.6-3.8 32.2 4.6h18.3a19 19 0 0 1 29.6 0h12.2c.6 0 1.3-.6 1.7-1a37 37 0 0 1 33-7.5c8.8 1.9 17 7 26.2 6.3" class="b"/><path d="M8.5 138q10.9-1.1 21.8-2.5c10.5-1.3 23.4-2.5 31.3 6h7.8q1.7-.7 3.5-1 1.8-.1 3.5.4a7 7 0 0 0 3.5.6c3.5 0 2.8.2 5.2-2.2q2.4-1.8 5.2-2.8 5.7-1.8 11.3.2 4 1.5 7 4.4c.4.3 1.3.5 1.7.4h12.2a41 41 0 0 1 36.6-8.5c8 1.7 16 5.4 24.4 4.8" class="b"/><path d="M8.5 133.9c7.6-.5 15.1-1.4 22.6-1.8 10.1-.6 22.4-1 29.6 7.3H66c4.4-3.2 11.3-3.8 15.6 0q2.2.2 4.4-.2c3.3-3.9 9-5 14-3.8 2.8.6 5.3 2.3 7.7 4h13.1q1.6.1 2.6-1c12-9 25.9-10.3 40-6.8 6.6 1.4 13.3 3.3 20 2.7" class="b"/><path d="M8.5 130.2c9-.6 18-1.4 27-1.2 8.7.2 18.3 1.4 24.4 8.3h3.5c.6 0 1.3-.7 1.7-1.1q1.6-1.2 3.5-1.9c5.5-1.8 12.2-1.1 16.5 3h4.4c3-2.8 7.5-3.2 11.3-2.2q1.8.6 3.5 1.5.8.5 1.7.6h15.7c.9-.2 1.8-1.1 2.6-1.6a47 47 0 0 1 18.3-7.1c6.3-1 12.8-.5 19.1.5 7.2 1.2 14.5 2.9 21.8 2.2" class="b"/><path d="M8.5 126.9c13-1 29.5-2 41.8 2.4q3.4 1.2 6 3.5c.9.6 1.7 2 2.7 2.3q1.7.1 3.5-.2c2.8-3.7 7.7-4.7 12.2-4.8a22 22 0 0 1 13.9 5h6c1.2 0 2.5-.5 3.6-.4 1 0 2.4.2 3.4.4h20.1q1-.2 1.7-.9l2.6-1.6q10.7-5.8 22.7-6.2c11.6-.6 23.1 3.2 34.8 1.9" class="b"/><path d="M8.5 123.8c12.2-1.4 41-1.8 48.8 9q1.7.3 3.4.2c2-2.4 4.7-4.5 7.9-5.1 7.7-2 16.4 0 22.6 5q15.6.1 31.3 0a56 56 0 0 1 33.1-8c9.3.5 18.6 2 27.9.7" class="b"/><path d="M8.5 121q14.9-1.8 29.6 1.1c6.6 1.4 13.8 3.3 18.3 8.8l3.5-.1c3.9-6 11.7-7 18.3-6.2q8.6 1.2 15.6 6.3h28.8q1 0 1.7-.5a43 43 0 0 1 9.6-4q7.6-2.2 15.6-2.6c6.7-.3 13.4.3 20 .3q7 0 14-.9" class="b"/><path d="M8.5 118.5a76 76 0 0 1 30.5 1.9 43 43 0 0 1 12.2 4.7l2.6 2c.3.6 1.2 1.4 1.7 1.6q1.8.1 3.5-.1c5.1-7.4 15.5-7.8 23.5-5.7q4.6 1.2 8.7 3.4c1.5.7 2.8 2 4.4 2.4h26q1.9.1 3.6-.1 3-1.5 6-2.4 7-2.1 14-2.9c7.2-.8 14.5-.4 21.7-.6q8.4-.3 16.6-1.6" class="b"/><path d="M8.5 116.2c9.3-1.7 18.8-.7 27.9 1.7 6.1 1.7 13 3.5 17.4 8.4 1.3.5 3 .2 4.3.3 9.2-11.6 26.9-7.4 37.5 0H126c2 0 4.1-1.2 6.1-1.5q5.6-1.5 11.3-2.1c7.5-.9 15.1-.7 22.7-1.3 5.8-.4 11.6-1.6 17.4-2.5" class="b"/><path d="M8.5 114.2c9.2-2 18.9-.7 27.9 2 5.8 1.9 12.1 3.8 16.5 8.3h4.4c1-.3 1.8-1.6 2.6-2.3q1.6-1.3 3.4-2.4c8.2-4.4 18.2-2.6 26.2 1.2a44 44 0 0 1 6 3.4h35.7c5-.6 9.9-1.6 14.8-1.9 6.7-.5 13.4-.5 20-1.4 6-.8 11.7-2.5 17.5-3.6" class="b"/><path d="M8.5 112.5c12-3.1 24.6.4 35.7 5.2q2.7 1.2 5.2 2.9c1 .7 2.1 2 3.5 1.7 5.8 0 3.6.7 7.8-2.8 5.2-4 12-5 18.3-3.7q5.5 1 10.5 3.6c1.7.7 3.4 2.2 5.2 3h56.5q5.3.1 10.5-.5c7.5-1 14.5-4.1 21.8-5.8" class="b"/><path d="M8.5 111c11.1-3.4 22.8.1 33 4.5q4.6 2 8.8 4.7 4 .1 7.8-.1c9-9.3 23-7.7 33.1-.9l1.7 1h72.3c2-.1 4.2.2 6.1-.2 4-1.9 8-4 12.2-5" class="b"/><path d="M8.5 109.8c12.4-4.3 25.5 1 36.6 6.6l2.6 1.5c1.3.3 3 0 4.3.1 2.3 0 4.8.3 7-.1 9.3-8.5 21.8-7 31.3.1h85.3c1-.2 1.9-1 2.7-1.4q2.4-1.6 5.2-2.5" class="b"/><path d="M8.5 108.8c8.2-3.3 17.4-1.6 25.3 1.8l7 3.2c1.3.7 2.8 1.7 4.3 2.1h14.8q1.3-.8 2.6-1.7a21 21 0 0 1 7.8-3.2 22 22 0 0 1 16.6 4.6c1.5.6 3.5.2 5.2.3q44 .2 87.9 0 1.6-1.4 3.5-2.2" class="b"/><path d="M8.5 108.3a28 28 0 0 1 22.6.6q3.2 1.4 6.1 3 1.7 1.1 3.5 1.9H59c1 0 2.4.2 3.5-.3a17 17 0 0 1 20.9 0q1.2.5 2.6.3h4.3q3.3-1.7 7-1.6c3-.1 5.9.8 8.7 1.6h77.5" class="b"/><path d="M8.5 108c8.2-4.7 18.6-2.3 26.1 2.8q1.1 1 2.6.9h27c.5 0 1.4-.5 1.8-.7q1.6-1 3.4-1.4c3.6-.8 7.6-.2 10.5 2h5.2c1 0 1.8-.9 2.6-1.3 4-2 8.8-2 13-1.2q3.8 1 7 2.6h75.7" class="b"/><path d="M8.5 108.3c5-3.6 11.7-4 17.4-1.8q1.9.7 3.5 1.6c.8.5 1.7 1.3 2.6 1.4h36.6q2.2-.4 4.3-.3 2.6.4 5.2.3c1.4 0 3.1.4 4.4-.4q3.5-2.7 7.8-3.4c4.4-.9 9-.4 13 1a31 31 0 0 1 5.3 2.5c1 .5 2.4.3 3.5.3h35.7c2-.1 4-.8 6-.7q1.9 0 3.5.3 1.8.4 3.5.4h22.7" class="b"/><path d="M8.5 107.4h2.6l2.6-1.4a15 15 0 0 1 10.5.2l2.6 1.2h9.6a16 16 0 0 1 8.6 0h34c8.8-7.6 22.2-6.3 31.3 0h34c1.5.1 3-1 4.3-1.3a22 22 0 0 1 13 0c1.2.3 2.4 1 3.6 1.3h18.3" class="b"/><path d="M8.5 105.3h22.6c1.2-.1 2.4-1 3.5-1.2q2.6-.7 5.2-.7c3.3-.1 6.5.9 9.6 1.9h27c7-5.8 16.7-7.5 25.3-4.9a33 33 0 0 1 7 3c1 .6 2.1 1.7 3.4 1.9h23.5l9.6-.1q3.1-2.1 7-3 4.7-.9 9.5.2c2.5.5 4.7 1.8 7 2.9h14.8" class="b"/><path d="M8.5 103.1h20a25 25 0 0 1 21-1.2c1 .3 2.2 1.1 3.4 1.2h18.3c1 0 2.4.2 3.5-.2q2.8-2.2 6-3.6a30 30 0 0 1 27 .8c1.8.8 3.5 2.2 5.3 3h18.2q1.8-.4 3.5-.4 1.8 0 3.5.4h7.8c6.9-5.5 17.2-4.9 24.4-.3 1.6.7 3.5.2 5.2.3h7.9" class="b"/><path d="M8.5 101h15.7q1.9.2 3.5-.7a30 30 0 0 1 25.2-.5l2.6 1.2h15.7q1.5.2 2.6-.7c12.5-9 27.8-8.4 40 .7h14c.8-.1 1.8-.7 2.6-1q2.5-.8 5.2-.8c2.5-.1 4.7.8 7 1.8l5.2-.1c6.4-5.6 16.4-4.7 23.5-.8 1.4 1.2 3.5.8 5.2.9h7" class="b"/><path d="M8.5 98.9H25A42 42 0 0 1 35.6 95a33 33 0 0 1 20 2.3c1.1.4 2.3 1.4 3.5 1.5l12.2-.1a35 35 0 0 1 43.5 0H126a18 18 0 0 1 14.8-2.1c1.6.4 3 1.6 4.4 2.2h3.5q1-.5 1.7-1.2a17 17 0 0 1 9.6-2.9 25 25 0 0 1 13 3.5c.4.3 1.3.6 1.8.6h8.7" class="b"/><path d="M8.5 96.7H25a37 37 0 0 1 23.5-4.4 33 33 0 0 1 11.4 4c.3.3 1.2.6 1.7.4h7.8c13.3-10.8 32.1-11 45.3 0h9.6c6-4.5 15.8-5.6 21.8-.3 1 .6 2.3.3 3.4.3 1-.2 1.8-1.2 2.6-1.7q2.9-1.6 6.1-2.1c5.8-.8 11.6 1 16.6 3.8q4.3 0 8.7 0" class="b"/><path d="M8.5 94.3q1.3.5 2.6.3H26c.9-.1 1.9-.8 2.6-1.2q2.2-1.2 4.4-2c5.5-2 11.6-2.6 17.4-1.7q4.6.7 8.7 2.9 1.4.7 2.6 1.7c1.6.6 3.6.2 5.2.3 1.8.2 3-1.8 4.4-2.6a36 36 0 0 1 40 0c1.2.7 2.3 2 3.5 2.6h4.4l3.4-.1q2-1.6 4.4-2.6c6.7-3.1 15.4-2.7 20.9 2.7h2.6c5.5-5 13.4-4.8 20-2.3q2.2.9 4.4 2c1 .5 2.3.2 3.4.3h5.3" class="b"/><path d="M8.5 90.7c1.4.6 2.9 1.6 4.4 1.8h14.8q2.4-1.7 5.2-3c8.7-3.9 22.4-4.3 29.6 2.9h4.3a28 28 0 0 1 13-7.6 34 34 0 0 1 34 7.7h6.1c1.3-.3 2.4-1.4 3.5-2q3-1.6 6-2.6c5-1.2 10.4-.9 14.9 1.4q2 1 3.5 2.7c1 .7 2.4.5 3.4.3 4.9-5 13.1-4.2 19.2-2l4.4 1.9c1 .4 2.3.2 3.4.3h5.3" class="b"/><path d="M8.5 87.6q4.3 1.6 8.7 2.7h12.2a29 29 0 0 1 20.9-5.8c4.5.5 9.3 2 12.2 5.6q1.7.5 3.5 0a25 25 0 0 1 13-8c11.6-3.4 25.8-1.2 34 8.1q2.6.1 5.2.1c1-.2 1.8-1 2.6-1.5q2.5-1.5 5.2-2.6c7.5-2.9 17-2 22.7 4.1h2.6c5.2-5.6 14.5-4 20.9-1.3 1 .4 2.2 1.3 3.4 1.3h7.9" class="b"/><path d="M8.5 84.8c4.3 1.4 8.9 1.8 13 3.3q4.9.3 9.7 0c7.4-7 24.8-9.2 31.3.1h1.7c1-.5 1.8-2 2.6-2.7q2.8-2.5 6.1-4a37 37 0 0 1 27-1.7c4.6 1.6 9.2 4.2 12.2 8.2q1.3.3 2.6.2t2.6-.2c2-1.7 4.6-2.8 7-3.8 6.3-2.7 14-2.6 20 .7.8.4 2 1.2 2.6 1.9.3.4 1.2 1.2 1.8 1.4 1.4.1 2.4 0 3.4-1.2q3.2-2.2 7-2.4 5.3-.3 10.5 1.5c1.7.5 3.4 1.7 5.2 2.1h8.7" class="b"/><path d="M8.5 82.3c4 1 8.2 1.2 12.2 2q2.3.7 4.4 1.6 2.2.2 4.3.2c3.2 0 2.8.1 5.2-2q2.4-1.6 5.2-2.7a23 23 0 0 1 18.3.7q1.5.8 2.6 2a6 6 0 0 0 1.8 2h.8c1-.8 1.8-2.3 2.6-3.1q2.4-2.2 5.3-3.6a37 37 0 0 1 27.8-2q5.4 1.6 9.6 5.3c3.6 3.3 1.5 3.5 7 3.3q3-2.6 7-3.8 3-1.2 6-1.9c6.8-1.1 14.5.4 19.2 5.7h2.6c5.6-5.9 16.2-3.4 22.6 0q5.2.2 10.5 0" class="b"/><path d="M8.5 80.1c4.6 1 9.4.6 14 1.6q1.7.4 3.4 1.2c.8.3 1.7 1.2 2.6 1h5.2c6.5-7.1 22.5-9.4 28 0h.8c1.3-1 2-3 3.5-4 4-3.3 9-5 13.9-6a34 34 0 0 1 26.1 5q1.9 1.4 3.5 3.2a6 6 0 0 0 1.7 1.8h3.5c2.5-2.6 6.2-3.6 9.6-4.8 6-2 12.7-1.5 18.3 1.5 1.6.7 2.9 2.3 4.3 3.3l2.6-.1c5.8-5.7 16.2-3.1 22.7.1h11.3" class="b"/><path d="M8.5 78.2c4.9.7 10 0 14.8.8q2.3.5 4.4 1.5c.8.4 1.6 1.3 2.6 1.3h4.3c1.3-.7 2.3-2 3.5-2.8q3.1-2 7-2.8c5.5-1.2 12.9-.3 15.6 5.3l.9.3.9-.5c2.6-5.7 9.2-7.7 14.8-9.3 11.6-3 25.7-.3 33 9.8q1.8.1 3.5-.1c2.3-2.4 5.7-3.3 8.7-4.2 7.6-2.6 17-1.8 22.7 4.3h2.6c4.1-4 10.4-4 15.6-2.7q2.3.5 4.4 1.4c1.1.4 2.3 1.2 3.5 1.3h12.2" class="b"/><path d="M8.5 76.6c7.5.6 16.3-2.4 22.6 3 1.7 0 3.6.3 5.3-.1 4.5-5.2 12.7-7.1 19.1-4.6q2 1 3.5 2.5l1.7 2.3h.9c2.4-6 9-8.3 14.8-9.8 11.4-2.9 26.3-.7 33 9.8h3.6c2.5-2.6 6.2-3.4 9.5-4.2q6.1-1.9 12.2-.5 3.3.8 6.1 2.6c2.5 2.1 1.8 2.2 5.2 2 3.6-3.6 9.2-3.8 14-3q3 .4 6 1.6c1.2.4 2.4 1.2 3.5 1.5h14" class="b"/><path d="M8.5 75.3c6.1.2 12.2-2.4 18.3-.7q1.8.4 3.5 1.3c.8.5 1.7 1.4 2.6 1.6h4.3c3.3-3.7 8.2-5.6 13-5.5 4 0 8.1 1.7 9.7 5.5h.8c1.1-.8 1.7-2.5 2.6-3.5 2.5-2.7 6.2-4.1 9.6-5.3a38 38 0 0 1 24.4 0c4.4 1.7 8.8 4.3 11.3 8.4 1 .7 2.4.4 3.5.4q1.4-.6 2.6-1.6 2.9-1.4 6.1-1.8c5.8-1.4 11-2 16.5 1 1.3.5 2.3 1.8 3.5 2.4h2.6c7-5.8 17-3.7 24.4 0h15.7" class="b"/><path d="M8.5 74.5c3.3 0 6.4-1.3 9.6-2 5.3-1.3 11.4-.8 15.7 3H38q1.4-1.1 2.6-2.2 2.4-1.7 5.2-2.5a14 14 0 0 1 10.5 1c1.4.9 2.4 2.5 3.5 3.6h.8c1.4-2.1 3-4.5 5.3-5.8q5.3-2.8 11.3-4c11.1-2.3 24.3.2 31.3 9.8h3.5c1.4-.7 2.8-1.7 4.4-2q3.4-.9 7-1.2c4.7-1 10.2-.3 13.8 3.2h3.5c5-4.4 12.2-4.6 18.3-2.9q2.8.8 5.2 2c.8.3 1.7 1 2.6 1h16.6" class="b"/><path d="M8.5 73.3H13q3-1.6 6-2.6c5.2-1.6 11.7-1.4 15.7 2.5 1.7 0 3.6.3 5.2-.2a14 14 0 0 1 15.7-3.3q1.5.7 2.6 2l.9 1.1q.8.5 1.7.5c1.2-1.8 2.6-3.8 4.4-5 3-2.1 6.8-3.1 10.4-4 11.1-2.6 25.1-1 32.2 8.7 1.4.5 3 .2 4.4.3 1.4-.4 2.8-1.4 4.3-1.6 3.2-.5 6.4-.5 9.6-.8q3.8 0 7 2 1.2.6 2.6.4 1.3 0 2.6-.2c4.6-4.2 11.6-4.6 17.4-3.4q3.1.8 6.1 2c1.1.5 2.3 1.4 3.5 1.6h18.3" class="b"/><path d="M8.5 71.1h7c1.4-.5 2.8-1.6 4.3-2.1q4.2-1.7 8.7-1.2 4 .5 7 3c1.6.6 3.5.2 5.2.3 1.8-1.4 3.8-3 6.1-3.5C51 66.3 56.5 67 59 71h1.7c.6-.3 1.4-1.4 1.8-2q1-1.3 2.6-2.5c3.3-2.2 7.4-3.2 11.3-4 11-2.4 23.9-.5 31.3 8.5h6.1q3-1 6.1-.8c2.3.2 4.7 0 7 .3 2.5 1 5 .4 7.8.5a23 23 0 0 1 20.9-3.3q2.8.8 5.2 2c1 .5 2.3 1.5 3.5 1.3h19.2" class="b"/><path d="M8.5 69h6.1q1.7.2 3.5-.2a15.5 15.5 0 0 1 19.1.2h5.2c4.4-4.3 12.6-5 16.6 0h2.6c2.7-4.2 6.7-5.7 11.3-7 7-1.9 14.7-2.5 21.8-.5a28 28 0 0 1 11.3 6.2q1 1.4 2.6 1.3h23.5a24 24 0 0 1 20.9-3.8q3.1.8 6 2.3c1.2.4 2.3 1.6 3.6 1.5h20.9" class="b"/><path d="M8.5 66.9h9.6c1.6.2 2.9-1.5 4.3-2a16 16 0 0 1 7.9-1.4c2.8.2 5.7 1.3 7.8 3.2 1.4.3 3 .1 4.3.2q1.6 0 2.7-.9t2.6-1.3A11 11 0 0 1 59 66.9h3.5c1.2-1.4 2.6-3 4.3-3.7a49 49 0 0 1 9.6-3c10.3-2.2 22.7-1.4 30.5 6.5 7.5.3 15 0 22.6.1a27 27 0 0 1 28.7-1.3c1 .6 2.2 1.6 3.5 1.4h21.8" class="b"/><path d="M8.5 64.7h11.3q1-.2 1.8-.9 1.6-1 3.4-1.7a15 15 0 0 1 14.8 2.6H46c3-2.1 7-2.7 10.5-1.3l2.6 1.3h1.7c1.5 0 3.4.4 4.4-1a15 15 0 0 1 5.2-2.5q3.5-1.2 7-1.9c10-2 21.6-1.6 29.6 5.4h20.9a28 28 0 0 1 28.7-1.5c1 .5 2.2 1.7 3.5 1.5h23.5" class="b"/><path d="M8.5 62.6c1.4 0 3-.4 4.4-.1 2.5.3 5.2 0 7.8.1 1-.2 1.8-1.1 2.6-1.6q1.6-.9 3.5-1.5c5-1.4 10.9-.5 14.8 3q3.5.1 7 .1a10 10 0 0 1 9.5 0h7c1.2.2 2.4-.7 3.4-1q3-1.1 6.1-2c10.6-2.7 23-3.8 32.3 3h20a27 27 0 0 1 27.9-1.7c1 .5 2.1 1.7 3.4 1.7h25.3" class="b"/><path d="M8.5 60.5h13a17.5 17.5 0 0 1 21-1.2c.7.6 1.6 1.4 2.6 1.2h27.8c5-1.2 9.8-2.7 14.8-3.3q6.1-1 12.2.3 3.7.8 7 2.7c1.6.5 3.5.2 5.2.3h14.8c3.5-2 7.3-3.7 11.3-4.2a26 26 0 0 1 17.4 4q1.7.3 3.5.2h24.4" class="b"/><path d="M8.5 58.3h13c6.1-5 14.9-5.9 21.8-2.1 1.2.5 2.3 1.6 3.5 2.1h38.3q3.3-1.5 7-2.1 5.7-1.1 11.3.3 2.2.6 4.3 1.7c1.7.3 3.6 0 5.3.1h14.8c2.5-1.1 5-2.6 7.8-3.1A25 25 0 0 1 152 57l2.6 1.3h28.8" class="b"/><path d="M8.5 56.2h13c7.6-7 20.1-6.3 28 0q19.5.1 39.1 0 1.4 0 2.6-.2a19 19 0 0 1 17.4 0q1.7.3 3.5.2h17.4c1.5-.3 2.9-1.4 4.4-1.8a23 23 0 0 1 18.2 1.3l.9.5h30.5" class="b"/><path d="M8.5 54h12.2c9.5-8 22.4-6.9 32.2 0 4 .3 8.2 0 12.2 0H93a18 18 0 0 1 15.6-.7l1.8.8H133a22 22 0 0 1 18.3-.1h32.2" class="b"/><path d="M8.5 52c4-.1 8.2.2 12.2-.2 9.7-8.6 23.2-7 34-1.4q1.6.9 3.4 1.6h20.1q2.2-.5 4.3-.7 2.2.1 4.4.7h7.8a16 16 0 0 1 16.5-.1q3 .1 6.1 0h20.9q3-.5 6.1-.5c1.4 0 3 .6 4.4.6h34.8" class="b"/><path d="M8.5 49.8h12.2c11.3-9.6 24.7-7 37.4-2.3q3.9 1.4 7.9 2.3h11.3c1.2.2 2.4-.5 3.5-.8q3.4-1 7 .4c1 .6 2.3.4 3.4.4q2.6.2 5.2-.1c3.8-2.6 8.8-3 13-1.4 1.2.4 2.4 1.3 3.6 1.5h70.5" class="b"/><path d="M8.5 47.7c4.3-.1 8.8.2 13-.1a31 31 0 0 1 22.7-6.7c6.5.4 12.8 2.3 19.2 3.8q3 .7 6 1.6 1.4.6 2.6 1.4h7a13 13 0 0 1 7-1.5q1.8.3 3.4 1 1.2.7 2.7.5h5.2c.8-.2 1.8-1 2.6-1.3a14 14 0 0 1 10.4-.3c1.2.3 2.4 1.2 3.5 1.6h69.6" class="b"/><path d="M8.5 45.6h14c9.6-8.3 22.9-8.2 34.8-6l8.7 1.7c3.2.4 6.5 1.6 8.7 4.2h5.2c.9 0 1.8-.7 2.6-1a11 11 0 0 1 7.8.3q1.3.8 2.7.8h6a14 14 0 0 1 14-1c.7.4 1.7 1.1 2.6 1h67.9" class="b"/><path d="M8.5 43.4h13.1q1.3.1 2.6-.2 4-3.2 8.7-5 6.4-2.2 13-2.4 8.8-.1 17.5 1.4c6.4.8 9.3 1.2 13.9 6.2h4.3q2.9-1.7 6.1-1.6 2.8.2 5.2 1.6h7.9a13 13 0 0 1 14.8 0h54.8c2 .2 4-.6 6.1-.5q1.8 0 3.5.4 1.7.2 3.5.1" class="b"/><path d="M8.5 41.3h14.8c.8 0 2 0 2.6-.4l3.5-2.4q4.9-2.8 10.5-4a69 69 0 0 1 22.6-.7c7 .7 12.1 1.3 16.5 7.5h4.4a8 8 0 0 1 5.2-1.6q2.8 0 5.2 1.6h7.8c1.2-.3 2.4-1.2 3.5-1.5a14 14 0 0 1 9.6.3q1.2.8 2.6 1.2H167c4.1-1.2 8.6-2.4 13-1.1 1.1.2 2.3 1.3 3.5 1" class="b"/><path d="M8.5 39.2h18.2c1-.3 2-1.2 2.7-1.7q5.2-3.5 11.3-5c7-2 14.5-2.1 21.8-1.6 8 .4 13.1 1.4 18.3 8.2h3.4c1.4-.6 2.9-1.4 4.4-1.5q2.7-.1 5.2 1c1 .7 2.4.5 3.5.5h5.2c1 .2 1.9-.5 2.6-.9q2.2-1 4.4-1.1 4.6-.3 8.7 2h44.4q3-1.2 6-2c4.9-.8 10.8-1.4 14.9 1.8" class="b"/><path d="M8.5 36.6q1.2.6 2.6.4h17.4q1-.2 1.8-.9a35 35 0 0 1 10.4-5.3c7.5-2.5 15.6-3 23.5-2.4 5.6 0 10.5 1.2 14.8 5l1.8 1.9c.2.5 1.1 1.5 1.7 1.7H86a8 8 0 0 1 4.3-1.4q1.8 0 3.5.6c.8.2 1.7.9 2.6.8h7.8q1 0 1.8-.5 1.2-.6 2.6-1c3.5-.8 7.3-.3 10.4 1.4 4 .3 8.2 0 12.2.1h25.3c1.7-.3 3.5-1.3 5.2-1.7q4.7-1.5 9.6-1.8c4-.2 8.7-.1 12.2 2.4" class="b"/><path d="m8.5 33.6 2.6 1.3h20.1c8.8-7.3 21-9.3 32.2-9 2.8.1 5.9 0 8.7 1q4.3 1.3 7.8 4.2c1.2 1 2.3 2.7 3.5 3.8h3.4c2-1.4 4.7-1.7 7-1.1 1.2.2 2.3 1 3.5 1h9.6q1.2-.6 2.6-1a15 15 0 0 1 5.2-.5c2 0 4.1 1 6 1.6h30.5l1.8-.7c8.5-3.2 22.2-6.1 30.5-1.3" class="b"/><path d="m8.5 30.8 3.5 1.9h20.9c1.2-.4 2.3-1.6 3.5-2.2q2.4-1.6 5.2-2.8a54 54 0 0 1 21.7-4c3.2 0 6.5 0 9.6 1q4.3 1.4 7.8 4.4c1.3 1 2.4 2.6 3.5 3.6h3.5q3.2-2 7-1c1.1.2 2.3.9 3.4 1h10.5q3-1.2 6-1.2c2.5-.1 4.8.7 7 1.2h23.5q2.3-.6 4.4-1.5c9.9-3.3 24.3-6 34-1" class="b"/><path d="m8.5 28.3 4.4 2.2c2.2.3 4.6 0 7 .1h15.6c6.6-5.4 15-8 23.5-8.6 4.3-.2 8.8-.5 13 .5a21 21 0 0 1 12.2 7.7q.8.5 1.8.4l2.6-.1c3.2-2.2 7.1-1.2 10.4.1h12.2a17 17 0 0 1 7-.6c1.4.2 2.9.7 4.3.6H140c2.6-.6 5.2-1.8 7.8-2.5 10.8-3.3 25.1-5.5 35.7-.3" class="b"/><path d="M8.5 26q2.8 1.1 5.2 2.5h24.4c7-5.8 16.3-8 25.3-8.3 8.7-.5 15.9 1.5 21.7 8.3h3.5l1.7-.9c3.2-1.2 6.7-.5 9.6.9h36.6q3-1 6-2c12.8-4.5 28.4-7 41-1" class="b"/><path d="M8.5 23.8q2.8 1 5.2 2.5h26.1c1.8.3 3-1.5 4.4-2.2q3.7-2.2 7.8-3.4A51 51 0 0 1 71.2 19q5.7.9 10.4 4.2c1.3.9 2.3 2.3 3.5 3.2h3.5l1.7-1c3-1.1 6.6-.7 9.6.5q1.7.7 3.5.5h31.3c2-.5 4.1-1.5 6.1-2.2 13.5-5.2 29.3-7.1 42.7-.6" class="b"/><path d="M8.5 22q2.7 1 5.2 2.2h8.7q5.7.2 11.4-.2 4.3.3 8.7.2h1.7c1.3-.4 2.3-1.6 3.5-2.1q3-1.7 6-2.6 6.5-1.9 13.1-1.8c6.3-.2 13.3 1.6 17.5 6.5h4.3l1.7-1q3.4-1.2 7-.5c1.8.2 3.5 1 5.2 1.5h32.2q2.7-1 5.2-2.1a60 60 0 0 1 21.8-5c7.5-.1 15.1 1.3 21.8 4.8" class="b"/><path d="m8.5 20.3 4.4 1.8h16.5q2.6-.7 5.2-1a18 18 0 0 1 5.2.3q1.3.4 2.6.7h6.1c5-3.6 11.3-5 17.4-5.2 6.3-.5 12.7 1 17.5 5.2h4.3l1.7-1q3.9-1.4 7.9-.8 2.2.3 4.3 1.1 1.3.7 2.6.7h30.5a3 3 0 0 0 1.7-.5l3.5-1.7c13.8-6.5 30-7 43.6.5" class="b"/><path d="M8.5 19q1.3.6 2.6 1h10.5l7.8-.1q3.8-1.5 7.8-1.7 4.6-.4 8.7 1.6c1.7.3 3.6 0 5.3.2l2.6-.1a20 20 0 0 1 6-2.5A29 29 0 0 1 79 18.7l1.7 1.1q2.6.3 5.3.2 1-.1 1.7-.7 1.6-.9 3.5-1.1a21 21 0 0 1 11.3 1.1c.8.3 1.8.8 2.6.7h31.3c15-9 31.9-9.7 47-.7" class="b"/><path d="M8.5 17.8h19.2q1.3 0 2.6-.6 1.6-.6 3.4-1 5.7-1.5 11.4-.3c1.8.3 3.5 1.3 5.2 2h9.6q3.4-1 7-1.3a24 24 0 0 1 9.5 1.2h3.5q2.6.2 5.2-.1a18 18 0 0 1 8.7-2.2q5.5 0 10.4 2.2c1.7.3 3.6 0 5.3.1h27.8c1.6-.3 3-1.6 4.4-2.2a39 39 0 0 1 37.4.4c1.4.7 2.8 2 4.4 1.8" class="b"/></svg>