<svg xmlns="http://www.w3.org/2000/svg" id="a" width="1920" height="2400" viewBox="0 0 192 240"><defs><style>.b{fill:none;stroke:#fff;stroke-miterlimit:10;stroke-width:.3px}</style></defs><path d="M0 0h192v240H0z" style="stroke-width:0"/><path d="M10.7 191.2c4.5-1.9 10-3.5 14.4-.7 3.2 1.9 5.8 4.8 8.5 7.3 2.8 2.4 5.3 5.4 8.5 7.4 3.8 2.4 8.6.8 12.7 2.1q5.6.9 10.2 4.2c2.2 1.5 4.3 3.3 6.8 4.4 4.8 1.5 9.6-1.5 14.4-1.7q2.2-.3 4.3-.4 2.2 0 4.2-.3c4.8-1.3 9.3-4.8 14.4-4 2 .4 4 1.6 6 1.8 4.2.5 8-1.9 11.9-3.2 2.7-1 5.5.2 7.6 2 5.7 4.3 10.1 10.3 16.1 14.4 4.5 3.3 9.6 6.4 15.3 6.7 2 0 4 .4 6 .1 3-.5 6.1-1.6 9.3-1.6" class="b"/><path d="M10.7 183.5c3.1.3 6.4.5 9.3 1.7 6.3 2.7 11.1 7.8 16.2 12.3 2.9 2.8 6.1 5.7 10.1 6.8 2.5.6 5.3.8 7.7 1.7q6.2 2.3 11.9 5.6c6.6 3.8 8.7 1.5 15.2 0 4.3-1 8.5.6 12.8.6 5-.2 9.4-3 14.4-3q2.2.1 4.3.7t4.2 0c8.5-1.7 11.5-7.4 19.5.2 8.6 8.3 14.5 13 26.3 16.4 9.6 3 8.6 3 18.7 1.2" class="b"/><path d="M10.7 176c3 1.7 6.4 3 9.3 4.9q6.6 4 12.8 8.3c3.8 3 7 6.9 11 9.7 3.6 2.8 8 4.1 11.9 6.2s8 5.3 12.7 6c6.7 1.1 10.8-5.8 17.8-3.5 7 2.4 8.7 3 16.2 1.4 2.2-.4 4.5-1 6.8-.9q1.6.1 3.4.4 2.1.2 4.2-.2c5-.8 10.3-4 15.3-1.7 3.5 1.7 6.6 4.3 10.2 6 3 1.5 6.2 2.5 9.3 3.9q3.8 1.2 7.7 2.7c9 3.6 11.2 8.3 22 5.8" class="b"/><path d="M10.7 170.7c4.2 2.6 8.3 5.5 12.7 7.6 3.4 1.6 7.2 2.4 10.2 4.7 4.6 3.8 8.2 8.8 12.7 12.8 3.3 3.2 7.5 5.1 11 7.8 4 2.8 8.5 6.6 13.7 5.3 6.5-1.9 9.3-8 17-4 7.6 4.3 11.3 3 19.5 2 2.2-.4 4.5.2 6.8.1q3.7-.4 7.6-1.3c9.1-2 9.8 0 17.8 2.1 2.8.6 5.7.5 8.5.8q4.8 1 9.4 2.6c8.8 3.6 13 11 23.7 9.7" class="b"/><path d="M10.7 166.9c3.1 1.4 6.1 3.4 9.3 4.6 3 1.2 6.3 1.7 9.4 2.4 4.5.7 7.5 4.4 10.2 7.8 3.3 4.2 6.4 8.8 10.2 12.6q3.2 2.8 6.7 5.2c3 2.3 5.9 4.9 9.4 6.2 10 3.2 12.4-10 23.7-2.6 6.4 4 11.8 2.8 18.7 2.2 2.3-.2 4.6.3 6.8 0 4.9-.5 9.6-2 14.4-2.5 2.8-.2 5.7.3 8.5.2q4-.3 7.7-.8 3.4-.4 6.8.6c5 .7 9.5 3.1 13.5 6 4.6 3.1 9.7 6 15.3 6.7" class="b"/><path d="M10.7 163.5c4.3.6 8.4 2.3 12.7 2.8 5.8.8 10.7.7 14.5 5.8 3.1 4 5.7 8.5 8.4 12.7 2.1 3.2 4.5 6.7 7.7 8.9 4.5 3.2 8.7 7.8 14.4 8.3 5.7.2 10.3-5.4 16.1-3.9 2.4.6 4.6 2 6.8 3q3.6 1.6 7.7 2.2 5 .5 10.2.2 9.4.3 18.6-2 5.2-1.6 10.2-3.4c3.5-1.3 7.3-2.7 11-2.1 5 1 10 2 14.5 4.5 5.8 3.1 11.3 7.5 17.8 9" class="b"/><path d="M10.7 161.8q8.5-1.2 17 .3c3.6.6 7.7 1.1 10.2 4.2 5.4 5.9 8.4 13.6 13.5 19.7 1.8 2 4 3.4 6 5.1 4 3.3 8.8 7.6 14.4 6 6.4-2.2 10.7-2.8 17 .3 2.7 1.3 5.6 1.8 8.5 2.5q5 1.3 10.2 1.7 3.3.2 6.8 0c4-.2 8-.2 11.8-1.4 5.4-1.7 9.5-5.8 14.5-8.2q3.6-1.6 7.6-.8l8.5 2.3q5.8 1.4 11 4.2c4.4 2.2 8.7 5 13.6 5.8" class="b"/><path d="M10.7 162.4q3-.8 6-2 5.4-1.5 11-.4l6 .8a8 8 0 0 1 5 2.2c4.8 4.3 7.8 10.2 11.9 15q2 2.3 4.2 4l5.1 5c3 3 6.5 6.7 11 6.6 2.3-.2 4.6-.9 6.8-.6 4.4.2 8.6 1.8 12.8 3q3 .3 6 .8 4.1 1.2 8.4 2.2 2.5.6 5 .6 2.3-.1 4.3-.3c3.4 0 7 0 10.2-.8q4.8-1.5 8.5-5c2.6-2.2 5.2-4.8 8.5-6 3.1-1 6.4.1 9.3 1.4q3.8 1.3 7.7 2 4.8 1 9.3 3c4.2 2.1 8.7 4.2 13.6 4" class="b"/><path d="M10.7 165c2.5-.2 4.6-1.8 6.8-2.9q4-1.8 8.5-2.2 3.3-.3 6.8-.6a9 9 0 0 1 6.8.8c4.4 2.4 7.4 6.7 11 10.2 1.6 1.6 3.6 3 5 4.7 3.1 3.4 5.7 7.5 8.6 11 6.6 8 7 4.2 15.2 6q5.6 1.4 11 2.3h5.2q3.4.6 6.8 1.5 3.3 1 6.8 1.3c2.5-.1 5-.6 7.6-.5a26 26 0 0 0 8.5-1.3q4.3-1.8 7.6-5c3.3-3.1 7-7.1 12-6.5 2.8.4 5.5 2 8.4 2.7 4 1 8 1.6 11.9 2.8q3 1 6 2.4 4.8 1.8 10.1.6" class="b"/><path d="M10.7 167.3c2.3-.2 4.1-1.7 6-3q2.4-1.6 5-2.7c3-1.3 6.3-2 9.4-3 2.2-.6 4.4-2 6.7-2.1 5.4-.5 9.3 3.9 12.8 7.2 1.6 1.7 3.6 3.4 5 5.2 3.7 4.6 6.6 10 10.3 14.5 4.4 5.6 6.4 4.6 12.7 5.9q6 1.2 11.9 1.6 4.3-.2 8.5.5c3.3.6 6.7 1.7 10.1 1.9q2.6-.1 5.1-.4c4.6-.3 9.5-.5 13.6-2.8 5.5-2.7 9.7-8.6 16.1-8.9 3 0 5.7 1 8.5 1.5q5.6 1 11 2.6c7.5 2.3 9.5 4.7 18 2.2" class="b"/><path d="M10.7 168c3.3-1 5.5-4 8.5-5.6 3.4-2 7.4-3 11-4.4 4.4-1.8 8.4-7 13.6-5 4 1.8 6.5 5.7 9.3 8.9 5.8 6.4 9.7 14.8 17 19.8 8 4.6 17.5 3.7 26.3 4.6 4.6.4 9 1.8 13.6 2q5.2 0 10.2-1 4-.5 7.6-2c6-2.2 11.5-5.8 17.9-6.5a36 36 0 0 1 17 2.5c7.6 3 10.3 4.4 18.6 1.8" class="b"/><path d="M10.7 167.6c3-1.6 5-4.5 7.6-6.4 3.3-2.4 7.4-3.5 11-5.3a20 20 0 0 0 5.2-3.7c2-1.9 4-4.2 6.7-4.9 8.2-1.7 13.3 20.4 30.6 29.2 5.6 4 11.4 3.3 17.8 3.8q6.8.8 13.6 1.2c3.7.2 7.4 1 11 .8q4-.6 7.7-1.4 6-1 11.9-2c4.7-.6 9.1-2.5 13.6-4.1 4-1.4 8.7-1 12.7.6 3.6 1.6 7 3.7 11 4.3 3.4.4 6.9-.3 10.2-1" class="b"/><path d="M10.7 166.4c3.1-2.3 5.3-5.7 8.5-8 3.4-2.6 7.5-4.3 11-6.9q2.9-2.2 5.1-5c1.9-2 3.9-4.8 6.8-5.2 4.3 0 7.2 6.6 9.3 9.8q2.7 4.6 6 8.8 3 3.7 6.8 6.5 3.2 2.3 6.8 4.2c5.5 4.3 8.4 4.5 15.2 4.6 2.9 0 5.7.7 8.5.8 3.7 0 7.4-.9 11-1q2.2 0 4.3.3c1.4.2 2.9.6 4.3.4 3-.3 6.2-1.3 9.3-1.3q3.4-.2 6.8-.2c3.4.3 7 .7 10.2-.7 2.7-1.1 5-3 7.6-4.3 3.7-2 8.2-1.5 11.9.3 3 1.6 6 3.7 9.3 4.5 3.9 1 8 .5 12 .4" class="b"/><path d="M10.7 165.8c3.2-2.4 5.5-5.8 8.5-8.3 3.8-3.6 8.2-6.7 11.9-10.4 6.2-5.9 10.3-17.4 17.8-5.2 5.6 9 11.2 18.6 20.4 24.4q2.6 1.7 5 3.5a14 14 0 0 0 5.1 1.6q4.7.3 9.4.3 2.5.2 5 .2 2.7-.2 5.2-1.2c3.5-1.2 7.2-2.5 11-2q3.4.8 6.8.2 6.4-1.2 12.7-.3c5.4 1 8.8 1.6 13.6-1.8 4.5-3.3 7.6-6.2 13.6-4.7 3.8 1 6.7 3.7 10.2 5.4 4.4 2.1 9.6 2.1 14.4 2.7" class="b"/><path d="M10.7 165.7c3.3-2 5.7-5.3 8.5-8q6.6-6.4 12.7-13.1c3.2-3.3 5.5-7.7 9.4-10.3 3-1.9 5.8 1 7.6 3.3q4.8 6.5 9.3 13.2c5.1 7.4 11 16 20.4 18q5.5.9 11 .4 2.7.2 5.1-.7c3.6-1.5 6.7-4.1 10.2-5.7q2.5-1.1 5.1-1.2l3.4.3q3.5-.2 6.8-.3c3.4 0 6.8 1 10.2 1.4 2.2.5 4.5 1 6.8.5 6.4-1 10.1-8.4 17-8 4.9-.1 8.7 3.5 12.7 5.8 4.5 2.5 9.6 3.3 14.4 4.8" class="b"/><path d="M10.7 164.5c3.4-1.6 5.8-4.8 8.5-7.3q6.5-6.3 12.7-13c2.7-2.7 5-6 7.7-8.8 3.3-3.5 6-3.2 9.3 0 5.3 5.4 9.3 11.8 13.6 17.9C67 159.6 71 163 78.6 165c5 1.3 10.5 1.8 15.3-.4 2.4-1.2 4.6-3.1 6.8-4.8 3-2.3 6.2-4.8 10.2-5l6.7-.2c4.7 0 9 2.4 13.6 3 8 1.6 11-2 17-6.2 3.2-2 7.5-2.5 11-.9 3 1.4 5.6 3.9 8.5 5.5 4.4 2.4 9.2 3.9 13.6 6.1" class="b"/><path d="M10.7 161.7c3.4-1.4 5.7-4.5 8.5-6.7 4.2-3.7 8.7-7.1 12.7-11q3-3.2 6-6.5c1.4-1.6 3-3.3 5-4 2.6-.8 5 1.2 6.8 2.7q4.1 3.6 7.7 8c3.7 4.5 7.4 9.7 12.7 12.5q2.1 1 4.2 1.6l6 1.9c9.6 3 14.6-2 22-7 3.1-2 6.5-3.6 10.2-3.8q3.8-.8 7.7-.1c4 .9 7.7 3 11.9 3 8.7 1.4 11-2.9 17.8-6.6 8-3.6 11.8 1.5 17.8 5.6 4.3 2.7 9.3 4 13.6 6.8" class="b"/><path d="M10.7 158c3.3-1.3 5.6-4.3 8.5-6.2 3.8-2.9 8.1-5.2 11.9-8.2 4-3 6.8-8.6 11.8-9.8 2.3-.3 4.3 1.3 6 2.6l7.6 6.5c3.6 3.3 7.3 6.7 11.9 8.4q3 1 6 1.7 3.3 1 6.7 1.9c5.8 1.4 8.7-.2 13.6-2.9q5.7-3 11.9-4.8 4.6-1.4 9.3-2.4 4-.5 7.7.8 3 1 6 1.6l5.9.2c7.8.4 11.6-6.7 18.6-7.6 5.7-.6 9.4 4.5 13.6 7.4s9.3 3.7 13.6 6.3" class="b"/><path d="M10.7 154.6c3.3-1.2 5.6-4 8.5-5.8 3.6-2.5 7.5-4.4 11-6.9 5.8-4 10.4-13.6 17.8-6.3q3.7 3.5 7.7 6.2 4.7 3.7 10.2 5.5 3.7 1 7.6 1.7 4.2 1.2 8.5 1.7c6.2.6 8.4-2.3 13.6-4.3 4.3-1.6 9.1-1.5 13.6-2.6 3.7-1 7.1-3 11-3 2.8 0 5.7 1 8.5 1.1q2.2.1 4.2 0 3 .3 6-.3c6.3-1.2 11-8.2 17.8-6.6 5.2 1.4 8.3 6.4 12.7 9 3.7 2.2 8.1 2.5 12 4.4" class="b"/><path d="M10.7 151.5c3.2-1.2 5.6-3.8 8.5-5.5 3.6-2.3 7.5-4 11-6.5 6.5-4.6 9.8-11.7 17.8-4 6.8 6.8 12.3 7.4 21.3 9 4.7.9 9.4 3.2 14.4 2.7a16 16 0 0 0 6.8-2.4c2-1.3 4.3-2.6 6.8-2.8 7.3-.7 10.6 1.3 17.8-2.7q3-1.4 6-2 3-.4 5.9-.2l5-.2q3.5.1 6.9-.5c3.4-.8 6.3-3 9.3-4.7 6-3.7 10.7-2 15.3 2.9 7 7.3 8.6 6.7 17.8 9.5" class="b"/><path d="M10.7 148.6c3-1.3 5.6-3.5 8.5-5 3.6-2 7.5-3.6 11-5.7 2.2-1.2 4-3 6-4.5 3.7-2.6 7.7-1.6 11 1.2 7.1 5.8 8.3 5.1 17 5.4q3 .3 6 1.3c5.6 2.4 10.6 5.3 16.9 2.5 2-.9 4-2.3 6-3.4 3.8-2.2 8.4-1.6 12.7-1.5q3.5.2 6.8-1.2c2.5-1.2 5-2.8 7.6-3.8q3.3-1 6.8-1.4 3.3-.4 6.8-.4 4.5 0 8.5-1.8c3.1-1.5 6-3.9 9.3-4.8 7.1-2.5 11.7 4.3 16.1 8.6a29 29 0 0 0 13.6 6.6" class="b"/><path d="M10.7 146c3.3-1.2 6.2-3.3 9.3-4.7 3.4-1.6 7-2.8 10.2-4.5 2.1-1 4-2.6 6-3.8 4.4-2.5 8.7-1 12.7 1.5 6 3.4 7.4 2 13.6 2.1q4.1.3 7.6 2.5c5.5 3.5 10.6 6.7 17 3.2 2.3-1.2 4.5-3 6.8-4.1 4.4-2.5 9.5-2.9 14.4-3.5 4.7-.6 8.5-3.7 12.7-5.2q4.6-1.5 9.4-1.9 3-.1 6-.1 3.5-.4 6.7-2c5.3-3 12.1-7.2 17.8-2.7 2.8 2.1 5.1 5 7.7 7.4 3.6 3.2 7.8 6.3 12.7 7.3" class="b"/><path d="M10.7 143.2c3.3-.6 6.3-2.3 9.3-3.5 3.7-1.5 7.5-2.6 11-4.2 2.1-1 4-2.5 6-3.3 5-2.2 9.5-.7 14.4.7 3.3 1.1 6.8.2 10.2.7 8.4 1.3 13.5 12.5 23 8.7 2-.8 4-2.3 5.9-3.5q3.7-2.6 7.6-4.8c4.2-2.6 9-4 13.6-5.2 3-1 5.6-2.5 8.5-3.6a39 39 0 0 1 7.6-1.6c4.2-.8 8.7.3 12.8-1.1 3.5-1.1 6.5-3.5 10.2-4.4 2.7-.8 5.7-1.6 8.4-.4 3.5 1.4 6 4.5 8.5 7 4.1 3.6 8.1 8 13.6 9.2" class="b"/><path d="M10.7 139.6c3.2.2 6.3-1.1 9.3-2q5.6-1.8 11-3.8c2.1-.9 4-2.3 6-3 4.8-2.2 9.5-1.7 14.4-.8 3.1.7 6.3.4 9.4 1.2 7.7 2 12.3 12.4 21.2 10.2 3.2-.9 5.9-3 8.5-5 4.6-2.8 8.8-6.5 13.6-9.2 2.9-1.6 6.2-2.5 9.3-3.6 3.8-1.6 7.7-3.2 11.9-3.6q3.8-.5 7.6-.6 5.3.6 10.2-1.2c2.8-1.2 5.5-2.5 8.5-3 2.7-.7 5.8-1.2 8.5 0 4 1.9 6.8 5.5 10.2 8 3.2 2.7 6.7 5.7 11 6.2" class="b"/><path d="M10.7 135.4c7.3 1.8 14.9-1 21.2-4.6 7.4-4.4 11.8-6 20.4-4q6.5.9 11.9 4.6c5.3 4 9.6 8.8 17 7.2a26 26 0 0 0 8.4-4.3Q95 131 99.8 127c3.6-3 7.5-5.6 11.9-7 3-1 6.1-2.4 9.3-2.8 3.7-.5 7.4-.4 11-.6q3.4.2 6.9-.1c3.4-.3 6.7-1.8 10.1-2.4 3.4-.2 6.9-1.2 10.2-.3s6 3 8.5 5c4 3 8.5 6 13.6 5.9" class="b"/><path d="M10.7 130.5c4.5 2 9.7 4 14.4 1.9 3.1-1.2 5.7-3.5 8.5-5.2 5.8-3.3 10.2-5.7 17-3.7q2.6.6 5 1.5c4.3 1.8 8 5 12 7.2a16 16 0 0 0 11.8 2 47 47 0 0 0 22.1-11.7c3.4-2.6 7-5 11-6.3 2.8-1 5.6-2 8.5-2.2q4-.2 7.7.1 5 0 10.2-.3c3.4-.3 6.7-1.3 10.2-1.2 3.6.4 7.4-.2 11 .8 8.1 2.5 11.6 8.7 21.2 7" class="b"/><path d="M10.7 125.2c4.4 1.9 8.4 6.5 13.6 5.6 4-.9 6.7-4.4 10.2-6.2 8-4.7 9.7-5.4 18.6-2.4 2.8.7 5.2 2.6 7.7 4q4.3 2.9 9.3 3.3c3.8 0 7.4-1.3 11-1.8 3.8-.7 7.7-1 11.1-2.7 6.9-3.5 13-8.4 20.4-11 3-1.3 6-2.4 9.3-2.5q3.4.1 6.8.4l6-.1c3.9-.2 7.9-1.1 11.8-1.1 2 0 4 .7 6 1l6.7 1c10 2.3 10.8 7.1 22.1 4.7" class="b"/><path d="M10.7 120c4.7 2 7.6 7.4 12.7 8.4 3.7.5 6.6-2.5 9.4-4.4 4.4-2.4 9-6.3 14.4-5l5 1.7q1.9.4 3.5 1c4.5 2.5 8.3 4.7 13.6 3.2 3.7-1 7.2-3 11-3.6 3-.7 6.3-.2 9.3-.7 2.4-.5 4.6-1.7 6.8-2.4l12.8-4.6c4.4-1.5 8.7-4 13.5-4.2 3.1-.2 6.3.3 9.4.1 3.7-.1 7.4-.9 11-1.1q4.5-.3 8.5 1.4l6 1.6a74 74 0 0 1 8.4 2.5c2 .7 4 1.7 6 2.1 3 .6 6.3 0 9.3-.4" class="b"/><path d="M10.7 116c4 1.8 6.7 5.5 10.2 7.9 4 2.8 7.4 1.3 11-1.1q2.6-1.4 5.1-2.7c2.1-1.1 4.4-2.3 6.8-2.5s4.6.4 6.8 1q2.6.6 5 1.3c4 1.5 7.8 2.7 12 1.1 5.8-2 11.3-5.9 17.8-5.7q2.5 0 5-.4 2.6-.7 5.2-1.3c4.2-.7 8.5-.8 12.7-1.8 5.5-1.1 10.4-4.6 16.1-5 3.4-.2 6.8.2 10.2-.2 4-.3 8-1.2 11.9-.6 2.4.3 4.5 1.5 6.8 2.2q5.5 1.5 11 3.3l6.8 2.3c3.3.7 6.8.3 10.2 0" class="b"/><path d="M10.7 113.7c5.3 1.8 8.9 6.9 14.4 7.9 2.6.5 5.3-.5 7.7-1.4l8.5-3q4.6-1 9.3-.4l8.5.5c9.3.5 17.4-5.1 26.3-6.7q4.3-.7 8.5-1.8c3-.4 6.3.3 9.3.7q4.8.9 9.4-.3c5-2 9.8-4.8 15.3-5 3-.3 6.2-.1 9.3-.2 3.4-.1 6.9-.4 10.2.3 2 .4 4 1.4 6 2q5.8 1.6 11.8 3.3c2.2.6 4.5 1.4 6.8 1.6 3 .3 6.2 0 9.3 0" class="b"/><path d="M10.7 112.2c4.6 1 9 3.2 13.6 4.2 4.2 1 8.5.4 12.7-.3l13.6-2.1c5-.8 10.1-2.1 15.3-2.8 2.7-.3 5.7-.2 8.4-.7q4.8-1 9.4-2.8c3.3-1 6.7-2.6 10.2-3.1 5-.4 9.5 2.3 14.4 2.8 3.6.6 7-1 10.2-2.6 3.5-1.6 7.2-3 11-3.3 3.4-.2 6.8.3 10.2.5 3.7.1 7.5.2 11 1.5 6.5 1.7 13 3.9 19.6 4.9 3.6.3 7.3-.4 11-.4" class="b"/><path d="M10.7 110.6c4.5.4 9-.3 13.6-.1 2.8.2 5.6 1 8.5 1.2 3.6 0 7.4.6 11 0 4-.6 8-2.3 11.9-3.6 2.4-1 5-2.2 7.6-2.5 2.9-.3 5.8.6 8.5 1.2 4.7 1 9.4 0 13.6-2 9.1-4.8 11.7-3.7 21.2-1.1q4.3 1.1 8.5-.3c6-2 12.1-5.2 18.7-4.3q6.3.9 12.7 1.3 4.8.6 9.3 2c5.3 1.5 10.6 4 16.2 3.4 3-.3 6.2-1 9.3-1.1" class="b"/><path d="M10.7 108.2c3.9 0 7.4-1.8 11-3 3.4-1 7-.3 10.2.6 2.2.4 4.6.4 6.8 1 4 1 8.2.1 11.9-1.7q3-1.2 6-2.6c3.4-2 7.2-3 11-1.3 2.2.9 4.4 2.2 6.8 2.6 8.1 2.4 11.6-2.2 18.6-4 4.5-1.2 9.1-.8 13.6-.1q3 .4 6 .2 3-.4 5.9-1.2c5-1.2 10.1-2.9 15.3-2.4q4.2.7 8.5 1c4.2 0 8.6 0 12.7 1.6 5.5 1.9 11 5.7 17 4.4 3-.5 6.2-1.4 9.3-1.5" class="b"/><path d="M10.7 104.7c4-.5 7.4-2.6 11-4.1a17 17 0 0 1 10.2-.3q1.6.2 3.4.3 2.1.1 4.3.7c4 .9 8 0 11.8-1.5q1.7-.6 3.4-1 3-1.4 6-2.2c3.6-.8 7 .8 10.2 2.5q3.7 1.5 7.6 2.2c4.2.6 8.1-1.2 11.9-2.7q5.4-1.6 11-2.5c4.8-.7 9.7.2 14.5-.8l10.2-1.7q4.6-1 9.3-.7 3.8.3 7.6.2c3.7-.2 7.6-.2 11 1.4 5.6 2.2 10.7 7.2 17 6.3 3.4-.4 6.8-1.4 10.2-1.5" class="b"/><path d="M10.7 100.6c3.7-.6 7-2.5 10.2-4.3 3.4-1.9 7.3-2 11-1.5q3.4 0 6.8.3 6.5.6 12.7-.9l6.8-.7c4.8-.6 9.2 1 13.6 2.5a42 42 0 0 0 23-.4c4.1-1.3 8.2-3.1 12.7-3.4q3.4-.2 6.7 0 4.4-.2 8.5-1c2.9-.6 5.7-1.7 8.5-2.4q3-.6 6-.5c4.8 0 9.8.2 14.4 1.7q3 1.3 6 3.3c3.3 2.2 6.9 4.6 11 5 4.3 0 8.4-1.8 12.7-1.9" class="b"/><path d="M10.7 96.6q3-.6 6-2c2.4-1.3 4.9-3 7.6-3.8 3.2-1.2 6.8-.6 10.2-.7q6.7-.4 13.5-1c5.5-.5 10.8 1.6 16.2 2.5q3.7.6 7.6 1h8.5c5 0 10.3 1.7 15.3.1q3.7-1.4 7.6-2.9 5-1.5 10.2-.4c11 1.8 13.6-4.3 23-5.8 4-.7 8.1.3 11.8 2q2.7.8 5.1 2.3c4.3 2.8 8.3 6.4 13.6 7 4.9.6 9.6-1.8 14.4-2" class="b"/><path d="M10.7 92.6c5.6-.4 9.9-4.6 15.3-5.8 3-.7 6.2-.1 9.3-.4 3.4-.3 6.8-1.3 10.2-1.8q5.3-.8 10.2 1.6c2.7 1.3 5.5 2.8 8.5 3.2 4.5.4 9.1-.8 13.6-1.8q5.1-1.2 10.1.5c2.2.6 4.6 1.3 6.8.9 3-.6 5.7-1.9 8.5-2.6 6.3-1.7 8.8.7 14.5 1.5 4.1.5 7.8-1.8 11-4.2q4-2.9 8.5-4.2c4.3-1.2 8.4 1 11.9 3.3 4.5 2 8 6 12.7 7.7 6.5 2.2 13-1 19.5-1.6" class="b"/><path d="M10.7 88.8c5.6 0 10-4.2 15.3-5.3 3-.7 6.2 0 9.3-.4 3.5-.4 6.8-2 10.2-2.6 3.5-.8 7.2-.1 10.2 1.8 2.8 1.6 5.9 3.5 9.3 3.4q3-.2 6-1.3 3.9-1.2 7.6-2.7c7.2-2.7 10.6 2.7 17 2.1 2.8-.3 5.6-1.2 8.5-1.4q4-.3 7.6 1.2c2.5 1 5 2.5 7.7 2.7 3.6.3 6.6-2 9.3-4.2 3-2.1 6-4.4 9.3-5.7 4-1.4 7.9.9 11 3 4.4 2.3 8 6.3 12.8 7.4 6.5 1 13-2 19.5-2" class="b"/><path d="M10.7 84.6c4.3.4 8-2.3 11.9-3.9a24 24 0 0 1 11-1.3c6.7 0 12.8-5.3 19.5-3.2 5.6 2 8.9 5.3 15.3 3.5q3.4-1 6.8-2c3.9-1.6 7.8-2.8 11.9-1.2 2.5.8 5 2.2 7.6 2.2 3.7 0 7.4-1.1 11-.7q3.7.4 6.8 2c3.4 1.9 7 4.3 11 3.3 2.3-.6 4.2-2 6-3.2 3.2-1.8 6-4.4 9.4-5.9 3.8-1.8 7.6-.3 11 1.7 4.7 2.4 8.7 7 14.4 7 5.7-.1 11.3-2 17-1.8" class="b"/><path d="M10.7 80.4c6.3 1.2 11-4.4 17-5.2 3.3-.7 6.8.2 10.2-.6 4.6-1 8.7-4.1 13.5-4.5 2.4-.2 4.7.8 6.8 1.7a21 21 0 0 0 13.6 1.7c4.5-.6 9-2.5 13.6-1.7 2.8.4 5.6 1.7 8.5 2 2.5 0 5.1-.5 7.6-.7 4.8-.5 9.6 1.2 13.6 3.7 7 4.1 10.8 3.7 17.8 0 3-2 5.9-4.6 9.4-5.7 8.6-2.4 14 7.5 22 8.4q4 .1 7.7-.6 4.6-.8 9.3-1.3" class="b"/><path d="M10.7 75.6c5.2 1.3 9.1-2 13.6-4Q27.4 70 31 70c2 0 4 .4 5.9.2 5-.4 9-3.7 13.6-5.5 4-1.6 8 .5 11.9 1.6q4.9 1.5 10.2 1.4c3.9 0 7.9-.3 11.8.1 3.1.2 6.3 1 9.4 1.1 8.5-.6 11.3-1 19.5 2.7 3.8 1.7 7.7 3.7 11.9 4.1 2.8.1 5.9-.1 8.5-1.5 3.1-1.6 6-4 9.3-5.3 4.2-1.8 8.4.5 11.9 2.8 2.9 1.8 6 3.6 9.3 4.3q3.4.5 6.8 0 5.2-.4 10.2-1.7" class="b"/><path d="M10.7 69.9c2 .1 4 .3 6-.3 5-1.6 9.6-5.3 15.2-4.7 4.4.6 7.7 1.2 11.9-1 8.8-5 8.8-6.7 19.5-4.2q3.8 1 7.7 1.6 2.5.2 5 .7c3.7.8 7.4 1.7 11 1.9l6.9.3q4.3-.3 8.5.3c3.5.7 6.8 2.4 10.2 3.5 6 1.8 12.2 3.8 18.6 3.9 5.6-.4 9.8-5 15.3-5.5 2.4-.2 4.7.9 6.8 1.8q3.7 1.8 7.6 3.1c3 1.1 6.3 1.1 9.4 1 3.7.1 7.5-.1 11-1.4" class="b"/><path d="M10.7 63.9c2.2-.3 4.6-.1 6.8-.7 7.9-2.7 10.2-4.3 18.7-2.1 2.8.6 5.9.2 8.4-1.1 2.7-1.3 5-3.3 7.7-4.6q5-1.8 10.2-1.6 6.4.2 12.7 1.8 3.8 1.4 7.6 2.8 4.3 1.1 8.5 1c13.5-.7 14.8 6 25.5 7 5.1.2 10.2 1.2 15.3 1.7 3.2 0 6.3-1.3 9.3-2.4s6.3-1.7 9.4-.6a50 50 0 0 0 18.6 2.3c4 .2 8 1 12-.1" class="b"/><path d="M10.7 58.5q3-.5 6-.8 3-.6 5.9-1.4c5.6-1.5 9.9 0 15.2 1.2q4.6.8 8.5-1.4c2.8-1.5 5.5-3.5 8.5-4.4 4.4-1.6 9-3.1 13.6-3q3 0 6 1 3.7 1.5 7.6 3.2c3.5 1.4 7.3 1.7 11 1.9 4 .2 7.8 2 11 4.1 3 1.8 6 4.2 9.4 4.8 4 .5 8-.2 11.9-.2 3.4-.1 6.8.7 10.2.2 4-.4 7.8-1.8 11.9-1.6 2.2.2 4.5 1 6.7 1 5.2 0 10.2-1.5 15.3-1.7 4 .3 7.8 2.3 12 2" class="b"/><path d="M10.7 54c1.9-.6 4-.5 6-.7 2.5-.3 5-1.1 7.6-1.5 4.9-.9 9.7.7 14.4 2q5 1 9.3-1.6 4.5-2.6 9.4-4.7c4.4-2.3 9.5-4.2 14.4-2.6 3.8 1 7.3 3.2 11 4.4 3.3 1 6.9 1.3 10.2 2q4 1 7.7 3.2c4.8 2.7 9.3 7.3 15.3 6.9 4.3-.3 8.4-2 12.7-2.5 2.2-.3 4.6 0 6.8 0q6-.1 11.9.6 2 .4 4.2.5 3-.2 6-1.4 3.2-1.3 6.7-2.1c2.8-.8 5.8-1 8.5.2s5.5 2.6 8.5 3.1" class="b"/><path d="M10.7 50.4q3-.7 6-.5 3-.4 5.9-1c6.3-1.4 10.2-.4 16.1 1.5 4 1.2 7.6 0 11-2.1q4.3-2.2 8.5-4.5c4.4-2.5 8.9-3.5 13.6-1.2 3.6 1.6 7.2 3.4 11 4.3 4 .8 8.2 1 12 2.6 4 1.6 7.9 3.8 11.8 5.7 3.2 1.5 6.6 3 10.2 2.5 3.8-.3 7.4-1.8 11-3 5.8-1.8 12-.4 17.9.7 3.7.8 6.5.8 10.1-.9 5-2.1 10.8-4.5 16.2-2.4 3 1.2 6 3 9.3 3.8" class="b"/><path d="M10.7 47.2c2-.6 4-.4 6-.4q2.5 0 5-.5c7.4-1.2 10.1-.5 17 1.6q5 1 9.3-1.5 4.3-2.3 8.5-4.5c3.6-2 7.9-3.7 12-2 3.9 1.7 7.5 4.3 11.8 5.1 3.3.8 6.9.6 10.2 1.4q3.4 1 6.8 2.3 4.6 1.4 9.3 2.4c3.4.7 6.7 2 10.2 2 12 .2 11.8-5.5 28-2.7 3.1.5 6.4.7 9.3-.5q3.4-1.4 6.8-2 5.3-.5 10.2.8c3.4 1.1 6.7 2.7 10.2 3" class="b"/><path d="M10.7 43.7c2.8-.8 5.7 0 8.5-.1 4-.1 8-.4 11.9.3 2.2.4 4.5 1.3 6.8 1.8 5.3 1.5 9.2-1.1 13.5-3.7q2.5-1.3 5.1-2.5c2.6-1.3 5.5-2.6 8.5-2.2 2.8.4 5.3 2 7.6 3.5 5.4 3.3 10.2 3 16.2 3.2 2 .2 4 1 6 1.5q2.8.8 5.9.9c3 .1 6.2-.2 9.3.2 2.6.3 5.1 1.3 7.6 1.8 7.5 1.8 12.4-1.2 19.6-2.2 4.2-.7 8.5-.5 12.7-.6q3.4-.6 6.8-1.4c4.6-.9 9.1.7 13.6 1.6 3.5 1 7.2 2.1 11 1.6" class="b"/><path d="M10.7 40.5c2.5-.7 5.1 0 7.6.2q5.6.3 11 1.4c4.8.9 9.6 3.4 14.5 2 2.7-.8 5.1-2.5 7.6-3.7q2.2-1 4.3-1.7 2.9-1.5 6-2.4c6.6-1.9 10.8 3.5 16.9 4.5 3.6.9 7.4.3 11 .6 2.8.3 5.7 1.3 8.5 1 4.6 0 9-1.6 13.6-.9 3.5.7 6.7 2.3 10.2 3.1 8.1 2 15.8-2.7 23.8-3.5q3-.3 6-.6c2.7-.3 5.6-.7 8.4-.2s5.7 1.4 8.5 2c4.2.8 8.5 1.7 12.7.8" class="b"/><path d="M10.7 38.2c2.5-.4 5.1.3 7.6.6q5.6.7 11 1.8c4.8 1 9.7 2.8 14.5 1.2 2.6-.7 5-2.1 7.6-3q2.2-.6 4.3-1.2l6-2c8.5-2.5 11.3 2.6 19.4 3q4.3.2 8.5-.1c2.8.1 5.7.6 8.5.2 11.6-1.8 11.2-4.1 23 1 8.4 3.6 14.7 0 22.9-2q6.7-1.6 13.5-1c3.2.4 6.3 1.5 9.4 2.1q7.2 1 14.4-.1" class="b"/><path d="M10.7 36q3.5.4 6.8 1 5.1.5 10.2 1.1c4 .5 7.9 1.8 11.9 1.4 3.8-.4 7.3-2 11-3q2.5-.5 5-.6 2.7-.4 5.2-1c3.6-.8 7.4-1.5 11-.5q3 1 6 1.6c4.4.9 9 .3 13.5.1q5.7.2 11-1.3c3.7-.8 7.4-2 11.1-1.6 3 .4 5.7 1.6 8.5 2.5 7.6 3 13.6 1 21.2-.5a44 44 0 0 1 11.9-1c3.7.3 7.3 1.2 11 1.5q3 0 6-.3l9.3-.6" class="b"/><path d="M10.7 33.8c2.2.3 4.5.9 6.8 1q5.1.5 10.2.5c3.4 0 6.8.9 10.2.5 4-.4 7.8-2 11.8-2.7 3.6-.5 7.4.4 11 0 3.2-.2 6.3-.7 9.4-.4 2 .2 4 1 6 1.3q4.1.9 8.5.9 8-.4 16-1.7c4.6-.8 9-2.4 13.7-2 5.1.3 10 2 15.2 2.5 7.7.4 15.3-.2 23-.8 4.2 0 8.5.4 12.7 0 2.5-.2 5-1 7.6-1.3q4.3-.2 8.5 0" class="b"/><path d="M10.7 31.1q3.3.7 6.8 1c3.4.3 6.8 0 10.2 0 3.3-.2 6.8.4 10.2-.3 4.8-.9 9.4-3.2 14.4-2.8q4.7.6 9.3 1.4c3.1.4 6.3.4 9.4.9 4.4 1 9 2.2 13.6 2.2q4.3-.1 8.4-.8l9.4-1.3c4.4-.9 9-2 13.6-1.7 6 .3 11.8 1.6 17.8 2 5.9.6 12 1.2 17.8.4q7.3-.4 14.5-2c1.9-.4 4-1.2 5.9-1.5 3-.4 6.3 0 9.3.3" class="b"/><path d="M10.7 28.4q3.3.5 6.8.8 4.6.1 9.3-.4c3.4-.4 6.9-.3 10.2-1 4.2-1 8.3-3 12.7-3.2 3.6-.3 7 1 10.2 2.2q4.5 1.7 9.4 2.8a50 50 0 0 0 29.7.7c4.8-1 9.5-2.7 14.4-2.7 4.9.2 9.6 1.4 14.4 2l17.9 1.5q6.5.2 12.7-1.8c4.5-1.2 8.9-3.5 13.6-4 3.1-.3 6.3.4 9.3 1" class="b"/><path d="M10.7 26Q18 27.4 25 26q5.6-.8 11-2c4.2-1.3 8.3-3.6 12.8-3.5 7-.3 12.3 5 18.7 7.2A52 52 0 0 0 92.2 30c5.5-1 10.7-3.3 16.1-4.5 6-1.6 11.9 1.6 17.8 2.3 3.4.5 6.9.3 10.2.2q4.7 0 9.4.7c4.6.8 9.4-.2 13.6-2.4 9.4-5 11.4-6.6 22-2.8" class="b"/><path d="M10.7 23.9a48 48 0 0 0 18.7-1.3q5.3-1.1 10.2-3.3a18 18 0 0 1 16-.1c3 1.5 5.7 3.6 8.6 5.1a41 41 0 0 0 17 3.7c5 .5 10.4.5 15.2-1.2 5.8-1.8 11.6-5.6 17.9-4.4q3.7 1 7.6 2.3 4.2 1.1 8.5.7c4-.4 7.9-1.7 11.9-1.1 5.1.6 8.2 2.4 13.6.3 3-1.2 5.7-3.2 8.5-4.8 6-3.8 10.7-1.8 17 .4" class="b"/><path d="M10.7 21.2q4.3.6 8.5.3 7.8-.2 15.3-2.6c3.1-1 6-2.9 9.3-3.6 5.4-1 10.8 1.4 15.3 4.3 2.3 1.5 5 3 7.6 3.6Q73 24.6 79.4 25c5.1.4 10.4 1.4 15.3-.2 7.2-2 14.5-7 22.1-4.1 3.3 1 6.7 1.8 10.2 1.6 5 0 9.4-3 14.4-2.9 6 .4 8.5 3.4 15.3 1.2q3.5-1.5 6.8-3.4c6.3-3.9 11.2-2 17.8-.4" class="b"/><path d="M10.7 17.6c2.8.4 5.7.2 8.5.3q6 .5 11.9-.4c3.6-.5 6.8-2.3 10.2-3.5 7.2-3 14 2.1 20.3 5.1 3 1.3 6.2 1.6 9.4 1.8l7.6.8c5.3.5 10.8 2.1 16.1.5 5.7-1.4 11.2-3.8 17-4.2 2.9-.1 5.7.7 8.5 1q3.9.4 7.6-.6 3-.5 6-1.7c3.2-1.3 6.7-2.4 10.2-1.5q2.6.6 5 1.5 3 .6 6 .5c3-.2 5.8-1.4 8.5-2.5a27 27 0 0 1 5-1.7c4.3-.6 8.6.1 12.8.6" class="b"/><path d="M10.7 13.2c2.8.2 5.7 0 8.5.4 4 .5 7.9 1.5 11.9 1.3 3.8 0 7.3-2 11-2.9 3-.8 6.4-.6 9.3.4 4.1 1.2 7.8 3.7 12 4.7 3.2 1 6.8.7 10.1 1.3l7.7 1c3 .6 6.2 1.3 9.3 1.3q6.4-.8 12.7-2l8.5-1.5q4.3-.3 8.5-.9c2.9-.5 5.7-1.5 8.5-2.2q4.3-1 8.5-2.4 4.3-1 8.5.4a32 32 0 0 0 13.6 1.8c2.8-.4 5.6-1.5 8.4-2q6.8-.7 13.6-.5" class="b"/><path d="M10.7 9q5.2-.7 10.2.5c4.7 1 9.5 3 14.4 2 5.6-1.1 11.3-2.5 17-1 4.3.8 8.4 3 12.7 3.9 5.6 1.2 11.4 1.7 17 2.8q4.3 1 8.5 1.3c1.7 0 3.4-.4 5-.4a80 80 0 0 0 15.4-1.8c5.3-1 10.2-3.7 15.2-5.6q3-1 6-1.2l5-.8c3.8-.5 7.6.2 11.1 1.3q3.8.9 7.7 1.5c4 .5 8-.7 11.8-1.3 4.5-.6 9.1-.4 13.6-.6" class="b"/></svg>