<svg xmlns="http://www.w3.org/2000/svg" id="a" width="1920" height="2400" viewBox="0 0 192 240"><defs><style>.b{fill:none;stroke:#fff;stroke-miterlimit:10;stroke-width:.3px}</style></defs><path d="M0 0h192v240H0z" style="stroke-width:0"/><path d="M7.8 232h15.8c.9.2 1.9-.6 2.6-1q1.7-1 3.5-1.5a13.5 13.5 0 0 1 11.4 1.7q.8.6 1.8.8h15.8c2-2.8 4.6-5.6 7.9-7a60 60 0 0 1 11.4-3.6 34 34 0 0 1 26.3 5q1.9 1.3 3.5 3c.8.7 1.6 2.1 2.7 2.6h6.1c1.1-.3 2.4-1 3.5-1.1 2.6-.7 5.4-.5 8-1.3 6.2-2 12-5.5 18.4-7.3 8-2.4 16.8-2.7 24.5.5a20 20 0 0 1 10.6 8.8l.9.4c.7-.2 1.4-1.2 1.7-1.8" class="b"/><path d="M7.8 229.9h18.4q2.9-1.6 6.2-1.7 2.2 0 4.3.6 1.3.6 2.7 1 8.8.1 17.5 0c5-7.5 12-9.2 20.2-10.6 11.7-2 24.7 1.3 32.5 10.6h7q2.7.1 5.3-.2c2-.3 4.2-.4 6.2-1.2 5.4-2 10.3-5.4 15.8-7.3 8-3.1 17.2-4 25.4-1q7.6 2.7 11.4 9.7l.9-.3a9 9 0 0 1 2.6-3.3" class="b"/><path d="M7.8 227.7h21c1.4 0 3-.4 4.4-.2 4 .4 8.2 0 12.3.2h6.2c1 0 2.4.2 3.5-.3 5.7-7.6 12-9.3 21-10.3a38 38 0 0 1 32.5 10.6h18.5c1.2.2 2.4-.8 3.5-1.4l4.4-2.7c8.8-5.5 19.5-9 29.8-6.6 5.8 1.3 12.2 4.5 14 10.5h1c.6-2 2.4-3.9 4.3-4.8" class="b"/><path d="M7.8 225.6h44.7c1.2-.2 1.9-1.7 2.7-2.4 3.1-3.1 7-5.8 11.4-7q7-1.4 14-1.2a41 41 0 0 1 26.4 10.3c1 .4 2.4.2 3.5.3h20.2a51 51 0 0 1 5.3-3.9c8.2-5.8 19-9 29-6.5 3.8 1 7.8 2.9 10.4 6 1 1.2 1.8 3.1 2.7 4.4q1.6-4.6 6.1-6" class="b"/><path d="M7.8 223.4h43.9c3.4-4.1 8-7.5 13.1-9q4-1 8-1.2a46 46 0 0 1 32.4 10.2H129c1.4 0 3 .3 4.4-.3l1.8-1.8c7.5-6.7 18.1-10 28-8.1 5.7 1 11.7 4.3 13.2 10.2a11 11 0 0 0 1.8-2.9c1.4-2 3.8-3.3 6.2-3.9" class="b"/><path d="M7.8 221.3c2.6-1.7 6-1 8.7-.2q1.8.2 3.5.2h28.2q1.4.1 2.6-.5a36 36 0 0 1 11.4-7.9 42 42 0 0 1 37.7 8c1.3.7 3 .2 4.4.3h29.9c.5-.2 1.4-1 1.7-1.6q1.7-1.7 3.5-3c5.4-3.7 12-5.8 18.5-5.6 5 .1 10.3 1.5 14 5 1.6 1.3 2.5 3.6 3.5 5.2q2.3-6.1 8.8-7.2" class="b"/><path d="M7.8 218c2.4-1.1 5.4-.7 7.9.1 1 .3 2.3 1.1 3.5 1h27.2c1.6 0 3.2.4 4.4-1.2a31 31 0 0 1 14-7.8q4-.6 8-.3c7.9.5 16.8 2.7 21.9 9.3h2.6c3-2.3 7.3-1.6 10.5-.2 1.7.4 3.6 0 5.3.2h9.7q2.1-.8 4.4-1a9 9 0 0 1 4.3.9q2.2.1 4.4 0c5.9-7.8 17-10.9 26.4-9 4.7 1 9.8 3.7 11.4 8.5l.9.6a11 11 0 0 1 9.6-7.5" class="b"/><path d="M7.8 215c2.5-.8 5.4-.3 7.9.6 1.4.4 2.8 1.5 4.4 1.3h29c6.1-5.4 13.3-9.7 21.9-8.6 6.8.5 14.7 2.3 18.4 8.6h.9c4.8-6.6 15.4-4.6 21 0H122q3-1.1 6.1-1.4a9 9 0 0 1 5.3 1.4h3.5c1.5-1.2 2.8-3 4.4-4.1 4.8-3.4 10.8-5 16.7-4.8 6 .4 12.9 2.8 15 9h.8a12 12 0 0 1 10.5-7.6" class="b"/><path d="M7.8 212.4c2.6-.7 5.4-.1 7.9.8 1.4.5 2.8 1.8 4.4 1.6H49l1.8-1.2c6-5 13.2-7.9 21-6.3 5 .8 11 2.5 13.2 7.5h.9c5.4-9.3 20.7-6.9 27.2 0h8.8c3.6-1.4 7.8-2.4 11.4-.7 1 .8 2.4.7 3.5.7 1.1.2 2-.7 2.6-1.5 7.6-8.4 27.1-9.9 32.5 1.5h1c1-.7 1.6-2.5 2.5-3.3 2.3-2.4 5.6-3.7 8.8-4" class="b"/><path d="M7.8 210q4-.7 7.9 1.1c1.1.4 2.3 1.4 3.5 1.5H49q1 .1 1.8-.5c5-4 11.7-7.2 18.4-6 4.7.5 9.9 2.1 12.3 6.5h.9c1-1.2 2-3 3.5-4 5-3.5 11.7-4 17.5-2.5q4.3 1.1 8 3.7c1.2.8 2.2 2.2 3.5 2.8h7.9c3.5-1.5 7.8-2.2 11.4-.5q1.2.8 2.6.5c1.6 0 2.6.2 3.5-1.3 7.4-7.7 25-8.7 30.7 1.3h1.8c.9-.8 1.7-2.2 2.6-3q3.8-3.4 8.8-3.7" class="b"/><path d="M7.8 208a13 13 0 0 1 7 .8c1.4.5 2.8 1.9 4.4 1.7h32.5c4.4-3.4 10-6 15.8-5.3 3.8.6 8.3 1.7 10.5 5.3h1.8c4.2-6.6 12.6-9 20.2-8.1 6 .7 11.6 3.7 15.8 8h7.9c3.7-1 7.7-2 11.4 0h3.5c1 .3 2-.4 2.6-1.2 7.4-6.8 22.7-7.3 29 1.1q1.2.2 2.6.2c.7-.1 1.4-1 1.8-1.5 2.4-2.7 6-4.2 9.6-4.3" class="b"/><path d="M7.8 206.1q3.1-.4 6.1.8c1.4.4 2.8 1.7 4.4 1.4h36c6-4.3 14.4-5.2 20.2 0 1.1 0 2.5.3 3.5-.3 4.8-6.8 14-9.3 22-8.3 6.8.9 11.8 3.9 16.6 8.7h8.8c1.7-.2 3.5-.9 5.3-.8q2.2.2 4.4.8h5.2c1.8-1.2 3.4-2.8 5.3-3.5 5.5-2.5 12-2.8 17.6-.7q2.3.8 4.4 2.3l1.7 1.6a4 4 0 0 0 1.8.3c1.6 0 3.3.3 4.4-1.2 2.4-2.1 5.6-3.3 8.7-3.4" class="b"/><path d="M7.8 204.7q2.7-.4 5.2.5 1.3.6 2.7 1H56q1.2 0 2.6-.2l1.7-.6q3.1-1 6.2-.3c1.2.2 2.3 1 3.5 1.1h4.4c1 .2 2-.6 2.6-1.4a27.5 27.5 0 0 1 39.5 1.1c1 .5 2.4.3 3.5.3h19.4c.4 0 1.3 0 1.7-.2l1.8-1.4q2.8-1.7 6.1-2.5c4-1 8.4-.8 12.3.3q3.9 1 7 3.5c1.7.6 3.6.2 5.3.3h2.6a15 15 0 0 1 8-3" class="b"/><path d="M7.8 203.7c1.7-.4 3.5.2 5.2.3h61.5c7.7-8 20-11.7 30.7-7.8a29 29 0 0 1 10.6 6.5q.5 1 1.7 1.3h22.8q1.4-.6 2.7-1.5a22 22 0 0 1 7-2.3 27 27 0 0 1 16.7 3.1c.3.4 1.2.7 1.7.7h11.4c1.5 0 3-.7 4.4-.7" class="b"/><path d="M7.8 201.9h65.8c12.7-11.8 30.8-13 43 0h22c.9-.2 1.8-.9 2.6-1.3q2.5-1.2 5.3-1.8a28 28 0 0 1 11.4 0c3 .5 6 1.8 8.8 3h17.5" class="b"/><path d="M7.8 199.7h64.1q1.5.3 2.6-.8c12.6-10.6 29.5-11.6 41.3.7 6.7.3 13.4 0 20.1.1 1.3 0 2.4-1 3.5-1.5q2.6-1 5.3-1.7 5.8-1 11.4.1 4.6 1 8.8 3.2h19.3" class="b"/><path d="M7.8 197.6h64.9c1 .2 2-.4 2.7-1q1.2-1.1 2.6-2 4.5-3.3 9.6-4.7c8.8-2.7 18.7-.3 25.5 5.6 2.3 2.2 2 2.2 5.3 2h15.8c.8 0 1.8-.7 2.6-1.1a27 27 0 0 1 22.8-.2c1.2.4 2.3 1.5 3.5 1.4h21.1" class="b"/><path d="M7.8 195.4h65.8q1.6.3 2.6-1a27.6 27.6 0 0 1 38.7 1h18.4c2.5-1.1 5.1-2.5 8-3a26 26 0 0 1 16.6 1.7c.8.4 1.7 1.2 2.6 1.3h23.7" class="b"/><path d="M7.8 193.3h68.4a26.6 26.6 0 0 1 37.8-.1c2.3.3 4.7 0 7 .1h11.4c1 .2 1.9-.6 2.7-1a25 25 0 0 1 16.6-2q2.3.5 4.4 1.6c.8.4 1.7 1.3 2.7 1.4h7c2.5-.7 5.3-.3 7.9 0h10.5" class="b"/><path d="M7.8 191.1H77c10-9.6 26-10 36-.2 2 .5 4.2.1 6.2.2h14c1.7-.7 3.5-1.8 5.3-2.3 6-2 13.3-1.8 18.4 2.3h4.4q3.3-1.8 7-2a28 28 0 0 1 11.4 2h4.4" class="b"/><path d="M7.8 189H78a25 25 0 0 1 34.2 0h21.1c1 .2 1.9-.6 2.6-1l3.5-1.4a18 18 0 0 1 16.7 2.4h3.5c7-5.7 16.8-2.7 24.6-.6" class="b"/><path d="M7.8 185q6.6.1 13.1.8c2.7.2 5.3 1 8 1h50c1.1-.6 2.3-1.7 3.5-2.4q3.3-1.8 7-2.8a23 23 0 0 1 21 5q4 .4 8 .2H135l1.7-.9 3.5-1.4c5-1.4 11-1.3 15 2.3 1 0 2.4.2 3.5-.2q1.9-1.7 4.4-2.6c6.8-2.5 14.2-.7 21 .9" class="b"/><path d="M7.8 181.1q7 .6 14 2c2.4.3 4.7 1.3 7 1.6h51q1-.2 1.7-.9l2.6-1.5q4.3-2 8.8-2.4c3.9-.3 8 .4 11.4 2q1.5.8 2.7 1.7c.3.4 1.2 1 1.7 1h10.5c5.6.3 11.2 0 16.7 0 2.3-.9 4.6-2.1 7-2.5a16 16 0 0 1 9.7 1c.8.4 1.8 1.3 2.6 1.6h2.7c7-6.7 17.7-4.7 26.3-2.9" class="b"/><path d="M7.8 177.7a112 112 0 0 1 17.5 4c1 .4 2.3 1 3.5.8h52.8c.8 0 1.8-.7 2.5-1q1.8-.8 3.5-1.3c5.5-1.5 12-1.3 16.7 2.3h5.3c2-.6 4-1.4 6.1-1.4q3.7 0 7 1.2c1.4.5 3 .2 4.5.2h7c1.4 0 3.1.3 4.4-.6 4-2 8.9-2.6 13.1-1.1q1.5.5 2.7 1.5c1 .4 2.4.2 3.5.2 6.9-6.7 17.7-5 26.3-3.4" class="b"/><path d="M7.8 174.6a91 91 0 0 1 16.6 5c.8.3 1.8 1 2.7.8h58.8c1.7 0 3.5-.6 5.3-.6 1.7-.1 3.5.4 5.2.6h6.2a4 4 0 0 0 1.7-.7l2.7-1a24 24 0 0 1 17.5 1.5q1.3.2 2.7.2h11.4q4-2.2 8.7-2.4 2.8 0 5.3 1 1.3.6 2.7 1.4h2.6c7.2-6.4 17.5-5.5 26.3-3.7" class="b"/><path d="M7.8 171.9a55 55 0 0 1 16.6 6.3h9.7q2.6-.4 5.3-.3c4.3.5 8.8.3 13.1.3H93c1.2-.2 2.4-1 3.5-1.4q3-1.2 6.2-1.8c7.6-1.7 15.9-.7 22.8 3 1.7.4 3.6.1 5.3.2h8.8c2.5-1 5.1-2 7.9-2.1q3.1-.3 6.1.9l1.8 1c1 .4 2.4.2 3.5.2 7-6 17-5.2 25.4-3.7" class="b"/><path d="M7.8 169.3a45 45 0 0 1 14.9 6.8h7.9q3.4-1.4 7-1.2 2.7 0 5.3.7 1.3.5 2.6.5h38.6c1.3.1 2.5-.8 3.5-1.2q2.6-1.2 5.3-2.1a41 41 0 0 1 33.4 3.3h9.6c1.7-.1 3.6.2 5.3-.3 3.8-1.7 8.2-2.4 12.3-1.4q1.9.6 3.5 1.7h3.5c6.3-5.7 16-4.8 23.7-3.5" class="b"/><path d="M7.8 167c4.6 1.6 9.4 3.6 13.1 6.9q3.6.2 7 0 1.7-1 3.6-1.4c4.6-1 9.6-.4 14 1.4h35.1c.9-.2 1.9-1 2.7-1.4a41 41 0 0 1 41.2.5q1.2.9 2.6 1h14.1c2-.6 4-1.7 6.2-2 3.8-.7 8.2-.6 11.4 1.9 1.4 0 3 .3 4.3-.3a15 15 0 0 1 5.3-2.5c5.2-1.4 10.6-1 15.8-.1" class="b"/><path d="M7.8 165c4 1.6 8.2 3.6 11.4 6.7h6.1q2.2-1 4.4-1.7a26 26 0 0 1 15.8 1.5c1 .5 2.4.2 3.5.3h28.1q.9 0 1.8-.4 4.1-3 8.8-4.7c7.5-3 15.9-3.5 23.7-1.4a46 46 0 0 1 13.1 5.8c.4.3 1.3.7 1.8.7h15.8l3.5-1.4c4.2-1.4 9-1.9 13.2-.3 1.2.3 2.3 1.5 3.5 1.7h3.5l2.6-1.4c5-2 10.6-1.7 15.8-.8" class="b"/><path d="M7.8 163.2a30 30 0 0 1 9.6 6.3c2 .3 4.2 0 6.2.1a24 24 0 0 1 17.5-1.9q2.8.6 5.3 1.9h27.2c1.7 0 3.1.3 4.4-1a37 37 0 0 1 34.3-5.7q4.6 1.6 8.7 4 2.3 1.5 4.4 2.7h16.7c.9 0 1.9-.6 2.6-1q2.6-1 5.3-1.7c5-1 11-.8 15 2.7h5.2q1.7-.8 3.5-1.3a26 26 0 0 1 10.6.2" class="b"/><path d="M7.8 161.5c2.8 1.5 5.7 3.3 7.9 5.7 2 .5 4.1.2 6.1.3q2.1-1.2 4.4-2a31.5 31.5 0 0 1 16.7.4c1.4.4 2.9 1.4 4.4 1.6h28c8.1-7.1 19.3-10.8 30-9a45 45 0 0 1 19.2 9q9.3 0 18.5-.1 3.7-2.2 7.9-3.3 5.2-1.4 10.5 0 2.3.6 4.4 1.7c.8.5 1.7 1.4 2.6 1.7h7q4.5-1 8.8 0" class="b"/><path d="M7.8 160q2.3 1.4 4.4 3.2c.8.6 1.6 1.8 2.6 2.1H20c1 .2 1.9-.6 2.7-1q2.1-.9 4.4-1.3a34 34 0 0 1 16.7 1.1c1.4.5 2.8 1.4 4.3 1.2h26.4c14.9-13.3 34-12.8 49.2 0q9.1.1 18.4 0c1.2 0 2.4-1.2 3.5-1.7q3-1.5 6.2-2.3 5.7-1.5 11.4 0 3.9 1 7 3.8c1.6.5 3.6.1 5.3.2h8.7" class="b"/><path d="M7.8 158.8c1.9 1.2 3.5 3 5.2 4.4h7q1.4-.7 2.7-1.2 6-1.8 12.3-1.4 4 .3 7.9 1.3c1.4.3 2.9 1.1 4.4 1.3h26.3c15.6-13.3 33.6-13.8 49.2-.3 1.8.6 4.1.2 6.1.3h13.2l1.7-1q2.2-1.4 4.4-2.3c5.5-2.4 12-3 17.6-.8q3.4 1.2 6.1 3.8c1.4.5 3 .2 4.4.3h8" class="b"/><path d="M7.8 157.6q1.9 1.5 3.5 3.4 4.4 0 8.7 0a45.5 45.5 0 0 1 22.8-1c1.5.2 3 1 4.5 1h26.3c14.6-13 32.4-14 47.4-1.2.7.6 1.7 1.4 2.6 1.2h15.8c.8 0 2 0 2.7-.2a43 43 0 0 1 7.9-4.3c8.4-3 17-1.5 23.7 4.5h10.5" class="b"/><path d="M7.8 156.6c.8.7 1.6 1.9 2.6 2.3h10.5q2.2-.6 4.4-.9a75 75 0 0 1 11.4-.5q5.4.2 10.6 1.4h25.4q1.6.1 2.7-1a33 33 0 0 1 32.4-7.6c5.4 1.7 9.9 5 14.1 8.6h15.8q1.8.1 3.5-.2a37 37 0 0 1 5.3-3.3c4-2 8.6-3.3 13.1-3a22 22 0 0 1 10.6 3.2c1.5.9 2.8 2.5 4.4 3.3h9.6" class="b"/><path d="m7.8 155.6.8 1c2.3.3 4.8 0 7 .1h11.5c4.3 0 8.8-.7 13.1-.7q2.7 0 5.3.3 2.2.4 4.4.4 12.8.1 25.5 0a31.3 31.3 0 0 1 45.6 0h18.5c1.5-.6 2.9-1.9 4.4-2.7q2.9-1.6 6.1-2.8c8.6-3 18.3-1.1 24.6 5.5h9.6" class="b"/><path d="M7.8 154.6h29.8q3-.7 6.2-1a24 24 0 0 1 7.9 1h23.7q1.6 0 2.6-1.2c12.6-11.6 30-10.9 42.1 1.2H136q1.5.1 2.7-.4c11.3-8 25.6-10.5 36 .4h9.6" class="b"/><path d="M7.8 152.4h29.8a23.7 23.7 0 0 1 15.8-1.2c1.4.3 3 1.3 4.4 1.2h21a27.6 27.6 0 0 1 40.5 0h14c.8 0 2 .1 2.6-.3 8.5-5 18.2-9.3 28.1-6.1q3.9 1.1 7 3.5c1.2.8 2.3 2.2 3.6 3h9.6" class="b"/><path d="M7.8 150.3h29c1.2.1 2.3-1 3.4-1.4q3-1.2 6.2-1.6a27 27 0 0 1 15 3h19.2c.6 0 1.4-.7 1.8-1.2q1.6-1.4 3.5-2.7 5.3-3.3 11.4-4a25 25 0 0 1 19.3 6.6q.8 1 1.8 1.3h12.3q1.4 0 2.6-.2l2.6-1.2 7-3a29 29 0 0 1 23.8-.6c11.1 6.3.7 4.8 17.5 5" class="b"/><path d="M7.8 148.1h17.5q1.4-.3 2.6-.4 1.9 0 3.6.4h6.1A23 23 0 0 1 57 145a33 33 0 0 1 5.3 1.9c1.1.4 2.3 1.4 3.5 1.3h17.6c9-9.2 24.4-9.6 33.3 0h9.7c2-.1 4.2.3 6.1-.4 5.6-1.8 11-4.5 16.7-5.6 5.9-1.2 12.3-.7 17.6 2.3 1.9.9 3.5 2.6 5.3 3.7h12.2" class="b"/><path d="M7.8 146h14q2.6-1 5.3-1.3c2-.2 4.3.1 6.1 1.1 1.4.3 3 .1 4.4.2 8.9-7.3 21.3-5.1 30.8-.1q8.2.1 16.6 0c6.6-5.7 15.5-8 23.7-4.5q2.3 1 4.4 2.5c1.8 1.4 2 2.3 4.4 2h12.3c2 0 4.2-.8 6.2-1.3 12-4 22.2-7.2 33.3 1.4h15" class="b"/><path d="M7.8 143.8H20c1.4-.4 2.9-1.2 4.3-1.5 3.2-.8 7-.7 9.7 1.2q1.2.5 2.6.3c1 .2 2-.5 2.7-1.2 7.5-5.6 18-4.5 26.3-1.3q2.7 1.1 5.3 2.5h15.8c.9-.3 1.8-1.2 2.6-1.8q2.1-1.3 4.4-2.2c6.7-2.6 15-1.2 20.2 3.9 2.3.3 4.7 0 7 .1h12.3c4.4-.4 8.8-2 13.2-2.7q6.2-1.4 12.3 0 2.8.8 5.2 2.3c1 .7 2.4.3 3.5.4h12.3c1.8 0 3.3.4 4.4-1.3" class="b"/><path d="M7.8 141.7h11.4q4.5-2.6 9.6-2.5 2.9.2 5.3 1.6c1.1 1.1 3 1 4.4.8 7.3-8.2 25.3-6.2 33.4 0h15.7c.5.1 1.4 0 1.8-.1l1.8-1.3q1.6-1 3.5-1.7c6.2-2.3 13.4-1 18.4 3.2H179q1.4 0 2.6-.3l2.6-2.5" class="b"/><path d="M7.8 139.5h10.5c5.1-3.1 12.7-4.2 17.6 0h2.6c7-6.6 17.6-6.6 26.3-4q4 1 7 3.7c1.3.6 3 .2 4.4.3h15c1.9-1.1 4-2.4 6.1-2.8a18 18 0 0 1 12.3 1.4c.8.4 1.8 1.2 2.6 1.4h26.3c1.2 0 2.5-.7 3.6-.9q3-.8 6.1-.9 6.7-.3 13.2.6 3 .4 6.2 1.2H179c.5-.2 1.4-1 1.7-1.3l3.5-2.8" class="b"/><path d="M7.8 137.4h9.6c4-2.3 8.7-3.5 13.2-2.7q3 .4 5.3 2.3c1 .6 2.4.3 3.5.3 5.9-6.4 17.6-6.3 25.4-4q2.8.7 5.3 2.3c2.5 2 2 1.8 5.3 1.8h17.5c1.3.1 2.4-1 3.5-1.3q2.6-1 5.3-1 4.6 0 8.8 2.3h23.7c1.2 0 2.4-1 3.5-1.4q3-1.2 6.2-1.8a43 43 0 0 1 24.5 3.2h8.8c2-2.1 4.6-3.7 7-5.1" class="b"/><path d="M7.8 135.2h6.1q1.7.1 3.5-.2c5.7-3.3 14-4.1 19.3.2 1.1 0 2.5.2 3.5-.2l1.8-1.5q2.8-1.7 6.2-2.6c7-1.8 18.4-1.2 23.7 4.3 3.5 0 7 .2 10.5-.3q1.4 0 2.6.3h12.4a14 14 0 0 1 8.7-.7q1.8.7 3.5.7h22.9a35 35 0 0 1 35 0h4.5c1 0 2.5.3 3.5-.4 2.4-2.5 5.6-4 8.7-5.5" class="b"/><path d="M7.8 133h6.1q1.8.2 3.5-.2c5.2-3 12-3.6 17.6-1q1 .5 1.7 1.1l1.8.2c1.2 0 2.7.1 3.5-1 6.9-5 22.8-5.4 29 .9q3 .1 6.1 0 3.8-1.8 8-1.3 2.2.3 4.3 1.3h41.3a33 33 0 0 1 36 0h6.1c3-3.2 7.3-5 11.4-6.5" class="b"/><path d="M7.8 131h8.7c1.5-.5 3-1.5 4.4-1.9q4.3-1.2 8.8-.8 2.8.3 5.3 1.4c.8.3 1.7 1 2.6 1.2H42c6.7-5.1 21.7-6 28.1 0h5.3q4.3-2.7 9.6-2.3 2.7.2 5.3 1.1c1.1.3 2.3 1.4 3.5 1.2H129l1.8-.9c9.6-5.7 25.4-7 34.2.8q2.6.1 5.3.1c1.5-.8 2.8-2.4 4.4-3.2a37 37 0 0 1 9.7-3.7" class="b"/><path d="M7.8 128.4c1 .5 2.4.3 3.5.4h5.2c1 0 1.9-.7 2.7-1q1.6-.7 3.5-1a24 24 0 0 1 12.3 1c.8.2 1.7.9 2.6 1h6.2c6.2-4 18.4-4.8 24.5-.3 1.4.5 3 .2 4.4.3q.9 0 1.8-.2l1.7-1.2c4.6-2.3 10.1-2.1 15-.7q2.8.9 5.2 2H128c6.4-3.8 13.7-6 21.1-5.5a22 22 0 0 1 14 5.4q2.7.4 5.3 0c4.1-4.3 10.2-5.8 15.8-6.9" class="b"/><path d="m7.8 125.6 1.7.9 1.8.1h6.1a23 23 0 0 1 9.7-2 26 26 0 0 1 9.6 2h3.5q3.1.2 6.2-.1 5.1-2 10.5-2.2c3.3 0 6.8.4 9.7 2.2 1.7.3 3.6 0 5.3.1.9.2 2-.4 2.6-1q1.6-1 3.5-1.6c6.3-2 13.3-.9 19.3 1.5 1.1.4 2.3 1.2 3.5 1.1h26.4q1.8-.7 3.5-1.8 3.3-1.6 7-2.6c7.8-1.9 17.7-1.7 23.7 4.3q2.2.1 4.4.1c5-4.7 11.8-6.3 18.4-7" class="b"/><path d="m7.8 123 2.6 1.4h7q.9.2 1.8-.3l2.6-.8q3.5-.6 7-.3 3.1.3 6.2 1.2c1 .4 2.4.2 3.5.2h11.4a29 29 0 0 1 12.3-.5c2 .7 4 .6 6.1.5 1.4 0 3 .3 4.4-.2q1.2-1 2.6-1.7c4.6-2.2 10-2.5 15-1.8q4.6.7 8.8 2c1.7.6 3.5 1.5 5.2 1.7h22.9c9-5.6 24.3-8 32.4 0q2.3.2 4.4-.1c5.2-5.3 13.2-6.2 20.2-6.4" class="b"/><path d="m7.8 120.7 2.6 1.6h8.8q4.6-1.4 9.6-.8c1.8.1 3.6.8 5.3.8h37.8c10.3-7.4 24-4 35-.2 2.3.4 4.8.1 7 .2h12.4c1.2.1 2.4-1 3.5-1.4q3-1.5 6.1-2.3c7.4-2 16.1-1.6 22 3.7h3.5c6.5-5.5 14.6-6.4 22.8-6" class="b"/><path d="M7.8 118.6q1.2.8 2.6 1.6h10.5q4-.6 8 0h43c11-7.3 25-4.3 36.8-.6 2.2 1 4.7.4 7 .6h11.5a30 30 0 0 1 23.7-3q1.8.5 3.5 1.7l1.7 1.2h3.5c6.7-5.8 16.2-6.1 24.6-5" class="b"/><path d="m7.8 116.7 1.7 1.3H71c1.3.2 2.4-.6 3.5-1.2l3.5-1.4a37 37 0 0 1 13.2-1.7c7.2.2 14.2 2 21 4.3h9.7c2 0 4.2.3 6.2-.2 7.3-3.8 17.1-5.4 24.5-.9.4.4 1.3 1 1.8 1.1h3.5c.5-.1 1.4-.7 1.8-1.1 7-5 16.5-4.5 24.5-2.7" class="b"/><path d="m7.8 115.2.8.6h65a37 37 0 0 1 5.3-2.3q6-1.9 12.3-1.8 9.9 0 19.3 3.3l2.6.9h15q3-1.5 6.1-2.4c6.1-1.6 13.2-1.5 18.5 2.4h4.3c7.8-6 18.5-5.1 27.3-2" class="b"/><path d="M7.8 113.7h67.6l4.4-1.9q5.1-1.6 10.5-1.9 8.5-.2 16.7 1.8 3 1 6.1 2h7q4.5.2 8.8-.1 6.8-3.1 14-2.8 2.8.2 5.4 1.2 1.7.8 3.5 1.7h5.2c5-3.7 11.7-4.1 17.6-3q3.1.5 6.1 1.7c1.2.4 2.4 1.2 3.6 1.3" class="b"/><path d="M7.8 111.6h67.6q1.3 0 2.6-.2a38 38 0 0 1 19.3-3 55 55 0 0 1 13.2 2.5c.8.3 1.8.8 2.6.7h14.1q1.4.1 2.6-.4c6.6-2.7 14.8-3.6 21 .2q2.3.3 4.5.2 1.2 0 2.6-.2l1.7-.9c4.4-1.8 9.5-1.9 14.1-.7 1.8.4 3.5 1.4 5.3 1.8h5.2" class="b"/><path d="M7.8 109.4h72.8L85 108q5.2-1.2 10.6-1.1 5.8 0 11.4 1.5l3.5 1h18.4c3.1-1.1 6.3-2.2 9.7-2.5a25 25 0 0 1 11.4 1.6c.7.4 1.7 1 2.6.9h8q2.9-1.2 6-1 2.3 0 4.5.4 1.2.4 2.6.6h10.5" class="b"/><path d="M7.8 107.3h76.4l3.5-.8q4.7-.9 9.6-.6c3.3 0 6.5.9 9.7 1.4h21.9l2.7-.9a29 29 0 0 1 16.6-1q2.3.6 4.4 1.6 1.4.4 2.7.3h29" class="b"/><path d="M7.8 105.1h14c4-1.4 8.2-2 12.3-1 1.5.1 3 1 4.4 1h88.7c1 0 2.5.2 3.5-.4a32 32 0 0 1 22-.8c1 .3 2.3 1.2 3.4 1.2h28.1" class="b"/><path d="M7.8 103h8.7q1.4-.5 2.7-1.1a24 24 0 0 1 14-1.3q2.3.6 4.4 1.5 1.2.9 2.6.9h86.1l4.4-.1q2.5-1.1 5.3-1.9a32 32 0 0 1 19.3 1c1 .3 2.3 1 3.5 1h25.4" class="b"/><path d="M7.8 100.8h4.4c1.7-.6 3.4-1.9 5.2-2.5q6-2.2 12.3-1.5 5.3.6 9.7 3.7 1.2.5 2.6.3h7.9l3.5-.5c2.3 0 4.7.7 7 .5h72.1q3.3-1.5 7-2.2a33 33 0 0 1 19.3 2.1q4.3.1 8.7.1h14.1q1.4 0 2.6-.3" class="b"/><path d="M7.8 98.7c1.3 0 2.3-1.3 3.5-1.8q3.3-1.9 7-2.8c7.4-1.8 16.1-.7 22 4.6H48a15 15 0 0 1 8-1c1.4 0 3 .6 4.3 1h73.8c1.8.2 3.5-.9 5.3-1.3q3.4-.7 7-.9 6.3 0 12.3 2 4.7.3 9.6.2h11.4l4.4-2.1" class="b"/><path d="M7.8 94.4A30 30 0 0 1 34 92.2a19 19 0 0 1 6.2 4c1 .5 2.3.2 3.5.3h3.5q1.2-.8 2.6-1.2 3.9-1 7.9-.1c1.5.3 3 1 4.4 1.3h76.4c1.7.2 3.5-.4 5.2-.7q3.1-.6 6.2-.4c2.7 0 5.3.7 7.9 1h18.4c2.7-.8 5.3-2.3 8-3.2" class="b"/><path d="M7.8 90.3A32 32 0 0 1 35 90l3.5 2.2c.8.6 1.7 1.7 2.6 2.1h5.3a16 16 0 0 1 8.8-2c2.7 0 5.3 1.1 7.9 2h110.6a90 90 0 0 1 10.5-4" class="b"/><path d="M7.8 86.5c11-4.1 24.8-3 33.3 5.7h5.3c3.6-2.4 8.2-2.7 12.3-1.8 1.8.3 3.5 1.4 5.2 1.8h54.5c1.7.2 3.5-.5 5.3-.7a30 30 0 0 1 7 0q2.2.3 4.4.7h36q6.5-2.6 13.1-4.3" class="b"/><path d="M7.8 83c7.3-2.1 15.5-2 22.8.4q3.8 1.3 7 3.6c1.2.8 2.3 2.2 3.5 3h5.3q4.4-2.7 9.7-2.2 2.7.2 5.2 1c1.2.4 2.3 1.4 3.5 1.3h51.8c2.1.1 4.1-1 6.2-1.3q4.8-.7 9.6-.3c4.2.2 8.2 1.1 12.3 1.6h21.1c2.4 0 4.7-1 7-1.5l11.4-2.9" class="b"/><path d="M7.8 80a42 42 0 0 1 23.7 1.6q3.3 1.3 6.1 3.3c1.2.8 2.3 2.2 3.5 3h3.5q1.5 0 2.7-.3c2.8-1.7 6.3-2.1 9.6-1.8q2.7.2 5.3 1.2 1.3.6 2.6 1h51c1.1 0 2.4-.6 3.5-.9l3.5-.8q5.2-.7 10.5-.6c9.1 0 18.1 1.5 27.2 1.5 8 0 15.9-1.9 23.7-3.3" class="b"/><path d="M7.8 77.1c8.5-1.3 17.6-.2 25.4 3.4q2.8 1.3 5.3 3.2c1 .8 2 2.3 3.5 2h5.3q2.5-1.3 5.2-1.8A21 21 0 0 1 64 85.5q1.3.3 2.7.2h12.3q3.5-.5 7-.6 4.5.2 8.8.6h21.9q3-1.2 6.2-1.7c5.8-.9 11.7-1 17.5-1.1 9.4-.2 18.8.9 28.1 1q8-.2 15.8-1.5" class="b"/><path d="M7.8 74.5c10.1-1 25 1.6 32.5 9q4 .1 7.9.1a20 20 0 0 1 11.4-1.4c1.8.2 3.5 1 5.2 1.4h11.4q2.6-1.2 5.3-1.6a42 42 0 0 1 18.4.7q2.2.9 4.4.9h12.3q2.2-.8 4.4-1.3c4.3-1 8.8-1 13.2-1.5q10.5-1.1 21-.7c9.7.4 19.4 2.6 29 1.3" class="b"/><path d="M7.8 72.2c3.2-.3 6.5.2 9.6.6q7.3 1 14 3.7 2.9 1 5.3 2.6c1.2.7 2.3 1.9 3.5 2.4H50q1.7-.7 3.5-1 3.5-.6 7 0c1.5.1 3 .9 4.4 1h9.7c7.8-4 17-5.1 25.4-2.9q3.3.9 6.2 2.5c1 .6 2.4.3 3.5.3h8q3-1 6-1.5c9.7-.9 19.3-2.7 29-2.7q8 0 15.8 1.7c3.2.6 6.5 1.6 9.7 2q3 .3 6.1.1" class="b"/><path d="M7.8 70.1q4 .2 7.9.9 6.2 1 12.3 3 4 1.3 7.9 3.3c1 .6 2.3 1.6 3.5 2h12.3c2-.2 4-.8 6.1-.7 2 0 4.1.5 6.2.7h5.2q2.7.1 5.3-.1 3.7-2.6 7.9-3.8c9-2.7 19.6-2 27.2 3.9h9.7q3-1 6.1-1.2c10.9-1 21.6-4.3 32.5-3.4q8.8.6 16.7 4.4 1.7.4 3.5.2h6.2" class="b"/><path d="M7.8 68.3c3 0 5.9 1 8.7 1.5q6.8 1.5 13.2 3.8 4 1.5 8 3.5h35.9c1.6-.5 2.9-2 4.4-2.7q3.8-2 7.9-3c7-1.8 14.7-1.2 21 2.3q2.5 1.3 4.5 3.2c1.3.4 3 .1 4.3.2 2.7 0 5.4.2 8-.3q4.8-.4 9.6-1.2c5.8-1.2 11.6-2.8 17.6-3.3 7.1-.6 14.8.2 21 4 1.5 1.2 3.6.7 5.3.8h7" class="b"/><path d="M7.8 66.7c3.6.4 7 1.7 10.5 2.6Q26.7 71.8 35 75h38.6c1.3-.5 2.4-1.8 3.5-2.5q3-2 6.2-3.3c9.8-4 22.4-2.5 29.8 5.6 1.1.3 2.4.1 3.5.2h6.2c3.2 0 6.5.2 9.7-.5 7-1.4 13.8-4.2 21-4.6 6.4-.4 13.4.7 18.5 4.8 1.3.5 3 .2 4.4.3h7.9" class="b"/><path d="M7.8 65.4c3 .4 5.9 1.8 8.7 2.8q6.1 2.3 12.3 4.3c1 .5 2.4.3 3.5.3h39.5q1.5.1 2.7-.3a27.7 27.7 0 0 1 40.4.3h21c1.8-.2 3.6-1.1 5.3-1.7q4.3-1.6 8.8-2.7 6.6-1.4 13.2 0 2.8.8 5.2 2.1c1.2.6 2.3 1.8 3.5 2.3h6.2c2-.8 4.1-.6 6.1-.4" class="b"/><path d="M7.8 64.3c3.7.9 7 3 10.5 4.4 1.7.6 3.5 2 5.3 2h9.6c13.8-.1 27.6.2 41.3-.1 11-12.4 30.7-13.5 41.3 0q11.9.2 23.7 0c1.6.3 3-1 4.4-1.5q3-1.5 6.1-2.3c7-2 15.7-1.5 21 3.9h6.2c2.2-1.1 4.7-1 7-.6" class="b"/><path d="M7.8 63.4c3.1 1 5.9 3.2 8.7 4.8q1.4.5 2.7.3h55.3C79 63.5 85 59.4 92 58.3c9.3-1.7 19.1 2.6 24.6 10.2q13.6.2 27.2 0c8.1-5.8 19.5-6.7 27.3 0h6.1q1.3-.4 2.6-.7 2.3 0 4.4.5" class="b"/><path d="M7.8 62.8c1.9.8 3.6 2.3 5.2 3.6h61.5c.6-.2 1.4-1 1.7-1.5 11.9-13.3 30.6-13 41.3 1.5h29c5-4.2 12.3-5.6 18.4-3.4q1.9.6 3.5 1.7c.8.5 1.7 1.5 2.7 1.7 2.9-.1 5.9.2 8.7-.3 1.5 0 3 .4 4.4.3" class="b"/><path d="m7.8 62.6 2.6 1.6h65c7.5-10 20.7-15.2 32.4-9a28 28 0 0 1 7 5.2c1.3 1.1 2.2 2.9 3.6 3.8h15c1.8-.7 4-1.5 6-1.4q1.9 0 3.6.7l1.7.7h3.5c1-.2 1.9-1.2 2.7-1.7q1.6-1 3.5-1.6c3-1 6.5-1 9.6-.2q3.6 1 6.2 3.3c1.7.4 3.5.1 5.3.2h8.7" class="b"/><path d="M7.8 62h67.6c.6-.2 1.4-1.1 1.7-1.6l2.7-2.9q3.8-3.7 8.7-5.8c11.2-4.8 23.5.5 29.9 10.3q7 .2 14 0a13 13 0 0 1 11.5-1.8c1.2.4 2.3 1.4 3.5 1.9h1.7c.5 0 1.4-.1 1.8-.3q1.1-1.1 2.6-2a15 15 0 0 1 14 .3c1.3.5 2.3 1.9 3.6 2h13.1" class="b"/><path d="M7.8 60h68.4C83 50 95.6 44.1 107 49.5a27 27 0 0 1 10.5 8.5c.3.6 1.2 1.6 1.8 1.8h12.3c1.2-.3 2.3-1.3 3.5-1.8q3.3-1.5 7-1.2c2.2.2 4.5 1 6.1 2.6 1 .7 2.4.4 3.5.4 3.6-3.6 9.4-4.3 14-2.6q2 .6 3.6 1.7l1.8 1h13.1" class="b"/><path d="M7.8 57.8h68.4c1.7-1.3 2.8-3.5 4.4-5q3.5-3.4 8-5.5a23 23 0 0 1 23.6 3c2.8 2 4.9 4.9 7 7.5h12.4c.5 0 1.3-.6 1.7-1q1.6-1 3.5-1.7c3.1-1 6.7-1 9.7.3 1.2.5 2.3 1.7 3.5 2.4q1.4 0 2.6-.2c4.8-5 13.4-4 18.5.1h13.1" class="b"/><path d="M7.8 55.6h11.4c1.1 0 2.4-.6 3.5-.7q2.2-.3 4.4 0 1.7.4 3.5.7h42.1q2.2.2 4.4-.2c11.2-16.5 31.1-16.4 42.2.2h13.1c4-2.9 9.4-4.3 14-2.2 1.4.4 2.4 1.8 3.6 2.2h1.8c1.1-.7 2.2-1.9 3.5-2.4 3.5-1.7 7.7-1.7 11.4-.5l3.5 1.6c.8.4 1.6 1.4 2.6 1.3h11.4" class="b"/><path d="M7.8 53.5h9.6c1.2-.2 2.4-1 3.5-1.2q3.6-.9 7-.1c1.8.2 3.5 1.3 5.3 1.3h44c11.1-16.5 31-16.7 42 0h13.2q1.6 0 2.7-1 1.2-.6 2.6-1c3.5-1.1 8-.9 10.5 2h2.7c5.4-6.3 15.8-5.2 22-.4 1.2.7 2.9.3 4.3.4h7" class="b"/><path d="M7.8 51.3h8.7c4.2-2.1 7.7-2.8 12.3-1.7 1.8.3 3.5 1.3 5.3 1.7h43c7.3-10.7 20.7-16 32.5-9.1a27 27 0 0 1 6.2 5c1.2 1.2 2.1 3 3.5 4.1H135c1.1 0 2.3-1 3.5-1.1 2.3-.6 5-.4 7 1 1.8.2 3.2.4 4.4-1.2 7-5.6 17.9-4.4 24.6 1.2q4.8.1 9.6.1" class="b"/><path d="M7.8 49.2h8.7c4.8-3.7 11.5-3.3 16.7-.9l1.8.9h37.8c1.3 0 3 .2 4.3-.2 10.9-15.3 31-16.2 41.3.2h27.2a24 24 0 0 1 23.7-4c10 4.5 2.2 4 15 4" class="b"/><path d="M7.8 46c1.1 0 2.4.7 3.5 1h5.2c.9-.3 1.8-1.1 2.7-1.6q1.6-.9 3.5-1.1 4.5-.8 8.8.7c1.8.4 3.5 1.6 5.2 2h39.5c1.7-1.2 2.9-3.2 4.4-4.4Q85.6 38 92 36c9.7-2.7 20.7 2.1 25.5 11h22.8c1.6 0 3-1.3 4.4-1.9q3.3-1.7 7-3a26 26 0 0 1 25.5 4.8h7" class="b"/><path d="M7.8 42a9 9 0 0 1 3.5 1.2c.8.4 1.7 1.4 2.6 1.7h3.5C22.8 40.5 30 41.2 36 44l1.7.8h27.2c3.8-.1 7.7.2 11.4-.2 11.2-13.7 30.1-15.4 40.4.2h2.7l1.7-.8q1.7-.7 3.5-.7c5.6-.1 11.3 1 16.7-.7 8.2-2.7 15.7-5.8 24.6-4Q172 40 177.2 44c.3.3 1.3.9 1.8 1h5.2" class="b"/><path d="M7.8 38.4c3 .2 5.9 2 7.9 4.3q1.7.2 3.5-.2l1.7-1.4c3.2-1.8 7-1.8 10.6-1q2.7.5 5.2 1.7c.8.3 1.8 1 2.7 1h36c4.7-5 10.6-9.2 17.5-10.2a21 21 0 0 1 22 10.1h1.7c3.2-3 6.5-2.9 10.6-2.6q5.7.5 11.4-.2c3.9-.6 7.6-2 11.4-2.8q6-1.6 12.3-1.3a30 30 0 0 1 12.3 3.6c1.8.9 3.5 2.4 5.2 3.4h4.4" class="b"/><path d="M7.8 35a13 13 0 0 1 9.6 5.6h2.7c4.7-4.4 12-3.5 17.5-1q.9.3 1.8.8 1.2.3 2.6.2h32.5c5-4.3 10-8 16.7-9.2 7.8-1.5 17.5 1.2 21 8.8q.9.5 1.8.4c2.5-4.2 8-4.2 12.3-3.6q4.4.3 8.8.2c8-.3 15.6-3.6 23.7-3.8a33 33 0 0 1 15 3c2.4 1 4.6 2.8 7 4.2h3.4" class="b"/><path d="M7.8 31.7c4.5.3 8.8 3 11.4 6.7l2.6-.1c4.3-4.5 11.5-3 16.7-1q1.3.8 2.6 1.1h32.5c4.9-3.9 10.4-7.4 16.7-8.3 7.2-1.1 16.3 1 19.3 8.3h.9c4.7-7.7 14.6-3.9 22-3.9 5.6.3 11.1-1 16.6-2a41 41 0 0 1 24.6 1.6q3.2 1.3 6.1 3.4c1.2 1.2 3 1 4.4 1" class="b"/><path d="M7.8 28.8c4.8.3 9.6 3 12.3 7q1.2.7 2.6.5C27 31.9 34 33 39.4 35.2c.8.3 1.8 1 2.6 1h30.7c6.1-4.8 14-8.1 22-7.2 5 .6 9 2.7 11.4 7.3.6-.3 1.4-1.5 1.7-2q1.6-1.7 3.6-2.6c6.5-2.8 13.5-.2 20.1.3q6.7.4 13.2-.8c13.8-2.7 24.8-3.3 36.9 5h2.6" class="b"/><path d="M7.8 26c5.2.4 10.4 3.3 13.1 7.7q1.3.6 2.7.4c3.5-3.3 8.7-3.3 13.1-2q1.9.4 3.5 1.1c.8.3 1.8 1 2.7 1h26.3c1.2 0 2.6 0 3.5-.9 5.4-3.5 12-5.8 18.5-5.2 3.7.4 8 1.9 9.6 5.6l.9.4c2.3-5.3 8.8-6.7 14-6.7 6-.1 11.7 2.2 17.6 2.4 7.7.7 15.2-1.4 22.8-2q9.1-.8 17.6 2.2a36 36 0 0 1 7.9 4.1h2.6" class="b"/><path d="M7.8 23.5c5.6.4 11 3.7 14 8.5h2.6c3.5-3.4 8.9-3 13.2-1.8q1.8.5 3.5 1.3c.4.3 1.3.5 1.8.5h25.4c.9 0 2 .1 2.7-.5a28 28 0 0 1 15.8-4.3c3.4.2 7.2 1.5 8.7 4.8h1c2.1-5 8-6.8 13.1-7.5q5.3-.5 10.5.6c3.3.6 6.5 1.7 9.7 2.3q7 1.3 14 .5c13-1.8 25.2-3.8 37 4h3.4" class="b"/><path d="M7.8 21.3c5.6.4 11.1 3.6 14 8.4q1.8.2 3.5 0 2-1.7 4.4-2 4-.5 8 .6c1.4.4 2.8 1.2 4.3 1.5h26.3c1.2-.2 2.4-1 3.6-1.5q2.9-1.4 6.1-2c4.2-.7 9.7-.7 12.3 3.3l.9.2c.6-.2 1.4-1.4 1.7-2q1.2-1.4 2.7-2.4c5-3.5 11.5-4.4 17.5-4 5.8.5 11.2 2.8 16.7 4.1a44 44 0 0 0 15.8.9c8.1-1 16.5-2.3 24.6-.4q4.5 1.1 8.8 3.5c1.6.7 3.5.2 5.2.3" class="b"/><path d="M7.8 19.2c5.6.4 11 3.8 14 8.5h3.5c1.9-1 4-2 6.2-1.9q4.6 0 8.7 1.9H50q8.7 0 17.6-.1c6-2.8 14-5.3 19.3 0h.9c.6-.3 1.4-1.4 1.7-2q1.2-1.5 2.7-2.6a28 28 0 0 1 20.1-4.3c6.2.7 11.8 3.4 17.6 5.2q7.4 2.3 15 1.6c7.5-.7 15.2-2.2 22.8-1q3.6.5 7 1.8c1.1.4 2.3 1.3 3.5 1.4h6.2" class="b"/><path d="M7.8 17.5c4.3.3 8.4 2.4 11.4 5.4 2.7 3.4 1.9 2.5 6.1 2.6 1.2.2 2.4-.8 3.5-.9q2.2-.4 4.4-.1c2 .2 4 1.3 6.2 1h26.3q2.6-.9 5.3-1.8c4-1 9.3-1.7 12.3 1.8H85a6 6 0 0 0 1.8-2q1.2-1.5 2.6-2.7c5.9-4.6 13.8-5.9 21-4.8 7 .8 13 4.1 19.4 6.6 5 1.9 10.4 3 15.8 2.4 6.7-.6 13.4-2 20.2-1.3q2.6.2 5.3.9c1 .2 2.3.8 3.5 1h9.6" class="b"/><path d="M7.8 16c3.9.3 7.7 2.2 10.5 5 1.7 1.6 1.7 2.6 4.4 2.4q3.5 0 7-.2 2.2.2 4.4.2h29c2 .2 4-1 6.1-1.4 3.7-1 8.4-1.6 11.4 1.3h2.7c5.4-8.6 16.6-11.7 26.3-9.9 7 1.1 13 4.7 19.3 7.7q2.6 1.3 5.3 2.3h50" class="b"/><path d="M7.8 14.8c4.4.4 8.6 3 11.4 6.4h21c1 .2 1.9-.4 2.7-.7q1.7-.6 3.5-.7c2.7-.3 5.4.5 7.9 1.4h10.5c3-1.1 6.4-2 9.7-1.6q1.4.2 2.6.8c.4.3 1.3.7 1.8.8h2.6A26 26 0 0 1 107.8 11c7 1.1 13.3 4.8 19.4 8.5 1 .6 2.2 1.6 3.5 1.8h53.5" class="b"/><path d="M7.8 13.9c3.7.3 7.1 2.4 9.6 5.1h19.3c5.4-3.6 13.1-3.7 18.5 0h9.6c2-.3 4.1-1 6.2-1q2.7 0 5.3 1h3.5c.7-.1 1.4-1.1 1.7-1.7.5-.6 1.3-1.6 1.8-2a25 25 0 0 1 9.7-6 29 29 0 0 1 19.3.7q5.5 2.2 10.5 5.7l4.4 3.2q2.2.3 4.4.2h52.7" class="b"/></svg>