<svg xmlns="http://www.w3.org/2000/svg" id="a" width="1920" height="2400" viewBox="0 0 192 240"><defs><style>.b{fill:none;stroke:#fff;stroke-miterlimit:10;stroke-width:.3px}</style></defs><path d="M0 0h192v240H0z" style="stroke-width:0"/><path d="M8.6 225.3c1.8.7 3.5 2 5.2 2.8H74c1.3 0 3 .2 4.3-.3a42 42 0 0 1 24.3-2.6c1.8.5 3.8 1.3 5.2 2.5 1 .6 2.4.3 3.5.4 4.4-3.5 10.3-3.8 15.7-4.5a53 53 0 0 1 21.7-1.2 49 49 0 0 1 14 4.7c.7.3 1.6 1 2.5 1h18.3" class="b"/><path d="M8.6 222.5a28 28 0 0 1 6.1 3.4h48.7q6.1.1 12.2 0l5.2-1.7c6.7-1.8 14-2.7 20.9-.8 1.8.4 3.5 1.6 5.2 2.5h2.6c5.3-4.2 11.9-4 18.2-4.9a61 61 0 0 1 14-1.5c7 .3 14.2 2.3 20 6.4h21.7" class="b"/><path d="M8.6 220c2.6.7 4.7 2.5 7 3.8h7.8q4.3 0 8.7-.2 6 .3 12.2.2h25.1c1.5 0 3.1.2 4.4-.3 9.2-2.7 23-5.7 31.3.3 4.2.2 3-.3 6.1-2a26 26 0 0 1 7-2.1c3.1-.6 6.4-.4 9.5-.8 6.3-1.1 12.8-2 19.2-.6 4.3.9 8.7 2.4 12.1 5.2 1 .5 2.4.3 3.5.3h20.9" class="b"/><path d="M8.6 217.5q4 1.4 7 4.2h7.8c3.2-1.5 7-1.7 10.4-1.6q5.3.5 10.5 1.6h26l5.3-1.4c8.2-2 20.4-3.8 27.8 1.1q1.2.4 2.6.3 1 0 1.7-.4a16 16 0 0 1 5.2-2.8q4.3-1.4 8.7-1.5 3.5 0 7-.3c4.3-.6 8.7-1.2 13-.8 5.6.4 11.4 2 15.7 5.7q3 .2 6 0a16 16 0 0 1 10.5 0h9.6" class="b"/><path d="M8.6 215.4q4 1.2 7 4.2h5.2c1 0 1.8-.8 2.6-1.1q1.7-.8 3.5-1.1c4.6-1 9.4-.5 13.9.5L46 219q1.7.5 3.5.5 9.6 0 19.1-.1c9.6-2.8 25.2-5.7 34 0h4.3c3.8-3.2 9-4.3 13.9-4.6 2.9-.1 5.8.4 8.7 0 8.8-1.3 18.9-1.4 26 4.7h5.3l2.6-1.1q2.2-.7 4.4-.7 4 .1 7.8 1.7h7.8" class="b"/><path d="M8.6 213.3q2.3.7 4.4 2.1c.8.6 1.7 1.6 2.6 2h4.3c1-.2 1.8-1 2.6-1.5a17 17 0 0 1 4.4-1.4c7.6-1.5 15.3.7 22.6 2.8 4 .3 8.1 0 12.2.1h5.2a67 67 0 0 1 20.9-3.1q4.8 0 9.5 1.3 2.3.6 4.4 1.8h5.2q2-1.7 4.3-2.6 5.5-2 11.3-1.8 2.6.3 5.3.4l7.8-.6a28 28 0 0 1 18.2 4.6h2.6c1.2 0 2.5.3 3.5-.4 4.7-2.8 10.9-2.3 15.7 0 1 .7 2.4.4 3.5.4h4.3" class="b"/><path d="M8.6 211.5a13 13 0 0 1 6.1 3.6q1.3.3 2.6.2 1.4.2 2.6-.3 3.4-2.9 7.9-3.4c5.5-.8 11.1.2 16.5 1.7l6 1.9c2.3.3 4.7 0 7 .1H66a56 56 0 0 1 28.7-2q3 .8 6 2h6.2q1.6-1 3.5-1.9a27 27 0 0 1 13-2q3.5.8 7 .5c5.8-.4 11.9-.9 17.4 1.4l2.6 1.3.8.6 1 .1h5.1c1 0 1.9-.9 2.6-1.3q1.7-.8 3.5-1.2c4.4-.9 9.2 0 13 2.2q1.4.4 2.7.3h4.3" class="b"/><path d="M8.6 209.7q3.4 1 6.1 3.5h4.4c5.7-5.4 14.5-4.9 21.7-3.1a78 78 0 0 1 9.6 3H66q7.6-2.6 15.7-2.5c5.5 0 11.2.3 16.5 2.2 1 .6 2.4.3 3.5.4h6c4.3-2.4 9.1-3.8 14-3.4 2.3.2 4.6 1.1 7 1.1 5.1.1 10.5-1 15.6.4q1.8.5 3.5 1.3c.6.5 1.8.7 2.6.6h4.3c.8 0 2 .1 2.6-.5 6-4 14.2-3.5 20 .5h6.1" class="b"/><path d="M8.6 208.2a11 11 0 0 1 5.2 2.8q2.7.2 5.3-.1c8-7.2 20.6-3.9 29.5-.2 1.3.6 3 .3 4.4.3h13c1.7-.3 3.5-1.2 5.2-1.4 7.8-1.4 15.8-.8 23.5.8l2.6.6h11.3c1.2.2 2.4-.8 3.5-1.1q3-1.2 6-1.4 4.2-.3 8 1.2 2.9.9 6 .6c4.3-.4 8.9-.8 13 .6 3.5.3 7 0 10.5.1a19 19 0 0 1 21.7-.1c2 .3 4.1 0 6.1.1" class="b"/><path d="M8.6 206.7q1.9.5 3.5 1.4.8.6 1.7.8h5.3c7.1-6.4 18-4.5 26-1.2l2.6 1.2h14.8c1.7 0 3.6.2 5.3-.2 6.3-2.4 13.4-1.5 20-.7q2.6.3 5.2.9h18.2q1.5-.1 2.6-.7 2.6-.7 5.3-.8 2.2 0 4.3.6l1.7.9h29.6a20 20 0 0 1 18.3-2.6c6.6 2.7 2.2 2.7 10.4 2.6" class="b"/><path d="M8.6 205.4q1.9.3 3.5 1.3 3.5.2 7 0c1.9-1 3.8-2.4 6-2.9q5.2-1.4 10.5-.4a33 33 0 0 1 9.5 3.3q4.8.2 9.6 0h13c1.5 0 3-.7 4.4-.8q3.9-.4 7.8 0l7 .9h66q1.6 0 2.7-1l2.6-1.3a21 21 0 0 1 13-1c2.5.5 4.8 2 7 3.3h5.2" class="b"/><path d="M8.6 204.4c3.7.6 7.6.1 11.3.3 1.2-.4 2.3-1.3 3.5-1.7q2.5-.9 5.2-1.2 4.9-.4 9.6 1.1c1.4.4 2.9 1.4 4.3 1.8h19.2q6 .2 12.1-.3l5.3.3H153c.9 0 1.8-.8 2.6-1.2q1.6-1 3.4-1.6a20 20 0 0 1 19.2 2.8h5.2" class="b"/><path d="M8.6 202.5h13c1.5-.2 3-1 4.4-1.3q4.8-1 9.6.5 1.3.5 2.6.8h114.7c1.2-.3 2.4-1.3 3.5-1.8 6.9-3.4 15.8-3.3 21.8 1.8h5.2" class="b"/><path d="M8.6 200.4h33.9q3-1 6.1-1c2.4-.2 4.7.5 7 1h97.3c1.2-.5 2.4-1.4 3.5-1.9 6.8-3.4 15.8-3.4 21.8 1.8q2.5.1 5.2.1" class="b"/><path d="M8.6 198.3h27.8c1.5 0 3-1 4.4-1.3a24 24 0 0 1 13 0q1.8.7 3.5 1.3H153c6-4 14-6 20.8-3 5.8 2.7 2.1 3.2 9.6 3" class="b"/><path d="M8.6 196.1h22.6c1.2.2 2.4-.4 3.5-.9q2.6-1 5.2-1.6a28 28 0 0 1 18.3 2.5h94.7c.5-.1 1.4-.7 1.8-1 3.9-2.3 8.5-3.6 13-3.4 3.4.2 6.9 1.4 9.6 3.5a3 3 0 0 0 2.6 1h3.5" class="b"/><path d="M8.6 192.3q1.4.7 2.6 1.6c1.7.3 3.5 0 5.2.1h11.4c1.2.2 2.4-.6 3.4-1q2.2-.9 4.4-1.5A32 32 0 0 1 59 194H153c.9 0 1.8-.9 2.6-1.3q2-1.2 4.3-2c6.1-2 13.4-1.2 18.3 3.3h5.2" class="b"/><path d="M8.6 188q3.7 1.6 7 3.9h11.3c1.7-.6 3.4-1.7 5.2-2.3a34 34 0 0 1 24.3.8c1.2.4 2.3 1.2 3.5 1.5h91.3c1.1 0 2.5.2 3.5-.4 4-2.7 9-4 14-3.5q3 .3 6 1.8c1.2.5 2.2 1.7 3.5 2h5.2" class="b"/><path d="M8.6 184q4.1 1.3 7.8 3.6c1.2.6 2.2 1.8 3.5 2.2h5.2c1.2 0 2.6 0 3.5-.9a29 29 0 0 1 14-3.4 35 35 0 0 1 17.3 4.3h94.8l1.7-1q5.7-3.2 12.2-2.4a17 17 0 0 1 7 2.6l.8.6 1 .2h6" class="b"/><path d="M8.6 180.4q5.6 1.4 10.5 4.2c1.5.8 2.8 2.2 4.3 3 8.2.2 3.8-.1 10.4-2.6a34 34 0 0 1 20.9.5l5.2 2.1h35.7c4 .2 8-.6 12.1-.8q8.2-.3 16.6.3c4 .4 8-.1 12.1-.2q2.2 0 4.4.3 1.6.5 3.4.4h11.3c1 0 1.9-.7 2.7-1q2-1 4.3-1.4 5-1 9.6.9c1.1.3 2.2 1.5 3.4 1.5h7.9" class="b"/><path d="M8.6 177c6 1.2 14 4 18.3 8.4h2.6q1.3.2 2.6-.2a17 17 0 0 1 7.8-2.8q6.6-.8 13 .9c2.4.5 4.7 1.6 7 2.2h38.3c2.3-.3 4.6-1.1 7-1.4q6-1 12.1-1.2c7-.1 14-.2 20.9.6q3.5.6 7 2h10.4q1.2 0 2.6-.2l1.7-.6q3-1 6.1-.9c2 .1 4.3.6 6 1.7h8c1-.2 2.3-.8 3.4-.8" class="b"/><path d="M8.6 174q8.6 1.2 16.5 5 3.4 1.5 6.1 4c1.6.7 3.6.2 5.3.4 4.6-2.9 10.4-2.5 15.6-1.7q2.2.3 4.4 1c1 .3 2.3.8 3.4.7h38.3c1.1-.1 2.4-.8 3.5-1q3-1 6-1.6a86 86 0 0 1 21-1.6q6.1.2 12 1.8a26 26 0 0 1 5.3 2.2c1 .3 2.4.1 3.5.2q7.5.1 14.8-.3 4.8.4 9.5.3 1.8.1 3.5-.3 2.8-1.6 6.1-1.9" class="b"/><path d="M8.6 171c9 1 21.7 4.5 28.7 10.2h7q3.8-.7 7.8-.4c4.6.6 9.3.4 13.9.4h32.2c.8.2 1.8-.4 2.6-.7l2.6-1c13.3-4.7 31-6 43.5 1.7h26c1.3 0 2.4-1 3.5-1.5q3.3-1.5 7-1.6" class="b"/><path d="M8.6 168.5c11 .6 24.3 4.1 34 9.7q1.6 1.2 3.4.9H100a51 51 0 0 1 42.6-2.7l3.5 2a4 4 0 0 0 1.7.7h22.6c1.5-.4 3-1.6 4.4-2a23 23 0 0 1 8.7-1.9" class="b"/><path d="M8.6 166.1a88 88 0 0 1 38.3 9.4l2.6 1.5h50.4c1.3 0 2.4-1.1 3.5-1.6q2.5-1.3 5.2-2.3a41 41 0 0 1 38.3 3.6c1 .4 2.4.2 3.5.3h17.3a3 3 0 0 0 1.8-.7q1.6-1 3.5-1.7 5-2 10.4-2" class="b"/><path d="M8.6 164a82 82 0 0 1 40.9 8.8q1.7 1 3.5 2h48.6a39 39 0 0 1 45.2 0q10 .1 20 0a29 29 0 0 1 16.6-4.6" class="b"/><path d="M8.6 162.1a71 71 0 0 1 46.1 10.6h47.8c1.5-.6 3-1.8 4.4-2.5q4.5-2.5 9.5-3.9a36.2 36.2 0 0 1 29.6 6q1.2.6 2.6.4H166l1.7-1q1.7-1 3.5-1.6a30 30 0 0 1 12.2-2" class="b"/><path d="M8.6 160.5a66 66 0 0 1 44.4 8c1 .6 2.2 1.8 3.4 2h8.7q1.8.1 3.5 0a21 21 0 0 1 10.5 0q12.5.1 25.2 0a33.6 33.6 0 0 1 41.7 0h20a29 29 0 0 1 17.4-4.4" class="b"/><path d="M8.6 159.2c13.3-2.8 27.7-2 40 4 11.6 6 3.2 5.3 17.4 5.2q1.4.2 2.6-.3a21 21 0 0 1 10.5-.6c1.4.2 2.9 1 4.3 1h20.9q1.5 0 2.6-1l3.5-2.2a32 32 0 0 1 10.4-3.6c6.8-1 14 .8 20 4 1.5.8 2.9 2 4.3 2.7H166c.5 0 1.4-.3 1.7-.6q1.7-1 3.5-1.6c3.9-1.6 8.1-1.8 12.2-1.7" class="b"/><path d="M8.6 158.1c17-4.7 34.5-2.9 48.7 8.2h10.4a21 21 0 0 1 14.8-1c1.1.2 2.4.9 3.5 1h20.9c.9-.3 1.8-1.1 2.6-1.6q3.2-2.1 7-3.5c5.5-2 11.7-1.6 17.3.1q5.3 1.5 9.6 4.7c1 .5 2.4.3 3.5.3h20.8c1.7-.6 3.5-1.6 5.3-2.1 3.3-1.1 7-1.1 10.4-1" class="b"/><path d="M8.6 157.4c7-2.3 14.4-4 21.8-3.5 9.7.5 19.4 4 27 10.3h10.3q4.6-2.3 9.6-2.3 5.5-.2 10.4 2.1c2 .4 4.1.1 6.1.2H107q1.3 0 2.6-.3a26 26 0 0 1 13-5.4c7-.3 14.2 1.7 20 5.7h27c.8.1 1.8-.4 2.6-.7q1.6-.7 3.5-1c2.5-.6 5.2-.4 7.8-.4" class="b"/><path d="M8.6 157.2c6.6-3 13.7-5.1 20.9-5.1 10 0 20 3.6 27.8 10h10.4c1.5-.3 3-1.3 4.4-1.7a24 24 0 0 1 18.2 1.7h4.4c5.5-.1 11 .2 16.5-.2 3.5-2.6 7.8-4.4 12.2-4.6 6 0 12.3 1.4 17.4 4.7h33c1.4.1 3-.6 4.4-.6q2.5-.1 5.2 0" class="b"/><path d="M8.6 157.4a41 41 0 0 1 48.7 2.5h11.3a25 25 0 0 1 23.5-.1c1.4.3 3 0 4.3.1H113c1.2-.3 2.4-1.2 3.5-1.7q2.5-1.2 5.2-1.6a33 33 0 0 1 16.6 3q1.2.4 2.6.3h12.1q2.2-.3 4.4-.4 2.2.1 4.3.4h21.8" class="b"/><path d="M8.6 157.8h.9c13.2-11.3 30-11 44.3-2.1 1.2.6 2.3 1.7 3.5 2.1h12.1l3.6-1.7a25 25 0 0 1 15.6-.7c2.1.5 4 1.7 6.1 2.4h20c1.9.2 3.5-1.2 5.2-1.5 3.7-1 7.7-.3 11.3.3q2.3.4 4.4 1.2h12.2q2.2.2 4.3-.4 3-.9 6-.9c2.7 0 5.4.7 8 1.3h17.3" class="b"/><path d="M8.6 155.7H13c13.2-11.6 29.6-9.4 43.4 0h14a26 26 0 0 1 25.2-.3c1.3.5 3 .2 4.3.3h20c1.4 0 3-.5 4.4-.4q5.2.6 10.4.4h14c1.4 0 2.8-1 4.3-1.2a26 26 0 0 1 12.1 0c1.5.2 3 1.3 4.4 1.2h13.9" class="b"/><path d="M8.6 153.5q4 .2 7.8-.1c10-9.7 25.3-8 36.6-1.6 1 .6 2.2 1.6 3.4 1.7h13.1q1.3.2 2.6-.3 2.5-1.5 5.2-2.2a27 27 0 0 1 18.3 1.5c1 .5 2.2 1.2 3.4 1h49.7q1.6-.5 3.4-1.1 2.5-1 5.2-1.1 6.9-.6 13 2.2h13" class="b"/><path d="M8.6 151.4q5.3.2 10.5-.1c9.6-9 24.1-6.6 34.7-.7 1.8 1.3 4.1.7 6.1.8h9.6l3.5-.1 1.7-1q3-1.2 6-1.9a28 28 0 0 1 18.4 3h49.5c2.8-1 5.7-2.2 8.7-2.4q4.4-.4 8.7.6c1.8.3 3.5 1.4 5.2 1.8h12.2" class="b"/><path d="M8.6 149.3h9.6c3.8.2 3.1-.5 6-2.2 9-5.2 20-3 28.8 1.3l1.7.9h19.1c1.2-.3 2.4-1.1 3.5-1.5q3-1.1 6.1-1.5a29 29 0 0 1 16.5 3h48.7c1.2 0 2.4-.9 3.5-1.2q2.5-.8 5.2-1.2a24 24 0 0 1 12.2 2l.8.4h13" class="b"/><path d="M8.6 147.2h14.8a25 25 0 0 1 21.7-3q3.6 1 7 2.4c1.3.8 3 .5 4.4.6h19q1 0 1.8-.5a24 24 0 0 1 9.6-2.2q5.8-.2 11.3 1.8l2.6.9h48.7q4.1-1.9 8.7-2.4 4-.3 7.8.8c1.5.3 2.9 1.3 4.3 1.6h13" class="b"/><path d="M8.6 145H26q3.3-1.6 7-2.4a26 26 0 0 1 13.9 1.3c1 .3 2.3 1 3.5 1.1H79c1.5-.1 3-1 4.4-1.2a29 29 0 0 1 14 .2c1.3.2 2.8 1 4.3 1h47.8a29 29 0 0 1 10.4-2.4q3.6 0 7 1.1c1.1.4 2.3 1.3 3.5 1.3h13" class="b"/><path d="M8.6 142.9h20.9c2.3.1 4.6-.7 7-.7q3 .1 6 .7h41.8q5.6-1.4 11.3-.9c2.6.3 5.2 1.1 7.8.9h46.1c.8 0 1.8-.6 2.6-.9q2-.8 4.3-1.2a22 22 0 0 1 11.3 1q1.3.8 2.6 1h13" class="b"/><path d="m8.6 139.8 1.8 1h139.9q1.4-.3 2.6-1 1.8-.8 3.5-1 4.4-1 8.7 0a19 19 0 0 1 5.2 2h13" class="b"/><path d="m8.6 136.8 2.6 1.4q.8.5 1.8.4h21.7c4.5-1.2 9.2-2.2 14-2.1q3.8 0 7.7 1c1.5.2 3 1 4.4 1.1h90.4c.9 0 1.8-.6 2.6-1a20 20 0 0 1 12.2-1q2.7.8 5.2 2h12.2" class="b"/><path d="M8.6 134.2q2.3 1 4.4 2.3h14.8l3.4-1.2c10.1-3.2 21.4-3.6 31.3.5q1.3.7 2.6.7h55.7c2 0 4.1.3 6-.3 4.3-1.3 8.8-2 13.1-1.1 1.8.2 3.5 1.5 5.2 1.4h7.9a19 19 0 0 1 7.8-2.5q3.5-.3 7 .7c1.4.4 2.9 1.4 4.3 1.8h11.3" class="b"/><path d="M8.6 132q2.3.8 4.4 2.1c1.9.6 4 .2 6 .3h5.3c.8 0 1.8-.7 2.6-1q1.6-.9 3.5-1.4a51 51 0 0 1 35.6 1.6c.8.3 1.8.9 2.6.8h40.9c2.9 0 5.9.1 8.7-.6 4.6-.8 9.2-2.3 13.9-3 5.4-.6 11.3 0 15.6 3.5q3.5.1 7 0a16 16 0 0 1 13-1.9q1.9.5 3.5 1.3a4 4 0 0 0 1.8.7h10.4" class="b"/><path d="M8.6 130.1q2.3.8 4.4 2 4.3.2 8.7.1c1.2.2 2.3-1 3.4-1.4q2.2-1 4.4-1.8a52 52 0 0 1 25.2-1.7 100 100 0 0 1 16.5 4.6c.4.2 1.3.4 1.8.3h30.4q4.8.2 9.5-.1 6-2.1 12.2-3.6c5.4-1.4 11-2.2 16.5-1q5 1.1 8.7 4.3 1.2.7 2.6.4h3.5c4.9-3.4 11.5-2.6 16.5 0h10.5" class="b"/><path d="M8.6 128.6q1.9.5 3.5 1.5h8.7c9-6 20.7-7.1 31.3-5.9 6.5.9 12.8 2.7 19.1 4l3.5 1q1.6.8 3.5 1H112c11.6-5.7 26.5-10.3 38.3-2.7 3.7 2.7 1.8 2.7 7 2.6.4.1 1.3-.1 1.6-.4q1.4-.8 2.7-1.1A16 16 0 0 1 173 130h10.4" class="b"/><path d="M8.6 127.5c1.3.6 3 .5 4.4.5h6a44 44 0 0 1 27-6.8c6.5.2 12.8 1.6 19.1 2.9q5.3.7 10.5 1.8c2.3.5 4.6 1.6 7 2h27.7c.8 0 2 .2 2.7-.1q2-1.6 4.3-2.7 5-2.4 10.4-3.7c9.5-2.3 21-1 27.9 6.5q2.5.1 5.2 0 2.4-1.3 5.2-1.3c2.4-.1 4.7.8 7 1.4h10.4" class="b"/><path d="M8.6 125.9h8.7c10-7 23-8 34.8-6.5q6.5 1 13 2c3.5.5 7 .6 10.5 1.2q3.5.5 7 1.6c1.4.4 2.8 1.3 4.3 1.7h26c1.5-.9 2.9-2.3 4.4-3.1q4.1-2.5 8.7-3.7c11-3.4 24-1.7 32.2 6.8h5.2q1.6-.5 3.5-.6 2.2 0 4.3.6h12.2" class="b"/><path d="M8.6 123.7h7c9.3-6.4 21.1-7.9 32.2-6.9 7 .5 13.8 2.4 20.8 2.4q7.5-.2 14.8 1.7 2.2.7 4.4 1.6c1 .5 2.2 1.4 3.4 1.2h22.6q5.9-5.7 14-7.6c10.6-3 22.9-1 31.3 6.4.3.4 1.1 1.1 1.7 1.2h22.6" class="b"/><path d="M8.6 121.6h5.2q3.4-2.1 7-3.6 7.1-2.9 14.8-3.4c9.3-.9 18.5 1.3 27.8 2.2 3.7.3 7.6-.2 11.3-.1 6.3 0 13 1 18.3 5h21.7c3.6-4.3 8.6-6.8 14-8.2a37 37 0 0 1 32 6.4c.8.5 1.7 1.6 2.7 1.7h20" class="b"/><path d="m8.6 119.5 4.4-.1q4-2.8 8.7-4.4 10.1-3.4 20.8-2.5c7.9.3 15.6 2.5 23.5 2.4 10.2-1 21-2.5 29.6 4.6h20c3.6-4.3 7.7-6.6 13-8 8.6-2.7 18-1.7 26 1.8q5.5 2.4 10.5 5.7 1.2.7 2.6.5h15.7" class="b"/><path d="M8.6 117.3h3.5a45 45 0 0 1 27.8-6.8c5.9.3 11.6 1.4 17.4 2.2q4.3.6 8.7.4c5.5-.7 11-2 16.5-1.7q6.1.2 11.3 3c.8.4 2 1.2 2.6 1.8.3.4 1.3 1 1.8 1.2h18.2c1.2-1 2.3-2.5 3.5-3.5q3.1-2.4 7-3.7c8.3-3.2 17.7-3 26-.2q5.4 1.9 10.5 4.5l4.3 2c1 .3 2.4 1 3.5.9q6 0 12.2-.2" class="b"/><path d="M8.6 115.2h3.5c12.3-8.8 27.7-7.2 41.7-4.5a40 40 0 0 0 13 .6c4.4-1 8.7-2.2 13.1-2.5 7.1-.7 15 1 20 6.4h16.5c1.2.2 2-.6 2.6-1.5a26 26 0 0 1 13-6.8A45 45 0 0 1 160 110c5.6 2.2 11.3 4.7 17.4 4.5 2 0 4-.5 6-.5" class="b"/><path d="M8.6 113c1.4 0 3 .3 4.4-.1q3.1-2.5 7-3.8c7.1-2.7 15-2.7 22.5-1.7 5 .7 9.9 2 14.8 2.6q5.8.9 11.3-.7c5.4-1.6 10.9-3.3 16.5-3.3q6.6 0 12.2 3.1 1.9 1.1 3.5 2.7a4 4 0 0 0 1.7 1.3H119a22 22 0 0 1 10.5-7 39 39 0 0 1 22.6-.7c8.1 1.8 15.8 6 24.3 6.2 2.3.2 4.7-.4 7-.3" class="b"/><path d="M8.6 111q2.7 0 5.2-.2 3.1-2.6 7-3.8c9.6-3.4 20-1.6 29.6.6a35 35 0 0 0 15.6 1c5-1.4 9.7-3.7 14.8-4.6 8.3-1.6 17.8.2 23.5 7H119q1.7.1 2.6-1.3c8.2-7.2 20.2-8.4 30.5-6.2 7 1.4 13.7 4.2 20.8 5.2q3 .4 6.1.3 2.2-.2 4.4-.2" class="b"/><path d="M8.6 108.8h6.1c8.3-6.6 19.8-6 29.6-3.7 7.6 1.7 15.8 5 23.4 1.8 4.3-1.8 8.5-3.9 13-5 7-1.8 14.8-1.2 21 2.7q1.8 1.2 3.4 2.8a5 5 0 0 0 1.8 1.4h11.3c1.4 0 3 .3 4.3-.3l1.8-1.5q3.5-2.5 7.8-4c12.4-4.4 24.3 0 36.5 2.7q4.3.9 8.7 1c2 .2 4-.2 6 0" class="b"/><path d="M8.6 106.7c12.3.1 4.5.1 14-3.4 9.8-3.1 20 .1 29.5 2.9 2.5.8 5.2.4 7.8.5 2.6-.1 5.5.5 7.8-.8 5.3-2.7 10.7-5.7 16.6-6.8 8.6-1.9 18.5.6 24.3 7.5q7.8.2 15.6 0c12.9-10 27.3-6.4 41.8-3.2q5.6 1.1 11.3 1.5c2 .2 4-.2 6 0" class="b"/><path d="M8.6 104.6h6.1c1.1 0 2.5.2 3.5-.3a17 17 0 0 1 4.3-2.3c6-2 12.4-1.5 18.3 0l6 1.7q2.3.9 4.4.9H67c.8 0 2 0 2.6-.7 6.8-4.2 14.4-8 22.6-7.8a26 26 0 0 1 14.8 4.8c1.5 1 2.8 2.6 4.3 3.7h13.9q1.5.1 2.7-.5a27 27 0 0 1 7.8-3.6q7.3-2 14.8-1c7.5.8 15 2.8 22.6 3.7q3 .4 6 .4 2.3-.2 4.4.1" class="b"/><path d="M8.6 102.4h10.5c.8-.2 1.8-.9 2.6-1.2q2-.8 4.3-1.4 5.2-.8 10.4.1c3.3.5 6.5 1.6 9.6 2.5h24.3c5.1-3.4 10.5-6.7 16.6-8 9.3-2.2 19.6 1 26 8h17.4q3.7-2 7.9-3 6.4-1.1 13-.3c7.5 1 15 2.5 22.6 3.3h9.6" class="b"/><path d="M8.6 100.3h12.2c1.2 0 2.3-.8 3.5-1a23 23 0 0 1 7-1q3.4 0 6.9 1c1.4.2 3 .8 4.3 1h29.6c4.8-3.4 9.9-6.6 15.7-8 9.5-2.4 20 .8 26.9 7.8 2.2.5 4.7 0 7 .2h13c1.5.1 3-.5 4.4-.8q3-.6 6-.5c3.8 0 7.6.7 11.3 1.3h27" class="b"/><path d="M8.6 98.2h16.5q2.6-.5 5.3-.5c2-.1 4 .4 6 .5h35.7q1.4 0 2.6-.3 5.1-4.3 11.3-6.7a29 29 0 0 1 27.8 4.4l2.6 2.3q1.3.5 2.6.3h64.4" class="b"/><path d="M8.6 96h67.8c12.6-10.7 28-11.8 40.9-1.1q.8.8 1.7 1.1h64.4" class="b"/><path d="M8.6 94h61.8c2.8-.2 5.8 0 8.6-.2a29 29 0 0 1 36.5-3.5c1.8 1 3.5 2.5 5.3 3.6h62.6" class="b"/><path d="M8.6 91.8h72.2c12.7-11.6 28.6-10.4 41.7 0h60.9" class="b"/><path d="M8.6 89.7H80c1.1-.1 2.5.2 3.5-.4Q88 85 93.8 83c6.2-2 13-1.7 19.2.4q5.4 2.1 10.4 5.4 1.5 1.2 3.5.9h56.5" class="b"/><path d="M8.6 87.5H47c1.4.1 3-.5 4.3-.7a37 37 0 0 1 7-.8q3 0 6 .6c1.2.2 2.4 1 3.6 1H79q3 0 6-.2c11.4-11 26.6-9 39.2-1.4q1.3.9 2.6 1.5h56.5" class="b"/><path d="M8.6 85.4H40c1.5-.1 3-.9 4.4-1.2q3.4-1 7-1.5 6-1 12.1 0 4.2.6 7.8 2.7H87c11.2-10.7 26.6-8.6 39-1.4q1.4.8 2.7 1.4h54.8" class="b"/><path d="M8.6 83.3h25.2c4.9-1.6 9.8-3.3 14.8-4q7.8-1.3 15.7 0 3.2.5 6 1.8 1.8 1.1 3.5 2.2h14.8c12.4-10.6 27.9-8 40.9 0h53.9" class="b"/><path d="M8.6 81.1H26c1.1 0 2.4.2 3.5-.2a67 67 0 0 1 30.4-5.3c5.6.4 11.5 1.5 15.7 5.5H85q3.1.2 6.1-.1c10.1-9.1 25.4-7.6 36.5-1.3q1.3 1 2.7 1.4h53" class="b"/><path d="M8.6 79h16.5a69 69 0 0 1 38.3-6c5.9.8 9.4 2.1 13.9 6h14.8q1.6.1 2.6-1a25 25 0 0 1 11.3-4.7 34 34 0 0 1 21.7 4.4c.8.4 1.7 1.3 2.6 1.3h53.1" class="b"/><path d="M8.6 76.9h13c1 .1 1.9-.6 2.7-1A55 55 0 0 1 38.2 71q12-2.7 24.3-.8c6 .8 11.3 2 15.7 6.6q4.3.2 8.7 0 4.8.2 9.5 0c8.4-7.1 21.2-6.5 30.4-1.4.8.4 1.8 1.3 2.7 1.5h53.9" class="b"/><path d="M8.6 74.7h12.2c11-6.8 24.6-9 37.4-7.5q5.6.6 11.3 1.8 5.6 1.6 9.5 5.7h19.2c1.3.3 2.4-1 3.4-1.6q2.5-1.5 5.3-2.2c7-1.8 15-.6 20.8 3.7 2.6.3 5.3 0 7.9.1a21 21 0 0 1 10.4-2q5 .3 9.6 2h27.8" class="b"/><path d="M8.6 72.6H20q2.9-2.1 6.1-3.6c10.5-5 22.6-5.7 34-3.9 4 .7 8.2 1 12 2.4q3 1.1 5.3 3c1.7 1.5 1.8 2.3 4.4 2.1h5.2c1.4-.1 2.9-.7 4.3-.6q1.8 0 3.5.6h7.8a20 20 0 0 1 23.5-.3c1 .5 2.4.3 3.5.3h3.5c5.6-4.4 13.4-4.5 20-2.9q2.6.7 5.2 1.9c1 .5 2.2 1.2 3.5 1h21.7" class="b"/><path d="M8.6 70.5h10.5a46 46 0 0 1 29.5-8.7c7 .2 14 1.7 20.9 2.8q4.4 1.1 7.8 3.7c1.7 1.5 1.8 2.4 4.4 2.2H85q2.1-1.2 4.4-1.8 3.5-.8 7 .4c1.1.3 2.2 1.3 3.4 1.4h6.1a17 17 0 0 1 18.3 0h6c1-.3 1.9-1.3 2.7-1.8q2-1.3 4.3-2.1a30 30 0 0 1 26.1 3.9h20" class="b"/><path d="M8.6 68.4h9.6q1-.2 1.7-1a32 32 0 0 1 9.6-5.2Q37 59.4 45 59.5c6.2 0 12.3 1.1 18.3 2.2 6 1 11.5 1.5 15.7 6.5q2 .3 4.3.1 1-.2 1.7-.9l2.7-1.4c4.8-1.9 10.7-1 14.7 2.3h7q2.8-1.5 6-1.5a14 14 0 0 1 6.2 1.5h5.2q1.4.1 2.6-.3a22 22 0 0 1 9.6-5.3 30 30 0 0 1 26 5.3q1.2.6 2.7.4h15.6" class="b"/><path d="M8.6 66.2h9.6a5 5 0 0 0 1.7-1.2q1.6-1.3 3.5-2.4a39 39 0 0 1 19.1-5.3c7-.3 14 1.3 20.9 2.8 4.1.8 8.6 1 12.2 3.4 1.2.7 2.2 2.1 3.5 2.7h3.4l1.8-1.3a14 14 0 0 1 3.5-2c5.8-2.2 12.7-.8 17.3 3.3h22.7c7.1-7 18.2-9.3 27.8-6.5q4.1 1.2 7.8 3.5c1.5.8 2.9 2.1 4.3 3h15.7" class="b"/><path d="M8.6 64h7c3.2.2 2.8 0 5.2-2a35 35 0 0 1 20-6.8c7.4-.4 14.6 1.5 21.7 3.2 3.2.9 6.5 1 9.6 2q3 1 5.2 3.3c1.3.8 3 .3 4.4.4 6.5-7 18.5-6.7 25.2 0q10 .2 20 0a30 30 0 0 1 41.7-.4c.4.3 1.3.5 1.7.4h13.1" class="b"/><path d="M8.6 62h9.6C30.5 51 44.2 51.7 59 56.2l7 1.7c3.7.5 7.7 1.2 10.4 4h4.4c7-8.1 20.5-7.4 27.8 0H126c1.2-.6 2.3-1.8 3.5-2.6q2.5-1.9 5.2-3.3a30 30 0 0 1 27-.2c14.5 7.8 1.7 6 21.7 6.2" class="b"/><path d="M8.6 59.8h9.6a33 33 0 0 1 31.3-7.6c6.7 1.5 13.1 4.4 20 5.2q1.8.3 3.5 1.1c.8.4 1.7 1.3 2.6 1.3h4.3c7.4-8.7 21.8-8.4 29.6-.3q1.2.5 2.6.3H126c14-13 32-13 46 0h11.4" class="b"/><path d="M8.6 57.7h9.6c10-9 21.4-10.2 33.9-6.2 5.7 1.7 11.3 4.4 17.4 5q1.8.5 3.5 1.2h6a21.5 21.5 0 0 1 28.8-2.7c1.1.7 2.2 2 3.4 2.7h13.1q1.4.2 2.6-.5 3.5-3.2 7.8-5.7c8.4-4.8 19-5.3 27.8-1.2 4.2 1.8 7.8 4.7 11.3 7.4h9.6" class="b"/><path d="M8.6 55.6h9.6c10.2-9.3 22.3-10 34.8-5.1 4.6 1.7 9 4 13.9 5q3.3.2 7 0c1.6 0 3.5.3 5.1-.2a22 22 0 0 1 29.6-2.5c1.2.8 2.3 2 3.5 2.8h14.8c10.4-10 24-13.7 37.4-7.3a44 44 0 0 1 9.5 6.3c.4.3 1.3 1 1.8 1h7.8" class="b"/><path d="M8.6 53.4h9.6a29 29 0 0 1 27-6.8c5.4 1.3 10.5 4 15.6 6.4q1.2.7 2.6.4h13.9c1.5.3 2.5-1.2 3.5-2q2.4-2 5.2-3.3a23 23 0 0 1 24.3 3.2c.8.6 1.8 1.6 2.7 2.1h14.7c9.2-8.7 20.6-13 33-9q5.7 1.8 10.5 5.1c1.8 1.1 3.4 2.8 5.2 4h7" class="b"/><path d="M8.6 51.3h9.6c2-1.3 3.9-3.1 6-4.2a28 28 0 0 1 21-1.9q4 1.3 7.8 3.3c1.7.8 3.4 2.1 5.2 2.8H79c8.9-9.3 23.6-10 33-1.2.4.4 1.3 1 1.8 1.2h14.8c1.5-1 2.9-2.6 4.4-3.6q4-3 8.6-5c12.6-4.9 26-.2 35.7 8.6h6" class="b"/><path d="M8.6 49.2h10.5a26 26 0 0 1 26-5q3.2 1.1 6.1 2.8c1.4.7 2.7 2.4 4.4 2.2h24.3a24 24 0 0 1 34 0h15.6c1.8-1.2 3.3-3 5.2-4.3q4.8-3.4 10.4-5.1c11.7-3.6 24.5 1 33 9.4h5.3" class="b"/><path d="M8.6 47H20c8.2-6.9 21-7.5 29.6-1.1q.8.7 1.7 1.2h6.1q12.2 0 24.4-.1c9.2-8.6 22.9-8.3 32.1 0h14.8q1.4.2 2.6-.4 3.5-3.5 7.8-6a32.6 32.6 0 0 1 40 6.4h4.4" class="b"/><path d="M8.6 45h7.8q2.6 0 5.3-.2a22 22 0 0 1 26 .1h7c1.3-.5 3-.7 4.3-.7 2 0 4.1.9 6.1.7h18.3a23 23 0 0 1 27.8-1.5c.8.5 1.7 1.5 2.6 1.5h18.3c6.3-7 15.8-11.2 25.2-10.7 8.1.5 16.7 3.8 21.7 10.5q2.2.5 4.4 0" class="b"/><path d="M8.6 42.8h14.8c6.4-3.6 14.6-4.4 20.9 0h6a18 18 0 0 1 14-1.2c1 .3 2.3 1 3.4 1.2H86a22 22 0 0 1 26 0H133c1.4-.5 2.4-2.2 3.5-3 6-5.3 14-8.1 21.8-7.8 8.2.4 16.9 3.9 21.7 10.8h2.6l.9-.6" class="b"/><path d="M8.6 40.7H27q2.1-.8 4.3-1.1 3.1-.5 6.1.1 1.4.4 2.6 1h3.5c1.7-.2 3.6.2 5.2-.3l2.6-1.3A21 21 0 0 1 67 39l3.5 1.6h17.4q1.4 0 2.6-.6a20 20 0 0 1 18.2-.2 4 4 0 0 0 2.6.8h23.5c1.5-1 2.7-3 4.4-4.2a30 30 0 0 1 36.5-1.1q1.9 1.4 3.5 3.3a7 7 0 0 0 1.7 2h1.7l1-.7" class="b"/><path d="M8.6 38.5H47a22 22 0 0 1 9.6-3.5c4.3-.6 9-.1 13 1.8l2.6 1.5c1.6.5 3.5.1 5.2.2h16.5c2-.2 4-1 6.1-.9q3 .2 6.1 1H120q3.8-1.2 7.9-1.3 2.7 0 5.2 1.2h3.4c.6-.3 1.4-1.3 1.8-1.9q1.6-1.8 3.5-3.3c5.9-4.3 13.5-6.2 20.8-5.4 7 1 14.6 4 18.3 10.5q1.4.4 2.6-.3" class="b"/><path d="M8.6 36.4H46l1.7-1c8.3-4.5 19.3-4.9 27 1h40c1.1.1 2.4-.7 3.5-1q4.6-1.2 9.5-1.6 5-.6 8.7 2.6h1.8c1.2-1.1 2.1-3 3.4-4 3.9-3.5 8.9-5.6 14-6.4 9.6-1.5 20.7 1.9 26 10.4h1.8" class="b"/><path d="M8.6 34.3H46q1.5-.5 2.6-1.3c6-3 13.3-4.6 20-2.8q2.7.8 5.2 2.2c1.2.5 2.3 1.5 3.5 1.9h33.9l3.5-1.2a66 66 0 0 1 14-2.6c2.6-.2 5.5.1 7.7 1.6.9.5 1.7 1.7 2.6 2.2h1c5.4-9 17-12.1 26.9-10 4.4.9 8.8 3 12.1 6 1.3 1 2.2 3 3.5 4h.9" class="b"/><path d="M8.6 32.1H40q4 .2 7.8 0l2.6-1.6A26 26 0 0 1 79 32q1.4.2 2.6.1h22.7q2.6.2 5.2-.7 3.3-1 7-1.8c4.5-1 9.2-2 13.8-2.2 4.3 0 8 1 10.5 4.7h.8c2.9-5.6 8.8-8.8 14.8-9.9 9.4-1.8 20.9 1.3 26.1 9.8l.9.1" class="b"/><path d="M8.6 29.8c1.4.4 3 .1 4.4.2h33.8l2.7-.1 1.7-1.2c10.4-6.2 19.4-5.1 29.6.9 1.2.8 3 .3 4.4.4H99q2.6.1 5.2-.5 8.6-2 17.4-3.6c7-1.4 16.5-3.2 20.8 4.1h1c2.2-5.6 8.2-8.5 13.8-9.6a26 26 0 0 1 26.1 9.6" class="b"/><path d="M8.6 27.4c1.5.9 3.5.3 5.2.5h37.4c8.3-6.4 15.5-7.1 25.2-3.5q2.7 1 5.3 2.3 1.2.8 2.6 1.2H99c2 0 4.1-1 6.1-1.2l17.4-3.3c6-1.3 12.8-2.5 18.3.8 1.4.8 2.3 2.5 3.5 3.7l.8-.4c2-4.9 7.3-7.5 12.2-8.6 9.3-2.2 20.2.9 26 8.7" class="b"/><path d="M8.6 25.2c1.6.8 3.5.5 5.2.5h36.5c2 0 3 .4 4.4-1.2C58.1 21.8 62.5 20 67 20q8.6.6 16.5 4.4l2.6 1.4h14l6-1.5q8.8-1.5 17.4-3.2c6.2-1.5 13.5-2.6 19.1 1l1.8 1.7.8 1.4 1 .5c.5-.3 1.4-1.6 1.7-2.3q1.5-1.9 3.4-3.2c10-6.3 24.5-4 32.2 5" class="b"/><path d="m8.6 23 1.8.6h26.9L40 23q4.6-.7 8.7.6h6.1c1-.3 1.8-1.4 2.6-2 4.4-3.5 9.4-4.1 14.8-3q7.2 1 14 4c.7.3 1.7 1 2.5 1h13.1q3-.7 6-1.3 7-1.2 14-2.6c5-1.3 10.3-2.7 15.6-2 3.8.5 8 2.2 9.6 6h.8c1-1 1.8-2.5 2.7-3.4 2.3-2.3 5.5-3.7 8.7-4.4 8.6-2 18.2.7 24.3 7.2" class="b"/><path d="M8.6 21c2.2.7 4.7.5 7 .5h18.2q1.5-.4 2.6-1 2.2-.8 4.4-1.1a16 16 0 0 1 11.3 2h4.3c1.3-.6 2.3-2 3.5-2.7 3.7-2.7 7.9-2.8 12.2-2.2a68 68 0 0 1 16.5 4.1c.8.3 1.8.9 2.6.9H106q3-.8 6-1.3 5-.9 9.7-2.1 5-1.6 10.4-2.4c5.9-.7 13.3.1 16.5 5.8h.9c1-.7 1.7-2.2 2.6-3q2-1.8 4.3-2.8c9-3.9 20.2-1.3 27 5.7" class="b"/><path d="M8.6 19.2q4.4.3 8.7.2h14c1.2.2 2.4-.5 3.4-1.1l3.5-1.4c5.1-1.5 11.5-1.5 15.6 2.3q2.2.3 4.4.2c5.4-5.6 9.3-5.2 16.5-4.4a88 88 0 0 1 17.4 3.8 6 6 0 0 0 2.6.6h12.2c2.9 0 5.8.2 8.7-.8 5.8-1.2 11.4-3.9 17.3-4.7 6.2-.8 13.6 0 17.4 5.5q.9 0 1.8-.2c2.2-4 7-5.6 11.3-6.2a24 24 0 0 1 19.1 6.2l.9.2" class="b"/><path d="M8.6 17.2h21.8l1.7-.1a28 28 0 0 1 6-3c5.8-1.7 13.1-1.6 17.5 3 1.4.3 3 0 4.3.1 4.4-5.2 9.6-4.2 15.7-3.8q11.4.9 22.6 3.8H119l7.8-3q5-1.8 10.4-2.2c5.3-.3 11.5.7 14.8 5.2 1.6 0 2.5.1 3.5-1.3q1.5-1.5 3.5-2.3a22 22 0 0 1 22.6 3.6h1.7" class="b"/></svg>