<svg xmlns="http://www.w3.org/2000/svg" id="a" width="1920" height="2400" viewBox="0 0 192 240"><defs><style>.b{fill:none;stroke:#fff;stroke-miterlimit:10;stroke-width:.3px}</style></defs><path d="M0 0h192v240H0z" style="stroke-width:0"/><path d="M8.3 225.3a28 28 0 0 1 8.7 3.2h1.7c2.6-.1 5.3.1 7.9-.2q5.5-2.4 11.3-3.6l21-4.9c5.8-1.2 11.6-2.6 17.5-3 10.3-.6 23.2 2 28.8 11.7 1 0 2.4.2 3.4-.3q2.2-2.4 5.3-3.5 4.3-1.3 8.7-1.6a22 22 0 0 1 15.7 3.4c1.1.7 2.1 2.2 3.5 2l4.4-.1 1.8-.7c3-.8 6.5-.6 9.6.5 1 .5 2.3.2 3.4.3h6.2c1.4-.6 2.8-1.8 4.3-2.3 4-1.6 8.4-1.6 12.2.2" class="b"/><path d="M8.3 223.1q2.6.5 5.2 1.5 1.7 1 3.5 1.7h5.2q1.4.1 2.6-.2c4.1-2.2 8.7-3.3 13.1-4.4q10.5-2.6 21-4.9c5.7-1.2 11.6-2.4 17.5-2.4 10.3-.1 21.7 3.1 27.9 12h3.5c1.2-.7 2.2-1.9 3.5-2.5q4-2 8.7-2.5c4.3-.8 8.8-1.5 13.1-.2q3.9 1.2 7 3.8a4 4 0 0 0 1.7 1.3h3.5c4.6-3 11-2.6 15.7-.3 1 .5 2.4.3 3.5.3h4.4a13 13 0 0 1 14.8-1.4" class="b"/><path d="M8.3 221q4.2.8 7.8 3.1h7c4-2.4 8.6-3.5 13-4.7l16.7-4c7.7-1.7 15.6-3.6 23.6-3.3 7.7.3 15.5 2.5 21.8 7.1q1.9 1.5 3.5 3.2a7 7 0 0 0 1.7 1.8h5.3c3.4-2.8 8-3.7 12.2-4.8 2.5-.5 5.2-1.3 7.8-1.2 4.9.1 10.1 1.9 13.1 5.9h3.5c4.8-4 13.1-3.5 18.4-.6q1 .8 2.6.7h4.3c4.2-2.9 9-3.4 13.1 0" class="b"/><path d="M8.3 219.2q2.7.5 5.2 1.5 1.3.8 2.6 1.4h6.1c4-2.5 8.6-3.7 13.1-4.8l14.9-3.7c8-1.8 16.1-3.9 24.4-3.6 10 .5 20.4 4.2 27 12 3 .3 6 0 8.8 0q3.3-1.6 7-2.8c3.4-1 6.9-2.6 10.5-3 5.5-.5 11.4 1.4 14.8 5.9h2.6c4.3-4.2 11.2-4.2 16.6-2.8q2.3.6 4.4 1.8 1.1 1 2.6 1h5.3q1.6-.8 3.4-.9 1.5 0 2.7.7c1 .3 2.4.1 3.5.2" class="b"/><path d="M8.3 217.3c2.4.5 5 1.1 7 2.6q3.3.2 7-.1c3.4-2.2 7.4-3.2 11.3-4.2l18.3-4.5a86 86 0 0 1 20-3c10.4.1 20.7 4.3 28 11.6 2.8.5 5.9.1 8.7.2h4.4q1.4.2 2.6-.3c4-1.8 7.9-4.4 12.3-5.3 4.1-.7 8.6.1 12.2 2.4 1.3.8 2.3 2.3 3.5 3.2q1.4.2 2.6-.4 1.4-1.5 3.5-2.3c4.4-1.7 9.4-1.6 14-.6q2.7.7 5.2 1.9c1 .4 2.2 1.6 3.5 1.4h7c1.4 0 3 .3 4.3-.4" class="b"/><path d="M8.3 215.6q3.1.4 6 1.9c1.4.5 3 .2 4.4.3h3.5a36 36 0 0 1 8.8-3.3q7.8-1.8 15.7-4c6.6-1.6 13.2-3.4 20-4a39 39 0 0 1 30.6 11c2.6.5 5.3.2 7.9.3h13c1.5.2 2.5-1.2 3.6-2q2-1.6 4.3-2.6c4.5-1.8 9.8-1.3 14 1q1.5.9 2.6 2c.3.5 1.2 1.3 1.8 1.6h1.7c5.9-5.4 14.6-5.1 21.9-3.2 7 2 8.3 3.7 15.7 1" class="b"/><path d="M8.3 213.8q3.1.3 6 1.7 2.2.2 4.4.1h4.4q3.4-1.5 7-2.4 7.5-1.6 14.8-3.6c6.4-1.7 12.7-3.7 19.2-4.5a33 33 0 0 1 29.7 10.5h28c2-2 4-4.2 7-4.9 5.4-1.4 12-.1 15.7 4.4q1 .8 2.6.5c.9-.3 1.8-1.4 2.6-1.9 5.5-3.2 12.3-3 18.3-2 3.2.4 6.4 1.3 9.6 1.3q3-.1 6.1-.7" class="b"/><path d="M8.3 212q3.1.2 6 1.5H24c2 0 4-1 6-1.4q6.7-1.4 13.2-3c10.7-3 22-7.6 33.2-4.5Q82 206 86.8 210c1.3 1 2.2 2.6 3.5 3.5l7-.1h11.3q1.8.2 3.5-.1c2.5-1.1 5.6-1.3 7.9.2h3.5c3.4-5.4 11-6.3 16.6-4.2a15 15 0 0 1 3.5 2c.8.5 1.6 1.7 2.6 2.2h2.6c2.8-3.2 7.3-4.2 11.4-4.6 5.2-.6 10.5.5 15.7.9q3.9.2 7.8-.3" class="b"/><path d="M8.3 210.1q3 .1 6 1.3h15.8q4.8-.6 9.6-1.7c9.5-2.5 18.7-7.3 28.8-7.1 5.3 0 10.8 1.8 14.8 5.3q1.6 1.3 2.7 3c1 .7 2.4.5 3.4.3 3.6-4 10.2-3.2 14 .2h7c.8-.2 1.8-.9 2.6-1.2q2.6-1 5.3-.4c1.2.2 2.3 1 3.4 1.5h2.7c.8-.6 1.7-1.8 2.6-2.4q1.6-1.2 3.5-1.8c5.7-1.9 12.4-.2 16.6 4.3 1-.1 2.4.2 3.5-.4 1.1-1.1 2.8-2 4.3-2.7 9.3-3.4 19.3-.6 28.8-1.2" class="b"/><path d="M8.3 208.2q2.2 0 4.3.5 1.7.7 3.5.5h26.2c1.9.3 3.6-1 5.2-1.6q4.3-2.1 8.8-3.7c7.3-2.4 16-3.3 22.7 1.2q1.4 1 2.6 2.3c.3.6 1.2 1.5 1.7 1.8h1.8a5 5 0 0 0 1.7-1.5q1.2-1.2 2.7-1.9a14 14 0 0 1 15.7 3q1.2.6 2.6.4h3.5c3-2.3 7.5-2.6 10.5 0h2.6q1 .1 1.7-.5 1.8-2 4.4-3.1c5.8-2.2 13.2-1.1 17.5 3.6h3.5q1-.2 1.7-1c2-1.5 4.6-2.3 7-2.9 4.6-1 9.3-.8 14-.6l9.6.3" class="b"/><path d="M8.3 206.2c1 0 2.4 0 3.4.3l2.7.6H51c8.1-5.8 21.5-8.7 28.7 0h2.7c.9-.7 1.7-2 2.6-2.6 2.4-2 5.6-3.2 8.7-3.4 3.7-.3 7.5.7 10.5 2.8 1.2.8 2.3 2.3 3.5 3.2h4.4c1.7-.7 3.3-1.6 5.2-1.4q2.3.1 4.4 1.4h4.3c.6-.1 1.4-.8 1.8-1.2l1.7-1.3q4.1-2.1 8.8-2 4.6.2 8.7 2.7c.8.5 1.7 1.5 2.6 1.8h4.4c7.2-5.8 20.8-4.5 29.7-3.8" class="b"/><path d="M8.3 204.2q2.6 0 5.2.8h12.2l13.1-.1q2.2-.6 4.4-.8c2.1-.2 4 .5 6 .9l8-.1c5.5-3.9 13.8-4.5 19.2 0h4.3c6.6-9.4 22.2-9.3 28.8 0 2.7 0 5.3.2 7.9-.4 1.1-.1 2.4.4 3.5.5h5.2c.5 0 1.4-.1 1.8-.3l1.7-1.4a15 15 0 0 1 3.5-1.6c5.9-1.8 12.8-.7 17.5 3.3h5.2c1 0 1.8-.8 2.6-1.2q2.6-1.2 5.3-1.8a57 57 0 0 1 20 0" class="b"/><path d="M8.3 202.2c2-.1 4 .8 6 .6h20.1c1.6.2 3-.9 4.4-1.3q3-1 6.1-1t6.1 1c1.4.4 2.8 1.6 4.4 1.3q6.1.1 12.2-.2c3.8.4 7.6.2 11.4.2 1.1-.9 2.2-2.3 3.5-3.2a22 22 0 0 1 7-3.6 20 20 0 0 1 21.8 6.5q1.2.4 2.6.3h14.8c6-5 15.4-4.8 21.9-.8 1.4 1.3 3.5.7 5.2.8 1.4 0 3 .3 4.4-.3a38 38 0 0 1 23.6-1.5" class="b"/><path d="M8.3 200.2q1.6 0 3.4.5H31q2.2 0 4.3-.2a22 22 0 0 1 21.8.2h21c1.6-1 2.8-2.7 4.4-3.6q4-3 8.7-4.1a22 22 0 0 1 21 6c.2.6 1.2 1.4 1.7 1.7h15.7q5.2-3.4 11.4-3.4 5 0 9.6 2.1c.7.4 1.7 1.1 2.6 1.3h10.4q2.6-1 5.3-1.4c5-.5 10.2-.5 14.9 1.2" class="b"/><path d="M8.3 198.3q3.8.3 7.8.2h19.2q2.9-1.6 6.1-2.6a23 23 0 0 1 17.5 2.6h11.3c12.6 0 5.5.7 14.9-5.2a23 23 0 0 1 27 2.2c1.2.9 2.2 2.5 3.5 3H127q2.2.2 4.3-.1 1.7-1 3.5-1.6a23 23 0 0 1 18.4 1.7h30.5" class="b"/><path d="M8.3 196.4h25.2c1.5 0 3.3.3 4.4-.7 5-2.9 11.2-3 16.6-1.5q2.7.8 5.3 2.2h17.4q1.5.1 2.7-.5c6.4-7 17-10.3 26.1-6.7 4.1 1.4 7.4 4.3 10.5 7.2h15.7c1.2-.2 2.4-1 3.5-1.3a22 22 0 0 1 14 .2c1.1.3 2.3 1 3.5 1h30.5" class="b"/><path d="M8.3 194.3h13c1.5-.2 3-.7 4.4-.7 1.8-.1 3.6.4 5.3.7h8.7q4-2.5 8.7-2.4 3.6 0 7 1.1c1.1.4 2.3 1.1 3.5 1.3h21.8a23.4 23.4 0 0 1 35.8-.5q.8.6 1.8.5h17.4q2.2-.9 4.4-1.2 4.9-.5 9.6.8c1.3.5 3 .3 4.4.3h29.7" class="b"/><path d="M8.3 192.1h7c1.3 0 3 .2 4.3-.2a20 20 0 0 1 16.6-.3q.8.5 1.7.5h30.6c2.5-.8 5.3-1.3 7.9-.7l1.7.7h4.4a21 21 0 0 1 23.6-7.4q3.7 1.2 7 3.6c1.5 1 2.8 2.8 4.3 3.8h66.4" class="b"/><path d="M8.3 190h9.5c8.4-5.6 18.8-3.3 28-1.6 4.3.8 8.8.4 13-.3q4-.5 8-1.2c5.2-1 12-1.7 15.7 3h1.7c1.1-.5 1.8-2 2.6-3q1.6-1.6 3.5-2.6a21 21 0 0 1 26.2 5.7q4.9.2 9.6-.2c1.7-.1 3.6.3 5.3.2h52.4" class="b"/><path d="M8.3 187.8H17c1.4-.6 2.8-1.8 4.4-2.4q4.6-1.9 9.6-2.4c8-.8 16.3.3 24.4-.1l10.5-.7c6.7-1 15.4-1.1 19.2 5.6h.9c1.1-.5 1.7-2.3 2.6-3.2q1.6-1.6 3.5-2.6a19 19 0 0 1 23.5 5.8h4.4c4.4-3.9 10.8-2.5 15.7-.8q1.3.6 2.7.8h45.4" class="b"/><path d="M8.3 185.7H17c10.8-8.3 26.3-6.8 39.3-7.4 5-.1 9.9-.6 14.8-.7 6 0 13.2 2 15.7 8h.9l1.8-2.4q1.5-1.7 3.4-3c7-3.6 16.8-1.5 21 5.3q1.7.5 3.5 0c5.8-7.1 16.4-3.4 23.5-.7q1.3.6 2.7.9h40.1" class="b"/><path d="M8.3 183.6H17c5-4 11.2-6.3 17.4-7.4 7.8-1.5 15.7-1.7 23.6-2 7 .2 14.2-1.3 21 1.2a17 17 0 0 1 7 4.5c.8 1 1.5 2.8 2.6 3.7l.8-.2c3.8-9 18.2-8 22.7-.2q1.3.5 2.7.4c6.6-9.8 19.9-4.9 28.8-1.3 1 .4 2.3 1.2 3.5 1.3h36.6" class="b"/><path d="M8.3 181.4H17c.5 0 1.4-.7 1.7-1l2.7-2q4.1-2.5 8.7-4a90 90 0 0 1 25.3-3.6l9.6-.2q4-.2 7.9.1c4.7.6 9.6 2.5 13 5.9 1.5 1.2 2.4 3.4 3.5 4.8h1c3.5-7.8 16-7.3 20-.2a4 4 0 0 0 2.6 0c6.9-11.2 22-5.6 31.4-1.4l3.5 1.6h35.8" class="b"/><path d="M8.3 179.3h9.5c11.6-10.4 28-11.7 42.8-11.7 7.6 0 14-.8 21 3q3.6 2 6 5c1 1 1.5 3 2.7 3.7h.9c3.8-6.6 13.4-6 17.4 0h1.8c1-.6 1.7-2.2 2.6-3q1.9-2 4.4-3.1c8.8-4 18.9.5 27 4.3l3.5 1.7h35.8" class="b"/><path d="M8.3 177.1h9.5q1-.2 1.8-1a33 33 0 0 1 10.5-6.5 61 61 0 0 1 17.4-4.3c6.1-.7 12.3-.6 18.4-.6 9.5-.6 20 3.5 24.4 12.4h1.8a9 9 0 0 1 14-.3q1.2.5 2.6.3c1-.7 1.7-2.2 2.6-3q1.6-1.6 3.5-2.7c9.9-5.7 21.5-.3 30.5 4.6l1.8 1q1.7.3 3.5.2h33.2" class="b"/><path d="M8.3 175h10.4c10.9-10 24.9-13 39.3-12.8H66q3.5-.1 7 .5A25 25 0 0 1 90.3 175H93c2.7-2.1 5.5-3 8.8-1.5.8.3 1.7 1.2 2.6 1.5h2.6a7 7 0 0 0 1.8-2q1.5-1.7 3.5-3.2c10.8-7.5 24.2-1 34 5.2h37.5" class="b"/><path d="M8.3 172.9h11.3a44 44 0 0 1 26.2-12.4c4.6-.7 9.3-.5 14-.5q6.1-.2 12.2.5a27 27 0 0 1 18.3 12.4h4.4a8 8 0 0 1 2.6-.8c1.5-.2 3 .9 4.4.8 1.4-.2 3.1.3 4.3-.5 3.5-5 9.7-8 15.8-8.2 8.3-.1 16 4 22.7 8.6q19.6.1 39.3 0" class="b"/><path d="M8.3 170.7c18.6 0 6.9 1.3 20.9-7q7-3.8 14.8-5c8.7-1.4 17.5-.7 26.2-.3a28 28 0 0 1 18.4 10.5c.2.5 1.1 1.6 1.7 1.8h14a22 22 0 0 1 18.3-8.5c7.5.4 14.2 4.3 20 8.5h41.1" class="b"/><path d="M8.3 168.6h12.2c11.2-11 24-13.4 39.3-12.4 4 .4 8.2.2 12.2 1a29 29 0 0 1 13 6.8c1.7 1.3 2.9 3.3 4.4 4.6h13.1c1.3-.9 2.3-2.3 3.5-3.2q3.5-2.7 7.9-4c8.6-2.7 17.5.5 24.4 5.6l1.8 1.3c1 .5 2.4.3 3.5.3h40.1" class="b"/><path d="M8.3 166.5h13c6.9-7.7 17-11.5 27.1-12 7-.4 14 .7 21 1a27 27 0 0 1 16.6 8.6c.7.7 1.5 2.1 2.6 2.4l13-.1a25 25 0 0 1 21-7.4c5.2.7 10 3.2 14 6.3.4.3 1.3 1 1.8 1.1h45.4" class="b"/><path d="M8.3 164.3c21.5-.2 7.5 1.7 22.7-7a38 38 0 0 1 13-4c7.3-.9 14.6.3 21.9 1A26 26 0 0 1 85 163c.3.4 1.2 1.2 1.7 1.4h12.3q1.6.1 2.6-1.1l2.6-1.9a26 26 0 0 1 9.6-3.5c6.3-1 13 .4 18.3 4 4.2 3.2 2.7 2.5 7.9 2.5h43.6" class="b"/><path d="M8.3 162.2h14c9.7-10.3 23.3-11.9 36.6-9.5q5.6.9 11.3 1.5c5.4 1 10.3 4 14 8H99c3-2 6.1-4 9.6-5 7.7-2 16.4-1 22.7 4 1.4 1.5 3.5.8 5.3 1h18.3q2.2-.3 4.4-.4 1.8 0 3.5.4h21" class="b"/><path d="M8.3 160h13q1 .1 1.8-.4 3.4-3.4 7.9-5.7 6.5-3.1 14-3.3c6.1-.3 12.2 1.2 18.3 2.4q3.4.6 7 1c4.2.8 8 3.4 11.3 6h16.6a27 27 0 0 1 30.5-.4q1.2.6 2.7.4h13c1.7 0 3.7.4 5.3-.3a21 21 0 0 1 14.8-.8c1.1.3 2.4 1 3.5 1.1h15.7" class="b"/><path d="M8.3 157.9h9.5q2.7.2 5.3-.2a31 31 0 0 1 28-7.7c4.4.7 8.7 2.2 13 3.3 2.3.6 4.8.6 7 1.3a21 21 0 0 1 6.1 3.1q1.4.3 2.7.2h14.8q1.4 0 2.6-.3a28 28 0 0 1 28 .2h19.2c.8 0 1.8-.8 2.6-1.1a22 22 0 0 1 4.4-1.7c6.1-1.6 12.8-.3 18.3 2.9h14" class="b"/><path d="M8.3 155.8q7.4 0 14.8-.2a29 29 0 0 1 27-6.4c6 1.2 11.5 4.4 17.5 5.6q1.9.2 3.5.9 3.5.1 7 0h15.7c1.2.2 2.4-.6 3.5-1q1.7-.7 3.5-1.2c5.1-1.3 10.7-1 15.7.7 1.7.4 3.4 1.7 5.2 1.6H141c1.2-.1 2.3-1.4 3.4-1.9a24 24 0 0 1 17.5-2.1q4.6 1 8.7 3.8c1.7.3 3.6 0 5.3.2h7.8" class="b"/><path d="M8.3 153.6h14c1-.1 1.8-1.2 2.5-1.7q1.7-1.2 3.5-2.2a29 29 0 0 1 23.6-.5L58 152c1.4.7 2.8 1.8 4.4 1.6H92c3.4-1.2 6.8-2.4 10.5-2.4 4.4-.3 9 .8 13 2.4h22.7c1.3-.4 2.4-1.5 3.5-2.2 8.3-5 19-4.3 27.1.7q1.3.9 2.6 1.5h12.3" class="b"/><path d="M8.3 151.5h14c9.7-8.8 23.8-7.3 34 0h32.3q2.1-.6 4.3-1.4a30 30 0 0 1 14.9 0c1.4.3 2.9 1.3 4.4 1.4h23.5a4 4 0 0 0 1.8-1q1.6-1.2 3.5-2.2a27 27 0 0 1 27.9 1.8c.8.4 1.7 1.4 2.6 1.4h12.2" class="b"/><path d="M8.3 149.3h13c6-5.5 15-7 22.8-4.6q3.1 1 6 2.6c1.2.6 2.3 1.7 3.5 2h31.5q6.3-2.5 13-2.4 3.7.2 7 1.1c1.5.3 3 1.3 4.4 1.3H134a28 28 0 0 1 35.8 0q7 .2 14 0" class="b"/><path d="M8.3 147.2h12.2a23 23 0 0 1 21.8-4.3q2.8 1 5.2 2.3c1.2.6 2.3 1.8 3.5 2h28.8c3.2-.8 6.4-2 9.6-2.3a33 33 0 0 1 14 1.1c1.1.3 2.3 1 3.5 1.2h21c1.7-.1 3.8.5 5.2-.9q3.6-2.6 7.9-4.2a28 28 0 0 1 27.9 5q7.5.1 14.8.1" class="b"/><path d="M8.3 145h12.2a22 22 0 0 1 27 0H73c3.7-.7 7.5-2 11.3-2.5q6.1-1.1 12.2 0 2.7.5 5.3 1.4c1 .4 2.3 1.3 3.5 1.2h24.4c10.7-8 24.4-10 35.8-2.3l2.6 2c1.7.4 3.6.2 5.3.2h10.4" class="b"/><path d="M8.3 143c4.3-.2 8.7.1 13-.2 6.5-5.1 16.1-4.6 22.8-.1q1.2.3 2.6.2h16.6c1.1-.2 2.3-.9 3.4-1.1l8-1.3c8.5-1.6 18-2.4 26.1 1.7q1.6 1 3.5.7h20.9c.8 0 2 0 2.7-.2a45 45 0 0 1 11.3-5.7 30 30 0 0 1 26.2 4.2c.8.5 1.7 1.6 2.6 1.7h15.8" class="b"/><path d="M8.3 140q2.6-.2 5.2.8h7.9q1.4 0 2.6-.8 1.6-.9 3.5-1.3a18 18 0 0 1 11.3 1.2c.8.3 1.7 1 2.6.9h18.4c4.2-3.1 7.2-3.4 12.2-3.8a69 69 0 0 1 15.7-.5q4.6.4 8.7 2.2 1.9 1 3.5 2 1.8.1 3.5 0h20.1q1.4.2 2.6-.2c11.9-8.6 28.9-10.5 40.2.1 2 .4 4 .1 6 .2h11.4" class="b"/><path d="M8.3 136.8a16 16 0 0 1 7.8 1.8h6.1c1.4 0 3 .3 4.4-.3q3-.7 6.1-.3c1.1 0 2.4.6 3.5.6h16.6c1.7 0 3.9.5 5.2-1 5.4-4 9.4-4 15.7-4.3 8.4-.4 17.7-.1 24.5 5.3h24.4c2 .3 3.5-1.5 5.3-2.3a41 41 0 0 1 7.8-3.5c10.1-3.3 21.9-1.6 29.7 5.9h9.6q4.4-.7 8.8-1.2" class="b"/><path d="M8.3 133.7q3.5 0 7 1.3c1 .4 2.2 1.3 3.4 1.5h34.9c.5-.2 1.4-.8 1.8-1.2 5.3-4 10-5.3 16.6-5.1 8.3 0 18 .3 24.4 6.2q2.6.1 5.3.1 1.8 0 3.5-.7c3.4-1 7.1-.5 10.4.7h7c1 0 1.8-1 2.6-1.4 11.4-7.3 28.3-8.7 38.5 1.4h7q1.2-.7 2.6-1c3.4-1 7-1 10.4-1.4" class="b"/><path d="M8.3 130.8a23 23 0 0 1 11.3 3q.8.7 1.8.6H51c6.9-5.2 12.3-7.7 21-7.2 7.8.3 17 1 22.7 7 1.4.3 3 .1 4.4.2 1.4-.5 2.8-1.6 4.3-1.9a18 18 0 0 1 14 1.9h3.5q1.4.1 2.6-.4 4.3-3.2 9.6-4.8c9.2-3 21-2.4 28 5 1.6.4 3.5 0 5.2.2q2.4-1.5 5.2-2.1c4-1 8.2-1 12.2-1.4" class="b"/><path d="M8.3 128c3.2 0 6.5 1 9.5 2.1 1.8.6 3.5 1.7 5.3 2.1h25.3c5-3.9 11-7 17.5-7.7 6.7-.2 13.7.2 20 2.6q3 1 5.3 3c2.4 2.2 1.7 2.2 5.2 2.1q4.6-3.5 10.5-3.5c4.3-.2 8.7 1 12.2 3.5h4.4c9-7.4 26.5-8.8 35 0 1.3 0 3 .2 4.3-.2a15 15 0 0 1 5.2-2.5c5.1-1.3 10.5-1.2 15.8-1.5" class="b"/><path d="M8.3 125.5q5.3.2 10.4 2.3l3.5 1.4c.8.4 1.8 1 2.6.9q10.5.1 21-.1c5.4-4 11.7-7 18.3-8q4.4-.2 8.8.1c7 .7 14.4 2.4 19.2 8q1.3 0 2.6-.3 1.8-2 4.4-2.9a25 25 0 0 1 19.2 1.5c.8.4 1.7 1.3 2.6 1.7h3.5q1-.5 1.7-1.1c7.4-5 21.3-5.8 28 .9 1 .3 2.4.1 3.5.2 7.3-5.5 17.5-4.4 26.1-4.8" class="b"/><path d="M8.3 123q5.8.4 11.3 2.8c1.7.6 3.5 1.7 5.2 2.2h16.6c1.3.2 2.5-1 3.5-1.5l4.4-2.5q6.6-3.3 14-4.3c3.7-.5 7.6 0 11.3.5 5.8 1 12.3 2.6 15.7 7.7h1.8c.9-.5 1.7-1.6 2.6-2.1a16 16 0 0 1 4.4-2c7.8-2 17-1 23.5 4.2h4.4a20 20 0 0 1 16.6-2.6q2.4.7 4.4 2.2c1 .6 2.4.3 3.5.4 8.9-6.6 21.8-5 32.3-5" class="b"/><path d="M8.3 120.8c5.5.2 10.7 2.6 15.7 5h14l1.7-.1a51 51 0 0 1 6.1-3.3 53 53 0 0 1 14.8-4.7c7.9-1.2 23.6.6 28 8 .4 0 1.3.2 1.7.1 1.2-.9 2.2-2.2 3.5-3 3.2-1.7 7-2.4 10.5-2.6 7.3-.5 14.5 1.8 21 5.1.7.6 1.7.5 2.6.5h14.8c12.4-7.4 27.3-5.6 41-5" class="b"/><path d="M8.3 118.8a29 29 0 0 1 13 4.1 4 4 0 0 0 2.7.8h11.3c1.3.1 2.4-1 3.5-1.5q3.4-1.7 7-3a49 49 0 0 1 23.6-3.6c4.8.6 9.7 1.7 14 4.2l2.5 2.2c.6.9 1.5 2 2.7 1.7 1-.5 1.7-1.8 2.6-2.4 2.5-1.8 5.7-2.7 8.7-3.2a49 49 0 0 1 22.7 2.7 28 28 0 0 0 15.7.2c7.4-2 15-3.7 22.7-3.7s15.2 1 22.7 1.4" class="b"/><path d="M8.3 116.9a25 25 0 0 1 11.3 3.7q1.1 1 2.6 1h10.5a62 62 0 0 1 37.5-7.5c4.3.7 8.7 1.8 12.3 4.3 1.3.8 2.2 2.4 3.5 3.1q1.8.2 2.6-1.4 1.6-1.5 3.5-2.3a45 45 0 0 1 27.9-.5 36 36 0 0 0 16.6 0c7.4-1.6 15-3 22.7-2.8 8.2.2 16.3 1.7 24.4 2.5" class="b"/><path d="M8.3 115.2q3.6.4 7 1.8c1.4.6 2.8 1.7 4.3 2.4h10.5q3-1.6 6-2.9c13-5 27.9-7 41.1-1.8q2.3.9 4.4 2.4c1.8 1.5 1.6 2.6 4.4 2.3 2.6-3.6 7.2-4.9 11.3-5.6 7-1.2 14-.4 21 .8q8.3 1.7 16.6-.3c8.3-1.7 16.8-3 25.3-2.3 7.9.6 15.7 2.3 23.6 3.5" class="b"/><path d="M8.3 113.7q3.1.4 6 1.7c1.5.6 2.8 2 4.4 1.9h8.8q5.3-3 11.3-4.5a62 62 0 0 1 28.8-2c5 1 10.6 2.3 14 6.4h2.6c7.6-7.8 23.2-6.2 33.2-4.8a41 41 0 0 0 15.7-.5 81 81 0 0 1 27-2.1q7.5 1 15 2.6c2.8.7 5.8 1 8.7 1.9" class="b"/><path d="M8.3 112.5q2.7.3 5.2 1.5c.8.3 1.7 1.1 2.6 1.1h7c1.1 0 2.5.3 3.5-.5a69 69 0 0 1 29.7-6.3 43 43 0 0 1 21.8 5.6c.7.6 1.6 1.4 2.6 1.2 1.5.1 2.5 0 3.5-1.2 7.2-5 17.8-4.7 26.2-4 4.6.3 9.3 1.2 14 1s9.3-1.5 14-2.4a64 64 0 0 1 22.6-.6q7 1.3 14 3.1c2.9.8 6 1.3 8.7 2.3" class="b"/><path d="M8.3 111.4c1.7.2 3.5 1 5.2 1.6H24c1.5-.3 2.9-1.4 4.3-2q3.5-1.2 7-2a65 65 0 0 1 32.3-.3c3 .8 6.2 1.9 8.8 3.8l.8.5h4.4c8.7-6.8 22.8-5.1 33.2-4.2q4.3.5 8.7.5 4-.4 7.9-1.3a67 67 0 0 1 28.8-2q7.6 1.4 14.8 3.8c2.9 1 6 1.5 8.7 2.8" class="b"/><path d="M8.3 110.7c2 .3 4 0 6 .1H24a51 51 0 0 1 17.4-4.7 59 59 0 0 1 29.7 3q1.7 1 3.5 1.7h6.1c10-6.7 24.4-3.8 35.8-3q4.4.5 8.7 0 5.8-1.2 11.4-2.7c9.7-2.4 20-2 29.7 1q4.8 1.4 9.6 3.1l4.3 1.5q1.8.2 3.5.1" class="b"/><path d="M8.3 108.7H24c1.7-.2 3.5-1.3 5.2-1.7q4.3-1.2 8.7-1.8a70 70 0 0 1 22.7 0 52 52 0 0 1 10.5 3.4q1.8.1 3.5.1c2-.1 4.2.3 6.1-.2q1.7-1 3.5-1.6a37 37 0 0 1 11.4-1.7q7.8.2 15.7 1.4c4.6.6 9.4 1 14 .1s9.2-2.6 14-3.5a49 49 0 0 1 26.1 1.7c3.5 1 7 2.8 10.5 3.8h7.8" class="b"/><path d="M8.3 106.6h19.2q8.1-1.9 16.6-2.6 7.4-1 14.8 0c3.3.4 6.5 1.6 9.6 2.6h12.2c10-4.7 21.1-1.8 31.4-.1h11.4c5-.7 9.8-3 14.8-4.2a44 44 0 0 1 29.7 3.3l1.8.8q2.2.3 4.3.1h9.6" class="b"/><path d="M8.3 104.4h37.5q2.6-.5 5.2-1 6.7-1 13.1.9c2.6.3 5.3 0 7.9.1h9.6a35 35 0 0 1 20 0h28.8c4.6-1.6 9.2-3.3 14-3.8a34 34 0 0 1 17.5 2.8c.8.4 1.8 1 2.6 1h19.2" class="b"/><path d="M8.3 102.3h18.3c1.4 0 3-.9 4.3-1.2q3.5-1 7-1 3.6-.1 7 1c1.2.3 2.3 1.3 3.5 1.2h83.8c1.7 0 3.6.2 5.3-.2q4.6-1.6 9.6-1.7 3 0 6 .7c1.5.3 3 1.3 4.4 1.2h26.2" class="b"/><path d="M8.3 100.1h14c.8.1 1.7-.6 2.5-1l3.5-1.4a30 30 0 0 1 16.6-1q3.9 1 7 3.1c1.3.6 3 .2 4.4.3h98.6q2.2.2 4.4-.1l1.7-.7a22.2 22.2 0 0 1 16.6.8h6.1" class="b"/><path d="M8.3 97c1.4 1.4 3.4 1 5.2 1h7.9a32 32 0 0 1 26.1-4.2q4.3 1.2 7.9 3.8c1.3.8 3 .3 4.4.4h86.4c2-.1 4.2.3 6.1-.2q5.5-2.5 11.4-3.3 5.7-.7 11.3 1c1.8.5 3.6 1.6 5.3 2.5h3.5" class="b"/><path d="M8.3 93.8c1 .6 2.3 1.6 3.4 2h8.8c1.7-.8 3.4-2.2 5.2-3a34 34 0 0 1 31.4 1.7c.8.4 1.7 1.2 2.7 1.4h85.5c1.5-.2 3-1 4.4-1.5q3.8-1.5 7.9-2.4c8.1-1.8 17.7-1.7 24.4 3.9h1.8" class="b"/><path d="M8.3 90.8q2.6 1.3 5.2 3h7c1-.2 1.8-1.2 2.6-1.7q2.4-1.6 5.2-2.7a37 37 0 0 1 34 4.3h80.4c1.5-.4 3-1.3 4.4-1.8 11.6-4.5 26.4-6.7 36.7 1.8" class="b"/><path d="M8.3 87.9q2.2.9 4.3 2.1c1 .7 2.2 1.8 3.5 1.6 7.3 0 4 .7 9.6-2.9a37 37 0 0 1 28.8-2.3q5.6 1.9 10.5 5c1 .3 2.4.1 3.5.2h46.3a3 3 0 0 0 1.7-.4l2.6-1a17 17 0 0 1 13.1 1.3q4.9.2 9.6 0c1.3 0 2.4-1.1 3.5-1.6q3-1.5 6.1-2.5c9.9-3 24-4 32.3 3.2" class="b"/><path d="M8.3 85.2a24 24 0 0 1 7.8 4.2c2.3 0 4.8.3 7-.2 2.4-2.3 5.6-3.8 8.7-5 8.8-3 18.5-2.5 27 .7q3.8 1.4 7 3.1l2.7 1.4h43.7l2.6-1.3a22 22 0 0 1 21 .6c1 1 2.9.7 4.3.7h2.6c.9-.3 1.8-1.2 2.6-1.7 10.3-6.1 28.5-7.6 38.5-.3" class="b"/><path d="M8.3 82.6q3.1 1 6 2.5c1.2.6 2.4 1.7 3.5 2.2H24a37 37 0 0 1 27.9-6.8c6.8.8 13.1 3.5 19.2 6.5 1.3.6 3 .2 4.4.3h25.3c13 0 5.5.8 16.6-3.5q6.8-2.4 14-1c3.1.8 6.4 2.1 8.7 4.5 1.4 0 3 .2 4.4-.3.4-.4 1.2-1.2 1.7-1.5 2-1.6 4.6-2.7 7-3.4 9.4-3 22-3 30.6 2.4" class="b"/><path d="M8.3 80.2c3.6 1 7.4 2.4 10.4 4.9q3.5.2 7 0a40 40 0 0 1 34-5.6 84 84 0 0 1 14 5c.8.2 1.8.8 2.6.7h24.5c2.6-.1 5.3.2 7.9-.2q4.5-2.6 9.6-4.3a27 27 0 0 1 14.8-.9c3.5.8 7.3 2.3 9.6 5.3h2.6c1.2-.8 2.3-2.2 3.5-3q2.9-1.7 6.1-2.7c9-2.6 20.5-2.2 28.8 2.4" class="b"/><path d="M8.3 78q4.6.9 8.7 3 1.7 1 3.5 2H23c1.7 0 3.6.3 5.2-.2q3.6-2.9 7.9-4.3c6.7-2.3 14-2.9 21-2 7.5 1 14.6 4 21.8 6.4 2.5.4 5.2 0 7.8.1h21q6-3.2 12.2-5.3c7.9-2.7 20.1-1.8 25.3 5.3h1.8c7.3-9.5 26.9-8.7 36.6-3.6" class="b"/><path d="M8.3 75.9a43 43 0 0 1 13 4.8q1.3.3 2.7.2h6c1.2-.5 2.4-1.5 3.6-2.1q2.5-1.5 5.2-2.3c6.7-2.2 14-2.7 21-1.8 7.8.9 15.2 3.8 22.7 6 6.6.4 13.4.1 20 .2 2-.1 4.2.2 6.1-.2q5.5-3 11.4-5.2a29 29 0 0 1 22.7 1q2 1 3.5 2.7l.9 1.2.8.5h.9c6.7-9.7 25.5-8.2 35-3.7" class="b"/><path d="M8.3 74q5.3.8 10.4 2.8 2.3 1 4.4 2h1.8c12.7 0 5.2.2 15.7-3.8A50 50 0 0 1 65 73.2c6.6 1 12.9 3.4 19.2 5.4 2.6.4 5.3 0 7.9.2h13c1.8-.1 3.7.2 5.3-.3l2.6-1.4q4.7-2.7 9.6-4.4a29 29 0 0 1 20.1.4q2.4 1 4.4 2.6c.9.8 1.8 2.2 2.6 3h.9c6.4-9.5 24-7.4 33.2-3.3" class="b"/><path d="M8.3 72.1A64 64 0 0 1 24 76.5l2.6.1c14.9 0 5.4.8 17.5-3.6 8.4-2.8 17.5-3 26.1-1.2q7.5 2 14.9 4.8h27c1.5-.6 3-1.8 4.4-2.6q4.2-2.4 8.7-4c8.5-2.5 21.3-1.8 26.2 6.6h.9c6.5-9.3 22.4-6.7 31.4-2.8" class="b"/><path d="M8.3 70.5c4 .3 8.1 1.6 12.2 2.6 1.7.3 3.5 1.2 5.2 1.4h14q4.2-2.3 8.7-3.7a47 47 0 0 1 33.2 2.4c1.4.5 2.8 1.4 4.4 1.3h26.2c3.7.2 3.1-.3 6-2.3q4.2-2.7 8.8-4.3c8.6-2.6 21.3-2 26.2 6.6h.9c.9-.7 1.7-2 2.6-2.7q1.6-1.2 3.5-1.9c7.7-2.6 16.3-.5 23.5 2.7" class="b"/><path d="M8.3 69c4 .2 8.1 1.5 12.2 2.2 2.3.4 4.6 1.3 7 1.1h14.8c.8 0 2 0 2.6-.6a41 41 0 0 1 28-3.5 51 51 0 0 1 10.4 4l2.6.1h29.7c.8 0 2 0 2.7-.2a27 27 0 0 1 10.4-6.2c8.9-2.9 20.9-2.2 26.2 6.4 1.2.3 2-.7 2.6-1.5q1.6-1.5 3.5-2.3c7.5-2.7 16-.1 22.7 3.5" class="b"/><path d="M8.3 67.6q3 .2 6 .9l8 1.4c3 .6 6.3.2 9.5.3h14q1.9.3 3.5-.7 9.2-4.4 19.2-3.8a29 29 0 0 1 12.2 3.9 4 4 0 0 0 1.8.6h35.8q1.2 0 2.6-.3a24 24 0 0 1 8.7-5.7c7.3-2.8 16-2.8 22.7 1.6 1.8 1 3 3 4.4 4.4l1.7-.1c3.6-4.7 10.6-4.5 15.7-2.9q3.2 1.1 6.2 2.8 1.7.3 3.4.2" class="b"/><path d="M8.3 66.3c3.5 0 7 1.3 10.4 1.7H52a35 35 0 0 1 7.9-2.9 26 26 0 0 1 20 2.9q7 .2 14 0h28.8c1.6-.9 2.8-2.5 4.4-3.4a27 27 0 0 1 9.6-3.9c7.4-1.4 16.7.3 21 7.1q1.2.3 2.6.2c4.3-3.9 10.9-3.4 15.7-.6 1 .8 2.3.6 3.5.6h4.3" class="b"/><path d="M8.3 65.1c2-.2 4 .7 6 .8h41.1c.8 0 1.8-.6 2.6-.9q2.2-.8 4.4-1.3 5.2-1.3 10.5 0c1.8.5 3.5 1.6 5.2 2.2h47.1c8.8-9.6 25.8-10.7 34 0h3.6c3.4-2.5 7.8-1.7 11.3 0h6.1c1.2 0 2.6.3 3.5-.4" class="b"/><path d="M8.3 63.8h51.5c1.1 0 2.3-.7 3.5-1q2.5-.5 5.2-.6 2.2 0 4.4.7 1.2.6 2.6.9H127c1.2-.7 2.3-2 3.5-2.9q3.1-2.3 7-3.5c7.9-2.6 17.6-.5 22.7 6.4q3.9.1 7.8-.2 2.6.3 5.3.2h4.3c.8 0 2 0 2.7-.3q1.6-.9 3.5-1.5" class="b"/><path d="M8.3 61.7h120.4q1-.5 1.8-1.3c8.3-8 23.2-8.2 30.5 1.2h16.6c1 .1 1.8-.9 2.7-1.2l3.4-1.4" class="b"/><path d="M8.3 59.5h86.4q1.6-.9 3.5-1.5c3.6-1 7.7-1 11.3.4l2.6 1.1h18.4c1-.4 1.8-1.5 2.6-2a20.6 20.6 0 0 1 28.8 2h15.7q2.8-2.1 6.1-3" class="b"/><path d="M8.3 57.4h82c1.5-.5 2.9-1.8 4.4-2.3q4.1-1.9 8.7-2 4.5 0 8.8 1.8c1.5.6 2.9 1.8 4.3 2.5h15.7c5.8-6.1 14.9-8.7 22.7-5.4q2.9 1.1 5.3 3.1 1.2 1.2 2.6 2.3h14.8a17 17 0 0 1 6.2-3" class="b"/><path d="M8.3 55.2H85c1 0 2.5.3 3.5-.3 4.1-3.4 9.5-5.3 14.8-5.4a23 23 0 0 1 15.7 5.7h14c1.8-1.1 3.3-3 5.2-3.9a20 20 0 0 1 21.9 1.2c1.2.8 2.2 2.2 3.5 2.7h14c.8 0 1.8-.9 2.6-1.3q1.6-.8 3.4-1.3" class="b"/><path d="M8.3 53H86c8-7 20.3-9 29.6-3.4l3.5 2.4c.4.4 1.2 1 1.8 1h13c6.4-6 14.5-8.4 22.8-5q2.8 1.3 5.2 3.2c.8.6 1.6 1.8 2.6 1.9h14.9c1.3-.7 3-1.3 4.3-1.9" class="b"/><path d="M8.3 51h75.9c1.3-.5 2.3-1.8 3.5-2.5a28 28 0 0 1 15.7-4.8 26 26 0 0 1 16.6 6.2l.9.8.8.2q6.6.2 13.1 0c8.1-8.7 21.6-8.6 29.7 0q5.7.2 11.4 0h5.2c.9 0 1.9-.6 2.6-.9" class="b"/><path d="M8.3 48.8h30.5q2.6-.4 5.3-.4 2.6.1 5.2.4h34c1-.4 1.9-1.4 2.7-2 10.7-7.9 26.1-7.5 35.8 2h13c1.3-.6 2.4-2 3.5-2.7q2.5-1.7 5.3-2.7c8-2.8 15.7-.1 21.8 5.4h18.4" class="b"/><path d="M8.3 46.7H37c2.5-.4 5.2-1 7.8-1q3.6 0 7 .8 2.2.3 4.4.2h17.4c3.2-.1 6.5.2 9.6-.2 10.3-9.7 28.4-10.2 38.5 0q3.8.3 7.8.2c2-.1 4.1.1 6.1-.2a20.5 20.5 0 0 1 27-2.2l1.8 1.3q.8.9 1.8 1h17.5" class="b"/><path d="M8.3 44.5q5.2-.7 10.4 0h17.5c2.5-.6 5.2-1.4 7.8-1.4q3.6-.2 7 .5c1.8.2 3.5 1.1 5.3 1h23.5q1.8 0 3.5-.3a28.7 28.7 0 0 1 38.5.2h14a21 21 0 0 1 27-2.5c1.2.7 2.3 1.9 3.5 2.5h17.4" class="b"/><path d="M8.3 42.4c3-1 6.4-.7 9.5-.5q3 .6 6.2.5h11.3c2.6-.8 5.2-1.7 7.9-1.8q4.4-.4 8.7.5c1.7.2 3.5 1.3 5.2 1.3h26.2a29 29 0 0 1 38.5 0h13c.5 0 1.4-.1 1.8-.4 8.5-8 21.2-7.5 29.7.4h17.4" class="b"/><path d="M8.3 40q2.5-.8 5.2-.6 3.5-.1 7 .5c2.2.6 4.7.3 7 .4h7c1-.3 2.3-1 3.4-1.3a29.3 29.3 0 0 1 14.8-.2c1.8.3 3.5 1.5 5.3 1.5h26.2a29 29 0 0 1 35-1.7c.7.5 1.6 1.5 2.5 1.7 5-.1 10 .2 14.9-.2 8.2-8 21.4-7.7 29.7.1q8.6 0 17.4 0" class="b"/><path d="M8.3 37.7c3-1 6.4-.7 9.5-.5 1.9.1 3.6 1 5.3 1h8.7q1.4 0 2.6-.3 1.7-.9 3.5-1.5a27 27 0 0 1 16.6.6c1.1.3 2.3 1.1 3.5 1.1h12.2c1.4 0 3-.4 4.4-.2q3 .3 6.1.2c6.4 0 3.6.4 8.7-2.7a29 29 0 0 1 31.5 2.7h15.7a22 22 0 0 1 29.7-.1c5.8.3 11.6 0 17.4.1" class="b"/><path d="M8.3 35.4c3.3-.9 7-.7 10.4-.3 1.5.1 3 1 4.4.9h6.1c1.4-.1 3 .3 4.4-.3 4.4-2.5 9.8-3 14.8-2.5a29 29 0 0 1 8.8 2.7h13.1q2-.4 4.3-.4 2.3.2 4.4.5h5.2q1.8.1 3.5-.3 2.4-1.8 5.3-2.9a29 29 0 0 1 23.5 1.3c1.2.5 2.3 1.5 3.5 1.9h16.6c2.2-1.4 4.4-3.2 7-4 7.5-3.1 16.6-1.4 22.7 3.9 5.7.3 11.7 0 17.4 0" class="b"/><path d="M8.3 33.3c3-.9 6.4-.7 9.5-.4 2 .2 4 1.2 6.2 1h7.8q2.5-1.5 5.3-2.3a27 27 0 0 1 19.2 1.8c1.2.8 3 .3 4.3.4h9.6q2.2-.5 4.4-.6c2.6-.2 5.2.8 7.9.6h7a28 28 0 0 1 27-1c.8.3 1.7 1.1 2.6 1h17.5c1-.1 1.8-1 2.6-1.5q2.1-1.4 4.4-2.3c7.5-3 16.5-1.5 22.7 3.7 5.8.3 11.6 0 17.4.1" class="b"/><path d="M8.3 31.2c4.2-1 8.8-.5 13 .5H31c5.5-3.8 12.8-4.1 19.2-2.5q3.2.8 6 2.3c1.1.3 2.5.1 3.6.2h10.4c2-.2 4.1-.8 6.2-.7q2.6 0 5.2.7h9.6c.8 0 2 0 2.6-.5q5.8-2.7 12.2-2.3 3.6.2 7 1.3c1.5.3 2.9 1.4 4.4 1.5q10 .1 20-.1a23.4 23.4 0 0 1 28.9 0q8.7.1 17.4 0" class="b"/><path d="M8.3 29.2a24 24 0 0 1 11.3.4h8.7c1.3.2 2.5-.8 3.5-1.4q2.2-1 4.4-1.6a27 27 0 0 1 17.4 1.8c1.1.4 2.3 1.3 3.5 1.2H72q1.7-.4 3.5-.6a26 26 0 0 1 7.8.6h14a24 24 0 0 1 14-.8c1 .2 2.3.9 3.5.8h22.7c2-1.1 4-2.5 6-3.3 7.5-2.9 16.4-1.7 22.8 3.2q8.7.1 17.4 0" class="b"/><path d="M8.3 27.4c3-.8 6.4-.4 9.5 0h10.5a23 23 0 0 1 19.2-3q2.7.6 5.3 1.8c1 .4 2.2 1.4 3.5 1.2h16.6c2.3 0 4.6-.6 7-.5q2.2.1 4.3.5h48q3.1.2 6.1-.1 4.4-3 9.6-4a24 24 0 0 1 17.5 3.4l.9.6.8.1h16.6" class="b"/><path d="M8.3 25.3h18.3c2.2-1.3 4.4-2.7 7-3.3q5.6-1.4 11.3-.3c3.4.6 6.5 2.2 9.6 3.6h83.8q1.4-.6 2.6-1.3 2.6-1.4 5.3-2a25 25 0 0 1 19.2 2.6l.9.6h17.4" class="b"/><path d="M8.3 23.2H24q1.5 0 2.6-1a19 19 0 0 1 3.5-1.8c5-2 10.6-2 15.7-.5 10.6 3.6 3 3.3 15.7 3.3h77.7q4.2-2.4 8.8-3.5a26 26 0 0 1 15.7 1.8c1 .4 2.3 1.4 3.5 1.7h16.6" class="b"/><path d="M8.3 21H24c6-5 14.6-5.7 21.8-3.1q3.2 1.2 6.1 3 4 .1 7.9.1h79.4c1.3.2 2.4-.8 3.5-1.3a27 27 0 0 1 16.6-1.8 28 28 0 0 1 7.9 3.1h16.6" class="b"/><path d="M8.3 18.9h9.5c1.7-.1 3.7.3 5.3-.3 8-6.7 19.7-5.6 28 .3H141c1.4-.5 2.9-1.5 4.3-2a27 27 0 0 1 17.5-.2c1.8.5 3.5 1.7 5.2 2.2h15.8" class="b"/><path d="M8.3 16.7h12.2a3 3 0 0 0 1.7-.4c8.3-6.8 19.7-6 28 .4h91.6c1.5-.3 3-1.3 4.4-1.8a27 27 0 0 1 17.5-.3c1.7.5 3.5 1.8 5.2 2.1h14.8" class="b"/></svg>