<svg xmlns="http://www.w3.org/2000/svg" id="a" width="1920" height="2400" viewBox="0 0 192 240"><defs><style>.b{fill:none;stroke:#fff;stroke-miterlimit:10;stroke-width:.3px}</style></defs><path d="M0 0h192v240H0z" style="stroke-width:0"/><path d="M8.8 222c6.1-.6 12.6.8 17.3 4.9 1 .7 2 2 2.6 3q.9.4 1.8.4a3 3 0 0 0 1.7-.4c3-3.3 8-3.9 12.2-3.7q4.9.4 9.5 2c1.8.6 3.5 1.6 5.2 2H74a28 28 0 0 1 15.6-1c1.4.3 2.9 1 4.3 1h42.6q1.3 0 2.6-.6a70 70 0 0 1 13-3c6.9-.8 13.9 0 20.8.1 3.5.2 7-.3 10.4-.5" class="b"/><path d="M8.8 219.7c6.3-.6 13 .8 18.2 4.6q2 1.4 3.5 3.4c1 .7 2.3.4 3.4.4 5.3-4.5 12.8-4 19.1-2.4q2.8.6 5.2 1.7l1.8.7h14.7c1.2.1 2.4-.4 3.5-.6q2.2-.3 4.4-.3c2.6-.1 5.2.6 7.8 1H138c2-.2 4-1 6-1.3a75 75 0 0 1 9.6-1.2c6.1-.5 12.2 0 18.3 0 3.8 0 7.5-.9 11.3-1.4" class="b"/><path d="M8.8 217.7c7-.7 14.1.8 20 4.7l2.5 2.2c.4.5 1.2 1.3 1.8 1.4h3.5c5.2-3.8 12.2-3.3 18.2-2q3 .7 6 2h81.6q2.7-.1 5.2-.4 4.5-.5 8.7-.5c5.2-.1 10.5.5 15.7 0 3.8-.2 7.5-1.5 11.2-2.4" class="b"/><path d="M8.8 215.9a34 34 0 0 1 24.3 6.8q.6.8 1.7 1.2c2-.2 4.3.4 6.1-.8 6-2.6 13-1.7 19 0 2.2 1 4.7.7 7 .8H99c2 .1 4.1-.6 6.1-.8q4.9-.4 9.6.6c1.6.4 3.5.1 5.2.2h57.3q3-1.5 6-2.6" class="b"/><path d="M8.8 214.3q8-1 15.6 1.3c4 1.3 8.2 3.2 11.3 6.1h7q4.9-2.1 10.3-1.7 3.5 0 7 1c1 .2 2.3.8 3.4.8h33.1c1.7-.2 3.4-1 5.1-1.2a34 34 0 0 1 9.6-.4c2.4.2 4.6 1 7 1.6h62.4q1.2-1 2.6-1.6" class="b"/><path d="M8.8 213a41 41 0 0 1 27.7 6.3c1.3.6 3 .2 4.4.3H46q2.5-1 5.2-1.1a31 31 0 0 1 7.8.2c1.4.2 3 .8 4.4 1h27.7c1.4-.1 3 .1 4.4-.5q3.4-1 7-1.5 5.5-1 11.2.2 2.7.6 5.2 1.7h60.8q1.7.2 3.4-.2" class="b"/><path d="M8.8 211.8c7.2-1.2 14.7-.3 21.7 2 2.7.9 5.3 2.4 7.8 3.7h11.3a29 29 0 0 1 13 0h29.5c1.4-.2 3-.9 4.3-1.2q3-.8 6.1-1.2 6.1-.9 12.2.5 2.2.7 4.3 1.6 1.2.5 2.6.3h61.6" class="b"/><path d="M8.8 211c7.1-1.6 14.7-.8 21.7 1.1 11.9 3.7 3.3 3.3 17.3 3.3H54q2.6-.3 5.2-.2c3.5.4 7 .1 10.4.2h18.3c2 0 4 .1 6-.7q4.3-1.5 8.7-2 6.1-.9 12.2.5a24 24 0 0 1 5.2 2.2h63.3" class="b"/><path d="M8.8 210.5a46 46 0 0 1 29.5 2.7h52.9c3.5-.8 6.9-2.2 10.4-2.6q6.6-1.1 13 .4 2.8.9 5.3 2.2h63.3" class="b"/><path d="M8.8 210.3c8-3.4 20.5-1.8 28.6.8h54.7c2.6-.7 5.2-1.7 7.8-2.2q7-1.6 13.9-.1 1.8.4 3.5 1.2c.7.3 1.7 1 2.6 1.1h63.4" class="b"/><path d="M8.8 209h2.6l3.4-.8q3.5-.6 7-.5 4.4 0 8.7.7 3.4.6 7 .6h56.3l1.8-.7c5.7-2 12.2-3 18.2-1.4q1.8.4 3.5 1.3c.7.4 1.7 1 2.6.8h33.8l2.6-1.1q2.5-.8 5.2-1 2.7 0 5.2.9c1.2.2 2.3 1.2 3.5 1.2h13" class="b"/><path d="M8.8 206.9h86.8q2.5-1.2 5.2-1.7 5.5-1.4 11.3-.5c2 .4 4.1 1.4 6 2.2h30.4c1.5 0 3.2.2 4.4-.8q2.8-1.7 6-2.3a18 18 0 0 1 12.2 2.2c.6.5 1.8 1 2.6.9h9.5" class="b"/><path d="M8.8 204.8h88.5q5.5-2.1 11.3-2 4.1 0 7.8 1.8 2.2.3 4.3.1h26.9c1.2 0 2.6.3 3.5-.4q2-1.6 4.4-2.5a18 18 0 0 1 18.2 2.6c1 .5 2.4.3 3.5.3h6" class="b"/><path d="M8.8 202.6h91.1a27 27 0 0 1 7-1.3q2.5-.2 5.2.4c1.4.2 2.8 1 4.3 1h33.8c5.2-5 13.5-6.3 20-3.3q2.4 1 4.3 2.8c1 .7 2.4.4 3.5.4h5.2" class="b"/><path d="M8.8 200.5h93.7c1.7-.1 3.5-.6 5.2-.6q2.7.1 5.2.6h37.3a18.4 18.4 0 0 1 25.2 0h7.8" class="b"/><path d="M8.8 198.4h126.7c1.8.1 3.4-1 5.2-1q2.8 0 5.2 1h5.2a17.5 17.5 0 0 1 23.5-.2c1 .3 2.3.1 3.4.2h5.2" class="b"/><path d="M8.8 196.3h126.7q3-1.6 6-1.7 3.3 0 6.2 1.7h5.2c5.2-5.2 14.1-5 20-1 1 1.3 2.8.9 4.3 1h6" class="b"/><path d="M8.8 194.1h125c1.5.2 2.9-1 4.3-1.4a13 13 0 0 1 11.3 1.4h3.4q1.5.1 2.6-.3 1.6-1.3 3.5-1.9c3.4-1 7.2-.8 10.4.5 1.5.4 2.8 1.9 4.4 1.7h9.5" class="b"/><path d="M8.8 192h16.5c3.1 0 6.4-.6 9.5 0h24.3q3-.7 6.1-1c3.8-.1 7.5 1.3 11.3 1h57.3q1.4 0 2.6-.8l2.6-1c4-1.2 8.6-.6 12.1 1.8h7a13 13 0 0 1 12.1 0h13" class="b"/><path d="M8.8 189.9h13c1.1 0 2.4-.6 3.5-.8a28 28 0 0 1 11.3 0q1.6.5 3.4.8h15.6a32 32 0 0 1 11.3-1.6q3 .5 6.1 1.3c1 .4 2.4.2 3.5.3H119q1.8-.3 3.5-.5 2.2-.2 4.3.4h8.7l1.7-.9q3.3-1.5 7-1.4 3.2 0 6 1.2c1.2.3 2.3 1.3 3.5 1.2h29.5" class="b"/><path d="M8.8 187.7H20a27.7 27.7 0 0 1 20.8 0h11.3q5.4-2 11.2-2.2 3.7 0 7 1.1c1.4.4 2.8 1.3 4.3 1.1h40q4.6-1.5 9.5-1.5 1.8 0 3.5.7c.7.4 1.7 1 2.6.8 2.2 0 4.7.3 7-.2a14 14 0 0 1 3.4-1.4c3-.8 6.5-.7 9.5.2 1.8.3 3.4 1.6 5.2 1.4h27.8" class="b"/><path d="M8.8 185.6h9.5q4.6-2.2 9.6-2.5a27 27 0 0 1 12.1 2 3 3 0 0 0 1.8.5h7.8a27 27 0 0 1 22.5-.4q.9.4 1.8.4h30.4c2.2 0 4.7.3 6.9-.2q6.7-2.6 13.9-2.3a13 13 0 0 1 6 2.4l1.8.1h6c3.2-1.7 7-2 10.5-1.4q2.7.3 5.2 1.4 4.4 0 8.7 0h20" class="b"/><path d="M8.8 183.5h7.8c3.8-1.8 7.9-3.1 12.1-3q4.6 0 8.7 1.4c1.2.4 2.3 1.3 3.5 1.6h2.6l3.5-.1q2-1.4 4.3-2 5.5-1.7 11.3-1.2 3.2.3 6 1.3c1.6.5 3 1.8 4.4 2h33.9q1.3-.3 2.6-1 5.8-2 12.1-2.4a17 17 0 0 1 12.2 3.4h8.6a19 19 0 0 1 7-.8c1.7 0 3.5.6 5.2.8h28.7" class="b"/><path d="M8.8 181.4h7q1.5-1 3.4-1.7c5-1.9 10.5-2.2 15.6-.7q1.9.7 3.5 1.6.7.7 1.7.8 2.2.1 4.4-.2c6.1-4.8 18.4-4.9 25.1-1.3.8.4 1.8 1.2 2.6 1.5H80q2.2-.4 4.4-.6 2.6 0 5.2.6h14.7c2.3-.9 4.6-2.1 7-2.7q7.2-2 14.7-1.5 5.8.8 10.4 4.2h47" class="b"/><path d="M8.8 179.2h6q2.2-1.2 4.4-2c5-1.8 10.7-2 15.6.1 1.2.4 2.3 1.6 3.5 2 1.5 0 3.3.3 4.3-1 7.2-5.3 21.8-4.6 28.7 1h6q1.5-.3 2.6-.8 2.2-.5 4.4-.6c2.7 0 5.2.8 7.8 1.3h10.4a35 35 0 0 1 16.5-4.7 31 31 0 0 1 20 4.5c1 .4 2.3.2 3.4.3h40.8" class="b"/><path d="M8.8 177.1H14q2-1.2 4.3-2c4.7-1.7 10.2-2 14.8 0 .8.4 2 1.1 2.6 1.8q1.2.3 2.6.2c.6 0 1.4-.7 1.7-1.2 7.2-6 23.5-5 30.4 1.2h6q1.8-.8 3.5-1.3 4.5-.9 8.7 0c1.5.3 3 1.4 4.4 1.3q3.8.2 7.8-.1c3.2-2.5 7.3-3.7 11.3-4.4 6-1 12.2-1.4 18.2-.2q4.5 1 8.7 2.8 2 1 4.3 2H178c1.7-.2 3.6.2 5.2-.3" class="b"/><path d="M8.8 175H13c1.8-.5 3.4-1.8 5.2-2.3C23.4 171.1 30 171 34 175c.8 0 2 0 2.6-.3 5.8-6.8 17.4-6.4 25.2-4q4.3 1.3 7.8 4c2 .5 4.1.2 6.1.3a18 18 0 0 1 15.6-.2c2.3.4 4.7.1 7 .2 1.2-.3 2.3-1.5 3.4-2q5-2.6 10.5-3.2 9.1-1.2 18.2 0c6 1 11.6 3.3 17.3 5.2h29.6q3 .1 6-.5" class="b"/><path d="M8.8 172.9H13q3.3-2 7-2.7c3.1-.6 6.6-.5 9.5 1 .8.4 1.7 1.4 2.6 1.7H34c5.5-7.5 17.2-7.5 25.2-5.1a32 32 0 0 1 9.6 4.7c1.3.6 3 .3 4.3.4 1.1-.1 2.5.2 3.5-.4a15 15 0 0 1 5.2-1.3q4.6-.3 8.7 1.7h6c1.5-.9 2.9-2.1 4.4-2.8q3.7-1.8 7.8-2.4c4-.8 8.1-.8 12.2-.8q4.8 0 9.5.6c7.4 1 14.5 3.2 21.7 5.2 2 .4 4.1 0 6 .2H179c1.4 0 3-.6 4.3-.7" class="b"/><path d="M8.8 170.7H13q2.1-1.1 4.4-1.9c4-1.2 9-1.3 12.1 2h1.7c9-10.5 25.4-8.4 35.6-1q.8.6 1.8 1h6.9q1.8-.7 3.5-1 3.9-.8 7.8.5c1 .6 2.4.4 3.5.4h4.3c7.2-6.5 17.8-6.2 27-5.9 9.9 0 19.7 2.3 29.4 4.3l8.7 1.5q4.3.1 8.7.1h9.5l5.2-.6" class="b"/><path d="M8.8 168.6H13c3-1.3 6.2-2.6 9.6-2.2q1.8.2 3.4 1c.4.4 1.3 1 1.8 1.2h1.7c5.8-8 17.2-9.1 26-6.3a36 36 0 0 1 10.5 5.4q1 1 2.6 1h8.6q1.8-.3 3.5-.4l3.5.3H92c9.9-8.7 24.4-5.8 36.5-5.3 13.6 1.2 27 4.3 40.7 5.1 4.7.4 9.3-.2 14-.1" class="b"/><path d="m8.8 166.5 5.2-.1a13 13 0 0 1 8.7-1.4q1.4.3 2.6 1.3 1.2.2 2.6.2c3.9-5.5 10.7-8.2 17.3-8.3 7.7 0 15.1 3.3 20.9 8.2q10.8.1 21.7 0c1.3.3 2.4-1 3.4-1.6q2.1-1.4 4.4-2.3a46 46 0 0 1 21.7-1.8q7 .6 13.9 1.2l26.9 2.7 15.6 1.5c3.1.3 6.4 0 9.5.4" class="b"/><path d="M8.8 164.4q3 0 6-.2 2.2-.9 4.4-1t4.3 1.2h2.6c1.3-.9 2.2-2.6 3.5-3.6q3.1-2.6 7-3.8c10-3.5 20.9.5 28.6 7.4H79c2.3-.1 4.7.2 7-.2q1.5-1.4 3.4-2.4a38 38 0 0 1 21.7-3.6q5.6.6 11.3 1.5l12.1 1.1c7.8.7 15.7.9 23.5 1.4q6.5.5 13 1.3 6 1 12.1.9" class="b"/><path d="M8.8 162.2c3.1 0 6.4.2 9.5-.4q1.4 0 2.6.4h4.4a22 22 0 0 1 19-9c6.8.2 13.3 3.3 18.3 7.7.4.4 1.2 1.1 1.7 1.3h18.3a33 33 0 0 1 24.3-6.4c5.5.4 11 1.9 16.4 2.8q8.7 1.2 17.4 1.5c7.5.1 15-.4 22.6.3q6.5.6 13 1.8h7" class="b"/><path d="M8.8 160.1h13q1.4 0 2.6-.3c4-5.8 11.3-8.9 18.2-9s13.3 3 18.3 7.4c.8.6 1.5 1.8 2.6 1.9h12.9c1.5 0 3.3.3 4.4-1 6.9-5.1 16-6.5 24.3-5.5 5.6.6 11 2.3 16.5 3.7a84 84 0 0 0 19.1 2.3c7.2-.4 14.4-1.8 21.7-1.3q6.1.4 12.1 1.8h8.7" class="b"/><path d="M8.8 158h13a3 3 0 0 0 1.7-.4q2.5-3.3 6.1-5.5a25 25 0 0 1 32.1 5.8q7.9.2 15.6 0c12.8-10.8 28.3-7.2 42.6-1.9q3.3 1.2 7 2h23.3q5.6-1.3 11.3-1.4 5.7.2 11.3 1.4h10.4" class="b"/><path d="M8.8 155.9h8.7c1.6-.1 3.5.2 5.2-.3a24 24 0 0 1 20.8-9.1c6.8.5 13 4.3 17.4 9.4h14.7c12.3-11 28-7.8 41.7-1.5l3.4 1.5h35.6q3.5-.6 7-.6c2.3-.1 4.6.4 7 .6h13" class="b"/><path d="M8.8 153.7h13a24 24 0 0 1 38.2 0h13q1 0 1.7-.2l1.8-1.5a27 27 0 0 1 14.7-5.6c6-.4 12 1 17.4 3.3l5.2 2.4c1.4.7 2.8 1.8 4.3 1.6 7 0 14 .3 20.9-.3 5.7.5 11.6.3 17.3.3h27" class="b"/><path d="M8.8 151.6c19.5-.2 7.7 1.7 20-6 10.5-6.1 22.8-3.3 30.3 6 5-.1 9.9.2 14.8-.1 10.7-10.7 26.4-8.2 38.2-.8q.8.6 1.7.9H132c1.4-.1 3-.7 4.4-.9q5.2-.6 10.4.8 18.2.1 36.4.1" class="b"/><path d="M8.8 149.5c19.4-.3 7.7 1.6 20-5.9a23 23 0 0 1 29.5 5.9H73c9.2-9.8 24.2-8.7 34.7-1.7q1.3 1 2.6 1.7h21.8a28 28 0 0 1 17.3 0h33.8" class="b"/><path d="M8.8 147.4h13c10-10.8 26-11.8 35.6 0H72c9.5-10 24.8-8.4 34.8 0h26c1.1 0 2.4-.6 3.5-.8a28 28 0 0 1 12.1 0q1.8.5 3.5.8h31.2" class="b"/><path d="M8.8 145.2h13.9c9.3-10 24.8-10.8 33.8 0h14.8c8-8.6 22.4-8.4 31.2-1 .4.4 1.2 1 1.8 1h33a28 28 0 0 1 13-.5c1 .1 2.3.6 3.4.5h29.5" class="b"/><path d="M8.8 143h14.7c9.4-8.8 23.1-9.7 32.1 0h13q1.6.3 2.7-1 1.6-1.4 3.4-2.4 5.3-3 11.3-2.8c5.4.1 10.8 2.3 14.8 6 1 .4 2.3.2 3.4.3H119q4.2-2.2 8.7-.7c.7.2 1.7.7 2.6.7h13q2.2-.3 4.3-.4 2.6 0 5.2.4h30.4" class="b"/><path d="M8.8 141q8.3 0 16.5-.1c8.5-8 21-8.1 29.5 0h13q1 .2 1.7-.4a21 21 0 0 1 20.9-4.5q4.4 1.4 7.8 4.6 1.2.6 2.6.4h13.9c2.3-1.7 4.8-3.5 7.8-3.9 4.1-.3 8.3 1 12.1 2.6l2.6 1.3h46" class="b"/><path d="M8.8 138.8H27a19.7 19.7 0 0 1 24.3-1.7c1 .7 2.1 2 3.5 1.7h12.1c1.4.3 2.5-1.2 3.5-1.9a20.2 20.2 0 0 1 26 1.9h9.6c2 0 4.1.3 6-.2 3-3.1 7-5.6 11.3-5.7a42 42 0 0 1 19.1 5.7c1.1.4 2.4.2 3.5.2h37.3" class="b"/><path d="M8.8 136.7h20c.9.1 1.8-.8 2.5-1.2q1.7-1 3.5-1.6c5.8-2 12.5-1 17.4 2.8h14.7c1-.2 1.8-1.2 2.6-1.8a19.8 19.8 0 0 1 25.2 1.8h14.7c3.6-4.4 9-7.8 14.8-7.5q11 1.1 20.8 6c1.1.5 2.2 1.5 3.5 1.5h34.7" class="b"/><path d="M8.8 134.6h23.4c1.2-.2 2.3-1 3.5-1.4a18 18 0 0 1 12.1.2c1.1.3 2.3 1.3 3.5 1.2H67c7.7-7.2 18.3-6.8 26 0h14c.5-.2 1.3-1.1 1.7-1.6l2.6-2.5q4.6-3.8 10.4-4.6 3.5-.2 7 .6a81 81 0 0 1 23.4 8h31.2" class="b"/><path d="M8.8 132.5h28.6q2.6-.8 5.2-.8c2 0 4 .9 6.1.8H67a17.5 17.5 0 0 1 24.3 0h14c.5-.3 1.3-1.2 1.7-1.7q1.6-1.9 3.4-3.3c3.7-2.8 8.3-4.9 13-4.7A100 100 0 0 1 153 131c1 .5 2.3 1.3 3.4 1.5h20c2.3-.2 4.6-1.1 7-1" class="b"/><path d="M8.8 130.3h58.1c2-1.3 3.8-3 6.1-3.6 5.6-2 12.2-.4 16.5 3.6h13a3 3 0 0 0 1.8-.4c4.5-5.7 11.5-10.2 19-9.8a129 129 0 0 1 35.6 10.3h14.8c3.2-.5 6.3-1.8 9.5-1.8" class="b"/><path d="M8.8 128.2q29.5.1 59 0c3.8-3.8 9.8-4.8 14.8-3q1.8.6 3.4 1.6c.8.4 1.7 1.4 2.6 1.4h14c4.5-5.5 10.8-10.1 18.1-10.6 3-.2 5.9.6 8.7 1.1q14.7 2.8 28.7 8c1.4.5 2.8 1.7 4.3 1.5h8.7q2.2.1 4.3-.7c2.6-.6 5.2-1.6 7.8-1.6" class="b"/><path d="M8.8 126H27c1.7 0 3.5-.5 5.2-.5q3 0 6.1.6h30.4c3.5-3.2 8.6-4 13-2.5q1.9.6 3.5 1.7a4 4 0 0 0 1.7.8h14.8c4.4-5.7 11-10 18.2-10.7 2.6-.3 5.3.4 7.8 1q13.2 2.5 26 6.1 5 1.5 9.6 3.6h9.5l2.6-.9c2.6-.8 5.2-1.7 7.8-1.7" class="b"/><path d="M8.8 124H26c1.2 0 2.4-.5 3.5-.7q2.6-.5 5.2-.5 4.5.3 8.7 1.1h23.4c1.5 0 3.2.2 4.4-.8 2.3-1.3 5.2-1.7 7.8-1.3q1.8.4 3.5 1c.7.4 1.7 1.1 2.6 1.1q7.7.2 15.6 0c4.6-5.8 11.6-10.1 19-10.6 2.7-.2 5.3.6 7.9 1.2q11.6 2.6 23.4 5 4.9 1.1 9.6 2.8c1.4.4 2.8 1.4 4.3 1.6h7.8c1.2 0 2.4-.8 3.5-1.1q3.3-1.4 7-1.7" class="b"/><path d="M8.8 121.8h16.5q1.8.2 3.4-.5a29 29 0 0 1 12.2-.6c2.6.2 5.2 1.1 7.8 1.1h22.6c.8.1 1.8-.5 2.6-.7q1.6-.5 3.4-.5c1.8 0 3.6.8 5.3 1.2h17.3a28 28 0 0 1 20.8-10.3c3 .1 5.8 1.3 8.7 2l12.2 2.5q8.6 1.4 17.3 3.4 2.2.5 4.4 1.3l2.6 1.1h7.7c1.3 0 2.4-1 3.6-1.3q3-1.2 6-1.4" class="b"/><path d="M8.8 119.7H27c1.4-.2 3-1 4.3-1.2q3.5-.7 7-.6 5.3.5 10.4 1.6c1.7.4 3.5.2 5.2.2h43.4c1.6.1 2.4 0 3.5-1.3q2-2 4.3-3.6c5.7-3.8 13.2-6.3 20-3.8 10.4 3.5 21.3 4.3 32 6q5 .7 9.6 2.7h7.8c1.3.2 2.4-.9 3.5-1.2q2.5-1 5.2-1.2" class="b"/><path d="M8.8 117.6H27c1.5 0 3-1 4.3-1.2q3.5-.9 7-.7 4 .1 7.8 1 3.4.9 7 .9h46c5.8-5.4 13.5-9.7 21.6-8.8 3.3.4 6.4 2 9.6 2.9q6.8 1.9 13.9 2.4c7.5.9 15.4.5 22.6 3.2 1 .5 2.3.2 3.4.3h6.1c.9 0 1.8-.7 2.6-1q2-.9 4.3-1" class="b"/><path d="M8.8 115.5h19c1.5-.1 3-1 4.4-1.3q3.4-.7 7-.6 5.3.4 10.4 1.9H99c6-5 13.8-9 21.7-7.6 3.3.6 6.3 2.4 9.6 3.4q6.3 2 13 2.2c6 .3 12.2-.2 18.2.5q2.2.2 4.4.8 2 .7 4.3.7h8.7q2-1 4.3-1.2" class="b"/><path d="M8.8 113.3h20c1 0 2.3-.7 3.4-1q3-.7 6-.6c3.3 0 6.5.9 9.6 1.6H99c1.9-.7 3.4-2.3 5.2-3.1A25 25 0 0 1 120 107c3.4.5 6.3 2.7 9.5 4 8 3.5 16.8 2.3 25.2 1.5q4.8-.5 9.5 0c1.8 0 3.5.8 5.2.8q7 .2 14-.1" class="b"/><path d="M8.8 111.2h20.8c1.1 0 2.4-.6 3.5-.8q2.2-.4 4.3-.4 4 .1 7.8 1.2H100q1.8-1 3.5-2c4.7-2.4 10.3-3.9 15.6-2.9 3.3.5 6 2.7 8.7 4.3.6.6 1.8.7 2.6.6h26.9q3-.5 6-.5c2-.1 4.2.4 6.1.5h14" class="b"/><path d="M8.8 109h20.8c2.3.3 4.6-.5 7-.5q2.6 0 5.2.6h59a3 3 0 0 0 1.7-.5l2.6-1.2q3.8-1.5 7.8-1.8 5.1-.5 9.6 2l1.7 1.3q1.3.3 2.6.2h56.4" class="b"/><path d="M8.8 107H46c2.3-.1 4.7.2 7-.4q3-.3 6 .4h45.1q3.8-1.6 7.9-1.8 4.6-.3 8.6 1.8h62.5M8.8 104.8H46c1.2 0 2.3-.8 3.5-1q3.4-1.1 7-.7 3 .4 6 1.7h120.6M8.8 102.7h34.7q2.1-1 4.3-1.8 4.7-1.5 9.6-.7a21 21 0 0 1 7 2.5h118.9" class="b"/><path d="M8.8 100.6h30.4c1.2.1 2.4-.5 3.4-1l3.5-1.4q5.5-1.6 11.3-.7c2.8.4 5.3 1.8 7.8 3h118" class="b"/><path d="M8.8 98.5h28.6c1.5-.5 3-1.4 4.4-1.9q4.2-1.5 8.6-2 5.5-.3 10.5 1.6c1.5.6 2.8 1.8 4.3 2.2h118" class="b"/><path d="M8.8 96.2c2.8.3 5.8 0 8.7.1H34c.8.2 1.8-.4 2.6-.8l2.6-1q4.6-1.8 9.5-2.2a21 21 0 0 1 13.9 3.2 4 4 0 0 0 1.7.8h118.9" class="b"/><path d="M8.8 94c7.5.4 15 .1 22.5.2 1.8-.3 3.5-1.4 5.3-2 3.3-1 6.8-2 10.4-2.1 4.4-.3 9.1.3 13 2.6.8.5 1.7 1.3 2.6 1.5h6c2.4.2 4.7-.6 7-.8q4.8-.5 9.6 0 3.4.1 6.9.8h61.6c3.8.2 7.5-.7 11.3-.6h9.6q4.3-.3 8.6-.1" class="b"/><path d="M8.8 92h19c1.2.2 2.4-.7 3.5-1a51 51 0 0 1 7-2.2c7.2-1.6 15.7-1.7 21.7 3.3h5.2c.9-.2 1.8-1 2.6-1.3q2-.8 4.3-1.1c7.8-1 16-.5 23.5 1.9 1.6.7 3.5.4 5.2.5h52c1.5 0 3-.8 4.4-1q3-.7 6-1 10-.7 20-.4" class="b"/><path d="M8.8 90h16.5c9-4 23.9-7.4 32-.1h4.4c.9-.3 1.8-1.3 2.6-1.7q2-1.3 4.4-1.8c9.6-2 20.4-1 29.5 2.9 1.5 1 3.5.6 5.2.6H152a51 51 0 0 1 16.5-3.5q7.4-.4 14.7-.1" class="b"/><path d="M8.8 87.8h12.1c2.6-.7 5.2-2 7.8-2.6a43 43 0 0 1 17.4-1.5q3.7.5 7 2.4l1.7 1.3c1.2.7 3 .3 4.3.4 4.4-4.8 11.2-5.7 17.4-5.8 8 0 16.3 1.3 23.4 5.1 1.2 1 3 .7 4.3.7h47q1.6-.6 3.4-1.4a44 44 0 0 1 7-2 90 90 0 0 1 21.6-1.2" class="b"/><path d="M8.8 85.7h8.7a65 65 0 0 1 9.5-3.2c7.9-1.8 19.8-3.1 26 3.1h3.5A24 24 0 0 1 73 79c9.5-.6 19.5.9 27.8 5.9 1.1 1 2.9.7 4.3.8h46.1a62 62 0 0 1 32-5.3" class="b"/><path d="M8.8 83.6c1.7-.1 3.6.3 5.2-.3q5.1-2 10.4-3.3c8-1.9 20.6-3 26.9 3.4 1 .3 2.4.1 3.5.2 5.7-6.7 15.1-7.8 23.4-7.6 8.6.2 17.3 2.5 24.3 7.6h47.7c1.2 0 2.4-1 3.5-1.4 9.2-4.1 19.6-5 29.5-4.4" class="b"/><path d="M8.8 81.4q1.4.1 2.6-.5a111 111 0 0 1 13-4c8.5-1.5 19.4-2 26 4.5H53c.6-.2 1.4-1 1.8-1.5q1.1-1.2 2.6-2A32 32 0 0 1 72 73.4c10.6-.8 22 1.2 30.4 8h48.6l3.5-1.5c9-4 19-5.1 28.6-4.3" class="b"/><path d="M8.8 79.2c11-5.6 31.1-9.5 40.8.1h2.6c1.2-.8 2.2-2.2 3.4-3q5.2-3.5 11.3-4.6a50 50 0 0 1 22.6.8q4.6 1.3 8.7 3.7 1.8 1.2 3.4 2.7 1.3.6 2.6.4H152l2.6-1.1c8.9-4 18.9-5.6 28.6-4.7" class="b"/><path d="M8.8 76.7a47 47 0 0 1 26.9-5.4c4.7.6 9.8 2 13 5.9q1.7.1 3.5-.2c4.3-5.3 11.7-7.1 18.2-8 10.8-1.3 23.2.2 31.2 8.2h6.1q1.3-.2 2.6-.5 2.2-.4 4.4-.2l3.4.7H153c1.5.1 2.9-1 4.3-1.4 8.2-3.5 17.2-5 26-4" class="b"/><path d="M8.8 74.4a40 40 0 0 1 33-3.8q2.2 1 4.3 2.3c.8.6 1.7 1.7 2.6 2.2 4.4.2 3-.6 6-2.8q4.1-2.6 8.8-3.9c11.5-3.3 28.7-3 37.3 6.6h5.2q3.6-2 7.8-1.6c2.7.1 5.3 1 7.8 1.7h33.9q1.4.1 2.6-.5a45 45 0 0 1 25.1-4.4" class="b"/><path d="M8.8 72.5c9-6 20.9-7.8 31.2-4.6q3.9 1.2 7 3.8c.3.5 1.1 1.2 1.7 1.2h3.5c3.7-4.1 9.4-5.8 14.7-7 10.7-2.4 25.4-1.8 33 7q2.2.2 4.3 0c2-1.6 4.6-2.2 7-2.3q5.3-.2 10.4 1.6c2.2 1 4.6.7 7 .7h30.3q1.4.1 2.6-.2a32 32 0 0 1 6-2.5q7.8-2.4 15.7-1.2" class="b"/><path d="M8.8 70.8A35 35 0 0 1 40 66q4.5 1.4 7.8 4.7 1.4.3 2.6.2l2.6-.1c4.2-4 10.2-5.5 15.7-6.7C79 62 91.4 62.7 99 70.8h3.5c6.2-5.2 16.6-2.7 23.4 0H165c.9 0 1.8-.7 2.6-1q1.7-.8 3.5-1.3c3.9-1 8.2-1.4 12.1-.5" class="b"/><path d="M8.8 68.7c1.6.2 3-1.6 4.3-2.2q2.9-1.6 6.1-2.8A32 32 0 0 1 46.1 67c2.4 2 2.1 1.8 5.2 1.8H54q1.3-.8 2.6-1.7a46 46 0 0 1 28.7-4.8c4.4 1 9.2 2.7 12.1 6.3q1.7.3 3.5.2c7-5.6 17.3-3.3 25.1-.7 1.8 1.1 4.1.6 6.1.7h18.2q3-1.3 6.1-1.4c2-.1 4.3.3 6.1 1.3q1.7.1 3.5 0h4.3c1-.3 2.4-1 3.5-1.2 3-.7 6.5-1 9.5.2" class="b"/><path d="M8.8 66.6q1.3 0 2.6-.2a26 26 0 0 1 12.1-5.6A33 33 0 0 1 47 65.5c.4.4 1.1 1 1.7 1h1.7c2 0 4.2.3 6.1-.1q4.6-2.6 9.6-4a35 35 0 0 1 25.1.6q1.9 1 3.5 2.3c.4.4 1.2 1.2 1.7 1.3H99c1-.3 1.8-1.2 2.6-1.6q2.5-1.3 5.3-1.7a36 36 0 0 1 13.8.9c2.4.5 5 .9 7 2.2 2 .4 4 .1 6 .2h14.8q1.2-1 2.6-1.5 4.2-1.8 8.7-1.2c2.5.2 4.8 1.4 7 2.7q5.6 0 11.2-.2 2.6.2 5.2.2" class="b"/><path d="M8.8 64.4h3.4c10-7.8 24.3-7.7 34.8-1q.8.7 1.7 1h8.7a6 6 0 0 0 3.5-.6c7-3 14.8-5.2 22.5-4 3.8.5 7.7 1.7 10.4 4.4q2.2.5 4.4.1c7-5.6 17.2-3.5 25.2-1.7 1 .2 2.4.6 3.4 1.1a4 4 0 0 0 2.6.7H145q1.5.2 2.6-.4a18 18 0 0 1 20-.7c.7.6 1.7 1.3 2.6 1.1h13" class="b"/><path d="M8.8 62.3H14c9.5-7.9 23.8-6.7 33.8-.3q1.3.5 2.6.3h13.1c2.6-.6 5.1-2 7.8-2.5 5-1.3 10.6-1.6 15.6 0l3.5 1.6c.3.3 1.2.8 1.7.9h4.3c6.6-4.6 15.2-4 22.6-2.4 3 .7 6 1 8.7 2.4h18.2c6.6-6.1 17.5-6.3 24.3-.5.4.3 1.3.6 1.8.5h11.2" class="b"/><path d="M8.8 60.2c2.3-.1 4.7.2 7-.2 3.4-2.7 7.7-4.2 12-4.7 7-.6 14 1.3 20 4.7 1.4.4 3 .1 4.4.2h16.5c1.1 0 2.3-.7 3.4-1q3-.7 6.1-.9 3.5-.1 7 .7c.7.2 1.8.6 2.5 1q1.4.3 2.6.2h4.4c1.1-.4 2.3-1.2 3.5-1.6a27 27 0 0 1 8.6-1.6c6.2-.2 12.3 1.6 18.3 3q1.6.3 3.4.2h15.7l1.7-1.2a20 20 0 0 1 26 1.2h11.3" class="b"/><path d="M8.8 58q4.3.2 8.7-.1 2.4-1.7 5.2-2.7A31 31 0 0 1 47 57.6c1.2.8 3 .3 4.3.4H93q1.3-.2 2.6-.8 2.5-.9 5.2-1.3a36 36 0 0 1 16.5 1.2c1.3.4 2.8 1 4.3 1 7.2-.1 14.5.1 21.7-.2a20.6 20.6 0 0 1 27.8-1c.3.4 1.2 1 1.7 1.1h10.4" class="b"/><path d="m8.8 56 10.4-.1c6-4 14-4.5 20.8-2.7q2.7.7 5.2 1.8l1.8.8q1.2.2 2.6.1H92a42 42 0 0 1 19.2-.8c1.4.2 2.9 1 4.3.8h26a22 22 0 0 1 22.6-5.5c3.3 1 6.1 3.3 8.7 5.5h10.4" class="b"/><path d="M8.8 53.8h12.1A25 25 0 0 1 35.7 51c3.6.3 7 1.5 10.4 2.8h37.3q7.5.2 14.8-.4c2.8-.2 5.8.3 8.6.4h30.4q1.4 0 2.6-.3c9.1-9 24.3-9.5 33 .3h10.4" class="b"/><path d="M8.8 51.7h13q1.4 0 2.6-.3a24 24 0 0 1 16.5-.3c.8.2 1.8.7 2.6.6q46.9 0 93.7-.1c7.4-7.2 19.2-10.2 28.7-5.5 11.7 6.4 1.3 5.6 17.3 5.6" class="b"/><path d="M8.8 49.6h122.4c1-.1 2.4.1 3.4-.3l1.8-1.4c11.1-8.8 27.5-9.8 37.3 1.6h9.5" class="b"/><path d="M8.8 47.4h121.5c1.5-.4 2.9-1.8 4.3-2.5 13.3-8.6 28.5-9.5 40 2.5h8.6" class="b"/><path d="M8.8 45.3h26.9c1.4 0 3-.7 4.3-1a37 37 0 0 1 15.6-.1c1.5.2 3 1 4.4 1.1h55.5c3.5 0 7 .3 10.4-.5 5.2-1.7 9.7-4.8 14.8-6.5a31 31 0 0 1 28.6 2.1c8.7 6.2 1.7 4.8 14 5" class="b"/><path d="M8.8 43.2H27c4.3-.9 8.6-2.5 13-3A40 40 0 0 1 59.1 42c1.1.3 2.3 1 3.5 1.2H113c1 0 2.3-.8 3.4-1q3.3-1.2 7-1.6c3.6-.3 7-1.7 10.3-3q5.2-2 10.5-3.3c11-2.7 23.8 0 31.2 8.8h7.8" class="b"/><path d="M8.8 41h12.1q1.4-.3 2.6-.7c10-3.1 20.9-5.7 31.3-2.7a40 40 0 0 1 6 2.2c1.1.4 2.3 1.4 3.5 1.2h42.5c1.5.1 3-1 4.4-1.4q3-1.1 6-2c3.2-.8 6.5-1 9.6-1.5 3.5-.7 7-2 10.4-2.9 13.6-4.3 29-3 39 7.8h7" class="b"/><path d="M8.8 39h8.7q5.1-1.8 10.4-3.5a47 47 0 0 1 23.4-1.7 38 38 0 0 1 11.3 4.4q.8.6 1.7.7H93q5.2.2 10.4-.1a77 77 0 0 1 17.3-5.5q3.5-.4 7-.8c6.3-1.2 12.6-3.3 19-3.7a38 38 0 0 1 30.4 10.1h6.1" class="b"/><path d="M8.8 36.8h7q5.4-2.4 11.2-4.2a45 45 0 0 1 23.4-1.8q7.2 1.6 13 5.9c8.1.3 16.3 0 24.4 0h6.9c1.4 0 3 .3 4.3-.1q4.3-1.8 8.7-3.4 6-2 12.2-3c2.8-.5 5.8-.5 8.6-1 5.2-.8 10.4-2 15.7-2.5 8.2-.8 16.8.2 24.3 3.9q4.7 2.2 8.6 5.8c.7.5 1.9.4 2.6.4h3.5" class="b"/><path d="M8.8 34.7H14c3.7-1.5 7.4-3.3 11.3-4.6a44 44 0 0 1 22.5-2.5q5.6 1.1 10.5 3.7c1.8.9 3.3 2.5 5.2 3.4h30.3c6.6-2.3 13.2-5 20-6.4 5.7-1.5 11.6-1.3 17.4-2.2a68 68 0 0 1 33 .8q5.4 1.8 10.3 5c4.9 3.3 2.5 2.8 8.7 2.8" class="b"/><path d="M8.8 32.5H13l3.5-1.6q5.1-2.3 10.4-4.3c12.4-4.2 25.6-3 35.6 6l26-.1c6.5-1.5 12.7-4 19.1-5.6q6.4-1.8 13-2.5 5.3-.3 10.4-.8c6.4-.7 12.8-1.4 19.1-1 10.2.6 20.4 3.8 28.7 10h4.3" class="b"/><path d="M8.8 30.4h3.4c1.9-.4 3.6-1.6 5.3-2.4q4.6-2.4 9.5-4c11.7-4.3 26-3 34.7 6.4 8.7 0 17.5.5 26-1 9.1-1.8 17.8-5.2 27-6.7 5.4-1 11-.9 16.5-1.3a89 89 0 0 1 30.3 1.5 65 65 0 0 1 17.4 7.3q2.2.4 4.3.2" class="b"/><path d="M8.8 28.3h3.4c1.9-.6 3.6-1.8 5.3-2.6q5-2.8 10.4-4.7c11-3.8 25.2-2.3 33 7.3H66q2.5-.8 5.2-.8c5.5-.2 11-.1 16.5-1 9.3-1.7 18.3-5 27.7-6.2 5.2-.8 10.4-.7 15.6-1 9.3-.4 18.7-.3 27.8 1.7a84 84 0 0 1 20 7c1.3.5 3 .2 4.3.3" class="b"/><path d="M8.8 26.2h3.4c2-.4 3.6-1.9 5.3-2.7a61 61 0 0 1 10.4-5c10.7-3.8 25-2.3 32 7.5q2.2.4 4.4 0a9 9 0 0 1 4.4-1.2c5.4-.4 11 0 16.5-.6 10.2-1.3 20-4.9 30.3-6q7.9-.7 15.7-.6a117 117 0 0 1 40.7 6q3.5 1.1 7 2.6h4.3" class="b"/><path d="M8.8 24H13q1.8-.8 3.5-2 4.5-3 9.5-5c12-5 25.6-3.4 33.9 7h2.6q1-.1 1.7-.8 1.3-.6 2.6-.8c5-.5 9.9 0 14.8-.3 8.5-.3 16.8-3 25.1-4.4a137 137 0 0 1 58.2 3c4 1 8.1 2.4 12.2 3.3h6" class="b"/><path d="M8.8 22h3.4q1.5.1 2.7-.5A58 58 0 0 1 27 14.4c6.6-2.7 14-3.4 20.8-1 4.5 1.5 8.9 4.3 11.3 8.4q1.7.1 3.5.1c2.3-2.1 5.7-2.1 8.7-2h9.5c7.7 0 15.1-2 22.6-3.4q18.1-3.4 36.4-1.3c10.4.9 20.3 4.3 30.4 6.6 1.7.3 3.5 0 5.2.1h7.8" class="b"/><path d="M8.8 19.8H13c.8 0 2 0 2.6-.4Q21 15 27 12.3c10.8-5 25.3-2.8 32.1 7.5h3.5c2.6-2.3 6.3-2 9.5-1.9q5.7.3 11.3.3c9.1-.5 17.9-3.4 27-4.3q14.2-1.7 28.6.3 6.5.9 13 2.8c2.9.7 5.7 2.1 8.6 2.8h22.6" class="b"/></svg>