<svg xmlns="http://www.w3.org/2000/svg" id="a" width="1920" height="2400" viewBox="0 0 192 240"><defs><style>.b{fill:none;stroke:#fff;stroke-miterlimit:10;stroke-width:.3px}</style></defs><path d="M0 0h192v240H0z" style="stroke-width:0"/><path d="M8.5 228.2h54q1-.4 1.7-1.2c11-9.1 27.5-7.1 38.3 1.2h21c1-.2 2.3-1 3.4-1.3q3-.9 6.1-.8 3.7 0 7 1.1l2.6 1h3.5c6 0 12.2.2 18.3-.3q9.5.4 19.1.3" class="b"/><path d="M8.5 226h54c11.2-10.8 29.2-9.3 41 0h21.7c2.3.2 4.6-.4 7-.4q2.6.2 5.2.5h46.2" class="b"/><path d="M8.5 224q27-.1 54-.2c10-9.7 27-10 38.3-2.2 1.1.6 2.2 1.9 3.5 2.3h79.3" class="b"/><path d="M8.5 221.8H39q3-.5 6-.6 3.1 0 6.1.6h11.4a31.5 31.5 0 0 1 41.8 0h79.3" class="b"/><path d="M8.5 219.6h24.3c2 .1 4.1-.6 6.1-.7q4.4-.7 8.8-.1 2.1.3 4.3.8h10.5c1.5-.5 2.8-2.2 4.3-3q4.1-2.6 8.7-3.8a32 32 0 0 1 26.2 4.3c1.1.7 2.2 2 3.4 2.5H160a27 27 0 0 1 14 0h9.5" class="b"/><path d="M8.5 217.5h20.9c1.4 0 3-.6 4.3-.8a43 43 0 0 1 14.8-.2c1.5.2 3 1 4.4 1h10.4c12.4-10 29.9-11.3 41.9 0h18.2c3.5-.8 7-1.6 10.5-1.5q3 0 6.1.6c1.1.2 2.3.9 3.5 1h7l6-.1q4.7-2 9.6-1.9 5 0 9.6 2h7.8" class="b"/><path d="M8.5 215.4h19.1a40 40 0 0 1 25.3 0h11.3c.5-.2 1.4-.8 1.7-1.2 11.5-8.6 28.7-9.6 39.2 1 2 .4 4.2 0 6.1.2h10.5c4.7-1.8 9.8-3 14.8-2.5q4.6.3 8.7 2.4 4.4 0 8.7 0c.5.2 1.4-.1 1.8-.4q1.6-.8 3.4-1.3 6.6-1.6 13.1.2 2.3.7 4.4 1.6h7" class="b"/><path d="M8.5 213.2H25c1.2 0 2.4-.7 3.5-1q3.3-1 7-1.3 6.6-.6 13 1c1.7.4 3.5 1.4 5.3 1.3H65q1-.2 1.7-.9a41 41 0 0 1 11.3-5.6c9-2.7 19.2-1 26.2 5.3.3.4 1.2 1 1.7 1.2h11.3q2.2.2 4.4-.1a13 13 0 0 1 3.5-1.6q5.1-1.6 10.4-1.5 3.7 0 7 1.2c1.5.4 3 1.4 4.4 2h7a22 22 0 0 1 17.4-2q2.6.9 5.2 2h7" class="b"/><path d="M8.5 211.1H24a35 35 0 0 1 25.3-1.1c1.1.3 2.3 1 3.5 1.1h14c12.1-9 27.5-11.4 39.1 0h14.8q6.5-3.6 14-3.7 5-.2 9.5 1.7 1.8 1 3.5 2h4.4q1.5 0 2.6-.9l2.6-1.1c4.2-1.4 8.8-1.3 13-.2q2.8.8 5.3 2 4 .3 7.9.2" class="b"/><path d="M8.5 209h14.8q3.7-2 7.8-2.7a35 35 0 0 1 18.3 1.6c1.1.3 2.3 1 3.5 1q7.9.1 15.7 0c10.7-8.6 25.9-10.9 36.6-1 .9 1.2 2 1 3.4 1h9.6c1.1 0 2.5.3 3.5-.4 7.1-4.3 19.4-5.3 26.1 0 1.3.8 3 .3 4.4.4 1.3.3 2.4-.9 3.5-1.4 6-2.6 13.4-1.7 19.2 1.3 2.8.3 5.8 0 8.7.1" class="b"/><path d="M8.5 206.8h13.9q3-1.5 6-2.3a33 33 0 0 1 21 1.4q1.3.4 2.6 1h15.7q1.4.1 2.6-.4c11.6-9 25.5-10 36.6.3h14c1.1-.3 2.2-1.3 3.4-1.7q3-1.3 6.1-1.9c6.2-1.1 13.4-.7 18.3 3.6h4.4c.8-.2 1.8-1 2.6-1.3q1.6-.7 3.4-1c5-1 10.3.1 14.9 2.4h9.5" class="b"/><path d="M8.5 204.7h13c1.2-.2 2.4-1 3.5-1.4q2.6-1 5.2-1.6a33 33 0 0 1 19.2 2.1l1.7.7q1.4.3 2.6.2h11.4c2 0 4.1.2 6-.2 10.6-8.8 25.8-10.4 35.8.1q7.5.1 14.8 0c7-4.6 19-5.8 26.1-1 .4.4 1.3 1 1.8 1.1h1.7c1.2 0 2.6.2 3.5-.6 4-2.2 8.8-2.2 13-1.1q1.9.5 3.6 1.2a3 3 0 0 0 1.7.5h10.5" class="b"/><path d="M8.5 202.6h13c1.8-.5 3.5-1.6 5.3-2q5-1.8 10.4-1.6a35 35 0 0 1 14 3.5h18.2c.8 0 2 .1 2.6-.2 7.6-6.5 18.6-9.5 28-5.1q2.7 1.3 5.2 3.2c.7.6 1.7 1.7 2.6 2.2h13.9c1.2-.3 2.3-1.3 3.5-1.7q3.8-1.5 7.8-2.1c6.1-.8 11.5.2 16.6 3.8 1.7-.2 3.6.3 5.2-.3a15 15 0 0 1 7.8-1.7q4.2.2 7.9 2h13" class="b"/><path d="M8.5 200.4h13.9q4.2-2 8.7-2.9a32 32 0 0 1 17.4 1.7q1.8.8 3.5 1.2h20c10.4-9.2 25.8-10.7 35.8 0q7.4.1 14.8 0c3-1.3 6.2-2.8 9.6-3.3q6.2-1.1 12.2.7 1.8.6 3.4 1.7 1.1 1 2.6 1h4.4q2.9-1.5 6.1-1.5c2.7-.1 5.3.7 7.8 1.4h14.9" class="b"/><path d="M8.5 198.3H24c1.2-.2 2.4-1 3.5-1.4q3-1 6.1-1.5 6.7-.7 13 1c2.1.4 4.2 1.3 6.2 1.9h13q3.1.2 6.1-.2c11.3-9.7 25.7-10.6 36.6.2h14.8c1.2 0 2.4-1 3.5-1.4q2.2-.8 4.4-1.3c5.8-1.3 12.4-.8 17.4 2.7h7q2-.8 4.3-.8 3.1-.1 6.1.8H181l2.6-.6" class="b"/><path d="M8.5 196.2h20q3.3-1.8 7-2.4 5.2-.8 10.4 0c3.3.3 6.4 1.5 9.6 2.4h15.7c4-3.3 8.7-6.2 14-7.4a24 24 0 0 1 23.4 7.3q8.2.2 16.6 0c2.3-.7 4.5-1.9 7-2.3 5.2-1 11-.6 15.6 2.4h28.8c.8-.2 1.8-.8 2.6-1q2.2-.6 4.4-.8" class="b"/><path d="M8.5 191.6c2.5 0 5.2.4 7.8.4q5.8.1 11.3 2h3.5q1.9.3 3.5-.7c5-2.5 11-2.4 16.5-1.4q2.3.5 4.4 1.2 1.6.8 3.5 1h7.8c1.8-.2 4 .4 5.2-1.1 10.8-8.8 26.9-10 36.6 1q6.6.2 13.1 0h6.1a23 23 0 0 1 18.3-.4q1.2.6 2.6.4H174q2-1 4.3-2 2.6-.6 5.3-.8" class="b"/><path d="M8.5 187c6 .3 12.3.2 18.3 1.7 2.1.6 4.4 1.4 6 3 1 .4 2.4.2 3.5.2 6.5-5 16.7-3.5 23.6 0h10.4c11.3-9.6 27.6-11.3 38.3 0h21c1.4 0 2.9-.7 4.3-1a22 22 0 0 1 11.3 1h24.4q1.4 0 2.6-.2 1.7-1.1 3.5-1.9a21 21 0 0 1 7.9-1.5" class="b"/><path d="M8.5 182.9c8.1.3 21.3-.1 27 6.6a6 6 0 0 0 2.6.2c3.4-3.8 9.2-4 14-3.4q3 .6 6 1.8c1.1.4 2.3 1.3 3.5 1.7h6q1.5 0 2.7-.2l1.7-1.4c10.6-7.7 26.5-8.6 35.8 1.6h61.8c1.5-.6 2.9-1.7 4.4-2.3q4.6-2 9.6-2" class="b"/><path d="M8.5 179c7.3.2 14.9.5 21.7 3.4a19 19 0 0 1 4.4 2.6c.9.7 1.7 2 2.6 2.6q1 .1 1.7-.3c5-6 16.9-4.1 22.7-.1q.8.5 1.7.4h3.5c1.1 0 2.4.2 3.5-.2l1.7-1.3c9.9-6.7 25.4-8 34 1.3 2 .5 4.1.1 6.1.2q3.3-1.3 7-.9c1.7.2 3.4 1.1 5.2 1H168c1.8-.6 3.4-2 5.2-2.5q5-2.2 10.4-2.2" class="b"/><path d="M8.5 175.4c9 .3 23.8 1.3 28.7 10h1.7c4.2-5.5 12.4-5 18.3-3 2.2.6 4.1 2 6.1 3q3.5.1 7 0c9.3-7.1 25.2-8.6 34 0 1.7 0 3.6.3 5.2-.1q1.2-.8 2.6-1.3c4.6-1.6 9.6-.9 14 .9 1.6.8 3.5.6 5.2.6H167c1.8-.5 3.5-1.8 5.2-2.5 3.6-1.4 7.5-2.5 11.4-2.3" class="b"/><path d="M8.5 172.1c9.2.4 23.8 2.2 28.7 11l1.7.3c5.4-7.2 18.2-5 24.4-.2 2.3.4 4.7 0 7 .2 1.2-.4 2.3-1.4 3.5-1.8 6.7-3.1 14.7-4 21.8-1.5q1.8.6 3.4 1.7c.8.4 1.7 1.5 2.7 1.6h4.3c7-5.3 16.6-3.6 24.4-1.2q2.2.8 4.4 1.2H167q1-.2 1.7-.8l3.5-1.7c3.6-1.4 7.5-2.5 11.3-2.3" class="b"/><path d="M8.5 169c9.6.5 23.6 3 28.7 12.2h1.7c5.4-7 18-5 24.4-.4 1 .7 2.4.4 3.5.4H72c7.1-3.8 17.5-4.4 24.4 0h5.3c1 .1 1.8-.8 2.6-1.2q2-1.1 4.3-1.8c9.2-2.8 17.1-.5 26.2 1 6.3 1 12.8 1.2 19.1 1.9 4.6.4 9.3 0 14 .1q1-.1 1.7-.7a28 28 0 0 1 14-4" class="b"/><path d="M8.5 166.4a44 44 0 0 1 23.5 7.3q2 1.5 3.4 3.4c.3.5 1.2 1.7 1.8 2h1.7c5.7-7.1 18.6-4.4 25.3 0h10.4q4-1 7.9-.8 2.7 0 5.2.8h9.6q1.3-.4 2.6-1.2 2.5-1.2 5.2-2a51 51 0 0 1 17.5-1.7q7.3.8 14.8 1.5c5.5.4 11 .5 16.5 1.2q5 .3 9.6 2.2l7-.1c3.6-2.6 8.6-4.3 13-4.3" class="b"/><path d="M8.5 164.1c5-.2 10 1.2 14.8 3a28 28 0 0 1 13 9.9H39c4.4-4.8 11.7-4.3 17.5-3q2.6.6 5.2 1.7c1.1.4 2.3 1.4 3.5 1.3h26.1c1.2-.2 2.4-.9 3.5-1.2l6-1.9q12.1-3.2 24.5-2.2c9.5.8 19.2.5 28.7 1.4q4.9.4 9.6 1.8 1.8.6 3.5 1.4l.9.6h.8c1.4 0 3 .3 4.4-.2l1.7-1.2c2.7-1.3 5.7-2.5 8.7-2.4" class="b"/><path d="M8.5 162c4.7-.3 9.5 1.2 13.9 3q5.3 2.2 9.6 6c1.2 1 2.3 2.7 3.4 3.8H39c6.2-4.8 14.9-3.1 21.8-1l2.6.9q1.3.2 2.6.1h18.3q2.6-.6 5.2-1.3c8.9-2.1 18-3.8 27-4.3 5.6-.4 11.1.2 16.6 0 10.8.2 29.7-1 38.3 5.6 1.4 0 3.1.3 4.4-.3 2.2-1.6 5-3 7.8-3" class="b"/><path d="M8.5 159.8A37 37 0 0 1 32 170.2c.8.7 1.4 2.2 2.6 2.5H38q1.4.1 2.6-.6 4.2-1.6 8.7-1.3 4 .1 7.8 1c1.7.2 3.5.9 5.3.9h14.8l3.5-.7a356 356 0 0 1 34.8-5c5.2-.4 10.5 0 15.7-.2 12.4-.5 32.6-2.2 42.7 5.9h3.5c1.8-1.1 3.8-2.5 6-2.6" class="b"/><path d="M8.5 158a38 38 0 0 1 24.3 12.5q7 0 14-.2c8 .5 16.3.2 24.4.2q2.2 0 4.3-.5l6.1-1q9.2-1 18.3-2 8.7-1.2 17.4-2c4.7-.4 9.4-.1 14-.5 10.1-.8 20.4-1.8 30.5.2 5 1 10 2.5 14 5.8h3.4a4 4 0 0 0 1.7-.8q1.3-.7 2.6-.9" class="b"/><path d="M8.5 156.6c8.3 1 16.2 5.4 21.7 11.7 4.6.3 9.3 0 14 .1h24.4c3.2.2 6.3-1 9.5-1.2 4.7-.5 9.4-.4 14-.6 6.4-.2 12.8-1.5 19.2-2.5q7.2-1.1 14.8-1.2c11.3-.8 22.6-3.1 34-1.2 5.8 1 12 2.6 16.5 6.6q2.2.2 4.4.1c.8 0 1.8-.6 2.6-.7" class="b"/><path d="M8.5 155.4a33 33 0 0 1 19.1 10.7c1.7.4 3.5.1 5.3.2h35.7q2.6 0 5.2-.6 2.6-.3 5.2-.3c4.4-.2 8.7 1 13.1 1q3.5-.1 7-.2l8.7-2.4q8.2-2.2 16.5-2.4c7.6-.4 15-2.3 22.7-2.7a46 46 0 0 1 30.5 7.6h6" class="b"/><path d="M8.5 154.6c7 1.4 11.5 4.6 16.5 9.6h16.6c2.5-.9 5-1.8 7.8-1.8a18 18 0 0 1 7.8 1.8h2.6q8 .1 15.7-.2c5.8.3 11.7.1 17.4.2h14.9l1.7-1c6.5-3.3 14-2.7 20.9-4 12.7-2.3 25-4.8 37.5-.1q3.2 1.1 6 2.8c1.2.7 2.3 1.8 3.5 2.3h6.1" class="b"/><path d="M8.5 154q7.7 2 13 8h14.8c1-.1 1.9-.9 2.6-1.3a19 19 0 0 1 17.5 0q1.2.8 2.6 1.3h25.2c.6 0 1.4-.6 1.8-.9q1.6-1 3.5-1.8c4.1-1.5 9-1.6 13 .1q1.9.8 3.5 2.1 1.2.7 2.6.5h3.5c.5 0 1.4-.4 1.7-.7q1.7-.8 3.5-1.3c3.1-.9 6.4-.9 9.6-1.3 6.7-1 13.3-3.2 20-4 10.3-1.2 21.4.9 29.7 7.3h7" class="b"/><path d="M8.5 154q2.7 1 5.2 2.4 2.3 1.5 4.3 3.5H33c7.6-6.4 18.4-6 26 0H79c1.5.3 2.5-1 3.5-1.8q2.5-1.9 5.2-3c7.7-3 17-1.3 22.7 4.8l7-.1 2.6-.9c3.1-.7 6.4-.7 9.6-1.5 12.7-3.3 23.3-7.4 36.5-2.7q5.2 2 9.6 5.2h7.9" class="b"/><path d="m8.5 154.4 3.4 2c.8.4 1.7 1.4 2.6 1.4h14.9c8.8-8.2 20.6-7.5 29.6 0h18.3a24 24 0 0 1 27.9-5.8q2.7 1.3 5.2 3.4c.8.7 1.6 1.9 2.6 2.4h10.4q4.1 0 7.9-1.3c5.5-1.7 10.8-4 16.5-5 9-1.6 19 .4 26.2 6.2q4.7.2 9.6 0" class="b"/><path d="M8.5 155.4c1.9.5 4 .1 6 .2H26c1.2-.7 2.3-2 3.5-2.8q2.4-1.6 5.2-2.7c8-3 17.5-.6 23.5 5.3 2 .5 4.1.1 6.1.2h10.5c.9-.5 1.8-1.6 2.6-2.2q2.4-2.3 5.2-3.8a25 25 0 0 1 30.5 4.6q1 1.5 2.6 1.4h16.6q1.3.1 2.6-.3c10.4-5.1 21-8.3 32.2-3q2.8 1.3 5.2 3.1c1.4.4 3 .2 4.4.2h7" class="b"/><path d="M8.5 153.5h13q1.6.1 2.6-1.2a23 23 0 0 1 31.4-.9c.8.7 1.6 1.7 2.6 2h14.8c8.8-9.1 21.2-13.5 33.1-7.4q3.3 1.6 6.1 4.2c1.2 1 2.2 2.5 3.5 3.3H139c1.2-.4 2.4-1.4 3.5-1.9q3-1.5 6-2.4a26 26 0 0 1 20.1 3l1.8 1.1c1.3.3 3 .1 4.3.2h8.7" class="b"/><path d="M8.5 151.4h11.3c7.4-7.1 17-10.8 27-7q3.8 1.3 7 4c1.1.8 2.2 2.2 3.4 3h14c1.8-1.4 3.4-3.2 5.2-4.5q4.4-3.4 9.6-5.2a27 27 0 0 1 29.6 9.5c8.7.3 17.5 0 26.2.1h1.7c.5-.1 1.3-.7 1.7-1a21.9 21.9 0 0 1 23.5 1h14.9" class="b"/><path d="M8.5 149.2h8.7c8-7.5 19-11.6 29.6-7q3.4 1.5 6 3.8c1.3 1 2.3 2.4 3.6 3.2H65q2.6.2 5.2-.1a36 36 0 0 1 20-11 28 28 0 0 1 25.3 11c3.7.3 7.6 0 11.3.1q5.3.2 10.5-.2 5.2.4 10.4.2c4-2.8 9.3-3.3 14-2q1.8.4 3.4 1.2 1.3 1 2.7.8h15.6" class="b"/><path d="M8.5 147h3.4c.8 0 2 .2 2.6-.2q4.5-3.7 9.6-6.3c11.3-5.4 23.3-3 31.4 6.6 4.6-.1 9.3.2 14-.2a38 38 0 0 1 19-10.9 27 27 0 0 1 25.4 9.6c.3.5 1 1.4 1.7 1.5H132q3-1.2 6.1-1.5 2.6-.2 5.3.6l2.6.9h6.9q3-1 6.1-.9c1.5.1 3 .7 4.4.9h20" class="b"/><path d="M8.5 145q1.4 0 2.6-.8l3.4-2.2q5-3.2 10.5-5.3c10.4-4 23-1.2 29.6 8.2q5.7.1 11.3 0h2.6c1.4-.5 2.4-2 3.5-2.8q3.3-2.7 7-4.8a26 26 0 0 1 34.9 7.7h16.5c1.2 0 2.3-1.1 3.5-1.4a18 18 0 0 1 13 0c1.2.4 2.3 1.4 3.5 1.4h31.4l1.7-1.3" class="b"/><path d="M8.5 140.7c6.7-3.3 13.4-7.1 20.9-8.2 7-1.1 14.4.5 20 5q1.9 1.5 3.5 3.4c.3.6 1.2 1.6 1.7 2l14.8-.1c11.8-13 32-15.7 42.7 0h18.3c4.6-3.6 11.1-4 16.6-2.3 1 .3 2.4.8 3.4 1.3q1.6 1.1 3.5 1h26.2q1.7-1.2 3.5-2.4" class="b"/><path d="M8.5 136.1c6.8-2.6 13.5-5.8 20.9-6.5 9.2-1 19.7 2.6 24.4 11q3.4.1 7 0 4.6.2 9.5 0c7.5-9 21.6-13.4 32.2-7.2q3 1.6 5.3 4.2c.8.9 1.5 2.5 2.6 3 1 0 2.4.2 3.4 0a7 7 0 0 1 4.4-1.2q2.3.3 4.4 1.3h7c5.3-4 12-4.6 18.2-2.6q2.3.7 4.4 1.8c.7.4 1.7 1 2.6.8h23.5c1.8-1 3.4-2.5 5.3-3.5" class="b"/><path d="M8.5 132c6.8-2 13.7-4.8 20.9-5.2 9.9-.7 19 3.1 24.4 11.7h2.6c.8-.2 1.7-1 2.6-1.2q3.1-1 6 .4c.8.4 1.8 1 2.7.8h3.5c.6 0 1.4-.9 1.7-1.4 9-10.1 27.7-11.3 34.8 1.4h2.7c3.3-3.1 8.4-3 12.2-.7q1 .9 2.6.7h3.4q1-.1 1.8-1l1.7-1c3.7-2 8.2-2.2 12.2-1.5q3.1.6 6.1 2c1.2.4 2.3 1.3 3.5 1.5h22.7c2.3-1.3 4.5-3.1 7-4.3" class="b"/><path d="M8.5 128.3c7.4-1.8 14.9-4.3 22.6-4.2 6.6.1 13.4 2.3 18.3 6.9q1.5 1.4 2.6 3.1a6 6 0 0 0 1.7 2.3h1.8c3-3.2 7.4-3.6 11.3-2 1.2.5 2.4 1.5 3.5 2q1.7.1 3.5-.2c6.8-10 25-11.3 31.3-.1q1.3.4 2.6.3c3-3.4 8.2-4 12.2-2.4 1.6.5 3 1.7 4.4 2.4h4.4c4.6-4.3 11.6-4.5 17.4-2.7q2.2.6 4.3 1.8l1.8 1h1.7l21-.1q4.2-2.7 8.6-5" class="b"/><path d="M8.5 124.8c7.2-1.3 14.4-3.3 21.7-3.1 8.8.1 18.8 3.7 22.7 12l.8.6h1c1.1-.8 2-2.3 3.4-2.9 3.5-1.8 7.8-1.2 11.3.2q2 .9 3.5 2.4 1.3.4 2.6.3c.6-.3 1.4-1.3 1.8-1.8q1.2-1.3 2.6-2.2c4.5-3 10.5-3.7 15.7-2q2.9 1 5.2 3.2c.9.8 1.5 2.3 2.6 2.8h1.7c3.9-4 10-4.6 14.9-2.4 4.6 2.2 2 2.5 7.8 2.4 4.5-3.9 11-4.2 16.5-2.4a24 24 0 0 1 5.3 2.4h1.7c7-.1 14 .2 21-.1 3.8-1.5 7.4-3.8 11.2-5.4" class="b"/><path d="M8.5 121.7c7.7-1 15.6-2.9 23.5-2.2 8.1.7 17.4 4.2 20.9 12.1q.8.7 1.7.5c2.4-4 7-5.3 11.3-4.8 3.9.4 8 1.7 10.5 4.8q1.4.2 2.6-.3c4.7-6.6 16.3-6.6 21 0 1 .5 2.4.6 3.4-.1q1.6-1.5 3.5-2.3c5.1-2 11.6-1.2 15.7 2.7h4.3c3.8-3.3 9.4-3.4 14-2.2q2.2.7 4.3 2 1.3.3 2.6.2c8.2 0 16.4.5 24.4-1.2 4-1 7.6-3.1 11.4-4.5" class="b"/><path d="M8.5 118.8c10-.8 20.5-3.1 30.4-.2a25 25 0 0 1 11.4 6.6c.5.5 1.3 1.7 1.7 2.3.3.7 1 2.2 1.7 2.5h1c2.6-5.4 9.4-6.3 14.7-5.3q6.1 1 10.5 5.3 1.3 0 2.6-.2c2.7-3.1 7.6-3.6 11.3-2 1.3.5 2.3 1.7 3.5 2.2 1.5 0 3.3.4 4.4-1a17 17 0 0 1 14.8-1.8 12 12 0 0 1 4.3 2.6q1.4.3 2.6.2c1.3.2 2.4-.8 3.5-1.4q2.9-1.3 6.1-1.2 2.7.1 5.3 1c1.1.4 2.2 1.5 3.4 1.6h7a27 27 0 0 1 7.8-1.7c5.8-.6 11.8.7 17.5-.7 3.2-.8 6.3-2.4 9.5-3.5" class="b"/><path d="M8.5 116.2c7.8-.3 15.6-1.5 23.5-.8 6.2.6 12.6 2.5 17.4 6.7 1.9 1.5 3 4 4.4 5.8h.8c2.7-4.6 7.1-6.3 12.2-6.2 6 .2 12.1 2 16.6 6.2h14c.8 0 1.7-.8 2.5-1.2q1.7-.8 3.5-1.3c5.2-1.5 11.4-1.2 15.7 2.5q1.7.1 3.5-.2 1.5-1.5 3.4-2 4.5-1.2 8.7.6 1.4.7 2.7 1.6h1.7q1.3 0 2.6-.2 1.6-1 3.5-1.8 4.7-1.4 9.6-1.5c7-.4 14 2 20.9.3 2.6-.7 5.2-1.9 7.8-2.6" class="b"/><path d="M8.5 113.8c10.4 0 21.1-1.7 31.3 1.3 5.7 1.6 11.6 4.9 14 10.6h.8c.7-.2 1.5-1.3 1.8-2a11 11 0 0 1 3.5-2.7c8.2-4 17.7-.6 25.2 3.4l2.6 1.3h7c6.9-2.3 15.4-4.8 21.8 0h3.4c3.9-4.3 11-4 14.9 0h2.6c2.9-3 7.2-4.1 11.3-4.6 6.7-1 13.4.5 20 1.5 5.8 1 9.6-.8 14.9-2.4" class="b"/><path d="M8.5 111.6c13 .8 27.3-2 39.2 5Q50 118 52 120c.9 1 1.5 2.8 2.6 3.5h.9c3.6-5.8 10.1-7.3 16.5-6.4 4.9.6 9.5 2.5 14 4.3q4.6 2 9.6 1.3c4.3-.6 8.7-1.6 13-.9q2.3.4 4.4 1.5 1.2.3 2.6.2t2.6-.2c3.6-4.5 11.4-4.8 14.8 0l1.8.2 1.7-1.6a14 14 0 0 1 3.5-2.3 37 37 0 0 1 22.6-.8c10.3 2.4 10.8 2.9 21-.3" class="b"/><path d="M8.5 109.7c11 1.2 22.3-.4 33 2.5 5.2 1.5 10.8 4.1 13.1 9.2h1.8c3.6-5.8 11-7.2 17.4-6.1 4.8.7 9.4 2.8 14 4.4 6.7 2.7 14-.4 20.8 1.6 2 .3 4.2.1 6.1.2 1.5.3 2.5-1.2 3.5-2 4.2-3.2 11.2-3 14 2l1.7-.1c4.8-8 18.1-7.7 26.1-5.7 5.8 1.1 11.5 4.5 17.5 3.1 2-.4 4-1.3 6-1.7" class="b"/><path d="M8.5 108q7.3 1 14.8 1c10.5.4 26 .2 32.2 10.3h1.7c1-.6 1.8-2 2.6-2.7q3.4-2.8 7.9-3.3c7.3-1 14.2 2.4 20.9 4.9q2.2.7 4.3 1.1h14.9c2.2 0 4.7.3 7-.2l2.5-2c4.4-3 11.3-3 14 2.1h1.7c5-8.9 19.5-8.4 27.9-5.7q4 1.3 7.8 3c2.8 1 5.8 1.9 8.8 1.1 2-.4 4-1.4 6-1.7" class="b"/><path d="M8.5 106.5q8.2 1.5 16.5 1.7c10.1.4 24.9-.2 31.4 9H59c3.2-4.7 9.4-6.2 14.8-5.4 4.9.6 9.5 2.7 14 4.7q1.2.6 2.5.7H113c1-.3 2-1.2 2.7-1.7 4.5-3.1 11.7-4 14.8 1.4.4.2 1.3.4 1.7.3 5.4-9.5 19.8-9.1 28.8-5.7q4 1.5 7.8 3.5c2.4 1.3 5 2.6 7.9 2.1 2.4-.4 4.6-1.8 7-2.2" class="b"/><path d="M8.5 105.2a80 80 0 0 0 18.3 2.4c9.5.4 23.8-.8 30.4 7.3q1.8.2 3.5.2c4.3-5.2 11.4-5.7 17.4-3.7 3 .8 5.9 2.5 8.7 3.7H106c2.3-.1 4.7.1 7-.2 4.6-3.5 12.8-6.1 16.5-.1q.9.3 1.8.3c6.1-9.4 19.2-9.7 28.7-5.9q3.7 1.5 7 3.7c1.1.6 2.2 2 3.5 2.2h10.4q1.4-.5 2.6-.8" class="b"/><path d="M8.5 104.2q11 3.5 22.6 3c7.6 0 15.5-.7 22.6 2.3q1.9.8 3.5 2.1L59 113c6 .3 3.2-.5 7.8-2.6 3.9-1.7 8.4-1 12.2.4l3.5 1.6q1.2.8 2.6.6h26.1c.9 0 2 .2 2.7-.4 4.3-2.8 11.4-4.7 14.8.4q1.3.2 2.6-.3c2.1-3.8 6.3-6 10.4-7 8.1-2 17 .2 23.5 5.3.8.6 1.7 1.7 2.7 2h15.6" class="b"/><path d="M8.5 103.4c5.8 2.1 12 3.8 18.3 4 10.7.4 24-4.2 33 3.4h5.3c1 0 1.8-.9 2.6-1.3q2.5-1.1 5.2-1 3.2.3 6.1 1.6c1.3.9 3 .8 4.4.7h30.4c1.3.1 2.4-.9 3.6-1.2 2.1-.8 4.7-1.3 7-.6 1.2.2 2.2 1.5 3.4 1.8h2.6c7.9-11 26.7-10 34.9 0h3.5a7 7 0 0 1 3.4-.9c1.5 0 3 .6 4.4 1h7" class="b"/><path d="M8.5 102.8a42 42 0 0 0 27.8 4.3c5.7-1.1 11.6-2.3 17.5-1.4a19 19 0 0 1 7 2.7q1.2.4 2.5.3h6.1q1.7-.6 3.5-.6c1.1 0 2.4.5 3.5.6h41.8q1.7-.7 3.5-.7 1.8.1 3.5.7c1.7-.1 3.6.3 5.2-.3 5.8-7.5 16.9-9 25.3-5.4a19 19 0 0 1 5.2 3.2c1.8 1.6 1.5 2.8 4.4 2.5 3.4-3 8.5-2.3 12.2-.2q3 .3 6 .2" class="b"/><path d="M8.5 102.4c9.8 5 6.6 4.1 17.4 4.1h10.4c2 0 4.2.4 6.1-.5 4.7-1.5 10-2.4 14.8-1.3q2.3.6 4.4 1.7c2 .3 4.1 0 6 .1h61.9c1.3-.7 2.3-2 3.5-2.9q3.1-2.2 7-3.3c7.3-2 16.2-.1 20.9 6.2h1.7c4-4.6 11.3-3 15.7 0h5.2" class="b"/><path d="M8.5 102.2c4.2 2.5 2.8 2.2 7.8 2.2h30.5q1.8 0 3.5-.7l3.4-.5q2.7-.2 5.3.4c1 .2 2.3 1 3.5.8h67c1.2-.7 2.4-1.9 3.5-2.6a22 22 0 0 1 7-3c6.4-1.5 14.4-.3 18.3 5.6q1 0 1.7-.3l1.8-1.7c3.3-2.1 7.6-2 11.3-.8l3.5 1.6c.7.4 1.6 1.3 2.6 1.2h4.3" class="b"/><path d="M8.5 102.1c3.7.4 7.5 0 11.3.2h107.1c1.5 0 3.3.3 4.4-1 6.9-5.2 18.7-6.7 24.4 1h.9c1.1-.9 2.1-2.3 3.4-2.9 4-2 9-1.7 13.1-.1q1.7.6 3.5 1.7c.8.4 1.6 1.3 2.6 1.3h4.4" class="b"/><path d="M8.5 100.1H25c3.5 0 7 .3 10.5-.3q3.8-.4 7.8.3H85c1.7 0 3.5-.4 5.2-.3q4.5.5 8.8.3h30.4c1.7.3 3-1 4.4-1.7 5.6-2.9 14.1-3.9 18.3 1.7q1 0 1.7-.2c2-2.9 5.5-4.1 8.7-4.5 5.6-.6 11.3 1.3 15.7 4.7h5.3" class="b"/><path d="M8.5 98H32q3.8-1.2 7.8-1.4c3.3-.2 6.5.6 9.6 1.4h34c1.1.1 2.3-.4 3.4-.6a27 27 0 0 1 5.3-.4c2.6 0 5.3.6 7.8 1h34.9c.8 0 1.8-.5 2.6-.7q2.2-.6 4.3-.6 1.9.2 3.5 1 1.4.5 2.6.3c.6-.1 1.4-.8 1.8-1.2q2-1.6 4.3-2.7a24 24 0 0 1 19.2.8c6.2 3.2 2.6 3.2 10.5 3.1" class="b"/><path d="M8.5 95.9H31c.9.1 1.8-.4 2.6-.7a27 27 0 0 1 13-1.3q2.7.3 5.3 1.1c1.1.3 2.3 1 3.5.9H85q2.6-.9 5.2-1.2 5.3-.7 10.5-.1 10 1 20 .8c5.8 0 11.7 0 17.4-1.1 5-1.2 9.8-3.2 14.9-4.1a29 29 0 0 1 24.3 5.7h6.1" class="b"/><path d="M8.5 93.7H32q3.7-1.7 7.8-2.5 5.7-1 11.3 0c3.6.5 7 1.9 10.5 2.5h26.1a42 42 0 0 1 9.6-2.1c9.3-1 18.6-1 27.9-1.6 14.4-.9 29.4-6.9 43.6-1.2q2.7 1.1 5.2 2.7c1.1.6 2.1 2 3.5 2.2h6" class="b"/><path d="M8.5 91.6H32c.9 0 1.8-.7 2.6-1q2.5-1.2 5.2-1.8a35 35 0 0 1 11.3-.7c4.7.5 9.4 1.7 14 2.6l5.2 1h20c2-.7 4-1.8 6.1-2.3a89 89 0 0 1 13.1-2.5c7.2-1 14.6-1.1 21.8-2.2 11-1.4 22.4-3 33.1.3q6.3 2 11.3 6.3c1 .5 2.4.3 3.5.3h4.4" class="b"/><path d="M8.5 89.5H32c1.2.2 2.4-.8 3.4-1.3q2.6-1.2 5.3-2 5.5-1.4 11.3-1c5.6.4 11 1.6 16.6 2.5q5.2.6 10.4 1 2.6.3 5.2.8H93c1.5-.7 3-1.8 4.4-2.4A54 54 0 0 1 107 84c6.8-1.7 14-2.2 20.9-3 8.6-1.1 17.4-2 26.1-1 6.9 1 13.7 3.3 19.2 7.5.8.6 1.7 1.6 2.6 2h7.9" class="b"/><path d="M8.5 87.3H31c1.1 0 2.5.3 3.5-.3q2-1.5 4.3-2.3 6.4-2.3 13.1-2.1c8.5 0 16.8 2.5 25.3 2.4q4.9 0 9.5 1.2c.8.2 2 .6 2.7 1 1.6.3 3.5 0 5.2.1 1.2-.4 2.3-1.7 3.5-2.3 9.4-5.7 20.7-6.7 31.3-8 15.8-2 33-.9 45.3 10.3h8.7" class="b"/><path d="M8.5 85.2h26q1.9-1 3.6-2 3-1.3 6-2.1a48 48 0 0 1 15.8-.8c5.2.5 10.4 1.6 15.6 1.5 5.8.3 12.6-.3 17.5 3.4h3.4q1.8-1.7 3.5-3 3.7-2.5 7.9-4c6.9-2.7 14.4-3.7 21.7-4.5 15.5-2 32.8.2 44.5 11.5h9.5" class="b"/><path d="M8.5 83h26.9c1-.2 1.9-1 2.7-1.4q2.5-1.5 5.2-2.2a42 42 0 0 1 14-1.7c4.6 0 9.2 1 13.9 1.3 4.9.3 9.9 0 14.8.5q3.7.3 7 2l1.7 1.2q1.7.7 3.5.2a25 25 0 0 1 11.3-7.8 72 72 0 0 1 21-4.5c15-1.6 31.7 1.3 42.6 12.5h10.5" class="b"/><path d="M8.5 81h27.8c1.3 0 2.4-1.3 3.5-1.8q2.9-1.5 6.1-2.4c7.4-2 15.2-1.5 22.7-.5 8 1.3 21.8-1.7 27.8 4.5q1.4.2 2.6.1c1.7-1.7 3.2-3.7 5.3-5 5.4-3.7 11.8-6 18.3-7.1 5.7-1.2 11.6-.6 17.4-.7 3.2 0 6.5-.2 9.6.6a45 45 0 0 1 22.6 12c1.4.4 3 .2 4.4.2h7" class="b"/><path d="M8.5 78.8h26c1.5-.1 3.1.3 4.5-.3a26 26 0 0 1 7-3.4c7.8-2.5 16.2-2 24.3-.8 5.8.5 11.7-.2 17.4.4q6 .3 10.5 4c.8 0 1.9.2 2.6-.2 4.3-6.9 14-10.6 21.8-12.2 3-.7 6.4-.2 9.6-.4H147a47 47 0 0 1 20.9 9.3c1.5 1 2.7 2.8 4.3 3.6h11.4" class="b"/><path d="M8.5 76.7h28.7q1.8.2 3.5-.4a26 26 0 0 1 6-3 41 41 0 0 1 14.9-1.9c3.5.1 7 .8 10.4 1 7.9.8 21.4-2 27 4.3h2.7c5-7 13.4-11 21.7-12.8 4.6-.3 9.3 0 14 0 3.4 0 7-.3 10.4 0 9 1.9 17 6.5 23.5 12.8h12.2" class="b"/><path d="M8.5 74.5h34c5.8-3.9 13-5 20-4.8 4 .1 8 1.1 12.2 1.2 7.4.6 19.6-1.9 25.2 3.5q1.8.2 3.5.1c4.1-6.8 12.6-10.8 20-12.5 2-.5 4.1-.3 6.1-.3h14q2.2-.2 4.3.3c8.5 2 16.6 6.2 22.7 12.5h13" class="b"/><path d="M8.5 72.4H45l1.8-1A33 33 0 0 1 63.3 68c3 .2 5.9.9 8.7 1.2q6.1.6 12.2.4c5.6 0 12-.9 16.6 2.6 1.4 0 3 .3 4.4-.2 4.7-7.1 13.5-11.2 21.7-12.5q5.7-.2 11.4 0c2.5 0 5.3-.3 7.8.2a48 48 0 0 1 14 5.1c15.6 9.4 2.5 7.3 23.5 7.5" class="b"/><path d="M8.5 70.3h38.3q1.4-.1 2.6-.8a28 28 0 0 1 11.3-2.7c4.7-.3 9.3 1.1 14 1.7 4.8.8 9.9.5 14.8.1q4.3-.3 8.7.4 1.8.6 3.5 1.3c1.6-.1 3.6.3 5.2-.3 4.2-6 11.2-10 18.3-11.5a47 47 0 0 1 7.8-1q4.4-.2 8.7 0c7.4.8 14.7 3.3 21 7.4 2.4 1.5 4.6 3.7 6.9 5.4h14" class="b"/><path d="M8.5 68.1h41.8c1.5.2 3-.9 4.3-1.3q3.8-1.2 7.9-1.2c3.2-.1 6.4.8 9.5 1.6 1.7.4 3.5 1 5.3 1H92q2.6-.4 5.2-.5 1.8 0 3.5.4h7.8c6.2-8.8 16.7-12 27-12.3a47 47 0 0 1 33.2 12.3h14.8" class="b"/><path d="M8.5 66H32c2.3 0 4.6-.7 7-.4q3.4.5 7 .4h8.6c1.2.1 2.4-.5 3.5-.8a21 21 0 0 1 9.6 0l2.6.8h40.1c.5-.3 1.4-1.2 1.7-1.7l2.6-2.5a28 28 0 0 1 13-6.1A46 46 0 0 1 168 65.8c2 .3 4 .1 6 .2h9.6" class="b"/><path d="M8.5 63.9H32q1.8-.1 3.4-.6 1.8-.4 3.5-.4 3.6-.1 7 1h35.7c1.7-.3 3.5-.9 5.2-.8q1.8 0 3.5.3 1.3.5 2.6.5h20a27 27 0 0 1 14.9-9 45 45 0 0 1 38.3 8q.8.7 1.8 1h15.6" class="b"/><path d="M8.5 61.7h24.3c1.2 0 2.4-.7 3.5-.9a24 24 0 0 1 10.5 0c1.1.2 2.3 1 3.5 1H79q3.7-2 7.8-2.6a18 18 0 0 1 10.5 2 3 3 0 0 0 1.7.5h16.6c1.2-.8 2.3-2.1 3.5-3q2.8-2.2 6-3.3a43 43 0 0 1 40.1 5.4c1 1 2.3 1 3.5 1h14.8" class="b"/><path d="M8.5 59.6h24.3c1.2 0 2.4-.8 3.5-1q2.6-1 5.3-1.1 5.9-.6 11.3 2 3 .1 6 .1h19.3c.8-.1 1.8-.9 2.6-1.3q2-1 4.3-1.8c5.9-1.7 12.6-.7 17.4 3q4.9.1 9.6 0c2.3 0 4.8.3 7-.1 3.3-3.3 7.8-5 12.2-6.2a41 41 0 0 1 34 6.1q1.2.4 2.6.3h15.7" class="b"/><path d="M8.5 57.5H31c1.1-.1 2.5.2 3.5-.5a24 24 0 0 1 20-.4l1.8.9H79c7.6-6.2 19.3-6.5 27 0h10.4c2-.1 4.1.2 6-.2q5.7-3.8 12.3-5.2a39 39 0 0 1 29.6 5.2c2.2.4 4.7 0 7 .2h12.2" class="b"/><path d="M8.5 55.3H32l1.7-.1 1.7-1a24 24 0 0 1 21.8 0c.8.3 1.8 1 2.7 1.1h20a22.4 22.4 0 0 1 28.7-.1c5.8.3 11.7 0 17.5.1 1.5-.3 2.9-1.4 4.3-2a36 36 0 0 1 29.6.2c1.5.5 2.9 1.6 4.4 1.8h19.2" class="b"/><path d="M8.5 53.2H32c1.3.2 2.4-1 3.4-1.6A24 24 0 0 1 53 49.2q3.2.7 6 2.1c1.5.6 2.8 2 4.4 1.9h17.5c1.5-.6 2.8-2 4.3-2.7q4.6-2.4 9.6-2.8c4.5-.3 9.2.9 13 3.2 1.2.6 2.4 1.7 3.5 2.3h19.2q1.8-.6 3.5-1.5a34 34 0 0 1 26.1.2c1.1.4 2.3 1.2 3.5 1.3h20" class="b"/><path d="M8.5 51H31c1.3.3 2.4-1 3.5-1.6q2.5-1.6 5.2-2.5c8.5-2.9 18-.9 25.3 4.1h17.4c1.2-.5 2.3-1.6 3.5-2.3a22 22 0 0 1 22.6-.3l3.5 2.3q1.2.5 2.6.4H126l8.8-.1q6.6-3 13.9-2.9 4.4 0 8.7 1.3c1.7.4 3.5 1.3 5.2 1.7h21" class="b"/><path d="M8.5 49h21.7c1.5.2 2.5-1 3.5-1.8q2.8-2 6.1-3.1c9.4-3.3 20-.8 27.9 4.8h16.5c8.7-7 19.9-7 28.8-.3q1.2.5 2.6.3h21.8c1.1-.1 2.4-.7 3.5-1a32 32 0 0 1 17.4 0c1.4.2 2.9 1 4.3 1h21" class="b"/><path d="M8.5 46.8h14.8c2.5-.1 5.3.2 7.8-.2 10.3-10 27.6-8.2 38.3.1q8.2.1 16.6 0c.9-.2 1.8-1.1 2.6-1.6q2-1.3 4.3-2c7-2.5 15-.6 21 3.7H140c1.4 0 3-.8 4.4-1a33 33 0 0 1 13.9 0c1.4.3 3 1 4.4 1h20.9" class="b"/><path d="M8.5 44.7q10.8 0 21.7-.1c10.4-10.7 29.2-9.3 40.1 0q9.1.2 18.3 0c6.9-5.7 17.2-5 24.4-.3q1.2.6 2.6.4h27.9a32 32 0 0 1 8.7-1.3q5.3.1 10.4 1.3h21" class="b"/><path d="M8.5 42.5h20.9c10-11 30.3-10.2 41-.4 1 .6 2.3.3 3.4.4h17.4c4.2-3.1 9.8-3.8 14.8-2.6q2.3.5 4.4 1.5c.8.3 1.7 1 2.6 1.1h32.2q4.4-.8 8.7-1c3.3 0 6.5.7 9.6 1h20" class="b"/><path d="M8.5 40.4h20c7.5-8.2 20.2-10 30.5-6.8 4.2 1.3 8.4 3.3 11.3 6.8h5.2c1.4-.3 3-.9 4.4-.8q2.2.2 4.4.8H92q1.4 0 2.6-.2 1.7-.9 3.5-1.3 4.4-1 8.7.2c1.5.3 2.9 1.3 4.4 1.3H146q2.2-.1 4.4-.5a38 38 0 0 1 13 .5h20" class="b"/><path d="M8.5 38.2h19.1c7.4-7.8 19.5-10 29.6-7.3 4.6 1.3 9.3 3.4 12.2 7.3H73c3.1-2.6 7.6-2.5 11.3-1.5l2.7 1a3 3 0 0 0 1.7.5h10.5c1.4 0 2.9-.4 4.3-.3 3.4.5 7 .3 10.5.4h34.8q3.9-.6 7.8-.7c2.6 0 5.3.5 7.9.6h19.2" class="b"/><path d="M8.5 36.1h18.3c9-9.3 24.4-10.8 35.7-5a19 19 0 0 1 3.4 2.4c.9.7 1.6 2.1 2.7 2.6h1.7c5-5.1 13.3-3.7 19.2-.7 1.2 1 2.9.7 4.3.7h54c3.2.2 6.4-.6 9.6-.5q3.5.2 7 .5h19.2" class="b"/><path d="M8.5 34h17.4c7.5-7.6 19.4-10 29.6-7.3 3.1.9 6.3 2.2 8.7 4.4.9.7 1.8 2 2.6 2.9q.9 0 1.8-.3c5-6.7 16.3-4 22.6-.7l1.7 1h47.9q8.4 0 16.6-.3c8.7.5 17.4.2 26.1.3" class="b"/><path d="M8.5 31.8H25a32 32 0 0 1 27-7.6 19 19 0 0 1 13 7.6h1l1.7-1.8q1.5-1.6 3.5-2.3c6.9-2.5 14.5-.2 20.9 2.8l2.6 1.3h88.9" class="b"/><path d="M8.5 29.7H24A34 34 0 0 1 48.5 22c5.7.5 11.8 2.6 14.8 7.7h.9c6.6-9.5 20-5.5 28.8-1.4l2.6 1.3c2.2.3 4.6 0 7 .1h81" class="b"/><path d="M8.5 27.6h14.8c.9-.2 1.8-1.2 2.6-1.7a33 33 0 0 1 24.4-5.3c4.4.8 9.1 2.8 11.3 7h.9c7.2-10 21-6 30.5-1.6q1.6.9 3.4 1.6h87.2" class="b"/><path d="M8.5 25.4h14.8a35 35 0 0 1 22.6-7c5.1.4 11.2 1.9 14 6.7l.8.3.9-.3c1.3-2.2 3.7-3.7 6-4.7 8-3.4 17 0 24.5 3.3l3.5 1.6c2.2.3 4.6 0 7 .2h81" class="b"/><path d="M8.5 23.3h13.9c1 .2 2-.5 2.6-1a33 33 0 0 1 21.8-5.5c4.6.6 9.6 2.4 12.2 6.5h.9c1-.4 1.7-1.8 2.6-2.4a22 22 0 0 1 6-3.2c7.7-2.3 15.8.7 22.7 3.8l3.5 1.7q3 .1 6 .1h82.9" class="b"/><path d="M8.5 21.2H24c6.5-4.6 14.7-7 22.7-6 4.4.6 8.6 2.4 11.3 6h1.7c2-3 5.6-4.4 8.8-5.6 7.3-2 15 .9 21.7 4l3.5 1.6h89.7" class="b"/><path d="M8.5 19H25c5.9-3.9 13-6.1 20-5.5 4.5.4 9.4 1.8 12.2 5.5h2.6c2-2.5 5-3.7 7.9-4.8 7-2.3 14.5.4 20.9 3.2 1.1.5 2.3 1.3 3.5 1.6h91.5" class="b"/><path d="M8.5 16.9H25c1.3.2 2.4-.6 3.5-1.3q2-1.1 4.3-2c5.6-2 11.8-2.5 17.5-.7q2.2.8 4.3 2c1.9 1.5 1.8 2.2 4.4 2 1.4.3 2.4-1 3.5-1.7q2.4-1.5 5.2-2.4c7.3-2.4 15.2.8 21.8 4q11.2.1 22.6.1 1.8 0 3.5-.4 2.7-.4 5.2 0c2.6.7 5.3.3 7.9.4h6q1.9-.2 3.6-.4 2.5 0 5.2.4h40" class="b"/></svg>