<svg xmlns="http://www.w3.org/2000/svg" id="a" width="1920" height="2400" viewBox="0 0 192 240"><defs><style>.b{fill:none;stroke:#fff;stroke-miterlimit:10;stroke-width:.3px}</style></defs><path d="M0 0h192v240H0z" style="stroke-width:0"/><path d="M9 223.9c2.6.4 5.4.8 7.8 2.1 1.2.6 2.3 1.6 3.5 2.2h6.9q1.7-.9 3.5-1.5c4.7-1.7 9.8-1.7 14.7-1.6 5.2.3 10.4.6 15.6-.3 6.8-1.2 10.1-3 17.3-1.1q6.2 1.6 12 4.3c3 .4 5.9 0 8.7.2h14.8q1.7.1 3.4-.2l4.3-2.5q4.5-2.9 9.6-4.1c6.2-1.5 12.8-1 19 .4 5.2 1.2 10.3 3 15.6 3.8q5.2.8 10.4-.3c2.3-.5 4.6-1.6 6.9-2.2" class="b"/><path d="M9 222q3.6.4 7 1.9l1.7 1c.7.5 1.6 1.4 2.6 1.2h6q2-1.4 4.4-2c4.1-1.3 8.6-1.4 13-1.3 5.4.2 11 .5 16.4-.5 3.5-.5 6.9-1.5 10.4-2q3.5-.1 7 .5 5.3 1.2 10.3 3.2c2 .7 4 2.1 6 2h21.7c4.7-1.8 8.9-5.2 13.9-6.6 6.4-1.9 13.3-1.5 19.9 0 5.5 1 10.8 3 16.4 3.8q5.2.8 10.4-.4c2.3-.5 4.6-1.5 7-2" class="b"/><path d="M9 220.2q3.2.6 6 1.8c1.3.5 2.3 1.7 3.5 2h6c1 0 1.9-.8 2.7-1a22 22 0 0 1 4.3-1.5c6-1.3 12.2-.6 18.2-.5a64 64 0 0 0 15.6-2q2.6-.7 5.2-1a29 29 0 0 1 8.6.8c5.1 1.1 10 3.2 14.8 5.1h21.6l2.6-1.4c3.6-1.9 7.2-4.2 11.2-5.3a41 41 0 0 1 20 0c5.5 1.1 10.8 3.2 16.4 4q5.2.6 10.4-.6c2.3-.4 4.6-1.4 7-2" class="b"/><path d="M9 218.7q2.7.6 5.2 1.6l2.6 1.5h7.7q4.2-2.2 8.8-2.6c6.6-.8 13.2.8 19.9.1 12-1.4 16.6-5.9 29.4-1.9q5.8 1.8 11.2 4.3c7 .3 14 0 20.8.1 1.9-.3 3.5-1.7 5.2-2.4 3.6-2 7.2-4 11.3-4.8 6.2-1.4 12.8-.7 19 .8 5.5 1.3 10.8 3.5 16.4 4q5.3.5 10.4-.8c2-.5 4-1.4 6-1.8" class="b"/><path d="M9 217.4q3 1 6 2.3H23c1.8.2 3.4-1 5.2-1.3q4.2-1 8.6-.8c3.8.2 7.5.9 11.3 1a26 26 0 0 0 7.8-1c12.7-3.5 17-5.8 30.3-1l5.1 2c1.1.5 2.3 1.2 3.5 1.1h20.8c5.6-2.8 11-6.6 17.3-7.4 6-1 12.3-.1 18.2 1.6 5.1 1.4 10.2 3.7 15.6 4.1q5.2.3 10.3-1c2-.5 4-1.4 6.1-1.8" class="b"/><path d="M9 216.4q1.7.8 3.5 1.2h12q3-.8 6.1-1 4.5-.2 8.7.9 2.2.1 4.3 0H55l1.7-.9q6.2-3 13-4.3c5.3-.7 10.6.4 15.6 2.2q2.6.9 5.2 2.1c1 .5 2.2 1.2 3.4 1h21.7c1.2.2 2.4-1 3.4-1.5l4.4-2.5q5.2-2.9 11.2-3.4c5.9-.6 11.8.5 17.3 2.4 4.9 1.6 9.6 4 14.7 4.4q5.3.1 10.4-1.3c2-.5 4-1.4 6-1.8" class="b"/><path d="M9 215.5h33.8c3-1 6.4-1.5 9.5-.4q1.2.5 2.6.4h3.4c3-2.4 6.8-3.6 10.4-4.5 7.1-1.4 14.5.8 20.8 3.9 1.5 1 3.5.4 5.2.6h21.7c1.2.2 2.4-1 3.4-1.5l4.3-2.5q6.1-3.2 13-3.2 8.2.2 15.6 3.4l5.2 2.4c1.3.7 2.8 1.6 4.3 1.4h12.1c3-.6 5.8-2 8.7-2.5" class="b"/><path d="M9 213.3h27.7l1.7-.8q1.7-.8 3.5-1.2c4.9-1.2 10.5-1 14.7 2 1.4 0 3 .2 4.3-.2.5-.3 1.3-1 1.8-1.2q3.6-2 7.8-2.6c6.3-.8 12.5 1.3 18.1 4h28.6c1.4.3 2.4-.6 3.5-1.4l4.3-2.6c3.4-1.7 7.4-2.6 11.2-2.7a33 33 0 0 1 18.2 5.3c.8.5 1.7 1.3 2.6 1.4h22.6q1.6-.7 3.4-1" class="b"/><path d="M9 211.2h22.5c1 .2 1.9-.6 2.6-1a27 27 0 0 1 5.2-2c6.3-1.5 13.7-1.1 19 3h4.4c6-4.3 14.2-4 20.7-1q1.3.6 2.6 1h33.8c3.4-2.5 7-4.8 11.3-5.6 7-1.4 14.9.2 20.7 4.5q.8.8 1.8 1.1H183" class="b"/><path d="M9 209.1h19c1.3.1 2.4-1 3.5-1.5q3-1.5 6-2.2c7.3-1.7 15.7-1 21.7 3.7 2-.1 4.1.2 6-.2 3.2-1.8 7-2.3 10.5-1.8q2.2.2 4.3 1 1.3.4 2.6 1h13c2.5-.5 5.1-1.3 7.8-1.1q3.5 0 6.9 1h10.4l1.7-1a22 22 0 0 1 27.7 1q2.6.1 5.2 0 2.5-1 5.2-.8c1.7 0 3.5.8 5.2.9H183" class="b"/><path d="M9 207h16.5c.9 0 1.8-.8 2.6-1.2l3.4-1.6q5.9-2.3 12.1-2.3c5.2.1 10.5 1.4 14.8 4.3q1 1 2.6.8h2.6c1.7-.1 3.6.2 5.2-.4a16 16 0 0 1 9.5.3H92c2.3-.6 4.6-1.5 7-1.7 4.3-.5 8.9 0 13 1.8q5.2.1 10.3-.1c6.9-6 18.5-6.4 25.1 0h4.3a13 13 0 0 1 7.8-1.8c2.4.1 4.8 1 7 1.9H183" class="b"/><path d="M9 204.9h10.4c2-.2 4.4.5 6-.9 10.3-6 24-6 33.8.9h29.4a3 3 0 0 0 1.8-.5 26 26 0 0 1 22.5.5h10.4q3.5-2.7 7.8-3.6a16 16 0 0 1 13.8 3.5h4.3c3.7-2.7 8.7-3.1 13-1.8q1.9.5 3.5 1.3a3 3 0 0 0 1.7.5H183" class="b"/><path d="M9 202.7H23l2.6-1.4c10.4-5.6 23-5 32.9 1.4h26.8q1.8.1 3.4-1l3.5-1.1a31 31 0 0 1 20.8 2.1H124c1.2-.4 2.4-1.3 3.5-1.7q2.5-1.1 5.2-1.3 4-.2 7.8 1.7c.8.4 1.6 1.3 2.6 1.3 1.4 0 3 .3 4.3-.3 2.1-1.8 5-2.7 7.8-2.8a18 18 0 0 1 10.4 2.6l.8.5H183" class="b"/><path d="M9 200.6H23c10-6.6 23.8-6.7 33.7 0h26.8c1.5-.2 3-1.3 4.4-1.7q3.8-1.3 7.8-1.6 6.2-.3 12 1.5c1.8.4 3.5 1.5 5.3 1.8H125c1.2-.2 2.3-1 3.5-1.4a14 14 0 0 1 7.7-.3q1.9.4 3.5 1.5c1.7.4 3.5.1 5.2.2a17 17 0 0 1 15.6-2.8q1.8.6 3.4 1.4c1 .6 2.2 1.6 3.5 1.4H183" class="b"/><path d="M9 198.5h14.7a29 29 0 0 1 31.2 0h9.6c5.7-.1 11.5.2 17.2-.1a32 32 0 0 1 29.5 0h15.5q2.5-1.1 5.2-1.2t5.2 1.2q3 .2 6 0c6.1-5.6 16.4-5.1 22.6 0H183" class="b"/><path d="M9 196c2-.5 4.1-.1 6 .4h11.3q2.5-1.5 5.2-2.4a26 26 0 0 1 20.8 2.4h26c1.4-.3 2.8-1.3 4.3-1.8a32 32 0 0 1 24.2.6c1 .4 2.3 1.3 3.5 1.2h30.3c7.2-6.1 17.9-6.3 25 0H183" class="b"/><path d="M9 192.4c2.6-.6 5.3 0 7.8.5 1.4.3 2.9 1 4.3 1.3h9.6q1.6-.8 3.4-1.4 3.4-.8 7-.5 4 .3 7.7 2h23.4c1.4-.2 3 .2 4.3-.4a33 33 0 0 1 26.9-1.5c1.7.5 3.3 2 5.2 1.9H138c7.9-6.7 20-7.2 27.7 0h7q1.6-.7 3.4-.8 2.2 0 4.3.8h2.6" class="b"/><path d="M9 189.2c1.7-.5 3.5-.3 5.2-.2a39 39 0 0 1 10.4 2.6q1.1.7 2.6.5H73q2.5-1.2 5.1-2.2a33 33 0 0 1 25.1 1c1 .5 2.3 1.4 3.5 1.2h25.1c1.5 0 3.2.3 4.3-.8q3-2 6-3.1a23 23 0 0 1 18.3.3q1.8 1 3.4 2.3c.3.4 1.3 1.1 1.8 1.3h5.2c3.7-2.8 8-2 12-.2" class="b"/><path d="M9 186.2c2.8-.7 5.8-.1 8.7.1 4.7.5 9.4 2 13.8 3.7h39c.4-.2 1.3-.5 1.7-.8a33 33 0 0 1 28.6-1c1 .4 2.3 1.3 3.4 1.8H132l2.6-1.5q3.3-1.8 7-3c7.7-2.5 17.6-2.3 23.3 4.2 1.3.5 3 .2 4.3.3 4.5-3.5 8.7-3.3 13.9-1.6" class="b"/><path d="M9 183.5c2.3-.6 4.7-.3 7-.2q5.2.3 10.3 1.3c5.2 1 10.3 2.9 15.6 3.3h26c1.2.2 2.4-.5 3.4-1a32.8 32.8 0 0 1 20-3.6 27 27 0 0 1 10.3 3.8q.8.7 1.8.8h25.9l3.5-1.7q3.3-1.6 7-2.8c8.3-2.8 18.9-2.6 25 4.5h3.5c3.9-4.2 9.7-3.9 14.7-2.6" class="b"/><path d="M9 181c2.8-.6 5.8-.1 8.7 0 6.7.2 13.3 1.3 19.9 2.3 5.7.8 11.6.8 17.3 1.6q1.7.3 3.5.9h10.3c.9-.2 1.9-1 2.6-1.4 9.3-5 22-5.6 30.3 1.3q12.6.1 25.1 0c1.9.2 3.5-1.2 5.2-1.8q4.2-2 8.7-3.1c7.7-2 18-1.8 23.4 5 1-.1 2.4.2 3.4-.4l1.7-1.4c4.2-2.8 9.3-2.4 13.9-1.5" class="b"/><path d="M9 178.8c2.8-.6 5.8-.1 8.7-.1q8.3.1 16.4 1c6.3.7 12.7.8 19 1.4q5.1.4 9.6 2.5h7a27 27 0 0 1 24.2-4q3.1 1 6 3c1 1.4 2.9 1 4.3 1h22.6c.4.1 1.3-.1 1.7-.4l3.4-1.6q4.3-1.8 8.7-2.8c7.6-1.5 17-1.4 22.5 4.8h2.6c4.9-4.6 11-4.6 17.3-3.5" class="b"/><path d="M9 176.8c2.8-.5 5.8 0 8.7-.1q9.5-.1 19 .4c6.3.3 12.7.2 19 1q4.1.4 7.8 2 1.3.8 2.6 1.4h4.4c8-7.2 22.3-7.5 30.3 0q5.2.1 10.4-.3 1.6 0 3.4.3h12.1c1.9.2 3.5-1.1 5.2-1.7q3.4-1.4 7-2.2c7-1.6 17.1-1.9 22.5 4h2.6c1.4-.9 2.7-2.2 4.3-2.8q4.1-1.5 8.6-1.4 3 .2 6.1.6" class="b"/><path d="M9 175c2.6-.3 5.2.2 7.8 0 6.6-.1 13.3-.5 20-.4 7.1 0 14.4-.4 21.6.7q3.5.5 6.9 2c1.2.5 2.2 1.7 3.4 2.1h2.6c1.2-.7 2.3-2 3.5-2.7a22 22 0 0 1 26 2.7h6c1.7-.3 3.5-.9 5.2-.8q2.6.2 5.2.8h11.2c.8 0 2 0 2.6-.4q5-2.1 10.4-2.9c4.3-.5 8.9-.4 13 1 1.6.5 2.9 1.7 4.3 2.3 1.1 0 2.5.3 3.5-.3q2-1.5 4.3-2.3 5.1-1.6 10.4-1.3c2 .1 4 .6 6 .7" class="b"/><path d="M9 173.6q2.6-.1 5.2.2 3.5.1 7-.3 11.2-1.2 22.4-1.5c5.5-.2 11-.4 16.5.5q4.2.5 7.8 2.6c.8.6 1.7 1.6 2.6 2.2 2.7.2 2.5-.8 4.3-2.3q2-1.5 4.3-2.3c7.3-2.5 16.3-1.2 21.7 4.4q3.4.4 6.9 0 2.5-.9 5.2-.9 3 .1 6 1h16.5q6-1.5 12.1-.7l2.6.7h6.1l2.6-1.3c5.1-2 10.9-2.5 16.4-2.1 2.6.1 5.2.8 7.8 1" class="b"/><path d="M9 172.5c2.6 0 5.2 1 7.8.7 5.8-.7 11.5-2.2 17.3-2.7 9.3-.7 31.4-4 37.2 4.4 1.6.8 2.7 0 3.5-1.3q2-2 4.3-2.9c7.6-3 16.7-1.2 22.5 4.5h6c1 0 1.9-.5 2.7-.7q2.2-.4 4.3-.4c2.3 0 4.7.7 7 1h18.1l4.4-1a74 74 0 0 1 33.7-1.1c1.7.3 3.5 1 5.2 1" class="b"/><path d="M9 171.9q1.8.4 3.5 1.1h6.9q6.3-2.5 13-3.9 8.6-1.5 17.3-2.1c5.2-.3 10.5-.4 15.6 1q2.8.8 5.2 2.6c1 .9 1.7 2.8 3.4 2.4 4.7-6.4 13.7-7.3 20.8-4.7a20 20 0 0 1 5.2 2.8c1 .7 2 2.2 3.4 2h6q3-.9 6.1-1c4 0 8.2.8 12.2 0 5.8-.9 11.5-2.5 17.3-3.4a63 63 0 0 1 32 3.4q1.3.6 2.6 1h3.5" class="b"/><path d="M9 171h15.6c1.5-.4 2.9-1.5 4.3-2q3.3-1.2 7-2 8.5-1.9 17.3-2.4c6.8-.2 15.9-.4 19.9 6.3l1.7-.1c3.9-6.7 13.3-7.1 19.9-5q3.3 1.2 6 3.2c1 .8 2 2.2 3.5 2h7.8q2.2-.6 4.3-.8c3.2-.2 6.5-.2 9.6-1 6.8-1.6 13.6-4 20.7-4.5 9.8-.8 20.3.8 28.6 6.2h7.8" class="b"/><path d="M9 168.8c1.3.2 2.4-1 3.5-1.4 2.4-1 5.3-.6 7.8.3l1.7 1q1.7.1 3.4.1c1.5-.1 3.2.4 4.4-.6a58 58 0 0 1 20.8-5.4c7.2-.6 18.2-1.5 22.5 5.7q.8.4 1.7.3c4.3-7.3 14.5-7.5 21.6-4.7q4 1.5 7 4.4c1.3.6 2.9.2 4.3.3h7.8l6.9-1.3c5.8-1.4 11.4-4 17.3-5 9.8-2.1 20.5-1.3 29.4 3.5q1.9 1.1 3.5 2.5 1.2.4 2.6.3h3.5q2-1 4.3-1.4" class="b"/><path d="M9 166.2c4.3-3.8 11-3 15.6 0 1.1.9 3 .4 4.3.5h2.6q1.4-.6 2.6-1.4c6-2.7 12.6-3.8 19-4.6 6.9-.5 16-1 20 5.8l1.7.2c4.1-7 13.7-7.6 20.8-5.3a26 26 0 0 1 8.6 5q.9.3 1.8.3h12c2.1-.2 4.2-1.2 6.1-1.8 7-2.9 14.1-5.8 21.7-6.3 9-.5 19.4 1.5 26 8h4.3c.9 0 1.8-.8 2.6-1.1q2-1 4.3-1.3" class="b"/><path d="M9 163.4c5.3-4.1 13.1-2.6 18.2 1.1h7c1-.3 2.2-1.2 3.4-1.6a61.3 61.3 0 0 1 23.4-4.1c4.9.2 9.2 1.5 12 5.8h1.8c2.2-4.1 6.8-6 11.3-6.5a26 26 0 0 1 19 6.5h13.8c.8 0 2 0 2.6-.4q5.6-2.7 11.3-5.2a40 40 0 0 1 25-1.8c5 1.4 9.6 3.6 13 7.4h4.4q1.4-.6 2.6-1.4 2.4-1.2 5.2-1.6" class="b"/><path d="M9 161.2c4.2-3.3 10-3 14.7-1.3 1.9.6 3.5 1.9 5.2 2.5h7.8q1.7-.7 3.5-1.5c7.7-3 27-7.3 32 1.5a5 5 0 0 0 2.6-.2c4-6.5 13.1-7.2 20-5.3a30 30 0 0 1 9.4 4.7q.8.6 1.8.8h16.4c6.4-4 13.2-7.6 20.8-8.5 9.4-1.1 20.3 1.3 26.8 8.5h5.2c2.4-1.3 5-2.6 7.8-3" class="b"/><path d="M9 159.3c4.1-3.4 10-3.2 14.7-1.6q1.9.7 3.5 1.5c.8.3 1.7 1.1 2.6 1.1h9.5q1.3-.4 2.6-1c7.3-2.7 24.3-6.6 29.4 1H74c.6-.3 1.4-1.2 1.8-1.7q1.5-1.6 3.4-2.6c8.5-4.3 18.9-1.2 26 4.3h13c2 0 4.1.2 6-.2l3.5-2.3a37 37 0 0 1 20-6.3c7.8 0 16 2.8 21.5 8.7 2 .3 4.1 0 6.1.1 1 .2 1.8-.6 2.6-1q2.5-1 5.2-1.7" class="b"/><path d="M9 157.7c4-3.4 9.9-3.3 14.7-1.8q1.8.5 3.5 1.3c.8.3 1.7 1 2.6 1h8.7c1.6-.1 3.5.3 5.1-.3q7.2-2.5 14.8-3c4.2-.3 8.9.2 12 3.3H74c7.6-9.5 21.8-6.5 30.3 0h19.1q1.4.2 2.6-.4c5.8-4.9 13.1-8 20.7-8.2 8-.1 16 2.8 21.7 8.4 1 .4 2.4.2 3.4.2h5.2c.9.1 1.9-.5 2.6-.8l3.5-1.2" class="b"/><path d="M9 156c1.2-.2 2.3-1.2 3.5-1.6a18 18 0 0 1 11.2 0q1.8.4 3.5 1.2 1.2.5 2.6.5h16.4c2 0 4-.9 6-1.1q5.2-1.2 10.5-.9 3.2.4 6 2c1.7-.1 3.6.3 5.2-.3 4.8-5.6 13.2-6.5 20-4.3q3 1 6 3c1 .5 2.1 1.8 3.5 1.6h23.3c11.8-10.7 29-11 40.7-.1q4.3.1 8.7 0c2.3 0 4.8.5 6.9-.7" class="b"/><path d="M9 154q1.4 0 2.6-.2c.4-.3 1.3-.7 1.7-.8q2.2-.7 4.4-.7 4.5 0 8.6 1.6h29.4l4.4-.4q2.6.1 5.2.5H73l2.6-2q2-1.5 4.3-2.3c6-2 13.2-.7 18.2 3.2a4 4 0 0 0 1.7 1h28.6a27 27 0 0 1 33.7-3c1.5.8 2.9 2.2 4.4 3H183" class="b"/><path d="M9 151.8h5.2q2.2-.5 4.3-.5 2.2.1 4.4.5h3.4q23.4.1 46.8 0c6.1-6 17.4-6.4 23.3 0h3.5c2.4-1.8 5.8-2 8.6-1.3q1.4.3 2.6 1a3 3 0 0 0 1.8.3q8.6.1 17.3 0c10-9.5 24.5-8.6 34.6 0H183" class="b"/><path d="M9 149.7h62.3c1 .2 2-.5 2.6-1 5.8-4.2 15-4.7 20 1q1.3.2 2.5-.4a9 9 0 0 1 3.5-2.3c5-1.8 10.6-.5 14.7 2.7H132a23 23 0 0 1 28.6-1.8c1 .6 2.1 2 3.4 1.8h19" class="b"/><path d="M9 147.6h63.2c5.2-4.1 14.3-5.8 19-.2l1.8.2c1.2-.8 2.1-2.3 3.4-3 4.2-2.3 9.4-2.3 13.9-.8a20 20 0 0 1 6 3.6q.9.3 1.8.2h15.6a21 21 0 0 1 26.8 0H183" class="b"/><path d="M9 145.5h63.2c3.8-2.4 8.5-4 13-2.6q1.4.4 2.6 1.3c.9 1 2.2 1.8 3.4.8 2.2-3 6-4.6 9.6-5.2 6.2-.9 12.7 1.3 17.3 5.5 2 .4 4 .1 6 .2h10.4c1.3.2 2.4-.9 3.5-1.4l3.4-1.4a19 19 0 0 1 13.9 1.4c1 .5 2.2 1.6 3.5 1.4H183" class="b"/><path d="M9 143.4h64.1c3.2-1.5 6.8-2.8 10.4-1.7q1.4.4 2.6 1.4a4 4 0 0 0 2.6 0c2.6-3.9 7.5-5.6 12-6.2 7-.8 14 2 19.1 6.5H138c.8 0 1.8-.6 2.6-.9a15.5 15.5 0 0 1 10.4-.2c.8.3 1.7.9 2.6 1h24.2c1.8.2 3.4-1 5.2-.9" class="b"/><path d="M9 141.2h62.3c2.3 0 4.7.3 7-.3q1.7-.2 3.4.3h3.5c.6 0 1.4-.8 1.7-1.2l1.7-1.5q3.2-2.2 7-3.3a26 26 0 0 1 16.4.7q4.7 1.8 8.7 5 1.2.5 2.6.3H157q1.4-.2 2.6-.6 2.2-.5 4.4-.5 2.7 0 5.2 1.1h8.6q2.4-1.7 5.2-1.8" class="b"/><path d="M9 139.1h70.1c1.1 0 2.5.2 3.5-.3q4.6-3.7 10.4-5.5a30 30 0 0 1 26 3.6c1.3.7 2.6 2.5 4.3 2.2q13.8.2 27.7 0c4.3-1.8 9.2-2.9 13.8-2q2.8.6 5.2 2h6c1 0 1.9-1 2.7-1.4a10 10 0 0 1 4.3-1.2" class="b"/><path d="M9 137h8.7q8.2-.9 16.4-1c5.5-.1 11 .4 16.5.5q6 0 12-.4c8.2-.3 11.6 2.2 20-1.6 4.7-2 9.6-4 14.7-4.7a33 33 0 0 1 25.1 7.2h11.3c2.5-.1 5.3.3 7.8-.2 9-2.3 20.3-6.2 28.5.2h5.2c1-.3 1.8-1.3 2.6-1.7q2.4-1.5 5.2-1.5" class="b"/><path d="M9 134.9q1.8-.2 3.5-.5l3.4-.5c6.7-.5 13.3-1.3 20-1.4 8.6 0 17.3.4 26-.1 3.4-.3 6.9.2 10.3.3a34 34 0 0 0 9.5-1.3c5.4-1.5 10.8-3.4 16.5-3.8 8.5-.7 17.6 1.7 24.2 7.2h10.4c2-.4 4-1.3 6-1.8 9.8-2.4 23-5.5 31.2 1.9h4.4c.8-.5 1.7-1.5 2.6-2q2.7-1.7 6-1.8" class="b"/><path d="M9 132.2c4.1-1.4 8.7-1.2 13-1.7q10.8-1.2 21.6-1.3l20.8-.2c3.4 0 7 .5 10.4.3 5.6-.1 11-1.7 16.4-2.7q7.9-1.6 15.6-.5a31 31 0 0 1 14.7 6.4c1.6.6 3.6.1 5.2.3h2.6c.9-.2 1.9-.9 2.6-1.2q9.6-4 20-4.4c4.6-.1 9.5.3 13.8 2.5 1.6.7 2.9 2.2 4.3 3h3.5c.9-.4 1.8-1.4 2.6-2q3.1-2.2 6.9-2.2" class="b"/><path d="M9 129.2q3.4-.9 7-1 4.2-.2 8.6-.7 13-1.5 26-1.5c5.4 0 11-.3 16.4 0q8.3 1 16.5-.2c5.7-.8 11.5-2 17.3-1.9 7 .2 14.5 1.9 19.9 6.6q1.7.2 3.4.1 1.8.2 3.5-.2c3-2.2 6.8-3.5 10.4-4.5 9.5-2.4 24.1-3.7 31.2 4.5q1.2.3 2.6.2 1.6.1 2.6-1.3c2.3-2 5.5-3.3 8.6-3.2" class="b"/><path d="M9 126.5c2.5-.7 5.2-.6 7.8-.8q4.8-.3 9.5-.9 14.7-1.9 29.5-1.7 5.1 0 10.3.2 4 .5 7.8.6c9 .6 17.9-1.6 26.9-1.4q7.2.2 13.8 3c6.4 3 2.3 3.2 10.4 3 10.4-8 35.1-11.5 44.2 0h3.4c2.4-3.1 6.5-4.8 10.4-4.7" class="b"/><path d="M9 124c2.2-.6 4.6-.5 7-.6q3.9 0 7.7-.5 7.4-1 14.8-1.8 8.2-.7 16.4-.6 5.6-.1 11.3.4 6.4.8 13 1.1c7.7.3 15.5-1.2 23.3-.6 4.8.4 9.8 1.4 13.9 4q1 1.1 2.6 1h3.4c1 0 1.8-1 2.6-1.5l3.5-1.9a42 42 0 0 1 32.9-2.4q2.8 1.2 5.2 3.2c.8.7 1.6 2 2.6 2.6h2.6c1.2-.7 2.2-2 3.4-2.7q3.6-2.2 7.8-2" class="b"/><path d="M9 121.7q3-.6 6-.4 4 0 7.9-.3c4.9-.5 9.8-1.5 14.7-2a131 131 0 0 1 28.5-.3q6 .9 12.2 1.6c6 .6 12 .2 18.1 0 5 0 10 .2 14.8 1.9 1.4.4 2.9 1.5 4.3 2h3.4c.8 0 2 .2 2.6-.3q2.2-1.4 4.4-2.6c10.4-5.4 23.4-8 34.6-3.5q3.4 1.4 6 4c2.3 2.4 1.5 2.6 5.2 2.5 2.8-3.2 7.1-5 11.3-4.6" class="b"/><path d="M9 119.5q3-.3 6 0l7-.1c6.7-.7 13.2-2.4 20-3q9.8-.8 19.8 0c4.1.1 8.1 1 12.1 1.8 5.7 1 11.5 2 17.3 1.7 5-.1 10-.5 14.8.4q2.2.3 4.3 1.1c.8.3 1.8 1 2.6.8h6q1.8-.9 3.5-1.9a49 49 0 0 1 31.2-7c5.6 1.1 11.5 3.6 14.7 8.6 1 .4 2.4.2 3.5.3 2.6-3.3 7.1-4.8 11.2-4.3" class="b"/><path d="M9 117.6c4-.4 8 .9 12.1.5 5.3-.3 10.4-2 15.6-2.8a89 89 0 0 1 31.2 0c6.3 1.4 12.6 3.5 19 4.7h9.5q4.3-.3 8.7 0h12.1c.9 0 1.8-.7 2.6-1l5.2-2.6a66 66 0 0 1 12.1-4.6c10.5-2.9 24.7-1.8 31.2 8 1 .4 2.3.2 3.4.2 2.8-3 7.2-4.4 11.3-3.8" class="b"/><path d="M9 116c3-.2 5.8.8 8.7 1.1 6 1 11.6-1.5 17.3-2.8a79 79 0 0 1 29.4-1c5.1.7 10 2.9 14.7 4.6h36.3c1.3.2 2.5-.4 3.5-.9l3.5-1.5q6-3.2 12.1-5.3a36 36 0 0 1 22.5-.7c4.5 1.4 8.8 4 11.3 8.2 1 .4 2.4.2 3.4.2 1.2-.7 2.3-1.8 3.5-2.3q3.8-1.6 7.8-1" class="b"/><path d="M9 114.6c2.1-.2 4 .9 6 1.2h12.2c1.5.2 3-.8 4.3-1.3q3-1.2 6-2c8.8-2.3 18-2 27-.5q4.5.9 8.6 3c1.5 1.1 3.4.7 5.2.8h6q3-.6 6-.6 3.1 0 6.1.6h20c1.1 0 2.3-.7 3.4-1.1l5.2-2.5q5.9-3 12.1-5a31 31 0 0 1 26 3q3.1 1.9 5.2 5.1l.8.5h3.5c2.7-2.7 6.9-3.4 10.4-2.6" class="b"/><path d="M9 113.5c3.1.4 6.4.1 9.5.2h14.8q2-1 4.3-2 3.8-1.2 7.8-1.8 10.5-1 20.7 1.5c1.9.5 3.5 1.7 5.2 2.3h9.5a22 22 0 0 1 7-1.3c3.7-.1 7.5.6 11.2 1.3h19.1c3.3-1 6.4-3 9.5-4.4a58 58 0 0 1 11.2-4.6c11.2-3 23.1-.6 30.3 9 1.7-.2 3.9.5 5.2-.8 2.6-1.5 5.8-1.9 8.7-1" class="b"/><path d="M9 111.6h9.5l2.6-.8a14 14 0 0 1 8.7.8h7.8L41 110q2.6-.9 5.2-1.2a47 47 0 0 1 21.7 2.7h9.5q1.3-.2 2.6-.6 1.2-.4 2.6-.6 5.2-.7 10.4 0l5.2 1.1h21.6c1.5.2 3-1.1 4.3-1.7a53 53 0 0 1 20.8-8.2c9-1 19.2 2.1 24.2 10h5.2c2.5-1.6 5.9-2 8.7-1" class="b"/><path d="M9 109.4h7c1.1-.2 2.2-1.1 3.4-1.5q3-1 6-.9 3.2 0 6.1 1.3 1.3.6 2.6 1.1H42c1.1 0 2.3-.7 3.5-1q3-.7 6-.7 4.9 0 9.6 1 1.2.4 2.6.7h12.9a26 26 0 0 1 5.2-1.3q7.5-.7 14.8 1.3h18.1q4.4 0 8.7 0l3.4-2.3a39 39 0 0 1 26-7.5 26 26 0 0 1 13 5.4c1.6 1.2 2.8 3.2 4.3 4.4h6c2.2-1 4.8-1 7-.2" class="b"/><path d="M9 107.3h6c4.8-3.4 11-4 16.5-2.3q1.7.5 3.5 1.4c.8.4 1.7 1 2.6 1q7.3 0 14.7-.3 3.4.2 7 .2h15.5c1.1.1 2.4-.6 3.5-.8q3-.6 6-.5 4.8 0 9.5 1.3H125c1-.1 1.9-1 2.6-1.5l4.3-2.9q5.3-3.2 11.3-4.7a26 26 0 0 1 26.8 8.7c1.2.8 3 .3 4.3.4q4.4 0 8.7 0" class="b"/><path d="M9 105.2h3.5q1.3 0 2.6-.3 1.2-1 2.6-1.6a22 22 0 0 1 15.6-.5q2.7.9 5.1 2.3h36.4c2.5-.4 5.2-1 7.8-1q2.6 0 5.2.5t5.2.6h34.6c3.5-2.7 7.1-5.4 11.2-7.2a28 28 0 0 1 25.1.8c12.4 7.9.5 6.2 19 6.4" class="b"/><path d="M9 103c2 0 4.1.3 6-.1q1.3-1 2.7-1.6a22 22 0 0 1 15.6-1q2.2.7 4.3 1.7c.8.3 1.7 1 2.6 1h34.6c2.3-.3 4.6-.8 7-.7q3 0 6 .8h38.9q1.8 0 3.5-.2c12.3-11.8 30.8-13.5 42.4.2H183" class="b"/><path d="M9 101h6c1-.2 1.9-1 2.7-1.3 4.5-2.4 9.8-2.6 14.7-1.6q2.6.7 5.2 1.6c1 .3 2.2 1.3 3.4 1.2h33.8c2 0 4-.6 6-.4q2.7.2 5.3.4h45.8c9.1-8.9 22-12.7 33.8-6.6q2.8 1.5 5.2 3.5c1.2.9 2.1 2.5 3.4 3.1h8.7" class="b"/><path d="M9 98.8h7c1.1-.2 2.3-1.2 3.4-1.6 4-1.8 8.7-2 13-1.2q4.6.8 8.6 2.8h34.7q2.2-.3 4.3-.2c6.6.5 13.3.1 20 .2h33.7a32 32 0 0 1 15.6-9 27 27 0 0 1 26 9h7.7" class="b"/><path d="M9 96.7h5.2c1.6 0 3 .2 4.3-.8 4.5-2.4 9.8-2.7 14.8-2q3 .7 6 1.6 1.7.8 3.5 1.2h92.6a26.7 26.7 0 0 1 40.7 0h6.9" class="b"/><path d="M9 94.6h8.7a22 22 0 0 1 13-3.1q6.6.5 13 3c2.2.3 4.6 0 6.9 0h85.7c.6 0 1.4-.8 1.7-1.2a26.2 26.2 0 0 1 39 1.3h6" class="b"/><path d="M9 92.5h8.7l3.4-1.8C25.8 89 31 89 36 89.8c3.8.5 7.5 1.9 11.2 2.8h63.2q2.2-.3 4.3-.5c1.7-.2 3.5.3 5.2.5H138a25.3 25.3 0 0 1 39-.3c1.9.5 4 .2 6 .3" class="b"/><path d="M9 90.4h8.7q2-1.3 4.3-2.1a36 36 0 0 1 19-.3l6.1 1.5c1.4.3 2.9 1 4.3.8H106c1.1.2 2.3-.6 3.4-.9q3-.9 6-.9 2.8 0 5.3 1 1.2.5 2.6.8h15.6c1.4-1.1 2.7-2.9 4.3-4a24.4 24.4 0 0 1 33.8 3.9c1.9.3 4 0 6 .2" class="b"/><path d="M9 88.2h8.7q3.1-2 6.9-2.8c9-2.1 18 0 26.8 2q2.2.6 4.4.8h25.9c2.5-.5 5.2-1.1 7.8-.8 1.4 0 3 .7 4.3.8h10.4c.5.1 1.4-.1 1.8-.4a19 19 0 0 1 11.2-2.2c2.8.2 5.4 1.4 7.8 2.6h14.7c1.4-.7 2.3-2.3 3.5-3.1q3-2.7 7-4.2a24 24 0 0 1 26.7 7.3c2 0 4.3.4 6.1-.6" class="b"/><path d="M9 86.1q4.4.2 8.7-.1 3.1-2 6.9-2.8c5.4-1.4 11-1.3 16.4-.7q9.6 1.3 19 3.5 5.3.1 10.5.1h7.8A18 18 0 0 1 93 84.7c1.1.3 2.3 1.2 3.4 1.4h7.8a18.5 18.5 0 0 1 21.7 0h14.7c.6-.1 1.4-1 1.7-1.4q1.6-1.7 3.5-3C155 75 169.3 76.8 176 86h3.4c1.2-.3 2.3-1.2 3.5-1.5" class="b"/><path d="M9 84h7.8c1.5-.3 2.9-1.4 4.3-1.8a35 35 0 0 1 7.8-2 98 98 0 0 1 33.8 3.3c2.2.7 4.6.4 7 .5 2.2-.1 4.6.2 6.8-.2a18 18 0 0 1 19-1.2c.9.4 1.7 1.3 2.7 1.4h5.2c.8-.3 1.8-1.2 2.6-1.7q2-1.2 4.3-1.7 6.2-1.4 12.1 1c1.5.5 2.9 1.7 4.3 2.4h13q1.4 0 2.6-.3c8-10.3 25.2-10.2 33 .3q1.6.1 3.4-.2a11 11 0 0 1 4.3-2.1" class="b"/><path d="M9 81.9h6q2 .2 3.5-.6c5.1-2.6 10.9-3.6 16.5-3.8q11.3-.5 22.5 1.8c3.5.6 7 1.8 10.4 2.6h6.9a20 20 0 0 1 7.8-4 18 18 0 0 1 16.4 4h4.4c6.4-6 16.8-5.4 23.3 0h10.4c2-.1 4.2.2 6-.2a20 20 0 0 1 28.7-2.4c.8.7 1.5 2.1 2.6 2.6l2.6-.1c1.5-1.7 3.9-2.5 6-2.9" class="b"/><path d="M9 79.8h7.8q1 0 1.7-.5A42 42 0 0 1 29 76.1a82 82 0 0 1 32 1.1L67 79q2.2.9 4.3.8c1.2-.1 2.6.2 3.5-.5 6.6-6.5 19-6.6 25.1.5h3.5l1.7-1.4q1.6-1.2 3.5-2c6-2.2 13.1-.6 18.1 3.4q8.7 0 17.3-.2c6.8-8.8 22-9 28.6.2h2.6c2-2.2 5-3 7.8-3.5" class="b"/><path d="M9 77.6c3.2 0 6.4.3 9.5-.1a52 52 0 0 1 14.8-4c8.3-1 16.8-1.2 25 .4q4.6 1 8.7 2.5 1.4.5 2.6 1.2H74c6.4-7.6 20.7-8.1 26.9 0h3.4c3.7-4.5 10.4-5 15.6-3.4q2.3.7 4.3 1.9c1 .6 2.2 1.8 3.5 1.5h17.3c6-7.8 20.2-8.3 26 0h2.6c2.4-2.6 6.1-3.4 9.5-3.8" class="b"/><path d="M9 75.5h10.4a72 72 0 0 1 17.3-4.2c7.5-1 15.1-1.3 22.5.3a45 45 0 0 1 10.4 3.7q2.2.4 4.3.1c6.3-8.1 21.7-8.6 27.7 0 1.1.1 2.5.4 3.5-.3q1.5-1.6 3.5-2.5c5.7-2.4 12.3-.5 17.3 3q6 0 12-.3 4 .5 7.9.2c5.6-6.8 18-7.3 23.3 0h2.6c3-3 7.3-3.6 11.3-4" class="b"/><path d="M9 73.4h7.8c2 0 4.2.2 6-.6a124 124 0 0 1 29.5-4.4q6.7.3 13 2.6 2.2.8 4.3 2.2 2.2.4 4.3 0c6.4-8.5 22.3-9 28.6-.1q1.2.5 2.6.3a5 5 0 0 0 1.7-1.3 12 12 0 0 1 7.8-2.2q3.7.1 7 1.6c1.4.5 2.7 2 4.3 1.9h8.6q1.8-.4 3.5-.5 1.8.2 3.5.5 2.5.1 5.1-.2c5.3-5.6 15.8-6 20.8.2h2.6c3.5-3.3 8.5-3.7 13-4" class="b"/><path d="M9 71.3h10.4q3 0 6-.2c8.4-1.7 16.6-4.3 25.2-4.6 6.5-.1 13.5 1 19 4.7h4.3c5-6.6 15-8.4 22.5-5.6q2.9 1.1 5.2 3c.9.8 1.7 2 2.6 2.7h2.6c3-3.4 8.1-3.4 12.1-2.2q1.9.7 3.5 1.5.8.6 1.7.7h10.5q1.6-.4 3.4-.5t3.4.5h4.4c1 .2 2-.5 2.6-1.1q1.6-1.2 3.4-1.9c4.7-1.6 10.4-.7 13.9 3h2.6c4.1-3.3 9.6-3.7 14.7-3.8" class="b"/><path d="M9 69.1h25.1c4.5-1.6 9.1-3.2 13.9-3.9s10-.5 14.7 1q3.6 1 7 3h4.2q4.9-5.6 12.2-6.8c6.8-1.1 14.9.8 19 6.7h3.5q.8-.7 1.7-1.2c2.7-1.1 5.9-1 8.6 0 1.2.3 2.3 1 3.5 1.2 5.2 0 10.4.3 15.6-.3 1 0 2.4.3 3.4.4l6.1-.1c4.5-4 12.1-4.1 16.5 0h3.4q2-1.5 4.3-2.3c3.7-1 7.6-1 11.3-1" class="b"/><path d="M9 67h20.7l3.6-.3q1.2 0 2.6.3h6a26 26 0 0 1 26.8 0h2.6c1.7 0 3.3.4 4.4-1.2a22.4 22.4 0 0 1 28.5-1.2c.8.7 1.8 1.8 2.6 2.4h4.4q2.4-1.2 5.2-.8 1.6.3 3.4.8h23.3q2.3.2 4.4-.2 2-1.5 4.3-2c3.2-.8 6.8-.5 9.6 1.2.3.3 1.2.8 1.7 1h3.5c4.7-3.4 10.9-2.8 16.4-2.6" class="b"/><path d="M9 64.9h15.6q1.3-.2 2.6-1 1.6-.6 3.5-1c4.6-1.2 10-1.1 13.8 2H48c5-3.4 11.8-3 17.3-.8l1.7.7 2.6.1h5.2a24 24 0 0 1 30.3-2.8c1.2.7 2.2 2.1 3.4 2.8h34.7c1.4 0 3.1.2 4.3-.8 4.5-2.5 10.7-2.6 14.7.8h4.4q2.5-1.3 5.1-1.8c3.8-.7 7.6-.2 11.3.2" class="b"/><path d="M9 62.8h14.7q6.8-4.2 14.8-4.3c4 .2 8.3 1.3 11.2 4.2q2.6.2 5.2 0 2-.7 4.3-.7 2.7 0 5.2.8h11.3a25 25 0 0 1 31.1-2.6c1.2.7 2.3 2 3.5 2.6H144c1.3-.1 2.3-1.2 3.5-1.6q3.3-1.5 7-1.3c2.6 0 5.5.8 7.7 2.5a3 3 0 0 0 1.7.4h3.5q1 0 1.7-.4 1.7-.6 3.5-.8c3.5-.4 7 .3 10.4 1" class="b"/><path d="M9 60.7h14.7A26 26 0 0 1 48.8 57q2.9 1.2 5.2 3.2c1.3.7 3 .3 4.3.4h14.8c1.4-.1 3 .3 4.3-.4a26 26 0 0 1 31.1-2c1.2.6 2.3 1.8 3.5 2.4h28.6c1.1 0 2.5 0 3.4-.9 6-3.5 14.4-3.7 20 .9h19" class="b"/><path d="M9 58.5H23q1.5.2 2.6-1a27 27 0 0 1 32.9 1h19.9a27 27 0 0 1 32-2c1.1.6 2.2 1.8 3.5 2h20.7c9.5.2 4.4.1 12.2-2.8a20 20 0 0 1 19 2.8H183" class="b"/><path d="M9 56.4h14.7q.9 0 1.8-.2l1.7-1.4 3.5-2.1A27 27 0 0 1 48 50.2q5 1 9.5 3.6c4.8 3 2.7 2.7 8.6 2.6H80q1-.2 1.7-.8 1.3-1 2.6-1.7a26 26 0 0 1 29.5 2.2c1 .5 2.3.3 3.4.3q11.2.1 22.5 0 4-2.9 8.7-4c3.6-1 7.6-1 11.2 0q4.3 1 7.8 3.9c2 .3 4.1 0 6 .1h9.6" class="b"/><path d="M9 54.3h15.6q1.4.2 2.6-.4a26 26 0 0 1 22.5-6c5 1 9.7 3.4 13.9 6.4h19c1 0 1.8-1 2.6-1.5q2.5-1.6 5.2-2.6c8.1-3 17.3-.8 24.2 4H139a25 25 0 0 1 29.4-1c.4.3 1.2.9 1.7 1h13" class="b"/><path d="M9 52.2h19a26 26 0 0 1 26-5.7 32 32 0 0 1 9.5 4.9q.7.6 1.8.8H86c8-7.1 20.3-5.9 28.6 0h22.5c1.3.2 2.4-1 3.5-1.6q2.9-1.9 6-3c8.7-3.1 18-1.2 25.1 4.6H183" class="b"/><path d="M9 50h20c10-9.7 26-8.8 36.3 0h8.6q3.5.1 7-.2 3.8.4 7.8.3c5-4.7 12.6-5.4 19-3.4q2.8.8 5.2 2.1c1 .6 2.2 1.5 3.5 1.3H137c8.6-6.5 19.4-9 29.5-4.3q3.2 1.6 6 4c1.3.5 3 .2 4.3.3h6.1" class="b"/><path d="m9 47.1 1.7.8h19.1c7.2-7 18.4-8.7 27.7-5q2.8 1 5.2 2.7c1.1.6 2.2 1.8 3.4 2.3h9.6l2.6-.9q4-1 7.7.3 1.3.7 2.6.6c.8 0 2 .1 2.6-.3 1.6-1.6 3.9-2.7 6.1-3.2q5.2-1.2 10.4.2a29 29 0 0 1 7.8 3.3H131q2.5.2 5.2 0 2.4-2 5.1-3.4a29 29 0 0 1 21.7-2.7 27 27 0 0 1 9.5 5l.9.8.8.3h8.7" class="b"/><path d="m9 43.6 3.5 1.4c.7.3 1.7 1 2.6.8h15.6a27 27 0 0 1 35.4 0h8.7q4.5-2.5 9.5-1.9 2.4.4 4.3 1.7 1.7.4 3.5.2c4.8-4.6 12.2-4.6 18.2-2.6 2 .6 4 1.9 6 2.6h17.4c.9.2 1.9-.6 2.6-1 11.3-8.2 27.7-9.4 38 1h8.7" class="b"/><path d="M9 40.6q3.8.9 7 3h15.5c1.5-.8 2.8-2.1 4.4-3q3.2-1.8 6.9-2.7c8-1.9 17.1.2 23.4 5.8h7.7c1.2-.2 2.4-1.1 3.5-1.4q4.3-1.5 8.7-.4 1.8.5 3.4 1.7 1.8.1 3.5 0c4.4-4.4 11.6-4.4 17.3-2.6q3 1 6 2.7h16.5q1.4-.6 2.6-1.5a38 38 0 0 1 18.2-6.2c7.5-.4 15.6 1.9 20.8 7.5 2.8.4 5.8 0 8.6.2" class="b"/><path d="M9 37.8c2.7.8 5.6 1.8 7.8 3.6 2.2.4 4.7 0 7 .2h9.5c9-8.2 23.8-7.8 32.8 0h5.2q1.8.1 3.5-.2c4.4-2.6 10.5-3 14.7.1H93c.5-.1 1.3-.7 1.7-1q1.6-1.2 3.5-1.8c4.2-1.3 8.8-1 13 .5q2.2.8 4.3 2 1.2.6 2.6.4h13c.4-.2 1.3-.6 1.7-1a43 43 0 0 1 20.8-6.8c7.5-.3 15.6 2 20.7 7.7q2.2.2 4.4 0 2.2.1 4.3-.3" class="b"/><path d="M9 35.4q2.7.6 5.2 1.9c1.2.5 2.3 1.6 3.5 2.2H35c8.5-7.6 22.4-7 31.1 0h8.7a15 15 0 0 1 9.5-1.8q1.8.3 3.5 1.1.8.6 1.7.6H93c1.2-.4 2.2-1.5 3.4-2 3.2-1.5 7-1.8 10.4-1.3q3.2.6 6 1.8c1.2.4 2.3 1.6 3.5 1.5h13c6.6-3.9 14-7 21.6-7.6 8.4-.7 17.6 1.3 23.4 7.6q2.6.2 5.2 0 1.6-.9 3.5-1" class="b"/><path d="M9 33.3c2.8.8 5.7 1.7 7.8 3.8q1.3.3 2.6.2H35q1.3.1 2.6-.3 2-1.6 4.3-2.6a25 25 0 0 1 16.5-.7c2.8.7 5.3 2.2 7.8 3.6h9.5q1.6-.7 3.4-1 4-.8 7.8.8c1.6.5 3.5.1 5.2.2 1.6.2 2.9-1.4 4.3-1.9 3.5-1.5 7.6-1.7 11.3-1q2.7.6 5.2 1.8c1 .6 2.1 1.3 3.4 1.1h7c1.7 0 3.7.4 5.1-.8 11.8-6.1 26.4-9.6 39-3.8q3.4 1.5 6 4.3c1.3.6 3 .2 4.4.3l1.7-.5q1.7-.6 3.5-.7" class="b"/><path d="M9 31.4q3.8 1 7 3.5 1.2.4 2.5.3H22c1.7 0 3.5-.8 5.2-.5q1.8.2 3.5.5h8.6c1-.1 1.8-1 2.6-1.4q2-1.2 4.3-1.8a24 24 0 0 1 17.3 2c.8.4 1.7 1.2 2.6 1.2H74q2.7.2 5.2-.3 3.2-.5 6 .3H93a19 19 0 0 1 19-1c.8.3 1.7 1.1 2.6 1h9.5q2.3-1 4.4-2c14-6 32.6-8.9 45 2h4.3q2.4-1.2 5.2-1" class="b"/><path d="M9 29.8a20 20 0 0 1 6 3.3h4.4q3.1-2 7-2.2 4-.1 7.7 1.6c1.5 1 3.5.5 5.2.6h3.5q1.6-1 3.4-1.8a20 20 0 0 1 7.8-1.2q3.5.2 7 1.3c1.4.4 2.8 1.4 4.3 1.7H93q2.8-1.8 6-2.3 4.4-.7 8.7.3c1.8.3 3.5 1.3 5.2 2h8.6c1 0 1.8-.8 2.6-1.1 14.5-6.4 35.3-9.4 48.5 1.1h5.2q2.5-1 5.2-.5" class="b"/><path d="M9 28.5q1.4.6 2.6 1.4c.8.5 1.6 1.3 2.6 1 1.1 0 2.5.3 3.5-.3.4-.3 1.2-1 1.7-1.2q2.8-1.5 6-1.8 5-.4 9.6 1.2 2.3 1 4.3 2.2H42c1.6-.1 3.7.3 5.2-.4a17 17 0 0 1 8.7-1.5q2.6.1 5.1 1c1.2.2 2.3 1 3.5.9h14.7q7 0 13.9-.1a20 20 0 0 1 13-1.8q2.6.6 5.1 1.9h6.1q1.8.1 3.5-.2c4-2.8 9-4 13.8-5 11.4-2.1 26.7-2.2 36.4 5q6 .3 12.1.2" class="b"/><path d="m9 27.5 1.7 1.3h4.4c1.1-.6 2.2-1.7 3.4-2.3a19 19 0 0 1 5.2-1.8c6.2-1 13 .2 18.2 3.9 1 .4 2.4.2 3.5.3h4.3q1.3-.1 2.6-.5 1.7-.3 3.5-.3 3 .1 6 .8h30.3c1.2 0 2.4-.8 3.5-1q2.5-.6 5.2-.7 4.5-.2 8.6 1.7h9.5c9.2-6.9 27.2-7 38.1-4.7q4.6 1 8.7 2.8l3.5 1.9H183" class="b"/><path d="M9 26.7h4.3c1-.3 1.8-1.3 2.6-1.8q4-2.5 8.7-3.2a29 29 0 0 1 19 4.1q1.2 1 2.6 1H93q3-.8 6-1.2a22 22 0 0 1 5.2.4c1.1.1 2.4.7 3.5.7h8.6c1.7.3 3-1.2 4.4-1.9q3-1.5 6-2.3a66 66 0 0 1 36.4 2.8c1.1.4 2.3 1.2 3.5 1.5H183" class="b"/><path d="M9 24.6h3.5c9.5-8.4 24.7-7.2 34.6 0h46.7c1.1 0 2.4-.4 3.5-.4q2.2-.3 4.3 0c1.1 0 2.4.5 3.5.4h11.2c1.2-.3 2.4-1.4 3.5-1.9q2.5-1.3 5.2-2.2a46 46 0 0 1 19-.6q9.3 1.4 18.2 4.7h17.3q1.7.2 3.5-.2" class="b"/><path d="M9 22.5h2.6c8.3-6.6 19.7-8 29.4-4.1 11.8 5.1 2 4 17.3 4h52c2 0 4.1.3 6 0a30 30 0 0 1 17.4-5 67 67 0 0 1 20.7 4.2q2 1 4.4.9h20.7c1.2 0 2.6 0 3.5-.9" class="b"/><path d="M9 20.4h2.6a31 31 0 0 1 34.6-2.1c1.2.6 2.3 1.7 3.5 2h54.5c17.8 0 6.3 1 20.8-4 4.5-1.3 9.3-1 13.8 0s8.7 2.7 13 4h29.5c.4 0 1.3-.6 1.7-1" class="b"/><path d="M9 18.3q1.8 0 3.5-.2a34 34 0 0 1 8.6-4.6 31 31 0 0 1 28.6 4.7h65.8c1.2-.1 2.3-1 3.4-1.5q3-1.3 6.1-2.3c4.5-1.3 9.4-.6 13.8.7q4 1.2 7.8 3c2 .3 4.1 0 6.1.1h26.8c1.2 0 2.7.2 3.5-.8" class="b"/></svg>