<svg xmlns="http://www.w3.org/2000/svg" id="a" width="1920" height="2400" viewBox="0 0 192 240"><defs><style>.b{fill:none;stroke:#fff;stroke-miterlimit:10;stroke-width:.3px}</style></defs><path d="M0 0h192v240H0z" style="stroke-width:0"/><path d="M9.6 226.9c1.3.3 2.9.1 4.3.2h40.4c2.5-.6 5.1-1.4 7.7-1.3q3.2 0 6 1.3H106c2.3-.3 4.6-1.4 6.9-1.7 4.7-1 10.1-1.7 14.6.7.7.4 1.7 1.1 2.6 1h18c1.5-.7 2.9-1.8 4.3-2.3a21 21 0 0 1 19.8 2c1.3.4 3 .2 4.3.2h6" class="b"/><path d="M9.6 225h44.7c2 .1 4-.6 6-.8l4.3.1c1.1.1 2.3.7 3.4.7h34.4l3.5-1c7.7-2 17.1-4.3 24 1h19a21 21 0 0 1 22.3-.2c1.4.3 3 .1 4.3.2h7" class="b"/><path d="M9.6 222.8H99c4.9-1 9.7-2.6 14.6-3.1 5.6-.7 11.8-.7 16.4 2.9 1.3.5 2.9.2 4.3.2h14.6c2.2-.9 4.4-2.2 6.9-2.6a21 21 0 0 1 14.6 2.6q6 .1 12 0" class="b"/><path d="M9.6 220.7h86.8c5.1-1.1 10.3-2.6 15.5-3.2 5.4-.5 11.4-.9 16.3 1.9 1 .6 2.2 1.6 3.5 1.3h17.2c.8 0 1.8-.7 2.6-1a21 21 0 0 1 12-1.2 22 22 0 0 1 6 2.2h13" class="b"/><path d="M9.6 218.6h84.2c2 0 4-.9 6-1.2q5.6-1.4 11.2-2a40 40 0 0 1 13.8.7q2.7 1 5.2 2.5h18.9c2-.6 4-1.7 6-2q3.8-.8 7.7 0 3.2.6 6 2h13.8" class="b"/><path d="M9.6 216.5h83.3c5.5-1.1 11-2.4 16.4-2.9q7.5-.8 14.6.7 2.3.5 4.3 1.8c1 .7 2.4.4 3.5.4h17.2q2.5-1.2 5.1-1.8 4-.8 7.8-.1 3 .6 6 2h14.6" class="b"/><path d="M9.6 214.4h80q2.6.1 5.1-.5l6-1.2q9-1.6 18-.7 3.1.3 6.1 1.2c1.1.3 2.2 1.3 3.4 1.2H148c3-1.2 6.2-2.3 9.5-2.2s6.4 1 9.4 2.2h15.5" class="b"/><path d="M9.6 212.3h47.3c1.7.1 3.4-.4 5.1-.4 1.7-.1 3.5.4 5.2.4H92q4.7-1 9.5-1.7c7.7-.9 15.7-1 23.2 1.4 1 .5 2.4.3 3.4.3h18.1c1.5.1 2.9-1 4.3-1.3a21 21 0 0 1 12.9.2c1 .3 2.3 1.2 3.4 1.1h15.5" class="b"/><path d="M9.6 210.2H55c2-.3 4-1.2 6-1.2a16 16 0 0 1 5.2.4q1.3.6 2.6.8h23.2a73 73 0 0 1 25-1q2.6.3 5.1 1h24.1a25 25 0 0 1 5.2-2 21 21 0 0 1 12 1.1c.7.3 1.8.9 2.6.9h16.3" class="b"/><path d="M9.6 208h44.7c1-.2 2.3-.8 3.4-1q4.3-1.3 8.6-.2c1.1.3 2.3 1 3.5 1.3H92q6-1.1 12-1.3A69 69 0 0 1 118 208h25.8q1.5 0 2.6-.7a22 22 0 0 1 12.9-1.5q3.1.6 6 2.2h17.2" class="b"/><path d="M9.6 206h42.1l2.6-.1q1.6-.8 3.4-1.3 4.3-1.3 8.6-.1 1.8.6 3.5 1.5H92c2.9-.3 5.7-1 8.6-1q6.5-.1 13 1h29.2c.8 0 1.8-.7 2.5-1a22 22 0 0 1 13-1.5q3.5.8 6.8 2.5h17.2" class="b"/><path d="M9.6 203.9h43c1.8.2 3.4-1.1 5.1-1.5q3.4-1 6.9-.4c1.8.2 3.5 1.2 5.2 1.9h23.1q7.8-1.4 15.6-.2c2.8.4 5.7.1 8.6.2H142q3-1.6 6-2.5c6.2-1.6 11.6-.3 17.2 2.5h17.2" class="b"/><path d="M9.6 201.8h43.8c1.5 0 2.9-1 4.3-1.3a16 16 0 0 1 6.9-.3q2.3.6 4.3 1.6h23.2q3.9-.6 7.8-.6c3.7 0 7.4.8 11.1.6h30.2l2.5-1.4a22 22 0 0 1 17.2-.7c1.5.5 2.9 1.6 4.3 2h17.2" class="b"/><path d="M9.6 199.7H55q1.8-.7 3.5-1a15 15 0 0 1 8.6 1h11.2c6-.1 12 .2 18-.5 3.4-.3 7 .1 10.3.4h33.6c1.2-.2 2.3-1.3 3.4-1.7a21 21 0 0 1 17.2-.4c1.5.5 2.9 1.6 4.3 2.1h17.2" class="b"/><path d="M9.6 197.6h31.8c6.6-.1 13.2.2 19.8-.3 3.6.4 7.4.2 11.1.3h16.4q2.6-.1 5.1-.5 3.9-.3 7.8 0c1.7 0 3.5.5 5.1.5h33.6c1.2-.3 2.3-1.4 3.4-2a20 20 0 0 1 17.2-.3c1.5.5 2.8 1.8 4.3 2.3h17.2" class="b"/><path d="M9.6 195.2q1.2.4 2.5.3H87c3.4.1 6.8-.7 10.3-.7q4.3 0 8.6.7h20.6c1.1-.1 2.4-.5 3.5-.4 3.6.6 7.4.3 11.1.4a19 19 0 0 1 21.6-1.5c1 .6 2 1.7 3.4 1.5h16.3" class="b"/><path d="M9.6 190.7q1.6 1.4 3.4 2.6h75.7c3.4.2 6.9-.6 10.3-.5q3 .1 6 .5H124c2.6-1.5 5.8-2 8.6-1.2 1.2.2 2.3 1.2 3.5 1.2 2 0 4 .3 6-.2a16 16 0 0 1 9.5-4 19 19 0 0 1 12 3.1c.6.6 1.7 1.3 2.6 1.1h16.3" class="b"/><path d="M9.6 186.5c2.4 1.3 4.6 3.2 6.8 4.7h77.4a45 45 0 0 1 10.4 0h17.1c1.8-.3 3.4-1.7 5.2-2 3.5-1 7.5-.3 10.3 2h5.2c.9-.4 1.8-1.3 2.6-1.8q1.6-1 3.4-1.7c5.8-1.9 12.8-.8 17.2 3.5h6c1.4-.2 3-.8 4.3-.7q1.8.1 3.5.7h3.4" class="b"/><path d="M9.6 182.5q4 2 7.7 4.5c1.3.7 2.6 2.4 4.3 2.1H92q3.9 0 7.8-.2 3 .2 6 .2h14.6c3.1-1.8 6.6-3.5 10.3-3.1q2.8.2 5.2 1.5c.8.5 1.7 1.4 2.6 1.6h4.3c5.6-6 16.3-6 22.3-.4q.8.5 1.8.4h3.4c.8-.1 1.8-.7 2.6-1q3-.9 6 0c1 .4 2.3 1.2 3.4 1" class="b"/><path d="M9.6 178.8a78 78 0 0 1 13.7 7.3q1.1 1 2.6 1h68.8l6-.3q2.6 0 5.2.2h13.7c3-1.6 6-3.5 9.5-3.6 3-.2 6.2.6 8.6 2.5.3.4 1.3 1 1.7 1.1h3.5c.5 0 1.3-.7 1.7-1.1q2-1.6 4.3-2.5c5.7-2 12.9-1 17.2 3.4q1.2.3 2.6.2h1.7l1.7-.9c3.2-1.8 7.1-1.1 10.3.4" class="b"/><path d="M9.6 175.4a69 69 0 0 1 18.9 9.5h68.8q5.2-1 10.3 0h12a38 38 0 0 1 5.2-2.8c3.8-1.6 8.4-1.4 12 .6q1.5.8 2.6 2c1.3.4 3 .2 4.3.2 2-1.7 4.2-3.4 6.9-4 5.6-1.6 12.4-.5 16.3 4 1.7-.1 3.9.5 5.2-.9 3-2 7-1.7 10.3-.4" class="b"/><path d="M9.6 172.2a73 73 0 0 1 19.7 9q1.2 1 2.6 1.6h64.5c4.3-.8 8.7-1.4 13 0h10.2c2.2-1.3 4.5-2.8 7-3.5a14 14 0 0 1 13.7 3.5h4.3c5.8-6.5 17.3-6.2 23.2 0h3.4a11 11 0 0 1 11.2-1.7" class="b"/><path d="M9.6 169.3c8.6 2.1 17.2 5.5 24 11.4h61.1c1.4.2 3-.4 4.3-.7q3.4-.7 6.9-.6 3 .3 6 1.3h8.6c5.5-4.6 14.3-5.6 19.8-.4q1.1.6 2.6.4c1.4 0 2.4 0 3.4-1.2a17 17 0 0 1 22.4 1.2h3.4c2.9-2.6 6.7-3 10.3-2" class="b"/><path d="M9.6 166.7a54 54 0 0 1 24.9 11.5c1.2.7 3 .3 4.3.4 2.3 0 4.6.2 6.9-.5q6-.7 12 0c2 0 4 .5 6 .5h27.5c1.7 0 3.6.2 5.2-.2q4.6-1.6 9.5-1.6 4 0 7.7 1.8h7.7c5.8-4.6 14.3-5.2 19.8 0h4.3q1.4-1 2.6-2 2.4-1.5 5.2-2.1c5.7-1.4 12 0 16.3 4h3.4q4.3-3.1 9.5-1.8" class="b"/><path d="M9.6 164.3q10 1.5 18.9 6.5c2.4 1.5 5 3.3 6.9 5.4 1.3.5 2.9.2 4.3.3H43q3.3-1.4 6.9-1.5 9.5-.6 18.9 1.3c1 .3 2.3.1 3.4.2h23.3l2.5-1q3-.9 6-1.2 4-.3 7.8.7l3.4 1.5h1.7c2-.1 4.3.3 6-.3q1.7-1.1 3.5-2a15 15 0 0 1 14.6 2.2q2.6.2 5.2 0a18.4 18.4 0 0 1 24 0h1.8q2 .3 3.4-.8 3.2-1.6 7-.7" class="b"/><path d="M9.6 162.1c9.9 1 19.5 5.2 26.6 12.3h6c.9 0 1.8-.6 2.6-.9q5.5-1.4 11.2-1.4 6 0 12 .8c1.8.2 3.5 1.2 5.2 1.5h21.5c.8.1 1.8-.4 2.6-.7a26 26 0 0 1 11.1-2q4.6.4 8.6 2.7h6c1.6.2 3-1.3 4.4-1.7a16 16 0 0 1 11.1 0c1.2.4 2.3 1.5 3.5 1.7h5.1a19 19 0 0 1 21.5-1.6c1 .7 2.1 1.8 3.5 1.6h3.4q3.2-2 7-1.2" class="b"/><path d="M9.6 160.2c9.9.7 19.7 5 26.6 12q3.4.1 6.9 0 2-1 4.3-1.5a61 61 0 0 1 13.8-1.2c4.3.1 9 .4 12.8 2.7q5.3.2 10.4 0h11.1c2.6-.9 5-2.2 7.8-2.6q4.7-.8 9.5.3c1 .3 2.4.7 3.4 1.2.8.4 1.7 1.2 2.6 1.2 2.5-.2 5.3.2 7.7-.2q1.6-1 3.4-1.5c2.8-.7 6-.6 8.6.3.8.2 2 .7 2.6 1.2 1 .3 2.4.1 3.5.2h3.4c1.6-1 3.3-2.2 5.2-2.7 5.9-1.9 13-1.3 18 2.6h6q2.6-1 5.2-.6" class="b"/><path d="M9.6 158.5c8.7.3 17.4 3.8 24 9.5 2.3 2.2 1.9 2.3 5.2 2.2 1.7-.2 3.6.3 5.1-.3 5-2 10.3-2.5 15.5-2.8 5.3-.2 11 0 15.5 3h20.6q1 .3 1.8-.4l3.4-1.5a23 23 0 0 1 16.3.7c1.1.5 2.2 1.5 3.5 1.3h7.7c2-.6 4-1.4 6-1.4q3.7-.2 7 1.3h8.5q1.6-1 3.5-1.8a22 22 0 0 1 14.6 0c1.5.4 2.8 1.5 4.3 1.9h10.3" class="b"/><path d="M9.6 157.2c9.6 0 19 4.1 25.8 10.9H44a61 61 0 0 1 24.9-2.8q2.2.4 4.3 1.5c.8.4 1.6 1.3 2.6 1.2h21.5a22 22 0 0 1 21.5-.7q1.5 1 3.4.7h9.5q2-.4 4.3-.5t4.3.5h11.2a22 22 0 0 1 17.2-1.1c1 .3 2.2 1.2 3.4 1.2h10.3" class="b"/><path d="M9.6 156c9.3-.4 18 3.8 24.9 10h11.2c4.8-1.3 9.6-2.6 14.6-3a20 20 0 0 1 14.6 3h22.4c.9.1 1.8-.6 2.5-1q1.7-1 3.5-1.4c5.7-1.7 12.1-.8 17.2 2.3h34.4a22 22 0 0 1 6.9-1.3q4.4 0 8.6 1.3h12" class="b"/><path d="M9.6 155.2q3.4-.1 6.8.3c6 1.2 11.8 4.2 16.4 8.3h9.4q3.9.1 7.8 0c7.6-2.2 17-5.3 24 0h11.2l3.5-.3 3.4.3h7.7q1.6-1.2 3.5-1.9 3.7-1.2 7.7-1 3.6.3 7 1.6c1 .4 2.1 1.4 3.3 1.3h61.1" class="b"/><path d="M9.6 154.8c6-.6 11 .6 16.3 3.6l3.4 2.3q1.1 1.1 2.6 1h22.4c3.8-1.3 7.9-2.5 12-2.3q2.2.1 4.3 1c1.1.4 2.2 1.5 3.5 1.3h8.6q2.4-1 5.1-1.5 3-.3 6 .7 1 .3 1.7.8h6.1q2.3-1.6 5.1-2.2a20 20 0 0 1 9.5.6c1.4.4 2.9 1.3 4.3 1.6h61.9" class="b"/><path d="M9.6 154.7c7-1.1 12.3.9 18 5h31q2.2-.7 4.3-1.2 3-.7 6 .2c1.1.2 2.3 1 3.4 1H81c1.2-.5 2.3-1.3 3.5-1.6a17 17 0 0 1 12 .3c1 .5 2.2 1.4 3.5 1.2h3.4q2.9-1.6 6-1.8 4.9-.3 9.5 1.7 3.4.1 6.9.1h56.7" class="b"/><path d="M9.6 155.2c4-.8 7.3-.9 11.1 1l2.6 1.3h56.8q2-1.2 4.3-2a18 18 0 0 1 16.3 2h5.2a16 16 0 0 1 5.1-1c2 0 4.1.6 6 1h65.5" class="b"/><path d="M9.6 155.4h69.6q1-.1 1.7-.7a20 20 0 0 1 10.4-2.7 22 22 0 0 1 10.3 2.5q1.2.9 2.6 1H148q2.2-.5 4.3-.5c2.6 0 5.2.6 7.8.4h22.3" class="b"/><path d="M9.6 153.3h31.8c1.1 0 2.3-.7 3.4-1q2.6-.6 5.2-.6c2.6 0 5.2.9 7.7 1.6h22.4l2.6-1.3a24 24 0 0 1 20.6.6q.8.6 1.7.7h42.2a23 23 0 0 1 11.1-.5q1.3.5 2.6.5h21.5" class="b"/><path d="M9.6 151.2h18.9c3.7-.1 7.5.2 11.2-.1 4.6-2.5 10.3-3 15.4-1.8 1.8.4 3.5 1.3 5.2 1.9h21.4q1-.1 1.8-.5a25 25 0 0 1 16.4-1.2q2.6.8 5.1 1.7h40.4q1.4 0 2.6-.6 2.2-.5 4.3-.7 3-.2 6 .4c1.4.2 2.9 1 4.3.9h19.8" class="b"/><path d="M9.6 149h26.6q1.4.1 2.6-.7a24 24 0 0 1 12.9-2.4q5.4.6 10.3 3.2h29.3q2-.2 4.3-.2 3 .3 6 .2h43.8c2.3-.6 4.6-1.4 7-1.5q3-.3 6 .5c1.3.2 2.8 1.1 4.2 1h19.8" class="b"/><path d="M9.6 147h24.9c.9.1 1.8-.5 2.6-.9a27 27 0 0 1 21.5-1l2.5 1.3a3 3 0 0 0 1.8.6h14.6c1.4 0 2.9-.7 4.3-.9q3.4-.5 6.9-.6 5.2 0 10.3.6c2 .2 4 .9 6 .9h39.6q1.3-.1 2.5-.7a21 21 0 0 1 10.4-.3c1 .2 2.3 1 3.4 1h21.5" class="b"/><path d="M9.6 144.9h23.2c1.2.1 2.3-.8 3.4-1.2a29 29 0 0 1 19-1.5 22 22 0 0 1 5 2.2c1 .7 2.4.4 3.5.5h7.8c.8 0 1.8-.7 2.5-1q2.6-1 5.2-1.7a50 50 0 0 1 30.1 2.7h34.4q1.8 0 3.5-.6t3.4-.6q4-.2 7.7 1.2h11.2q2.5-1 5.2-.9c1.4 0 2.9.6 4.3.9h3.4" class="b"/><path d="M9.6 142.8H31c3.3-1 6.7-2.6 10.3-3q6-1 12 .7 2.8.8 5.2 2.3h8.6q2-1 4.3-2.1 4.5-2 9.4-2.7a52 52 0 0 1 27.6 3.4c1 .4 2.2 1.3 3.4 1.4h31.8c2.3 0 4.6-.9 6.9-.7 2.4 0 4.5 1 6.9.7h7.7c1.4-.5 2.8-1.5 4.3-1.8q4.4-1.4 8.6-.1c1.5.4 2.9 1.5 4.3 1.9" class="b"/><path d="M9.6 140.3c2-.5 4 .3 6 .4h11.2c4.8-1 9.6-2.5 14.6-2.8a26 26 0 0 1 9.4 1q1.9.6 3.5 1.7h3.4q2.2.2 4.3-.1 3-1.5 6-2.6a53 53 0 0 1 36.1-1c12.3 4.4 3.6 3.8 18.1 3.8H160l2.6-.1 1.8-1.2a18 18 0 0 1 18-.3" class="b"/><path d="M9.6 137.5c2-.5 4 0 6 .1q4.2.3 8.6 0c6.5-.6 13.2-2.2 19.8-1q1.6.2 3.4.9 1.2.7 2.6 1h3.4c.8 0 1.9.2 2.6-.4 3.4-2 7.4-2.8 11.2-3.9a55.8 55.8 0 0 1 43 2.5c1.4.6 2.7 2 4.3 1.9h43.8c.4 0 1.4 0 1.8-.2l1.7-1.2c6.2-4 13.9-4.8 20.6-1.6" class="b"/><path d="M9.6 135c1.9-.5 4-.2 6-.2q4.7 0 9.4-.3c6.3-.4 13-1.4 19 1.2 1.2 1 2.8.7 4.3.7 1.3.3 2.3-.7 3.4-1.3 4.5-2.3 9.7-3.2 14.6-4.2 4.8-1 9.7-2.1 14.6-2.4a59 59 0 0 1 30.1 6.2c1.1.5 2.2 1.7 3.5 1.8h43q1.3-1 2.6-1.7c6.6-4.2 15-5.5 22.3-2.4" class="b"/><path d="M9.6 132.8c1.9-.6 4-.4 6-.5q3.4 0 6.9-.4c6.2-.3 14.4-1.5 19.7 2.4h3.5c6-4.8 14.1-5.5 21.5-6.8a74 74 0 0 1 29.2-.5 52 52 0 0 1 15.5 6c.8.4 1.7 1.2 2.6 1.3h41.3a29 29 0 0 1 26.6-4.8" class="b"/><path d="M9.6 130.8q2.5-.7 5.1-.7l6.9-.6c5.7-.5 11.8-1.2 17.2 1.3 1 .5 2 1.7 3.4 1.4 1.5.3 2.4-1 3.5-1.8a43 43 0 0 1 18-5.2c5.4-.7 10.9-1.6 16.4-1.7a65 65 0 0 1 24 3.5q3.7 1.3 7 3.3c1 .5 2.1 1.7 3.4 2H154q1.4-.6 2.6-1.6a31 31 0 0 1 25.8-3.9" class="b"/><path d="M9.6 129.1c2.7-1 5.7-1 8.6-1.5a54 54 0 0 1 14.6-.7q2.7.3 5.1 1.5c.8.5 1.7 1.4 2.6 1.7h1.7c7-6.8 17.5-7 26.7-8.1 14.6-1.7 32.5-1 44.7 8q19.8.1 39.6.1a35 35 0 0 1 29.2-5.7" class="b"/><path d="M9.6 127.7c2.9-1.3 6.3-1.5 9.4-2.2 6.3-1.1 15.9-2.7 20.7 2.5q1.3.1 2.5-.3c6.5-7.4 20.1-7.2 29.3-8a90 90 0 0 1 25.8 1.3 43 43 0 0 1 16.3 7h38.7a40 40 0 0 1 30.1-5.8" class="b"/><path d="M9.6 126c1.4 0 2.9-.9 4.3-1q4.6-1.4 9.4-2.3c5.4-.7 12.4-1.3 16.4 3.2 1.6 0 2.4 0 3.4-1.4q1.5-1.4 3.4-2.4c7.4-3.9 16-3.8 24.1-4.3 11.2-.6 22.8-.3 33.6 3.4a36 36 0 0 1 6 2.8c1.3.7 2.6 2.2 4.3 2H148c1.4-.2 3 .1 4.3-.3q3-1.5 6-2.8a42 42 0 0 1 24.1-2.7" class="b"/><path d="M9.6 123.8H13l6-2c4.4-1.2 9.2-2.1 13.8-1.5 2 .3 4.3 1 6 2.4l.8.9q1.3.3 2.6.2c7.1-8.4 21-7 31-7.6q10.8-.4 21.5 1a42 42 0 0 1 18 6.6h32.7q3.5.2 7-.1l3.4-1.5a49 49 0 0 1 26.6-3.7" class="b"/><path d="M9.6 121.7h6q3-1.4 6-2.3c6.2-1.8 14-2.6 19 2.3l2.5-.1c2.3-3 6-4.4 9.5-5.4 7-1.8 14.3-1 21.5-1.3 12 .3 27.5-.3 37.8 6.7 4.3.3 8.6 0 12.9.1h28.4q4.2-1.6 8.6-2.8c6.7-2 13.7-3 20.6-2" class="b"/><path d="M9.6 119.6h7.7a29 29 0 0 1 17.2-3.3q2.8.5 5.1 2l1.8 1.3h2.5c7.9-8 20-5.3 30.2-5.5 10.9.5 22.2-.5 32.6 3.2q2.3.8 4.3 2 1.3.4 2.6.3h43c8.4-2.4 17-4.9 25.8-4" class="b"/><path d="M9.6 117.5h8.6c.8 0 1.8-.7 2.5-1q1.7-.8 3.5-1.3 5.9-2.1 12-.8 3 .7 5.2 2.6c.3.3 1.2.6 1.7.5l2.6-.1c5.7-5.4 14.2-4.8 21.5-4l12 .6c7.4.1 15-.7 22.4.5q4.9.9 9.4 3h52.5q1.8-.1 3.4-.7 2.2-.8 4.3-1.2 5.6-1.4 11.2-1.1" class="b"/><path d="M9.6 115.4h10.3c7-4 16.6-5.6 23.2 0h4.3q2.4-1.6 5.2-2.5c4.7-1.4 9.8-.6 14.6.5 4.8.9 9.7 2 14.6 1.5 6.3-.6 12.6-2 19-1.5q3 .2 6 1c1 .2 2.3.8 3.4 1H172c1.4-.2 2.9-1 4.3-1.2q3-.5 6-.6" class="b"/><path d="M9.6 113.3h10.3c.9.1 1.8-.5 2.6-.9l3.4-1.5q5.9-2 12-.8 2.3.6 4.3 1.7c.8.5 1.6 1.5 2.6 1.5l6-.1q3-1.4 6-1.5 4 0 7.8 1.6h30.1c2.2-.3 4.6-.8 6.9-.7q3 0 6 .7H154c2.6 0 5.2-.8 7.8-.6q2.2 0 4.3.6h6c3.4-.1 7 .3 10.3-.4" class="b"/><path d="M9.6 111.2h12c7.1-4.7 17.2-5.5 24 0h24.2c1.1 0 2.3-.7 3.4-1a25 25 0 0 1 12 0c1.4.2 2.9 1 4.3 1h61.1c3.1-.8 6.2-1.8 9.5-1.7q3.4 0 6.8.8c1.1.2 2.3 1 3.5.9h12" class="b"/><path d="M9.6 109h11.1c1 .2 1.9-.4 2.6-.8q1.6-1 3.5-1.7a22 22 0 0 1 13.7-.7q2.3.6 4.3 1.8c.8.5 1.7 1.3 2.6 1.5h19.8c.8 0 1.8-.6 2.5-1q2.6-.8 5.2-1.3a31 31 0 0 1 9.5 0q4 .8 7.7 2.3H148l2.6-1a29 29 0 0 1 19.8 1h12" class="b"/><path d="M9.6 107h11.1q.9 0 1.8-.5a22 22 0 0 1 25.8.4q9.4.2 18.9 0a32 32 0 0 1 24-1c1.1.2 2.3 1 3.5 1h50.7q3.8-1.5 7.8-2.2a30 30 0 0 1 16.3 2.2h13" class="b"/><path d="M9.6 104.8h7.7c1.4 0 3 .2 4.3-.2q3-2.2 6.9-3.5a23 23 0 0 1 20.6 3.4q1.2.5 2.6.3h15.5c1.1-.1 2.3-.8 3.4-1a35 35 0 0 1 16.3-1.4q3 .5 6 1.4c1.2.3 2.4 1 3.5 1H142c1.8.2 3.5-1 5.2-1.4a31 31 0 0 1 17.2 0c1.4.4 2.8 1.3 4.3 1.4h13.7" class="b"/><path d="M9.6 102.7h6.8c1.4 0 3 .3 4.3-.2q2.4-1.9 5.2-3c8-3.8 18.2-2.6 25 3.2h18.9a41 41 0 0 1 27.5 0H141a34 34 0 0 1 14.7-2.5c3.5.2 7 1.3 10.3 2.5h16.3" class="b"/><path d="M9.6 100.6H19a25.4 25.4 0 0 1 32.7-.4c1 .7 2.3.4 3.4.4h17.3c1 .1 2.3-.4 3.4-.7l4.3-.8q9.6-1.4 18.9 1.5h38.7c1.8.1 3.5-.9 5.2-1.2a35 35 0 0 1 16.3-.2c1.7.3 3.4 1.5 5.2 1.4h18" class="b"/><path d="M9.6 98.5h7.7c1.2-.4 2.3-1.5 3.4-2.2q2.4-1.5 5.2-2.6a26 26 0 0 1 27.5 4.8h24c1.5 0 3-.7 4.4-.8a41 41 0 0 1 16.3 0c1.7.2 3.5.9 5.2.8H136a47 47 0 0 1 13.7-2.2q4 0 7.8 1c1.4.4 2.8 1.3 4.3 1.2h20.6" class="b"/><path d="M9.6 96.4h6.8c11.6-9.1 26.7-10.3 37.9 0h28.4c1.4 0 2.9-.6 4.3-.8a41 41 0 0 1 7.7-.8q6.9.2 13.8 1.6h17.2q3.9.2 7.7-.2c4.8-1.1 9.7-2 14.6-1.8q3.5.1 7 1c1.3.3 2.8 1.1 4.2 1h23.2" class="b"/><path d="M9.6 94.3c2-.1 4 .3 6-.2q4.3-3.2 9.4-5.3c9.7-3.8 22.2-2.6 29.3 5.5h6.9a15 15 0 0 1 6-1.2q4 .1 7.7 1.2h8.6c1.7 0 3.6.3 5.2-.2q4.2-1.4 8.6-1.6c6.9-.5 13.8.8 20.6 1.6 8.7 1 17.2-1.8 25.8-1.6q4 0 7.8.8c1.4.2 2.9.8 4.3 1h26.6" class="b"/><path d="M9.6 92.2h4.3l1.7-1q4.5-3 9.4-4.8c9.7-3.6 22.4-2.7 29.3 5.8h4.3c5.4-5.1 15.2-3.7 21.5-1l1.7.9q2.2.1 4.3.1h3.4q1.5.1 2.6-.5c10.2-4.2 21.3-1.2 31.8-1 5.2.1 10.4-.4 15.5-.3q6.6 0 13 1.8h25.8c1.3 0 3 .2 4.2-.2" class="b"/><path d="M9.6 90H13c1.2-.3 2.3-1.2 3.4-1.8q4.2-2.5 8.6-4a29 29 0 0 1 24.1 1.4 16 16 0 0 1 3.4 2.8c.4.5 1.2 1.4 1.8 1.7h2.5c3.4-4.5 9.4-5.5 14.7-5.1 5.4.4 11.1 1.6 15.5 5l4.3.1q1.3 0 2.5-.3 2-1.2 4.3-2 6-1.5 12-1.2c5.5 0 11 1 16.4 1.1 7.2.3 14.5.4 21.5 2.3 6.9.3 13.8 0 20.6.1h8.6c1.7 0 3.7.3 5.2-.5" class="b"/><path d="M9.6 88H12c1.6-.3 3-1.5 4.3-2.2q4.5-2.4 9.5-4c9-2.6 22-2.6 27.5 6.2h1.7c.6-.2 1.4-1.2 1.7-1.7l1.8-1.6c3.4-2.5 7.8-3.4 12-3.3 7 .2 14.7 1.5 19.8 6.5l2.6.1c.8 0 1.9.1 2.5-.5q3.1-2.3 7-3c5.8-1.4 12-1 18-.2q7.3.7 14.6 1.7 3 .4 6 1c1.4.3 3 1 4.3 1H179c1 0 2.4 0 3.4-.5" class="b"/><path d="M9.6 85.9H12l4.3-2.2Q21 81.4 26 80c8.3-2.4 21.5-2.9 26.7 5.5q.8.4 1.7.4c1.2-1 2-2.8 3.4-3.8 4-3.3 9.5-4.2 14.6-4 7.1.3 16 1.9 20.7 7.7q1.6.2 3.4 0c7.9-8.9 29.2-3.7 39.6-1.5q3 .8 6 1.6h36.1q2.2.1 4.3-.2" class="b"/><path d="M9.6 83.8H12l3.5-1.7q4.1-2 8.6-3.4a33 33 0 0 1 22.3 0q1.9.8 3.5 2.1c.8.8 1.7 2.2 2.5 3h1c.5-.3 1.3-1.5 1.6-2l1.7-2c4.3-3.7 10-4.9 15.5-4.7 7.6 0 17.8 1.7 22.4 8.4q1.2.4 2.6.3c7.2-10 27.9-4.5 37.8-1.4 1.4.4 2.9 1.3 4.3 1.4h43" class="b"/><path d="M9.6 81.7q1.6 0 3.4-.2a54 54 0 0 1 12.9-4.9c7.9-2 21.2-3.2 25.8 5h1.7c2-4.4 6.6-7.1 11.2-8.4 3.3-1 6.9-1 10.3-1 7.9.4 17 2.4 21.5 9.4.4 0 1.3 0 1.7-.2 2-3.6 6.4-5 10.4-5.6a52 52 0 0 1 27.5 5.7c.7.2 1.8.1 2.5.1h43.9" class="b"/><path d="M9.6 79.6q2 0 4.3-.2a50 50 0 0 1 10.3-3.7c7.2-1.9 15.2-3.2 22.3-.3q2 .9 3.5 2.4c.3.5 1.2 1.5 1.7 1.8h.8c.7-.4 1.5-1.5 1.8-2.1l1.7-2a24 24 0 0 1 16.3-5.7c8.7-.3 20.5 1.4 25 9.8h.8c1-.7 1.7-2.2 2.6-3a13 13 0 0 1 3.4-2c9.1-3.3 19.2-.3 27.6 3.7l2.5 1.3h48.2" class="b"/><path d="M9.6 77.5H13q1.3 0 2.6-.3Q21 75 26.8 73.8c7-1.4 19.3-3.3 24 3.6h1.8c.5-.3 1.3-1.5 1.7-2 .6-1 1.7-2 2.5-2.7a26 26 0 0 1 16.4-5.3c7.1-.2 14.7.8 20.6 5 1.9 1.3 3 3.3 4.3 5h.9c2-4.6 7.4-6.2 12-6.4 7-.3 13.9 2.2 19.8 5.7 1.4 1.2 3.5.6 5.2.7h46.4" class="b"/><path d="M9.6 75.3q3.9.2 7.7 0 4.6-1.5 9.5-2.5c7.5-1.4 18-3.5 24 2.5q1.4.1 2.6-.3A21 21 0 0 1 68 66c6.6-1 13.5-1 19.8 1 4.2 1.5 8.7 4 10.3 8.3l.9.1c2.5-4.4 6.3-6 11.2-6.4 7-.4 14 2.3 19.7 6.4h52.5" class="b"/><path d="M9.6 73.2q6 .1 12 0c6.8-1.4 13.7-3.1 20.6-2.9q3.1.2 6 1.4c.9.4 1.8 1.3 2.6 1.5h2.6c.6-.3 1.4-1.3 1.7-1.8.7-.8 1.8-1.9 2.6-2.5 5-4.1 11-5.1 17.2-5.5a30 30 0 0 1 19.8 4.9q1.5 1.2 2.6 2.7c.2.6 1 2 1.7 2.2.9-.8 1.6-2.4 2.6-3.2 2-1.9 5-2.7 7.7-3 6.9-.6 13.6 2.2 19 6.2h54.1" class="b"/><path d="M9.6 71.1q10.7.2 21.5 0c5.8-1 12.3-3 18-.5 1 .7 2.3.5 3.4.5 1.7.1 2.5 0 3.5-1.5 3-3.5 7.4-6 12-6.8a43 43 0 0 1 19.8.1c4.2 1.3 8.6 3.6 10.3 7.8l.9.4c.8-.9 1.6-2.4 2.6-3.2 2.8-2.4 6.7-3 10.3-2.8 5.6.3 10.2 2.7 14.6 6H167q3 0 6-.2 4.8.3 9.5.2" class="b"/><path d="M9.6 69h28.3q2.6.1 5.2-.3 3-.4 6 .3H56c1.2-.8 2.2-2.3 3.4-3.2q3.5-2.7 7.8-4a42 42 0 0 1 20.6-.5c4.2 1.2 8.5 3.6 10.3 7.7h.9c2.7-5.6 10-6.6 15.5-5.3a23 23 0 0 1 6.8 2.9c1.2.7 2.3 1.8 3.5 2.4H142c1.2.2 2.3-.8 3.4-1.1a18 18 0 0 1 11.2-.1c1.1.3 2.2 1.4 3.4 1.2h9.5c1-.2 2.4-.3 3.4-.3q4.8.5 9.5.3" class="b"/><path d="M9.6 67h43c2-.2 4 .1 6-.3C62.3 62.4 67 61 72.3 60a32 32 0 0 1 16.4.2c3.4 1.1 7 3.1 8.6 6.5l.8.3c.7-.2 1.5-1.3 1.8-1.8.8-1 2.2-2 3.4-2.5a18 18 0 0 1 13.8.6c2.2.8 4 2.4 6 3.7h16.3a18 18 0 0 1 17.2-2.8q1.8.6 3.5 1.7c.6.6 1.6 1.3 2.5 1.1h19.8" class="b"/><path d="M9.6 64.8h18.9c1 0 2.3-.4 3.4-.4q2.2 0 4.3.3 2.6.1 5.2.1 9.9.2 19.8-.1c3-3.2 7-4.3 11.1-5.4 5-1.3 10.4-1.9 15.5-.5 3.4 1 7 2.7 8.6 6q1 0 1.7-.2c2.7-4.7 9-5.5 13.8-4.5q3.2.7 6 2.4c1.2.6 2.3 1.7 3.5 2.3h15.4A19.4 19.4 0 0 1 161 63c1 .7 2 2 3.5 1.8h18" class="b"/><path d="M9.6 62.7h14.6q3-1.5 6-2.2a19 19 0 0 1 11.2 1c1 .6 2.2 1.4 3.4 1.2h19.8c2.5-2 5.7-2.8 8.6-3.8 6.8-2.4 16.6-2.8 21.5 3.5q.8.3 1.7.3 1-.5 1.7-1.6 1.6-1.4 3.5-2.2c6.1-2.4 13-.2 18 3.8h12.9q1.4 0 2.6-.3a20 20 0 0 1 29.3.2h18" class="b"/><path d="M9.6 60.6h11.1q1 0 1.8-.5a22 22 0 0 1 25.8.5h21.4c1.2 0 2.4-1 3.5-1.4A20 20 0 0 1 88.7 58c1.6.5 2.8 1.8 4.3 2.6l2.5-.1c5.5-6.6 16.4-5.2 22.4.1h9.5c2-.1 4 .3 6-.2a21.2 21.2 0 0 1 31.8-.3q1.2.7 2.6.5h14.6" class="b"/><path d="M9.6 58.5q5.2.2 10.3-.1c6.6-5.3 16-7.4 24-4.6a24 24 0 0 1 7.8 4.5l1.7.2h22.4l2.5-.9c2.8-.8 6-1 8.6 0l1.8.9h1.7c1 0 2.4.2 3.4-.3Q96 56.1 99 55a18 18 0 0 1 17.2 3.2q1.2.4 2.6.3h12.9c9.7-11.5 25.3-11 35.2 0h15.5" class="b"/><path d="M9.6 56.4h7.7c1.3-.3 2.3-1.6 3.4-2.2q3-1.9 6-3.2c9.5-3.8 21-1.9 28.4 5 1.6.7 3.5.3 5.2.4h30.9a19 19 0 0 1 24.1-.1q3.9.2 7.8 0 3.8.2 7.7 0c9.8-12.4 27-11.6 37 0q7.3.2 14.6 0" class="b"/><path d="M9.6 54.3h6c1.2-.5 2.3-1.7 3.4-2.4q3.2-2.3 6.9-3.8c11-4.7 24.1-2 32.7 6q7.2.3 14.6.2h16.3c5.4-4 12.6-5.5 19-3.4q2.2.6 4.3 2c.7.4 1.6 1.3 2.5 1.4H130c10.2-13.1 28-12.4 38.7-.2 1.6.4 3.5 0 5.1.2h8.6" class="b"/><path d="M9.6 52.2H13q1.6 0 2.6-1 4.3-3.5 9.4-5.8a35 35 0 0 1 37 6.7h25c1.2.2 2.4-.7 3.4-1.3q3-1.5 6-2.3 5.2-1.1 10.3 0 3.9 1 7 3.4 1.2.4 2.5.2h12.9c1.5-1.2 2.8-3 4.3-4a26 26 0 0 1 8.6-4.8c10.4-3.2 20.4 1.1 27.5 8.9h13" class="b"/><path d="M9.6 50c1.3 0 3 .4 4.3-.3a59 59 0 0 1 7.7-5.2c8.8-5 19.7-6.2 29.2-2.7q5.5 2 10.4 5l3.4 2.3c.7.4 1.7 1.1 2.6 1h20.6l1.7-.9a23 23 0 0 1 18.1-1.9q2.8 1 5.2 2.7h3.4c19-.2 7.6 1.8 19.8-6.2 11.4-7 25-3.6 33.5 6.3h13" class="b"/><path d="m9.6 48 3.4-.1c11-8.9 23.8-13.5 37.8-9.3 5.8 1.6 11 4.7 16.4 7.1q3 1.3 6 2.2h15.5c1.4-.4 2.8-1.3 4.3-1.8a23 23 0 0 1 15.5.4c1 .4 2.2 1.3 3.4 1.5 5.4-.1 11 .2 16.3-.2a26.7 26.7 0 0 1 37.9-3c1.2.9 2.1 2.4 3.4 3.2h7q3 .1 6-.6" class="b"/><path d="M9.6 45.8H13c11.5-9 24-13.9 38.7-10 6 1.5 11.4 4.5 17.2 6.3l6.9 2.5c1 .3 2.2 1.3 3.4 1.2h12.1a20 20 0 0 1 12-1.8q3 .6 6 1.8h18a32 32 0 0 1 17.3-9.1 26 26 0 0 1 24 9.1h9.5l4.3-.9" class="b"/><path d="M9.6 43.7c4.2 0 3.5.3 6.8-2.2q3.7-2.6 7.8-4.8c13.5-7 25.9-5.3 39.5 0 6 2.2 12.6 3.3 18.1 6.8 1 .4 2.4.2 3.4.2h9.5q1.6-.2 3.4-.5 2.2-.3 4.3 0c1.1.1 2.4.6 3.5.6h20.6c.6-.1 1.4-.7 1.7-1l2.6-2.1q4-2.9 8.6-4.4a27 27 0 0 1 27.5 6.2l.9 1c.3.1 1.3.3 1.7.2h8.6l4.3-.7" class="b"/><path d="M9.6 41.6c1.6 0 3.5.3 5.1-.2q3-2.4 6-4.4 6.4-4.2 13.8-6.1a52 52 0 0 1 30.1 3c7 2 14.5 3.6 20.6 7.7h41.3c10.1-8 22.6-11.1 34.4-4.8q2.3 1.2 4.3 2.9c.8.6 1.6 1.8 2.6 2 4.9-.2 9.8.2 14.6-.3" class="b"/><path d="M9.6 39.5h6a45 45 0 0 1 39.5-11q5.7 1.3 11.2 2.8a100 100 0 0 1 18 6.2l3.5 1.9q1.7.2 3.5.1h35.2c11.7-8.7 28.4-10.4 39.6 0h16.3" class="b"/><path d="M9.6 37.4c10.5.1 5.3.5 13.7-5a44 44 0 0 1 31.8-6.3q5.7 1 11.2 2.5a98 98 0 0 1 24.1 8.7c2.2.3 4.6 0 6.9.1h21.5c11 0 5 .7 14.6-3.4a31 31 0 0 1 31 3.4h18" class="b"/><path d="M9.6 35.3h8.6a45 45 0 0 1 41.2-10.7c9.1 1.9 18.2 4.2 26.7 7.8l6.9 3h22.3q6 0 12-.2 3-1.4 6.1-2.5a33 33 0 0 1 28.4 2.6h20.6" class="b"/><path d="M9.6 33.2h8.6q.8 0 1.7-.2l1.7-1.5 4.3-3c10.8-7 23.7-8.3 36.1-5.5q7 1.4 13.8 3.4 8.7 2.8 17.2 6.2c1.8 1 4 .5 6 .6h29.2c1.2 0 2.4-.7 3.5-1q3-.9 6-1.4a37 37 0 0 1 17.2 1.3c1 .3 2.3 1.2 3.4 1.1h24.1" class="b"/><path d="M9.6 31h11.1q1-.2 1.8-1 1.6-1.4 3.4-2.6c8.8-5.9 19.6-8.4 30.1-7.2q13.3 1.7 25.8 6.2c4.6 1.5 9.1 3.4 13.8 4.7h36.9c2.9-.3 5.8-.9 8.7-.8q2.6 0 5.1.3 2.2.5 4.3.5h31.8" class="b"/><path d="M9.6 29H19c4.5 0 3.5.1 6.9-2.4a45 45 0 0 1 28.4-8.2c9.4.5 18.6 3.3 27.5 6.3l10.3 3.5 2.6.8h87.7" class="b"/><path d="M9.6 26.9H19c2-.1 4.2.3 6-.3 8.3-6.4 18.8-10 29.3-9.6 9.1.3 18 3 26.6 6l11.2 3.7c1.7.4 3.5.1 5.2.2h85.1" class="b"/><path d="M9.6 24.8h16.3c1.3.2 2.4-1 3.4-1.6q3-2 6-3.4 8.7-4 18.1-4.1c8.9-.1 17.5 2.7 25.8 5.5l9.5 3.3c1.5.6 3.5.2 5.1.3h88.6" class="b"/><path d="M9.6 22.7h18q1.3 0 2.6-.2l1.7-1.1q2.5-1.6 5.2-2.8a41 41 0 0 1 16.3-4c8-.3 15.7 2.3 23.2 4.8l8.6 3.1q2.2.3 4.3.2h93" class="b"/><path d="M9.6 20.6h23.2c.9.1 1.9-.5 2.5-1a38 38 0 0 1 17.2-5.8 47 47 0 0 1 19.8 3.5q4.4 1.4 8.6 3.2h101.5" class="b"/><path d="M9.6 18.5h28.3q1-.2 1.8-.9l3.4-2a29 29 0 0 1 9.5-2.5A35 35 0 0 1 68 15.3l7 2.7c1.2.6 2.8.4 4.2.5h103.2" class="b"/></svg>