<svg xmlns="http://www.w3.org/2000/svg" id="a" width="1920" height="2400" viewBox="0 0 192 240"><defs><style>.b{fill:none;stroke:#fff;stroke-miterlimit:10;stroke-width:.3px}</style></defs><path d="M0 0h192v240H0z" style="stroke-width:0"/><path d="M9 220.5c6.3.1 12.9.4 18.3 3.8q1.4 1 2.5 2.3a6 6 0 0 0 1.8 1.9c.4 0 1.3-.1 1.7-.4 3.6-7 12.6-9.1 19.9-8 6.3.9 11.1 4 15.6 8.4h15.5q1.5 0 2.6-.7 1.6-.7 3.5-1.2 3.8-.8 7.8.1 2.2.6 4.3 1.8h6.9c.9-.2 1.8-1 2.6-1.5 8.3-4.6 18.3-6 27.6-6.3 9.9-.2 19.6 1.5 29.4 1.8 4.7.2 9.3-.5 13.9-1" class="b"/><path d="M9 218.1c6.8-.2 14.2 0 20 3.8q1.5 1.2 2.6 2.5c.5 1 1.2 2.2 2.6 2 4.4-8.6 15.7-10.3 24.2-7.2a26 26 0 0 1 10.4 6.8q1.2.6 2.5.4h17.4c3.3-1 7-1.4 10.3-.1q4.4.2 8.7 0c1.6.2 2.9-1.4 4.3-2q3.7-2 7.8-3.3a87 87 0 0 1 32-2.8c6.6.5 13.2 1.4 19.8 1.6 3.8.1 7.6-.5 11.3-.8" class="b"/><path d="M9 216c8.6-.7 20.9-.7 25.2 8.2h.8c1.3-.5 1.6-2.2 2.6-3.2q1.6-1.6 3.5-2.7c9.4-5.2 21.5-1.7 28.5 6h37.2q1.5 0 2.6-1l2.6-1.5q3.7-1.9 7.8-3.2 10.6-3.1 21.6-3.3c9-.2 17.9 1 26.8 1.8 4.9.5 9.8.1 14.7-.4" class="b"/><path d="M9 214.1c7.6-1 16-1.2 22.6 3.2q1.5 1 2.6 2.5c.3.6 1.2 1.8 1.7 2.3h.9c4-8.5 15.4-9.6 23.3-6.5q5.4 2.1 9.5 6.3 1.7.4 3.5.2h34.6q6-3.8 13-6a88 88 0 0 1 33.7-2.7c6.6.5 13.2 1.6 19.9 1.7q4.2 0 8.6-.5" class="b"/><path d="M9 212.5c9.2-1.7 23.1-2.3 27.8 7.5h.8c.6-.4 1.5-1.6 1.8-2.3a13 13 0 0 1 2.5-2.5c5.6-3.7 13-3.6 19-1.2q3.3 1.3 6.1 3.4c1.2.8 2.2 2.1 3.5 2.6h36.3q1.5 0 2.6-.8l3.4-1.9a64 64 0 0 1 10.4-4 89 89 0 0 1 32.9-1.8c8.9.8 17.8 2.4 26.8 1.2" class="b"/><path d="M9 211.3c8.3-2 17.8-3 25.2 2q1.5 1 2.6 2.5c.2.6 1 1.8 1.7 2h.9c3.6-7.8 14.4-8.4 21.6-5.6q3.2 1.3 6 3.3c1.2.7 2.1 2 3.5 2.4h38c1.8-.7 3.5-2 5.2-2.7q4.2-2 8.7-3.5c11.4-3.8 23.6-3 35.4-1.8 8.3.8 16.7 2.2 25.1 1.1" class="b"/><path d="M9 210.4c10-3.2 24-4.7 30.4 5.4h.8c1-.7 1.7-2.2 2.6-3q1.6-1.4 3.5-2.2c8-3.4 17.1-.4 23.3 5.2h40.7a82 82 0 0 1 11.2-5.5 54 54 0 0 1 19.9-3.2c8.4.2 16.7 1.4 25 2.2q8.2 1 16.5.2" class="b"/><path d="M9 209.9a37 37 0 0 1 21.7-2.8c3.8 1 7.7 3 9.5 6.5H42c6-9 19.8-6.4 26.9 0q16.4.2 32.8 0h9.5q1 .1 1.8-.4a66 66 0 0 1 10.3-5q8.8-3 18.2-2.6c13.8.8 27.6 4.3 41.5 2.7" class="b"/><path d="M9 209.9c8.7-4.5 19.7-7.3 28.6-2.1q1.5.9 2.6 2c.3.6 1.2 1.5 1.7 1.7h1.8c3-4.3 8.9-5.3 13.8-4.5a24 24 0 0 1 10.4 4.5h45.8c1.6-.3 3-1.5 4.3-2.2q3.3-1.9 7-3.1c5.5-2 11.5-2.3 17.3-1.7 5.5.5 11 1.9 16.4 2.5q12.1 1.5 24.2.2" class="b"/><path d="M9 209.4h1.8a34 34 0 0 1 19-5.8c4.8.3 10 1.9 13 5.8h2.6c1.4-.8 2.7-2.2 4.3-2.7 5.5-2 11.7-.5 16.5 2.7h49.2c1.7.2 3-1.4 4.4-2q3.6-2.2 7.7-3.3 8.3-2 16.5-.1c5 1 9.6 3.4 14.7 4.2 3.7.5 7.5-.2 11.2-.5q6.5-.5 13-1.3" class="b"/><path d="M9 207.3h5.3c1.3.2 2.4-1 3.4-1.5q2.2-1.1 4.4-2c7.4-2.7 16.4-2 22.5 3.5q2.1.1 4.3-.2c1.7-1.2 4-1.8 6-1.9q4.6 0 8.7 2h4.3q25.5.2 51 0c5-3.5 11.1-5.7 17.3-5.2 4.4.4 9 1.9 12.1 5.3h2.6c3-2.2 7-2.6 10.4-1.5 1.4.3 2.8 1.6 4.3 1.5H176q3.4-.9 7-1.5" class="b"/><path d="M9 205.2h9.6q1-.1 1.7-.7 1.7-1 3.5-1.8a24 24 0 0 1 19 .4q1.8 1 3.5 2h74.4c1.1-.3 2.3-1.2 3.4-1.7q2-1 4.3-1.7c3.7-1 7.8-.8 11.3 1 1.2.5 2.3 1.8 3.4 2.5h1.8c5.5-8 18.5-6 25-.4a3 3 0 0 0 1.8.4h11.2" class="b"/><path d="M9 203h13q1 0 1.8-.6 1.6-.8 3.5-1.5A25 25 0 0 1 48 203h72.7c1 0 2.5.3 3.4-.4 4.8-2.7 10.3-3.2 14.7.5h1.7c.6-.3 1.4-1.2 1.8-1.8q1.5-1.6 3.4-2.8a23 23 0 0 1 20.8-.2c11 5.6 2.2 4.7 16.4 4.7" class="b"/><path d="M9 201h16.5c.9-.1 1.8-.8 2.6-1q1.6-.8 3.5-1.3c6-1.5 12.4-.5 18.1 1.9 1 .5 2.4.3 3.5.3H125c1.4.1 2.8-.8 4.3-.9q2.7-.2 5.2 1h3.4c5-6.7 13.7-9.5 21.7-8.2 6.1.9 11.7 4.1 16.4 8.1h6.9" class="b"/><path d="M9 198.8h19.1c.9.2 1.9-.4 2.6-.7q1.7-.7 3.5-1 5.5-1.3 11.2-.3 2.6.4 5.2 1.2 2.5 1 5.2.8h79.6c1.5-1 2.7-3 4.3-4 4.1-3.3 9.4-5.1 14.7-5.3 8.9-.5 16.6 3.9 23.3 9.3h5.2" class="b"/><path d="m9 195.3 1.8 1.3q1.7.1 3.5.1h17.3c1.1 0 2.3-.7 3.4-1q3-.7 6-1 7 0 14 1.8c2.2.4 4.6.1 6.8.2h71.8a29 29 0 0 1 33.8-7.4q4.6 2 8.6 5.1c3.4 2.6 2.6 2.3 7 2.3" class="b"/><path d="M9 192c1.5.7 3 2 4.4 2.6h17.3c2.3 0 4.7.2 7-.6q6-1.4 12-.4c2 .2 4.1.8 6 1h20a20 20 0 0 1 12 0h41.7c1.7 0 3 .3 4.2-1.3a31 31 0 0 1 34.6-6.2 53 53 0 0 1 12.1 7.3q1.4.3 2.6.2" class="b"/><path d="m9 188.8 4.4 2.6q.9.7 1.7 1h24.3a37 37 0 0 1 13 0H73q3.7-1.5 7.8-1.5 2.6 0 5.2.7c1 .2 2.3.8 3.4.9h39c1 0 2.4.2 3.4-.4a33 33 0 0 1 34.6-8.2q5.4 2 10.4 5.2l3.4 2.2c.7.4 1.8 1.1 2.6 1.2" class="b"/><path d="M9 186c9.7 4.6 3.3 4.5 14.8 4.3h46.7c1.1-.1 2.3-.8 3.5-1.1a21 21 0 0 1 12 .2c1.2.2 2.3 1 3.5 1h38.1c1.3-.2 3.1.3 4.3-.5a35 35 0 0 1 33.7-8.5c6.2 1.7 11.6 5.3 17.3 8.2" class="b"/><path d="M9 183.5q4.3 1.5 7.9 4.3c1.2.8 2.9.3 4.3.4h47.6c1.4-.2 2.8-1 4.3-1.3q4.3-1.2 8.6-.4 3 .5 6 1.7H132c9.3-8.1 21.5-12.2 33.7-8.9 6.1 1.5 11.6 4.7 17.3 7.2" class="b"/><path d="M9 181.1a41 41 0 0 1 8.7 4.5q.8.6 1.8.5H67c1.5.1 3-.8 4.4-1.1a22 22 0 0 1 12 .3c1.1.4 2.3 1 3.5.8h10.4q1.3-.1 2.6-.5 2.1-.4 4.3-.4 3.5.2 7 .9h21.5a38 38 0 0 1 32.9-8.7c6 1.3 11.6 4.1 17.3 6.3" class="b"/><path d="M9 179q3.7 1.1 7 3c1.4.6 2.7 2.2 4.3 2H67c1.5 0 3-.8 4.4-1a22 22 0 0 1 9.5.5q1.2.5 2.5.5h10.4q1.8-.3 3.5-1 3.3-.9 7-.7 3.4 0 6.8.9 1.8.5 3.5.8 10 .1 19.9-.1a39 39 0 0 1 30.2-8.3c6.3.9 12.2 3.4 18.2 5.5" class="b"/><path d="M9 177a45 45 0 0 1 10.5 4.7c2.5.4 5.2 0 7.7.2h32.9c3.4-.2 7 .3 10.4-.4 2.6-.4 5.2 0 7.8.4h12a3 3 0 0 0 1.8-.5q1.7-.7 3.5-1a33 33 0 0 1 17.3.4c1.4.2 2.8 1 4.3 1h19c9-6.2 18.5-9 29.4-7.6 6 .7 11.6 2.7 17.3 4.4" class="b"/><path d="M9 175.2q5.5 1.5 10.5 4.3c1 .4 2.3.2 3.4.3h64c1.8 0 3.5-1.2 5.2-1.6q4.6-1.3 9.5-1.4 5.7 0 11.3 1.3c2 .4 4 1.4 6 1.7h19.9c1.2-.4 2.4-1.4 3.5-2q3-1.6 6-2.7a54 54 0 0 1 34.6 1.3" class="b"/><path d="M9 173.6q3.7.9 7 2.3c1.4.5 2.8 1.5 4.3 1.7h64c1.8-.2 3.5-1.2 5.2-1.6q4.7-1.3 9.5-1.6c7-.4 14.1 1 20.8 3.2h16.4q3.5.2 7 0 4.4-3 9.4-4.2a57 57 0 0 1 30.3 1" class="b"/><path d="M9 172.2q3.7.7 7 2c1.4.5 2.8 1.5 4.3 1.3H81q1.3-.2 2.5-.6a51 51 0 0 1 14.7-2.7 62 62 0 0 1 22.5 3.3h15.6q6 .2 12.1-.1 3.7-2 7.8-3c8.8-2.4 18-2 26.8.1" class="b"/><path d="M9 171c3 .4 5.9 1.6 8.7 2.4H35a39 39 0 0 1 15.6-.6c1.1.2 2.3.7 3.5.6h23.3c2 0 4-1 6-1.4q5.6-1.3 11.3-1.8a68 68 0 0 1 25 2.8c1.7.6 3.6.3 5.3.4h29.4c.8 0 1.8-.6 2.6-.9q2.5-.9 5.2-1.5c6.8-1.6 14-1.6 20.7 0" class="b"/><path d="M9 169.9c2.1.2 4.1 1 6.1 1.4h8.7q3.8.1 7.8-.1 2.4-1.1 5.2-1.6a31 31 0 0 1 17.3 1.7h20.7l5.2-1c13-2.7 26.9-3 39.8.7 1.6.6 3.5.2 5.2.3h35.5l2.5-.1 1.7-.7a36 36 0 0 1 18.2-.8" class="b"/><path d="M9 169c4.4.3 8.8.1 13 .2h6.1l1.7-.9a28 28 0 0 1 22.5-.3c1 .5 2.3 1.3 3.5 1.2h16.4c9.2-1.3 18.4-2.6 27.7-2.6a79 79 0 0 1 19.9 2.6h50.1q2.2-.7 4.4-1 4.3-.4 8.6.7" class="b"/><path d="M9 167h16.5a27 27 0 0 1 29.4 0q9.6.2 19-.2c9.8-.5 19.6-1.6 29.4-1.5q5.3.1 10.4 1 2.2.3 4.3.7H183" class="b"/><path d="M9 165h13.1q1.4 0 2.6-1c9-5.6 21.8-6.3 30.2.8 11.2.3 22.5 0 33.8.1 5.1.2 10.3-.7 15.5-.7 3.8 0 7.5.5 11.3.7h67.4" class="b"/><path d="M9 162.8h12.2a30 30 0 0 1 23.4-5.5 22 22 0 0 1 10.3 5.2c1 .5 2.4.3 3.5.3H183" class="b"/><path d="M9 160.7h10.5a38 38 0 0 1 13.8-6.3 25 25 0 0 1 22.5 6.3h127.1" class="b"/><path d="M9 158.6h8.7c1.3-.4 2.4-1.5 3.5-2.1q3-1.9 6-3.1c9.5-4 21.5-2.7 28.6 5.1h19.9c1.7.1 3.4-1 5.2-1.2q4.3-.8 8.6 0c1.8.2 3.5.9 5.2 1.3H183" class="b"/><path d="M9 156.5H17c10.4-8 24-11.5 35.4-3.4q1.5 1 2.6 2.2.7.8 1.8 1.2H73q4-2.3 8.6-2.8a28 28 0 0 1 14.7 2.6c1.7.3 3.5.1 5.2.2H183" class="b"/><path d="M9 154.3c2.3 0 4.8.3 7-.2q4.5-3.1 9.5-5.5A25.5 25.5 0 0 1 54 152c.8.7 1.7 1.8 2.6 2.2h14.7c7.1-4.8 16.7-4.4 24.3-.9l1.7 1h85.6" class="b"/><path d="M9 152.2h3.6c.7 0 1.8 0 2.5-.3q4.5-3.1 9.6-5.5a27 27 0 0 1 32 5.8h13.8q6.7-4.3 14.7-3.7 4 .3 7.8 1.9c1.4.4 2.8 1.5 4.3 1.8h54.5q3.4-.4 6.9-.4 4.4 0 8.6.4H183" class="b"/><path d="M9 150c2.2 0 4.5.6 6.1-.7q5-3.3 10.4-5.7c11-4.7 23.2-2.6 31.2 6.5h13.8q1 0 1.7-.7l2.6-1.3q4.6-1.8 9.5-1.4c4 .2 7.7 1.7 11.3 3.4h44.9c7 0 13.9.2 20.8-.4a68 68 0 0 1 11.2.4H183" class="b"/><path d="M9 148q1.9 0 3.6-.2l4.3-2.4a62 62 0 0 1 8.6-4.4c10.7-4.4 23.8-2.5 31.2 7H73q3.5-2.2 7.8-2.5a22 22 0 0 1 8.6 1.2q1.7.7 3.5 1.3H156q3 .1 6-.4a53 53 0 0 1 14.8.3q3 .1 6 .1" class="b"/><path d="M9 145.9c2.8-.7 5.4-2.2 7.9-3.5q4.9-2.8 10.4-4.7c9.7-3.3 21.6-1.4 28.5 6.6 1.2 2 2.4 1.5 4.3 1.6H74c1.3-.1 3 .1 4.3-.2q3-.8 6-.5c1.4 0 3 .7 4.3.7H112c2.4-1.1 5-2.2 7.8-2.3 2.7-.2 5.4 1 7.8 2.3h33.7q6.8-1.7 13.8-1.1c2.6.1 5.2 1.2 7.8 1" class="b"/><path d="M9 142.5c6.9-2.2 13-6.4 20-8 10.5-2.8 22 .2 28.5 9.2h5.2l2.6-.6q1.7-.1 3.5.2c.7.1 1.7.5 2.5.4q18.6 0 37.2 0c8-5.9 15.3-5.7 23.4 0q9 .1 18.1 0h11.3c2.8-.6 5.7-1.5 8.6-1.6 4.4-.3 9-.1 13 1.6" class="b"/><path d="M9 139c7.5-2 14-6.4 21.7-7.7 9.7-1.9 21.6 1 26.8 10.1 1 .4 2.4.2 3.5.2 5.3-4.7 13-1.3 19 0h26c4-3.7 9.2-6.1 14.6-6.2 5 0 9.8 2.4 13.9 5.2q1.2 1.1 2.6 1h25.1c6.5-2.5 14-3 20.7-.8" class="b"/><path d="M9 135.7c7.5-1.9 14.2-5.9 21.7-7 10.5-2 22 1.2 27.7 10.8H60c5-5.8 13.3-3.2 19.9-2.5q5.6.8 11.2 1.5c1.8.1 3.5 1 5.2 1q4 .2 7.8-.2a24 24 0 0 1 17.3-7.6c6.4.5 12.5 3.5 17.3 7.6 2 .5 4 0 6 .2h18.3q2.4-1.2 5.1-1.8c4.8-1 10-1 14.7.4" class="b"/><path d="M9 132.5c8-1.8 15.3-6 23.4-6.8 9.6-1.2 21.6 1.9 26 11.3a3 3 0 0 0 1.7.4c3.2-5.4 10.2-4.8 15.6-4.4q6.5.6 13 1.5c3 .4 6 1 8.6 2.7 1.7.3 3.5.1 5.2.2 1.5-1.2 2.7-3 4.3-4q5.4-4 12.1-5c4.1-.5 8.3.7 12.1 2.2q4.2 1.6 7.8 4.2c1.4.8 2.6 2.8 4.3 2.6h18.2l2.6-.1a28.3 28.3 0 0 1 19-1.6" class="b"/><path d="M9 129.4c8-1.6 15.4-5.5 23.4-6.3 10-1.2 22.6 2 26.9 12.2h.8c3.3-5.2 8.2-5.4 13.8-5.3q7.5.3 14.7 1.3 3.7.6 7 2 1.4.7 2.6 1.7c1 .4 2.3.2 3.4.3 1.5-1.3 2.7-3.2 4.3-4.4 4.4-3.4 10-5.7 15.6-5.8a36 36 0 0 1 20.8 8.3c.7.6 1.6 1.6 2.5 1.9h19.9q2.2-1 4.4-1.7c4.4-1.3 9.3-1.3 13.8-.2" class="b"/><path d="M9 126.5c8-1.5 15.4-5.1 23.4-6 7.5-.7 15.5.6 21.7 5.1q2 1.4 3.4 3.3c1 1.1 1.8 3 2.6 4.3l.9-.3c3-6.7 12.1-5.4 18.1-5.3 6.5.6 15.3.4 20 5.6l2.5-.1c3.4-5.8 10-9.1 16.4-10.5 9.7-1.7 21.6 4 28.6 10.5h19a3 3 0 0 0 1.7-.4 26 26 0 0 1 15.6-1.4" class="b"/><path d="M9 123.7c7.1-1.2 13.8-4 20.9-5.2 2-.4 4-.2 6-.2q3.5-.2 7 .1c5.4 1 10.8 3.3 14.6 7.4 1.5 1.4 2.3 3.7 3.5 5.2 1-.7 1.6-2.3 2.6-3 2.6-2.3 6.2-2.6 9.5-2.8a92 92 0 0 1 15.6.7c3 .5 6.1 1.2 8.6 3 1.5 1.1 2.2 3 4.3 1.7 3.5-6 10.7-9.5 17.3-10.7 10-1.4 22.2 4.3 29.4 11 6.6.3 13.3 0 20 .1 1.6-.3 3.3-1.1 5.1-1.4q4.8-.8 9.5 0" class="b"/><path d="M9 121.1q3.7-.6 7-1.4 6.4-2 13-3.4c2-.3 4 0 6-.1q4.4 0 8.7 0c5.4 1 10.8 3.5 14.7 7.5 1.4 1.4 2.2 3.7 3.4 5.2.6-.4 1.4-1.6 1.8-2.2q1-1.3 2.6-2c4-1.7 8.6-1.6 13-1.7 6.5.2 16.6-.2 20.7 6l1.7-.3c3-6.2 10-9.5 16.5-11 10.5-2.1 24.3 4 32 11.2h21.6c1.4 0 2.9-.7 4.3-.8q3.4-.3 7-.2" class="b"/><path d="M9 118.7q4.1-.6 7.9-1.5c4.3-1.1 8.6-2.6 13-3.2h9.5c2 .1 4-.2 6 .3a28 28 0 0 1 13.8 7.4c1.5 1.3 2.3 3.5 3.5 5 .7-.2 1.4-1.3 1.7-1.9.4-.4 1.2-1.2 1.8-1.5 4.2-2.2 9.2-2 13.8-2.3 5.5 0 11.3-.2 16.4 2.1q1.5.7 2.6 1.9l1.8 1.8h.8a25 25 0 0 1 18.2-11.6 44 44 0 0 1 29.4 9.7c.7.6 1.7 1.5 2.6 1.9h21.6q4.8.2 9.5-.2" class="b"/><path d="M9 116.5q3.6-.6 7-1.3c4.6-1 9.2-2.5 13.8-3.3h9.6c2 .1 4-.2 6 .2 7.4 1.6 14.8 5.6 18.2 12.6h.8c1.4-3 4.8-4.1 7.8-4.7q5.2-.9 10.4-1c5 0 10.1 0 14.7 2 .8.4 2 1.2 2.6 1.9.3.5 1.2 1.5 1.7 1.8h.9c3-6.3 9.9-9.8 16.4-11.3a31 31 0 0 1 13 .8 49 49 0 0 1 20.7 10.5H183" class="b"/><path d="M9 114.4c2.3-.5 4.8-.6 7-1.2 4.9-1 9.7-2.6 14.7-3.3q4.4-.1 8.7-.1c2 0 4-.2 6 .2 7.5 1.6 15.5 5.4 19 12.6 1.1.2 2-.6 2.6-1.5.4-.3 1.3-1 1.8-1.1q4.6-2 9.5-2.3c4.8-.6 9.8-1 14.7-.3q3.8.4 6.9 2.5c.9.7 1.7 2 2.6 2.7h.8a20 20 0 0 1 7.8-7.8c4.2-2.3 9-3.8 13.9-3.5 10.2.8 20.7 4.4 28.5 11.3h29.4" class="b"/><path d="M9 112.5c2.6-.5 5.3-.6 7.9-1.3 5.4-1.3 10.8-3 16.4-3.5 4.3 0 8.7-.4 13 .5 7.3 1.7 15.3 5.3 19 12.2q1.4.1 2.6-.3l1.7-1.3q3.3-1.7 7-2.3c7.2-1.2 22.4-3.6 26.8 4 .4 0 1.3-.2 1.7-.4 3.2-6.5 12-10.3 19-10.3 10.8.5 21.9 3.7 30.3 10.6h12q3-.6 6.1-.7 3.2 0 6 .7h4.4" class="b"/><path d="M9 110.8c2.6-.5 5.3-.6 7.9-1.2 6.3-1.5 12.5-3.5 19-3.8 10.8-.8 24 3 30.3 12.5h3.4c5-3.4 11.4-4 17.3-4.7 6.3-.6 14-.7 18.2 4.7q1 .1 1.7-.5c2.6-4.7 7.9-7.5 13-8.8a52 52 0 0 1 35.5 9.3h3.4c2.3-.1 4.7.3 7-.2a22 22 0 0 1 11.2-1.2q2.2.5 4.3 1.4h1.7" class="b"/><path d="M9 109.3c2.6-.5 5.4-.6 7.9-1.2 5.7-1.3 11.4-3.2 17.3-3.8 12-1.4 25 2.5 32.8 11.9h5.2q3.7-2 7.8-2.9a49 49 0 0 1 19-1.4q2.8.5 5.2 2c.9.6 1.7 1.8 2.6 2.3h1.7c2.6-4.8 7.9-7.5 13-8.4 3.4-.5 7-.1 10.4.2 7.8 1 15.9 2.8 22.5 7.3 1.3 1.4 3.5.8 5.2.9h3.4c.8 0 2 0 2.6-.4q5.9-2.6 12.1-1.3l2.6.8c.8.4 1.7 1 2.6.9" class="b"/><path d="M9 108c2.6-.6 5.4-.5 7.9-1.2 5.7-1.3 11.4-3.3 17.3-3.9A38 38 0 0 1 67 114q4 .2 7.8 0a57 57 0 0 1 12.1-3.4c5.7-1 11.9-1.7 17.3.6q2 .8 3.5 2.5 1.2.6 2.6.4c1.3-.8 2.1-2.5 3.4-3.4 5.5-4.4 11.6-4 18.2-3.5 8.3.8 17.2 2 24.2 6.9h6q1.8.1 3.5-.2c3.7-2 8-2.6 12.1-1.7q1.9.5 3.5 1.3a3 3 0 0 0 1.7.6" class="b"/><path d="M9 107c2.6-.7 5.4-.6 7.9-1.3 5.2-1.2 10.3-3 15.5-3.9A39 39 0 0 1 67 112h7c1.3 0 3 .1 4.3-.2 8.7-2.6 23.7-7.1 31.1 0q1.7.2 3.5.2c1.2-.7 2.2-2.2 3.4-3 4.6-3.2 10.3-2.6 15.6-2.4 7.9.5 16.2.9 23.3 4.6 1.5 1.1 3.5.7 5.2.8 2-.1 4.1.2 6-.2 3.5-1.8 7.6-2.4 11.3-1.6q1.4.3 2.6 1 1.2.8 2.6.8" class="b"/><path d="M9 106c2.6-.5 5.4-.4 7.9-1.1 5.2-1.4 10.2-3.3 15.5-4.2 12-2.4 25 .7 33.8 9.1q8.2.1 16.4 0c6-1.7 12-3.5 18.2-3.3 3.3.1 6.8.9 9.5 3q1.2.5 2.6.3h3.4c2-2 5-3.2 7.8-3.3h8.7c6.9.1 14-.2 20.7 1.9q1.8.6 3.5 1.4h9.5c1.5.2 2.9-.8 4.3-1.1q3-.8 6-.2 1.9.3 3.5 1.1 1.2.4 2.6.3" class="b"/><path d="M9 105.5c2.3-.7 4.8-.5 7-1.1 4.4-1 8.6-2.8 13-4a39 39 0 0 1 35.4 7q1.3.5 2.6.3H87q1.8.2 3.5-.5l4.3-1.2q6.5-1.7 13 0l2.6 1.1c.3.3 1.2.6 1.7.6h6c1.1 0 2.5.2 3.5-.4 3-.9 6.4-.2 9.5-.4 6 0 12.1-1.2 18.2-.9a30 30 0 0 1 7.8 1.6l2.5.1H170c1.4-.2 3-.7 4.3-.7q2.2 0 4.4.6 2 .1 4.3.1" class="b"/><path d="M9 105.2c2.3-.7 4.8-.5 7-1.2 3.8-1 7.5-2.7 11.2-3.9A38 38 0 0 1 61 104c.8.5 1.7 1.4 2.6 1.7h32c2.5-.5 5.1-1.4 7.7-1.3q2.7 0 5.2.6c.8.2 1.8.7 2.6.7H144c2.5 0 5.2-.8 7.8-.6 2.6-.1 5.1.8 7.7.6H183" class="b"/><path d="M9 103.5H17q2.7-.8 5.2-2 3.4-1.6 6.9-2.7a33 33 0 0 1 32 4.6c40.6.3 81.3 0 122 0" class="b"/><path d="M9 101.4h12.2c1.2-.2 2.4-1 3.5-1.5l4.3-1.8a35 35 0 0 1 16.4-2 29 29 0 0 1 12.1 4.4q.9.7 1.7.9h16.5c1.4-.1 3 .2 4.3-.3a22 22 0 0 1 14.7-1.2c1.4.3 2.9 1.1 4.3 1.4H183" class="b"/><path d="M9 99.3H23q1.4 0 2.6-.3A32 32 0 0 1 49 96q2.2.8 4.3 1.8c1 .5 2.2 1.6 3.5 1.5h18.1c1 .1 1.9-.6 2.6-1L80 97q4.2-1.6 8.6-2 6.7-.2 13 2 2.7 1 5.2 2.2h25.1c2 .1 4-.6 6-.5 1.7 0 3.5.5 5.2.5H183" class="b"/><path d="M9 97.1h19.1q3.3-1.6 7-2.2a27 27 0 0 1 14.6 1.3c1 .4 2.3 1.1 3.5 1h19.9c11-8.3 25-6.8 37.2-2.2l5.2 2c3.7.4 7.5 0 11.2.1h5.2c1.4-.2 2.9-.9 4.3-1q5.3-1 10.4.7c1.6.6 3.5.3 5.2.4h31.1" class="b"/><path d="M9 95h22.6q3.8-1.2 7.8-1.1 2.2 0 4.3.4c1 .1 2.3.7 3.4.7h23.4c14.6-10.7 30.7-8.2 46.7-2.4q3.4 1.2 7 2.4h9.4l2.6-1.1q3-1 6-.8 3.7 0 7 1c1.4.5 2.8 1.1 4.3 1h29.4" class="b"/><path d="M9 92.9h54.6c1.6-.1 3.5.2 5.2-.3q2.8-2.2 6-3.7 7.8-4 16.4-4.6c10.7-1 21.1 2.2 31.2 5.3 2.4.6 5 1.4 6.9 3 2 .5 4 .2 6 .3 4.3-2.8 9.9-2.7 14.7-1.7l3.5 1a7 7 0 0 0 3.5.7h25.9" class="b"/><path d="M9 90.8h57.2q2.6-1.7 5.1-3.2a54 54 0 0 1 39-5.2q5.2 1.2 10.3 2.5c2.3.7 4.8 1 7 2q1.8.8 3.4 2c1 .7 2 2.2 3.5 1.9h2.6l2.6-1.4q3.3-1.3 6.9-1.2 4.4 0 8.6 1.4c1.4.3 2.9 1.2 4.4 1.2h23.3" class="b"/><path d="M9 88.7h55.4c1.6-.6 2.9-2 4.4-2.7a60 60 0 0 1 45.8-6.2l7.8 1.8q3.5.6 6.9 2 2.3 1.1 4.3 2.7c.8.7 1.6 2 2.6 2.4h2.6c1.4-.7 2.7-1.9 4.3-2.2 5.1-1.5 10.6-.5 15.6 1l3.4 1.2H183" class="b"/><path d="M9 86.5h54.6q3.5-2.8 7.7-4.5a63.6 63.6 0 0 1 43.2-5.4l11.3 2.3c4.8 1.2 9.1 3.8 12.1 7.7h2.6c4-3.7 9.8-3.5 14.7-2.7 3.6.4 7 1.9 10.4 2.7H183" class="b"/><path d="M9 84.4h53.7q3.2-2.5 7-4 4.2-2 8.6-3.7a65 65 0 0 1 36.3-3.2c7.1 1.5 14.8 2.2 20.8 6.8q1.4 1 2.5 2.4c.3.5 1.2 1.6 1.8 1.7h1.7c.8-.4 1.8-1.4 2.6-1.8q1.6-.8 3.5-1.2c6.7-1.2 13.5.8 19.8 2.9 5.2.3 10.4 0 15.6.1" class="b"/><path d="M9 82.3h34.7l3.4-.7q3.5-.4 7 .4c1.8.6 4 .2 6 .3q1.4 0 2.6-.2l1.7-1.3q2-1.5 4.4-2.3c15.6-7 28.4-10.6 45.8-7.7 7.5 1.4 15.5 2.3 21.6 7.2.9.6 2 1.7 2.6 2.5l.9 1.2.8.6h1.8c3-3.3 7.8-3.9 12-3.6 5.4.2 10.5 2.1 15.6 3.6h13" class="b"/><path d="M9 80.2h31.2q2.6-.8 5.2-1.4a19 19 0 0 1 10.4 1q1.2.6 2.6.4h4.3q3.1-2.7 7-4l6.8-2.8c11.4-4.9 24-7 36.4-5.3 9.8 1.6 21.7 3 27.6 12 1.6.2 2.5.1 3.5-1.2 2.4-1.9 5.6-2.5 8.6-2.6 6.3-.1 12.4 1.7 18.2 3.9h12.1" class="b"/><path d="M9 78H36q1.4.1 2.6-.2 2-1 4.3-1.4c4.5-1.1 9.6-1.2 13.8.9a5 5 0 0 0 3.5.8q1.8 0 3.5-.2c2-1.8 4.5-2.6 6.9-3.6 14.8-6.6 27.6-10.6 44.1-8.1 9.4 1.5 20.3 3.4 26 11.9 1.4 0 2.4 0 3.4-1.2 2.4-2 5.6-2.7 8.7-2.8 6.5-.4 12.9 1.8 19 4h11.2" class="b"/><path d="M9 76h26c1 .1 1.8-.6 2.6-1q2.6-1 5.2-1.6c5.5-1.1 11.8-1 16.4 2.4q1.8.3 3.5.1 1.4.2 2.6-.4c2.6-1.7 5.8-2.6 8.6-4a66.5 66.5 0 0 1 57-2.9 27 27 0 0 1 6.2 3.9q1.5 1.3 2.6 3c.6.6 1.8.5 2.6.5 7.2-7 20.2-4 28.5-.4 1.3.7 3 .3 4.3.4h7.8" class="b"/><path d="M9 73.8h25.2c7.8-4.7 19.2-5.6 26.8 0h6l7.8-3.7a88 88 0 0 1 16.4-6.2c9-2.4 18.6-2.6 27.7-.6 7.3 1.6 15.3 4 19.9 10.2q1.7.7 3.5 0l1.7-1.4a16 16 0 0 1 6-2.2c7.5-1.2 15 .9 21.7 4h11.2" class="b"/><path d="M9 71.7h22.6c1.2.2 2.4-.9 3.4-1.4a28 28 0 0 1 27.7 1.4h7.8q1.7-.8 3.4-2A78 78 0 0 1 90.4 63a57 57 0 0 1 30.2-.6 33 33 0 0 1 17.3 9.4l3.5-.1c6.7-6.4 20-4.5 27.7-1q1.1.8 2.6 1.1h11.2" class="b"/><path d="M9 69.6h21.7c1 0 1.8-.8 2.6-1.2q1.6-1 3.5-1.7a30 30 0 0 1 24.2 1l2.6 1.4c.3.3 1.2.6 1.7.5H74c14-9.2 32.2-13.1 48.4-7.8q5 1.5 9.5 4.4c4.6 3.1 2.1 3.8 8.6 3.3 6.8-5.6 18.2-4.9 26-2 1 .5 2.4 1 3.4 1.6.4.3 1.3.5 1.8.5h11.2" class="b"/><path d="M9 67.5H30c.9-.2 1.8-1 2.5-1.4q1.7-1 3.5-1.8a30 30 0 0 1 17.3-1.6q4 .9 7.8 2.5c1.7.6 3.4 1.9 5.2 2.3H73c1.4-.1 3 .2 4.3-.3q3.7-2.3 7.8-4c11.9-5 25.8-6.7 38-1.7q5.3 2 9.5 5.6c.7.5 1.9.4 2.6.4h4.4c7.3-5.1 17.7-5.1 25.9-2.3q2.7 1 5.2 2.3h12.1" class="b"/><path d="M9 65.4h20q1.4-.7 2.6-1.6a28 28 0 0 1 19.9-3.7c4.8.7 9.4 2.6 13.8 4.7 1 .7 2.3.5 3.5.6H80c1.2-.2 2.4-1.1 3.5-1.6q3.3-1.5 6.9-2.9c7.1-2.5 14.9-3.7 22.5-2.7q8 1 14.7 5.6c.7.5 1.7 1.3 2.6 1.5h6.9c1.1.1 2.5 0 3.4-.7L145 63a35 35 0 0 1 20.7.3l3.5 1.5a4 4 0 0 0 1.7.6H183" class="b"/><path d="M9 63.2h19.1c.9-.2 1.8-1 2.6-1.5q2.4-1.5 5.2-2.5c7.2-2.6 15.3-2 22.5.7l6 2.5q.9.5 1.8.8h19c8.3-4 17.6-6.5 26.8-5.4q5 .7 9.5 3c5 2.6 2.6 2.5 8.7 2.4h6c1.4 0 3 .3 4.3-.3 5.7-2.4 12-3.8 18.2-3.2a27 27 0 0 1 11.2 3.5h13" class="b"/><path d="M9 61.1h17.4c1.3.2 2.4-.8 3.5-1.4a29 29 0 0 1 27.6-2l5.2 2.2c1 .5 2.2 1.4 3.5 1.2h20.7q2.7.2 5.2-.1l4.3-1.6q5.5-1.7 11.3-1.8a28 28 0 0 1 12 3c.4.2 1.3.5 1.8.5h20c1 .2 2.3-.5 3.4-1q1.6-.6 3.4-1 5.6-1.6 11.3-1.2 5.4.6 10.4 3.2h13" class="b"/><path d="M9 59h18.3c10.5-8.1 24.5-6.8 35.4-.4a3 3 0 0 0 1.7.4H100q1.8 0 3.4-.4a26 26 0 0 1 8.7 0q1.6.4 3.4.4h31.2a23.3 23.3 0 0 1 19-1.7c1.5.3 2.9 1.3 4.3 1.7h13" class="b"/><path d="M9 56.9h16.5c1.3.2 2.4-.7 3.5-1.4A28 28 0 0 1 49.7 52q4.1.8 7.8 2.6c1.5.6 2.9 1.7 4.3 2.2h87.4c.9.1 1.8-.7 2.6-1q2-.9 4.3-1.3c4.7-1 9.6.2 13.8 2.3h13" class="b"/><path d="M9 54.8h16.5l1.7-.1c.5-.3 1.3-1 1.8-1.2A27 27 0 0 1 51.5 51q4.1 1.3 7.7 3.7 6.5.1 13 0h54.5c1.4 0 3 .3 4.3-.2 3.7-1.8 8.1-2.3 12.1-1.2q1.9.5 3.5 1.5h4.3c.8 0 2-.2 2.6-.7q1.2-.8 2.6-1.1c4.3-1.3 9-.8 13 1.2 1.4 1 3.5.4 5.2.6h8.6" class="b"/><path d="M9 52.6h19.1a26 26 0 0 1 23.4-2.9 33 33 0 0 1 6 3h68.3q.9 0 1.8-.5 1.2-.8 2.6-1.4 3.6-1.6 7.7-1.9 5.1-.1 9.5 2.1c.8.4 1.8 1.3 2.6 1.6h3.5c.5 0 1.4-.5 1.7-.8q1.2-.7 2.6-1.1a17 17 0 0 1 13 1.8c1.3.3 3 0 4.3.1h7.8" class="b"/><path d="M9 50.5H30c.8-.1 1.8-.9 2.5-1.2q2.2-1.1 4.4-1.6 5.5-1.4 11.2 0c2.7.4 5.3 1.8 7.8 2.8h31.1q3-.6 6-.7 3.5 0 7 .7H124c2.2-1.3 4.4-2.8 7-3.6 6.7-2.3 15.4-1.8 20.7 3.6h3.4c4.8-4.2 12.3-3.1 17.3 0H183" class="b"/><path d="M9 48.4c3 .1 5.9-.5 8.7-.4q2.2.1 4.4.4h9.5q1.3 0 2.6-.3 1.6-.8 3.4-1.3c5.2-1.4 10.7-.5 15.6 1.6h31.1c2.8-.5 5.8-1.2 8.7-1 2.9-.1 5.8.6 8.6 1h20.8c3.4-2.4 7-4.5 11.2-5.3 6.2-1.2 13.3-.4 18.2 3.9.3.4 1.2 1.2 1.7 1.4 1.3 0 2.6.2 3.5-1 5-3.5 12.4-2.4 17.3 1h8.6" class="b"/><path d="M9 45c5-.3 10-1 14.8.2q1.8.4 3.4 1 2.7.1 5.2 0c2.9 0 5.9.4 8.7-.3q2.6-.4 5.2 0c1.4 0 2.9.5 4.3.4h30.3c2.3.2 4.6-.7 6.9-1q5.2-.7 10.4.3 1.6.2 3.4.7h12.1c2.6-.1 5.3.2 7.8-.2q2.5-1.8 5.2-3.4c8.8-4.5 20.8-4 27.7 3.6h1.7c4.3-4.3 11-4.4 16.4-2.2q1.9.8 3.5 2c2.2.4 4.6 0 7 .2" class="b"/><path d="M9 41.7c7-.4 14.2-.9 20.9 1.6l1.7.7q2.2.3 4.3.2h43.2q1.8 0 3.5-.2 2.6-.7 5.2-1 6.5-.5 13 1c2.2.4 4.6 0 6.9.2h12c1.4 0 2.4-1.4 3.5-2q2.9-2 6.1-3.1a26 26 0 0 1 20.8 1q2 1 3.4 2.6l.9 1.1q1.2.7 2.6.2c3-3.8 8.5-4.3 13-3.6q4.7 1 8.6 3.8h4.3" class="b"/><path d="M9 38.8c6.1-.2 12.3-.7 18.3.6q4.4 1 8.6 2.6h42.4c1 0 2.4.1 3.4-.1q2.6-.7 5.2-1 5.7-.4 11.3.5c2.8.8 5.7.6 8.6.6h13c.9-.2 1.8-1 2.6-1.5q2.5-1.7 5.2-3c8.6-3.9 21.7-3.7 27.6 4.5h1.8c5.1-6.5 17.7-5.5 23.3 0h2.6" class="b"/><path d="M9 36.1c4.4 0 8.8-.3 13 0q7.6.4 14.8 3 1.2.6 2.6.8h41.5q3.9-1 7.7-1a53 53 0 0 1 11.3 1h19l1.7-.1 1.8-1.3q2-1.6 4.3-2.6 6.1-3 13-3 4.9 0 9.5 2 2.3 1 4.3 2.6l1.7 2 .9.4h.8c1-.3 1.8-1.6 2.6-2.2a16 16 0 0 1 8.7-2.7c3.8 0 7.8.6 11.2 2.5 1.2.6 2.3 1.9 3.5 2.4" class="b"/><path d="M9 33.7c7-.1 14-.3 20.9 1a65 65 0 0 1 7.7 2l3.5 1.1h38c2.3.2 4.7-.3 7-.5a48 48 0 0 1 8.6.3c2.3.4 4.7.2 7 .2H118c1.2 0 2.5.2 3.5-.3q2-1.5 4.3-2.9c9-5 23.4-5.5 30.3 3.2h1.7c5.2-7 18.7-6.5 25.1-1.6" class="b"/><path d="M9 31.6c7-.1 14-.1 20.9 1q3.9.8 7.7 1.8c2 .5 4 1.5 6 1.3H119q1.8.1 3.5-.2l3.4-2.4a29 29 0 0 1 20-3.4c3.8.8 8 2.4 10.3 6q1.4 0 2.6-.3c5-6.4 17.6-6.3 24.2-2.7" class="b"/><path d="M9 29.6a130 130 0 0 1 28.6 3l3.5 1h82.1c2.3-1.3 4.5-3 7-4a27 27 0 0 1 22.4.6q1.5.8 2.6 1.8c.3.5 1.3 1.3 1.8 1.6 1.6 0 2.4 0 3.4-1.4q1.6-1.4 3.5-2.2c6-2.5 13-2.8 19-.4" class="b"/><path d="M9 27.9a154 154 0 0 1 26 2.9q2.6.7 5.2.7H125l2.6-1.6a28 28 0 0 1 4.3-2c7.7-3 19.3-3 25 3.6q1.9.1 3.5-.3a13 13 0 0 1 4.3-3.1c5.7-2.5 12.3-3 18.2-1.3" class="b"/><path d="M9 26.4c6.8.2 13.4 1.6 20 2.9q3.8.2 7.8 0H92q2.6-.5 5.2-.5t5.2.6h24.2c1.2 0 2.3-1.2 3.4-1.7a29 29 0 0 1 22.5-1.5q1.9.8 3.5 2l1.7 1.2h3.5c5.5-5.1 14.4-6.5 21.6-5.1" class="b"/><path d="M9 25c3.6.2 7 1.3 10.5 2.2h63.1q1.8.1 3.5-.5a29 29 0 0 1 16.4-1.4c2 .3 4 1.4 6 2h20.8c1.2 0 2.3-1.2 3.5-1.6q2.9-1.2 6-2c6.4-1.2 13.8-.8 19 3.4q2.6.1 5.2.1c5.4-4.4 13-6 20-5.2" class="b"/><path d="M9 24q2.3.3 4.4 1 3 .1 6 .1h6.1c2.3-.2 4.6-.7 7-.6q3.4 0 6.9.6h41.5c3.9-1.6 7.8-3.3 12-3.8 7.3-1 12.8.5 19.1 3.8h20.8q3-1.5 6-2.3c5-1.4 10.6-1.4 15.6.3q1.8.6 3.4 1.6c.7.5 1.9.4 2.6.4h4.4l1.7-1q1.6-1 3.4-1.8 6.3-2.6 13-2.3" class="b"/><path d="M9 23h10.5q3.2-1.6 6.9-2.2 5.2-.9 10.4-.2T47.2 23h28.5c1 0 2.4.1 3.4-.2 11.1-6.3 24.8-7.5 35.5.2h20.8c1.1.1 2.3-.8 3.4-1a29 29 0 0 1 16.5-.5c1 .3 2.4.9 3.4 1.4h8.6c.9-.2 1.9-1 2.6-1.3q6.1-3.1 13-3.3" class="b"/><path d="M9 20.9H17q5.2-3 11.2-3.7A42 42 0 0 1 48 19.8c1.1.3 2.3 1 3.5 1h17.3q4.3.2 8.6 0 3-1.7 6-3.1c6-2.6 12.6-3.8 19-3 5.5.7 10.4 3.1 14.8 6.2H138c2 .2 4-.8 6-1.1a30 30 0 0 1 13 .4c.7.2 1.8.7 2.6.6q5.6.1 11.2 0a27 27 0 0 1 12.1-4" class="b"/><path d="M9 18.8c2.3-.2 4.8.2 7-.3l3.5-1.9c3.7-1.7 8-2.6 12-2.7a43 43 0 0 1 19.1 3.7c1 .3 2.3 1.2 3.5 1.1h22.5c12.5-8.2 27.8-10.2 40.6-1.4l1.7 1.3q2.2.3 4.3.2H144c1.4 0 3-.5 4.3-.6a31 31 0 0 1 9.5.6h15.6c1.2-.2 2.4-1 3.5-1.5q3-1.2 6-1.7" class="b"/></svg>