<svg xmlns="http://www.w3.org/2000/svg" id="a" width="1920" height="2400" viewBox="0 0 192 240"><defs><style>.b{fill:none;stroke:#fff;stroke-miterlimit:10;stroke-width:.3px}</style></defs><path d="M0 0h192v240H0z" style="stroke-width:0"/><path d="M9 224c4.9-.2 9.6 1.7 13.9 3.6l3.5 1.7q1.1.8 2.6.8h32.8c9.3-6 21.8-5.7 31.2-.2 2.5.4 5.2 0 7.8.2h34.6q1.7-.6 3.4-1.4 2.6-1 5.2-1 3.2 0 6 .8c1.2.4 2.4 1.3 3.5 1.6h6.1c6.8-5 15.9-3.4 23.4-1" class="b"/><path d="M9 221.9c5.4-.5 10.7 1.6 15.6 3.4l4.4 1.8q1.5 1 3.4.8h25.1c1.7.3 3-.6 4.3-1.2q3-1.3 6.1-2.3a33 33 0 0 1 26 3.3q2 .4 4.3.2H137c.8 0 1.8-.7 2.6-1a19 19 0 0 1 12.1-.4q1.8.6 3.5 1.4h5.2q1.3.1 2.6-.3 1.6-1 3.4-1.5c5.4-1.7 11-1 16.5 0" class="b"/><path d="M9 220c3.5-.5 7 .3 10.4 1 5 1.3 9.9 3.2 14.8 4.8q9.9.2 19.9 0a9 9 0 0 0 4.3-.7l6-2.1a35 35 0 0 1 21.7-1.4q3 .9 6 2.4c1.2.5 2.2 1.8 3.5 1.9h43.2a4 4 0 0 0 1.8-.6q1.6-.8 3.4-1.2c4-.9 8.5-.5 12.1 1.3 1 .7 2.4.4 3.5.5h6.1q2-1.1 4.3-1.8c4.2-1.1 8.7-1 13-.7" class="b"/><path d="M9 218.6c5.2-1.1 10.6.3 15.6 1.5 4.6 1.1 9.2 2.7 13.9 3.6h13c2.3.2 4.6-.7 6.9-1.3 3.7-1 7.5-2.4 11.2-3.4 8.8-2 18.7-1 26 4.7h45.8l3.5-1.4a20 20 0 0 1 7.8-.6q3.2.5 6 2h9.6a3 3 0 0 0 1.7-.5q1.6-.8 3.4-1.2 4.7-1 9.6-1.1" class="b"/><path d="M9 217.4c9.6-2.7 22.3 2.8 32 4q9.3.9 18.2-1.5c5-1.2 9.7-3.1 14.8-3.8 7.4-1 15.8.2 21.6 5.3 1.6.4 3.5.1 5.2.2q3.4 0 6.9-.2 7.7.3 15.6.2 2-.4 4.3-.3l3.4.3h7.8c1.7 0 3.6.2 5.2-.2a19 19 0 0 1 14.7-.7q1.3.6 2.6.9h9.6c1.8.2 3.4-1.1 5.1-1.5q3.5-1 7-1.4" class="b"/><path d="M9 216.7c6.5-2.7 15-.8 21.7.4a62 62 0 0 0 25 1.5c11-2 19.7-7.2 31.2-4.1q5 1.3 8.7 4.6.8.4 1.7.4h3.5q1.7.2 3.4-.3 2.5-.9 5.2-.7c1.4 0 3 .7 4.3 1h10.4q4.7-1 9.5 0h12.1l2.7-1q3.3-1 6.9-.8c2.6 0 5.2 1 7.8 1.8h12.1a24 24 0 0 1 7.8-2.7" class="b"/><path d="M9 216.5c8.9-5.2 24-.2 33.8.6q9.2.9 18.2-1.5c4.6-1.1 9-3 13.8-3.7 7.8-1.4 15.7 0 21.6 5.4h6.1q2.8-1.6 6-1.6c2.5-.1 4.8.8 7 1.7h9.5c2.3-.4 4.6-1 7-.9q2.6 0 5.1.8h11.3c1.3-.3 2.8-1 4.3-1.2q3.8-.6 7.8 0c1.7.3 3.4 1.3 5.2 1.3h12a27 27 0 0 1 5.3-2.2" class="b"/><path d="m9 215.2 2.7-.1 2.6-1q3-.9 6-1a73 73 0 0 1 13.9 1.2q5.1 1 10.3 1 5.7 0 11.3-.2a63 63 0 0 0 7-1.6c4.2-1.2 8.4-3 12.9-3.7 7.3-1.3 15.4.1 20.7 5.4h4.4c.9.2 1.8-.5 2.6-1q2-1 4.3-1.1 3.2-.3 6 .8c1.2.3 2.3 1.4 3.5 1.3h8.7c1 0 2.3-.5 3.4-.7q6.1-1 12.1.7h10.4q2.6-.9 5.2-1a27 27 0 0 1 9.5 1h13.9q1.2-.8 2.6-1.3" class="b"/><path d="M9 213.1H17q3.8-.9 7.7-.9 5.3.1 10.4 1h23.4c1.7-.2 3.5-1 5.2-1.4 4.3-1.4 8.5-3.3 13-4 7-1.3 14.8 0 19.9 5.3h4.3c.9 0 1.8-1 2.6-1.3q2.5-1.2 5.2-1.2a15 15 0 0 1 7.8 1.9q.7.6 1.7.6h5.2q2.2.1 4.3-.1a27 27 0 0 1 14.7-1c1.7.5 3.4 1.3 5.2 1h7.8c2-.1 4-.8 6-.7 3-.2 5.8 1 8.7.8h7.8c1.7-.1 3.6.3 5.2-.3" class="b"/><path d="M9 211h51.1c1.8.2 3.5-.6 5.2-1.2 4-1.6 7.9-3.3 12.1-4 6.7-1.2 14.2.2 19 5.2h3.5q1 0 1.7-.4 1.2-.9 2.6-1.5c3.3-1.2 7.1-1 10.4.2 1.2.4 2.3 1.3 3.5 1.7h9.5c2.2-.6 4.5-1.5 6.9-1.8a32 32 0 0 1 11.2.3q2.3.5 4.4 1.4h11.2l3.5-.2q9 .5 18.2.3" class="b"/><path d="M9 208.9h54.6q2.2-.6 4.3-1.7c8.9-4.4 21-6 28.5 1.7h4.4c1.8-1.1 3.8-2.3 6-2.5q4.6-.7 8.7 1.2 1.2.7 2.6 1.3h10.4c3.9-1.3 8-2.5 12-2.6q5.3-.4 10.5 1 1.7.3 3.4 1.1c.7.6 1.8.5 2.6.5h26" class="b"/><path d="M9 206.8h56.3q1.8-.7 3.4-1.6c8.6-4.3 20.3-5.6 27.7 1.6h4.4c.8-.2 1.7-1 2.6-1.3q1.6-.7 3.4-1c3.6-.5 7.2.6 10.4 2.3h12.1q2.6-.8 5.2-1.6 6-1.6 12.1-1.5 4.4 0 8.7 1.1c1 .3 2.4.9 3.4 1.4.4.3 1.3.6 1.7.5H183" class="b"/><path d="M9 204.6h53.7q2.2.2 4.3-.1l2.6-1.3c8.3-4 19.5-5.2 26.8 1.4h5.2q1.4-.5 2.6-1 2.2-.7 4.4-.7 3.6 0 6.9 1.7H131q1.3-.3 2.6-.7c9.3-2.7 20.7-4.8 29.4.7H183" class="b"/><path d="M9 202.5h54.6q2.2.1 4.3-.1l2.6-1.3c8-3.8 18.7-4.7 26 1.3 2.2.3 4.6 0 6.9.1 1.3-.2 2.8-.7 4.3-.7q2.6 0 5.2.7h21.6c1.7-.2 3.5-1 5.2-1.4 8.4-2.3 18.4-3.9 26 1.4h17.2" class="b"/><path d="m9 199.3 1.8 1.1h34.6q11.7.2 23.4-.1c6.2-3.3 13.7-5 20.7-3.3q2.7.6 5.2 2 1.3.6 2.6 1.4h45c7.7-3.7 17.7-5.2 25 0H183" class="b"/><path d="M9 196.2c1.4.8 2.7 2.3 4.4 2h55.4a3 3 0 0 0 1.7-.4 35 35 0 0 1 9.5-3 29 29 0 0 1 18.2 3.4h35.4c1.2 0 2.4-.5 3.5-.6q2.2-.4 4.3-.2 1.8.2 3.5.9h4.3c3.8-3 9.2-3.5 13.9-2.5 1 .3 2.4.7 3.4 1.2l2.6 1.3H183" class="b"/><path d="m9 193.2 4.4 3h54.5c1-.1 2.4.2 3.4-.4a32 32 0 0 1 20.8-2.8q5 1 9.5 3.2h20c2.2-.2 4.6.2 6.9-.2q2.5-1.5 5.1-2.3c5.8-1.8 12.7-1.7 17.3 2.5h1.8c1.1-.5 2.2-1.6 3.4-2 4.6-1.6 9.9-.6 13.9 2h13" class="b"/><path d="m9 190.5 5.3 3.5h53.6q2.2.2 4.3-.1l1.7-1a38 38 0 0 1 30.3.3c.8.3 1.8.9 2.6.8h17.3c1.8-.7 3.5-2 5.2-2.6q3.8-1.7 7.8-2.3c5.7-.7 12.6.2 16.4 5h1.8c3-3 7.4-3.1 11.2-2.1q1.8.5 3.5 1.4.8.5 1.7.6H183" class="b"/><path d="M9 188q2.3 1.4 4.4 3l1.7 1h58a38 38 0 0 1 36.3-.4q1.2.5 2.6.3h7.8c.8 0 2 .1 2.6-.5a32 32 0 0 1 19.9-5.7c4.9.4 9.9 2.3 13 6.2h1.7c2.5-3 7-2.9 10.4-2 1.9.4 3.5 1.6 5.2 2H183" class="b"/><path d="M9 185.6q1.8 1.2 3.5 2.5c1 .8 2 2 3.5 1.7h57.9a35 35 0 0 1 35.5-2c1.1.6 2.2 1.7 3.5 2h6.9c6.7-4.7 15-8 23.3-6.9 5 .7 10.1 2.7 13 6.9h1.8c2.4-3 7-2.9 10.3-2l3.5 1.4a3 3 0 0 0 1.7.6h9.5" class="b"/><path d="M9 183.5c1.9 1.2 3.5 3 5.3 4.2h6.9a19 19 0 0 1 5.2-.5q1.6.1 3.4.5h28.6c3.3-1.3 7.2-1.9 10.4 0h5.1c1-.1 1.8-1.2 2.6-1.7q2.1-1.5 4.4-2.4a35 35 0 0 1 28.5.7q1.9 1 3.5 2.3.5.8 1.7 1h4.3c1-.3 1.8-1.3 2.6-1.8 8.3-5.4 19.3-7.8 28.6-3.5q2.3 1.1 4.3 2.8c.8.7 1.6 2 2.6 2.6 1 .2 2-.5 2.6-1.2l1.7-.8c3.8-1.2 8-.1 11.3 1.7 1.3.5 3 .2 4.3.3h6" class="b"/><path d="M9 181.6c1.6 1.1 3 2.8 4.4 4h4.3q3.3-1.8 7-1.7c2.6 0 5.2 1 7.7 1.7h21.7q1.2 0 2.6-.2l2.6-1.1c3.7-1.4 8-1.4 11.2 1.3h4.3c9.3-10.3 31.4-10.5 40.7 0h3.5c3-3.2 7.1-5 11.2-6.4 9-3 20.8-1.7 26.8 6.4h1.8c2.2-2.7 6.3-2.8 9.5-2 1.8.4 3.4 1.5 5.2 2h9.5" class="b"/><path d="M9 180c1.3.9 2.2 2.6 3.5 3.4h2.6c4-3.1 9.1-3.2 13.9-1.8q2.2.6 4.3 1.8h21.6q2.1-1.1 4.4-2c4-1.4 9-1.2 12 2h3.5c8.7-11 33.2-12 41.6 0 3.4.3 3-.2 5.1-2.3q3.2-2.2 7-3.6c9.4-3.8 22-2.6 28.5 6h1.7c2.8-2.7 7-2.7 10.4-1.7 1.5.4 3 1.6 4.3 1.6h9.6" class="b"/><path d="m9 178.6 1.8 2.4q1.2.5 2.6.3c3.8-4.5 10.4-4.2 15.6-2.6a26 26 0 0 1 5.1 2.5q.9.1 1.8.1H54c1.5-.6 3-1.6 4.4-2.1 5.4-2 9.4-1.7 13.8 2.1h2.6c4.2-6.2 12.7-8.9 20-9.4 6.6-.4 13.6 1.2 19 5.2q1.4 1 2.6 2.4c.2.6 1 1.6 1.7 1.8h1.7c1-1 2.2-2.4 3.5-3.2q4.5-2.7 9.5-4c6.7-1.5 14.1-.6 19.9 3.3q1.4.9 2.6 2.2c.3.5 1.2 1.4 1.7 1.7h1.7c4-3.5 9.5-2 13.9 0H183" class="b"/><path d="m9 177.6 1 1.6h1.7c1.3-1.2 2.6-2.8 4.3-3.4 6.3-2.5 13.6-.4 19 3.4h18.2q1 0 1.7-.6 1.7-1 3.5-1.8c5-2 10-1.6 13.8 2.4q1.4 0 2.6-.3c2.9-4.5 8-7 13-8.6 10.8-3.1 24.5-.8 31.1 9h1.8c4.2-5.2 11.7-7.7 18.1-7.7s13.6 2.1 17.3 7.6h2.6c3.6-3.2 9-2 13 0H183" class="b"/><path d="M9 177h1.8c2.5-4.8 8.9-5.6 13.8-4.7 4.2.6 7.8 2.6 11.3 4.8h14.7q1.7 0 3.5-.2l3.4-2c3.2-1.3 7-2 10.4-.8 1.6.6 3 2 4.3 3H74c.6-.3 1.5-1.3 1.8-1.8q1.6-1.9 3.4-3.3a32 32 0 0 1 22.5-5.5c7 1 14.6 4.2 18.2 10.6h1.7c1.3-.7 2.2-2.3 3.5-3a25 25 0 0 1 15.6-4.1c5.4.4 11.3 2.3 14.7 6.8 1.3.5 3.1.4 4.3-.6a10 10 0 0 1 5.2-.9q3.1.3 6 1.8H183" class="b"/><path d="m9 175 1-.2c3.1-6.1 11.4-6.2 17.2-4.5a27 27 0 0 1 6 2.7c1.2.6 2.3 2 3.5 2H54c5-3.6 13-5.5 17.3-.3q1.4.4 2.6.3a31 31 0 0 1 33-10c5.3 1.6 10.9 4.6 13.8 9.6q1.2.5 2.6.4c7-8.8 24-8.8 31.1-.2 1.4.2 3.2.5 4.3-.5q2.5-1.1 5.2-1 3.2.2 6 1.6h13" class="b"/><path d="M9 172.9c5.1-9.6 20-6 26.9-.4q.8.3 1.7.4H54c1.2-.5 2.4-1.4 3.5-1.8 5-2.2 9.7-2.1 13.8 1.7H74c6.4-8.7 18-12.7 28.6-11.3 5.7.7 11.2 3 15.6 6.7l2.6 2.8c.2.5 1.1 1.6 1.7 1.8q1.3.1 2.6-.2c4.3-5 11.9-6.2 18.2-5q3.7.6 6.9 2.6c1.2.7 2.2 2 3.4 2.7h2.6c.9-.2 1.8-.9 2.6-1.1q2.6-.8 5.2-.5 2.8.4 5.2 1.5H183" class="b"/><path d="M9 169.8c6-8.2 19-5.3 26-.2l1.7 1.1h16.5q1.4.2 2.6-.5c4.4-2.5 10.8-3.5 14.7.5h3.4a31.2 31.2 0 0 1 49.4 0c1 0 2.5.3 3.4-.4a13 13 0 0 1 5.2-3.2c6.3-2 14.1-1.2 19 3.5q2.2.4 4.4 0c1.7-1.2 4-1.6 6-1.6a18 18 0 0 1 7 1.7h10.3c1.4 0 3.2.3 4.4-.6" class="b"/><path d="M9 167.3c3.7-4.6 10.2-5.3 15.6-4.2 4.5.8 8.5 3 12.1 5.5H55q1 .1 1.7-.4 1.3-.7 2.6-1c3.5-1.1 7.6-1 10.4 1.4H74a32 32 0 0 1 32-11.3 30 30 0 0 1 17.3 11c1.2.6 2.9.2 4.3.3l2.6-1.6c3.1-1.7 6.9-2 10.4-1.6 2.4.4 5 1.2 6.9 2.7q1.2.7 2.6.5 1.3 0 2.6-.2a11 11 0 0 1 4.3-1.6q4-.4 7.8.6c1.1.3 2.3 1 3.5 1.2h9.5l3.4-.1 1.8-1" class="b"/><path d="M9 165.2c6.5-7 17.8-4.7 25.2-.3l2.5 1.6h20c.8 0 1.8-.5 2.6-.7q2-.7 4.3-.7 2.7.2 5.2 1.4H74c.6-.2 1.4-1 1.7-1.5l2.6-2.6a31.5 31.5 0 0 1 45.8 4c2 0 4.1.3 6.1 0 2-1.2 4.6-1.7 7-1.7q2.2 0 4.3.8 1.1.7 2.6 1c1.6-.1 3.6.3 5.1-.3 3.6-2.4 8.1-2.5 12.2-1.8q3 .7 6 2h13c.8-.2 1.8-1 2.6-1.4" class="b"/><path d="M9 163.5c6.8-7.1 18.5-4.6 26 0 1.2 1.1 2.9.9 4.3.9h19.9q2.2-.5 4.4-.5 1.2 0 2.6.4h8.6c14-15.7 35.6-16.2 49.3 0h19l1.8-.1 1.7-1.1q1.6-.9 3.5-1.3 4.7-1.2 9.5-.1c2.7.4 5.3 1.6 7.8 2.7h13l2.6-1.8" class="b"/><path d="M9 162c6.8-7 18.4-4.7 26-.2 1 .7 2.3.4 3.5.4h37.2c8.9-10 22.7-15.1 35.4-9.5q4.8 2 8.7 5.5c1.5 1.1 2.7 3 4.3 4h16.5c2.1-1.3 4.4-2.8 6.9-3.3q5.1-1.3 10.4-.2c3.3.6 6.4 2.1 9.5 3.5h13q1.3-.8 2.6-1.7" class="b"/><path d="M9 160.1h1c6-5.5 15.4-4.3 22.4-1.3 1.1.4 2.3 1.5 3.5 1.3h40.6c1.6-1 2.9-2.7 4.4-3.9q3.8-3.3 8.6-5.4c12.3-5.4 25.5-.7 33.8 9.3q7.3.2 14.7-.1c8-7 20-5.4 28.5-.3 1 .7 2.4.4 3.5.4h10.4c.9-.2 1.8-1.1 2.6-1.6" class="b"/><path d="M9 158h2.7q2-1.5 4.3-2 6.1-1.6 12.1 0c2 .4 4 1.5 6 2h44.2c12.5-14.5 31.9-15.2 44.1 0h13c9.4-8.1 21-6.8 31.1-.7q1.2.9 2.6.7h12.1l1.8-1.4" class="b"/><path d="M9 155.9h5.3a20 20 0 0 1 6-1.5q4-.3 7.8.6c1.7.3 3.4 1.1 5.2.9H74q3 .2 6-.2c11.5-13.8 30.4-14.2 41.5.2h12.1c1.8-1 3.3-2.8 5.2-3.7 4.2-2.4 9.2-3.2 13.9-2.5a33 33 0 0 1 13.8 5.2c.7.5 1.7 1.2 2.6 1h8.7c1.7-.1 3.8.5 5.1-1" class="b"/><path d="M9 153.8h70.1q1.4 0 2.6-.3c10.6-13 28.6-13.1 39 .3h12c8-8.8 20.5-8.7 30.3-3.4l4.4 2.5q1.6 1.2 3.4.9h7.8c1.4-.1 3.1.3 4.4-.4" class="b"/><path d="M9 151.7h45.1a39 39 0 0 1 11.2 0h17.3c1.3-.7 2.3-2.4 3.5-3.3q3-2.8 6.9-4.5c9.5-4.2 20.6-.4 26.8 7.7q6 .2 12.1 0c8.4-9.6 21.6-9.2 32-3.3l3.5 2q1.2 1 2.6 1.4h13" class="b"/><path d="M9 149.5h38.1c1.5 0 3-.7 4.4-1q3.8-.9 7.7-1 4.6-.3 8.7.9c.4 0 1.3.4 1.7.6q.8.6 1.8.5h13c1.7-1.3 3.2-3.3 5.1-4.6 4-2.8 9-4.2 13.9-3.8 4 .4 8 2 11.2 4.5 1.6 1.1 2.8 2.9 4.3 4h11.3c.6-.2 1.4-1 1.7-1.4 7.5-7.7 19.1-8.4 28.6-4q5 2.2 9.5 5.2c4.3.4 8.7 0 13 .2" class="b"/><path d="M9 147.4h34.6q2.3-.6 4.4-1.4 8.1-2.5 16.4-1.9 2.7.2 5.2 1.2c1.2.5 2.4 1.5 3.5 2.1h13c1.2-.7 2.2-2.1 3.4-3q2.5-1.8 5.2-3c8.5-3.2 16.4-.2 22.5 6h12.1c8.1-9.7 21.1-10.9 32-5.4q4.5 2.3 8.7 5 .8.5 1.7.4H183" class="b"/><path d="M9 145.3h30.3c1.8 0 3.5-1.2 5.2-1.6a55 55 0 0 1 8.7-2.3q6.4-1.2 13-.4 5 .7 8.6 4.3h9.5q2.2.2 4.4-.2a18.2 18.2 0 0 1 25-.8q.8.8 1.8 1h12.1a27 27 0 0 1 33.7-5.6q4.6 2.4 8.7 5.4c1.6.4 3.5.1 5.2.2h7.8" class="b"/><path d="M9 143.2H36c1.2.1 2.4-.7 3.4-1a72 72 0 0 1 17.4-4.3c4.3-.4 8.7-.4 13 .8 2.6.8 4.8 2.7 6.9 4.5h13.8q1-.1 1.7-.8 1.6-1.1 3.5-1.8c5.4-2.3 11.9-1 16.4 2.6H126c1.2-.7 2.3-2.2 3.4-3a28 28 0 0 1 32-2.7q4.2 2.2 7.8 5.4c1.6.6 3.5.2 5.2.3h8.7" class="b"/><path d="M9 141h23.4q1.5-.1 2.6-.7l4.4-1.6a74 74 0 0 1 11.2-3 48 48 0 0 1 19 .1q3.4 1.1 6 3.3c1.1.7 2.1 2.2 3.6 2h15.5c1.7-.5 3.4-1.3 5.2-1.4q2.7-.3 5.2.5c1 .2 2.3 1 3.5.9H124c1.8-1.3 3.4-3.2 5.2-4.4q5-3.8 11.3-5.1c10-2.2 21 1.6 27.7 9.3 1.6.3 3.5 0 5.1.1h9.6" class="b"/><path d="M9 139h18.2q1.4 0 2.6-.3c10.3-3.9 21-7 32-6.5a23 23 0 0 1 17.3 6.7h43.3c6-5.8 14-10.1 22.5-10.4 8.4-.2 17.6 3.2 22.5 10.4h3.4q1.7-.6 3.5-.6c1.1 0 2.4.5 3.5.6h5.1" class="b"/><path d="M9 136.8h15.6q2.3-.6 4.4-1.4a80 80 0 0 1 38.9-5c4.5.8 8.7 3.2 12.1 6.2q1.7.4 3.5.2h35.4q1.6.1 2.6-1l2.6-2q3.7-2.8 7.8-4.6a31 31 0 0 1 23.4-1.3c4.4 1.6 9 4.3 11.2 8.6.4.2 1.3.4 1.8.3.8-.5 1.7-1.4 2.6-1.8 2.4-1.2 5.3-1 7.7-.1q1.5.5 2.6 1.2c.4.4 1.3.7 1.8.7" class="b"/><path d="M9 134.7h12.2q3.4-1.3 6.9-2.3a82 82 0 0 1 41.5-3.7 29 29 0 0 1 10.4 5q1 1.1 2.6 1h35.5a46 46 0 0 1 26-10.7c6.3-.2 13 1.5 18 5.5 1.9 1.3 3 3.5 4.4 5.2h.9c3.2-5.4 10.7-4.8 15.6-2.2" class="b"/><path d="M9 132.6h8.7q6.8-2.6 13.9-4.3c11-2.8 22.4-4.2 33.7-2.3a34 34 0 0 1 14.7 5.4c1 .7 2.1 1.4 3.5 1.2h31.1q1.5 0 2.6-.9a54 54 0 0 1 13-6.9c7.6-3 16.3-4 24.2-1.4 4.6 1.5 9.4 4.2 11.2 9l1 .2c1-1.1 2-2.8 3.4-3.6 3.9-2.4 8.8-2 13-.4" class="b"/><path d="M9 130.5h4.4q1.4.1 2.6-.4 6.3-2.6 13-4a84 84 0 0 1 34.6-2.2 49 49 0 0 1 16.4 5.4l2.6 1.2h29.5l1.7-.1 1.7-1.1q1.7-1 3.5-2 5.4-3 11.2-4.8a40 40 0 0 1 23.4-1.4c5 1.4 10.1 4.3 12 9.4h1c2.7-6.3 10.5-7.2 16.4-5.4" class="b"/><path d="M9 128.4h3.5c1.5-.3 3-1.2 4.4-1.7q4.2-1.5 8.6-2.6a87 87 0 0 1 35.5-2.4q6.2 1.2 12 3.2l6.1 2.3c1.4.5 3 1.2 4.4 1.1h26.8c1.2 0 2.4-1 3.5-1.4l4.3-2.1a67 67 0 0 1 11.2-4.1 46 46 0 0 1 24.2-1.4c5 1.3 10.2 4 12.2 9h.8c2.8-6.3 10.3-7.7 16.5-6.3" class="b"/><path d="M9 126.2c2.2.3 4.2-1 6.1-1.6q4.3-1.6 8.7-2.8a87 87 0 0 1 34.6-2.2q6.6 1.2 13 3.8c3.3 1.2 6.7 3 10.3 2.8h25.1c3.3-.5 6.4-2.2 9.5-3.4q5.6-2.3 11.3-3.6c8.4-2 17.4-3.6 26-1.5 4.8 1.1 10.1 3.6 12 8.5h1c1-1.3 2-3.1 3.4-4.2 3.6-2.9 8.5-3.5 13-2.8" class="b"/><path d="M9 123.8c2.2 0 4.2-1.1 6.1-1.8q3.8-1.5 7.8-2.4c10.7-2.6 22-3.8 32.9-2.1q6.3.9 12 3.6c2.1 1 4 2.3 6.2 3H92c5.2 0 10.5.2 15.6-1 5.8-1.4 11.4-4.1 17.3-5.2a71 71 0 0 1 30.3-1.4c4 1.1 8.4 3.2 10.3 7.2q.9.5 1.8.4c2.4-6 9.6-8 15.5-7.3" class="b"/><path d="M9 121.6c3.4-.3 6.4-2.2 9.6-3a77 77 0 0 1 13.8-3c11.6-1.4 28-1.7 37.2 6.3q6.5.2 13 0h6q2.3-.1 4.4-.4c4.3-.2 8.7 0 13-.7 4.7-.7 9.2-2.3 13.8-3.6a68 68 0 0 1 9.5-1.6c8-.9 16.2-2 24.3-.8 3.6.6 7.5 1.8 10.3 4.3.9.7 1.8 2.1 2.6 2.9a3 3 0 0 0 1.8-.4c2.7-5.3 9-7.4 14.7-7" class="b"/><path d="M9 119.8q2.8-.5 5.3-1.7a64 64 0 0 1 22.4-4.9 70 70 0 0 1 20 1.3q4 1 7.7 3c1.2.6 2.3 1.7 3.5 2.4q3.4 0 7-.3c4.5.5 9.2.1 13.7.3 6.3-1.3 12.8-.6 19-1.6 4.8-.7 9.3-2.2 14-3.1q7.2-1 14.6-1.1c9-.2 24.5-2.8 30.3 5.8q1.4 0 2.6-.2c2.7-5 8.5-7.2 13.9-7" class="b"/><path d="M9 117.8q1.3 0 2.7-.2 2.4-1.2 5.2-2.2 5.9-2.3 12-3.2c10.7-1.4 28.7-1.8 37.3 5.5h4.3q1.6-.6 3.4-.7c1.5-.1 3 .6 4.4.8h11.2q2.2-.5 4.4-.7c3.4-.3 6.9-.1 10.3-.3 8-.2 15.4-3.6 23.4-3.3 4.9 0 9.8.5 14.7.2 5.5-.2 11-1 16.4-.1q3.3.4 6.1 2.2c.8.5 1.7 1.6 2.6 2h2.6c3.5-4.5 7.3-6.5 13-6.6" class="b"/><path d="M9 115.6h4.4a49 49 0 0 1 13.8-4.6c10.2-1.7 28.7-1.8 37.2 4.3 1.6.7 3.6.2 5.2.3 1.5.1 3-.7 4.4-.6q1.7 0 3.4.6h13.9l5.1-.3c5.2 0 10.5.4 15.6-.7 9-2 13.2-2.8 22.5-.5 3.7.9 7.5 1.9 11.3 1 7-1.7 15.2-4.3 21.6.5h4.3q4.4-5.4 11.3-5.7" class="b"/><path d="M9 113.5q3.5.2 7-.1 5.2-2.8 11.2-3.7a77 77 0 0 1 32.9 2q1.8.7 3.5 1.8h50.1c2.6-.3 5.2-1.2 7.8-1.4q4.6-.4 8.7 1.4h7.8q1.3-.4 2.6-1 2-.6 4.3-.5c1.8 0 3.5 1 5.2 1.5h6.9q2.6-.9 5.2-1 2.8 0 5.2 1h6c1-.5 1.8-1.5 2.7-2.1q3.2-2 6.9-2.5" class="b"/><path d="M9 111.4h9.6q4.9-2.3 10.4-3a86 86 0 0 1 32.8 3h71.8c1.3-.5 2.3-1.7 3.5-2.2a17 17 0 0 1 15.6-.4q1.4.7 2.6 1.6l.8.8 1.8.2H176l2.6-1.6q2.1-1 4.4-1.4" class="b"/><path d="M9 109.3h13c1.2-.1 2.4-.7 3.5-1l5.2-.7c7.5-.5 15 .5 22.5 1.2q6 .7 12 .5H132c1.2-.7 2.3-2 3.5-2.7q2.4-1.6 5.1-2.4c7-2.2 15-.4 20 5h19.8l2.6-.8" class="b"/><path d="M9 107.2h122q1.8-1.4 3.5-2.8 2.9-2.1 6-3.2c8.5-3 17.2-.3 23.4 6h19" class="b"/><path d="M9 105h89.2q2.6.1 5.2-.4 3-.6 6-.2c1.4 0 3 .7 4.4.6H131a24 24 0 0 1 35.4 0H183" class="b"/><path d="M9 103h27.7c1.5-.2 3-1 4.4-1.3a27 27 0 0 1 16.4 1.2h38c1.5.1 3-.7 4.4-1q3-.7 6-.7 3.1 0 6.1.8c1.1.3 2.3 1 3.5 1H131c11.2-11.6 26.6-11.3 38 0H183" class="b"/><path d="M9 100.8h24.3c.9 0 1.8-.7 2.6-1l3.4-1.4q5.2-1.7 10.4-1.6c5.2 0 10.1 1.8 14.7 4h26.9q4.2-1.4 8.6-2.2a28 28 0 0 1 13 1.2c1 .5 2.2 1.2 3.4 1h9.6c2-.1 4 .2 6-.2a25 25 0 0 1 31.2-5.7c13.2 7.5 1.8 5.7 19.9 5.9" class="b"/><path d="M9 98.7h23.4c11.4-7.8 25.6-7 37.2-.4q.8.5 1.8.4h11.2c1.8.1 3.5-.6 5.2-1l7-1.5q7.3-1.5 14.6.2a22 22 0 0 1 5.2 2.2h16.5c.4.2 1.3 0 1.7-.3l.8-1 2.7-2.4q3.8-3.1 8.6-4.4c10.7-3 20.3 1.5 28.6 8.2h9.5" class="b"/><path d="M9 96.6h20c1 0 2.4.2 3.4-.3 4-3.2 8.9-5.2 13.9-6.2q8.7-1.4 17.3 1c3.7 1.1 7.3 3.1 11.2 3.4 7.6.8 15-1.7 22.5-1.8q5.3-.4 10.4 1 2.2.5 4.3 1.5c1 .6 2.2 1.6 3.5 1.4h11.2c2.3-.1 4.7.1 7-.2 5.3-7.5 15.4-10.3 24.2-8.4 6.4 1.1 12 4.8 17.3 8.6h7.8" class="b"/><path d="M9 94.4h20c1 0 2.4.2 3.4-.3q4.6-3.9 10.4-6A38 38 0 0 1 62.7 87c3.5.7 6.9 2.2 10.4 2.8 6.9 1.2 13.8 0 20.7-.1q6.7-.3 13 1.4 3.7 1.2 7 3.4h8.6c.4-.3 1.3-.6 1.7-.7 2-.6 4.3-.4 6 .6h4.4c7.5-9.7 20.4-11 31.2-6.2q3.5 1.6 6.9 3.7c1.4.8 2.8 2.1 4.3 2.6h6" class="b"/><path d="M9 92.3h23.4C42 82.7 57.2 81 69.6 85.1q6.4 1.4 13 1.4c10.2.3 21.8-1 30.3 5.8h6.9c3-2 6.9-3 10.4-2 1.2.4 2.3 1.5 3.4 2h2.6c6-9.2 19-10.3 28.6-6.6 4.3 1.5 8.2 4 12.1 6.3q1.2.5 2.6.3h3.5" class="b"/><path d="M9 90.2h23.4c1.4-.5 2.3-2 3.5-2.8q2.9-2.3 6-3.8 8.7-4 18.2-3.6c5.6.2 10.9 2.3 16.5 2.7 7.4.8 15 .6 22.4 1.9q5.6.8 10.4 3.4l2.6 2c2 .5 4.1.1 6 .2 4-2.9 9.2-4.5 14-2.8q1.3.6 2.5 1.4c.4.4 1.2 1.2 1.7 1.4h1.8c6-8.9 18.4-9.6 27.7-6.1 4 1.4 7.6 3.6 11.2 5.7q1.2.6 2.6.4h3.5" class="b"/><path d="M9 88h24.3A37 37 0 0 1 61 77.3c5.2.1 10.3 1.9 15.5 2.3 7 .8 14 1 20.8 2.3 5.3 1 10.6 2.7 14.7 6.3h5.2a17 17 0 0 1 17.3-3.3q1.4.6 2.6 1.7c.3.5 1.2 1.3 1.7 1.6q1 0 1.7-.3c5-8 17-8.1 25.1-5.4a55 55 0 0 1 11.3 5.7h6" class="b"/><path d="M9 86h25.2A36 36 0 0 1 61 74.6c4.3 0 8.6 1.1 13 1.7 8.3 1.2 16.8 1.7 25 3.7q5.1 1.1 9.6 3.6c1.1.6 2.1 2 3.4 2.4 1.7-.2 3.6.3 5.2-.3 6.3-6 18.6-7.1 24.2.3h1.8c4.7-7.4 15.9-7.2 23.3-4.7q3.1 1 6 2.7c1.2.6 2.3 1.6 3.5 2h7" class="b"/><path d="M9 83.8h26a37 37 0 0 1 26.8-11.5c5.6 0 11 1.5 16.5 2 9.4 1.5 26 2.9 32.8 9.5h5.2c1-.2 1.8-1.2 2.6-1.8q2-1.4 4.4-2.3c7.1-2.7 16.4-2 21.6 4.1h1.7c5-6 14-5.7 20.8-3.4q3.1 1.1 6 3c1 .7 2.4.4 3.5.4h6" class="b"/><path d="M9 81.7H36c1.4-.5 2.3-2.2 3.4-3q2.9-2.4 6.1-4.1a39 39 0 0 1 26.8-3.4q11.3 1.4 22.5 4c5.8 1.2 11.7 3 16.4 6.5h6.1c7.2-7.5 24.3-8.6 31.1-.2q1.4.3 2.6.2c1-.2 1.8-1.2 2.6-1.6a14 14 0 0 1 4.4-1.4q5.2-.8 10.4 1.1c1.4.5 2.8 1.6 4.3 2H183" class="b"/><path d="M9 79.6h28.6c6-6.6 14.6-10.4 23.4-11.1 3.7-.4 7.5.2 11.2.7q14.5 2 28.6 6a32 32 0 0 1 9.5 4.3q2.2.1 4.3.1c1.1 0 2.4.2 3.5-.3 8.4-8 26.6-8.8 34.6.2q2.5.2 5.2 0 2.4-1.2 5.2-1.2 2.2 0 4.3.7c.8.2 1.7.7 2.6.6h13" class="b"/><path d="M9 77.5h30.3c6.4-7 15.8-10.6 25.1-10.7 4 0 8.1.8 12.1 1.4 8 1.2 15.7 3.5 23.4 5.7q3.5 1 7 2.3c1 .3 2.2 1.3 3.4 1.3h7.8c1 0 1.8-1.2 2.6-1.7q2.4-1.6 5.2-2.8c10.2-4.2 22.8-3.3 31.1 4.5h26" class="b"/><path d="M9 75.4h28.6c1.4-.1 3 .2 4.3-.3a32.8 32.8 0 0 1 23.4-9.6q4.4.2 8.7 1 6.5.8 13 2.8 6.3 2.2 13 4.3l6.8 1.8h13c11-9 29.1-10.6 39.8-.3 1.3.5 3 .2 4.3.3h15.6q1.7-.4 3.5-.5" class="b"/><path d="M9 73.3h35.5c4.9-5.3 12-8 19-8.7q4-.2 7.9.5 4.3.5 8.6 1.5A48 48 0 0 1 93 72c.7.4 1.7 1.2 2.6 1.3 8.6-.1 17.3.2 26-.2 11.7-9.3 29.4-11 40.6.2h18.1q1.4-.5 2.7-.5" class="b"/><path d="M9 71.1h39a27 27 0 0 1 20.8-7q6.2.5 12 2.4 4 1.4 7 4.2a3 3 0 0 0 1.7.4h2.6a9 9 0 0 1 5.2-1.8q3.6 0 7 1.7 2 .1 4.3.1h13.8q1-.1 1.7-.8l2.6-1.7q4-2.6 8.7-4.1c10-3.4 21-.9 28.5 6.6H176c2.3 0 4.7.2 7-.2" class="b"/><path d="M9 69H36l2.6-.6a14 14 0 0 1 7.8.6h6c.6 0 1.4-.7 1.8-1 5-4 11.9-4.8 18.1-3.7q4.1.4 7.8 2.3c1.2.6 2.3 1.7 3.5 2.4H86c1.4-1 2.7-2.5 4.3-3.1 4-2 8.9-1.8 13-.2q1.8.7 3.4 1.8c1 .6 2.2 1.8 3.5 1.5H125c11.8-10 28.5-12 39.8 0q9 .2 18.2 0" class="b"/><path d="M9 66.9h25.2c1.8.2 3.4-.9 5.1-1.2 4-1 8.5-.8 12.1 1.2h5.2q1.5.2 2.6-.5c3.1-1.9 6.9-2.5 10.4-2q4.6 0 8.7 2.5h4.3c7.3-8.7 20.8-8.1 28.6-.5.6.6 1.7.5 2.5.5h13c4.7-4 10.3-7.4 16.5-8.3a25 25 0 0 1 22.5 8.3H183" class="b"/><path d="M9 64.8h26a3 3 0 0 0 1.7-.4 23 23 0 0 1 9.6-2q3 0 6 1 1.8.6 3.5 1.4H80a22.3 22.3 0 0 1 33.7 0q7.5 0 14.8-.1c10.8-11 27.6-12 38 0H183" class="b"/><path d="M9 62.7h24.3c1-.1 2.4.2 3.4-.4a22 22 0 0 1 15.6-1.9q2.3.6 4.4 1.5 1.1.8 2.6.8h19C89 51 104.7 51 115.5 62.7h13.8c1.6-1 2.8-2.6 4.3-3.6q3.6-2.6 7.8-4a24 24 0 0 1 23.4 5c.8.7 1.7 2 2.6 2.6H183" class="b"/><path d="M9 60.5h24.3c1 0 2.4.2 3.4-.3a23 23 0 0 1 15.6-2.1q3.6.7 7 2.4h18.1c1.2-.8 2.3-2.2 3.5-3.1q2.8-2.4 6-4c8-4 18-2.8 25.1 2.7 6.6 5.3 2.2 4.4 11.3 4.4h5.2q1.3.1 2.6-.3l3.4-3.2c10.7-8.3 25-6.9 33.8 3.5H183" class="b"/><path d="M9 58.4H36l1.7-.9a24 24 0 0 1 19 0c.8.4 1.8 1 2.6 1h18.2c2.3-2 4.2-4.5 7-6A24 24 0 0 1 106 50a28 28 0 0 1 7.8 4.5c1.5 1.1 2.7 3 4.3 4h12.1q1 0 1.7-.4a28 28 0 0 1 7-5.6 24 24 0 0 1 30.2 5.7c1.6.5 3.5.1 5.2.2h8.7" class="b"/><path d="M9 56.3h25.2c.8-.1 1.8-.7 2.5-1a24.4 24.4 0 0 1 18.2 0c1 .4 2.3 1.2 3.5 1q10 .1 19.9 0c10.3-14 29-13.2 39.8-.3 1.6.6 3.5.2 5.2.3h8.6c2.4-2.2 4.8-4.7 7.8-6.2 7.4-4.2 16.9-4 24.2.3 12 7.6 1 5.7 19 5.9" class="b"/><path d="M9 54.2h22.5c1.2.1 2.4-.7 3.5-1q2.2-.9 4.3-1.4a24 24 0 0 1 9.6 0q2.7.5 5.2 1.8c.9.8 2.3.6 3.4.6q6.5.1 13-.3 3.8.4 7.8.3c1.1-.4 1.8-2 2.6-2.8a23 23 0 0 1 4.3-3.7c11.4-7.6 25.4-3.5 33.7 6.5h13.9c8-9.1 20.2-12 31.1-6.5q3.2 1.6 6 3.9c1.2.7 2.2 2.2 3.6 2.6h9.5" class="b"/><path d="M9 52h20.8q1 0 1.7-.5 1.7-.8 3.5-1.3 4.6-1.5 9.5-1 2.8.3 5.2 1.3c1.2.4 2.2 1.5 3.5 1.6h5.2q1.3-.1 2.6-.8l2.6-.9c4.2-1 9.6-1.9 13 1.7h2.6c1.1-1.4 2.1-3.2 3.4-4.4q5.2-5 12.1-6.1c9.6-1.6 19 3.3 25.1 10.5h13.8c1-.5 1.9-1.6 2.6-2.3q2.5-2.2 5.2-3.7c11.3-6.2 23.8-2.1 33 5.9q4.2.1 8.6 0" class="b"/><path d="M9 50h19q4.6-2.5 9.6-3.1 5.4-.7 10.4 1.5c.8.4 1.7 1.2 2.6 1.5h4.3c3.2-2.6 7.3-3.7 11.3-4.2 4.3-.7 9.9-.2 12 4.2H80c3.3-7.9 12.6-11.7 20.8-11 7.8.7 14.8 5.1 19.9 11q7.3.2 14.7 0a26 26 0 0 1 30.3-5.8q3.6 1.6 6.9 3.8c1 .7 2.1 2 3.4 2h7" class="b"/><path d="M9 47.8h16.5c.9 0 1.8-.7 2.6-1.1q2-1 4.3-1.7c5.8-1.6 11.8-1.2 16.5 2.8 1.7 0 3.2.4 4.3-1.2q2.4-2 5.2-3A27 27 0 0 1 74 42.5q2.5.8 4.3 3c.3.6 1.2 1.9 1.7 2.3.7-.3 1.5-2 1.8-2.7.6-1 1.6-2.4 2.6-3.3 7.6-7.2 19.9-6.7 28.5-1.4q3.2 1.9 6 4.5c1.2.8 2.2 2.4 3.5 3h14.7c1-.5 1.8-1.6 2.6-2.2q2-1.6 4.4-2.9c7-3.6 15.4-3.2 22.5-.1q3 1.3 6 3.1c1.1.6 2.3 1.6 3.5 2h6.9" class="b"/><path d="M9 45.7H23q1.5.1 2.6-.8a21 21 0 0 1 18.2-2.2q2 .8 3.4 2.6 1.2.6 2.6.4c1.2-.9 2.2-2.4 3.5-3.2 3.8-2.6 8.4-3.7 13-4 4.2-.5 9 0 12 3.3 1 1 1.7 2.9 2.7 3.9 2.8-9.3 13.6-13 22.5-11.4 7.7 1.2 14.3 6 19.9 11.3q8.2.1 16.4 0c7-7 17.9-8 26.8-4.5a44 44 0 0 1 6 2.9c1.2.5 2.3 1.7 3.5 1.7h7" class="b"/><path d="M9 43.4c2 .4 4.1 0 6.1.2H23c6.7-5.3 18.4-7.5 24.2 0H49c3.2-5.3 9.6-7.5 15.5-8.2 6.7-1 14.8.4 16.5 8 .6-.6 1.4-2.5 1.7-3.3q1-2 2.6-3.4c5.2-4.9 13-6 19.9-4.5 7.7 1.6 14 6.5 19.9 11.3q8.7.1 17.3 0c9.4-7.6 22.2-6 32 0q4.4 0 8.7 0" class="b"/><path d="M9 41.2c2.3.5 4.7.2 7 .3h3.4c.8 0 2 0 2.6-.4 5.6-4.6 14-6.8 20.8-3.5q1.5.8 2.6 2c.3.5 1.2 1.5 1.7 1.9h.9c1.1-1.3 2.1-3 3.5-4.1 3.8-3.2 8.9-4.6 13.8-5 4.9-.7 10.5 0 13.8 4 1 1.2 1.8 3.4 2.6 4.7 2-10.2 14.4-13.4 23.4-11.4a43 43 0 0 1 15.6 7.4c2 1.5 4.2 2.6 6 4.2 6 .3 12.2 0 18.2.2 1.3.1 2.4-1 3.5-1.5q2-1 4.3-1.6 5.2-1.1 10.4-.2 5 1 9.5 3.3H183" class="b"/><path d="M9 39.2c1.4.3 3 0 4.4.1h7c1.4-.8 2.7-2.2 4.2-3q4.9-2.8 10.4-3c3.4 0 7 .7 9.5 3 1 .8 1.7 2.3 2.6 3h1c2.9-6.5 10.5-9 17.2-9.7 7.6-1 14.8 1.6 16.5 9.7 1.5-10.5 14.2-14 23.3-11.9 7.7 1.5 14 6.3 20.8 9.8l2.6 2c1.3.3 3 0 4.3.1h9.5q4.4.2 8.7 0 4.1-1.7 8.6-1.7 3.5 0 7 .9c1 .2 2.3.9 3.4.8h13" class="b"/><path d="M9 37.2h10.4c1.3-.6 2.3-1.9 3.5-2.6a23 23 0 0 1 6-3c6.5-2.2 15-1.2 18.2 5.6h.9c2.8-6.4 10-9.2 16.4-10 8-1.2 15.8 1.3 17.3 10 1.6-10.7 14.2-14 23.4-12 7.8 1.5 14.4 6.3 21.6 9.4 1.5.7 2.8 2 4.4 2.6h46.7c1.7-.1 3.8.5 5.2-.7" class="b"/><path d="M9 35.1c15.5-.2 5.9 1.3 16.5-4.8 6.8-3.6 18-4 21.6 4.2l.9.6c1-1 1.7-2.8 2.6-3.8 2.9-3.3 7-5 11.2-6 8.7-1.8 18-.3 20 9.8 1.4-11.6 15.5-14.2 25-11.6 4.9 1.2 9.4 3.6 13.9 5.7q3 1.4 6 2.4 3.3 1.5 6.1 3.5h47.6q1.3-.6 2.6-1.4" class="b"/><path d="M9 33h9.6a23 23 0 0 1 18.2-7.7c4.8.3 9.7 3 11.2 7.7h.9c2.6-7 10.4-9.8 17.3-10.3 4.7-.5 9.9.7 13 4.5 1 1.3 1.7 3.5 2.6 5 1.9-10.3 14.5-12.9 23.3-11 5.5 1 10.5 3.5 15.6 5.7 2.5 1.1 5.3 1.6 7.8 2.7 9.5 4 3.5 3.4 14.7 3.4h36.3q1.8-.7 3.5-1.8" class="b"/><path d="M9 30.9h8.7c1.3-.6 2.3-2.1 3.5-3q2.4-1.8 5.2-3.2C34 21 45.6 21.8 48.9 31h.8c2-6.2 8.7-9.1 14.7-9.8 6.8-1.2 14.7 1 16.5 8.4l.8-.6c3-9.4 14.9-11.3 23.4-9.5 5.4 1 10.4 3.5 15.6 5.4 2.2.9 4.6 1.2 6.9 1.9q3.5 1 6.9 2.4c1.4.5 2.8 1.5 4.3 1.8h40.7l.9-.5 2.6-1.5" class="b"/><path d="M9 28.8h8.7a27 27 0 0 1 13.9-8.3c7-1.6 15.7.9 18.1 8.3h.9c2.1-6.1 8.7-9 14.7-9.5 7.2-1 14 1.8 15.6 9.5 2-10.4 14.3-13 23.3-11.3q5.3 1 10.4 3.1c3.4 1.3 6.8 2.8 10.4 3.2a84 84 0 0 1 17.3 5h37.2q1.8-1 3.5-2" class="b"/><path d="M9 26.6h8.7c4-4.6 9.5-8 15.6-9 6.7-1 15 1.8 17.3 8.8l.8.2c1-1 1.7-2.8 2.6-3.8q2.6-2.6 6.1-3.8c7.3-2.5 17.4-2.2 19.9 6.7l.9-.2c2.3-8.2 12.2-10.7 19.9-10 7 .4 13.3 3.6 19.9 5.6 3 .9 6.4 1 9.5 1.6q8.3 1.5 16.4 3.6c2.5.6 5.3.2 7.8.3h26L183 25" class="b"/><path d="M9 24.5h8.7c6.7-8.5 20-13 29.4-6.4a14 14 0 0 1 3.5 3.6c.3.8 1.2 2.2 1.7 2.8h.9c2.1-5.5 8.3-7.7 13.8-8 3.8-.4 7.8.8 10.4 3.6 1 1.1 1.8 3.1 2.6 4.4C82 16.7 90.8 13.7 98.2 14c6.3 0 12.3 2.2 18.1 4.4q3 1 6 1.7 4.9.3 9.6.8 11.8 1.4 23.4 3.7h25.9l1.8-1" class="b"/><path d="M9 22.4h8.7A26 26 0 0 1 35 12.5c7.3-.8 15.6 2.7 18.2 9.9l1.7-.1c2-4.7 7.4-6.5 12.1-6.8q8.5-.7 12.1 6.9c1.1-1 1.7-3 2.6-4 2.4-2.8 6-4.5 9.6-5.3 8.2-1.9 16.5.8 24.2 3.7q3.3 1.3 6.9 1.7 3.4.2 7 .3c10 .6 20.3.7 30.2 3.1 1.6.6 3.5.5 5.2.5h13.8c1.4-.1 3 .3 4.4-.3" class="b"/><path d="M9 20.3h8.7A27 27 0 0 1 35 10c5.5-.7 11.4 1 15.6 4.6 1.8 1.4 3 3.7 4.3 5.6h1.7c2.7-4.7 8.8-6 13.9-5.6a10 10 0 0 1 6 3.3c.4.7 1.3 1.8 1.8 2.3h.8c3-7 11.3-9.3 18.2-9 6.7.1 12.9 2.7 19 4.8 4.5 1.7 9.3 1.3 13.9 1.3 8.6 0 17.4-.8 26 .6q3 .5 6 1.3 1.6.6 3.5 1H183" class="b"/></svg>