<svg xmlns="http://www.w3.org/2000/svg" id="a" width="1920" height="2400" viewBox="0 0 192 240"><defs><style>.b{fill:none;stroke:#fff;stroke-miterlimit:10;stroke-width:.3px}</style></defs><path d="M0 0h192v240H0z" style="stroke-width:0"/><path d="M8.4 211.9c6 4.6 9.8 6.2 17.4 5 4.3-.7 7.3-.9 11.4.5q5.1 1.6 10.4 0c8.2-3.5 11.5-5.7 20-1.2 6.8 3.9 14.2 1.4 21-1q4.3-1.5 8.7-.6c4 .8 8 1.9 12.2 1.8 4-.2 8.2-1.3 12.2 0q3.6 1.2 7 3.2 3.1 1.4 6 2.9c3.3 1.8 6.7 3.7 10.5 3.6 5.4-.1 10.3-3.2 15.7-2.7 4.2.1 8 2.4 12.2 2.5 3.5 0 7-1.4 10.5-1.2" class="b"/><path d="M8.4 209.1c6.5 4.7 11.8 4.1 19.2 3q4-.7 7.8.2c5.6 1.8 10 2.8 15.7.6 4.8-1.9 9-2.8 14-.7q3 1.4 6 2.4 5.4 1 10.5-.7c3.6-1 6.9-3.2 10.5-4.5a29 29 0 0 1 15.7.7q3 .5 6 .8 2.7.3 5.3 1.3c3 1 5.8 2.4 8.7 3.4 2 .8 4.2 1 6.1 1.8 4 1.7 7.8 4.2 12.2 4.6 2.7.4 5.3-.5 7.8-1.1q3.1-.7 6.1-.4c4.2.4 8 2.6 12.2 3 3.8.2 7.6-1 11.4-.6" class="b"/><path d="M8.4 206.4c5.7 3.6 12.8 2.6 19.2 2.5 2.9 0 5.9-.3 8.7.6 6.6 2 10.8 2.5 17.4.2q6.2-2 12.2 0 3 1 6.1 1.6c3.8.4 7.7.6 11.3-.7 4-1.2 7.5-3.8 11.4-5.2 4.6-2.1 9.2-1.9 14-.3 2.2.7 4.7.9 6.9 2 3.7 1.8 7.3 4.2 11.3 5.1 2.6.6 5.4.4 7.9 1.3 4.6 1.4 8.9 4.5 13.9 4.5 1.8 0 3.5-.7 5.2-1 5.1-1 10 1.1 14.8 2.5 2.3.6 4.7.5 7 .6q4 0 7.9 1.3" class="b"/><path d="M8.4 203c3.5 1.9 7.5 1.8 11.3 2.3q6.6 1 13.1 1.4c2.4.2 4.7 1 7 1.5 6.3 1.5 11.4 0 17.4-1.7 3.7-1 7.6-.6 11.3.3 2.9.6 5.9.5 8.8 1 8.4 1.2 13-3 20-6.4 4-2 8.1-1.8 12.2-.3q3.7.8 7 2.9c3.4 2.2 7.1 4.5 11.3 4.8 2 .2 4.1 0 6 .4 4.3 1 8 3.6 12.3 4.7 2.3.7 4.7.3 7-.3q4.8-1 9.5.5c2.9.8 5.8 1.9 8.8 2q6.6 0 12.2 3.7" class="b"/><path d="M8.4 198.5c2.5 1 5.3 1 7.9 1.6 3.2.7 6.4 2.1 9.5 3.3a30 30 0 0 0 5.3 1.6q2.2.2 4.3.7c3.2.7 6.4 1.4 9.6 1.3q5-.4 9.6-2c3.9-1.5 8-3 12.2-2.7 3.5.2 7-.1 10.5.5 7 1.3 10.6.2 16.5-3.3 3.2-1.8 6.8-3.5 10.5-3.2q3 .2 6 1.3 3.3.7 6.2 2.4c3.3 1.9 6.7 3.8 10.5 4.5 2.2.5 4.7.6 7 1.2 4.4 1.3 8.4 4 13 5 2.9.7 5.8-.4 8.7-.4 3.6 0 7 1 10.5 2q3.3 1 7 1.2a24 24 0 0 1 10.4 5" class="b"/><path d="M8.4 194.7c6.7 0 8.4.4 14 4.2 2.7 1.9 5.4 4 8.7 5 1.3.3 3 .3 4.3.6a29 29 0 0 0 16.6-.2c2.5-.6 4.7-2 7-3.2q5.7-3.1 12.2-3.2c4-.7 8 .5 12.2.2 3.4 0 6.6-1.6 9.5-3.2 6.9-3.6 11.1-3 18.3-1.1 5.4.8 10 4.1 14.9 6.2q8.5 3.5 17.4 6c5 1.7 10.5.8 15.7 2.1 3.8.8 7.5 2.5 11.3 3.3 4.8.7 9.1 3.4 13 6.1" class="b"/><path d="M8.4 192.6c2-.3 4.1-.8 6.1-.4 5.8 1.4 9.6 6.6 14.8 9.1q2.1 1 4.4 1 2.2.3 4.3.8c8.2 2 14.2.5 21-4.4a26 26 0 0 1 7-3.2q3.8-1 7.8-1.4c3.4-.4 7-.3 10.4-1 5.2-1 9.5-4.9 14.9-5 3.8-.2 7.6.8 11.3 1.3 6.2.2 10.7 2.4 15.7 5.9 9.4 7.3 14.4 6.4 25.3 8.6 4.3 1.1 8.8 2 13 3.6q4.5 1.3 8.7 3 5.3 2.7 10.5 5.6" class="b"/><path d="M8.4 192.4c8.6-2.9 13 2.5 20 5.8q2.2 1 4.4 1 2.2.1 4.4.8c6.9 2.1 12 2.8 18.3-1.4 3-2 6-4 9.6-5q3-.6 6-1 3.5-1 7-1.8 5-1.3 9.6-3.4c2.5-1.3 5-2.9 7.9-3.3 5-.7 9.8 1 14.8 1.2q3-.1 6 .1c5 .7 8.8 4.3 12.3 7.5 6.6 7 12.6 5.3 20.9 7.5q3 1.2 6.1 2.3c4.3 1.3 8.8 2.3 13 3.9 5.2 2 9.6 5.8 14.9 7.5" class="b"/><path d="M8.4 192.9c7.9-1.7 11.8-.1 19.2 2.1q1.7.5 3.5.7 2.2-.1 4.3.4c3.2.8 6.3 2.4 9.6 2.8 6.7 1.1 11.4-4.9 17.4-6.5 2.6-.8 5.3-.8 7.9-1.2q4.8-1.3 9.6-3.2 4-1.7 7.8-3.7c2.5-1.4 5-3 7.9-3.3 6-.5 12.1 1.3 18.3.6 9-1.2 12.8 6.1 19.1 10.8 4.4 3 10 3.2 14.9 4.8 2.7.8 5 2.6 7.8 3.3 3.1 1 6.4 1.1 9.6 2q3.7.7 7 2.7c3.5 2.4 7.1 5 11.3 6.2" class="b"/><path d="M8.4 193.4c3.5.2 7-.6 10.5-1q5.2-.5 10.4-.3l4.4.1q2.2.4 4.4 1.2c5.6 2.2 10 4 15.6.5 3-1.6 6.2-3.2 9.6-3.8 2.6-.6 5.4-.6 7.9-1.3q7.3-3.2 14.8-5.8c3.4-1.3 6.7-3.4 10.5-3.7 4.9-.5 9.8.2 14.8 0 3.7 0 7.7-1.3 11.3.4 3.3 1.4 6 4 8.7 6.4a29 29 0 0 0 6.1 3.8c4.3 2 8.8 3.6 13 5.7q3 1.7 6.2 2.6c2.2.5 4.7.5 7 .8s4.8.5 7 1.4c4.3 2.4 8.3 5.7 13 7.6" class="b"/><path d="M8.4 193.3c6.7 1.3 12.8-3 19.2-4q4.8-.9 9.6.6c8 2.7 10 5 18.3 1 4.5-2 9.3-2.7 14-4.3 2.9-1.2 5.5-3.3 8.6-4.2 3-1.3 6.4-1.7 9.6-2.4q3-1 6.1-2c4.6-1.2 9.3-.6 14-.8q3 0 6-.3c6.8-1.8 10.2-1.6 15.7 2.9 5 4.3 10.8 7.3 16.6 10.3 3.8 1.8 7.3 4.4 11.3 5.4 3.7.8 7.6.9 11.4 1.3 2.1.3 4.1 1.4 6 2.3q4.6 2.2 8.8 4.6" class="b"/><path d="M8.4 191.4c6.7 1.5 12.8-3 19.2-4q4.8-1 9.6.4c3.5.8 6.8 2.4 10.4 2.9q3.1.3 6.1-1 3.5-.8 7-1.8a40 40 0 0 0 9.6-4.5c3.9-3 8-5.9 13-6.3 2.4-.2 4.8-.2 7-.8 1.7-.4 3.5-1.2 5.3-1.5 4.9-.7 9.9-.4 14.8-.7q3.5-.2 7-1.3c4.5-1.4 8.6.5 12.2 3.3 5.7 4.8 12.5 8 19.1 11.2 4.1 2 7.8 4.9 12.2 6 2.8.9 5.8 1 8.7 1.2 4.8.8 9.8 1.6 14 4.1" class="b"/><path d="M8.4 187.8c3.8.6 7.6-.6 11.3-1q7.5-1.2 14.9-.6 4 .3 7.8 1.3 3.4 1.1 7 1.3c1.7 0 3.5-.5 5.2-.7q4.1-.6 7.8-2.2c5.3-2.3 9.3-6.7 14-9.9 5-3.2 7.7-2.5 13-3 2.4-.5 4.6-1.6 7-1.9 4.6-.6 9.4-.7 14-1.3 5.5-.6 9.5-3 14.8.4 3 1.9 5.7 4.5 8.7 6.4 3.7 2.3 8 3.5 12.2 5q3.1 1 6 2.7c4.7 3 9.2 7.2 15 7.7l6 .2c3.5-.4 7.2-.9 10.5.7" class="b"/><path d="M8.4 183.9c3 0 5.8-.8 8.7-.8 3.8 0 7.6.7 11.4 1.2q4.8.4 9.5.7 4.5.6 8.8 1.4c2.6.4 5.2 0 7.8-.4q7.3-.4 13-4.8c4.9-3.4 9-8.2 14.9-9.9 2.5-.6 5.3-.5 7.8-1.2q2.2-.6 4.4-1.4 3.8-1 7.8-1.6l9.6-2.1c4-1 7.8-1.4 11.3 1.2 4.4 3 7.8 7.8 13.1 9.5 5.8 1.9 12.6 1.2 17.4 5.5 4.2 3.2 8.4 7.5 14 7.9q3 .2 6-.4c3.1-1 6.4-2.2 9.7-1.3" class="b"/><path d="M8.4 179.4q3-.5 6.1-1 4.6-.5 8.7 1c3.2 1 6.3 2.4 9.6 2.8l7.9.7q3.4.4 7 .6c2.2.1 4.6-.4 6.9-.5 4.2.1 8.5-.2 12.2-2.3 5.2-2.6 9.3-7 14.8-9 2.8-1 6-1.2 8.7-2.2a199 199 0 0 1 17.5-6.3c3-.9 6.3-2.2 9.5-1.7 8.8 1.6 11 11.6 21.8 12.2 4 .5 8.4.2 12.2 1.9 4.8 2.5 8.8 6.7 14 8.5q2.2.7 4.3.6 2.2.1 4.4-.4c3-1 6.3-2.4 9.6-2" class="b"/><path d="M8.4 175c6.9-1.8 9.8-3 16.6.4 2.2 1 4.5 2.4 7 3.2 4.5 1.2 9.2 1.5 13.9 1.7q3.9-.2 7.8-.5 3 .2 6.1.5c7.6.7 12.8-4.5 19.2-7.3 3.3-1.6 7-1.7 10.5-3 4.2-1.6 8-4.3 12.2-6q3.8-1.7 7.8-2.9 2.6-.8 5.2-1c6.5 0 10.4 6 15.7 8.8 3.2 1.7 7 2 10.5 2 3.8.3 7.7.3 11.3 1.6 4.8 2 9 5.3 14 7q3 .7 6 .5c3.8-.4 7.5-2 11.4-2" class="b"/><path d="M8.4 171.7c3.2-.6 6.3-2.1 9.6-2.4 5.7-.5 10 3.8 14.8 5.8a35 35 0 0 0 9.6 2.1c3.5.4 7-.2 10.5-.3q2.6 0 5.2.6c8.7 1.4 12.5-2.9 20-5.2 2.8-1 5.9-1.1 8.8-1.7 6.1-1.5 10.6-6.7 16.5-8.8a49 49 0 0 1 9.6-2.2c3.1-.1 6 1.3 8.7 2.7 2.5 1.5 5 3.4 7.9 4.2 5.3 1.3 11 1.1 16.5 2.1l7 1q2.7.6 5.2 1.8c2.7 1 5.2 2.5 7.9 3.6 5.7 2.2 11.6-.4 17.4-.6" class="b"/><path d="M8.4 169.8c7.7-.9 10.9-6.2 19.2-1.4a35 35 0 0 0 13 5.6c3.8.8 7.6.2 11.4 0 3.5 0 7 1 10.4.4 4-.5 7.7-2.5 11.4-3.8 3.6-1.2 7.5-1.2 11.3-1.3a15 15 0 0 0 7.8-3c7.9-5.6 9.5-6.6 19.2-7.2 5.3-.4 9.8 3.3 14.8 4.5 2.6.6 5.3.2 7.9.3q4 .1 7.8 1 3.5 1 7 1.5l4.3.1q2.7.3 5.3 1.3c2.4.8 4.6 2.2 7 3.3 5.5 2.4 11.6.2 17.4-.3" class="b"/><path d="M8.4 168.4c5.3.4 9.5-4.5 14.8-4 2.9.2 5.4 1.7 7.9 3q3.2 1.8 7 3c4.2 1.3 8.6 1 13 .7 3.2 0 6.4.6 9.6 0 4.3-.6 8.1-2.8 12.2-4 3.7-1 7.6-.6 11.3-.7q4.8.1 8.7-2.8c8.7-6 9.7-6 20-6.5 5 .3 9.2 3.3 14 4 2.3.2 4.7-.4 7-.6a26 26 0 0 1 7.8.9c2.6.6 5.2 1.5 7.9 1.6q2.2 0 4.3-.1 2.7.1 5.3 1.2c2.4.8 4.6 2.4 7 3.5 5.6 2.7 11.7-.2 17.4-1.4" class="b"/><path d="M8.4 167.3c5.7.6 10-4.7 15.7-4.8 2.7 0 5.4 1 7.8 1.9 3.2 1 6.4 2.3 9.6 3.1q4.7 1.2 9.6.7 6.7.1 13-2 4.8-1.7 9.7-2.3c3.4-.4 7-.2 10.4-.3a20 20 0 0 0 9.6-2.7c3.4-2 6.7-4 10.5-4.8q3-.5 6-.6a21 21 0 0 1 8 .5c2.8.6 5.7 1.6 8.6 1.8 3 0 5.9-.7 8.8-.4 5 .4 9.8 2.4 14.8 2 3.9-.8 8 .3 11.3 2.3 2.2 1.3 4.4 2.9 7 3.4 5.2 1 10-2.5 14.8-4.2" class="b"/><path d="M8.4 165.5c8.7-.2 11.5-7.1 23.5-5.2 6.3.7 11.9 4.8 18.3 4.1 4.8-.3 9.3-2.1 14-3 3.4-.6 7-.2 10.4-.1 6.2 0 12.4-.2 18.3-1.7 4.8-1.5 9-4.2 14-5.1 6.6-1.2 13.4-.6 20-.3 2 0 4.1-.3 6.1 0 3 .3 5.8 1.2 8.7 1.7 3.8.7 7.6 0 11.4-.5q4.1.2 7.8 2.2c2 1 4 2.5 6.1 3.4 6 2.4 11.4-2.9 16.6-5.1" class="b"/><path d="M8.4 162.1c4.2-.6 8.2-2.4 12.2-3.6q6.4-1.9 13-2.4c3.7 0 7 1.7 10.5 2.6 6 1.7 9.4-.7 14.9-2.3 7.2-2 10.2 1.6 16.5 2.2 3.2.2 6.4-.3 9.6-.6a57 57 0 0 1 7.9-.2c5-.3 9.3-3.2 13.9-4.7 2.8-1 5.8-.8 8.7-1.2 2.3-.3 4.7-1 7-1.1q3.5-.2 7-.2c2.7 0 5.3 1.2 7.8 2 5.8 2.2 9.2.8 14.8-.4 3-.4 6 .7 8.7 2 2.3 1.1 4.5 2.7 7 3.3 3 .9 6.1-.4 8.7-1.9q3.4-2 7-3.7" class="b"/><path d="M8.4 157.5q3.4-1.2 7-2 5.2-.9 10.4-1.5l5.3-1q2.4-1 5.2-1c2.6 0 5.3.8 7.8 1 4.8.7 8.1-.9 12.2-2.9 3-1.4 6.7-1.5 9.6 0 2.1 1 4 2.6 6.1 3.7 5 2.5 10.5.6 15.7.7q2.7.1 5.2.7c5.1.8 9.5-2.5 14-4.4q1.6-.8 3.5-1c1.7-.3 3.5-.2 5.2-.7 3.7-1 7.4-2.3 11.3-2.1 3.4-.2 6.6 1.2 9.6 2.7 5.3 2.6 8.7 1.5 14 0 2.8-.8 6-.3 8.7.8 2.3.8 4.6 2.2 7 3 3.2 1.3 6.5.4 9.5-1q3.9-2 7.9-3.4" class="b"/><path d="M8.4 152.8c7-3.2 11.2-1.6 18.3-1.9q2.2 0 4.4-.7 2.1-.8 4.3-1.4c3.8-.7 7.7-.4 11.4-1.3a27 27 0 0 0 6-2.1c3.2-1.7 6.9-3.7 10.5-2.4 9.3 4 7.2 8.4 20 7.2q3.7-.4 7 .2c2.6.8 5.3 1.3 7.9.4 4-1 7.4-3.7 11.3-4.8 1.7-.5 3.6-.3 5.2-.7 3-.6 5.8-1.8 8.8-2 10.7-1.2 12.4 5 20.9 4.6 2-.2 4-.8 6-1q4-.4 8 1c2.2.7 4.6 1.9 6.9 2.6q2.5 1 5.2.7 2.2-.4 4.4-1.3 4.2-1.7 8.7-2.9" class="b"/><path d="M8.4 148.3q2.6-1 5.2-1.3 3.1-.2 6.1.3c3.8.5 7.7 1.1 11.4.2 4-1.3 8.1-1.6 12.2-2.7q4.5-1.4 8.7-3.7c2.2-1.1 4.5-2.4 7-2.8 3.9-.6 7.4 1.8 10.4 4.1 6.7 6 12.5 1.4 20 2.5 1.8.2 3.5 1 5.3 1.2 4.6.7 9-1.4 13-3q3.4-1.3 7-1.7 3.9-1 7.9-1.7 4.7-.4 9.6.5c2.6.7 5.2 1.8 7.8 2.5 4.5 1.3 9.4.6 14 2 6 1.3 12 4.4 18.2 2.8 3.8-.9 7.5-2 11.4-2.4" class="b"/><path d="M8.4 143.7c4.6-1.3 9.3-.2 14 .3 4 .5 8.1 0 12.2-.6 4.2-.1 8.5-.7 12.1-3 7.9-4.7 12.4-8 21-2.2 1.6 1 3.3 2.3 5.2 3 4.6 1.2 9.3-1.4 14-1.2 2.6 0 5.2 1.1 7.8 1.8q3.4 1 7 .4c4-.7 7.4-3 11.3-4a58 58 0 0 1 17.4-2.2q8 0 15.7 3c3 1 5.8 2.7 8.7 3.8q6.3 2.4 13 2.1c5.3-.2 10.5-1.6 15.8-2.1" class="b"/><path d="M8.4 138.8c3.5-.6 7 .6 10.5.6 4.3.3 8.7-.3 13-.5q3 .2 6.1.5c5.5.7 9.6-2.9 14-5.6 3.1-2 7-2.1 10.4-.7 3.7 1.3 6.7 4 10.5 5 2.3.3 4.7-.5 7-.9 5.9-1.2 9.3.4 14.8 2 8.4 2.8 12-2 19.2-4.9 4.1-1.4 8.7-1.7 13-2.1q5.3-.8 10.5-1.1c4.7 0 8.7 3 12.2 5.8 3.9 3.4 8.7 5.8 14 5.8q5.2-.2 10.4-.9 4.8-.9 9.6-2" class="b"/><path d="M8.4 134c3-.2 5.8 1 8.7 1 3.5.2 7-.6 10.5-1.2q3-.5 6 0c8 2.3 10 2 16.6-2.8q4.9-3.7 10.5-1.6c3.3 1.2 6.3 3.3 9.6 4.6 2.2 1 4.7.6 7 .2 5.3-1 9.1.6 13.9 2.6 6.4 2 10.2 1.9 15.7-2.3 2.4-1.8 4.9-4 7.8-4.9 3.7-1.1 7.6-1.3 11.4-1.8q3.9-.5 7.8-1.4 6.4-2 11.3 2.7c4.5 4.1 8.5 9.7 14.9 11 3.4.9 7 .1 10.4 0 4.6.2 8.9-1.8 13-3.3" class="b"/><path d="M8.4 129.6c2.7-.2 5.2.9 7.9 1 3.5.3 7-.6 10.4-1.2 2.3-.4 4.7-.7 7-.1 6.3 1.8 9.2 2 14.8-1.9 3.7-2.6 6.8-4.2 11.3-2.6 4 1.3 7.4 4 11.4 5.1q2.5.6 5.2.2c3.3-.1 6.7 1 9.6 2.5 2 1 4 2.3 6 2.8 10.5 2.4 14-7.1 21.9-10.6 3.3-1.2 7-1.4 10.4-1.7q4.9-.3 9.6-1.4c4-1 7.6.3 10.5 3 4.6 4.5 8.4 10.4 14.8 12.6 4.2 1.5 8.7.7 13 1 4.1-.3 7.8-2.4 11.4-4" class="b"/><path d="M8.4 126c2.7 0 5.2.9 7.9 1.2 4.7.5 9.3-1 13.9-1.6 2-.2 4.1.2 6 .3q4.6.3 8.8-1.6c4.7-2.3 8.5-5.4 14-3.6 4.5 1.2 8.4 4.3 13 5.5 3 .5 6 .8 8.7 2 3 1.3 5.7 3.3 8.7 4.6 9.2 3.6 15-6.8 21.8-11 3-1.5 6.4-2 9.6-2.7 4.3-.8 8.7-2 13-2q4.5 0 8 2.9c5 4.2 8.5 10.3 14.7 13.2 4.8 2.5 10.4 2.6 15.7 3 4 0 7.8-2 11.4-3.7" class="b"/><path d="M8.4 122.9c4.3.5 8.7 1.9 13 1.6 3-.2 6-1 8.8-1.6q3.5-.4 7-1c5.9-1 11.3-4.5 17.4-4.3 5.5.1 10.7 2.6 15.7 4.8 2.5 1 5.3 1.5 7.8 2.5q4 1.6 7.9 3.5c10 5.1 15.9-5 23.5-9.6 2.6-1.6 5.8-1.9 8.7-2.7 6.9-1.5 13.3-5.7 20-1.2 5.9 3.6 9.4 10.2 15.7 13.1 4.4 2.1 9.2 3.1 14 4.1 6 1.6 9.9.9 15.7-1.5" class="b"/><path d="M8.4 120c5.5.7 11 2.6 16.6 1.6q3-.7 6-1.6 2.3-.5 4.4-1.2c3.7-1.4 7.4-2.9 11.4-3 2.6-.2 5.2.3 7.8.5q5.3.4 10.5 1.6 3.9 1 7.8 2.6a77 77 0 0 0 7.8 2.3c4.3 1 8.9 2 13.1.5 2.9-1 5.4-3 7.9-4.8 3.3-2.3 7-4.9 11.3-5a41 41 0 0 0 10.4-2c4.8-1.6 8.4-2.8 13.1 0 5.6 3 9.7 8.6 15.7 11q4.3 1.3 8.7 2.3c8.4 1.9 13.6 5.6 22.7 2.9" class="b"/><path d="M8.4 116.9c14.3 1.8 12.6 3.9 27-1.8a17 17 0 0 1 11.4-1.8c2.6.6 5.1 1.9 7.8 2.2 4 .4 8.2-.3 12.2 0 2.7.3 5.2 1.5 7.8 2.2q4 .8 7.9.3 5.7-.6 11.3-2.4c6.9-3.1 11.8-8.2 20-6.9q5.8.8 11.4-.4c2-.3 4-.8 6-.6 4.9.6 9 3.7 13.2 6q5.2 3 11.3 3.5 4.9.5 9.6 2c5.8 2.5 11.8 5.5 18.3 4.5" class="b"/><path d="M8.4 113.3q4.9.1 9.6 1.1 4 .7 7.8-.1c4-1 7.6-2.7 11.4-4 3-1.3 6.5-1.3 9.6 0 2.2.8 4.5 2 7 2.4 6.7.8 12-3 19.1-.7 3.5.8 7-.2 10.5-1.1q3.5-1 7-2.2 2.2-.5 4.3-1.2c4.8-2.1 9.4-5.2 14.8-5 4 0 7.6 1.8 11.3 2.5 3.8.9 7.6.2 11.4.8 5.5 1 11 2.9 16.5 3.8 4 .9 8.3.6 12.2 1.6 3.5.8 6.5 2.7 9.6 4.3 4 2 8.5 3.6 13 3.2" class="b"/><path d="m8.4 110 5.2-.3q3 .2 6.1.6c7 .9 12.2-2.2 18.3-4.7 3.2-1.1 6.7-.6 9.6.8 6.7 3.6 9.8 2.4 16.6.3q2.6-.8 5.2-.9c1.4 0 3 .4 4.4.4 2.7 0 5.4-1.3 7.8-2.4q4-1.6 7.9-3c2.2-.7 4.7-.9 7-1.5A32 32 0 0 1 113 98c3.6 1.1 6.8 3.3 10.5 4.3q3.3 1 7 1 4.3.6 8.6.5c4.7-.3 9.3-1 14-.5 3.9-.1 7.9.4 11.3 2.4 6.2 3.6 11.5 8 19.2 7.8" class="b"/><path d="M8.4 106.9c3.2-.6 6.4-1.5 9.6-1.1 8.7.7 11.7 0 19.2-4.3 2.6-1.4 5.8-1.9 8.7-.8 2 .6 4 1.8 6 2.4 5.2 1.5 10-1.5 15-2.7q3-.7 6-.4c4.8-.2 8.6-3.8 13-5.1q2.6-1 5.3-1.5 3 0 6.1-.3c4.6-.1 9.3-.5 14 0 2.8.4 5.3 2 7.8 3.3q3.7 2 7.8 2.8 8.4 1.1 16.6-.6a49 49 0 0 1 9.6-1c3.5-.3 7.3.2 10.4 2 2.5 1.3 4.7 3.3 7 4.8 3.8 2.6 8.4 4.4 13 4.6" class="b"/><path d="M8.4 103.6q2.8-.5 5.2-1.5 2.6-.6 5.3-.6c10.1.2 10.7.2 19.1-5.2q4.3-2.4 8.8-1 2.5 1 5.2 2c4.5 1.1 8.9-.9 13-2.2q2.7-1 5.3-1c1.4 0 3 .2 4.4-.2 2.7-.7 5.2-2.3 7.8-3.4q3.3-1.2 7-1.9c4-.4 8.1.5 12.2.3 3.7 0 7.6-.9 11.3-.1 4.5 1.1 8.4 4 13 4.5 3 .5 5.9.3 8.8.5q6 .6 12.2.4 4.7-.1 9.6-.4 3.7.1 7 2c2.4 1.4 4.6 3.5 6.9 5.1q5.9 4.1 13 4.7" class="b"/><path d="M8.4 100.3c3.4-.4 6.2-2.7 9.6-3 4.3-.5 9 .1 13-1.7 4.2-2 7.5-6 12.3-6.2 7 .3 7.6 4.2 16.5 1.6 3-.9 5.8-2 8.7-2.5 2.3-.4 4.8.2 7-.4q3.5-1 7-2.3 6-1.3 12.2-.6 4.9.2 9.6-1.1c3.7-1 7.5-2 11.3-.6 3.4 1.1 6.9 2.5 10.5 2.8 3.1.4 6.5-.1 9.6.8 8 2.6 11 5 20 4a15 15 0 0 1 9.6 3c6.2 5 9.9 7.9 18.3 8.6" class="b"/><path d="M8.4 96.3c2.8-.4 5.2-2.1 7.9-2.8 3-1 6.4-1.1 9.5-1.6 5.7-.8 8.4-4 13.1-6.5 4.3-2.3 8-.6 12.2.7 5.5 1.3 10.6-1.7 15.7-3.1 2.5-.8 5.3-.4 7.8-.5 3.5-.3 7-1.4 10.5-1 4.6 0 9.5 1 14-.6 4.6-1.3 8.8-5.2 13.9-4.8 3 .3 5.8 1.5 8.7 2.3q3.4.9 7 1.2c1.7.2 3.5.1 5.2.7 5.2 1.7 9.4 5.8 14.8 7.2 2.2.6 4.7.4 7 .4q3.6 0 7 1.5c2.8 1.4 5.2 3.7 7.8 5.5q5.9 4.1 13 4.5" class="b"/><path d="M8.4 92c3-.8 5.7-2.4 8.7-3 4-1 8.3-1.4 12.2-2.7 5-1.4 8.8-5.6 14-6.3 2.6-.4 5.2.2 7.8.6q5.3.6 10.5-1.4c2.5-.9 5.1-2 7.8-2.4q2.6-.3 5.2-.1 3.5-.1 7 .5c4.3 1 8.6 2.8 13 1.8 5.7-1.1 9.8-5.5 14.9-7.8 4.5-1.7 9.4.2 14 1.3q4.7 1 9.5 2.1c5.4 2 9.5 6.6 14.8 8.6 2.8 1.2 5.8 1 8.7 1.2q3.3.3 6.1 1.6c2.8 1.4 5.3 3.5 7.9 5.3q5.9 4 13 4.7" class="b"/><path d="M8.4 88c7.7-2.9 15.8-4.4 23.5-7 3-1 5.9-2.8 8.8-4a22 22 0 0 1 7.8-2c4 0 8.2.5 12.2-.6 4.6-1.2 9-3.5 14-3q4 .3 7.8 1.8c3.9 2 7.8 3.8 12.2 2.4 11.8-4 12.7-12.4 27.9-8.7q3.5 1 7 2.3 2.7.7 5.2 2c4.3 2.5 8.3 5.7 13 7.4 5 2 11 1.1 15.7 4 7.2 4.2 11 8.7 20 9.4" class="b"/><path d="M8.4 84.7c2.5-1.1 5.3-1.4 7.9-2.2q4.8-1.7 9.5-4 3.4-1.6 7-2.3 3.2-.9 6.1-2.3c4.1-2 8.5-4 13-4 3 0 6 .5 8.8.1 3-.3 5.8-1.4 8.7-2.1 4.3-1 9-.6 13 1.2 3.3 1.5 6.8 3.4 10.5 2.5 10.3-2 16.6-10.8 28-9.3 4 .6 7.5 2.8 11.3 4.3 5.7 2.7 11.1 6.3 17.4 7.7 5 1.5 10.4 1.5 14.8 4.5 6.4 4.1 11 8.4 19.2 8.7" class="b"/><path d="M8.4 82.2c2-.9 4-1.2 6.1-1.7q2.3-.8 4.4-2c4-2.2 7.7-5.6 12.2-7.1l4.3-1c5.5-1.7 10.7-5 16.6-5.2 2.3 0 4.7.7 7 .9 3.5.4 7-.5 10.4-1.2Q78 63.3 86 66.4c3.4 1.2 7 .5 10.4-.4 7.5-1.6 14.1-6.4 21.8-7.2 3.7-.4 7.3 1.3 10.5 3 4.9 2.2 9.6 5 14.8 6.5q5.2 1.4 10.5 2.6 4.6.7 8.7 2.8c7.3 4.2 11.6 9.4 21 9.2" class="b"/><path d="M8.4 79.8c2-.7 4.1-1 6.1-1.8 6.2-2.6 10-8.6 15.7-12 2.1-1.1 4.7-1.3 7-2.2 4.7-1.6 9.7-3.2 14.8-3 3.5.2 7 1.4 10.5 1.4 3.7 0 7.5-.7 11.3-.6q4-.2 7.8.1c2.3.2 4.7 1 7 1q3 .2 6-.4 4.5-.6 8.8-1.9c4-1.2 8-3 12.2-4 4.8-1.2 8.7.2 13 2.2 4.5 1.7 8.7 4 13.1 5.6q5.6 2 11.4 3.1c2.9.6 6 1.1 8.7 2.4 8 4 11.6 9.3 21.8 8.7" class="b"/><path d="m8.4 76.8 5.2-1.4c4-1.5 6.9-4.7 9.6-7.6 2.5-2.6 4.8-5.6 7.9-7.6 1.3-.8 3-1.2 4.3-1.8q3.9-1.5 7.9-2.2 5.2-.5 10.4 0 5.3 1.1 10.5 1.6 4.8 0 9.6.6c2.6.2 5.2-.1 7.8 0q3.5.2 7 .5 6.6.2 13-.6c6-.9 11.5-3.3 17.5-3.4 2.6-.2 5.3.4 7.8 1q4 1 7.9 2.2c5 1.8 9.7 4.4 14.8 5.9 4.6 1.4 9.6 1.3 14 3.4 7.8 3.7 10.4 6.8 20 6.5" class="b"/><path d="M8.4 72.6q3.1-.7 6.1-1.7c6.3-2.7 10-8.8 14.8-13.4q2.4-2 5.3-3.4 3-1.4 6-2.2c3.2-.8 6.5-.4 9.7 0 5.8.5 11.6 1.6 17.4 2.2 2.6.3 5.2 1.3 7.8 1.4h7c4.6.5 9.3 1.3 14 1.3 6.1 0 12-2.1 18.2-2.2q5.7 0 11.4.6c4 0 8.3.2 12.2 1.6 4.1 1.4 8 3.7 12.2 5 4 1 8.2 1.2 12.2 2.5 3.8 1.2 7.5 3.1 11.3 4.4 3 .9 6.4 1 9.6 1.3" class="b"/><path d="M8.4 67.3q4-1 7.9-2.4 3.2-1.3 6-3.7c3.7-3 6.5-7 10.5-9.4 6.7-4 9.8-4.7 17.4-3.2 5.5.8 11.1 1.2 16.6 2.2 2.7.5 5.2 1.6 7.8 2 3.2.5 6.5.5 9.6 1 3.8.7 7.5 1.8 11.4 1.9 5.9 0 11.5-2.8 17.4-2.3 4 .6 8 1.7 12.2 1.7 3.8-.2 7.5-1 11.3-.6 4.3.3 8.3 2.3 12.2 3.9 3 1 6.5 1.4 9.6 2.2 5 1 9.9 3 14.8 4.6q5.2 1.2 10.5 1.7" class="b"/><path d="M8.4 61.8c8-2.8 11.2-1.5 18.3-7.8a43 43 0 0 1 7.9-5.9c2.6-1.5 5.5-3 8.7-3 4 0 8 1.6 12.2 1.9q7 .7 13.9 2.6 2.6 1 5.2 1.7 4 .6 7.9 1.1 3.5.6 7 1.6c2.5.6 5.2 1.2 7.8.6 5.5-.9 10.8-4.7 16.5-3 3.5 1 6.9 2.5 10.5 2.8 2.6.3 5.3-.5 7.8-.9 3.8-.6 7.7-1 11.4 0q3.4 1 7 2a61 61 0 0 1 9.5 2.4c4 1.4 8 3.2 12.2 4.3 3.7 1 7.6 1.3 11.4 2" class="b"/><path d="M8.4 56.8q4.3-1.6 8.7-2C23 54 27.3 50 32 47c7.9-4.8 10.6-4.7 19.2-2.5 6.2 1 12.4 2 18.3 4.2q2.6 1 5.2 1.8c3.2.7 6.5.8 9.6 1.4l6.1 1q3.6.9 7-.2c5.4-1.5 10.7-6 16.6-4 3.4 1.2 6.8 3 10.4 3.5 4.1.7 8.2-.7 12.2-1.3q5.7-.8 11.3.6c3.2.6 6.6.7 9.6 2 4 1.3 7.5 3.6 11.4 5.1 4.6 2 9.9 2 14.8 3" class="b"/><path d="M8.4 52.4q3-1.3 6.1-2c3-.4 6-.6 8.7-1.7 4.7-1.5 8.5-5 13-6.6 5-1.8 9.2-.4 14 .5 3.2.5 6.5.6 9.6 1.5C64 45 68 47.2 72 48.7c4.8 1.7 9.9 2.1 14.8 2.5 3.2.1 6.6.7 9.6-.6 5.6-2.3 11.2-6.7 17.5-4.6 3.4 1.1 6.8 2.7 10.4 3.3 4.4.6 8.8-.7 13-.8 4.7-.3 9.4.6 14 .7q5.6.1 10.5 2.8c3.4 1.8 6.7 4.2 10.5 5.1 3.6 1 7.5 1 11.3 1.7" class="b"/><path d="M8.4 48.6q3-1.4 6.1-2.2c3.2-.7 6.5-.8 9.6-1.7q3.1-1 6.1-2.4c2-1 4-2.2 6.1-2.6 5-1.3 9.9 1 14.8 1 9-.7 12.5 2.6 20 5.9 7 2.4 14.5 3.8 21.9 2.3 4-1.1 7.3-3.8 11.3-5 6.9-2.3 13.2 1.7 20 2.4 3.8.4 7.6-.5 11.3-.1q5.7.5 11.4.8 3.5 0 7-.2c7.3-.2 11.8 5 18.3 7 3.6.9 7.5.8 11.3 1.4" class="b"/><path d="M8.4 45.2q3.4-1.7 7-2.6c3.4-.7 7-.8 10.4-1.6q3.6-1 7-2.6 2.9-1.3 6.1-1.1c4.1.1 8 1.9 12.2 1.4 8.7-1.9 12 1.3 19.2 4.8q2.2.6 4.3 1.3 3 1 6.1 1.7 5.3 1.1 10.5-.3c3-.7 5.8-2.5 8.7-3.7 7.6-3.4 15.7.9 23.5 1.1 3.8.5 7.6-.4 11.4.3 3.4.5 7 1.3 10.4 1.3q4.5 0 8.8-.8c8.6-1.5 12.4 4.3 20 5.6q4.7.6 9.6.8" class="b"/><path d="M8.4 41.7q3-1.4 6.1-2c4-.8 8.2-.5 12.2-1.3q3.6-.6 7-2.2c4-1.2 8.2 0 12.2.8 2.9.7 5.9 0 8.7-.6 6.4-1.4 11 2.4 16.5 4.4 6.6 1.3 12.3 4.7 19.2 2.5 3.4-.8 6.3-2.8 9.6-3.8 3.4-1.2 7-.7 10.5.2q6 1.3 12.2 1.9c3.4.4 7-.2 10.4.2 5 .6 9.9 1.7 14.9 1 6.2-.9 11.2-3 17.4 0 8 4 9.9 3.1 18.3 3.5" class="b"/><path d="M8.4 38q3-1 6.1-1.2c3.8 0 7.6.6 11.3.3a33 33 0 0 0 7.9-1.8c3.4-.8 7-.4 10.4.2q3.5.7 7 .3c2.9-.5 5.8-1.3 8.7-1.1 3.3.1 6.5 1.3 9.6 2.3q2.2.6 4.4.8l4.3 1.3c15.4 5.6 17.2-4.6 31.4-1.7 5 .6 9.9 1.8 14.8 2.4q4 .3 7.9.3 4.3.4 8.7.4c5.8-.1 11.6-2 17.4-2.2 4.3-.1 8.2 2 12.2 3.1 4.3 1.1 8.7.6 13 1" class="b"/><path d="M8.4 34.2c4.1-.7 8.2.7 12.2 1.3 4.7.8 9.4-.2 14-1.1q3.8-.6 7.8-.6 3.9.5 7.8.5c3 0 5.9-.6 8.7-.9q4.5-.4 8.8.1c2.8.4 5.9.5 8.7 1.3 4.2 1.1 8.5 2.9 13 2.8 2.7-.1 5.3-.8 7.9-1.2q4.7-.8 9.6-.9 3.8-.1 7.8.2c3.8.5 7.6 1.5 11.3 2.1q7.9.8 15.7 0c5-.6 9.9-1.8 14.8-2 4.5-.3 8.8 1.5 13.1 2.3 4.6.5 9.4.3 14 1" class="b"/><path d="M8.4 30.2c3.7.2 7 2 10.5 3 3.6 1.2 7.6 1 11.3.3q4-.3 7.8-1c4.7-.9 9.4 0 14 .4q4.8.3 9.6-.8c8.6-1.7 14.2-1 22.6 1.2 5.1 1.3 10.5 1.4 15.7 1.4 4.1 0 8.2-1 12.2-1.5 5-.5 10 1.4 14.8 2.3 4.3.7 8.8 0 13.1-.1 5-.3 9.9-1.2 14.8-1.4q4.9 0 9.6 1.1c3.4 1 7 .6 10.5.5q4.4 0 8.7.7" class="b"/><path d="M8.4 25.9c3.8 1 6.9 3.5 10.5 4.8 3.3 1.3 7 1 10.4.6 1.7-.3 3.6 0 5.3-.1 3.7-.3 7.5-1.3 11.3-.6 10.4 2 10.5 2.3 21-.6 2.7-.8 5.7-.7 8.6-.7q5.7 0 11.4 1l7 1.5c2.5.7 5.1 1.5 7.8 1.4 4.2 0 8-2.2 12.2-2.5 6.2-.5 12 3.4 18.3 2.7 5.2-.4 10.4 0 15.7-.1 2.3 0 4.6-.5 7-.5 3.4.1 7 1 10.4 1.4 2.9.5 5.8-.2 8.7-.5q4.8-.3 9.6.2" class="b"/><path d="M8.4 21.5c5.4 2 9.7 6.8 15.7 7.2 3.2.2 6.4-.4 9.6.3 4 .2 8.2-.6 12.2.6 5.7 1.3 9.8 2.7 15.7.8 3.1-.8 6.3-2.2 9.6-2.6 4.3 0 8.7-1.2 13-1q4.5.3 8.8 1.6c3 1.2 6.2 2.7 9.5 2.6 3 0 5.9-1.2 8.8-2 5.6-1.4 11 1.3 16.5 2.4 2.3.5 4.7 0 7 0 4.6 0 9.3 1 14 1 2 0 4-.5 6-.4 3.5 0 7 .8 10.5 1.2 3 .3 5.9-.5 8.7-1q4.7-.7 9.6-.9" class="b"/><path d="M8.4 17.4c4.6 1.6 8.4 5.2 13 6.7 2.9 1 5.9 1 8.8 1.3 1.7.1 3.5.7 5.2.9q4 .4 7.9 1.3 4.2 1.6 8.7 2.5c7.2 1.3 13.1-4.3 20-4.9 3.2 0 6.4-.7 9.6-1q5.2-.6 10.5.5c4.3 1.2 8.4 3.7 13 3.3 3.5-.1 7-1.4 10.5-1 6 .6 11.3 4.3 17.4 3.5 4.7-.1 9.3 1 14 .9q3 0 6-.6 3.1-.4 6.2-.1c3.1.1 6.4.8 9.6.4 2-.2 4-.9 6-1.2q4.4-.8 8.8-1.2" class="b"/><path d="M8.4 13.9c5.5 1.4 10.2 5 15.7 6.6 5.2 1.4 10.5 2.3 15.7 3.8 3.3 1 6.3 2.7 9.6 3.6 8 2.7 14.2-5.2 21.8-6.3h9.6c3.4 0 7-.4 10.4-.3 3.6.3 7 1.8 10.5 2.7q3.8 1 7.8 1 4-.2 7.9.5c3.8.7 7.5 2.5 11.3 3.3 2.8.5 5.8.3 8.7.8q5.3.7 10.5.1c3.2-.4 6.3-1.5 9.6-1.6 3.7-.3 7.5.3 11.3 0 2.3-.1 4.7-.8 7-1.1q3.8-.6 7.8-1" class="b"/></svg>