<svg xmlns="http://www.w3.org/2000/svg" id="a" width="1920" height="2400" viewBox="0 0 192 240"><defs><style>.b{fill:none;stroke:#fff;stroke-miterlimit:10;stroke-width:.3px}</style></defs><path d="M0 0h192v240H0z" style="stroke-width:0"/><path d="M7.8 222.5c3.8-.3 7.6-1 11.4-1 5 .4 10 1.3 15 1.5q3.5 0 7-.6c1.4-.2 3-1 4.3-.8q6 1.5 10.6 5.6h8.8q2.4-1.4 5.2-1.4t5.3 1.4h7.9c.9-.4 1.8-1.4 2.6-2q2-1.4 4.4-2 1.4-.3 2.6-.5 1.3-.8 2.7-1.3c3.5 1.4 6 1.2 9.6 0 3.6 1.2 6.8 3.4 10.6 4.1 1 0 1.8-1 2.6-1.5q2-1.5 4.4-2.4c1.2-.1 2.4.7 3.5 1 1 .3 2.3 1 3.5.8q3.5-.8 7-1.4 2.2-.4 4.4-.5a328 328 0 0 1 19.3 2.9q3.5.7 7 1l2.7-1q4.7-1.8 9.6-2.9l.9.2.9-.3q1.2.6 2.6.8" class="b"/><path d="M7.8 220.6q7-.8 14-1.5 5.2.6 10.6.8 4-.1 7.9-.7 4.6.7 8.8 3.1c1.1.7 2.3 2 3.5 2.6q3.5.2 7-.1c5.8-4.8 15.4-5.4 21 0q2.3.1 4.4.1c.8 0 2 0 2.7-.3q1.8-2 4.4-2.8 2-1.4 4.3-2.3c1.1-.6 2.4 0 3.6.1q2.6.3 5.2-.5c2.7.8 5.3 2.3 8 3.3 1 .4 2.3 1 3.4.6q2.9-2.4 6.2-3.8c1.8.2 3.5 1.3 5.3 1.8 2.6-.5 5.2-1.5 7.9-1.8q2.2.1 4.3.5 8 1 15.8 2.3l5.3 1.2c1.4.3 3 .8 4.4 0q6.4-2.4 13.2-4l1.7.3 1.8-.3 1.7.7" class="b"/><path d="M7.8 218.6c7.3-.5 14.6-2 22-1.7 3.5 0 7 0 10.5.9 2 .5 4.3 1.3 6.1 2.4 1.2.7 2.3 2.1 3.5 2.3h6.2q5-4 11.4-4.8c5.9-1 12.4.5 16.7 4.8h4.3c1-.1 1.9-1 2.7-1.5q2-1.5 4.4-2.7c1.9-1 4-1.8 6.1-1.4 1.1 0 2.4-.3 3.5 0 3 .8 5.9 2.5 8.8 3.6 2.3 1 2.6.2 4.4-1q2-1.6 4.4-2.6c2-.1 4 2.3 6.1 1.2q2.2-.8 4.4-1.2c2.3.1 4.7.9 7 1.2 7 1.2 14.2 1.8 21 3.8 5.6-1.6 11-3.9 16.7-5q1.9.1 3.6.4c.3-.2 1.3-.4 1.7-.3l.9.5" class="b"/><path d="M7.8 216.6c8.2-.6 16.4-2.2 24.6-1.6 5.6.3 10.5 1.6 14.9 5.2h6.1c1-.1 1.9-1.2 2.7-1.7q2-1.4 4.4-2.3c6.1-2 13-2.7 19.3-.4q2.3.8 4.4 2.2c.8.6 1.7 1.7 2.6 2.2q1.7.1 3.5-.2l4.4-2.9a15 15 0 0 1 15-.8q3 1.6 6 2.6c1-.1 2-1 2.7-1.6 1.6-1 3.3-2.5 5.3-2.8l3.5 1.5q1 .1 1.7-.4l3.5-1.2a127 127 0 0 0 19.3 3.9q3.1.4 6.2 1.3 1.8.1 3.5-.5c5.3-1.4 10.4-3.4 15.8-4.5 1.7-.2 3.5.4 5.3.5.4-.2 1.3-.5 1.7-.5" class="b"/><path d="M7.8 214.6c7.9-.5 15.8-2 23.7-1.5 5.2.3 9.9 1.6 14 4.8h7c4.9-4.8 12-6 18.5-6.2 4.5-.1 9.2.6 13.2 2.8 1.5.9 2.8 2.5 4.3 3.4q1.3 0 2.7-.2 2.1-1.4 4.4-2.6c8.6-4.4 12.3-1.6 20.1 2 1-.2 1.9-1.2 2.7-1.8q2.4-2 5.2-3.1c1.5.2 3 1.2 4.4 1.7q2.1-1.2 4.4-1.8l5.3 1.7q5.6 1.7 11.4 2.5 3.5.5 7 1 2.7-.1 5.3-.8c5.3-1.4 10.4-3.3 15.8-4.3l4.4.6q1.4.3 2.6 0" class="b"/><path d="M7.8 212.5c7.3-.5 14.6-1.9 22-1.4 4.9.1 9.9 1.3 14 4q4 0 7.9-.5c1.3 0 2.3-1.4 3.5-1.9a25 25 0 0 1 5.3-2c9.4-2.5 21.8-3 29 4.8l2.6-.1q2-1.4 4.4-2.4c7.6-3.7 12.4-1.7 19.3 2.1 1.3 0 2.3-1.6 3.5-2.2q2.4-2 5.2-3.1c1.5.4 3 1.3 4.4 1.7q1.7-1 3.5-1.7c1.8.3 3.6 1.2 5.3 1.8a52 52 0 0 0 9.7 2.5q2.2.3 4.4.4 1.2.2 2.6.2a52 52 0 0 0 13.1-2.6q4.5-1.4 8.8-2.3 4 .7 8 1" class="b"/><path d="M7.8 210.3c11-.6 22.8-3.4 33.4 1.4q6 0 12.3-.6a36 36 0 0 1 17.5-4.4c7-.3 14.2 1.4 19.3 6.4H93l4.4-2.2c6.9-3 12.3-1.5 18.5 2.2l.8-.1q4.1-3.3 8.8-5.5c1.5.2 3 1.2 4.4 1.6 3.7-1.4 3-2.3 7-.5a44 44 0 0 0 10.6 3q2.6.1 5.2.1c2.6.3 5.4-.2 8-.6q5.3-1.1 10.5-2.6c1.7-.3 3.5-1.1 5.2-.9q4 .7 8 1.2" class="b"/><path d="M7.8 208c7-.1 14-1.5 21-1.1 3.3 0 6.6.8 9.7 1.4h6.2l9.6-.3c.9 0 1.9-.7 2.6-1l3.5-1.2c9.3-2.3 20-2.4 28.1 3.2 1 .7 2.2 2 3.5 1.8h1.8l2.6-1.2a19 19 0 0 1 16.7 0c1 .4 2.3 1.4 3.5 1.2 3-2 6.2-4.2 9.7-5.5q1-.2 1.7.2 1.8.7 3.5 1.3c4.5-2 3.3-2 8-.4 3 1.1 6.3 2 9.6 1.9l4.4.1c1.1.1 2.4.6 3.5.6l5.3-.8 7.9-2c1.6-.3 3.6-1.3 5.2-.9q4.4 1 8.8 1.5" class="b"/><path d="M7.8 205.8c5.9.1 11.7-1.1 17.6-1.2q4.9 0 9.6.6l8-.2h9.6c1.7 0 3.6.3 5.2-.5q8.6-3 17.6-2.2 8.6 1 15.8 6.2 2.2.1 4.4-.2 3.4-1.6 7-2.2c2.9-.6 6 0 8.8.7 1.7.5 3.3 1.9 5.2 1.7 2.4-1.3 4.6-3 7-4q2.2-1.2 4.4-1.7l3.6 1.1q1.2.7 2.6.4c1.3-.6 2.9-1.4 4.4-1.6q3 1 6.1 1.6c3.8.7 7.7 0 11.4 1.1q1.8.4 3.5 1l3.5-.7q5.3-1.4 10.6-2.9c1.4 0 3 .7 4.4 1q3 .7 6.1 1.1" class="b"/><path d="M7.8 203.6c5.3.2 10.5-1 15.8-1.2q4-.3 8 0 8.6-.7 17.5-.4l9.6.2c1.4-.2 3-.9 4.4-1.1a35 35 0 0 1 25.4 3.7c1 .6 2.3 1.5 3.6 1.3h4.4q3-1.1 6-1.7c3-.6 6-.1 8.9.5 1.1.3 2.3 1 3.5 1.2h1.7c1.9-.6 3.5-2.1 5.3-3 2.2-1 4.6-2.4 7-2.6q3 1 6.2 1.7c.8.3 1.8-.3 2.6-.6q1.7-.7 3.5-1.1c.8-.3 1.9 0 2.6.1l2.7.4q3 .3 6.1.3 5 .4 9.7 2.5 4-.8 7.9-2.2c1.6-.4 3.5-1.5 5.2-.9q4.5 1.4 8.8 2.4" class="b"/><path d="M7.8 201.4c4.4.1 8.8-.7 13.2-1.2q10-.9 20.2-1.1 9-.1 18.4.4c2.7.4 5.2-.8 7.9-1a37 37 0 0 1 20.2 4.1q1.2.8 2.6 1.2h7.9c2.6-.6 5.2-1.3 7.9-1.3q4 .2 7.9 1.3h2.6c1.6-.4 3-1.7 4.4-2.4q3.8-2 8-3.3c2.6.6 5.2 1.7 7.8 2.2a3 3 0 0 0 1.8-.3 35 35 0 0 1 25.4.7c.4.3 1.3.5 1.8.5 11.8-3.8 6.7-3.8 18.4 0" class="b"/><path d="M7.8 199.2c6.2.1 12.3-1.7 18.4-2.2q17.6-1.4 35.1 0l3.6.4q2.1-.5 4.3-.6a36 36 0 0 1 15.8 3q1.8 1 3.5 1.6h13.2l4.4-.5q3 .1 6.1.5h4.4c1.6-.2 3-1.6 4.4-2.2q3.8-2 8-3.3c.7-.2 1.8.3 2.6.5l4.3 1.4c1.1.3 2.4.8 3.5.7q2.6-.8 5.3-1.4c3.8-.6 7.7-.2 11.4-.8l3.5-.6q4.6.8 8.8 2.9 4-1.6 8-2.8 3.9 1.2 7.8 3" class="b"/><path d="M7.8 197q3.1 0 6.1-.8 3.5-.8 7-1.4 18-1.7 36-.6 6.2.3 12.3 1.3 5-.2 9.7 1 3.6 1 7 2.6h29.8q1.5.1 2.7-.6 1.7-1 3.5-2a43 43 0 0 1 7.9-3.1l7 2.3c1.4.4 3 1.1 4.4 1.2l1.8-.5c3.1-.8 6.4-.7 9.6-.7q4.8-.4 9.7-1.7l2.6-.7a58 58 0 0 1 7 2.3l6.2-2.2q3 1 6.1 2.6" class="b"/><path d="M7.8 194.6c1.5.2 3-.5 4.4-1l5.3-1q11.8-1 23.7-1.1c9-.1 18.2 0 27.2 1.4q4.4.9 8.7 2.1c2 .5 4.1 1.6 6.2 1.8h34.2q3-1.8 6.1-3.4 3-1.4 6.2-2.2c2 0 4.1 1.2 6.1 1.7q3.5 1.3 7 2.3 2.2-.1 4.4-.4h5.3q6.3-.2 12.3-2.3c5.1-1.6 4.4-2 9.6.4 1.8-.4 3.6-1.3 5.3-1.8q2.3.6 4.4 1.7" class="b"/><path d="M7.8 192.2c5-2 10.5-2.4 15.8-2.5 4.7-.4 9.4-.9 14-.5 4.1.3 8.3-.1 12.3 0q8.4 0 16.7 1 9 1.5 17.6 4.2h32.4c1 .2 2-.5 2.7-1l2.6-1.3q4.1-2.2 8.8-3.4c9 2.6 18.3 7.3 28 5.3 5.5-1.1 10.6-3.6 15.9-5.3q1.8.5 3.5 1.3c1.4-.2 2.9-1.2 4.4-1.2l1.7.7" class="b"/><path d="M7.8 189.3q6.8-2.2 14-2l8.8-.9h8c2.8 0 5.8.8 8.7.6q9.2-.2 18.4.9c5 .5 10 1.7 15 2.8 1.7.3 3.5 1.2 5.2 1.4h31.6q4.8-2.5 9.7-4.5 2.1-.8 4.4-1.2l1.7.5c4.7 1.4 9.3 3.1 14 4a78 78 0 0 0 19.4.7c1.8-.2 3.5-1.4 5.2-2q4-1.8 8-3.2c.7.2 1.7.7 2.6.6l1.7-.6" class="b"/><path d="M7.8 186.5q6.5-1.9 13.2-1.5 3.4-.7 7-1 3.5.4 7 .4c3 .1 5.9-.3 8.8-.3q2.7.3 5.3.8 8.8 0 17.5.8 9.8 1 19.3 4h31.6c3.1-1.4 13-6.5 15.8-5.4 4.4 1.2 8.7 2.6 13.2 3.4q4.7.6 9.6.8 6 .6 12.3.2 8.3-.9 15.8-4.2" class="b"/><path d="M7.8 183.8q4.3-1.2 8.8-1.3c1.7 0 3.6.3 5.3-.2 1.6-.3 3.5-.8 5.2-.6q4.5.7 8.8.7c3.5 0 7-.5 10.5-.7q3.6.5 7 1.2 4.6 0 8.8.2 8.4.4 16.7 2.2c2.7.5 5.3 1.5 8 2h6q12.3.2 24.6 0c4.3-2 8.6-4 13.2-5.1q1.3-.4 2.6-.5l3.5 1q4.4 1 8.8 1.9c4.3.6 8.8.5 13.2.8 8.5.7 17.2.5 25.4-2.2" class="b"/><path d="M7.8 181.3a39 39 0 0 1 13.2-1q2.2-.7 4.4-1 1.7-.1 3.5.4 2.6.3 5.2.4 6.7.2 13.2-.8 4.5.7 8.8 1.5c5 .1 10 .1 14.9.8a111 111 0 0 1 15 3.3q2 .1 4.3.1h26.3c3.6-1.2 7-2.9 10.6-4 2.2-.7 4.6-1.5 7-1.6q5.7 1.4 11.4 2.3c5.2.5 10.6.3 15.8.8a74 74 0 0 0 22.8-1" class="b"/><path d="M7.8 178.9q5.2-1.4 10.5-1.2l3.5.2 4.4-1c2.4 0 4.7.7 7 .8a68 68 0 0 0 14.1-.7q1.8.1 3.5.4 3.1.4 6.2 1.2c2 .3 4 0 6 .2a85 85 0 0 1 22.9 3.9H114l2.6-.1 2.6-1.1q5.2-2.2 10.6-3.6l3.5-.8h1.7q5.2 1.1 10.6 1.8c5.8.5 11.7.3 17.5.8 7 .4 14.1 1 21-.1" class="b"/><path d="M7.8 176.6q5.2-1.4 10.5-1.3c1.8-.1 3.6.6 5.3.1l4.4-.9a59 59 0 0 0 20.2.1l7 1c1.7.3 3.5 1 5.3 1a79 79 0 0 1 22 3c1 .3 2.3.9 3.4.7h25.5q2.2.2 4.4-.2c6-2.3 12-4.6 18.4-5.4q5.7 1.1 11.4 1.8c5.8.3 11.7.1 17.6.6 7 .3 14 1 21 .4" class="b"/><path d="M7.8 174.5c5-1.8 10.6-1.8 15.8-1.1q2.6-.7 5.3-1.2 4.8.8 9.6.8 5.2-.2 10.6-.7 6 .6 12.3 2c2.5.7 5.3.6 7.9 1q6.2.6 12.2 2.3c1.7.6 3.6.3 5.3.4h8.8c5.5-.1 11.2.3 16.7-.6 1.7-.2 3.6 0 5.2-.8l8.8-2.9 7-1.4 2.7.5q5.2 1 10.5 1.4 5.7.1 11.4.1l9.6.4h6.2c3.5.1 7 .9 10.5.6" class="b"/><path d="M7.8 172.6a30 30 0 0 1 16.7-1.4q3-.8 6.1-1.3a63 63 0 0 0 14 .4c2 0 4.2-.6 6.2-.2 6 .6 11.8 2 17.6 3.2q3.9.8 7.8 1.5 1.8.5 3.6.8h22.8l4.4-.8q3.5-.6 7-.8 2.2.2 4.4-.7a73 73 0 0 1 13.1-3.3q2.3.1 4.4.7 5.7 1 11.4 1.3 8.9-.1 17.6.2 3.5-.2 7-.4 6.2-.1 12.3.8" class="b"/><path d="M7.8 171c3.7-2.2 8.1-2.6 12.3-2.5q2.7.2 5.3.6l2.6-.7c2-.5 4.1-1.1 6.1-.7q4 .6 8 .4c2.5 0 5.2-.7 7.8-.4q12 1.5 23.7 4.4l5.3 1.2h18.4l2.7-.7a76 76 0 0 1 17.5-2q2.2-.7 4.4-1.3 4-1 8-1.7c4.6.7 9.2 1.8 14 2.2 6.6.5 13.4-.2 20.1 0q10.1-1.4 20.2-.2" class="b"/><path d="M7.8 169.7a21 21 0 0 1 13.2-3.2l3.5.3c.8 0 1.8.3 2.6 0q3.8-1.4 8-1.5 2.5.3 5.2.3c2.6.1 5.3-.4 7.9-.2a204 204 0 0 1 29.8 5.5h11.4q2.3.2 4.4-.5a86 86 0 0 1 20.2-3h4.4q4-1.2 7.9-1.9c2.3-.5 4.7.6 7 .8q6.5 1.4 13.2 1.7c5.5 0 11.1-.4 16.6-.4q10.5-2 21.1-.7" class="b"/><path d="M7.8 168.6q1-.2 1.8-1l2.6-1.5c4.7-2 10-1.8 15-1q2.1-.6 4.3-1.4 4-1 8-.7c2.2.2 4.6-.2 7 0 7 .7 14 2.2 21 3.6l8.8 1.9q2.2.1 4.4.1h5.2l3.5-1c9.7-2.7 19.8-3.5 29.9-3.4l4.4-1c.7-.1 1.8-.4 2.6-.1q7 1.5 14 2.7c5.3.8 10.6.3 15.8 0l5.3-.3q3.5-.7 7-1.2 8-.9 15.8 0" class="b"/><path d="M7.8 166.3h2.6c3.8-2.9 8.5-3.9 13.2-3.6q1.8 0 3.5.3a3 3 0 0 0 1.8 0c6.5-3 14-2.7 21-1.6q9.3 1.7 18.5 3.6l6 1.3H79q3-.9 6.1-1.6a126 126 0 0 1 34.2-3.5c1.5 0 3-.8 4.4-.5q7.5 1.7 15 3.2a55 55 0 0 0 15.8.1q3-.2 6.1-.6 3.5-1 7-1.5 8.3-1 16.7 0" class="b"/><path d="M7.8 164h5.3q1.7-1.1 3.5-1.9 6-2 12.3-.7c8.7-4.5 19-2.8 28-.6l8.8 2 3.5.7 3.6-.3c8.7-1.5 17.4-3.6 26.3-4.4q6.6-.8 13.2-.5 4.4 0 8.7 0c7.3.5 14.5 1.4 21 4.5 4.5.4 9-.2 13.3-.7 1.4-.3 3-.2 4.3-.8q3.5-1.2 7-1.7a64 64 0 0 1 17.6 0" class="b"/><path d="m7.8 160.8.9.8h7.9q2.8-1.6 6.1-2h4.4c.8 0 1.9.3 2.6 0l1.8-1a21 21 0 0 1 5.3-1.6c4-.8 8.2-.5 12.3.1s8.2 1.9 12.3 2.8c4-.4 8.2-.4 12.3-.8 7.6-1 15.1-2.5 22.8-3.2 2-.2 4.1.2 6.1.3q4.4.3 8.8.4 3.5.3 7-.7 2.6.6 5.3 0 3-.1 6.1.5a43 43 0 0 1 14 4.9c2 .4 4.2 0 6.2-.2l7-1.1q3-1.5 6.2-2.2a48 48 0 0 1 21-.1" class="b"/><path d="M7.8 156.4c1.2.8 2.3 2.2 3.5 2.8H21q4.3-1.2 8.7-.8c5.5-4.1 12.8-4.5 19.4-3.3q4 .6 7.9 1.7l3.5-.5c4-.6 8.2-.5 12.3-.7q7-.7 14-1.6l3.5-.5q2.2.1 4.4.4l9.6.9c2.3 0 4.8.4 7 0q2.7-.7 5.3-1.2l3.5.8q4-.4 8-1c5.8 1 11.8 2.4 16.6 5.8h6.2l4.3-.8q2.6-1.4 5.3-2.3 7.7-2.2 15.8-1.8c2.6.3 5.3 1.2 8 1" class="b"/><path d="m7.8 152.5 3.5 2.5c.8.5 1.7 1.5 2.6 1.9h15q1.6.1 2.6-1l2.6-1.5q3.8-1.6 8-1.9 6.1-.1 12.2 1.6c1.7-.1 3.5-.8 5.3-1 6-1 12.3-.4 18.4-1.2q3.5-.4 7-.7l13.2 1.5 6.1.5q1.8.2 3.5-.2l7-1.7q1.9.1 3.6.7l1.7.5 2.7-.3 6.1-1c1.7-.1 3.6.6 5.3 1q5.7 1.3 10.5 4.6 4 .1 8 0c1.6.2 2.9-1.2 4.3-1.8q3.3-1.5 7-2.3a37 37 0 0 1 14 0q3.1-.3 6.2-.3" class="b"/><path d="M7.8 149q4.6 2.4 8.8 5.5h15c3.7-2.7 8.3-4.3 13-4 3 0 6 .8 8.9 1.1a55 55 0 0 1 18.4-2.3c2.6 0 5.3-.4 7.9-.4l9.6 1q6.6 1 13.2 1.5c2 .2 4.1-.9 6.1-1.3l5.3-1.3 4.4 1.1q1.7.7 3.5.4c3-.4 5.9-1.2 8.8-1.5 5 1 10 2.6 14 5.7h8.8a29 29 0 0 1 20.2-4.6c1.4.2 3-.2 4.4-.2q3-.3 6.1-.3" class="b"/><path d="M7.8 147c1.7-1.2 3.7.6 5.3 1.3l6.1 3.3c1.5 1 3.6.5 5.3.6h7.9c1-.1 1.8-1 2.6-1.5q2.5-1.2 5.3-2c3.7-.7 7.7-.1 11.4.6 1.2 0 2.4-.7 3.5-1q3-.9 6.1-1.3c12.7-1.6 25.3 1.2 37.8 2.4l2.6.2 3.5-1 7-1.8q1.4-.4 2.7 0l3.5 1 1.7.5q1.9-.1 3.6-.5l6-1.2c1.5-.3 3 .4 4.5.7a30 30 0 0 1 10.5 5h7.9c1.8-1 3.4-2.3 5.3-2.9q6.3-2.5 13.1-1.8a83 83 0 0 1 13.2-1" class="b"/><path d="M7.8 145.8q1.6-1 3.5-1.7 4 1.7 8 3.5 3.7 1.5 7.8 2.2h6.2l1.7-.9q1.7-1 3.5-1.7c4.3-1.6 8.8-.9 13.2-.2A35 35 0 0 1 63 144q2.6.4 5.3.4c9.4 0 18.7 1.7 28 2.8l3.6.4 3.5-1 8.7-2.3c.8-.4 1.9 0 2.7.2l4.4 1.2c1.3.6 3 0 4.4-.2l6.1-1.4c1.7-.1 3.6.7 5.3 1.1 3 1 6.2 2.5 8.7 4.6h8c.9-.1 1.8-1 2.6-1.5q2.4-1.5 5.2-2.1a28 28 0 0 1 8-1q2.5-.7 5.2-1c1.4-.3 3 0 4.4.1q3.5.3 7 .3" class="b"/><path d="M7.8 144.6q2.5-1.8 5.3-2.8c3.5 1.1 7 2.5 10.5 3.4q5.6.8 11.4 1.1c1 0 1.9-.6 2.6-1q2.2-.8 4.4-1.2c3-.5 6 0 8.8.5 1.5-.2 3-1 4.4-1.4 2.3-.6 4.7-1.4 7-1.3 5.2.9 10.6.4 15.8 1 7 .7 14 2.1 21 2.7 1 .1 2-.4 2.7-.6l3.5-1 5.3-1.5c1-.2 2.4-.7 3.5-.6l4.4 1.2q1.3.4 2.6.6l8.8-2c4.7 1 9.4 2.6 13.2 5.7q2.2.1 4.4.1 2.2.1 4.3-.1 5.2-3.7 11.5-4.2c2.5-.6 5.2-1.8 7.9-1.1q6.5 1 13.1 1" class="b"/><path d="M7.8 142.7h.9q2-1.6 4.4-2.5c.8-.3 1.7-.9 2.6-.6q6 2.1 12.3 2.7l10.5.2q4.8-1.6 9.7-1c1.4.3 3 .8 4.4 0q3.4-1.1 7-1.8 1.8-.4 3.5 0l4.4.5q8 0 15.8 1.1 6.6 1 13.1 1.8 2.2.3 4.4.2a83 83 0 0 1 10.6-3c1-.3 2.3-.9 3.5-.7 2 .4 4 1.2 6.1 1.6l8-1.8c4.6 1 9.4 2.6 13 5.7q3.6.2 7.1 0 2.7-.8 5.3-2.1l5.2-2q1.7-.7 3.6-1 1.6-.8 3.5-.3a74 74 0 0 0 17.5 2" class="b"/><path d="m7.8 140 .9.6h.9c1.8-1.3 6.5-4.1 8.8-3.2Q24 139 29.8 139q5.3-.1 10.5.1a23 23 0 0 1 9.6 0c1.5.4 3-.3 4.4-.6q3-.8 6.2-1.3c2.9.2 5.8.8 8.7.8q7.5 0 15 1.1t14.9 1.7l3.5.1q2.7-.6 5.3-1.5l5.2-1.6c1.1-.2 2.4-.8 3.6-.5l3.5 1a3 3 0 0 0 1.7 0c2-.3 4.1-1 6.2-1.2 4.6 1 9.3 2.7 13.1 5.7h3.5q3.2-.7 6.2-2 5.1-2.2 10.5-3.8 5.6 1.6 11.4 2.7 5.6.8 11.4.6" class="b"/><path d="m7.8 137.3 1.8 1.1h.9q3.9-2.8 8.7-3.6 5.7 1.2 11.4 1 4.9-.2 9.7 0c1.7 0 3.5-.4 5.3-.4q3 .1 6.1.8c3-.2 5.9-1 8.8-1.4q3 .5 6.1.7 12 .3 23.7 1.8 6 .8 12.3.8c2.3 0 4.8.1 7-.8q4.3-1.6 8.8-2.5 1.8.5 3.5.8l4.4-1 4.4 1.2q4.2 1.2 7.9 3.6c4.9.4 9.6-1.4 14-3.1 1.7-.5 3.5-1.4 5.3-1.5l3.5 1c3.5 1.4 7.1 1.5 10.5 3 4 .8 8.2.7 12.3.6" class="b"/><path d="M7.8 134.7q1.4.7 2.6 1.6c1.3-.2 2.4-1.3 3.5-1.8a24 24 0 0 1 7-2q5.8.7 11.5.2 4.3-.4 8.8-.2 1.3 0 2.6-.1l1.8.2q2.2.2 4.3-.1l3.5.6c2-.1 4.2-.6 6.2-.6q4.8.7 9.6.9 8 0 15.8.6 8.3.9 16.7 1 7 0 14-1.1c2-.3 4.1-1.5 6.2-1.4q1.3.1 2.6-.1 4.5.8 8.8 2.6c7.4 1.6 13.3-.5 20.2-2.7q3 1 6.1 2.2 3.6 0 7 1a21 21 0 0 1 5.3 2.1c1 .8 2.4.4 3.5.5h6.2c.9-.2 1.8-1 2.6-1.5" class="b"/><path d="M7.8 132q1.9 1 3.5 2.2 4.8-3.3 10.5-4 2.3 0 4.4.1 2.7-.2 5.3-.2 3.5.6 7 .7l1.8.1c1-.5 2.4-1.2 3.5-.6q2.2.7 4.4.2l4.4-.4c4.4-.2 8.8.6 13.1.9q7.5.3 15 .4c12.5.3 25.2 1.2 37.7-1 1-.1 2.4-.6 3.5-.3l1.8.3 1.7-.3c2 0 4.1.7 6.2 1a38 38 0 0 0 14-.4c1.4-.3 3-.9 4.4-.3q3.1 1 6.1 2.3a22 22 0 0 1 12.3 1.8c1 .5 2.3 1.4 3.5 1.3h8c1.5-.6 2.8-2 4.3-2.6" class="b"/><path d="m7.8 129.6 3.5 1.9h.9a24 24 0 0 1 10.5-3.7q2.2.1 4.4 0c4.2-.5 8.2 1 12.3 1.6q1.8-.8 3.5-1.7c1.8.2 3.5 1.3 5.3 1.6.8.3 1.8 0 2.6-.1l3.5-.3c3 .1 5.9-.9 8.8-1.3q4.8.7 9.7 1.1l4.4.8h4.3q6.6-.1 13.2-.5 9.7-.1 19.3-1.1a14 14 0 0 1 5.3 0l6.1 1.3a45 45 0 0 1 23.7.5q1.8.8 3.5 1.4 4.5-.9 8.8-.3c2.4.4 5 1.3 7 2.5q1.8.2 3.5.1c9.5 0 4.4.4 12.3-3.2" class="b"/><path d="M7.8 127.1c1.5.5 3 1.5 4.4 2q4.9-2.8 10.5-3.7 2.2.2 4.4.2l3.5-.2c3.3.3 6.5 1.5 9.7 2.3q2-1.6 4.4-2.4 3.4 1.7 7 2.4c5.6.7 11-2 16.7-2.2 3.5-.4 7 .6 10.5 1.4l3.5 1 2.6-.2c8.5-.8 17-2.1 25.5-2.4q9 .7 17.5 3.3c6.6-2 14-1.9 20.2 1.2 4.5-1.5 9.5-1.7 14-.5q2.3.7 4.4 1.8h5.3c1.7-.1 3.6.1 5.3-.2 2-1.5 4.6-2.7 7-3.6" class="b"/><path d="M7.8 124.8q2.3.9 4.4 1.9 4.6-2.5 9.7-3.6c1.7-.2 3.5.5 5.2.4q2.7 0 5.3-.4 4.5.8 8.8 2.7c1.7-.8 3.4-2.1 5.2-2.8 2.3.8 4.6 2 7 2.4 5 .8 10-1 15-1.7l5.2-.8a70 70 0 0 1 11.5 3.1c1.7.2 3.5-.5 5.2-.7l9.7-1.7q2.6-.5 5.3-.6l7.9 1q8 1 15.8 4c2.6 1.7 5.8 0 8.7.3q3 .5 6.2.5 3-1.2 6.1-1.9 5.3-1 10.5.4c2 .8 4.2.4 6.2.7 2.6.2 5.3.8 7.9.8 1.3.1 2.4-1 3.5-1.6q3-1.5 6.1-2.6" class="b"/><path d="m7.8 122.5 2.6 1q.9.5 1.8.5 4.3-2 8.8-3.2c1.4-.5 3 .3 4.4.4q2.6.4 5.2.2 2.3-.3 4.4-.7 4.2 1.1 8 3.1c1.9-1 3.9-2.5 6-3.2 2.9 1 5.8 2.1 8.8 2.2 5.4 0 10.6-1.4 15.8-2.1 4.8.5 9.7 1.4 14 3.5 5.3-1.2 10.6-2.7 15.9-3.5 8 1.2 16.2 2.6 23.7 5.7H142c1.2 0 2.4-.7 3.5-1a28 28 0 0 1 8.8-1q3-.3 6.1-.2c4.4.2 8.8 1.2 13.2 1.7 1.6.4 3-1 4.4-1.6q3-1.4 6.1-2.3" class="b"/><path d="M7.8 120.3c1.1.3 2.4 1 3.5 1.2q4.7-2 9.7-3.1 4.3.8 8.7 1.2c2.7 0 5.3-.9 8-1.2q2.7.8 5.2 2.1c.8.4 1.7 1.2 2.7 1q3.1-2.2 7-3.1 4.3 1.3 8.8 1.2c3.5 0 7-1 10.5-1.2 5.8 1 12 1.3 17.5 3.8 1.5-.1 3-.8 4.4-1.2l9.7-2.6c1.4 0 3 .6 4.4.8l3.5.9q3.5-.5 7-.3c5 .3 10 1.5 15 2.3 7.6 1.5 15-1.6 22.7-1.2 4.2.2 8.3 1.2 12.3 2l4.4.5c.8.2 2 .1 2.6-.4q4.3-2.2 8.8-3.5" class="b"/><path d="M7.8 118q1.3.6 2.6 1 4.8-1.9 9.7-3 3.5 1 7 1.5t7 0c2-.3 4.1-1.1 6.2-1.5q2.7 1 5.2 2.3c.8.4 1.8 1.2 2.7 1.2q4.8-3 10.5-3.5l3.5.2 3.5-.2q4.5.6 8.8 1.4c5.6.8 11.3 1 16.7 2.9q6.4-2.6 13.1-4.3 3.1.7 6.2 1.7c1 .1 2.4-.4 3.5-.5q3-.4 6.1-.4c5.3 0 10.6.7 15.8 1 7.3.5 14.7-.8 22 .8q4.8 1 9.6 2.2c2 .4 4.1 1 6.2.7q5.1-2.5 10.5-4.2" class="b"/><path d="M7.8 116c1.4.7 3-.3 4.4-.6l5.3-1.5c1-.4 2.4 0 3.5.3l5.2 1.3c6.2 1.3 11 .1 16.7-1.9q4.2 1.3 8 3.7c1.1 0 2.3-.8 3.4-1.2q3-1 6.2-1.3 5.8-.3 11.4 1.2 4.2 1 8.8 1.2 4 .1 7.9.5 1.7.3 3.5.5l3.5-1.3 8.8-3q.8-.4 1.7-.1c2 .5 4 1.6 6.2 1.9 9.9-3 20.5-1.1 30.7-1a57 57 0 0 1 15.8 2.3q3.5 1 7 2.3 3.5.1 7 0c1.6.3 3-.8 4.4-1.3q3.5-1.5 7-2.7" class="b"/><path d="M7.8 113.7q4.4-1.3 8.8-2.3c1.4-.1 3 .5 4.4.8l7 1.8q4.8 1 9.7 0l5.2-1.7c1.4-.4 3-1.4 4.4-.6q4 1.5 8 3.7c1.4 0 2.9-.8 4.3-1q4.5-.6 8.8.4 3.4 1 7 2 4.8.5 9.6 0c2-.2 4.2 0 6.2-.5 5-1.4 9.9-3.5 15-5a38 38 0 0 1 7 2.4c1.2 0 2.9-.9 4.3-1a72 72 0 0 1 17.6-1c5.8.2 11.8.4 17.5 2 3.1.7 5.8 2.4 8.8 3.3h6.1c11.6 0 6.3.7 16.7-3.4" class="b"/><path d="m7.8 110.7 7-1.7c5.1.6 10 2.7 15 3.7 6.7 1.6 13-1.6 19.3-3.6 1.8-.1 3.5 1 5.2 1.5 2.9 1 5.8 2.3 8.8 2.8q2.6.5 5.3.2 2.6-.4 5.2-.6c3.8-.1 7.7.6 11.5.9 7.6.6 14.6-3 21.9-4.9q2.6.8 5.3 1.8 1.6.7 3.5 1.3a61 61 0 0 1 36.8.6c1.5.6 2.9 1.8 4.4 2h22l5.2-2.6" class="b"/><path d="m7.8 107.7 3.5-.7q1.3-.5 2.6-.2 7.6 1.6 15 4.1c1.4.6 3-.2 4.4-.3a29 29 0 0 1 8.7 0c2.7-.5 5.3-1.8 8-2.6 1.6-.5 3.4-1.4 5.2-1.3q4.8 1.4 9.7 2c3.4.3 7-.5 10.5 0 5 .4 9.9 1.9 15 1.8 6 .1 11.6-2.7 17.5-3.9 3.6 1 7 2.8 10.5 4.2 8-3.1 17-3.2 25.4-1.7q3.9.7 7 2.6l4.5.5c5.8.3 11.7 0 17.5.1h8.8c.9-.1 1.8-.9 2.6-1.3" class="b"/><path d="m7.8 104.8 2.6-.5q3.1.5 6.2 1.2 4 1 7.9 2.3c1.4.4 2.9 1.3 4.4 1.3 6.2-2 12.9-2 19.3-.8 3.7-1.2 7.5-2.7 11.4-3.3q4.3-.9 8.8-.6 3.5 0 7 .2c4.4.4 8.8 1.7 13.1 2.4 6.3 1.1 12.5-.7 18.5-2.5 1-.4 2.4 0 3.5.3a47 47 0 0 1 9.6 4.3q1.2 1 2.7.8 4.6-1.8 9.6-2.1a37 37 0 0 1 10.5.9c.8.2 1.9.7 2.7.5 8.8 0 17.5 1 26.3.8h8c1.3-.1 3 .2 4.3-.3" class="b"/><path d="M7.8 102c2.3 0 4.7.8 7 1.3q6.4 1.5 12.3 3.8a58 58 0 0 1 25.5-1.9l4.4.4q4.3-1.3 8.7-1.7 3.6-.2 7-.5 4.5-.6 8.8-1.6c4.7 1 9.3 2.4 14 2.4q4.5 0 8.9-1.2l3.5-.8a3 3 0 0 1 1.7-.1q5.2 1.2 9.7 3.7c1.1.5 2.3 1.4 3.5 1.8h16.7l5.2-.7c5.6-.4 11.2-.2 16.7-.4q6.3-.5 12.3 1.1h10.5" class="b"/><path d="M7.8 99.9a91 91 0 0 1 18.4 5.3c6.7-2.8 14-3.4 21.1-3.4 7.9 0 15.8.5 23.7.3l5.3.3c3.5-.8 7-2 10.5-2.8q3.9 1 7.9 1.5 4.4.5 8.8-.3l6.1-1.2q7.5 1.8 14 5.7h15.9q3-.7 6-1l8.9-.6q6-1 12.3-.8 5.6 0 10.5 2.4h7" class="b"/><path d="M7.8 97.9a112 112 0 0 1 15 4.2c1 .4 2.2 1 3.4.8 5-2.3 10.5-3 15.8-3.5a164 164 0 0 1 36.9 1.3c1.1.2 2.5.5 3.5-.1l5.3-2.1c1.6-.6 3.5-1.6 5.2-1q5.2 1.4 10.6.8 2.2-.2 4.4-.7c1-.1 2.4-.6 3.5-.1q3.1.8 6.1 2c1.1.3 2.4 1.1 3.5 1.3q3.1 0 6.2.2c5.5.4 11.1 1 16.6.6 8.2-.9 16.4-2.9 24.6-2q4.6.3 8.8 2l2.6 1.3h4.4" class="b"/><path d="M7.8 96a76 76 0 0 1 14 3.9l1.8.7h1.8c1.2.2 2.4-.7 3.5-1q2.5-1 5.3-1.4a107 107 0 0 1 40.3.3l6.2 1.2c1 .2 2.4.7 3.5.5q3.8-2 7.9-3.7c2-.7 4-1.7 6.1-1.6q4 .7 8 .5c2 0 4-.9 6-.3 2.8.5 5.4 1.6 8 2.4l5.2-.2c7.3-.2 14.7.6 22 .1q4.3-.4 8.7-1 4.6-.3 8.8-.2c5.8.2 12 .7 16.7 4.4h2.6" class="b"/><path d="M7.8 94q5.3 1.1 10.5 2.7c1.5.4 3 1.2 4.4 1.6h4.4l2.6-1q3.1-1 6.2-1.4a102 102 0 0 1 32.5.4q3.4 1 7 2h13.1c7-4.4 15.5-6.7 23.7-5.3 2.4.2 4.7 1.1 7 1.5q4.5-.5 8.8-.5c6.7-.2 13.5.4 20.2-.1 9.3-.8 19-1.8 28 .7q2.5.7 4.5 1.9c1 .6 2.1 2 3.5 1.8" class="b"/><path d="M7.8 92q4.5.9 8.8 2.4c1.4.4 2.9 1.2 4.4 1.5h7.9q3.8-1.2 7.9-1.6a82 82 0 0 1 25.4.8c1.4.3 3 1 4.4.8h25.5c.9.2 1.8-.6 2.6-1a27 27 0 0 1 4.4-2 38 38 0 0 1 15.8-1.3q1.3.5 2.6.2c10.1-2 20.5-.6 30.7-1.1q6.6-.5 13.2-.4c7.8-.3 16.7 0 22.8 5.6" class="b"/><path d="M7.8 90q5.5 1.3 10.5 3.6h15.8a74 74 0 0 1 9.7-.6q7.5-.8 15-.2c3.1.3 6.3 1 9.6.8 2-.1 4.2.2 6.1-.3 5.8-1.4 11.8-.6 17.6.1q2.5.3 5.2 0 2.2-1.1 4.4-1.8c3.7-1.1 7.6-1.2 11.4-1.3q6-2 12.3-2.5 4 .1 8 .3c6.6 0 13.4-.2 20 .3a91 91 0 0 0 16.8-.7c5 .3 10.2 1.8 14 5" class="b"/><path d="m7.8 88 5.3 1.9c1.1.4 2.3 1.2 3.5 1.3h19.3q4.8-.9 9.6-1 8.4-.5 16.7 1c1.5-.2 3-1 4.4-1.5q4.7-1.7 9.7-2.2c8.6-.7 17 1.8 25.4 3 4 0 7.7-1.6 11.4-2.8a59 59 0 0 1 8.8-2.2l5.3.7q7.8.5 15.8.2c6 0 12.3.5 18.4.1 3.8-.1 7.6-.8 11.4-1.2 4 .7 8.2 2 11.4 4.6" class="b"/><path d="M7.8 86.3q3.1 1.1 6.1 2.6h18.5a63 63 0 0 1 22.8-.8q5.2-2 10.5-3.3c2.9-.7 5.8-1.5 8.8-1.6 6.5-.6 13 .5 19.3 1.9l6.2 1.3q3 .8 6.1.4c4.8-.5 9.3-2.5 14-3.5 1.7-.3 3.6.6 5.3.7q4 .8 8 .8 7 .2 14 0 6.1.1 12.2-.1 7-.6 14-1.7 5.8.9 10.6 4.2" class="b"/><path d="M7.8 84.6q2.2 1.1 4.4 1.8c2.9.3 5.9 0 8.8.1h7.9l4.4-1q7-1 14-.5l1.8.2q1.3-.2 2.6-.8a131 131 0 0 1 13.2-3.6q2.2.2 4.4.8 6.5 1.5 13.1.6 3.5-.6 7-1 2.3-.6 4.4.2l7 1.6a18 18 0 0 0 8 .7q4.8-1 9.6-2.3 1.3-.4 2.6-.5l4.4 1q4.4 1 8.8 1.3 7 .2 14-.1 6.6 0 13.2-.6 6.1-.6 12.3-1.8c3.7.4 7.4 2 10.5 4" class="b"/><path d="M7.8 82.6c2.3.5 4.6 1.6 7 1.6 3.5-.1 7.1.2 10.6-.1 5.9-1.9 12.2-2.2 18.4-1.9l1.8.1c.4 0 1.3-.4 1.7-.5a159 159 0 0 1 11.4-3.2q1.8 0 3.5.5c13.7 4.1 16.3 4 29.9.3 1.4-.3 3-1 4.4-.8 3.2.7 6.4 1.8 9.6 2.3 4.8.5 9.4-1.4 14-2.3 1.8 0 3.6.7 5.3 1q4.8 1.4 9.7 1.8c4 .5 8.2-.7 12.3-.8q4-.3 7.9-.1 3 .2 6.1-.2 6.1-.8 12.3-1.9c3.7.3 7.3 2 10.5 3.9" class="b"/><path d="M7.8 80q3.5 1 7 1.8H21c1.7-.3 3.5-1.1 5.2-1.4a51 51 0 0 1 15-1q1.7.1 3.5-.3l10.5-3 3.5 1c3 .7 5.9 2 8.8 3l3.5 1q1.4-.2 2.6-.6a39 39 0 0 1 15-1.2q1.3-.3 2.6-.8c10.3-3.2 5.9-2.4 15.8-.5q4.5.5 8.8-.7l3.5-1a4 4 0 0 1 2.6 0q4.8 1.5 9.7 2.6c2 .6 4.1 0 6.1-.2l7-.5q4.8-.4 9.7-.2c2 0 4.1.5 6.1.2l13.2-2.1q5.5 1 10.5 3.8" class="b"/><path d="M7.8 77.6q5.2 1.2 10.5 1.9a45 45 0 0 1 22-3q1.4.2 2.6-.1 4.8-1.6 9.7-2.6a74 74 0 0 1 14.9 5.7c1.7-.4 3.5-1.5 5.3-1.8a44 44 0 0 1 19.3-1c1.4 0 3-1 4.4-1.4q2.5-.9 5.2-1.5c2.9.8 5.8 1.7 8.8 1.7 3.6 0 7-1.2 10.5-1.7l5.3 1.4c1.4.3 3 1 4.4 1.1q4-.1 7.9-.6c5.2 0 10.5-.3 15.8 0 2 0 4.1.6 6.1.2l12.3-2.1q6 .9 11.4 3.9" class="b"/><path d="M7.8 75q3 .7 6.1 1c1.2.1 2.5.6 3.6.2a48 48 0 0 1 21-2.6c1.5 0 3 .3 4.4-.2q4-1.2 8-2l4.3 1.4q3.2 1 6.1 2.6 1.8 1 3.6 1.7 1.3.1 2.6-.3 3.7-1.8 7.9-2.5 7.4-1.5 15-.6c1.3.2 2.9.7 4.3.7q3.8-1.5 7.9-2.8c.8-.2 1.9.2 2.6.4q2.2.5 4.4.7c3.9.5 7.7-.7 11.4-1.2q3.1.7 6.2 1.7 5.6 0 11.4-.2 5.7 0 11.4.2c2.9 0 5.9.5 8.8.6l8.7-1.6c1.8-.2 3.6-.8 5.3-.7q6 1.2 11.4 3.9" class="b"/><path d="M7.8 72.5c2.6.3 5.3 1 8 1q5.4-2.1 11.3-2.6a74 74 0 0 1 14 0l7-1.6c1.5-.5 3 .3 4.5.7q3 1 6.1 2.2l4.4 2.5h2.6c1 .2 1.9-.5 2.7-.8q1.6-.8 3.5-1.2a50 50 0 0 1 23.7-.5q4.2-2 8.7-3a33 33 0 0 0 8 1q2.6 0 5.2-.5 1.8-.5 3.5-.5c1.4.3 3 .9 4.4 1q4.8-.1 9.7.1a333 333 0 0 1 23.7 1l8.7-1.6c1.4-.1 3-.7 4.4-.5q6.4 1.3 12.3 3.8" class="b"/><path d="m7.8 69.9 4.4.6q1.4.1 2.6 0 5.6-2 11.4-2.5 7.5-.6 15 .1l7-1.4c3.6.5 7.1 2 10.5 3.4 1.5.6 2.9 1.8 4.4 2.3h2.6c1.2.2 2.5-.6 3.5-1q1.8-.7 3.5-1a50 50 0 0 1 22.9-.3q4.6-2.3 9.6-3.3a31 31 0 0 0 12.3.4c1.1-.1 2.4-.6 3.5-.3 2.6.9 5.3.2 8 .4 3.4 0 7 .5 10.4.5q5.8.7 11.5 1l5.2.7 3.5-.8 10.6-2q7.2 1.3 14 4" class="b"/><path d="m7.8 67.3 5.3.6q2.2-.9 4.4-1.5A55 55 0 0 1 28 65a91 91 0 0 1 13.2.3q1.7-.1 3.5-.5l2.6-.4q2.3.2 4.4.9A63 63 0 0 1 63 70.1h4.4c.9.1 1.8-.5 2.6-.7q2.2-.7 4.4-1.2c6-1.2 12.4-1.6 18.4-.4 1.9.7 3.6-.7 5.3-1.2 2.5-.8 5.3-2 8-2.1q6 1.2 12.2.1c1.4-.4 3 .4 4.4 0q6.6-.5 13.2.6 3.5.3 7 .8 4.4.3 8.8 1l3.5.3 10.5-2.2c1.4-.2 3-.7 4.4-.6q7.1 1.3 14 3.8" class="b"/><path d="M7.8 64.7q2.2.3 4.4.4a34 34 0 0 1 12.3-2.7q5.7-.4 11.4-.3c2.3 0 4.7.5 7 .2q1.8-.2 3.5-.2l4.4.8q6.5 1.3 12.3 4.2c1.6 1 3.5.6 5.3.7h3.5A54 54 0 0 1 90.3 66c.8.1 1.9.4 2.6-.1 4.3-1.5 8.7-3.4 13.2-3.8q4 .8 8 .5c2 0 4-.6 6-.4q3.1-.6 6.2-.4c5.6.2 11.2 1.2 16.7 2.1q5.2.6 10.5 1.4 2.6-.6 5.3-1.2 5.2-1.1 10.5-2 7.5 1.3 15 3.7" class="b"/><path d="M7.8 62.1q1.7.3 3.5.2l2.6-1q3.5-1 7-1.4 16-1.5 31.7 1.1c4.8.8 9.4 2.6 14 4.2 1.7.5 3.6.1 5.3.2h7.9L85 65q4.6-1 8.8-2.4c3.8-1 7.6-2.2 11.4-2.7 3 .1 5.9.5 8.8.3 3.8-.2 7.6-1.1 11.4-1 6 .3 11.8 1.7 17.6 2.8q4.8 1 9.6 1.4 2.6-.8 5.3-1.3 5.7-1.5 11.4-2.2 7.5 1.2 15 3.3" class="b"/><path d="M7.8 59.5h2.6l2.7-.9q2.5-.8 5.2-1.2c7-.8 14-.7 21.1-.6q7.6.1 15 2.2c4 .5 8.1 2 12.2 2.7q4 .6 8 .4 7.9 0 15.7-1.9c4.7-.9 9.3-2.2 14-2.7 2.5-.2 5.3.4 8 .2 3.5 0 7-1.1 10.5-1 6.9-.2 13.5 1.9 20.2 3.4l7.9 1.4 4.4-1.1q7-1.8 14-3 7.5 1 15 3" class="b"/><path d="M7.8 56.9c2 .2 3.5-.6 5.3-1.2q3-.8 6.1-1 7-.6 14-.5 7.5-.1 15 .6 5.8.8 11.4 2.7 4.3.8 8.8 1.1 8.3 0 16.6-.8 8.4-1.2 16.7-2.5c3.5-.6 7 .1 10.5 0 3.3-.2 6.4-1.3 9.7-1.2 7.6 0 14.7 2.8 22 4.6l5.2 1q2.6-.6 5.3-1.3c5.5-1.3 11-2.7 16.6-3.3q6.8 1 13.2 2.5" class="b"/><path d="M7.8 54.2c2.4 0 4.6-1.4 7-1.6q7-1 14-.8c7 .1 14.1-.4 21.1.5q7.2 1 14 3.1 4 .3 8 0Q82 55 92 53.8q5.8-.8 11.5-1.1c2.6-.1 5.2.2 7.9 0 2.3 0 4.6-.9 7-1a34 34 0 0 1 9.6.7c6 1.2 11.6 4 17.6 5.3 1.4.5 3 0 4.4-.3L156 56q7.5-1.7 15-3c1.6-.4 3.5 0 5.2.3l7.9 1.6" class="b"/><path d="M7.8 51.5c1.5 0 3-.7 4.4-1q3-.7 6.1-1c3.8-.3 7.7.2 11.5.2 6.7.2 13.4-.7 20.1-.1 6 .4 11.7 2 17.6 3q2.6.2 5.3-.1l8.7-.6q9.3-.7 18.5-1.5 5.2-.1 10.5-.1a42 42 0 0 1 29 4.3L143 56q2.2 0 4.4-.2 4.8-.8 9.6-2 8.7-2.1 17.6-3.6l9.6 1.8" class="b"/><path d="M7.8 48.7c3.2-.5 6.4-1.4 9.7-1.6 5.2 0 10.5.7 15.8.5 5.8 0 11.7-.8 17.5-.5 5.6.3 11.1 1.5 16.7 2.2l8.8.4 10.5-.8q11-1 22-1a38 38 0 0 1 22.8 1.8q3 1.4 6 2.9l1.9 1h1.7q6.7.5 13.2-1.2l14.9-3.2q4-.9 7.9-1.2l7 1.3" class="b"/><path d="M7.8 46q1.3-.3 2.6-.3 3.1-.7 6.2-1c4.6.1 9.3.8 14 .9 6.7.1 13.5-1 20.2-1 5.3 0 10.5 1.1 15.8 1.6 4.7.3 9.4.2 14 .6q8.8-.7 17.6-1l7.9-.2 5.3-.7a49 49 0 0 1 11.4.2 38 38 0 0 1 12.3 5q2.9 1 6.1 1.1c9.6 1 18.8-2.2 28-4 3.3-.5 6.5-1.4 9.7-1.5l5.3 1" class="b"/><path d="M7.8 43.3c1.1.4 2.4 0 3.5-.3q2.2-.4 4.4-.6c4.1.1 8.2.7 12.3 1 6.5.7 12.9-.6 19.3-1 5.9-.5 11.7.3 17.6.9 3.7.4 7.6.2 11.4.4l7.9.5 9.6-.6 9.7-.3 7-.7a45 45 0 0 1 14 1q3.7 1.1 7 3 5.2 1.3 10.6 1.9 5.7.6 11.4 0c5.3-.8 10.5-2.3 15.8-3.3l9.6-1.9q2.7.4 5.3 1" class="b"/><path d="M7.8 41.4c2-.3 4.1-1 6.1-1.2q2.3-.2 4.4.1 5.2.6 10.6 1.1 4.9.3 9.6-.3a121 121 0 0 1 15.8-1.2c5.3.2 10.5 1.1 15.8 1.1 5.9 0 11.7.6 17.6.6q4.8-.1 9.6-.4 5.7-.2 11.4-.8c5.9-.2 12.1-.4 17.6 2 1.8 1 4.1 1 6.1 1.5q5.7 1.2 11.4 1.7c3.2.3 6.5.7 9.7.4 5.3-.5 10.5-2 15.8-3l9.6-2q2.7.5 5.3 1.2" class="b"/><path d="M7.8 39.3q3.4-1.1 7-1.5 3.1.1 6.2.5c4.9.6 10 1.3 14.9.8 5.8-.6 11.7-1.5 17.5-1.5 4.4-.1 8.8.6 13.2.8l20.2.6q10.1 0 20.2-.7 5.6-.4 11.4.3c2.3.1 4.7 1 7 1.4q11.4 1.7 22.8 2.8c7 1 14.2-.8 21-2.3 3-.6 6-1.6 8.9-1.8q3 .6 6 1.6" class="b"/><path d="M7.8 37.3q3.4-1.3 7-1.7 3.5 0 7 .5c4.7.5 9.4 1 14 .6 6.5-.7 13-1.5 19.4-1.4q5.3.2 10.5.7 5.8.2 11.4.3 9.8.5 19.4.2c6.4-.2 12.8-.7 19.3-.1q10.5 1 21 1.9l9.7 1q4.7.6 9.6.4c6.6-.2 13-2.3 19.3-3.4l5.3 1.4h3.5" class="b"/><path d="M7.8 35.5a28 28 0 0 1 8-2c5.5 0 11 .8 16.6.7 7-.1 14-1.2 21-1 4.4-.2 8.8.3 13.2.6 8.8 0 17.6.5 26.3.5l8.8-.2q8.7-.2 17.6.1l19.3 1q8.2.8 16.6 1c5.4 0 10.6-1.1 15.8-2.2 1.5 0 3 .6 4.4.8q4.5-.3 8.8-.4" class="b"/><path d="m7.8 33.4.9.3A23 23 0 0 1 20 31.5c4.4 0 8.8.4 13.2.3 7.3-.3 14.6-1 21.9-.7q5.7.2 11.4.5 8.3.2 16.7.5 6 .2 12.3.2 6-.6 12.3-.6 11.8 0 23.6.3 6.6 0 13.2.3c6.7.3 13.5.8 20.2-.4q1.7-.3 3.5.2l5.3-.4c3.4-.3 7 .3 10.5.1" class="b"/><path d="M7.8 31.3c3 1.2 2.6.4 5.3-.5q3.4-1.3 7-1.4 7-.1 14-.2 8-.3 15.8-.4 8 0 15.8.6 8.9.1 17.6.7l9.6.2q5.2-.6 10.6-1 5.2-.1 10.5.1l15.8.1q6 0 12.3 0 3-.2 6.1-.2l8.8.1q2.6-.2 5.3-.2c7.3.4 14.6 1.4 22 1" class="b"/><path d="M7.8 29.1q2.3.7 4.4 1.5 5-2.7 10.5-3 5.7-.4 11.4-.5 15-.6 29.9.3 7.5.3 14.9.6l7.9.4c1.4 0 3 .3 4.4 0q7-1 14-1.5l7 .3q11.5.3 22.9.8l2.6.1q2.2-.7 4.4-1.3 3.5 1 7 1 9.3-.2 18.4.7c5.6.5 11.2.9 16.7.3" class="b"/><path d="M7.8 27c2.8.3 5.3 1.5 8 2.3 6-3.5 13.3-3.5 20-4 10.6-.6 21.2.1 31.7.6q9.7 0 19.3.9 4.4-.7 8.8-1.3c3.7-.4 7.6-1.2 11.4-.9q9.2.7 18.4 1.1l7 .5 2.7.3 2.6-1.1 2.6-1 2.6.7q3 1 6.2 1.4c4 .3 8.2.2 12.3.6 7.6.6 15.2 1 22.8 0" class="b"/><path d="M7.8 25q4.5 0 8.8 1.5c2 .6 4.1 2.2 6.1 1q5-2.2 10.6-2.8 10.5-1.2 21-.8c8.8.4 17.6.2 26.3 1l3.6.2 3.5-.6 7.9-1.3q4.3-.7 8.8-1c2.9 0 5.8.6 8.7.7 6.5.5 13 .8 19.3 1.8a4 4 0 0 0 1.8-.5l3.5-1.4q1.7-.9 3.5-.3 4.8 1.7 9.7 2.6 6.6.7 13.1 1 5.2.3 10.6 0 4.7-1.5 9.6-2.3" class="b"/><path d="M7.8 21q3.6.6 7 2 2.2.5 4.4.8l8 1.8h4.3l3.5-.1 3.5-1a73 73 0 0 1 9.7-1.2c7.9-.5 15.8-.1 23.7-.3q3.5 0 7 .4l7.9-1.1q8.3-1.4 16.7-2.4c2.6-.2 5.2.5 7.9.7q7.5.6 14.9 1.6l4.4.6 8.7-3 5.3 1.5c3.7 1.2 7.5 2.5 11.4 2.7q5.2.6 10.5.4a83 83 0 0 1 17.6-3.9" class="b"/><path d="M7.8 18c2-.1 4.2-.7 6.1-.4A78 78 0 0 1 26.3 21q4.8.3 9.7.3c9.4-.1 18.7-1 28-1 4.2 0 8.3.7 12.4.5 6.1-.1 12.3-1.2 18.4-2 3.8-.4 7.6-1.6 11.4-1 6.7 1 13.5 1.5 20.2 2.7 1.4.5 3-.4 4.4-.7l7.9-2c1.4-.3 3 .4 4.4.7 3.2.8 6.4 2 9.6 2.7q4.3 1 8.8.8 3.5-1.1 7-1.9 7.8-1.6 15.8-2.4" class="b"/><path d="M7.8 17.6c6.2 0 12.4-1.2 18.4-2.4q3.1.5 6.2 1.3 2.1.6 4.4.3 13.5-1 27.2 0c3.2 0 6.4.6 9.6.8q5.2.3 10.6-.2 6.1-.5 12.2-1.4c3.2-.4 6.5-1.3 9.7-.5q8.8 1.2 17.5 2.6l13.2-2.5c2.3-.7 4.7 0 7 .5 4.1.9 8.1 2.4 12.3 2.8q2.2.3 4.4-.4 3-.7 6.1-1.2 8.7-1.3 17.6-2.2" class="b"/><path d="M7.8 17.4q4.4.7 8.8.3a108 108 0 0 1 16.7-3.8c2-.2 4-1.4 6.1-.8l4.4-.3 6.1.1 7-.1q3.1.1 6.2.4c6.1.6 12.2 1.7 18.4 1.6 7 0 14-1.2 21-2 2.1 0 4.2.6 6.2.8l9.7 1.6 10.5-1.2 9.7-1.1c5.6.3 11 2.2 16.6 2.8q2.6.4 5.3-.2l5.3-.7q9.1-.7 18.4-1.8" class="b"/></svg>