<svg xmlns="http://www.w3.org/2000/svg" id="a" width="1920" height="2400" viewBox="0 0 192 240"><defs><style>.b{fill:none;stroke:#fff;stroke-miterlimit:10;stroke-width:.3px}</style></defs><path d="M0 0h192v240H0z" style="stroke-width:0"/><path d="M8.6 220.7q4.9 1 9.6 2.6c1.7.5 3.5 1.4 5.2 1.8q7.6-2.5 15.7-3.4a128 128 0 0 1 17.4-1.3 63 63 0 0 1 22.6 4c1 .3 2.3 0 3.4 0q1.9.1 3.5 1a5 5 0 0 0 1.8 1h8.7L99 225q2.6-.8 5.2-1.8 3.3-1.3 7-2c1.3-.2 2.9-.7 4.3-.5l7.8 1.2c5.5 1 11.2 1.5 16.5 3.4a4 4 0 0 0 1.8-.8 38 38 0 0 1 7-3.5 3 3 0 0 1 1.7-.2 20 20 0 0 1 5.2 2.6c1.2.8 2.2 2.2 3.5 2.9h7c1.6-.6 3.3-1.6 5.1-1.7q2.2-.3 4.4 0c1 .1 1.8-.7 2.6-1q2.5-1.3 5.2-2.2" class="b"/><path d="M8.6 218q7.2 1.5 14 4.5 13.6-3.5 27.8-4.2c6.6-.3 13.4-.2 20 1.4 3.3.8 6.3 2.3 9.5 3.4 3.1-1 6.9-1.2 9.6.9 12.9.2 5.6.3 16.5-3.4q4.7-1.5 9.6-2.2 3.4.5 7 1.3c5.4 1.1 11 1.9 16.4 3.6 1.3-.4 2.4-1.4 3.5-2a36 36 0 0 1 6.1-2.9c3.3 1 6.5 2.8 8.7 5.4 2.2.5 4.7.1 7 .2.4 0 1.3-.5 1.7-.8q1.6-.9 3.5-1.1 3-.5 6 0c1 0 1.9-.7 2.7-1q2.5-1.2 5.2-2" class="b"/><path d="M8.6 215.4a71 71 0 0 1 12.2 4 3 3 0 0 0 2.6.3q8.6-2 17.4-2.7 8.7-1 17.4-.9c7.8.2 15 1.7 21.7 5.6 1.2 0 2.4-.7 3.5-1q3-.7 6 0c1.2.2 2.4 1.2 3.6 1 1.4 0 3 .2 4.3-.2q4.4-1.8 8.7-3.1 5.2-1.7 10.4-2.3 11.1 1.8 21.8 5c3-1.8 6.1-3.9 9.5-5 3.3 1.2 6.5 2.9 8.7 5.5q3.5 0 7 .1c3.4-2.7 8-2.9 12.1-1.9q3.7-2 7.9-3.2" class="b"/><path d="M8.6 213a54 54 0 0 1 11.3 4q1.3.9 2.6.5c7.2-1.6 14.5-2.3 21.8-2.9q2.2 0 4.3-.3 1.3-.4 2.6-.5c2 .6 4.1.2 6.1.3 6.9.2 14 1.1 20 4.6 1.2 1 3 .6 4.4.7 2.6.2 5.1-1 7.8-1q1.7 0 3.5.4c2 0 4-.7 6-1 5.3-1.3 10.4-2.9 15.7-3.8 1.4-.4 3 0 4.4.3l5.2 1c4 .7 8.3 1.5 12.1 3 3.8-.9 7-3.3 10.5-4.6a32 32 0 0 1 5.2 2.6c1.2.7 2.3 2 3.5 2.7q2.2-.3 4.3 0c.8 0 1.8.5 2.6.2 4-3.2 8.4-2.6 13-1.8q3.8-2.2 7.9-3.2" class="b"/><path d="M8.6 210.6q4.1 1 7.9 2.8c1.4.6 2.8 1.7 4.3 2.1q10.4-2 20.9-2.5c3.2-.1 6.3-2.2 9.5-1.2 2.3.7 4.7.5 7 .5q4.8.1 9.5 1 3.7.8 7 2.3l2.6 1.5h10.4q2.5-1.4 5.2-2c6.1-.9 12.3-1.4 18.3-2.9q2.6-.5 5.2-.7l7 1.3c3.1.5 6.4.5 9.5 1.4 4.6 1.3 9-1.1 13-2.8q2.8 1 5.3 2.5c1.2.7 2.2 2 3.5 2.5a14 14 0 0 1 7 .2c4.2-2.7 8.2-3 13-1.5 1.1-.3 2.3-1.2 3.4-1.6a33 33 0 0 1 5.3-1.8" class="b"/><path d="M8.6 208.4q3.6 1 7 2.6c1.5.7 2.9 1.8 4.3 2.5a137 137 0 0 1 15.7-1.8c1.1 0 2.4-.6 3.5-.9q3.4-1 7-1.6c1-.2 2.3.3 3.4.4l5.2 1.2c5.5 0 11.2.2 16.5 2q2.3.7 4.4 1.9H86c.9-.1 1.8-.9 2.6-1.3 3.7-2 8-2.5 12.2-2.7l11.3-1.1 3.5-.6q3.8.8 7.8 1.5c1 .3 2.4 0 3.5 0q2.6 0 5.2.2c1.7.1 3.5.5 5.2.4a32 32 0 0 0 7-1.8c1.1-.4 2.4.5 3.4.9q1.9.8 3.5 2c.8.4 1.7 1.4 2.6 1.7q4-1.1 7.9 0c4.2-2.8 8.3-2.4 13-1q4-2.7 8.7-3.6" class="b"/><path d="M8.6 206.1q5.9 1.7 10.5 5.6 5.2-.8 10.4-1.1c1.5-.2 2.9-1.2 4.3-1.6q4.3-1.4 8.7-2.2c1.8 0 3.6.6 5.3.9q4.3.8 8.6 1.8c5 .3 10.1.3 14.8 2.1q1.6 1 3.5.8h10.4q1.4-.6 2.7-1.4 4.5-2.5 9.5-3.3 3.5-.4 7-.6c3.1 0 6.4-.6 9.5-.3 2 .3 4.2.2 6.1.8l5.2 1a22 22 0 0 1 5.3-.7c2.5-.2 5.2.1 7.8 0l5.2-1.1q5.3 1.5 9.6 4.8a13 13 0 0 1 8.6-.4q6-3.2 12.2-.7c1.2 0 2.3-1.2 3.5-1.6q3-1.4 6-2" class="b"/><path d="M8.6 204c3.6 1.2 7.1 3.2 9.6 6l4.3-.3c1.1-.2 2.5 0 3.5-.6q2.4-1.6 5.2-2.8 3.8-1.4 7.9-1.9l6 1.3q8.2 1.8 16.6 3.4 3.5.1 7 1h15.6c4.9-2.6 10-5 15.6-5.7 2-.2 4.1.1 6.1.1q5.7 0 11.3.7c1.7.3 3.6.2 5.2.7 1.7.2 3.6 1.2 5.3.3 4.1-1.4 8.7-.6 13-1.6 1.1-.5 2.4.3 3.5.6q4.3 1.4 7.8 4.3c3-1.2 6.4-2.1 9.6-1 1.1-.1 2.3-.9 3.4-1 3-.8 6-.2 8.7 1q4.4-3 9.6-4" class="b"/><path d="M8.6 202q2.8 1 5.3 2.7c1.2.8 2.2 2.3 3.4 3h5.3c1-.7 2.2-1.9 3.4-2.6a24 24 0 0 1 8.7-3.1l2.6.6a253 253 0 0 0 20.9 4.9c2.8.5 5.8.1 8.7.2h14.8q1.4 0 2.6-.6a89 89 0 0 1 10.4-4c1.4-.3 3-1 4.4-1 5.7 1.2 11.6.6 17.4 1.1l6.9.6q2.2.3 4.4 1c1.4-.4 2.8-1.3 4.3-1.6q3.9-.7 7.8-1 2.8.2 5.2 1.4 3.4 1.3 6.1 3.5c1.2.2 2.4-.8 3.5-1q2.6-.8 5.2-.7 1.4.2 2.6.5c4-1.8 7.4-1 11.3.4a21 21 0 0 1 9.6-4.3" class="b"/><path d="M8.6 199.9q4.3 1.8 7 5.3c1.6.5 3.5.1 5.2.2a21 21 0 0 1 10.4-5.8l1.8.6 11.3 3.6c2.3.6 4.5 1.8 7 1.6h26.9q1.8 0 3.5-.6l6-1.8 7-2.1q2.2-.8 4.4-1c7.3 2.2 15 1.2 22.6 1.9l4.3.2 3.5 1c1.1-.5 2.3-1.4 3.5-1.9q2.5-.9 5.2-1.2 2.2 0 4.3.6 2.7 1 5.3 2.4c1.1.5 2.2 1.7 3.4 2q4.2-2 8.7-2c1.2-.1 2.4.5 3.5.3q3.4-1 7 0c1 .2 2.3 1 3.4 1q4.2-3.6 9.6-4.5" class="b"/><path d="M8.6 198c2.4 1 4.6 3 6.1 5.1 6.2 0 3.5.7 7.8-3a15 15 0 0 1 6.1-2.7 138 138 0 0 1 14 5.7h1.7c9.5-.6 19.2.7 28.7-.8q8.3-.7 16.5-2.5l7-1.7c1.3-.3 2.9-.9 4.3-.2q4.6 1.5 9.5 1.8c3.2.3 6.4.1 9.6.2 3.8.2 7.8-.3 11.3 1.3a14 14 0 0 1 7.8-3.7q2.2.4 4.4 1.1 3.6 1.6 7 3.9c3.9-1.9 8.7-3 13-1.6q5-1.2 9.5 1.3l1-.2c2.4-2.5 6-4 9.5-4.6" class="b"/><path d="M8.6 196q3.2 1.8 5.3 4.8h4.3q3-4.1 7.8-5.8 4.5 1.7 8.7 3.9c1.6.3 3.5-.4 5.2-.4q4.4-.4 8.7-.5l17.4.3 17.4-.6q5.3 0 10.4-1c2.3-.5 4.7-1.3 7-1.6 2.9.7 5.7 1.9 8.7 2.4q3.8.8 7.8.7c1-.2 2.3-.7 3.5-.7 1.4-.1 2.9.7 4.3.6l4.4.1c1 .2 2.3.8 3.5 1 1.7-2 4.2-3.7 7-4q5.1 1.3 9.5 4.6c1.4-.2 2.9-1 4.3-1.4 3-.8 6.5-1.2 9.6-.2 1 .5 2.3 0 3.5.2q3.1.3 6 2c1.4-.5 2.3-2 3.5-2.7q3.2-2 7-2.7" class="b"/><path d="M8.6 194.1q2.6 1.7 4.4 4.4h4.3q2.6-4 7-5.8c2.1.7 4.1 2 6 3 10.7-2 21.5-1.9 32.3-1.5 6.9.3 13.9 0 20.8.4q9.8.7 19.1-1.9c5.2 1.3 10.3 3.6 15.7 3.7 2.5-1.8 6-2.3 8.7-.5q1.7.1 3.5.2 1.8.3 3.4 1.1l1-.2q2.3-3 6-4.3 4.7 1.6 8.7 4.6c4-1.7 8.6-3 13-2q1.4.3 2.6.8 1.4.4 2.6.4c1.9.3 3.6 1.4 5.3 2l.8-.3c2.3-3 6-4.8 9.6-5.5" class="b"/><path d="M8.6 192.3q2.1 1.5 3.5 3.6c1.8 0 3.5-.7 5.2-1q1.6-2 3.5-3.3c.7-.4 1.7-1.1 2.6-1l3.5 1.8c5.8-.9 11.6-1.9 17.4-2q16.5.2 33 .6 4.8.3 9.6.8c2.3.2 4.7.6 7-.2a30 30 0 0 1 8.6-.6l2.7-.6q4.4 1.3 8.6 2.8l3.5.8q1.4.4 2.6 0a7.4 7.4 0 0 1 9.6-.1q3.3-.3 6 1.5c1-.7 1.9-2 2.7-2.7q1.6-1.3 3.5-2.1c2.9.4 5.5 2.3 7.8 4 5.2-2 11.3-3.5 16.5-.7q1.7 1 3.5 1.3l1.7.9h2.6q3.8-4.5 9.6-5.6" class="b"/><path d="M8.6 190.4c.8.6 1.7 1.8 2.6 2.2 2.3-.6 4.8-1 7-2q1.6-1.3 3.5-2.3 1.4.2 2.6 1c2.6-.1 5.2-1.2 7.8-1q8.7 1.2 17.4 1.1c7.8-.2 15.6-1 23.5-1l7-.3 6 .7 5.2.8q2.6-.8 5.3-1.4 2.2.1 4.3.4 3 .2 6.1-.4c1.8-.3 3.5.7 5.2 1.2 2.8 1 5.7 2.2 8.7 2.5 3.4-2.6 6.9-3.5 10.4-.4q1.9 0 3.5.7c.8.3 1.8 1 2.6 1 1.4-2.1 3.6-4.3 6.1-5q2.3.9 4.4 2.2c.7.5 1.6 1.4 2.6 1.5 5.2-2 11.4-3.3 16.5-.3 1.1.6 2.1 2 3.5 2.2 1.4 0 3 .3 4.3-.3a14 14 0 0 1 8.7-5.2" class="b"/><path d="m8.6 188.5.9.9 6-1.5 3.6-.8 1.7-1.1q1 0 1.7.4l2.7-.5q3 .4 6 1c5 .8 9.9 1.7 14.8 1.7a97 97 0 0 0 15.7-1.3c7.5-.5 15-.4 22.6-1.3 2.3-.4 4.7.6 7 1 1-.2 2.3-.9 3.4-1.1 1.1 0 2.4.5 3.5.7q3 .7 6 .6c2.1 0 4.2-1 6.2-1.4 4.1.7 8 3 12.1 3.6 3-2.4 6.3-3.3 9.6-.8.7.6 1.8.6 2.6.8q1.9.6 3.5 1.7c1-.7 1.8-2 2.6-2.8q1.6-1.5 3.5-2.4a16 16 0 0 1 6 3.4c1.2.1 2.4-.7 3.5-1l4.4-1q4.5-.4 8.7 1.5c1.2.7 2.3 2 3.5 2.7h4.3c2.4-2.8 5-4.7 8.7-5.5" class="b"/><path d="M8.6 186.2c4-.8 8.1-2 12.2-2.7l14.8 3.4c4.2 1 8.7 2 13 1.1a53 53 0 0 1 17.4-3.5c3.2.2 6.4.9 9.6.5a72 72 0 0 0 8.7-.7c1.4-.2 2.9-.7 4.3-.7l3.5.8c1.9-1 2.4-1 4.3-.2 2.5.8 5.2 1.9 7.9 1.2q3.9-.9 7.8-1.9c1.4-.1 3 .7 4.3 1q3.9 1.4 7.8 2.2c3.4-2.3 6.3-2.8 9.6-.1q1.8 0 3.5.9c.8.4 1.7 1.2 2.6 1.2 1.4-2.2 3.5-4.6 6-5q3 1 5.3 3c.8.2 1.8-.3 2.6-.5q2.2-.8 4.4-1.2c4.2-.5 9.3.4 12.1 4q1.4.3 2.6.2c.8 0 2 0 2.7-.3 1.8-2.7 4.7-4.4 7.8-5.1" class="b"/><path d="m8.6 183 6.1-1.4 1.8-.4q1.3.1 2.6.5l.8-.4c1.3.1 2.3 1.3 3.5 1.5q6.2 1.6 12.2 3.8c1.3.5 3 .2 4.3.2h7c1.9.3 3.5-.9 5.2-1.4q3.8-1.5 7.8-2.4a36 36 0 0 1 15.7.1H79q3.5-.2 7-1c1.3-.2 2.8-.8 4.3-.8l1.7.5q.9 0 1.8-.5c1.1-.1 2.3.8 3.4 1.1q1.3.6 2.6 1 1.4 0 2.6-.2 3.6-.2 7-1.1l4.4-1q1.7.3 3.4 1 4.4 1 8.7 1.7c1.2-.2 2.3-1 3.5-1.2 1.8-.3 3.6.5 5.2 1.3q3.6.4 6.1 2.8 2.3-3.6 6.1-5.4a13 13 0 0 1 5.2 3c.9.3 1.8-.2 2.6-.5l4.4-1.2c4.4-.3 9.2.6 12.2 4.3h4.3l2.6-2.7a15 15 0 0 1 5.2-2.6" class="b"/><path d="m8.6 179.8 4.4-1 5.2 1.2 1.7-1c2.2.9 4 2.5 6.1 3.6q2.2.7 4.4 1.7c1 .4 2.4.2 3.5.2h6q6.1.2 12.2-.1a51 51 0 0 1 7.8-3c4-1 8.1-1.8 12.2-1.4q2.7.1 5.2 1a38 38 0 0 0 14-2.1q.8.1 1.7.5l1.7-.5q1.7.9 3.5 1.6 3 .3 6 0 4.6-.6 8.8-1.4c1-.3 2.4 0 3.5-.2 2 1.1 4.6 1.3 7 1.5q2.5.3 5.1.7a7 7 0 0 1 6.1.1q4 .2 7 2.9c1-.6 1.7-2 2.6-2.7 1.2-1 2.7-2.3 4.3-2.3q1.9.7 3.5 2 .7 1 1.7 1.1 3-1.2 6.1-1.8 4.7-.4 8.7 1.5 1.6 1 2.6 2.3 1.3.5 2.7.3 2-1.4 4.3-2.2 2.4-2 5.2-3" class="b"/><path d="M8.6 176.8c1.1-.4 2.4 0 3.5.2l5.2 1.4q1.3-1.1 2.6-1.8 4.4 2.8 8.7 5.5c4 .3 8.2 0 12.2.1h14.8q3.4-1.8 7-3c4.1-1.2 8.6-1.9 13-1.2 1 .1 2.4.6 3.5.7q3.5.1 7-.4l4.3-1.1q1.2-.6 2.6-.6c1 .4 2.5-.2 3.5.6 1.8.7 4 .6 6 .6 3.8 0 7.6-.7 11.3-1.2 1.1-.1 2.5.4 3.5 0 1.7 1.1 4.1 1 6.1 1.1q3.5 0 7 .6c5 .4 8-.8 12.1 3l.9-.1a14 14 0 0 1 6-4.6c1.4.4 2.6 1.4 3.6 2.2.3.5 1.1 1.2 1.7 1.3 2.2-.9 4.6-1.9 7-2 4 0 7.8.9 10.4 4 2-1.6 4.3-3 7-3.3 1.5 0 2.9-1.1 4.3-1.6" class="b"/><path d="M8.6 174.7a64 64 0 0 1 7 2c1.3-.2 2.3-1.6 3.5-2.2q1 0 1.7.5l6 3.9q1.3.8 2.7 1h30.4a27 27 0 0 1 15.7-4.2q1.7 0 3.5.5c3.1 0 6.4.3 9.5-.5q3-.9 6.1-1.5c.8.2 1.9 0 2.6.4q2.6.3 5.2.3 5.2 0 10.5-.7 2.6.3 5.2.3 1.6.7 3.5.7 3.4 0 7-.2 2 .2 4.3.4 2.6 0 5.2.4c2.3.3 4.2 2 6 3.2a13 13 0 0 1 7-4.6c1.7.9 3.1 2.5 4.4 3.8 2.7-1.2 5.6-2.4 8.7-2q2.7 0 5.2 1.1c.8.4 1.8 1.3 2.6 1.7 2-2.1 4.9-3.5 7.8-3.6q1.8.2 3.5-.1" class="b"/><path d="M8.6 173.3c2 .5 4 1.5 6.1 2a13 13 0 0 1 4.4-3.3c3.4 1.8 6.6 4.6 10.4 5.5h6q4-.9 8-1.5a16 16 0 0 1 9.5 1.4q1.2.3 2.6.2h6c1.3 0 2.4-1 3.6-1.4q3-1.5 6-2c6-1.6 12.3.1 18.3-.9q3.9-1 7.8-1.4 3.5.2 7 .2l7-.2c2.2 0 4.6.6 6.9.1 2.6 1.6 7.4.3 10.4.3 2.3-.2 4.7.2 7 .3q5.5 0 9.5 3.6c1 0 1.8-1.2 2.6-1.7q2.1-1.3 4.4-2.5c1.9.6 3.2 2.5 4.3 4l1 .3c5.3-2.8 9.3-2.8 14.7-.2q4.5-4.8 11.3-3.9" class="b"/><path d="M8.6 172q2.3.8 4.4 2a22 22 0 0 1 5.2-4.4c3 1.4 5.6 3.6 8.7 4.6 3.5 1.1 7 0 10.4-1.1s7-2 10.5-1.7q4 .3 7.8 2c1.1.4 2.3 1.3 3.4 1.8h3.5q1.5-.7 2.6-1.3a29 29 0 0 1 14.8-3.4c3.5.1 7 .7 10.4.3q4.8-.8 9.6-1.2 6 0 12.2.2l4.3.2 1.8-.3q1.2.8 2.6.6c3.5.2 7-.8 10.4-.9q5.3 0 10.4 1.2 3 1 5.3 3c1.4-.8 2.8-2 4.3-2.6.8-.4 1.7-1.2 2.6-1.3q2.7 2 4.4 5c1.2-.1 2.3-1 3.4-1.4 3.8-1.6 6.8-.8 10.5.3 1.6-1.8 3.7-3.5 6-4.2 1.8 0 3.5.7 5.3.7" class="b"/><path d="m8.6 171 2.6 1.5c1.9-1.8 3.8-3.9 6.1-5.1 1.9.4 3.5 1.9 5.2 2.6 5.2 2.8 9 1.3 14-.6 4.3-1.8 9.2-2.4 13.9-1.7 4.3.6 8.7 2 12.1 4.7h1c5.2-3 11.2-5 17.3-4.8 3.2 0 6.4.6 9.6.6 4.9-.3 9.8-1 14.7-.7l7 .2 3.5.1 1.7-.5 1.8.7h2.6c2.9-.1 5.8-.8 8.7-1.1 2.5.3 5.2.9 7.8.6 3.7-.7 7.4 1.3 10.4 3.4q3.2-1.6 6.1-3.6c2.4 1 3.5 3.9 5.2 5.6 1.3.2 2.4-.5 3.5-1q2.5-1.1 5.2-1l3.5.6q2.2-2.7 5.2-4.3c2 .5 4 1.5 6.1 1.8" class="b"/><path d="M8.6 170.6q.9 0 1.8-.3 2.5-3.2 6-5.2 1 0 1.8.5l3.5 1.8c5.9 3 10.2-.2 15.6-2.2 1.4-.6 3 .1 4.4.3q3.4.7 7 .4 3-.2 6-.9 1.8.1 3.5.7 3.6 1.3 7 3.3c3.8-1.8 7.9-3.5 12.1-4q4.8.7 9.6 0 4.8.4 9.5.3c3.2-.2 6.5.1 9.6-.3 2 .5 4 .4 6 .5 1.5 0 3-.5 4.4-.4 1.1.2 2.4.7 3.5.6 3 0 5.8-.6 8.7-1 2.9.2 5.8 1 8.7 1.2q3 0 6-1 3.8 1 7 3c1.3.1 2.5-.9 3.5-1.5.8-.4 1.7-1.3 2.6-1.3 1.8 1.4 3.2 3.6 4.4 5.5h5.2q3-1.2 6.1-.5c1.3-2 3.1-4 5.2-5.2 2 1 4 2.3 6.1 3" class="b"/><path d="M8.6 168.3c1-.4 1.9-1.6 2.6-2.3 1.6-1.3 3.2-3 5.3-3.3 8 4.5 10.2 3.6 18.2 0 2.4.3 4.6 1.5 7 2 6.1 1.7 12.4-.3 18.2-2.1a26 26 0 0 1 7 3c13-4.9 5.2-2.4 16.5-1.7 4.4-.2 8.7-1.3 13-1.3l11.3.5q2.2-.3 4.4-.4 2.6.2 5.2.6 4.8 0 9.6-.9c3.8.1 7.5 1.5 11.3 1.7q2.6.2 5.2-.6c1-.2 2.3-1 3.5-.8 2.1.5 4 1.8 6 2.5 1.6-.6 3-1.8 4.4-2.6 1.8 1.3 3.3 3.4 4.4 5.4 1.6.6 3.5.1 5.2.3q3 0 6-.2 1.7-3 4.4-5.1l.9-.1 5.2 3.7" class="b"/><path d="M8.6 165.3c2.1-2 4.4-4 7-5 5.5 2.8 9 4 14.8.9.7-.4 1.7-1 2.6-.8l4.3 2c10.8 5.6 15.9 1.4 26.1-2.2 1.8.3 3.6 1.4 5.2 2.2 8-2.7 4.3-2.7 12.2-.3q3.4.9 7 .2 5.1-1 10.4-1.6c2.3-.2 4.7-.6 7-.3a124 124 0 0 0 18.2 0q1.7-.2 3.5-.1c4.4.3 8.6 2 13 2.2 3.3 0 6.5-1.2 9.6-2.3 1.8.2 3.5 1.4 5.2 2.1q1.8-.9 3.5-2c1.3.7 2.5 2.2 3.4 3.5 1.3 2.6 2.8 2.1 5.3 2.1h7c1.6-1.7 2.6-4.8 5.1-5.4q2.3 1.8 4.4 4" class="b"/><path d="M8.6 162q3-2.2 6.1-4c1.2 0 2.4.9 3.5 1.2 4.7 2 8 1 12.2-1.3 1.5.4 3 1.5 4.3 2.2l6.1 3.5H54c2.6-1 5.2-2.6 7.8-3.7 1.6-.6 3.4-1.8 5.2-1.9q1.6.7 3.5 1.3l4.3-1.4c3.2 1 6.2 2.9 9.6 3.6q1.3-.2 2.6-.5 1.7-.2 3.5 0 6.8-1.8 13.9-2.6c3.4-.7 7-.1 10.4 0q3 0 6.1-.2c1.4 0 3-.4 4.4-.2q4.4.4 8.6 1.6c3.7 1 7.6 1.9 11.3.8q4-1 7.9-2.4l3.4 1.2c.9-.1 2-.8 2.6-1.2 1.4.6 2.4 2 3.5 2.8q1.8.5 3.5 1.2l3.5 1.6h6c1.3-1.9 2.6-4.1 4.4-5.5 1.4.6 2.5 2 3.5 3" class="b"/><path d="M8.6 159c2-1.2 4-2.6 6.1-3.4 5.5 2.3 8.4 3.1 14 0 1.2 0 2.3 1.2 3.4 1.7q2.7 1.6 5.2 3.5 1.7.7 3.5.5h15.7c1.2.2 2.4-.6 3.4-1.3a63 63 0 0 1 8.7-4.3q1.5.2 2.6.8c1.2-.1 2.4-.8 3.5-.8 3.4 1 6.3 3.2 9.6 4.6 1.2 0 2.3-1 3.5-1.2q1.6-.3 3.4-.1c.8 0 1.8.5 2.7.4a73 73 0 0 1 20-3.7c5.2 0 10.5-.2 15.6.9q4.4.9 8.7 2.1c6.3 1.9 12.4-1.1 18.3-3l1.7.4 1.7-.4 1.8 1 5.2 1c3.5 1 6.9 2.6 10.4 3.2 1.6-1.6 2.7-3.8 4.4-5.3.5.3 1.4 1 1.7 1.5" class="b"/><path d="M8.6 156.3c2-1 4-2.6 6.1-3 5.4 2.1 7.8 2.6 13 0 11.8 6.4 4.5 5.7 19.2 5.7h11.3l2.6-1c3-1 5.7-3 8.7-4.2q.8-.5 1.7-.4.8.5 1.8.3 1.3-.6 2.6 0a29 29 0 0 1 7 4.2c.6.5 1.6 1.3 2.5 1 3.2-1.7 6.1-2.6 9.6-1.2 1.1.8 2.4 0 3.5-.4a53 53 0 0 1 20-3.7q6.1 0 12.2 1.2c3.2.6 6.3 1.8 9.5 2.5q1.7.5 3.5.5l6-1.9c3.5-1 7.1-1.5 10.5-2.7.8.4 1.8 0 2.6.2q3.5.4 7 1c3.7.8 7.5 2 11.3 2.3l2.6-3" class="b"/><path d="m8.6 153.6 3.5-1.8c.8-.3 1.8-.9 2.6-.7 5.1 1.9 7.2 2.1 12.2-.2q3.7 2 7 4.5c1.6 1.4 4 1.3 6 1.2h18.3L66 154q3-1.6 6.1-3l.9.4c2-1 6.1 2.2 7.8 3.5 2.3 2.1 2.2 1.9 5.2 1.8 1.8.2 3.4-1.2 5.2-1.2q1.9-.1 3.5.3c1.1.3 2.3 1 3.5 1 1.5 0 3-1.3 4.4-1.7q3-1.2 6-2 8.2-1.8 16.6-1c4.7.5 9.3 2 13.9 3.3 1 .5 2.4 0 3.5-.3l6-1.5c3.7-1 7.7-1.5 11.3-2.6l2.7 1.2q4.3-.6 8.6-1c4 .5 8.1 1.6 12.2 1.9" class="b"/><path d="m8.6 151 5.3-2.3c5.5 1.3 6.4 2.4 12.1 0 2.2.6 4.2 2.1 6.1 3.3 1.1.7 2.2 2 3.5 2.3h22.6l9.5-3.5c2-.6 4-2.1 6.1-2.1q4 1.4 7 4.3a5 5 0 0 0 1.7 1.3h7q1.7-.5 3.5-.5c1 0 2.3.5 3.5.5h6c1.5-.3 3-1.4 4.4-1.8a42 42 0 0 1 27.8-.3c1 .2 2.3.9 3.5.7 4-.5 8.1-1.7 12.2-2.5 3-.7 6.4-1 9.5-1.8q2.4.7 4.4 2.3l10.4-1.4q2.6-.6 5.2-.8l3.5.5" class="b"/><path d="m8.6 148.5 5.3-2c1.4 0 2.9.7 4.3 1 2.7.6 5.3-.4 7.8-1.1 13.1 6 3.4 5.7 19.2 5.6h12.1c2-.5 4.1-1.5 6.1-2.2l9.6-3.4c3.4.7 6 3.4 8.7 5.6H105c1.3.2 2.5-.6 3.5-1q2.2-1 4.4-1.5a41 41 0 0 1 21.7.9q4.4-.4 8.7-1.2 8.3-2 16.5-2.8 2.3.4 4.4 1.7 1.2 1 2.6 2c3.4-1 7-1.3 10.4-1.9 2-.3 4-1 6-1" class="b"/><path d="m8.6 146 3.5-1.2c.8-.3 1.8-.8 2.6-.6 5 1.6 6.5 1.1 11.3 0q5.2 1.8 9.6 5.2c1.6.6 3.5.1 5.2.3h8.7c2.5-.2 5.4.2 7.8-.2q4.7-2 9.6-3.7c2-.6 4-1.8 6-1.7q4.8 1.8 8.8 5.3 1.2.4 2.6.3 1.7.1 3.4-.2a9 9 0 0 1 4.4-.9c1.8 0 3.5.9 5.2 1h12.2c1.4-.2 2.9-1 4.3-1.4q3.8-1 7.9-1.1a52 52 0 0 1 9.5.8q5.3-.2 10.4-1.1c4.7-.6 9.3-1.9 14-2.4 4.8-1 10.2.8 13 5l.9.3q2.7-.7 5.2-1.7c2.2-2.2 5.7-3 8.7-1.8" class="b"/><path d="M8.6 143.7c2-.5 4-1.5 6.1-2a16 16 0 0 0 11.3 0q4.1 1.4 7.8 3.5c1.7.7 3.3 2.4 5.3 2.2h15.6c2.7-.8 5.2-2.2 7.8-3 7.7-2.8 8.2-4 15.7.3 1.4.7 2.8 2 4.3 2.7h2.6c3.2-2.5 7.6-2.3 11.3-1.3q1.4.3 2.6.9a3 3 0 0 0 1.8.4h7.8c1.7 0 3.6.1 5.2-.5 6.3-1.5 12.8-1.2 19.2-1.7q10-1 20-2.9l4.3-.6c3.3 0 6.8.8 9.6 2.7l1.7 1.5.9 1.1a3 3 0 0 0 1.7.4q1.8.1 3.5-.3a10 10 0 0 1 8.7-4.3" class="b"/><path d="m8.6 141.4 5.3-1.6c1.3-.7 2.9.1 4.3.4q2.2.4 4.4 0c1.7 0 3.5-1.2 5.2-.4 4.1 1.2 8.1 3.2 12.1 4.8q1.3.6 2.7.4h4.3c2.3-.1 4.9.5 7-.6l12.1-4.6c.4-.2 1.3-.4 1.8-.2l.8.1.9-.2c.4 0 1.3.1 1.7.3 4 1.2 7.7 3.4 11.3 5.2.5-.1 1.4-.7 1.8-1q1.2-.8 2.6-1.1c4.6-1.2 9.5-.3 13.9 1.4l1.7.7h7q2.2 0 4.3-.5 3-.6 6.1-.9c6.1-.5 12.3-.6 18.3-1.5q9.1-1.2 18.3-2.7 5.4 0 10.4 2.3l2.6 1.9c.3.5 1.3 1.2 1.7 1.4h4.4c.9-.6 1.8-1.8 2.6-2.4q2.4-1.8 5.2-2.4" class="b"/><path d="M8.6 139.1q3.6-.8 7-2 2.1.5 4.3.8 3.6.2 7-.8c6.2 1 12 4 18.2 4.5q3.5.4 7-.4l9.6-3.4c1-.5 2.3-.9 3.4-.2l1.8-.5q2.2.3 4.3 1.1 5 1.6 9.6 3.7c1.2-.3 2.3-1.3 3.5-1.6a28 28 0 0 1 13.9.3q3 .7 6 2.1h3.5q2.3 0 4.4-.4l6-.9c5.9-.6 11.7-.7 17.5-1.4a434 434 0 0 0 20.8-3c5.3.4 10.9 1.3 14.8 5 2 0 4.1.8 6.1.7q2.4-3 6.1-4.4" class="b"/><path d="M8.6 136.9q2.7-.5 5.3-1.3c1-.3 2.3-.8 3.4-.7q2.6.7 5.3.6c2 0 4-.5 6-.7l11.3 2.3c4 .6 8.2.9 12.2 0l7-2.2c.8-.2 1.7.4 2.6.3q1.2-.4 2.6-.4l4.3 1.1 10.5 3c3.4-2 7.5-2.1 11.3-2q5.3.2 10.4 1.8c1.7.4 3.5 1.3 5.2 1.7 8.6-1.6 17.4-1.7 26.1-2.4l15.6-2.1 6.1-.9q2.2-.4 4.4 0 3 .2 6 .8 3.3.9 6.2 2.5 4.7-.3 9.5.8c1.2-.6 2.3-1.7 3.5-2.2" class="b"/><path d="M8.6 134.6c3.3-.1 6.4-1.4 9.6-2.1q3.4.6 7 .4c1.6 0 3.5-.5 5.2-.4 6.3.8 12.7 2 19 1.3q2.7-.6 5.3-1.4c2 1 4-.4 6.1.1l14.8 3q1.3.3 2.6-.2l3.5-.8a48 48 0 0 1 11.3.3q5.7.8 11.3 2.6c7.8-.8 15.6-1 23.4-1.5 9.7-.5 19.1-2.7 28.7-3.5 4.4.6 9 .9 13 2.8q4.5-.5 8.8-.1c1.7 0 3.5.6 5.2.7" class="b"/><path d="M8.6 132.4c3 .2 5.9-.8 8.7-1.6 1.4-.3 3-.9 4.4-.6 4.3.6 8.7-.4 13 0q3.9.4 7.8.5 2.7.2 5.3-.3 1.2-.4 2.6 0l3.4-.4c3.5-.1 7 1 10.5 1.3q5.2.6 10.4 1.3c1.7.3 3.5-.4 5.2-.5a62 62 0 0 1 15.7 1.2c1.7.3 3.4 1 5.2.9 8.4-.4 16.8-.2 25.2-.5q8.2-.6 16.5-1.7c4.6-.7 9.3-1.7 14-2q3.8.5 7.7 1.2 2.7.7 5.3 1.3a43 43 0 0 1 13.9 0" class="b"/><path d="M8.6 130c3 .7 6-.1 8.7-.8q4.3-1.4 8.7-1.5l15.7.2q4.8-.2 9.5-.2l9.6.8 6 .3q8.3 1 16.6 1.7c7.5.5 15 .3 22.6.5 6.6 0 13.3.6 20 .4 10-.2 19.7-2.4 29.6-3.6q6.6.4 13 2.3c4.9-.8 9.8-1.3 14.8-.6" class="b"/><path d="M8.6 127c3.1 1.6 6.4 1.3 9.6.4q4.3-1.1 8.7-1.6 4.3-.1 8.7 0c1 0 2.4-.6 3.4-.1l7.9-.1a259 259 0 0 1 19 .3c12 1.4 23.8 1.3 35.7 1.7 9.3.3 18.6 1.8 27.9 1.4q7-.3 13.9-1.6 6.4-1.2 13-2 6.1.8 12.2 2.3c4.8-.7 9.8-1.5 14.7-1" class="b"/><path d="M8.6 123.6c7 4 10.2 2 17.4.8q3-.3 6.1-.4c1.4-.4 3-1.3 4.4-.7q1.2.4 2.6.7h8.6q6.2 0 12.2-.4c2.3-.2 4.7-.6 7-.3 11 .9 22 .4 33 1 8.5.3 16.8 2.1 25.2 2.4q8.8.3 17.4-1.3c4.4-.7 8.7-1.7 13-2.2 1.5-.2 3 .2 4.4.4q4.5.6 8.7 1.8c4.9-.6 9.9-1.4 14.8-1" class="b"/><path d="M8.6 121.5c.4-.3 1.3-.7 1.8-.6 3 1.4 6.1 3 9.5 3q3 0 6.1-.6 2.3 0 4.4-1l4.3-1.4q1.3 0 2.6.6l4.4 1.3q3.4 0 7-.2c7.5-.3 15-2 22.5-1.8l13 .1c3.8 0 7.6-.4 11.4 0 7.9.2 15.7 1.5 23.4 2.8q4.8.8 9.6.9 4.4-.6 8.7-.9 4.8 0 9.5-1.2 4.4-.9 8.7-1.5c1.7-.4 3.6.2 5.3.4q3.9.7 7.8 1.6 7.3-.9 14.8-1" class="b"/><path d="M8.6 121.2c1.3-1 2.8-2.2 4.4-2.7 4 2 8.5 3.4 13 3.2 2-.6 4-1.7 6.1-2.3l3.5-1 2.6.7 4.3 1.4 1.8.6q1.3.1 2.6-.1c6.6-.8 13.3-2.3 20-2q5.7.2 11.3.8a59 59 0 0 1 13-.6q2.7.4 5.3-.2c2-.2 4-1 6-.8 5.6.5 11.1 1.8 16.6 3q3.8.8 7.8 1 1.8-.1 3.5-.5a70 70 0 0 1 14.8-1q5.6-1.3 11.3-2c1.4-.4 3 .2 4.3.3q4 .7 7.8 1.7 7.5-.8 14.8-.8" class="b"/><path d="m8.6 119.8.9.4h.9q2.2-2.5 5.2-3.9c1.2-.2 2.4.7 3.5 1l4.3 1.4q1.3.3 2.6.3a82 82 0 0 1 7.9-2.7c1.4-.6 2.9 0 4.3.4l7 2c2.3.1 4.6-.8 7-1q7.6-1.5 15.6-.4c1.7-.3 3.4-1.2 5.2-1.2q4.7 1.1 9.6 1.8 5.6.6 11.3-.4c2.3-.3 4.6-1.1 7-1.3 2 .9 4-.4 6-.4 5.3.9 10.4 2.5 15.7 3.5 1.6.2 3.5.8 5.2.5q4.6-1.3 9.5-1.5 5.7-.4 11.3-.4 3-.8 6.1-1.3c1.1-.1 2.4-.5 3.5-.4q5.3.9 10.4 2.1 7.5-.6 14.8-.4" class="b"/><path d="M8.6 115.3q2.6 1.1 5.3 1.8c.9-.2 1.8-1.1 2.6-1.6q1.6-1 3.4-1.7 3 1.1 6.1 1.8c3-.3 5.8-1.8 8.7-2l8.7 2.2c1.7.2 3.5-.4 5.2-.5q4.8-.8 9.6-.8l4.3.3q1.8-.6 3.5-1 3 1 6.1 2.4 4.3 1.8 8.7 3.2h4.4c1.3 0 3 .2 4.3 0l5.2-1.6q5.7-1.7 11.3-4l.9.3 2.6-.5c2 0 4.1.9 6 1.3q5.7 1.6 11.4 2.7a3 3 0 0 0 1.7-.3l3.5-.9q4.7-.9 9.6-1 4.3-.3 8.7-.1l6-1.3c1.4-.4 3 .1 4.4.3q3.9.8 7.8 1.6c5-.1 9.9-.4 14.8-.1" class="b"/><path d="M8.6 111.6c3.8.7 7.5 2 11.3 1.8q2.2-1 4.4-1.7 1.3-.3 2.6.3a5 5 0 0 0 2.6 0q1.7-.5 3.5-.6l5.2 1.1q1.7.5 3.5.3 5.6-.5 11.3-.8l5.2.3 2.6-.8a30 30 0 0 1 9.6 5q.7.7 1.7.6h23.5c2.3-.8 4.6-2 7-2.8 2.2-1 4.7-1.6 6.9-2.7 1 .4 2.3-.4 3.5-.2l8.7 2.4 4.3 1.1c1.1.2 2.4.7 3.5 0a56 56 0 0 1 21.7-2l5.3-1.1c1.3-.5 3 0 4.3.2l7 1.5q7.8-.2 15.6.1" class="b"/><path d="M8.6 110.5q2.6-.8 5.3-1.3c1-.2 2.3.3 3.4.3q2.2.3 4.4.3 3.9-.1 7.8-.7 1.8.4 3.5.1 3.4.2 7 .2c4.8 0 9.8-.4 14.7.2l1.7-.3 1.8.3c2.4.8 4.7 2.2 7 3.3 1 .5 2.2 1.6 3.4 2H73q1.3 0 2.6-.3c3.2-1.5 6.9-1.9 10.4-2q3.5 0 7 .8 1.8.5 3.4 1.4c1.5 0 3.2.3 4.4-.6q4.2-2.2 8.7-3.6c1.4-.3 2.8-1.6 4.3-1.2 1.1-.5 2.4 0 3.5.4l5.2 1.5q3.5 1 7 1.7 2.2-.6 4.3-1.4 9-2.1 18.3-1.2l3.5-.8c1-.2 2.4-.6 3.5-.2 2.9.4 5.8 1.3 8.7 1.7q7.8-.1 15.6.4" class="b"/><path d="M8.6 108.7c.8 0 1.8.4 2.6.3l3.5-.8q3-.7 6.1-.8 4.3-.1 8.7.2c2.3.1 4.7.6 7 .2q4.8-.4 9.5-.6c2 0 4.1-.6 6.1-.3h1.7l2.7.9q5.2 1.4 9.5 4.7h4.4a20 20 0 0 1 7-3.1q9-1.6 18.2 0 2.2.6 4.3 1.7c.8.4 1.7 1.3 2.6 1.4A50 50 0 0 1 113 108c.8-.2 1.7-1 2.6-1l1.7-.1 7 2q3.4 1 7 1.8c1-.3 2.3-1 3.4-1.2q8.1-2.3 16.5-1.4c2.6-.1 5.2-1.7 7.8-1q4.4.9 8.7 1.8 7.8-.1 15.7.5" class="b"/><path d="M8.6 106.6q3.1-.3 6.1.7c2.3-.2 4.7-.9 7-1 5.7-.6 11.6 0 17.4-.1q4.3-.3 8.7-1.1c1.4-.2 2.9-.7 4.3-.6a28 28 0 0 1 12.2 5.6h3.4c6-4.9 14.4-4.8 21.8-4.7 4 .2 8.3.3 12.2 2q1.3.6 2.6 1.4.6.8 1.7.9a57 57 0 0 1 9.6-4c.8-.2 1.6-1 2.6-1 1-.2 2.4 0 3.4.4q3 .8 6.1 2c2 .4 4.1 1.3 6.1 1.1q1.7-.8 3.5-1.3a35 35 0 0 1 13-1q2.7-.5 5.3-1 1.2-.6 2.6-.2 4.8 1 9.5 2.1 7.8-.2 15.7.6" class="b"/><path d="M8.6 105.7q3.9-1.4 7.9-.6c1 .1 2.3 1 3.4.7 5.7-1.3 11.6-1.3 17.4-1.8q4-.3 7.8-1c1.4-.2 3-1 4.4-.7.4.1 1.3 0 1.7-.1q1.8.2 3.5.9c3.2 1 6 2.9 8.7 4.8q1.3 0 2.6-.2c6-5.3 15.9-5 23.5-5 6.6 0 14-.2 19.1 4.6q4.3-2 8.7-3.7c.8-.3 2-.7 2.6-1.2l1.7-.3c4.9 1.5 9.7 3.5 14.8 3.6 3.5-1.5 7.5-1.8 11.3-1.8 1.2.1 2.4-.4 3.5-.6l4.4-1c1-.3 2.3.2 3.4.4 3.2.6 6.4 1.6 9.6 2.1q7.5-.2 14.8.6" class="b"/><path d="M8.6 105.5h1.8c2.7-2 6.3-2.4 9.5-1.8l2.6.6 3.5-.8c7-1.3 14-1.8 20.9-3.7q1.3.3 2.6.4l1.7-.4a35 35 0 0 1 9.6 4.6c.3.4 1.3 1 1.7 1.1h1.8c3.3-3 7.8-4 12.1-4.6q6.6-.8 13-.7c7.4 0 16.2-1 21.8 4.7l7.8-3.4c1.1-.5 2.6-.8 3.5-1.5a4 4 0 0 0 1.8 0l.8.2q3.5 1 7 1.9c5.7 1.4 11.7.4 17.4-1q2.5-.7 5.2-1.2 1.8.2 3.5.6l10.4 2.4c5 0 9.9-.3 14.8.3" class="b"/><path d="M8.6 103.2h7.9c1.6-.3 3.4-.8 5.2-.6l1.7.3q1.3-.3 2.6-.7l5.2-1.4 9.6-2.1 4.4-1q1.3-.1 2.6.4 1.3 0 2.6-.5c1.8.2 3.5 1.1 5.2 1.8q2.3 1.2 4.3 2.6c2.2 2.1 3.2 1.1 5.3-.4q2.4-1.5 5.2-2c6.8-1.3 13.9-1.3 20.8-1.6 7.6-.4 16.8-1.4 22.6 4.6l7-3.1q2.3-.6 4.3-2l1 .3c1-.5 2.3.3 3.4.4q3 .8 6 1.3c4.7.6 9.5-.2 14-1.2l3.5-.7c1.7 0 3.5.6 5.2 1q5.3 1 10.4 2.4c5-.3 9.9-.6 14.8 0" class="b"/><path d="M8.6 97.8q2.3 1.3 4.4 3h12.2q1.6-.5 3.4-1.2 5.6-1.8 11.3-3.2l3.5-1q.9-.3 1.8 0c.7.2 1.7.7 2.6.5q1.2-.5 2.6-.6l2.6 1q4.2 1.6 7.8 4.6c1.4.2 2.4-1 3.5-1.7q1.6-1 3.5-1.5c2.8-.9 5.8-1 8.7-1.1l10.4-.5c9.7 0 21.9-3.4 29.5 4.3q3-1.5 6.1-2.8l2.6-1q1.4-.6 2.7-1.4l.8.4c1.4-.6 3 0 4.4.2a38 38 0 0 0 14.7 0c1.7-.3 3.5-.9 5.3-.3q7.4 1.4 14.7 3.5c5.2-.4 10.5-1 15.7-.6" class="b"/><path d="M8.6 93.2c3.6 1 6.6 3.3 9.6 5.4H26c1.5-.2 3-1.2 4.4-1.7q3.8-1.5 7.8-2.6c1.7-.4 3.5-1.1 5.2-1.3l2.6.8c1.2 0 2.4-.6 3.5-.9 3.7 1.2 7.5 3 10.4 5.6 1.4.3 2.4-1 3.5-1.6q2-1.2 4.3-1.7 4.8-.8 9.6-.8l10.4-.2c8.1-.1 16.4-2 24.4 0q2.3.8 4.3 2c.8.6 1.7 1.6 2.6 2A52 52 0 0 1 127 95c1.1-.5 2.2-1.7 3.4-2l1 .5 2.5-.5 2.6.2q3.5.5 7 .2c2.3 0 4.7-.7 7 0q6.5 1.2 13 2.9l3.5.9a84 84 0 0 1 16.5-1.1" class="b"/><path d="M8.6 92c1.4-.4 2.9-1.4 4.4-1.4q4.9 2.1 9.5 4.8c.8.4 1.8 1 2.6.8q1.9.2 3.5-.7 6.4-3 13-4.8c1.2-.2 2.5.5 3.6.8 1.1 0 2.3-.6 3.4-.9q4.2 1.2 7.8 3.4c1.2.6 2.2 2 3.5 2.2 1.3-.3 2.3-1.5 3.5-2q2.4-1.2 5.2-1.7c7-.7 14 0 20.9-.2 9.6-.1 24-4 31.3 4 1.2-.1 2.4-1 3.5-1.5q2-1 4.3-1.7c1.4-.8 2.7-2.3 4.4-2.4 1.2 1 2.9.4 4.3.2q3-.3 6.1-.2a111 111 0 0 1 20 4l1.7.4 1.8-.2a70 70 0 0 1 16.5-1.2" class="b"/><path d="M8.6 92c2.8-1.3 5.6-3.2 8.7-3.6 4 1.4 8 3.7 12.2 4.3q4.2-2 8.7-3.5c3-1 3.1-1.1 6 0 1.5 0 3-1.2 4.4-.7Q54.4 90 59 93.9h1c5.6-5.2 13.7-4 20.8-3.8q4.8.3 9.5.4 4.8-.1 9.6-.7c4.6-.3 9.3-.7 14 .1q2.6.6 5.1 1.8c1.2.5 2.3 1.8 3.5 2.2q1.4 0 2.6-.2l3.5-1.6c1-.2 1.9-1 2.6-1.6q1.6-1.3 3.5-2.1c.9 0 1.8.7 2.6 1.1 2.6 0 5.2-.5 7.8-.1q8.4.9 16.5 3.3 1.4.5 2.7.6 3-.8 6-1.2a73 73 0 0 1 13-.6" class="b"/><path d="M8.6 91.6q1.6.2 2.6-.7l3.5-2.2q2.1-1.2 4.4-2c1-.4 2.3-1 3.4-.3q3.5 1.3 7 2.1c1 .2 2.4.6 3.5.2q3.4-1.5 7-2.6c1-.3 2.3.4 3.4.7 1.4 0 3-1 4.4-.6a27 27 0 0 1 10.4 5.2l.9.2c8-6.3 16.7-3.7 26-3.5q3 0 6.1.6 2.7 0 5.2-.2c8-.4 19.6-2.5 26.1 3q3.1.3 6.1 0c1.4-.5 2.3-2 3.5-2.8q2-1.6 4.3-2.6c1.6 0 3 1.2 4.4 1.8 1.7.3 3.5 0 5.2.2 5.3.5 10.5 1.9 15.7 3.2 1 .5 2.4.1 3.4-.2l4.4-1q7-1 14-.8" class="b"/><path d="M8.6 89.3h3.5q1.4 0 2.6-.3 4.7-3.7 10.5-5.4c3 1 6.3 1.9 9.5 1.8l5.2-1.8 2.6.8q1.8-.4 3.5-.7a43 43 0 0 1 8.7 3.3c1.2.6 2.3 1.8 3.5 2.3 1-.1 1.8-1 2.6-1.5q2.5-1.5 5.2-2.2c6.6-1.7 13.4.2 20 .1q4.5.3 8.7 1.3l10.4-.4c4.4-.2 8.9-.4 13 .7q2.3.7 4.4 2h7c1-.5 1.8-1.6 2.6-2.2q2.8-2.3 6.1-3.4c2.4.8 4.6 2.3 7 3q2.6.2 5.2.7l6 1.3q2.6.8 5.3.6 1.7 0 3.5-.2l5.2-1.1q6.5-1 13-.8" class="b"/><path d="M8.6 86.5c1 .7 2.4.4 3.5.4h5.2c.9-.4 1.8-1.3 2.6-1.8q2.2-1.3 4.4-2.3c1.6-.6 3.4-1.6 5.2-1.3q3.5.8 7 .7l2.6-1q1.3.4 2.6.6l2.6-.5c4.7.8 9.3 2.6 13 5.6h.9c7.8-5.6 14.5-4.9 23.5-3.7q8 0 15.6 2.3 5.3.3 10.4 0c4.4-.1 8.9 0 13 1.4h6.2c1 0 2.4.2 3.5-.2a24 24 0 0 1 8.6-5.4q5 2 9.6 4.6 2.6.3 5.2 1h5.2c3 0 6 .4 8.7-.3a53 53 0 0 1 15.7-1.3" class="b"/><path d="m8.6 83.3 2.6 1.3H20c1.1-.5 2.2-1.6 3.4-2.3A25 25 0 0 1 33 79q2.2.3 4.3.3a5 5 0 0 1 2.6 0c2.4-.5 4.7 0 7 .7a29 29 0 0 1 9.6 4.5h1.7A25 25 0 0 1 70.4 80q5.6-.2 11.3 1a53 53 0 0 1 16.5 2.8q1.2.6 2.6.8h28.7q3.3-2.4 7-4.3c1.3-.5 2.8-1.7 4.3-.8q5.4 2 10.4 5.1h16.5c2-.1 4.1-.8 6.1-1q4.8-.2 9.6 0" class="b"/><path d="M8.6 80.3c1.7.6 3.5 1.6 5.3 2h8.6c8.6-7.8 24-6.7 33-.3 1.7.9 3-.3 4.4-1.1l3.5-1.6q7.2-2.7 14.8-1.3 2.2.4 4.3.7a68 68 0 0 1 13 2c1.8.4 3.5 1.7 5.3 1.6h26.1c.8 0 2 0 2.6-.7a46 46 0 0 1 10.4-5q6.5 2.3 12.2 5.7h18.3c4.3-.2 8.7-.6 13 0" class="b"/><path d="M8.6 77.3c2.6.8 5.2 2 7.9 2.7h4.3q1.8.1 3.5-.4c1.9-1.2 3.9-2.6 6-3.3q2.2-.7 4.4-1 1.3-.7 2.6-1 2.2.9 4.4.8A33 33 0 0 1 53 78.5c1 .5 2.2 1.7 3.5 1.5 1.6.1 2.9-1.4 4.3-1.9a30 30 0 0 1 15.7-2.8c3.5.4 6.8 1.4 10.4 1.6q6.3.8 12.2 3h11.3q3.4.2 7-.1 3.4-.4 6.9.2c2.7-.4 5.3-1.9 7.8-2.8q3.8-1.7 7.8-2.9 6.8 2.3 13 5.7h30.5" class="b"/><path d="M8.6 74.5c2.7.5 5.2 1.6 7.9 2.1q4.4 1.1 8.6-.3Q30.8 74 36.4 72q1.4.4 2.6 1 2.7.1 5.3.5 5.6 1 10.4 4.2h2.6q2.1-1.2 4.4-2.2A35 35 0 0 1 79 73.3q3 .7 6.1 1.3 4.6.4 8.7 1.7c1.4.3 3 1.2 4.4 1.3H113l3.4-1q3-.5 6.1-.3 3-.4 6.1-1.1c3.8-.8 7.5-2.6 11.3-3.1q4.9 1.4 9.6 3.5 2.2 1 4.3 2h29.6" class="b"/><path d="M8.6 71.7c15.2 3.6 12.7 2.7 27-2L39 71q2.2 0 4.3.4 5.6.9 10.4 4c1.4-.2 3.1.3 4.4-.5q3.4-1.7 7-2.8a33 33 0 0 1 20.8.6q3.5.4 7 1.5c1.4.3 2.8 1.2 4.3 1.1h10.4l6.1-1.4c6-1 12.3-1.5 18.3-2.7q3.4-.7 7-1.6a75 75 0 0 1 15.6 5.7h28.7" class="b"/><path d="M8.6 69c14.4 3 12.6 2.4 26.1-1.6l4.4 1.6q5.4.1 10.4 2.2c1.4.5 2.8 2 4.3 1.8h3.5l3.5-1.5a32 32 0 0 1 27-.4q3.4.8 6.9 1.9h10.4q1.5-.2 2.6-.8 3.5-1 7-1.7c6.6-1 13.4-1.5 20-2.6l3.5-.6c2 .1 4 .9 6 1.4q6.3 2 12.2 4.1 1.7.3 3.5.2h23.5" class="b"/><path d="M8.6 66.1c5.5 1 11 2.5 16.6 1.3l6-1.7c1.1-.3 2.4-.8 3.5-.3l4.4 1.7a27 27 0 0 1 12.1 3.3c1 .5 2.4.2 3.5.3q1.8.1 3.5-.3 3-1.3 6-2.5 6.8-2.3 14-1.5 4 .5 7.8 2 3 1.3 6.1 2.3h12.2q4.2-1.6 8.7-2.7c6-1.4 12.1-1.6 18.2-2.4l4.4-.5q1.7-.3 3.5 0c6.4 1.2 12.7 3.5 19 5q2.6.7 5.3.6h14.8q2.6-.4 5.2-1" class="b"/><path d="M8.6 63.4c4.9.8 9.9 1.9 14.8 1.3 3-.3 5.8-1.3 8.7-2l3.5 1.1c1 .4 2.3 1.1 3.5 1.3a26 26 0 0 1 9.5 2.3c.8.3 1.7 1 2.6 1h6.1q1.4-.4 2.6-1 2.6-1.2 5.3-2 6.7-2.2 13.9-1a34 34 0 0 1 11.3 3.9h13.9q3.3-1.5 7-2.4c6.2-1.8 12.7-2.2 19-2.8 2.3-.1 4.7-.7 7-.4 6.8.7 13.3 2.7 20 4 8.6 1.9 17.5.8 26.1-.8" class="b"/><path d="M8.6 60.6c4.9.7 9.9 1.7 14.8 1.2 2.6 0 5.2-1.4 7.8-1.3l3.5 1.1 3.5 1.5a25 25 0 0 1 11.3 3h7.8l2.6-1q2.2-1 4.4-1.7 6.4-2.2 13-1.4a35 35 0 0 1 13 4h9.6c1.7 0 3.6.3 5.3-.2 6.8-3 14.3-4.3 21.7-5 2.8-.1 5.8-.6 8.7-.4 7.9.4 15.6 2.4 23.4 3.3 8.2 1 16.3-.2 24.4-1.3" class="b"/><path d="M8.6 58c4.6.4 9.3 1.3 14 1q3-.1 6-1 2.3.4 4.4 1.2 2.2.6 4.3 1.7 3.1 0 6.1.9 2.7.8 5.2 2h6.1l2.6-.1q3-1.3 6.1-2.3a33 33 0 0 1 21.8.1q2.6 1 5.2 2.2h13c6.2-2.2 12.5-4.4 19.1-4.7 4.3-.5 8.7-1.1 13-.9 8 .3 15.7 1.8 23.6 2.4 8 .7 16.2-.5 24.3-1.4" class="b"/><path d="M8.6 56q3-.7 6.1 0l6.1.2q3-.1 6.1-.4c2 .1 4.1.9 6 1.5l3.6 1.5q2.2-.1 4.3.4c2.4.3 4.7 1.5 7 2.2h8.7c3.4-1 6.8-2.4 10.4-3.2 7.6-1.6 15.5-.2 22.6 2.8 1.3.7 3 .3 4.3.4h7c1.5-.2 3-.9 4.4-1.3q4.6-1.5 9.5-2.6 5.2-1 10.4-1 4.8-.7 9.6-.8c6.7 0 13.3 1 20 1.4 9.6 1 19.2-.2 28.7-1.1" class="b"/><path d="M8.6 54q5.2-1 10.5-.6a35 35 0 0 1 16.5 3.2q3 0 6 .7c1.8.3 3.6 1.2 5.3 1.8h7c3.8-.2 7.5-2 11.2-2.7q9.2-2 18.3.3 4 1 7.8 2.4h4.4q1.7.2 3.5-.3c7.6-2 15.4-4.4 23.4-4.8h5.2q5.7-.6 11.3-.6c6.1 0 12.2.7 18.3.9q7 .4 14-.3l6.9-.5q2.6.1 5.2.4" class="b"/><path d="M8.6 52q5.7-1 11.3-.7 4.9.3 9.6 1.3l3.5 1.2q1.2.6 2.6.6 5.5 0 10.4 2.3h5.2c1.5.2 3-.3 4.4-.6q4.3-.7 8.7-1.8 6.4-1.3 13-.8 5.7.7 11.3 2c2.3.5 4.7 1.8 7 1 7.7-1.8 15.5-3.9 23.4-4.7q4.9-.5 9.6 0 5.6-.6 11.3-.4l8.7-.3 13 .4q4.8 0 9.6-.4l12.2 1" class="b"/><path d="M8.6 50a55 55 0 0 1 21.8 1q1.3.6 2.6 1l1.7.1A28 28 0 0 1 46 54.4h2.6c2.1.2 4.1-.6 6.1-1 6-.8 12.1-2.2 18.3-2.2q7 .1 13.9 1.3l4.3.6q1.8.5 3.5.2c8.4-1.3 16.7-3.4 25.2-4q4.9-.5 9.6.4 4.4-.4 8.7-.3c7 .3 13.9-.6 20.8-.6 8.2 0 16.3 1 24.4 1.6" class="b"/><path d="M8.6 48c7.6-.9 15.4-.6 22.6 1.8q4.9-.3 9.6.6c2 .3 4 1.3 6 1.7h2.7q2.5-1 5.2-1.5 8.7-1.4 17.4-1.7c7.8-.2 15.7 1 23.5 1.2 7.2-.9 14.4-2.5 21.7-3.2q6.6-.8 13 .7c4.4-.4 8.7 0 13 0 6.4-.1 12.8-1 19.2-.6q6 .2 12.2.8c2.8.2 5.8.7 8.7.5" class="b"/><path d="M8.6 46.2a55 55 0 0 1 20 1.2q9.8-.7 19.2 2.4c6.6-2.6 13.8-2.8 20.8-3.3 7.5-.4 15.1 0 22.6 0 2.9 0 5.9.6 8.7.2 7.5-.9 15-2.5 22.6-2.5 3 0 5.8.8 8.7 1.4q3.5-.2 7 0c7.5.5 15-.6 22.5-.6q7 .1 14 .8l8.6-.2" class="b"/><path d="M8.6 44.3c5.5-.4 11.1-.5 16.6.7 7.5-1 15.2 0 22.6 1.7q1.3 0 2.6-.5 2-.6 4.3-1 7.8-1.2 15.7-1.5 15.6-.7 31.3 0c6.6-.6 13.2-2 20-1.8q3.5-.2 7 .9c1 .2 2.2 1 3.4.8q4.8.2 9.5.4 5.7-.2 11.3-.7 9.1-.6 18.3.1l12.2-.5" class="b"/><path d="M8.6 42.2q4.4-.2 8.7 0c2 .1 4.1.8 6.1.2 8.1-1.3 16.3 0 24.4 1.2 1.4.4 2.9-.2 4.3-.5q3-.7 6-1.1 11-1.2 21.8-1.6 7.5-.1 14.8.2 4.4 0 8.7.3c4-.3 8.1-1 12.2-1.3 2.5-.2 5.2.2 7.8-.1 3 0 5.9 1.2 8.7 2.3q4.3.2 8.7.4 4.8 0 9.5-.6 7.8-.7 15.7-.4 8.6-.7 17.4-.7" class="b"/><path d="M8.6 40q4.5 0 8.7.4c3.5-.4 7-1.2 10.5-1.2 7-.4 13.9.5 20.8 1.1l2.6.2 2.6-.5 6.1-1q11.8-1.6 23.5-1.4c5.8 0 11.6 1 17.4.2l10.4-.5 4.4-.2 3.4.2c2.3.3 4.7-.4 7 .1 2.4.4 4.7 1.6 7 2.6 2.8 0 5.8.5 8.6.5q4-.1 7.9-.5c3.7-.5 7.5-.4 11.3-.8q6.5-.7 13-1 4.8-.3 9.6 0" class="b"/><path d="M8.6 37.7c2 0 4.2.5 6.1 0q5.7-1 11.3-1.3c8.1-.3 16.3.6 24.4.8 2.6.3 5.2-.4 7.8-.7q6-1 12.1-1.4t12.2 0c2.6 0 5.3.7 7.8.1 2.9-.6 5.9 0 8.7 0q7.5.2 14.8 0 3.5-.1 7-.1c1.7 0 3.5-.5 5.2-.1q2.7.5 5.2 1.7c1.2.4 2.2 1.8 3.5 1.6 3.1.3 6.4.8 9.5.6l7-.7a109 109 0 0 1 20.8-2.4q5.7-.5 11.3 0" class="b"/><path d="M8.6 35.2c8-1 16.2-2 24.4-1.6l13.9.6c3.1 0 6.4.4 9.5-.3a87 87 0 0 1 25.3-1q1.2-.3 2.6-.3 4.3 1 8.7 1 6 .1 12.1-.5a24 24 0 0 1 9.6.7q3.4-.6 7-.8c1.3-.2 2.9-.6 4.3-.3 3.1.6 6.4 1.7 8.7 4q2.5.5 5.2.8 2.2.3 4.4.2l3.4-.8q4.8-1.3 9.6-2a120 120 0 0 1 26-1.5" class="b"/><path d="M8.6 31.7q10.8-1 21.8-.9l19 .6q2.3.1 4.4 0 4.3-.9 8.7-1.1 9.1-.6 18.3.4c8.4.5 16.8 1.2 25.2.3q4-.7 7.8-.1 1.4.2 2.6.7l.9.4.9-.1 4.3-1q1.8-.4 3.5-.6c4 .9 7.7 2.3 10.4 5.4 2.6.3 5.3 0 7.9.1 1.5-.9 3.5-1 5.2-1.5q3.8-1.1 7.8-1.9 6.5-1 13-1.4 6.6-.5 13 0" class="b"/><path d="M8.6 28.4q20.4-.7 40.9.4 3 .2 6-.4 4-.5 7.9-.5c7.5 0 15 .6 22.6 1 5.8.1 11.6.7 17.4.2 5.6-.3 11.3-1.7 16.5 1.2q3.5-1.3 7-2.4 3.6 1.2 7 3c1.2.7 2 2.3 3.4 2.6h4.3q1.8.2 3.5-.2 2.7-.9 5.2-1.4 5.3-1.5 10.5-2.4c4.3-.7 8.7-.8 13-1.2q4.8 0 9.6.4" class="b"/><path d="M8.6 25.6q10.5.2 20.9-.1 10 .1 20 1.1c2.3 0 4.7-.6 7-.6 2.2-.3 4.7 0 6.9-.4 3.7.6 7.6.4 11.3.5l13 .5c5.5 0 11 .6 16.6.6 5.7-.5 12-1.8 17.4 1.2 2.3-.5 4.5-2.4 6.9-2.7 2.8 1.2 5.7 2.9 7.8 5.1q1.2.6 2.6.4h4.4c1.1.1 2.4-.5 3.5-.8q3.4-.6 7-1.6 7.6-2.2 15.6-2.6a71 71 0 0 1 13.9.1" class="b"/><path d="M8.6 24q9.6 0 19.2-.5 3.8-.1 7.8-.4 4.8.4 9.5 1 6.1.4 12.2-.9 1.8.3 3.5.7h6q5.7 0 11.4.2 13.5 0 27 1 3 .3 6-.5c4.1 0 8.5 0 12.2 2 2-.8 4-2.4 6-3.3 1.7.3 3.1 1.5 4.4 2.4s2.3 2.3 3.5 3.2h4.4c1 0 2.4.1 3.4-.3 1.9-1 4.1-1 6.1-1.5q4.4-1 8.7-2.1c4.3-1 8.7-1.2 13-1.6q5.3 0 10.5.6" class="b"/><path d="M8.6 22.2q9.1 0 18.3-.6l7-.5a16 16 0 0 1 5.2 0c4.3.8 8.7.3 13-.1q2.6.5 5.2 1 7.5-.2 14.8-.2c11.6 0 23.3.1 34.8 1.5q3.5.3 7-.4l6 .6q2.7.5 5.2 1.6 2.9-2.6 6.1-4.1 2.4 1.3 4.4 3c.8.8 1.5 2.1 2.6 2.6h6q1.3-.9 2.7-1.3c2.6-.6 5.3-.7 7.8-1.5a74 74 0 0 1 28.7-2.2" class="b"/><path d="M8.6 19.6q1.8.4 3.5.7 3.5 0 7-.2 8.3-.3 16.5-1.4c2-.2 4 .3 6 .2 2.4 0 4.8-.5 7 0l5.2 1.2q5.3-.1 10.5-.4l22.6.1q11.2.4 22.6 2c2 .2 4-.2 6-.3q5.5.3 10.5 2c2-1.5 3.8-3.5 6-4.7h1q1.8 1.2 3.4 2.7c.9.8 1.7 2.1 2.6 2.7h3.5l5.2-2c2-.5 4.2-.4 6.1-.8q5.7-1.2 11.3-2.1l7-.8q5.6 0 11.3.7" class="b"/><path d="m8.6 17.1 5.3 1.2a134 134 0 0 0 15.6-1c2.9-.4 5.8-1 8.7-1q4.4 0 8.7.9c1.7.2 3.4 1.2 5.2 1q10.5-.5 20.8-.5c9.3 0 18.7 0 27.9 1.3 3.4.4 7 1.4 10.4 1.8 1.4.2 3-.4 4.3-.5q2.3.2 4.4.7c11.2 2.1 5.3.5 14-4.7q3.5 2.1 6 5.6h1.7q1.5-.4 2.6-1 2.6-1.2 5.3-1.6c6.6-.9 13.2-2.4 20-3q3-.3 6-.1 4 0 7.9.7" class="b"/><path d="M8.6 14.6q3.6.6 7 1.7a82 82 0 0 0 11.3-.7q4.3-.9 8.7-1.2a36 36 0 0 1 13 2.2l1.7-.2c9.9-.8 19.8-.6 29.6-.5q8.7 0 17.4 1c4.1.4 8.2 1.6 12.2 2.7h2.6q1.3-.4 2.6-1.2a8 8 0 0 1 7.8 1.2h6.1c1-.7 1.8-1.9 2.6-2.7q1.6-1.6 3.5-2.7h.9c2 1.3 4 3 5.2 5l.8.4c1 0 1.9-.7 2.7-1q2-1 4.3-1.7c3.1-.8 6.4-1 9.6-1.4a64 64 0 0 1 25.2-1" class="b"/></svg>