<svg xmlns="http://www.w3.org/2000/svg" id="a" width="1920" height="2400" viewBox="0 0 192 240"><defs><style>.b{fill:none;stroke:#fff;stroke-miterlimit:10;stroke-width:.3px}</style></defs><path d="M0 0h192v240H0z" style="stroke-width:0"/><path d="M8.6 224.2q1.9.3 3.5 1.1c1.2-.1 2.4-1 3.5-1.6 2.2-1.1 4.5-2.4 7-3 4.2 1.4 2.8 1.6 6.9 0q2.7 1 5.2 2.2c1.1.4 2.3 1.4 3.5 1.4 7.6-.2 15-3 22.6-3.5 2.6-.3 5.3 0 7.8 0q6.7.1 13 2a50 50 0 0 1 14 3.5h6.9c.6 0 1.4-.6 1.8-1 2.5-2 5.4-4 8.7-4.6 1 .2 2.4.7 3.4.1 1.4.7 3 0 4.4 0q3.6 1 7 2.7l1.7.5 1.7-.4q2.3-.2 4.4.6c2.1-.8 4-2.3 6-3.4 1.6.2 3 1.5 4.4 2.3l5.2 3.2h12.2q2.6-.6 5.2-.6 2.7 0 5.2.6h9.6" class="b"/><path d="M8.6 222.7q1.9 0 3.5 1c4.6-1.8 9-4.7 14-5.2l2.5.5q.9-.2 1.8-.5c1.5.1 2.9 1 4.3 1.4q2.2.2 4.4.1c5-.1 9.8-1 14.7-1.6q9.2 1 18.3 0 5.3.7 10.4 2.4 5 .6 9.6 2.5c1.3.9 2.9.7 4.4.7h6.9c1.2-.6 2.3-1.9 3.5-2.7q2.8-2 6-2.8l2.7.2c.4-.2 1.3-.2 1.7 0q1.3-.2 2.6-.2 2.3.5 4.4 1.5c1.4.6 2.8 1.8 4.3 2 2.2-1.2 4.7-.5 7 0 1.8-1 3.5-2.4 5.2-3.4a3 3 0 0 1 1.7.6q1.9 1.2 3.5 2.5c1.1.7 2.2 2.1 3.5 2.3h7.8q3.1.2 6.1-.7c4.3-.8 8.8 0 13 .6 2.3.3 4.7 0 7 .1" class="b"/><path d="M8.6 221.7c3 .3 6-1 8.7-2a53 53 0 0 1 14-3.6q3.4.2 6.9.2l6-.2 11.4 1q6 .3 12.1-.4l5.3-.6 5.2 1 5.2 1.8q4.6.6 8.7 2.7 3.5.1 7 .1c1.6 0 3.5.2 5.2-.2 2.5-2.7 5.8-4.9 9.5-5.4h1.8c.4.1 1.3.2 1.7.1 3.8-.5 7.3 2 10.4 3.9a8 8 0 0 1 5.3-.9c.7.2 1.8.6 2.6.4 1.7-1 3.3-3 5.2-3.4q2.3 1.4 4.3 3.2c.8.7 1.7 1.8 2.6 2.3h10.5q3.8-1.4 7.8-1.5 4.4 0 8.7.6 2.2.3 4.3.9h4.4" class="b"/><path d="M8.6 219.3c4 .4 7.7-1.2 11.3-2.3q3-.8 6.1-1.5 2.2-1 4.4-1.8l2.6 1a76 76 0 0 1 8.7 0c6.3.3 12.7 1.1 19.1.7q4-.3 7.8-1c1.7 0 3.5-.7 5.3-.6a42 42 0 0 1 9.5 3c2 .5 4.2.8 6.1 1.8 1.5 1 3.5.7 5.2.8h8.7c1.6-.8 2.9-2.3 4.4-3.3 2-1.2 4.5-2.5 7-2.3 1.3.2 2.9-.2 4.3.1q2.7.7 5.2 2c1 .7 2.3 1.7 3.5 2.1 2-1.3 4.7-1.1 7-.4.5 0 1.3-.6 1.6-1l3.5-2.8c1.3.3 2.5 1.5 3.5 2.3 1.2 1 2.2 2.5 3.5 3.3l9.5-.1q4.3-1.6 8.7-1.7 5.2-.2 10.5.6 2.2.5 4.3 1.2h3.5" class="b"/><path d="M8.6 217c2.6.3 5.3-.3 7.9-.9 1.6-.5 3.6-.7 5.2-1.5a48 48 0 0 1 7-3c1-.3 2.3.5 3.4.9l1.7.7 2.7.1 5.2.1c5.5.3 11 .7 16.5.3q7.5-.7 14.8-2.2 5.4.6 10.4 3.2 2.2.6 4.4 1.4l1.7.8q1.2.2 2.6.1h7c1 0 2.5.3 3.4-.4q1.8-.7 3.5-1.7 2.4-1.9 5.2-3 2.2-.7 4.4-.4 2.7-.2 5.2.7c2.5.8 4.6 2.7 7 3.9 2-1.3 4.7-1.1 7-.5 1.9-1 3.3-3 5.1-4.2 2.5 1.3 4.4 3.5 6.1 5.6q4.4 0 8.7 0c3.1-1 6.3-2 9.6-2q5.6-.2 11.3.7 2.2.4 4.3 1.3h3.5" class="b"/><path d="M8.6 214.5q3.5.2 7-.4c2.9-1.2 5.7-2.9 8.7-3.9 3.6-1.5 3.4-1.2 7 .2l3.4 1.5 8.7.3a92 92 0 0 0 29.6-3q4.9.6 9.5 3l3.5 1.4c1 .3 2.3 1.3 3.5 1.1h10.4q3-1.5 6-2.6 2.2-1.4 4.4-2.3 2.6-.9 5.3-.7 1.7 0 3.4.3c3.3.8 6 2.9 8.7 4.7q1.3-.2 2.6-.7 2.2-.2 4.4.3c1.8-1.4 3.4-3.3 5.2-4.6 2.5 1 4.3 3.6 6.1 5.6h6c4-.9 8.1-2.1 12.3-2.2q5.2-.3 10.4.6c2.9.7 5.7 2 8.7 1.6" class="b"/><path d="M8.6 212c2.5.5 4.8-.8 7-1.7A103 103 0 0 1 25 207q1.8.2 3.5 1c2 .6 4 1.8 6.1 2.6 4.3 0 8.7.4 13 .3q4.1.1 7.9-1 3.4-.4 7-.8l9.5-2c.8-.4 1.8 0 2.6.2l3.5 1c2.4.8 4.6 2.3 7 3.3.7.3 1.7 1 2.5.9h9.6c1.9.1 3.5-1.4 5.2-2l3.5-1.1a20 20 0 0 1 4.4-2 9 9 0 0 1 4.3-.4q1.7-.1 3.5 0c4 .8 7.1 3.4 10.4 5.5q1.8-.6 3.5-.7h2.6q2.5-2.4 5.2-4.7h.9q3 2.1 5.2 5 1.3.6 2.6.4 2.8 0 5.2-.9 4-1 7.9-1.4c7.2-.6 14.5.5 21.7 1.7" class="b"/><path d="M8.6 208.8c4.8-1 9.3-3 14-4.3 1.4-.2 3 .7 4.3 1.1 2.4.8 4.6 2.3 7 3.2q6.9.5 13.9.2c1.7-.2 3.4-1.1 5.2-1.4a57 57 0 0 1 7.8-1q3.5 0 7-1c1.6-.3 3.4-1.1 5.2-1q5.5 1.2 10.4 4.2 1.2.8 2.6 1.3h9.6c1.9.2 3.5-1.4 5.2-2l5.2-1.5q2-1.2 4.4-2 1.2-.3 2.6-.2l1.7.2 2.6-.1q2.3.3 4.4 1.3 2.7 1.3 5.2 3 1.2.8 2.6 1.3h1.7l2.7-.1 1.7-1.3q2.5-2.2 5.2-4.3 3.6 2.3 6.1 5.6c1.8.3 3.5-.3 5.2-.7q3.9-1 7.8-1.4 4.5-.4 8.7-.5c5 0 10 .6 14.8 1" class="b"/><path d="M8.6 205.3q4-1 7.9-2.2c1.6-.3 3.5-1.4 5.2-.7Q27 204 32 206.9q6 .6 12.2.4 3-1.2 6-2 5.2-1.2 10.5-1.4 2.2 0 4.3-.2c2.3-.4 4.7-1.3 7-1.5q6.2 1.4 11.3 4.8c1.1 1.1 3 .7 4.3.8h7a3 3 0 0 0 1.7-.6l3.5-1.6q2.6-1 5.2-1.6 1.8-.7 3.5-1.3t3.5-.6l2.6.3q1.8-.2 3.5-.2a24 24 0 0 1 8.7 3.8c1.6 1 3.3 2 5.2 1.8 2.4.1 4.3-2 6.1-3.4 1-.8 2.2-2 3.5-2.2q3.5 2.2 6 5.5c2-.2 4.2-1 6.2-1.3a42 42 0 0 1 7.8-.8c7.2-1.2 14.5-.8 21.7-.6" class="b"/><path d="m8.6 202 6.1-1.5 2.6-.7q1.4.1 2.6.5 4.6 1.3 8.7 3.7c1.5 1.1 3.6.7 5.3 1 10.1.9 5.3.5 13.9-2.2q7.7-1.7 15.6-1.5c2.4 0 4.7-1 7-1.4 1.4-.1 3 .6 4.3 1a38 38 0 0 1 6.1 2.7c1.4.8 2.7 2.1 4.4 1.9h8.6q5-2.8 10.5-4c1.7-.5 3.4-1.4 5.2-1.7a6 6 0 0 0 2.6 0l1.8.4c1.7.2 3.5-.4 5.2-.3a31 31 0 0 1 7 2.8c2.5 1.4 5.6 3.3 8.6 2 2.5-1.2 4.6-3.3 7-4.7h.8q3.5 2 6.1 5c1.7.2 3.5-.6 5.3-.8q3.8-.7 7.8-.6c7-1.9 14.5-1.6 21.7-1.7" class="b"/><path d="M8.6 199q2.2-.7 4.4-1 1.3-.6 2.6-.4 4 .9 7.8 2.6c1.5.5 2.8 1.8 4.4 1.9l7 .8c1.3 0 2.9.3 4.3 0 6.3-3.5 13.7-4 20.8-4.1h4.4l5.2-1.3c4.6.9 9 3 13 5.4 1 .4 2.4.2 3.5.2h6.1q2.5-1.3 5.2-2.4 3.5-1 7-2 1.6-.7 3.5-1.1c.4 0 1.3 0 1.7.2l1.7-.3c1.5 0 3 .8 4.4.5q1.7 0 3.5-.5c2 0 4.1 1 6 1.8 4.7 2.1 8.3 4.3 13 1l3.6-2.1.8-.5h1c2.5 1.2 4.7 3.3 6.9 5.2q3.8-.8 7.8-1.2c1.4-.1 3 .2 4.3-.4 6.8-2 14-1.9 21-2.2" class="b"/><path d="m8.6 196 3.5-.8a39 39 0 0 1 11.3 3.8l6.1.8 7 .9 1.7-.9a50 50 0 0 1 20.9-3.5c1.7-.1 3.6.4 5.2-.1 1.7-.3 3.5-1.4 5.2-.8q4.6 1.3 8.7 3.3c1.7.7 3.3 2.2 5.2 2h7c1.4-.4 2.9-1.4 4.3-2q3.4-1.2 7-2l4.3-1.5 2.6.3 1.8-.2c1.4-.3 3 .2 4.3.4 2 .5 4.1-.2 6.1-.6q1.4 0 2.6.6c4.8 1.3 9.8 4.7 14.8 2.3 2-.8 4-2.3 6-2.8q4.5 2.1 8 5.6c2.8-.3 5.7-.9 8.6-.7q1 0 1.7-.4 1.8-.7 3.5-1.2c5.7-1.4 11.6-1.7 17.4-2" class="b"/><path d="M8.6 193c1.1-.3 2.4.1 3.5.4q3.7.8 7 2.3l6 1q4.8.7 9.6 1.3 2.5-1 5.2-2a60 60 0 0 1 21.8-2l5.2-1.2c5.1 1 10 3.5 14.8 5.5 1.3.3 3 .1 4.3.2q1.8.2 3.5-.3 4.6-2.4 9.6-3.7c2.2-.6 4.6-2.2 7-1.4 1.6.4 3.4-.2 5.1-.3l6.1.7c2.3.6 4.7-1.1 7-.4 9.8 2.5 11 4.4 20.8-.3 3.3 1.2 6.2 3.4 8.7 5.6h8.7q2.6-1.2 5.2-2 7.8-2 15.7-2.2" class="b"/><path d="M8.6 190.8q3.1.6 6.1 1.7l4.4.5q7.4 1.2 14.7 2.3c5.7-2.6 12-3.5 18.3-3.7h5.2c1.5 0 3 .3 4.4-.2l3.5-.9c1.7 0 3.5.9 5.2 1.4 5.8 2 12 5.6 18.2 3.2 4.4-1.5 8.6-3.4 13-4.5 1.2-.3 2.5.3 3.6.5l6-.5 7 .3c1.4.1 3 .6 4.4.4l3.4-.8 2.7.5c3 .7 6.3 1.5 9.5 1.4 2.7 0 5.3-1 7.8-1.8 3.6.8 6.8 3 9.6 5.4 2 .3 4 0 6 .1 1.8 0 3.8.4 5.3-.6 5.2-2.2 11-2.8 16.5-3.3" class="b"/><path d="M8.6 189c2 .6 4.1.5 6.1.8q4.4.5 8.7 1.3l7 1.1 2.6.4 1.7-.6a54 54 0 0 1 23.5-2.5c2-.4 4-1.2 6-1.3 10.7 2.7 14.9 6.6 26.2 2.6q4.6-1.6 9.5-2.7l3.5.8 2.6-.3q6-.4 12.2-.4l7 .5c1.3 0 2.9.2 4.3-.2s3 0 4.3.1c2.9.3 5.8.9 8.7.5q2.2-.2 4.4-.9c4 1 8 3 11.3 5.6h11.3q4.1-1.8 8.7-2.4c1.6-.4 3.5-.4 5.2-1" class="b"/><path d="M8.6 186.7q7.5.5 14.8 1.9l6.1 1c1 0 2.4.4 3.5.2 7.2-2.6 15-3 22.6-2.5 1.7 0 3.5-.9 5.2-1.2l1.7-.3 1.8.4c15.3 4.7 15.2 3.8 30.4 0q1.3-.3 2.6-.4l2.6.5c1.4.5 3 .2 4.4 0q9.5-.4 19.1-.3c3.5 0 7-.4 10.4-.2l2.6.2 2.7-.3q3.8.5 7.8.2a34 34 0 0 1 13.9 5.5q4.7.2 9.6 0 6.4-1.8 13-3.5" class="b"/><path d="M8.6 184.4c7.6.5 15 2.1 22.6 3 1.2 0 2.4-.6 3.5-.8q2.6-.7 5.2-1 7-1 14-.5c2.5-.5 5.1-1.6 7.8-1.5 5.1 1.1 10.3 3 15.6 2.8 3.8-.2 7.6-1.1 11.3-1.9 2.3-.3 4.7-1.4 7-.8l3.4.7 5.3-.3q5.2-.2 10.4-.2 4.8.1 9.5.4 8.3.2 16.6-.6l2.6-.4q2.2.4 4.3 1c4.2 0 8.3 1.5 12.2 3 7.9.9 15.7-.7 23.5-2.1" class="b"/><path d="M8.6 182.3q7.5.8 14.8 2 3.5.6 7 .8l2.6-.7q9-2.1 18.2-1.5 1.8-.2 3.5-.6l4.4-1c1.4-.3 3 .4 4.3.6l7 1.4c5.5.8 11-.6 16.5-1.5l3.5-.6c2.3 0 4.6 1 7 1q7.3-.7 14.7-.5c7.6 0 15 1.2 22.6 1.3 5.6.2 11-.8 16.5-1.8a89 89 0 0 0 32.2 1.2" class="b"/><path d="M8.6 180.8c6.1.6 12.2 1.8 18.3 2.5q4.3-1.4 8.7-2 7.3-1 14.8-.5l6-1.4c1.4-.2 3-.7 4.4-.3 11 2.6 14.4 1.7 25.2 0 1.7-.4 3.5.2 5.2.4s3.5.8 5.3.4q9-.7 18.2-.4 6.6.2 13 1.2c5.5.5 11 1.5 16.6 1.2 5-.5 9.8-2.2 14.7-2.8q1.8-.3 3.5 0 3.5.1 7 .5 7 .3 13.9.1" class="b"/><path d="m8.6 179.7 13 2c1 .2 1.9-.4 2.7-.6q1.7-.6 3.5-1a63 63 0 0 1 21.7-1.4q4.7-1.2 9.6-2 1.6-.1 3.4.4 3 .5 6.1.8c3.5.3 7-.2 10.5-.7 2-.2 4-.8 6-.5l5.3.8a9 9 0 0 0 3.4.2q13.5-1.1 27-.4a173 173 0 0 1 17.4 2.6c10.2 2.2 12.2.4 21.7-1.5a81 81 0 0 1 23.5-1.5" class="b"/><path d="M8.6 178.6c3.5.4 7 1.6 10.5 1.2a70.7 70.7 0 0 1 29.6-3.1c3.7-.8 7.4-1.9 11.2-2.4 4 .5 8.1 1.3 12.2.9l7.8-.9q2.2.1 4.4.5l6 1 10.5-.9c10.4-.3 21-1 31.3.8q3.5.6 7 1.4 2.2 0 4.3.5 2.2.4 4.3 1.3c.8.3 1.8 1 2.7 1 4.7 0 9.3-1.8 13.9-2.6q9.5-2 19-3" class="b"/><path d="M8.6 177.4c1.7.3 3.6.1 5.3.2q2.2.2 4.3-.5 6.8-2.2 14-2.7 8.2-.7 16.4.3 6-1.7 12.2-2.7c3.2.3 6.4.8 9.6.6 3.1-.1 6.4-1 9.5-.3l5.2.8q2.2.6 4.4.3 10-.9 20-1.3c3.7-.3 7.5 0 11.3 0 3.4.1 7-.3 10.4-.2q4 .3 7.8 1.2 3.5 0 7 .3 6.3 1.1 12.2 4c1.4.4 3-.1 4.3-.4l6.1-1.5q7.3-1.8 14.8-3" class="b"/><path d="M8.6 175.2h7q4.3-1.5 8.7-2.2a74 74 0 0 1 22.6-.4c2 .5 4-.8 6-1.1q4.4-1.2 8.8-1.8c2-.2 4 .3 6 .2 2.3.1 4.7-.4 7-.2q3.5.3 7 1c1.6.2 3.5.8 5.2.6l21.7-1.7q8.2.8 16.5 1.4 2.6.2 5.2.1l4.4-.6q3.5-.3 7-.8c.7-.2 1.8 0 2.5.2h3.5c6 .5 11.7 2.3 17.4 3.8 2 0 4.1-.8 6.1-1.1q6-1.3 12.2-2.4" class="b"/><path d="m8.6 173 6.1-.1q4.3-1.4 8.7-2a75 75 0 0 1 24.3 0q1.4-.2 2.7-.6 2-.8 4.3-1.3 6.8-1.9 14-1.7c4.9 0 9.8 1 14.7 1.9q10.9-.7 21.7-1.8 2.2-.2 4.4.2l7.8 1.3q2.6.6 5.2 1l3.5-.6a129 129 0 0 1 24.3-2c4.1 0 8.2.9 12.2 1.7 1.4.4 3 0 4.4 0q3.8-.2 7.8-.7l5.2-.8q1.7-.3 3.5 0" class="b"/><path d="M8.6 170.6h6.1a70 70 0 0 1 30.4-2c1.1.1 2.4.6 3.5.4l6.1-2q6.8-2 14-1.8c4.3.1 8.6 1 13 1.7 7.5-.6 15-.8 22.6-2q5.3.4 10.4 2c1.4.3 3 1 4.3 1.2l2.6-.5q8.2-1.4 16.6-2 10.5-1.4 20.8 0 1.8.4 3.5.2h5.2q7.8.2 15.7 1.3" class="b"/><path d="M8.6 168.3h7a79 79 0 0 1 25.2-2.2c2.6.2 5.2 1 7.8 1.2a47 47 0 0 1 30.4-2.7l5.3-.3a168 168 0 0 0 19-1.7q7 .6 13.1 3.5 10.9-1.9 21.7-2.5c7.3-.6 14.6-1.1 21.8-.2q6.7.6 13 2.5c2 .6 4 1.8 6.1 2.4h4.4" class="b"/><path d="M8.6 166h8.7q4.4-1.1 8.7-1.6c7.5-.9 15.3-.8 22.6 1.4a42 42 0 0 1 27-3.8c1.6.5 3.5.1 5.2 0l7.8-.3q6.6-.3 13-1.3 1.8-.3 3.5.2l4.4 1.1c6.8 2.4 3 2.3 10.4 1.4q7-.7 14-1 2.5-.3 5.1-.7 3.5-.4 7-.2a78 78 0 0 1 19.1.7q6.4 1 12.2 4h6" class="b"/><path d="M8.6 163.6H20q3-.7 6.1-1.1 10.6-1.4 20.9 1.1h3.5l3.4-1.5q4.3-1.7 8.7-2.4 6.1-.8 12.2.3 3-.2 6-.4c5.3-.3 10.6-.3 15.7-1l5.3-.7q6 .7 11.3 3.6 7.7-1.1 15.6-1.2 6.8-2.4 14-2.7c5.4-.4 11 .7 16.4.8 8.2.6 16.4.9 24.4 3" class="b"/><path d="M8.6 161.3h14a62 62 0 0 1 20.8-.1q3 .1 6 0 1.9.2 3.6 0a41 41 0 0 1 10.4-3.5c3.1-.5 6.4 0 9.6 0q6-.8 12.1-.8l10.5-.6c2.7-.2 5.2-1.1 7.8-.3q4.1.8 7.8 2.8c1.3.5 3-.2 4.3-.2l7-.4h3.5q2-1 4.3-1.7 5.2-1.4 10.5-1.7c6.6-.5 13.3-.2 20 .1 7.5.4 15.2.8 22.6 2.7" class="b"/><path d="M8.6 159H26q4-.4 7.8-.5 3 0 6.1.5h14.8q3.4-1.6 7-2.6 3.4-.9 7-.8a96 96 0 0 1 17.3-1.3q4.8 0 9.6-.5c2.3 0 4.7-.9 7-.2q4 .8 7.8 2.8c1.3.4 2.9-.2 4.3-.3a65 65 0 0 1 9.6-.3l3.4-1.4q4.3-1.4 8.7-1.7 12.7-1.2 25.2-.5c7.3.3 14.7.8 21.8 2.7" class="b"/><path d="M8.6 156.6q11.8.2 23.5-.2 11.2.4 22.6.2h2.6a62 62 0 0 1 7.8-3.1 73 73 0 0 1 17.4-1.8q5.7 0 11.3-.2c2.6 0 5.3-.9 7.9-.2q3 .6 6 1.8c1.1.4 2.3 1.4 3.5 1q4-.7 7.8-.8h4.4q4.1-2 8.7-2.6 6.5-.6 13-.8c12.8-.6 25.9 0 38.3 3.4" class="b"/><path d="M8.6 154.3h14.8q6-1 12.2-.9c2.3 0 4.6.7 7 1h12.1l1.7-1q6.4-2.8 13-3.7c6.1-.8 12.2-.6 18.3-.6q5.2.1 10.5-.5a28 28 0 0 1 11.3 3.3 50 50 0 0 1 13-1q3.7-1.7 7.8-2.4c4.9-.7 9.9-.5 14.8-.6a115 115 0 0 1 38.3 4.3" class="b"/><path d="M8.6 152H20a56 56 0 0 1 23.5-.5q2.6.7 5.2.5c1.4 0 3.1.3 4.4-.5q6.2-3 13-4.2 4.7-.7 9.6-1 7 .2 13.9.2c3.4 0 7-.4 10.4.2q3.1.4 6.1 1.5c1.5.4 2.7 1.7 4.4 1.1q3-.6 6-.8 3-.1 6.1-.1 5.4-2.6 11.3-2.7 6.1 0 12.2.2a95 95 0 0 1 34 4.5c1 .3 2.2 1.2 3.4.9" class="b"/><path d="M8.6 149.7h7L26 148q9.2-1.2 18.3.7c1.4.2 2.9 1 4.3.8q3.5-1.5 7-2.6 6-2.2 12.1-3c1.4-.1 3 .4 4.4.4h7.8c8.9 0 20.8-1.7 28.7 2.9 4.3-.8 8.7-1.7 13-1.4 1.2 0 2.4-.9 3.5-1.2q3-.9 6.1-1.3c4.3-.4 8.7.1 13 .3 3.5.3 7 0 10.5.3q8.4.7 16.5 3c2.3.6 4.6 1.8 7 2.3q2.5 0 5.2-.3" class="b"/><path d="M8.6 146.6c6.4.5 12.8-.9 19.2-1.4q9.2-.8 18.2 1.2c.8.3 1.8-.2 2.6-.5l4.4-1.4q6-2 12.1-3c2.9.6 5.8 1.4 8.7 1.5 7.6.2 15.1-1 22.6-.8 4.2.3 8.6.7 12.2 3 2-.2 4-1 6.1-1.3q3.9-.6 7.8-.4 4.1-2 8.7-2.5c4.4-.4 8.7.2 13 .6 3.2.2 6.5 0 9.6.4q10 1 19.1 5c3.5-.4 7 0 10.5-.2" class="b"/><path d="M8.6 143.3c8.5.9 16.8-1.3 25.2-1q5.3.1 10.5 1 1.3.1 2.6-.4l13.9-3.5c.8-.1 1.8-.4 2.6-.1l4.4 1.1q4.2 1.4 8.6 1.3c3.5.1 7-.5 10.5-.8q7-.9 13.9-.3 3.2.3 6 1.4c2.8 1.4 2.4 1.2 5.3.4a39 39 0 0 1 10.4-1.4c2-.7 4-1.7 6.1-2a28 28 0 0 1 7-.6q5.2.4 10.4 1c4 .2 8.2.3 12.2 1.3q3.5.9 7 2.1 2 1 4.3 1.7c4.6-.6 9.2.3 13.9.1" class="b"/><path d="M8.6 140.2c7.9.7 15.7-.4 23.5-.4q5.3 0 10.4.7l14.8-3.1c1.1-.2 2.4-.7 3.5-.5q4 .9 7.8 2.2a26 26 0 0 0 11.3 1.5c7-.9 13.8-2.7 20.9-2q3 .2 6 1.2 1.5.6 2.7 1.3c.4 0 1.3 0 1.7-.2q3-1 6.1-1.6t6-.7q4.5-2.3 9.7-2.6c4.3-.2 8.7.5 13 1q4.4.1 8.7 1 6.3 1.1 12.1 4.1c5.5-.9 11 .5 16.6.4" class="b"/><path d="M8.6 137.1c7.3.7 14.5.3 21.8.2q3 0 6 .2 2.7.4 5.3 0l12.1-2.2 4.4-.8q3 .5 6 1.5c5.8 1.6 11.3 5.4 17.5 3.8q4.7-1.2 9.5-2.3 6.6-1.4 13-.5 2.3.3 4.4 1.3 1.3.8 2.6 1.1c4-1.4 8-2.7 12.2-3 2.8-1.2 5.7-2.5 8.7-2.7q6.5-.4 13 .6 4 .4 7.9 1 6.4 1.1 12.1 4.2c1 .4 2.4 0 3.5 0q1.7-.2 3.5 0c3.7.1 7.5.9 11.3.8" class="b"/><path d="M8.6 134.3q9.6.7 19.2.5l7 .2 5.1-.5q7.9-.8 15.7-2 1.7-.3 3.5.2a50 50 0 0 1 12.1 4.5c1.5 1.2 3.5.8 5.3.9h10.4q3-1.5 6-2.2c6.3-1.5 13.7-2 19.2 2 1.5-.2 3-1 4.4-1.5q3.4-1.4 7-2c1-.2 2.3-1 3.4-1.5q3-1.2 6-1.6 7-.4 14 .6a43 43 0 0 1 18.2 5.5c6.1-1.3 12.2.8 18.3.7" class="b"/><path d="M8.6 131.7q15.7 1.1 31.3-.2l11.3-1c2.3-.1 4.7-.8 7 0q6 1 11.3 4 2.7.3 5.2 1.2h15.7c.4 0 1.3-.2 1.7-.4a26 26 0 0 1 12.2-2.3 18 18 0 0 1 8.7 2.7h3.4q3.4-1.8 7-2.9 4.5-2.6 9.5-3.8c5-.6 10-.1 14.8.4q5.3.5 10.5 2.3c2.4.8 4.6 2.2 6.9 3.3 6-1.3 12.2.7 18.3.7" class="b"/><path d="M8.6 128.9c5.8.2 11.6.5 17.4.1q8.7 0 17.4-.4l7.8-.4c2-.1 4.1-.7 6.1-.1a35 35 0 0 1 10.5 3.4c1 0 2.4 0 3.4.2 1.8.3 3.5 1.3 5.3 1.7h17.3c1.2 0 2.4-.9 3.5-1.1q3-1 6.1-1.1 5.1-.2 9.6 2.1 3 .1 6 .1c2.5.3 4.3-2 6.2-3.1q3.5-2.2 7.8-3.3c4.2-1 8.7-.6 13-.3a41 41 0 0 1 19.1 5.8c6-1.4 12.2.7 18.3.5" class="b"/><path d="M8.6 125.9q8.2.5 16.6.2h20a107 107 0 0 0 10.4-.6 57 57 0 0 1 7.8 1.7c1.1.3 2.3 1 3.5 1.2a16 16 0 0 1 9.5 2.4c1.2.6 2.5.1 3.5-.3 2-.5 4.2 0 6.1.6h11.3c2.6-.8 5-1.8 7.8-1.7q2.7 0 5.3.6c1 .3 2.3 1 3.4 1 2.9 0 5.9.3 8.7 0 3.5-3.6 8.3-5.5 13-6.5q4.5-.6 8.8-.3c7.2.3 14.7 1.8 20.8 5.7 6-1.3 12.2.6 18.3 0" class="b"/><path d="M8.6 123.1q7.9.4 15.7.1 11.7.4 23.5.5 4.3 0 8.6-.6 4.6.5 8.7 2.3c5.1-.2 7.8.3 12.2 3 3.5-3 8.7-2.1 12.2.4h10.4c5.7-1.3 11.8-2.5 17.4-.2 1.7.3 3.5.1 5.2.2 1 0 1.8-1.2 2.6-1.7a30 30 0 0 1 20-5.1c7 .2 14 1.6 20 5.3 1.7 0 3.5-.7 5.2-.6 4.4 0 8.8.7 13 0" class="b"/><path d="m8.6 121.1 19.2-.3c6.3 0 12.7.6 19 .7q5.3 0 10.5-.7 3.6.4 7 1.6c2.9 0 6-.1 8.7.9 1.5.4 2.8 1.6 4.3 2 4.3-3.8 10.7-2.3 14.8 1q3 .3 6 0a32 32 0 0 1 5.3-1.7c6.7-1.7 14-1.8 20 1.8 2.3-1.3 4.4-3.1 7-4q7.6-3.2 15.6-2.6c6.6.3 13.4 1.6 19.2 5 2-.3 4-1 6-1 4 0 8.2.4 12.2-.2" class="b"/><path d="m8.6 119 11.3-.2 12.2-.3q7.8.5 15.7.8 5.2 0 10.4-.9c1.7.2 3.5.9 5.2 1 3.2 0 6.5 0 9.6 1l2.6 1.3c.3.3 1.2.7 1.7.6 5.5-4.6 12.2-2 17.4 1.8h1.7a36 36 0 0 1 7-2.7c7-1.7 15.1-2.5 21.7 1.2q1 0 1.8-.6l3.4-1.7q4.7-1.6 9.6-2.4a44 44 0 0 1 14 .7q5.8 1.1 11.2 3.7c5.9-2.1 12.2-.9 18.3-2" class="b"/><path d="M8.6 116.5q11.4.2 22.6-.3 8.2.6 16.6.9 5.2 0 10.4-1c1.4 0 2.9.7 4.3.5 4.8-.2 10 0 14 2.9h.8c3.5-3.3 8.9-3.2 13-1.5l3.5 1.8c.8.4 1.7 1.3 2.6 1.4 7.6-4.3 20.5-6 28.7-3 .8.3 1.8 1 2.6 1l4.4-1.7a45 45 0 0 1 19.1-1.3q6.9.9 13 3.8c6.1-2.5 12.9-1.7 19.2-2.8" class="b"/><path d="M8.6 113.8q6.1.2 12.2.2 4-.1 7.8 0c6.1.2 12.2.8 18.3.9q3.5-.2 7-.6 4.2-.6 8.6-.4c4.8-.2 10 0 14 3 1.1-.4 2.2-1.6 3.4-2 3.3-1.5 7.1-1.1 10.4 0q2.3.8 4.4 1.9c.7.4 1.7 1.1 2.6 1a37 37 0 0 1 17.4-3.8h4.3q1.8-.2 3.5 0a25 25 0 0 1 6.1 1.9q1 0 1.7-.4a51 51 0 0 1 29.6.9c1.1.3 2.3 1 3.5 1.1 6.3-2.7 13.3-2 20-3.3" class="b"/><path d="M8.6 112.1c11.6-1.3 23.2.2 34.8.4l7.8-1 4.4.3 2.6-.3c1.4.1 3 .6 4.3.5 6.8 0 7.6-1.7 14 2.4 5.1-5.2 13.2-3.3 19-.5l1.8.8c1.2 0 2.4-.8 3.5-1.2q3.3-1.2 7-1.8c2-.4 4 .4 6 .5q4.5.4 8.7-.2c1.5-.2 3-.7 4.4-.1l2.6.9 2.6-.3c10-1.6 20.3-1 29.6 3 4.6-2.2 9.7-2.9 14.7-3.3q2.2-.1 4.4-.4 1.3-.4 2.6-.1" class="b"/><path d="M8.6 111c8.6-1.6 17.4-1 26.1-.9 3.2.2 6.4-.6 9.6-.8q2.2-.1 4.3.2l4.4.4 4.3-.7q2.3.1 4.4.9l2.6-.1q3-.1 6-.7c2 .1 3.8 1.2 5.3 2.2q1-.1 1.7-.8 1.6-1.2 3.5-1.8c5.6-1.6 11.4.3 16.5 2.4 1.4 1 3-.3 4.4-.7l5.2-1.4c4.3.6 8.7 1.6 13 1.3q3.6-.3 7-1.2 1.3 0 2.6.5 1.3.2 2.6 0a56 56 0 0 1 27.8 3.6q6.7-3.1 14-3.7l5.2-.5 4.3.7" class="b"/><path d="M8.6 109.4q2.6-.2 5.3-.3 4.8-.6 9.5-.8l14-1.5q4.2.4 8.6 1c1.7.1 3.5.4 5.2 0 2.3-.1 4.7-.7 7-1l3.5.9c.7.2 1.8.6 2.6.4q3.5-.1 7-1.2c1.5.2 3 1.2 4.3 2q1-.2 1.7-.9l2.6-1.4a24 24 0 0 1 14.8.4q2.6.7 5.2 1.7c.9 0 1.8-.5 2.6-.7 1.7-.4 3.5-1.3 5.3-1q5.1 1.2 10.4 1.3 4.9-.2 9.5-1.5c1.4.5 3 .3 4.4.3h6a50 50 0 0 1 19.2 4q1.4 0 2.6-.7a54 54 0 0 1 14.8-3.5q4.4.3 8.7 1.3" class="b"/><path d="M8.6 106.2q4.8-1 9.6-1l8.7-.7q9.5.9 19.1 1.9 6.6-.4 13-1.9 1.9.3 3.5.9 1.3.6 2.6.9l4.4-.7c1.1-.2 2.3-1.2 3.5-.8 1.1.4 2.2 1.6 3.4 1.6 6.6-5.9 16.8-3 24.4-1 .8.1 1.8.5 2.6.4 1.7-.5 3.5-1.2 5.2-1.2 3.1.5 6.4 1.4 9.6.8q8.2-1.3 16.5-.8c7.2.2 14.4 1.3 20.9 4.5 4-1.5 8-3.1 12.1-4 1.7-.2 3.6-.7 5.3-.4l6 1c1.4.1 3 .9 4.4.3" class="b"/><path d="M8.6 103.3q3.5-.9 7-1.1 3.5.2 7 .7l15.6 1.6c6.7 1 13.5-.3 20-1.8l2.6-.6q1.8.5 3.5 1.2c1 .4 2.3 1.3 3.5.9l3.4-1c.8-.3 1.8-.9 2.7-.8l2.6 1.6c.9-.2 1.8-1.2 2.6-1.6q2-1.2 4.3-1.7c6.4-1.1 12.9.3 19.1 1.4q2.6.6 5.3.7l2.6-.5c1.7-.4 3.5.3 5.2.2a96 96 0 0 1 16.5-.4c7.2.3 14.5 1.3 20.9 4.7 1.5 0 3-.9 4.3-1.3a74 74 0 0 1 12.2-3.3l3.5.6 6 1.1q2.3-.3 4.4-1" class="b"/><path d="m8.6 100.7 3.5-.8q3.5.8 7 1.2l17.4 2.2 5.2.5q3.9-.3 7.8-1 6.2-1 12.2-2.8 1.3-.3 2.6.4 2.2.8 4.3 2c2.1-.4 4.2-1.6 6.1-2.5q1.4.7 2.6 1.6c1-.1 1.8-1 2.6-1.5q2.5-1.5 5.3-1.9c4.6-.8 9.3-.2 13.9.3 3.7.3 7.5 1.1 11.3 1.1 9.5-.1 19.2-.5 28.6 1.2a42 42 0 0 1 10.5 3.4q1.2.9 2.6.3c5.1-1.7 10.3-3.7 15.6-4.6l5.3 1q1.6.6 3.4.6l7-1.5" class="b"/><path d="M8.6 98.3q1.3-.4 2.6-.7l1.8.5a180 180 0 0 0 27.8 4.8q4.4-.4 8.7-1.3 5.7-1.3 11.3-3c1.4-.3 3-1 4.4-1 1.7.6 3.7 1.4 5.2 2.6 2.2-.1 3.9-2.3 6-2.5.8.4 1.8 1.2 2.7 1.4 6.7-6.1 17.7-3.2 26-3 7.2.8 14.6.5 21.8 1.1q7.6.4 14.8 2.6 2.2.8 4.3 1.8c.8.3 1.7 1 2.6 1l5.2-1.7c4-1.3 8-2.7 12.2-3.4q3 .6 6.1 1.3 1.3.2 2.6-.2l4.4-.8c1.4-.4 3 0 4.3.3" class="b"/><path d="M8.6 96q1.3-.4 2.6-.7A330 330 0 0 0 27 99.8c2.3.6 4.6 1.3 7 1h9.5c2.6 0 5.3.3 7.8-.7q5.7-1.6 11.3-3.4l3.5-1c.4-.3 1.3-.4 1.8-.3q2.4.8 4.3 2.5 1 .1 1.7-.5l3.5-2c1-.2 1.9.7 2.6 1.2h.9c5-4.3 12.1-3.8 18.3-3.6q6 .3 12.1.8c11.5 1.1 23.8.6 34 6.9 1.7 0 3.5-1 5.2-1.5l7.8-2.5 4.3-1.1q1.8-.6 3.5-.2l3.5.8c2.3 0 4.7-.7 7-1 2.3 0 4.6.8 6.9 1.3" class="b"/><path d="m8.6 94 2.6-1c2.1.3 4.1 1.3 6.1 2l10.5 3.6h23.4q1.8.1 3.5-.5l13-4.4c2-.9 2.6-.8 4.4.4.8.5 1.6 1.5 2.6 1.7l3.5-2.2q.8-.5 1.7-.5c.8.5 1.7 1.3 2.6 1.4 6.3-5.6 18.2-3.7 26.1-3.4 9 1 18.3 1.4 27 4.4q3.1 1.2 6 3 2.3.3 4.4-.7a173 173 0 0 1 14-4.3l3.4-.7 3.5.8c2 0 4-.6 6-.7q5.3.9 10.5 2.2" class="b"/><path d="M8.6 92q1.7-.8 3.5-1.4 5.3 1.9 10.4 4c1.7.4 3.5 1.6 5.3 1.6H52c2 0 4.1.3 6-.1q7-2.8 14-5.4c1.7.4 3.1 1.8 4.4 3q2.4-1.8 5.2-3l2.6 1.5q1-.1 1.7-.7 1.6-1.1 3.5-1.8c5-1.7 10.4-1.3 15.6-1q7 .3 14 1.5 7.1 1 13.9 3.5c1.7.6 3.4 1.9 5.2 2.5h4.3l4.4-1.8a82 82 0 0 1 14.8-4l2.6.6c1.7.4 3.5-.6 5.2-.3q7 1 14 2.9" class="b"/><path d="M8.6 90q2.2-1 4.4-1.7c5 1.5 9.8 3.7 14.8 5.6H59q1.2 0 2.6-.2c4.2-2 8.7-3.5 13-5.4q1.4.6 2.6 1.7.8.8 1.8 1c1.6-.9 3.3-2.3 5.2-2.6l3.5 2c5.6-4.4 13.2-3.8 20-3.5 9 .7 18.2 2.3 26 7h6.1c3.8-1.2 7.5-2.8 11.3-3.8l6.1-1.4 2.6-.5 2.6.5q1.4 0 2.7-.4c2 .1 4 .7 6 1q6.2 1.3 12.2 2.8" class="b"/><path d="M8.6 87.9q2.6-1.2 5.3-2c5.3 1.5 10.3 3.8 15.6 5.4 5.5.5 11 .2 16.5.3h17.4q4.3-1.8 8.7-3.4 2.7-1.1 5.2-2.2 1.9 1 3.5 2.2l.9.1c1.6-.8 3.4-1.9 5.2-2.3l4.3 2.2c1.5-.2 2.9-1.4 4.4-1.7q4.7-1.2 9.5-1a55 55 0 0 1 24.4 6q2.2.2 4.3 0h4.4a74 74 0 0 1 13-4.2c2.3-.5 4.7-1.4 7-1.4q1.3.3 2.6.3a7 7 0 0 1 3.5 0q5.6 1 11.3 2.4c2.6.6 5.2 1.6 7.8 1.8" class="b"/><path d="m8.6 85.3 3.5-1.3c.8-.2 1.8-.6 2.6-.3L26 87.4l6.1 1.8q2.2.1 4.4 0H53q6 .1 12.2-.2c1.7-.1 3.5-1.2 5.2-1.7q4.9-1.5 9.5-3.7c1.6.5 3 1.8 4.4 2.2l3.5-1.5c.8-.2 1.7-.8 2.6-.4l6 2.6c1 .1 1.9-.5 2.7-.7q1.6-.5 3.5-.7c8-1 16.2.6 23.4 4.2h8.7q3-1.1 6.1-2a166 166 0 0 1 14-3.7c1-.2 2.3.3 3.4.4q1.3-.3 2.6-.3 7 1.4 14 3.2 4.2.6 8.6.3" class="b"/><path d="m8.6 82.5 4.4-1.2c2 .1 4 1 6 1.5q6.5 2 13.1 3.7 2.2.6 4.4.4h6c4.4 0 8.8.3 13-.2a123 123 0 0 1 14-1q1.8-.3 3.5-.8 4-1 7.8-2.7c.7-.3 1.8-.9 2.6-.8q1.9.6 3.5 1.7l6-1.8c4.2 1 8.2 2.7 12.2 4a31 31 0 0 1 15.7 1.5q1.7.2 3.5.1c2 0 4.1.3 6-.3l11.4-3q5.6-1.3 11.3-2.4 1.6.3 3.5.6l1.7-.4c1.7-.2 3.5.6 5.2.9 2.6.5 5.2 1.5 7.8 2q6.1.5 12.2-.4" class="b"/><path d="M8.6 79.7q1.8-.6 3.5-.8l6.1 1.6q7 1.9 14 3.5c2.7.8 5.7.6 8.6.6q4.8.2 9.6-.2 7.3-1 14.7-1.7 3-.2 6.1-.2 2.2.2 4.4-.1 4.5-1 8.7-2.6c2.9-1.4 3.3-.6 6 .6q3-.6 6.2-1.4c2.3.2 4.6 1 6.9 1.4a71 71 0 0 0 19.1 3c9.7-.3 19.2-3 28.7-4.5l3.5.8q1.8-.3 3.5-.7 3.5.8 7 1.9c1.3.3 2.8 1.1 4.3 1.1 4.6.2 9.3-.7 13.9-1.4" class="b"/><path d="M8.6 76.7c1.4-.3 3 .3 4.4.6l6 1.5c6 1.4 12.1 3.2 18.3 3.5 3.2 0 6.5.2 9.6-.2 7.8-1 15.6-2.7 23.5-2.7l9.5.2a116 116 0 0 0 11.3-3q1.8.5 3.5 1 3-.6 6-1l4.4.7a100 100 0 0 0 20 2.2c6.8 0 13.4-1 20-2.2q2.2-.5 4.4-.6 2.2.3 4.3.9c1.5 0 3-.8 4.4-.9l1.7.5 7.8 2.7c5.4 0 10.5-1.7 15.7-2.5" class="b"/><path d="M8.6 74.7c11.3 2 22.4 6.1 34 5.1 7.5-.6 15-2.4 22.5-3 7-.8 14-.2 20.9-.6 3.2 0 6.4-1 9.6-1.8q1.3 0 2.6.3c1 .1 2.4-.2 3.4-.3 2-.1 4.2.4 6.1.5q6.6.8 13 1.3 10.5.6 21-1c2.5-.2 5.2-1.2 7.8-.5q2.2.3 4.3 1l4.4-1.4q4.5 1.6 8.6 3.7c5.7-.4 11-3.2 16.6-3.7" class="b"/><path d="M8.6 73q10.8 2.3 21.8 3 12 .3 24.3-.5 7-1.3 14-1.8 10-.4 20-.7l7.7-.7q2.7-.3 5.3-.2 13.4 1.6 26.9 1.7 8.2-.3 16.5-1.6 1.8-.3 3.5.2 2.7.5 5.2 1.2c1.5-.2 3-1.2 4.4-1.6q3 1.2 6 2.8c.8.4 1.8 1.1 2.7 1.2 4.1-.8 8-3 12.1-4 1.5-.1 3 .6 4.4.8" class="b"/><path d="M8.6 69.9a224 224 0 0 0 28.7 2.3l21.8-.2c2.8-.1 5.8-.8 8.6-1q7.8-.5 15.7-.8c3.7 0 7.5-.8 11.3-.4l7 .5c1.3-.1 2.9-.8 4.3-.5q3 .4 6 1.3l7.9.5q9.6.1 19.1-1l7-.9 5.2 1c1.1.2 2.4.8 3.5.9q1.6-1 3.5-1.8c1.2 0 2.4 1 3.4 1.5q2.3 1.2 4.4 2.8c1.5-.1 3-1 4.3-1.6q3.4-1.7 7-2.9 3 1.1 6 1.8" class="b"/><path d="m8.6 67.7 5.3-.4 5.2.5 13.9.8c9.8.5 19.7 0 29.5.2q4-.2 7.9-.6l12.1-.8c5.2 0 10.5.6 15.7.9 2.9.4 5.8-.6 8.7-1 1.4-.2 3 .5 4.3.7 2.3.4 4.7 1.4 7 1.8q9.6.2 19.1-1.3l8.7-1.2c3 .5 6 1 8.7 2.3 1.3-.7 2.7-2 4.3-2q3.7 2 7 4.7c3.3-1.5 6.2-3.7 9.6-5 2.5 1 5.1 2.3 7.8 2.9" class="b"/><path d="M8.6 66.3q8.2-.8 16.6-1.3c4.6 0 9.2.5 13.9.5q9.5.1 19 .1 5.7.2 11.4.2l10.4-.8q7.8.8 15.7 1.1 6.5-.2 13-1 6.3.7 12.2 2.9 8.7-.2 17.4-1.6L146 65q4.6.7 8.7 2.5c1.5-.6 2.7-2 4.3-2.3q2.3 1.3 4.4 3c.8.6 1.6 1.7 2.6 2 11.8-7.9 5.5-4.8 17.4-1.2" class="b"/><path d="M8.6 65q30.8-3.1 61.8-2c2.5.2 5.2-.2 7.8-.3q3.5.1 7 .5 7.3.2 14.7 0c3.2-.1 6.4-.7 9.6-.2a57 57 0 0 1 13 3h2.6q7.5-.7 14.8-2l6-1.2q4.7.4 8.8 2.6c.5 0 1.4-.6 1.7-1a11 11 0 0 1 2.6-1.6 25 25 0 0 1 6.1 5.2h.9c2.2-1.8 4.4-3.8 7-5.2 1.2.2 2.4 1.2 3.4 1.8 2.2 1.4 4.5 2.9 7 3.3" class="b"/><path d="M8.6 64c10.2-.9 20.3-2 30.5-2.5q29.6-1.5 59-1c6.2 0 12.3.1 18.3 1.2q3.7.7 7 2c1.3.5 3 0 4.3-.1q6.7-.6 13-2l6.2-1.2q4.2.6 7.8 2.8h.9c1-1 2.2-2.2 3.4-2.8q3.4 2.4 6.1 5.6c1-.2 1.9-1.4 2.6-2q2-2 4.4-3.5c2 .6 3.5 2.3 5.2 3.4 1.3 1 2.7 2.3 4.4 2.1l1.7-1.3" class="b"/><path d="M8.6 63.2c7.9-.5 15.7-1.7 23.5-2.5a483 483 0 0 1 26-1.7q8.8-.2 17.5-.6l7-.4 7.7.4c7.6.6 15.1 0 22.6.7q4 .3 7.9 1.4l3.4 1.1h2.6q6.7-.7 13-2l7-1.6q4.4.5 7.9 3h.8c1-1 2.2-2.3 3.5-2.8q1.9 1.4 3.5 3c.8.7 1.5 2.2 2.6 2.5 1-.4 1.9-1.7 2.6-2.4q1.6-1.6 3.5-3c1 0 1.9 1 2.6 1.5l4.4 3.9h2.6q1.1-1.2 2.6-2.3" class="b"/><path d="M8.6 61.4h14q9.5-1.9 19-2.9 11.8-1.3 23.5-1.7 8.7-.5 17.4-.8c5.2 0 10.5-.4 15.7-.1q4.3.3 8.7.8 3.8 0 7.8.4t7.8 1.6c1.6.5 3.5.3 5.2.3q3.1 0 6.1-.7 3.5-.3 7-1.2l4.3-1q1.4-.4 2.6-.4 4 .6 7 3.2l.9-.1c1-1 2-2.5 3.5-2.9q3 2.4 5.2 5.5h.8c1.8-1.7 3.3-3.9 5.3-5.3h.8q3 2.4 5.3 5.2c1 .2 2.4.2 3.4 0a16 16 0 0 1 3.5-3.1" class="b"/><path d="M8.6 59q11.7.2 23.5 0c13.4-3 27.2-4 40.9-4.7q10.8-.4 21.7-.3l6-.3q2.3-.3 4.4-.1 6 1 12.2 1.7a49 49 0 0 0 17.4.5q3-.2 6-1l6.2-1.5c2.8.2 5.8 1.5 7.8 3.6 1.3-.7 2.2-2.3 3.5-3.1h.8a20 20 0 0 1 3.5 3.4c.3.6 1.1 1.6 1.7 1.9h1q1.5-2.4 3.4-4.4c.4-.4 1.2-1 1.7-1 2 1.4 3.4 3.8 5.3 5.4 1-.1 2.4.1 3.4-.4q1.9-2.2 4.4-3.6" class="b"/><path d="M8.6 56.7h22.6c13-2.4 26-4.2 39.2-4.5 8-.3 16.2 0 24.3 0 4.3 0 8.7-.7 13-1 7 1 13.9 2.5 20.9 2.5q3.5.2 7-.5 3-.1 6-1 2.7-.5 5.3-1.3 4.6.6 7.8 4a19 19 0 0 1 3.5-3.7c2.2 1.1 3.8 3.5 5.2 5.5h.9c.6-.3 1.4-1.3 1.7-1.9 1-1.2 2.1-2.8 3.5-3.6q1.9 1.7 3.5 3.8c1 1.7 1.6 1.8 3.4 1.7 1.6.3 2.5-1.4 3.5-2.3q1.6-1.3 3.5-2.2" class="b"/><path d="M8.6 54c3.2-.2 6.4.2 9.6.4h11.3q17.1-3.7 34.8-4.1 8.7-.4 17.4-.3c5.5 0 11 .5 16.5.2q5.7-.5 11.3-1.4c5.5.8 11 2 16.5 2.2 2.6 0 5.3.3 7.8 0q3-.3 6.1-.7c2.3-.4 4.6-1.3 7-1.6 2.5.6 5.2 1.6 7 3.7 1.6-.5 2.3-3.1 4.3-3.4q2 1.6 3.4 3.5c.4.6 1.1 1.7 1.8 1.9h.9q1.8-3.1 4.3-5.6c1.8 1.3 3.2 3.5 4.4 5.4q1.6.4 3.4.2c1-.5 1.8-1.7 2.6-2.4q2-1.6 4.4-2.6" class="b"/><path d="M8.6 50.1a56 56 0 0 1 18.3 2q17.1-3.9 34.8-4c4.6.1 9.2-.7 13.9-.6 6.6.1 13.3.6 20 .4l7.8-.3c2.6-.3 5.2-1 7.8-1q6.5 1 13 1.6 4 .4 7.9.4 3.5-.2 7-.6 3.5-.8 6.9-1.7c2.5.7 5.2 1.6 7 3.7l.8.1q1.5-2 3.5-3.6c2.1 1.4 3.7 3.7 5.2 5.6h.9c1.6-1.5 2.7-3.9 4.3-5.4 2.1.7 3.3 3.5 4.4 5.3q1.7.1 3.5.1c.8-.6 1.7-1.8 2.6-2.5q2.3-1.9 5.2-2.8" class="b"/><path d="M8.6 46.6A62 62 0 0 1 27 48.2q1.7.8 3.5.3 10.2-2.2 20.8-2.5h11.3l7-.8c5.2-.5 10.4-.2 15.6 0q6.7.2 13 0 4 0 7.9-.2 3-.6 6-.8 7 1.1 14 1.5 6.6.7 13-.3c2-.2 4.1-1 6.1-1.3 2.6.7 5.2 1.7 7 3.7h.8q1.6-2 3.5-3.5c2.3 1 4 3.4 5.2 5.4q1 .1 1.8-.3a26 26 0 0 1 3.5-4.9h.8q2.1 2.4 3.5 5.3h3.5c2.3-2.6 5.2-4.8 8.7-5.6" class="b"/><path d="M8.6 43.4a66 66 0 0 1 21.8 2.2 90 90 0 0 1 20.8-2c3.5-.2 7 .4 10.5 0q6.5-1 13-1.3 6 0 12.2.3c5.8.2 11.6-.2 17.4 0 2.9.2 5.8-.5 8.7-.8q6.5.9 13 1.4 4.8.4 9.6 0 2.6 0 5.2-.7c1-.2 2.3-.8 3.5-.6q3.9 1.1 7 4c1.5-1 2.7-2.8 4.3-3.9 1.8.5 3.1 2.4 4.3 3.8.6 1 1.4 1.9 2.6 1.7a26 26 0 0 1 3.5-5.1l.9-.3c1.4 1.4 2.5 3.6 3.4 5.4h3.5c2.4-2.9 5.8-5.3 9.6-5.7" class="b"/><path d="M8.6 40.7a61 61 0 0 1 22.6 1.7q2.2-.3 4.4-.7 7.7-1 15.6-.7c2.9 0 5.9.6 8.7.4q12.5-2.2 25.2-1.5c6.1.2 12.2 0 18.3.2l4.3.2q3.5-.5 7-.8 8.3 1 16.5 1.4 4.4.2 8.7-.7c1-.2 2.4-.8 3.5-.6q4 1.2 7 4.2c1.4-1.2 2.7-2.9 4.3-4h.9q3 2.3 5.2 5.3h.8c1.6-1.6 2.6-4 4.4-5.6 1.5 1.4 2.6 3.5 3.5 5.3 1 .5 2.4.3 3.5.3a17 17 0 0 1 7-5c1-.3 2.3-.8 3.4-.6" class="b"/><path d="M8.6 38.3a57 57 0 0 1 23.5 1.2l1.7-.3c8-1.4 16.3-1 24.4 0 5.7-.8 11.5-1.8 17.4-2q6 0 12.2.2 10-.1 20 .6c3.4.1 7-1.2 10.4-.6q7.3 1 14.8 1a30 30 0 0 0 9.5-1.2q4 1.2 7 4.1c.6 0 1.4-.8 1.7-1.2q1.6-1.6 3.5-2.9c2.5 1.3 4.1 3.8 6 5.6h1q1.3-2.9 3.4-5.2h.9c1.4 1.5 2.2 3.8 3.5 5.2h2.6q3-3.1 7-4.8c1.3-.4 2.9-1 4.3-.8" class="b"/><path d="M8.6 36.3q5.2-1 10.5-1.5 7 0 13.9 1.7c6.8-1.3 14-1 20.8-.2 2 .2 4.2.9 6.1.2q4.8-.9 9.6-1.3c7-.8 14-.3 20.9-.3 4-.2 8 .2 12.1.3 2.6 0 5.3.5 7.8.5 2.9-.3 5.9-1 8.7-.7q7.5.9 14.8 1.2 4.5-.1 8.7-1.3 2.3.7 4.4 2.2 1.2 1 2.6 2c1.4-1.6 3.2-3.3 5.2-4.2q3.5 2.4 6 5.6c.8-.3 1.5-1.6 1.8-2.2l2.6-3.3c1.6 1.1 2.7 3.4 3.5 5.2q1.2.5 2.6.3c2-1.8 4.3-3.7 7-4.6 1.6-.6 3.4-1.2 5.2-1" class="b"/><path d="M8.6 34.8q5.6-1.6 11.3-2.4c4.4-.1 8.9 0 13 1.3a59 59 0 0 1 24.4.8c1.1 0 2.4-.5 3.5-.6a104 104 0 0 1 22.6-1.3q4.8.2 9.6 0 9.1-.1 18.2.8c2.9-.3 5.8-1 8.7-.7q5.3.7 10.4 1 6.3 1 12.2-1.1 2.4.6 4.4 2.2c.7.6 1.6 1.5 2.6 1.8a17 17 0 0 1 5.2-4q3.4 2.2 6 5.2c.8-.3 1.5-1.4 1.8-2 .7-1 1.7-2.4 2.6-3.2 1.5 1.5 2.7 3.7 3.5 5.6h1.8c3.6-3 8-5.9 13-5.6" class="b"/><path d="M8.6 33.5c1.2.1 2.4-.5 3.5-.9q3-1.1 6.1-1.9 7-1.4 14 0c1 .4 2.3 0 3.4-.1a48 48 0 0 1 18.2.9l3.5.6 4.4-.9q5.2-.7 10.4-1c4-.4 8.1.2 12.2.3l7-.1q4.3.1 8.6-.2c4-.3 8.2.5 12.2.8 2.9-.3 5.8-1.1 8.7-.6 4.9.5 9.8 1.3 14.8 1.4 2.6 0 5.2-1 7.8-1.6 2.3.9 4.2 2.6 6 4.1a27 27 0 0 1 5.3-4.2c2.2 1.1 4.2 3 6 4.6h1c.9-1.5 2-3.3 3.4-4.5q2.2 2.6 3.5 5.6 1 0 1.8-.7l3.4-2.2c3-1.6 6.3-2.8 9.6-2.7" class="b"/><path d="M8.6 29.6c2.6 0 5.3.4 7.9.3q3.7-1.6 7.8-2 3-.3 6 0c1.2 0 2.4.5 3.5.3q6.1-1 12.2-.5 5.3.5 10.4 2c1.5 0 3-.7 4.4-.9l6-.7 7-.3q7 .6 14 .6c3.1-.2 6.4 0 9.5-.2 2.9-.1 5.8-.7 8.7-.4 2.3.1 4.7.8 7 .8 2.5-.2 5.2-1 7.8-.6l7.8 1q3.9.8 7.8.6 2.2 0 4.4-.7c1-.2 2.3-.9 3.4-1a25 25 0 0 1 5.3 3.6l.8-.1q2-1.9 4.4-3.3h.8c2.2 1 4.2 2.7 6.1 4.1 1.2-1.3 2.2-3.1 3.5-4.3 1.4 1.3 2.5 3.5 3.5 5.1 4.6-2.4 9.4-5.3 14.8-5" class="b"/><path d="M8.6 26.3c4.4-.1 8.7.4 13 .4 2-.3 4.1-1 6.2-1 2-.2 4 .3 6 0 3.5-.6 7-.4 10.5-.6 4.1-.2 8.2 1.1 12.2 2.2 4.7-1.5 9.8-1.6 14.7-1.8q7 .6 14 .7 6 .2 12.1-.2l7.8-.8 4.4.5c1.7.3 3.4.8 5.2.3l4.3-.5q1.8.1 3.5.4c5.2.6 10.4 2.1 15.7 1.6 2.4-.2 4.6-1.3 7-2q2.8 1.6 5.2 3.7a33 33 0 0 1 5.2-3.6q2.3 1 4.3 2.4c.8.4 1.7 1.2 2.6 1.2l2.6-3.5c1.7.6 2.2 3 3.5 4.1 4.8-1.8 9.6-4.5 14.8-4.2" class="b"/><path d="M8.6 23.7c5.8-.5 11.6 0 17.4 0q4-.1 7.8-.5 6.6.2 13-.3c3-.2 6 1 8.8 1.7 1.1.3 2.3-.5 3.4-.6q6.6-1.3 13-.6 7 .7 14 .6 7 .5 14-.4c3-.2 6.3-1 9.5-.4 1.4.2 3 .7 4.3.6l3.5-.5c2-.4 4.1.2 6 .5 8.6 1 14.5 3.7 22.7-.7 1.8 1 3.5 2.4 5.2 3.4 1.6-1.2 3.3-2.7 5.2-3.2q3 1.7 6.1 3c1.5-.3 2-2.6 3.5-3 .8 1 1.6 2.6 2.6 3.4 4.8-1.4 9.6-3.9 14.8-3.4" class="b"/><path d="M8.6 21.3q5.7-.6 11.3-.4 6.6-.2 13 .2c5.6.3 11.1-.2 16.6-.6q3 .6 6 1.7c1.2 0 2.4-.6 3.6-.8q3.8-1 7.8-.4 8.3.8 16.5.9a81 81 0 0 0 20.9-.9l3.4-.4q2.6.1 5.3.7c1.6.4 3.5-.4 5.2-.5q4.3.4 8.7 1.3c7.6 1.3 12.8 3.2 20-1.2 2 .2 3.4 2.4 5.2 2.8q1.6-1.3 3.5-2.2a3 3 0 0 1 1.7-.4q3 1.4 6.1 2.5c1-.4 1.8-1.8 2.6-2.6 1.1.4 1.8 2 2.6 2.7 4.9-1 9.7-3.3 14.8-2.6" class="b"/><path d="M8.6 19.3q3-.6 6.1-.7a113 113 0 0 0 12.2.2 113 113 0 0 0 20-.2q1.7-.3 3.5-.3 2.6.5 5.2 1.5 3-1.1 6-1.5 4.5.6 8.8 1a266 266 0 0 0 26 .5q4.5-.3 8.7-1c1.7 0 3.6-.7 5.3-.4 1.3.1 2.9.7 4.3.5q1.7-.3 3.5-.4l12.1 2c3.2.6 6.4 1.3 9.6 1.2q2.8-.2 5.2-1.5c1.1-.5 2.3-1.4 3.5-1.7q1.9 1 3.5 2.3h.9q2-1.3 4.3-2.1c2.3.4 4.6 1.7 7 2 1-.2 1.7-1.6 2.6-2.2l1.7 2.2c3.5-.5 7-1.6 10.5-2.1l4.3.3" class="b"/><path d="M8.6 17.5a44 44 0 0 1 7.9-1.3 129 129 0 0 0 11.3.6q3.3.2 7 .3 5.6 0 11.2-.6l4.4-.5q2.6.4 5.2 1.3c1.6-.6 3.4-1.4 5.2-1.3q4.7 1 9.6 1.4l14.7.7a106 106 0 0 0 22.6-1.6c1.4-.1 3-.7 4.4-.3q1.3.3 2.6.3l2.6-.3 4.4.6c6 .7 12 2.5 18.2 2.9 3.5.2 6.6-1.8 9.6-3.4 1.3 0 2.4 1.2 3.5 2 1.7-.5 3.4-1.6 5.2-2 2.5.6 5.2 2 7.8 1.5.3-.5 1.1-1.3 1.7-1.4 1.1 1.5 1.9 1.4 3.5 1l5.2-1c2.3-.4 4.7.4 7 .3" class="b"/><path d="M8.6 15c1.5.6 3 0 4.4-.3l5.2-.7q3.9.2 7.8.5c2.9 0 5.8.5 8.7.4q5.7 0 11.3-.6c1.7 0 3.5-.6 5.2-.5 1.4.2 3 .8 4.4 1q1.6-.8 3.5-1.2a77 77 0 0 0 10.4 2l7.8.2q4.3.5 8.7.5a112 112 0 0 0 26-2.4c1.2-.1 2.5.4 3.6 0 2 0 4 .5 6 .7l11.4 1.8c3 .6 6.3 1.3 9.5 1q2.8-.3 5.2-1.8c1.1-.5 2.3-1.5 3.5-1.7.8.5 1.8 1.3 2.6 1.6l4.4-1.5c2.8.4 5.7 1.4 8.7 1.2q.6-.8 1.7-1l.9.8 6-1c2.6.2 5.3.7 7.9.7" class="b"/></svg>