<svg xmlns="http://www.w3.org/2000/svg" id="a" width="1920" height="2400" viewBox="0 0 192 240"><defs><style>.b{fill:none;stroke:#fff;stroke-miterlimit:10;stroke-width:.3px}</style></defs><path d="M0 0h192v240H0z" style="stroke-width:0"/><path d="m8.5 224.8 1.8 1.5h3.4q1.5.1 2.7-.3a20 20 0 0 1 10.4-5.4 95 95 0 0 0 23.5 1.1l6-.3q1.5-.3 2.7-.7 1 .1 1.7.5c5.2 0 10.5-.8 15.7-.4a217 217 0 0 1 20 2l3.5-.3q8.8-.5 17.4 1.8a28 28 0 0 1 5.2 2h5.3q2.6.1 5.2 0 1.6-1.4 3.5-2.3a40 40 0 0 1 9.5-3.4l8.7 2.3q2.6.6 5.3.8l2.6-1q3-1.2 6-2c2.4.2 4.7 1.6 7 2l7.8-1.5" class="b"/><path d="m8.5 222.5 1.8 1.5h5.2c.9-.5 1.8-1.5 2.6-2a21 21 0 0 1 8.7-3.7l2.6.4q7 1 14 .7 7.4-.2 14.7-1c1.1.4 2.4.2 3.5.2l4.4-.2a252 252 0 0 1 28.7 2l5.2-.3q6.1-.2 12.2.6a40 40 0 0 1 9.6 3.3h9.5q1.8-1.1 3.5-2.2 4.1-2.3 8.7-3.4c1.1-.2 2.4.4 3.5.7l10.4 2.5 7-2.3q1.7-.6 3.5-1 2.6.6 5.2 1.4c1 .3 2.3 1 3.5.9l7-1.4" class="b"/><path d="m8.5 219.4 2.6 2.1c1.4.3 3 .1 4.4.2 1.4-1 2.8-2.4 4.3-3.2q3.7-2 7.9-2.4 7.3 1.1 14.8.7 9-.6 18.3-.8l16.5.7q9 .3 18.3 1.4a74 74 0 0 1 20 1.4q2.7.9 5.2 2.2h9.6q5-4.2 11.3-5.7c1.1 0 2.4.6 3.5.8l9.5 2.6c2.6-.6 5.3-1.7 7.9-2.4q2-.7 4.3-1 4.8 1.1 9.6 2.5c2.3-.2 4.7-1 7-1.4" class="b"/><path d="M8.5 216.3q2.3 1.4 4.4 3h2.6c.8-.4 1.8-1.4 2.6-1.9q2.4-1.6 5.2-2.5c2-.6 4-1.4 6.1-1q7.4.6 14.8.2 5.7-.4 11.3-.4 9.6.4 19.2.5c5.2.2 10.4.1 15.6.6 6.4.4 12.8 1.4 19.2 2q3 .6 6 1.4 1.8.8 3.6 1.2h9.5q5.1-4.1 11.3-5.8 4.8 1.3 9.6 3l2.6.6c.8 0 1.9-.5 2.6-.7a107 107 0 0 1 10.5-2.9l3.5.8 7.8 1.7c1 .5 2.4 0 3.5-.2l3.4-.8" class="b"/><path d="M8.5 213.2q2.3 1.1 4.4 2.5c.7.4 1.7 1.2 2.6 1.3a4 4 0 0 0 1.7-1l2.6-1.7q4.6-2.2 9.6-2.8 3 0 6.1.2 4.8 0 9.6-.2 3-.2 6 0 5.7.2 11.4.2 12-.1 24.3 0a139 139 0 0 1 34 4.9q1.6.6 3.5.4l2.6-.1q2.9-2.2 6-3.7c1.7-.7 3.5-1.6 5.3-1.8 3.5 1 7 2.4 10.4 3.4 1.8.7 3.5-.7 5.2-1q4.4-1.5 8.7-2.4c1.4-.2 3 .4 4.4.6l7.8 1.5c1.4.2 3 .7 4.4.6l4.3-1" class="b"/><path d="m8.5 210 5.2 2.5c1.1.5 2.3 1.5 3.5 1.5 8-5.9 18.5-5 27.9-4.8 2.3.1 4.7.4 7 0 1.3.5 2.9.2 4.3.2q3.9 0 7.8-.2c6.7-.3 13.4.4 20 .1l8.7-.2q3.5 0 7 .4 12.5.6 24.4 4.7c3.6-2 7.3-4 11.3-5.2 2.6.7 5.2 1.9 7.8 2.8 1.4.4 2.9 1.3 4.4 1.2a70 70 0 0 1 13-4q1.8.2 3.5.6a247 247 0 0 0 15.6 2.3l3.5-1" class="b"/><path d="M8.5 207q3.1 1 6.1 2.3c1.4.5 2.9 1.4 4.4 1.7 7.8-4.6 17.3-4 26-3.8h3.6l1.7-.4q1.7.5 3.5.4l7.8-.5 6.1.5q12.6.8 25.2 0 5.2-.2 10.5-.4a75 75 0 0 1 19.1 3.3l.9.3.9-.2a80 80 0 0 1 8.7-3.4c4.2.7 8 3.3 12.1 4.6 4.4-2.1 9.1-4.1 14-4.7a184 184 0 0 0 21.7 3l2.6-.8" class="b"/><path d="M8.5 204.5c1.1-.4 2.4.2 3.5.5l4.4 1.4 3.4 1.2a3 3 0 0 0 2.6-.1c7.2-2.9 15.1-2.5 22.7-2.5q1.3.1 2.6-.4.9-.3 1.7 0c.8.4 1.9.2 2.6.2l5.3-.4q6 .8 12.1 1.1c8.4.5 16.9 0 25.3-.3q7.8-.3 15.6-.7 6.3.3 12.2 2.2c2.7 0 5.3-1.6 7.9-2.2 1.1 0 2.4.7 3.4 1q4.6 2 8.7 4.3c4.6-2 9-4.4 14-5.4 2 0 4 .7 6 1a115 115 0 0 0 16.6 1.8c1.4 0 3 .3 4.3-.3" class="b"/><path d="m8.5 202.5 2.6-.5q1.8.2 3.5.6 4.8 1.2 9.6 2.3a46 46 0 0 1 9.6-1.8c3.7-.4 7.6 0 11.3-.6l1.7-.4 1.8.3c2-.1 4-.5 6-.1 7 .8 14 1.7 21 1.4 2.3 0 4.6-.9 6.9-1.2q1.7-.5 3.5-.2a67 67 0 0 0 20-.3l3.5.5q2.6 0 5.2-.4 3.5 0 7 1.2c2.3.2 4.6-1 7-1 3.7.9 7.2 3 10.3 5.1.8.4 1.9 0 2.7-.1q2.7-.9 5.2-2.2a45 45 0 0 1 8.7-3q1.3.1 2.6.5a97 97 0 0 0 25.2 2.3" class="b"/><path d="M8.5 200.1q2.6-.1 5.2-.4 6.6 1 13.1 2c1.1.1 2.4-.3 3.5-.4l5.2-.7c2.9-.3 5.9-.1 8.7-.7q1-.3 1.7 0l1.8-.2c5.8.4 11.6 1.6 17.4 1.8 2.6.3 5.3-.4 7.8-.9l3.5-.8c1.7.2 3.5 1 5.2 1q8.7-.6 17.4-.4c5.8.2 11.7.3 17.4-.7h2.6q1.3.1 2.7.4c1.7-.1 3.5-.5 5.2.1q2.7.7 5.2 1.8l3.5 2.2 2.6.5c5.4.4 9.8-3.4 14.8-4.7 1.4-.6 3 0 4.3.4q3.5.8 7 1.3c6.3.9 12.8.9 19.2.8" class="b"/><path d="M8.5 197.4c7.3-.4 14.5 1.1 21.8 1.1q2.6 0 5.2-.4l7.8-.8 5.3.7c3.7.4 7.5 1.2 11.3 1.2q5.3-.4 10.4-1.6c2-.3 4 1.2 6.1 1.1q9-1.2 18.3-1.3c5 0 9.9.7 14.8.8q6.1.1 12.2-.8c5.6.6 10.8 3.4 16.5 4.1 5.3 1 9.9-2.7 14.8-4 1.7-.2 3.5.7 5.2 1q3.5.8 7 1.2c6 .7 12.2.5 18.3.4" class="b"/><path d="m8.5 195.7 9.6-.3q6 .4 12.2.4 3.5 0 7-.6c1.3-.2 2.9.2 4.3-.1 3.8.2 7.5 1 11.3 1.2a43 43 0 0 0 13-1.1c1.8 0 3.6.8 5.3 1.3 1 .2 2.4-.2 3.4-.4l7.9-1c2.6 0 5.2.4 7.8.4q5.7 0 11.3-.5c4.6.4 9.3 1.1 14 1l6-.6c1.4-.1 3-.5 4.4 0 5.5 1 10.8 3.7 16.5 3.2 2.4-.4 4.7-1.6 7-2.4l3.5-1.1c1 .1 2.4.5 3.4.7a94 94 0 0 0 27 2" class="b"/><path d="M8.5 194q7-.7 14-.8 4.3.1 8.7 0l3.4-.4q2.2.4 4.4.1 3-.2 6 .2 4.5.5 8.8.5c2.9 0 5.8-.6 8.7-.8 2 .3 4 1.2 6 1.6l2.7-.5 7-1c4.8.4 9.8 1.4 14.7 1.2 4.4 0 8.8-1 13-1.3 5.3.7 10.5 1.2 15.8.6 2 0 4.1-.8 6-.5 4.4 1 8.7 2.5 13.1 2.8 4.3.4 8.1-2 12.2-3q6.8 1.9 14 2.6 8.2.3 16.5 0" class="b"/><path d="M8.5 192q2.2.3 4.4-.2l5.2-.5c4.3-.3 8.7-.2 13-.8q1.8.2 3.5.3l6.1-.3c3.8 0 7.6.5 11.3.4 2.6 0 5.3-.9 7.9-.2q2.6.6 5.2 1.4 1.3.1 2.6-.2l7.8-1.4c6 1.2 12.1 2.8 18.3 2.2 4.7-.4 9.3-1.5 14-2.2 1.3-.2 2.9.3 4.3.4a49 49 0 0 0 12.2.2c1.7-.2 3.5-.7 5.2-.6 4 .8 8 2 12.2 2.4 1.1.1 2.3-.7 3.4-.8l2.7-.2 4.3-1.3c1-.4 2.4.3 3.5.4l4.3 1c7.8 1.4 15.7 1 23.5 1" class="b"/><path d="M8.5 188.5q5.2 1 10.5.7 5.2-.6 10.4-1c5.8.8 11.6-.3 17.4 0 2.3.1 4.7-.2 7-.1q2.6.2 5.2.8l4.3 1.2 8.7-1.7c1.1-.4 2.4 0 3.5.3l4.4 1.1c8 2.4 13.7 2.2 21.7.2l8.7-2c3.5.3 7 1.1 10.5 1.1 3.5.2 7-.6 10.4-1l8.7 1.7c1.1.1 2.4.4 3.5 0q1.6-.7 3.5-.8c1-.1 2.4.2 3.5-.2 1.3-.4 2.9-.9 4.3-.3q6.5 1.5 13 2 8 .2 15.7.2" class="b"/><path d="m8.5 186.3 2.6-.5a58 58 0 0 0 7.9.6c2.6 0 5.2-.5 7.8-.6q2.2.1 4.3.5l4.4-.1c5.8 0 11.6-.5 17.4 0q3 .3 6.1 1c1 .4 2.4.9 3.5.5l8.7-1.8q2.2.2 4.3 1l7.9 2.4q1.6.3 3.4.4 2.7.3 5.3 1 4.4-.4 8.7-1.8c4-1.2 8-2.6 12.1-3.1q4.3.9 8.7 1 4 .1 7.9-.5l3.4-.6 2.7.5c2.8.4 5.8 1.3 8.7 1q2-1 4.3-1c1.4 0 3 .2 4.4-.3 1.4-.2 3 .5 4.3.6l7.8 1.2c6.1.6 12.2.5 18.3.6" class="b"/><path d="M8.5 185q3.4-1.2 7-1.5 2.6.2 5.2.2c1.7 0 3.5-.4 5.2-.3 2.3.2 4.7.8 7 .7q5.2-.2 10.4-.2c4.7-.1 9.4 0 14 1.2l2.6.7 7-1.4c1.6-.3 3.5-1.2 5.1-.6a72 72 0 0 1 8.7 3l1.8-.1q4 .1 7.8 1.1c1.7.4 3.5 1.2 5.2 1.3 2.1 0 4.2-1.1 6.1-1.8 4-1.4 8-2.9 12.2-3.7q1.3-.2 2.6.2l3.5.5q4.8.4 9.6-.1c2-.1 4-1 6-.7q3.5.6 7 1c1.4.1 3 .3 4.4-.3 2.2-.8 4.7-.2 7-.7q2 .2 4.3.6l6 .8q9.6.9 19.2 1" class="b"/><path d="M8.5 183.9c5.3-3 11.6-3 17.4-2.7 3.2.3 6.4 1 9.6.7 5.2-.1 10.5-.3 15.7.3q2.6.2 5.2.8 1.3.4 2.6.6l1.7-.3 7-1.4 2.6-.7q1.4.2 2.6.6L79 184l2.6-.1q5.4 0 10.5 1.8l3.4 1q1.8.2 3.5 0c1.5.2 3-.8 4.4-1.3 4.2-1.7 8.5-3.4 13-4.2q7.5 1.5 14.8.6l5.3-.7c4 .5 8 1.3 12.1.8q3.5-.5 7-.8 4.8.8 9.6 1.2 9 .9 18.3 1.2" class="b"/><path d="M8.5 183c5-4.2 12-4.4 18.3-4 2.9.2 5.8 1 8.7.8q7.9-.4 15.7.3 2.6.3 5.2.9c.8.2 1.8.6 2.6.4a110 110 0 0 0 12.2-2.6q3.9 1.1 7.8 2.5a30 30 0 0 1 13 1.4q3.5 1.1 7 1.8h3.5c1.2-.2 2.4-1 3.5-1.4q6-2.8 12.2-4.3 8.2 1.6 16.5.4c3.5-.7 7 .1 10.5.3q5.2.1 10.4-.6 2.2-.3 4.4 0l6 .8 17.4 1.4" class="b"/><path d="M8.5 182c4.6-5.6 12.5-5.8 19.2-5.3q3.5.4 7 1l5.2-.1a86 86 0 0 1 18.2 1.8c3-.1 5.9-1 8.7-1.6l5.3-1.3a31 31 0 0 1 6 2c1.4.2 3-.3 4.4-.3q3 0 6 .6 5.9 1.3 11.4 3.1c1.6.5 3.5.2 5.2.3 1.2 0 2.4-1 3.5-1.3a66 66 0 0 1 11.3-4.3l2.6.3q5.2.8 10.5.3c2.3-.2 4.6-.8 7-.6q5.6.6 11.2.6c3.2 0 6.4-.7 9.6-.7l22.6 2.2" class="b"/><path d="M8.5 179.8h.9c4.4-6 12.5-6 19.2-5.5 2.8.2 5.7 1.3 8.6 1.1a113 113 0 0 1 19.2 1.4q1.3.5 2.6.4c4.4-.5 8.8-1.8 13-3q1.5-.1 2.7.4l3.5 1.4q8-1.3 15.6 1.3c2.4.7 4.7 1.9 7 2.5h6.9c.9 0 2 .2 2.7-.4q5.3-3.1 11.3-4.9c1.3-.5 3 .2 4.3.3q3 .4 6.1.2 4-.3 7.8-.8 4.8.6 9.6.7c4.6.2 9.3-.4 14-.7q10 1 20 2.2" class="b"/><path d="M8.5 177.5h.9c1.2-.8 2.2-2.3 3.5-3 2.5-1.7 5.6-3 8.7-2.7 2.3.3 4.7-.1 7 0q4.4.6 8.6 1.5 8-.3 15.7.8 2.2.3 4.4 1 4.8-.6 9.5-1.7 3-1 6.1-1.6l4.4 1.5c1 .2 2.3-.3 3.4-.4q4-.3 7.9.4 3.7.8 7 2.3c1.4.6 2.8 1.6 4.3 2H112q1 0 1.7-.5 5.3-3.5 11.3-5.1c2 0 4 .7 6.1.7q4.4-.1 8.7-.8l7.8.6c5.8.4 11.7-.2 17.4-.7q9.3 1 18.3 2.4" class="b"/><path d="M8.5 175.2c1.2.2 2-.7 2.6-1.5L13 172c1.7-1.3 4-2.2 6-2.6 2 0 4.2.4 6.2.3 1.7 0 3.5-.5 5.2-.3q3.9.6 7.8 1.5c2.6.2 5.3 0 7.8.3q4.9.2 9.6 1.3c3.8.1 7.6-.8 11.3-1.7 2-.4 4-1.3 6.1-1.4q2.2.8 4.4 1.4 1.6-.5 3.4-.6 4.9-.5 9.6 1c2.8.8 5.4 2.4 7.8 3.9h18.3c3.7-2.6 7.7-5 12.2-5.6q2.6.5 5.2.6 3.5-.1 7-.7 5.2.6 10.4 1 5.2 0 10.5-.5c2 0 4-.7 6-.5q4.9.6 9.6 1.4l3.5.7q1.4.3 2.6-.3" class="b"/><path d="M8.5 172.9h.9c1-.6 1.8-1.9 2.6-2.6q2.8-2.3 6.1-3.1a29 29 0 0 0 10.4.2c1.1 0 2.4-.5 3.5-.2l8.7 1.7 4.4.2q4.4.4 8.7 1.1 3 0 6-.4c3.9-.5 7.7-1.6 11.4-2.5 1.7-.4 3.5 1 5.2 1.2 7-2.1 14.4-.4 20 4.2 2 .4 4.1-.1 6.1 0 5.5.3 11 0 16.5.1 1 0 1.9-1 2.6-1.5a27 27 0 0 1 9.6-4.1 26 26 0 0 0 10.5 0l5.2.5q4.7.7 9.6.5 5.6-.2 11.3-1 6.6.6 13 2.2l2.6-1.2" class="b"/><path d="M8.5 170.5h.9c1.8-2.7 4.6-4.9 7.8-5.6q3.4 1 7 1c2.9-.1 5.8-.8 8.7-1 4.3.6 8.7 1.7 13 2.2q7 1 14 .1c3.8-.5 7.5-1.7 11.3-2.4l4.3 1.3c6.7-2.2 14-.5 19.2 4.2 1.4 0 2.9-.8 4.3-1a25 25 0 0 1 12.2 1.2h9.5q1.6.3 2.7-1l2.6-1.7q3.7-2.2 7.8-2.9 2.6.1 5.3.1c4.3-.6 8.7.8 13 1a84 84 0 0 0 15.7-1q5.3.3 10.4 1.6c.8.4 2 .1 2.6-.3l2.6-1.1" class="b"/><path d="M8.5 168.2c1.8-2 3.6-4 6.1-5.1 1.4-1 3 0 4.4.4q2.5.6 5.2.5c3.2-.2 6.4-1 9.6-1.5 4 .4 8 1.6 12.1 2q6.5.8 13.1.1 5.3-.8 10.4-2c1.8-.1 3.5 1 5.3 1.1 6.3-2.2 13.5-.5 18.2 4.2 5-2.6 11.1-2.5 16.6-1.5q2.2.4 4.3 1.2 1.7.7 3.5.6h7c1.2-.6 2.3-1.8 3.4-2.5q2.9-1.7 6.1-2.6c7.2-1.9 14.5 1 21.8.7 4.4 0 8.7-.7 13-1.2l6.1 1c1.1.2 2.4.7 3.5.7l2.6-1.2q1.4-.8 2.6 0" class="b"/><path d="M8.5 165.1q2.4-3.2 6.1-4.8c1.5.2 3 1 4.4 1.3 3.7 1.1 7.6.4 11.3-.4l5.2-1q2.2.2 4.4.7a59 59 0 0 0 26-.3c1.1-.2 2.5-.6 3.5-.2 1.5.2 3 1.1 4.4 1 4-1.4 8.4-1.2 12.2.5 1.9.8 3.5 2.4 5.2 3.5 6.4-4 19.4-3.1 26.1 0q.8.6 1.7.5h7q1-.2 1.7-1c8-7 16.8-3.6 26.1-3.3q7.5-.1 14.8-1.4 4 .6 7.9 1.7l3.5-1.6c1.2.1 2.4 1 3.4 1.5" class="b"/><path d="M8.5 161.6q2.2-2.5 5.2-3.7c2.5 1.1 5.1 2.3 7.9 2.5q1.3-.2 2.6-.5 3-.5 6-.6l7-1.5c7 1.3 14 2.2 21 1.3 2.8-.2 5.7-1 8.6-1.2l5.3 1.3c4.2-1.3 9-1.4 13 .9.8.4 2 1.2 2.6 1.8a4 4 0 0 0 1.8 1.2c4-2.8 9.1-3 13.9-3q4.4-.3 8.7.7 4 .6 7.8 2.2c1.6.7 3.5.5 5.2.6 3.2 0 2.9.2 5.3-2 7-5.5 16.2-2 24.3-2.2q7-.1 14-1.5l6 1.3c1.3 0 2.4-.9 3.5-1.3q2.9 1.1 5.3 3" class="b"/><path d="M8.5 158.2c1.3-1 2.7-2.6 4.4-2.6q3.3 2 7 3a26 26 0 0 1 12.1-1.8l4.4-.9q1.2-.3 2.6-.4l3.5.5a65 65 0 0 0 21.7-.5q3.5.7 7 1.6c5.3-2 12-.7 15.6 3.7h1c3.1-2.4 7.3-3 11.2-3.2 3.4-.7 7-1.3 10.5-.6 4.1.6 8.1 2 12.1 3.1q2.2.7 4.4 1.1h3.5c6.7-7.2 15.7-3.9 24.3-3.8a71 71 0 0 0 14-1.6c.8-.4 1.8 0 2.6.2l3.5.8q1.2-.7 2.6-1.2 3.9 1.6 7 4.5" class="b"/><path d="M8.5 155q1.3-1 2.6-1.8c2.4 1 4.6 2.5 7 3.4q5-2.2 10.4-2.4c2-.1 4.1.3 6.1 0 2.3-.3 4.7-1.2 7-1a66 66 0 0 0 20 0q4 .5 7.8 1.5.9.2 1.8 0 1.2-.4 2.6-.4c4.7-.3 8 1.3 11.3 4.6l.9-.1c2.6-2.2 6.1-3.2 9.5-3.4q4.6-1.7 9.6-1.8c8.7.2 16.8 4 25.2 5.3 5.5-5.2 11.3-4.7 18.3-3.8a49 49 0 0 0 17.4-1.3l2.6-.5 3.5.9c.8-.2 1.8-.8 2.6-.9q4.5 2 7.9 5.5h.8" class="b"/><path d="M8.5 151.7c.4-.3 1.3-.7 1.8-.7l4.3 2.5q1.2.8 2.6 1c5.5-3.4 12.2-3.1 18.3-2.5q3.5-.7 7-1.2 3.9.4 7.8.5 4.4-.1 8.7-.5 4.9.6 9.6 1.8c.4.2 1.3.2 1.7 0l2.6-.1c3.6-.2 7.2 1.4 9.6 4h1.7c1.4-.7 2.9-1.8 4.4-2.3q1.6-.6 3.5-.8c2.6-1.4 5.7-2.5 8.7-2.4q2.5.3 5.2.2 2.2-.4 4.3 0c5.3.9 10.5 2.5 15.7 3.6 2 .3 4 1.3 6 1 6-5.4 13.8-2.4 21-2.4 5 .1 10-1.2 14.8-2.3 1.1-.2 2.3.6 3.5.5.3-.2 1.2-.5 1.7-.5q2.8 1.3 5.2 3c2 1.6 2.5 2.8 5.2 2.5" class="b"/><path d="M8.5 148.6c2.5 1 4.6 2.9 7 4.1 4.4-3.3 10.2-4 15.7-3.7l4.3.4q1.8.4 3.5-.1 3-.5 6-.8 2.7.1 5.3.1 8.8-.4 17.4 1.9c1.4.5 3 .3 4.4.3q2.7.2 5.2 1.5l2.6 2q1.7 0 3.5-.2 2.4-1.7 5.2-2.7 2.9-1.7 6-2.6c1.2-.3 2.5.2 3.6.4l5.2.5a26 26 0 0 0 5.2-.5q1.7-.5 3.5-.5c7 1.1 13.9 3.3 20.9 4.5 6.7-4.7 12.6-1.5 20-1.6 3.5 0 7-.9 10.4-1.8l4.4-1.2c.4 0 1.3.3 1.7.5.4-.2 1.3-.4 1.8-.4 3.1 1.3 5.7 3.7 8.7 5.5h3.4" class="b"/><path d="M8.5 147q1.8 1 3.5 2.3c.8.5 1.7 1.3 2.6 1.4 3.4-3.3 8.5-4.3 13-4.3q3.6 0 7 .4c1.4.1 3 .5 4.4.4a65 65 0 0 1 30.4 2q1.4.3 2.6.5 2.5.4 4.4 2.1l3.5.1c1.2 0 2.5 0 3.5-.9q3.4-3.1 7.8-4.6c1.4-.1 3 .7 4.3.9 7.4 1.8 11.3.6 18.3-1q4 .5 7.8 1.4 4 .8 7.9 1.8c1.6.3 3.5 1 5.2.7 3.1-2 7-1.7 10.4-1.2a30 30 0 0 0 14-.2l7.8-2.4c.8-.2 1.8.2 2.6 0q5 2.4 9.6 5.5h4.3" class="b"/><path d="m8.5 145.6 4.4 3.2c1.2-.5 2.2-1.9 3.5-2.5q2.9-1.6 6-2.2c1.7-.4 3.6-.1 5.3-.1q5.6-.2 11.3 1 8.6-1.2 17.4-.5c5.8.4 11.7 1.6 16.5 5h7a18 18 0 0 1 7-5l1.7-.5 1.7.6c4.5 1.5 9.2 2.7 14 2.1 3.2-.3 6.3-1.6 9.5-2.2 1.4-.3 3-.8 4.4-.4l8.7 1.8q3.8 1 7.8 1.6c.8.3 1.8-.3 2.6-.5q1.7-.3 3.5-.3 3 .2 6 .9 2.7 0 5.3.2c2.3.4 4.8-.5 7-1.2l7.8-2.6c1.2 0 2.4.8 3.5 1.2q4.1 1.7 7.8 4.4h5.2" class="b"/><path d="M8.5 144.4c1.1.8 2.2 2 3.5 2.5 2.3-3 6-4.6 9.6-5.4q3 .5 6 .5l5.3-.4q3 .2 6 .9c1.2.3 2.5 0 3.6-.1a63 63 0 0 1 20.9 1 25 25 0 0 1 7.8 3.7c1 .3 2.4.1 3.5.2h1.7c1-.4 1.8-1.5 2.6-2.2q2.8-2.1 6.1-3.5c8 3 15 6.1 23.5 2.6q3.3-1.2 7-1.8c1.6-.3 3.5-1.2 5.2-.6 5 .9 9.8 2.2 14.8 3 1.7.5 3.5-.2 5.2 0 2.9.5 5.8-.2 8.7 0 1.4 0 3 .4 4.3.4q3.2-.1 6.1-1.3l3.5-1.4q1.3-.6 2.6-.8c1.5 0 3 1 4.4 1.5q3.7 1.7 7 4h6" class="b"/><path d="m8.5 143.4 1.8 1.5c1-.5 1.8-1.7 2.6-2.3q3.1-2.4 7-3.4 2.4.6 5.2.8 3.3.1 7-.3 2.5-.6 5.1 0c1.4 0 3 .6 4.4.6q3.9-.5 7.8-.5c7.2 0 15 .7 21 5.1 3 0 2.9.4 5.1-1.7q2-1.6 4.4-2.9c1-.5 2.3-1.3 3.5-.5 4.2 1.8 8.4 4 13 4.9 4.2.8 8.4-.2 12.2-2q4.3-1.7 8.7-2.5 2.2-.5 4.4-.8 1.2-.2 2.6.2c4.3.8 8.6 2.2 13 2.7 3.2.2 6.4-.2 9.6-.3 2.6-.1 5.2.5 7.8.1q3.1-.6 6.1-1.7c1.4-.5 3-1.5 4.4-.8l.8-.3q5.6 2 10.5 5.4c2.2.5 4.6.1 7 .2" class="b"/><path d="M8.5 142.6h.9q3.4-4.2 8.7-5.7l3.5.8c3.4.7 7 .3 10.4-.1 1.7-.1 3.5-.7 5.2-.5s3.5.9 5.3.8c9.1-1 19.1-.8 27 4.7 3.1-1.8 6-4.3 9.5-5.6 2.7.8 5.3 2.5 7.8 3.7 1.4.7 2.9 1.7 4.4 2H106q1.6-1 3.5-1.9 3-1.2 6-2c3.2-.8 6.5-1.1 9.6-1.8 4 .7 8 2 12.2 2.5 3.5.3 7-.3 10.4-.3 1.7 0 3.6.3 5.3 0 3-.2 5.8-1.2 8.7-2.2q1.3.2 2.6.5c1.4-1 3 .2 4.3.7 2.8 1.2 5.2 3 7.8 4.4h7" class="b"/><path d="M8.5 140q2-2.7 5.2-4.3c1.1-.4 2.4-1.3 3.5-1q5.6 2 11.3 1.2c3.2-.2 6.4-.9 9.6-1.3 1.7.2 3.5 1 5.2.7 8-.7 16.6-.6 23.5 3.8 3.3-1.1 6.2-3.5 9.6-4.4a50 50 0 0 1 7 3.7c1 .6 2.2 1.7 3.4 1.9h20.9q4.1-2.3 8.7-3.3 3.5-1 7-1.4 2.2-.7 4.3-1l2.6.7q3 .7 6.1 1.3 4 .3 7.9 0c3.1-.4 6.4.1 9.5-.5q3.1-.5 6.1-1.5c1.2 0 2.4.7 3.5.7l1.7-.7a48 48 0 0 1 9.6 5 3 3 0 0 0 1.8.7h7" class="b"/><path d="M8.5 136.3a17 17 0 0 1 6.1-4q1.8.2 3.5 1 5.6 1.4 11.3.5l9.6-1.5c1.7 0 3.5.8 5.2.5a46 46 0 0 1 18.3 2c.8.3 1.7.9 2.6.9l5.2-2.2c1.1-.4 2.3-1.3 3.5-1q3.2 1.3 6 3.3c1.2.7 2.2 2 3.6 2.2q8.7 0 17.4 0h6c1.2-.1 2.6.2 3.5-.5q5.5-2.3 11.4-3.2 3-.7 6-1.6c1.1-.5 2.4-.2 3.5 0 2.3.5 4.6 1.3 7 1.3 4 0 8.1-.5 12.2-.4q4-.3 7.8-1.3 1.3 0 2.6.6c.7.4 1.9.5 2.6 0 1.4-1 3 0 4.4.7q4 1.9 7.8 4.4h7.8" class="b"/><path d="M8.5 132.9c1.5-1.2 3.3-2.5 5.2-2.9 2.6.8 5.2 2 7.9 2.2 5.5.4 11-1 16.5-1.8l2.6-.5c1.1.1 2.4.6 3.5.4 6.1-.5 12.6-.3 18.3 2.2 2.7-.4 5.2-2 7.8-2.5q3.3 1.2 6.1 3.1c1.2.7 2.3 1.9 3.5 2.5h10.4q1.5-.2 2.6-1a16 16 0 0 1 10.5 0q1.3.4 2.6 1h5.2q2.5-1 5.2-1.7 3-.6 6.1-1.4 3-.9 6.1-1.9 1.3-.5 2.6-.5l4.4 1q3.8.5 7.8 0c3.2-.2 6.4 0 9.6-.6l3.4-.6q2.7.7 5.3 1.3l2.6-1.1c1.8.2 3.5 1.3 5.2 2 2.1 1 4 2.5 6 3.5h8" class="b"/><path d="M8.5 129.7q1.7-1.1 3.5-2c1.8.2 3.5 1.3 5.2 1.7a20 20 0 0 0 7.9 1c5.5-.5 11-1.8 16.5-2.7.8-.3 1.8 0 2.6 0q3-.2 6.1 0 5.3-.1 10.4 1.6 2.7-.5 5.3-1.3c.7-.5 1.8-.1 2.6.2l2.6 1.1q2.8 1.5 5.2 3.7c1.3.6 3 .2 4.3.3 2.3-.1 4.8.3 7-.2q2-1.3 4.4-2c5.4-1.9 11.7-1 16.5 2.2h4.3q3-.6 6.1-1.4c4.6-.7 8.7-3 13.1-4.3q3.4.9 7 1.2c3.4 0 7-.5 10.4-.6 1.7 0 3.5-.5 5.2-.5q3.1.4 6.1 1.3c1.2-.2 2.4-.9 3.5-1.3 4 1.1 7.7 3.6 11.3 5.6h7.8" class="b"/><path d="m8.5 126.7 2.6-1.4c3 1 5.7 2.6 8.7 3 6 1 11.8-.9 17.4-2.1q3.5-.8 7-1l2.6.3H52c2.4-.5 4.8.2 7 .8q2.2-.4 4.4-.9c.8-.2 1.8.3 2.6.5a23 23 0 0 1 7.8 4.7c1.6.7 3.5.2 5.2.4 1.7-.1 3.7.3 5.2-.5 2.8-.6 5.1-2.4 7.9-3 5.8-1.6 13.6-.7 18.2 3.4q3.5.1 7 0c1.2 0 2.3-1 3.5-1 1.8 0 3.6-1 5.2-1.7q3-1.4 6-2.5c1.5-.6 3 0 4.4.2q2.6.5 5.3.3 5.2-.5 10.4-.8 4.5.3 8.7 1.4l3.5-1.4c3.4.8 6.5 2.7 9.5 4.4q4.9.5 9.6-.6" class="b"/><path d="m8.5 123.9 1.8-1c1.8.5 3.5 1.6 5.2 2.3q5.9 2.4 12.2 1.1c1.1-.1 2.3-.8 3.4-1.1q3.5-1.1 7-1.8 1.8-.3 3.5-.4 2.6.5 5.2 0c2.3-.2 4.7.8 7 .3l1.7-.3c1.1 0 2.4.5 3.5.2 1.7-.6 3.6.2 5.2.8a24 24 0 0 1 5.2 2.8c.8.5 1.8 1.5 2.6 1.9 2.6-.1 5.4.2 7.9-.2q2.8-1.7 6-2 2.6-1.2 5.3-2a26 26 0 0 1 14 .2c2.5.6 4.9 2.2 6.9 4h7c1.3-.5 2.8-1 4.3-.5 3-1.3 9.2-5.7 12.2-5q3.3.7 7 .5c3.7-.3 7.5-1 11.2-.4q2.7.2 5.2.7 1.4.5 2.7.3l1.7-.8 1.7-.4 1.8.6c1.7.6 3.5 1.7 5.2 2.4q5.7.3 11.3-.8" class="b"/><path d="M8.5 121.2c1.3-.9 2.3-.2 3.5.4l4.4 2a16 16 0 0 0 10.4.7c3.8-2 8-2.8 12.2-3.6 2-.1 4 .7 6 .6a72 72 0 0 1 12.2-.7l3.5.8c4.1.8 7.3 4 11.3 5 1.7-.2 3.6.2 5.3-.3 2.4-2 5.6-2.8 8.7-2.9q4.9-2.2 10.4-2.5c4.4 0 9 .5 13 2.5q1.5.8 2.7 2 1 1.2 2.6 1.1 3.9.2 7.8-.1 1.4.2 2.6-.1 3.4-2.3 7-4.2 1.6-.8 3.5-1.3l4.3.7c3.2.2 6.4-.4 9.6-.6 2.9 0 5.8.5 8.7.6 1.4 0 3 .5 4.3.4 1-.3 2.3-1.2 3.5-1l4.4 1.8q6.5.1 13-1" class="b"/><path d="m8.5 118.8.9-.5c2.4.7 4.6 2.3 7 3.2 2.7 1.1 5.8 1.8 8.7 1.3 3.7-2.7 8.5-3.7 13-4.5q3.5.7 7 1.1 3.8-.4 7.8-.5 1.7.2 3.5 0l2.6-.6c5 1 11.6 5.6 16.5 5.1 3-2.3 6.8-3.3 10.5-3.2 2.2-.7 4.5-1.7 7-1.9a32 32 0 0 0 10.4 0q6.6.8 11.3 5.7H126a4 4 0 0 0 1.7-1l3.5-2.4q2.4-1.5 5.2-2.3 4 1 7.9.7 9.1-1 18.2-.2 1.8.3 3.5-.4c.8-.2 1.9.3 2.6.6q4.4 0 8.7-.3 3-.6 6.1-.1" class="b"/><path d="m8.5 116.5.9-.5c4.8 1.7 9.3 5.5 14.8 4.9 3.4-3 7.9-4 12.2-4.9 3.2.3 6.4 1.3 9.5 1.6a82 82 0 0 1 9.6-.3q2.2-.4 4.4-1.1c.8-.4 1.8 0 2.6.2l3.5 1.4q4.1 1.7 8.7 2.5 4.8-3 10.4-3c2 .2 4-1.2 6-1.3a30 30 0 0 0 14 .2c2.4-.5 5 1 7 2.1l2.6 2.1q.6 1 1.7 1.3h11.3c3-2.1 5.9-4.9 9.6-5.7q5.2 1.4 10.4.6 4.9-.2 9.6-.2 4-.2 7.8-.2l4.4.2q7 .3 14 1.4" class="b"/><path d="M8.5 114.3q1.3-1 2.6 0l3.5 1.7a23 23 0 0 0 8.7 3c1.2-.7 2.3-1.9 3.5-2.5q3.7-1.9 7.8-2.7 1.8 0 3.5.5l7 1.3q1.7.2 3.4 0 3-.2 6.1 0c2.1.2 4.2-.8 6.1-1.3l1.8-.6c1.4 0 3 .9 4.3 1.3q3.8 1.3 7.9 2c2.4-1 5-2.2 7.8-2.4h4.3q1.8-.6 3.5-1 9.1 2.8 18.3.1 5.1 1.6 8.7 5.7 6.1 0 12.2-.1 3.4-3.5 7.8-5.4c1.1-.3 2.4.5 3.5.6q3.3.7 7 .4 7.3-.1 14.7.2 1.8.2 3.5 0l3.5-1c1.7-.7 3.6.3 5.2.7l8.7 2.6" class="b"/><path d="m8.5 112.4 1.8-1c4.4 1.5 8.3 4.7 13 5.3.9-.6 1.8-1.6 2.6-2.1q2.1-1.5 4.4-2.2c1.3-.4 3-1.2 4.3-.8l7.9 1.5 4.3.8 2.6-.1q3.5-.2 7 .1c3-.5 5.8-1.7 8.7-2.6 3.2.8 6.3 2 9.6 2.5 1.1.3 2.3-.7 3.4-1a21 21 0 0 1 8.7-.8q1.4-.2 2.6-.6c2.6.4 5.2 1.3 7.9 1.6q3.8.5 7.8 0c2-.2 4-1.3 6-1.5 3.1 1.1 5.7 3.3 8 5.5h11.2c1.9-1 3.4-2.9 5.3-4 1.2-.6 2.8-2 4.3-1.1a29 29 0 0 0 10.4 1.6q4.5.1 8.7.7c1.7 0 3.6.7 5.3.3q5-2 10.4-3.1l8.7 1.8" class="b"/><path d="m8.5 110.6 2.6-1.5c4.1 1.5 7.9 4.2 12.2 5q1-.2 1.8-1.1a15 15 0 0 1 6-3.4c.8-.3 1.8-.7 2.7-.3q4.3 1 8.7 1.8l4.3 1 2.6-.1q4-.2 7.8.4c3.6-.8 7-2.4 10.5-3.4 2.9.3 5.7 1.6 8.7 1.8a21 21 0 0 1 11.3-1.3l1.7-.5 4.4 1.2c4.8 1.3 10 2.5 14.8.8 1.7-.4 3.4-1.6 5.2-1.8q4 2 7 5.4c3.7.3 7.5 0 11.3.1 2.3-2.2 4.8-4.5 7.8-5.6q3 1.5 6.1 2.5c4.3 1 8.8 1.3 13 2.5 1.2.3 2.5 1 3.5.1a65 65 0 0 1 18.3-5.2l2.6.4" class="b"/><path d="M8.5 108.8q1.7-1.2 3.5-2c4 1.5 7.9 4 12.2 4.9 1.1-.9 2.2-2.2 3.5-3q2-1.1 4.3-1.9 1.3.2 2.6.6l4.4 1q4 .8 7.8 1.8 4-.2 7.8.1l2.6.5c1.2 0 2.5-.6 3.5-1q4.3-1.7 8.7-3 1.4-.3 2.6.2l4.4.9q1.3-.2 2.6-.6a22 22 0 0 1 7.8-.3c.8 0 1.8-.4 2.6-.2 4.8 1 9.1 3.6 14 4.3 4.8.7 8.9-2.4 13-4.4a23 23 0 0 1 7 5.7h9.6c1.3-.3 2.3-1.8 3.4-2.6q2-1.8 4.4-3c.9 0 1.8.7 2.6 1.1q2.6 1.5 5.2 2.7 2.6 1 5.2 1.7h10.5c2-.4 4-1.4 6-2q6.5-2 13.1-2.8" class="b"/><path d="M8.5 107q2-1.6 4.4-2.6c4 1.6 8 3.8 12.2 4.9q2.7-3.5 7-4.8c1 0 2.3.7 3.4 1l6 1.5 5.3 1.3c3.2.1 6.5 0 9.6.8.8.3 1.8-.1 2.6-.4l3.5-1.2q4.2-1.7 8.7-2.9c2-.6 4 .5 6 .7q3.9-1.2 7.9-.9l1.7.2c.4-.1 1.3-.2 1.8 0 4 .8 7.7 3 11.3 5 1 .7 2.3.4 3.5.4 1.4 0 3 .4 4.3-.4a19 19 0 0 1 7-2.2q2-1.6 4.3-2.8 1 0 1.8.6l2.6 2c1.1.8 2 2.5 3.4 2.8h7.9c2.6-1.8 5-4.3 7.8-5.6q3.1 1.7 6.1 3.6c1 .7 2.2 1.8 3.5 2h6q3.6.2 7-.1l4.4-2q6.8-2.2 14-3.2" class="b"/><path d="M8.5 105.1a21 21 0 0 1 5.2-3c4 1.6 8 3.5 12.2 4.6 1.8-2.1 4.2-4 7-4.5a89 89 0 0 0 14 4.2q2 0 4.3.3 1.7.2 3.4.6 1.4.3 2.6 0c4.8-1.3 9.2-3.7 14-4.7l2.6-.6 3.5.6q4.3-1 8.7-.4 1.3-.3 2.6.2 3.2 1 6 3c1.5.7 2.7 2.5 4.4 2.3h7c1.5-.3 2.8-1.5 4.3-1.9q4.3-1.5 8.7-1.3l3.5-2.4c1.6.7 3 2 4.4 3 .7.7 1.5 1.9 2.6 2 1.6.9 3.5.6 5.2.6 3.6-1 6.3-4 9.6-5.7q3.1 1.6 6 4c.8.5 1.7 1.4 2.7 1.7h9.5c.9-.2 1.9-.9 2.6-1.3l3.5-1.5q7.3-2.5 14.8-3.4" class="b"/><path d="M8.5 103.1q2.8-2.2 6.1-3.3 6 2.4 12.2 4.2c.9-.5 1.8-1.6 2.6-2.2q1.6-1.1 3.5-1.9 1 0 1.7.4l3.5 1.3 6.1 1.9c1.7.4 3.5 1.2 5.2 1.3 2 .2 4 .9 6.1.5 5.4-.9 10.3-3.8 15.7-4.8 2-.5 4-1 6-.5q3.1-.4 6.2-.3c1.4.2 3 0 4.3.5 3.2 1 6 3 8.7 5 1.7.3 3.5.1 5.2.2h3.5l1.8-.5a26 26 0 0 1 15.6-3c1.2-.5 2.2-1.7 3.5-2q2.8 1.6 5.2 3.8c5.2 3 10.4-1.6 14.8-3.9 1.3 0 2.5 1 3.5 1.6 1.8 1.1 3.5 2.7 5.2 4h8.7c5.9-4 13-5.6 20-6.4" class="b"/><path d="M8.5 101q3.2-2.4 7-3.5c3.1 1 6.3 2.3 9.6 3 1 .4 2.3 1 3.4.8q2.2-2.3 5.3-3.6 1-.2 1.7.2 1.3.7 2.6 1 5.6 2.2 11.3 3.5c5.4 1.3 10.7-.9 15.7-2.6q5.2-1.5 10.4-2.3H79c3.2-.2 6.6-.2 9.6 1.2q3.7 1.6 7 4l.8.4h4.4c3.1-2.7 7.3-3 11.3-2.7q6.9-2 13.9-1c1.2-.4 2.2-1.8 3.5-1.8q2.8 1.6 5.2 3.6c5 1.6 9.4-2.3 14-3.8q4.8 2.1 8.6 5.7h7.9c1.2-.2 2.3-1.4 3.4-1.9a42 42 0 0 1 14.8-4.1" class="b"/><path d="M8.5 98.4c.9-.2 1.9-1 2.6-1.3q2.6-1.4 5.3-2 4.7 1.6 9.5 2.8c1.4.2 3 1.1 4.4.7a16 16 0 0 1 5.2-3.5c5.6 2 11.3 4.6 17.4 4.6 4.5 0 8.8-1.7 13-2.8q8.2-2 16.6-1.8 2.7.4 5.2 1.4 2.3.8 4.4 1.9l3.4 2.2q1.3.2 2.7.1c4.6-4.2 11.4-5 17.4-3.5q6.9-1.4 13.9-.3c1.2-.4 2.2-1.8 3.5-1.7q2.6 1.5 5.2 3.2c4 .6 7.7-1.7 11.3-3q1.4-.5 2.6.1a32 32 0 0 1 7 4.2c.3.4 1.2 1 1.7 1h5.2c1.1 0 2.5.2 3.5-.2 4-2.9 9-4.1 14-4.9" class="b"/><path d="m8.5 94.2.9 1.4c2.5-1 5-2.6 7.8-2.7q5.3 1.6 10.5 2.6c1.4.2 2.9.9 4.3.7q2.4-2.2 5.2-3.4c3 .7 5.8 2.1 8.7 2.7 7 1.8 13.3 0 20-1.4q7.5-1.3 14.9-1.3c2.3.2 4.6 1.1 7 1.7q2.6 1 5.1 2.4c1.1.5 2.2 1.7 3.5 1.5 4-4.3 10-5.4 15.7-5.2q2.2.2 4.3.6 1.3.4 2.6.5 7-1 14 .2c1.1-.5 2.2-1.7 3.5-1.7l5.2 2.7c4 0 7.6-1.7 11.3-2.8q5.2 1.6 9.6 4.7l1.7 1h1.7q2.2.2 4.4-.2 6.5-2.2 13-4" class="b"/><path d="m8.5 90.6 1.8 2.3q3.3-1.6 7-2.5 1.6.3 3.4.8 6.5 1.5 13 2.7 2.1-1.6 4.4-2.7l1.8-.7 1.7.4q3.8 1.3 7.8 1.8c4.4.4 8.8-.2 13-1q4.9-.6 9.7-.9 3.8-.3 7.8-.2c5.1 1 10.3 2.5 14.8 5.2 1-.2 1.8-1.4 2.6-2q2-1.5 4.4-2.2c6.1-1.8 13-1.8 19.1 0 2 .3 4.1-.3 6-.2q5 0 9.7.7 1.5-1 3.4-1.7c1.7.7 3.5 1.7 5.3 2q4.4-.3 8.7-1.7c1-.5 2.4.1 3.4.4q2.3.6 4.4 1.7 2.2 1 4.3 2.2 1.4.2 2.6-.1c5-1 10-2.7 14.8-3.9" class="b"/><path d="m8.5 89 .9-.7 1.7 1.9q3.4-1.4 7-2.2l3.5.7q4.8 1.2 9.5 2c1.7.2 3.5.8 5.3.8q2.4-1.8 5.2-2.7 1.3-.5 2.6-.6l1.7.4q5.6 1 11.4.5c6.9-.5 13.9-1.1 20.8-.8q2.3.2 4.4 1 6 1 11.3 3.8c.9-.5 1.8-1.5 2.6-2q1.6-1.2 3.5-2a42 42 0 0 1 23.5.1l6-.3q4.9 0 9.6.5c1.6.3 3-1 4.4-1.3 1.7.2 3.4 1.3 5.2 1.3a54 54 0 0 0 7.8-1.3l2.7.6c2.6.6 5.2 1.8 7.8 2.5q5.3-.5 10.4-1.8c2-.4 4.2-1.4 6.1-1.3" class="b"/><path d="M8.5 87.7c.4-.6 1.1-1.5 1.8-1.7q.6 1 1.7 1.6c2.2-.7 4.6-1.7 7-1.7l5.2 1 9.6 1.6c1.7.3 3.5 1 5.2 1a25 25 0 0 1 12.2-3.7h9.5c5.2-.1 10.5-.3 15.7.2q2.6.3 5.2 1.2 5.9 1 11.3 3.3c4.5-4 9-5 14.8-5.3q7.5-.4 14.8 1c1.1.1 2.4.7 3.5.7a79 79 0 0 1 13-.2c2 0 4.2.3 6.1-.2l2.7-.8 3.4.8c2 0 4.1-.5 6.1-.7q2.7.5 5.2 1.2c1.1.2 2.4.8 3.5.7a67 67 0 0 0 14-2l3.4.8" class="b"/><path d="m8.5 86.2 1.8-2.2.8-.1 1 1c.7.3 1.7-.2 2.5-.4l4.4-1 13.9 2.4 6 1.3c2.5.8 2.3.7 4.4-.5 6.5-3 14-2.5 21-2.8q3.8-.1 7.8-.5 2.2.1 4.3.6c1.4.2 3 1 4.4 1.2Q86.5 86 92 88c4.3-3.8 9.1-4.9 14.8-5A92 92 0 0 1 125 84q1.3.5 2.7.5 6-.7 12.1-.5l9.6-.1 2.6-.6q1.8.3 3.5.2c2-.4 4.1.3 6 .6 1.5.4 3 .2 4.4.2q5.7 0 11.3-1 3.1.5 6.1 1.4" class="b"/><path d="M8.5 84.5c.7-1 1.7-2.4 2.6-3.2.6.2 1.4 1 1.8 1.5q3.3-1 7-1.6l4.3.7q7 1.1 14 2.8c8 2.1 2.8 2.6 10.4-.3 4.7-1.4 9.8-1.7 14.8-2.2l5.2-.7q1.7-.5 3.5-.2 3.5.6 7 1.9 6.1.5 12.1 2.1c4.6-3.7 9.8-4.6 15.7-4.7q7.8-.1 15.6.7c2 .2 4.1 1 6.1 1q6.1-.7 12.2-.8 7.8 0 15.7-.4c2.8 0 5.8.4 8.7.3q4.3 0 8.7-.3 4.8.5 9.5 1.8" class="b"/><path d="M8.5 82c1.2-.8 2-2.6 3.5-3 .4.4 1.2 1.2 1.7 1.4q3.5-1 7-1.6l5.2 1q7.5 1 14.8 3.3l3.5 1.4h2.6q.9 0 1.8-.5 1.2-.6 2.6-1 5.5-1.8 11.3-2.8l4.3-1c1.1-.1 2.4-.5 3.5-.2q2.7.6 5.2 1.4 1.3.5 2.6.8 6.2.3 12.2 1.7c4.6-3.3 9.2-4.3 14.8-4.4q7.8 0 15.7.6 4 .3 7.8 1.1 4.8-.7 9.6-1 8.3-.4 16.5-.5c1.7.1 3.6.6 5.3.5a65 65 0 0 1 23.4 1.7" class="b"/><path d="M8.5 79.5c.6-.1 1.4-.9 1.8-1.4l1.7-1.6a6 6 0 0 1 1.7 1.4c1.2.2 2.4-.4 3.5-.6 1.7-.2 3.6-1 5.3-.7 6.7 1.2 13.6 2.1 20 4.7l1.7.8h6.1c.9 0 1.8-.7 2.6-1a68 68 0 0 1 14-4.6c.7 0 1.8.4 2.5.6q3.6.9 7 2.2 6.6 0 13 1.1 1.8-.9 3.5-1.8 3-1.3 6.1-1.7c6.7-1 13.4-.3 20 0q4.9.4 9.6 1.2l7-1a102 102 0 0 1 25.2 0 63 63 0 0 1 22.7 1.7" class="b"/><path d="m8.5 77 .9-.2q1.2-1.3 2.6-2.4h.9c.4.3 1.2 1 1.7 1.2q3.9-.8 7.8-1.4 7.6 1 14.8 2.8 4.1 1.2 7.9 2.8h5.2a4 4 0 0 0 1.7-.7q1.8-1 3.5-1.8 4.3-1.9 8.7-3c2.7.2 5.3 1.3 7.8 2l2.7 1a112 112 0 0 1 11.3.4c1 0 2.4.6 3.4 0 8.5-4.8 19.4-3 28.8-2.7q5.2.3 10.4 1.1l5.2-.9q8.7-1.2 17.4-1.2 5.3.3 10.5 1 5.6-.4 11.3-.2 5.3.5 10.4 1.8" class="b"/><path d="M8.5 74.4c1.7-.2 2.7-2.2 4.4-2.6l1.7 1.3c2.6-.3 5.3-1 7.9-1.3 5.8.9 11.7 1.8 17.4 3.5q2.6.8 5.2 2 1.7.3 3.5.2c.9-.1 1.8-1 2.6-1.4l3.4-1.8q3.5-1.5 7-2.4c3.9.8 7.6 2.4 11.3 3.6q7.5-.5 14.8.2c1.2 0 2.4-1 3.5-1.3q3-1 6-1.4c7.9-1 15.8-.1 23.6.4l4.3.5c1.1 0 2.4.6 3.5.2a96 96 0 0 1 33-1.5q5.3-.2 10.5-.2 5.8.4 11.3 2" class="b"/><path d="M8.5 71.8c1.6-.2 2.8-1.9 4.4-2.3l1.7 1c3.2 0 6.4-1.4 9.6-.7A87 87 0 0 1 46 75.2q3.7-2.4 7.8-4c1.7-.6 3.4-1.5 5.2-1.6a106 106 0 0 1 11.3 4l3.5-.2q7-.5 14 0 4.5-1.8 9.5-2.4 7-.5 14 0 7 .3 13.9 1.3c1.7.5 3.5-.3 5.2-.6a87 87 0 0 1 19.1-2.1q4.3-.2 8.7.2c1.7 0 3.5.4 5.2.4q4-.3 7.9-.2 6.1.4 12.1 2" class="b"/><path d="M8.5 69.2c1.6-.3 2.8-1.7 4.4-2l1.7.9 6.1-.9q3 .2 6.1.8a77 77 0 0 1 16.5 4c4-2 8-4 12.2-4.8q6.3 1.9 12.2 4.7c6.6-1 13.4-1 20-.8 9.3-3 19.2-2 28.7-1.2q4.5.3 8.7 1.1 2.7-.7 5.3-1.3a89 89 0 0 1 20-2.2l6-.3q2.7 0 5.3.4c3.2.3 6.4-.2 9.6 0q6.1.5 12.1 2.1" class="b"/><path d="M8.5 66.7C10 66 11.3 64.9 13 65l1.7.6q2.6-.4 5.2-.7l4.4.6a97 97 0 0 1 14 2.7q1.2.5 2.5.5l3.5-1.5q3.8-1.7 7.8-2.4 6.8 2 13 5.2c7.2-1.2 14.6-1.3 21.8-1.2q1.8 0 3.5-.5 3-.5 6.1-.7a118 118 0 0 1 27 2l6-1.8q6-1.4 12.3-2l12.1-.5q3-.3 6.1-.4 2.2.2 4.4.2a62 62 0 0 1 19.1 2.3" class="b"/><path d="M8.5 63.8q1.8-.8 3.5-1.3l1.7.6q2.3-.3 4.4-.5 7.6.8 14.8 2.4l3.5.9 4.3-1.4c2.6-.7 5.2-1.8 7.9-2A80 80 0 0 1 62.5 68c3.7-.9 7.5-1 11.3-1.3q7-.3 14 0c2.8 0 5.7-.6 8.6-.6q8.3-.1 16.6 1c3.1.4 6.3 1.5 9.5 1q2.6-1 5.3-1.8c7.6-2.3 15.6-2.5 23.5-3 4 0 8-.8 12.1-.7q10.2-.3 20 2.4" class="b"/><path d="m8.5 61 2.6-.8q.9.1 1.8.5c1-.1 2.3-.5 3.5-.4 4.3.6 8.7 1 13 2l2.6.7q1.4-.1 2.6-.5l7.9-2q1.2-.4 2.6-.4a62 62 0 0 1 12.1 4.5c2.3 1.3 2.7 1.6 5.3.8 7.1-1.4 14.5-.9 21.7-1q4.8 0 9.6.4 5.3 0 10.4.6c4 .7 8.2.5 12.2.5h6.1q1.4-.2 2.6-.8a79 79 0 0 1 21-3.3 73 73 0 0 1 11.2-1.6c2 0 4.1.3 6.1.1h7q6.6.8 13 2.2" class="b"/><path d="M8.5 58.2a4 4 0 0 1 2.6 0q1.4 0 2.6-.2 3 .2 6.1.8 4.5.6 8.7 1.5 5.7-1 11.3-2.3c1.6-.6 3-.1 4.4.3l6 2c9.9 4.1 4.4 3.7 14.9 2.2 5.8-.7 11.6 0 17.4 0q8.2-.2 16.5 1h20c2 0 4.2.3 6.1-.5q4-1.1 7.9-1.8 2.6-.3 5.2-1 6.8-1.6 14-2.3l5.1.3q4 .4 7.9-.2c1-.2 2.4.2 3.5 0 5 0 9.9 1.2 14.8 2" class="b"/><path d="m8.5 55.6 1.8.3 2.6-.3q5.6 1 11.3 2c4.4 0 8.7-1.3 13-2 2.8-1 12 2.8 14.8 4.2 1.4.6 2.8 1.6 4.4 1.4q1.7-.1 3.5-.5 2.6-.5 5.2-.7c5.2-.5 10.5.4 15.7.4q7.4.2 14.8.8h20c1.7 0 3.6.2 5.2-.5q12.9-3.4 26.1-5c1.4-.2 3 .2 4.4.2q3.3.4 7 .4 3.4.2 6.9-.6 1.7-.2 3.5 0c2-.3 4 .2 6 .5q4.5.6 8.8 1.5" class="b"/><path d="M8.5 53.6q1.3-.1 2.6-.4l2.6.5 7 1.3c4.1.2 8.2-.7 12.2-1.5q1.7-.4 3.5-.5a60 60 0 0 1 16.5 5.7q1.3.3 2.6.2c2.3-.3 4.7-1 7-1.1q4.8-.5 9.5.1t9.6.8q8.2.3 16.5.2h7.9c1.4 0 3 .2 4.3-.3q15.5-3.5 31.4-5.3c1.6-.1 3.5.3 5.2.4q4.8.4 9.5.6c3.6.3 7-.8 10.5-1.1l1.7.2q1.4-.2 2.6 0 6.2.6 12.2 1.9" class="b"/><path d="M8.5 51q1.3-.2 2.6.2l4.4 1q3.3.6 7 .2 5.2-.6 10.4-1.6c1.7-.4 3.5.3 5.2.6a67 67 0 0 1 14 5.2l3.4-.1q5.2-1.2 10.4-1.1c3.2 0 6.4.8 9.6 1.2H100c11.7-3.1 23.7-4.4 35.7-5.6 6 .2 12.2 1 18.3 1.2q3 0 6-.2c2.3-.4 4.7-1.1 7-1.1l1.7.3q1.4-.2 2.7-.2 6 .6 12.1 1.8" class="b"/><path d="m8.5 48.7 6.1 1.3q5.2.3 10.5-.5l7-1.2q3 .4 6 1.2a72 72 0 0 1 8.7 2.8l4.4 2h2.6c3.1-.2 6.3-1.1 9.5-.9q2.7 0 5.3.4 2 .6 4.3.4h13c2.6 0 5.4.4 7.9-.6 11-3 22.5-4 34-5 7.7.4 15.6 1.2 23.4 1.4q4 .1 7.9-.2 3.4-.7 7-1.3l2.5.3 2.6-.2q6.2.8 12.2 1.8" class="b"/><path d="M8.5 46.7q3.4 1.1 7 1 6.6-.1 13-1.4c3-.7 6 .4 8.7 1a80 80 0 0 1 13 4.5q2.7.1 5.3.1h29.6l6-1.7c9-2.2 18-3.2 27-3.9 6.2.3 12.3.9 18.4 1q9.5.6 19.1.5 2.7-.2 5.2-.6l3.5-.7q1.3-.3 2.6-.2c1 .3 2.4 0 3.5 0 4.3.4 8.7 1.3 13 1.7" class="b"/><path d="M8.5 44.7c2.2.8 4.7.5 7 .5q5.7-.2 11.3-1.2 2.2-.5 4.3 0a70 70 0 0 1 18.3 5.3q1.3.4 2.6.3h27a106 106 0 0 1 25.2-5.2c2.3-.2 4.7-.6 7-.3q14.3 1.2 28.7 1.3 7.6.2 14.8 0l7-.7q2.6-.5 5.2-.8c5.5.1 11 1.7 16.5 1.4" class="b"/><path d="M8.5 42.8a77 77 0 0 0 18.3-1.3l3.5.3q6.7 1 13 3.2 3.6 1.2 7 2.3h23.5A89 89 0 0 1 96.4 42q3.5-.7 7-.2 13.5 1.5 27 1.4 10-.2 20-.3 7.5-.3 14.8-1.2c2.6-.4 5.3.3 7.8.4q5.3.5 10.5.4" class="b"/><path d="M8.5 40.5A104 104 0 0 0 25.1 39l3.4.4q7 1.1 14 3.2 3.4 1.2 7 2.2h20.8q8-3 16.6-4.6 3.3-.6 7-1l9.5 1.2q10.5 1.1 20.9 1c7.8 0 15.6-.8 23.5-.8 5.8 0 11.6-1 17.4-1.4q1.2.2 2.6 0a128 128 0 0 0 15.7.8" class="b"/><path d="M8.5 38.1q7-.1 14-1.2 3.9.2 7.8 1 6.7 1.3 13 3.3l4.4 1.3q3 .1 6 .1h14a94 94 0 0 1 20-5.5c1.7-.3 3.6.4 5.3.5l9.5 1.4q11.3 1.5 22.7.8 7-.6 13.9-1 5.2-.3 10.4-.5l9.6-.9c1.7 0 3.5-.5 5.2-.4 2.6-.1 5.3.4 7.8.5q5.7.4 11.4.2" class="b"/><path d="M8.5 35.7q6.1-.4 12.2-1 5.2.4 10.5 1.5c5 1 9.9 2.6 14.8 4q4.8.1 9.5 0h7c1.4 0 3 .3 4.3-.2a94 94 0 0 1 18.3-5.4l4.4.8c8.6 1.6 17.3 3.3 26 3.2 9.1 0 18-2 27-2.2q10-.6 20-1.8c3 0 5.9.6 8.8.7q6 .4 12.1.2" class="b"/><path d="m8.5 33.2 9.6-.9q12.4 1.4 24.4 5.2c2.2.8 4.6.3 7 .4h11.2c1.7 0 3.7.3 5.3-.4q4.7-1.9 9.5-3.5 2.6-.8 5.3-1.3 1.2-.5 2.6-.3c5.8 1.2 11.5 2.7 17.4 3.7q8.6 1.8 17.4 1 7-1 14-2 5.5-.7 11.2-1 9.1-.9 18.3-1.9l9.6 1q6 .4 12.1.1" class="b"/><path d="M8.5 30.7c3.2-.3 6.5-1 9.6-.4a131 131 0 0 1 22.6 5.2c2.6.3 5.3 0 7.9.1h13c1.8.2 3.6-.6 5.2-1.2q3-1.2 6.1-2.2t6.1-1.8l1.8-.4 2.6.5 12.1 3.2c4 1 8.1 2 12.2 2l10.5-.1q6-1.2 12.2-2.4 5.6-.8 11.3-1.2l12.1-1.5q3.5-.4 7-.6l7.8.8q3.5.4 7 .7 4 0 7.8-.2" class="b"/><path d="m8.5 28 4.4-.4 7.8 1.2q5.7 1 11.3 2.6c2.3.6 4.6 1.6 7 1.9h23.5c4-1.4 8-3.1 12.2-4.3 2-.5 4-1.7 6-1Q87 29.5 93 31.5l2.6.9q2.6 0 5.3.2c2.9 0 5.8.7 8.7.7h11.3a100 100 0 0 1 8.7-2.2q5.2-.8 10.4-1.3 6.5-1 13-1.6 3.1-.5 6.2-.6l6 .6 11.4 1.2 7-.3" class="b"/><path d="M8.5 25.4c2.3-.3 4.7.5 7 .7a137 137 0 0 1 17.4 4q2.2.9 4.3.9h23.5c4.7-1.5 9.3-3.4 14-4.7l3.4-1q2.3.5 4.4 1.1Q87.8 28 92.9 30q1.3.6 2.6.3a57 57 0 0 1 10.5.2q2.2.3 4.3.5h10.5c2.9-.7 5.7-1.7 8.7-2.2 7.5-1.3 15-2 22.6-3 3.7-.9 7.6-.1 11.3.2 6.7.6 13.4 1.6 20 1" class="b"/><path d="M8.5 23q7.9 1.4 15.7 3.2 3 .7 6 1.7 1.4.4 2.7.7H59q7.3-2.6 14.8-4.8l3.5-.8A99 99 0 0 1 93 28.5q1.2.2 2.6-.2a40 40 0 0 1 13.9 0c2 .5 4 .3 6 .3s4.3.3 6.2-.2c5.2-2 11-2.8 16.5-3.3l10.5-1.4 3.4-.6q2.3 0 4.4.2 9.5 1.1 19.1 1.8 4-.1 7.9-.4" class="b"/><path d="M8.5 21.3q7 1.2 14 2.9l7 2q1.6.2 3.4.1h14.8q4 .2 7.8-.1l4.4-1a145 145 0 0 1 15.6-4.6 75 75 0 0 1 13 4.2c1.5.6 2.9 1.7 4.4 1.5h3.5a39 39 0 0 1 9.6-1q3 .1 6 1h8c2.5-.7 5-2 7.7-2.5q3.5-.6 7-.8 5.7-.6 11.3-1.6l4.4-.7 3.4.3q9.1 1.3 18.3 2 5.7 0 11.3-.6" class="b"/><path d="M8.5 19.6q6.1 1 12.2 2.6l6.1 1.8h23.5c3.4-1 6.9-2.3 10.4-2.6 2.7-.4 5.3-1.5 7.9-2l4.3-1c1.8 0 3.6.6 5.2 1q6 1.5 11.3 4.2c1.3.8 3 .3 4.4.4 2 0 4.2.2 6-.4q4.9-1 9.7-.5 2.2.3 4.3 1h3.5q1.4 0 2.6-.3 1.7-.9 3.5-1.5a23 23 0 0 1 7.8-1.6q6.1-.6 12.2-1.6c2.3-.3 4.7-1 7-.4q7.7 1.2 15.6 2 8.7.3 17.4-.7" class="b"/><path d="m8.5 18 9.6 2q3 1 6 1.7h23.6q3-1.4 6-2.3 4-1.1 8-1.4l3.4-1q2.6-.6 5.2-1l5.2 1q6.9 1.6 13 4.5c3.5.4 7 0 10.5.2 1.4 0 3-.8 4.4-1q3.8-.6 7.8-.1 2.2.4 4.3 1h2.7c3-1.3 6.1-3 9.5-3.3q6.2-.5 12.2-1.5c2.6-.3 5.3-1 7.8-.6a139 139 0 0 0 20 2.2q8 0 15.7-.7" class="b"/><path d="M8.5 16.4q6.2 1.4 12.2 3h22.6l2.7-.1 3.4-1.7q4.3-1.7 8.7-2.3c2.4 0 4.7-.8 7-1.4 1.4-.4 3 .2 4.3.4q3.5.8 7 1.3 4 .6 7.8 1.9c1.8.4 3.5 2 5.2 1.8h11.4c5.2-2.2 11.2-1.9 16.5 0 2.5-1.3 5-2.8 7.8-3.5q3.5-.4 7-.7l9.6-1.3c1-.1 2.3.2 3.4-.1q11.2 2 22.7 2.4 7.8 0 15.6-.8" class="b"/></svg>