<svg xmlns="http://www.w3.org/2000/svg" id="a" width="1920" height="2400" viewBox="0 0 192 240"><defs><style>.b{fill:none;stroke:#fff;stroke-miterlimit:10;stroke-width:.3px}</style></defs><path d="M0 0h192v240H0z" style="stroke-width:0"/><path d="M8.6 224.2a61 61 0 0 0 20.8-.2c8-1.3 16.2-3.8 24.4-3.1q10 .1 20 .2 12.8.5 25.2 3.2c.8.3 1.9-.1 2.7-.4l3.4-.9a86 86 0 0 1 11.3-1.5q4.5-.4 8.7-.7 5.1.5 9.6 2.8a37 37 0 0 1 19.2-2.3c.7.3 1.8 0 2.6.1 1 0 2.4.3 3.4.5q4.1 1.4 7 4.5h1.7l1.8-.7q2.2-.4 4.3-.4c2.6-1.7 5.7-2.4 8.7-3" class="b"/><path d="M8.6 221.6q8.6 1.3 17.4.4c6.4-.7 12.7-2.4 19.1-3.1q2.6-.4 5.2-.5 4.8.4 9.6.3c7.8.2 15.7-.1 23.5.5a88 88 0 0 1 14.8 2.1q1.2.4 2.6.3a87 87 0 0 1 17.4-3.2q6.1.5 12.2 2.1c3.3 1.2 2.5 1.5 6 .3q4-1.1 7.9-1.8 3.8-.7 7.8-.4 2.6.5 5.2.4 2.8.2 5.3 1.1 3.2 1.7 6 4h7c.9-.1 1.8-1 2.6-1.3q2.5-1 5.2-1.8" class="b"/><path d="M8.6 218.9c6.9.8 14 1.1 20.8 0q7-1 14-2.2c2.8-.3 5.8-.9 8.7-.4 9.2.6 18.5-.1 27.8.1q9.7.2 19.1 2.5c1.7 0 3.6-1 5.3-1.2q4.3-1 8.7-1.6c6.1.7 12.5 1.6 18.2 4 7.1-2 14.4-4.1 21.8-3.7 1 0 2.4.4 3.5.3q3.5 0 7 1 2.2 1.1 4.3 2.5c.7.4 1.6 1.4 2.6 1.5h8.7c1.4-.3 2.9-1.3 4.3-1.7" class="b"/><path d="M8.6 216.2c6 .5 12.2 1 18.2.4 7.6-.6 15-2.5 22.7-2.8 9.8 1 19.7 0 29.5 0q9.3.2 18.3 2.3c1.5.2 3-.7 4.4-1l7-1.4a141 141 0 0 1 20 4.9c8.9-2.8 18.3-5 27.8-4.2 5.3-.4 10.5 1.7 14.7 4.9q6.1.2 12.2 0" class="b"/><path d="M8.6 213.4q8.6 1 17.4.6c7-.5 13.9-1.8 20.8-2.5 2.3-.3 4.7.3 7 .3q4.4.1 8.7.1c5.5 0 11-.8 16.5-.6q5.7.1 11.3 1.1 2.7.6 5.3 1a61 61 0 0 1 7.8-2q3 .4 6 1.3 6.7 1.7 13.1 4c1.4.7 3 .3 4.4-.2l5.2-1.4a94 94 0 0 1 31.3-2.4q3.7.8 7 2.7c1 .5 2.2 1.6 3.5 1.6h9.5" class="b"/><path d="M8.6 210.7q9.1 1 18.2.6c6.4-.4 12.8-1.5 19.2-2 2.3-.4 4.6 0 7 .1a165 165 0 0 0 18.2-.4l6 .3q3.1-.2 6.2-.2 4.4.5 8.7 1.5c2-.2 4-1.2 6-1.5q5 1 9.6 2.6c2.7.9 5.3 2.2 7.9 3h7q3-.6 6-1.4 10.5-2 20.9-3.1c4.3-.2 8.7-.7 13-.1q3.1.5 6.1 1.5 3.6 1.4 7 3.1h7.8" class="b"/><path d="M8.6 208q8.6 1 17.4.6c6.4-.2 12.7-1 19.1-1.6 2.6-.4 5.2 0 7.8.1q7.9.4 15.7-.4c3.5 0 7 .8 10.4.4l4.4-.3c2 .2 4 .8 6 1q1.8-.7 3.5-1a112 112 0 0 1 10.5 3.6q1.8.7 3.5 1.7 1.2.5 2.6.3H120q2.5-.8 5.1-1.2 10.8-1.8 21.8-2.8 3.5-.3 7-.6a31 31 0 0 1 8.6 0 47 47 0 0 1 11.4 2.8c1.4.5 2.9 1.4 4.3 1.8h5.2" class="b"/><path d="M8.6 205.5q9.1.9 18.2.5c6.4-.2 12.8-1 19.2-1.5 4.6 0 9.3.5 13.9.3 3.2.1 6.4-.8 9.6-.3q6 1 12.1 0c1.8-.4 3.6 1 5.3.3 1.4-.7 3 .3 4.3.8a52 52 0 0 1 8.7 4.4h14l5.1-1.4c7.2-1.6 14.5-1.5 21.8-2q5.3-.2 10.4-.8c2.6-.2 5.3-.7 7.9-.6a56 56 0 0 1 20.8 4.7q1.8.3 3.5.2" class="b"/><path d="M8.6 203q10 .8 20 .4c6-.2 12.2-1 18.2-1.3q6.1.4 12.2.4c2.6 0 5.3-.6 7.9-.4 3.4.4 7 1 10.4.6l4.3-.6q1.4.4 2.7 0c4.3 2 9 3.2 13 5.6h7c.8 0 1.8-.6 2.6-.9q2-.8 4.3-1.3 8.2-1.8 16.5-1.9c6.1 0 12.2.3 18.3 0 4.6 0 9.3-.8 14-.7 8 .3 15.8 2.6 23.4 4.8" class="b"/><path d="M8.6 200.6a188 188 0 0 0 32.2-.5q3.4-.4 7-.3a97 97 0 0 0 16.4-.1q2.3.1 4.4.5 3 .4 6 .3c2.1 0 4.2-.6 6.2-.7a47 47 0 0 1 13 4.8c1.2 1 3 1 4.4.7q2.4-1.6 5.2-2.4c7.3-1.9 15-2.4 22.6-2.5 6 0 12.2.5 18.3.6 5.8.3 11.6-.6 17.4-.3a121 121 0 0 1 21.7 4" class="b"/><path d="M8.6 198.2a208 208 0 0 0 32.2-.6q3.4-.5 7 0a96 96 0 0 0 15.6-.3l4.3.6q4 .6 7.8.2c.8-.1 2-.3 2.7-.6h1.7q7 1.6 13 5.4c5.9-4.2 13.2-4.4 20-5q8-.6 15.7-.4 8.2.4 16.6 1c5.4.3 11-.2 16.5 0q11 .9 21.7 3.4" class="b"/><path d="M8.6 195.8q10.5.6 20.8.1c5.2-.1 10.5-1 15.7-.8a115 115 0 0 0 17.4 0l3.5.3q3.8.7 7.8.5 1 0 1.7-.6l2.7-.1c1.7-.2 3.5.8 5.2 1.3q2.2.8 4.3 2c.8.3 1.8 1 2.6 1 6.6-4.4 15-3.8 22.7-4.3q13-.8 26 .3 5.3.6 10.5.7h12.2q11 .8 21.7 3.2" class="b"/><path d="M8.6 193.5q9.1.3 18.2 0c5.5-.1 11-.6 16.6-.7q9.5.7 19.1 0 3.5.4 7 .7c1.4 0 3 .3 4.3-.5q2.2.3 4.4-.3 5 1.5 9.5 4c6.8-4.6 15.7-3.7 23.5-4 7.5 0 15.1-.6 22.6 0q7 .5 14 1.1 5.2.2 10.4.2c8.5 0 17 1.4 25.2 2.9" class="b"/><path d="M8.6 191.2H25l14.8-.7c6.3-.1 12.8.7 19.1.1 3.8-.6 7.6.6 11.3.6h.9c.4-.3 1.3-.6 1.7-.5 1.3.7 3-.1 4.4-.3 3 .5 6 2 8.7 3.3 5.5-3.9 12.7-3.2 19.1-3.3q9.1 0 18.3-.3 6.5-.1 13 .3 6.2.6 12.2 1.1l16.6.6a249 249 0 0 1 18.2 2.5" class="b"/><path d="M8.6 188.9c11 .2 22-.4 33-.8q10 .8 20 0 3 .2 6.1.5 1.8.3 3.5-.4c1.9 1 4.1.1 6-.1q3.7 1 7 2.6a4 4 0 0 0 1.8-.7q1.3-.7 2.6-1.1c4-1.3 8.1-1.2 12.2-1q8.3.3 16.5.2c5.5-.2 11-.6 16.5-.3 5.3.3 10.5 1.2 15.7 1.5l17.4.8q8.3 1 16.5 2.3" class="b"/><path d="M8.6 186.7q16.5-.2 33-.9 7 .3 14 .4 3.4-.2 6.9-.4l4.4.3c1 .1 2.4.3 3.4-.3q1.2.6 2.6.5 2.2-.2 4.4-.6 3.1.9 6 2.2c1 0 1.9-.8 2.7-1.2q2-.8 4.3-1.2c7.6-1 15.1.7 22.7.4 6.6-.1 13.3-.6 20-.4 5.5.1 11 1.2 16.5 1.6q10 .5 20 1.3l8.7 1.1 3.5.5c.4.2 1.3.1 1.7 0" class="b"/><path d="M8.6 184.6q17.9-.6 35.6-1l12.2.2 6.1-.3c2.3-.2 4.8.7 7 0 1 .6 2.3.4 3.4.4 1.7 0 3.6-.4 5.3-.3q2.6.8 5.2 1.7c5.8-4 13.3-2.8 20-2.3q7 .7 14 .4c6.9-.1 13.9-.7 20.8.2q4.8.7 9.6 1.3l17.4 1.2q4.8.3 9.5 1 2.7.4 5.3.7l3.4-1.1" class="b"/><path d="M8.6 182.7q13.5-.7 27-1 6-.4 12.1-.5 5.7.1 11.3.1 3.5-.3 7 0h3.5c1 .3 2.4.2 3.4.2 2 .1 4.1-.3 6.1-.3l4.4 1.4c6.4-4.2 14.5-2.6 21.7-2.1 5.8.5 11.6.3 17.4.3q6.1-.3 12.2.2 5.7.6 11.3 1.6c5.5.7 11 .9 16.6 1.5l13 1.3 7.8-2" class="b"/><path d="M8.6 180.9c11-1 22-1.1 33-1.6l20.9-.5c2 0 4.1.4 6 .2q3.7.3 7 .2c1.8.1 3.6-.4 5.3-.3 1 .3 2.3.9 3.4.7 4.2-2.4 9.3-2.5 14-2.4q9.5.7 19.1 1c5.5 0 11-.2 16.5.5 4.7.5 9.3 1.7 14 2.3q9.5 1 19.1 2c2 .2 4.1-.6 6-.9l10.5-2" class="b"/><path d="M8.6 179.2c16.4-2 33-1.6 49.6-2.2q3.4-.2 7-.3c1.3.1 3 .3 4.3-.1 1 .5 2.3.3 3.4.4h5.3q2.2 0 4.3-.4 1.4.1 2.6.5a24 24 0 0 1 11.3-2.5q5.7 0 11.3.3c7.9.7 15.7.4 23.5 1.3 5 .5 10 2 14.8 2.8 2-.3 4.1 0 6.1.1q4.4.3 8.7.1c7.6-.2 15.1-1.4 22.6-2.4" class="b"/><path d="M8.6 177.4q15.1-2 30.4-2a315 315 0 0 0 31.3-1c1.6.8 3.6.4 5.2.6q4.9.4 9.6-.5c.4-.2 1.3-.3 1.8-.2l1.7-.7q3-1 6-1.3c7-.7 14 .2 21 .4q7.4.2 14.8 1.2l6 1.2c1.1.2 2.4 1 3.5.5q4.7-1.5 9.6-1.2a134 134 0 0 0 24.4 0c3.1-.5 6.4-.1 9.5.2" class="b"/><path d="M8.6 175.3q16.4-2.4 33-1.7c6.7.2 13.4.5 20 0q3.5 0 7-.6 1.2-.8 2.6-1l1.7 1 3.5.1q4.4.6 8.7 0c1.9 0 3.5-1.5 5.2-2q4.3-1.2 8.7-1.4 14-.2 27.9 1.6c2.3.3 4.6 1 7 1.3q1.2-.5 2.5-.7c3.5 1 7 2.1 10.5 2.2q3.5-.2 7-.7a120 120 0 0 1 29.5.2" class="b"/><path d="M8.6 173q17.3-2.7 34.8-1.3 8.6.9 17.4.9 3.5-.2 7-.7c1.4-.6 2.8-1.7 4.3-2.3l2.6 1.5 3.5.4q3.8.6 7.8.5c7.1-5.5 17.5-4.7 26-4.3a75 75 0 0 1 31.4 7.4q2.2.1 4.4 0 2.2.1 4.3 0 1.7-.7 3.5-1c9-2.2 18.6-1.5 27.8-1.1" class="b"/><path d="M8.6 170.9q10.7-1.9 21.7-1.8c4 0 8.2.5 12.2.3q6.1-.3 12.2 1.2l2.6 1a38 38 0 0 0 10.4-.4c1.4-1 2.9-2.4 4.4-3.2a3 3 0 0 1 1.7-.6 21 21 0 0 1 3.5 2.3q4.3.6 8.7 1.4c5.5-5.4 13.6-5.7 20.9-5.7 10.7 0 21.6 1.5 31.3 6.2l2.6 1.3h42.6" class="b"/><path d="M8.6 168.8c9.7-1.8 19.7-2 29.5-1.4 5 0 10-.6 14.8 0 3 .3 6.2 1 8.7 3q1.7.3 3.5.1 1.8.2 3.5-.2 2.5-3.2 6-5.2a3 3 0 0 1 1.8.6q1.9 1.2 3.5 2.8 3 1 6 1.9c.7-.1 1.5-.9 1.8-1.3q1.2-1.2 2.6-2.1c4.7-3 10.4-3.5 15.7-3.5q14.4-.2 27.8 5c4.8-1.3 9.9-2.2 14.8-1.2q3.6.8 7 2 1.6.8 3.5 1.2h24.3" class="b"/><path d="M8.6 166.3q3.4.3 7-.4a98 98 0 0 1 17.3-.5q3.5.3 7 .2 6.5-.5 13-.6 6.2-.1 11.3 3.2h6.1q2.5-3.3 6.1-5.5c1 0 1.9.8 2.6 1.3q2.5 1.8 4.4 4.2h5.2c7.7-8.9 24.5-7 34.8-4.5q1.8.6 3.5.9a74 74 0 0 1 18.3-1.8c7.7.5 15 3.4 22.6 5.3 5.2.3 10.4 0 15.6.1" class="b"/><path d="M8.6 164.2q2.6.3 5.2.2a68 68 0 0 1 13-.9q5.7.1 11.3.7c5-.3 9.9-1 14.8-1.2 3.2 0 6.6 0 9.6 1.2 1.2.3 2.3 1.3 3.5 1.7q3 .1 6-.1 2.5-3.3 6.2-5.3c.9-.1 1.8.6 2.6 1.1a19 19 0 0 1 4.3 4.2q2.2.2 4.4 0 1.6.3 2.6-1 1.2-1 2.6-1.7c5-2.5 11-3 16.5-2.8 2.6 0 5.3.7 7.8.8 10.4-1.5 21-2.3 31.4-.8 4 .5 8.1 1.7 12.1 2.7l12.2 2.9h8.7" class="b"/><path d="m8.6 162.6 4.3.3q1.8-.2 3.5-.5a76 76 0 0 1 17.4 0c2.3.2 4.7.9 7 .4 7.8-.6 19.3-4 26 .7H73c1.4-.5 2.3-2.2 3.5-3 1.3-.9 2.8-2.4 4.4-2.4 2.6 1.3 4.8 3.5 7 5.5h2.5c1.5-.3 3-1.3 4.4-1.8q3.3-1.4 7-2c15.7-2.9 31.9-3.8 47.8-2.4 7 .9 14 2.9 20.9 4.4q3.5.7 7 1.7h6" class="b"/><path d="M8.6 161.2h6a68 68 0 0 1 20 0h7c2.3.2 4.7-.4 7-.8q4.7-1 9.5-1.3 2.7-.1 5.3.2 1.2.4 2.6.5 4.7-.7 9.6.1c1.2-.6 2.3-1.9 3.4-2.6 1-.6 2.3-1.6 3.5-1.5q3.8 2 7 4.8 5.1-2 10.4-3.5 8.6-1.7 17.4-2.3 9-.7 18.3-.3 7.9 0 15.6.7c6.8.9 13.4 2.6 20 4l7.9 2h4.3" class="b"/><path d="M8.6 159h40c1.1 0 2.4-.5 3.5-.7l5.2-1c2.3-.4 4.7 0 7-.5q6.8-1.4 13.9-.4 1-.3 1.7-1c1.3-.7 2.8-1.8 4.3-2q3.3 1.5 6.1 3.4 7.4-2 14.8-3.3 10.8-1.5 21.8-1.2c9 .2 18 0 27 1a210 210 0 0 1 25.2 5.6h4.3" class="b"/><path d="M8.6 156.6h44.3q5.6-1.4 11.3-2.8a49 49 0 0 1 16.6-.7q1 0 1.7-.6L86 151q2.7 1 5.2 2.3 1.3 0 2.6-.3 8.2-1.6 16.5-2.3c11.6-.9 23.3-.1 34.8 0 8.6-.2 17 1.5 25.3 3.5q4.4 1 8.7 2.4h4.3" class="b"/><path d="M8.6 154.3h40.9q1.7 0 3.4-.6l5.3-1.4a77 77 0 0 1 26-2q2.2-1.2 4.4-1.6l4.4 1.5q3.4-.2 7-.6c16.4-2 33-.4 49.5-.9 7 .1 14 1.7 20.9 3.3q3.9 1 7.8 2.3h5.2" class="b"/><path d="M8.6 152h38.2c10.4-2 20.7-5 31.4-5q4.3.1 8.7.5c1.4-.2 2.9-.9 4.3-1.2 2 .4 4 1.4 6.1 1l12.2-.5c8.4-.2 16.8.4 25.2.5 6 .2 12.2-.6 18.3-.4a99 99 0 0 1 23.5 5h7" class="b"/><path d="M8.6 149.6h34.8q13-2.7 26-4.6a78 78 0 0 1 13.1-.5c2.9 0 5.9.7 8.7.3q2.2-.6 4.4-.8 3.4.7 7 1 9.5 0 19 .6c5.8.3 11.7.7 17.5.3 5.5-.2 11-1.4 16.5-.7q9.3 1 18.3 4c1.3.6 3 .4 4.3.4h5.2" class="b"/><path d="M8.6 147.3H39q15.6-2.8 31.3-4.8c7.5-1 15.1-.3 22.7 0q2.2.3 4.3-.2l7-.7q10.9.3 21.7 1.5 4.8.7 9.6 1.9c4.6-.2 9.3-1.2 13.9-1.7 3.8-.5 7.6 0 11.3.7q6.2 1.2 12.2 3.2 5.2.1 10.4 0" class="b"/><path d="M8.6 145q7 0 13.9-.3c3.4 0 7 .4 10.4.3q2.2 0 4.4-.6l7-1 25.2-3.2c9.8-1.3 19.7 0 29.5.5l17.4-.9q3.5 0 7-.5a80 80 0 0 1 15.7 3.5c.7.3 1.8.7 2.6.3q4.3-1 8.7-1.7 5.2-.5 10.4.7t10.4 2.9h12.2" class="b"/><path d="M8.6 142.6h4.3a33 33 0 0 1 5.2-1q7-.5 14 .6c8-1.5 16.2-2.1 24.3-3 7-.6 13.9-1.8 20.9-1.9q9 .2 18.3 1.1c2.8.3 5.8 1 8.7.8a186 186 0 0 0 22.6-1.7c1.4-.3 3-.7 4.3-.2q4 .8 7.9 2.2c1.7.5 3.4 1.5 5.2 1.7a38 38 0 0 1 7-1.7 28 28 0 0 1 8.6.6q4.6 1 8.7 2.5h14.8" class="b"/><path d="M8.6 140.3q1.3 0 2.6-.6a33 33 0 0 1 11.3-1.4q3.5 0 7 .6l2.5.2 2.7-.4c8.3-1.3 16.8-1.5 25.2-2.3 7.5-.7 15-1.8 22.6-1.2q7 .5 14 1.5c2.5.3 5.2 1.1 7.8 1.2q11.8.7 23.5-2l5.2-1.2c4.4.9 8.7 2.8 13 4.2.8.2 1.9-.3 2.6-.5q1.7-.5 3.5-.7 3-.2 6.1.4c1.4.2 3 .8 4.4.7q4.4.3 8.7 1.5h12.1" class="b"/><path d="M8.6 137.4a48 48 0 0 1 22.6-1 106 106 0 0 1 13-1.6l16.6-1c4.6-.2 9.3-.8 13.9-1q13.2 0 26 3.2 2.7.6 5.3.7 4 .3 7.8.2c5-.2 10-1.4 14.8-2.7 2.3-.6 4.7-1.5 7-1.8 3.5.9 7 2.4 10.4 3.3q1.7.6 3.5.7a15 15 0 0 1 6-.4l4.4-.4q7.1 0 14 2.1c1.6.5 3.5.2 5.2.3 1.4-.1 3 .2 4.3-.4" class="b"/><path d="M8.6 134.3c6.7-2 14-1.6 20.8-.6q8.7-1.5 17.4-1.9l18.3-.7c4-.2 8.1-.7 12.2-.5q7.9.3 15.6 1.9c3.2.6 6.4 1.9 9.6 2.3 2.3.3 4.7.9 7 .8q4.3.2 8.7 0c4.1-.7 8.2-2.2 12.2-3.5 2.2-.6 4.6-1.6 7-2 3.7 1 7.3 2.6 11.2 3.1 2.6.4 5.3-.2 7.9-.5q3.8-.5 7.8 0 5.3.3 10.4 1.9c4.4 1.8 4.4 1 8.7-.2" class="b"/><path d="M8.6 131.4c6-1.4 12.2-1.1 18.2-.2 1.1.3 2.4-.1 3.5-.3l5.2-.9c9.8-1.4 19.8-.9 29.6-1.3 5.5-.3 11-.7 16.5 0 6.2.6 12.3 2.3 18.3 3.6 1.7.3 3.5 1 5.2 1h10.5q4.6-1.5 9.5-1.7h2.6l3.5-1.4 4.4-1.5c1-.3 2.3-1 3.5-.9q3.3 1.1 7 2 4.6.7 9.5-.2 3.9-.4 7.8-.2a56 56 0 0 1 14.8 3c1.7-.2 3.5-.9 5.2-1.2" class="b"/><path d="M8.6 128.8q8.2-1.3 16.5.2c1.1.3 2.4-.2 3.5-.4l4.3-.9c9.5-1.7 19.2-1.4 28.7-1.3 4.7 0 9.3-.5 14-.3q5.2.3 10.4 1.2a75 75 0 0 1 16.5 3.6q4.4.1 8.7.1a39 39 0 0 1 16.5-2.7l3.5.3 2.6-1q3-1.2 6.1-2.2c1.8.3 3.5 1 5.3 1.2q2 .4 4.3.5c2.6 0 5.2-.6 7.8-.7a59 59 0 0 1 21 2.7q2.5-.4 5.1-1" class="b"/><path d="M8.6 126.4a42 42 0 0 1 14.8.6q1.3 0 2.6-.4 8.6-2.1 17.4-2.7c6.3-.4 12.7-.1 19.1 0q5.3 0 10.4-.1 2.7 0 5.3.3l6 .3c6.3.4 12.4 2.2 18.3 4.3h5.2q1.5-.3 2.6-1 2.6-1 5.3-1.6a39 39 0 0 1 17.4 0q3-1.3 6-2.3 1.4-.5 2.7-.7l1.7.3q3.5.7 7 .6 3.4-.4 7-.7a67 67 0 0 1 20.8 2.6q2.6-.3 5.2-.8" class="b"/><path d="M8.6 124.2a41 41 0 0 1 13 1c6.6-1.7 13.2-3.3 20-3.8 7.5-.7 15.1 0 22.6.1q4.5 0 8.7 0 3.5-.4 7-.3 8.5.3 16.5 3c2 .6 4 1.6 6.1 2.2q1.8 0 3.5-.2 2.1-1.1 4.4-1.9a43 43 0 0 1 23.4-.7c1.2.1 2.4-.8 3.5-1.1q3-1.1 6.1-1.8l4.4.3q2.6 0 5.2-.3 6 .6 12.2 0 2.6 0 5.2.5 4 .7 7.8 1.6l5.2-.7" class="b"/><path d="M8.6 122.2q5.3-.2 10.4 1 6-1.6 12.2-2.8c9.4-2 19.1-2 28.7-1.4q4.4.3 8.7.2 3.4-.7 7-.9a60 60 0 0 1 23.4 4.4c1.1.4 2.4 1.1 3.5 1.3s2.4-.7 3.5-1.2q2.5-1.1 5.2-1.9a44 44 0 0 1 24.4.5 33 33 0 0 1 11.3-3c4 .3 8.1 1 12.2 1q3.9 0 7.8-.6c1.4 0 3-.6 4.4-.3l7 1.4 5.1-.6" class="b"/><path d="M8.6 120.5c2.3-.1 4.6.4 7 .6 4.9-.8 9.8-2.1 14.7-3a96 96 0 0 1 26.1-1.7q3 0 6.1.4l7-.7q6.5.7 13 0c2.6-.1 5.3.6 7.8 1.2q6 1.5 11.3 4.3c1.3 0 2.4-1.1 3.5-1.5q2.6-1.2 5.3-1.9a45 45 0 0 1 26 1c10.4-4.4 12-1.5 21.8-1.5 5 0 9.9-.9 14.8-1.6 1.7.2 3.5.8 5.2.9l5.2-.5" class="b"/><path d="M8.6 119c10-.8 19.6-3.6 29.5-4.7q8.8-.9 17.4-.4 2.7 0 5.3-.2l7.8.6q4.8.5 9.6.2 3.4-.5 7-.8 8.1 1.5 15.6 5.2c1.2 0 2.3-1 3.5-1.5q2.5-1 5.2-1.8a48 48 0 0 1 22.6-.2l3.5 1.3q.8.3 1.7.4 6.3-2.9 13-1.6c7.9 1.4 15.9 0 23.6-1.7 1-.2 2.4.3 3.4.4l6.1-.5" class="b"/><path d="M8.6 116.3c9.9-1.3 19.6-3.5 29.5-4.4 7.8-.8 15.7-.4 23.5.3 5.2.2 10.5.9 15.7.4q4-.4 7.8-1.2 7.9 1.2 14.8 5c1.5-.3 2.9-1.5 4.4-2q3.3-1.2 7-1.9c7.7-1.3 16-1.3 23.4 1.5 1.1.3 2.3 1.1 3.5 1q2.5-1 5.2-1.4c3.5-.5 7 .6 10.4.8q1.8.2 3.5-.5 2.6-.8 5.2-1.2l11.4-1 1.7-.3 1.7.1q3-.2 6.1.1" class="b"/><path d="M8.6 113.6q15-3 30.4-4.3 11.4-.6 22.6 1 3.5.4 7 .4a50 50 0 0 0 16.5-1.6q7.3 1.3 14 4.8a47 47 0 0 1 26-4.5c4.8.3 9.4 2.2 14 3.6q4.1-1.6 8.7-1c1.3 0 3 .6 4.3.3a52 52 0 0 1 16.5-3l5.3-.2q1.2.1 2.6-.1c2.2.5 4.6.4 7 .6" class="b"/><path d="M8.6 111.2c5.9-1.9 12.1-2.4 18.2-3.4 3.2-.4 6.5-.3 9.6-1h1.7q1.4.2 2.6.1 9.7 0 19.2 1.2l4.3.6h3.5q4 .1 7.8-.4 4.5-.6 8.7-1.5 7 1.2 13.1 4.5c2.3-.8 4.6-2.1 7-2.7q7.2-2.1 14.7-1.7c6-.7 11.8 1 17.4 2.7 1.5.3 3 1.2 4.4 1.1a19 19 0 0 1 6-.5q1.5.3 2.7-.3 8.1-3 16.5-3c2.9-.2 5.9.2 8.7.2.8 0 1.9-.4 2.6-.4l1.8.4c1.3.5 3 .3 4.3.4" class="b"/><path d="M8.6 109.5c5.6-2.8 12-3.3 18.2-4.2q2.2-.3 4.4-.3l2.6-.5 2.6.3q9.6-.3 19.1 1 3 .3 6.1 1l10.5-.5q5.3-.5 10.4-1.8 2.2.2 4.4.9 4.4 1.3 8.7 3.3c4.5-2.3 9.7-3.6 14.7-4.2 2.3 0 4.7.4 7 .3 2.6.1 5.2-.4 7.8-.4q5.8.8 11.3 2.6c5 1.4 7.2 2 12.2 0q6-2 12.2-2.5c3.5-.1 7 .4 10.4.4l2.7.1q1.6-.2 3.4-.7c2 .4 4 1.2 6.1 1.1" class="b"/><path d="M8.6 107c1 0 2.4 0 3.4-.4q2.6-1.2 5.3-1.9c4.2-1.1 8.7-1.4 13-2.4 1.7-.5 3.5.1 5.2.3q8.3 0 16.6 1c2 .3 4 .9 6 1q4.9 0 9.6-.5 4-.2 7.8-.9c2-.2 4.1-1 6.1-1q6 1.3 11.4 4 6.6-3 13.9-4c3.1.3 6.3.8 9.5.7 3.5 0 7-.6 10.5-.7q4.4.8 8.7 2c4.8 1.1 7.3 1.8 12.2 0q4.6-1.4 9.5-2.1c3.8.2 7.6.7 11.3.7l4.4.2c1.4-.1 3-.7 4.3-1 2 .3 4.1 1.2 6.1 1.4" class="b"/><path d="M8.6 103.2c3.5.3 7-.5 10.4-1.3l10.4-2.1c1.1-.3 2.4.2 3.5.3l4.4.7q5.2.2 10.4.8c5.2 1 10.5.7 15.7.4A150 150 0 0 0 79 99.8q6 1.2 11.3 3.6 6.4-2.6 13-3.6 5.3 1 10.5 1.2 4 0 7.9-.4l4.3-.5q1.3-.4 2.6-.2 4.4 1 8.7 1.9 4 1 7.8 0 4.8-1.4 9.6-2 6.5.6 13 .9l4.4.1q2.6-.5 5.2-1.1 3 .6 6.1 1.4" class="b"/><path d="M8.6 99.9c6.7.5 13.3-1.5 20-2.4 2-.2 4 .5 6 .7a146 146 0 0 0 27 1.3q7.5-.6 14.8-2 5.4.9 10.5 3c4-1.1 8-2.4 12.1-3q6.5 1.4 13 1.8 8.5 0 16.6-1.8c1.8 0 3.6.7 5.2 1q3.5.7 7 1c3.6 0 7-1.5 10.4-2q3.5.2 7 .6 4 .4 7.8.4l5.3.1q2.6-.5 5.2-1.1 1.3-.3 2.6.2l4.3 1" class="b"/><path d="M8.6 96.9c7 .8 14-1 20.8-1.7 4.4.2 8.7 1 13 1.3q8.4.5 16.6.4 4.8-.1 9.6-1l3.5-.5q1.3-.4 2.6-.2c3 .5 5.8 1.6 8.7 2.4 3.7-.8 7.5-2 11.3-2.4l7.8 1.5c8.7 1.8 17.6.6 26.1-1.3 1.7-.5 3.6.2 5.2.5q3 .6 6.1.8c3.3.3 6.4-1 9.6-1.5q7.8 1 15.7 1.1h5.2l6-1.2c2.4 0 4.7.9 7 1.3" class="b"/><path d="m8.6 93.5 2.6 1h6q6.6-.6 13.1-1.5c2.9-.5 5.8.2 8.7.3q7 .6 14 .6c4.6 0 9.3.2 13.9-.5q2-.5 4.3-.7 4 .7 7.8 1.9l9.6-1.7c4.7.5 9.3 1.8 14 2.5l2.5.4a75 75 0 0 1 8.7-1.2c2.6-.2 5.3.2 7.9.2 3.1-.5 6.3-1.5 9.5-2 4.6 1 9.4 2 14 .6l2.6-.6 1.7.4q2.6.5 5.2.5 4.4.4 8.7.4c2 0 4.1.3 6.1 0l7-1.4 7 1.4" class="b"/><path d="m8.6 91.2 2.6-.8c2.3.5 4.6 1.7 7 2 5.7-.3 11.5-1.1 17.3-1.6l5.3-.3 6 .2 14 .3a45 45 0 0 0 7-.6c2.3.1 4.6.8 6.9 1l5.2-.6q2.2-.5 4.3 0l11.4 2.1c1.6.3 3.5.9 5.2.9a56 56 0 0 1 15.6-2q2.2 0 4.4.2l2.6.3 1.7-.4q3-.7 6.1-1.3 1.8 0 3.5.4l5.2.5q3-.2 6.1-1 3.9.8 7.8 1.1c4.7.1 9.4.6 14 .2l7.8-1.4q3.9.6 7.8 1.3" class="b"/><path d="M8.6 90.2q3.8-1.3 7.8-2.1 3.5.7 7 1.6c1.6.5 3.4 1 5.2.5q13.8-1.5 27.8-2 5.7-.1 11.3.4 2.6-.2 5.2-.5 8 .8 15.7 2.4c2.6.4 5.2 1.3 7.8 1.5q2.6-1 5.2-1.5a66 66 0 0 1 20-1c1.2 0 2.5.5 3.5.2l7-1.6q3.5.6 7 .9 3 0 6-.8c2.9.6 5.8 1.3 8.8 1.3 4.9 0 9.9.6 14.7-.4l6.1-1c3 .2 5.8 1 8.7 1.2" class="b"/><path d="M8.6 88.9c3.2-.7 6.3-1.8 9.5-2.4 1.7-.3 3.6-1 5.3-.7q6 1.1 12.1 1.8 7.9.7 15.7-.2 3.5-.4 7-.5 3.8-.6 7.8-1 13.1 1.6 26 4.4a62 62 0 0 1 29.7-3.5c1.4 0 3 .7 4.3.4l6.1-1.5c3.1.6 6.4 1.2 9.6.7q1.3-.1 2.6-.5c2 .3 4 1 6 1.2 3.2.5 6.5.2 9.6.3 4.7-.1 9.3-1 14-1.6 3.1.2 6.3 1 9.5 1" class="b"/><path d="M8.6 87.3c6.6-1.3 13.2-3.3 20-3.7 2.3-.4 4.6 0 7 .2a121 121 0 0 0 20 0c2.5-.1 5.2-.4 7.8 0 3.8.2 7.5 1.3 11.3 2q6.9 1.5 13.9 2.8a77 77 0 0 1 38.3-3.6c2-.6 4-1.5 6-1.5l3.5.7q4 .5 7.9-.6c3.7.8 7.5 2 11.3 1.5q8.7-.7 17.4-1.6c3.5.3 7 1.1 10.4.8" class="b"/><path d="M8.6 85.1c5.2-.4 10.4-1.8 15.6-2.5q8.7-1 17.4-1.1t17.4.4q7.6.3 14.8 2.4l7 1.7c1.4.3 2.9.9 4.3.8 1.5-.2 2.9-1.5 4.4-1.9a86 86 0 0 1 38.2-2.3c2.1-.1 4-1.4 6.1-1.4l3.5.7q2.2.3 4.4.1c1-.1 2.3-.8 3.4-.7 2.8.8 5.8 1.8 8.7 1.2l17.4-1.3c4 .3 8.2 1 12.2.5" class="b"/><path d="M8.6 82.6c5.5 0 11-1.2 16.5-1.8q8.3-.8 16.5-.8 8.7-.1 17.4.4c5 .4 10 .9 14.8 2.5q2.6 1 5.2 1.6h5.3q2-1.2 4.3-2c4.5-1.7 9.2-2.3 14-2.8a134 134 0 0 1 23.4 0l3.5.7c.8 0 1.8-.5 2.6-.7 1-.3 2.4-1 3.5-.7q3 .8 6 .7 1.9-.1 3.5-.7c2.4 0 4.6 1.6 7 1.2 5.7-.9 11.6-1 17.4-1.3l7 .5q3.4-.1 7-.4" class="b"/><path d="M8.6 79.6c6.4.4 12.7-.6 19.1-1a226 226 0 0 1 35.7.8c1.7.3 3.5.2 5.2.5 1.5.2 3 1 4.3 1.5q1.3.5 2.6.8h7.9c1.5-.4 2.8-1.5 4.3-2 7-2.4 14.5-2.8 21.8-3.3q7.4-.4 14.8.1 2.6.3 5.2.8c.8.1 1.8.5 2.6.2 1.7-.5 3.5-1.3 5.2-1.4q2.2.5 4.4.6 2.2-.1 4.3-.7c2 .4 4 1.2 6.1 1.3q4.7-.9 9.6-1 6-.5 12.2.1c3.2 0 6.3-.6 9.5 0" class="b"/><path d="M8.6 76.5c7.5.5 15-.2 22.6-.3q12.6-.2 25.2 1l4.4.4q2.5-.4 5.2-.4t5.2 1c1.2.4 2.3 1.5 3.5 1.7l9.6-.1q3.1-2 7-2.8a132 132 0 0 1 40-1.4c.7.1 1.7.6 2.5.4q2.6-1 5.3-1.7l3.4.3 3.5-.3q3.5.6 7 1a72 72 0 0 1 17.4-.9q2.2.1 4.3-.2l8.7.8" class="b"/><path d="M8.6 73.5c15.6.4 31.4-.5 47 1.8l2.5.3 4.4-.8q5-.8 9.6 1c1.1.5 2.2 1.7 3.4 1.7h9.6q4.1-2.2 8.7-3 11.2-1.7 22.6-2a83 83 0 0 1 16.6.9c.7.2 1.8.7 2.6.6 7.1-3.3 10.2-1.5 17.4-1.3q2.6 0 5.2-.4 3.5-.4 7-.4c2.3.2 4.6-.2 7 .1 3.7.3 7.5 0 11.2.3" class="b"/><path d="M8.6 70.4c15.3.4 31-.3 46 2.6 2 .6 4.2-.5 6.2-.7 5.3-1 10.3-.8 14.8 2.6 1 .5 2.3.2 3.4.3H87q2-1 4.3-1.7c8-2 16.2-2.5 24.4-3q6-.4 12.2-.2 4.9.1 9.5 1.9 3.3-1.6 7-2c2.8 0 5.8.3 8.7.1l13-.9c5.8.5 11.7-.1 17.4 0" class="b"/><path d="M8.6 67.4c13.3.3 26.7-.2 40 1.8q2.2.3 4.3.9 1.3.4 2.6.4l4.4-1c6.8-1.2 11.7-1 17.4 3.3 3.7.3 7.6 0 11.3 0q1.3 0 2.6-.6l4.4-1.1q9-1.7 18.2-2.3 8.2-.8 16.6-.5 3 0 6 .9c1.5.3 3 1.5 4.4.6 2.7-1.3 5.8-1 8.7-1.2q4.8-.5 9.6-1.1l4.3-.5q3.5.2 7 .7h13" class="b"/><path d="M8.6 65.6q10-.3 20-.6 10.6-.4 20.8 1.5c1.8.3 3.5 1 5.3 1.1l4.3-.8c7.7-1.3 12.5-1.5 19.2 3q1 1 2.6.8h6.1l3.4-.7 7-1q11.7-1 23.5-2.3c7-.4 14.4-1.4 20.9 1.8 1.1-.1 2.3-.8 3.4-1q2.6-.2 5.3-.6 6.4-1.2 13-2.2l11.3 1.4 8.7.1" class="b"/><path d="M8.6 64.1c11.3-.4 22.6-.3 33.9-1.6 2.6 0 5.3.7 7.8 1.2 1.7.3 3.5 1.3 5.2.7 5.2-.9 10.5-1.8 15.7-.9 3 .7 6 2.3 8.7 4q1.6 1 3.5.7 2.6.1 5.2-.6 3.9-.7 7.8-1.1a191 191 0 0 1 15.7-1.3c2.9-.2 5.8.2 8.7-.1 7.8-.8 16.4-2.3 23.5 1.7 6.7-1.2 13.2-3.7 20-4.5 6.4.7 12.7 1.8 19.1 2.2" class="b"/><path d="M8.6 62.9c9.5-.3 19.1-.3 28.7-1.3q5.3-.6 10.4-1.4l6.1 1.5 1.7-.3c11.2-1.8 16-2.3 26.1 3.6l1.8 1q1.3 0 2.6-.2a155 155 0 0 1 40.9-3l6-.5a27 27 0 0 1 10.5 1.2q1.4.6 2.6 1.4l.9.6.9.1c4.5-1.8 9-3.8 13.9-4.7l4.3-.8q3 .3 6.1.8 5.7.7 11.3.9" class="b"/><path d="M8.6 61.8c9.2-.2 18.6-.3 27.8-1.4q4.8-.6 9.6-1.6l4.3-.9 3.5.9 6-.9q3.6.4 7 .4 2.3 0 4.4-.4c3 .1 6 1.8 8.7 2.9 2 .8 4 2 6 2.7q5.7-1.1 11.4-2 10.8-1.5 21.8-1.8c4.3 0 8.8-.1 13 .9 2 0 4-.5 6-.3 3.8.2 7.6.8 10.5 3.3h2.6L154 62a37 37 0 0 1 15.6-4.2q7 1 14 1" class="b"/><path d="M8.6 59.8q3.8-.4 7.8.2 2.2.4 4.3.7a124 124 0 0 0 31.4-5c1.4.4 2.9 0 4.3 0l9.6.9q2.6 0 5.2-.5l2.6-.6 1.8.6q4.4 1.6 8.7 3.4c1.3.4 2.8 1.4 4.3 1.4q3.5-.8 7-1.3 12-2 24.3-2.6c5.8-.2 11.8-.2 17.4 1.4q2.7-.2 5.2.2 3.9.3 7 2.6c1.7 0 3.6.3 5.2-.2q4-2.6 8.7-3.9a55 55 0 0 1 10.5-1.5q4.7.3 9.5.3" class="b"/><path d="M8.6 57q5.7-.4 11.3 1l2.6 1h6l4.4-.1 4.4-.9 4.3-1.8q5.6-2 11.3-2.9c1.8 0 3.6.6 5.3.8 3.7.5 7.5 1.2 11.3.6q2.6-.6 5.2-1.5 2.2.5 4.3 1.3 4 1.5 7.9 2.8l3.4 1q1.3 0 2.7-.3a199 199 0 0 1 29.5-3.6c6.4-.2 13-.3 19.2 1.9q1.7.3 3.5.5 2.2.3 4.3 1.7l.9.4h3.5c1.4 0 3.2.3 4.3-.8 7.5-4.5 16.7-4.5 25.2-4.4" class="b"/><path d="M8.6 54.1a39 39 0 0 1 13 2 5 5 0 0 0 2.6.5h10.5c1.5-.2 2.9-1.5 4.3-2q3.4-1.5 7-2.5c2.2-.5 4.6-1.6 7-.9 1-.4 2.3.2 3.4.6q2.5.7 5.2 1c2.3.3 4.7.7 7 .3q2.7-.5 5.2-1.6 1.8-1 3.5-.2C82.7 53 88 55 93.8 55.8c10.6-2 21.4-3.8 32.2-4 8.4-.4 17 0 24.4 4.6 1.6.4 3.5.1 5.2.2 1.4-.1 3 .3 4.3-.4 7-4.4 15.6-4.3 23.5-4" class="b"/><path d="M8.6 51.4a36 36 0 0 1 13 2.3 5 5 0 0 0 2.6.6h7c1.4-.1 3 .3 4.3-.4q3-1.8 6.1-3a52 52 0 0 1 7.9-2.3c1.4 0 3 .9 4.3.1 2.1.1 4.1 1.5 6 2.1 2.4.4 4.7 1 7 .9 3.4-.2 6.4-2.3 9.6-3.2 7 2.5 14.2 4.7 21.8 4.5l10.4-2q10.8-1.7 21.8-1.8c7.7-.2 16.2.1 22.6 5q4.3 0 8.7 0c6.4-4 14.4-3.8 21.7-3.2" class="b"/><path d="M8.6 48.8A38 38 0 0 1 23.4 52h11.3c4.1-2.9 9-4.6 13.9-5.7 1.1 0 2.3.7 3.5.5l1.7-.6q3.6 1.3 7 3c2.2.7 4.6 1.2 7 .7 1.4-.3 3-1.2 4.3-1.9l4.3-1.7c10.5 3.5 15 4.3 26.1 3.8a155 155 0 0 1 40-3.2q4.1.4 7.9 2.2c1.5.7 3 2 4.3 2.9h8.7q2.5-1.3 5.2-2 7.5-1.5 14.8-.2" class="b"/><path d="M8.6 46.2q7.6.2 14.8 3.4h10.4c1.3 0 2.3-1.3 3.5-1.8A40 40 0 0 1 47.7 44q1.4.3 2.6.7 1.3-.4 2.6-.7l2.6 1 7 3.2q3.1.8 6-.5c2.6-1.2 5-3.2 8-3.6l3.4 1.3A45 45 0 0 0 99 47.6c3.8-.2 7.7-.2 11.3-1.1q11.8-2 23.5-2.4c7.8-.2 15.8-.3 21.8 5.4 3.1.3 6.4 0 9.6.1q2-.8 4.3-1.4c4.6-1 9.4-.5 14 .5" class="b"/><path d="M8.6 43.7q7.7.4 14.8 3.6h9.5c2 0 3.5-1.7 5.2-2.4q3.4-1.7 7-2.7 1.7-.9 3.5-.2c.8.2 1.8-.2 2.6-.4q4.5 1.4 8.7 3.3c3.5 1.6 5 2.6 8.7.4 2.2-1.4 4.4-3 7-3.6 9 3.6 14.6 4.5 24.3 3.4q5.3-.5 10.4-.7 8.2-1.7 16.6-2.3c6.6-.4 13.4-1.1 20 0 3.6.6 6.9 2.7 9.6 5 3.4.4 7 0 10.4.2a22 22 0 0 1 12.2-.7q2.1.6 4.3.7" class="b"/><path d="M8.6 41.3q7.1.5 13.9 3.2 7-.3 13.9-1.9c2.1-.3 4.1-1.4 6-2.1 1.7-.5 3.6-1.5 5.3-.8 1.7-.7 3.6.3 5.2.7 3 .8 11.8 5.1 14 3.5 2.5-1.6 5-3.5 7.8-4.5 6.8 2.4 11.6 4.2 19.1 3.6q6.6-.7 13-1.3c3.2-.4 6.5 0 9.6-.6 6.3-1.1 12.8-1.5 19.2-2 8.6-.5 15.8-.2 22.6 5.8 8.4.3 16.8 0 25.2 0" class="b"/><path d="M8.6 38.9q4.4.4 8.7 1.4a99 99 0 0 0 23.5-2.1c2.3-.3 4.6-1.6 7-1 6.3 1.3 12.4 4.7 19 4.3 2.5-1.5 5-3.8 7.9-4.4 11.8 5 17.6 3.2 29.6 1.8a78 78 0 0 1 13.9-.3q4.3-.8 8.7-1.1c8-.6 16.4-2.3 24.3 0q5.2 1.9 9.6 5 1.7.3 3.5.2h19.1" class="b"/><path d="M8.6 36.5a182 182 0 0 0 33.9-1.8q1.3.1 2.6.1 2.6.9 5.2 1.4c5.7 1.4 11.5 3.3 17.4 2.3 1.7-1 3.4-2.4 5.2-3.2q.9-.5 1.8-.5 1.7.7 3.5 1.3 3 1 6 1.3c7 .8 14-1.1 21-1.7q5.2-.6 10.4-.4c2.3 0 4.6.7 7 .4 6.6-.6 13.3-1.6 20-1.8 5.3-.3 10.7 1 15.6 3l6 2.5q2.2 1 4.4 1h8.7c2-.1 4.2.2 6.1-.3" class="b"/><path d="M8.6 33.3q7.8 0 15.6-.2 6.1-.3 12.2-.7c2-.2 4.1.6 6 .4.8-.4 2-.5 2.7-.1q1.8.5 3.5 1.3c4 .8 8 1.8 12.2 2q2.2 0 4.3-.2 1.8.1 3.5-.2c1.9-1.2 3.8-2.8 6-3.2q9 3.4 18.3 1.8 6.6-1 13.1-1.8l6 .2c2.4 0 4.8-.4 7 0 2.6 0 5.3 1 7.9.6 8.3-.7 16.8-2.8 25.2-1.3 5.3 1 10.4 2.9 15.7 3.8 5.1.9 10.4.5 15.6 0" class="b"/><path d="M8.6 30.4q6 0 12.1-.2c3 0 5.9-.3 8.7-.1q5.2.2 10.5.8c1.1 0 2.3-.8 3.5-.9q2.6.8 5.2 2 4.3.8 8.7 1.2 3.9.2 7.8-.2c1.4-.2 3 0 4.4-.2q2-1.4 4.3-2.3 1.3-.6 2.6 0c7.1 2.2 14.6.8 21.8-.3 1.7-.3 3.5.3 5.2.4q4.3.6 8.7.5c3.5 0 7-.7 10.4-1 2.3.2 4.7 1.2 7 .8 6.6-.6 13.3-2 20-1.9 5.8.3 11.6 1.8 17.4 2.5 5.5.7 11 .6 16.5.5" class="b"/><path d="M8.6 27.8c7.2-.3 14.5.3 21.7.4 2.9.1 5.8.7 8.7.7q1.7-.8 3.5-1.3l6 2.3 7 .7c5 .3 9.9-.8 14.8-.5q2.9-1.6 6.1-2.4 3.9.9 7.8.9c3.2 0 6.4-.7 9.6-.8q5.7 1 11.3 1.7c6.2.8 12.3-.4 18.3-1.7 2.3-.2 4.7 1.2 7 1 7-.4 13.8-2 20.8-2.1 5.3 0 10.5 1 15.7 1.3 5.5.5 11 .5 16.5.8" class="b"/><path d="M8.6 25.4q6.5 0 13 .3 7.5.3 14.8 1c1.5.3 3-.7 4.4-1 1-.6 2.4 0 3.4.5 1.7.5 3.4 1.6 5.2 1.5q5.7.6 11.4.1 5.6-.5 11.3-.5 4.6-2 9.5-1.9 7.5-.2 14.8 1.6a38 38 0 0 0 18.3.7q4.8-1.2 9.6-2.3l7 1.7 3.4-.4c6.1-.5 12.1-2 18.3-2.3 4.9 0 9.9.5 14.8.7l15.6.9" class="b"/><path d="M8.6 23.2a188 188 0 0 1 28.7 1.2q2.1-.7 4.3-1.3 2.7.8 5.2 2 8.2.6 16.6-.2 5.2-.5 10.4 0a33 33 0 0 1 10.5-1c7 .3 13.8 3.4 20.8 3.7q5-.2 9.6-1.9l6-1.8c1.2-.3 2.4-.8 3.6-.7q3 .7 6 1.7l2.7.7 2.6-.2c6-1 12.1-2.5 18.3-3q7-.3 13.9.2 7.8.2 15.6 1" class="b"/><path d="M8.6 21q4.8-.1 9.5-.4l8.7.6 7 .5 3.5.2q1.3-.2 2.6-.7 1.3-.6 2.6 0 1.8.5 3.5 1.3 3.4.3 7 .3c7.8 0 15.6-1.3 23.4-.4 3.2.4 6.4 0 9.6.7 4.1.6 8.1 2 12.2 3 1.6.5 3.5.2 5.2.3h2.6q2.2-.5 4.3-1.3 4.8-1.9 9.6-3.5 1.8-.6 3.5-.8l3.5 1 7.8 2.6c1.7.2 3.6-.5 5.2-.8 4.4-.8 8.7-2.2 13-2.8q7.5-.7 14.9-.4 7.8.3 15.6 1" class="b"/><path d="M8.6 18.6c6 0 12.2-.4 18.2 0l11.3.8c1.1-.3 2.4-1 3.5-.8 1.4.3 2.9 1.2 4.4 1.3q5.2.4 10.4.3c8.1-.4 16.3-1.3 24.4.1a51 51 0 0 1 8.7 2l4.3 1.8h10.5c1 0 2.4 0 3.4-.2l1.8-.8q5.9-3 12.2-4.7c3 .5 5.8 1.8 8.7 2.7l7 2.6q5.1-1.4 10.4-2.9 5.5-1.7 11.3-2 12.2-.5 24.3.6" class="b"/><path d="M8.6 16.4q10 0 20-.3l7 .4 3.4.3 1.7-.6c1.2 0 2.4.6 3.5 1H46c8.4.8 16.8 0 25.2-.1a60 60 0 0 1 15.7 2c2.3.6 4.6 1.8 7 2.6h13c4.2-2 8.4-4.2 13-5.6q.9-.1 1.8.1a109 109 0 0 1 12.1 4.6l1.8.8q1.2.2 2.6.1h5.2c4-1.4 8-3 12.2-3.5 9.2-1.6 18.6-1.1 27.8-.5" class="b"/><path d="M8.6 14.1q7.8.5 15.6.2c4 0 8.2-.7 12.2-.4l3.5.3q.9-.4 1.7-.3 2.2.8 4.4.8l7 .4c6.6.3 13.3-.4 20-.3q7.6.1 14.7 2.5 2.8.9 5.2 2.1H106l1.7-1q5.4-3 11.3-4.7 2.7.6 5.3 1.6a119 119 0 0 1 9.5 4q1.4.2 2.6.1h12.2c1.2 0 2.4-.7 3.5-1l5.2-1q4.4-.8 8.7-1.2 8.7-.1 17.4-.1" class="b"/></svg>