<svg xmlns="http://www.w3.org/2000/svg" id="a" width="1920" height="2400" viewBox="0 0 192 240"><defs><style>.b{fill:none;stroke:#fff;stroke-miterlimit:10;stroke-width:.3px}</style></defs><path d="M0 0h192v240H0z" style="stroke-width:0"/><path d="M8.5 224c3.5 0 7 .3 10.5 0 7.5-1 15-2.3 22.6-3q2.2-.3 4.3-.4l7 .8 3.5.5q1.3-.5 2.6-1.1c2.5.6 4.8 2.4 7 3.8 1 .6 2 2 3.4 1.7h7c3.3-2.4 7.4-3.4 11.3-3.8a42 42 0 0 1 15.7 1.5c.8.2 1.8.7 2.6.6a100 100 0 0 1 23.5-3.8h6q4-.2 8 .3l6.9.7a45 45 0 0 0 18.3-.2q2.1-.6 4.3-.8a53 53 0 0 1 7 2.2c1 .4 2.3 1 3.4.7" class="b"/><path d="M8.5 221.7q12.3-.5 24.4-2 5.6-.7 11.3-1l3.5-.3 8.7 1c2.4-.7 2.6-1.4 5.2-.2q5 2.1 9.6 4.7 3 .1 6 .1c1-.2 1.9-.9 2.7-1.3q2.5-1.2 5.2-1.8a40 40 0 0 1 20.9 1q14.6-3.8 29.6-3.4c3.8 0 7.6.6 11.3 1l11.3 1.2a48 48 0 0 0 15.7-.8l5.2-1c1.4-.3 3-.8 4.4-.3" class="b"/><path d="M8.5 218.9a383 383 0 0 0 40-2.8q3.1.2 6.2.6l1.7.3 3.5-1 13.9 4.5c6.9 2.6 5.3.5 11.3-1.3a39 39 0 0 1 19.2-.6c1 .2 2.3.9 3.4.4a112 112 0 0 1 23.5-2.7q2.3 0 4.4-.3c5.8.8 11.6.8 17.4 1.2l16.5 1.2q7 .3 14-.5" class="b"/><path d="M8.5 216.2q9 .1 18.3-.2 11.3-.7 22.6-2.2c2.3-.2 4.7.5 7 .7q2.2-.3 4.3-.8l13 2.6q5.3 1 10.5 2c2-.5 4-1.5 6.1-1.9a37 37 0 0 1 13-.6q2.3.3 4.4 1 4-.8 7.9-1.4 8.6-1.4 17.4-1.2 2.2-.2 4.3-.5 5.7.4 11.4.5c11.6.2 23.2 1 34.8.3" class="b"/><path d="M8.5 213.8q9 .5 18.3.2 11.4-.8 22.6-2.3c2.6-.6 5.3 0 7.9.4 2.2-.2 4.6-.8 7-.7 9 1 17.9 2.5 26.9 3.3 1.7.1 3.5-.6 5.2-.8a33 33 0 0 1 7-.3c1.7 0 3.5.7 5.2.5q6-.8 12.2-1.5 6-.5 12.2-.3 2.6-.5 5.2-.7 11.3-.4 22.6 0 11.4 0 22.7.3" class="b"/><path d="M8.5 211.4q7.5.7 14.8.7a160 160 0 0 0 18.3-1.6l11.3-1.5q3 .3 6.1.8l3.5-.2q5.2-.3 10.4-.5l15.7 1.5q8.7.9 17.4 1c8.4-.3 16.8-1.6 25.2-1.3 2 .2 4.1-.5 6.1-.5q4.8-.3 9.6-.2c12.2.5 24.4 2.6 36.6 2.8" class="b"/><path d="M8.5 209.2a97 97 0 0 0 25.3 0q6.8-1.5 13.9-1.7c2.5-.2 5.2-1 7.8-.7 4 .4 8.1 1.2 12.2 1q5.3-.2 10.5-.7c2.2 0 4.6-.5 7-.2 8.6.4 17.3 1.7 26 1.7 6.1 0 12.2-.5 18.3-.3q2.2.1 4.4 0 3.3-.5 7-.5c9.1-.4 18 2.3 27 4.6h15.6" class="b"/><path d="M8.5 207q9 1.6 18.3.7c1.4 0 3-.8 4.3-1a72 72 0 0 1 15.7-2c1.7 0 3.5.4 5.2.1l4.4-.4 3.5.3 11.3 1.4q7.8-.5 15.7-1.1c3.1-.2 6.4-1 9.5-.6q7 .7 14 1.3 7 .3 13.9.3 4.8 0 9.6.6 3.8-.4 7.8-.4a40 40 0 0 1 15.7 3.7h8.7l9.6.2c1 0 2.4-.5 3.4-.6q2.2-.4 4.4-.6" class="b"/><path d="M8.5 204.9q8.2 1.6 16.5.7a58 58 0 0 1 27-3c2.6 0 5.3-.5 7.9-.5q6 .5 12.2 1.3c2.5.2 5.2.9 7.8.5q11.8-.6 23.5-2c3.5.3 7 1 10.4 1.2l13.1.8q4.8.4 9.6 1.1h6q3.2.3 6.2 1.3c1 .4 2.3 1.1 3.4 1 6.1-.1 12.2-1.2 18.3-1q6.5-1.6 13-2.4" class="b"/><path d="M8.5 202.7q6.9 2 14 1.1 3.3-1.4 6.9-2.3a99 99 0 0 1 13-1.7 44 44 0 0 1 9.6.7q3 0 6.1-.4c1.7 0 3.6-.5 5.2-.3l13.1 1.4c10.7 1.2 21.6.1 32.2-1.5 2-.2 4.1.5 6.1.6l10.5 1.2q5.6.5 11.3 1.5c4 .7 8 1.7 12.2 1.8 5.2 0 10.4-1.3 15.6-1.8q4.4-.4 8.7-.5l10.5-1.7" class="b"/><path d="M8.5 200.7c4 1.2 8 2.2 12.2 1.6q2.4-1.6 5.2-2.4 5.6-1.6 11.3-1.9c3.2-.2 6.4-.6 9.6-.3q2.6.2 5.2.6 3.5 0 7-.2l6-.8q5.3.8 10.5 1.2 6.6.3 13.1.6c2.6 0 5.2.9 7.8.6q8.3-.6 16.6-2.3 6 .9 12.2 1.6 6.5 1 13 2.2c4.3.8 8.7 1.7 13 .9 6.4-1 12.8-2.7 19.2-3a49 49 0 0 1 7 .2q1.7.3 3.5.3l2.6-.5" class="b"/><path d="M8.5 198.6q3.4 1.4 7 2.2 2.2 0 4.3-.2 2-1.6 4.4-2.6c3.5-1.5 7.5-1.8 11.3-2 2.6 0 5.2-.8 7.8-.6 5.2.3 10.5 1.3 15.7.7l7.8-1c4 .5 8.1 1.2 12.2 1.2q7.5-.2 14.8.1 2.2.1 4.4.7l2.6.8 1.7-.2c4.4-.5 8.7-1.8 13-2.5 8.5 1 17 2.7 25.3 4.1q3.5.7 7 .5c5-.5 9.8-2 14.8-3q10.4-2 20.9.4" class="b"/><path d="M8.5 196.6q2.2 1 4.4 1.8h7c4-3.6 9.5-4.2 14.7-4.4 9.5-2.5 11.2-.7 20 .2 4.4.3 8.8-.7 13.1-1.5q3.5.6 7 1c7.2.8 14.5-.6 21.7-.2a21 21 0 0 1 7.8 2.3q1.4 0 2.7-.3 5.6-1.5 11.3-2.7c7.5 1.2 15 2.8 22.6 4 7.1 1.4 14-1.4 20.9-2.8a52 52 0 0 1 21.8.3" class="b"/><path d="M8.5 194.7q1.8.4 3.5 1.4h7.8q1-.2 1.8-.9 1.6-1.1 3.4-1.8 3.8-1.2 7.9-1.3c1.3-.4 3-.9 4.3-1.1q1.8-.5 3.5-.6a25 25 0 0 0 5.2 0q1.4.1 2.6.5 3.5 1 7 1.4 4.4.1 8.7-1c1.4-.2 3-.8 4.3-.8l4.4.8q4.7.7 9.6.3c6-.3 12.2-1.7 18.3-.6q2.2.5 4.3 1.5l2.6 1.3c4-1.1 8-2.5 12.2-3.3q8.3 1.3 16.5 3.1 4.4.9 8.8.9c2-.3 4-1 6-1.2 3.9-.2 7.5-1.9 11.4-2.3q10.5-1.7 20.9.6" class="b"/><path d="M8.5 192.3q1.8 0 3.5.7.8.6 1.7.8h7.9a15 15 0 0 1 7-3.2q2.1-.1 4.3-.8a38 38 0 0 1 7-1.7q3.4.5 6.9 0c2.6.4 5.2 1.7 7.8 2 4.8 1 9.4-.8 14-2 3.4.7 6.9 1.6 10.4 1.5 4.7 0 9.3-1 14-1.5q2 .3 4.3.3l4.3-.3q4.3.8 7.9 3.4c1.4 0 3-.8 4.3-1.2l7-2c1.6-.4 3.5.4 5.2.6l9.6 2 6 .8c2.7-.2 5.3-1 7.9-1h2.6l3.5-1q3.8-1 7.8-1.4 2.6-.4 5.2 0 3.5 0 7-.2 2.2-.2 4.3.3 1.8.1 3.5-.2" class="b"/><path d="M8.5 189.8c2.1-.5 4.4.3 6.1 1.6h3.5c1.6 0 3.6.4 5.2-.3a15 15 0 0 1 7-2.5q4.1-1.9 8.7-2.6c1.4-.3 3 0 4.3 0 1.8-.1 3.5-.4 5.2.2 5.3 2 9.2 3.6 14.8 1.4l5.3-1.8q2.2.3 4.3 1 2.6.6 5.2.7 2.2-.4 4.4-.5c3.2.2 6.4-.8 9.6-1.2q3.3.7 7 .8 1.6 0 3.4-.3 1.3-.4 2.6-.4 2.3.6 4.4 2c.7.4 1.6 1.3 2.6 1.3a89 89 0 0 1 11.3-3.5q6 1.3 12.2 2.4c4.9 1.3 9.8-.6 14.8 0 2 0 4-.9 6-1.2q3.5-.7 7-1.1 1.8-.2 3.5 0 1.8.1 3.5.3 4 .1 7.8-.4 2.7.2 5.2 1" class="b"/><path d="M8.5 187.7c2.6-1.5 5.7-.5 7.8 1.3 2.6.3 5.3 0 7.9.1.8-.1 1.8-.8 2.6-1q1.2-.6 2.6-1 2.4-1.4 5.2-2.3c5.6-1.7 12-2 17.4.6 6 2.6 8.3 1.5 14-.9l2.6-.9c2.3 0 4.6 1.2 7 1.5 1 .3 2.3-.2 3.4-.3q2.2-.3 4.3-.4 1.8.1 3.5 0c1.7-.3 3.5-.9 5.2-.9 5 1.4 9.9 1.9 14.8 0q3.5 1 6.1 3.3c1.4.2 3-.9 4.4-1.2l7-2c1.3-.3 3 .3 4.3.5l7 1.4c2.8.7 5.8.2 8.7 0h3.4q1.4.3 2.6 0c4.6-.8 9.3-1.8 14-2.1l7 .5q3.8 0 7.8-.4 2.2.1 4.3.8" class="b"/><path d="M8.5 186c1.8-2 4.7-2.2 7-1.2 1.2.4 2.3 1.5 3.4 2h8.8a23 23 0 0 1 24.3-3.4c6.9 3.5 8.5 1.2 14.8-1.4q1.3-.6 2.6-.8l3.5 1c1.4.4 3 1 4.4.4q3.8-.9 7.8-.6c1.8.4 3.5-.3 5.2-.7 1.1-.4 2.4.1 3.5.4q3 .9 6 1.2c3 .3 6-.6 8.8-1.6 2.3.3 4.4 1.9 6 3.3q4-1.5 8-2.6c1.3-.4 2.8-1 4.3-.9q4.7 1 9.5 1.8c2.3.4 4.7.1 7 .1s4.7.5 7 0q7.3-1.2 14.8-2 3.4.5 7 .6a38 38 0 0 0 8.6-.4q1.4.1 2.6.5" class="b"/><path d="M8.5 184.1c1.2-.6 2.2-2 3.5-2.3 3-1.1 6.4.3 8.7 2.3q1.2.6 2.6.4h4.3q1.6.1 2.7-1 1.1-1 2.6-1.7a23 23 0 0 1 17.4-1q2.5 1.3 5.2 2.4c2.7 1.1 5.5-.2 7.8-1.5q3-1.6 6.1-2.8c2 .3 4 1.2 6.1 1.6 1.4-.1 3-.6 4.4-.7q3.3-.5 7 0l4.3-1 2.6.8a19 19 0 0 0 16.5-.7q1.9.6 3.5 1.7c.8.4 1.6 1.4 2.6 1.5a58 58 0 0 1 11.3-3.3q5.7 1 11.3 1.8 7.6.6 14.8-.4c2.6-.4 5.4-.3 7.9-1.2 1.5.5 3.6-.2 5.2-.3q3.5.5 7 .8 2.6 0 5.2-.3l2.6-.4 1.7.3" class="b"/><path d="m8.5 181.3.9.8c1.2-.7 2.1-2.3 3.5-2.8 3.8-1.9 8.2.2 11.3 2.7 2.2.4 4.7 0 7 .1a19 19 0 0 1 17.4-3.3c2.7.6 5 2.5 7.8 3.2 1.8.4 3.7-.3 5.2-1.2l5.2-3c1.3-.5 3-1.7 4.4-1l4.3 1.3c1.1 0 2.4-.5 3.5-.6q4-.6 7.8 0l3.5-1q1.4.2 2.6.6c9 3.2 10.4 3 19.2-.6q2.7 1.4 5.2 3.1 6-2.2 12.2-3.1 4.3.8 8.7 1.3 7.4.9 14.8.3l4.3-.3c1 0 2-.7 2.6-1.2q.9.5 1.8.8l7-1q3.8.8 7.8.6c2.3 0 4.7-1 7-.2" class="b"/><path d="M8.5 178.2c.5.3 1.3 1.1 1.7 1.5l1 .1c3.1-5.3 9-4.7 13.9-2.2q2.2 1 4.3 2.2 2.7.2 5.2-.1l1.8-1c4.9-2.4 10.9-2 15.6.7 1.2.8 3 .3 4.4.4 1.4 0 3 .3 4.3-.3q4.1-3 8.7-5.1.9-.2 1.8.2l3.4 1.1q1.4.1 2.7-.4a28 28 0 0 1 7.8-.5c1 .1 2.4.4 3.5 0q1.2-.6 2.6-.5l4.3 1.5c3 1.2 6.4 2.3 9.6 1.7 2.8-.6 5.3-2 7.8-3.1a3 3 0 0 1 1.8.5l3.5 2.3q6-2 12.1-3l9.6 1.5a95 95 0 0 0 16.6.4c1-.2 1.8-1.3 2.6-1.8.8.3 1.7 1.3 2.6 1.4l7.8-1.2c2-.5 4.1-.1 6.1-.2l4.4-.2c1 .1 2.4.3 3.4.6" class="b"/><path d="M8.5 175c1.2.5 2.5 1.6 3.5 2.5l.9-.2c4.3-7.3 12.8-3.6 19.1-1.7q4.3 1.2 8.7 1.3 7-.2 14 0 1.6.2 3.4.6h2.6q4-3.5 8.7-5.7l4.4 1.7a32 32 0 0 1 9.6-1.4q2.6.2 5.2.5l2.6-.8c12 4.4 11.5 6.4 23.5 0q2.3 1.1 4.3 2.7c2.4-.4 4.7-1.3 7-1.7 1.7-.3 3.5-1 5.2-.9q12 2.2 24.4 2.6c1.2-.7 2-2.2 3.5-2.5l2.6 2c1.4.4 3-.2 4.3-.5q3-.7 6.1-1.3c3.8-.6 7.6-.2 11.3.4" class="b"/><path d="M8.5 171.8q3 .9 5.2 3.1l.9.2c4.2-7 12.6-4.7 19.2-3.4q7.7 1.3 15.6 1.6c3 .1 6.1.4 8.7 1.9 2.5.1 2.6-.3 4.4-1.8q2.8-2.4 6-4l3.6 1.7c1.7-.2 3.4-1 5.2-1.2q5.7-.9 11.3.2 1.3.3 2.6-.4 1-.1 1.7.2l3.5 1.6c6 2.9 8.7 4.2 14.8.6l3.5-1.9c.4-.3 1.3-.6 1.7-.5q1.9 1 3.5 2.2c1.5 0 3-.7 4.4-1q3.4-.9 7-1.3 11.6 2 23.4 3.5c1.5-1 2.6-3 4.4-3.5q2.3 1.6 4.3 3.5c8.4-2.5 11-3.7 20-2.3" class="b"/><path d="M8.5 168.3c1 .8 2.4.8 3.5 1.3q2.4 1 4.3 2.9c1.4-.6 2.2-2.2 3.5-2.9 4-2.4 8.7-2 13-1.4q8.8 1.3 17.5 2.2 3.1.4 6 1.9c1 .7 2.5.7 3.6.2a38 38 0 0 1 7-5.2c1.2-.1 2.3 1 3.4 1.5q1.3-.2 2.6-.8l3.5-.8c1-.2 2.4.1 3.5.1H85c2-.3 4 .5 6 .5.5-.2 1.4-.5 1.8-.5q2.8 1.1 5.2 2.5 5.2 2 10.5 2.3c3-1.3 5.7-3.4 8.7-4.9a20 20 0 0 1 3.5 2.2c2.3-.2 4.6-1.1 7-1.5 1.3-.3 2.9-.9 4.3-.5 7.2 1.5 14.6 2.5 21.7 4.4.7-.2 1.4-1 1.8-1.5q1.6-1.7 3.5-3c2.3.8 4.2 3 6 4.6 3.7-1.3 7.4-3.2 11.4-3.2l4.3.1c.8.1 1.9.3 2.6-.2" class="b"/><path d="M8.5 165.4c1.6.8 3.6.5 5.2 1.1q1.9.7 3.5 1.6c.8.4 1.7 1.3 2.6 1.5 3.6-4.2 9.7-4.4 14.8-3.9q6.6.6 13 1.7a24 24 0 0 1 8 2.9q1.3.5 2.5 0 3.1-3.2 7-5.4c1.3 0 2.4 1.1 3.5 1.7 1.6-.6 3.4-1.5 5.2-1.8 2.6.3 5.2.8 7.8.7q3.5 0 7-.7c1.7.2 3.6 1.1 5.2 0 1.5.6 3 1.6 4.3 2.2a36 36 0 0 0 13.1 2.2c1-.1 1.9-1 2.6-1.4l4.4-2.8c1.3 0 2.4 1.2 3.4 1.9l6.1-1.4 2.6-.5q1.4 0 2.6.3c7 1.4 14.2 2.8 21 5.2 1.7-2 3.6-4.4 6-5.7 3 1.4 5.2 4 7.9 5.7 2.4-1.3 5-2.6 7.8-3q2.2-.3 4.3-.3l3.5-1.4" class="b"/><path d="M8.5 163q3.5-.1 7 .4 4.2.8 7.8 3.3c4.5-3 7.8-3.2 13-3 5.7.5 11.7 1 16.6 4 1.9 1.2 3-.1 4.4-1.3a24 24 0 0 1 6-3.9c1.2.5 2.3 1.6 3.5 1.7 1.6-.7 3.5-1.9 5.2-1.6a33 33 0 0 0 15.7.3q1.3-.1 2.6-.4l3.5.7.9-.5c1.6 0 2.8 1.6 4.3 1.8 4.5 1.2 9.3 2.2 14 1.7.8 0 2-.4 2.5-1 1.4-.9 2.8-2.2 4.4-2.5l2.6 1.6 7.8-1.7q6.6 1.2 13.1 2.9a46 46 0 0 1 6 2l1.8.7 3.5-.1q2.4-3.5 6.1-5.5c3.7 1.2 6.3 5.3 10.5 5.6l1.7-.7q1.6-.8 3.5-1.2c2.3-.9 4.5-2.4 7-3.2" class="b"/><path d="M8.5 160.2q2.2-.2 4.4.1l4.3-.1q6.2.5 11.3 3.6c.5 0 1.4-.1 1.8-.3q1.6-.5 3.4-.8 8.8-.8 16.6 3.1 4.5-3.2 9.6-5.4c1.6-.3 2.8 1.5 4.3 1.6 1.6-.7 3.4-1.9 5.2-1.8q4.3 1.4 8.7 1.5a70 70 0 0 0 13.1-1.5c1.7 0 3.7 1 5.2 0 1.1.6 2.3 1.6 3.5 1.8q4.3.9 8.7 1.3 4 .3 7.9-.3 2-1.4 4.3-2.8c2.5 1.7 2.4 1.4 5.2.8q2.2-.4 4.4-.7a215 215 0 0 1 14.8 3.6q2.2.7 4.3 1.9 3 .2 6.1 0a18 18 0 0 1 4.4-4.3c.7-.4 1.6-1.3 2.6-1.1 2.3 1.2 4.5 3 7 4 2.5 1.1 5.4.1 7.8-1.1q3-1.6 6-2.7" class="b"/><path d="M8.5 157.9c2.6 0 5.3.7 7.8.8q4.9.3 9.6-.7c1.8-.3 3.6.5 5.2 1l6.1 1.6q4.9 1 9.6 0c3-.5 5.9-1.6 8.7-2.5 1.9-.1 3.6 1.3 5.2 2q1.7-1 3.5-1.6 1.3-.6 2.6-.6 5.2 1.7 10.5 1.7t10.4-1l4.4-.7q2.2 0 4.3.6l.9-.5c1 0 1.9.8 2.6 1.2q3.9.8 7.8 1 5.2.7 10.5-.3c1.3 0 2.3-1.4 3.5-1.9l1.7.9c2-.1 4.1-.7 6-1q6.8 1.2 13.2 3.1 3.5 1.1 7 2.5h6.9c2-2 4.3-4.2 7-5.6 10.3 5.9 9.5 4.3 20 .3" class="b"/><path d="M8.5 155.7q4.9.3 9.6 1.6 3.4.6 7 .4c3.8 0 7.5-1.2 11.3-1.5a41 41 0 0 1 17.4 1q1.3.6 2.6.8a43 43 0 0 1 7-2.5c3.6 1 7.4 1.9 11.3 1.9q9.1-.1 18.3-1.9 2.2.2 4.3.6l1.7-.6 1.8 1.2 6 .6c3.8.2 7.7.5 11.4-.2q2.4 0 4.3-1.3c.5 0 1.4.2 1.8.5l4.3-.7c3.6.3 7 1.4 10.5 2.2l7 2.2q2.2.2 4.3 1.2h7c1.3-.5 2.4-1.9 3.4-2.8 1.3-1 2.7-2.4 4.4-2.8 8.4 4.8 9.8 3.5 18.3.3" class="b"/><path d="M8.5 153.8c6-.4 11.6 2.5 17.4 3.6q3 .5 6.1.3l5.2-.6q3-.3 6.1-.4c1.4 0 3 .4 4.4 0l7.8-2.4 3.5-1a3 3 0 0 1 1.7 0q4.8 1.3 9.6 1.6c1.4.2 3-.4 4.4-.4q3.3-.2 7 .3 6-.6 12.1-1.7 1.8.2 3.5.5c.8.3 2 .1 2.6-.5l1.7 1q3.5.5 7 .4 3.5.2 7 0 3.3-.1 7-.7c.3-.2 1.2-.4 1.6-.4a4 4 0 0 0 1.8 0q2.6-.4 5.2.4a122 122 0 0 1 14.8 4q1.3 0 2.6.3 1.4.1 2.6.8h5.2c1-.3 1.9-1.2 2.7-1.7q1.6-1 3.4-1.3c1.3-1 2.7-2.4 4.4-2.5 7.1 3.7 9.3 2.8 16.5.3" class="b"/><path d="M8.5 151.3c1.8.9 4.1.5 6.1 1 3 .6 5.9 2 8.7 3q10.5-.7 20.9-2.2l7.8-1.5 3.5-.6 2.6.3q4.4.8 8.7 1.2c1.7-.2 3.5-.8 5.2-1a35 35 0 0 1 12.2.7l2.6-.2q4-.6 7.8-1.1 2.6.2 5.3.6l.8-.6q1 .1 1.8.8 7.4.3 14.8-.1l6-.5 2.7-.3q1.3.1 2.6.4 9 1.4 17.4 4.5c2 .1 4.2 0 6 .8h4.4c.9-.5 1.8-1.5 2.6-2q2.5-1.5 5.3-1.7c1.5 0 2.7-1.8 4.3-1.8 5.7 2.7 9 2.6 14.8.4" class="b"/><path d="M8.5 148.5q2.2.9 4.4 1.6a29 29 0 0 1 9.5 3.3q1.4.2 2.6.2c4.7-.4 9.4-1.8 14-2.7q4.3-1 8.7-1.6c2.2-.2 4.6-1 7-.5q3.8.7 7.8 1c4.3-.6 8.6-1.5 13-1.3q3.5 0 7 .6c1.4.2 3 .8 4.3.6q4.8-.7 9.6-1.2l4.4.5q.8-.5 1.7-.4l.9.6q8.7 0 17.4-.7c1.7 0 3.5.5 5.2 0 1.9.8 4.1.8 6 1.3a185 185 0 0 1 13.1 3.4c.8.2 1.8.9 2.7.6a18 18 0 0 1 5.2.4h3.5c1-.8 2.2-2 3.4-2.7a15 15 0 0 1 7-1.4c1.2-.3 2.3-1.2 3.5-1.6 4.5 1.8 8.3 2.3 13 .7" class="b"/><path d="M8.5 146.3c1.1-.4 2.4.3 3.5.6l6 2.4c2.5 1.1 5.2 2.2 8 2.4 5 .1 9.8-2 14.7-3.2q6-1.5 12.2-2.2l5.2.6 4.4-.4q5.2-.6 10.4-.7 7 .3 14 1.6 5.2-.7 10.4-1 2.2-.2 4.4.1l1.7-.3c1 .7 2.4.4 3.5.4l7.8-.3 7 .4 2.6.2c.8 0 2 0 2.6-.5q1 .1 1.7.7l3.5.7q4.4.9 8.7 2 2.2.5 4.4 1.2 1.1.6 2.6.9h8.7c3.4-3 5.7-4.3 10.4-4.3h2.6q1.3-.8 2.6-1.2c.5-.2 1.4-.1 1.8 0q1.3.5 2.6.7 3.5.5 7-.3" class="b"/><path d="M8.5 144c2.7-.4 5.3.7 7.8 1.5 5.1 1.7 10.1 4.9 15.7 3.8q4.5-2.8 9.6-3.8c8-1.5 16.2-1.8 24.4-2.1a88 88 0 0 1 19.1 1.3q1.8.5 3.5.3 7-.9 14-1l1.7-.1 1.7.2q2.6-.1 5.2-.1c5 .3 9.9 1 14.8 1.2.7-.4 1.7-1.2 2.6-1.1 1.1.5 2.3 1.6 3.5 1.8l7.8 1.7q3.6.9 7 2h9.6c1.9-1.4 3.8-3 6-3.7q2.6-.7 5.3-.7l3.5.2q2-1.1 4.3-1.6 4 .9 7.8.5" class="b"/><path d="M8.5 141.9q3.6-.4 7 .5c4.4 1.2 8.6 3 13 4.2q1.8.4 3.5.3 2-1.5 4.4-2.4 6.2-2.6 13-3 7-.6 14-.6a109 109 0 0 1 20.8 1.6q2.2.4 4.4.3L99 142q4.5-.4 8.7-.4c6.2.2 12.2 1.3 18.3 2 1.2-.6 2.3-1.6 3.5-2l6 3.3q3.6.9 7 1.6l2.7.7h11.3q3.1-2.4 7-3.8 4.3-1 8.6-.2c1.5 0 3-1 4.4-1.2q3.3-.8 7-.5" class="b"/><path d="M8.5 139.6c1 .4 2.4 0 3.5 0q2.2 0 4.3.3c5.6 1 10.9 3.6 16.6 4.2 6.5-4 14.2-5.2 21.7-5.5q9.7-.5 19.2.5l12.2 1.5q3 0 6-.2l11.4-.7q1 0 1.7-.4c2.6.5 5.3.2 7.8.6q7 .8 14 2.1c1.3-1 2.7-2.4 4.3-2.6q3.6 1.7 7 3.6l2.6 1.7q1.7.3 3.5.2h12.2c1.9-1.1 4-2.4 6-3.1q4.3-1.4 8.8-1c1 .1 2.3.6 3.4.5q4.3-1.5 8.8-1.6" class="b"/><path d="M8.5 137q1.3.4 2.6.7a28 28 0 0 1 7.9 0c5.2.8 10.3 3 15.6 3.5a49 49 0 0 1 21.8-5c8.7-.4 17.4 1 26.1 2.2 4.6.4 9.3-.1 14-.2l5.2-.3c1.4-.1 3.2 0 4.3-1 .8.3 1.7.9 2.6.7q2.6 0 5.2.2 7 1 14 2.5c1.5-1.2 3.2-2.8 5.2-3.3a66 66 0 0 1 10.4 5.6h13q4.6-2.6 9.7-3.7a28 28 0 0 1 7 0c1 0 2.3.6 3.4.5q3.3-1 7-1.2" class="b"/><path d="M8.5 134.8c1.1-.4 2.4.4 3.5.6q3-.3 6-.2c5.4.3 10.6 1.7 15.7 2.8l2.7.4c1.4-.3 2.9-1.1 4.3-1.5q3.8-1.4 7.8-2 9-1.2 18.3-.5c3.8.3 7.6 1.2 11.3 1.4q7.9.8 15.7.5 4 0 7.8-.3 1.8 0 3.5-.3c.4-.3 1.3-1 1.8-1.2l1.7 1.3q4 0 7.8.2 4.9.7 9.6 1.9c1.8.3 3 1.3 4.4-.4a18 18 0 0 1 4.3-2.8c1.2-.1 2.4.7 3.5 1.1l5.2 2.8c1.1.5 2.2 1.6 3.5 1.7h7l2.6-.1 3.4-1.5q4.3-1.6 8.7-2 4.6-.2 8.7 1c2 0 4.1-.7 6.1-.8" class="b"/><path d="M8.5 132.6q1.3-.4 2.6 0 1.7.8 3.5.5c6.4-.8 12.9.7 19.2 2l3.4.5c.8 0 1.9.3 2.6 0q5.2-2 10.5-2.9a98 98 0 0 1 18.3-.2q7.3.8 14.8 1.5 5.6.4 11.3.3 4.8.1 9.6-.2c1.2-.2 2.1-1.7 3.4-1.7 1 .7 2.2 1.8 3.5 1.5l6.1.1a67 67 0 0 1 13 2.8c1-.3 1.9-1.4 2.7-2 1.5-1 3.3-2.2 5.2-2.6 4.2 1.7 8.1 4 12.2 5.7h5.2q5.6-1.8 11.3-2.9a26 26 0 0 1 12.2 1l4.4-.3" class="b"/><path d="m8.5 130.4 1.7-.4q1.9.3 3.5 1 4.4-.7 8.7-.3 5.7.4 11.4 1.5c2.8.4 5.8 1.1 8.7.8q5.9-2 12.2-2.4c3.7-.4 7.6 0 11.3-.7 5.5.4 11 1.4 16.5 1.9q10.8 1 21.8.7 1.6-1.3 3.4-2.4c1.4.1 2.4 1.4 3.5 2 3.2 0 6.5-.2 9.6.2q3.5.5 7 1.3c1.7.3 3.5 1.1 5.2 1.4 2-2.3 5-3.8 7.8-5 1.5.2 3 1 4.4 1.6a90 90 0 0 0 9.5 3.4c.8.2 1.9.5 2.7.1a55 55 0 0 1 17.4-2 27 27 0 0 1 6 1.5h2.7" class="b"/><path d="m8.5 128 1.7-.3q1.4.2 2.7.6 1.6.5 3.4.1c7.6-.8 15.2.9 22.7 1.8 2.8.3 5.9.8 8.7-.2q5.1-1.3 10.4-1.3c3 0 5.8-1 8.7-1.1l10.5 1.3q6.5 1 13 1.4 6.6.7 13 .7c1.8-1 3.4-2.6 5.3-3.3q1.4.7 2.6 1.7c.4.4 1.2 1 1.8 1q3.8-.1 7.8-.3 4.4.4 8.7 1.3 1.8.3 3.5 1c.7.2 1.8.7 2.6.7a24 24 0 0 1 8.7-5.4c2 .4 4 1.4 6 2q5.3 1.7 10.5 2.4c1.4.3 3-.3 4.4-.3q3-.4 6-.5 4.1-.1 7.9.7c1.5.3 2.9 1.2 4.4 1.3" class="b"/><path d="M8.5 125.5c2-.5 4 .7 6.1.8q7.4-.8 14.8 0c5.5.6 11 1.8 16.5 1.8 5.3-.2 10.5-1.3 15.7-2.1 1.7-.2 3.5-.7 5.2-.7Q73 126 79 127l9.6 1q5.7.9 11.3 1.5l1.8.1c.9-.2 1.8-1 2.6-1.5q2-1.5 4.3-2.6a3 3 0 0 1 1.8.6q1.8 1.1 3.4 2.6 1.8.2 3.5-.1l4.4-.4q3.5.1 7 .5 3 .3 6 1.3c1.4.3 2.9 1.4 4.4.8 2.6-2.4 6-4.8 9.5-5.4a102 102 0 0 0 21 4.5h6l4.4.7q1.6.5 3.5.4" class="b"/><path d="M8.5 123c2 .2 4 1 6.1.8q6.1-.5 12.2 0c7.5.4 15 2.3 22.6 1.6l10.5-1.5c2.3-.3 4.6-1 7-1l20.8 3c4 .5 8.1 1.6 12.2 2.2 3-1.8 6.2-3.9 9.6-5q3.5 1.5 6 4.2 1.5 0 2.7-.3l4.3-.6q4.9-.4 9.6 0a37 37 0 0 1 8.7 2.2h1.8c2.5-2.7 6-4.5 9.5-5.5 1.2-.2 2.4.4 3.5.6q2.6.8 5.2 1.3 5.7 1.2 11.4 2.2 3 .8 6 1.4h5.3" class="b"/><path d="M8.5 121q1.8.4 3.5.5l4.3-.2H26c7.3.4 14.5 2 21.8 1.8 6.1-.3 12.2-1.5 18.3-2.5 4.9.5 9.8 1.5 14.8 2.1q4.4.6 8.7 1.4 3.9 1 7.8 2 6-2.8 12.2-5.4c3 .9 5.8 2.9 7.8 5.2.8.4 1.8 0 2.6-.3q2.2-.6 4.4-1c8.7-1.3 13.4-.9 21.7 1.7q3.5-3.1 7.9-4.8 1.6-.6 3.4-.8l1.8.5q6.5 1.6 13 3.1 3.6 1 7 2h4.4" class="b"/><path d="M8.5 119.1c6.7-.2 13.4-.4 20 .2 6.1.4 12.2 1.6 18.3 1.5 6.5-.2 12.8-1.6 19.2-2.6l8.7 1.3c4.3.7 8.7 1.1 13 2.2q2.2.4 4.4 1.2 1.2.4 2.6.6l3.5-1.1 11.3-4c2.2.2 4.3 1.6 6 2.8 1.3.8 2.3 2.1 3.6 2.8h3.4l2.6-1 6.1-1.5q9.8-1 19.2 1.8c.8-.4 1.8-1.3 2.6-1.8a23 23 0 0 1 7.8-3.2l1.8.5q5.6 1.5 11.3 3.2c2 .5 4 1.5 6 2h3.6" class="b"/><path d="M8.5 116.6q8.2-.3 16.5.2c5.3.2 10.5 1 15.7 1.4q6.6.5 13-.3 6.2-1 12.3-2l12.2 1.8a61 61 0 0 1 13.9 3.1l1.7-.5 3.5-1q6.1-1.5 12.2-3.4 6 1.5 10.4 5.8h6.1c1.3 0 2.5-.9 3.5-1.4q2.1-1 4.4-1.4 11-1.6 21.7 1 3.6-2.6 7.9-3.8c1.1-.1 2.3.5 3.4.8q4.6 1.3 8.7 2.8l4.4 1.8c1 .3 2.4.1 3.5.2" class="b"/><path d="M8.5 114.3q9.6-.3 19.2.5c6 .4 12.1 1.5 18.2 1.3a70 70 0 0 0 13.1-1.4c2.9-.4 5.8-1.4 8.7-1q7.6 1 14.8 2.2 3.5.9 7 2c1.4 0 3-.6 4.3-.9q7.5-1.6 14.8-3.3 1.4-.2 2.6.4a36 36 0 0 1 7.8 3.5c.8.5 1.8 1.4 2.7 1.7h5.2c1.1 0 2.6.3 3.5-.6q3.1-2 7-2.2a51 51 0 0 1 20-.7c1.4.1 3 .8 4.3-.2 5.1-2.5 4.3-2 9.6-.3q3.5 1.2 7 2.8l2.5 1.2h2.7" class="b"/><path d="M8.5 112q8.2-.2 16.5.4l14.8 1.4q7 .6 14-.5 6.5-1.3 13-2c6.5.7 13 1.2 19.2 3.3.4 0 1.3.4 1.7.6q1.4-.2 2.6-.6l5.3-1.1q4.3-.8 8.7-1.5 2.2-.4 4.3-.7A41 41 0 0 1 120 115c1.2.6 2.3 1.8 3.5 2h7c.8 0 2 0 2.6-.6q2.5-1.4 5.2-1.9 2.6-1 5.2-1.6a57 57 0 0 1 21.8-.1q1.6-1 3.5-1.4 4.4 1.6 8.7 3.5c1.9 1 3.9 2.3 6 2.1" class="b"/><path d="M8.5 110c10.2-.7 20.3.9 30.5 1.7q6.5.7 13-.4 8.2-1.6 16.6-2.4 3.5.3 7 .8 5.3.7 10.4 2.5c.8.3 1.8-.1 2.6-.3a83 83 0 0 1 13-2.3l5.3-.7a52 52 0 0 1 11.3 2.5q1.7.6 3.5.7a18 18 0 0 1 6 2.3q1.4.4 2.7.3h4.3a35 35 0 0 1 5.3-2.1q1.6-1 3.4-1.6 4.3-1.6 8.7-2 7 1 14 .1c1.4-.3 3 .5 4.3 0 1.6.8 3.5 1 5.2 1.5a73 73 0 0 1 7.9 2.2" class="b"/><path d="M8.5 108c7.9-.5 15.7.2 23.5 1 4 .3 8.1 1 12.2.8 7-.2 13.9-2.3 20.9-2.8 2.9-.2 5.8-.6 8.7 0q5.3.7 10.5 2.4c.8.3 1.8-.1 2.6-.3l3.4-.8q5.2-.8 10.5-1.4 3.5-.5 7 .1 3.8.4 7.8 1.3c1.7.3 3.5-.1 5.2.1q4.6.4 8.7 2.4l2.6 1.5h5.2c1.2-.3 2.4-1 3.5-1.2 1.4-.8 2.9-1.9 4.4-2.5q2-1 4.3-1.6l1.8-.4 1.7.3a42 42 0 0 0 15.7 1q1.3-.5 2.6-1.1l1.7.4 2.6-.5a57 57 0 0 1 7.9 2" class="b"/><path d="M8.5 106.4c9.6-1 19.2.2 28.7 1.1q7.5.6 14.8-1l10.5-1.4 9.6-.8q5.7.7 11.3 2.5a83 83 0 0 1 15.7-2.4q6.5.4 13 1.2 1.8.3 3.5 0l4.4-.2a22 22 0 0 1 14.8 4.6h5.2l1.7-.6c1-.2 1.9-1.2 2.6-1.7a24 24 0 0 1 7.9-3.4l3.4 1c3.7 1 7.5 2.2 11.4 2 1.7-.7 3.3-2.2 5.2-2.9 1.1.4 2.3 1.2 3.5 1.5l5.2-1.4q1.3.1 2.6.5" class="b"/><path d="M8.5 105.2c6-1.2 12.2-.9 18.3-.6q7.4 1 14.8.8c8.5-.4 16.8-2.7 25.2-2.9q2.6-.1 5.3-.5a79 79 0 0 1 9.5 2q6-1.5 12.2-2l17.4 1.5q5.7-1 11.3-.8 6.2-.1 11.4 2.8c1.1.5 2.2 1.8 3.4 2.2h4.4q1.4-.4 2.6-1c2.4-2.2 5.6-3.8 8.7-4.8 4.4 1.3 8.6 3.5 13 4.5 1-.2 1.9-1.3 2.7-1.9 1.3-.9 2.7-2 4.3-2.4q2.3 1.1 4.4 2.5c2-.3 4-1.4 6-2" class="b"/><path d="M8.5 104.5c8.1-2.8 16.9-1.6 25.3-1.4q7.4.4 14.8-.8c6-.8 12.1-2 18.2-2l5.3-.6 5.2 1 2.6.6 8.7-1.6c3.7.2 7.5.9 11.3 1 3.2.2 6.4.7 9.6.6 8.8-1.7 21.7-2.7 28.7 3.9q1.7.3 3.5.2t3.5-.5a27 27 0 0 1 8.7-5.2c4.3 1 8.1 3.5 12.2 5.3.9-.5 1.8-1.6 2.6-2.3q2-1.8 4.3-3c2.3.7 4.2 2.4 6.1 3.7 1.5 0 3-1.2 4.4-1.7" class="b"/><path d="M8.5 103H12a27 27 0 0 1 8.7-1.8c8.4-.5 16.9.1 25.2-1.1l14.8-2q4.9-.2 9.6-.6 2.6 0 5.2.7c.8.2 1.8.6 2.6.4q3.5-.8 7-1.2l6 .8 14 1.2a8 8 0 0 0 3.5-.4l5.2-.9c6-.7 12.4-.8 18.3.8q3.9 1.2 7 3.8c.6.5 1.8.4 2.6.4q1.7 0 3.4-.3t2.7-1.4q1.6-1.3 3.4-2.3c1.4-.6 2.9-1.7 4.4-1.6 3.8 1.2 7.1 3.5 10.4 5.6 1.4-.7 2.3-2.3 3.5-3.1 1.3-1 2.7-2.4 4.4-2.6q3.9 2.2 7 5.2c.9 0 1.8-.8 2.5-1.3" class="b"/><path d="M8.5 100q4.8-.6 9.6-.5c2 0 4.1.2 6-.2 5.6-.6 11.1-.7 16.6-1.2Q49 97 57.3 96c4-.6 8.1-.5 12.2-1 2 .2 4 1 6 1 2-.3 4.1-1 6.1-1l10.5 1.5 12.2 1 5.2-1.2c9.2-1.6 23.1-2.4 30.5 4.3q3.9.5 7.8-.6 3.8-3.4 8.7-5 5.3 2 9.6 5.7l.9-.1q2.8-3.5 7-5.6a24 24 0 0 1 5.1 3.5c1.7 1.5 1.8 2.5 4.4 2.2" class="b"/><path d="M8.5 96.4a80 80 0 0 1 17.4.8l3.5-.5q6.1-.6 12.2-1.4L52 94c5.5-.5 11-1.6 16.6-.9l3.5.5 4.3-.7c2-.2 4.1.5 6.1.6q8.2 1.2 16.5 2 1.8.2 3.5.2 2.6-.8 5.2-1.4c8-1.5 16.5-1.8 24.4 0q3.3.8 6.1 2.6c.8.4 1.7 1.3 2.6 1.6h1.7q3-.4 6.1-.7a29 29 0 0 1 8.7-5c1.2.1 2.5.8 3.5 1.3q3.4 1.8 6.1 4.4 3-3.4 7-5.5c1.2 0 2.4 1 3.4 1.7 1.6 1 2.9 2.8 4.4 3.8h1.7" class="b"/><path d="M8.5 93.2q6.7-.2 13 .7 2.7.3 5.3 1 2.6-.7 5.2-1c8.7-1.1 17.4-2.6 26.1-3.5 2.6-.3 5.3.4 7.9.5 2 .2 4-.3 6-.5 6.4.4 12.8 1.7 19.2 2.4l6 .7c1.2 0 2.5.5 3.6 0 10.6-3.4 30-4.6 39.1 2.5 3 .3 5.8-.6 8.7-.6 1.3-.2 2.4-1.4 3.5-2q3.3-1.9 7-3 2.8 1 5.2 2.6c1.2.7 2.3 1.9 3.5 2.4 2-2 4.3-4 7-5q4 2.3 7 5.7h1.6" class="b"/><path d="M8.5 90.3a71 71 0 0 1 17.4 2c.8.2 1.8-.2 2.6-.3 8.6-1.8 17.4-2.8 26.2-4 2 .1 4 .6 6 .5l4.4-.5 4.3.3q14 1.4 27.9 3.4c1.1 0 2.4-.6 3.5-.9q3-.8 6-1.3a66 66 0 0 1 23.6.6 29 29 0 0 1 6 2.1c1.2.5 2.3 1.7 3.5 1.5l5.3-.3c1.4-.2 3 0 4.3-.5q2.9-1.8 6.1-3.2l4.4-1.6c1.5 0 3 1 4.3 1.7 1.5.7 2.9 1.9 4.3 2.7q2.8-2.6 6.1-4.4c2 .5 3.7 2.1 5.3 3.4 1 .9 1.9 2.5 3.4 2.2" class="b"/><path d="M8.5 87.5q9 .1 17.4 2.6c5-1.7 10.4-2.4 15.7-3.2l8.7-1.2 5.2.7c1.7.3 3.5-.6 5.2-.7l7 .8q11.8.9 23.5 2.4l4.3.8a50 50 0 0 1 16.6-2.9 64 64 0 0 1 17.4 1.6q3.7.8 7 2.7c1.2.6 3 .2 4.3.3h7a58 58 0 0 1 13-5.7q1.4.2 2.6.8 1.9.7 3.5 1.6 1.3 1 2.6 1.4a24 24 0 0 1 6.1-3.8 21 21 0 0 1 7 5.6l.8.1" class="b"/><path d="M8.5 85q5.3 0 10.5 1.2c2 .3 4 1.1 6 1.4q4.7-1.6 9.6-2.4L46 83.4l7.8 1c1.7 0 3.5-.7 5.2-1 2 0 4 .7 6 .9 6.5.6 12.9.8 19.2 1.7q3.5.4 7 1 1.3.3 2.6.3l2.6-.7a68 68 0 0 1 34.8 1.1L134 89c1 .3 2.3.1 3.4.2h6.1q1.8 0 3.5-.2l1.7-1q6.4-2.7 13.1-4.6a29 29 0 0 1 7.8 3.3h.9l3.5-2.2c.7-.4 1.7-1 2.6-.9q4 2 7 5.4" class="b"/><path d="M8.5 82.4a65 65 0 0 1 14.8 2.8q1.4-.2 2.6-.8 5.2-1.6 10.5-2.4l6-.9q5 .5 9.6 1.3c2-.1 4.1-1 6.1-1.2 2.3 0 4.7.8 7 1q5.2.5 10.4.8 8 .5 15.7 2c2-.1 4-1 6.1-1.3q5.2-1 10.5-1 8.3-.1 16.5 1.9 3.1.8 6 2.1h14a75 75 0 0 1 11.3-3.9c2.3-.5 4.7-1.4 7-1.7a36 36 0 0 1 7.8 3q3-1.7 6.1-3 4 1.5 7 4.4" class="b"/><path d="M8.5 80.1a65 65 0 0 1 12.2 2.3q1.3.6 2.6 0 4.3-1.8 8.7-2.5 4-.7 7.8-1.1 3 .2 6.1.6l5.3.8c2.2-.5 4.7-1.4 7-1.3q5.1 1 10.4 1.6c5.5.3 11 .4 16.5 1.4q2.6.5 5.2.8l1.8-.5q5.5-1.5 11.3-1.7 6.6-.2 13 1 5 .9 9.6 3h13q1.5 0 2.7-.2l4.4-1.6q4.3-1.2 8.7-2.2l7.8-1.8q3.6.9 7 2.2c1.4 1 3-.3 4.3-.9 1-.4 2.3-1.1 3.5-1.2q3.3 1.2 6 3.5" class="b"/><path d="M8.5 77.9q4.5.4 8.7 1.5c1.1.2 2.3.9 3.5.9q2-1 4.3-1.7a62 62 0 0 1 15.7-2l8.7 1c2 0 4.1-.8 6.1-1 1.4-.3 3 .3 4.4.5l6 1c3.5.6 7 .5 10.5.7q5.7.3 11.3 1.4c1.5.5 3-.4 4.4-.7q3.4-.9 7-1.2a52 52 0 0 1 22.6 3.7q5.2.1 10.4.1h5.2l4.4-1.5q5.6-1.4 11.3-2.4 4.8-1 9.6-1.8l5.2 1.3c1.1.3 2.3 1 3.5 1.1l6-2.3c2.2.3 4.3 1.5 6.2 2.6" class="b"/><path d="M8.5 75.7q3.5.3 7 1.4c1 .2 2.3 1 3.4.6a33 33 0 0 1 8.8-2.7q4.3-.7 8.7-1l6 .5 7 .7c2-.3 4-1 6.1-1q6.5 1.2 13 2c3.2.4 6.5.3 9.6.5q3.5.2 7 .9c1.1.1 2.4.6 3.5.5q4.1-1.8 8.7-2.1a43 43 0 0 1 20.9 3.7H133l3.5-1.2q4.6-1.3 9.5-2 7.8-1.2 15.7-2.4c3.3.3 6.5 1.4 9.6 2.2q3.4-1.2 7-2.2 2.7.8 5.2 2" class="b"/><path d="M8.5 73.7q4 .6 7.8 1.7c10.3-4.9 22.1-3.6 33.1-3L53 72q2.2.2 4.4.5 5.2 1 10.4 1.6c6.7.7 13.6 0 20 2 4-2 8.6-2.9 13-2.5q7.5.3 14 3.5c1 .7 2.4.4 3.5.5h10.4l1.8-.8c6.6-2.5 13.9-3 20.9-3.8q4.8-.5 9.5-1.2 4.9.6 9.6 2c1.2.2 2.4-.4 3.5-.6q2.6-.8 5.2-1.3 2.2.5 4.4 1.4" class="b"/><path d="m8.5 71.8 5.2 1.1c7-3.4 15-3.2 22.7-3.3q5.6-.1 11.3 0H52q4 .7 7.9 1a88 88 0 0 0 13.9 1.5q3.5 0 7 .3 3.4.6 7 1.5c7.4-4.6 17.7-3.2 25.1.9q1.3.4 2.7.3h3.4c3 0 6 0 8.7-1.1 6.7-2.6 14-3 21-3.6l10.4-1q5.3.5 10.4 1.8c1.1.4 2.4-.2 3.5-.4l6.1-1.3q2.2.2 4.4.9" class="b"/><path d="m8.5 70 1.7.4c1.2-.1 2.4-.8 3.5-1.1q3-1 6.1-1.3c7.5-1 15.1-.4 22.7-.4q3 .1 6-.5l2.7.3 3.4-.3q8 .6 15.7 2.1l2.6.6q3 0 6.1.2 2.7.3 5.2.9 1.8.5 3.5.8c7.2-5 17.4-3.4 24.4 1.1l3.5-.1a61 61 0 0 1 12.1-2.3q2.2-.4 4.4-1c7.4-1.3 15-1.7 22.6-2.2q3-.3 6.1.3 4.4.5 8.7 1.4l7.8-1.4 2.7-.4c1 0 2.4.3 3.4.6" class="b"/><path d="M8.5 67.4c5.9-2 12.2-2.1 18.3-2.1 4.6 0 9.3.5 14 .5q2.5-.7 5.1-1c1.7 0 3.6.5 5.3.7 2.8.2 5.8-.4 8.7-.6 2.3-.3 4.7.3 7 .6l5.1.8q2.3.7 4.4 1.3 3.5.1 7 1c1.4.1 2.9 1 4.3.9 6.4-5 16.2-3.7 22.6.6 1.2 0 2.4-.6 3.5-.9q2.6-.8 5.2-1.3c4-.9 8.2-1 12.2-1.2q7-1.2 14-1.5c3.4-.3 7-.7 10.4-.3l7.8.8c1.7.1 3.5.7 5.2.6l7.9-1 4.3-.6 2.6.4" class="b"/><path d="M8.5 64c8.7-1.5 17.5-1.1 26.1-.2q1.8.1 3.5-.4l5.2-1 9.6 1.4q4.3-.2 8.7-.8c1.7-.1 3.5-.7 5.2-.4q4 .4 7.9 1.5c1.4.3 2.8 1.4 4.3 1.5q2.7.3 5.2.9c1.1.2 2.4.9 3.5.7 5.8-5 14.8-3.9 20.9-.1 8.5-3 16.3-3.8 25.2-3.6 5.5-.6 11-1.3 16.6-1l10.4.8c2 .1 4.1.8 6.1.5l8.7-.9q4-.6 7.9-.2" class="b"/><path d="M8.5 61q11.5-1 22.6.8c1.2.3 2.4-.3 3.5-.5l5.2-1c1.7-.3 3.6.4 5.3.6q4.8.8 9.5 1.3 5.3-.6 10.5-1.5 2.2-.3 4.3-.5l2.6.4q2.7.6 5.3 1.6c.7.4 1.7 1.2 2.6 1.2q2.2.3 4.3.9c1.1.2 2.4.9 3.5.7 5-5 13.4-4.1 19.2-.9 9.4-3.6 18-4 27.8-3.6q4 0 7.8-.4 8 .3 15.7 1c1.7 0 3.5.4 5.2.3q2.6-.1 5.3-.4l10.4-.9 4.4.4" class="b"/><path d="M8.5 58.2c6.4-.3 12.9.6 19.2 1.7q1.6-.2 3.4-.7 3.5-.8 7-1.3a308 308 0 0 0 17.4 2.4q5.3-.6 10.5-1.6l5.2-.8c2.7.4 5.5 1 7.8 2.6l.9.7.8.2 5.3 1.2.8.2 1-.1c4.3-4.8 12-4.2 17.3-1.5q2.3-.6 4.4-1.4 4.6-1.4 9.5-2 4.5.5 8.8.5 7-.1 13.9-.6 4.4.3 8.7.7l7.8.6q4.5-.1 8.7-.5l8.7-.7 7.9.5" class="b"/><path d="M8.5 55.8a73 73 0 0 1 14 1.9c.7.1 1.8.4 2.6 0 3.4-.8 6.9-1.8 10.4-2.1L46 57.3q4.8.6 9.5 1 2.3-.1 4.4-.6l9.6-1.7 2.6-.4q2.7.3 5.2 1.4c1.2.5 2.3 1.6 3.5 2.2q3 .5 6 1.4c1.4-.4 2.3-1.9 3.5-2.4 3.5-1.9 7.7-1.7 11.4-.5 2.8 1.1 2.6.6 5.2-.3q3.3-1.3 7-1.9 3.4.6 6.9 1 4.8.1 9.6 0l7-.9q2.5-.1 5.2.2l4.3-.3 4.4.4c6.9.9 14 .2 20.9-.4q5.6.4 11.3.7" class="b"/><path d="M8.5 54q5.3.7 10.5 1.8c1 .5 2.4-.1 3.4-.4q2.7-.8 5.3-1.3t5.2-.9l5.2 1q6 1 12.2 1.7c2.6.2 5.3.8 7.8 0q5.3-1.1 10.5-2 2.2-.4 4.3-.6 2.8.4 5.2 1.8l2.6 1.9q3.1.5 6.1 1.3c1.4-1 2.7-2.4 4.4-3 3.6-1.4 7.7-.8 11.3.5q3.9-1.6 7.8-2.6c1.8 0 3.5.7 5.3 1q4.3.8 8.7.8c2 .1 4-.5 6-.8q4-.7 7.9-1l5.2.5q2.6-.2 5.2-.5l7 .6q7 0 14-.6 6.8.7 13.8.9" class="b"/><path d="m8.5 52.7 5.2 1c.8.2 1.8.6 2.6.3q6.5-1.9 13.1-3c2-.2 4.1.6 6 .9q6.6 1.2 13.1 2c3 .1 6 .8 8.7-.1l10.5-2.1 4.4-.8c2 .2 4.3 1 6 2.1.8.6 1.8 1.6 2.7 2q3 .4 6 1c2.5-3 6.7-4.2 10.5-3.6 1.4 0 3 .8 4.3.6 7.4-2.8 5.7-2.4 13.1-.6q4.3 1 8.7 1 1.8-.3 3.5-.8 5.2-1.1 10.4-1.7l5.3.5c2 .3 4-.3 6-.4q1.8-.2 3.5.1 4.8.3 9.6 0c1.7 0 3.5-.4 5.2-.2 5.5.5 11 1.3 16.6 1.1" class="b"/><path d="m8.5 51.9 2.6.6a217 217 0 0 1 14-3.6l2.6-.4 4.3.8A194 194 0 0 0 50.3 52l3.5.2 2.6-.6q6.5-1.7 13-2.8c3.8-.8 7.9 1.2 10.5 4l6 .8c1.3-.5 2.3-1.8 3.6-2.4 3.2-1.7 7-1.3 10.4-.6l4.4-1.6c.8-.2 1.8-.6 2.6-.2 4.8 1.3 9.7 3 14.8 3a82 82 0 0 1 14.8-3.2c2.3 0 4.6.6 7 .7l2.5-.4c2.9-.6 5.9-.3 8.8-.2q4.3.2 8.7-.3c6.6.6 13.3 1.7 20 1.3" class="b"/><path d="M8.5 50.6A136 136 0 0 1 26 46.1c5.5 1 11 2.5 16.6 3.2q5.2.6 10.4.7a103 103 0 0 1 16.5-3.8q1.8.2 3.5.7a14 14 0 0 1 6.1 3.6c.4.2 1.3.4 1.7.3 1.7.2 3.6.6 5.3.3 2.2-2.4 5.5-3.5 8.7-3.4l2.6.2q1 .2 1.7 0c1.7-.6 3.5-1.5 5.2-1.6q4 1.3 7.9 2.3c2.8.6 5.8 1.6 8.7 1.3q1.2-.6 2.6-1 6.4-1.9 13-2.7c2.6.3 5.3 1 7.9.4q3.3-.7 7-.3 3.8.1 7.8-.1c3.4-.1 7 .6 10.4.8q7 .6 14 .2" class="b"/><path d="M8.5 48.3q7.7-2.9 15.7-4.4c5.2.8 10.4 2.3 15.7 3q3.8.5 7.8.8l3.5.1 2.6-.8q6.4-1.9 13-3c4.1.2 8.5 1.5 11.4 4.6q1.6.4 3.4.3 1.8.1 3.5-.1c2.3-2.3 5.6-3.3 8.7-3.3 1.1 0 2.5.4 3.5-.1l4.3-1.4c1.2 0 2.4.6 3.5.9l4.4 1.4A41 41 0 0 0 119 48q1.4-.3 2.7-1 6.7-2.4 13.9-3.2c2 .2 4 1 6 .6 8.4-1.1 17-.6 25.3.1 2.6.2 5.3-.3 7.8-.1 3 0 5.9.3 8.8 0" class="b"/><path d="M8.5 46q6.8-2.8 14-4.3c5.5.6 11 2.4 16.5 3.1q3.4.4 7 .6c1.3 0 3 .4 4.3 0q6.8-2.3 14-3.8 4.5.5 8.6 2.3c1.6.7 3 2.1 4.4 3.2q2.6 0 5.2-.3c1 0 1.9-.8 2.6-1.3a13 13 0 0 1 4.4-1.9q1.6-.3 3.4-.3c.8 0 2 .1 2.6-.3q2.2-.9 4.4-1.4c.8 0 1.8.5 2.6.7 5 1.4 11.4 4.3 16.5 3.5q7.2-3.1 14.8-4.2c2 0 4.1.6 6.1.8l3.5-.3q9.6-.6 19.2 0l4.3-.5q2.6.1 5.2.4 5.7-.3 11.4-.4" class="b"/><path d="M8.5 43.6c1.5 0 3-1.1 4.4-1.6q3.8-1.5 7.8-2.5 1.3-.3 2.6.1l3.5.8q5.2 1.2 10.4 2.1 3.5.4 7 .6c1.4 0 3 .5 4.3 0q4-1.4 7.9-2.6 2.5-.7 5.2-1.2c4.6 1.1 9.4 2.4 13 5.6H80c1.3 0 2.4-1 3.4-1.8q1.7-1 3.5-1.5c2-.7 4.1-.6 6.1-.8 1.7-.6 3.5-1.4 5.2-1.5l3.5 1c4 1.2 14 5.2 17.4 2.9a51 51 0 0 1 14-4q3.4.6 7 1 3.4-.4 6.9-.5c4.6-.1 9.3.3 14-.5q3.8.8 7.7 0c3 .1 5.9.8 8.8.8h2.6q1.7-.1 3.4-.7" class="b"/><path d="m8.5 39.5 4.4.3q2.4-1.2 5.2-2c1-.3 2.3-1 3.5-.7q7.3 2 14.8 3.2a96 96 0 0 0 9.5.8l1.8-.7q3.4-1.4 7-2.4c1.3-.3 2.8-1.2 4.3-.9q6.2 1.5 11.3 5.2c1 .4 2.4.2 3.5.3H78c1.8-1 3.3-2.3 5.3-3q3-1 6-1c1.2 0 2.4-.7 3.5-1q1.3-.5 2.6-.7l5.3 1.6c4.2 1.4 8.5 3 13 3.2l2.6.1a35 35 0 0 1 12.2-4.3l3.5-.6q3.4.5 7 .8 3 .2 6 0a57 57 0 0 0 9.6-.8c1.4-.2 3 .6 4.4.3l5.2-.3 2.6.4c3.7.6 7.5 1.5 11.3 1.6q2.8-.4 5.2-1.3" class="b"/><path d="m8.5 36 6.1.7q2.6-1.2 5.2-2c1.8 0 3.5.9 5.2 1.3a70 70 0 0 0 12.2 2.2l7 .5q1.8-.5 3.5-1.3l6-2.2 1.8-.6q1 .1 1.7.5 4.3 1.4 7.9 4.1a3 3 0 0 0 2.6 1h6.9c1-.2 1.9-1 2.7-1.4l3.4-1.6q3.5-1 7-1l4.3-1.6c1.5-.3 3 .7 4.4 1l6 2c3.4 1 11 3.2 14 1.3q7-3.4 14.8-4.3c2.9 0 5.8.6 8.7.5 4 .1 8.2-1 12.2-.3 2.9.8 5.8-.6 8.7-.2 5 .8 9.9 2.2 14.8 3.2 2.7-.2 5.3-1.3 7.8-2" class="b"/><path d="m8.5 33 7 .9q2-1 4.3-1.6c3.2 1 6.4 2.2 9.6 2.8q6.5 1 13 1.3 1 .2 1.8-.3l7-3q1.1-.6 2.6-.7 5 1.6 8.7 5.4c2.5.3 5.2 0 7.8.1.9-.1 1.8-.8 2.6-1.2a26 26 0 0 1 8.7-2.7q2.7-.1 5.2-1l2.7-.8q3 .9 6 2c3.7 1.1 7.5 2.4 11.4 3q3.3.6 7 .3a40 40 0 0 1 18.2-5.2q3.5.1 7 0c3.5-.4 7 .6 10.4.7l7-.8a69 69 0 0 1 12.1 2.8c1.7.4 3.5 1.4 5.3 1.4a78 78 0 0 0 9.5-2.6" class="b"/><path d="M8.5 30.4q3.5.1 7 1l3.4-1.4c1.8.3 3.6 1.2 5.3 1.7a34 34 0 0 0 9.5 2q3 0 6.1.3c1.2 0 2.5.4 3.5-.3l5.2-2.5c1.1-.4 2.3-1.3 3.5-1.1q4.5 1.9 7.8 5.5c10.4.1 4.1 0 12.2-2.8a37 37 0 0 1 7-1.4l2.6-.2 2.6-1q1.3-.4 2.6 0 2.3.6 4.4 1.3 2.5.9 5.2 1.5 4.1 1.8 8.7 2.4 3.5.4 7 0 1.3-.5 2.6-1.3 2.5-1.2 5.2-2a55 55 0 0 1 19.1-1.8l4.4.6 3.5-.2 6-.9q2.7.3 5.3 1a75 75 0 0 1 7.8 2c1.7.6 3.5 1.5 5.2 1.9q6.2-1.2 12.2-3.1" class="b"/><path d="M8.5 28q3.5 0 7 .8c1.1-.1 2.2-1.1 3.4-1.2 3.4 1.4 6.9 3 10.5 3.5 4 .5 8.2.2 12.2.8 2.9-1.3 5.7-3.3 8.7-4.2q4.2 1.8 7 5.5h6c4-3.8 9.7-4 14.8-4.7q1.8-.6 3.5-.9l4.4 1.2q5.8.5 11.3 2.7l3.5 1.8h9.5c1 .1 1.9-.7 2.6-1.1a41 41 0 0 1 21-4c2.2 0 4.6 1 6.9.6 3.2-.2 6.4-.9 9.6-1.2a60 60 0 0 1 18.3 5.1q7.5-1.3 14.8-3.4" class="b"/><path d="M8.5 25.7q3.5 0 7 .7l2.6-1.1c3.2 1 6.2 2.9 9.6 3.5 2.5.6 5.2.3 7.8.4q2.6 0 5.2.3c1.2-.2 2.4-1.1 3.5-1.7l4.3-2.4c1-.1 2 .7 2.6 1.1q2.6 1.8 4.4 4.4h5.2c2.8-3.2 7.3-4 11.3-4.5 1.4-.3 3-1 4.4-1.1l2.6.7q2.6.3 5.2.4a41 41 0 0 1 13 3.3c1.1.5 2.3 1.4 3.5 1.2h6.1c1.4 0 3.2.4 4.4-.6q2.8-1.6 6-2.5 6.5-1.7 13.1-1.5c2 0 4.1.8 6.1.5q5.7-.6 11.3-1.6a60 60 0 0 1 18.3 5q1.4.3 2.6-.1l4.4-1 10.4-2.2" class="b"/><path d="M8.5 23.5q3-.1 6.1.4 1.3-.4 2.6-1c4 1.3 7.9 3.9 12.2 4.2 3.8 0 7.6-.7 11.3 0 2.5-1 4.6-2.8 7-4 2.3.2 4.8 3.4 6 5.2 1.4.6 3 .2 4.4.3q1.1-.2 1.8-1l1.7-1.3q3-1.3 6-2.5c3-1.1 3.4-.8 6.2 0q2.2.1 4.3.2a53 53 0 0 1 18.3 3.6c1 .5 2.3 1.2 3.5 1h9.6q1.2-.9 2.6-1.5 3.3-1.5 7-2c3.6-.6 7.5-1 11.2-.2l7-.7q4.4-.7 8.7-1.3a95 95 0 0 1 15.7 3.8c1.4.5 2.8 1.5 4.3 1l17.4-3.4" class="b"/><path d="M8.5 21.6q2.2-.3 4.4 0 1.3-.2 2.6-.8c1.5-.1 3 1 4.3 1.3 2.3.8 4.6 2 7 2.5q3.5.7 7-.1 3.5-.5 6.9.1c1.5-.5 3-1.8 4.4-2.6.7-.5 1.6-1.3 2.6-1.3 2.1 1.3 3.8 3.5 5.2 5.6q2.2.1 4.3-.2 3.8-3.8 8.7-5.5l3.5 1.3h5.2a58 58 0 0 1 22.7 4.3h11.3A27 27 0 0 1 126 23q2.2 0 4.4-.4 6.9-.9 13.9-1.9c6.2 1 12.5 2.2 18.3 4.7a336 336 0 0 1 20.9-3.5" class="b"/><path d="m8.5 19.7 2.6-.2c1.1-.3 2.4-1 3.5-1.1 4.5 1.6 9 4.1 14 4.4 2 0 4-.6 6-.9 9.1-.8 3.8 2.4 12.2-3.6 2.3 1.2 3.9 3.6 5.2 5.7h2.6c2.4-2.1 4.9-4.4 7.9-5.6 1.2 0 2.4 1 3.4 1.4q1.3.4 2.7.2l3.4-.1q7-.2 14 1 4.9.8 9.5 2.7 1.3.4 2.7.3h9.5q4.2-2 8.7-2.6 2.7-.3 5.3-.3a314 314 0 0 0 18.2-2.3c1.4-.2 3-.6 4.4-.2q7.6 1.2 14.8 3.6 1.7.8 3.5.1a238 238 0 0 1 20.9-3" class="b"/><path d="M8.5 17.3q2.2-.7 4.4-1.3c6.1 2.2 11.4 6 18.2 4.2 3.4-.9 7-1.6 10.5-.6 1.8-1 3.3-2.8 5.2-3.5 1.8 1.3 3.3 3.3 4.4 5.2l.8.3.9-.1c2.4-2 4.8-4.6 7.8-5.5l3.5 2 9.6-.1q6.5.2 13 1.3 2.7.4 5.3 1.3c1 .3 2.3 1 3.4 1.1H106q1.8 0 3.5-.8l4.3-1c9-1.6 18-2.3 27-3.7q1.8-.3 3.5.2a108 108 0 0 1 11.3 2.6c1.1.3 2.3 1 3.5 1q12-2.5 24.4-3.4" class="b"/><path d="M8.5 14.3q1.3-.4 2.6-.6l2.6 1c3.2 1.2 6.2 3.4 9.6 4 4.5 1 8.7-1.5 13-2.1q1.9-.3 3.6-.1c.7 0 1.8.4 2.6.3l3.4-2.8h1c1.7 1.2 2.9 3.4 4.3 5l5.2-4c.7-.4 1.7-1.2 2.6-1.3q1.8 1 3.5 2.3l9.5-.1q6.6.2 13.1 1 3 .5 6.1 1.4c1.1.3 2.3 1 3.5 1h9.6c1.4.2 3-.5 4.3-1q3-.7 6.1-1.2c8.4-1.3 16.9-2 25.2-3.3 2-.4 4.2.3 6.1.7q5.3 1 10.5 2.6c2.9-.3 5.8-1.1 8.7-1.5q9-1.3 18.3-1.7" class="b"/></svg>