<svg xmlns="http://www.w3.org/2000/svg" id="a" width="1920" height="2400" viewBox="0 0 192 240"><defs><style>.b{fill:none;stroke:#fff;stroke-miterlimit:10;stroke-width:.3px}</style></defs><path d="M0 0h192v240H0z" style="stroke-width:0"/><path d="m8.1 222.3 2.7-1.2c1.9 1 4 0 6 0a115 115 0 0 0 15.8 1q6.6-.3 13.1-1 7 .8 14 1.3 4 0 7.9-.6c1.4-.1 3-.7 4.4-.6q2.7.6 5.2 2c1.2.6 2.3 1.7 3.5 2.1 4.3-2.2 9.3-2.4 14-1.7q1.4.3 2.6 1c.4.2 1.3.6 1.8.6q2.4-1.8 5.2-3.1c.8-.4 1.8-1 2.6-.8 1.5.3 2.9 1.4 4.4 1.5 6-2.1 11.3-.8 16.6 2q5.3-.7 10.5-1.9l6.1-1.7q1.4.2 2.7.6 1.2-.4 2.6-.7 2.7.6 5.2 1.7 2.3 1 4.4 2.4c.8.5 1.6 1.5 2.6 1.6h8.8c1.4-.1 2.9-1 4.3-1.3a32 32 0 0 1 8.8-.7" class="b"/><path d="M8.1 219.2q2.7-.7 5.3 0l6.1 1q7.8 1.2 15.8.5 7.5-1 14.8-2 7 1.1 14 1.2c2.6 0 5.3-.7 7.9-1 3.3.7 6.5 2.3 8.7 4.9.9 0 1.8-.7 2.6-1q1.7-.8 3.5-1.3c4.4-.7 9.6-1 13.1 2 1.3-.4 2.4-1.7 3.5-2.4q2.2-1.3 4.4-2.3c1.5.3 2.9 1.4 4.4 1.6q1.2-.4 2.6-.7c4.2-.7 8.7.2 12.2 2.5l8.8-1.4q3.5-.7 7-1.8c.8-.2 1.8.3 2.6.3.4-.2 1.3-.4 1.7-.4 4.1 1.1 8.3 2.7 11.4 5.6h9.6a29 29 0 0 1 15.8-2.2" class="b"/><path d="m8.1 216.5 9.7 1.8 4.3.7a26 26 0 0 1 8.8-.3c1 0 2.4.4 3.5.4l2.6-.3c5-.6 9.9-1.8 14.9-2.4q3.9.7 7.8 1 6.2.5 12.3-.8c2.1 0 4.3 1.3 6 2.5 1.3.8 2.2 2.5 3.6 3 2.9-1.7 6.2-3.1 9.6-3.2s7 .3 9.6 2.7h.9a19 19 0 0 1 7-5c1.5-.1 3 1 4.4 1.5 4.3-1.4 9-.8 13 1.3l10.6-1.6 4.3-1.1c.8-.3 1.9.1 2.6.4 1.7-1 2.9 0 4.4.5q2.8.9 5.3 2.4 1.4.9 2.6 2c1.6.4 3.5 0 5.2.2l4.4-.1a19 19 0 0 1 4.4-1.7q6.9-1.6 14-.5" class="b"/><path d="m8.1 214.5 8.8 1.8c1.1 0 2.4-.5 3.5-.6q2.2-.3 4.4-.1c2.6 0 5.2 1 7.8 1.4 5.3-.4 10.5-1.5 15.8-2.3q2.6-.8 5.2-.2l7 .8q6.2.4 12.2-1.2 5 1.4 8 5.5c1.6.8 2.9-.5 4.3-1.1l4.4-2c1.4-.5 2.9 0 4.3.2q4.6 0 7.9 3h.9c1.9-2.6 4.7-4.8 7.8-5.5 1.4.5 3 1.3 4.4 1.5a15 15 0 0 1 7.9.3c.8.2 1.8.7 2.6.5l10.5-1.4q2.2-.4 4.4-1 1.2.6 2.6.7c1.4-1.1 3 0 4.3.6q3.9 1.6 7 4.3c2.9.3 5.9 0 8.8.1 2-.7 4-1.8 6-2.1q7.5-1.4 15 0" class="b"/><path d="m8.1 212.3 5.3 1.1c1.1.4 2.4-.2 3.5-.4a21 21 0 0 1 10.5.9c.8.2 1.8.7 2.6.7l6.1-.6c5-.5 10-1.7 14.9-2.2 4.6.8 9.3 1.6 14 1.5q2.6-.2 5.2-.8c1.1-.1 2.4-.8 3.5-.5q4.4 1.7 7 5.5l2.6-.1q2.1-.9 3.5-2.5c2.2-2 5.5-2.4 8-.6 1.3.5 3 .6 4.3 1.2 1.2.4 2.3 1.5 3.5 2l.9-.3c1.8-2.6 4.8-4.4 7.8-5.5q3 1.3 6.1 1.8c1.8 0 3.6.4 5.3.3l12.2-1.4 3.5-.6c1.1.2 2.4.9 3.5.8l1.8-.8q5.2 2.3 9.6 5.7h7.9c.9 0 1.8-.7 2.6-1q2.1-.9 4.4-1.3c5.2-1 10.5-.3 15.7.6" class="b"/><path d="M8.1 210c1.7.2 3.6 1.2 5.3.6a20 20 0 0 1 13.1 1.2q2.7.2 5.3-.2 7.5-.5 14.8-1.8 1.8-.3 3.5-.3l7 1.2q4 .6 7.9.5a40 40 0 0 0 7.8-1.7c3 .8 5.5 3 7 5.5 1.1.3 2.4.1 3.5.2.7-.2 1.5-1.1 1.8-1.7 1.8-2.2 5-3.9 7.9-2.8q1.8.7 3.5 1.9a14 14 0 0 1 6 2.6h1c.9-.6 1.7-1.8 2.6-2.5 1.7-1.5 4-2.5 6-3.3l3.6.8q3 .5 6.1.5c3.8 0 7.6-.8 11.4-1 1 0 2.4-.5 3.5-.2 1.4.3 2.9 1 4.3 1.1q1.3-.8 2.7-1a37 37 0 0 1 8.7 5.6h7.9c.8-.1 1.8-.8 2.6-1q1.7-.8 3.5-1.1a45 45 0 0 1 17.5 1.1" class="b"/><path d="m8.1 207.5 2.7.6q2.1-.5 4.3-.7 4.6-.2 8.8 1.6c3.1.4 6.4-.2 9.6-.3q7.5-.6 14.9-1.7c5.5.8 11 2.7 16.6 2q2.6-.4 5.2-1.3c.8-.2 1.8-.7 2.6-.4q4 1.7 6.2 5.3 1.7.3 3.5.2c1.3-.8 2.1-2.6 3.5-3.5 3.4-2.7 7.3-1.7 10.4.8.7.5 1.9.7 2.7.9q1.8.6 3.5 1.8c.4 0 1.3 0 1.7-.2 2.3-3 6-4.8 9.6-5.5q3.5.5 7 .5c2.6.1 5.3-.5 7.9-.4 2.3.3 4.7.2 7 .5q2.2.3 4.4 1c1-.6 2.2-1.6 3.5-1.5a41 41 0 0 1 7.8 5.2c1 .7 2.4.3 3.5.4h4.4c.9.2 1.8-.5 2.6-.8q1.7-.8 3.5-1.1c6.2-1 12.4.5 18.4 2" class="b"/><path d="m8.1 205 1.8.4q2.2-.5 4.4-.5c2.7-.2 5.3.8 7.8 1.6a275 275 0 0 0 24.5-1.7q2.2 0 4.4.6c8.2 2 12 2.6 20-.6 3 .8 5.3 3.3 7 5.7h3.6c4.6-6.6 9.5-6.7 15.7-2q1.8.2 3.5.9c1 .5 2.3 1.4 3.5 1 2.7-3.4 7.2-5 11.4-5.4 3.8-.4 7.6.2 11.4.6q3.8.5 7.8.5c1.5 0 3 .6 4.4.8 1.4-.7 2.8-2 4.4-2q4.4 2 7.8 5.2c1 .6 2.4.3 3.5.4q1.9.1 3.5-.4 1.8-.4 3.5-.4 1.4-.6 2.7-.8 3.9-.7 7.8 0 3.7.5 7 1.6h4.4" class="b"/><path d="M8.1 202.6q1.8.3 3.5-.2 2.7-.2 5.3.5c1.1.2 2.3.8 3.5.9q4.4 0 8.7-.2 6.6-.2 13.1-.7l3.5-.5a59 59 0 0 1 10.5 2.2c3.8.8 7.8.1 11.4-1.3.8-.3 1.8-.9 2.6-.7 2.5 1 4.8 3 6.1 5.5h3.5c.6-.3 1.4-1.3 1.8-1.9q1.2-1.2 2.6-2.2c4-2.6 9-.8 12.3 2q3.6.5 7 2.1 1-.2 1.7-1l1.7-1.4c4.5-2.6 9.9-2.9 14.9-2.1q4.8.7 9.6 1.3c2 .2 4.2 0 6.1.5 2-.8 4-2.6 6.2-2.8q2.7 1.2 5.2 2.8c1.2.8 2.3 2.1 3.5 2.7h1.8l1.7-.7a17 17 0 0 1 8.8-.8h4.3c2.7.1 5.3 1 7.9 1.6h7" class="b"/><path d="M8.1 200.2c1.8 0 3.6-.5 5.3-.2 2 .2 4 1.2 6.1 1.1q10.5 0 21-.6c1.4 0 3-.5 4.4-.3 2 .2 4.1 0 6 .5 2.2.5 4.2 1.6 6.2 2.1q3.6.3 7-1c1.4-.5 2.9-1.6 4.4-1.5q3.9 1.8 6 5.5h3.6c1.2-1 2.2-2.7 3.5-3.5 4.5-3.6 9.9-1.6 14 1.5q4 .3 7.8 1.6c1 0 1.9-1 2.7-1.5q2-1 4.3-1.7c7.7-2 15.2 1.4 22.8 2.4 1.4.2 3-1 4.3-1.6l6.2-2.9q4.9 2 8.7 5.7c4-2.3 8.7-3 13.1-2q1.8.2 3.5.9l3.5.7q2.2.6 4.4.4h7" class="b"/><path d="M8.1 197.9q2.2-.5 4.4-.2c1.4.1 3 .6 4.4.7q7.6.4 14.8.1l7-.3c1.7 0 3.6-.6 5.3-.2q6-.3 11.4 2.4c3.2 1.1 6.7-.7 9.6-2 1.2-1 2.4-.1 3.5.7 1.7 1.1 2.8 3 4.3 4.4h3.5c4.7-7 11.3-6.7 17.5-2q4.9 0 9.7 1.1c6-3.1 11.8-3.3 18.3-1.4l4.4 1.5c1 .4 2.3 1 3.5.6q3.4-1.4 7-2.5 3.9-1.6 7.8-3 4.4 1.6 8 4.6a22 22 0 0 1 19.2.4q.8.5 1.7.6h10.5" class="b"/><path d="M8.1 195.5c1.7-.4 3.6-.1 5.3 0l7.9.5c5.8.4 11.6 0 17.5-.3q2.2-.3 4.3 0 3.1 0 6.1.8 2.7.7 5.3 2c3.4.8 6.7-1.4 9.6-3 2.7.7 4.6 3.5 6.1 5.6h3.5c1-.5 1.8-1.9 2.7-2.6 2-1.9 5-3 7.8-2.5q2.8.6 5.3 2c.8.4 1.7 1.2 2.6 1.3q5.7-.3 11.4.5a24 24 0 0 1 19.2 1q5.7-.8 11.4-2.2c3.9-.6 7.6-2 11.3-3.2q3.9 1.1 7 3.6 1.4.1 2.6-.4 2.2-.5 4.4-.7c4.8-.5 9.9.6 14 3.2h10.5" class="b"/><path d="M8.1 193.1q2.2-.2 4.4.2 2.2-.4 4.4 0l5.2.3q7.5.3 14.9-.2 2.7-.4 5.2.2c1.7.3 3.6.3 5.3.8q3.1.7 6.1 2.2c3.2 0 6-1.9 8.7-3.4 2.3.9 4.1 3 5.3 5.2 1.3.8 3 .2 4.4 0 2.5-3.3 6.3-5.3 10.5-4.3 2.1.5 4.1 1.9 6 3q5.3-.4 10.6-.4 2.2.2 4.3.2a23 23 0 0 1 9.7-.1q2.1.5 4.3.3a251 251 0 0 0 28-3.7c1.1-.6 2.5 0 3.5.4q2.3.8 4.4 2.2c4.9-.6 10-1.3 14.8.2l3.5 1.4c.8.3 1.7 1.2 2.7 1.2h5.2c1.5 0 3.1.2 4.4-.8" class="b"/><path d="M8.1 190.9q2.3-.2 4.4.3l4.4-.5q9 .9 18.3.3c2.4-.4 4.8.2 7 .8q1.8.3 3.5.6 3.2.6 6.2 2c3.2.3 6-2 8.7-3.6 2.3 1.2 3.9 3.5 5.2 5.7q2.2-.7 4.4-1c2.5-3.1 6.8-4.4 10.5-3l2.6 1.5q1.2 1 2.6.8 8.3-.7 16.7-.7 5.7 0 11.3-.4l14-1.2c6.4-.7 13-.4 19.2-1.7q2.8.3 5.3 1.4c.8.3 1.8 1 2.6 1 3.5-.2 7-.4 10.5.2q2.2.3 4.4 1.1 1.8 1 3.5 2c2.3-.1 4.7.2 7-.2q1.6-1.1 3.5-1.9" class="b"/><path d="M8.1 188.7c1.8-.3 3.6.3 5.3.3l5.2-.6 6.2.3q3.9.1 7.8-.1c3-.4 6 .4 8.8 1.2 2 .8 4.1.9 6 1.6 1.2.3 2.4 1 3.6 1 3-.3 5.4-2.5 7.9-4q2.8 1.9 4.3 5c1.1.3 2.4-.4 3.5-.6l1.8-.3 1.7-1.2c3-1.9 7-1.3 9.6 1 1.3.7 3 0 4.4 0l14.9-1q4.4 0 8.7-.5c13.4-1.2 26.8-3 40.2-2.1q2.7.2 5.3.9c1.1.2 2.3 1 3.5 1q5.3 0 10.5 1l3.5 1.5c.7.5 1.7 1.2 2.6 1q2.2.2 4.4-.1 3-1.8 6-3.1" class="b"/><path d="M8.1 186.6a12 12 0 0 1 3.5.1q1.4.5 2.7.2c4.9-.9 9.9-.8 14.8-.8q4.9-.1 9.6 1.3 2.3.7 4.4 1.5 2.2.3 4.4 1c3.5 1.5 6.8-2.1 9.6-3.8 1.8 1.1 3.1 3 4.4 4.7q3-.9 6-1.3a7 7 0 0 1 6.2-.7q1.3.6 2.6 1.4 1.8 0 3.5-.2l7.9-.6q3-1.2 6.1-1.3h4.4c1 0 2.4.4 3.5.3l17.5-2 2.6-.4q2.2.1 4.4.5l8.7.8c5.8.5 11.7-.6 17.5-.4q2.6.2 5.3.9c1 .3 2.3.9 3.5.9q3.6.3 7 1.6c1 .4 2.2 1.4 3.4 1.5 1.9.1 3.7-.8 5.3-1.5q3.4-1.6 7-2.8" class="b"/><path d="M8.1 184.6q2.7-.3 5.3.4c4.6-.5 9.3-1.2 14-1.1a40 40 0 0 1 14.9 3.3q2.5.7 5.2 1.1c3-.4 5.4-2.8 7.9-4.5 1.9.8 2.8 3 4.3 4.2q3.5-1.2 7-1c1.8-.8 3.6 0 5.3.5q4.8.3 9.6-.3c5.5-3.3 12.3-2.7 18.4-1.5l12.2-1.5 2.6-.4q2.7.2 5.3.6 5.7.8 11.3 2 6.6-.9 13.1-1.3l6.2.3q2.2-.4 4.3-.5c4.2-.3 8.3 1 12.3 2 5.7 1.6 11.2-1.2 16.6-2.7" class="b"/><path d="M8.1 182.6q3.1-.3 6.2.5 6-1.2 12.2-1.2 4.9.2 9.6 1.5c2.7.7 5.1 2.3 7.9 2.6 3.8 1 6.8-2.3 9.6-4.3l.9.1c1.3.9 2.2 2.6 3.5 3.5a23 23 0 0 1 5.2-1q2.7 0 5.3.3 4.3.6 8.7.2c6.3-4.8 14.7-3.3 21.9-2q5.3-.5 10.5-1.3 3 .2 6 .8 5.5 1 10.6 2.5 3.4-.7 7-.9 6.5-.2 13-.6 3.7 0 7 .3c1.2 0 2.4-.6 3.6-.8q3.4-.7 7-.3c3.7.5 7.5 1.2 11.3.6q2.7-.5 5.3-1.2 1.7-.8 3.5-.2" class="b"/><path d="M8.1 180.6c2.4-.4 4.8.1 7 .5q5.6-1.1 11.4-1 4.6.1 8.7 1.5c3.2.8 6.3 3 9.7 2.5 3-.8 5.2-3.4 7.8-5q1.9 1.7 3.5 3.5c2.3-.6 4.7-1.2 7-1 3.7.2 7.7 1.5 11.4.4a13 13 0 0 1 6.1-2.9l3.5.4q4 .3 7.9-.4 2.6.4 5.2 1.1l7.9-1c2-.2 4.1.5 6.1.7q5.5 1 10.5 3c2.3-.2 4.7-.9 7-.9q6.1-.2 12.2.2 4.5 0 8.8-.3 2.6 0 5.2.4c1.2-.3 2.4-1.2 3.5-1.6q2.2-.8 4.4-1c2.3-.4 4.7-.1 7 0q4 .1 7.9-.5c2-.3 4.1 1.4 6 .3" class="b"/><path d="M8.1 178.7q2.2-.4 4.4-.1c1.1.1 2.4.6 3.5.6a42 42 0 0 1 9.6-1q4.6.2 8.8 1.5c9 3.2 8.9 3.7 16.6-2.6h.9q1.4 1.2 2.6 2.8c1.1.1 2.4-.5 3.5-.7q1.7-.2 3.5-.2c3.2.1 6.4 1 9.6.8 1 .1 2-.7 2.6-1.3q1.6-1 3.5-1.7 5.2 1.5 10.5.7 2.2-.2 4.4-.7 1.7.3 3.5.8l7-.8q8.5 1 16.6 4.2a40 40 0 0 1 17.5-.3c1.4.3 3-.4 4.3-.5 2.7-.3 5.6-.1 7.9 1.3q2.2-.4 4.4-.3c1 0 2.4.4 3.5.1 2.2-2.5 5.4-4.1 8.7-4.6q3 .5 6.1.6 4 0 7.9.7c1.4-.2 3-1.5 4.4-1" class="b"/><path d="M8.1 176.6c2.6-.5 5.4 0 8 .7 3-.5 6.3-1.1 9.5-1q4.1.1 7.9 1.3c9.2 3 9 3.2 16.6-3 1.5.2 2.4 2 3.5 2.8q4.3-1.4 8.7-.8c2.3.3 4.7.8 7 .6q1.6 0 2.7-1.1 1.2-1 2.6-1.6c1.4.2 3 1 4.4 1.1q2.5.4 5.2.1 2.7-.2 5.3-.8 1.2-.4 2.6-.4c2.5 1.1 5.2-.3 7.8 0q5.4.7 10.5 2.2c2.1.5 4.1 1.6 6.2 2.2a29 29 0 0 1 14-1c.8.1 1.8.5 2.6 0a27 27 0 0 1 16.6-1.6q1.9.7 3.5 2.2a6 6 0 0 0 1.7 1.6h3.5c1.8-2.4 4-4.8 7-5.6 3.4 1 7 1.9 10.5 1.8q2.6-1 5.3-1.8l2.6 1" class="b"/><path d="M8.1 174.4q2.6-.4 5.3 0c1.1.2 2.4.8 3.5.7a33 33 0 0 1 15.7.2c9 2.8 9.2 3.1 16.6-3 1.5.2 2.2 2.1 3.5 2.6 4.3-1.5 8.8-.8 13.2-.3 4.7.3 3.3-.4 7-2.4.8 0 1.8.6 2.6.8q1.6.6 3.5.8 5.7-.3 11.3-1.7l1.8.3 3.5-.3c6.3.8 12.7 1.8 18.3 4.7a27 27 0 0 1 14-1.6c1.1.2 2.5.5 3.5-.1q6.4-2.3 13.1-3c5.2-.7 10.6.3 13.2 5.3 1 .6 2.3.3 3.5.4 1-2.3 2.9-4.5 5.2-5.7l5.3 2.3c2.3-.5 4.6-1.7 7-2.3l5.2 1.8" class="b"/><path d="M8.1 172q4-.5 8 1 5.9-1.6 12.2-.8c10 1.3 11 5.8 20-2.2l1 .2c.7.6 1.5 2 2.6 2.1 4.2-1.3 8.7-.7 13-.2 1.5 0 3.1.1 4.4-.6q1.2-1 2.7-1.7c1.3.6 2.8 1.4 4.3 1.5l4.4-.4c2.9-.3 6-.4 8.7-1.3 1.4.5 3 0 4.4.3a52 52 0 0 1 17.5 4.5c1.5 0 3-1 4.4-1.3a31 31 0 0 1 12.2-.5l1.8.2q1.3-.2 2.6-.6 7.3-2.2 14.8-3.2c3.3-.3 6.9-.4 9.7 1.5 1.3 1 2.3 2.6 3.4 3.7q1.9-.1 3.6-.5c1.5-1 2.3-3.6 4.3-3.8.8.5 1.7 1.4 2.6 1.4q2.6-.9 5.3-1.5 4.1 1 7.9 2.8" class="b"/><path d="M8.1 169.6q3.7-.2 7 .9 6.5-1.7 13.1-.8 4 .6 8 1.8a9 9 0 0 0 7.8-1l2.6-2q.8-.7 1.7-.8c.9.6 1.7 1.9 2.7 2.3q4.6-1.2 9.6-.7 4 .7 7.9 0 1.2-1 2.6-1.9 1.6 1 3.5 1.4l4.4-.4c2.8-.4 5.8-.4 8.7-1q4.8.2 9.6 1.1 6.5 1 12.3 3.7a34 34 0 0 1 21.8-1.9c1.1.5 2.4 0 3.5-.2l5.3-1.2c7.2-1.6 15-5.7 21 .7q2.6 0 5.2-.6 1.6-.3 2.6-1.5c.4.2 1.3.5 1.8.5.7-.2 1.8-.6 2.6-.4q5.4 1.4 10.5 4" class="b"/><path d="M8.1 167q3.1.1 6.2 1a32 32 0 0 1 16.6-.5c8 2 9.5 3 16.6-2.4q1.5 1.2 2.6 2.6 4.3-1 8.7-1 2.7.4 5.3.4 2.2-.1 4.4-.5l1.7-1.3c1.2-.2 2.3 1 3.5.8l11.4-1h1.7l1.8.3q3 .3 6.1.8 6.8.9 13.1 3.7 7-3.7 14.9-3.4 6.2 0 12.2 1.5c1.1.3 2.4 1 3.5 1.1q2.6-.7 5.3-1.7c5.8-2 12.8-6.3 18.3-1.6 1.7-.2 3.6 0 5.3-.4l1.7-.4q.9.2 1.8 0c1.4 1.2 3.6 1.3 5.2 2q4.2 1.5 7.9 3.8" class="b"/><path d="M8.1 164.6q2.3.2 4.4.8a39 39 0 0 1 18.4-.7c6.8 1.5 9.6 3 15.7-1.7l.9.1c.8.6 1.6 2 2.6 2.2q4-1 7.9-.8c2.9.1 5.8.5 8.7-.2l1.8-.2q.8-.6 1.7-1.1c.9-.2 1.8.4 2.6.6l2.7-.3 7-.5q1.2.2 2.6 0c1.3.3 3 .5 4.3.6 5.7.8 11.4 1.7 16.6 4 1.8-.7 3.5-1.8 5.3-2.3q4.3-1.2 8.7-1.4a44 44 0 0 1 21.9 4.7c6-2.1 11.4-7.8 18.3-6.9q1.6.4 2.7 1.3 4 .4 7.8 1.3l1-1h.8l1.7 2 3.5 1.6c1.1.5 2.4 1.4 3.5 1.7h2.7" class="b"/><path d="M8.1 162.3q1.4.1 2.7.5a43 43 0 0 1 15.7-1.6c4.4.2 8.7 2.1 13.1 2.1 2.6 0 4.9-1.6 7-2.9q1.6 1 2.6 2.6 1.8 0 3.5-.4 2.7-.4 5.3-.4c2.6.2 5.3.5 7.8-.2q1.8-.1 3.5-.7l1.8-1c1.7 1 3.4.4 5.2.3 2-.3 4.2 0 6.2 0 1-.4 2.4.2 3.5.4a132 132 0 0 1 14 2.3c1.7.3 3.4 1.3 5.2 1.4 5-3 11-3.9 16.6-3.5 5.2.3 10.1 2 14.9 4 .7.2 1.8.8 2.6.9h3.5c1.7-.2 3.7.3 5.2-.4 4.5-3.7 12.2-9.7 17.5-4.3 2 .3 4.1 1.2 6.2 1.3l1.7-2.4c5.3 6 1.6 6 10.5 5.8" class="b"/><path d="M8.1 160c1.2 0 2.4-.5 3.5-.7q3-.7 6.2-1 8-.7 15.7 1.2c3.1.7 6.5 1.5 9.6.2 1.2-.4 2.3-1.5 3.5-1.4q1.6 1 2.6 2.6 3.5-.6 7-.8l1.8-.3a5 5 0 0 1 2.6.5 19 19 0 0 0 5.2-.6q3.3-.4 6.2-1.6 2.2.4 4.3 0c1.8 0 3.6.4 5.3 0 3.1 1 6.4 1 9.6 1.5q6.2 1 12.3 2.6a27 27 0 0 1 26.2 0c1 .5 2.2 1.6 3.5 1.6h17.5c3.7-3.3 8.5-8 14-6 1.3.4 2.3 1.7 3.5 2.5l3.5 1.3.8-.3 1.8-2.9.9.3c1.2 1.5 2.3 3.6 3.5 5h5.2" class="b"/><path d="M8.1 157q3.5-1 7-1.2a63 63 0 0 0 11.4.1c1.4 0 3-.3 4.4 0 5.2 1 9.8 3 14.8 0 1.5.3 2.7 1.7 3.5 2.9q3-.4 6.2-.6 1-.1 1.7-.7c1.4-.7 3.2-.4 4.4.6 1.7.2 3.5-.6 5.2-.8 2.9-.6 5.8-1.5 8.8-1.5H79q2.2.4 4.3.7A160 160 0 0 1 100 159c3.5.9 3.1.2 6.2-1a22 22 0 0 1 16.6.3l2.6 1.3q4.4.3 8.7.8 1.8.3 3.5.4 2.2-.8 4.4-.8c2.6-.1 5.3 1 7.9 1 5.7-.3 9.7-7.3 15.7-5.3 1.4.4 2.7 1.6 3.5 2.7l3.5 2c1.2-.9 1.8-2.8 2.6-3.9l1-.3c1.2 1.5 2.4 3.6 3.4 5.3h4.4" class="b"/><path d="M8.1 153.7q2.3-.4 4.4 0a71 71 0 0 0 19.2-.2c1.5-.3 3 .4 4.4.6q5 1.4 9.6-.7 2.1 1.1 3.5 3c2 .3 4.2-.2 6.1-.1 2.5-1.9 4.5-2.8 7-.3 1.5.2 3-.6 4.4-.9q3.5-1 7-1.6c2-.2 4.1.4 6.1.5q6 .5 12.3 1.3l7 .9c1.3 0 3 .6 4.3-.1 3.8-1.8 8.2-2.3 12.3-1.5 1.4.2 2.9 1.1 4.3 1.4q5.7.3 11.4 1.1c3.9-2.4 8.7-3 13.1-2.3 2 .5 4 1.4 6.1 1.9 3.9 1 7.3-1.8 10.5-3.4l.9.4c2.8-1.2 6.2 0 7.9 2.6q1.7 1.2 3.5 2.3c1.2-1.4 1.7-4 3.5-5q2 2.5 3.5 5.5h3.5" class="b"/><path d="M8.1 151.5q8.8 1.5 17.5 1.1 4.9-.4 9.6-1.5c2 .1 4.1.9 6.2.8 1.4 0 3-.5 4.3-.7q1.6.6 2.7 1.7c.3.5 1.1 1.3 1.7 1.5h5.3c2-2.6 5.6-3.5 7.8-.5l.9.2c3.7-1.1 7.4-2.9 11.4-3q11.3 1.3 22.7 2.2l5.3-.1q2.5-1 5.2-1c2-.3 4.1.3 6.1.5q4.9.1 9.6.8 1.8.4 3.5.3 2.5-1.7 5.3-2.7 1.3.2 2.6.6 3.5.8 7 0c1.4-.1 3-1 4.4-.4 4 1.6 7.1 3.3 11.3 1.2 1.2-.4 2.3-1.4 3.5-1.4l1 .5q.8 0 1.7-.3 2.4-.1 4.3 1.3c1 .7 1.8 2 2.7 2.7q1.1.8 2.6 1.4c1-1.8 1.8-4.3 3.5-5.6q2 2.4 3.5 5.3 1.2.5 2.6.3" class="b"/><path d="M8.1 149.9c6.7 1 13.5 1.6 20.2.8 3.2-.3 6.4-1.3 9.6-1.9 1.4-.1 3 .4 4.3.4q1.3 0 2.7-.4c2.1.2 3.9 2 5.2 3.5l5.3.2c1.4-2.2 4.4-3.8 7-2.4.8.6 1.7 1.7 2.6 2.3 3.6-1.7 7.3-3.2 11.3-3.7q5.3.7 10.5 1 6 .6 12.3.5a99 99 0 0 1 14-.5c3.8 0 7.6.8 11.3 1.3 1.2-.5 2.4-1.5 3.5-2 .5-.2 1.4 0 1.8.3q1.7 1 3.5 1.6 3.7 1.8 7.9 1.4c3-.6 5.8-2.3 8.7-3.5 5 2 7.3 2.5 12.2 0 .8.2 1.8.8 2.7 1q.8-.3 1.7-.4a7 7 0 0 1 4.4 2.4q1 1.7 2.6 2.6h1.7c.8-2 2-4.3 3.5-5.7 1 1 2 2.4 2.7 3.4.3.7 1 2 1.7 2.3h.9" class="b"/><path d="M8.1 148.3c6.7.7 13.5 1.5 20.2.9 4.1-.4 8-2 12.2-2.7 2.6-.2 5.6-.3 7.9 1.4.8.5 1.7 1.7 2.6 2.2q2.2.2 4.3.7c3.1-4.5 7.1-4.9 10.5-.5l1 .1c3.8-2.4 8.4-4 13-4q7.8 1 15.8.8l7.8-.5q4.9 0 9.6.2c3 .2 5.9.9 8.8 1.3 1.2-.2 2.1-1.7 3.5-1.6 1.4.7 2.8 2 4.4 2.4l7.8.6 5.3.5c1.6.1 3 .7 4.3-.6 1.7-1 3.3-2.8 5.3-3q2.2.8 4.4 1.2 2.7 0 5.2-1.2c1.3 0 2.4 1 3.5 1.3 3-.8 5.8 1.7 7 4.3h2.6c1.7-1.6 2.2-4.5 4.4-5.5 1.7 1.5 3 3.7 4.4 5.5" class="b"/><path d="M8.1 146.5q8.4.9 16.7 1.1c1.7 0 3.5-.7 5.2-.9s3.6 0 5.3-.6c4.4-1.3 9.8-3.3 14-.3l1.7 1.7c1.3.7 3 .8 4.4 1.3 1-.4 1.7-1.9 2.6-2.6 3.6-3 7.1-.5 9.6 2.5h.9c4.9-4 11.4-4.4 17.5-4.6h11.3l7.9.2c1.7 0 3.5-.4 5.3-.3l9.6 1.5 1.7-1.2c1.3 0 2.4 1.2 3.5 1.9l6.1.4q8.4.4 16.6 1.6c1.6-1.5 3.3-3.2 5.3-4.2 1.4.2 3 1 4.4 1 4.8.2 3.6-2.3 8.7 1 2.6-.4 4.8 1.7 6.1 3.7 1.1 0 2.5.3 3.5-.3q1.3-2.9 3.5-5h.9q1.9 1.8 3.5 4" class="b"/><path d="M8.1 144.7q7.5.3 14.9 1 4.6-1.7 9.6-2c2-.3 4.2.2 6.1-.2 4-1.5 9-2.4 12.3.8.3.5 1.2 1.3 1.7 1.4q1.9.5 3.5 1.3c2.3-3 4.6-6 8.8-3.9 2 1 3.4 3 5.2 4.1 7.3-6.2 19-4.3 28-4.6q6.6 0 13.1-1 3.5.8 7 1.2.8-.8 1.8-.9l1.7 1.2q1.2.6 2.6.5l6.1.4c6.2.5 12.4.6 18.4 2.1 1.5-1.7 3.2-3.5 5.2-4.5 1.5.2 3 1 4.4 1s3-.7 4.4-.8q2.3.8 4.4 2.4c.4 0 1.3.3 1.7.5 1.4.5 2.2 2 3.5 2.7q1.8.2 3.5-.2c1-2 2.5-4.1 4.4-5.4l3.5 3.1" class="b"/><path d="M8.1 142.6q6.6.2 13.2.7a43 43 0 0 1 19.2-2.3c1.1 0 2.4-.6 3.5-.7 2.3-.5 5-.3 7 1.1l1.7 1.6q2.2 1.2 4.4 2c3.4-4.9 6-6.6 11.4-2.9l2.6 2q1 1.3 2.6.7 1.6-1.1 3.5-1.8c7-2.3 14.6-1.5 21.9-2q6.1-.6 12.2-1.6c1.7 0 3.5.7 5.3.7l.8-.6c1 .2 1.8 1 2.6 1.2q4.9.6 9.7.8 5.6.3 11.3 1 4 .2 7.9 1.2c.6-.1 1.4-1 1.8-1.5 1.1-1.2 2.6-2.7 4.3-3q2.6 1 5.3.8c1-.2 2.4-.8 3.5-.2 2.9 1.2 5.3 3.5 7.8 5.3h3.5c.7-.3 1.5-1.4 1.8-2q1.5-2 3.5-3.5c1.3.2 2.4 1.5 3.5 2.3" class="b"/><path d="m8.1 140.4 12.3.2a48 48 0 0 1 21-2.4c1 .1 2.4.4 3.5 0q2.5-.7 5.2 0c1.7.4 3.1 1.8 4.4 3 1.1.4 2.2 1.5 3.5 1.5l.8-.3c3.8-7 8.6-4.3 14-1.2 4.8 2.9 5 1 9.7 0 6-1.2 12.2-1.2 18.3-2.2l10.5-1.9q1.8.2 3.5.5l.9-.5 1.7 1a68 68 0 0 0 10.5 1q6 .3 12.3 1 4.4.2 8.7 1.4c.6-.3 1.4-1.2 1.8-1.7 1.1-1.2 2.6-2.7 4.3-3q1.7.7 3.5.9 1.8 0 3.5-.6c3.6.6 6.3 3.3 8.8 5.6h4.3q2.1-3.2 5.3-5.4h.9l2.6 1.8" class="b"/><path d="M8.1 138h7c1.7-.1 3.6.2 5.3-.4a53 53 0 0 1 22.7-2l2.6.5q2.2-.6 4.4-.5 2.5.4 4.4 2 1 1.3 2.6 2 1 1 2.6.8c1.2-1 2.1-2.8 3.5-3.7 3.6-2.2 7.8.5 11.4 1.5q5.1 1.6 10.5.6 3.8-.8 7.8-1c1.8-.1 3.6.4 5.3-.2l8.7-2c2-.4 4.1-1.2 6.1-.6l1-.3c1.4 1.1 3.4 1 5.2 1.3l7.8.7c7.3.6 14.7.9 21.9 2.4q2-3.2 5.2-4.7c2 .6 4.1 1.3 6.2.7 3.2-1.2 7.5 2.7 9.6 5 1.3.5 3 .2 4.4.3 1.7-2 3.6-4.2 6-5.5 1.3 0 2.5 1 3.6 1.6" class="b"/><path d="M8.1 135.6q3.5-.3 7-.3 2.7.1 5.3-.5 3.9-.9 7.9-1.8 7.8-1.2 15.7 0l3.5.6q1.7-.5 3.5-.5c2.4 0 4.7 1.5 6.1 3.4.7.5 1.7 1.4 2.6 1.5h1.8c3.8-4.3 4.7-4.7 10.5-3.6q6 1.6 12.2 1.3 4-.2 7.9 0c1.4 0 3 .7 4.4.4l9.6-2.7q3-.9 6-1c1.4.7 3 .7 4.5 1l8.7 1c7.6.6 15.3.8 22.7 2.3a13 13 0 0 1 5.3-4.6c2.7 1 5 1.3 7.8.3q3 .8 5.3 2.6c1.2.8 2.2 2.3 3.5 3h3.5q2.8-3.7 7-5.6l3.5 1.7" class="b"/><path d="M8.1 133c3.5-.5 7-.4 10.5-.7q4.9-1 9.7-2c2.5-.6 5.2 0 7.8 0s5.3-.6 7.9 0l4.4.7c1.4 0 2.9-.5 4.3-.4q3.2.4 5.3 2.5 1.1 1.5 2.6 2.6c1.1 0 2.5.3 3.5-.4a7 7 0 0 1 6.1-3.2c3.8 0 7.6.7 11.4.9 4.4.2 9 .2 13.1 1.7 5-2 10.3-4 15.7-4.6q5.3 1 10.5 1.6 7.5.8 14.9 1.3c3.5.3 7 .4 10.5 1.3.5-.2 1.4-1 1.7-1.5 1.2-1.1 2.7-2.7 4.4-2.9q4 1.4 7.9.2 2.8.7 5.2 2.5c1.2.9 2.3 2.4 3.5 3.1h2.6q3.4-3.6 8-5.6c1.4.3 2.9 1.2 4.3 1.8" class="b"/><path d="M8.1 130.3q4.8-.6 9.7-.7 4.8-.8 9.6-1.7c1.7-.4 3.5.2 5.2.3q4 .3 7.9 0c1.7 0 3.5-.6 5.2-.4s3.6 1 5.3.5c3-.8 6.5 0 8.7 2.3.9.8 1.7 2.2 2.7 2.8h3.5c.8-.6 1.7-1.6 2.6-2.1 3-1.4 6.4-1 9.6-.8 5 .4 10.3.4 14.9 2.8a54 54 0 0 1 16.6-5.5q10.4 1.8 21 2.6c4.6.5 9.3.5 14 1.4 1-.2 1.8-1.4 2.6-2q1.5-1.5 3.5-2.3 2.5 1.1 5.2 1c1.1-.1 2.4-.8 3.5-.6 3 .9 6 2.7 7.9 5.3q1.2.4 2.6 0 3.8-3.7 8.7-5.5 2.7 1 5.3 2" class="b"/><path d="M8.1 127.6q4.8-.6 9.7-.9c2.9-.3 5.8-1 8.7-1.3q6.1 1.2 12.2 1 4.5-.2 8.8-1l3.5.5q8.4-2.3 13 5.1c1.8 0 3.7.4 5.3-.2a9 9 0 0 1 3.5-1.6 34 34 0 0 1 15.8 1.5q.8.3 1.7.4h1.8l1.7-1 3.5-1.5c3.1-1.4 6.5-2 9.7-3 2-.4 4 .4 6 .6q4.9.8 9.7 1.3c6.7 1 13.5.9 20.1 1.8 2-1.3 3.8-3.2 6.1-4q3.9 1.6 7.9.3c1.2-.4 2.4.5 3.5.9a16 16 0 0 1 3.5 2.3c.8.6 1.6 1.9 2.6 2.3l.9-.1a28 28 0 0 1 9.6-5.7c2.4.4 4.7 1.6 7 2.3" class="b"/><path d="M8.1 124.9c5.3-.7 10.6-1 15.8-1.9q4.8 1 9.6 1.5 4.9.4 9.6-.3c3-.4 5.8-1.4 8.8-1 1-.5 2.3.2 3.5.2q1.7.2 3.5-.3c2 0 3.8 1.5 5.2 3 .8.7 1.6 2.2 2.6 2.6h7q2.2-.8 4.4-.8 3.1 0 6.1.8h7l1.8-.9q1.6-.9 3.5-1.6c3-1.4 6.5-1.9 9.6-3.3 8.4 1.3 16.8 2.8 25.3 3.2l6.2.4c1 0 2.4.6 3.5 0q1.6-1.4 3.5-2.4c.7-.4 1.7-1 2.6-1q2 .9 4.3.9c1.5 0 3-.7 4.4-.9 3 1 6 2.8 7.9 5.3 1.3-.1 2.4-1.4 3.5-2 2.4-1.4 5-2.9 7.9-3.4 2.8.8 5.7 2 8.7 2.4" class="b"/><path d="m8.1 122 13.2-1.3c5.2.7 10.4 2 15.7 2 5 0 10-1.2 14.9-2 2-.1 4 .6 6 .9q1.9-.2 3.6-1c2.8.7 5.1 3.3 7 5.5q1.2.4 2.6.3h17.4c1.7.2 3-1 4.4-1.6q3-1.4 6.2-2.3 2.7-.7 5.2-1.8 2.7 0 5.3.5a219 219 0 0 0 28 3c2.1-1.3 4.4-2.8 7-3.5 1.8.7 4 1.3 6 1 1.2-.2 2.4-.9 3.5-.9q4.2 1.5 7 4.7c1.6-.4 3-1.6 4.4-2.3 2.2-1 4.6-2.4 7-2.5q3 .9 6.1 1.6c1.7.3 3.6 0 5.3.2" class="b"/><path d="M8.1 119c3.2 0 6.5-.5 9.7-.6q3.4.5 7 .7 3.5.4 7 1.4 3 .4 6 .4c4.2-.2 8.3-1.1 12.3-1.8l1.8-.6q1.2 0 2.6-.2 3 .2 6 1.1c1.3 0 2.5-.7 3.6-1q2.9 1.4 5.2 3.6c.8.7 1.6 1.8 2.7 2h15.7c1.7-.2 3.5-1.6 5.2-2.1q4-1.5 8-2.6l2.5-1q1.3.1 2.7.1l5.2 1q7.4 1.1 14.9 1.8l7.8.5c1.9-.5 3.5-2 5.3-2.5 1-.4 2.4-1.1 3.5-.5a12 12 0 0 0 6.1.7c1.1-.2 2.3-1 3.5-.9q3.6 1.5 6.1 4.2a62 62 0 0 1 7.9-3.7q1.3-.6 2.6-.6l2.6.7q1.8.6 3.5.8a49 49 0 0 1 8.8-.2" class="b"/><path d="m8.1 116.3 4.4-.2 4.4.3q6.1-.3 12.2.8c2.7.3 5.2 1.8 7.9 1.8 3.8 0 7.6-.9 11.4-1.6 1-.3 2.3-1.2 3.5-1.2l.8.3 4.4-.5q3.1.4 6.1 1.2 1.4-.4 2.6-1.1c2.3.7 4.2 2.5 6.2 3.7 1 .7 2.2 1.8 3.5 1.9h7c1.3 0 3 .2 4.3-.2q4.2-2 8.8-3.4l7-2c2.3-.2 4.6.4 7 .7a172 172 0 0 0 21 2.3c2-.6 4-1.7 6-2.5l1.8-.5c1.1 0 2.4.6 3.5.9q2.5.7 5.2.2c1.2-.2 2.4-1 3.5-1q3 1.4 5.3 3.5 4.2-2.1 8.7-3.7 2.7.6 5.3 1.4c1.7 0 3.5-.5 5.2-.5q4.5-.2 8.8.1" class="b"/><path d="M8.1 113.7q2.6.3 5.3.4a74 74 0 0 1 17.5.8l7 1.7q2.2.4 4.3-.1 2.3-.2 4.4-1c1.4-.5 2.9-1.7 4.4-1.6l1.7.7 7-1q2.6.4 5.3 1.3 1.3-.5 2.6-1.2c3.7 2 7.2 4.5 11.4 5.5q2.5.4 5.2 0l9.6-3.3q4.4-1.2 8.8-2.3 2.6.2 5.2.7c6 1 12.2 2 18.4 2.2q4.5-1.1 8.7-2.7l.9-.2.9.3 2.6.8c3.2 1 6.7.7 9.6-1q2.4 1.3 4.4 3.1 3.9-1.7 7.8-3.2l4.4 1.4c.8.2 1.9-.2 2.6-.3q1.8-.4 3.5-.5 6-.6 12.3.2" class="b"/><path d="M8.1 111.6c2.6.6 5.3 0 8 0q6-.5 12.2.3c4.6.4 9.2 2.3 14 1.6 2.4-.3 4.6-1.4 7-2.1l2.6 1.2 9.6-1.2c1.7 0 3.5.9 5.2 1l1.8-1c4.7 2.1 9.4 5.5 14.8 5l9.7-3q4.6-1.3 9.6-2.1 2.2.2 4.3.6 6.6 1.2 13.2 1.7c4.1-.2 8.2-1.3 12.2-2.3 4 .8 8.1 2.9 12.2 1.4 1.2-.3 2.4-1.1 3.5-1.2 1.2.6 2.3 1.8 3.5 2.2l6.2-2.3c1.4.2 3 1 4.3 1.4.9.2 1.9-.4 2.6-.6q2.2-.6 4.4-.8 7.5-.6 14.9.4" class="b"/><path d="M8.1 109.6c2.6 0 5.3-.5 8-.5 4 0 8.1-.2 12.2.2 7 .7 11.2 2.3 18.3-.2 1.5.2 3 1.2 4.4 1.7q4.4-.5 8.7-1.1l3.5-.7q1.8.4 3.5 1c.5 0 1.4-.4 1.8-.7h.8C82 116 80 114.3 93 110.8q4.6-1.2 9.6-1.9a6 6 0 0 0 2.6.1q1.3 0 2.6.3a52 52 0 0 0 18.4.1c1-.2 2.4-.6 3.5-.3 4.3.7 8.7 3 13 1.6 1.6-.3 3-1.3 4.5-1.6q1.3.8 2.6 1.7l5.2-2q2.3.8 4.4 1.8c.9.2 1.8-.5 2.6-.8q2.2-.8 4.4-1c5.8-.8 11.7-.3 17.5.4" class="b"/><path d="m8.1 107.2 5.3-.5 7 .2 7-.2q3.9.2 7.8.5 2.7.1 5.3-.1 1.7-.5 3.5-.1c1.8.3 3.5 1.4 5.2 1.9q3.5-.5 7-.8 4-.5 7.9-1.5l2.6.9a3 3 0 0 0 1.8-.6c1.2-.1 2.4 1 3.5 1.5q2.2 1.2 4.3 2.2 1.8.9 3.5 1 2.7-.2 5.3-1l9.6-2.6 7-1.3 2.6.4c1.1.1 2.4-.3 3.5-.4l6.1.6q4 0 8-.2c1.6-.2 3.5-.6 5.2 0l6 1.2q2.2.8 4.5.7l4.3-.1q2.3-.7 4.4-2h.9c.4.4 1.3.9 1.7 1.1 1.4-.3 2.9-1.3 4.4-1.3 1.7.5 3.4 1.8 5.2 2 6.3-4.3 18-2.7 25.4-2" class="b"/><path d="M8.1 104.4c5.3.2 10.5.7 15.8.4 7-.2 14.4-1 21 1.8q.8.5 1.7.3 1.8-.1 3.5-.4a65 65 0 0 0 14-2.2q1.4.2 2.6.9l1.8-.8c2.9 1.5 5.6 3.6 8.7 4.8 2.6.3 5.3-.5 7.9-1.2l9.6-2.5 6.1-1.1 4.4.6 5.2-.6q2.7.1 5.3.1c2 .1 4.1-.2 6.1-.1q5.3.6 10.5 2 4.8 0 9.6-.4 1.4 0 2.6-.2 1.3-.8 2.7-1.4l.8.6q1.4 0 2.7-.6c.8-.1 1.8.4 2.6.7 1.4.5 2.8 1.5 4.3 1.8 6.2-5.2 18.7-3.3 26.3-2.6" class="b"/><path d="M8.1 102.4q6.6.9 13.2.9 5.2-.1 10.4 0 3.1.2 6.2.9 2 .7 4.3.6l11.4-.5q5.4-.5 10.5-2.3c.4 0 1.3.4 1.7.6.5 0 1.4-.3 1.8-.6 2.7 1.3 5 3.5 7.9 4.7 3.2.5 6.5-.4 9.6-1.3q5.2-1.5 10.5-2.6l4.3-.8c2 .3 4.1.9 6.2.8a54 54 0 0 1 19.2.2q2.2.4 4.4 1l4.3-.2q5.3-.3 10.5-.8l1.8-.3q1.2-.6 2.6-.5c.8-.4 1.9.1 2.6.4q2.7 1.1 5.3 2.5l.8-.1c6-5.8 18.6-3.7 26.3-3.2" class="b"/><path d="M8.1 100c14.9 1.3 29.7 2.8 44.6 2.2a35 35 0 0 0 9.6-2.1c.8-.4 2-.4 2.7 0 .4 0 1.3-.2 1.7-.4q2.3 1.3 4.4 3c.7.5 1.6 1.3 2.6 1.5 3.5.8 7.1-.2 10.5-1.1q5.3-1.6 10.5-2.7c1.4-.2 3-.7 4.4-.7l6 1a54 54 0 0 1 22.8 1l7-.6c4.4-.4 8.8-.6 13.1-1.4 3.4.5 6.7 2.4 9.6 4.2 5.5-7 18.3-4.8 26.3-4.6" class="b"/><path d="M8.1 97.5 31 99.3a152 152 0 0 0 21 .7 33 33 0 0 0 10.4-2.6c.5 0 1.4.2 1.8.5l.9-.5c2.3.6 4 2.7 6 3.8 6.3 2.5 13.2-1.1 19.3-2.4l5.3-1.2q1.7-.4 3.5 0 3 .6 6 1a58 58 0 0 1 16.7-.5l5.3 1.3 1.7-.2L141 98q3.1-.4 6.2-.7l2.6.6.9-.5c.7.6 1.6 1.8 2.6 2q2.8 1.4 5.2 3.1c3.4-4 7.2-5.2 12.3-5.6q6.5-.5 13 .3" class="b"/><path d="M8.1 95c9.7.4 19.3 1.6 28.9 2.3 9.7.8 15.1 1.3 24.5-2.3l.8.3q1.5-.5 2.7.4l3.5 2.4q3.7 2 7.8 1.5c4.5-.6 8.8-2.2 13.1-3.2q3-.8 6.2-1.4 3.5.5 7 1.2 1.6.4 3.5-.1a57 57 0 0 1 15.7-.3q2.6.5 5.2 1.3l2.7-.3 11.3-1.3 4.4-.6q2.7.3 5.3 1.3l1.7-1.3c1.6 1.1 2.6 3.3 4.4 4.2 1 .6 2.2 1.8 3.5 1.6.6-.1 1.4-1 1.7-1.5l1.8-1.4c6-3.8 13.4-3 20-2.7" class="b"/><path d="M8.1 92.8c3.5-.3 7 .2 10.5.4l15.8 1.4a48 48 0 0 0 25.3-2l.9.3.9-.3c1.8.7 3.4 2.2 5.2 2.9 2.2.9 4.6 1.8 7 1.8 5.1-.2 10-2.3 14.9-3.4q2.6-.8 5.2-1.2c2.6.2 5.3 1 7.9 1.4 1.4.4 3-.2 4.4-.4a55 55 0 0 1 16.6-.1q2.2.4 4.3 1.2l2.7-.2L141 93l3.5-.4q4.1.2 7.9 1.8c.8-.5 1.6-1.7 2.6-1.7q2.7 2.2 4.4 5.2c1.3.6 3 .2 4.4.3.5-.2 1.3-1 1.7-1.4q1.6-1.4 3.5-2.2c4.7-1.7 10-1.6 14.9-1.6" class="b"/><path d="M8.1 90.5c12-.8 24 2.3 35.9 2.2a44 44 0 0 0 13-2.2c.5 0 1.4-.1 1.8-.3 13.9 7 15 4.8 28.9 1.1l4.4-1c2.9.3 5.8 1.2 8.7 1.7 1.4.2 3-.6 4.4-.7a51 51 0 0 1 18.3-.1q2.3.4 4.4 1.3l1.8-.3 14.8-1.9a42 42 0 0 1 9.6 2.4l.9-.3c.7-.7 1.7-1.7 2.6-2q3.2 2.4 5.3 5.6h5.2c4.3-3.8 10.3-4.4 15.8-4.7" class="b"/><path d="M8.1 88.2q5.7-.5 11.4 0c6.7.6 13.4 1.4 20.1 1.5q5.2 0 10.5-.9c1.7-.2 3.5-.8 5.3-.9l1.7.7q4.3 1.7 8.7 2.8 3.5 1 7 .8c4.2-.5 8.2-2 12.3-3l5.2-1.3 3.5.7q3 .8 6.1 1.3a45 45 0 0 1 9.7-1.9q3 .2 6 .2l4.5-.3a40 40 0 0 1 8.7 2l3.5-.5 11.4-1.4q6.9.5 13 3.2c1.3-.7 2.4-2.1 3.6-2.9h.9l3.5 2.9c.8.7 1.5 2 2.6 2.5l6-.1c3-2.4 7-3.3 10.6-3.8" class="b"/><path d="M8.1 86q4.5 0 8.8-.4 9.6.8 19.2.9 4.4 0 8.7-.4c2 0 4.2-.8 6.2-.3q5.2 1.5 10.5 2.8A31 31 0 0 0 79 88l6-1.6q1.9-.5 3.6-.8l1.7.4c11.3 2.8 5 1.5 15.8-.3 2.6 0 5.2.7 7.8.7q5.3.1 10.5-.8 2.7.5 5.3 1.4c1.4.2 3-.4 4.3-.5l6.2-.7c2.3-.3 4.7.2 7 .3q6.3.6 12.2 3.2l.9-.2c1.2-1.2 2.6-3 4.3-3.2q3.6 2.2 6.2 5.2c2.2.5 4.7.1 7 .2 2-1 3.9-2.2 6-2.7" class="b"/><path d="M8.1 83.8q11.4-.5 22.8-.5h7c1.7 0 3.5.5 5.2 0q3 .9 6.1 1.3 4 1 7.9 1.7c6.3 1 13 1.3 19.2-.5 11.7-2.9 7.5-3.2 19.3-.2 2.5-.8 5.2-1.8 7.8-2.2 5 .8 9.9 1.7 14.9 1.4q4.9-.2 9.6-1.4 1.8.1 3.5.9l1.8-.3 4.3-.6c2.3 0 4.7.5 7 .5q4.5.1 8.8.7 4.9 1 9.6 2.8c1.5-1.4 3.1-3.5 5.2-4 2.7 1.4 4.9 3.6 7 5.6h7l1.8-1" class="b"/><path d="M8.1 81.6q11.4-.3 22.8.2c1.7.1 3.5-1.3 5.2-.5l4.4 1.3 5.2.9c3.5.7 7 1.5 10.5 1.5q8.9.1 17.5-1.5l7-1.8q1.8-.4 3.5-.7l2.6.6c10 2.7 4.6 1.6 14-.6q4.8 1.1 9.6 1.9a44 44 0 0 0 19.3-1.3q1.6-.7 3.5-.4c1.7-.5 3.5 0 5.2.2q3.5.6 7 .8c3.2.2 6.5 0 9.6.4 3.6.4 7 1.5 10.5 2.4 1.8-1.2 3.3-3 5.3-4 2 .4 3.7 2.1 5.2 3.3.8.7 1.6 1.9 2.7 2.2q2.6-.2 5.2-.9" class="b"/><path d="M8.1 79.3q8-.1 15.8.8 2-1 4.4-1.5l7 2.6c3 1.4 6.4 1.6 9.6 2.5 5.2 1.2 10.6.2 15.7-.8L72 81l8.7-2c1.1-.5 2.4.2 3.5.4l7 1.8c2.3-.8 4.6-2 7-2.4 4 1 8.1 2.2 12.2 2.8l4.4.5q4-.5 7.9-1.3 5.2-1.2 10.5-2.2 1.2.3 2.6.3l1.7.6q4 .8 7.9 1.3c4 .4 8.2 0 12.2.3q5.3.5 10.5 1.7 2.4-2.4 5.3-4c2.3.7 4.3 2.5 6.1 4.2 1.3.5 3-.2 4.4-.3" class="b"/><path d="M8.1 77q5.8.1 11.4 1c1.5-.4 2.9-1.4 4.4-1.8q4.6 1.8 8.7 4c1.1.6 2.3 1.5 3.5 1.8h20.1c4.3-1.4 8.7-2.9 13.1-3.6l9.7-2q3.5.6 7 1.6c1 .2 2.3.8 3.5.5l4.3-1.7q1.4-.6 2.6-.2l3.5 1q3.5 1.1 7 1.9c1.4.3 3 .8 4.4.5 6.5-.7 12.9-2.2 19.2-3.6.4-.1 1.4-.2 1.8 0l3.5.7q1.3-.2 2.6-.8c1.9.4 3.5 1.7 5.3 2.6l3.5.5c4 .5 8.1.2 12.2.2q5.3.1 10.5.8 2.3-2.4 5.2-4c1 0 2 .7 2.7 1.1q1.7 1.4 3.5 2.6l2.6-.4" class="b"/><path d="M8.1 74.8c3.3 0 6.5.6 9.7 1q1.6-1.2 3.5-2a70 70 0 0 1 10.4 5.8h15.8q4.9.2 9.6 0c6-3.3 12.7-4.3 19.2-5.7 3.6.5 7 1.8 10.5 2.3l3.5-1.5q1.3-.6 2.7-.6l10.4 3.2 2.7.6a77 77 0 0 0 8.7-.8q7.5-1.3 14.9-3c2.6 0 5.3 1 7.8 1.7l4.4-1.9c2.9 1 5.4 3 7.9 4.6 3.7.5 7.6.2 11.3 0q4.8-.4 9.7-.3 2.8-2.5 6-4.3c2 .8 3.7 2.2 5.3 3.3l1.8-.3" class="b"/><path d="M8.1 72.4q4 0 8 1c1.2-.2 2.3-1.3 3.4-1.8 2.5.8 4.8 2.4 7 3.8 1.1.5 2.2 1.8 3.5 2h17.5c2.6-.2 5.3-.6 7.9-.2q1.4.1 2.6-.8a39 39 0 0 1 14.8-4.7c1.4-.4 3 .3 4.4.5l7 1.5q2.6-1.2 5.2-2c4.4 1.1 8.7 2.9 13.2 3.9q7.8 0 15.7-1.7l10.5-2.3c3.5.6 7 2 10.5 2.8q3-1.6 6.1-2.8 5.6 2 10.5 5.7c3.8 0 7.6.3 11.4-.4 1-.2 2.5-.1 3.5-.8q3.2-2.6 7-4.5c1.9.5 3.4 2.1 5.2 3l.9-.3" class="b"/><path d="M8.1 70c2.7 0 5.3.8 8 1q1.1-1 2.5-1.7 3.7 1.7 7 4c1 .7 2.2 1.9 3.5 1.7H44q2.2-.2 4.4-.6a27 27 0 0 1 7.8.2q6.8-4.3 14.9-5.4l10.5 2c1.6-.7 3.4-1.6 5.2-1.8q5.7 1.9 11.4 3.5c2.2.5 4.7.1 7 .1q8-.3 15.7-2.2c2.3-.4 4.7-1.2 7-1.5a68 68 0 0 1 10.5 3.4c1.3.5 2.2 1 3.5 0q2.5-1.6 5.2-2.6c1.1-.4 2.4-1.2 3.5-.5q4.6 1.6 8.8 3.7 4.7 2.6 9.6.6l6.1-3.1c1.1-.5 2.3-1.4 3.5-1.5q2.3 1.1 4.4 2.5l.9.1" class="b"/><path d="M8.1 67.7q2.3 0 4.4.4c1.1.1 2.4.8 3.5.5.7-.6 1.7-1.5 2.6-1.6l6.2 4q1.1.9 2.6 1.6H43c1.4.1 3-.5 4.4-.6q4-.6 7.9 0a38 38 0 0 1 13-5q3.1.3 6.2 1c1.4.1 3 .6 4.4.5l4.3-1.5c4 1.1 8.1 2.6 12.3 3.4q11.4 1 22.7-1.6l7.9-1.8c3.3.4 6.5 1.7 9.6 2.9 2 .7 4 2 6.1 2.7.9-.2 1.8-1 2.6-1.5q2.2-1.4 4.4-2.2c2-.7 4-1.8 6.1-1.9 3.2.9 6.4 2.3 9.6 2.9 3 .5 6-.2 8.8-1.2 1.7-.5 3.4-1.5 5.2-1.7 1.8.6 3.5 1.9 5.3 2.5" class="b"/><path d="M8.1 65.3q2.3 0 4.4.4c1.1 0 2.4.6 3.5.6l1.8-1.5h.8l6.2 4 1.7 1.3q1.7.3 3.5.2h13.1c1.4 0 3-.6 4.4-.8q3.5-.4 7 .2 5.6-3.8 12.2-5 3 .3 6.1 1c1.1 0 2.4.5 3.5.1q1.8-.6 3.5-1c2.4.2 4.7 1.2 7 1.8q6 1.6 12.3 1.6 9.2.2 18.3-1.9c2.6-.4 5.3-1.3 7.9-1.7a47 47 0 0 1 14 5.5q2.2.4 4.3.2l2.7-.1 2.6-1.5q3-1.5 6.1-2.5c6.8-2.6 4.8-1.2 11.4-.4q5.3.6 10.5-1 1.3-.3 2.6.4 2.2.8 4.4 2.1" class="b"/><path d="M8.1 63q4-.3 8 1c.7-.6 1.6-1.5 2.5-1.7L24 66l2.6 1.9h16.6c2.3-.3 4.7-1 7-.9l2.6.3c1.5-.4 3-1.6 4.4-2.2q3-1.5 6.1-2.3 1.7-.6 3.5-.3 3 .6 6.1.9c1.4-.3 3-1.1 4.4-1q5.3 1.7 10.5 2.4 4.3.6 8.7.6l5.3.4q4.8-.1 9.6-1 6.2-1 12.2-2.5 7 1.4 13.1 5 1.2.9 2.7.7h10.5c1.5.2 3-1 4.3-1.6a59 59 0 0 1 12.3-4.2l4.3.3q2.2 0 4.4-.2 4.6.6 8.8 2.7" class="b"/><path d="M8.1 60.9c3-.7 6 0 8.8.5l1.7-1.5c2.2 1.2 4.1 3 6.2 4.3.8.4 1.6 1.4 2.6 1.4H43q3-.6 6.1-.7c.8 0 1.9.3 2.7 0a39 39 0 0 1 9.6-4.2c1.3-.4 3-1 4.3-.5l3.5.5c1.2 0 2.4-.5 3.5-.7 2.4.2 4.7 1 7 1.4 6.4 1.5 12.9.4 19.3 1 2 0 4 .5 6 .6q3.1-.3 6.2-1 5.3-1 10.5-2a42 42 0 0 1 10.5 3.6h1.7a21 21 0 0 1 7 1.9q2.6.1 5.3.1c2.6 0 5.3.2 7.8-.4l3.5-.4q3.3-1.8 7-3.1a29 29 0 0 1 19.3 1.2" class="b"/><path d="m8.1 58.1 1 .4q2.5-.5 5.2-.2c1 0 2.3.7 3.5.5.3-.4 1.1-1 1.7-1 2.6 1.7 5.1 3.9 7.9 5.5H44a15 15 0 0 1 5.2-.2c1.5-.5 3-1.6 4.4-2.2q4.6-2.1 9.6-3.2c1.4-.2 3 .4 4.4.4q.9-.1 1.8-.4c3.1.4 6.3 1.3 9.6 1.5 5 .6 9.9-.4 14.8-.3q6.3 0 12.3 1.3c3.8-.5 7.6-1.5 11.3-2.1l2.7-.5 2.6.7q3.1.9 6.1 2.2c.8.3 1.8 0 2.6 0a25 25 0 0 1 13.1 2.8l3.5-.1 3.5-.8a36 36 0 0 1 9.7-.3q1.4.3 2.6-.5l3.5-1.4a28 28 0 0 1 16.6.7" class="b"/><path d="m8.1 55.2 1.8.9q2.6-.6 5.2-.3c1.2 0 2.4.8 3.5.5l1-.7h.8l5.2 3.8c.8.5 1.7 1.5 2.7 1.6h18.3q1 0 1.8-.6a46 46 0 0 1 13-4.7q1.9-.5 3.6-.2a3 3 0 0 0 1.7-.1q2.2.4 4.4.7 4.3.8 8.7.5c3 0 5.9-.6 8.8-.8q8.8-.6 17.5 1.6l11.3-2c3.4.3 6.5 1.8 9.6 2.9 5.9-1.7 12-.4 17.5 1.6 1.1.6 2.4.3 3.5 0l4.4-.5q6.6-.8 13.1.6a3 3 0 0 0 1.8-.3 27 27 0 0 1 16.6-.6" class="b"/><path d="m8.1 52.5 1.8 1c1 .3 2.4-.2 3.5-.2q1.7 0 3.5.2 1.3.4 2.6.4l.9-.7h.9q3.6 2.4 7 5.2 1.6.4 3.4.2H45c1.5-.2 2.9-1.3 4.3-1.8a68 68 0 0 1 14-4q1.7 0 3.5.6 3 .5 6.1.6 5.8-.2 11.4-1.1c2 0 4.1.4 6.1.4 2.6.2 5.3-.2 7.9-.3q3.1.4 6.1 1.3c1.4.6 3-.2 4.4-.3l6.1-1c3.3.2 6.6 1.5 9.6 2.9 1.8-.1 3.5-1 5.3-1 5.4-.8 10.6.9 15.7 2.4 7.8-1 16-1.5 23.6 1.1a25 25 0 0 1 9.7-1.7q2.6.2 5.2.4" class="b"/><path d="M8.1 50q1.5.4 2.7 1.3 4.8-1 9.6.4l.9-.8h.8q4 2.6 7.9 5.4H43q8.5-3.5 17.5-5.3c2-.7 4-.3 6.1 0q2.7.5 5.3.2l5.2-.6c4.4.5 8.7 1.4 13.1 1.2q4.9-.2 9.6-1.2l2.7.7c.7.2 1.8.7 2.6.4l7-1.1q5.5.7 10.5 3.2c4.9-2.2 10.5-2.4 15.7-1q2.6.6 5.3 1.6h2.6c4.9-.3 10-.6 14.8 0q2.7.3 5.3 1c1 .2 2.3.8 3.5.9h2.6q1.8-.4 3.5-.7 3.5-.6 7-.1l.9-.5" class="b"/><path d="M8.1 47.6c1.5.3 2.8 1.6 4.4 1q4.5-.8 8.8.7l1.7-1q4.6 2.6 8.7 5.7h8q4.2-1.3 8.6-2.5l9.7-2.3 4.3-1q1.3.2 2.7.3c2 .3 4-.2 6-.2 6.2.8 12.3 2.6 18.4 2a62 62 0 0 0 10.5-2c1.2 0 2.4.6 3.5.8l6.2-.8c3.9.6 7.9 1.5 11.3 3.6 4.7-3 10.5-3.1 15.8-1.8 2.3.4 4.6 2 7 1.8 5.8.2 11.7-.3 17.4.6 2.4.2 4.8 1 7 1.4h14l1.8-1.1" class="b"/><path d="M8.1 45.4q1.5.1 2.7.8c2 .4 4-.4 6-.3q1.9 0 3.6.4c1.3.4 2.3.8 3.5-.2q1 0 1.7.5l2.7 1.4 3.5 2c.7.4 1.7 1 2.6 1 3.5.2 7-.7 10.5-1.4q5.6-1 11.3-2.4c1.5-.3 3-1 4.4-1.2a25 25 0 0 1 8.7.5c3.8.6 7.7.6 11.4 1q4.9.5 9.6 0l4.4-.3 5.3-1.3 1.7.5q2.2-.1 4.4-.5c4.5.6 9.2 1.5 13 4 4.6-3.2 10.5-4 15.8-2.4 1.8.4 3.5 1.3 5.3 1.8l4.3.5c4 .7 8.2.3 12.3.7q3.5.3 7 1h17.5q1.3-.5 2.6-1.2" class="b"/><path d="M8.1 43.3q1.4 0 2.7.6l5.2-.3q4.1-.2 7.9 1l1.7-1c1.8.4 3.6 1.5 5.3 2.2 2 .8 4 2 6.1 2.1 5-.2 10-1.2 14.9-2 2-.5 4-1.5 6-1.8s4.2-.1 6.2-.5l4.4.5q6.5.6 13 1c5.9-.4 11.9 0 17.6-1.5 1.3.6 3-.2 4.3.1 4.9.7 10 1.5 14 4.5 3.9-3.1 9.2-4.6 14-3.5 2.1.3 4.2 1.3 6.1 2l3.5.9 6.2 1.7h32.3c1.5-.3 3-1.1 4.4-1.5" class="b"/><path d="m8.1 41.2 5.3.2q3-.3 6.1-.2 1.8 0 3.5.6c.8.1 1.8.6 2.6.3.8-.4 1.8-1 2.7-.6 3.6 1.3 7.4 2.8 11.3 3q4.9.3 9.6-1 4.8-1.4 9.7-1.7c2 .2 4-.3 6-.5 5.6.5 11.2 1.2 16.7.9q5.7.1 11.4-.4c2 0 4-.6 6-.5 5.8.7 12 1.3 16.7 5 3.7-3.3 9-5 14-4.2q2.8.7 5.2 2 2.3.5 4.4 1.5c1.1.4 2.3 1.5 3.5 1.3H176l7.9-1.8" class="b"/><path d="M8.1 39.3q3.1-.4 6.2-.3 3-.3 6-.1 1.9.1 3.6.5 1.3.5 2.6.5l2.6-.9c1.5 0 3 .7 4.4 1q3.8 1.1 7.9 1.2c4 .2 8.1-.8 12.2-1.1q3-.2 6.1-.2L65 39c1.7-.4 3.5 0 5.2.1q4.4.4 8.8.3a135 135 0 0 0 15.7-.5c.8 0 1.9-.3 2.6 0 5.8.8 12.1 1.5 16.6 5.4 1.8-1 3.3-2.7 5.3-3.4 3.8-1.7 8.4-2.1 12.2-.5q1.7.9 3.5 1.4 2.3 1 4.4 2.6 4.9.3 9.6-.1c6.4.4 12.9.1 19.2.2q3.1-.1 6.2-.6 4.7-.7 9.6-1" class="b"/><path d="M8.1 37.4q3-.7 6.2-.6 2.2-.1 4.3-.4 2.7 0 5.3.6 1.6.5 3.5.7c1.4-.4 2.9-1 4.4-1l3.5.7q4.3 1 8.7.8l10.5-.3c1.4 0 3 .3 4.4 0q4.7-.8 9.6-1.3l5.2.2q6 .2 12.3 0 2.6 0 5.2-.2 1.8.1 3.5 0l2.6.5c5.2.7 11 1.5 14.9 5.2h.9a17 17 0 0 1 15.7-5c1.5.3 3 1.2 4.4 1.9q1.9.7 3.5 2c1.3 1.5 3.4 1 5.2 1q1.8.2 3.5-.1 1.7-.7 3.5-.8 4 .3 7.9.7l7-.5q10-.6 20-.1" class="b"/><path d="M8.1 35.7c2.6-1 5.3-1 8-1.3 3.7-.7 7.6 0 11.3 1 2 0 4-1 6.1-1.2a74 74 0 0 0 13.1 1.4l6.1.2c1.4 0 3 .4 4.4.3l9.6-1.4 9.6-.6q4.8.2 9.7.2c2.3 0 4.7.3 7 0q2 .5 4.3.7c4.6.7 9.5 1.8 13.1 5l1.8-.3 1.7-1.6q1.7-1.3 3.5-2.1c5.7-2.6 12.7-2 17.5 2 2.4 2.1 2 2 5.3 2 1.7-.2 3.6.2 5.2-.4 2.2-1 4.7-.7 7-1a132 132 0 0 1 24.5.5c2.3.4 4.6 1 7 .8" class="b"/><path d="M8.1 34c3.4-1.4 7-1.5 10.5-2.2 3.3-.1 6.5.7 9.7 1.5q3.4-1 7-1.4l4.3.6q6.1.8 12.2 1.2l3.6.5 4.3-.6q5.3-.8 10.5-1.2 7-.4 14-.3c2 0 4.2.4 6.1-.1 1.7-.2 3.5.8 5.3.8 4.6.7 9.5 1.6 13 4.8 1.7.1 2.4 0 3.6-1.3q2-1.6 4.3-2.7a18 18 0 0 1 18.4 2c.8.6 1.7 1.7 2.6 2h7c2.9-2 6.4-2 9.6-2.2q6.1-.4 12.3.2 5.3.5 10.5 2h7" class="b"/><path d="M8.1 32.2c3.6-1.6 7.6-2 11.4-2.7q4.6.2 8.7 1.4c2.7-.3 5.3-1.2 8-1.4l12.2 1.8q3 .4 6 1 6.1-.9 12.3-1.6a122 122 0 0 1 18.4-.7q2.3.2 4.4-.5c5.8 1.8 12.6 1.6 17.4 5.7h2.7c3.2-2.7 7-5 11.3-5.6 5.7-.9 11.6.5 15.8 4.5 1 1.5 2.7 1.1 4.3 1.1 1.2 0 2.6.3 3.5-.4a18 18 0 0 1 8.8-2q6.6-.5 13 .5 3.7.6 7 1.9H184" class="b"/><path d="M8.1 30.5q2.2-1 4.4-1.7 4-1 7.9-1.7c3 .2 5.8 1.1 8.7 1.5q3.5-.9 7-1.3 6.1.7 12.3 1.9l5.2 1 12.2-1.5Q72.4 28 79 28h6q1.5-.3 2.7-.7c2 .1 4 1.2 6.1 1.6 4 .6 8 1.7 11.4 4.1h3.5a23 23 0 0 1 21.8-5.2c3.3 1 6.1 3.2 8.8 5.2h4.4q1.6-1 3.5-1.6 3.8-1.2 7.8-1 8.2-.3 15.8 2.6h7.8c1.7-.1 3.7.4 5.3-.3" class="b"/><path d="m8.1 29 4.4-2.1q2.2-.7 4.4-1.2c2-.5 4-1.2 6.1-.6q2.7.4 5.3 1c1 .2 2.3-.3 3.5-.5L36 25a145 145 0 0 1 16.6 3.3c2 0 4.1-.5 6.2-.6 7.8-1 15.7-2 23.6-1.8 1.4 0 2.9-.8 4.3-1l1.8.5L93 27q3 .6 6 1.6 1.9.8 3.6 2h2.6c.8 0 1.9.2 2.6-.2 6.2-5.3 14.9-7 22.7-5.2q5.8 1.6 10.5 5.5h3.5c3.4-2.2 7.5-2.4 11.4-2.4q4 0 7.9 1c1.4.4 2.9 1.2 4.3 1.4h7l6.2-1 2.6-1.2" class="b"/><path d="M8.1 27.4q2.6-1.6 5.3-2.7l7-2q1.7-.4 3.5 0l3.5.8c1 .4 2.4 0 3.5-.2 2.3-.4 4.7-1 7-.4q4.8.8 9.6 2c1.7.3 3.5 1.2 5.2 1.2q7-.7 14-1.6 7-.6 14-.7c1.7-.3 3.5-1.4 5.3-1.2 3.8 1.1 7.5 2.8 11.3 4.1q1.5.6 2.7 1.3c1.3.4 3 .2 4.3.2h1.8q1-.4 1.7-1 1.7-1.2 3.5-2.1 5.8-3 12.3-3 4-.2 7.8.5a45 45 0 0 1 11.4 5c.9.8 2.4.7 3.5.5l1.8-.7q2.5-.8 5.2-.9a29 29 0 0 1 10.5 1.6q1.4.2 2.6.1c3 .2 5.9-.9 8.8-1.2l4.3-.4 4.4-1.8" class="b"/><path d="M8.1 25.9q3-2 6.2-3.4l5.2-1.6 2.6-.7q2.7.2 5.3.8 1.3.3 2.6-.2l3.5-.5q2.2 0 4.4.5 6.6 1.1 13 3c5 0 10-.8 15-1.3q5.6-.5 11.3-.6c1.8 0 3.6-.9 5.3-1.3l1.7-.4a58 58 0 0 1 10.5 4.3c1 .6 2.3 1.6 3.5 1.4h6.1c1 .2 2-.6 2.7-1l3.5-2q6.1-3 13-3.2 4 0 8 .3c5.7 1.2 11.1 3.5 16.5 5.6q1.4.4 2.7 0a21 21 0 0 1 8.7.3q1.8 0 3.5-.3c4.6-.7 9.3-1.8 14-1.4q3.3-1.6 7-2.4" class="b"/><path d="M8.1 23.6q1.6 0 2.7-.8 1.6-1.1 3.5-2Q18 19.1 22 18c1.7-.6 3.6.1 5.3.4q1.3.1 2.6-.3 1.3-.3 2.6-.4l4.4.7a99 99 0 0 1 12.2 3q3.1 0 6.1-.2l8.8-.8q4-.5 7.9-.6c2 0 4.2.1 6-.7q2.3-.8 4.4-1.3c.8 0 2 .4 2.7.6q5.6 1.8 10.5 5h6c1.2 0 2.6.3 3.6-.4 4.9-3.2 10.8-5.1 16.6-5.6a53 53 0 0 1 21 2.5q4.3 1.4 8.7 2c7 1 14-.7 21-.4l1.8.2q1.6-.7 3.4-1.3 3-1 6.2-1.5" class="b"/><path d="M8.1 21.2h2.7q2.1-1.4 4.3-2.6a70 70 0 0 1 7.9-2.7c.8-.2 1.8-.6 2.6-.3q1.3.4 2.6.4l2.7-.5 9.6 1.6c2.6.5 5.2 1.6 7.9 1.8 4.6.3 9.3-.2 14-.6q5.6-.5 11.3-.5 3.5-1.2 7-2.1c1.2-.2 2.4.4 3.5.7q3.7 1.1 7 2.9c1.4.6 2.7 2.2 4.4 2h5.2q2 .2 3.5-.8 6.6-3.6 14-4.7 7.5-1 14.9-.5c6.7 1 13.3 2.6 20 3.4 6.2.6 12.3 0 18.4.8q6-2.3 12.3-3" class="b"/><path d="M8.1 18.9c5.5.2 3.6-.2 8-2.4q4.5-2.1 9.5-3.2c.8-.2 1.9.1 2.7.1q.8-.2 1.7 0l8.7 1.5q3.5.8 7 1.2c6.7.7 13.5 0 20.1-.4h5.3c2.9-.9 5.8-2 8.7-2.4A51 51 0 0 1 93 18.8q2.6.1 5.2 0 1.9.3 3.5-.7a41 41 0 0 1 16.6-4.5q7.8-.7 15.8-.4 7 .7 14 1.9c6 1.1 12.2 1.1 18.3 2l1.8.3 1.7-.6a60 60 0 0 1 14-2.5" class="b"/></svg>