<svg xmlns="http://www.w3.org/2000/svg" id="a" width="1920" height="2400" viewBox="0 0 192 240"><defs><style>.b{fill:none;stroke:#fff;stroke-miterlimit:10;stroke-width:.3px}</style></defs><path d="M0 0h192v240H0z" style="stroke-width:0"/><path d="M9.8 219.6q8 1.3 16.3 2.5c3.4.4 6.8.9 10.3.2q4.3-.5 8.5-.6 3 0 6-.5l9.5-1.6q2.2.2 4.3.6 4.2 1 8.6 1 4.6-.4 9.4-.3c4 .2 8 .8 12 .7 6.3 0 12.6-.5 18.9 0q4.4.5 8.6 1.4c1.7.3 3.4 1 5.1 1 3.5 0 7 .7 10.3 1.3h25.8q2.2-.6 4.3-1c4.8-.8 9.9-.7 14.6-2.3" class="b"/><path d="M9.8 218c6.8 1 13.6 2.4 20.6 2.6a127 127 0 0 1 15.4-1.4q5.5-1 11.2-2c4.5.8 9 2.2 13.7 2.5 3.4.2 6.9-.4 10.3-.2 4.6 0 9.1.5 13.7.6 5.4 0 11-.3 16.3 0q4.8.4 9.5 1.4c2 .4 4 1.2 6 1.1 6 .6 12 .3 18 .4h19.7l3.5-1c4.8-1 9.9-.5 14.6-2.3" class="b"/><path d="M9.8 216.6q6 1 12 1.6c2.2.1 4.6.5 6.8.1q7.4-1.2 14.6-1.4l7.8-1.5 2.5-.4 4.3.9c3.7.7 7.4 1.9 11.2 2.5q3.4.3 6.8-.2h6q6 .2 12 .5h12q5.3 0 10.4.8c2 .2 4 1 6 1.2h40.3q1.8.1 3.5-.5 3.8-1 7.7-1.4 4.4 0 8.6-1.5" class="b"/><path d="M9.8 215.2c4.5.6 9 1.3 13.7 1.3l7.7-1.1q4.7-.7 9.4-.9l7.8-1.5c2.2-.6 4.6.4 6.8.8 4.6 1 9.1 2.8 13.8 3.6 2.8.4 5.7-.4 8.5-.4q5.6-.2 11.2.3c7.1.4 14.3-.5 21.5 0q3.8.5 7.7 1h37.7q3.9.2 7.8 0 1.6-.6 3.4-1 4.6-1 9.4-1.1 3-.4 6-1.5" class="b"/><path d="M9.8 213.7q4.6.8 9.4.8 9-1.7 18-2.2 4.3-.7 8.6-1.6c1.4-.4 3 .2 4.3.4 5.6 1 10.9 3.3 16.3 5h12.9l4.2-.1a32 32 0 0 1 10.4-.4c1 .1 2.3.5 3.4.4q4.7-.3 9.4-.2l6.9.3h48.1l4.3-1.4c3.3-.8 6.8-.8 10.3-1q3-.6 6-1.6" class="b"/><path d="M9.8 212.2q2.1.4 4.2.3 3-.7 6-1 7.8-1.2 15.5-1.7c2.8-.5 5.7-1.3 8.6-1.6q6.5 1.2 12.8 3.5a21 21 0 0 0 4.3 1.4q2.2.7 4.3.7h14.6c1.1-.2 2.3-.8 3.5-1a42 42 0 0 1 16.3 1H159c1.4-.2 2.9-1 4.3-1.3q6-1.4 12-1.3c2.3-.2 4.6-1.2 6.8-1.9" class="b"/><path d="M9.8 210.4a111 111 0 0 1 22.3-2.8l7.7-1.5c2-.4 4 .5 6 .9q3.5.8 6.9 2 2.5 1 5.1 1.6l3.4.9h16.3c5.7-2.2 12-2.4 18-1.6q4.4.7 8.6 1.5 3 .2 6 0h47.3a38 38 0 0 1 13.7-2.8q1.6.1 3.4 0c2.7 0 5.2-1.3 7.7-2" class="b"/><path d="M9.8 207.2a100 100 0 0 1 19.7-2q3-.5 6-1.1c1-.2 2.4-.6 3.4-.3q4.4.9 8.6 2.2c1.4.4 2.9 1.2 4.3 1.5l4.3 1q1.6.7 3.4.7H75l1.7-.5 3.4-1.2q6-1.1 12-.9c6 .4 12 1.8 18 2q6.9-.1 13.8-.4 6.8 0 13.7.2 4.8.3 9.5.8h7.7q4.5-1.7 9.4-2.6l5.2-.6c1.3 0 2.9.3 4.3.1 3-.2 5.7-1.5 8.5-2.4" class="b"/><path d="M9.8 204.2q8.5-1.5 17.1-1.4 3-.5 6-1.1 1.8-.6 3.5-.1 4.3.9 8.5 2.2 3.4 1.4 6.9 2l4.3 1.1H69c2-.1 4.2.4 6-.6a45 45 0 0 1 23.1-2q6 .7 12 .7c4.3 0 8.7-.4 13-.4q12 0 24 2 2.5.5 5.1.3l3.4-1.2q4.3-1.3 8.6-1.9c3.1-.7 6.4.2 9.5-.4a28 28 0 0 0 5.1-1.4l1.7-.6c.5-.1 1.4 0 1.8.3" class="b"/><path d="M9.8 201.5q7.2-1.1 14.5-1l5.2-1c1.4-.3 2.8-.7 4.3-.2q4.8 1 9.4 2.6c2 .8 4 1.1 6 1.7q1.8.3 3.5 1H62q2.5-1 5.1-1.1 3 0 6 .3c2.3-.7 4.6-1.7 7-2q5.5-1 11-.9c4.4.1 8.7.7 13 .8 6.5.2 13.1-.7 19.7-.6s13.2 1 19.7 2.1c2 .3 4 1 6 1.2l3.5-1q5.5-1.8 11.1-2.4c2.6-.2 5.2.2 7.8 0q3.5-.6 6.8-1.9c1.2-.2 2.4.6 3.5 1" class="b"/><path d="M9.8 199.2q5.5-.9 11.1-.9l6-1.2c1.1-.2 2.4-.6 3.5-.2q4.3.8 8.5 2.1c1.7.5 3.4 1.4 5.2 1.8l6 1.5h7.7c2.5-.8 5-2 7.7-2.2a44 44 0 0 1 8.6.3c1.1 0 2.4-.6 3.4-.8q3-.8 6-1.1c5.5-.8 11-.3 16.4 0q7.2.2 14.6-.4 6.4-.6 12.8-.2a109 109 0 0 1 20.6 3.4l4.3-1q5.2-1.4 10.3-2c2.6 0 5.2.3 7.7 0q3.5-.4 6.9-1.5c1.8 0 3.6 1 5.2 1.8" class="b"/><path d="M9.8 197.3q5.5-.7 11.1-1.9c2.3-.3 4.6-1.3 6.9-.8q5.3 1 10.3 2.8c3 1.1 6.1 2.8 9.4 2.6h5.2c1 0 2.5.3 3.4-.4 4.5-2.4 9.6-3 14.6-2.8l3.4.3q1.3.3 2.6 0 5.5-1.4 11.1-1.7c5.2-.2 10.4.3 15.5.1 5.7 0 11.5-.7 17.2-1a80 80 0 0 1 25.7 3.5c2.6 0 5.2-.8 7.7-1.2q3.5-.9 6.9-1c2.5-.2 5.2.1 7.7 0q3.5-.5 6.9-1.3 3.6.8 6.8 2.7" class="b"/><path d="M9.8 194.3q6.8-.9 13.7-2.2 4.4.6 8.6 1.9 4.5 1.2 8.5 3.2.8.6 1.8.5h10.3q6-3.3 12.8-3.9c4-.4 8 .2 12 .5q4.7-1.2 9.5-1.6c6.5-.4 13.2.2 19.7-.3 4.9-.5 9.8.6 14.6.6q6 .1 12-.8 5.3.8 10.3 2.1c1.7.7 3.5.3 5.2 0q4.2-.6 8.6-1c4-.4 8 .2 12-.5l3.4-.6a26 26 0 0 1 9.5 3.7" class="b"/><path d="M9.8 191.4q5.5-.7 11.1-1.6 6 .9 12 2.7 3.7 1.1 6.9 3H51c8.1-5.1 18.2-5.6 27.4-4q6-1.5 12-1.6c4.9.2 9.8 0 14.6.3 6 .3 12 1.6 18 1.7 5 0 9.8-1 14.6-2 2.6.3 5.2 1.3 7.8 1.7l5.1-.5q4.2-.5 8.6-.6h6.9l4.3-.6a32 32 0 0 1 12 4.6" class="b"/><path d="m9.8 188.6 8.5-1.1q7.9 1 15.5 3.5 2.6.9 5.1 2.1h11.2a40 40 0 0 1 29.2-4.5c2.5 0 5.1-1.3 7.7-.9 5.1.6 10.3.6 15.4.9 5.2.2 10.4 1.3 15.5 2q5-1.2 10.3-1.6 4.2-.3 8.6-.3l4.3-1.1c1.3.2 2.9.8 4.3.9l11.1-.6h6.9c2 0 4-.6 6 0q3.5.7 6.9 2 1.6.8 3.4 1.4l2.6.4" class="b"/><path d="M9.8 185.8c2.2-.1 4.6-.7 6.8-.5q7 .9 13.8 2.5a41 41 0 0 1 6 2c1 .4 2.2 1.3 3.4 1q6-.8 12-1.3 2.1-1 4.3-2A47.3 47.3 0 0 1 81 186l3.4-.6 7.7 1.1c5.2.6 10.4.6 15.5 1.5l6 1.2 1.7-.5q7.2-2.3 14.6-2.7l12-.3q.9 0 1.8-.2c.7 0 1.8.2 2.5.1q6.9-.3 13.8-.1 2.5-.2 5.1 0 5.8.7 11.2 2.9 3 0 6 .6" class="b"/><path d="m9.8 183.2 3.4-.3q2.6.1 5.1.5 4.8.6 9.5 1.5 3.5.6 6.8 1.5l3.5-.1 17.1-.9q1.4 0 2.6-.7l2.6-.8a44 44 0 0 1 21.4-.7l1.7-.2 2.6.5 6 1.2c5.4 1 11 1.2 16.3 2.6q.9.1 1.8.4c1-.2 2.3-.9 3.4-1.2a56 56 0 0 1 18-3.5l8.6.2c2 0 4 .3 6-.2q3 .4 6 .3c3.7 0 7.5-.3 11.2 0q5.2.6 10.3 2.3 4.3-.1 8.5.6" class="b"/><path d="M9.8 180.8c6.6-.6 13.2 1 19.7 1.6q11.2 0 22.3-.4l8.6-.2 3.4-1a42 42 0 0 1 17.2-.6c6.3 1.3 12.5 3.2 18.8 4.5l4.3 1q2.2.9 4.3.4a53 53 0 0 1 18-5.4c1.7-.2 3.5.3 5.2.4a91 91 0 0 0 13.7.3c1.1-.2 2.3-.8 3.5-.7q3 .8 6 .5a61 61 0 0 1 17.1 1.9q5.3-.1 10.3.5" class="b"/><path d="M9.8 178.6c5.4-.4 10.8.1 16.3.4q10.7.3 21.4 0 6.5-.3 12.9-.4c2-.2 4 .3 6-.3a38 38 0 0 1 27.5 3.3l6 2.2c1 .3 2.3.1 3.4.2 1.7-.1 3.7.4 5.2-.7q4.5-2.5 9.4-3.6 3.4-1 6.9-1.3c4.5.6 9.1 1.3 13.7 1.2h6.9q2-.8 4.3-1.3l3.4.8h3.4q7.5-.1 14.6 1.7 5.6 0 11.2.3" class="b"/><path d="M9.8 176.5q3.4 0 6.8-.2 3-.3 6-.1c4.9-.1 9.8.7 14.6.5q7.8-.2 15.5-.6 6 .5 12 .5c1 0 2.4 0 3.4-.5a35 35 0 0 1 17.2-.7c4.6 1 9.2 3 12.9 6 2.7.5 5.7.2 8.5.3a40 40 0 0 1 15.5-5.6c3.1.3 6.3 1 9.4 1.2q5.6.5 11.2.3c2.4.1 4.5-1 6.9-1.5 2 .1 4 1.1 6 .8q8.2-.2 16.3 1.7c3.4.2 6.9 0 10.3.2" class="b"/><path d="M9.8 174.5c2.8 0 5.7-.8 8.5-.7q7.7.8 15.5.1c3.1-.3 6.3.5 9.4.7l9.5-.8c5 .3 10.2 1.3 15.4 1.2 9.6-4.8 23-3 31 4.3q3.7.1 7.6 0c4-3.2 9-4.5 13.8-5.5q5 .8 10.3 1.6 6 .6 12 .2c2.6.1 5-1.6 7.7-1.8q2.2.6 4.3 1 9-.3 18 1.8h9.4" class="b"/><path d="M9.8 171.7q2.5-.5 5.1 0l6.9.6c4.2.3 8.6 0 12.8 0l8.6-.8q2.6.3 5.2.9l6.8-1q3 .4 6 1l6 .7 2.6.2 1.7-1c4-2 8.6-2.4 13-2 5.6.4 11.3 2.7 15.4 6.8 2.2-.1 4.6.2 6.8-.2 3.3-3 7.8-4.3 12-5.4 1.5-.1 3 .5 4.3.7q3.4.7 7 1.2a60 60 0 0 0 14.5 0 39 39 0 0 1 6-1.9l1.7.4q2.6.8 5.2.7 3.4 0 6.8.5 4.4.5 8.6 1.3l9.5-.2" class="b"/><path d="M9.8 169.6q6.8.8 13.7.9 8.6.3 17.1-.3 3.9-.4 7.8-1 2.2.6 4.3.8l5.1-.8 6.9 1.3q2.5.6 5.1.8h1.7l1.8-.9a23 23 0 0 1 15.4-1.8q4.6.8 8.6 3.4 1.8 1.4 3.4 2.8h6c3.1-2.9 7.1-4.6 11.2-5.6 1.4-.1 3 .5 4.3.8q3.4.8 6.9 1.3 6.4.9 12.8.3c2.4 0 4.6-1.3 6.9-2l1.7-.4 1.7.4 4.3 1q4 0 7.7.4l7.8 1.1 10.3-.3" class="b"/><path d="M9.8 168c9.4-.1 18.8 1 28.3.5q4.7-.2 9.4-.9c2-.2 4-1 6-.3.8.2 1.8.6 2.6.3 1.7-.3 3.4-1 5.1-.4 3.7.7 7.4 1.9 11.2 2.1q1.5.1 2.6-.8l2.5-1.2c3.3-1.2 7-1.4 10.3-1q5.7.5 10.3 3.6 1.5 1 2.6 2.3 1.2.5 2.6.3c1.4 0 3 .3 4.3-.3l1.7-1.5q4-2.7 8.6-3.8c4 .8 8 2 12 2.5q6 .8 12 0 1.9 0 3.4-.9 2.6-1 5.2-1.5l6.9 1.5c4 .1 8 .8 12 1.2q6.4 0 12.8-.3" class="b"/><path d="M9.8 165.8c10-.1 20 1 30 .6q4.7-.1 9.4-1c1.7-.1 3.5-.6 5.2-.7l2.5.6c1.5.1 3-.6 4.3-.6q3.9.7 7.8 1.7c8.7 2.2 6.4-.7 13.7-2 6.6-.9 14.2.6 18.9 5.7 1.9.3 4 0 6 .1 1.2-.7 2.2-2 3.4-2.6q2.9-1.7 6-2.7c1.4-.6 3 .2 4.3.5l7.7 1.7q6 1 12 .2c1.9 0 3.5-1 5.2-1.6 1.4-.4 2.9-1.1 4.3-1a93 93 0 0 0 31.7 2.2" class="b"/><path d="M9.8 163.7q7.3 0 14.5.2 8.6.6 17.2.2 4.7-.1 9.4-1c2.3-.2 4.6-1.1 7-.3 1.3.4 2.8-.2 4.2-.5l7.7 1.7q4.3 1.2 8.6.7 2.5-1.4 5.1-2c6.6-1.1 14.2.2 19 5.2h6c1-.7 2.2-2 3.4-2.7a26 26 0 0 1 6-2.7q.9-.3 1.7 0l2.6.7 6.8 1.6q5.6 1 11.2.4c1.8 0 3.5-1.2 5.2-1.7q2-.8 4.2-1.1 4.7 1.2 9.5 1.7c7.6 1.2 15.4.8 23.1.3" class="b"/><path d="M9.8 161.5c10.8-.4 21.7.7 32.6.2q4.6-.2 9.4-.9c2.3-.2 4.6-1.1 6.9-.4 1.3.5 2.9-.2 4.3-.3l7.7 1.6q4.6.9 9.4.9 2.2-.9 4.3-1.5c6.5-1.4 14-.3 18.9 4.5h6c1.3-.5 2.3-1.9 3.4-2.6q3.2-2 6.9-3c6.6 2 13.6 4 20.6 2.7a45 45 0 0 1 7.7-2.6c1.7 0 3.5.7 5.2 1 9.6 1.8 19.4 1.5 29.2.7" class="b"/><path d="M9.8 159.2c10.8-.6 21.7.4 32.6 0q5.2-.2 10.3-.8c2.2-.3 4.6-1 6.8-.3 1.1.3 2.4-.2 3.5-.3 2.8.3 5.7 1.1 8.5 1.5q3.9.7 7.8.8l3.4.2 2.6-.8c6.3-1.6 13.8-.7 18.8 3.8h7c2.6-2.8 6.3-4.9 10.2-5.5q3.8 1.1 7.7 2c3 .6 6.4 1.1 9.5.6q4.2-1.7 8.5-2.7 5.6 1.3 11.2 2c8 .8 16 .1 24-.6" class="b"/><path d="M9.8 156.8c12.5-.9 25.1.4 37.7-.5q4.7-.3 9.4-.9 1.8.3 3.5.4l3.4-.3 9.4 1.5 8.6.7c1.4 0 3 .4 4.3.2q2.6-.7 5.2-.9c4-.2 8.4.5 12 2.7a7 7 0 0 0 5.1 1.3q2.2.2 4.3-.1a23 23 0 0 1 10.3-5.4c4.2 1.1 8.5 2.3 12.9 2.4 1.7-.2 3.5-1 5.2-1.5q2-.6 4.2-1l3.5.8q6.3 1.4 12.8 1.5c7 .1 13.8-.7 20.6-1" class="b"/><path d="M9.8 154.4c11-1 22.3-.1 33.4-.6q6.5-.1 12.9-.7l3.4.3 3.4-.2c4.9.4 9.7 1.4 14.6 1.4l7.8.8c1.3 0 2.9.5 4.2.2q5.7-1 11.2.4c1.4.3 2.9 1.2 4.3 1.4q4.7.5 9.4.8 1-.2 1.8-.8a25 25 0 0 1 9.4-4.2l6.9 1.4q1.6.5 3.4.2l4.3-1.2c1-.2 2.3-.6 3.4-.3 5.1 1 10.3 2.2 15.5 2.2 7.7 0 15.4-1 23.1-1.4" class="b"/><path d="M9.8 151.8c8.2-.8 16.6-.4 24.8-.5 8.3 0 16.6-.6 25-.5q7.3.4 14.5 1c6 0 12 1 18 1.5 2.3.3 4.7-.3 7 0q1.7.2 3.3.6 1.8.6 3.5.5 6.9 0 13.7 0c2-.8 4-2 6-2.7l3.4-.9 1.8.4 3.4.6q2.6-.3 5.1-1l9.5 1.9q3 .2 6 .8c5.1.3 10.3-.5 15.4-1q6-.4 12-1" class="b"/><path d="M9.8 149.2c7.6-.8 15.4-.3 23.1-.5l3.5-.2h4.2q8.3 0 16.3.4 7.4 0 14.6.2 4.4.1 8.6.2c11.2.7 22.3 2.7 33.5 2q7-.3 13.7-1.3 2.2-.7 4.3-1.2l1.7-.3 1.8.1c1-.3 2.3.2 3.4.4a145 145 0 0 1 15.4 1.9c1.4.3 2.8 1 4.3.7q5.6-.6 11.2-1.5l12.9-1" class="b"/><path d="M9.8 146.6c4.5-.5 9.1-.1 13.7-.2 11.7-.4 23.4.1 35.2.4 3 .2 6.3-.2 9.4-.2 6.3 0 12.6-.3 18.9.3 9.1.8 18.3 1.8 27.4 1.4a187 187 0 0 0 17.2-2q1.8.1 3.4.4 2.2 0 4.3-.2c1.4 0 3-.3 4.3 0q4.4.4 8.6 1.3c2 .3 4 1.4 6 2q4.8-.9 9.5-1.8 7.3-.8 14.5-1.5" class="b"/><path d="M9.8 144c2.8-.2 5.7.3 8.5.2l12-.3q15.5.4 31 .7 3 .2 6-.3l6.8-.3q4.4.1 8.6.1 3.4-.2 6.9 0c7.1.3 14.3 1.3 21.4 1.3l9.5-.4c2.8-.2 5.7-.8 8.6-1q2.5.4 5.1.9c1.4.2 2.9.8 4.3.4q4.4-.3 8.6-1.2 3.5.2 6.9 1.3 2.6 1 5.1 2.3c7.5-2.2 15.4-3 23.2-3.8" class="b"/><path d="M9.8 141.7c4.8.5 9.7.2 14.5 0q7.8.3 15.5 0 10 .6 19.7.6h5.2l5.1-.5c2.6-.1 5.2.4 7.8.4a124 124 0 0 0 23.1-.5q5.6.4 11.2.7c4.8.2 9.7-.3 14.6-.7q5.2.6 10.3 2c2.1 1 4.6.3 6.8-.2 2.6-.5 5.2-1.5 7.8-1.8 3 .7 5.8 2.3 8.5 3.8q6.7-2.2 13.8-3c2.8-.3 5.7-1 8.6-.8" class="b"/><path d="M9.8 139.5c3.6.4 7.4-.2 11.1 0q10.7.8 21.5 0 8.6.6 17.1.5h5.2l4.3-.6c6.5.8 13.1 1.7 19.7 1.7q9.9-.2 19.8-1.4c3.4-.5 6.8-.1 10.3 0l6-.3a52 52 0 0 1 15.4 3.6q3-.3 6-1.4l6.9-2.3c2.8.8 5.2 2.6 7.7 4q5.9-2.3 12-3.2c3.1-.4 6.3-1 9.5-.6" class="b"/><path d="M9.8 137.2c2.2.2 4.6-.3 6.8 0 2.8 0 5.8.7 8.6.8q8.2.4 16.3-.6c3.7-.6 7.5.2 11.2.2h8.5c1.7 0 3.6.2 5.2-.2 1-.3 2.4-.2 3.4 0l4.3.7q5.6.4 11.2.6c4 .3 8 .2 12 .6l3.4.3 6.9-.9c11.4-1.7 23.8-2.6 34.3 3 4.5-1 8.7-3.3 12.9-4.6q2.3.9 4.3 2.2c.8.5 1.7 1.4 2.6 1.6A51 51 0 0 1 178 137l4.3.3" class="b"/><path d="M9.8 134.8q2.5-.2 5.1.3 1-.2 1.7-.1 3.4 1 6.9 1.3c5.1.5 10.3-.2 15.4-.7l7-.9q3 .2 6 .5a96 96 0 0 0 15.4-.3q3 .5 6 .5 5.6.3 11.1.2c9.5 0 19 0 28.4 1.1 1 .3 2.3-.2 3.4-.3l5.1-.7c7.4-.7 15.2.1 21.5 4.2 1.4.3 3-.6 4.3-1q4.4-2 8.6-4c1.6 0 3 1.3 4.3 2 .7.5 1.6 1.5 2.5 1.5q6.6-2.8 13.8-3.6 3 .1 6 .4" class="b"/><path d="M9.8 132.6q1.6 0 3.4.4c.8 0 1.7-.5 2.6-.3q3 .9 6 1.2c4.2.4 8.6 0 12.8 0 3.2.2 6.3-.7 9.5-1q2.5-.5 5.1-.3a121 121 0 0 0 17.2 0q8.2.3 16.3 0h15.4q5.6 0 11.2.3 6 .2 12 1.3 3-.5 6-.7 5.8-.2 11.2 1.6 2.2.9 4.3 2.1c.7.4 1.7 1 2.6.9 4.2-1.2 8-4 12-5.6q2.8 1.3 5.1 3.4c1.4 0 3-1 4.3-1.4q3.8-1.2 7.7-1.9c2.6-.3 5.2.4 7.8.5" class="b"/><path d="M9.8 130.7q1.2.3 2.5.4 1.3-.7 2.6-.9 3 1 6 1 5.1-.2 10.3-.6 5.2-.2 10.3.4c2-.1 4-.6 6-.7q3.9.2 7.7.2c13.5-.6 27 .4 40.4.2l17.1-.2q3-.2 6-.2 4 .4 7.8 1.4c2.2 0 4.6-.4 6.8-.1q4 .3 7.7 1.9 2.3 1 4.3 2.2 1.8.3 3.5-.3c3.3-1.4 6.2-3.6 9.4-5.2 2 .5 3.6 2 5.2 3.2 1.4-.2 2.8-1.1 4.2-1.5q3.3-1.2 7-1.7 3.7.4 7.6.7" class="b"/><path d="M9.8 129q1.3.3 2.5-.4 1.3-.5 2.6-.7 2.6.6 5.1.5 3-.2 6-.5 6 .8 12 .5c2.6-.1 5.2-.8 7.8-.2 3.1-.5 6.3.1 9.4-.1l5.2-.2h3.4q3.8.8 7.7.6c5.4 0 11 .4 16.3.4 6.3 0 12.6-.4 19-.3 3.6 0 7.4.3 11 .1q2.3 0 4.4-.3 1.6-.3 3.4-.4 3 .6 6 1.4 5-.4 9.4 1.3 2.3.8 4.3 2c.8.3 1.8 1 2.6.8 2.6.3 4.8-1.6 6.9-2.8l3.4-2.1.9-.5h.8q2.3 1.1 4.3 2.9c3.3-1.3 6.8-2.9 10.3-3q4 .6 7.7.7" class="b"/><path d="M9.8 127.3q1.3-.2 2.5-1 2.5-.8 5.2-.7c6.3-.3 12.5 2.3 18.8 2a59 59 0 0 1 14.6-2q3 .2 6 0 2.6.5 5.2 0 2.2.3 4.3.9l3.4.2c4.9 0 9.8.4 14.6.3q7.4-.1 14.6-.7h10.3q5.1.6 10.3.7a36 36 0 0 0 6.9-.7q1.6-.4 3.4-.7l2.6.8c1 .3 2.3 1 3.4.8q3 0 6 1c2.6.8 5.1 2.2 7.7 3 1.9.2 3.6-1.1 5.2-2q3-2 6-3.6 2.3 1.2 4.3 2.8a34 34 0 0 1 8.6-2.7q4.3.8 8.5.6" class="b"/><path d="M9.8 125.6c5.1-3.3 11.6-1.8 17.1-.2q2.6.7 5.2 1 1.3-.3 2.5-.7c5.6-1.8 11.4-2 17.2-2.3q3 .3 6 .1 3-.3 6 .4c1.4.3 2.9 1 4.3 1 8 .3 16 .7 24-.5q8.6-1.1 17.2-.6c4.3.3 8.6 1.2 12.9 1.3 3.8.2 7.5-1 11.1-1.8q2.2.7 4.3 1.6 2.6.3 5.2.7 4.6 1.7 9.4 3.2c3.4-1.2 6.3-3.7 9.4-5.3 1.7 0 3 1.6 4.3 2.2q3.4-1.5 6.9-2.2c1-.2 2.4.2 3.4.3q3 .3 6 .1" class="b"/><path d="M9.8 123.7c6.6-4.2 13.8-.5 20.6 1.3 6.2-2.7 13-3.5 19.7-3.5q2.1 0 4.3-.3a31 31 0 0 1 12.9 2q3.4.3 6.8.2 6 .2 12-.6c5.4-.8 10.9-2 16.4-1.6q3.8.2 7.7-.1l6 .8c8.5 1.8 11.3 2.3 19.7-.9q2.3.6 4.3 1.6l2.6.4c3.5.6 6.9 1.8 10.3 2.7 1.5.7 3-.5 4.3-1.1q3-2 6-3.5 1.7 1 3.4 2c2.2-.8 4.5-1.9 6.9-2 2.8.6 5.7.5 8.6.6" class="b"/><path d="M9.8 122c5-3.3 11-2 16.3.1l3.4 1.2q1.3-.2 2.6-1c5.6-2.4 12-2.8 18-2.6 2 0 4-.6 6-.5q5.9 0 11.1 2.4 3 .3 6 .2 6.6 0 13-1.4 3.3-.8 6.8-1.3c1.7-.5 3.5-.1 5.2.1a46 46 0 0 0 14.5-.2q1.8-.5 3.5 0c11.6 2.8 10.5 4 22.3-.2q2.2.6 4.3 1.6 2.2.2 4.3.7c3.1.5 6.2 1.6 9.4 2.1 2.7-1 5.1-3 7.7-4.2 1.3-.2 2.4 1 3.5 1.4 1.9-.6 4-1.4 6-1.6q4.3.7 8.5.5" class="b"/><path d="M9.8 120.1q1 0 1.7-.5l2.5-1c5.7-1.5 11 1.6 16.4 3a34 34 0 0 1 18.8-3.6q4.7-1 9.5-.5c3 .3 5.8 1.5 8.5 2.8q3 .1 6-.2c6.5-.3 12.6-2.6 19-3.6q4.3 1 8.5 1.6 5.6.8 11.2-.3l5.1-1.3q1.8.2 3.5.8c8.3 2.9 9.6 3.5 18-.1.7-.3 1.7-.9 2.6-.6 1.6.5 3.3 1.5 5.1 1.5q4 .5 7.7 1.5c1.7.3 3.5.9 5.2.7 2.3-1.1 4.5-2.6 6.8-3.7.9 0 1.9.7 2.6 1 1.7-.2 3.5-1 5.2-1.2q4.3.7 8.5.5" class="b"/><path d="m9.8 117.7.8.6.9.1c6.5-4.4 13.9-.4 20.6 1.2 4.3-2.5 9.6-3.1 14.6-3q5-1.7 10.3-1.1c3.4.3 6.5 1.8 9.4 3.5q3 0 6-.6c4.4-.6 8.6-2 12.9-3.1 1.6-.4 3.5-1.4 5.1-.9q4.8 1.2 9.5 2.2 6.5 1.3 12.8-.3l5.2-1.6 1.7-.5 1.7.6c8.4 3.1 9.3 4.8 18 .6 1.1-.4 2.3-1.2 3.5-1 1.6.5 3.3 1.3 5.1 1.2q3.9.5 7.8 1.3c1.9.4 4 .9 6 .5q3-1.6 6-3 1.3.2 2.5.8 2.2-.9 4.3-1 3.9.5 7.8.4" class="b"/><path d="m9.8 114.7 2.5 2.2c8-4.4 12.5-1.4 20.6-.3 5.4.8 10.3-2 15.5-2.8 4.3-.8 9-.4 12.8 1.5 1.2.6 2.3 1.6 3.5 2.2q1.6 0 3.4-.3c5.6-1 10.9-3 16.3-4.6 1-.3 2.4-1 3.4-.5l6 1.6c10.1 3 15.2 3.1 25-1q1.2-.7 2.5-.7l1.7.6c3.9 1.5 7.8 4.5 12 3q3.2-1 6-2.5c1.1-.4 2.3-1.1 3.5-1 1 .3 2.3.9 3.4 1q4.8 0 9.5 1.2 2 .5 4.3.5 1.7.2 3.4-.6c1.6-.7 3.3-2 5.1-2.2l1.8.5q1.6-.6 3.4-.7 3.4.5 6.9.4" class="b"/><path d="M9.8 111.6a18 18 0 0 1 3.4 2.5q.6.8 1.7 1c5.5-4 12.6-1.9 18.9-1.8 5.2.3 10.3-1.4 15.4-1.7 3.5-.2 7.3.4 10.3 2.1l1.8 1.3c1.3.3 2.9.1 4.2.2 1.8.2 3.5-.6 5.2-1.1l7.7-2.6 6-2 2.6.7c8.3 2.3 17.1 6 25.7 3q3-1 6-2.4 1.7-.7 3.5-1.2c4.3 1.4 8.1 5.2 12.9 4.4 2.7-.6 5.1-2.2 7.7-3.3 1.3-.5 2.8-1.4 4.3-.6 1.3.6 2.8.5 4.3.6 4.8.2 9.6 2 14.5 1.3 2.2-.2 4-1.6 6-2.2q.9-.3 1.8 0l2.5-.3q3 .2 6 .2" class="b"/><path d="M9.8 108.4q3.2 1.6 6 4.2 1.2.5 2.5.2l1.7-.9q2.5-1 5.2-1.1c4.8-.4 9.7-.1 14.6-.6 6.3-.6 13.5-1.6 18.9 2.6q3.8.1 7.7 0 5.5-2.4 11.1-4c1.7-.5 3.5-1.4 5.2-1.4q4.3 1.1 8.6 2.4c6 1.5 12.5 3.4 18.9 2.1 4.1-1 8-3 12-4.6 3.3 1 6.2 3.2 9.4 4.4 3 1.2 6 0 8.6-1.6q3.3-1.6 6.9-2.8l2.5.8q2.6 0 5.2.3c3.7.4 7.4 1.4 11.1 1.2 3.5-.3 7-1.6 10.3-2.3q3-.2 6 0" class="b"/><path d="M9.8 105a26 26 0 0 1 5.1 3c1.1.7 2.3 1.9 3.4 2.6h3.5q3-1.2 6-1.7 7.6-.9 15.4-1.2c4.1 0 8.5.3 12 2.5 1 .6 2.4.3 3.5.4h5.1c1.8-.4 3.4-1.6 5.2-2.2l5.1-1.6c7.7-2.4 5.1-2 12.9 0q5.2 1.3 10.3 2.3c3.6.8 7.4 1.6 11.2 1 4.8-.7 9.2-3.4 13.7-5.2q3.6 1.5 6.9 3.5c2.6 1.5 5.6 2.5 8.5 1.1 1.6-1 3.3-2.2 5.2-2.7 2-.3 4-2 6-1.6.4 0 1.3.3 1.7.5h2.6c4.9.2 9.7 1.6 14.6 1.3 2.6-.2 5.2-1 7.7-1.4q3.4-.7 6.9-.6" class="b"/><path d="M9.8 103.8q1.2-.7 2.5-1 4.2 2 7.7 5 1.3.7 2.6.5H26c1.2 0 2.4-.7 3.5-.9a51 51 0 0 1 17.1-1q3.2.5 6 1.9h9.5l6-2.9 4.3-1.1q3-.9 6-1.5 4 .9 7.7 1.9 5.6 1.1 11.2 2.4c4.2.9 8.6 1.6 12.9.4 3.8-1 7.4-3.1 11.1-4.7 1.2-.2 2.4.7 3.4 1.1l6 3.3q3 1.6 6 .7l2.6-1.8q2.9-1.7 6-2.2l3.5-1.1c.7 0 1.8.3 2.5.4l4.3.1q4.8.7 9.5 1.3c3.7.5 7.5-.5 11.1-1.1q3-.5 6-.5" class="b"/><path d="M9.8 103c1.5-.9 3.3-2 5.1-2.5q4.6 2.1 8.6 5.4 4.2.1 8.6.1c3.9-.7 8-1.3 12-.8 1.4.1 2.9.8 4.3.8h11.1c1.5-.5 3-1.5 4.3-2q3-1.5 6-2.2l6-1.3c3.2.3 6.3 1.4 9.5 2l11.1 2.3c4.8 1.1 10 1.8 14.6 0 3.6-1.2 6.8-3.3 10.3-4.4 3.6 1.4 6.8 3.7 10.3 5.3 1.3.5 3 .2 4.3.3q2.8-2.3 6-3.5 3.8-1 7.7-2c2 .4 4 .1 6 .3l11.2 1.4c5.2.5 10.3-1.3 15.5-1.2" class="b"/><path d="M9.8 101q2-.7 4.2-.9l3.5-1.9c.8 0 1.8.6 2.5 1q2.3 1 4.3 2.4c3.5 2.2 2.7 2.2 6.9 2.1h25.7c3-1.5 6.2-3.1 9.5-4q3.8-1 7.7-1.5l9.5 1.8 11.1 2.3c5 1.3 10.5 2 15.5 0 3.5-1.2 6.7-3.1 10.3-4.2 2.6 1 5.2 2.6 7.7 4 1.3.6 2.7 1.7 4.3 1.6 1 0 2.4.3 3.4-.4q3-2.4 6.9-3.5l7.7-1.6c1.3.3 3 0 4.3.1 5.1.3 10.3 1.6 15.4 1.7 4 0 8-1 12-1" class="b"/><path d="M9.8 98.9q3.5-2 7.7-1.4c1.1-.3 2.3-1.2 3.4-1.6 1.5 0 3 1 4.3 1.6 2.8 1.2 5.6 3 8.6 3.9h18c1.8 0 3.5-1.1 5.1-1.6 3.1-1.2 6.2-2.6 9.5-3.2q2.5-.6 5.1-.7 4.8.7 9.5 1.5 5.6 1 11.1 2.2c4.5 1 9.2 2 13.8 1 4.4-1 8.6-3.1 12.8-4.7 1.2-.2 2.4.7 3.5 1l6.8 3.8c1.5 1 3.5.6 5.2.7 1.5-.5 2.8-1.7 4.3-2.3q3.2-1.7 6.8-2.3 2.2-.5 4.3-.8c.4-.2 1.3-.3 1.8-.1 5.4-.3 10.9.8 16.3 1.5 4.8.8 9.7-.1 14.6-.3" class="b"/><path d="M9.8 97c2.6-2 6.1-2.6 9.4-2.4l2.6.3q1.6-.6 3.4-1.4c3.7 1 7.3 2.7 11.1 3.7 9.4 2.7 16.9 0 25.8-2.6q3-.7 6-1 5.6.5 11.2 1.4c9 1 18.3 5.1 27.4 2.4 3.8-1 7.5-2.7 11.2-4q4.4 1.8 8.6 4.1c1.5 1 3.3 1.9 5.1 1.6q2 .3 3.4-.8 3.3-2 7-3a39 39 0 0 1 12.8-1.8c5.4.3 10.9 1.3 16.3 2q5.6.2 11.2-.3" class="b"/><path d="M9.8 95.1c5.3-4 11-3.5 17.1-2.6q1.6-.8 3.4-1.3l6 1.5Q42 94 47.6 93.9c5.5-.1 10.9-1.9 16.3-2.5q2.2-.3 4.3.2l6 .6q6.5.6 12.9 2c5.9 1.1 12 2 18 .5 3.8-.8 7.5-2.4 11.2-3.6q4 1.4 7.7 3.3c2.1 1 4.4 2.6 6.9 2.4q1.3.2 2.5-.4 3.7-2 7.8-3.3 6.6-2 13.7-1.9c5.7.2 11.4 1.3 17.1 2q5.2.2 10.3 0" class="b"/><path d="m9.8 91.4 2.5.2C18 88.2 25 89 31.2 89.9q1.3.3 2.6 0 1.6-.6 3.4-1c2.5.3 5.2.9 7.7 1q4.7.2 9.5-.3c2.5-.2 5.1-.8 7.7-.6 5 .7 10.3.7 15.4 1.3 5.5.6 10.9 2 16.3 2.3 6.2.4 12.3-1.1 18-3q1.3-.6 2.6-.7 2.2.7 4.3 1.6c4.3 1.4 9 5.3 13.7 3.5 11-5 18.3-5.8 30-4.4 6.6.7 13.2 1.8 19.8 1.4" class="b"/><path d="M9.8 88.2q2.1 0 4.2.2 1.8-.4 3.5-1 3-.7 6-.8 4.7-.1 9.4.5l4.3.7q1.8.4 3.4 0a82 82 0 0 1 22.3-.6q5.6.3 11.2.5c7.2.5 14.3 2.3 21.5 2a63 63 0 0 0 16.3-3.1q2.2.5 4.3 1.3c5.3 1.9 10.4 5 16.3 3.4 3-1 6.2-2.4 9.4-3.1 2.5-.8 5.2-1 7.7-1.5 1.7.3 3.5 0 5.2.1q4.7.2 9.4.6c6 .6 12 1.5 18 1.2" class="b"/><path d="M9.8 85.6q3.4-.5 6.8 0c5-1.6 10.3-1.7 15.5-1.3q6.8 1 13.7 2c4.8-1 9.7-1 14.6-1q8.2-.1 16.3.3a76 76 0 0 0 26.6-.2l3.4-.7c1.1-.3 2.4-.6 3.5-.1 8.3 1.9 13.4 6.1 22.3 3.6q4.3-1.1 8.6-2.5l6.8-1.2c1.1-.3 2.4.3 3.5.2q6 0 12 .4c6.3.4 12.6 1.3 18.9 1" class="b"/><path d="M9.8 83.2a29 29 0 0 1 8.5-.5q4.2-.8 8.6-1c7.5-.2 15 1.4 22.3 3q11.5-2 23.2-1.6c4.3 0 8.6.7 12.9.8a75 75 0 0 0 18-1.5q1.6-.6 3.4-.1c7.1 1.3 14 5.1 21.5 3.6 5.7-.9 11.3-2.8 17.1-3.5 1.7-.5 3.5-.1 5.2.2h4.3c9.1 0 18.3 1.4 27.4.8" class="b"/><path d="M9.8 81.1q3.7-1 7.7-1c1.3-.2 3 .2 4.3 0q7.6-1.3 15.4 0 7 .9 13.7 3.1c6.7-2 13.7-2.5 20.6-2.5 4.6 0 9.2.6 13.8.5a96 96 0 0 0 10.3-.7c2.2-.1 4.6-1 6.8-.6q6 1.2 12 2.7c5.7 1.6 10.7 1 16.4-.2 4.8-1 9.6-2.3 14.6-2.6l5.1.8c4.3.3 9.3 0 13.7.3 6 .2 12 .4 18-.2" class="b"/><path d="M9.8 79.5c4.3-1.6 9-1.7 13.7-1.5q6.4-.9 12.9 0 7.6 1 14.5 3.7c6.2-2.7 13.1-3.3 19.8-3.4l11.1.3c5.2 0 10.4-.8 15.5-1q7 1 13.7 2.5 3.9.8 7.7.9 4.5-.2 8.6-1.1 7.3-1.3 14.6-2.5 4.4.5 8.6 1.2c3.8.5 8 .2 12 .3 6.6 0 13.2 0 19.8-.8" class="b"/><path d="M9.8 78.3a36 36 0 0 1 17.1-2c7.9-.5 16 .8 23.2 4.2A40 40 0 0 1 69 76q5.5.1 11.1.1 4 0 7.7-.4c1.7 0 3.5-.5 5.2-.3q6.5.8 12.9 2.1 4.5 1 9.4 1 4.4-.1 8.6-1c4.8-.7 9.7-1.8 14.6-2.2q6.5.8 12.8 1.8c3.1.4 6.4.1 9.5.2q10.7.3 21.4-1.2" class="b"/><path d="M9.8 77.6a35 35 0 0 1 21.4-2.3q4.4 0 8.6 1 3.5.7 6.9 2.2H50c5.9-3.6 13-4.9 19.7-5q9 .2 18-.6c9.5.6 18.8 4 28.4 2.7 6-.7 12-2.1 18-2.7l9.4 1.3q4.8.7 9.5 1.5 14.6 1.2 29.2-1.4" class="b"/><path d="M9.8 76.2q1.6.1 3.4-.2 2.5-1.1 5.1-1.6 7.3-1.5 14.6-.1c2 .3 4 1.3 6 1.6q1.7.5 3.5.3H50l3.4-1.8q3.8-1.7 7.7-2.4c7.4-1.6 14.9-.5 22.3-1.3 2.6-.2 5.2.5 7.8.7l12 1.8c8.7 1.2 17.2-1.6 25.7-2.5 1.1-.3 2.4.2 3.5.3l5.1.8c8 1 16 3 24 3.7 7 .2 13.9-1.1 20.7-2.6" class="b"/><path d="M9.8 73.9h12.8q3-.4 6-.4 2.6 0 5.2.4h13.7q1.9.2 3.4-.7l4.3-2q6-2 12-2.5 7.4 0 14.6-.4 8.3.7 16.3 1.6c2.6.2 5.2.9 7.8 1 4.6 0 9.2-1 13.7-1.8l4.3-.6q1.7-.4 3.4-.1 9.5 1.8 18.9 3.4 5.5 1.2 11.2 2h18q3.5-.9 6.9-1.9" class="b"/><path d="M9.8 71.6h36l8.6-2.5q5.8-2.2 12-2.7 4.2-.5 8.6-.2c2 .1 4-.3 6 0q2.2-.2 4.3-.2 2.2 0 4.3.4 5.6.4 11.1 1.4l3.5.6q3 0 6-.6l12-2q4 .7 7.7 1.6l10.3 2 6.9 1.5c1.3.3 2.9.8 4.3.7H178c1.4 0 3 .3 4.3-.5" class="b"/><path d="M9.8 67.2q7.7.8 15.4 2 11.3-.3 22.3-2.4c6-1 12-2.5 18-3 5.4.7 11-.5 16.3.3q3-.2 6-.4 3.5.2 7 .8l5 .8q1.8.6 3.5.4 5.2-.4 10.3-1.4l3.4-.6c.8 0 1.8-.3 2.6 0l17.2 3.8 4.3 1.1q1.6.6 3.4.7h37.7" class="b"/><path d="M9.8 63.2q6.8-.1 13.7.7c3.5.3 6.8 1.3 10.3.7 8.9-.6 17.7-2 26.6-3.2q2.2.2 4.3.5l5.1-.3c2.9 0 5.8-.3 8.6 0q2.6 0 5.2.4l6-.5q3.8.3 7.7 1.1 2.1.6 4.3.5 5.6-.6 11.1-1.5c2.3-.7 4.7 0 7 .5l12.8 3.3c2.5.5 5 1.8 7.7 1.6a136 136 0 0 1 12.9-1.7c6.3-.6 12.8-.7 18.9 1.2q5.2-.5 10.3 0" class="b"/><path d="M9.8 59.6a89 89 0 0 1 22.3 1l2.5.5 2.6-.2 12.9-1.3 5.1-.6 6 .8q1.3.2 2.6-.1l3.4-.3c4.9-.1 9.8-.5 14.6.1q2.2.3 4.3.2c1.7 0 3.5-.7 5.2-.4l6 1.2q2.2.1 4.3-.2 4.7-.5 9.4-1.3c6.1.7 12.1 2.6 18 4.3l1.8.6c.7 0 1.8-.2 2.5-.4l6-1a133 133 0 0 1 25.8-1c2 .1 4 .8 6 1q5.6-.8 11.2-.4" class="b"/><path d="M9.8 57.2q9.4 1.3 18.8 0 1.8-.4 3.5-.4l3.4.6q1.3.5 2.6.3 4.6-.6 9.4-.9 6 .5 12 1.1c1.7 0 3.5-.5 5.2-.6q3.4-.2 6.8-.3 4.4-.2 8.6 0c3.2.2 6.4.7 9.5 0 1.7-.1 3.5.5 5.1.8 1 .2 2.4 0 3.4 0q4.8-.4 9.5-1 6 .8 12 2.5c8 2.4 4 1.8 12 .5q7.7-1.3 15.5-1.9a87 87 0 0 1 21.4 1c1.7 0 3.5-.5 5.2-.5q4.2-.2 8.6.1" class="b"/><path d="M9.8 56.1q6 1.6 12 1.3l11.1-1.9q2.2-.4 4.3-1 1 0 1.7.2 2.2-.2 4.3.2L57 56q3.4-.4 6.8-1l6.9-.3 9.4-.2 5.2.2q1.7.2 3.4 0c1.1-.4 2.4.1 3.4.3h3.5c2.8 0 5.7-.5 8.6-.5q8.3 1.1 16.3 3.7c1 .3 2.3-.4 3.4-.6l4.3-1q13.2-2.5 26.6-2.2 6 0 12 1.1 7.7-.7 15.5-.3" class="b"/><path d="m9.8 55.5 3.4 1q3-.2 6-.8L32 53l5.1-.9 2.6.4c1 0 2.3-.6 3.4-.1 11.2 3 14.4.6 24.9.2q6 0 12-.3c3.7-.4 7.5 0 11.2 0 3.7.2 7.5-.5 11.1.2A84 84 0 0 1 117 56c.8 0 1.8-.5 2.6-.7a113.1 113.1 0 0 1 44.6-2.7c2.3.3 4.6-.3 6.9-.3q5.6-.4 11.2 0" class="b"/><path d="M9.8 55c5.7-.4 11.5-1.7 17.1-3l6-1.4c1.4-.3 3-.9 4.3-.5l4.3.8 3.4-.9c2.9.5 5.7 1.3 8.6 1.5 4 .2 8-.5 12-.8 4.9-.3 9.8 0 14.6-.3a86 86 0 0 1 30 2.2c1.5.3 3 1 4.4 1q3-1.2 6-2a121 121 0 0 1 42.9-1.7q9.4-1 18.8-.3" class="b"/><path d="M9.8 53.2c8.8-.2 17.1-3.7 25.7-5.5 1.7 0 3.5.7 5.2 1 .7.2 1.7.6 2.5.3l3.4-1.1q.9-.3 1.8 0 4.3 1.1 8.5 1.3 4.4-.2 8.6-.5c4.9-.3 9.8.1 14.6-.1 2.3-.2 4.7-.2 6.9-.9q1.3.2 2.6.4l3.4.2a99 99 0 0 1 15.4 2.3c1.1.2 2.4.9 3.5.7l4.3-1.7q8.8-2.5 18-3 13.8-1.1 27.4.6c6.9-.6 13.8-1 20.6-.3" class="b"/><path d="M9.8 51c3.7 0 7.5.2 11.1-1q5.5-1.8 11.2-3.6l3.4-.8q1-.4 1.7 0c8.5 2.1 4 2.2 12-.2q4.7 1.3 9.5 1.6c3.7 0 7.4-.4 11.1-.2q5.2.2 10.3.1l6-1.5c2 .1 4 1.4 6 1.3 5.8.4 11.7 1 17.2 2.8 12.8-6.6 33-6.1 47.2-5.1 3.7.5 7.5-.2 11.2-.3q7.2-.3 14.6.5" class="b"/><path d="M9.8 48.1a26 26 0 0 1 12.8-.9q1.4.4 2.6-.1 6-2.5 12-4 2.2.6 4.3 1.3c1 .3 2.3 1 3.4 1q3-1.7 6-2.3 3.4 1 7 1.6c4.7.6 9.7.1 14.5.5q2.2.2 4.3.2 4.2-1.2 8.6-2.3c2.6.2 5.1 1.7 7.7 2.3q7.5.6 14.6 2.5c11.5-7.5 32-6.5 45.5-6l4.3.2 8.5-.5q8.3 0 16.3.7" class="b"/><path d="M9.8 44.3a36 36 0 0 1 14.5.3c1.1.2 2.5.6 3.5-.1q5-2.2 10.3-3.7c10.7 3.2 3.8 3.2 13.7 0q7.5 2.5 15.5 2.5 2.1 0 4.2.3c.8 0 1.9.3 2.6 0l9.5-2.6c1.7-.7 3.5.5 5.1 1q3 1 6 2.5l5.2.7c2 .3 4 1.2 6 1.2l2.5-1.6c12-6.2 26.5-5.2 39.5-5l6 .1 8.6-.6q9.9 0 19.8.8" class="b"/><path d="M9.8 41.2q9.1-.8 18 1.8c3.6-1.6 7.3-3.4 11.1-4.5q3.5 1.1 6.9 2.5c.9 0 1.8-.6 2.6-1 1.3-.5 2.8-1.3 4.3-1.4 4.7 1.6 9.5 3 14.5 3.1l3.5.2q2.6-.5 5.1-1.3l5.2-1.4q1.6-.6 3.4-.7a41 41 0 0 1 12.9 5.6h8.6c11.3-7.3 25.6-6.1 38.6-6.3 5.1.1 10.3-.5 15.4-.5q11.3.1 22.3.8" class="b"/><path d="M9.8 38.4q9.6-.1 18.8 2.7 5.4-3 11.2-5 3.5 1.1 6.9 2.7 2.9-1.6 6-2.6c4.7 1.7 9.5 3.4 14.6 4q3.9-.7 7.7-1.9l6-1.7q1.6-.7 3.4-.1a40 40 0 0 1 10.3 4.3q1.2 1 2.6 1h8.6c9-5.5 19.8-5.4 30-5.8 6.8-.3 13.7-.9 20.6-.7q5.2.3 10.3.8 7.7.4 15.4.5" class="b"/><path d="M9.8 36a67 67 0 0 1 17.1 2.8c.8.2 1.8.7 2.6.5q5.2-3.6 11.1-5.5 3 1 6 2.5c.9-.1 1.9-.7 2.6-1l3.4-1.4q4.4 1.6 8.6 3.2 1.7.6 3.5 1 .8.4 1.7 0 3.9-1.1 7.7-2 3.8-1.3 7.7-2.3 7.4 1.7 13.7 5.7h10.3q3.8-1.8 7.8-3a52 52 0 0 1 8.5-1.4c2.6-.3 5.3-.3 7.8-.9q12-1.7 24-.5 4.3 0 8.6.3 6 .5 12 1.4c2.5.3 5.2 1.2 7.7.8" class="b"/><path d="M9.8 33.7A65 65 0 0 1 26 37.2h4.3q5.1-3.7 11.1-5.6c8.4 3 3.2 2.5 11.2 0q4 1.6 7.7 3.3c1.4.4 2.8 1.5 4.3 1.4q5-1.9 10.3-3.1l5.1-1.5c.9-.3 1.8.1 2.6.3q6.4 2 12 5.2h6.9q2.6 0 5.1-.8c10.4-2.9 21-5.8 31.8-5.5q5.2.1 10.3 1.2 4.7 0 9.4.3c8.1.5 16 2.1 24 3.2" class="b"/><path d="M9.8 31.6q6.6 1 12.8 3.3h8.6q5-3.8 11.2-5.5c6 2.2 3.3 2.3 9.4 0 1.5.1 3 1 4.3 1.5q3.4 1.6 6.9 3.5 8-2.9 16.3-5.1c1.4 0 2.9.7 4.3 1.1l6 2.4c1.7.6 3.3 2.2 5.1 2.1q3 .1 6-.7l6.9-1.6c7.4-1.7 14.8-3.5 22.3-4q6.5-.3 12.9 1.4l4.3 1.4q3 0 6 .4l6.9 1c1.3 0 3 .7 4.2-.2a19 19 0 0 1 18 1" class="b"/><path d="M9.8 29.6q3.8.2 7.7 1.5c1.4.3 2.8 1.4 4.3 1.5h9.4c1.3-.1 2.3-1.4 3.4-2a41 41 0 0 1 6.9-3.2c1.7-.8 3.5.6 5.1 1.1 1.8-.2 3.4-1.6 5.2-1.3q3.6 1.2 6.9 3.1c1 .6 2.2 1.5 3.4 1.8q3.4-1 6.9-2.3l9.4-2.9q6.8 1.8 12.9 5c.7.3 1.8 0 2.5 0l4.3-.7 12-2.4c9.9-2 20.5-4.3 30.1-.3 7.1 3 3.7 4.4 12.9 4q4.5-4 10.3-5.6 1.6.2 3.4.8 3 .8 6 1.2a15 15 0 0 0 5.2-.6c1.3-.4 2.8-1.3 4.3-1.1" class="b"/><path d="M9.8 26.8q4.3.4 8.5 1.8c1.5.4 2.8 1.5 4.3 1.7h9.5a39 39 0 0 1 11.1-5.5q1.3.4 2.6 1c2.4-.2 3.4-1.7 6-.4q4.6 1.6 8.6 4.4c2.6-.2 5.2-1.5 7.7-2.3 3-1 6.4-2.1 9.4-2.8q4 1.1 7.8 2.8c1.4.5 2.8 1.5 4.2 1.7q10-1.3 19.8-3.2c9-1.8 18.8-3.7 27.4.2a19 19 0 0 1 3.5 2.1c.8.6 1.6 1.7 2.6 2h5.1l3.4-2.8q3-1.8 6-3 4 1.5 7.8 3.3c1.3.6 2.8 1.7 4.3 1.8q4.6 0 9.4.6 1.8-.9 3.4-2.1" class="b"/><path d="M9.8 24c4.4.7 9 1.7 12.8 4h5.2a46 46 0 0 1 9.4-3.1c2-.7 4-1.8 6-2.4q1 .1 1.7.5l2.6-.5a42 42 0 0 1 9.4 3.7c.8.5 1.7 1.3 2.6 1.3 4.5-.5 8.5-2.9 12.9-4 1.6-.3 3.4-1.5 5.1-.7q4.5 1.3 8.6 3.4c1.7.2 3.5-.2 5.2-.3q5.2-.5 10.3-1.4c12.2-1.9 28.1-7 37.7 3.5l2.6-.1q2-1 4.3-1.5c2.2-1.7 4.9-3.4 7.7-4l5.2 2.3c1 .4 2.3 0 3.4 0h4.3a95 95 0 0 1 15.4 1" class="b"/><path d="M9.8 21.5q7.1.8 13.7 4.2c2-.6 4-1.7 6-2.2q4.2-1.4 8.6-2l4.3-1a5 5 0 0 1 3.4-.1 44 44 0 0 1 7.7 2.8q1.8.9 3.4 2h2.6c4.5-.5 8.5-3 12.9-4.2l2.5-.8q2.7.5 5.2 1.6c1.7.6 3.3 2 5.2 1.7q5.2-.3 10.3-.9c9.1-1 18.2-3.5 27.4-3.3q5 .3 9.4 2.6c1.6.7 2.8 2.3 4.3 3q5-2.6 10.3-3l4.3-1.8 3.5 1.3 8.5-.3c6.3-.2 12.7-.4 19 .5" class="b"/><path d="M9.8 19q4.3.5 8.5 1.9c1.5.4 2.8 1.4 4.3 1.6C27.8 20 33.4 19 39 18q1.8-.4 3.5.1L44 18c4 1.3 7.9 3.6 12 4.8 5.2 1.5 9.9-2.1 14.6-3.7l3.4-1.2q1.3.1 2.6.7 2.6 1 5.1 2.2l10.3-.5c8.7-.4 17.2-2.7 25.8-3.2 4-.3 8.3.2 12 2q1.4.6 2.6 1.6c.3.4 1.2 1 1.7 1q5-2.3 10.3-3l3.4-.2q1.3-.3 2.6-.5c2.4.9 5.2.3 7.7.4 8-.2 16-1.3 24-.3" class="b"/><path d="M9.8 16.4q5.7.8 11.1 3c2-.3 4-1.4 6-1.9q4.3-1.1 8.6-1.8c1.7-.3 3.5.5 5.2.7q1.3-.1 2.5-.7c1.5-.2 3 .9 4.3 1.3q3.8 1.7 7.7 3.4c5.2 2.2 10-1.3 14.6-3.3 1.4-.5 2.9-1.3 4.3-1.5l1.7.6c1.5.4 2.8 1.6 4.3 1.7l8.6-.1q9.5-.1 18.9-1.9c8-1.2 17.3-2.7 24 2.8 1.2.1 2.3-.8 3.4-1q3-1 6-1.5 3.9-.6 7.8-.4c1.3-.4 2.9.2 4.3 0q6-.2 12-.2c5.7.2 11.4.6 17.1.3" class="b"/></svg>