<svg xmlns="http://www.w3.org/2000/svg" id="a" width="1920" height="2400" viewBox="0 0 192 240"><defs><style>.b{fill:none;stroke:#fff;stroke-miterlimit:10;stroke-width:.3px}</style></defs><path d="M0 0h192v240H0z" style="stroke-width:0"/><path d="M10 221.3c1-.5 2.2-1.5 3.4-1.4q2.3 1.3 4.3 3c.8.7 1.6 2 2.6 2.4q2.6 0 5.1-.2c7.4-7.5 19.2-4.1 27.4.2 6.4-2 13-4 19.7-4.4q6.4-.7 12.8.3c2-.5 4-1.4 6-1.4q6 1.6 12 2.5c5.1.6 10.3-.5 15.4-1.4q3.8-.6 7.7-.8 3.3-1 6.8-1.4 5.2-.9 10.3.2 2.6.6 5.1 1.7l4.3.2c4.9.2 9.7-1.5 14.6-.6 3.2.3 6.3 1.7 9.4 2.8 1.7.7 3.5-.3 5-.8" class="b"/><path d="M10 219.6q1.6-1.1 3.4-2c2.8.9 5 3.2 6.9 5.4h3.4q1.3.1 2.6-.4 1.6-1.3 3.4-2.2c6.6-3 14.2-.8 20.5 2q15.2-4.5 30.8-3.8c2 0 4-1.2 6-1 4.3 1 8.5 2.4 12.9 3.2 6.6 1.6 13.2-.3 19.6-1.7a69 69 0 0 1 7.7-1.1q3-.9 6-1.3 5.6-.9 11.2.3c1.7.3 3.4 1.2 5 1.6q3.9.5 7.8.3c2.5-.3 5.1-1 7.7-1.1q4.3-.3 8.5.8l5.2 1.7q1.6-.2 3.4-.8" class="b"/><path d="M10 217.9q2-1.6 4.3-2.7 2.3 1.3 4.3 3c.8.7 1.5 2 2.5 2.5h3.5q1.3.1 2.5-.4 1.6-1.2 3.4-2c5.6-2 11.9-.6 17.2 1.8a115 115 0 0 1 27.3-4c1.8.3 3.5-.2 5.2-.6.7-.1 1.7-.5 2.5-.3l4.3 1.1 10.3 3.2c6 1.9 11.2 1.2 17.1-.7q7.1-2.3 14.5-3.2a34 34 0 0 1 18.9.3c2.5.3 5.1 1 7.7 1.1 4.9.3 9.6-1.8 14.5-1.7q3 0 6 1l3.4 1 2.6-.5" class="b"/><path d="M10 216.2q2-1.8 4.3-3.1h.8a19 19 0 0 1 6 5.2q3.5.2 6.9 0c4.7-3.4 11.1-2.6 16.2-.6 1.6 1 3.5-.3 5.2-.6l7.7-1.7q7.2-1.3 14.5-1.5c2-.3 4-1 6-1.1q7.4 1.7 14.6 4.5c1 .4 2.2 1 3.4 1h16.2q.9-.2 1.8-.6c5.5-2 11.2-4 17-4.6 2.6-.3 5.2-.9 7.8-.7q3 0 6 .6l5 .5c3 .5 5.8 1.4 8.6 1.5 5 0 9.6-2.4 14.6-2.2q2.6 0 5.1.8c1.4.3 2.9 1 4.3.5" class="b"/><path d="M10 214a4 4 0 0 0 1.7-1q1.6-1.4 3.4-2.4c2.7 1.1 4.9 3.4 6.9 5.5h7.7c2-.5 3.8-1.2 6-1q2.6 0 5.1.9 2.6.4 5.1-.5 6.8-2 13.7-3 3.4-.5 6.9-.8l5.1-1.1c2.9 0 5.8 1.1 8.6 1.8a40 40 0 0 1 8.5 2.7c1 .4 2.2 1.2 3.4 1h21.4c1.2 0 2.4-.8 3.5-1.2q2.5-1.2 5-2a42 42 0 0 1 11.2-2.4q2.1.1 4.3.1 2 .2 4.3 0 3.4-.2 6.8 0c3.8.4 7.3 2.1 11.1 2.4 3.6.1 6.9-1.4 10.3-2.1 1.7-.6 3.5 0 5.1 0l2.6-.3 4.3.9" class="b"/><path d="m10 211.6.9.4q1.5-1.6 3.4-3 .8-.6 1.7-.7a37 37 0 0 1 6.8 5.5h19.7l3.4-1q6.8-2 13.7-2.8 3.4-1.1 6.9-1.8l6 1.3q3.9.3 7.7 1 4.8 1 9.4 3.3h24.8c1.2.2 2.4-.6 3.4-1.1q2.5-1.2 5.1-2.2 4.6-1.7 9.5-2.3 3 .3 6 .5 4.3.2 8.5-.3c1.4 0 3-.4 4.3-.2 2.6.6 5.1 1.6 7.7 2.2 4 1.2 8.1-.6 12-1.8 1.6-.6 3.4.3 5.1.3 1 0 2.4-.1 3.4-.3.8-.1 1.8-.5 2.6-.2" class="b"/><path d="m10 209.2.9.4c.5 0 1.3-.7 1.7-1.2q1.6-1.4 3.4-2.4c2.8 1.2 5.3 3.4 7.7 5.4 5.7.3 11.4 0 17.1.1 2.6-.5 5.1-1.6 7.7-2.1q4.8-1 9.4-2.6 1.6-.6 3.4-.8l5.2 1.2a61 61 0 0 1 18.8 3c1.3.6 2.7 1.5 4.3 1.3h24.8a5 5 0 0 0 3.4-.8l4.3-2q3-1.3 6-2c2-.4 4-1 6-.4q6.3.9 12.8.3 3-.2 6-.7 1.7.3 3.4 1c6.8 2.6 8.8 2 15.4-.5 1.4-.7 3 .2 4.3.3l6-.3" class="b"/><path d="M10 206.9c.4.2 1.3.5 1.7.5 1.4-1.4 3.1-3.2 5.1-3.6q4.4 2.6 8.6 5.4H40q3-1 6-2.3 3.6-1.5 7.6-2.6l2.6-.6 3.4.9q1.3.5 2.6.4c7.5 0 15.2.5 22.3 3.3q1.2.6 2.5 1h27.4q1.3 0 2.6-.2a48 48 0 0 1 7.7-3.6q3.3-1.1 6.8-1.8l6 1a48 48 0 0 0 17.1-1q1.4.3 2.6.7c2.5.9 5 2 7.7 2l4.3-.9q2.2-.7 4.3-1.6c1-.3 2.3.5 3.4.6l5.1-.5" class="b"/><path d="m10 204.6 1.7.8q2.3-2.4 5.1-3.9c1.2.2 2.4 1 3.5 1.6l6 3q3.6 1.3 7.7.7 3.8-.9 7.7-2.4l9.4-2.9c1.4-.1 2.9.6 4.2 1a7 7 0 0 0 3.5.4H63q7.4.1 14.6 1.6 4 .8 7.7 2.5h26.5c1.7-.1 3.5.1 5.2-.2q3.6-2.4 7.7-3.7c2.2-.6 4.5-1.6 6.8-1.6q5.6 1.3 11.1 1.5 4.4.1 8.6-.4c1.7-.2 3.4-1.1 5.1-1.1 2.6.7 5 2 7.7 2.5q3.8-1 7.7-1.3l3.4-1.4 2.6 1c1.4.1 3-.4 4.3-.5" class="b"/><path d="m10 202.4 1.7.8c1-.4 1.8-1.5 2.6-2q1.5-1.4 3.4-2c12.8 6.5 15.4 3.7 28.2.3l1.7-.3 2.6.7c1.4.2 2.9 1.2 4.3 1a95 95 0 0 1 26.5 2.7c1.1.3 2.3 1 3.5 1a45 45 0 0 1 11-.3q4.4.5 8.6.4h11.2c.4 0 1.3-.2 1.7-.5q3.2-2 6.8-3.2 3.4-1.2 6.9-1.9l2.5.6a44 44 0 0 0 24-.6l4.3 1.5c1 .4 2.3.8 3.4.4q2.5-.6 5.1-.7c1.4-.1 3 .2 4.3-.5l1.7-.7q1 0 1.7.4l1.7.7q1.3 0 2.6-.2" class="b"/><path d="m10 200.3 1.7.7.9-.2q2.2-2.4 5.1-3.8c.9-.2 1.8.4 2.6.7q2.5 1 5.1 1.6c4 .9 8.1 0 12-.9l4.3-1q1.2-.6 2.5-.5 2.2.6 4.3 1.3 1.2.6 2.6.7c5.4-.7 10.9-.3 16.2.4 4.6.5 9.3 1 13.7 2.6q9-1.5 18 .5h16.3l6-3q4-1.7 8.5-2.5l7.7 1.5q6.8 1.2 13.7.3 3.5-.7 6.8-1.9l5.2 1.8q3.8-1 7.7-1l4.3.3 2.5-1c1.4.2 2.8 1.3 4.3 1.2" class="b"/><path d="M10 198.1c.8.3 1.7 1 2.6.7q1.8-2 4.3-3.3c1-.6 2.2-1.1 3.4-.5q4.5 1.7 9.4 1.4 5.1-.4 10.3-1.8a40 40 0 0 1 7.7 2.3c2.2 0 4.5-.6 6.8-.5q5.1-.1 10.3.7 6.4.7 12.8 2 5.6-.7 11.1-.4 5.3.3 10.3 1.4h15.4q6.8-4 14.6-5.5 5.1 1 10.2 2 5.6.8 11.1 0c3-.2 5.7-1.5 8.6-2 1.4.4 2.9 1.1 4.3 1.3q4.6-1.1 9.4-.8l4.3.5c.7-.4 1.8-.8 2.5-1l2.6.9" class="b"/><path d="M10 196c.8.4 1.7 1 2.6.9q2.7-3.2 6.8-4.5c1.1-.2 2.4.4 3.4.6q2.2.3 4.3.4 4.8-.1 9.4-1.2 3 .7 6 1.6 1.7.8 3.4 1.2 3.4-.6 6.9-.8 7.4-.1 14.5 1.3l6.9 1a73 73 0 0 1 19.7.5c1.4.2 2.8.9 4.3.8h14.5q5-2.5 10.3-4.4l3.4-.8q1.2-.5 2.6-.2a48 48 0 0 0 30-.2l3.3 1a40 40 0 0 1 7.7-.8q4.4.1 8.6.8c1-.3 2.3-1 3.4-.8" class="b"/><path d="M10 194c.8.4 1.7 1 2.6 1 2-2.6 5.3-4.3 8.5-5q2.6.3 5.2.5 3.4-.2 6.8-.5 4.9.8 9.4 2.7c1 .6 2.3.3 3.4 0a50 50 0 0 1 14.6-.3c3.1.3 6.3 1.1 9.4 1.5q7.3-.7 14.5-.4 4 .3 7.7 1c1.4.3 3 1 4.3 1H111q2-1.2 4.2-2 4.6-2 9.5-3.2c2-.7 4 .1 6 .5l7.7 1.4q10.5 1.2 20.5-2.4c1 .2 2.3.9 3.4 1a18 18 0 0 1 6.9-.8c2.2.1 4.6-.2 6.8.2 2 .2 4.1 1 6 .2" class="b"/><path d="M10 192q1.3.8 2.6 1.2c6.2-7.7 18.2-6 26.5-3q1.3.4 2.6 1c1.4.2 2.9-.6 4.2-.7a44 44 0 0 1 18.9.5q2 .4 4.2.2c7.8-.5 15.7-.6 23.2 1.6 1.8.7 4 .4 6 .4h9.3q1.5.2 2.6-.6l3.4-1.5q5.4-2.1 11.2-3.5c3.4.6 6.8 1.6 10.2 2a50 50 0 0 0 23.1-1.8c1.1-.3 2.3.5 3.5.5q1.6-.5 3.4-.7 5 .8 10.2.2 1.8-.1 3.5.2l3.4.5" class="b"/><path d="M10 190.1c.7.4 1.7 1 2.6.9.9-.5 1.7-1.5 2.5-2.1q1.6-1.2 3.5-1.8c6-2.1 12.9-1 18.8 1.2 4 1.7 2.7 1.3 6.8.3a42 42 0 0 1 20.6.2 87 87 0 0 1 24 1.3c1 .2 2.2.8 3.3.9h13.7c.9-.1 1.8-.8 2.6-1.1l3.4-1.4a78 78 0 0 1 11.1-3.2c3.7.7 7.4 1.7 11.2 2.2q6.8 1 13.7.1c3.4-.3 6.9-1.3 10.2-2.2l1.7.4 2.6-.4 6 .6a43 43 0 0 0 9.4-.6q2.2.2 4.3.6" class="b"/><path d="M10 188.2c1 .7 2.3.4 3.4.5 6.8-6.8 18-4.7 25.7-.7a46 46 0 0 1 24.8-1.8q7.2-.5 14.6 0c3.8.3 7.5 1.5 11 2.5h13.8a58 58 0 0 1 10.2-4q3.4-1 6.9-1.6c4.5.8 9 1.9 13.7 2.4a52 52 0 0 0 19.7-1.6q1.6-.5 3.4-.8h1.7q3.4.5 6.8.8 4.4.3 8.6-.2c2.5-.2 5.2-1 7.7-.3" class="b"/><path d="M10 186.4h4.3c4.5-4.4 11.4-4.3 17-2.7q2.3.7 4.4 1.6c.7.3 1.7 1 2.5 1a43 43 0 0 1 17.2-3.2c2.8-.1 5.7.7 8.5.6q7.3-.5 14.6.4 2.7.5 5 1.3c1.2.2 2.4 1 3.5 1h8.6q2.5.1 5.1-.2a41 41 0 0 1 13.7-4.8q1.6-.5 3.4-.5 7.2 1.6 14.6 2.5 4.3.3 8.5.1 2.6-.4 5.2-1l5-1c1.5-.2 3-.7 4.4-.7q4.5.9 9.4 1.3 5.2.1 10.2-.5c2.3-.2 4.6-1.1 6.9-.7" class="b"/><path d="M10 184h5.1c5-3.7 11.6-3.3 17.1-1.3 1.1.4 2.3 1.2 3.5 1.4H39q1.3-.3 2.5-.8a44 44 0 0 1 20.6-2c6.6-.3 13.4-.2 19.7 2.1 1.8 1 4 .6 6 .7h8.5q1 0 1.7-.6 1.7-1 3.5-1.6a59 59 0 0 1 12-3.3q1.2 0 2.5.4l4.3.8a97 97 0 0 0 11.1 1.6c2 .4 4-.2 6-.7q5.5-1.4 11.1-2c1.7-.3 3.5.5 5.1-.1 2.3.1 4.6 1.3 6.9 1.5q6.4.6 12.8-.4c2.9-.3 5.7-1 8.6-1.2" class="b"/><path d="M10 181.8h6.9c4.6-3 10.6-2.2 15.4 0h8.5l1.7-.6a42 42 0 0 1 18.8-2.2q3.4-.2 6.9 0 4 .2 7.7 1.2c2.2.6 4.5 1.5 6.8 1.6H93c1.5-.3 2.9-1.4 4.3-2a50 50 0 0 1 12.8-3.6l3.4.8q4.7 1 9.5 1.8c1.6.2 3.4.7 5 .4l11.2-2.4q1.6-.4 3.4-.5l5.2.8c2 0 4-1.3 6-.6q3.8 1 7.6 2.2c7 .3 13.8-1.5 20.6-2.5" class="b"/><path d="M10 179.5h9.4c.8.1 1.8-.3 2.6-.4a15 15 0 0 1 6 .4h13.7q2-.8 4.2-1.3 6.8-1.9 13.7-1.5a52 52 0 0 1 8.6.3c2.9.4 5.7 1.3 8.5 1.7l3.5.7q1.6.2 3.4.1c2.2 0 4.6.3 6.8-.2L93 178q6.2-2.7 12.8-4c1.4 0 3 .5 4.3.7l6.9 1.5q2.5.6 5.1.9l3.4-.8 11.1-2.3q3.4.6 6.9 1.3c.8.2 1.8-.2 2.6-.3l4.2-1c1.4 0 3 .6 4.3.9 2.9.6 5.7 1.7 8.6 2.3 6.3-.6 12.5-2.3 18.8-3.1" class="b"/><path d="M10 176.3c1.5 1.3 3.4.9 5.1 1H40q1.4 0 2.6-.3a52 52 0 0 1 28.3-1.1c2.5.2 5.1 1 7.7 1.3h7.7c1.5-.1 2.8-1.3 4.2-1.8a57 57 0 0 1 12-3.7q1.8 0 3.4.6l11.2 2.5q5.1-1 10.2-2l5.2-1.1c2.8.5 5.7 1.4 8.5 1.9l7.7-1.9q1.8.1 3.4.6l11.2 3c1 .3 2.3-.3 3.4-.4l4.3-1q5.5-1.2 11-2" class="b"/><path d="M10 173.2c1.5.4 2.8 1.4 4.3 1.7h20.5c2.3 0 4.7.3 6.9-.6a52 52 0 0 1 25.6-.7q4 .5 7.7 1.4h7.7q1 0 1.7-.6l2.6-1.2q3.4-1.5 6.9-2.4c1.9-.5 4-1.3 6-1.4l3.4.7 9.4 2.3q2.6-.2 5.1-.8l7.7-1.5 3.4-.7 6 1.5c1 .2 2.3.8 3.4.8l7.7-2c1.7-.6 3.5.1 5.2.5l7.7 2q3 .8 6 1.1 2.5-.7 5-1.3 6-1.5 12-2.3" class="b"/><path d="M10 170.3q2.2.4 4.3 1.2 1.6.8 3.4 1.2h13.7c2.2-.2 4.7.3 6.8-.3a53.4 53.4 0 0 1 26.5-.9l6 1q2.2.2 4.3.2h5.2q3.6-2 7.7-3.3 4.2-1.4 8.5-2.3 4.4.8 8.6 2c1.7.2 3.4 1.1 5.1 1l16.3-3 6 1.5c1.3.3 3 1.3 4.2 1l9.5-2.5a247.9 247.9 0 0 1 8.6 1.9q5 1.4 10.2 2c2.3-.3 4.6-1.3 6.8-1.8q5.2-1 10.3-1.7" class="b"/><path d="M10 167.7c4.4.2 8.6 1.7 12.8 2.6q5.2.1 10.3 0 5.2-.9 10.3-1.6 6.4-.9 12.8-.3l11.1 2h5.2q2.5.1 5.1-.2l1.7-1c4.3-2.2 9-3.2 13.7-4.3q2.2.2 4.3.7l7.7 1.9c1 .4 2.3.1 3.4 0l16.3-2.7q3.4.6 6.8 1.7c1.4.4 2.9 1.6 4.3.9q3.8-1.2 7.7-2.2l1.7-.4 7.7 1.7q6 1.6 12 2.2 3-.8 6-1.7 5.5-1.2 11-1.8" class="b"/><path d="M10 165.5c5.8-.7 11.4 1 17.1 1.5s11.4-.4 17.1-.7c4-.2 8-.3 12 .5q3.4.8 6.9 1.3h11q2.3-1 4.4-2.1 3.3-1.4 6.8-2.3c2-.3 4-1.2 6-1q6 1.1 12 2.6l13.7-1.6 5-.9a6 6 0 0 1 3.5 0c12.7 3 3.8 3.5 17.1 0l1.7-.3 2.6.6 6 1.3q6 1.5 12 1.8 8.3-2.7 17-3.3" class="b"/><path d="M10 163.7c7.9-2.2 16 .4 24 .5 6 .2 12-.3 18 .4 2 .2 4 1 6 1.2h13.6a45 45 0 0 1 16.3-5.5q4.7.8 9.4 1.8l2.6.6 2.5-.2 6.9-.5q7.3-.6 14.5-1.8 5 .8 9.4 2.8 5-1.7 10.3-2.8 6 1.3 12 2.5l6 1c1 0 2.4.3 3.4-.2a69 69 0 0 1 17.1-3" class="b"/><path d="M10 162.5c7-3.5 14.9-2 22.3-1.3 6.5.8 13.2.7 19.6 2q2.2.4 4.3.3h12c.9 0 1.8-.7 2.6-1.1q6.9-3.4 14.5-4.5 4.7.8 9.4 1.7c2 .6 4 .3 6 .2l7.7-.4q7.7-.2 15.4-1.4c3.2 0 6.5 1.2 9.4 2.5q4.6-1.6 9.4-2.7 5.5 1.3 11.2 2.5l6 .9c1 0 2.3.4 3.4 0q9.1-2.9 18.8-3" class="b"/><path d="M10 161.2c1.3.2 2.4-.8 3.4-1.3a22 22 0 0 1 6-1.7c4.6-.7 9.2-.2 13.7.5l12.8 2q4.3.8 8.6.5h11.1c3.3-1.6 6.7-3.2 10.3-4 2.5-.6 5.1-1.4 7.7-1.6l8.6 1.5c1.9.4 4-.1 6-.1l9.3-.2q6.4.1 12.9-.5l5.1-.7q4 .6 7.7 2.1c2.9-.6 5.7-1.7 8.6-2.1q5.5 1.2 11.1 2.3l5.1.8 2.6.3 1.7-.5c6.4-2 13-2.6 19.7-2.8" class="b"/><path d="M10 158.9q3.2-1.4 6.9-1.4 6.2-2.2 12.8-1.6 7.8.9 15.4 3h18q6.5-3.5 13.7-4.8 2-.5 4.2-.7 4 .3 7.7 1c3.1 0 6.3-.4 9.4-.4 6.9-.1 13.7.3 20.6.2q4.3-.2 8.5-.9 3 .5 6 1.5 1.3-.1 2.6-.5l4.3-.9c4 .4 8 1.6 12 2.2l6 .9c2.8-.5 5.6-1.5 8.5-2q7.6-1.5 15.4-1.1" class="b"/><path d="M10 156.3c4.2-2.2 9.1-2.4 13.7-1.9 2.8-.3 5.7-.7 8.5-.3q3.5.5 6.9 1.4c1.4.3 2.9 1 4.3 1.2h11.1q3 0 6-.2l2.6-1.2a54 54 0 0 1 15.4-4.2l6.8.6q5.6-.6 11.1-.6c10-.2 20 1.2 30 .4q1.6-.1 3.4-.4 1.3.1 2.6.5c1.6.7 3.4-.1 5.1-.4 2-.1 4 .6 6 .8q5 1 10.3 1.8c2 .5 4-.4 6-.8q4.3-.9 8.5-1.5c4.6-.9 9.1 0 13.7-.1" class="b"/><path d="m10 152.2 1.7 1c7.5-3.5 16.2-2.3 24-.5q3.8 1 7.7 1.6H51c3 .2 6.4-.6 9.4-1.3a53 53 0 0 1 16.2-4.2l4.3.3 4.3-.3 6.9.4q9-.1 18-.5l15.3.6q3.5.1 6.9-.5c.7.1 1.8.3 2.5 0l16.3 2.6c5.4-.6 10.8-2 16.3-2.6q7.3.6 14.5.5" class="b"/><path d="M10 148.4q2.2.7 4.3 1.6a38 38 0 0 1 19.7-1.8c5.6.7 11.3 2 17 1.8q6.6-.3 13-1.4c3-.6 6.2-1.5 9.3-1.8 3.1-.5 6.3 0 9.4-.1 4.3 0 8.6-.3 12.9 0 4.2.1 8.5-.3 12.8 0l11.1-.3c3.4 0 7 .8 10.3.5q1.3-.3 2.6-.3c.7.3 1.8.1 2.5 0 1.8-.1 3.5.7 5.2 1q3.3 1 6.8 1a51 51 0 0 0 6.9-1q4.3-.4 8.5-1 9.9 1 19.7.8" class="b"/><path d="M10 145.2q2.2.5 4.3 1.2c.4 0 1.3.4 1.7.6q1-.1 1.7-.5c5-1.6 10.3-1.9 15.4-1.8 6.9.2 13.7 1.6 20.5 1.2q6-.2 12-1c2.9-.3 5.7-1 8.6-.5 6.3-.4 12.6.6 18.8.7q5.5-.6 11.1-.8H123q2.1-.2 4.2 0 1.8 0 3.5.2a21 21 0 0 0 7.7-.3l1.7.3q3.8.9 7.7.7 4.3-.3 8.5-1 2.2 0 4.3.4l6.9.8q7.3.6 14.5.1" class="b"/><path d="M10 142.4q4 .6 7.7 1.7 5.4-1.8 11.1-2.2 2.6.2 5.1.2l6.9-.2 6 .2q8.2.5 16.3-.2 3.4.2 6.8.6 3-.1 6-.1 5.2.2 10.3 1 5.6-.6 11-1.5c6 .7 12 1.1 18 .3 3.7-.6 7.5.3 11.2 0l3.4-.3q3.4.5 6.8.5c2 .1 4-.8 6-.5 2.9.4 5.8-.1 8.6.2 4.9.3 9.7 1.3 14.5 1.7q8.2.8 16.3 0" class="b"/><path d="M10 140q2.6.2 5.1.6c1.4.2 3 1 4.3.6q2.6-.8 5.1-1.3 1.8-.5 3.5 0c8.2 1.4 16.5.3 24.8.2q5.5 0 11.1.5c2.3.3 4.6 0 6.9-.1q3.4-.1 6.8.4c1.7.1 3.5.7 5.1.5 3.5-.4 6.9-1.4 10.3-1.8q4.2.8 8.6 1.5 5 1 10.2.4 4.8-.8 9.4-1.9 2.6.3 5.2.5 3.4.1 6.8-.4 4.2.8 8.6.3 3.8.1 7.7.5c5.7.5 11.4 1.7 17 2.2 5.2.4 10.4 0 15.5-.4" class="b"/><path d="M10 137.8q4.7.3 9.4 1l6-1.5 2.6.4c7.8 2 16 1.5 24 1.2h7.6c2 .1 4 .4 6 0q6-.7 12 .6 4.8-.4 9.4-1.8c.8-.1 1.8-.5 2.6-.3l4.3 1.1c3.6 1 7.3 2.3 11 3 6.6 1.4 12-2 18-3.9 1.7-.6 3.5.4 5.2.5q3.8.2 7.7-.7 1.6.1 3.4.4 2.6 0 5.1.3l18 3c6.5-.1 13.1-1 19.7-1.5" class="b"/><path d="m10 135.8 6 .3c1 0 2.3.5 3.4.2l3.4-.8q1.8-.6 3.4-.3 6.5 1.7 12.9 2.3c5.7.4 11.4 0 17.1 0l6 .1a42 42 0 0 1 10.3-.3 8 8 0 0 0 3.4.1q3.5-.6 6.8-1.5c1.1-.3 2.3-.8 3.5-.7l2.5.7q6 2 12 4.7 8.2.1 16.3 0c3-2 6-4.3 9.4-5.5q2.5.8 5.1 1.1c2.6.1 5.2-.8 7.7-1.1q7 1 13.7 3.2c8.8 2.5 4.8 1.4 12.8.3l16.3-2" class="b"/><path d="m10 133.9 7.7.3q3.4-1 6.9-1.5l11 2.4c6.8 1.3 13.8 1 20.6.9q5.2.1 10.3-.4c2.2 0 4.6.3 6.8-.3q4.9-.9 9.4-2.5 2.7.6 5.2 1.7l4.2 2c1.1.4 2.3 1.3 3.5 1.4q7.2-.4 14.5-.1c2.9 0 5.7.7 8.6.5h2.5c.6-.1 1.4-.9 1.8-1.3 1.6-1.7 3.6-3.6 6-4.1 4 2 7 1.4 11 .1 1.7-.6 3.6.2 5.2.6q4 1.3 7.7 3c2 .8 3.8 2 6 1.7 2-.4 4-1.6 6-2 5.6-1.2 11.4-1.8 17-2.7" class="b"/><path d="M10 132c1.7 0 3.5.3 5.1.1 3.1-.5 6.3-1.5 9.4-1.5 6.6 1.2 13 3 19.7 3.4 6.8.4 13.7.1 20.6 0 5.2-.2 10.4-1.7 15.4-3.4 1.4.1 2.9 1 4.2 1.5q2.7 1 5.2 2.6c6.5-1.4 13.1 0 19.7-.2 2.8 0 5.7-.3 8.5.2q2.3.4 4.3 1.4h2.6c1-.7 1.7-2 2.5-3q1.5-1.5 3.4-2.6c4 2.3 6.1 2.2 10.3.7 2-.7 3.2-1 5.1 0q3.6 1.4 6.9 3.3l2.6 1.6h3.4c1.2.1 2.4-.6 3.4-1q2-1 4.3-1.6c5-1.3 10.2-2 15.4-3" class="b"/><path d="M10 130.2q6.5-1 12.8-2c6.6.7 13.1 2.7 19.7 3.4q9.9.9 19.7.1 7.6-.4 14.5-3c.4-.2 1.3-.4 1.8-.4a36 36 0 0 1 6.8 3.3c1.1 0 2.3-.5 3.4-.6q3-.4 6-.2c4.3.2 8.5 1.3 12.8 1.4 3.8 0 7.5-.7 11.2-.9q3.8.3 6.8 2.5h1.7c.6-.3 1.4-1.5 1.7-2.1 1-1.2 2.2-2.6 3.5-3.4 6.4 4 7.2 1.3 13.6 0 3.5 1.2 6.5 3.4 9.5 5.5h5a29 29 0 0 1 5.2-2.6q4.2-1.4 8.6-2.2l4.3-.8 3.4.6" class="b"/><path d="m10 127.3 7.7-.8c1.7-.1 3.5-.6 5.1-.5 5.7.8 11.4 2 17.1 2.8a95 95 0 0 0 17.2.7q9.7 0 18.8-3.5 2.2.6 4.3 1.8c1 .6 2 1.4 3.4.7 5-1.5 10.4-1 15.4.3 4.2 1 8.5 2.4 12.8 1.6q3-.4 6-1.8c1.9-.7 4.2-.9 6 0q2.2 1.4 4.3 2.9h1.7c1.1-2 2.4-4.2 4.3-5.5 1.6.9 3.2 2.3 5.1 2.5 1.4.1 3-.5 4.3-1l4.3-1.6q3 1.5 6 3.7c1.6 1.3 2 2.1 4.2 1.9l2.6-.1q2.5-1.6 5.1-2.8c3.3-1.2 6.8-2.4 10.3-2.7l6 1.4" class="b"/><path d="M10 124.6q5.1-.3 10.3-1 9.4 1.2 18.8 2.6a104 104 0 0 0 28.2-.6q3.4-.8 6.9-2 2.6 1 5.1 2.6 1.3-.2 2.6-.6 1.6-.5 3.4-.7c6.6-1 13 1.4 18.8 4.2 3.4.3 7 0 10.3.1 2-.6 3.3-2.5 5.1-3.4 2.1-1 4.8-1.2 6.9 0l3.4 3.2 1.7.2c1.5-1.7 2.3-4.3 4.3-5.5 1.5 1.2 3.1 2.7 5.1 3 3-.1 5.8-2 8.6-3 2.9 1.3 5.3 3.5 7.7 5.5 1 0 2.4.2 3.4-.3a30 30 0 0 1 5.1-2.8q3.8-1.6 7.7-2.5 4.5.9 8.6 2.3" class="b"/><path d="M10 122c3.1 0 6.3-.8 9.4-.5q11 1.3 22.3 2.4 8.5.6 17 0 6.2-.2 12-2 1.4-.7 2.6-.1 2.3 1 4.3 2a23 23 0 0 1 22.3 2.1c3.9-1.1 8.5-1.7 12 1h5c1.1-.3 1.8-1.7 2.6-2.3 2.5-2.6 6.6-3.7 9.4-1 1 1 1.7 2.5 2.6 3.3h1.7c1.2-1.5 2-3.7 3.4-5l.9-.2c1.9 1.6 4.2 3.8 6.9 2.8q2.2-.8 4.2-1.9 1.3-.8 2.6-1.1 3.8 2 6.9 5.2c1.2.6 2.4-.4 3.4-1a41 41 0 0 1 8.5-3.8q1.3-.5 2.6-.5 4.8 1.2 9.4 3.2" class="b"/><path d="M10 119.3c4.9-.5 9.7.3 14.6.8q8.5.9 17 1.2 8.6.4 17.2-.1 5.7-.4 11-2c.5 0 1.4 0 1.8.2q2.2 1 4.3 2c6.8-3.2 15.3-3.2 21.4 1.6q1.3-.2 2.5-1l3.5-1c4.2-.7 9 .2 12 3.6q2.1.2 4.2-.2c2-3.5 6.5-6.9 10.3-4 1.5 1 2.2 3 3.4 4.2h1.7c.9-1.8 2-4 3.4-5.4 1.4 1 2.7 2.4 4.3 3.2 3.4 1.2 6.5-1.7 9.4-3.1 1-.1 1.9.7 2.6 1.1q2.3 1.6 4.3 3.5c1.4-.3 2.9-1.3 4.3-1.9q3.6-1.7 7.7-3a53 53 0 0 1 11 4.2" class="b"/><path d="M10 117c5.7.1 11.4 1 17.1 1.4q12 .7 24 .3 6.4 0 12.8-.8l5.1-1q2.8.5 5.2 2.1c1.7-.3 3.4-1.3 5.1-1.7 3.3-.8 7-1 10.3-.1q2.3.6 4.2 1.8c.8.5 1.7 1.4 2.6 1.5 5.4-4.1 16.5-4.5 20.6 1.7q1.6.2 3.4.2c.6-.4 1.4-1.4 1.7-2q1-1.6 2.6-2.6c4.2-2.8 8 .1 9.4 4.4l1.7.2c.7-.4 1.4-2 1.7-2.8l1.7-2.4h.9q1.2 1.3 2.5 2.3 2.2.1 4.3.7 1.5 0 2.6-.8l4.3-2.6a29 29 0 0 1 5 3.6c1.5.2 3-.9 4.4-1.3q3.3-1.4 6.8-2.3 6.3 1.7 12 4.9" class="b"/><path d="M10 115c6 .3 12 1.2 18 1.6q11.6 0 23-.5 6 0 12-.7 2.6-.5 5.2-.8 2.7.7 5.1 2.1c1.7-.2 3.4-1.3 5.1-1.7q5.1-1.5 10.3-.4 2.3.6 4.3 2c.8.4 1.6 1.5 2.6 1.6 4.9-4 12.1-4.4 18-2.3 2 .7 3.4 2.5 5 3.8a3 3 0 0 0 1.8.4c.4 0 1.3-.1 1.7-.4 1.7-3.6 6.4-7.4 10.2-4.3 1.6 1 2.1 3.4 3.5 4.7l1.7-.2c.5-1.6 1.4-3.6 2.5-4.8l1-.2c.6.6 1.5 1.7 2.5 2 2.2-.6 4.6.5 6.8.4q2.2-1.4 4.3-2.6c1.3 0 2.4 1.1 3.4 1.8q1.2 1.1 2.6.5l3.4-1 3.4-1.1q1.3-.5 2.6 0 4 1.2 7.7 2.9c1.4.5 2.8 1.6 4.3 2" class="b"/><path d="M10 113.2c6 .2 12 1.3 18 1.5q4.6-.1 9.4-.5l13.7-.7q5.6 0 11-.5 2.8-.2 5.2-.8 3.2.7 6 2.5c6.7-3.5 15.9-5 21.4 1.4 1-.2 1.8-1 2.6-1.5q1.6-1 3.4-1.5c4.4-1.3 9.4-1.1 13.7.5 1.9 1 3.5 2.6 5.1 3.9q1.2.4 2.6.3c1.1-1.3 2-3 3.4-4.2 1.8-1.6 4.6-2.5 6.8-1.2 1 .5 2 1.7 2.6 2.6.3.8 1 2.3 1.7 2.8q1 0 1.7-.4a14 14 0 0 1 2.6-4.7h.9l1.7 1.5c2.7-.9 5.7-.2 8.5.2q1.8-1 3.5-2c1.2-.2 2.3 1 3.4 1.6 2.5 0 5.2-1.1 7.7-1.6 1.1-.2 2.3.4 3.4.6a64 64 0 0 1 9.4 3.8c.8.4 1.7 1.1 2.6 1" class="b"/><path d="M10 111.4c6 .3 12 1.5 18 1.5 3.1-.1 6.3-.7 9.4-1q8.1-.7 16.2-1 5.2.1 10.3-.4c1 0 2.4-.3 3.4-.6q3.3.8 6 2.7c1.7-.5 3.4-1.6 5.1-2.1 3.9-1.3 8.3-1.7 12 0q2 1 3.4 2.4.8.9 1.8 1.2c5-4.4 12.7-4.8 18.8-2.6 2 .8 3.4 2.5 5.1 3.7q1.2.4 2.6.3c.6-.4 1.4-1.5 1.7-2.1q1-1.5 2.6-2.6c4.8-3.3 8.7-.3 10.2 4.6h1.7c1.3-1.5 2-4 3.5-5.3l1.7 1.3q3.4-.8 6.8-.4l3.4.3 2.6-1.3c.9 0 1.8.7 2.6 1q3-.3 6-1c2.6.3 5.2 1.3 7.7 2.1q2.6 1 5.1 2.2c.8.3 1.8 1 2.6 1.2h1.7" class="b"/><path d="M10 109.2q4.4.2 8.6 1.3 4.3.5 8.5.5c3.2 0 6.3-.8 9.4-1.2q9.9-1.4 19.7-1.3 5.2.2 10.3-.7 1.3-.2 2.6.4 2.3.7 4.2 2.2 1 0 1.7-.5l3.5-1.5c6.7-2.5 12.3-1.6 17 4 1-.3 1.8-1.2 2.6-1.7q1.6-.9 3.5-1.5c4.1-1.1 8.8-1.1 12.8.6 1.9.7 3.2 2.8 5.1 3.4h2.6c2.4-4 7.4-8.4 12-4.8l1.7 2.2c.3.7 1 2.2 1.7 2.6q1 0 1.7-.5c.6-1.4 1.5-3.4 2.6-4.5l.8-.2.9.8q1.3-.2 2.6-.6 2.5-.3 5.1-.1l4.3.2q.8-.5 1.7-.6c1.5 1 3.5 0 5.1 0a50 50 0 0 1 16.3 5.3q1.6.3 3.4.2" class="b"/><path d="M10 106.6q5.9.2 11.1 2.4c6 1 12-1.2 18-2q5-.8 10.3-1 5.1-.2 10.2 0 2.2 0 4.3-.3c1 0 2.4-.5 3.4-.2q2.3.5 4.3 1.6c.8.4 1.7 1.3 2.6 1.3 8.3-4.7 15.6-5.2 22.2 2.4 1.9-1.2 3.8-2.6 6-3.1 3.6-1 7.7-1 11.1.4 4.5 2.2 1.8 3 7.7 2.8 1.2-1 2.2-2.8 3.5-3.8 2.2-2 5.7-3.1 8.5-1.4 1 .5 2 1.7 2.6 2.6.3.7 1 2.2 1.7 2.6h.9c1.6-1.5 2.2-4.3 4.2-5.4l.9.8q2.2-.7 4.3-1h5.1a49 49 0 0 1 22.3 4.5l2.5 1.1h4.3" class="b"/><path d="M10 104q6.3.4 12 3 1.2.6 2.6.4 2.5-.2 5-.8 9-2.3 18-3.2 5.6-.3 11.2-.1 3.4 0 6.8-.2 2.7.3 5.1 1.4c1.2.5 2.3 1.6 3.5 2 7.1-4.2 13.7-5.4 20.5.2 1.8 1.5 2.8 2.9 5.1 1.1 4.7-2.5 11.4-3 15.4.8h5.2c4.5-6.5 12.7-9.3 16.2-.3l.9.3.8-.3 1.8-2.2c.6-1 1.5-2.3 2.5-3l.9.7q1.2-.6 2.6-.8l3.4.5h6l1.7-.5c1.5 1 3.4 1 5.1 1.3a56 56 0 0 1 11.1 3.1q1.7.8 3.5 1.2h5" class="b"/><path d="M10 101.5q6.3.5 12 3.2 1.5 1 3.4.6 2.2-.3 4.3-.9 8.4-2.6 17-3.7 3.9.2 7.8.2c7-.2 13.7-.9 19.7 3.7 8.7-5.2 15.3-5 23 1.8h4.4c1.9-.5 3.9-1.3 6-1.2q2.3 0 4.2 1.2h6.9c2.4-2.4 5-5.2 8.5-5.9 4.8-1 7.3 2 9.4 5.9h.9c.7-1 1.7-2.3 2.6-3 .7-.9 1.5-2.1 2.5-2.4l.9.2c1-.7 2.3-.2 3.4 0q2.6.7 5.2.7c.7 0 1.8 0 2.5-.2 1.1-.6 2.3-1.2 3.4-.5q2.5 1.3 5.2 1.5l5.1 1.3q3.5 1.1 6.8 2.4h6.9" class="b"/><path d="M10 99c4.8.6 9.6 1.8 13.7 4.4 3.5-.4 6.9-1.7 10.3-2.7q5-1.5 10.2-2.2 4.2.6 8.6.7c7.5.1 15-1.6 21.4 3.5 6.4-3.6 12-5.2 18.8-1.5q2.3 1 4.3 2.6 1.2.4 2.6.3h11c2-.1 4.1.2 6-.2 5.7-5.9 15-9.5 18.9.1h.9l1.7-2c1-1 2.4-2 3.4-3.1l1.7-.3c1.4 0 2.9.8 4.3 1q2.5.7 5.1.4 1.6-.9 3.4-1.6l5.2 2.2q3.8.8 7.7 2l4.2 1.4q4.3.2 8.6 0" class="b"/><path d="M10 96.7q5.3.5 10.3 2.5c4.4 2 2.7 2.5 7.7 1 3.4-1 6.8-2.3 10.2-3.1l3.5-.8q1.3 0 2.5.3 6.4 1.3 12.9 1c6.4-.4 11.6-.7 17 3.2 6.7-3.5 11.8-4.9 19-1.6q1.6.6 3.3 1.7c.7.4 1.7 1 2.6.9h14.5c6.5-4.7 16.7-10.4 21.4-.5l.9.5c1-.7 1.7-2 2.6-2.7l3.4-2.8h1.7l1.7.7c1.9.7 4 1.5 6 1.2l3.4-1.6q.8-.4 1.7-.3l6.9 3 8.5 2.2c1.4.4 3 .2 4.3.3h6" class="b"/><path d="M10 94.3q4.8.6 9.4 2.2c1.8.5 3.4 1.7 5.1 2.2q5.7-1.7 11.2-3.5l3.4-.9q1.3-.5 2.5-.2l6 1.3q2.6 0 5.2.5c3 .8 6.3.2 9.4.1q4.5-.2 8.5 1.3c1.2.4 2.3 1.5 3.5 1.7 5.7-2.8 10.9-4.4 17-2.2q2.3.7 4.4 1.6l3.4.7q2.5.6 5.1.4 3 .2 6-.8c6.5-2.1 13.8-7.5 20.5-3.7 1 .6 2 1.7 2.6 2.5.3.6 1 1.8 1.7 2 1-.5 1.8-1.7 2.6-2.4q2-1.8 4.3-3 .8-.2 1.7.3l2.5 1q1.3.7 2.6 1l1.7-.5c1.7-.5 3.4-1.7 5.1-1.9 3.5 1.2 6.9 2.8 10.3 4l6 1.5H182" class="b"/><path d="M10 92q7.6.8 14.6 4.3L34.8 93q2.6-.8 5.2-1.3l1.7.4 4.2 1.1q4-.1 7.7.5c1.8.2 3.5 1 5.2 1.4 4.9-.4 10.3-.8 14.5 2 1.5.2 3-.8 4.3-1.2q3.3-1.2 6.9-1.6c2.2-.2 4.6.4 6.8 1l6.9.1q5.5.5 11-.6c7.9-1.8 19-7.4 24 2l.9.4c.9-.5 1.8-1.7 2.6-2.3 1.5-1.2 3.2-2.7 5-3.3l4.4 2c3 .7 5.7-1.3 8.5-2 6 2 11.7 4.8 18 5.6h9.4" class="b"/><path d="M10 89.7q7.6.6 14.6 3.8 1.6-.2 3.4-.8l6-1.9 5-1.4q2.8.6 5.2 1.4c.8.2 1.8.6 2.6.4q5.2-.4 10.3.9 1.7.5 3.4 1.3 1.2.7 2.6.5 3.9-.4 7.7.7c1.5.6 3.4.2 5 .3 1.2 0 2.4-.6 3.5-.8q2.5-.7 5.1-1 2.2 0 4.3.3l5.1-.7c5.5-.3 11-.4 16.3-1.5 7.4-1.4 17.7-4.7 22.3 3.5l.8.2q3.6-3.1 7.7-5.5c1.2 0 2.3 1 3.4 1.4 3.2 1.1 6.4-.6 9.4-1.4 4.9 1.5 9.6 3.6 14.6 4.6l6 1h7.7" class="b"/><path d="M10 87.4c5.2.4 10.6 1.4 15.4 3.5 4.6-1 9.1-2.7 13.7-3.8q3.5 1 6.8 2.1c1.4.3 3-.1 4.3 0q4-.2 7.7.8c2.1.5 4 1.7 6 2.6h15.4q3.4 0 6.9-.2 1.6-.6 3.4-1c6.4-1.7 13.1-1.9 19.7-3 7.4-1 17.5-3.4 22.2 4.2h.9a30 30 0 0 1 8.5-5.6c2.9 1.7 6.4 1.9 9.5.8 1-.2 2.3-1 3.4-.4 4 1.1 7.9 2.7 12 3.6q4.2.9 8.5 1.5l7.7-.1" class="b"/><path d="M10 85a60 60 0 0 1 14.5 2.5c.8.2 1.8.7 2.6.5l10.3-2.7q1.2-.4 2.5-.4 2.6.7 5.2 1.6c1.3.5 2.8 1.4 4.3 1q5.3-.6 10.2.9 2.3.8 4.3 2h22.3c1.1 0 2.3-.6 3.4-1 6.3-2 13-2.6 19.7-3.5 5.6-.7 11.8-1.7 17 1 1.7.7 3 2.3 4.3 3.4 1.3-.2 2.3-1.5 3.5-2.1l5.1-2.9c1.3-1 2.9 0 4.3.3 2.5.6 5.2 0 7.7-.6 1.4-.3 2.9.6 4.3.9 3.4 1 6.7 2.2 10.2 2.8q3 .7 6 1 5.1 0 10.3-.4" class="b"/><path d="M10 82.6a56 56 0 0 1 15.4 2.1q1.3.4 2.6.6l11-2.6c1.2-.4 2.4.3 3.5.5l4.3 1.4c1.7.5 3.3 1.9 5.1 1.5q4-.5 7.7.5 1.9.5 3.4 1.4h23.1c1.1 0 2.5.2 3.5-.3 6-2.4 12.4-3.3 18.8-4 6.9-.7 15.5-1.7 20.5 4.2l.9.1a73 73 0 0 1 10.3-5.6c2.2.3 4.5 1 6.8.7q1.8-.1 3.4-.5c1.5 0 3 .7 4.3 1 4.8 1.3 9.6 2.9 14.6 3.4l12.8-.8" class="b"/><path d="m10 80.3 5.1-.2a84 84 0 0 1 11.2 2q1.6.5 3.4.2l6.8-1.4 3.5-.7a56 56 0 0 1 13.6 4.9c2.3 0 4.7-.1 6.9.6h28.2c1.8.3 3.5-.8 5.2-1.3q4.1-1.3 8.5-2c5-.8 10.3-1.4 15.4-.9q3.7.3 6.9 1.9c1.2.6 2.3 1.7 3.4 2.4 4-1.9 7.8-4.1 12-5.6l.8.3c1-.5 2.4 0 3.5 0q2.1 0 4.2-.2c5.5.7 10.8 2.9 16.3 3.8 2.2.5 4.6 0 6.8-.1l10.3-.8" class="b"/><path d="M10 78.4q4.2 0 8.6-.6l4.2.7q3 .7 6 1.3l8.6-1.5q1.3-.4 2.6-.3a73 73 0 0 1 10.2 3q2.7 1.2 5.2 2.5h17.1q7.3-.7 14.5-.6 3 .1 6 0 4.2-1.5 8.6-2.2c7.7-1.3 18.4-2.6 24.8 2.7q4.3-1.6 8.6-3.5c1.6-.6 3.3-1.7 5-2 1 .8 2.4.2 3.5.1h3.4c5.2.7 10.3 2.3 15.4 3.4 2.5.6 5.2 0 7.7-.2q6-.6 12-1" class="b"/><path d="M10 76.6c3.7 0 7.4-.9 11.1-1l5.1 1q1.8.6 3.5.3 4.6-.7 9.4-1.3 7.2 1 13.7 4.2l2.5 1.4h10.3q1.9.1 3.4-.7C72.3 79.2 76 79 79.3 79a196 196 0 0 1 18.8.6q2.2-.3 4.3-.7a36 36 0 0 1 22.3 1.9 82 82 0 0 0 14.5-5q1.4.2 2.6.8c3-.8 6.3-.3 9.4.4q5 1 10.3 2.2c6.8-.5 13.6-1.7 20.5-1.7" class="b"/><path d="M10 74.9c3.7-.2 7.5-1 11.1-1.6 2.6 0 5.1 1.5 7.7 1 3.1-.2 6.3-.8 9.4-1 6 .8 12 2.3 17.1 5.6 2.9-.1 5.8.2 8.6-.2 2-.7 4-1.8 6-2.4q3.8-.9 7.7-1 9.8 0 19.7.8l7.7.8q3-.3 6-.4 5.6-.1 11 1.6c6-.5 11.7-2.5 17.2-4.7q1.7.6 3.4 1.5 2.2-.2 4.3-.2 5.6.6 11.1 2c2.2.6 4.6-.5 6.9-.6 5.6-.6 11.4-1.4 17-1" class="b"/><path d="M10 73c3.7-.3 7.4-1.4 11.1-2 1.7.2 3.5 1 5.1.8l9.5-.8q2.5 0 5 .5 5.4.8 10.4 2.8c1.4.5 2.8 1.5 4.2 2l5.2-.8c4-.6 7.9-2.5 12-3.2 6.2-.8 12.5-.3 18.8 0q7.7.7 15.4 1.7c4.8.6 9.7 1.3 14.5 1.2a53 53 0 0 0 18-4.1q3 1.3 6 2.4c3.4-.2 6.9.5 10.3 1 2.8 0 5.7-.8 8.5-1.1q9-1.2 18-.7" class="b"/><path d="M10 71c3.2-.5 6.3-1.5 9.4-2.2q1.3.1 2.6.5l3.4-.2a67 67 0 0 1 24 2q2.6 1 5 2.3 5.8-1.1 11.2-2.6c2.5-.6 5.1-1.5 7.7-1.8 6.8-.7 13.7-.1 20.6.4q7.6.8 15.3 1.9c4.9.6 9.7 1.3 14.6 1 5.3-.2 10.4-1.9 15.4-3.5 9 4 12.8 3.8 22.3 2.2q10.2-1.3 20.5-.5" class="b"/><path d="M10 68q2.5-.5 5.1-.9c1.1 0 2.3-.8 3.4-.5 2 .2 4-.2 6-.2l7.7.2c7.6.2 15.6.5 22.3 4.4 2-.4 4-1.3 6-1.8q5-1.6 10.3-2.7 3.3.7 6.8.8a90 90 0 0 0 14.5-1l4.3.5c9.4.9 18.8 3.1 28.3 2.8q4.3-.2 8.5-1.3c2-.4 4-1.3 6-1.7 9.3 4 12.6 3.4 22.3 2a100 100 0 0 1 20.5 0" class="b"/><path d="M10 64.8q3.8-.8 7.7-.5 5.6.4 11.1.3c9-.1 18.7-.7 26.6 4.3 1.4-.4 2.8-1.4 4.2-1.9q3.9-1.6 7.7-2.5c1.7-.6 3.5.6 5.2.8q3.7.9 7.7.7 6-.3 12-1.2l5-.7 3.5.3c14.2 1.8 24.3 4.7 38.5-.2 9.4 3.9 11.6 3.5 21.4 2.3a104 104 0 0 1 21.4.2" class="b"/><path d="M10 62c1 .2 2.4.3 3.4-.2 1.7.9 3.4.7 5.1.9h8.6c9.7-.4 20.6-1.7 29.1 4 1.3 0 2.3-1.2 3.4-1.7q3-1.6 6-2.7c1.1-.5 2.4 0 3.4.3l3.5 1.2q4.2 1.3 8.5 1c7-.4 13.7-2.3 20.6-3 8 1 15.9 2.6 24 2.6a44 44 0 0 0 13.6-2.4q1.8.4 3.4 1 3.7 1.7 7.7 2c4.9.3 9.7-.6 14.6-.7q8.6-.3 17 .5" class="b"/><path d="m10 59.8.9-.2c1 .3 2.3 1 3.4 1.3a55 55 0 0 0 12.8-.2c8-.5 16.2-1.4 24 1q2.2.6 4.3 1.8c.7.4 1.6 1.3 2.5 1.2q3.8-3.5 8.6-5 3.8 1.7 7.7 3.2c7 2.6 14.4-.4 21.4-1.8q4.6-1 9.4-1.6l4.3.6a65 65 0 0 0 30.8-.4c11.3 4 11.3 3.5 23 2.8h10.3q4.4.4 8.6.1" class="b"/><path d="M10 58.2c.8.3 1.8 1 2.6 1.2l4.3.2q6-.1 12-1c7.6-.7 15.6-1.5 23 .8q2.3.8 4.3 2c.8.4 1.7 1.3 2.6 1.4A20 20 0 0 1 63 59c1-.6 2.2-1.5 3.4-1.5l4.3 2.1c1 .5 2.2 1.6 3.4 1.6q3.4-.2 6.8.2l6 .6c3.8-.7 7.4-2.2 11.1-3q4.3-1 8.6-1.7 2.2-.1 4.3.4 6 1 12 1.4a92 92 0 0 1 12.8-.5q2.6-.5 5.1-1.3c3.4 1 6.8 2.5 10.3 2.9 10.2 1.3 20.6-.3 30.8-.3" class="b"/><path d="M10 57.7q1.1.7 2.6.5H16q6-.3 12-1.3c10-1.3 22.2-3 30.8 3.7h.8c1.9-2.2 4.1-4.6 6.9-5.4q2.6 1.4 5.1 3.1c1 .7 2.3.2 3.4.2q3-.1 6 .1l7.7.7c1.4 0 3 .3 4.3 0a73 73 0 0 1 14.6-4q2.5-.5 5 0 3.9.6 7.8 1a107 107 0 0 1 17.1-1c1.7 0 3.5.2 5.1-.2 1.6.6 3.5.5 5.2.7l5.1.8c9.7 1 19.4.4 29.1.7" class="b"/><path d="M10 57.2a65 65 0 0 0 17.1-2q3.4-.5 6.9-.7 4.6-.7 9.4-1 5.7 0 11 2 1.9.8 3.5 2a3 3 0 0 0 2.6.8c1.5-2.2 3.5-4.4 6-5.5q2.6 1.6 5.1 3.6c8.5-1.4 17.1.6 25.7 0a75 75 0 0 1 15.4-3.6c2 0 4 .6 6 .7a114 114 0 0 1 17-1.4c7.8-.1 15.5.8 23.2 1.5q11.6.4 23 1" class="b"/><path d="M10 56h5.1l3.4-1.5q4.6-1.3 9.5-1.6l10.2-.8a33 33 0 0 1 14.6.5q2.2.6 4.3 1.8c1 .6 2 1.9 3.4 1.6 1-.4 1.7-2 2.6-2.7q1.5-1.6 3.4-2.8l3.4 2.5q.7.9 1.7 1 5.2-.9 10.3-.7c6.5.3 13.1.5 19.6-.3 3.5-.3 6.9-1.5 10.3-2l3.4-.5q1.3.3 2.6.2 9.3-1.4 18.8-1.4c8-.1 16 .7 24 1.3q10.7.6 21.4 1.4" class="b"/><path d="M10 53.7h3.4q3-1.4 6-1.7c5.4-.7 10.9-.5 16.3-1.3 6.2-1.1 12.7-2 18.8.3q1.8.6 3.4 1.7l1.7 1h1.7c1.3-2 3-4.2 5.2-5.5q2.3 1.6 4.2 3.6 4.4-.6 8.6-1 7.7.2 15.4-.1c9-.4 17.7-2.3 26.5-3.1q19.7-1.6 39.4.2 10.7.6 21.4 1.7" class="b"/><path d="M10 51.5c3 .2 5.6-.8 8.6-.8 5 0 10.3.5 15.4-.7a32 32 0 0 1 19.6-1.5q2.3.8 4.3 2l1.7 1h1.7c1.5-2 2.9-4.5 5.2-5.5 1.5 1 2.8 2.6 4.2 3.7 5.3-1.4 10.9-1.4 16.3-1.5q7.7 0 15.4-1 8.5-1.2 17.1-2 8.5-.6 17.1-.6 11.6-.5 23.1.4 11.2.6 22.3 2" class="b"/><path d="M10 49.1h20.5c1.1 0 2.5.2 3.4-.5A30 30 0 0 1 52.9 46c1.3.5 3 1 4.2 1.7l1.8 1.1q1.3.4 2.5.3c1.2-1.9 2.6-3.9 4.3-5.2l.9-.1q1.3 1 2.5 2.3c.4.5 1.1 1.2 1.7 1.3A68 68 0 0 1 87 45.7q7.2-.3 14.6-1.1 8.5-1 17-1.6c6.3-.4 12.6-.3 18.9-.5 4.8 0 9.7-.4 14.6-.3q15 .4 29.9 2.4" class="b"/><path d="M10 45q3.5 0 6.9.8 2 .6 4.2 1h9.4c1.7 0 3.5.3 5.2 0 5.3-3.2 12-4.3 18-2.6q2.3.7 4.2 1.8 1.6 1.2 3.4.9c1.3-1.7 2.6-3.8 4.3-5.2l.9-.1c1.5 1 2.7 2.9 4.3 3.8 8.3-2.5 17-2.1 25.6-3l18.9-1.5q8.6-.3 17-.2 6 0 12-.2 5.2-.4 10.3-.4 13.8.3 27.4 2" class="b"/><path d="M10 41.6q4.7.3 9.4 1.1a23 23 0 0 1 12.9 1.9h3.4q1.8.2 3.4-.8a19 19 0 0 1 20.5.8h1.7c.6-.3 1.4-1.5 1.8-2a14 14 0 0 1 3.4-3.5 31 31 0 0 1 4.2 4c1.2.2 2.4-.4 3.5-.7q3-.6 6-1 9-1.1 18-1.6 10.2-.9 20.5-1 10.3.2 20.5.1c6.9 0 13.7-1.1 20.5-.8q7 .3 13.7.9c2.9.1 5.8 1 8.6.3" class="b"/><path d="M10 38.5q2.2.1 4.3.1 3-.5 6-.5c5.3-.1 11 1 15.4 4.2h4.2a17 17 0 0 1 18.9-.8q1.6 1.1 3.4.7 1.6-3 4.3-5.1h.8l4.3 3.8c1.1.4 2.3-.4 3.4-.6q2.6-.7 5.2-1.1c4.8-.8 9.7-1 14.5-1.5q11.6-1 23.1-.9 9.9.3 19.7.8c6 .2 12-1 18-1.2q13.3-.2 26.5 1.3" class="b"/><path d="M10 34.8c9-1 18.7-.8 26.5 4.3 1 1 2.2 1 3.5 1h1.7l1.7-1a16 16 0 0 1 16.2 0q1.2.9 2.6 1c1.6-1.9 3-4.1 5.1-5.5q1.5.5 2.6 1.6l3.4 2.7c2-.3 4-1.2 6-1.5Q85 36.3 90.4 36q9.4-.9 18.9-1c.8.1 1.7-.4 2.5-.4 1 .5 2.4.4 3.5.5 7.4.1 14.8 1.2 22.2 1.5 2.8.2 5.7-.6 8.6-.5 3.4-.3 6.8-1 10.2-1.1 8.6-.4 17.2.2 25.7.7" class="b"/><path d="M10 32.4q4.2.1 8.6.4l6-.8c1.4-.3 2.9.4 4.2.7a35 35 0 0 1 10.3 4.9c.4 0 1.3.2 1.7.1 1.1 0 2.5.3 3.4-.4a16 16 0 0 1 18 .4l.9-.3q2-3 5-5.1c1 0 2 .9 2.7 1.3q2.4 1.7 5 3.1c9.2-3 18.9-3.1 28.3-3.5 1.1 0 2.4.2 3.5-.3 1.8-.8 2.4-.8 4.2 0q1.7.6 3.5.5l3.4.3q5.6.5 11 1.2l3.5.4a42 42 0 0 1 11.1-2q5.6-.3 11.1.4c8.9-.7 17.7-.5 26.6-.2" class="b"/><path d="M10 29.6q6.5 0 12.8.9c1.7.1 3.5-.7 5.2-.7l1.7.5q4.5 1.3 8.5 3.7c.8.4 1.7 1.2 2.6 1.4h4.3a16 16 0 0 1 18-.5c1-.2 1.8-1.6 2.5-2.2 1.3-1 2.6-2.6 4.3-2.7q4.5 2.4 9.4 4.3a72 72 0 0 1 16.3-2.5l6.8-.2 3.4-1.1c.8-.3 1.8-.7 2.6-.4q2.2.7 4.3 1.7 3.4.4 6.8.7l6.9 1c1 0 2.3.4 3.4.3l1.7-.7a74 74 0 0 1 33.4-1.2q8.6-.5 17.1-.5" class="b"/><path d="M10 27q5.1 0 10.3.5c2 0 4 .7 6 .5q1.2-.4 2.5-.4l3.4 1.1q4.1 1.4 7.7 3.6 1.6 1.1 3.5.9c1-.1 2.4.1 3.4-.3a17 17 0 0 1 17.1-.9c1-.2 1.8-1.3 2.6-1.8q2-1.6 4.2-2.7c4.7 1.9 9.6 3.5 14.6 4 3.4-.3 6.8-1 10.3-1.1L104 28c1.4-.7 3 .1 4.3.5l3.4 1.4c.8.4 1.8 1 2.6 1q3.9.3 7.7 1l4.3.6c.4-.2 1.3-.5 1.7-.8a46 46 0 0 1 15.4-3 89 89 0 0 1 17.1.2c2.6.2 5.2 1 7.7 1.3q6.8-.6 13.7-1" class="b"/><path d="M10 24.4a180 180 0 0 1 18 1c1.7 0 3.5.9 5 1.4q4.1 1.4 7.8 3.5c.9.8 2.3.5 3.4.6 1.4 0 3.1.3 4.3-.7 4.9-3 11-3 16.3-1 .9-.2 1.8-1 2.5-1.5q2.4-1.6 5.2-2.4a46 46 0 0 0 20.5 2q4.7-.8 9.4-2 3 .5 6 1.7l3.4 1.5q1.2.8 2.6 1.3c3.1.3 6.2 1.1 9.4 1 1.5.2 2.8-1.1 4.3-1.5q3.3-1.1 6.8-1.7a110 110 0 0 1 30 .3q1.2.3 2.5.5L182 27" class="b"/><path d="M10 22q5.1-.1 10.3.4l6 .9L28 23q6.6 1.8 12.8 4.9c1 .7 2.3.6 3.4.6q2.2.1 4.3-.1a21 21 0 0 1 17.1-2.2c2.8-1.1 5.5-3 8.6-3.2a54 54 0 0 0 21.4.5q2.2-.5 4.3-.5c4.7.9 9.6 2.3 13.7 5q1.2.7 2.5.5h8.6l1.7-.8c5.7-2.2 12-2.3 18-2.5 3.6 0 7.4-.4 11 0 2.7.2 5.2 1 7.8 1.5q9.3-1.3 18.8-2.2" class="b"/><path d="M10 19.5q7 0 13.7 1l3.4.4a132 132 0 0 1 14.6 5.4h4.2c1.1 0 2.4.2 3.5-.3a25 25 0 0 1 17-2.5q4.2-2 8.6-2.8 5.2.8 10.3.7a98 98 0 0 0 10.3-.8c5.6.7 11.3 2 16.2 4.8 1.5 1.2 3.4.8 5.2.9h7.7c.8 0 1.8-.5 2.5-.7q2.6-.9 5.2-1.1 6.3-.7 12.8-.4 4.3-.1 8.6.4c.7 0 1.8.3 2.5.5.8.3 1.8.7 2.6.3 7.6-1.6 15.4-2.3 23.1-3.2" class="b"/><path d="M10 17.1q11-.1 21.4 3c3.2 1 6.2 2.8 9.4 3.9h8.6c4.8-3 10.7-3.6 16.2-3.3 1.2.2 2.4-.5 3.4-.8l4.3-1.2c1.7-.6 3.5.1 5.2.2h7.7q3.3-.2 6.8-.4a52 52 0 0 1 19.7 5.4q2 .1 4.3.1h8.5c1.4.1 3-.5 4.3-.7q3-.6 6-.6c5.7-.1 11.4 1.2 17.1 1.3h2.6l2.5-.7 6.9-1.5q8.5-1.3 17.1-2" class="b"/><path d="M10 14.8q10.6 0 20.5 3a38 38 0 0 1 6 2.5c1.1.4 2.2 1.6 3.5 1.4h9.4l3.4-1.5q6.2-2.1 12.8-2 3-1 6-1.6c2-.6 4-.3 6 0q3 .4 6 .3 4.3-.2 8.5-.7a67 67 0 0 1 17.2 3.8q1.7.6 3.4 1.6 2 .1 4.3.1h12a35 35 0 0 1 11 0h12c2 0 4.2.3 6-.4l4.3-1.2q2.5-1.1 5.1-2 7.1-2 14.6-1.5" class="b"/></svg>