<svg xmlns="http://www.w3.org/2000/svg" id="a" width="1920" height="2400" viewBox="0 0 192 240"><defs><style>.b{fill:none;stroke:#fff;stroke-miterlimit:10;stroke-width:.3px}</style></defs><path d="M0 0h192v240H0z" style="stroke-width:0"/><path d="m9.7 221 6.8-1.5c4.9.8 9.7 2.4 14.6 2.7q6.6.3 13-1.4c5.5-1.4 4.6-2 10.2.2 2.1 1.1 2.2 1 4.3 0l3.5-1q1.2-.5 2.6-.5L74 222c3.3.6 6.7 1.1 9.5 3.1q2 .2 4.3 0c1.8-2.2 4-4.6 6.8-5.4q2.3 1.3 4.3 2.8 1.8.2 3.5 0 2.6 0 5.1.8 1.9.7 3.5 1.8h3.4l2.6-1q3-.9 6-1.6a35 35 0 0 1 6.9-2.9c2.6.5 5.1 1.6 7.7 2.2l5.1 1.5 5.2.7c3.4.5 6.9 1.3 10.3 1.1 5.8-.5 10.9-3.7 16.3-5.5q4 1.4 7.8 3.6" class="b"/><path d="M9.7 217.3c5.8.8 11.4 2.8 17.2 3.5s11.6-.6 17.1-2.2q2.6-.8 5.2-1.4a31 31 0 0 1 7.7 3.2c2-.4 4-1.6 6-2.1 1.4-.4 2.9-1.1 4.3-1q2.6.6 5.2 1.1c3 1 6.3 1 9.4 2a18 18 0 0 1 5.2 2.4h1.7q3-3.5 6.9-5.6c2.2.8 4 2.5 6 3.9q3-.4 6 .4c1.4.4 2.7 1.5 4.3 1.3 2.5-.1 5.2.2 7.7-.2q3.8-3.2 8.6-4.7 1.3-.5 2.6-.7l1.7.5q8.3 2 16.3 5 4.4.1 8.6 0h5.2c2.6-1 5-2.6 7.7-3.8 1.3-.5 2.8-1.7 4.3-1.5q2.6 1.1 5.1 2.7c.8.4 1.7 1.2 2.6 1.2" class="b"/><path d="M9.7 216.4c16.8 4 18.3 5 35.2-.6q1.6-.6 3.4-1 4.6 1.4 8.6 4 1 .2 1.7-.4A54 54 0 0 1 69 215q4.6 1 9.4 1.6a26 26 0 0 1 11.2 3.4h.8c2-2 4.2-4.2 6.9-5a52 52 0 0 1 7.7 5.5q1.8-.1 3.5 0h5.1c2.3 0 4.7.3 6.9-.1q3-2.5 6.9-4c5-2 4.4-1.6 9.4 0q5.7 1.7 11.2 4c1.9.4 4 0 6 .2h10.3c3-2 6-4.5 9.5-5.5q3 1.5 6 3.5l2.5-.2" class="b"/><path d="M9.7 215.6c3.7.9 7.4 2 11.1 2.4 9 1 17.4-3 25.8-5.5q5.6 1.5 10.3 5c4.6-2.3 9.5-4.4 14.6-4.8l6 .8q3 .3 6 .7 4.4 1 8.6 2.6 2.4-2.1 5.2-3.6a2 2 0 0 1 2.6 0q3.7 2 6.8 5h8.6c1.7-.2 3.7.3 5.2-.4q3.2-2.2 6.8-3.6c5-2 4.4-2 9.5-.3q5.7 2 11.2 4.3 8.5 0 17.1-.1 3.5-3.3 7.8-5.4 1.8.6 3.4 1.8c.8.4 1.6 1.4 2.6 1.3 1-.2 2.4-.2 3.4-.2" class="b"/><path d="M9.7 214.8c2.5.6 5 1.3 7.7 1h9.5c6-1.5 12-3.8 18-5.6q4.2 1.1 7.7 3.3c1.2.6 2.2 1.8 3.5 2.2 5.8-3 12.3-5.4 18.9-5.3 4 .6 8 .4 12 1.3q2.6.7 5.1 1.3c.8.2 1.8.6 2.6.3q2.5-1.7 5.2-3c2.2.5 4.1 2.1 6 3.3 1.1.6 2.2 1.8 3.4 2.3h7.8c2.9-1 5.6-2.6 8.5-3.6q3-1.2 6-2 2.8.6 5.2 1.5 5.3 1.7 10.3 4 3.4.1 6.9 0h11.2c1.7-1.2 3.2-3 5.1-4.2.7-.5 1.7-1.3 2.6-1q2.1 1.2 4.3 2.7a24 24 0 0 1 5.1-.3" class="b"/><path d="M9.7 213.6H20c2.3-.1 4.7.3 6.9-.5l13.7-4.4q1.2-.5 2.6-.7l3.4 1.1q2.8 1.3 5.2 2.8c.7.5 1.6 1.4 2.5 1.7 4.5-1.7 9-3.8 13.8-4.6l8.6-1c3 .2 6.3.1 9.4.6l10.3 1.8c1.8-.6 3.4-1.8 5.2-2.4 2.7.8 5.3 2.5 7.7 4 3.7 1.6 12.4-1.6 16.3-2.7q2.6-.7 5.2-1.3l6 1.7c3.2 1 6.3 2.5 9.4 3.4 3.2-.2 6.4-.7 9.5-.3q1.3.3 2.6.8h5.1c2.7.2 2.6-.7 4.3-2.4q2-1.9 4.3-3.2c1.5.7 2.8 2.1 4.3 2.7q3-.5 6-.2" class="b"/><path d="M9.7 211.3h8.6c2.2 0 4.7.2 6.8-.7l14.6-4.7c1.1-.5 2.4.1 3.5.4q4.6 1.6 8.6 4.9.9.2 1.7-.3a128 128 0 0 1 12-3.7c3.4-.6 7-.6 10.3-1q4.3-.2 8.6-.6 3.4.2 6.9.9 3.8.5 7.7.7c1.5-.2 2.9-1 4.3-1.5 2 .5 4 1.7 6 2.5q8.7 0 17.2-2l2.6-.5a106 106 0 0 1 13.7 4l4.3-.2c4.3-.2 9.3-1.2 12.9 1.8h3.4q1.4 0 2.6-.3 2.1-3 5.2-5.1c1.6 0 2.8 1.8 4.3 2.3q3.4-.5 6.8 0" class="b"/><path d="M9.7 209H20l12.9-4c2-.5 4-1.4 6-1.6a29 29 0 0 1 9.4 4.4q.8.6 1.8.9c4.8-1.3 9.6-3 14.5-3.6q3.9-.5 7.8-.5c1.7 0 3.4-.4 5.1-.3 4 0 8-.6 12-.9l7 .6 6 .3c3-1.1 3-1 6 .2q2.5.4 5.1.1 4-.2 7.7-.6c1.7-.1 3.5-.6 5.2-.5a95 95 0 0 1 14.6 3.4q2.2-.1 4.3-.4c5.2-.2 11.5-2 15.5 2.4 1.6 0 3.5.3 5.1-.1q2-3.2 5.2-5.5 1.7 1.2 3.4 2.6 3.8-.7 7.7.2" class="b"/><path d="M9.7 206q3.4 1 6.8.7 3-.6 6-1.7l13-3.7c1-.5 2.3.3 3.4.5a27 27 0 0 1 7.7 4c5.5-.6 10.8-2.4 16.3-2.9 3.7-.3 7.5 0 11.2-.3q2.6-.1 5.1-.1l9.5-.8q7.7-.9 15.4-.3c1.2.2 2.4-.3 3.5-.2q1.6.5 3.4.3c3.5.1 7-.4 10.3-.5q7.8.8 15.5 2.5l3.4 1q2.2-.6 4.3-.7c3.4-.4 7-1 10.4-.8 2.6.2 5 1.7 6.8 3.7q2.2.1 4.3-.2 1.4-2.4 3.5-4.3.6-.8 1.7-1l2.6 2.2c2.8 0 5.8-.2 8.6.8" class="b"/><path d="m9.7 202.9 5.1.6q1.3.2 2.6-.1 7.3-2.2 14.6-4.1l1.7-.5q1.3.2 2.6.6 3.7 1 6.9 3c1.6.4 3.5-.1 5.1-.2q5.6-.7 11.2-1.3c3.1-.3 6.3 0 9.4.1q3.9-.1 7.8 0c6-.1 12-1.2 18-1.5q6-.5 12-.4l2.6-.3q1.3.4 2.6.3c9.2 0 18.5.7 27.5 3 4.8-.8 9.7-2.1 14.6-2 3 0 6 1.5 7.7 4q1.2.5 2.6.3c.4 0 1.3 0 1.7-.3 1.2-1.8 2.6-3.8 4.3-5.1 1.4.1 2.3 1.6 3.5 2.3q4.5-.6 8.6 1.3" class="b"/><path d="M9.7 199.6q4.2.3 8.6.3l8.5-2.2c1.7-.3 3.5-1 5.2-1.1q4 .9 7.7 2.7 6.9 0 13.8-.5c6-.6 12 .9 18 .5 6.3.4 12.7-.6 19-1.3q6.3-.6 12.8-.7h4.3c1.3-.3 3-1.1 4.3-.6 3 1 6.3.7 9.4.9a174 174 0 0 1 16.4 1.8c1 .2 2.3.5 3.4 0 4.4-1.2 9.1-2.4 13.7-2q3 .3 5.2 2c.8.7 1.7 2 2.6 2.7 1 0 2.5.3 3.4-.5 1.2-1.7 2.5-3.8 4.3-5 1.3.5 2.3 1.8 3.4 2.5q4.7-.3 8.6 2.2" class="b"/><path d="M9.7 196.3q5.6.3 11.1 0l6-1.5c1.1-.1 2.4-.8 3.5-.4 2 .4 4 1.4 6 1.7H44c3.7.2 7.5 0 11.2.3 3.2.2 6.3 1 9.5 1.3q9.4 1 18.9-.5a132 132 0 0 1 17.1-1.7h6l6-1.4q3 .7 6 1.6h3.5c6 .4 12.1.6 18 1.7q5-2 10.4-2.7c4.7-.8 9.5.8 12 5.1h2.6c1-.5 1.9-2 2.5-3q1.2-1.3 2.6-2.4c1.3.4 2.4 1.6 3.5 2.5l2.5.4q1.9.4 3.5 1.2c.8.4 1.6 1.4 2.6 1.3" class="b"/><path d="m9.7 193.2 12.9-.2c1.6-.2 3.4-1 5.1-1 1 .3 2.4.6 3.4 1h6q4.4 0 8.6.5 4.8.1 9.5 1c3.1.6 6.3 1.7 9.4 2 8.4 1.6 16.7-1 25-2a170 170 0 0 1 15.4-1q4.4-.6 8.6-1.5c1-.4 2.4.2 3.4.4 1.7.3 3.5 1.2 5.2 1.3 6 .3 12 .4 18 1.1.9.2 1.9-.4 2.6-.7l4.3-1.4c5.7-1.6 12.3-1.3 15.5 4.5q1.2.5 2.6.3c.6-.2 1.3-1 1.7-1.6q1.3-2.2 3.4-3.8c1.6.4 3 2 4.3 2.8 1.7.9 3.7 1.2 5.2 2.6.7 0 1.8 0 2.5-.3" class="b"/><path d="M9.7 190c12.3-.2 24.7-.8 37 1 4.7.4 9.2 2.2 13.6 3.8 2.2.7 4.7.3 7 .4q5-1.5 10.2-2c9.7-.9 19.6-1 29.2-2.1q4.4-.6 8.6-1.4c1.1-.3 2.4.1 3.5.4q2.2.5 4.3 1.3c2.2.5 4.6.2 6.8.3l7.8.3c1.3 0 2.9.4 4.3.2 5-2.3 11-4.2 16.3-1.7q2 1 3.4 2.7c.2.6 1.3 1.6 1.8 2 .7 0 1.8.1 2.5-.3 1.7-1.6 2.7-4.6 5.2-5 3.2 2.1 7 5 11.2 3.4" class="b"/><path d="m9.7 187.7 9.4.3c1.4.1 3-.5 4.3-.6q2.6.8 5.2.6 3.9 0 7.7-.6c1.7-.3 3.5.2 5.2.4q3.9.6 7.7 1.6 2.6.9 5.1 2.1c1.1.5 2.3 1.4 3.5 1.4 2.1.3 4-1 6-1.5q3.8-1.4 7.7-1.8c8.6-1 17.2-.1 25.8-.3a126 126 0 0 0 17.1-1.5c1.1-.2 2.4-.6 3.5-.4a30 30 0 0 1 6.9 1.8h2.5q7.4-.1 14.6.5c7.8-3.3 16.4-5.4 21.5 3.2h2.6c.6-.4 1.4-1.6 1.7-2.2q1.4-2 3.5-3.2c4.2 1.7 6.1 3.7 11.1 2.1" class="b"/><path d="M9.7 186.3c2 0 4 .5 6 0l4.3-1 1.7-.2 6 1.5q4.4-.3 8.6-1c1.4-.2 3-.7 4.3-.3a35 35 0 0 1 12 4.4q.8.5 1.7.6l2.6-1q6.6-2.6 13.7-3.6c6.3-.4 12.7.1 19 .5q7.6.6 15.4.4c4.6-.1 9.2-1 13.7-1.5q3.5.6 7 1.8l3.4-.1q6.8-.4 13.7.3c6.7-3.5 16.6-4.6 20.6 3.3 1 .4 2.4.2 3.5.2q1.7-3.6 5.1-5.5c3.8 1.5 6.2 2.3 10.3 1.1" class="b"/><path d="m9.7 184.9 10.3-2.1q3.4.6 6.9 1.6l1.7.5q2.1-.1 4.3-.7 3.4-.6 6.8-1.4a26 26 0 0 1 7 2.2c1.4.6 2.7 1.9 4.2 2.3a89 89 0 0 1 16.3-4.6l6.9.6q5.2-.1 10.3-.5 8.5 1 17.2 1.4 5.6.1 11.2-.5c2.2-.2 4.6-.8 6.8-.9q3 .6 6 1.6 4.8-.3 9.5-.4 4.3.1 8.6.4c4.7-2.4 10.6-3.5 15.4-1 2.3 1 3.7 3.2 5.2 5h2.6c1-.6 1.7-2.2 2.6-3a10 10 0 0 1 4.2-2.6q4.3 1.4 8.6.2" class="b"/><path d="M9.7 182.3c3.1-.6 6.3-1.5 9.4-1.8q4.4.9 8.6 2.1l1.7.5c1.1 0 2.4-.5 3.5-.7l6.8-2q2.8.8 5.2 2c1.1.6 2.2 1.6 3.4 1.9l9.5-2.9c1.6-.3 3.4-1.2 5.1-.7 3.7.8 7.4 1.6 11.2 1.5 5.2-.1 10.3-1.2 15.5-1.7q7.2 1 14.6 1.3 7.7.2 15.4-1.3c2 0 4 1 6 1.3q5.6-.4 11.2-.5 2.6 0 5.1.3c1.1.1 2.5.3 3.5-.4 6.4-2.7 15.3-2.4 18.9 4.5 1 .6 2.3.3 3.4.4 1-.7 1.7-2.1 2.6-2.9 3.3-2.9 8-3.2 12-2.2" class="b"/><path d="m9.7 179.8 7.7-1.6c4.4.4 8.6 2 12.9 3 2.3-.5 4.6-1.5 6.9-2.2 1.8-.8 2.4-1 4.2 0q2.3.9 4.3 2.3 1.4.1 2.6-.4 4.7-1.6 9.5-2.7c1.4 0 2.9.7 4.3 1 3.6.9 7.3 2 11.1 1.9 6.1-.3 12-2 18-2.9 3.8.2 7.5 1 11.2 1.2q6 .4 12-.3l6-1 3.5.9c1 .3 2.4 0 3.5 0l5.1-.3q6-.3 12 .4c7.4-2.8 16.3-3.2 20.7 4.6h3.4c.7 0 1.4-1 1.7-1.5 3-3.2 8-3.6 12-2.6" class="b"/><path d="M9.7 177.4q3.8-.9 7.7-1.5 6 1.2 12 2.7l1.8.3q1.3-.3 2.5-.9l5.2-2c1.8.3 3.6 1.4 5.1 2.4 1.1.5 2.4-.3 3.5-.5q3-1 6-1.6 1.7-.7 3.4 0l5.2 1.5c2.8.7 5.6 2 8.6 2 7 .1 13.7-2.6 20.6-3.6 2.2-.6 4.6.2 6.8.4a68 68 0 0 0 22.4-.7q1.6.3 3.4.7l9.5-.7q6-.2 12 .6c7.1-2.8 16.4-2.4 20.6 5h4.3c.9-.6 1.7-1.7 2.6-2.1q2.4-1.4 5.2-1.5c1.4 0 3 .4 4.3-.5" class="b"/><path d="M9.7 175q3.8-.8 7.7-1.4l8.6 1.7c7.5 1.5 5.2 1 12-1.6q2.3.6 4.3 2c2.6 0 5.2-1.2 7.7-1.7q1.3-.3 2.6-.4a84 84 0 0 1 11.2 3.7c2.4 1 5 1.9 7.7 1.7.9.1 1.9-.5 2.6-.8q1.6-.8 3.5-1.3c3-.9 6.3-1.1 9.4-1.6q4.2-1.1 8.6-1.7 3.4.6 6.9.9a66 66 0 0 0 17.1-.9c2.9.6 5.8.2 8.6 0q3.9-.1 7.8 0 4.7-.2 9.4.4c1.7-.1 3.4-1 5.2-1a20 20 0 0 1 9.4.6q2.9 1 5.2 3.1c.7.7 1.5 2 2.5 2.4h5.2a10 10 0 0 1 5.1-2l4.3-2.3" class="b"/><path d="m9.7 172.9 6-1.2q2.1-.6 4.3-.1c4.2.6 8.5 1.7 12.9 1.5q2-1 4.3-1.8c1 .4 2.2 1.3 3.4 1.5q2.6-.3 5.1-1c1.4-.3 3-.8 4.3-.3q6.2 1.5 12 4.3c.8.3 1.8 1 2.6 1h3.5q1.3.1 2.6-.1l2.5-1.5c5.7-2.4 12-2.7 18-3 2.4 0 4.7-.7 7-1q3.4.5 6.8.7 4.4 0 8.6-.3c1.7 0 3.5-.4 5.2-.2q6.8-.1 13.7.1 5.6 0 11.2-.2c1 0 2.4.4 3.4 0 7.4-2 16.4-1 21.5 5.3q1.2.4 2.6.3l2.5-.1a66 66 0 0 1 8.6-4.3" class="b"/><path d="M9.7 171q3.8-.8 7.7-1.5c1.4-.2 3-.6 4.3-.4a95 95 0 0 0 11.2 1l2.5-1.2q1.3.7 2.6 1l6-1q2.2.2 4.3.8 3 .8 6 1.8c2.4.8 4.6 2.3 6.9 3h6c1.6.3 2.9-1.3 4.3-1.8a29 29 0 0 1 6.9-2.2c7.3-1.4 14.9-1.2 22.3-1.3q2.6-.3 5.2-.1l6.8-.2q9.4.5 19 .5a185 185 0 0 0 17.1-.7q12.7-2.7 22.3 5.7c3.8-1.1 7.4-3 11.2-4.2" class="b"/><path d="M9.7 169.2q8-1.7 16.3-2.6l6 .3c.9 0 1.7-.5 2.6 0 6.4-.6 12.9 1 18.9 3.3 1.6.7 3.7.8 5.1 1.9 2.5.4 5.2 0 7.8.2 1.1-.5 2.2-1.6 3.4-2.2q3-1.4 6-2.1 5.6-1.3 11.2-1.4 6 .2 12 .2c11.5-.2 23 .6 34.4.4q6.8.1 13.7-.4 2.6-.5 5.2-.8a31 31 0 0 1 19.7 4.6c1.4.2 3-.5 4.3-.9l6-1.7" class="b"/><path d="M9.7 168a99 99 0 0 1 18-2.9q1.8 0 3.4-.7 1.4.3 2.6.7 3.4 0 6.9.5a67 67 0 0 1 11.2 2.8q1.7-.2 3.4.4c.8.3 1.8 1 2.6 1.2H62c1-.1 2.4.2 3.4-.5q2.3-2 5.2-3.1a36 36 0 0 1 9.4-2.1l6 .5q7.4.1 14.6 0c14-.3 28 .3 42.1 0q4.4-.1 8.6-1a41 41 0 0 1 22.3 3.5q4.4-.6 8.6-1.6" class="b"/><path d="M9.7 164.8c6.4 1 12.8-.9 18.9-2.7q2.2.6 4.3 1.7 2.5.3 5.1.4 5.7.6 11.2 2.2 2.7-.6 5.1.5 1.2.8 2.6.8c9.3 0 4 .7 11.2-3.2q4-1.9 8.6-2.5a81 81 0 0 0 19.7.7c15.8-.8 31.5-.3 47.3-.2 4.8 0 9.7-1.4 14.6-1.2q7.9.2 15.4 2.4 1.7.6 3.5.3l5.1-.7" class="b"/><path d="M9.7 161a40 40 0 0 0 14.6-1q1.3-.3 2.6.3 2.2.6 4.3 1.6c1 .5 2.2 1.2 3.4 1q4.3.1 8.6 1c1.4 0 2.9.8 4.3.6a9 9 0 0 1 4.3 0c.8.2 1.7.8 2.5.9 2.6-.1 5.3.2 7.8-.2q3.7-3.3 8.6-4.6c1.3-.3 2.9-1 4.3-.7q8 1.3 16.3.8 7.7-.4 15.4-1 10.8.6 21.5.2c5.7-.4 11.5.4 17.2.3 4.9-.2 9.7-1.4 14.6-1.2a81 81 0 0 1 17.2 2.1q2.6-.1 5.1-.4" class="b"/><path d="M9.7 157.6q4.2.1 8.6 0a37 37 0 0 1 12.8 3.2c1 .5 2.2 1.6 3.5 1.4q5.2 0 10.3.7 1.6-.4 3.4-.5 1.8.1 3.5.7h8.6q3.8-3.2 8.6-4.7c1.6-.5 3.4-1.1 5.1-.7q8.6 1.5 17.2.7c3.7-.2 7.5-.9 11.2-.8a152 152 0 0 0 34.3 0q4 .2 7.7.3c4.6.2 9.2-1 13.8-1a93 93 0 0 1 18.9 1.3l5.1-.1" class="b"/><path d="M9.7 156.4q8.7-1 17.2 1.5 2.3.7 4.2 1.9c.8.4 1.7 1.2 2.6 1h25c3.6-3 8.2-4.9 12.8-5.6a70 70 0 0 0 21.5.5c2.5-.2 5.2-.7 7.7-.2 8.3 1.1 16.6 2.1 25 1.3q6.3-.6 12.8-1.7 5.6.8 11.2.6a80 80 0 0 1 24-.6h8.6" class="b"/><path d="M9.7 155.3a40 40 0 0 1 19.7 2.4c.8.3 1.7 1 2.6.8h25c3.8-3.2 8.8-4.9 13.6-5.6q5.6 1 11.2 1c4.6 0 9.2-.6 13.8-1l11.1 1.8a59 59 0 0 0 19.8.4c4.3-.6 8.6-1.8 12.9-2.3q5 .9 10.3 1a82 82 0 0 1 27.5-.4c1.6.2 3.4.6 5.1.4" class="b"/><path d="M9.7 154.2q6.8-1.2 13.7 0 3 .7 6 1.9 2.2.1 4.3 0c4.9 0 9.8.3 14.6-.2 2.3-.1 4.6.2 6.9 0 1.7-.9 3.3-2.1 5.1-2.8q3.8-1.5 7.8-2.2c1.3-.4 2.9-.1 4.3 0q3 .4 6 .5c4.3.3 8.6-.2 12.9-.6 2.2-.4 4.6.3 6.8.6q6.4 1.2 13 2.4c10.4 2 16.7-1 26.5-3 1.7-.5 3.5 0 5.2.3 2.5.3 5.2 1 7.7.7a87 87 0 0 1 31.8.6" class="b"/><path d="M9.7 151.9q2.2 0 4.3.2a42 42 0 0 1 9.4.4q3 .6 6 1.4h11.2c2.3 0 4.6-1 6.9-1.2 2.5-.5 5.2-.3 7.7-.7 2-.4 4-1.7 6-2.2q3.4-.8 6.9-1.4 1.6 0 3.4.2 4.7.5 9.5.4c3.4 0 6.9-.5 10.3-.6 7.2.8 14.3 2.9 21.5 4 8.8 1.5 17.3-2 25.7-3.9 1.7-.5 3.5.5 5.2.7q3 .7 6 1l3.4-.5a99 99 0 0 1 29.2.8" class="b"/><path d="M9.7 149.2q3.9 0 7.7.8a46 46 0 0 1 12.9 1.6h5.1c1.4 0 3 .2 4.3-.3q3.8-1.5 7.8-2.1c3-.6 6.3-.6 9.4-1.3 3.4-.6 6.8-1.7 10.3-1.9q6.4.7 13 .5c2.7 0 5.7-.5 8.5-.4 7.2.7 14.3 2.5 21.5 3.9 7.7 1.6 15.7 0 23.2-2.4q3-.9 6-1.6l2.5.7q3.9 1.1 7.8 1.9 4.7-.8 9.4-1.1 11.7-.5 23.2 1" class="b"/><path d="M9.7 146.7q3.5 0 6.8.8h4.3c5 0 9.8 1.2 14.6 1.8 1.8.1 3.5-1.3 5.2-1.7a53 53 0 0 1 7.7-2q3.9-.6 7.7-1.1c2-.3 4-1.1 6-.6 3.2-.6 6.4.6 9.5.3q2.2-.1 4.3-.5 1.3.1 2.6.4 3-.1 6-.4c7.8.5 15.5 2.2 23.2 3.6a46 46 0 0 0 25.8-2l5.1-1.5c1.1 0 2.4.6 3.4.9 11.3 4 6.3 1.8 17.2 1.4q11.7-.5 23.2 0" class="b"/><path d="M9.7 144.5q2.2 0 4.3.4a83 83 0 0 1 22.3 1q5.5-2.4 11.2-3.5c2.2-.4 4.6-1.1 6.8-.9l2.6.5c1.1 0 2.4-.5 3.5-.6q4.2.7 8.5.9c4.6.2 9.2-.8 13.8-1 11.2 1.4 22.2 3.8 33.5 4.6 4.6.3 9.3-.6 13.7-1.9l5.2-1.6c1-.3 2.3-.9 3.4-.9q5.7 2 11.2 4.6 7.6-1.3 15.4-1.6 8.7-.6 17.2-1" class="b"/><path d="M9.7 142.1c8.8-1 17.8-.6 26.6.3.8 0 1.8-.6 2.6-.9q1.6-.7 3.4-1c2-.5 4-1.4 6-1.2 1.7.2 3.5.7 5.2.7q1.6-.6 3.4-1a41 41 0 0 0 8.6 1.6c5 .4 9.8-.5 14.6-1.4l1.7-.1q1.4.3 2.6 0c3 1.3 6.3 1.4 9.5 2q6.8 1.1 13.7 1.6a49 49 0 0 0 26.6-2.5c3.8-1.3 3.3-1.2 6.9.4l5.2 2.7c1 .6 2.1 1.6 3.4 1.4 4 .2 8-.8 12-1.2q3.4-1.4 6.9-2 4.2-.7 8.6-.5c1.7 0 3.5.3 5.1 0" class="b"/><path d="M9.7 138.7q9.4-.5 18.9-.2l8.6.5 4.3-1.4q1.6-.6 3.4-.8l3.4 1a4 4 0 0 0 2.6 0c1.4-.2 2.9-1 4.3-.8 2.6.5 5.1 1.5 7.7 2q6.6 1.1 13-.8l6-1.5q1.6.6 3.4.7l1.7-.6 3.4 1.8q2.2.5 4.3.8 6.4.9 13 1c11.5 1 15.4 1 26.5-2.8q1.3-.4 2.6-.7a30 30 0 0 1 9.5 5.4q1.6.2 3.4.1h6c1.3.2 2.4-.8 3.5-1.3a23 23 0 0 1 5.1-1.8c6-1.4 12-.8 18-.2" class="b"/><path d="M9.7 135.4c9.4-.2 18.9-.5 28.3 0 1.1.1 2.4-.5 3.5-.7 1.7-.3 3.4 1 5.1.6q2.6-.2 5.2-.7c2.3.1 4.6 1.2 6.8 1.8 2.8.8 5.6 2.2 8.6 2.3 5.5.4 10.3-3 15.5-4.2 1.4.3 2.8 1.2 4.3 1l1.7-1c1.8.6 3.4 2 5.1 3 4.3.9 8.6.7 13 .7 9.8.3 15.2 1 24.8-2.4 1.4-.4 2.9-1.2 4.3-1.1a27 27 0 0 1 8.6 5.2c1 .4 2.4.2 3.5.2h6.8a28 28 0 0 1 18-3.6l6 1q1.8.5 3.5.5" class="b"/><path d="M9.7 132.2q5.5-.1 11.1.4 7.4.4 14.6.1H38q1.3-.6 2.6-.2c4 .1 8-.1 12 .6q4.4 1 8.6 3c1.4.5 2.8 1.5 4.3 1.7 3.3-2.5 8-4.6 12-2.7 2-.7 4-2.2 6-2.8 1.5 0 3 1 4.3 1.4 1-.1 1.8-1 2.6-1.5.5 0 1.4.5 1.7.8l3.5 2.5c.9.9 2.3.7 3.4.8l7.8-.3c4.5-.1 9.1.2 13.7-.2 4.7-.5 9.3-2 13.7-3.5q3.8 1 6.9 3.5c1 .8 2 2.1 3.4 2h8.6a25 25 0 0 1 19.8-2.2q2.6.5 5.1 1.3 2.1 1 4.3 1" class="b"/><path d="M9.7 131.2c6.3.3 12.6 1.2 18.9 1.2 2.8-.7 5.6-2 8.6-2.4q3 .7 6 1.6c3.4 0 6.9-.3 10.3.3q3 .7 6 2.2l2.6 1.4h2.5c4.4-3.5 11.2-6.7 16.4-3.2q2-1.4 4.3-2.3 2.2.9 4.3 1.9 1.3-1 2.5-2c1 0 1.9 1 2.6 1.5 1.4 1 2.8 2.3 4.3 3.1q3-.1 6-.4c6.9-.6 14 0 20.7-2q3.4-.8 6.8-2 1-.2 1.7.3a27 27 0 0 1 6 3.4q1.4.1 2.6 0 2.2 0 4.3.5l4.3 1.2c1 0 1.9-.7 2.6-1a20 20 0 0 1 12-1.1q3.6.9 7 2.1h9.4" class="b"/><path d="M9.7 131.5c14.9 1.7 5.5 2.3 18.9-2.3q3-1 6-1.5l2.6.6q4.3 1 8.5 2.5c2.6-.1 5.2-.5 7.8-.1 2.5.2 4.7 1.3 6.9 2.5h4.3c4.9-4 13-8.1 18.9-3.5q1.6-1.2 3.4-2l4.3 2.3q1.2-1.2 2.6-2.3l.8.1c8.2 6 3.9 4.7 13.8 4q6-.4 12-1.2 5.7-1 11.2-3 2.2.8 4.3 1.9 1.2.8 2.5 1.2c5-1 10 .2 14.7 1.7 4.1-1.6 8.9-1.2 12.8.8q4 .2 7.8-.1 4-2.2 8.5-2.8" class="b"/><path d="M9.7 131H14c1.7-.5 3.4-1.5 5.1-2q6-2.2 12-3.6 2.2.2 4.3.7a125 125 0 0 1 11.2 3q1.3.6 2.6.6c3.4-.5 7.2-.6 10.3 1.2h6c4.1-3.3 9.1-6.3 14.6-6.2q1.8.2 3.4 1c.8.4 1.7 1.3 2.6 1.3.7-.5 1.7-1.3 2.6-1.5L93 128q1.2-1.6 2.6-2.5h.8c2.3 1.6 4.4 3.6 7 4.7 5.9-1 12-1.2 18-2.4q4.3-1 8.5-2.4c2.1.4 4.2 1.6 6 2.5 5.1-1.5 10.5-.8 15.5.8l4.3 1.4q1.8 0 3.5.5c1.3.5 2.9.3 4.3.3 1 0 2.4.2 3.4-.2 5-2.4 10-5 15.5-5.3" class="b"/><path d="M9.7 127.3q2.6 0 5.1-.9l11.2-2.9c1-.2 2.3-.7 3.4-.4q5.6 1 11.2 2.3 5.2 1 10.3 2.7c2.8-.4 5.9-.8 8.6.3 1 .4 2.3.2 3.4.2h4.3c5.7-4.7 14.1-10 20.6-3.6a8 8 0 0 1 2.6-1.9q2.2 1.5 4.3 2.7c.9-1 2-2.6 3.5-2.7q2.5 1.8 5.1 3.4l1.7 1h1.8c6.3-1 12.7-1.8 18.9-3.6l2.5-.8c2.1.2 4 1.7 6 2q5.1-1.7 10.4-1 4.8.8 9.4 2.4c3.3 1 7 2 10.3.5 3.2-1.1 6.2-3 9.5-3.9q3 1.1 6 1.9l2.5-.5" class="b"/><path d="M9.7 122.2c2.8-.1 5.8.4 8.6-.2q3.4-.8 6.8-1.3l3.5.5q8.5 1.6 17.2 3l6.8 1.4c1.4.1 3-.4 4.3-.4q2.8-.1 5.2 1 3.9.2 7.7.1c5-5.3 13.6-10.3 19.8-3.7l2.5-1.8 4.3 2.7c1-1 2.2-2.3 3.5-2.9 2.4 1.5 5 3.2 7.7 4.1a201 201 0 0 0 19-4q2.6.7 5 1.9a27 27 0 0 1 18.1-.2c3 .7 6.2 2 9.5 1.8 2.3-.2 4.7-1.2 6.8-2 1-.5 2.3-1.3 3.5-1.3l3.4 1.7q4.7-.4 9.4-1.2" class="b"/><path d="M9.7 118.5q3.9 0 7.7.4c2-.2 4-.8 6-.3 10 1.8 20.1 2.3 30 4 1.2.2 2.4-.3 3.5-.4q2.6-.1 5.2.3c1.1.3 2.3 1.1 3.4 1.5h6.9c2.2-2.7 5-5.4 8.6-6.5s7.9-.2 10.3 2.8l2.6-1.6c1.5.2 2.8 1.5 4.3 2.1 1.2-.3 2.1-1.7 3.4-2.2.9-.2 1.8.5 2.6.8q2.5 1.3 5.1 2.2 2.6-.2 5.2-.8l9.4-2.2c1.7-.2 3.6.8 5.2 1.3 1.7-.1 3.4-1 5.1-1.3 1.1-.2 2.4.2 3.5.3q2.6 0 5.1-.3 1.7-.2 3.5.3l6 1.5c6 1.6 8.2 0 13.7-1.8q1.3.6 2.6 1.4c4.5-.6 9.2-.5 13.7-1.5" class="b"/><path d="M9.7 115.7q9.4.5 18.9 1.7 9 .7 18 1.2l7.7.7c4.7-.7 10.1-1.1 13.8 2.5h4.3q1.3 0 2.6-.3a17 17 0 0 1 6.8-6.1c3.9-1.5 8.5-.4 11.2 2.6 1.1-.4 2.2-1.6 3.4-1.7l4.3 2c1.4-.7 2.7-2 4.3-2q3 1.1 6 2 4.8-.7 9.5-1.8c2-.8 4 .3 6 .9q2.2-.5 4.3-1.1c1.4-.1 2.9.6 4.3.7q3 .5 6 0l4.3-.8 6.9 1.5q4.3.8 8.6-.7c.7-.3 1.7-.8 2.5-.7.4.3 1.3.7 1.8.8 3-.5 6.3-.3 9.4-.4 2.6 0 5.2-1 7.7-.1" class="b"/><path d="M9.7 113.8c6 .2 12 1 18 1.2q10.4.4 20.6.7 2.6 0 5.2.3c3.6-.5 7.5-.9 11.1-.2 2.6.5 4.7 2.3 7 3.6h5c1.9-2 3.5-4.7 6-6a10 10 0 0 1 12.1 2.5q1.6-1 3.5-2c2 .4 4 1.4 6 1.5 4-2 3.6-1.5 7.7-.5 2.3 0 4.6-.7 6.9-1q2.2.1 4.3.9c1.7-.1 3.4-1 5.1-.7 3.6.9 7.4 2 11.2 1.3q3-.5 6-1.3c1-.4 2.3.1 3.4.3q2.6.7 5.2.7c2.4.1 4.6-.8 6.8-1.1 1.3.8 3 0 4.3 0h5.2q3 .1 6-.1 3 .2 6 .8" class="b"/><path d="M9.7 111.7q9 .5 18 .8l19.8.1c1.6 0 3.5.3 5.1 0q3.9-.5 7.7-.4c2.6 0 5.3 0 7.8 1q2 1 4.3 2.1c.8.5 1.7 1.5 2.6 1.9h3.4c.6-.3 1.4-1.5 1.7-2q1.4-2.1 3.5-3.5c2.4-1.7 5.8-2 8.5-1 1.6.6 3 2 4.3 2.8 1.6-.8 3.4-1.8 5.2-1.9q3.8.8 7.7.5c2-.1 4-.6 6-.6 2.3.6 4.6 0 6.9.1 4 .5 8 2 12 2.5 4.2.3 8-1.5 12-2.3 1.7-.4 3.5.5 5.2.5q3.5.3 6.9-.7l.8.3q1.4-.6 2.6-.1 1.7.3 3.5.3c5.7-.3 11.5-.5 17.1.7" class="b"/><path d="M9.7 109.6q14.6.3 29.2 0c4.3-.2 8.6.1 12.9-.3l10.3.2c1.7 0 3.5-.3 5.1 0q2.8.5 5.2 2a9 9 0 0 1 2.6 1.2c.8.6 1.5 1.9 2.5 2.2 1.1 0 2.5.2 3.5-.4 2.4-5 7.4-8 12.9-5.8 1.5.5 2.8 1.9 4.2 2.4 5.4-2.5 11.5-1.9 17.2-1.1 1.7.4 3.5.2 5.2.4q3.4.3 6.9 1.1c3.8 1 7.2 1.6 11.1.3 3.1-1 6.2-2.2 9.5-2.4l3.4.3 5.2-.3c1.7 0 3.4.6 5.1.9 3.4.3 6.9-.4 10.3-.2h5.2q2.6-.4 5.1-.4" class="b"/><path d="M9.7 107.2 25 107l6.9.2q2.2.1 4.3 0c1.4-.4 3 .2 4.3.2l10.3-.1 5.2-.4 9.4.9c1 0 2.4 0 3.4-.3.8-.2 1.8-.7 2.6-.4q3.2 1.1 6 3l2.6 1.6q1.2.9 2.6.9c2.6-5.2 7-8.2 12.9-6 1.5.4 2.8 1.7 4.3 2.3q5-1.6 10.3-1 3.8.3 7.7 1 2.6.6 5.2.8l6 1q3.4.7 6.8-.2c3.7-1.2 7.4-2.8 11.2-3.4 1.4-.3 3 .1 4.3 0 1 .1 2.3-.2 3.4 0 2.5.6 5.1 1.7 7.8 1.6q5-.4 10.3-.4c1.1.1 2.3-.7 3.4-.8q3-.6 6-.5" class="b"/><path d="M9.7 104.9c4.3 0 8.6.6 12.9-.3q4.2 1 8.5 1.1 8.3.5 16.4.4c5.1-.1 10.3-1 15.4-1.4 3.7 0 7.5.7 11.2 0l.9-.1.8.3 3.5 1.5q3 1.4 6 2.5c.5-.4 1.3-1.4 1.7-2q1.5-1.6 3.4-2.6c3.8-1.6 8 .2 11.2 2.3 5.4-1.2 11-.2 16.3.7 4.5.8 9.1 2 13.7 1.7q1.8 0 3.5-.4l5.1-2a27 27 0 0 1 10.4-2q3.6 0 6.8 1.4c1.8 1.1 4 1.1 6 .9q3.9-.3 7.8-.3c1.4-.3 2.8-1.2 4.3-1.5q3.4-.7 6.8-.6" class="b"/><path d="M9.7 103c12.3.6 24.6 2.2 37 2 6.2-.3 12.5-1.6 18.8-2.4q4.7-.2 9.5 0l2.5-.2 1.8-.1q4.6 1.6 9.4 2.8c4.3-5 9.5-3.9 14.6-.8 9-1 17.7 3 26.6 2.3q4-.4 7.8-1.4 5.3-2.4 11.1-2.8a18 18 0 0 1 7.8 1.2c1.1.4 2.2 1.6 3.4 1.7l4.3-.2h6c3.5-2.5 7.9-3 12-2.8" class="b"/><path d="m9.7 101.5 18 1.5c6.5.8 13.2 1.5 19.8.9s13.1-2.5 19.7-3.4q4.4-.2 8.6.4c1.7.1 3.5-.5 5.2-.8l1.7.6c1-.1 2.3-.7 3.4-.5q3 .8 6 1.4c4.4-3.1 8.6-2 13 .4 4.8 0 9.7 1.1 14.5 1.8q7.5 1.1 14.6-.6c3.5-.7 6.9-2 10.3-2.8a18.8 18.8 0 0 1 15.5 3q4.7-.1 9.4.2c3.6-3 8.4-3.6 13-3.5" class="b"/><path d="M9.7 100.2c9.7.8 19.4 2.7 29.2 3 3.6-.2 7.7-.1 11.2-.8 6.6-1.2 13-3.8 19.7-4.2q4-.1 7.7.8 3.1.1 6-1.2a8 8 0 0 1 2.6 1.7q3-1 6-1.7 1.8.1 3.5.5c.8.3 1.8-.3 2.6-.4h2.5q1.8.2 3.5.8c1 .4 2.3 1 3.4 1 5.2.6 10.3 2 15.5 2.2 5 .2 9.8-1 14.6-2.3l6-1.6q2.6-.2 5.1-.2 4.6-.1 8.6 1.8c1.2.5 2.3 1.6 3.5 2q3.4 0 6.8.4 1.6.3 2.6-.8l2.6-1.5c3-1.3 6.3-1.5 9.5-1.5" class="b"/><path d="m9.7 99.5 12 1.6h18.9q4.7-.5 9.5-.8l2.5-.1q2.2-.5 4.3-1.2 4.7-1.5 9.5-2.6c11.6-2.5 11.5 3.4 19.7-1 1.3.7 2.5 2 3.5 3 3-1.3 6.2-2.7 9.4-2.9q2.6.6 5.2.8 3.4.8 6.9 1.4c4.2.8 8.5 1.8 12.8 1.7 6.2-.2 12.1-2.2 18-3.6.8-.3 1.9 0 2.6-.3 1.7-.2 3.5.2 5.2 0 4-.4 8 1.4 11.2 3.8q3.8.7 7.7 1.3c1.3-.3 2.3-1.6 3.4-2q4.8-2.5 10.3-2" class="b"/><path d="M9.7 97.3c2.2.6 4.5 1.7 6.8 1.5h32.7c1 0 2.4 0 3.4-.4 6.2-2 12.4-4.5 19-5.1 1.6 0 3.4-.2 5 .3 2.5.8 5.1 2.1 7.8 1.4 1.5-.3 2.8-1.4 4.3-1.6 1.3.8 2.6 2.3 3.4 3.7l.9.1q4.6-3.1 10.3-4l9.5 2.2a43 43 0 0 0 11.1 1.5c4.4-.2 8.7-1.3 13-2.4 1.9-.4 4-1.2 6-1.3 1-.3 2.3.1 3.4.2h4.2c2.8-.6 5.3.5 7.8 1.6 1.5.6 2.8 2 4.3 2.6 2.2.4 4.5 1.4 6.8 1.2l.9-.2.9-.6a18.5 18.5 0 0 1 11.2-2.8" class="b"/><path d="M9.7 96.5h41.2q1.3-.1 2.6-.7L56 95c4.2-1.4 8.5-3 12.8-3.9q1.8-.3 3.5.2 2.6.3 5.1-.4c5.4 2.3 7.6 3.7 13 0q2 1.4 3.4 3.5c.3.6 1 1.8 1.7 2 2.7-2.8 6.5-4.5 10.3-5.5 16.8 4.8 18.5 4.3 35.2 0 1-.3 2.4.2 3.4.3q2.2.3 4.3.2 2.6-.1 5.2-.5l2.6.8q3.8 1.3 6.8 3.9l2.6.8h6c1.2-.2 2.3-1 3.5-1.4q3.3-1.1 6.9-.9" class="b"/><path d="M9.7 94.2h12.9a67 67 0 0 1 17.1 0H51q4.2-1.7 8.6-2.9 4.6-1.5 9.4-2.6c3.6.6 6.9 1.8 10.3 0 5.7 2.2 7.2 4.2 13 0 2.4 1 3.3 3.9 5 5.5l1.8-.1c2.2-2.7 5.4-4.3 8.6-5.4 1.4 0 2.9.7 4.3 1q3.8 1.2 7.7 1.9 5.6.6 11.2-.6l6-1.4c1.3-.3 2.8-1.1 4.3-1q3.4 1 6.8 1 3.5-.1 7-1c4 .8 7.8 3 11 5.6h10.4q1.3 0 2.6-.3 1.6-.3 3.4 0" class="b"/><path d="M9.7 92c1.4 0 2.9-.6 4.3-.9q3.8-1 7.7-1.5c8.6-.9 17.4-.7 25.8 1.4q1.2.5 2.5.6 2.2-.7 4.3-1.6l8.6-2.3q2.6-.8 5.2-1.3c4.8 1 8.2 3 12.9 0 5.7 2.7 7.2 4.3 12.9 0q2 1.2 3.4 3.3a7 7 0 0 0 1.7 2.2q1.3 0 2.6-.2 2.4-3.1 6-4.7c.8-.3 1.7-.8 2.6-.6 4.2 1.3 8.4 2.8 12.9 2.9q5.1-.1 10.3-1.3l3.4-1.1q1.3-.7 2.6-.4l1.7-.2 5.2 1q3 .6 6-.1 2-.5 4.3-.8a38 38 0 0 1 10.3 4.7q1.1 1 2.5.8h13" class="b"/><path d="M9.7 87.1c7.4-1 14.8-2 22.3-1.6 6.6.2 13.3.6 19.8 2.4 4.7-1.8 9.7-2.6 14.6-3.8 2 0 4 .9 6 1.4 1.9.6 4 1.2 6 .6 1.5-.3 2.8-1.6 4.3-2L86 86c.8.4 1.7 1 2.6.7 1.3-.7 2.9-.7 4.3-.9q1.2-.9 2.6-1.6 2 1.6 3.4 3.5c.3.7 1 1.8 1.7 2h2.6c1.8-2.7 4.7-4.7 7.7-5.6a34 34 0 0 0 19.8 2.1l4.3-1.5c.8-.2 1.8-.6 2.6-.4 1 .4 2.3 0 3.4-.2q4.3.8 8.6 1.4c2 .3 4-.6 6-.9 1.1-.3 2.4-.6 3.5 0q4.4 1.3 8.6 3.2l3.4 1.5a3 3 0 0 0 1.7.4h9.5" class="b"/><path d="M9.7 83.2q8.5-.9 17.2-1a181 181 0 0 1 25.7 2.2l2.6-.7q3-.9 6-1.3c1.4-.2 3-.8 4.3-.5q3.5.7 6.9 1.7c1.6.5 3.4 1.3 5.1 1.2 2.3-.1 4-2 6-3 1.6.3 3 1.5 4.3 2 .9.2 1.8-.5 2.6-.8 1.3-.4 3-.5 4.3-.1.5-.2 1.4-.6 1.7-1 2.4.5 4 3.4 5.2 5.3q1.2.2 2.6.1c1-.4 1.7-1.8 2.5-2.5q2.4-2 5.2-3A35 35 0 0 0 129 84q3-1.2 6-2.2 1.3.2 2.6.6 2-.6 4.3-.7 6 1.1 12 1.3l5.1-1.2c1.2 0 2.4.5 3.5.7l6.9 2q6.3 1.8 12.8.5" class="b"/><path d="M9.7 79.8q8.2-.5 16.3-.3 6.4-.1 12.9.4 6.9.4 13.7 1.3 3.9-1 7.7-1.6c1.7-.3 3.5.3 5.2.5q4.4.8 8.6 2.3c6.3 2.6 6.4-1.5 11.2-2.8 1 .5 2.2 1.4 3.4 1.7 2.3-1.4 5.2-2.2 7.7-1 .4-.3 1.3-.6 1.7-.7 2.2 1.3 3.6 3.7 5.2 5.4q1.4.1 2.6-.3c1.5-2.5 4.1-4.3 6.8-5.2 4.7 1.6 9.7 2.8 14.6 2.3l5.2-2c1.7-.9 3.4.9 5.1.3l5.2-.7q3.4.6 6.9.6 3.4.2 6.8.6l3.5-.8q1.2-.3 2.6-.2a50 50 0 0 0 19.7 1.2" class="b"/><path d="m9.7 77.3 15.4.3c3.7 0 7.5-.4 11.2-.4l10.3.7 5.2.4 2.5-.5q1.8-.5 3.5-.7 1.3.1 2.6.4L68 79q3 .5 6 1.7c2.4.9 4.7 1.7 6.9-.2 1.5-1.2 3.2-2.7 5.1-3.3l2.6 1.5c2.2-1 4.5-2.2 6.9-1.6l1.7.6 1.7-.4c2 1.2 3.7 3.2 5.2 5.1q.8.4 1.7.3c1-.5 1.7-1.9 2.6-2.6q1.9-1.8 4.3-2.7c.8-.3 1.8.2 2.5.4l3.5 1q3.4.8 6.8.7c2-.6 4-1.6 6-2.2q1.4-.1 2.6.5c1.4.6 3 .3 4.3.1l5.2-.6q6.4-.4 12.9.7c1 .1 2.3.4 3.4 0l5.2-.8q3 .2 6 .5 5.5 0 11.1-.5" class="b"/><path d="M9.7 75.4H25c3.7 0 7.5-.5 11.2-.5l8.6.6c2 0 4 .5 6 0l2.6-.6q1.6.1 3.4.5 4.8.7 9.5 1.6 3.5.5 6.8 1.7c2.5 1 5.5 2.4 7.8.2q1.6-1.6 3.4-2.7c.7-.5 1.7-1.2 2.6-1.3l1.7 1c.9.2 1.8-.5 2.6-.8q3.4-1.3 6.9.2l1.7-.3c2.3 1.4 4 3.7 6 5.5h.8a13 13 0 0 1 7-5.6c3.5 1.2 7.3 2.4 11 2.2q3-1.3 6.1-2.2l4.3 1.4 6-.7c3.4-.4 7-.3 10.3-.6 3.5-.3 7 .7 10.3 1a62 62 0 0 1 20.7.1" class="b"/><path d="M9.7 73.3c8-.2 16-.1 24-.7q4.7.4 9.5.6c2 .3 4-.2 6-.5s4 .7 6 1l11.2 1.8q3 .4 6 1.3l3.4 1.3c1.4 0 3 .3 4.3-.2q3.2-2.9 6.9-5.3c.9 0 1.7.7 2.6.9A10 10 0 0 1 99 73l.9-.5c.9.1 1.8.9 2.5 1.5q2.2 1.7 4.3 3.6c1-.5 1.8-1.9 2.6-2.6q2-1.6 4.3-2.5c3 1 6.3 2 9.5 2.2q3-1.2 6-2.2 2.5.8 5.1 1.6l6-.5q6.9-.3 13.8-1 2.6-.3 5.1.3c2.6.2 5.2.8 7.8.9q4.6-.1 9.4.2c2 .2 4 .6 6 .3" class="b"/><path d="M9.7 70.9c6.3-.3 12.6-.2 18.9-.6 3.7 0 7.4.5 11.1.7 2 .2 4-.5 6-.8l4.3 1c2.2.5 4.7.4 7 .7q4.6.6 9.4 1.7 4.3.8 8.5 2.2h5.2c2.6-1.6 4.8-4.3 7.7-5.6.4.3 1.3.7 1.8.8a10 10 0 0 1 9.4 0q.8-.6 1.7-.7c2.4 1.2 4.4 3.5 6.9 4.4q2.3-3.2 6-4.4c2.8.9 5.7 2 8.6 2l5.1-2c2 .3 4 1.3 6 2 5.2-.5 10.4-.6 15.5-1.1l6-.6q2.6-.4 5.2-.1c7.4.8 14.9 1.3 22.3.5" class="b"/><path d="m9.7 68.3 12.9-.3q6.4.2 12.8.7c2 .2 4-.6 6-.8l3.5.7 3.4.7 5.2.2a87 87 0 0 1 19.7 3.1c1.1.2 2.3 1 3.5 1 1.3-.1 3 .2 4.3-.2q3-3.2 6.8-5.4l1.8.6c3.2-1.8 6.1-1 9.4 0l1.7-.6c2.4 1.1 4.5 2.8 6.9 3.9q2.2-2.5 5.2-3.8 1.3.2 2.5.6l4.3 1.1q1.5.3 2.6-.4l2.6-1q1.3-.5 2.6 0l3.4 1.1 1.7.7h3.5q3.8-.2 7.7-.5l11.2-1.2c2.2-.1 4.6-.6 6.8-.4q6.4.5 13 .3c2.5 0 5.1-.5 7.7-.3" class="b"/><path d="M9.7 65.7q10.7.4 21.4 1c2-.2 4-.8 6-1a69 69 0 0 1 7.8 1.5l5.1.1A115 115 0 0 1 73.2 70q1.8.6 3.5 1.3l4.3-.1q3.1-3.1 6.8-5.4l1.8.3c2.7-1.3 6-1 8.6.4.7-.2 1.7-.8 2.5-.8 2.3 1 4.5 2.5 7 3.3 1.3-1.4 3-2.8 5-3.3 2.3.7 4.6 1.8 7 1.7l5-1.7 7.8 2.6q4.4 0 8.6-.2l11.2-1.5q15-1.7 30 0" class="b"/><path d="M9.7 64q8.5.5 17.2.7 3.3-.9 6.8-1.3l3.5.7q2.5.6 5.1 1l5.2.2q6.8 0 13.7.5 6 .7 12 1.8 1.8.5 3.5 1.3H81q3-3.2 6.8-5.4l1.8.2a9 9 0 0 1 7.7.6q1.3-.4 2.6-1c1.7.5 3.4 1.5 5.1 2.2q1.3.6 2.6.5c1.2-1 2.7-2.2 4.3-2.6q3 1 6 1.7l5.2-1.6c2 .1 4 1.2 6 1.7 1.6.5 3.4 1.4 5.1 1.4 7 0 13.7-2 20.6-2.5a129 129 0 0 1 27.5.8" class="b"/><path d="M9.7 62.6q6.4.4 12.9.3c2.8-.5 5.6-1.6 8.5-1.7q4.4.8 8.6 2h9.5A147 147 0 0 1 74 65.5l2.6 1.1c1.3.2 3 .3 4.3 0 2-2 4.3-4.1 6.8-5.4 1.2.4 2.4 0 3.5-.2q2.7-.1 5.1 1.1c1.1-.2 2.3-1.1 3.5-.8q3.3 1.4 6.8 2.4c1.3-1 2.7-2.3 4.3-2.5q2.6 1 5.2 1.7 3-1 6-1.7c4.3 1.2 8.5 2.8 12.9 3.6 3.2 0 6.3-.8 9.4-1.5q4.7-1 9.5-1.5c9.4-.8 19 .2 28.3 1.4" class="b"/><path d="M9.7 61.3q4.6.3 9.4.2 4.7-1.6 9.5-2.6c3.4.3 6.9 1.6 10.3 2.4h8.6Q57.7 61 68 62q3 0 6 1c1.1.3 2.3 1 3.4 1.3 1.1 0 2.5.2 3.5-.5 2-1.9 4.2-4 6.9-5.1 1.3.6 2.9-.2 4.2 0 1.2 0 2.4.8 3.5.8.4 0 1.3-.4 1.7-.5 1-.6 2.4.1 3.4.5q2.6 1 5.2 1.4a19 19 0 0 1 3.4-2.2c1.8.3 3.5 1.4 5.2 1.8l6-1.7c1.4 0 3 .6 4.3 1l6.9 1.8q3 .8 6 .8l3.4-.8c4-1 8-2.2 12-2.4 9.8-.8 19.6.7 29.3 1.8" class="b"/><path d="M9.7 60.3h6c2.6-.7 5.1-2 7.7-2.6 1.7-.4 3.5-1.2 5.2-1.1 3.4.7 6.8 2 10.3 2.8l5.1-.1q9.9-.4 19.8.2c2.5.2 5.2.1 7.7.5q2.7.6 5.2 1.8c1 .5 2.3.2 3.4.3 2.4-2 4.7-4.6 7.7-5.6 1 .5 2.4.1 3.5.2l2.6.6 3.4-.9 4.3 1.4c1 .3 2.3.8 3.4.6 1-.7 2.2-1.8 3.5-1.8q2 1 4.3 1.7 2.5-.5 5.1-1.3c1-.3 2.4-.6 3.4-.2q4.8 1.3 9.5 2.4 3.8 1 7.7.8l4.3-1.4c12.8-4.4 26.5-.8 39.5.4" class="b"/><path d="M9.7 59.7c1.6 0 3.7.4 5.1-.6a54 54 0 0 1 12.9-5c3.5.7 7 2 10.3 3 1.3.6 3 .3 4.3.3L50 57c5.5-.2 11 .2 16.4.2q5-.1 9.4 1.7 1 1 2.6.8c.4 0 1.3-.1 1.7-.3l2.6-2.3q2.3-2.1 5.1-3 3.9 1.2 7.8 0c2.6.4 5 1.5 7.7 2 1.2-.6 2.2-1.7 3.4-2q2.2 1 4.3 1.9c2.9-.4 5.7-1.5 8.6-1.8l8.6 2q5.2 1.3 10.3 1l4.3-1.5q3.8-1.3 7.7-1.7 3.9.4 7.8.3c8-.7 16 2 24 2.3" class="b"/><path d="M9.7 57.5c1.6-.1 3.5.2 5.1-.2a38 38 0 0 1 10.3-4.6c1.5-.5 2.8-1 4.3-.4l6.9 2c1.4.4 2.8 1.2 4.3 1.2l6.8-.4q6.9-.2 13.8-.2c3.4 0 7-.4 10.3.3 1.8.3 3.8.9 5.2 2.3h2.5c2.7-2.1 5.2-4.9 8.6-5.6l2.6.3q1.7 0 3.4-.4c3 .4 5.7 1.7 8.6 1.9l2.6-1.8c1.5.4 2.9 1.4 4.3 2q4.4-.8 8.6-1.8c1.4-.5 3 .3 4.3.5q3.9 1 7.7 1.6 2.6.6 5.2.6c1.4 0 3 .1 4.3-.6q3.6-1.7 7.7-2.3 4.2.8 8.6.8l6-.4c1.4 0 3-.6 4.3-.3 5.4.8 10.8 2.3 16.3 2.4" class="b"/><path d="M9.7 55.2h5.1l3.5-2a47 47 0 0 1 9.4-3.5q1.3.1 2.6.5 5.5 1.6 11.2 3.4l6.8-.5c4.3-.4 8.6-.3 13-.5 4-.4 8-.5 12 .5 1.2.3 2.3 1.4 3.4 2q1.3.1 2.6-.1c3.9-3.7 6.4-5.6 12-5.4 3.2 0 6.3 1.3 9.5 1.8.8-.3 1.7-1.2 2.5-1.6q.9-.1 1.8.4l2.5 1.4c3.2-.2 6.4-1.1 9.5-1.8 1.7-.5 3.5.3 5.1.6l7.8 1.5q3.4.5 6.8.2c2-.6 4-1.6 6-2.2q1.8-.4 3.5.2c6.7 1.8 13.8.6 20.6-.4 5.2.5 10.2 2.4 15.5 2.3" class="b"/><path d="M9.7 52.9h5.1q3.2-2.2 6.9-3.6c2.2-.7 4.5-1.8 6.9-1.9q5.6 1.4 11.1 3.2l2.6.8 5.2-.3 10.3-.7c5-.4 10.4-1.3 15.4.3l1.8 1q.5.9 1.7 1.2c.8 0 1.9.1 2.5-.5q1.6-1.5 3.5-2.8c5.1-3.7 11.5-1.3 17.2-.5q1.2-1 2.5-1.8c4 2 3.3 2.4 7.8 1.5l7.7-1.5 4.3.7c4.5 1 9.1 2 13.7 1.6l4.3-1.9c1.7-.8 3.5.4 5.2.8q3.4 1 6.9 1c5.8.3 11.4-1.4 17.1-2.1 4.3.8 8.6 2.2 13 2.2" class="b"/><path d="M9.7 50.6H14c4-3 8.9-4.5 13.7-5.6 1.7.2 3.5 1 5.2 1.4l6.8 1.8q2.2.7 4.3 1.1l6.9-.7q5.2-.4 10.3-1 3.9-.6 7.7-.3c2.7 0 5.4 1 7 3.3h2.5c6.4-5.6 9-5.5 17.2-4.3 1 .1 2.3.6 3.4.3.7-.6 1.6-1.5 2.6-1.4q1.6 1 3.4 1.8 4.8-.3 9.5-1.4 1.6-.4 3.4-.6l4.3.7c4 .8 8 1.6 12 1.4 1.7-.6 3.4-1.7 5.2-2 3 1.1 6.2 2.4 9.4 2.9 7.6 1 15-1.6 22.4-3 3.6.9 7.3 2 11.1 2.1" class="b"/><path d="M9.7 48.3h2.6q1.3-.6 2.5-1.4 2.5-1.4 5.2-2.3 3.8-1.4 7.7-2 5.1 1.6 10.3 2.8 3.4 1 6.9 1.6l6.9-.8c5.1-.5 10.2-1.9 15.4-1.7 3.4 0 6.6.8 8.6 3.8h2.6q2-1.7 4.3-3.2c3.1-1.7 6.9-1.4 10.3-1.1l4.3.4c.9-.2 1.8-1.1 2.6-1.6 1.2 0 2.3 1.1 3.4 1.7q2.2.3 4.3-.2l6.9-1.2q1.6-.4 3.4-.5l3.5.7q5.5 1.1 11.1 1.3c1.5-.4 2.9-1.4 4.3-1.8 1.5.2 3 1.1 4.3 1.6q3 1.3 6 2c7 .8 14-.8 20.6-2.4q2.6-.7 5.2-1.3c3 .7 6.2 1.7 9.4 2" class="b"/><path d="M9.7 46q1.5 0 2.6-.8 1.6-1 3.4-1.8 5.3-2.2 11.2-3.1 6 1.7 12 3 3 .8 6 1.3 3.4-.3 6.9-.9c4.8-.6 9.7-1.9 14.6-1.9 3.7-.1 7.3.8 9.4 4 1.4.3 3.3.5 4.3-.7a12 12 0 0 1 6-3q3.9-.3 7.8 0l2.5.1q1.4-.5 2.6-1.6h.9c2.7 1.7 2.6 2 6 1.5q4.7-.6 9.4-1.4c2-.5 4 0 6 .3q5.2.8 10.4 1.2 1.6-1 3.4-1.7c3.5 1 6.6 3.4 10.3 4 3.1.5 6.3.1 9.5-.2a84 84 0 0 0 15.4-3c1.4-.2 2.9-1 4.3-.8q3.8 1 7.7 1.8" class="b"/><path d="M9.7 43.4c4.9-3 10.6-4.8 16.3-5.4q6.4 1.7 12.9 3.1c2.2.4 4.6 1 6.8 1l4.3-.7c6.3-.9 12.6-2.7 19-2.2q2.9.3 5 2c1 .7 1.8 1.9 2.7 2.5h2.5c1.8-.7 3.2-2.5 5.2-3 3.9-1.2 8-.4 12-.8L99 38c1.4.6 2.7 2.1 4.3 1.8q4.7-.3 9.4-1.1c2.3-.3 4.7-.9 7-.4l7.6 1q1.8.3 3.5.2l1.7-1c1.5-1 3 .3 4.3 1 2.2 1 4.5 2.3 6.9 2.8 2.8.6 5.7.2 8.6-.2 5.1-.6 10.4-.7 15.4-2.1 9.9-2.7 5-2.3 14.6-.1" class="b"/><path d="M9.7 40q6.5-3 13.7-4.2c1.1-.4 2.4 0 3.5.3l3.4.9q5.5 1.5 11.2 2.3 2 .3 4.3.3l5.1-1c5.1-.8 10.3-2.1 15.5-2.3q4.2-.3 7.7 2l1.7 1.6.9 1.1a3 3 0 0 0 1.7.4q1.4 0 2.6-.2 1.5-1.4 3.4-2.1C88 37.9 92 38 95.6 37.9c1.1-.6 2.1-1.8 3.4-2 1.1.6 2.3 1.6 3.5 1.8l1.7-.1 8.6-1c2.5-.4 5.2-1 7.7-.4q4.4.6 8.6 1c1.2 0 2.3-1 3.4-1.4 9.3 4.4 9 5.8 19.8 4 4-.6 8-.6 12-1.3q5.7-1 11.2-2.8 3.5 1 6.9 2" class="b"/><path d="M9.7 37q6.2-2.7 12.9-3.6 1.2-.3 2.5.2l3.5.9a117 117 0 0 0 16.3 2.7l4.3-.8L62 34c6-1 11.7-.7 15.4 4.8 1.3.6 3 .2 4.3.3 3.8-3 9.1-3 13.8-3.4 1-.8 2.1-1.8 3.4-2.1 1.1.5 2.3 1.4 3.4 1.7l4.3-.3 10.4-1.3q2-.2 4.3.1l6.8 1c1.2 0 2.3-1.1 3.5-1.3 4 2 8.1 5 12.9 4.8 2.8-.1 5.7-.9 8.6-1.2q5.2-.4 10.3-.8 6-.9 12-2.8 1.3 0 2.6.6l4.3 1.2" class="b"/><path d="M9.7 33.9q6-2 12-3c5.2.9 10.3 2.5 15.5 3.1q3.8.6 7.7.6l4.3-.8q7.2-1.5 14.6-2.7 3 .6 6 .3c2.2-.5 4.3 1 6 2.1 1.3.8 2.2 2.5 3.5 3.3h4.3q1.2-1 2.5-1.5 4.6-1.4 9.5-1.7 1.6-1.4 3.4-2.3c1.8.4 3.3 2.1 5.2 1.6l12-1.4c2.9-.5 5.8 0 8.6.4 1.4.2 3 .9 4.3-.1q1.2-.9 2.6 0l2.5 1.3c3.9 2.2 7.6 3.8 12 2.7q3.5-.7 7-1.1l4.2-1 6-.2q1.8.2 3.5-.1c3.2-.5 6.3-1.6 9.4-2.2q3 .9 6 1.9" class="b"/><path d="M9.7 30.8q5-1.4 10.3-2.1c5.4.7 10.8 2.3 16.3 2.9q4.3.6 8.6.5l5.1-1q5.6-1.2 11.2-2.2c2.3.1 4.6.8 6.9.8 1.7.1 3.5-.5 5.1-.7q4.2 1.7 6.9 5.3c1.6.5 3.5.2 5.2.2q2-1.3 4.3-1.8 3-.8 6-1.2 2-1.5 4.3-2.6l3.4 1.6q1.7.2 3.4-.2l9.5-1q1.6-.3 3.4-.4l3.5.4c1.4.1 2.9.7 4.3.5q.8-.6 1.7-.8c1.2 0 2.4 1 3.4 1.4 2.2 1.1 4.5 2.4 6.9 3 3.4 1 7 0 10.3-.7q3-1.4 6-1.7a65 65 0 0 1 8.6-.5c1.7-.1 3.5.4 5.2 0l6.8-1.7q3 .9 6 2" class="b"/><path d="M9.7 27.8q4.2-.9 8.6-1.5 8 1.7 16.3 2.8 5.2.6 10.3.4l7.7-1.5L57 27q1.7-.5 3.5-.4c3.3.5 6.8 1.7 10.3 1.1 1.4-.1 2.9-.8 4.3-1q3 1.2 5.1 3.4c1.7 1.5 1.8 2.3 4.3 2H87a20 20 0 0 1 4.3-1.7l4.3-1c1.7-.8 3.3-2.1 5.1-2.8 1.5.2 2.9 1.1 4.3 1.5l12-1.4 2.6-.3q1.8.1 3.5.4c1 .1 2.3.6 3.4.3l1.7-.6c7.2 3 10.7 6.5 19 4.3q3.1-1.8 6.8-2.4 8.2-1.2 16.3-.6c7-1.4 4.8-2.1 12 .6" class="b"/><path d="m9.7 24.8 5.1-.7q3.9.4 7.8 1.1Q30.2 26.7 38 27l7.7-.2 12-2.3c1.8-.3 3.6.5 5.2.8 5.7 1.5 8.4 1.4 13.8-.9 2.2.8 4 2.5 6 4 .7.5 1.6 1.5 2.6 1.5h3.4c1.4-.4 2.8-1.3 4.3-1.6l3.4-1q3-1.7 6-3l4.3 1.4 11.2-1.3c2.3-.5 4.6.1 6.9.5l1.7-.5q1.3.1 2.6.7c4.9 2.1 9.9 5.2 15.4 4q1.4-.3 2.6-1.2l3.5-1.4q8.8-1.7 18-1.4c1 0 2.4.2 3.4.1l4.3-1q3 .8 6 2" class="b"/><path d="M9.7 21.9c7.2.5 14.3 2 21.4 2.4 4.6.3 9.2 0 13.8 0 2.9-.1 5.7-1 8.6-1.4q2-.6 4.3-.8l4.3 1c6.8 2 9.7 2.4 16.3-1 .9 0 1.8.7 2.6 1.2l4.3 2.7 2.5 1.5q1.3.2 2.6.1c1.2-.1 2.3-1 3.5-1.3 1.3-.5 3-.8 4.2-1.6 2.2-1 4.5-2.2 7-2.6l2.5.6c1.7.6 3.5.2 5.2 0 2.5-.2 5.1-.9 7.7-.8 1 0 2.3.4 3.4.3.4-.1 1.3-.2 1.7 0q4.4 1.3 8.6 3.2 5 2.3 10.3 1.2 2.2-1.2 4.3-2.2 2.2-.6 4.3-.9 9-1.1 18-.9 2.3.1 4.4-.5c.7-.3 1.8 0 2.5.2l4.3 1.5" class="b"/><path d="M9.7 20.6C16.8 20.9 24 22 31 22q5.3 0 10.4-.3c3.4-.2 6.9-.2 10.3-1l5.1-1q3 .6 6 1.4c5 1.7 8.7 2.9 13.8.4 1.4-.5 2.8-1.5 4.3-1.8l6 3.3c1.8 1 3.9 2 6 1.7q1.3-.1 2.6-.9c2.6-.7 5.1-2 7.7-2.8 1.9-.5 4-1.6 6-1.2q2.2.4 4.3.4l6-.8q1.7.2 3.5.3l6 1.6q3 1.2 6 2.2 4.6 1.6 9.4.6c2.5-1.9 5.6-2.6 8.6-3q9-1.1 18-1 2.2.1 4.3-.5c2.4 0 4.7 1 7 1.8" class="b"/><path d="M9.7 19.7c6 0 12 .4 18 .3Q39 19.5 50 18.6c2.3-.2 4.6-.9 7-1.2l6 1.5c9.3 3.4 10.8 3.3 19.7-1.4 1.2.1 2.3 1 3.4 1.5q3 1.6 6 2.6 2.6.5 5.2 0 1.6-.7 3.4-1 6-2.1 12-2.9l3.5-.1q1.6-.2 3.4-.4l6 1q2.7.6 5.2 1.7 2 1.1 4.3 1.5 4.6 1.3 9.4.3c2.3-1.6 5.1-2.2 7.8-2.7q8.5-1.2 17.1-1 3-.1 6-.6 3.5.6 7 1.5" class="b"/><path d="M9.7 16.8q4.2 1 8.6 1.8 4.3-.2 8.5-.6l19.8-1.8c3.4-.5 7-.2 10.3-1q1.8 0 3.5.6l2.5.3q4 .9 7.8 2.7c5.2 1.7 10-1.7 14.6-3.7 4.1 1.6 8.2 4.4 12.9 4.2q8-2.4 16.3-3.7l4.3-.6q4.8.3 9.4 1.9 2.3.7 4.3 1.8l2.6.5q4.6.8 9.4 0 1.4-.5 2.6-1 3-1 6-1.4c5.1-.8 10.3-.8 15.5-1l6-.7q3.8.8 7.7 1.2" class="b"/></svg>