<svg xmlns="http://www.w3.org/2000/svg" id="a" width="1920" height="2400" viewBox="0 0 192 240"><defs><style>.b{fill:none;stroke:#fff;stroke-miterlimit:10;stroke-width:.3px}</style></defs><path d="M0 0h192v240H0z" style="stroke-width:0"/><path d="M10 223.7q6-1 12-1.7l6.9-.6 3.4-1.4q1.3.3 2.6 1l4.2-.3 9.5-.7c3-.2 6.2.3 9.4.3q3-.8 6-1.2 10.6-1.2 21.3-.4a46 46 0 0 1 18.9 6.5c1 .6 2.3.3 3.4.4h4.3c1.3-.1 3 .2 4.2-.4q3.4-1.5 6.9-2.1 5-1 10.2-.5c2 0 4 .9 6 .5a61 61 0 0 1 14.6.6c1 .3 2.4.6 3.4 0 7.8-3.7 16.5-2.4 24.8-2.4" class="b"/><path d="M10 222.8q6-1.4 12-2.3l4.3-.4 6-2.3c1.5.2 2.8 1.2 4.3 1.5l3.4-.3a208 208 0 0 1 18-1q3.7-.8 7.7-1.3c6.8-.4 13.7-.9 20.5-.1 6.6.9 13.3 2.8 18.8 6.6q6 .1 12 0 3.3-1 6.8-1.6 2.6-.3 5.1-.2 1.8.2 3.5 0 9.8-1.5 19.6.4c9.3-5 20-2.8 30-2.4" class="b"/><path d="M10 221c3.3.2 6.3-1.3 9.5-1.7l4.2-.7a90 90 0 0 1 8.6-3.2q2.2.8 4.3 2c3.4 0 6.8-.6 10.2-.7l6.9-.3q2.2.1 4.3-.5c5.2-1.5 10.8-1.6 16.2-1.9 6-.2 12.1 0 18 1.5 4 .9 7.9 3 12 3.9 8 2.3 16.5.7 24.7-.4q10-1.3 19.7.3c11-5.5 21.7-2.7 33.4-2" class="b"/><path d="M10 218.7c1.5.1 3-.4 4.3-.6q4.8-.5 9.5-2.1l5-2c2.3-.8 3-1.2 5.2 0 1.1.4 2.3 1.2 3.4 1.5l5.2-.4q5.1-.5 10.2-.5 2.3 0 4.3-.7l5.1-1.2c8-.8 16-1.5 24-.5l5.1 1q1-.2 1.7 0c4.5 1.2 9 2.8 13.7 3.6 6 1 12 .5 18-.2a87 87 0 0 1 21.3.1c.5 0 1.4-.4 1.7-.6 10.9-5 23-1.8 34.3-.8" class="b"/><path d="M10 216.3q3.8-1.3 7.8-1.6 3-.5 6-1.4l5-1.7c1.8-.7 2.6-1 4.4-.1 1.4.4 2.7 1.6 4.2 1.8q7.7-.6 15.4-.7c1.2.1 2.4-.4 3.5-.7q2.5-.8 5-1.3c6.9-.7 13.8-1.3 20.6-1a49 49 0 0 1 9.4 1.6q1.3 0 2.6-.4 5.6 1.6 11.1 2.7c7.3 1.4 14.9.6 22.2 0q8.6-.9 17.1.5c1.2 0 2.4-.8 3.5-1.2q2.9-1.1 6-1.6c9.4-1.4 18.8 1 28.2 1.7" class="b"/><path d="M10 213.4a30 30 0 0 1 7.8-1.5q3.5-.6 6.8-1.6 3-1 6-1.7l2.6.9c1.4.4 2.7 1.7 4.2 1.4l14.6-.3q1.8 0 3.4-.7l4.3-1.2q9.3-1.3 18.8-1.2 6.5 0 12.8 1.8 1.8-.1 3.4-.7 1.8.2 3.5.7 8 2 16.2 2 7-.2 13.7-.8a69 69 0 0 1 15.4.8c1.4 0 2.9-1.1 4.3-1.5q3.3-1.2 6.8-1.4c9.2-1 18.3 1.4 27.4 2" class="b"/><path d="M10 210.4c3-1 6.3-1 9.5-1.6q3.4-.6 6.8-1.6 1.6-.6 3.4-.8l3.4 1.1q1.3.7 2.6 1h17.1q3-1 6-1.7 7.7-1.2 15.4-1.4 6.6-.2 12.8 1.1l4.3 1q2.5-.8 5.2-1.1a70 70 0 0 0 16.2 2c5.1.2 10.3-.5 15.4-.7q7.7-.4 15.4 1 5.3-2.4 11.1-3c9.2-.8 18.2 1.5 27.4 1.9" class="b"/><path d="M10 207.5c2.8-.9 5.8-1 8.6-1.3q4.8-.8 9.4-2.1c2 .1 4 1.3 6 1.7h5.1l8.6.4 4.3.2c.8 0 1.8-.5 2.5-.7 4.4-1.4 9.2-1.5 13.7-2 7.5-.7 15.1-.4 22.2 2 8-2.5 6-1.5 13.7-.5q7.7.9 15.4.2 8.2-.8 16.3-.5a63 63 0 0 1 7.7 1c.8 0 1.8-.6 2.5-.9 11.6-4.3 24-.5 36-.4" class="b"/><path d="M10 204.6c2.6-.7 5.2-.7 7.8-1 3.1-.4 6.3-1.3 9.4-1.8q2.2.5 4.3 1.3h4.2l12.9 1c1.3 0 2.9.4 4.2 0q3.4-1 6.9-1.5c5.6-.5 11.4-1.2 17-1 4.5 0 8.7 1.2 13 2.4 2.7-.9 5.6-1.9 8.5-2.2q7.1 1.4 14.5 1.1c10.5-.3 21.2-2 31.6.3 12-5.3 25.2-1.3 37.7-1.6" class="b"/><path d="M10 201.5q3.9-.4 7.8-1 3.8-.1 7.7-1 1.6.2 3.4.8l4.3.1q5.6.3 11 1l7.8.8c1.7-.3 3.4-1 5.1-1q5.6-.9 11.1-1.1c6.6-.7 13.6-.5 19.7 2.4 3.6-1.2 7.3-2.6 11.1-3q6 .9 12 .7c4.3 0 8.6-.5 12.8-.7l7.7.2 6-.3q4 .3 7.7 1.1a38 38 0 0 1 17.1-2.5c6.6.2 13.1.8 19.7.7" class="b"/><path d="M10 198.3q4.7-.5 9.5-.9c1.3-.2 2.9.1 4.2-.2q4.7.4 9.5.6 8.6.7 17 2.1 1.3.3 2.6.2a25 25 0 0 1 6-1q4.7-.4 9.4-.6 4.4-.5 8.6-.3a26 26 0 0 1 8.5 2.2q1.4.8 2.6 0 5.8-2.3 12-3.2 6.8.6 13.7.2l5-.3q6.4.7 13 .8 4.2 0 8.5-.6c2-.5 4 .1 6 .5a39 39 0 0 1 17-2.4q9.5.5 18.9.4" class="b"/><path d="M10 195.3a51 51 0 0 1 9.5-.3c1.4.3 2.9-.3 4.2 0 2 .1 4-.2 6-.1q9 .7 18 2.5 2.6.6 5.1 1 3.4-.7 6.9-.9l8.5-.4q3.8-.6 7.7-.3 3 .2 6 1.4c1.1.4 2.3 1.2 3.4 1.4 6.4-3.1 13.5-5.1 20.6-4.6l6.8-.3 15.4 1.4a55 55 0 0 0 16.2-1.3q1.3.1 2.6.4c5-2.3 10.8-2.3 16.2-2.3q9.4.2 18.9.1" class="b"/><path d="M10 193c2.3.1 4.7.5 6.9.2l4.3-.6q1.6.2 3.4.7c2.8 0 5.7-.6 8.6-.7l3.4.5q8.3 1.3 16.2 3.7 5.2-.5 10.3-.6 4.7-.1 9.4-.7 4.6-.1 8.5 1.8c2.3 1.3 3 1 5.2-.2q7.2-3.6 15.4-4.2c9.7-1 19.4 1.2 29 1.7a46 46 0 0 0 14.6-1.7c.7-.2 1.8-.5 2.5-.2 4.5-2.1 9.7-2.1 14.6-2.3q9.8.1 19.7 0" class="b"/><path d="M10 191.5c3.5 0 7-1 10.3-1.2l3.4.8c.8.1 1.8.5 2.6.3l7.7-1q2.2 0 4.3.6a87 87 0 0 1 15.4 4.7q4.3-.3 8.5-.2l6-.1q2.6-.5 5.1-.7 2.8.2 5.2 1.1h6l2.5-1.2q2.5-1.3 5.2-2 7-2.2 14.5-2c10.6 0 21 3.5 31.6 2 3.5-.5 7-1.6 10.3-2.4q2.9-1.4 6-1.7c9-1 18.3-.4 27.4-.6" class="b"/><path d="M10 189.2q4.4-.5 8.6-1.2c2.6.3 5.1 1.1 7.7 1.6l6-1.1 2.6-.5q1.3.1 2.5.5a73 73 0 0 1 12.9 4.3c.7.3 1.7.9 2.5.7h31.7c.8 0 1.8-.7 2.5-1l4.3-1.9c5.8-2 12-2.3 18-2 10.5.6 21.1 4.4 31.6 1.8l6.9-1.9q3.2-1.7 6.8-2.3 6.4-.7 12.8-.6H182" class="b"/><path d="m10 186.9 7.8-1.2a79 79 0 0 1 8.5 2q3.5-.7 6.8-1.5 1.3-.4 2.6-.4a60 60 0 0 1 13.7 5.1q1.2.6 2.6.4h32.5a46 46 0 0 1 28.2-4.4l7.7 1.1q3.9.3 7.7.6 2.2.3 4.3 1 5.6 0 11-1.7l4.4-1.4q3.1-1.8 6.8-2.5 6.4-.9 12.8-.7H182" class="b"/><path d="m10 184.6 6.9-1.2q4.7.9 9.4 2.1 1.8-.1 3.4-.7 2.6-.7 5.2-1.3c4.8.8 9.4 3 13.6 5.5H81c1 .2 1.9-.4 2.6-.8a39 39 0 0 1 18.8-4q8.3 0 16.3 1.5 4.3.4 8.5.5 3 .2 6 1c1.3.7 3 .4 4.3.2q5.3-.9 10.3-3c2-1 4.4-2.2 6.8-2.6 4.2-.8 8.6-.7 12.8-.7H182" class="b"/><path d="m10 182.3 6-1.2 6 1.3c5.6 1.3 4 1.4 9.5-.3l3.4-1q2.6.6 5.1 1.7 2.6 1 5.1 2.5 1.2.8 2.6 1.4h31.6c1.8-.4 3.5-1.4 5.2-2a42 42 0 0 1 19.6-2.8c5.5 0 11 1 16.3 1.9 3.4.2 6.9 0 10.2.5q2.3.3 4.3 1.2 2.2 0 4.3-.5 4.5-1.1 8.6-2.8c.8-.2 1.8-1 2.5-1.3q2.5-1.2 5.2-1.5c4.2-.7 8.5-.6 12.8-.6q6.8 0 13.7 0" class="b"/><path d="m10 180 5.2-1.1c4 .5 8 2 12 2.4l7.7-2.5q6.3 1.9 12 5.6h11.9l5.1-.6q3.5-.3 6.9.6h6c2 0 4-1.1 6-1.8a46 46 0 0 1 19.6-3.1q4.7 0 9.4.6 4 .4 7.7 1.2 3 .6 6 .6t6 .5c1.1.2 2.3.8 3.4.8 4.8-.4 9.3-2.2 13.7-3.8q2.5-1.5 5.1-2c4.2-1 8.6-.8 12.9-.9H182" class="b"/><path d="M10 177.6c1.7-.3 3.5-1 5.2-.9l7.7 1.7c1.4.3 2.9.9 4.3.9q3.7-1.6 7.7-2.7 6.1 1.6 11 5.2 1.3.5 2.7.4H57q3.4-.5 6.9-.8 2.1 0 4.2.2 2.2.6 4.3.6c2.3-.2 4.7.3 6.9-.5 4.4-1.7 8.9-3.5 13.6-4 4.3-.4 8.6-.9 12.9-.7 6 .2 12 1.4 18 2.5 9.6 2 14.8.9 23.9-2.4 2-.6 3.9-1.8 6-2.1 4.5-.8 9.1-.7 13.6-.8H182" class="b"/><path d="M10 175.2c1.4-.3 3-.9 4.3-.8l12 2.8q1.3-.1 2.6-.7l4.3-1.6q1.2-.5 2.5-.5 6 2 11.2 5.4c5.7 0 11.4.2 17-.2q7.4.4 14.6.3 1.9-.2 3.4-1L87 177q3-.8 6-1.4 3.8-1 7.7-1.3c6.3-.4 12.7.5 18.8 1.6 4.6.8 9.1 1.9 13.7 1.8 5.7 0 11-2.2 16.3-3.6q2.8-1.3 6-1.7c4.2-.5 8.5-.4 12.8-.5q6.8-.1 13.7.1" class="b"/><path d="m10 172.7 2.6-.6q2.2.2 4.3.8l9.4 2.4c3.1-1 6.2-2.4 9.4-3.3q6.5 1.8 12 5.6h33.4q1.3 0 2.5-.8 2.2-1.1 4.3-2 3.3-1.5 6.8-2.3 2.2-.7 4.3-.4 4.7.5 9.4.3c2 0 4-.6 6-.2 6 .8 12 2.4 18 2.8q4.7 0 9.4-1.2c2.5-.5 5-1.6 7.7-1.8q2.8-1.5 6-1.7c4.2-.6 8.5-.5 12.8-.6q6.9-.1 13.7.2" class="b"/><path d="M10 170.2q1.3-.4 2.6-.3l4.3 1 9.4 2.6a66 66 0 0 1 10.3-3.8 58 58 0 0 1 12 5q.7.6 1.7.6h23.9c2-.1 4.1.2 6-.2q5.5-2.4 11.1-4.4c1.4-.4 2.9-1 4.3-1q3.4.7 6.8 1.1c4.6.5 9.2-.2 13.7-.8q1.8-.4 3.4 0l5.2 1c4.7 1 9.7 1.7 14.5.8q3.5-.6 6.9-1.5c1-.2 2.3-.7 3.4-.5q3.3-1.3 6.8-1.7 6.4-.6 12.8-.6 6.5-.2 12.9.4" class="b"/><path d="M10 167.6q1.4-.3 2.6.3a190 190 0 0 1 12.9 3.7c.8.2 1.8-.4 2.5-.8a84 84 0 0 1 9.4-3.3c1.2 0 2.4.6 3.5.9q6 2 12 4.6h19.6c2.3 0 4.6-.8 6.8-1.3 4.7-1.1 9.1-3 13.7-4.2q1.3 0 2.6.4l4.3 1q6.8 1.6 13.7 0l6-1q1.2-.3 2.5-.4l2.6.5q4.5 1 9.4 1.4 4.3.1 8.5-.8c2.6-.4 5.2-1.4 7.7-1a26 26 0 0 1 7.7-1.8q6-.4 12-.4c4 0 8 0 12 .9" class="b"/><path d="M10 165.3a131 131 0 0 1 15.5 4.8c1.7-.5 3.4-1.6 5-2.2q4.3-1.6 8.6-2.7c7.5 1.4 14.6 4.8 22.3 5.1 4.6.3 9-1 13.6-1.5q5.3-.6 10.3-1.9c2.3-.5 4.5-1.5 6.8-1.7 4 1 8 2.7 12 3.2 2.3 0 4.6.7 6.9.3 5.1-.8 10.1-3.1 15.3-3.5q4 .8 7.7 1.4c5 .4 9.8-.7 14.6-1.5l2.5.3 1.8-.6 5-.9q6-.5 12-.5 6.1-.2 12 1.6" class="b"/><path d="M10 163.4q7.6 2 14.6 5 1.4 0 2.6-.7a52 52 0 0 1 14.5-4.8l9.4 2q7.2 1.5 14.6 1 3.3-.1 6.8-.5 3.9-.2 7.7-.6 3.5-.3 6.8-1.2c1.4-.2 3-1 4.3-.5q5.7 1.7 11.1 3.9c1 .4 2.4.1 3.5.2q2.7 0 5 .8c1.2.5 2.5 0 3.5-.4l4.3-1.5q3.7-1.6 7.7-2.6c1.3-.3 2.9-.9 4.3-.4q5.5 1.2 11 .6l6-.7q1.8-.3 3.5.2 1.3.1 2.6-.4 1.6-.4 3.4-.6 7.6-1.1 15.4-.4 3 .3 6 1.1c1 .4 2.2 1 3.4.9" class="b"/><path d="M10 161.7a95 95 0 0 1 12 4.4h4.3c.9.2 1.8-.5 2.6-.8l4.3-1.8q5.8-2 12-3 5.4.9 11 1.5 8.2.6 16.3 0 4.2 0 8.6-.2a52 52 0 0 0 7.6-1.2q1.4.1 2.6.5 6 1.6 11.1 4.6 1.2.6 2.6.4h12.8c1.5 0 3-1.3 4.3-1.8q4-2.2 8.6-3.4c.7-.1 1.7-.5 2.5-.3a36 36 0 0 0 12.9.2c2.5-.5 5.1.2 7.7.2a49 49 0 0 1 23 .6h5.2" class="b"/><path d="m10 160.1 6.9 2.5c1.1.4 2.2 1.3 3.4 1.2h6c1.1 0 2.5.3 3.4-.4 6.5-3 13.6-4.3 20.6-5 3-.2 6.2.4 9.4.4q6.3.2 12.8.3c4.8.1 9.7.3 14.5-.6q1.8-.3 3.5.2 2.7.7 5 1.6c9 3.7 3.2 3.7 13.8 3.6H122q1-.1 1.7-.8l3.4-2c2.7-1.3 5.6-2.6 8.6-3q2.5.5 5.1.5 3.4 0 6.8-.4l6 .6q2.6.2 5.2-.3 2.5-.2 5-.2 4.5.1 8.6 1 4.7.2 9.4-.1" class="b"/><path d="M10 158.8q3.6 1.2 6.9 2.8h13.7q4.1-1.9 8.5-3c7.9-1.8 16-2.4 24-2.7 8.5.2 17.2 1.9 25.6.2 2.6 0 5.3 1 7.7 2 9 4.2 3 3.4 13.7 3.5h15.4c2-1 3.9-2.7 6-3.6q3.6-1.9 7.7-2.1 3 .2 6 0 3 .2 6 .5l9.4.4q3.8.2 7.7.3 6.8.2 13.7-.4" class="b"/><path d="M10 157.7c1.2.4 2.3 1.1 3.5 1.3 1.3.4 2.9.2 4.3.3h13.6l6-1.6a78 78 0 0 1 11.2-2.3q9-1 18-1.7l11.9 1q6.5.5 12.8-1 7 1.3 12.8 5.6h24c2.1-1.5 4.3-3.3 6.8-4.3 5.8-2 12-1 18-.6q8.6.4 17 .6 6-.1 12-.8" class="b"/><path d="M10 155.7c2.4.2 4.7.9 6.9 1.3h10.3c3.7-.7 7.3-1.7 11-2q3.5-.4 7-.6a227 227 0 0 1 21.3-3l6 .7q5.1.6 10.2.8 5.3 0 10.3-1.2c1-.4 2.4 0 3.4.3l3.4 1.2q3.3 1.3 6 3.4c1.3.7 3 .3 4.3.4h6.9c4.5-.2 9.2.4 13.6-.5q2-1.8 4.3-3c4-1.9 8.6-1.9 12.8-1.6 7.7.4 15.5 1.2 23.1.8 3.4-.3 7-.2 10.3-1.3l.9.3" class="b"/><path d="M10 153.2q2.6.2 5.2.8c1 .2 2.3.7 3.4.7 2-.1 4 .2 6-.2a69 69 0 0 1 10.3-2q7.3-.8 14.5-.9l12.8-2q1.8-.3 3.4-.4l5.2.6c4.2.6 8.5 1.4 12.8 1.4a44 44 0 0 0 13.7-2q1.8.3 3.4 1a33 33 0 0 1 7.7 3.7l1.7.4c1.3.6 3 .4 4.3.4h13.7q1.6-.3 3.4-.3c6.3-6.3 15-4.6 23.1-4.2a111 111 0 0 0 20.5-.1q1.8 0 3.4-1l.9.4 2.6-.3" class="b"/><path d="M10 150.8q3 .1 6 .9c1.1.2 2.4.8 3.5.7q7.5-1.8 15.4-2.6c5.3-.5 10.8-1 16.2-.7q6-1.2 12-2c1.3-.4 2.9.1 4.3.3q3 .3 6 1l4.2.7q1.4.2 2.6-.2c5-1.5 10.3-1.5 15.4-1 2.3.3 4.6-1.6 6.8-.6 2.7.7 5.2 2 7.7 3.1q3.6.6 6.9 2h14.5c7-6 13.8-5 22.2-4.3q7.3.7 14.6.4 3.4 0 6.8-.8c.4-.3 1.3-.7 1.7-.8l.9.5q2.1-.1 4.3-.5" class="b"/><path d="M10 148.8q2.2 0 4.3.4c1.1.2 2.4.7 3.5.3a141 141 0 0 1 17-2.4c5.4-.5 11-1 16.3-.4q4.2-.9 8.6-1.6l2.5-.5 3.4.5c3.5.5 6.9 1.5 10.3 2 1.7-.2 3.4-1.2 5.1-1.5a23 23 0 0 1 8.6-.8q2.6 0 5.1-.3 3 .3 6 .8c1.1.2 2.4-.4 3.4-.6q1.3 0 2.6.5 2.2.6 4.3 1.6 3 .4 6 1.2l3.4 1.4c.3.3 1.2.7 1.7.7h7.7c3.6-1.7 7.1-4 11.1-4.4 8.6-1.2 17.1 1.4 25.7.8q3-.1 6-.5 1.3-.6 2.5-1.4l1.7.8 5.2-.7" class="b"/><path d="M10 147.2c2.6-.1 5.2-.9 7.8-1.1q6.7-1 13.6-1.5c6.3-.5 12.6-1 18.9-.5 1.3.3 2.9-.4 4.2-.6l6-1.2a89 89 0 0 1 13.7 2.7c.8 0 1.8-.6 2.6-1q3-1 6-1.6c2.8.2 5.7 1 8.5 1q5.2-.2 10.3-.9c1.6-.4 3.4 0 5.1.2.8-.1 1.8-.6 2.6-.2l3.4 1q4 .3 7.7 1.4c6.1 1.8 4 4.1 11.1 1.2 2.5-1 5-2.3 7.7-2.7 7.2-1.2 14.3.5 21.4 1.1q5.1.4 10.3-.3c1.2-.3 2.2-1.5 3.4-1.8l1.7 1q3-.3 6-1" class="b"/><path d="M10 143.4q10.8-1 21.4-1.6c6.3-.3 12.6-.8 18.8 0l8.6-1.7c4 .3 8 1.4 12 2.4q1.2.3 2.5.4A33 33 0 0 1 81 140c2.3 0 4.6 1 6.9 1.2q4.6.8 9.4.3c4.6-.2 9.1-1.4 13.7-1.6 5.7.5 12 .6 17 3.6 4.2-.2 8-2.6 12-3.2q7-.5 13.7 1a46 46 0 0 0 16.3 1.1q1.5-1.4 3.4-2.4c.8.2 1.8 1 2.6 1.4l6-1.1" class="b"/><path d="m10 139.8 19.7-.6c6.3-.2 12.6-.6 18.8 0 2 .3 4-.5 6-.8 1.7-.4 3.5-.9 5.2-.3q4.3.7 8.5 1.8c4.1 1 3 1.3 6.9-.5l3.4-1.1q1.6-.7 3.4-.3a64 64 0 0 0 12.8 2c5.5.1 10.9-1 16.3-1.6q3 0 6-.7c1.6.5 3.4 0 5 0a31 31 0 0 1 8.6 2.3c3.2-.4 6.3-1.7 9.5-2.3 3.3.7 6.8-.4 10.2.3 2.9.4 5.7 1.6 8.6 2.2q5 1.1 10.2.8a15 15 0 0 1 4.3-3.2c1 .5 2.2 1.6 3.4 1.7l5.1-1.2" class="b"/><path d="M10 136.6c4.6-.3 9.2 0 13.7-.1q7.4-.1 14.6-.1 5.5 0 11.1.5l6.8-1.4q2.2.2 4.3.7l6 1.3 3.4 1q1.4.4 2.6-.4 3.6-1.8 7.7-2.6 4.6 1 9.4 1.8 9.4 1.1 18.8-.3c2.8-.5 5.8-.3 8.6-.7q2.5-.6 5.1-.8l2.6.5c1.3.3 2.9-.2 4.2-.5 1.2 0 2.4.6 3.5 1 2 .3 4-.7 6-1 1.4 0 2.8.7 4.2.7q4 .1 7.7-.7c2.7-.2 5.3 1.3 7.7 2.1a28 28 0 0 0 10.3 2c1.6-1.4 3.2-3.2 5.1-4.2 5 3 3 2.5 8.6 1" class="b"/><path d="M10 133.6c5.5-.3 11 0 16.3.1q10.3 0 20.5.7 1.8.3 3.5-.2l5-1q4.8.7 9.5 1.9 3 .9 6 1.5 4.4-2.4 9.4-3.4a88 88 0 0 0 22.2 2c3.7 0 7.4-.6 11.1-.7l5.2.1c1.7-.1 3.4-.7 5.1-.9q2.2-.3 4.3-.5c2 .2 4.1.8 6 0 1.3.5 2.9-.3 4.3 0 1.6.4 3.3 1.2 5 1.2q3.5.1 7-.6c1-.2 2.3-1 3.3-.5 5 1.3 9.4 5 14.6 4.8q2-3 5.1-4.8c1.9 0 3.3 2 5.1 2.3l3.5-1.1" class="b"/><path d="M10 130.8q9.4-.3 18.9.3 8.6.3 17 .9 1.8.2 3.5-.1l5.1-1q5.2.9 10.3 2 1.6.6 3.4 1c.8.2 1.8.6 2.6.4q3.3-1.8 6.8-2.7c1-.3 2.3-.8 3.4-.6q6 1.2 12 1.3 6.5 0 12.8 0c5.2-.2 10.4-.5 15.4.5 3.4-.2 6.8-1.2 10.3-1.4q3-.4 6-.1c.3-.2 1.2-.4 1.7-.4q2.6.7 5.1 1.8 3 0 6-.6 2.1-.7 4.3-1.2a26 26 0 0 1 7.7 3.5c1.8 1 3.8 2.4 6 2 1.6-2 3.5-4.2 6-5.5 1.8.4 3.4 1.8 5 2.6q1.5-.3 2.7-.9" class="b"/><path d="M10 128.1c9.5-.4 18.9.6 28.3 1l8.5.7c1.7 0 3.5-.6 5.2-.9 2-.5 4 0 6 .5q3.4.6 6.8 1.4l3.4 1c1.1.2 2.4.6 3.4-.2q4.6-2.2 9.4-3c2.3.2 4.6.7 6.9.7 5 .3 10.3-.1 15.4 0 4.2.2 8.5-.2 12.8 0q2.6.3 5.1 1c1.4.3 2.9.9 4.3.6 3.2-.2 6.3-1.2 9.4-1.3q2.2 0 4.3.2c1.4-.1 2.9-1 4.3-1.3 1.2.2 2.4 1 3.4 1.5q1.1 1 2.6.6 3-.8 6-2c1.1 0 2.4.7 3.4 1.2a38 38 0 0 1 6.8 4.3h3.4a16 16 0 0 1 6-5.5c.9 0 1.9.6 2.6 1l3.4 1.6.9-.3" class="b"/><path d="M10 125.6c11.2-.6 22.3 1 33.4 1.6l3.4.2c2.3-.3 4.6-1 6.9-1q5.1.8 10.2 2 3.4.9 6.9 1.5 5.5-3 12-3.6 3.8.4 7.6.4 6.4-.2 12.9-.5 5.5.1 11 .1 4.6 0 8.6 1.5l3.5 1.5h3.4c2.8-.3 5.7-1.2 8.5-1.1q1.8 0 3.5.4c1.7-.5 3.4-1.6 5-2.3 1.7.3 2.9 1.7 4.4 2.2 2-.6 4-1.7 6-2.2a27 27 0 0 1 6.8 3.7c.8.6 1.7 1.5 2.6 1.9q1.6 0 3.4-.2c1.7-2.3 4-4.6 6.8-5.5l5.1 2.2" class="b"/><path d="M10 123.3c11-1 21.8.8 32.6 1.5l3.4.3q3.4-.6 6.8-1 7.8 1.2 15.4 3c3.3.8 3 .4 6-.8q3.3-1.3 6.8-1.8c6.6-1 13.2-.2 19.7.1q3.4.2 6.9 0 3.8.2 7.7.1 3-.2 6-.6 2.3.5 4.2 1.6c1.4.6 2.7 2 4.3 2 3.4.4 6.9-.8 10.3-.8q2.2 0 4.2.6l5.2-3.3c1.3-.1 2.5 1.2 3.4 2q2.6-1 5.1-2.2 3.8 1.2 6.9 3.7 1.1 1.1 2.5 1.9 1.8 0 3.4-.2 2.8-3.6 6.9-5.4c1.4-.2 2.9.9 4.3 1.3" class="b"/><path d="M10 121c10.6-1.2 21.2.7 31.7 1.5l3.4.3 6.9-1q7.7 1 15.4 2.8l4.2.8 3.5-1.5q4.6-1.5 9.4-1.8c5.7-.2 11.4.6 17 1 1.4.2 3-.3 4.3-.5q4-.6 7.7-.7 2.6-.1 5.2.3l2.5.5 2.6-.8h.9l.8.3q2 1 3.4 2.2c.8.6 1.6 1.8 2.6 1.8 2.8.7 5.8-.2 8.6-.4q3-.2 6 .7c2-1.5 3.8-3.4 6-4.8l2.5 2.2 3.4-1.7q.8-.5 1.7-.3 2.8 1.1 5.2 2.8c1.1.7 2.2 2 3.4 2.6 3.2 0 2.9.3 5.1-2q2.6-2.3 6-3.6 1.3 0 2.6.5" class="b"/><path d="M10 118.8c10.6-1.6 21.2.6 31.7 1.6 3.4.5 6.9-.8 10.3-1l9.4 1.6q5.5 1.3 11 2c7.8-4 16.5-3 24.9-2q2.2-.2 4.3-.7l6.8-1q2.6.4 5.1.5c2.3.2 4.6-.2 6.9-.4 1.4.3 2.9 1 4.3 1 .7-.2 1.7-.8 2.5-.8q2.5 1.3 4.3 3.4c.6.7 1.5 1.9 2.6 2q4.3 0 8.5-.3c2 .1 4 .5 6 .2q2.3-3 5.2-5.4c.8.5 1.6 1.5 2.5 1.9 1.4-.7 2.8-1.7 4.3-2q4.7 2 8.6 5.5c3.9.5 3.2-.4 6-2.5a17 17 0 0 1 6.8-3" class="b"/><path d="M10 116.7c10-2 20.1.1 30 1.3l2.6.3 2.5-.4 6-.8q4 .5 7.7 1.2 5.2 1 10.3 2 2 .4 4.3.4l1.7-.8q6.2-2.4 12.8-1.8l5.1.6q1.8.2 3.5-.3 4.3-.7 8.5-1.2c3.4.3 6.8 1 10.3 1 2.8.3 5.7-.6 8.5-1 1.1.3 2.3 1.2 3.4 1l1.7-1c1.8.6 3.2 2.3 4.3 3.6.4.6 1.2 1.6 1.7 1.9h15.4c.7-.2 1.4-1.3 1.7-1.8 1-1.3 2-2.9 3.5-3.6l1.7 1.6c1.5-.2 2.8-1.3 4.2-1.8q5.2 2 9.4 5.6h2.6q3.6-3.8 8.6-5.3" class="b"/><path d="M10 114.6c10-2.4 20.1-.1 30 1.3q2.2.3 4.3-.2l6-.8q4.7.5 9.4 1.4 4.5 1 9.4 1.7l4.3.5q1.3-.4 2.5-1 5-1.9 10.3-1.5c2 0 4 .5 6 .4q5-1.1 10.2-1.5l7.7 1.1a26 26 0 0 0 15.4-1c1.2 0 2.4.8 3.4 1.3l1.8-1.2.8.1q2.6 2 4.3 4.9.8.4 1.7.3h3.4c1.1-.2 2.3-.9 3.5-.7l2.5.7h5.1c.8-.2 1.4-1.3 1.8-2 .6-1 1.6-2.3 2.5-3.1h.9c.3.5 1.1 1.2 1.7 1.3l3.4-1.7c2.8.6 5.3 2.2 7.7 3.7 1.3.8 2.6 2.1 4.3 1.8.9-.4 1.8-1.4 2.6-2q2.3-1.6 5.1-2.7" class="b"/><path d="M10 112.5c9.6-2.7 19.6-.4 29.1 1.3 1.4.2 3-.2 4.3-.3l6-.8c4.3.2 8.6 1.2 12.8 2q4 .7 7.7 1.3c1.4.1 3 .6 4.3.2q2.5-1.2 5.1-1.9a23 23 0 0 1 10.3-.1q1.3-.1 2.6-.5 3.8-1 7.7-1l8.5 1.1q4.2 1 8.6 1.4 4.8.1 9.4-2c1.5-1 3 .3 4.3 1l1.7-1.4.8.2q2.7 2.2 4.3 5.2l5.2-.1q1.5-1.1 3.4-1c1.1 0 2.3.7 3.4 1h4.3c1.4-1.6 2.4-4 4.2-5.4l1.8 1.8c1.3-.7 2.7-1.7 4.2-1.8q3 1 6 2.6c2 1 3.9 2.3 6 2.8q2.8-2.4 6-4" class="b"/><path d="M10 110.3c9-2.8 18.5-.8 27.4 1.2 1.4.4 3-.2 4.3-.2 2.5-.3 5.2-1 7.7-1q9.5 1.6 18.8 3.4 2.6.5 5.1.7 1.8-.6 3.5-1.5a22 22 0 0 1 12-1c2.5-.5 5-1.5 7.7-1.6 5 .8 10.3 1.2 15.3 2.3 7.4 1.6 10.4 1.3 17.1-2.2 1 0 1.9.8 2.6 1.2h.9l1.7-1.3c2.2 1.3 3.4 3.9 5.1 5.6h4.3c1.3-.6 2.8-1.3 4.3-1.1 1.1 0 2.3.7 3.4 1 1.4 0 3 .4 4.3-.3a19 19 0 0 1 3.4-5 6 6 0 0 1 1.7 1.5c1.4-.4 2.8-1.3 4.3-1.7l6 2.2c1.9.8 3.9 1.8 6 2.1q.8.2 1.7.1c1.1-.4 2.3-1.4 3.4-2" class="b"/><path d="M10 108c8.7-3 18-.8 26.6 1.4l11-1.4c7.3.8 14.3 2.6 21.5 3.8q2.1.5 4.2.5a22.6 22.6 0 0 1 15.4-3c2.6-.5 5.1-1.9 7.7-1 5.8 1 11.4 1.5 17.2 2.7 7.2 1.7 9.9.6 16.2-2.9 1.3-.1 2.2 1.2 3.4 1.4l1.7-1.3c2.2.3 4 3.7 5.2 5.4h5q1.8-.9 3.5-1 1.8.2 3.4 1c1.4-.1 3 .3 4.3-.5a19 19 0 0 1 3.4-5q1 .6 1.7 1.6l4.3-1.7c5.4 1.2 10.6 4.5 16.3 3" class="b"/><path d="M10 105.6c8.3-2.8 16.8-.7 24.9 1.5 4-.3 8-1.2 12-1.4 7.7.8 15.3 2.8 23 4.2q1.3.2 2.6.2l2.6-1.3q3.2-1.5 6.8-2c2.5-.5 5.2 0 7.7 0 1.4-.4 2.8-1.1 4.3-1.1l1.7.4c4.2 1 8.6 1.4 12.8 2.1q3 .2 6 .6c1.4.2 2.9 1 4.3 1.2 4.4.3 8.3-2.2 12-4.3.8.2 1.8 1 2.5 1.5l.9-.1 1.7-1.3c2.3.8 3.9 3.4 5.1 5.4q3 .2 6 0 1.3-.3 2.6-.4 1.3.1 2.6.5h4.2c1.5-1.7 2.4-4.2 4.3-5.5l1.7 1.6q2.2-1 4.3-1.7l3.4.8c4 1 8 2.3 12 1.5" class="b"/><path d="M10 103.2c5-1.7 10.4-1.5 15.5-.4q2.1.4 4.2 1 1.7.8 3.5 1l12-1.5c8.6.6 17 3 25.6 4.6a34 34 0 0 1 13.7-4c2-.1 4 .4 6 .4 1-.3 2.3-1.1 3.4-.7q5.4 1.5 11 2.3 3.5 0 7 .2 2.1.3 4.2.8c1.1.3 2.3 1 3.4 1.2a18 18 0 0 0 7.7-2.6l2.6-1.4.9-.5h.8l2.6 1.6c.7-.6 1.7-1.5 2.6-1.8q3.1 2.3 5 5.6h14.6l.9-.5c.8-1.6 2-3.5 3.4-4.8l.9.2.8 1q1 0 1.7-.3l3.5-1.1c4.8.7 9.6 2.3 14.5 1.5" class="b"/><path d="M10 100.7c4.7-1.5 9.9-1.3 14.6-.2q2.2.6 4.3 1.3c.7.3 1.7.8 2.6.7 4-.4 8-1.2 12-1.5 8.6.3 17.1 2.4 25.6 4.3 5.1-2.3 10.6-4 16.2-4q3 .1 6 .5l1.7-.6q1 0 1.7.4l6.9 1.8c3.4.3 6.9 0 10.2.5q4 .4 7.7 2c2.8 0 5.4-1.4 7.7-2.7l2.6-1.4.9-.5h.8l2.6 1.7 2.6-1.9c2.4 1.3 4 3.7 6 5.6h12.8q1 .1 1.7-.4c.7-1.2 1.7-2.8 2.6-3.8q.6-.9 1.7-1.2c.4.4 1.2 1.2 1.7 1.5q1.6-.8 3.4-1.2l1.7-.5 1.7.3q6 1.3 12 .8" class="b"/><path d="M10 98.3c4.5-1.4 9.3-1.1 13.7 0q2.8.8 5.2 1.8l3.4-.3q4.3-.7 8.5-1 5.6 0 11.2.7c5.2.6 10.2 2 15.4 3q3.3-1.5 6.8-2.4 3.4-.8 6.8-1.3 2.2.3 4.3.3l4.3-.3 2.6.4 1.7-.3 1.7.5c1.4.3 2.8 1 4.3 1.2 4.5.6 9.1.5 13.6 1.3q3 .5 6 1.7c4-.4 7.6-3 11.1-4.7 1.3.3 2.2 1.5 3.5 1.7l2.5-1.8c2.4 1.2 4.3 3.3 6 5.3 1 .5 2.4.3 3.4.3q2.6 0 5.2-.3 2.5.5 5.1.3c1.8-1.6 2.8-4.5 5.1-5.5l1.7 1.7q2.2-.8 4.3-1.4c.8-.2 1.8-.6 2.6-.3q6 1.2 12 .6" class="b"/><path d="M10 95.8A24 24 0 0 1 25.6 97c.7.3 1.7.9 2.5.7 3.1-.3 6.3-1 9.4-1.2 5.2.3 10.3.3 15.4.8q4.4.5 8.6 1.4l3.4.7q1.8-.2 3.4-.8 4.2-1.4 8.6-2c3 .4 6.2 1 9.4.9 2.2-.1 4.6-.7 6.8-.9q1.8 0 3.4.7l5.2.8c6 .8 12.2 1 18 3.1 2.3-.4 4.6-1.6 6.8-2.6 1.3-.6 2.7-1.8 4.2-1.8q1.4.7 2.6 1.6c1.2-.4 2.3-1.4 3.4-1.9q3.8 2.4 6.9 5.7 2.5 0 5.1-.2c1.4-.2 3-.6 4.3 0 1 .1 2.4.4 3.4-.3q1.8-2.5 4.3-4.8l.8-.1 1.7 1.6q3.4-1.2 6.9-2 6 1.3 12 .6" class="b"/><path d="M10 93.4a22 22 0 0 1 14.6 1.4q.9.5 1.7.5l6.9-1q3.8.2 7.7.3c6.8.2 13.7.2 20.5 1.6 1.4.5 2.9 0 4.3-.3q3.3-.9 6.8-1.6c1.7 0 3.5.6 5.1.9q4.6 1 9.4.8 3-.4 6-1.1 1.3-.4 2.6-.6 2.6.4 5.1 1c4 .7 8 1 12 1.8 2.3.3 4.5 1.2 6.8 1.4q3.6-1 6.9-2.7c1-.5 2.2-1.3 3.4-1.4l2.6 1.6c1.5.1 2.6-1.8 4.2-1.6 2.8 1.5 5 3.9 7.7 5.4 2.3.2 4.6-.7 6.9-.7 1 .2 2.2 1 3.4.7 1-.4 1.8-1.6 2.6-2.4q1.5-1.6 3.4-3c1 .3 1.9 1.3 2.6 2a19 19 0 0 1 4.2-1.5c1.1-.2 2.3-.7 3.5-.6q5.5.7 11 .3" class="b"/><path d="M10 91q5.2-1.2 10.3.4c1.4.3 2.9 1.2 4.3 1.5l6-.9 6 .5c4.5.2 9.1 0 13.7.2q3.4 0 6.8.4l3.4.5 2.6-.4 6-1.2c3.1.4 6.3 1.5 9.4 2a22 22 0 0 0 15.4-1.3l1.7-.6 1.7.2c1.7-.5 3.5.3 5.1.5q7.4 1.2 14.6 2.7c1.7.6 3.5-.2 5.1-.8q3-1.1 6-2.5c1.2-.2 2.4.9 3.4 1.5 1.5 0 2.9-1.3 4.3-1.8q3 1.6 6 3.7c1 .6 2.2 1.6 3.4 1.9q1.6-.5 3.4-.6 2.2-.6 4.3.4h.9c2-1.6 3.8-3.6 6-5h.8l2.6 2q3.6-1.8 7.7-2.3 5.5.6 11.1.3" class="b"/><path d="M10 88.7c4.4-1 9-.2 12.9 1.8l5.1-.7c2.8.2 5.7.7 8.6.7 6.5 0 13.1-.3 19.6.2q4.8 0 9.5-1c2 0 4 .8 6 1.3 3.6 1 7.3 2.2 11 2.7 1.7 0 3.6.4 5.2-.3q4.1-2.2 8.5-3.6 1.3.2 2.6.4l1.7-.4c2 0 4 .7 6 1l11.1 2.1q4.8-1.2 9.4-3.2 1.8.6 3.5 1.7c1.4-.3 2.8-1.2 4.2-1.7 3.5.7 8.6 5.6 12 4.8q1.6-.3 3.4-.3l1.7.2q2.3-1 4.3-2.7c1-.6 2.2-1.7 3.4-1.8 1.2.6 2.2 2 3.5 2.2q2.4-1.3 5-1.8 1.8-.5 3.5-.6c3.4.5 6.9.3 10.3.4" class="b"/><path d="M10 86.4q4-.7 7.8.2c1.4.3 2.8 1.1 4.2 1.5l4.3-.6q2.6.5 5.2.7 4.6.3 9.4.2c5 0 10.2-.7 15.4-.6 2.5 0 5.1-.5 7.7-.2 3.8.3 7.4 1.9 11 3 2.6.9 5.1 2 7.8 2.4 1.8 0 3.5-1 5.1-1.7a39 39 0 0 1 9.4-3.8q1.3.2 2.6.6c1.4.2 2.8-.7 4.3-.6l12 2.4c1 .2 2.3-.2 3.3-.4q3-.8 6-2c1.6 0 2.9 1.3 4.3 1.5q2.2-.7 4.3-1.6c3 .7 5.7 2.5 8.6 3.5 6.2 2 10.2 0 15.3-3.4 1.7.1 3 1.8 4.3 2.8 1.2-.3 2.3-1.1 3.4-1.5q3-1 6-1.4c3.4.5 6.9.4 10.3.5" class="b"/><path d="M10 84.2c3.5-.7 7.2-.1 10.3 1.4 1.7.2 3.5-.7 5.1-.2q5.6 1 11.2.9l6-.2q3.8-.9 7.7-.9c4.8.2 9.7 0 14.5.6q3.5.8 6.8 2.2c4.3 1.8 9.2 3.5 13.7 2 3.2-1.1 6.2-3 9.4-3.9 1.4-.3 3-1.1 4.3-.8q1.6.6 3.4.7l3.5-.8 8.5 1.6c3.2.8 6.4-.7 9.4-1.5 1.5-.2 3 1 4.3 1.4l5.1-1.5c1.4.2 3 .9 4.3 1.3 7.8 3.2 12.4 2.5 19.7-1.4 1.9.7 3.3 2.5 5.1 3.4 2.7-2 6.2-2.7 9.4-3.4q5.2.6 10.3.8" class="b"/><path d="M10 82q5-.8 9.5 1.3c1 0 2.3-.5 3.4-.4l5.1 1q5.2.5 10.3.2c2.6.1 5-1.2 7.7-1.1 5.4.6 10.8.2 16.2.6 3.3.3 6.5 1.6 9.4 2.9l6 1.1c6.7 1.8 11.8-2.5 18-3.9l3.4-.8 4.3.9c1.4 0 2.9-.6 4.3-.8 2 0 4 .7 6 1 1 0 2.3.4 3.4.2L122 83q1.3 0 2.6.6l1.7.6 1.7-.3 4.3-1 3.4.9c7 2.3 13 2.3 19.7-1q3.4 1.4 6 4c1.3-.7 2.7-1.8 4.2-2.3q3.4-1.2 6.9-1.7 4.6.8 9.4 1" class="b"/><path d="M10 80q4.6-1 8.6 1 1.3-.1 2.6-.5c1.7.2 3.4.8 5.1 1q4.6.8 9.4.5 1.8 0 3.4-.2 2.2-.8 4.3-1.1c2 0 4 .4 6 .4q5.1.1 10.3.2 5 .2 9.4 2.4c1.5.8 3.5.6 5.1 1 3.7.6 7.5 1.1 11.1-.1 3.7-1.1 7.4-2.6 11.2-3.4q1.6-.4 3.4-.5 1.3.1 2.5.4 1.8.4 3.5.4 2-.7 4.2-.8 3 .6 6 .8l3.5-.6c1.7-.7 3.4.5 5 .8q3.5-.4 7-1c8.3 1.9 13.7 2.8 22.1 0q3.9 1.2 6.9 4.1l.8.2a23 23 0 0 1 11.2-4.4q4.6.7 9.4 1.3" class="b"/><path d="M10 78q2.6-.7 5.2 0c1.1 0 2.3.8 3.4.7q1.3-.4 2.6-.4 2.1.6 4.3 1 3.8.7 7.7.6h4.2l4.3-1.3c2-.6 4 .2 6 .2 3.7.3 7.4 0 11.1.2 3.3.4 6.6 1 9.4 2.6 1.6.6 3.5.4 5.2.6q3 .5 6 .5c3.5 0 6.9-1.3 10.2-2.1q5-1.6 10.3-2.3l5.1.7q1.7.3 3.4-.1t3.5-.5c1.3.1 2.9.5 4.2.4 1.1-.1 2.4-.6 3.5-.4 1.3.3 2.8.9 4.2.7q3.4-.2 6.9-.8l4.3.7a41 41 0 0 0 16.2-.6 18 18 0 0 1 9.4 5.4c3.1-3.3 7.7-4.7 12-5.5q4.7.6 9.4 1.5" class="b"/><path d="M10 76q2.6-.6 5.2 0 1.3.3 2.6.5l1.7-.4c2.3 0 4.6 1 6.8 1.3q4.2.6 8.6.3c1 0 2.4 0 3.4-.5q2-.7 4.3-1c1.6-.4 3.4.2 5 .2l7.8.1q4.4.2 8.5 1.5c1.5.3 2.9 1.4 4.3 1.7l8.6.4C84 79.9 91 77 98.2 76q1.6-.2 3.4.2l5.1.5c2.3.2 4.6-1 6.8-.7l1.8.2q1.3-.2 2.5-.2c1.4.2 2.9.7 4.3.6q3 0 6-.4c1 0 2.3-.4 3.4-.1a59 59 0 0 0 17.1-.2c3.4.6 6.8 2 9.4 4.4 2 2.3 3.3.8 5.1-.6q4.4-2.8 9.5-3.7c3.1.1 6.3 1 9.4 1.7" class="b"/><path d="M10 74.3a12 12 0 0 1 6.9.2l2.6-.8q2.5.7 5.1 1.2 4.6 1 9.4.7h2.6l2.5-.8a32 32 0 0 1 5.2-1c5 .1 10.3 0 15.4 1q2.3.5 4.2 1.3c1.1.5 2.3 1.4 3.5 1.3q4.3.2 8.5 0 6-.7 12-2A89 89 0 0 1 98 73.8l6 .7h4.3c1.7-.2 3.5-.9 5.1-.6q1.4.2 2.6 0 1.8.1 3.4.5 4.4.2 8.6-.2c3.4-.6 6.8 0 10.3 0 2.2 0 4.5-.4 6.8-.3 4.6.5 9.5 2 12.8 5.5h3.4c3.3-3 7.7-4.6 12-5.5q4.4.7 8.6 1.8" class="b"/><path d="M10 72.7q3-1 6-.2l2.6-.9c1.1-.2 2.4.4 3.4.6q3 .8 6 1.2c3.1.1 6.4.3 9.4-.2a34 34 0 0 1 15.4-1.5 26 26 0 0 1 12 3.3q5.6.2 11.1-.6L87 72.8q4.3-.9 8.6-1.3 3 .2 6 .6l5.1.2c2-.3 4-1.2 6-.8l1.7.2q1.3-.3 2.6 0 3.8.8 7.7.5c10.4-.6 24-2.3 32.5 4.8h4.3q5.7-4.2 12.8-5.5 3.8.8 7.7 2" class="b"/><path d="M10 71.5a8 8 0 0 1 5.2-1c1.4-.1 2.8-1.1 4.3-1.3q4.2 1.5 8.5 2 3 .3 6 .2c1.4-.1 3 .1 4.3-.4 4.1-1.4 8.5-1.5 12.8-1.8q4 .3 7.7 1.4c1.5.4 2.9 1.4 4.3 2q5.2-.1 10.3-1 6-.5 12-1.4 3.3-.7 6.8-1 3.8.3 7.7.8c1.6 0 3.5.4 5.1 0 2-.3 4-1.1 6-.8l2.6.4c1-.1 2.3-.6 3.4-.3q2.2.4 4.3 1l3.4-.1c10.4-.5 22.6-1.8 31.6 4.5h5.1c3.5-2.7 7.8-4.3 12-5.4 1.1-.2 2.4.4 3.4.6l5.2 1.6" class="b"/><path d="M10 70.6q2.4-1.6 5.2-1.7 2-1.2 4.3-2c2.5.7 5 1.8 7.7 2.1 3.4.5 6.8.2 10.2.3q5.5-1.7 11.2-2 2.1-.5 4.2-.2 4.2.7 7.7 2.8c2.9.1 5.8-.6 8.6-.9l10.2-1 6.9-1q2.6-.3 5.1.2 4.7.8 9.4 1l5.1-1.1c2.9-.8 5.8 1.2 8.6.3 1-.2 2.3-.7 3.4-.4l3.4.8q1.6.7 3.5.5c10.2-.3 21.6-1.3 30.7 4.1h3.5q2 .3 3.4-.9 5.1-3.2 11.1-4.6 4.4 1 8.6 2.9" class="b"/><path d="M10 70.2c1.3-1 2.7-2.1 4.3-2.3 1.8-1.3 3.8-2.8 6-3.2 7 2.7 10 2.6 17.1 2.5 2.3-.4 4.6-1.2 6.9-1.5l6-1q1.6.2 3.4.6 2.2.7 4.3 2 1.6 0 3.4-.3l5.1-.8q5.2-.6 10.3-1c2.2 0 4.6-.7 6.8-.5 4.3.3 8.6 1.2 12.8 1.6 1.7-.2 3.5-1 5.2-1.2q2-.7 4.3-.3 3 .7 6 1 2.5-.3 5-1 1.8-.4 3.5.2l3.4 1q1.6.8 3.4.6c6.3-.3 12.7-.4 18.8.7a48 48 0 0 1 8.6 2.7q1.2.2 2.6.1 1.6.2 3.4-.1 1.6-1.3 3.4-2.1a41 41 0 0 1 8.6-3.3q4.8 1.4 9.4 3.6" class="b"/><path d="M10 67.9c2.2 0 4 .4 5.2-1.7a11 11 0 0 1 6-3.8c6 2.5 9.8 2.8 16.2 2.7q2.2-.5 4.3-1.1l6.8-1.5c1.4-.4 3 .5 4.3.9 1.2.3 2.3 1.2 3.5 1.2a117 117 0 0 1 19.6-2.3A135 135 0 0 1 88.7 64c1.4 0 3 .6 4.3.4q3.8-1.3 7.7-2 5.2 1.2 10.3 2l5.1-1.2c1.4-.2 2.9-.9 4.3-.8q3 .7 6 1.8c1 .3 2.3 1.1 3.4 1q11.3-1 22.2 2c1.4.4 2.9 1 4.3.8 1.1-.1 2.4.2 3.4-.4q4-2.5 8.6-4.2 1.6-.6 3.4-1l2.6 1q4 1.3 7.7 3.6" class="b"/><path d="m10 64.8 1 .8h4.2q2.5-4 6.8-5.6 3.4 1.4 6.9 2.3 4.2.7 8.5.6 3.9-1.4 7.7-2.2l2.6-.6 2.6.7c1 .3 2.2 1.3 3.4 1q4.3-.7 8.5-1.2 3-.5 6-.5A165 165 0 0 1 88 62.7l5.1-1.8 4.3-.9 3.4.9 9.4 2.3q4-1 7.7-2.1c1.7-.3 3.5-1.4 5.2-.8q5.2 1.3 10.2 3.4 8.6-.4 17.1 1.1c2.5.4 5.2 1.2 7.7.6a59 59 0 0 1 11.1-5l1-.3.8.1q6 1.9 11 5.4" class="b"/><path d="M10 61.2c1 .4 1.9 1.4 2.6 2 1.4 0 3 .4 4.3-.3 1.3-2.3 3.6-4 6-5 1.1-.2 2.3.6 3.4.9a26 26 0 0 0 8.6 1.6q1.3.1 2.6-.2 3.8-1.3 7.7-2.3c1.7-.2 3.4 1 5 1.4q6-1.3 12-1.5 8.6.8 17.2 2.3c1.3.1 2.8.8 4.2.6q4.5-1.8 9.4-2.9c1.4-.2 3 .5 4.3.8a137 137 0 0 1 12.9 3.8l1.7-.6q5.9-2.2 12-4c3.7.5 7.4 2 11 3.2l4.3 1.5h4.3q4.2.3 8.6.8h3.4L158 62l6.9-3c1.6-.4 3.5-1.7 5.1-1q5 1.6 9.4 4.7c.9.1 1.8-.4 2.6-.6" class="b"/><path d="m10 58.1 1.8.9 2.5 1.9q1.8.1 3.5.1c1-.5 1.7-1.9 2.5-2.6q2.3-2.1 5.2-2.9c3.5 1.3 7.3 2.4 11 2q3.5-1.1 7-2l3.3 1c3.4-.2 6.9-1.2 10.3-1q6 .6 12 1.7 4.7.7 9.4 1.8 3.8-1.4 7.7-2.5c2-.5 4-1.5 6-.7q5.3 1.3 10.2 3 2.6 1.2 5.2 2.2h2.5c1.1 0 2.4.2 3.5-.2a76 76 0 0 1 11-4.7q1.3-.5 2.6-.5l1.7.4c5.5 1.3 11 3.2 16.3 4.8 7.8 1.3 15-3.4 22.2-5.3q5 1.4 9.4 4.3l5.2-1.2" class="b"/><path d="M10 54.6c3.3 1.4 6.6 3.3 10.3 3 1.3-.5 2.2-2 3.4-2.6 1.5-.8 3.4-2.2 5.2-1.5q3.3.9 6.8 1l5.1-1.5c1.1.2 2.3 1 3.5.8 2.8-.3 5.7-.8 8.5-.4 7.3.3 14.4 2 21.4 3.6l9.4-2.9c1.6-.3 3.5-1.3 5.1-.8a88 88 0 0 1 14.6 4.9c.6.6 1.7.6 2.5.5h10.3c.9.2 1.9-.5 2.6-1a38 38 0 0 1 8.5-3.8c1-.2 2.3-.9 3.4-.6l9.5 2.3c2.5.6 5 1.4 7.7 1.5 6.2.1 12-2.2 18-4 3 .4 5.8 2.1 8.5 3.5l7.7-1.3" class="b"/><path d="M10 51.4q3.4 1 6.9 2 4.3.6 8.6-.3c2.2-1.2 5-2.4 7.7-2q2.5.3 5-.2c1.7.5 3.5.1 5.2 0q2.6.1 5.1.4l6.9.4q4.7.4 9.4 1.6c2 .4 4 1.5 6 1.6a118 118 0 0 1 10.2-3c2-.3 4-1.4 6-.9 4.7 1.2 9.4 2.4 13.7 4.6q4-.2 7.7.7 2.6.1 5.1.1c1.8 0 3.5-1 5.2-1.1q1.6-.3 3.4-.3c.4 0 1.3-.2 1.7-.4a32 32 0 0 1 9.4-3.6c1.4-.3 3 .5 4.3.7a48 48 0 0 0 26.5-.8c2.7.3 5.3 1.6 7.7 2.8l10.3-1.5" class="b"/><path d="M10 48.7c3 0 5.7 1.2 8.6 1.3 4.9.2 9.7-.5 14.5-1.1q1.8-.4 3.5 0 6 .1 12 .5c6.4 0 12.8.8 18.7 3.4q6-1.9 12-3.3 2.6-.6 5.1-1a130 130 0 0 1 12 3.4q1.3.2 2.6-.1c4.8-.4 10-.4 14.5 1.4 1.2 0 2.4-.8 3.5-1q3-.7 6-1h4.2c.8 0 1.8.3 2.6 0q3.6-1.6 7.7-2.4c1.7-.4 3.5.2 5.1.4q3.4.5 6.9.7a55 55 0 0 0 12.8-1.3q4 .8 7.7 2.6 6-1.2 12-2" class="b"/><path d="M10 46.8q2.3-.3 4.3-.5l3.5.4q4.6.2 9.4-.3c2.8-.2 5.7.4 8.5.9 5.7-.4 11.4 0 17.1.2q6.2.3 12 2.7c.8.3 1.8-.2 2.6-.4l3.4-1q5.5-1.5 11.1-2.4c1.7-.3 3.5.4 5.1.6l5.2 1.3c1 .3 2.3.8 3.4.4a48 48 0 0 1 21.4.8 33 33 0 0 1 7.7-1.4 36 36 0 0 1 10.2.5q4.2-1.4 8.6-2c3.6-.6 7.4 0 11 0q2.8-.2 5.2-.2 5 .5 9.4 2.7c1.7-.2 3.5-1.1 5.2-1.4q3.8-.9 7.7-1.3" class="b"/><path d="M10 44.8c5.2-.2 10.3-.8 15.5-.4q4.5.5 9.4 1.1l6-.4c5 .1 10.3-.3 15.3.6q2.6.5 5.2 1.4c2 .8 2.2 1 4.3.2q5.4-1.6 11-2.6c2-.2 4.1-1 6-.5a113 113 0 0 1 9.5 1.9q1.2 0 2.5-.3c5.7-1 11.4-1.6 17.1-1q4.4.4 8.6 1.6 2.5-.6 5.1-1c3.7-.6 7.5-.1 11.1.2 1.7.1 3.5.7 5.2.6 7.6-2 20.4-2.9 27.3 1.2q3.7-1.8 7.7-2.8c1.7-.4 3.5-.8 5.2-.3" class="b"/><path d="M10 42.6c4.6.3 9.2 0 13.7.1q3.5.3 6.9.8c1 0 2.3.5 3.4.2 4-.8 8-.7 12-.8q8.5-.6 16.2 2.5a90 90 0 0 1 18-3.7l10.3 1.7q1.3 0 2.5-.3a66 66 0 0 1 30.8.4 55 55 0 0 1 18.8 0l4.3.7q3.8-.6 7.7-1.1c4.9-.4 10.2.1 14.5 2.6q4.3-3 9.4-4l3.5.7" class="b"/><path d="M10 40.4q5.6.8 11.2.7 5.2.1 10.2 1c4.2-1.2 8.6-1.4 12.9-1.5 5.4-.3 11.1-.1 16.2 2.2q3-.7 6-1.6l12-1.7q3.8.3 7.7.9c1 .1 2.3.6 3.4.5q6.8-1.3 13.7-1.8a68 68 0 0 1 20.5.8c1.4.2 2.9 1.2 4.3 1q5.1-.5 10.2-.2c3.7.2 7.5 1 11.2 1.4 2.2.6 4.5-.4 6.8-.6a22 22 0 0 1 8.6.8c1.4.3 2.8 1.2 4.2 1.5 2.4-2 5.5-3.7 8.6-4.3l4.3 1" class="b"/><path d="M10 38c2 .3 4 1 6 1.1 4.3.4 8.7.4 12.9 1.1 1.7 0 3.4-1 5.1-1.1q4.6-.8 9.4-.9c3.7-.1 7.5-.3 11.1.5 1.8.3 3.5 1.2 5.2 1.5l2.5-.8q3.4-.8 6.9-1.1 4.3-.8 8.5-1.1l6.9.8c1.3.2 2.9.6 4.2.2 11.6-1.7 23.5-3.5 35.1-1.4q3.4.8 6.9 2 3-.3 6-.3c4.8 0 9.7 1.2 14.5 1.8l2.6.3q1.6-.5 3.4-.7c3.8-.5 7.8.3 11 2.2 1-.4 1.9-1.4 2.7-2q2.6-2 6-2.9l5 1.6" class="b"/><path d="M10 35.6q3.4 1 6.9 1.7l10.3 1a50 50 0 0 1 15.3-2.5c5.2-.3 10.6-.3 15.4 1.7 1.7-.2 3.4-1 5.2-1l12.8-1.6 6.8.6c1.4.2 3 .7 4.3.3 11.3-1.8 22.8-3.3 34.2-2.2q3 .3 6 1 3 .9 6 2.1c6-.7 12 .7 18 1.7q1.6.3 3.4.4l3.4-.7q3.6-.4 6.8.8c1.2.3 2.3 1.3 3.5 1.3a16 16 0 0 1 7.7-5.3q3 1.3 6 2.1" class="b"/><path d="M10 33.2a48 48 0 0 0 13.7 3q3-.6 6-1.5a68 68 0 0 1 23.1-1q1.8.4 3.4 1c.8.4 1.8 0 2.6-.3q1.7-.4 3.4-.5 6.5-.8 12.9-1.3 4.3.3 8.5.9 6-1 12-1.7c8.8-1 17.7-1.5 26.5-.7q6.8.5 12.8 3.5c5.5-.4 11 1 16.3 2q1.6.4 3.4.4l2.6-.6q3.4-.6 6.8.5c1.1.2 2.3 1.2 3.4 1.2.9-.6 1.8-1.7 2.6-2.5q2.3-1.9 5.1-3l3.4 1.5c1 .5 2.4 1 3.5.4" class="b"/><path d="M10 30.8c2.8 1 5.7 2.3 8.6 2.7q2.2.2 4.3-.4l8.5-1.5q7.7-1 15.4-1 4.5.1 8.6 1.6 1.3-.1 2.5-.4l2.6-.4q5.2-.5 10.3-.8 2.6-.4 5.1 0 3 0 6 .5 9-1.7 18-2.1c10.2-.6 20.8-1.7 30.7 1.2 2.1.5 4 1.8 6 2.4q4 0 7.7.7 4.8 1 9.4 1.9 3-.9 6-1a14 14 0 0 1 6 1.7 3 3 0 0 0 1.7-.4l.9-1q2.6-2.7 6-4.1l5.1 2.4q1.3-.3 2.6-.7" class="b"/><path d="M10 28c3.4 1 6.8 2 10.3 2 6.6-.4 13.1-1.6 19.7-1.8 3.4-.1 6.9-.3 10.3.3q2.2.3 4.2 1.1l4.3-.6c4.3-.5 8.6-.5 12.8-.9 2.9-.1 5.8.4 8.6.5 4.7-1.2 9.7-1.4 14.5-1.7 10.8-.4 21.8-2 32.5 0q5 1 9.4 3.4c5.3 0 10.4 1.4 15.4 2.6 1.1.4 2.4-.2 3.4-.5q2.6-.5 5.2-.2 1.7.3 3.4 1c.6.5 1.8.5 2.6.2q2.7-3.4 6.8-5.4l5.1 2.8q1.8-.6 3.5-1" class="b"/><path d="M10 26.1c1.2.4 2.4-.3 3.5-.3q4.6 1.2 9.4.8 6.5-.4 12.8-.9 5.6.4 11.1 0 3.5.2 6.9 1.4 6.3-1.2 12.8-1c2 0 4-.4 6-.3l3.4.2q1.3.3 2.6 0c7.3-1.5 14.8-1.2 22.2-1.7 8.5-.4 17.2-1.4 25.7 0q5.3 1 10.2 3.6c5 0 9.8 1.5 14.6 2.7 1 .5 2.3-.2 3.4-.5a15 15 0 0 1 7.7.4l1.7.7h1.7a20 20 0 0 1 6.9-5.5q2.6 1.4 5 3 2.2-.9 4.4-1.1" class="b"/><path d="M10 23.8c.9.3 1.8.8 2.6.6q2.6-.6 5.2-.9c2-.1 4 .2 6 0q4.5-.1 9.4.2 5.5.4 11 .1c1.5 0 3-.4 4.4-.4 1.4.2 2.8.9 4.2 1q7.2-.9 14.6-.7l4.3-.2c1.3 0 2.9.4 4.2.3 6.8-1.5 13.7-1.4 20.6-1.6 10-.3 20-1.9 29.9-.3a33 33 0 0 1 9.4 3.5c5 0 9.8 1.4 14.5 2.8.8.4 1.9 0 2.6-.3q1.6-.5 3.4-.6 2.6 0 5.2.7c1 .3 2.2 1.2 3.4 1q2.9-3.5 6.8-5.5c1.8.7 3.5 2 5.1 3 1.7-.2 3.5-1 5.2-1" class="b"/><path d="M10 21.5c1.7.5 3.4 1.9 5.2 1q4.3-1 8.5-1c7.7.2 15.5 1 23.1-.1l1.7-.3c1.1.2 2.3.8 3.5.8q4.6-.5 9.4-.6l6 .1 3.4-.2 2.6.4q3.7-.7 7.6-1.2c6.3-.6 12.6-.3 18.9-.6 6.5-.3 13-1 19.6-.8q4.8 0 9.4 1.3c2.1.5 4 1.8 6 2.5q5.8 0 11.2 1.8 2 .8 4.2 1.2 1.3-.5 2.6-.7 3.4-.8 6.8 0c1.5.3 3 1.2 4.3 1.6 2-2.2 4.2-4.3 6.9-5.5 2.1.6 3.9 2.5 6 3.3q2.5-1 5-1" class="b"/><path d="M10 19.2q1.8.7 3.5 1.3 1.2.6 2.6.8 4.6-1.2 9.4-1.3 8.1.2 16.2-.1l4.3-.5c1-.2 2.4-.8 3.4-.3s2.3.2 3.4.1l4.3-.2c3.1-.2 6.3.2 9.4 0a14 14 0 0 1 5.2.3q5-1.2 10.2-1.5c6-.3 12 0 18-.2 6.2-.3 12.5-1 18.8-.9q4.3-.1 8.5 1 3.1.8 6 2.3 6.6.3 12.9 2.3l2.5.8 3.4-.8a17 17 0 0 1 11.2 1.9c2.1-1.8 4.2-4 6.8-5.2 1.6.2 3 1.4 4.3 2.2.7.5 1.6 1.3 2.5 1.3q2.6-.7 5.2-.9" class="b"/><path d="M10 17q3.9 1.5 7.8 2.8c7.2-2 14.8-1.1 22.2-1.8 2.9 0 5.7-1 8.5-1.3q1.7.4 3.5.1l4.2-.2c3.7 0 7.5.4 11.2 0l2.5.5q2.6-.7 5.2-1.1 4.6-.7 9.4-.7c5.4 0 10.8.3 16.2 0 5.7-.2 11.4-1 17.1-.8q4.8-.1 9.4 1 1.4.4 2.6 1c.7.3 1.7.9 2.6.8q6.6.4 12.8 2.4 1.2.6 2.6.6a22 22 0 0 1 11-.3l2.7.9.8.4h.9c1.6-1.5 4.6-4.6 6.8-4.5q2.2 1.1 4.3 2.5c.7.5 1.7 1.3 2.6 1.4q2.5-.6 5.1-.7" class="b"/></svg>