<svg xmlns="http://www.w3.org/2000/svg" id="a" width="1920" height="2400" viewBox="0 0 192 240"><defs><style>.b{fill:none;stroke:#fff;stroke-miterlimit:10;stroke-width:.3px}</style></defs><path d="M0 0h192v240H0z" style="stroke-width:0"/><path d="M9.2 221a44 44 0 0 1 13 1.8c10.4-4.6 21.8-2.4 32.8-1.7l4.3-1.1 3.4.9c2 0 4-.9 6-.9 2.7.7 5.2 1.9 7.9 2.4q5 1.1 10.3.9 10-.1 19.9 1c4 .2 8 1.3 12.1 1.3 1.7-.1 3.6.2 5.2-.2 5-2.1 10.3-3.3 15.5-4.4 2-.3 4-1 6-1q4.2.9 7.9 3c2.8-1 5.7-2.3 8.6-3 3.4.4 6.5 2.4 8.6 5h.9c3-2.9 7.3-4 11.2-3.2" class="b"/><path d="M9.2 219q6.2-.2 12 1.6c1.5-.4 3-1.3 4.4-1.7q3.4-1 6.9-1.5l5.2.3 8.6-.2q4.4.5 8.6.7c1.2.2 2.4-.4 3.5-.6l2.6.7 3.5-.3c1-.2 2.3-.6 3.4-.2 2.7.5 5.1 2 7.8 2.5q5.2 1.1 10.4 1 10.3-.2 20.7.7 4.8.4 9.5.9 3.4.4 7 .3c6.7-3 14.2-4.2 21.5-5.3 2.3-.5 4.7.5 7 1 1 .3 2.2 1.3 3.4 1.1q3.9-1.2 7.8-2.3 5 .5 8.6 4h.9c2.8-2.4 6.7-3.6 10.3-3.1" class="b"/><path d="M9.2 216.9q5.2-.2 10.3 1.3c1.6.8 3-.7 4.4-1.2q2-1 4.3-1.4 1.6-.6 3.4-.3c6.6 1 13.3.6 19.9.1q2.2-.1 4.3.1l1.8-.1q.8.3 1.7.2c2 .1 4-.4 6-.3 2.7.3 5.3 1.4 7.8 2.3q3.8 1.2 7.8 1.5c6.6.5 13.2.2 19.9.4s13.2.8 19.8 1l2.6.1 1.8-.6q3-1.2 6-2 7.3-1.8 14.7-2.5 1.7-.3 3.5.2a41 41 0 0 1 6.9 1.7l1.7-.4 5.2-1.4c1-.4 2.4 0 3.4.2a15 15 0 0 1 6 2.7c1.3.1 2.4-1 3.5-1.5q3.3-1.7 7-1.8" class="b"/><path d="M9.2 214.8q5.8 0 11.2 1.8a24 24 0 0 1 8.6-3.8c3.5.4 7 1.3 10.4 1.3q7.8.1 15.6-1 1.3-.2 2.5 0 4.9-.3 9.5.6c2.4.5 4.7 1.5 7 2.1q4.6 1.3 9.5 1.5c5.7.3 11.5 0 17.2.1 6.6 0 13.3.4 19.9.4h3.5a73 73 0 0 1 22.4-4.8q4 .4 7.8 1.1l2.6.7 6-1.3c2.6-.9 5.4 0 7.8.9 1.2.3 2.3 1.2 3.5 1.2q2.8-1.7 6-2.6l2.6.7" class="b"/><path d="M9.2 212.9a25 25 0 0 1 6.9.6c1.4.3 2.9 1 4.3 1.1q3.4-2.8 7.8-4c1-.4 2.3.3 3.4.4q3 .8 6 1a49 49 0 0 0 16.5-1.3c.8 0 1.8.4 2.6.4a42 42 0 0 1 9.5.5c2.6.4 5.2 1.5 7.8 2.2q4.2 1 8.6 1.4c5.7.5 11.5.2 17.3.2l19.8-.1 5.2-.2q3.4-1 7-2a101 101 0 0 1 13.8-2.3q3 .1 6 .5l3.5.4c1 .2 2.3.7 3.4.4l7.8-1.4 5.2 1c1 .3 2.3 1 3.5 1.1 1.6-.6 3.4-1.6 5.1-2q1.4.1 2.6.7" class="b"/><path d="M9.2 210.7q1.2.4 2.6.3a25 25 0 0 1 6 1.2c.8.2 1.8.7 2.6.7q3.6-3.6 8.6-4.8 3.4.8 7 1.6c3 .4 6.4.9 9.4 0q3.4-.9 7-1.4l2.5.5c1.1.3 2.4.1 3.5.2q3 0 6 .3 4.5.6 8.7 2 4.2 1.2 8.6 1.7c5.8.6 11.6.4 17.3.3q9.5 0 19-.4 4.3-.2 8.7-.5a70 70 0 0 1 13.8-3.3c2.3-.2 4.6-.8 6.9-.6l7.8.7c1.4.2 3 .6 4.3.3 2.9-.3 5.8-1 8.6-1q4 .3 7.8 1.7l5.2-1.8q1 0 1.7.4" class="b"/><path d="M9.2 207.7c1 .4 2.2 1.4 3.4 1.6q4.1.4 7.8 2.3a17 17 0 0 1 8.6-5.5c1.4-.6 3 .4 4.4.6q3.8.9 7.7 1.2c3.2-.6 6.4-1.7 9.5-1.8l4.4.7h4.3q4.8 0 9.5 1 6.3 2.1 13 3c11.4 1 23 .3 34.5-.2l11.2-.7q8.5-2.7 17.3-3.6c2-.4 4 .1 6 .2l7.8.7q5.3-.6 10.4-1c1.7-.2 3.5.3 5.2.5 1 .2 2.3.7 3.5.6 1.6-.3 3.4-1 5.1-1.1" class="b"/><path d="M9.2 204.6q1.7.7 3.4 1.7c.8.5 1.7 1.4 2.6 1.7q2.3.6 4.3 1.4h1.8c1.2-.8 2.2-2.2 3.4-3q3.1-2.2 7-2.9 3 1 6 1.4c1 .2 2.4.5 3.4.2l7-1.4c2.5.4 5.1 1.1 7.7.9q6.1-.2 12.1.8c4.6 1 9.2 2.4 13.9 2.9a190 190 0 0 0 34.5 0l13-1q7.6-2.4 15.5-3.2 3-.4 6 0 4 .2 7.9.6c3.1 0 6.3-.5 9.5-.7 2.2-.1 4.6-.4 6.9 0 1.4.2 2.9.7 4.3.7l3.5-.7" class="b"/><path d="M9.2 201.7c3.3.8 6.3 2.9 8.6 5.4H23q4.2-4.6 10.4-5.7c2.2.2 4.6 1 6.9 1q1.6-.2 3.4-.5c2.6-.9 5.2.3 7.8.4q5.6-.2 11.2 0c6.8.4 13.2 2.8 19.9 3.4q16.8 2 33.7.5l13.8-1.3q8.1-2.1 16.4-3.2c2-.4 4.1-.1 6 0q4.5.5 8.7.5 7.8-.5 15.6-.7c2 0 4 .8 6 .4" class="b"/><path d="M9.2 199a17 17 0 0 1 10.3 5.8h5.2c1-.5 1.8-1.6 2.6-2.2q1.6-1.2 3.5-2 3-1 6-1.5l3.5.5c1.4.3 2.9-.2 4.3-.4q1.6.3 3.5.5c6 0 12-.3 18.1.4 6 .8 12 2.4 18.2 3.1q16.3 2.4 32.8.8l14.7-1.5c5.4-1.2 10.9-2.5 16.4-3.1 2-.4 4-.1 6 0l7 .5q7.7-.5 15.5-.3c2 0 4-.8 6-.3" class="b"/><path d="M9.2 196.4c4.5.3 9 2.5 12 5.8 2 .6 4.1.2 6.1.3 6.2-6.9 17.5-5.4 26-5.6q6.8-.1 13.8.5c6.6 1 13.2 2.4 19.8 3.3q16 2.6 32 1 7.4-.7 14.7-1.6 8.1-2 16.4-3 2.6-.4 5.2-.1l6.9.4q4.8-.1 9.5-.1h11.2" class="b"/><path d="M9.2 194q5.5 0 10.3 3c1.6.7 3 2.2 4.4 3.2h4.3q2.2-1.3 4.3-2.3 4.6-2 9.5-3c1.4-.6 3 0 4.3.2 6.6-.3 13.3-.2 19.9-.6 8.4 1 16.7 2.7 25 4 2 .4 4.1.2 6 .3q5 .2 9.6 1c2.2.6 4.6.3 6.9.3q4.8-.2 9.5-.6l10.4-1.3q8.4-2.3 17.3-3.3 3-.5 6-.2l8.6.4 7.8-.1q4.8-.3 9.5-.2" class="b"/><path d="M9.2 191.7a22 22 0 0 1 16.4 6q1.3.3 2.6.1 2-1.2 4.3-2.2 5-2.1 10.4-3.3c2 0 4 .7 6 1.2q2.6 0 5.2-.1 6-.1 12-.7c2.4 0 4.7-.7 7-.3q8.7 1.3 17.3 3c2.5.5 5.2 0 7.8.4q6.5.4 13 2c5.7 0 11.5.2 17.2-.7l4.3-.6q3.4-1 7-1.8 6.8-1.6 13.8-2.2c4.5-.6 9.2.2 13.8 0 5.1.2 10.3-.4 15.5-.3" class="b"/><path d="M9.2 189.7q10.6-1 19 5.7a57 57 0 0 1 15.5-5.6l7.8 2.2c1.4.3 3 0 4.3 0l7.8-.5 8.6-1 4.4-.5q2.2 0 4.3.6l12 2.1a73 73 0 0 1 17.4 2c1.3.3 2.8 1 4.3.8 6-.1 12.2.6 18.1-.9a90 90 0 0 1 32-4.6h9.5q4.4.2 8.6.2" class="b"/><path d="M9.2 188a27 27 0 0 1 18.1 3c.8.4 1.6 1.3 2.6 1.2a81 81 0 0 1 13.8-4.5c3.8.5 7.6 2 11.2 3.2q12.6-.9 25.1-3c1.7-.5 3.5 0 5.2.3l7.8 1.5q2 .5 4.3.3l6.9.6q5.8.8 11.2 2.6H131q2.2-.7 4.3-1.6 5.5-1.7 11.2-2.6 11.2-1.5 22.5-1.3c4.6 0 9.2.6 13.8.6" class="b"/><path d="M9.2 187c4.6-1.8 9.9-1.4 14.7-.4 2.3.7 4.6 2 6.9 2.8q6.8-2.4 13.8-4a72 72 0 0 1 13 4c2 .1 4-.4 6-.5a138 138 0 0 0 19.9-3.1c1-.2 2.3-.6 3.4-.4l9.5 2q5.7 0 11.2.9c3.3.4 6.5 1.6 9.5 2.6H131c.8.1 1.8-.5 2.6-.8l4.3-1.5q6.3-1.8 13-2.4 11.2-1 22.4-.3 4.8-.1 9.5.4" class="b"/><path d="m9.2 184.3 3.4 1a27 27 0 0 1 18.2 1.3q1.7 0 3.4-.7l5.2-1.4 6-1.5a101 101 0 0 1 15.6 5q9.2-.7 18.2-2.7c3.7-.7 7.4-1.8 11.2-2.2q3.9.7 7.8 1.7c2.5.2 5.2.1 7.7.5q4.6.4 8.7 1.8c1.4.4 2.9 1.2 4.3 1.5h11.2c1.1 0 2.5.2 3.5-.4q7.1-2.9 14.7-4a111 111 0 0 1 23.3-.5c3.7-.1 7.5-.5 11.3 0" class="b"/><path d="M9.2 181.8q4.2 1 8.6 2.2a23 23 0 0 1 12.1.2c1.4.2 3-.4 4.3-.6l7.8-2 4.3-.9q2.6.3 5.2 1l10.4 3 4.3 1.5 3.4-.3c8-.8 15.6-3.4 23.4-5 1.4-.3 3 .4 4.3.7l3.5.9h2.5a45 45 0 0 1 14.7 3c.8.2 1.8.9 2.6.8h12.1c.5 0 1.4-.3 1.8-.5q1.6-.8 3.4-1.3 6-1.9 12.1-2.7 10.8-1.4 21.6-.2c3.7-.3 7.5-.8 11.2-.6" class="b"/><path d="M9.2 179.7c13.7 3 17.2 4.1 31 .4l8.7-1.8q6 1 12.1 2.5 6.5 1.5 13 3.2c2.9.1 5.8-.9 8.6-1.6q6-1.9 12.1-3.5 1.3-.4 2.6-.4 3 .9 6 1.6 7.6-.1 14.7 2.5 1.8.6 3.5 1.4h8.6q2.2.1 4.4-.1 4.1-2 8.6-2.8c4.8-1.3 9.8-1.8 14.7-2.3q7-.5 13.8.7 2.2-.2 4.3-.5 3.5-.5 7-.6" class="b"/><path d="M9.2 176.7q2.2 1 4.3 2.4l4.3.8q7.3 1.3 14.7.2 7.4-1.3 14.7-3c2.8-.4 5.8-1.3 8.6-.7l11.3 1.6a45 45 0 0 1 12 3c.8.3 1.8.8 2.6.7 1.8-.2 3.5-1 5.2-1.6l8.7-2.9c1.6-.4 3.4-1.4 5.1-.8 2.3.6 4.6 1.7 7 1.5q5.2.3 10.3 2c1.5.4 2.8 1.5 4.3 1.8h9.5q1.8 0 3.5-.2 3-1.2 6-2 7.4-1.7 14.7-2.7c5.5-1 11-.5 16.5.6 3.4-.3 6.8-1.4 10.3-1.2" class="b"/><path d="M9.2 175.8q2-1.4 4.3-2c4.4 1.5 8.5 4 13 5.6h4.3q4.4-.7 8.6-1.8a170 170 0 0 1 22.5-3.9l5.2.6q8 .6 15.5 3.5c1.4.6 2.7 2 4.3 1.4q4.3-1.8 8.7-3.4l4.3-1.5c.8-.2 1.8-.7 2.6-.3 1.7.4 3.4 1.2 5.2 1.6q2 0 4.3.2a25 25 0 0 1 10.3 3.6h11.3c3.4-1 7-1.4 10.3-2.2q4.4-1.2 8.7-2 6-1.5 12-1.4c3.3.2 6.5 1 9.6 1.5q4.2-1 8.6-1.5" class="b"/><path d="M9.2 177h.8c1-.4 1.8-1.5 2.6-2q1.6-1.4 3.5-2.2c1-.5 2.3-1.2 3.4-1.3q.9.1 1.8.5a87 87 0 0 0 19.8 4.8q3.9-1.2 7.8-2c7.4-1.7 15-2.5 22.5-3.3q4.4.6 8.6 1.8 4.6 1.1 8.7 3.7c1.7-.1 3.5-1.4 5.1-2q4.7-1.9 9.5-3.5c2.1.3 4 1.4 6.1 2q6.4-.3 12.1 3 1.2.8 2.6.6h6.9l6-1.5q6-1.4 12.2-1.6c4.5-1.2 9-2.8 13.8-2.5 4.4-.3 8.7.6 13 1.7q3.4-.8 6.8-1.4" class="b"/><path d="M9.2 174.6c1.9.4 4 0 6 .2a20 20 0 0 1 9.5-5.6q1.8.1 3.5.7 6.3 1.9 13 3l6 1c1 0 2.4.6 3.4.3q3.5-1 7-1.7c6-1.2 12.1-2 18.1-3.4 5.3 1.4 11 2.4 15.6 5.6q6.7-3.1 13.8-5.5c2 .5 4 1.6 6 2a20 20 0 0 1 9.5 2.4c.8.4 1.7 1.2 2.6 1.2l6-.1c4.3-1.3 8.6-2.6 13-3q4.8-.6 9.5-.7 3.4-1.1 7-1.8 2 .1 4.3.4l5.1-.1c1.1 0 2.4-.5 3.5-.2l4.3 1q1.3.5 2.6.5l4.3-1" class="b"/><path d="M9.2 168.7q2.4 1.4 4.3 3.6 1.3 0 2.6-.6 2.5-.7 5.1-1 2.8-2 6.1-3l2.6-1c.4.2 1.3.3 1.7.4 5.4 1.6 11 2.6 16.4 3.9l5.2 1.3q1.7.2 3.5.1 2.5-.9 5.2-1.6 5.1-1.5 10.3-2.6c2-.4 4-1.2 6-1.4 5.1 1.3 10.3 2.5 14.8 5.3q4.4-1.6 8.6-3.5c1.7-.5 3.4-1.6 5.2-1.6 2 .6 4 1.8 6 2.2a20 20 0 0 1 9.5 3.2c1.7 0 3.6.3 5.2-.2 3.7-1 7.4-2.3 11.2-3a57 57 0 0 1 13.9-.9l2.6-.7c.7-.3 1.8-.5 2.5-.7l4.4.8q4.3.7 8.6-.1c1.4-.1 3-1 4.3-.6q2.6.6 5.2 1.6 1.3-.2 2.6-.6" class="b"/><path d="M9.2 165q2.2.6 4.3 1.8 1.2 1 2.6 2a27 27 0 0 1 7.7-1.9q1.8.2 3.5 0 3-1.5 6-2.3c2.4 0 4.7 1 7 1.5l10.3 2.8 3.5 1.1q1.7.2 3.5.1H61l2.6-1 9.5-3c2-.5 4-1.4 6-1.5l7 2q4 .7 7.7 2.8 5-1.3 9.5-3.3c4.2-1.6 3.6-2 7.8-.1l2.6 1.2q2.7.3 5.2 1.4 1.4.6 2.6 1.4c3.2.7 6.5-.7 9.5-1.7a56 56 0 0 1 22.5-2.8q1.3-.2 2.5-.7c1.4-.6 3 .4 4.4.7q3 .9 6 1 3 .3 6-.7c1.7-.4 3.5-1.2 5.2-1.2l5.2 1.5" class="b"/><path d="M9.2 162.1c3 .5 6.2 1.7 8.6 3.7l.9.1c3.7-1.7 8-2.3 12-2q2.7-.8 5.2-1.6c4.7.7 9.3 2.4 13.9 3.7 2 .5 4 1.6 6 1.8h7q6.6-3 13.7-5 1.3-.7 2.6-.4l4.4 1.2c2.8 1 5.8 1.4 8.6 2.4 1.6.8 3.5.2 5.2-.1 3.9-.6 7.4-2.6 11.2-3.6 3.2 1 6.2 3 9.5 4q1.6.8 3.5 1.2c3 .4 5.9-.7 8.6-1.7q3.8-1.6 7.8-2.4 8.1-2 16.4-.7l1.7-.4c1.2-.2 2.4.6 3.5.9 2.5 1 5 2 7.8 2.1 3.5.3 7-1.2 10.3-2.2q1.7-.6 3.5-.8l1.7.5" class="b"/><path d="M9.2 160.2c2.6-.3 5.4.5 7.7 1.6 1.2.6 2.3 1.6 3.5 2.1a22 22 0 0 1 13-2.5l4.3-1.4q6.6 1.3 13 3.6c2.7.8 5.6 2.2 8.6 2 1.4-.2 3 .3 4.3-.5q4.6-2.5 9.5-4.1c1.7-.5 3.5-1.4 5.2-.7l7.8 2.1 6.9.3a26 26 0 0 0 13.8-2c1-.3 2.4-1 3.5-.4 3.2 1.2 6.2 3.2 9.5 4.3 3.5 1.2 7.1-.2 10.3-1.6a43 43 0 0 1 11.3-3.2c2.2 0 4.6.4 6.9.3q3 0 6-.4c.4.2 1.3.2 1.8.1l4.3 1.5q4.3 1.2 8.6 2.9c2 .5 4.2-.5 6-1.1q3.9-1.6 7.8-2.8" class="b"/><path d="M9.2 158c1 .7 2.3.2 3.4.3q3.1.2 6 1.6c1.2.6 2.4 1.6 3.5 2.1 3.5-2.3 8-3.1 12.1-2.9 1.8-.2 3.4-1.4 5.2-1.4l11.2 3c3.5.9 10.6 2.9 13.9 1a43 43 0 0 1 10.3-4c1.7.3 3.5 1.3 5.2 1.1q5.6-.7 11.3 0c3 .3 6.3 1 9.5.9q4-.2 7.7-1.7c1.5-.8 3 .3 4.4.9 2.8 1.2 5.5 3 8.6 3.6 3.7.6 7-1.6 10.4-3q3.2-1.4 6.9-2.1 1.2.1 2.6.4a45 45 0 0 0 13 0l1.6-.3c1.2-.2 2.4.4 3.5.7l5.2 1.8c12.5 5 6 3.6 18.1-.9" class="b"/><path d="m9.2 155.8.8-.5q1.4.6 2.6 1.4c3.7-.5 7.6 1 10.4 3.4h.8c3-2 6.8-3 10.4-3 1.8.1 3.5-1.1 5.2-1.5 1.7-.6 3.5.5 5.2.8q4.6 1.3 9.5 2 5.6.8 11.2-.4 3.3-1.6 7-2.7c.7 0 1.7.5 2.5.5 1.7-.2 3.5-.7 5.2-.5q4.3.6 8.6.4c1.7 0 3.5-.6 5.2-.3 6.3 1.2 10.1 2.1 16.4-.2q3.6 1.4 7 3.2c2 1 4.4 2.2 6.8 1.8 2.5-.5 4.7-1.8 7-3a25 25 0 0 1 6-2.1l1.7.3q5.2 1.1 10.4 1.3c2.4.2 4.6-2.2 7-1q1.2-.4 2.5-.5 1.8.4 3.5 1.2 4 1.6 7.7 3.3l2.6 1.2h5.2q2.5-1.6 5.2-2.7" class="b"/><path d="M9.2 154c.7-.4 1.7-1 2.6-.9q1.3.7 2.5 1.7.9.3 1.8.2 1.3.1 2.6.5 1.8.5 3.4 1.5c.8.5 1.7 1.4 2.6 1.6.9-.2 1.8-1 2.6-1.4q3-1.5 6-1.7 1.5.1 2.6-.4a29 29 0 0 1 6-2l2.7.5 5.2 1.2a37 37 0 0 0 19.8-1.5q.9-.4 1.8-.1c.7-.3 1.8-.4 2.5-.1q4.4 1 8.7 1.5 5.2.7 10.4-.2L98 153q1.4-.3 2.6.2 2.6.6 5.2.5 2.2-.1 4.3-.8c1.2-.2 2.4.7 3.5 1.1l5.2 2.7c5 2.9 8.5 0 13-2.4q2-1.2 4.3-1.5l2.5.5q4.4 1 8.7 1.5l4.3-1.4 1.7-.6q1.4.2 2.6.8 1.8-.3 3.5-.8 4.5 1.4 8.6 3.6c1.4.6 2.8 1.7 4.3 2h8.7l1.7-1" class="b"/><path d="M9.2 151.7c1-.3 2.3-1 3.4-1q2.3 1.3 4.3 2.8 3.3.3 6 2c1.2 1.1 3 .7 4.4.8q3.1-2.2 7-2.4c1-.3 2.3-1.1 3.4-1.5q2.4-1.1 5.2-1.6c2.5.2 5.2 1 7.7 1.3q4.8.6 9.5.2c11.3-1.5 5.7-2.8 17.3.5a28 28 0 0 0 17.3.6q3.4-1.4 7-2.5c1-.4 2.3-.1 3.4 0a18 18 0 0 0 6-.3l1.7.5c3.9 1.3 7 5 11.3 4.9 1.7-1.4 3.7-2.8 6-3 1.7-.8 3.4-2 5.2-2.4l8.6 1.9q1.8.3 3.5-.4l4.3-1.3q.9-.3 1.8 0l2.5 1c1.5-.3 3-1 4.4-1.1a42 42 0 0 1 10.3 5q.8.4 1.8.6h10.3" class="b"/><path d="M9.2 149.2q1.6-.3 3.4-.9c2.6.8 4.7 2.7 7 4 1.4.3 2.8 1.2 4.3 1.7H29q1.3-.6 2.6-1l1.7-.5q1.4-.6 2.6-1.4 2.2-1 4.4-1.7 2-.8 4.3-1 3 .7 6 1a40 40 0 0 0 14.7-1q1.3-.3 2.6.2 5.3 1.7 10.4 3.6l5.2 1.8h7.7q1.4 0 2.6-.3c4.3-1.9 8.3-4.6 13-5.3h5.2c1.7.5 3.7 1.1 5.2 2.2 1.9 1.1 3.7 3.2 6 3.4 2-2.2 4.7-4.3 7.8-4.3 1.5.3 2.9-1 4.3-1.4l7.8 1.8q3.9-.7 7.8-1.8c1 .2 2.4.6 3.4 1q1.3.6 2.6.2 1.7-.6 3.5-1c4 .8 7.8 3.1 11.2 5.5h11.2" class="b"/><path d="M9.2 146.5c1 0 2.3-.4 3.4-.4q3.4 1 6 3.1c1.2.7 2.2 2.1 3.5 2.5h7c.7 0 1.8 0 2.5-.2l1.8-1.1q2-1.4 4.3-2.3a36 36 0 0 1 6.9-2q1.7.1 3.5.4l5.1.5q4.8 0 9.5-.9c1.1-.4 2.4.4 3.5 0 3 1 5.8 2.5 8.6 3.7l2.6 1.3a3 3 0 0 0 1.7.6h19.1l2.5-1.7c5.5-3.7 11.3-5.5 17.3-1.9l3.5 2.7.8.7.9.1c1.8-2.5 4.6-4.7 7.8-5.2q1.6 0 3.4.2a4 4 0 0 1 1.8-.5c3.6 1.3 7.5.8 11.2.1 2.6-.6 5.3.9 7.8 1.4l5.2-1.5c4 .8 7.8 3.3 11.2 5.5h11.2" class="b"/><path d="M9.2 143.8c4.9-.4 9.2 2.7 13 5.6h8.6q1-.2 1.7-1l1.7-1a31 31 0 0 1 11.2-3.6q4.4.6 8.7.6 2.6 0 5.2-.3c1.4-.3 2.9-.6 4.3-.1l1.7-.2A58 58 0 0 1 74 148c1 .7 2.1 1.7 3.4 1.5h24.2q1.4-1 2.6-2a18 18 0 0 1 4.3-2.4c5.4-2.3 10.8 0 14.7 4 1-.5 1.8-1.8 2.6-2.6a16 16 0 0 1 4.3-2.7q3.4.9 7 .1 1.2.1 2.5 0l5.2.1q4.5.3 8.6 1.6l6-1.5c.9-.4 2 .1 2.7.4q2.2.7 4.3 1.9c1.8.8 3.4 2.3 5.2 3h11.2" class="b"/><path d="M9.2 141.6c4.8.1 9.2 2.7 13 5.4h8.6c4-3.3 9.5-4.8 14.7-5.6a51 51 0 0 0 14.6 0l2.6.3 1.8-.3q5.5 1.8 10.3 5.2 1.2.7 2.6.4H81q5.2.1 10.4-.3 1.6 0 3.4.3H99c2 0 4.2.3 6-.2 5.7-6 13.1-6.5 19-.6 1.5-1.2 2.7-3 4.4-4 1.3-1 2.2-.3 3.5.2q1.6.5 3.4.4c3.2-2 3.6-1 7-.4q2 .3 4.3.3c1.4 0 2.9.5 4.3.3 2.9-.2 5.8-1 8.6-1.5 4 1 8 2.9 11.2 5.5h12.1" class="b"/><path d="M9.2 139.6c4.7.2 9 2.9 13 5.1q3.8.1 7.7 0c4.2-3.2 9.5-4.7 14.7-5.5q3.9.5 7.8.5t7.8-.6c.7 0 1.8.4 2.5.3 1.1-.6 2.4 0 3.5.4q3.2 1.1 6 2.9c1.2.6 2.3 1.6 3.5 2h7c1.7.2 3.4-1 5.1-1.2q4.3-.9 8.6 0 1.4.2 2.6.8c.4.3 1.3.5 1.8.4 2.2 0 4.7.3 6.9-.2q3.2-3.6 7.7-4.6c3.5-.5 7 1 9.5 3.2.7 0 1.4-.7 1.8-1.2a9 9 0 0 1 3.4-2.7c6.7 4.3 4.6 1.3 10.4 0a35 35 0 0 0 17.3 0 34 34 0 0 1 10.4 4c.7.6 1.6 1.5 2.6 1.5h12" class="b"/><path d="M9.2 137.6c4.3.5 8.4 2.5 12 4.8h7q6-3.7 13-5.2c2-.6 4-.1 6 0q3.8.5 7.8.2 2.5-.2 5.1-.6c1.1.2 2.4.5 3.5 0a36 36 0 0 1 12.1 5.6h6q2.6-1.3 5.2-1.9c5.1-1 11-1.2 15.6 1.6 1.3.6 3 .2 4.3.3 1.1 0 2.5.3 3.5-.4 2.2-2.6 5.9-4.6 9.5-4.3q2.2 0 4.3 1.3 1.2.8 2.6 1.5a28 28 0 0 1 3.4-3.4l.9-.1c1.6 1.2 3.2 2.7 5.2 3.1.9-.3 1.8-1.1 2.6-1.6a13 13 0 0 1 5.1-1.7 35 35 0 0 0 10.4 0q3 .1 6 1.2 4.7 1.3 8.7 4.2c1.6.5 3.5.1 5.2.2h8.6" class="b"/><path d="M9.2 135.7q6 1.2 11.2 4.4h4.3q1.4.1 2.6-.3a36 36 0 0 1 13-5c1.6-.5 3.5 0 5.1.2a53 53 0 0 0 12.1 0c1.4-.2 3-.8 4.4-.3.4.1 1.3 0 1.7-.2l1.7.4q5.6 1.5 10.4 4.7c1.1.9 2.9.4 4.3.5q1 0 1.7-.6l2.6-1.2q4.3-1.4 8.7-1.4c3.5 0 7.1.3 10.3 1.8l2.6 1.4h6c1.5-1 2.7-2.6 4.4-3.4 3.6-2 7.8-1.6 11.2.8l.9-.1c1-1 2-2.4 3.4-2.8 1.7 1.3 3.3 3 5.2 4 1.2-.5 2.3-1.5 3.5-2q3.7-1.5 7.8-1.9c6.9-.2 14 1.4 19.8 5.4h14.7" class="b"/><path d="M9.2 133.9q5 1.2 9.5 3.7c1.6.5 3.5.1 5.1.2 1 .2 2-.5 2.6-1a43 43 0 0 1 10.4-4q2.6-.7 5.2-.3a54 54 0 0 0 17.3 0q1.6-.4 3.4 0 1.8-.4 3.5.3l4.3 1.4a33 33 0 0 1 7 3.5H80c6.1-4.3 15.4-3.9 22.5-2.5 1 .3 2.4.7 3.4 1.2.8.4 1.8 1.2 2.6 1.4h6c3.7-4.5 9.7-6.3 14.8-3 1.3-.3 2.3-1.8 3.4-2.6 2 1 3.4 3 5.2 4.3 1.5-.3 2.9-1.4 4.3-1.8q5.1-1.6 10.4-1.2 4.9.3 9.5 2c1.8.6 3.4 1.9 5.2 2.3h15.5" class="b"/><path d="m9.2 132.2 6 2 2.6 1.3h4.3c.9-.1 1.9-.8 2.6-1.2a58 58 0 0 1 11.2-4q2.2-.5 4.4 0a55 55 0 0 0 21.6-.4l1.7.2c.4-.1 1.3-.2 1.7 0q7.3 1.4 13.8 5.3c1.5-.5 2.8-1.7 4.4-2.2 3.8-1.4 8-1.5 12-1.3 5 .4 10.5.6 14.8 3.6h4.3q1.4.1 2.6-.4c3.2-4 9.2-5.8 13.8-3 1.4-.1 2.2-1.8 3.5-2.1 1.5 1 3 2.6 4.3 4 1.1.2 2.3-.7 3.4-.9q2.2-.6 4.4-.8a35 35 0 0 1 18.1 3q1.3.3 2.6.2h15.6" class="b"/><path d="M9.2 130.7q3.5 1 6.9 2.5c1.4-.1 3 .3 4.3-.3a66 66 0 0 1 14.7-5.2c1-.3 2.3.2 3.4.2 8.4 1.5 16 2.2 24.2-.3 1.1.5 2.4-.1 3.5 0q7.3 1.5 13.8 4.9c7.1-5 17-2.7 25-1.6q3.2.5 6.1 1.7 2.2.2 4.3.6h3.5q2.2-2.4 5.2-3.8a10 10 0 0 1 7.8-.4q.8.5 1.7.4c.7-.6 1.6-1.6 2.6-1.6 1.5 1 2.7 2.7 4.3 3.6a38 38 0 0 1 20.7 1c1.1.2 2.3 1 3.5.8h18.1" class="b"/><path d="m9.2 129.2 5.2 1.6 1.7-.2c2-.3 4-1.4 6-2q4.3-1.6 8.7-2.7 1.6-.5 3.4-.6l5.2.8q5.2 1 10.4 1.1 6.6.3 13-1.8a3 3 0 0 1 1.7.2q1.2-.1 2.6-.4 4 .8 7.7 2 3 1.1 6 2.2c7-4 15.2-1.7 22.6-.5q2 .3 4.3.1a45 45 0 0 1 10.3 1c1.1.3 2.4 1 3.5.7 3.2-4 9-5.8 13.8-3.7.7-.6 1.6-1.6 2.6-1.6q1.8 1.4 3.5 3.1c3.4-.2 7-.5 10.3 0 4.2.2 8.2 1.3 12.1 2.4h19" class="b"/><path d="M9.2 127.4c5 1.2 9.9-1.4 14.7-2.7l5.1-1.3c1.4-.3 3-.7 4.4-.3a92 92 0 0 0 20.7 2q4.8-.3 9.5-2c.4 0 1.3.2 1.7.4 1.4-.2 3-.8 4.3-.4q3.5.7 7 1.8 2.6 1 5.1 1.6c5.7-3 12.3-1.2 18.2.1a39 39 0 0 1 19 0c1.7.3 3.4 1.4 5.2 1.4a12 12 0 0 1 13-3.5c.8-.4 1.6-1.3 2.5-1.5 1.2.8 2.3 2 3.5 2.7q6.5-.3 13 .8c3.1.5 6.3 1.5 9.4 2h17.3" class="b"/><path d="M9.2 124.6q4.8.1 9.5-1.6 5.5-1.5 11.2-2.5 6 1.1 12 1.8 7 1.2 14 .6 2.5-.3 5-1.3c1.2-.2 2.4-1 3.6-.8q1.2.7 2.5.4l3.5-.6 2.6.5c3.2.7 6.3 1.9 9.5 2.6a17 17 0 0 1 9.5-.6c1.4.2 3 1 4.3.8 3.7-.8 7.4-1.8 11.2-2 6.6-.3 13 1.4 19 3.5 3.2-3 7.9-4.6 12.2-3.4.9-.1 1.7-1 2.5-1.4 3.6 2.7 2.4 2.2 7 2.4q4.2.1 8.6.8c4.3.6 8.6 1.7 13 2.4h13" class="b"/><path d="M9.2 121.6a36 36 0 0 0 7.7-1.3l9.5-1.9q1.8-.2 3.5.2l4.3.5c5.8.5 11.5 1.9 17.3 1.8 4.2.2 8.2-1 12.1-2.5q1.5.2 2.6.8c1.7 0 3.5-.5 5.2-.7 1.4-.3 3 .3 4.3.5l7.8 2q3-.8 6-.3c1.4.2 2.9.8 4.3.4 4.3-.9 8.6-2.1 13-2.6 7.7-.5 15.4 1.4 22.5 4.4q2-1.6 4.3-2.8c1.6-.3 3.5-.8 5.2-.6l1.7.2c1 0 1.8-1 2.6-1.4q1.5.8 2.6 1.8 7.4.2 14.7 1.1c7.4 1.4 15 2.3 22.4 1.3" class="b"/><path d="M9.2 118.5c2.3 0 4.6-.7 6.9-1l8.6-1.5c2-.1 4 .4 6 .5q5.3.5 10.4 1.2 6.5 1.2 13 .9c3.3-.2 6.4-1.7 9.5-2.5 1.1.3 2.3 1.2 3.5 1.1l5.1-.8q1.3-.3 2.6-.2c4.9.9 9.7 2.5 14.7 2.2 4.4-.4 8.6-1.7 13-2.4q4.2.7 8.6.8c2.6.2 5.2-.4 7.8-.7q6.7 1.5 13 4.4c1-.7 2.2-1.7 3.4-2.2q2.2-.7 4.3-1l2.6.2c1-.2 1.9-1 2.6-1.4q1.5.5 2.6 1.6c2.6.1 5.2-.2 7.8 0q5.2.4 10.4 1.1 8.6.9 17.2.1" class="b"/><path d="M9.2 115.6c4.8-.6 9.7-1.6 14.7-2l10.3 1c7.2.5 14.4 2.8 21.6 1.3 2.4-.5 4.6-1.7 7-2.1l3.4 1.5q4.3-.7 8.6-1.5 1.4 0 2.6.3l4.3.8q4.8 1 9.5.2l7-1.4c2.9.2 5.7 1.3 8.6 1.8q3.8.6 7.8.2 3.9-.7 7.8-1.9c1.7 0 3.5 1 5.1 1.5 2.4.8 4.6 2 7 2.7 2.6-2 6.1-2.9 9.4-2.6l2.6-1.6c1 .2 1.9 1 2.6 1.5q9-.4 18.2.5 7.8.2 15.5-.3" class="b"/><path d="M9.2 112.7q6.4-.9 13-1.3 6.8.4 13.7 1c5.8.7 11.5 2 17.3 1.3 2.7-.4 5.3-1.5 7.8-2.3 1.5.4 2.9 1.4 4.3 2q3.5-.8 7-1.3c1.3-.2 2.8-.7 4.2-.6q4.3.8 8.7 1 3.4 0 6.9-.6c1-.2 2.4-.6 3.5-.4a62 62 0 0 1 7.7 2.2c1.7-.3 3.5-1 5.2-1.2a17 17 0 0 1 7 .4c1 .3 2.2 1.2 3.4 1 2.2-.8 4.5-2 6.9-2.4q3 1 6 2.2 2.5 1.2 5.2 2 3.5-2.2 7.8-2.2 1.6-1.2 3.5-2 1.3.7 2.5 1.6c5.5-.7 11-.4 16.5-.3q7.8 0 15.5-.4" class="b"/><path d="M9.2 110q5.6-.7 11.2-1c5.2.5 10.4.6 15.5 1.2 5.5.7 11 1.7 16.5.9 2.3-.3 4.6-1.5 6.9-2q2.2 1 4.3 2.3l13-2.3q3.8.7 7.7.8 3.5-.2 7-.8c2.9.2 5.8 1.4 8.6 2.4q3.2-1.7 6.9-2.4 2.2.5 4.3.5 2.2 0 4.3-.4 3.4.7 6 2.7 2.3-1 4.4-2c1.2-.6 2.2-1 3.5-.3q3 1.1 6 2.4 2 1 4.3 1.3c.9-.1 1.8-.7 2.6-1l2.6-.5 4.3-2.5c1.3-.1 2.4 1.1 3.5 1.5 4.8-.8 9.8-.7 14.7-.8q7.8 0 15.5-.5" class="b"/><path d="M9.2 107.2q6.4-.8 13-.2 6.4.2 12.9.8c4.8.6 9.7 1.4 14.7 1q4-.4 7.7-2 3 .8 5.2 2.6 7.3-1.7 14.7-2.5c2-.2 4 .3 6 .1q2.3 0 4.4-.3c3.3.3 6.4 1.5 9.5 2.6q2.4-1.5 5.2-2.5c2.3.4 4.6 1.3 6.9 1.7 1.3.2 3 .3 4.3 0 6.8-1.3 3.9-3.1 10.4 1.2 1.8-1.2 3.8-2.7 6-2.8q2.7 1 5.2 2c6.8 3.3 9.5 1.3 15.6-2 1.2.2 2.4 1.1 3.4 1.7q1.8 0 3.5-.4l6-.6q5.3-.3 10.4-.5c2.8 0 5.8-.4 8.6-.3" class="b"/><path d="M9.2 104.5q11.2 0 22.4.7c4.6.3 9.2 1.4 13.8 1.4a24 24 0 0 0 10.4-1.7q.9-.5 1.8-.2c6 2.4 2.5 3.2 9.4 1.6a126 126 0 0 1 13.9-1.6q7.2-.5 13.8 2.5c1 0 1.8-.9 2.6-1.3 1.3-.7 2.9-2 4.3-1 3.9 1.4 7.9 3.4 12.1 3 2.8-.4 5.3-2 7.8-3.3 1.6.3 3 1.8 4.3 2.8 2-.9 3.8-2.7 6-2.8l2.6 1c2 .5 4 1.5 6 2 4.6 1.2 8.3-1.1 12.2-3 1.5.3 3 1.3 4.3 2 1.1.4 2.4-.2 3.5-.4l4.3-.6q4.8-.5 9.5-.9 4.3-.4 8.6 0" class="b"/><path d="M9.2 102.5q11.7-.5 23.3.4c5.7.7 11.5 2 17.3 1.2 2.3-.3 4.6-1.3 6.9-2l3.4 1.7c.8.5 1.7 1.3 2.6 1.5 4.5-1.2 9.2-1.6 13.8-2 5.6-.6 11.3-.6 16.5 2q1-.2 1.7-.9c1.3-.9 2.7-2 4.3-2.2 3.8 1.5 7.3 3.8 11.2 4.8q2.7-.7 5.2-.2c1.3.1 2.5-1 3.5-1.5 1.7-.9 3.3-2.5 5.2-3q1.8 1.3 3.4 2.8c1.3-.3 2.3-1.4 3.5-2 1-.4 2.3-1.2 3.4-.5 9.4 3.1 10.7 4 20-.3 2 .5 4 1.8 6 2.8q6.3-1.7 13-2.3c3-.3 6.3-.8 9.4-.4" class="b"/><path d="M9.2 100.3a149 149 0 0 1 23.3.3c5.7.7 11.5 2.1 17.3 1.3 2.3-.4 4.6-1.4 6.9-2q3.3 1.2 6 3.5 6.9-1.4 13.8-1.8c3.5-.2 7-.5 10.4.3 1.8.3 3.5 1.2 5.2 1.7a17 17 0 0 1 4.3-3.2q1.3-.8 2.6 0 4 2 7.8 4.3c3-1.2 6.3-2 9.5-1.3 1.1.1 2.3.9 3.4.8 2-1.4 3.8-3.3 6.1-4.2q1.9 1.3 3.5 2.9 1-.3 1.7-1 1.6-1.1 3.4-1.8c.9-.2 1.9.3 2.6.5 8.5 2.6 11 2.8 19-.7a49 49 0 0 1 7.8 3.7c6.1-2.2 12.6-3.1 19-3.6" class="b"/><path d="M9.2 98.1a113 113 0 0 1 23.3.2c5.4.7 10.9 2 16.4 1.5 2.7-.3 5.3-1.3 7.8-2.2 2.5.7 4.8 2.3 6.9 3.8q6-1 12.1-1.2c5-.4 10.2-.8 14.7 1.7 1-.3 1.8-1.4 2.6-2 1.2-.9 2.7-2.3 4.3-2.2a95 95 0 0 1 7.8 4.4c5-2.3 11.4-3 16.4-.1 2-1.3 3.7-3.6 6-4.3q1.9 1.3 3.5 3c1.9-1 3.8-3 6-3q3.4 1.3 7 1.9 3.4.6 6.9 0 3-.7 6-1.9c1.5 0 3 1 4.4 1.4q3 1.5 6 3.4c1.8-.5 3.4-1.7 5.2-2.1q5-1.6 10.4-2.2" class="b"/><path d="M9.2 95.8q6-.8 12-.4 4-.2 7.8.1c5.2.5 10.4 1.9 15.6 2.2 4.2.5 8.3-.8 12-2.2 1-.3 2 .2 2.7.6q2.8 1.3 5.2 3.2c1.3.4 2.9-.2 4.3-.2l6.9-.4c4.6-.3 9.6-.7 13.8 1.7 2-2 4.2-4.2 7-5.2a59 59 0 0 1 6.8 4.1c.9.2 1.8-.3 2.6-.6l3.5-.9a19 19 0 0 1 13.8 1.9q2.5-2.2 5.2-4.2h.8q1.8 1.3 3.5 3a18 18 0 0 1 3.5-2.3c.7-.4 1.7-1 2.6-.8q3.6 1.4 7.7 1.9 4 .2 7.8-.8c1.4-.3 2.9-1.1 4.3-1.2a42 42 0 0 1 7.8 3.6c1.1.6 2.2 1.6 3.5 2h2.6c3-2.2 6.7-3.3 10.3-4.1" class="b"/><path d="M9.2 93.4q2.1-.4 4.3-.5l5.2.3c2.8.2 5.8-.2 8.6-.2 6.4.5 12.6 2.4 19 2.7a22 22 0 0 0 7.8-1.4c3.5-1 3.3-1.9 6.9 0q2.2 1.1 4.3 2.5c.4.3 1.3.7 1.7.8h1.8c4.6-.1 9.2-.6 13.8-.4q1.8.1 3.5.7c.7.2 1.7.8 2.5.7q3-3.6 7-5.5c.8-.1 1.8.5 2.5 1q2.3 1.2 4.4 2.7 1.3-.2 2.6-.6l3.4-.8c5.2-1 11-1 15.6 1.8h.8q2.4-2.4 5.2-4.2 2 1 3.5 2.7l.8.2a19 19 0 0 1 5.2-2.8c1.7.1 3.5 1 5.2 1.3l2.6.3a25 25 0 0 1 7.8-.6c1.4-.3 2.9-1 4.3-1a39 39 0 0 1 10.3 5.2c1 .5 2.4.2 3.5.3q2.2.1 4.3-.2 2.4-1.6 5.2-2.7" class="b"/><path d="M9.2 90.9c3-.7 6.3.2 9.5.1l6-.1q2.2-.4 4.3 0 6 1 12.1 2 4.4 1 8.7.4 3-.6 6-1.6c2.3-.8 2.8-1.4 5.2-.2q3 1.2 6 2.9c1.1.5 2.3 1.5 3.5 1.6q5.6-.2 11.2-.2 1.4 0 2.6.4h3.5c2.3-2.1 4.8-4.3 7.8-5.6 2.4.9 4.5 2.8 6.9 3.8a35 35 0 0 1 17.3-1.4c1 .2 2.4.6 3.4 1 .8.3 1.7 1 2.6 1q1.6-1.5 3.5-2.8c.7-.5 1.6-1.4 2.6-1.4a18 18 0 0 1 3.4 2.9c2-1 4-2.4 6-3 2.3.4 4.7 1.7 7 1.3a24 24 0 0 1 10.3-1.2c.5.1 1.4 0 1.8-.1l1.7.4c4.3.4 7.9 2.8 11.2 5.2l7.8-.1 1.7-1.3" class="b"/><path d="M9.2 88.4q2-.2 4.3.1l6 .3c3.2.2 6.4-.8 9.5-.2q5.6.8 11.3 2 4.6 1 9.5.6 3.5-.5 6.9-1.9c3-1 3-1.3 6 0 2.9 1 5.7 2.5 8.7 3.4 1 .3 2.2 1.2 3.4 1.2H87c2.6-2.2 5.4-4.6 8.7-5.6q2.2 1 4.3 2.3c.7.4 1.6 1.3 2.6 1.2l4.3-1c6.3-.9 13.3-1.2 19 2.1 1 0 1.8-1.1 2.6-1.7q2-1.5 4.3-2.9l2.6 1.8a4 4 0 0 0 1.7 1q2.9-1.9 6-2.7 2.6.8 5.3 1.3c1.1 0 2.3-.7 3.4-1q2.2-.5 4.3-.7c6.3-.6 13.1.1 18.2 4.1.8.6 1.6 1.7 2.6 1.8h6" class="b"/><path d="M9.2 86q5.6.6 11.2.5 3-.1 6-.5l4.4.6C45.7 89.2 46 91.1 61 86q3.9 1.3 7.8 2.5 5 1 9.5 3.2 3.4.2 6.9-.1c3.2-1.7 6.2-4 9.5-5.4.8-.2 1.8.4 2.6.7 1.7.8 3.4 2.2 5.2 2.7a42 42 0 0 1 18.1-.7l3.5 1q1.2.8 2.6 1 3.2-2.6 6.9-4.6c1.6.3 3 1.7 4.3 2.8q2.9-1.8 6-2.8c2 0 4.1 1 6 1.2 9.3-3.7 21.5-3.5 28.6 4.2h4.3" class="b"/><path d="M9.2 83.8q5.2.5 10.3.4 3-.1 6-.5l3.5.5c7.5 1 15 3.9 22.5 2.3 3.8-.7 7.5-2 11.2-2.8Q68.4 85 74 86c2.8.7 5.6 2.2 8.6 2.1 4.4-.3 8-3 12.1-4.5 1.2 0 2.4.8 3.5 1.2l4.3 2.3c2.6-.2 5.2-.9 7.8-1 5.2-.2 10.8.1 15.5 2.6 1.3-.1 2.4-1.4 3.5-2l5.2-3c1.6.2 3 1.6 4.3 2.6 2.3-.8 4.5-2.2 6.9-2.7q3 .9 6 1.3a28 28 0 0 1 20-1.2q2.7 1 5 2.6c1.3.8 2.3 2.2 3.6 3h2.5" class="b"/><path d="M9.2 81.4q4.7.4 9.5.4c2.8-.1 5.8-.7 8.6-.1 7.8 1 15.4 3.8 23.3 2.7 4.7-.6 9.2-2.1 13.8-3 1.7 0 3.5.6 5.2.7 3.9.2 7.5 1.5 11.3 2.2 4.8.8 9.3-1.7 13.8-3a53 53 0 0 1 8.6 3.8q.9 0 1.8-.2a46 46 0 0 1 14.7.2c1 .2 2.4.5 3.4 1 .8.2 1.7.8 2.6.5q4.6-2.8 9.5-5.1c1.6.3 3 1.4 4.3 2.4.9-.1 1.8-.7 2.6-1q2.2-.8 4.3-1.5l2.6.6c1.4.2 3 1 4.3.6a26 26 0 0 1 19-1.3q2.8.9 5.2 2.7c1.2.8 2.3 2.2 3.5 3h1.7" class="b"/><path d="M9.2 79q4.3.3 8.6.3c2.3 0 4.7-.4 7-.1 6 .5 12 2.2 18 2.8q6.1.6 12.2-.6c5.1-.8 10.3-2.4 15.5-2.2s10.3 2.3 15.6 1.6c2.6-.3 5.2-1.2 7.7-1.8q6 1.6 11.3 4.3a41 41 0 0 1 18.1 1.4q1 0 1.7-.4c3.8-1.7 7.4-3.7 11.3-5.1q2.3 1 4.3 2.3 3.3-1.5 7-2.3 3.3.6 6.8 1.4c8.4-4.5 20.6-4.1 26.8 3.9.4.1 1.3.3 1.7.2" class="b"/><path d="M9.2 76.8q3.4-.2 6.9 0 4.3-.3 8.6.2c7 .7 13.8 2.3 20.8 2.5 5.8.3 11.5-.7 17.2-1.5 4.3-.7 8.7-.6 13-1.2 3.1.3 6.3 1 9.5.8q2.2 0 4.3-.5c1-.1 2.4-.6 3.5-.3q4.8 1.1 9.5 2.8l4.3 1.6q1.2.4 2.6.3 3.4-.1 6.9.3c1.4.2 2.9.7 4.3.6 2 0 4.1-1.1 6-1.8q4.4-1.6 8.7-3.4c2-1 4 1.4 6 1.7a49 49 0 0 1 7-2.1l5.1 1.1q1.8.8 3.5-.3a21 21 0 0 1 19 0q1.9 1 3.5 2.4c1 .9 1.8 2.7 3.4 2.4" class="b"/><path d="M9.2 74.6q8.2-.4 16.4.2c6.6.6 13.2 1.6 19.9 1.9 6 .3 12-.3 18.1-.8q4.4-.3 8.6-.4 4.3-.5 8.7-.8c4.3-.3 8.7-.4 13 .5 6 1 12 3.4 18 4.4 6.3 1 12.4-1 18.2-3l6-2c1.9 0 3.6 1.2 5.3 1.8 8.5-2.6 6.4-2 14.7-.4.9.2 1.8-.5 2.6-.8q2-1 4.3-1.4c6.7-1.5 13.9.2 18.1 5.9l1.8.4" class="b"/><path d="M9.2 72.5c5.7-.5 11.5-.2 17.2-.3q9 1 18.2 1.4c7.2.6 14.4.2 21.6.1H73q6-.4 12.1-.7c9.7-.5 19 3.3 28.5 3.8 5.3.2 10.5-1.1 15.6-2.5l6.9-2c1.7 0 3.5 1 5.1 1.6 2.6-.6 5.2-1.5 7.8-1.6q3.5.7 7 1.3l1.7.3 3.4-1.5q3.3-1.2 7-1.2c3.3 0 6.7 1 9.4 3l2.6 2.2 2.6.7" class="b"/><path d="M9.2 70.2c5.1-.6 10.3 0 15.5-.2q2.6-.1 5.2-.1 2.2.2 4.3 0 3 .4 6 .5L68 71.8c6.6.6 13.3 0 19.9-.2q6 .2 12 1.1 7.5 1.3 14.8 1.3 5.6-.1 11.2-1.6 5.3-1.2 10.4-2.5c1.7.3 3.4 1.1 5.1 1.4l7-1.4q2.6.3 5.1.9 2.6.5 5.2.8c.9 0 1.9-.6 2.6-1q2.5-1 5.2-1.3 5.6-.6 10.4 2.4l1.7 1.3q2 1 4.3 1" class="b"/><path d="M9.2 67.6c2.8 0 5.7.5 8.6.6q6.9.2 13.8 0c2.9-.2 5.9 0 8.7-.8q1.6.4 3.4.1l3.5.2q10 .8 19.9 2 8.1 1.3 16.4.8c6.9-.5 13.8.4 20.7.8a80 80 0 0 0 26-2.5c2-.3 4-1.1 6-1.1l3.4.9c1 .5 2.4 0 3.5-.2q2.6-.6 5.2-.8c3.4.5 6.9 1.3 10.4 1.6h1.7l3.4-1.4q4.4-1.2 8.7 0 2.3.7 4.3 2.1 3 1.1 6 1.2" class="b"/><path d="M9.2 65.8q15 1.9 30.2.6c1.7-.1 3.5-.9 5.2-1.2 2 .7 4 .2 6 0 4.7.3 9.3 1.4 13.8 2.1 4.3.8 8.6 1.9 13 2 4.6.4 9.2-.1 13.8 0 7 .1 13.9.5 20.8-.2 7.8-.6 15.5-2.5 23.3-3.8l4.3 1q3.4-.4 7-1c1.3-.2 2.9.3 4.2.4q3.5.7 7 1 1.6.2 3.4 0c1.7-.4 3.4-1.3 5.2-1.4 3-.5 6 .4 8.6 1.6q3.8 1.4 7.8 1.2" class="b"/><path d="M9.2 62.9q7.1.2 13.8 2.9a100 100 0 0 0 19.9-1.4c1.7-.4 3.4-1.3 5.1-1.4 1.4.5 3 0 4.4-.2q5.1 1 10.3 2.2c4.3 1 8.6 2.3 13 3A165 165 0 0 0 124 65l6.9-1.3c1.4-.2 3-.9 4.3-.5l3.5.8 6-.8c2.6-.3 5.2.4 7.8.7q4.7.7 9.5.6c.8 0 1.8-.5 2.6-.7q2.2-.3 4.3-.8c4.6 1 9 3 13.8 2.4" class="b"/><path d="M9.2 59.7c6.4.3 13.2 1.1 19 4.2a159 159 0 0 0 21.6-3.2c.8.1 1.8-.2 2.6 0 5.2.8 10.4 2.4 15.5 4q3.8.8 7.8 1a195 195 0 0 0 31 0c2.7-.2 5.3-1 7.9-1.5q9.4-1.8 19-3.6 2.1.5 4.3.8l6-.7c3.8 0 7.6.8 11.3 1 2.2.2 4.6.6 6.9.3s4.6-1.2 6.9-1.4c4.5 1 9.1 2.6 13.8 1.8" class="b"/><path d="M9.2 57.4a67 67 0 0 1 17.2 2.8l1.8.7h2.6q9-1 18.1-2.5h1.7q.9-.1 1.8.1l6.9 1.9q6.3 1.8 13 2.6Q88.5 65 105 63l12-1.5 13.9-2.9c1.7-.5 3.5 0 5.2.4l6-.7c3.2 0 6.4.6 9.5.8 2.6.2 5.2.7 7.8.7 2.9-.1 5.8-.9 8.6-1.5 2.3.1 4.7 1 7 1.3q3.8.6 7.7 0" class="b"/><path d="M9.2 55.9q5.2 0 10.3.9c2 .2 4 1 6 1l12.2-1c2.5-.2 5.3-1 7.8-.7l4.3.7 2.6-.8q10.2 3.2 20.7 4.8c9.5 1.4 19 1 28.5-.2 9.3-1.2 18.6-2 27.7-4.1l2.6-.5 2.6.5q3-.2 6-.5c5.8.2 11.5 1 17.3 1.4 3.2 0 6.4-.7 9.5-1.3q1.7-.3 3.4.2l3.5.7q4.3.6 8.6-.2" class="b"/><path d="M9.2 54.6q8.6 0 17.2-.5c3.2 0 6.4-.5 9.5-.4q5.7.4 11.3 1.2 1.3.3 2.6-.4l2.6-.8c2.6.3 5.2 1.5 7.7 2q6.4 1.8 13 2.9 5.6.9 11.2.7 7.8.2 15.6-1 12.5-1.8 25-3.3l4.4-1q1.5-.5 3.4 0c2.3.2 4.7-.6 7-.3 5.7.3 11.4 1.1 17.2 1.3q5.3-.1 10.4-1.2c2-.4 4 .5 6 .6q4.8.4 9.5-.3" class="b"/><path d="M9.2 51.6c8.3.3 16.7.1 25 .6q5.3.3 10.4 1 1.3.2 2.6-.4l2.6-.8c1-.3 2.3-.9 3.4-.7l7 2a125 125 0 0 0 17.2 3.5c2.9-.4 5.8-1 8.7-1q4.3 0 8.6.7l7-.9q11.5-1.8 23.2-3.2c2.3 0 4.7-1.6 7-.8l4.3-.3 4.3.3q7.8.8 15.5 1 5.7-.1 11.3-1.1c2.2-.4 4.6.4 6.9.4 2.8.3 5.8-.3 8.6-.5" class="b"/><path d="M9.2 50.5q10.8.1 21.6.1a126 126 0 0 1 10.3.7q1.8-.3 3.5-.7l5.2-1.2c1-.3 2.3-.7 3.4-.3 6.4 1.3 12.6 3.3 19 4.4q1.8.5 3.5.5a44 44 0 0 1 12.1-1.6q5.3 0 10.4 1.2 2.6-.1 5.1-.7c7.5-1 15-2.4 22.5-3l4.3-.9q1.4.4 2.6.2 3-.4 6 0l8.7.7q5.3.5 10.4.3c3.5 0 7-.7 10.4-1 2.5-.3 5.2.2 7.7.1q1.8 0 3.5-.2c.8 0 1.9.3 2.6 0l.9.3" class="b"/><path d="M9.2 47.7c11.5-.2 23 1 34.5-.2L48 47q1.8-.4 3.5-.2c6.7.9 13.2 2.7 19.9 4l3.4.5q2.2-.3 4.4-.9a56 56 0 0 1 18-.3l3.6.8q2.2-.1 4.3-.6c9.1-1.3 18.4-3 27.6-3.5 2.3-.2 4.7.2 7 .3l11.2.8c9.8.7 19.5-2.1 29.3-.7l.9-.5 1.7.8" class="b"/><path d="M9.2 45.4c7.5.1 15-.5 22.4-.8q6-.1 12.1-.1c9.3 0 18.5 2 27.7 3.4l6 .8q5.6-1.5 11.3-1.9a47 47 0 0 1 14.6 1.4l2.6-.4c8.7-1.2 17.3-2.8 26-3.4q2.5 0 5.1.3l7.8.6q7 .5 13.8.3 5.3-.3 10.4-.7 3.5-.2 7 0c1.3-.1 3 .5 4.2-.4 1 0 1.9.7 2.6 1.1" class="b"/><path d="M9.2 45c11 0 21.8-2 32.8-2.2 11.3-.4 22.5 1.3 33.7 2.5l6.9.7q5.5-1.4 11.2-1.8 5.3-.2 10.4 1c2 .6 4-.2 6-.4 7.2-.9 14.4-2.1 21.7-2.7 4.8.2 9.7.9 14.6 1q6 .5 12.1.3l9.5-.5q3.5-.2 7-.1c1 0 2.3.3 3.4 0 .3-.3 1.3-.6 1.7-.7l2.6 1.4" class="b"/><path d="M9.2 44.7c10.4-.3 20.6-3.1 31-3.6 14.2-1 28.3 0 42.4 1.3q3.4.5 7 .8c3-.6 6.2-1.4 9.4-1.3q2.6 0 5.2.3c1 .1 2.3.6 3.5.5a453 453 0 0 0 20.7-2.6c1.4-.1 3-.5 4.3-.3q10.3 1.1 20.8 1.5c5.4.2 11-.4 16.4-.5h5.2c.7 0 1.8.3 2.6 0l1.7-.9c1.2 0 2.4 1 3.4 1.5" class="b"/><path d="M9.2 43.1c3 0 6.5.4 9.5-.2 5.5-1.1 10.8-3.1 16.4-3.8q3.8-.6 7.8-.8c2 0 4 .3 6 0a244 244 0 0 1 46.7 2c1.7.2 3.4-.6 5.1-.6a26 26 0 0 1 7.8.4q7.8-.6 15.6-1.7 3.8-.6 7.7-1l7.8.9q10 1 19.9.8l12.1-.3q2.6.2 5.2.2 1.2-.8 2.6-1.4c1.2.1 2.3 1 3.4 1.4" class="b"/><path d="M9.2 40.8h11.2L23 40c3.2-.9 6.3-2.2 9.5-3q8-2 16.4-1.7 11.7-.2 23.3.3c3.5.1 7-.6 10.4-.5 3.8.4 7.5 1.3 11.2 1.5 3.4.7 7 1.4 10.4.8 2-.3 4 0 6 0l8.7-.7 11.2-1.4c1.1-.3 2.4.1 3.5 0q5.1.9 10.4 1 6.4.6 13 .8c6.2 0 12.7-.7 19 0 1.2-.6 2.7-1.8 4.3-1.7l2.5 1" class="b"/><path d="M9.2 38.5h12q3.5-1.3 7-2.1a52 52 0 0 1 12-3.5l2.7.4c2.2.3 4.6-.4 6.9-.4 4.9.2 9.8.9 14.7 1 2.8 0 5.7.4 8.6.2q4.4-.2 8.6-1.1 1.4 0 2.6.5l5.2-.6c1.7-.3 3.5.4 5.2.6 3.2.3 6.3 1.2 9.5 1.3 8.6.3 17.3-.6 26-1.8 1.3-.2 2.9.3 4.2 0a89.2 89.2 0 0 0 6 1q11.7 1.2 23.4 1c3.7 0 7.5-.4 11.2.2 1.8-.7 3.5-1.8 5.2-2.3l2.6 1" class="b"/><path d="M9.2 36.2h12q1.5-.2 2.6-.8l2.6-.9q4.9-1.3 9.5-2.8l3.5-1c.8-.1 1.8.3 2.6.1 3.1-.6 6.3.3 9.5.6L67 32.7c7.5.8 15.5 1 22.5-2 .4 0 1.3.4 1.7.6l5.2-.6c3.2.1 6.4 1 9.5 1.4 4.6.5 9.3 0 13.8-.2q4-.3 7.8-.9 1.8-.1 3.5-.4l2.6.3c.8.2 1.8-.2 2.6-.2q1.6.9 3.4 1 13 1.5 26 1.2 4.6-.2 9.4.3 3-1.6 6-2.6l1.8.6" class="b"/><path d="M9.2 33.4c4.2.9 8.6.4 13 .5 1.4-.2 2.8-1.1 4.2-1.6q4.3-1.4 8.7-2.6l6-1.5c3.2-.2 6.4.8 9.5 1.2q7.3 1.2 14.7 1.9 5.6.7 11.2.7 7.6-.4 14.7-2.2c1.1-.5 2.3-1.4 3.5-1.4q1.2.8 2.6.5c1.4-.1 3-.6 4.3-.5 3.7.5 7.4 1.6 11.2 1.5q8.7 0 17.3-1.5c2.3-.3 4.8 1 7 0 1 .3 2.2 1 3.4 1.3a160 160 0 0 0 22.5 1.2h6.9c1.7 0 3.5.5 5.1.2a38 38 0 0 1 5.2-2.2q1.3-.6 2.6-.5" class="b"/><path d="M9.2 29.7q4.8.7 9.5 1.8H23l3.4-1.4q4.3-1.8 8.7-2.7c2.5-.6 5.1-1.4 7.8-1.5q4.2 1.1 8.6 1.8 7.3 1.4 14.7 2.4a57 57 0 0 0 25-1.6l3.5-.7c1.1-.6 2.3-1.5 3.5-1.8.7.5 1.7 1 2.6.6 1.3-.1 2.9-.8 4.3-.5q2.6.4 5.2 1 3 .4 6 .4 7.4-.1 14.7-1.5l4.3.6c.8.3 1.9-.2 2.6-.5q2.3.6 4.3 1.7l4.4.4q8.1.9 16.4.7h6.9c1.7 0 3.5.4 5.2.2q3.6-1.8 7.7-2.9" class="b"/><path d="m9.2 26.6 9.5 1.5q1.7.4 3.4 1.2 1.4-.2 2.6-.8a66 66 0 0 1 15.6-4.7q1.3 0 2.6.3c.7 0 1.7-.4 2.5-.3l4.4 1.3c5.2 1.9 10.9 2.6 16.4 3.6 3 .7 6.3.6 9.5.6h5.2l5.1-1q4.5-.9 8.7-2 1.7-.4 3.4-1l2.6-1.5c.5 0 1.4.5 1.8.8 2-.4 4-1.2 6-.7q5.1 1.4 10.4 1.4c4 0 8-.8 12-1.5q1.4-.1 2.7.2l3.4.6c.8-.2 1.8-.9 2.6-.8l4.3 2c2.4.7 5.3.6 7.8.9 6 .4 12.1 0 18.2.1l5.2.3q3.8-1.6 7.7-2.6" class="b"/><path d="M9.2 23.7q5.2.6 10.3 1.6l3.5 1.1q1 0 1.7-.4 5.5-2.4 11.3-3.8 2-.6 4.3-.9l3.4.8q1.5 0 2.6-.5.9-.3 1.8 0l3.4 1c4.4 1.3 8.7 3 13 4.3q4.7.1 9.5 0 6 .1 12 0l5.2-1.2q4.4-1 8.7-2.2l3.4-2.1c.4.3 1.3.7 1.8.8l3.4-.8q1.8 0 3.5.6a34 34 0 0 0 8.6 1c3.8 0 7.6-.8 11.3-1.5q1.3 0 2.6.3 1.6.3 3.4.8c.8-.3 1.8-1 2.6-1.2q3.4 1.7 7 2.9 8.2.9 16.3.5 6-.1 12.1.1 3.4-1 7-2" class="b"/><path d="M9.2 21.1a191 191 0 0 1 13 2.3q1.3.6 2.5 0 6-2.4 12.1-3.8 1.3-.4 2.6-.5l5.2 1q2.1-.5 4.3-1l6 1.5c5 1.3 9.8 3 14.7 4h19c1.8-.1 3.5-.8 5.2-1.1q4-1 7.8-2.2l3.5-2.1q1 .2 1.7.8c1.7-.3 3.5-1.3 5.2-.8q5 1.6 10.3 1.7c3.8 0 7.6-1.2 11.3-1.8q2.6.5 5.1 1.3 1.5-.6 2.6-1.2c2.7.7 5.2 2.3 7.8 3 4.8.9 9.8.5 14.7.5l11.2-.2h3.5l4.3-1.1" class="b"/><path d="M9.2 18.8q6 .6 12 2 1.4.6 2.6 0a101 101 0 0 1 13.9-4c2.3 0 4.6 1 6.9 1.4q2.2-.5 4.3-1.1c1.5-.6 2.9-.1 4.3.2l6 1.4q8.7 2.1 17.4 3.6h14.6l5.2-1.2q3.2-.7 6-1.8l4.4-2.5 1.7.9c1.4-.3 3-1 4.4-1q3.8 1.2 7.7 1.7 3.5.4 7 0 3.4-.7 6.9-1.7 2.6.6 5.1 1.5c1.6-.5 2.7-2 4.4-.8l5.1 2.2q2.1 1 4.4 1c5.1.2 10.3-.2 15.5-.4l13.8-.3" class="b"/><path d="M9.2 16.8q5.6.7 11.2 2c1.1.2 2.4-.6 3.5-.9A124 124 0 0 1 35 15q1.7-.7 3.4-.1l6 1.3q3.5-1 7-1.7 6.4 1.3 13 2.5 6.8 1.1 13.8 2 3.8.8 7.8 1.1H93q4.3-.8 8.6-2c2.3-1.2 4.5-2.7 7-3.5.3.3 1.2.7 1.7.8 1.3-.3 2.8-1 4.3-.8q3.8 1 7.7 1.7 3.5.5 7-.1c2.3-.4 4.6-1.4 6.9-1.6q2.2.6 4.3 1.4c1.1-.3 2.2-1.5 3.4-1.3q3 1.5 6.1 2.6a9 9 0 0 0 4.3 1c9.5.2 19-.9 28.5-1" class="b"/></svg>