<svg xmlns="http://www.w3.org/2000/svg" id="a" width="1920" height="2400" viewBox="0 0 192 240"><defs><style>.b{fill:none;stroke:#fff;stroke-miterlimit:10;stroke-width:.4px}</style></defs><path d="M0 0h192v240H0z" style="stroke-width:0"/><path d="M8.6 232.4h106.1c5-5 11-12.8 19.1-10.3 3.9 1.1 7.5 3.3 11.3 4.6 4.6 2 9 4.4 14 5.5 1.6.4 3.5.2 5.2.2H180c1 0 2.3-.7 3.4-1" class="b"/><path d="M8.6 227.7h103.5c8.8-8 13.6-17.4 27-10.8 2.5 1.2 5.3 1.8 7.8 3 4.2 1.8 8.5 3.8 13 4.7 3.7.8 7.6.8 11.3.9q2.6.2 5.3.2c2.3-.2 4.7-1 7-1.5" class="b"/><path d="M8.6 223h100c7.2-4.5 12-13.2 20.9-14.4 3.9-.5 7.6 1.1 11.3 2.3q2.7.6 5.2 1.4c3.8 1.4 7.5 3.4 11.3 4.8a41 41 0 0 0 14.8 2.3c3.8.4 7.6-.4 11.3-.9" class="b"/><path d="M8.6 218.2h48.7q2.7.2 5.2-.1a48 48 0 0 1 18.3-1c1.4.3 3 1 4.3 1.1h18.3l2.6-.1 4.4-3c7-5.2 13.7-13.1 23.4-11.3 2.6.3 5.3 1.1 7.9 1.5 3.3.1 6.6 1.4 9.5 3 7.5 3.9 14 6.8 22.7 6.1 3.1-.1 6.3-.7 9.5-.6" class="b"/><path d="m8.6 212.5 4.4 1h40c4-1 8-2.7 12.1-3.5a36 36 0 0 1 14-.5c3.6.5 7 2.5 10.4 4q6 .2 12.2 0 1.2 0 2.6-.2l5.2-3c8.2-5.5 14.5-11.8 25.2-10.3q4.8.7 9.6.7c3.4.3 6.5 2.1 9.5 3.7 3.6 2 7.3 4 11.4 5q3.8.9 7.8.6c3.4-.5 7-1.1 10.4-.8" class="b"/><path d="m8.6 205 7 1.8 9.5 1.7c3.7.6 7.6.2 11.3.3q4.9-.9 9.6-2 5.7-1 11.3-2.6c7.7-2.4 15.7-3 23.5-.8 2.7.9 5.3 2.4 7.8 3.7l3.5 1.6c2.6.3 5.3 0 7.8.1h3.5c2.5-.7 4.8-2.2 7-3.4 5.5-3.2 11-7.2 17.4-8.1 3.7-.6 7.5-.2 11.3-.1 2.3.1 4.6-.6 7-.2 6.2 1.3 11.3 5.6 17.3 7.4q4.3 1.5 8.7 1c3.8-.7 7.5-1.7 11.3-1.3" class="b"/><path d="M8.6 198.7c2.6.6 5.2 1.7 7.8 2.3 5.5.9 11 2 16.6 1.2 4.7-.7 9.2-2.5 13.9-3.7 8-1.6 16-4 24.3-2.6q5.3.7 10.5 2.4c3.6 1.5 6.8 3.8 10.4 5.4q1.7.6 3.5.4h9.5q2.7-1 5.3-2.3c9.8-5 14.5-8 26-7.5 7.3.2 8-2 15.7 1.1 6.7 2.8 13.5 5.8 20.9 4.1 3.4-.8 6.9-1.6 10.4-1.3" class="b"/><path d="m8.6 192.4 7 1.7a56 56 0 0 0 14.7.8c5.7-.6 11-2.8 16.6-4.2a41 41 0 0 1 16.5-.8c5 .8 9.8 2.6 14.8 3.9 4.6.8 8.7 3.3 13 5.2q1.2.6 2.6.4H107c1.7-.1 3.5.2 5.2-.2 4.4-1.5 8.6-3.7 13-4.9 6.3-1.8 12.8-1.2 19.2-2.3 6.2-.1 12 2.8 18.2 3.1 7.1.7 13.9-2.1 20.9-2.3" class="b"/><path d="M8.6 186.8c9 1 18 1.8 27 .3 5-.7 9.8-2.2 14.7-3q5.3-.5 10.5 1c4.7 1.3 9.2 3.4 13.9 4.8 3.4 1.1 7 1.3 10.4 2.4l7 2.3h31.3c2.3-.3 4.6-1.4 7-1.8a75 75 0 0 1 10.4-1.4c6.4-1 12.7.9 19.1.4q5.7-.6 11.3-2l12.2-1.5" class="b"/><path d="M8.6 182.7c11-1 22 0 33-.4q4.5-.3 8.7-1.2c7.6-.6 14.6 2.8 21.8 4.6 5 1.5 10.5 1.2 15.6 2.1 3 .4 5.8 1.5 8.7 2.1H107q17.4 0 34.8 0c4.3-.2 8.7.2 13-.4 5.4-.6 10.5-2.9 15.7-4.2q3-.6 6-.5 3.5-.1 7-.4" class="b"/><path d="M8.6 180c6.6-1.4 13.3-2.1 20-1.2 4.4.5 8.7 1.7 13 2.2 3 .5 5.9 0 8.7-.5q4-.4 7.9 0 8.6.8 17.4 1c4.6.1 9.3-.6 13.9-.2q4 .4 7.8 2.2 1.7 1 3.5 1.7h53.9c1.4 0 3 .3 4.4-.4 12.5-5.7 10.3-6 24.3-4.2" class="b"/><path d="M8.6 177.7c13.8-3 18.2-2 31.3 2.3 2 .7 4 .4 6.1.5 3.5.2 7-.6 10.4-1.1q5.7-1 11.4-2.3 5.5-1.7 11.3-2.3c9.1-.7 13.6-2 21.7 4 .8.5 1.7 1.4 2.6 1.7h53.1c1.8-.4 3.5-1.7 5.2-2.6 9.6-5.8 11-5.7 21.7-2" class="b"/><path d="M8.6 174.1c5.5-.5 11-1.4 16.5-.6q5 .7 9.6 2.2H52c2.3 0 4.8.4 7-.5 5.8-2 11.3-5.1 17.3-6.4 2.6-.6 5.3-.3 7.9-.5a23 23 0 0 1 17.4 5.5q1.2 1 2.6 2H152l2.6-1.2q3.6-1.8 7-4c9-5.8 12-6.6 21.7-1.1" class="b"/><path d="M8.6 168.4c7.6-.2 15.2 0 22.6 1.8l3.5.8H52c1.7 0 3.6.1 5.2-.7 6-2.1 11.8-5.4 18.3-6.4q3-.3 6 .2l5.3.4c6 .5 11.6 3.1 16.5 6.5h40.9c7-1.3 13-5.3 19.1-8.9 8.2-4.8 12.7-4 20 1.8" class="b"/><path d="M8.6 161.9q5.3 0 10.4 1.1l10.5 1.7c4.3.7 8.6 1.7 13 1.6q4 .2 7.8-.1 5-1 9.6-2.7c5.3-1.7 10.9-3.7 16.5-3.1 2 .1 4.1.9 6.1 1.4l7.9 2q2.6.7 5.2 1.7c1 .3 2.3 1 3.5.8h41.7c7.7-2.3 14.6-6.7 21.7-10.2 8.7-4.1 13.9-3.4 21 3.2" class="b"/><path d="M8.6 155.8q4 0 7.8 1.2 4.7 1.6 9.6 2.4a99 99 0 0 0 23.5 1c3.5-.4 7-1.4 10.4-2.1 4.8-1.1 10-1.8 14.8-.7 3.4.7 6.5 2.4 9.6 3.8 2.5.4 5.2 0 7.8.2h48.7l1.7-.9c10-4.4 19.7-12.8 31.4-10.8 3.7.7 6.7 3.3 9.5 5.7" class="b"/><path d="M8.6 151q5 .3 9.6 2.5 4.1 1.8 8.7 2.5c5.4.8 11 .4 16.5 0 3.8-.2 7.6 0 11.3-.8 5.1-1 10.5-2 15.7-1q2.6.5 5.2 1.5l2.6 1.2h60c1.4-.2 3 .3 4.3-.4 5.8-3 11.2-7 17.4-8.8 5-1.6 10.6-1.5 15.7-.1 2.9 1 5.4 2.9 7.8 4.7" class="b"/><path d="M8.6 148.7q3.6.3 7 1.6c1.4.6 2.8 1.6 4.3 1.8h37.4c1.7-.1 3.5-.7 5.2-.9q4-.5 7.9 0c2 .2 4 1.2 6 1h66.2l1.7-.9c5.3-2.8 10.5-6.1 16.5-7.2 4.6-.9 9.4-.2 14 .6 3 .7 6 2.4 8.6 4.1" class="b"/><path d="M8.6 147.3c1.7.3 3.5 0 5.2.1h127l7-2.6a40 40 0 0 1 20.8-3.6q4 .3 7.9 1 3.5 1 7 2.6" class="b"/><path d="M8.6 142.7h127.8l3.5-1.6a66 66 0 0 1 28.7-2.1q4 .1 7.9.3 3.5.2 7 1.2M8.6 138h123.5c1.5-.2 2.9-1.6 4.3-2.3a15 15 0 0 1 7-2c8-.2 15.6 2.2 23.5 2.7 5.5.5 11-1.1 16.5-.8M8.6 133.3h120.9c1.3-.1 2.4-1.3 3.5-2 1.8-1.1 4-2.4 6-3 4-1.5 8.3.3 12.2 1.4a40 40 0 0 0 21.8 2.9c3.5-.8 6.9-2.1 10.4-2.7" class="b"/><path d="M8.6 128.5h78.3c2-.6 3.9-2 6-2.5 5-1.6 9.6.4 14 2.5h20.8c1.6-.4 3-1.5 4.4-2.2 6-3.6 8.8-4.9 15.6-2 4.3 1.5 8.5 3.6 13 4.2h8.8c4.9-.7 9.2-3.3 13.9-4.8" class="b"/><path d="M8.6 123.8h39.1c1.5.1 3-.8 4.4-1a16 16 0 0 1 5.2-.1q2.6.4 5.2 1.1h20.9q1 0 1.7-.5l2.7-1.7c2.3-1.5 5-2.9 7.8-3.2a18 18 0 0 1 10.4 2.8c2 1 4 2.4 6.1 2.6q7.8.2 15.7-.1c4.5-1.6 8.9-4.8 13.9-4.8 4.5.5 8.7 2.6 13 3.7 7 2.1 14.2 1 20.9-1.8q3.9-1.8 7.8-3.5" class="b"/><path d="m8.6 118.6.9.5H33c3.7-.1 7.5.2 11.3-.1q3-1.3 6-2.4c3.8-.9 7.7-.2 11.4.6s7.4 2.1 11.3 1.9c2.3 0 4.7.1 7-.8 3.5-1.3 6.7-3.7 10.4-5 11.3-4 16.1 6.6 26 5.8h6.2q2.7.2 5.2-.7c4.8-1.6 9.5-4.8 14.8-4.4 5 .8 9.7 2.6 14.7 3.3a38 38 0 0 0 17.4-1.9q4.4-1.7 8.7-3.5" class="b"/><path d="M8.6 111.5q2.5 1.6 5.2 2.7c2.6.3 5.3 0 7.9.2h7.8q6-1 12.2-2.2c4.5-1 9.2-2 13.9-1.1 11.9 2.2 18.1 1.8 29.5-2.6 11.7-4.4 15.5 1.5 25.3 5.3 2.7.9 5.8.5 8.7.6 6.2.3 11.7-3.5 17.3-5.5a17 17 0 0 1 5.3-1c3.2 0 6.4.9 9.5 1.5 11.9 2.7 20.7 3 32.2-1.4" class="b"/><path d="M8.6 104.7c2.7 1.2 5.7 2.4 8.7 2.4 6.2 0 12.1-2 18.3-2.4q7.4-.7 14.7.7c3.5.8 7 2.1 10.5 2.5a32 32 0 0 0 15.6-3q5.2-1.5 10.5-2.4c5.1-1 10.3.8 14.7 3.2 2.8 1.4 5.7 3.2 8.8 3.9h4.3q2.7.1 5.2-.3c6.4-1.3 12-5 18.3-6.9 2.8-.9 5.8-.5 8.7-.1q6 .9 12.2 2.3c8.7 2 15.4 3 24.3 1" class="b"/><path d="M8.6 99a25 25 0 0 0 16.5-.3c4-1.2 8-2.4 12.2-2.1 5.8.3 11.4 2.7 16.5 5.4 3.5 1.8 7.4 3.2 11.3 2.7 4.4-.4 8.2-2.8 12.2-4.3q2.5-.9 5.2-1.2 3-.5 6.1-.5 5.5.1 10.5 2.2c3.4 1.3 6.8 3.1 10.4 3.8a30 30 0 0 0 9.6-.8c7.5-1.5 14.1-6 21.7-7.2a58 58 0 0 1 20 3c3.7 1 7.5 2.5 11.3 3.4q5.6 1 11.3 1.2" class="b"/><path d="M8.6 95.1c11.9.7 10.4.3 20.9-4.2 7.6-3.2 14.2-.8 20.8 3.4 3.2 2 6.1 4.5 9.6 5.9h10.5c2.6-1 5.1-2.4 7.8-3.2 5.7-.9 11.6-1.8 17.4-1 6 1 12 4 18.2 2.8 8.7-.8 16.8-4.3 25.3-5.8q3.3-.4 7-.3 6.2 0 12 1.7 5 1.5 9.7 3.5c2.2.8 4.5 2 7 2.3h8.6" class="b"/><path d="m8.6 92.6 6-.3q2.8 0 5.3-1c4.3-1.8 8-5 12.2-7 7-3.5 14.2-.8 20 3.7 3.7 2.9 7.4 6.4 12.2 7.5h6c2.4-.4 4.7-1.4 7-2 2-.5 4.1-.5 6.1-.9 3.7-.7 7.5-1.6 11.3-1.8q5.2-.2 10.5.5 4.3.6 8.7 0l7.8-.2c7-.2 13.9-1.1 20.9-1 4.3 0 8.7-.3 13 .2q5.4.7 10.5 2.6c2.3.8 4.5 2 7 2.6h10.4" class="b"/><path d="M8.6 90c3.4-1 7.2-1.3 10.4-2.6 3.5-1.7 6.5-4.6 9.6-6.9 7.4-5.8 13.7-6.2 21.7-1.3 5.7 3.9 10.9 10 18.3 10 3.3 0 6.4-1.1 9.6-1.7 6.3-.3 12-3.2 18.2-4.2 4.6-.8 9.3-.3 14-.5 6.1-.7 12.3.8 18.2 2.3 6 1.4 12 3 18.3 2.7 6-.4 12.2-1.3 18.2 0q4.6 1 8.7 2.9h9.6" class="b"/><path d="M8.6 86q4.9-1.8 9.6-4c4.1-2.3 7.4-6 11.3-8.9 7.2-5.4 13.2-4.4 20.9-.6 3.3 2 6.2 4.6 9.5 6.6A18 18 0 0 0 75.6 81c2.8-.8 5.9-.7 8.7-1.6C89 78 94 76 99 75.5c3.1-.4 6.4-.2 9.5-.3 2.3 0 4.7-.5 7-.2 6.8.6 13 4 19.1 6.5 4.6 2 9.7 3.4 14.8 2.6 7.5-1 15.3-2.7 22.6.3l3.5 1.6h7.8" class="b"/><path d="M8.6 80.6c4.2-2.2 8.6-4.4 12.2-7.5 5-4.3 10.2-10.1 17.4-9.8 3.9.2 7.6 2 11.3 3.2 3.4 1.4 6.3 3.8 9.6 5.6 9 5.2 13.5 1.5 22.6.5 4.6-1 9.1-2.5 13.9-2.8 4.6-.5 9.3.4 13.9.3 11.9-1.7 18.2 2 28.7 6.5q6.2 2.9 13 2c5.8-.4 11.7-1.7 17.4-.3q2.3.5 4.4 1.4c1 .5 2.2 1.4 3.4 1.6h7" class="b"/><path d="M8.6 74.3q7.1-3.9 13-9.4c6.6-6 12-9.5 21-5.3q3.7 1.7 7.7 2.8 3.2 1.3 6.1 3.1c5.3 3 10.6 4.4 16.6 2.7q3.8-1.2 7.8-1.9c3.1-.4 6.4-1.1 9.6-1.2q4.3-.1 8.6.9c4.6 1 9.3 2.6 14 1.5 9-1.9 15.6-2 24.3 1.2 3.7 1.3 7.4 2.8 11.3 3.2 5.2.6 10.5.2 15.7 1q3.5.5 7 1.8c1.4.4 2.8 1.6 4.3 1.9h7.8" class="b"/><path d="M8.6 68.4q5.7-2.8 10.4-7c4.8-4.2 10.5-9.8 17.4-8.1 3.4.8 6.4 2.7 9.6 4 2.3.9 4.8 1.2 7 2.4 10.6 5.9 13.5 6.7 25.2 3.1 6-1.3 12.4-1.7 18.2.3 5.4 1.5 10.8 5.1 16.6 3.5 4.7-1.3 9.1-3.7 13.9-4.9 10-2.5 15.8 2.1 25.2 4 6.5 1.4 13.1 2.5 19.1 5.4 1.5 1 3.5.7 5.2.8h7" class="b"/><path d="M8.6 64A40 40 0 0 0 19 57.6c4.7-3.8 10-8.8 16.6-7.5 3.4.6 6.4 2.5 9.5 3.8 2.5 1.2 5.5 1.4 7.9 2.8 3.7 2 7.2 4.4 11.3 5.5 4.6 1.4 9.4.3 13.9-.8q6-1.2 12.2-.6c5.4.6 10.4 3.2 15.6 4.6 4.6 1.4 9-.4 13-2.7 4-2.2 7.9-4.8 12.2-6.1 5.9-2 10.1-.5 15.7 1.3q7 2 13.9 4.6 4.9 2 9.6 4.4c1.6.5 3.5.2 5.2.3h7.8" class="b"/><path d="M8.6 60q5.6-2.5 10.4-6c5-3.7 10.9-7.6 17.4-5.6 3.4 1 6.4 2.8 9.6 4 1.4.6 3 .7 4.4 1.2 2.3.7 4.7 2 7 3A29 29 0 0 0 74.6 60q10.2-1.4 20 .9l6 1.5h14c2.5-.8 4.8-2.4 7-3.8 4.1-2.6 8.3-5.6 13-7.1q3-1 6.1-.8 3 .4 6.1 1 8.9 1.5 16.5 6.2 3.6 2.1 7 4.4c4.3.3 8.7 0 13 .1" class="b"/><path d="m8.6 56.4 9.6-5.2c2.8-1.6 5.6-3.3 8.7-4.2 5.3-1.7 10.8.3 15.6 2.5q2.2 1 4.4 1.7 2.2.3 4.3.8 4.4 1 8.7 2.3 4.7 1 9.6 1.4c3.4.1 7-.1 10.4.2 4.1.3 8.2 1.2 12.2 1.8h22.6c1.2 0 2.4-.7 3.5-1l4.4-2.2c5-2.7 10-6 15.6-7.4 3.7-.8 7.6-.3 11.3-.2 7.8.2 14.3 5.1 20 10l.9.7 1.7.1h11.3" class="b"/><path d="M8.6 52.9a99 99 0 0 1 18.3-7.7c4-.9 8.3 0 12.1 1.3q3.9 1.6 7.9 2.7 3.4.5 7 .6c7.8.3 15.6-1.5 23.4-.8 3.9.3 7.6 1.6 11.3 2.5q6 1.6 12.2 1.4c3.5 0 7-.7 10.5-1.2q6.1-.9 12.1-2.3c5.9-1.5 11.5-4 17.4-5.1 3.8-.4 7.5-1.5 11.3-1.6 4.2 0 8.1 1.8 11.3 4.3 2.5 1.8 4.6 4.2 7 6h13" class="b"/><path d="M8.6 48.3h2.6q1.8-.6 3.5-1.4l6-2q9.1-3.2 18.3-.4c2.9.8 5.8 1.9 8.7 2.2 9 .9 16.6-5.4 25.3-6.4 7-1 13.2 3.2 20 4.3 4.9 1 10 0 14.7-1a36 36 0 0 1 14 .2q6 .9 12.1.2a93 93 0 0 0 10.5-2c2.8-.8 5.7-2 8.7-2.4 5-.5 9.5 2.5 13 5.8 1.3 1 2.5 3.1 4.4 2.8h13" class="b"/><path d="M8.6 43.5h11.3q6-2.1 12.2-2.3 4.8.1 9.6 1.3c2.5.6 5.2 1.2 7.8 1 6.5.1 14.5-7.7 20.9-10.1 5.2-2.4 9.5-2 14.7 0 4.8 1.8 9.7 3.4 14.8 3.1 4.7 0 9.3-1.7 14-1 4.2.7 8 2.8 12.1 4.2 8.2 3 15.5 2 23.5-1.2 3.3-1.2 7.2-1.4 10.4.3q2.3 1.1 4.4 2.8c.7.6 1.7 1.6 2.6 2h16.5" class="b"/><path d="M8.6 38.8H53q1.4.2 2.6-.4c8.7-5.8 16.8-17.5 28.7-14C90 26 95.7 28 101.7 28.1c7.1.2 10.8-1.4 17.3 2.8 7 4.2 13.1 8.8 21.8 7.9 3-.3 5.8-1.6 8.7-2.5 3-1 6.5-1.3 9.6-.1 1.8.5 3.4 2 5.2 2.6h19.1" class="b"/><path d="M8.6 34h47q1.6.3 2.6-1c6.1-5.7 11.7-13 20-15.5 3.4-1 7-.5 10.4.2q6 1.3 12.2 2.2c3.7.5 7.6.6 11.3 1.3 5 1.4 8.9 5.5 13 8.6q3.3 2.6 7 4.3H147c1.4-.3 3-1 4.4-1.3q3.9-1 7.8 0c1.1.3 2.4 1 3.5 1.3h20.8" class="b"/><path d="M8.6 29.4h43.5c2.2-.2 4.8.2 7-.3 6.8-7 14.2-15 24.3-16.9 4.3-.7 8.7-.3 13 .2L106 14q3.6.4 7 1.5c5.7 2.8 9.7 8.1 14.8 11.8q1.5 1.3 3.4 2.2h17.4q1.8-.6 3.5-1 5-1.2 9.6.6c1 .5 2.4.3 3.5.4h18.3" class="b"/><path d="M8.6 24.6h52.2c3.2-2.5 6.1-5.5 9.6-7.6A80 80 0 0 1 85 9.3c9-2.9 19.1-1.9 27.9 1.3 5.9 3.3 10 9 15.6 12.8l1.8 1.1q1.2.2 2.6.1h14.8l4.3-1.4q4.8-1.3 9.6 0c1.4.4 2.9 1.2 4.3 1.4h17.4" class="b"/></svg>