<svg xmlns="http://www.w3.org/2000/svg" id="a" width="1920" height="2400" viewBox="0 0 192 240"><defs><style>.b{fill:none;stroke:#fff;stroke-miterlimit:10;stroke-width:.4px}</style></defs><path d="M0 0h192v240H0z" style="stroke-width:0"/><path d="M8.7 231.7h132.1c1.4.1 3-.6 4.3-1q3.9-1.5 7.8-2.8c7.2-2.6 14.6-2.5 20.9 2.2.7.5 1.6 1.5 2.6 1.6h7" class="b"/><path d="M8.7 227H146c.4 0 1.3-.2 1.7-.5l2.6-1.5c11.2-6.7 19.3-9.4 28.7 1.8 1.4.3 3 .1 4.3.2" class="b"/><path d="M8.7 222.3H146c1 0 2.4.1 3.4-.3l1.8-1.3c6.2-4.8 14.7-12 22.6-6.4 3 2.2 5.3 5.2 7.8 8h1.7" class="b"/><path d="M8.7 217.5H146c1 0 2.4.2 3.4-.2l1.8-1.4c6.5-5.4 15-13.2 23.4-6.6q3 2.4 5.3 5c1 1 2 3 3.4 3.2" class="b"/><path d="M8.7 212.8h135.5q1.4.1 2.6-.2 1.4-.8 2.6-1.7c6.9-4.7 15-11 23.5-6 3.6 2 6.5 5.2 9.6 8h.8" class="b"/><path d="M8.7 208.1h124.2c1.4 0 3 .3 4.4-.3q3.3-1.5 7-2.5c11-4.3 17.9-9 29.5-2q3 2 6 4.4c1 .7 2.4.3 3.5.4" class="b"/><path d="M8.7 203.4h120.8c5.8-4 9.2-6.6 16.5-7.6 6-1.4 12.4-1.8 18.2.4 4.3 1.6 8.3 4 12.2 6.2.7.5 1.7 1.2 2.6 1h4.3" class="b"/><path d="M8.7 198.7H125c4.5-3.8 9-8 14.8-9.7a40 40 0 0 1 22.6 3.1l8.7 3.9q3 1.2 6 2.6 3 .2 6.1 0" class="b"/><path d="M8.7 194h106.8c1.7-.1 3.6.1 5.3-.2 10.5-9.2 17-14.9 31.2-8.8 7.2 2.8 14 6.6 21.8 7.6q2.6.3 5.2 1.3h4.3" class="b"/><path d="M8.7 189.2h106c1-.2 1.9-1.1 2.6-1.7l4.3-3.7c4-3.3 8.7-6.3 14-6.6q5.3-.3 10.4 1.7c6.9 3.2 13 8.4 20.8 9.3q2.7.4 5.2.1c1.7-.1 3.5-.6 5.2-.4q1.9.2 3.5.7 1.3.6 2.6.6" class="b"/><path d="M8.7 184.5h99.9c1.3-.2 2.5-1.4 3.5-2.1l4.3-3.8c5.7-5.1 12-9.3 20-6.8q4 1.3 7.8 2.8c2.5 1.2 4.8 3 7 4.5 2.7 2 5.5 4.1 8.7 5.4h13c3.2-1.6 7-1.8 10.4-.6" class="b"/><path d="M8.7 179.8H20c1.4-.2 2.9-1 4.3-1.5a17 17 0 0 1 11.3.4l2.6 1.1h59.1c2 0 4.2.2 6-.5 11.3-3.3 16.6-19.1 30.5-13.8q3.6 1.5 7 3.3 3.8 1.5 6.9 4l5.2 4.5q1.5 1.5 3.5 2.5h19.1c1.1 0 2.4-.6 3.5-.6q2.2-.3 4.3.2" class="b"/><path d="M8.7 174.8c7.3 1.5 11.6-3.4 18.2-5 6.2-1.7 11.8 1.6 17.4 3.8 2 .8 4 .8 6 1q2.3.5 4.4.5h22.6q1.4.1 2.6-.5 1.7-.6 3.5-.9 4.3-.4 8.7 0c6.4.9 13 .6 18.2-3.7q4-3.5 7.9-6.8c7.2-5.8 13-5.3 20.8-1q2.7 1.3 5.2 2.5c4.3 2.7 7.5 6.9 11.3 10.3 3.5.3 7 0 10.5 0h17.3" class="b"/><path d="M8.7 168.8c7.4.8 11.8-4 18.2-6.5 6.2-2.6 11.5-.5 17.4 1.5q3 .7 6 .7c2.5.4 4.8 1.5 7 2.4a27 27 0 0 0 20 2.2q6-1.8 12.2-1c10.6 1.5 16.6 2.4 25.2-5 10.6-8.7 15.9-10.2 28.7-4.6 5.3 2.7 8.5 8.2 13 11.9h27" class="b"/><path d="M8.7 164.1c8.5.5 13.5-6.4 20.8-9.2 5.7-2.3 11-.3 16.5.8 2 .3 4.2 0 6.1.6 5.4 1.5 10.2 4.6 15.7 5.8q4.3.9 8.7.7c2.2-.1 4.6-.5 6.9-.4 5.2.1 10.4 1.3 15.6 1.7q5.4.6 10.5-1c8.2-3.3 15-10.4 24.3-10.8q5.4-.1 10.4 2c3 1.7 5.5 4.3 7.9 6.7l4.3 4.4q1.2.4 2.6.3h24.3" class="b"/><path d="M8.7 160.5c12.9.2 16.6-14.4 32.1-11.5q3 .7 6.1 1 2.6 0 5.2.3c4.4.7 8.7 2.5 13 3.6 5.7 1.6 11.6 1.9 17.4 2.3q7.5.6 14.8 1.7c4.6.6 9.3 1.1 13.9.2 7.8-1.6 14.7-6.2 22.6-7.6 9-1.8 13.6 2.4 20 7.8 3.2 2.7 2.6 2.7 7 2.6h22.5" class="b"/><path d="M8.7 156.2h7c3.4-1.6 6.3-4.5 9.5-6.5 3.5-2.5 7.8-4.3 12.2-4 2.9 0 5.8.9 8.6 1.2 2 .2 4.1-.2 6.1-.1q7 .1 14 .4c4.5.2 9.3.2 13.8 1 4.3.8 8.7 1 13 1.6q6.7.9 13 2c8.2 1.3 16.5 0 24.4-2 9.6-2.3 13.4-1.2 21.7 4l4.4 2.4h26.9" class="b"/><path d="M8.7 151.5h9.5c1.3-.2 2.4-1.5 3.5-2.2a42 42 0 0 1 6-3.8q4.6-2.3 9.7-1.8c2.9.2 5.7 1.1 8.6 1.4 4.5.2 8.9-1.2 13-2.5 7-2 14.4-5.6 21.8-3.7 4 .8 8.1 1 12.2 1.7q7.5 1.2 14.7 3.2 7 1.7 14 2.9c6 1 12.1 0 18.2.5 4.5.5 8.7 2.6 13 4.2q15.2.1 30.4 0" class="b"/><path d="M8.7 146.8H20q1-.1 1.7-.8l3.5-2.3q7.3-4.4 15.6-2.3c3.4.8 7 1.4 10.5.2 9-2.5 17.8-12.3 26.9-12.3l13 2.1q7.2 1.4 14 3.8c4.2 1.5 8.7 2.5 13 4.2q9.3 3.6 19 5 4.6.8 8.8 2.3 5.2.2 10.4 0 13.5.1 27 0" class="b"/><path d="M8.7 142H20q1.3.1 2.6-.2 2-1.6 4.3-2.7 4.6-2.5 9.6-2.4c4.6.1 9.3 2.2 13.9.8 9.9-2.3 20-16.2 29.5-14.4 6.1 1.2 12.3 2.3 18.3 4.2q5.3 1.7 10.4 3.6 5.3 1.7 10.4 3.6l14 5.2 4.3 1.5q2 1 4.3.8h34.8c2.3 0 4.7.1 7-.5" class="b"/><path d="M8.7 137.3h13q1.5.3 2.6-.7 3.6-2.5 7.8-4 4.3-1.1 8.7-.4c3.2.3 6.5 1 9.6.2 10.1-2 20.2-15.7 29.5-14 9.6 2 18.7 5.2 27.8 8.4 5.2 1.8 10.5 3.1 15.7 4.9q4.8 1.6 9.5 3.7 2.2 1 4.4 2h42.6l3.4-1.2" class="b"/><path d="M8.7 132.6h13q1.5.2 2.6-.5 4-2.9 8.7-4.4a22 22 0 0 1 8.7-.7c3.1.3 6.4.9 9.6.1 6.1-1.4 11.2-5.4 16.5-8.6 4.8-3 9-5.1 14.7-3.2 10 2.7 19.6 6.9 29.6 9.7 3.4 1 7 1.3 10.4 2a45 45 0 0 1 14 5.6h29.4q6.2.2 12.2-.1 2.6-1.2 5.2-2.2" class="b"/><path d="M8.7 127.9h13q1.5.2 2.6-.6c2.7-1.7 5.6-3.4 8.7-4.3q4.3-1.1 8.7-.6c3.4.4 7 1 10.4.2 6.2-1.5 11.2-5.6 16.5-8.8 5.3-3.1 8.8-4.5 14.8-2.4 4.7 1.4 9.3 3.4 14 5q7.1 2.7 14.7 4.8c3.4.8 7 .8 10.4 1.3q7 1 13 5c1 .7 2.4.3 3.5.4h35.7q4.2-2.1 8.6-4.3" class="b"/><path d="M8.7 123.2c4.6-.1 9.3.2 13.9-.1q3.3-1.7 7-3.2 4.2-1.5 8.6-1c4.9.3 10 2.4 14.8.5 6-2.2 10.6-6.9 15.6-10.6 4.4-3.2 8.4-5.6 14-3.5 7.6 2.4 14.8 6 22.5 8.3 4 1.2 8 2.5 12.2 2.9a35 35 0 0 1 16.5 5.3c.7.4 1.7 1.2 2.6 1.4h33.9c1.6.2 2.9-1.5 4.3-2l8.7-4.8" class="b"/><path d="M8.7 118.5h13c3.7-1.3 7.3-3.3 11.3-3.8q4.3-.5 8.7.2c3.4.6 7 1.2 10.4-.1 8.9-3.2 16.4-15 25.2-16 3-.1 6 1.5 8.7 2.6q6 3 12.2 5.7a83 83 0 0 0 15.6 4.8c7.6.9 13.2 1.2 20 5.2q1.3.8 2.6 1.4h33.9q2.9-2.2 6-3.9 3.7-2.1 7-4.4" class="b"/><path d="M8.7 113.7h9.5c1.7 0 3.7.4 5.2-.4q4.7-2.1 9.6-3.5a37 37 0 0 1 9.6-.8c2.9 0 6 .1 8.7-1 9.6-3.4 19.4-18.4 30.4-12 5 2.6 9.7 6.1 14.7 8.8a54 54 0 0 0 16.5 5.4c4.6.6 9.4 0 14 .7a40 40 0 0 1 9.5 2.8h33c1.5-.5 2.9-1.7 4.4-2.4 3.4-1.5 6.5-4 9.5-6.2" class="b"/><path d="M8.7 109h9.5q2.7.2 5.2-.1c4-1.8 8-3.8 12.2-5 4-1.2 8.1-1.6 12.2-2.4 5.2-1 9.4-4.6 13.9-7.2 7.2-4.4 13.8-5.6 20.8 0C90.1 100 97.2 107 107 109h15.6c2.3 0 4.7-.5 7-.4q3.4 0 7 .4h31.2c.8.2 1.9-.4 2.6-.8l2.6-1.3c3.9-1.4 7.2-3.9 10.4-6.4" class="b"/><path d="M8.7 104.3h13.9c4.4-1.5 8.6-4.1 13-5.7 4.5-1.8 9.3-2.8 13.9-4.3 4-1.6 7.5-4.1 11.3-6 7.8-3.8 14.5-1.9 20.9 3.7 4.7 4 8.6 9 13.9 12.3H165c3.2-1.2 6.3-2.8 9.5-3.8 3.1-1.1 6-3 8.7-4.7" class="b"/><path d="M8.7 99.6h12.1c1.8-.2 3.6-1.2 5.2-1.8l8.7-3.6c4.8-2 10-3.1 14.8-4.8 3.6-1.5 6.9-3.9 10.4-5.5 7.7-3.7 14.1-1 20 4.4q3.7 3.5 7 7.2c1.4 1.3 2.6 3.2 4.3 4h58.2c2.9 0 6 .4 8.7-.2 4.6-1 8.8-3 13-4.7l5.3-1.6 7-2.7" class="b"/><path d="M8.7 94.8c2.8 0 5.8.2 8.7-.2 4.4-.6 8.7-2.2 13-3.4C36 89.6 42 89 47.8 87.6 54.3 85.8 59.2 80 66 79c7.2-1.2 13 4.5 17.4 9.4 2 2.1 3.8 4.8 6 6.5h60q2.7.1 5.2-.2 4.6-1.6 8.7-3.9c2.9-1.4 5.7-3.1 8.7-4.2q5.6-1.5 11.3-2.5" class="b"/><path d="M8.7 89c6.7.7 13.4-1 20-2 5.4-1 11-.8 16.5-1.1 4.6 0 8.4-2.2 12.1-4.6 16-10.8 20.4-3 31.3 8.7 7 .3 14 0 20.9.1h46l5.2-3c8.9-5.4 11.9-7.3 22.6-6.7" class="b"/><path d="M8.7 84q5.6.2 11.3-.2l10.4-1.5c5.2-.6 10.5 0 15.6.2A21 21 0 0 0 58.2 79C64 76 71 71.8 77.3 75.6c4 2.6 7 6.5 10.5 9.7 2.5.3 5.2 0 7.8.1h60.8l4.3-2.6c8.6-5 12.7-6.8 22.6-4.5" class="b"/><path d="M8.7 80h7q3.8.4 7.7-.5c10-2.3 15-3.2 25.2-1.6a26 26 0 0 0 11.3-2c5.8-2 12.5-5 18.3-1.6 2.8 1.8 5.2 4.4 7.8 6.4h69.5c2 .2 3.6-1.4 5.2-2 8.7-4.4 13.5-5.2 22.6-1.8" class="b"/><path d="M8.7 76H19q3 .2 6-.1 4.8-2 9.6-3.5 5.2-1.6 10.5-1c2 .2 4 .9 6 1.2q4 .7 7.9.4c5.2-.2 10.4-1.8 15.6-.9 2.6.5 5 2 7 3.5a3 3 0 0 0 1.7.4h67.8q2.6.1 5.2-.1l2.6-1.2a29 29 0 0 1 16.5-2.7q4 1 7.8 2.8" class="b"/><path d="M8.7 71.3h19c3-1.3 5.8-3.1 8.8-4.2q5.1-2 10.4-1c4 1 8 2.5 12.2 3.2 4 .7 8.1.7 12.1 1 2 0 4.1.7 6.1 1h77.4c6.4-3.2 13.7-5.4 20.8-3.9 2.8.7 5.3 2.2 7.8 3.4" class="b"/><path d="M8.7 66.6H26l3.4-.1 3.5-2.2c4.9-3 10.9-5 16.5-3 6.6 2 13 5.7 20 5.3H153c1.3 0 2.4-1 3.5-1.6q3.3-1.7 7-3.2c3.8-1.4 8.1-2.2 12.1-1.2 2.8.9 5.4 2.6 7.8 4.2" class="b"/><path d="M8.7 61.9h20c10.5-7.9 16.5-11 28.6-3.9q3.9 2.2 7.9 3.8h88.6l1.7-1q2.6-1.7 5.3-3.3c4.3-2.6 9.6-5.1 14.7-3.8 3 1 5.4 3 7.8 4.8" class="b"/><path d="M8.7 57.1q9.1.2 18.2 0c4-3.1 8.2-6.4 13-8 4-1.2 8.4-1.5 12.2 0 4.9 2.2 9 5.8 14 8h85q1.9.2 3.6-.2l6-4c4.4-2.6 9.5-5.8 14.8-4.3 3 1 5.5 3 7.8 5" class="b"/><path d="M8.7 52.4h13.9c.9-.1 1.8-.9 2.6-1.4a33 33 0 0 1 18.2-7.2c5.1-.1 7.6-.5 12.2 2.2 4.3 2.2 8.3 5.4 13 6.4q7.5.1 14.8 0 3.4-1.2 7-2 5.5-1.3 11.2 0c3 .5 5.8 1.5 8.7 2h44.4q3.4-1.7 7-3.5c9.2-4.8 13-5.6 21.6 1.2" class="b"/><path d="M8.7 47.7h6c5.6-1.3 10.2-5.3 15.7-6.8q4.3-1.3 8.7-.9c2.8.3 5.8.9 8.7.8 5.9-.7 11 3.3 16.5 4.7 6 2 12.4.4 18.2-1.6 5.7-2.3 11.3-4.3 17.4-2.4 3.2.9 6.3 2.5 9.6 3.4 2.8.7 5.8.7 8.7.8 5.7 0 11.6-.3 17.3.1 3.8.2 7.6 1.3 11.3 1.7 4.1.4 8.3-.3 12.2-1.3 5.4-1.4 11-3.9 16.5-2.5 2.8.8 5.4 2.4 7.8 4" class="b"/><path d="M8.7 42.7c3.5-1.5 6.8-3.7 10.4-5.2 3.8-1.7 7.9-3.4 12.2-3.3 4.5.1 8.7 2.2 13 3.4 2 .6 4 .3 6 .3q3.6.3 7 1.3c10 2.9 15 .5 24.4-2.5 6.8-2.6 12.1-3.8 19-.5 3 1.3 5.7 3 8.8 4 6.3 1.4 12.8-.8 19-2 4.4-.8 8.8-1.3 13.1-.4 4.6 1.1 9.2 2.4 14 2.7 4.8.5 9.8 0 14.7 0q3.6-.1 7 1 1.6.9 3.4 1.5h2.6" class="b"/><path d="M8.7 34c2.6-1 5.2-2.7 7.8-3.8 5.1-2.3 11-3.8 16.5-2 4.2 1.3 8 3.8 12.2 5 2 .5 4 0 6 .2q4 .3 7.9 1.1 5.6 1 11.3 0c4.6-.9 9.2-2.1 13.9-2.8q6.1-1.1 12.1.6c6.5 2 12.1 6.7 19.2 4.5 9.2-2.4 17.8-9.4 27.8-7 7 1.8 13.6 5 20.8 5.9 3.8.6 7.6.7 11.3 1.3l4.4 1.2h3.5" class="b"/><path d="M8.7 25c4.6-1.6 9-3.9 13.9-4.4 6.7-1.1 13 2.1 19 4.6a19 19 0 0 0 5.3 1.4c2 0 4-.3 6 0 4.4.5 8.7 1.6 13.1 2q5.7.5 11.3.5a87 87 0 0 1 19.1 3.3q2.2.6 4.4 1.1h13.9c1.2 0 2.4-.9 3.5-1.4l4.3-2.6c4.4-2.6 8.9-5.4 13.9-6.6 6-1.5 11.2.5 16.5 3.2 4.5 2.1 9 4.2 14 5.2q4.1.8 8.6.9l7.8.5" class="b"/><path d="M8.7 16.6c6.5-1.4 13.2-3.3 20-2.4 4.7.5 9.2 2.2 13.9 3.2q2.5.6 5.2.6 3.4-.4 7 .1c7.7 1.4 15.1 4.5 22.5 7.2l5.2 2.2c1.1.4 2.3 1.2 3.5 1.3h30.4c1.3.2 2.5-1 3.5-1.7l4.3-3.2c4-2.7 8.3-5.3 13-6.4 8.7-2.2 12.7 1.1 20 4.9 9.2 4.9 16.2 4.7 26.1 2.8" class="b"/><path d="M8.7 9.4q8.3-.8 16.5-1 7.4-.2 14.8.4h6.9q4-.4 7.8 0C64 10.5 71.6 16.7 79.1 22c2.8 2 2.3 2.4 6 2.2H119c4-3 7.7-6.3 12.2-8.4q4.1-2 8.7-2.9c1.7-.3 3.5-.8 5.2-.7 4 .3 7.7 2.6 11.3 4.3 10.2 5.4 16.3 4.7 27 1.3" class="b"/></svg>