<svg xmlns="http://www.w3.org/2000/svg" id="a" width="1920" height="2400" viewBox="0 0 192 240"><defs><style>.b{fill:none;stroke:#fff;stroke-miterlimit:10;stroke-width:.4px}</style></defs><path d="M0 0h192v240H0z" style="stroke-width:0"/><path d="M9 226.5c6.4-.4 12.6 2 19 1.8 6.1 0 12-2.2 18.2-2q3.2.3 6 1.7c1.2.4 2.3 1.4 3.5 1.4h25.1c2.3 0 4.7-.7 7-.4q2.2.1 4.3.4H112l2.6-.8c3.8-.7 7.6 0 11.3.8h15.6c1.8-.7 3.5-2 5.2-3 5.1-3.4 11-6 17.3-5.6l7.8.6q5.6-.3 11.3-.3" class="b"/><path d="M9 222c6.2-.8 12 2 18.1 2.7h47.7q1.4 0 2.6-.3c5-3 9.2-3 14.7-1.8 7.6 1.7 13.2 3.5 20.8.3q3.4-.7 7 0c2 .4 4 1.5 6 1.8h14.7l5.2-.1q3.7-2.3 7.8-4.1 4.1-1.6 8.7-1.8c3.1 0 6.3.6 9.5.7q5.6-.1 11.2-.1" class="b"/><path d="M9 217.8q4.8-.5 9.5.8c1.7.3 3.4 1.2 5.2 1.4h47.6c1.2-.3 2.4-1.2 3.5-1.8q3.3-2 7-3.2c5.9-1.3 11.6 2 17.2 3.4a22 22 0 0 0 8.7.7c1.7-.2 3.5-1 5.2-1.4 4.2-1 8.3.8 12.1 2.3h22.5c1.5-.2 3-1.3 4.4-1.7a22 22 0 0 1 6.9-1.5c4.1-.2 8.1 1 12.1 1.8 4 .5 8.1.1 12.2.3" class="b"/><path d="M9 213.5q4.8-.1 9.5 1c1 .2 2.3.9 3.4.8h46.8c3.2-1.6 6.2-3.6 9.5-5 4.5-2.2 9.5-.7 13.9 1a35 35 0 0 0 13 2.7q2.6 0 5.2-.8 2.5-1 5.2-1c2.4 0 4.7.8 7 1.6 1.6.6 3.3 1.7 5.1 1.5h19.9l4.4-1.5a19 19 0 0 1 7.8-.3c2.3.2 4.6 1.4 6.9 1.8h16.5" class="b"/><path d="M9 209c3.4.2 6.9 1.3 10.3 1.6H68c3.9-1.7 7.9-3.6 12-4.6 6-1.2 11.6 2 17.4 2.7q4.8.7 9.5-.4l6-1.8c4.9-.8 9.5 1.2 14 2.8q2 .7 4.3 1.3h7l5.1-.1q3.4-1.4 7-2.4 4.2-1 8.6 0 2.2.6 4.3 1.6c.8.4 1.8 1 2.6.9h17.4" class="b"/><path d="M9 204.4q3 .6 6 1.4h55.5l6-1q3-.6 6-.9c3.2 0 6.4.6 9.6.8a30 30 0 0 0 11.3-1.6c3.2-1 6.2-2.6 9.5-3.4 4.4-.9 8.8.7 13 2 4.7 1.5 9.7 2.8 14.7 2 7.4-1.6 12.2-4.6 20-1.1q2.1 1 4.3 2.3c.7.4 1.7 1.2 2.6 1H183" class="b"/><path d="m9 199.5 6 1.7h65.8q5.7.1 11.3-.1 3.6-.8 7-2.3c9.7-4.5 12.6-10 24.2-5.7 6 2 12.4 4.9 19 3.7q3.9-1 7.8-1.7a18 18 0 0 1 10.4 1.5q4 2 7.8 4.4c4.9.4 9.9 0 14.7.2" class="b"/><path d="M9 193.7c2.5.8 5 1.8 7.7 2.1q2.7.2 5.3.7h68.4l2.6-1c4.5-2 8.7-4.8 13-7.3 4.5-2.8 8.5-4.3 13.8-3 7.2 1.5 14.2 4.9 21.7 4.6 3.2 0 6.3-.9 9.5-1.2a21 21 0 0 1 11.3 1.9q3.9 2 7.8 4.1c1.6.8 3.3 1.8 5.2 1.9h7.8" class="b"/><path d="M9 188q3.3 1.1 6.9 1.9l6 .3q9.6.5 19.1-1 6.1-1.2 12.1.4 3.6.9 7 2.2h24.2c1.1 0 2.5.2 3.5-.4 8.2-3.5 15.6-9 24.2-11.4 5.2-1.1 10.5 0 15.6.7q6 1 12.1 1.5 4.8.6 9.6 0 6.7-.7 13 1.7c7.4 3 12 7.2 20.8 6" class="b"/><path d="M9 182.7q3.3 1.2 6.9 1.8c5.8.5 11.6-.5 17.3-1.7 6-1.2 12.3-3 18.2-1q3.6 1.6 7 3.3c1.3.7 2.7 1.8 4.3 2h19.9c1.2-.1 2.4-1 3.4-1.6l6-3.3q7.1-3.7 14.8-5.4c6.5-1.5 13.3-1.4 20-1.8 4-.2 8-.6 12-.3 3 .3 5.8 1.2 8.7 1.3 5.3.3 10.7 1 15.6 3.2 7 3 12 7 20 5.3" class="b"/><path d="M9 178.3c8.3 2.9 13.4 1.8 21.6-.5 6.4-1.8 13.4-4.2 20-1.7 3.9 1.6 7.3 4.3 11.2 6.2h16.4c2 .3 3.6-1 5.2-2q3.4-2.2 7-4.2 5.2-3 11.2-3.7c2.9-.3 5.8 0 8.7 0q6-.2 12.1-1.3c5.5-1 10.9-3 16.5-2.9 2.7.1 5.2 1.3 7.8 2 4 1 8.2 2 12.1 3.8 5 2 9.7 5.2 14.7 7.3 3 1.3 6.5.9 9.6 0" class="b"/><path d="M9 174.2c2.8.8 5.7 1.7 8.6 1.8 8.3.1 16-4.2 24.3-4.7 6.8-.7 10.9 2.4 16.4 5.7 1.2 1 3 .6 4.4.6h15.5c4.7-1.9 8.5-5.6 13-7.9q5.3-2.8 11.3-2.6c3.2.2 6.3 1 9.5 1 7.5.3 14.6-2.8 21.7-4.7 5.4-1.4 8-.4 13 1.6 7.8 2.8 14.7 7.5 21.6 12 .6.5 1.8.7 2.6.6H183" class="b"/><path d="M9 169.5q3.4 1 6.9 1.9 3.3.5 7 .3c8-.5 16-3.5 24.2-2.1 3.1.4 5.7 2.3 8.6 3.4h19.1c6.3 0 5.2.4 10.4-3.3 5.5-4.3 11.7-8.4 19-8q4.8.5 9.6.5 7.5-.1 14.7-2c3.7-.7 7.5-1.7 11.2-1.3 3 .3 6 1.7 8.7 2.8 6.6 2.7 12.4 7.1 18.2 11.2H183" class="b"/><path d="M9 163.6a85 85 0 0 0 19.9 4.5c6.3.4 12.7 0 19 .2H80q1.3-.6 2.6-1.4c4.6-3 8.8-6.8 13.8-9 3.8-1.9 8-2.5 12.2-2.7 6-.6 12.1.1 18.2.6 4.3.3 8.7.3 13 .8q6.7 1.1 13 4.2c4.2 2 8.1 4.8 12 7.3 2.3.3 4.7 0 7 .1h11.3" class="b"/><path d="M9 157q7.9 2.7 15.5 6.2c1 .6 2.4.3 3.5.3h48.5c1.6.3 3-.5 4.3-1.1q3.2-1.6 6-3.6c4.7-3 9.5-6 14.8-7.6q3.8-1.2 7.8-2 3-.8 6-.6c5.2.4 10 2.5 14.8 4q6.8 2.2 13.9 3 6.8 1 13 4.4l4.3 2.3q1.1.8 2.6 1.2h19" class="b"/><path d="M9 150.1q4 1.7 7.7 3.8 4.2 2 7.9 4.8c2.2.3 4.6 0 6.9.1h40.7c6.1-1 11.7-3.9 17.3-6.3q8-3.4 16.5-5.8c2.9-.7 5.6-2.3 8.6-2.5 4 0 7.8 1.8 11.3 3.5 5 2.4 10 5.1 15.6 5.4q6.3-.2 12.1 2.1l5.2 2.3c1 .4 2.3 1.2 3.5 1.4H183" class="b"/><path d="M9 144q5.2 3 10.3 6.4l3.5 2.7q1 1.1 2.6 1h24.3c1.4-.2 2.9-1 4.3-1.3 6.5-1.7 13.3-.6 20-1.1q4.4-.5 8.6-2 4.2-1.2 8.6-1.7c5.2-.8 10.6-1.2 15.6-2.8 2.1-.6 4-1.7 6-2.5 4.2-1.3 8.5.3 12.2 2 5 2.3 10 5.3 15.6 5.4 2.6 0 5.3-.4 7.8.2a36 36 0 0 1 7 2.3c1.3.4 2.8 1.6 4.3 1.6 7.7-.1 15.6.2 23.4-.1" class="b"/><path d="M9 139.8q4.6 3.5 9.5 6.8l2.6 2q.8.6 1.7.8h23.4c9.3-7.2 16.3-5 26.9-3.7q3 .2 6-.4a25 25 0 0 1 7.8-1c7 .1 14 2.5 20.8.3 1.8-.5 3.5-1.6 5.2-2.3q2.5-1 5.2-.8c6.3.4 12 3.7 18.2 4.7q2.6.5 5.2.2a18 18 0 0 1 11.3 1.8c1 .4 2.2 1.4 3.4 1.2h26.9" class="b"/><path d="M9 137.4c3.3 2.6 6.6 5.4 10.3 7.3H42q1 .2 1.7-.3c2.2-1.8 4.4-3.8 7-5.1 11-5.8 20 4.3 31.1 1.6 6.6-.6 12.7 2.6 19 3.7q1.8.2 3.5.1 1.8.1 3.5-.2c3-.6 5.6-2.7 8.6-3.2 7.5-1.5 15 .6 22.6.5h5.2q2.2 0 4.3.9 2.2.8 4.3 2H183" class="b"/><path d="m9 135.8 4.3 3c1 .6 2.2 1.4 3.4 1.2h17.4q2.6.2 5.2-.1c4-2.8 7.5-6.7 12-8.5 7.7-2.9 14.9 2.3 21.7 5q2.6.9 5.2 1.2h4.4q4 .6 7.8 2c1 .6 2.3.4 3.4.4h23.4a71 71 0 0 1 11.3-3.1q7.3-1.3 14.7 0c2.8.4 5.3 1.9 7.8 3.1h32" class="b"/><path d="M9 135c1.9.6 4 .2 6 .3h17.4c1.3 0 3 .3 4.3-.7q4.3-2.9 8.6-5.8c3-2.1 6.6-4 10.4-3.8 7 .2 12.8 4.7 19 7.2 3 1.4 6.5 1.3 9.6 2.2q1.7.6 3.5 1h31.1c1.2 0 2.4-1 3.5-1.4q3-1.5 6-2.4a20 20 0 0 1 16.5 2c1.1.5 2.3 1.6 3.5 1.7H183" class="b"/><path d="M9 130.6H34c.8-.1 1.8-.8 2.6-1.2L41 127c5.6-3 11.6-6.3 18.2-5.3 5.5.6 10.5 3 15.6 5 3.3 1.3 7 2 10.4 3.2q3 1 6 .7h25.1c1.3.2 2.5-.8 3.5-1.3l4.3-2c7.4-3.3 13.8-1.6 20 3.3h39" class="b"/><path d="m9 126 28.5-.1q5.2-2.3 10.4-4c5.5-2 11.4-3.4 17.3-3 8.2.2 15.6 4.1 23.4 6q5.2 1.3 10.4 1 4 .2 7.8-.1 4-.4 7.8-1.6c5.3-2 10.7-5 16.5-3.7 3.5.8 6.7 2.9 9.5 5.2 1.6.5 3.5.1 5.2.2H183" class="b"/><path d="M9 121.2h37.2q2.6-.7 5.2-1.8c7.2-2.7 14.7-6 22.5-5.1 4.2.4 8 2.5 12.1 3.4a46 46 0 0 0 16.5 1c4.6-.6 9.4-1.1 13.9-2.5 9.8-3.1 14.7-1.1 22.5 5H183" class="b"/><path d="M9 116.5h36.3c1.7 0 3.6.3 5.2-.2 7-3 13.9-7.4 21.7-8q3-.2 6 .5 2.6.7 5.2 1.3 5.2 1 10.4.6c5.8-.3 11.6-1.4 17.4-2.2 4.2-.6 8.7-1.4 13-.3a26 26 0 0 1 9.5 5l2.6 2.3a3 3 0 0 0 2.6 1H183" class="b"/><path d="M9 111.8H47c1.5-.2 3-1.2 4.3-1.8l7.8-3.8c5.7-2.5 12-4.2 18.2-3.6l5.2.6a42 42 0 0 0 8.6-.8q8.6-1.6 17.4-2.5c3.1-.3 6.3-.7 9.5-.3 8 1 14.2 6.8 20 12 5.4.4 10.9.1 16.4.2H183" class="b"/><path d="M9 107.1h29.4q1.7.1 3.5-.1 1.3-.6 2.6-1c2.7-1.2 5.2-2.9 7.8-4.1A45 45 0 0 1 74.8 97c2.8 0 5.8.3 8.6-.2 4.4-.8 8.6-2.4 13-3.2 4-.8 8.1-.8 12.2-.8 15.8-1.1 21.2 4.9 32.9 13.9 1.6.6 3.5.2 5.2.3H183" class="b"/><path d="M9 102.4h15.5q4.4.2 8.7-.1 5.7-2 11.3-4.3c3-1.4 5.6-3.7 8.6-4.9 6.9-2.9 14.5-1.4 21.7-1q4.9.3 9.5-1.2c12-4.2 13.7-3.6 26-2 5.2 0 10.5-.3 15.6.9 8.7 2 16.3 7 23.4 12.3q1.2.5 2.6.3h17.3c4.5-2.8 8.2-5.2 13.8-3.8" class="b"/><path d="M9 97.7h17.3c4.8-2.8 10.3-4.2 15.6-6.2 3-1 5.9-3 8.6-4.8a19 19 0 0 1 12.1-1.9c6.6.9 13.4 3.5 20 1.2 3-1 6.2-2.2 9.5-2.6q4.9-.6 9.5.8c3.2.9 6.3 2.2 9.6 2.5 4 .1 8.1-1.1 12-2 5.2-1.2 10.6-1.8 15.7-.2 9.2 2.8 15.2 13.8 26 9.2 6.4-2.6 10.6-8 18.1-5" class="b"/><path d="M9 93h14.7q4.4-3 9.5-4.8c3.4-1.2 7-2 10.4-3.4 6.2-2.6 7.8-6 15.6-6 6.4 0 12.6 2.9 19 2.4 3.8-.4 7.5-2 11.3-2.2 7-.8 12.7 3 19 5 10 2.8 18.8-10 29.5-9.2 9.4.7 14.6 12 25.1 10 7.5-1.5 11.7-7.6 20-4.2" class="b"/><path d="M9 88.3H21a3 3 0 0 0 1.7-.4q3.2-2.4 7-4.2c6.1-3 13.3-3.9 19-7.8 7-4.9 15-1.9 22.5.2q3.3 1 7 1c1.6 0 3.5-.5 5.1-.6q6.7-.9 13 1.4c4 1.4 8 3.6 12.2 4.5 4.2 1 8.1-1.8 11.2-4.4 3.4-2.8 6.7-6 10.4-8.5 13.6-9 18.2 6.3 30.3 7.6 5 .5 9.4-2.4 13.9-3.8a15 15 0 0 1 8.6.2" class="b"/><path d="M9 83.6h12c2.4-1.4 4.6-3.3 7-4.5q5-2.7 10.4-4.6 4.6-1.6 8.7-3.8c5.7-4 10.9-4 17.3-1.6 4.5 1.7 9 4.2 13.8 4.5 2.9 0 5.9-.3 8.7.3 7 1 13 5 20 6 5.6 1 9.3-2.9 13-6.7 4.1-4.4 8.1-9.6 13.8-12.2 12.9-5.4 18.3 13 32 9.6 6.1-1.7 10.6-4.5 17.3-3" class="b"/><path d="M9 78.9h11.2A62.7 62.7 0 0 1 35 70.4q6.2-2.6 12.2-5.8c5.8-4 11.1-3.6 17.3-.7 4 1.8 7.8 4.2 12.1 5.4q2.6.6 5.2.6 2.2.3 4.3 1c6.1 1.7 11.8 5.2 18.2 5.7s10-2.7 13.9-7.3c4.2-4.7 8-10.4 13.8-13.4 4.1-2 9.2-1.3 13 1 6.4 4 12.4 11.1 20.8 9.3q3.6-1 7-2 5-1.6 10.4-1.3" class="b"/><path d="M9 74.2h11.2a142 142 0 0 1 17.3-9.8l9.6-5c6.5-4.3 12.4-3.4 19 0 3.4 1.7 6.8 3.8 10.4 5q2.2.8 4.3.9 2.3.4 4.4 1.2c5.9 2.4 11.6 6.3 18.2 6a18 18 0 0 0 13-7.3c4.6-5.3 8.6-12 15.5-14.5 4-1.2 8.4.1 12.2 1.7C150.8 56 156.3 64 164.9 63c2.6-.3 5.2-1.3 7.8-2 3.4-.7 6.9-1.7 10.4-1.7" class="b"/><path d="M9 69.5q6 .1 12-.1c5.9-3.7 12.2-6.5 18.3-9.7 12.4-6.2 15.2-10.7 29.4-4q4.2 2.1 8.7 3.6l3.4.7q2.3.5 4.4 1.5c6 3 12 7.7 19 6.5 8.5-1.4 12.8-9.5 18.2-15.2 2.8-3 6.2-6 10.4-6.5 3.9-.4 7.7 1.2 11.3 2.4 6.8 3.8 12.1 12 20.8 11.2q3.9-.5 7.8-1.7c3.4-.7 6.8-1.8 10.4-1.9" class="b"/><path d="M9 64.8h8.6c1.7-.1 3.7.4 5.2-.6 7-3.6 14.5-5.7 21.7-9 2.6-1 5-2.6 7.8-3.6 7.3-2.9 15.2-.7 22.5 1.3 2.5.8 5.3.8 7.8 1.7 7.7 3 14.3 11.3 23.4 9.3 11.2-2.7 15-18.4 26.8-20.3 3.8-.4 7.6.8 11.3 1.8 7.4 3.4 12.6 11 21.6 10.4 2.6 0 5.3-.8 7.8-1.2 3.2-.4 6.4-1.2 9.6-1.2" class="b"/><path d="M9 60h12c4.7-2 9.7-3.7 14.8-4.2 3.5-.5 7-.7 10.4-1.7 3.7-1.2 7.4-2.8 11.2-3.7q11.1-2.8 22.6-1.9c5.7.8 10 5.4 14.7 8.3 2.1 1.4 4.4 2.8 7 3.3h3.4c5 .6 8.7-3.7 12.1-6.8 3.6-3.5 7.4-7.3 12.1-9.1 3.3-1.4 7-1.3 10.4-1.1 2 .1 4.2-.1 6 .4 5.2 1.4 9.7 4.4 14.8 5.8q5.5 1.5 11.3 1.5 5.6.3 11.2.3" class="b"/><path d="M9 55.4h6.9q2.2.1 4.3-.2 2.5-1.3 5.2-2.2c7-2.5 13 0 20 .4q3 0 6-.9 4.8-1 9.5-2.4c6.3-1.7 16.4-6.5 22.5-4 4.8 2 8.7 5.7 13 8.4 1.2 1 2.9 1 4.4.9H112c1.6-.6 3-1.9 4.3-2.8 8-6 12.7-8 22.6-9.4q3-.6 6-1.6 4-.9 7.8-.4c10.6 1 20 6.7 30.4 8.4" class="b"/><path d="M9 50.7h9.5q2-1.3 4.3-2.3c4.7-2.3 10-2.3 14.7-.4 2.3.8 4.6 2.2 7 2.7h11.2c2.3 0 4.7.2 7-.5 6.1-1.3 11.7-5 18.1-5.3 3.5.2 6.7 2.2 9.6 4 1 .6 2.1 1.8 3.4 1.8h21.7c1 0 2.4 0 3.4-.2a75 75 0 0 1 11.3-4q5.3-1.3 10.4-3.7c3.5-2 6.6-4.6 10.4-6 7.4-3.2 13.9.7 19.9 4.9 3.8 2.5 7.8 5 12.1 6.6" class="b"/><path d="M9 46h7.7c1.9-.4 3.5-1.8 5.3-2.6q3.6-2.1 7.7-2.4c3-.1 6 1 8.7 2.4l3.5 2q1.2.7 2.6.6h89.2q4.8-1.9 8.7-5.3c3.6-3.3 6.8-7.2 11.2-9.4 9.1-4.5 16 6 22.5 10.5q1.7 1.4 3.5 2.7c1 .7 2.2 1.7 3.5 1.5" class="b"/><path d="M9 41.3h7.7c6.1-2.7 11.2-7 18.2-4.5 3.2 1 5.8 3.1 8.7 4.5h95.2c5.5-4 9-10.3 14.8-13.8 6.3-4 12 1 16.5 5.4l6 5.6c1 .9 2.2 2.1 3.5 2.8h3.4" class="b"/><path d="M9 36.6h9.5c2.2.2 4-1.4 6-2q4.6-2.1 9.6-1.5c3 .5 5.9 2 8.6 3.3 2 .4 4.1 0 6 .2H139c5.8-4.5 10.7-13.3 18.2-14.4 5.3-.5 9.4 3.9 13 7.3 2.4 2.4 5 5 7.7 7h5.2" class="b"/><path d="M9 31.9h16.4c1.4 0 3-.6 4.3-.8q3.5-.5 7 0 2.2.3 4.3.8h96.2c4.4-2.9 7.8-7.2 12-10.5 9.8-8 16.5 0 23.5 7 1.3 1.1 2.6 2.8 4.3 3.5h6" class="b"/><path d="M9 27.2h127.2c1.7-.5 3-2.1 4.4-3q4.3-3.5 8.7-6.8c9.2-6.7 15.6-1.5 22.5 5.4 5.5 5.3 3.7 4.3 11.3 4.4" class="b"/><path d="m9 20.8 2.5 1.6H138q4.9-3 9.5-6.5c8.1-6.3 14.4-7.5 22.6-.4 2.8 2.3 5.1 5.6 8.6 7h4.4" class="b"/></svg>