<svg xmlns="http://www.w3.org/2000/svg" id="a" width="1920" height="2400" viewBox="0 0 192 240"><defs><style>.b{fill:none;stroke:#fff;stroke-miterlimit:10;stroke-width:.3px}</style></defs><path d="M0 0h192v240H0z" style="stroke-width:0"/><path d="M9.4 217c5.8-3 12.5-2.7 19-2.7 4.2 0 8.6-1.1 12.9-.1 3.2.6 6.2 2 9.4 2.5q3.9.2 7.8 0 3.5 0 6.9-1c2.6-.5 5.1-1.5 7.8-1.8 13.4-2.7 15.4 5.8 28.4 6 4 .2 8-.6 12-.6 4 .2 8.2.6 12.2 0 3.7-.4 7.4-1.5 11.2-.8 4.1.6 8 2.4 12 3.5 4 1 8.2 1.8 12.1 3.3l7.8 3 4.3 1.5c3 1.2 6.2 2.5 9.5 2.1" class="b"/><path d="M9.4 213.6c5.4-3.2 12-3 18-3 3.8 0 7.5-1.2 11.3-.8 4.2.3 8 2.7 12 3.6q3.5.4 7 .4a29 29 0 0 0 7.7-.9c3.1-.8 6.2-2 9.5-2.3 5.6-.7 11 1 16.4 2.6 6.8 1.3 13.6 3.7 20.7 3.2 4.8-.3 9.7.2 14.6 0 2.9-.1 5.8-.5 8.6-.4q4.8 0 9.5 1c7.5 1.5 15.1 2.7 22.4 5.1q3 1 6 2c3 1.3 6.2 2.7 9.5 2.5" class="b"/><path d="M9.4 210.5c6-3.4 11.4-2.9 18-2.7 3.6.2 7-1 10.4-1.1 4.3-.3 8.1 1.8 12 3 2.9.8 5.9.7 8.7 1q4 .2 7.8-.7c2.5-.6 5.1-1.6 7.7-2 4-.4 8.1.3 12 .8 4.4.9 8.8.7 13 2 3.7 1 7.4 2.8 11.2 3q2.6 0 5.2-.2 7.3-.7 14.7-.4 6.4-.1 12.9.2 5.2.4 10.3 1.5l10.4 1.6q4.3 1 8.6 2.4c3.3 1.4 6.6 3.3 10.3 3.3" class="b"/><path d="M9.4 207.4c9.2-4.7 14-1.2 23.2-2.4 5.4-1.2 9.4-1.6 14.7.3q3.8 1.2 7.8 1.5 3 .5 6 .7 4 .1 7.7-1c2.3-.6 4.6-1.5 7-1.5 4 0 8 .8 12 1.3 2.6.4 5.2 0 7.8.4 5.3.6 10.1 3.7 15.5 4l6-.3q6.5-.6 13-.3 10.4 0 20.6 1.5c4.9.6 9.9.7 14.7 1.9q3.5.6 6.9 1.9c3.3 1.4 6.6 3.3 10.3 3.4" class="b"/><path d="M9.4 203.8c2.5-.7 5-1.8 7.7-2 5.2-.4 10.4 1.1 15.5.8 3.7-.4 7.5-1.2 11.3-.7 3.7.5 7.4 1.4 11.2 1.7 3.4.6 6.9 1.3 10.3.9 4.1-.4 8-2.5 12-2.4 4.1 0 8.2.7 12.1 1.2q4 .1 7.8.5c4.1.6 8 2.2 12 3.1 3.7.7 7.6.5 11.3.6l14.6-.2q5.3.1 10.4.8c6.3.8 12.8 1 19 2.5q3.8 1 7.7 2c3.3 1.4 6.7 3.3 10.3 3.5" class="b"/><path d="M9.4 200c2.3-.3 4.6-1 6.9-1.2 4.9-.6 9.8.7 14.6 1.4 6 .7 12.1.3 18.1.8q3.5 0 7 .4c3.3.5 6.8 1.2 10.3 1 2.9-.1 5.8-1 8.6-1.7q4.6-1 9.5-1.1 3.9.1 7.7.7 5.3.4 10.4 1.5c6.7 1.8 13.6 4.2 20.7 3.7 5.1-.4 10.3-1.2 15.5-1.3q4.7 0 9.5.6 5.2.3 10.3 1.3l7.8 1.8c2 .5 4 .7 6 1.4 3.4 1.2 6.7 3.2 10.3 3.7" class="b"/><path d="M9.4 196c4.3.2 8.6-.9 12.9-.4 6.7.7 13 3.8 19.8 4.4 4 .5 8-.4 12.1-.3 4.3 0 8.6.9 13 1 6 .2 11.3-3.1 17.2-3.8 3.5-.5 7 .7 10.3 1.2q5.7.6 11.2 1.9c5.7 1.5 11.2 4.5 17.3 3.6q3.4-.6 6.9-1.4 5-1 10.3-1.7a54 54 0 0 1 11.2.4c3.8.5 7.5 1.7 11.2 2.4 2.8.6 5.8.8 8.6 1.4 4 1 7.3 3.4 11.2 4.4" class="b"/><path d="M9.4 192.4c3.4.6 6.9.2 10.3 0 6.5-.6 12.4 2.4 18.1 5q5 2.5 10.4 1.7a56 56 0 0 1 17.2-.6c5.7.7 8.6-.3 13.8-2.4 9.3-3.6 11 .2 19.8.5q5.3.2 10.4 1.7c3.9 1.4 7.8 3.5 12 3 2.7-.2 5.3-1.3 7.8-2l4.3-1 6-1.4c4.9-1 10-.4 14.7.7q4.2 1.2 8.6 1.8c2.8.4 5.8.2 8.6.7 4 1 7.4 3.4 11.2 4.5" class="b"/><path d="M9.4 189.3q5.2.9 10.3 0c6.7-.8 12.6 2 18.1 5.5 4.3 2.5 8.2 2.9 13 1.7a64 64 0 0 1 10.3-1c3.1 0 6.3.5 9.5.3 4.1-.2 8-2.4 12-3a17 17 0 0 1 7 .3c2.4.7 5 1.4 7.7 1.2 4.3-.2 8.8-.6 13 .9 2.5.9 5 2.2 7.7 2.6 3.9.7 7.6-1 11.2-2.2q2.5-.6 5.2-1 6-1.6 12-.9c6.1.7 12 3.2 18.1 2.9 9-.7 10.3 1.7 18.1 4" class="b"/><path d="M9.4 186.8q3.4.8 6.9.6c4.2-.3 8.6-1.2 12.9-.2 6.2 1.2 10.8 6.6 17.2 6.8 4 0 8.1-.7 12.1-1 3.7-.4 7.5-.3 11.2-.6 4.4-.3 8.5-2.1 13-2 8.1.3 8.8 3.4 18 .8 11.1-2.9 11.8 2 20.7 2 2.7 0 5.2-1 7.8-1.4a46 46 0 0 1 15.5 0c4.6.9 9.2 2 13.8 2.4q4.8.1 9.5-.4c5-.3 9.7 2.3 14.6 3" class="b"/><path d="M9.4 184.3q3.4.8 6.9 1.1c3.7.2 7.5-.7 11.2-1q4.6-.3 8.6 1.7c6.3 3.4 10.7 5.6 18.1 4.9q7.8-.6 15.5-1.5c2.9-.4 5.7-1.4 8.6-1.8 4.4-.6 8.7.8 13 1.7 6.3 1.1 11.9-3.5 18-3.5 2.4 0 4.7.9 7 1.5q3.8 1.3 7.7 1.2c3.7-.2 7.5-.6 11.2-.1 4.4.4 8.7 2 13 2.9q5.5 1 11.2.6 4.7-.5 9.5-.7c4.6 0 9.1 1.6 13.8 1.9" class="b"/><path d="M9.4 181.3a32 32 0 0 0 19.8 1q4.9-.9 9.5 1.4c3.9 1.6 7.8 3.6 12 4.2q3.5.3 7 .1 5.6 0 11.2-.8c2.9-.4 5.7-1.5 8.6-2.1 4.3-1.2 8.7-.3 13 .5 3 .5 6.4-.2 9.4-1.2 9.6-3.3 10-3.8 19.8-.7 4.8 1.3 9.9.7 14.7 1.9 4.9 1.3 9.5 3.9 14.6 4.4 5.8.5 11.5-.5 17.3-.4 5.4 0 10.9 1 16.3 1.1" class="b"/><path d="M9.4 177.6c3.4 1 6.8 2.4 10.3 3.4q3.8.9 7.8 0c3-.7 6.3-1.5 9.5-.9 4.4.8 8.5 2.7 12.9 3.8q2.5.5 5.2.5l7.7.8c12.6.7 14-5.8 27.6-4.2q6 0 12-1.5c3.7-.9 7.5-2.2 11.3-1.4 3.4.6 6.8 2 10.3 2.4 3.5.6 7 1 10.4 2.2 4 1.7 7.7 4.3 12 5.2 4.6 1 9.2-.3 13.8.2q4.4.3 8.6 1 6.9.4 13.8.5" class="b"/><path d="M9.4 173.4q3.5 1.2 6.9 2.6a20 20 0 0 0 10.3 3q3-.4 6-1a31 31 0 0 1 7.8-.2c5 .5 9.7 2 14.7 2.2 3.7.6 7.4 1.9 11.2 2 6 .5 10.7-3.3 16.3-4.8 3.7-1 7.5-.7 11.2-1l8.7-.6c2.8-.3 5.7-.9 8.6-.9 3.2.1 6.4 1.1 9.5 1.7q3.4.6 6.9 1c8 1.2 11.7 6.7 19 8.9 2.1.6 4.6.4 6.8.3q3.5 0 7 .7c2.8.5 5.7 1.4 8.6 1.8q6.9.3 13.7 0" class="b"/><path d="M9.4 169.2q3 .8 6 2l5.2 3c2.6 1.5 5.6 2.6 8.6 2.4 4.9-.4 9.7-1.6 14.6-1.9a54 54 0 0 1 11.3.5c3.2.6 6.2 2.1 9.4 3 8.2 2.5 12.5-3.1 19.9-4.9q4.2-.7 8.6-1 5.2-.2 10.3-.2a45 45 0 0 1 13 1.3q3 .6 6 .8c2.6 0 5.2-.2 7.7.5 6.6 1.8 11 7.9 17.3 10.2q3 .9 6 .9 3 .1 6 .5c3.2.5 6.4 1.3 9.5 1.6q7 .4 13.8-.6" class="b"/><path d="M9.4 165.4q3 .7 6 1.8c5.2 2.9 10 7.8 16.4 7 7-.5 13.5-4 20.7-3.5 7.1.1 13.3 7.4 20.7 4.5 4-1.6 7.7-4.2 12-5.1 2.5-.6 5.2-.6 7.8-1a65 65 0 0 1 15.5.4c6.7 1.2 9.8 4 17.2 2.4 8.9-1.2 14.7 7.1 21.6 11 5 2.8 11 1.8 16.4 2 6.3.2 12.7 1.2 19-.4" class="b"/><path d="M9.4 162.5q3 .5 6 1.6c6 3.1 10.6 8 18.1 6.9 6.9-.8 13.7-3.4 20.7-2.8 7.1 1.2 13.3 7.4 20.7 3.3 6.8-3.6 9.5-4.7 17.2-5 4.9-.4 9.8-1.5 14.7-.7 4.6.5 8.4 3.8 12.9 4.8 2.9.7 5.8-.5 8.6-.5 2.7-.2 5.4 1 7.8 2 4.4 2.2 8 5.9 12 8.6 5.5 4 12.1 1.3 18.1.8 2.6-.3 5.3.3 7.8.5q4.4.4 8.6-.7" class="b"/><path d="m9.4 160 6 1.8c2.6 1 5.1 2.6 7.8 3.7 3.7 1.8 8 2 12 1.6q5.2-.2 10.4-.2h5.1q2.6-.1 5.2.2c3.8.6 7.4 2.1 11.2 2.5 8.7.7 11-6 23.3-5.6 8-.1 14.6-5.3 22.4-.4 3.4 2.2 6.9 5.3 11.2 4.9q3-.4 6-.4 4.6.6 8.7 2.1c3.5 1.5 6.4 4.3 9.4 6.5 2.7 2 6.2 3 9.5 2.4 2.6-.3 5.2-1.2 7.8-1.6 2.9-.6 5.8.3 8.6 1q4.3.8 8.6-.3" class="b"/><path d="m9.4 157.5 6 2.2c2.5 1 5.1 2.3 7.8 3 3.6 1.2 7.4 1 11.2 1 4.9 0 9.7 1.6 14.6 2 2 .4 4 .1 6 0q3.9.2 7.8.6c12.4 1.3 14.4-5.6 25.9-5.2 10.6 1 16.6-8.7 26.7-.2 2.5 1.9 5.3 4 8.6 4q3 .1 6 .1 3.5.5 7 .9c6 .7 10 6 15.5 7.9 4.7 1.6 9.8-.3 14.6 0 2.4 0 4.7 1 6.9 1.6q4.3 1.2 8.6.5" class="b"/><path d="M9.4 154.2a51 51 0 0 0 17.2 5.8c2.6.2 5.2 0 7.8.3q4 .6 7.7 1.9 4.2 1.4 8.6 2c2.3 0 4.7-.4 7-.3 7.2.3 13-.6 19.8-3.3q4.2-1.5 8.6-1.4c2.9 0 5.9.5 8.6-.5q3.5-1.4 7-3.2c7.3-3.5 10.2-1.3 16.3 3q3.5 2.2 7.8 2h4.3l4.3.6q6.5.3 12 3.8c6 3.5 13.2 4.2 19.9 5.5 5.4 1.3 10.7 3.8 16.4 3" class="b"/><path d="M9.4 150.5q6.8 4.2 14.6 5.7c3.1.5 6.4.6 9.5 1.1 5.8 1.2 11.3 3.6 17.2 4 4.9 0 9.9.5 14.7-.3 5-.7 9.7-2.7 14.6-3.3 4.3-.6 8.7 1 13 .1 3.1-.8 5.8-3 8.6-4.6 6.4-3.7 9.6-2.4 15.5 1.2q3.1 1.8 7 1.8 3-.3 6-.4 4.7.5 9.4 1.8c3 .8 5.7 2.2 8.6 3q2.6.8 5.2 1.1 2.6.7 5.2 1.6c7.8 2.8 15.6 6.8 24.1 6.5" class="b"/><path d="M9.4 146.7q3.7 2.4 7.7 4.2 5.9 2.2 12.1 3.5c3.4.8 6.8 2 10.3 2.5q6 .7 12.1.7c4 0 8 1 12 .5 4.7-.5 9.2-2.5 13.9-2.7q4.3-.3 8.6.5c2.5.4 5.3.7 7.8-.2 2.7-1.2 5.1-3.2 7.7-4.7 9.7-6 12.7 2.2 21.6 1.6 2.8-.2 5.7-1.3 8.6-.7 5 1 9.7 3.4 14.6 4.5 3.4.8 7-.1 10.4 1 4.1 1 8 3 12 4.4 4.6 1 9.1 2.7 13.8 3" class="b"/><path d="M9.4 143.1q3.3 2.3 6.9 4.3 5.5 2.6 11.2 4.7c7.7 3 9.7 4 18 2.2q4-1 7.8-.8c2.9.2 5.8 1 8.7.8 5 0 9.6-2.5 14.6-2.4 4-.2 8 1 12 1.4 3.7.5 6.7-1 9.6-3 6.2-4.1 10.3-4.7 17.2-1.6 8.5 3.6 11.8-1.8 19 .9 4.5 1.5 8.8 4.3 13.8 4 2 0 4-.8 6-1q5.7-.3 11.2 1.4 3.8 1.2 7.8 2c3 1 6.2 2.4 9.4 3" class="b"/><path d="M9.4 140.3a73 73 0 0 0 18 10.1c8 3.5 10 3.8 18.2.9 6.3-2.4 8.4-1.5 14.6-1.3 3.6 0 7-1.1 10.4-2 5.7-1.3 11.5 0 17.2.9q4 .5 7.8-1.1c6.7-3.5 10.5-5.3 18-2.5 4 1.6 7.8 2.8 12.1 2q2.6-.4 5.2-.6c3 .1 5.8 1.4 8.6 2.3 3.3 1 7 1.9 10.4.9 4.1-1.4 8.5-2.6 12.9-2.4q3 .1 6 .7 2.2.2 4.3 1c3.2 1.1 6.3 3 9.5 4" class="b"/><path d="M9.4 137.1c7.4 6 16.2 12 25.8 13.3 4.3.2 8.2-1.7 12.1-3.2q3.8-1.6 7.8-1.8 5.6-.1 11.2-1.3 6.4-1.7 12.9-1.2c3.7.3 7.5 1 11.2 1.1 3.2 0 6.4-1 9.5-1.5a30 30 0 0 1 8.6-.1q2.6.1 5.2.6c3.1.9 6.2 2.2 9.5 2.4 3.1.4 6.3-.5 9.4-.4 3.5 0 7 .8 10.4 1.1 3.5.6 7-.1 10.3-1.2a43 43 0 0 1 19.9-1.3c3.2.9 6.3 2.4 9.4 3.4" class="b"/><path d="M9.4 134.2c10.5 7.7 18.6 16.3 32.7 11.4 5.2-1.6 10-4.6 15.5-5.2 6-.6 12.1-1.6 18.1-1.6 5.2 0 10.4 1.1 15.6 1.3 5.8-.4 11.5 1.2 17.2 1.4 2 0 4-.5 6-.3 3.8.5 7.5 1.7 11.2 2 4.4.3 8.7-1 13-1.4 3.7-.5 7.5.1 11.2-.4q5.2-.8 10.3-1.4 4.8-1 9.5-1.5c4.4-.2 8.7 1.1 13 2.1" class="b"/><path d="M9.4 132c6 3.4 10.5 9.3 17.2 11.4q3.8 1 7.8.2a53 53 0 0 0 15.5-4.4c2-.9 4-2.1 6-2.7 4.5-1.3 9.2-.7 13.8-.7l7.8.1q3.4.3 6.9 1l6 1q2.6-.1 5.2.5c4.2 1 8.5 2.8 12.9 2 2.6-.5 5-1.8 7.8-1.6 4.9 0 9.7 2.6 14.6 1.4 3.5-.9 6.7-3 10.3-3.4 3.8-.5 7.5.2 11.3-.2 3.4 0 7 .1 10.3-.8q3.4-1 6.9-1.7 6.5-1 13 .4" class="b"/><path d="M9.4 131.3c6 2.7 10.4 9 17.2 10 2.6.5 5.3-.3 7.8-1l5.1-1q4.9-1 9.5-2.9c2.4-1 4.5-2.8 7-3.6 4.4-1.6 9.2-.2 13.7.3 2.3.3 4.6 0 7 .3q3.4.6 6.8 1.6t7 1.8q2.1.2 4.2.6c5 1.6 9.5 3.2 14.7 1 4-2 6.6-2.9 11.2-2 2.5.3 5.1 1.3 7.7 1.2 7-.6 9.2-6.7 18.1-5.9 2.3.3 4.7.1 7 .2q3.8.4 7.7-.2c2.7-.6 5.2-1.8 7.8-2.7 4.4-1.3 9.3-1.2 13.7-.2" class="b"/><path d="M9.4 131.4c6.1 2.4 11 8.7 18 8.3 3-.2 5.8-1.6 8.7-2.4q5.2-1.3 10.3-3 2.8-1 5.2-2.6c2-1.3 4.4-2.6 6.9-2.9 3.5-.5 7 .4 10.3 1 2.9.5 5.9.3 8.7 1 4 1.1 8 3 12 4.2q2.2.6 4.3.9 3.4 1 7 1.4c2.9.3 5.9-.6 8.6-1.8 2.4-1.2 5-2.4 7.7-2.2 3.5 0 6.9 1.7 10.4 1.8 4 .2 7-3 10.3-5 3-2 6.8-2.6 10.3-2.5q3.9-.2 7.8-.5c11.7-1 12.8-8.7 26.7-3.6" class="b"/><path d="M9.4 130.8c5.7 1.8 10.2 6.7 16.3 7.1 4 .3 7.6-1.8 11.3-3.1q5.7-2.2 11.2-5c2.3-1.1 4.5-2.7 6.9-3.8 4.3-2.2 9.3-1.6 13.8-.4 2.2.6 4.7.7 6.9 1.6 4.3 2 8.3 4.8 12.9 6.2 2.7 1 5.8 1 8.6 1.4 11.3 1.5 14.2-6.8 25.9-3.3 8.4 3 11.2-2.3 18-5.7 5-2.4 10.4-3.2 15.6-4.4 11.3-2.9 13.3-8.7 25.9-3" class="b"/><path d="m9.4 129 6 2.5c3 1.6 6 3.4 9.5 3.8 4 .4 7.7-1.5 11.2-3 6.8-3.2 13.1-7.4 19.8-10.8 4-2 8.7-2 13-.4l4.3 1.5q2.3 1 4.3 2.6a24 24 0 0 0 13.8 6.3c4.8 0 9.8.9 14.6-.3 9-2.2 10.8-5 20.7-2 4 1 7.9-1.1 11.2-3.2q4.7-3.1 9.5-5.9c5-2.8 10.9-4 16.4-5.8 8-2.7 10.6-3.1 19-.4" class="b"/><path d="m9.4 126.4 6.9 2.7c3 1.3 6.1 2.6 9.5 2.4 4.6-.3 8.8-2.7 12.9-4.6q8.5-4.7 17.2-9.3a14 14 0 0 1 9.5-1.9q2.8.6 5.2 2 2.9 1.1 5.1 3.2c5.9 5.1 8.3 7.2 16.4 6.1 5-.4 9.8 1.2 14.7 1q3 0 6-1.2c3-1.1 6.2-2.7 9.5-2.2 1.7.2 3.5.9 5.2 1.2 8.9 2.1 15.6-5.6 22.4-10.1q5.2-2.9 11.2-3.8l6-.7q3-.6 6-.8 4.8-.3 9.5.4" class="b"/><path d="M9.4 123.5q3.4 1.4 6.9 2.4a18 18 0 0 0 11.2.7c4-1.3 8-3.3 12-5 5.2-2.2 10.6-4.2 15.6-6.9 6.8-4.1 10.6-3.8 17.2.5 4.6 2.8 8.5 9 14.7 7.2 2.5-.4 5-1.5 7.7-1.3 5 .4 9.6 3.5 14.7 3.6 2.4 0 4.7-1.3 6.9-2.3 4.2-2.2 6.8-1.7 11.2-.3a17 17 0 0 0 11.2-.5c3.9-1.6 7-4.7 10.3-7.2q4.7-3.2 10.4-3.6c2.8-.3 5.7.2 8.6 0q7.4-1 14.6-2" class="b"/><path d="M9.4 121c4.4 2 9.8 3.3 14.6 2.3 4-1 7.4-3.4 11.2-4.6 4.8-1.6 10-2.3 14.7-4 3.6-1.1 6.7-3.6 10.3-4.9 6.9-2.3 12.9 3.5 18.1 7a8 8 0 0 0 7.8 1.2c2.2-.7 4.5-2 6.9-2.2 5.6-.3 10.1 4.1 15.5 5 4.1.7 7.4-2.8 11.2-3.6 2.6-.7 5.3.3 7.8 1q3 1 6 1c6.7.3 11-3.6 16.4-6.8q4.4-2.1 9.5-2.1c2.5 0 5.1.5 7.7.4q3.5-.2 7-1l8.5-1.9" class="b"/><path d="M9.4 118.4c3.6 1.9 8 2.5 12 2 3.8-.5 7-2.5 10.4-4.1a23 23 0 0 1 7.7-2.1c4.7-.5 9.6-.4 13.8-2.6 2.3-1.2 4.5-2.8 7-3.7 6.3-2.6 12.2 2.4 17.2 5.7 2.2 1.5 5.2 2.3 7.7 1 2-.7 4-2 6-2.7 4-1.3 7.9 1 11.3 2.8 3.4 2 7.4 3.6 11.2 1.4 2.9-1.5 6-3.3 9.5-2.7 2.3.4 4.6 1.3 6.9 1.7 3.7.3 7.6.3 11.2-.9 3.5-1 6.7-3.4 10.3-4.2 4.9-1.2 9.8.2 14.7.3q3.5-.2 6.9-1.1 4.7-1 9.4-2.2" class="b"/><path d="M9.4 114.6q2.9 1.3 6 1.6 3.4.5 6.9.2c3.7-.5 7-2.2 10.3-3.6q3.8-1.5 7.8-1.5c5-.1 10.4.1 14.7-3 1.9-1.1 3.8-2.5 6-3.3 4.5-1.8 9.1.7 13 3.1 3 2.1 6.3 5.3 10.2 4 3.5-1 6.5-4 10.4-3.6 5.8.6 10.3 6.5 16.4 5.3 3-.9 5.5-3 8.6-3.5 3.5-.7 6.9 1.2 10.3 1.6q5.8.5 11.2-1c3.5-.7 6.8-2.3 10.4-2.7 4.9-.4 9.7 1.4 14.6 1.2 2.4 0 4.7-1 7-1.5 3-.7 6.4-1.3 9.4-2.4" class="b"/><path d="M9.4 109.1c2.2.9 4.6 1 6.9 1.5 2.8.6 5.7 1.3 8.6 1 4.2 0 8-2.2 12-3 5.2-.9 10.7 0 15.6-2.2q3-1.7 6-3.8c5.7-3.7 10.3-1.9 15.5 1.6 3 2 5.7 5.4 9.5 5.4 2.8-.2 5.2-2 7.8-3 5.6-2.2 10.4 3 15.5 4.5 1.6.5 3.6.5 5.2-.2 2.5-1 5-2.5 7.7-2.9s5.3.7 7.8 1.4q3.4.8 6.9.3c5.5-.4 10.8-2.4 16.4-2.9q4.3.2 8.6.9 3.4.5 6.9.2 3-.6 6-1.8c3.4-1 7-1.7 10.3-3.1" class="b"/><path d="M9.4 102.6c2.5.7 5.3.8 7.7 1.7 4.1 1.5 8.5 3.3 13 2.6 3.4-.7 6.8-2 10.3-2.3q5.2-.4 10.3-1.7 2.8-1 5.2-2.8c2.8-2 6-4.1 9.5-3.9 4.2.5 8.2 2.8 11.2 5.7 4.5 4.3 7.2 5.5 13 2.3 2-1.1 4.5-1.8 6.8-1 3.4 1 6.3 3.3 9.5 4.7 7.5 3.1 9.4-5 19.8-.6a20 20 0 0 0 5.2 1.2q2.6 0 5.2-.3c4.3-.6 8.6-1.6 13-2 4.8-.4 9.7.9 14.6.2 3-.3 5.8-1.6 8.6-2.7 3.4-1.2 7-2.2 10.3-3.9" class="b"/><path d="M9.4 96.3c2.5.7 5.3 1 7.7 2 3.9 1.7 7.8 3.8 12.1 3.7 2 0 4-.7 6-1.1q3-.7 6-1c3.5-.3 7-.5 10.4-1.6 2.1-.8 4.1-2.3 6-3.5 6-4 10.5-3 16.4.4 2.8 2 5.2 5 8.6 5.9 4 .9 7.4-2.7 11.2-2.9 6.5 0 10.8 7.1 17.3 6.7 3.3-.9 7-1.8 10.3-.7 3 .9 5.6 2.6 8.6 3.2 5.8.6 11.6-.8 17.3-1.4 5.1-.7 10.4 0 15.5-1.2 3.3-.6 6.4-2.2 9.5-3.5q5.3-2 10.3-4.7" class="b"/><path d="m9.4 91.5 6 1.8q3.8 1.7 7.8 3 5.5 1.5 11.2.1 4.2-.7 8.6-1.1c3.7-.5 7.7-.5 11.2-2 3.1-1.4 6.1-3.3 9.5-4.2 4.9-1.2 9.9.1 13.8 3.2 5.2 3.9 7.8 3.3 13.8 1.8 2.6-.6 5.3 0 7.7 1 5 2.3 9 5.6 14.7 5.7 5.6.6 10.2 4.4 15.5 6 2.2.6 4.7.3 6.9 0q6-1.3 12-2.4c4-.5 8.2-.6 12.1-1.6q5.3-1.2 10.4-3.6 6.2-2.5 12-6" class="b"/><path d="M9.4 87.7c4 1.2 8 3.2 12 4.5 8.5 2.4 17.3-.6 25.9-1.3l5.2-.4q3-.4 6-1.5c5.2-1.6 10.9-4.6 16.4-2.6 3.6 1.3 7.2 3.4 11.2 3.4 4.9 0 10 0 14.6 1.8 4.2 1.5 8 3.8 12.1 5.5 3 1.5 5.7 3.6 8.6 5.3 9.7 5.8 13.5 2.7 23.3.4 4.3-1 8.7-1.2 13-2.5a123 123 0 0 0 25-10.6" class="b"/><path d="M9.4 84c4.3 1.6 8.4 4.2 12.9 5.4q4.3.9 8.6.7 2.6 0 5.2-.3c3.4-.6 6.9-1.7 10.3-2.1 2.9-.4 5.8.1 8.6.1 5.2.2 10-1.8 14.7-3.5 3.3-1 7-.2 10.3.3 3.1.6 6.4.7 9.5 1.4 3.4.8 7 1 10.4 1.6q4 .8 7.7 3 3.2 1.9 6 4.3c2.8 2.3 5.4 4.9 8.7 6.4 3.4 1.5 7.4 1.8 11.2 1.5 3.7-.7 7.4-2 11.2-2.5q4.3-.6 8.6-1.6c3.9-1.2 7.5-3.1 11.2-4.7q4.3-1.7 8.6-3.2 4.9-2 9.5-4.6" class="b"/><path d="M9.4 80c4.7 1.8 9 4.9 13.8 6.4a29 29 0 0 0 7.7 1.2q2.6.3 5.2 0c4.6-1 9-3.5 13.8-3 7.3 1 10.7 2.8 18-.3q2.2-.9 4.4-1.2l6.9-.6q3.9-.4 7.7-.2 3 .2 6 1c2.3.5 4.7.5 7 .8 5 .7 9.3 3.8 13 7.3 3.1 3 6.4 6.9 11.1 7.3 2.9.2 5.8-.2 8.6 0q3.9-.2 7.8-.5c4.3-.2 9 .3 13-1.5 4.4-2.2 8.4-5.5 12.9-7.6q3.3-1.6 6.9-2.6 4.8-2 9.4-4.1" class="b"/><path d="M9.4 75.1c7 3 12.8 8.9 20.7 9.5 6.3 1.1 9.7-1.3 15.5-3 6-1.8 12 1.8 18 1.6 2.7 0 5.3-.7 7.8-1q4-.2 7.8-.8c2.9-.4 5.7-1.2 8.6-1.4 2.3-.1 4.7.4 7 .6 7 .2 12 2.5 17.2 7.3 2.5 2.3 5.2 4.9 8.6 5.9 3 .8 6.3-.5 9.5-.4q5.2.4 10.3 1.8c3.3.9 7 2.1 10.3 1 5.7-2.1 9.6-7.2 14.7-10.4 2.3-1.7 5.1-2.5 7.8-3.5 3.1-1.3 6.2-3 9.4-4.2" class="b"/><path d="M9.4 71c4.8 2.4 9 6.1 13.8 8.5 3.7 1.8 8 2.2 12 2q4-.5 7.8-2c2.5-1 5-2 7.7-2 6.4-.2 12.7 2 19 2.4 4 .4 8 .7 12 0 3.8-.6 7.5-1.9 11.3-1.4 9 .3 14.4 3.2 21.5 8.3 2.6 1.7 5.7 2.8 8.7 2.2 6.4-1.8 9.4-1.6 15.5 1.4 3 1.5 6 3.7 9.5 3.9 4.8 0 10-6.3 13.8-9.2q2.8-2.3 6-4.2 2.5-1.3 5.1-2.4c3.2-1.7 6.2-3.7 9.5-5" class="b"/><path d="M9.4 67.4c5.3 3.4 10 8.4 16.3 10q3 .5 6 .6 4 .4 7.8-.2c3.6-.5 6.9-2.4 10.4-3.2 3.9-.9 8-1.4 12-.7q4.4 1.1 8.7 2.8c3.8 1.2 8 2.2 12 1.5 3.2-.5 6.3-2 9.5-2 3.5-.2 7 .7 10.4 1.5q6.6 1.5 12.9 4.6 3.7 1.6 7.7 1.3c6.6-1.3 10.7-.9 16.4 2.9 3.1 1.8 6.6 4.6 10.4 3.6 4.2-1.8 7.5-5.2 11.2-8q5.2-4 11.2-7c3.4-2 6.6-4.7 10.3-6.2" class="b"/><path d="M9.4 64c4.7 3.3 8.9 8 14.6 9.7 2.5.7 5.2.5 7.8.6 3.4.2 6.9 1.1 10.3.6 2.4-.4 4.7-1.5 7-2.2l6.8-2.2c4.7-1.7 8.8-.7 13 1.8 4.1 2.2 8.9 4.4 13.7 3.6 4.1-.8 7.8-3.6 12.1-3.2 2.9.2 5.8 1 8.6 1.1 2.9.3 5.8.2 8.6.6 3.6.7 6.8 2.7 10.4 3.4s7.5.8 11.2 1.6a30 30 0 0 1 6.9 2.9c3.4 1.8 7.6 4 11.2 1.5q3.9-2.3 7.8-4.9 6.3-4 12.9-7.9c3.3-2.3 6.5-5 10.3-6.4" class="b"/><path d="M9.4 60c5.7 4.3 11.1 10.7 19 10.4q2.5 0 5.1.3c2 .3 4 1 6 1.2 4.8.8 9.3-1.6 13.8-2.8 2.8-1 5.6-2.4 8.6-2.1 5.6.5 9.4 5.4 14.7 6.7 8.8 2.3 11.5-6.2 20.7-5q3.8.1 7.7-.4 3.4-.7 7-1.3c4.8.1 8.4 4.1 12.9 5.7a27 27 0 0 0 5.1 1.7l3.5.4a36 36 0 0 1 7.7 2.4c2.7 1.1 5.8 2.2 8.7 1.4 3.3-1.2 6.4-3.2 9.4-4.9l12.1-7c3.6-2.3 7-5.1 11.2-6.2" class="b"/><path d="M9.4 55.8c5.5 3.8 10.2 9.9 17.2 11 2.8.3 5.8 0 8.6.8 5 1.3 8 1.4 13-.1q3.8-.7 7.7-1.8 6-1.8 11.2 1.8c3 2 5.9 4.7 9.5 5.5 4.8 1.1 8.7-2.6 12-5.5a13 13 0 0 1 6.1-3c4.4-.7 8.8-1.2 13-2.8 2.4-.9 5.1-2.2 7.7-1 5 2.3 9.1 6.6 14.7 7.8 2.8.4 5.8.5 8.6 1.4 9.9 3.3 10.3 3.3 19.8-1.4q6.5-3.2 13-6.6c3.5-2 7-4.5 11.1-5.3" class="b"/><path d="M9.4 52.4c4.1 2.8 7.7 6.5 12 9.1q4 2.3 8.7 2c4.3 0 8.6 1.2 12.9.5 3.4-.6 6.8-1.5 10.3-1.6 2.9-.3 5.9-.6 8.7.4 4.6 1.6 7.8 5.9 12 8.3 8.6 5.1 12.7-5.6 19-9 4-2.3 8.6-3.5 13-5.2 2.4-.8 5-2.3 7.7-2.4 2.8.3 5.3 2.1 7.7 3.6 2.7 1.6 5.6 3.2 8.7 3.8 2.8.3 5.8.2 8.6.8 3.4.6 6.8 2 10.3 1.9 3.3-.2 6.4-1.6 9.5-2.6q5.2-1.7 10.3-3.3c4.8-1.5 9-4.7 13.8-6" class="b"/><path d="m9.4 49.4 6.9 5c3.2 2.7 6.9 5.3 11.2 5.3l5.2-.2q4.2 0 8.6-.5c2.3-.2 4.6-1 6.9-1.2q4.7 0 9.4.4c6.5.5 10.7 5.8 15.6 9.4 8.6 6.9 12.4-1 18-6.6q4.8-4.1 10.4-6.7 5.4-2.3 11.2-3.9c3.4-.4 6.5 1.5 9.5 2.7q3.4 1.5 6.9 2c2.5.3 5.2 0 7.8.3 4.3.2 8.5 1.9 12.9 1.7 3.2-.1 6.3-1.2 9.5-1.7 3.4-.6 6.9-.6 10.3-1.2 4.7-.7 8.6-3.6 13-5.2" class="b"/><path d="M9.4 46.4q3.5 2.2 6.9 4.6c3.2 2.5 7 4.9 11.2 4.4q2.6-.3 5.2-.8 3.9-.4 7.7-1c3.4-.4 7-1.2 10.3-.5 10 1.5 11.6.5 19.9 7.4 7.4 6 11 9.3 18 .7a48 48 0 0 1 11.3-9.8q4-2.2 8.6-3l4.3-1.1q3-.3 6 .6 4.7 1.4 9.5 1.5c3.2 0 6.4-.5 9.5-.2 4.3.2 8.6 1.8 13 1.6q3.4-.5 6.8-1.1c4.3-.8 8.7.2 13 .2 4.3-.1 8.2-2.6 12-4.3" class="b"/><path d="m9.4 43.3 6.9 4.2c3.5 2.5 7.6 4.4 12 3.2a62 62 0 0 1 19-2.2c2.6.3 5.1 1.3 7.8 1.4 10-.2 13 2.3 20.6 8 6.5 5.2 10 1.7 14.7-3.4 4-3.8 8.3-7.8 13.8-9.2q3-.6 6-.9 2.2-.5 4.3-.5c3.8.2 7.5 1.7 11.2 1.7 3.8 0 7.5-1.3 11.3-1.3 4.3-.1 8.6 1.3 12.9 1.3 4.3-.2 8.5-2.3 13-1.8 10 1.1 9.5 2.4 19.7-1.4" class="b"/><path d="m9.4 40.1 6.9 3.5c3 1.9 6.7 3.3 10.3 2.4 2.3-.5 4.6-1.6 7-2 3.6-.8 7.5 0 11.1.7 2.6.4 5.2 1.5 7.8 2 2.2.3 4.6-.2 6.9-.5 4.4-.7 9 .3 13 2.5 2.5 1.3 4.8 3.3 7.7 4.1 4 1.2 7.5-2 10.3-4.4q3.3-2.8 7-5.1c3.5-2.3 7.8-2.8 12-2.7q2.2-.2 4.3-.2c2.6.3 5.2 1.4 7.8 2 4 1.5 8 .9 12-.6q4.2-1.4 8.6-1.8l8.7-.3c3.4-.3 6.8-1.7 10.3-1.8 4-.2 8 .9 12 1.5q4.8.5 9.6 0" class="b"/><path d="M9.4 37.6c5.3 1.6 10.5 5.8 16.3 4 2.4-.6 4.6-1.9 7-2.6 4.7-1.5 9.3 1.5 13.7 2.8 2.5.9 5.1 1.8 7.8 1.4 4.8-.7 9.7-2 14.6-1.2q3.2.4 6 1.3c2.3.8 4.6 1.7 7 1.8 6.3.2 10.8-5.2 16.4-7.4 3.5-1.6 7.4-1.3 11.2-.7 2 .2 4 .2 6 .8 4 1.2 7.8 3.4 12 3.2 6.1-.4 10.8-5 16.4-6.7 3.4-1.2 7-1 10.4-1.3q5.6-.6 11.2-.2c6 .3 11.4 2.8 17.2 3.7" class="b"/><path d="M9.4 36.2c10.1 3 11.3 5.5 21.5-.1 3.8-2.1 7.6-.7 11.2.8a31 31 0 0 0 7.8 1.9c2 .2 4-.4 6-.7a57 57 0 0 1 7-.7q6 0 12-.4c3.1 0 6.3.5 9.5.2q3.5-.5 6.9-1.9c3.3-1.6 6.6-3.5 10.3-3.8q4-.1 7.8 1c2.2.7 4.7 1 6.9 1.8 5.8 2 11.3 3.9 17.2 1 7.1-4.3 11.5-10 20.7-7.9q5.2.8 10.3 1.2c2.3.2 4.7.2 7 .8 3.8 1 7.3 3 11.1 4.1" class="b"/><path d="M9.4 35.5c10.2 3.2 11.8 4.4 21.5-1.2 6.7-3.7 11.6 2.5 22.4-1.3 5.7-1.9 11.6.5 17.3-.4 2.5-.6 5-1.7 7.7-2 3.4-.7 7-.8 10.4-1.3 3.9-.6 7.2-3.1 11.2-3.6 4.2-.8 8.1 1 12 2.3a40 40 0 0 0 19 2.2c3-.4 5.4-2.4 7.8-4 3.3-2.3 7-4.6 11.2-4.4 2.3.1 4.6 1 6.9 1.7q4.2 1.3 8.6 1.8 3 0 6 .5c4 1 7.4 3.3 11.2 4.5" class="b"/><path d="M9.4 34.6c5.8 1.8 11.4 4 17.2.7 2.3-1 4.5-2.7 7-3.4 3.6-.9 7.5-.2 11.1-1.2l6-2c1.7-.7 3.4-1.6 5.2-1.8 4.6-.5 9.2 1.5 13.8.8 1.8-.2 3.5-1.2 5.2-2q3.3-1.5 6.9-2.2c2.8-.6 5.8-.8 8.6-1.4 2.9-.8 5.6-2.3 8.6-2.8 4.5-.9 8.8 1.2 13 2.7q5.8 2 12 2.1 4.9 0 9.5-1c3.2-1.1 6.2-3 9.5-4q4.2-1.5 8.6-.7c3.5.8 6.8 2.3 10.3 2.8 2.8.7 5.8.5 8.7 1 4.2.8 8 3.5 12 5" class="b"/><path d="M9.4 32.7q3 1 6 1.1 4.8 1 9.5-.4c3.2-1.1 6.1-3.3 9.5-4.2s7-1 10.3-2l6-2.3q3-1.5 6-2c4-.7 8.1 0 12.1-.5 2.1-.2 4.2-1.2 6-2l7.8-3q4.3-1.2 8.6-2.4c4.1-1.7 8.7-2.7 13-1.1 3.2 1 6.2 3 9.5 3.7 4.8 1.2 9.8.7 14.6-.3 4.6-.5 9.2-1.5 13.8-1.5q5.2 0 10.3.5 5.6 1.1 11.2 1.9 3.5.3 7 .8c4.1 1.1 8 3.5 12 5" class="b"/><path d="M9.4 30.1q3 .4 6 0 3.9.1 7.8-.4c4-.8 7.4-3 11.2-4.4C38 24 41.9 24 45.6 23q3-.6 6-1.6 3-1.1 6-2c4.5-1.3 9.3-1.6 13.8-2.5q9.3-2.9 18.1-6.8c6.2-3 10.4-3 16.4.3 2.7 1.4 5.5 2.8 8.6 3.2 9.4 1.4 15.3-4.1 25-1.7 3.2.6 6.3 1.7 9.5 1.9q6.9-.2 13.8.7 4 .4 7.8 1.3c4 1.3 8 3.4 12 4.8" class="b"/></svg>