<svg xmlns="http://www.w3.org/2000/svg" id="a" width="1920" height="2400" viewBox="0 0 192 240"><defs><style>.b{fill:none;stroke:#fff;stroke-miterlimit:10;stroke-width:.4px}</style></defs><path d="M0 0h192v240H0z" style="stroke-width:0"/><path d="M8.2 229.4h55c1.8-.1 3.6-.8 5.3-1.3 3.1-.9 6.3-2.1 9.6-2.4l5.2.1q5.7.2 11.4 1c3.8.7 7.5 1.8 11.3 2.4 9.4 1.3 16.9-2.6 24.5-7.4 14.4-9.6 18.7-8.5 34-1.5a46 46 0 0 0 8 2.8q5.6.8 11.3 2.5" class="b"/><path d="M8.2 224.6h46.3a55 55 0 0 0 13.1-1.8c3.5-.8 7-2 10.5-2.1a84 84 0 0 1 15.7 1.8l7.9 2.1h15.7q1.5-.2 2.6-.9 2.3-1.1 4.4-2.6c4.4-3 8.5-6.7 13.1-9.5 11.4-7.7 22.5 4.3 33.2 7.5q3 .8 6.1 1l7 1" class="b"/><path d="M8.2 219.9h37.6c1.7 0 3.5-1 5.2-1.1a63 63 0 0 1 7.9-1c6.6-.4 13.4-1 20-.3q5.8.6 11.4 1.1l4.4.7c1 .2 2.4.7 3.5.6h22.7c6.5-3.9 11.5-10 18.4-13.4 5.9-3 12.2.8 17.4 3.6 4.5 2.4 9 5 14 6 4.3.8 8.8.5 13.1.5" class="b"/><path d="M8.2 215.2h35c3.2-1 6.2-2.8 9.5-3.6a31 31 0 0 1 14.9 0c6.4 1.2 12.6 4 19.2 3.5h35.8c5.9-3.7 10.7-9.4 17.5-11.4 5.4-1.3 10.3 2.3 14.9 4.5 10 5.6 17.9 5.1 28.8 3.5" class="b"/><path d="M8.2 210.4h32.3q3.6-1 7-2.7c12.2-7.5 18.3-3.3 29.7 2.2 1.3.7 3 .5 4.4.5h41.9c3.3-1.7 6.4-4 9.6-5.7 4.2-2.3 8.6-3.4 13.1-1.1 7 3.3 12.8 7.3 21 6l16.6-2.6" class="b"/><path d="M8.2 204q2 1.1 4.4 1.7 4.7 0 9.6-.3c5.2-.2 10.5.5 15.7 0 9.5-.4 12-6.1 20.1-7.8 6.5-1.2 12.2 2.9 17.5 6q2 1.4 4.3 2h5.3c2.3 0 4.7.3 7-.1 4.6-.8 9.4-1.3 14-.2 2.2.6 4.6.3 7 .4h10.4c1.5.1 3-.7 4.4-1.3q3-1.3 6.1-2.4c3.4-1 7.2-1.3 10.5.3l6.1 3c1 .5 2.4.3 3.5.4h15.7q7-2.2 14-2.8" class="b"/><path d="M8.2 197.5c2.4 1.2 5.1 2.2 7.9 1.9q5.2-1 10.4-.1c6.6.9 13.8 3 20.1 0q3.5-2.2 7-4.3 7.7-4.3 15.8-.8c3.2 1.5 6.3 3.5 9.6 5 6.1 2.4 12.8-.2 19.2 0q4.9 0 9.6 1.5c1.6.5 3.5.1 5.2.2h15.8c3-.9 6.3-1.8 9.6-1.7q2.2 0 4.3.8l2.7 1h32.3q3-.6 6.1-.6" class="b"/><path d="M8.2 190.7c2.7 1.3 5.8 2.2 8.7 1.6q4.5-.7 8.8.3c6.8 1.4 14.1 5 21 1.9 2.3-1.2 4.6-2.8 7-4q8.9-5.2 18.3-1.2 3.9 1.7 7.8 3c4.6 1 9.4.9 14 1.4a54 54 0 0 1 11.4 2.4h78.6" class="b"/><path d="M8.2 184.3q3.4 1.5 7 1.4 1.7-.3 3.5-.5 4.6-.1 8.7 1.4c6.4 2 13.6 5.3 20.1 1.8 3.1-1.7 6.2-3.6 9.6-4.8 8.5-3 14.6.4 22.7 1.6q7.7.8 14.9 3.5l7 2.7h82.1" class="b"/><path d="M8.2 179.5q3.4 1 7 .8a19 19 0 0 1 7-.4c5.6.8 10.9 3.7 16.6 4.2 4.2.6 7.8-.8 11.3-3q4.6-2.4 9.6-3.1c5.3-.7 10.6.5 15.8 1 3.1.5 6.5-.2 9.6.7 5 1.2 9.4 4 14 6.4 1 .8 2.3.6 3.5.6h81.2" class="b"/><path d="M8.2 176.5q3 .6 6.1.2c2-.3 4-1 6.1-1 4.5.1 8.8 1.7 13.1 2.6q5.3 1.2 10.5 0c2.5-.7 4.7-2.3 7-3.3q5.1-2.1 10.5-1.8c4.6.2 9.3 1.2 14 1.2q2.6 0 5.2-.6c3.4-.4 6.7 1 9.6 2.4l7 4.1c1.3.8 2.8 1.9 4.4 1.6h82.2" class="b"/><path d="M8.2 174.4q3 .2 6.1-.3c2-.5 4-1.3 6.1-1.4 4.4-.2 8.8 1 13.1 1.3q5 .4 9.6-.9c2.5-.6 4.8-2 7-3.2q5.1-2.2 10.5-1.6c5 .3 9.9 1.5 14.9 1.2 2 0 4-.8 6-1.1 4.2-.4 8 1.6 11.5 3.5 3.6 2 7.2 4.3 11.3 5.2q2.7.2 5.3 0c1.4-.4 2.9-1.3 4.3-1.8 3-1 6.5-1.4 9.6-.7q3.7.9 7 2.5 8.8.1 17.5.1h35.8" class="b"/><path d="M8.2 171.8q3.1.3 6.1-.6c2-.6 4-1.5 6.1-1.8 4.7-.6 9.4.2 14 .1A28 28 0 0 0 44 168c2.1-.7 4.1-2 6.1-3 4.4-2 9.3-2.2 14-1.9q5.2.6 10.5.4c2.4 0 4.7-.8 7-1.2 8.4-.7 15.3 6 23.6 6.6q2.7.2 5.2-.8 2.2-1 4.4-1.7c7-2.4 14 1 20 4.2q2.2 1.1 4.5 1.8c2.2.3 4.7 0 7 .2h37.5" class="b"/><path d="M8.2 167.7H16q3-1.3 6-2c4.4-.7 8.8-.4 13.2-.6q4.9 0 9.6-1.7c2.4-.8 4.6-2.3 7-3.1 5.8-2.2 12.2-2 18.3-2q3.5 0 7-.5c2.3-.3 4.7-1 7-1 4.7 0 9.4 1.5 14 2.3q4.7 1 9.6.3 2.7-.6 5.2-1.7a18 18 0 0 1 11.4.5c6 2 11.1 6.2 17.5 6.7q3.5-.2 7 .1 3 .5 6 1.5c1.2.3 2.4 1 3.6 1.2h25.3" class="b"/><path d="M8.2 163h9.6q3.7-1.7 7.9-2.4c6-.8 12.3.3 18.3-1 2.5-.5 4.7-1.9 7-2.8q4.3-1.7 8.7-2.3c5-.8 10-.8 14.9-1.2 3.5-.3 7-1.1 10.5-1.2 6.7-.4 13.4.5 20-.3 2.7-.2 5.4-1 8-1.6a19 19 0 0 1 10.4 2c5.7 2.6 11 6.6 17.5 6.6q1.7-.1 3.5-.4a16 16 0 0 1 5.2.4q3.2.8 6.1 2.5c1.1.5 2.3 1.6 3.5 1.7h24.5" class="b"/><path d="M8.2 158.2h6.1c1.4 0 3.2.4 4.4-.6q2.9-1.5 6.1-2.3c5.2-1.2 10.5-.3 15.7-.1q5.2.1 9.6-2.1a57 57 0 0 1 8.8-2.7c8.3-1.8 16.9-2 25.3-3 9-1 18.2-.5 27.1-2.1 6.2-1 11.4 3.5 16.6 6.1 16.5 9 14.1-4.4 30.6 6.8h25.3" class="b"/><path d="M8.2 153.5H16c1.5-.4 2.8-1.7 4.3-2.3A21 21 0 0 1 30 149c5.6 0 11.1 2.4 16.6 1.2 5.2-1.8 10.4-4 15.8-5 6.6-1.5 13.4-2 20-2.8 7-.6 14-.2 21 0h6.2q3.2-.6 6 .5c9.2 3.8 16.4 12.5 27.2 7.7 2.7-1.3 5.9-1.4 8.7-.4q3.2 1 6.1 3c1 .5 2.4.2 3.5.3h22.7" class="b"/><path d="M8.2 148.7H16a3 3 0 0 0 1.7-.6l2.6-1.4q4.6-2.3 9.6-2c5.9.3 11.7 3.6 17.5 2 4.6-1.8 9.2-3.8 14-5.2q7.3-2.1 14.8-3.4 7.8-1.7 15.8-.6c6 .8 12.1 2.5 18.3 2.6 3.8-.3 7.3 1.8 10.5 3.6 3.8 2.2 7.7 4.9 12.2 5q2.6.2 5.3-.2c2-.5 4-1.7 6-2.5q2.6-.9 5.3-.7 3.7.4 7 2.1c1.1.4 2.3 1.5 3.5 1.4h23.6" class="b"/><path d="M8.2 144h14c2-.2 4-.8 6-.7 2.4-.1 4.8.4 7 .7h13.2c1.2.1 2.4-.6 3.5-1.1l5.2-2.5q6.9-3.4 14-6c11.4-3.8 14.8-4 26.2 0q5.2 2 10.5 3c2.6.3 5.4-.1 7.9.9 3 1 5.8 2.7 8.7 4 1.9 1 4 2 6.1 1.7h6.1c1.1 0 2.5.2 3.5-.3 3.1-1.3 6.1-3 9.6-3 4.6 0 9 1.7 13.1 3.2q6 .1 12.3 0 4.4.1 8.7 0" class="b"/><path d="M8.2 139.3h44.6l2.6-.1 5.2-3.4q4.6-3.1 9.6-5.9 5-2.7 10.5-4c4.2-.9 8.5.9 12.2 2.6 4.8 2.3 9.6 5 14.9 5.7 2.6.3 5.3-.3 7.8.5 2.7.7 5.4 2 7.9 3l3.5 1.4q1.2.2 2.6.1h12.2c1.5-.2 3-1.1 4.4-1.4q3.4-1 7-.8c6.4.1 12.8 2.4 19.2 1.6 3.8-.6 7.5-2 11.4-2.3" class="b"/><path d="M8.2 134.5h43.7q3.5.2 7-.1c6.4-5.1 15.2-13 23.6-13.8 5.1.1 9.5 3.4 14 5.6a25 25 0 0 0 13 3.6q4-.8 8 .1c3.8 1 7.5 2.9 11.3 4.2 1.6.7 3.5.3 5.2.4h8.7c1.5.2 3-.4 4.4-.7a38 38 0 0 1 7-.6c5.5 0 11.1.6 16.6-.1 4.5-.5 8.7-2.5 13.1-3.2" class="b"/><path d="M8.2 129.8H58c1.1-.1 2.5.2 3.5-.5l5.2-4.5a48 48 0 0 1 10.5-6.8c2.4-1.2 5.2-2 7.9-1.1 8 2.5 14.3 8.6 23.6 7.1q2.2-.3 4.3-.9 4-.4 7.9 1c4.8 1.4 9.2 4 14 5.5 1.6.4 3.5 0 5.2.2q2.7.1 5.2-.5 2.6-.5 5.3-.3c8.1.3 16.5 1.6 24.4-.9 3-.9 5.8-2.3 8.8-3" class="b"/><path d="M8.2 125h54.2c4.3-3.7 8.8-7.5 14-10 2.1-1 4.5-2.1 7-1.9 5.1.6 9.7 3.7 14.8 4.7q5.7 1 11.3-.7c3.1-1 6.4-1.8 9.6-1.1 7.7 1.1 14 7.2 21.9 7.5 2.3-.1 4.6-.8 7-.4q4.8.6 9.6 2H168c10.4 0 6.5.2 15.7-3.8" class="b"/><path d="M8.2 120.3h54.2c4.5-3.3 8.8-6.8 14-9.1 3.6-1.8 6.3-2.7 10.4-1.6 4.9 1.3 9.8 3.2 14.9 2.8 3.6-.3 7-1.6 10.5-2.7 4.9-1.6 10.2-.5 14.8 1.4 4.3 1.7 8.5 4.2 13.1 4.8q2.2 0 4.4-.3 2.2 0 4.4.6c3.6 1 6.9 3 10.4 4h19.3c1.7-.6 3.5-1.8 5.2-2.6" class="b"/><path d="M8.2 115.5h50.7q1.7.2 3.5-.2l4.3-3.4q5-3.8 10.5-6.6c6.3-3.6 11.1-.7 17.5.8q4.7 1.2 9.6.5c3-.4 5.9-1.5 8.7-2.3q4-1 7.9-.5c5.8.6 11 3.5 16.6 5q3.4 1 7 .7 2.8.1 5.2 1.2 3.7 1.6 7 3.3c1 .5 2.3 1.3 3.5 1.5h21l2.6-1.2" class="b"/><path d="M8.2 110.8h48c5.8 0 4.4.6 8.8-3.1q4.9-4.3 10.5-7.8c4.6-3 7.8-3.8 13-2 5.7 1.7 11.5 4.1 17.5 3.3 3.9-.5 7.5-2 11.4-2.2 7-.6 13.6 2.5 20.1 4.6 2.8 1 5.9 1 8.7 1.6 4 1 7.7 3 11.4 4.8.4.3 1.3.6 1.8.8h24.4" class="b"/><path d="M8.2 106h44.6q3.4.2 7-.1c4.5-3.4 8.6-7.4 13-10.9 4.2-3.1 8.6-6 14-4.5 4.2 1 8.1 3 12.3 4 12.5 3.4 15.1-4 30.5 1.5q4.8 2 9.6 3.7c2.3.8 4.8 1 7 1.8a61 61 0 0 1 7 2.8c1.4.5 2.9 1.6 4.4 1.7h26.2" class="b"/><path d="M8.2 101.3h47.2q1.3-.5 2.6-1.2c5-3 9.4-7 14-10.7 4.8-3.8 9.3-6.8 15.7-5 4.7 1.2 9.2 3.4 14 4.3q5.7 1.1 11.3-.2c6.3-1.1 12.7.6 18.4 3.3q4.7 2.3 9.6 4.4 6.8 2 13.1 5h29.7" class="b"/><path d="M8.2 96.6h14c2.6-1 5.1-2.3 7.8-3q5.2-1.3 10.5-.7c2.9.3 5.8.9 8.8 1 7.9.2 14.7-4.3 21-8.7 10.7-8 13.9-6.9 26.1-3.6q5.2 1.3 10.5 1.3c2.6 0 5.3-.8 7.9-1 5.5-.4 10.9 1.6 15.7 4.1 3.5 1.8 6.9 4 10.5 5.6q3.1 1.1 6.1 2.4c1.7.8 3.5 2 5.2 2.6h31.5" class="b"/><path d="M8.2 91.8h4.4q1.8.2 3.4-.6c6.4-2.6 12.2-7 19.3-7.7 3.7-.5 7.6 0 11.3.5q6.6.8 13.1-.1c7.4-1.1 13.8-5.5 21-7.1a35 35 0 0 1 8.7-.1c5.5.5 11.1 1 16.6.2 2.7-.2 5.3-1 8-1.2 4.4-.5 9 .7 13 2.6 4.2 2 8.1 4.6 12.2 6.8q3.1 1.4 6.2 2.6 3.1 1.6 6 3.8c1.4.6 3 .2 4.5.3h28" class="b"/><path d="M8.2 87c.9.2 1.8-.3 2.6-.6l3.5-1.5c5.4-2 10.4-4.9 15.7-7A50 50 0 0 1 52 75.2c5 .5 9.9 1.4 14.8 1.6q7 .2 14-1 6.1-.7 12.2-2c6.8-1.2 13.3-3.8 20.1-4.7 5.2-.5 10.4 1 14.9 3.6 3.9 2 7.5 4.7 11.3 6.9 2 1.2 4.2 1.9 6.2 3 2.1 1.2 4.1 3 6 4.5h32.4" class="b"/><path d="M8.2 82q6-2.3 12.2-4.4T32.7 73C38.3 70.7 44 68 50 67.6c4.6-.2 9 1.4 13.1 3 7.8 3 14.3 5.7 22.8 3 12.8-3.7 22.4-13.1 36.7-8 5.7 2 10.6 5.9 15.7 9q2.9 2 6.1 3.4 2.3 1.4 4.4 3.2c.3.4 1.2 1 1.7 1.1h33.2" class="b"/><path d="M8.2 77.6c2.9-.6 5.8-1.6 8.7-2 3.8-.7 7.7-1.2 11.4-2.5 5.3-1.8 10-5 14.8-7.8 10-6.2 17.3-1.9 26.3 3.4 7 4.3 11.4 5.1 19.2 1.8 6.6-2.7 12.8-7.1 20-8.3 9-1 17 1.4 24.5 6.2l7.9 5q3.7 1.8 7 4.2h35.8" class="b"/><path d="M8.2 72.8h12.2c2.6 0 5.4.3 7.9-.2 4.6-1.2 8.5-4 12.2-7 4.8-3.9 10.1-7.8 16.6-6.7 7 1 12.2 6.2 18.4 9 6.6 3.1 13.7-.8 20-3 5-1.8 10.4-3.4 15.8-3a47 47 0 0 1 28 8.3c5.3 3.1 4.3 2.7 10.4 2.7h34.1" class="b"/><path d="M8.2 68h24.5c1.4 0 3.2.3 4.3-.8 4.7-3.3 8.5-8 14-10 7.3-3 13.9.3 20.1 4 4 2.3 7.5 3.9 12.2 3.2 5.6-.5 11-2 16.6-2.4 4.7-.5 9.4 0 14 .4 6.2 0 12.5-.1 18.4 2 3 1 5.7 2.7 8.7 3.7h42.8" class="b"/><path d="M8.2 63.4h22.7c11.7 0 6.5 1 15.7-5.4 6.4-3.9 13.1-5.2 20.1-2.4 3.6 1.3 6.9 3.3 10.5 4.2 3.4.8 7 .3 10.5.2q6.6-.5 13.1-.3c4.7.2 9.3 1.2 14 1.3 5.2 0 10.5-.8 15.7-.1q5.3.7 10.5 2.5h32.4l6-.1q2.3-.5 4.4-1.2" class="b"/><path d="M8.2 58.6h36.7c2-.8 4-2 6.1-2.8A24 24 0 0 1 68.5 54c3.2.9 6.3 2.2 9.6 2.8 6.6 1 13.4 0 20 .3 5.4 0 10.6 1 15.8 1.5 5 .2 10-.5 14.9-.9q5.6-.5 11.3-.1c5 .4 10 1.1 14.9 1 5.2-.2 10.5-1.3 15.7-1.6q3 0 6.1.2 3.7-.2 7-1.1" class="b"/><path d="M8.2 53.9h47.2l3.5-1.1q3.4-1 7-1c3.5.1 7 1.2 10.4 2h55.9l2.7-.6q6-1.5 12.2-2.3c5.2-.8 10.5-1.4 15.7-1q5.8.5 11.4 1.8 4.6 1.1 9.6.4M8.2 49.1h126.6q2.7-1 5.3-2.3l6.1-2.4c9.5-3.9 15.5-2.9 24.5 1.6 4 2 8.5 3.4 13.1 3.1" class="b"/><path d="M8.2 44.4h129.3q6-3.7 12.2-6.9c10.8-5 16.5 2.4 25.4 6.8q4.3.2 8.7 0" class="b"/><path d="M8.2 39.6H141c12.6-7.8 16.5-11.2 29.7-1.4q1.2 1 2.6 1.4h10.5" class="b"/><path d="M8.2 34c1.3 1.4 3.5.7 5.2.9h131.1c10.5-6.8 14.8-7.4 25.3 0h14" class="b"/><path d="M8.2 26.7q2 1.9 4.4 3.4H147c3.3-1.6 6.7-3.5 10.5-3.2q2.8.3 5.2 1.5c1.2.5 2.3 1.5 3.5 1.7h17.5M8.2 18.8c3.4 2.6 7 6 11.4 6.6h130.1c.9.1 1.9-.5 2.7-.7q1.6-.5 3.4-.7 2.3 0 4.4.6c.8.2 1.8.8 2.6.8h21" class="b"/><path d="M8.2 10.6c3 2 6 4.4 9.6 5.6 4.9 1.6 9.8 3.4 14.8 4.5h151.2" class="b"/></svg>