<svg xmlns="http://www.w3.org/2000/svg" id="a" width="1920" height="2400" viewBox="0 0 192 240"><defs><style>.b{fill:none;stroke:#fff;stroke-miterlimit:10;stroke-width:.4px}</style></defs><path d="M0 0h192v240H0z" style="stroke-width:0"/><path d="M10.7 215.5c4 1.4 7.3 4 11 5.9 6.5 3.5 14 4.3 21.2 4.5q4 0 7.7.7l6 1.8q8.2 3 16.9.9 5-1.4 10.2-1.1c7.4.2 14.6 3 22 3 3.6.1 6.8-1.6 10.3-2.3a31 31 0 0 1 12.7 0c4.3.8 8.4 2.6 12.7 3.4h29.8q2-1.2 4.2-1.9 3-.7 6-.7" class="b"/><path d="M10.7 213c3.2 1 6.2 2.9 9.3 4.3 6.4 2.9 13.6 1.8 20.4 1.3a35 35 0 0 1 11 .5c7 1.8 12.3 3.4 19.6 1.7 3-.6 6.1-1.6 9.3-1.6 10.2-.1 18.6 9.6 28.9 8 2.6-.7 5-2 7.6-2.7q5-1.6 10.2-1.9 6 .2 11.9 1.7 5.6 1.4 11 3.3 7.3.1 14.5 0h2.5l3.4-1.4q2-1.1 4.3-2 3.2-.8 6.8-.6" class="b"/><path d="M10.7 211c3 1 6.1 2.2 9.3 2.8 5.8.9 11.4-1.6 17-2.7q6-1.2 11.9-.4c5.6 1 11.2 2.8 17 2.4 4.5-.2 9-1.5 13.5-1.5 8.6.5 15.4 9.9 23.8 11.4h6q1.6-.4 3.4-1.3c5.8-2.8 12-5.9 18.6-5.2 11.3 1 21.5 8 33.2 5 3.4-.8 6.7-2.5 10.1-3.4q3.4-.6 6.8-.3" class="b"/><path d="M10.7 209q4.6.8 9.3.5c6.2-1.1 11.5-5.3 17.8-6 7.5-1.2 14.7 2.2 22.1 2.5q5.6.3 11-.2c3.4-.2 7-.4 10.2.5 3.2 1.1 5.9 3.4 8.5 5.3 6 4.7 12.7 9.2 20.4 5.5 4.8-2.3 9.2-5.6 14.4-6.7 6-1.3 11.6 1.3 17 3.2 6 2 12.4 3 18.7 2.1 4.6-.6 9-2.1 13.6-3a30 30 0 0 1 7.6 0" class="b"/><path d="M10.7 206.7q5.3-.3 10.2-2.4c5.2-2.7 10-6.9 16-7.2 4.2-.2 8.1 1.4 12 2.6q4.6 1.2 9.3 1.3c8.2.5 17.1-1.9 24.6 2.3 3.3 2 6.2 4.7 9.4 6.7 7.6 5 13.3 2.5 20.4-1.9 7.8-5 13.5-6.5 22-1.9 4.2 2.4 8.7 4.6 13.6 5 7 .6 13.7-1.6 20.4-2.9 4.2-1 8.5-.7 12.7-.2" class="b"/><path d="M10.7 204.4q5.9-2 11-5.5c4.7-3.3 10-7.5 16.1-6.2 7.4 1.8 10 5.9 18.7 5.6 10.4-.3 19.9-3.6 28.9 3.6 14.7 11.4 18.1 2 31.4-4 9.4-4.3 15.6 3 23 7.5 3.8 2.1 8.4 2.4 12.7 1.8 6-.8 11.8-3.1 17.8-3.7 3.7-.3 7.4.4 11 .6" class="b"/><path d="M10.7 202.5c3.5-1.7 6.8-4 10.2-6.1q3.6-2.7 7.6-5c10.5-5 15.4 4.9 24.6 5.5 5 .3 9.7-1.3 14.5-2.3 4.1-.9 8.6-1.2 12.7.3 6.8 2.9 12.3 9.4 20.4 6 5.9-2.7 10.6-7.8 17-9.5 3.7-1.1 7.8 0 11 2 3.9 2.5 7.1 6 11 8.4 4.9 2.8 10.9 2.2 16.2 1 4.5-.9 9-2.3 13.5-2.7 4-.2 8 .6 12 .4" class="b"/><path d="M10.7 200h1.7q2.1-1.2 4.2-2.5 3-1.4 6-3.3c3.8-2.4 8-5 12.7-4.7 5.6.2 10 4.2 15.3 5.5 9.3 1.7 17.2-6 26.3-6 6 0 10.5 5 16.1 6.3 5.6 1.7 10.8-1.4 15.3-4.4 4.1-2.4 8.7-5.2 13.6-4.7 7.7.9 12.3 8 18.7 11.5 7.7 3.4 16.4 2.3 24.6 1.5 5.4-.6 10.9.5 16.1-1" class="b"/><path d="M10.7 195.4h8.5c7-2.4 12.2-6.7 20.3-5.3 7 1.2 11.3 5 18.7 2.3 8.2-2.5 16.5-10.5 25.5-6.9 5.3 2.4 10.8 6.2 17 4.7 8.7-2 16.9-11.4 26.3-6.7 4.7 2.2 8.3 6.2 12.7 9q2.5 1.2 5.1 2l2.6.9h34" class="b"/><path d="M10.7 190.8h22.9c2.2 0 4.5-.6 6.8-.5q2.6 0 5 .4h10.3c1 0 2.4.3 3.4-.2 7.4-2.6 13.9-8.7 22-9 3 .1 5.8 1.6 8.5 2.8 3 1.3 6.1 2.5 9.4 2.6 5.2.1 9.9-2.5 14.4-4.7 4.5-2.4 9.6-4 14.4-1.8 4.1 1.7 7.4 4.8 11 7.2q3 1.8 6 2.8c1.5.7 3.4.3 5.1.4h31.4" class="b"/><path d="M10.7 186.2h56L71 184c3.4-1.7 7-3.8 11-4 3 0 5.8 1.2 8.5 2.3a22 22 0 0 0 18.7.3c6.8-2.8 12.6-8 20.3-4.5q4.2 2 7.7 4.8c2 1.3 4.3 3.1 6.8 3.2h37.3" class="b"/><path d="M10.7 181.6h62.7c1.2 0 2.5.2 3.5-.3 6-3 9.3-1.6 15.3.1 1.6.3 3.4 0 5 .2h8.6c1 0 2.3-.6 3.4-1q3.9-1.7 7.6-3.8c4.2-2.4 9-3.3 13.6-1 3.3 1.5 6.2 3.9 9.3 5.7h41.6" class="b"/><path d="M10.7 177h78.9q9.4 0 18.7-.1c3.8-1.3 7.3-3.5 11-5 4.2-1.6 9-.8 12.8 1.5l3.4 2.1c1 .7 2.1 1.6 3.4 1.4h37.4q2.5-.6 5-1.7" class="b"/><path d="M10.7 172.3h94.2a15 15 0 0 0 5.1-.8c2.8-.6 5.7-1.7 8.5-2.4a20 20 0 0 1 13.6 1.7q1.6.9 3.4 1.5h35.7c3.4 0 6.9-1 10.1-2M10.7 167.7h72.2q2-.6 4.2-.8 5.1-.5 10.2-.5 6.3 0 12.7-.4c4.5-.3 9.1-.6 13.6 0q4.3.6 8.5 1.7h45l4.3-1.2M10.7 163.1h67.1c4.2-1.2 8.3-3 12.7-3.7 6.4-1.3 13-.8 19.5.2 5.4.8 10.7 2.5 16.1 3.4 3.4.3 6.9 0 10.2.1h45" class="b"/><path d="M10.7 158.5h64.5l6.8-2.2q4.6-2 9.3-3.7 8.9-3 17.9 0c11.5 3.5 14.7 8 28 4.8 3.3-.8 6.8-1.3 10.2-.7q3.4.6 6.8 1.6 1.6.3 3.4.2h23.7" class="b"/><path d="M10.7 153.9h62c2.8 0 5.7.3 8.4-.7 4.8-1.7 9-4.8 13.6-6.6 6.8-2.9 14.1-1.4 20.4 2 10.1 5.3 14.2 4.8 24.6 1q6-1.6 12 .5c3.4 1 6.7 2.6 10.1 3.8h19.5" class="b"/><path d="M10.7 149.3h70.5q3 .1 5.9-.1l6.8-4.7c5.5-3.8 12-6 18.7-3.5 3.4 1.2 6.6 3 10.2 4q5 1.3 10.1 0c5.5-1.3 10.4-4 16.2-2.8 7 1.1 13.3 5.4 20.3 6.8 4 .5 8 .2 12 .3" class="b"/><path d="M10.7 144.7h80.6c6.3-5 13.4-12.4 22.1-10.2 4.3 1 8.3 3.2 12.7 3.8 4 .7 8.1 0 12-1.2 3-1 6-2.4 9.3-2.3 7.1.2 13.1 4.7 19.5 7.4q3.7 1.5 7.6 1.8l2.6.7h4.3" class="b"/><path d="M10.7 140h79.7c1.5 0 3.3.4 4.3-.9 4.8-3.6 9.4-8 15.3-9.7 2.8-.8 5.8-.2 8.5.5 6.5 1.9 13 3.6 19.5 1.2 2.3-.8 4.5-2.1 6.8-2.7 4-1.1 8.3-.1 12 1.7 4.3 2.2 8.2 5.5 12.6 7.5 1.6.8 3.5 1 5.1 1.5l2.6.9h4.2" class="b"/><path d="M10.7 135.5h83.2c.9.1 1.8-.6 2.5-1l3.4-2c4.1-2.5 8.1-5.5 12.8-6.8 6-1.3 11.8 1.3 17.8 1.3q5 0 9.3-2.1c1.7-.8 3.4-2 5.1-2.6 9.2-3.8 16.7 4.5 23.8 9 1.8 1.1 4 1.6 6 2.3 1.3.5 2.8 1.4 4.2 1.9h2.5" class="b"/><path d="M10.7 130.9h28.8q2.6-.5 5.1-.7 2.6 0 5.1.6h25.5c1.4 0 2.8-.5 4.2-.5q3.5 0 6.8.4 4.7.4 9.4 0 4.4-.7 8.5-2.5c3.2-1.4 6-3.4 9.3-4.7 4.4-1.4 9-.9 13.6-.8 7.2 0 11.2-1.6 17-5.6 9.4-5.7 16.4 1.3 23.7 6.6 2 1.6 4.5 2.4 6.8 3.3 2.4 1 4.5 2.8 6.8 3.8" class="b"/><path d="M10.7 126.2H31c6-2.7 12.8-5.6 19.5-3a26 26 0 0 0 16.1 1.8c3.7-1 7.3-2.8 11-3.6 6.6-1.1 12.4 3.6 18.7 4.6q2.2.3 4.3.2 1.6 0 3.4-.2c3.4-.6 6.3-2.6 9.3-4 4-1.7 8.5-2 12.8-2.6a32 32 0 0 0 13.6-4.4c2.7-1.8 5.3-4 8.4-5.2 7.3-3 13.8 2.1 19.6 6 2 1.4 4.5 2.2 6.8 3.2q3.6 2 6.8 4.9" class="b"/><path d="M10.7 119.2q3.7 1 7.6 1.4c7 .4 13.5-3.1 20.4-4.1q4.6-.7 9.3 0c3.7.8 7.3 2 11 2.2 4.2.2 8.2-1 12-2.5 4-1.6 8.4-3.6 12.7-1.9 4.3 1.6 8 4.4 11.9 6.6 1.7 1.2 4 .6 6 .7h10.1c1.2 0 2.3-.8 3.4-1.2l4.3-1.6q6.4-2 12.7-4 4-1.5 7.7-3.6c2.2-1.3 4.4-2.9 6.7-4 7.7-3.9 14-1.8 21.3 1.8q3.3 1.5 6.8 2.8 3.6 2.3 6.7 5.3" class="b"/><path d="M10.7 112q3.7.2 7.6.2c4.5-.5 9-1.4 13.6-1.5 7.1-.4 14.2.8 21.2 1.7 4.2.6 8.6.8 12.8-.2 4.8-1 9.4-3.6 14.4-4 2.4 0 4.7 1 6.8 2q4.9 3.2 9.3 6.6c2 .4 4 .1 6 .2h17c1.1 0 2.3-1 3.3-1.4a192 192 0 0 1 24.7-10.4 36 36 0 0 1 21.2-.3l5 1.5c3 1.2 5.4 3.3 7.7 5.2" class="b"/><path d="M10.7 106.3q3.4-.2 6.8-.9 4.5-1.4 9.3-1.4c7.5-.2 14.6 3.3 22 3.5 3.8-.2 7.5.4 11.1.7q5.2.4 10.2-.5c8.9-1.6 12.9-4 21.2 1.5l3.4 2.3q.8.8 1.7.9h26.4q1.7-1 3.4-2c9.7-6.3 17-5.6 28-6.8s17.6-2.9 27.2 4" class="b"/><path d="M10.7 102.2q5.3-.9 10.2-3c7.2-2.3 14.3 1 21.2 3q3 .9 6 .9a22 22 0 0 1 6.7 0c3.7.6 7.4 1.8 11 2.5q5.2 1.1 10.3.6c2.2-.2 4.5-.8 6.7-1q3.6-.1 6.8.8 2.2.8 4.3 1.8h29.7l3.4-2.2a20 20 0 0 1 14.4-3.6c5.3 1 10.8 2.2 16.2 1.4 11.6-2 11.8-3.7 23.7 1.3" class="b"/><path d="M10.7 98.6c8.5-1.4 10.7-6 20.4-4.4 5.4.9 10.5 3.6 16 3.7q2.3-.2 4.3-.4c3.4.1 6.5 1.7 9.4 3.2L65 103q1.3.3 2.6.2h56c1-.1 1.8-1 2.6-1.5a20 20 0 0 1 8.5-3.7c6.6-.9 12.2 3.8 18.6 4.4q4.8.5 9.4-1c2.7-.6 5.6-1.6 8.5-1.4q5.1.8 10.2 2" class="b"/><path d="M10.7 93.6a36 36 0 0 0 10.2-3.4c6-2.4 12.6-1.3 18.6.3q3.8 1 7.7 1.4c1.3 0 2.9-.3 4.2 0 4.7.6 8.1 4.2 12 6.7h61.9c8.3-6 13.3-4.7 22-.8q1.3.6 2.6.8h8.6q2.5.1 5-.2 3-.8 6-1.3c1.6-.2 3.4.3 5 .6 2.3.2 4.6.9 6.8.9" class="b"/><path d="M10.7 87c3.4-.7 6.8-2 10.2-3 5.8-2 12-1.3 17.8.5 3.9 1.2 7.8 2.5 11.9 2.8 3 .7 5.4 2.8 7.6 4.7s2.1 2 5.1 2H127l2.5-1.1q3-1 6-1a23 23 0 0 1 8.5 2h37.3" class="b"/><path d="M10.7 80.1c11.5-4.4 19.2-5 30.5.2q4.6 2 9.4 3.7c2.6 1.2 4.7 3.3 6.8 5.2 5.3.3 10.7 0 16.1.1H127c1 .1 2.3-.4 3.4-.5q2.1-.3 4.2-.3c2 0 4 .6 6 .8h40.7" class="b"/><path d="M10.7 73.7a28 28 0 0 1 6.8-2.7q5.5-1 11-.2c5.2.8 10 3.1 14.4 5.8l7.7 4.4q2.3 1.6 4.2 3.6c2 .3 4 0 6 .1h62.8c1.4.1 2.9-.7 4.3-1q3-.6 5.9-.4c4.3 0 8.4 1.7 12.7 1.4h34.8" class="b"/><path d="M10.7 68.7c5.5-3.8 8-3.5 14.4-3.3 6.8.3 13.2 3.2 18.7 7.1 2.8 2 6 4 8.5 6.4a5 5 0 0 0 1.7 1.2h64.5q1.7-.6 3.4-1.5 3-1.4 6-2.1c4.7-1.2 9.6-.4 14.4.2q3.5.7 6.8 2.2c1 .4 2.2 1.2 3.4 1.2h28.8" class="b"/><path d="M10.7 65.8c2.2-1.7 4.7-3.5 7.6-3.8l7.6-.3q6.7-.1 12.8 2.5A53 53 0 0 1 54 75.5q20.3.2 40.7 0h17q1.4.1 2.6-.4c3.7-2 7.2-4.5 11-6.2a30 30 0 0 1 17.8-1.7c4.8 1 9 3.8 13.6 5.5 7.8 3.2 16.4 2.8 24.7 2.8" class="b"/><path d="M10.7 63.5c5.9-4.6 7-3.7 13.6-5 7.7-2 14.3-2 21.2 2.4a41 41 0 0 1 6.8 5.4c1.7 1.4 3.1 3.6 5 4.6h27.2q7.3 0 14.5-.3c4.2-.2 8.7-.4 12.7-2 5-2 9-5.9 13.6-8.4a25 25 0 0 1 19.5-2.6c4.7 1.6 9 4.3 13.6 6s9.6 2.3 14.4 2.6q4.5.6 8.5 2" class="b"/><path d="M10.7 59.4q3-2.4 6.8-3.8 3.4-.9 6.8-2c7.8-3.2 14.5-4.9 22 0 4.2 2.6 7.4 6.4 11 9.5q2.2 1.8 4.3 3.2H76c2-.3 4-1.4 6-1.7 9.8-2.1 20.4.2 29.7-4 4-2 7.4-5 11-7.5a27 27 0 0 1 11.1-4.7q6.1-.9 11.9.8c4.6 1.6 9 4.1 13.6 5.8q6.6 2.2 13.6 3 4.3.8 8.5 2.6" class="b"/><path d="M10.7 54.5q2.8-1.8 6-3.2 3.4-1 6.7-2.6c7.8-4 14.7-7.6 23-2.3 7.7 5 14 15.5 24.6 13.4 4-.7 7.7-2.7 11.8-2.9 4.8-.3 9.7.3 14.5-.2q8.1-.8 15.3-5c2.9-1.7 5.6-4 8.4-5.8 4.5-3.1 9.8-5.2 15.3-5q4.3.3 8.5 1c5 1.2 9.6 3.6 14.4 5.3q6.7 2.4 13.6 3.8 4.5 1.2 8.5 3.4" class="b"/><path d="M10.7 49.9c4-2.4 8.7-3.4 12.7-5.8 7.5-4.6 14.5-9 23-3.6 7.8 5 14 14.3 24.6 12.1 4.2-.8 8.3-2.5 12.7-2 4.2.3 8.5.9 12.7.2a49 49 0 0 0 18.7-9 31 31 0 0 1 15.3-7c3.4-.3 6.8.4 10.2.8 5.6.2 11 2.1 16.1 4q6 2.3 12 4.2 2.9.8 5.9 1.9 3.5 1.5 6.7 3.5" class="b"/><path d="M10.7 46.4c3.9-1.9 8.2-2.8 11.9-5.1 7.5-4.8 14.7-11 23.7-5.4C55 41.5 60.2 49 71.8 46.4q3.3-.9 6.8-1.4 3-.3 6 .3c12.9 2.5 18-2.4 28-9.4 9.8-7.3 14-9.1 26.3-6 3 .5 6.3.5 9.3 1.2a104 104 0 0 1 15.3 5q5.5 2.1 11 4.2 3.6 1.6 6.8 4" class="b"/><path d="M10.7 44.5c3.6-1.4 7.6-2 11-4.1 7.9-5 15.6-13.7 25.5-7.8 8.4 5.6 13.5 11.4 24.6 8.6a25 25 0 0 1 14.4-.7c11.6 2.2 17.8-4.5 26.3-10.9 9.1-7.1 14-9.6 25.5-6.5 3.4.8 6.9.7 10.2 1.5a84 84 0 0 1 15.3 5.2l11 4.6q3.5 1.8 6.8 4" class="b"/><path d="M10.7 42.3c3.6-1.4 7.6-1.9 11-3.7 8.4-5 16-13.9 26.3-7.8 6.5 4.3 12.2 8.3 20.4 6.6 3.1-.5 6.2-1.6 9.3-2 3.8-.3 7.4 1.2 11 1.5 6.8 1 13-2.6 18-6.8a232 232 0 0 1 11-8.4 23 23 0 0 1 15.2-4.8c2.8.2 5.7.8 8.5.8 9-.2 17 4.2 24.7 8.1 5 2.6 10.3 4.4 15.2 7" class="b"/><path d="M10.7 38.6c4-1.7 8.8-1.8 12.7-4 9.1-5 16-10.6 26.3-4 6.3 3.9 12.4 4.8 19.6 3 3.3-.8 6.7-1.8 10.2-1.3 4.2.8 8.3 2.9 12.7 2.7 6.4-.3 11.4-4.8 16.1-8.6 5.2-4 10.7-8.2 17-10.4 5.2-1.8 10.8-1.6 16.1-2.2 10-1.8 18.4 4.8 26.4 9.7 4.1 2.5 8.9 3.8 13.5 5" class="b"/><path d="M10.7 33.8q3-1 6-1.3 3.4-.2 6.7-1.4c5.7-2.2 11.5-5.6 17.8-5q3.6.5 6.8 2 4 2.4 8.5 3.2c5.4.9 10.8-.9 16.1-1.6q4-.7 7.7.6c4.8 2 10 4.7 15.3 3.1 6.7-2 11.1-7.8 17-11.3a67 67 0 0 1 21.2-8.6l6.8-1.8q3.6-1.4 7.6-1.2c9.2.7 15.2 8.7 23 12.6q4.8 2 10.1 2.2" class="b"/><path d="M10.7 28.5q3-.4 6-.4 2.5.2 5-.1c4.3-.8 8.4-2.7 12.7-3.6q5.3-1 10.2.4c2.4.6 4.6 1.8 6.8 2.7 5.8 2 12 .4 17.8-.4 3.1-.4 6.4-.5 9.4.7 1.4.4 2.7 1.7 4.2 1.6h18.7l1.7-1 3.4-2.9q3.5-3 7.7-5.1c4.6-2.3 9.6-3.6 14.4-5.3q7-2.4 13.6-5.8c12.3-5.9 19.4 6.1 28.9 11.3 3.1 1.5 6.7 1.7 10.1 1.9" class="b"/></svg>