<svg xmlns="http://www.w3.org/2000/svg" id="a" width="1920" height="2400" viewBox="0 0 192 240"><defs><style>.b{fill:none;stroke:#fff;stroke-miterlimit:10;stroke-width:.4px}</style></defs><path d="M0 0h192v240H0z" style="stroke-width:0"/><path d="M7.9 230.6H184M7.9 225.8H184M7.9 221h46.5q4.4.1 8.7-.2 4.5-.2 8.8.3H128c2.6-.3 5.3-1 7.9-1.2q3-.4 6.1.2c1.5.2 3 1 4.4 1h29.8c1.2-.2 2.4-1 3.5-1.2q2.2-.7 4.4-.7M7.9 215.9c2 .6 4.1.4 6.1.4h36.8c1.8 0 3.6.2 5.3-.4q4-.8 7.9-1.3c6.4-.8 13-1 19.3-2.5 7.9-2 13.5-1.4 21 1.7 3.4 1.3 7 2.4 10.5 2.3 5.7.1 11.2-1.5 16.7-2.6 4.3-1 9-1.4 13.2.6l3.5 2q1.2.3 2.6.2h22l.8-.1.9-.6 2.6-1.5q3.3-1.6 7-1.4" class="b"/><path d="M7.9 210h8.8q4.8.4 9.6 1.5h21.9q4-.9 7.9-1.6 13-1.7 25.4-5.9c7.4-3 12.7-4.6 20.2-.8 2.6 1.3 5.2 3 7.9 4.2 7 3 14.8 1.3 22-.2 3.6-.7 7.7-1.1 11.3.4q2.3 1 4.4 2.4c1 .7 2.2 1.8 3.5 1.5h21c3.8-2.6 7.5-5 12.3-4.6" class="b"/><path d="M7.9 204.6q3.9-.9 7.9-1.2c7.6 0 15.1 2.3 22.8 2.7q3.5.3 7-.2 4.3-1 8.7-1.5 6.8-.5 13.2-2.2c4.8-1.4 9.4-3.5 14-5.4 9-4.9 13.8-6.9 22.8-.7 2.8 1.8 5.6 3.9 8.8 4.9 6.6 2.3 13.5.7 20.2-.2 4.2-.7 8.7 0 12.2 2.6 5.3 3.5 3 3.5 9.7 3.4h14c.8 0 2 0 2.7-.3l1.7-1.2q4.6-3.6 10.5-3.6" class="b"/><path d="M7.9 199.4c2.6-.6 5.2-1.5 7.9-1.7 7.7-.4 15.2 2 22.8 2.7q3.5.4 7 0c2-.2 4-.8 6.1-1 4.7-.3 9.5-.5 14-1.8q5.5-1.6 10.6-4 3.1-1.2 6.1-2.8c5.8-3.6 11.5-7.5 18.4-4.2 7.6 3.7 10.6 8.2 20.2 8.5 7.3.3 15-3.4 22 0 3.4 1.8 6.3 4.8 9.5 7h17.6a3 3 0 0 0 1.7-.7l3.5-2.3q4.2-2.3 8.8-2.2" class="b"/><path d="M7.9 194.6q3.8-1.2 7.9-1.7c7.4-.4 14.6 2.1 21.9 2.8q4 .5 7.9 0 3-.6 6.1-1c4.4-.4 8.8-.5 13.2-1.3q5.9-1.2 11.4-3.4 3.1-1 6.1-2.7c5.4-3.3 10.8-8.4 17.6-7.4 3.7.5 7.1 2.6 10.5 4.3q5 2.5 10.5 3.3c7.2 1.3 15-1 22 2 4.5 2.3 8.2 6.1 13 7.8h11.5c2.7-.6 5.2-2.3 7.9-3.3q4.2-1.6 8.7-1.5" class="b"/><path d="M7.9 189.6c9.6-2.8 14.3-.8 23.7.8q5.6 1 11.4.4c3.5-.4 7-1.5 10.5-1.8 5.2-.5 10.5-.6 15.7-1.3q6-.8 11.4-2.7c7.4-3.4 13.2-11.2 22-10.5 3 .1 6 1.3 8.7 2.4q4.8 2 9.7 3.6c6.2 2.1 13 2.3 19.3 4 5.3 1.7 10.2 4.9 15.7 6a40 40 0 0 0 16.7-.6q5.7-.8 11.4-.8" class="b"/><path d="M7.9 184.1c12.6-3.3 18 2.2 29.8 1.3 4.2-.3 8.2-1.6 12.3-2.6q5.2-1 10.5-1.2c7.1-.4 16.3 1 22.8-2.2 3.6-2 7-4.7 10.5-6.8 7.3-4.4 13.5-3.9 21-.5q6 2.7 12.3 4.9 6 1.8 12.3 3.2c2.6.7 5.2 1.8 7.9 2.4q5.6 1 11.4 1.4 6 .4 12.3 1.5A53 53 0 0 0 184 187" class="b"/><path d="M7.9 178.2c14.6-3.4 19.4 4.3 34.2-.7a56 56 0 0 1 20.2-4.1c7-.1 14.2 2.5 21 0 4.2-1.7 8-4.2 12.3-6 7.2-3.2 14-2.5 21 .7 5.1 2.2 10.3 4.4 15.8 5.7q4 1 7.9 1.8c2 .5 4 1.3 6.1 1.5 4.7.4 9.4-.2 14 .8q4.6 1 8.8 3.2c1.7.7 3.4 2.1 5.3 1.9h9.6" class="b"/><path d="M7.9 172.4q5.2-1.2 10.5-1c3.2.2 6.4 1 9.6 1.1a27 27 0 0 0 10.6-1.4c7.3-2.8 14.7-6.3 22.8-6.3 5.3-.2 10.5 1.3 15.7 1.7 4.9.3 9.5-1.6 14-2.9a36 36 0 0 1 21.1-.7c5.5 1.6 11 3.8 16.7 4.7q5.2.9 10.5 1.6c2.3.3 4.6 1.3 7 1.5 10.4.4 14.1.7 22.8 7.4 5 .3 10 0 15 .1" class="b"/><path d="M7.9 167.9q5.6-1.6 11.4-1.8c4.4 0 8.8.4 13.1-.6 4.6-1 8.9-3.2 13.2-5q6-2.2 12.3-3c5.8-.8 11.7.4 17.5 1q4.5.2 8.8-.7c15.5-2.8 20.7.7 35 3.3 6.4 1.1 13 .1 19.3.7q3.2.4 6.2 1.6 2.5.8 5.2 1.2c6.3 1.1 12 4.5 16.7 8.7 5.8.3 11.7 0 17.5.2" class="b"/><path d="M7.9 165.7c6.4-1.8 13-3.1 19.3-5.3 5.4-1.9 10.5-4.6 15.7-6.8q6.4-2.5 13.2-2.2c6.1 0 12.3 1 18.4.8 4.4-.1 8.7-1.7 13.2-1.5 4.5 0 9 1.4 13.1 3s8 3.5 12.3 4 8.8 0 13.1-.7c4.4-.6 8.8-1.5 13.2-.6q2.7.6 5.3 2l6 2.4q4.7 1.7 8.9 4.4c1.7 1 3.4 2.6 5.2 3.5h19.3" class="b"/><path d="M7.9 164c14-.5 26.3-18.7 41.2-18 4.2.2 8.2 1.7 12.3 2.4q5.6 1.1 11.4 0c4.4-.8 8.5-3.3 13.1-3.4 5-.1 9.8 2.3 14 4.8 3.4 1.8 6.8 4.1 10.6 5 6.9 1.2 13.4-2.3 20.1-3.1 7.7-1 10.5 1.4 16.7 5q7.1 3.3 14 7.2h22.8" class="b"/><path d="M7.9 159.2h8.8c1.6-.5 3-2 4.3-3q4-3.7 8-7.3c6.1-5.6 13.6-9 21.8-5.8 3.8 1.4 7.4 3.6 11.4 4.4 3.9.9 8 0 11.4-1.7 3-1.3 5.8-3.3 8.8-4.4 7-2.7 13.7 1.5 19.3 5.2 3.6 2.4 7.7 5.1 12.3 4.2 3.2-.5 6.4-1.7 9.6-2.6q10-3 18.4 2.8 4.6 3.4 9.7 6.1c1.9 1 3.9 2.4 6.1 2h26.3" class="b"/><path d="M7.9 154.4h10.5c.6 0 1.4-.7 1.8-1.2l3.5-3.6c2.6-2.8 5.4-5.8 8.7-8q4.4-2.8 9.7-2.4 4.6.6 8.7 2.7c3.7 2 7.2 4.9 11.4 5.7 7 1.4 12.3-4.3 17.6-7.8 7-4.8 13.3-3.4 20.1.9 3.1 1.7 6.2 4 9.7 4.7 4.5.7 8.8-1.7 13.1-2.5 12.5-3 18.5 6 28.1 11.4 1.4.3 3 0 4.4.1H184" class="b"/><path d="M7.9 149.7h10.5c1.7-.8 3-2.7 4.4-4 6-6.1 12-11.2 21-7.5q3.1 1.1 6.2 2.5c2.6 1.5 5.1 3.5 7.8 4.8 11 5.6 17.4-7.5 26.4-11.2 7.2-3.4 13.7.4 20.1 3.7 4 2 7 2.5 11.4 1.2 4.3-1.2 8.7-2.7 13.2-2 6.8 1 12 6 17.5 9.8q2.1 1.5 4.4 2.6H184" class="b"/><path d="M7.9 144.9h8.8c1.6-.4 3-2.1 4.3-3.1 2.5-2 5-4.2 8-5.7 5.3-2.8 10.6-1.1 15.7 1.4q2.6 1.2 5.3 2.3c2.5 1.2 5 2.8 7.8 3.6 7.9 2.4 14-4.4 19.3-9q3.6-3 8-4.6c6.7-2.6 13.1.5 19.2 3.4 3.9 1.8 7.2 2.4 11.4 1.3 4.6-1.1 9.3-2.6 14-2 4.1.3 8 2.1 11.5 4 4.4 2.5 8.7 5.4 13.1 7.9 1.2.8 3 .4 4.4.5H184" class="b"/><path d="M7.9 140.1h7.9l1.7-1c6.5-5 12.6-9.8 21-6 3.9 1.6 7.4 4 11.5 5a19 19 0 0 0 11.4 1.2c5.9-1.7 10.1-6.5 14.9-10 3.5-2.7 7.9-4.2 12.2-4.7 4-.4 7.8.6 11.4 2 3.2 1.2 6.4 2.8 9.7 3.5 3.2.6 6.5.1 9.6-.4 3.8-.6 7.6-1.4 11.4-1.4a39 39 0 0 1 16.7 3.5c4.8 2.5 9.2 5.7 14 8.2 2.6.3 5.3 0 8 .2H184" class="b"/><path d="M7.9 135.4H14c1.1-.1 2.6.2 3.5-.5 5-3.8 11-8.2 17.6-6.4 3.7.9 7 3 10.5 4.6 4.4 1.8 9.5 2.2 14 .6 6.3-2.2 11-7.2 16.7-10.5 2.4-1.4 5.2-1.7 7.9-2.1 5.2-.8 10.7-.2 15.7 1.5 3.2 1 6.4 2.3 9.7 3 9.3 2.3 18.8 0 28-1.6 5.9-1 9.6-.7 15 2 6.6 3.3 12.6 8.4 20.1 9.2l11.4.2" class="b"/><path d="M7.9 130.6h7.9c1.7 0 3.9.5 5.2-1q3.3-2.8 7-4.6c3.6-1.6 7.8-1.6 11.4-.3 3 .9 5.8 2.3 8.8 3 9.2 1.7 16.8-4.7 24.6-8.5q2.9-1.5 6.1-1.8h8.8q6.6.2 13.1 1.8c6.2 1.5 12.2 3.7 18.4 4.7q6.8 1 13.2-1.3c7.6-2.7 12.4-7 21-4.4 5.7 1.5 10.9 4.6 16.7 5.6 2.3.4 4.7 0 7-.2q3.5.1 7 1" class="b"/><path d="M7.9 125.9h14c1-.2 1.9-1.3 2.6-2 2.6-2.2 5.5-4.4 8.8-5.5 6.4-2.4 12.8 1.6 19.3 1 8.5-.8 16-6 24.5-6 2.7 0 5.3.8 8 .9 7.9.4 16 .4 23.6 2.8 6.9 1.8 13.7 6.4 21 4.1 8.8-2.6 13.9-9.9 23.7-10.3 5.6-.4 11.1 1 16.7 1q3-.1 6.1-.8c2.7-.3 5.4.3 7.9 1" class="b"/><path d="M7.9 121H21c.8 0 2 .2 2.7-.2 4.4-4.9 9.6-10.4 16.6-10.8 3-.2 5.9.4 8.8.7 7 .7 14-1.1 21-1.5a36 36 0 0 1 11.4 1.1c5.2.9 10.6.2 15.8.1 6-.1 12.1.7 17.6 3.4 10.4 5.5 15.8 5 25.4-1.9 9-6.6 17-8.9 28-10 6.6-.8 9.1-3 15.8-.1" class="b"/><path d="M7.9 116.3h14.9c2.3-1.6 4-4.2 6.1-6 3.9-3.8 8.6-7.3 14-7.8 3.8-.4 7.7.2 11.5.4q8.8.6 17.5 2c3.8.5 7.6 1.7 11.4 2 7.7.2 15.1-2.8 22.8-2.1q3.7.3 7 1.6 3.6 1.7 7 3.6c13.1 7 20-2.2 30.7-8.5q9.3-6 20.2-9c5-1.6 8-2.3 13.1.2" class="b"/><path d="M7.9 111.6h14.9C38 98.6 42 92.3 63 98.6c7.4 2 15 5.5 22.8 4.5 6.8-1 13.3-3.6 20.2-3.7a21 21 0 0 1 13.1 4.2c7.7 5 13.9 6.8 22 1.4 9.1-6.4 17.5-14.2 28-18.5 5.2-2 9.5-4 15-1.1" class="b"/><path d="M7.9 106.8h14.9c2.4.3 8.3-4.4 10.5-5.9 10-7.4 14.5-10.5 27.2-6.7 6.7 2 13 5.4 20.2 5.7 11.5.3 26.1-8.4 36.8-1.7 5.3 3 11 7.5 17.5 6.1 4.8-1 8.5-4.4 12.3-7.2q7-5.7 15-10.3 5-2.8 10.4-4.9c3.6-1.5 7.7-2.5 11.4-1" class="b"/><path d="m7.9 101.5 3.5.5h20.1c1.9-.7 3.7-2 5.3-3 7.3-5.2 10.7-8.2 20.2-7 6 .7 11.6 3.1 17.5 4.2 5.5 1.1 11.2 0 16.7-.6q10-1.6 20.1-1.6c3.2 0 6 1.6 8.8 3 3.8 1.9 7.9 4 12.3 3.9 4.7 0 8.7-2.9 12.3-5.7q4.1-3 8.7-5.7c5.6-3 11.6-4.9 17.6-6.9 4.3-1.3 8.5-4 13.1-3.1" class="b"/><path d="M7.9 95.6q2.2.8 4.4 1.7h28.9l1.7-1q2.2-1.4 4.4-2.4 6.5-2.1 13.2-1.4c5.2.3 10.5 1.7 15.7 1.9 3.2 0 6.5-.6 9.7-.7q7.5-.4 14.9 0h7.9c1.7-.1 3.5-.4 5.2-.1 4.3.6 8.1 2.7 12.3 3.5q3.6.3 7 .1c5.1-1 9-4.6 13.2-7.2q4.9-3 10.5-3.9c5-.9 10-.8 15-2 4.1-1.2 7.8-4 12.2-4.5" class="b"/><path d="M7.9 92.1c1 .7 2.3.4 3.5.4H78q4.5.1 8.8-.4 5.7-.1 11.4.3 7 .3 14 0l12.3.1h11.4c5-1.9 8.8-6 14-7.3 7.8-2.2 16 1.4 23.7-1 3.6-1.2 6.8-3.6 10.5-4.7" class="b"/><path d="M7.9 87.8H134c5.2-.9 9.6-4.6 15-5 8.1-1.2 16.3 2.5 24.5.8 3.7-.8 7-3 10.5-4.2" class="b"/><path d="M7.9 83h102.6c5.5-.1 11.1.4 16.6-.4 7-.8 14-2.9 21-2.5 9.4.4 18.8 2.8 28.1 1.2 2.7-.6 5.3-1.7 8-2.5M7.9 78.3h83.3q1.7 0 3.5-.2 3-1 6.1-1.4c4.1-.4 8.2.5 12.3.5s8.2-1 12.3-1.8a39 39 0 0 1 17.5.1 77 77 0 0 0 12.3 2.7q5.7.1 11.4 0h9.6q4 .2 8-.8M7.9 73.5h80.7q1.3 0 2.6-.2 1.6-1.1 3.5-1.9a21 21 0 0 1 12.3-1.2c2.5.4 5.2 1 7.9.7 7.7-1.2 14.8-5.3 22.8-2.8 2.8.8 5.3 2.4 7.9 3.8 1.6.7 3.3 1.8 5.2 1.6h33.3" class="b"/><path d="M7.9 68.7h80.7a20 20 0 0 1 19.2-3.5c3.8 1.1 6.8 1.2 10.6-.2 6-2.3 12.7-5.6 19.2-3 4.5 1.4 7.7 5.7 12.3 6.7h34.2" class="b"/><path d="M7.9 64h78.9c1.5-.4 3-1.5 4.4-2q4.2-1.9 8.7-1.5c11.4 1.5 11.4 5.5 22.8-1.3 5-2.9 11-5.6 16.7-3 2.2.8 4.2 2.5 6.1 3.8a30 30 0 0 0 8 3.8c3.7.4 7.6 0 11.3.2h19.3" class="b"/><path d="M7.9 59.2h79.8q4.3-1.4 8.7-1.5c3.6 0 7 1 10.6 1.5h8.7c2-.6 3.7-2 5.3-3 5-3.5 10.2-8.3 16.7-7.6 3 .3 5.4 2 7.8 3.7q3.8 2.4 8 4.1c5 2 10.4 2.2 15.7 2.2q2.6 0 5.3.6h9.6" class="b"/><path d="M7.9 54.4h107.8c1 .1 2-.7 2.7-1.1l3.5-2.7c4-3.2 8-7 13.1-8.3 3.4-.8 6.8.3 9.7 2.1q3.3 2 7 3.9 4.6 2.3 9.6 3.2c3.7.6 7.6.5 11.4.8 3.8.5 7.6 1.3 11.4 1.1" class="b"/><path d="M7.9 49.7h54.3q2.2-.4 4.4-.4 6.6.6 13.2.4H114c2.6-.7 4.8-2.5 7-4 3.9-3 7.6-6.4 12.3-8.1 6.9-2.8 12.3 1.6 18.4 4.3q5 2.5 10.5 3.3c3.7.6 7.6.4 11.4.6 3.5.2 7 1 10.5 1.4" class="b"/><path d="M7.9 45h51.8q1.3-.2 2.6-.7 2-.6 4.3-.6c2.4-.1 4.7.8 7 1.2h22q5.2.1 10.5 0 2.2-.9 4.4-1t4.3-.8c5.4-2.1 9.7-6.1 15-8.4 8.3-4 14.1-.8 21.9 2.4q5.5 2.4 11.4 2.8c3.8.3 7.6-.2 11.4 0 3.2.1 6.4 1 9.6 1.6" class="b"/><path d="M7.9 40.2h52.6c1.7-.2 3.5-1 5.3-1q3-.1 6 1h32.5c1.8-.4 3.5-1.4 5.3-1.7 1.4-.2 3 0 4.4-.4 5.2-1.3 9.8-4.7 14.9-6.4 8.1-3 15-.5 22.8 2.2q5.5 1.9 11.4 1.8c3.8 0 7.6-.6 11.4-.4 3.2.2 6.4 1.2 9.6 1.8" class="b"/><path d="M7.9 35.4H14c1.2 0 2.4-1 3.5-1.3q3.6-1.1 7-.4 2.3.5 4.4 1.5 1.8.3 3.5.2h73.7q1.7-.3 3.5-.5c1.4-.2 3 .1 4.4 0 4-.6 7.7-2.3 11.4-3.7 14-5.5 19-2.2 32.4.6 5 1 10 .8 15 1.1 3.7.3 7.5 1.3 11.3 1.6" class="b"/><path d="M7.9 29c3.2-1.9 6.6-4.3 10.5-4.4 5.1-.2 9.2 3.3 13.2 6h92.9c6.6-2 13.1-5.3 20.2-5.3 8.4.1 16.4 3.4 24.5 5.1q2.7.4 5.3.2h9.6" class="b"/><path d="M7.9 18.8c2.7-1.3 5.7-2.7 8.8-2.5 6 .6 10.7 5.4 14.9 9.5q45 .2 90.3 0H134c.5-.1 1.4-.6 1.8-.8l3.5-1.7A24 24 0 0 1 149 21c6.2-.1 12 2.4 17.6 4.9H184" class="b"/><path d="M7.9 10.3c6.8-2.1 11.4-.2 16.6 4.3l4.4 4.2c.8.7 1.7 1.9 2.6 2.3h57c2.3-.4 4.7-1.3 7-1.3q2.7 0 5.3.5c1.1.3 2.4 1 3.5.8h33.3c1.7.2 3-1.4 4.4-2q4.2-2.2 8.8-2.8c3.6-.5 7.2.4 10.5 1.8 2.1.8 4 2.3 6.2 3H184" class="b"/></svg>