<svg xmlns="http://www.w3.org/2000/svg" id="a" width="1920" height="2400" viewBox="0 0 192 240"><defs><style>.b{fill:none;stroke:#fff;stroke-miterlimit:10;stroke-width:.4px}</style></defs><path d="M0 0h192v240H0z" style="stroke-width:0"/><path d="M10 214.8q3-.2 6-.9 2.1-.6 4.3-1c9-.7 15.4 8 22.3 12.6 5.2 4 7.9 2.3 13.6 3.4a25 25 0 0 1 8.6 3.3H128c4.2-2.4 8.5-6 13.7-5.9 2.6.3 5.2-.5 7.7-1.3 7.7-2.9 13.6-3.4 20.5 1.7 2.4 1.6 4.4 4 6.8 5.5h5.2" class="b"/><path d="M10 210.3q3-.2 6-.9 2.5-.7 5.2-1.2c10-.3 16 10 24 14.6q2.7 1.6 5.9 1.6l6 .6q3 .5 6 1.6 1.3.6 2.6 1h65.8l1.7-.9q2.2-1.2 4.3-2c2.7-1.3 5.8-.7 8.6-1.6 6-2.1 12.2-5.7 18.8-3.2 4.2 1.5 7.7 4.6 11 7.5 2 .4 4.1.1 6 .2" class="b"/><path d="M10 206q3-.3 6-1 2.5-.9 5.2-1.3c10-.7 16.1 9.8 23 15.4q3.3 3 7.7 3.3 4.7.8 9.5.5h75.2c1.1 0 2.4-.6 3.5-.8q2.1-.3 4.2-.9c3.6-1.2 6.8-3.3 10.3-4.7 8.6-3.5 14.9 1.3 21.4 6.4h6" class="b"/><path d="M10 202.4c4.1-.3 8-2 12-2.5 11.4-.8 17 12.3 24.8 18.4h91.5c2.3-.1 4.7.2 6.9-.2 3.1-1.6 6.1-3.8 9.4-5.2 7.5-3.6 13.5.1 19.7 4.4.3.3 1.2.8 1.7 1h6" class="b"/><path d="M10 200.2c4.4-.7 8.5-2.3 12.9-3 10.4-1.3 16 9.7 22.2 16.2 1.3.5 3 .2 4.3.2H146c3.2-1.5 6-4 9.5-5.3 7.4-3 13.4 2 19.6 5.4h6.9" class="b"/><path d="M10 199q5.3-1 10.3-2.3c3-.9 6.3-1.7 9.4-.9 4.7 1.3 8 5.1 11.1 8.7 1.4 1.4 2.6 3.5 4.3 4.5H146c2.9-1.6 5.5-3.8 8.6-5 4.5-1.9 9.6-.4 13.7 2 1.9 1 3.8 2.6 6 3h7.7" class="b"/><path d="M10 198.3q5.8-.5 11.2-2c6.8-2.5 11.4-2.5 17 2.5l3.5 3.3c1 .9 2 2.5 3.4 2.3h100.1c11.4-7.6 15-7.1 26.5-.1q5.1.2 10.3 0" class="b"/><path d="M10 195.2a48 48 0 0 0 13.7-1.3q7.9-2.1 14.6 2.7c1.4 1 2.7 2.4 4.2 3.1h101c.8 0 1.8-.7 2.5-1 8-4.6 13.2-5.7 21.4-.8 1 .6 2.3 1.5 3.4 1.8H182" class="b"/><path d="M10 190.2q4.7.7 9.5.8c3 0 6.3-.2 9.4.3a25 25 0 0 1 9.4 3.7h68.4c1.2 0 2.3-1 3.4-1.4q2-.9 4.3-1.3c6.4-1 12.6 1.5 18.8 2.8h8.6l2.5-.9c11.5-5.3 15.3-5.9 26.6.7 1.3.3 2.9.1 4.2.2h6.9" class="b"/><path d="M10 184.7q6.5 1.3 12.9 2.6 3 .7 6 2c1 .3 2.2 1.1 3.4 1.1h69.3c1.2-.2 2.3-1.3 3.4-2q2.7-1.8 6-2.9c10.3-2.8 19.7 5 30 4.2 2.9-.3 5.7-1.6 8.5-2.7 5.2-2.3 10.8-3.1 16.2-.9q3 1.3 6 2.8c1.3.6 2.8 1.4 4.3 1.5h6" class="b"/><path d="M10 179.8c3.7 1.1 7.6 1.8 11.2 3l4.2 2c.8.5 1.7 1.2 2.6 1h71c1.3 0 2.4-1.3 3.4-1.9a35 35 0 0 1 6-3.3c10.6-3.6 21 3.4 31.7 3.5 3.3.1 6.4-1.3 9.4-2.6 5-2.4 10.7-4.3 16.2-2.7 6 1.4 9.5 5.3 16.3 3.8" class="b"/><path d="M10 176.2c3.4 1 7 1.6 10.3 2.8q1.8.7 3.4 1.6.8.6 1.7.5h72.7q1.9.2 3.5-.6 3.6-2.2 7.7-3.4c5-.9 10.3-.4 15.4 0 6.4.6 13.2 2.3 19.6.6 9-3.4 15.2-9.9 25.7-6 1.7.7 3.4 1.7 5.1 2.2q3.4 1 6.8.5" class="b"/><path d="m10 173.8 9.5 1.9c1 .2 2.2 1 3.4.8H99c2.2-.1 4.7.4 6.8-.5 3-1 6.3-1.2 9.4-1.5q7-.8 13.7-1.2l9.4-.6c2.3-.3 4.7-.5 6.9-1.4 8.5-4 15.4-11.2 25.6-7.3l4.3 1.8q3.4 1 6.8 1" class="b"/><path d="M10 170.3c3.7.5 7.4 1.7 11.2 1.6h24q3.3 0 6.7-.2c4.5-1.2 9-2.8 13.7-3 5.8-.4 11.5 1 17.1 1.6q4.3.9 8.6 1.5h5.1c4 .3 8-.6 12-1.4q7.3-1.4 14.5-2.8c6.2-1 12.6-.3 18.8-.6 3.8-.3 7.1-2.5 10.3-4.4 4.7-2.9 9.7-6.1 15.4-6 2.7 0 5.2 1 7.7 2q3.4.9 6.8 1.3" class="b"/><path d="M10 165.3c3.5.3 6.9 1.3 10.3 1.9h9.4c4.4-.7 8.6-2.4 12.8-3.8q2.6-.8 5.2-1.2l6.8-.4c5.7-.7 11.4-1.6 17.1-1.9 3.7-.1 7.5-.4 11.1.1 4.7.9 9 2.8 13.7 3.5q7 1.2 13.7-.7c12-3.4 14.5-5.3 27.4-1.8 2.5.6 5.1 1.1 7.7.6 8.2-2 14.5-9 23-9.7 2.4-.3 4.7.4 6.9 1q3.4 1 6.8 1.5" class="b"/><path d="M10 159.2c3.2.1 6.4 1 9.5 1.8 7 1.6 13.6-2.1 19.6-5.2 3.2-1.5 6.7-3 10.3-2.5a48 48 0 0 0 24-1.2c10.7-3 13.2.2 23 2.9q6.5 1.6 12.8-.1c7.2-2.2 12.7-6.6 20.6-4 5.7 1.8 10.7 6.5 17 5.8 8.6-.6 15.5-7.4 24-7.8 3.8.3 7.5 1.4 11.2 1.9" class="b"/><path d="M10 153.2c3.2-.3 6.4.7 9.5 1.6 7 1.8 13.6-2.7 19.6-5.8 3.4-1.8 7.4-3.3 11.1-1.8 8 2.8 13.6 3.3 21.4 0 3-1.3 6.1-2.9 9.4-3.3 6-.4 11.4 3 17.1 4 14.8 3.2 19.7-10.5 31.7-5.2 6 2.8 10.3 8.3 17.1 9.5 4.3.9 8.7.1 12.8-1.2 4-1.2 7.8-3.1 12-3.2 3.4 0 6.9.7 10.3 1.1" class="b"/><path d="M10 148.8c3.2-.5 6.4.3 9.5 1.3 8 2 15-3.6 22.2-6.4 2.1-.8 4.6-1.3 6.8-.7 3.7 1.2 7.3 3 11.2 3.2 5.5.6 10.6-2.2 15.3-4.7 3.5-2 7.2-3 11.2-2 4.8 1 9.5 3 14.5 3.4 14 1.4 18.9-13.8 31.7-5.5 3 2 5.6 4.6 8.5 6.7 6.1 4.2 13 6.9 20.5 5.3 3.2-.5 6.3-1.5 9.5-1.8 3.6-.2 7.4.3 11 .7" class="b"/><path d="M10 146q3-.5 6 0c2.6.5 5.1 1.3 7.7 1 4.6 0 8.8-2 12.9-3.8 3.2-1.5 6.6-3 10.2-3 2.4.3 4.6 1.5 6.9 2 4.1 1.4 8.7 1.5 12.8 0 3.9-1.4 7.3-3.7 11.1-5.3 7.1-3.2 14.3 1.5 21.4 2.4q6.6 1.2 12.8-1.5c8.6-4.4 13.6-9.8 23.1-3 9.1 6.9 17.6 15.2 30 13.5l6.8-.8q5.1-.1 10.3.3" class="b"/><path d="M10 142.7q3-.6 6-.3c2.6.4 5.2 1 7.7.8 7.6-.2 14-5 21.4-5.8 2.7-.3 5.2 1 7.7 1.5q5.6 1.5 11.1 0c10.7-3.2 13.6-8.4 25.7-5 7 2 14.2 3.5 21.4 2 3-.5 5.7-2.1 8.5-3.4q8.9-4.5 17.1 1c3.3 2.2 6.3 4.9 9.4 7.2 1.7 1.1 3.2 2.8 5.2 3.3H182" class="b"/><path d="M10 139q3-.5 6-.2l4.3.6c6.6.4 12-2 18-4 3-1 6.2-1.8 9.4-1.3 12 4 18-1.8 29-4.3 5.8-1 11.5.9 17.2 1.5 6 .8 12 .9 18 1.3 4 0 8-1.5 11.9-2.1 5.8-1.2 11.7.6 16.3 4.1 2 1.5 3.8 3.5 6 4.8H182" class="b"/><path d="M10 134.7H29c3.5-.8 6.8-2.4 10.2-3.4 3-1 6.3-1.6 9.4-.8 9.2 3 17.6-3.9 26.5-4.9 2.6-.4 5.2.1 7.7.5q4.4.6 8.6.6c5.1 0 10.3-.7 15.4-.1 2.6.2 5.1 1.3 7.7 1.8 8.5 1.3 17.2-.3 24.8 5 .7.4 1.6 1.3 2.6 1.3H182" class="b"/><path d="M10 130h22.3q1.3-.1 2.6-.7l4.2-1.5a20 20 0 0 1 7.7-1.1c1.4 0 3 .6 4.3.8 3.9.4 7.6-1.2 11.1-2.6 4.4-1.8 9-3.7 13.7-3.6 3.5.1 6.8 1.8 10.3 1.5 8.2 0 16.8-5.3 24.8-1.3 5.6 3 11.8 4.8 18 6.4l4.2 1.3 2.6.9H182" class="b"/><path d="M10 125.4h26.6q2.6.1 5-.7a18 18 0 0 1 5.2-.4c1.4.1 2.9.7 4.3.8 3.6.3 7-1.2 10.3-2.6 5.5-2.6 11.7-5.4 18-3.6 11.6 4.6 22.1-9.4 33.3-1.8 6.2 3.6 12.9 6.1 19.6 8.3H182" class="b"/><path d="M10 120.8h50.5q1.3 0 2.6-.3c3-1.7 6-3.4 9.4-4.1 10.3-2 7.8 4.8 23-2.8 4.3-2 9-4.4 13.8-3.1 2 .7 4 2 6 3a96 96 0 0 0 19.6 7.3H182" class="b"/><path d="M10 116.1h57.4c1.1-.2 2.3-1 3.4-1.5q2.5-1 5.1-1.3c2.3-.2 4.6.9 6.8 1.1 6.3.4 11.7-3.7 17.1-6.2 7.8-3.7 10-1.9 17.2 1.5q4.9 2.3 10.2 3.8c3.7 1 7.5 1.5 11.1 2.6H182" class="b"/><path d="M10 111.5h60q1.7 0 3.3-.6 2.6-.8 5.2-.4c8.7 3 14.5-1.6 22.2-5 6.5-2.8 9.2-2 15.4.7a58 58 0 0 0 19.7 4.5q3 .3 6 .8H182" class="b"/><path d="M10 106c1 .9 2.3.9 3.5.8h78.7c1.7.3 3.5-.6 5-1.2q3.4-1.3 7-2.3c4.6-1.4 8.4 0 12.8 1.7l6 1.8h59M10 99.5l3.5 2.7H182M10 94l3.5 2.6q.6.9 1.7 1h143.7q7.3 0 14.5-1c2.8-.4 5.7.3 8.5.7M10 89.7q2.7 1.5 5.2 3.2h129.1c3.2.3 6.3-.7 9.4-1q6-1 12-1.3c3.1-.2 6.3-1 9.4-1.3q3.5.1 6.8.8M10 86.5q2.2.9 4.3 1.8h118.1l5-.1 6-1.8q5.2-1.4 10.3-2c4.9-.3 9.8-.3 14.6-1 2.2-.2 4.5-1 6.8-1.2q3.5 0 6.8.5M10 83.6h107.8a66 66 0 0 1 12.8-2.5q4.4-.4 8.6-1.4c2.3-.6 4.5-1.7 6.8-2 4-.9 8-.6 12-.4 3.7.2 7.5.4 11.1-.2 2-.2 4-1 6-1.4a30 30 0 0 1 6.9.1" class="b"/><path d="M10 79h102.7q1.3 0 2.5-.2 2.5-1.5 5.2-2.8 5.7-2.4 12-2.7 5.6-.4 11-2.4c5.7-1.7 11.6 0 17.2.8 3.3.5 6.9.7 10.2-.2q2.1-.7 4.3-1.3a27 27 0 0 1 6.8-.2" class="b"/><path d="M10 74.3h105.2c7.7-5.9 13.2-6 22.3-6.7q3-.5 6-1.7 3.7-1 7.7-.3c6.5 1 13 3.8 19.6 2.1q2.2-.6 4.3-1.4 3.4-.6 6.9-.5" class="b"/><path d="M10 69.7h106.1c1.2-.1 2.3-1 3.4-1.5q3-1.4 6-2c6-1.2 12.3-.2 18-2.6 8-2 15.8 2.8 24 2.3 2.6 0 5.1-1 7.6-1.8a35 35 0 0 1 6.8-.9" class="b"/><path d="M10 65h56.5c.4-.3 1.3-.6 1.7-.8 4.3-1.8 9.1-3 13.7-1.5 1 .3 2.4.9 3.4 1.4.8.3 1.7 1 2.6 1h21.3l7.7-.1q3-1 6-1.4c4.6-.6 9.2-.4 13.7-1 3.2-.2 6.2-1.8 9.4-2 7.9-.5 15.2 3.9 23.1 3.2 2 0 4-.8 6-1.4l6.8-1.7" class="b"/><path d="M10 60.4h46.2c4.3 0 3.5.3 6.9-2.1q3.8-2.7 8.5-3.8c7-1.3 13.3 3.3 19.7 5.5 1.3.6 2.9.4 4.3.4h5.1q6.8.2 13.7-.1c5-.4 10.3.1 15.4-.2q7-.6 13.7-2.9c3.6-.8 7.5-.2 11 .6s6.9 2 10.3 2.5q3 .1 6 .1 2.7 0 5.2-1 3-1 6-2.2" class="b"/><path d="M10 55.8h45.4c1.3-.3 2.3-1.9 3.4-2.7q3-3 6.8-5c6.8-3.4 12 .5 18 3.3q4.8 2.1 10.3 2.5c6.8.6 13.8-1 20.5 1l3.4.8h12.8c1.8.2 3.5-.4 5.2-1q3.3-1.3 6.8-2.4c4.2-1.1 8.7-.6 12.8.4 6.2 1.4 12.5 4 18.9 2.6q4-1.2 7.7-3.2" class="b"/><path d="M10 51.1h39.4q1.3.1 2.6-.3l3.4-3.3c2.3-2.4 4.8-5 7.7-6.7 7.3-4.4 12.8 1.4 18.8 5q4.8 2.4 10.3 2.2c7-.3 14-2.6 20.5 1.4 1.3.6 2.8 1.8 4.3 1.7h15.4c3.1-1.3 6-3.4 9.4-4.5q6.3-1.7 12.8-.5c6.5 1 13 3.6 19.7 2.7 2.7-.5 5.2-1.9 7.7-3" class="b"/><path d="M10 46.5h34.3l3.4-2.2q2.3-1.2 4.2-3c3.1-2.6 6-5.9 9.5-8 8.2-5.2 14 2.6 20.5 6.5 3.3 1.8 7.3 2.4 11.1 2.3 5.1-.1 10.6-1.1 15.4 1q2.7 1.4 5.1 3.2 2.2.3 4.3.2h14.6c1.2-.3 2.3-1.3 3.4-2a35 35 0 0 1 5.1-3c4.3-1.6 9.1-1.9 13.7-1.7 6.6.3 13 2.2 19.7 1.7 2.6-.3 5.2-1.4 7.7-2.3" class="b"/><path d="M10 41.8h23.2c1 0 2.4.3 3.4-.4 3.2-2 6.2-4.5 9.4-6.6q4-2.2 7.7-4.8c4.7-3.8 10.1-7.4 16.2-4.4 3.1 1.4 5.8 3.8 8.6 5.8 6.5 5 13.6 5.1 21.3 5.5a21 21 0 0 1 12.9 4.8q2.5.1 5.1.1h8.6q2.5.2 5-.1c3-1.7 5.6-3.8 8.6-5.3a31 31 0 0 1 12-1.9c7.4 0 14.8.9 22.2.3q4-.8 7.8-2" class="b"/><path d="M10 37.2H29c5.6-3.7 10.5-8.6 16.2-12.3q2.8-1.7 6-2.8 3.3-1.7 6.8-3c7.7-3 13.6 1.5 19.7 5.6a47 47 0 0 0 18 6.5c4 .7 8.1 1 12 2.4q2.3 1 4.2 2.3c1 .5 2.2 1.3 3.4 1.3h10.3c5.4-1.3 10-5.2 15.4-6.7 5.9-1.5 12 .2 18 .1q7.7-.2 15.4-1.6 3.7-1 7.7-2" class="b"/><path d="M10 32.5h14.6c1 0 1.8-1 2.5-1.5q2.7-2.2 5.2-4.5c4.3-3.9 8.4-8.1 13.7-10.6 1.8-1 4-1.2 6-1.7a27 27 0 0 1 17-.3c3.3 1.1 6.4 2.9 9.5 4.3 5.1 2 10 4.6 15.4 6.4 6.2 2 12.9 2.5 18.8 5.3 6.8 2.2 13.9-.9 20.5-2.4 4.2-1 8.6-2.1 12.9-1.4 4.5.8 9 2.2 13.6 1.8 3.9-.2 7.5-1.6 11.2-2.7 3.7-1 7.3-2.4 11-3.1" class="b"/><path d="M10 27.9H23c1 0 1.8-1 2.5-1.7l5.2-4.9C35.7 16.5 41 10 48.6 9.1c5 0 10.2-1.3 15.3-1.3 6.4-.1 12.9 1.4 18.9 3.6 6 3 11.4 7 18 8.8q3.7 1.1 7.6 1.9 2.6.8 5.1 1.2c3.2.3 6.4-.4 9.5-.8a47 47 0 0 1 8.5-.6q3.8.2 7.7.7 2.6 0 5.1.3c3.2.7 6.2 2.2 9.4 2.8 5.8 1.4 11.3-1.3 16.3-4 3.8-1.7 7.9-3.3 12-4" class="b"/></svg>