<svg xmlns="http://www.w3.org/2000/svg" id="a" width="1920" height="2400" viewBox="0 0 192 240"><defs><style>.b{fill:none;stroke:#fff;stroke-miterlimit:10;stroke-width:.4px}</style></defs><path d="M0 0h192v240H0z" style="stroke-width:0"/><path d="M7.6 209.9c7.4.2 11.7 5.5 16.7 10.2 6.4 6 11.6 6.4 18.5.8q4.3-3.6 8.8-7c9.2-7.5 14.4-5.7 22.8 1.5q3.3 2.7 7 4.5l5.4 3.2c7.4 4.6 12.9 3 19.3-2.2s13.6-10.6 22-6.1c4.5 2.2 8.2 5.7 12.4 8.4q3.3 1.9 7 3H165c2.3 0 4.7.3 7 0 3.9-2.3 7.9-4.5 12.3-5.1" class="b"/><path d="M7.6 207.3c7.5-.8 12.1 5.2 17.6 9.2 7.8 6 13.4 2.7 20.2-2.6 12.2-8.5 16-14.5 30-4.2 2.6 2 6 3 8.7 5 4 2.5 8.3 5.6 13.2 5.3 10.8-1 16.7-14.6 29-9.4 4 1.7 7.3 4.6 10.6 7.2q2.6 2 5.3 3.5 1.7.3 3.5.2H173c1.5-.5 3-1.6 4.4-2.2q3.4-1.6 7-1.8" class="b"/><path d="M7.6 206c5.6-1.3 9.4 1.3 14 3.8 7.4 4.1 13.2 3.8 20.3-.6q5.6-3.4 11.4-6.4c8.6-4.8 14.2-3 22 2 3.1 1.8 6.7 3 9.7 5 7 4.4 12.6 6.5 20.2 2 4.6-2.5 8.8-6.1 14.1-6.6 9-.7 15 7.4 22 11.5h30.8c3.7-2.4 7.8-4.7 12.4-4.4" class="b"/><path d="M7.6 204.6q3.9-1 7.9-.2Q20.7 206 26 206c6.5 0 12.5-3 18.4-5.3q4.5-1.5 8.8-2.7 9.1-2.6 17.6 1.5l7 3.5a93 93 0 0 1 8 3.8c7.8 4.3 13.6 3.9 21.1-.6 4.8-2.8 10-6 15.9-5.3 7.1 1 12.4 6.5 18.4 10l1.8.9q1.4.2 2.6.1h21.1q1.8.1 3.6-.1l2.6-1.8c3.3-2.3 7.3-4.3 11.4-4" class="b"/><path d="M7.6 202.4q3-.5 6.1-.5c2.4 0 4.8.2 7-.3 6.4-1.2 12.3-4 18.6-5.6 8.3-2 17.2-2.5 25.5 0 8.2 2.6 15.6 7.4 23.7 10.2 6.6 2.3 12.8 0 18.5-3.4 5.7-3 11.9-6.5 18.5-5.8 5.8.7 10.7 4.1 15.8 6.7l4.4 2c1.1.5 2.3 1.4 3.6 1.4h14c1.7 0 3.7.3 5.3-.2l2.7-1.7c3.9-2.8 8.1-5.9 13.2-6" class="b"/><path d="M7.6 199c12.6 0 13-2 23.7-6.3 5-2 10.5-2.2 15.9-1.8 10.6.5 20.5 4.8 29.9 9.5 1.4.6 2.9 1.7 4.4 2h22.9c1.2-.1 2.4-1 3.5-1.6l4.4-2.2c7-3.5 13.8-7 22-4.7q6 1.8 11.4 4.4c2.7 1.3 5.1 3.3 8 4H166c1.2.2 2.5-.6 3.5-1.2l3.5-2.3c3.5-2.4 7.2-5 11.5-6" class="b"/><path d="M7.6 194.4c5 .5 10.3-.4 15-2.6a37 37 0 0 1 16.7-4.2c2.9 0 5.8.5 8.8.7q6.7.6 13.1 2.7a91 91 0 0 1 15 6.5c2.6.3 5.3 0 8 .1h27.2c1.4-.1 3.1.3 4.4-.4 5.4-3.4 11-7.4 17.6-7.5a29 29 0 0 1 12.3 3q3.2 1.7 6.2 3.5c1 .6 2.3 1.6 3.5 1.4h12.3q1.5 0 2.7-.8l3.5-2.3c3.4-2.3 6.8-4.8 10.6-6.5" class="b"/><path d="M7.6 187.8q4 .4 7.9 0 4.9-1.1 9.7-2.2 6.5-1.4 13.2-.2l7.9 1.4q8 .5 15.8 1.9a65 65 0 0 1 13.2 4q1.8.2 3.6.1h44c8.1-6 16-9 25.5-3.8 8.7 4.8 6 3.7 15.8 3.8h3.5q1.5.1 2.7-.5c5-2.4 9.2-6.2 14-8.8" class="b"/><path d="M7.6 181q4 .6 7.9.4c4.7-.3 9.4-1 14-.4 5.2.6 10 2.4 15 3.5q4.8.7 9.7.8c5 .3 10 .3 15 1q2.2.3 4.4 1 1.3.4 2.6.7h51.9c5.3-3.7 12-6.5 18.5-4.3 3.9 1.3 7.5 3.3 11.4 4.3h10.6c5.8-1.7 10.5-6 15.8-8.7" class="b"/><path d="M7.6 175.6q4 .8 7.9 1.3 6.6 0 13.2.5c7.4.8 14.5 3.3 22 3.6 6.4.8 13 .5 19.3 1q2.3.1 4.4.8 1.7.6 3.6.5h54.5c7.7-4.2 13-3.9 21.2-1.4q2.6.8 5.2 1.3 2.2.1 4.4 0c2.3 0 4.8.4 7-.2 5.1-1.5 9.3-5 14.1-7.1" class="b"/><path d="M7.6 172.3q3.9 1.2 7.9 2.2c6.1 1 12.3 0 18.5-.3q7.5-.5 15 .4 5.2.8 10.5 1.6 4.9.7 9.7 1.2 3 .5 6.1 1.1h63.4q3-.7 6.2-1c3.5-.2 7 .6 10.5 1H173c1.6.1 3-1.1 4.4-1.7q3.5-2 7-3.5" class="b"/><path d="M7.6 170.5c8 3.9 6.2 3.2 15 3.2 2 .1 4.1-.8 6-1.5q5.3-2.2 10.7-4 4.6-1.5 9.6-.8c5.2 1 10 3.1 15 4.5q3.5 1 7 1.8h109.2l4.4-2.2" class="b"/><path d="M7.6 169h22.9c14.5-9.8 16.2-9.9 31.6-2l4.4 2h117.9" class="b"/><path d="M7.6 164.2h22.8c2.5 0 2.7-.1 4.5-1.7 3.6-2.8 7.5-6.1 12.3-6.5 4.5 0 8.5 2.6 12.3 4.8 2 1 4 2.7 6.2 3.4h118.7" class="b"/><path d="M7.6 159.4h23.7c2 0 3 .3 4.4-1.3 3.6-2.8 7.5-6.4 12.4-6.7 4.5 0 8.5 2.9 12.3 5.1l3.5 2.3q.7.5 1.8.6h118.8" class="b"/><path d="M7.6 154.6h24.6c1.1 0 2.5.2 3.5-.3 3.8-2.8 7.6-6.1 12.4-6.8 4.4-.3 8.5 2.2 12.3 4.4l3.5 2a4 4 0 0 0 1.8.7h118.7" class="b"/><path d="M7.6 149.8H33c1.1 0 2.6.3 3.5-.5 3.9-2.3 7.8-5.2 12.3-5.7 4.5-.2 8.5 2.1 12.4 4l2.6 1.4c.8.4 1.7 1 2.6.8h118" class="b"/><path d="M7.6 145h24.6c1.1 0 2.5.3 3.5-.3 4.3-2.2 8.4-5.2 13.2-5.8 6.5-.4 11.9 4 17.6 6.2h118" class="b"/><path d="M7.6 140.3h21.1c1.4 0 3 .1 4.4-.6 5.2-2 10.1-5.6 15.8-6.2 4.5 0 8.5 2.3 12.4 4.3 1.7.8 3.4 2.2 5.2 2.5h117.9" class="b"/><path d="M7.6 135.5c2.3.1 4.7-.5 7-.4q6.7.8 13.2-.5 5.8-1.5 11.4-3.5c3.4-1.1 7-2.3 10.6-2 5.1.8 9.6 3.7 14 6q1.4.6 2.7.4h117.9" class="b"/><path d="M7.6 130.5c3.4-1.2 7-1.1 10.5-1q4.6 0 8.8-1c9-1.7 18.4-5.6 27.3-1.8l6.2 2.6c1.3.6 2.8 1.6 4.4 1.4h119.7" class="b"/><path d="M7.6 126c2 0 4.1-.5 6.1-.4q4.5.2 8.8-.6c8.7-2 17.5-5.5 26.4-3.2 4.8 1 9.4 3 14.1 4.1h121.4" class="b"/><path d="M7.6 121.2H26c5.6-2 11.4-4.6 17.6-4 2.6.3 5.3 1.2 7.9 1.9q4.3 1 8.8 1.7c2.6.5 5.3.3 7.9.4h116.1M7.6 116.4h24.6c3.4-1.2 6.8-2.8 10.6-2.8 3.9 0 7.6 1.8 11.4 2.2 5 .7 10 .2 15-.1q3-.3 6.1 0c1.5.2 3 .8 4.4.7h56.4q2.9-1.7 6.1-3c11.6-3 16.9-2.8 28.2 1.3q3.3 1.2 7 1.7h7" class="b"/><path d="M7.6 111.6h51.9c4.4-1 8.7-2.4 13.2-2.8q3.1-.3 6.1.5 3.5 1.2 7 1.4c6 .5 11.8-.6 17.7-.7 11.6-.4 15.9 4.1 28.2-1.4 3.4-1.6 6.8-3.6 10.5-4.5 5.3-.8 10.5-2.3 15.9-2.5q6.7-.1 13.2 1.7 3 .6 6.1 1.4 3.7 1.2 7 2.8M7.6 106.8h51c3.7-1.7 7.5-3.5 11.4-4.4 9.7-2.2 10.6 2.9 23-.2 5.7-1.3 11.5-3.7 17.5-3.1 9.8 1.8 15.3 1 24.7-2.2q3-1 6.1-1.5 4.5 0 8.8-.8c6.7-1.5 13.4-3.2 20.3-2.4q3.6.3 7 1.3 3.7 1.5 7 3.3M7.6 102H48q4.5.2 8.8-.1l3.6-2.3c4.6-3 10.2-5.3 15.8-4.4 2.3.2 4.7 1.1 7 1.1 7 .2 13.1-3.9 19.4-6.5 3-1.2 6.4-2.1 9.7-1.4q7.5 1.1 15 .2c4.9-.5 10-1.6 15-1 5.5 1.4 11.2-.1 16.6-1.5 10.3-2.5 16.2-2.9 25.6 2.8" class="b"/><path d="M7.6 97.3h45.8c1.3-.3 2.4-1.6 3.5-2.4 5.3-4.4 11.2-8 18.4-6.4 2.6.4 5.3 1.4 8 1.4 5.9-.1 11-3.6 15.8-6.6 3.2-2 6.7-4.3 10.6-4.6 1.7 0 3.5.5 5.2.6q4 .3 8 .2c5 0 10-.4 15 .4 3 .3 5.8 1.8 8.7 2.4 3.8.8 7.7.3 11.5-.3 11.2-2.2 15.7-3.6 26.4 2.1" class="b"/><path d="M7.6 92.5h42.2c8.5-5.9 13.8-14.5 25.5-10.9 4.1 1.3 8.1 2.3 12.4.8 7.8-2 15.4-11.2 22.8-11q5.2.8 10.6.7c6.2 0 12.6-.3 18.5 1.8 2.7.9 5.2 2.5 7.9 3.4q5.5 1.7 11.4 1.4c11.4-.5 14.4-1.7 25.5 3" class="b"/><path d="M7.6 85.8q2.1 1 4.4 2h30.8q1.7-1.2 3.5-2C52.3 83.4 56.5 78 62 75c7.4-3.9 12.1-.6 19.4.2 4 .3 7.9-.8 11.4-2.4 5.5-2.4 10.6-6.7 16.8-7 2.3.1 4.6.8 7 .8 8 .3 16.2-1.2 23.8 2 2.4 1 4.6 2.5 7 3.5q5.9 2.7 12.3 3.6c5 .7 10 .5 15 1.2q4.9 1 9.6 2.5" class="b"/><path d="M7.6 78.6c4.5.9 8.8 2.8 13.2 4.2 4.6.3 9.4 0 14 .1 1.6.2 3-.5 4.5-1.2q2.6-1.2 5.2-2.5c2-1 4.3-1.4 6.2-2.5 3.3-1.8 6.4-4.1 9.7-6 9.2-5.4 13.5-3 22.8-3.7 8-.7 15.1-4.7 23-5.5 2.6-.4 5.3.3 7.8.9q3.6.6 7 .6c10.3.3 16.7.3 25.6 6 15.8 9.3 21.6 4.6 37.9 6.4" class="b"/><path d="M7.6 73.3c5.5-.4 10.5 2.6 15.8 3.6 6.6 1.5 13.2-.3 19.4-2.4 3.4-1.1 7.2-1.2 10.5-2.7C60 69 66 65.2 72.7 63c3.4-1.2 7-1.8 10.5-2.8 5-1.3 10-2.8 15-3q4.8-.4 9.7.6c3.8.8 7.6 2 11.4 2.5 11.9 1.6 18.7 1.4 29 8.5 14.8 9.7 20.9 3.6 36.1 1" class="b"/><path d="M7.6 69.8q3.6-.6 7 .3l4.4 1.5q4.3 1.2 8.8 1.2c5.3 0 10.6-1 15.8-1.6 2.7-.3 5.4 0 8-.1q4.6-.4 8.8-2.2c7.5-3.2 13.6-9 21-12 5.3-2.6 10.9-5 16.8-4.4 4 .4 7.8 1.9 11.5 3.2q5.2 1.8 10.5 3c9.3 2 19.4 2.5 27.3 8.4 4.7 3.2 10 6.7 15.8 5.8 3.5-.5 6.7-2.1 9.7-3.7 3.9-1.8 7.5-4.2 11.5-5.7" class="b"/><path d="M7.6 67.3q3.1-.5 6.1.2c1.5.2 3 1.3 4.4 1.1h46.7c6-3.6 10.5-9.4 16.7-13 4-2.6 8.3-5.5 13.2-6 5-.5 9.7 2 14 4.1q4.8 2.1 9.8 3.2c8.4 2.4 17.5 2.1 25.5 6 3 1.6 5.8 4 8.8 5.7q7.9.2 15.8-.1 4.6-3 8.8-6.2 3.4-2.7 7-5" class="b"/><path d="M7.6 63.8H70c1.3 0 2.6.2 3.5-1q2.1-2.2 4.4-4c6.5-4.6 13.3-12 22-9.8 3.4.8 6.5 2.7 9.6 4.2q3.5 1.5 7 2.3c7.9 2 16 .7 23.9 2.5 4 .8 7.1 3.7 10.5 5.8h19.3c5.2-3 9.1-7.9 14.1-11.1" class="b"/><path d="M7.6 59h67.7l1.8-.1 1.8-1.3 3.5-2.4c6.6-5 12.6-9.1 21-5.3 2.8 1 5.3 2.6 8 3.6a34 34 0 0 0 19.4 0c10.2-2 13-.8 21 5.5q10.2.2 20.3 0c4.3-3 8-6.8 12.4-9.5" class="b"/><path d="M7.6 54.3h73c4.5-2.5 8.8-6 14-6.4 7-.8 12.3 4.4 18.6 6.2q1.7.3 3.5.2 2.7.1 5.3-.6c6.7-1.7 13-7 20.2-6 3.3.6 6 2.8 8.8 4.6 1 .7 2.3 1.8 3.5 2h16.8l.8-.5q1.4-.6 2.7-1.6c3.3-1.9 6.2-4.6 9.6-6.2" class="b"/><path d="M7.6 48.8c2.7.1 5.2 1 7.9.7H85c5.7-2.6 10.8-3.7 16.7-1 .8.4 1.8 1 2.7 1H128q1.9-1 3.6-2c9.5-6 12-3.8 21 1 .8.4 1.9 1 2.7 1h14.1c1.5 0 3-1 4.4-1.5 3.7-1.4 7-3.8 10.6-5.3" class="b"/><path d="M7.6 43.5q2.2 0 4.4.6c1 .2 2.3.7 3.5.6h118.8l1.7-1c4.2-2.2 7.2-1.8 11.5-.2q1.7.8 3.5 1.2h20.3q3-.6 6.1-1.6 3.5-1.4 7-2.9M7.6 39q3 .1 6.1 1h166.4c1.4-.3 3-1.1 4.3-1.6M7.6 35.2h176.8M7.6 30.4h176.8M7.6 25.6h176.8M7.6 20.8h176.8M7.6 16h131.9c1.8-.3 3.5-1.2 5.3-1.3 5-.5 10 .7 15 1.3h17.6c2.4-.5 4.7-1.6 7-2.3" class="b"/></svg>