<svg xmlns="http://www.w3.org/2000/svg" id="a" width="1920" height="2400" viewBox="0 0 192 240"><defs><style>.b{fill:none;stroke:#fff;stroke-miterlimit:10;stroke-width:.3px}</style></defs><path d="M0 0h192v240H0z" style="stroke-width:0"/><path d="M8 228.1c3.2.3 6.4-1 9.6-1.3 4-.7 8.2-.9 12.2-1.9 5.3-1.4 9.6-5 15-6.3q4.6-1 9.6-.7c4.3.5 8.8 1 13.1.1s8.8-.9 13.2-.7l8.7-.3c8.7-1.2 12.6 2.2 20.2 5 4.2 1.4 8.8.8 13.1 1.7 6.1 1 12.2 3.1 18.4 2.6 3-.3 6-1.6 8.8-2.8q4-1.5 7.9-2.6c5.4-1.7 11.1 0 15.8 3 3.6 2.4 6.8 5.7 10.5 8.1" class="b"/><path d="M8 224.7c2.6 0 5.3-.8 7.8-1.6q4-1.1 7.9-1.9 4.5-.7 8.8-1.8a92 92 0 0 1 15.7-3.8q3-.5 6.2-.7 4 .1 7.9.1c3.5 0 7-.7 10.5-1.3 4.3-.5 8.8-.4 13.1-1 6.3-.7 9-1.7 15 1.6 3.9 2 7.6 5 12.2 5.2 5.3.2 10.5 1.4 15.8 2a31 31 0 0 0 9.6-1c10-2.4 13.4-5.6 24.6-4.3 11.3 1.1 13 4.7 21 11.6" class="b"/><path d="M8 221.3c3-.2 5.9-1.5 8.7-2.5a51 51 0 0 1 9.6-2.4q4.5-.7 8.8-1.5 4.8-.5 9.6-1.1c4.4-.7 8.7-2.1 13.2-2q4.8-.1 9.6-.5c2.6-.3 5.3-1.2 7.9-1.4q7-.3 14-1l3.5-.3q2.3 0 4.4.9c5.1 1.9 9.3 6.4 15 6.8 5.2.2 10.4 1.8 15.7 2q4.1-.1 7.9-2c5.5-2.4 11.3-5.1 17.5-5.2 3 .2 5.9 1.3 8.8 2q4.4.7 8.7 1.3c5.5 1.2 9.2 6.1 13.2 9.7" class="b"/><path d="M8 218c4.8-.8 9.1-3.7 14-4.6 4-1 8.1-1 12.2-1.6q4.9-.2 9.6-.9c3.9-.6 7.6-2 11.4-2.4 4.7-.4 9.5.1 14-.8 2-.4 4.1-1.2 6.2-1.4 2.6-.3 5.3 0 7.9 0h6.1c1.7 0 3.6-.5 5.3-.3 5.7 1 10.1 5.2 15.7 6.4q4.5.3 8.8 1c3.7.7 7.7 1.5 11.4.5 4.3-1.3 8-4.2 12.3-5.4q5.1-1.6 10.5-1.3c2.4.5 4.7 1.7 7 2.5q4.3 1.4 8.8 1.7c6.4.3 10.6 6 14.9 10" class="b"/><path d="M8 214.3c4.4-.9 8.5-3.4 13-4q4.6-.7 8.8-.7 5.3-.4 10.5-1.1c4.8-.7 9.3-2.9 14-3.2 5-.3 10 .9 15-.3 2-.5 4-1.5 6.1-1.8 5.5-.9 11.1.1 16.6-.3 6.2-.5 11.7 3.2 17.6 4.5q4 .6 7.9 1.1c3.7.8 7.6 1.6 11.4.8 4.2-1 7.8-4 12.2-4.7 3.8-.8 7.7 0 11.4.1 2.8.4 5.3 1.8 8 2.6 2.7 1 5.8 1.1 8.7 1.4 6.6.4 10.6 6.6 14.9 10.9" class="b"/><path d="M8 210c4-.7 8-2.5 12.2-2.8 5-.6 10-.2 14.9-.6q4.6-.4 8.7-1.7c3.2-.9 6.4-2 9.7-2.1 6.3.1 12.2 2.4 18.4-.5a37 37 0 0 1 17.5-2.8q3.1-.1 6.2.2 4.5.6 8.7 2 5.2 1.4 10.5 2.1c3.8.8 7.6 2.1 11.4 1.5 7.6-1.3 10.2-7.2 19.3-4.6l4.4 1.2q2.2.4 4.4 1c2.6 1 5.1 2.3 7.9 2.8 2.5.5 5.3.2 7.8.6 6.2 1 10 6.7 14 10.8" class="b"/><path d="M8 205.3q3.4-.2 7-.8 3.8-.5 7.8-.6c5.3-.5 10.6-.1 15.8-.6 5-.3 9.8-2.4 14.9-2.2 3 .2 5.9 1 8.8 1.3a18 18 0 0 0 10.5-2 35 35 0 0 1 12.3-4q6.1 0 12.2.8c5.6 1 11 2.4 16.7 3.3 4.2 1.2 8.8 2.9 13.1 1.2 7.3-2.8 10.4-8.8 19.3-4.9l4.4 1.8 3.5 1c2.6 1.2 5.1 2.7 7.9 3.3 2.5.6 5.3.3 7.9.6 6 1.2 9.9 6.5 14 10.5" class="b"/><path d="M8 201q10 .4 20-1c3.8-.5 7.7.3 11.5.2 4 .1 8.1-.7 12.2-.6 3 0 5.9 1 8.8 1.3q6.4.9 12.3-2.3c3.6-1.8 7.3-3.7 11.4-4.2q3.5-.2 7 .3 5.7.4 11.4 1.7c3.7 1 7.6 1.5 11.4 2.3 4.3 1.3 8.7 2.9 13.1.7 7-3.2 11.4-10.9 20.2-7q3.4 1.3 7 2.7c2.8 1.5 5.6 3.6 8.7 4.4 2.3.6 4.8.6 7 1 5.9 1.2 10 6.1 14 10" class="b"/><path d="M8 197.6c3.7.2 7.5.7 11.3.3s7.6-1.7 11.4-2c4 .2 8.2 1.1 12.3 1.2 4.6.2 9.4 0 14 1q6.8 1.6 13.1-1.1c4.2-1.9 8.5-4.2 13.2-4.2 2.6-.1 5.3.5 7.9.8 5.3.3 10.6 1.5 15.8 2.5 2.9.6 6 .7 8.7 1.6 4.8 1.7 8.8 1.9 13.2-1 6.9-4 11-11.5 20.1-8q2.8.7 5.3 1.9c3.2 1.8 6 4.5 9.6 5.6q3.6.9 7 1.6c5.4 1.6 9.3 6.1 13.2 10" class="b"/><path d="M8 194.5c10.4 1.4 11 1 21-2q3-.5 6 0l8.8.9q5.3.1 10.6.7c4.3.9 8.8 2 13.1.8 4.7-1.2 9-4 14-3.9 3 0 6 1 8.8 1.5q8 .7 15.8 2.2c3.5.6 7 .8 10.5 1.8q7 2 13.1-1.8c6.5-3.4 11.2-10.1 19.3-9 6 .3 9 4.2 14 6.7q3.9 1.7 8 2.9c5.4 2 9 6.8 13 10.7" class="b"/><path d="M8 191.2c3.7.4 7.5 1.6 11.3 1.1 4-.3 7.6-2.4 11.4-3.3q3.5-.4 7-.3 8.4.4 16.7 1.5c3.4.7 6.9 2 10.5 2 4.3.3 8.2-1.8 12.2-2.8 4.4-1.3 9-.1 13.2 1l13.2 2.2 8.7 1.1q3.5.8 7 1.1a24 24 0 0 0 11.4-2c7.6-2.7 15.2-10 23.7-8.6 2.8.8 5.3 2.4 7.9 3.9q4.7 2.8 9.6 5.2c5 2.7 8.2 7.6 12.3 11.3" class="b"/><path d="M8 187.5c3.5.3 6.9 1.6 10.4 1.9 4 .3 7.8-1.6 11.4-3 2.5-1 5.3-1.2 8-1.5 5.2-.5 10.5 1 15.7 1.4 3.6.7 7 2.2 10.5 2.7 5.8 1.2 10.3-1.4 15.8-2.6 3.5-.7 7.1.1 10.5 1.1q5.7 1.4 11.4 2.2 4.4.4 8.8.9 4.3.9 8.7 1c4.7 0 9.4-1 14-1.6q5.6-.6 10.6-3c2.9-1.4 5.6-3.5 8.7-4.4 7.1-1.5 13 4.2 18.4 7.8 5.3 3 8.4 8.6 13.2 12.3" class="b"/><path d="M8 183.4c3.6.1 7 1.7 10.4 2.6 4 1 8-.6 11.4-2.3a27.5 27.5 0 0 1 19.3-1.2q3.1.4 6.1 1 4 1 8 2c10.8 2.4 14.5-4 23.6-2.2 4.3 1 8.6 2.6 13.1 3 3.2.2 6.5 0 9.7.3 2.6.3 5.2 1 7.9.8 4 0 8.2-.5 12.2-.3 3 0 5.9 1 8.8 1.2 6 .4 9.9-4.6 14.9-6.8 6.6-3 12 1.5 16.7 5.7q2.2 1.5 4.3 3.4c3.2 3 5.9 6.8 9.7 9.1" class="b"/><path d="M8 179.3c3.7 0 7 2 10.4 3.2 3.6 1.2 7.3.3 10.6-1.4q3.3-1.6 7-2.6c4.5-1.4 8.7-.4 13.1 1 3.2.7 6.5.9 9.7 1.6a40 40 0 0 0 20.1-1q4-.9 8 .2 3 1 6 2 4 1 8 .9c2.8-.1 5.8-.7 8.7-.5 1.7 0 3.5.7 5.3.8 4.3.3 8.7-.3 13.1.2q3.1.2 6.1 1.3c2.8 1 5.8 2.3 8.8 1.5 5.5-1.4 9.1-6.9 14.9-7.7 5.3-.8 9.3 3.6 13.1 6.6 5 2.8 8 8.3 13.2 10.5" class="b"/><path d="M8 175.1c3.7 0 7 2 10.4 3.2 6.7 2.3 11.3-2.3 17.6-3.3 4.5-.9 8.9.6 13.1 1.8 2.3.6 4.7.5 7 .7q8 .5 15.8-.6c4-.4 8.3-1.1 12.3.3 3.8 1.3 7.3 3.6 11.4 4q4 .5 7.9-.3c2.5-.5 5.2-1.2 7.8-.8 5.8 1.4 11.8.4 17.6 1l4.4.7c2.2.7 4.6 1.7 7 2 5.3.7 9.5-3.3 14-5.4 6.4-3.1 10.7-.3 15.8 3.7 1.7 1.2 3.7 2.3 5.2 3.8 2.7 2.3 5.3 5.1 8.8 6.3" class="b"/><path d="M8 170.8c5 .3 9.6 3.8 14.8 3.5 4.8-.2 9.2-3 14-2.4 4 .1 7.7 1.5 11.4 2.1 3.2.6 6.5.1 9.7 0q6.5-.7 13.1-1.1c3.2-.1 6.6-.4 9.7.5 4 1.2 7.4 4 11.4 5.4 7.3 2.5 10.5.7 17.5-.7q2.2-.2 4.4.2 3 .4 6 .5c4.7.3 9.5 0 14.1.6 3.2.4 6.4 1.1 9.7 1 7.1-.3 13.7-6.8 21-3.7q2.8 1.3 5.2 3 2.3 1.4 4.4 2.9c3 2.2 6 5 9.7 6" class="b"/><path d="M8 166.8c2.3.3 4.6 1.4 7 2q6 1.9 12.2.7 3-.5 6.1-.5c4.2.3 8.2 1.8 12.3 2.2 3.8.4 7.6-.5 11.4-1q5.6-.6 11.4-.2c6.2.2 10.9-.6 16.6 2.7 2.9 1.5 5.7 3.2 8.8 4.1a19 19 0 0 0 7.9 1.3c3.3-.2 6.4-1.8 9.6-2.1 4.1-.1 8.2 1.1 12.3 1.5 5.3.8 10.5-.7 15.8-.6 3.7 0 7.6.8 11.4.4 2.3-.3 4.7-1.1 7-1.6q5-1.3 9.6.9 3.7 1.8 7 4a22 22 0 0 0 9.7 4" class="b"/><path d="M8 163.4c9.1 4 12.3 3.1 21.8 2.7 4.2-.2 8.1 2 12.3 2.2 5.4.6 10.4-2.2 15.8-2 5.6-.2 11 2.5 16.6 2a24 24 0 0 1 9.7 1.2l6.1 2.7 5.3 2a15 15 0 0 0 8.7 1.4c7.6-1.8 7.8-3 15.8-.1 11.5 4.3 12.4-.9 22-.6 2.9.2 5.7 1.3 8.7 1.6 5 .2 9.8-2.6 14.9-1.5 6.8 1.7 10.4 6.5 18.4 5.4" class="b"/><path d="M8 160.7a26 26 0 0 0 16.6 3c3.2-.1 6.5-.3 9.6.4 12.5 3.8 14.3-3 24.5-1.6 4.9.7 9.1 3.8 14 4.1 2.7 0 5.3-.4 8-.4 3.6 0 7.1 1.3 10.5 2.6 4 1.4 7.8 4.3 12.2 4 2.7 0 5.3-1.2 8-1.6 7.5-.9 12.8 8.5 21.8 4.7 11.4-4.6 12.8 1.2 21-.2 3-.5 5.9-1.6 8.8-1.9 9-.5 10.4 6 21 2" class="b"/><path d="M8 158.5c8.5 5.2 17.2 1.2 26.2 3.2 11.3 3 13.5-3.6 22.8-2.5 6 .6 10.7 5.6 16.7 5.9 2.6 0 5.2-.8 7.8-1.2q5-.8 9.7.7c4.4 1.4 8.4 4.4 13.1 4.3 2.7 0 5.3-.8 8-.8 4 .5 7 4 10.4 6 6 3.5 8.1 2.3 14 0 7.2-2.5 10.8 1.4 16.7.4 3-.5 5.8-1.6 8.8-2.1 10.4-1.3 10.2 5.6 21.9-1.8" class="b"/><path d="M8 156.3c5.6 2.5 9.9 1.7 15.7 1.4 4.4-.3 8.8.5 13.2 1.4q4 .7 7.8-.6 3-1.2 6.2-2.2a18 18 0 0 1 13.1 2.4c9.4 5.7 9.8 5.2 20.2 2.5 2.8-.7 6-.7 8.7.3 3.5 1.3 6.9 3 10.6 3.7 3.1.6 6.5 0 9.6 1 5.6 2.4 9.2 9 15.8 9.4 3.1 0 5.9-2 8.7-2.9q3.4-1.2 7-.9c2.6.3 5.3 1.1 8 .7 2.6-.5 5.2-1.6 7.8-2.2 12-3.1 11 5.3 23.7-4.4" class="b"/><path d="M8 153.7q3.4.8 7 .6c3.7-.3 7.5-1.2 11.3-1q4 .4 8 1.3c3 .8 6.4 1.3 9.6.3 2.3-.6 4.6-1.7 7-2.3 2.8-.5 6-.4 8.7.5 6.9 2.1 11.4 8.7 19.3 7.2 13.5-2.7 10-2 22.8 1.9 4.3 1.4 9.4 1.3 13.1 4.2 2.7 2 5 4.6 8 6.3 6.9 4.4 11-.8 17.5-2.7 3.7-1.2 7.6 0 11.3-.4 4.6-.9 8.6-3.6 13.2-4.1q3.5-.3 7 .4c4.5 1 8.6-1.9 12.3-4" class="b"/><path d="M8 150.8c2.2-.3 4.7 0 7-.4 4-.8 8-2.1 12.2-1.5q3.5.4 7 1.2c3.4 1 7.1 1.5 10.5.2 2.3-.7 4.6-1.8 7-2q6.6-.8 12.3 2.4c4.2 2.4 8.2 5.7 13.2 6.4 3.7.7 7.6.2 11.4.4 3 0 5.9 1.2 8.7 2 4.7 1.4 9.6 2.5 14 4.5 6.7 3.3 10.6 11.6 19.3 8.3 4.5-1.7 8.3-5.3 13.2-5.7 2.9-.4 6 .2 8.7-.8 4.5-1.5 8.4-4.8 13.2-5.7q3.5-.7 7 0c3.9.6 7.8-.7 11.4-2" class="b"/><path d="M8 147.7q3-.4 6-.5 3.2-.7 6.2-1.6a28 28 0 0 1 12.3 0c4.9 1 8.3 1.8 13.1-.3 2.8-1.2 5.7-2.3 8.8-2 8.3-.3 13 6 20.1 8.9q6.4 2.5 13.2 3.4 4.5.9 8.7 2.2c6.3 2 13.3 3 18.4 7.4 5.5 4.8 9.4 8 16.7 4.3 3.3-1.6 6.2-4.2 9.6-5.4 3-1.3 6.5-1 9.7-1.6 6.3-1.9 10.7-8.2 17.5-9 2.3-.4 4.7.3 7 .5q4.4.3 8.8-.1" class="b"/><path d="M8 143.8c2.5-.3 5.2.2 7.8-.2 4.3-.8 8.7-2 13.2-1.9 4.3-.2 8.8.9 13.1-.3 3.2-1 6.3-2.8 9.6-3.2 7.6-.8 12 3 17.6 7.2 3.2 2.3 7 3.9 10.5 5.6a64 64 0 0 0 9.6 3.4q4.8 1.6 9.7 2.6c5.4 1.2 11.3 2 15.8 5.7 2.8 2.1 5.8 4.8 9.6 5 5.8-.1 10.2-4.5 14.9-7.3 6.1-3.6 10.8-1.4 16.7-6.3 12.9-10.4 13-7.6 28-4.9" class="b"/><path d="M8 139.7c2.3 0 4.6.6 7 .9q3.4.2 7-.3 5.2-.7 10.5-1.8c2.9-.4 5.9-.5 8.7-1.3 2.7-.7 5.3-1.8 8-2.5 3.3-.8 7.1-.8 10.4.5 4 1.6 7.1 4.8 10.5 7.3q2.6 1.6 5.3 3 4.7 2.8 9.6 4.8c5.2 1.6 10.4 3.3 15.8 4 8 1 10 1.1 16.7 5.8 5.2 3.5 9.6 2.9 14.9-.1 2.7-1.6 5.1-3.8 7.9-5.4 4.2-2.8 9.8-2.5 14-5.4 13.7-9.8 13.1-10.8 29.8-5.2" class="b"/><path d="M8 135.7c6.2 1.8 11.7 4.7 18.3 2.6 2.4-.6 4.7-1.7 7-2.3q4.5-1 8.8-2 4.7-1.3 9.6-1.9c3.6-.5 7.4-.3 10.5 1.5 2.9 1.5 5.3 3.8 8 5.6q4.9 3.3 10.5 5.5c3 1.3 6.4 1.7 9.6 2.3q4.4 1.2 8.8 2.1c4.3 1 9 .6 13.1 2.2 3.3 1.3 6.2 3.6 9.7 4.6 5 1.4 10.1-1 14-4 2.6-2 5.5-4 8.7-5 3.6-1.2 7.4-1.7 10.6-3.9 4.7-2.8 9.1-7 14.9-7.5 4.7 0 9.4 1.1 14 2.3" class="b"/><path d="m8 132.4 7 3.3a15 15 0 0 0 9.6 1.8c2.7-.5 5.3-2 7.9-3a74 74 0 0 1 18.4-3.5c2.3-.2 4.6-.8 7-.8 4.6 0 8.6 2.9 12.2 5.4a35 35 0 0 0 8.8 4.2c4 1.3 8.2.6 12.3 1 4.7 1 9.2 3 14 3.4 2.6.4 5.4.6 7.9 1.4 5.2 2 9.8 5.8 15.8 4.2 4.7-1 8-5 12.2-7 3.8-2.3 8.4-2.3 12.3-4.2 5.6-2.6 10.4-7.3 16.7-8q2.6-.1 5.2 0 4.4-.2 8.8.1" class="b"/><path d="m8 130 7 3.5c3.4 1.8 7.5 2.8 11.3 1.4 2.7-1 5.2-2.4 8-3.2 5.3-1.4 11-1.7 16.6-2.4 3.5-.4 6.9-2 10.5-1.5 3.2.3 6 2 8.7 3.6 6.5 4 11.1 4.6 18.4 3.6 3-.4 6 .6 8.8 1.6q4.2 1.6 8.8 2.6c2.9.6 6 .6 8.7 1.7 3.4 1.4 6.8 3.4 10.5 3.6 6.6.5 11.1-5 16.7-7.4 3-1.3 6.5-1.6 9.6-2.7 6-2.2 10.5-7.2 16.7-9 2.2-.7 4.7-.3 7-.6 2.9-.4 5.8-1.1 8.7-1.2" class="b"/><path d="M8 128.3c3.6 1.6 7.3 3.5 11.3 4.3q3.6.5 7-1 3.4-1.4 7-2.8c5.4-1.4 11.1-1.8 16.7-2.4 4-.6 8.1-2 12.2-1 3.1.5 6 2 8.8 3.2 4 2 8.7 2.8 13.2 2.2 2.3-.2 4.7-.7 7-.6q3 .3 6.1 1.1 4.8 1.5 9.7 2.6 3.4.8 7 1.5c4 1.1 8 3 12.2 2.8 5.5 0 10-3.5 15-5.5 4.8-2.1 10.5-2.4 14.8-5.7 5.3-3.7 10.6-8.8 17.6-8 3.5-.3 7-1.7 10.5-2.3" class="b"/><path d="M8 126.2c11.6 3.6 12 4.4 23.6-.3 5.4-1.6 11-2.2 16.6-3 2 0 4.1-.5 6.2-.7q4-.2 7.9.9c3.8 1 7.5 2.6 11.4 3.3q4.3.8 8.7.8c3 0 5.9-.5 8.8-.5q6.6 0 13.1 1.5c8.7 2.4 17.2 5 26.3 3.2 3.7-.6 7.1-2.1 10.5-3.4 3.8-1.6 7.7-2.8 11.4-4.4 4.5-2.3 7.9-6.3 12.3-8.6a15 15 0 0 1 5.3-1.9c1.4-.1 3 .2 4.3 0 3.3-.2 6.5-1.3 9.7-2" class="b"/><path d="M8 123c3.2.2 6.3 1.4 9.6 1.8 6 1 11.7-1.8 17.5-2.8q7-1.5 14-2.3c2.6-.3 5.3-.8 7.9-.2 4.4.9 8.7 2.7 13.2 3.2 6.7.3 13.4 1.3 20.1 1.6 4 .1 8.2-1.1 12.3-.5 4.8.5 9.1 3.5 14 3.5 3.8.2 7.6-.7 11.4-1.2 2.9-.3 6-.2 8.7-1.1 4-1.1 7.8-3.2 11.4-5.1q3.2-1.5 6.2-3.1c4.3-2.9 8-6.9 13.1-8.4 2.6-1 5.3-.3 8-.3q4.3-.1 8.7-1" class="b"/><path d="M8 118.7c5.3-.5 10.4 2.2 15.7 2.2q4.5 0 8.8-.9l11.4-1.8q4.7-.9 9.6-1.2 3.5.2 7 1.1 4 1 7.9 1c2.3 0 4.7-.4 7-.3 3.9.2 7.6 1.5 11.4 2.3 7.2 2.1 11.4-1.9 18.4.2 9 3.2 8.5 4.4 18.4 1.5q3-1 6.1-1.2c2.7 0 5.4 0 8-.9 3.7-1.3 7-3.7 10.4-5.8 2-1.3 4.2-2.1 6.2-3.3 4-2.5 7.6-6 12.2-7.3 2.9-1 6-.5 8.8-.1q4.4.4 8.8.1" class="b"/><path d="M8 114c4.2-.7 8.3 1.2 12.2 2.7a27 27 0 0 0 11.4 2c7.3-.5 14.6-2 21.9-3 3.5-.3 7 .2 10.5 0 8.4-.9 10.6-2.7 19.3.4 2.6.8 5.2 1.8 7.9 2 3.8.3 7.6-.7 11.4.2 4.5.8 8.4 4.2 13.1 3.8 3.7-.4 7-2 10.5-3q3.5-1 7-.9c5.7-.4 10.3-4 15-7 2.1-1.4 4.8-2.2 7-3.6 3-2 6.1-4.3 9.6-5.6q4.7-2 9.6-1 4.8.6 9.7.7" class="b"/><path d="M8 109.2c7.3-1.4 12.7 5.3 19.2 7.5 3 1.1 6.4 1 9.6.7 5.5-.2 10.6-2.1 15.8-3.4 3.7-.9 7.6-.8 11.4-1.4 3.8-.4 7.6-1.5 11.4-1.6 4.9-.1 9.5 1.8 14 3.2 3.7 1 7.7 1 11.4 2.1 10.6 3 11.9 5 22.8.4q3-1.3 6.1-1.8c2.3-.4 4.8-.5 7-1.1 4.7-1.2 9-3.7 13.2-5.8 7.4-3 13.7-9 22-10 4-.4 8.1.6 12.2 1" class="b"/><path d="M8 105c7-.9 11.8 5.2 17.5 8.4q4 2.4 8.7 2.6 4 .2 7.9-.5c4-1 7.6-2.9 11.4-4.2 5.4-1.5 11.1-1.2 16.6-2 7.6-1.6 12-1.8 19.3 1.2l4.4 1.4 7 2.7q7 2.4 14 1c4.5-.9 8.8-2.9 13.2-4 4.9-1.3 10-1.8 14.9-3.1s9.5-3.7 14-6c5.4-2.8 10.8-5.9 16.7-7.5 3.4-.6 7 .2 10.5.8" class="b"/><path d="M8 101.7c7.5.2 12.7 6.4 19.2 9.4q3.3 1.4 7 2 3.5.7 7 .4c4-.4 7.7-2.7 11.4-4.3 4.6-2.2 9.9-2 15-2.2 2.9 0 5.8-.8 8.7-1.5 5.3-1.5 10-.4 14.9 1.8 5 1.8 9.3 6 14.9 5.5 3-.2 5.9-1.2 8.7-1.9l12.3-3c2.6-.5 5.3-1.5 7.9-2q4.4-.4 8.8-1c5.6-.9 10.5-4 15.7-6q6.8-2.7 13.2-6.3c3.6-1.6 7.6-1 11.4-.4" class="b"/><path d="M8 98.7c4.9 1.2 9.4 3.7 14 5.9q5 2.4 10.5 3.5c4.5 1.3 9.3 3.2 14 1.3q3.6-1.3 7-3.2c3.8-1.7 8.1-2 12.3-2q3 .1 6-.5 2.7-.7 5.3-1.5 5-1.4 9.7 0 4 1.4 7.9 3.5c4.6 3 8.5 5 14 2.6q5.8-2.6 12.3-3.6l8.7-1.3c2-.4 4.1-1.3 6.2-1.5 5-.6 10.1-.6 14.9-2.4 5-2.4 10.7-3 15.7-5.4 7.5-4 8.1-6 17.6-5.1" class="b"/><path d="M8 95.6q6.8 2.7 14 5 5.2 1.3 10.5 2.3c4 1.2 7.8 3.9 12.2 3.7 3.8 0 7.2-1.8 10.5-3.3q5.1-2 10.6-2.6 4.5-.3 8.7-1.3c4.6-1.5 9.5-1.8 14 .2q3.2 1.2 6.2 2.6c3.8 2.3 7.8 4.2 12.2 2.5 3-1.1 5.7-2.8 8.8-3.4 4.3-1 8.8-.8 13.2-1.1q2.6-.3 5.2-1.1 2.6-.5 5.3-.8 4.4-.6 8.7-1.6c2-.5 4.1-1.4 6.2-1.8 3.7-.8 7.7-1 11.4-2.3 8-3.1 8-6.2 18.4-6.4" class="b"/><path d="M8 92.3a71 71 0 0 0 13 3.5c3.5.6 7.1.8 10.6 1.4 5 .8 8.9 4.9 14 5.3a17 17 0 0 0 9.6-2.4q4.2-2.1 8.8-3c3.2-.5 6.5-.1 9.7-.5 5.3-.9 10.5-1.7 15.7.4 4 1 7.4 3.5 11.4 4 4.1.7 7.8-1.7 11.4-3.2 6.5-2.6 13.5.2 20.2-1.1 3.4-.7 7-.9 10.5-1.6 3.5-.6 7-1.9 10.5-2.8 4-.8 8.3-.3 12.3-1.5 3.2-.8 6-2.7 8.7-4.4q4.6-2.7 9.7-3.5" class="b"/><path d="M8 89.2c4.5 1.2 9.3 1.6 14 2.3 3.7.5 7.6.6 11.3 1.3 5 1.5 9.4 5.5 15 5.3 3 .1 6-1.5 8.7-2.8q3.6-1.9 7.9-2c3 0 5.8 1.1 8.7 1.3 3.5.2 7-.5 10.6-.5q4-.1 7.8 1.3c9.7 4 11.1 2.5 20.2-1.3 5.6-2 11.7-.8 17.5-.7 1.5 0 3-.4 4.4-.4 3-.2 6-.1 8.8-.6 3.9-.6 7.5-2.2 11.4-3 2.5-.4 5.3-.3 7.9-.5q4.1-.4 7.8-2.2c4.7-2.6 8.8-6.4 14-7.6" class="b"/><path d="M8 86.2c2.8.4 5.8.2 8.7.6q5.7 1 11.4 2c2.3.4 4.7.2 7 .9 3 .8 5.7 2.4 8.7 3.1 3.2.8 6.6 1 9.7-.3 4.8-2.1 8.7-4 14-1.7 2.3 1 4.5 2.3 7 2.7 4.4.7 8.8-.9 13.2-.8 2.4 0 4.7.9 7 1.6a16 16 0 0 0 7 .9c3.4-.4 6.5-2.2 9.6-3.4q6-1.8 12.3-2.5c3.3-.3 7.2-.5 10.5-.6 3.2.2 6.5.7 9.7.3s6.4-1.7 9.6-2.5 6.4-.8 9.6-1.2c10-1.3 12.8-8 21-10" class="b"/><path d="M8 83.8c2.5.1 5.2-.4 7.8-.1 3.9.3 7.6 1.6 11.4 2.4 2.3.6 4.7.4 7 .5 3 .3 5.9 1.4 8.8 2 3.4.6 7.1 1 10.5-.2 2-.7 4-1.7 6.1-2 7.7-1.3 11.2 6.8 19.3 5.8 3-.2 5.8-1.2 8.8-1.3 2.4-.2 4.7.8 7 1.6q3.9 1.3 7.9.6c2.7-.5 5.3-1.8 7.9-2.8q5.7-2 11.3-4c14.4-5.1 15 .4 25.5-2 2.9-.7 5.7-2 8.7-2.4 4.1-.7 8.4-1 12.3-2.5 5.6-2 9.6-7.4 15.8-7.9" class="b"/><path d="M8 81.8c3.1.2 6.4-.7 9.6-.3 3.8.2 7.6 1.4 11.4 1.9 2.3.2 4.7-.4 7 0 4.6.8 9.2 2.2 14 2 5.2-.2 9.5-4 14.9-1.8 2.1.8 4.1 2.2 6.1 3.4 4.2 2.7 9.4 1.8 14 1a16 16 0 0 1 5.3.1q2.3.7 4.4 1.6c7 2.8 11 .6 17.5-1.6 4-1.3 7.6-3.8 11.4-5.6q4.6-2.3 9.6-2.6 2.7 0 5.3.4c4.8.6 9.5-.9 14-2.4 2.8-.8 5.9-1 8.8-1.4q4.6-.5 8.7-2.4c4.5-2.2 8.7-6 14-5.8" class="b"/><path d="M8 79.8c2.3.2 4.7-.4 7-.9q3-.6 6-.6c3 .1 6 .9 8.8 1.2 1.4.2 3 0 4.4.2 3.5.5 7 1.7 10.5 1.9q4.5.3 8.8-.5c3.4-.9 7-2.3 10.5-1.4 3.1.7 5.8 2.6 8.8 3.7 7.5 2.4 13.3-2.4 21 1.9 3.5 1.7 7.4 3.3 11.4 2.7q2.7-.4 5.2-1.3 2.3-.6 4.4-1.6c5.6-3.2 10.9-7.7 17.6-8.1 2.5-.2 5.3 0 7.8-.2 4.3-.4 8.2-2.2 12.3-3.2 3.7-1 7.7-.7 11.4-1.4a28 28 0 0 0 7.9-2.8c3.7-2.2 7.9-4 12.3-3.7" class="b"/><path d="M8 77.7c3.6.3 7-1.7 10.4-2.7a19 19 0 0 1 11.4.5q1.8.5 3.5.6 2.7.7 5.3 1.5c5.1 1.6 10.6.6 15.8-.4 7-2 10-1.9 16.6.6q3.8 1.2 8 .5c8.6-1.3 10.8-.5 18.3 3.8q5.4 2.9 11.4 1.8c2.4-.4 5-.9 7-2.2 2.6-1.5 5.2-3.4 8-4.7 3.7-2 8-2.1 12.2-2.4q5-.5 9.6-2.5 3.8-1.7 8-2.3c3.7-.4 7.6-.2 11.3-1.2 7.6-2.2 10.4-5.9 19.3-5.7" class="b"/><path d="M8 75.4c3.5 0 6.6-1.9 9.6-3.6q5.5-3 11.4-.3 3 1.2 6 2.2c3.6 1.6 7.6 2.6 11.5 1.6l7.9-1.8q4.3-1.4 8.7-1.6c3-.1 5.9.7 8.8 1q2.7.3 5.2-.4c3.5-.6 7-1.6 10.6-.8 2.8.6 5.4 2.1 7.9 3.7 5.8 3.7 9.8 4.4 16.6 3.3 4.7-1 8.4-4.5 13.2-5.4 2.8-.7 5.8-.4 8.7-.6 3.4-.2 6.6-1.4 9.7-2.7q3.7-2 7.8-2.9c3.8-.5 7.7-.3 11.4-1.3 4-1 7.6-3.3 11.4-4.7q4.7-1.3 9.7-1.6" class="b"/><path d="M8 72.6a16 16 0 0 0 6-2c2.5-1.6 5-3.6 8-4 3-.7 6 1 8.7 2.4l7 3c6.4 2.4 10.6-1.5 16.7-2.5 3-.9 6.3-1.8 9.6-1.8 2.6 0 5.3.5 7.9.5 3.6-.1 7-1.6 10.5-2.1q4.6-.8 8.8 1.3c6.6 3.4 10.3 6.6 18.4 5.8q2.2 0 4.4-.4c2.6-.7 5.2-2 7.8-2.8 4-1.2 8.2-.2 12.3-.2 5.4 0 10-3.2 15-5 3.3-1 7-.7 10.4-1.5 5-.8 9.4-4 14-5.7 3.4-1.2 7-1.5 10.6-2" class="b"/><path d="M8 68.4q3.1-.6 6-2 3-2 6.2-3.2c3.7-1.4 7.3.5 10.5 2.2 6.7 3.1 10.3 5 17.5 1.6q3.4-1.3 7-1.9a38 38 0 0 1 10.6-1c2.3 0 4.7.4 7 0 3-.3 5.8-1.4 8.7-2q4.5-.8 8.8.6c4 1.5 8 3.6 12.3 4 3.1.5 6.4.2 9.6.5 3.9.2 7.6-1.4 11.4-1.6s7.6 1 11.4.8c5 0 9.4-2.8 14-4.4 3.7-1.2 7.7-1.2 11.4-2.5 11-4 10.2-7.3 23.7-7.6" class="b"/><path d="M8 62.1q3-.2 6-1.2c2-.7 4.1-1.8 6.2-2.3 4.3-1.2 8.4 1 12.3 2.6 3.2 1.5 6.9 2.5 10.5 1.9 3.2-.5 6.3-2 9.6-2Q58.3 61 64 61q6.7.3 13.2-1c3.7-.8 7.5-1.6 11.3-1.2 3.2.3 6.4 1.3 9.7 1.3q5.3-.2 10.5.3c2.3.3 4.7 1.2 7 1.4q4.8.3 9.7.6 3.9.3 7.8.8c5.6.6 10.8-2 15.8-3.8 4-1.4 8.4-2 12.3-3.6 9.3-4 11.7-7.8 22.8-7" class="b"/><path d="M8 55.3c2 0 4 .3 6 0 3.8-.6 7.6-1.9 11.4-1.4 2.8.3 5.4 1.5 8 2.5q3 1 6 1.1c3.6.1 7-.8 10.6-.7 4 .4 8.1 1.7 12.3 1.5 4 0 8.2-.8 12.2-1.2 6.2-.6 12.3-1.7 18.4-2 4.4-.6 8.7-2.4 13.2-1.7 4.3.6 8.1 3 12.2 4.2 4 1.4 8.2 1.5 12.3 1.7 7.2 1 11.8-.1 18.4-2.5 5-1.7 10.1-3 15-5 7.1-3 11.8-6.8 20-6" class="b"/><path d="M8 48.9c7.8 3 11.7.4 19.2 1.2 3 .2 5.7 2.1 8.8 2.5 4.3.7 8.8-.5 13.1.4 2.4.6 4.7 1.8 7 2.4 5.2 1.6 10-.4 15-1.5 3.7-.5 7.6-.2 11.3-.9q4.1-.5 7.9-1.9 2.7-.6 5.3-2c8-4.3 11.9-2.2 19.2 2 6 3.5 9.1 3.6 15.8 3.5q4 .3 8 .7 4.3 0 8.7-1 3.9-1.2 7.9-2.6 6.1-1.7 12.2-3.7c5.5-2 10.7-5.5 16.7-5.3" class="b"/><path d="M8 44c6.3 3.6 11.5 2.1 18.3 2.7 8.2 1.3 5.2 4 16.7 3.3 8-1 10.3 4.6 17.5 3.9 4.3-.4 8-3.4 12.3-3.6 4.4 0 8.9 0 13.1-1.3q4.5-1.8 8.8-4.4c7.5-5.3 10.7-4.4 18.4 0 6.7 3.8 9 4.2 16.6 3.7 4.2 0 8.2 1.8 12.3 2q4 .4 7.9-.6l5.3-1.7q5.6-1.3 11.4-2.6c6-1.3 11.2-5.8 17.5-6.5" class="b"/><path d="M8 39.1c5.8 3.4 12.8 3.3 19.2 5 2.5.6 4.7 2 7 3 4.3 1.3 8.8 0 13.2.7 5.1 1.2 8 5.3 14 3.8 3.4-.8 6.3-3 9.6-4 2.3-.4 4.7-.3 7-.6q3.7-.3 7-1.2c3.5-1.1 6.7-3.2 9.7-5.3 3.5-2.7 7.7-5.4 12.3-4.3 3 .6 5.8 2 8.7 3q5.5 1.9 11.4 1.4c5.7-.4 10.4 3.5 15.8 4.8 2.8.7 6 .6 8.7-.2q4.4-1.3 8.8-2.3c3.8-.9 7.8-1.5 11.4-3 4-1.7 7.9-4 12.3-4.6" class="b"/><path d="M8 33.6q3.4 1.4 7 2.6l7 3q3.8 1.4 7.8 2.7c1.5.5 3 1.4 4.4 1.7 4 .8 8.2 0 12.3.7 2.5.6 4.8 2.1 7 3.4a11 11 0 0 0 9.6 1.2c3.3-1.2 6.2-3.7 9.7-4.3l9.6-1.8q4.3-.6 7.9-3c7.2-4.4 11.7-10 21-8.2q4.8.8 9.7 1c3.8 0 7.9.3 11.4 2 4 2.2 7.7 5.3 12.2 6.4 5.4 1.4 10.7-1.1 15.8-2.4q5.8-1.6 11.4-3.1c4-1.3 8-2.9 12.3-3.4" class="b"/><path d="M8 28.5q3.5 1 7 2.5c4.1 2.4 8.3 5.3 13 6.4 2.1.5 4.1 1.4 6.2 1.6 4 .3 8.3-.2 12.3 1.1 5.2 2 9.7 7.4 15.8 6.3 3.8-.8 6.8-3.8 10.5-5a66 66 0 0 1 8.7-2.9q3.2-.4 6.2-1.3c3.2-1.2 6-3.4 8.7-5.2 5-3.3 10.6-6 16.7-5.8 8.5-1.2 12.8-.7 20.2 4 3 2 6 4.3 9.6 5.4 6.5 2 13-.9 19.3-2.7 7.1-1.8 14.5-3.4 21.9-3.7" class="b"/><path d="M8 23.9q3 1 6 2.2c2.4 1.3 4.7 3.1 7 4.5 3.5 2 7.6 2.4 11.5 3 2.3.3 4.7-.1 7 0a18 18 0 0 1 9.6 3.3l6.1 3.8c3.3 2.1 7 2.9 10.6.8 2.3-1.3 4.5-3.1 7-4.3 2.8-1.5 5.6-3.1 8.7-4 2.6-.6 5.4-.5 8-1.6 3-1.3 5.7-3.2 8.7-4.6 4.5-2.2 9-4.6 14-5.5 2.9-.6 5.8-1.6 8.8-1.2 3.2.4 6 2.2 8.7 4 3 2 6.2 4.4 9.7 5.7 3.3 1.3 7 1 10.5.4q5.7-1 11.4-2.5a93 93 0 0 1 22.8-2" class="b"/><path d="M8 20.1q3 1.5 6 2.8c2.7 1.5 5.1 3.4 8 4.5 2.4 1 5.2 1.1 7.8 1.2l3.5.2 4.4-.2q5.2 0 9.7 2.5 5 3.5 10.5 6.2c4.6 2.1 8.7-1 12.3-3.6 3.6-2.3 7.2-4.9 11.3-6.2 2.3-.7 4.8-.6 7-1.3 2.5-.6 4.7-2.1 7-3q7.5-2.9 15-5.4c2.9-.7 5.8-1.8 8.7-1.9 7.3.1 11.8 7.3 18.4 9.2 4 1.5 8.3.3 12.3-.6q3-.5 6.1-.8 7-1 14-.8l14-.6" class="b"/><path d="M8 17.3q3.1 2.3 7 3.6c2.7 1.3 5.6 2.6 8.7 2.9q3 .2 6.1 0 2.2.2 4.4.2c3.2-.2 6.5-.5 9.6.6 3.6 1 6.4 3.4 9.7 4.9 2.6 1.4 5.7 3 8.8 2.2 3-.7 5.4-2.8 7.8-4.5 3-2 6.3-4 9.7-5.1 3.6-1.3 7.8-.4 11.4-1.9q6.1-2.4 12.2-4.5c5.7-2 12.4-4.9 18.4-3 7.4 2.5 11.2 8.7 20.2 8 3-.1 5.9-1 8.8-1.4q3.5-.2 7 0c4.3.1 8.7.8 13.1.8s8.8-.8 13.2-1.6" class="b"/><path d="M8 14.1q1.5 1.3 3.4 2.2l3.5 1c4.6 1.6 9.3 1.8 14 1.5q2.7.2 5.3.4c3.2-.2 6.5-.5 9.7.4C50.3 21 56.2 27.4 63 25c2.6-.8 4.8-2.6 7-4 3.8-2.3 7.9-4.6 12.3-4.8 3.5 0 7.2.7 10.5-.7q6.3-2 12.3-4.9c5.2-2.5 11.1-3.6 16.7-1.4 3.3 1.2 6.3 3.2 9.6 4.6 6.7 2.9 14 1.2 21 1.7 11.9 1.4 19.6 3.8 31.6 0" class="b"/></svg>