<svg xmlns="http://www.w3.org/2000/svg" id="a" width="1920" height="2400" viewBox="0 0 192 240"><defs><style>.b{fill:none;stroke:#fff;stroke-miterlimit:10;stroke-width:.4px}</style></defs><path d="M0 0h192v240H0z" style="stroke-width:0"/><path d="M11.8 217.8c3 1.8 6 4 9.2 5.5q4.3 2 8.4 4.2 3.4 2.1 6.7 4.5h49.5c3-1 6-2.3 9.2-3 5-1.4 10.5-.8 15 1.8q1.3.8 2.5 1.2h36.9c1.4 0 2.8-.8 4.2-1q3-1 5.9-1c4.5-.5 9 .6 13.4 1 2.6.1 5.2-.9 7.5-2" class="b"/><path d="M11.8 214q3.8 2 7.5 4 4.3 2 8.4 4.2 2.6 1.4 5 3.2c1.1.6 2.1 1.9 3.4 2h44.4c3 0 6.2.3 9.2 0 5.8-2.3 12.3-4.7 18.5-2.5a24 24 0 0 1 5 2.5q5 .2 10 0H146c.7 0 1.8.2 2.5-.1l4.2-2q4.4-2 9.2-2.6c3.6-.5 7.3.3 10.9.7 2.6 0 5.2-1 7.5-2.1" class="b"/><path d="M11.8 212q4.8 1.7 9.2 4.1l6.7 3q2.7 1.2 5 2.7c.8.4 1.7 1.2 2.6 1.1h57c.8.2 1.7-.4 2.4-.6l4.2-1.6c3.7-1.3 8-2.2 11.8-.9q3 1.3 5.8 3 1.6.3 3.4.1h27.6a4 4 0 0 0 2.5-.5l3.4-1.6a30 30 0 0 1 10-2.8c7.6-.6 9.1 2.7 16.8-1.8" class="b"/><path d="M11.8 209.9c3.8 1 7.3 2.9 10.9 4.4q5.8 2.2 11.7 4h62.9c5.4-2.2 10.8-5 16.7-2.7q2.6.8 5 1.9 1.3.6 2.6.9H150c3.3-1.3 6.6-2.7 10-3.2q5.2-.8 10.1 0c3.6 1.2 7.2-.3 10-2.2" class="b"/><path d="M11.8 206.6q3 .8 5.9 2 2.8 1.4 5.8 2.4c3.8 1.1 7.9 1.6 11.8 2.4 1.8.6 3.9.4 5.8.4h60.3a7 7 0 0 0 3.4-.8l3.3-1.2c3-.8 6.2-.5 9.3 0 3 .3 6.1 1.5 9.2 2h22.6c3.8-1 7.7-2.1 11.7-2.2q5.6-.2 11 1.3c2.9.5 5.8-1 8.3-2.4" class="b"/><path d="M11.8 201.7q3.4.9 6.7 2.2 2.8 1.3 5.9 2.1c4.9 1 10 .9 15 1.4q3.5.4 6.7 1.1c1.4.2 2.8.8 4.2.8h10q4.3-1 8.5-1.7a28 28 0 0 1 14.2 1.6q1.6.1 3.3.1h23.5c4.4-.8 8.9-2 13.4-1.9 5 0 10 1.4 15.1 1.6 4.5.1 9-1.2 13.4-1.7q5.4-.7 10.9 0c3.4.3 6.7 1.3 10 2 2.6.1 5.3-.8 7.6-1.9" class="b"/><path d="M11.8 195.4q3.4.6 6.7 2 4.4 2 9.2 2.6c4.7.6 9.5.7 14.3 1.3 3.9.4 7.7 1.7 11.7 1.7 7.8-.4 15.5-4.2 23.4-2.6 3.7.5 7 2.5 10.1 4.3h26q1.6.1 3.3-.1l4.2-1.5a40 40 0 0 1 8.4-2c3.9-.4 7.8 0 11.7-.2 5.3-.5 10.6-1.3 16-.9q5.9.6 11.7 2.2 2.4.8 5 1 3.3.2 6.7-.8" class="b"/><path d="m11.8 190.4 6.7 2q3.7 1.5 7.5 2.4 6.3 1.2 12.6 2c4.2.6 8.4 1.4 12.6 1.5 4.8 0 9.5-1.6 14.2-2.6s9.6-1.4 14.3-.3c2.4.5 4.6 1.8 6.7 3.1 1 .5 2 1.7 3.3 1.7h27.7c.8.1 1.7-.6 2.5-1l3.3-1.6q4.5-2.3 9.2-3.4c3.6-1 7.3-1 11-1.4 4.4-.5 8.9-1 13.3-.7 8 .6 15.4 4.2 23.5 4.1" class="b"/><path d="M11.8 187q9 3.1 18.4 5.4a73 73 0 0 0 16.8 2.3c6.3 0 12.3-2.2 18.4-3.2 5.5-.9 13.2-1.5 18.4.5q2.6 1.1 5 2.5l1.8 1q1.2.2 2.5.1h22.6c1 0 2.4.2 3.3-.3a63 63 0 0 1 17.6-7.6q3.7-.8 7.6-1.3c3.8-.7 7.8-1.4 11.7-1.3 4.2 0 8.5 1 12.6 2.1q6 1.4 11.7 3.3" class="b"/><path d="M11.8 184.3c4.5 2 9.5 2.5 14.2 4 5.5 1.4 11 3.2 16.8 2.8H47q2.6-.6 5-1.4 5-1.5 10-2c6.2-.9 12.4-.6 18.5-1 4.5-.1 8.6 2 12.6 3.8 1.7 1 4 .5 5.8.6h17.6c1.5 0 2.9-1 4.2-1.5q10.1-4.5 21-6.7c3.8-1 7.7-2.4 11.7-3 4.8-.6 9.6.2 14.2 1.3q3 .6 5.9 1.4 3.5 1.3 6.7 3.2" class="b"/><path d="M11.8 181.1c4 1.9 8.4 1.9 12.6 2.9 3.6.8 7.2 2 10.9 2.5h10c4-1 7.6-3.4 11.8-3.9 5.8-1 11.7 0 17.5 0q3.9.1 7.6-.7 3.4-.1 6.7.8 3.8 1 7.5 2.5c1.6.5 3.3 1.4 5 1.3h11q7.5-1.7 15-2.7c4.5-.7 9.1-1.4 13.4-2.9 4.7-1.6 9.3-4 14.3-4.9 4.1-.7 8.4 0 12.5.8l5 1.1q4.1 1.5 7.6 4" class="b"/><path d="M11.8 176.4c4.3 1.6 9 1.2 13.4 2.3 5.8 1.4 11.7 3.3 17.6 2.2 3.3-.5 6.3-2.2 9.2-3.7q3.7-1.5 7.6-1.4c5.3 0 10.5 1.8 15.9 1.9q3.3-.2 6.7-.9 3.3-.4 6.7.2c6.2 1.2 12 4.8 18.4 5q2.6-.2 5-.9 2.6-.5 5-.5c5-.2 10.1.7 15.2.4a23 23 0 0 0 7.5-1.6c4.5-2 8.7-5 13.4-6.5a28 28 0 0 1 15-.1q2.6.4 5.1 1 3.6 1.7 6.7 3.8" class="b"/><path d="M11.8 169.7c4.1 1 8.5.7 12.6 1.7 6.3 1.4 12.8 3.6 19.2 2.1 7-1.5 8.6-5.4 16.8-4.3 5.7.8 11 3.2 16.8 3.4 2.5 0 5-.7 7.5-.5a35 35 0 0 1 10.9 3.1c2.2.8 4.4 2.3 6.7 2.2H135c6.9-1.6 11.8-7.4 18.4-9.8 4.8-2 10.1-1.7 15-.6q2.6.4 5.1 1.2 3.6 1.5 6.7 3.6" class="b"/><path d="M11.8 163.4q5.4.7 10.9 1.9a42 42 0 0 0 27.6-.7c3.2-1.2 6.8-1 10-.2 5.5 1.4 10.5 3.9 16 4.8 2.2.4 4.5.2 6.7.3q3.9.4 7.6 1.6 2.4.9 5 1.8H134c1.2 0 2.4-.9 3.4-1.3q2.2-1.2 4.2-2.7c3.5-2.5 7-5.2 10.9-7 4.9-2.6 10.6-2.5 15.9-1 4.1.8 8 2.6 11.7 4.6" class="b"/><path d="m11.8 158.7 5.9 1.3q2.9 1 5.8 2c8 2 16.4.2 24.3-1.4 5-1.4 9.5-.3 14.3 1.4q6.2 2.4 12.5 4.2 5.9 1.3 11.8 2.1h47.8q5.9-4 11.6-8.3c5.9-4.5 12.6-8.2 20.1-6.2 5 1.1 9.6 3.5 14.3 5.2" class="b"/><path d="M11.8 155.6q4.8 1.3 9.2 3.9c6.8 3.2 14.2.2 21-1.2q7.6-2 15 .5 9.9 3.3 20.2 5H134q5.3-4.5 11-8.5c5.3-4.1 11.2-9 18.4-8.5 3.6.2 6.8 2 10 3.5q3.3 1.5 6.7 2.5" class="b"/><path d="M11.8 153.8q4.5 1.6 8.4 4.3l1.7 1c1.3.3 2.8.1 4.2.2 2.1-.2 4.6.2 6.7-.3 5.9-1.8 12-5 18.4-3 4.1 1.1 8.3 2.5 12.5 2.9 8.1.5 16.3.3 24.3.3h30.2q8.4.1 16.8 0 2.3-2.5 5-4.4 3-2 5.9-4.3c5.1-4 10.5-9.5 17.6-9.5 3.7 0 7 2 10 3.8q3.2 1.7 6.7 2.7" class="b"/><path d="M11.8 151.8q3 1.1 5.9 2.8c3 .3 6.1 0 9.2.1h11.7q2-.8 4.2-1.3 3.8-1 7.5.1l4.2 1.1 3.4.1h8.4c3-.5 6-1.4 9.2-1.5q3 0 5.8 1.5h52q1.7.2 3.3-.2c2.5-2.4 5.8-3.9 8.4-6 3.6-3 7-6.5 11-9 4.7-3.3 10.1-4 15-.4q4.3 3 9.2 4.7" class="b"/><path d="m11.8 148.2 3.4 1c.7.4 1.6 1 2.5 1h10.9c5.8-.2 11.7.2 17.5-.3q2.2 0 4.2.2h10.9l5-1.4c4-1.3 8.3-3.3 12.6-2.2 2 .7 3.9 1.8 5.9 2.4 1.6.5 3.3 1.4 5 1.2h48.6c.9.1 1.8-.6 2.5-1q2.3-1 4.2-2.6c3.7-2.9 7-6.3 10.9-9 5.1-3.7 10.7-4.5 16-.3q3.8 2.7 8.3 4.9" class="b"/><path d="M11.8 143.8q2.6.3 5 1.1c.8.3 1.7.8 2.5.7h36.1q1.3 0 2.5-.2c4-1.2 7.8-3 11.7-4.2 3.5-1 7.5-1.5 10.9.1 4 1.9 8.5 2.7 12.6 4.3h49.4c8.3-3.8 16-15.4 26-12 1.8.7 3.4 2 5 3.1l6.7 4.4" class="b"/><path d="M11.8 139.4q4.3.3 8.4 1.6h31q1.6.2 3.3-.2c5.9-2.8 11.8-6.4 18.5-6.4q3 0 5.8.9 3.3 1.3 6.7 2.2 4.3.8 8.4 2l4.2 1.4c.7.2 1.8.1 2.5.1h38.5q2.7.2 5 0c4-1.5 7.4-3.9 11-5.9 12.3-7 15.3-2 25.1 5.2" class="b"/><path d="m11.8 135.8 6.7.7h27.7q3 .2 5.8-.2l3.4-2.4c5.6-4.2 12-7.7 19.2-5.7 3.4.8 6.6 2.5 10 3 5.1.9 10.4 1.2 15.2 3.1l5 2.2H135q2-.6 4.1-.7c2.5 0 5.1.2 7.6-.5 5.4-1.2 10.4-4.2 15.9-5.1 5-1 9 1.3 12.6 4.5.7.6 1.6 1.5 2.5 1.8h2.5" class="b"/><path d="M11.8 132h37.7c5.8-4.3 10.7-11.3 18.4-12 5.4-.4 10 2.9 15.1 4 3.6.6 7.3.6 10.9 1.2q5.3 1 10 3.2 3.5 1.6 6.7 3.5h12.6c2.4.3 4.5-1.1 6.7-1.7 3-1 6.1-1.8 9.2-1.5 1.7.1 3.4.7 5 .8q4.3.4 8.4-.5c8.7-1.7 15.5-4.3 22.7 2.9h5" class="b"/><path d="M11.8 127.4h34.4a3 3 0 0 0 2.5-1l3.3-3q3.7-3.7 7.6-7.2c5.6-4.7 10.8-5.3 17.5-2.6 6.5 2.6 13.6 2.1 20.2 4.3q5.2 2 10 4.8c2.6 1.4 5.3 3.3 8.4 3.5 7.8.6 14.8-5 22.6-4.2 2 .2 4 1.2 5.9 1.5q4.1.8 8.3.3c8.6-1 15.7-3.5 22.7 3.6h5" class="b"/><path d="M11.8 122.9h31c2 .2 3.5-1.5 5-2.4 3.7-2.6 6.9-6 10-9.1 6.2-6.1 12.1-10 21-7.3 6.5 1.8 13.3 2.3 19.3 5.5q4.8 2.5 9.2 5.7c2.6 1.6 5.3 3.5 8.4 4 7 1.3 13.9-2.4 21-1.9 2.3.1 4.5 1.1 6.6 1.8q5 1.2 10.1.3c5.8-.9 12-3.2 17.6-.3 1.8.9 3.3 2.6 5 3.7h4.2" class="b"/><path d="M11.8 118.3h26l7.5-3.8q3.4-1.7 6.7-3.9 3.6-2.7 6.7-5.9c4.8-4.4 10-9.5 16.8-10.1 2.5-.3 5 .5 7.5 1 13.3 2.3 17.4 7.7 27.7 14.8 7.6 5 15 3.4 23.4 3.4q3.5.1 6.7 1.4 3.7 1.5 7.6 1.6c7.8 0 16-5.6 23.4-1.4 4.7 3 2.3 3 8.4 3" class="b"/><path d="M11.8 113.8H26q1.9 0 3.4-1l3.3-1.5q5.8-2.7 11.8-5c3-1.2 6.4-1.8 9.2-3.5 7.9-4.5 16.3-16.4 26-15.1q4.6 1 9.2 2c7.6 2 13.3 7.7 19.2 12.6a33 33 0 0 0 16.8 7.3c3.6.5 7.3.4 10.9.8 3.2.3 6 2.2 9.2 2.8 10.2 2 20-6.4 29.3.6h5.9" class="b"/><path d="M11.8 107.7c7.6 2 12-1.2 18.4-4.7a43 43 0 0 1 17.6-6.3c7.3 0 12.7-4 18.5-8C69.6 86.2 73 83.7 77 83q2.7-.1 5 .6l5.1.8c9.5 1.3 15.5 7.8 22.6 13.5 5.2 3.8 11.1 7 17.6 7.5 3.6.3 7.4.2 10.9 1 2.8.8 5.4 2.8 8.4 2.7h11.7q3-.3 5.9-.4 2 0 4.2.4h11.7" class="b"/><path d="M11.8 100c9.5 1.3 13.4-3.2 21-7.5 7.6-4.5 11.6-4.3 20-3.9a32 32 0 0 0 13.5-4c3.7-1.7 7.5-4 11.7-4.1 2 0 4 .7 5.9.9 3 .3 6.2.4 9.2 1.2C102 85 107.8 92.9 115.7 97c6 3.6 11.7 3.6 18.4 3.5q3 0 5.9 1 3.7 2 7.5 3h32.7" class="b"/><path d="M11.8 93.9c3.4.1 7 0 10-1.4 7.6-3.8 13.8-11 22.7-12 2.7-.3 5.6.2 8.4.5q4.2.3 8.3-.2c5.7-.6 11-3.1 16.8-2.8 2 .1 3.9 1 5.9 1 13 .6 15.7 2.6 26 10.2 7.7 5.6 13.2 6.5 22.5 5.5 2.8-.2 5.9 0 8.4 1.3 3 1.5 6 3.2 9.2 4.1h30.2" class="b"/><path d="M11.8 87.9c3 0 6.3.2 9.2-.7 7.5-3 12.8-9.8 20.1-13 4.3-2 8.1-1.9 12.6-1q5.8.9 11.7 1.1c4 .2 8 .2 11.8 1 2.8.5 5.5 1.9 8.3 2.2 4.5.8 9.1 1.4 13.5 3 4.6 1.5 8.9 4 13.4 6q6 2.7 12.5 2.7c3.4 0 6.8-.4 10-.1q4.1.3 7.6 2.5l6.7 3.3c1.5 1 3.4.6 5 .7h26" class="b"/><path d="M11.8 82.7c3.3.2 6.8.7 10 0C31.5 79.6 37.3 69.4 47 67c3.6-.7 7.3.4 10.9.8q7.6 1.1 15 3 5.3 1.6 10.1 4a71 71 0 0 0 8.4 3c7.1 2.1 14.5 3.2 21.8 4.7 5 .8 10 .6 15 .8q6.7.2 12.6 3l10 4.6q1.8.2 3.4 0h26" class="b"/><path d="M11.8 79c8.2 1 11.1 2.8 18.4-2.4 3.8-2.7 7.2-6 11-8.6 3.2-2.5 6.6-4.2 10.8-3.6 10.6.1 19.1.6 28.5 6.2 4.4 2.5 8.6 5.7 13.4 7.4a29 29 0 0 0 14.2.8c4.8-.4 9.5-1.2 14.3-1.4a35 35 0 0 1 14.2 3c5 2.1 10 4.5 15.1 6h28.5" class="b"/><path d="M11.8 77q3 .3 5.9 1.1c2.1.6 4.4 1.3 6.7.9 5.9-.9 10.5-5.2 15-8.7 2.8-2.2 5.7-4.6 9.3-5.3q1.7-.2 3.3-.2 2.6-.1 5-.7a32 32 0 0 1 16.8-.3C85.3 66.8 91 81 104 77.3c5-1.6 9.9-3.6 15-4.8 7.5-1.7 13.7 1.6 20.1 4.8q4.1 1.8 8.4 3c2 .6 4 1.4 5.9 1.6h26.8" class="b"/><path d="M11.8 75.4q3.9.6 7.5 2h10C33.2 77.2 40 71 43.7 69q2.7-1.7 5.9-2.3 3.5 0 6.7-1.3c7-3 14.1-7.1 21.8-3.5 3.9 1.7 6.9 5 10 7.7 6.3 5.7 11.5 7.4 19.3 3.2 10.6-4.8 16.2-8.7 27.6-2.8 6.3 3.4 13.4 4.9 20.1 7.1 1 .4 2.4.2 3.4.3h21.8" class="b"/><path d="M11.8 72.7c5.8.3 11.8 0 17.6.1h8.4l2.5-1.2c2.4-1.3 4.8-2.7 7.5-3.4q1.6-.3 3.4-.4 2.2-.2 4.1-1.2c5.6-2.6 10.5-7.1 16.8-8 13-2 17.9 16.9 31.9 12.1q4.2-1.6 8.3-3.4 4.1-2.1 8.4-3.6a22 22 0 0 1 16 1.6c3.4 1.5 7.2 2.3 10.8 3.5q6 2 11.7 4h21" class="b"/><path d="M11.8 67.8c2 0 4 .6 5.9.5H46l2.5-.3q1.8-.2 3.4-.3c7.5-2.1 12.6-9 20.1-11 12-3.3 17.4 12.8 30.2 11.4 2.2-.2 4.5-1 6.7-1.6q2.5-.7 5-1.8c3.8-1.6 7.6-3.6 11.7-4.2 4.6-.8 9.1.4 13.4 1.6l8.4 1.9a341 341 0 0 1 17.6 4.2h15" class="b"/><path d="M11.8 61.8q3 0 5.9 1l2.5 1h34.3c1.2 0 2.4-.8 3.4-1.4l3.3-2.2c4-2.6 8-5.5 12.6-6.4 4.2-.9 8.3 1 11.7 3.4 3.3 2.1 6.5 4.5 10 6 1.9.9 4 .4 6 .5 14 0 9 .7 21.7-4.4q6.1-2.3 12.6-1.4 6.2 1 12.6 1.4c5.5.2 11.2-.2 16.7.5q4.4.4 8.4 2.3l3.4 1.6h3.3" class="b"/><path d="M11.8 55.7q3.5.3 6.7 1.5c1.7.6 3.3 1.7 5 2h30.2c2-.3 4-1.7 5.8-2.6 5.7-3.2 11.7-7.3 18.5-6.4 3 .4 5.8 1.9 8.4 3.3q4.8 3.1 10 5.4 1.2.5 2.5.3h19.3l6.7-3q6.4-2.6 13.4-2.2 6.8.7 13.4-1c13.4-3.6 16-4.8 28.5 2.6" class="b"/><path d="M11.8 50.4q3.5.6 6.7 1.8c2.2.8 4.4 2 6.7 2.4h10.9c2.2 0 4.6.3 6.7-.3q2.9-.8 5.9-1.3 3.3-.2 6.7-1.3c5.5-2 10.8-5.1 16.7-6 7.7-1.4 14.4 3.3 21 6.4q2.8 1.6 5.8 2.5h21.8c2.5-1 5-2.5 7.5-3.5q4.5-2 9.3-2.4c2.4-.3 5 0 7.5-.6 3.8-.9 7.4-2.6 10.9-4.3 11.8-5.7 13.2-3.7 24.3 1.5" class="b"/><path d="M11.8 46.4c4 .7 7.8 2.4 11.7 3.6q3.3.1 6.7 0c2.3 0 4.6.3 6.7-.6 3.4-1 6.7-2.5 10-3.4 2.5-.6 5.2-.4 7.6-1.2 5-1.3 10-3.7 15.1-4.6 9.1-2 16.5 3.2 24.3 7q3.3 1.7 6.7 2.9h19.3c.8.1 1.8-.5 2.5-1l4.2-2.5a38 38 0 0 1 10-4.3c2.7-.8 5.7-.7 8.4-1.5q5.7-2 10.9-5c4.3-2.1 9.3-4.7 14.2-3.1q5 2.3 10 4.2" class="b"/><path d="M11.8 42q5.1.6 10 2.2c7.1 1.6 13.9-1.7 20.2-4.6q3.1-1.5 6.7-2 3.4 0 6.7-.7c5.3-1.2 10.4-3.4 15.9-3.8 9.4-1 17.1 5.5 25.1 9.4q3.3 1.7 6.7 3h18.5l7.5-5q4-2.7 8.4-4.6c1.8-.9 4-1.3 5.8-2 3.5-1.3 6.8-3.3 10-5 4.9-2.6 10.5-5.3 16-3.5q2.2.8 4.2 2l6.7 2.9" class="b"/><path d="M11.8 36.6c3.4-.5 6.7 0 10 .3 5.7.4 11-2.2 16-4.6 3.2-1.5 6.5-3.2 10-3.6q2.2 0 4.2.1 3 0 5.9-.5c6.3-1.1 12.8-3.4 19.2-2.2 4.3 1 8 3.2 11.8 5.3q7.4 4.7 15 9c1.2.8 2.9.5 4.2.5H124c6.3-3.3 11.2-8.8 17.6-12 8.2-4.6 16.5-14.5 26.8-10q2.7 1.1 5 2.8 3.3 1.9 6.8 3.4" class="b"/><path d="M11.8 30.7q3.2-1.2 6.7-1.6 3.4.2 6.7-.7c6.1-1.8 11.5-5.5 17.6-7.3q3-1 5.9-.7 2.9.5 5.8.7c4.8.1 9.5-1 14.2-1.6a24 24 0 0 1 10.1.4c6 2.1 11.5 5.7 16.8 9.3l7.5 5.2c1.3.7 2.6 2.2 4.2 2q10.8.2 21.8 0 4.7-4 9.2-8.4 2.9-2.4 5.8-5c4.7-4.3 9.2-10.2 16-11 4.8-.3 8.9 2.7 12.5 5.4q3.7 2.7 7.6 4.7" class="b"/><path d="M11.8 25.3q3.1-2 6.7-3 3-.4 5.9-1.4c5.4-2 10.3-5.3 15.9-7q5.4-1.5 10.9.1 5 1.2 10 .9c13.2-1.3 14.5-3.4 26.8 3.6q7.2 4.2 13.4 9.3c2 1.3 3.8 3.1 5.9 4h18.4c2.5 0 5.1.3 7.6 0 2-2 4-4.4 5.8-6.4q3.1-3.1 5.9-6.4c4.5-5.3 10.5-13.8 18.4-10.1 2.8 1.2 5.2 3.4 7.6 5.3q4.3 3.7 9.2 6.7" class="b"/></svg>