<svg xmlns="http://www.w3.org/2000/svg" id="a" width="1920" height="2400" viewBox="0 0 192 240"><defs><style>.b{fill:none;stroke:#fff;stroke-miterlimit:10;stroke-width:.4px}</style></defs><path d="M0 0h192v240H0z" style="stroke-width:0"/><path d="M8 229.3h84c1.3.1 2.4-.9 3.6-1.3q3-1.1 6-1.6c3.6-.4 7.2-.4 10.6-1 4.3-.6 8.5 1.3 12.3 3.2 1.5 1 3.5.6 5.2.7H177c1-.4 2-1.6 2.7-2.3q2-2.2 4.4-4.2" class="b"/><path d="M8 224.5h84c1.6-.2 3-1.4 4.4-1.9q3-1.2 6.2-1.9l7.8-1.3c4.6-1.4 9.3.5 13.2 2.7l3.5 2.1q1.2.5 2.6.3h42.9c1.7-.5 3-2 4.4-3q3.4-3.1 7-6" class="b"/><path d="M8 219.7h87.5c1.5 0 3-1 4.4-1.4q3.5-1.2 7-2.1l6.2-1.7c4.6-.8 9.2 1 13.1 3.2l3.5 2h35.1c3.6-1.6 7-4 10.5-5.9 3-1.8 5.7-4 8.7-5.5" class="b"/><path d="M8 215h97.2q4-1.7 7.9-3.2c7-2.6 13.1-.8 19.3 3q1.7.3 3.5.2h22.8c1.5-.4 3-1.6 4.3-2.4q4-2.5 8-4.9 2.9-1.7 6-2.7 3.5-1.5 7-2.6" class="b"/><path d="M8 210.2h104.2c1.5-.2 3-1.3 4.4-1.9q3.4-1.7 7-2 4.1-.3 7.9 1.4c1.8.7 3.4 2 5.2 2.5H156c3.5-1.5 6.5-4 9.7-6 2.4-1.6 5-3.3 7.9-4.1q5.2-1.1 10.5-1.6" class="b"/><path d="M8 202.8q2.2 1.1 4.3 2.6 4.4.2 8.8 0h95.5c2.3-1.1 4.5-2.8 7-3.6s5.4-.8 7.9 0q3.2 1.2 6.1 3c1.3.9 3 .7 4.4.7h13.1c3.2-1 6-3.2 8.8-4.8 8.6-5.4 10.5-4.5 20.1-4.2" class="b"/><path d="M8 193.7c3.9 1.5 7.3 4.3 11.3 5.6 10.4 2.8 20.2-6.3 29.8 1.4h68.4c1.2-.4 2.3-1.4 3.5-2 3.1-1.8 7-2.5 10.5-1.3 2.4.7 4.7 2.1 7 3.3h20.1l6.2-3c8-4.3 10.7-3 19.2-2.3" class="b"/><path d="M8 186.6c6.1 1 10 4.3 16.6 3 7.2-1 15-4.3 21.9-.3 3.3 2 6.3 4.7 9.6 6.7h62.2q1.8-.8 3.5-1.6 3.4-1.4 7-.8 2.3.5 4.4 1.5.9.5 1.8.8h28c1.5-.4 3-1.4 4.4-2 5.8-3 10.5-2 16.6-1" class="b"/><path d="M8 182q3-.4 6-.4 3.1.3 6.2-.1c3.9-.8 7.6-2.6 11.4-3.6 9-2.7 14.3.4 21 6 4.2 3.2 8.7 6.7 14 7.3h52.7c1.9-.6 4-1.4 6-1.3q2.3 0 4.4.7 1.7.8 3.5.6h33.3A19 19 0 0 1 184 189" class="b"/><path d="M8 179.3q3-1.6 6-2.7c2.4-.7 5-1.3 7-2.5 7.3-4.1 14.4-9.5 22.9-5.3 3.9 1.8 7.1 4.9 10.5 7.6 6.7 5.6 12.1 8 21 7.6q3.1-.2 6.1.7c1.5.4 3 1.4 4.4 1.7h32.4c2-.5 4-1.2 6.2-1.1q2.7 0 5.2 1.1h36.8c.8 0 2 .1 2.6-.3a16 16 0 0 1 15-2" class="b"/><path d="M8 177.4q3-2.5 6-4.5 4.3-2.2 8-5.4c8-6.8 14.5-12 24.5-5 7.3 5 13.4 13 22.8 14 3.4.5 7 0 10.5.6s6.6 2.7 9.6 4.4c2.9.4 5.9 0 8.8.2H114c1.8.1 3.5-1.2 5.2-1.6 5.2-1.6 8.4-.3 13.2 1.6h38.5a17 17 0 0 1 13.2-2.5" class="b"/><path d="m8 175 6-5.6q4.3-3.1 8-6.8c7.7-8 14-13.5 24.5-5.8 7.8 5.4 14.2 13.7 24.5 13.5 3.8 0 7.8-.6 11.4.8q4 1.7 7.9 4c1.6.8 3.4 2 5.3 1.8h14.9l2.6-1.3c7.8-4 13.3-4.7 21 0q1.3.7 2.7 1.3h37.6c1.2.1 2.4-.6 3.5-.9q3-.8 6.2-.8" class="b"/><path d="M8 171q3.4-3.3 7-6.6a94 94 0 0 0 7.8-7.4c8.3-8.3 14.4-11 24.6-3.6 8.5 6.1 14 12 25.4 10.8a20 20 0 0 1 13.1 2.3c12.7 7 17.6 7.3 30.7.7 8.6-4.1 14.2-1.9 21.9 2.8l4.4 2.2H184" class="b"/><path d="M8 165.8q5.6-6 12.2-10.9c5-4 10.8-8.5 17.5-8 7.1.6 12.7 5.7 19.3 8q5.5 2 11.4 2c4.4.2 9-.2 13.1 1.6 4 1.7 7.5 4.3 11.4 6.1 10.5 5.2 18.6.6 28-4a18 18 0 0 1 16.7 1.1c3.5 1.9 7.2 3.5 10.5 5.7h36" class="b"/><path d="M8 160a48 48 0 0 1 31.5-14.7q3.5 0 7 .9 4.2 1.3 8.8 1.7c9.3.5 18.9-.4 27.1 5.1 3.8 2.5 7.3 5.4 11.4 7.3 4.3 2.2 9.3 2.8 14 1.8q4.2-.6 8-2.2c11.5-6.4 16-8.3 28-.8l5.2 3.4q2.2.2 4.4.1H184" class="b"/><path d="M8 154c9.8-9.4 16-7 28-10.2q4.4-1.4 8.7-2.1c2-.4 4.2 0 6.2-.3 3.8-.5 7.5-1.8 11.4-2 11.3-1 19.5 8.4 28 14.4q4.4 3.2 9.6 4.1 6.2.2 12.3-.3c8.7-1.9 14.5-9.6 24.5-5.8 3.6 1.3 6.6 3.8 9.7 5.8 1.6.6 3.5.2 5.2.3h32.5" class="b"/><path d="M8 148.5a22 22 0 0 1 11.3-5c3.2-.2 6.5.1 9.7-.3 4-.5 7.8-2.4 11.4-4.4q3-1.6 6-3 3.3-.5 6.2-1.7c8.3-4 13.5-5 21 1.1q6.2 5.4 12.3 10.8c5 4.3 10.8 7.7 17.5 7.1l9.7-.2c2.7-.3 5.3-1.5 7.9-2.4 8-3.4 14.1-2.8 21 2.6h42" class="b"/><path d="M8 143.2c3.1-1.7 6.8-3 10.5-3.1 2.5 0 5.2.4 7.8.3q4.8-.1 8.8-2.6c3.7-2.1 6.8-5.1 10.5-7.2 1.6-.9 3.6-1.2 5.3-2 2.3-1 4.6-2.4 7-3.3 7.6-3 13.5 2.5 18.4 7.6 4.3 4.3 8.7 9 14 12.2q5.7 3.2 12.3 2.7 3.5-.4 7-.7c2.3.1 4.7.3 7-.3 5.4-1.2 11.3-2.6 16.6-.4 1.5.5 3 1.6 4.4 2h46.5" class="b"/><path d="M8 138.9q5.1-1.6 10.5-2.2 3.8.1 7.8 0c7-.5 12.1-5.5 17.6-9.2 1.8-1.4 4-2 6-2.8q2.7-1.2 5.4-2.5c6.3-3.1 11.5-1.8 16.6 2.8 8.1 7.1 16 18.4 28 17.8 3 0 5.9-.7 8.8-1 1.7-.1 3.6.2 5.3.1 3.7-.1 7.6-1 11.4-.6q3.6.5 7 2c1.3.6 3 .2 4.3.3h47.4" class="b"/><path d="m8 135.6 6-1q2.7-.7 5.3-1.3c4.1-.5 8.4-.5 12.3-2 6.2-2 11.2-7 17.5-8.7 4.4-1.7 8.4-4.8 13.2-5 6.5 0 11.2 5.3 15.7 9.3 5.5 4.7 11.1 10 18.4 11.4 4 .7 8.2 0 12.3-.3 2 0 4.1.3 6.1.1 3.2-.1 6.5-.5 9.7-.1q2.2.3 4.3.9h55.3" class="b"/><path d="M8 132.6q3-.2 6-1.1c2.4-.9 4.7-2.1 7-2.6 3.5-.8 7.1-1.2 10.6-2q5-1.1 9.6-3l5.3-2q2.7-.7 5.2-2c4.6-2.4 9.6-5.5 15-4 4.7 1.3 8.4 4.8 12.2 7.7 6.5 4.7 13.4 10.8 22 10.5H184" class="b"/><path d="M8 129.3q3.6-.4 7-2.1 3-2 6-3.2c5.7-2 11.8-1.7 17.6-2.3 4.1-.4 8.5-1 12.3-2.8 6.6-3.5 12.4-7.8 20.1-4 6.7 3.4 12.5 8.3 19.3 11.5a31 31 0 0 0 9.6 2.9h19.3q3-.2 6.1-.2c2.6.4 5.3.2 8 .2H184" class="b"/><path d="M8 124.6h2.6c2.2-.5 4.3-2 6.1-3.4q4.3-3.2 9.6-3.8c6.5-.7 12.9 1.8 19.3 1 7.3-1 12.6-7.7 20.2-7.5 4.8 0 9 2.8 13.1 5 6.4 3.1 13 6.6 20.2 7q4.7.2 9.6.2c2 0 4.1.4 6.1.2 5.2-.6 10.6-2 15.8-.4q2.3.8 4.4 1.7H184" class="b"/><path d="M8 119.8h3.4q2.4-1.2 4.4-2.6 3.5-3 8-4c8.1-2.1 16.3 3.1 24.4 1 4.9-1.7 9-5.1 14-6.2 6-1.5 11.5 1.7 16.7 4 5 2 10.3 3.7 15.8 3.6 4.4 0 8.7-1.2 13.1-1.5 2.6-.2 5.3.4 8 0 10-1.3 15.3-.7 23.6 5.7H184" class="b"/><path d="M8 115h5.2c1.3.2 2.5-.8 3.5-1.4l4.4-2.2a26 26 0 0 1 8.7-1.7c5.9-.3 11.7 1.4 17.6.7 7.4-1.3 12.7-5.6 21-4 3.3.7 6.5 2 9.6 3 5.4 2 11.4 1.7 16.7-.4 4.7-1.7 9-4.5 14-5.4q3-.2 6.1.1 5 .1 9.7 1.3c4 1.2 7.9 3.4 11.4 5.8l3.5 2.6q1.1 1 2.6 1.7h42" class="b"/><path d="M8 110.3h8.7c1.8 0 3.6.2 5.3-.6 7.4-2.8 14.9-3.2 22.7-2.3 4.7.5 9.4-.2 14-.7q5.8-.6 11.5 0c3.7.5 7.5 1.5 11.3 1.6 9 0 15.6-7 22.8-11.4q2.9-1.7 6.2-2.3c4.9-.1 9.7 1.6 14 4 6.4 3.4 11.7 8.7 18.4 11.7H184" class="b"/><path d="M8 105.6h21c2 0 4-1 6.1-1.1q4.9-.6 9.6.4c3.1 1 6.5.6 9.7.6h27.2c4.9-.3 9.2-3.3 13-6.1 5-3.5 11.2-10.4 17.6-10.1 9.3 1 17 10.9 25.4 14.8q1.7.8 3.5 1.3 2.2.2 4.4.2h38.6" class="b"/><path d="M8 100.8h77c6.8-2 12.4-6.6 18.4-10.2 7-4.3 11-3.7 17.6 1 4.5 3.1 8.7 7.2 14 9.2H184" class="b"/><path d="M8 96h52.5q11.9.1 23.7 0c6.6-1.2 13-3.6 19.3-6 5.4-2 9.6-3 14.9.3q3 1.9 6 4c1.1.5 2.3 1.6 3.6 1.8h18.4c1.8.1 3.5-.8 5.2-1q3.5-.6 7-.2c2.4.2 4.7 1.2 7 1.2h18.5" class="b"/><path d="M8 88.6q3 0 6 1.2c1.5.4 3 1.5 4.5 1.5H78c2 0 4.1-.9 6.2-1q4.7-.3 9.6-.5c6.1-.2 12.3-1.7 18.4-1.4q2.7.3 5.3 1.5c1 .4 2.3 1.4 3.5 1.4h26.3c.4 0 1.3-.2 1.7-.5l2.6-1q3-1.2 6.2-1.6c4.6-.7 9.3.4 14 .4q2.6-.2 5.2-.6 3.6-.4 7-.6M8 81.6c3.6-.2 7.1 1 10.5 2.3q4.7 1.4 9.6 2.6h50.8a22 22 0 0 1 7-1.2c3.6 0 7 .9 10.5 1.2h52.7l.8-.5 3.5-1.7A30 30 0 0 1 163 82c3.2-.2 6.5 0 9.7-.3q5.6-1.2 11.4-1.8" class="b"/><path d="M8 76.6c5.3 0 10.5 1.7 15.7 3q1.8.5 3.5 1.3 1.7 1 3.5.9h49.9q3-1.2 6.2-1.1 3.5.2 7 1h56.1c1.9.3 3.5-1.2 5.2-1.8q3.8-1.5 8-2c3.4-.6 7-.5 10.4-1.1q5.3-1.4 10.5-2.8" class="b"/><path d="M8 74q3.8.7 7.8 1.1 3.1.2 6.2.6l3.5.7c.8.2 1.7.7 2.6.6h54.3l1.8-.7A17 17 0 0 1 92 76c1.7.3 3.4 1.2 5.2 1H156c2.6-.6 5.3-1.4 8-1.6 10-.8 10.8-1 20-5.3" class="b"/><path d="M8 72.3h73.5c1.3.1 2.4-1 3.5-1.3q2.2-.9 4.4-1.2 4-.5 8 .7l2.5 1q1.3.8 2.7.8h68.3q2.6 0 5.3-.2 4-2.1 7.9-4.8" class="b"/><path d="M8 67.5h71.8c.4 0 1.3 0 1.7-.2l1.8-1.1q2.4-1.7 5.2-2.8c4-1.5 8.4-1.3 12.3.3q2.7 1 5.3 2.5c1 .4 2.2 1.5 3.5 1.3h70.1c1.5-.8 3-2.2 4.4-3.3" class="b"/><path d="M8 62.8h70c1-.3 1.9-1.2 2.7-1.7l3.5-2.4a19 19 0 0 1 17.5-1.7q6.2 2.7 12.3 5.8h58.7c2.6-.2 5.3.2 7.9-.2q1.7-1.5 3.5-3" class="b"/><path d="M8 58h67.4c6.4-6.1 14-9.5 22.8-6.9 5 1.5 10 3.9 14.9 5.7.8.3 1.8 1 2.6 1.2h59.6c5.6.1 4.3.2 8.8-3.1" class="b"/><path d="M8 53.2h58.6c8.6 0 5 1 11.4-4 6-4.5 13.5-3.4 20.2-1.2 4.6 1.4 9.2 3 14 4 1.4.3 3 1.2 4.4 1.2h55.2c7.4 0 5.8.9 12.2-3.4" class="b"/><path d="M8 48.5h63.9c1.3-.4 2.4-1.7 3.5-2.4 6.6-5 12-3.6 19.3-1.3q5.2 1.6 10.5 2.5c3.7.6 7.6.7 11.4 1.1h50.8c2.3 0 4.7.3 7 0 3.5-.5 6.6-2.4 9.6-4" class="b"/><path d="M8 43.7h63.9c1.3.2 2.5-.7 3.5-1.3a28 28 0 0 1 4.4-1.8c6-1.7 12.3 2 18.4 2.7q5.6.7 11.4.1 5.3-.2 10.5-1 3 0 6.1.3c1.4.2 3 1 4.4 1h37.7q2.5-1.2 5.2-1.7l3.5-.5q3.7-1 7-2.7" class="b"/><path d="M8 39h68.3q4.3-1.7 8.8-1.3c4.9.6 9.9 1.7 14.9 1.2 3.8-.4 7.5-1.5 11.3-2 8.1-1 12.8-3.6 21 0l4.4 2h23.7c1.4 0 3 .3 4.4-.2q3-1.6 6.1-2.6c2-.7 4.1-.7 6.1-1q3.7-1 7-2.4" class="b"/><path d="M8 34.2h79.7c3.2-.1 6.5.3 9.6-.2 3.6-.7 7-2 10.5-3 2.6-.7 5.4-.7 8-1.5 7.6-2.2 12.9-2.2 20 1.6l4.4 2.2q1.7.9 3.6.9h16.6c1.5.1 3-.6 4.4-1q3-1.3 6.1-2.1c2-.6 4.1-.6 6.1-1q3.7-.8 7-2" class="b"/><path d="M8 29.5h79.7c2.6-.1 5.3.2 7.9-.4 4.2-.8 8.1-2.6 12.2-3.8 2.6-.8 5.4-.7 8-1.6 7.4-2.5 12.7-3.4 20 .4 4.3 2 8.5 4.5 13.2 5.4h8.8q3.1.2 6.1-.5 4.3-1.4 8.8-2.1l4.3-.4q3.7-.6 7-1.5" class="b"/><path d="M8 24.7h57.8c6.1.1 12.2-1.5 18.4-1.2 8.9.6 13.5-.3 21.9-3q3-.9 6.1-1.2 2.7-.4 5.3-1.3c7.6-3 13-3.1 20.1 1 4 2.2 8 4.6 12.3 5.7H163c3 0 5.9-1.4 8.8-1.7q2.6-.3 5.2-.3 3.7-.2 7-.8" class="b"/><path d="m8 20 3.4-.1q2.9-1.6 6.2-1.5c6.7-.2 13.4-1.2 20.1-1q4 0 8 .9 2.5.8 5.2 1.1c7.4.8 14.6-2 21.9-3.1a44 44 0 0 1 9.6-.8c3.8.3 7.6 1.1 11.4 1.1 6.5.1 12.8-2.3 19.3-2.5 8.4-2 13-5.8 21.9-1.2 3.6 1.8 6.9 4.5 10.5 6.3 1.5 1 3.5.7 5.3.7h9.6c2 0 4.2.3 6.1-.3q3.5-1.2 7-1.6h10.6" class="b"/></svg>