<svg xmlns="http://www.w3.org/2000/svg" id="a" width="1920" height="2400" viewBox="0 0 192 240"><defs><style>.b{fill:none;stroke:#fff;stroke-miterlimit:10;stroke-width:.4px}</style></defs><path d="M0 0h192v240H0z" style="stroke-width:0"/><path d="M8 228.4a44 44 0 0 1 7.8-5.7c2.7-1.2 5.2-2.8 8-4 11-5.1 18.2 5.7 25.3 12.2.8.6 1.7 1.5 2.6 1.7H72c2-.2 4-1.2 6.1-1.6q6.2-.7 11.4-3.6c6-3 12.6-9.6 19.3-10q2.3.1 4.4 1.2 3 1.4 6.1 3.1 7.5 4.6 14.9 9.5 1.1 1 2.6 1.4H184" class="b"/><path d="M8 220.3q3.5-3.5 7.8-5.7c2.9-1.2 5.8-2.5 8.8-3 10.8-1.8 17.2 9.2 24.5 15.2l1.8 1h22.8c8.9 1 16-4.9 22.7-9.9 3.7-2.6 7.6-5.6 12.3-5.7q2.3.1 4.4 1.2 3.1 1.4 6.1 3.2 7.1 4.4 14 9.3l2.7 1.8c1.6.4 3.5 0 5.2.2H184" class="b"/><path d="M8 212.2q3-3.1 7-5c5-1.9 10.9-2.2 15.7.4 7.5 3.7 12.4 10.8 19.3 15.3 1 .4 2.4.2 3.5.2h21.9c10 .8 21.6-16.8 33.3-15.2 3.8.7 7.2 3 10.5 4.9q7.1 4.5 14 9.4c.9 1 2.4 1 3.5 1H184" class="b"/><path d="M8 206.3c2-1.7 4.3-3.4 7-4.2 7.6-1.6 15 2.5 21 6.8q4.7 3.7 9.6 7c1.6.8 3.5 2.2 5.3 2.5h25.4c6.9-3 11.9-9.1 18.4-12.8 8-4.7 14.4-2.8 21.9 1.7q8.6 5 16.6 11 25.6.1 50.8 0" class="b"/><path d="M8 203.4c6-4.3 10.1-3.2 16.6-.7 8.3 3.4 15.8 8.8 24.5 11h25.4c1.4-.1 2.5-1.3 3.5-2q2.3-1.6 4.4-3.6c5.9-5.3 12.3-13 21-11.3 5 1 9.6 3.7 14 6.1a223 223 0 0 1 16.7 10.7h50" class="b"/><path d="M8 202.7c2.4-1 5.2-1.7 7.8-1.2 4.5 1 8.8 3.2 13.2 4.7 4 1.3 8 2.8 12.2 2.6H72c3.4.2 3.5-.2 6.1-2.2 7-5.3 12.4-16 22-16.6 4 0 7.7 2.1 11.3 3.8a164 164 0 0 1 25.4 14.8c1.7.5 3.6.2 5.3.2h42" class="b"/><path d="M8 201.9q4-.5 7.8.6c1.8.4 3.5 1.6 5.3 1.6h55.2c1.4-.2 2.4-1.5 3.5-2.3 7.3-6.3 13.2-19.3 24.5-17.1q3.2.8 6.2 2 5.3 2 10.5 4.3a76 76 0 0 1 17.5 10.2c3.4 2.9 2.2 3 7 2.9H184" class="b"/><path d="M8 199.3h69.2c1 0 2.4.2 3.5-.2 6.9-6.3 12.3-18.4 22.7-19 3-.1 6 .9 8.8 1.5l9.6 2.5a44 44 0 0 1 17.6 9c2.2 1.8 4 4.3 6 6.2H184" class="b"/><path d="M8 194.6h74.4c7.6-7.6 13.6-20 26.3-17.8 8.5 1.4 17.7.2 25.4 4.7 3.7 2 7 5.1 9.6 8.4l3.5 4.2c1 .8 2.4.4 3.5.5H184" class="b"/><path d="M8 189.8h74.4c6.4-5.8 11.6-14.8 21-16 3.8-.4 7.7.4 11.4 0 10.5-1.6 17.4-2 25.4 6q2.8 3 5.3 6.2c1 1.2 2.1 3 3.5 3.8h35" class="b"/><path d="M8 185h71.8c1-.3 1.9-1.3 2.6-1.9 5.6-5.1 11.2-11.8 19.3-12.4 2.9-.3 5.9.2 8.7.1 6-.2 11.6-3.4 17.6-2.7 5.7.5 10.4 4.4 14 8.7l4.4 5.5c.7.9 1.6 2.3 2.6 2.8h35" class="b"/><path d="M8 180.3h54.3c7 0 13.6.8 19.2-4.5 5.4-4.4 11-10 18.4-10 3 0 5.9.7 8.8 1 5.5.3 10.4-3 15.8-3.6 11-1.6 17.8 9.3 23.6 17 1.7.3 3.6 0 5.3.1H184" class="b"/><path d="M8 175.6h56q2.7-.8 5.3-1.3 7-1.2 12.2-5.7c5.3-4.4 11.2-9.4 18.4-9 2.7.2 5.3.8 8 1 5.4.7 10.3-2.6 15.7-3.2 11.5-1.5 18.6 9.8 24.5 17.9 1.6.5 3.6.1 5.3.3H184" class="b"/><path d="M8 170.8h57.8q1.2-.6 2.6-1c4.3-1.7 8.7-3.7 12.3-6.7 5.2-4.2 11.3-8.4 18.4-8.3 2.9 0 5.8.5 8.7.5s5.4-1.2 7.9-2.2c3-1.1 6.3-2.1 9.6-1.8 9.8 1 16.9 12.7 22.8 19.5h36" class="b"/><path d="M8 166h57.8a6 6 0 0 0 3.5-.6q6.6-3 12.2-7.5a29 29 0 0 1 15-5.8c4.9-.5 10.2.3 14.8-2q3-1.8 6.2-3.3c9-4.3 15.4 2 21 8.4l6.1 7c1.1 1.2 2 3 3.5 3.8h36" class="b"/><path d="M8 161.3h59.5q1.8.1 3.5-.2 1.9-.8 3.5-1.8c4.4-2.5 8.2-6 13.2-7.3 7.1-2.2 15.2-.2 21.9-4 4-2.5 7.5-6.4 12.2-7.6 7.2-1.7 12.4 5.1 16.7 9.9 3 3.6 6.7 7 9.6 10.7 1.6.6 3.6.1 5.3.3H184" class="b"/><path d="M8 156.5h65.7l1.7-.8c3-1.5 5.6-3.8 8.8-4.7 6.2-2 13-.2 19.2-1.9 6.3-1.4 10-7.2 15-11 8.2-6.7 14.4-.3 20 6 2.2 2.5 4.8 4.6 7 6.9 1.8 1.7 3.5 4 5.3 5.5h25.4c1.2.2 2.4-.6 3.5-.8q2.2-.4 4.4-.2" class="b"/><path d="M8 151.8H49q2.6-1 5.3-.8t5.3.8h8.7c6.7 0 6.4.3 12.3-3 3-1.6 6.4-1.8 9.6-1.5 13 1.6 16.9.6 25.4-9.6 3.5-3.8 8.3-8.8 14-7 4.3 1.4 7.3 4.9 10.6 7.8 1.5 1.5 3.6 2.8 5.2 4.3q3.9 4 7.9 8c.5.7 1.7 1.1 2.6 1h14l1-.2.8-.6 2.6-2c2.6-2.3 6.3-3 9.7-2.2" class="b"/><path d="M8 147h35.9c1.7-1 3.3-2.7 5.2-3.4 5.3-2 10.7.7 15.8 1.9q5.2 1.5 10.5.4c2.4-.5 4.6-1.9 7-2.5 6.7-1.5 13.5 1.9 20.2.7 11.5-1.6 15-16.7 26.3-18.7 4.2-.4 8 2.3 11.4 4.5q2.2 1.4 4.3 2.8 2.9 2.3 5.3 5c6 6.4 12.2 12.5 21 6.5 4.5-3 7.2-6.2 13.1-5.2" class="b"/><path d="M8 142.3H42c2-1.6 3.8-3.7 6.1-4.9 6-3.3 12.6-.3 18.4 1.5q4.8 1.5 9.7 1.5c2.6 0 5.2-1 7.9-1 3.8-.2 7.6.4 11.4.7 17.5 1.6 19.6-10.7 32.4-17.5 3.8-2 8.2-1.8 12.2-.6 1.8.6 3.8 1 5.3 2.1 7.8 5.5 15.2 19.2 26.3 12.4 4-2.7 6.9-5.6 12.2-5.6" class="b"/><path d="M8 137.5h33.3c6-6.6 11.9-10.1 21-7.6 4.4 1.1 8.6 3.2 13.1 4.3 4.3 1.1 8.8.7 13.1 1 8 .3 16.4.5 23.7-3.1 3.7-1.9 7.1-4.5 10.5-7 6.3-4.5 13.8-9.6 22-8.2 9 3.2 15.2 16.9 26.2 12.6 2.2-.9 4.1-2.6 6.1-4a19 19 0 0 1 7-3" class="b"/><path d="M8 132.8h31.5c2.5-2 4.5-4.6 7-6.4 6-4.7 13-6.4 20.2-3.4 5 1.8 9.5 5.2 14.8 6.3 8.4 1.5 17 .5 25.4-.3 7.1-.8 14.1-2.8 20.2-6.6 5-2.9 9.4-6.7 14.9-8.5 7.2-2.5 14.5 7 21.9 8.4 8.9 2.2 12.5-6.1 20.1-8.2" class="b"/><path d="M8 128h28.9c.6 0 1.4-.7 1.7-1.1 4.5-4.5 9.1-9 15-11.8 6.9-3.5 13-1.4 19.2 2.6 2.5 1.6 5 3.4 7.9 4.6 6.6 2.5 14 1.5 21 1.6H113c4 .3 8.3.6 12.2-.8 4.2-1.4 7.9-4 11.4-6.6 2.9-2 6-4.3 9.7-4.3 8.5 0 15.7 6.4 24.5 2.3 4.6-2.2 8-6.7 13.1-8" class="b"/><path d="M8 123.2h26.2c5.6-4.7 10.3-10.6 16.7-14.3 6-4 12-4.8 18.4-1 8.2 5 10.7 8.5 21 9.5q11 1.2 21.9 2c4.3.6 8.7 2.1 13.1 1.4 7.4-1 12.5-7.2 19.3-9.3 3.7-1 7.6-.5 11.4-.4 4.8.4 9.7 0 14-2.3 5-2.4 8.5-7.2 14-8.3" class="b"/><path d="M8 118.5h17.5c2-.1 4.2.2 6.1-.2a55 55 0 0 0 6.1-5c7.6-7.4 17.3-18.5 29-13.6 5.5 2.3 10 6.7 15.7 8.4 4 1.2 8.2 1.7 12.3 2.5L106 113q3.4.7 7 1 3.5 1 7 2.2c4.6 1.5 9.6 1.4 14-.6 3.8-1.6 7.4-4 11.4-5 6-1.6 12.4-2 18.4-4q5.2-1.7 9.6-4.6c3.3-2.1 6.6-4.6 10.6-5.1" class="b"/><path d="M8 113.7h21.9q3.8-2 7-4.9c8.3-7.5 17-19.4 29.8-14.4 4.8 1.8 9 5.1 14 6.4 3.7 1 7.6 1 11.4 1.7q5.3 1 10.5 2.9 3.4 1.2 7 2.2 2.7.3 5.2 1.2c4.9 2 9.6 5 15 4.9 4 0 7.7-1.7 11.3-3.2q7-2.3 14-5 8.4-3 16.7-6c4-1.7 7.9-4 12.2-4.5" class="b"/><path d="M8 109h21.9c3.5 0 8.8-5.4 11.4-7.8 9-9.5 15.8-15 28.9-8.7 3.3 1.4 6.7 3.3 10.5 3.6 2.9.2 5.8-.1 8.7 0q6 .1 11.4 2.5 3.9 1.7 7.9 3.4c2.3.8 4.9 1 7 2.2 4.2 2 8.3 5.2 13.2 4.8l6-.1 5.3-1.8q3.1-1 6.2-2.1c4-1.8 8-4 12.2-5.5 4.8-1.9 10-2.6 15-3.4 3.4-.6 6.9-1.6 10.4-1.8" class="b"/><path d="M8 104.2h24.4c2.1.2 3-.3 4.5-1.5 5.3-4 9-10 14.9-13.3 8.5-4.7 16.3 1.2 24.5 3.4 2.9.8 5.9.3 8.8-.3 11.3-2.7 15 1.6 24.5 6q2.2.7 4.4 1.4c2.6 1.1 5.2 2.6 7.8 3.6 2.2 1 4.7.7 7 .7h4.4q4-1.4 8-3.1c7.2-2 13.3-7.3 21-8 3.7-.6 7.6.1 11.3.5 3.5.3 7 0 10.5 0" class="b"/><path d="M8 99.5h29.7c9-7 13-17.5 26.3-12.6 5.2 1.8 10.2 5.3 15.8 4.7 4.7-.7 9.2-3.2 14-2.6 5.7.5 10.1 4.4 14.9 7 1.9 1.1 4.2 1.6 6.1 2.5q1.3.6 2.7 1h11.3c1.4-.2 3.2.3 4.4-.5 3-1.4 5.8-3.3 8.8-4.6 4-1.2 7.6-3.5 11.4-5 6.5-3 12-1.8 18.4.5 4 1.3 8.1 1.6 12.2 2.1" class="b"/><path d="M8 94.7q1.7.1 3.5-.6a11 11 0 0 1 7.8.6h19.3c8-5.8 12-15.3 23.7-11.1 5.3 1.7 10 5.5 15.7 6 2.7 0 5.3-1 8-1.6q4.2-1.3 8.7-.4c3.2.7 6 2.5 8.7 4.3l2.7 1.8c.7.6 1.7 1.2 2.6 1H128c2 0 4.1.2 6.1-.2 2.5-1.8 5-3.9 7.9-5.2 3.6-1.3 7-3.3 10.5-4.9 7-3.3 12.4-2 19.3.7 4 1.3 8.2 2.1 12.2 3.4" class="b"/><path d="M8 88.3c6.7-3 8.9-.8 14.9 1.7h10.5c5.1 0 4.6.4 8.7-2.9C48.5 81.8 53.3 77 62.3 80c6.2 1.8 11.6 7 18.4 6.7 3.1-.2 6.4-.6 9.6-.3q3.1.3 6.1 1.6c1.5.5 3 1.5 4.4 2h32.4c2.6-2 5-4.4 8-6 1.2-.7 2.9-1.1 4.3-1.7 4-1.8 8-4 12.2-4.8 4.8-1 9.6.3 14 1.7l5.3 1.5q3.7 1.2 7 3" class="b"/><path d="M8 81.5c3.1-1 6.6-.9 9.6.6q3.4 1.7 7 3.1h14.1l5.2-3c5.4-3.6 11.7-7 18.4-5.5 5.6 1 10.4 4.5 15.7 6.2q3.1.8 6.2 1.4c1.4.2 3 .8 4.4.9h36.7c2.6-.1 5.4.2 8-.2l3.4-2.8q2.4-2 5.3-3.1 2.2-.8 4.4-1.5 4.7-2.1 9.6-3.6a32 32 0 0 1 15.8-.2q2.7.4 5.2 1.2 3.8 1.5 7 3.9" class="b"/><path d="M8 76c4-.3 7.8 1.1 11.4 3q1.6.8 3.5 1.4H43c1.2.2 2.4-.4 3.5-.8l6.1-2.6c8-3.6 14.1-3.5 22 .3 2.2 1 4.6 2.3 7 3.1H134c.5-.1 1.4-.6 1.8-.9q3-1.7 6-3c7-1.6 13.3-4.9 20.2-6.3q7-1.3 14-.2a24 24 0 0 1 8 4.3" class="b"/><path d="M8 71.8q3.2.9 6 2.3c1.5.5 2.9 1.7 4.5 1.6h35c1.4 0 3.1.2 4.4-.7 5.6-3.2 11.5-4.3 17.5-1.4l3.5 1.9c2.3.4 4.7 0 7 .2h56c11.2-1.7 21-9.7 32.5-9.4 3.5.1 6.7 2 9.6 3.8" class="b"/><path d="M8 68.7c1.4.6 2.8 1.8 4.3 2.2h50.8q1.5 0 2.7-.6 2.1-.9 4.4-1c2.4-.1 4.7.9 7 1.6h73.6c1 0 2.4.2 3.5-.2l6-3.2c9-4.5 14.3-6.5 23.7-1.7" class="b"/><path d="M8 66c2 .4 4 0 6 .2h122.7q9.3 0 18.4-.1 4.3-2.7 8.8-5c7.6-4 12.2-3.6 20.1-.6" class="b"/><path d="M8 61.4h142.7c3.6-2 7-4.7 10.6-6.7 8.8-4.9 13.6-4.3 22.7-.7" class="b"/><path d="M8 56.7h136.6l.9-.2.9-.6 2.6-2.1q3-2.5 6.1-4.7c6-4.6 13.5-7.5 21-5 2.8.8 5.4 2.2 8 3.4" class="b"/><path d="M8 51.9h131.4c5.7-3.6 10.2-9 15.7-12.8 6.8-5 13.5-5.1 21-2q4.2 2.3 8 4.8" class="b"/><path d="M8 44.4c1.3 1 2.8 2.2 4.3 2.7h120.1c1.1 0 2.5.1 3.5-.8a59 59 0 0 0 7.8-6c4-3.7 7.6-7.8 12.3-10.4 5.4-3.3 11.2-2.3 16.6.4 4.4 1.5 7.8 4.7 11.4 7.5" class="b"/><path d="M8 36.3c3 1.9 6.1 3.8 9.6 4.7 1.4.4 2.9 1.5 4.4 1.4h110.4c.9 0 1.8-.9 2.6-1.4q4.2-2.6 7.9-6c3.6-3.3 7-7.1 11.4-9.6 5.5-3.4 11.2-2.2 16.6 1q3.1 1.5 6.1 3.4 3.6 2.9 7 5.7" class="b"/><path d="m8 27.5 6 2.9q2.8.9 5.4 1.9 4.5 2.2 8.7 5c1 .5 2.4.3 3.5.3h100.7q2.3-1.4 4.4-2.9c5.8-3.8 10.2-9.8 16.7-12.5 6.2-2.7 12.3.7 17.5 4.2q3.1 1.8 6.1 3.6 3.6 2.4 7 5" class="b"/><path d="M8 19q5.8 1.7 11.4 4.1c4 2 7.6 4.7 11.3 7l4.4 2.5c2.3.5 4.7.1 7 .3h89.4l.9-.2.8-.7 2.7-2 7.8-6.6C156 12.8 163 22 173.6 28.6l5.3 2.6q1.6 1 3.5 1.7h1.7" class="b"/><path d="M8 12c7.9.7 14.3 5.8 21 9.6a38 38 0 0 0 15.8 5.6c4.3.2 8.7-.7 13-.3q3.3.1 6.2 1.2h67.5c.5 0 1.4-.6 1.7-1l3.5-3.2c3.6-3 6.9-7 11.4-8.6 10.8-3.4 17.5 8.7 26.3 12.4 1.3.6 3 .4 4.4.4h5.2" class="b"/><path d="M8 7.4c5.5-.4 9.4 2.6 14 5.3 5.1 3 10.7 5.7 16.6 6.8 5.8 1.1 11.8.6 17.5 1.5q4 .7 8 2.4h60.4c2.5-.1 5.3.2 7.8-.2 11.8-11.5 16.2-19 31.6-6.4 3 2.3 6 5 9.6 6.5q5.3.2 10.5 0" class="b"/></svg>