<svg xmlns="http://www.w3.org/2000/svg" id="a" width="1920" height="2400" viewBox="0 0 192 240"><defs><style>.b{fill:none;stroke:#fff;stroke-miterlimit:10;stroke-width:.4px}</style></defs><path d="M0 0h192v240H0z" style="stroke-width:0"/><path d="M8.3 222.9q3.4-1.2 7-1c1.7.2 3.5.7 5.2.7a47 47 0 0 0 11.4-1c4.6-.8 9.3-1.8 14-1.1 2.2.4 4.6 1.2 7 1.4 6 .7 12.4.7 18.2 2.8q2.3.8 4.4 1.8c2 .5 4.1.2 6.1.3h89.9q1.2-.4 2.6-.5 4.8-.1 9.6 0" class="b"/><path d="M8.3 213.4c2.4-1 5.2-1.9 7.9-1.5q5.2 1.2 10.4 1.5c8 .6 16 .5 23.6 2.7 5.5 1.2 11.2 1.6 16.6 3.6q2.7 1 5.2 2.3h95.1a24 24 0 0 1 5.3-2c3.7-.8 7.6-.3 11.3-.2" class="b"/><path d="M8.3 203.9c3.9-1.6 7.4-1.6 11.4-.4q5.6 1.3 11.3 3.1 8.2 2.6 16.6 4.8c3.1.7 6.4 1 9.6 1.7q6.3 1.2 12.2 4.2H160q4.5.2 8.8-.1 1.6-.7 3.5-1c3.7-.6 7.5-.5 11.3-.8" class="b"/><path d="M8.3 196.3C22.2 194 33.8 204 46.7 207c5.5 1.2 11.3.8 16.6 2.8 2.1.6 4 2 6 2.7h109.2c1.7-.1 3.6.2 5.2-.3" class="b"/><path d="M8.3 191.2c6.2 1.1 12.4 2.1 18.3 4.3 7.3 2.5 14.2 6.2 21.8 7.3 3 .3 5.9 0 8.8.2q4.6.3 8.7 2c1.8.7 3.5 1.9 5.2 2.8h112.6" class="b"/><path d="M8.3 188.1q3.4 1.6 7 2.8 4.3.9 8.7 1.8c5.9 1 11.7 2.5 17.5 3.7 3.7.8 7.5 1.5 11.3 1.1 8.5-1 14 .2 21 5.3 1.6.6 3.5.2 5.2.3h104.7" class="b"/><path d="M8.3 185.3q3.4 2.1 7 3.6c5.6 1.8 11.6 1.8 17.4 2l11.4.8c2.9.3 5.8.8 8.7.4a27 27 0 0 1 21.8 4.7c1 .7 2.2 1.8 3.5 1.5h105.6" class="b"/><path d="M8.3 183.3c2.7 2 5.5 4.1 8.7 5a28 28 0 0 0 13.1-.6c4.6-1 9.3-2 14-1.8 2.6 0 5.2.8 7.8.7 5.6-.2 11.2-1 16.6.7 4.3 1.2 8.3 3.4 12.2 5.5a5 5 0 0 0 3.5.8h99.5" class="b"/><path d="M8.3 181c2.9 2.4 6 5 9.6 5.8 3.9.7 7.8-.8 11.4-2.2 4.4-1.7 9-3.6 14-3.5q3.4.2 6.9 1 3 .6 6.1.5c4.3 0 8.8-.4 13 0q9.4.8 17.5 5.1l2.7 1.2h7.8c2.6-.1 5.3.2 7.9-.2l4.3-1.8a17 17 0 0 1 14.9.8c.7.4 1.7 1.1 2.6 1.2h44.5q2.2-.2 4.4-.7 3.8-.5 7.8-.6" class="b"/><path d="M8.3 177.2c3 2.2 6 4.6 9.6 5.5 4 .7 7.8-1 11.4-2.3a30 30 0 0 1 12.2-2.5c3.6.1 7 1.9 10.4 2.7 8.5 2 17-.9 25.3-1.3 6.8-.6 12.6 4 19.2 4 14.3-.2 17-12.2 32.3.8H168a5 5 0 0 0 2.6-.6l3.5-1.2c3.1-.7 6.4-.6 9.6-.7" class="b"/><path d="M8.3 171.6c9.8 5.6 11.1 5 21.8 3.5a26 26 0 0 1 10.5.9q4 1.3 7.8 3.3 6 .1 12.3.1 5.2.1 10.4-.1 3-1.1 6.1-2 3.5-1.2 7-.5c5.2.9 10.5 2.5 15.7 1.2 4.4-1 8.2-3.3 12.3-5 7.8-3.1 13.3 2 19.2 6.4H167c1.2.1 2.4-.5 3.5-.9q1.7-.7 3.5-1c3.1-.9 6.4-.8 9.6-1" class="b"/><path d="M8.3 165q5.2 1.6 10.5 2.8c4 .7 8.3.7 12.2 2q3.1.8 6.1 2.5c1.5.7 2.8 1.9 4.4 2.4H79q10.5 0 21-.1c4.2-1.4 8-4 12.1-5.9 5.7-2.7 11.5-1.5 16.6 1.9 2.1 1.2 4 3 6.1 4h32.3c3-.4 5.8-1.5 8.8-2q3.8-.6 7.8-1" class="b"/><path d="M8.3 159.1c4.8-.2 9.4 1.1 14 2.1a39 39 0 0 1 16.6 8.7h61.9c1.1 0 2.5.3 3.5-.5 3.4-1.8 6.8-3.9 10.5-5.1a20 20 0 0 1 15.7.9c3.5 1.5 6.8 3.7 10.4 4.7H161q3 0 6.1-.3 4.9-.8 9.6-2l7-1" class="b"/><path d="M8.3 154.1c4.2-1 8.2-.3 12.2 1a48 48 0 0 1 17.5 10q22.6.2 45.4 0h20c1.8-.2 3.5-1.4 5.3-2q3.8-1.5 7.8-2.5c6-1.8 12.4-1.5 18.3.6q3.5 1.2 7 2l8.7 2h23.6q4.7-1.7 9.6-3.2" class="b"/><path d="M8.3 150.2q5.8-1.8 11.4.4c6.6 2.1 12.5 6 18.3 9.9h63.6l5.3-1.6c3.4-.7 7-.7 10.5-1.4 7.3-1.6 14.5-2 21.8 0q4.5 1.2 8.7 3h28.8l7-4" class="b"/><path d="M8.3 147c4-1.3 7.5-1 11.4.4q5.7 2.1 11.3 4.7l7.8 3.5q2.2.1 4.4.1h50.6c2.2.3 4-1 6.1-1.5a24 24 0 0 1 9.6-.2c8.1 1.9 16.3-1.3 24.4-.8q3.7.2 7 1.3c1.4.5 2.9 1.4 4.4 1.2h30.5l7.9-6.2" class="b"/><path d="M8.3 144.3c4.5-1.8 7.8-1.3 12.2.3q5.7 2 11.4 3.6a93 93 0 0 0 11.3 2.2c2 .2 4.1.7 6.1.6h41c5.8-3.8 11-4.6 17.5-2 2.5.9 5 2.2 7.8 2h9.6q4-.6 7.9-.8 3 0 6 .8h33.2l1-.2.8-.7 2.6-2q3.6-3.4 7-6.9" class="b"/><path d="M8.3 140.8c2.2-1 4.6-1.9 7-1.8 3.6.3 7 1.6 10.5 2.5q5.2 1.5 10.4 2c4.4.5 8.8.3 13.1 1q1.8.3 3.5 1c.8.3 1.8.9 2.6.7h31.4c1.6-.4 3-1.6 4.4-2.2 5-2.6 10-2.2 14.8.3 1.7.6 3.4 2 5.3 2h10.4l48.9-.1q3-3 6.1-5.6 3.5-3.7 7-7.3" class="b"/><path d="M8.3 136.6c2.3-1.6 5-3 7.9-3 5.3.4 10.4 2 15.7 3q5.6 1 11.3 1.4c3.9.3 7.8.8 11.3 2.4q1.8.8 3.5 1.1h28c3.8-1.6 7.9-3.4 12.2-2.8q3.6.6 7 2.2c1.2.8 2.9.6 4.3.6H169c2-1.6 3.9-3.8 6-5.4 3.2-2.6 5.9-5.8 8.8-8.6" class="b"/><path d="M8.3 132.4c2.3-1.6 5-3 7.9-3.3q6.5-.2 13 .5c8.6.8 17.4 1.2 25.4 4.5q4.2 1.6 8.7 2.6 7.4.1 14.8 0h5.3c3.4-.5 6.9-1.5 10.4-1.6q3.6 0 7 1c1.7.8 3.5.7 5.2.7H169l7.8-6.3q3.6-3.2 7-6.6" class="b"/><path d="M8.3 128.1q2.9-1.7 6.1-2.6 3.5-.7 7-1.3a55 55 0 0 1 20-1.4c5.3.8 10 3.2 14.9 5.1q5 2 10.5 2.2c3.4.1 7-.3 10.4 0q2.3.4 4.4 1 3 .4 6.1.4 4.8.1 9.6.5h73.3q7.1-4 13-9.6" class="b"/><path d="M8.3 123.6c4.1-2 9-2.1 13.1-4 8.5-3.9 16-7.9 25.3-3.7 6 2.8 11.6 6.7 18.3 7.4 3.8.5 7.6.1 11.4.8 3 .6 5.7 2.4 8.7 3 2.2.4 4.7.1 7 .2h82c1.6.2 3-1.2 4.4-2q2.6-1.7 5.2-3.6" class="b"/><path d="M8.3 118.9c3.1-1 6.5-1.3 9.6-2.4 8-3.4 15-12 24.4-10 3.2.6 6 2.3 8.8 4q4.1 3 8.7 5c5.2 2.4 11.1 2 16.6 3.4 2.5.7 4.6 2.4 7 3.3 1.3.6 3 .2 4.3.3h91.6q2.3-1.1 4.4-2.5" class="b"/><path d="M8.3 114c3.1-1.1 6.6-1.3 9.6-2.6 7.6-3.5 13.6-11.8 22.7-11.4 7.1.6 12.1 6.6 18.3 9.5q4.1 2.1 8.8 3c2.8.6 5.9.8 8.7 1.8 2.2.6 4 2 6 3 1.4.8 3 .4 4.5.5h57.5q3-.3 6.2-.4 3 0 6 .4h21q3-1 6.1-2.6" class="b"/><path d="M8.3 109.7c3.7-1.3 7.9-1.6 11.4-3.5 6.6-3.5 12.9-9.4 20.9-9.1 7.6.3 13.4 6.2 20 9.2 5.5 2.9 11.9 3.4 17.5 5.8l1.8 1H139c5.3-.4 10.5-1.6 15.8-1.5 5.8-.2 11.7 1.4 17.5.4q2.2-.6 4.3-1.3 3.5-1 7-1.8" class="b"/><path d="M8.3 106.6c3.8-1.1 7.8-1.6 11.4-3.2 13.9-6.5 21.8-11.3 36.6-3q6.8 3.7 14 6.3c1.7.5 3.4 1.5 5.2 1.6h26.2q4.7-1 9.6-1.4c3.2-.2 6.4.9 9.6 1.4h20.9c2.6 0 5.3.3 7.9-.3q10-2.4 20-3.5c2.4-.2 4.7-.9 7-1.2s4.7 0 7 0" class="b"/><path d="M8.3 103.6c4.2.3 8.3-1 12.2-2.2q8.3-2.7 16.6-5a29 29 0 0 1 24.4 2.2l7.9 3.5 3.5 1.5h21.8q1.8.1 3.5-.4c6.4-2 13.4-3.1 20-1.5l8 1.9h26.1l1.7-.7c7-2.9 14.2-5.7 21.9-6q4 .5 7.8 1.9" class="b"/><path d="M8.3 98.9h18.3c2.4 0 4.8-1.1 7-1.8 5-1.7 9.8-4 14.8-5.5a21 21 0 0 1 11.4.7q5.8 2 11.3 4.4c2 .8 4 2 6.1 2.2h11.4c3 .2 5.8-1 8.7-1.5q5.7-1.1 11.3-1 7.5.1 14.9 1.4l7 1h21.8c2.7-.6 5.2-2.3 7.8-3.4 4.1-1.9 8.5-3.5 13.1-3.5 3.8-.2 7.2 1.8 10.5 3.3" class="b"/><path d="M8.3 94.1h24.4c5.3.1 4.3.3 8.8-2.4 7.4-4.7 12.8-7.1 21.8-5 5.9 1.2 11.4 4 17.4 4.6 5 .4 10-.6 14.9-.2 5.6.2 11 2 16.5 2.4 7.3.4 14.6-.6 21.9-.6q3.8 0 7.8.8c2 .6 4.1.4 6.1.4 8.6-1.4 16.3-7.3 25.3-6.2 3.9.4 7.1 2.9 10.5 4.6" class="b"/><path d="M8.3 89.4h31.4c1.3-.4 2.4-1.6 3.5-2.3a31 31 0 0 1 24.5-6.8c3.7.5 7.5 1.4 11.3 1.8 4.4.2 8.8.3 13 1.5q4.5 1.3 8.8 3.4c2 .8 4 2.4 6.1 2.4h15.8c6.4-2.2 13-6 20-4.7 7.2 1.7 14.5-1 21.8-1q5.8 0 11.4 1.9 2.2 1 4.3 2.4c1 .5 2.3 1.6 3.5 1.4" class="b"/><path d="M8.3 84.7h33.2c1.4.2 2.5-1.1 3.5-1.9q2-1.7 4.3-3.2A31 31 0 0 1 66 73.8c3.8 0 7.6.7 11.3 1.2 3.5.4 7.1.4 10.5 1.5q5.1 1.6 9.6 4.4c2 1.2 4 3 6.1 3.8h20C129 80.8 135 73.8 141.9 74q5.3 1 10.5 1.5 9.9 1.3 19.2 5.6 3.6 1.4 7 3.4c1.6.3 3.5 0 5.2.2" class="b"/><path d="M8.3 80H39c2.2-.2 4.7.2 7-.3q1.6-1.5 3.4-2.9C56.6 71 63.2 66.8 73 69q4.3 1.1 8.7 1.6 5 .6 9.6 2.7 4.1 1.9 7.9 4.4c1.3.8 2.7 2.4 4.3 2.2h13.1q3.5.2 7-.1c4.6-4.4 8.5-9.8 14-13.2 3.1-2 5.3-1.2 8.7-.5 4.4.7 9 1.8 13 3.7 6 2.7 11 6.8 16.6 10 2.6.3 5.3 0 7.9.1" class="b"/><path d="M8.3 75.2h40.2c6.5-5.7 13-13.3 22.6-10.9q3.6 1 7 2 2.7.7 5.3 1a56 56 0 0 1 19.2 7l1.7.8h18.3c5.3-4.2 9.1-10 14.9-13.7 3.2-2 5.2-1.2 8.7-.7a41 41 0 0 1 14 3.8c5.4 2.7 10 6.9 14.8 10.4 1 .5 2.4.2 3.5.3h5.2" class="b"/><path d="M8.3 70.4h41.9c1-.4 1.9-1.6 2.6-2.3l4.4-4.2c6.5-5.7 11.6-5.3 19.2-2 5.2 2.1 11 2 16.5 2.9q6.3.9 12.3 3 3 1.4 6 2.6h4.4q2.6.2 5.3 0 3.2-1.8 6-4c4.8-3.3 10.3-9.6 16.7-8.1 3.1.5 6.4.2 9.6.3q5 .1 9.6 2.2c4.9 2.3 9 6 13 9.4 1.1.4 2.5.2 3.5.3h4.4" class="b"/><path d="M8.3 65.7c14.1-.1 28.8.2 42.8-.1 5-5.5 10.8-13.3 19.2-11.4 2.7.6 5.2 1.9 7.8 2.8q3 1 6.1 1.3c6.7.4 13.5-.5 20.1 1.3 8.4 2.1 10.3 6.5 20 3.3 5.9-1.8 11.2-6.2 17.5-5.9q3.5.8 7 .1c3.4-.6 7-1.7 10.5-1.5 7.4 0 13 5.5 18.3 10.1h6.1" class="b"/><path d="M8.3 61h41c5.9-5.5 11-14.3 20-13.8 3.1.2 6 1.4 8.8 2.3q3.9 1.1 7.9 1.2c8.3 0 16.7-.4 24.4 3.4 8 4.5 15 3 23.6 1.2q3.3-.7 7-.5 1.6.1 3.4.6 1.8 0 3.5-.3c7.4-1.8 13.5-5.3 21-1.3a38 38 0 0 1 8.7 6.8q1.2.6 2.6.4h3.5" class="b"/><path d="M8.3 54.5 11 56c2 .5 4.1.1 6.1.2h29.7c1 0 1.9-1 2.6-1.6 8.6-7.6 14.3-16.1 27-12.4 8.3 2.4 17 .5 25.4 1.7a38 38 0 0 1 11.3 3.5q4.7 1.8 9.6 2.6c5.5.8 11.1.4 16.6 1.3q2.6.5 5.2 1.3c4.2.6 8.3-1.2 12.3-2.1 3.6-1 7.7-1.3 11.3 0q3.4 1 6.1 3.2c1.1.8 2.2 2 3.5 2.5h6.1" class="b"/><path d="m8.3 48.5 7 2.8c1.4.3 3 .1 4.4.2H44q1.4.1 2.6-.5c4.2-2 7.6-5.3 11.3-8a25 25 0 0 1 21.8-5.4c11.2 1 22.6-2.2 33.2 2.6 7 2.5 14.6 3.3 21.8 5q3.1.7 6.1 1.8c2.2 1 4.6 2 7 2 5.6.2 11-1.7 16.6-1.2q3.7.4 7 1.9c1.4.5 2.7 2 4.3 1.8h7.9" class="b"/><path d="m8.3 44.5 8.7 2.2q7.5.1 14.9 0h16.5l2.7-1c8.2-4.4 15.4-11.4 25.3-11.8 4.3 0 8.7.2 13-.3 6.1-.4 12.3-1.5 18.4-.5 2.6.3 5.2 1.4 7.8 1.9 7 1.4 14.3 1.7 21 4.2 3 1 5.8 2.7 8.7 4a37 37 0 0 0 12.2 2.2q5.8.1 11.4 1.4h14.8" class="b"/><path d="M8.3 42h48c1.2-.3 2.4-1.3 3.5-1.9q3.4-2.2 7-4.3c4-2.3 8.4-4.1 13-4.1 8.6 0 16.9-2.4 25.4-2.8 3.2-.2 6.4.9 9.6 1.3q5.2.4 10.4.5c5.5.2 11 1.5 15.7 4.3q7.3 4.9 15.7 7h27.1" class="b"/><path d="M8.3 37.3h47.1q4 .1 7.9-.1l3.5-2.4c10.4-6.9 12.5-4.2 23.5-6.3 7.5-1.4 15.1-4 22.7-2 6 .8 12.3-.6 18.3.5q4.5 1 8.8 3.2c2.6 1.6 5.1 3.6 7.8 5q2.1 1.4 4.4 2h31.4" class="b"/><path d="M8.3 32.5H66l2.6-1.6q3-1.8 6.1-3.1c4.2-1.8 8.8-1.7 13.1-2.3 6.4-.7 12.8-2 19.2-1.7 3 0 5.8 1 8.8 1 3.7.1 7.5-.2 11.3 0 5.6.2 11.2 2.2 15.7 5.5q1.6 1.2 3.5 2.2h37.5" class="b"/><path d="M8.3 27.8h59.4c4.3-2.4 9-4.7 13.9-5.7 10.4-2.1 21-.2 31.4 1.1 5.8.5 11.7-.1 17.5 1a33 33 0 0 1 9.6 3.4q1.2.3 2.6.2h41" class="b"/><path d="M8.3 23h41.9q10 .1 20 0 5.3-2.2 10.5-4.3c6.2-2.3 13-1.8 19.2-.3 3.8.8 7.5 2 11.4 2.3 4.6.4 9.3.2 14 .7q4.4.6 8.7 1.7h49.7" class="b"/><path d="M8.3 18.3h67.2c3-1 5.7-2.8 8.7-3.8 5.6-2 11.8-1.4 17.5.2q3.8 1 7.8 1.7c4.4.3 8.8.2 13.1.7q4 .4 7.9 1.2h53.2" class="b"/></svg>