<svg xmlns="http://www.w3.org/2000/svg" id="a" width="1920" height="2400" viewBox="0 0 192 240"><defs><style>.b{fill:none;stroke:#fff;stroke-miterlimit:10;stroke-width:.4px}</style></defs><path d="M0 0h192v240H0z" style="stroke-width:0"/><path d="M9.8 227.3c11.7-1.7 14.1-2.4 24 5H106c3.8-.8 7.4-2.5 11.1-3.6a17 17 0 0 1 11.2.3c2 .8 4 2.2 6 3.2h48" class="b"/><path d="m9.8 224.7 6.9-.3a19 19 0 0 1 13.7 2.9c1 .5 2.3.2 3.4.3h85.8q2.5-.6 5.1-.7t5.2.7h52.3M9.8 222.5q5.2.6 10.3.4h162.1M9.8 218.3h172.4M9.8 213.6h172.4M9.8 209h172.4M9.8 204.3h24c1.4 0 3 .2 4.3-.4 4.9-1.8 10.5-3.6 15.4-1.1q1.7.8 3.5 1.5h31.7c1.5.1 3-1 4.3-1.5a20 20 0 0 1 5.1-1.3c4.7-.5 9.2 1.3 13.8 1.8l3.4 1h66.9M9.8 199.6h28.3q3.3-1.5 6.9-2.8c2.7-.9 5.8-1 8.5 0q3 1.3 6 2.8h29.2a32 32 0 0 1 20.6-4.4c1 0 2.4-.2 3.4 0 2.4.2 4.8 1.3 6.9 2.4 1.6.6 3.3 2.2 5.1 2h57.5" class="b"/><path d="M9.8 195h28.3c1.4-.1 3 .2 4.3-.3q2.5-1.3 5.1-2.1 3.9-1.3 7.8 0 3 1 6 2.3 5.1.1 10.3 0H87c.8 0 1.9.2 2.6-.3q8.2-3.7 17.1-5c5.2-1 7.3-2.7 12.9-1 3.6 1.1 7 3 10.3 4.6l3.4 1.7q2.2.2 4.3 0h44.6" class="b"/><path d="M9.8 190.3h36c1.5-.2 2.9-1.3 4.3-1.6 3.7-1.1 7.6 0 11.2 1.2 1.5.7 3.4.3 5.1.4h24.9c6.7-1.4 13.8-2.5 19.7-6.1a17 17 0 0 1 17.2-1q4.5 2.3 8.6 5l2.5 1.6.9.5h38.6c1 0 2.5.3 3.4-.5" class="b"/><path d="M9.8 185.7h36l4.3-.1a13 13 0 0 1 6-1.1q2.2 0 4.3.7 1.3.5 2.6.5h39.4c1.1 0 2.5.2 3.5-.4 4.2-2 7.1-5.8 11.1-8 4.8-3 10-2.6 14.6.3 4.2 2.4 7.6 6.2 12 8H178q1.4.1 2.6-.1l1.7-.8" class="b"/><path d="M9.8 181H51c1.4 0 2.8-.7 4.3-.7 2-.2 4 .5 6 .7H99c3.7-.1 7.5.2 11.2-.1 8-8.3 14-14.6 24.8-5.7 2.6 2 5 4.3 7.8 5.8H177c1.6 0 3.6.3 5.1-.5" class="b"/><path d="M9.8 176.3H51q2-.7 4.3-.7c1.7 0 3.4.8 5.1.7H112c9.7-9.9 15-10.7 25.7-1.5 1.7 1.5 2 1.6 4.3 1.5h40.3" class="b"/><path d="M9.8 171.7h40.3c1.7 0 3.4-.7 5.2-.5 2.8.7 5.7.5 8.5.5h43.8c8.4 0 4.4.7 11.1-3.5 3.6-2.2 8.2-2.6 12-1 2.8 1 5.3 2.8 7.8 4.3 1.6.4 3.4.1 5.1.2h38.6" class="b"/><path d="M9.8 167h100.4c1.3 0 3 .2 4.2-.1q2.5-1.6 5.2-2.7 5.8-2.3 12-.7c3.3.9 6.3 2.4 9.5 3.5h41.1" class="b"/><path d="M9.8 162.4h99.5q2.6-1.4 5.1-2.5c5.7-2.3 12-2.5 18-1.5q6 1 12 2.7c1.8.3 3.5 1.3 5.2 1.3h31.8l.8-.6" class="b"/><path d="M9.8 157.7h72c1.2 0 2.5.2 3.5-.6a34 34 0 0 1 18-4.4q3 0 6-.7 2.5-1 5.2-1.4c6.3-.8 12.6 1.1 18.8 2 5.2.7 10.4 1 15.5 2.4 2.8.8 5.7 2 8.5 2.7h18.1c2.4-1.2 4.6-3.3 6.8-5" class="b"/><path d="M9.8 153q33.9.1 67.8 0c3.2-2 6-4.8 9.4-6.8 6.9-4.5 12.7-4.8 20.6-5.1 1.7 0 3.5-.6 5.1-.8 2.7-.2 5.3.6 7.8 1.6 6.6 2.7 13.3 6 20.6 6.5l13.7 1.5c4.8.6 9.7 1.4 14.6.4 4.7-1 8.7-4.1 12.8-6.5" class="b"/><path d="M9.8 148.4h62.6q2.8-1.2 5.2-2.8c9.7-7.4 15-13.8 28.3-14 2.8 0 5.7-.9 8.5-.2 3.8 1 7.1 3.5 10.3 5.6 4 2.8 8.2 5.5 13 6.9 6.6 2 13.7.6 20.5-.4q6.5-1 12.9-2.8c3.7-1.3 7.3-3.2 11.1-4.4" class="b"/><path d="M9.8 143.7h61.8c1.5-.1 2.9-1.4 4.3-2q3.5-2.3 6.8-5.1c6.7-5.7 14-12 23.2-12.4 3.4-.2 7.2-.4 10.3 1.4 6.8 4 12.3 10 19.7 12.9 8.7 3.6 14.9.8 23.1-2a148 148 0 0 1 23.2-6" class="b"/><path d="M9.8 139h62.6q1 .1 1.7-.5l3.5-2q4.5-2.8 8.6-6.2c5.8-4.8 11.8-10.5 19.7-11.2 6.1-.6 10.7 2.4 15.4 5.8 4 2.9 8.2 5.7 12.9 7.4 11.4 4 14.2 1.8 24.9-2 7.3-2.7 15.3-4 23.1-3.2" class="b"/><path d="M9.8 134.4h63.5q2.2-1 4.3-2 3-1.4 6-3.3c4-3 7.8-6.4 12-9.3 6-4.2 12.1-5.6 18.8-1.8 5 2.7 10 6 15.5 7.4 3 1 6.3 1.2 9.4 1.6 2.6.4 5.2 1 7.7.6 5-.7 9.7-2.4 14.6-3q10.5-1.3 20.6.8" class="b"/><path d="M9.8 129.8h61.8c1.4-.3 2.9-1.3 4.3-1.8q3-1.2 6-2.3c3.7-1.7 7-4.4 10.2-6.8 5.1-3.6 11.6-7.5 18-5 7.4 3.4 13 7.2 21.5 6.8 3.4 0 6.9-.6 10.3-.1 6 1 12-.6 18-.2 3.7.1 7.5.9 11.1 1.5q5.7 1 11.2 2.3" class="b"/><path d="M9.8 125.1h57.5c2.6-1 5-2.5 7.7-3.4 2.5-1 5.2-1.4 7.7-2.4q4.4-2.1 8.6-4.8c5-3 11-6.1 17.2-4.4 2.7.8 5.1 2.4 7.7 3.5 4.5 2.2 9.5 3.4 14.6 2.8 2.8-.2 5.7-.9 8.5-1 1.7-.2 3.5.2 5.2.2 4.8.2 9.7-.4 14.6.2q5.5.9 11.1 2.4 6 1.3 12 2.8" class="b"/><path d="M9.8 120.5h50.6c1.9.1 3.5-1.3 5.2-2a70 70 0 0 1 7.7-3.1q4.2-1.4 8.6-2.2 4-1.2 7.7-2.6c6.5-2.5 13.6-5.1 20.6-3 5.6 2 11 4.8 17.1 5.3 4 .5 8 0 12-.2h5.2q3.4-.1 6.9-.5 9-1 18 .6 6.5.7 12.8 2" class="b"/><path d="M9.8 115.8h45.5c4.3-1.3 8.5-3.2 12.8-4.6q6.3-2 12.9-2.8 7.7-.7 15.4-1.8c5.1-.6 10.4-1.4 15.5-.7 7.8 1.1 15.3 4 23.1 4.6q5.2.5 10.3 0c4.6-.4 9.2-1.5 13.8-2.1q11.5-1.6 23.1-1.2" class="b"/><path d="M9.8 111.1h24.9c5.4 0 10.9.3 16.3-.3 4.6-.5 9.1-1.9 13.7-3q6.8-1.5 13.7-2.1c6.9-.9 13.7 1.9 20.6 1 4.4-.3 8.6-1.7 12.9-2.5q4.6-.7 9.4 0c6.1.7 11.9 3.3 18 4 7.9.4 15.6-1.9 23.2-3.9q9.7-2.7 19.7-4.7" class="b"/><path d="M9.8 106.5h42.9c7.1-.7 14.2-2 21.4-2.1q3.9-.3 7.8-.1c2.6.4 5.1 1.4 7.7 2.2h13.7c2.7-.5 5.2-2.2 7.7-3.3a23 23 0 0 1 18-1.8c4.5 1.2 9 3.6 13.7 3 5.5-.4 11-.7 16.3-2.2 5.3-1.4 10.4-3.6 15.5-5.4 2.5-1.1 5-2.6 7.7-3.6" class="b"/><path d="M9.8 101.8h98.6q1.4.1 2.6-.3 4.4-3.2 9.5-4.9c6.7-2.2 12.4 1.2 18.8 2.4q2.2.3 4.3 0h4.3c9.2.6 15.5 0 24-4 3.8-1.4 6.8-4.2 10.3-6.1" class="b"/><path d="M9.8 97.2H111c.8 0 2 0 2.6-.5 3.4-2.3 7-4.5 11.1-5.3 4.6-1 9.2.4 13.8 1 2 .3 4 0 6 0 2.8 0 5.7.7 8.5 1.3a29 29 0 0 0 21.5-2c2.7-1.5 5.1-3.6 7.7-5.3" class="b"/><path d="M9.8 92.5h36.9q3-.5 6-.5c2.2 0 4.6.6 6.8.5h56.7c1.7-.6 3.4-1.8 5.1-2.5q4-1.8 8.6-2.6c3-.5 6.3-.5 9.4-.8q2.6-.3 5.2-.7 3.5 0 6.8.8c7.5 1.8 15.7 4.7 23.2 1.3 2.7-1.3 5.2-3.2 7.7-4.7" class="b"/><path d="M9.8 87.4c2.8.7 5.7.4 8.6.4H44c2.5-.6 5.1-1.4 7.7-1.4q4 .2 7.8 1.4h62.6q3.5-1 6.8-2.2 5.2-1.8 10.3-3.3 4.5-1.6 9.5-1.7c8-.3 15.8 4.1 24 2.9 3.3-.7 6.4-2.3 9.4-3.7" class="b"/><path d="M9.8 80.7q3 .5 6 1.5c1 .3 2.3 1 3.4 1h24.9l3.4-.1q1.7-.5 3.5-.8c2.3-.3 4.6.6 6.8.9h73.8c4-1.4 7.8-3.9 12-5.1 5.7-2.3 12-3.2 18-1.7 3.1.6 6.3 1.6 9.4 1.8 3.8.2 7.6-.7 11.2-1.7" class="b"/><path d="M9.8 75.7q2.6.5 5.2 1.6c1 .4 2.2 1.3 3.4 1.2h65.2c4.2-2.3 8.8-4.4 13.7-3.2a28 28 0 0 1 6 2.1q1.2.8 2.6 1.1h32.5l3.5-1.7c3.7-1.6 7.2-3.8 11.1-5 5.9-1.8 11.5.1 17.2 1.6 3.9.8 8 .7 12 .5" class="b"/><path d="M9.8 72.3q1.8.7 3.4 1.6H81q1.6 0 2.6-1l2.5-2c3.7-2.7 8.4-4.5 12.9-3 4.2 1.2 7.8 4.3 12 5.5.4 0 1.3.3 1.7.5h30.1c2-.6 4-2.2 6-3.1 2.9-1.6 6-3 9.4-3 4.2-.3 8.1 1.4 12 2.6q2.5.7 5.2.9 3.4.6 6.8.7" class="b"/><path d="M9.8 69.2h72.1c1 .2 1.9-.6 2.5-1.2L87 66c2.7-2.1 6-4 9.4-4.4 4-.3 7.7 1.6 11.2 3 2.2 1.1 4.7 1.4 6.8 2.5 1.5.6 2.9 1.7 4.3 2.2h24.9c2.9-1 5.6-2.6 8.6-3.4 3-1 6.4-1 9.4-.3 3.2.6 6.3 2 9.5 2.7q5.5.9 11.1 1" class="b"/><path d="M9.8 64.6h74.6c4.8-4.4 10.2-9.6 17.2-9 2.3 0 4.6.7 6.8 1.3 1.7.4 3.6.5 5.2 1.1 3.6 1.3 6.8 3.4 10.3 4.9 2.1 1 4.4 2 6.8 1.7h9.5c5.7-1 11.3-2.9 17.1-2.6 4.4.1 8.6 1.2 13 1.7q6 .3 12-.5" class="b"/><path d="M9.8 60h75.5c7-6.9 12.8-11.7 23.1-10.3 8.8.2 16.6 4.8 25 6.8 5.5 1.6 11.3 1.4 17 2a80.5 80.5 0 0 0 31.7-3.3" class="b"/><path d="M9.8 55.3h73.8c1.4.2 2.4-1.2 3.4-2 9-8 13.8-9.4 25.7-9.2q8.4-.3 16.3 2.4 5.3 2 10.3 4l8.6 3a25 25 0 0 0 19.7-.8l7.8-3q3.3-1.7 6.8-3.3" class="b"/><path d="M9.8 50.6H81c1.4.3 2.4-1 3.4-1.7q2.5-2 5.2-3.9c10.3-6.9 15.7-4.3 26.6-6.1 4.8-1 10-1 14.5.8 3.3 1.2 6.4 3.1 9.5 4.8q4.6 2.7 9.4 5.1 1.3.6 2.6 1h8.6q1.8-.5 3.4-1.4c3-1.5 5.6-3.5 8.6-5 3.3-1.5 6.3-3.8 9.4-5.7" class="b"/><path d="M9.8 46h60.9q3.4 0 6.9-.2 2.2-1.5 4.3-3.3c5.8-5 12.7-8.3 20.5-8 4 .2 8.1.7 12-.2 4.5-1 9.2-2 13.8-1 4 1 7.7 3.3 11.1 5.5l9.5 6q1.2.8 2.5 1.1h11.2c3-1.2 5.7-3.5 8.6-5.2q2.2-1.2 4.3-2.5 3.4-2.4 6.8-4.8" class="b"/><path d="M9.8 41.3h60q2.8-1.2 5.2-2.8c2.7-1.6 5.1-3.8 7.7-5.7q5.8-4 12.9-4c5.2-.1 10.3 1.5 15.4 1.2 4-.3 8-2 12-2.1 5.8-.5 11 2.6 15.5 5.7q4.6 3.3 9.4 6.4c.7.5 1.7 1.2 2.6 1.3h12.8c1.3-.1 2.4-1.1 3.5-1.7l4.3-2.8q2.2-1.3 4.3-2.4c2.2-1.3 4.5-3 6.8-4.2" class="b"/><path d="M9.8 36.6h56.6q5.3-3.5 10.3-7.2c2.9-2.2 5.8-4.6 9.4-5.4 7.7-1.8 15.4 1.6 23.2 1 4.7-.1 9-2.7 13.7-3 6.4-.5 11.6 3.7 16.3 7.4q5 3.8 10.3 7.2h13.7l1.8-1 5.1-3.3q2.5-1.5 5.2-2.6 3.3-1.6 6.8-3" class="b"/><path d="M9.8 32h55.8l10.2-8c3.3-2.5 7-4.8 11.2-4.7 4.3-.1 8.6.9 12.9 1q6.5 0 12.8-1.9c3.4-1.2 6.7-3 10.3-3.2 5.8-.5 10.6 3.7 14.6 7.4a73 73 0 0 0 12.9 9.3h7.7q1.8.2 3.4-.5c3.3-1.6 6.3-4 9.5-5.8q5.3-2.5 11.1-3.3" class="b"/><path d="M9.8 27.3h51.5c5.4 0 4.2.7 8.5-2.7 3.6-2.6 7-5.5 11.2-7.2 5-1.7 10.3 0 15.4-.7 4.2-.5 8.2-2.1 12-3.7q2.2-.8 4.3-1.6c2-.8 4-2 6-2.7 8-3.3 13.9 2.7 19 8q4.1 4.6 9.4 8c10.3 6.4 16.3-2 24.8-6.5 3.2-1.3 6.9-1.5 10.3-1.4" class="b"/></svg>