<svg xmlns="http://www.w3.org/2000/svg" id="a" width="1920" height="2400" viewBox="0 0 192 240"><defs><style>.b{fill:none;stroke:#fff;stroke-miterlimit:10;stroke-width:.3px}</style></defs><path d="M0 0h192v240H0z" style="stroke-width:0"/><path d="M13 230.7c3.8 1.8 8.2 1.3 12.4 1.1q4.5-.1 9-.8 7.2-1.7 14-4 15.3-4.6 30.7-8.2 6.1-1.3 12.4-2.7c5.3-1.4 10.3-2.6 15.7-.3 5 1.8 9.4 5.5 14.8 6l6.6.1c6.6.5 13.4 2.3 19.9.4 2.8-1 5.4-2.7 8.2-3.8 3.7-1.5 7.7-1.1 11.6-1.2q5.5-.1 10.7-2" class="b"/><path d="M13 226.8q3 1.6 6.6 2.2 3.7 1 7.4.9c4.3-.2 8.4-2 12.4-3.2 5.6-2 11.7-2.3 17.4-3.9q5.8-1.6 11.5-3.4l7.5-1.8q4.1-1.5 8.2-2.8 5-1.2 10-1.5c5.4-.8 11.3-1.5 16.5 1q3.2 1.8 6.6 3.2 3.6 1.2 7.4 1 3.7-.3 7.5.6c9.5 2.5 13.4 3.7 22.3-1.9q3.8-2.3 8.2-2.4c5.6 0 11.4 0 16.5-2.6" class="b"/><path d="M13 222.8q2.8 1.6 5.8 2.8c2 1 4.3 2 6.6 2.2 3.8.4 7.3-1.6 10.7-2.9q4.5-1.8 9-2.6c3-.4 6.2-.2 9.2-.7q5.1-1.2 9.9-3l6.6-2q3-.4 5.8-1.5c7.3-3.4 10-4.8 18.2-4.2 5.2 0 10.6-1.8 15.7.3 2.4 1.2 4.8 2.6 7.4 3.4 2.9 1 6 .7 9 .8q3.9.3 7.5 1.8c9 3.3 13 1.9 20.7-3.4a16 16 0 0 1 7.4-2.5c5.6-.3 11.5.2 16.5-2.7" class="b"/><path d="M13 219a51 51 0 0 0 13.2 5.7c3.6 0 6.7-2 9.9-3.2 3-1 6-2 9-2.2 2.8-.2 5.6.1 8.3 0 4.6-.6 9-2.6 13.3-4 3.2-1.2 6.7-1.6 9.9-3 6.4-3.3 10-5 17.3-3.8 6 .6 12.6-2.6 18.2.6 10.3 5.6 11.6 2 20.7 5 6.8 2.6 12.8 2.8 19-1.7 3-2.1 6.1-4.5 9.9-5.1 5.7-1 12 .2 17.3-2.6" class="b"/><path d="m13 215.7 5.8 2.9c2.2 1.1 4.8 2.2 7.4 2.1 3.2 0 6-1.7 9-2.6 3.3-.9 6.6-1.8 10-1.8 2.7-.1 5.5.2 8.2 0 4.6-.4 9-2.3 13.3-3.9 3.2-1.3 6.7-2.1 9.9-3.6 5.5-2.8 9.4-4.2 15.7-3.4 5.7.9 11.7-1 17.3.4 3.6 1.2 7 3.3 10.8 3.8 3.5.4 7.2-.1 10.7.9 3 .7 6 1.7 9.1 1.7q5.9 0 10.7-3.1c3.4-2.3 6.7-5 10.8-5.9q3.7-.6 7.4-1 5.2.2 10-1.7" class="b"/><path d="M13 212.1q3.2 1.7 6.6 3c3 1.4 6.6 2 9.9 1.2l5-1.4 5-.9c4.5-1 9.3-.5 14-.6q4.2-.5 8.2-1.8 4.6-1.7 9.1-4l9-4.2c3.7-1.7 7.8-2 11.7-1.9 5.5 0 11-.3 16.5 1 2.5.6 5 1.7 7.4 2.5q2.8 1 5.8 1c3 0 6.1-.5 9 0 6.1 1.3 11.3 3.4 17.4.9 3.6-1.5 6.5-4.1 10-5.8 3.5-2 7.6-2.4 11.5-3.3q5-.6 10-2.2" class="b"/><path d="M13 207.7q3.2 1.4 6.6 2.6c3 1.2 6.5 2 9.9 1.5q4.5-.7 9-1.1c7.2-1.2 14.5 0 21.6-1.8 7.2-1.7 13-7 19.8-9.7 3.6-1.6 7.7-1.5 11.6-2q8.8-1.5 17.3 1.7c3.8 1.1 7.6 2.8 11.6 3 3.3 0 6.6-.9 9.9-.5s6.5 1.9 9.9 2.3c6 1 10-2 14.9-4.9q5-2.8 10.7-4.2c4.3-1.6 8.9-2.3 13.2-3.8" class="b"/><path d="M13 202.2c3.9 1 7.6 2.9 11.5 3.9q4.6.9 9.1.4 2.5 0 5-.2c7.7-1 15.5.2 23.1-1.6 6.5-1.7 11.2-7 17.4-9.4 4.4-2 9.4-1.4 14-2.7a21 21 0 0 1 10.7-.1q7 2.1 14 4.3c3.9 1 7.8.1 11.7.2 5.8.2 11.4 4 17.3 1.9 4-1.6 7.6-4.2 11.6-5.7 3.2-1.4 6.7-2.2 9.9-3.7q5.2-1.8 10.7-3" class="b"/><path d="M13 196.1c4.3.7 8.2 3 12.4 4q4 .9 8.2.7 3.4.2 6.6 0c5.5-.2 11 .4 16.5 0q4.3.1 8.3-1.6c6-2.9 10.3-7.8 17.4-8.8 2.1-.4 4.4-.2 6.6-.6q3-.5 5.8-1.4 6.6-2 13.2.2 4.6 1.1 9 3c3.7 1.6 7.7 1.8 11.6 1.7 5.6-.4 11 2.2 16.6.8 2-.4 4-1.6 5.7-2.6a61 61 0 0 1 6.6-3c3.3-1.3 6.8-2 10-3.3 3.6-1.6 7.6-2 11.5-2.5" class="b"/><path d="M13 190.7c4.3.6 8 3 12.4 3.6 2.7.4 5.5.2 8.2.2q5 0 10 .4c4.3.3 8.7 1 13.2.9q3.7.3 7.4-.7c3.6-1 6.7-3.5 9.9-5.4q3.9-2.2 8.3-3c2.4-.4 5-.3 7.4-.7 2.2-.3 4.4-1.1 6.6-1.6 4.6-1.3 9.5-.8 14 .3 4.4.7 8.1 3.6 12.4 4.3 3.3.7 6.7.4 10 .3 3.5 0 7.2 0 10.7-.8 4.7-1.1 8.6-4.2 13.2-5.5 3.2-1.2 6.7-1.6 10-2.4 3.9-1.4 8.2-1.5 12.3-1.5" class="b"/><path d="M13 186c3.3.8 6.5 2.6 9.9 3.1 3.3.6 6.6 0 9.9-.5 2.4-.2 5 .2 7.4.2 5.3.1 10.5 1.7 15.7 2.1q3.4.6 6.6.5c3.7-.3 6.9-2.2 10-4 3.8-2.2 7.9-4.5 12.3-5q3-.2 5.8-.6 3.8-.7 7.5-1.2a57 57 0 0 1 16.5 1 29 29 0 0 0 19.8 2.7q5.9-.8 11.6-2.7c3.3-1.2 6.5-3 9.9-4 3.2-1 6.6-1.2 9.9-1.5a65 65 0 0 1 13.2-.7" class="b"/><path d="M13 182c5.8 2.5 10 4.5 16.5 2.8a22 22 0 0 1 7.4-.8c5.3-.1 10.7.2 15.7 1.7 3.6.6 7.1 1.9 10.8 1.6 3-.2 5.7-1.7 8.2-3 3.9-2 7.5-4.4 11.6-5.5 3.2-.8 6.6-.8 10-1.3 3.2-.3 6.5 0 9.8-.1 4.4 0 9-.8 13.2.7 8 2.8 11.6 3 19.9.8q5.3-1.1 10.7-2.5c3.3-1 6.5-2.7 10-3.6 3.1-1 6.5-1 9.8-1q6.2 0 12.4-.2" class="b"/><path d="M13 178.5c4.7 2.5 10.2 4.7 15.7 3.4q2.4-.6 5-1 2-.1 4-.2c4.4-.5 9-1.1 13.3.1l5.8 1.6q3.2 1 6.6 1c3-.3 5.6-1.8 8.2-3.2 3.4-1.4 6.6-3.3 10-4.7 2.8-1 6-1 9-1.2 3.6-.4 7.2.2 10.8.2 4.4.1 8.8-1.6 13.2-.8 10.4 2.5 10.4 3.9 21.5 1 3.8-1 7.7-1.2 11.5-2 3.4-1 6.6-2.7 10-3.7 3.7-1.3 7.7-1 11.5-.7 3.3.3 6.7 0 10-.1" class="b"/><path d="M13 175a36 36 0 0 0 14.8 4.1c2.2-.2 4.5-.8 6.7-1q3.3-.2 6.6-1.1c3.7-1 7.8-1.3 11.5 0 3.8 1 7.6 2.8 11.6 2 2.6-.6 5-2 7.4-3.2q4.5-2 9.1-3.6c3-.9 6.1-.6 9.1-.6H94q3.7.1 7.4-.2c2.5-.2 5-1 7.4-1.5 4.9-1.3 9.5 1.2 14 2.6 5.4 1.8 9.8-.5 15-1.3 3.5-.6 7.2-.4 10.7-1.3 3.1-1 6-2.7 9-3.9q3.2-1.3 6.7-1.4 2.9.2 5.8.5 4.5.4 9 0" class="b"/><path d="M13 171.6q2.8 1.2 5.8 2c2.4.9 4.8 2 7.4 2.3 2.7.5 5.6 0 8.3-.4 2.8-.3 5.5-1.4 8.2-2.2 3.2-1 6.7-1.4 10-.3 6 1.9 9.7 2.8 15.6-.2q3.1-1.7 6.6-2.7 3.3-1 6.6-1.6c2.8-.4 5.6 0 8.3 0l8.3-.2c4-.2 7.7-1.6 11.5-2.4 6-1.3 10.9 3.9 16.6 4.7q3 .3 5.7-.7 3.3-.8 6.6-1.3c6.7-.7 9.6 0 15.7-3.8 4-2.3 8.6-4.3 13.3-3.4q5.8.9 11.5.4" class="b"/><path d="M13 168.6q2.8.8 5.8 1.4l5.7 2.1c5.8 2 12 0 17.4-2.3 3.1-1 6.6-1.8 9.9-1 6.6 2.1 10.1 2.3 16.5-.7q3.5-1.5 7.5-2 3.2-.7 6.6-1c3.5-.3 7.1-.1 10.7-.5q4.2 0 8.3-.4c3.3-.3 6.5-1.5 9.9-1.7 5.4 0 9.6 4.7 14.8 5.5 2 .4 4-.2 5.8-.7q2.4-.7 5-1c3.8-.8 7.8-.3 11.5-1.4 4.7-1.5 8.4-5.4 13.3-6.5 2.7-.8 5.5-.2 8.2.1q4.6.3 9.1-.4" class="b"/><path d="M13 165.9c2.7.6 5.6.5 8.2 1.6q3.7 1.4 7.5 1.4c4.3-.2 8.4-1.9 12.4-3.5 2.8-1 6-1.7 9-1.2 8.8 2.3 10.4 2.2 19-.6 2.4-.8 5-.8 7.5-1q4-.6 8.3-1l8.2-.9q4 .2 8.3.2c3.6 0 7.1-1 10.7-1 5 .7 9 4.8 14 5.4q3 .3 5.8-.8 2.5-.7 5-1c4-.7 8.5-.1 12.4-1.6 4.2-1.9 7.8-5.3 12.4-6.2 2.7-.6 5.5 0 8.2.2q4.6 0 9.1-1.2" class="b"/><path d="M13 163.6c2.4.3 5 0 7.4.6 7.5 1.5 11.5-.9 18.2-3.4 3.3-1.5 7-2.4 10.7-1.9l5.8 1.4c4.7 1 9.4 0 14-.7 2.8-.5 5.6 0 8.3-.2q5-.6 10-1.4 2.8-.6 5.7-.8c2.7 0 5.5.6 8.3.7 3.5.3 7.1-.4 10.7-.2 5.2.8 9.5 4.8 14.9 4.8q2.4-.1 5-1a41 41 0 0 1 6.5-1c4.2-.4 8.7 0 12.4-2.2 3.7-2 7.3-4.6 11.6-4.7q3.3 0 6.6.4c3.4 0 6.8-1 10-2.2" class="b"/><path d="M13 161q2.9.1 5.8 0 3.7.3 7.4-.5c2.9-.7 5.6-2.3 8.3-3.6 5.2-2.3 10.6-5 16.5-3.2 5 1.6 10.4 1.8 15.7 1.5q5-.3 9.9.3c5.2.3 10.5-.7 15.7-1 3 0 6 .7 9 .8 4 .3 7.8-.7 11.6 0 4.6 1 8.5 4 13.3 4.4 3 .2 6-1.2 9-1.5 3.3-.5 6.7-.3 10-.5 4.8 0 8.7-3.6 13.2-4.8 8.7-2 9.7 2.1 20.6-3.3" class="b"/><path d="M13 158c4.4.2 9 .3 13.2-1.4 2.6-1 5-2.7 7.4-4 4-2 8-3.6 12.4-4 3.4-.4 6.6.7 10 1q5.8.4 11.5.4 5.4.2 10.7 1.3 5.8.8 11.6.8c4.1 0 8.3.6 12.4.2s8.4-1.4 12.4.3c4.8 1.8 9.6 4.9 14.9 3.8q3.2-.7 6.6-.8c4.4-.3 9 1 13.2-.3q3.3-1.3 6.6-2.5c10.7-3.2 10.6 1.9 23.1-5.6" class="b"/><path d="M13 154.5c11 1 12.7-1.9 21.5-6.5a51 51 0 0 1 15.7-3.2q3.2.1 6.6 0c3.5-.2 7.1-.5 10.7-.1 5.6.5 11 2.3 16.5 3.2 4.4.7 8.8 1.4 13.2 1.3s8.8-1.6 13.3-1c3.4.6 6.6 2.5 9.9 3.7q3 1.2 6.6 1.4 2.9-.1 5.8-.4c4.4-.2 8.8 1 13.2.9 2 0 4-.7 5.8-1.2q4.4-1.5 9-2c3-.3 6.3-.2 9.1-1.4 3.2-1.3 6.1-3.4 9.1-5.2" class="b"/><path d="M13 150.3c2.4.1 5 .7 7.4.3 5.2-.7 9.3-4.4 14-6.3 3-1 6.1-1.1 9.1-1.6 3.4-.5 6.6-1.4 10-1.8q4.1-.6 8.2-1.4c6-.9 11.7 1.2 17.4 2.7q5.3 1.3 10.7 1.9 2.9.6 5.8.8c3.5.2 7.2-.4 10.7-.2 5 0 9.4 3 14 4.3 4.6 1.6 9.4.8 14.1 1 3.8.4 7.7 1 11.6.9 3.9-.4 7.7-1.6 11.5-2.2 13.2-2 10.6-2 21.5-8.5" class="b"/><path d="M13 145.6c2.7.1 5.5 1 8.2.5 5.1-.8 9.2-4.4 14-5.6q2.6-.3 5-.5c4 0 7.9-1.4 11.6-2.7l9-2.5c4-1 8-.2 11.7 1q5.2 1.7 10.7 2.3l6.6.7c1.7.2 3.3.8 5 1 3.8.8 7.8 1 11.5 2 2.9.6 5.6 2 8.3 3q4.4 2 9 2.3c4.2.2 8.4-.1 12.5.2q8 .6 15.7-1.1 6.7-1.2 13.2-3c5.2-1.3 9.2-5.2 14-7.1" class="b"/><path d="M13 141c2.7 0 5.5 1 8.2.7 4.8-.6 8.8-3.5 13.3-4.8q2.8-.6 5.7-.7c3.8-.2 7.4-1.4 10.8-2.8q3.1-1.3 6.6-2.2c5.3-2 9.6-1.4 14.9.5q4.4 1.4 9 1.8c3 .3 6.2 0 9.1.6q7.5 2.3 14.9 5.3c3.6 1.5 7 3.4 10.7 4.6 4 1.4 8.3 1 12.4.6l10.8-.6q13.9-1.7 27.2-6.2c4.3-1.5 8-4.2 12.4-5.1" class="b"/><path d="M13 137.4q2.9 0 5.8.4c4.6.2 9-1.7 13.2-3.4s8.9-1.6 13.2-3c6-1.8 11.9-4.4 18.2-4.6 3.3-.1 6.6.8 9.9 1.5q4.5 1 9 .8c3.4 0 6.9-.3 10 1 8.8 3.6 15.8 11.6 25.6 12.8 3.3.5 6.7-.3 9.9-1q4.1-.6 8.2-1.4 6.8-1.2 13.3-2.8c5.7-1.7 11.4-3.6 17.3-4.8 4.1-1 8.2-2.8 12.4-3.3" class="b"/><path d="M13 134.3c4.4-.3 8.9-.1 13.2-1.2q4.5-1.2 9-2.7 7.5-2 15-4a57 57 0 0 1 14.8-1.8c4.4 0 8.8.8 13.2.7 3.9 0 7.8-.6 11.6.4s7 3.5 10 6c5.2 4.6 10 8.5 17.3 9.2 4 .4 7.8-.7 11.5-2l9.1-2.5q5.9-1.4 11.6-3c3.3-1.3 6.5-3 10-3.8 2.8-.9 6-1 9-1.3q5.4-.7 10.7-1.5" class="b"/><path d="M13 131.3q3.3-.6 6.6-1c4.1-.4 8.3-.6 12.4-1.7 4.5-1.1 8.7-3.4 13.2-4.5q8.2-1.7 16.5-1.2c5.2 0 10.5-.8 15.7-.9 4.8-.2 9.7 0 14 2 7.6 3.3 12.3 11.7 20.7 13.3 10 2.6 13.3.3 22.3-3.1 5.7-2.1 12-2.5 17.4-5.7 3.5-2 7.4-3.8 11.5-3.7a49 49 0 0 0 15.7-.6" class="b"/><path d="M13 128c2.4-.6 4.9-1.6 7.4-1.8 4.1-.4 8.4 0 12.4-1 3.7-1 7-3.1 10.7-4.2q4.6-1.2 9.1-.9 4.2 0 8.3.5c3.9.4 7.8-.4 11.6-1.2q7-1.3 14 1c3 1.3 6.3 2.7 9 4.6 5.1 3.7 10.2 8 16.6 8.8 5.5 1.3 11 3 16.5.4q3-1.6 5.8-2.8c5.7-2.4 12.3-2.5 17.4-6.2 12-8.7 14.8 0 27.2-4" class="b"/><path d="M13 124c2.4-.6 4.9-1.6 7.4-1.8 4.1-.4 8.3.1 12.4-.8 3.7-.7 7-3 10.7-3.9q4.6-1.1 9.1-.7 4.6 0 9.1.7c9.8.7 13-4 24 .6l9 4.6q4.5 2.9 9.2 5.2c3.3 1.6 7.2 1.8 10.7 3 4.5 1.6 9.5 3.4 14 1q3.3-2 6.7-3.6c5-2.6 11-3 15.7-6.3 2.5-1.7 5.2-3.7 8.2-4.4s6.1 0 9.1.6q5.4 1 10.7-.4" class="b"/><path d="M13 120.5c2.1-.7 4.3-1.7 6.6-2 4.3-.9 8.8-.1 13.2-.8 4-.7 7.6-2.8 11.6-3.5q4.1-.8 8.2-.5 4.6-.2 9.1.2c9.8.5 13.1-2.9 23.1 2 5.8 2.7 11.4 6 17.4 8 3.2 1.2 6.6 1.8 10 2.7 2.4.8 4.8 2.2 7.3 3 7 2.6 11-2 16.6-5.3a44 44 0 0 1 7.4-3.5q3.4-1 6.6-2.7c3-1.5 5.9-3.3 9.1-3.9 3.3-.6 6.7 0 10 .3q4.9.6 9.8-.4" class="b"/><path d="M13 117.9c8.6-4.1 11-2.9 19.8-3.3 2.3-.2 4.5-1 6.6-1.6q3.2-.8 6.6-1.4 3.8-.4 7.5-.4 5.8-.5 11.5-.5c5.3-.2 10.8-.5 15.7 1.5 6.2 2.2 11.8 5.9 18.2 7.5q6.3 1.5 12.4 3.4c3 1.2 5.9 3.1 9 3.9 9.6 2 14.3-9.8 27.4-12.6 4.3-1.5 8.6-3 13.2-3.5 6-.7 12.1-.2 18.1-1" class="b"/><path d="M13 116.1c7.4-4 10.8-4 19-3.7 3 0 6-1 9-1.5 4.7-.9 9.4-1.2 14.1-1.7 5.5-.8 11-1.4 16.5-.7 4.6.6 8.9 2.2 13.2 3.5 3.4.9 6.6 2.5 10 3.5 3.8 1 7.8 1.6 11.5 3 3.7 1.1 7.2 3.2 10.8 4.6 10.5 4 17.3-9.6 26.4-12.4 5.4-1.7 11-2 16.5-2.9q4.2-.8 8.3-1.6 5.3-.8 10.7-1" class="b"/><path d="M13 114.6c5-3 9.7-4.7 15.7-4.1q4.1.5 8.2-.2 8.7-1.4 17.4-2.4c3-.4 6-1.2 9-1.4 7.2-.6 13.8 2.7 20.7 3.6q3 .3 5.8 1 2.8 1 5.8 1.7c2.7.6 5.6 1 8.2 2 3.5 1 6.7 2.7 10 4.2 3.8 2 7.8 2.2 11.5-.3q3.5-2.1 6.6-4.7c2.4-2 4.8-4.3 7.5-5.9 5.7-3.5 12.7-2.1 19-3.4 3-.5 6-1.9 9-2.8q5.8-1.4 11.6-1.8" class="b"/><path d="M13 112.5c5-3.2 9.8-4.9 15.7-4.2 2.7.3 5.5.7 8.2.1l16.6-2c3.5-.5 7-1.3 10.7-1.1 5.4 0 10.4 2.6 15.7 3.3 2.7.4 5.5.2 8.2.4 2.3.2 4.5 1 6.7 1.4q4.6.6 9 1.7c3.7 1 7.2 2.7 10.8 4 4.6 1.7 8.7.2 12.4-2.7l5-3.7c2.5-2 5.1-4.4 8.2-5.8q3.6-1.5 7.4-1.6 5-.2 10-1.1c3.4-.7 6.6-2.4 9.9-3.4q5.6-1.5 11.5-2" class="b"/><path d="M13 109.7c6.3-3.3 11-4.4 18.1-3.8q3.8.2 7.5-.2 3.7 0 7.4-.2 5.4-.5 10.8-1.5c3.8-.7 7.9-.4 11.5 1 2.7 1 5.4 2.4 8.3 2.8 4.1.8 8.3-.5 12.4-.5 2.2 0 4.4.9 6.6 1.2q8 1.2 15.7 3.5c3.4 1 7.3 1.7 10.7.1 2.4-1 4.6-2.7 6.6-4.3 3.6-2.4 6.9-5.4 10.8-7.3q3.9-1.8 8.2-2 4.6-.4 9.1-1.2c3.7-.6 7.2-2 10.8-3q5.8-1 11.5-2" class="b"/><path d="M13 106c3.5-1.2 7-2.5 10.7-2.8 4.7-.5 9.4-.1 14-.2 2.8.2 5.6.7 8.3.7q5.4-.3 10.7-1.6c5.2-1.3 9.7.4 14 3 6.4 3.8 10.9 1.7 17.4.7 2.3-.2 4.5.5 6.6 1 4.7 1 9.4 1.3 14 2 6.5 1.2 11 1.5 16.6-2.5l7.4-5.3c2.9-2 5.8-4 9.1-5.1 2.4-.9 5-1 7.5-1.6 5.2-1 10.5-1.4 15.7-2.4 4.6-1 9.4-1 14-2.1" class="b"/><path d="M13 101c3.3-.3 6.5-1.3 9.9-1.3q4.5 0 9 .3 3 .1 5.9.4c2.4.4 4.9 1.3 7.4 1.6 3.9.3 7.8-.6 11.6-1.7q4.7-1.6 9 .4c5 2.3 8 5.8 14 5.2 3.7-.1 7.2-1.5 10.8-1 2.5.4 5 1.3 7.5 1.4 3.2.4 6.6.2 9.9.2 5.8 0 10.2.8 15.7-2.3 6.6-4 12.4-9.6 19.8-12a69 69 0 0 1 19-3.3q3.3-.3 6.6-.4c3.3.1 6.7.3 10-.5" class="b"/><path d="M13 96c2.4 0 5-.6 7.4-.5 3 .1 6.1.9 9.1 1.5q3.7.8 7.4 1.1 2.6.7 5 1.5 5.3 1.6 10.7.4c7-1.8 10-3.6 16.6.8 7 5 10.9 4 19 3.7 2.5 0 5 .9 7.4 1.1 3.6.4 7.2-.4 10.7-1 3.5-1 7.2-.6 10.8-1.1 4.2-.6 8.1-2.8 11.5-5.2 4.1-2.7 8-5.8 12.4-7.9q4.4-2 9.1-3 6-2 12.4-2h6.6c3.3.4 6.7 1 10 .5" class="b"/><path d="M13 91.1c2.4 0 5-.6 7.4-.2 3.8.7 7.2 2.5 10.8 3.9 2 .9 4.4 1.2 6.6 1.7 4.3 1.5 7.6 3 12.4 2.3 7-.7 11.2-4 18.1.3 7.8 5.2 11.7 5 20.7 5.3 1.9 0 3.8.6 5.7.6 5.2 0 10-2.5 15-3.6 3-.5 6-.4 9-1 7.6-1.7 13.1-7.7 19.8-11.1 3.6-2 7.7-3 11.6-4.2a53 53 0 0 1 19-3.4c3.3.4 6.6 1.3 10 1.2" class="b"/><path d="M13 86.3q2.9-.5 5.8-.6c4.6.4 8.4 3.5 12.3 5.8 2.3 1.5 5 2 7.5 3 2.6 1 5.4 2.3 8.2 2.2 5.8 0 11.7-2.4 17.4-.5 2.6.9 5 2.6 7.4 3.9a29 29 0 0 0 5.8 2.2c5.3 1.5 11 1.4 16.5 1 3.4-.4 6.7-1.8 10-3q3.1-1.1 6.5-1.8l5.8-.8a25 25 0 0 0 10-3.7c4.7-3 9.4-6.7 14.8-8.5 3.5-1.3 7.3-1.7 10.7-3 5.4-1.8 10.9-4 16.6-4.4 3.5-.1 7.1.5 10.7.6" class="b"/><path d="M13 82.3q2.8-.5 5.8-.8c4.3 0 8 2.7 11.5 5q3.4 2.6 7.5 4c2.3 1.2 4.8 2.6 7.4 3 2.2.3 4.4-.1 6.6-.3q4.1-.6 8.3 0c4.2.8 7.7 3.5 11.5 5.4q4.5 1.7 9.1 2.7 6.8 1.2 13.2-.8c3.1-1 6-2.5 9.1-3.4 5.4-2 11.2-1.8 16.6-3.4 4.9-1.6 8.8-5 13.2-7.7a33 33 0 0 1 8.2-3.8c2.7-.8 5.6-1 8.3-1.7 5.6-1.2 11-3.5 16.5-5.2q6.5-1.7 13.2-1" class="b"/><path d="M13 79.6c2.5-.3 5-1.2 7.4-1.4 4.6-.4 8.7 2.3 12.4 4.8q2.4 1.4 5 2.7c8.8 5.6 8.9 3.3 18.1 3.7 5.6.4 10 4 14.9 6.5q2 .9 4.1 1.2l5.8 1.4c10.8 1.9 15.4-4.8 24.8-6 16-1.7 15-2.4 28-10.8q5.4-3.4 11.6-4.2c5.3-.7 10.7-1.4 15.7-3.2q4.5-1.8 9.1-3.1c3-1 6-1.8 9.1-1.3" class="b"/><path d="M13 77.6c3.1-.3 6-1.8 9-2.5 3.8-1 7.6.4 10.8 2.2q3 1.4 5.8 3.2c7.2 5.3 8.3 4.3 16.5 5 3.2.3 6.3 1.7 9 3.2 3.5 2 6.9 4.3 10.8 4.6 3.3.7 6.6 1.7 10 1.5 5 0 9.4-3 14-5 3.6-1.6 7.7-1.5 11.5-1.7 3-.4 6.2-.7 9.1-1.7 4.8-1.7 8.9-5 13.3-7.6 4-2.7 8.4-4.9 13.2-5.3 5.2-.8 10.6-.5 15.7-2.3l8.2-3.1c2.9-1.3 6-2.3 9.1-1.7" class="b"/><path d="M13 75.6c3.3 0 6.2-1.8 9-3.1q4-2 8.3-1.3a24 24 0 0 1 8.3 3.5c10.2 8.1 12.4 4.8 23.1 9C66 85.5 70.2 88 75 88.3c3.8.7 7.6 2.1 11.6 1.9 5-.1 9.3-3.4 14-4.8 3.8-1.1 7.8-.6 11.6-1.2q5.2-.2 10-2.3 7-3.6 14-7.9 6-3.6 13.2-4.3c4.7-.3 9.5 0 14-1.7q3-1 5.8-2.2c3-1.3 6.5-2.5 10-1.8" class="b"/><path d="M13 73.1c4 .4 7.4-2.2 10.7-4 6.3-3.8 11.6-3.5 17.4 1a64 64 0 0 0 15.7 8.4A53 53 0 0 0 74 82.8c4.7.6 9.2 2.6 14 2.5 3.5 0 6.7-1.5 10-2.5q4.4-1.4 9-1.4 10.2-.1 19-4.8l6.7-2.8 7.4-3.8c4-2 8.6-3.6 13.2-3.4 3.6.1 7.3.2 10.8-.8 4.9-1.4 9.6-4.4 14.8-3.7" class="b"/><path d="M13 69c6.6 1 11.5-4.7 17.3-6.8 5-2.1 10 .8 14 3.5 5.3 3.5 10 7.9 15.8 10.4 4.1 2 8.7 1.7 13.2 1.5 3.6.1 7.2 1.2 10.7 1.9q4 1 8.3.6 6.4-1.5 13.2-2 4.7 0 9-1.1 6-1.7 11.7-4 4-1.2 8.2-2.3 4.7-1.6 9.1-4c7.7-4 11.3-2 19-2.9 2.9-.3 5.6-1.6 8.3-2.5q4-1.3 8.2-1.2" class="b"/><path d="M13 63.2c4 .6 8-.8 11.5-2.4 3-1.3 5.9-3.1 9.1-3.8 6.2-.5 12 2.5 16.5 6.6 5.3 4.4 10.6 11 18.2 10.2q3.8-.5 7.5-.4c4.7.2 9.3 1.3 14 1.8 4.7.3 9.4-.4 14-.5 3.6-.3 7.3-.2 10.8-1.4 3.3-1 6.6-2.5 9.9-3.5q4-1.2 8.2-1.3 4.4-.3 8.3-1.9c3.5-1.5 7-3.7 10.7-4.3 4.1-.8 8.4-.5 12.4-1.3 2.3-.4 4.4-1.6 6.6-2.1q4.1-1 8.3-1" class="b"/><path d="M13 56.5q6.7.2 13.2-1.6c2.7-.8 5.4-2 8.3-2.3h4c10.8-.7 15.9 10.2 24 15 3 1.8 6.6 1.6 10 1.3q5.3 0 10.7.3c3 .3 6 1 9 1.3q9.7.8 19-.1c3.8-.6 7.3-2.4 10.8-3.5q4.4-1.5 9.1-1.6c3.3.2 6.7.4 10-.7s6.4-3 9.8-4c3.8-1.3 7.8-1.7 11.6-2.5 2.5-.4 5-1.6 7.4-2.3 3-.8 6.1-.8 9.1-.9" class="b"/><path d="m13 50.5 5.8-.7c3.2 0 6.6.2 9.9-.3q2.8-.5 5.7-.8 2.1 0 4.2-.2c4.4-.6 8.8.2 12.4 3 3.8 2.7 7 6.3 10.7 9.2s7.2 3.4 11.6 3.4c4.9.5 10 0 14.8.9q7.8 1.5 15.7 1.8c4.5.2 9 .2 13.3-1.3 4-1.3 8-2.7 12.4-3 4-.4 8.3.5 12.3-.9q4.6-1.5 9.1-3.2 5.8-2 11.6-3.9 3.3-1 6.6-2.3c3.2-.8 6.6-.4 10-.3" class="b"/><path d="M13 45.3c5-2.3 8.2-.7 13.2 0 3 .5 6 0 9-.2 2.3 0 4.5-.6 6.7-.7 4.5-.5 8.8 1.5 12.4 4 3 1.8 5.4 4.4 8.2 6.4 5.6 4.5 13 4.9 19.9 5.2q3 0 5.7.4 3.3.5 6.7 1.2c5.2.7 10.4 1.8 15.7 2 6.2.2 12.1-2.3 18.1-3.6 4.3-1.1 8.9-.6 13.3-1.5q6.4-1.2 12.3-3.8c5.2-2.1 10.2-5.2 15.7-6.2 3-.3 6.1.3 9.1.5" class="b"/><path d="M13 41.3c5.3-3.8 9.3-.2 14.8.2 5 .3 10-1.4 15-1.2 4.8.1 9.6 2 14 4 3.6 2 7 4.8 10.7 6.8 2.8 1.5 6 2.2 9 3q5.8 1.5 11.6 2.2l11.6 2.3q4.5 1 9.1 2 6.3 1 12.4-.7c4.2-1.2 8.1-3.2 12.4-4.1 6.5-1.6 13.6-.9 19.8-3.8 5.7-2.4 11-6.5 17.4-6.5 2.7 0 5.5.5 8.2.6" class="b"/><path d="M13 38.3c7.1-5.4 9.3 2.1 21.5-2 5.2-1.6 10.6 0 15.7 1.2q2.8.7 5.7 1.1 3 .7 5.8 2.2c2.8 1.3 5.5 3 8.3 4.3q2.8 1.1 5.8 2.4c3.7 1.8 7.4 3.9 11.5 4.9l5.8 1.7q3.4.5 6.6 1.2c3.4.7 6.6 2 10 2.7 4 .5 8.4.8 12.3-.8 2.9-1 5.5-2.7 8.3-4q6.2-3 13.2-3.3c2.8-.1 5.6-.1 8.3-1.1 5.5-1.8 10.6-5.3 16.5-6 3.5-.2 7.1.5 10.7 0" class="b"/><path d="M13 35.3c3.7-2.8 6.5-1.8 10.7-1.3q3.4.3 6.6-1c4.5-1.7 7.5-2.9 12.4-1.7 2.7.6 5.5 1.5 8.3 1.8 1.9.4 3.9.1 5.7.2 5.4.3 10.1 3.3 15 5.5 3.6 1.4 6.7 4 9.8 6.4q3.6 2.5 7.5 4.2c3.8 2 8.2 2.1 12.4 3.1 3.8 1 7.5 2.5 11.5 2.5 5.6.6 10.3-1.6 14.9-4.5 4.6-2.6 9.5-5.1 14.9-5.3 2.4-.2 5 0 7.4-.5 4.8-1 9.3-3.1 14-4.3 5-1.3 10 0 15-1" class="b"/><path d="M13 32.6c3.6-2.5 7.5-2 11.5-2.6 3.8-.6 7.2-2.8 10.8-3.8 6.2-1.5 12 3.3 18.2 2.6q7.3-1.4 14 2c2.8 1.3 5.8 2.4 8.3 4.3 2.6 2 4.9 4.5 7.4 6.7 3 2.4 6.3 4.8 10 6 3.4 1.1 7.1 1.5 10.6 2.3 18.1 4.5 20.9-6.1 35.6-8.9 3.2-.6 6.6 0 9.9-.5 4.5-.7 8.8-2.4 13.2-3.6q3.2-.8 6.6-.8c3.3 0 6.7.2 10-.5" class="b"/><path d="M13 30.7c3.4-1.9 7.2-3 10.7-4.6 3.6-1.4 7-3.3 10.8-4.3 5-1.3 9.3 2.3 14 3.3q3.7.8 7.4-.4c4.5-1 9.1 0 13.3 1.8q3 1.2 5.7 3a40 40 0 0 1 5 4.4c3.9 4 8 8.3 13.2 10.6q7.2 3 14.9 3 6.1-.1 11.6-2.6c5-2.2 9.6-5.2 14.8-6.7 4-1.2 8.3-1 12.4-.9q3.4-.1 6.6-1c4.1-1.2 8.2-3 12.4-3.3 4.4-.4 8.9.6 13.2-.4" class="b"/><path d="M13 29.1c4.3-2.1 8-5.2 12.4-7.4 3.7-1.9 8.1-3.2 12.4-2.7 3 .6 6 2.3 9 3 7 1.8 9.7-3 18.2-.8q5.8 1.3 10.8 4.5c5.6 4.5 10.2 10.4 16.5 14 7.5 4.4 14 6 22.3 2.3q7.7-3.5 15.7-6.3 5.2-1.8 10.7-1.7c3.6 0 7.3.5 10.8-.5 4.4-1 8.6-3.1 13.2-3.6 4.7-.4 9.4.9 14 0" class="b"/><path d="M13 27c4-2.2 7.3-5.9 11.5-7.8 3.1-1.5 6.6-1.5 10-1.2 3.3-.2 6.6 1 9.9 1.5 7.4 1.5 10.9-3.2 18.1-2.2q7 1 13.3 4.4c6 4 11 9.5 17.3 13.2 15 10.4 17.7 1.7 32.2-1.4 4.1-.9 8.2-2.3 12.4-2.4 4.4-.4 8.9.4 13.2-.4 4.7-1 9.2-3.2 14-3.5 4.7-.3 9.4 1 14.1.3" class="b"/><path d="M13 23.8c4.9-3 9.3-8.4 15.7-7.3 2.7.3 5.4 1.2 8.2 1 3.6.3 7.3.5 10.8-.5 2.8-.7 5.4-2.2 8.2-3 6.2-1.7 12.4.8 18.2 2.9q4.5 1.8 8.3 4.9l9 6.3c3.6 2 6.8 4.8 10.8 6 5.5 2 10.6-1.6 15.7-3.2 3.2-1.1 6.6-1.4 10-1.7 2.1-.3 4.3-1 6.5-1.2 5.2-.9 10.5-.6 15.7-.8 3.3-.3 6.7-1.2 10-1.8 6.2-1.5 12.6.7 19-.4" class="b"/><path d="M13 19.5c4.5-2.8 8.4-5.8 14-4.8 2.5.3 5 1.2 7.4 1.4q6 0 11.6-1.8c4.2-1.2 8-3.6 12.4-4 6.5-.6 15 1.8 20.7 4.8q7.5 4.1 14.8 8.5c5 3.3 10.3 7.5 16.6 5.3q4-1.6 8.2-2.6 4-.7 8.3-.7c4.1-.1 8.2-1.4 12.4-1.7q5.3-.6 10.7 0 3.8 0 7.4-.4 5-.6 10-.7c3.8 0 7.7.2 11.5-.4" class="b"/><path d="M13 14.7c7.5-3.7 10.5-2 18.1-1.1 3.7.3 7.3-.6 10.8-1.7 10-3 19.3-5.3 29.7-2.9 3.7 1 7.3 2.7 10.8 4.1L93 17.7c4.8 2.7 9 7.2 14.9 7 3-.1 6-1.6 9-2.2a44 44 0 0 1 10.8-.6c5.5-.2 11-2.1 16.5-1.7 4.4.3 8.8 1.6 13.2 1.5q4.6-.2 9.1-1 6.2-.8 12.4-1.3" class="b"/></svg>