<svg xmlns="http://www.w3.org/2000/svg" id="a" width="1920" height="2400" viewBox="0 0 192 240"><defs><style>.b{fill:none;stroke:#fff;stroke-miterlimit:10;stroke-width:.4px}</style></defs><path d="M0 0h192v240H0z" style="stroke-width:0"/><path d="M8.5 230h150.6c4.2-3.2 8-7 12.2-10.3q2.5-1.7 5.2-3.2c2.2-1.2 4.5-2.5 7-3.1" class="b"/><path d="M8.5 225.3h152.3c3.7-2.7 6.7-6.4 10.5-9q2.5-1.8 5.2-3.1 3.3-2 7-3" class="b"/><path d="M8.5 220.6h153.2c1.3-.7 2.4-2.1 3.5-3.1q3-2.8 6-5.2 2.5-1.7 5.3-2.8 3.3-1.6 7-2.2" class="b"/><path d="M8.5 215.9h154c3-2.3 5.5-5.3 8.8-7.1a22 22 0 0 1 5.2-2.2q3.3-1.3 7-1.5" class="b"/><path d="m8.5 211.2 155.8-.1c2.4-2 5-4 7.9-5.1q5.4-2 11.3-2.4" class="b"/><path d="M8.5 206.4h73.2q3-.8 6-1.7a19 19 0 0 1 15.7 1.5c2.2.4 4.7.1 7 .2h57.4l4.3-1.6q5.6-1.5 11.4-2.2M8.5 201.7h16.6a32 32 0 0 1 10.4-2.5c4.3-.3 8.7.5 13 .5 5 0 10-1 14.9-1.7q5.6-.7 11.3-1.2c3.5-.2 7-.3 10.4-1.5 6.5-2.2 12.2-3.1 18.3.7q2.7 1.6 5.2 3.8c1 .8 2.1 2.2 3.5 2h65.3c2-.2 4.2.2 6-.5" class="b"/><path d="M8.5 197h12.2q1.5.1 2.6-.6l3.5-1.5a52 52 0 0 1 8.7-2.8c5.7-1.3 11.7-1 17.4-2.1q7-1.5 14-2.9 6.3-1 13-1.2c3-.1 5.8-1 8.7-1.4 6-1.2 11.7.5 16.5 4q3.7 2.8 7 5.7c1.1.8 2.1 2.3 3.5 2.8h67.9" class="b"/><path d="M8.5 192.2h9.6c5.3-2.3 11-3.8 16.5-5.6a117 117 0 0 1 16.6-4.4c4.3-1 8.6-2.6 13-3.6 7.1-1.8 14.5-1.5 21.8-2 5-.3 10.3.6 14.8 3.1 6.3 3.4 11.8 8.2 17.4 12.5h65.3" class="b"/><path d="M8.5 187.5q1.8.1 3.5-.2 1.6-1 3.5-1.7 3.8-1.3 7.8-1.6 6.3-.6 12.2-2.8c4.1-1.6 8-4 12.2-5.3 6-1.7 12-4.2 18.3-5q6-.9 12.2-.7c4 0 8.2.1 12.1 1.2 6 1.6 11.4 5 16.6 8.3 4 2.5 8.4 4.9 12.2 7.8h64.4" class="b"/><path d="M8.5 180.8c13.5-8 17 3.4 34-8.7a38 38 0 0 1 11.3-5 47 47 0 0 1 20-1.8c4.7.5 9.5 0 14 1.8 6.2 2.1 11.7 6 17.4 9.4 3 2 6.3 3.2 9.5 4.7 1.1.5 2.3 1.5 3.5 1.6h65.3" class="b"/><path d="M8.5 173.1c12.7-5 17.7 5.2 30.5-4.3 2.9-2 5.5-4.5 8.7-6.1 8.8-4 16.1-3.4 25.2-1.2q4.3 1 8.7 1c4.4.6 8.5 2.8 12.2 5 5.9 3.4 14.1 10.2 20.9 10.6h60.9c2-.1 4.2.2 6.1-.2l1.8-1.8" class="b"/><path d="M8.5 167.9c14.9-3 18 6 32.2-6.6 3.9-3.3 7-5.7 12.2-6.6 6.8-1.5 13.6.8 20 2.9q2.6.8 5.3 1.2 2.6 0 5.2.6c5 1.2 9.5 4 14 6.8 4.3 2.7 8.8 5.7 13.8 7.1h63.6c2 0 4.1.3 6-.2l2.7-2.7" class="b"/><path d="M8.5 163.1c4.6-.5 9.3-.1 14-.2 8.8 0 14.9-6.1 21.7-10.8 4.5-3 11.2-3.4 16.5-2.9 5.7.7 11 3 16.6 4.2 2.3.5 4.8.7 7 1.6 6.4 2.5 12 6.7 18.2 9.6q4.3 2 8.7 3.2c1.1.2 2.4.9 3.5.8H181q1.4-1 2.6-2.2" class="b"/><path d="M8.5 158.8c4-.5 8.2-.4 12.2-1 8.2-1 14.7-6.3 21.8-10q2.5-1.4 5.2-1.9l7-.4a63 63 0 0 1 25.2 3c4.1 1.3 7.7 3.9 11.3 6q5.7 3.8 12.2 5.9c3.1 1 6.4 1.4 9.6 2.1l2.6.7c.8.3 1.8.8 2.6.7h60c1.7-.2 3.7.3 5.3-.3" class="b"/><path d="M8.5 155q5.3-.9 10.5-1.6c5.8-1.4 11-4.7 16.5-7 3.3-1.6 6.8-2.9 10.5-3 2.8.2 5.8.7 8.7.3 5.5-.5 11-2 16.5-1.8 15.4.7 18.8 15 36.6 15.2 3.8.2 7.7.5 11.3 1.9 2.2.4 4.7 0 7 .2h57.4" class="b"/><path d="m8.5 151.5 6.1-1.4q3.1-.4 6.1-1.5c5.5-2.1 10.7-5.5 16.5-6.6q4.5-.8 8.7.1c1.5.3 3 1 4.4 1.1q2.2.3 4.3 0c7.8-1 15.6-6.5 23.5-3.3 3.3 1.4 6 4 8.7 6.3 6.5 5.7 12 9 21 8a62 62 0 0 1 12.1.2h63.5" class="b"/><path d="m8.5 148.2 6.1-1.5c2-.4 4.2-.6 6.1-1.4 5.2-1.9 10.1-4.8 15.7-5.3q4.4-.5 8.7.9c2.8.8 5.6 2.2 8.7 1.8 7.7-.6 14.7-6.8 22.6-4.8 5 1.4 8.3 5.7 12.2 8.9 1.3 1 2.6 2.6 4.3 3h90.6" class="b"/><path d="m8.5 145 8.7-.1c5.3-.6 9.9-3.7 14.8-5.4a23 23 0 0 1 11.3-1.3c2.4.3 4.7 1.2 7 1.8 6.5 1.3 12.8-1.4 19.2-2 11.5-1 14.2 7.4 18.2 7h95.8" class="b"/><path d="M8.5 140.3h20c2.1-.8 4-2.3 6.1-3.1 4.3-2.1 9.3-3.2 14-1.7 7 2 14.5 1.7 21.7 2.9q3.6.6 7 1.8h84.4a22 22 0 0 1 8.7-2.1c2.7 0 5.3 1.3 7.8 2 1.7.3 3.6 0 5.3.1" class="b"/><path d="M8.5 135.5H33c.9.2 1.9-.4 2.6-.9l3.5-2a15 15 0 0 1 9.5-1.5c5.4 1.1 10.5 2.9 15.7 4.4H160c3-1.2 6.2-2.4 9.5-2.8 2.4-.3 4.7.4 7 .9q3.4.5 7 .4" class="b"/><path d="M8.5 130.8h27c1.6.3 3-1 4.4-1.7Q45.7 126 52 128c3 .7 5.8 2 8.7 3h90.5q6.1 0 12.3-.2l5.2-1.2q2.2-.3 4.3-.2l3.5.3q3.5-.2 7-1.1" class="b"/><path d="M8.5 126H39c1.2.2 2.4-.7 3.5-1a16 16 0 0 1 5.2-1q3.5.3 7 1.3c1 .2 2.3.8 3.4.8H126c3.2 0 6.4.2 9.6-.3 2.3-.3 4.7.2 7 .3h33.9l4.3-.1 2.6-1.2M8.5 121.4h175M8.5 114.4l6.1 1.4c1.1.2 2.3.8 3.5.8h165.4M8.5 107.7q5.7 0 11.3 1 5.2.3 10.5 1.1 4 .8 7.8 2 2.2.1 4.4.1H65l3.5-1.1c6.4-1.9 8.7-1.4 14.8.9 1.6.5 3.5.1 5.2.2h94.9M8.5 101.8l11.3-.9c6.1-.8 11.8-.8 17.5 2q3 1.3 6 3L46 107H58c5.9-1.4 11.2-5.5 17.4-5.3 2.2 0 4.3 1 6.1 2q3.9 2 7.9 3.4h26.9l5.3-.8q3.4-.3 7 0c1.6.2 3.4.9 5.1.8h49.6" class="b"/><path d="M8.5 96.5q6.3-.9 12.2-2.8c6.2-2.4 11.4-3.3 17.4 0 4.6 2.2 8.7 6.2 14 6.5 9.5.6 18.5-9.5 27.8-4.1 3.2 2 6.2 4.3 9.6 6 1.2.7 3 .2 4.3.3q8.2.2 16.6 0c4.9-.7 9.7-2.5 14.8-2.4q4 .1 7.8 1.6 1.2.5 2.6.8h47.9" class="b"/><path d="M8.5 90.7q6-.8 11.3-3.5c5.1-2.9 10.6-6.1 16.6-3.7 7.1 2.8 11.5 9.4 20 7.8 6.1-.8 12-4.5 18.3-3.7 3.7.4 6.7 3.1 9.5 5.4 2.3 1.6 4.4 3.7 7 4.7h10.4q5.7.1 11.4 0c5-1.5 10.2-3.7 15.6-2.8 3 .4 5.9 1.8 8.7 2.8h46.1" class="b"/><path d="M8.5 83.3c3.3-.4 6.6-1.7 9.6-3 2.6-1.4 5.1-3.2 7.8-4.4 12.5-5.8 17.2 7 27.9 7.3 5 .1 9.8-2 14.8-2.9 9-1.9 13 3.4 19.1 8.8l3.5 2.8c.7.5 1.7 1.3 2.6 1H106q6.1.1 12.2 0c3.8-1.5 8-2.7 12.2-2.2 2.7.3 5.2 1.6 7.8 2.3h45.3" class="b"/><path d="M8.5 75.2q6-1.4 11.3-4.1c4.5-2.4 9.6-4.8 14.8-3.7 4 .8 7.7 3.1 11.4 4.9a21 21 0 0 0 13.9.7c10.5-2.4 17.3-3.4 25.2 5.3 3.5 3.3 6.5 7.3 10.5 10h27.8q3-.9 6.1-1c2.4-.2 4.7.5 7 1h47" class="b"/><path d="M8.5 68c5.7-1.4 10.9-4.3 16.6-5.6 7.4-2 13.7.7 20.8 2.4 5.6 1 11.1-.6 16.6-1.3a29 29 0 0 1 16.5 2c3.6 1.6 6.2 4.7 8.7 7.5q4.5 5.5 9.6 10.5h86.2" class="b"/><path d="M8.5 62.6q4.8-1.5 9.6-3.2c7.7-2.4 15.7-.4 23.5-.1 4.7.3 9.3-1 14-2a35 35 0 0 1 12.1-.5 65 65 0 0 1 13 3.8c3.2 1.5 5.6 4.3 7.9 6.8 3.4 3.8 6.6 7.9 10.5 11.3 3.4.3 7 0 10.4.1h74" class="b"/><path d="m8.5 59.2 8.7-2.9c5.5-1.4 11 .5 16.6.8q6.2.6 12.2-1.4c12-4.8 16.6-5.2 28.7-.2 2.2 1 4.7 1.4 7 2.2 5 2.5 8.8 7.1 13 10.9 2.1 2 4.3 4.2 7 5.5h81.8" class="b"/><path d="M8.5 57.1c3.2-.8 6.4-2 9.6-2.8 5-.7 9.8 1.5 14.8 2q5.8.6 11.3-1.7c8.4-3.7 13.1-6.9 22.6-3.5 3.6 1.3 7 3.2 10.5 4.4q2.2.6 4.3 1 2.3.8 4.4 2c4.7 2.9 9 6.6 14 9.1a22 22 0 0 0 4.3 1.8h79.2" class="b"/><path d="M8.5 55.4q4.8-1.2 9.6-2.3c4.7-.5 9.3 1.7 14 2.3q5.2 1 10.4-.5c7-2.3 12-6.6 20-5.3 4.6.7 8.8 3 13 4.8 2.8 1.2 6 1.3 8.7 2.5 6.4 2.5 12.3 6.3 19.2 7.3 3.5.5 7 0 10.5-.4q3.9-.3 7.8.6 1.7.4 3.5.2h58.3" class="b"/><path d="M8.5 53.5q4.8-1.1 9.6-1.6c3.6 0 7 1.5 10.4 2.5 4.2 1.3 8.8 1.9 13.1.8C47 54 51.9 51.1 57.3 50c6.2-1.7 12.5.5 18.3 2.8q3 1.1 6 1.8l6.1 2c9.8 3.4 15.3 2.9 25.3 1.8q4.9-.1 9.5 1.6h61" class="b"/><path d="M8.5 51c10.9-2.2 12.1 0 21.8 2.8q7 1.8 14-.5 4.3-1.3 8.6-3c6.3-2.6 12.5-3.8 19.2-1.6 6.3 2 12.6 4.7 19.1 6 2.9.6 5.8.5 8.7.5 4-.3 8.1-1.3 12.2-1.5 3 0 5.9.8 8.7 1.5h62.7" class="b"/><path d="M8.5 47.7c7-1.3 11 .4 17.4 2.7q7.9.1 15.7 0a97 97 0 0 1 8.7-2.3l6-2.1c5.3-2.1 11.2-2.7 16.6-.8 4.4 1.5 8.7 3.7 13 5.2q10.1.2 20.1 0 2.6.2 5.2-.2l4.4.3H153q2.6-.8 5.2-.8 2.3.2 4.4.8h20.9" class="b"/><path d="M8.5 44.2q4-.5 7.9.4c1.4.3 2.9 1 4.3 1.1h19.2q3-1.2 6-2.2c1.7-.5 3.6-.5 5.3-1 3.1-.7 6.3-2 9.5-2.5 5-1 10.3.3 14.8 2.6 2.3 1 4.6 2.5 7 3.1h65.3c2.4-1.2 5-2.4 7.8-2.6q2.8 0 5.2 1c1.2.4 2.3 1.3 3.5 1.6h19.2" class="b"/><path d="M8.5 41h28.7c1.3.2 2.5-.6 3.5-1.2q2.6-1.4 5.2-2.3c2-.7 4.1-.6 6.1-1 3.4-.6 7-1.2 10.5-.9 5 .5 9.6 3 14 5.4h64.3c1.4 0 3 .2 4.4-.2 2.2-1 4.5-2.4 7-3.1q3.9-1.3 7.8.2 1.8.9 3.4 2c.7.6 1.7 1.3 2.6 1.1h17.5" class="b"/><path d="M8.5 36.3h28.7c1-.2 1.9-1 2.6-1.5 2.2-1.4 4.5-3 7-3.6a39 39 0 0 1 13 .3q4.3 1 7.9 2.9l3.5 1.9h69.6c4-.4 7.5-2.7 11.3-3.9 2.8-.8 6-.8 8.7.3q1.9.8 3.5 2c.8.5 1.7 1.3 2.6 1.6h16.6" class="b"/><path d="M8.5 31.6h28.7c6-4.6 8.7-7.3 16.6-5.5A36 36 0 0 1 65 30.7c.7.4 1.7 1 2.6.9h40.9c1.2-.2 2.4-1 3.5-1.3q2.5-.8 5.2-1.2c5.8-1 11.6-.3 17.4.3 3.8.2 7.7.8 11.3 0 10-3.2 14.4-4.3 23.5 2.1h14" class="b"/><path d="M8.5 26.8h28.8c2.3-1.3 4.4-3.2 6.9-4.3 3-1.5 6.5-.9 9.6.2q4 1.7 7.8 3.9 1.3.3 2.6.2H106c1.7-.8 3.5-2 5.2-2.8 12.4-7 16.7-6.2 29.6-1.4 5.7 2 11.6-.7 17.4-1q6-.2 11.3 2.5c1.8.8 3.4 2.1 5.2 2.7h8.7" class="b"/><path d="M8.5 22.1H39q2.5-1.6 5.2-2.7c2.5-1 5.4-.7 7.8.3 1.8.6 3.5 1.7 5.3 2.4H106c4.7-2.3 8.7-6 13-9 9.6-6.4 14.8-1.8 23.5 2.7 3 1.4 6.4 1.5 9.6 1.2 10.6-1.4 17.4-2.3 26.1 5.1h5.3" class="b"/></svg>