<svg xmlns="http://www.w3.org/2000/svg" id="a" width="1920" height="2400" viewBox="0 0 192 240"><defs><style>.b{fill:none;stroke:#fff;stroke-miterlimit:10;stroke-width:.4px}</style></defs><path d="M0 0h192v240H0z" style="stroke-width:0"/><path d="M8 228.3h42q8 .1 15.8 0 6.8-4.6 14-8.3c7.4-4 14.6-2.6 21.9.8q3.4 1.6 7 3 3.1.7 6.1 1.7 3 1.5 6.2 2.8H141c2.7-1.4 5.6-2.9 8.8-3.2 7.7-1 14.7-.3 21.8-4.3 4-2.1 7.7-5.3 12.3-5.7" class="b"/><path d="M8 223.6H42c6.4-.1 13 .2 19.3-.2q7.2-4.4 14.9-8c4.4-2.3 9-4.3 14-3.7 6 .7 11.2 3.8 16.7 6 2.2 1 4.7 1.4 7 2.2q2.6 1.1 5.2 2.6 1.3.8 2.6 1h21c.9.1 2-.4 2.7-.7q2.2-.7 4.4-1.2c4.6-.8 9.4-1.1 14-2.5q4.6-1.3 8.7-3.7c3.5-2.2 7.2-4.7 11.4-4.1" class="b"/><path d="M8 218.8h42c4.8 0 3.8.5 7.9-2.1a75 75 0 0 1 18.4-8.6c3.6-1.3 7.5-2.5 11.4-2 5.9.7 11.2 3.5 16.6 5.8l5.3 2q2.2.4 4.3 1.2c2.4 1 4.7 2.6 7 3.7h25.4q2.6-.8 5.3-1.3c5.6-1.1 11.4-2.2 16.6-4.6 5.6-2 9.4-6.8 15.8-4.5" class="b"/><path d="M8 214h40.3q2.2-1 4.3-2.4c5.1-3.3 10-7.2 15.8-9.3q4.3-1.5 8.8-1.9 3-.4 6.1-.2c4.5.4 8.9 2.1 13.1 3.7q7 2.9 14 4.8c2.5.5 5 1.8 7 3.1l3.6 2.2h26.2l3.5-.7c5.9-1.2 11.9-1.7 17.6-3.7 6.2-1.8 8.8-6.2 15.7-2.7" class="b"/><path d="M8 209.3h32.4l7.9-2.7c3.2-1.4 6-3.7 8.7-5.8 6.4-5.2 12.6-8.8 21-7.3 7.4.8 14 4.6 21 6.4 4.7 1.4 9.6 1.9 14 3.5q3.7 1.8 7 4.3l2.7 1.6h21.9q2.6-.6 5.3-1c4.6-.4 9.3 0 14 0q4.5.1 8.7-1.3c4.5-2.1 6.7-2.6 11.4-.2" class="b"/><path d="M8 204.2c2.8.7 5.9.2 8.7.4 3.8-.6 7.6-1.6 11.4-2.2 6.1-1.2 12.4-1 18.4-2.5 3.8-.8 6.8-3.5 9.7-5.9 6-5.3 12.5-10.2 21-7.3 6.8 2.1 13 6.1 20.1 7.4 5.5 1.3 11.5.5 16.7 3q3.6 2.3 7 4.8 2 1.5 4.3 2.6h15.8q4.7-1.9 9.6-1.4 3.1.5 6.2 1.4H184" class="b"/><path d="M8 195.4c7.2 1 14-2.3 21-2.9q5.3-.5 10.5-.3c3.5 0 7.3-.1 10.5-1.8 10.7-6.6 16-16.3 29.8-9 6 3.3 12.3 6.7 19.3 7.2 5 .6 10.3-.2 14.9 2.3 3.6 2 6.8 5 10.5 7q2 1.4 4.3 1.9h2.7q3.5.1 7-.1c3.4-1 6.9-2.6 10.5-1.7q2.8.6 5.2 1.7 4.5.1 8.8.1h21" class="b"/><path d="M8 187.8c6.3.8 12.3-1.8 18.4-3.1q4.7-1 9.6-1.2c7.1 0 12.1.8 18.4-3.4 11.8-7.5 16.9-9.5 29.8-2.5q6.3 3.2 13.1 5.3c4.3 1.2 8.8 1.7 13.2 2.8 4.9 1.2 8.6 5 13 7.1 3.5 1.9 7.6 2.7 11.5 1.9 5.6-1.1 10-4.4 15.7-1.7 1.8.6 3.3 2.3 5.3 2h28" class="b"/><path d="M8 182c9 .8 13.8-2.6 21.9-4.9 5.7-1.7 11.6-1 17.5-1.2 8.8-.7 16.6-5.8 25.4-6.2 3.6-.2 7.2.8 10.5 2q5.9 2.2 11.4 4.9 6 3 12.2 5.7c3 1.2 6 2 8.8 3.5 3.9 2 7.8 4.7 12.3 4.5h4.4q4-1 7.8-2.6c3-1.2 6.5-1.7 9.7-.5q2.8 1 5.2 2.8c1 .5 2.4.2 3.5.3H184" class="b"/><path d="M8 177.8c12.3.3 13.4-3 23.6-6.8 5.1-1.8 10.5-1.3 15.8-.7 5.5.4 11.1 1 16.6 0 5.8-1 11.6-3.7 17.6-2.7 8.8.8 15.8 5.7 22.7 10.8q2.6 1.8 5.3 3.2 3 1.4 6.1 2.7l2.6 1.2h17.5c7.8-3.5 13.4-5 21 0H184" class="b"/><path d="M8 174.4q4.9-.2 9.6-.8c5.6-1.5 10.2-5.7 15.8-7.4a25 25 0 0 1 14 .2c7.7 1.7 12.5 6 21 3.4 4.1-1.1 8-3.5 12.3-3.8 11.1-1.8 16.6 3.2 24.5 10 2.5 2 5.3 4.7 8.7 4.8h26.3q1.4-.2 2.6-.6 4-1.2 8-1.5 2.5 0 5.2.8c1.1.3 2.3 1.3 3.5 1.3H184" class="b"/><path d="M8 171.3q4.8-.6 9.6-1c3.2-.6 6-2.5 8.8-4 5.5-3.3 11.1-5 17.5-3.3 2.3.7 4.8 1.2 7 2.4 4.4 2.3 8.8 5.8 14 5.7 4.5 0 8.3-2.6 12.3-4.4 2.2-1 4.7-1.4 7-2.1 5.8-1.8 11-.5 15.7 3.1 3.6 2.6 6.7 6 10.6 8.2 2.2.3 4.7 0 7 .1h31.4q3.1-1.2 6.2-1.4c2.4-.2 4.8.7 7 1.4h22" class="b"/><path d="M8 167.2q3-.7 6.1-1 2.6.1 5.3-.5c4.7-1.3 9-4.1 14-4.8 3.8-.6 7.7.2 11.4 1.3q3.2.9 6 2.2c4 2.2 7.8 5.3 12.3 6.1 5 1 9.7-1.8 14-4q3.1-1 6.2-2.2c3.3-1.5 6.8-3 10.5-2.8 6.8.2 11.6 5.7 17.5 8.3q1.4.5 2.6 1.3 1.3.3 2.7.2h36.8q2.5-.8 5.2-.8 2.2.2 4.4.8h21" class="b"/><path d="M8 161.8q3-1.1 6.1-1.6c2-.2 4.1 0 6.1-.3 5.5-1 11.2-1.8 16.7-.2 3 .7 5.8 1.9 8.7 2.8q2.7.5 5.3 1.4c6 3 3.5 2.6 10.5 2.6q7.5.1 14.9 0c2.2-1.2 4.8-1.8 7-3 3.6-2 7.3-4.3 11.4-5 4.5-1 9 .8 13.1 2.7 2.3 1 4.8 1.6 7 2.7l4.4 2.5c2.6.3 5.3 0 7.9.1h57" class="b"/><path d="M8 156.7c5-2.5 7.7-2.4 13.1-2q4.8.2 9.7 1.5 5.3 1.7 10.5 3.8c5.5 2.4 11.6 1.6 17.5 1.7h21c1.1 0 2.5.2 3.5-.5 5-2.7 9.9-6.2 15.8-6.4 3.2-.2 6.5.7 9.6 1.5q4 .7 7.9 2l5.2 2c1.4.6 2.8 1.6 4.4 1.4H184" class="b"/><path d="M8 152.7c3.8-1.9 7.1-2.7 11.4-2 7 .7 13.5 3.7 20.1 6 1.6.6 3.6.2 5.3.3h38.5c2-.6 4-1.8 6.1-2.6q4.7-2 9.6-1.9c3.6 0 7 1 10.6 1.4 3.4.3 7-.1 10.5.2a30 30 0 0 1 10.5 2.9H184" class="b"/><path d="M8 150c4.5-1.8 7.4-2.4 12.2-1.6 8.5.8 16.8 4.5 25.4 3.6 1.5-.1 3-.7 4.4-.8q3.1 0 6.2 1 4.3.2 8.7 0h15.8c3.7-1 7.5-2.2 11.4-2.1q4 0 7.8 1.2l3.5.9h12.3q4.2-1.7 8.7-2.4a16 16 0 0 1 7 1l3.6 1.4h49M8 147.5c2.3 0 4.6-1 7-1.1q7.5.2 14.9-.1 6.1-.4 12.2-1.6 3.6-.9 7-1.9c4.6-.8 9 1.6 13.2 3a26 26 0 0 0 14.9 1c2.6-.6 5.2-1.5 7.9-1.6q5.5-.1 10.5 2.3H121c1.2.1 2.4-.8 3.5-1.1q2.5-1 5.2-.8c2.1 0 4.3.9 6.2 1.8H184" class="b"/><path d="M8 142.7h14.9q2.2-.2 4.4-.8 4-1.1 7.8-2.5l8.8-3.1c2-.7 4-1.6 6.1-1.8 6-.2 11.1 3.7 16.7 5.3q4.2 1.5 8.7 1.4 3-.2 6.1-.6 5.2-.1 9.7 2 46.4.1 92.8.1" class="b"/><path d="M8 138h9.6c1.7 0 3.6.2 5.3-.3 6.3-1.7 12.2-4.7 18.4-7 3.3-1.2 6.8-3 10.5-2.8 6.8.5 12.7 4.7 19.2 6.7q5.2 1.6 10.5 2 2.3.6 4.4 1.4H184" class="b"/><path d="M8 132c10.6 3 20.8-2.8 30.6-6.1 5.1-1.6 10.3-4 15.8-3.5a47 47 0 0 1 14.9 4.7q6.1 3 12.2 5.4c1.3.9 3 .7 4.4.7H184" class="b"/><path d="M8 125.3q3.8 1.6 7.9 1.3c5-.6 10-2.4 14.9-3.9a196 196 0 0 1 14.8-3.8c4-1 8.1-2 12.3-1.9a38 38 0 0 1 20.1 8.1l4.4 3.1c1 .4 2.4.2 3.5.3H184" class="b"/><path d="M8 119.9q5.1 2.5 10.5 1c4.4-1.1 8.7-2.7 13.1-3.8 5.5-1.6 11.1-2.5 16.7-3.7 4.3-1 8.6-2.6 13.1-2.6 8.5 0 15.2 6.2 21 11.6 1.4 1.6 2.5 1.3 4.4 1.3h97.3" class="b"/><path d="M8 117c5.4 2.6 8.7 2 14-.2 5-2 9.8-4.4 14.9-6.1 5-2 10.6-2.6 15.7-4.3 6.2-2.3 12.4-3.3 18.4 0 5.8 3.1 10 8.4 15 12.6h98" class="b"/><path d="M8 114.2h11.4c5.3 0 4.4.5 8.7-2.6 4.5-3 9-6.2 14-8.3q3.9-1.5 8-2.4 3.8-1.3 7.8-2c9.8-2 17.8 5.1 24.5 11.2 1.7 1.3 3.3 3.3 5.3 4.1H184" class="b"/><path d="M8 109.5H21q3.6 0 7-.2c5.4-4.5 10.9-9.4 17.6-11.9A35 35 0 0 1 63.2 95c7.7 1.7 13.7 7.4 20.1 11.7q2.2 1.5 4.4 2.7H184" class="b"/><path d="M8 104.7H28c2.4.1 2.7-.2 4.4-1.6q2.6-2 5.3-3.8A44 44 0 0 1 53.5 93c10.3-2 17.8 4.2 26.3 8.8l4.4 2.1c.7.3 1.7.9 2.6.8h25.4c2.6 0 5.3-.6 7.9-.5q3 0 6.1.5H184" class="b"/><path d="M8 100h25.4c.9.1 1.8-.5 2.6-.9l3.5-1.4q3.5-1.4 7-2.4 4.3-1.7 8.8-2.3a31 31 0 0 1 17.5 3.9c3.3 1.4 6.7 3.4 10.5 3h35.9a41 41 0 0 1 7.9-1c3-.2 5.9.4 8.8 1H184" class="b"/><path d="M8 95.2h43.8q4.3-1.2 8.7-1.6 4 0 8 .7c1.3.2 2.8.8 4.3.9H120q2.2.1 4.4-.5 3-.9 6.1-1c2.7 0 5.3.8 7.9 1.5H184M8 90.4h116.5c2-.1 4-.9 6-.9q2.2 0 4.5.4 1.2.5 2.6.5H184M8 85.7h113.8q1.8-.3 3.5-.8 3.5-.7 7-.4 2.7.4 5.3 1.2H163c1.2-.2 2.4-1.1 3.5-1.6 6.8-3.6 11.2-2.4 17.5 1.5M8 81h65.7q3.3-1 7-.7c1.4 0 3 .5 4.4.6h26.2c2.4.1 4.8-.8 7-1.3q4.8-1.5 9.7-1.5c4.2 0 8.2 1.6 12.2 2.8H157c1.5-.2 3-1.4 4.3-2.1 9.1-5.7 13.6-9.6 22.8-1.1" class="b"/><path d="M8 76.2h58.7l6-.1q3.6-1.4 7.1-.8l3.5.8q3 .2 6.1 0h12.3q1.3 0 2.6-.7l4.4-1.7q2.6-.7 5.2-1.2 4-1 8-1.5c7-1 13.6 1.9 20 4.2q3.5 1.2 7 1 3.3 0 6.2-.9c3.7-1.2 7.1-3.2 10.5-5 3-1.6 6.2-3.3 9.6-3.2 3.5.3 6.4 3 8.8 5.2" class="b"/><path d="M8 71.4h57c2.8-.1 5.8.4 8.7-.4 2.3-.5 4.7 0 7 .4H100q1.8-.8 3.5-2 3-2 6-3.4 2.2-.9 4.5-1.3c4.5-1 9.3-1.6 14-.6 6 1.2 11.4 4.5 17.5 5.3 10.8 2 16.5-1.4 26.3-4.1 5-1.5 8.6 1 12.2 4.3" class="b"/><path d="M8 66.7h61.2q1.9-.3 3.6-.4c2.3 0 4.7.5 7 .4h20.1c1.3-.4 2.5-1.5 3.5-2.3q3-2.2 6.2-4.2c5.5-2 11.7-3 17.5-1.9 4.5 1 8.7 3 13.1 4.3q2.6.8 5.3 1.2 3.9.9 7.9 1.6 5.6.9 11.3 0c3.8-.4 7.6-1.6 11.4-1.5 2.3.3 4.3 1.5 6.2 2.7h1.7" class="b"/><path d="M8 61.9h53.4c3 .2 5.9-.5 8.8-.5q2.6.1 5.2.5h26.3c3-1.7 5.6-4.1 8.7-5.3 6.5-2 13.5-3.4 20.2-1.6 3.5.8 7 2.2 10.5 3.1 4.7.9 9.3 2.5 14 3.7q14.5.1 28.9.1" class="b"/><path d="M8 57.1H42q1.8-.4 3.5-.5c1.8 0 3.5.7 5.3.5h52.5l2.7-1.2c3-1.6 6.4-2.4 9.6-3.4 5.9-2 12.2-3 18.4-1.6q3.5.6 7 1.6 2.7.5 5.2 1.4l5.3 2c1 .5 2.3 1.2 3.5 1.2H184" class="b"/><path d="M8 52.4H35c1.2.1 2.4-.7 3.5-1q2.6-1 5.3-1c3 0 5.9 1 8.7 1.8 3.2.4 6.5 0 9.7.2H106a81 81 0 0 0 12.2-3.8c5.3-2.1 11-3.6 16.7-2.9a58 58 0 0 1 10.5 2.2c3.3 1.2 6.3 3.3 9.6 4.5H184" class="b"/><path d="M8 47.6h21c2.7-1.5 5.6-3 8.8-3.3 3.8-.5 7.7.6 11.3 1.7 2 .7 4 2 6.2 1.6h21q1.3 0 2.6-.4 1.8-.5 3.5-.6 5.2-.4 10.5.4c2 .2 4.1.7 6.2.6h11.4c3.3-.4 6.5-2.3 9.6-3.5 4.1-1.8 8.6-3.3 13.1-3.4q6 0 11.4 1.8c2.4.8 4.8 2.2 7 3.4q1.6 1 3.5 1.7H184" class="b"/><path d="M8 42.9h14c6.9-5.6 12.4-8.4 21-4.7 3.2 1.4 6.6 2.2 9.6 4 1.3.8 3 .7 4.4.7h18.4q3.3-1.7 7-2.6 5.8-1.1 11.4.3 4 1 7.9 2.3h10.5c1.5.1 3-.9 4.4-1.4l6.1-2.6q5.8-2.4 12.3-2.3a32 32 0 0 1 14.9 4.4l3.5 1.9h21.9c1 0 2.4-.3 3.4-.5q2.6-.3 5.3 0" class="b"/><path d="M8 38.1h7c1.3 0 2.5-1 3.5-1.7q3-2.3 6.1-4.5c5.9-4.2 11-4.6 17.5-1.4q2.6 1.2 5.3 2.2 3.3 1 6.1 3c4.5 2.7 3.6 2.5 8.8 2.4h12.2a26 26 0 0 1 23.7-.7c1.9 1 4 .7 6.1.7h9.6c1.6.1 3-1 4.4-1.4a48 48 0 0 1 7-2.3 30 30 0 0 1 14 .1q3.1.7 6.2 1.8L149 38q1.2.2 2.6.1H178c2 0 4-.5 6.1-.3" class="b"/><path d="M8 33.4c1.7 0 3.6.2 5.2-.7 6.5-2.1 11.1-7.7 17.6-9.9 4.6-1.6 9.6 0 14 1.8 1.6.7 3.6 1 5.2 1.7 2.4 1 4.7 2.6 7 4q3.4 2 7 3H72q3.5-.8 7-1.7 8.4-1.4 16.7 1l2.6.7h16.6c3-.7 5.8-1.9 8.8-2.4q6.1-1.2 12.2 0 5 1 9.7 2.4H184" class="b"/><path d="M8 28.6q2.7-.1 5.2-.9 3.2-.7 6.2-2.2c4.8-2.6 9.3-6.3 14.9-7.3 4.4-.9 8.8.4 13 1.5 4.8.8 8.8 3.6 13.2 5.3a29 29 0 0 0 8.8 2q4.4.2 8.8 0l13 1.6h24.6c4.6-1 9.3-2.2 14-2q4 0 7.9.9c1.7.3 3.5 1 5.3 1.1H184" class="b"/><path d="M8 23.5c4.7-.4 9.7-.6 14-2.8 4.3-2 8.5-4.4 13.1-5.5 7-1.5 14.3.3 21 2.3q5.7 1.6 11.4 2.8c4.2.8 8.4 1.4 12.3 3.1q1.2.6 2.6.5h40.3q4.4-.6 8.8-.8 4 0 7.8.7H184" class="b"/><path d="M8 17.6c3.5-.2 7 0 10.5-.3 4.2-.6 8.2-2.3 12.3-3.6C40.2 10.6 46.6 12 56 13a68 68 0 0 1 15.8 3q2.3.8 4.4 2c.8.4 1.7 1.1 2.6 1.2H184" class="b"/></svg>