<svg xmlns="http://www.w3.org/2000/svg" id="a" width="1920" height="2400" viewBox="0 0 192 240"><defs><style>.b{fill:none;stroke:#fff;stroke-miterlimit:10;stroke-width:.4px}</style></defs><path d="M0 0h192v240H0z" style="stroke-width:0"/><path d="M9.6 230.9h25q3-1.6 6-2.7 5-1.6 10.3-1 4.6.1 8.6-1.7c3.8-1.7 7-4.4 10.3-6.9 3.4-2.6 7.4-5.9 12-4.8 9.8 2 16.5 10.2 24 16 .4.4 1.3 1 1.8 1h48.1c4.6-2.6 10.1-6.7 15.5-4 1.9 1 3.4 2.8 5.2 4h6" class="b"/><path d="M9.6 226.2h21.5c3.5-2.1 7.2-4 11.2-4.9 5.7-1.3 11.5.9 17.2-.7q5.4-1.7 10.3-4.7c3.4-1.9 7-4.4 11.2-3.8 7.3.7 13.8 4.8 19.7 9q3.8 2.7 7.7 5 2.6.2 5.2 0h39.5c2-.7 3.5-2.5 5.2-3.6 3.2-2.5 6.9-5.5 11.2-5 2.4.3 4.2 2.2 6 3.7l4.3 3.4c.7.6 1.7 1.4 2.6 1.6" class="b"/><path d="M9.6 221.5h11.2c2-.1 4.1.3 6-.2q4.2-2.3 8.6-4.1a26 26 0 0 1 11.2-1.8c3.7.2 7.4 1 11.1.8 6.6-.2 12.2-4.2 18.1-6.6 6.4-2.4 13.3.6 19 3.6q5.1 2.8 10.2 6c1.6.8 3.4 2 5.2 2.3h3.4q19.8.1 39.6 0c4.8-3.7 12.2-13.8 18.9-10.7 3.7 2.3 6.8 5.6 10.3 8.3" class="b"/><path d="M9.6 216.9h13c2 0 4-1.4 6-2.2q4.8-2.4 10.3-3.2c7.2-1 14.3 2.3 21.4 1.1 4-.6 7.7-2.6 11.2-4.6 4-2.3 8-4.3 12.9-3.2 9.7 2 17 9.7 26.6 12q4.8.3 9.5-.6a26 26 0 0 1 6.9-.2c1.7 0 3.4.9 5.1.8h19.8l.9-.1.8-.7 2.6-2.3c3-2.7 5.9-5.7 9.4-7.6q4.6-2.5 8.6.6 4.1 3 7.8 6.4" class="b"/><path d="M9.6 212.2H26c2-.5 4-1.7 6-2.2 7-2.5 13.6 0 20.6 1 4 .8 8.3.3 12-1.5 4.9-2.3 8.9-6.2 13.8-8.2a13 13 0 0 1 8.6 0c8.8 2.8 16.1 10.6 25.8 10.1 3.4-.3 6.8-1.7 10.3-2a20 20 0 0 1 9.4 1.3l3.4 1.5H148c1.6-.1 3.5.3 5.1-.3 5.5-3.2 12.4-11.3 19-10.1 3.8 1.1 7 4 10.3 6.4" class="b"/><path d="M9.6 207.5h55.9q1.5.1 2.6-.8l3.4-2.6c3.5-2.8 7.3-6.2 12-6 6.5.2 12 4 18 5.9 13.3 4.9 17-4.4 28.4-1.6 4.3 1 8 3.8 12 5.1h9.5l2.6-.9c5.9-2.2 11.5-7.5 18-7.1 3.8.5 7.1 2.6 10.4 4.3" class="b"/><path d="M9.6 202.9h63.6c1.7.1 3-1.6 4.3-2.3q2.9-1.8 6-2.2c4.9-.8 9.8 0 14.7.2q7.4.5 14.6-1.3c7.6-2.8 12.5-5.7 20.6-1.5 3.4 1.7 6.6 4.1 10.3 5.3a25 25 0 0 0 17.2-1.2c3.6-1.3 7.3-3 11.2-3 3.4.2 6.9 1.4 10.3 2.1" class="b"/><path d="M9.6 198.2h75.7c1.3 0 3 .1 4.3-.2 7.8-3 15.2-7 23.2-9.6 7-3 12.4-5 19.7-1.1 3 1.5 5.7 3.6 8.6 5.1a32 32 0 0 0 25 2.8c5.3-1.5 10.8-1.4 16.3-2.2" class="b"/><path d="M9.6 193.5h81.7c2.7 0 3 .3 5.1-1.6l6-5q5-4.4 11.2-6.6a26 26 0 0 1 8.6-2.2c6.1-.4 11.4 3.4 16.3 6.5q3 1.7 6 3 3.4 1.8 7 3.4 5.6 2.6 12 2.3c6.6-.6 13-3.3 18.9-6.3" class="b"/><path d="M9.6 188.9h85.1c1.5.2 2.5-1.1 3.4-2l3.5-3.4c5.3-5.2 12-10 19.8-10 6 .3 11.2 4 16.3 7.1 2 1.4 4.6 2.2 6.9 3.3q3.5 1.8 6.8 3.9l1.7 1q2.2.1 4.3 0h9.5c2 0 4.1.3 6-.2q4.9-3.2 9.5-6.8" class="b"/><path d="M9.6 184.2h87.7c8.8-6.4 16.1-16.3 28.3-11.2 5.8 2.3 10.5 6.7 16.4 8.7 1 .3 2.4.8 3.4 1.3s2.2 1.4 3.4 1.2H166c3.2-.1 6.4.2 9.5-.1l6.9-6.4" class="b"/><path d="M9.6 179.5H99c2 .3 3.5-1.3 5.2-2.1q3.3-2.2 6.8-4.2a15 15 0 0 1 14.6 0c4 1.7 7.3 4.6 11.2 6.3H173q2.2.2 4.3-.2l5.2-5" class="b"/><path d="M9.6 174.9h98c1.7-.7 3.4-1.9 5.2-2.6q2.4-1 5.1-1 4.2.1 7.7 1.9 1.8 1 3.5 1.7h49q2.2-1.7 4.3-3.5M9.6 170.2H179c1.1 0 2.6.2 3.5-.6M9.6 165.5H39q1 0 1.7-.6l2.5-1.4q3.2-1.8 7-1.8a44 44 0 0 1 15.4 3.8h116.9M9.6 160.9q13.8 0 27.5-.1a26 26 0 0 1 13-5.3 40 40 0 0 1 18 4.8q1.6.8 3.4.6h110.9" class="b"/><path d="M9.6 156.2h25q1.3-.2 2.5-.8l4.3-1.5q5-1.7 10.3-2c6.5-.4 13 1.3 19 3.7 1.3.7 2.8.6 4.3.6h107.4M9.6 151.5c11.2 0 22.4.4 33.6-.4 7.7-.2 15.3-2.8 23.2-2.2 4.6.3 9.2 1.7 13.7 2.6h102.3M9.6 146.9H14q2.6-.4 5.2-1.2a26 26 0 0 1 12.9 1.1q9 .1 18 0c2.9 0 5.8.3 8.6-.1l5.2-2.3a28 28 0 0 1 17.2-2q3 1 6 2.8c1.3.7 2.7 2 4.3 1.7h91.1" class="b"/><path d="M9.6 141.4c10.5-4.8 13.2-6.1 23.2.6 2.5.4 5.2 0 7.8.2h18c1.2 0 2.6.1 3.4-.9 5.3-4.3 11.7-9.3 19-8.2 4.4 1 8 3.8 12 6q3.3 1.8 6.9 3 3 .1 6 0h76.4" class="b"/><path d="M9.6 136.8c10.8-7.3 13.8-8 24 .7h27.6c6.2-6.2 14.4-15.4 24-11 5.3 2.3 10 5.8 15.5 7.7q5.4 2 11.2 2.3c1.1.1 2.3.8 3.4 1h67.1" class="b"/><path d="M9.6 132.9h1.8c6.8-4.8 10.8-8 18.9-3.2l4.3 3q1.2.3 2.5.2h22.4c2-1.1 3.4-3 5.1-4.4 5.4-4.8 12.3-10.2 19.8-8.1 6.6 2 12.4 6.2 19 8.3q4.1 1.4 8.5 2.3 1.8.6 3.5 1.6c.7.3 1.8.3 2.5.3h64.5" class="b"/><path d="M9.6 128.2h6c1.3-.1 2.4-1.3 3.5-1.8q4-2.1 8.6-1.7c3.6.4 7 2 10.3 3.5h12c2-.1 4.1.3 6-.2 3.8-2.3 7.4-5 11.2-7 4.5-2.6 9.5-4.5 14.6-4.8q4 .2 7.8 1.8c7 3 14 6.6 21.4 8.4 1.5.3 2.9 1.4 4.3 1.8h67.1" class="b"/><path d="M9.6 123.5H20c1.5-.2 2.9-1.3 4.3-1.8q3-1 6-1.3c5.9-.5 11.5 1.9 17.3 1.6 3.9-.3 7.5-2 11.1-3.5a73 73 0 0 1 23.2-5.9c3.6 0 7 1.2 10.3 2.6 6 2.5 11.9 5.1 18 6.8 1.9.4 3.5 1.7 5.2 1.5h67" class="b"/><path d="M9.6 118.9H20q1.5.2 2.6-.6 1.6-1 3.5-1.7 4-1.8 8.6-2.3c4.8-.5 9.8.1 14.6-.8 3.4-.7 6.8-2 10.3-2.8q5-1.4 10.3-1.5 6 0 12-.3c6.4.3 12 3.7 18 5.5 5.2 1.7 10.5 2.6 15.5 4.5h67.1" class="b"/><path d="M9.6 114.2h9.5c2 .2 3.4-1.4 5.1-2a40 40 0 0 1 8.6-3.2c5.4-1.3 11-1.2 16.4-2.3 5.1-1.3 10-3.6 15.4-3.7 4-.2 8 .8 12 1.5 2.6.4 5.3 0 7.8.8 4 1.1 8 2.8 12 3.9 4 1 8 1.3 12 1.8q4.5.8 8.6 2.1c2 .6 4 1.3 6 1.1h19.8c1.4-.1 3-.6 4.3-.7q3-.2 6 .2 1.8.5 3.5.5h25.8" class="b"/><path d="M9.6 109.5h7.8c1.4.2 2.9-1.3 4.3-1.8q3.6-1.9 7.7-2.8c6.2-1.6 12.7-1.7 18.9-2.9 7.4-1.7 12.3-6.4 20.6-5 3 .6 5.8 1.7 8.6 2.4 1.7.5 3.5.5 5.2 1 4 1.2 7.9 3 12 3.9 5.4 1.3 11-.2 16.3.4 6 1 12 1 18 1.1q5.3.1 10.4-.1 4-.5 7.7-.8 6.5-.4 13 1.3 5.5 1.6 11 3.3h11.2" class="b"/><path d="M9.6 104.9h6c1-.2 1.9-1 2.6-1.4q2.1-1.1 4.3-1.9c5-1.6 10.3-1.5 15.5-1.6 4.6-.3 9.5-.3 13.8-2.1 7-3.6 12.2-8.3 20.6-5.6l6 2q2.2.5 4.3 1.2c2.8 1 5.6 2.5 8.6 3.4 5.6 1.8 10.8.1 16.3-1 2.5-.6 5.2 0 7.7-.2 4.3-.3 8.6-1 13-.8 6.5.1 13 2 19.7 1.2a45 45 0 0 1 29.2 5.2c1.6.7 3.3 1.9 5.2 1.6" class="b"/><path d="M9.6 100.2h5.2q1.4-.6 2.6-1.5a17 17 0 0 1 5.1-2c5.4-1 11 .2 16.4.4q3.9.3 7.7-.1 2.7-.2 5.2-1.3c6.2-3.6 11.8-9.8 19.7-8q3.4.9 6.9 2.2 2.6.7 5.1 1.6c6.3 2.9 11.3 4.8 18.1 2.3 3.4-1.1 6.7-3 10.3-2.7 3.2 0 6.3-.7 9.5-1a43 43 0 0 1 18 2.9 22 22 0 0 0 12 0c8.4-2 15.6-2.8 23.2 2l5.2 3.7c.7.5 1.7 1.4 2.6 1.5" class="b"/><path d="M9.6 95.5h6q1.4-.2 2.6-1 2.5-.9 5.2-1.3c6.3-.6 12.6.9 18.9 1 3.8 0 7.9.1 11.2-2 8-5 12.4-8.8 22.3-5.5 2.8 1 5.8 1.3 8.6 2.4 5.1 2 10.2 2.9 15.5.7 3.1-1.1 6.1-3 9.4-3.8 1.7-.4 3.5-.2 5.2-.4q4.7-.6 9.4-.2c6.1.6 11.5 4 17.2 5.8 4.6 1.4 9.4-.5 13.8-2 12.3-4.2 17-1.4 26.6 6.3h.9" class="b"/><path d="M9.6 90.9c4.6-.1 9.2.2 13.8-.2 5.4-.5 10.9-.2 16.3 0l8.6.2c1.7-.1 3.5.2 5.2-.3 4-1.3 7.8-3.4 12-4.2 4-1 8-.4 12 .1l10.3.6c5.2.2 10.2-2 14.6-4.4 3.8-2 6.8-3.5 11.2-3 15.6-.1 22.6 11.6 31.8 11.1 5.3-.6 9.8-4 14.6-5.9 10.3-4.3 14.3.7 22.4 6" class="b"/><path d="M9.6 86.2h68.8q6.7-1.3 12.9-4c5.6-2.5 10.4-6.6 16.3-8.4 3-1 6.4-.1 9.5.6 7.7 2.2 13.8 7.7 20.6 11.8h14.6c1.8-.5 3.5-1.8 5.1-2.7 4-2.2 8.3-4.4 13-3.6 4.3 1 8 4 12 6" class="b"/><path d="M9.6 79c2.9.7 5.7 2 8.6 2.5h66.2c.9-.1 1.8-.9 2.6-1.4l3.4-2.5c3.9-2.9 7.7-6 12-8.3 2.6-1.3 5.7-2.2 8.6-1.7a43 43 0 0 1 14.6 6q4.4 2.7 8.6 5.5c1.6.9 3.3 2.5 5.2 2.4h15.5l3.4-1.5c6-2.7 11-3.8 17.2-.6 2.2.8 4.4 2.2 6.8 2.1" class="b"/><path d="M9.6 69.5c4 2 7.7 4.9 12 6.2q2.6.8 5.2 1.1h58.5c1.3-.4 2.3-1.9 3.4-2.7q2.5-2.5 5.2-4.8c4.4-4 10-7.9 16.3-6.7 11.2 2.7 21.2 8.8 31.8 13.3 2.4 1.2 5.1 1 7.7 1h6q3.9-.7 7.8-.8 3.8-.2 7.7.8h11.2" class="b"/><path d="M9.6 61c4.5 2.4 8.2 6.2 13 8 3.2 1.5 6.8 2.3 10.2 3.2h52.5c1.9-1.2 3.4-3.4 5.1-4.9 4.3-4.1 9.3-8.6 15.5-9 3.2-.2 6.3 1.2 9.4 2l12 3q6.2 1.4 12 3.5 7.2 3.1 14.7 5 2 .6 4.3.4h24" class="b"/><path d="M9.6 54.8c4.3 2.2 7.8 5.6 12 7.8a70 70 0 0 0 8.6 3.5c1.7.5 3.4 1.6 5.2 1.4h49.9c2.4-1.6 4.4-4 6.8-5.7 4.1-3.3 9.2-6.2 14.6-5.7 3.5.3 6.8 2 10.3 2.3 7.4 1.2 15.2.3 22.4 2.5 3.8 1.3 7.4 3.3 11.1 4.9 1.4.5 2.9 1.4 4.3 1.7h27.6" class="b"/><path d="M9.6 50c3 1.4 5.8 3.5 8.6 5.2q3.8 2 7.8 3.7l6 2.6c1.3.5 2.7 1.6 4.3 1.4H87c6-4.3 13-8.8 20.6-7.4 3.2.6 6.2 2.1 9.4 2.3 7.5 1 15-2 22.4-.4 4.5 1.2 8.5 3.8 12.9 5.5h30" class="b"/><path d="M9.6 46.2c3 1.2 5.8 3 8.6 4.3q4.7 2 9.5 3.8l5.1 2.3c1.4.6 2.8 1.8 4.3 1.6h49q2.6.2 5.2-.1l4.3-2c4.3-1.7 9.2-2.7 13.7-1.4 2.3.8 4.5 1.9 6.9 2.2 4.9.9 9.8-.2 14.6-1.1 4.3-1 8.9-1.3 12.9.6 2 .7 3.9 2 6 1.8h32.7" class="b"/><path d="M9.6 42.7q3.9 1.7 7.8 3.2c2.8 1 5.7 1.6 8.6 2.6q3.5 1.2 6.8 2.9c1.4.6 2.8 1.7 4.3 2.1h59.3q1 .1 1.7-.3l3.5-1q3.9-1 7.7 0 1.7.6 3.4 1.4h19.8c2-.1 4-.7 6-.6q2.2 0 4.3.6h32.7q3.5-1.1 6.9-2.6" class="b"/><path d="M9.6 39q3.8 1.5 7.8 2.6c3 .7 6.4 1.1 9.4 2q4 1.3 7.7 3.3c1.4.6 2.8 2.1 4.3 2h61.9c2-.5 4-1.2 6-1.1q1.8 0 3.5.6.8.5 1.7.5h52.4c.8 0 2 0 2.6-.4l4.3-2q5.5-2.2 11.2-4.2" class="b"/><path d="M9.6 34.3q3.4 1.4 7 2.3c3.3.7 6.9.9 10.2 1.8q4.6 1.2 8.6 3.5l2.6 1.5c.7.4 1.7 1 2.6.8h61q2.5-.9 5.1-1 1.8 0 3.5.6.8.4 1.7.4h51.5c2.5-.7 4.7-2.2 7-3.3 3.9-2 7.8-4.2 12-5.4" class="b"/><path d="M9.6 30.6q3.9 1.4 7.8 2.1L26 34c4.4.8 8.8 2.6 12.8 4.6.8.3 1.8.9 2.6 1H63q3-.8 6-.8 2.7 0 5.2.8h60.1q3.3-1.2 7-1.6c4-.1 8 1.2 12 1.5 4.7.5 9.5-.7 13.7-2.7 5.2-2.4 10-5.8 15.5-7.3" class="b"/><path d="M9.6 28.4c3.4.6 6.9 1.6 10.3 2 5.2.5 10.5.9 15.5 2.3 2.6.6 5.2 1.6 7.7 2.2h13c1.7.2 3.4-.5 5-1q3-1 6.1-1.1 3.5-.3 6.9.8c1.4.4 2.8 1.4 4.3 1.3h53.3c3.4-1 6.7-2.5 10.3-2.8 6-.3 12 1.3 18-.2 4.6-1 8.8-3.1 13-5.3 3-1.5 6-3.3 9.4-4" class="b"/><path d="M9.6 26.7c4 .3 8 1.5 12 1.9 5 .3 9.8 0 14.7.5q4.7.5 9.4 1.1h8.6c3.5-.8 6.9-2 10.3-2.7a20 20 0 0 1 13.8 2.2q.7.6 1.7.5h55q4.6-1.2 9.4-1.9c4.3-.5 8.7-.8 13-2 5-1.4 9.8-4 14.5-6.5 3.3-1.6 6.7-3.6 10.4-4.1" class="b"/><path d="M9.6 24.7q3.5.2 7 .9h18.8q3.5-.3 6.9-.3c3.4-.2 6.9.5 10.3 0 5-.6 9.6-2.7 14.6-3.3a18 18 0 0 1 12.9 3q.8.7 1.7.6H148c1.5 0 3-.9 4.3-1.3q4-1.9 7.7-4c7.2-4 14.1-9.4 22.4-11.1" class="b"/></svg>