<svg xmlns="http://www.w3.org/2000/svg" id="a" width="1920" height="2400" viewBox="0 0 192 240"><defs><style>.b{fill:none;stroke:#fff;stroke-miterlimit:10;stroke-width:.3px}</style></defs><path d="M0 0h192v240H0z" style="stroke-width:0"/><path d="M11.8 209.2c3.7.5 7.5 1 11 2.3 4 1.4 8.1 3.8 12.5 2.8 3.6-1 6.6-3.8 10-5.4s7.6-2 11-.2c6.9 4 9.8 7.6 18.3 5 5.3-.7 10.7 1.8 16 .4 3.6-1 6.3-4 9.2-6.3 6.1-5.1 9.2-4.6 16.7-3.7 13.8 1.5 17.2 17.2 28.5 23 6.5 3.1 11.2 7.4 18.4 3q3.3-2 6.7-3.7c3-1.7 6.5-3.4 10-2.4" class="b"/><path d="M11.8 204.4q5.5.5 11 1.7c3.5.9 7 2.6 10.8 3 4.9.2 9-2.7 13.4-4.4 4-1.6 6.9-2 10.9-.2 4.7 1.8 9 5.3 14.2 5.7 6-.3 11.7 2.3 17.6 1.5 6.2-.4 9.9-6.2 15.1-8.8q3.6-2 7.5-1.5l5.9.1c7.4.2 11.6 6.2 16 11.3a61 61 0 0 0 11.6 10.7c5 3.4 9.5 8.6 16 5 2.6-1.5 5.3-3.3 8.3-4a19 19 0 0 1 10-1.3" class="b"/><path d="M11.8 201q3 .4 5.9.7c3.3.1 6.7-.2 10 .3 11.5 1.7 12.9 2.4 24.3-.7q7-.8 13.4 1.6 3 1.4 5.9 2.3 4.6 1 9.2 1.6 6.7 1 13.4-.2 3.4-1.2 6.7-3.2c2.6-1.4 5.4-2.7 8.4-3q2 .1 4.2 0c2.7-.1 5.5-1 8.3-.7 6.1.3 9.4 6.2 13.4 10 4.8 4.6 10.5 8.3 15.1 13.2 2.8 2.9 6.8 5.7 11 4.1 2.2-.8 4.3-2.2 6.6-2.9 4.1-.8 8.4-1.6 12.6-1.4" class="b"/><path d="M11.8 198.2c2.5.6 5 1.2 7.6.5 6-1.6 10.4-3.5 16.7-1.5 3.8 1.5 7.6 3.3 11.7 3.6q2.6 0 5-.5 3.5-.2 6.8-1.1 3.7-1 7.5.1 4 1.4 8.4 2c4.4.6 9 .3 13.4.1h5q3-.1 5.9-1 3.7-.9 7.5-1c2 0 4 .5 5.9.3 3.3-.3 6.6-1.9 10-1.4 5.2.6 7.9 5.7 11.8 8.6 3.2 2.7 6.8 5 10 7.7 2.5 2 4.6 4.6 6.7 6.9 2.4 2.4 5.6 5 9.2 4.1 2-.4 4-1.4 5.9-2q2.5-.6 5-1l8.4-1.5" class="b"/><path d="M11.8 195c3.2.8 6.1 1.1 9.2-.3 4.7-2 10-4.7 15.1-2.8 4.5 2 8.1 5.6 12.6 7.5 2.6 1 5.7 1 8.4.2 3.4-1.4 7-3 10.8-2.8 3.4.1 6.8.5 10 .2 5-.3 10.2-1.2 15.2-.1q4.1.5 8.4.7l8.3 1.2c3.8 1 7.3-1 11-1.6 6.7-1.2 9.3 4.7 14.2 8 3.2 2.2 6.9 4 10 6.3 2.6 1.9 4.6 4.5 6.7 6.8 4.7 5 7.6 6.3 14.2 4 2-.6 4-.7 6-1.3q4.2-1.5 8.3-3.4" class="b"/><path d="M11.8 191.2c3 .8 6.2 1.2 9.2.3 4.7-1.3 9.2-4.3 14.3-3.8 5 1.2 8.8 5.9 12.5 9.3 4.3 3.9 7.7 4 12.6 1.1 8.3-4.9 11.3-3.7 20-5.4q5.1-1 10.1-.1c4 1 7.9 2.6 11.8 3.9 3.2 1 6.6 2.4 10 2.3a17 17 0 0 0 5-1.7c4.3-2.1 8-2.7 11.8.6 1.6 1.5 3.2 3.3 5 4.5 5.5 3.6 11.7 4.3 16 10 2.8 3.2 6.3 6.8 10.8 7.3q3 0 5.9-.4 2-.2 4.2-.6c3.4-.9 6.4-3 9.2-5.1" class="b"/><path d="M11.8 187.1c9.2 2.6 12.4 1.4 21-1.4 3.5-1.1 7.3.3 10 2.7 5.7 4.5 9 13.6 17.6 8.2 9.4-5.6 9.3-5.7 20.1-7.7 4.2-.8 8.7-.4 12.6 1.5 5.7 2.5 14.6 8.8 20.9 6.3 4.8-2.3 9-6.6 14.2-2.5 2.7 2.2 5.1 5 8.4 6.4 4.3 2 9.3 2.8 12.6 6.4 4.8 5.3 9.5 8 16.7 7.6 6.5.6 9.6-1 14.3-5.3" class="b"/><path d="m11.8 183.7 5.9 1.6c3.2 1.1 6.7 2 10 1.1 2.6-.5 5-1.8 7.6-2.4 3.1-.9 6.6-.3 9.2 1.8 5.6 4.6 8.4 11.4 16.7 6.9 7.2-4 9-6.2 17.6-7.4 4.5-.8 9.3-.1 13.4 1.8 6.4 3.3 13.5 8.4 21 6.1 2.8-1.3 5.3-3.6 8.3-4.5 5-1.3 8.3 3.6 11.8 6.2 4.6 4 11.4 4 15.9 8.2 4.6 4.9 10.4 5.4 16.7 5.8 6.3 1.1 9.2 1 14.3-3.4" class="b"/><path d="M11.8 181.7q3.4 1 6.7 2.2c3.4 1.5 7.3 2.4 11 1 3-1 6-2.6 9.1-3.2 6-1.5 9 3.4 13.4 6.2 6.5 4.1 13.3-3 19.3-5.2 2-.8 4.5-1 6.7-1.4q7-1 13.4 1.9c3 1.4 6 3.3 9.2 4.5q5.3 1.9 10.9.8c6-1.8 9.3-7.2 15.9-2.3 2.5 2 4.8 4.4 7.5 6 3.1 2.1 6.7 3.1 10 4.5q3.3 1.6 6 4 2.2 1.4 5 1.8c3.6.6 7.3 0 10.9.8 5.2 1.3 8.5 2.2 13.4-1.2" class="b"/><path d="M11.8 181.2q3 1.2 5.9 2c3.2 1.1 6.8 1.7 10 .5 3.1-1.1 6-2.7 9.2-3.4 7-2.3 8.6-.2 14.3 3.1 9.1 5.4 15.8-6.5 25.1-6.7 5.3-.6 9.6.8 14.3 3 2.8 1.3 5.4 3.1 8.3 4.2q5.3 2.1 11 .6c6.3-1.2 9.8-7.3 16.7-2.7 3 2.2 5.9 4.8 9.2 6.6 3.1 2 6.7 3 10 4.6 1.8.8 3.5 2.2 5 3.3q2.9 1.5 6 1.7c3.3.3 6.7-.4 10 0 5 1 8.4 2.4 13.4 0" class="b"/><path d="M11.8 180.3a16 16 0 0 0 15.1 1.5c2-.7 3.9-1.8 5.9-2.5q2-.6 4.2-.7c9.3-2.3 9.4.7 17.5 2.7 6.7 1 11.4-5 16.8-7.6q3.1-1.4 6.7-1.2c5.1.1 9.2 3.6 13.4 6.2 6 3.7 10.3 6.6 17.6 3.5q2.6-1 5-2.4c3.2-2.1 7-4.7 10.9-3 3.3 1.4 6.1 3.8 9.2 5.4q5.3 2.9 10.9 5c4 1.7 7.3 5.1 11.7 5.8 3.6.8 7.3-.2 11-.2 4 .2 8.4 1.2 12.5 0" class="b"/><path d="M11.8 178.3c6.1 4.4 10.5 3 16.8 0q2.4-1.2 5-1.6H37c3 0 6.1-.8 9.2-.2l6.7 1.6q2.8 1 5.8.5c3.5-.6 6.5-3 9.2-5 1.8-1.3 3.7-2.8 5.9-3.2q3.9-.9 7.5.3c2.9 1.1 5.2 3.3 7.6 5.2q3.1 2.6 6.7 4.8c5.3 3.5 9.2 2.3 14.2-.9 4.4-2 7.6-6.6 12.6-7.1 3.3 0 6.2 2 9.2 3.3a87 87 0 0 0 11.7 4.3q3 1 5.9 2.5c3.2 2 6.2 4.5 10 5.2 3.4.6 6.7-.8 10-1 3.7-.3 7.4.3 11 .3" class="b"/><path d="M11.8 175c8 5.5 11.4 1.5 19.3-.5 2-.5 4 0 5.8.3 2.5.2 5-.3 7.6-.4q4.2.1 8.4.7c3.2.9 6.8 1.6 10 .2 3-1.2 5.5-3.3 8.4-4.8q2-.8 4.2-1c7.4-1.9 11.4 4 16.7 7.8 5.3 4 9 6.4 15.1 2q3.4-2.4 6.7-4.9c2.3-1.9 4.6-4.1 7.6-4.8 2.5-.5 5.1.5 7.5 1.4q2.9 1.2 5.9 1.8c5.6 1.3 12 .8 16.7 4.6 3.2 2.4 6.6 5.5 10.9 5.1 2-.1 4-.9 5.9-1.4 3.8-1 7.9 0 11.7.8" class="b"/><path d="M11.8 171.4c1.7.6 3.3 1.6 5 2.1 4.6 1.3 9-.9 13.5-1.6q1.6-.3 3.3-.2c1.4.2 2.8.7 4.2.6 2.8 0 5.6-1 8.4-1.2 2.4-.1 5-.6 7.5-.2 3.8 1 7.9 2.2 11.7.8 2.3-.6 4.5-1.8 6.7-2.3 2.8-.2 5.6-1.1 8.4-1 5.7.5 9.6 5.2 14.3 8 5 3.6 8.8 2.5 13.4-1.4q2.4-1.9 5-3.8 2.7-2.3 5.8-4c4.6-2.2 9 1.6 13.4 2.2 5 .9 10.2-.7 15.1.3 5.1 1.1 8.2 6.5 13.4 7.3q3 .3 5.9-.8c4.6-1.7 9.1-.2 13.4 1.8" class="b"/><path d="M11.8 167.2c2.3.5 4.4 1.6 6.7 2 4.7 1.1 9.5 0 14.3-.2 2.2 0 4.5.5 6.7-.2l5.8-1.7q2.5-.6 5-.8c3.2-.6 6.3.6 9.3 1.5q4 1.3 8.3 1l4.2-.3q2.2.2 4.2-.1c7.3-1.7 10.7-.4 16.8 3.6 7.2 5.2 10.4 3.5 16.7-1.8 4.6-3.3 9.1-7.9 15.1-5.2 2.4.9 5 2 7.5 1.9 6.1 0 12.7-2.5 18.5.7 2.7 1.5 5.3 3.4 8.4 4.2q2.9.7 5.8 0c6-1.6 9.8.2 15 2.8" class="b"/><path d="M11.8 163c3.5.3 6.7 2 10 2.6 4.7 1.2 9.6.4 14.3 0 2.6-.4 5-1.6 7.5-2.4a26 26 0 0 1 16 .3q4.5 1.6 9.2 2.2 3 .5 5.8 1.1c3.1.1 6.2-.9 9.2-.8q4.1 0 7.6 2.1c4.8 2.8 8.6 6.5 14.2 2.8 5.2-3.2 10-9 16.8-8 2.4.5 5 1.5 7.5 1.6 3.4 0 6.7-1.4 10-1.6q4.9-.3 9.3 1.5 3.8 1.6 7.5 3c3 .8 6.2.5 9.2.2 5-.5 9.7 1.8 14.3 3.4" class="b"/><path d="M11.8 159.3c4.7.3 8.9 2.9 13.4 3.6 4 .6 8-.5 11.8-1.7 2.4-1 4.9-2.3 7.5-3q3.4-.4 6.7-.3 5.5.1 10.9 1.4 4.1.7 8.4 1.7c1.6.3 3.3 1.2 5 1.4 2.7.3 5.6 0 8.4.2q4 .1 7.5 2.2c3.9 2.1 7.8 6.3 12.6 4.7 2.5-.8 4.6-2.6 6.7-4 3-2 6.4-3.9 10-3.8 3 0 6.2 1.3 9.2.6 6.7-1.8 9.5-4.4 16.8-1.4 4 1.7 8.2 3.3 12.5 3.3 2.5.1 5.1-.2 7.6 0 4.5.7 8.8 2.5 13.4 3" class="b"/><path d="M11.8 155.6q3.4.7 6.7 1.9c3.7 1.5 7.8 2.7 11.8 1.5a55 55 0 0 0 6.7-2.3c2.6-1.3 5.3-3 8.3-3.3 2.8-.2 5.6.3 8.4.3l11.7-.3q3 0 5.9.7l4.2 1.5c3.3.9 6.7 1.4 10 2.3a27 27 0 0 1 7.6 3.7c3.6 2.7 7.8 6.5 12.5 4.5q3.1-1.4 5.9-3.2a18 18 0 0 1 10-2.3c3 .3 6.4.9 9.3-.4 4-1.8 8-4.6 12.5-3.1 2.3.6 4.5 2 6.7 2.8 4.8 2 10 1.4 15.1 1.7 2.3 0 4.5 1.1 6.7 1.7q4.1 1 8.4.9" class="b"/><path d="m11.8 151 6.7 2.3q3.7 1.7 7.6 2c3.2 0 6.2-1.4 9.2-2.3 3.6-1.4 6.9-4 10.9-4.3 3-.2 6.1.3 9.2 0 3.6-.3 7.2-1.3 10.9-1.7q3-.4 5.8.3l5 1.7c4.3 1.4 8.8 2.6 12.6 4.9q2.7 1.5 5 3.5c2.8 2.4 6.2 5.2 10 4.6 2.4-.4 4.6-1.6 6.8-2.5q3.6-1.5 7.5-1.1c3.6.3 7.3 1.8 11 .7 4.3-1.7 8.2-5.6 13.3-4.3 3.2.8 6 2.7 9.2 3.5 4.1 1 8.4 1 12.6 1.5 2.3.2 4.5 1 6.7 1.6q4.1 1 8.4.4" class="b"/><path d="m11.8 145.3 5.9 2.2q2.9 1.4 5.8 2.5c3 1 6.3.7 9.3 0q2.5-.5 5-1.6c3-1.4 5.9-3.3 9.2-3.6q3.7-.1 7.5-.1c3.5-.1 6.9-1.5 10-2.7 6.5-2.6 8.2-1.3 14.3.8q5.3 2 10 4.6 5 2.9 9.3 6.4c4.7 3.3 8.2 2.5 13.4 1q3.3-.7 6.7-.1c4.1.6 8.3 3 12.5 1.8 6-2 9.3-4.7 16-2.5a77 77 0 0 0 20.9 4.4q6.2 1.1 12.5 1" class="b"/><path d="M11.8 139.6q4.3 1.6 8.4 3.7c3.8 2.2 8.2 3.6 12.6 3.1 5.4.2 9-3.8 14.2-4.6 7.8-.8 8.8 1.8 16.8-2.8 2.6-1.4 5.3-3.4 8.3-3.3 4.1.7 8 2.6 11.8 4.2q5.6 2.3 10.9 5.7c4.4 3.1 8.6 5.2 14.2 4.6q4.2-.4 8.4.3c3.1.4 6.1 1.7 9.2 2.5 3.5 1 7.3 0 10.9-.3q5.4-.7 10.9.3c5.3.8 10.5 3 15.9 3.5 5.3.2 10.6-.6 15.9-.2" class="b"/><path d="M11.8 135c4.7 1.7 8.9 4.4 13.4 6.3a25 25 0 0 0 9.2 1.6c2.4.2 4.6-.9 6.7-1.8s4.4-2 6.7-2q3.5-.3 6.7.6c4 .7 7.7-1.2 11-3.3 2.4-1.5 5.3-3.5 8.3-2.7q4.2 1 8.4 2.6 3.4 1 6.7 2.1c5.2 1.7 9.8 5 15 6.3 5.5 1.5 11.3 1.3 16.8 2.5q3.7 1 7.6 2.4 5.3 1.5 10.8 2.2c4.8.5 9.6-.7 14.3.6 4.9 1.2 9.9 3.7 15 2.3 3.9-1 7.8-2.4 11.8-2.1" class="b"/><path d="M11.8 131.9c8.7 3.4 12.7 7.2 22.6 7.4 3.6.4 6.7-2 10-2.8q3.9-1 7.6 0c2.2.6 4.4 1.4 6.7 1.3 4 0 7.4-2.4 11-3.9 2.3-1.1 5-.4 7.5 0q5 1.2 10 1.6 6.4 1 12.6 3.4 4.8 1.8 10 3c3.5 1.1 7.3.8 10.9 1.6a56 56 0 0 1 12.6 4.7c3.5 2 7.6 3.2 11.7 2.5 1.9-.2 4-.7 5.9-.5 4.3.4 8.2 2.8 12.5 3.3 3.3.4 6.4-1.1 9.2-2.6a19 19 0 0 1 7.6-2.2" class="b"/><path d="M11.8 130c5.7 2.4 11.3 5.3 17.6 5.2l6.7.1c2.6-.3 5-1.6 7.5-2.4q4.6-1.4 9.3.2c7.8 3 9.9 2.3 17.6 0 1.6-.4 3.3 0 5 0q3 .4 5.8.4c4.2 0 8.5-.8 12.6 0 6 1.2 11.7 3.5 17.6 4.9 2.4.5 5 .5 7.5 1a40 40 0 0 1 12.6 4.8c3.6 2.1 7.4 4.4 11.7 4 6.2-.7 7.1-1.5 13.4 1 5 2 9.3 3.2 14.3.2 2.8-1.7 5.8-3.6 9.2-4" class="b"/><path d="M11.8 128.4c2.8.6 5.6 1.7 8.4 2.4q5.5 1.1 10.9 1.3l5 .3c3-.2 5.6-1.6 8.4-2.5a16 16 0 0 1 10 0c6.1 2.1 9.4 3.3 16 2.3 2.4-.3 5 0 7.5-.4 3.7-.4 7.3-1.4 10.9-1.9 7-1 13.6 2 20 4 4.4 1.5 9 1.4 13.5 2.6 6 1.3 11 5.1 16.7 7 4.6 1.7 9.7.3 14.3 2 6.3 2.2 11.2 3.9 17.6.7 2.9-1.4 6-2.9 9.2-3.4" class="b"/><path d="M11.8 126.5q3 .1 5.9.5l6.7.7c3.6.5 7.2 1.6 10.9 2.1 4.3.4 8.4-1.7 12.5-2.8q4.7-1.5 9.2.1c6.7 2.7 10.3 4 17.6 3 5-1 10-2.9 15.1-3.4 7-1.1 13.5 1.1 20.1 3.4q6.6 2 13.4 2.8c6.8.9 12.8 4.3 19.3 6.3 2.7 1 5.6 1.5 8.4 2.4 3.2 1.2 6.5 2.5 10 2.6 3.1.2 6.2-.8 9.2-1.6q5-1.5 10-2.1" class="b"/><path d="M11.8 124.4q3-.7 5.9-.8 4.6-.6 9.2.6 3.3 1 6.7 2.3 3 .8 5.9.6c2.8-.2 5.7-1.2 8.3-2.2 3-1.2 6.2-2.2 9.2-1.2 3.2.9 6.1 2.5 9.3 3.2 4.6 1.3 9 0 13.4-1.4a37 37 0 0 1 10-1.3c4.7-.1 9.5-1 14.2 0 4.6.7 9 2.7 13.4 4q4.6 1 9.3 1.1c1.9 0 4 .6 5.8 1q5.4.7 10 3l9.3 4.5c3.6 1.8 7.7 2.9 11.7 2q3.3-.9 6.7-1.5c3.3-.3 6.7-.1 10-.4" class="b"/><path d="m11.8 122 5.9-1.6c3.2-1 6.8-1.5 10-.4 2.8.9 5.5 2.5 8.4 2.9 6.6 1.5 10-.1 16-2.1 7.4-2.2 13.3 5.5 22.5 2.6 6.8-2.2 9-1.8 16-1.1 3.4 0 6.7-1.4 10-2q4.6-1.1 9.2 0c3.5 1 6.6 3 10 3.9 3.3 1 6.8.5 10.1.8 3.6.5 7.4 0 10.9 1.4 3.8 1.6 7.2 4.2 10.9 6.1 3.2 2 7 3.4 10.9 2.8 2.5-.4 5-1.3 7.5-1.3 3.3 0 6.7.8 10 .7" class="b"/><path d="M11.8 120.1q3.4-1 6.7-2.2c3.1-1.5 6.6-2.8 10-2.1q2.7.6 5.1 1.4l5 1.2c6 1.7 9.4 0 15.1-1 7.9-.1 12 5.7 21.8 3q3.7-1 7.5-.8c2.5.2 5 .9 7.6 1 3.3 0 6.3-1.9 9.2-3.2 7.3-3.7 10.6-3 17.6.7q3.1 1.5 6.7 2.2 3.7.4 7.5.6c2.5 0 5-.4 7.6 0 2.6.2 5.2 1.5 7.5 2.8l8.4 4.8c5.2 3 8.7 1.7 14.2 1.3 3.6 0 7.3.9 10.9.7" class="b"/><path d="M11.8 118.1q3-.6 5.9-1.9c3.6-2 7.3-4.7 11.7-4.3q3.9.6 7.6 1.8c2.6 1 5.4 2 8.3 2 3.1.2 6.2-.8 9.2-.7 6 .3 11.6 3.2 17.6 2.8q4.2-.5 8.4-.5c2.5 0 5 .6 7.6.6q4 0 7.5-1.9c5-2.6 10-6.2 15.9-5.2 3.8.7 7.2 2.8 10.9 3.8q4.5 1 9.2 1.4 3.3-.1 6.7 0c3.8 0 7.4 1.7 10.9 3.1 4.4 1.9 8.4 5.2 13.4 5.6 2.5.3 5-.1 7.5 0 3.4.1 6.7.8 10 .8" class="b"/><path d="M11.8 115.4c6.8-.4 10.3-6.4 16.8-6.8 5.4 0 10 3.4 15 4.6 3.4.7 6.8-.2 10.1-.2q7.5.5 15 1.7c3.4.4 6.8.2 10.1.6 5 .5 9.8.5 14.3-2 4.3-2.2 8.6-4.7 13.4-5.7 6.8-1.8 10.3 0 16.7 1.9 5 1.5 10 1.6 15.1 2.2q4.2.7 8.4 2 2.5.4 5 1.2c3.3 1.3 6.6 3 10 3.7 3 .8 6.2.6 9.3.8 3 .3 6.1 1 9.2 1.3" class="b"/><path d="M11.8 112c3.4-.3 6.4-2 9.2-3.8 7.9-5.2 12.8-.9 20.1 2.4 3.5 1.7 7.3 1.1 11 .7l5 .2q4.1 0 8.3.3l10 1.4c4.8 1 10 1.1 14.3-1.6q4.8-3.2 10-5.2 4.6-1.5 9.3-2.4c2.4-.6 5-1.2 7.5-.8 3.7.5 7.3 1.9 11 2.7 3.2.7 6.7 1 10 2.1 3.3 1 6.6 2.2 10 2.5 1.4.2 2.9 0 4.2.3q3.7.8 7.5 2 5.8 1.6 11.8 1.8 4.6.4 9.2 1.9" class="b"/><path d="M11.8 108.6c3.7-.5 6.9-2.6 10-4.3 8-4.4 14 3 21 5.5 3 1.1 6.2.4 9.2.1q2.2 0 4.2.1 4.2-.2 8.4 0c4.6.6 9.6 1.7 14.2 2.3q6.2.6 11-3.3a30 30 0 0 1 11.7-6.3l6.7-1.5c1.6-.4 3.3-1.2 5-1.6 4.3-1 8.5.8 12.5 2 2.5 1 5.1 1.1 7.6 1.8 4.4 1.4 8.6 4 13.4 4.3 2.2 0 4.5-.5 6.7-.2 4 .4 7.8 1.6 11.7 2.4 2.2.5 4.5.4 6.7.7a40 40 0 0 1 8.4 2.2" class="b"/><path d="M11.8 106q3-.9 5.9-2.4c2.6-1.4 5.3-3.2 8.4-3.4 8-.2 13 8.9 20.9 8.9 2.2 0 4.5-.4 6.7-.2q4.6.3 9.2.4 4.2.4 8.4 1l7.5.7c8 .6 10.8-3.7 16.8-7.6 4.6-3 10-4.3 15-6.3 5-2.6 10.4-.3 15.1 1.4 2.7 1.1 5.7 1.2 8.4 2 4.2 1.3 8.2 3.4 12.6 3.6 2 0 4-.5 5.8-.4 4.3.3 8.5 1.8 12.6 2.8 2.4.6 5 .6 7.5 1q4 .5 7.6 1.9" class="b"/><path d="M11.8 103.4c4.4-1.1 8.1-4.2 12.6-5 8-1 13.8 8.3 21.8 9q3.4.1 6.7.4 5 1.2 10 1.7 3.7.3 7.6.1 3.7-.3 7.5-.2c9.2.7 10.7-1.4 17.6-6.6 4.3-3.1 9.3-5.4 14.2-7.5 4-2.3 8.2-2 12.6-1q5 1.4 10 2c4.5.8 8.8 2.8 13.4 3.2 2.2.2 4.5-.5 6.7-.2 4.4.4 8.5 2 12.6 3.3q3.3.8 6.7 1.1 4.3.7 8.4 2" class="b"/><path d="M11.8 101.7c7.6-1.9 12.3-6.5 20.1-2 4.2 2.6 8.5 5.3 13.4 6 2.5.4 5.2.6 7.6 1.4 5 2 9.4 4 15 2.6 2.5-.5 5-1.5 7.6-1.8 7.3-.5 11.5 1.4 17.6-4.1q6.9-5.8 15-9.6c3-1.5 6-3 9.3-3q5 0 10 .6 3.4.2 6.7.6c4.5.7 8.9 2.4 13.4 2.4q2.5-.2 5-.1c4.4.4 8.5 2 12.6 3.3 2.1.8 4.5 1 6.7 1.6l8.4 2.3" class="b"/><path d="M11.8 101.4q4.3-.8 8.4-2.2c6.2-1.8 10.6-.1 16 3 5.4 2.7 12.1 1.6 17.5 4.8 4.8 2.8 8.7 5 14.2 2.5 2.5-1 5-2.4 7.6-3 10.6-1.7 10.9 1.4 20-6.6q6-4.6 12.6-7.9l5-2.4q3-.9 6-1 7.5-.5 15-.2c3.7.4 7.3 1.5 10.9 2q3 .5 5.9.2 2.5 0 5 .3 5.5 1 10.9 2.8 6.8 1.6 13.4 4.2" class="b"/><path d="M11.8 102c4.9 0 9.4-2.2 14.3-2.3q3.4 0 6.7 1.2 2 1 4.2 1.9c2.7.7 5.6.8 8.3 1.2q5.5.5 10 3.7c8.4 5.5 11 1.4 18.5-1.9q5.3-1.7 10.9-2.4c5-.5 8.6-4.4 12.6-7.2 4.3-3.3 9.3-5.6 14.2-8 4.4-2.2 9.5-1.6 14.2-1.8 2.5 0 5-.4 7.6-.4q3.8.1 7.5 1 3.3.9 6.7 1c3.3-.1 6.7-.6 10-.3 4.6.2 9.1 1.4 13.5 2.6q4.5 1.6 9.2 3.5" class="b"/><path d="M11.8 102c7 .8 14-3.1 21-1 1.6.5 3.3 1.4 5 1.6 3.6.6 7.3.4 10.9 1.2 4.4.8 8 4 12.5 4.8 4.7.6 8.4-2.8 12.6-4q4.2-1.5 8.4-2.6 4.5-1 8.4-3.5a76 76 0 0 1 15.9-9.8c2.7-1 5.3-3 8.4-3.3 4.4-.5 8.9.7 13.3.5 3-.3 6.2-.7 9.3-.4 3.6.3 7.2 1.2 10.9 1q5.4-.9 10.8-1.2 4.6-.1 9.3.7c4 .6 7.9 2.2 11.7 3.6" class="b"/><path d="M11.8 100.7c6.1 1.2 12.3 0 18.5-.2q3.3 0 6.7.7 3.4.1 6.7.1 5.1.2 10 1.8c4 1.3 8.4 2.4 12.6 1.2q4.5-1.3 9.2-2.4 5.2-1.2 10-3.6c3.3-1.6 6.2-4 9.2-6q4.3-2.8 9.2-4.2 3-.8 5.9-1.7c1-.3 2.3-1 3.4-1.1 2.7-.6 5.6-.2 8.3.1q4.6.7 9.2.1t9.2-.6c3.7 0 7.4.3 11-.4 6.3-1 12.7-2.2 19.2-1.9 3.4.3 6.8 1.4 10 2.5" class="b"/><path d="M11.8 98.2c4.4 1 8.9 2.4 13.4 2.6q3.7-.2 7.6-.9l9.2-1c5.3-.2 10.5 1.3 15.9 1q5.8-.2 11.7-.8c3.4-.1 6.8 0 10-.8 7.6-1.9 13-8.2 20.2-10.8 3.7-1.5 7.9-1 11.7-2.1 2.7-.8 5.6-.7 8.4-.7q4.5 0 9.2-.2c3.6-.2 7.3-.9 10.9-1.3l14.2-1.5c5.1-.5 10-2 15-3 3.8-.3 7.5.5 11 1.5" class="b"/><path d="M11.8 94.8q3.4 1 6.7 2.6c3.3 1.8 7 3.6 11 2.7 4.4-1 8.7-3.3 13.3-3.7 3.3-.4 6.7.2 10 0 3.4-.5 6.7-1.8 10.1-2.2 5.4-1 10.6 1.1 16 1.3 4.3 0 8.2-2.2 11.6-4.5 5-3 10-6.5 16-6.4a35 35 0 0 0 6.7-.5l7.5-1q3.8-.7 7.5-1.1 2.6-.1 5-.4c4.3-.6 8.4-1.7 12.6-2 3.9-.6 7.9-.5 11.8-1.1 9.5-1.7 11.7-6.2 22.6-3.4" class="b"/><path d="M11.8 91.2q3.6 1.4 6.7 3.5c3.3 2.5 7.3 5.7 11.8 4.3 3.4-1.1 6.5-3.4 10-4.6 3.2-1.2 6.7-1 10-1.2q3-.2 6-1.7c7.2-3.6 10.7-3.7 18.3-1 3.5 1.4 7.3 2.5 11 1.3 2.6-.8 5-2.4 7.5-3.7 2.2-1.3 4.4-2.9 6.7-4q4.3-2.2 9.2-2.1 3.7-.2 7.5-.9c3.4-.6 6.7-1.8 10-2.4 2.2-.5 4.6-.2 6.8-.4 5.8-.9 11.6-2.2 17.6-2.4 5.2.1 10.5-.8 15-3.5q6.7-3.9 14.3-2.1" class="b"/><path d="M11.8 87.4c2.3 1.2 4.8 2.4 6.7 4.1 3.4 3 7.7 7.2 12.6 5.2 3.2-1.2 6-3.6 9.2-5 2.8-1.4 6-1.8 9.2-2.2q3.7-.4 6.7-2.3c7-4.5 10.8-5.2 18.4-1.6 2.7 1.3 5.4 2.8 8.4 3a15 15 0 0 0 7.5-1.7q4.4-2 8.4-4.8c6.2-4.2 11-3.2 17.6-4.8 3.6-.8 7.2-2.3 11-2.7 2.1-.3 4.4 0 6.6 0q5.5-.2 10.9-.6c5.6-.4 11.4-.7 16.8-2.9 7-3.2 9.8-6.6 18.4-5.3" class="b"/><path d="M11.8 82.5c2.3 1.2 4.8 2.3 6.7 4 3.3 2.8 6.3 6.9 11 7 3.5 0 6.2-2.8 9.1-4.5q3.5-2.3 7.6-3.4a25 25 0 0 0 10-4c8.1-6.4 11.6-5.8 20.1-.6 6 3.8 9.3 4.1 16 1.6 4-1.5 7.6-4.1 11.7-5.6 3.4-1.5 7.3-1.8 10.8-3.1 11.7-4.7 11.3-4.4 23.5-2.2q7.7 1 15-1.3 5.6-1.8 11-4.1a31 31 0 0 1 15.9-4.7" class="b"/><path d="M11.8 77.2c2 1 4 1.6 5.9 2.8 4 2.7 7.2 8 12.5 8.3 3.7 0 6.2-3.3 9.3-5 4.3-3 9.8-3.5 14.2-6.3 4-2.6 8-7.6 13.4-6.2 6.3 1.8 10.8 8 17.6 8.7 2.5.1 5-.7 7.5-1.4 4.3-1 8.4-2.7 12.6-4.2q4.2-1.4 8.4-3.1c3-1.5 5.9-3.5 9.2-4.4 5.8-1.8 11.2 1.7 16.7 3 6.5 1.7 12.8-1.5 18.5-4.4 3.4-1.6 7.3-2.5 10.8-3.9 3.8-1.3 7.7-3 11.8-3.2" class="b"/><path d="M11.8 72c2.1 1.2 4.7 1.4 6.7 2.7 3.4 2 6.2 5.4 10 6.7a7 7 0 0 0 6.8-1.6q2.3-1.8 5-3.2c3.2-1.7 6.8-2.4 10-3.8 3.2-1.2 5.7-3.7 8.4-5.8 4.6-3.4 8.5-2 12.6 1.2 4 2.9 8.2 6.6 13.4 6.8 2.3 0 4.5-.7 6.7-1.2l5.9-1c5.3-.8 10.3-3 15-5.6 4.3-2.6 9-6.3 14.3-4.8 7.1 1.5 11.5 6.8 19.2 4.3q3-.8 5.9-2.3c2.7-1.6 5.4-3.5 8.4-4.5s6.2-1.2 9.2-2c3.6-1 7.1-2.6 10.9-3" class="b"/><path d="M11.8 67.5q1.6.8 3.4 1.3 1.7.2 3.3.9c3.4 1.5 6.4 4.3 10 5.2 4.4 1.1 6.7-2.2 10.1-4 4-2 8.6-1.9 12.6-3.6 3.4-1.4 5.8-4.5 9.2-6.1 4.4-2.2 8.5 1.5 11.7 4.2 3.3 2.5 6.8 5.2 11 5.7 3 .4 6-.9 9.1-1.5 3.4-.5 6.9-.7 10-1.9 3.6-1.2 7-3.2 10.1-5.2 3.5-2.3 7.4-5.1 11.7-4.2 3.8.9 7.4 2.8 11 4.5a13 13 0 0 0 11.7 0q2.5-1.1 5-2.4c2.7-1.6 5.3-3.5 8.4-4.3 3-.8 6.2-.6 9.2-1.2 3.6-.8 7.1-2.4 10.9-2.8" class="b"/><path d="M11.8 64q1.6.8 3.4 1.3 2.2 0 4.2 1c3.5 1.3 7 3.6 10.9 3.3A12 12 0 0 0 36 67q2.7-1.7 5.9-2.3c3.3-.7 6.8-.3 10-1.6 3.8-1.4 6.6-5.3 11-5.6 3.5-.1 6.4 2.5 9.1 4.6 2.4 1.7 4.8 3.5 7.6 4.5 4.3 1.8 8.2.4 12.5-.6 7.5-.9 12.4-4.2 18.5-8.1 11-7.1 12.8-2.7 23.4 1.3 3.8 1.7 8 1.5 11.7-.3q3-1.1 5.9-2.4c2.7-1.4 5.4-3 8.4-3.5 2.7-.6 5.6-.4 8.4-1 3.8-.7 7.7-2 11.7-2.3" class="b"/><path d="M11.8 60.3c2 1.2 4.5 1.3 6.7 1.8 3 .7 6 2 9.2 2.3 5.1.7 8.1-2.3 12.6-3.7 4-1.4 8.5-.4 12.6-1.5 4.4-1.4 8.4-5.2 13.4-4 2.7.7 5.1 2.5 7.5 3.9a23 23 0 0 0 9.2 3.7q3.8.2 7.5-.7 4.4-.6 8.4-2.4c5-2.3 9.2-6.2 14.3-8.4 3.2-1.3 6.9-1 10 .3 2.5 1 5 2.6 7.5 3.3 3 .9 6.1 1.9 9.3 1.6 6.4-.9 12.1-4.5 18.4-5.9 3-.7 6.2-.5 9.2-1.1 4.1-1 8.3-2.2 12.6-2.1" class="b"/><path d="M11.8 55.4c2.4 1 5 1 7.6 1.6 3.5.6 7.2 1.6 10.9 1.6 4.4 0 8.3-2.5 12.5-3.4 4.1-1 8.5.2 12.6-.7 4.6-1.2 9.4-3.5 14.2-2.1 4 1.2 7.6 3.7 11.7 4.5q4.6 1.1 9.3.3a24 24 0 0 0 8.3-2.3c3.2-1.4 6.2-3.4 9.2-5 2.1-1.2 4.4-2.3 6.7-2.5 4.4-.5 8.6 1.5 12.6 3q2.5.7 5 1.1 3.3.7 6.7.8c7-.1 13.3-3.8 20.1-4.6 3.1-.4 6.3-.6 9.2-1.6a30 30 0 0 1 11.8-1.6" class="b"/><path d="M11.8 49.2c3.3.7 6.8.9 10 1.4 4 .6 7.9 1.4 11.8 1.2 4 0 7.7-2.6 11.7-3 4.2-.3 8.4 1.4 12.6.9 4.7-.5 9.4-2.9 14.2-1.6 4.4 1.4 8.8 3.2 13.4 3.8q8.7.9 16.8-2.6c4.6-1.6 9.2-4.3 14.2-4.1 5.4.1 10.6 1.5 16 1.8 4 .5 8.3 1.4 12.5.8 2.8-.3 5.6-1.4 8.4-2.1 3.5-1 7.3-1.3 10.9-2.2q3-.8 5.8-2c3.3-.9 6.8-.7 10-.4" class="b"/><path d="m11.8 42.8 11.8 1q5.4.8 10.8 1c2 .1 4-.6 5.9-1.2 5-1.8 9.3-.4 14.2 1q4.3.8 8.4-.2c2.8-.5 5.6-1.4 8.4-1.2 4.3.5 8.4 2.2 12.6 3 9.7 2.5 19.7-.4 29.3-2.5q6.7-.9 13.4-1.1 3.3-.3 6.7 0c4.7.7 9.5 2.1 14.2 1.2q3.4-1 6.7-2 5-1.1 10-2.5 3-1 6-2c3.2-1 6.7-.5 10 0" class="b"/><path d="M11.8 37.7q5.9.4 11.8.1l10.8-.1c4.2-.3 8.4-2.4 12.6-1 4.6 1.6 9.3 3.7 14.2 3.4 3.1 0 6.2-.7 9.3-.7 2.5 0 5 .8 7.5 1.2q6.6 1.3 13.4 1.6l10 .6c4 .2 8 .3 11.8-.5 7.2-1 14.3-5.1 21.8-3.2 8.4 2 11 2.7 19.2-.8q8-3 16-5.7c3.3-.6 6.7.2 10 1" class="b"/><path d="M11.8 33.5c4.2.6 8.4 0 12.6-.4 4.7-.6 9.6-1.1 14.2-2.5 2.7-.8 5.8-1 8.4.4 2.2 1 4.4 2.4 6.7 3.2 5.1 1.7 10.6 1.4 16 1.4 2.4 0 5 .7 7.5 1q4.1.5 8.3.4c3.4 0 6.8-.2 10 .4 4 .6 8 2 11.8 3q4.7.9 9.2-.6c6.4-2.2 11.4-6 18.5-3.9 5.5 1.5 11.2 3.2 16.7.4 4.2-2 8.2-4.5 12.6-6.2 2-.8 4.4-1.8 6.7-1.8 3.1 0 6.2 1 9.2 1.9" class="b"/><path d="M11.8 29.5c2.2.6 4.5.3 6.7.2q4.6 0 9.2-.6 3.9-.6 7.6-1.9c1.9-.6 3.8-1.6 5.8-2 6.4-1.2 9.2 5.2 16.8 5.5 4.1.5 8.4-.3 12.5.1 3.4.4 6.7 1.7 10 1.8 3.4.2 6.8-.3 10.1-.5q5.2.1 10 1.7c7.3 2.7 10.6 5.6 18.5 2.5 3.8-1.4 7.6-3.6 11.7-3.4 4.5.3 9 2 13.4 2 7 .2 12.4-5 18.5-7.6 7.3-3.5 10.1-2.1 17.6-.2" class="b"/><path d="M11.8 25c2.2.6 4.5.2 6.7.3 2.8.1 5.6.6 8.4.6q4.4 0 8.4-1.7c2-.9 3.8-2.1 5.8-2.7 4.9-1.6 8.5 2.8 12.6 4.4 5.6 1.8 11.1-1.5 16.8-1 3.7.4 7 2.5 10.8 3 3 .5 6.2.2 9.3 0q5 0 10 1.2c2.9.8 5.6 2.3 8.4 3.4q4.5 1.7 9.2.8c3.3-.5 6.6-1.8 10-2s6.8.4 10 .4q6 .3 11.8-1.4c3.2-1.1 6.2-3 9.2-4.5a30 30 0 0 1 10-3c3.7-.2 7.4 1 11 1.3" class="b"/><path d="M11.8 19.5c2.8.6 5.7-.2 8.4.6 4.6 1.2 9.6 3.1 14.2 1.2 2-.7 4-2.1 5.9-3a8 8 0 0 1 7.5.3c2.7 1.4 5.3 3.6 8.4 3.6 5.2-.1 9.8-4 15.1-3.4 3.3.5 6.1 2.8 9.2 4q4.5 1.7 9.2 1.5 2.6.2 5 .3 5.3-.2 10.1 1.6 3 1.2 5.9 2.3 3.7 1.1 7.5 1.3c3.3.1 6.7-.4 10-.5 3.1 0 6.2.2 9.3-.3a93 93 0 0 0 13.4-3.1c3.9-1.4 7.6-3.4 11.7-4.3q3.7-1 7.5-1c3.4 0 6.8.4 10 .3" class="b"/><path d="M11.8 14c2.2.3 4.5-.2 6.7.2 8.2 2 11.7 6.1 20.1 1 2.6-1.3 5.7-2 8.4-.6 2.6 1 4.8 3 7.5 3.6 5.7.7 9.7-4.7 15.1-5.4 3.2-.5 6 1.7 8.4 3.4q3.4 2.6 7.5 4 4.1 1.2 8.4 1.3c2.2 0 4.5-.4 6.7-.3 3.5 0 6.8 1.2 10 2.4a45 45 0 0 0 11.8 2.4q5 .4 10 .3c6.7-.6 12.8-3.8 19.3-5.1 9.3-2.6 19-2.8 28.5-4" class="b"/><path d="M11.8 10c2.2-.1 4.5-.6 6.7-.1 7.2 1.8 11.8 5.8 19.3 2 2.9-1.4 6.2-2 9.2-.6 2.3 1 4.4 2.5 6.7 3.3 5.3 1.3 9.5-4.4 14.2-6 8.4-3.3 11.2 9.2 25.2 9.7 4.2 0 8.3-1.8 12.5-1 4.3 1 8.3 2.9 12.6 3.8q4.1.9 8.4 1 3 .4 5.8.3c5-.5 9.5-3 14.3-4.2 5.1-1.4 10.6-1 15.9-1.6 5.9-.6 11.7-2.2 17.6-3.3" class="b"/></svg>