<svg xmlns="http://www.w3.org/2000/svg" id="a" width="1920" height="2400" viewBox="0 0 192 240"><defs><style>.b{fill:none;stroke:#fff;stroke-miterlimit:10;stroke-width:.4px}</style></defs><path d="M0 0h192v240H0z" style="stroke-width:0"/><path d="M8.5 227.4h81c1.2 0 2.3-1 3.4-1.4q2.6-1 5.3-1t5.2 1c1.1.4 2.3 1.3 3.5 1.4h76.6M8.5 222.7h172.4c.8 0 2 0 2.6-.3M8.5 218h173.3l1.8-1M8.5 213.2h175M8.5 208.5h175M8.5 203.8h175M8.5 199h8.7q1.6-.2 3.4-.2 5.7.4 11.4.2h22.6q2.6-.8 5.2-1.1c3.5-.5 7 0 10.5.5 2.8.5 5.9.9 8.7.2l5.2-1.5q6.5-1.6 13-2.3l10.5-.9c3.8-.3 7.8-.3 11.4 1q4.5 1.6 8.7 3.9 1.2.3 2.6.2h53.1" class="b"/><path d="M8.5 192.3c2.8-.6 5.7-1.6 8.7-2 3.5-.5 7 .6 10.4 1.5 3.7 1 7.5 2 11.3 2 4-.1 7.8-1.6 11.4-3a24 24 0 0 1 8.7-1.6c4.1 0 8.2 1.4 12.2 2.3 4.2 1.1 7.2 1 11.3-.7l11.3-3.7q6.8-2 14-2.8c3.2-.4 6.6-.3 9.5 1.2 3.2 1.4 6 3.6 8.7 5.7l2.6 2.2c.4.3 1.3.9 1.8 1h53.1" class="b"/><path d="M8.5 182.3c3.4 0 7-.2 10.4.4 4.3.8 8.6 2.3 13 2.5 6.1.4 11.8-2 17.5-3.6 4.3-1.1 9-.3 13 1.1 4.6 1.6 9 4 14 4.2 3 0 6-1.6 8.7-2.7q6-3.1 12.2-5.6c4.7-1.8 9.8-3 14.8-2.6q3.9.6 7 3 4.2 3 7.8 6.7c1.4 1.2 2.7 3 4.4 3.9h52.2" class="b"/><path d="M8.5 173.2c6 1 11.5 4 17.4 5.6 8.5 2.2 14-2 21.8-4 7.4-1.5 14.2 3.1 20.9 5.7 6.7 2.7 10.4 2 16.5-1.7 5.6-3.2 11-7 17.4-8.6 4.3-1 9-1.3 13.1.6 6.9 3.2 11.7 9.4 17.4 14h50.5" class="b"/><path d="M8.5 165.6c10.3 3.4 16.5 13.3 28.7 8.7 5.4-2 9.7-5 15.7-3.3 7.6 1.8 14.5 7.2 22.6 6.6 5.3-.6 9.6-4.2 14-7 5.2-3.3 11-6.4 17.4-6.3 11.8 0 20.6 9.2 29.6 15.6 2 .5 4.1.1 6.1.2h40.9" class="b"/><path d="M8.5 159.8c9.2 3.2 15.3 14.6 26 13 8-1.4 10.5-5.2 19.2-2.8 13.6 3.6 20 6 32.3-3 6.3-4.4 13.7-8.7 21.8-7.5 12.8 1.6 24 8.7 34.8 15.5l.9.4h40" class="b"/><path d="M8.5 156.4c8.5 2.3 13.4 11.1 21.7 14 1.4.5 3 .2 4.4.3l6-.1c3.5-.9 7-1.6 10.5-1.1 11.2 1.2 19.7 1.4 29.7-4.8 4-2.6 7.9-5.6 12.2-7.8a27 27 0 0 1 20.9-1.6 97 97 0 0 1 30.5 13c1 .7 2.3 1.8 3.4 2.4h35.8" class="b"/><path d="M8.5 154.7c6.8 1 12 6.2 17.4 10l1.7 1.1q2.2.1 4.4.1h32.2q4 .2 7.8-.1c7.7-2.8 13.8-8.5 21-12.2a27 27 0 0 1 11.3-3 76 76 0 0 1 19.1 2.8q10.4 2.6 20 7c3 1.5 5.4 3.7 8 5.5h32.1" class="b"/><path d="M8.5 153.6c6.2 0 11.5 2.4 16.5 6l2.6 1.6h47.9c1.1 0 2.5.2 3.5-.3l6.1-3.9c4.6-3 9.5-5.9 14.8-7.2 9.8-2.3 20-.1 29.6 1.7l10.5 2.1q5.7 1 10.4 4.3 2.3 1.5 4.4 3.2c3.1.3 6.4 0 9.6.1h19.1" class="b"/><path d="M8.5 152q4.8-.6 9.5-.5 3.4.6 6.1 2.1l4.4 2.6c1 .5 2.4.2 3.5.3h53.2c1.7-.7 3.4-2 5.1-2.8a49 49 0 0 1 24.4-5.7q5.3.2 10.5.8 6.5.8 13 1 3.5 0 7 .2 4.1.5 7.9 2.4 2.2 1.1 4.3 2.5 1.3 1 2.6 1.6h23.6" class="b"/><path d="M8.5 148.9c9.8-2.1 11.3-4.8 20.9 1.1l2.6 1.7h60c1.5 0 3.1.2 4.4-.4q5.6-1.7 11.4-2.8 3.8-.8 7.8-1.1c5.8-.2 11.6.5 17.4.2 13.2-.7 18-5.5 30.5 3.1l1.7 1h18.4" class="b"/><path d="M8.5 144c7.2-2.1 10.5-6.4 18.2-2.4q3.2 1.6 6.1 3.8c1 .7 2.2 1.8 3.5 1.6h73.2c2.3.2 4.7-.4 7-.7q5.2-.3 10.4-.5a75 75 0 0 0 20-4.3c5.8-1.9 11.5-.9 16.6 2.2l3.5 2.1 1.7 1.1 1.8.1h13" class="b"/><path d="M8.5 138c3.2-1.2 6.3-3 9.5-4 6-1.4 11.2 3.2 15.7 6.5 2.2 1.9 2.4 1.8 5.2 1.8h95.9l6-1.9c11.5-4.4 15.6-6.3 27 .3l2.7 1.4c1.3.3 3 .1 4.3.2h8.7" class="b"/><path d="M8.5 132.4c9.5-3.5 11.8-5.7 20.9.9l5.2 4c2 .5 4.1.1 6 .2h98.5c1.7 0 3.6.3 5.3-.2 2.8-1.3 5.7-2.9 8.7-3.8q5.1-1.7 10.4-.2c3.9 1 7.4 3.4 11.3 4.2h8.7" class="b"/><path d="M8.5 127.2q4.7-1.1 9.5-1.8c5.8 0 10.4 4.2 14.8 7.3 30.2.3 60.4 0 90.6.1H147c1.2.2 2.4-.5 3.4-1.1q2.6-1.5 5.3-2.4c8.2-3 14.2 2 21.8 3.5h6" class="b"/><path d="M8.5 122.4H18a24 24 0 0 1 9.6 3.9l2.6 1.6c2 .4 4.1.1 6.1.2H147c1 0 2.4.2 3.4-.3a30 30 0 0 1 7-3.1c6.3-2 12.4 1.5 18.3 3.4h7.8" class="b"/><path d="m8.5 117.7 6 1.2c2 .3 4.2.4 6.1 1.1q2.7 1 5.3 2.3c1 .5 2.2 1.2 3.5 1h113.3q3 .2 6 0 2.6-1.3 5.2-2.3c7-2.4 11.2-.1 17.5 2.4h12.2" class="b"/><path d="M8.5 112.8q3 1 6 1.9 2.7.4 5.3 1c2.7.7 5.2 2.3 7.8 3h82.8q2.2-.8 4.3-1.2c3.8-.5 7.6.2 11.4.6q5.6.7 11.3.4 4-.2 7.8-1c4-1 8-2.5 12.2-2q3.2.5 6.1 1.8c1.1.4 2.3 1.4 3.5 1.3h16.5" class="b"/><path d="M8.5 108.6q3 1.3 6 2.3l4.4.7c2.7.5 5.2 1.8 7.9 2.3H106c7.8-7.4 16.1-3.9 25.3-2.4q6 1 12.2.8c4.6-.4 9.4-1.3 14 0 1.7.4 3.4 1.7 5.1 1.6h21" class="b"/><path d="M8.5 104.8c2.4 1 5 2.3 7.8 2.7q4.4.5 8.7 1.7h78.4c1.2-.6 2.4-1.9 3.5-2.7q2.4-1.9 5.2-3c6.1-2.2 12.5.6 18.3 2.4q5.1 1.9 10.5 2.6c3.4.4 7 .1 10.4.5 3.7.3 7.6 0 11.3.2h21" class="b"/><path d="M8.5 100.7q3.3 1.7 7 2.3 2.6.2 5.1.6 2.3.5 4.4.8h77.5c12.5-8.9 16.1-8 29.7-1.8l4.3 1.8q4.4.1 8.7 0h38.4" class="b"/><path d="M8.5 95.8q3.3 1.3 7 1.8 3.8-.1 7.8 1 2.1.6 4.3 1.1h74.9c3.7-.8 7-2.7 10.5-4 6.8-2.6 13.9 1 20 3.8q1.4.3 2.6.2h47.9" class="b"/><path d="M8.5 89.9q3 .8 6 1.1c2 .2 4.2-.2 6.1.3a41 41 0 0 1 7 2.4C29 94 30.5 95 32 95h76.7q1.3 0 2.5-.2l3.5-1.4q4.8-1.3 9.6-.4c2.7.4 5.2 1.5 7.8 2h51.5M8.5 83q3 .6 6 .7c2 0 4.2-.3 6.1.2 6.1 1.3 11.3 5.2 17.5 6.3h7.8c1.5-.2 3-1 4.4-1.2q3-.5 6 0c2 .4 4.1 1.4 6.2 1.2h21.8q3.8-.2 7.8 0h27a34 34 0 0 1 7-.8c4.3-.1 8.7 1 13 .8h44.5M8.5 76.5q3 .2 6 .1c1.5 0 3-.4 4.4-.4 5.8 0 11.1 2.8 16.6 4.5q4.6 1.7 9.5 1.5c2-.1 4.1-1 6.1-1.2 6.6-.7 12.8 2 19.2 3q3.5.5 7 .5c1.7 0 3.5-.4 5.2-.3q2.2.1 4.4.8 1.6.6 3.4.5h27c1.8 0 3.7.3 5.3-.5 5-1.8 10.4-2.2 15.7-2.2 2.3 0 4.7-.4 7 0q3.2.8 6 2.7h32.3" class="b"/><path d="M8.5 71.7c3.8 0 7.5-.8 11.3-1.5 5.5-1 11.2.1 16.5 1.6 4 1 8 2.4 12.2 1.8 7-.8 14 .6 21 1.8 4 1 8.2 1.6 12.1 3 1.8.5 3.5 1.9 5.3 2.4h33.9q1.4-.8 2.6-1.2 3.4-1.5 7-2.3 7-1 14-1c3.3.4 6 2.6 8.7 4.5h30.5" class="b"/><path d="M8.5 69.1q5.3-.5 10.4-2.4c5-2 10.3-3.9 15.7-3 3.8.3 7.5 1.9 11.3 2.7q3.9.7 7.8.7c12.8.1 21.3 0 31.4 9H119q1.5 0 2.7-.2l1.7-.8c5-2.2 10.4-2.2 15.7-2h4.4a15 15 0 0 1 7.8 3h32.2" class="b"/><path d="M8.5 68.2q5.4-.7 10.4-3.3c5.2-2.8 10.3-7.2 16.6-6.9 6.9.3 11.8 5 19.1 4.4 4 0 8.1-.9 12.2-.8 7.8 0 12.6 4 17.4 9.7h39.2c1.7 0 3.5-.6 5.3-.5q3 .1 6 .5h48.9" class="b"/><path d="M8.5 66.6h3.4q2.7-.7 5.3-1.9c6-3 10.4-9.1 17.4-10s12.3 5.2 19.1 4.7c3.9-.2 7.6-1.5 11.4-2.2 9-1.9 14 2.5 19.1 9.4h99.3" class="b"/><path d="M8.5 61.9h11.3c8.5-6 13.6-11 24.4-6.4C48 57 51.3 58 55.5 57c5.7-1.2 11.3-4.6 17.4-3.7a16 16 0 0 1 9.6 6c.7.8 1.5 2.2 2.6 2.6h98.4" class="b"/><path d="M8.5 57.1h18.2a30 30 0 0 1 20-2.2q5.5.6 10.5-1c10.5-3.2 18.5-5.6 27 3.2h99.4" class="b"/><path d="M8.5 52.4h37.4c2 0 4.1-.7 6.1-1q4.4-1.1 8.7-1.8 8-1.3 15.7.4 3.6.8 7 2.4h100.1M8.5 47.7h39.2c1.8.1 3.4-1.2 5.2-1.5q4.3-1.1 8.7-.8c4.7.3 9.3 1.6 14 2.3h108M8.5 43h38.3c1.6.2 3-1.2 4.3-1.7A15 15 0 0 1 59 40q3.5.5 7 1.7l3.4 1.2h114.2M8.5 38.2h38.3c1.6.2 2.9-1.5 4.3-2Q55 34.5 59 35q4 .7 7.8 2.3l1.8.7c1 .2 2.4 0 3.4.1h111.6M8.5 33.5h39.2c6.6-5 13-2.9 20-.2 1.6.4 3.5.1 5.2.2h80.2c4-1.2 8-2.7 12.2-2.7q5.9.1 11.3 2.6 3.4.2 7 0M8.5 26.6l7.8 1.6q2.6.8 5.2.6h26.2c4.8-3.4 10.4-2.5 15.6-.7 2 .9 4.1.7 6.1.7h65.4l8.7-.1 5.2-1.4a40 40 0 0 1 25.3-1.5q2.6.8 5.2 2 1.2.6 2.6 1h1.7M8.5 19.9q6.1 1.8 12.1 4.1h27.9l2.6-.8q3.1-.4 6.1.3 1.8.5 3.5.5h74q1.6-.2 2.7-.8 1.6-.8 3.4-1.3c7.4-2 15-3.7 22.7-3.4q5.7.1 11.3 1.6c3 .7 5.8 2 8.7 2.7" class="b"/><path d="M8.5 14.5q5.7 2.1 11.3 4.8H133c7.7-5.3 16-6.8 25.3-6.7q8.3 0 16.5 1.5 4.4 1 8.7 2.1" class="b"/></svg>