<svg xmlns="http://www.w3.org/2000/svg" id="a" width="1920" height="2400" viewBox="0 0 192 240"><defs><style>.b{fill:none;stroke:#fff;stroke-miterlimit:10;stroke-width:.4px}</style></defs><path d="M0 0h192v240H0z" style="stroke-width:0"/><path d="M8 232.7h15.8c1.7 0 3.5-.5 5.2-.5q3.1 0 6.2.5h17.5q2.6-.6 5.2-.4c2.6.5 5.3.3 7.9.4h68.3l2.6-1.5q2.6-1.6 5.3-2.8c5.8-2.8 11-7 17.4-8.7 5.3-1.4 10.8-.3 15.8 1.4a34 34 0 0 1 8.8 5.5" class="b"/><path d="M8 228h19.3c2.3 0 4.7-1 7-1q5.3-.1 10.5-.2c2.6 0 5.3-.7 7.9-.8q3.1-.3 6.1.7c1.2.3 2.3 1.2 3.5 1.2h63.8q4 .2 8-.1 2.5-1.8 5.2-3.5 4-2.2 7.9-4.8c3.7-2.5 7.3-5.2 11.4-7 8.9-4.2 18.1-1.3 25.4 4.8" class="b"/><path d="M8 223.2h19.3c2-.6 4-1.8 6.1-2.5q4.7-1.5 9.7-2a26 26 0 0 1 14.8 2l2.7 1.7q.8.7 1.7.8h71.8q3.4-2.4 7-4.7 4.6-2.5 8.7-6c11.8-10 20.3-14.8 34.2-4.8" class="b"/><path d="M8 218.4h16.7c1.5.1 3-1.3 4.3-2q3-1.6 6.2-3c5.5-2.2 12-2.7 17.5 0 2.8 1.1 5.3 3.3 7.9 5h75.2l1.8-1.3c2.7-2 6-3.4 8.7-5.4 8-5.7 14.8-15.3 25.4-15.3 4.4.2 8.4 2.2 12.3 4.1" class="b"/><path d="M8 213.7h8c1.6-.2 3.6.3 5.2-.3 4.4-1.7 8.6-4.1 13.1-5.7 9.4-3.2 16.4-.4 23.6 5.8 8.2.3 16.4 0 24.5.1h56.1c3.2-1.7 6.7-3.1 9.6-5.3 7.3-5.4 14-13.6 23.6-14.2 4.2 0 8.3 1.5 12.3 2.7" class="b"/><path d="M8 205.9q4-1 8-1.1 4.3.3 8.7-.8c12.1-3 20.3-3 30.6 4.9h76.1q6.6.2 13.2-.1 3.7-1.8 7-4.2c6.3-4.3 13-9.7 21-9.8 3.8 0 7.6.8 11.4 1.3" class="b"/><path d="M8 196.6q3.5-1.2 7-1.2 3.5.6 7 .7 6.7-.2 13.2.8 9.1 1.8 17.5 6.4l1.7.9h91.9c1.4-.1 3 .1 4.4-.2l2.6-1.3a45 45 0 0 1 19.3-6.4q5.6.2 11.4.2" class="b"/><path d="M8 189c4.8-2.2 7.3-2.1 12.3-1a99 99 0 0 1 22.8 7c8 3.3 16.6 5 25.3 4q4.5-.4 8.8-.3c2.3.2 4.6 1 7 .7h75.2c3 0 5.9-.7 8.8-.8q7.9-.2 15.8-1.2" class="b"/><path d="M8 183.2c3.9-2.2 7-3.2 11.4-2.1 10 1.9 18.1 8.9 28 10.7 11.2 1.7 21.3-7.2 32.4-5.1 6.3 1.3 12 4.6 17.5 7.8 2.6.4 5.3 0 7.9.1H184" class="b"/><path d="M8 179.4c2.5-1.4 5-3 8-3.3 8.6 0 15.7 6 23.5 8.9 6.2 2.4 11 1.7 16.7-1.4 8.6-4.6 18.2-10.2 28-5.2 6 3.2 10.8 8 16.6 11.5H184" class="b"/><path d="M8 177c3.2-2 6.7-4.2 10.5-3.7 12.6 1.4 22.1 13.7 35 5 4.8-2.8 9.4-6.2 15-7.5 4.7-1 11.4-.8 15.7 1.6 8 4.4 15.5 13.5 25.4 12.7H184" class="b"/><path d="M8 174.8c2.8-1.3 5.6-3.1 8.8-3.4 10.8-.6 20.5 9.7 31.5 5.2 3.7-1.6 7-4.1 10.5-6 7-4 12.5-3.7 20.1-2.3 3.8.3 7.2 2.3 10.5 4 6.8 4 13 6.2 21 5a18 18 0 0 1 9.7 1.2l2.6 1.1c.7.4 1.8 1 2.6.8H184" class="b"/><path d="M8 171.8c3.2-1 6.3-2.7 9.7-2.6 6.5.2 12.2 4 18.4 5.7q3 1 6 .8 2.8.2 5.3-.7c6-2.3 11.1-6.7 17.5-7.6 3.8-.7 7.7 0 11.4.7 3.2.5 6.5.7 9.6 1.7a36 36 0 0 0 17.5 1.7c3.2-.5 6.4-1.6 9.7-1.6 3.1 0 6 1.4 8.7 3l3.5 2.4q1.2.5 2.6.3h56" class="b"/><path d="M8 168.3c6.3-.8 9.7-1.5 15.8 1l3.5 1.5q2.2.2 4.4 0h21c1.2.2 2.4-.8 3.5-1.2q3-1.2 6.1-1.9c6-1.2 11.7 1.5 17.5 1.7 8.2.5 13 1.4 21-2 4-1.6 7.9-4 12.3-4.2 3.9 0 7.5 2 10.5 4.3 1.4 1 2.8 2.5 4.4 3.4h56" class="b"/><path d="M8 164.9q3.5.8 7 1.2h75.3c2 0 4.2.3 6.1-.2q1.9-.8 3.5-1.8c3.2-1.9 6.3-4.2 9.7-5.6 7.8-3.2 14.8 2.2 20.1 7.6H184" class="b"/><path d="M8 161.4h90.2q1.8-.9 3.5-2c2.8-1.7 5.6-3.8 8.7-5 9-3.2 15 .2 21 6.8 2.3.4 4.8.1 7 .2H184" class="b"/><path d="M8 156.6h85.8c2.3 0 4.8.3 7-.2l3.5-1.8q2.6-1.5 5.3-2.7 3.4-1.3 7-2.2c6.8-2 12.2 2 16.6 6.8 2.3.3 4.7 0 7 .1H184" class="b"/><path d="M8 151.9h57.8c1.2 0 2.4-.8 3.5-1q2.6-.7 5.3-1c2.5 0 5.2-.6 7.8-.2 2.7.4 5.3 1.7 8 2.2h7.8c1.7-.1 3.6.2 5.2-.3 2.7-1 5.2-2.3 8-3.1 5-1.7 10.3-4.8 15.7-2.2q4 2 7 5.3 1.2.4 2.6.3H184" class="b"/><path d="M8 147.1h57.8q5.1-3.7 11.4-4.5c2-.3 4.1-.6 6.1 0 2.7.9 5.3 2.3 7.9 3.4 1.3.5 2.9 1.3 4.4 1.1q4.7.2 9.6 0l7.9-2.4q3-1.3 6.1-2.3c5.2-1.7 10 .3 14 3.8 1 1.3 3 .9 4.4 1h40.2c2-.2 4.3.3 6.2-.7" class="b"/><path d="M8 142.4h57.8c4.2-4.4 10.3-8.3 16.6-7 4.4 1.2 8 4.2 12.3 5.9q1.6.7 3.5 1h3.5c2 0 4.1.3 6.1-.2 11-1.8 15.6-8 26.3.3h43.7q3-.8 6.2-1.3" class="b"/><path d="M8 137.6h57.8c1.8-1.5 3.4-3.5 5.3-5 2.9-2.2 6.7-3.8 10.5-3.2 3.8 1 7 3.4 10.5 5.2 5.8 3.2 11 3.5 17.5 2.3 8.8-1 13.6-5.8 22.7-.6.8.5 1.7 1.2 2.6 1.3h33.3c1.8.3 3.5-1 5.3-1.2 3.4-.4 7 .1 10.4.4" class="b"/><path d="M8 132.9h57.8c1.4-.4 2.4-2.1 3.5-3a17 17 0 0 1 7.9-4.3c6-1.2 11.1 3.4 16.6 5.1 4.2 1.6 8.8 1.6 13.1.8q3.6-.4 7-.8c4-.8 8.1-2.3 12.3-1.7q3.6.6 7 2.3c1.1.5 2.3 1.5 3.5 1.6h27.1q1.8-.7 3.5-1.6c6.5-3.3 10.3-.6 16.6 1.1" class="b"/><path d="M8 128.1h58.7c13.8-12.8 20.1 1.3 35-1.7 2.6-.4 5.2-1.2 7.9-1.5 1.7-.2 3.5 0 5.2-.4 3.7-.7 7.6-1.7 11.4-1.3q4.6.7 8.7 2.9c1.7.7 3.4 2.2 5.3 2h16.6c1.2 0 2.4-.8 3.5-1.3q3.5-1.6 7-3c6.9-2.7 10.7 1 16.7 3.5" class="b"/><path d="M8 123.4h39.4l18.4-.1q3.2-2.4 7-3.4c3.4-1 7.1-.6 10.5.3a30 30 0 0 0 22.8-.6q2-.7 4.3-.9 1.8 0 3.5-.2l7-1.2c9.3-1.3 14 3.6 22 6h5.2q1.7.2 3.5-.1c7.3-1.7 15.4-9.4 22.7-7.7 3.5 1 6.4 3.4 9.7 5" class="b"/><path d="M8 118.6h48.2c2 0 4.1.3 6.1-.2a30 30 0 0 1 20.1-3.5c5.8 1 11.7 2 17.5.7 3-.6 5.9-1.6 8.8-2.1 2.3-.4 4.7-.2 7-.6a29 29 0 0 1 20.1 2c7 3.2 11.5 3.6 18.4.1 6.4-2.8 13.7-9.9 21-7.6 3.2 1.2 5.9 3.4 8.8 5" class="b"/><path d="M8 113.9h44.7q1.8 0 3.5-.9a52 52 0 0 1 16.6-3.7l5.3-.5q3-.8 6-.8c6 .1 11.8 1.2 17.6.8l13.1-.8c5.5-.7 11.2-.8 16.6.8 8 2.2 12.2 4.3 20.2.2 7.3-3.4 15.1-11.1 23.6-9 3.2 1 6 3.3 8.8 5" class="b"/><path d="m8 108.2 1.8.8q2.6.1 5.2.1h29.8c1.1 0 2.5.2 3.5-.3 8-4.6 15.8-4.3 24.5-5.6 3-.5 6-1.8 8.8-3a18 18 0 0 1 7-1c5.3.3 10.5 2.2 15.7 3.2q5.3.9 10.5.4a54 54 0 0 1 13.1 1c4.4.8 8.7 2.1 13.2 2 6.1-.4 11.3-4.3 16.6-7 5.5-3 12-5.6 18.4-3.8 2.8 1 5.3 2.8 7.9 4.3" class="b"/><path d="M8 101.7c1.7.8 3.4 2.2 5.3 2.7h34.1c8.2-6.1 18.3-4.4 27.2-8.3 6.3-3 8.5-7.5 16.6-6 6.2 1.3 11.3 5.7 17.5 7 1.7.3 3.5 0 5.2 0 5 0 10 1.2 15 2.4 4.5 1 9.3 2 14 .6 5.7-2 10.7-5.7 16.5-7.5a35 35 0 0 1 16.7-.8c2.7.7 5.3 2.2 7.8 3.5" class="b"/><path d="m8 95.5 7 4.1h34.2C55.7 95.2 64 95 71 91.4q3.9-1.9 7-4.5c1.4-1.1 2.9-2.6 4.4-3.5 8-5.4 15.8 2 22.8 5.6q3.3 2 7 1.6 3.5-.1 7 .7c6.4 1.5 12.6 4.7 19.2 4.3 3.1-.2 6-1.6 8.8-3q4.6-2.2 9.6-3.6c4.6-1.1 9.4-.6 14 .1 2 .4 4.2.3 6.1.7q3.7 1 7 2.5" class="b"/><path d="M8 89.2c3.8 2 7.7 3.6 11.4 5.7h30.7c4.4-2.5 9.3-4 14-5.7q6.5-2.6 12.2-6.8c4-3.2 7.6-7.3 13.1-7.2 6.6.1 11.7 5 17.5 7.3q1.7.7 3.5.7 2.7-.2 5.3.2c4 .7 7.7 2.5 11.4 4 4.9 2.1 10.4 4.2 15.7 2.4 8-3.2 14-5.8 22.8-4.3q5.2.9 10.5 1c2.6.3 5.3 1.3 7.8 2" class="b"/><path d="M8 83.6q5.4 1.8 10.5 3.9c5.4 2.6 3.5 2.7 9.7 2.6h22.7c1.5-.2 3-1 4.4-1.3q3.6-1.2 7-2.5c5.1-2.1 9.8-5.3 14-8.8 4.5-4 9.3-8.4 15.8-7.7 6 .5 10.9 4.5 16.6 6 2 .4 4.1 0 6.1.5 5.8 1.4 10.6 5.4 15.8 8.2 3.9 2.2 8.6 4 13.1 2.4 3.8-1.2 7.5-2.6 11.4-3.4 5.1-1.2 10.5-1 15.7-1.1 2 0 4.1-.5 6.2-.5q3.5.1 7 .8" class="b"/><path d="M8 79q7.2 1.6 14 3.7l6.2 2 2.6.6h22.8q5.5-.5 10.5-2.9c10.7-5 18-19.5 31.5-17 4.2.9 8.1 3 12.2 4.4 2.6.8 5.4.4 7.9 1.5 6.2 2.7 11 7.7 16.6 11.2 2.6 1.7 5.6 3.2 8.8 2.9q3 0 6.1-1l7-2 15.8-4q3.4-1 7-2 3.4-.7 7-.6" class="b"/><path d="M8 75.3q5.3 1.2 10.5 1.6c5 0 10-.2 15 .6 3.7.5 7.5 1.6 11.3 2.2 2.6.4 5.3.4 7.9.9h7.9q2.2-.6 4.3-1.6c5-2.7 8.9-7.2 13.2-10.8 5-4.1 11.6-7.7 18.4-6.1 4 .7 7.6 2.7 11.3 4 2.3.9 4.8.8 7 1.7 6 2.6 10.5 7.3 15.8 11 1 .6 2.2 1.7 3.5 1.8h16.6c1.7-.1 3.6.3 5.3-.3 5.1-1.6 10-4 14.8-6.4 4.2-2.2 8.5-4.4 13.2-5" class="b"/><path d="M8 72.2c10.2 2.7 11.9.1 21-2.1q5.9-1.2 11.4.7 4.8 1.8 9.7 3.4c1.7.5 3.4 1.7 5.2 1.7h6.1c1.5-.1 3.2.2 4.4-.6 4.7-2.5 8.2-6.9 12.3-10.2 5-3.6 11.1-6.8 17.5-5.6 4.3.8 8.2 3.2 12.2 4.8 2 .9 4.2 1.1 6.2 1.8q4.1 1.7 7.8 4.1 4.4 3 8.8 5.6h29.7q1.5-.2 2.7-1c7.1-3.5 13.1-9.6 21-11.5" class="b"/><path d="M8 69.3c4.4 1.4 9 1.8 13.2-.6 13.2-7.5 15.6-6.3 28.9-.1 1.7.8 3.3 2.1 5.2 2.5h8.8c2.6 0 3.1.1 5.2-1.5 2.8-2 5.2-4.7 7.9-6.9 4.2-3.2 9.5-5.7 14.9-5.6 5.7.3 10.6 3.8 15.7 6.2 2.2 1 4.7 1.4 7 2.2 4.2 1.4 8.2 3.5 12.3 5.2q1.2.6 2.6.4H162c.8 0 2 0 2.6-.5 6.7-3.2 12-9.1 19.3-11.1" class="b"/><path d="M8 66.4h12.3l1.7-1c9.4-5.9 14-8.2 24.6-3q4 1.7 7.8 4h13.2c1.3-.2 2.4-1.4 3.5-2q3-2.6 6-5a20 20 0 0 1 18.5-2.9c4.9 1.8 9 5.2 14 7 2 .7 4.1.9 6.1 1.4q3.5.8 7 1.4h45.5c5.5-2.2 9.9-6.9 15.8-8.2" class="b"/><path d="M8 61.6h16.7c1.5-.6 3-1.8 4.4-2.6q8-5.1 16.6-1.5l5.2 2.5c1.1.6 2.3 1.5 3.5 1.6h14c1 0 1.9-.7 2.7-1.1l3.5-2.4c3.7-2.8 8.5-4 13-3.3 4.8.7 9.1 3.2 13.2 5.5l2.6 1.3h70.9c1.3 0 2.4-1 3.5-1.5q3-1.6 6.2-2.3" class="b"/><path d="M8 56.8h20.2c4.4-2.7 9.5-5.5 14.9-4.1q3.1.7 6 2.5l2.7 1.4q1.3.3 2.6.2h16.7c.8.2 1.8-.4 2.6-.7 4.1-2.2 7.8-2.6 12.2-1.1 1.8.4 3.5 1.6 5.3 1.9h88.4q2.2.1 4.4-.4" class="b"/><path d="M8 52h22c4.8-2.6 10.2-4.6 15.7-2.1 1.7.6 3.3 2.4 5.2 2.2h133M8 46.2l3.5 1.1h17.6q3.3-1.4 7-2a15 15 0 0 1 10.5 2H184M8 37.5c3.4 0 6.7 1.3 9.7 2.7 5 1.8 10.5 0 15.7 0q3.6-.2 7 1c1.5.3 2.9 1.5 4.4 1.4H184M8 28.6c5-1 7.1.7 11.4 2.2 3.7 1.1 7.7 1.4 11.4 2.2q5.6 1.2 10.5 4.2 1.2.8 2.6.6h136.6l3.4-.7" class="b"/><path d="M8 20.9c3.8-1.5 6.9-1.2 10.5.4q5 1.6 9.7 3.6a59 59 0 0 1 12.2 7.4q1.1 1 2.7.8h125.1c1.2-.1 2.4-1 3.5-1.4 1.6-.7 3.5-.6 5.3-.8q3.4-.7 7-1" class="b"/><path d="M8 14.6c4-2 7.2-2.4 11.4-.7 8.2 2.9 14.5 9.1 21 14.4q63 .1 126 0c2.2-1.6 4.5-3.3 7-4 3.5-.5 7-1.3 10.6-1.4" class="b"/><path d="M8 9.7c2.7-1.3 5.7-2.7 8.8-2.3C25.8 9 32 17.7 38.7 23.6h121.6c1.7-.1 3.6.2 5.3-.3l1.7-1.2c2.1-1.6 4.4-3.2 7-3.8 3.2-.5 6.4-1.5 9.6-1.4" class="b"/></svg>