<svg xmlns="http://www.w3.org/2000/svg" id="a" width="1920" height="2400" viewBox="0 0 192 240"><defs><style>.b{fill:none;stroke:#fff;stroke-miterlimit:10;stroke-width:.4px}</style></defs><path d="M0 0h192v240H0z" style="stroke-width:0"/><path d="M10 222.2c4.6-1 9.3-1 13.7-2.1 10.9-2.8 16.1 1.2 24.8 6.7q3 1.6 6 3.5c1.4.7 2.8 1.8 4.3 2h83.8c1.7-.1 3.5.1 5.1-.2 3.5-1.7 7.2-3.6 11.2-3.5 3.4 0 6.5 2 9.4 3.6H182" class="b"/><path d="M10 214.8q6-1.8 12-2.5 8.7-1.8 16.3 2.6 4.4 2.7 8.5 5.6l12 7q8.5.2 17.1 0h59q2.6.1 5.1-.7 4.6-.7 8.6-3c9.3-5 15-4.2 23 2.6l1.8 1.2h8.6" class="b"/><path d="M10 209.8a36 36 0 0 1 18-4.1c4.7.4 9 2.8 12.9 5.4q4.7 3.4 10.2 5.8c3.2 1.6 6.3 3.7 9.4 5.5 1 .7 2.3.5 3.4.6h69.3l5.1-1.8q2.6-.7 5.2-1.2c3.2-1 6.2-2.8 9.4-4 6.8-3 12.8-1.7 18.8 2.5q1.8 1.1 3.4 2.5c.7.6 1.7 1.6 2.6 2h4.3" class="b"/><path d="M10 206.5q3.4-2.2 6.9-4 4.1-1.5 8.6-1.8c5.6-.2 10.7 2.6 15.3 5.5q3.3 2.1 6.9 3.6 2.6.8 5.1 1.7c4.1 1.8 8 4.4 12 6.4 1 .6 2.3.3 3.4.4h65c3-1.1 6.1-2.7 9.4-3 3.3-.6 6.3-2 9.4-3.1a23 23 0 0 1 20.5 1.2q3.3 1.8 6 4.4c1 .7 2.4.4 3.5.5" class="b"/><path d="M10 203.7q3.4-2.5 6.9-4.8a20 20 0 0 1 19.7.9c3.4 1.7 6.6 4 10.2 5.1 1.4.5 3 .5 4.3.8q3 .6 6 1.7c5.4 2 10.6 5 16.3 6.3h12.8c4.4-1.3 9-2.6 13.7-2.2 3.2.2 6.3 1.2 9.4 2.1h20.5q2.6.2 5.1 0 1.3-.7 2.6-1c3-1.2 6.3-1.2 9.4-2 7.1-1.8 14.2-3 21.4-1 2.6.8 5.4 1.5 7.7 3 .3.3 1.3.8 1.7 1h4.3" class="b"/><path d="M10 200.3c2.3-1.8 4.5-3.9 6.9-5.4a17 17 0 0 1 17.1.2c4.6 2.2 8.7 5.7 13.7 6.7 2.2.2 4.6 0 6.8.3q5.3.5 10.3 1.8c5.8 1.3 11.9 3.3 18 2.3 3.1-.6 6.2-1.8 9.4-2.4 7.7-1.9 14.4 1.3 21.3 4.5.8.3 1.8.8 2.6.7h20.5l4.3-1q6-.8 12-.7c4.3 0 8.6 1 12.8 1.7H182" class="b"/><path d="M10 194.7c3.2-2.5 6.2-5.8 10.3-6.8 9.2-2.1 16 6.2 23.1 10.3q2.4 1.6 5.1 1.8 4.4 0 8.6-.3 8.6-.3 17 .3c3 0 5.8.3 8.6-.2 9-2 14.1-3.9 23.1 0 3.5 1.4 6.8 3.2 10.3 4.6h22.3l2.5-.3a29 29 0 0 1 9.4.3h31.6" class="b"/><path d="M10 188.7c2.8-1.8 5.5-4 8.6-4.9 8.6-2 15.1 5.8 21.4 10.4 2.5 1.9 5.3 3.9 8.5 4 3.8 0 7.5-1 11.2-1.7q6-1.3 12-1.6 5-.2 10.2 0c10-.7 15.3-.4 24.8 3.4q2 1 4.3 1.4h70.9" class="b"/><path d="M10 183c3-1 6.2-2.5 9.5-2.5C27 180.9 33 188 39 192q2.5 1.9 5.2 3h3.4q3 .2 6 0l2.6-.8c4.1-1.4 8.4-2.9 12.8-3.3 7.5-.8 15 .4 22.2 2.6q2.6 1 5.1 1.6H182" class="b"/><path d="M10 177.8c3.2-.4 6.4-.7 9.5-.1 3.1.8 6 2.8 8.5 4.7 3.7 2.7 7.2 5.8 11.1 8h18c8.6-3 13.3-3.5 22.2-1.3q2.2.5 4.3 1.3H182" class="b"/><path d="M10 172.7c12.3 0 15.8 7 24.9 13.1h25.6c2.5 0 5.1-.7 7.7-.3q3.4.5 6.8.3H182" class="b"/><path d="M10 167.3c9.5-.1 14.2 6.2 20.6 12 .7.6 1.6 1.5 2.5 1.8H182" class="b"/><path d="M10 161c4.8-.9 9.6 1.1 12.9 4.5 3.6 3.5 6.7 7.5 10.3 11h148.7" class="b"/><path d="M10 154.4c9-3.2 14.2 5.2 18.9 11.3l3.4 4.5c.3.5 1.1 1.5 1.7 1.7h148" class="b"/><path d="M10 148.5c7-2.4 11.6 1.5 15.5 6.9q2.6 3.6 5 7.3c1.1 1.4 2.1 3.4 3.5 4.5h148" class="b"/><path d="M10 144.3c3.9-.6 8.2.1 11.2 2.6 4.9 4.3 8.2 10.2 12 15.4 1.2.5 2.8.2 4.2.3h133.4q5.5-.9 11.2-1.2" class="b"/><path d="M10 141.6q5.5.8 10.3 3.2c5 3.4 8.3 8.5 12 13 7.4.4 14.8 0 22.2.2h65c1.5.1 3-.9 4.3-1.3q3.3-1.2 6.8-.8c2.7.3 5.2 1.3 7.7 2h32.5l11.1-1.5" class="b"/><path d="M10 139.4q4.7 2.2 9.5 4.3c4.4 2.3 7.6 6.2 11 9.6h88.1c2.4-1.3 4.4-3.4 6.9-4.6 4.7-2.6 9.7-1.8 14.5-.3a25 25 0 0 1 6.9 2.3l3.4 1.7c.7.4 1.7 1 2.6 1h18.8q5.2-.1 10.2-.7" class="b"/><path d="M10 137.3a79 79 0 0 0 10.3 5.6q4.1 2.4 7.7 5.7 29.1.1 58.2 0H117c.5 0 1.3-.7 1.7-1 6.4-6.4 11.9-11 21.3-8 5.3 1 9.3 4.7 13.7 7.5 1.3.8 2.7 1.8 4.3 1.5h23.9" class="b"/><path d="M10 135.5q5 3.2 10.3 5.4c2 .8 4 2.3 6 3.1h88.9q1-.3 1.7-1.1c8.7-8.1 14.2-13.3 26.6-8.7 5 2.4 9 6.7 13.6 9.8H182" class="b"/><path d="M10 133.1q5.4 3 11.2 4.8c1.4.4 2.8 1.3 4.3 1.5H111l2.5-1.4c9.3-6.4 15-13 27.4-9.5 4 .8 7.2 3.4 10.3 5.8 2.2 1.6 4.4 3.7 6.8 5h23.9" class="b"/><path d="M10 129.9q6 2.3 12 3.6c1.7.3 3.4 1.2 5.2 1.2h69.2c1.7-.1 3.5-1 5.1-1.4q4-1 7.7-2.2c4-1.4 7.4-3.7 11.2-5.4 7.4-3.6 13.6-3.2 21.3-1.1 4.5 1 8.3 3.9 12 6.4 6.5 4.4 4.2 3.7 12 3.7h16.2" class="b"/><path d="M10 125.8q7.3 1.6 14.6 3 1.3.2 2.6.6c.8.3 1.7.8 2.5.7H93c1.8-.8 3.4-2.1 5.2-3 5.1-2.7 10.8-4.2 16.2-6.4 9-3.7 15.6-3.4 24.8-1q3 .6 6 1.5 5.4 2.1 10.3 5l7.7 3.9h18.7" class="b"/><path d="M10 121.5q7.3 1.5 14.6 2.4 2.6.6 5.1 1.5H94a59 59 0 0 1 16.2-8.6c4.4-1.7 9-3.5 13.7-3.9 4.9-.4 9.8.6 14.5 1.6 4 .8 8.2 1.6 12 3.2 6.5 2.6 12.9 6 19.7 7.7h12" class="b"/><path d="M10 116q7.7 2 15.5 3.3 1.6.3 3.4 1 1.2.5 2.5.5h59.9c3 .1 2.9 0 5.1-1.7q6.5-4.6 13.7-7.5a33 33 0 0 1 18-3.8c3.7.4 7.4 1.6 11 2.5q7 1.3 13.8 3.1 8 2.3 16.2 4.1 3 .7 6 1.3 3.4.4 6.9.5" class="b"/><path d="M10 109.4q5.3 1.6 10.3 3.3l6.9 1.6 5 1.8H93q7.3-5.2 15.4-9c4.8-2.4 9.8-5.3 15.4-5 5.1 0 9.8 2.4 14.5 4.2q3.4 1.1 6.9 1.6c7.6 1.5 15.3 2 23 2.6q3.4.4 6.9 1 3.4.5 6.8.8" class="b"/><path d="M10 102.2c4 1 7.5 3 11.2 4.6l8.5 2.9c1.7.5 3.4 1.4 5.2 1.8h55.6c.8 0 1.8-.7 2.5-1.1q2.5-1.5 5.1-2.7 7.6-3.4 14.6-7.6c6.3-3.8 12.1-4.5 18.8-1 2.8 1.3 5.6 3 8.5 4.2q11.9 3.2 24 2.5 4.6-.3 9.4.3 4.3.5 8.5.6" class="b"/><path d="M10 95.3c3.8.9 7.1 2.8 10.3 4.8q3.8 2 7.7 3.4l6 2.4q1.3.6 2.6 1h51.3c5.5-2.5 11.5-3.8 17-6.1 3.8-1.5 7-4 10.4-6 6.7-4.3 12.4-3 18.8 1q2.8 2 6 3.4 2.9 1 6 1.7 6.6 1.9 13.6 2.1 5.2 0 10.3-.2l5.1.1 6.9-.2" class="b"/><path d="M10 89c5.5 1.1 9.7 5 14.6 7.2q4.6 2.4 9.4 4.3c2 .7 3.9 2 6 1.7h43.6q5-2 10.3-2.6c5.6-.6 11.5-1.2 16.2-4.5 2.6-1.7 5-3.8 7.7-5.3 7.4-4.4 13.2-1 19.7 3 2.6 1.6 5.7 2.3 8.5 3.3q5.5 2.3 11.2 3.6c4.2 1 8.5 1 12.8.8q6 0 12-1.3" class="b"/><path d="M10 84c4 .8 7.7 2.9 11.2 4.9A156 156 0 0 0 40 97.4c1.3.4 2.9.1 4.3.2h35c1.3.2 2.4-.8 3.5-1.3q2.4-1.1 5-1.6c7.2-1.2 15 .9 21.5-2.9 3.8-2.3 7-5.5 11-7.4 6.5-3.3 12.2-.6 18 2.4q3 1.3 6 2.3l6 2.7c11.7 6.2 19.1 6.3 31.7 2.8" class="b"/><path d="M10 79.8c9 2.7 17.1 7.9 25.7 11.6l3.4 1.4q1.8.2 3.5.1h33.3c8.2-5.8 13.2-6.7 23-6 4.1.3 8.4.3 12-1.7 4.2-2.3 8.3-5 12.9-6.4 6.6-2 13.3.7 19.7 2.3 8.4 3.2 15.2 11.2 24.8 11.2 4.7 0 9-2.4 13.6-3.6" class="b"/><path d="M10 76.5c5.8 2.2 11.7 4.2 17.2 7 3.6 1.6 7.3 3.5 11 4.8H70c1.8-.6 3.5-1.9 5.1-2.9 6.1-4 13-7.6 20.6-7.2 3.7 0 7.4 1 11 1 4 .2 7.5-1.5 11.2-2.4a68 68 0 0 1 18-2.5c2.8 0 5.8 0 8.5.8 4.5 1.7 8.1 5 12 7.6 4.4 3 10 6 15.4 4 3.4-1.4 6.7-3.6 10.2-4.7" class="b"/><path d="M10 74q3.4 1.6 6.9 2.6 3.5.7 6.8 2c5.4 1.8 10.6 4.1 16.3 4.9q3.4.4 6.8 0 2.6-.3 5.2-.7c4-.2 8 .2 12-.6 7-1.3 13.1-5.6 19.6-8.6 5-2.7 10.6-4.7 16.3-3.4 2.8.6 5.6 1.6 8.5 2.1 1.6.4 3.5.2 5.1.3 4.8.3 9.7 1.1 14.6.6 12.6-1.3 14-5.1 25.6 3.3 5.4 3.7 12.4 8.3 18.8 4.2 3-2 6-4.3 9.4-5.6" class="b"/><path d="M10 72.3q3.4 1.3 6.9 2 3 .3 6 1c5.3 1 10.8 2.1 16.2 1.7 4.1-.2 8-1.5 12-2.5q4.2-.6 8.6-.3c8 .5 15-1.7 22.2-5.2 5-2.8 10.2-6.7 16.2-5.9 3.7.4 7 2.2 10.3 3.5 2 .7 4.1 1 6 1.8 4.6 2 9.3 4.8 14.5 4.6q4.5-.2 8.6-1.7c2.4-.7 5.1-1.4 7.7-.9 8.3 1.8 15.8 10.6 24.8 6.7 4.3-2.2 7.5-6.3 12-8.4" class="b"/><path d="M10 70.8q3.4.8 6.9 1.2l6.8.2q11.2.5 21.4-3.7c2-.7 4-1.7 6-2.1 6-1 12 2 18 2.1 15.5.9 19-11.7 30.8-9 3 .7 5.7 2.3 8.5 3.6 2.3 1 4.8 1.7 6.8 3.1 4.7 3.1 9.5 7.1 15.4 6.9 2.7-.1 5.3-1 7.7-1.7 6.6-2.6 11.8.3 18 2.4 2.4 1 5.1.5 7.7.6 1.6-.1 3.6.3 5.1-.4 5-2.4 8.1-7.3 12.8-10" class="b"/><path d="M10 69c7.2 0 14.5-.4 21.4-2.1q7.4-2.1 14.6-5c5-2.3 7.7-2.2 12.8-.2 9.7 4.2 16.9 7.4 26.5.7 9.9-6.4 13.6-5.7 24-1.1 5.6 1.2 9.6 5.6 14.5 8.3 2 .3 4 0 6 .1q7.3.2 14.5-.1 5.1.2 10.3.1H170q1.4.2 2.6-.4c3.1-2.5 6-5.5 9.4-7.6" class="b"/><path d="M10 65c2.9 0 5.9.4 8.6-.3C26 63.2 33 60.6 40 58.4l7.7-2.1q3.9-1.2 7.7.3C61.9 59 67.8 63.8 75 64c12.4 0 15.5-11 31.6-7 2 .5 4 .6 6 1.2q2.3.8 4.3 2.3c2.3 1.4 4.3 3.5 6.8 4.6h49.6c1.3 0 2.4-1.3 3.4-1.9q2.4-1.7 5.2-3.2" class="b"/><path d="M10 60.4h11.2c6.4-2.7 12.7-5.8 19.7-6.7q4.6-.7 9.4-.7c3.6.2 7 1.9 10.2 3.3Q66 58.8 71.6 60c8.2 1.2 13.2-1 20.6-3.9q7.4-2.7 15.3-3 2.6-.2 5.2 0c4.9 1 8.5 5 12.8 7.3h47.8c1.2 0 2.5.2 3.5-.2L182 58" class="b"/><path d="M10 55.8h9.5c2-.1 4 .3 6-.2q4-2.5 8.5-4c4.2-1.3 8.6-1.1 12.8-.5 4.7.3 9.2 1.8 13.7 3q6 1.5 12 1l9.4-.3q4.7-.2 9.4-1.3 7-1.5 13.7-3.5c2.8-.6 5.6-2 8.5-1.8 6 .8 10.7 5.5 16.3 7.5q4.3.1 8.5 0h4.3l4.3-1.4a24 24 0 0 1 15.4.3c1.4.4 2.9 1.1 4.3 1.2h8.5c2.3 0 4.7.2 6.9-.7" class="b"/><path d="M10 51.2H29c1.5-.2 2.8-1.4 4.2-1.8q3.9-1.5 7.7-1.2c4.4.4 8.6 2 12.9 2.8 2.2.4 4.6 0 6.8.1h5.1c3.8-.6 7.4-1.9 11.2-2.3 4.2-.5 8.5.9 12.8 1q8.4.4 16.3-2.9c4.8-1.8 7.4-3.8 12.8-2.2 6.1 1.8 12.2 5.2 18.8 4 5-1 9.4-4.3 14.5-4.8 4.3-.5 8.4 1.3 12 3.3 2.7 1.5 5.4 3.6 8.5 4 3.1-.1 6.4.2 9.5-.2" class="b"/><path d="M10 46.5h23.2q1.7 0 3.4-.7l3.4-.5c2.6-.1 5.2.7 7.7 1.2h19.7c2.5-.7 5-2 7.7-2.6 4.6-1.4 9.2.6 13.6 1.7l4.3 1h5.2c5.2.4 9.9-2.3 14.5-4.2 2.7-1 5.7-.9 8.5-.6 6.4.7 12.9.8 18.8-2 2.6-1.2 5.1-2.7 7.7-3.6 10.3-4 16 4.6 24 8.6 3.2 1.2 6.9 1.4 10.2.7" class="b"/><path d="M10 41.9H35q1.6-.1 3.4-.7a16 16 0 0 1 7.7.2q1.2.5 2.6.5h19.6c1.4 0 3-.6 4.3-1q5.6-1.7 11.1.3c1.9 1 4 .6 6 .7H111q3.8-2 7.8-3 6-1.4 12-3.2a74 74 0 0 0 12-5.3c12.3-7 17.4-.2 27.3 6.2 3.6 2 8 2.5 12 2" class="b"/><path d="M10 37.2h24c1.1 0 2.3-.7 3.4-1q2.2-.5 4.3-.5 4 .3 7.7 1.5h65c4.8-2.6 9.6-5.6 14.5-8q5.6-3 11.2-5.7c5-2.8 10.5-4.4 16.2-2.1 5.2 1.8 9.5 5.7 14.5 7.8q5.4 1.6 11.2 1.6" class="b"/><path d="M10 32.6h21.4c1.2 0 2.4-.8 3.5-1q3-1 6-.8c2.9.2 5.7 1.2 8.5 1.8h22.2q21.9 0 43.6-.1c6.8-6 13.9-12 22.3-15.5 5-2.3 8.8-4.2 14.5-2.8 5.7 1.3 10.8 4.7 16.3 6.6q3.3 1.2 6.8 1.3 3.5.5 6.8 1.2" class="b"/><path d="M10 28H29c1.4-.2 2.8-1 4.2-1.2q3-.8 6-.3 2.2.2 4.3.9a9 9 0 0 0 3.4.5h67.6c3.3-2.9 6-6.5 9.4-9.4a38 38 0 0 1 12.8-8.2c8-3 9.8-3.6 18-.4 4.5 1.9 8.9 4 13.7 4.8 2.2.4 4.6.2 6.8.3q3.5.3 6.9 1.6" class="b"/></svg>