<svg xmlns="http://www.w3.org/2000/svg" id="a" width="1920" height="2400" viewBox="0 0 192 240"><defs><style>.b{fill:none;stroke:#fff;stroke-miterlimit:10;stroke-width:.4px}</style></defs><path d="M0 0h192v240H0z" style="stroke-width:0"/><path d="M8.8 225.8h48.6c3-1.6 5.6-3.8 8.7-5.1 3.5-1.8 7.4-2.8 11.2-3.9 9.5-3.4 17.4-3 27-.1a78 78 0 0 1 18.2 8c1 .6 2.2 1.3 3.4 1h57.3" class="b"/><path d="M8.8 221H60q2.2.2 4.3 0 2.6-1.5 5.2-2.5c4-1.6 8.2-2.7 12.2-4.3 8.3-3 17.6-2.5 26-.2 7 2 13.9 4.7 20.8 7h47.7c.9 0 1.9-.6 2.6-1q2.3-1.3 4.4-2.7" class="b"/><path d="M8.8 216.4h57.3q3.3 0 7-.2 4.4-1.3 8.6-3.3 4.2-1.7 8.6-2.7 8.2-1.8 16.5-1c3.8.4 7.5 1.5 11.3 2.1q5.3 1 10.4 2.5c2.4.7 4.6 1.9 7 2.5h33.8q3.5-1.1 7-2.4 3.6-1.8 6.9-4.2" class="b"/><path d="M8.8 211.6H73q3 .2 6 0 2.6-1.5 5.3-2.5a95 95 0 0 1 13-4 41 41 0 0 1 15.6-1.1c4 .3 8.2.5 12.1 1.6a42 42 0 0 1 12.2 5.5l.8.5h29.6c2-.4 4-1.7 6-2.3 3.5-.9 6.6-3 9.6-5" class="b"/><path d="M8.8 207h70.3c1.1-.4 2.3-1.2 3.5-1.6q3-1.4 6-2.3l12.2-3.7q6.3-2.1 13-2.1c8.2-.6 14.3 1.8 20.8 6.8 4.4 3.2 3 2.9 8.7 2.8H170l2.6-1q5.6-1.7 10.5-5" class="b"/><path d="M8.8 202.2H73c1.7-.1 3.7.4 5.2-.4q4.2-2.3 8.7-3.6 7.4-1.8 14.7-4.2 6-2.1 12.2-3 4.8-.7 9.5.6c6.2 1.8 10.7 6.8 15.6 10.6h36.5q4-1.4 7.8-3.5" class="b"/><path d="M8.8 197.5h66.8l2.6-1.2q3-1.5 6-2.3c3.8-1 7.6-1.4 11.4-2.2q5.3-1.3 10.4-3 6-2 12.1-2.9c4.3-.5 8.6.9 12.2 3.2q3.6 2.5 6.9 5.3c1.4 1 2.7 2.5 4.3 3.1H177q3.2-.8 6.2-2" class="b"/><path d="M8.8 192.8h68.5a38 38 0 0 1 7.9-2.3c4-.8 8.1-1.3 12.1-2.3q6.1-1.7 12.1-3.7c8.5-2.4 14.5-3.9 22.6 1 4.1 2.2 7.7 5.6 12.1 7.3h26.1c1 0 2.3-.5 3.4-.7l9.6-1.8" class="b"/><path d="M8.8 188h72c2.6 0 5.3.3 7.8-.1 7.8-1.4 15-4.7 22.6-6.5 7.3-1.7 13.7-2.4 20.8.8 4.1 1.7 8 4.2 12.1 5.7 2 .4 4.1.1 6.1.2h11.3c1 0 2.4.1 3.4-.3l6.1-1.9q6-1.3 12.2-1.5" class="b"/><path d="m8.8 182.7.9.6q31.2.2 62.4 0h26c4.9-1.7 9.7-3.7 14.8-4q12-1.8 23.4 2l6.1 2q3 .2 6 0h7.9q2.2.2 4.3-.1c3.8-1 7.5-2.5 11.3-3.4q5.6-1 11.3-.9" class="b"/><path d="m8.8 176.8 2.6 1.9H100q5.3.2 10.4-.5 5.7-.2 11.3-.2 7 .2 13.9.7h24.3c1.4 0 3-.7 4.3-1q3-1 6-1.7c4.3-1 8.7-1.2 13-1.5M8.8 172.7l1.7 1c1.1.4 2.4.2 3.5.3h152.7c2.3-.3 4.6-1 7-1.1q4.7-.6 9.5-1.5M8.8 169.3h174.4M8.8 164.5h174.4M8.8 159.8h174.4M8.8 155.1H21q3.8-.9 7.8-1c2.9 0 5.8.6 8.6 1h145.8M8.8 150.4h6q1.9.2 3.6-.2c8.1-5.9 14.8-6.7 24.3-3.8q5.5 1.4 11.2 2 2.7.5 5.2 1.2c1.1.2 2.4.8 3.5.8h120.6" class="b"/><path d="M8.8 145.7h9.6c6-5.5 13-10.6 21.7-9.1q3.9.6 7.8 1.6c5.9 1 11.8 2.2 17.3 4.6 8 3.6 3.9 2.9 13 3h105" class="b"/><path d="M8.8 141h8.7q1-.2 1.7-1 1.8-1.6 3.5-3c5.3-4.7 11.8-8.7 19-8 3.8.3 7.6 1.2 11.3 1.7q7.2 1 14 4c4.1 1.7 8 4.2 12 6.3h104.2" class="b"/><path d="M8.8 136.3h6C27.2 126.1 34 120.6 50.6 123c5.3.3 10.7 1 15.6 3.5q5.3 2.7 10.4 6.2 3 1.7 6 3.6h100.7" class="b"/><path d="M8.8 131.6h1.7c9-8.8 18.8-13 31.3-13.7l7.8-.3q3.9-.3 7.8 0c8.6.7 14.7 7.5 21.7 11.8l3.5 2q1.2.3 2.6.2h94.5c1.1 0 2.5.2 3.5-.3" class="b"/><path d="M8.8 125.2c11-11 15-9.6 29.5-10q5.3 0 10.4-.9c2.6-.3 5.2-1 7.8-1 9-.6 15 7.2 21.7 12 1 .6 2.3 1.4 3.5 1.6H178q2.6-1.3 5.2-2.9" class="b"/><path d="M8.8 118.9c10.6-10 12.9-8 26-5.8q6.1.9 12.2-.5c3-.5 5.8-1.6 8.7-2.2 6.9-1.7 12.5 2.7 17.3 7l4.3 3.7c.7.6 1.7 1.2 2.6 1h88.5q2.1-1 4.4-1.6 1.7-.2 3.4-.6 3.7-1 7-3" class="b"/><path d="M8.8 115.4c10.5-8.1 12-6.8 24.3-4.5q5.7 1 11.3-.1 3.5-.6 7-1.8c3.8-1.4 8-3 12-1.8 4 1 7.4 3.9 10.5 6.5l3.4 2.7c.8.5 1.7 1.2 2.6 1h82.4c1.2 0 2.6.2 3.5-.6q4.5-2.5 9.6-2.9c2.7-.5 5.4-2 7.8-3.4" class="b"/><path d="M8.8 112.5c11.1-6 12.2-5.1 24.3-4.6q6.1 0 12.1-1 3.6-.6 7-1.5c4.1-1.4 8.7-2.5 13-1.1 3.5 1 6.6 3.3 9.5 5.3l3.5 2.3c.8.4 1.7 1 2.6.8h75.5c2 .3 3.4-.8 5.2-1.5q3.7-1.7 7.8-2.9c2.2-.7 4.7-.7 7-1.2q3.6-.9 6.9-3" class="b"/><path d="M8.8 108h2.6l2.6-.8q3.4-1.1 7-1.8c7.7-1.3 15.6-2 23.4-2.9q3-.2 6-.2 4-.6 7.9-.9 6.3-.2 12.1 2.5l6 2.9c1.4.6 2.9 1.4 4.4 1.2h60.7q3 .2 6-.1c6.4-2.3 12.6-5.1 19.2-6.5q4.7-1 9.5-1.3 3.6-.7 7-2" class="b"/><path d="M8.8 103.3h6l3.6-.7c6.6-1.5 13.1-3.5 20-4q3.9-.5 7.7 0 4.8.7 9.6 1a75 75 0 0 1 16.4 3q1.8.7 3.5.7h66.8q2.7-.9 5.2-2.2 5.5-2.9 11.3-5c7.8-2.7 16.2-2 24.3-3.6" class="b"/><path d="M8.8 98.6c3.5-.1 7 .3 10.4-.2 4.4-1 8.7-2.6 13-3.4q6.1-1 12.2.1c4 1 8 2.5 12.1 3.5h87.6c3.3-1.6 6.3-3.8 9.6-5.5a35 35 0 0 1 11.2-4c6-.9 12.2-.8 18.3-1" class="b"/><path d="M8.8 93.9c4.6-.1 9.3.2 13.9-.1a36 36 0 0 1 24.3 0q4.3.1 8.7.1h91c1.3-.4 2.4-1.4 3.5-2q2.6-1.8 5.2-3.2 6.4-3.5 13.9-3.6l13.9-.3" class="b"/><path d="M8.8 89.2H145c1.4 0 3 .2 4.3-.2l3.5-2a30 30 0 0 1 8.7-2.9c3.7-.6 7.5-.2 11.3-.1q5.2 0 10.4-.9" class="b"/><path d="M8.8 84.5h142.3q3-1.2 6-1.6c5-.8 9.9.5 14.8 1q5.7.3 11.3-1.3M8.8 79.8h174.4M8.8 75h72.9c3.1-.7 6.3-1.7 9.5-1.8q3.1 0 6 .8c1.2.3 2.4 1 3.6 1h82.4M8.8 67.9c2 .7 4 1.9 6 2.4h61.7c2.2 0 4.7.3 7-.2l5.1-2.3c4.1-1.8 9-2 13 .2 1.5.6 2.9 1.8 4.4 2.4H183M8.8 59l7.8 4c2 1 4 2.3 6.1 2.6h46.8q8.7 0 17.4 0c4.3-3 9.5-5.5 14.7-3.3 2.2.8 4.1 2.2 6.1 3.3h75.5" class="b"/><path d="M8.8 51.4c6.2 3 12 6.6 18.2 9.5h63.4c1.2 0 2.3-1 3.4-1.5a12 12 0 0 1 11.3.4c1 .5 2.2 1.3 3.5 1.1h74.6" class="b"/><path d="M8.8 45.7q4.9 1.7 9.6 4 5.4 2.9 10.4 6.5H93c2.4-1 5-2.4 7.8-2.4q2.7 0 5.2 1c1 .4 2.3 1.2 3.4 1.4h73.8" class="b"/><path d="M8.8 42.2c5.9.9 9.9 1.6 14.8 5.2l5.2 4 2.6.1h62.4q1.8-.6 3.5-1.4 3-1 6-1c3 .2 5.9 1.6 8.7 2.4h71.2" class="b"/><path d="M8.8 40.3q3.5-.1 7 0c4.7.3 8.5 3.5 12.1 6.3 3.4.4 7 .1 10.4.2h55.5c1.2 0 2.4-.7 3.5-1q2.2-.6 4.3-.8 5.8-.1 11.3 1.7 4.8.1 9.6.1h60.7" class="b"/><path d="M8.8 39c8.4-1.1 9.8-2.3 17.4 2.9 1.3.4 3 .1 4.3.2h65q3-.5 6.1-.5c2.6 0 5.3.6 7.8.5h73.8M8.8 36.6c3.2-.2 6.3-1.6 9.6-1.4q2.2.2 4.3 1.2c.8.3 1.7.9 2.6 1h157.9M8.8 32.2c3.8-.2 7.6-1.8 11.3-.8 1.5.3 2.9 1.4 4.3 1.3h30.4q3-1 6-1 3.2.1 6.1 1h116.3M8.8 26.8c3.2 0 6.4-.7 9.6 0l3.4 1c2.6.3 5.3.1 7.8.2H53q2.6-1.2 5.3-1.8c4.7-1 9.4.5 13.8 1.8h111.1M8.8 21.3q3.5.2 7 .8c1.4.2 2.9 1 4.3 1.2h31.2q4.4-2.8 9.6-3.2c5.7-.6 11 1.8 16.4 3.1h105.9M8.8 16.2l4.4 1.3c1 .3 2.3 1 3.4 1h32.1c9.8-6.6 18.4-4.4 28.6-.6q2.2.7 4.4.6h36.5a23 23 0 0 1 10.3-1.4c2.4.2 4.7 1 7 1.4H183" class="b"/></svg>