<svg xmlns="http://www.w3.org/2000/svg" id="a" width="1920" height="2400" viewBox="0 0 192 240"><defs><style>.b{fill:none;stroke:#fff;stroke-miterlimit:10;stroke-width:.4px}</style></defs><path d="M0 0h192v240H0z" style="stroke-width:0"/><path d="M8.5 218.5q4.1.3 7.9 1.8c6.4 3 12.6 7.7 20 7.6 3.7 0 7.2-1.3 10.4-3 3.3-1.9 6.7-3.7 10.5-4.4a41 41 0 0 1 17.4 1c4 .8 8.3 1.5 12.2 3.2 4.1 1.6 8.1 3.8 12.1 5.7 2.5 1 5.1 2.6 7.9 2.5h7.8c4.9-1 9.8-2 14.8-2.1q4.8 0 9.6.2 3 0 6 .1c3.8.5 7.6 1.6 11.4.7 11.1-2.7 16-15.8 27-19" class="b"/><path d="M8.5 212q5.1.2 9.6 2.7c7.4 4.4 15.2 11.3 24.4 8.8 4.4-1.1 8-4 12.2-5.8 6.2-3 13-4.7 20-4.1 8.3.3 13.5 3.7 20 8.5q3.4 2.5 7 4.7 1.2.8 2.6 1.4h13.9q6-1.8 12.2-2.6 4.8-.3 9.5-.4h5.3c3.4.5 6.9 1.5 10.4 1.2 6.3-.5 11.2-5 15.7-9 3.6-3.1 7.6-6.2 12.1-7.8" class="b"/><path d="M8.5 207c5.1.3 9 2.7 13 5.6 6.5 4.6 13.8 9 21.9 6.1 4.3-1.4 8.1-4.1 12.1-6.2a42 42 0 0 1 19.2-6.4c7.7-.3 12.6 3.3 18.3 8q4.4 4 9.5 7.4 2.1 1.2 4.4 2h2.6l5.2-.1q6-1.5 12.2-2.3c4.3-.5 8.7-.3 13-.2q5.7-.2 11.3.3a32 32 0 0 0 19.2-6.6q6.3-4 13-6.8" class="b"/><path d="M8.5 203.4c4.6.7 8.6 3.4 12.2 6 6.7 5 13.5 8.2 21.8 4.9 10.8-4.2 20.1-13 32.2-13.4 8-.5 13.1 3.7 19.1 8.3 5 3.7 10.1 8.4 16.6 8.3 3.4-.4 7-1.2 10.4-1.5a64 64 0 0 1 13 .2 67 67 0 0 0 34-4.8q4.3-1.4 8.7-2.5 3.5-1.2 7-2.8" class="b"/><path d="M8.5 200.8c11.5 4 17.3 16.2 31.4 10.4q7-3.2 13.9-6.8c6-3 12.3-6 19.1-6.2 8.6-.4 13 2.1 20 6.4 5.3 3.2 11.1 6.6 17.5 6.1q5.6-1 11.3-1.1 6.1.1 12.2 1.3c3.7.5 7.5 1.2 11.3.7 7.1-1.3 13.6-5 20.9-5.8q3-.4 6-.4 2.2.2 4.4.2a26 26 0 0 0 7-2" class="b"/><path d="M8.5 198.6c4.8 2.2 8.7 5.8 13 8.7q1.8 1 3.6 1.9 2.5.1 5.2.1h5.2q1.8.1 3.5-.5c2.3-1 4.7-2.5 7-3.7q3-1.5 6-2.8c6-2.7 12.5-5.1 19.2-5.2q6.1-.1 12.2 1.3c6.7 2 13 5.5 20 6.4 5.8.8 11.6-1.1 17.4-1.2 6.7-.4 13.4 1.2 20 1.8s12.2-3.7 18.3-5.4q7-2 14 .2c3.3 1.4 7 1 10.4 0" class="b"/><path d="M8.5 195.7c4.6 2.7 8.6 6.2 13 8.9h21.8c5.8-2.5 11.5-5.3 17.5-7.2a47 47 0 0 1 27 .2c8.9 2.9 16.7 4.4 26 2.4 5-1 9.8-2.3 14.8-2.7a71 71 0 0 1 9.6-.1c2.6 0 5.3.5 7.8-.1 4.5-1 8.6-3.3 13-4.1 4.4-1 9-.3 13.1 1.2 3.9 1.8 7.2 2.2 11.3 1.3" class="b"/><path d="M8.5 194.2q4.7 3 9.6 5.7h27c2-.4 4.1-1.6 6-2.2 4.3-1.5 8.7-3 13.1-3.6q9.6-1.4 19.2.1c6 1.2 12 3.2 18.3 3.4q6.1.3 12.1-1.1c4.2-1.2 8.2-3.1 12.2-4.6a39 39 0 0 1 18.3-2.2c6.7-.2 13.3-2.6 20-2 3.9.4 7.6 1.5 11.3 2.5q4 .6 7.9.5" class="b"/><path d="m8.5 193.8 2.6 1.3h31.4l3.5-1.3q3.8-1.3 7.8-2.2 10.3-2.1 20.9-1.4l7.8.6c3.8.6 7.5 1.7 11.3 2.3q8.3 1.5 16.6.1c4-.4 7.7-2.4 11.3-4.2 4-2.2 8.4-4.2 13-4.9 5.8-1 11.6.9 17.4 1q8.8.3 17.4.6 7 .3 14 .7" class="b"/><path d="M8.5 190.4H33c1.4 0 3 .2 4.4-.5 13.6-5.8 28.1-5.4 42.6-4.3 7.6.8 14.9 4 22.6 3.5q5.8 0 11.3-1.6c4.5-1.4 8.6-3.9 13-5.3 8.9-3 16.9-.5 25.3 2.1q5.6 1.6 11.3 1.2c6.7-.5 13.2-3.4 20-2.7" class="b"/><path d="M8.5 185.7h21.8c1.3.2 2.4-.6 3.5-1.2q2.5-1.2 5.2-2.2c5.3-1.8 11-2.3 16.5-2.8q9.6-.8 19.2-.5 3.5 0 7 .5 3.9.9 7.8 2c5 1.4 10.4 2.3 15.6 1.8 5.1-.3 10-1.7 14.8-3.2q6.9-2.2 14-1 5.6 1.4 11.3 3.1c2.6 1 5.2 2.4 7.8 3.4q6.5.1 13 0c2.5-.5 4.7-2 7-2.9a25 25 0 0 1 10.5-2.9" class="b"/><path d="M8.5 181h21c1.2 0 2.3-1.2 3.4-1.6q2.5-1.4 5.2-2.2c4.8-1.4 10-1.4 14.8-2q8.7-1.2 17.4-2.5c10.2-1.3 14.3 1.4 23.5 4q5.7 1.4 11.3 1c7-.4 13.9-3.4 21-2.2q4.9 1 9.5 3.2c2 .7 4 2 6 2.3H167c2.3-.2 4.8.2 7-.3 3-1.7 6.1-3.5 9.5-4" class="b"/><path d="M8.5 176.2h22.7c2.5-.6 5.1-1.6 7.8-1.8 3.7-.5 7.6-.2 11.3-.9 5.4-.9 10.5-2.8 15.7-4.5a27 27 0 0 1 15.7-1.3c12.4 3.9 17.5 7.4 31.3 4.6 8.7-1.6 14 .4 21.7 4h41c1.2-.2 2.3-1.2 3.4-1.7l4.4-1.8" class="b"/><path d="M8.5 171.5H53c2-.6 4-2 6-3 7.9-4.2 15.3-8.7 24.4-5 7.4 2.6 14.7 5.8 22.6 6.1 2.9.2 5.8-.3 8.7-.2q3.1.2 6.1 1c1.4.3 3 1 4.4 1.1h53c1.8-.4 3.5-1.5 5.3-2.2" class="b"/><path d="M8.5 166.8h42.7c1.7-.1 3.6.3 5.2-.3q4.2-3.1 8.7-5.6a20 20 0 0 1 18.3-1.2c7.2 2.3 14.3 5.2 21.7 6.8q2.2.4 4.4.3h71.4l2.6-.9" class="b"/><path d="M8.5 162h46.2c3.7-2.2 7-5.2 11.3-6.5 6.4-2.5 12-.4 18.3 1.6q4.8 1.3 9.5 3c2 .5 4 1.6 6.1 2h54.8c1.2 0 2.4-.6 3.5-.7q2.2-.4 4.4-.3c2.6 0 5.2.7 7.8 1l13-.1" class="b"/><path d="M8.5 157.3h38.3c1.7 0 3.6.3 5.3-.2q3.6-3 7.8-5.1c5-2.6 10.6-2.2 15.6-.2q6 2.4 12.2 3.7l4.4 1.2q1.2.6 2.6.6h53.1c9-7.5 13-8 23.5-2.7q5.8 2.2 12.2 2.4" class="b"/><path d="M8.5 152.6h40c6.7-5.4 13.2-9.7 21.8-6 3.6 1.3 6.8 3.5 10.5 4.6q3 .9 6 1.4h57.5c1.4-.5 2.4-2.1 3.5-3.1q2.7-3 6-5.3c6.4-4.2 11.7-.8 17.5 2.5 3.8 2 8 3 12.2 4" class="b"/><path d="M8.5 147.9H46c2.6-1.8 5-4 7.8-5.5 4-2.2 8.8-2.7 13-.9 4 1.6 7.5 4.3 11.3 6 1 .6 2.4.3 3.5.4h55.7c2-.1 4.2.2 6.1-.2 7.6-7.6 13.4-16.5 25.2-10.2q3.4 1.7 7 2.6l7.8 2.1" class="b"/><path d="M8.5 143.2h34c3.5-1 6.2-4.2 9.5-5.8 4-2.3 9-2.3 13.1-.3 3.4 1.6 6.4 3.9 9.6 5.8 1 .4 2.3.2 3.4.2h64.4c6.7-5.2 12.2-14.3 21.8-13.7 3 .2 5.8 1.2 8.7 1.8q5.3.6 10.4 1.7" class="b"/><path d="M8.5 138.4h34.9q1.3-.4 2.6-1.2c2-1.2 3.9-2.8 6-3.7 3.9-1.9 8.4-1.7 12.2 0q3.2 1.3 6.1 3.2c1.1.5 2.3 1.5 3.5 1.7h68.8c8.4-6.5 14.2-14.3 26-13.8 5 .2 10-.6 14.9 0" class="b"/><path d="M8.5 133.7h39.2q1 0 1.7-.4 2.9-1.7 6.1-2.7c3.4-1 7.1-.6 10.5.4 2.6.7 5.2 2 7.8 2.7h67q1.5.1 2.6-.8c5.8-4 11.5-8.2 18.3-10.2q5.6-1.3 11.3-2.2c3.5-.7 7-1.8 10.4-2" class="b"/><path d="M8.5 129h46.2c1 0 2.4 0 3.4-.2q2.6-.8 5.3-1.2 5.2-.6 10.4.1c3.8.6 7.6.3 11.3 1.3H140c1.9-.5 3.6-1.6 5.3-2.4a60 60 0 0 1 9.5-3.9c5.4-1.7 11.1-2.1 16.6-3.4 4.1-1 8-3.2 12.1-4.1" class="b"/><path d="M8.5 124.3h53.1c1.5-.3 3-1.2 4.4-1.6q3.3-1.2 7-1.6c4-.4 8.2-1 12.1.4 2.7.7 5.2 2 7.8 2.7H113q1.6-.4 3.4-.7 3-.4 6.1-.4c7.5.2 14.8 1.4 21.8-2.1q5.8-2.1 12.2-2c6 0 12.5 1 18.3-1.3 2.8-1.2 5.7-2.7 8.6-3.6" class="b"/><path d="M8.5 119.5h55.7c5.7-3.6 12.3-6.9 19.2-6.1 4.4.6 8.7 2.4 13 3.3 4.3 1 8.9 1 13-.3 2.6-1 5.2-2 8-2 10-.6 17.4 4.4 27.8 1q5.6-.8 11.3 0c5.7.6 11.7 2 17.4 0 3.1-1 6.3-2.5 9.6-3.1" class="b"/><path d="M8.5 114.8H66c3.9-2.6 7.6-5.9 12.2-7.3 7.3-2.4 15 .2 22.6-.2q5.8-.3 11.3-2.3 5.2-1.3 10.4 0c6.3 1.7 11.9 5.5 18.3 6.2 3.8 0 7.6-.2 11.3.2 5.8.5 11.7 1.4 17.4.6 4.7-.6 9.1-2.9 14-2.8" class="b"/><path d="M8.5 110h59.2c3-1.9 5.6-4.5 8.7-6.3 6-3.5 13.3-3.9 20-4.9q5.7-.6 11.3-1.9c3.2-.8 6.3-2 9.6-1.6 9.2.8 15.8 8.4 24.4 11a72 72 0 0 0 23.5 1.8q5.3-.7 10.4-2.2 4-.8 7.9-.2" class="b"/><path d="M8.5 105.4h59.2c.8 0 2 0 2.6-.5 3.3-2.5 6.6-5.3 10.5-7 9.8-5 20.7-6.7 31.3-9.2 12.7-2.9 20.8 8.8 31.3 13.2q12.3 5.2 25.3 1.8c2.6-.6 5.2-1.5 7.8-1.8q3.5-.3 7 .3" class="b"/><path d="M8.5 100.6h62.7c2.7-1.6 5.2-3.8 7.8-5.5q11.7-7.4 25.3-9.6c9.9-1.8 15.7-4.1 25.2 1.3 4 2.3 7.6 5.2 11.3 7.7q5 3.2 10.5 5.4c2.4 1.1 5.2.6 7.8.7h12.2q2.6-.6 5.2-1.1 3.5-.3 7-.1" class="b"/><path d="M8.5 95.9h62.7q2.7-1.7 5.2-3.5a53 53 0 0 1 21-9.9q5.5-1 11.2-1.8c3.2-.5 6.4-1.3 9.6-1.5 7.6-1 14.8 2.5 20.9 6.8q6.9 4.7 13.9 9.2c1.2 1 3 .7 4.3.7h26.2" class="b"/><path d="M8.5 91.2h61.8q3.7-1.5 7-3.7a68 68 0 0 1 40.9-13c9.3-.4 18.4 3.1 26.1 8.3 3.6 2.4 7 5.4 10.4 8 1.3.6 3 .2 4.4.4h24.4" class="b"/><path d="M8.5 86.5h22.7c1.1 0 2.3-.6 3.4-.9q2.2-.6 4.4-.7 3.5-.2 7 0 3 0 6 .3c3.8.4 7.6 1.1 11.4 1.1 5.4.2 10.8-1.4 15.6-4 9.3-5 18-12 28.8-13.1 7.4-.8 14.6 1.7 21.7 3.5A48 48 0 0 1 154.7 86c1.3.8 3 .3 4.4.5h7q8.7 0 17.4-.1" class="b"/><path d="M8.5 81.7h20c1.2-.1 2.4-.8 3.5-1.2q3-1 6.1-1.1c3-.2 5.9.2 8.7.3q3.5-.2 7 0c5.5 0 11 .5 16.5 0 13-1.1 20-10.7 31.4-15.4 9.5-3.8 14.4.3 22.6 4.6a47 47 0 0 0 8.7 3.6c11.4 2.9 11 1.9 20.9 9.2h26l3.6-2.4" class="b"/><path d="M8.5 77h15.7c1.8-.4 3.5-1.4 5.2-1.8q3.5-.8 7-.6c3.5.3 7 1.3 10.4 1.5 5.3-.2 10.5-1.3 15.7-1.8 6.1-.8 12.4-1 18.3-2.9q4.2-1.7 7.8-4.3c5.9-4 11.8-9 19.2-9.4 4.4-.3 8.1 2.6 11.3 5.4 4.8 4.3 10 9 16.5 10.3 2.8.6 5.9.7 8.7 1.4l3.5 1.4c.7.4 1.8 1 2.6.8h24.3q2.3.2 4.4-.2 2-2 4.4-3.8" class="b"/><path d="M8.5 72.3H20c3.7-2 7.9-3.5 12.1-3 3.6.4 7 1.9 10.5 3h8.7c2.4.2 4.7-.9 7-1.5q5.1-1.6 10.4-2.9c6.1-1.4 12.7-1.5 18.3-4.8 6.3-3.4 12.5-8.1 20-8.3 5.4-.1 8.6 3 12.1 6.6 3.8 3.8 7.4 8 12.2 10.3 1 .7 2.4.6 3.5.6H180c1.2-.9 2.3-2.3 3.4-3.2" class="b"/><path d="M8.5 67.6h8.7c4.8-2.9 10.2-4.8 15.7-3.1 2.7.7 5.2 2.1 7.8 3h14c2.4.3 4.7-1.2 7-2q4.5-1.8 9.5-3.2 5.2-1.2 10.4-1.9 4.6-1 8.7-2.8c7.3-2.8 16.1-6 23.5-1.9 3.6 2.4 6.5 5.7 9.6 8.6 1.3 1 2.7 2.7 4.4 3.2h55.6" class="b"/><path d="M8.5 62.8c2-.1 4.2.3 6.1-.2 3.9-2 7.8-4.3 12.2-4.6 5.3-.3 10.2 2.4 14.8 4.7 5.2.3 10.5 0 15.7.1 2.6-.7 5.2-2 7.8-2.8q5.5-2.1 11.3-3c3.5-.3 7-.3 10.4-1 8-1.5 16.2-4.6 24.4-3.3 4.5 1 7.9 4.7 11.3 7.5 1 .9 2.2 2.2 3.5 2.6h57.5" class="b"/><path d="M8.5 57.2q3.1 0 6.1-1c2-.6 4.1-1.7 6.1-2.4 10.6-4.3 15.8.2 25.3 3.7 9.4 2.5 18.5-3 27.8-4.2 3.5-.6 7 0 10.5.2q6.5 0 13-1c14.7-2.6 15.6-3.7 27.9 5.6h58.3" class="b"/><path d="M8.5 50.3c6 1 8.7-.4 14-2.5 11.3-4.6 15.6-1 26 2.1 8.8 2.2 17.5-.9 26.2-1.1 3.5-.2 7 1 10.4 1.8q5.6 1.3 11.3.9c5.6-.3 11-2.3 16.6-2.4 3 .1 6 1.3 8.7 2.7l2.6 1.5h59.2" class="b"/><path d="M8.5 44.2c4.7 1.2 7.8 1.2 12.2-1 8.9-4.3 14.6-6.7 24.4-3.1a58 58 0 0 0 25.2 3.4q5.5-.2 10.5 1.7l7.8 3.3c4.3.3 8.7 0 13 .1 4 0 8.2.3 12.2-.3 2.3-.2 4.7.4 7 .4h62.6" class="b"/><path d="M8.5 38.5c5.3 1.3 8.3 1.2 13-1.4 9.7-5.4 15.4-8.2 26.2-3.8q5.5 2.2 11.3 3.1c4 .7 8.2.7 12.2 1q4.6.5 8.7 2.3c2.4 1.2 4.6 3 7 4.2h96.6" class="b"/><path d="M8.5 33c2.6.4 5.3.7 7.9 0 5.8-2 10.5-6.4 16.5-8 7.2-2.1 13.4 1.6 20 3.6q6 1.6 12.2 1.9c4.7.3 9.7.5 14 2.8 2.9 1.5 5.1 4 7.8 5.9h96.6" class="b"/><path d="M8.5 27.8q4 .4 7.9-1c5.5-2.6 10.3-7.2 16.5-8.4 7.7-1.6 14.4 3.5 21.8 4.8C68.8 25.9 76 22 86.9 34.5h96.6" class="b"/><path d="M8.5 23.3c4.3 0 8-2.2 11.4-4.7 3.9-2.8 8-5.9 13-6.2 4.6-.4 9 1.7 13 3.5q4.3 1.8 8.8 2.4c8.4 1.7 17.8.5 25.2 5.5 2.6 1.6 4.6 4 7 6h96.5" class="b"/><path d="M8.5 19.4C17.8 17.6 23 6.6 33 7.1c4.4.2 8.3 2.8 12.2 4.7q4.1 2 8.7 2.5C62.2 16 71.4 15.5 79 20c2.5 1.4 4.6 3.5 7 5h77.5c1.6 0 3.4-.4 5.2-.3 4.9.2 9.9.5 14.7-.3" class="b"/></svg>