<svg xmlns="http://www.w3.org/2000/svg" id="a" width="1920" height="2400" viewBox="0 0 192 240"><defs><style>.b{fill:none;stroke:#fff;stroke-miterlimit:10;stroke-width:.4px}</style></defs><path d="M0 0h192v240H0z" style="stroke-width:0"/><path d="M8.8 215.6c3.6 1.5 7 3.7 10.4 5.5a156 156 0 0 0 19 8.8c1.2.4 2.4 1.1 3.5 1.2h49.5c1.8-.1 3.5-1.2 5.2-1.7q4.7-1.6 9.6-1.5 3.1.3 6 1.4c1.5.5 2.9 1.7 4.4 1.8h20.8c3.6-2.6 7.3-5 10.5-8.2 5.9-5.7 11.7-10.7 20-5.7 5.2 3.1 9 6.6 15.6 6.4" class="b"/><path d="M8.8 211q5.3 2.1 10.4 4.7a367 367 0 0 0 20.8 9c1.7.6 3.4 1.8 5.2 1.7h44.2l2.7-1.5c6-3.2 13.1-6.8 20-4 3.5 1.4 6.8 3.6 10.4 4.8q2.5 1 5.2.7l3.5-.1c3.7-.9 7-3.1 10.4-5 8.3-4.6 14.4-15.4 25.1-9.6 5.8 3.1 9.5 6.8 16.5 7.4" class="b"/><path d="M8.8 208.4q8.5 1.5 16.4 5c6 2.3 11.6 5.4 17.4 8 1 .4 2.4.2 3.5.3H86q1.4 0 2.6-.3c3.8-2.4 7.4-5.2 11.3-7.5 3.8-2.4 8.7-4 13-2 7.8 3 13.8 6.9 22.6 4.1q5.4-1.5 10.4-4.1c6-3.8 11.8-8.4 19.1-5.2 3.4 1.3 6.4 3.6 9.6 5.3q4 2.3 8.6 3" class="b"/><path d="M8.8 206.8c12-1.3 17.6 1.2 27.7 7.4 1.7.9 3.4 2.3 5.2 2.8H87c7-3.7 16.5-15.6 24.3-14.2 5 1 9.7 3.5 14.8 4.7 5.6 1.5 11.6 1 17.3 0 5.6-1.2 10.6-5 16.5-4.5 5.5.2 10 3.8 14.8 6.3q4 2 8.6 2.8" class="b"/><path d="M8.8 205.3c2.5-.8 5.1-2 7.8-2.6 5.8-1.4 11.6 1.3 16.5 4.4l5.2 3.6q1.2.9 2.6 1.6h35.5c2.6-.1 5.3.2 7.9-.2 8-3.2 13.5-10.3 20.8-14.7q2.5-1.4 5.2-1.6 4.5.5 8.7 2c4.9 1.6 9.7 3.5 14.8 4.7 3.6.8 7.5 1.6 11.2 1.5 3.2-.4 6.4-1.4 9.6-1.9 12.7-1.8 17.1 7.8 28.6 8.3" class="b"/><path d="M8.8 202.8c2.5-1.5 5-3.4 7.8-4.6 6.4-2.8 13 .5 18.2 4.3l7 5q3.4.1 6.9 0c5.2 0 10.4.3 15.6 0 5.1-1.3 10.5-.8 15.6-1.5 16-2.2 23.1-18.2 33.9-15.3 10.1 2 18.7 8.5 28.6 11.2 6 1.5 12.2-1 18.3.1q4.6.9 8.6 3c1.8.8 3.5 2 5.3 2.6h8.6" class="b"/><path d="M8.8 198c2.5-1.9 5-4.1 7.8-5.6 7-3.6 14-.2 20 4 4.2 2.6 8.5 6.7 13.8 6.4 2.7.1 5.3-.8 7.8-1.5q4.4-1.4 8.7-2.2c3.4-.5 7-.5 10.4-.8a47 47 0 0 0 9.6-1.8c7.3-2.1 13-7.5 20-10.3 3.6-1.5 7.7-.3 11.2 1 7.8 3.1 14.2 8.7 21.7 12.2 4 2 7.9 2 12.2 1.5a34 34 0 0 1 13.9 1.2c.7.2 1.8.7 2.6.7h14.7" class="b"/><path d="M8.8 191.7q3.3-2.6 6.9-4.7a22 22 0 0 1 20 1c6 2.9 12 7.5 19 6.5 5.3-.5 10.5-1.9 15.7-2.5q9.2-1.1 18.2-3.4a77 77 0 0 0 12.2-4.8c7.3-3.5 11.9-4.3 19 .2 4.7 2.8 8.8 6.6 13.1 9.9l4.3 3c.8.5 1.8 1.2 2.6 1.2h43.4" class="b"/><path d="M8.8 184.8c2.2-1.2 4.5-2.6 6.9-3.4q2.6-.6 5.2-1a38 38 0 0 1 17.4 1.5c4.1 1.3 8 3.3 12.1 5q4.6 1.5 9.6 1.7c7.5 0 14.7-2.5 21.7-4.8 6.6-1.7 13.4-2.8 20-5 7.1-2 11.7-3.5 18.2 1.6q5 4 9.5 8.6c1.7 1.4 3.3 3.3 5.2 4.4h48.6" class="b"/><path d="M8.8 178q3.3-1.4 6.9-2 3.5.1 7 0c5.7-.4 11.6-1.4 17.3 0 9.1 1.7 14.2 10 24.3 9.4 6-.3 11.2-4 16.5-6.3 4.1-1.7 8.6-2.2 13-2.7l13-2c2.9-.5 6-1.3 8.7 0 6.7 3.1 11.1 9.5 16.5 14.3h51.2" class="b"/><path d="M8.8 171.5q3.4-1 6.9-.6 3.8.9 7.8 1c5.8-.3 11.6-2.1 17.4-1 4 .6 7.4 3.3 10.4 6 3.5 3 7.4 6.2 12.1 6.5 5 .2 9.2-3 13-5.5 7.3-5.6 15-5 23.5-5.3q4.4-.2 8.7-.8c2-.3 4-1 6-.4 4.6 1.3 8 5 11.3 8 1.7 1.5 3.3 3.4 5.2 4.6h52.1" class="b"/><path d="M8.8 165.5c2.8-.6 6-.6 8.6.6q3.8 1.3 7.8 1c6.6-.3 13.9-2.7 20 .8 5.2 3 8.4 8.8 14 11.4H66l3.5-.1c3.1-1.6 5.8-4 8.7-6 8.7-6.3 19.7-1.6 29.5-3 2-.2 4-1 6-.9 4.8.6 8.6 4 12.2 6.9 1.4 1 2.7 2.5 4.4 3h52.9" class="b"/><path d="M8.8 160q3.4-1 6.9-.4c1.4.3 3 1 4.3 1.1q4.8.7 9.6.2c7.8-1 14.2-.8 20 5.3 3 2.8 5.9 6 9.5 8 1 .6 2.4.3 3.5.4h4.3q1.3 0 2.6-.2 1.8-.8 3.5-1.9c5.3-3.6 8.9-6 15.6-5.4 5.5.4 11 2 16.5 2 6.4 0 8.2-2.5 14.8.8q4 2.3 7.8 4.7h55.5" class="b"/><path d="M8.8 155.3q3.2-1.5 6.9-1.5 4.3.7 8.7.5c8.7-.7 17-2.2 24.3 4.1 6.8 6 13.4 13.6 23.4 10.3 2.6-.7 5.2-1.9 7.8-2.5 6.7-1.2 13.4 1.2 20 1.8q4.3.6 8.7 0c2.3-.2 4.6-.8 7-.4q4 .6 7.7 2.2h59.9" class="b"/><path d="M8.8 151.8q3.2-2 6.9-2.8 3.5-.3 7-.8c6.5-1.1 13.5-2.4 20 0 4.2 1.4 7.7 4.4 11.2 7.1 5.7 4.8 12.3 9 20 9.2l6 .3c1.4 0 3 .4 4.4.3h99" class="b"/><path d="M8.8 149.5q3.3-2.2 6.9-3.9l7-2.2a31 31 0 0 1 20.8-.5c8.9 3.3 16 10.1 24.3 14.6 2 1 4 2.3 6 3h109.4" class="b"/><path d="M8.8 148c5.8-4.1 12.1-7.8 19-9.7 5.5-1.5 11.3-.9 16.5 1q10.7 3.8 20 10.2 4.4 3 8.7 5.9c1.5.6 3.6.2 5.2.3h105.1" class="b"/><path d="M8.8 146.2c11.4-7.7 20.4-14.3 34.7-9.4 7 2.4 14.3 4.4 20.8 8q5 2.7 9.6 6c1.6.4 3.5 0 5.2.2h79.8c3.8.2 7.6-1 11.3-1.2q6.6-.4 13 .5" class="b"/><path d="M8.8 142.2c13-8.7 20-12.1 35.6-6.7 7 2.6 14.7 2.9 21.7 5.6 3.6 1.3 7 3.5 10.4 5.2h72.9l7-2.4c10.6-4 15-6.5 26.8-3.9" class="b"/><path d="M8.8 136c2.8-1.7 5.6-3.8 8.6-5.1 7.6-3.4 16-1.2 23.5 1.2 3.6 1 7.4 2.4 11.3 2.5 11.9 0 16.5.4 26.9 7h57.3l8.6-.1a55 55 0 0 0 9.6-3.6c5.8-2.6 11-6.7 17.4-8 3.7-.4 7.6.3 11.2 1.2" class="b"/><path d="M8.8 129.2c2.8-1.5 5.6-3.4 8.6-4.4 6.5-2 13 1 19.1 2.8 4.8 1.5 9.8 3 14.8 2.9 3.2-.2 6.4-1 9.6-1.1 5.9-.4 11.5 2 16.4 5q2.1 1.4 4.4 2.5h49.5q2.5-.6 5.2-.9c3.7-.5 7.5-.5 11.2-1.2q6.5-1.3 12.2-4.7c3.7-2 7.2-4.5 11.3-5.7q2.5-.6 5.2-.3 3.5.3 7 1" class="b"/><path d="M8.8 123.6c2.7-1.5 5.6-3.1 8.6-3.8 6-1 11.7 2.3 17.4 3.9a45 45 0 0 0 14.8 2c2.6-.2 5.2-1 7.8-1.5 5.3-1.3 10.8-.4 15.6 2.3l7 3.9c1.3.6 2.8 1.6 4.3 1.7h26q4.8.2 9.6-.1 4.2-1.3 8.6-2.5a42 42 0 0 1 17.4-.7q6.8 1 13-1.4c12-4.8 10.3-6.5 24.3-5" class="b"/><path d="M8.8 119.8c2.5-1.2 5-2.5 7.8-3 2.9-.6 5.9.1 8.6 1q4.8 1.6 9.6 2.8c4.8 1 9.9.6 14.8.2 3.5-.5 6.8-2 10.4-2.4 7.6-1.3 13.5 3.6 20 6.8q3.6 1.6 7.8 2.2H93c3.5-.2 7-1 10.4-1.5q3-.5 6-.3c1.5.1 3 .6 4.4.5 4 0 7.6-1.8 11.3-3 4.7-1.8 9.8-3 14.7-2 6.2 1.1 11.8 4.9 18.3 4.5 4.5-.2 8.7-2 13-3q2.6-.5 5.2-.3l7-.3" class="b"/><path d="M8.8 118.2q3.7-1.7 7.8-2.6c3.2-.5 6.4.3 9.5 1q4.7 1.3 9.6 1.6 4.8 0 9.5-.7c3-.4 6-.6 8.7-1.7 16.3-6 18.3 3.4 32.1 5.4 6.1 1 12.2-.8 18.2-1.5q2.6-.3 5.3-.1c1 0 2.3.5 3.4.6 3.3.1 6.6-1.2 9.6-2.5 3.3-1.4 6.8-2.9 10.4-3.4 8.7-1.4 14.3 4.7 21.7 7.8 1.8 1 4 .5 6 .6 7.6 0 15.2.2 22.6-1.3" class="b"/><path d="M8.8 116.8c2.8-.7 5.7-1.6 8.6-1.8 3.2-.2 6.5.6 9.6 1q4.3.8 8.7.4c5-.5 9.8-2 14.7-2.6 3.5-.7 6.9-2 10.5-2.4 9.7-1 15 5.6 25.1 5 6.1 0 12.1-1.7 18.3-2q2.5 0 5.2.3c2 .4 4 1 6 .7 7-.9 13-5.5 20-5.9 6.8-.5 12 4.6 17.4 8 1.2.8 3 .4 4.3.5h26" class="b"/><path d="M8.8 113.3h32c1.8 0 3.6-1 5.3-1.3q3.8-.8 7.8-1.5 6.1-1.3 12.2-.1c7.9 1.8 11.4 4.4 20 1.8 10-3 16.5-5.2 26.8-1.4q4.5.9 8.7-.3c6-1.4 11.9-4.8 18.2-4.2 4.7.6 8.5 4 12.2 6.7 1.3.5 3 .2 4.3.3h27" class="b"/><path d="M8.8 108.6h41.6c3.2-.1 6.4-.7 9.6-.3 3.7.5 7.5.2 11.3.3q6.5 0 13-.1c3.9-2.2 7.8-4.7 12.1-5.8 9.9-2.5 14.6 4 23.5 4.4 5 .4 10-1.4 14.7-2.7 6-1.7 9.8-.8 14.8 2.7.7.5 1.7 1.3 2.6 1.5h31.2" class="b"/><path d="M8.8 103.9h74.6c1.3-.6 2.4-1.8 3.5-2.7q3-2.4 6-4.3c5.2-3.1 10.6-2.3 15.7.5 10.3 5.6 15 8.6 27 4.7 3-1 6.3-1.7 9.5-.7q2.7 1 5.2 2.3c3.4.4 7 0 10.4.2h22.6" class="b"/><path d="M8.8 99.1h73.8c3.2-2.7 6-6.2 9.5-8.6 4.8-3.5 9.8-3.3 14.8-.4l9.5 6.1c1.6 1 3.4 2.3 5.2 3h15.6q5.3-1.9 10.5-.2c4.3.4 8.7 0 13 .1h22.6" class="b"/><path d="M8.8 94.4q36.4.2 72.9 0c3.4-3.2 6.5-7 10.4-9.6 4.4-3.1 9.3-3.1 13.9-.4q5.3 3 10.4 7c1.7 1 3.3 2.6 5.2 3h61.7" class="b"/><path d="M8.8 89.7H79q1.4.1 2.6-.3c3.8-3 7.1-6.8 11.3-9.4 5.9-4 11.5-3 17.3.6 5 2.8 9.3 7.2 14.8 9.1h58.1" class="b"/><path d="M8.8 85h71.1c1.2 0 2.6.3 3.5-.5 4.1-2.8 7.8-6.3 12.2-8.7a15 15 0 0 1 17.3.3c5.5 3.4 11 7.4 17.4 8.9h52.9" class="b"/><path d="M8.8 80.3h69.4q4.4.2 8.7-.1c4.1-2.5 8-5.5 12.1-7.8 6.8-3.6 10.1-3 16.5.6a83 83 0 0 0 16.5 7.2q7.5.2 14.8 0h36.4" class="b"/><path d="M8.8 75.6H92c3.6-1.7 6.8-4.4 10.4-6.1 6-3 8.3-1.3 13.9 1l13 5c2 .3 4.1 0 6.1 0h47.8" class="b"/><path d="M8.8 70.9h87.6c2.6-1.3 5.2-3 7.9-4 4.6-1.8 6.9-.4 11.2 1l9.6 3h58.2" class="b"/><path d="M8.8 66.2h85c3-.6 5.8-2.3 8.7-3.1 4.4-1.5 7-1.3 11.3.4l6 1.9c1.1.2 2.4.8 3.5.7h59.9M8.8 61.4h49.4q10.5.2 20.9 0 9.8-1.2 19-4.4c3.7-1 7.6-2.1 11.4-1.4q2.6.8 5.2 1.7 6.1 2 12.1 4 9.1.1 18.2.1h38.2" class="b"/><path d="M8.8 56.2c2.2.7 4.6.5 6.9.5h56.5c1-.1 2.3-.8 3.4-1.2l6-1.8q6.7-2 13.1-4.3c4.7-1.6 9.8-3 14.8-1.7l6.9 2.4a108 108 0 0 1 15.6 6.6h51.2" class="b"/><path d="M8.8 48.3c2.8 1.2 5.7 2.7 8.6 3.6 1.7.3 3.6 0 5.2.1h48.7q5.1-2.6 10.4-4.7c8-3.5 16-9 25.1-8 3.4.4 6.4 2 9.6 3a61 61 0 0 1 20 9.7h46.9" class="b"/><path d="m8.8 39.3 6 3.2q2.7 1 5.2 2.1l4.4 2.3q1.2.6 2.6.4h40l2.5-.1 5.2-2c5.6-2 10.6-5.3 15.7-8.2 5.2-3 11.3-5.3 17.3-4 2.4.6 4.6 1.8 7 2.5 5 1.5 10 2.6 14.7 5 3.8 1.7 7 4.5 10.4 6.8h36.5q3.5.1 7-.5" class="b"/><path d="M8.8 30.3q3.4 1.7 6.9 3.4 2.7 1 5.2 2.2c4.6 2.2 9 4.8 13.9 6.3 2 .7 4 .3 6 .4h20l10.5-1.4q4.6-.7 8.6-2.6c6-2.9 11.6-7.1 18.3-8.7q5.7-1.3 11.3.5 3.3 1.5 6.9 2.3c10.9 1.8 16.3 2.8 25.2 9.9h30.3c1.5 0 3 .2 4.4-.3q3.3-2 7-3.5" class="b"/><path d="M8.8 22.2q3.4 1 6.9 2.5 2.7 1 5.2 2.1c5.6 2.7 11.2 5.8 17.4 7.2s12.7 1.5 19 2.4c6.7.7 13.5 2.3 20 .8 10-3 18.5-11.7 29.6-10.3 3 .3 5.7 1.7 8.6 2.3 4 .8 8.2 1.2 12.2 2.2a41 41 0 0 1 13 5.8l.9.6h28.6c1.4 0 3.1.4 4.4-.4 2.9-1.6 5.7-3.6 8.6-5.1" class="b"/><path d="M8.8 15.7c5.1.5 10 2.8 14.7 4.8q7.6 3.6 15.7 6.2 5.6 1.5 11.2 3.2l9.6 3.3h15.6q4.4 0 8.7-.1c7.9-3.7 15.2-10.2 24.3-10 2.6.2 5.2 1.2 7.8 1.8q8.5 2 16.5 5.2c2.6 1 5.1 2.4 7.8 3h29.5c4.6-1.7 8.9-4.2 13-6.7" class="b"/><path d="M8.8 11.5c4.9-.5 9.3 2 13.9 3.5Q31.3 17.8 40 21q5.3 2.1 10.4 4.8c1.7.8 3.4 2 5.2 2.5h33c2.2-.6 4.1-2.2 6.1-3.2 4.6-2.6 9.3-5.8 14.8-6.1 3 0 5.9 1 8.6 2q5.8 2.3 11.3 5c2 .8 4 2 6.1 2.3h25.2c4.7-1 9.3-2.6 13.9-4q4.5-1.6 8.6-3.8" class="b"/><path d="M8.8 9q3.5-.3 6.9.7 3.7 1.6 7.8 2.5c9.4 1.7 16.3 3 24.3 8.6q2.1 1.6 4.4 3h38.1c1.2 0 2.5-.6 3.5-1l3.5-1.9c5.3-2.6 11.2-6.4 17.3-4.5 4.7 1.3 8.8 4.2 13 6.5l1.8.8h20.9c4.5-1.7 9-3.9 13.8-4.7q4.8-.9 9.6-1.5a85 85 0 0 0 9.5-2.4" class="b"/></svg>