<svg xmlns="http://www.w3.org/2000/svg" id="a" width="1920" height="2400" viewBox="0 0 192 240"><defs><style>.b{fill:none;stroke:#fff;stroke-miterlimit:10;stroke-width:.4px}</style></defs><path d="M0 0h192v240H0z" style="stroke-width:0"/><path d="M8.8 224c4.6-1.3 8.7 0 13 1.6 4.5 1.6 9.1 3.5 13.9 3.5h22.6q6.3-1.7 13-2.3l11.3-.8c3.1 0 6.4.2 9.5-.3 5.3-.6 10-3.2 14.8-5.3q5.4-2.2 11.2-2 5.6.2 10.5 3.2a62 62 0 0 1 6.9 5c1 .8 2.2 2 3.5 2.5h44.2" class="b"/><path d="M8.8 221.8c5.6-1.2 11 1.3 16.5 2.4 2.8.4 5.8 0 8.7.2h56.4c1 0 2.4 0 3.4-.4 5.3-1.6 9.8-5 14.8-7.1 2.2-1 4.6-1.2 7-1.6 4.3-.7 9 0 13 2q3.6 1.8 6.9 4.2c1.4 1 2.7 2.3 4.3 2.9h43.4" class="b"/><path d="M8.8 219.6h85.9q2.6.2 5.2-.1l2.6-1.7c2.7-1.7 5.5-3.7 8.7-4.6 5.7-1.5 11.7-2.5 17.3 0a48 48 0 0 1 7.9 4.4c1.3.7 2.7 2.2 4.3 2h42.5" class="b"/><path d="M8.8 215h94.6c1.2-.2 2.3-1.3 3.4-2q2.9-1.6 6.1-2.6 3.4-1.2 7-1.6c6.7-1 12.7 2.7 18.2 6.1h45.1" class="b"/><path d="M8.8 210.2h99.8c2.9-.9 5.7-2.3 8.7-3.1 3.6-1.2 7.6-1.3 11.2 0q3.7 1.2 7 3.1h47.7M8.8 205.5h106.7l2.6-1q3-1 6.1-1 4.6.2 8.7 2h50.4M8.8 200.8H119c2.3-.5 4.6-1.3 7-1.3q2.1 0 4.3.5c1 .2 2.3.8 3.4.8h49.5M8.8 196h111.9a29 29 0 0 1 7.8-1.4q3.5 0 7 .7c1.7.3 3.4 1 5.2.8h42.5M8.8 191.4H119c1.8 0 3.5-.8 5.2-1.2a46 46 0 0 1 15.6-1.5q3-.1 6.1.5a26 26 0 0 1 6 2.2h31.3M8.8 186.7h101.5c4.1.2 8.1-1 12.2-1.6 7.2-1.2 14.4-3.1 21.7-3.7 4.8.1 9 3 13 5.3h26" class="b"/><path d="M8.8 182h89.4l4.3-1.3q4.3-1.3 8.7-1.8c6-.4 12.2.8 18.2-.2 5-.6 9.8-2.6 14.8-3.5 3-.3 6 .6 8.6 1.7 3.8 1.6 7.4 3.7 11.3 5h10.4c2.9-1.1 5.7-2.5 8.7-3.2M8.8 177.2h82.4q6.4-2.9 13-5c10.7-3.3 16 2.1 26 1.6 4.9-.1 9.4-2 14-3.3 8.7-1.7 17.2 4 26 2.2 4.6-1 8.4-4.2 13-5.2" class="b"/><path d="M8.8 172.5h78.1c4-1.6 8-3.8 12.2-5.3 5.4-2 11.6-3.7 17.3-1.9 12.2 4 15.2 5 27.8 1.2 3.4-.8 7-.7 10.4-.6 6 .4 12.5.7 18.2-1.8 3.4-1.5 6.7-3.5 10.4-4.4" class="b"/><path d="M8.8 167.8h69.4q1.4.2 2.6-.4c4.9-2.4 9.7-5 14.8-7 6.8-2.7 14.5-4.6 21.7-2.2 6.4 2.2 13 4.5 20 3.8 3.7-.3 7.4-1 11.2-.8 8.1.5 16.5 1.8 24.3-1.2 3.5-1.3 6.8-3.2 10.4-4" class="b"/><path d="M8.8 163.1h66.8c12.5-7.4 23.7-15.6 39-13 5 1 9.8 2.6 14.8 3.4 4.6.8 9.3.9 13.9 1.4q4.8 1 9.5 2.3c6.8 2 14 3 20.9.7 3.2-1 6.3-2.4 9.5-3.3" class="b"/><path d="M8.8 158.4h65.1c1.5-.6 3-1.7 4.3-2.5 4.1-2.5 8-5.4 12.2-7.9a33 33 0 0 1 17.3-5.3c5.2 0 10.5 1 15.6 1.6 5.5.8 11.2 1.3 16.5 2.8 6.8 2 12.5 6.4 19.1 8.8 9 3.4 15.7 1.4 24.3-1.5" class="b"/><path d="M8.8 153.7h58.1c2.9-.1 5.9.2 8.7-.1q3.7-1.8 7-4.1c9.9-7.4 17-14.3 30.3-12.5 10.2.7 21.5-.7 30.4 5.4 4.4 2.9 8.5 6.5 13 9.3q1.7 1 3.5 2h23.4" class="b"/><path d="M8.8 149H79a37 37 0 0 0 7-4.8c6.3-5.2 13-11.5 21.6-12.1 3.2-.3 6.4.2 9.6 0 8.8-.4 17.8-.5 25.1 5.3 4.2 3.2 8 6.9 12.2 10l2.6 1.6h26" class="b"/><path d="M8.8 144.3h72c5.4-2.9 9.7-7.4 14.8-10.8 8.3-5.7 12.9-5.6 22.5-6 8-.6 16.2.7 22.6 5.6 4.3 3.3 8.4 7.1 13 10l1.8 1q1.6.2 3.4.2h24.3" class="b"/><path d="M8.8 139.5h7q2-.4 4.3-.6c2.6-.2 5.2.8 7.8.6H79q3.2-1 6-2.8 5.7-3.4 11.3-6.9 9.3-5.3 20-6.8a29 29 0 0 1 23.4 6.2c3.6 2.8 7.2 6 11.3 8q2.4 1.5 5.2 2.3h26.9" class="b"/><path d="M8.8 134.6q5.4-1 10.4-3c7-2.5 14.2-.2 20.8 2.2q2.2.8 4.4 1H73q2.6-.6 5.2-1.4 5.3-1.5 10.4-3.6 12.7-5 25.2-10.4 10.5-4.1 20 2c4.8 2.9 8.8 7.2 13.8 9.8q5.1 2.2 10.4 3.6h25.2" class="b"/><path d="M8.8 129.7q3.6-.9 7-2.5c3.3-1.9 6.6-4 10.3-5.1 6.2-2 12.5.2 18.3 2.3 2.5.9 5.2 1 7.8 1.8 3.7 1 7.4 2.3 11.2 2.7 6.3.8 12.3-1.6 18.3-2.7 6.6-1.2 13.5-1.8 20-4.1 9.7-3.1 15.8-12.4 26.8-7.7 6 2.5 10.3 7.5 15.7 10.9 4.7 2.8 10.4 3.2 15.6 4.8q11.7.1 23.4 0" class="b"/><path d="M8.8 125.4c6.9-1.2 11.6-6.7 17.3-10.2 6.6-4.2 12.2-3.4 19.1-.9 2 .8 4.2 1 6.1 2 3.5 1.4 6.8 3.5 10.4 5 5.4 2.2 11 1.6 16.5.4q5.2-.7 10.4-.5c21.7 1 22-12 34.7-12.1 7.8.5 13 7.2 19.1 11.2 4.1 2.7 9.2 3 14 4l3.4 1.1h23.4" class="b"/><path d="M8.8 120.7c12.5.2 18-19.4 34.7-14.4l6 1.7c3.2 1.2 6 3.4 8.8 5.3a26 26 0 0 0 17.3 6c2.9-.1 5.8-.5 8.7-.3 9.2.6 16.5.3 24.3-5.4 3.3-2.4 6.4-5.5 10.4-6.9 8-3 14.9 3.8 20.8 8.2q2.4 1.8 5.2 2.9 3.4 1 7 1.4 2.6.3 5.2 1a9 9 0 0 0 3.5.5h22.5" class="b"/><path d="M8.8 115c12-.8 18.2-13.8 30.4-14q3.5 0 6.9.8a18 18 0 0 1 7.8 3c5.7 4 10.7 9 17.4 11.2H99q5.1-2 9.6-5.1c2.8-2 5.5-4.3 8.7-5.8 8.6-4.4 15.6 1.1 22.5 5.8q2.5 1.6 5.2 2.5c2.6.8 5.3 1 7.9 1.4q3 .4 6 1.2h24.3" class="b"/><path d="M8.8 106.8c8.7 0 14.7-4.7 22.5-7.3a32 32 0 0 1 14-1.5q2 .2 4.3.6 2.8.9 5.2 2.3 5.4 3.6 10.4 7.4c1.7 1 3.3 2.5 5.2 3h30.4q1.7.1 3.5-.3c4.4-2.3 8.5-5.3 13-7.5 8.9-4.4 15.4-1 23.4 3.3 4.3 2.4 9.2 2.7 13.9 3.6l4.3.9h24.3" class="b"/><path d="M8.8 97.7c9.3 0 18.5-1.1 27.8-1.6q4.3-.3 8.6-.2 4.6-.2 8.7 1.3c4 1.6 7.7 4 11.3 6.3l3.5 2.2q1.2.9 2.6.9h38.1l6.1-3c3.8-1.8 7.9-3.6 12.2-4 7.3-.7 13.8 3.8 20.8 5l10.4 2h24.3" class="b"/><path d="M8.8 88.9q5.3 0 10.4 1c5.2 1.4 10.3 3.5 15.6 4.2 6.6 1.1 13.4-.4 20 1A41 41 0 0 1 66 99.5c4.6 2.7 3.2 2.4 8.6 2.3H119c1.2-.2 2.4-1 3.5-1.5 9.9-4.7 14.3-3.3 24.3-.5q3.3.8 7 1.3 2.5.6 5.1.7h24.3" class="b"/><path d="M8.8 81.5c13.8-.4 18.8 11.3 33.8 11.5 5.8.1 11.7-.4 17.4.9q3.1.7 6 2c1.1.5 2.3 1.4 3.5 1.2h58.2q2.1-1 4.3-1.7 6.1-1.9 12.2 0l9.5 1.6c3.4.3 7 0 10.4.1h19.1" class="b"/><path d="M8.8 76.4c6-.3 10.9 2.5 15.6 5.9 4.3 3 8.8 6 13.9 7.2 7.4 1.8 15.2.7 22.6 2.6 1.3.5 2.9.3 4.3.3h71.2q2.2-.2 4.3-.4c5.5.6 11 .4 16.5.4h26" class="b"/><path d="M8.8 72.1c6.6-1 11.5 2.7 16.5 6.4 4.3 3.3 8.8 6.6 13.9 8.5 2.1 1 4.6.7 6.9.7h137.1" class="b"/><path d="M8.8 67.8c6-1.4 10.2 1.1 14.7 4.6s9 7.2 14 10.1c.6.6 1.7.5 2.5.5h143.2" class="b"/><path d="M8.8 63.3c5.5-1.6 9.3.2 13.9 3.3 4.7 3.2 9.2 7 13.9 10.3.4.3 1.2 1 1.7 1.2q1.3.3 2.6.2h142.3" class="b"/><path d="M8.8 58.6c5.6-1.5 9.1 0 13.9 2.8 5.4 3.1 10.4 7 15.6 10.5q1.3 1 2.6 1.7H145c1.7-.6 3.4-1.7 5.2-1.8q3.1-.3 6.1.5c1.4.3 2.9 1.2 4.3 1.3h22.6" class="b"/><path d="M8.8 54c5.3-1 8.3 0 13 2.3q8 3.8 15.6 8.3l7 4c1.3.4 3 .2 4.3.3H133c3.7-.2 7.6.2 11.3-.2 6.7-6 13.5-2.9 20.8.1h10.4q2.2.2 4.3 0 1.8-.8 3.5-1.3" class="b"/><path d="M8.8 49.2q3.5-.2 7 .6l5.1 2A311 311 0 0 1 47 64q1.3.4 2.7.3h92c1.7.2 3-1.6 4.3-2.4 9.6-6.2 17.5 1.8 27 2 3.4-.1 6.8-1.5 10.3-2" class="b"/><path d="M8.8 43.8c4.6.6 8.8 2.6 13 4.5l14.8 6.5c3.2 1.4 6.3 3.2 9.5 4.6h92c1.5 0 3.3.3 4.3-1a20 20 0 0 1 19.1-3.4c3.8 1 7.5 2.5 11.3 3 3.5.3 7-.5 10.4-.8" class="b"/><path d="M8.8 38.5c5.1 1.8 9.8 4.7 14.7 7q9.2 4.4 18.3 9 1.2.3 2.6.2h91.9q1.6-.2 2.6-1a29 29 0 0 1 28.7-2.6q3.8 1.4 7.8 2.3 3.8.6 7.8.2" class="b"/><path d="M8.8 34c5.5 3 10.8 6.6 16.5 9.4l8.7 4.4c1.7.7 3.4 1.8 5.2 2.2h68.5l27.8-3.7q6.1-1 12.1-2.5c7-1.8 14.3-.9 20.9 2.1 3.4 1.4 6.6 3.6 10.4 4.1h4.3" class="b"/><path d="M8.8 31q4 2.4 7.8 5.2a91 91 0 0 0 16.5 8c1.3.4 2.8 1.2 4.3 1.1h66c1.4-.1 3-1 4.3-1.4l5.2-1.6c4-1.4 8-3.2 12.2-4 5.1-1.1 10.4 0 15.6.2 4.6 0 9.2-1.2 13.9-1.2a28 28 0 0 1 11.3 2c4 1.4 7.4 4.2 11.2 6h6.1" class="b"/><path d="M8.8 29.7c4 2.4 7.7 5.6 12.1 7.3q7.6 2.9 15.7 3.6H100q7-1.4 13.8-4c6.6-3.2 12.3-6.2 20-5 3.1.3 6.3 1.1 9.5 1 6.3-.3 12.8-2 19-.5q5.3 1.3 9.6 4.1c3.4 2.2 7 4.8 11.3 4.4" class="b"/><path d="M8.8 30.2c3.5 1.5 6.7 3.6 10.4 4.6 7 2 14.5.6 21.7 1q21.3.2 42.5 0c10 .2 20.1.1 29.5-3.3 5.6-2.4 11-6 17.4-5.8 3.5 0 7 1 10.4 1.5 4.4.5 8.8-.7 13-1.6a26 26 0 0 1 19.1 2.2c3.3 2 6.7 4 10.4 5" class="b"/><path d="M8.8 31.2H99c2 0 4.2.2 6.1-.3q5-.9 9.6-2.8c5.4-2.7 11-5.8 17.3-4.9 3.8.4 7.5 2 11.3 2.1 8.2.2 15.2-5.6 23.4-5.7a17 17 0 0 1 9.6 3.1q3.3 2 7 3.6" class="b"/><path d="M8.8 26.5h102.4c2.8-.3 5.3-2.2 7.8-3.3 5.3-3 10.6-4 16.5-2.1 4 1.1 8 2.7 12.1 1.7 8.1-1.5 16-10 24.3-8.3q2.3.7 4.4 2l7 3.5" class="b"/><path d="M8.8 21.8H40q9.6.2 19.1-.4c6.7.5 13.3.3 20 .4h38.2c1.2-.3 2.3-1.2 3.4-1.7q2.2-1.1 4.4-1.8 4.7-1.5 9.5 0c7.7 2.4 11.2 4.2 19.1.4 5.8-2.5 12.5-9 19.1-7.5 3.5 1.3 7 3.2 10.4 4.6" class="b"/></svg>