<svg xmlns="http://www.w3.org/2000/svg" id="a" width="1920" height="2400" viewBox="0 0 192 240"><defs><style>.b{fill:none;stroke:#fff;stroke-miterlimit:10;stroke-width:.4px}</style></defs><path d="M0 0h192v240H0z" style="stroke-width:0"/><path d="m10.4 231.6 52-.1c4.8-3.6 10-7.6 16.1-8.5q4-.3 7.7-.3c8.6-.1 17.5-.2 25.6 3 6 2.1 12.6 1.6 18.7 0q4.6-1.3 9.4-2.3c4.5-.5 9.1-.8 13.6-1.8 5.1-1 10.2-2.8 15.4-3.5q3-.4 6-.1 3.4 0 6.7.2" class="b"/><path d="M10.4 227h51c1 0 2-1 2.6-1.4l3.5-2.5c3.5-2.4 7.5-4.6 11.9-5.1 8.3-.5 16.6.8 24.7 2.4 5.1 1 10 3.1 15.3 3 6 .2 12-1.2 18-2 4.8-.7 9.8-.8 14.4-2.5 6.7-2 12.6-6.3 19.6-7q5.2 0 10.2.2" class="b"/><path d="M10.4 222.3h48.5c5 .1 3.8.2 7.7-2.6 3.2-2.2 6.5-4.3 10.2-5.5 5.6-1.8 11.5-.6 17 .3q9.8 1.9 19.7 3c5 .2 10.2-1 15.3-1 5.1-.3 10.2.2 15.3.2q6.7 0 12.8-2.7c5.1-2 9.8-5.6 15.4-6q4.6-.2 9.3.1" class="b"/><path d="M10.4 217.7h52.8c1.8-.7 3.4-2.2 5.1-3.2a45 45 0 0 1 8.5-4.5c6.7-2.8 13.7-.2 20.5.7q8 1.1 16.2.2c3.7-.8 7.3-2.3 11-2.7 5-.8 9.8.6 14.5 2a78 78 0 0 0 9.4 1.6c4.7.5 9.4-.8 13.6-2.8 3-1.4 6-3.2 9.4-3.7a83 83 0 0 1 10.2 0" class="b"/><path d="M10.4 213h52c.8 0 1.8-.7 2.5-1.1l4.3-2.6c4.2-2.3 8.7-4.9 13.6-5.4 4.6-.3 9 1.3 13.6 1.7q8.3 1 16.2-1.6c6.7-2.8 11.9-7.3 19.6-4.4q4 1.7 7.7 3.5l6 2.2a20 20 0 0 0 17 .5c2.5-1 5-2.3 7.7-3q2-.3 4.2-.3h6.8" class="b"/><path d="M10.4 208.4h9.3c1.2 0 2.3-.8 3.4-1q2.6-.7 5.2-.7c3.2-.1 6.3 1 9.3 1.7h20.5c1.8.1 3.4-1.2 5-1.8q6.8-3.3 13.7-6.2c4.4-2 7.2-2.3 12-1.3 8.9 2.1 14.2 2.3 23-1 8.4-4.5 12.8-11.4 23-5q3 1.8 6 3.7 2.5 1.2 5 2.6c5.5 3.3 10.7 5.3 17 2.9q3.8-1.6 7.7-2.8 2.2-.4 4.3-.3h6.8" class="b"/><path d="M10.4 203.8h8.5c1.4-.5 2.8-1.5 4.3-2.1 8.3-4 14.6-1.4 23 0 5.4.7 11-.8 16.1-2.3q7-2.2 13.7-4.6c5.7-2.2 7.6-2.7 13.6-.9 3.6 1 7.3 2.1 11 2q6.4-.1 12-2.8c6.8-4.1 12-10.6 20.5-5.6q3.4 2 6.8 4.6 3.4 1.8 6.8 3.8c5.7 3.5 10.8 4.4 17 1.6 2.5-1 5-2.3 7.7-2.7q5.2 0 10.2.3" class="b"/><path d="M10.4 199.2h5c1.2 0 2.5.2 3.5-.4a45 45 0 0 1 17.9-6.8c5-.6 10.2 0 15.3-.2q6.5-.6 12.8-1.5 6.9-.7 13.6-2.1c3.7-1.2 6.8-.5 10.3.8 5 2.1 10.6 4.2 16.1 3q4.6-.7 8.6-2.8c6.2-3.8 11.4-7.8 18.7-3.6 2.7 1.4 5.1 3.4 7.7 5a42 42 0 0 0 12 4.6c5 .9 9.8-1.3 14.4-3.1q3.7-1.7 7.7-.8l7.6.8" class="b"/><path d="M10.4 194.6c1.3-.1 2.9.1 4.2-.2 3.3-.8 6.3-2.4 9.4-3.7 6-2.6 12.3-5.1 18.8-6.4q4.6-.7 9.3-.7l9.4-.6c5.4-.2 10.8.8 16.2.9 1.3 0 2.9-.4 4.2-.3 4.9.6 9 3.8 13.7 5 6 2 12.3-.3 17.9-2.7 4-1.9 8.2-4 12.7-3.2 6.7 1 11.3 7.2 18 8.4 12 3.2 18.6-3.6 27.2-2.2q5 1.7 10.2 2.4" class="b"/><path d="M10.4 188.4c7.6-1.6 15.5-2.8 23-5.1 4.2-1.3 8.4-3.1 12.8-4q2.5-.4 5-.4l6-.7c6.8-1 12.4.8 18.8 2.5 1.9.6 4 .5 6 .8q3 .9 5.9 2.4c4.8 2.4 10 4 15.3 2.2 4.9-1.6 9.6-4 14.5-5.2 8.6-2.2 14.2 3 21.3 6.5 3.8 1.6 8 1.1 12 .7 6.7-1 14-2.7 20.4.4 1 .4 2.2 1.4 3.4 1.4h6.8" class="b"/><path d="M10.4 181.7q4.6-1.3 9.3-1c4.3.2 8.6 1 12.8.7 4.7-.4 9.1-2.1 13.6-3.2q2.6-.4 5.2-.6c2.5-.3 5-1.1 7.6-1.5 6-1.2 11.6.9 17 3.1 2.5 1 5.3 1 7.7 2.1 7.3 3.3 12 5.6 19.6 1.5 3.1-1.5 6-3.5 9.4-4.4 8.7-3 14.5-.4 22.2 3.6q4.8 2.7 10.2 2c7.2-1 13.6-2.2 20.4 1.2 5.4.3 10.8 0 16.2.1" class="b"/><path d="M10.4 175.7c8.8-2.5 13.3 2.2 21.3 4 4.8 1.2 9.7.1 14.5-1 1.9-.3 4-.2 6-.7 7.8-2.4 12.2-4.6 20.4-1.2q3 1.2 6 2.3 2.5.7 5 1.5h16.2q1 .2 1.7-.2c5.4-3.5 7.8-6.2 14.5-7.2 7.4-1.4 13.8 2.1 20.5 4.6 4.7 1.8 9.6-.2 14.5-.3a19 19 0 0 1 10.2 2.7l.8.5h19.6" class="b"/><path d="M10.4 170.8c6-1.6 10.2.3 15.3 3.4q1.6 1 3.4 1.9h28.1q2.5-1 5.1-1.7 4.8-1.1 9.4.3c1.7.3 3.4 1.3 5.1 1.4h25.6q3.3-2.7 6.8-4.8 2.5-1.2 5.1-1.8c7-2 13-.5 19.6 2q3.3 1 6.8 1.4 3.4-.2 6.9-.5 4.8-.3 9.3 1.6c1.5.5 2.8 1.7 4.3 2h20.4" class="b"/><path d="M10.4 165a16 16 0 0 1 13.6 2.5c2 1.2 4 2.8 6 4h67.3c8.4 0 4.9.3 11.9-3.4a31 31 0 0 1 17-2.7c4.4.7 8.5 2.8 12.8 3.7 3.4.5 6.9-.1 10.2.5q2.2.3 4.3 1l2.6.8h25.5" class="b"/><path d="M10.4 158.8c7.5-1.8 12 0 17.9 4.6l3.4 2.6q.6.7 1.7.8H105c1.7.1 3.4-1.1 5-1.6 5-1.6 10.1-3.5 15.4-2.7q4.5.7 8.5 2.5c2.2.8 4.5 2 6.8 1.8h41" class="b"/><path d="M10.4 152.6c3.3-.4 6.8-.8 10.2-.4 6.3 1.4 11.2 6.2 16.2 10h75c1.4 0 2.8-.8 4.2-1.1q3.3-1.1 6.8-1.2 5 .2 9.4 2.3h49.4" class="b"/><path d="M10.4 147.1q5.1.1 10.2-.5c4.6-.1 9 2.1 12.8 4.6l6 4.3c1 .7 2.1 1.7 3.3 2h76.8q1.6-.3 3.3-.3c1.7 0 3.5.4 5.1.3h53.7" class="b"/><path d="M10.4 143.1q3 .7 6 .4 2-.3 4.2-.9c6-1.2 11.9 1 17 3.8 3 1.6 6.1 3.5 9.4 4.6q2 .6 4.3 1l3.4 1h126.9" class="b"/><path d="M10.4 139.6q3.4.8 6.8.3c2-.4 4-1.2 6-1.4 10.1-1.8 16.4 3.6 25.5 5.7 4 .4 7.5 2.5 11 4h121.9" class="b"/><path d="M10.4 135.4q3.4.3 6.8-.6 4.2-1.4 8.5-1.9c6.6-.5 12.7 2.2 18.8 4.3 3.8 1.4 8 1.6 11.9 3.2 2.9 1 5.6 2.5 8.5 3.3h116.7" class="b"/><path d="M10.4 131.3c5.1-1.1 10-3.8 15.3-4 6.9-.4 13.3 2.5 19.6 4.6 4.4 1.5 9.1 1.8 13.6 2.6 5.8 1 11.5 2.9 17 4.5h105.7" class="b"/><path d="M10.4 127.6c10.9-6.7 17.7-7.2 29.8-3.2 5 1.6 10 3.5 15.3 3 13.6-1 16.3 1.5 28.2 6q2 .9 4.2 1h7.7c4.9-.2 9.5-2.8 14.5-2.4 3.5.3 6.8 1.6 10.2 2.4h61.3" class="b"/><path d="M10.4 124.5q3.2-2.7 6.8-4.9c8-3.7 17.2-3 25.5-1 11 3 9 2 19.7.8 14.2-1.5 19.5 12 34 8.3 12-3.3 11-4.5 23 .4 1.7.5 3.4 1.4 5.2 1.7h57" class="b"/><path d="M10.4 122q3.5-3.2 7.6-5.5c5.2-2.1 10.6-4 16.2-4.6q5.6-.8 11.1 0c2.3.3 4.5 1.1 6.8 1.2q4.3-.2 8.6-.5c7.4-.5 13.5 3.5 19.6 7.3q8 5 17 1.8c3.4-1 6.7-2.8 10.2-3.2 2.3-.4 4.6.6 6.8 1.3q4.6 1.6 9.4 2.7c5.6 1.3 11.4 1.1 17 1.3 6 .6 12-2 18-1.2q4.4.6 8.5 2.6h14.4" class="b"/><path d="M10.4 120.4q3.3-2.5 6.8-4.8l7.7-3.7c5.4-2.6 11-5 17-5.6 3.4-.5 6.8.2 10.2.5 4.9.1 10 0 14.5 2 7.8 3.2 14 10.8 23 10.2 5.8-.3 10.8-3.7 16.2-5.2q2.1-.5 4.3-.3 2.5.7 5 1.3 6 1.2 12 .5c4.3-.5 8.5-1.7 12.8-1.8q2.5.2 5.1 0c3.1-.1 6.3-.6 9.4-.5 3.8 0 7.6 1.3 11 3l6 3.2c1 .6 2.2 1.4 3.4 1.3h6.8" class="b"/><path d="M10.4 116h3.4q.8 0 1.7-.5 4.2-2.8 8.5-5.1a53 53 0 0 1 22.2-8h5q3.4 0 6.9.2c12.8 1.4 18.1 14 31.5 12.2 4.8-.6 9.2-3 13.6-4.7 10.2-3.8 10 4.1 28.2-3 2.7-1 5.5-2.1 8.5-2.4h4.2l5.1-.2c8-.4 14 3.2 20.5 7.2q5.4 3.6 12 2.6" class="b"/><path d="M10.4 111.3q4.3.2 8.5-.1 5.5-4 12-6.8 8.5-3.7 17.8-4.6c3.4-.4 6.8-1 10.2-.6 7.5.9 13 6.7 19.6 9.6q5.9 1.8 12 .4c5.2-1 10-3.7 15.3-4.8 3.1-.7 6.3.4 9.4.7 6.5.8 12.8-1.8 18.7-4.3q3.3-1.5 6.8-1.9h8.6c7 0 13 3.8 18.7 7.5 4.2 2.9 8.5 4.6 13.6 3.8" class="b"/><path d="M10.4 106.7h9.3q1.5 0 2.6-1a43 43 0 0 1 12-5q6-1.3 11.9-2.4 3.7-.9 7.6-1.9c8.5-2.1 14.2 1.7 21.3 5.4 3.2 1.7 6.8 1.9 10.3 1.5 7.2-.5 14-3.8 21.2-4.6 4-.4 8 1 12 1.3 6.7.9 13.1-1.6 19.6-3.1q3-.6 6-.6 3.8-.3 7.6.2c4.7.6 9 3 12.8 5.7l4.2 2.9c1 .5 2.2 1.5 3.5 1.6h9.3" class="b"/><path d="M10.4 102h8.5c1.7 0 3.6.3 5.1-.7 6-3.2 13-3.5 19.6-4.8 8.3-1.6 14-6.7 23-4 4.6 1.2 8.8 4.2 13.6 4.3q7.5-.4 14.5-2.2c4.8-1 9.6-2.4 14.5-2.2 3.8.2 7.5 1.7 11.1 2.6q5.9 1.7 12 1.5 6.7-.7 13.6-1.3 6.2-.5 11.9 1.9a51 51 0 0 1 7.7 4.5q1.1.6 2.5.4h13.6" class="b"/><path d="M10.4 97.4h15.3q1.4 0 2.6-.7l3.4-1.1 11-2.8c6.7-1.4 12.6-6 19.7-5.9 5.4 0 10.1 3 15.3 4.2 2 .4 4 0 6-.2a89 89 0 0 0 10.2-2c5.8-1.5 11.8-3.5 17.9-2.6 3.9.7 7.4 2.8 11 4.3 6.9 3.3 13 3.8 20.5 3.1 4-.3 8-.7 12 .5a27 27 0 0 1 5 2.1c.8.4 1.7 1.2 2.6 1.1h18.8" class="b"/><path d="M10.4 92.8h21.3C38 90 44.9 88 51.3 85.3c6.5-3 12.2-2.8 18.7 0 3 1.2 6.1 2.8 9.4 2.9a53 53 0 0 0 17-4.8c6.1-2.4 13.3-5.7 19.6-2.2 7.5 3.8 14.2 10.2 23 10.8 3.1.2 6.3-.3 9.4-.4a26 26 0 0 1 8.5 1.2h24.7" class="b"/><path d="M10.4 88.2h25.5Q43.6 85 51.3 82q6.2-2.4 12.7-1c9.7 2.8 12.3 7.4 23 3.3 5.4-1.9 10.3-5 15.4-7.5 5.4-2.5 10-3.5 15.3-.2 6.6 3.8 12.2 9.6 19.6 11.4h44.3" class="b"/><path d="M10.4 83.5h32.3l2.6-1q3.8-1.3 7.7-2.5a24 24 0 0 1 13.6.4c3.4 1 6.7 2.5 10.2 3.1 8.1.7 15.4-3.6 22.2-7.4 7.2-4 12.5-6.8 20.4-2.4 7.2 3.5 13.8 9.3 22.2 9.3 3.4 0 6.8-.7 10.2-.4 2.3 0 4.6 1 6.8 1h23" class="b"/><path d="M10.4 78.9h45.1a31 31 0 0 1 7.7-.8c2.5 0 5.1.6 7.7.8h13.6c1.7 0 3.5-.7 5.1-1.1q4.4-1.4 8.5-3.3c7-3.2 12.6-6 20.5-4 7.4 1.6 14.5 5 22.1 5q4.3-.2 8.6-.7 4.7-.5 9.3 1c2.4.7 4.5 2.3 6.8 3.1h16.2" class="b"/><path d="M10.4 74.3h40.9c9 0 18.2.2 27.2-.3 6-.8 12-1 18-2.3 5.6-1.1 11.2-3.2 17-3.6 11.3-1 22.8.6 34-1.4 10.8-2.2 16 2 24.8 6.8l1.7.8h2.5l5.1-.1" class="b"/><path d="M10.4 69.7h55.3Q68 69 70 68.2q6.7-2.1 13.6-2.4c6 0 12 1.6 18 1.6 13 0 25.4-4.4 38.3-6 9.5-.8 14.7-5 24.7-.6 6.1 2.6 9.8 6.2 17 5.5" class="b"/><path d="M10.4 65h56.2q1.7-.9 3.4-1.9c15.3-8 17.3-3 31.5 1.9q6.5 0 12.8 0 4.8-1.2 9.4-3.2 6.3-2.6 12.8-4.4c2.7-.8 5.7-1 8.5-1.7 4.7-1.4 9.5-3.4 14.5-3.2 5.2.1 9.8 2.6 14.5 4.7q3.7 1.5 7.6 1.7" class="b"/><path d="M10.4 60.4H58c15.3 0 6.8 1 19.6-5 6-3 10.9-.7 16.2 2.4l4.2 2.4q1.7.3 3.5.2h17c1.2.2 2.4-.7 3.4-1.2l4.3-2q5.3-2.8 11-4.4c2.5-.7 5.2-.8 7.7-1.6 4.5-1.5 8.9-3.7 13.6-4.2q5.8-.6 11.1 1.6c4 1.5 7.8 3.4 12 4.4" class="b"/><path d="M10.4 55.8h62.2q4-2.4 8.5-4.2c5.3-1.7 10.7 1.2 15.3 3.6q1.2.8 2.6.6h19.6q1.8-.5 3.4-1.6l5.1-2.6q4.5-2.3 9.4-3.6 3.8-.9 7.6-1.7c4.3-1.2 8.4-3.1 12.8-4 9.4-2.1 16.5 2.6 24.7 6" class="b"/><path d="M10.4 51.1h68.2c.8 0 1.7-.6 2.5-1q2-.8 4.3-1 4.3-.3 8.5 1l3.4 1h2.5q7.7.2 15.4 0c3.4-1.7 6.8-3.8 10.2-5.4a62 62 0 0 1 17.9-5.5c3.7-.8 7.3-2.2 11-2.9 10.5-2.3 18.7 2 27.3 7.3" class="b"/><path d="M10.4 46.5h66.4c3.7 0 7.5.3 11.1-.5 10.3-1.2 18.4 3.3 28.1-2.7 5.3-2.9 10.5-6.2 16.2-8.2q5.5-1.8 11.1-2.8 5.1-1.4 10.2-2.1C164 29 173.8 34 181.6 40.5" class="b"/><path d="M10.4 41.9h77.5c4.8 0 9.7.1 14.5-.6 4.7-.4 9.4-1.1 13.6-3.4 5.8-3 11.2-6.7 17-9.3a64 64 0 0 1 20.5-5.5 31 31 0 0 1 15.3 4.3q3.1 1.4 6 3.4 3.6 2.7 6.8 5.9" class="b"/><path d="M10.4 37.3h91.2q3-.7 5.9-1c9.2-.8 16.4-5.4 23.9-10.4a46 46 0 0 1 20.4-8.6c4.5-.3 9 1.3 12.8 3.6q5.3 3 10.2 6.5 3.6 2.8 6.8 6.3" class="b"/><path d="M10.4 32.3c1 .6 2.3.3 3.4.3h88.6l4.2-.3 6-.1c12 0 19-9.6 28.1-15.6 9-5.2 15.3-5.7 23.9.7q4.5 3.6 9.4 6.9 4 3.1 7.6 6.8" class="b"/><path d="M10.4 25.5c1 .8 2 2.3 3.4 2.5h109l2.6-1.3c7-4.2 11.4-11.9 18.8-15.6 10-6 16.3-.7 23.8 6.2q3.2 2.9 6.8 5.3l6.8 5.4" class="b"/></svg>