<svg xmlns="http://www.w3.org/2000/svg" id="a" width="1920" height="2400" viewBox="0 0 192 240"><defs><style>.b{fill:none;stroke:#fff;stroke-miterlimit:10;stroke-width:.4px}</style></defs><path d="M0 0h192v240H0z" style="stroke-width:0"/><path d="M8 229.5h18.4A97 97 0 0 1 44 218.6c3.8-2 6.9-4.2 11.4-4 5.6.2 11 2 16.6 2.1q4.5.2 8.8-.2c6.8.4 12 5.8 17.5 9.2 5.2 3.4 10 5.1 15.7 1.5 9.7-5.7 14.3-5.7 23.6.6 1.1.6 2.3 1.6 3.5 1.7h43" class="b"/><path d="M8 224.8h17.6c5.7-4.8 11.2-10 17.5-13.9 3.2-2 6.5-4.6 10.5-4.7 6.4 0 12.2 3.4 18.3 4.7q4.4.8 8.8.8c4.9.3 9 3.2 13.1 5.7 5.4 3.4 12 8 18.4 5 6.8-3.3 12.4-6.8 20.1-3.8 3.3 1.1 6.3 3 9.6 4.1a46 46 0 0 0 15.8 1.6c6-.5 11.5-3 17.5-3.6 3-.2 6 .9 8.7 2" class="b"/><path d="M8 220h18.4c5-4 9.3-8.8 14-13.1 3-2.6 6-5.5 9.7-7.1 5.2-2.2 10.8-.1 15.7 2q5.1 2.5 10.5 4c3.2.9 6.6 1 9.6 2.3 8.5 3 16.8 10.3 26.3 7.5a34 34 0 0 1 20.1-1.8c2.9.7 5.8 1.7 8.8 2.1 5.2.6 10.6 0 15.7-.9 5.9-1.1 11.6-3.3 17.5-4.2 3.5-.6 6.8 1.2 9.6 3" class="b"/><path d="M8 215.3h20.2c1.3-.5 2.4-1.9 3.5-2.8L36 208c4.6-4.8 8.6-10.8 14.8-13.5 8.6-4 17 2 24.5 5.6 3.4 1.6 7.1 2.2 10.5 3.5 5.2 1.9 10.4 4.1 15.8 5.4q3.8 1 7.9 1 4.3-.4 8.7-.5c6.1 0 12.2 1.3 18.4 1.5 6 .3 11.7-1.7 17.5-3q7.8-2.2 15.7-3.8c6.3-1.3 8.6-1.5 14 2.7" class="b"/><path d="M8 210.5h23.7c5.6-4.8 9.5-11.3 14.9-16.3 3.7-3 8.3-5.3 13-5.2 7.7.1 13.5 6 20.2 8.8q11.1 4.5 22.8 6.8 5.2 1 10.5 1.2 3.5.7 7 1.6c18.1 5.2 23-3.2 39.3-6q6-1 12.3-1.3c5.3-.9 7.5-.6 12.2 2.5" class="b"/><path d="M8 205.8h16.7q4.9 0 9.6-.2c4.5-4.1 7.8-9.4 12.3-13.6 4.9-3.7 11.1-7.3 17.5-5.7 6.8 1.7 11.8 7.4 18.3 9.9a88 88 0 0 0 19.3 5.7c4.6 1 9.5 1.2 14 2.8l2.6 1q3 .1 6.1 0h13.1c2.4-.4 4.8-2.2 7-3.2 3.6-1.7 7.5-3.2 11.4-3.7 5-.7 10 .2 14.9.4q2.6 0 5.2-.3 4.2 0 7.9 1.8" class="b"/><path d="M8 201h26.3c1-.3 2-1.4 2.6-2l4.4-5c2.7-3.2 5.7-6.2 9.6-8a16 16 0 0 1 18.4.4c3.3 2 6.3 4.6 9.6 6.5a89 89 0 0 0 23.6 8.1H134c10.7.1 5 .3 14-3.1q5.2-1.8 10.5-1c4.5.4 8.7 2 13.2 2.5q2.6.1 5.2 0 3.5-.1 7 .7" class="b"/><path d="M8 196.3h26.3l1.8-1c7.6-6.7 8.6-10.2 19.2-13.4 8.5-2.6 15.2 2.9 21.9 7.2a90 90 0 0 0 16.6 7.2h49.9c1.4-.3 2.9-1.1 4.3-1.5q3-.8 6.2-.8 3.5.2 7 1.2c1.4.3 2.9 1 4.3 1H184" class="b"/><path d="M8 190.9q3.2-.2 6.2.6h17.5c1.4 0 3 .3 4.4-.3 2.7-1.7 5.2-4 7.8-5.8 3.1-2.3 7-3.1 10.5-4.5 10-3.5 16.2 1 24.5 5.7a94 94 0 0 0 11.4 4.9h56c2.6.1 5.2-.9 7.9-.7 2.3 0 4.7.7 7 .7h22.7" class="b"/><path d="M8 185.8q2.3-.2 4.4.3c1.2.2 2.4.7 3.5.7h22c2.7-1 5-3 7.8-4.1 1.3-.6 3-.8 4.3-1.2q2.7-.7 5.3-1.6a23 23 0 0 1 19.3 1c4.2 2.1 8.4 4.6 13 5.9H184" class="b"/><path d="M8 181c1.8 0 3.6.6 5.3 1h29.8q1.6-.7 3.5-1 2.2-.3 4.3-.7 4-1.1 7.9-2.5a22 22 0 0 1 15.8.5c10.1 4.5 5 3.7 16.6 3.7h62.1q3-.5 6.1-.6 3.5 0 7 .6H184" class="b"/><path d="M8 176.2c1.2.3 2.4 1 3.6 1h43.7c3.4-1 7-2.2 10.5-2.3q3.6-.1 7 1c1.5.3 3 1.2 4.4 1.4h71.7q1.8.2 3.5-.3a35 35 0 0 1 20.1-.1q2.2.5 4.4.4h7M8 170.9q1.5.7 2.7 1.6h138.2c4.2-1.5 8.7-2.7 13.2-2.5 4.7 0 9.4 1.4 14 2.5h7.8M8 165l3.6 2.7q62.1.1 124.2 0h8.8c3.1-.8 6.3-2 9.6-2.4q4.8-.7 9.6 0c3.3.5 6.4 1.7 9.6 2.5H184M8 159.5q2.3 1.7 4.4 3.5h127.8c3.7-1 7.5-2.3 11.4-2.8a38 38 0 0 1 19.2 2.7c4.3.3 8.8 0 13.1.1M8 154.8q2.3 1.6 4.4 3.4c12 .3 24 0 36 0h89.2c.4.2 1.3-.1 1.7-.4q1.2-.7 2.6-1 4-1 7.9-1.5c7-1.1 14.4 0 21 2.8 1.6.4 3.5 0 5.2.2h8M8 151l3.6 2.5h124.2c.8.1 1.9-.4 2.6-.7l2.7-.8 8.7-1.3c6-.9 12.5-1 18.4 1 1.7.4 3.5 1.4 5.2 1.8H184M8 148.3l1 .5h126.8c2-.3 4-1 6.1-1.1q4.9-.4 9.6-1.4a34 34 0 0 1 20.2 1c1 .4 2.3 1.3 3.5 1.5h8.7M8 144h122.6q4.4 0 8.7-.3 4 0 7.9-.5c5-.7 9.9-2 14.9-1.9q6 0 11.3 2.7H184M8 139.3h104.2q4.3-.6 8.7-1.4a46 46 0 0 1 11.4-.4c4 .3 8.2 1.2 12.3 1.2 5.8 0 11.6-.8 17.5-.2 2 0 4 .8 6 .8H184M8 134.5h94.6q2.5-1.5 5.2-2.6c2.5-1 5.3-1.2 7.9-1.9 4.5-1 9.3-1.8 14-1 3.8.6 7.6 2 11.3 3 5.8.8 11.8 1.3 17.5 2.4 2.9.3 6 0 8.8.1h16.6" class="b"/><path d="M8 129.8h90.2c1.4-.2 3.2.3 4.4-.7q3.3-2.3 7-3.8 2.5-.8 5.2-1.6c5.6-2.2 11.5-4 17.5-2.5 3 .6 5.9 1.8 8.8 2.6l6 1.5q4.6 1.2 8.8 2.8c1.7.5 3.5 1.4 5.3 1.7h22.7" class="b"/><path d="M8 125h92.8q1.5.1 2.6-.5l3.5-2c2.2-1.2 4.8-1.8 7-2.9 6.9-3.5 12.9-8 21-6q3.1.6 6.2 1.6 3.5 1 7 2.2c5.9 2.3 11.5 5.6 17.5 7.6h18.3" class="b"/><path d="M8 120.3h89.3c2.3-.1 4.7.2 7-.2q2.6-1.1 5.3-2.1 2.7-.8 5.2-2.3c5.8-3.6 11.2-9 18.4-9.2q4 0 7.9 1.2a68 68 0 0 1 11.3 4 345 345 0 0 0 21 8.4c3.5.3 7 0 10.5.1" class="b"/><path d="M8 115.5h90.2l7-1.4q4-1 7.9-2.4 3.2-1.6 6-3.6c4.8-3.2 10-6.4 15.8-6.5 6 0 11.8 1.5 17.5 2.8A126 126 0 0 1 170 110q3.6 1.6 7 3.3 3.4 1.3 7 1.8" class="b"/><path d="M8 108.5c5.4-1.2 10-1 15 1.2q1.1.6 2.6 1h54.2l1.8-.8c6.2-3 13.4-2.2 20-2.7q6-.3 11.4-1.9c3.3-1 6.5-2.6 9.7-4a46 46 0 0 1 21-3.4c5.8-.1 11.8-.4 17.5 1.2q6 1.8 11.3 5 5.2 3.6 11.4 4" class="b"/><path d="M8 101.7c5.7-1.2 10-.7 15 2l3.4 2.2q4 .1 8 .1h42c7.6-5.6 14.2-6.4 23.5-6.5q4.5 0 8.8-.4 4.3-.6 8.7-1.4c7.6-1.1 15.2-1.7 22.8-2.9 4.7-.6 9.2-2.5 14-2.8 6.6-.6 12.4 3.2 17.5 7 3.7 2.8 7.4 4.7 12.2 4.8" class="b"/><path d="M8 97c5.3-1 9.4-.6 14 2 1.8.8 3.3 2.5 5.3 2.3h48.1c2.4-1.2 4.7-2.8 7-4q5.1-2.5 10.5-3.6c4.6-1 9.4-1 14-1.2q3.1-.1 6.2-.4 3 0 6 .4a43 43 0 0 0 30.7-4.3c9.2-3.8 15.5 2.3 21.9 8 3.5 3.3 7.2 5.5 12.2 5" class="b"/><path d="M8 94.2a20 20 0 0 1 11.4.5c1.8.6 3.4 2 5.3 1.8h50.7c1.2 0 2.5-.9 3.5-1.3l4.4-2.3a49 49 0 0 1 24.5-5.5c2.6 0 5.3-.4 7.9.3 8 2 14.3 4.8 22.7 1.8 4.6-1.4 8.6-4.3 13.1-5.9 10-3.1 16 7.8 22.8 12.9h9.6" class="b"/><path d="M8 91.8c2.7-.1 5.3-1.1 8-.8q1.7.2 3.4.7h53.4c1.2.2 2.4-.4 3.5-.8q3.6-1.4 7-3 5.8-2.7 12.3-3.4c4-.4 8.1-.1 12.2 0 2.6.2 5.3 0 7.9.6 8.4 2 14.2 4 22.7.6 4.2-1.5 8-4 12.3-5.3 9-3 15.3 5.9 21 11.4h12.2" class="b"/><path d="M8 87h61.3q3.5-1.1 7-2.5c7.2-3 13.8-6.3 21.9-5.1 3.5.4 7 1.5 10.5 2.2q3.5.4 7 1a32 32 0 0 0 17.5 1.6c16.5-4.9 20.5-13 35 2.6 2 .5 4.1.1 6.1.2h9.6" class="b"/><path d="M8 82.3h57.8c5.1-2 10-4.5 14.9-6.7a32 32 0 0 1 10.5-3.3c6-.6 11.3 2.5 16.6 4.8 2.2 1 4.7 1.3 7 2.2 3.4 1.1 6.9 2.6 10.5 3 8.2.5 11-2 18.4-4.2 9-3.3 13.7-2 21 4.2h19.2" class="b"/><path d="M8 77.5h53.4q2.7-.7 5.3-1.9c5-2.3 9.8-5.4 14.9-7.6 6.8-3.6 12.3-5 19.2-.7q4 2.4 7.9 5c1.6 1 3.5 1.5 5.2 2.3l4.4 2.2q1.2.7 2.6.7h18.4q2.6-.6 5.2-1.3c3.7-1 7.7-1.6 11.4-.4 1.5.3 3 1.2 4.4 1.7h23.6" class="b"/><path d="M8 72.8h15q3-1 6-1 4 0 8 .9h12.2l4.3-.6c3.6-.4 7.2-.8 10.5-2 6.6-2.1 12.2-6.3 18.4-9.3 3-1.6 6.2-3.3 9.6-3.4 6-.2 10.6 4.4 15 7.8 2.8 2.5 6.5 3.8 9.5 6 .8.5 1.8 1.3 2.7 1.6h64.7" class="b"/><path d="M8 68h12.3q2.6-1 5.3-2 3.8-1.2 7.8-1c4.1 0 8.2 1.1 12.3.8 2-.2 4-1 6.1-1.1q4.4-.1 8.8-.2c5.6-.3 10.9-2.7 15.7-5.4q4-2.1 7.9-4.4c7-4.3 12.1-3.8 18.4 1.4q3.3 3 7 5.9 1.7 1 3.5 2l5.2 3.8c2.2.5 4.7 0 7 .2h58.6" class="b"/><path d="M8 63.3h13.2q5-2.6 10.5-3.3c4.6-.6 9.4.3 14-.3 2-.3 4-1.2 6.1-1.3 3.5-.2 7 .4 10.5.3 8.7-.1 16.2-5 23.6-9 8.7-4.7 14.5.2 21 5.6q2.8 2.3 6.1 4t6.2 4h64.7" class="b"/><path d="M8 58.5h16.7q4.8-1.2 9.6-1.6c3.5-.2 7-.1 10.5-.9 3-.6 5.7-2.2 8.8-2.5 3.4-.4 7-.4 10.5-.9 6.8-.7 13.1-3.8 19.2-6.8 7.7-4 13.3-2.5 20.1 2.3q3 2 6.2 4c1.3.6 3 1 4.3 1.7q4.4 2.3 8.8 4.6 7.9.1 15.7.1H184" class="b"/><path d="M8 53.8h36.8c1.6-.2 3-1.2 4.4-2q3-1.5 6.1-2.5c7.3-2.1 15-3.2 21.9-6.3 9-4.6 14.4-5.2 23.6-.3q3.9 2.3 7.9 3.9c2.2.8 4.7.8 7 1.6q4.4 1.6 8.7 3.6c1.7.7 3.5 1.7 5.3 2h54.2" class="b"/><path d="M8 49h37.7q2.7.2 5.2-.2a82 82 0 0 1 22.8-9.5q4-1.3 7.9-3.1c5.9-2.2 12 .2 17.5 2.7 3.3 1.4 6.8 3 10.5 3.4 2.3 0 4.7-.2 7 .3 5.5 1 10.6 4 15.7 6.3 2.3.3 4.7 0 7 .1H184" class="b"/><path d="M8 44.3h45.6c1.2-.3 2.4-1.4 3.5-2a51 51 0 0 1 15.7-6.5q4.5-1.2 8.8-3.3c6.3-1.9 12.5 2 18.3 4 11.1 4.4 12-1.1 21.9 2.4 3.7 1.2 7 3.7 10.5 5.4h51.6" class="b"/><path d="M8 39.5h46.4c1.3.2 2.5-.6 3.5-1.2q2.6-1.4 5.3-2.4c4.2-1.5 8.8-2 13.1-3.4 2.1-.6 4-2 6.1-2.5 7.6-1.7 14.5 3.5 21.9 4.5q4.5.6 8.8-.5c4.6-.7 9.2 1.1 13 3.5 1.2.6 2.4 1.6 3.6 2h54.2" class="b"/><path d="M8 34.8h50.8q3-1 6.1-1.7c3.5-.8 7.1-1.3 10.5-2.4 2.2-.5 4.2-1.7 6.1-2.6 8.7-3.4 17.5 2.1 26.3 2.3q2.6 0 5.3-.2 4.6.1 8.7 2.2 2.3 1 4.4 2.4h56l1.7-1.4" class="b"/><path d="M8 30h42c6.2-.1 12.4.2 18.4-.1a68 68 0 0 0 8-2.7q3-1.4 6-2.8c8-3.1 16.5-.9 24.5.8 3 .6 6 .6 8.8 1.6q2.8.8 5.2 2.2 1.3.8 2.7 1H176l2.6-.1 5.2-3.9" class="b"/><path d="M8 25.3h43l20-.1q5.6-3.1 11.4-5.6 11.3-5 22.8-.7 4.4 1.4 8.7 3.3c2.1.8 4 2.2 6.2 3h54.2c1.2.1 2.4-.7 3.5-1.2q3.1-1.6 6.1-3.6" class="b"/><path d="M8 20.5h62.2c1.2-.5 2.4-1.6 3.5-2.3q3.2-2.5 7-3.8 3.5-1.4 7-2.6a21 21 0 0 1 14-.2c5.6 2.1 10.7 5.6 15.7 8.9h56a86 86 0 0 0 10.5-4.3" class="b"/></svg>