<svg xmlns="http://www.w3.org/2000/svg" id="a" width="1920" height="2400" viewBox="0 0 192 240"><defs><style>.b{fill:none;stroke:#fff;stroke-miterlimit:10;stroke-width:.4px}</style></defs><path d="M0 0h192v240H0z" style="stroke-width:0"/><path d="M8.7 224q3.4-1 7-.8c4 .8 8 2 12.1 2.2 5 .3 10-.9 14.8-2 3.7-1 7.6-1 11.3-1.8 10.5-2.3 15 1.4 22.6 8H145c4.6 0 3.6.3 7-2.8 5.2-4.7 11.1-7.3 18.2-5.3 4.2 1.3 8.5 2.6 13 2.4" class="b"/><path d="M8.7 218.4q3.8-1.4 7.8-1c4.3 1 8.6 2.5 13 3 5 .7 10 0 14.8-.7q3-.3 6-.5l5.3-.8c5.4-1 11 .2 15.6 3.2q1.9 1 3.5 2.3 1.2 1 2.6.9H146c7-5.4 12.3-9.5 21.7-7.1 5 1.4 10.2 3 15.6 3" class="b"/><path d="M8.7 212.3q3.8-1.4 7.8-.9c5.1 1.1 9.8 3.6 14.8 5.1q7.2 2.2 14.7 2c10.6-.2 16.2-2.3 27 1.6h64.3c1.7-.2 3.8.5 5.2-.8 9.8-7.7 16-8 27.8-4.6 4.2 1 8.7 1.3 13 2" class="b"/><path d="M8.7 207.3c7.4-2 13.7 1.7 20 5q3 1.7 6 3h96.5q3 .2 6-1c2.9-.8 5.3-2.5 7.9-4 4.2-2.2 9.2-2.6 13.9-1.9 4 .6 8 2 12.1 2.4q2.6.2 5.3 0 3.5.3 6.9 1.1" class="b"/><path d="M8.7 203.8q9.3.4 17.4 5.3l2.6 1.5q3 .2 6 0h33q11 .2 21.8-.2 8.7.4 17.3.3 2.7 0 5.3-.7t5.2-.8c4.9-.6 9.8-.1 14.7-.2q4.6 0 8.7-1.5c2.5-1.1 5-2.5 7.9-2.8 5.2-.7 10.4.7 15.6 1.4q4.3.7 8.7.2 5.2-1.2 10.4.3" class="b"/><path d="M8.7 201.4q3.4 1.2 7 2.4l6 2.1H79l2.7-.1q2.4-1.7 5.2-2.5c6.3-1.7 12.7.7 19 .8 2.7.2 5.3-.6 7.9-1q3.8-.7 7.8-.3c5.5.4 11 2.2 16.5 1.9 2.4-.1 4.7-1.3 7-2q3.3-.7 7-.4c5.4.3 11 1.5 16.4.8 6.1-.8 8-3.1 14.8-1.5" class="b"/><path d="m8.7 198.3 5.2 3h64.3q1.4 0 2.6-.3 4.4-4.2 10.4-4.7c5.3-.3 10.4 1.6 15.7 1.9 2.3.2 4.6-.6 7-.9a24 24 0 0 1 7.7.5q4 1 7.9 2.4c1.6.5 3.4 1.2 5.2 1h8.7c1.7-.1 3.5-.6 5.2-.6q5.6.1 11.3.6 5.7.2 11.2-1.2 2.7-1 5.3-1.7a21 21 0 0 1 6.9-.3" class="b"/><path d="M8.7 193.7c1.4.9 2.7 2.4 4.3 2.8H73c2.6-.1 5.4.3 7.9-.2 2.6-2.5 6-4.5 9.5-5.1 5.3-1 10.5.8 15.7 1.5 3.7.7 7.6-.3 11.3.4q4 .7 7.8 2c1.4.5 2.9 1.3 4.3 1.4H172c1.5.1 3-.7 4.3-1q3.5-.7 7-.5" class="b"/><path d="M8.7 187.3c7 5.7 4.1 4.3 13 4.5h55.6c1.4-.1 3 .2 4.4-.3l1.7-1.4q3.5-2.6 7.8-3.8c5.2-1.4 10.6 0 15.7 1.1q3.8.8 7.8 1.4 5.3 1.3 10.4 3h50.4c2.6 0 5.2-.5 7.8-.4" class="b"/><path d="M8.7 179.5q3.8 3 7.8 5.8c1 .6 2.2 1.6 3.5 1.8h19q21.8 0 43.5-.1c13.3-10.6 20.5-7.2 34.8-1.5 1.7.5 3.4 1.4 5.2 1.6H171c4 0 8.2-.3 12.2 0" class="b"/><path d="M8.7 171.2c5.8 3.3 11 7.4 16.5 11.2l58.2-.1c6.9-5.5 14.4-11 23.5-7 3.6 1.4 6.9 3.8 10.4 5.5q1.6.8 3.5 1.5H165c2.9.2 5.8-.8 8.6-1q4.9-.5 9.6.6" class="b"/><path d="M8.7 164c4.9 1.6 9 4.9 13 7.9l4.4 3.4c1 .8 2.2 2 3.4 2.3h34.8q9.6.2 19 0c7.1-5.6 15-13.2 24.4-8.2 3.7 1.9 6.8 4.8 10.4 6.7l2.6 1.4c1.7.3 3.6 0 5.3.1h10.4c8 0 16.4.2 24.3 0 8.4-2.3 13.8-4.3 22.6-1.5" class="b"/><path d="M8.7 159.6c6.6 1.1 11.9 6 17.4 9.5l4.3 2.7q1.4 1.2 3.5 1.1H79q1.8.1 3.5-.2c3.8-2.6 7.3-5.8 11.3-8 8.3-4.4 14.2-.9 20.9 4.4 1.9 1.3 3.9 3 6 3.8h36.5q1.4 0 2.6-.3c8.9-3.6 13.9-6 23.5-2.6" class="b"/><path d="M8.7 156.2c4.7-.3 8.9 2.2 13 4a193 193 0 0 0 20 8h39.9c1.3-.1 2.5-1.2 3.5-1.7q2.2-1.6 4.4-2.7c5.2-3.3 11.4-5.3 17.3-2.6 3.9 1.6 7 4.5 10.5 6.8 1.6.4 3.5.1 5.2.2H159c9.4-6 13.3-8.4 24.3-4.2" class="b"/><path d="M8.7 153c3.8-.9 7.6.1 11.3.9q5.6.9 11.3 2.2a68 68 0 0 1 15.6 6.2c1 .5 2.3 1.3 3.5 1.2h33c2.4-.6 4.6-2 7-3 9-4 15.5-2.7 23.4 3H158c4.4-3.4 9-7.7 14.8-7.8 3.6.3 7 1.7 10.4 2.9" class="b"/><path d="M8.7 149.7c3.3-1.2 7-1.2 10.4-1.3q4.4-.4 8.7-.4c7.2.2 13.4 4.3 19.1 8.2q2.1 1.4 4.3 2.6h36.5c1.5 0 3-.8 4.4-1q3.8-1 7.8-1.1 4.6 0 8.7 1.9c1.7.3 3.5 0 5.2.2h42.6c4.7-3.4 9.3-8.5 15.6-8.4 4 .4 7.6 2.3 11.3 3.5" class="b"/><path d="M8.7 145.9c3.3-1.4 7-2 10.4-2.9 5.1-1.5 10.6-2.6 15.7-.2 5.9 2.6 10.1 7.9 15.6 11.2h102.5c1 0 1.9-.9 2.6-1.4l5.2-3.6c10-6.2 12.9-2 22.6.8" class="b"/><path d="M8.7 141.3q4.7-2 9.6-3.4 3.7-1.7 7.8-2.4c9.3-1.2 15.3 7.4 21.7 12.7q.8.8 1.7 1.1H140q3.8.2 7.8-.1l5.2-2.5c6-3.4 13-7 20-4.4 3.3 1.3 6.8 2.7 10.4 3.3" class="b"/><path d="M8.7 136.9Q13.9 135 19 133c5.6-2.5 11-3.6 16.5 0q4.7 3 8.7 7.3l3.5 3.2c.4.4 1.2 1 1.7 1H132c3-.8 5.7-2.2 8.7-2.6 2-.3 4.2-.2 6.1-.7 5.5-1.3 10.8-3.5 16.5-3.5q5 0 9.6 1.7 4.9 2.3 10.4 2.4" class="b"/><path d="M8.7 133.3q4.4-1 8.7-2.5c2.6-1 5.1-2.4 7.8-3.1 10.7-3.4 17 6.6 24.3 12.2h74.7c6.6-2.1 12.8-6.4 20-5.9 7-.2 14-.6 20.9 1.3q5.3 1.4 10.4 3.4 3.9.9 7.8 0" class="b"/><path d="M8.7 129q4-.4 7.8-1.5 4-1.6 7.8-3.4c11.5-5.4 18.5 4 26 11 4.4.3 8.8 0 13.1 0H87c2 .2 4-.5 6-.8q4-.6 7.9-.5c10.7.5 12.4 3 23.4-1.5 9.6-3.8 13.9-5.8 24.4-4.2q8.9 1.3 17.3 4.2l8.7 2.9c3 0 6 .3 8.7-1" class="b"/><path d="M8.7 123.6q4.4-.5 8.7-1.6c2.7-1 5.2-2.5 7.8-3.6 3.8-1.8 8.3-2.5 12.2-.7 5.9 2.8 10.2 8 14.7 12.6 2.6.3 5.3 0 7.8.2h23.5q4.3-1.7 8.7-2.8 5.2-1.3 10.4-.9 4.4.4 8.7.7c5.4 0 10.5-2.3 15.6-3.7a39 39 0 0 1 20.9-.6q9.6 1.9 19.1 4.3c6.8 1.5 9.7 3.8 16.5.3" class="b"/><path d="M8.7 116.8c3.2-.8 6.5-1.1 9.6-2.2q3.8-1.7 7.8-3.5c3.8-1.7 8.4-2 12.1 0 6.4 3.4 10.9 9.4 15.7 14.7h27.8c5.2-2.7 10.5-5.9 16.5-6.5 4.9-.6 9.9.6 14.8-.1 3.7-.6 7.5-1.7 11.2-2.4q5.6-1 11.3-.4c4.7.5 9.3 1.9 14 2.5q8.2 1 16.4 1.3 4.8.4 9.6 1.3c2.7.2 5.4-.7 7.8-1.7" class="b"/><path d="M8.7 109.3q4.7-1.5 9.6-2.7c3.1-1.2 6.2-2.9 9.5-3.6 6.4-1.8 12.2 2.1 16.5 6.5 3.8 3.5 7 7.7 10.4 11.5H80c.5-.1 1.4-.5 1.8-.8 4.7-3 9.3-6.5 14.7-8.1 4.8-1.6 9.9-1.2 14.8-1.5 5.5-.5 11-2 16.5-1.8 5.7 0 11 2 16.5 3.3q5.2 1 10.5.7c4.9-.2 9.8-1.2 14.7-1.1q3 0 6.1.6a20 20 0 0 0 7.8-1.2" class="b"/><path d="M8.7 103.5q4.6-2 9.6-3.1c2.8-.9 5.7-2 8.6-2.3 9.2-1.3 15.8 6.4 21.8 12.1L52 114c.7.7 1.7 2 2.6 2.4h22.6c1.5 0 3.1.2 4.4-.7 5.2-3.3 10-7.7 15.6-10.4 4.6-2.3 9.7-2.9 14.8-3q5.2-.6 10.4-.7 7-.1 13.9 1.3c4.8 1 9.7 2.2 14.8 2 5.8-.3 11.5-1.4 17.3-1.5q3.5 0 7 .7c2.6.2 5.3-.4 7.8-1" class="b"/><path d="M8.7 99.6q4.6-2 9.6-2.8a42 42 0 0 1 7.8-1c5.8-.1 11.1 2.7 15.6 6.2l7.8 6.3 3.5 3q1.2.5 2.6.3h15.7q5.2.1 10.4 0c7.6-4.3 13.5-11.5 21.7-14.8 6.3-2.6 13.3-1 20-1q7.8.3 15.6.2 5.3.2 10.4 0 9.1-.3 18.3.2 3.9.4 7.8 1 4-.2 7.8-1.4" class="b"/><path d="M8.7 97.2a38 38 0 0 1 17.4-2c4.9.5 9.6 2.3 13.9 4.6l7.8 4.7q2 1.3 4.3 2.4h29.6c1.8-.3 3.6-1.6 5.2-2.6q3.5-2.5 7-5.3c5.3-4.3 11.6-9.7 19-8.3 4.3.6 8.7 1.6 13 1.4 5.1-.1 10-1.8 14.8-3q5.2-1.2 10.5-1.3c7.1-.2 13.9 2.4 20.8 3.8 3.8 1 7.7-.2 11.3-1.6" class="b"/><path d="M8.7 95c13.1-3.1 28.6 2.2 40.8 7.2h20l8.7-.1q3.6.2 7-1.2c8.4-3.2 17.6-15 26.9-13 4.5 1 9.1 2.7 13.9 2 6-.7 11-4.7 16.5-7.2 4.6-2 10-2.4 14.7-1q5 1.7 9.6 4a20 20 0 0 0 8.7 2.3c2.7-.2 5.3-1.4 7.8-2.5" class="b"/><path d="M8.7 92c7.3-.7 14.6.8 21.7 2.2 5.8 1 11.7 1.7 17.4 3.2q4.8.2 9.5 0c3.5-.6 7-1.5 10.5-1.8 4.6-.6 9.3.4 13.9.7q5-.2 9.5-2.6c5.5-2.5 10.5-6.5 16.5-7.5 2.7-.4 5.4.5 7.9 1.3 4.4 1.6 9.5 2.1 13.9-.1 6-2.8 10.3-8.4 16.5-10.8 10.9-4.3 17.5 4.4 26.9 7 3.6 1 7.2-.9 10.4-2.3" class="b"/><path d="M8.7 86.9c8.5 0 16.8 2.3 25.2 3.5l10.4 1.3q2.6.4 5.2 1H53c3-.2 5.8-1.2 8.7-1.8q4.6-1.3 9.5-1.4c7.5 0 11.3 2.5 19.1 0 6.6-1.6 13-5.7 20-4.9 3 .5 5.8 1.8 8.7 2.3 12.2 2.7 18.6-10.8 28.7-14.7 10.5-4.3 16.9 3.8 26 6 3.3.7 6.6-.6 9.6-1.6" class="b"/><path d="M8.7 81.5 20 82.8l11.3 2c5.1.7 10.4 1.1 15.6 2 5.8 1.7 11.7-.2 17.4-1.4a50 50 0 0 1 15.6-.9c9.4.9 18.5-2.5 27.8-2 3.6.1 7 1.4 10.4 2.1 11.8 2.8 18.6-9 27-14.8 11.4-7.8 17.3-1.1 27.8 3.1 3.3 1.2 7 .5 10.4 0" class="b"/><path d="M8.7 76.6c4.6.8 9.3.8 13.9 1.3q13 1.5 26 4c5.5 1 11.1.5 16.6-.2q8.6-1.5 17.3-1.9 6.6-.6 13-.5 10.2.7 20 2.8c12.7 3.4 19-5.8 27-13.5 5.6-5.5 12-9.5 20-6 3.2 1.4 6.3 3.5 9.5 5 3.5 1.6 7.5 2 11.3 2.3" class="b"/><path d="M8.7 72.3c6 .7 12.2-.1 18.2.5 9.4.8 18.7 2.8 27.8 5q2.2.5 4.4.8h13c1.7 0 3.5-.6 5.2-.8q3.9-.8 7.8-1.3 7.5-1.1 14.8.9l4.3 1.2h20.9q2.2.2 4.3-.2 3.4-2.2 6.1-5c5.3-5.3 9.8-12 16.5-15.5 6.9-3.6 13.3.7 19.1 4.1 3.9 2 8.1 3.3 12.2 4.8" class="b"/><path d="M8.7 68.5c6.7-.3 13.3-1.8 20-1.4 5 .2 9.9 1.3 14.7 2.4 3.2.7 6.6 1.1 9.6 2.5 1.4.6 2.9 1.6 4.3 1.9H133c1.7-1 3-2.8 4.3-4.2l6.1-7.2c3.5-3.9 7.1-8.2 12.2-10 5.6-2 11 1.3 15.6 4q2.7 1.4 5.2 2.7 3.6 1.9 7 4.1" class="b"/><path d="M8.7 64.4c11-3 20.8-4.7 32.1-1.9l8.7 2q2.8 1 5.2 2.6l2.6 1.9c1.7.3 3.6 0 5.2.1h11.3q31.4.2 62.6 0c6-6.5 12.6-18 20.8-21.1 4.8-1.8 9.8.5 14 2.9q2.5 1.4 5.1 2.7 3.7 2.4 7 5.2" class="b"/><path d="M8.7 60.3c10.4-4.3 22-5.2 33-3 8.8 1.6 9.4 1.1 16.5 7.1h77.3c3.4.2 3.2 0 5.2-2.6l5.2-6.5c5.4-6.7 12.3-14.4 21.8-10.7q4.4 1.6 8.7 4 3.6 2.3 6.9 5.3" class="b"/><path d="M8.7 57.2a63 63 0 0 1 28.7-2.7q6 .3 12.1 1c3 .6 5.5 2.4 7.8 4.1 15 .3 30.2 0 45.2.1h24.3q6.6.2 13-.1c4-4.5 7.8-9.1 12.2-13 4.7-4.1 10.4-6 16.5-4.1q4 1.2 7.8 2.8 3.7 2.1 7 4.5" class="b"/><path d="M8.7 53.7Q14.3 52.3 20 52c7 .2 13.9 1.5 20.8 1 3.8-.2 7.7-1.1 11.3 0q2.3.5 4.4 1.7c2.5.4 5.2.1 7.8.2h75.6c7.5-7.7 16.1-16 27.8-13.8 5.4 1 10.8 2.4 15.6 5.2" class="b"/><path d="M8.7 49.2q4.8-.4 9.6-.5 3.9.4 7.8 1.4 2.5.3 5.2.2H40c4 0 8-2 12.1-1.5 2.4.1 4.7.9 7 1.5h78.2c1.4.2 2.5-1 3.4-1.9q2.5-2 5.2-3.7a33 33 0 0 1 23.5-4c4.7.6 9.4 1 13.9 2.5" class="b"/><path d="M8.7 43.5c3.4 0 7-.2 10.4.3 2.6.4 5.1 1.9 7.8 1.8h15.7l3.4-1.2q7.7-2.4 15.7-1 3.9 1 7.8 2.2h19.1c2-.3 4-.9 6-.9q2.7 0 5.3.4c1.3.4 3 .5 4.3.5h32.2c9.4-8 17.9-8 29.5-6.7 5.8.8 11.6.2 17.4 1" class="b"/><path d="M8.7 36.8c3.7-.2 7.6-.5 11.3.4 2.9.8 5.7 2 8.7 2.7q5.6 1.4 11.3-.4c3.1-1 6.3-2.4 9.5-3.1 8.1-2.2 14.6-1.3 22.6.5 10.7 2.7 15.3-3.5 25.2-3.3 5.3.2 10 2.8 14.8 4.9q2.5 1.2 5.2 2.4h12.1c1.4-.2 3.1.3 4.4-.4q3.8-2 7.8-4a28 28 0 0 1 11.3-1.6c5.5.1 11 1 16.5 1.2 4.6.2 9.3-.6 13.9.1" class="b"/><path d="M8.7 29.4c10.6-2.4 13.2 1.4 22.6 3 4.7.7 9.4-.6 13.9-2 6.2-1.7 12.6-3 19-2.8 5.9 0 11.8 1.4 17.5-.2 4.5-1.2 9-3 13.9-2.8 4.2 0 8.3 1.5 12.1 3.2l9.6 4.3c9.4 4.4 14.5 2 23.4-1.3q6.1-1.6 12.2-1c5.5.5 11 1.7 16.5 2.2 4.6.3 9.3-.4 14 .5" class="b"/><path d="M8.7 22.4c8.1-2.6 12.4-.1 20 2q6.4 1.5 13 .4 5.2-1 10.4-1.6 5.7-1 11.3-1.9c5.2-.7 10.5-.7 15.7-1.6 5-1 10.3-2.3 15.6-1.7 4.5.4 8.8 2 13 3.6q4.4 1.5 8.7 3.2c10.8 4.3 15 1.7 25.2-.8a39 39 0 0 1 13 .2c5.3 1 10.4 3 15.7 4 4.2 1 8.7.5 13 1.3" class="b"/><path d="M8.7 16.5c8.2-2.6 13.9.4 21.7 2 5.4 1.1 11 .7 16.5.5 5.3.3 10.5-.8 15.7-2q7.3-1.6 14.7-2.7c5.7-1 11.6-1.6 17.4-.6 4.4.6 8.7 2 13 3q6.6 1.6 13 3.3 7 1.3 14-.4c8.9-2.3 18.4-2.5 26.9 1.5 3.5 1.4 6.8 3.3 10.4 4.4q5.5 1.3 11.3 1.2" class="b"/><path d="M8.7 11.8c6-1.3 12.2-.1 18.2 1q7.8 1.3 15.7 1.5c3.7.1 7.5 1 11.3.8 7.3-.5 14.4-2.9 21.7-3.9 6.6-1.1 13.3-.7 20-.1q8.3.7 16.5 1.7c6 1 12 2.8 18.2 2.4 7-.4 13.9-2 20.9-1.5 4.3.2 8.4 1.9 12.1 4q3.4 2 7 4c1.6.6 3.5.2 5.2.3h7.8" class="b"/></svg>