<svg xmlns="http://www.w3.org/2000/svg" id="a" width="1920" height="2400" viewBox="0 0 192 240"><defs><style>.b{fill:none;stroke:#fff;stroke-miterlimit:10;stroke-width:.4px}</style></defs><path d="M0 0h192v240H0z" style="stroke-width:0"/><path d="m9.2 214 7 3.2q3.4 1.4 6.9 3c7.6 4 15.2 8 23.3 11l1.7.8h65.6c6.7-4.7 14.8-3.5 22.5-4.5q2.6-.3 5.1-1.3 1.8-.8 3.5-1.4c3.4-1 7.1-.1 10.3 1.3 4.1 1.8 7.9 4.5 12.1 5.9h7q4.2-1 8.6-.6" class="b"/><path d="M9.2 211.6q3.6 1.3 7 2.8 3.8 1.1 7.7 2.7 12.5 5 25 10c11.3.3 22.5 0 33.7.2q14.3 0 28.5-.2c7.6-6.4 15.4-3.5 24.2-3q4.6 0 8.6-1.9 4.3-1.3 8.6-.8c5.7.7 10.8 3.6 16.4 4.4 2.4.4 4.7-.2 7-.6q3.4-.3 6.9 0" class="b"/><path d="M9.2 209.6c3 .3 5.8 1.2 8.7 1.7a129 129 0 0 1 27.6 9.1c1.7.7 3.4 1.8 5.2 2.2h51.8c1.6-.1 3.5.2 5.1-.3 2-2 4.3-4 7-5 6.5-2.9 13.4 0 19.8 1.4q3 .7 6 .5c1.5 0 3-.6 4.4-.9q6-1.3 12-.8c4.1.3 8.1 1.4 12.2 1.9q3.4.3 6.9.1 3.4 0 6.9.6" class="b"/><path d="M9.2 206.5c5.8-.9 11.6-.2 17.3.7a69 69 0 0 1 20.7 7.6c2.7 1.5 5.6 2.8 8.6 3h48.4c3.2-3.2 6.7-6.5 11.2-7.7 6.4-1.9 13 .3 19 2.3q5.5 1.8 11.2 1.2c5.2-.6 10.4-1.4 15.6-1 7.2.8 14.3 2.8 21.6 3.5" class="b"/><path d="M9.2 201.7q5.8-2.4 12.1-2.4a36 36 0 0 1 16.4 2.8q5 2.2 9.5 5t9.5 3.6q5.2.8 10.4 1.4c2 .2 4 1.1 6 1h28.5c3.7-3 7.3-6.6 12.1-7.8 8.6-3 15.8-1.7 24.2 1 3.6 1.2 7.4 2 11.2 1.6 6.7-.6 13.4-.9 19.9 1.4 4.5 1.4 9 3.6 13.8 3.9" class="b"/><path d="M9.2 195.9q3.3-2 7-3.2 4.6-1 9.4-1.3c6.5-.6 12.8 1.8 18.2 5.1q3.4 2.3 6.9 4.2c5 2.5 10.9 3.1 16.4 4.4q5.3 1.2 10.3 3.3 3 .1 6 .1h10.4q3 .2 6-.2c3.2-2 6.2-4.5 9.6-6 1.3-.6 3-.9 4.3-1.3q3.4-1.1 7-2.1a29 29 0 0 1 17.2.4c2.6.7 5 2 7.7 2.5 5.8.9 11.7 0 17.3 1.4 4.6 1 8.8 3.3 13 5.3h6.9" class="b"/><path d="M9.2 190.5q3-1.7 6-3 2.7-.8 5.3-1.4 4.5-1.2 9.5-1.4c5.9 0 11.4 2.7 16.3 5.8 6.5 4.5 14.2 6.5 21.6 9q5.3 1.6 10.4 3.8c1.8.9 4 .4 6 .5h13c1.5-.4 3-1.5 4.3-2.2 2.8-1.7 5.5-3.6 8.6-4.5 4.2-.7 8.1-2.3 12.1-3.6 5.3-1.7 11.2-2 16.4 0 2.4.7 4.6 2.1 7 2.7 5.6 1.3 11.6.6 17.2 2.3 4.3 1 8.2 3.3 12.1 5.3h7.8" class="b"/><path d="M9.2 186q5-2.9 10.4-4.7 4.2-1.7 8.6-2.3c5.6-.8 11 1.5 15.6 4.4 3.9 2.5 7.8 5.2 12 7a205 205 0 0 0 26.8 8.4q2.2.4 4.3.3h6c3.8-.5 7.2-2.7 10.4-4.4q3-1.7 6-2.9 4.9-1 9.6-2.4c6.1-2 12.9-2.4 19 0 2.3.7 4.5 2 6.9 2.8 5.3 1.5 11 .7 16.4 1.6 5.2.8 10 3 14.7 5.3h6.9" class="b"/><path d="M9.2 182.9c5.6-3.3 11.2-6.8 17.3-8.7 5-1.7 10.5.1 14.7 3 2.9 2 5.7 4.4 8.6 6.2a54 54 0 0 0 27.6 8.2c8.7.7 14 2.4 22.5-1.7 3.7-1.7 7.2-4.1 11.2-5.1 12.9-3.3 18.2-2.6 30.2 3q5.4 2.2 11.2 2c5.5-.1 11.1 0 16.4 1.6 3.2.9 6.3 2.3 9.5 3h4.4" class="b"/><path d="M9.2 181c5-3.2 9.6-7 14.7-10 5.9-3.4 11.2-2.6 16.4 1.5 9.8 8 17.4 15.1 31 13.7q4.5-.6 8.7-1 3.9-.1 7.8 0c7.5.2 13.4-3.3 19.8-6.7 11.4-5.3 19.2-2 29.4 3.5q6 3.4 13 3.6c5.4.2 11 .1 16.4 1s10.8 2.6 16.4 2.7" class="b"/><path d="M9.2 179.7c4.8-3.5 9.2-7.6 13.8-11.3 6.5-5.3 11.9-5.3 18.2.2 7.9 7.2 16.8 15.8 28.5 13 3.4-.7 6.8-2.1 10.3-2.9 3.1-.6 6.4-.4 9.5-.7 7.5-.4 13.5-4.8 19.9-8.2 9.3-4.8 17.2.3 25 5.4q3.3 2.1 7 3.5 2.5.7 5.1 1 7.8 1 15.5 2 10.3 2.1 20.8 2.4" class="b"/><path d="M9.2 177.6q3.6-2.9 7-6.2c3-2.5 5.7-5.5 8.6-8 8.2-7.4 14-3.2 20.7 3.3 3.9 3.5 8.1 6.9 13 9 4 1.8 8.7 1.8 12.9.6 3.4-1 6.8-2.6 10.3-3.2 4.4-.6 8.8-.5 13-2 6.3-1.8 11.3-6.6 17.3-9 7.4-3 14.7 1.5 20.7 5.6 3.2 2 6.5 4.3 10.4 4.8a88 88 0 0 1 12.9 2.7q6 2 12 3.5 4 .9 7.9.7 3.4.1 6.9.5" class="b"/><path d="M9.2 173.3q3.2-2.5 6-5.3 3.2-2.7 6.1-5.6c4.7-4.9 10.8-11.7 18.1-7.8 2.9 1.4 5.4 3.7 7.8 5.7l7.8 6a24 24 0 0 0 22.4 4.4c3.4-.9 7-1 10.4-1.3q4.6-.4 8.6-2.1c6.9-2.8 12.3-9 19.9-10 5.1-.7 10.2 1.4 14.7 3.8 3.5 1.8 7.1 4.1 11.2 4.8 5.4.5 10.6 2.3 15.5 4.5 4.5 2 9 4.3 13.8 5q5.6.4 11.2.3" class="b"/><path d="M9.2 167.6q3.2-2 6-4.2 3.3-2.2 6.1-4.7c5-4.7 10.5-11.8 18.1-10.3a23 23 0 0 1 7.8 3.7c4 2.5 7.5 5.6 11.2 8.3 6.5 5 13.4 7.7 21.6 7 10.4-.1 14.4-.5 23.3-6.3 4-2.7 8.2-5.3 13-5.8 7.7-1.2 14.7 3 21.6 5.8 3.2 1.4 7 1.4 10.3 2.2 4.5 1 8.8 2.9 13 4.8l5.2 2.2q1.6.8 3.4.7h13" class="b"/><path d="M9.2 160.5q3-1.1 6-2.7 2.8-1.1 5.3-2.7c11.6-9 17.2-16.9 31.9-6.8 8.9 6 17.2 14.4 28.5 15.3 8.6 1.3 14.1.3 21.6-4.1 3-1.7 6-3.8 9.5-4.6 11.1-3.2 18.4 2.1 28.5 5.2 4 1 8 1.1 12 2q6.3 1.4 12.2 3.9c.6.4 1.8.3 2.5.3h15.6" class="b"/><path d="M9.2 152.3q3-.6 6-1.4 3.1-.5 6.1-1.7c11-5.6 18.3-13.5 31-6.6 10.6 5.2 19.4 14 31.2 16.4 8.6 2.5 14.6.3 22.4-3.4 9.5-4.5 19.2-2.7 28.5 1 3.9 1.5 8 2.9 12.1 3 3.4.2 7 .2 10.4.8 2.3.2 4.6 1.2 6.9 1.2h19" class="b"/><path d="M9.2 143.7q3-.1 6-.4 2.7 0 5.3-.2c3.8-.5 7.5-1.9 11.2-3 4.4-1.6 9-3.1 13.8-3 10 1 19 6 27.6 10.8q4.6 2.7 9.5 4.7c4.6 2 9.6 3.6 14.7 3 4.1-.4 8-2 12-3q10.5-2.3 20.8.6c4 1 8 2.6 12 3.6 1.7.3 3.6 0 5.3.1h35.4" class="b"/><path d="M9.2 136.2q3-.2 6-.2 2.7.2 5.3.5 5.2.2 10.3-.4c4.6-.6 9.2-1.5 13.8-1.7 3.2-.1 6.4.5 9.5.8a60 60 0 0 1 26 9.6c6.6 3.8 13.5 8 21.5 7 6-.7 12-2.5 18.1-2.7 8-.6 15.7 1.5 23.3 3.2h39.8" class="b"/><path d="M9.2 129.6a29 29 0 0 1 7-.3l6 1.1q6.8 1.1 13.8.6c5.2-.4 10.4-.9 15.5-.5q6.1-.2 12.1 1.2c7.3 1.9 13.6 6.3 19.9 10.3 3.2 2.2 6.6 4.3 10.3 5.5h11.3a16 16 0 0 0 5.1-.5l6-1.2q8.2-1.6 16.5-1 5.6.8 11.2 1.7 4.8.1 9.5.2c2.6 0 5.2 1 7.8.8h21.6" class="b"/><path d="M9.2 123.3q4-.7 7.8.2c3.7 1.2 7.4 2.5 11.2 3q6 1.1 12.1.1c6-.8 12.1-1.5 18.1-1q7 1 13 5c6.2 3.9 11.6 9 18.1 12.3h20.7q9-2.5 18.2-2.5c4.9.1 9.8 1 14.7 1.4 3.4.2 6.9-.4 10.3-.2 2.6 0 5.2.8 7.8 1.3h21.6" class="b"/><path d="M9.2 118.4c6.3-.7 11.5 3.5 17.3 5.1 6.4 2.1 12.7.6 19-1.2 5.6-1.2 11.7-2 17.3 0 8.7 3.2 14.6 11 22.4 15.9h27.6q4.8-1 9.5-1.4c7-.4 13.9 1 20.8 1 7.3-.5 12.4-2.7 19.8.1.7.4 1.9.3 2.6.3h17.3" class="b"/><path d="M9.2 115.4c7.9 1 13.7 7.7 21.6 8.3 5.5.5 10.5-2.3 15.6-4 18-6 22.9 3.5 35.4 13.7q21.5.1 43.1.1h19.9c3-.4 5.7-1.8 8.6-2.4 5.8-1.5 10.4 0 15.6 2.4h13.8" class="b"/><path d="M9.2 114c6.7 2.4 12 7.9 19 9.6 6.3 1.6 12-2.1 17.3-4.8q3-1.4 6-2a28 28 0 0 1 7-1.3c6-.2 11.2 3.7 15.5 7.5l4.3 4c1 .9 2 2 3.5 1.8h60.4c2.8.2 5.3-1.5 7.8-2.6 3.2-1.5 6.7-2.9 10.3-2.8 5.7 0 10.5 3.4 15.6 5.4h6.9" class="b"/><path d="M9.2 113.1c6.4 3.2 12 8.4 19 10.2 6 1.4 11.4-2 16.4-4.7q3-1.5 6-2.3 3.5-1.3 7-2.3c9.2-2.7 16 3.5 22.4 9 1.2 1.4 2.8 1.1 4.4 1.1h47.5c2 .2 4-.5 6-1q3-.5 6-1.4c3.9-1.5 7.3-4 11.3-5.3 4.8-1.9 10.1-.8 14.6 1.5q2.7 1.2 5.2 2.5c1.8 1 3.5 2.5 5.2 3.7h2.6" class="b"/><path d="M9.2 112.3q4.8 2.6 9.5 5l3.5 1.8a3 3 0 0 0 1.7.3h15.6q1.3.1 2.5-.3 2.6-1.1 5.2-2 3.2-.6 6-2c3.4-1.4 6.8-3.1 10.4-3.8 7.7-1.7 14.3 3.6 19.9 8.1h47.4q4.4-2.3 8.7-4.3 3-1 6-2.3c3.9-1.9 7.8-4.1 12.1-4.5 4.6-.4 9 1.5 13 3.4 1.6.8 3.6 1.3 5.1 2.3q3.5 2.3 7 4.6" class="b"/><path d="M9.2 111.2c3.5 1 7 2.5 10.4 3.6h27.6c2-.2 4.2.3 6-.5 3.6-1.3 7-3.2 10.4-4.4 4.4-1.8 9.5-2 13.8 0 2.5 1.2 4.8 3 7 4.6 1.6.5 3.4.2 5.1.3H131q4.2-3.3 8.6-6.2 3-1.6 6-3a22 22 0 0 1 15.6-2.6c3.6.9 6.9 2.7 10.3 3.9q2.2.6 4.4 1.3 3.4 1.7 6.9 3.5" class="b"/><path d="M9.2 109q4.8.4 9.5 1h40.6c3.1-1 6.3-2.4 9.5-3.2 3-.8 6.5-1 9.5 0q2.3 1 4.3 2.2c.8.4 1.7 1.2 2.6 1h46.6c.5-.1 1.4-.8 1.8-1.1 6.3-5.5 13.7-11.2 22.4-10.8 4.6.2 8.8 2.2 13 3.7 2.2.8 4.6.9 6.9 1.3q3.4.9 6.9 2.2" class="b"/><path d="M9.2 105.4q3-.5 6-.8l5.3-.1c4.2-.2 8.6-.8 12.9-.6q4.8.3 9.5 1.4 3.9.1 7.8 0h18.1q3-.6 6-.7 1.8 0 3.5.3a9 9 0 0 0 3.4.5h51c1.8.3 3-1.4 4.3-2.3q2.4-2 5.2-4c9.7-6.4 15.6-4.5 25.9-1.4q2 .5 4.3.6 1.7-.2 3.5 0 3.4.1 6.9 1.2" class="b"/><path d="M9.2 100.7q3.4-1.2 7-1.9 4.3-.4 8.6-1.3c8.5-2 14.5-.9 22.4 2.5 1.6.9 3.4.7 5.2.7h82.9c1.3.2 2.5-1 3.4-1.6l4.4-3.1a24 24 0 0 1 19.8-3.6c2.8.5 5.8 1.2 8.6 1.2q2.2-.2 4.4-.4 3.4 0 6.9.9" class="b"/><path d="M9.2 95q3.4-1.2 7-1.7 3-.2 6-.7a34 34 0 0 1 17.3-.9q3.5 1 6.9 2.6c1.4.6 2.8 1.5 4.3 1.7h45.7q7 0 13.9-.3c1.7-.1 3.5.4 5.1.3H137l1.8-1 4.3-2.8a32 32 0 0 1 12-4.9c5-.8 9.9.3 14.7.6 2 .2 4.1-.2 6-.2q3.7.2 7 1.4" class="b"/><path d="M9.2 88.5q3.5-.7 7-.8 3 0 6-.2c8.5-1.4 14.4-1.7 22.4 2 1.4.6 2.8 1.6 4.3 1.8h46.7q5-2.1 10.3-3.5c3.4-.9 7-1.4 10.4-.2 3.7 1.1 7.3 2.9 11.2 3.6q2.2.1 4.3 0 2.2.2 4.3-.4c7-2 12.8-6.7 20-8.3a43 43 0 0 1 13.7-.5c2 .2 4.1 0 6 .2q3.7.5 7 2" class="b"/><path d="M9.2 81.8c3.8-.2 7.5.5 11.3.8 4 .2 8-.2 12 .2q4.6.4 8.7 2l4.3 1.8H92c1.8-.4 3.5-1.5 5.2-2.2 4.4-2.1 9-4.2 13.8-5.2 3.8-.8 7.7.4 11.2 1.6 4.2 1.3 8.5 2.8 13 2.9 6.5.3 12.2-3.3 18.1-5.4q8.4-3 17.3-1.5 6.2.7 12 3" class="b"/><path d="M9.2 75.2c5.2 1 10.2 3 15.6 3.3q5.6.4 11.2 1.6 2.2.5 4.3 1.3 1.3.5 2.6.5h48.4c1.1.2 2.4-.5 3.4-1l6-2.8c8.6-4.2 14.4-6.9 24.2-5 6.6 1 13.3 3.3 19.9 1.7 5.7-1.4 11.3-3.7 17.3-3.5 4.4 0 8.7 1.3 12.9 2.6l7.8 2" class="b"/><path d="M9.2 69.4c3.2 1.2 6.3 3 9.5 4Q24.3 75 30 75.8l7.7 1.5h51.8q3.5.2 7 0l6-2.8a169 169 0 0 1 15.5-6.8q6.8-2.4 13.8-2c3.8.2 7.5 1 11.2 1 6-.2 12.2-1.7 18.2-.5 4.8.7 9.3 2.9 13.8 4.7q3.8 1.3 7.8 1.3" class="b"/><path d="M9.2 65c3.7 2.1 7.2 4.7 11.3 5.8a42 42 0 0 0 12.9 1.8h66.4c1.2 0 2.6.1 3.5-.5 3.8-1.9 7.7-3.5 11.2-5.7 4.5-2.7 8.8-5.8 13.9-7.4s10.3-1.1 15.5-.8c5.5.1 11.1.3 16.4 2.1 4.2 1.4 8.2 3.6 12 5.6 3.2 2 7 2.3 10.4 1.8" class="b"/><path d="m9.2 62.2 6 4c1.4.6 2.9 1.8 4.4 1.7h87.2c9.7-2.6 16.4-11.5 25.9-14.6q6-1.9 12-1.4 6.9 0 13 2.2c4.6 1.8 8.8 4.4 13 6.8 4 2.4 7.4 3.1 12 2" class="b"/><path d="M9.2 60.1c1.8 1 3.4 2.4 5.2 3h93.3c1.3 0 3 .2 4.3 0 9.3-3.5 16.4-11.2 25.9-14.4 10.5-3.5 18.8.2 27.6 6 6 3.6 10 6.1 17.3 4.2" class="b"/><path d="M9.2 58.5h92.4c2.9 0 5.9.3 8.7-.4a37 37 0 0 0 14.6-4.1c5.3-2.7 10-6.5 15.6-8.8 11.9-4.7 19.5 3 29.3 8 4 2 8.7 1.7 13 1" class="b"/><path d="M9.2 53.8h88.1c1.9.2 3.5-1.4 5.2-2 4.6-2 8-1.9 13-1 12.3 2.4 16.9-4 26.7-9 6.5-3 13-1.4 19 1.8 3.4 1.7 6.7 3.7 10.4 4.5 3.7.6 7.5 0 11.2-.1" class="b"/><path d="M9.2 49.1h79.4l1.8-.1 2.6-1.9q2.5-1.8 5.2-3.5c3.5-2 7.8-3.9 12-3 7.4 2 12.5 7.7 20.8 4.5 3.4-1.3 6.4-3.6 9.5-5.5a22 22 0 0 1 20.7-1.5c12.7 5 9.8 2 21.6 2.4" class="b"/><path d="M9.2 44.4H81c6.3-2.6 11.3-7.5 17.3-10.6 12.3-6.4 15 .8 25 5.5 8.1 3.5 13.8-2.8 20.7-5.8q5.8-2.5 12.1-2c4.7.4 9.2 2.2 13.8 2.6 2 .1 4.1-.5 6-.8a34 34 0 0 1 7-.3" class="b"/><path d="M9.2 39.7h60.5q3-1.8 6-3 3.9-1.3 7.8-3Q88.7 31 93.8 28c5.7-3.1 13-5.5 19-1.9 6 3.5 11.6 9.5 19 8.5 3.7-.4 7-2.2 10.4-3.4a50 50 0 0 1 13.8-3c4.6-.3 9.2.5 13.8.3 2 0 4.1-.7 6-1.1q3.5-.8 7-1.1" class="b"/><path d="M9.2 35h53.6c1.7-1 3.4-2.4 5.1-3.4q4.1-2.7 8.7-4.4 3.9-1.3 7.7-2.7c5.7-2 11.3-4.6 17.3-5.7 12.4-2.4 17.6 7.8 28.5 10.6 3.4 1 7 .8 10.4.4 5.5-.4 11-2 16.4-3q7.3-1.4 14.6-2.4 5.7-1.3 11.3-3" class="b"/><path d="M9.2 30.4h48.4C67 23.4 73 18 85.2 16q6.4-1.2 13-2.1c4.2-.6 8.7-1 13 0 5.3 1.5 9.9 5 14.6 7.7a47 47 0 0 0 17.3 7c7.4.9 14.5-2.6 21.6-4.6q5-1.5 10.3-2.5 4-1 7.8-2.8" class="b"/><path d="M9.2 25.7h44.1q2.2-1.5 4.3-3.2c7.7-6 15.5-13.8 25.9-14.3 4.6-.3 9.2.1 13.8 0 4.3 0 8.7-.4 13 0 10.2 1.2 17.8 9 25.8 14.7l4.4 2.8h17.2q1.4-.2 2.6-.8c3.4-1.3 6.8-2.8 10.4-3.6q2.5-.4 5.2-.9a30 30 0 0 0 6.9-2.8" class="b"/></svg>