<svg xmlns="http://www.w3.org/2000/svg" id="a" width="1920" height="2400" viewBox="0 0 192 240"><defs><style>.b{fill:none;stroke:#fff;stroke-miterlimit:10;stroke-width:.4px}</style></defs><path d="M0 0h192v240H0z" style="stroke-width:0"/><path d="M8.2 230.4h17.5C30.9 226 36.2 219 43 218c3-.5 5.6 1.3 7.9 3 4 2.7 8.1 6 13.1 6.1 4.7.2 8.9-2.5 13.1-4.1 6-1.9 12.6-1.5 18.3.7 4 1.4 7.6 3.6 11.4 5.2q2.2 1 4.4 1.5c1.7 0 3.6.2 5.2-.4 6.7-2.5 12.6-6.6 20.1-5.7 3.2.3 6.4 1.5 9.6 1.8 6.2.4 12.2-2 18.4-2.5 7-.4 9.5 3 14.8 6.3l.9.5h3.5" class="b"/><path d="M8.2 225.6h18.4c5.8-4.8 14.4-16.7 22.7-10.6 3.9 2.6 7.6 6 12.2 7.2 6.2 2 11.8-2.2 17.5-4 8.2-2.2 15-1.3 22.7 2.2 3.6 1.5 7.3 3.6 11.3 3.8 3.4-.1 6.6-1.7 9.6-2.9 8.7-3.6 13.3-2.3 21.9.2 5 1.1 10 0 14.8-1.1 4.6-1 9.8-1.7 14 .8 1.7 1 3.5 2.4 5.2 3.3q1.3.8 2.7 1.1h2.6" class="b"/><path d="M8.2 220.9h17.5l1.7-.2 1.8-1.5 3.5-3.2c4.1-3.6 9.9-9.1 15.7-5.9 4.6 2.8 8.6 7 14 8.4 5.2 1.6 10.2-1 14.8-3.2a30 30 0 0 1 20.1-1.5c4.2 1.2 8 3.2 12.2 4.4 8 2.4 14.6-6.3 24.5-5.1 7.3.8 11.1 4.9 19.2 4 7-.4 14.4-4.3 21-.6q4.4 2.9 9.6 4" class="b"/><path d="M8.2 216.1q10 .2 20 0c3.6-2.7 6.8-5.9 10.6-8.2 3.8-2.4 7.5-3 11.3-.2 3.7 2.5 7.2 5.6 11.4 7.1 8 3 14.4-3.4 21.8-5.3 11.5-3.5 16.8 1.2 27.1 3.6 7.9 1.3 14.3-8.3 24.5-6.3 3.7.6 7 2.6 10.5 4.1q4.1 1.8 8.7 1.9c6.4.3 12.9-3.2 19.2-1.2q5 2.6 10.5 3" class="b"/><path d="M8.2 211.4h19.2q1.5.1 2.6-.4c4.9-3 9.7-8 15.8-7.8 1.9.2 3.6 1.3 5.2 2.3l6.1 4c1.9 1 4 2.2 6.1 1.9 2.3-.1 4.8.3 7-.2q4.1-1.7 7.9-4a46 46 0 0 1 7-2.8q6.5-2 13-.4c5.4 1 11.4 4.6 16.7 2.7 3-1 5.8-3 8.7-4.4 10-5.1 15.2-.3 23.6 4.4q5.3 2.9 11.4 2.7c4.4 0 8.7-1.6 13-1.4 1.8.1 3.6 1 5.3 1.4q3.5.9 7 1" class="b"/><path d="M8.2 206.3c2.5.7 5.3.2 7.9.3h13c1.7.3 3-.8 4.4-1.6q3-1.8 6.1-3.3c3-1.4 6.7-2 9.7-.2 2 1 4 2.5 6 3.6 1.4.7 2.9 1.7 4.4 1.6h9.7c1.2-.2 2.4-1 3.4-1.6 7.3-4.6 15.6-9 24.5-7.5 4.4.6 8.7 2.4 13.1 2.6 4.8.2 8.8-3.2 13.1-5 3-1.2 6.4-1.9 9.6-1 6.4 1.6 11 6.7 16.6 9.8 3 1.7 6.2 3 9.6 2.7h6.1q2.2-.5 4.4-.6 2.6-.2 5.3.6h8.7" class="b"/><path d="M8.2 201.3c2.8.9 5.8.5 8.7.6h12.3c1.6.2 3-.8 4.3-1.5q3.4-2 7-3.5c5.5-2.2 8.5 0 13.1 2.6q2.6 1.4 5.3 2.3 1.7.1 3.5.1c2 0 4.2.2 6-.7 3.5-1.5 6.5-3.9 9.7-5.8q4.6-2.5 9.6-4c6.3-2 12.8-.7 19.2.3q4.5.7 8.8-1c5.2-2.3 10.9-5 16.6-2.6 7 3 12 9 18.3 12.9 1.4 1.3 3.5.9 5.2 1h28" class="b"/><path d="M8.2 197.2H30c3.8-2.2 7.4-5 11.4-6.8a10 10 0 0 1 6.1-.7c3.3 1 6.3 2.8 9.6 3.7 7.6 2.4 13.6-1.1 20.1-4.3q6.7-2.8 14-3.5c6.7-.8 13.4 1 20 .2 8.8-1.9 13.6-6.9 22.8-1.6 4 2.4 7.6 5.7 11.4 8.6 2 1.5 3.9 3.3 6 4.4h32.4" class="b"/><path d="M8.2 192.4h20c1.4-.2 2.5-1.4 3.6-2l7-5.3c3-2 6.7-4 10.5-2.7 7.4 2 14.1 3 21.8 1.5q3.9-.7 7.9-1 7-.3 14 .3a74 74 0 0 0 17.4-.4c3-.5 5.9-1.8 8.7-3a18 18 0 0 1 17.5 1.6c5.4 3.4 10.2 7.9 15.7 11h31.5" class="b"/><path d="M8.2 187.7h16.6q1.5.1 2.6-.5c6-3.5 13.4-12.3 20.1-12.7q7 .3 14 .7c6.9.5 13.6 2.3 20 4.5 8.4 3 15.6 5 24.5 3q4.1-.9 7.9-2.2c3.2-1.3 6.3-3.1 9.6-4.2 10-3.8 18.2 3.5 26.2 8.4q3 1.8 6.1 3h28" class="b"/><path d="M8.2 183c5-.2 10 .2 14.9-.2 4.3-2 8.3-5 12.2-7.9 3.3-2.4 6.6-5 10.5-6.4 1.3-.5 3-.5 4.3-.7l5.3-.6c7.2-1 13.4 1.8 19.2 5.9 5 3.3 10.1 7 15.7 9.4 1.6.7 3.6.3 5.3.4h7c1.7.1 3.5-.8 5.2-1.3 2-.8 4.2-1.2 6.1-2.1 10-5 16.3-11 28-5.4 6.2 3.1 12.1 7.3 19.2 8.2 4 .6 8.1 0 12.2.1q2.7 0 5.2.5h5.3" class="b"/><path d="M8.2 178.2h5.2c1.5 0 3.1.2 4.4-.5q6.2-2.4 12.2-5.4c4.2-2.2 8.1-4.8 12.3-7q2-1.1 4.3-1.8l4.4-.8c2.8-.7 5.8-1.5 8.7-1.3 9 .4 14.6 8.4 21 13.5 1.4 1 2.8 2.6 4.4 3.3h26.2q1.9-.5 3.5-1.4c10-5.7 16.8-12.3 28.8-7 5.7 2.6 11.3 5.9 17.5 6.7 4.6.8 9.3.1 14 .3q2.6.1 5.2.8c1.1.1 2.4.7 3.5.6" class="b"/><path d="M8.2 173.4h2.6l2.6-1.1c2.6-1.2 5.2-2.7 7.9-3.6l10.5-3.1q5.7-2 11.3-4 3.5-1.2 7-1.7c2.9-.7 5.8-1.8 8.8-2 10.7-.7 16.7 10 24.4 15.5H107q2.3.2 4.4-.5c5.2-1.5 9.7-5 14.8-6.9a23 23 0 0 1 16.6 0c4.2 1.3 8.1 3.5 12.3 5a42 42 0 0 0 16.6 2.4h12.2" class="b"/><path d="M8.2 167.8c12.8-9.2 13-9.2 28.8-9.8q6.2-.3 12.3-1.2c2.9-.5 5.8-1.8 8.7-2.3 5.9-1.5 11.4 1.2 15.7 5l6.1 5.9c1.4 1 2.7 2.8 4.4 3.3H100c1.4-.1 3.2.4 4.4-.4q2.6-1.5 5.2-2.5 2.7-.8 5.3-1.4 4.8-1.5 9.6-2.5c7-1.5 14.3-.3 21 2 3.8 1.3 7.5 3.1 11.3 4.5 1 .5 2.4.3 3.5.3h23.6" class="b"/><path d="M8.2 162c3.7-3.3 7.1-7.2 11.4-9.8 6.4-3.8 14-1.8 21-.7 4 .5 8.2.8 12.2-.6 3.9-1.2 8-2.7 12.2-2 7.4 1.4 12 7.9 17.5 12.5q2 1.6 4.3 2.5h9.6q1.9-.6 3.5-1.4c3.2-1.5 6.3-3.4 9.6-4.3 4.3-.8 8.8-.6 13.1-.4 7.4.3 14.7 1.7 21.9 3.3 3 .7 5.8 2 8.7 2.9h30.6" class="b"/><path d="M8.2 157.8c7-7.4 12.8-16.7 24.5-15.6 5.8.3 11.5 3 17.4 2.1 3.5-.6 7-2 10.5-2.3 7.9-1 14.2 4.7 19.2 10 4.2 4.4 9.8 6.6 15.8 5 3.6-1 7-2.8 10.4-4s7.1-.7 10.5.1l11.4 3q5.7 1.4 11.3 2.2c2.3.3 4.7 1 7 .9h37.6" class="b"/><path d="M8.2 154.5c1-.3 1.9-1.6 2.6-2.4l5.3-6.3c4.2-4.8 9.2-9.5 15.7-10.8 6.4-1.5 12.8 1.4 19.2.6 3.2-.5 6.4-1.4 9.6-1.5 8.4-.4 14.6 6.1 20.1 11.5 5.6 5.3 12 6 19.2 4.2 10.3-2.5 12.5-1.2 21.9 2.8q2.6 1.1 5.2 1.9h56.8" class="b"/><path d="M8.2 149.7q1.4 0 2.6-.2c6.8-7.7 13.6-17.8 23.6-21.3 4.5-1.5 9.3-.9 14-.7 4.4 0 8.7-1.3 13-.8 6 .6 10.8 4.3 15 8.1 2.5 2.3 4.9 5 7.8 6.8 9.5 6.2 17.6 2 27 4.4 3.1.8 5.9 2.7 8.8 3.7h63.8" class="b"/><path d="M8.2 145h3.5c7.7-7.8 15-19.3 26.2-22.1 4.3-1.1 8.8-.3 13.1-.7 9.7-1.4 15-.8 22.7 5.6 4 3.3 7.6 7.4 12.2 10 7 4.2 14.2 3.4 21.9 4.2q3.1.5 6.1 1.7 1.7.8 3.5 1.3h66.4" class="b"/><path d="M8.2 140.2c5.5 0 4.3.9 7.9-3.3 3.3-3.5 6.7-7.3 10.4-10.4a26 26 0 0 1 12.3-6.2c4.3-.8 8.7 0 13-.5 11.7-2 16.8.6 25.4 8.1 8.7 7.8 15 11.4 27 10.5q3.7-.3 7 .3c2.1.3 4.1 1.3 6.2 1.6h66.4" class="b"/><path d="M8.2 135.5c2-.1 4.2.3 6.1-.3 6.9-6.9 14.1-15.4 24.5-16.2 4-.4 8.2.5 12.2 0 3.2-.4 6.4-1.2 9.6-1.2 10 .2 16.7 8.7 24.5 13.7 7.6 5.1 13.2 4.6 21.8 2.7 3.5-.7 7-.2 10.5.4 1.7.3 3.5 1 5.2.9h61.2" class="b"/><path d="M8.2 130.8h4.4q1.3 0 2.6-.3 4.9-5 10.5-8.9 5.1-3.5 11.3-3.8c4.4-.2 8.8 1 13.1.6 5.5-.9 11.1-3 16.6-1.2 8.3 2.6 14.3 9.5 21.9 13.5q4.7.1 9.6 0h6.1c2.3-.6 4.6-1.7 7-2 3.5-.3 7-.5 10.5.4q2.2.5 4.3 1.5 1.4.3 2.7.2h55" class="b"/><path d="M8.2 126h7.9c10.3-8.7 14.9-12 28.8-9.5q5.3.7 10.5-1c4.5-1.4 9.5-2 14 0 5 2 9.5 5.3 14 8.4 1 .7 2.1 1.8 3.4 2.1H107q1.7-.9 3.5-1.5c4.2-1 8.8-2 13.1-.9q2.8.8 5.2 2.4h55.1" class="b"/><path d="M8.2 121.3c15.8-.2 7 1.4 19.2-6q5-2.8 10.5-3c4-.2 8.2.9 12.2.4 4.4-.6 8.7-2.5 13.1-2.3 7 .1 12.7 4.7 18.4 8.2l2.6 1.9q.8.7 1.8.8h26.2c1.4 0 3-.7 4.3-.9q3-.7 6.2-.4c1 .1 2.4.5 3.4.8q1.4.5 2.7.5h55" class="b"/><path d="M8.2 116.5h13.1q1 .1 1.7-.3 3.3-2.4 7-4 4.6-2 9.6-2.3c3.5-.3 7 .3 10.5 0 4.1-.4 8.1-1.9 12.3-2a28 28 0 0 1 14 3.3q5 2.2 9.5 5.2 4.9.1 9.7.1h88.2" class="b"/><path d="M8.2 111.8h18.4c1.4 0 2.9-1 4.3-1.2q3.5-1 7-1.4c4.4-.6 8.8 0 13.1-.2 5-.4 9.9-1.9 14.9-2.1a51 51 0 0 1 16.6 2q3.4 1.3 7 2.8 2.5.1 5.2 0h89.1" class="b"/><path d="M8.2 107H65l10.5-2.3q3.8-.8 7.8-.8c4.7.3 9.4 1.4 14 1.8q4.8.5 9.6.1c2.3 0 4.7-.6 7-.4q2.3.2 4.4 1l1.7.6h63.8M8.2 102.3h67.3c3.8-1.9 8-3.6 12.2-4.1 7.8-1.2 15.7.7 23.6.4a14 14 0 0 1 7 1.8l2.6 1.4.9.5h62" class="b"/><path d="M8.2 93.4q5.9-.5 11.4 1.7l3.4 1.5c1.1.5 2.3 1.1 3.5 1h51.6a33 33 0 0 1 27-5.7c8.5 1 8.6-.6 16.7 4.5l1.7 1q2.2.2 4.4.1h55.9" class="b"/><path d="M8.2 83.5c9-.4 16.4 5.7 24.5 8.9q1.6.6 3.4.4h41.1c1.3-.4 2.4-1.4 3.5-2q2.5-1.7 5.2-2.9c9.2-4 16.2-.8 25.4-.4 4 0 7.7 1.9 11.3 3.4l4.4 1.9h2.6c9 0 18.1.2 27.1-.2q13.5.4 27 .2" class="b"/><path d="M8.2 73.5c3.9-.7 7.8.4 11.4 2q4.8 2.1 9.6 4.4c6.7 3.2 14 5.5 21 8.1h23.5c1 0 1.9-.6 2.6-1l4.4-2.6a24 24 0 0 1 15.7-2.6c4.1.5 8.2 1.8 12.3 2.3l6 .6 10.6 1.4q6 .7 12.2.4c3.2 0 6.4-.5 9.6-.3q5.7.5 11.4 1.8h25.3" class="b"/><path d="M8.2 64.8c5.7-2.3 9.6-.1 14.9 1.8q9.3 3.6 18.3 8.4c4.6 2.4 9.1 5 14 6.7 7 2.6 14.3 1.3 21-1.7 4.7-2.3 8.5-3.6 14-3.1 7 .5 13.8 3 20.9 3.6 6.4.7 12.9-.6 19.2-1.3 4.7-.4 9.5-.5 14 .7l5.2 2q1.8 1 3.5 1.4h30.6" class="b"/><path d="M8.2 58c5.4-3 7.6-2 13.1-.4 8.4 2 15.8 6.6 22.7 11.8 7.7 5.8 14.7 8.7 24.5 6.6 4.4-.8 8.7-2.5 13-3.4 4.1-.6 8.3-.1 12.3.3l11.4 1c4.3.2 8.7 1.4 13 .5 12.6-2.6 19.7-4.3 30.6 4.1q17.5.2 35 0" class="b"/><path d="M8.2 53.4c4.5-3 6.3-3.2 11.4-1.8a37 37 0 0 1 14 5.2c4 2.6 7.6 6 11.3 9.3 4.2 3.9 9 6.8 14.9 6.6 5.6 0 11-2 16.6-3.2 4.2-.9 8.7-.6 13-.8 6-.2 11.7-2 17.5-2.5q3-.1 6.1.5 2.2.2 4.4 0c3.8-.4 7.6-1.2 11.4-1 6.9.3 12.2 4 17.4 8.1h37.6" class="b"/><path d="M8.2 50.2c2.3-1.4 5-2.8 7.9-2.4q4.3 1 8.7 2a36 36 0 0 1 14.8 9.5c3.5 3.2 6.6 6.9 10.5 9.5q1.3.5 2.6.3h14c1.5 0 3-.7 4.4-1q3-.8 6.1-1.3c2.6-.4 5.3-.2 7.9-.5q5.5-.8 10.5-3.3c4-1.8 7.8-4.4 12.2-5.2 2-.5 4.1.2 6.1.5q3.5.2 7 .2A30 30 0 0 1 140 66l3.5 2.9q1.2.4 2.6.3h37.5" class="b"/><path d="M8.2 48.6c6-2.4 8-1.1 14 .1 9.8 2 16.5 9 23.6 15.6q12.7.2 25.3 0h11.4q3.7-.4 7-2.2c4.7-2.5 8.7-6.3 13-9.4 4.2-2.9 6.4-3.9 11.4-2.6 11.6 1.4 17.5 5 26.2 12.5L142 64c1.3.6 3 .3 4.3.4H184" class="b"/><path d="M8.2 48.5a32 32 0 0 1 7 0q3.5.6 7 1.3a45 45 0 0 1 19.2 9.8h41.1c4 0 4.4.6 7.8-2 3.9-2.8 7.1-6.4 10.5-9.7 3.3-3.1 7.3-7.4 12.2-6 10 1.5 17.3 9.2 24.5 15.7.7.6 1.7 1.6 2.6 2h43.7" class="b"/><path d="M8.2 47.7c6.1.8 12.4 1.4 18.4 3.3q4.5 1.5 8.7 3.8 2.2.2 4.4 0h48c2.3.4 7.9-5.7 9.6-7.5q3.7-4.2 7.9-8c2.5-2.3 5.3-3.8 8.7-3 6.8 1.4 11.8 6.7 16.6 11.3L135 52c1 .9 2.2 2.3 3.5 2.9h45.4" class="b"/><path d="m8.2 45.3 6.1 1.1q3.1.3 6.1.8 3.1.7 6.2 1.8c1 .4 2.3 1.2 3.5 1.1h59.4c2 .3 3.7-1.6 5.2-2.8 3.4-2.8 6.4-6.2 9.6-9.2 2-1.8 4.3-3.8 7-4.4 10.3-1.2 18.5 11.3 26.2 16.4h46.3" class="b"/><path d="M8.2 41.2q3 .6 6.1 1c1.7.2 3.6.1 5.3.5q2.7.5 5.2 1.7 1.6 1 3.5 1h61.1c2-.2 4.2.2 6.2-.3 4.6-3.1 8.3-7.5 13-10.5 5.7-3.6 12.5-.5 17.5 2.7 4.4 2.7 8.4 6.2 13.1 8h44.6" class="b"/><path d="M8.2 37q3 .4 6.1.6c2 0 4.2-.2 6.1.5 2.2.5 4.1 1.8 6.2 2.5h73.3c3.2-2.5 6.2-5.4 9.7-7.4 7.3-3.9 15.6-.4 22.7 2.4q4.2 1.9 8.7 2.9 3 .4 6.1.5 5 .2 9.6 1.6h27.1" class="b"/><path d="m8.2 33.2 7-.5a13 13 0 0 1 7.9 1l3.4 2q1.8.3 3.5.2h66.5c2-.1 4 .2 6-.2l2.7-2.2c8.8-8.1 20.7-5.5 31.4-3.5 10 1.8 15-.5 24.5 5.9h22.7" class="b"/><path d="M8.2 30.3q4.6-1.7 9.6-2.5 3.1 0 6.1 1.3 1.9 1 3.5 2h74.3q1 .1 1.7-.5 3.3-2.7 7-4.9c6.9-2.9 14.5-3.1 21.8-2.7q5.3.4 10.5.4a26 26 0 0 1 19.3 6q1.1 1 2.6 1.7h19.2" class="b"/><path d="M8.2 26.4h4.4a17 17 0 0 1 7-1.7c2.4 0 4.7.9 7 1.7h6q34.5.1 69 0c5.5-4.5 8.8-7 15.8-8.3 6.3-1.2 12.8-1 19.2-1.2q5.7-.2 11.4-.4 6.2.1 11.4 3.3 4.5 3 8.7 6.3 1.2.5 2.6.3h13.1" class="b"/><path d="M8.2 21.7h89.9c1.4.2 2.6-1 3.6-1.8l4.3-3.4a30 30 0 0 1 16.6-5c6.1-.3 12.3 0 18.4-.7 6.4-1 12-2.3 18.3.6 5 2.2 9.1 6 14 8.2q3 1.1 6.1 2h4.4" class="b"/></svg>