<svg xmlns="http://www.w3.org/2000/svg" id="a" width="1920" height="2400" viewBox="0 0 192 240"><defs><style>.b{fill:none;stroke:#fff;stroke-miterlimit:10;stroke-width:.4px}</style></defs><path d="M0 0h192v240H0z" style="stroke-width:0"/><path d="M8 229h51.7c3.7-2.4 7.3-5 11.4-6.8 3.6-1.7 7.5-2.7 11.3-4 4.8-1.5 9.8-2.9 15-2.8 5.7 0 11.4 1.9 16.5 4.5 6 3.3 11.7 7.3 18.4 8.4a49 49 0 0 0 15.8-.1c12.3-3.4 22.5-13.7 35.9-13.4" class="b"/><path d="M8 224.2H58c3-1.8 5.8-4.1 8.8-5.8a53 53 0 0 1 27.1-7.2c7.4.5 14.4 3.5 21 6.7 5.3 2.5 10.7 5.9 16.6 6.3H149c1.9-.3 3.6-1.3 5.3-2.1q4.5-2.5 8.7-5.3a39 39 0 0 1 21-8" class="b"/><path d="M8 219.4h49.1c1 .2 2-.5 2.6-1 8.4-6.7 18.6-12.9 29.8-11.5 6.1.7 11.8 3.3 17.5 5.7 6.7 2.7 13.6 5.7 21 6.4q5.2.3 10.5.1 4.7.3 9.6.3c8.2-1.5 14.7-7.4 21.9-11.2 4.2-2.5 9.1-3.6 14-4.3" class="b"/><path d="M8 214.7h50.8c13-9.6 21.1-15.6 37.6-9.5 7 2.5 13.7 5.8 21 7 6.7 1.4 13.5.4 20.2.3q4 0 7.8 1 4.6.4 8.8-.8c6.3-1.8 11.7-5.5 17.5-8.3 3.8-1.9 8.1-2.9 12.3-3.9" class="b"/><path d="M8 208.4q3.1-.2 6.2.5c1.4.3 2.9 1.2 4.4 1H43q8.2.2 16.6 0 6-4.2 12.2-7.4c8.6-4.1 18.3-2.6 27.2-.6 6.4 1.3 12.7 3.3 19.2 3.9s12.9-.3 19.3 0c3.2.2 6.4 1.4 9.6 2q5.2 1 10.5.2c5.6-1 10.6-3.7 15.8-6q5.1-2 10.4-3.3" class="b"/><path d="M8 202.1q5.2.4 9.7 3h37.7c1.6 0 3.7.4 5.2-.3 5-2.4 10.2-4.8 15.7-6q5.6-.8 11.4-1.1 6.6-.7 13.1-1 4.5-.4 8.8 0l12.2 1.6c8.3.8 16.7 1.6 24.5 4.6 16.9 5.7 22.5-2 37.7-5.4" class="b"/><path d="M8 198.3q3.7.6 7 2.1h44.7c3.8-.7 7.6-1.7 11.4-2.2 4.6-.7 9.4-.7 14-1.7 5-1.2 10-3.2 14.9-5 3-1 6.3-2 9.6-2 6 0 11.8 2 17.5 3.9q10.5 3.7 21 7h17.5q1.8.2 3.5-.6l5.2-2q4.6-1.7 9.7-2.4" class="b"/><path d="M8 195.7h70.1c2.3-.1 4.7.2 7-.2q3.6-1.6 7-4c5.9-3.6 11.8-9 19.2-8.8 5 .5 9.6 3 14 5.2 5.1 2.7 10.3 5.4 15.8 7q2 .8 4.3.8h22.8q1.9 0 3.5-.8l3.5-1.6q4.3-1.5 8.8-1.6" class="b"/><path d="M8 191h79.7q1.6-.1 2.6-1.1l3.5-3.2c5-4.2 10.5-9.8 17.5-9 4.8.8 9 3.5 13.1 5.8a59 59 0 0 0 15 6.5c4 1.3 8 .9 12.2 1h16.6q1.4-.1 2.6-.8l3.5-1.9q4.6-2.3 9.7-2" class="b"/><path d="M8 186.2h82.3c5.6-5.2 11.7-12.6 20.1-11.5 5 1 9.4 4 14 6a44 44 0 0 0 17.5 4q3.7.2 7 1.4 4 .2 8 0h7c1.4 0 3 .2 4.3-.7 5.6-2.7 8.9-6.8 15.8-5.8" class="b"/><path d="M8 181.4h82.3c5.7-5 12-10.5 20.1-8 3.7 1 7 2.9 10.5 4.2a29 29 0 0 0 16.7 1q3-.6 6.1-.5 2.7.2 5.3 1.2c8.4 3 14.1 3.2 21.8-2 4.4-3.1 7.3-6.1 13.2-5.3" class="b"/><path d="M8 176.7h81.4c6.6-5.4 12.7-8.3 21-5 3.2 1.2 6.4 2.8 9.7 3.7 5.2 1.7 10.8.4 15.7-1.6 2.8-1 5.8-2.2 8.8-1.8 3 .3 5.8 1.5 8.7 2.3 6.5 2 12.2.4 17.5-3.6 4.2-3.2 7.3-6.6 13.1-6" class="b"/><path d="M8 171.9h76.2q1.7.2 3.5-.2c3.2-2.3 6.6-4.5 10.5-5.5 4.1-1 8.4.1 12.2 1.6 9.7 4 14.4 5.9 24.5 1.3 8.2-3.7 10.2-2.6 18.4-.3 9 2.6 15.2-1.4 21.9-6.8q3.9-2.8 8.8-2.8" class="b"/><path d="M8 167.2h73.6q1.7.2 3.5-.3c3.8-2.3 7.7-5 12.2-5.8 4.8-1 9.6.7 14 2.5 11.5 4.9 15.8 2.6 26.3-2.7 4.4-2.3 8.5-1.4 13 0 4.3 1.1 8.8 2.2 13.2 1.6 4.4-.5 8.4-2.7 12.3-4.8q3.7-1.8 7.8-2.5" class="b"/><path d="M8 162.4h75.3l5.3-3a24 24 0 0 1 12.2-3.6c5.6 0 10.5 3.1 15.8 4.3 5.5 1.3 11-.8 15.7-3.6 2.8-1.5 5.6-3.4 8.8-4.1 4.6-.6 9.4 1 14 1.8a41 41 0 0 0 28.8-1.9" class="b"/><path d="M8 157.7h74.4c1.2 0 2.6.1 3.5-.7 4.2-2.4 8.4-5.2 13.2-6 6-1.3 11 1.5 16.6 3 5.8 1.6 11.7-.6 16.6-3.6 2.8-1.5 5.6-3.3 8.8-4 2-.2 4.1.3 6.1.3q7.5.4 14.9 2.3c8 2.1 13.8 5 21.9 1" class="b"/><path d="M8 152.9h77.1c1.5 0 3.1.2 4.3-1 19.7-14.3 20.9 0 36.8-3.6 4.6-1.2 8.6-3.9 13.1-5 2-.7 4.2-.2 6.2-.2q3.9-.1 7.8-.4c6.2-.4 12.1 1.8 17.5 4.4 4.8 2.3 8.2 3 13.2.6" class="b"/><path d="M8 148.2h81.4c1 .1 2-.6 2.7-1.2l2.6-2c2.9-2 6-4 9.6-4.5 3.7-.6 7.2.7 10.5 2q5.2 2.1 10.5 2.1c4.8 0 9.3-2 14-2.8 2.3-.4 4.7.4 7 .2 3.6-.4 7-1.6 10.5-2q5.5-.5 10.5 1.5c6.1 2.4 9.7 6.4 16.7 3.3" class="b"/><path d="M8 143.4H93c3.1-2 6.1-4.4 9.7-5.5 10.8-3.3 15 6.5 32.4 3.2q3-.5 6-.5c1.8.1 3.6.7 5.3.4 4-.7 7.6-2.6 11.4-3.5q4.8-1.2 9.6 0c6.3 1.5 9.7 5.2 16.7 3.1" class="b"/><path d="M8 137a23 23 0 0 1 11.4-.5c2.1.4 4 1.8 6.2 2.1h72.6l4.4-1.6c5.7-2 11.7 0 17.5.8 6 1.1 12.2.1 18.3-.3q3.1 0 6.2.5 2.7-.1 5.2-1c8.2-3.4 13.7-6.2 22.8-3.2 3.6 1.3 7.5 2.3 11.4 2.1" class="b"/><path d="M8 128.8q4.8-1.6 9.7-2.5c6.4-.6 12.3 2.8 18.4 4.4a42 42 0 0 0 8.7 1.5c2 .2 4.1 0 6.1.3q2.7.3 5.3 1.3h65.6q5.7.2 11.4-.4 4-.4 7.9-.2 1.7.1 3.5.4 2.2-.1 4.4-.8c4.3-1.3 8.5-3.4 13-4.1 7.5-1.4 14.7 1.7 22 2.7" class="b"/><path d="M8 122.4q3.7-1.2 7-2.8 3-1.6 6.2-2.2c7.1-1.3 13.8 2.4 20.1 5.3l5.3 2q2.7.5 5.2 1.5 2.7 1.1 5.3 2.7c1.3.4 3 .2 4.3.3h64.8c4-.4 8.2-1 12.2-.8 2.3 0 4.7.4 7 .3a38 38 0 0 0 7-1.4c4-1.1 8.1-2.2 12.3-2.3 6.5-.1 13 1.2 19.3 2.5" class="b"/><path d="M8 118c8-2.3 13-9.4 22-8.4 5 .7 9.5 3.7 14 6.1 2.1 1.4 4.7 2 7 3.2q4 2.4 7.8 5.4 29.8.2 59.5 0h7l6.1-.3c3.5 0 7 .4 10.5.4h5.3c4.4-.6 8.7-1.6 13.1-1.8q6.1-.3 12.3.5c3.8.1 7.6.7 11.4 1" class="b"/><path d="M8 115.8c7.8-2.2 13-9.7 21-11 5.7-1 11 2 15.8 4.5q3.1 1.3 6.1 2.9c3.5 2 6.5 4.8 9.7 7.3 5.2.3 10.5 0 15.7.1H184" class="b"/><path d="M8 114.7c7.8-2.2 13.3-9 21-11.2 5.6-1.9 11.4-.5 16.7 1.3q2.2.7 4.4 1.5 4.2 2.3 7.8 5.4c1.5 1 2.7 2.7 4.4 3.2H184" class="b"/><path d="M8 110.1h7c1.6 0 3-1.4 4.4-2q3-1.7 6.2-3a43 43 0 0 1 17.5-3.9q4-.2 7.8 1c4.3 1.8 7.9 4.9 11.4 7.7 1 .4 2.4.2 3.5.2H184" class="b"/><path d="M8 105.4h10.6c2-.1 4.1.3 6-.3q6.8-2 13.2-4.4c4-1.3 8-3 12.3-2.9 5.5.6 9.5 4.8 14 7.6H184" class="b"/><path d="M8 100.6h27.2q2.8-1.2 5.2-2.8c3-1.8 6.1-4 9.7-4.5 6.1-.6 11 4 15.7 7.3H184" class="b"/><path d="M8 95.9h30.7c3.1-2.4 6-5.3 9.6-7.2 6.6-3.5 13.3 1.7 18.4 5.6 2.1 2 2.6 1.6 5.2 1.6H184" class="b"/><path d="M8 91.1h30.7c3.4-3 6.4-6.8 10.5-9.1 8.9-4.4 16.7 4.7 23.6 9.1H184" class="b"/><path d="M8 86.4h29.8c3.4-3.4 6.5-7.4 10.5-10.1 8.5-5.5 16.9 2.8 23.6 7.3q2.2 1.6 4.4 2.7 4 .2 7.9 0h99.7" class="b"/><path d="M8 81.6h29.8c3.6-3.6 6.8-8 11.4-10.3 9.1-4.4 17.7 3.4 25.4 7.5q3.3 1.8 7 2.8H184" class="b"/><path d="M8 76.9h27.2c1.4-.1 3 .2 4.4-.3 3.6-3.9 7.7-7.7 13-8.7 8.6-2 16.9 2.2 24.6 5.3q4.6 1.5 8.7 3.6 4 .2 8 0H184" class="b"/><path d="M8 72.1q17.6.2 35 0 3.1-2.7 7-3.9 4-1.4 8-2.4a34 34 0 0 1 28.8 4.4q1.7 1 3.5 2H184" class="b"/><path d="M8 67.4H51l4.4-2q4.8-2.7 9.6-5.1c5.2-2.5 11.4-3.7 16.7-.8 4.8 2.2 9 5.9 14 7.9H184" class="b"/><path d="M8 62.6h47.3c1.6-.5 3-1.8 4.4-2.7q3.8-2.9 7.9-5.3c5.8-3.5 10.5-4.3 16.6-1 9.2 4.8 16.2 9.7 27.1 9 3.8-.3 7.6-1.2 11.4-1 2 0 4.1 1 6.1 1H184" class="b"/><path d="M8 57.9h44.7c2-.2 4.2.2 6.1-.3l8.8-6c7-4.5 11.3-6 19.2-2.8 11 4.4 17.5 8 29.8 5.7q4.9-.8 9.6.4 3.7 1 7 2.9 8.3.2 16.6 0H184" class="b"/><path d="M8 53.1h53.4c4.2-2.2 8.1-4.9 12.3-7 7.9-4.6 15.7-1.9 23.6.9 4.5 1.5 9.2 3 14 2.3 3.2-.4 6.4-1.2 9.6-1.2 5.4-.3 10.4 2 15 4.6q1.1.6 2.5.4H184" class="b"/><path d="M8 48.4h56.1q1.4.1 2.6-.4c4.2-1.9 8-4.5 12.3-6.4 12.6-5.7 21.5 4.8 32.3 3.3 8.8-2.1 14.5-2.6 22.8 1.8 1 .5 2.3 1.4 3.5 1.7H184" class="b"/><path d="M8 43.6h62.2c3.6-1.7 7-4.1 10.5-6 6.8-3.5 13.6-1 20.1 1.8 9.7 4.2 10.2 1 19.3.2 4.5-.4 9 1 13 3l1.8 1H184" class="b"/><path d="M8 38.9h62.2c3.4-1.5 6.4-4 9.6-5.8 5.3-3.3 11.2-2.6 16.6 0 4.7 1.8 9.6 5.4 15 4q4.1-1.3 8.7-1.5 4 0 7.9 1.6l3.5 1.6H184" class="b"/><path d="M8 34.1h57.8c4.2-1.3 7.7-4.1 11.4-6.3q7.8-5.5 16.6-1.5c5.4 2.1 10.5 6.8 16.6 6.1q3.5-1 7-1.2a23 23 0 0 1 10.5 2.9H184" class="b"/><path d="M8 29.4h51.7c5.8-1 10.8-4.5 15.7-7.6a16 16 0 0 1 16.7-1.5c5.8 2.3 11.8 8 18.3 7.5a17 17 0 0 1 11.4.7q1.6.9 3.5.9H184" class="b"/><path d="M8 24.6h33.3q3 0 6.1-.3c2.9-.4 5.9-.2 8.8-.4 6.8-.2 12.7-4 18.4-7.3 5.6-3.5 11.7-3 17.5-.1 5 2.3 9.5 5.9 14.8 7.4q1.8.4 3.5.3 2.2-.5 4.4-.3c1.5 0 3 .8 4.4.7H184" class="b"/><path d="M8 19.9h29q4.6-1.4 9.6-1.4c3.2-.1 6.4.3 9.6.4 6.7.2 12.6-3.4 18.4-6.3 5-2.6 10.8-1.4 15.7.7 4.2 1.8 8.1 4.4 12.3 6.3 1 .4 2.4.2 3.5.3H184" class="b"/></svg>