<svg xmlns="http://www.w3.org/2000/svg" id="a" width="1920" height="2400" viewBox="0 0 192 240"><defs><style>.b{fill:none;stroke:#fff;stroke-miterlimit:10;stroke-width:.4px}</style></defs><path d="M0 0h192v240H0z" style="stroke-width:0"/><path d="M9 231.3h49.3a113 113 0 0 1 14.7-4.7c3.2-.7 6.5-1.1 9.6-2 5-1.5 10.5-2.8 15.6-.6 2.8 1.1 5.4 3 7.8 4.8 3.8 3.2 3 2.4 7.8 2.5h53.7c2.2-1 4.5-2.1 7-2.5 3.4-1 6-3.7 8.6-6.1" class="b"/><path d="M9 226.6h58.8q6.5-1.5 13-2.4c7.9-1.8 13.4-3.5 20.8.9l2.6 1.5h52.9c3-1 5.8-3.1 8.7-4.6q3-1.8 6-3 2.2-.6 4.4-1.3 3.7-2 7-5" class="b"/><path d="M9 221.9h136.9q5.8-1 11.2-3.8c3.6-1.8 7-4.2 10.4-6.3q2.4-1.4 5.2-2.4 1.7-.2 3.5-.9c2.4-1 4.7-2.7 6.9-4.2" class="b"/><path d="M9 217.2h130.8q1.6-.7 3.4-1c11.6-2.2 15.8-6.3 25.2-12.3q2-1.3 4.3-2 1.7-.3 3.5-.8 3.6-1.4 6.9-3.5" class="b"/><path d="M9 212.5h130.8q3.4-.9 6.9-2 6-1.6 11.3-5.2c3.8-2.5 7.3-5.6 11.2-8q1.7-.8 3.5-1.4 1.7-.2 3.5-.6c2.4-.7 4.7-2 6.9-3" class="b"/><path d="M9 207.8h133.4q3.5-1 6.9-2.4c4.8-1.9 9-5 13-8.2 3.2-2.5 6.4-5.5 10.4-6.6q1.7-.2 3.5-.5 3.5-.9 6.9-2.5" class="b"/><path d="M9 202.9c4.8.4 9.8 0 14.6.2h117.9a52 52 0 0 0 20.8-12c3.1-2.5 6.3-5.7 10.4-6.6 1.4-.2 3 0 4.3-.4q3-.8 6-1.9" class="b"/><path d="m9 197.5 6 .9h110l12.2-.1q6.3-2 12.1-5.2c4.7-2.7 8.9-6.4 13-10 3-2.5 6.3-5.6 10.4-6.2h4.3l6.1-.9" class="b"/><path d="m9 192.2 6.8.8c1.4.1 3 .7 4.4.6h37.2c3.8 0 7.6.2 11.3-.5 4-.5 8.1.4 12.1.5h52c1.8-.4 3.5-1.4 5.2-2a63 63 0 0 0 21.7-14c3.4-2.9 6.9-6.1 11.3-7.4 1.6-.4 3.5 0 5.2.2q3.4.4 6.9.5" class="b"/><path d="M9 187.2q5.1.5 10.3.7c2.3.2 4.7.8 7 1H54c2.6.3 5.2-.6 7.8-1.1q4.6-1 9.5-1 5.3.3 10.4 1c1.7.3 3.5 1.1 5.2 1.1H132l11.2-5.7c5.4-2.8 10-6.7 14.8-10.5 3.7-2.8 7.5-6 12-7 2.1-.5 4.2 0 6.2.6l6.9 1.8" class="b"/><path d="M9 182.8q5.5.3 11.2-.3h10.4c6.3.2 12.7-.5 19-.3 4.6 0 9.3-.5 14-.4 6 .2 12 1.7 18.1 2.4h51.1l1.8-1 6-3.5c5.2-2.6 10-6 14.8-9.4 4.4-3 9.2-6.4 14.7-6.8q3.2.1 6 1.3l7 2.5" class="b"/><path d="M9 178.7c4.3-.2 8.6-1.1 13-1.7 7.7-.8 15.5-2 23.3-2.3a76 76 0 0 1 26 4.8h63.3c2.6-1.3 5-3.2 7.8-4.5 4.7-2.3 9.2-5.3 13.8-7.8 5-2.7 10.8-5 16.5-3.5 3.5 1 6.9 2.7 10.4 3.7" class="b"/><path d="M9 174.2q5.5-1.6 11.2-2.7 5.6-.8 11.3-1.5c5.1-.6 10.3-1.6 15.6-1.6q7.6 0 14.7 2.9 3.9 1.6 7.8 3.5H138l6.1-3c6.6-2.9 12.8-7 20-8.4a19 19 0 0 1 8.6.2c3.4 1.1 6.8 2.5 10.4 3" class="b"/><path d="M9 169c9.3-5.6 16.6-3.9 26.8-5 16.3-2.3 21-2.8 35.5 6 15.9.3 31.8 0 47.7.1h28.6l4.3-2q4.2-2.2 8.7-4c11.3-4.2 12.6.5 22.5.4" class="b"/><path d="M9 164c8.2-6.7 12.8-4.5 22.4-4.3q5.7 0 11.3-1.5c12.1-3.1 18.2-2.3 28.6 4.7 1.4.8 2.9 1.9 4.3 2.5h80.6q3-1.6 6.1-3c10.5-4.4 11.3.5 20.8-1.5" class="b"/><path d="M9 160c7.5-6.7 10.8-5.1 19.8-4q5.8.7 11.3-1.2c7-2.3 14.2-6.3 21.7-4.7 5.5 1.3 9.9 5.1 14.7 7.9 1.9 1.1 4.1 1.6 6 2.5 1.4.4 3 .1 4.4.2h73.7c.8 0 1.8-.7 2.6-1q1.6-.9 3.4-1.5 2.6-1 5.2-1 2.2.2 4.4.4 3.5-.1 6.9-1.5" class="b"/><path d="M9 156c1.2.2 2.4-.6 3.4-1.3q4-2.4 8.7-1.9c6.7 1.1 11.7 2.3 18.2-.9 4-2 7.9-4.5 12-6.3 3-1.4 6.3-2.7 9.6-2.7 5.6 0 10.2 3.5 14.7 6.3 1.9 1.3 4 2 6.1 3q3.1 1.7 6 3.8H164q2.6-1.3 5.2-2.1 3-.7 6.1-.4c2.7-.2 5.4-1.4 7.8-2.5" class="b"/><path d="M9 151.3h23.3c1.4 0 3.1.3 4.3-.6 3.4-1.7 6.4-4.3 9.6-6.4q3.8-2.4 7.8-4.6c7-4.2 12.5-3.2 19 1.1l5.2 3.1q1.8.8 3.5 1.5 3.7 2.2 7 5c.3.3 1.2.8 1.7 1h78q2-.8 4.3-1c3.8.2 7.2-1.6 10.4-3.4" class="b"/><path d="M9 146.6h26.8c1.4 0 3 .2 4.3-.2q3.4-2.9 7-5.6 4.6-3.2 9.5-6c7-4 12.6-1.6 19 2.3q3 1.6 6 2.8 3.8 2.1 7 5c.8.5 1.7 1.4 2.6 1.7h89.3c.9.2 1.9-.5 2.6-1" class="b"/><path d="M9 141.9h32q1.3 0 2.6-.2 1.6-1.6 3.4-2.7c5-3 9.3-7.2 14.8-9.3s11.3.5 16.4 2.8c5.6 1.6 9.4 6.2 14 9.4H183" class="b"/><path d="M9 137.2h35.4c1.3 0 2.5 0 3.5-.9l3.5-2.2c3.4-2.5 6.6-5.5 10.4-7.4 4-2.2 8.7-2.4 13-1 2.6 1 5.4 1.7 7.8 3 3.8 2.4 6.7 6 10.4 8.5H183" class="b"/><path d="M9 132.5h38c1.2 0 2.6 0 3.5-.9 5.6-3.8 10.5-9.3 17.3-10.8 4.8-.9 9.6.7 14 2.5 4.1 2.4 7.5 6 11.2 9.1q45 .2 90.1 0" class="b"/><path d="M9 127.8h38q2 .2 3.5-.7c5.6-3.6 10.6-9 17.3-10.3 5-1 10.4.6 14.8 3 3.7 2.2 6.9 5.4 10.4 8h90" class="b"/><path d="M9 123h37.2q1.8-.7 3.4-1.6c3.3-1.9 6.3-4.2 9.6-6 7.7-4.6 13.8-3.2 21.6.1 4.1 2 7.6 5 11.3 7.6h91" class="b"/><path d="M9 118.4h28.5q2.2.1 4.3-.2 4.3-2.6 8.7-4.8c2.8-1.5 5.7-3.3 8.7-4.5 7.2-3.1 13.2-.7 20 2.3 4 1.5 7.5 4 11.2 6.2l1.7 1h91" class="b"/><path d="M9 113.7h25.9c1.4-.1 3.2.3 4.3-.8 3-2 6.2-4.3 9.6-5.7 2.9-1.3 5.7-2.9 8.6-4 8.3-3.3 14.4 0 21.7 3.5 5.3 2.1 10 5.5 15.6 7H183" class="b"/><path d="M9 109H33c1.5-.1 3.3.3 4.4-.8q4.1-3.1 8.7-5.5l8.6-3.7c7.1-3.3 13-3.2 20 .3l8.7 4c4 2 8.4 3.8 13 4.3 4.3.6 8.7 0 13 .4q2.2.4 4.3 1h59c1.4.1 2.8-.6 4.2-1q3-.6 6.1 0" class="b"/><path d="M9 104.3h23.3q1.8.1 3.5-.3 7-4.2 14.7-6.8c7.8-3.4 13.8-7.4 22.5-4.2 8 2.8 15.6 8 24.3 8.2 3.5.2 7-.3 10.4-.2q3 .2 6 1 3.1.5 6.1 1.3c1.1.3 2.4 1 3.5 1h50.3c1.2.1 2.3-1 3.4-1.3q3-1.1 6.1-1.2" class="b"/><path d="M9 99.5h25q5.6-1.6 11.3-3.4 2.7-.7 5.2-1.5 2.8-1.2 5.2-2.6c6.9-4 13-6.2 20.8-3.2 6.8 2.5 13.4 6.4 20.8 6.2 3.5 0 7-.5 10.4-.5 2 0 4 .6 6 .8 3.2.2 6.5.2 9.6.9 2.8.6 5.4 2 7.8 3.3h44.2q3.6-2.2 7.8-3.5" class="b"/><path d="M9 94.8h10.3q4.3-.4 8.7-.7c6.6-.3 13.4-.4 20-1.7s11.6-6.6 18.1-8.2c8.8-2.7 16.7 3.5 25.1 4.6 6.1 1 12.2-1 18.2-.8l4.4.6h5.2a25 25 0 0 1 15.6 6.2h38.1c1.3 0 2.4-1 3.5-1.6a50 50 0 0 1 6.9-3.5" class="b"/><path d="M9 90.1h3.4q1.3-.7 2.6-1.2a27 27 0 0 1 6-1.6c8.4-1.4 16.8 1 25.2 1 4.7.2 9-2 13-4.1 4.3-2.2 9-4.2 13.8-4.5 3.6-.2 7 .8 10.4 1.4q6 1 12.2.8c3.7-.1 7.5-.6 11.3-.4 2.6.1 5.1 1 7.7 1.4 8.7.7 13.7 2 20.8 7.2h18.2q8.3.2 16.5 0a46.6 46.6 0 0 1 13-7.2" class="b"/><path d="M9 85.4c2.3-.5 4.5-1.9 6.8-2.7a51 51 0 0 1 9.6-2.7q6-.8 12.1.5c4 .8 8 2 12.1 2 3.9-.2 7.7-1.4 11.3-2.7 5-1.9 10.2-4.2 15.6-4.8 2.6-.3 5.2 0 7.8-.2 6.3-.6 12.8-1.6 19-.2 3.7.6 7 2.2 10.5 3.4q4.3 1.2 8.6 2a50 50 0 0 1 12.2 4.6c.7.4 1.7 1 2.6.9h29.4c2-1.9 3.9-4 6-5.4a37 37 0 0 1 10.5-4" class="b"/><path d="M9 80c6-1.3 11.4-4.8 17.2-7 7.2-2.7 13-.7 20 1.4q9.2 2.2 18.2-.2c4-1.2 8-3.1 12.1-4.4 2.2-.7 4.7-.8 7-1.5 5.2-1.7 11-3.5 16.4-1.6 4.4 1.3 8.2 4.1 12.1 6.4q5 2.6 10.4 3.6 5.7 1 11.3 2.2l4.3 1.2c.8.3 1.8.8 2.6.6h22.6c3.2-2.6 6-5.9 9.5-8.1q4.9-2.7 10.4-3.1" class="b"/><path d="M9 74.4a23 23 0 0 0 10.3-3.7c5.3-3.4 10.7-8 17.3-7.7 4.9.2 9.3 2.6 14 3.7 8.6 3 14 3.4 22.4-.6l5.2-2.3q3.7-1 7-2.6c6.8-3.4 12-3.5 18.2 1.3 7.7 6.2 11.6 11.3 22.5 11 4.6-.1 9.3-1 13.9-.4 3 .4 5.8 2 8.6 2.9q5.3.2 10.4-.1c5.3-2.2 9-6.9 14-9.7q4.8-2.5 10.3-2.6" class="b"/><path d="M9 67.9c4 0 8-1.7 11.2-4.2 5.5-4.2 11.5-10.1 19-8.7 3 .5 5.9 1.9 8.7 2.8 6.7 2.2 12.6 6.6 20 4.8 3.3-.7 6.4-2.3 9.5-3.6q3-1 6-2.3c6.8-3.7 11.8-5.1 18.2.2 4.3 3.3 7.5 8 12.2 10.7 7.2 4.4 14.4.7 21.6-1.4 7.7-2.5 12 2.7 19 3.4 7.2.6 12.5-5 18.3-8.2q5-2.2 10.4-3" class="b"/><path d="M9 60.1c8.4-.4 13-6 19.8-9.9 8-4.4 14-.8 21.7 1.8 5.3 2.2 10.5 5.6 16.5 5.3 3.5 0 7-1.3 10.4-2.3l4.3-1 4.3-1.8c11.1-5 16.8 3.2 24.3 9.8 8.3 7.4 15.6 3.2 24.3-.7 4.3-2 7.7-2.2 12-.4 9.3 3.9 14 3.5 22.6-1.6a65 65 0 0 1 13.9-5.2" class="b"/><path d="M9 52.2a41 41 0 0 0 10.3-2.7c3.8-1.8 7.3-4.2 11.3-5.7a21 21 0 0 1 13.9-.1q3.9 1 7.8 2.5c5 2.4 10 5.2 15.6 5.8q4.7.3 9.5-.2c2-.1 4 0 6-.5 7.4-1.8 12.4-2.6 19.1 1.8 4.5 2.6 10.4 9.3 15.6 8.8h7c1.4 0 3-.8 4.3-1.3 2.8-1.3 5.7-2.9 8.6-4 3.3-1.3 7-1 10.4-.3 5.2 1 10.6 1.2 15.6-.3q4-1.2 7.8-2.5l11.3-2.8" class="b"/><path d="M9 45.4c3.6-.5 7.5-.5 11.2-1.4 5-1.4 9.6-3.9 14.7-4.9 9.6-2 17.4 1.6 26 5Q69 47 77.4 48c2.5.5 5.2 1.1 7.8 1 5 0 10 0 14.7 1.7 4 1.4 7.6 3.5 11.3 5.5.7.3 1.7 1 2.6 1h15.6c1 0 2.4.2 3.4 0l2.6-1.3c2.5-1.1 5.1-2.4 7.8-3 5.8-1.2 11.6-1.6 17.4-2.3 7.5-.9 15-1.2 22.5-2" class="b"/><path d="M9 40.4c3.7 0 7.4 1 11.2.8 11-1 19.6-8.4 31.2-5 7.7 1.9 15.7 3.3 23.4 5.4 3.8 1.1 7.4 3.1 11.3 4 8 2.2 16.4 3.8 24.2 6.9H138c1.2.1 2.4-.8 3.5-1.2l3.5-1.6c4.6-2 9.5-4.1 14.7-4.4 4-.2 8.1.6 12.1 1.2q5.6.9 11.3 1.2" class="b"/><path d="M9 37c4.2 1.2 8.4 3.2 13 3 8.3-.3 15.1-6.3 23.3-7.5 2-.3 4 .2 6 .3q4 .3 7.9.1c5.8-.1 11.9-.2 17.3 2.2 3.3 1.4 6.3 3.6 9.5 5.3q6.6 3.8 14 6.2 2 .8 4.2 1.2h38.2c.9.1 1.8-.6 2.6-1q1.6-1.2 3.4-2a19 19 0 0 1 15.6-2.4c3.8 1.2 7.4 3.2 11.3 4 2.5.7 5.2 1.6 7.8 1.4" class="b"/><path d="M9 34.7c4 2 8.2 4.3 13 4 8-.4 14.2-6.3 21.6-8.8q2-.6 4.3-.7 3 .3 6-.1c7.7-1.2 15.9-5.3 23.5-1.7 4.4 2.3 8 5.8 12.1 8.6q3.7 2.8 7.8 5c1.4.8 2.8 1.8 4.3 2h39c1.4 0 3.2.4 4.4-.4q3-1.6 6-2.8c2.8-.9 6-.9 8.7 0 2.5.7 4.6 2.3 7 3.3H183" class="b"/><path d="M9 32.3c3.7 1.7 7.8 3.4 12 3 8.3-.7 14.9-6.6 22.6-9 2.2-.9 4.6-.7 6.9-.7q3-.3 6-1.3c6.7-2.2 13.9-6.4 20.9-3.3 2.8 1.2 5.3 3.4 7.8 5.4q5 4.4 10.4 8.4c6.2 4.4 4.8 3.5 12.1 3.6h22.5q5.3.2 10.4-.1 3-1.3 6.1-2.2a16 16 0 0 1 13 2q1.2.4 2.6.3h20.8" class="b"/><path d="M9 30c10 2.4 16.1-.6 25-4.6q5.4-2.6 11.3-3.7c2.9-.3 5.9.1 8.7-.8 5.8-1.6 11.2-5 17.3-5.4 4.7-.4 8.7 2 12.1 5q5.3 4.1 10.4 8.2 3.7 2.9 7.8 5h32.1l1.7-.7q3-1.3 6.1-2 4.8-.9 9.5 0 3.3 1 6.1 2.6h26" class="b"/><path d="M9 28.3q6.2-1 12-3.2c6.6-2.6 13-6.2 20-7.4 3-.6 6.3-.5 9.5-.6q3.5-.6 7-1.6C64.2 13.2 72.1 10 79 14c7.9 4.9 14.7 11.5 23.4 15h23.4c3.2-1 6.3-2.4 9.5-3.1 3.4-1 7-.7 10.4 0q3.1.7 6 1.8c1.2.4 2.4 1.3 3.6 1.3H183" class="b"/><path d="m9 24.3 5.1-.1 3.5-1.8c4.7-2.3 9-5.4 13.8-7.4q5-2.1 10.4-2.4c3.2-.2 6.4 0 9.6-.3 8.8-1.2 18.1-6.1 26.8-1.9 8.3 4.6 15.9 11 25.2 13.6 1 .4 2.3.2 3.4.3h13.9c3.7-1.3 7.4-2.9 11.3-3.5a20 20 0 0 1 10.4.9q3.8 1.6 7.8 2.5H183" class="b"/></svg>