<svg xmlns="http://www.w3.org/2000/svg" id="a" width="1920" height="2400" viewBox="0 0 192 240"><defs><style>.b{fill:none;stroke:#fff;stroke-miterlimit:10;stroke-width:.4px}</style></defs><path d="M0 0h192v240H0z" style="stroke-width:0"/><path d="M8.1 228c4.6-1.8 8.7-1.8 13.1.3l2.6 1.2h31.5q1.4 0 2.6-.2l2.7-1q4.6-1.5 9.6-1.4c3.5 0 7 .7 10.5.4 6.4-.9 12.6-3.9 19.2-2.7 4.1.6 8 2.5 11.4 4.7 2.5.4 5.3 0 7.9.2h64.7" class="b"/><path d="M8.1 224.6c4.6-2 8.5-1.9 13.1.1h38.5c2.3.2 4.7-.3 7-.3s4.7.4 7 .3h13.1c6.7-1.8 13.6-3 20.1 0h77M8.1 220H184M8.1 215.2H184M8.1 210.5H58c2.5-.5 5.1-1.5 7.8-1.4q3.7.1 7 1.4H184M8.1 205.5q3-.7 6.1-.4c1.5.1 3 .7 4.4.6H37q7.9.1 15.7 0c2.6-1 5.2-2.4 7.9-3.3 3.6-1.3 7.7-1.5 11.3-.2q3.7 1.3 7 3.4c3.5.3 7 0 10.5.1H184" class="b"/><path d="M8.1 198.7q3.5-.5 7 0c3.2.7 6.4 1.7 9.6 2.2q7.5.2 14.9 0c3 .2 5.8-.5 8.7-.7 3.5-.5 6.5-2.3 9.7-3.7 4.3-2 9.3-3.1 14-1.5 3.7 1.3 7.1 3.7 10.4 5.8 2.3.4 4.7.1 7 .2H184" class="b"/><path d="M8.1 192.1c6.8-.7 13.4 2 20.1 2.5 7.3.8 14.7 0 21.9-1.3 3.6-1 7-3 10.5-4.2 5-2.1 10.8-1.8 15.7.7 4 1.8 7.5 4.3 11.4 6.3 6.4.3 12.8 0 19.2.1h77" class="b"/><path d="M8.1 186.4c6.2-.1 12.3 1 18.4 1.6a78 78 0 0 0 22.7-.4c4.8-1.2 9.2-3.6 14-4.7 6.2-1.7 12.7-.4 18.4 2.2 4.4 2 8.6 4.5 13 6.3q8.4.2 16.7 0h72.6" class="b"/><path d="M8.1 181.7c5.8.8 11.7.7 17.5.9 6.1.2 12.2 1 18.4.6 7.4-.6 14.4-3.8 21.8-4.6 7-.9 14.5-.5 21 2.4 4.1 1.7 8.1 4 12.2 5.6 9 .3 18.1 0 27.2.1h57.7" class="b"/><path d="M8.1 177.7a32 32 0 0 0 7 1.2l5.3-.3q6-.5 12.2-.2c5 .2 10 .9 14.9 0 6.8-1.7 14-2 21-2.5 4.3-.2 8.7-.8 13-.8 3 0 6 1 8.8 2.1q3.6 1.5 7 3.4c1.1.4 2.3 1.4 3.5 1.4H184" class="b"/><path d="M8.1 173.5c2.5 1 5.2 1.9 7.9 1.9 4.6-.3 9.3-1.1 14-1.1 6.7 0 13.5 1.2 20-.6 6.2-1 12.3.2 18.4 0 4.5 0 8.8-1 13.2-1.8a21 21 0 0 1 9.6 1.3 62 62 0 0 1 8.7 4h84" class="b"/><path d="M8.1 168a19 19 0 0 0 7.9 2.7c4.6-.1 9.3-.8 14-.7 4.6 0 9.3.7 14 .6q3-.2 6-.9 2.7-.2 5.3-.2c4.1.2 8.2.8 12.3.8q6.3 0 12.2-1.9c5.2-1.6 10.8-.4 15.7 1.5l4.4 1.8c.8.4 1.8 1 2.6.8h21q3-.6 6.1-.6t6.2.6H155q3.1.2 6.1-.7 4.3-1.2 8.8-1.3c3.2 0 6.4 1.2 9.6 1.9q2.2.2 4.4 0" class="b"/><path d="M8.1 163.4c6.4 3.8 10.5 2.8 17.5 3q4.4 0 8.7.7 3.5.7 7 .7h13.2c4.6 0 9.3 0 14-.9q4.4-.8 8.7-2.3a29 29 0 0 1 10.5-2.3c6.3 0 12.3 2.5 18.3 4q4.8 1.2 9.7.2a45 45 0 0 1 26.2.5c6.6 2.4 13.1-1.6 19.2-3.7 9.7-3.5 13.7-1.1 22.8 1.7" class="b"/><path d="M8.1 159.8a33 33 0 0 0 16.6 3.2h42.9c1 0 2.5.2 3.5-.4l6.1-2.9a35 35 0 0 1 13.1-3.6c7.1-.5 14 2 21 2.1 5.5 0 11-.7 16.6-.4 5.4.3 10.6 1.6 15.8 3 4.2.7 8.4-1.1 12.2-2.6 11.8-5 16.6-4.2 28 1" class="b"/><path d="M8.1 157.1q1.3.7 2.6 1 1.8.2 3.5.1H72c1-.2 1.9-1 2.7-1.4a44 44 0 0 1 18.3-6.9c5.2-.7 10.5-.2 15.8.1q6.1.1 12.2.7a160 160 0 0 1 17.5 3.2 21 21 0 0 0 14.9-.2c12.4-4.2 18.9-2.8 30.6 2.7" class="b"/><path d="M8.1 153.5h66.5q4-3 8.7-4.9 5.2-2.2 10.5-3.6a73 73 0 0 1 20.1-1.1c6.3.6 12.3 2.8 18.4 4.4l9.6 2.3q3.9.8 7.9 0c8-1.4 13.8-2 21.8 1 2 .5 4 1.6 6.1 2h6.2" class="b"/><path d="M8.1 148.8H79q1.5-.2 2.7-1l3.5-1.6q5.4-2.5 11.3-4.1t12.3-1.8q5.8-.5 11.3 1.1c10.3 2.8 20.6 7.5 31.5 6.2a39 39 0 0 1 7.9.2c1.7.1 3.5 1 5.2 1H184" class="b"/><path d="M8.1 144h80.5a57 57 0 0 1 24.5-5.8q4 .1 7.8 1.3c5.3 1.5 10.4 3.3 15.8 4.4 3.7.3 7.6 0 11.3.1H184" class="b"/><path d="M8.1 139.3H93q1.6-.6 3.4-1.5 3-1 6.2-1.7a51 51 0 0 1 14.8.2c3.3.8 6.4 2.3 9.6 3H184M8.1 134.5h86.6c1.7-.4 3.5-1.4 5.2-1.7q3.5-.6 7-.4c2.6.2 5.4 0 8 .6l4.3 1.4q2.2.1 4.4.1h60.3M8.1 129.8h87.5q2.1-.8 4.3-1c3.6-.5 7 .6 10.5 1H148c2.8-1 5.8-1.9 8.8-1.8q2.2 0 4.3.6c1.2.3 2.4 1 3.5 1.2H184M8.1 125h132.1q3.5-1.1 7-2.7c10-5 14.7-3.2 23.6 2.7h13" class="b"/><path d="M8.1 120.3h103.2c8.6-.1 17.8.2 26.2-.2q3-2.1 6.2-3.5l6-3c11.3-5.2 16.4 1.7 25.4 6.7h8.8" class="b"/><path d="M8.1 115.5h126c2.2-1.8 4.5-3.9 7-5.5q5-2.8 10.4-4.5c5-1.5 10 .3 14 3.2 3.5 2.2 6.6 5.5 10.5 6.8h7.9" class="b"/><path d="M8.1 110.8h117.2c7.3 0 4.8.4 10.5-4.2q4.6-4.3 10.5-6.5c12.5-5.4 18.5 5 28 10.7h9.6" class="b"/><path d="M8.1 106H44c1.4.2 3-.5 4.3-.6q1.9 0 3.5.6h77c7.3-5.3 14.9-12.7 24.5-12.3 5 .5 9.3 3.8 13.1 7l4.4 3.4c1 .7 2.2 2 3.5 2h9.6" class="b"/><path d="M8.1 101.3H128c.9 0 1.9-.8 2.6-1.2l3.5-1.9q6-3.1 12.3-6c12.2-5 18.3 4 28 8.8 1 .4 2.3.2 3.4.3h6.2" class="b"/><path d="M8.1 96.5h124.2q2.7.2 5.2-.9 4.6-1.5 8.8-3.8c17-9.2 22.2 4.6 37.6 4.7" class="b"/><path d="M8.1 91.8h139c2.5-1.2 4.6-3 7-4.2a20 20 0 0 1 16.7-1.3q6.5 2.2 13 4" class="b"/><path d="M8.1 87h138.2c12 0 5.6.8 14.8-5.2 8-5 15.4-1.3 22.8 2.6" class="b"/><path d="M8.1 82.3h149.5c10-10 14.8-10.5 26.3-2.2" class="b"/><path d="M8.1 77.5h151.3c.5-.1 1.4-.7 1.7-1.2l2.7-2.1q7.4-5.4 14.8 0c1.8 1 3.4 2.5 5.3 3.3" class="b"/><path d="M8.1 72.8H162c2.2-1 4.5-2.2 7-2.3q3.1-.2 6.1 1c1.1.5 2.3 1.5 3.5 1.3h5.3M8.1 68h39.4c1.4 0 3-.7 4.3-1a27 27 0 0 1 7-.3q3.6.3 7 1.3H184M8.1 63.3h35c1.5.1 3-1 4.4-1.3q4.2-1.5 8.7-2.2c6.3-1.1 12.7.7 18.4 3.5h109.3M8.1 58.5h34.1q7-3.5 14.9-5c5.3-1 11 0 15.7 2.6q2.3 1.2 4.4 2.4h75.3l3.4-.8q2.6-.4 5.3.2c1 .1 2.3.7 3.5.6h19.2" class="b"/><path d="M8.1 53.8h32.4l2.6-1.6A42 42 0 0 1 61.4 47c6.3.2 10.8 3.6 15.8 6.8h69c1 0 2-.8 2.7-1.2q1.7-1 3.5-1.6 4.4-1.6 8.8-.3 2.2.7 4.3 1.9c.8.4 1.8 1.2 2.6 1.2H184" class="b"/><path d="M8.1 49h23.6q2.7.2 5.3-.1l3.5-1.9c6.6-3.7 14.9-7.8 22.7-6q4.8 1.4 8.8 4.4l3.5 2.7c.4.4 1.1 1 1.7 1h69.1l1.7-1.2c9-6.5 14.3-5 22.8 1.1h13.1" class="b"/><path d="M8.1 41.5A31 31 0 0 0 19.5 44c5.3.4 10.7 0 15.7-2 4-1.4 7.6-3.5 11.4-5.2 13.7-6.2 20.3-2 30.6 7.6H148c10.7-8.7 14.5-7.5 25.4 0h10.5" class="b"/><path d="M8.1 34q5.7.7 11.4.8c4.6.4 9.4.7 14-.2 6.7-1.3 12.7-4.8 19.2-6.7 12.5-3.7 19.1 5 28 11.7h68.2c1.6-.6 2.9-2.2 4.4-3q3-2.4 7-2.8c3.4-.3 6.7 1.4 9.6 3.2 1.7.9 3.2 2.7 5.2 2.6h8.8" class="b"/><path d="M8.1 27q5.6-.9 11.4-.9c4.6.3 9.3 1.1 14 .8 7.3-.2 14-3.6 21-5.1 7.2-1.7 14.1 1 20 5.1q5.7 3.4 10.6 7.9h63.8c5.8-4.5 11.4-7.2 18.4-3.4l3.5 2c.7.5 1.6 1.4 2.6 1.4h10.5" class="b"/><path d="M8.1 21c9-4 14.5-2 23.6-1q6.1.8 12.3-.4c2.6-.5 5.2-1.4 7.8-1.9 6.5-1.2 13.2 0 19.3 2.3q5.3 2 10.5 4.3c2.6 1.5 4.7 3.8 7 5.7h57.7q2.3-1 4.3-2c3-1.6 6.3-2.9 9.7-2.7a18 18 0 0 1 7.8 2.5c1.7.8 3.3 2.5 5.3 2.2h10.5" class="b"/><path d="M8.1 16.7c9.4-5 15.6-3 25.4-1.5q6.6.9 13-.3c8.3-2.4 16.5 1.2 24.6 2.7q3.5.6 7 1 3.2-.1 6.1 1.4c2.6 1.4 4.6 3.7 7 5.3h42Q137 24 141 24a23 23 0 0 0 7.8-1c4.2-1.4 8.7-2.6 13.1-1.6a27 27 0 0 1 8 3.3l.8.5h13.1" class="b"/><path d="M8.1 13.6C20.8 8 27.8 11.8 40.5 12q4.3 0 8.7-1 3.1 0 6.1.9c8.2 2.8 14.7 6.3 23.6 4 4.6-1.6 9.3.7 13.2 3.2l1.7 1.2q2.2.3 4.4.1h21c2-.9 4-2.3 6-3.1 4.2-1.9 8.9-2 13.2-1 2.6.6 5.2 1.6 7.9 1.6 7.4-.2 12.8-2 20 1.4l2.7 1.1h14.9" class="b"/></svg>