<svg xmlns="http://www.w3.org/2000/svg" id="a" width="1920" height="2400" viewBox="0 0 192 240"><defs><style>.b{fill:none;stroke:#fff;stroke-miterlimit:10;stroke-width:.4px}</style></defs><path d="M0 0h192v240H0z" style="stroke-width:0"/><path d="M8.7 228.7h5.2c1 0 2.4.2 3.4-.2 9.7-4.3 15.6-8.3 26.1-3.1q3 1.5 6 3.1 2.2.4 4.4.2h67l1.7-.7a16 16 0 0 1 6-1.6q4.3.2 7.9 2.3h47" class="b"/><path d="M8.7 224c1.6-.1 3.5.3 5.2-.3 3.1-1.4 6.5-2.4 9.5-4 4.4-2.3 9-4.4 14-4.5 6.3.1 12.4 3 17.3 7C57 224 57 224 60 224h60c1.2 0 2.3-1 3.5-1.4q3-1.2 6-1.4 4.3.2 7.9 2.3l.8.5h45.2" class="b"/><path d="m8.7 218.5 10.4-2.2q3.5-1.1 7-2.8c7.3-3.5 16.2-7.4 24.3-3.4 4.3 2.2 7.7 6 11.3 9.2h59.9c1.2 0 2.4-.8 3.5-1.2q2.6-.8 5.2-.8 4.1 0 7.9 1.8c1.6.4 3.5.1 5.2.2h40" class="b"/><path d="M8.7 209.6a42 42 0 0 0 13.9.4c4.2-.7 8.2-2.4 12.1-4 5.2-2 11.1-4.7 16.5-2.3 3.4 1.5 6.2 4.2 8.7 6.8 4.4 4.3 2.4 4.2 8.7 4H127q2.5-.6 5.2-.5 2.6.1 5.2.6h46" class="b"/><path d="M8.7 200.2c7.8 3.4 16.7 6 25.2 3.5 4.7-1.2 9-3.8 13.9-4.5 5.6-.6 10 4 13.9 7.6 3.7 3.9 2.6 3 7.8 3H178c1.8.3 3.5-.8 5.2-1.2" class="b"/><path d="M8.7 191.2c3.4 1.8 6.8 3.8 10.4 5.2 3 1.4 6.2 3.2 9.5 4.1 6.5 2 12.3-.8 18.3-2.8 7.1-2.5 13 3.6 18.2 7.4h113c1.9.2 3.5-1.3 5.2-1.8" class="b"/><path d="M8.7 184.1q3 1.3 6 3a46 46 0 0 1 7.9 4.5c8.2 6 13.4 8.3 23.4 4.6 6.4-2.6 11.9-.5 17.4 2.9.8.4 1.7 1.1 2.6 1.3h65.2c2.9.1 5.8-.4 8.7-.4 2.6 0 5.2.5 7.8.4H179c1.5.1 3-.9 4.3-1.2" class="b"/><path d="M8.7 179.1q5.5 1.5 10.4 4.4c7 4.7 13.2 13 22.6 12 2.6-.3 5.3-1.3 7.8-2.1a24 24 0 0 1 14.8 1.3c1 .3 2.3 1 3.4 1H126c2.6-.9 5.2-2 7.9-2.4a29 29 0 0 1 9.6-.3c2.4.4 4.6 1.8 7 2.7h32.9" class="b"/><path d="M8.7 176.7q3 .4 6 1.6a20 20 0 0 1 6.1 3c3 2.2 5.8 5 8.7 7.3q1.6 1.4 3.5 2.4h18.2a25 25 0 0 1 5.2-1c3.8-.3 7.6.3 11.3 1h13.1q3-.6 6-.6 2.7.1 5.3.6h29.5c1.8-.6 3.5-1.8 5.2-2.5q4.6-2.3 9.6-3 5.9-.4 11.3 2.3l4.3 2.1q1.3.8 2.6 1h28.7" class="b"/><path d="M8.7 176.7q4.8 1.1 9.5 2.5c3.6 1.5 6.5 4.3 9.6 6.6 1 .7 2.3.4 3.5.5h45.2c2-.2 4-1.4 6-2q4.3-1.5 8.7-1 4 .5 7.8 1.7c1.4.4 3 1.2 4.4 1.3h9.5c1.7-.2 3.7.3 5.3-.3 6-3 12-7.4 19-7 3.4 0 6.6 1.4 9.6 2.6l11.3 4.4c1 .4 2.4.2 3.5.3h21.7" class="b"/><path d="M8.7 178.1q3 1.2 6 2c1.7.4 3.6.5 5.2 1.2q1.3.3 2.7.2h53.8c1.2.2 2.5-.7 3.5-1.2q1.7-1.1 3.5-1.9 6.6-3.2 14-1.8c4.6.8 9 3 13.8 3.2 3.4.1 6.6-1.4 9.6-2.8 5.3-2.6 11.3-5.2 17.4-3.7 3.6.9 6.8 3 10.4 4 5.4 1.5 11.1 2.5 16.5 4.2h18.3" class="b"/><path d="M8.7 176.8h67.7c.8 0 2 .1 2.6-.3 3.6-2.5 7.2-5 11.3-6.4 6-2.1 12.3-.4 18.3.9q4 .8 7.8-.4c5.4-1.5 10.8-4 16.5-3.4q3.7.4 7 1.9c2 .9 4 2.2 6 2.9 3.7 1.2 7.6 1.2 11.4 1.5q6.9.5 13 3.3h13" class="b"/><path d="M8.7 172.1h69.5l4.3-3.2q4-3.1 8.7-5c4.4-1.8 9.3-1.9 14-1.2a28 28 0 0 0 12.1 0c10.7-2.8 16.3-3 26 3q4.7 2.1 9.6 2c7.6-.3 14.4-.4 20.9 4.3q4.8.1 9.6.1" class="b"/><path d="M8.7 167.4h66q1.3-.4 2.6-1c4-2.4 7.8-5.4 12.2-7.2 7.5-3.3 14.7-2.5 22.6-2.2 5.3-.3 10.3-3 15.6-3.2 4.3-.3 8.5 1 12.2 3 2.5 1.4 5 3.1 7.8 3.7 5.7 1.3 11.7 0 17.4 1.2q3.7.7 7 2.5 2.4 1.7 5.1 3c2 .5 4.1 0 6.1.2" class="b"/><path d="M8.7 162.7h59.9q1.8.1 3.5-.5c4.8-1.8 9.1-4.7 14-6.5 6.8-2.7 14.3-3.8 21.6-4.3 2.3-.2 4.8 0 7-.8 4.9-1.4 9.6-4 14.8-4q5 .1 9.5 2.5c2.6 1.4 5 3.4 7.8 4.3 5 1.8 10.5 1.3 15.7 1.9q5 .4 9.5 2.6c3.6 2 7.2 4.1 11.3 4.7" class="b"/><path d="M8.7 158h60.8l2.6-1.4a67 67 0 0 1 9.6-4.3c3.6-1.1 7.5-1.7 11.3-2.6 5.2-1 10.4-2.8 15.6-3.9 2-.3 4.2-.4 6-1.1 5.7-2 11.3-5.6 17.5-4.5 4.5.7 8.4 3.5 12.1 6q3.7 2 7.9 2.8c6 1.1 12.3.6 18.2 2.5 4.5 1.5 8.5 4.4 13 5.7" class="b"/><path d="M8.7 153.2h61.7c9-6.5 12.8-4.6 22.6-6.9 5.1-1.3 9.8-4 14.7-6 2-.7 4.2-.9 6.1-1.5q3.9-1.6 7.8-3.1c6.7-2.7 12.6-1 18.3 3.1a26 26 0 0 0 16.5 6.7c4.9.3 10 0 14.8 1.2 4.2 1.2 8 3.7 12.1 5.2" class="b"/><path d="M8.7 148.5H72c6.5-4.5 9.5-3 16.5-4.5q5.1-1.2 9.6-4c3.5-2 6.7-4.6 10.4-6.3 1.6-.8 3.5-1 5.2-1.6q3.4-1.2 7-2.1c7.3-2 13.6 1.9 19 6.4 3.9 3.3 8 6 13.1 6.2 6.4.5 12.8-1.8 19.1-.6 4 .8 7.6 3 11.3 4.5" class="b"/><path d="M8.7 143.8H73c1.7-.6 3.4-1.8 5.2-2.2 2.2-.6 4.7-.6 7-1.2 5-1 9.7-3.7 13.8-6.8 3.7-2.7 7-6 11.3-7.6a48 48 0 0 1 8.7-1.8c10.3-.9 17 8.4 24.3 14 10.2 7.5 19.2-.6 29.6-.1 3.6.4 7 1.9 10.4 2.9" class="b"/><path d="M8.7 139H72c1.5-.5 2.9-1.5 4.4-2 3-1.3 6.4-1.5 9.5-2.6 4.7-1.5 9-4.2 13-7.1 6-4.4 11.2-8.6 19.2-8.3 11.8 1 17.6 13.3 27 19q1 .8 2.5 1h14.8q1.8-.2 3.5-1 2.5-.9 5.2-1.6c4-1 8.1-.8 12.2-.4" class="b"/><path d="M8.7 134.4h61.7q3.3-1.9 7-3.1 9-2.4 17.3-6.7c7-3.4 13.7-8.6 21.7-8.8 8.4 0 14.4 6.9 20 12.3l4.4 4c1 .8 2.1 2.1 3.4 2.3h30.5l2.6-1q3-1.2 6-2" class="b"/><path d="M8.7 129.6H66q5.2-1.4 10.4-2.7c4.5-1.2 8.8-3 13-4.5q7.5-2.7 14.8-4.8c4.9-1.2 9.7-3.4 14.8-2.8 9.7 1.3 15.8 9.8 23.5 14.8H179q1 0 1.7-.7l2.6-1.5" class="b"/><path d="M8.7 125H52q1.8 0 3.5-.3 3-1.2 6-1.4c4.7-.5 9.3.5 14 .3 4.2-.3 8-2.6 12.2-3.7 5-1.6 10.3-2.2 15.6-2.7q5.3-.4 10.4-2c5.2-1.3 10.9-.6 15.7 1.9a66 66 0 0 1 12.1 7.7l2.6.1h37.4q1-.5 1.7-1.2" class="b"/><path d="M8.7 120.2h40.8c7-5 13.5-2.8 20.9-.1 2.5.3 5.2 0 7.8 0h3.5q2.2-.5 4.3-1.2 5.2-1.5 10.4-2.2c3.8-.4 7.6-.3 11.3-.8 2.7-.4 5.3-1.4 7.9-2a25 25 0 0 1 20 3.6l3.4 2.1q1.2.8 2.6.6h36.5c1.7 0 3.6.2 5.3-.2" class="b"/><path d="M8.7 115.5H46c6.8-6 12.9-4 20 0h7.8c10.5-.1 21 .3 31.3-.6 3.6-.1 7-1.3 10.4-2.1 5.2-1.2 10.7-1 15.7 1 1.4.4 2.9 1.3 4.3 1.7h47.8" class="b"/><path d="M8.7 110.8h31.2l1.8-.1 2.6-1.9c1.8-1.2 3.9-2.4 6-2.7 3.1-.4 6.1 1 8.8 2.4 1.4.6 2.7 2 4.3 2.3h120" class="b"/><path d="M8.7 106h26.9l2.6-1.4c10-5.8 12.5-5.2 21.7 1.4h123.5" class="b"/><path d="M8.7 101.3h14.7c2.6 0 5.3.3 7.8-.2C36 99 40.6 95.7 46 95.6c3.3 0 6.2 2.1 8.7 4q1.2 1 2.6 1.7h126" class="b"/><path d="M8.7 96.6h20.8c4.7-2.1 9.4-5.5 14.8-5.3 3.3.2 6.2 2.3 8.7 4.4.9 1 2.2 1 3.4 1h127" class="b"/><path d="M8.7 91.9h19c3.3-1.2 6.3-3 9.6-3.9 3.1-1 6.6-1.2 9.6.1q2.3 1.2 4.3 2.8c1 1 2.2 1 3.5 1H126c3.2-.8 6.3-2 9.6-2.6q4.6-1 9.5-1.4a34 34 0 0 1 15.7.1q4.5 1.5 8.6 3.8 7 .1 14 0" class="b"/><path d="M8.7 86.7q3.4-1.2 6.9-.8c2 .4 4 1 6 .7 5.2-.6 9.9-3.1 14.8-4.4 3.2-.8 6.6-1 9.6.3 2.6 1 4.8 2.9 7 4.5 1 .3 2.3.1 3.4.2H120l3.5-1.7c4.8-2.4 9.6-5 14.7-6.6q6.9-1.7 14-1.7c4.5 0 9 1.4 13 3.3 4.1 2 8.1 4.5 12.2 6.7h6" class="b"/><path d="M8.7 80q4.6-2.3 9.5-1 3.5.5 7-.2c5.4-1 10.8-3.2 16.5-2.6 4 .3 7.3 2.5 10.4 4.8l1.7 1.2q1.3.4 2.7.2h60.8c7.6-3.4 13.6-10 21.7-12.4a48 48 0 0 1 33 5.5q3.4 1.6 6.1 3.9l2.6 2.2 1 .7c.3 0 1.2.2 1.7.1" class="b"/><path d="M8.7 73.8c2.6-1.4 5.7-2.6 8.6-1.8q4.4 1 8.7.4c5.5-.4 11.1-1.5 16.5-.2 3.6.8 6.6 2.9 9.6 4.7 1.5 1.2 3.5.7 5.2.8h60.9c1 0 1.8-.8 2.6-1.3q2.2-1.6 4.3-3.5c4.3-3.5 8.6-7.5 14-9.3 3-1 6.3-.9 9.5-.6q5.3.7 10.4 1.5c12 2 15 3 24.3 11" class="b"/><path d="M8.7 68.7c6.4-3.9 8.1-1.6 14.7-1.1 5.8.5 11.8.4 17.4 2a33 33 0 0 1 5.2 1.9c1.1.4 2.3 1.4 3.5 1.5h72.1c.6-.1 1.4-.8 1.8-1.2l3.4-3.4c4.3-4 8.8-8.7 14.8-9.7 3.2-.3 6.4.3 9.6.7q4.8.7 9.5.8c11.8-.2 13.5.9 22.6 8.2" class="b"/><path d="M8.7 65.3c5-3 6.8-2.6 12.1-1.3q6.6 1.3 13 2.8 1.9.4 3.5 1 1.3.5 2.6.5h85.2c5.5-5.2 10.7-13.2 19.1-12.8 5 .3 9.9 1.3 14.8.9 13.2-1.5 13.8-2 24.3 6.7" class="b"/><path d="M8.7 62.7c2.3-1.3 5-2.5 7.8-2.2l12.1 3q4 .2 7.9 0h91.2c4.5-4 8.5-9.5 14.8-10.5 4-.5 8.1-.2 12.2-.5 15-1.2 16.3-4 28.6 7" class="b"/><path d="M8.7 58.9c.9 0 1.8-.6 2.6-1a13 13 0 0 1 4.3-1c3.8.1 7.6 1.2 11.3 2h93.8c14.6-.3 6.5 1.7 17.4-5.5q3.7-2.1 7.9-3.2 4.7-1.6 9.5-2.7c13.8-3.1 17.9.1 27.8 9" class="b"/><path d="M8.7 54.1q1.3 0 2.6-.2 2-1 4.3-1.4 6.6-.1 13 1.6h96.6c3 0 6.4.3 9.5-.1q5.5-3.9 11.3-7.3c3.3-2.1 6.7-4.4 10.4-5.8 11-4 19.3 5.9 27 12.1" class="b"/><path d="M8.7 49.4h2.6c1.4-.3 2.8-1.3 4.3-1.5q3.5-.5 7-.3 4.9 0 9.5 1.8h104.3q4.6-3 8.7-6.9c3-2.8 6-6 9.6-8.2 6.6-4 12.4-.2 17.3 4.4 3.8 3.4 7.3 7.1 11.3 10.1" class="b"/><path d="M8.7 44.7H12q1.8-.6 3.5-1.4a38 38 0 0 1 7.8-.9q4.1 0 7.9 1.3l2.6 1h101.7q1-.2 1.7-.8l3.5-3c4.7-4 8-9.6 13-13.4 6.9-5.4 12.6-.1 17.4 5.1 3.8 4 7.6 8.2 12.2 11.3" class="b"/><path d="M8.7 40h5.2A25 25 0 0 1 32 40h102.6q6.2-4.7 11.3-10.5c4.2-4.8 10.1-13 17.3-8.8 3.5 2 6 5.2 8.7 8 3.5 3.7 7 7.4 11.3 10" class="b"/><path d="M8.7 35.3h6q4.3-1 8.7-1.2 3.1 0 6.1.7c1.4.6 3 .4 4.4.4h96.4c1.1 0 2.5.3 3.5-.3q5.8-4.9 11.3-10.1c2.5-2.5 5-5.2 7.8-7.1 7.3-5 13.4 1.5 18.3 6.6 3.6 3.6 7.6 7.1 12.1 9.6" class="b"/><path d="M8.7 30.5h6q6-1.2 12.2-1.3 4 .1 7.8 1.3h66.9q15.8.1 31.3 0 4-3.4 7.8-6.9l7.9-6.3c6.5-5.3 11.9-5 18.2.4 5 4.4 10.3 8.7 16.5 11.2" class="b"/><path d="M8.7 25.8H13q2.2-.7 4.4-.9c6.6-.7 13.3-3 20-1.2q2.2.6 4.3 1.4 1.2.7 2.6.7h89.5c3.5-2.5 6.8-5.5 10.4-7.8q3.7-2.7 7.9-4.7c5-2.3 10.3-.6 14.7 2.3q3 2 6.1 4 5 2.5 10.5 3.8" class="b"/><path d="M8.7 21.1c2 .3 4-.9 6-1.2 2.3-.4 4.8-.4 7-1 5.6-1.6 11.4-4 17.4-3.1 4.2.5 7.8 2.9 11.3 5 1 .5 2.3.3 3.4.3h83.5q2.2-1.2 4.3-2.6c3.7-2.1 7.3-4.7 11.3-6.2 6.8-2.6 12.9.3 19.1 2.9q5.5 1.9 11.3 2" class="b"/></svg>