<svg xmlns="http://www.w3.org/2000/svg" id="a" width="1920" height="2400" viewBox="0 0 192 240"><defs><style>.b{fill:none;stroke:#fff;stroke-miterlimit:10;stroke-width:.4px}</style></defs><path d="M0 0h192v240H0z" style="stroke-width:0"/><path d="M10.3 232.2h75.9a114 114 0 0 1 22.2-3.7c3.4.3 6.8 1 10.2 1.1 6.3.4 12.5 1.3 18.8 1.9 3.6.3 7.4 0 11 .7h33.3M10.3 227.6h69c1.3.2 2.4-.7 3.5-1.2q2-1 4.2-1.4c5.6-1.2 11.5-.6 17.1-.2 3.4.3 6.8 1.1 10.2 1.5 4.6.4 9.1.2 13.7.3 4.8.1 9.6 1 14.5 1h39.2M10.3 223h68.2c9.5-8.2 19-6 29.9-2.6 6.6 2.6 12.7 1.5 19.6 1.5q3.4 0 6.8.4c1.7.2 3.4.7 5.1.7h41.8" class="b"/><path d="M10.3 218.3h66.5c1.3-.3 2.4-1.5 3.4-2.3a36 36 0 0 1 5.1-3.8 19 19 0 0 1 17.1-1.4q4.8 1.8 9.4 4c5.7 2 12 .4 17.9 1q3.5.3 6.8 1.2c2 .6 3.8 1.6 6 1.3h39.2" class="b"/><path d="M10.3 213.7h12c1-.1 2.3-.8 3.4-1q3-1 6-.7c2.6 0 5.1 1 7.6 1.7H76c3.6-2.6 6.6-6 10.2-8.7 8.2-6.5 14.6-5.2 23 0 10 6.2 17.7-.5 31.6 7.8l1.7.9h39.2" class="b"/><path d="M10.3 209h6.8c1.4 0 3 .4 4.3-.3q2.8-1.8 6-2.9 4.6-1.3 9.3 0c3.2.8 6.3 2.2 9.4 3.3h26.5q1.7-.9 3.4-2.1c7-5 12.2-14.4 21.3-15.5 3.7-.4 7.2 1.3 10.2 3.2 2.2 1.3 4.4 3 6.8 3.8 3.3 1 6.9 1.1 10.3 1.6a36 36 0 0 1 17.9 7.4c.7.5 1.6 1.4 2.5 1.6h31.6c1.7 0 3.5.2 5.1-.5" class="b"/><path d="M10.3 204.5h6.8c1.4-.1 3 .1 4.3-.2q2.8-2 6-3.3a19 19 0 0 1 11.9-.3c2.6.6 5.1 1.6 7.7 2.2q3 .4 6 .7c5.6.9 11.7 1 17-1.5a46 46 0 0 0 12-9c4.6-4.4 9.9-10.4 17-9.6 5.8.7 10 5.5 15.3 7.5 3 1 6.3 1.3 9.4 1.8a37 37 0 0 1 19.6 8.6c1.4 1 2.7 2.4 4.3 3h19.6q3.8.1 7.7 0 3.3-1 6.8-2.3" class="b"/><path d="M10.3 199.8h12c7.7-5.4 13.4-5.5 22.1-2.6q4.2 1.2 8.6 1.5c4.8.6 10 .2 14.5-2 5.4-2.7 10-6.9 14.5-10.8s9.5-9.5 16.2-9.2c5.8.4 10.2 5 15.3 7.4 5.4 2.1 11.5 1.9 17 3.7q7 2.1 12.8 6.2c2.9 1.9 5.4 4.5 8.6 5.8h23q3.5-.8 6.8-2" class="b"/><path d="M10.3 195.2H24c9.4-6.3 14-4.7 23.8-1.3q3.4.9 6.8 1.3 3.4.1 6.9-.1c5.7-1.3 10.2-5.4 14.5-9.2l11.9-10c8.9-7 14.7-3.8 23 1.7q4.3 2.5 9.4 3.3a59 59 0 0 1 28.1 10 29 29 0 0 0 11.1 4.3h7.7q3.8-.2 7.7-.2 3.4-.1 6.8-.8" class="b"/><path d="M10.3 190.6h16.2c8.5-6 13.5-4 22.2-.2 2.2.4 4.6 0 6.8.2h11c4-2.3 7-5.7 10.3-8.6q2.8-2.6 6-4.9c4.2-3.4 8.7-7.8 14.5-8 5.5-.2 10 3.6 14.5 6.3q4 2 8.5 3c5.4 1 11 1.5 16.2 3.1 5.5 1.6 10.6 4.3 16.2 5.4 5.3 1.3 10.8 1 16.2 1.5 4.3.3 8.5 1.8 12.8 1.6" class="b"/><path d="M10.3 186h18.8l1.7-1q1.6-1 3.4-1.7 3.8-1.2 7.7.1c2 .6 4 1.8 6 2.5H70c2.5-1.7 4.6-4.2 6.8-6.2q2.8-2.4 6-4.6c4-3 8.3-6.8 13.6-7.2 7-.3 12 5.5 18 8 8.6 3.8 18.3 3.3 27.2 6.2 8.8 2.8 17.6-2.1 26.5-1 4.8.4 8.9 3.3 13.6 4.1" class="b"/><path d="M10.3 181.3h21.3c2.4-1.2 5-2.5 7.7-2.4 2.7 0 5.2 1.5 7.7 2.4h25.6q3-2.8 6-5.5 2-1.5 4.2-3c3-2 6-4.2 9.4-5.3 7.1-2.3 13.2 3.3 18.7 6.9a51 51 0 0 0 20.5 6.1l5.1.8h12c1.5.2 2.9-.6 4.2-1.3l5.1-2.6c4.7-2.4 10.5-4 15.4-1.2 2.8 1.4 5.5 3.3 8.5 4.4" class="b"/><path d="M10.3 176.7h23.9l1.7-.8q1.6-.7 3.4-.7 3 0 6 1.2c1 .4 2.3.2 3.4.3h16.2c2.8-.1 5.7.2 8.5-.2q2.5-2.4 5.1-4.5 3-2 6-3.7c5.3-3.2 10.7-4.2 16.2-1 3.7 2 6.8 4.8 10.2 7q1.7 1 3.5 2 .8.3 1.7.4h8.5c10.2-.1 20.5.2 30.7-.1 4.8-3.6 10.9-8 17-5.3 3.3 1.5 6.1 4 9.4 5.4" class="b"/><path d="M10.3 172H35l1.7-.7q1.7-.5 3.5-.6 2.1 0 4.2.6c.8.3 1.8.8 2.6.7h23.8c.8 0 2 .1 2.6-.4 2.6-2 5.4-4 8.5-5 3-1.1 6.2-2.1 9.4-2 6 .3 10.8 4 15.4 7.4h48.6l1.7-1.1c4-3.6 9.9-7.1 15.3-4.4 3.3 1.5 6.1 4.1 9.4 5.6" class="b"/><path d="M10.3 167.4h23c1.8.2 3.5-.5 5.2-.8q2.5-.4 5 .2c2.5 1 5.2.5 7.7.6h21.3q2.5-1.3 5.2-2.3a28 28 0 0 1 17.9 1c1 .4 2.2 1.2 3.4 1.3h17.9q18.8.2 37.5 0c4.9-5 11-9.2 18-5.4 3.1 1.6 6 4.1 9.3 5.4" class="b"/><path d="M10.3 162.8h56.3q5.6.2 11-.4c2-.2 4 .5 6 .4H152c7-6.3 11.4-9.7 20.4-4.3l5.1 3 2.6 1.3h1.7" class="b"/><path d="M10.3 157.5c.8.3 1.7.8 2.6.7h136.4c1.9-1.2 3.3-3.2 5.1-4.5 5.2-4.1 10.2-3.1 15.4.5 2.2 1.3 4.3 3.2 6.8 4h5.1" class="b"/><path d="M10.3 148.7c7.8 4 9.6 3.4 18 3.5q2.5.1 5 .7c1.4.3 2.9.8 4.3.6h110c1-.4 1.8-1.5 2.6-2.3q1.5-1.5 3.4-2.9c6.8-5 12.4-.4 17.9 4 .3.4 1.2 1 1.7 1.2h8.5" class="b"/><path d="M10.3 140.3c2.8 1.3 5.5 3 8.5 3.6 5.8 1 11.8 1.5 17 4 .9.4 1.8 1 2.7 1h108.2c9.6-9.5 14.2-8.8 23.9 0h11" class="b"/><path d="M10.3 131.3q3.4 1.8 6.8 3.5 5.2 1.6 10.3 3.6 4.3 1.8 8.5 4c2 .8 3.7 2.2 6 1.9h102.3l1.7-1.2 3.4-2.5c7.2-4.8 13-1.6 18.8 3.5 4.5.3 9 0 13.6.1" class="b"/><path d="M10.3 122.6c2.3 1 4.6 2.5 6.8 3.6q2.7 1.2 5.2 2.5c4 2.2 7.8 4.9 11.9 6.9q6.6 3 13.6 4h87q3 .2 6 0 2-1.5 4.2-2.7c5.7-3.5 11.3-4 17-.3q1.9 1 3.5 2.3c.5.6 1.7.8 2.6.7h13.6" class="b"/><path d="M10.3 115q3 1.1 6 2.9 3 1.5 6 3.5c4.3 3.2 8.4 7 13.6 8.6 5.8 2 12-.3 17.9 1q4.4.9 8.5 2.5c2 .7 4 1.8 6 1.5h18a31.4 31.4 0 0 1 26.4 0h23l6.8-3.2c9-4.5 16-2.1 23.8 3.2h15.4" class="b"/><path d="M10.3 109q3.2.8 6 2.4 2.7 1.4 5.1 3.1c3.4 2.6 6.5 5.7 10.2 7.8 10.5 5.4 15-4 26.5.6 5 1.8 9.9 4.8 15.3 5.6 4.7 1 8.7-1.8 12.8-3.6 12.8-6 19.5.7 31.5 3.6a35 35 0 0 0 18.8-.1c2.9-.8 5.7-2 8.5-2.7q6.5-1.5 12.8.4 5 1.5 9.4 3.8c.6.5 1.8.5 2.6.5h11.9" class="b"/><path d="M10.3 105.3c3.7.4 7.1 2.3 10.2 4 3.2 2.3 6 5 9.4 7 4.4 2.7 9 2.5 13.7.6 2.2-.8 4.4-1.8 6.8-2 3.5-.4 7 .5 10.2 1.7 4 1.3 7.8 3 12 3.5s7.4-1 11-3c7.7-3.8 13.7-3.5 21.4.2q4.9 2.4 10.2 4c4.7 1.5 9.5 2.9 14.5 3.1 5.8.4 11.4-1.3 17-2.4a35 35 0 0 1 12.8.2q5.7 1.2 11.1 3.5h11" class="b"/><path d="M10.3 105q5.9.2 11 2.8c5.3 3 10.9 6.6 17.1 5 7.8-1.8 10-4.8 18.8-3 7 1.4 14 5.4 21.3 3.4 2.6-.9 5.1-2.3 7.7-3.2 6.9-2.8 13-1.7 19.6 1.5q6.7 2.9 13.6 5.5c8.4 3.3 17.6 5 26.5 2.9 5.6-1.3 11.2-2.8 17-2.3q4 .5 7.7 1.8c1.4.5 2.8 1.5 4.3 1.7h6.8" class="b"/><path d="M10.3 106.3q5.6-1 11 .1c4.6 1 9.1 2.3 13.7 1.8 3.8-.4 7.5-2 11.1-3a28 28 0 0 1 13.7.4c7.5 1.7 15.3 5.6 23 2 3.6-1.4 7.2-2.9 11-3.4 6.7-1 13 2 18.8 4.6 6.2 2.8 12.3 5.6 18.8 7.5 2.2.4 4.6.1 6.8.2h12c5.2-1.9 10.4-4.6 16.1-4.1q3.1.2 6 1.8c1.4.7 2.8 1.8 4.3 2.3h5" class="b"/><path d="M10.3 107.1q4.5-1.7 9.4-2.5 5.6-.5 11-.8c6-.5 12-2.3 18-2.7a50 50 0 0 1 15.3 1.7c7.8 2 13.4 4.7 21.4 1.4 3.8-1.4 7.8-3 11.9-3.5 8.8-1.3 14.5 3.8 22.2 6.9l10.2 4.1c1 .3 2.3.1 3.4.2h21.3c4.9-2.6 10.7-5.7 16.2-3.2 1.8.8 3.4 2.2 5.1 3.2h6" class="b"/><path d="M10.3 106.3c13.4-7.9 26-8 41-7.4q6.8-.1 13.6 1.1c4.5 1 9 2.6 13.6 3 4.2.3 8.1-1.4 12-2.8 6.3-2.6 13.3-4.1 19.6-.4a70 70 0 0 0 17.9 7.4h29.8l3.4-1.7a11 11 0 0 1 12 1.7h8.5" class="b"/><path d="M10.3 102.6H12a33 33 0 0 1 23-6.8c4.3.4 8.5 1.6 12.8 2 4.6.5 9.1-.4 13.7-.4q5.1 0 10.2 1c3.4.5 6.8 1.3 10.2 1 6.7-.7 12.8-4.5 19.6-4.4 4.1 0 7.9 1.9 11.1 4.2q4 2.2 8.6 3.4H162a10.8 10.8 0 0 1 6-.5c.7.1 1.7.6 2.5.5h11" class="b"/><path d="M10.3 98c1.4-.1 3 .2 4.3-.3A28 28 0 0 1 23 94a29 29 0 0 1 15.4 1.4Q42.6 97 47 98q2.1.1 4.2 0c4.4-.2 8.6-1.9 12.8-2.6q6.8-1.3 13.7-.8C84.7 95 91.2 92 98 92q6.6.2 12 3.8c3.1 2.3 2.9 2.2 6.8 2.2h64.8" class="b"/><path d="M10.3 93.3c5.7 0 11.4.2 17-.2 10 .5 20 .1 29.9.2h10.2c2.9-.6 5.7-1.8 8.6-2.3 2.8-.6 5.7-.8 8.5-1.5 9.7-2.4 16.3-2.1 24.7 3.8h72.5" class="b"/><path d="M10.3 88.7h64.8c1.2-.1 2.3-.9 3.4-1.2q4-1.1 7.7-2.4a20 20 0 0 1 12.8-.4q2.6 1 5.1 2.5c1 .6 2.1 1.7 3.4 1.5h74.2" class="b"/><path d="M10.3 84h69.9q1.3-.4 2.6-1c9-4.6 13.9-5 22.2 1h76.7" class="b"/><path d="M10.3 79.5H82c1 0 1.9-.7 2.6-1.2 7.3-4.6 12.9-4.7 19.6 1.1h77.6" class="b"/><path d="M10.3 74.8H82l1.7-.9c7.8-5.4 13.4-5.8 20.5.9h67.4q5 .2 10.2-.1" class="b"/><path d="M10.3 70.2h69.1c.8.2 1.8-.5 2.5-1 8.7-5.8 14.2-6.3 22.2 1h77.6" class="b"/><path d="M10.3 65.6h69.1c.8-.2 1.8-.9 2.5-1.3l4.3-2c3.5-1.5 7.5-1.8 11-.4q3.3 1.3 6 3.3c1 .6 2.4.3 3.5.4h75" class="b"/><path d="M10.3 61c2.3 0 4.6-.8 6.8-.7 3.1 0 6.3.7 9.4.6h52c1.4-.5 2.9-1.5 4.3-2Q89 56 95.6 57.5c3.2.7 6.3 2.2 9.4 3.4h76.7" class="b"/><path d="M10.3 54c5.2 0 10.3 1.2 15.4 2.3h16.2c3-.3 6.2-1.1 9.3-1q4.3.4 8.6 1h13.6c3.7 0 6.8-2.6 10.2-3.5 5.7-1.6 11.5-.2 17 1q6 1.2 12 1.5c1.7.1 3.5 1 5.2 1h63.9M10.3 48.4c4 1.2 7.9 3 12 3.3h11q3 .1 6-.2c2.8-1 5.6-2.5 8.5-3.4 5.3-1.5 10.9-.6 16.2 0 4.5.7 9.3 1.2 13.7-.2 1.7-.5 3.3-1.5 5-1.9 2.9-.7 5.8-.4 8.6 0 4.5.6 9.1 1.5 13.7 1.1 4 0 7.9-1.8 11.9-1 3.3.5 6.5 1.9 9.4 3.4q2.1 1.3 4.2 2.2h51.2" class="b"/><path d="M10.3 43.3c3 1.6 6 3.2 9.4 3.7h17c3.9-1.5 7.3-4 11.1-5.4 7.8-2.4 16-.8 23.9-1.2 9.5-.5 8.7-4.6 19.6-2.1 4.2.8 8.5 1.6 12.8 1.1 5.8-.5 9.3-3.7 15.4-1.7 4 1.3 7.5 3.8 11 6.2l3.4 2.2c.7.4 1.7 1.1 2.6 1h45.2" class="b"/><path d="M10.3 38.5q3.2 2 6.8 2.9 2.2.3 4.3.5c4 .4 8 .5 12-.7 5-1.5 9.4-5 14.4-6.7q3.4-1 6.9-1.4c6.4-1.2 13-1.3 19.6-2.2 2.9-.3 5.6-1.5 8.5-2 6-.5 11.9 2.1 17.9 2 4.1 0 8-1.4 12-2.4 9.4-1.1 16.1 8.9 23.8 12.8q2.3 1.4 5.1 1.1 4 0 7.7-.7 6.3-.9 12.8-1.4 6-.4 12-1.3 4 .2 7.6 2.2" class="b"/><path d="M10.3 34.2c5.4 2.7 8 1.7 13.7 1.1a39 39 0 0 0 11-2.8c3.8-1.6 7.3-3.8 11.1-5.2 2.2-1 4.6-1.1 6.8-1.7q5-1.4 10.3-2.4c5-1 10.2-1 15.3-1.5 4-.8 8-.4 12 .1q5.5.9 11 .2c3.8-.4 7.4-1.7 11.1-2.1 8 0 14.9 9.5 21.3 13.7 4.3 3 6.9 3.2 12 2.4l12-1.7q6-1 11.8-2c4.9-1.1 7.3-1.2 12 .9" class="b"/><path d="M10.3 30.4c5.1 1.1 9-1 13.7-2.4q6.5-2 12.7-4.7c4-1.6 7.8-3.5 12-4.3 3.8-.5 7.4-2 11-3.1q5.5-1.5 11.1-1.3 4 .4 7.7.7 3.9.1 7.7.5 9 .8 17.9-1.7c3-.6 6.3-1.7 9.4-1s6 2.8 8.5 4.9c3.7 3 7.1 6.3 11 9 5.2 3.3 7.9 3 13.7 2.5q7.7-.5 15.4-1.5 4.7-.6 9.4-1.8 5.1-1.6 10.2.2" class="b"/><path d="M10.3 27c4-.9 7.5-3.2 11-5a112 112 0 0 1 29-9.7c3.3-.7 6.3-2 9.5-3a26 26 0 0 1 16.2 1q7.9 2.5 16.2 1.6c4-.5 8-2 11.9-3.1 9-3 12.8 1 19.6 6.1 4.8 3.7 10 7.7 16.2 8.2h7.7q6.3.3 12.8.2a48 48 0 0 0 9.3-1.3l5.2-1.4q3.4-.7 6.8 0" class="b"/></svg>