<svg xmlns="http://www.w3.org/2000/svg" id="a" width="1920" height="2400" viewBox="0 0 192 240"><defs><style>.b{fill:none;stroke:#fff;stroke-miterlimit:10;stroke-width:.4px}</style></defs><path d="M0 0h192v240H0z" style="stroke-width:0"/><path d="M7.9 225.3c3.8 0 7.6.7 11.4.2 6.4-1.4 11.2-3 17.5-.1 3 1.3 5.8 3.4 8.8 4.6h138.5" class="b"/><path d="M7.9 222.9c3.2.4 6.4 1.1 9.6 1.2 2.4-.2 4.8-1 7-1.5 4.6-1.4 9.7-1.3 14 .7 1.5.5 3 1.5 4.5 1.9H184M7.9 220.5h61.4q3-1.3 6.1-1.5 2.8 0 5.3 1.4 4 .1 7.9 0H184M7.9 215.7h54.3c2.3-.1 4.8.2 7-.2 2.5-1.5 5-3 8-3.4 1.4-.2 3 .3 4.3.6q3 .6 6.2.7c6.7.2 13.4-.3 20.1-.3a19 19 0 0 1 11.4 2.5q1.8.1 3.5.1h61.4M7.9 211h61.4c2.8-1.9 5.4-4.4 8.7-5.3 1.7-.3 3.6-.1 5.3-.2l7.9.1q7.5.4 14.9.9c3.5.2 7-.3 10.5.5q5.4 1.5 10.5 3.9h30.7c4.4 0 8.8.2 13.2-.3q3-.2 6.1.3h7" class="b"/><path d="M7.9 206.2H70c3.2-2.6 6.3-6 10.6-6.6a47 47 0 0 1 15.7 0c5.5.8 11.1 2 16.7 1.6q10.6-.4 21 2c5 .8 9.9 3 15 2.4 6.3-.6 12.7-2.4 19.2-1.8q4.6.4 8.8 1.4c2.3.5 4.7 1.1 7 1" class="b"/><path d="M7.9 201.4h57c7.7.1 4.7.3 10.5-4.2 5-4.2 12.1-4.6 18.4-4 5.9.6 11.6 2.5 17.5 2.6 7.1-.1 14-2 21-2.2q4-.1 8 .4c2 .2 4 .8 6.1.9 4 .1 8.2-.4 12.3-.3 8.7 0 17 3.1 25.4 5" class="b"/><path d="M7.9 196.6h60.5q1-.2 1.7-1l2.7-2.6c2.5-2.4 5.3-4.8 8.7-5.8 10.2-3.3 19.8 3.6 29.8 4 8.3.1 15.7-4.4 23.7-6 5-1.3 10-.3 15-.2q10.5.3 21 3.2 6.6 1.4 13.1 3.3" class="b"/><path d="M7.9 191.9h37.7c7-.1 14 .2 21-.1 5.6-5 11-12.7 19.3-12.4 7.2.3 13.4 4.6 20.2 6.6 5.3 1.7 10.8.6 15.8-1.7 11.4-5.1 16.4-9.5 29.8-7.5 6.2.8 12.2 2.6 18.4 3.7q3.5.5 7 .7 3.7.6 7 1.9" class="b"/><path d="M7.9 187.1h50q3 .2 6.1-.1l2.6-2.4c4.9-4 9.4-9.5 15.8-11 10.7-1.7 19.8 8.6 30.7 7.6 11.9-1 21.3-10.6 33.3-11.2 7.2 0 14 2.9 21 3.5q4.5.3 8.8-.2 4.1-.2 8 1.4" class="b"/><path d="M7.9 182.4h50.8c.8 0 2 0 2.7-.3l5.2-3.8q5.5-4.4 11.4-7.7c5-2.7 10.7-1.8 15.8-.2 4.6 1.4 9.2 3 14 3.6 11.6 1.1 22.6-3.5 33.4-7.1 5.4-2.3 11-1 16.6 0q6.5 1.5 13.2.5c5-1 7.8-2.7 13.1-.6" class="b"/><path d="M7.9 177.6h50q2.6-1.1 5.2-2.6 5.7-3 11.4-5.7c8.5-4.1 13.7-3.6 22.8-3 5.9.6 11.7.4 17.6.3 5.5 0 11.1.3 16.6-.4q5-.6 9.7-2.3 2.1-.9 4.4-1.5 3-.5 6-.2c5.9.7 11.9 1.8 17.6.3 5.4-1.2 9-4.3 15-2.4" class="b"/><path d="M7.9 172.8h47.3q9.3-2 18.5-4.6 7-2.1 14-3.8l13.1-3q7-1.7 14-1.3c8 .6 15.9 2.4 23.7.7 3-.5 5.8-2.2 8.8-2.4 5.6-.3 11.1 1.3 16.7.7q4.6-.4 8.7-2c3.6-1.6 7.5-3 11.4-2" class="b"/><path d="M7.9 168h64c7.6-.6 14.4-4 21-7.7 5-2.7 10.1-5.6 15.8-6.1q3.5-.1 7 .4c6.4.7 12.9 1.4 19.3 1q3.1-.3 6.2-.9c2.2-.5 4.6-1 7-.6 5.5.8 11 2.7 16.6 1.6q4.6-.8 8.8-2.8c3.2-1.6 7-2.5 10.5-1.7" class="b"/><path d="M7.9 161.8q4 .6 7.9 1.5h66.6c6-3.2 10.8-8 16.7-11.4 3.1-1.7 6.8-3 10.5-2.7 2 .2 4.1.8 6.1 1q7.5.5 15-.6 6.5-1 13-.8c3.2.4 6 1.9 8.9 3 7 3 12.5 2.4 19.3-1 3.7-2 8-3.5 12.2-2.3" class="b"/><path d="M7.9 154.4a28 28 0 0 1 10.5 3.2c.8.4 1.7 1.1 2.6 1h55.3l5.2-.1q2.9-1.6 5.3-3.7c4.1-3.3 8.2-7 13.1-9q4.7-1.9 9.7-.6c1.4.3 3 1 4.4 1.2q4 .7 7.9-.3c5.5-1 10.9-3.4 16.6-3.3 9.8 0 15.1 11.3 25.4 9.3 7.3-1.4 12.2-7.9 20.2-5.5" class="b"/><path d="M7.9 148.6q6.2 1.3 11.4 5.2h54.4q3.5-1.2 7-2.9 3.2-1.8 6.1-4.2c6.3-4.8 13-9 21-6 4.4 1.6 6.5 3.3 11.4 2.2 7.3-1.6 14.3-7.4 22-4.7 5.2 2.1 8.5 7.2 13.1 10.3 12.4 9 17.7-6.5 29.8-3.2" class="b"/><path d="M7.9 143.7q3.1 1.4 6.1 3.2c1.2.6 2.3 1.7 3.5 2.1h49.1c1.3 0 2.5-1 3.6-1.4 4.3-2.2 9-4 13.1-6.7 4.8-3.2 9.8-7 15.8-7.3q5 .2 9.6 2.5c2.2 1.1 4.5 2.5 7 2.4 5.3 0 10-3 15-4.6 12.4-4.3 16.3 7.2 24.5 13.5q1.2 1 2.6 1.6h7.9q1.4.1 2.6-.2c5.3-2.8 9.5-5.8 15.8-4.8" class="b"/><path d="m7.9 138.5 7.9 5.8h44.7c1 .2 1.9-.6 2.6-1l3.5-1.7c6.1-3.2 12.7-5.4 18.5-9 9.7-6.1 15.6-7 26.3-2.4 5 2 10.6 0 15.7-1 15-3.2 18 6.8 27.2 15h19.3c1.5-.1 3-1 4.4-1.3q3-.9 6.1-1" class="b"/><path d="M7.9 132.3 13 137c1.1.8 2.2 2.2 3.6 2.6h36.8c3.3-1.2 6.4-3.3 9.6-4.7q6.4-3 13.2-5.1c6.5-2 12.6-5.4 19.3-7q5.6-1.5 11.4-1c2 0 4 .5 6.1.6q3 .1 6.1-.2c9.7-1.3 16.4.7 23.7 7.2 3.5 3 6.3 6.9 9.7 10 2 .4 4 .1 6 .2h21.1q2.3-.3 4.4-1" class="b"/><path d="M7.9 125.5q5.2 4.7 10.5 9.3h27.2q4-1.2 7.9-2.8c5.9-3 11.8-6 18.4-7 7.3-1.3 14.8-2.3 22-4.4 4.6-1.3 9.2-3.3 14-4.6l5.2-1q3-.6 6.1-1c7.6-1.4 13.9 2.2 19.3 7q3.7 3.1 7 6.4 3.4 3.6 7 7c2 .7 4.2.2 6.2.4h20.2q2.7.2 5.2-.5" class="b"/><path d="M7.9 118.3q4.6 3.5 8.8 7.4 2.4 2.3 5.2 4.2l2.7.1H42q1.8-.6 3.5-1.3 2.2-.6 4.4-1.1c8-3 13.5-7 22.8-6.6l9.6.4c3.2.2 6.5.4 9.6-.3 6.3-1.4 11.3-5.8 16.7-9q3-1.5 6.1-2.8c3-1.3 6.3-2.5 9.7-2.3 6.5.5 11.2 5.6 15.8 9.8 1.6 1.6 3.6 3.1 5.2 4.7 2.9 2.7 5.6 5.7 8.8 8l.9.5h26.3l2.6-.6" class="b"/><path d="M7.9 111.5c4 2 7.3 5 10.5 8q2.5 2.3 5.3 4.1c1 .6 2.2 1.7 3.5 1.6H42l3.5-1q2.2-.6 4.4-1 3-1.1 6.1-2.5a27 27 0 0 1 21-1q3.7.8 7 1.7c3.8 1 7.9 1.3 11.5-.4 5-2.3 8.8-6.8 13.1-10.3q3-2.2 6.2-4c2.4-1.7 5-3.4 7.8-4.2 6.6-2 12.2 3 16.7 7.1l6.1 5.2q3.6 3.1 7 6.3c2.2 1.6 4.4 3.6 7 4.2H178q3-.7 6.1-1.1" class="b"/><path d="M7.9 105.7c8.1 3.1 13 11.3 21 14.4q1.3.5 2.7.4H35c2.3-.1 4.7.3 7-.3q4.3-1 8.7-2.1c3.5-1.2 7-2.8 10.6-3.5 7.3-1.6 14.3 2.2 21 4.6q1.7.8 3.5 1.3h10.5q1.5-.6 2.7-1.4c3.8-2.6 7-6.2 10.5-9.1q2.1-1.5 4.4-3.2 3.6-3.2 7.9-5.8c9-5.5 15.7 2 22.8 6.9 5.3 4.2 10 9.7 16.6 11.8 3.7 1.2 7.7.8 11.4.4 3.8-.3 7.6-1 11.4-1" class="b"/><path d="M7.9 101.5c5.3 1.8 9.5 5.8 14 9 10.3 7 15.4 4.6 26.3 2.3 6-1.2 12.2-3.4 18.4-1.9 4.3 1 8.3 3 12.3 4.6 1 .4 2.4.2 3.5.2h21c2.2-1.3 4.1-3.1 6.2-4.5 2-1.4 4.3-2.8 6.1-4.5 5.2-4.3 11-10.1 18.4-8.5q3.8.9 7 2.7 3.9 1.8 7 4.4c5.4 4 10.8 9.4 17.6 10.4h18.4" class="b"/><path d="M7.9 97.3c4.7 1.6 8.8 4.4 13.1 6.8 9.9 5.4 16 4.2 26.3 2q7.6-1.5 15 .4c3.9 1 7.6 2.7 11.3 4.3q1.7.3 3.6.1h33.2c3.4-1.1 6-3.9 8.8-6 5-4 10.9-8 17.6-7.6 8.4.4 12.7 3.6 19.3 8.4l7.8 5.2h20.2" class="b"/><path d="M7.9 92.3c16.8 5.7 20.6 9.7 39.4 6.5 4.2-.7 8.5.5 12.3 2.2 3.9 1.5 7.5 3.7 11.4 5.2h45.6c6.6-4 13.3-8.4 21-9.7 9.7-2 14.4.8 22 6.3l4.3 3.3h20.2" class="b"/><path d="M7.9 86.1q7 1.7 14 3.1c8.6 2 17.5 3.6 26.3 2.7 3.1-.2 6.1 1 8.8 2.5 4 2.2 8 4.9 12.3 6.7 1.6.7 3.5.2 5.2.3H121l6.1-2 14-4.6c9.8-4 16.3.5 23.7 6.6h19.3" class="b"/><path d="M7.9 79.5c5.5.8 11.2.6 16.7 2 7.5 1.7 14.9 5 22.8 4.9 4.2-.4 8 2 11.4 4.2 3.6 2.2 7.2 4.7 11.4 5.9 2.8.4 5.9 0 8.7.2 2.3-.3 4.7-1 7-.9 2.7 0 5.3.8 8 .9h35q5.5-.8 10.5-2.8l7-3c3.7-1.3 7.9-1.3 11.4.3 3.2 1.3 5.8 3.8 8.8 5.5H184" class="b"/><path d="M7.9 73.2q5.3-.2 10.5-.2c7.6.6 14.1 5 21 7.7q3 1.1 6.2 1.8c2 .3 4.2.2 6.1 1 5 1.9 9.2 5.2 14 7.2q2.2.8 4.4 1.2H78q2.7-.8 5.3-1.3 4.4-.7 8.8 0c2.6.2 5.2 1.2 7.9 1.3h15.7q6.1 0 12.3 0c2.6 0 5.3.3 7.9-.2 4.3-.8 8.2-3 12.3-4.5 3.6-1.3 7.7-1.5 11.4 0 3 1 6 3 8.7 4.7h15.8" class="b"/><path d="M7.9 66.2C22 63.6 26 66.9 37.7 74q3.7 2.4 7.9 4c2.3.7 4.9 1 7 2.3C57 82.5 61 86 65.7 87.2H79l2.6-.9c9.5-3 15.2-2 24.6-1 3.2.4 6.4-.7 9.6-.6 5 .2 10 1.5 15 1.7q6.1.3 12.2-1.5c4-1.2 8-3 12.3-3.2 3.9-.2 7.8.9 11.4 2.5l4.3 1.9q1.8.8 3.5 1h6.2c1 0 2.4.2 3.5-.2" class="b"/><path d="M7.9 60C21 57 28 61 38.6 68.3a81 81 0 0 0 7 4.4l4.4 2 4.3 3 4.4 3c1.1.6 2.3 1.6 3.5 1.7H78c2.5.1 4.8-1.4 7-2.1q4.7-2 9.7-2.9c4.6-.8 9.4 0 14 .3q3.5 0 7 .1 5.7.8 11.4 1.7 8.7 1.2 17.6.3c2.9-.4 5.8-1.3 8.7-1.8 5.9-1.4 12-.6 17.6 1.4 4.6 1.7 8.2 2.6 13.1 1.2" class="b"/><path d="M7.9 56c3.1-.8 6.4-.7 9.6-.7a34 34 0 0 1 15.8 3.9c5.9 3 11.1 7.2 16.7 10.8 3.2 2.5 6.1 5.5 9.6 7.6H78q2.3-.6 4.4-1.6c4-2 8-4.3 12.3-5.4 5.2-1.5 10.6-.2 15.7.7q10.1 1.5 20.2 2.3 4.8.3 9.7 1c2.2.3 4.6.9 7 .7 5.3-.4 10.4-2.2 15.7-2.3q5 0 9.7 1.4 2.2.8 4.4 1.4 3.4.6 7-.2" class="b"/><path d="M7.9 53.8c3.2-.5 6.4-.1 9.6-.1 3.5 0 7-.4 10.6 0 8.5.6 15.6 6 21.9 11.4 2.8 2.6 5.5 5.6 8.7 7.8h16.7c1.2-.3 2.4-1.1 3.5-1.6l3.5-1.5c3.5-1.8 6.8-4 10.5-5.2 6.5-2.3 12.3.1 18.4 2q6 1.4 12.3 1.4c4.7 0 9.4 0 14 .8 3.3.5 6.4 2.3 9.7 2.5 5.6.4 11-1.7 16.6-2.2q4.6-.4 8.8.8l4.4 1.5q3.4.9 7 .4" class="b"/><path d="M7.9 52.2c3.2-.4 6.4.1 9.6 0 2.7 0 5.3-.7 8-1.2 14.4-2.9 21 6.3 30.6 14.9 1 .8 2.2 1.9 3.5 2.2H72l5.2-3q4-1.9 8-3.8c5.1-2.8 10.8-4.6 16.6-2.6 3.9 1.2 7.5 3.4 11.4 4.4 7.8 1.9 15.8-.6 23.7.8q2.7.5 5.2 1.5 2.6 1.2 5.3 1.7c8 1 15.6-4 23.7-2.4 2 .3 4.1 1.4 6.1 2a22 22 0 0 0 7 1.2" class="b"/><path d="M7.9 49.9c4-.5 8.3.3 12.3-.7 6-1.4 12.2-3.7 18.4-1.8 8.1 2.1 13 9.8 20.1 13.6 6.9 3.5 12.6-.8 18.5-4q3-1.5 6-2.5c3.4-1.3 7-2.4 10.6-2.1 6.8.3 12.1 5.4 18.4 7.3 9.2 2.6 18.9-1.4 28 1.2q2.3.7 4.5 1.6c3.4 1 7.1.1 10.5-1 6.1-2 12.8-5.3 19.3-2.7q4.6 2.1 9.6 2.9" class="b"/><path d="M7.9 47.6c3.2-.6 6.5-.5 9.6-.9 3.3-.4 6.5-1.5 9.7-2.3a26 26 0 0 1 16.6-.4c3.2 1.2 6 3.3 8.8 5.1 6.4 4.3 12.2 5.3 19.3 2.1q5-2.4 10.5-3.7c5-1.2 10.3-.7 15 1.6 4.5 2.2 8.4 5.7 13 7.6 5.6 2 11.8 1.6 17.6 1q5.3-.8 10.5-.5c2.4.1 4.7 1.1 7 1.3 8.8 0 15.2-7.8 23.7-9 2.7-.3 5.4.5 7.9 1.5l7 2.6" class="b"/><path d="M7.9 44.6c4.6-1.2 9.4-1.4 14-2.4 5.3-1.1 10.5-2.8 15.8-3.6 8-1.3 11.3 1.6 18.4 3.8q7 2 14 1c5.3-.8 10.5-2.4 15.8-2 8.4.5 15 6.4 22 10.3q2.8 1.5 6 2 4 .2 8 .1 3.5.1 7 0c4.3-.6 8.7-1.5 13.1-1.1 7 1.3 12.8-4 18.4-7.3 10.1-6.2 13.6-4.7 23.7 0" class="b"/><path d="M7.9 40.7q6-2.2 12.3-2.8 7-.5 14-2.1c3.7-1 7.5-2.2 11.4-2.4 2.6-.1 5.3.5 7.9.8l12.2 1.5q5.8.7 11.4.9c3.8 0 7.7-.2 11.5.7 7.9 1.6 14.4 6.8 21.9 9.4 5.6 1.7 11.7 2 17.5 1.2 4.7-.6 9.3-2 14-2.3 5.9 0 11-3.3 15.8-6 10.5-6 15.5-7 26.3-.9" class="b"/><path d="M7.9 36.6C19 30.6 24 35 35 32.4c3.5-.8 7-2.2 10.5-3q7-1.1 14-.8C66 29 72 31.4 78 32.3c4.7.5 9.4.4 14 1.2 5.5.9 10.7 2.7 15.8 4.3a45 45 0 0 0 29.9.2q3.8-.9 7.8-1.6 3.1-.8 6.2-2c11.6-4.3 21-7.4 32.4-.2" class="b"/><path d="M7.9 33.2c11.8-6.7 15.7-1 27.2-3 3.6-.6 7-2 10.5-3q7.4-1.8 14.9-2c6.3-.1 12.2 2.5 18.4 3.3 6.7.5 13.5-.7 20.2 0 13.1 1 20 6.6 34.2 2.8 10.7-3 22-6 33.3-4.6q5.3.6 10.5 2 3.7 1.4 7 3.4" class="b"/><path d="M7.9 31.9c9.5-5.5 12.8-3.5 22.8-3.5 6 0 11.7-2 17.5-2.7 6.2-.6 12.2-2.3 18.4-1.8s12.3 2.5 18.5 1.7c7.3-.7 14.4-3.3 21.9-3 3.8.1 7.6 1.4 11.4 2q7 1.1 14 0c4.1-.5 8.2-1.7 12.3-2.6 5.5-1 11.2 0 16.6 1.4q5.7 1.6 11.4 2.9 2.2.3 4.4 1 3.7 1.4 7 3.5" class="b"/><path d="M7.9 30h2.6l2.6-1.3q3-1.4 6.2-2 7-1.3 14-1.7 7-.6 14-.3c4.4.6 8.9-.4 13.2-1q6-1 12.3-.7 4.4.4 8.7 1c5.5.4 10.8-1.2 15.8-3.2 3.7-1.5 7.4-3.2 11.4-3.8 2.3-.3 4.7.2 7 .4q4.8.7 9.7 1.3 6.1.7 12.2.2c2.7-.1 5.3-1 8-1.3 7.3-.4 14 3.7 21 5.6a42 42 0 0 0 9.6 1.7c2.9.5 5.5 2 7.9 3.7" class="b"/><path d="M7.9 25.3h9.6c1.6.1 3-1 4.4-1.5a48 48 0 0 1 7.9-2.7q5.7-1.4 11.4-.2 4 .9 7.9 2.2c7.6 1.8 15.2-1.6 22.8-1.9 4.5-.4 8.7 1 13.1 1.4 9.7.9 15.6-5.6 23.7-9 2-.7 4.1-.6 6.2-.7q4.4 0 8.7.7c5.6.7 11 2.4 16.7 2 2 0 4-.8 6.1-.6 6.2.5 11.6 4.1 17.6 5.8q5.1 1.6 10.5 1c3.4-.4 6.8 1.3 9.6 3.1" class="b"/><path d="M7.9 20.5h14c6.9-5 13-7.8 21-3.7l4.4 2.3q1.7 1 3.5 1.4 6.2 0 12.3 0 4.4-1.2 8.8-1.9 3.5-.5 7 .1l6.1 1.8h6.2c1.4 0 3 .2 4.4-.3 3.5-1.4 6.5-3.8 9.6-5.9 2.3-1.7 5-3.2 7.9-3.6 9-1.9 15.1.5 23.7 2.5q2.5.5 5.2.3 2.2-.6 4.4-.4c3.4.4 6.5 2 9.6 3.2 3.4 1.3 7 2.5 10.6 2.7 7.6.4 9.8-3.6 17.5 1.2" class="b"/></svg>