<svg xmlns="http://www.w3.org/2000/svg" id="a" width="1920" height="2400" viewBox="0 0 192 240"><defs><style>.b{fill:none;stroke:#fff;stroke-miterlimit:10;stroke-width:.4px}</style></defs><path d="M0 0h192v240H0z" style="stroke-width:0"/><path d="M10.5 225.7c9.8 7 11.1 3 21.2 3q3.6.3 6.8 1.8l2.6 1.3q.8.6 1.7.5h75.7c1 0 1.9-1 2.6-1.5q1.6-1.4 3.4-2.6c3.7-2.7 8.1-4.8 12.8-4.5 5.6.2 10.2 3.7 15.3 5.5 11.7 4 15.6-5.1 29-.7" class="b"/><path d="M10.5 220.8c10.1 7.7 11.3 3.9 22 3.9 3.7 0 7 1.6 10.3 3H116l4.3-2.3c5.9-3.4 11.8-5.4 18.7-4 5.4.7 10.1 3.9 15.3 5.4 5 1.6 10.3.4 15.3-.5 4-.4 8 0 12 .2" class="b"/><path d="M10.5 216c8.2 5.5 9.9 5.8 19.5 4.4q5.3-.7 10.2.8c2 .5 4 1.6 6 1.9h27.3a23 23 0 0 1 5-1q2.2 0 4.3.3c4.8 1 9.7.6 14.5.7h7.6q3 .2 6-.3c3.5-.7 6.8-2 10.2-3q7.2-2 14.5-1c3 .5 6.3.6 9.4 1.1 4.5 1 9 2.4 13.6 3 3 .4 6.2.1 9.3.2h13.7" class="b"/><path d="M10.5 211c11.3 6 10.4 5.7 23 4.3q4.6-.3 9.3.6c8.7 2 13 3.4 22.1 1.7 4.8-.8 9.7-2.3 14.5-1.1 2 .5 4 1.5 6 2h20.4c2.6.2 5.1-1 7.6-1.6q5.5-1.4 11.1-1.6c4.8-.2 9.7.8 14.5.9 4-.1 8-.9 11.9-.8q9.1.1 17.9 3h12.7" class="b"/><path d="M10.5 206.2q4.7 1.5 9.3 3.7c6.3 2.4 13.1-.2 19.6-.2q3.9-.2 7.7.4 3.7.9 7.6.9c6 0 12-1.6 17.9-1q4 .3 7.6 2.2l2.6 1.5c1.3.3 2.9 0 4.3.1h23c1.3-.2 2.8-.9 4.2-1.2q3.4-.8 6.8-1c6-.3 12 .8 17.9 0s11-4.2 17-4c5.6 0 10.6 3 15.3 5.6 1.2.8 3 .6 4.3.6h6" class="b"/><path d="M10.5 201.7q3 .3 6 1.2c1.6.5 3.3 1.6 5 2 4 1.1 8 .5 12-.2s8.4-1.3 12.7-1c2.8.2 5.7.8 8.5.5 6.2-.4 12.7-1.7 18.7.3q4.7 1.6 8.6 4.5c1.3.3 2.8.1 4.2.2H111c2 0 4-1.1 6-1.4q5-.9 10.2-1c5.1-.2 10.5-.5 15.3-2.4 3.2-1.3 6.1-3.2 9.4-4.3 8-2.9 14.2 2.9 20.4 7l3.4 2h6" class="b"/><path d="M10.5 198.1q3.4-.2 6.8.6c1.9.7 3.9 1.5 6 1.6 7.1.4 14-2.9 21.2-2.8 3.1-.2 6.2.8 9.4.6 12.2-1 18.6-2 28.9 6.4 6 .3 12 0 17.9 0h8.5c1.4-.3 2.8-1.3 4.2-1.7 9-3.4 19-2.2 28.1-5.3 6.3-2.2 11.8-6.6 18.8-3.7 5.3 2.2 9.4 6.7 14.4 9.4l2.6 1.4h4.2" class="b"/><path d="M10.5 195.1q3-.6 6-.6c1.9.1 3.9.8 5.9.6 5-.4 9.6-2.6 14.4-3.8a31 31 0 0 1 14.5-.3q5.6.6 11 1.2a44 44 0 0 1 18 6.3c1 .6 2.1 1.7 3.4 1.5H104c1.6.2 3-1.2 4.3-2q2.8-1.6 6-2.7c7-2.5 14.7-3.4 22-5q4-.8 7.7-1.8c2.8-.8 5.6-1.7 8.5-1.7 7 0 12.4 5 17.9 8.6q2.9 1.6 6 3c1.6.6 3.3 1.7 5 1.6" class="b"/><path d="M10.5 192.1q3.3-1.2 6.8-1.7 4 0 7.6-1.7c12.1-5.6 17.3-8 30.7-3.6q12 4.2 23.8 9.5l1.7.7H99c3.5-1.4 6.7-3.7 10.2-5.2 6.3-2.6 13-4.2 19.6-6.3a45 45 0 0 1 23.8-2.5c4.3 1.1 8.2 3.6 12 6q3.2 2 6.7 3.7 5 1.6 10.3 2.6" class="b"/><path d="m10.5 188.7 6.8-2.6q3.5-1 6.8-2.9c5-3 10.1-6.6 16.1-7q6.6-.2 12.8 2.2c7 3.1 13.2 7.7 20.4 10q3.8 1.4 7.7 2.3h6c2.6.2 5.2-1 7.6-1.8 4-1.5 8-3.5 12-5 3.2-1.4 6.8-1.9 10.1-2.9q6.5-1.8 12.8-4.3c4.9-1.8 10.1-3.7 15.3-2.6 8.9 1.8 15.5 8.7 23.9 11.8 4 1.4 8.5.8 12.7 1.3" class="b"/><path d="M10.5 184.8c4-1.7 8.2-3.4 11.9-6 5-3.5 10.4-8 17-8 3.8.1 7.4 1.4 11 2.2 3.1 1 5.9 2.8 8.6 4.5 4.9 3.1 10.3 5.9 16.1 6.6 3.1.3 6.3 1 9.4.3 7-1.6 13.4-5.4 20.4-6.8 4.5-1 9.2-1 13.7-2.3 5.2-1.3 10.2-3.7 15.3-5.5 3.2-1.1 6.8-1.8 10.2-.7 8.6 3 14.8 11.2 23.8 13.3 4.6 1 9.1-.9 13.7-.8" class="b"/><path d="M10.5 180.5q4.9-1.7 9.3-4.5c3.1-2.1 6-4.7 9.4-6.6 5.8-3.4 11-2.4 17-.2 2 .8 4 1 6 1.9 2.9 1.2 5.6 2.9 8.5 4.2q7.7 3.6 16.1 2.5c2.6-.1 5.2 0 7.7-.7 5.1-1.4 10-3.7 15.3-4.4 5-.7 10.3 0 15.3-.8q5.7-.7 11.1-2.9c3.6-1.3 7.3-3 11-3.7 4.5-1 8.5.8 12 3.4 3.4 2.4 6.6 5.2 10.2 7.4 3.8 2.3 8.3 3.9 12.8 3 3-.8 6.2-1.9 9.3-2.2" class="b"/><path d="M10.5 175.6a30 30 0 0 0 7.6-2.9c2.6-1.4 5.1-3.3 7.7-4.9 7-4.4 12.3-3.5 19.5-.2q3 1.1 6 1.9 3.8 1.3 7.7 2.5c6.2 2 11.7.6 17.8-.7q2.6-.4 5.2-.3 3-.3 6-1 6.2-1.4 12.7-1.2c4.8.3 9.7.9 14.5.1q7-1 13.6-3.6c3.8-1.4 7.8-3 11.9-2.9 6.2.4 11.1 5.7 16.2 8.8 4.4 3 9.8 5.4 15.3 4.2 3.1-.7 6.2-1.8 9.3-2.3" class="b"/><path d="M10.5 170.1q4.3-.7 8.5-2.5c2.8-1.3 5.5-3 8.5-4.2 6.9-2.9 12.5-.3 18.7 2.7q3 1.2 6 2a28 28 0 0 0 11.9 1.2c4.7-.6 9-2.9 13.6-3.7 2.8-.3 5.7.2 8.5.2 6.3 0 12.5.6 18.7.9 10 .1 19.3-4.2 29-6 3.3-.6 6.9-1 10.2 0 7.8 2.6 14 9 22.1 10.8 5.2 1.2 10.3-.7 15.4-1.3" class="b"/><path d="M10.5 164.7q4.6-.6 9.3-1.8c3.4-1.1 6.7-2.7 10.2-3.3 6-1.3 11.7 1.5 17 3.9 5.1 2.1 10.8 3.4 16.2 2 4.4-.8 8.4-3.1 12.8-4.1 4-1 8 .7 12 1.5 4.9 1.3 10 2.3 15.2 1.8 8.3-.7 15.6-5.4 23.9-6.6q5.5-1 11-.5 4 0 7.7 1c6.7 2.1 12.8 6 19.6 7.8 5.2 1.5 10.8.8 16.1.7" class="b"/><path d="M10.5 159.7c3.3-.5 6.8-.4 10.2-.9 3.1-.5 6.2-1.7 9.3-2.3 11.3-2.3 16.6 4.6 26.4 5.5 6 .5 11.5-2.5 17-4.3q3.4-1 6.8-.5c4.2 1.2 7.9 3.6 12 4.9 2.7 1 5.6.9 8.5.9 3-.1 5.8-1.5 8.5-2.8 6.4-3.2 13-7.4 20.4-6.9 3.5.1 6.9 1 10.2 1.5q5.6.6 11.1 1.8c7.4 1.6 14.6 4.2 22.1 5.2 2.9.3 5.7 1.2 8.5 1.2" class="b"/><path d="M10.5 155q3-.3 6 0c2.2.2 4.5.5 6.7 0 12-2.9 15.4-4.3 27.3 1 3.7 1.6 8 1.8 11.9.8 5.4-1.2 10.5-4.7 16.2-4.2 2.4.3 4.7 1.7 6.8 3l4.2 2.6c1 .3 2.4.1 3.4.2h12.8l1.7-1c9.5-5.9 15.4-11.6 27.2-7.2q3 1 6 1.7 3.4.4 6.8.3 10.3-.2 20.4 1.9c4.8.8 9.1 2.6 13.7 4.1" class="b"/><path d="M10.5 150.2q3-.1 6 .4c1.6.3 3.3 1 5 .9 3.5 0 6.9-1.3 10.2-2.1 7.8-2 12.6-.5 19.6 2.6 3.9 1.3 8.2.9 12-.6 5.2-1.7 10.3-5.7 16.1-4.6 2.5.6 4.7 2.3 6.8 3.8 1.6 1 3.2 2.7 5.1 3.1h14.5c1.3 0 2.4-1.1 3.4-1.7 11.2-7.6 15-10.3 28.1-4.4a21 21 0 0 0 11 1c8.4-1.3 16.5-2.7 24.8 0 2.9 1 5.6 2.6 8.5 3.8" class="b"/><path d="M10.5 144.7q4.6.5 9.3 1.9c3.2.4 6.3-.5 9.4-1.3q5-1.5 10.2-1.4 4.4.3 8.5 2.2a17 17 0 0 0 10.2 1.7c7.7-.9 16-9.6 23-6.9 4.7 2 8.2 6 12.8 8.2h11.9c2.1-.4 4-2 6-3 11-7.2 14.8-6.4 26.3-1 4 1.8 8.6 1.1 12.8.2 7.2-1.7 14.8-4.3 22.1-2.1 3 .9 5.7 2.4 8.5 3.5" class="b"/><path d="M10.5 138.7q4.6 1.1 9.3 2c5.8.3 11.2-3 17-3q4.8 0 9.4 1.8c3.3 1.2 6.7 2.6 10.2 2.6 9.3.5 17.2-8 24.7-6.2 5.7 1.8 9.7 6.9 15.3 8.6h6c2 0 4.2.3 6-.8 4.7-2.2 9-5.9 14.4-6.6 5.6-.7 10.6 2.7 15.3 5 10.1 5.2 20.5-2.8 30.7-3.3 4.4-.3 8.6 1.7 12.7 3" class="b"/><path d="M10.5 132.4c3.2.8 6.7 1.7 10.2 1.5 4.9-.6 9.4-3 14.4-3.1 7.5-.2 14 4.3 21.3 5.1 11 1.9 18.8-6.3 26.4-4.2 9.5 3.6 15 11.5 26.4 6.6 4.8-2 9-5.7 14.5-6 4.3-.3 8.3 2 11.9 4.3q2 1.5 4.2 2.6 1.2.7 2.6.7h14.5l2.5-.8c11.2-3.9 10.9-3.2 22.2-1.3" class="b"/><path d="M10.5 126a24 24 0 0 0 11 .4c5-1.4 10-3.6 15.3-2.6 3.6.6 6.9 2.3 10.3 3.5q2.5.8 5 1.5c2.6.6 5.1 1.4 7.7 1.6 6.2 1 12.1-1.7 17.9-3.5q4.3-1.5 8.5.4c3.8 1.5 7.3 3.8 11 5.1 5.1 2 10.8 1.3 15.4-1.4 3.3-1.8 6.5-4 10.2-4.6 6.7-1 11.9 4.4 17 7.7l1.7 1c1.4.3 3 .1 4.3.2h20.4q2.1-.6 4.3-1c3.6-.2 7.4.4 11 .2" class="b"/><path d="M10.5 120.2q5.1.8 10.2-.6 3.7-1.2 7.6-2.3c6.7-1.6 12.1 1.8 17.9 4.4 2.1 1 4.6 1.2 6.8 1.9 4.7 1.3 9.7 2.3 14.5 1 4.7-1 8.9-3.6 13.6-4.5 8.7-.7 16.1 8.6 26.4 6.4 6-1.2 10.6-6.8 17-6.9 7 0 11.5 6.2 17 9.6l2.6 1.4h37.5" class="b"/><path d="M10.5 115.5q4.6 0 9.3-1.1c2.8-.8 5.6-2 8.5-2.4 7.2-1.3 12.7 3.4 18.8 6.1 1.8.8 4 1 6 1.4 4.4 1 9.2 1 13.5-.6q4.5-1.6 8.5-4c2.2-1 4.5-2.1 6.9-2.3 8.9.1 16.2 9.7 26.3 7.3 6-1.4 10.6-7 17-6.7 7 .5 11.4 7 17.1 10.4 1.4.7 2.7 2 4.3 2.4h34.9" class="b"/><path d="M10.5 112c5.2 0 10.3-1.8 15.3-3.3 10.3-2.8 14.6 4.2 23 7.2 5 1.2 10.5 1.2 15.3-1 3.3-1.5 6.3-3.7 9.3-5.6 2.4-1.5 4.9-3 7.7-3.5 8.7-.5 16.2 8.2 26.4 6.5 6.1-1 11.3-6.2 17.9-5.2 5.6.8 9.9 5 14.4 8.1q3.8 2.2 7.7 4.1c1.9.8 3.8 2.2 6 2h28" class="b"/><path d="M10.5 109a26 26 0 0 0 9.3-1.5q3.7-1.7 7.7-2.7c8.2-1.9 13.7 5 20.4 8.3 3.2 1.2 6.9 1.3 10.2.4 7-1.8 12-7.5 17.9-11 10.4-6.5 19.7 6.8 36.6.6 9.2-3 15-.9 23 3.8a37 37 0 0 0 5 2.5q3.9 1.1 7.8 2 11 2.4 22 4 3.6.3 6.9 1.4h4.2" class="b"/><path d="M10.5 106.3c8.3.6 12.3-4.7 19.5-5.4 5.4-.3 9.7 3.5 13.6 6.5a15 15 0 0 0 9.4 4c7.5.2 13.2-5.6 18.7-9.8 4.2-3.4 7.3-5.2 12.8-4.4 6 .7 11.9 2.2 17.9 1.6 3.4-.2 6.8-1 10.2-1.5a22 22 0 0 1 6.8.4c7.4 1.4 13.8 6.1 21.3 6.7 6 0 12-1.8 17.9-.5q5.3 1.2 10.2 3.3 3 1 6 2l3.4 1.8c1 .6 2.2 1.4 3.4 1.2" class="b"/><path d="M10.5 103.4c8 .6 11.7-4.8 18.7-6.2 8.2-1.3 13 7 19.6 10.2 2.2.3 4.5 0 6.8.1 6.4.8 14.5-8.8 20.4-11.7a14 14 0 0 1 8.5-1.2q5.1.5 10.2.8a59 59 0 0 0 10.2-.7c2.8-.4 5.7-1.1 8.5-.8 3.6.5 7 2.2 10.3 3.7 5 2.3 10.5 4.5 16.1 3.3 8-2 13-7.9 22.2-4.2 3.2 1.2 6.2 3.3 9.3 4.8a32 32 0 0 1 5.1 2.7c1.7 1 3.4 2.4 5.1 3.3" class="b"/><path d="M10.5 100.3c5.5.1 9.8-2.9 14.4-5.5 9.8-5.3 15 3 22.2 8.1h13.6c1.9-.3 3.5-1.9 5-2.9 4-2.7 7.5-6.1 12-7.8 3.3-1.1 6.9-.3 10.2 0q9 1.2 17.9.2c2.5-.2 5.2-.7 7.7-.2 8.5 2.4 15 9.7 24.6 6.4 5.8-1.8 9.8-6.8 15.4-8.8 6-2.3 11.5 1.9 16.1 5.1q2.5 1.6 5.1 3l6.9 4.4" class="b"/><path d="M10.5 97.3c5.3-.6 9.9-3.5 14.4-6 8.7-4.8 14.3 1.7 20.5 7h16.1c1.3.2 2.5-.7 3.4-1.5l3.4-2.6c3.2-2.5 6.4-5.4 10.3-6.7 2.1-.7 4.5-.4 6.8-.1 4.8.8 9.6 2.2 14.4 2.6 4.3.6 8.6.2 12.8.4 5.4 1 10 4.4 15.3 5.4 6.2 1.4 12.3-1.4 17-5.2 8-6.5 13.1-8.9 22.2-2.3q3.7 2.7 7.6 4.7 3.4 2 6.8 3.8" class="b"/><path d="M10.5 93.7H13A38 38 0 0 0 23.2 89c9.6-5.9 14.4-1.4 22.1 4.5h17c4.1-2.1 7.5-5.6 11.1-8.4 3.2-2.5 6.9-4.4 11.1-3.8 6.5.8 12.4 4 18.7 5.4 3.4.8 6.9.7 10.3 1 3.1.5 6.2 1.7 9.3 2.5 6 1.8 12.3 1.6 17.9-1.4 3.8-1.9 7.1-4.7 11-6.4 6.7-3 12.4.3 18 3.7q5.7 3.2 11.9 5.5" class="b"/><path d="M10.5 89h6c3-.4 5.7-2.4 8.4-3.6a14 14 0 0 1 12.8-.8c2.7 1.1 5.1 3 7.6 4.4h15.4q1.3 0 2.5-.2l3.4-2.2c3.2-2.3 6.2-5.1 9.4-7.4 9.2-7.3 19 .7 28 3.7 3 1.1 6.3 1.3 9.4 1.4q4.3.4 8.5 1c5 .8 10.3 1.2 15.4.1 10.2-2.5 15.5-9.1 27.2-5 5.7 2 11.1 4.9 17 6.3" class="b"/><path d="M10.5 84.4h6.8c1.3 0 3 .2 4.2-.5q3.3-1.6 6.8-2.7 5.3-1.4 10.2.8c1.8.7 3.4 1.8 5.2 2.4h22.1l3.4-2.4c3.1-2.3 6.1-5 9.4-7.1 12.1-8.2 22.5 6.7 34.9 5.5q7.2-.2 14.4.1c4.8.2 9.8.6 14.5-.5 10-2.5 17.8-4.4 28-1.6 3.8.8 7.4 2.3 11.2 3.2" class="b"/><path d="M10.5 79.8h11c2.8-.6 5.6-1.9 8.5-2q3 0 6 .8c1 .3 2.3 1 3.4 1.2h21.3c3.4-.1 6.8.2 10.2-.2 4-2.7 7.5-6.4 12-8.3 11.7-4.8 20 7.2 31.4 5.4 4.3-.4 8.5-1.1 12.8-1s8.5 1 12.8 1.2q6.8 0 13.6-1.3c6.4-1 13-3 19.6-1.6 2.9.6 5.7 1.8 8.5 2.8" class="b"/><path d="M10.5 75.2h9.3c3.3-.7 6.8-1.6 10.2-1.2 1.8.2 3.5 1 5.1 1.2H76c6.8-5.7 12.6-8 21.3-5 3.7 1.3 7.2 3.1 11 4 2.8.6 5.8 0 8.6-.4q4.6-1 9.3-1.1c6.3-.1 12.4 2.4 18.7 2a44 44 0 0 0 12.8-2.1c4-1.2 7.8-2.8 12-3.2 4.1-.3 8 1.7 11.9 3.3" class="b"/><path d="M10.5 68.7c5.4.6 10.7-1 16.1-.6q4 .5 7.7 2.4h45.1c.9.2 1.8-.4 2.6-.8l2.5-1q3.7-1.1 7.7-.9 4.3.4 8.5 2l2.5.7h43.4q5.2.2 10.3 0c10.9-4.2 13-6.7 24.6-1.6" class="b"/><path d="M10.5 60.9c10.8.5 15.6-1.5 25.5 5h124.2q1.8-.6 3.5-1.4c7-3.3 10.6-3 17.9-.7" class="b"/><path d="M10.5 53c13 .7 16 .9 27.2 8.3h122.6a6 6 0 0 0 3.4-.6 25 25 0 0 1 17.9-3" class="b"/><path d="M10.5 45.6q4.6.6 9.3 1.4c6.6 1.4 12.2 5.5 17.9 8.9 1.4 1.1 3.4.7 5.1.8h8.5c2-.2 4 .2 6-.3 3.7-1.5 7.8-2.6 11.9-2q4 .7 7.6 2.2 4.2.1 8.6 0h11.9q4.2-1 8.5-1c1.7 0 3.5.6 5.1 1h48.5c1 0 2.4.2 3.4-.2l6.8-3q5.9-2.3 12-2.1" class="b"/><path d="M10.5 39q4.6 1 9.3 2c7 2.2 12.5 7.3 18.7 10.8 2 .5 4 .1 6 .3h9.4c9.9-6.7 14.2-8.2 24.7-1.4 1 .6 2.1 1.5 3.4 1.4h11q2.2.1 4.3-.6c5.4-1.8 10.2-3 15.3.5q3 .2 6 0H139c2 0 4-.8 6-.6 4.7.3 9.7 1.3 14.4.3 4.2-1 8-3.1 12-4.8q4.9-2.1 10.2-2.4" class="b"/><path d="M10.5 33.3q4.6 1 9.3 2.3c6.5 2.4 11.5 7.6 17 11.6 1.6.5 3.5.1 5.2.2h13.6c1.8-.9 3.3-2.5 5-3.5 5.3-3.5 10.2-3.1 15.4.2l3.4 2.1c.7.5 1.7 1.2 2.6 1.2h14.4c3.1-.5 6.2-2 9.4-1.9q2.3 0 4.2.8 1.3.8 2.6 1.1h18.7c1.4 0 3 .3 4.3-.4 6.7-3.4 8.8-3.3 16.2-2.3 12.9 1.8 18.2-7.3 29.7-7.1" class="b"/><path d="M10.5 28.1q4.6.9 9.3 2.2c6.3 2.5 10.4 8.2 15.3 12.5h23q1.4.2 2.6-.3 2-1.5 4.2-2.8c2.6-1.3 5.7-1.6 8.5-.7q2.8.9 5.1 2.3c1.1.5 2.2 1.7 3.5 1.5h18.7q2.2-.3 4.2-.4 1.8 0 3.5.4H133l1.7-1.1q1.8-1.1 3.5-2c4.1-2.8 8.8-3 13.6-3.1q5.6-.2 11-2c6.3-2.2 12-5.7 18.8-3.7" class="b"/><path d="M10.5 23.5c3 .7 6.3 1 9.3 2 5.8 2.3 9.6 7.8 13.6 12.4 1.3.6 3 .2 4.3.3H64c.8-.2 1.8-1 2.5-1.3a12 12 0 0 1 11.1-.1c1.3.5 2.7 1.6 4.3 1.4h50.2c1.2-.4 2.3-1.6 3.4-2.3 2.1-1.6 4.4-3.4 6.8-4.5 5.2-2.3 10.8-3.7 16.2-5.4 5-1.5 10-3.4 15.3-3.4q4.1.4 7.6 2.4" class="b"/><path d="M10.5 19.5q4.6.6 9.3 1.6c6 2.3 9.4 8 13.6 12.5h34.9c1.7-.4 3.4-1 5.1-.9 2.3 0 4.5 1.1 6.8.9h51.1q1 0 1.7-.4 3.4-3.1 6.8-6 7.4-5.2 15.3-9.4a27 27 0 0 1 18.8-2 28 28 0 0 1 7.6 4.3" class="b"/><path d="M10.5 15.8c3 .6 6.3.8 9.3 1.6 5.8 2 9.6 7.3 13.6 11.6H128c1.7-.2 3.6.3 5.1-.4l6-6q2.9-2.6 6-5c3-2.5 6-5.2 9.3-7.2 4.3-2.7 9.7-3.5 14.5-1.7 4.8 1.4 9 4.4 12.8 7.5" class="b"/></svg>