<svg xmlns="http://www.w3.org/2000/svg" id="a" width="1920" height="2400" viewBox="0 0 192 240"><defs><style>.b{fill:none;stroke:#fff;stroke-miterlimit:10;stroke-width:.4px}</style></defs><path d="M0 0h192v240H0z" style="stroke-width:0"/><path d="M8.2 224.2q5.2.5 10.5.7c4-.2 8.2-.8 12.2-.8q5.4 0 10.5 1.3 3.1.8 6.1 2h6.1q1.9-.2 3.5-1l6.1-3.2c4.3-2.1 9.3-3.4 14-1.9 2.4.8 4.6 2.2 7 3 5.3 2 11 2 16.6 2q3.5.2 7 1h37.5q6.8-4.1 13.1-8.8c3.7-2.7 7.3-5.5 11.4-7.4q3.3-1.4 7-1.4 3.5-.4 7-.2" class="b"/><path d="M8.2 221.2c3.5 0 7 .5 10.5.4 4.7-.2 9.3-1 14-1a39 39 0 0 1 12.2 2h11.3q1.5-.4 2.7-1.2c5.7-3.2 12.4-7 19.2-4.6 5.6 2.4 11.3 5.2 17.4 5.8h49q2.6-1.3 5.2-2.8 6.4-3.8 12.2-8.3c3.5-2.5 7.1-5.3 11.4-6.3q5.2-.7 10.5-.2" class="b"/><path d="M8.2 217.4c5.8.7 11.7.4 17.5.5h27l7-.1 3.5-2.1c4.4-2.7 9.7-5 14.9-3.4 4 1.2 7.5 3.5 11.4 5 1.8 1 4 .4 6 .6h47.2c1.8-.2 3.6-1.2 5.3-1.8q7-3 13-7.5c7.9-5.8 12.3-10.3 22.8-7.5" class="b"/><path d="M8.2 212.6c2.6.7 5.3.5 7.9.5h43.7l2.6-.1 3.5-2.2c3.6-2 8-3.7 12.2-2.7 3.8 1 7 3.3 10.5 5h53.2q3.1.2 6.1-.4c17.4-3.1 21.1-20 35.9-14" class="b"/><path d="M8.2 207q2.6.6 5.3 1.4h49.8c1.5-.3 2.9-1.6 4.3-2.2a18 18 0 0 1 8.8-2.1c3.9.1 7 2.6 10.4 4.3h71.7c5.6-2.5 9.4-7.9 14.8-10.8 3.3-1.7 7.2-1.2 10.5.3" class="b"/><path d="M8.2 200.6c3.5 1 6.9 2.8 10.5 3h45.4a32 32 0 0 1 8.8-3c3.2-.6 6.7 0 9.6 1.7q1.2.7 2.6 1.3h77.7c1.4 0 3 .3 4.4-.2l1.7-1.6c4.7-4.2 8.6-6.1 14.9-3.7" class="b"/><path d="M8.2 194c4.1.9 8 2.7 12.3 3.2 6.3 1 12.8 1 19.2 1.6q7.4.2 14.8 0h7q1.8-.4 3.5-1c4.7-1.7 10-2.5 14.9-.7q1.3.4 2.6 1.2a3 3 0 0 0 1.7.6h86.5l3.5-.1 1.7-.8a15 15 0 0 1 7.9 0M8.2 185.5c4.2.4 8.1 2.1 12.3 2.7 6.3 1.1 12.8 1.4 19.2 2.2q4.9.6 9.6 2.2c5.3 1.2 10.6-.7 15.7-1.8q6.5-1.7 13.1-.5a19 19 0 0 1 6.1 2.5q1.3.8 2.6 1.3h97M8.2 176.4c2.7 0 5.3.8 7.9 1.4l7.8 1.6c8.2 1.7 16.5 3.2 24.5 5.4 7.2 2 14.6-.7 21.8-1.4 5.3-.7 10.9-.4 15.7 2 2.7 1.2 5.2 3 8 4h89.9" class="b"/><path d="M8.2 168.3c3.3 0 6.5 1.2 9.6 1.8 9.3 1.9 18 5.7 27.1 8.2 6 1.9 12.3 1.9 18.3.8 15.9-3.1 24.6-4.6 38.5 5.6h82" class="b"/><path d="M8.2 162q3.6.6 7 1.7a52 52 0 0 1 11.4 3.3c8.2 3.4 16.2 8.3 25.3 9q7 .6 14-1.1c5-1.2 9.8-2.9 14.8-3.5 3.4-.6 7-1.5 10.5-1 6 .9 10.7 5.3 14.9 9.5h77.7" class="b"/><path d="M8.2 157.8c2.4.6 4.7 1.7 7 2.4q6.4 1 12.3 3.9c7.8 3.7 15.5 8.6 24.4 9 7.8 1 15.5-1 22.7-3.6 3.8-1.3 7.7-2.2 11.4-3.9 10.7-4.5 16 2.6 22.7 9.6h75" class="b"/><path d="M8.2 155.3q3.5 1.5 7 3 2.7.5 5.3 1.2 6.2 1.9 12.2 4.4 6.4 2.9 13 4.7c6 1.3 12.3 2.1 18.4 1.3q5.9-1 11.4-2.9c2.6-.9 5.4-1.5 7.8-2.8 5.8-3 11.3-6 17.5-2q3.3 2.1 6.1 5c1.1 1 2 2.7 3.5 3.2h73.4" class="b"/><path d="M8.2 153.8c2.9 1.3 5.7 3 8.8 3.9 7.2 1.9 14.6 3 21.8 4.6q7.6 1.5 14.8 3.4h20.1q4.1-.8 7.9-2.4c2.4-1 4.7-2.5 7-3.7 5-2.9 10.5-3.6 15.7-.4q2.8 1.7 5.2 3.8c1.1.8 2.2 2.2 3.5 2.7h70.7" class="b"/><path d="M8.2 151.5q4 2 7.9 3.8c5.8 2.4 12.2 1.8 18.3 2q6.2-.1 12.3 1.4 3.5 1 7 2.2H79c4.3-1 8.1-3.8 12.2-5.7a19 19 0 0 1 17.5-.3c3.4 1.6 6.3 4.3 9.6 6h26.2q4.7-1.1 9.6-.7l6.1.8h17.5l6-2.1" class="b"/><path d="M8.2 147.7c3 1 6 2.6 8.8 4 5.2 2.5 11 1.3 16.6.8q6.1-.8 12.2.7c2.7.7 5.3 2 7.8 2.9 4.4.3 8.8 0 13.1.1h8.8c5.7-1.6 11.1-4 16.6-6.2 6.5-2.7 14.1-4.4 21-1.5 12.3 5.3 17 6.9 30.5 3.6 3.5-.6 7 0 10.5.8 6.2 1.3 13 3.1 19.2.8q5.3-2.2 10.5-4.3" class="b"/><path d="M8.2 142.7q4.6 1 8.8 3.6c5.3 3 11.6 1.7 17.4 1.3q5.3-.3 10.5.8c3 .8 5.7 2.5 8.7 3H65c1.8.1 3.6.2 5.2-.7 3-1.1 5.8-2.6 8.8-3.7q5.2-1.6 10.5-2.9c5.5-1.3 11-3.2 16.5-4.2 8.5-1.5 16.4 2.6 24.5 4.4q4.7 1.1 9.6 1c2.6 0 5.3-.5 7.9 0 8.6 1.8 15.7 5.2 24.4.9 3.8-2 7.4-4.4 11.4-5.8" class="b"/><path d="M8.2 137.6q3.3.4 6.1 1.8c1.5.7 3 1.8 4.4 2.4 5.8 2.6 12.2 1.6 18.4 2.1q4 .3 7.8 1.4l4.4 1.4H64l2.6-1.2c4.5-2.2 8.4-5.6 13.1-7.2 4.3-1.4 8.8-1.6 13.1-2.4q6.6-1.1 13.1-3c11.3-3.3 19.4 2.6 29.7 5.7q2.6.7 5.3 1 2.2-.1 4.3 0c8.3 1.2 15 5.4 23.6 2 5.3-2.1 9.6-6.3 14.9-8.5" class="b"/><path d="M8.2 133c4-.1 7.2 1.7 10.5 3.5q4.6 2.1 9.6 3l7.9 1.7c1.7.4 3.5 1 5.2.8h14c2.6-.1 5.3.2 7.9-.2 4.6-2.7 8.5-6.5 13-9.3 4-2.5 8.7-2.8 13.1-3.1q6.2-.3 12.3-1.3c4.6-.8 9.2-2.4 14-2 9 1 17 6.9 26.1 7.4 5.2-.2 10 1.9 14.9 3 12.3 3 17.3-2.9 27-8.4" class="b"/><path d="M8.2 128.5c5-1.1 8 .5 12.3 2.5q7 3 14 6.2 11.7.2 23.5 0c1.1 0 2.5.3 3.5-.3l6.1-4.9c10.4-8.9 13-8.8 26.2-8.5q5.7 0 11.4-.7c3.1-.3 6.4-1 9.6-.8 4.4.3 8.8 1.5 13 2.5q5.7 1.5 11.4 2.1c4.1.3 8.2.5 12.3 1.6 7 1.7 14.6 4 21.8 1.4 3.7-1.3 7-3.5 10.5-5.4" class="b"/><path d="M8.2 125.2q3.4-1.4 7-1.2c4.3.9 8.4 2.9 12.3 5l4.3 2.5 1.8 1H58c1.7-.4 3-2.1 4.4-3 6.5-5.4 12.9-11.3 21.8-10.9 5.2 0 10.5.4 15.7.2 5 0 10-.7 14.9-.3 5 .5 9.9 1.4 14.8 1.7 4.7.2 9.4 0 14 .3q7.5.5 14.9 2.2c10.5 2.4 15 4 25.3-1.3" class="b"/><path d="M8.2 123a23 23 0 0 1 7-1.9 27 27 0 0 1 12.3 3.6l5.2 3h22.7c7.2-5.3 14-12.4 23.6-12.6 5.8-.2 11.7 0 17.5-.5 5.8-.3 11.6-1 17.4-.1 4 .6 8.1 1.5 12.2 1.5q5.8-.2 11.4-.8 4-.3 7.9.3h6c5.2 0 10.2 1.3 15 3.1 6.3 2.5 10.8 3.3 17.4.7" class="b"/><path d="M8.2 121.5c9.5-3.4 14.6-2.3 23.6 1.5h18.3q1.5.2 2.7-.5c9.8-7.7 14.7-12.5 28-10.6 5.8.4 11.7-.8 17.4-1.9 15.8-3.5 17.8 2.5 31.4 2.3 3.5 0 7-.7 10.5-.7 2 0 4.1.6 6.1.5 4.4-.2 8.8-1 13.1-.1 9 1.7 14.6 8.6 24.5 5.7" class="b"/><path d="M8.2 118.3h3.5l3.5-.6q3.5-.6 7-.4c3.3 0 6.4 1 9.6 1h11.4c2-.1 4.1.2 6-.2 5.6-3.4 10.4-8.4 16.7-10.4 7-2.5 13 1 20 .2 8-.8 15.5-5.2 23.6-4.8 6.2.6 11.5 4.4 17.5 5.7 4 1 8.2 1 12.2 1.3 2 .1 4.1.8 6.1.8q3.1 0 6.1-.6c4.1-.6 8.4-.6 12.3.9 7 2.5 12 7 20 4.7" class="b"/><path d="M8.2 113.5h7.9q4.7-.8 9.6-.9c5-.1 9.9 1.2 14.9 1 5.5 0 6.4.4 11.3-2.6 7-4.4 14-9.2 22.7-8.6 4 .2 8.2 1 12.2.1 9.5-1.3 19.4-7.1 28.9-3 4.2 2 8 4.6 12.2 6.5q5.8 2.8 12.2 4.3 2.2.6 4.4 1.1c3.8.6 7.6-.4 11.3-.7 5.4-.5 10.7 1 15.8 2.8h12.2" class="b"/><path d="M8.2 108.8c7.4.3 14.4-3.4 21.9-3 5.8.2 11.5 2.9 17.4 2 7.4-1.5 13.9-5.5 21-7.8q4.3-1.4 8.7-2 4-.2 7.9-.7c6.7-1 13.3-2.6 20-3 3.6-.2 7.3-.5 10.6.9 7.1 3 13 8.4 20 11.9l3.5 1.7h44.6" class="b"/><path d="M8.2 103.2q6.3-.6 12.3-2.9a24 24 0 0 1 17.4-.3c2.9 1 5.8 2.3 8.8 2.8a39 39 0 0 0 15.7-2C67.5 99 72.2 96 77.2 94a76 76 0 0 1 24.5-3.3q5.6.2 11.3 0c6.6.7 12.1 4.9 17.5 8.3q3.8 2.7 7.9 5h45.4" class="b"/><path d="M8.2 98.1q5-.9 9.6-2.8c3.2-1.3 6.3-3 9.6-3.7 6.8-1.5 12.6 2.9 18.4 5.6 2.2 1 4.7 1.3 7 2 1.7.3 3.5 0 5.2.1h4.4c4.9-1.2 9-4.4 13-7.1q7.7-4.9 16.7-5.3c5.2-.3 10.5.9 15.7 1q3-.2 6.1-.5 4-.1 7.9 1c7.2 2.3 13.5 6.9 20 10.7 1.7.5 3.6.1 5.3.2h36.6" class="b"/><path d="M8.2 94.5q6-1.5 11.4-4.4c6-3.7 11.5-6.5 18.3-3q4.1 2.1 7.9 4.7 2.5 1.3 5.2 2.5c1.3.5 3 .2 4.4.3h13c1 .1 2-.6 2.7-1.1l3.5-2.7q4.3-3.6 9.6-5.7C92 81.9 99 83.7 107 84c2.7.1 5.3-.6 7.9-1q4.7-.8 9.6-.2c6.6 1 12.6 4.4 18.3 7.7 2.2 1.1 4 3 6.1 4h35" class="b"/><path d="M8.2 89.8h7.9c1.6-.2 3-1.5 4.4-2.3 11-8.2 15-7.6 26.2-.4 1.7.8 3.5 2 5.2 2.7h21c1.3.3 2.4-1 3.4-1.7l4.4-2.8c5.1-2.9 10.8-5 16.6-5.5 4.4-.4 8.8-.2 13.1-1 7.1-1.6 14.6-3.5 21.8-1.4 6.1 1.7 11.9 4.7 16.6 9 1.4 1 2.8 2.6 4.4 3.4h30.6" class="b"/><path d="M8.2 85h11.4q1.5.3 2.6-.7l3.5-2.4q7.5-5 15.7-1.6 3.9 1.8 7.9 3.7c.7.4 1.7 1 2.6 1h29.7q2.2-1 4.3-2.2 6-3.2 12.3-5.4c6.8-2.5 14.1-3.1 21-5.7 4.1-1.4 8.6-2.6 13-2.1q7.8 1 14 5.8 3.7 3.2 7 6.6c1 1 2.2 2.4 3.5 3.1h27" class="b"/><path d="M8.2 80.4h14.9q3.3-1.9 7-3 4.6-1.2 9.6-.1 3.5.9 7 2.1l2.6.9h40.2q1 0 1.7-.6l3.5-2.2q3.8-2.5 7.9-4.6 3-1.6 6-2.6 2.7-.6 5.3-1.3c3.3-1 6.4-2.8 9.6-4a20 20 0 0 1 19.2.5c5.1 3 9 7.7 13.1 11.8 1 1 2.2 2.4 3.5 3h24.5" class="b"/><path d="M8.2 75.6h13.1c1.5-.2 3-.8 4.4-1q4-.7 7.9-.4c2.9.1 5.8 1 8.7 1.4H92q1.3 0 2.6-.3 5-4 10.5-7.4a20 20 0 0 1 5.2-2.2q2.2-.4 4.4-1.1c3.9-1.6 7.4-4 11.3-5.5a18 18 0 0 1 18.4 2.1c4 2.8 7.7 6.3 11.3 9.6l3.5 3.2c.7.5 1.6 1.6 2.6 1.6h21.9" class="b"/><path d="M8.2 70.3q3.6.5 7-.3c2-.6 4-1.5 6.1-1.6 3.3-.3 6.6.4 9.6 1.3l3.5 1q1.3.3 2.7.2h58.5c4-2.9 7.7-6.5 12.2-8.7 1.9-1 4.1-1 6.1-1.6q4-1.6 7.9-3.6c6.3-3.4 12.6-4.7 19.2-1.3 8.2 4.4 15.5 10.5 23.5 15.2h19.3" class="b"/><path d="M8.2 62q5 .5 9.6-1c4.3-1 8.5 1 12.3 2.8l4.3 2.2c3.5.3 7 0 10.5.1h49c1.2.2 2.4-1 3.4-1.6l3.5-2.6c2.7-2 5.5-4 8.7-5 1.4-.5 3-.5 4.4-1 9.1-3 15.2-8.2 25.3-3.8 4.5 2 8.7 4.6 13.1 6.5 5.8 2.6 11.8 4.7 17.5 7.3 1.7.5 3.6.2 5.2.2h8.8" class="b"/><path d="M8.2 55.2q5 .1 9.6-1.2c5.5-.8 10.4 2.5 14.9 5q2.1 1.3 4.4 2.4h54.2c4.8-2.1 9.1-5.3 13.9-7.6q2.5-1.1 5.2-1.7 3.1-.3 6.1-1.3c5.1-1.7 10.3-3.9 15.7-3.4 5 .2 9.5 2.8 14 4.8q7.3 2.8 14.9 4.5 4.4 1.1 8.7 2.5c1.7.6 3.5 1.6 5.2 2.2h8.8" class="b"/><path d="M8.2 49q3.5-.4 7-.9 3.5-.9 7-.1c6.4 1.6 11.6 6 17.5 8.6h21.8q3.5-.4 7-.3c5.5.1 11.2 1 16.6-.7 6.8-1.7 13.2-4.8 20-6.2 3.5-.8 7.1-.2 10.6-.9 4.4-.8 8.6-2.3 13-2.9 9.7-1.4 14.9 3 23.7 5.1 5.4 1.5 11 2.2 16.5 3.6q3.7 1 7 2.3h7.9" class="b"/><path d="M8.2 43.4q5.2-.7 10.5-1.2c8.2.4 14.7 6 21.8 9.3a3 3 0 0 0 1.8.4h27.1c2.8-.1 5.8.2 8.7-.2 4.2-.7 8.2-2.6 12.2-4q5.5-2 11.4-2c8.8.6 11.4 3 21 .4 6.2-1.5 12.7-4 19.1-2.4q4 1.2 7.9 2.5c7.4 2.7 15.1 4 22.7 5.6q5.7.1 11.4.1" class="b"/><path d="M8.2 38.5a33 33 0 0 1 25.4 4.7l5.2 2.9c.8.3 1.8 1 2.6 1h35q3.4.2 7 0 4.1-2.6 8.7-4.4c3.6-1.3 7.7-1 11.3.3 2.6.9 5.2 2.2 7.9 3 6.2 1.8 12.7-.6 18.3-3.2 3.9-1.6 8-3.7 12.3-3.2 5.4 1 10.4 3.8 15.7 5.6 2.2.7 4.6 1.9 7 2h19.2" class="b"/><path d="M8.2 34c11.7-.3 16 .4 26.2 6l4.4 2.4h49c2.1-1.2 4.4-2.6 6.9-3.1q4.6-.7 8.7 1.4 1.8 1 3.5 1.7h17.5q1.4 0 2.6-.2l3.5-2.2q3.7-2.6 7.9-4.3c2.5-1 5.3-.6 7.8.3q4.6 1.8 8.8 4.1l4.3 2.1q1.7.3 3.5.2h21" class="b"/><path d="M8.2 29.1c5.6 1 11.4.8 16.6 3q4.1 1.6 7.9 3.8 1.6 1 3.5 1.8H92c1.7 0 3.4-1 5.2-.8q2.2 0 4.4.8h27c4.2-2.6 8-6.8 13.2-7.1 3 .1 6 1.6 8.7 2.9l5.2 2.7 2.6 1.3q1.4.3 2.7.2h22.7" class="b"/><path d="M8.2 25c4.9 1.4 10.2 1.5 14.9 3.5q3 1.2 6 2.9c1.2.5 2.3 1.4 3.6 1.5h97c8.7-6 10.5-8.2 20.9-3q3 1.5 6 2.8 1.8.4 3.6.2h23.6" class="b"/><path d="M8.2 21.3c4 1.5 8.3 2 12.3 3.4q2.6 1 5.2 2.2c1.1.4 2.3 1.4 3.5 1.3h101.3c3.2-2.1 6.6-4.3 10.5-4.4 4.6.3 8.7 3.2 13 4.4h29.8" class="b"/><path d="M8.2 17.4c3.7 1.5 7.6 2.3 11.4 3.5l4.3 1.7c.8.3 1.8 1 2.7.8h103.9q1.3-.4 2.6-1 6-3 12.3-.2c1.6.6 3.4 1.5 5.2 1.3h33.2" class="b"/><path d="M8.2 12.7c5.8 2.2 11.8 3.6 17.5 6h103.1c1.4.2 3-.3 4.3-.7q2.2-.6 4.4-.6 3.1 0 6.1 1.3h40.2" class="b"/></svg>