<svg xmlns="http://www.w3.org/2000/svg" id="a" width="1920" height="2400" viewBox="0 0 192 240"><defs><style>.b{fill:none;stroke:#fff;stroke-miterlimit:10;stroke-width:.4px}</style></defs><path d="M0 0h192v240H0z" style="stroke-width:0"/><path d="M8.1 230.5h78.7q3-.6 6.1-.5 1.8.1 3.5.5h41.1c1 0 1.9-.8 2.7-1.2 4.2-2.4 9.4-2.3 14-1.2l4.3 1.3q1.8.8 3.5 1H184M8.1 225.7h78.7c2 0 4.1-.4 6.1-.3q4.9.5 9.7.3h35.8c1.1 0 2.5.2 3.5-.2q3.9-1 7.9-.5c2 .2 4 .9 6.1.7h28M8.1 221H184M8.1 216.2H184M8.1 211.5H184M8.1 206.7H184M8.1 202h112c2.5-1 5-2.4 7.8-2.5q3.7 0 7 1.5l1.8.8q1.7.3 3.5.2h43.7M8.1 197.2h106.7c1.5.2 3-1 4.4-1.5q3.7-1.8 7.8-2.2c3-.3 6 .5 8.8 1.6l3.5 1.7.9.4h43.7M8.1 192.5h101.5l7.8-2.3q7.7-2.4 15.8-1.1 5.3 1.1 10.5 2.5l2.6.9h37.6" class="b"/><path d="M8.1 187.7h81.4c4.3 0 8.8.4 13-.5q3.7-.4 7-.9 4.5-1 8.8-1.3c7.6-.4 15.2 0 22.8-.4q4.9-.4 9.6 1c2.3.4 4.6 1.7 7 2.1h26.2M8.1 183H93c1.5-.2 3-1 4.4-1.3 5.2-1.2 10.5 0 15.8-.8 5.2-.2 10.4 1 15.7.6a44 44 0 0 0 9.6-2c3.4-1.1 6.9-2.4 10.5-2.5 4.5-.2 9 1.2 13.1 3l5.3 2.3 1.7.7h14.8" class="b"/><path d="M8.1 178.2h83.1c1.2 0 2.4-1 3.5-1.3q2.1-.7 4.4-.9c3.2-.2 6.4.6 9.6 1 2 .1 4.1-.3 6.1 0 8 1 13.2 2.2 21-1.6 3.8-1.7 7.4-4 11.4-5.1 5.6-1.8 11.5 0 16.6 2.7 3 1.5 6.2 3.4 9.6 4q5.2.1 10.5 0" class="b"/><path d="M8.1 173.5h82.2c2.5-1 5.1-2.2 7.9-2.2 5 0 9.8 2.4 14.9 1.6 8.1.3 13 1.7 21-2.3 4-2 7.8-4.7 12.2-6 6-2.1 12.3.4 17.5 3.5 3 1.7 6.1 3.7 9.6 4.3q5.2.2 10.5 0" class="b"/><path d="M8.1 168.7h80.5q3.2-1.7 7-1.8c2.7 0 5.3.9 7.8 1.8h20.2c7.5-1.5 13.6-7 21-9 5.3-1.3 10.9.5 15.7 2.9 4 1.8 7.9 4.2 12.2 5 3.8.2 7.6-.3 11.4-.3" class="b"/><path d="M8.1 164h77c1.5.1 2.9-1 4.3-1.3a15 15 0 0 1 9.7.7c1.6.8 3.5.6 5.2.6h18.4c6.6-3 12.7-8 20-9 8.1-.5 15.2 4.5 22.8 6.3q4 1 7.9.9 5.2-.5 10.5-.8" class="b"/><path d="M8.1 159.3H86q1.7-1 3.5-1.4 3.6-.9 7 0 2.3.6 4.4 1.4H120q2.8-1.5 5.3-3.3c5-3.1 10.5-6.5 16.6-5.7 5.3.7 9.8 4 14.9 5.5q5.5 2 11.3 1.2c5.3-.7 10.5-2 15.8-2" class="b"/><path d="M8.1 154.5h78.7c1.5-.1 3-1.1 4.4-1.3q4.8-1 9.6.4 1.8.6 3.5 1h11.4c1.5-.5 3-1.6 4.3-2.4q3.9-2.7 8-5a16 16 0 0 1 14.8-1c4.7 2.1 8.8 5.8 14 7 5.4 1.6 10.7-.8 15.7-2.6q5.6-1.7 11.4-1.8" class="b"/><path d="M8.1 149.8h79.6c1.2.1 2.4-.7 3.5-1.2a21 21 0 0 1 5.2-1.7c4.1-.7 8.2.2 12.3.7 7 1 12.2-4.7 18.3-7 6.6-2.8 13-.7 18.4 3.3 3 2 6.1 4.5 9.6 5.8h8.8c3.3-.7 6.3-2.8 9.6-4q5.1-1.5 10.5-1.5" class="b"/><path d="M8.1 145h80.5l3.5-2.2q3.2-1.8 7-2.8c5.7-1.5 12 .4 17.5-2 8.2-3.4 14.2-5.9 22.7-1.4a66 66 0 0 1 7.9 5c1.9 1.2 3.8 3 6 3.4h8c2 0 4.1.2 6-.2l5.3-2.1q5.6-1.6 11.4-1.3" class="b"/><path d="M8.1 140.3h77q1.3 0 2.6-.2l1.7-1.2 5.3-3q6.6-3.3 14-3.7c9.4-.8 15.5-6 25.3-1.8 4 1.7 7.7 4.3 11.4 6.6l4.4 2.4c.7.4 1.8 1 2.6.8h14.9q3-1 6-1.4 5.4-.1 10.6 0" class="b"/><path d="M8.1 135.5h77q3.4-2 7-3.7 7.5-3.5 15.7-5.3c8.8-1.7 15.6-5.9 24.5-1.7 3.7 1.7 7 4.2 10.5 6.3a31 31 0 0 0 22.7 3.8c3.5-.5 7.1-.7 10.5.3 2.6.6 5.3.2 7.9.3" class="b"/><path d="M8.1 130.8h69.1l2.6-.1a92 92 0 0 1 8.8-3q10-3 20-6.4c7.9-2.4 14.6-6.2 22.8-2.6 13.6 6.6 11.3 10.2 28.9 9.5 5 0 10.2.4 14.8 2.5h8.8" class="b"/><path d="M8.1 126h19.3q3.3-.9 7-.9c2.3 0 4.7.7 7 1h19.2c4.6-.2 9.4 0 14-.2 5.5-2.6 11.6-3.1 17.5-4.2 7-1.2 13.5-4 20-6.6 5.6-2.3 11.5-5.2 17.6-3.5 3.8 1 7.2 3.1 10.5 5.1 2.8 2 6 3.5 9.6 3.7 5.2.4 10.6-.1 15.7 1.3q3.7 1 7 2.8c1.1.4 2.3 1.6 3.5 1.5h7.9" class="b"/><path d="M8.1 120.8h6.1q2.7.1 5.3-.2c3.2-.6 6.4-1.8 9.6-2.3q4.9-1 9.6.1c3.3.7 6.4 2 9.6 2.7 3.2.4 6.5 0 9.7.2h10.5c2-.1 4.2.3 6-.5 7.1-2.6 14.8-2.6 22-5.1 6-2 11.6-5 17.4-7.4 3.1-1.4 6.3-3 9.6-3.7 9-1.8 14.5 4 22 7.3 5.5 1.8 11.7 1 17.4 2.7 4.8 1.3 9 4 13.1 6.5 2.6.4 5.3 0 7.9.2" class="b"/><path d="m8.1 113.7 6.1.1c1.7 0 3.6.3 5.3 0 3.8-.6 7.5-2 11.4-2.7q5.7-.8 11.3.7l8.8 2.3q3.8 1.2 7.8 2 3 .6 6.2.4 2.6.1 5.2-.2l8.7-1.7q7.3-.9 14-3.3c5.2-1.9 10-4.7 15-7 2.7-1.4 5.8-2.3 8.6-3.6 11-4.6 16.9-1.4 26.3 4.4 3.9 2.3 8.6 2.4 13.1 2.7 5.4.2 11 1.3 15.7 3.9 3 1.5 5.8 3.4 8.8 4.8h3.5" class="b"/><path d="M8.1 106.8q4.9.5 9.6 1.3c5.4.2 10.5-2.4 15.8-3.2q6.1-1 12.2.4c11.6 2.7 16.3 5.3 28.9 3.6q4.4-.4 8.7-.8 4.5-.7 8.8-2.4c5.4-2.2 10.3-5.6 15.7-8q4.7-1.8 9.6-2.8c9.7-2.7 16.4.7 24.5 5.7 3.3 2.2 7.4 3 11.4 2.8 6.7-.3 13.8-1 20 2 3.6 1.7 7 3.8 10.6 5.3" class="b"/><path d="M8.1 100.2q4.5 1.1 8.8 2.5c6 1.5 11.8-1.5 17.5-2.9 3.9-1 8.1-1.6 12.2-.8 5.4 1.4 11 3 16.6 3 6.1.2 12.2-.9 18.4-.3 10 0 18-7 27-10q2.6-.7 5.3-1 4.4-.8 8.8-.8c8 0 15 4.7 21.8 8.4q5.1 2 10.5 1.3c6.4-.6 13-2.3 19.2 0 3.4 1.3 6.5 3.3 9.7 4.8" class="b"/><path d="M8.1 94.3Q13 96 17.7 98c5.3 1.7 10.8-.4 15.8-2 4.2-1.4 8.6-2.8 13.1-2 10.2 3 16 1.5 26.2.4q2.6-.2 5.3 0l4.4.6q4 .1 7.8-1c5.8-1.6 11-4.8 16.6-6.6 2.8-1 5.9-.9 8.8-1.1 4.6-.3 9.4-.3 14 .9 5.3 1.2 10 4 14.8 6.6 4 2 8.7 2.2 13.2 1.8 4.9-.4 9.9-1.5 14.8-.7 4.1.6 7.7 3 11.4 4.9" class="b"/><path d="M8.1 88.8c3.3 1 6.5 2.8 9.6 4.2 6.1 2.3 12.5 0 18.4-1.8 3.6-1 7.6-2 11.4-1 8.5 3.2 16.8-.6 25.3-1.8q4.5-.4 8.8.9 3.9.6 7.8-.2c6.1-1.1 11.6-4.3 17.5-5.8 3.1-.8 6.5-.5 9.6-.8 5-.4 10-.8 15 0q4.6.9 8.7 2.8c2.8 1.4 5.6 3.2 8.7 4.3q5.5 1.8 11.4 2c11 .4 13.5-.5 23.6 5.1" class="b"/><path d="M8.1 83.7q5 1.4 9.6 3.5c7.5 2.6 15.2-.3 22.8-1q3-.2 6.1.4 3.4 1.2 7 1.5c7.2.4 13.9-3 21-3.3 3-.2 5.8 1.1 8.7 1.5 8.7 1.2 16.4-4.1 24.5-6.2 3.2-.6 6.5-.4 9.6-1.3 7.1-1.8 14.7-4.3 21.9-1.6 3.4 1.2 6.4 3.4 9.6 5q6.6 3.8 14 6 6.1 1.5 12.2 2.7c1.8.4 3.5 1.4 5.3 1.9h3.5" class="b"/><path d="M8.1 79.2c4.5.2 8.7 2 13.1 2.5 5 .6 10 .2 15 .1q4.8 0 9.5.9c3.2 1 6.3 2 9.6 1.9 7.4 0 14.6-3.2 22-2 2 .4 4 1.4 6 1.8 7.3 1.6 14.4-1.4 21-4q3-1.2 6.1-1.9 3.8-.4 7-2.1c7-3.6 14.5-9.9 22.8-6.7 5 2 8.8 6 13.1 9.1a41 41 0 0 0 30.6 9.2" class="b"/><path d="M8.1 75.6c5.6-.4 11.1.7 16.6.4 5 0 10-.1 14.9.6 3.9.5 7.6 2 11.4 2.9 4.3.9 8.7.5 13 0 16.5-2 14.4 3 26.3 3.7 6.9 0 13-3.7 19.3-5.9 7.1-1.3 11.7-7.6 17.4-11.4 5-3.6 10.6-4.7 15.8-1 8 5.9 13.5 15.7 23.6 18.4h17.5" class="b"/><path d="M8.1 73c3.8-.6 7.6-.7 11.4-1.3 5.5-.9 11-2 16.6-1.5q4.6.4 8.7 1.5 3.9 1.4 8 2c6.6 1 13.4 0 20 1q3.7.6 7 2 2.1 1.2 4.4 1.8h11.4c1.7 0 3.5.2 5.2-.2q4-1.8 7.9-3.8c1.3-.7 3-1.2 4.3-2 3.3-1.9 6-4.8 8.8-7.4 5-4.8 11.4-9.8 18.3-5.7 7.2 4.2 11.1 12 17.5 17.2 1 .7 2.2 2 3.5 2H184" class="b"/><path d="M8.1 70.9q5.3-.6 10.5-2.3c5.4-1.8 10.8-4.3 16.6-4.7q4.9-.4 9.6.9 3.9 1.2 8 2c6.6 1 13.4.3 20 2q4.1.8 7.9 2.9c1.6.7 3.4 2 5.2 2h14c2.8-1.2 5.4-3 7.9-4.4 2-1.3 4.3-2.1 6.1-3.5 3.1-2.3 5.8-5.2 8.8-7.7 7.8-6.7 13.8-5.3 21 1.4 4.4 4.4 7.6 9.9 12.2 14 1.6.5 3.5.2 5.2.3h17.5q2.6-.9 5.3-1.3" class="b"/><path d="M8.1 68c10.3-.2 16.8-7.5 26.3-10q5.6-1.5 11.3-.1c2.6.6 5.2 1.5 7.9 1.7 7 .8 14.2.3 21 2.5 6.4 2 12 7.4 19.2 6.4 5-.7 9.1-3.9 13.1-6.6q3-2 6.2-3.7c2.4-1.6 4.6-3.7 7-5.4 5.2-4.2 10.6-6 16.6-1.8q4.3 3 7.8 6.8c3.1 3.5 5.7 7.4 8.8 11q1.2.3 2.6.2h23.6c1.5-.3 3-1.3 4.4-1.7" class="b"/><path d="M8.1 63.4q6.2.3 11.4-2.7c6-3.3 11.5-8 18.3-9.6q4-.9 8-.3c2.2.5 4.6 1.3 7 1.5 5.4.8 11 .3 16.5 1q4.5.6 8.8 2.4c4.6 2.3 9.4 5.4 14.8 4.9 5.3-.5 9.8-3.8 14-6.7q3-2 6.1-3.7l5.3-3.5c7.5-5.2 13.2-4.5 20.1 1.4q3.8 3 7 6.5c2.8 3 5 6.8 7.9 9.7h26.2c1.4-.1 3.2.4 4.4-.6" class="b"/><path d="M8.1 57.3c6.2 1.2 10.7-.5 15.8-3.8 7.8-5 16.3-12.4 26.2-8.9 7.7 1.8 15.8 1 23.6 2.5 6.1 1 11.3 5.2 17.5 6 5.7.8 11-2 15.7-4.9q3.9-2.3 7.9-4.5c4-2.2 8.5-4.3 13.1-3.6s8.6 3.6 12.3 6.2q2.7 1.9 5.2 4 4.1 4.3 7.9 9c1.3.5 3 .2 4.3.2H184" class="b"/><path d="M8.1 50.8c3.4.9 7 1.6 10.5.6 9-2.5 15.5-10.4 24.5-13 3.8-1 7.6.8 11.4 1.3 7.7 1.7 15.8 1.2 23.6 2.9 7.3 1.9 14 6.4 21.8 4.6 8-1.5 14.4-8.2 22.8-8.6 6.2-.5 12 2.6 17.5 5.3 2.4 1 5 2 7 3.7 2.8 2.1 5 5.2 7.8 7.2H184" class="b"/><path d="M8.1 44.7c2.6.7 5.2 1.7 7.9 2 8.3.7 15.2-4.8 21.8-8.9 6.7-4 8.6-3.7 15.8-1.6a77 77 0 0 0 21 2.6q3.5 0 7 .7 4 1.2 7.9 2.6c4.4 1.6 9.3 2.6 14 1.5 8.1-2 10.3-6.7 20-5.6 6.6.7 12.7 3.7 19.3 4.4 5.5.4 9.5 5 14 7.7h27" class="b"/><path d="M8.1 39.8q3.6 1.2 7 2.4c6.9 2 13.3.2 19.3-3.4 3.8-2 7.7-5 12.2-5.2 4.8.4 9.3 2.6 14 3.4 5.5 1.2 11 .8 16.6.4q5.4-.4 10.5 1.3c6.5 2.2 13.5 4 20.1 1.2 2.4-.8 4.5-2.5 7-3 6.5-1.5 12.9 1.7 19.2 2.9q3.5.7 7 .6c2.3-.2 4.8-.5 7 .1q3.8 1 7 3c1.1.6 2.3 1.6 3.5 1.8h15.8q4.4.2 8.7-.1l.9-.7" class="b"/><path d="M8.1 36.7c3.8 1.1 7.4 3.1 11.4 3.8h6.1C30 41 34 38.8 37.8 37c3.5-1.7 7.5-3.5 11.4-2.2 7.5 2.1 14 4.1 21.9 2.8 4-.5 8.1-1.7 12.2-1.4 6.4.5 12.8 2.4 19.3 1 8.6-1.4 9.8-6.7 19.2-3.6 6.3 2 12.4 5.7 19.2 5.2 2.3-.3 4.7-.8 7-.6q4.6.6 8.8 2.5h24.5l2.6-1.6" class="b"/><path d="M8.1 34.3q2.7.8 5.3 1.5h61.2q1.8-.2 3.5-.8 2.6-.6 5.2-.8 6.2-.4 12.3-1.3 5.9-1.1 11.3-3.6c2-.8 4-2 6.2-2.6 4.7-1 9.2 2 13 4.2 3.2 1.8 6.2 4 9.7 4.9h44.6c1.2 0 2.4-1 3.5-1.5" class="b"/><path d="M8.1 31H85q4-1 8-2.6 7.5-3.2 14.8-6.5c5.8-2.7 8.6-2.3 14 1.1 3.9 2.5 7.4 5.7 11.4 8h48.1l2.6-.9" class="b"/><path d="M8.1 26.3h78.7c5.6-2.8 11-6.3 16.6-9 7.6-3.4 11.1-4.5 18.4.4q4 2.8 7.9 5.7 2 1.5 4.3 2.9h44.6q2.6.2 5.3-.7" class="b"/><path d="M8.1 21.6h14c.8 0 1.8-.6 2.6-.8q2.2-.7 4.4-.7t4.4.9q1.6.7 3.5.5h46.3c1.1 0 2.6.3 3.5-.4 4.7-2.8 9.2-6 14-8.3 7.2-3.5 12.8-4.7 20.1-.7 4.2 2.1 8.1 4.8 12.2 7l3.6 1.7q1.1.8 2.6.7h42l2.6-.9" class="b"/></svg>