<svg xmlns="http://www.w3.org/2000/svg" id="a" width="1920" height="2400" viewBox="0 0 192 240"><defs><style>.b{fill:none;stroke:#fff;stroke-miterlimit:10;stroke-width:.4px}</style></defs><path d="M0 0h192v240H0z" style="stroke-width:0"/><path d="M8 223q3.1.8 6.2 2l6 3c2.3.4 4.8 0 7 .2h34.2a177 177 0 0 1 30.7-8.8q6.5-1.6 13.1-2.6c12-2 22.2 6.2 32.4 11.2 2.3.4 4.7 0 7 .2h13.1c7.5-.1 15.4.2 22.8-.1q1.7-1.6 3.5-2.7" class="b"/><path d="m8 221 5.3 1.5c1 .3 2.3 1 3.5 1H36l12.3-.1c7.6-1.7 15-4 22.8-5.2 11.4-1.8 22.5-5.5 34.1-6.6 9-1 16.2 2.9 23.6 7.2l6.2 3.4c1 .4 2.2 1.4 3.5 1.2h40.2c.5 0 1.4-.4 1.8-.7l3.5-2" class="b"/><path d="M8 218.7h30.7l2.6-1.3a47 47 0 0 1 21-5c5-.1 10 .6 14.9.2 5.6-.7 11-2.9 16.6-4a41 41 0 0 1 28 2.6q6 2.7 12.3 5.3c2.3.8 4.6 2 7 2.2h32.4c3.4-1.3 6.8-3 10.5-3.6" class="b"/><path d="M8 214h24.5c1.7-.2 3.7.2 5.3-.4l2.6-1.9c6.1-4.6 12.3-7.6 20.2-6.3 5 .6 9.8 2.6 14.8 3.1 4.6.5 9-1.6 13.2-3 8.5-3 15.7-3 24.5-.7 4 1.1 8.1 2.7 12.2 3.8q6 1.8 12.3 2.5c6.4 1 12.8 2.4 19.3 1.8 9-.4 18-4.1 27-3.5" class="b"/><path d="M8 209.2h29.8c6.6-5.1 12.7-11.6 21.9-9.8 4.5.8 8.7 3 13.1 4.3q4.4 1.5 8.8.1c4.6-1.5 9-3.9 14-4.7 7.8-1.3 15.2 2.2 22.7 3.8 6 1.6 12.3 1.4 18.4.9 3.2-.3 6.4.2 9.6.3 5.9-.1 11.7-1.5 17.5-1.6q10.2-.1 20.2 1.6" class="b"/><path d="M8 204.4h31.5c7.9-5.9 13-12 23.7-8.7 4.4 1.3 8.5 3.6 13.1 4.2 5.6.6 10.5-3.3 15.8-4.6 5.9-2 11.8-.4 17.5 1.5 4.8 1.4 9.8 2.5 14.9 2 5.3-.2 10.4-2.4 15.7-3.1 2.3-.3 4.7.2 7-.1 4.7-.5 9.3-1.5 14-1 4.5.3 8.9 1.8 13.2 3q4.6 1.5 9.6 2" class="b"/><path d="M8 199.7h34.2c1.2-.5 2.4-1.7 3.5-2.4 5.5-4.7 11-7 18.3-5.5 5.5 1 11 3.9 16.7 2.5 3.3-.8 6.4-2.4 9.6-3.4q5.2-1.6 10.5-.9 4.5.9 8.8 2.1 6.4 1.6 13 1c5.8-.7 11.1-3.4 16.7-4.7 2.6-.6 5.3-.2 7.9-.4a39 39 0 0 1 14 .7c8 2.3 14 7.2 22.8 7.2" class="b"/><path d="M8 195h36.8c1.3.1 2.5-1 3.5-1.7q1.7-1.1 3.5-2 5.8-3 12.3-3.3c5.5-.3 11.1.7 16.6-.4a39 39 0 0 1 24.5-.2 35 35 0 0 0 18.4-.8c4.5-1.3 8.7-3.4 13.1-5q4.3-1.4 8.8-1.1 3.5 0 7 .2c12.5 1.5 18.4 12.2 31.5 12.5" class="b"/><path d="M8 190.2h42q4-1.9 8-3.3 8-2.9 16.6-4.6a51 51 0 0 1 14.8-1.3c5.7.4 11 2.8 16.7 3.7 3.5.7 7.1-.5 10.5-1.6 7.8-2.5 14.7-7.4 22.7-9.5 2.3-.6 4.7-.5 7-.5q7 0 13.1 3.6c5.9 3.4 10.4 9 16.7 11.6 2.5 1 5.1 2.1 7.9 1.9" class="b"/><path d="M8 185.4h48.2q5.3-1.7 10.5-4c9-4 14.5-6.7 24.5-3.5 4.3 1.3 8.6 3.2 13.1 3.8 5.2.8 9.7-2.5 14-4.9 7-3.9 13.9-8.7 22-10 13.5-1.4 18.5 2.6 28 11.6q4.5 4.6 10.4 7h5.3" class="b"/><path d="M8 180.7h55.2c2.7-.7 5.3-2.3 7.8-3.5 3.3-1.6 6.8-3.4 10.5-3.4 7.3-.1 13.8 4.2 21 4.5 6.1.5 10.3-3.6 15-6.8a48 48 0 0 1 21.8-10.2c14-1 18.3 1.5 28 11.4 3 3.1 6.5 6.2 10.5 8h6.2" class="b"/><path d="M8 175.9h62.2q1.7-1 3.5-1.7c9.3-4.8 16-.1 25.4.1 7.3.2 11.3-3.5 16.6-7.8 6.3-5 13.7-9.2 21.9-9.5q4 0 7.9.3c10 0 15.3 4.8 21.8 11.6 2.7 2.5 5.3 5.7 8.8 7h7.9" class="b"/><path d="M8 171.1h68.3q1.7-.5 3.5-.8c9.5-1.3 18.2 1 27.2-4.1 3.4-1.8 6.3-4.6 9.6-6.7q10.8-7.6 23.6-5.2 5.2.8 10.5 1.7c8.8 2 14.5 9.5 21 15 4 .3 8.2 0 12.3.1" class="b"/><path d="M8 166.4h80.6c4.4-1 8.8-2.9 13-4.6 4.7-1.8 9-4.4 13.2-6.8 4-2 8.5-3.7 13.1-3.9 6.1-.4 12 1.7 17.6 3.6 4.1 1.2 8.4 2.4 12.2 4.4 4 2 7.6 4.9 11.4 7.3H184" class="b"/><path d="M8 161.6h80.6l1.7-.8q7.5-4.6 15.8-7.5c9-3 18.5-6.3 28-3.7 4.7 1 8.8 3.7 13.1 5.7q7.7 3.6 15.8 6.2c7 .3 14 0 21 .1" class="b"/><path d="M8 156.9h78c9.1-6.3 13.5-10.1 25.3-9.8 7.6 0 15.3-1.8 22.8.2a27 27 0 0 1 9.6 4.9l5.3 3.6c.7.4 1.7 1.1 2.6 1H184" class="b"/><path d="M8 152.1h66.6c2.3 0 4.7.3 7-.1q1.8-1 3.5-2.3c3.6-2.6 7.1-5.6 11.3-7.2 5.8-2.4 11-.2 16.7 1.2 5.2 1 10.5.1 15.7.2 4.7 0 9.5 1.2 13.2 4.1 1.7 1.3 3.2 3.3 5.2 4.1H177c2.3-.1 4.7-.5 7-.3" class="b"/><path d="M8 147.4h60.4c2 .1 4.2-.5 6.2-.9q3.6-.7 7-2.4c5-2.8 9.1-7.4 14.8-8.7 6-1.5 11.3 2.4 16.7 4.5q4.7 1.4 9.6 1c9.8-.6 15.4-1.1 22.8 6.5h27.1c1.5-.2 3-1.2 4.4-1.6q3.3-1 7-1.1" class="b"/><path d="M8 142.6h49.1c2.3 0 4.8.4 7-.4 5.2-1.7 10.6-2.6 15.7-4.6 2.8-1 5.3-2.9 7.9-4.4 5.8-3.5 11.3-4.4 17.5-1.2 2.3 1.1 4.7 2.6 7 3.6 5.5 2.6 11.7 1.5 17.5 1.2q5.1-.2 9.6 1.7a18 18 0 0 1 3.5 2.2c.8.6 1.8 1.6 2.7 2h25.4a28 28 0 0 1 13-4.7" class="b"/><path d="M8 137.9h50c1.1.1 2.3-.8 3.4-1.1l4.4-1.8q6-2.2 12.3-3.9c8.3-2.5 14.6-6.6 23.6-3.4 4 1.3 7.5 3.6 11.4 5 11.5 3.3 20.5-4 31.5 5.1q11.4.2 22.8 0c.9 0 1.8-.8 2.6-1.3l3.5-2q5-2.2 10.5-2.8" class="b"/><path d="M8 133.1h50c.8.2 1.8-.3 2.6-.7l4.3-2.2a56 56 0 0 1 11.4-4 51 51 0 0 1 29.8.7c2.6.7 5.2 1.9 7.9 2.4 6.6 1 13.4-1 20 .1q3.3.5 6.2 2c1.2.4 2.4 1.3 3.5 1.7H164c1.2-.3 2.4-1.2 3.5-1.8l4.3-2.4c3.8-1.8 8.2-2.4 12.3-2.9" class="b"/><path d="M8 128.4h52.6q1.9 0 3.5-1t3.5-1.8q5-2.3 10.5-3c3.7-.4 7.6 0 11.3.2q5.7.6 11.4.7 4 0 7.9.4c3.2.5 6.4 1.2 9.6 1 9.6-.6 13.9-.4 22.8 3.5h19.2c1.3.1 2.5-.7 3.5-1.3l4.4-2.4c4.8-2.7 10.4-2.9 15.8-3.6" class="b"/><path d="M8 123.6h58.7q1.3-.2 2.6-.8 2.2-.8 4.4-1.3c4.9-1 10-.2 14.9.2q5.7.4 11.4-1c2.8-.7 5.7-1.6 8.7-1.8 2-.2 4.1.3 6.1.2 5 0 10-.1 15 1.3q2.6.7 5.2 1.9c1 .4 2.3 1.3 3.5 1.3h21.8c1.3.2 2.4-1 3.5-1.4q3.4-2 7-3.3 3-.9 6.2-1 3.5-.2 7-.7" class="b"/><path d="M8 118.9h80.6q2.2.1 4.3-.4c5-1.2 9.3-4 14-5.5 2.9-1 5.9-.4 8.8-.3q6.3-.1 12.2 1.9 4.6 1.7 8.8 4.2h27.1c2.3-.8 4.6-2.1 7-2.8q3-.8 6.2-.8 3.5-.3 7-1" class="b"/><path d="M8 114q3.1-.6 6.2-.2 2.5.5 5.2.3h46.4c9.3-.1 18.7.2 28-.1 4.2-2 8-4.9 12.3-6.9q2-1 4.3-1.2l3.5.2a35 35 0 0 1 21 7.8c2 .4 4.2.1 6.2.2h28c1.4-.2 3-.9 4.4-1q5.2-.6 10.5-2.2" class="b"/><path d="M8 106q4.6 0 8.8 2 1.3.8 2.6 1.4H93q1.5-.6 2.7-1.4c4.3-2.6 8.3-6 13.1-7.4 3.4-.9 7.1-.3 10.5.5 5.3 1.5 9.8 4.8 14 8.3H177c2.4.1 4.7-1.2 7-2" class="b"/><path d="M8 98.9q6.4 1.6 11.4 5.7H86q2.2.1 4.4-.1l3.5-1.7c4.6-2.3 9-5.2 14-6.8 9-2.9 17.4 2.5 23.7 8.6h49q1.8.2 3.5-.7" class="b"/><path d="M8 92.5q6.4 2.6 11.4 7.4h62.2c2-.8 4-2 6-2.6q6.6-2.1 13.2-3.8c6.6-1.6 13.8-4 20.1-.5q5 2.6 8.8 6.5 1.2.6 2.6.4H184" class="b"/><path d="M8 86.3q4.3 1.9 8 4.9c1.4 1.1 2.6 3 4.3 3.9h51.6q2 .2 3.5-1 2.7-1.4 5.3-3.3 3.6-2.3 7.9-2.9c5.2-.6 10.5.2 15.7.2q2.7 0 5.3-.3c2.3-.3 4.7-.6 7-.1 3.2.6 6.2 2.3 8.7 4.2 4.2 3.2 2.3 3.3 8 3.2H184" class="b"/><path d="M8 79.3c6.6 2.2 9.5 6.4 14 11H65l5.3-2.6q6-2.8 11.4-6.2c9-4.1 19.2 3.3 28.9 2.3 4.5-.8 9.3.5 13 3q2.4 1.5 4.5 3.4c2.2.4 4.7 0 7 .2h49" class="b"/><path d="M8 72.1c7 2 11.4 7.9 15.8 13.2 1.6.6 3.5.2 5.2.3h29.8q7.6-6 16.6-9c3.2-1 6.2-2.8 9.7-2.7 4.5 0 8.8 1.7 13 3 4.6 1.6 9.3 2.8 14.1 2.7q5.2.4 9.6 3.2l2.7 1.7c.6.6 1.7 1.3 2.6 1.1H184" class="b"/><path d="M8 66c8 2.5 12.4 8.7 17.5 14.7 9.6.3 19.3 0 29 .1 4.7-4 9.3-9 15.7-10.5 3.7-1 7.6-.9 11.4-1 4.8 0 9.4 1.7 14 3q7 2.4 14 3.8A30 30 0 0 1 120 80c.7.4 1.7 1.1 2.6 1H184" class="b"/><path d="M8 61.5C17.1 65 20 69.2 26.4 76h21.9c1.1 0 2.5.2 3.5-.4 3.8-4 7.3-8.7 12.2-11.4 4.2-2.4 9-1.5 13.2.2l7 2.3q10.7 3.8 21.9 6.5a54 54 0 0 1 7.8 2.8H184" class="b"/><path d="M8 58.4q5 2.2 9.7 5c3.1 2.3 5.8 5.3 8.7 7.8 3.5.3 7 0 10.5.1q5.7.2 11.4 0c6.5-5.5 12.5-19 22.8-14.7 2.8 1.3 5.3 3.4 7.8 5.1a64 64 0 0 0 22.8 9.6H184" class="b"/><path d="M8 55.9c3.5 1.5 7.2 2.8 10.5 4.7 2.8 1.7 5.3 4 8 5.8 1.9.4 4 0 6 .2h9.7q1.3 0 2.6-.2l2.6-2.2c5.8-4.5 10-14 17.5-15.3 6-.4 10 5.3 14 8.9q4.5 4.1 9.7 7.3c1 .5 2.2 1.6 3.5 1.5H184" class="b"/><path d="M8 53c4.8 1.1 9.8 2.1 14 4.8 2.8 1.5 5.6 3.6 8.8 4h7l3.5-1.6q5.3-3.4 9.6-7.8c3.8-3.8 7.4-9.2 13.2-10 6.1-.1 10 5.7 14 9.7q3.7 3.8 7.8 7.2c1.4 1 2.7 2.7 4.4 2.5H184" class="b"/><path d="M8 50q4.9-.2 9.7.6 3 .8 6 1.8a19 19 0 0 0 15-.7c4.7-2.4 9-5.7 13.1-9 3.8-3.2 8.8-7 14-5 4 1.6 6.9 4.9 9.6 7.9a76 76 0 0 0 12.3 11.3q1.2.3 2.6.2h73.5q2.2-.4 4.4-.5 2.7 0 5.3.5h4.4c2-.1 4.2.3 6-.5" class="b"/><path d="M8 46.5q4.4-1.2 8.8-1.1c4.6.1 9.4 1 14 0 7-1.3 13-5.8 19.3-9 3.4-1.9 7.3-3.8 11.3-3.3 6.3 1 10.7 6.2 15 10.4q4.6 5 10.4 8.5c1 .5 2.4.3 3.5.3h62.2c1.5.2 3-1.1 4.3-1.7q3-1.5 6.2-2.3 6.2-1.4 12.2.7c2.9.7 6 .3 8.8-.3" class="b"/><path d="M8 42.4c6.5-2.4 13.5-2 20.2-3.4a66 66 0 0 0 12.2-4.1c7.6-3.2 16.6-7.1 24.5-3s13 11.4 21 15q1.7.9 3.5.7h60.4a3 3 0 0 0 1.8-.4c5.5-4.8 12.5-9.5 20.1-7.7 1.7.3 3.5 1.1 5.3 1.4q3.5.3 7-.2" class="b"/><path d="M8 38c7.5-2.3 15.3-3 22.8-4.9 7.8-1.8 15.6-4.3 23.6-4.4 7-.3 13.5 2.6 19.3 6.3 3.1 2 6.2 4.3 9.6 5.7 2 .8 4 1.8 6.1 2.1h53.4c11-.2 6 1.6 14-5.5 4.3-3.8 10-6.4 15.8-4.7 1.4.3 3 1 4.4 1.2q3.5.5 7 0" class="b"/><path d="M8 33.6c4.7-.7 9.4-1.9 14-2.6q11-1.5 22-2c6.9 0 14-1.2 21-.2 5.5.8 10.7 3.2 15.7 5.7q4.3 1.8 8.7 3.1c2 .8 4.2.3 6.2.5h56c.6-.2 1.4-1 1.7-1.4l4.4-4.2c4-3.5 9.5-5.7 14.9-4 1.4.3 3 1 4.4 1.2q3.5.4 7-.2" class="b"/><path d="M8 30.3q3.6 0 7-.8a44 44 0 0 1 8-1.4c6.3-.5 12.8 0 19.2.2 4.4.2 8.8.4 13.1-.8 7.2-1.8 14-2.6 21 .3q5.3 2.3 10.5 4c1.7.4 3.5 1.4 5.3 1.5h61.2c1.3-.4 2.4-1.7 3.5-2.4 3.1-2.1 6.7-3.8 10.5-4 7.3 0 8.4 3.4 16.7.6" class="b"/><path d="M8 27.1q3.1.3 6.2-.2c1.7-.3 3.5-1.1 5.2-1.4q5.6-1 11.4-.2 6.5 1 13.1 1.4c3 .1 6 .1 8.8-1C56.4 24.5 60 22.7 64 22c5.8-1.2 11.4 1.2 16.6 3.6q4.7 1.9 9.6 3h66.5c2.8.3 5.2-1 8-1.1 3.7-.4 7.5.4 11.3.8 2.7 0 5.4-1 7.9-2" class="b"/><path d="M8 23.3q4.5.6 8.8-1.2 3.7-1.5 7.9-1.3c8.7.2 17.6 4.6 26.2 1.7 3.6-1.4 6.9-3.7 10.5-4.8 10.3-3.4 15.9 5 24.5 6.1h98" class="b"/><path d="M8 18.2q3.6.4 7-.9c2-.9 4-1.9 6.2-2 8.9-1 17.2 5 26.2 3.3 4.2-.7 7.6-3.8 11.4-5.5 6.2-3 11.5-.4 16.6 3.3q2.1 1.6 4.4 2.7H184" class="b"/></svg>