<svg xmlns="http://www.w3.org/2000/svg" id="a" width="1920" height="2400" viewBox="0 0 192 240"><defs><style>.b{fill:none;stroke:#fff;stroke-miterlimit:10;stroke-width:.4px}</style></defs><path d="M0 0h192v240H0z" style="stroke-width:0"/><path d="M8.6 217.6q3.1-.5 6.1-1.7 2.1-1 4.4-1.9c9-2.5 15.7 5.9 22.6 10.2 1.8 1.1 3.9 2.3 6 2.6 3.2.2 6.5 0 9.6.5q4.1.7 7.8 2.5h118.3" class="b"/><path d="M8.6 212.6a30 30 0 0 0 9.6-2.6c6.9-2.2 13.1 2.9 18.2 6.8 3.5 2.6 7 5.8 11.3 6.6q3.5.3 7 .3 4 .3 7.8 1.4h120.8" class="b"/><path d="M8.6 206.6q4.8-.6 9.6-1.9c6-.8 11.2 3.4 15.6 7 2.6 2.1 5.2 4.5 7.9 6.4q1.6 1.3 3.4 2.2 1.3.2 2.6.1H106c1.4 0 3-.5 4.3-.4 3.8.6 7.6.4 11.3.4h61.7" class="b"/><path d="M8.6 201c3.2-.5 6.4-1.2 9.6-1.2 5.8.3 10.5 4.4 14.8 8.1l6 5.5c1.1.7 2.2 2.1 3.5 2.3H106q2.2-.6 4.3-.7 2.3.2 4.4.7h68.6" class="b"/><path d="M8.6 196.7a23 23 0 0 1 8.7-1c7 1.1 12.2 6.2 17.4 10.6l3.5 3c.7.5 1.6 1.5 2.6 1.7h142.6" class="b"/><path d="M8.6 193.8c4.9-1.8 8.4-1.5 13 .6 6.7 3 12.3 7.8 18.3 11.8q71.7.1 143.5 0" class="b"/><path d="M8.6 192c4.7-1.5 7.6-1.2 12.2.4q7.6 2.7 14.8 6.2l6 3h141.8" class="b"/><path d="M8.6 190.4q3.5-.9 7-.4 5.2 1.4 10.4 2.4 6.6 1.1 13 2.7 3.1.7 6.1 1.7h138.3" class="b"/><path d="M8.6 187.7q3.5-.4 7 .4 4.6 1.6 9.5 1.8c7.6.3 15.4-.7 22.7 2 2.5.4 5.2 0 7.8.2h111.3q2.6.1 5.2-.1c3.5-1.4 7.4-2.8 11.3-2.3M8.6 183.7q3.6 0 7 .8 3.3 1.4 7 1.7c5.7.5 11.5-1.1 17.3-1q4.6.2 8.7 2 2.2.3 4.4.2h13c3.7-.4 7.6-1.2 11.3-.4 2.8.7 5.8.3 8.7.4h66.1c2.8-.1 5.9.3 8.7-.5 4-1 8.1-2.7 12.1-4 3.4-1 7-2.1 10.5-1.7" class="b"/><path d="M8.6 178.6q3.6-.3 7 .8a24 24 0 0 0 7 1.8c5.5.5 11-1 16.5-1q3.5 0 7 1.1c1.3.5 2.7 1.6 4.3 1.4h19.9q1.9-.3 3.6-.4 2.2-.1 4.3.4h58.3c3.2.2 6.4-1.2 9.5-1.8 4-.8 8.2-1 12.2-1.6q7.6-.9 14.8-2.7c3.4-.8 6.8-2.2 10.4-2.4" class="b"/><path d="M8.6 173.2q3-.5 6.1.2c1.4.3 3 1 4.4 1.3q4.3 1 8.6.6c5-.4 10-1.3 14.8-.4q3.8.9 7 2.8c1.3.4 3 .2 4.3.2h68.7c3 0 5.9.2 8.7-.4q4.5-.8 8.7-2.1c2.8-1 5.7-2.2 8.7-2.4 8.7-1 17.5 1.3 26-.9 3-.7 5.9-2.3 8.8-3.4" class="b"/><path d="M8.6 168.2q3.4-1 7-.4 3 .9 6 1.2c4.7.3 9.4-.7 14-1q4.9-.6 9.5.9c3 1 5.7 3 8.7 4q1.3.4 2.6.3h67.9c1.7 0 3.5-.8 5.2-1.2q4.4-1.1 8.7-2.5c2.8-.9 5.6-2.4 8.7-2.6 8.5-.8 16.6 4.2 25.2 3.3 4.3-.2 7.8-3 11.3-5.3" class="b"/><path d="M8.6 162c5.4-2.6 7.6-1.5 13-1.4 5 0 10-.7 14.8-.7q6-.2 11.3 2.1c5.1 2.4 10.3 5 15.7 6.5h53.9q1.8-.2 3.5-.8l6-1.6c5-1.3 10-2.3 14.8-3.9 6.6-2.9 13.3 1.2 19.2 4 2.7 1.1 5.6 2.6 8.7 2.3q3 .1 6-.1c3-1.4 5.5-3.8 7.9-6" class="b"/><path d="M8.6 156a22 22 0 0 1 7-3q4.8-.8 9.5-1c8.5-.6 17.3-.3 25.3 2.9q7 2.6 13.9 6l4.3 2c1 .4 2.3 1 3.5.9h36.5a71 71 0 0 1 20-5.6q5.3-.4 10.4-1c3-.4 5.8-1.7 8.7-1 4.2 1 7.8 3.5 11.3 5.7 1 .6 2.3 1.5 3.5 1.9H179c1.6-1.1 3-2.7 4.4-4" class="b"/><path d="M8.6 151c9.6-6.8 21.8-7 33-5.5a88 88 0 0 1 15.7 3.3c5 1.6 10 4 14.8 6q5.9 2.5 12.2 4.3h17.4c2.1-.8 4-2.3 6-3.4 8.2-5 16-6.2 25.2-4.5 2.9.4 5.9.9 8.7.5 4-1 8 .3 11.3 2.2 3 1.6 5.7 3.7 8.7 5.2H179l.9-.2.8-.7 2.7-2.2" class="b"/><path d="M8.6 147.6q6-3.5 12.2-6.2a62 62 0 0 1 23.5-2c7.2.6 14.6.6 21.7 2.5 4.7 1.1 9.2 3 14 4 3.2.8 6.3 2.7 9.5 3.9 14.5 5.8 20.4-10.1 35.6-7.2 5.1 1 9.7 3.7 14.8 4.5 1.7.3 3.5-.1 5.2 0q4.6.7 8.7 2.8c3.2 1.5 6.3 3.3 9.6 4.4h13.9l6-3" class="b"/><path d="M8.6 145.4q3.1-1.2 6.1-2.8c2-1 4-2.5 6.1-3.4a51 51 0 0 1 12.2-4q5.6-1 11.3-1.4c2.5-.2 5.2 0 7.8-.3 5.7-.7 11.6-1.6 17.4-1q3.9.6 7.8 1.4 3.2.3 6 1.7c5 2.5 9.9 6.5 15.7 6.4 10.8-.7 15-10 27.9-5 4.4 1.7 8.4 4.6 13 5.9 1.6.5 3.5.2 5.2.4q3.6.5 7 1.8c6.6 2.4 13.6 5.5 20.8 4 3.5-.8 7-2 10.5-2.4" class="b"/><path d="M8.6 144q3.1-.7 6.1-2.3 3-1.8 6.1-4 6.6-4.4 14-7.4 5-2 10.3-2.7 2.2-.2 4.4-.2 2.6-.2 5.2-.9a47 47 0 0 1 26-2.1c3.3 1 6 3.4 8.8 5.3 5.6 4.4 11.2 6.8 18.2 4 3.1-1 6.2-2.6 9.6-2.9 4.6-.5 9 1.1 13 3.3 3.4 1.7 6.7 3.9 10.5 4.8 2.5.5 5.3.4 7.8 1.2 6.3 1.7 12.5 4.5 19.1 4.6q4.5 0 8.7-1.3 3.5-.6 7 0" class="b"/><path d="M8.6 140.2H13c1.3 0 2.4 0 3.4-1 4.4-3.6 8.6-7.5 13-10.8 4-2.9 8.4-5.5 13.1-6.6 3.4-1 7-.3 10.5-1.3 6.6-2 12.9-5.6 20-5.6 2.8 0 6 0 8.7 1 7 3.6 11.7 11.7 20 13 8.2 1 11.9-5 21.7-2 6.4 1.9 11.7 6.8 18.2 8.2 7 .2 13.4 3.1 20 4.8 1.7.5 3.6.2 5.3.3h7.8q1.7-.2 3.5-.2 2.5.3 5.2.2" class="b"/><path d="m8.6 135.5 8.7-.1c7.5-7.3 14.4-16.9 25.2-19 2.6-.6 5.3-.2 7.8-.4q3.2-.5 6.1-1.9c7.6-3.3 14.1-6.2 22.6-4.7 8 1 13.6 13.6 23.5 14.4 3.3.3 6.5-.8 9.6-1.8 4.7-1.3 9.6 0 13.9 2.1 5.7 2.6 10.8 7.4 17.4 7.6q4.9.4 9.5 2c1.7.6 3.5 1.6 5.3 1.7h25.2" class="b"/><path d="M8.6 130.7h8.7c6.7-7 13-16.7 23.5-18 2.9-.3 5.8.1 8.7.2q2.6-.1 5.2-1.2c7.7-3 14-6.4 22.6-5 4.8.1 7.8 2.9 11.3 5.8 4.3 3.8 9.6 7.6 15.7 6.6 2.6-.4 5.2-1.5 7.8-2.1 8.3-1.7 15 4.8 21.7 8.7 7.5 4.7 8.5 2.3 15.7 4.2l2.6.8h31.3" class="b"/><path d="M8.6 126h7.8c6.3-6.2 12-15.4 21.8-15.7 5-.2 9.9 2.3 14.8.8 3.5-1 6.9-2.6 10.4-3.7q5.5-1.7 11.3-1.4 3.5.3 7 1.1c6.6 3 12 9.7 20 8.3 5.2-.8 10.1-4.8 15.6-3 7.7 2.6 13 9.3 20 12.9 1.8 1 4 .6 6 .7h40.1" class="b"/><path d="M8.6 121.3h7.8c7-6.5 12.5-14.7 23.5-11.9 6.9 1.9 9.4 3.4 16.5.5A39 39 0 0 1 79 106c7.1.7 11.9 7.5 20 6.3 4.4-.6 8-3.2 12.2-4.4 9-2.2 17.2 9.2 24.3 13.4h47.9" class="b"/><path d="m8.6 116.6 9.6-.1c7.5-6.8 13.5-9.8 23.5-6 4 1.4 7.9 2.7 12.1.8 5.8-2.2 11.1-6 17.4-7q5.7-.8 11.3.4c3 1 5.7 2.4 8.7 3q5 1.1 9.6-.8c6.5-2.7 10.8-7.3 18.2-3.5 4.6 2.3 8.3 5.9 12.2 9 1.9 1.5 3.8 3.4 6 4.2h46.2" class="b"/><path d="M8.6 111.9h12.2a25 25 0 0 1 9.5-3q5-.2 9.6 1.3c2.3.6 4.6 1.7 7 1.6h3.5q1.3.1 2.6-.3c5.4-2.4 10-6.7 15.6-8.9 4.1-1.6 8.7-2 13-1.3 6.3 1.5 11.1 3.3 17.4.4 4.2-1.7 7.7-5 12.2-5.8 11.1-1 18.7 10.4 27.8 14.8q1.3.7 2.6 1 2.2.2 4.4.1h37.4" class="b"/><path d="M8.6 107.1h47.8c1.7-.5 3-2 4.4-3 2.7-2 5.6-4.1 8.7-5.5 10.5-4.8 17.1 2.4 27-1.5 2.7-1 5.2-2.7 7.8-4.1 2-1.3 4.4-2.6 7-2.7 12-.2 20.1 10.3 30.3 15 1.7.5 3.5 1.4 5.3 1.8h36.5" class="b"/><path d="M8.6 102.4h48.7c1.6-.6 3-2.2 4.4-3.2q3.1-2.8 7-4.8c10.3-5.5 17.5 2 27.7-2.2 2.7-1 5.3-2.6 7.9-4a14 14 0 0 1 7-2c14 .9 19.9 8.2 31.2 14.3 1.7.7 3.3 2.1 5.2 1.9h35.7" class="b"/><path d="M8.6 97.7h48.7c4.4-3.3 8.6-7.3 14-8.9 12-3.1 16.3 5 30.4-2.5 2.7-1.3 5.5-3 8.6-3 5 .5 10.2 1.4 14.8 3.4 6.6 2.7 12 7.5 18.3 10.8 1.6.4 3.5.1 5.2.2h34.7" class="b"/><path d="M8.6 93q3 0 6.1-.4 1.7 0 3.5.4h39.1c8.5-6 13.6-9.2 24.4-7.6a28 28 0 0 0 21.7-2.5c3-1.4 6.3-2.5 9.6-1.8q6.3.8 12.1 3.4 5.1 2.5 9.6 5.7c1.4 1 2.8 2.2 4.3 2.8h44.4" class="b"/><path d="M8.6 88.3h47.8l4.4-2q4.6-2 9.6-3.4 5.5-1.1 11.2-1.3c3.5 0 7 .3 10.5-.1 6-.7 11.4-4.3 17.4-5.1 7-.3 13.7 3 19.1 7.2 2 1.4 3.9 3.5 6 4.6h29.6q6.7.2 13 0 3.2-1.5 6.2-3.2" class="b"/><path d="M8.6 83.5h47c3.8.3 7.6-1.2 11.3-2 5.5-1.5 11-3.4 16.5-4.7q5.6-1 11.3-2.3l10.4-3c11.4-3.3 20.3 4.4 27.8 11.9 3.2.4 6.4 0 9.6.1h27.8l2.6-1.3 3.5-1.5q3.7-2 7-4.6" class="b"/><path d="M8.6 78.8h59.2c1.5.2 3-.6 4.3-1.2q4.8-2.4 9.6-5 4.6-2.2 9.5-3.7c7.3-2.2 15-4.3 22.6-3.4 8.7 1 14.7 8 20.9 13.3H166c1 0 1.9-1 2.6-1.6q1.7-1.6 3.5-2.7 2.2-1.2 4.3-2.4 3.7-2.5 7-5.4" class="b"/><path d="M8.6 74h65.2c11.5-9 18.7-13.4 34-12.8 14.2-.2 17.9 2.7 28.6 11.3 1 .7 2.2 1.8 3.5 1.6H160c.7 0 1.8 0 2.5-.2l2.6-2.2 5.3-4.6q2.8-2.3 6-4.1 3.6-2.7 7-5.7" class="b"/><path d="M8.6 69.4h65.2c1.4 0 2.6 0 3.5-1.1 10-9.3 17.1-11 30.4-9.2 4.4.6 8.8-.2 13 0q6 .3 11.4 3c3.5 1.6 6.8 3.8 10.4 5.1 11.6 4.4 16.6 1.5 25.2-6.4q4-3.7 8.7-6.6l7-5.3" class="b"/><path d="M8.6 64.6h68.7a24 24 0 0 1 23.5-6.7c4.3.8 8.6 2.3 13 1.8 8-1.5 13.2-4.5 21.8-2.6q4.8 1 9.5 2.4 3.8 1.2 7.8 1.2c6.7-.2 11.8-5 16.6-9q3.1-2.9 7-5 3.3-2.3 6.9-4.4" class="b"/><path d="M8.6 60h66.1q1.5 0 2.6-.9 1.6-1.2 3.5-2.3Q86 54 92 54.8c6.3.7 12 4 18.3 5.1h4.3a28 28 0 0 0 7-3.1c4.4-2.5 8.8-5.4 13.9-6.5q3.8-.8 7.8-.2 3.4.8 7 1.6c8 2 14-2.1 20-6.8q6-4.7 13-7.6" class="b"/><path d="M8.6 55.2h60q2.2.1 4.4-.1.8-.6 1.7-1.1c9.6-6.2 18.2-3.2 27.8.9 1.6.6 3.5.2 5.2.3h13.1c1.8-.9 3.5-2.4 5.2-3.6 3.6-2.7 7.1-5.6 11.3-7.3 5.8-2.7 10.8.2 16.5 1.3 11.6 2.5 19.2-9.3 29.6-11.9" class="b"/><path d="M8.6 50.5h56.5q2.3-1 4.4-2.2a30 30 0 0 1 18.2-2.5c6 .8 11.7 2.9 17.4 4.7h17.4c4.4-2.2 8-5.6 12.2-8.1 3-2 6.7-3.7 10.4-3.2 9 1.8 13.4 5.3 22.6.4 5.2-2.8 9.8-7 15.7-8.3" class="b"/><path d="M8.6 45.8h45.2c1 0 1.9-.6 2.6-1l4.4-2.1c3.5-1.8 7.4-3.2 11.3-3.4 4.7-.4 9.3.8 13.9 1.4 5.5.7 11 1 16.5 2q5.3.9 10.4 2.8c2 .5 4.2.1 6.1.2h3.5l4.4-1.5c5-2 9.5-5.1 14.7-6.5 3.2-.8 6.5.1 9.6 1 2.8.7 5.8 1.4 8.7 1.1 8.9-.5 15-8.6 23.5-10.3" class="b"/><path d="M8.6 41h33c1.5-.2 3-1.2 4.4-1.6q2.7-.6 5.2-1.5c3.5-1.3 6.9-3 10.5-4.2 7.9-2.6 13.3-.2 20.8 1.8 5.4 1.2 11 .8 16.6.6 4.7-.2 9.5.2 13.9 2.1q10.3 3.8 20.8.3c8.1-2.4 9.7-3.6 18.3-1.6 14.6 3.2 19.1-7.3 31.3-9.3" class="b"/><path d="M8.6 36.3h27c1.1 0 2.5.3 3.5-.4 2.6-2 5.5-4 8.6-5.1 3.6-.9 7-2.4 10.5-3.5 14.5-4.5 19.2 4.5 32.1 3.8 5.3-.2 10.5-1.5 15.7-1.4 3.6 0 7 1.3 10.4 2.5a55 55 0 0 0 13 3.3c5 .6 10-.3 14.8-1 3.5-.3 7 .2 10.5 0a29 29 0 0 0 11.3-2.8c5.5-2.7 11-6 17.4-6.2" class="b"/><path d="M8.6 31.6h26.1c1.5.3 2.5-1 3.5-1.8a53 53 0 0 1 5.2-4.3q3.1-2.2 7-3l6-1.7c9.2-2.5 16 0 24.4 3.3a28 28 0 0 0 10.4 1.5c6.7-.2 13.3-2.5 20-1.4 6.8 1.3 12.6 5.2 19.1 7.3 4 .3 8.2 0 12.2.1 3.5 0 7 .3 10.4-.5 6.4-1 12.3-3.9 18.3-5.9q6-1.7 12.2-1.6" class="b"/><path d="M8.6 26.9h26.1c3.8-3.5 7.4-7.5 12.2-9.7a45 45 0 0 1 20.8-2.4c7.3 1 13.7 5 21 5.9 6.8 1 13.8-.5 20.8-.7q5.4.1 10.4 2.2l7 3c1.3.6 2.8 1.6 4.3 1.7h19.1l11.3-3.5a46 46 0 0 1 9.6-2q6.1 0 12.2.6" class="b"/><path d="M8.6 22.2h25.2c10-8.5 11.3-11.3 25.2-12a52 52 0 0 1 16.6 2.2C81 14 86.4 16.5 92 17.7q6.4 1.4 13 1c3.5-.1 7-.7 10.5-.4 3.8.2 7.6 1.3 11.3 2.3l5.2 1.5h3.5q4.8.1 9.5 0c5.2-1.5 10.3-3.6 15.7-4.4q5.2-.9 10.4 0 6 1.6 12.2 2.7" class="b"/></svg>