<svg xmlns="http://www.w3.org/2000/svg" id="a" width="1920" height="2400" viewBox="0 0 192 240"><defs><style>.b{fill:none;stroke:#fff;stroke-miterlimit:10;stroke-width:.4px}</style></defs><path d="M0 0h192v240H0z" style="stroke-width:0"/><path d="M8.5 231.5h69.7l1.7-1a15 15 0 0 1 4.3-1.8c4-1 8.2-.6 12.2-1.1 7.6-.8 14.5-4.6 21-8.5 6.8-4.1 12-2.1 17.3 3.3 2.8 2.7 5.2 6 7.9 8.7 1.2.7 3 .3 4.3.4h36.6" class="b"/><path d="M8.5 226.7h62.7l2.6-1.1q3.7-1.5 7-3.5c7.3-3.3 15.3 2.5 25.2-.9 4.7-1.3 8.6-4.3 13-6.2 10.5-4.4 16 6.1 22.7 11.7h41.8" class="b"/><path d="M8.5 222h59.2q2.3-1.2 4.4-2.4 4.3-2 8.7-4a13 13 0 0 1 7.8 0c4 1 8 2.6 12.2 2.7 12 .5 18.6-12.4 30.4-4.2a53 53 0 0 1 6.1 5.1c1.1.9 2.2 2.4 3.5 2.8h42.7" class="b"/><path d="M8.5 217.3H66q1.4 0 2.6-.8l3.5-1.7q3.3-1.4 7-2.7 3.8-1.7 7.8-.5c4.3 1.1 8.5 3 13 3.2 11 .8 18.5-10.2 29.6-4.8a43 43 0 0 1 7 4.4c1.3 1 2.7 2.3 4.3 2.9h42.7" class="b"/><path d="M8.5 212.6h61q4.6-1.6 9.5-2.7c5.2-1.9 10.5 1 15.7 1.6 6.7 1.3 13.1-1.7 19.1-4.3a20 20 0 0 1 17.5-.4c4.3 1.8 8.3 4.9 13 5.8h39.2" class="b"/><path d="M8.5 207.8h89.7q2.2.2 4.3-.1c8.1-3.1 16.3-8.3 25.3-6.6 4.5.7 8.6 3 13 4 4 1 8.2.6 12.2.9q4 .2 7.8.8c1.7.3 3.5 1 5.3 1h17.4" class="b"/><path d="M8.5 203.1h94c2.5-.5 4.7-2 7-3 4.2-1.5 8.5-3.2 13-3.6 6.4-.8 12.3 2 18.3 3 5 .7 10-.3 14.8 0 6 0 11.8 1.6 17.4 3.4q2.2.4 4.4.2h6" class="b"/><path d="M8.5 198.4H99a7 7 0 0 0 3.5-.7l4.4-1.7q3.8-1.4 7.8-2 5.2-1 10.5-1.2c4.9-.2 9.8.7 14.8 1 6.4 0 12.7-2 19.1-1.4 5.4.4 10.5 2.3 15.7 3.8q2.3.9 4.3 2.2h4.4" class="b"/><path d="M8.5 192.4h6.1q2.2-.2 4.4 0 2.6.2 5.2 1.2H86q6.1 0 12.2-1.8c3.4-.9 6.9-2.1 10.4-2.5s7 .4 10.5.5q7.4.4 14.8-.7l11.3-2c4-.9 8-1.7 12.2-1.5 4.5.3 8.8 1.7 13 3.2l5.3 1.6c1.8.8 3.5 2.2 5.2 3.2h2.6" class="b"/><path d="M8.5 183.6c2.3.3 4.7 1 7 1.3q2.7.2 5.2 1 2.7.8 5.2 2c1.1.3 2.3 1.2 3.5 1h27q1.4-.2 2.6-.8 2.2-1 4.4-1.6c4.8-1.4 9.8-.5 14.8 0a44 44 0 0 0 9.5-.8c6.4-1 12.6-3.8 19.2-3.7 2.7 0 5.3 1.1 7.8 2.1 6.4 3 12.4 4 19.2 1.5 5.9-2.4 11.8-5 18.2-5.5 4.8-.5 9.6 1 14 2.8q3.3 1.6 7 2.6 3.8.8 6.9 3.4h3.5" class="b"/><path d="M8.5 177c2.7.7 5.2 2 7.9 2.8 4.1 1 8 2.9 12.1 4.2 2.9.4 5.9 0 8.7.2H52c3-1 5.8-3 8.7-4.1 6.3-3 11.6-2.5 18.3-1.8 10.1.7 19.5-7.5 29.6-4 5.1 2 8.9 6.5 14 8.5 3.9 1.8 8.4 1 12.1-1q3.5-1.8 7-3.7 3.3-1.4 7-2.1c6.4-1.4 12.7 1.5 18.2 4.5 2.5 1.3 5.1 2.6 7.9 3 .7.2 1.8.8 2.6.7h6" class="b"/><path d="M8.5 172.5c2.4 1 4.6 2.5 7 3.5l9.6 3.5h25.2c4.1-1.2 7.5-4 11.3-6q6.6-3.5 14-3.1c2.8 0 5.8.4 8.7-.3 4.1-1 8-3 12.2-4.3 14.6-4.5 17.3 7.2 27.8 12.8a8 8 0 0 0 4.4.9c1.8 0 3.5 0 5.2-.9 2.7-1.1 5.2-3 7.8-4.2a22 22 0 0 1 12.2-1.8q5.1 1.1 9.6 4c1.7.9 3.4 2.3 5.2 2.9h14.8" class="b"/><path d="M8.5 169.4c2.4 1.1 4.6 2.7 7 3.8q2.1.8 4.3 1.4c5.2.3 10.5 0 15.7.1h18.3q2.6-1.6 5.2-3.5c4.7-3.3 9.9-6.3 15.7-6.8 2.2-.3 4.7 0 7-.3 5.4-.9 10.3-4 15.6-5.6 14.2-4.5 17.9 8.6 27.9 14.6 7.1 4 12.4-1 19.1-2.7q5.7-1.6 11.3 0 4.6 1.6 8.7 4.3h19.2" class="b"/><path d="M8.5 165.9c2.9 1.3 5.6 3.3 8.7 4 1.4.3 3 0 4.4.1h35.7c6-4.1 11.7-9.6 19.1-11.2 2.6-.6 5.3-.6 7.8-1.4 8.3-2.6 17.6-8.6 26.1-3.5 7.7 4.6 12.3 14.6 21.8 15.8 3.2.3 6.5-.7 9.6-1.3 3.7-.7 7.6-1.2 11.3-.7 2.7.3 5.3 1.4 7.8 2.3h22.7" class="b"/><path d="M8.5 161.6c2.3.8 4.6 2 7 2.6 4.3.7 8.7.5 13 1 10.8.3 21.5 0 32.3 0 5.6-4 10.6-9.5 17.4-11.8q3.4-.7 7-1.7c10-3.3 20.2-7.7 29.5 0 7 6 13.5 13.5 23.5 13 4.4 0 8.7-.4 13-.2 2.4 0 4.7.8 7 .8h25.3" class="b"/><path d="M8.5 156.3c8.6 2.7 9 1.3 17.4.5a25 25 0 0 1 13 2.5c1.2.5 2.3 1.4 3.6 1.3h20.8c5.3-3.8 9.6-9.2 15.7-11.6l8.7-2.4c7.8-2.3 16.6-4.5 24.4-1 3.1 1.3 6 3.4 8.7 5.4 5.7 4 12 7.5 19.2 8.2 5.7.8 11.6.2 17.4 1 3.4.6 7 .3 10.4.4h15.7" class="b"/><path d="M8.5 150.4a21 21 0 0 0 13-.9c7.4-2.6 12.8-2.2 19.2 2.3l3.5 2.5c.8.6 1.6 1.5 2.6 1.5h16.6c.8 0 1.9.2 2.6-.4 4.3-3.2 8-7.6 13-9.7q7.8-2.4 15.7-4a34 34 0 0 1 22.6 2q6.5 3.1 13 6 7.2 2.6 14.9 3.5c4 .3 8.1 0 12.2.3 5.3.1 10.5 1.3 15.6 2.3h10.5" class="b"/><path d="M8.5 144.6c2.3 0 4.7.3 7 0q2.2-.3 4.3-1.3c10-4.9 14.9-4.9 23.5 2.5q3 2.6 6.1 5 1.3.5 2.6.3h14c1.3-.1 2.4-1.3 3.4-2q3.4-2.6 7-5c2.6-1.5 5.8-2 8.7-2.8 4.3-1 8.7-2.3 13-3q5.7-1.2 11.4-.7c7.5 1 14.5 4.3 21.7 6.1a66 66 0 0 0 17.5 2.8c4.3 0 8.7-.4 13-.1q6.1.4 12.2 1.6 3.4.7 6 2.8c1.1.5 2.5.3 3.6.3" class="b"/><path d="M8.5 139c8.5-.3 9.3-1.3 16.6-4.9 11.9-5.7 18.2 5 27 10.8q1.2.8 2.6 1.5h8.6c1.5 0 3 .2 4.4-.2 3.2-1.4 6.3-3.3 9.6-4.6 1.6-.7 3.5-.8 5.2-1.2q4-.9 7.8-2c6-1.8 12-4.2 18.3-4 6 .5 11.6 2.7 17.4 4a98 98 0 0 0 20 2.3c4.7 0 9.3-.5 14-.5q7.5.2 14.8 1.3a14 14 0 0 1 5.2 2.6c1.1.7 2.2 2 3.5 2.3" class="b"/><path d="M8.5 133.3c3.7-1.5 7.8-2.2 11.3-4 5.4-3 11.2-6.6 17.5-3.8 4.6 2 8.3 5.9 12.1 9 4.7 4 10.3 7.8 16.6 7.2 3.8.2 7.5-1 11.3-1.7q2.6-.3 5.2-.4 3.1-.5 6.1-1.5c7.4-2.1 14.6-7.1 22.6-5.7 4.7 1 9.3 2.3 14 3 6 1 12.2.8 18.2.6 8.2-.3 16.3-1 24.4-.5 8 .3 9-.4 15.7 5.2" class="b"/><path d="M8.5 128q3-2 6.1-3.7 3.1-1.3 6.1-2.8c5.5-3.1 11.3-6 17.4-2.8 6.8 3.5 11.8 9.9 18.3 14q4.4 3 9.6 4.2h23.4l4.4-1.8c5.5-2.3 11.3-5.9 17.4-4.6q5.2 1.5 10.5 2.3c7 1.2 14-.1 20.9-1q11.7-1 23.5-1.2l8.7-.5c3.2 0 6.1 2.1 8.7 4" class="b"/><path d="M8.5 123.5q2.9-2.8 6.1-5.1c2-1.2 4.2-1.9 6.1-3 5.6-3.1 11.3-5.4 17.4-2.1 3.6 1.8 6.6 4.6 9.6 7.2q4.9 4.5 10.4 8 4.1 2.5 8.7 3.7h28.8q1.3-.4 2.6-1 2.5-1.2 5.2-2 4.4-1.7 8.7-.4 5.1 1.6 10.4 2c6.3.4 12.3-1.7 18.3-3.1 5.4-1.2 11-1.3 16.6-1.7q6.5-.4 13-1.3c5.9-1 7.7-1.1 13 2" class="b"/><path d="M8.5 119.6a36 36 0 0 1 7-6.3q2.5-1.3 5.2-2.5c5.8-3 11.4-4.6 17.4-1.1 5.2 2.9 9.1 7.6 14 11q6.6 4.8 14.7 6.7h29.6c1.1 0 2.5.3 3.5-.3 10.7-4.3 11.3.2 20.9.4 7 .4 13.5-3 20-5 5.4-1.5 11-1.6 16.6-2.2q6.5-.6 13-2c5.4-1.3 7.7-1.8 13 .4" class="b"/><path d="M8.5 116c2.1-2 4.4-4.4 7-6q2.5-1.4 5.2-2.5c5.4-2.8 11-4.2 16.5-1 4.3 2.2 7.7 5.8 11.4 8.9 7.1 6.3 15.2 7.2 24.3 7.4h23.5c3-.6 5.8-2 8.7-2.4q2.2-.4 4.4-.1 2.2.5 4.3 1.1 4.3 1.1 8.7.7c6.5-.7 12.2-4.3 18.3-6.3 5.4-1.6 11-1.6 16.5-2.3q6.6-.7 13.1-2.4c5.1-1.4 7.7-2 13-.3" class="b"/><path d="M8.5 111.7q3.3-3.1 7-5.5 2.5-1.5 5.2-2.6c4.6-2.3 10-3.4 14.8-1 4 2 7.2 5 10.5 8 6.9 6.6 13.3 8 22.6 7q4.4-.6 8.7-.1 1.3.1 2.6.5h10.4l4.4-1.4c5.2-1.8 10.8-5 16.5-3.4 8 2.8 15 2.3 22.6-.9 3.7-1.4 7.4-3 11.4-3.6 6.7-1.3 13.5-2.5 20-4.5q5.3-1.7 10.4-3 4-.5 7.9.6" class="b"/><path d="M8.5 106.4q5.1-4.7 11.3-7.4c4.3-2 9.5-3 14-.8 8.3 3.8 13.2 13.4 22.6 15h7.8c5.2-.2 10.5-2 15.7-1 7.4 1.4 14.3-2.8 20.9-5.5 4.7-2 8.2-2.6 13-.7a34 34 0 0 0 19.2 1.5q4.4-1.2 8.7-2.6l8.7-2.5q8.4-2.7 16.5-6.4c5.7-2.3 10.2-4.3 16.6-2.8" class="b"/><path d="M8.5 100.4c5-3.8 10.3-7.6 16.6-8.5 3.7-.5 7.4 1 10.4 3 6.5 4.4 11.1 12.1 19.2 13.7l10.4-.1c3.8-.7 7.5-1.7 11.3-2q2.7-.2 5.3 0a22 22 0 0 0 5.2-.9c7-1.8 12.8-6.6 20-7.8 4-.5 7.7 1.6 11.3 2.8a31 31 0 0 0 23.5.6q10.4-3.4 20-8.4c6.9-3.4 13.8-8 21.8-6.4" class="b"/><path d="M8.5 94.3c13.5-9.4 19.8-11.6 32.2 1 4.3 4 9.2 9.2 15.7 8.5 2.9 0 5.9.4 8.7-.4 3.8-.8 7.5-2 11.3-2.6q2.7-.3 5.2-.4 3.1-.4 6.1-1.3c7.2-2 14.1-7.3 21.8-6.7 3.7.6 7 2.5 10.4 3.9 6.7 3 13.8 4.6 21 1.8q11-4.3 21.7-9.6C169 85 175.9 81 183.5 82" class="b"/><path d="M8.5 89.1c4-2.2 7.9-4.8 12.2-6.2 9-3.2 16 4.7 21.8 10.3 3 3 6.7 6.5 11.3 6h6q1.9 0 3.6-.3c4.3-1.2 8.6-3 13-4 3.7-.7 7.6-.9 11.3-1.9 7-1.5 13.7-5 21-4.3 4 .5 7.6 2.6 11.2 4.2 4.7 2 9.8 3.5 14.8 2.8 4.4-.4 8.3-2.7 12.2-4.3q7.6-2.8 14.8-5.7c7-2.8 14-7.1 21.8-6.4" class="b"/><path d="M8.5 85.1c13-5.8 17.6-9.8 29.6 1.1q3 2.8 6.1 5.7c1 .8 2.3 1.9 3.5 2.5h1.7c4.7-.1 9.4.2 14-.1 3.5-1.5 6.9-3.3 10.4-4.6 3.3-1.4 7-1.9 10.5-2.3q6-.8 12.2-1.3a34 34 0 0 1 15.6 1.5c6.6 2.7 13.7 5.7 21 4.1 4.6-.8 8.7-3.4 13-5.2 4.8-1.9 9.9-3 14.8-4.5l10.4-3.5c3.9-1.4 8-2.4 12.2-2.2" class="b"/><path d="M8.5 80.2c6.3-2.6 13.1-6.5 20-4C36 78.7 41 85.2 47.7 89q1.6 1 3.5.8h5.2c3.4.3 6.5-1.5 9.6-2.8 4.5-2.1 9-4.6 13.9-5.6 8.7-1.7 17.8-.2 26.1 2.5 6 2 11.8 5.4 18.3 5.7 8.8.7 15.8-5.1 23.5-8.3q9-3.3 18.3-5.8c5.6-1.7 11.4-3.6 17.4-3.2" class="b"/><path d="M8.5 75.4c11.4-6.6 18.8-5.1 29.6 1.5 4.4 2.6 8.8 5.7 14 6.3 13.6 1.2 25.3-10.9 39.1-8 5.3 1 10.1 3.5 14.8 6l5.2 2.6q1.3.8 2.6 1.1H134q2.7-1 5.2-2.6a118 118 0 0 1 26.1-11.8c5.9-1.8 12-3 18.3-2.4" class="b"/><path d="M8.5 71.4c4-2.7 8.1-4.7 13-4.1 11 1.1 20.4 8 31.4 8.9 9.5.7 19-1.6 27.9-4.6 7.7-2.7 15.1 0 21.7 4.2q2.7 1.6 5.3 3.3l1.7 1 1.7.1h18.3q4.4 0 8.7 0 4.3-2.7 8.7-5.1c11.8-6.8 22.5-12.6 36.6-10.3" class="b"/><path d="M8.5 68.5c7.7-6.1 12-4.7 21-2.4q8.9 2.5 18.2 3.4c8 1 16.2 2.4 24.4 1.7 3.9-.2 7.6-1.7 11.3-2.9 9.7-3 16.7 2 24.3 7.2h34q4-2.2 7.8-4.5c12-7.4 19.7-10.8 34-8.2" class="b"/><path d="M8.5 66.6c2.6-2 5.4-4 8.7-4.5a30 30 0 0 1 9.6.8Q32 64 37.2 64.6q5.3.3 10.5.3 4.4.4 8.7 1.2c8 1.4 16.5 3.8 24.4.7 8.5-3.2 14.9-2.8 22.6 2.2q1.4.8 2.6 1.7 3 .2 6.1 0h26.1c8.4 0 5.6.6 13-3.3 11.5-6.2 19.5-7 32.3-5" class="b"/><path d="M8.5 64q3.6-2.9 7.9-4.6c6.3-1.8 12.8.8 19.1 1.2 4.9.5 9.9.1 14.8.6 6.1.5 12.2 1.8 18.3 2.7q4.7.8 9.6 0c3.1-.5 6.3-1.5 9.5-1.9q4.9-.6 9.6.8 2.8.8 5.2 2.1c1 .6 2.3 1.3 3.5 1.1H147q4.4-1.7 8.7-3.1c9.1-2.5 18.7-1.1 27.9-.3" class="b"/><path d="M8.5 59c9.6-7 12.3-6.6 23.5-4.2q5.2 1 10.5 1.1c8.7 0 17.5.1 26 2q4.8 1 9.7 1.4c4.6 0 9.3-.7 13.9-.3q5.8.3 11.3 2.3h42.7c1.7 0 3.6.2 5.2-.6a38 38 0 0 1 20-.6q6.1.6 12.2 1.1" class="b"/><path d="M8.5 52.8c12-8.2 12.6-7 26.1-4.2q5.7 1 11.3.6c5.5 0 11.1-1 16.6-.3 5.4.7 10.4 3 15.7 4.4q10 2 20 3.2H153q3-.9 6.1-1c3.2-.3 6.4.7 9.6 1h14.8" class="b"/><path d="M8.5 46.4c3.4-2 6.8-4.4 10.5-6 5.7-1.8 11.6.7 17.4 1 4.6.3 9.3-.3 14-.9 7.4-1.3 13-1.7 20 1.8 3.7 1.9 7.3 4.2 11.2 5.6q4.8 2 9.6 3.8c2 .4 4.1 0 6.1.2h86.2" class="b"/><path d="M8.5 40.8q3-1.7 6.1-3.3 2.1-1.3 4.4-2.4c5.2-2 11-.6 16.5-1q5.3-.5 10.5-1.6 4.8-.9 9.5-1.9c11.5-2 17.8 6.5 27 11.5l5.2 3.3c1.1.6 2.3 1.5 3.5 1.7h92.3" class="b"/><path d="M8.5 37q3.6-1.4 7-3 2.8-2 6-2.9c5.2-1.3 10.6-1.3 15.7-2.8 4.4-1.2 8.6-2.9 13.1-3.6 3.1-.8 6.3-1.7 9.6-1.4 8.8.7 14.6 8.5 21.7 12.8l5.3 4c1 .8 2.1 2 3.4 2.3h93.2" class="b"/><path d="M8.5 34q3.7-.8 7-2.3 4-2.4 8.7-4 6.1-1.6 12.2-3.6c4.5-1.6 9-3.6 13.9-4.2 13.7-3.4 18.6 3 28.7 10.4 3.4 2 6.5 4.7 9.6 7.2 2 .4 4.1 0 6.1.2h88.8" class="b"/><path d="M8.5 30a28 28 0 0 0 7-2.2q3.7-2.4 7.8-4 6.8-2.6 14-4.6 9.7-3.2 20-2.8c6.8.4 12.7 4.3 18.2 8 2.2 1.5 4.8 2.7 7 4.2 2 1.3 4 3 6 4.3h95" class="b"/><path d="M8.5 24.3c4-1.1 7.7-3.3 11.3-5.3q5.4-2.7 11.4-3.8c4.8-.9 9.8-.8 14.8-.7q7-.1 13.9 1c7.6 1.6 14.6 5.3 21.8 8.3 2.7 1.2 5.1 3 7.8 4.4h94" class="b"/><path d="M8.5 17c12-6.9 17-11.3 31.4-6.3q3.4 1.3 7 2.1 3 .4 6 .9l14.8 2.2q7 1 14 3 4.9 1.7 9.5 4.2a3 3 0 0 0 1.8.4h90.5" class="b"/></svg>