<svg xmlns="http://www.w3.org/2000/svg" id="a" width="1920" height="2400" viewBox="0 0 192 240"><defs><style>.b{fill:none;stroke:#fff;stroke-miterlimit:10;stroke-width:.4px}</style></defs><path d="M0 0h192v240H0z" style="stroke-width:0"/><path d="M8.5 230.6h39.2l2.6-.1 3.5-1.4q4.2-1.6 8.7-2.6c6.6-1.4 13.4-.8 20 0 6.2.9 12.1 2.8 18.3 4q12.6.1 25.2 0h57.5" class="b"/><path d="M8.5 225.8q9.2.1 18.3-.2l6.1.2h14.8q1.7-.7 3.5-1.3 3.8-1.4 7.8-2c6.7-1 13.4.3 20 .8q5.3.3 10.5 1.4c2 .3 4 1 6 1.1h88M8.5 221.1h36.6c1.8 0 3.5-1 5.2-1.6q3.8-1.3 7.8-1.8c5.5-.7 11-.1 16.6.2 2.8.3 5.8.1 8.7.2q4.4 0 8.7 1.2c2 .4 4 1.4 6 1.8h85.4M8.5 216.4h35.7c1.5.1 3-.6 4.4-1.2q2-1 4.3-1.6a55 55 0 0 1 12.2-1.8q6.5-.2 13-.8c4.4-.5 8.8-1.3 13-.1 4 1 7.4 3.1 10.5 5.4 8.7.3 17.5 0 26.1 0h55.7" class="b"/><path d="m8.5 210.6 2.6 1h30.5c1.4 0 3 .3 4.3-.3 2.6-1 5.2-2.5 7.9-3.2 5.7-1.6 11.6-2.3 17.4-3.5 17.5-3.6 20.1-7.5 34 7q39 .1 78.3 0" class="b"/><path d="M8.5 204.4q3.4 1.5 7 2.1 3 0 6 .3c7 .4 14 0 21 .1 3.7-.5 6.8-3 10.4-4.2 5.4-1.8 11.1-2.9 16.5-4.6l12.2-3.8c5.7-2.2 10.5-3 15.7 1 4.4 3.2 7.4 8 11.3 11.6h74.9" class="b"/><path d="M8.5 197.4q3.4 1.3 7 1.9 4 0 7.8.6c9.7 1.8 17.3 2.7 26.1-2.5 5.7-2.8 12.2-3.4 18.3-5q6.7-1.6 13-3.7c2.6-.9 5.2-2.2 7.9-2.8 7.5-1.7 13 5 17.4 10 2.1 2.1 4.1 5 7 6.3h61.7l1.8-.8q3.4-1.2 7-.5" class="b"/><path d="M8.5 189.8q3.5.8 7 1.3 4.8.3 9.6 1.6a28 28 0 0 0 24.3-3.3c7.3-3.6 15.8-2.2 23.5-3.7q4.6-.8 8.7-2.3c3.4-1.4 6.8-3.3 10.5-3.5 7.8-.2 12.7 7.1 18.3 11.6a31 31 0 0 0 9.5 5.4c2.2.9 4.7.5 7 .6h40l3.5-.1 1.7-1c3.4-2.2 7.5-2.9 11.3-2" class="b"/><path d="M8.5 182.7q6.3.3 12.2 2c9.1 3.1 15.5 4.6 24.4-.5 2.3-1.2 4.4-3 7-3.8 4.1-1.3 8.7-.8 13-.5q6.1.6 12.2-.4c4.5-.8 8.5-3.6 13-4.6 8-1.8 14 5 20 9.1a27 27 0 0 0 8.7 3.8 54 54 0 0 0 16.6.5c3.4-.2 7-.8 10.4 0 5.5 1.1 10.9 3.3 16.6 2.6 8.3-.9 11.7-4.3 20.9-2" class="b"/><path d="M8.5 176.6c9.9-.6 14.8 5.4 23.5 6 7.2.5 12.6-4.7 18.3-8.2 3.2-1.7 7-1.9 10.5-1.5 4.3.4 8.6 1.4 13 1.2 9.7-.5 14.8-7.3 25.2-2 3.7 1.9 7 4.6 10.5 6.7 4.4 2.6 9.8 2.8 14.8 2.6l12.2-.6c3.1 0 6.4-.5 9.5-.5 4.7 0 9.3.6 14 .6s9.3-.5 13.9 0c3.2.3 6.4 1.5 9.5 2.2" class="b"/><path d="M8.5 171.8c9.1-.5 13.7 5.9 21.8 7.3 6 1 11.2-3 15.7-6.6 3-2.6 6.4-4.9 10.4-5.2 5.8-.6 11.6 1 17.4.6 4.8-.1 9.1-2.9 14-2.6 5.2.2 9.8 3.3 13.9 6.4 3 2.1 6 4.7 9.5 5.9 3.7 1 7.6.3 11.3-.2q7-1 14-1.2 6.7-.1 13-1.9c7.9-2 16.4-4.7 24.4-1.7 3.2 1.3 6.3 3 9.6 4.2" class="b"/><path d="M8.5 168.2c8.8.2 12.5 5.6 20 8 9.5 2.7 15.6-6.8 22.7-11q4.8-2.6 10.4-2.6c4.6-.1 9.4.3 14-.6q3-.6 6-1.7 5.1-1 9.6 1.7c4.2 2.4 7.7 6 11.3 9.3 3.2 2.8 6.8 6 11.3 5.8 5-.3 9.8-2.2 14.8-2.8 6.7-1 14 .4 20-3.2 7.5-3.9 15.6-11 24.4-7 3.6 1.6 6.8 4.3 10.5 5.9" class="b"/><path d="M8.5 165.4a34 34 0 0 1 9.6 3.2c3.1 1.6 6.2 3.7 9.6 4.8 1.9.7 4 .4 6 .5 7.1-1.2 11.6-7.7 17.5-11.2 4-2.3 8.5-3.2 13-3.8 4.7-.5 9.4-1 14-2.3 5.7-2.3 10.1-.6 14.7 3.2q4.7 4 8.7 8.5l4.4 4.1c1 .8 2.1 1.7 3.5 1.5h12.1c3.5-.5 7-1.4 10.5-1.5s7 0 10.4-.6c3.3-.6 6.1-2.6 8.7-4.6 3.5-2.7 6.8-5.7 10.5-8 9.7-6.1 13.6-.2 21.7 4.5" class="b"/><path d="M8.5 163q7 3 14 6 7.7.1 15.6.1H40l3.4-2.1q3.4-2.5 7-4.8a72 72 0 0 1 16.5-7q7-2.2 14-3.6c3.8-.5 7.5 1.6 10.4 4 5.3 4 9.4 9.5 14.8 13.4 3.4.3 7 0 10.4.1h18.3q5.2.1 10.5 0 2.8-1.4 5.2-3.3c6.2-4.6 14.2-15.1 22.6-13.4 3.8 1.1 7 3.8 10.4 5.8" class="b"/><path d="M8.5 159.3q3.7 2.5 7.9 4.3c1 .3 2.3 1 3.4.8h23.5l1.8-.8 5.2-2.6c5.6-3 10.9-6.4 16.5-9.1q6.3-3.2 13-3.8c2.5-.2 5 .8 7 2 6.6 4 11.6 10 18.3 13.8 1.3.9 3 .4 4.4.5H133q7 .1 13.9 0c8.3-4 16.3-14.3 25.2-15.1 4.2-.2 7.8 2.3 11.3 4.2" class="b"/><path d="M8.5 153.6q3.3 2.5 7 4.3a45 45 0 0 0 7 1.8h24.3c6.2-1.4 11.3-5.6 16.5-8.9 5.4-3.4 11.8-6.8 18.3-5.3 4 1.2 7.2 4 10.5 6.2a33 33 0 0 0 15.6 7.5c3 .3 5.9-.3 8.7-.6q5.3-.6 10.5-.2c5.5.4 11 2.2 16.5.7 6.8-1.7 13-4.8 19.2-8 7.8-3.9 12.5-5.7 20.9-1.6" class="b"/><path d="M8.5 145.9a24 24 0 0 0 11.3 5.2q7.8 1.4 15.7 2.9 3 .6 6.1 1h8.7c2.2-.4 4.2-1.6 6-2.6 3.6-2 7-4.4 10.5-6.4 7.2-3.8 13.2-4.2 20 .6 15 10.4 17.7 6.8 34 4.4 5.8-.8 11.6.2 17.4.3q3-.1 6-.8 3.1-.5 6.2-.7 8.4-.3 16.5-2.6c6.3-1.8 10-3.6 16.6-1.2" class="b"/><path d="M8.5 137.3q3.4 2 7 3.5c3.4 1.1 7 1.7 10.4 2.7 5.4 1.5 10.5 3.9 15.7 5.9q1.3.5 2.6.8H53c2.2 0 4.2-1.3 6.1-2.2 3.4-1.7 6.8-3.6 10.4-4.8 13-4.5 16.1 3.7 27 6.5 4.4 1 9-.2 13-1.7 5.8-1.6 11.5-4 17.5-4.6 4.9-.7 9.9-.2 14.8-.9 4.9-1.2 10 .3 14.8 1q6.6 1.2 13-.1c5.6-1.4 8-3 14-1.2" class="b"/><path d="M8.5 128.5q3.6 1.2 7 2.7 5.3 1.8 10.4 4.3c5.7 2.8 10.9 6.7 16.6 9.5 1.8 1 4 .4 6 .5h9.6c1.8 0 3.6-.9 5.3-1.3a59 59 0 0 1 8.7-1.9c8.4-1 10.7.3 18.2 3.2h14.8c2.4-.3 4.7-1.6 7-2.1 5.5-2 10.8-4.5 16.5-6a86 86 0 0 1 10.5-1.9c2.3-.2 4.6-.8 7-.7 6.2.3 12 3 18.2 3.6 3.8.4 7.6-.3 11.3-1 2.7-.4 5.4.3 7.9 1.3" class="b"/><path d="M8.5 120.3c9.8.8 17 8.2 24.4 14q3.4 2.6 7 5c1 .5 2.2 1.5 3.4 1.5H106q6.1-1.3 12.2-3.2c9.3-3 18-8.5 27.8-9.5 4.8-.4 9.5.9 14 2.2 3.6 1 7.4 2.3 11.3 2.7q2.2.1 4.3.1c2.8.3 5.4 1.7 7.8 3" class="b"/><path d="M8.5 114c7-.6 12.1 4.8 16.6 9.3 4 4.3 8.1 8.8 13 12.1 1.2 1 3 .5 4.4.7h59.2l6-.6c5.6-.3 11.3-.3 16.6-2.4 5.2-1.9 9.9-5.1 14.8-7.7 4-2 8.6-3.2 13-3.5 4-.2 7.8.9 11.3 2.5 3.2 1.3 6.3 3 9.6 4.1 4 .7 7.3 3.2 10.5 5.5" class="b"/><path d="M8.5 110c7.4-.3 12.3 6.3 16.6 11.4 2.7 3.3 5.5 6.8 8.7 9.6 1.6.6 3.5.2 5.2.3h55.7c1.1.1 2.4-.4 3.5-.6q2.5-.5 5.2-.5 4.4.3 8.7 1.1h14l3.4-1.6c5.4-3 9.8-7.6 15.7-9.9 5.1-2.8 10.7-5.2 16.5-2.7 4.1 1.7 7.5 4.7 11.3 7q3.3 1.5 6.1 3.8c1.4 1 2.8 2.6 4.3 3.4" class="b"/><path d="M8.5 107.5c10 1.8 14.7 12 21 18.8 1.5.6 3.5.2 5.1.3h59.2q3.4-1.6 7-1.6c2.7 0 5.2 1.1 7.8 1.6H133c2.4-1.6 4.6-3.8 7-5.6 1.5-1.3 3.5-2.3 5.2-3.4 3.3-2.3 6.4-5.2 10.4-6.3 6.1-1.7 11.3 3.2 15.7 6.7q2.2 1.8 4.3 3.2 3.1 2.6 6.1 5.4h1.7" class="b"/><path d="M8.5 105.3c8.6 3.2 12.9 9.4 18.3 16.3q1.3.4 2.6.3h66.1q1.8-.5 3.5-.5 2.3.2 4.4.5h33.1c2.1-2 4.4-4.2 7-5.7q3-2.4 6-5c6.8-6.1 12-6.5 19.2-.6q3.8 3.1 7.8 6.1 3 2.7 6 5.1h1" class="b"/><path d="M8.5 104.2q5.7 2.3 10.5 6.2l4.3 4.3c.8.8 1.6 2 2.6 2.5h105.3c8.5 0 4.7.1 11.4-4 4.7-2.7 8.6-7.2 13.9-9 5.2-2 10.5.8 14.8 3.6l5.2 3q3.4 2.4 7 4.4" class="b"/><path d="M8.5 103.4a59 59 0 0 1 9.6 4c2.5 1.3 4.7 3.3 7 5H133c1.1 0 2.5.1 3.5-.6q2.4-1.6 5.2-2.7c5.2-1.8 10.2-4.7 15.6-6 5.8-1.5 11.8-.3 17.5 1.2 3 .8 5.8 2.1 8.7 3" class="b"/><path d="M8.5 101.8c4.1.4 8.4 1 12.2 2.6q2.3 1 4.4 2.2l1.7 1 1.7.1h99.3a62 62 0 0 1 9.5-3c5.7-1.4 11.6-.9 17.4-1.4 6.6-.5 12.8-3 19.2-4 3.1-.5 6.4-.1 9.5.4" class="b"/><path d="M8.5 98.6c6.1-.8 12.5-1 18.3 1.4a30 30 0 0 1 5.2 3h87.1c.4 0 1.3 0 1.7-.2l1.7-1.1q2.5-1.6 5.3-2.7a21 21 0 0 1 12.1-.7q4.1.5 7.9 2.1c17.4 7.9 20.3-8.1 35.7-7.7" class="b"/><path d="M8.5 94q3.5-.9 7-1.6c3.1-.3 6.4-.7 9.6-.2 4.3.7 8 3.3 11.3 6h81c10.2-8.9 13.8-9.5 26-3.8q2.3 1.2 4.4 2.6c.7.5 1.6 1.4 2.6 1.3 4.9-.1 9.9.2 14.8-.2 5.6-4.4 10.5-10.7 18.3-11.1" class="b"/><path d="M8.5 88.5c5.7-1 11.6-2.5 17.4-1.6 4.7.8 8.6 3.8 12.2 6.6h77.5c10.1-8 14.1-10.4 26-3.5q2.4 1 4.4 2.5l1.8 1h13q3.1.2 6.1-.1c4.8-4.5 9.7-9.9 16.6-10.8" class="b"/><path d="M8.5 81.7a40 40 0 0 1 30.5 7h74.8c3.6-1.4 6.8-3.8 10.5-4.7 7-2.3 13.8 1.9 20 4.7q7.8.2 15.7 0h5.2c1.2.1 2.6.2 3.5-.9 4.2-3.8 9-7.6 14.8-8.4" class="b"/><path d="M8.5 75q4-.1 7.9.7c5.1 1.3 9.9 3.7 14.8 5.8q3.4 1.6 7 2.6H92c5.5-.1 11 .2 16.5-.1q3.4-1.3 7-2a37 37 0 0 1 22.6.8c1.4.4 2.9 1.2 4.4 1.3h24.3c2.2-1 4-2.8 6.1-4q4.8-3 10.5-3.7" class="b"/><path d="M8.5 69.2c8.7.3 13 5.4 20 9.3.8.4 1.8 1 2.7.8h14.7c2.1-.1 4.2-1.2 6.1-1.9 2.8-1 5.8-2 8.7-2q4.1-.1 7.9 1.6c1.7.6 3.4 2 5.2 2.3h23.5c1.2.2 2.4-.4 3.5-1l4.3-1.8c5.5-2.4 11.7-1.3 17.4-.7 7.6 1 15.3 1.1 22.7 3 3.3 1 7 .4 10.4.5h7c1.1 0 2.4-.6 3.4-1 6.2-2.2 10.4-5.4 17.4-5.2" class="b"/><path d="M8.5 64.8c6 .2 9.9 3.5 14 7.4 1 .7 2 2.3 3.4 2.4H46c4.3-2.1 8.3-5.2 13-6.4 6.8-1.8 12.6 3.2 18.3 6.3 1.3.3 3 0 4.3.1h7c2.1-.3 4.1-1.7 6-2.6 4.2-2.1 8.4-4.7 13.1-5.5 3-.5 6 .3 8.7 1q4.7 1.7 9.6 2.4c6 1 12.2-1.1 18.3-.2 7.5 1 15 2.1 22.6 1.3 3.3-.2 6.4-1.4 9.6-2q3.4-.5 7 0" class="b"/><path d="M8.5 61.4c7 0 10.2 4.3 14.8 8.5h20q1.8.1 3.5-.2l3.5-2.3c6.5-4.8 12.1-8.3 20-4 3.2 1.6 6.1 4 9.6 5 8.3 1.9 16.6-7.3 24.4-9.6q5.1-1.8 10.4.3c4 1.4 8 3 12.2 3 5 .2 9.8-2.1 14.8-2.5q3 .1 6 .5c7.1.8 13.9 3.3 21 3.8q3.5 0 7-.9 3.8-.2 7.8.7" class="b"/><path d="M8.5 58c6.4 0 9.6 3.3 14 7.2h25.2c2.2-1 4.1-2.7 6-4 8.7-6.2 13.4-5.8 22.7-1.4 4.6 2.2 8.7 1.4 13-.9 7.1-3.4 14.3-9.7 22.7-7.7 5.4 1.4 10.9 3.6 16.5 2.5 3.6-.5 7-2 10.5-2.8 4-1 8.2.2 12.1 1.3 6.4 1.9 12.5 5.3 19.2 5.6 2 .1 4-.6 6-.9a25 25 0 0 1 7 .6" class="b"/><path d="M8.5 54.3c5 .1 9.5 2.9 13 6.1h29.7c6.1-3.7 12.4-8 20-7.4 2.9.2 5.8.8 8.7 1 5 .2 9.5-2.9 14-5 17.2-9.3 19.1.2 33.8-1.8 5.6-.9 10.8-4.4 16.6-3.4C154 45.3 162 53.7 172 53q2.3-.3 4.4-.9 3.4-.5 7-.3" class="b"/><path d="M8.5 49.6c4.8.8 9.2 3.3 13 6.1h32.3l7.8-3.3q5.5-2.2 11.3-3.3c2.9-.6 5.9-.8 8.7-1.4 4.9-1.5 9.2-4.5 14-6.2 11.7-4.6 19.9 3.1 31.3 1 5.5-.7 10.8-4 16.5-3.4 9.6 1.7 17 10.2 27 10.3q3-.2 6-1.2 3.5-1 7-1.7" class="b"/><path d="M8.5 43.9c3.6 1.2 7 3.2 10.5 4.9Q21 50 23.3 51h18.3a80 80 0 0 0 18.3-1.4c5-1 10-2.9 14.8-4.8 2.5-1 5.3-1.7 7.8-3 5-2.4 10-5.8 15.7-6.1 4.8-.4 9.3 1.6 14 2.8q9.5 3 19 0c3.5-.9 7-2.2 10.5-2.2 4.4 0 8.4 2.5 12.2 4.5 6 3.4 13 6.7 20 4.7 3.3-.8 6.4-2.4 9.6-3.6" class="b"/><path d="M8.5 37.6c8 4.4 15.7 9.2 25.3 7.8 4.4-.6 8.6-2.3 13-2.6 5.8-.1 11.6 2.3 17.4 1.5 6.6-.8 12.5-4.4 18.3-7.2 4.3-2.5 8.8-5.6 14-5.6 4.3 0 8.3 2 12.1 3.7 6 2.7 12.7 3.8 19.2 2.3 4-.8 8-2.5 12.1-3 4.7-.6 9 1.7 13 3.7 7.3 3.8 14.7 6.2 22.7 3.5q4-1.6 7.9-3.6" class="b"/><path d="M8.5 31.6c3 1.6 5.7 3.7 8.7 5 8.5 3.8 15.3 1.7 23.5-1 3.7-1.3 7.7-1.7 11.3-.4 4.3 1.3 8.6 3.2 13 3.2 4 0 7.9-1.3 11.4-3a83 83 0 0 0 7.8-4c11.4-7 15.7-3.3 26.1 2.4 10.5 4.8 17 1.8 27-1.5a17 17 0 0 1 13 1.4c8 3.7 14.7 6.7 23.6 5 3.3-.5 6.4-2.3 9.5-3.6" class="b"/><path d="M8.5 25.8c2.9 1.6 5.6 3.8 8.7 5 8.3 3.3 15.5 1 23.5-1.3 3.7-1 7.7-1.3 11.3.1 3.8 1.3 7.4 3.1 11.4 3.8 7.3 1.4 14.4-2.2 20.8-5.4 17.1-9.4 20.9 6.4 35.7 6.7 6.6 0 12.3-3.8 18.3-6 4.4-1.8 8.8-.8 13 1 4 1.7 8 3.6 12.2 4.6q6.1 1.5 12.2.6c2.7-.5 5.3-1.6 7.8-2.4" class="b"/><path d="M8.5 20q3.4 2.2 7 4c7.8 3 16.3 2.1 24.4 1.3 4.3-.5 8.9-.3 13 1.4 7.1 2.8 13.3 4.8 20.9 2.4 5.3-1.4 10.3-4 15.7-5.3 5.5-1.3 11 1 15.6 4 2.6 1.5 5 3.6 7.9 4.3H125c1.9-.2 3.6-1.4 5.3-2.1 3.4-1.8 6.7-4 10.4-5.3 5.4-1.8 10.8 1 15.7 3a36 36 0 0 0 27 2.4" class="b"/><path d="M8.5 14.6q3.4 1.8 7 3.2 3.4.8 7 1.2 9.1 1.2 18.2 2.5 5.2.8 10.5 2.1c4 1.2 8 2.7 12.1 2.9 9.6.6 18.4-5.2 27.9-5q5 .1 9.6 2.6c2 .9 4 2.5 6 3.3h24.4c1.5-.6 3-1.8 4.4-2.6 3.1-1.9 6.6-4 10.4-3.8 6.8.3 12.7 4.3 19.2 6 2.2.7 4.7.2 7 .4h11.2" class="b"/><path d="M8.5 9.4c2.3.9 4.6 2 7 2.4q3 .3 6 .5 7.2.8 14 3.1c5.2 1.8 10.3 3.8 15.7 5 4.2 1.2 8.6 2 13 1.6 5.1-.4 9.9-2.5 14.8-3.6 9.1-1.7 15.6-.6 23.5 4.2h33.1c2.3-1 4.5-2.7 7-3.6 3-1.2 6.5-1 9.5-.1q5.3 1.7 10.5 3.7h20.9" class="b"/></svg>