<svg xmlns="http://www.w3.org/2000/svg" id="a" width="1920" height="2400" viewBox="0 0 192 240"><defs><style>.b{fill:none;stroke:#fff;stroke-miterlimit:10;stroke-width:.4px}</style></defs><path d="M0 0h192v240H0z" style="stroke-width:0"/><path d="M8.1 229h60.4c1.2-.3 2.4-1.3 3.5-2q3-2 6-3.8c5.3-2.8 11.1-.2 15.8 2.4l6.1 3.3h63q3-.5 6.1-1.3 3.5-.9 7-1.5c2.6-.3 5.3.3 7.9.8" class="b"/><path d="M8.1 224.2h23.6c4.7-.1 9.4.3 14-.2 3-.3 5.9.2 8.8.2 7.3.2 13.5-3.9 19.2-7.8 6-4.2 10.2-4.6 16.6-.9 5 2.8 9.5 6.7 14.9 8.7H175c2.9-.5 5.9-.4 8.7-.6" class="b"/><path d="M8.1 218.6q3.1.1 6.2.9h18.3c1.9.2 3.6-.6 5.3-1.2q3.4-1.4 7-2.3c3-.8 6.4-.8 9.6-1.4 6-1 11.4-4 16.6-7.1 7.5-4.5 11.6-5.6 19.2-.5 5.8 3.6 10.8 9 17.5 10.7 2 .5 4.1 0 6.1 0q3.2.4 6.2 1.6c4.3.4 8.7 0 13 .2q25.5 0 50.8-.1" class="b"/><path d="M8.1 210.5c3.6.6 7 2 10.5 2.7 8.1 1.9 16.2-1 23.6-4 5.7-2.2 11.9-3.2 17.5-5.7 6.4-2.5 12.4-6.2 19.3-7 7.8-.4 14.6 6.9 21 10.8 2.8 1.9 6 3.7 9.6 4.1 2 .1 4.1 0 6 .6l3.6 1.5q1.2.8 2.6 1.2h43.7l6.1-.6c4.1-.3 8.3-.2 12.3-1.3" class="b"/><path d="M8.1 201.4c2.7.7 5.3 1.8 8 2.4 5.4 1.1 11 2.1 16.5 1.3 7.4-1 14.1-4.4 21-7a53 53 0 0 1 26.2-5.2c9 1.2 15.6 8 23.6 11.5 8.6 3.7 8.3-.3 18.4 5.6h28.8a37 37 0 0 1 22.8-6.3c3.4 0 7 .5 10.5.2" class="b"/><path d="M8.1 192.2q3.5 1.5 7 2.7 3.1.5 6.2 1.2c4.8 1.3 9.8 2.6 14.8 2.3 7.6-.3 13.9-5 21-7.1q6.5-1.9 13.1-.9 6.1 1.1 12.2 2.5c9.3 2.6 17.5 8.5 27.1 9.5 1.7.2 3.6.1 5.3.6q3.5.9 7 2.2h21c5.7-4 10.9-9.1 17.4-11.9 5-2.1 10.5-2.2 15.8-1.7 2.6.4 5.3 1.4 7.9 2" class="b"/><path d="M8.1 185q3 1.2 6.2 2.4 2.5.7 5.2 1.3c3.8 1.2 7.5 3 11.4 4 17.1 4.7 19.4-9.3 38.5-3.2l7.8 2.6 7 1.6c5 1.3 9.9 3 14.9 4.2q4.7 1.3 9.6 1.6 5.3 0 10.5.7c3.7.5 7.6.2 11.3.3a27 27 0 0 0 13.2-5.7c5.9-4.5 11.2-10.2 18.3-13q6.8-2.2 14-1.3c2.8.6 5.4 2.2 7.9 3.5" class="b"/><path d="M8.1 179.8q4 1.4 8 2.9c3.3.8 6.4 2.4 9.5 3.8 6.8 3.3 13.8 5 21 2 3.6-1.5 7.4-2.8 11.4-2.7 5.5 0 10.6 2.2 15.7 4 4.5 1.9 9.4 2.2 14 3.2a82 82 0 0 0 30.6 2.2c13.7-1.6 24.4-9.7 35-17.8a29 29 0 0 1 21.8-5.8c3.3.5 6.1 2.7 8.8 4.6" class="b"/><path d="M8.1 176.8a67 67 0 0 1 15.8 6.5c6.6 3.7 13.5 5.8 21 3.5 3.4-1 6.8-2.5 10.5-2.7 5.7-.4 11.2 1.5 16.6 3.2q3 1 6 1.6l8.8 1q8.8 1.3 17.5 1c3.2 0 6.5.3 9.6-.3 7.3-1.5 13.8-5.7 20.1-9.3 5.5-3.3 11.4-6 16.7-9.6a32 32 0 0 1 21-6.5c5.2 0 8.2 2.2 12.2 5.3" class="b"/><path d="M8.1 175.7c7 .9 12.3 5.7 18.4 8.5 2.5 1.2 5.1 2.3 7.9 2 2.8-.1 6 .3 8.7-.2 4.9-1.3 9.8-3 14.9-2.8 6.2 0 12.2 1.8 18.3 2.5q4 .3 7.9.3l11.4.2q5.7 0 11.3-.4c2.3-.2 4.8-.2 7-.8 4-1.1 7.8-3.4 11.4-5.5q6-3.7 12.2-6.6c3.5-1.5 7.2-2.4 10.5-4.2 6.4-3.2 12.8-7.2 20.1-7.3 6.8-.2 10.4 1.5 15.8 5.5" class="b"/><path d="M8.1 175.7c4.7.4 8.6 3.2 12.3 5.8h75.2l11.3-1.2c2.6-.3 5.4-.4 8-1.2 4.5-1.6 8.6-4.2 13-6.2q5.1-2.2 10.5-3.3c3.5-.6 7.2-.8 10.5-2.5 7.7-3.5 15.6-9 24.5-7.2 3.8.8 7.2 3 10.5 4.9" class="b"/><path d="M8.1 175.5q2.3.4 4.4 1.2h84c2.3.2 4.6-.4 7-.8q4.3-.8 8.7-1.4c4.8-.8 9.2-3.3 14-4.5q5.1-1.5 10.4-1.4c3 0 6 .5 8.8 0 7-1.7 12.5-7 19.2-9.5 7.5-3 12.7.3 19.2 3.7" class="b"/><path d="M8.1 172h93.6c3 .2 5.8-1 8.7-1.4 4.8-.4 9.3-2.5 14-3.5a32 32 0 0 1 9.6-.7c3.5.2 7 1.2 10.5 1.2q3.3-.3 6.2-2c7.2-3.8 13.9-11.6 22.7-10.5 3.8.8 7.1 3 10.5 4.8" class="b"/><path d="M8.1 167.2h98c6.7.4 12.8-3 19.2-4.3q4.8-.9 9.6 0c8.6 1.6 10.9 3.6 19.2-1.3 6.3-3.5 12.5-9.6 20.1-8.8 3.6.6 6.7 2.6 9.7 4.4" class="b"/><path d="M8.1 162.5h103.2c4.9-.7 9.2-3.5 14-4.4 5.6-1.3 11.3.5 16.6 2.2 4 1.3 8.4.8 12.2-.8 3.7-1.5 7-3.6 10.5-5.4 3-1.6 6.2-3.1 9.7-3.2 3.4 0 6.7 1.8 9.6 3.6" class="b"/><path d="M8.1 157.8H107q2.2 0 4.4-.2c5.4-1.2 10.2-4.6 15.7-5 10-1 16.6 7.1 27.1 4.8 7-1.3 12.5-6.3 19.3-8.2 3.5-1 7.3.3 10.5 2" class="b"/><path d="M8.1 153h95.3q2.2.2 4.4-.2 3.6-.7 7-1.9c3.7-1.4 7.4-3 11.4-3.3 3.6-.1 7.2 1.1 10.5 2.7l3.5 1.7q1.6 1 3.5 1H162c1.9-.4 3.6-1.8 5.3-2.6 5.5-3.5 10-5.5 16.6-3" class="b"/><path d="M8.1 148.3h95.3l9.6-2.1q4-1.2 8-2a18 18 0 0 1 11.3 1.8c1.7.6 3.4 2.4 5.2 2.3h28.9c.5 0 1.4-.5 1.7-.9l3.5-2.3c3.6-2.2 8.1-2.9 12.3-2" class="b"/><path d="M8.1 143.5h93.6c1.7.2 3.5-.4 5.2-.8q3.5-.7 7-1.2a22 22 0 0 1 11.4.2c1.8.4 3.4 2 5.2 1.8h35q1.4 0 2.6-.2l2.7-2.2c3.6-3 8.5-4 13-3.3" class="b"/><path d="M8.1 138.8h94.5c4-.4 8.1-1.5 12.2-1.7q3.1-.2 6.1.5c1.4.4 2.9 1.3 4.4 1.2h42c2-1.8 3.7-4 6-5.4q5-2.7 10.6-1.4" class="b"/><path d="M8.1 134H100q7-.5 14-1.2 3.6 0 7 1.1c1.7.3 3.6 0 5.3.1h41c4.7-5.5 9-9.4 16.7-7" class="b"/><path d="M8.1 129.3H79q2.2-.8 4.3-1.4 4.4-1 8.8-.5c4.6.3 9.3 1 14 1.2 3.1.1 6.4-.6 9.6-.4 1.7 0 3.5.6 5.2 1h16.6c10.2 0 20.5.3 30.6 0 4.2-5 9-8.4 15.8-6" class="b"/><path d="M8.1 124.5h42q9.7.2 19.2 0 5.8-2 11.4-4.3c7.9-3 15.9 1.4 23.6 2.7q3 .5 6.1.4 3-.4 6.2-.3 2.2.1 4.3.9c.8.2 1.8.8 2.6.6H170c.9-.3 1.8-1.3 2.6-1.8 3.2-2.4 7.5-3.3 11.4-2.3" class="b"/><path d="M8.1 119.8h57.7q5.2-3 10.5-5.3c2-.8 4-2 6.2-2.4 5.3-1.2 10.7 1 15.7 2.6 3.6 1.3 7.5 2.5 11.4 2.5 2.9 0 5.8-.6 8.7-.2q2.7.3 5.3 1.5c1 .3 2.2 1.4 3.5 1.3h48q4.2-2 8.8-2" class="b"/><path d="M8.1 115h52.5q1.6.2 2.6-.9 5.6-4.6 12.2-7.8 3.4-1.6 7-2.5c7-1 13.6 2.5 20.1 4.1 10.3 3 14.1-1.8 24.5 5.5.8.5 1.7 1.4 2.6 1.6h51.6l2.7-.7" class="b"/><path d="M8.1 110.3H58c3.2-3 6-6.6 9.6-9.2 5.9-4.5 13.6-7 21-5.4 5.8 1 11.6 3 17.5 3.8 2.8.5 5.8.4 8.7.9 6.6 1 11.8 5.5 16.6 9.9h49.8q1.5.1 2.7-.4" class="b"/><path d="M8.1 105.5h46.4C60.7 98 67.2 88 78 87.7c7.6-.3 15.1 1.9 22.7 2.6 4 .5 8.2.7 12.3 1.5 8.1 1.8 14.2 8.1 20 13.7h48.2q1.4.1 2.6-.4" class="b"/><path d="M8.1 100.8h42c1.1-.2 2-1.7 2.6-2.5 5.5-6.6 10.8-16.4 20.1-17.4 4.2-.2 8.2 1 12.3 1.6a83 83 0 0 0 14 1.1c4.3 0 8.8-.2 13 1 9.6 2.5 16.3 10.2 23.7 16.2h41.9c2-.1 4.3.3 6.2-.4" class="b"/><path d="M8.1 96H45c.4 0 1.3 0 1.7-.2l2.6-2.4C52.4 90 55 86.4 58 83c3.6-4.3 8.7-8.7 14.8-7.6 3.6.5 7 2.1 10.5 2.8a46 46 0 0 0 15.8.6c3.4-.4 7-.9 10.4-.4 12 2.1 21 11 30.6 17.6H184" class="b"/><path d="M8.1 91.3H44q4.6-3.9 8.7-8.3c4.7-5 9.9-12 17.5-11.6 3.7.2 7 2 10.5 2.9q6 1.6 12.2 1.3c5.3-.2 10.5-1.7 15.8-1.5 13.9 1.7 26.4 9 37.6 17.2h37.6" class="b"/><path d="M8.1 86.6H44c1-.2 1.9-1.2 2.6-1.8l2.6-2c8.1-6.9 14.3-15.4 26.3-12.8q7.3 1.5 14.8 1.3c5.5-.2 11.1-.9 16.6-.6 4.7.4 9.4 1.5 14 2.4a65 65 0 0 1 25.4 11.1c1 .7 2.2 2 3.5 2.4h34.1" class="b"/><path d="M8.1 81.8h38.5q5.8-3.6 11.4-7.4c9.8-6.2 15.4-5.7 26.2-7.2a54 54 0 0 1 15.7-.6c5 .6 10 2 14.9 2.7 15.7 2.4 22.4 3.3 35.8 12.5H184" class="b"/><path d="M8.1 77h42q3-1 6.1-2.2l21-8.4c5.1-1.9 10.2-4.6 15.7-4.7 6-.3 11.2 2.9 16.6 4.6 7.5 1.7 15.3 2.3 22.8 3.8q4.6.9 8.7 2.5 4.8 2.3 9.6 4.2c1.4.5 3 .2 4.4.2H184" class="b"/><path d="M8.1 72.3h53.3c7.6-1 13.8-6 20.2-9.8 6.9-4.6 12.4-6.4 20-2.1 3 1.5 5.7 3.4 8.8 4.4 7.8 1.7 15.8 2.4 23.6 3.4q3.7.5 7 1.5 3.9 1.7 7.9 2c5 .7 10 .6 14.9.6h20" class="b"/><path d="M8.1 65q6 1.9 12.3 2.6h51.5c2-.7 3.7-2.1 5.3-3.2l7-5.2c5.4-4 10.7-4.9 16.6-1.4 3 1.6 5.7 3.8 8.8 5 4.1 1.4 8.7 1.7 13 2 5 .4 10 0 15 .5 3.2.1 6.3 1.7 9.5 1.6 4.1 0 8.2-1.1 12.3-1q3 0 6.1.7c1.1.2 2.4.8 3.5 1h14.9" class="b"/><path d="M8.1 59.2q6 2 12.3 3.5 9 .1 18.3.1h39.4c5.4-3.4 10.5-9 17.5-8.1 4.5.5 8.3 3.5 12.2 5.5 5.3 2.7 13.5 2.2 19.2 1.6 3.8-.4 7.6-1.1 11.4-1.1 2.7-.1 5.2 1 7.9 1 4.7-.1 9.3-1.8 14-1.8q4 0 7.8 1.3c1.5.4 3 1.3 4.4 1.6H184" class="b"/><path d="m8.1 55.3 5.3 1.7c1.4.5 2.9 1.2 4.4 1h64.6c3.2-1.6 6.1-3.8 9.7-4.5 6.3-1.6 11.8 2.5 17.5 4.5h19.2c3.5-.4 7-1.3 10.5-1.3 2.6 0 5.3.9 7.9.6 4.4-.4 8.7-1.7 13-1.6 4-.2 7.8 1.2 11.5 2.4h12.2" class="b"/><path d="m8.1 51.9 4.4 1.4h35q1.4.1 2.6-.4 1.7-.7 3.5-.7c2.4-.2 4.7.6 7 1.1h25.3q4.2-2.3 8.8-2.6a22 22 0 0 1 7.9 1.1c1.7.5 3.4 1.6 5.2 1.5h24.5l7.8-.1q4.5.2 8.8.1c2.9 0 5.8-.6 8.7-.6q3.6 0 7 .6H184M8.1 48q2.2.7 4.4.6h37.6c1.2-.1 2.4-1 3.5-1.2q2.2-.6 4.4-.5 2.7 0 5.2.8c1.1.3 2.4 1 3.5.9h14.9q2.7 0 5.2-.2a27 27 0 0 1 18.4 0q3.5.3 7 .2h71.7M8.1 43.1l2.7.7H50q1.8.2 3.5-.2l2.6-1.2a19 19 0 0 1 12.3 0l4.3 1.3c2.9.3 5.9 0 8.8.1 3.4-.7 7-1.7 10.5-1.8 4.4-.3 8.8.6 13 1.7 2.6.3 5.4 0 8 .1h70.8M8.1 37.3q4 .5 8 1.8h38.4q3.2-2.1 7-2.9c5.3-1 10.5 1.3 15.7 1.7q3-.2 6.1-.8a42 42 0 0 1 8.8-.7c4.7 0 9.4 1.6 14 2.7h77.8M8.1 31.2c4-.1 8.2.4 11.4 2.7q1.3.6 2.6.4h34.1c1.8.2 3.5-1 5.3-1.4q3.3-1 7-.8c4.3.1 8.8 1.1 13 0a39 39 0 0 1 20.2.8q2.6 1 5.2 1.4h19.3l7-1.5c3.4-.7 7-1.1 10.4-.1q3 .7 6.2 1.6h34.1M8.1 26c3.2-.5 6.7-.4 9.7.9 1.5.7 2.9 1.9 4.3 2.7h42c2.6.1 5.3-.5 7.9-.6q5.7 0 11.3-1.2c6-1.5 12.4-2 18.4-.3 3.2.6 6.3 2.2 9.6 2h5.3q1.7.2 3.5-.1c6.4-1.5 12.4-5.4 19.2-5 3.5.2 6.6 2.1 9.6 3.6 1.1.5 2.3 1.5 3.5 1.6H184" class="b"/><path d="M8.1 22.2c3.8-1 8-.8 11.4 1.3.8.4 1.7 1.1 2.6 1.3h60.4l5.2-1.7c8.8-3.2 14.1-2 22.7.6 10.9 3.3 20.1-9.5 30.6-6 2.9 1.3 5.4 3.3 8 5 1.2.8 2.6 2.4 4.3 2.1h30.6" class="b"/><path d="M8.1 19.2q4-1 8 0l2.5.9H72q7.4.1 14.8-.1 3-1.6 6.1-3c8-3.3 12.5-1.2 20.2.9 9.8 1.2 18.2-10.5 28-5.6 2.4 1.4 4.6 3.6 7 5.4 1 .7 2.2 2 3.4 2.4H184" class="b"/></svg>