<svg xmlns="http://www.w3.org/2000/svg" id="a" width="1920" height="2400" viewBox="0 0 192 240"><defs><style>.b{fill:none;stroke:#fff;stroke-miterlimit:10;stroke-width:.4px}</style></defs><path d="M0 0h192v240H0z" style="stroke-width:0"/><path d="M8.6 230.5h20.9c2.5-1 5-2.5 7.8-3.4q4.6-1.5 9.6-1.5c8.6.4 14.2.7 22.6-2.5 7.1-2.7 11.3-4.6 19.1-2.7 7.6 1.7 15.3 3.5 22.6-.4 2.8-1.4 5.3-3.4 7.9-5 8.3-5.4 14.2-1.1 20 5.4 2.7 3 5.4 6.3 8.7 8.8l1.7 1.2q1.4.3 2.6.2h31.4" class="b"/><path d="M8.6 225.8H32q5-2.2 10.4-2.9c3.2-.4 6.4 0 9.6 0 8 .1 15-4.6 21.7-8.5 11.9-7.5 22.6 4 34.8.6 5-1.3 9-5.1 14-6.2 11.4-2 16.8 11.2 25.2 16.3 1.4 1.1 3.5.6 5.2.7h30.5" class="b"/><path d="M8.6 221h24.3c1.2.2 2.4-.6 3.5-.9q3-.9 6.1-1.2 4.3-.2 8.7.4 5.5.3 10.4-2C74.2 211 76.9 201.1 93 207c5 1.7 10.1 4.4 15.6 3.9 3.3-.5 6.4-2.3 9.6-3 10-2.9 17.3 4 24.4 10 1.7 1.3 3.8 2.7 6 3.2h34.9" class="b"/><path d="M8.6 216.4h21.7q1.8 0 3.5-1 2.6-1 5.2-1.6 5.2-1.1 10.5 0c12.7 3.4 17.8-3.8 27-10.6 4.1-3.1 9.8-3.8 14.7-2.4 4.3 1 8.2 3.3 12.2 5 5.5 2.2 6.8 1.2 12.2.4q5.7-.6 11.3 1 6 1.6 11.3 4.5c2.8 1.3 5.6 3 8.7 3.5 4.9.6 9.9-.4 14.8 0 2.6 0 5.3.7 7.8 1.2h14" class="b"/><path d="M8.6 211c1.9 1 4 .6 6 .6h9.6c1.9.3 3.6-.8 5.3-1.5q3.4-1.5 7-2.6 5.5-1.7 11.2-.5c3 .8 5.8 2.1 8.7 2.7 8 2 14.3-4.6 20-9.2a20 20 0 0 1 20-3.2c4.7 1.8 8.9 5.2 14 5.6q3.5-.2 7 .3c4 .7 8 1.9 12.1 2.7q5.6 1.1 11.3 1.9c3.5.8 7 .4 10.5-.3q5.2-1 10.4 0c3.7.8 7 2.6 10.4 4.1h11.4" class="b"/><path d="M8.6 201c2.8 1.1 5.7 2.4 8.7 3 6.3 1.2 12.2-2.3 18.3-3.5q6.5-1.6 13 .5c3 1.1 5.7 3 8.7 4 7.3 3.1 13-1.4 18.3-5.9a36 36 0 0 1 13.9-7.3c4.5-1 9 .6 13 2.7 2.3 1 4.6 2.3 7 2.8q1.7.3 3.5.3 2.6.5 5.2 1.3a43 43 0 0 0 14 2.9q4.3-.2 8.6-.8c3.3-.1 6.5-1 9.6-1.9 4-1 8.4-1 12.2 1q3.6 1.7 7 4c1.6 1 3.3 2.4 5.1 2.8h8.7" class="b"/><path d="M8.6 192c2.9 1.1 5.7 2.5 8.7 3.3 6.3 1.7 12.8-.5 19.1-.5q6.3 0 12.2 2.2c3.3 1.3 6.2 3.6 9.6 4.9 1 .5 2.3.2 3.4.3l5.3-.1c4-1.5 7.1-4.6 10.4-7.2q3-2.1 6.1-4c4.1-2.7 9-5 14-4.2 3.9.6 7.5 2.6 11.2 3.7 2 .6 4.2.4 6.1 1 4 1.2 8 3 12.2 3.7 6.2 1.1 12.3-.9 18.3-2 3.4-1 6.8-2.4 10.4-2.2 6.5.4 11.4 5.4 16.5 8.8q2.5 1.6 5.3 2.5h6" class="b"/><path d="M8.6 185.4c4.1.8 8 2.5 12.2 3.3 5.8 1.1 11.7 1.8 17.4 3.5 5 1.6 10 3 14.7 5.1 2.6.4 5.3 0 7.9.2l8.7-.1 4.3-3A76 76 0 0 1 93 183c4.9-1.4 10 0 14.8 1 2 .5 4 .4 6 .8q3.6.7 7 2 6 2.1 12.2 2c5.3-.4 10.5-1.7 15.6-3 4.1-1.1 8.5-.7 12.2 1.3 5.6 2.9 9.7 8.3 15.7 10.3h7" class="b"/><path d="M8.6 181.8c7.5 0 14.9 2.7 21.7 5.7l7.9 3.9 2.6 1.2q1.6.2 3.4.1h27c.5-.3 1.3-1 1.8-1.2q3-2.2 6-4.1c11.7-6.7 16-8.4 29.6-7.7q3-.2 6.1 0c3.2.4 6.4 1.4 9.6 2.2 9 2.3 15.5 1 24.3-.7q6.6-1 12.2 2.6 4.1 2.6 7.9 5.8l3.4 2.5 1 .5.8.1h9.5" class="b"/><path d="M8.6 181.3c7.7-1.2 14.3 1 20.9 5l2.6 1.5c2.2.4 4.6.1 7 .2h33q1 .1 1.7-.5l8.7-4.6q9.2-4 19.2-5.3l11.3-1.8c5.6-.5 11 1.1 16.5 2q7.5 1.6 14.8.4c8-1.4 13.6.3 20 5l4.4 3.3c.7.5 1.7 1.3 2.6 1.5h12.1" class="b"/><path d="M8.6 182.5q4.4-.5 8.7-.2c2.3.1 4.6 1.2 7 1h51.3l5.2-2.4c7-2.8 14.6-3.2 21.7-5.4 9.5-2.7 13.2-5 23.5-2.9 4.6 1 9.2 2.3 14 2.5 3.4.2 7-.6 10.4-.3q5.5.3 10.4 3c3 1.5 5.9 3.6 8.7 5.3 4.6.4 9.4 0 14 .2" class="b"/><path d="M8.6 178.6h69.6q1.3-.3 2.6-1 1.6-.8 3.5-1.2c6-1.5 12.4-2 18.2-4.4 7.2-2.7 12.8-6 21-4.8 5.2.6 10.3 2.7 15.6 3.6 4 .7 8.1-.1 12.1.2q5.5.4 10.5 2.7 4.4 2.2 8.7 4.6c1.6.6 3.5.2 5.2.3h7.8" class="b"/><path d="M8.6 173.9h71.3q1.7-1 3.5-1.8c5.7-2 11.8-3.3 17.4-5.9 6.4-2.7 12.8-6.6 20-5.7 7 .6 13.2 4.3 20 5.5 3.4.5 7 .1 10.4.3q6 .3 11.4 2.3c4.3 1.7 8.5 4 13 5.3h7.8" class="b"/><path d="M8.6 169.1H79c1-.1 1.9-.8 2.6-1.2l3.5-1.7q8-3.5 15.7-7.2c7.5-3.7 13.3-6.5 21.7-3.3 6.9 2.3 12.9 7 20 8.3 4.3.7 8.8.5 13.1 1 6.5.4 12.8 2.3 19.1 3.3l2.7.8h6" class="b"/><path d="M8.6 164.4h69.6q5.5-3.4 11.3-6.4 5.6-3 11.3-5.8c3.3-1.5 6.8-3 10.4-3.2 10-.4 19.4 9.4 28.7 12.8q5.6 1.8 11.3 2.6h32.2" class="b"/><path d="M8.6 159.7h67c1.2-.4 2.3-1.5 3.4-2.1l7-3.7c7.1-3.7 14.4-8.4 22.6-8.9 5.5-.2 10.3 2.8 14.8 5.5s9 5.8 14 8l2.5 1.2h43.5" class="b"/><path d="M8.6 155h65.2q2.4-2.4 5.2-3.9l7.9-3.5c6.5-3 13.5-6.1 20.8-5.3 7.4 1 13.5 5.8 20 8.8q3 1.6 6.1 2.7c1.4.5 3 1.3 4.4 1.1h45.2" class="b"/><path d="M8.6 150.2h62.6c2.2-1.2 3.9-3.3 6.1-4.5 2.7-1.6 5.8-2.1 8.7-3.2 7.8-2.6 16.5-4 24.4-.8 4.4 1.7 8.6 4 13 5.5a73 73 0 0 0 13 3h47" class="b"/><path d="M8.6 145.3c1.6.5 3.5.1 5.2.2h53.9c.6-.1 1.4-.7 1.8-1 3-2.4 6-5 9.5-6.2a49 49 0 0 1 23.5-.6c7.7 1.8 14.7 6.1 22.7 6.6 4.3.4 8.7 0 13 .2q2.2 0 4.4.6 1.6.6 3.4.4h37.4" class="b"/><path d="m8.6 139.8 2.6.9h49.6c.8 0 1.9.2 2.6-.3 3.7-2.3 7.4-5 11.3-7 6.7-3.2 14.7-2.3 21.7-.3s13.6 5.7 21 6.7c6 1 12.1-.4 18.2-.8q4-.4 7.8.5c1.5.4 2.8 1.5 4.4 1.3h35.6" class="b"/><path d="m8.6 135.3 2.6.7h44.3q1.6-.1 2.7-1l3.4-1.7q4.7-2.3 9.6-4.4a27 27 0 0 1 20-.7c6.3 2.2 12 5.6 18.3 7.6 1.3.5 3 .2 4.4.3h6q6.7.2 13-.4 4-.4 8 0c1.6 0 3.4.5 5.1.4h37.5" class="b"/><path d="M8.6 131.2c4.9.4 9.9 0 14.8.1H52q2.3-1 4.3-2.2 4.6-2.5 9.6-4 5.6-1.3 11.3-1.4c3.2-.3 6.5-.4 9.6.7 4.9 1.5 9.3 4.2 13.9 6.6 1 .6 2.4.3 3.5.3h79.1" class="b"/><path d="M8.6 126.5c14.2.3 28.4 0 42.6.1a27 27 0 0 1 23.5-5q3.4.5 7 .3c3.6.3 7.2 1.9 10.4 3.6q1.2.8 2.6 1.1h88.7" class="b"/><path d="M8.6 120.4a33 33 0 0 1 8.7 0c1.5.2 3 1 4.3 1.5h29.6c5.2-3.9 11-5.4 17.4-3.6 3.2.8 6.3 2 9.6 2.4 1.4.2 3 0 4.3.2q2.3.5 4.4 1h68.7q14 .2 27.8-.1" class="b"/><path d="M8.6 115.3q4.4-.4 8.7.3c1.5.3 2.9 1.2 4.3 1.6h32.2q1.8 0 3.5-.7a20 20 0 0 1 5.2-.9q3.5 0 7 .8c1.7.3 3.5 1 5.2.8H179q2.3-.4 4.4-.4M8.6 111.5l7 1h61.7q4 0 7.8-.3l4.4.3h86.1l7.8-.8M8.6 107.7h67.8c4-1.3 8-3.4 12.2-3.6q3.7 0 7 1.8c1.1.5 2.2 1.6 3.4 1.8h67c2.1.1 4-1.1 6.1-1.2q2.6-.2 5.3.1 3 0 6-.2M8.6 103H72q1.4.2 2.6-.5 3.3-2 7-4c1.9-1 4-2.3 6-3 4.5-1.5 9 .5 12.2 3.6l2.6 2.6c.4.4 1.2 1.2 1.8 1.3h46.1q4.3 0 8.7 0l4.3-2c9.3-3.7 11.5.4 20 .2" class="b"/><path d="M8.6 98.3h61.7q1.3 0 2.7-.2l3.4-2.4 7.9-5.5c4.4-3.3 9.2-4.6 13.9-.9q2.9 2.4 5.2 5.2c1.1 1.2 2 3 3.5 3.8h35.7l7-.1 5.1-2.1c5.7-2.4 12.2-4.7 18.3-2.7 3.4 1.4 6.8 2.9 10.4 3.3" class="b"/><path d="M8.6 93.6H72q3.1-1.7 6-3.8c5-3 9.5-8.7 15.7-7.8 5.9 1.4 9.4 7 13 11.2q1.4.5 2.7.4h28.7q1.3-.6 2.6-1 2.2-.6 4.4-1l5.2-1.2c5.6-1.6 11.5-3.4 17.4-2.6 3.7.4 7 2.4 10.4 4 1.7.7 3.4 1.8 5.2 1.8" class="b"/><path d="M8.6 87.3q3 .2 6 .8 1.8.4 3.6.7h50.4q3.1-1.2 6.1-2.9 4-2.2 7.8-4.6c3.1-1.9 6.7-3.8 10.5-3.4 6.7.9 10.7 7 15.6 11H134c.8.1 1.8-.6 2.6-.9q2.5-1.2 5.2-1.7c5.5-.6 11-1.8 16.5-2a30 30 0 0 1 17.4 4.5h7.9" class="b"/><path d="M8.6 81.5q4.5-.5 8.7.9c1.7.4 3.4 1.8 5.2 1.7h39.1c2.1-.5 4.1-1.8 6.1-2.5L79 76.7c7-3 13.2-3.8 20-.2 4.6 2.2 8.5 5.6 13.1 7.5q8.7.1 17.4.1 4.4-.9 8.7-1.6 4-.6 7.8-.6 5.3-.6 10.5-.4 4 .3 7.8 1.3c1.4.3 2.9 1.2 4.4 1.3h14.8" class="b"/><path d="M8.6 76.8a18 18 0 0 1 11.3 2.1q.8.6 1.7.5h30.5c2.2-.1 4.8.3 7-.2q4.8-3.8 10.4-6.6A29 29 0 0 1 93 71c6 1.8 12 4 18.2 5 5.2 1 10.5.7 15.7 1.2 5.8.5 11.5 2 17.4 2q4.3-.2 8.7 0 3 .2 6 .2h24.4" class="b"/><path d="M8.6 73q3.5-.4 7 .5c1.3.4 2.7 1.4 4.3 1.2h36.5c7.3-7 15.3-14 26.1-11.2 4 1.1 7.5 3.2 11.3 4.6 13.5 5 22.6-2.8 37.5 4.4 1.7.7 3.4 1.8 5.2 2.2h47" class="b"/><path d="M8.6 68.7q2.6 0 5.2.3c1.4.2 2.9 1 4.4 1H53c8.4-7.6 15.2-15.7 27.8-12 4 1.4 7.5 4.2 11.3 6 6.4 3.4 11.6 2.5 18.3 1 8-1.7 13.7-1.3 20.8 3q1.8.8 3.5 2h48.7" class="b"/><path d="M8.6 63.5q3 0 6 .7c1.2.3 2.4 1 3.6 1h23.4q2.2.2 4.4-.1l2.6-1.4c4-2.1 7.5-5.1 11.3-7.5 7-4.3 13.3-4.5 20.9-2 4 1.5 7.5 4.5 11.3 6.5 7.4 4.1 12.4 2.5 20 1 4.3-.9 8.8-1.4 13-.2 3.1.7 6 2.3 8.8 3.7h49.6" class="b"/><path d="M8.6 58q4.8 1.1 9.6 2.5H32q2.2 0 4.3-.8 3-.8 6.1-1.9l7.8-2.8q4.4-1.8 8.7-3.7c7-2.9 14.6-3.4 21.8-1 9.4 4.1 14.2 11.7 26 9.3 5.8-1 11.6-3 17.5-1.8q2.2.5 4.3 1.3c1.1.4 2.3 1.3 3.5 1.4h51.4" class="b"/><path d="M8.6 51.4c13 6 15.2 2.7 27.8-.3 4.3-1 8.7-1.3 13-1.8q6.2-.8 12.3-2c7-1.1 15-3.2 21.7.4 4 2 10.6 7.8 14.8 8h13l2.6-.6c4-1.1 8.3-1.5 12.2-.2l2.6.9h54.9" class="b"/><path d="M8.6 43.7c9 5.4 11.8 3.5 20.9.4q5.9-2 12.1-1c8 1.4 16.3 3.4 24.4 1.6 15.1-3.6 14.4-2.5 27 5.7 1.2 1 2.9.6 4.3.7h86.1" class="b"/><path d="M8.6 35.5c2.9 1.6 6.1 3.4 9.6 3 2.7-.2 5.2-1.5 7.8-2.4q8-3.2 15.6.4 4.3 2.2 8.7 3.8 3.9 1.7 7.9 2.6c4 .9 8.2.1 12.1-1 3.1-1 6.4-2.2 9.6-1.6s6 2.7 8.7 4.5c.8.5 1.7 1.3 2.6 1.5h92.3" class="b"/><path d="M8.6 27.7c3 1.4 6.2 2.7 9.6 2.2 2.6-.5 5.2-1.7 7.8-2.6 5.6-2 10.7-.9 15.6 2.3q4.6 3.1 9.6 5.6c3 1.8 6.2 3.6 9.6 4.4 5.6 1.7 11-.7 16.5-1.2 2.8-.2 5.5 1.1 7.8 2.6 1.2 1 3 .5 4.4.6h93.9" class="b"/><path d="M8.6 21.9c9.8 3.2 11.2-.3 20-2 7.5-1.2 13.2 4.7 19.1 8.2 3.7 1.8 7 4.3 10.5 6.3q3.2 1.8 7 2.5h118.2" class="b"/><path d="M8.6 17.8c6.9 1.7 9.3.4 15.6-1.7 11.3-3.5 17 5.3 26.1 9.4 3.6 2 6.8 4.6 10.5 6.4q1.2.4 2.6.3h120" class="b"/><path d="M8.6 15.3c6.5 1.2 8.9-.4 14.8-2.3 8.3-2.7 14.2 1.6 20.8 6 2.2 1.5 4.7 2.3 7 3.5 3 1.4 5.6 3.7 8.7 5h84.4l25.2-.1q3.5-.2 7 0 3.5-.1 7-1" class="b"/><path d="M8.6 13.5c5 .7 7.6-.3 12.2-2.3 9-3.8 14.8-.7 22.6 4q3.3 1.8 7 3c2.6 1 5.2 2.7 7.8 4.2 1 .5 2.3.3 3.4.3h87l6.1-2.3c5.6-2.1 11.5-4 17.4-3.3q2.6.4 5.3.9 3 .1 6-.3" class="b"/></svg>