<svg xmlns="http://www.w3.org/2000/svg" id="a" width="1920" height="2400" viewBox="0 0 192 240"><defs><style>.b{fill:none;stroke:#fff;stroke-miterlimit:10;stroke-width:.4px}</style></defs><path d="M0 0h192v240H0z" style="stroke-width:0"/><path d="M8.3 228.4h79.4l2.6-1.1q2.6-1.2 5.3-2 6.2-1.8 12.2 0c3 1 5.7 2.8 8.7 3.1h67.2" class="b"/><path d="M8.3 223.7h71.6c1.4-.1 3-1 4.3-1.4q3-1.1 6.1-2 7.4-2.3 14.9-.1c3.5.9 6.8 2.7 10.4 3.5h68.1" class="b"/><path d="M8.3 219h66.4c3.4-1.7 6.8-3.6 10.4-4.8 5.6-2 11.8-1.8 17.5 0l7.8 2.4q5.6 1.4 11.4 2.3h61.9" class="b"/><path d="M8.3 214.2h64.5c3.7-1.7 7-4.3 10.5-6 6.2-3 13-1.7 19.2.6q3.5 1.2 7 1.9c2.3.3 4.7.3 7 .8q3.5.6 7 1.7c1.4.4 2.9 1.1 4.3 1h55.9" class="b"/><path d="M8.3 209.5H72q1.4.1 2.6-.4c3.7-1.8 6.6-5.1 10.5-6.6 7.7-3.3 15.1 1.3 22.7 2.5 2 .4 4-.2 6-.1q3.2.1 6.2 1.3 2.7 1 5.2 2.2 1.6 1.1 3.5 1h55" class="b"/><path d="M8.3 204.7H72c4.3 0 4.5.7 7.9-2.4 6.8-6.2 13.5-5.2 21.8-2.7a26 26 0 0 0 7 1c1.7 0 3.5-.7 5.2-.7 4.5 0 8.5 2.5 12.2 4.8h57.6" class="b"/><path d="M8.3 200h45.4c8.4-.1 16.9.2 25.3-.1 9.8-8.6 16.2-4 27-2q2.2.3 4.4 0 3-1 6.1-.4 2.7.8 5.3 2.1c1.2.7 3 .3 4.3.4h57.6" class="b"/><path d="M8.3 195.3h71.6c1.1-.3 2.3-1.2 3.4-1.6q3.4-1.2 7-1c5 0 9.9 2.3 14.9 2.6l5.2-.1q3.4-1.1 7-.3 1.7.4 3.5.3h62.8M8.3 190.5h73.3q2.2-.4 4.4-.5 2.6 0 5.2.4 2.2.1 4.4.1h88.1M8.3 185.8h175.4M8.3 181H65q5.2-1.3 10.5-1.5 3-.1 6.1.4c1.4.2 2.9 1.2 4.4 1.1q14.8.2 29.6 0h68.1M8.3 176.3h48q1.3-.1 2.6-.5 2.2-.7 4.4-1.3 5.2-1.6 10.4-1.7 4.1-.1 7.9 1l3.5 1.7c.7.4 1.7 1 2.6.8H113q3.9-1 7.9-.8 2.2.3 4.3.8H155q1.8.1 3.5-.2 3-1.3 6.1-1.8c3.9-.5 7.7.7 11.4 1.8q1.7.3 3.5.2h4.3M8.3 171.6h20l8-.8q4.3-.3 8.6-.3c2.6 0 5.3.3 7.9-.2 4.4-.6 8.7-1.9 13-2.5q6.7-1 13.2 0c3.1.4 6 2.1 8.7 3.7q8.2.1 16.6 0c5 0 10 .2 14.8-.3 7 .6 14 .3 21 .3h12.2q1.4.1 2.6-.2l2.6-1.9a19 19 0 0 1 12.3-3.7c2.3.2 4.6 1.2 7 1.7q3.3.6 7 .1" class="b"/><path d="M8.3 166.8h16.6c3.4-.1 7 .3 10.4-.3 6.7-1.2 13.4-1.6 20.1-2.5q6-1 12.2-1 6-.2 12.3.3c2.4 0 4.8 1 7 2 1 .5 2.2 1.4 3.4 1.5H154c1.6-.7 3-2.4 4.4-3.4 3.4-2.7 7.7-4.9 12.2-4.4 2 .1 4.1.9 6.1 1.4q3.5.7 7 .4" class="b"/><path d="M8.3 162h34.9c4.3-1.1 8.6-2.3 13-2.6 5.9-.5 11.7.3 17.5.4q2.2 0 4.4-.2 2.2-.5 4.4-.5 3.5.3 7 1.7c1 .4 2.3 1.1 3.4 1.3h18.4q21.7.1 43.6-.1c4.5-4.7 10.5-9.6 17.5-8 3.7 1 7.4 2.2 11.3 2" class="b"/><path d="M8.3 157.3h41c1.5.1 3-.6 4.4-.7q3-.5 6-.3c5.9.2 11.8 1.9 17.5.5 2.6-.7 5.1-2 7.9-2 3.6-.2 7.2 1 10.5 2.4 2 .3 4 0 6 .2H155c5.3-5 10.7-9.1 18.4-6.9 3.4 1 6.8 2.3 10.4 2.6" class="b"/><path d="M8.3 152.6h71.6c1.2 0 2.3-1 3.4-1.3q3-1.3 6.2-1.2c3.3 0 6.5 1.4 9.6 2.5h15.7q20 .2 40.1-.1c11-10 16.9-4.6 28.8-1.2" class="b"/><path d="M8.3 147.9h75.1c1.7-.4 3.4-1.5 5.2-1.7q3.5-.7 7 .3 2.2.6 4.3 1.4h50.7c1.8-.1 3.8.4 5.2-1 6.7-5 12-3.8 19.2-1l4.4 2h4.3" class="b"/><path d="M8.3 143.1h147.4a18 18 0 0 1 8-1.9q2.6 0 5.2 1c1 .2 2.3.8 3.5 1h11.3M8.3 138.4h175.4M8.3 133.6h175.4M8.3 128.9h175.4M8.3 124.2h175.4M8.3 119.4h175.4M8.3 114.7h78.5q8.8-.8 17.5-1.2a51 51 0 0 1 11.4 1.1q3 .1 6 .1h58.5l3.5-2.4M8.3 110H24q1.4 0 2.6-.7l3.5-1.4c5-1.8 10.5-1.2 15.7-.5 6.7.5 13.4.5 20 1 4.4.1 8.8.4 13.2 0a97 97 0 0 0 12.2-1.7c6.6-1.3 13.5-2.7 20-.7l7 2.4c1.5.5 3 1.5 4.4 1.5H169c9.5 0 6.6 1.1 14.8-4.2" class="b"/><path d="M8.3 105.2h13a27 27 0 0 1 18.4-6c2.9 0 5.8.6 8.7.7 4.1 0 8.2-.4 12.3-.4q6 0 12.2.7c4 .4 8.2.7 12.2 0 7.2-1.3 14.5-4 21.8-2 2.5.5 4.8 1.8 7 3q4.6 2.2 9.6 4h50.6c3.5-.8 6.6-3 9.6-4.8" class="b"/><path d="M8.3 100.5h7c1.4-.1 3 .2 4.3-.3 2.7-2 5.6-4 8.8-5.2 3.8-1.5 8.1-1.5 12.2-.8 10.8 2.3 13.5-.4 23.5-1.9q4.8-.6 9.7-.3c3.1.2 6.4.7 9.6.4 8.3-1 16.3-3.6 24.4.5 2.1 1 4 2.5 6.1 3.7q4.1 2.5 8.7 3.6 1.7.5 3.5.3h46.3c4-.6 7.8-2.6 11.3-4.5" class="b"/><path d="M8.3 95.7H17q1-.2 1.8-.9l2.6-1.8a21 21 0 0 1 8.7-3.5c6.4-.9 12.1 3 18.3 3 4.4 0 8.4-2.5 12.3-4.2 4-2 8.5-3.5 13-3.7 3.5-.2 7 .3 10.5 0 6.1-.7 12.5-1.7 18.4.5 9.4 3.4 11.7 10.8 23.5 10.3 6.1-.1 12.3-2.8 18.4-1.2 1.7.3 3.4 1.3 5.2 1.5h20.9q2.7-.5 5.3-1.1 4-1.3 7.8-3.2" class="b"/><path d="M8.3 91h6.1c1.8-.8 3.5-2.4 5.2-3.4q3.3-2 7-2.8c5.6-1 10.8 1.7 15.7 3.8 3.3 1.4 7 2.2 10.5.6 6-2.6 11.2-7.2 17.5-9.4q3.3-1.3 7-1.6 3.3 0 7-.4c5.4-.7 11.1-1.5 16.5.3 10.8 3.3 13.1 12.4 26.2 11.1 5.8-.5 11.6-3 17.4-1.4q3.1 1 6.1 2.2c1.1.4 2.4 1 3.5 1h13.2l3.4-1q3-.9 6.1-1.6 3.6-1.2 7-2.5" class="b"/><path d="M8.3 85.2q3.6-.3 7-1.6c2.5-1.2 5-2.5 7.8-3.1 7.5-1.9 14.4 2.4 21 5.2 1.6.8 3.5.5 5.2.5h3.5q1.4-.1 2.6-1c6.8-3.4 12.7-8.8 20.1-11q3-.8 6.1-1.2l7-1.3c7-1.3 14.1 0 20 4 3 2 5.6 4.5 8.8 6 6.5 3.4 13.2 2.2 20 1q5.5-.8 10.5 1 4.3 1.5 8.8 2.4 3.8.4 7.8 0 4-.6 7.9-1.7 5.7-1.3 11.3-3" class="b"/><path d="M8.3 78.6c4.3-.6 8.7-1.6 13-2a31 31 0 0 1 11.4 1q3.6 1.1 7 2.5l3.5 1.4H58l1.8-.9c5.3-3 10.2-6.8 15.7-9.4q3.9-1.5 7.9-2.6Q88 67 93 66.3c7.4-1 14.3 2 20 6.6 10 7.3 15.1 8.2 27 6.1q5-.5 9.7.6c14.3 3.4 20.2 1.2 34-1.6" class="b"/><path d="M8.3 72.9c5.5-1 11 .4 16.6.9q5.3.6 10.4 1.6c2.3.4 4.6 1.5 7 1.4h18.3c1.2 0 2.6.2 3.5-.6 4.5-2.7 8.6-6 13.1-8.4 5.8-2.7 12-5.6 18.3-6.2 12.4-1 18.5 7.4 28 13a23 23 0 0 0 5.2 2q2.2.3 4.4.2h5.2l4.4-.9c3.7-.6 7.6-.3 11.3 0l7.9.9h10.5q5.6-1.1 11.3-1.9" class="b"/><path d="M8.3 68.4q3.6-.4 7 .8 3.3 1.5 7 2.3 3.4.7 7 .5h38.3l1.8-1.3c4.4-3.5 8.8-7 14-9.3 4.3-2.2 9-4 13.9-4.2 5.6-.3 11.1 1.8 15.7 5 4.2 3 7.8 7 12.2 9.7 4 .3 8.2 0 12.3.1h33.1q6.6.2 13.1-.2" class="b"/><path d="M8.3 65.2q2.7.1 5.2 1c1.1.4 2.3 1.2 3.5 1.1h49.7c2 0 3 .3 4.4-1.2 3.8-3.4 7.7-6.7 12.3-9 4.2-2.2 9-4 14-4a28 28 0 0 1 17.4 6.3l6 5.5c1.1.8 2.2 2.3 3.6 2.4h59.3" class="b"/><path d="M8.3 62.6h54.1c2.6-.2 5.3.2 7.9-.2 5-5.2 9.6-9.5 16.5-12 8.1-3.3 16.3-1.3 23.6 2.8 4.6 2.3 8 6.6 12.2 9.4h61.1" class="b"/><path d="M8.3 57.8h58.5q1.7.2 3.5-.2c7.4-8.8 17.6-16.2 29.6-12.7 4.7 1.4 9 3.9 13.1 6.5 3 2 5.7 4.5 8.7 6.4h62" class="b"/><path d="M8.3 53h62c7.4-8 18-16.1 29.6-12.9 4.7 1.3 9 3.9 13.1 6.5 2.9 2 5.7 4.3 8.7 6 1.3.8 3 .3 4.4.5h16.6c2.6-.1 5.3-.4 7.9 0h33.1" class="b"/><path d="M8.3 48.3H71c3.2-2.2 6.3-4.8 9.6-6.8 3.9-2.4 7.8-5 12.2-6.2 9.7-2.8 18.1 3.2 25.4 8.8q3.6 2.8 7.8 4.3h7.9l5.2-.1 3.5-.6q4.9-.4 9.6.6h31.4" class="b"/><path d="M8.3 43.6h59.3q3.5.1 7-.1L79 41c7.6-4.4 14.2-12.3 23.6-12.4 10 .2 15.7 10.2 24.4 13.7q2.1.8 4.4 1.2h3.4c3.2.2 6.5-.6 9.6-.6 3-.2 5.9.6 8.8.6h30.5" class="b"/><path d="M8.3 38.9h71.6a42 42 0 0 0 6-4.8c5.7-4.8 11.3-11.5 19.3-11.8 5.3 0 9.3 4 13 7.3 3.5 3.1 7.1 6.4 11.4 8.2q1.7.7 3.5 1h50.6" class="b"/><path d="M8.3 34.1q38 .2 76 0c6.5-5.3 12.5-14.3 20.9-16.4 3.9-1 7.5 1.2 10.4 3.5 5.5 4.3 10.6 9.6 17.5 11.5 3.7 1 7.6.7 11.4.4q6-.7 12.2-.8c9-.1 18 2.3 27 1.8" class="b"/><path d="M8.3 29.4H78c3.2-.1 6.5.2 9.6-.2 6-4.8 15.1-16.5 23.6-14.3 5 1.6 9.3 5 14 7.4 5 2.8 10.8 4.3 16.5 3.7 6.4-.5 12.7-2.5 19.2-2.1a68 68 0 0 1 19.2 4.4c1 .5 2.3 1.2 3.5 1" class="b"/><path d="M8.3 24.7H30l8.7-.1q2.6-.8 5.3-1 1.7 0 3.5.4c.8.2 1.8.7 2.6.7h40.1c6.2-3.6 12.8-10.8 20.1-11.4 6 .2 11.7 2.8 17.5 4.2q7.6 2.1 15.7 1.4c13.2-2.5 16.5-4 29.6 1.7a63 63 0 0 1 8.8 4h1.7" class="b"/><path d="M8.3 20h27c1.2-.1 2.4-.9 3.5-1.2q2.6-1 5.3-1 2.2 0 4.3 1c1.1.4 2.3 1.1 3.5 1.1h42c6.5-1.8 12-7 19.1-7.4 8.8-.9 17.5 1 26.2 1.2 4.5.2 8.8-1.2 13.1-1.9q5.9-.8 11.4 1.3c4.6 1.7 8.5 5 13 6.8h7" class="b"/></svg>