<svg xmlns="http://www.w3.org/2000/svg" id="a" width="1920" height="2400" viewBox="0 0 192 240"><defs><style>.b{fill:none;stroke:#fff;stroke-miterlimit:10;stroke-width:.4px}</style></defs><path d="M0 0h192v240H0z" style="stroke-width:0"/><path d="M8.2 232h79.5q2.2.2 4.4-.2 7.2-3.7 14.8-6.4c2.8-.9 5.7-2.1 8.8-2 6.3.5 12 2.2 18.3-.4a39 39 0 0 0 7-3.7c2.3-1.6 5-3.2 7.9-3 8.5.6 14.9 10 23.6 9.1 1.4-.2 3-1 4.3-1.6q3.3-1.5 7-1.7" class="b"/><path d="M8.2 224.5c6-1.5 12.3-.6 18.3-.1q5.3.7 10.5 1.6c2.3.4 4.7 1.3 7 1.3h47.2l5.2-1.8q6-2 12.3-3.8 2.5-.9 5.2-1.5c2.9-.4 5.8-.2 8.7-.3q8-.2 14.9-4.4c2.9-1.5 5.5-3.9 8.7-4.7 9.6-1.8 16.2 8.6 25.4 9 1.8 0 3.6-.8 5.2-1.4q3.3-1.2 7-1.5" class="b"/><path d="M8.2 217.2c4.3-1 8.7-.8 13.1-.7a56 56 0 0 1 21 4.4l4.3 1.7h51.6q7.5-2.2 14.8-5c4.3-1.2 8.9-1.7 13.1-3q6.5-1.9 12.3-5.1c2.2-1.2 4.5-2.6 7-3.4 4.7-1.5 9.7.3 14 2.6 4.2 2.1 8.2 5.2 13 5.6q2.3 0 4.4-.5a34 34 0 0 1 7-.3" class="b"/><path d="M8.2 212q4.8-.1 9.6-.1 4.4-.3 8.7-.3c5.3 0 10.3 2 14.9 4.4l3.5 1.8h53.3q4 .2 7.9-.1 6.4-3.2 13-5.4 9.8-3.4 19.3-7.1c8.4-3.5 14.1-4.8 22.7-.7 3.5 1.6 6.8 3.7 10.5 5q2.5.6 5.2.8 3.5.5 7 1.4" class="b"/><path d="M8.2 209.3c3.2.4 6.4 1 9.6.7 4.3-.4 8.7-1.7 13.1-1q5.2 1 9.6 3.8c1.7.5 3.6.2 5.3.3h62c1.2-.3 2.4-1.2 3.5-1.7q2.6-1.4 5.2-2.5a94 94 0 0 1 24.5-7c5-.9 9.8-2.7 14.8-2.2 5.4.4 10.2 3.3 14.9 5.7q3 1.3 6.1 2.4l7 3" class="b"/><path d="M8.2 207.7a8 8 0 0 0 3.5.6H23q2.6-.4 5.3-.7c2-.2 4.1.5 6.1.7h73.4a44 44 0 0 1 22.7-7.8c3.8-.1 7.6.3 11.4.1 3.2 0 6.4-1.2 9.6-1.9q4.4-1.2 8.7-.4c6 1.2 11 5.1 16.6 7.6l4.4 2.4h2.6" class="b"/><path d="M8.2 203.6h97l1.7-.9 4.4-2.5c3.7-2 8-3.5 12.2-3.6 7.2-.5 14 3.1 21 2.6 3-.3 5.8-1.4 8.7-2q5.9-1.5 11.4.5c4.3 1.6 8 4.2 12.2 5.9h7" class="b"/><path d="M8.2 198.8h90q3.5-1.2 7-2.9a34 34 0 0 1 18.3-4.7c4.5.4 8.9 2 13.1 3.4 4 1.3 8.1 2.3 12.3 1 4.8-1.1 9.8-2.5 14.8-1.4q4.1.9 7.9 2.7l3.5 1.6.8.3h7.9" class="b"/><path d="M8.2 194H85c1.5 0 3.2.4 4.5-.5a62 62 0 0 1 33.2-8.5c4.8.5 9.4 2 14 3.7 2.8 1 5.7 2.4 8.7 2.8 6.2.4 12.1-2.6 18.3-2 4.6.3 9 2 13.1 4 1 .7 2.4.6 3.5.6h3.5" class="b"/><path d="M8.2 189.4h76c1.4.2 2.5-1.3 3.5-2.1 5.4-4.9 11.7-9.5 19.2-9.9q5.7-.1 11.4.4c9.8.4 17.5 2.5 26.2 7 3.9 1.5 8.2.7 12.2.1a31 31 0 0 1 23.6 4.4h3.5" class="b"/><path d="M8.2 184.6h72.5q1.8.1 3.5-.2c5.6-6.3 11-15.1 20.1-16.1 3.6-.4 7 1 10.5 1.7 6.6 1.2 13.6.7 20 2.6 8.5 2.3 9.5 7.3 19.3 6.8 7.3-.4 15-2 21.9 1.5l4.3 2.5 1.8 1c.4.2 1.3.2 1.7.2" class="b"/><path d="M8.2 179.9h74.3c6-6.9 12.2-20.6 22.7-20.2 4.2.3 8 2.8 12.2 3.3 7.9 1.3 16.6 0 23.6 4.7q2.2 1.7 4.4 3.2 3.1 1.8 7 2.5c7.2 1.1 14.8-.7 21.8 2q3.1 1.3 6.1 3c1 .5 2.3 1.5 3.5 1.5" class="b"/><path d="M8.2 175.1H79c7.9-6.2 13.9-22.3 25.3-22.6 4 0 7.6 2.1 11.4 3 4.8 1.3 10 1.6 14.8 2.7q5.2 1 9.6 3.7c3 1.9 5.5 4.4 8.8 5.7 6.3 2.7 13.4 2.1 20 3.3q4 .8 8 2.5l4.3 1.7h2.6" class="b"/><path d="M8.2 170.4h4.4q2.4-1.3 5.2-1.4 3.1.2 6.1 1.4h42.8c2-.2 4.4.5 6.2-.9a57 57 0 0 0 9.6-7c3.8-3.7 7.2-7.9 11.3-11.3 3.9-3.3 9-5.5 14-4.6 3.3.6 6.4 1.8 9.6 2.6A85 85 0 0 1 134 155q4.6 2.3 8.8 5.7 4.2 3.7 9.6 5.4c5 1.8 10.5 2.3 15.7 3.2l4.4 1h11.3" class="b"/><path d="M8.2 165.6c2.9 0 3 .3 5.2-1.5q5.3-3.9 11.4-1.5 3.6 1.4 7 3h22.7q2.7.2 5.2-.1l2.7-1.4q5.2-2.6 10.4-4.8 5.5-2 10.5-5.2c7.2-4.8 13.8-11.5 22.7-12.6a45 45 0 0 1 26.3 8.6c6 3.8 11 9.2 17.4 12.5a33 33 0 0 0 8.8 3h25.3" class="b"/><path d="M8.2 160.9h2.6c6.3-7.1 10.2-9 19.2-5 6 2.5 12.5 6 19.2 4.2 2.8-.8 5.4-2.4 8-3.9a39 39 0 0 1 20.9-6c3.6-.5 7.2-2 10.5-3.6 6.9-3.2 13.2-8.5 21-9.7 9.6-1 18.3 4.6 25.3 10.6 4.7 4 9.3 8.5 14.8 11.3 1.7.8 3.4 2 5.3 2h28.8" class="b"/><path d="M8.2 156.1h2.6c4.5-5.7 8.5-11.2 16.6-9.4 7.4 1.6 15.1 6.4 22.7 3 5.1-2.4 10-6.2 15.8-6.2 3.9 0 7.6 1.5 11.3 2.4q3 .6 6.1.2c5.9-.6 11-3.6 15.8-6.9 3.8-2.5 7.6-5.7 12.2-6.4 7-1 13.8 1.6 19.2 5.9 8.2 6 15.1 15 25.4 17.5h28" class="b"/><path d="M8.2 151.4c1 0 2.4.2 3.5-.3 4.3-5.9 8.5-11.3 16.6-10.6 3.8.2 7.6 1.3 11.3 1.6q6 .8 11.4-1.7c7-3.5 12-5.1 19.2-.8 2.9 1.5 5.6 3.7 8.8 4.6 8.2 2 15-2.2 21-7.4 3-2.5 6-5.3 9.5-6.9a23 23 0 0 1 19.3 2.3c5.4 3.2 9.9 7.7 14.8 11.6q5.6 4.3 12.2 6.7 2.2.9 4.4.9h23.6" class="b"/><path d="M8.2 146.7h4.4c9.4-12 14.3-9.7 28-10.2q4.3-.2 8.7-1.5c3-1 6.3-2.3 9.6-2.4 5-.1 9.3 3 13 5.8 2.5 1.8 5 4 8 4.7 10.6 2.5 18-7 25.3-13.2q2.3-2.1 5.2-3.3l4.4-1c4.6-1 9.6-.9 14 1.1 6.6 2.9 11.6 8.4 17.4 12.6a44 44 0 0 0 18.4 7.3h19.2" class="b"/><path d="M8.2 142q2.6 0 5.2-.2c7.7-7.7 13.7-7.1 23.6-8.7 6.4-1 12.8-3 19.2-3.5 8.5-.6 14.3 6.7 21 10.6 6.3 3.1 13.3.8 18.4-3.6 4.5-3.6 8.2-8.4 13-11.7 2.2-1.4 4.8-2 7-2.8 4-1.4 8.2-2.4 12.3-1.5 7.8 1.9 12.9 8.6 19.2 13 6 4 13 6 20.1 7.1l6.1 1.2h10.5" class="b"/><path d="M8.2 137.2h4.4c2.8-1.5 5.6-3.3 8.7-4 4.3-1 8.8-1.2 13.1-2.3 4.4-1 8.6-2.8 13.1-3.5 9.2-1 14-.5 21.9 4.8l5.2 3.6c1 .5 2.2 1.5 3.5 1.3h12.2c3-.8 5.5-3 7.9-5 3.8-3.4 7.1-7.4 11.3-10.3q2.2-1.2 4.4-2.2c4.8-2.6 10.2-5.5 15.7-3.7 7.5 2.3 12 9.3 18.4 13.3 5.5 3.6 12 5.1 18.3 6.5l6.2 1.4h11.3" class="b"/><path d="m8.2 131.2 6.1-1c1.7-.2 3.5-.8 5.2-.9 4.4-.3 8.9.1 13.2-1 4.7-1 9.1-3.6 14-4.4a38 38 0 0 1 23.6 5.6c5.8 3.3 4.6 3 11.3 3H93c7.7-3.8 12.4-11.8 20-15.7 6-3.9 12.1-8.2 19.3-4 6 3.6 9.9 9.7 15.7 13.3a54 54 0 0 0 17.5 6.3h18.3" class="b"/><path d="M8.2 123q3 .2 6.1.6c1.7.2 3.5 0 5.2.2 3.2.4 6.4 1.1 9.7.9 5.2-.2 10-3 14.8-4.6 2.3-.8 4.7-.6 7-.3q4 .4 7.9 1.2 5.9 1.5 11.3 4.1c2.3 1 4.6 2.4 7 2.6H86q4 .1 8-.1c3.5-1.6 6.6-4.2 9.5-6.8q3-2.8 6.1-5.4l8.8-5.9c6.1-3.9 11.4-2.5 16.6 2.3 3.6 3.2 6.6 7.2 10.5 10.2q3.1 2.6 7 4.3c1.3.5 2.8 1.4 4.3 1.4h27.1" class="b"/><path d="M8.2 116.3q3 .5 6.1 1.1c1.7.4 3.6.3 5.2.6 3.5.7 7 1.5 10.5 1 5.3-.4 9.9-3.5 14.9-5 2.5-.6 5.3.1 7.8.4q8.3 1.3 15.8 5 4.2 2.1 8.7 3.5H93q1.9-.5 3.5-1.5c4.6-2.6 8.3-6.6 12.3-10q4.2-3.2 8.7-6c6.2-4 11.4-2.8 16.6 2 4.7 4.4 8.5 9.8 14 13.2l2.6 1.5c.7.4 1.8 1 2.6.8h30.6" class="b"/><path d="M8.2 113q3 .2 6.1.8 2.6.2 5.2.3c4.4.4 9 .5 13.2-1 4.4-1.3 8.4-4.1 13-4.8 2.4-.3 4.8.5 7 .8a60 60 0 0 1 15 4.6c4.4 2 9 4.3 13.9 4.5H93c3.8-.5 7.5-3.7 10.4-6.1q5.3-4.9 11.4-8.6c5.5-3.5 11-4.7 16.6-.7 3.9 2.6 7 6.2 10.5 9.3a35 35 0 0 0 8.7 5.6c1.6.8 3.6.4 5.3.5h28" class="b"/><path d="M8.2 111.5c7 0 14.2-.2 21-2.4 5.8-1.6 12.2-6.3 18.3-5.4 5.5 1.5 11.2 2 16.6 3.7 5.3 1.5 10.3 4 15.7 4.8 2 .3 4.1 1 6.2 1.2h5.2c6.5.6 11.8-5.1 16.6-8.8 5.8-4.5 13.7-8.5 21-5.1 5.7 2.4 10.2 7.2 15.7 10q5 2.4 10.5 4h28.8" class="b"/><path d="M8.2 108.7h7c6.7-1 13-4.3 19.2-6.8 3.8-1.6 8-3 12.2-2q3.9 1.4 7.9 2c5 .7 10 1.2 14.8 2.3l7.9 1.9q4 .7 7.9 1.8c16 4.7 20-12.1 34-12.9 9.3-.5 16.7 6.4 25.4 8.7l16.6 5h22.7" class="b"/><path d="M8.2 104h8.7q1.4-.1 2.7-.7 1.7-.7 3.4-1.6 4.8-2.4 9.6-4.3Q38.3 95.3 44 96c2.1.4 4.1 1.5 6.1 2.3q2.6.8 5.3 1c4 .3 8.1 0 12.2.4q5.7.3 11.4 1.6c3.2.5 6.3 1.7 9.6 2 8.3.7 14-6.5 20-11.1 6.3-5.1 13.6-2.5 20.2.3q5.4 2.5 11.3 3.9c3.8.5 7.7.7 11.4 2 4.8 1.4 9.2 4 14 5.5l12.2-.1q3-1.5 6.1-2.8" class="b"/><path d="M8.2 99.2h7c5.5-1.3 10.3-4.8 15.7-6.3q6.2-1.9 12.2 0c3.3.8 6.2 3.1 9.6 3.7 4.4.7 8.8 0 13.2-.2q6.1-.3 12.2.6c3.7.5 7.5 1.8 11.4 1.2 9-1.4 13.7-10.6 21-15.3 6.7-4 13.8 2.1 20 4.7q4.6 2.3 9.6 2.7c2.3.1 4.7-.3 7 .2 3 .6 6 2 8.8 3.4 3.2 1.7 6.2 4 9.6 5.3H176c1.2 0 2.4-1.2 3.5-1.8l4.3-2.8" class="b"/><path d="M8.2 94.5h4.4l2.6-1.3q2.2-.8 4.4-1.4c8-2.9 15.2-5.2 23.5-1.8 2.7.9 5.2 2.6 7.9 3.4 5.4 1.5 11.1.4 16.6.3 5.5-.4 11 .6 16.6.7 11.5-.3 16.8-12.4 24.5-19.1 7.1-6.6 15.4 2.2 21.8 5.7 2.7 1.5 5.6 3 8.7 3.5 2 .4 4.2 0 6.2.2 6.8 1 11.9 6.1 17.4 9.8h14.9q1.5 0 2.6-1l3.5-2.6" class="b"/><path d="M8.2 89.7h3.5a18 18 0 0 1 3.5-1.5c7.5-1.2 15-3.5 22.7-2q3.1.6 6.1 1.8c1.4.5 3 1.4 4.4 1.7h39.3c8.2-4.5 13-15 19.2-21.7 5.2-6 10.2-3.9 15.8.2 5.5 4 10.6 9.3 17.4 11 2 .4 4.2.2 6.2.8q4.6 1.6 8.7 4.7l4.4 3.3c1 .8 2.1 2 3.5 1.7h18.3l2.6-2" class="b"/><path d="M8.2 85h4.4l2.6-.5c2.6-.2 5.3 0 7.8-.2q5.7-.4 11.4-.2c2.6 0 5.3 1 7.9.9h46.3c5.6-5.4 9.5-12.3 14-18.5 4.2-5.8 8-11.6 15.7-7 6.2 3.6 11.1 9.1 17.5 12.6a27 27 0 0 0 5.2 2.3q3.6.6 7 2c4.8 2.1 9 5.5 13 8.6h21.1q1-.4 1.7-1.2" class="b"/><path d="M8.2 80.2h80.4c1.4-.8 2.4-2.4 3.5-3.6l6-8.5c3.3-4.2 8.3-13.3 14-13.4 4.7.2 8.6 3.2 12.3 5.6q6 4.4 12.2 7.7c3.7 1.9 7.7 3 11.4 4.6 4.6 2 8.9 4.9 13.1 7.6h21.8l1-.7" class="b"/><path d="M8.2 75.5H85c1.5 0 3 .2 4.5-.2q5-5.5 9.6-11.5c3.1-3.6 6.4-8.3 11.3-9.5 4-.3 7.8 1.6 11.4 3.1q6 3 12.2 5.6 9.8 3.9 19.2 8.4l5.3 2.5c1.3.6 2.8 1.8 4.3 1.6H183l1-.8" class="b"/><path d="M8.2 70.8h81.3c6.2-4.6 12.5-14.6 20-16.4q2.7-.3 5.3.4 4 .9 7.9 2c5.4 1.5 11.2 2.3 16.6 4.2 2.7.9 5.2 2.5 7.8 3.7q6.6 2.7 13.1 5.6c1.3.8 3 .4 4.4.5h18.3l.9-.5" class="b"/><path d="M8.2 66h81.3c6.3-3.9 13.3-12.7 21-13.3 4.3.2 8.7 1.2 13 1.5 5.9.6 12 .3 17.5 2.5q6.5 3.5 13.1 6.6l5.3 2.6c2.5.3 5.2 0 7.8.1h16.6" class="b"/><path d="M8.2 61.3H85q1.8.2 3.5-.7c5.3-2.8 10.2-6.7 15.7-9.2q2.9-1.4 6.1-1.5 4 .4 7.9.4c5.8 0 11.6-1.3 17.5-.6 3.1.3 6.1 1.8 8.7 3.6q3.4 2.3 7 4.2 3.4 2 7 3.8h25.3" class="b"/><path d="M8.2 56.5h72.5q2.7-.7 5.2-1.8c7-2.6 13-7.2 20.1-9.2 2.3-.7 4.7-.5 7-.2q3.1.2 6.1-.2c6.1-.8 12.4-2.7 18.4-.9 3 .9 5.5 2.9 7.9 4.7a95 95 0 0 0 12.2 7.5c2.9.3 5.9 0 8.7.1h17.5" class="b"/><path d="M8.2 51.8h57.7c1.7 0 3.5-1 5.2-1.2q4-.8 7.9-1.5c5.2-1 10-3.3 14.8-5.7 5.4-2.6 11.2-6.2 17.5-5.2 6 1.2 12.2-1.2 18.3-1 10.8 0 14 7.3 22.8 11.8q3 1.6 6 2.8h25.4" class="b"/><path d="M8.2 47h3.5l2.6-1c4-1.3 8.3-.8 12.2.5q1.8.6 3.5.5h30.6q2.6-1.5 5.2-2.6c4.7-2 10-2.3 14.9-3.3 5.3-1.3 10.1-4 14.8-6.5 5-2.6 10.8-5.7 16.6-4 3.5.7 7 .4 10.5.2a26 26 0 0 1 14.9 3.3c2.9 1.6 5.3 4 7.8 6q3.3 2.6 7 4.2c4.4 2 9.3 2.5 14 2.5q8.8.3 17.5.2" class="b"/><path d="M8.2 39.3C17.4 35 20.7 34 30 38.6l5.3 2.7c1 .5 2.2 1.2 3.5 1h14.8q1.4 0 2.6-.3a43 43 0 0 1 16.6-7c3-.5 6-.6 8.8-1.2 5.9-1.4 11.1-4.7 16.6-7.3a21 21 0 0 1 11.3-2.7c2 .4 4 1.2 6.2 1.3 5.8.6 12 .4 17.4 2.9 8.9 3.5 12.5 11 22.7 12 5.3.5 10.5-1 15.8-.5 3 .2 5.9 1.6 8.7 2.7h3.5" class="b"/><path d="M8.2 30.5c3-1.7 6.2-3.7 9.6-4.6 6-1.1 11.1 3 15.7 6.1q4.2 3.1 8.8 5.5h11.3c3.6-1.6 7-4 10.5-5.6q4.3-2 8.8-2.5 3.8-.4 7.8-.7c6.7-1 12.4-5.1 18.4-8 4-2.1 8.8-3.7 13-1.7q5.2 1.6 10.6 2.8c7.3 1.9 13.9 5.7 20 10 11.3 7.8 20.1-1 30.6 1.5 3.6 1.1 6.8 3.5 10.5 4.2" class="b"/><path d="M8.2 23.7c3.1-2 6.1-4.4 9.6-5.6 6.5-1.9 12 3.6 16.6 7.5Q38 29 42.3 32c1.1 1 2.9.6 4.3.7h7.9q1.8-.5 3.5-1.6L64 28a29 29 0 0 1 9.6-2.5q3.5-.3 7-.3c5.1-.5 9.7-3.3 14-6 4.5-2.6 9.3-6.2 14.8-5.4 3 .8 5.9 2.3 8.8 3.4q7.2 3.1 14 7.1c4 2.3 7.9 5 12.2 6.6 9.2 2.8 17.8-5.7 27-3.3 3.2.8 5.9 3 8.8 4.2q1.6 1 3.5 1" class="b"/><path d="M8.2 19.5C12.7 16.4 17 11 23 12c6.2 1.4 10.5 6.8 14.9 11l3.5 3.3C42 27 43 28 44 28.1h13.1l1.8-1 4.3-2q5.5-2.5 11.4-2.7 3.5.2 7 0c5-.3 9.7-3 14-5.6 4.2-2.4 8.8-5.7 14-4.9 2 .5 4 1.6 6 2.5q8.5 4.2 16.7 8.8c3.6 1.8 7.3 3.7 11.3 4.5q3.1.3 6.1-.8c5.3-1.7 10.2-4.9 15.8-5.2 5.8-.4 9.3 3.2 14 6 1.2.7 3 .2 4.3.3" class="b"/><path d="M8.2 17.3C18 8.2 23 3.3 34.4 14l6.1 6c1.3 1.1 2.7 3 4.4 3.3H58c2.4-.6 4.6-1.8 7-2.5q5.1-1.5 10.5-1.3c3.4.2 7 .8 10.5 0 5.5-1 10.4-4 15.7-6 5.4-2 8-1.3 13 1.1q6.1 2.7 12.3 5c5.8 2 12.3 4 18.4 3 4.3-1.1 8-3.9 12.2-5.4 9.3-3.7 14 .6 21 6l5.2.1" class="b"/></svg>