<svg xmlns="http://www.w3.org/2000/svg" id="a" width="1920" height="2400" viewBox="0 0 192 240"><defs><style>.b{fill:none;stroke:#fff;stroke-miterlimit:10;stroke-width:.4px}</style></defs><path d="M0 0h192v240H0z" style="stroke-width:0"/><path d="M8.2 225.7h8.7q1.4-.3 2.6-1 1.8-.7 3.5-1 4.5-.4 8.8.9c1.7.4 3.4 1.3 5.2 1.1h8.8c1.7 0 3.6.3 5.2-.3 7.1-4 12.5-7.4 21-7.6 2.6-.2 5.3-.2 7.8-1 7-2 13.6-5.6 21-5.6 12.2-.3 19.6 10.8 30.6 14 2.5 1 5.3.4 7.8.5 3.2 0 6.5.3 9.7-.1 4.8-2 9.5-4.8 14.8-5.3 6.8-.8 13.4 2 20.1 1" class="b"/><path d="M8.2 221h3.5c1.2 0 2.5 0 3.5-1q7-5.4 15.7-3.8c6 1 12.3 4.3 18.4 2 9.2-3.7 13-6.3 23.6-6.4 6.4.1 12-3 18.3-4a33 33 0 0 1 24.5 5.9c4.7 2.8 10.1 6.9 15.7 7.3h10.5c2-.1 4.3.4 6.1-.6 3.6-1.7 7-4.1 10.5-5.9 8.5-4.6 16.3-2.3 25.3-1.2" class="b"/><path d="M8.2 216.2h2.6c11-8.5 15.8-11.4 29.7-7.4a24 24 0 0 0 14-.4q5.6-1.4 11.4-2.2 5.2-.6 10.4-1.3 4-1 7.9-2 5.2-1.2 10.5-.4c6.6 1.1 12.4 5 18.3 8q5 3.2 10.5 5.3c2 .7 4.1.3 6.1.4 2.3 0 4.8.3 7-.2l7.9-1.6c3.2-1 6-3 8.7-4.8a41 41 0 0 1 12.3-6.4 30 30 0 0 1 18.3 1.3" class="b"/><path d="M8.2 211.5q1.6.1 2.6-1l3.5-2.7c3.6-2.7 7.2-5.6 11.4-7.5 6.7-3.2 12.6-1.1 19.2.9 4 1 8.2.9 12.2.8 9-.3 17.6-3.2 26.2-5.3 10.2-2.2 17.4 3.2 25.4 8.5q3.4 2.2 7 4c1.6.9 3.3 2.2 5.2 2.3h12.2q4-1.7 7.9-3.5c2-.8 4.3-1.4 6.1-2.6 5-3 9.5-6.8 14.9-9q5.4-2.2 11.3-2.4c3.7-.4 7.3.7 10.5 2.3" class="b"/><path d="M8.2 206.8q1.3 0 2.6-.2 4.9-3.7 9.6-7.7c3.6-3 7.5-6.2 12.2-7 5-.9 9.6 1.5 14 3.2a33 33 0 0 0 20.1 1.6c3.6-1 7-2.6 10.5-3.8q3.4-1 7-1.7c9-1.8 15.8 2.8 22.7 8l6.1 3.8q3 1.8 6.2 3.4c1 .5 2.3.3 3.5.3h5.2c1.7-.1 3.7.4 5.2-.5 4-2 7.4-4.9 11.4-6.7 7-4.1 13.5-9.8 21.9-11q4.7-.9 9.6-1.3 4.1.1 7.8 2" class="b"/><path d="M8.2 202h5.2c9.3-6 16-19.8 28.9-13.9 6.4 2.7 12.9 6.6 20 6 5.7-.5 10.5-3.9 15.8-5.5 6-1.1 12.3-3.2 18.3-1.2 4.2 1.3 7.8 3.9 11.4 6.2q2.5 1.6 5.2 3 3 2 6.2 4l2.6 1.3h9.6c3.6-1 6.5-3.8 9.6-6 6.5-4.1 12.6-9.4 20.1-11.6 3.4-1 7-1.2 10.5-1.5q2.6-.4 5.2-.7 3.7 0 7 1.1" class="b"/><path d="M8.2 197.3c2.9-.1 5.9.2 8.7-.2 9.4-8.4 14.7-19 28.9-11.9 5.3 2 10.7 5 16.6 4.8 4.9-.1 9.3-2.5 14-4 2.2-.7 4.6-.5 7-1 5-1.1 10.5-2.5 15.7-1 4 1.2 7.6 3.5 11.3 5.4 3.8 1.6 7 4.5 10.5 6.6l2.6 1.3h8.7c2-.1 3.7-1.7 5.3-2.6l7-5.2c5.4-4.1 10.8-8.6 17.5-10.3 3.4-1 7-1 10.5-1.2 3.7-.5 7.6-.8 11.3 0" class="b"/><path d="M8.2 192.5h10.5c5.7-5.1 11.7-12 20-11.4 3 .2 6 1.3 8.8 2a34 34 0 0 0 18.4 1.6c4-1 8-2.8 12.2-3.1l4.4.2c5.2-.2 10.5-1.3 15.7-.3q5 1 9.6 3 3.1 1 6.1 2.2c4 2 7.8 4.8 12.3 5.8h4.3q1.9.2 3.5-.5c7.2-2.7 12.8-8.3 19.2-12.3q7.7-4.8 16.6-4.6c4.7 0 9.4-.3 14 0" class="b"/><path d="M8.2 187.8h11.3c6.2-4.5 13.1-8.5 21-8q5.3.5 10.5.8c5.6.3 11.2-1 16.6-2.6 9.2-2.7 9.5-2 18.4-.1q6.5 1.2 13 2.7 7 1.9 14 2.6c10.9 2 18 5.6 28.9.1 8.5-4.5 15.8-11 26.2-10.6 5.2.2 10.5 1.2 15.7 1.2" class="b"/><path d="M8.2 183h10.5c5.9-2.4 12-4.6 18.3-5.7 7-1.2 14.2-1.7 21-3.8 8-2.3 16.6-5.7 24.5-1.4 8.8 4.2 17.7 10.7 28 9 4.8-.8 9.8-2 14.8-2.1 5-.3 10 .3 14.8-.4 4-.7 7.7-2.7 11.4-4.4 4.1-2 8.5-3.8 13.1-4.3 6.6-.8 12.7 2.5 19.2 2.8" class="b"/><path d="M8.2 178.3h7q3-.9 6-1.6a105 105 0 0 0 15.8-4q7.9-3 15.7-5.6c5.1-1.8 10.3-3.6 15.8-3.7 10.4-.2 15.2 4.5 22.7 10.6l4.4 3c1 .7 2.2 1.5 3.5 1.3h13l7-3.8c8.1-4.2 12.7-3 21-1.7 4 .4 7.8-1.1 11.4-2.5 6.8-2.8 14.5-5.9 21.9-3.2 3.4 1.3 6.8 2.8 10.4 3.4" class="b"/><path d="M8.2 173.5h3.5q3-1.2 6.1-1.6c5.3-.6 10.8-1.2 15.7-3.6 4.3-1.8 8.2-4.5 12.3-6.7 5.7-2.8 11.9-5.2 18.3-5a34 34 0 0 1 12.2 3.2q3.8 1.4 7 3.8c2.7 2.1 5.3 4.7 7.9 7 1.6 1 3.1 3.1 5.2 3h11.4c4.6-.1 4 .6 7.9-2.4 5-4 10.7-7.8 17.4-6 2.7.7 5.3 1.8 7.9 2.5 3.8 1 7.8-.3 11.4-1.7 6.5-2.5 13.8-6.3 21-3.5 3.4 1.6 6.7 3.4 10.4 4.4" class="b"/><path d="M8.2 168.8c2.4.2 4.6-.7 7-1 2.9-.4 5.9-.5 8.7-1.2 7-1.7 12.7-6.4 18.4-10.5 4.4-3.5 10-5.7 15.7-5.6 7 0 13.1 3.8 19.2 6.7q2.7 1.1 5.3 2.5c4 2.6 7.8 6 12.2 8.2q1.6.9 3.5 1h5.2q1.8 0 3.5-.2a36 36 0 0 0 7.9-4.2c10.7-7.5 14.2-6 25.3-.6 4 1.8 8.5.7 12.3-1.1 6.5-2.9 13.5-7.9 21-5.2 3.3 1.5 6.7 3.4 10.4 4.2" class="b"/><path d="M8.2 164c8.7-1.1 12.8 1.5 21-4 3.8-2.6 7-6 10.4-9.1 3.3-3 6.8-6.3 11.4-7 8-1.3 15.2 3.8 21.9 7.6q4.1 2.5 8.7 4 3 1.3 6.1 2.8c9.5 4.8 15.9 4 25.3-.3 4.6-2.1 9.9-3.8 15-2.3 5.2 1.4 9.5 5.3 14.8 6.5 2.7.6 5.4-.4 7.8-1.6 7.2-3.5 14.2-11 22.8-8.3 3.3 1.4 6.8 3 10.4 3.6" class="b"/><path d="M8.2 158q3 .5 6.1 1.3 4.9.1 9.6-.1c9.1-3.9 13.9-13.6 21.9-19 6.1-3.7 13.5-.4 19.2 2.7 3.7 2 7.4 4.4 11.4 6 2.5 1 5.2 1.4 7.8 2.2 7 2 14.6 3.1 21.9 1.7 3.7-.6 7.5-1.7 11.3-1.8 8-.3 14.8 4.4 21.9 7.3 5 2 8.8.5 13-2.4 5.3-3.3 10.3-7.9 16.7-8.4 2.7-.2 5.4 1 7.8 2q3.5 1.2 7 1.5" class="b"/><path d="M8.2 151.6c2 .9 4 2.2 6.1 3h11.4c3.4.5 11.2-9.2 14-11.8 2.2-2.3 4.7-4.8 7.8-6 4-1 8.3-.1 12.2 1 5.6 1.8 11 4.2 16.6 5.5 5.5 1.1 11.1 1.4 16.6 2q10.5.7 21 1c8.9 1.2 16.6 6.3 25.3 8q2.2.3 4.4.2 1.8.1 3.5-.4c7-2.9 13-9.2 21-9.3 3 0 6 1.1 8.7 2.1q3.5 1.1 7 1.3" class="b"/><path d="M8.2 145.5c2 1.3 3.9 3.3 6.1 4.3h16.6c3.8-2.7 7-6.2 10.5-9.1 3-2.6 5.6-4 9.6-4 8.2-.2 16.3.6 24.5.5 7 .2 14 0 21 1.1 5.5 1 11 2.7 16.5 3.9 3.6 1 7 2.7 10.5 4q7.6 3 15.8 2.9 2.6 0 5.2-.2a24 24 0 0 0 5.2-1.7c8-3.6 14-6 22.8-2.8q5.4 2.3 11.3 2.7" class="b"/><path d="m8.2 140.4 5.2 4.7h21.9l1.7-1.2c3.5-2.5 7-5.9 11.4-6.5a87 87 0 0 0 14-2.4c4.6-1.1 9.2-2.8 14-3.5q3.3-.4 7-.3 6.1-.3 12.2 1 6.3 1.7 12.2 4.3l6.1 2.2q3.9 1.7 7.9 3.2c5.3 2 11 2.1 16.6 1.2 2.8-.5 5.9-.4 8.7-1.2 5.4-1.5 11-3 16.6-1.7 4.8 1 9.2 3.7 14 4.9h6.1" class="b"/><path d="m8.2 137 3.5 3.2c1.4.3 3 0 4.4.1h23.6c.9.2 1.8-.5 2.6-1q1.6-.9 3.5-1.6c1.3-.6 3-.7 4.3-1a36 36 0 0 0 5.3-1.3c6.4-2 12-6 18.3-8.3q4.7-1.7 9.6-1.2c6.5 0 12.7 2 18.4 4.8q6.3 3.3 13.1 5.6c4.5 1.7 9.2 3 14 2.9 3.8-.1 7.6-1.1 11.3-1.8q3.1-.3 6.2-.7c4.8-.8 9.9-1.8 14.8-.6a42 42 0 0 1 7.9 2.7c1.4.5 2.8 1.5 4.4 1.5h10.4" class="b"/><path d="M8.2 134.7c1.1 1.2 2.9.8 4.4.9H50c5-1 9.1-4.1 13.1-7 5.7-3.9 11.8-9.6 19.3-8.3 6 .7 11.5 3.8 16.6 7 4.4 2.9 8.8 6.1 14 7.5 2.5 1 5.2.8 7.8.8h9.6c2 0 4.1-1 6.1-1.4q4-1.1 7.9-1.3c5.5-.6 11-1.6 16.6-.6q5.8 1.2 11.4 3.2 5.6.1 11.3 0" class="b"/><path d="M8.2 130.8h45.4c1.3-.2 2.5-1.1 3.5-1.8q2.7-1.8 5.3-4c5.4-4 11.8-11.1 19.2-9.6 6.7 1.4 12.2 6 17.5 10.2l4.3 3.4c1 .6 2.2 1.9 3.5 1.8h30.6c1.7 0 3.5-.6 5.3-.6 4.6-.3 9.3-1.2 14-1.4q7-.3 14 1 6.3 1.2 13 1" class="b"/><path d="M8.2 126h43.7c4.1-1.4 7.8-4.2 11.3-6.8 4.3-3.1 8.6-6.9 14-7.8 9.3-.8 18.2 9.7 25.3 14.7H156c4.3-.3 8.7-1.3 13-1.4h8q3.3-.2 7-.5" class="b"/><path d="M8.2 121.3h33.2c1.8.3 3.5-1 5.2-1.3q6.5-1 12.3-4c6.3-3 12.7-8.2 20-7.4 8.6 1.6 14.8 8.3 22 12.8h45.3c7-.2 14 .2 21-.2q4.9-.9 9.6-1 3.5-.7 7-1.6" class="b"/><path d="M8.2 116.6h29.7c1.3.2 2.4-.8 3.5-1.3q2.1-1.3 4.4-2c2.2-.8 4.7-.9 7-1.5q5.7-1.5 11.3-3.4c7.3-2.5 12.9-3.6 20.1-.1 5.5 2.3 10.4 5.7 15.7 8.3h81.3l2.6-.7" class="b"/><path d="M8.2 111.9h28c1.2.1 2.4-.8 3.4-1.3q3-1.6 6.2-2.8 3-.7 6-1.3 5-1 9.7-2.2c8.3-1.9 14.8-2.4 22.7 1.4l7.9 3.8c1.7.7 3.4 2 5.2 2.3h86.5" class="b"/><path d="M8.2 105q2.1 1.2 4.4 2.1H37l6-2.5c4.2-1.6 8.8-2.3 13.1-3.5 7.1-2 14.7-3 21.9-.8 4.9 1.5 9.5 4 14 6.5 1.3.6 3 .2 4.3.3h87.4" class="b"/><path d="M8.2 98.4c2.7 1.6 5.6 3.3 8.7 4h22.7q7.5-2.1 14.9-4.4a35 35 0 0 1 28.8 1.3c2 .9 4 2.3 6.2 3h94.3" class="b"/><path d="M8.2 93c3.2 2.2 6.6 4 10.5 4.6H43q2.2.1 4.4-.1l5.2-1.6a34 34 0 0 1 20.1-2.5q4.5 1 8.8 2.5c1.4.5 2.9 1.4 4.4 1.7h97.8" class="b"/><path d="M8.2 88.4c2.7 1.8 5.5 3.8 8.7 4.5h35c1.8.2 3.5-.5 5.2-1q3.5-1 7-1.1 4.5-.1 8.8 1c2 .4 4 1.3 6 1h105M8.2 83.2c8.5 6 9.4 4.8 19.2 5h156.4M8.2 76.4c2.2 1.3 4.5 2.8 7 3.7q5.6 1.8 11.3 3.2 7 .2 14 0h53.3c1.7 0 3.6.3 5.3 0 .4-.4 1.3-.9 1.7-1.1 6.8-4 9.2-3.8 16.6-2q6.5 1.6 13.1 2t13.1-.6q2.7 0 5.3 1a7 7 0 0 0 3.5.8h31.4" class="b"/><path d="M8.2 69.3q3.4 1.6 7 3 5.2 1.7 10.5 3l7.8 2.4q2.6 1 5.3 1h55.9c4.5-3.9 9.4-11 15.7-11.4 4.6.5 8.8 2.8 13.1 4.2a36 36 0 0 0 19.3 1.3c5-1 9.9 1.6 14 4.4l1.7 1.2c1.3.4 3 .2 4.3.2h21" class="b"/><path d="M8.2 63.1q3.4 1.3 7 2.4 5.7 1.4 11.3 3 4.6 1.6 8.8 3.6c1.7.7 3.3 2 5.2 1.8H86c2.2-.1 4.8.3 7-.2 4.5-4.6 9.6-12.5 15.7-14.7 3.6-1 7.3 1.7 10.5 3.2 4.5 2.4 9.5 4.7 14.8 4.6 3.6 0 7-1 10.5-1.6 7.5-1.3 14 3.7 19.2 8.6q10 .1 20.1 0" class="b"/><path d="m8.2 58.8 7 1.8q4 .7 7.8 1.5 6.5 1.8 12.3 5.1c1 .6 2.3 1.6 3.5 2h51.5c2-1.2 3.6-3.2 5.3-4.8 3.5-3.5 6.8-7.7 11.3-10 3.3-1.9 6.7-.1 9.6 1.6 5.6 3.3 11.6 7.2 18.4 6.1 5-.6 9.8-2.7 14.8-3s9.6 2.6 13.2 6c1.4 1.2 2.7 3 4.3 4h16.6" class="b"/><path d="M8.2 56.7q3.4.9 7 1.5c3.8.5 7.7.6 11.3 1.7q3.6 1.1 7 2.8c1.1.5 2.3 1.4 3.5 1.7h48.1q1.8.2 3.5-.7c3.8-2 7.1-5 10.5-7.6 3.7-2.8 8.1-6.9 13-5.2 4.4 1.6 8 4.8 12.3 6.6 7.3 3.3 13 .5 20.1-1.3 11.6-4 15.8.2 23.6 8.2h15.7" class="b"/><path d="M8.2 56q3.4 1 7 1.5c3.4.2 7 0 10.5.4q2.2.3 4.3.9c1.2.2 2.4 1 3.5.9h46.3a31 31 0 0 0 9.7-2.8c3.9-1.9 7.5-4.4 11.3-6.6 4.1-2.4 8.6-4 13.1-1.6 4 2 7.8 4.8 12.2 6 5.3 1.7 10.7-.2 15.8-1.5 3.2-.5 6.3-1.5 9.6-1.6 6-.2 10.7 4.3 14.9 8h17.4" class="b"/><path d="M8.2 54.3c2.2.9 4.7.6 7 .6h61.1c7.6-1.3 14.2-5.4 21-8.6C104 43 109 42 115.7 46c5.8 3.3 11.5 5.8 18.3 4.2q3.9-1 7.9-1.7c4.3-.3 9-.5 13 1.4q3 1.3 5.3 3.2c.8.6 1.7 1.6 2.6 1.7h21" class="b"/><path d="M8.2 50.2h68.1c.8 0 2 0 2.7-.3 5-2.1 9.2-5.5 14-8.1 6-3.6 12.7-5 19.2-1.7 12 6.3 13.9 7 27 3.7 3.9-.7 7.9.2 11.4 1.7q2.8 1.1 5.3 3c1 .6 2.1 1.9 3.5 1.7h24.4" class="b"/><path d="M8.2 45.4h71.6c1.7-.5 3-2 4.4-3 2.6-2 5.1-4.4 7.9-6.3 6.3-4.7 12.4-5 19.2-1 10.7 6.2 14.2 7 26.2 3.7 3.6-1 7.3-.1 10.5 1.6q3.2 1.6 6.1 4c.3.3 1.3.9 1.8 1h27.9" class="b"/><path d="M8.2 40.7h73.4c6.5-5.2 12.3-15 21.8-13.2 4.5 1 8.3 4 12.3 6.1 4.4 2.6 9.8 3.7 14.8 2.5 10-2.5 12-3.7 21 2.8q1.2 1 2.6 1.8h29.7" class="b"/><path d="m8.2 36 74.3-.1c5.9-5 12.2-13.5 21-10.7 4 1.4 7.5 4.2 11.3 6.3 4 2.3 8.5 3.8 13.1 3 8.8-1.3 12-5.3 21-.2l2.6 1.5c2 .3 4.1 0 6.1.1h26.2" class="b"/><path d="M8.2 31.2h75.1c6-4.2 12.4-9.8 20.1-7.1 4 1.2 7.6 3.6 11.4 5.4 1.6.7 3.4 1.8 5.2 1.7h9.6q2.6.1 5.3-.1 3-.7 6.1-.9c2 0 4 1 6.1 1h36.7" class="b"/><path d="M8.2 25.8q3.9.8 7.8.6h69c1.3.2 2.5-.7 3.6-1q3-1.4 6.1-2.1 6.6-1.4 13.1.7l5.3 1.7q2 .9 4.3.7h66.4M8.2 19.7c3 .3 5.8 1.4 8.7 2h167M8.2 14.3q2.7.5 5.2 1.4 1.7.8 3.5 1.3h35a26 26 0 0 1 8.7-2.5q4.1-.2 7.9 1c1.4.4 2.9 1.4 4.4 1.5h111" class="b"/></svg>