<svg xmlns="http://www.w3.org/2000/svg" id="a" width="1920" height="2400" viewBox="0 0 192 240"><defs><style>.b{fill:none;stroke:#fff;stroke-miterlimit:10;stroke-width:.4px}</style></defs><path d="M0 0h192v240H0z" style="stroke-width:0"/><path d="M9.8 232.2h30.9c2.3.2 2.6-.4 4.3-1.7q2-1.6 4.3-2.4c6.3-2.5 11.2-8 18-9.2 3.4-.7 7 0 10.3 1q3.5.7 6.8 2.5c8.9 5 13.4 5.6 22.3.2 8.4-5.3 14.7-2.9 22.3 2.3 3.5 2.3 7 5.1 11.2 6 1.3.2 2.9 0 4.3.2 1.7.1 3.4 1 5 1.1h18c5.6-2.8 9.5-8 14.7-11.3" class="b"/><path d="M9.8 227.6h36.9c2-.1 4 .1 6-.2 4.9-3.1 9.1-7.4 14.6-9.6 4.6-2 9.9-1.5 14.6 0 2 .7 4 2 6 3 6.8 3.7 12 3.4 18.8 0a18 18 0 0 1 9.4-2.5c5.6.5 10.2 4 14.6 7.1 1 .7 2.3 1.7 3.5 2.2h35.1q1.8-1 3.5-2.3c3.1-2.1 6-5 9.4-6.7" class="b"/><path d="M9.8 223H57q1.3.1 2.5-.4a57 57 0 0 1 8.6-6.4c4.4-2.5 9.8-3.3 14.6-1.5 4.6 1.8 8.8 5 13.7 5.8 4.4.8 8.7-.5 12.9-1.8 6-2.3 12.1.8 17.1 4.1 6.6.3 13.2 0 19.8.1H165c1.1 0 2.5.2 3.5-.4 4.5-2 8.8-4.9 13.7-6" class="b"/><path d="M9.8 218.3h52.3c5.3-4 11-9.3 18-8.3 4 .5 7.5 2.8 11.2 4.3a28 28 0 0 0 17.1 2.3 16 16 0 0 1 11.2 1.5c13.7.3 27.4 0 41.1.2 2 0 4-1.3 6-1.8 5-1.4 10.3-2.7 15.5-2" class="b"/><path d="M9.8 213.6h52.3c6-4.1 12.6-10.7 20.6-8.2 5.3 1.6 10.1 4.4 15.4 5.7a49 49 0 0 0 13.8 1.3c1.7 0 3.4 1 5.1 1.2h37.7c1.2.2 2.4-.6 3.5-1.1q2-1.1 4.2-1.8 4.3-1.2 8.6-.7 5.8.2 11.2 2.3" class="b"/><path d="M9.8 209h48.9c5.1-3 9.8-7.1 15.4-9.2 5.2-2.1 10.6.2 15.5 2q7 2.9 14.5 4.3c2.9.5 5.8.5 8.6 1 1.8.3 3.4 1.5 5.2 1.9H152c8.6-6 11.7-5.5 21.5-2.8l5.1 1.8q1.6.9 3.4 1" class="b"/><path d="M9.8 204.3h24.9c6 0 12.1.5 18-1.2 7.3-2.1 13.3-7.4 20.6-9.7 3.7-1.4 7.5-.7 11.1.6q6 2.2 12 4.3 5.5 1.8 11.2 2.6 2.5.2 5.1.6 2.8.9 5.2 2.3c1.1.9 2.9.4 4.2.5h28.3c1.5-.6 2.9-1.8 4.3-2.5q4-2 8.6-1.7c4.1.5 8 2.5 12 3.4l2.6.8h4.3" class="b"/><path d="M9.8 199.6h27.5c.9 0 1.8-.9 2.5-1.3l4.3-2.5c3-1.4 6.3-1.6 9.5-2.4 5.8-1.4 11.4-4 17.1-5.8 6.8-2.3 11.6-.8 18 1.5 7.3 2.6 14.5 6.1 22.3 7 3 .4 6 2 8.6 3.5q6.4 0 12.8 0H148q2.9-1.6 6-2.7 4.6-1.5 9.4 0c2.9.7 5.7 2 8.6 2.7h10.3" class="b"/><path d="M9.8 195c8.3-.1 16.6.2 24.9-.1 3.9-3.4 7.9-7.1 12.8-8.9 3-1 6.3-1.2 9.5-1.6q5.1-.6 10.3-1.7c3.4-.6 6.8-1.5 10.3-1.7q7.6 0 14.5 2.8c5.6 2 10.7 5.3 16.3 7.2q2.7.6 5.2 1.3 3 1.2 6 2.7h24q3.3-1.5 6.8-2.6 4.3-1 8.6 0c3 .5 5.8 2 8.6 2.6h14.6" class="b"/><path d="M9.8 190.3H33c5.3-4.2 10.3-9.6 17.1-11.2 3.4-.6 7-.3 10.3-.2q6 0 12-1.2a36 36 0 0 1 19.7 0c4.7 1.5 8.7 4.5 12.9 7q3.2 2.1 6.9 3 3 1 6 2.6h24c2-.5 4-1.6 6-2q4.6-1 9.4.1l6 1.8q3.4.1 6.9.1h6c2-.4 4-1.4 6-2" class="b"/><path d="M9.8 185.7c7.7-.1 15.5.2 23.2-.1 4.5-2.8 8.8-6.3 13.7-8.5 5-2.7 10.9-1 16.3-.9q5.3 0 10.3-1.6a51 51 0 0 1 14.6-3.1q4.6.2 8.5 2.4c4 2.1 7.4 5.3 11.2 7.8q2.4 1.4 5.1 2.2 1.8.7 3.5 1.7 7.2.2 14.5 0h15.5q3-.5 6-.6 3 .1 6 .7h14.5c1.2.1 2.4-.8 3.5-1.3l6-2.9" class="b"/><path d="M9.8 181h24.9c1.2.1 2.4-.8 3.4-1.2l6.9-3.4c3-1.4 6.1-2.6 9.4-2.3 10.7 1 13.5.1 23.2-4.4 8-3 13.7-5.3 21.4 0 3.2 2.2 6.1 5 9.4 7.2 1.3.8 3 1.3 4.3 1.9 1.5.5 2.8 1.8 4.3 2.2h34.3q10.7.2 21.4 0 4.6-3 9.5-5.6" class="b"/><path d="M9.8 175.8q2.2.7 4.3.6h26.6q1.9-.2 3.4-1l5.2-2q3.7-.9 7.7-.7c7.4.2 12.6-2.2 18.9-5.8q3.2-1.6 6.8-3a25 25 0 0 1 8.6-2.2c6-.2 10.7 3.9 15.4 7 1.8 1.3 4 2 6 2.9q2.8 1.5 5.2 3.6c1.3 1.6 3.3 1 5 1.2h49.8c1.3 0 2.4-1.2 3.4-1.8q3-1.9 6-3.5" class="b"/><path d="M9.8 170.3c1.1.4 2.3 1.3 3.5 1.4h35.1c4.9 0 9.8 0 14.6-1 6.7-1.5 12.3-6 18.8-7.9 4.5-1.7 8.9-4.2 13.8-4.1 4.2 0 8.1 1.8 12 3.3 1.9 1 4.2 1.2 6 2.3s3.6 2.8 5.1 4.3c1.3 1 2.4 3.3 4.3 3.1h50.6c2.9-1.1 5.7-2.9 8.5-4" class="b"/><path d="m9.8 164 4.3 2.8c1 .4 2.4.2 3.5.3h48c1.8.2 3.5-.6 5.1-1.3q3-1.3 6-2.5c2.5-1 5.3-1.3 7.7-2.4 5.5-2.4 11-5.2 17.2-5 3.4 0 6.9.8 10.3 1.4 3 1 5.5 3.5 7.7 5.7 4.7 5 2.5 4 9.4 4h45.5q3.8-1 7.7-2.1" class="b"/><path d="M9.8 156.8q3.5 2.7 6.9 5.6H69c1 0 2.4 0 3.4-.5q3-1 6-1.7 2.6-.2 5.2-.8c4.9-1.3 9.6-3.5 14.5-4.7q7.2-2 14.6-.8c4.5 1.5 7.9 5.3 11.2 8.5h58.3" class="b"/><path d="M9.8 149c2.3 2 4.5 4.5 6.9 6.5 1.2 1 2.6 2.5 4.3 2.3h48.8c2.4 0 4.6-1 7-1.3s5-.2 7.6-.4c9.2-.8 18.2-3.8 27.5-3.5 4.1.3 7.8 2.8 11.1 5.2h59.2" class="b"/><path d="M9.8 141.5c3.8 3.8 7.4 8 12 10.9 1.4 1.1 3.5.6 5.2.7h42.8c2.6-.5 5.2-1.4 7.8-1.6 5.1-.2 10.3.8 15.4 1.1q9 .7 18 .1 2.6 0 5.1.4h66" class="b"/><path d="M9.8 134.5q3.4 3.5 6.9 6.8A58 58 0 0 0 27 148q1.1.5 2.6.3h42.8c2.5-.5 5.1-1.4 7.7-1.3q4.5.2 8.6 1.2 2.6.2 5.2.1h88.3" class="b"/><path d="M9.8 128.4c3.5 3 7 6 11.2 8.1q6.7 4 13.7 7.3H69q7 0 13.7-.2c8.3.4 16.6 0 24.9.2h56.6a8 8 0 0 0 3.4-.5l4.3-1.1q5-.9 10.3-1" class="b"/><path d="M9.8 123.8q3.4 2 6.9 3.6 3.5 1.2 6.9 2.6 6.6 3.2 12.8 7.3c3.3 2 3 1.9 6.9 1.8h120c2.9-1.3 5.6-3.2 8.6-4.5q4.8-2.2 10.3-3.2" class="b"/><path d="m9.8 120.5 6 1.4q2.6.2 5.2.5c5.7 1 10.8 4.2 15.4 7.6l4.3 3.2c.7.5 1.6 1.3 2.6 1.3h117.4q1.4.1 2.6-.4c6-4.3 11.6-9.5 18.8-11.5" class="b"/><path d="M9.8 118c9.2-.2 13.6-3 22.3 2.3q4.4 3 8.6 6.3c1.6 1.1 3.3 2.6 5.1 3.2h114.9q1.4.2 2.6-.3c6.2-4.7 11.4-11.1 18.8-13.9" class="b"/><path d="M9.8 115c3.7-.7 7.4-1.8 11.2-2.4 7.9-1.2 14.5 4 20.6 8.4q2.7 2.1 6 3.3l2.5.6 1.7.3h36.9q1.8-.2 3.4-.7 2.6-.5 5.2-.3c2.3 0 4.6.8 6.8 1h59.2c6.6-4.1 11.5-10.9 18.9-13.8" class="b"/><path d="M9.8 112c13.7-3.2 17-3.6 29.2 4.1 8.5 5.3 8.5 4.4 18 4.4h24.8c1.5 0 3-1 4.3-1.4q3-1 6-1.3c3.5-.3 7 .4 10.3 1.1s6.9 1.5 10.3.7q6-.8 12-.2c3.2.2 6.3 1 9.4 1.1h29.2c.8.2 1.8-.4 2.6-.7l3.4-2c4.3-2.7 8.2-6.2 12.9-8.2" class="b"/><path d="M9.8 108.8c12.9-1.1 15.1-.6 26.6 5.1l4.3 2h32.6c1.5 0 3-.9 4.3-1.4q3-1.3 6-2 5-1 10.3-.3c5 .7 10.2 2.5 15.4 2 2-.3 4-1 6-1.1 7.3-.8 14.3 2 21.4 2.7 3.8.4 7.4-1 11.2-.9 8 .1 16.3 2 24-1.2 3.5-1.5 6.8-3.7 10.3-5.3" class="b"/><path d="M9.8 105.5q3.5.4 6.9 1 3 .4 6 1.4 4 1.6 7.7 3.3h37.7q4.8-1.7 9.5-3.3c9.1-3.5 18.2 2.6 27.4 2 4.2 0 7.8-2.5 12-2.4 7.6-.2 14.7 4.2 22.3 3.3 2.6-.3 5.1-1.6 7.7-2.2q6-1.6 12-.7c11 2 12.3 3.7 23.2-1.6" class="b"/><path d="m9.8 102.2 6 2.1q3.2 1 6 2.2h42.9c5.6-1.5 11.3-3.2 17.1-3.5 4.5.2 8.6 2.3 12.9 3.4 3.4.4 6.9 0 10.3.1 2.4 0 4.7-1.4 6.9-2.4q2.4-1 5-1.2c7.1-.3 13.6 3.8 20.7 3.2 5.3-.5 9.5-4.6 14.6-6 8.2-2.5 13.2 2.8 20.5 4.6 3.2.5 6.5-.6 9.5-1.6" class="b"/><path d="M9.8 99.5q2.7 1.2 5.2 2.4h46.3c2.2-.2 4.6-.7 6.8-.7l9.5-.3c1.6 0 3.4-.3 5.1 0 1.4.2 2.9 1 4.3 1h22.3c1.9-1 3.8-2.2 6-2.7q4.6-.7 9.4.3c11.7 2.4 14.2 2.7 24-4.5 10-6.6 14.6-1 23.2 3.8a15 15 0 0 0 10.3.4" class="b"/><path d="M9.8 97.2h42q3.8-.8 7.8-.8c3.1-.1 6.3.8 9.4.8h42q2.5-1.2 5.1-2 4.8-.9 9.5-.4c9.5.8 14.2.9 22.3-5 10.5-7 15.1-1.3 24 4.4 3 1.8 6.8 2.1 10.3 1.8" class="b"/><path d="M9.8 92.6H45q2.9-1.7 6-2.4 4.6-1 9.4.1 3 .8 6 2c1 .5 2.3.2 3.4.3H112q1.6-.2 3.4-.8 2-.7 4.3-1c4.2-.8 8.6-.9 12.8-1.2a43 43 0 0 0 11.2-2c5.2-2 10.4-5.6 16.3-4.1 4.4 1 8 3.9 12 6 3.1 1.6 6.7 3 10.3 3" class="b"/><path d="M9.8 88h24.9q4.2 0 8.6-.2a19.7 19.7 0 0 1 17.2-3.3c2.6.7 5.2 2 7.6 3.1 1.6.6 3.5.2 5.2.3h41.1l3.4-.8q12-3.2 24-3.3c4.4 0 8.6-1.8 13-2.2q5.3-.5 10.2 1.3c4 1.4 8 3.4 12 5h5.1" class="b"/><path d="M9.8 83.3h30.9q1.3 0 2.6-.2 2-1.1 4.3-2 4.1-1.7 8.5-2a27 27 0 0 1 11.2 2.1q2.6 1 5.1 2h40.4c8.9-.8 17.4-5.4 26.5-4 2.8.4 5.7 1.3 8.6 1.4 4.8.3 9.7 0 14.6.5q5.2.6 10.2 2.2h9.5" class="b"/><path d="M9.8 78.6h34.3c1.2 0 2.4-.7 3.4-1l5.2-1.7q7.2-2.4 14.6-1c3.1.5 6.3 1.7 9.4 2.5 5.9 1.9 12 .5 18-.3a52 52 0 0 1 11.1-.4c2.3 0 4.6.6 7 1 6.1.3 11.9-2.6 18-3.5 8.6-1.5 12 2.4 19.6 4.4h31.7" class="b"/><path d="M9.8 74h36c6.4-1.7 12.3-5.2 18.9-5.5a31 31 0 0 1 9.4 1c2.9.7 5.7 1.8 8.6 2 3.7.2 7.5-.6 11.1-1q6-.8 12 .1c2.3.4 4.6 1.2 7 1.6 6.7 1 13-3 19.6-3.5q5.5-.5 10.3 2.1l4.3 2.3c.7.4 1.7 1 2.6.8h32.6" class="b"/><path d="M9.8 69.3H27c5.4 0 10.9 0 16.3-.9 7.4-1 13.9-5.5 21.4-5.9Q70 62.3 75 64c2.5.7 5 1.7 7.7 2 5.7.6 11.4-.8 17.2-.7 4.3 0 8.6 1 12.8 2 6.8.7 13-3.3 19.7-4 6.1-1 10.3 1.5 15.5 4.2 1.3.6 2.8 1.5 4.3 1.8h30" class="b"/><path d="M9.8 64.6h6c1.2-.1 2.4-.7 3.5-1l4.3-.9c5-.5 10.3.2 15.4 0A37 37 0 0 0 50 60.9c9.3-3.5 15-5.6 24.9-2.2C85.8 63 91.5 61 102.4 61q3 0 6 .3c1.7.1 3.5.6 5.2.6 6.5 0 12.5-3.1 18.8-3.9 7.2-1.2 12.6 1.9 18.9 4.6 2.7 1.1 5.6 2.5 8.6 2.1h22.3" class="b"/><path d="M9.8 57.7q4.3-1.2 8.6-2c6-1 12 1 18 1.2q6.5.4 12.9-1.4c11.3-4 15.7-5.6 27.4-1.2 9.2 3.6 17.9 3 27.4 2 3.7-.4 7.5.1 11.2-.2 4.9-.5 9.7-2 14.6-2.6 12.4-1.8 16.5 1.7 27.4 4.9q6.8 1.6 13.7 1.4 5.6.1 11.2-.3" class="b"/><path d="M9.8 49.1c11.3-2.6 13.6-.1 24 2q6 1 12-.1c7.2-1.4 14-5.3 21.5-4 3.8.6 7.5 2 11.1 3.3 4.2 1.1 8.5 2.3 12.9 2.6 5.5.5 10.9-.7 16.3-1.6q3.8-.4 7.7-.7l12-1.2q8.6-.6 17.1.3c5.3 1 10.2 3.1 15.5 4 7.4 1.5 14.8-.4 22.3-1" class="b"/><path d="M9.8 41.1c3.4-.6 7-1 10.3-.2q5.2 1.7 10.3 3.7 5.5 2 11.2 2 5.3-.4 10.2-1.8c4.2-1.2 8.5-2.5 13-2.4 4.3.1 8.6 1.7 12.8 3 5.9 1.3 11.8 3.3 18 3 4.6 0 9.1-1.6 13.7-2.5q7.6-1.1 15.4-.7 6.5.4 12.9 1h6.8c4.4.6 8.6 2.3 12.9 3.3q6.4 1.6 12.9.6c4-.6 7.9-2.1 12-2.2" class="b"/><path d="M9.8 33.2q7.3-1.6 13.8 1.9c9.7 5.2 16 8.7 27.4 6.1 6.3-1.6 12.3-3.6 18.9-2.3 4.2.8 8.4 2 12.8 2.6 4.8 1 9.7 2 14.6 1.4 4-.5 8-1.8 12-2.6q4.2-.7 8.6-.3c6.3.4 12.5 2.1 18.8 3 2.5.4 5.2.2 7.7.4q4 .7 7.8 2.2c1.5.7 3.4.4 5.1.4h20.6c1.3 0 2.9-.5 4.3-.6" class="b"/><path d="M9.8 25.2c6-1.7 10.3-.7 15.5 2.5 7.5 4.6 15.5 10.2 24.8 9.1 5.2-.6 10.2-2.5 15.4-2.5C70.8 34 75.9 35.8 81 36c4.5.5 9.1 1.1 13.7.5 6.9-.6 13.6-4 20.6-2.4 8.2 1.3 15.8 5.5 24 7 2 .4 4 .2 6 .3h36.9" class="b"/><path d="M9.8 18.4c6.1-2.5 10.7-1.8 16.3 1.4 8.7 4.7 16.9 13 27.5 11.5 4.2-.5 8.5-1.4 12.8-1.4s8.6.8 12.9 1.1q6 .4 12-.6c6.6-1 13-4.6 19.7-3.6 7.8 1.6 14.4 6.4 21.4 9.8q24.9.1 49.8.1" class="b"/><path d="M9.8 13.7c9.3-4.8 16.9-1.5 24.9 4 13.8 9.7 13.3 9.7 30 8 17.2-.4 15.6 3.4 33.4-4.4 3.8-1.5 8-3 12-1.8 7.7 2.7 13.8 8.3 20.6 12.5h51.5" class="b"/><path d="M9.8 11.1c12.2-5.8 19.8-3.8 30 4.3 4 2.9 8 6.4 12.9 6.9 6.3.6 12.6-1 18.9-.8 9.7 0 11.5 1.4 20.5-3.8 5.9-3.2 13.2-8.4 19.8-4 4.5 2.7 8.6 6.1 12.8 9.3L129 26l1.7 1.2 1.7.1h49.8" class="b"/></svg>