<svg xmlns="http://www.w3.org/2000/svg" id="a" width="1920" height="2400" viewBox="0 0 192 240"><defs><style>.b{fill:none;stroke:#fff;stroke-miterlimit:10;stroke-width:.4px}</style></defs><path d="M0 0h192v240H0z" style="stroke-width:0"/><path d="M9.2 229.2c2.1.8 4 2.1 6 3h44.1c3.5-1.4 6.9-3.2 10.4-4.5 7.2-2.8 11-1.2 18.1.5q7 1.6 13.8 4h62.2c5.5-6.3 10-14 19-15.6" class="b"/><path d="M9.2 224.3q2.3.9 4.4 2c.7.5 1.7 1.2 2.6 1.2h49.2c3.9-2.5 8.1-5.3 13-5.5a95 95 0 0 1 21.5 4.4q1.6.7 3.4 1.1h61.3c.6-.1 1.4-.8 1.8-1.2 4.6-4.8 9.3-9.8 16.3-10.4" class="b"/><path d="M9.2 220.4q2.3 1.2 4.4 2.4H67c3.3-2.6 6.9-5.4 11.2-6q4.8 0 9.5 1.1a101 101 0 0 1 15.6 4.8c2.2.3 4.6 0 6.9.2h13q3.4 0 6.8-.2 3-1 6-1.5 4-.6 7.8.2c1.8.3 3.4 1.5 5.2 1.4h15.6c1.8-.6 3.5-2 5.1-3a20 20 0 0 1 13-4" class="b"/><path d="m9.2 217 1.8 1 1.7.2h54.4c3.5-2.9 7.3-6 12-6.4 4.4-.1 8.8.8 13 1.8q6.7 1.8 13 4.2c1.3.6 3 .3 4.3.4h11.2c1.4 0 3.1.2 4.3-.7 5.7-3.3 12.2-7 19-5.2 3 .8 5.8 2.1 8.7 3q5 1.8 10.3 1c8-1.3 11.1-4.4 19.9-2.1" class="b"/><path d="m9.2 212.9.9.6h53.6c3 .1 2.8 0 5.1-1.8 7.3-5.4 14.9-4.3 23.3-3.3q7.6.8 14.7 2.7c2 .6 4 1.7 6 2.3a13 13 0 0 0 7.8-1.3c6.4-3 12.4-8.3 19.9-8 2.6.1 5.2 1 7.7 1.6q6 1.7 12.1 1.8c9.9-.2 12.7-2 22.5 2.5" class="b"/><path d="M9.2 207.6c.8.6 1.6 1.4 2.6 1.2h52.7c1.2 0 2.3-1 3.4-1.4q3-1.5 6-2c5.2-1 10.5-1 15.6-1.7 5.2-.6 10.4-1.7 15.6-1.5q3.5.1 6.9 1.6c5 1.6 10-1 14.7-3 4.3-1.8 9-3.4 13.8-2.9q3.4.8 6.9 1.2 5.2.3 10.3-.4c12-1.7 14.6-2 25 4.8" class="b"/><path d="M9.2 200.6c1.8 1 3.3 2.8 5.2 3.5h50.1q1.7-.2 3.4-.5 2.2-.4 4.4-.5c8.5 0 13-.9 20.7-4.8 4.9-2.3 9.9-5.7 15.5-5.5 1.8 0 3.5 1 5.2 1.2 2.8.4 5.8 0 8.6-.4 5.1-1 10.4-2 15.6-1.2 2.6.2 5.1 1.3 7.7 1.4 8.4.6 15.8-5.2 24.2-4.7 5 .4 9 4.2 13 7" class="b"/><path d="M9.2 193c4.3 1.7 8 4.4 12.1 6.4h24.2l16.4-.1 13 .1h4.3c1 0 2.4.2 3.4-.4 7-3.2 12-9.1 18.1-13.5 2.8-1.9 6-3.8 9.5-3.3l7 1.4q10 .9 19.8 3.2c3.1.7 6.3 2 9.5 1.7 7.8-.5 14.5-6 22.5-5.8 5.3.2 9.4 4.3 13.8 7" class="b"/><path d="M9.2 186.2c4.1.1 7.7 2.3 11.3 4.1 4 2 8.4 3.6 13 3.3 6.7-.3 11.9-3.5 18.9-2 4.4.5 8.7 2.1 13 3.1h16.3c9-5.2 17-19.5 26.8-21.4 2-.3 4.1.3 6 .7q5.3 1.4 10.4 3.1c7 2.3 14 6 21.6 5.3 8-1 15.9-5.8 24.2-3.5 4.3 1.2 8 4 12 6.1" class="b"/><path d="M9.2 180.4c4.6-1 8.3 1.3 12.1 3.2q5.3 2.9 11.2 3c6.1.3 12.1-2.7 18.2-1.2 4.2 1 8 3.3 12 4.6h15.6q1.4.2 2.6-.3c9-6.3 17.6-21.6 29.4-21.8 8.5.5 16 5.2 24.1 7.3a28 28 0 0 0 13 .5c8.5-1.6 16-2.6 24.1 1 3.8 1.5 7.5 3.6 11.3 5.1" class="b"/><path d="M9.2 175.3q5.1-1.2 9.5 1.6 4.2 2.4 8.7 4.1c5.5 2 11.5 1.3 17.2 1q4.1-.3 7.8 1.2c1.7.6 3.4 1.7 5.2 2.2h21.6c14.6-12 19.9-23.4 41.4-17.4 6 1.5 12 3 18.1 2.6 3.8-.2 7.5-1.3 11.3-1.6a34 34 0 0 1 19 4.5q6.6 3.4 13.8 6" class="b"/><path d="M9.2 170.4c4.4-.8 7.7.8 11.3 3.2 5.2 3.3 11 6.2 17.2 6.7 6.3.6 12.7.3 19 .4h22.5c6.6-5.7 13.2-13 22.4-13.9q3.9-.1 7.8 0 6.4.2 13 .8 6.4.5 12.9-.6c4-.7 8-2 12-2.7 8.4-1.4 15.5 2.5 22.5 6.6q6.3 3.3 13 5.8" class="b"/><path d="M9.2 165.4a18 18 0 0 1 11.3 4q4.5 3.3 9.5 6 1.1.7 2.6.6h48.3c6.9-6.1 13.6-11.3 23.3-10q6.9.7 13.8.7a60 60 0 0 0 19.9-3c7.2-2 15-4.4 22.4-1.8 4 1.3 7.6 3.4 11.2 5.3q5.7 2.5 11.3 5.4" class="b"/><path d="M9.2 161.8c6.2 0 11 3.4 15.6 7 1 .8 2.2 2 3.4 2.5H80c1.4 0 2.6 0 3.5-1 3.3-2.9 7-5.7 11.2-7 4.8-1.5 9.9 0 14.7.8 6.6.8 13.4 1.3 19.8-.6q5.3-1.7 10.4-3.8 6-2.1 12-3.2c5.2-.7 10.3 1 14.8 3.3q4.2 2.2 8.6 4.3 4 2 7.8 4.4" class="b"/><path d="M9.2 158.8c8.3-.2 12 3.2 18.2 7.8h48.4c2.2-.1 4.6.3 6.8-.2 5.8-5.7 12.1-10.8 20.7-8.3l6 1.8q3.5.8 7 1.4 9 1.7 17.3-2.5c3.3-1.6 6.7-3.4 10.3-4.4q4.2-1.7 8.7-2.3c5.2-.7 10.2 1.5 14.6 4.2q4.2 2.5 8.7 4.5 3.4 2 6.9 4.3" class="b"/><path d="M9.2 155.3c8.6-1.3 12.6 1.3 19 6.5 16.4.3 32.8 0 49.2.1 1.4-.1 3.2.4 4.4-.4q3.2-3.7 6.9-6.8c3-2.6 7-4.5 11.2-3.9 4.5.7 8.5 3.3 13 4.4 5.6 2.2 11.2 4.2 17.2 2 5-1.7 9.5-5 14.7-6.6 6.3-2.6 11.9-3.4 18.1.1 4 2.2 7.8 5.2 12.1 7q2.7 1.3 5.2 3c.7.4 1.7 1.2 2.6 1.2" class="b"/><path d="M9.2 151.1c8.4-2.4 12.1-1 19 3.9 1.1.7 2.2 1.9 3.5 2.2h47.5c2-1.3 3.4-3.7 5.1-5.4 4-4.3 9.2-9.5 15.6-8.3 3 .6 5.9 2.3 8.6 3.8q2.5 1.2 5.2 2.4c4.3 2.3 8.7 5.3 13.8 5 4.4 0 8.3-2.3 12-4.2q2.6-1.2 5.3-2.2 3-1.3 6-2c10-2.5 15.8 6 24.2 9.1l3.4 1.8h4.4" class="b"/><path d="M9.2 146.2c2.5-.8 5.2-1.8 7.8-2 5.5 0 10.2 3.4 14.7 6.2q1.6 1.2 3.4 2.1h42.3c6.5-5.6 12.3-17.9 22.5-15.4 4.4 1.3 8 4.5 12 6.5 5.2 2.9 9.6 7.7 15.6 8.7 4.2.7 8.3-1.2 12.1-2.9l8.6-3.4c6.8-2.7 12.2-1.2 18.2 2.6 2.4 1.4 5 3.1 7.7 4h8.7" class="b"/><path d="M9.2 141.8c2.6-.7 5.2-1.6 7.8-1.8 5.7-.2 10.8 3 15.5 5.6 4.5 2.5 3.6 2.3 8.7 2.3H74c3.1-1.4 5.4-4.4 7.7-6.9 3.7-3.9 7.5-8.5 13-9.7 6.7-1.2 11.8 4.5 17.3 7.3 3 2 5.7 4.6 8.6 6.8 1.3.8 2.7 2.4 4.3 2.5h16.4q3.9-1 7.8-2.6c3.8-1.4 8.2-1.8 12-.5q3.7 1.3 7 3h14.7" class="b"/><path d="M9.2 138.5c2.6-.5 5.2-1.3 7.8-1.5 5.2-.4 10.1 2.1 14.7 4.3 1.4.6 2.8 1.5 4.3 1.9h29.3c1.5 0 3-.8 4.4-1.2q4.6-1.8 8.6-4.8C84 133 89 126.5 96.4 126.1c4.5-.2 8.5 2.2 12.1 4.4q4.3 2.3 7.8 5.5 2.6 2.5 5.2 4.7 1.5 1.5 3.4 2.5h57.9" class="b"/><path d="M9.2 135.4c7.5-1.9 10.8-2.7 18.2.4l4.3 1.9c.8.3 1.7 1 2.6.8h17.3l7.7-.1 3.5-1.5c5.3-2.4 11.1-4 16.4-6.7 5.7-3.1 11.3-7.5 18.1-7.9 5.6-.4 11 2.3 15.5 5.3 3.7 2.8 6.9 6.3 10.4 9.3.7.5 1.6 1.5 2.6 1.6h57" class="b"/><path d="M9.2 131.5c6.2-2.1 10-3.5 16.4-.9q3.6 1.4 7 3c3.6.4 7.5 0 11.2.2h12.9l1.7-1c4-2.5 8.3-4.8 13-5.8 3.7-.8 7.6-1.1 11.2-2.4 7-2.1 14-5.6 21.6-4.6 8.7 1 14 9 20.7 13.7q29 .1 57.9 0" class="b"/><path d="M9.2 126.3c2.8-1.4 5.6-3 8.7-3.4 6.3-.5 11.7 3.6 17.2 6 1.4.4 3 .1 4.4.2h13.7c1.4.2 2.5-.7 3.5-1.4 8-5.5 12-6.7 21.6-5.3q4.8.4 9.5-.6c6.3-1.1 12.5-4.1 19-3.1 4.8.8 8.4 4.6 12 7.5l3.5 2.7q1.7.3 3.5.2h57" class="b"/><path d="M9.2 119.6c2.7-1.9 5.4-4 8.7-4.6 7.1-1 14 5 20.7 7.3 12.3 4.4 14-1.2 24.2-4.5 6.7-2 11.8 1.8 18 2.8q5.7.7 11.3-.4c6-.9 12.4-3.3 18.1-.5q3.6 2 7 4.7h65.6" class="b"/><path d="M9.2 114c3-2.4 6.4-5.2 10.4-5.4 4.2-.1 8.2 1.8 12 3.3 4.7 2 9.7 3.8 14.8 3.5 5.3 0 10.1-3.3 15.5-3 3.8.2 7.2 2 10.4 4 2.2 1 4.4 3 6.9 3.3h17.3q4.2-1.2 8.6-1.6 3.7-.1 6.9 1.6h70.8" class="b"/><path d="M9.2 110.1c10.3-8.6 15.4-4.6 26.8-1.9q5.2 1.3 10.4.7c2.9-.3 5.7-1.3 8.6-1.6 6.8-1 12.5 3.5 17.3 7.6 36.8.3 73.6 0 110.5.1" class="b"/><path d="M9.2 107c10.8-7 14.6-4.3 26-2q4.6.8 9.4.4c2.7-.3 5.2-1.2 7.8-1.8 5.9-1.4 11.2 1 15.5 5 1.7 1.3 2 2 4.4 1.8h110.4" class="b"/><path d="M9.2 103.6c4.4-1.6 9-4 13.9-3.2 6 1 11.8 3.8 18 3.8 4.3.2 8.2-1.5 12.2-2.6 6.8-2 10.9.5 16.4 4h113.1" class="b"/><path d="m9.2 99 9.5-2.2c3-.4 6 .7 8.7 1.8l5.2 2.4h18.9c1.5 0 3-1.1 4.4-1.5q3.7-1.6 7.7-1 3.7.6 7 2.5h112.2M9.2 93c9.8-2.3 11-4.3 19.9 1.7l2.6 1.6h19q3.4.1 6.9-.1 3.7-1.8 7.8-1.8c2.6 0 5.2 1.2 7.7 1.9h109.7" class="b"/><path d="M9.2 86.8q4.7-2 9.5-3c2.5-.2 4.9.8 7 2q4 2.5 7.7 5.7c2 .3 4 0 6 .1h23.3l4.4-.5q2.6.1 5.2.5h110.5" class="b"/><path d="M9.2 81.8c3.3-1.5 6.8-3.3 10.4-3.8 6.9-.3 12 5.3 17.3 9h145.9" class="b"/><path d="M9.2 78.2c3.6-1.8 7.3-3.9 11.3-4.6 8-1.4 14.4 4.6 20.7 8.6h141.6" class="b"/><path d="M9.2 75.3c12-5.2 17.9-10 30.3-2.2 7.2 4.5 8.8 4.6 17.2 4.5h126.1" class="b"/><path d="M9.2 71.6q6-2 11.3-4.9c4.7-2.6 10.2-4.3 15.5-2.4 4.5 1.4 8.3 4.6 13 5.5 2.1.5 4.2 1.8 6 3h127.8" class="b"/><path d="M9.2 67.4c5.9-.7 10.6-4.4 15.6-7.1 6.9-3.7 12.3-2.2 19 1q2 1 4.3 1.7 2.8.7 5.2 2.1l4.3 2.8c1 .4 2.3.2 3.4.3h121.8" class="b"/><path d="M9.2 63.5q3 .1 6-.1 3.4-1.6 6.1-3.8c9.6-7.4 14-8.6 25-3.5 1.7.7 3.6 1.1 5.2 2q4 2.3 7.8 4.8c1.2.9 2.9.5 4.3.6h119.1" class="b"/><path d="M9.2 58.8h6c1.2 0 2.6.2 3.5-.4 9-7.2 14.3-15.2 26.8-8.8q3 1.3 6 2.8 4.4 2.5 8.7 5.1l2.6 1.3h120" class="b"/><path d="M9.2 54.1h6q1.9.1 3.5-.2c8.6-7.3 14.4-17.4 26.8-10q5.7 3 11.2 6.4L62 53c1 .4 2.3 1.2 3.4 1.1h82.1q1.3-.2 2.5-.8 2.2-.8 4.4-1.2a22 22 0 0 1 12 2h16.5" class="b"/><path d="M9.2 49.4H17c9.7-7 14.8-20 28.5-10.5 6.3 4 12.6 8.4 19.9 10.5H118c2.3.2 4.6-.6 7-.7q4.6-.2 9.4 0c8.9.3 13.4-6.8 21.6-7.7 8-.8 13.7 5.9 20.7 8.4h6" class="b"/><path d="M9.2 44.7h6c1-.1 2-1 2.7-1.5 8.2-6.8 14.3-17.5 25.9-9.1 5.8 4.2 11.8 8.9 19 10.6H111c1 .2 1.9-.5 2.6-1l4.3-2.4c4.3-2 9.1-2.4 13.8-2.4 9.8.2 11-2.4 19-6.5 7.7-3.9 13.6-.3 19.9 4.3q5.6 4 12 6.7" class="b"/><path d="M9.2 40q2.7.2 5.2 0 2.7-1.6 5.2-3.8c8-7 14-12.9 24.2-5.5 4.9 3.5 9.8 7.2 15.5 9.3h48.4c1-.2 1.8-1.2 2.5-1.8a40 40 0 0 1 13-7c5-1.6 10.4-1.4 15.5-2.5 4.6-1.2 8.4-4.4 13-5.6 7.1-2.3 13.4 2.1 19 6.1q5.8 3.8 12 7" class="b"/><path d="M9.2 35.4h4.4q3-1.6 6-3.7c8.7-6.5 14.8-10 25-3.8l8.7 5 3.4 2q.8.4 1.7.5h45.8c1-.3 1.8-1.4 2.6-2q1.6-1.7 3.4-3 5.3-3.8 11.3-6.3c6.3-2.7 13.4-2.8 19.8-5.1 10.5-5.2 16.6-3.2 26 3.1q3.6 2.6 7.7 4.4 3.9 1.9 7.8 4.2" class="b"/><path d="M9.2 30.7h4.4c1 0 2.4.1 3.4-.3 5.7-3 11.5-6.9 18.1-7.1 5.5-.3 10.7 2 15.6 4.2l4.3 2.3c.7.4 1.7 1 2.6.9h44.9c2.4-1.7 4.4-4.2 6.9-5.8q3.3-2.2 6.9-4 5.5-2.7 11.2-4.4c4-1.2 8.1-2 12.1-3.3 5.6-2.2 8.8-3.2 14.7-1 5.5 2 10.2 5.8 15.5 8.4 1.9 1 4.1 1.4 6 2a37 37 0 0 1 7 3.6" class="b"/><path d="M9.2 26H24c9-3.7 19.5-5.8 28.5-1.3L55 26h47.4c1.4-.2 2.4-1.7 3.5-2.4a30 30 0 0 1 5.2-3.5q10.5-5 21.6-8.5 5.7-1.7 11.2-3.6c6.7-1.3 12.5 3.3 18.1 6.2q4.5 2.7 9.5 3.9c1.4.3 3 .2 4.4.6a23 23 0 0 1 6.9 3.2" class="b"/></svg>