<svg xmlns="http://www.w3.org/2000/svg" id="a" width="1920" height="2400" viewBox="0 0 192 240"><defs><style>.b{fill:none;stroke:#fff;stroke-miterlimit:10;stroke-width:.4px}</style></defs><path d="M0 0h192v240H0z" style="stroke-width:0"/><path d="M7.8 229.5c11.2 1.3 17-4.7 27.2 2.7h56.2c5.4-6 11.6-10.8 20.2-9.5 4 .4 8.1 1.5 12.3 2 6.7 1 13.4-.8 20.1-1.3 9.3-.7 18.2 2.4 27.3 3.6q6.6.8 13.1-.5" class="b"/><path d="M7.8 223.8q4.5-.2 8.8-.8c4.3-.9 9-1.5 13.1.2q2.3 1 4.4 2.5c.8.5 1.8 1.4 2.7 1.8H92c1.7.2 3-1.6 4.3-2.3q3.6-2.4 8-3.4c5.2-1 10.5.4 15.7 1.2q6.2 1 12.3.2c9-1.4 18-3.7 27.2-4.3 8.2-.4 16.4.7 24.6 1" class="b"/><path d="M7.8 218.8q6-.5 12.3-1.5c7.3-1.2 12 1 17.5 5.4h60.6a29 29 0 0 1 7-2.6c5.5-1.2 11.2.1 16.7.7a55 55 0 0 0 22.8-3.7c3.5-1.1 7-2.7 10.5-3.7q5.6-1.8 11.5-1.5c5.9.3 11.7 1.8 17.5 3" class="b"/><path d="M7.8 215q5.3-.3 10.5-.7c5.4-1 11-1.3 15.8 1.5q1.8 1 3.5 2.1h67.6c2-.3 4.1-1 6.2-1q5.2.1 10.5.6c9 .5 17.6-2.7 25.4-6.7 17-10 20.2-3.7 36.9 0" class="b"/><path d="M7.8 212.5q4.9.1 9.7.1c3.2-.2 6.4-1 9.6-1A20 20 0 0 1 35 213h93.9c4.6-.9 9-2.9 13.2-5 9.2-4.7 15-12 26.3-6.6 2.6 1.2 5.2 2.8 7.9 3.9q3.8 1.5 7.9 1.9" class="b"/><path d="M7.8 208.4h124.6q7.5-3 14-7.6c8-6 13.7-9 22.9-3 4.7 3.2 8.9 6.3 14.9 5.6" class="b"/><path d="M7.8 203.6h129c1.5-.4 3-1.5 4.4-2.2 3.1-1.7 6-4 8.8-6 7.5-5.9 13-6.1 21-.8 4.2 2.8 8 5 13.2 3.9" class="b"/><path d="M7.8 198.9h133.4c4-1.6 7.6-4.3 11.4-6.5 6.6-3.8 12.5-3.6 19.3-.3 4 2 7.8 3.2 12.3 2" class="b"/><path d="M7.8 194.1h138.7l5.2-1.6q5.6-1.8 11.4-2.3 4.8-.3 9.7.6 5.7 1.4 11.4.2M7.8 189.3h150.1c8.7 0 17.6.5 26.3-1M7.8 184.6h67.6c1.4 0 3 .2 4.4-.2q2.8-1.5 6.1-1.3c2.1 0 4.2.8 6.1 1.5h32.5q1.3-.1 2.7-.5 2.2-.6 4.3-.7c2.7-.1 5.3.8 8 1.2H184M7.8 179.8h72l2.6-1.5q2.9-1 6.1-.9c2.8.3 5.4 1.4 8 2.4h21.9c1.2-.3 2.4-1.3 3.5-1.8a16 16 0 0 1 16.7 0c1.4.6 2.8 2 4.4 1.8h41.2" class="b"/><path d="M7.8 175h72c7.1-4.9 12.8-2.8 20.1 0h15.8c4.2-2 8.4-5 13.2-5q4.6.1 8.8 2.5l3.5 1.9c.4.3 1.3.6 1.8.7h41.2" class="b"/><path d="M7.8 170.3h71c1.6-.5 3-1.8 4.5-2.4q3.6-1.9 7.9-2c6.1-.1 11.5 3.7 17.5 4.4 3 .2 6-.9 8.8-1.8 3.4-1.2 7-2.4 10.5-2.4q4.6 0 8.8 1.9c1.8.6 3.4 1.9 5.3 2.3h42.1M7.8 165.5H78c1.3.2 2.5-1 3.5-1.7a43 43 0 0 1 5.3-3.1c6.3-3.3 12.1-1.9 18.4.6q2.6 1 5.3 1.5 3.5.1 7 0c4.7-.2 9.4-.5 14 .1q5 .6 9.7 2.6h43" class="b"/><path d="M7.8 160.8h71.1c3.4-2 6.3-5 9.6-7 6-3.9 11.4-3.5 17.6-.6q3.8 1.7 7.9 2.8 4.3 1.3 8.8 2c4.3.8 8.8.7 13.1 1q4.1.2 8 1.7h40.3" class="b"/><path d="M7.8 156h72c3.9-2.4 6.8-6.4 10.5-9.1 5.9-4.7 11.1-4.5 17.5-1l8 3.8a28 28 0 0 0 14 3.7c3.2-.1 6.4-.8 9.6-.7 3.8 0 7 2.4 10.6 3.3h34.2" class="b"/><path d="M7.8 151.2h73.7c6.1-5.2 11-15 20.2-14.6 4.8.5 9 3.4 13.2 5.5 4 2.3 8.4 4.4 13.1 4.2 3.6-.1 7-1.3 10.6-1.8 5.5-.7 11.3 3.8 15.8 6.7h29.8" class="b"/><path d="M7.8 146.5h72.8q1.8.1 3.6-.3c5.1-5.7 10.1-14 18.4-15 3.7-.2 7.2 1.4 10.5 2.8a29 29 0 0 0 14 3.4c4.2-.3 8.2-1.8 12.3-2 6.3.2 13 7 17.6 11 3.2.3 6.5 0 9.6 0h17.6" class="b"/><path d="M7.8 141.7H86c.5-.1 1.3-.9 1.7-1.4l2.6-3c4.5-4.9 9.6-10.6 16.7-11.1 3-.2 5.8.8 8.7 1.1q5.8.9 11.5 0c4.3-.4 8.8-1.4 13.1-.3 2.2.6 4.3 2 6.2 3.2q4 3 7.9 6.5l5.2 4.7q1.4.4 2.7.3h21.9" class="b"/><path d="M7.8 137h80.7c2.6-2 4.7-4.8 7-7 4-4 8.4-8.3 14.1-9.6q2.7-.3 5.3-.5l7-1.4c9.3-2.3 16.2-2 23.7 4.4 5.8 4.6 11.4 9.5 17.5 13.8 1 .4 2.4.2 3.5.2h17.6" class="b"/><path d="m7.8 131.5.9.7h81.6c4-3.4 7.6-7.5 11.4-11.2 2.6-2.5 5.4-5.1 8.8-6.5 3.7-1 7-2.9 10.5-4.4 11.6-5.3 18 1.3 26.4 8.5q8.8 7.5 19.3 12.5 1.2.8 2.6 1h14.9" class="b"/><path d="m7.8 125.4 1.8 1.9c5.5.3 11.1 0 16.6.1H85q2.7.2 5.3-.2 2.3-1.6 4.4-3.4c4.6-4 8.5-9 13.1-13.1 2-1.8 4.8-2.7 7-4.2 3.2-2 6.2-4.3 9.7-5.5 6.9-2.5 13 2.8 17.6 7.4q4.5 4.6 9.6 8.5c6 4.6 13.4 7 20.2 10 1.2.9 3 .4 4.4.5h7.9" class="b"/><path d="M7.8 120.2q1.3 1.4 2.6 2.4h70.2c6 .5 11.5-2.8 15.8-6.5s8-8.2 12.3-11.7c1.6-1.3 3.6-2.1 5.3-3.2 2.6-1.7 5.1-3.8 7.9-5.3 8.3-4.8 14.6.8 20.2 6.6q5.6 6.1 12.3 11c5 3.8 10.9 6.6 16.6 9.1h13.2" class="b"/><path d="M7.8 115.8c.8.6 1.8 1.6 2.6 2h62.3c2.4-.3 4.7-1.3 7-1.5 10.2-1.1 15.3-4 22.9-10.5q3.3-3 7-5.4 2.7-1.4 5.3-2.9c4.7-3 9.8-7 15.8-6.3 6.8 1 11.5 6.8 16.6 10.9q10.1 8.5 21.1 15.8h15.8" class="b"/><path d="m7.8 111 2.6 1.8c1.6.6 3.6.2 5.3.3h51.8q3.4-1.2 7-1.9c5.2-1 10.7-1.3 15.8-2.8 8-2.1 14.3-8 22-10.9 7.2-3 14.5-8.4 22.8-6.5 4.1.8 7.8 3.3 11.4 5.5 8 4.4 15.2 10.2 22 16.5 5.1.3 10.5 0 15.7.1" class="b"/><path d="M7.8 105c2.2 1 4.6 2.2 7 2.7q1.8.2 3.5.3 2.2.4 4.4.3h16.7q7.5.2 15 0 3-1 6-1.8c6-1.5 12.4-.7 18.5-1.1q11.8-1.3 22.8-5.8 9-3.7 18.4-6c6-1.7 12.2-3.5 18.5-3 3.3.1 6.4 1.4 9.6 2 9.9 2 15.4 8.9 22 15.7h14" class="b"/><path d="M7.8 97.3c2.5.9 5.3 1.6 7.9 1q2.6-.7 5.3-.7c5 0 10 1.7 14.9 2.5q5.3 1.2 10.5-.1c7.2-2.8 12.5-4.4 20.2-2.2 3.2.9 6.4 2.1 9.7 2.7 3.8.6 7.7-.5 11.4-1.3 5.3-1.3 10.5-3 15.8-4.3 4-1 8-2.3 12.3-2.5q4.7 0 9.6-.4t9.7-1.8q3-.8 6.1-1.1 2.6 0 5.3-.3c2.8-.4 5.9-1 8.7-.2 7.5 2.1 11.8 9.3 16.7 14.7 1.4.5 3 .2 4.4.3h8" class="b"/><path d="M7.8 88.5c8 2 9-2.6 16.7-1.6 3.9.5 7.6 2 11.4 3 3.4 1 7.1 1.6 10.5.4 6.7-3.3 11.4-4.3 18.4-1 3.9 1.8 7.4 4.4 11.5 5.9 5.3 1.7 12.2-1.2 17.5-2.6a124 124 0 0 1 13.2-3.3q3-.6 6.1-1 2.2 0 4.4.5a33 33 0 0 0 16.7.6q3.5-1 7-2 2.2-.4 4.4-1c2.8-1.1 5.7-2.7 8.7-3 8.8-.3 13.8 9.8 19.4 15.2 1.3.4 3 .1 4.4.2h6" class="b"/><path d="M7.8 79.4c10 1.5 9.3-5.3 22-.4 4.5 1.7 9 4.3 14 4 2.2 0 4.2-1.2 6.1-2.2a15 15 0 0 1 11.4-.5c6.1 2 10.7 7.1 16.7 9.2 4.3 1.2 9 .1 13.2-1q9.9-2.9 20.1-5c3.3-.8 6.6.5 9.7 1.5 9.6 3.6 14.3 2 23.7-.7 3.2-1.2 6.2-3.3 9.7-3.8 8.7-1.1 13.6 8.4 19.3 13.4 3.4.3 7 0 10.5.1" class="b"/><path d="M7.8 71.2q3.1 0 6.1-1c2-.6 4-1.7 6.2-1.8 8.8-1 15.8 7 24.5 6.3 2-.1 3.6-1.1 5.3-1.9q5.1-2.2 10.6-.7C67 74.1 71.9 79.8 78 83c3.5 1.6 7.6 2 11.4 2 5.4-.3 10.7-1.9 15.8-3.7 3.7-1 7.4-3.4 11.4-2.4 7.5 1.8 12.8 5.7 21 4.1q3.6-.6 7.1-1.8c2-.7 4-1.8 6.1-2.5 9.5-3.5 15.5 5.5 22 10.7h11.4" class="b"/><path d="M7.8 64.8q3.1-.6 6.1-1.8c2.5-1 5.2-2 8-2 8.3 0 15.4 7.3 23.6 6.5 1.9-.2 3.6-1.3 5.3-1.8 3.4-1.2 7.2-1.4 10.5 0 5.8 2 10.1 6.8 15 10.5a41 41 0 0 0 13.1 6.2c6.4 1.7 13-.8 18.4-4 2.8-1.5 5.6-3.5 8.8-3.2 5.8.4 11 3.6 16.7 4 4.9.7 9.6-1 14-2.7 10.6-3.9 15.8 2.8 23.7 8h13.2" class="b"/><path d="M7.8 60.8c3-1.1 5.8-2.7 8.8-3.8 6.9-2.5 13.9.8 20.2 3.6 3 1.2 6.3 2.4 9.6 1.8 7.1-2.3 11.5-4 18.4.2 4.3 2.6 7.8 6.3 11.5 9.6 2.1 2 4.7 3.6 7 5.3l2.6 2c1.6.5 3.6.1 5.3.2h14c1-.2 2-1 2.7-1.6 4.7-3.9 7.5-6.1 14-5 6.3 1.1 12.9 3.7 19.3 1.7 2-.6 4-1.6 6.1-2 3.9-1 8-.3 11.5 1.4 3.3 1.5 6.4 3.8 9.6 5.5h15.8" class="b"/><path d="M7.8 58.7c2.6-1.4 5.1-3.2 7.9-4.3 5.8-2.2 12.1-.8 17.6 1.7 4.1 1.7 8.5 4.1 13.1 3.7 2.4-.4 4.7-1.5 7-1.9a17 17 0 0 1 14 3.9c3.5 2.7 6.6 6 9.7 9l5.3 4.2h18.4c3.5-.1 7 .2 10.6-.2 7.8-7.7 17-2.2 26.3-3.2 2.4-.2 4.8-1.2 7-2.1 3-1.2 6.6-1.2 9.7-.2 4 1.3 7.6 3.7 11.4 5.5 1.3.3 3 .1 4.4.2h7c2.3-.4 4.6-1.3 7-1.4" class="b"/><path d="M7.8 57.2c2.6-1.7 5-3.6 7.9-4.7 8.2-3 15.6 1.1 22.8 4.5 3.8 1.7 7.4 2.5 11.4 1 13.2-4.7 19.5 3.7 28.1 12 1.4.4 3 .1 4.4.2H114q1.3-.6 2.6-1.4 3-1.4 6.2-1.5c5.8-.4 11.8 1.4 17.5-.4 2.1-.6 4-2 6.1-2.4 3.6-.8 7.3 0 10.6 1.4q3 1.3 6.1 2.8c1.4.6 3 1.4 4.4 1.5q3.6.2 7-.1 4.6-2.7 9.7-3.7" class="b"/><path d="M7.8 55.2c2.6-1.6 5-3.4 7.9-4.5 7.8-2.6 15.2 2.2 22 5.6 2.9 1.5 6.3 2.8 9.6 2.2 2.9-.8 5.8-2 8.8-2.4 7.7-1.4 14 4.2 19.3 9.2 1.6.3 3.5 0 5.2.1H114c9.8-7.3 20.1.2 30.7-5.7 4-1.5 8.4-1 12.3.3 5.6 1.7 11.7 5.5 17.6 3q4.5-2.6 9.6-3.4" class="b"/><path d="M7.8 52.7c2.8-1.3 5.7-3 8.8-3.4 7-1 13.2 3.7 19.3 6.6 3.7 1.9 8.2 3.4 12.3 1.9 11-4.8 15.8-5 25.4 2.9h38.7c5.5-4.4 10.4-6 17.5-5.7 3.5.1 7 .4 10.5-.1q2.7-.6 5.3-1.4a25 25 0 0 1 11.4.5c5.7 1.4 11.8 4.1 17.6 2a23 23 0 0 1 9.6-2.3" class="b"/><path d="M7.8 49c3.1-.9 6.4-1.8 9.7-1.6 7 .9 12.6 6 19.3 8.1 1.3.6 3 .4 4.4.4h5.2c3.3-1.1 6.4-3.2 9.7-4.2 5.2-2 10.5-.5 14.9 2.5q1.3 1 2.6 1.7h6.2q15.4.1 30.7 0a27 27 0 0 1 18.4-8.3c3.5 0 7 .6 10.5.7 3 .2 5.9-.5 8.8-.3 7.2.2 14 3.1 21 3.2 2.8.2 5.4-.7 8-1.4q3.5-.6 7-.2" class="b"/><path d="M7.8 43.8c12.5-.8 13.5 2.5 23.7 7.2 3.4.4 7.1 0 10.5.2q2.2 0 4.4-.2 1.9-.8 3.5-1.8c4.3-2.5 9-5.1 14-4.2 4.7.7 8.4 4 12.4 6.2h31.5c7.3-6.4 15.3-12.3 25.5-9.9l7.9 2q3.5.4 7 1c6.7 1.3 13.3 3.5 20.2 3.8 3 .1 5.9-.5 8.8-.9q3.5-.3 7 .3" class="b"/><path d="M7.8 37.8c3.8.6 7.8 1.2 11.4 2.7 3.9 1.8 7.4 4.6 11.4 5.9H42c8.7-3 15.3-12.2 25.5-7.8 4.6 1.9 8.4 5.4 13.1 7q1.7 1 3.6.8h19.2c1 .2 2-.5 2.7-1q1.7-1.4 3.5-2.7c3.8-2.6 7.8-5.4 12.3-6.8 7.7-2.5 14 2 21 4.5 6.2 1.8 12.2 4.3 18.5 5.6 2.8.7 5.9.3 8.8.4h14" class="b"/><path d="M7.8 32.3a86 86 0 0 1 12.3 3.8c4.7 2.3 9.3 6.1 14.9 5.5h3.5q2.3-.6 4.4-1.7c4.6-2.2 8.6-5.6 13.2-7.8 7.7-3.8 13.5.3 20.2 4 2.1 1.2 4.7 1.6 7 2.6 2.5 1 5.1 2.5 7.9 3q4.3 0 8.7-.2c9.2-3 16.8-12.4 27.3-10.3 4.5 1 8.3 3.6 12.2 6q3.4 1.7 7 3.1l2.7 1.2q1.7.1 3.5.1h31.6" class="b"/><path d="m7.8 26.7 6.1 1.2q2.8.5 5.3 1.6c6.6 3.3 13.2 8.7 21 6.5 8-2 13.8-9 22-10.4 4.9-.8 9.6 1.4 14 3 2 .7 4.2.8 6.2 1.5 6.4 2.2 12.3 5.5 19.3 3.5s12.9-7 20.2-7.3c7.5-.3 13.3 5.4 19.3 9.2q1.2.8 2.6 1.4h40.4" class="b"/><path d="M7.8 21q5.4 0 10.5 1.6c10.4 4.3 16.8 12.2 29 6.7 6.6-3 12.7-8 20.2-8.3 3.2-.3 6.5.1 9.6.3 2.7.1 5.4 0 8 1 4.8 1.4 9.7 3.5 14.9 3.5 4.5 0 8.9-1.4 13.1-2.8 11.1-4.3 16.8-1 25.5 6 1.3 1 2.8 2.4 4.4 3.1h41.2" class="b"/><path d="M7.8 16q5.8-.4 11.4 1c11.1 4.4 18.8 13 31.6 7.1 4.1-1.7 8.1-3.9 12.3-5.5q6-2.4 12.3-3.5c6.7-1.5 9.1-1.3 15.8.6 5.4 1.6 11 2.9 16.6 2.3 3.6-.3 7.1-1.5 10.6-2.2 8.1-2 14.4 2.4 20.2 7.6q1.7 1.5 3.5 3l.9.7.8.2h40.4" class="b"/><path d="M7.8 12.3q6.2-.9 12.3.6c8.8 2.4 16.8 8.7 26.3 7.8C55.1 19.3 63 15.3 71 12c5-2 10.2-4.7 15.8-4.2 6.8.5 13.3 3.2 20.2 3.6 4.1.4 8.2-.7 12.3-1.5 10.6-2.3 17.5 6.3 24.5 12.7h40.4" class="b"/></svg>