<svg xmlns="http://www.w3.org/2000/svg" id="a" width="1920" height="2400" viewBox="0 0 192 240"><defs><style>.b{fill:none;stroke:#fff;stroke-miterlimit:10;stroke-width:.4px}</style></defs><path d="M0 0h192v240H0z" style="stroke-width:0"/><path d="M10 231.7h48.8q1.8.2 3.4-.4l5.2-2a126 126 0 0 0 9.4-3.8c2.2-1 4.5-2.4 6.8-3.3 9.6-4.2 16.3-.8 25.7 1.2 7.3.4 12.9 6 19.6 8.3 7.4 0 14.9.3 22.2-.3 2.6 0 5.2.4 7.7.3H182" class="b"/><path d="M10 227h47.1c6-1.7 12.1-2.4 18-4.3 4.4-1.5 8.3-4.4 12.8-5.7 5.8-2 12-1.2 18-.1 2.4.5 5.1.4 7.6 1 7 2 12.6 7.2 19.7 9.1q24.3 0 48.7 0" class="b"/><path d="M10 222.4h40.3q1-.1 1.7-.5l3.4-1.4q3.8-1 7.7-1c3.7 0 7.4.2 11.1-.4 3.4-.5 6.4-2.4 9.4-3.9q4.5-2.2 9.4-3.2c4.5-.9 9.1-.7 13.7-.6q3-.1 6-.1 3.5.2 6.8 1.8c6.4 2.7 12 7.5 18.8 9.3H182" class="b"/><path d="M10 217.8h35.1c3 0 3 .2 5.2-1.6q2.3-1.7 5.1-2.4c5.3-1.6 10.9 0 16.2.3 6 .3 8-1.7 12.9-3.9q6.1-2.4 12.8-3c4.8-.4 9.8-.4 14.5-1.4 5-1 10.2.5 14.5 3.1q4.9 3.1 9.4 6.5c1.4.8 2.8 1.9 4.3 2.4H182" class="b"/><path d="M10 213.1h37.7c7-7 13-6.9 22.2-5.6 3.2.3 6.5.3 9.4-1 10-6 20.4-1.4 30.8-4.3 6.6-2.4 11.8-3.3 18 .8q4.5 3.2 8.5 7c1.3 1 2.6 2.6 4.3 3.1h35.9c1.6 0 3.5.3 5.1-.3" class="b"/><path d="M10 208.5h33.4q2.6.2 5.2-.2c4.2-4.4 10-7.4 16.2-7.6 3.4-.3 6.9 0 10.3-.5 2.4-.2 4.6-1.4 6.8-2.3 5.7-2 11.5.5 17.1 1.7 9.5 2.1 10.8-.5 18.8-3.5 10-3.4 16.3 7.1 23 12.4h36q2.6.2 5.1-.2" class="b"/><path d="M10 203.9h39.4c9.7-8.8 14.5-8.7 26.5-11 2.4-.3 4.5-1.7 6.8-2.1 6.3-.7 11.6 3.6 17.2 5.7 3.4 1.5 7.6 2.1 11 .4 3.6-1.8 7.1-4.3 11.2-4.7 8.1-.7 13 7.3 18.8 11.7h41" class="b"/><path d="M10 199.2h42c2.8-2 5.5-4.4 8.5-6.3q5.6-3.6 12-5.7l6-1.6q2.5-1 5.1-.8c6.4.8 11.3 5.4 17.1 7.8 10.5 4.9 14.2-4 24-3.6 6.8.4 11.6 6 17 9.6q1.2.8 2.6.6H182" class="b"/><path d="M10 194.6h44.5c1.7-.6 3-2.3 4.3-3.3q4-3.6 8.6-6.7c4.2-2.8 9.3-5 14.5-4.5 3.6.5 7 2.2 10.2 3.8 5.8 3 12.2 6.6 18.9 5.1 3-.7 6.2-1.8 9.4-2.3q6.6-1 12.8 1.6c3.2 1.3 6.2 3.1 9.4 4.6 1.6.6 3.3 1.9 5.1 1.7H182" class="b"/><path d="M10 190H52c5.8 0 4.4.3 8.6-3.4 4.8-4.2 9.7-9.3 16.3-10 2.6-.3 5.2.8 7.6 1.7 7.8 3 15.6 6.4 24 6.6q6 0 12-.1 8.2 0 16.2 1.6l10.3 2.6c1.3.2 2.8 1 4.2 1H182" class="b"/><path d="M10 185.3h47.1c6.3-4.4 13.8-13.6 22.2-10.5C84 177 88.8 179 94 180c5.3 1 10.8.9 16.2 1.5 4.9.8 9.6 2.3 14.5 2.8 4.6.6 9.2.3 13.7.2l5.1.2h6c2.6-.2 5.2.3 7.7.6H182" class="b"/><path d="M10 180.6h31.7c4.8 0 9.7.3 14.5-.1q4.4-2.6 8.6-5.3c4.2-2.7 9.8-4.8 14.5-2.1q8.6 5.7 18.8 5.5c3.7 0 7.5-.2 11.2.4 2 .3 4 1.4 6 1.6h34.9q2.3-.5 4.4-.8 3-.5 6 .1c1 .2 2.3.7 3.4.7h17.9" class="b"/><path d="M10 176h42.8q2.3-.7 4.3-1.6c3.4-1.6 6.7-3.6 10.3-5 6.4-2.2 9.8-1.1 15.3 2.4A41 41 0 0 0 105 176h47c1 0 2.4.1 3.4-.2q3-1 6-1 3.5 0 6.8 1.2H182" class="b"/><path d="M10 171.4h31.7c1.8 0 3.4-1.3 5.1-1.5 1.7-.4 3.5-.3 5.2-.6 4.7-.9 9-3 13.7-4.3 4-1.2 8.7-1.6 12.8 0q3 1.4 6 2.8 6.1 2.6 12.8 3.5h62.4c1.4 0 2.9-.6 4.3-.7a24 24 0 0 1 8.5.7h9.4" class="b"/><path d="M10 166.7h30c4-3 7-3.9 12-4.2q5.2-.9 10.2-2c15.1-3.3 15.6.2 29.1 3.3l12.8 3H164c2.5 0 5.1-.5 7.7-.5q2.5 0 5 .4h5.2" class="b"/><path d="M10 162h26.6c1.3.3 2.4-.7 3.4-1.4q2-1.3 4.3-2.4c4-1.8 8.5-1.8 12.8-2.4 6-.7 12-1.6 18-1.4 3.7 0 7.4 1.2 11 1.7q7 .9 13.7 2.5 7.3 1.9 14.6 3.5h67.5" class="b"/><path d="M10 157.4h25.7c11.2-7.6 18.1-6.4 30.8-7.5 5.4-.5 10.8-.9 16.2-.3 4.3.1 8.6 0 12.9.7 4 .6 8 1.8 12 2.7q4.3.7 8.5 2c2.3.7 4.5 2 6.8 2.4h59" class="b"/><path d="M10 152.8h19.8c1.3-.1 3 .3 4.2-.3q3.7-2.4 7.7-4a45 45 0 0 1 17.1-3.3q8.5-.3 17.1-1 3.8-.1 7.7-.2c5.7-.4 11.5-.5 17.1.7q3.8.7 7.7 1.6 3 .4 6 1 6 1.5 12 2.6c4.2.7 8.5.7 12.8 1.2q3 .6 6 1.7h36.7" class="b"/><path d="M10 148.2h19.7c1.2 0 2.6.1 3.5-.7q6.4-4.1 13.6-6.5c7-2.5 14.3-1.4 21.4-1.6l14.5-.8q5.5-.8 11.2-1c4.6 0 9.1 1.2 13.6 2.2q3.4.6 6.9 1 4.6 1 9.4 1.7c9.2 1.2 16-.8 24 5.6q17 .1 34.1 0" class="b"/><path d="M10 143.5h21.5c.9 0 1.8-.8 2.5-1.3l3.4-2q5.4-3.2 11.2-5.7c7-3.3 14.8-1 22.2-1q5.2.3 10.2-.7c3.5-.7 6.8-2 10.3-2.5a33 33 0 0 1 15.4 2q3.9.9 7.7 1.5c4.5 1 9 2.3 13.7 2.8 8.4.9 12.9.8 19.6 6.9H182" class="b"/><path d="M10 138.9h22.3c4.5-2.4 8.6-5.5 12.8-8.2 2.5-1.6 5-3.5 7.7-4.3 6.5-1.8 13.2.8 19.7.9 5.4.3 9.7-1.6 14.5-3.9 8.5-3.8 13.4-1.4 21.4 1.8 1.9.7 4 .8 6 1.5l8.5 3c4.5 1.5 9.2 2.2 13.7 3.3q3.7 1 6.8 3.4c1.1.7 2.3 1.9 3.5 2.5h35" class="b"/><path d="M10 134.2h23.2c4.6-2.6 8.7-6 12.8-9.4 5-4.5 8.4-6.6 15.4-5.8 4 .5 8 1.6 12 1.5 8.1.3 13.4-7.5 21.3-7.7 4.8 0 8.8 2.8 12.8 4.8 2.1 1.2 4.7 1.5 6.9 2.4q4.3 2 8.5 4c4.7 2.3 9.8 3.5 14.6 5.3 2.8 1 5.4 3 7.7 5h36.7" class="b"/><path d="M10 129.6h23.2c2.2-.7 4-2.4 6-3.7q4.8-4 9.4-8.5c3.9-4.2 9-5.4 14.5-4.6 5 .7 10.5 2 15.4 0 5.4-2.4 9.8-8 16.2-7.6 5 .3 8.8 3.9 12.8 6.4 1.8 1.2 4 1.6 6 2.4 2.7 1 5.2 2.7 7.7 4 5 3 10.8 4.8 16.2 7q2.8 1.1 5.2 3l1.7 1.4 1.7.2h35.9" class="b"/><path d="M10 125h22.3c1.2.1 2.4-.7 3.4-1.3a53 53 0 0 0 10.3-8.1c2.2-2 4.2-4.5 6.8-6 7.7-4.5 16.8.9 24.8-2.1 5.4-2 9.4-7.2 15.4-7.5 6.6-.2 10.9 5.7 16.3 8.5 1.6.8 3.5 1 5 1.9 3.8 1.6 7.4 3.7 11.2 5.1 9.2 3.4 12.7 2.1 20.5 9.5h36" class="b"/><path d="M10 120.3h25.7l1.7-1q5.2-3.2 9.4-7.4c2.1-2 4.3-4.3 6.9-5.6 5.5-3 12-1.7 18-2q4.5 0 8.5-2c4.9-2.8 10.4-6.7 16.2-4.6 4.4 1.4 7.9 4.8 12 6.9 1.8 1 4 1 6 1.7 3.4 1.1 6.8 2.7 10.2 3.8 10.5 3.2 14.5 1.6 23.1 10.2H182" class="b"/><path d="M10 115.7h28.3c1.9-.7 3.5-2.2 5.1-3.4 3.2-2.4 6-5.6 9.4-7.8 5.4-3.4 11.9-3.2 18-3.4a28 28 0 0 0 8.5-1.5c4.6-2 9.4-4.5 14.6-3.9 4.9.5 9 3.5 13.6 5q2.5.7 5.2.6 2.2.2 4.2.8c5.2 1.5 10.2 3.5 15.4 4.8a35 35 0 0 1 17.1 8.7H182" class="b"/><path d="M10 111h30c2.5-1.2 4.7-3.2 6.9-5a27 27 0 0 1 21.3-7.8c4 0 8.1 0 12-1.1 11-3.7 15-1.7 25.6 0a19 19 0 0 0 6.9-.5c4.4-.5 8.7 1.4 12.8 3 5.9 2.5 12 4.4 18 6.7q2.6 1.1 5 2.7c1.1.6 2.3 1.7 3.5 2h30" class="b"/><path d="M10 106.4h26.6c1.4 0 3 .2 4.3-.7 5.2-3.1 9.4-8 15.4-9.9 6.3-2.2 13-.4 19.6-.2 2.6.1 5.2-.6 7.7-.9q4.7-.4 9.4 0c4.8.2 9.8.6 14.5-.6 1.8-.4 3.5-1.4 5.2-2 4-1.2 8.3.4 12 2.1 4.4 2.2 8.8 4.7 13.6 6.2 2.8 1 5.8 1.2 8.6 2q5 1.3 9.4 4 12.7 0 25.6 0" class="b"/><path d="M10 101.7h25.7c3.1-.7 6-2.6 8.6-4.3 4-2.7 7.9-6.1 12.8-6.8 6.4-1.2 12.6 1.6 18.8 2.6 2.5.5 5.2 0 7.7 0q4.7.2 9.4.5c15.8.8 16.5-6 24-6 8.3.5 14.8 7.3 23 8.3q4 .1 7.7-.2 4.4 0 8.6 1.1c3.5 1 6.9 2.8 10.2 4.3 1.8 1 4 .4 6 .5h9.4" class="b"/><path d="M10 97.1q2.3.1 4.4-.1 2.5-1 5-1c4-.2 8 .5 12 0q6-.6 11.2-3.6c7.4-4.3 11-8.7 20.5-6.5 5 1.1 9.5 3.7 14.5 4.5 1.7.3 3.5.1 5.2.3 6.5.4 13.1 2.3 19.6.7q5.2-1.3 9.4-4.4c5.6-3.4 12.2-1.3 18 .4 3.8 1.1 8 2.1 12 1.5 11.4-2.6 14.2-3 25.6 1.1q3.3 1.2 6.8 1.3c2.8.5 5.4 2 7.7 3.5" class="b"/><path d="M10 91.8c3.7-1 7.4-2.4 11.2-1.9 5.6.8 11.5 2.2 17.1.2 5.3-1.6 9.6-5.4 14.5-7.7 10.2-4.5 17.2 1.8 26.5 4 11 1.5 18.8 7 30 .9 8-5.5 14.7-5.3 23.9-5.8a45 45 0 0 0 11.1-2c9-2.9 14.1-2.5 23 .3q3.4 1 7 1.2c2.8.7 5.3 2.6 7.6 4.4" class="b"/><path d="M10 86.4c2.9-.6 5.8-1.4 8.6-1.3 4.4.3 8.5 2.4 12.9 2.7h4.2Q40 87 43.4 85c7.2-4 14.2-10.4 23.1-8 3.6 1 7 2.8 10.3 4.4 2.7 1.3 5.8 2.1 8.5 3.5 2.5 1 5 2.3 7.7 3h7.7q2.6 0 5.1-.2 3-1.1 6-3 5.8-3.2 12-5.9a171 171 0 0 1 17-6c6.1-2 12.5-3.6 18.9-2.4 3.7.7 7.4 2 11 2.5l3.5.4c3 .8 5.4 2.8 7.7 4.7" class="b"/><path d="M10 82c5.3-1 8.8-1.6 13.8.6 1.8 1 4 .5 6 .6H40q1.3 0 2.6-.3l4.2-2.6C54.1 75.6 61 69.5 70 74c2.7 1.3 5.2 3.2 7.7 4.8Q81 81 84.5 83c2.2.4 4.6 0 6.8.2h22.2c5.3-3 10.2-6.8 15.4-10 12-7.5 22-10 35.9-6.1q4.6 1.2 9.4 1.6c2.9.6 5.4 2.4 7.7 4.2" class="b"/><path d="M10 78a20 20 0 0 1 9.5-.6c1.4.3 2.8 1.3 4.3 1.1h14.5q3 .2 6 0 3.3-2.5 6.8-4.8c12.4-9.3 17.4-4.4 27.4 4.7 1.9.3 4 0 6 .1h35c13.3-10.4 22-18.8 40.2-14.7q5.1 1.2 10.2 2.1 2.2.3 4.3.5c2.7.5 5.3 1.9 7.7 3.3" class="b"/><path d="M10 73.1c3-1 6.4-1.8 9.5-.8 1.4.3 2.9 1.2 4.3 1.6h18.8c1.9-.6 3.4-2.3 5.1-3.3 3.5-2.3 7-5.1 11.1-6C63 63.8 67 66.1 70 69c1.8 1.5 3.2 3.7 5.1 5h48.8c.9-.3 1.8-1.2 2.5-1.7l4.3-3.1c11.1-8 19.5-8.4 32.5-5.8q5.5 1 11.1 1.4 4 .8 7.7 2.5" class="b"/><path d="M10 67.6c3.3-1.4 7-2.5 10.4-1.2 2.8.8 5.6 2.2 8.5 2.8h6.8c4.5-1.2 8.3-4.3 12-6.8 11-8 16.8-2.6 24 6.6 1.8.5 4 .1 6 .2h51.2l4.3-2c10.6-5 20-6.1 31.6-4.9l10.3 1q3.5.8 6.8 1.9" class="b"/><path d="M10 63.6c3-1.5 6.2-2.9 9.5-2.4 5.1.7 10.5 1.3 15.4-.8 5.2-2 9.5-6 14.5-8.5 9.3-4.5 16 6.2 20.5 12.7h74.4q2.2-.2 4.3-.8c11.9-2.4 21.5-2.3 33.3.7" class="b"/><path d="M10 60c1 0 1.9-.6 2.7-1q2-1 4.2-1.6c4-.5 8.2-1 12-2.6C33.7 53 38 50 42.6 47.4c4.7-2.8 9.3-5.4 14.5-1.8 3.4 2.3 6.1 5.7 8.6 9l2.5 3.6c.3.5 1.1 1.6 1.7 1.8h112" class="b"/><path d="M10 55.3h3.5c1.1-.2 2.3-1 3.4-1.3q4.6-1.3 8.6-3.5C33.4 46.6 42 39.2 51 39c8.2 1 14.4 10.8 19.7 16.4h111.1" class="b"/><path d="M10 50.7c2-.1 4.1.2 6-.2q2.7-1.3 5.2-2.5 4.8-2.9 9.4-6a34 34 0 0 1 19.7-5.8q4.6.5 8.5 2.8c4.5 2.3 8.6 5.3 12.8 8l4.3 2.8c.7.4 1.7 1 2.6.9h39.3c1.2-.3 2.3-1.2 3.4-1.7q2.5-1.1 5.1-1.1c3 0 6 1.4 8.6 2.8h47" class="b"/><path d="M10 46h5.2q2.1-1 4.3-2.4c4.2-2.5 8.3-5.4 12.8-7.4s9.6-2.7 14.5-2.4c7.2.1 14.3 1.3 21.4 2.4 4.7 1 9.5 1.8 13.7 4.1q3.7 2.5 6.8 5.7 13.7 0 27.4 0c8.4-7 13.2-6.5 22.2-.8.4.3 1.3.7 1.7.8H182" class="b"/><path d="M10 41.4h4.4c1 0 2.5.2 3.4-.7 5-3 9.8-6.4 15.4-8.2q5-1.5 10.2-1.2c3.7.1 7.5.8 11.1.3 9-.8 18.8-6.9 27.4-2 3.5 2.4 6.3 5.7 9.4 8.6l2.6 2.3c.3.4 1.1 1 1.7.9h18.8c4.2-3 9-6.4 14.5-5.6 4.7.7 8.5 3.9 12.8 5.6H158c3.2-.4 6.3-1.2 9.5-1.2q3.4 0 6.8 1.2h7.7" class="b"/><path d="M10 36.8h9.5q1.4 0 2.6-1l2.5-1.6q4-2.6 8.6-4.5 5.3-2 11-1.7c2.3 0 4.6.5 7 .6 9.2-.3 16.2-8.9 25.5-9 5.5.3 9.2 5 12.9 8.4 4 3.7 8.8 8.7 14.5 8.8 2.3 0 4.7.1 6.8-.8 7.2-2.7 12.6-6.3 20.6-3.4 2.9 1 5.7 2.7 8.5 4 1.3.4 3 0 4.3.2h7.7l6.8-.1 6.9-1.7q5.1-1 10.2.1c2 .4 4 1.4 6 1.7" class="b"/><path d="M10 32.1h13q1.3.1 2.5-.8l2.5-1.9q3-2.1 6-3.8c3.1-1.7 6.7-3 10.3-3.1 2.2-.2 4.6.4 6.8.5 7.4-.1 13-5.8 19.7-8.4 5.9-2.5 9.8-.9 14.5 3 4.3 3.5 8.5 7.6 13.7 9.7 9.9 4 18-3 29 .6 3.5 1 6.9 2.8 10.3 4q2.6.4 5.1.2h9.4q4 .2 7.7-.1c7.5-2.3 13.6-5 21.4-1.9" class="b"/><path d="M10 27.5h14.6c1.5.2 2.5-1.2 3.4-2l3.5-3.1c3.9-3.5 8.3-7 13.6-7.8 2-.3 4 .4 6 .6 3.3.3 6.5-.8 9.4-2 4.7-2 9.4-4.8 14.6-4.9 3.9 0 7.1 2.4 10.2 4.5 3.5 2.4 7 5 11.1 6.4 5 1.9 10.3 1.2 15.4 1.1q7 0 13.7 2.5c4 1.4 7.9 3.3 12 4.5q1.6.3 3.4.2h18.8c2.3 0 4.6-1.2 6.8-1.9 5-1.9 10-3.9 15.4-2.2" class="b"/></svg>