<svg xmlns="http://www.w3.org/2000/svg" id="a" width="1920" height="2400" viewBox="0 0 192 240"><defs><style>.b{fill:none;stroke:#fff;stroke-miterlimit:10;stroke-width:.4px}</style></defs><path d="M0 0h192v240H0z" style="stroke-width:0"/><path d="M7.9 214.6c4.1 1.2 8.4 2.3 12.3 4.4 9.1 5.2 15.5 9.4 26.3 5 5.2-2.3 11-3.6 16.6-2.2 4.8 1 9.2 3.5 14 4.1 3.3.2 6.5-.6 9.7-1.2a100 100 0 0 0 17.5-5.6c10-4.2 17-7.6 28-3.5a41 41 0 0 1 8 4q2.5 2 5.2 3.6 3.9 1.9 8 2.8 2 .7 4.3 1.3h26.3" class="b"/><path d="M7.9 213.3c6.4 0 11.2 1.8 16.6 5.2q2.6 1.5 5.3 2.8c1.3.7 2.8 1.4 4.4 1.2h14c3.7-1.1 7.5-2.4 11.4-2.7 5.3-.6 10.5.7 15.8 1 6.9.1 14.8-3.3 21-6.2q5.7-3 11.4-5.8c3.3-1.6 6.8-3.1 10.6-3 7.3.4 13.5 4.9 19.2 9 3.2 2.3 6.1 5.1 9.7 6.6q1.2.7 2.6 1 1.7.2 3.5.1h30.7" class="b"/><path d="M7.9 213.4a22 22 0 0 1 15.8 2l3.5 1.5c.8.4 1.7 1 2.6.9h35.9q3.1-.7 6.2-1.1 7.2-.9 14-3.4c6.3-2.5 12-6.4 17.5-10 3.8-2.3 7.7-5.2 12.3-5.4 10.2.1 19.8 12.3 28 17.7 1.4.8 3 1.8 4.5 2.2H184" class="b"/><path d="M7.9 213h2.6q2.2-.6 4.4-.8c3-.2 5.9.7 8.8.8h49.9q2.3-.7 4.4-1.3 3.1-.8 6.2-1.9a51 51 0 0 0 11.4-6.2l10.5-7.8c3-2 6.6-4.3 10.5-3.9 10 1.3 19 13.4 28 18.3q3 1.5 6.2 2.8h33.3" class="b"/><path d="M7.9 208.2h72.8c5.8-1 11-4.4 15.7-7.9l9.7-7.7c3.2-2.5 7.1-4.7 11.4-4.3 5.8.7 10.9 4.2 15.8 7.2q7 4.8 14.9 8.5c3.4 1.6 6.8 3.3 10.5 4.2h7.9q4.4.1 8.7 0 4.3-1.6 8.8-2" class="b"/><path d="M7.9 203.5h79.8q1.3 0 2.6-.2l2.6-1.6c5.3-3.4 9.8-8 15-11.6 3.4-2.6 7.8-4 12.2-3.7 5.4.1 10.7 1.9 15.8 3.7q7.7 2.4 14.9 6.2c6.6 3.5 14.3 7 22 4.5 3.6-1.3 7.3-3 11.3-3.4" class="b"/><path d="M7.9 198.7h87.7c1.5-.8 3-2.2 4.3-3.2 3.4-2.8 6.7-5.9 10.6-8a49 49 0 0 1 36-1.6c7.8 3.2 15.5 9 24.5 7.8 4.4-.7 8.6-3 13.1-3.2" class="b"/><path d="m7.9 194 91.2-.1c9.2-7.3 10.7-8 21.9-11.5 6.8-2 13.8-4.3 21-4 9.6.7 17.5 7.8 27.2 8.4 5 .4 9.9-1.8 15-1.6" class="b"/><path d="M7.9 189.2h82.4c14.8-.1 6.4 1.2 18.4-4.7 3.7-1.5 7.7-2.2 11.4-3.7 4.8-1.7 9.4-4 14-5.8 3-1.2 6.4-2.3 9.7-2.3 9.3.4 17.2 6.4 26.3 7.7 4.6.8 9.4-.3 14 .5" class="b"/><path d="M7.9 184.4h90.3c1.1 0 2.5.3 3.5-.3q3-1.6 6.1-2.6c2.6-.8 5.4-1 8-1.7q5-1.3 9.6-3.7c10.8-5.6 15.8-12.2 28.9-7.5 5.6 1.9 11 4.8 16.7 6.3 4.3 1 8.9.8 13.1 2.1" class="b"/><path d="M7.9 179.7h93q3.3-1.5 7-2.1c2.2-.4 4.7-.4 7-.8q6.1-1 11.3-4.5c3.4-2 6.5-4.6 9.7-6.9 3-2.2 6.6-4.2 10.5-4.3 8-.2 14.9 4.4 22 7.5 4.9 2.4 10.6 2.7 15.7 4.6" class="b"/><path d="M7.9 175h92.9c1.8 0 3.5-.9 5.3-1q3.5-.3 7-.3c6.8-.3 12.6-4.3 17.5-8.6 4-3.2 7.5-7.2 12.3-9 9.6-3 18.2 4 26.3 8.1 4.6 2.6 10 3.1 15 4.8" class="b"/><path d="M7.9 170.2h79.8l27.2-.1c7.1-1.4 12.4-7 17.5-11.7 3.2-3 6.3-6.5 10.5-8 11.2-3.2 20.2 7.6 29.8 11.5 3.6 1.4 7.6 1.7 11.4 2.5" class="b"/><path d="M7.9 164.6c1.2 1 2.9.8 4.4.8h99.9q1.8.1 3.5-.2c10.5-3.6 19-19.3 28-20.8 9.4-1 17.7 7.7 25.5 11.8a25 25 0 0 0 7 2.7q4 .5 8 .6" class="b"/><path d="M7.9 160.5c3.4.3 7 0 10.5.1h93a8 8 0 0 0 4.3-.9c9.3-4.3 17.4-18.3 27.2-19.4 5.9-.2 11 3.4 15.8 6.3 5.5 3.5 11 7.2 17.5 8.5 2.6.4 5.3 0 8-.1" class="b"/><path d="M7.9 155.9h93.8c3.8-.2 7.7.4 11.4-.6a28 28 0 0 0 8.8-5.5c4.7-3.8 9.1-8.3 14.9-10.5 7.8-3.1 15.2 2.8 21.9 6.1a65 65 0 0 0 16.7 6.2c2.9.5 5.9-.1 8.7-.7" class="b"/><path d="M7.9 151.1h96.4q2.7.2 5.3-.4 2.2-.3 4.4-1c8-3.4 14.3-11.5 23.6-11.7 7.4-.2 13.5 4.7 20.2 7 4.2 1.6 8.7 2.3 13.2 2.9l5.2.8c2.7.1 5.4-.7 8-1.4" class="b"/><path d="M7.9 146.4h96.4q2.3-.3 4.4-.8 2.2-.2 4.4-.5c3.7-1 7-3.1 10.5-4.8a21 21 0 0 1 17.5-1.6c9.6 3.5 14.5 7.3 25.5 6.7q4.8-.3 9.6.2c2.8 0 5.4-1.2 8-2.2" class="b"/><path d="M7.9 141.6h83.3q7.5-.7 14.9-1 3.5 0 7-.2c4.5-.8 8.7-3 13.1-4.1 5.6-1.6 11.5-.4 16.7 1.8l7.9 3.3c1.6.5 3.5.1 5.2.2h24.6q1.8-.6 3.5-1.6" class="b"/><path d="M7.9 136.8h19.3c1.7 0 3.5-.7 5.2-.8q4.5-.5 8.8.8h15q4.3.2 8.7-.1c4.6-1.9 9-4.5 14-5.1 5.3-.5 10.6.8 15.8 1.9a71 71 0 0 0 17.5 2c5.4-.4 10.4-3 15.8-3.3 5.1-.5 10.1 1 15 2.7l3.4 1.3q1.3.6 2.7.6h35" class="b"/><path d="M7.9 132h16.6c2.1-.7 4-2.2 6.2-2.8q5.3-1.6 10.5 0c2.4.8 4.7 2.1 7 2.9h5.3l7.9-.1 4.3-2.3c10-6.2 12.8-9.4 24.6-4.5 7.2 3 14.8 6.3 22.8 5.2 3-.4 5.8-1.3 8.8-1.8q6.6-1.3 13.1.2 5.8 1.4 11.4 3.2 2.6.1 5.3 0H184" class="b"/><path d="M7.9 127.3c5-.1 10 .2 14.9-.1 6.6-6.2 13.2-10.2 22-5.3 3.3 1.8 6.5 4.3 10.4 4.7 11 1.5 18-11 27.2-9.2 4 .8 7.7 2.8 11.4 4.4a32 32 0 0 0 22.8 2.7q7.5-1.7 15-.2c3.7.8 7.5 2.2 11.3 2.9 3.8.3 7.7 0 11.4.1h29.8" class="b"/><path d="M7.9 122.5h12.3c2-1.3 3.5-3.5 5.2-5 3.6-3.5 7.9-7.3 13.2-7 5.1.2 9 4.1 13.1 6.7 6.2 4 12 3.6 18.4.5 2.9-1.2 5.7-2.8 8.8-3.3 3.6-.3 7.2 1.2 10.5 2.5 9.7 4.1 15 4.8 25.4 2.8q6.2-1 12.3.2c3 .6 5.9 1.8 8.8 2.6h48.2" class="b"/><path d="M7.9 117.8h9.6C25 112 31.7 98.3 43 103c5 2.3 9 6.8 14 9.4 5 2.8 10.4 2.7 15.8 1.1 2.8-.7 5.8-1.5 8.7-1 4 .5 7.6 2 11.4 3q6.5 2 13.2 1c4-.4 8.1-1.5 12.3-1.3q5.4.2 10.5 2.5H184" class="b"/><path d="M7.9 113H13c2-.9 3.7-2.5 5.3-3.8 7.8-7 15.6-17.7 27.2-11.1 8.4 4.6 15 12.5 25.4 12.1 4.4 0 8.8-1 13.2-.2 5.5.7 11 1.7 16.6 1.2 5.3-.1 10.5-2.1 15.8-1.3a25 25 0 0 1 7.9 3q9.6.1 19.3.1H184" class="b"/><path d="M7.9 108.3q1.4.1 2.6-.4L22 99.4a28 28 0 0 1 15.8-7c7 0 13.5 3.3 19.3 7 7 4.6 13.5 7 21.9 6q11.4-.7 22.8-1.7c10.7-1 12.8-2.5 22 4.6H184" class="b"/><path d="M7.9 103.5c1.3-.1 2.4-1.4 3.5-2.1l5.3-3.8A37 37 0 0 1 43 90.9c2.6.2 5.3.1 7.9.7 4.9 1.3 9.3 4 14 5.9C75.3 102 80 99 90.3 97.1a67 67 0 0 1 16.7-1l5.2.4c3.4.6 6.3 2.9 8.8 5 2.2 2.3 2.2 2 5.3 2h57.9" class="b"/><path d="M7.9 98.7c1.3.2 2.4-1 3.5-1.6l5.3-3.5c6.1-4.3 13.9-3.4 21-3.5q5.8 0 11.4-1.5c5.7-1 11.3 1.4 16.6 3 4.5 1.4 9.5 2.3 14 .8 10-3.8 15.9-5 26.4-2q3.5.8 7 1.5c3.8 1.4 6.5 4.6 9.6 6.8h61.4" class="b"/><path d="M7.9 94h3.5c3-1.2 5.5-3.8 8.8-4.6 4.8-1.4 10-.2 14.9-.2q4.9 0 9.6-1.4c2.4-.8 4.6-2.1 7-2.6 8.8-2.2 17.6 3.3 26.3 1 10.2-4.1 14.8-5.8 25.4-1q3 1.6 6.2 2.6 1.7.5 3.5 1c2.9 1.2 5.4 3.3 7.9 5.2H184" class="b"/><path d="M7.9 89.2h7.9c.8 0 1.8-.7 2.6-1q1.7-.7 3.5-1c4.4-.5 8.8.2 13.2 0a29 29 0 0 0 9.6-2.3c2-.8 4-2.1 6.1-2.8 6.6-2.5 13.5-.5 20.2 0q3.6.3 7-.6l4.4-1.7c6-2.4 12-1.7 17.5 1.3 3.3 1.6 6.3 3.7 9.7 5l4.4 1.6c1 .4 2.3 1.3 3.5 1.5H184" class="b"/><path d="M7.9 84.5h33.3c3-1 5.9-3 8.8-4.4q5-2.4 10.5-2.6c5.2-.2 10.5 1.2 15.8.7 2-.1 4.1-1 6.1-1.4q5.3-1.4 10.5.2c4.8 1.5 9 4.5 13.2 7 1 .7 2.4.4 3.5.5H184" class="b"/><path d="M7.9 79.7h38.6c4.7-2.5 9.5-5.4 14.9-6.2 5-.8 10 .4 14.9.7 2.3.2 4.7-.4 7-.4q4-.1 7.9 1 3.6 1.3 7 3.2c1.1.5 2.3 1.6 3.5 1.7h43.8a30 30 0 0 1 13.2-1.7q4 .6 7.9 1.6 3 .1 6.1.1 3.6.2 7-.1l4.4-1.9" class="b"/><path d="M7.9 75h40.3c1 .1 1.9-.6 2.6-1l2.7-1.7q4.5-3 9.6-4.3c4.7-1 9.5.3 14 1.3q3.1.4 6.2.7 4.6.6 8.8 2.3 3 1.2 6 2.6h45.7c1.2.2 2.4-.4 3.5-.8q2.6-1 5.3-1.6 4.7-1 9.6-.6c3.5.3 7 1 10.5 1.1 3.9 0 7.7-.9 11.4-1.8" class="b"/><path d="M7.9 70.2h40.3q1 0 1.8-.7l3.5-2.5c2.7-2 5.5-4 8.7-5.2 5-2 10.2-.4 15 1.4q3.9 1.2 7.8 2.2 4.6 1.4 8.8 3c1.7.4 3.5 1.6 5.3 1.8H149c3.2-1.2 6.4-2.4 9.7-2.8 4.3-.8 8.8-.4 13.1-.4l12.3-1" class="b"/><path d="M7.9 65.4h37.7c5.5-2.4 9.6-7.3 14.9-10 7.6-4.2 13-.4 20.2 2.3 7 2.6 14.1 4.8 21 7.5 3.2.4 6.5 0 9.6.2h42.1c1.5 0 3-1 4.4-1.3q3-.9 6.2-1.3 4.7-.4 9.6-.7c3.5-.5 7-.4 10.5-.7" class="b"/><path d="M7.9 60.7h36q1.7-1.4 3.4-2.6 2.9-1.4 5.3-3.4c5-3.8 10.8-8.6 17.5-7.3 5 1 9.3 3.7 14 5.2 7.1 2.6 14.3 4.8 21.1 8q8.7.2 17.6 0h32.4a44 44 0 0 1 8.8-3c6.6-1.4 13.4-1.5 20.1-2" class="b"/><path d="M7.9 55.9h32.5c1.6-.1 3.7.4 5.2-.6 2-1.1 4.3-1.8 6.1-3C56 49.4 60 46 65 44.2c5.6-2 11.3.4 16.6 2.4 4.6 1.5 9.4 2.6 14 4.2q4 1.3 8 3c1.7.7 3.3 2.2 5.2 2H149c1.8 0 3.8.4 5.3-1 10.9-7.2 17.6-6.5 29.8-7.3" class="b"/><path d="M7.9 51.1h37.7c2-.1 4.3.5 6.1-.5 6.3-3 12-8.1 19.3-8.6 4.2-.4 8.2 1.3 12.3 2.2 4.6 1 9.4 1.4 14 2.7A42 42 0 0 1 107 51c4.6.3 9.3 0 14 .1h27.2q1.4.1 2.6-.2l2.6-2 5.3-3.8c10.5-6.8 14.2-4.7 25.4-5.9" class="b"/><path d="M7.9 46.4h50.8q1.9-.6 3.6-1.5a27 27 0 0 1 14.9-3c2.6.5 5.2 1.4 7.9 1.3 4.3.1 8.8-.2 13.1.7a28 28 0 0 1 7 2.5H142c2.3-.1 4.8.2 7-.2l4.4-3.5c4.6-3.7 9.3-7.5 15-9.3 2.7-1 5.8-.8 8.7-.7q3.5-.2 7-.9" class="b"/><path d="M7.9 41.6H91q2.7-.3 5.3-.4c1.8-.1 3.6.4 5.3.4H149c7.4-5.2 14.2-13 23.7-13.5q2.2.2 4.4.2c2.4 0 4.8-.8 7-1.5" class="b"/><path d="M7.9 36.9h144.6c6.2-4.1 12.4-9.5 20.2-9.4l3.5.2c2.8 0 5.5-1.1 8-2.3" class="b"/><path d="M7.9 32h150.8c1.5.2 3-.7 4.4-1.1q2.5-1 5.2-1.4c7.7-1.2 7.9 1.4 15.8-3.5" class="b"/><path d="M7.9 27.3h90.3c1.7-.1 3.5-.8 5.2-.7q2.3 0 4.4.7h71.9c1.5 0 3.2.2 4.4-.9M7.9 22.6h16.6c1.2 0 2.4-.6 3.5-.9a21 21 0 0 1 12.3.5q2.2.6 4.4.4h50.9q2.2-.6 4.3-1.4 4.5-1.3 8.8-.2 1.8.7 3.5 1.6h71.9M7.9 17.8H13l4.4-2c9.4-4.3 14.7-4 23.7.9q1.3.8 2.6 1.1h16.7q2.2-.6 4.4-1 4.7-1 9.6-.3c1.8.3 3.5 1 5.3 1.3h9.6q1.8.1 3.5-.2c7.5-2.2 14-4.8 21 .2h70.2" class="b"/></svg>