<svg xmlns="http://www.w3.org/2000/svg" id="a" width="1920" height="2400" viewBox="0 0 192 240"><defs><style>.b{fill:none;stroke:#fff;stroke-miterlimit:10;stroke-width:.4px}</style></defs><path d="M0 0h192v240H0z" style="stroke-width:0"/><path d="M8.8 230.3h57.3c2.3 0 4.6-1 7-1.4q6.3-1.6 13-2.2 8.2-.4 16.4-.6c4 0 8.2-.6 12.2.3 4.4 1 8.5 3 13 3.9H138c2.6-.4 5.2-1.4 7.8-1.6 6-.5 12.1 1.3 18.2.7a22 22 0 0 0 7.8-2.2c3.5-2 7-4.5 11.3-4.2" class="b"/><path d="M8.8 225.6h7l3.4-1.4c4.4-1.6 9.3-2 13.9-1.3q4 .7 7.8 1.8 3 1 6 1 6.7 0 13-.2c6.2-.7 12.3-2 18.3-3 10.6-2 21.4-1.4 32.1-1.1 5-.1 9.3 2.9 13.9 4.3h17.3c1.5 0 3-.9 4.4-1q3.8-.8 7.8-.7c21 .8 18.8-7 29.5-7" class="b"/><path d="M8.8 220.6c10.2-5.6 15.8-10.2 27.8-5.2 7.7 3.3 9.5 4.6 18.2 4.6 7.4.2 14.6-1.7 21.7-3.5 7-1.5 14.4-2.9 21.7-2.5q7.4.4 14.7 1.8c3.4 1 6.4 3 9.6 4.6.6.5 1.8.6 2.6.5h15.6c1.2.2 2.4-.7 3.5-1q2.5-1 5.2-1.4c5.4-.7 11-.2 16.5-1.3a26 26 0 0 0 6.9-2.5c3.2-2 6.6-4 10.4-3.8" class="b"/><path d="M8.8 214.2c8.7-4.8 15.4-11.8 26-7 9.9 4.7 9.7 6.9 21.7 7.4 7 .3 13.5-2.4 20-4.7q3.8-1.2 7.8-2.2c5-1.5 10.3-2.7 15.6-2q4.4.7 8.7 2 2.7.6 5.2 1.5c4.2 2 7.8 5.4 12.2 7h6.9c1.4 0 3 .2 4.3-.2 2.7-1 5.2-2.8 7.8-4 7-2.7 14.6-.8 21.7-2q3.1-.5 6.1-1.9c3.3-1.8 6.6-3.8 10.4-4" class="b"/><path d="M8.8 210c9.6-5.3 17-14.6 28.6-7.9 3 1.6 5.7 3.6 8.7 5 1.6.8 3.5 1 5.2 1.5 14 3.2 19-3.9 31.3-7.5 12-5.3 15.6-5.4 27.7-.6 3.6 1 6.6 3.5 9.6 5.5 7.8 5.5 13.2 4.6 20.8-.7q5.4-4.2 12.1-4.1c7 0 14.3 2.4 20.9-1 3-1.5 6-3.2 9.5-3.5" class="b"/><path d="M8.8 206.7c5.7-3.1 10.6-7.8 16.5-10.6 4.2-2 9-1.5 13 .7q4 2.3 7.8 4.4 3 1.3 6 2c9 2.5 15.1-.6 22.7-5 2.6-1.7 5.8-2.5 8.6-4 5.1-2.5 10.6-5.7 16.5-4.6 4.3.7 8.1 3 12.2 4.5 3 1.4 5.7 3.6 8.7 5.3 9.4 5.7 15-.8 22.5-6 3.3-2 7.5-2.5 11.3-2 6.3 1 12.9 3.9 19 1.1 3-1.4 6.2-3 9.6-3.1" class="b"/><path d="M8.8 202c5.5-2.9 10.3-6.9 15.6-10q7.3-4.2 14.8-.3c2.6 1.2 5.1 2.9 7.8 4q2.5 1 5.2 1.6c10 3.2 15.7-.1 24.3-4.8 2.2-1.2 4.7-1.7 7-3 4-2 8.2-4.7 13-5.1 3.8-.4 7.7 1 11.2 2.5q3.1 1.1 6 2.5c3.7 1.9 7.2 4.5 11.4 5 3.4.5 6.8-1 9.5-2.9 4.7-3.1 8.7-8.3 14.8-8.6 7.7-.6 14.8 5 22.5 3.5 3.7-1 7.3-3.2 11.3-2.8" class="b"/><path d="M8.8 196.3c3.9-1.3 7.6-3.3 11.3-5.2 3.2-1.9 6.6-3.9 10.4-4.5 5.2-1 10.2 1.7 14.7 4q3 1.2 6.1 2 4.6 1.6 9.5 1.5c5.4-.4 10.1-3.4 14.8-5.9 3.3-1.7 7-2.4 10.4-4a24 24 0 0 1 19.1-.6q4.3 1.4 8.7 2.7c2.8 1 5.7 2.4 8.7 3 3.6.6 7.3-.5 10.4-2.5 5.4-3.1 9.7-9.2 16.5-9.3 8.2-.2 15.1 6.6 23.4 5.4 3.4-.9 6.8-2.3 10.4-1.9" class="b"/><path d="M8.8 189.7q5.3-.4 10.4-1.8c3.2-1 6.3-2.5 9.6-3.2C42.4 181 52 195 66 188.7c3.9-1.6 7.4-4.1 11.2-5.8 2.2-1 4.7-1.2 7-1.7 4.8-1 10-1 14.7.3 3.2.7 6.4 1.9 9.6 2.5 2 .4 4 .3 6 .7a26 26 0 0 0 13 .2 38 38 0 0 0 10.5-6c2.4-1.6 4.9-3.5 7.8-4.3 9.5-2.2 16.8 7.1 26 7.7 3.8-.2 7.5-1.7 11.3-1.3" class="b"/><path d="M8.8 182.3q4.8 1 9.5 1.3c3.8 0 7.6-1.2 11.3-1.8q5.2-1 10.4-.1c7 1.2 13.5 6 20.9 4.8 6.3-1 11.3-5.7 17.3-7.7q3.8-.8 7.8-.4c6.9.5 13.2 3.6 20 4.8 3.4.6 7-.3 10.4-.4 7.5 0 13.5-2 20-6 3.7-2 7.5-5 12-4.7 8.6.6 14.6 8 22.7 10.2q2.5.4 5.2 0 3.4-.3 6.9-.2" class="b"/><path d="M8.8 174.6c4 1.2 8 3.3 12.2 3.7 4 .4 8-.5 12.1-1 7.9-.8 12 .5 19 3.6a19 19 0 0 0 14 .2c3.5-1.3 6.8-3.4 10.4-4.6 7-2.3 14.2 2 20.8 4 3.9 1.3 8 2.2 12.1 1.4q3-.9 6.1-1.6 5.7-1.2 11.3-2.8 6.3-2.1 12.1-5c5.3-2.6 9.2-3.6 14.8-1 6.5 2.8 11.4 8.5 18.2 10.5 1.7.5 3.5.3 5.2.4q3 0 6.1.4" class="b"/><path d="M8.8 167.1q3 1 6 2.4 2.6 1.4 5.3 2.3c7.7 2 15.6-2 23.4-.5 3.4.5 6.5 2.3 9.6 3.6q4.9 2.5 10.4 2.2c5.4-.1 10.2-3.1 15.6-3.4 4.2 0 8.2 1.8 12.1 3.2 2.3.8 4.6 1.8 7 1.6h12.1q3-1.2 6-2.2l12.2-3.7q6.6-2.2 13-4.6c6.5-2.9 13 .3 18.3 4.1q3 2.2 6 4.3c1.4.7 2.8 2.2 4.4 2.1h13" class="b"/><path d="M8.8 160.5c3.4.5 6.5 2 9.5 3.5 6.8 2.9 14-.3 20.9-.6 7.3-.7 11.9 3.3 18.2 6.1a25 25 0 0 0 13 2.1c2.9-.2 5.8-.8 8.7-.6 3.2.3 6.4 1.4 9.5 2.3 2.5 1 5.3.4 7.8.5h13c1.2 0 2.4-.8 3.5-1.2q2.2-.8 4.4-1.5c6.3-1.9 12.8-3.4 19-5.6 3.5-1 6.9-2.6 10.5-2.8 9-.3 15.6 7 23.4 10.5 1.6.9 3.5.6 5.2.6h7.8" class="b"/><path d="M8.8 153.4c3.4 0 6.6 1.3 9.5 2.9 6.1 2.6 12.8.6 19.1.4a24 24 0 0 1 12.2 2.3c9.6 5.1 13.7 7.8 25.1 7.6q4 0 7.8 1.2c2 .6 4 1.5 6.1 1.3H106q1.8.2 3.5-.6c6-3.4 13-4.3 20-5q7.8-.6 15.5-2.9 6.6-1.6 13 .3c6 1.6 11.3 5.3 17.4 6q2.8.8 5.2 2 1.4.2 2.6.2" class="b"/><path d="M8.8 146.1q3.7 0 7 1.5 2.5 1.4 5.2 2.3c4.7 1.4 9.8 1 14.7 1.4 4.4.3 9 1.2 13 3 9.8 4.4 14 7 25.2 7.5q3 .1 6 1c1.8.3 3.5 1.4 5.2 1.6H100c2.9-.1 5.8.2 8.7-.2 8.7-5.6 14.4-4.8 24.3-3.7q6.1.7 12.1-1.1c8.3-2.8 14-4 22.6-1q4.3 1.3 8.7 2.5 3.6 1.3 6.9 3.5" class="b"/><path d="M8.8 139.3q3.2.4 6 1.5c2.6 1.2 5.2 2.7 7.9 3.5q6 1.6 12.1 3 5.7 1.4 11.3 3.5c5.7 2.1 11.3 4.7 17.4 5.7 5.7 1 11.8.3 17.3 2.4l1.8.8H92c6-.1 12.2.2 18.2-.1 9.4-7 17-2.6 27-.9 4.5.9 8.8-1 13-2.9 4.5-2 9.7-3.4 14.7-2.3 2.6.4 5.2 1.4 7.8 2.2q5.3 1.5 10.4 4" class="b"/><path d="M8.8 133.2c4.3 1 8.2 3.4 12.2 5.3q6.9 2.9 13.8 5.9c4 1.8 8 3.9 12.2 5.5q8.8 3.7 18.2 4c3.2.2 6.4 0 9.5.4 1.8.1 3.5.8 5.3.7h29.4l3.5-.1q1.6-1 3.5-1.8c5.7-2.2 11.8 0 17.3 1.7 2.6.4 5.3 0 7.9.2h4.3c3.7-1.5 7.3-3.5 11.3-4.3 9.9-1.9 15.9 5.2 26 4.3" class="b"/><path d="M8.8 128c4 1.4 7.6 3.6 11.3 5.7q6.6 3.3 13 6.9c6 3.3 11.6 7.4 18.2 9.2 2 .7 4 .4 6 .5h57.4c1.1-.2 2.3-1 3.4-1.3q3-1 6.1-1 4 .2 7.8 1.4 2.2.6 4.3.8 4.5.1 8.7 0l7-2.4q5.1-1.6 10.4-.3c2.6.6 5.2 1.8 7.8 2.8h13" class="b"/><path d="M8.8 124.5c4.2 1.8 8.2 4.3 12.2 6.6q6.5 3.5 13 7.2 4.7 2.9 9.5 5.4c2 .9 4 2.1 6 1.9h65.2c1.1-.1 2.3-1 3.4-1.3q2.6-1 5.2-1.1c5.6-.6 11 1.2 16.5 1.2 3.5 0 7-1.3 10.4-1.7q4.4-.7 8.7.2 4 1 7.8 2.6h16.5" class="b"/><path d="M8.8 123c5.4 2.4 10.4 5.5 15.6 8.2 6.6 3.4 13 7.2 20 9.6h68.5c.8 0 1.9-.6 2.6-.9q2.6-.8 5.2-1.2c5-.6 9.9 0 14.8.1q4.8.2 9.5-.6 4.4-.4 8.7.2c3.2.5 6.4 1.7 9.5 2.4H178l5.2-2.7" class="b"/><path d="M8.8 121.9c10 3.3 18.8 9.5 28.6 13.2l2.6 1h69.4q3.4-1.5 7-1.8c7.2-.4 14.4.7 21.7-.2l6-.7q3.1 0 6.1.7 3.9.8 7.8 2H172c1.5-.4 3-1.5 4.3-2.4l7-4.8" class="b"/><path d="M8.8 119.8q4 .7 7.8 1.8c6.3 2.4 12 6.4 18.2 8.9l2.6.9h66c3-1 6.3-2 9.5-2.1 3.5 0 7 .8 10.4 1.1q4.8.6 9.6 0c4.5-.5 9.2-2.3 13.8-1.2 2.7.5 5.3 1.5 7.8 2.2h13.1q2.8-1.3 5.2-3.3c3.4-3 6.6-6.4 10.4-9" class="b"/><path d="M8.8 116.2c2.6-.1 5.3-.4 7.8.2 5.7 1.5 10.4 5.3 15.6 7.9q3 1.7 6.1 2.4h11.2q3.5-1 7-1.1 3.5 0 7 1.1h34.7c1.4 0 2.9-.8 4.3-1a29 29 0 0 1 7-1c3.8-.2 7.5 1.1 11.2 1.9 2 .3 4.1 0 6.1.1 2.3 0 4.7.1 7-.6 6-1.7 9.4-3.2 15.6-.7l3.4 1.2q1.8.1 3.5 0 4.3 0 8.7 0c7.6-3.4 11.3-11.7 18.2-16.2" class="b"/><path d="M8.8 111c6.7-2.2 9.8-1.6 15.6 2 5.9 3.4 12 9 19.1 9l3.5-.1q2.2-.7 4.3-1.3 4.8-1.2 9.6 0c2 .4 3.9 1.7 6 1.4h30.4q5.3 0 10.4-.2 6.5.3 13 .2c3.8-.1 7.6.2 11.3-.1l5.2-2c6.8-3 10.3-.3 16.5 2q5.7.2 11.3 0c7.7-3.6 11.2-12.2 18.2-16.8" class="b"/><path d="M8.8 104.6c3-1.2 6.3-2.4 9.5-1.6 8.4 2.4 14 10 21.7 13.5 1.9 1 4 .7 6.1.8h3.5q2.1-.5 4.3-.8 3-.4 6 0c1.8.2 3.5 1 5.3.8h63.3c1.2-.1 2.4-.9 3.5-1.3l4.3-1.8c5.4-2.2 9-1.2 14 1.4 1.3.5 2.7 1.6 4.3 1.7h11.2c1.3.1 2.5-1 3.5-1.6q2.3-1.8 4.3-4a49 49 0 0 1 9.6-8.5" class="b"/><path d="M8.8 99c3.3-1.1 7-2.3 10.4-1.4C27.8 100 33.4 108 41 112.4c1.4.3 3 .1 4.3.2h79c1.2 0 2.4-1 3.5-1.4q3.3-1.6 7-2.7c5-1.4 9.3-.5 13.8 2 2 .7 3.9 2.3 6 2h12.2c1.2.2 2.5-.5 3.5-1.2l3.5-2.5q4.3-3.8 9.5-6.4" class="b"/><path d="M8.8 95.4c3.4-.6 7-1.3 10.4-1 6.4.9 11.6 5.4 16.5 9.2 2 1.4 3.8 3.4 6 4.3h11.4l67.6-.1c7.5-5.5 13.9-7.3 22.6-3.4l5.2 2.4c1 .4 2.3 1.2 3.5 1h14.7c3-1 5.8-2.7 8.7-4a54 54 0 0 1 7.8-2.7" class="b"/><path d="M8.8 93.7q5.7.3 11.3-.2c6.3-.1 12.2 2.8 17.3 6.2L41 102c.8.5 1.7 1.2 2.6 1.2h73.8c6.9-6.6 12.5-10.2 21.6-4.6q3 1.7 6.1 3.3c1.3.5 2.8 1.5 4.3 1.3h8.7c1.7 0 3.6.3 5.2-.5 3.5-1.2 6.9-3 10.5-3.7 3-.7 6.3-.7 9.5-1" class="b"/><path d="M8.8 93q3 .8 6 1 2.7-.1 5.3-.7c4.8-1 10-1.4 14.7 0 4.5 1.2 8.6 3.8 13 5.1h10.5q3-.7 6-.9 2.7-.1 5.3.4 1.6.5 3.4.5h41.7c7-7.4 12.6-13.5 22.5-5.8 3.2 2.3 6.5 5 10.4 5.8h7.8c5-1.3 9.2-4.3 14-6 4.4-2 9.2-.1 13.8 0" class="b"/><path d="M8.8 91.6c9.1 3 13.2-1 21.7-2.8 4.9-1 10-.3 14.7 1.2 7.8 3 13.2.3 20.9 1.7q3 .5 6 2h14q13.4.2 26.8 0c5.9-5.4 12.1-13.8 20.8-8.7 3.3 1.7 6.2 4.5 9.6 6 4 2 9 1.5 13-.4 5.7-2.3 11.8-8.3 18.2-7.4q4.4 1 8.7 1.6" class="b"/><path d="M8.8 88.8c1.3.4 3 .1 4.3.2h6.1q1.8.1 3.5-.2l5.2-2.1a56 56 0 0 1 10.4-3.8q3.8-1 7.8-.5l6 .8c7.2.3 13.2 1.7 19.2 5.8h38.2c2.1-1.9 4.7-3.5 6.9-5.4 4.1-3.3 9.4-6.1 14.7-4.1 3.4 1 6.4 3.2 9.6 4.6 4.4 2 9.6 1 13.9-1 6-2.6 12.3-8.7 19-8.4 3.2.3 6.4.9 9.6.9" class="b"/><path d="M8.8 84.2c6 .3 12.2 0 18.2.1 5.1-2 9.7-5.4 14.8-7.4q4.2-1.6 8.6-1.2 4.6.2 8.7 1.5a30 30 0 0 1 10.4 6.1q1 1.1 2.6 1h22.6q6.5.2 13-.1c1.7-1.8 4-3.2 6-4.4 3-1.8 6.2-3.5 9.6-4 5-1 10 1.2 14.8 2.5 4.7 1.3 9.5-.5 13.9-2.3 6.9-2.9 13.1-8 20.8-8.8q5.2.3 10.4-.4" class="b"/><path d="m8.8 78.2 5.2 1.4h14.8c1 0 2.5.2 3.4-.5 5-2.5 9.3-6.6 14.8-8.2q3.8-.8 7.8-.3c5.7.6 10.6 4.1 14.7 7.9 1.2 1.4 2.8 1 4.4 1h33.8q1-.1 1.8-.8 1.2-.8 2.6-1.5 5.7-3 12.1-3.3c6.3-.5 13.2 1.8 19-1.4 7.7-3.8 15.3-7.7 23.5-10q4.7-1 9.6-1.3 3.5-.6 6.9-1.7" class="b"/><path d="M8.8 71.5q3.7.6 7 2c1.3.6 2.7 1.6 4.3 1.4h13q1.8.2 3.5-.7c3.5-2 6.6-4.8 10.4-6.3q5.1-1.6 10.4-1a23 23 0 0 1 10.4 4.9l3.5 2.9q1.2.3 2.6.2h37.3c2.3 0 4.7.2 7-.5 7.5-1.5 15.8-1.2 22.5-5.8q3.4-2.6 7-5 5.6-3.5 12-4.8c5-1 10-1.2 14.8-2 3-.5 5.8-1.7 8.7-2.6" class="b"/><path d="M8.8 65.5q4.1.4 7.8 2.2l3.5 2q.8.5 1.7.5h16.5c2.5-1 4.6-3 7-4.2 2.8-1.6 6.3-2.2 9.5-2.7C61.7 62 67.9 65.9 73 70h58.1c5.5-2 9.7-6.4 14-10.2 9.4-8 16.6-5.8 27.7-6.8 3.6-.5 7-2.2 10.4-3.1" class="b"/><path d="M8.8 60.2c4-.1 7.9 1.5 11.3 3.6l2.6 1.5q1.3.3 2.6.2h13.9c3.2-1.4 6-3.8 9.5-4.7 5.3-1.6 11-3.3 16.5-1.1 3.4 1.2 6.6 3.4 9.5 5.5 2 .6 4.1.1 6.1.3H132c1.2-.4 2.4-1.5 3.5-2.3 4-2.9 7.3-6.8 11.2-9.8 7.7-5.7 15.3-5 24.3-5.3 4.2-.1 8.1-1.6 12.2-2.1" class="b"/><path d="M8.8 54.3c7.4-.8 11.9 3.8 18.2 6.4h7q2.6.2 5.2 0c3-1.2 5.7-3 8.6-4 4.5-1.5 9.1-3.3 14-2.9 5.7.4 10.7 3.7 15.6 6.6 1.2.7 2.9.3 4.3.4h47.7c1 0 1.9-1 2.6-1.5l4.4-3.3c6.5-5 12.5-10.5 20.8-12.5 4.5-1.2 9.2-1.3 13.9-1.3 4 0 8.1-.4 12.1.3" class="b"/><path d="M8.8 49q5.4-.7 10.4 1.5c4 1.9 7.8 4.5 12.2 5.4 1.6.3 3.5 0 5.2.1q2.6-.4 5.2-1.5c7-3.2 14.6-7 22.5-5.5 5.9 1.1 11 4.5 16.5 6.4 1.3.8 3 .6 4.4.6h39c.8 0 2 .1 2.6-.4q4.1-3.4 8.7-6.2c15-8.5 30.4-17.6 47.7-9.3" class="b"/><path d="M8.8 45c7.4-1.2 11 .8 17.4 3.9 8.4 3.9 14 1.6 21.6-2.4 6-3 12.7-3.9 19.1-1.9q4.9 1.6 9.6 3.3 2.5.8 5.2 1.4c1.7.5 3.3 2.2 5.2 2h22.5q6.1.2 12.2-.1a36 36 0 0 1 16.5-9.6q5.8-1 11.3-3.2c7.9-3 16.6-7.2 25.1-4.4 3.1 1.1 6 3 8.7 4.8" class="b"/><path d="M8.8 42a27 27 0 0 1 11.3.6c8.4 3.1 13.7 5.8 22.5 1.4 7.6-4 11.8-7.1 20.9-5.4 4 .8 8 2.5 12.1 3.6 2.8.8 6 .6 8.7 1.8q2.6 1.1 5.2 2.5c4.3.3 8.7 0 13 .1h13c1 0 1.9-1.1 2.6-1.7l3.5-3c4-3.5 9.2-6.1 14.7-5.7 2.6 0 5.3.5 7.9.3 3.5-.2 7-1.3 10.4-2.4 6.3-2 13.5-4.5 20-1.5 3 1.5 5.8 3.8 8.6 5.7" class="b"/><path d="M8.8 39.4c4.7-.4 9.5-.4 13.9 1.2L27 42h9.6q3-.8 6-2.6c2.6-1.4 5.2-3.3 7.8-4.6 6.7-3.4 14.1-2 20.9.2q3 .9 6 1.4 2.7.3 5.2.7 5 1.4 9.6 3.7l2.6 1.1h15.6c1 .2 1.9-.5 2.6-1l4.3-3.4c4.6-3.8 10.2-7.7 16.5-6.5q4 .8 7.8 2 4.7.9 9.6.1c7.7-1.1 16-4 23.4-.2 3 1.5 5.8 3.7 8.7 5.5" class="b"/><path d="M8.8 37c3.7-.3 7.6-.5 11.3.2h17.3l2.6-1c3.3-1.6 6.4-3.8 9.6-5.5A31 31 0 0 1 71.3 28q3.4.7 6.9 1.3 4.6.5 8.7 2c6.6 2.6 13.5 6.6 20.8 4.9 8.7-2.4 14-11 24.3-10 3.3.2 6.4 1.4 9.5 2.2q4.7.9 9.6.9c8.1 0 16.7-.3 24.3 3.3q3.8 2.3 7.8 4.5" class="b"/><path d="M8.8 32.5h24.3c4.2 0 10.7-4.1 14.7-6 6.3-3 13-5.4 20-5.4A55 55 0 0 1 86 24.5c6.5 2.2 13 5.3 20 5.2 4.3 0 8.2-2.1 12.1-3.7 4.2-1.7 8.5-3.2 13-3.5s8.8.4 13 .8c5.9.4 11.8 1 17.4 2.6q6.6 2 13 4.2 2.7 1 5.3 2.4h3.4" class="b"/><path d="M8.8 27.8h13q4.9-.6 9.6-1.8c7.6-2.2 14.9-5.6 22.5-8a46 46 0 0 1 17.4-2.9c4.8.2 9.3 2.3 13.8 3.9q6.8 2.3 14 4 7.2 2 14.7.8c7.6-.9 15-3.2 22.5-5a37 37 0 0 1 22.6 1.6c3.8 1.5 7.5 3.5 11.3 5 2.2 1 4.7 1.4 7 2.3h6" class="b"/><path d="M8.8 22.9c4.3-.8 8.8-1.1 13-2.3 5.9-1.7 11.5-4.1 17.4-6q7.3-2.1 14.7-3.5a45 45 0 0 1 19.1-.7c4.3.9 8 3.7 12.2 5 4.2 1.4 8.6 2.2 13 3.2q6 1.4 12.1 2.3c8 .9 13.3 1.6 20.8-2.3 3.5-1.7 6.8-4 10.5-5.2 7-2 13.8 0 20 3.6 3.6 2 7.1 4.6 11.2 5.8 1.3.3 3 .2 4.3.3h6.1" class="b"/></svg>