<svg xmlns="http://www.w3.org/2000/svg" id="a" width="1920" height="2400" viewBox="0 0 192 240"><defs><style>.b{fill:none;stroke:#fff;stroke-miterlimit:10;stroke-width:.4px}</style></defs><path d="M0 0h192v240H0z" style="stroke-width:0"/><path d="M8.5 230.3h87.1q3.1-1.8 7-2.3c5.2-.3 10.3 1.6 15.6 1.2 12.5-1 17.1-15.4 27.8-20 8.1-3.8 15-1 22.7 2.2q3.8 1.3 7.8 2 3.6 1.2 7 3" class="b"/><path d="M8.5 225.6h81c5-4.1 9.6-7 16.5-6.2 5 .5 9.9 1.7 14.8 1.4 5.4-.5 10-3.8 14-7.1 3-2.5 5.9-5.3 9.5-6.7 9-3.8 16.5.9 24.4 4.7 2.4 1.3 5.2 1.7 7.8 2.2q3.5 1 7 2.2" class="b"/><path d="M8.5 220.9h72.3c1.6-.1 3.6.3 5.2-.3 2.6-2.6 5.4-5.3 8.7-7.2 5-3 10.1-2.5 15.6-1.9 9 .7 14 2 22.7-2.3 3.4-1.6 6.7-3.7 10.4-4.6 9.4-2.4 17.5 4.2 25.3 8.4q3.7 1.8 7.8 2.5 3.5.9 7 1.5" class="b"/><path d="M8.5 216.2H80c1.4-.2 3 .3 4.3-.4q3.6-3.9 7.9-7.2c6.7-5.1 11.3-4.3 19.1-4 4 0 8.2.4 12.2.3q5.7-.4 11.3-1.5c11.6-2.8 18.1.2 27.9 6.2 4 2.5 8.2 5.2 13 6 2.6.8 5.3.6 7.9.6" class="b"/><path d="M8.5 211.4h74.9c2.2-1.5 4-3.8 6-5.5 3.5-3 7.6-5.6 12.3-6 2.8-.4 5.8 0 8.7 0q9.5-.8 19.1-.9 10.4-.3 20 3.4 6.3 2.6 12.2 5.7l4.4 2.2c1 .5 2.2 1.3 3.4 1.1h14" class="b"/><path d="m8.5 205.6 3.5 1q4.4.1 8.7.1h57.4q3.1.2 6.1-.1c7.6-7.4 12.6-11 23.5-9.9 3.5.3 7-.4 10.5-.8 7.6-1 15.5-.7 22.6 2.4s14.3 6.2 21.8 8.4h20.9" class="b"/><path d="m8.5 199.5 6.1 1q3 .8 6.1 1.1c7 .6 14 .3 20.9.4h40.9c7.2-5.7 11.8-10.3 21.8-8.6q3 .6 6 .7 4-.2 7.9-.6a39 39 0 0 1 20.9 3.6c3.2 1.6 6.1 3.8 9.5 4.9h34.9" class="b"/><path d="M8.5 193.2q5.3.1 10.5 1 3.8 0 7.8.7 2.2.4 4.3 1.3 1.3.6 2.6 1h1.8q21.8.1 43.5 0c7.4-5.6 13.6-11.1 23.5-8.4 2.3.5 4.6 1.3 7 1.6q3 .1 6-.2c7-.4 14 .9 20 4.2s3.4 3 10.5 2.9h37.5" class="b"/><path d="m8.5 187.7 11.3-.1a23 23 0 0 1 14.8 3.4q1.3.9 2.6 1.5h37.5a44 44 0 0 1 9.5-7c4.4-2.8 9.8-4.1 14.8-2.7 4.7 1 9 3.7 14 3 7.4-.6 14.5.6 20.9 4.7 1 .6 2.2 1.8 3.4 2h46.2" class="b"/><path d="M8.5 184q5.3-.1 10.5-1c3.7-.8 7.6-1.6 11.3-.6 2.5.6 4.8 2 7 3.3 1 .7 2.2 1.8 3.4 2.1h29.6c2.9-1.9 5-4.8 7.8-6.8 4.4-2.8 9.5-5.3 14.8-5 5.6.2 10.4 3.5 15.7 4.8 2 .5 4.1.2 6.1 0q4-.1 7.8.4c4.5.7 8.7 3 12.2 5.7.9 1 2.3 1 3.5 1h45.3" class="b"/><path d="M8.5 181.8a30 30 0 0 0 9.6-1.3c2.9-1 5.7-2.5 8.7-3.1 5.2-1.4 10.4 1 14.8 3.7q1.7 1.1 3.5 1.9 1.7.1 3.4 0H66c4.5-2.5 7.9-6.6 12.1-9.6a21 21 0 0 1 16.6-3c5.7 1.4 10.6 5.9 16.5 6 11-1.4 16.6-1 25.3 6.7h47" class="b"/><path d="M8.5 178.4h7c1.4 0 3 .1 4.3-.8 4.6-2.6 9.3-6.2 14.8-5.6 4.6.3 8.6 3.3 13 4 7.4.8 12 3.7 19.2-.6 4.1-2.3 7.4-5.9 11.4-8.4a20 20 0 0 1 20-.1c3.7 1.7 7.2 4.3 11.3 5q2.6.3 5.2-.3 3.9-.7 7.8-.7c5.3.1 10.1 3 14 6.4.5.7 1.7 1.2 2.6 1h44.4" class="b"/><path d="M8.5 173.6h12.2a3 3 0 0 0 1.7-.4c2.5-1.7 5-3.7 7.9-4.9 3.5-1.6 7.6-1.4 11.3-.2l5.2 1.5q2.7.2 5.2.8c6.7 2 11.5 2.2 17.4-1.9 3-2 5.7-4.4 8.7-6.3 7.3-4 14-3.2 21 .9 12.4 7.4 10.4 4.6 23.4 3q6.2-.2 11.4 3.1c1 .8 2.4 1.7 3.4 2.6.8.6 1.6 1.7 2.6 1.8h43.6" class="b"/><path d="M8.5 169c5.8-.2 11.7.1 17.4-.2 6.9-5.7 11.4-6.9 20-5 1.7.3 3.6.3 5.3.8 6.3 2 11.1 3.8 17.4.2 3.4-1.8 6.3-4.5 9.6-6.6 7-4.2 13.8-3.5 20.8.3 4.6 2.3 9.5 5.6 14.8 3.8 11.7-3.3 17.4-3.9 27 4.5.8.7 1.7 1.7 2.6 2h40" class="b"/><path d="M8.5 164.2h20c3.5-2.4 7-5 11.4-5.5q3-.3 6 0 2.7.1 5.3.7c8 2.8 12.3 4.8 20-.5 2.6-1.8 5.1-4 7.8-5.6a19 19 0 0 1 18.3-.8c4.2 1.7 8.4 4.5 13 4.3 5.3-.8 10.3-3.2 15.7-3.2 4.3-.1 8.6 1.4 12.2 3.6q3.2 2 6.1 4.4c1.1.8 2.2 2.2 3.5 2.6h35.6" class="b"/><path d="M8.5 159.5h21.8c3-2 6-4.2 9.6-5q3.4-.6 7-.4 2 0 4.3.6c9.5 3.5 13.3 4.6 21.7-2.2 8.4-7.4 14.4-10.2 25.3-5.4 3.8 1.5 7.8 3.8 12.1 3.4 5.5-1.2 11-3.1 16.6-2.5 8.8.9 16.4 6.2 23.5 11 1.2.8 3 .3 4.3.4h28.8" class="b"/><path d="M8.5 154.7h21.8c1.3 0 2.4-1.3 3.5-1.8a24 24 0 0 1 5.2-2.3q6-1.7 12.2-.3c3.4 1 6.8 2.5 10.4 2.3 7.8-.7 12.3-8 18.3-12s12.3-2.5 18.3.5c3.3 1.5 6.7 3.5 10.4 3.7q2.3-.1 4.4-.8 3-.7 6-1c9.8-.5 18.4 4.9 27 8.4l4.4 2.1c1 .6 2.3 1.4 3.5 1.2h29.6" class="b"/><path d="M8.5 150h16.6c8.2.1 4.4 0 11.3-2.9q5.1-1.9 10.4-1.5c5.6 0 11 3.6 16.6 1.5 9.5-3.1 14.1-17 25.2-15.5 4.2.7 7.8 3 11.3 5.2 3.6 2.1 8 4.7 12.2 3.2a25 25 0 0 1 15.7 1.5c4.1 1.6 8 3.8 12.2 5.5q4.3 1.6 8.7 2.8c1.3.4 3 .1 4.3.2h30.5" class="b"/><path d="M8.5 145.3h21q4-2.5 8.6-3.8c4-1 8.2-.9 12.2-.6 3.4.5 7 1.5 10.4.9 10.5-1.8 15.8-16 25.3-15.6 9 .6 15 10.9 23.5 11.7q1.8-.1 3.5-.5 2.5-.5 5.2-.3c7.3.6 13.5 4.8 20 7.9q1.2.5 2.6.3h42.6" class="b"/><path d="M8.5 140.6h18.3q3.7-2 7.8-3.4c4.2-1.4 8.7-1.5 13-1.7 3-.4 6 0 8.8-.1 7 0 13-4.3 18.3-8.5 6.3-5 10.4-5.7 17.4-1.2 5.5 3.4 10.7 9.4 17.4 10 2.3 0 4.6-.8 7-.8a25 25 0 0 1 9.5 1.6c3 1 5.9 2.7 8.7 4h48.7" class="b"/><path d="M8.5 135.8H26c1.5-.1 3-1 4.4-1.4q3.4-1.2 7-1.7 4.3-.6 8.6-1 3-.5 6.1-1.1a64 64 0 0 0 19.2-6.6c7-3.4 10.9-5.9 18.3-1.3 6 3.5 11.2 9 18.2 10.2 2.4.4 4.7-.2 7-.6a26 26 0 0 1 19.2 3.5h49.6" class="b"/><path d="M8.5 131.1h19.2c3.7 0 7.5.2 11.3-.3q4-.2 7.8-1c6.4-2 12.2-5.5 18.3-8.1Q71 119 77.3 118q4.6-.7 8.7 1.5c11 6.1 16.7 12.7 30.4 8.7 4-1 8.3-1.4 12.2-.3q3.7 1.2 7 3.1 7.8.2 15.7 0h32.2" class="b"/><path d="M8.5 126.4H52c2.3-.9 4.1-2.8 6.1-4 3.5-2.6 7.2-5.1 11.4-6.5 12.7-4 16.6 2.7 27 7.2a29 29 0 0 0 20.8 0c8.3-2.7 13.7-1.4 21 3.3h45.2" class="b"/><path d="M8.5 121.7h47.9q1-.3 1.7-1.2l2.6-2.3q3.3-3 7-5.2c7.2-4.2 13.3-3 20 1.4 4 2.5 8.3 5 13 5.8q4.6.6 8.8 0 4.5-.5 8.7-2c3.9-1.3 8.2-1.9 12.2-.6q4.1 1.5 7.8 4c4.6.3 9.3 0 14 0q15.7.1 31.3-.1" class="b"/><path d="M8.5 117h34c6-.2 12.2.1 18.3-.2 5.3-4.9 12.3-10.3 20-8.2 4.5 1.1 8.6 3.6 13 5a40 40 0 0 0 16.6 1.8c5.5 0 11-2 16.5-1q3.7.8 7 2.5h33.9c2 .3 3.4-1.1 5.2-1.6a46 46 0 0 1 10.5-1.3" class="b"/><path d="M8.5 112.2h55.7c1 .1 2-.5 2.6-1q2.2-1.1 4.4-2c4-1.8 8-1.7 12.2-.9q6 1 12.2 1.7 6 .7 12.2 1.2 4.7.5 9.5.9 23.1.2 46.2 0h3.4c.5 0 1.4-.4 1.8-.8q1.6-1.1 3.5-2c3.5-1.6 7.5-2 11.3-2.2" class="b"/><path d="M8.5 107.5h74c3.5-.3 7-1 10.4-1.3q4.9-.4 9.6.2c2 .3 4 1.1 6.1 1H167c.8.2 2-.2 2.5-.9q1.7-1.2 3.5-2a31 31 0 0 1 10.5-2M8.5 102.7h83.6a22 22 0 0 1 5.2-.7q2.6.1 5.2.7h67.9c.8 0 2 .1 2.6-.3q5.1-2.2 10.5-2.2M8.5 98h175M8.5 93.3h175M8.5 88.6h175M8.5 83.8h175M8.5 79.1h175M8.5 74.4h175M8.5 69.7h106.3c1.4 0 2.8-1 4.3-1.3q3-1 6-1.1 3.7 0 7 1.1 1.8.7 3.5 1.3h47.9M8.5 65h99.3c1.3-.1 3 .1 4.3-.3q3-1.6 6-2.8 6.1-2.3 12.3-.4 3.6 1.2 7 3.2c1.6.5 3.5.1 5.2.2h40.9" class="b"/><path d="M8.5 60.2h101c3-1.3 5.7-3.3 8.7-4.5 3.8-1.6 8.3-2 12.2-.4 2.8 1 5.4 2.8 7.8 4.4l.9.5h44.4" class="b"/><path d="M8.5 55.5h99.3c14-9 18.6-12.5 32.2-.1q21.7.2 43.5 0" class="b"/><path d="M8.5 50.8h95.8q5.3-3.4 10.4-7c4.7-3.2 10.1-6 15.7-2.9 4.4 2.4 7.7 6.4 11.3 9.8h41.8" class="b"/><path d="M8.5 46h76.6c5 0 10 .3 14.8-.1q4.7-2.6 8.7-5.9 3.5-2.3 7-4.8c5.4-4 10.7-5.8 16.5-1.3 3 2.3 5.4 5.2 7.8 7.9l2.6 2.8c.6.7 1.7 1.6 2.7 1.4h38.3" class="b"/><path d="M8.5 41.3H26q3.5-1 7-1.1 3.5.1 7 1.1h51.3q2.2.1 4.4-.1l2.6-1.3c3.8-2.1 7-5.3 10.4-8 1.6-1.4 3.6-2.5 5.2-3.7 3-2 6-4.4 9.6-5 8.4-1 14 8.8 19.2 14 1.4 1.3 2.6 3.3 4.3 4h36.6" class="b"/><path d="M8.5 36.6h9.6c2.7-.3 5.2-1.7 7.8-2.5 3.9-1.4 8.2-2 12.2-1q3.6 1 7 2.3a11 11 0 0 0 5.2 1.2h38.3l3.5-.1 2.6-1.2c3.6-1.9 6.6-4.7 9.6-7.4q2.5-2.5 5.2-4.7 2.5-1.8 5.2-3.4c9-6.1 14.6-4 21.7 3.4a220 220 0 0 0 14 13.3q16.5.1 33 .1" class="b"/><path d="M8.5 31c3.8-.5 7.7-.8 11.3-2 10.6-4.3 14.7-4.7 25.3-.2a93 93 0 0 0 10.4 3h28.8c6.2.3 11.9-3.4 16.5-7.3 3.7-3.1 7-6.8 11.3-9.1 10.2-6.3 16.3-4.4 25.2 2.9q4.3 3.3 8.7 6.1 5.2 3.9 10.5 7.5h27" class="b"/><path d="M8.5 25.6q4.9-.8 9.6-2.2c2.9-1 5.7-2.4 8.7-3.2 6.6-2 12.3.4 18.3 3q2.5 1 5.2 1.7l6 1.8c2.6.8 5.3.3 8 .4h6c2.6-.4 5.2-1.2 7.8-1.4 6.8-.3 12-.3 18.3-3.6 10.6-5.6 18-15.8 31.3-11.4 4.9 1.5 9.2 4.2 14 6 7.3 1.8 13.8 5.8 20 10 1 .7 2.4.4 3.5.4h18.3" class="b"/><path d="M8.5 21.7q4.9-.8 9.6-2.5 3.9-1.7 7.8-3.4c7.1-2.7 12.7-.4 19.2 2.5q3.4 1.1 7 2c3.8 1.3 8 2.4 12.1 2 4.8-.4 9.3-2.7 14-3.7 5.1-.7 10.5 0 15.6-.9q7-1 13-4c3.2-1.4 6.2-3.4 9.7-3.8 6.2-.8 12.2 1.7 18.2 3q3 .7 6.1.9 3.5-.2 7 0 5.6.4 10.4 3.2 4 2.5 7.9 5.3c5.7.3 11.6 0 17.4.1" class="b"/></svg>