<svg xmlns="http://www.w3.org/2000/svg" id="a" width="1920" height="2400" viewBox="0 0 192 240"><defs><style>.b{fill:none;stroke:#fff;stroke-miterlimit:10;stroke-width:.4px}</style></defs><path d="M0 0h192v240H0z" style="stroke-width:0"/><path d="M9 223.5h17.3c1.3.2 2.4-.6 3.4-1.3l3.5-2q5.4-3 11.2-4.5c2.6-.6 5.2-1.6 7.8-1.7 5.5-.2 11 1 16.5.4 3.7-.2 7.5-1 11.3-1 2.8 0 5.8-.3 8.6 0 6.4.8 11.3 5.6 15.6 10 3.4.3 7 0 10.4 0H183" class="b"/><path d="M9 218.8h15.5c3.7-2 7.3-4.2 11.3-5.5 4-1.5 8.1-2.1 12.1-3.3 3.6-1.2 7.5-1.3 11.3-1.4q5.2-.2 10.4-.9c14-2.3 21-.2 30.3 10.8 1.3.5 3 .2 4.3.2H183" class="b"/><path d="M9 214H21q1 .2 1.7-.4 4.2-2.5 8.7-4.2c4.4-1.6 9.2-2.1 13.8-3q3-.7 6-1.8 7-1.7 14-3c4.5-.8 9.2-1.8 13.8-1.2 8.1.9 13.2 8 18.2 13.7H183" class="b"/><path d="M9 209.4h10.3q1.6 0 2.6-1l2.6-1.4a33 33 0 0 1 9.6-3.2c4.3-.7 8.7-.5 13-1.7 8.4-3 16.8-6.8 26-6.9q4.5 0 8.6 1.5c5 2.3 8.7 7 12.1 11.1 1 1.6 1.8 1.6 3.5 1.6h54.6c2-.9 3.9-2.1 6-2.4q3.2-.4 6 .6l2.7 1.2.9.4.8.1H183" class="b"/><path d="M9 204.7h6.9c1.4-.1 3 .2 4.3-.3q3.2-2.2 7-3.6 4.6-1.4 9.5-1.5c3.1 0 6.4.2 9.5-.4 2.4-.5 4.7-1.7 7-2.6q5-2.4 10.3-3.6 6.6-1.3 13 .4c2.4.6 4.9 1.2 7 2.6a43 43 0 0 1 9.5 8.7q1.2.5 2.6.3h52.8c3.4-2.4 6.8-5.6 11.3-5.5s8.3 3.3 12.1 5.5h11.3" class="b"/><path d="M9 200h9.5l1.7-1q3-2 6-3.2 4.7-1.4 9.6-.9c3.2.3 6.4.9 9.5.6 2.5-.1 4.7-1.3 7-2.1q4.5-2 9.5-2.9c6.6-1 13 1.4 19 3.5 3.5 1.3 6.5 3.5 9.6 5.6q1.2.6 2.6.4h51.9c4.8-4.2 10.4-10.3 17.4-7.7 3.5 1.3 6.4 3.9 9.5 6 1.3.8 2.7 2 4.3 1.7h7" class="b"/><path d="M9 195.3h6.9c2-1.3 3.8-3.2 6-4.3 6.3-3.6 12.6-2 19.1-.3q4.8 1.3 9.5-.3c13.8-4.3 17.8-.9 30.4 2.7 2.3.6 4.5 1.7 6.9 2.1h52c4.4-2 7.7-6 12-8.4 10-5.5 15.5 5 23.5 8.4h7.8" class="b"/><path d="M9 190.5h3.4q1.4.1 2.6-.2c3.4-2.7 7-5.3 11.3-6.5 5.8-1.7 11.7.5 17.3 1.9q4.3.8 8.7.2 4.3-.3 8.6 0c6.8.5 13.2 3.3 20 4.4 3.3.5 6.9.1 10.3.2h5.2c1.1 0 2.4.2 3.5-.3q3.9-1.4 7.8-3c2.4-1 5-2 7.8-1.7 6.2.5 11.9 3.8 18.2 3.6q5.6-.1 10.4-3.3c8.5-5.9 13.5-8.4 22.5-1.2 2.8 2 5.3 4.8 8.6 6h7.8" class="b"/><path d="M9 185.8h4.3q2.5-1.4 5.2-2.9c11.4-6.6 16.3-6.5 28.6-2.6q9.8 2.1 19.9 3.6 6.4 1.1 13 1.9H92c1 0 2.4.2 3.5-.2 6.2-2 11-7 17.3-9 3.4-.8 7 0 10.4 1.1 6.6 2.3 14 6 20.8 2.6 4.8-2.3 10-5.6 15.6-3.8 5.2 1.6 9.1 6 13.8 8.6 1.2 1 3 .8 4.3.8h5.2" class="b"/><path d="M9 181.1q1.3-.1 2.5-.7L15 179q4-1.4 7.8-3.3c8.6-4.6 15-6.6 24.3-1.9 7.3 4 14.9 6.7 23.4 6.6 4.3 0 8.7-.3 13 .4 2.2.5 4.6.3 6.9.3 5.2.3 9.8-3 13.8-6 3.5-2.5 7-5.6 11.3-6.4 5.5-1 10.7 1.6 15.6 3.8 3.5 1.5 7.3 3.3 11.2 2.8 6.4-1.1 11.5-4.8 18.2-2.4 3.2 1 6 3 8.7 4.9 1.9 1.2 3.8 2.8 6 3.3h7.9" class="b"/><path d="M9 173.3q3-.8 6-1.3c2-.4 4.2-.6 6-1.4 10.7-5.1 16.8-10.5 27.8-2 6.8 5.5 13.6 8.7 22.5 7.4 4-.6 8.1-1.4 12.1-.5 9.6 2.3 14.4.3 21.7-6 3.2-2.7 6.4-5.7 10.4-7.1 9.3-3.3 16.7 4.6 25.1 6.8 3.2.8 6.4-.2 9.5-.8q4.4-.9 8.7 0c5.8 1.2 10.3 5.6 15.6 8h8.6" class="b"/><path d="M9 164.8q3-.6 6-.8 2.7.1 5.2-.5c4-1.1 7.4-3.5 11.3-4.8 9.3-3.4 14.3 1.8 20.8 7.5 2.8 2.3 6 4.4 9.5 5.4 3.1.3 6.4 0 9.5.1 2 .1 4-.6 6-.8q3.7-.4 7 .5 2.2.5 4.3.3h6.1c9-2.5 13.7-12.4 22.5-15.3 9.3-3.3 16 4.2 24.3 6.5 3 .7 6.4 0 9.5 0q4.5-.4 8.7 1 5 2.1 9.5 5.3c1.6.9 3.3 2.6 5.2 2.5h8.6" class="b"/><path d="M9 156.7q3-.7 6-1 3 .1 6-.5c3.8-1 7.5-2.6 11.3-3 8.9-1.2 14.7 5.5 20.8 10.7q3 2.3 6 4.1h38.2c4.3-2.4 7.6-6.4 11.3-9.7 3.2-2.9 7-5.4 11.2-6.5 9.8-2.5 16.2 5.5 25.1 5.7 5.3 0 10.8.2 15.6 2.8q4 2 7.8 4.9c1.6.9 3.4 2.6 5.2 2.8h9.6" class="b"/><path d="M9 149.7q4.1-1.3 8.6-1.4 3.5-.3 7-.9c14-2.2 20.8 8 31.1 15H99c4-3 7.3-6.9 11.3-9.7 5.7-3.4 12-7.2 19-6.3 4 .4 7.6 2 11.3 3.1 3.1 1 6.4 1.4 9.5 2 6.2 1.3 11.9 4 17.4 7q4.5 2.5 9.5 3.8h6" class="b"/><path d="M9 144.9q5.5-1.5 11.2-2a25 25 0 0 1 13.9 2.1c6.6 3.3 12 8.7 18.2 12.6h45c.8 0 2 .1 2.6-.5 2.8-2.1 5.6-4.5 8.6-6.4q2.6-1.3 5.2-2.4c4.3-2 8.4-4.6 13-5.6 7.2-1.7 14.2 1.7 20.8 4.2a108 108 0 0 0 19 6q4.9.7 9.6 1.3 3.7 1 7 2.8" class="b"/><path d="M9 142.6c9.2-2 17.2-4.2 26 .8 4.8 2.7 9 6.4 13.8 9.2 1.6.7 3.5.2 5.2.3h32c15-.1 7.5 1.4 20-5.4q2-1 4.3-1.6 2.7-.4 5.2-1.4c4.3-2 8.4-4.6 13-5.7 8.5-2.3 15.3 3.3 22.5 6.8 3.7 1.8 8 2.8 12.1 2.3 8-.9 12.2-4.8 20 .6" class="b"/><path d="M9 142.2c11.9-1.7 17.6-5.4 29.4.8 11.5 6 6 5.2 19 5.2h30.4q1.7.1 3.4-.2l2.6-1.2c4.2-2.1 8.4-4.6 13-5.8q2.6-.6 5.2-.5 2.3 0 4.4-.9c6-2.3 12.2-6.4 19-5 6.6 1.2 11.3 6.6 17.3 9 6.8 2.7 12.6-1.5 18.2-4.8 4.3-2.6 8-2 12.2.8" class="b"/><path d="M9 141.9c8.1-.4 15.9-4.8 24.2-3.6q5 .8 9.5 2.8c2 .8 4 2 6 2.4h33.9c9.5-2.5 18.4-10.7 28.6-9.7 3.2.5 6.5-.7 9.5-1.7 7.4-2.9 13.6-3.5 20.8.6 4.7 2.5 9 7 14.7 7 6.7-.3 11-6.2 16.5-9.3 3.1-2.2 7.3-1.4 10.3.6" class="b"/><path d="M9 138.8h4.3q4.4-.8 8.6-2a36 36 0 0 1 25.2 2h29.5q5.3-.3 10.3-2.8c6.7-3 12.6-8 20-9.6 2.8-.7 5.7.2 8.6-.1 4.6-.5 9.2-1.6 13.8-1.2 4.9.3 9.5 2.2 13.9 4.1 2.8 1.3 5.6 3 8.7 3.7 7.3 1.7 13-4.3 18.1-8.5 4-3.3 8.2-4.4 13-2.1" class="b"/><path d="M9 134.1h6.9q6.8-1.5 13.8-1.3 3 0 6.1.6c1.4.2 3 .8 4.3.7h42.5c7.5-2.3 13.3-8 19.9-12 4.5-2.7 7-3 12.1-2.4q7.1.3 13.9 2.2c5.4 1.5 10.8 3.7 16.4 4.5 3.4.7 7 1.2 10.4.1 5.1-1.5 9-5.3 13-8.6 4.3-3.9 8.8-6.5 14.7-4.5" class="b"/><path d="M9 129.4h6q3.5-.4 7-.2c4.2.4 8.6.1 13 .2h52.8q2.6-1.4 5.2-3.2c4.3-3.2 8.2-7 13-9.7 8.7-5.1 21.3 4.3 30.3 6q3.8 1 7.8.2l6-1c6-1.4 11-5 15.6-8.8 5-4.1 10.5-8.9 17.3-7.1" class="b"/><path d="M9 124.7h81.4c1.1 0 2.5 0 3.4-.8 5-3.2 9.2-8 14.7-10.4 9-3.2 19 7.2 28.6 6.7 3.4 0 6.5-1.8 9.6-3q8.7-3.3 16.4-8.5c6.2-3.7 12.2-9.8 20-8.5" class="b"/><path d="M9 120h88.3c4.6-2.5 8.5-6.7 13.9-7.7 3.8-.4 7.6 1 11.2 2.3 4.4 1.5 9.2 3 13.9 1.9 4.2-.8 7.5-4 11.2-5.7 5-2.6 10.5-4.5 15.6-6.7q4.5-2 8.7-4.1c3.4-2 7.2-3.8 11.3-3.3" class="b"/><path d="M9 115.3h90.9c1.2.2 2.4-.8 3.4-1.2q3.3-2 7-3c3.7-.7 7.6.2 11.2.9 5.2 1 10.8 1.2 15.6-1 3.2-1.4 5.8-3.8 8.7-5.4 5.8-3.2 12.7-3.5 19-5q4.1-.9 7.8-2.6c3.2-1.7 6.7-3.3 10.4-3.2" class="b"/><path d="M9 110.6h45.9c3.7-.9 7.4-2 11.2-2.2 5-.3 10 1 14.7 2.1q7.5.2 14.8 0h4.3c4-1 7.8-3.3 12.1-3.4 7.8 0 14.8 2.5 22.5-.5q4.7-1.7 8.7-4.6c5.6-3.8 12.6-3 19-3.4a29 29 0 0 0 9.6-2C175.4 95 179 93 183 93" class="b"/><path d="M9 105.9c8.9-.1 17.9.2 26.8-.1 3.5-1.7 7.3-3.5 11.3-3.6q2 .1 4.3 0c4-.2 8-1.3 12.1-1.4 10.1-.4 19.3 5.8 29.5 5 6.5-.4 12.5-4.2 19-3.8q5.3.6 10.4 1.5a32 32 0 0 0 20.8-5 22 22 0 0 1 10.4-1.8c6.1.1 12.5.5 18.2-2 3.6-1.6 7.2-3.6 11.3-3.7" class="b"/><path d="M9 101.2H27c1.1 0 2.5.2 3.5-.5 5-2.3 10-4.8 15.6-5.1l4.3.2q2.6 0 5.2-.4c17-2.8 21.3 5.4 35.5 4.5 4.4-.4 8.7-1.9 13-2.8q5.2-1.4 10.4.3c4.3 1.1 8.6 2.5 13 2.7q5.7.3 11.3-1.6c2.8-.9 5.6-2.2 8.6-2.3 6.7-.4 13.5.5 20-1.6 5.2-1.4 10-5 15.5-5.4" class="b"/><path d="M9 96.5h13.8A66 66 0 0 1 38.4 92q4.4-.6 8.7-.2 4.3.7 8.6-.2c11-2 15-.6 25.1 2.5 6 1.6 12.3.2 18.2-1.4 5-1.3 9.9-2.1 14.8 0q3.4 1.5 6.9 2.8 2 1 4.3 1h22.5c7.8.1 13.5.3 20.8-2.8 4.9-2 9.5-4.7 14.7-5.7" class="b"/><path d="M9 91.8h6.9c1.5-.1 2.9-1.1 4.3-1.5q3.4-1.4 7-2 5.5-.8 11.2.1c3.8.5 7.5 1.6 11.3 2 5 0 9.7-2.3 14.7-3a29 29 0 0 1 11.2.3c3.5.8 6.9 2 10.4 1.9 7.6.2 15-3.4 22.6-2.2 2.7.5 5.2 1.9 7.8 3 1 .5 2.2 1.3 3.4 1.4h52.8c1.6.1 3-.8 4.4-1.4q3-1.5 6-2.5" class="b"/><path d="M9 87q3 .2 6 0 4-2.3 8.7-3.2c6.5-1.3 13 1 19 3.2q5.3.2 10.4 0h2.6c1.2 0 2.4-.8 3.5-1.3q3.4-1.6 7-3 5.4-1.8 11.2-1c4 .6 8 1.4 12.1 1.4 5.8.2 11.6-.5 17.3.5q3.6.8 7 2.4 1.2.7 2.6 1H183" class="b"/><path d="M9 82.4h4.3c2.7-1.6 5.5-3.3 8.6-4 6.1-1.6 12.1 1 17.4 3.9 5.1.3 10.4 0 15.6 0h4.3c1.8-.6 3.5-2.1 5.2-3.1 7.9-5.2 12.5-6 21.6-4.1 7 1.3 14 2.3 20.8 4q3.6.9 7 2.2 1.2.6 2.6 1H183" class="b"/><path d="M9 77.7c3.6 0 3 .2 6-1.8q3.6-2.6 7.8-3.8c4.5-1.1 9.2.6 13 3.1l3.5 2.4h16.4c6.4 0 4.6.8 9.5-3.2 7.1-5.7 12.4-8.8 21.7-6.6l12.1 3q6.1 1.6 12.2 3l8.6 2.6c1.7.4 3.5 1.3 5.2 1.3h58" class="b"/><path d="M9 73c3.6 0 3.2 0 6-2s5.5-4 8.7-4.8c4.6-1.4 9.3.9 13 3.7l3.4 2.7q1.3.5 2.6.4h13.9c7.1 0 5 .6 10.4-3.8 9.6-8 13.7-9.2 26-6.5s25.6 2.7 37.2 8.5l3.5 1.8H183" class="b"/><path d="M9 68.3q2.1.1 4.3-.2l5.2-4c9.7-7.4 15.5-2.8 23.4 4.2h21.6l1.8-1c6-4.5 12-10 19.9-10.2 4.6-.3 9.2 0 13.8-.1 5.5-.2 11-.6 16.5.2q7.4.8 13.9 4.5 3.5 2.1 6.9 4.5c1 .7 2.2 1.8 3.4 2h43.4" class="b"/><path d="M9 63.6h3.4q1.4.1 2.6-.4c3.3-2.6 6.4-5.6 10.4-7 6-2 11.4 2.4 15.6 6.1.6.6 1.6 1.5 2.6 1.3H66c13.2-8.8 13.2-8.7 28.6-11.4 4.3-.8 8.6-2 13-2.7q6-.4 12.1.6c9.2 1.5 15.8 8.5 23.4 13.3 1.6.4 3.5 0 5.2.2h34.7" class="b"/><path d="M9 58.9h6.9c1.6-.7 2.9-2.3 4.3-3.2C29 49 34.5 52.8 42 58.9h25.9c1.6-.3 3-1.5 4.4-2.2q4.5-2.9 9.5-4.7c4.6-1.5 9.3-2.5 13.9-4 4.8-1.5 9.6-3.7 14.7-4a34 34 0 0 1 25.1 7.5c2.8 2 5.6 4.2 8.7 5.8q1.5 1.1 3.4 1.6H183" class="b"/><path d="M9 54.2h8.6c6.3-5 11.6-7.7 19-3.2q2.3 1.4 4.4 3 1.3.3 2.6.2h26c3.8-1.5 7.4-3.8 11.3-5.3 4.5-1.8 9.3-3 13.8-4.7s9.1-4 13.9-5.2q5.2-1 10.4-.7 6.1.8 11.2 4.2c3.6 2.3 6.9 5.2 10.4 7.5q4.1 2.7 8.7 4.1H183" class="b"/><path d="M9 49.5h9.5c7.7-6.2 13.4-6 21.6-1l1.8 1h27.7L73 48c3.5-1.3 6.9-3.3 10.4-4.5 4.6-1.5 9.4-2.6 13.9-4.4 4.6-1.7 9-4.1 13.8-5.3 8.5-2.2 14.2-.3 20.8 5.1 6.7 5.5 9.4 8.4 18.2 10.5h33" class="b"/><path d="M9 44.8h9.5c10.2-7.8 15.4-4.4 26-.3 1.3.5 2.9.2 4.3.2h6c3.8 0 7.6.3 11.3-.2q5.3-.7 10.4-2.7c2.6-1 5-2.5 7.8-3.2 4.6-1.2 9.4-1.6 13.9-3 5-1.5 9.7-4 14.7-5.7 7.5-2.8 13.3.1 19 5.1 8 7.1 10.3 9.8 21.7 9.7H183" class="b"/><path d="M9 40h6c1.1 0 2.4.2 3.5-.2q2.4-1.9 5.2-3.1c3.5-1.7 7.5-2 11.2-1.2 3.8.7 7.5 2.3 11.3 2.6q2.2.2 4.3-.2h6c7.6.4 15.5 1.5 22.6-1.7 5.6-3.1 12.2-1.8 18.2-2.8q5.4-.9 10.4-3.2c6-3 11.5-6.2 18.2-2.7 3.9 2 7 5.1 10.4 8 2 1.7 4.2 3.6 6.9 4.3 2 .5 4 .2 6 .3 3 0 5.9-1 8.7-1.4a33 33 0 0 1 13 0c1.7.2 3.5 1 5.2 1.4h7" class="b"/><path d="M9 35.4h8.6c1.3 0 2.4-1.4 3.5-1.9q2.9-1.7 6-2.6c5.8-1.7 11.6.4 17.3 1 3.2.5 6.4-.6 9.6-.3 7.8.4 15.5 4 23.4 2 2.5-.7 5-2 7.8-1.9 4 0 8 .8 12.1.6 12.8-.2 18.3-11.8 29.5-6.7 5.1 2.3 8.9 6.8 13.8 9.5 2 .5 4.1.1 6 .3h4.4q3.5-1 7-2.2c4-1.4 8.6-2.2 13-1.6q3.1.4 6 1.9l3.4 1.9h2.6" class="b"/><path d="M9 30.6h10.3c1.5-.3 3-1.3 4.4-1.8q3.7-1.5 7.8-1.6c5-.2 9.8 1.3 14.7 1.2 2.3 0 4.6-.7 7-.5 4.6.2 9.2 1.5 13.8 2.2q5.2 1 10.4.2c1.4-.2 2.9-.8 4.3-1 2.6-.4 5.3.2 7.8.8q3 .8 6 .5h8.7c2.8 0 5.5-2 7.8-3.3 5-3.3 10.7-5 16.5-2.5 3.6 1.6 6.9 4 10.4 5.8h12q4.4-1.4 8.8-2.9a31 31 0 0 1 15.5-.6c2.8.7 5.2 2.6 7.8 3.5" class="b"/><path d="M9 26h16.4c3.2-.1 6.4-.5 9.5-.2q5.7.3 11.3.1h65q1.7.2 3.4-.1l2.6-1.2q4.2-1.5 8.7-1c2.7.4 5.2 1.7 7.8 2.3H151c1.8.1 3.5-1 5.2-1.4a39 39 0 0 1 7-1.5q6-.5 12 0c2.7.3 5.3 1.6 7.9 2.4M9 21.2h146.3q3.4-.9 7-1c3.1-.3 6.3 0 9.5 0 1.4 0 3-.4 4.3-.3 2.3 0 4.7.7 7 1.2M9 16.5h174" class="b"/></svg>