<svg xmlns="http://www.w3.org/2000/svg" id="a" width="1920" height="2400" viewBox="0 0 192 240"><defs><style>.c{stroke-width:0;fill:#f63}</style></defs><path d="M0 0h192v240H0z" style="stroke-width:0"/><path d="M8.4 225.2c9.9-.5 19.8-1.2 29.7-1q4.8 0 9.5.4c2.3.3 5 .2 7 1.4 3-1.3 6.4-1.3 9.6-1.4a136 136 0 0 1 22.7 1.3c1.7.3 3.6.4 5.2 1.3 4.5-1.4 9.3-1.4 14-2 4.5-.2 19.3-1.6 22.6 1 2.7-2 10.5-1.7 14-1.7q4.8 0 9.5.8c2.8.4 5.7 1 7.9 2.9.8-.4 1.7-1.3 2.6-1.7q3-1.2 6-1.6 7.5-1.3 14.9-1.3" class="c"/><path d="M8.4 223.3c9.9-.6 19.8-1.4 29.7-1.3q5.2 0 10.4.5c2.3.2 4.8.2 7 1.2 6.2-1.6 12.8-1.2 19.2-.8q3.4.2 7 .7c1.4.3 3.2.3 4.3 1.5q1-1 2.6-1 2.2-.4 4.4-.5l10.4-.7c4.6-.1 23.7-1.7 26.1 1.2 1-1.2 3-1.2 4.4-1.4q3.5-.3 7-.3c4 0 16.2.2 18.3 3.5l.9-.6.8.4c3.4-3.7 17.5-4.1 22.7-4.3" class="c"/><path d="M8.4 222.3c3.3-1.2 7-1.2 10.5-1.6a218 218 0 0 1 34.8.1q2 .1 3.5 1 2.1-.9 4.4-1a56 56 0 0 1 14.8.6c1.2 0 2.4.8 3.5.7q3-.8 6-.8l8.8-.5q10-.5 20-.7a87 87 0 0 1 14 1 3 3 0 0 0 1.7.4c4.5-2 24.5-1.7 28 1.6q1.2-.4 2.5-.3l.9.6c2.5-3.5 17.3-4 21.8-4.1" class="c"/><path d="m8.4 219 3.5.3c.8 0 1.8.5 2.6.5q2.5-.9 5.3-1a180 180 0 0 1 36.6 0c1.2.2 2.7.3 3.5 1.4 1.2-1.4 3.5-1 5.2-1.2q4 0 7.8.9c3.6-1.2 7.6-1 11.3-1.2q8.8-.4 17.5-.6 8.3-.3 16.5-.2c4.1.1 8.4.2 12.2 1.6 4.2-2.1 17-1.3 21.8-.6q2.9.3 5.3 1.6c.4.1 1.3 0 1.7-.2a6 6 0 0 1 3.5.3q3.7-1.8 7.8-2.3 6.6-1 13.1-1.1" class="c"/><path d="M8.4 216.6c2.9.1 6 0 8.7 1 5.4-1.3 11-1.5 16.6-1.6q10-.2 20 .3c4.4.2 8.7 1 13.1.8 11.9-1 23.8-1.1 35.7-1.4h15.7c4.1.1 8.3.3 12.2 1.6q2.5-1.1 5.2-1 3.5-.4 7-.3c5 .2 10.2.2 14.8 2.3a7 7 0 0 1 3.5-.7q2-.2 3.5.9c2.6-2.9 15-3.2 19.2-3.4" class="c"/><path d="M8.4 214.3q4.4-.1 8.7.5c1.2 0 2.4.7 3.5.7 1.9-.8 4.1-.9 6.1-1.1q4.4-.4 8.7-.5 8.8-.1 17.5.2c4.9.2 9.9.6 14.8.3a784 784 0 0 1 51.4-.8q3 .1 6 .5 2.4.2 4.4 1.2a67.5 67.5 0 0 1 21.8-.7c1.8.2 3.8.4 5.3 1.6 1.1-1 2.9-1 4.3-1q2.8-.1 5.2.7c3.6-2.4 13-2.6 17.5-2.8" class="c"/><path d="M8.4 212q4.4 0 8.7.4 2.8.1 5.3 1.1 3.3-1 7-1.2l9.5-.4c11.3-.2 22.7.7 34 0a675 675 0 0 1 47-.3q3.1.2 6.2.7c1.2.2 2.7.4 3.5 1.5 1-1.3 2.8-1.3 4.3-1.6a70 70 0 0 1 17.4.3c1.5.2 3.4.3 4.4 1.7 1.2-1.5 3.5-1.2 5.2-1.4q3.7-.2 7 .9c3.4-2.2 11.5-2.3 15.7-2.6" class="c"/><path d="M8.4 209.9c5.6 0 11.2 0 16.6 1.5q2.9-1 6-1 4-.4 8-.4 10.8-.2 21.7 0c6.1 0 12.2-.5 18.3-.6q12.7-.4 25.3-.3 10 0 20 1 1.8 0 3.5.7l.9.4h.8c3.3-2 23-2.1 25.3.5 1.6-1.4 4.1-1 6.1-1.3 3 0 6 0 8.7 1.2 2.8-2.2 10.3-2.2 14-2.5" class="c"/><path d="M8.4 207.8q5.2 0 10.5.3 4 .1 7.8 1.4c2.1-1 4.7-1 7-1.2l10.5-.4q14.3.1 28.7-.5a488 488 0 0 1 47 .3q2.7.2 5.3.6 2 .2 3.5 1.3c1.1-1 2.9-1.2 4.4-1.4a66 66 0 0 1 20.9 1c3-1.3 6.4-1 9.6-1q2.2 0 4.3.2c1.2.2 2.7.4 3.5 1.3 1-1.2 2.9-1.4 4.4-1.7q3.8-.6 7.8-.8" class="c"/><path d="M8.4 205.7c6.7 0 13.6 0 20 1.7 2.2-.9 4.7-.8 7-1q4.8-.3 9.6-.4 12.2-.1 24.4-.6a430 430 0 0 1 49.7.3c2.9.4 6.2.2 8.7 1.8 3.8-1.6 8.1-1.5 12.2-1.7q3.5 0 7 .2 2.7 0 5.2 1c2.2-1.6 19-1.7 21 .5 3-2 6.9-1.8 10.4-2.1" class="c"/><path d="M8.4 203.8a139 139 0 0 1 17.5.8c1.1.2 2.5.3 3.4 1.2 1.8-1.2 4.1-1 6.1-1.3l9.6-.4q12.3-.2 24.4-.8a377 377 0 0 1 49.7.6q3 .2 6.1.9c.8.2 1.8.8 2.6.8q2.1-1 4.4-1.1a65 65 0 0 1 17.4.2 60 60 0 0 1 25.3.5c.8 0 1.8-.7 2.6-.8q3-.7 6-.8" class="c"/><path d="M8.4 202a139 139 0 0 1 18.3.7 8 8 0 0 1 3.5 1c2-1.2 4.7-.9 7-1.1q5.6-.4 11.3-.5l27.9-1.2a294 294 0 0 1 42.7 1.4l4.4.7c1.2.2 2.7.6 3.5 1.6 1.4-1.6 4-1.4 6-1.7q2.2-.2 4.4-.1c.8 0 2 0 2.6.5q1.2-.8 2.6-.9l4.4-.4a166 166 0 0 1 25.3 0 24 24 0 0 1 5.2 1.2c1.8-1 4-1.1 6-1.4" class="c"/><path d="M8.4 200.2q6.1-.2 12.2.1c3.2.3 6.6.4 9.6 1.4 1.9-.8 4.1-.7 6.1-1l8.7-.3 22.7-1a296 296 0 0 1 41.8.3q4.6.3 8.7 1.6 2.2-.5 4.4-.3 1.8 0 3.5 1c3.5-1.6 7.5-1.9 11.3-2.2q7.8-.6 15.7-.5t15.7.5c3.5.3 7.2.2 10.4 1.7 1.2-1 3-1 4.4-1.3" class="c"/><path d="M8.4 198.7c6.7-.3 13.5-.3 20 1.2 2.3-.8 4.7-.7 7-.9l11.4-.3q14.3-1 28.7-1.8a207 207 0 0 1 30.5 1c.8.1 1.8.6 2.6.5 2.8-.7 5.9-.5 8.7-.4q4.6-.2 8.7 1.3 2.1-1.3 4.4-1.4 3.5-.6 7-.7 8.7-.5 17.4 0l14.8.8 6.1.5c1.8.2 3.7.3 5.3 1.2q1-.9 2.6-1" class="c"/><path d="M8.4 197.9c1.4.4 3-.3 4.4-.3 2.6 0 5.3-.2 7.8.5q4-.5 7.9-.6c1.7.1 3.6-.1 5.2.6 1.5-.9 3.5-.8 5.2-1q4.4-.4 8.7-.4 2.2-.1 4.4.5 2.2-.6 4.4-.8a300 300 0 0 1 38.3-1.4c2.3.2 4.9.1 7 1.2q3-1 6-.8a114 114 0 0 1 13.1.4c1.5.1 3.3.2 4.4 1.3 4-3.5 26.4-2.5 32.2-1.7 1.5 0 3 .7 4.4.8q4-.6 7.8 0 2.8 0 5.3 1c2.3 0 4.8-.4 7 .6.4 0 1.3-.3 1.7-.5" class="c"/><path d="M8.4 195.2q3.5.5 7 .7l12.2-1.1a188 188 0 0 1 28.8-.6c1 0 2.3.6 3.4.6q.9-.4 1.8-.5a134 134 0 0 1 24.4-1.6c4 0 8.2.1 12.2 1.2q2.5-.8 5.2-.8a108 108 0 0 1 19.2.6q1.3.5 2.6.8c4-2.7 27-2.8 31.4-.7 5.3-1.6 21.5-.6 26.1 2.5l.9-.2" class="c"/><path d="M8.4 192c12.5.6 25-.7 37.5-.7q5.3 0 10.5.2c2.5.2 5.3.1 7.8 1q1 .2 1.7-.3l2.6-.5a104 104 0 0 1 21-.7c1.7.1 3.6 0 5.2.9 2.4-1 5.2-1 7.8-1.1a130 130 0 0 1 17.4.4q2.3 0 4.4 1c1.2 0 2.3-.8 3.5-1q5.6-1 11.3-1c5.3 0 10.6 0 15.7 1.4 6-2.1 22.7-.6 28.8 1.5" class="c"/><path d="M8.4 189.3c12.8.4 25.6-.5 38.4-.5q7 0 13.9.4 2.7.2 5.2.6c.8.2 1.8.7 2.6.7 3.2-1.4 7-1.2 10.5-1.5 4.3 0 8.8-.3 13 .8 3.9-2 28.6-2 32.3.1 1.2 0 2.2-.8 3.5-1a72 72 0 0 1 21-.5c1.4.2 3.1.2 4.3 1.3.9-.9 2.3-1 3.5-1.2l6-.3q10.5-.2 21 1.8" class="c"/><path d="M8.4 186.8c13.4.3 26.8-.5 40.1-.3q6.6 0 13 .4c3.3.3 6.8.3 9.7 2 1.4-1.2 3.5-1.2 5.2-1.4a68 68 0 0 1 13 0c6.6-1.3 13.4-1.3 20.1-1.3q4.4 0 8.7.4 3.7 0 7 1.3c2.3-2.4 25-3 27-.4.9-.9 2.3-1 3.5-1.2q3-.4 6-.5 11.1-.1 21.9 1.4" class="c"/><path d="M8.4 184.4c13.7.3 27.3-.5 41-.2q7.5.1 14.8.7 3.5.3 7 1.1c.8.2 1.7.8 2.6.9 1.2-.7 2.9-.8 4.3-1q2.2 0 4.4.2c6.8-1.6 14-1.9 20.9-2a184 184 0 0 1 18.3.6q2 0 3.5 1.2c3-2.6 22.8-3 26.1-.8 3.9-1.5 8.2-1.5 12.2-1.6q10-.1 20 1" class="c"/><path d="M8.4 182.2c16 .2 32-.8 48 0q5.7.3 11.3 1.1c2.7.4 5.7 1 7.8 2.9.7-1.2 2.2-1.8 3.5-2.1q2.6-.7 5.2-1 7.9-1 15.7-1.1 7.9-.3 15.7 0c3.5.3 7.2.3 10.5 1.6a48 48 0 0 1 25.3-.6c1.2-.9 2.9-1 4.3-1.2q3.5-.5 7-.6 10.5-.1 20.9.8" class="c"/><path d="M8.4 180c12.5.2 25-.6 37.5-.2q6.1 0 12.2.6c2.6.3 5.5.2 7.8 1.5 2.2-.9 4.7-.5 7-.4 1.5.2 3.4.2 4.4 1.6 1.7-3.3 24.2-3.3 28.7-3.3q6.1 0 12.2.3c2.6.2 5.6 0 7.9 1.3 3.8-1.5 8-1.7 12.2-1.8q6.6-.4 13 1 2.5-1 5.3-1.2l7-.5q10-.2 20 .6" class="c"/><path d="M8.4 178c11.3 0 22.7-.7 34-.4q5.3 0 10.5.4c2.3.3 4.8.3 7 1.2q5.2-1.1 10.4-.7c3 .2 6 .4 8.7 1.6a8 8 0 0 1 3.5-1.2l5.2-.7q6.6-.4 13.1-.5 7.5 0 14.8.2c3.5.2 7.1 0 10.5 1l.8 1.1 1-1c3.8-1.4 8-1.4 12.1-1.5 3.8-.1 7.7 0 11.3 1.1 1.6-.9 3.5-1 5.3-1.3q3.5-.4 7-.5c6.6-.4 13.3 0 20 .3" class="c"/><path d="M8.4 176.1c10.5 0 21-1 31.4-.7l8.7.3c2.3.3 4.8.3 7 1.2 3.2-1.6 21.9-1.6 24.4 1 2.8-1.8 6.4-1.6 9.6-2q7-.4 13.9-.3l14 .3c3.4 0 7.1 0 10.4 1.4 2.3-2.1 21.6-3 23.5-.4q1.5-1.3 3.5-1.4 3-.6 6.1-.7c7.6-.6 15.1-.3 22.7 0" class="c"/><path d="M8.4 174.9q2.2-.4 4.4.1 3.8-.9 7.8-1a186 186 0 0 1 27-.3l2.6.5q.9.3 1.8.2c5.1-1.4 24.8-1.8 28.8 1 3.2-1.5 7-1.5 10.4-1.7q7-.2 14-.2l13 .3c3.2.2 6.7-.2 9.6 1.3.9 0 1.8-.6 2.6-.8q4.7-1 9.6-1 4.4 0 8.7.3c1.2 0 2.4.8 3.5.7 1.6-.9 3.5-1 5.2-1.3q3.5-.5 7-.6 9.6-.5 19.2 0" class="c"/><path d="M8.4 171.7c4.6 0 9.4-.2 14 .7 1.9-.7 4-.7 6-1a121 121 0 0 1 14.9 0q2.7.1 5.2 1c1.6-.8 3.5-.8 5.2-1a163 163 0 0 1 21 0 43 43 0 0 1 6 1.3l1 1c.6-1.2 2.1-1.4 3.4-1.6q2.6-.4 5.2-.5 9.2-.3 18.3 0l10.5.3q3 0 6 .3 2.1 0 3.6 1.3c2-2.7 20.6-3 23.5-1.2.8 0 1.8-.6 2.6-.8q4.4-1 8.7-1.1a206 206 0 0 1 20-.2" class="c"/><path d="M8.4 169.2H19c2.6.2 5.3.2 7.8 1A47 47 0 0 1 46 170c4.2-1.1 8.7-1 13-1.3q7-.3 14 .2c2.9.3 6.1.4 8.7 1.8.9 0 1.8-.6 2.6-.7q2.2-.4 4.4-.5c6.6-.5 13.4-.1 20 .1q5.3.3 10.5.2c3.5 0 7.1 0 10.4 1.2 1.3-.9 3-1 4.4-1.3q3.5-.6 7-.7c4.3-.1 8.8-.1 13 1q2.1-1 4.4-1.2l7-.7q9-.5 18.3-.2" class="c"/><path d="m8.4 166.8 13 .1c2.7.3 5.5.1 8 1 3.6-1 7.5-.8 11.3-.7l2.6.3q1.3.5 2.6 0c5.7-.9 11.6-.9 17.4-1.1a82 82 0 0 1 17.4 1.6 4 4 0 0 0 1.8.6c1.2-.8 2.9-.9 4.3-1q3-.4 6.1-.4 8.2 0 16.6.7 5.6.3 11.3 0 2.7 0 5.2.2 2 0 3.5 1c4.4-2 9.3-2 14-2.2q3.5 0 7 .2 2.2 0 4.3 1c3.6-1.5 7.5-1.6 11.3-2q8.8-.4 17.5-.3" class="c"/><path d="M8.4 164.5a202 202 0 0 1 19.2.6q1.8 0 3.5.9c1.7-1.1 4-.8 6-1 2.4.2 5-.1 7 1 1.6-1 3.6-.9 5.3-1.1a172 172 0 0 1 23.5-.3c2.9.3 6.1.4 8.7 1.8q5.6-1.5 11.4-1.3 9.6.2 19.1 1.4c6 .5 12.4-1.6 18.3.5a51 51 0 0 1 26.2-1c3.3-1.3 6.9-1.6 10.4-1.9q8.2-.5 16.6-.4" class="c"/><path d="m8.4 162.3 14 .1c2.8.3 6 .2 8.7 1.1q3.4-.7 7-.6 3-.2 6 .6.9 0 1.8-.2l2.6-.5a180 180 0 0 1 25.3-.3c2.6.4 5.4.6 7.8 2 3-2.5 22.4-1.5 26.1.3a20 20 0 0 1 11.4.3q3.4-1 7-.9c1.4.1 3.2 0 4.3 1 1.4-1.2 3.5-1.4 5.2-1.7a74 74 0 0 1 23.6.4c1.2-.8 2.9-1 4.3-1.3l5.3-.5q7.3-.5 14.8-.4" class="c"/><path d="M8.4 160.2h13c3 .3 6 .2 8.8 1 .8.2 1.8-.2 2.6-.3q3-.4 6.1-.3c2.3.1 4.9 0 7 1 3.8-1.4 8.2-1.1 12.2-1.4q7.4-.4 14.8.2c2.6.4 5.5.5 7.8 1.9 2.7-2.3 20.2-1.5 23.6.1.8.1 1.8-.4 2.6-.4a41 41 0 0 1 13 .3c.8.1 1.8.7 2.6.7q2.2-.7 4.4-.6 1.8-.1 3.5.6c4.9-2.2 10.4-2.2 15.7-2.5q6.1-.2 12.2.4c1.1 0 2.3.8 3.5.8 2.6-1.3 5.8-1.3 8.7-1.6q6.5-.5 13-.4" class="c"/><path d="M8.4 158.1q6.6-.2 13 0c2.7.3 5.6 0 8 1.3a36 36 0 0 1 18.2 0c3.6-1.2 7.6-1 11.4-1.3a92 92 0 0 1 13 .3c2.3.3 5 .4 7 1.5a69.2 69.2 0 0 1 19.2-.7c1.4.3 3 .4 4.3 1.2 4-1.3 8.2-1 12.2-1l5.3.5c1.4.2 3.2.5 4.3 1.5q1.2-.8 2.6-.8 1.8-.1 3.5.5c2-1.2 4.6-1.6 7-2q4.7-.6 9.6-.8c5.8-.2 11.8-.3 17.4 1.4 2.1-1.2 4.7-1.2 7-1.5q6-.5 12.2-.5" class="c"/><path d="M8.4 156.1q5.7-.2 11.4 0c2.5.2 5.4 0 7.8 1a51 51 0 0 1 21-.2q1.2.7 2.5 0c2.9-.6 5.8-.6 8.7-.8a83 83 0 0 1 15.7 1q.9.2 1.8.6c.4.1 1.3-.1 1.7-.4 4-.9 8.2-.7 12.2-.6q4 0 7.8.8c.8.1 1.8.7 2.6.7 1.6-.8 3.6-.8 5.3-1h7c4 .2 8.3.4 12.1 2 1.4-.7 3-.4 4.4-.2 4.9-3.3 31.3-4.1 36.6-1.2 3-2 12.5-1.7 16.6-2" class="c"/><path d="M8.4 154.2q5.2-.4 10.5-.1c2.3.2 4.9 0 7 1 4-1.5 8.7-1.3 13-1.4 4.4.1 9 0 13 1.7 2.8-1.6 21.8-2 23.6.6 2-2.5 22-2 24.4.2 1.9-1 4-1 6.1-1.2a79 79 0 0 1 8.7 0c4.1.5 8.6.4 12.2 2.4q1.3-.4 2.6-.3c5.5-3.3 22-3.4 28.8-3.2q3.5.2 7 .6c1.4.2 3.3.3 4.3 1.5 1.4-1.3 3.5-1.3 5.3-1.6q4.3-.4 8.7-.5" class="c"/><path d="M8.4 152.3q4.8-.3 9.6-.1c2 0 4.3 0 6.1 1 2.8-2.5 27.3-2.5 29.6.5q1.7-1.1 3.5-1a63 63 0 0 1 11.4-.1c1.4.2 3.1.3 4.3 1.2 2.1-1.1 4.7-1.3 7-1.5a85 85 0 0 1 15.7.6c1.2.2 2.7.5 3.5 1.6 1.2-1.6 3.4-1.3 5.2-1.6a79 79 0 0 1 16.6.8c2 .3 4.5.5 6 2h1c4.6-4.7 38.6-5.3 44.4-2 3.6-1.2 7.5-1.3 11.3-1.6" class="c"/><path d="M8.4 150.6q4-.5 7.9-.3c1.7.1 3.7 0 5.2 1 4.8-3 29-2.8 34 .1q1.3-.2 2.6-.5a44 44 0 0 1 9.6 0q1.5 0 2.6 1.2c1.9-2.4 12.4-2 15.7-2q4 0 7.8.6c1.5.2 3.4.3 4.4 1.6q1-1 2.6-1.2 2.2-.3 4.4-.3c6 0 12.4.2 18.3 2 1.4-.5 3 0 4.3.2 2-1.4 4.7-1.6 7-2.1q5.6-.9 11.3-1.2 8.8-.5 17.4 0c4.2.3 8.3.7 12.2 2 2.4-1.1 5.3-1 7.9-1.3" class="c"/><path d="M8.4 149q3-.4 6.1-.4c1.4.1 3.2 0 4.4 1 1.1-1.1 2.9-1.3 4.3-1.6q4-.7 7.9-.9c7-.3 21-.5 27 2.7 1.2-.8 3-.7 4.4-.8q2.6 0 5.2.8c3.4-2.7 26.2-2.6 29.6 0 3.5-1.5 7.6-1 11.3-1q2.2 0 4.4.3 2 .2 3.5 1.2c1.2-.9 3-.8 4.4-.8q2.6 0 5.2.6a3 3 0 0 0 1.7.3q1.2-.7 2.6-1a131 131 0 0 1 41.9-1c2 .4 4.3.6 6 1.8 1.5-1.1 3.6-1.1 5.3-1.4" class="c"/><path d="M8.4 147.7q3.6-.9 7 0c6.2-4 38.7-4.2 44.4.5q1.7-.7 3.5-.4l1.8.2c3.5-2.1 10.6-2.1 14.8-2.3q7-.2 14 1c1 0 2.2.8 3.4.8 3-1.3 12.7-1.1 15.7.3.8 0 1.8-.5 2.6-.6q2.6-.3 5.2-.2c2 .3 4.7 0 6.1 1.7 1.2-1.6 3.5-1.6 5.3-2q4.7-.9 9.6-1.1a171 171 0 0 1 23.5 0c5.2.5 10.7.8 15.7 2.6q1.2-.6 2.6-.8" class="c"/><path d="m8.4 147 .9.4c5-6.2 48.8-7 53.1.2 1.7-4 14.4-3.9 18.3-4 3.6.1 13.2 0 15.7 2 2.1-1 4.7-.8 7-1q4 0 7.8 1.2c2.2-1.6 13.4-1.8 14.9.5 1.1-1.5 3.4-1.6 5.2-2q5.2-.7 10.4-1a173 173 0 0 1 37.5 2.2c1.2.2 2.4 1 3.5 1.2l.9-.4" class="c"/><path d="M8.4 143.5q.9.1 1.8.7c1.3-1.3 3.4-1.6 5.2-2q3.5-.8 7-1.1a122 122 0 0 1 33 .9q3 .5 5.3 2.1 1.2-.7 2.6-.3l.9.7c1.6-2.6 10.8-2.7 14-2.9 6 0 12.3 0 18.2 1.7 2-.7 4.1-.6 6.1-.6q3.6-.2 7 1.1c2.2-1.8 13.6-2 15.7 0 1.4-1.1 3.4-1.4 5.2-1.7q3.5-.5 7-.7a168 168 0 0 1 30.5.6q4 .4 7.8 1.6c.8.3 1.8 0 2.6 0 1.8 0 4-.2 5.3 1.2" class="c"/><path d="M8.4 140.7q1.5.2 2.6 1c1.3-1.3 3.5-1.5 5.3-2l7.8-1a124 124 0 0 1 30.5 1c1.5.4 3.3.8 4.4 2 .9-.9 2.3-.9 3.5-.9q1.7 0 3.4.7c4.7-1.8 9.9-1.8 14.8-2q4.5 0 8.8.5 3.1.2 6 1.3c2.4-1.1 10-1 12.3.3.8 0 1.8-.6 2.6-.8a35 35 0 0 1 12.2-.2c.8 0 1.8.6 2.6.6 6.5-3.3 36.5-3 43.5-.4.5.1 1.4 0 1.8-.1l2.6-.2c3.5 0 7.1-.1 10.5.8" class="c"/><path d="M8.4 138.2q1.9.3 3.5 1a8 8 0 0 1 3.5-1.4l6.1-1a127 127 0 0 1 30.5.5c1.8.4 4 .6 5.2 2 1.4-1.2 3.5-1 5.3-1q3.2-.1 6 1c1.3-1 3-1 4.4-1.3l7-.4c5 0 10 0 14.8 1.6 2.4-1 9.8-1 12.2.3.8 0 1.8-.6 2.6-.8q3-.6 6.1-.7c2.9 0 6-.3 8.7 1 .8 0 1.8-.6 2.6-.8q3-.6 6.1-1a136 136 0 0 1 25.3 0c2.3.3 4.9.4 7 1.5 2.6-1.6 15-.8 18.3 0" class="c"/><path d="M8.4 135.9a21 21 0 0 1 4.4.9c5.3-3.2 38.3-4 42.7.2 2.5-1.8 8.2-1 11.3-.9l2.6.4q1.3.6 2.6 0c4.8-1.1 16.4-1.2 21 .5a36 36 0 0 1 12.1 0l1.8.4a30 30 0 0 1 17.4-.6q1-.1 1.7-.5 1.8-.5 3.5-.7a120 120 0 0 1 28-.4c1.7.3 3.9.2 5.1 1.6.9-1 2.3-1 3.5-1.2l4.4-.2c4.3 0 8.8 0 13 .8" class="c"/><path d="M8.4 133.6q2.2.1 4.4 1c.8 0 1.8-.6 2.6-.8a130.8 130.8 0 0 1 31.4-1c2.3.3 4.9.5 7 1.8 1.1-.9 2.9-.9 4.3-1a60 60 0 0 1 7 0c2.5.3 5.4.2 7.8 1.2 3-1 6.4-1 9.6-1q4.9-.1 9.6 1.1c2.5-.8 5.3-.6 7.8-.6 2 .2 4.4 0 6.1 1.3 2.5-1.7 5.8-1.6 8.7-1.9a27 27 0 0 1 10.5 1c4.3-2.8 31.3-3 35.7-.5 3.4-1 7-1 10.5-1.1q6.1-.1 12.2.7" class="c"/><path d="M8.4 131.4q2.7.1 5.3 1.1c3.3-1.3 6.9-1.5 10.4-1.8a130 130 0 0 1 21.8.2c1.7.3 3.9.3 5.2 1.7 2-1.8 9.3-1.3 12.2-1.3q4.9.1 9.6.7c1.1 0 2.4.7 3.5.5 2.2-.6 4.7-.5 7-.5q3.5 0 7 .8c2.4-.7 5.2-.6 7.8-.6s5.4 0 7.8 1.2c2.7-2 16.3-2.6 19.2-1q4.3-1.2 8.7-1.6a123 123 0 0 1 20 0c2 .3 4.4.3 6.1 1.4 3.4-1.2 7-1.2 10.5-1.3q6.6-.2 13 .6" class="c"/><path d="M8.4 129.3c2 .2 4.2.2 6.1 1 .9 0 1.8-.5 2.6-.6q3.5-.7 7-.9a125 125 0 0 1 20 .4q2 0 3.5 1 3-1.1 6.1-1 4.4-.3 8.7-.1 8.8.2 17.5 1.5 3.9-.7 7.8.2c2.8-.7 5.9-.6 8.7-.7q4.9-.1 9.6 1c3-1.8 17-2.5 20-.7q3.9-1.3 7.9-1.6a110 110 0 0 1 19.2 0q3.6 0 7 1.4c1.2-.8 2.9-1 4.3-1.1l5.2-.3q7-.2 14 .4" class="c"/><path d="M8.4 127.3q3 0 6.1.5c1.1.1 2.4.8 3.5.1q6.5-1.2 13-1c3.8.1 7.8 0 11.4 1.2 1.9-1 4.1-.9 6.1-1q4.4-.4 8.7-.3 11.8.2 23.5 1.4c5.3.5 10.5-.3 15.7-.2 3.2 0 6.6 0 9.6 1.1q2.1-1 4.4-1.2a66 66 0 0 1 14-.4c1 0 2.3.6 3.4.6 1.9-.9 4.1-1 6.1-1.2q4.4-.5 8.7-.5a60 60 0 0 1 17.5 1.7c2.9-1.4 6.4-1.2 9.6-1.4q7-.2 13.9.4" class="c"/><path d="m8.4 125.2 11.4.5c3.1.2 6.4.5 9.5 0q19.6-2 39.3-.5c6.6.3 13.3 1.1 20 .9q5.7-.2 11.3 0c2 .2 4.5-.2 6.1 1.3q1.5-1.3 3.5-1.4a63 63 0 0 1 16.6-.6c1.1 0 2.3.7 3.5.5q3-1 6-1 4.5-.4 8.8-.4c5.2 0 10.7 0 15.7 1.7 2.6-1.4 5.8-1.2 8.7-1.5q7.4-.2 14.8.2" class="c"/><path d="M8.4 123.3c11.4.2 22.7-.8 34-1a345 345 0 0 1 30.5 1.1c5.2.3 10.5.8 15.7.7 6-.1 12.4-.7 18.3.8q2.1-1 4.4-1.2a81 81 0 0 1 20.9.1c2.4-1 5.2-.9 7.8-1a114 114 0 0 1 16.6.5c1.2.2 2.7.4 3.5 1.5 1.8-3 19.5-2 23.5-2" class="c"/><path d="M8.4 121.3c11.6-.3 23.3-1.3 34.9-1.2 11 0 22 1 33.1 1.6q7 .6 14 .4c5.7-.1 11.7-.6 17.4.7q2.5-1 5.2-1.2a98 98 0 0 1 24.4.1c3.6-1 7.6-.8 11.3-.8q4.5 0 8.7.7c1.2 0 2.4.9 3.5.9 2.7-1.4 5.9-1.3 8.7-1.6 4.7-.4 9.4-.2 14-.3" class="c"/><path d="M8.4 119.4c12.8-.9 25.6-1.8 38.4-1.4 7.2.1 14.5.8 21.8 1.3 6.3.5 12.8.8 19.1 1.7q1.7-.6 3.5-.6a113 113 0 0 1 13-.3c1.5.1 3.2 0 4.4.9 1.6-1 3.5-1.2 5.3-1.4q3.3-.5 7-.8a166 166 0 0 1 27 .6c1 .1 2.3.7 3.4.7q2.6-.3 5.3-.1c1.4.2 3.1.2 4.3 1.1 2.7-1.4 5.8-1.6 8.7-2 4.7-.5 9.4-.4 14-.6" class="c"/><path d="M8.4 117.5q18.8-2 37.5-1.6c10.2.3 20.3 1.5 30.5 2.3q1.7.2 3.5.6 1.7-.5 3.5-.6c3.7-.1 7.6-.3 11.3.3.8.4 1.8-.1 2.6-.2a57 57 0 0 1 9.6-.2q1.8 0 3.5.8c4.7-3.3 48.7-4.4 51.4.4.8-1 2.3-1.2 3.5-1.3 1.4-.1 3-.3 4.4.2 1.5-.9 3.5-1 5.2-1.2l8.7-.6" class="c"/><path d="M8.4 115.7q24-3.2 48-1.1l11.3 1.2c2.6.4 5.4.3 7.8 1.3q2.6-.8 5.3-.8a181 181 0 0 1 14.8-.4q2.7 0 5.2.7 3-.6 6-.6 2.8-.2 5.3.6c.9.1 1.8-.5 2.6-.7l5.3-1a163 163 0 0 1 25.2-1.2c3.7.2 15.5.3 17.5 2.9 1.2-1.4 3.5-1.3 5.2-1.5q4-.3 7.8.5c2.5-1 5.3-.9 7.9-1.3" class="c"/><path d="M8.4 114q12.1-2.1 24.4-2.1 16.2-.3 32.3 2.1 2.2.4 4.3 1 5.2 0 10.5-.5 7.8-1 15.7-1c3.4.1 7 0 10.4 1q2.6-.5 5.3-.5 1.8-.2 3.5.9c1-1.1 2.8-1.3 4.3-1.6q4-.9 7.9-1.2a151 151 0 0 1 30.5 0c2 .4 4.7.4 6 2.2q1-1.2 2.7-1.3 1.7-.3 3.5-.3c2.5 0 5.4-.3 7.8.7q3-1 6-1.3" class="c"/><path d="M8.4 112.2c1.1 0 2.5-.2 3.5.4 1.2-1 3-1 4.4-1.3l7.8-.8q9.1-.6 18.3.3c1 .4 2.4 0 3.5 0q2.6-.3 5.2-.1 6.1 0 12.2 1c1.7.3 3.7.4 5.3 1.2q4.3-1.1 8.7-1 4 0 7.8.6a65 65 0 0 1 26.2 0c1.6-.6 3.7-.7 5.2.3 1.2-1 2.9-1.4 4.3-1.7q3-.7 6.1-1.1a133 133 0 0 1 32.3 0c1.7.3 4 .4 5.2 1.8q1.5-1 3.5-1.2l4.4-.2c2 .2 4.5-.2 6 1.2 1.4-1.2 3.6-1.2 5.3-1.6" class="c"/><path d="M8.4 109.4a287 287 0 0 1 32.3-1.8q9.6-.1 19.1 1l4.4 1c.8.1 1.8.7 2.6.7 3-1.2 6.4-1 9.6-1q6.1-.3 12.2.8c2.2-.9 4.7-.9 7-1.1q5.2-.4 10.4-.1c3 .2 6 .2 8.7 1.3 1.1.2 2.5 0 3.5.5 5.6-4.6 41.3-5.6 47-1.3a18 18 0 0 1 8-1c1.6 0 3.7-.1 5.2 1 1.3-1.2 3.5-1.2 5.2-1.6" class="c"/><path d="M8.4 106.9q21-2.7 41.8-1.6c3.6.4 12.4.7 14.9 2.9 1.2-1 2.9-1 4.3-1.2q3.5-.3 7-.3c4.6 0 9.5-.2 14 1.2 1.5-.9 3.4-1 5.2-1.1a91 91 0 0 1 19.1.4q1.4.2 2.6.8l1.8 1c5-5.6 40.6-6 47-2 1.2 0 2.4-.6 3.5-.6a19 19 0 0 1 7.9.6q1.3-.2 2.6-.7l3.5-.7" class="c"/><path d="M8.4 104.5q20-2.7 40.1-1.7c3.8.4 13 .7 15.7 3 1.8-1 4-1.1 6.1-1.3a125 125 0 0 1 15.7 0c1.7.3 3.7.2 5.2 1.2 1.5-1 3.5-1 5.2-1.3l7.9-.4c3.6 0 13.5-.2 15.7 2.7 1.4-.5 2.8-1.6 4.3-2q5.2-1.5 10.5-2a115 115 0 0 1 21.8-.1q4 .4 7.8 1.2c.8.2 2 .6 2.6 1.1a3 3 0 0 0 1.8-.3q3-.6 6-.1c.9 0 1.9.6 2.7.4 1.9-.8 4-1 6-1.5" class="c"/><path d="M8.4 102q16.5-2 33.1-1.8 7 .1 14 1 3 .3 6 1.1c.9.3 1.9.9 2.7 1 1.5-.9 3.5-.9 5.2-1a147 147 0 0 1 16.6 0c2 .1 4.3 0 6 1.2 1.2-1 3-1 4.4-1.3a79 79 0 0 1 17.5-.2q3.7.2 7 1.9 1.3-.8 2.5 0 1.5-1.4 3.5-1.9l5.3-1a108 108 0 0 1 33 .8c.5 0 1.4.4 1.8.6.4.3 1.3.6 1.8.5q1.6-.6 3.5-.5 1.7-.2 3.4.7c2.5-1.1 5.3-1.4 7.9-1.9" class="c"/><path d="M8.4 99.8q19.1-2.5 38.4-1.6 4.7.2 9.6.9c2.3.4 4.9.7 7 2 1 0 2.3-.7 3.4-.8q5.7-.5 11.3-.5 4 0 7.9.2c2 .1 4.2.1 6 1 5.1-1.5 10.5-1.7 15.8-1.7q4.3 0 8.7.6c1.5.3 3.4.5 4.3 2 1-1.3 3-1.4 4.4-.7 6-4.5 37.5-4.5 43.6-.1q1.3-.4 2.6-.5 1.8 0 3.5.4c1.2-.8 2.9-1 4.3-1.3l4.4-.7" class="c"/><path d="M8.4 97.6c11.6-1.2 23.2-2.2 34.9-1.7a97 97 0 0 1 19.2 2.5c.3.3 1.2.6 1.7.6 1.5-.8 3.5-.8 5.2-1l7.9-.3c5.2 0 10.6-.2 15.7 1 3-1.9 26.2-2.8 27.8.7q1-1 2.7-1.2t3.4.4c3.6-1.6 7.5-2.1 11.4-2.5q7.4-.6 14.8-.2c4.8.4 12.7.6 16.5 3.5 1-.8 2.4-.5 3.5-.2 1.2-1 3-1.3 4.4-1.6l6-.9" class="c"/><path d="M8.4 95.6C21.7 94.3 35.1 93 48.5 94c3.5.3 13.9.8 15.7 3.5 1-1.2 2.9-1.2 4.4-1.4l7-.4c5.7-.2 11.7-.6 17.4.8 1.5-.9 3.5-1 5.2-1.2l7.8-.6c5 0 10.2-.2 14.8 1.8q2.1-1.2 4.4-1 2.2 0 4.4.6c5-3.6 36.8-3.7 40 1.8 1.2-.4 2.4-1.3 3.5-1.8 3.4-1.1 7-1.2 10.5-1.8" class="c"/><path d="M8.4 93.9c5-.2 9.9-1 14.8-1.5q10-.9 20-.6c5.9.3 11.8.6 17.5 2q1.4.4 2.6 1a3 3 0 0 0 1.7.6c2.2-.8 4.7-.7 7-1 4.3-.6 17.6-1.8 21 .3 1.7-1.1 4-1.3 6-1.5a88 88 0 0 1 16.6-.2c1.5.3 3.4.4 4.3 1.7 1.2-1.5 3.5-1.4 5.3-1.5 2 0 4.4-.3 6 .9 4.7-3.6 34.2-3.3 37.6 1.6l.8.2c2.8-3.3 9.9-3 14-3.7" class="c"/><path d="M8.4 91.6c4-.4 8.2-1 12.2-.2Q26.2 90.1 32 90c8.2-.3 16.4-.2 24.4 1.2q2.8.4 5.3 1.5c.4.3 1.3.5 1.7.3.4.2 1.3.4 1.8.4 2.2-1.6 8-1.7 10.4-.8 3-1 6.4-1 9.6-1.1q3.5 0 7 .3c.8 0 1.8.5 2.6.4 2.9-1.7 22.7-2.8 24.4.2 1.4-1.6 4-1.4 6-1.7 2.7 0 5.5-.2 8 .8 5.8-1.9 12.1-1.9 18.2-1.7 4.5.3 12 .5 15.7 3q1.4-.2 2.6.1c.5 0 1.4-.4 1.8-.7q1.2-.6 2.6-.9c3.1-.7 6.4-.8 9.6-1.3" class="c"/><path d="M8.4 89q6.6-.6 13-.6c2.7.1 5.5-.2 8 .7 4-1.5 20.1-1 24.3.6q3-.3 6.1 0 2.4 0 4.4 1c.8 0 1.8-.7 2.6-.8q1.7-.4 3.5-.4a36 36 0 0 1 7 .2c.8.1 1.8.6 2.6.5 3.3-1 7-.9 10.4-.9l3.5.2q1.5.1 2.6 1c.9-1 2.3-1 3.5-1.3q3-.4 6.1-.6c4.1-.1 8.3 0 12.2 1.1 2.7-1.3 5.8-1.3 8.7-1.4q3.1-.1 6.1.4c.8.1 1.8.6 2.6.6 4.3-2.5 27.1-2.2 30.5 1.4 1.3-.7 3.3-.8 4.4.2 2.3-2.6 9.6-2.3 13-3" class="c"/><path d="M8.4 86.8c11-1.1 22.1-.9 33.1-.6q7 0 14 .5 2.6.1 5.2.5c1.2.2 2.7.5 3.5 1.5.8-1 2.3-1.3 3.5-1.5a38 38 0 0 1 14.8.9c2.4-1 5.3-.9 7.8-1q3.5 0 7 .3c.8.1 1.8.6 2.6.5 2.5-1 5.3-1 7.9-1.2 2.9 0 5.9 0 8.7 1 3.2-1.6 7-1.5 10.4-1.7 3.5 0 7.1.1 10.5 1.2 4.2-2.3 24-1.8 27.9 1q1.7-.4 3.5-.3c.8 0 1.8.4 2.6.4 3.6-2.1 8.2-1.6 12.2-2.3" class="c"/><path d="M8.4 84.6q16-1.4 32.3-1 9.6 0 19.1 1.1l2.6.6c.4.3 1.3.6 1.8.5a36 36 0 0 1 20 .2c3.6-1.4 7.6-1.1 11.3-1.2 3 .2 6 0 8.8 1.1 1.8-1 4-.8 6-.8 1.2 0 2.4.6 3.5.4a53 53 0 0 1 24.4-.6c.5.1 1.4 0 1.8-.3l2.6-.5a68 68 0 0 1 17.4.5q2.9.3 5.3 1.6c1.2-.7 3-.6 4.3-.5.8 0 1.8.5 2.6.4 3.5-1.8 7.6-1.4 11.4-2" class="c"/><path d="M8.4 82.6a291 291 0 0 1 46.2-.8c3 .4 6.2.4 8.7 2 2.2-2 8.4-1.7 11.4-1.7q4.3 0 8.7.7c1.1 0 2.3.8 3.5.7 2.4-.9 5.2-.8 7.8-1 5.5-.1 11 .5 16.6.3 6.6-.6 13.3-1.6 20-1.2 2.9.3 6 0 8.7 1.4 2.2-.9 4.6-1 7-1.2a77 77 0 0 1 14.8 1c1.2.3 2.7.6 3.5 1.6.8-1 2.3-1 3.5-1q2.2 0 4.3.7c1.5-1 3.5-1.1 5.3-1.3l5.2-.6" class="c"/><path d="M8.4 80.6Q25 78.8 41.5 79c4 .2 18.6.1 21 2.6 3-2.8 21.3-2 25.2-.2q.9.1 1.8-.3 1.6-.4 3.4-.5c7.6-.6 15.2.2 22.7-.5 8.7-.8 17.6-1.3 26.1.8 3.6-1.3 7.7-1 11.4-1 4.4.2 9 .5 13 2.1 2.8-1 6-.6 8.8 0 1.2-.7 2.9-.8 4.3-.9q2.2 0 4.4-.6" class="c"/><path d="M8.4 78.8A237 237 0 0 1 53 77.2c2.9.3 6 .3 8.7 1.8 4.4-1.6 9.2-1.7 14-1.6q3.8 0 7.8.4c2 .3 4.2.4 6 1.2 1 .3 1.8-.3 2.7-.4q2.2-.3 4.3-.4c7.8-.4 15.7 0 23.5-.7a91 91 0 0 1 21 .8c.4.2 1.3.4 1.7.4 3.5-1.6 22-1.2 24.4 1.5.9-.8 2.3-.8 3.5-.9h5.2c2.6.2 5.3-.7 7.9 0" class="c"/><path d="M8.4 77.4c4.5-1.3 9.3-1.6 14-2.1q10.5-1 20.9-.8 7 0 14 1c1.5.2 2.8 1 4.3 1.3C65.9 74 84 75 89.5 76.2c.8.2 1.7.8 2.6.7 1.3-.6 3-.7 4.3-.8q6.6-.4 13.1-.4c7.6 0 15.1-1 22.7-.5q3 0 6 .5c1.5.2 3.3.3 4.4 1.3q1.7-1.1 3.5-1 3-.3 6.1-.3 4.8 0 9.6.6c2.3.3 4.9.6 7 1.7 2-1 4.7-.7 7-1q3.8-.4 7.8-.7" class="c"/><path d="M8.4 74.7c1.7 0 3.7-.3 5.3.4 4.9-3 43.4-4.4 47-.1 2.5-3.5 25-2 29.6-1.1.8.1 2 .4 2.7.7q.9.2 1.7-.2 1.3-.4 2.6-.4 5.2-.5 10.5-.4c8.4 0 16.8-1 25.2-.5q3.1.2 6.1.6 2 .2 3.5 1.1c3.7-2 24.4-1.1 28 1.2q2.9-1 6-1.2l7-.9" class="c"/><path d="M8.4 72.4c2.9 0 6-.6 8.7.2 6.1-2.6 37.7-3.7 42.7-.1q3.8-1.6 7.9-1.7a111 111 0 0 1 20 .3c2.6.3 5.4.5 7.9 1.6 2.6-1.3 5.9-1 8.7-1.2q6.5 0 13-.3a116 116 0 0 1 21.8.5q2 .1 3.5 1.3c2.1-2.6 27.7-1.1 30.5 1 1.2-1 3-1 4.4-1.4l6-.9" class="c"/><path d="m8.4 70.2 7-.4q2.2-.1 4.4.6a35 35 0 0 1 8.7-1.7 142 142 0 0 1 23.5-.1q2.6.3 5.2.8l2.6.9c3.6-3 33.5-2.3 37.5.3 2.5-1 5.2-1 7.8-1l11.4-.3a111 111 0 0 1 24.4 1q.8.4 1.7.3 3-.9 6.1-.9h9.6c5.8.4 11.8.5 17.4 1.8 2.4-1.2 5.3-1.5 7.9-2" class="c"/><path d="M8.4 68.2c4.6-.7 9.4-1 14-.1 4.5-2.4 33-3.2 36.6.2 3.9-2.7 19-2.1 24.4-2q5.2.2 10.4.8c2 .3 4.4.3 6.1 1.5 2.1-1 4.7-.9 7-1l9.6-.3q7.8-.6 15.7-.1 4.9.1 9.6 1.5c2.4-1 5.2-.8 7.8-1q5.7 0 11.3.2l9.6.5c2.3.1 4.8 0 7 .8q3-1.2 6-1.7" class="c"/><path d="M8.4 66.2a44 44 0 0 1 15.7-.2c4.7-2.6 30.3-2.9 34.9.2 2.5-2.2 12.8-2 16.5-2.2q8.2 0 16.6.6c3.8.3 7.7.6 11.3 1.8 1.9-.8 4.1-.7 6.1-.8l8.7-.3c7.6-.5 15.4-.6 22.7 1.5 2.4-1 5.2-.8 7.8-1q6.7.1 13 .4c6.2.4 12.4-.8 18.4.6q1.6-1 3.5-1.3" class="c"/><path d="M8.4 64.4c2.4-1 5.3-1 7.9-1.3q4.8-.3 9.5.6c1.9-.9 4.1-1 6.1-1.3a102 102 0 0 1 23.6.5l1.7.5q.8.6 1.8.5c4.4-3 43.7-2.4 47.9.8 1.5-1 3.5-.8 5.2-1q3.5 0 7-.3 6-.4 12.2 0c2.6.3 5.4.4 7.8 1.6q1.4-.2 2.6-.5 2.2-.3 4.4-.2c2 .1 4.3-.1 6.1.8 2.6-1.4 13-1.5 15.7-.3q4.7-1.1 9.6-1 1.7 0 3.5.7c.8 0 1.8-.7 2.6-.9" class="c"/><path d="m8.4 62.2.9.2C11.8 61 15 61.2 18 61a50 50 0 0 1 9.6.5c4.9-2 26.2-2.2 30.5.5.8 0 1.8-.7 2.6-.8q3.8-.7 7.8-1a216 216 0 0 1 32.3.6c3.4.5 7.2.5 10.4 1.9q3.5-.7 7-.8a64 64 0 0 1 15.7.3q2.4.2 4.4 1.4c1.5-1 3.5-.5 5.2-.3a58 58 0 0 1 27-.9q1 .1 1.7-.2l1.8-.3c2.8-.2 6-.8 8.7.7l.9-.7" class="c"/><path d="m8.4 59.6 1.8.7c2-2 16-2.3 18.3-.7a61 61 0 0 1 29.6.2c.9.1 1.8-.6 2.6-.7q3.5-.7 7-.8a241 241 0 0 1 35.7.3q6.7.6 13 2.2c4-1.5 17.2-1.8 20.1 1.4 3.8-2.5 8.7-2.7 13-3.2q6.1-.5 12.3-.3 4.9-.1 9.6 1 .8.4 1.7.5 1.2-.6 2.6-.7 2.2-.3 4.4-.2 2-.1 3.5 1" class="c"/><path d="M8.4 57.2c.8.1 1.8.8 2.6.7 2.5-1.6 17-2.2 19.2-.3 1.2-1 3-1 4.4-1.3a79 79 0 0 1 17.4 0q3.6.3 7 1.7c1.2-.9 2.9-1 4.3-1.3l6.1-.5a274 274 0 0 1 37.5.5l7.8 1.1c1.8.4 3.7.5 5.3 1.3a16 16 0 0 1 11.3.3c1.1-.2 2.5-.6 3.5 0 4.2-3.4 34.8-4.6 39.2-1.2 2.7-1.2 6.8-1.4 9.6-.5" class="c"/><path d="M8.4 55q1.6 0 2.6 1.3c.8-1 2.3-1.3 3.5-1.5l5.3-.5c4 0 8.3-.4 12.1 1 3.2-2 24.6-1.9 27 1 2.3-1.5 5.3-1.4 7.9-1.7q6.1-.5 12.2-.7 15.3-.8 30.5 1 4.4.5 8.7 1.4c1.7.4 3.8.3 5.2 1.4a3 3 0 0 1 2.7 0 10 10 0 0 1 6-.7c2.8-1.2 5.9-1.6 8.8-2A127 127 0 0 1 167 54q4.6.2 8.7 1.8c2.4-1.1 5.4-1 7.9-.5" class="c"/><path d="M8.4 52.8q.9.2 1.8.5l.8 1c.7-1.2 2.2-1.4 3.5-1.6q2.6-.5 5.3-.5 3.8-.3 7.8 0c2 .1 4.2 0 6 1 1.3-.8 3-.8 4.4-1a74 74 0 0 1 15.7.4c2 .3 4.4.6 6.1 1.8C61.5 53 64 53.2 66 53l8.7-.7a184 184 0 0 1 37.5.9c1.5.3 3.3.4 4.4 1.6 1.1-1 2.9-.7 4.3-.6q2.2.3 4.4.3c3.8.2 7.6-.9 11.3-1.4q14.3-2.1 28.8-1.4 3.5.2 7 .7c1.4.3 3.2.5 4.3 1.7 1.9-1.4 4.8-1.2 7-.7" class="c"/><path d="M8.4 50.8q1.3.5 2.6.8a54 54 0 0 1 24.4-.7c4.3-1 8.8-.9 13.1-.7 4.1.3 8.5.4 12.2 2.4 1.2-.9 3-.8 4.4-.9q2.6 0 5.2-.4a148 148 0 0 1 34-1.2c3.2.4 6.6.5 9.6 2 1.7-1 4-.8 6-.8q4 .5 7.9.3c6.4-.4 12.8-1.6 19.2-2a130 130 0 0 1 24.4.4q2.2.3 4.3.9c.8.2 1.8.9 2.6.8q2.6-1 5.3-.2" class="c"/><path d="m8.4 49 1.8.7c3.2-2.7 24.6-2.4 28.7-.8 1.3-.6 3-.5 4.4-.6q3.5 0 7 .3c2.9.3 6 .6 8.7 1.9.8-.2 2 0 2.6.6q1.4-1.4 3.5-1.7c1.3-.3 3-.5 4.3-.6 2.6 0 5.4-.4 7.9.5 2.1-.9 4.6-1 7-1.3a114 114 0 0 1 23.5.5l2.6.6q.8.5 1.7.4c3.9-1.4 8.2-.5 12.2-.4q5.7.2 11.3-.6c10.4-1.2 21-1.9 31.4-1.1q4 .1 7.9 1c1.5.3 3.3.6 4.3 2 1.1-1.2 3.1-1.2 4.4-.3" class="c"/><path d="M8.4 47.6c4.1-1.7 8.7-1.7 13-2q9.3-.3 18.4.5 6.5.5 13 .5c3.2.2 6.7 0 9.7 1.3.8 0 1.8-.6 2.6-.8q3.8-.8 7.8-.9c2.9 0 6-.2 8.7 1 3.3-2.3 24.4-2 27.9.2.8 0 1.8-.5 2.6-.6q2.6-.4 5.2-.4c3.5 0 7 .6 10.5.5 7.3-.2 14.5-1.6 21.8-1.8a131 131 0 0 1 22.7.6q3 .4 6 1.4c2.3 1 2.9 2.1 5.3.2" class="c"/><path d="M8.4 45.1c4-1.1 8.2-1.3 12.2-1.5q9.1-.4 18.3 0 7.8 0 15.7.4c3.2.3 6.6.2 9.6 1.5 1.2 0 2.3-.9 3.5-1a47 47 0 0 1 12.2-.4q2.2.1 4.3 1c1.5-1 3.6-1 5.3-1.1a82 82 0 0 1 14 .2c1.4.3 3.2.3 4.3 1.5.8-1 2.3-1.1 3.5-1.3q3-.4 6-.3c5.6.2 11.1 1 16.6.3 9.8-1.1 19.8-1.9 29.7-1.4q6.6.1 13 1.5 1.4.4 2.6 1 1.2.8 2.6 1 .8-1 1.8-1.4" class="c"/><path d="M8.4 42.8c11-2 22.1-1.6 33.1-1.7a265 265 0 0 1 21 1c1.4.2 3 .3 4.3 1.2 3.3-1.3 7-1.4 10.5-1.3q3 0 6 .4c.9.1 1.9.6 2.7.5 3.1-1.3 16.5-1.5 19.2.6 1.9-1.5 4.6-1.3 7-1.6 7-.7 13.9 1 20.8.4 10.2-1 20.4-1.9 30.5-1.3q4.5 0 8.7.8c2 .3 4.4.6 6.2 1.8 1-.1 2.4-.5 3.4 0 .5 0 1.4-.5 1.8-.8" class="c"/><path d="M8.4 40.5c12.1-1.8 24.4-1.8 36.6-1.8A257 257 0 0 1 66.8 40q2 .2 3.5 1.3c2-1.7 13.5-1.5 15.7 0 2.4-1 5.2-1 7.8-1s5.4 0 7.9 1q1.6-1 3.5-1.2l5.2-.5q7.5-.4 14.8.4c5.2.5 10.5-.1 15.7-.6 8.1-.6 29-1.6 35.7 2q2.6-1.1 5.3-.1a4 4 0 0 0 1.7-.8" class="c"/><path d="M8.4 38.3a249 249 0 0 1 54-1.3c4.5.3 9 .7 13.1 2.3 1.9-.9 4.1-.6 6.1-.6 1.5.2 3.3.1 4.4 1.3 1-1.1 2.9-1 4.3-1.2 2 0 4.4-.3 6.1.8q1.6-1.1 3.5-1.3 3-.6 6.1-.8 9.6-1 19.2.1c5 .4 9.9 0 14.8-.3a182 182 0 0 1 28.8.3q2.7.3 5.2 1.4 2.2-.5 4.3-.5 2-.2 3.5 1c.4-.5 1.2-1.2 1.8-1.3" class="c"/><path d="M8.4 36q22.1-2.8 44.5-1.8c7.2.3 14.6.5 21.8 1.6l6 1q2.4.4 4.4 1.4c3-1.3 6.4-1.5 9.6-2q8.2-1.2 16.6-1.5c6.7-.3 13.3.8 20 .7 8.7-.2 17.4-1 26.1-.6 5 .2 10.1.3 14.8 2q2.2-.7 4.4-.5c1.4 0 3.2 0 4.4 1q1-1.2 2.6-1.5" class="c"/><path d="M8.4 33.8c15-2.2 30.2-2.5 45.3-2 6.7.4 13.4.6 20 1.4q5.5.4 10.5 1.8c2.2-1 4.7-1 7-1.3a269 269 0 0 1 26.2-1.3c4.6.2 9.3.7 13.9.6 8.1 0 16.3-.6 24.4-.3q4.4.1 8.7.7c1.7.2 3.7.4 5.2 1.3q2.6-.7 5.3-.6 2.2-.1 4.3.8c1.4-.5 2.9-1.3 4.4-1.5" class="c"/><path d="M8.4 31.5q23-3.1 46.2-1.9 8.8.3 17.4 1 5.3.4 10.5 1.8c2.1-1 4.7-.9 7-1.2a332 332 0 0 1 27-1c5 0 9.9.5 14.8.5 7.8 0 15.7-.4 23.5 0q4 0 7.9.6c1.7.3 3.7.3 5.2 1.4 1.6-.8 3.5-.7 5.2-.7 1.5.1 3.1 0 4.4.8q3-1.3 6-1.8" class="c"/><path d="M8.4 29.2q23-3.1 46.2-1.8 7.8.3 15.7 1 2.6.1 5.2.5 2.3.1 4.4 1.2c2.4-1 5.2-1.1 7.8-1.4a340 340 0 0 1 28-.9q6.9.3 13.9.5c11.6.2 23.3-.6 34.8 1.4l1.8.6c.8.2 1.8-.2 2.6-.2a19 19 0 0 1 7 .6c2.2-1.4 5.2-1.5 7.8-2" class="c"/><path d="M8.4 27q22.6-3.1 45.3-1.8 7 .3 14 .8c3.2.3 6.6.3 9.6 1.6C83.5 26 90 26 96.4 25.8c10.8-.5 21.6-.1 32.3.2q11.3 0 22.6.4 4 .1 7.9.6c2 .3 4.2.5 6 1.4 1.2 0 2.5-.4 3.6-.3 1.4 0 3.2 0 4.3 1 1-1.2 3-1.5 4.4-1.8l6-1" class="c"/><path d="M8.4 24.7q22.1-3 44.5-1.7l13 .8c3 .3 6 .2 8.7 1.5a36 36 0 0 1 8.8-1.3l10.4-.5q16.2-.5 32.3.2c8 .2 16.2 0 24.4.6q4.3.2 8.7.8 3.1.3 6 1.6c1.6-.6 4-.6 5.3.5 1.3-1.5 3.5-1.6 5.2-2q4-.7 7.9-1.1" class="c"/><path d="M8.4 22.4q21.3-2.9 42.7-1.7l12.2.8q2.6.2 5.3.6c1 .1 2.5.3 3.4 1 2.4-1.2 5.3-1 7.9-1.4l11.3-.5q15.3-.4 30.5.2c12.5.4 25-.1 37.5 1.7q3 .5 6 1.8a4 4 0 0 1 2.7.3c2.7-2.5 11.8-2.9 15.7-3.3" class="c"/><path d="M8.4 20.2a221 221 0 0 1 53.2-.8l4.3.5q2 0 3.5 1.2 1.7-1 3.5-1.2l4.4-.5 11.3-.5q16.5-.4 33.1.2c9 .3 18 .2 27 .9q5.2.3 10.5 1.2 2.2.4 4.4 1.4c.3.3 1.3.8 1.7 1 2.6-3.1 14-3.5 18.3-4" class="c"/><path d="M8.4 18A221 221 0 0 1 59 17c2.5.4 5.5.3 7.8 1.5 2.7-1 5.8-1.2 8.7-1.5q5.7-.4 11.3-.5 15.8-.4 31.4.3c12.2.4 24.5 0 36.6 1.7q2.7.4 5.2 1c.8.3 1.8 1 2.6 1 .8-.3 2-.3 2.7.1 3-2.5 14-2.9 18.3-3.3" class="c"/><path d="M8.4 15.8a223 223 0 0 1 47-1c3.3.3 6.6.6 9.7 1.7 2.3-1.2 5.2-1.2 7.8-1.5l11.3-.6q15.8-.4 31.4.3c11 .4 22.1.2 33.1 1.2a63 63 0 0 1 9.6 1.7l.9.5h.9q2.6-1 5.2 0 3.8-1.6 7.8-2 5.3-.6 10.5-.8" class="c"/><path d="M8.4 13.6q17-2.1 34-1.7c7 .3 14.2.5 21 2.4 2.3-1.2 5.2-1.2 7.8-1.5l11.3-.7q16.1-.3 32.2.4c8.7.4 17.5.2 26.2.8q4.7.2 9.6.9c2 .3 4.3.5 6 1.5 1.2 0 2.4-.6 3.6-.6q3-.2 6 .4c2.1-1 4.7-1.2 7-1.6q5.3-.6 10.5-.7" class="c"/></svg>