<svg xmlns="http://www.w3.org/2000/svg" id="a" width="1920" height="2400" viewBox="0 0 192 240"><defs><style>.c{stroke-width:0;fill:#f63}</style></defs><path d="M0 0h192v240H0z" style="stroke-width:0"/><path d="M8.4 224.6c3.3.3 11.4.7 13 3.6q2.8-2.2 6.2-2.7a160.6 160.6 0 0 1 36.6-1q10.8 1.1 21.8 1c6.7-.2 13.4-.8 20-1h7c1.7.1 3.7 0 5.2 1 2.3-1.4 5.3-1.5 7.9-2q6.5-.8 13-1.2c14.8-.9 29.7.3 44.5 1" class="c"/><path d="M8.4 222.8q5 .2 9.6 1.6c.9.3 1.8 1.1 2.6 1.5 2.5-3.1 13.4-3.5 17.4-4q10.5-.5 21 .1l16.5 1.5c8.7.7 17.5-.3 26.2-.7 4.3-.1 8.8-.5 13 .4 2.5-1 5.3-1.1 7.9-1.6q6-.8 12.2-1.2c16.2-1.3 32.5-.1 48.8.7" class="c"/><path d="M8.4 221q2.7.3 5.3.8c1.4.3 3.2.7 4.3 1.7l.9.1c2.8-2.7 12.4-3.1 16.5-3.6a168 168 0 0 1 32.3.9q3.1.3 6 1.2c1.7-.7 3.6-.6 5.3-.8l7-.2c8.1-.2 16.3.2 24.4-.6 11.6-1.1 23.2-2.6 34.8-2.8 12.8-.3 25.6.6 38.4 1.4" class="c"/><path d="M8.4 220c1.1 0 2.4.5 3.5.5 1.8-.3 3.6.2 5.2.6 7-4.4 44.4-4.6 52.3-1.4 5.4-1.3 11-1.2 16.6-1.4 8.7-.3 17.4-.2 26.1-.6 11-.6 22-2 33.2-2.1 12.7-.3 25.5.6 38.3 1.5" class="c"/><path d="M8.4 217.2q2.2.2 4.4.6 1.3.5 2.6.8c2.6-1.5 5.8-1.5 8.7-2a184 184 0 0 1 29.6-1c4 .3 8.3.5 12.2 1.5q.9.3 1.8.4 1.2-.6 2.6-.7 3.5-.5 7-.7c10.4-.6 20.9-.6 31.3-.8 11.7-.2 23.3-1.6 34.9-1.8 13.4-.4 26.8.4 40 1.6" class="c"/><path d="M8.4 214.9a22 22 0 0 1 5.3 1.2c2.6-1.3 5.8-1.3 8.7-1.6q6-.5 12.2-.8c9.5-.2 19.3-.6 28.7 1 .8.2 1.8.8 2.6.7q1.7-.8 3.5-1 4.4-.6 8.7-.8 16.1-.7 32.3-.7c11-.1 22-1.3 33-1.5q20.3-.5 40.2 1.9" class="c"/><path d="M8.4 212.8c.8.1 2 .4 2.6.9q.9 0 1.8-.4 1.6-.6 3.5-.7 6-.6 12.2-.8a377 377 0 0 1 21.7-.2q4.5.1 8.8.6c1.7.3 3.7.4 5.2 1.5 1.9-1.6 4.7-1.4 7-1.8q5.6-.7 11.3-.9c11-.5 22-.3 33.1-.5 12.5-.4 25-1.5 37.5-1.2q9.6 0 19.1 1c3.8.4 7.7.4 11.4 1.3" class="c"/><path d="M8.4 211c1.3.9 2.2 0 3.5-.3q2.2-.5 4.4-.6 9-.6 18.3-.4 9-.2 18.3.1 4 .1 7.8.8c.8.1 1.8.7 2.6.7 2.4-1.3 5.3-1.3 7.9-1.7q5.6-.6 11.3-.9c11.9-.6 23.8-.2 35.7-.4 14.8-.6 29.6-1.6 44.5-.7q6.5.3 13 1 2.6.3 5.3.8c.8.1 1.8.7 2.6.7" class="c"/><path d="M8.4 209c3.3-1.3 7-1.2 10.5-1.4 6-.3 12.2.2 18.3.4 8.4.2 17-1 25.3 1.3 2.3-1.4 5.2-1.4 7.8-1.9l11.3-1c12.2-.7 24.4 0 36.6-.2 14.2-.5 28.5-1.5 42.7-.6a197 197 0 0 1 18.3 1.8c.8.1 1.8.7 2.6.7l1.8-.7" class="c"/><path d="M8.4 206.3c5.7-1.2 11.7-1.1 17.5-.9q3 .2 6 .7 1.3-.4 2.7-.4 6.6-.6 13 .8c2.3-.6 4.7-.4 7-.4 2.3.2 5 0 7 1.4 1.6-1.5 4-1.5 6-2q5.2-.7 10.5-1 13.5-1 27-.5 12.3.4 24.4-.3 15.8-.9 31.4-.1c6.4.5 13 .6 19.2 2.5q1.6-.9 3.5-1" class="c"/><path d="M8.4 203.8a77 77 0 0 1 19.2-.2q.8.5 1.7.2c3.3-1.2 19.6-1.3 21.8 1.1 1.2-.9 3-.6 4.4-.7 1.7.1 3.7.1 5.2 1 5.8-2.2 12.2-2.6 18.3-3a282 282 0 0 1 27.9-.3q12.2.5 24.4-.2a296 296 0 0 1 40 .9c2.4.3 5 .5 7 1.7 1.5-1 3.6-1.1 5.3-1.5" class="c"/><path d="M8.4 201.5c3.6-.5 15.7-1.4 18.3.5 2.9-2.3 23.4-1.7 26.2.8q2.1-.8 4.3-.5 2-.1 3.5 1c2-1.3 4.6-1.7 7-2.1q5.2-.9 10.4-1.2a252 252 0 0 1 28-.2q11.7.7 23.5 0a305 305 0 0 1 40 .7c2.4.4 5 .5 7 1.6.9 0 1.8-.5 2.6-.6q2.2-.5 4.4-.7" class="c"/><path d="M8.4 199.3q5.2-.6 10.5-.5c2 .1 4.2 0 6 1 1.3-.9 3-1 4.4-1.2a69 69 0 0 1 16.6.1q4 .3 7.8 1.8a8 8 0 0 1 3.5-.3 7 7 0 0 1 3.5.9c2.4-1.4 5.2-1.8 7.9-2.2q5.6-.9 11.3-1.2c10.1-.6 20.3-.2 30.5.3 12.2.8 24.4-.6 36.6-.6a189 189 0 0 1 27 2c.8.2 1.8.8 2.6.7 2.2-1 4.7-1 7-1.3" class="c"/><path d="M8.4 197.2q4-.4 7.9-.4 3.1-.2 6 .7a76.3 76.3 0 0 1 25.3-.8q2.8.3 5.3 1.5 3-.6 6-.2c.9.1 1.9.7 2.7.7 2-1.4 4.6-1.6 7-2q5.2-.8 10.4-1a230 230 0 0 1 28.8.3q11.2.9 22.6 0 14.4-.8 28.8-.2 5.3.3 10.4 1c2 .4 4.6.3 6.1 1.8q1.7-1 3.5-1.2l4.4-.5" class="c"/><path d="M8.4 195.3a56 56 0 0 1 7-.3c1.4 0 3.2 0 4.4.9 1-1.1 2.8-1.2 4.3-1.5l6.1-.5c5.9-.2 16.6-.4 21.8 2 2-1 7.7-.7 9.6.5 5.8-2.3 12.1-2.5 18.3-3q14.4-.5 28.7.7 11 1 21.8.2a251 251 0 0 1 38.4.5c2.3.4 5 .4 7 1.8 2.4-1 5.2-1.2 7.8-1.5" class="c"/><path d="M8.4 193.6c2.3-.1 4.8-.4 7 .3 1.5-1 3.5-1.1 5.2-1.5a88 88 0 0 1 29.7 1c2.1-.7 4.6-.5 7-.5l3.4.4c.8.2 1.8.7 2.6.7 2-1.3 4.7-1.4 7-1.8q5.2-.7 10.5-.9 14.4-.5 28.7 1.1 4.8.5 9.6.7 5.7 0 11.3-.6 14.4-1.1 28.8-.5c3.7.3 15.2.7 17.4 3 2-1.3 4.7-1.2 7-1.5" class="c"/><path d="m8.4 192.5.9.3c6.1-3.9 31-4.3 38.3-2.1q1.3.7 2.6.1l2.7-.3a47 47 0 0 1 10.4.8 3 3 0 0 0 1.8.4c2-1.2 4.6-1.4 7-1.7q10-1.1 20-.6 8.3.2 16.5 1.3 4.8.8 9.6 1.2 3 0 6.1-.3c11-1.2 22-2.1 33.1-1.6q6.1.1 12.2 1c2.7.5 5.6.7 7.9 2.1.8.1 1.8-.3 2.6-.3 1.2.2 2.4-.5 3.5-.8" class="c"/><path d="M8.4 190a100 100 0 0 1 34.9-2.3c1.7.3 3.7.4 5.2 1.4 3.6-1.3 7.6-.9 11.3-.8l4.4.5q1.5 0 2.6 1c3.5-3.7 40.2-2.9 43.6 1q1-1 2.6-.9 2.2 0 4.3.2 4 .3 7.9 1 1 .2 1.7-.3l3.5-1a127 127 0 0 1 36.6-1c3 .4 6 .7 8.7 2 1.2-.4 2.7-.3 3.5.7 1-1.4 2.9-1.7 4.4-2" class="c"/><path d="M8.4 187.8q4.7-1.4 9.6-2 6.5-.8 13-.8a62 62 0 0 1 18.4 1.8c3-1.1 6.4-.8 9.6-.9q5.7 0 11.3 1.5c4.2-2.6 29-2.2 33.1.7q2.5-.9 5.2-.7c1.8 0 3.7 0 5.3.8a30 30 0 0 1 16.5.4 3 3 0 0 0 1.8.5c.8.2 1.9-.3 2.6-.7l2.6-.7a92 92 0 0 1 17.4-1.5c3.6 0 15.2 0 17.5 2.2.9-.8 2.3-.8 3.4-.8q2.7 0 5.3.8 1.2-.9 2.6-1.2" class="c"/><path d="M8.4 186.1c3.7-1.9 8.1-2.1 12.2-2.7a125 125 0 0 1 26.2.3c1.1.1 2.3 1 3.5.9q.8-.4 1.7-.5a75 75 0 0 1 13-.2c3.2.3 6.6.2 9.7 1.3a57.3 57.3 0 0 1 17.4-.5q1.8.2 3.5 1.1c1.8-.9 4-.8 6-.9q4 0 8 .9c4.8-2.7 23.2-2 27.8 1.2.7-.4 1.8-.2 2.6-.3q1.2-.7 2.6-1 5.2-1 10.5-1.2 4.8-.2 9.6 0c2.3.3 4.8.3 7 1.2q1.2-.1 2.6-.4c1.3-.2 3-.2 4.3-.2 1.7 0 3.7 0 5.2.9.5-.1 1.4-.4 1.8-.7" class="c"/><path d="M8.4 183.1c.5.1 1.4.6 1.8.9 1.3-1.4 3.4-1.5 5.2-2l7-.8q8.3-.8 16.5-.4c4.1.2 8.4.3 12.2 1.8q2.1-.9 4.4-1h7q9 .1 18.3.7c4.9.3 9.8 0 14.8 0 3.1.2 6.6-.1 9.6 1.1q4.2-1.5 8.7-1.7a81 81 0 0 1 23.5 1.3c1.5.4 3.3.7 4.4 2q.7-.7 1.7-.7 1 .3 1.7 0c2.7-1.2 5.9-1.3 8.8-1.6q4.3-.3 8.7 0 3.1-.2 6 1c2.4-1.1 5.3-.9 7.9-1q2.2 0 4.4.2 1.6.1 2.6 1.3" class="c"/><path d="M8.4 180.6c1.2 0 2.4.8 3.5.8 5.5-3.3 34.4-4 40.1-1 3.6-1.1 7.6-1 11.3-1q7.5 0 14.9.2l13.9.2c3.5.2 7.1 0 10.5 1.3 2.5-1.5 5.8-1.5 8.7-1.9q6-.6 12.2-.4c5.2.2 17.7 1 21.8 3.6 1 0 2.3-.3 3.4 0 2.8-2 16-2.5 19.2-1q3.8-1.1 7.9-1 3.9-.3 7.8.4" class="c"/><path d="M8.4 178.2q2.3.1 4.4 1.1c3.5-1.7 7.5-2 11.3-2.4a135 135 0 0 1 24.4.2c1.7.2 3.8.3 5.2 1.4 2.7-1.4 5.9-1 8.7-1.3h13.1q7 0 14 .2 5.3 0 10.4 1.3c1.5-.9 3.5-1 5.2-1.4a108 108 0 0 1 29.7-.2q4.3.5 8.7 1.5c1.8.4 4 .7 5.2 2.3l.9-.5c.9.3 1.8-.3 2.6-.6l2.6-.7c4.6-.6 9.4-1 14 .2 1.8-.9 4-.9 6-1q4.5-.4 8.8 0" class="c"/><path d="M8.4 175.9c2 .2 4.6 0 6.1 1.5 3.3-3.8 36.6-4 41-1.1 3-1.2 6.4-1 9.6-1.3a407 407 0 0 1 28.7.6q2 0 3.5 1.2c.9-1 2.3-1.2 3.5-1.4q2.6-.6 5.2-.8 7.5-.8 14.9-.8c5.4 0 27.7 1.1 30.5 5.3 2.6-2.2 6.3-2.4 9.6-2.6h5.2q1.8-.1 3.5.7c1.8-.9 4-1 6-1.2a50 50 0 0 1 8 0" class="c"/><path d="M8.4 173.7q3.6-.1 7 .8l.9 1q.8-1.4 2.6-1.6 2.2-.6 4.3-.8a127 127 0 0 1 32.3.3c.8.1 1.7.7 2.6.7q1.6-.7 3.5-.8a231 231 0 0 1 31.3.2c.8.1 1.8.7 2.6.6q1.3-.6 2.7-.9a139 139 0 0 1 47 .6c2 .5 4.6.8 6.1 2.4q1.5-.9 2.6.2c2-2 6.8-2 9.6-2.2h4.4c1.2.2 2.6.2 3.5 1.2 1-1.2 2.9-1.2 4.3-1.4q4-.4 7.9-.3" class="c"/><path d="M8.4 171.5q3 0 6.1.3 2 .1 3.5 1.1c4.3-3.4 36.8-3.6 41.8-.8 3.4-1.2 7-1 10.5-1.3a203 203 0 0 1 20 .3 9 9 0 0 1 2.6.7c.5 0 1.4-.1 1.8-.4 5.4-1.3 11-1.5 16.5-2a141 141 0 0 1 34 2c1.8.5 4 .7 5.3 2 1.2-.8 3-.5 4.3-.3a4 4 0 0 0 1.8.4c2.5-1.7 14.1-2.3 16.5-.5 1.2-1 3-1 4.4-1.2q3-.5 6-.3" class="c"/><path d="M8.4 169.4q4.9-.1 9.6.5c.8 0 1.8.6 2.6.6 5.5-3 36-3.2 41.8-.6 5.1-1.2 10.5-1.2 15.7-1.3 4.7 0 9.5-.2 14 1.1 2-1 4.7-1.1 7-1.5a192 192 0 0 1 35.7-.6c5 .7 10.2 1 14.8 3.2 2-1 6.8-.7 8.7.5 2-1.5 4.7-1.3 7-1.6 3.2-.1 6.5-.2 9.6 1 2.6-1.4 5.8-1.3 8.7-1.4" class="c"/><path d="M8.4 167.3c5-.1 10-.2 14.8 1 5.5-3 36.9-3 42.7-.3 2.3-1.7 22-2 24.4-.4 3-1.1 6.4-1.4 9.6-1.8q6.6-.6 13.1-.8a146 146 0 0 1 29.6 1.5q2.9.4 5.3 1.7 3.3-1 7-.5c1.7.2 4 0 5.2 1.5 1.4-1.6 4-1.4 6-1.7 3.2 0 6.7-.4 9.6 1q1.4-.5 2.7-.8a34 34 0 0 1 5.2-.5" class="c"/><path d="M8.4 165.3q5.2-.3 10.5-.2c2.3.2 4.8.1 7 1 .4 0 1.3-.2 1.7-.4q1.3-.5 2.6-.6 8.7-1.1 17.4-1 6.6-.1 13.1.4c2.6.3 5.4.2 7.8 1.2 3.7-1 7.6-1.1 11.4-1.2 3.1 0 6.6-.3 9.6.9q4.6-1.4 9.5-1.7l14-.9q10.8-.6 21.8.5 4.4.4 8.7 1.4c1.1.1 2.3 1 3.5 1 2.4-1.2 12.8-.9 14.8 1 2.3-1.4 5.2-1.3 7.8-1.4 2.7 0 5.4 0 7.9 1 1.7-1 4-1 6-1.2" class="c"/><path d="M8.4 163.4q6.6-.6 13-.5c3 .2 6.1 0 8.8 1.1q3.8-1.2 7.8-1.4 5.3-.5 10.5-.5c7.3 0 14.6 0 21.8 1 1 .7 2.4 0 3.5-.1l3.5-.4q3.8-.3 7.8 0c1.4 0 3.2 0 4.4.9 2.3-1.4 5.2-1.3 7.8-1.7a215 215 0 0 1 34.9-.8c4.4.5 9 .6 13 2.6 2.4-1.8 15.9-1.2 18.3.6q3.9-1.2 7.9-1c2.3 0 5-.2 7 1.3 1.3-1.3 3.4-1.2 5.2-1.5" class="c"/><path d="M8.4 161.5c4.5-.7 24.2-2 27 .6 2.5-2 13.8-2 17.5-2q6 0 12.2.2c2.9.2 5.9.3 8.7 1.2 2.7-1.2 5.8-1 8.7-1.1h4.4c1 .2 2.5.2 3.4 1q1.2-.9 2.7-1 2-.5 4.3-.6a208 208 0 0 1 36.6-.7c3.2.5 6.8.5 9.6 2.3 2.5-2.3 18.8-1.4 21.8.4q1 .2 1.7-.3 1.8-.4 3.5-.4 2.6-.1 5.3.2c1.1 0 2.5.4 3.4 1.1 1.2-1 3-1.1 4.4-1.3" class="c"/><path d="M8.4 159.8a107 107 0 0 1 28.8-1q2 0 3.5 1.2c1.9-2.1 14-1.8 17.4-2l9.6.3c2.3.2 4.8.2 7 1 2.3-1.4 15-1.6 17.4-.3 2.8-1 5.8-1.2 8.7-1.5q6.1-.5 12.2-.7c6.8-.2 23.3-.8 28.8 2.4 2.3-2.5 24-1.8 26.1 1 1.4-1.3 3.5-1 5.2-1.2q3.7 0 7 1.2 1.7-1 3.5-1.1" class="c"/><path d="M8.4 158.2c2.1-1 4.7-1.1 7-1.5a126 126 0 0 1 26.1-.2 21 21 0 0 1 4.4 1c1.8-.9 4-1 6-1.1l8-.3c4.9.1 10-.2 14.8 1a46 46 0 0 1 20.9-.2c2.3-1.2 5.2-1.1 7.8-1.4a214 214 0 0 1 27-.5q5 .1 9.6 1.8c4.1-2.6 25.2-1.7 29.7.7q.8.3 1.7-.1l1.7-.3c2.3 0 5-.1 7 1.1q1.6-.8 3.5-1" class="c"/><path d="m8.4 156.1.9.2c2-1.2 4.6-1.3 7-1.7a119 119 0 0 1 32.2.4c.4.3 1.3.5 1.7.4 3.6-1.3 7.6-1 11.4-1.2 4 0 8.3-.2 12.2 1 2.8-2 22.6-2.4 25.2-.3 2.1-1.1 4.7-1.1 7-1.4l9.6-.5q7-.3 14 0c2.5.4 5.4.4 7.8 1.6 1.1 0 2.3-.8 3.5-.9q6-1 12.2-.7a69 69 0 0 1 20 2.7q1.3-.4 2.6-.4 1.8 0 3.5.4a4 4 0 0 0 1.8.5q1.1-.8 2.6-1" class="c"/><path d="m8.4 154 .9.4c3.8-1.7 8-2 12.2-2.5a134 134 0 0 1 26.1.1c2 .3 4.3.6 6.1 1.7q1.7-1 3.5-1a65 65 0 0 1 11.3-.2q1.9-.1 3.5.8c4.3-2.5 27.2-3 31.4-.4 1.5-1 3.5-1 5.2-1.2q4.5-.4 8.8-.5c3.6 0 16-.7 18.2 1.8 4-3.9 35.8-2.6 40.1 1.1q1.8-.6 3.5-.1l1.8.3a8 8 0 0 1 2.6-1" class="c"/><path d="m8.4 152.4.9.2c4-2 8.6-2.4 13-3a133 133 0 0 1 28 .3c2.3.4 4.8.7 7 1.9 2-1.2 4.6-1 6.9-1.1 2 0 4.4-.3 6 .9 1.4-1.3 3.6-1.3 5.3-1.7q4-.5 7.9-.8 7-.3 13.9 0c3.5.3 7.1.5 10.5 1.8 1.2-.8 2.9-.8 4.3-1l7-.4c5-.2 10-.3 14.8 1.1 5.8-3.6 42.5-3 46.2 2.9q1.5-1.6 3.5-2.2" class="c"/><path d="m8.4 150.6.9.5c5.5-4.5 25.6-4.5 33.1-4.1q7.5.1 14.8 1.8c1.3.2 2.4 1 3.5 1q1.7-.5 3.5-.5c1.1 0 2.6-.1 3.5.6 1-1.1 2.9-1.3 4.4-1.7q3-.6 6-.8a132 132 0 0 1 28 .2q2.7.3 5.2 1.3c.8.2 1.8-.4 2.6-.5l3.5-.3c4.3-.2 8.8-.7 13 .4l1 1c1-1.8 3.3-1.8 5.1-2.2a128.3 128.3 0 0 1 30.5-.3c4.5.6 9.1 1.1 13.1 3.2a4 4 0 0 1 1.8-.4h1.7" class="c"/><path d="M8.4 147.8c1.1-.3 2.4.2 3.5.2 1.2-1 3-1.3 4.4-1.6q3.3-.8 7-1.1 13.4-1.4 27 .1c3.3.5 11.1 1.1 13 3.9 5.8-6.2 44.9-6 52.3-2q3.5-.8 7-1c2 0 4.3-.1 6 .8 9.6-4.4 41-4 50.6.5q2.1-1 4.4-.6" class="c"/><path d="M8.4 144.9q2.2-.2 4.4.6c.8 0 1.8-.7 2.6-1q3.8-1 7.8-1.3a122 122 0 0 1 28 .3c2.2.4 4.9.6 6.9 1.8q2.2-.6 4.3-.4 1.9 0 3.5.8c4.3-2 9.3-2.3 14-2.9a144 144 0 0 1 34.8 1.5c1.8.4 4 .6 5.3 1.9q1-1 2.6-1a8 8 0 0 1 3.5.3c.8 0 1.8-.7 2.6-1l3.5-.8q9-1.6 18.3-1.8c5.6 0 23 .3 27 3.4q3-1.3 6-1" class="c"/><path d="M8.4 142.2c2 0 4.3 0 6.1 1 3.3-1.6 7-2 10.5-2.3a116 116 0 0 1 23.5.3c1.7.4 3.8.4 5.2 1.6 2.4-1.3 5.3-.8 7.9-.9 2.3.2 4.9.1 7 1.3 3-2.5 16.5-2.8 20.9-3 8.7 0 17.5.4 26.1 2.2 2 .5 4.3.9 6.1 1.9.4 0 1.3 0 1.7.2 7.3-5.8 45-6.2 53.2-1.6 2-1.3 4.7-1.2 7-1.2" class="c"/><path d="M8.4 139.7c2.6.1 5.6-.2 7.9 1.2 2.4-1.2 5.1-1.6 7.8-2a99 99 0 0 1 19.2 0c2 .2 4.2.3 6 1.2 1.2 0 2.4-.6 3.6-.7a58 58 0 0 1 13.9.3q2 0 3.5 1.2c2.2-2.2 11.5-2.4 14.8-2.6a137 137 0 0 1 17.4.3c4.2.4 8.4.9 12.2 2.3 2.2-.8 4.7-.5 7-.4 1.4.1 3.2 0 4.4 1 2.5-2.2 10.4-2.8 14-3.2a138 138 0 0 1 29.5.5c1.8.3 3.8.5 5.3 1.5.8 0 1.8-.5 2.6-.6q3-.6 6-.5" class="c"/><path d="M8.4 137.3q2.7 0 5.3.2 2.2 0 4.3 1.1c5-2 10.5-2 15.7-2.1q3.5 0 7 .3c1.7.2 3.7.2 5.2 1.2a22 22 0 0 1 7-1.3 88 88 0 0 1 15.7.6c1.1.1 2.6.3 3.5 1.2 2.1-2 10.7-2 13.9-2.3q7-.1 14 .4 4.9.1 9.5 1.8c1.3-.7 3-.7 4.4-.9h6c2.7.3 5.5 0 8 1.1 4-1.6 8.6-2 13-2.5a142 142 0 0 1 27.9.5c1.7.4 3.9.5 5.2 1.8 1.2-1 3-1.2 4.4-1.4q2.6-.3 5.2-.3" class="c"/><path d="M8.4 135q3.5-.1 7 .2 2.3.2 4.4 1.2c3.8-1.6 8-1.7 12.1-1.8a55 55 0 0 1 9.6.7 3 3 0 0 0 1.8.4c2.7-1.2 5.8-1.2 8.7-1.4a100 100 0 0 1 18.3.7c1.2.2 2.7.4 3.5 1.5.7-1.2 2.2-1.4 3.5-1.5l7-.6q6-.3 12.1.2c2.6.3 5.5.3 7.9 1.6 1.7-1.1 4-1 6-1.2a105 105 0 0 1 14.9.3c1.4.1 3.1.2 4.3 1 5.7-3.4 38.1-3.9 43.6-.3 1.2-1 3-1 4.4-1.3l6-.3" class="c"/><path d="M8.4 132.6q4 0 7.9.3c1.7.3 3.7.4 5.2 1.4a28 28 0 0 1 9.6-1.5q2.6 0 5.2.2 1.9 0 3.5.9c3.2-1.6 7-1.6 10.5-1.9a111 111 0 0 1 21.8.8c1.1.2 2.6.4 3.4 1.3 1-1 2.3-1 3.5-1.2q3-.4 6.1-.4c4.7 0 9.5-.2 14 1.3 2-1 4.6-1 7-1.2a133 133 0 0 1 18.2.1q3.7.1 7 1.3c1.5-1 3.5-1.2 5.2-1.5q4-.5 7.9-.7 10.5-.7 20.9.3c2 .3 4.3.5 6.1 1.4q1 .2 1.7-.4.9-.1 1.8-.4 4.3-.6 8.7-.6" class="c"/><path d="M8.4 130.4c3.9 0 11.6-.2 14.8 1.8q3.8-1.3 7.9-1.2c2 0 4.2 0 6 .8a40 40 0 0 1 11.4-2q7.9-.6 15.7 0c4.3.4 8.9.4 13 1.6.5.2 1.4 0 1.8-.2l3.5-.4c3.5 0 7.2-.3 10.5 1 2.3-1.2 5.2-1 7.8-1.4a173 173 0 0 1 24.4 0c2.3.3 5 .1 7 1.3 3-1.4 6.4-1.4 9.6-1.8a147 147 0 0 1 23.5.3c1.7.3 3.9.3 5.2 1.6 1.4-1.2 3.5-1.3 5.3-1.6l7.8-.5" class="c"/><path d="M8.4 128.2c4.2-.1 13.2-.1 16.6 2q2.5-.9 5.2-1c1.7 0 3.7 0 5.2 1 1.2-1.1 3-1.3 4.4-1.7q3.5-.6 7-.9c9-.8 18-.2 27 .7 3.2.3 6.4 1 9.6 1q3.9-.2 7.8-.6 12.7-1.1 25.3-1c5.8.2 11.8.2 17.4 1.7 2.1-1 4.7-1 7-1.4a133 133 0 0 1 27 .8 3 3 0 0 0 1.7.4c1.9-1 4.1-1 6.2-1.3q3.8-.4 7.8-.4" class="c"/><path d="M8.4 126c4.4-.1 15 0 18.3 2.4q3.4-1.4 7-.2c1.4-1.1 3.5-1.4 5.2-1.8q4.3-.7 8.7-1c8.2-.7 16.3-.2 24.4.6q10 1 20 .1a340 340 0 0 1 36.7 0c2 .3 4.4.1 6 1.5 1.5-1.1 3.6-1.2 5.3-1.4a115 115 0 0 1 27.9 1c1.8-1 4-1 6-1.4q4.8-.4 9.7-.5" class="c"/><path d="M8.4 123.9c4.6-.2 16.8-.1 20 2.8 1.1-.4 2.6-.7 3.6.1 1.7-2.3 9.2-2.8 12.2-3.3q13-1.3 26 .2 10.5 1 21 .2a451 451 0 0 1 37.5 0q4 .1 7.8 1.4c2.7-2 26-2 28.8 0 5.8-2 12.2-1.9 18.3-2.1" class="c"/><path d="M8.4 121.8c4.4-.3 19.6-.2 21.8 3.8q3-2.5 7-3.1 3.8-.8 7.8-1.2 12.2-1.1 24.4.3c7.8.8 15.7.4 23.5 0q14-.3 28-.2a134 134 0 0 1 14.8 1q1.5.2 2.6 1.3c1-1.2 2.9-1.1 4.3-1.3a95 95 0 0 1 14-.2c2 .2 4.2.2 6 1q4-1.2 8-1.5 6.3-.6 13-.6" class="c"/><path d="M8.4 119.8c4.4-.4 17.9-.3 21 2.8q.8-.4 1.7-.3l.9.7c.8-1.5 2.7-2 4.3-2.3q4.3-1 8.7-1.4c8.4-1 16.9-.6 25.3.3 7.8.7 15.7.2 23.5 0l28-.2a142 142 0 0 1 16.5 1.2c.8 0 2 .4 2.6 1.1q1.5-1 3.5-1l4.3-.2c3.5 0 7.2-.3 10.5.8 7.9-2.1 16.2-2.1 24.4-2.3" class="c"/><path d="M8.4 117.9c3.6-.6 18-.5 20 2.4q1.2-1 2.7-.8 1.4 0 2.6.7c2-2.2 9-2.6 12.2-3q7-.8 14-.5c3.7.2 7.5.8 11.2 1 9 .6 18-.1 27 0 10 .2 19.8-.4 29.7-.2q4.8 0 9.6.6c2.3.4 5 .4 7 1.6q2.5-.7 5.2-.7 3 0 6 .7 2.1-1 4.4-1.3 3-.5 6.1-.7 8.8-.8 17.5-.8" class="c"/><path d="M8.4 116c3.6-.8 16.7-.7 19.2 1.8q1.6-1 3.5-.8 2.2-.2 4.3.6 2.4-1.5 5.3-1.7a80 80 0 0 1 20-1.1c4 .3 8.2 1 12.2 1.2 7 .2 14-.3 21 0 4 .2 8.1.2 12.1.9 1.1.1 2.4-.3 3.5.1 6.7-2.3 33.4-2.2 39.2 1.5h2.7q.8-.7 1.7-1 2.6-.7 5.2-1.1c8.4-1.3 16.9-1.4 25.3-1.5" class="c"/><path d="M8.4 114.4c3.6-1.4 15-1 18.3.8q5.2-1.2 10.5 0c1.5-1 3.5-1.2 5.2-1.5a83 83 0 0 1 19.2-.8q5.2.7 10.4 1.3c4.7.2 9.3-.2 14 0q2.2 0 4.3.2 2 0 3.5.9c2.6-2.2 21.4-2.5 24.4-.8 4.5-1.3 9.3-1 14-1 5 .3 10 .6 14.8 2.3 2.1-1 4.7-.6 7-.1 1.2-.9 2.9-1.1 4.3-1.4q3.5-.5 7-.8 9-.6 18.3-.5" class="c"/><path d="m8.4 112.3.9.2c3-1.5 14.7-1 17.4.8 1.9-1.3 9.2-1.2 11.4-.4q1 0 1.7-.4l2.6-.7a80 80 0 0 1 15.7-1q4.8.1 9.6 1.3c1.4.2 2.9 1 4.3.9q4.4-.6 8.7-.6c2.3 0 4.9-.1 7 .8 5.3-2 11-2 16.6-2.3 5.8 0 11.8-.2 17.4 1.5 3-1.5 18.5-1.2 21 1 3-1.8 12.4-1.8 15.6-.3 1.2-.9 3-1 4.4-1.3l5.2-.5q7.8-.5 15.7-.2" class="c"/><path d="M8.4 110c.5 0 1.4.4 1.8.7 2-1.3 4.7-1 7-1q4.9-.2 9.5 1.3c2.2-1 10.9-1.2 13 0 5.2-2.4 22.1-3.1 27.1-.4q1.7-.7 3.5-.4 2.7 0 5.2.9 1.4 0 2.6-.2c1.7 0 3.7-.2 5.3.6a23 23 0 0 1 5.2-1.6q7-1.1 14-1.3 6-.2 12.1.3 4.6.2 8.7 1.5c2.5-1.3 13.6-1.1 15.7.6a42 42 0 0 1 22.7-.5c7-2 14.5-1.4 21.8-1.3" class="c"/><path d="M8.4 107.8q1.6 0 2.6 1.2 1-1 2.6-1.1a35 35 0 0 1 9.6.1q2 .2 3.5 1.1c1.8-1.1 4.1-.9 6.1-1q4.6-.3 8.7.6 2.1-1 4.4-1.1l6-.6c4.4 0 9-.4 13.2 1.4 2.4-1.1 10-.4 12.2 1.3q1.3-.3 2.6.2c3-1.6 6.3-2.2 9.6-2.7a116 116 0 0 1 25.2-.6c3.3.3 6.6.6 9.6 1.9 2.1-1 4.7-.8 7-.8a19 19 0 0 1 5.2 1q2.4-1.4 5.3-1.5a75 75 0 0 1 24.4 1.1c1.8-1 4-.9 6-1 3.8-.3 7.6 0 11.4 0" class="c"/><path d="M8.4 105.7q1.8.2 3.5 1c2-1.2 4.7-1 7-1q4.4 0 8.7 1.2c2.1-.9 4.7-.8 7-1 2.6 0 5.3 0 7.8.8q2.1-1 4.4-1.1a61 61 0 0 1 14.8 0c.8 0 1.8.6 2.6.6 3-1 10.7-.2 13 2 1.3-.2 2.4-1.2 3.6-1.6q2.5-.8 5.2-1.2 8.6-1.4 17.4-1.3c4.4 0 17.8.1 21 2.5 2.1-1 6.6-1.2 8.6.2 5.3-3.6 30.3-3.7 35.8-.6 4.8-1.3 9.9-.9 14.8-.6" class="c"/><path d="M8.4 103.7q1.8.1 3.5 1c3-1 6.4-1 9.6-1q2.2.1 4.4.5c.8 0 2 .4 2.6 1a5 5 0 0 1 2.6-.9 45 45 0 0 1 8.7-.1c.8 0 2 .2 2.6.7 2-2 19.2-2.6 21-.3 1.4-1 3.5-.7 5.2-.7q3.2.3 6 1.6c1.3-.7 3.2-1 4.4-.2 2.2-2.4 13-2.9 16.6-3.2q10.5-.5 20.9.6c2.6.4 5.7.4 7.8 2 1.8-.7 4.7-1 6.1.4 3.2-4.7 38.4-4.7 41.9-.4 1-1.2 2.9-1 4.3-1.2l7 .3" class="c"/><path d="M8.4 101.9q1.8 0 3.5.8c3.4-1.1 7-1.1 10.5-1q2.2 0 4.3.4 2 0 3.5 1c1.8-1 4.1-.8 6.1-.9 1.7 0 3.7-.1 5.3.7 3.5-2 18.3-2.6 21.7-.5 2.9-.5 6.2-.6 8.8 1q1.5-1 3.4-1.1c1.1 0 2.5-.2 3.5.3 7.7-3.6 38-4 45.3.3 1.1-.6 2.6-.6 3.5.3.8-1.1 2.3-1.6 3.5-2q2.6-.7 5.3-1a108 108 0 0 1 31.3 0c2.4.5 5 .8 7 2 .8.2 1.8-.3 2.6-.3q3-.2 6.1.2" class="c"/><path d="M8.4 100.2q1.9 0 3.5.9 1.6-1 3.5-1.2 2.6-.2 5.2-.3c4.1.1 8.4.2 12.2 1.6 2.2-.9 4.8-.6 7-.2q2.1-1 4.4-1.2 3.4-.4 7-.6c4.6-.2 9.5-.3 13.9 1.6q2.3-.7 4.3.6a14 14 0 0 1 7-1.4q1.3.1 2.6.1l1.7-.6a109 109 0 0 1 37.5-.2c1.8.4 3.9.8 5.2 2l1-.2.8.2c2.4-2.6 8.7-3.2 12.2-3.8A118 118 0 0 1 174 99c1.5.4 3.4.7 4.3 2.1 1.4-1.4 3.6-.8 5.3-.8" class="c"/><path d="M8.4 99.3q1.5-.7 2.6.2c2.5-2.9 22-2.3 24.4.7q2.8-1.7 6.1-2.2 4.4-.7 8.7-.9c5.6 0 12.8-.6 17.5 2.9 1.7-1.3 4-1.8 6-1.9 1.2 0 2.5.3 3.6-.3a125.2 125.2 0 0 1 31.4-1.7c3.7.5 10.3.8 13 3.4h.9c2.7-2.7 8.5-3.3 12.2-4q14.3-2 28.7-.6c3.9.4 16 1.8 18.3 4.4a3 3 0 0 1 1.8-.6" class="c"/><path d="m8.4 96.3 1.8 1.1c.7-.5 1.8-.3 2.6-.3 2-1.1 4.6-1.1 7-1.3q3 0 6 .2c1.5.2 3.1.2 4.4 1q2.1-.7 4.4-.6c1 0 2.4 0 3.4.6 4.4-1.8 9.3-1.8 14-2s9.6-.1 14 1.8c2-1 4.6-1 6.9-1.3l9.6-1q12.6-1.3 25.3-.2c3.2.3 6.5.7 9.5 2 1 .3 1.7 1.4 2.7 1.7.9-2 3.3-2.4 5.2-3q6.4-1.7 13-2.3c15.2-1.4 30.8-.6 45.4 3.7" class="c"/><path d="m8.4 94.2.9.4c1.3-.7 3-.6 4.3-.6 3 0 5.9.5 8.8.2q5.6-.6 11.3-.6c2.3.1 4.9-.2 7 .9 3.6-2 20.2-2.7 23.5 0 1.7-1.2 4-1 6-1.4l8.8-.7c7.5-.5 30-1.7 35.7 2.4q1.3-.7 2.6-.2 1 0 1.8-.6c4.1-1.5 8.7-2.2 13-3 17.2-2.4 34.6-1.2 51.5 2.6" class="c"/><path d="M8.4 92.6c1.4-1.3 3.5-1 5.3-1.1q3.8 0 7.8-.2c6.7 0 13.4-.7 20 .3q1.4.6 2.6 0 2.2-.6 4.4-.7 4.3-.4 8.7-.2c1.7.2 3.7.3 5.2 1.1q1.4-.2 2.6-.6 3-.4 6.1-.6l14-.6q6.5 0 13 .2c3.3.2 6.6.4 9.7 1.6q2-.6 4.3-.4 1.8 0 3.5.8 4.6-2 9.6-2.5a142 142 0 0 1 40-1.5c6.2.6 12.3 1.8 18.4 2.8" class="c"/><path d="M8.4 89.8c2.5-.8 5.3-.6 7.9-.7l10.4-.3h10.5c2.3.2 5 0 7 1.2 1.8-1.8 15.2-2 17.4-.3 5.3-1.6 11-1.3 16.5-1.6q5.3 0 10.5.2 3.6-.1 7 .8 1.6-.2 3.5-.4 3.3-.3 7-.2c2.5.2 5.4 0 7.8 1.2 3-1.4 6.3-1.8 9.6-2.2q6-1 12.2-1.6 13.9-1.2 27.9 0c6.7.5 13.3 1.7 20 2.6" class="c"/><path d="M8.4 87.5c2.5-.7 5.3-.6 7.9-.7l10.4-.3h10.5q4 0 7.8 1c2.4-1 5.3-.9 7.9-1q3 0 6 .3c.9.1 1.9.6 2.7.6q2.5-.9 5.2-1a108 108 0 0 1 14-.2c1.6.2 3.6.1 5.2.8 4.5-1.2 9.3-1 14-1.1q3.4 0 6.9.2 2.7.1 5.2 1c.9.1 1.8-.6 2.6-.8q3-.7 6.1-1 7.5-1 14.8-1.6 14-1.2 28 0c6.6.5 13.3 1.7 20 2.4" class="c"/><path d="M8.4 85.3q4.4-.7 8.7-.7l11.4-.4 9.6.1c2.2.2 4.8.1 7 1.2 2.2-1.3 5.2-1 7.8-1.2q3-.1 6 .4c.9 0 1.8.7 2.7.4 3.8-1.2 8.1-1 12.2-1l4.3.1c1.2.2 2.7.2 3.5 1.2 1-1.3 2.9-1.2 4.4-1.5a93 93 0 0 1 17.4-.3c2.6.1 5.4.3 7.8 1.4 1.2-1 3-1.2 4.4-1.5l5.2-.7 12.2-1.2q14.4-1.2 28.8-.2c7.3.5 14.5 1.7 21.8 2.5" class="c"/><path d="M8.4 83.1c6.4-.8 12.8-.8 19.2-1h9.6c2.3.2 4.8.2 7 1q4.3-1 8.7-1 4.4-.1 8.7 1A35 35 0 0 1 79 83c2.6-2.3 28-2.8 30.5-.3 3.2-1.7 7-1.8 10.5-2.2q6-.7 12.2-1 14.7-1.3 29.6-.2c7.3.5 14.5 1.7 21.8 2.3" class="c"/><path d="M8.4 81q10-1 20-1.1l8.8.1c2 .2 4.2.2 6 1q5.2-1.3 10.5-1.1c2.6.1 5.5 0 7.9 1.2a31 31 0 0 1 15.7-.4c4.4-2.3 27-2.8 31.3-.3 1.2-1 3-1.2 4.4-1.5l5.2-.7 14-1a217 217 0 0 1 29.6 0c7.3.5 14.5 1.7 21.8 2.2" class="c"/><path d="M8.4 79a180 180 0 0 1 28.8-1c1.7.2 3.8 0 5.2 1.1 1.2-1 3-1 4.4-1.2A65 65 0 0 1 59 78c1.2.2 2.7.3 3.5 1.5l.8-.9q4.3-1 8.7-.5c1.2 0 2.4.6 3.5.6 2.7-1.4 5.9-1.4 8.7-1.8a118 118 0 0 1 21 .3c1.3.3 2.1 1.2 3.4.2 4.3-1.3 8.8-1.4 13.1-1.7l14-.8q13.9-.7 27.8.4c6.7.4 13.4 1.6 20 2" class="c"/><path d="M8.4 77.2A149 149 0 0 1 38 76c1.2 0 2.4.6 3.5.6 3.8-1.5 18.6-1.8 21.8.4 1.5-1 3.5-.9 5.3-1 1.7.1 3.8 0 5.2 1 2.5-3 28.7-3.6 32.2-1.3 1.2-.1 2.4-.9 3.5-1q4.4-.8 8.7-1 7.8-.5 15.7-.9 14.9-.7 29.6.5c6.7.4 13.4 1.7 20 2" class="c"/><path d="M8.4 75.4a108 108 0 0 1 28-1.6c1 .2 2.6.2 3.4 1.2.8-1 2.3-1 3.5-1.3l6-.4c5 0 10.3-.3 14.9 1.6q1.7-.8 3.5-.7 2.2-.1 4.3.6c.9-.1 1.8-.7 2.7-1q3.8-.9 7.8-1.2a111 111 0 0 1 21 .2c.7.1 1.7.8 2.5.6l1.8-.7c6-1.3 12.2-1.3 18.3-1.6q12-.7 24.4-.4 9.6.2 19.1 1.2c4.7.5 9.3 1.6 14 1.5" class="c"/><path d="M8.4 73.4q1.4-.2 2.6 0a64 64 0 0 1 27-1c1.2 0 2.4-.7 3.5-.8q5.3-.5 10.5-.5c4.4 0 9 .1 13 1.8q1.7-.7 3.6-.5c.8 0 2 .2 2.6.8 2.5-3.5 30.3-4.4 34-1.7 1.1-1 2.9-1.1 4.3-1.4l7-.7q9-.5 18.3-.6 15.7-.5 31.4 1c3.4.4 7 .6 10.4 1.7.8.2 1.9-.2 2.6-.2q2.2-.1 4.4.4" class="c"/><path d="M8.4 70.8q2.2-.3 4.4.4c2.4-2 22.2-2.7 24.4-.6q1.6-1 3.5-1.1 2.6-.4 5.2-.5c5.8-.2 11.8-.3 17.4 1 .9.2 1.8.9 2.6.9q.9-.3 1.8-.3l1.7.3c.5 0 1.4-.3 1.8-.6l1.7-.6c6.8-1.7 14-2 21-2 3.3.3 7.2 0 10.4 1.4 1.1 0 2.3-.8 3.5-1a86 86 0 0 1 11.3-1l17.4-.3A293 293 0 0 1 167 68c1.8.3 3.7.4 5.3 1.2q5.5-1.2 11.3-.3" class="c"/><path d="M8.4 68.4q2.7-.2 5.3.4a49 49 0 0 1 22.6-.6c3.9-2.2 26.2-2.1 29.6.9.8 0 2-.2 2.6.2 4.5-3.2 16.2-3.5 21.8-3.7q4.5 0 8.8.3c1.7.1 3.7.2 5.2 1 4.2-1.4 8.7-1.5 13-1.8q8.8-.3 17.5-.2a335 335 0 0 1 27.9 1c1.7.3 3.6.4 5.2 1.2q3.4-.9 7-.9 4.3-.1 8.7.4" class="c"/><path d="M8.4 66.1c1.7 0 4-.3 5.3 1 .7-1 2.2-1.2 3.4-1.4l5.3-.5c4.3 0 8.9-.5 13 .9 2.1-1.1 4.7-1 7-1.3a104 104 0 0 1 19.2.7c1.9.4 4.3.7 5.2 2.6.5-.2 1.4-.9 1.8-1.3q1.2-.8 2.6-1.1 6-1.5 12.2-2a104 104 0 0 1 20 .6c.4.3 1.3.5 1.7.5 3.3-1.4 7-1.3 10.5-1.6q8.2-.3 16.6-.2 9-.1 18.3.4c4.3.2 8.8.3 13 1.5 2.7-1 5.9-.8 8.7-1q5.8-.1 11.4.5" class="c"/><path d="M8.4 63.9c1.7 0 3.7-.1 5.3.8 1.8-2 18.9-2.5 20.9-.6 1.7-1.2 4-1.1 6-1.4a97 97 0 0 1 19.2.4l4.4 1q1.3.6 2.6 1.4c.8-.4 1.8-1.2 2.6-1.5q3-1 6.1-1.5a98 98 0 0 1 22.7-1c2.3.2 4.9.1 7 1.2q4.6-1.4 9.5-1.4 7-.3 14-.2c9 .2 18 0 27 1.3q1 .1 1.7.5a36.6 36.6 0 0 1 7-1 104 104 0 0 1 19.2.4" class="c"/><path d="M8.4 61.7q2.2-.1 4.4.6 1-.1 1.7-.5 1.7-.4 3.5-.6c5.5-.5 11.2-.9 16.6.5 4.5-2.1 26.5-2 30.5 1.1h2.6c5-3.5 21.3-3.8 27.9-3.6q3.9 0 7.8.6c1.2 0 2.3.8 3.5.7q2.9-1 6.1-1c7-.5 14-.2 21 0q5.2 0 10.4.4c2.3.2 4.7.2 7 1 1 .1 2.3-.6 3.4-.6q5.2-.7 10.5-.8 9.2-.3 18.3.7" class="c"/><path d="M8.4 59.5q2.3.1 4.4.7 2-1 4.3-1.2 3-.4 6.1-.4c3.8 0 7.7-.2 11.4 1 4.1-2.2 26.2-2 29.6 1.1l1.7-.3h1.8q1.6-1 3.5-1.4 6.8-1.6 14-1.9 6.8-.3 13.8 0c3 .3 6.1.2 8.8 1.5 6.2-1.7 12.8-1.1 19.1-1q5.3 0 10.5.4c2.6.2 5.3.2 7.8 1 .5.1 1.4 0 1.8-.3l2.6-.4q6.5-.8 13-.9c7-.1 14-.2 21 .9" class="c"/><path d="M8.4 57.4c1.2 0 2.4.6 3.5.5q2.5-1 5.2-1.2 5.3-.6 10.5-.4c2.3.2 4.9 0 7 1 4.6-1.9 25-1.8 28.7 1.3 1.1-.4 2.6-.7 3.5.2 3.7-4.8 38.1-5.1 43.6-2 1.5-1 3.5-.9 5.2-1q4.4-.2 8.7 0c5.2.3 10.6.2 15.7 1.6 2.4-1 5.3-1 7.9-1.3q6-.6 12.2-.7c7.8-.1 15.8-.5 23.5 1.1" class="c"/><path d="M8.4 55.4c.5 0 1.4.4 1.8.7 2.8-2.6 21.7-2.7 25.2-1Q40.1 54 45 54q6.1-.1 12.2.7 2.8.3 5.2 1.5h1.8q1 0 1.7.5c1.9-2.5 10.7-3.1 14-3.6a140 140 0 0 1 27.8.4c1.8.3 3.8.4 5.3 1.3 3.9-1.2 8.2-.6 12.2-.5l5.2.5q1.8.1 3.5 1 2.1-.9 4.4-1l5.2-.5a329 329 0 0 1 30.5-.8q3 .1 6.1.6 1.8.2 3.5 1" class="c"/><path d="M8.4 53.9c4.2-2.3 13.4-2.2 18.3-2.2q3 0 6.1.3c1.5.2 3.2.2 4.4 1.2q1.6-1 3.5-1l6-.3c4.3.2 12.3.2 15.8 2.5h1.7c.9-.1 1.8-.8 2.6-1q2.2-.9 4.4-1.2A145.4 145.4 0 0 1 113 52q2.3.1 4.4 1.3c1.3-.6 3-.5 4.3-.5q3 .2 6.1 1c2.2-.7 4.7-.6 7-.8l9.6-.6q11.8-1 23.5-1 4.4.1 8.7.5c1.7.3 3.7.4 5.3 1.3l1.7-.6" class="c"/><path d="M8.4 50.9A73 73 0 0 1 25 49.3c5 .1 10 0 14.8 1.5 3.6-1.6 20-1 22.7 2h.8c3.7-3.5 18.2-4.2 23.6-4.5 11.3-.5 22.7.7 34 2.5 4.6.6 9.3.1 13.9 1.2q2.2-.7 4.3-.7 2.7-.2 5.3.4c1.8-.9 4-1 6-1.2a140 140 0 0 1 21-.7q4.6.1 8.7 1.5 1.7-.8 3.5-1" class="c"/><path d="M8.4 48.2a114 114 0 0 1 30.5-.5c1.5.3 3.4.2 4.4 1.5q1-1.1 2.6-1a41 41 0 0 1 9.6.5q2.3.2 4.3 1.4c1.3-.8 3-.5 4.4-.2 3.6-2.6 14.4-3.2 19.2-3.6q15.3-.8 30.5 1.3 3.4.6 7 1c1.6.4 3.6.4 5.2 1.3 4.7-1.7 9.8-1.7 14.8-1.9 5 0 10-.2 14.8 1.2 1.6-.8 3.5-.8 5.2-1a77 77 0 0 1 12.2.3c1.2.2 2.7.3 3.5 1.4q1-1 2.6-1.1l4.4-.5" class="c"/><path d="M8.4 45.6c14.2-1.9 28.6-1 42.7 1q4.4.1 8.7 0c1.7.1 3.7 0 5.3.6a58 58 0 0 1 16.5-3 152 152 0 0 1 34 1.7c2.3.5 5 .6 7 1.9 3.7-3 36.2-3.2 40-.2 1.6-.8 3.6-.7 5.3-.7a21 21 0 0 1 5.2.8c3.3-1.5 7-.8 10.5-1" class="c"/><path d="M8.4 43a210 210 0 0 1 41 .4q5.2.4 10.4.5c2.3.2 4.9-.2 7 .8 6-2.3 12.8-2.5 19.2-2.8q13.1-.4 26.1 1.5c2.3.4 4.9.7 7 1.8.8.1 1.8-.5 2.6-.6q3-.6 6.1-.8a164 164 0 0 1 35.7.8c1.8.4 3.8.7 5.3 1.8 1.5-1 3.5-.4 5.2-.8 3.1-.7 6.3-1.6 9.6-1.8" class="c"/><path d="M8.4 40.6a245 245 0 0 1 40.1.2l12.2.5c2.6.2 5.5-.2 7.9 1 4.1-1.6 8.6-2 13-2.3a143 143 0 0 1 28 1c2.2.5 4.9.6 6.9 2 8-2.9 41.2-3.2 48.8.3 2.4-1.1 5.2-.9 7.8-1.2q5.3-.6 10.5-1" class="c"/><path d="M8.4 38.2c13.4-1.2 26.8-.7 40.1 0q6.1.4 12.2.5c3.2.2 6.7-.2 9.6 1.2q5.5-1.8 11.3-2a133 133 0 0 1 26.2 1c2 .4 4.4.5 6 1.8 2.8-1.2 5.9-1.2 8.8-1.5a216 216 0 0 1 29.6-.3q5.3.3 10.5 1.8c3-1.2 6.4-1 9.6-1.3q5.6-.5 11.3-.9" class="c"/><path d="M8.4 35.8a327 327 0 0 1 40.1 0l13 .5q3.1 0 6.2.2c1.4.2 3 .3 4.3 1.1 3.4-1.3 7-1.6 10.5-1.8a122 122 0 0 1 22.7.8c2 .4 4.3.5 6 1.8 2.8-1.2 5.9-1.2 8.8-1.5a249 249 0 0 1 27.8-.5c3.8.2 7.7.4 11.4 1.4.4.2 1.3.5 1.7.5l1.8-.6 3.5-.4 17.4-1.2" class="c"/><path d="M8.4 33.5c13.7-1 27.3-.5 41 0l14 .4 6 .3q2.4.2 4.4 1.2c5-2.8 30-2.3 34.8.5.9 0 1.8-.5 2.7-.6q3.8-.6 7.8-.7a248 248 0 0 1 30.5-.4c3.2.4 6.7.4 9.6 1.8q5.6-1.3 11.3-1.4 6.6-.4 13-.9" class="c"/><path d="M8.4 31.2c14-1 28-.4 41.8 0l12.2.3q4.5 0 8.8.5c1.4.2 3.3.3 4.3 1.6 1-1.3 2.9-1.4 4.4-1.6q3.5-.4 7-.5 5.6-.1 11.3.4c3 .4 6 .6 8.7 2 1.2-.9 3-1 4.3-1.2l6.1-.4q7.5-.5 14.9-.8a173 173 0 0 1 22.6 1.1q2.4.3 4.4 1.4c1.2-1 3-1 4.4-1.2l6-.4q7-.4 14-1" class="c"/><path d="M8.4 29c13.4-.9 26.8-.4 40.1-.1q6.6 0 13 .3c4.7 0 9.5 0 14 1.2a4 4 0 0 0 1.8.4l1.7-.6q2.6-.5 5.2-.6 6.1-.3 12.2.2c2.6.3 5.5.4 7.9 1.7 1.1 0 2.3-.7 3.5-.8q4.7-.5 9.6-.8 8.3-.6 16.5-.7a158 158 0 0 1 21 1.2q2.2.3 4.3 1.5c1.2-1 2.9-1 4.4-1.2l6-.5q7-.4 14-1" class="c"/><path d="M8.4 26.7c13.7-.7 27.3-.2 41 0l16.5.3q3.5 0 7 .5c1.7.2 3.7.4 5.2 1.4 2.5-2.3 21.5-1.6 24.4.4 4.3-1.1 8.7-1.3 13.1-1.5q8.2-.6 16.6-.8a163 163 0 0 1 22.6 1.2c1.5.3 3.2.5 4.4 1.4 3.6-1.3 7.5-1.3 11.3-1.6q6.7-.4 13-1" class="c"/><path d="M8.4 24.6c13.7-.7 27.3-.2 41-.1q8.7 0 17.4.3 3.5 0 7 .5c1.7.3 3.7.5 5.2 1.5 2.6-2.2 19.9-1.6 22.7.5 2-1.2 4.6-1 7-1.3q4.8-.4 9.5-.6a189 189 0 0 1 37.5.8c1.5.3 3.4.5 4.4 1.8.7-1 2.2-1.2 3.5-1.4l6-.6q7-.5 14-1.1" class="c"/><path d="M8.4 22.4c13-.6 26.2 0 39.2 0l18.3.1q4 .2 7.9.6c1.7.3 3.7.4 5.2 1.3 3.7-1 7.6-1 11.3-1q3.1 0 6.1.5 2.4.2 4.4 1.3c2-1.3 4.7-1 7-1.4q5.2-.2 10.4-.6a181 181 0 0 1 37.5.7c1.8.4 3.9.7 5.2 2 1.1-1.2 3-1.2 4.4-1.4l5.2-.5c4.4-.3 8.7-1 13-1.2" class="c"/><path d="M8.4 20.3c12.8-.5 25.6.2 38.4 0h19.1l7.9.7c1.7.3 3.7.4 5.2 1.4 3.3-1.2 7-1.1 10.5-1.1q4.3 0 8.7.9c.8.1 1.8.7 2.6.7 2.4-1 5.2-1 7.8-1.2L120 21a164 164 0 0 1 37.4 1.1c1.5.4 3.5.7 4.4 2 .8-1 2.3-1.2 3.5-1.3q2.6-.4 5.2-.6c4.4-.3 8.7-1.1 13-1.4" class="c"/><path d="M8.4 18.3c11.3-.5 22.7.4 34 0a432 432 0 0 1 20-.1c5.6 0 11.3.2 16.6 2 1.6-.9 3.5-.9 5.2-1a71 71 0 0 1 13.1.6c1.2.2 2.7.5 3.5 1.5a4 4 0 0 1 2.6-1.2l4.4-.4q4.7-.4 9.6-.6a168 168 0 0 1 39.2.7c2 .5 4.4.8 6 2 3.1-1 6.5-.9 9.7-1.3q5.6-1 11.3-1.7" class="c"/><path d="M8.4 16.3q7.9-.2 15.7.1c4.6.3 9.3.8 14 .4a264 264 0 0 1 33-.2c2 .3 4.3.4 6.2 1.3.4.1 1.3 0 1.7-.3l1.7-.4a62 62 0 0 1 17.5.5c1.2.3 2.7.5 3.5 1.7q1-1.2 2.6-1.3l4.3-.5 10.5-.7q15.3-1.6 30.5-.1c4.1.5 8.3 1 12.2 2.5.8.3 1.7 1.2 2.6 1.5 1.3-1.5 3.4-1.9 5.2-2.2q3.1-.4 6.1 0c2.4-1.2 5.3-1.4 7.9-1.7" class="c"/><path d="M8.4 14.3q5.2 0 10.5.2 3.6 0 7 1a30 30 0 0 1 15.6 0C47.2 14 53.2 14 59 14c3.8 0 14.7-.2 17.4 2 3.6-2.5 18.9-1.3 23.5-.3 1.2.1 2.4 1 3.5 1q1.2-.6 2.6-.8 4.9-.6 9.6-.8a160 160 0 0 1 36.6 0q3.7.3 7 1.9 1.7-.6 3.5-.3c.8 0 2 .3 2.6.9 2-1.2 4.6-1.7 7-1.8 2 0 4.4-.6 6 .7 1.4-1.2 3.6-1.3 5.3-1.5" class="c"/><path d="M8.4 12.5h7c1.7.2 3.8.1 5.2 1.2 2.1-2.5 23-2.5 25.3-.1 1.5-1 3.5-1 5.2-1.2a103 103 0 0 1 17.5 0c2 .3 4.2.4 6 1.4 1.2 0 2.4-.8 3.5-.9q4-.4 7.9-.4 7.8-.1 15.7 1.3 1.4.3 2.6 1c1.1 0 2.3-.7 3.5-.7q3.8-.6 7.8-.8a144 144 0 0 1 34.9-.3c1.4.3 3.2.5 4.3 1.6 1.5-1 3.6-.8 5.3-.9 2.3.1 5 .1 7 1.6 1.5-1.5 4-1.5 6-1.8a21 21 0 0 1 7.9.7q1.2-.6 2.6-.8" class="c"/></svg>