<svg xmlns="http://www.w3.org/2000/svg" id="a" width="1920" height="2400" viewBox="0 0 192 240"><defs><style>.c{stroke-width:0;fill:#f63}</style></defs><path d="M0 0h192v240H0z" style="stroke-width:0"/><path d="M8.4 224.6a144 144 0 0 1 34.9.6c2.3.4 4.9.6 7 1.8 2.7-.5 6-.7 8.7.5 2.4-1 5.2-.9 7.8-1l9.6-.7q6-.5 12.2-.5c3.2 0 6.5 0 9.6.9 1.5-.8 3.5-1 5.2-1.2q3.5-.4 7-.6A139 139 0 0 1 140 226c2 .4 4.4.5 6.1 1.7a5 5 0 0 1 2.6-.4q2 0 3.5.9c3-2.3 21.6-2.1 25.3-.4 1.8-1 4-1 6-1.2" class="c"/><path d="M8.4 222.4a170 170 0 0 1 41 1.7q3.2.6 6 2.3c2.7-1.6 5.8-1.8 8.8-1.8q4-.2 7.8-.6 7.8-.8 15.7-.8c3.1 0 6.7-.3 9.6.8 4.5-1.5 9.3-1.6 14-2a159 159 0 0 1 31.3 1.6c2 .4 4.4.5 6.1 1.6q2.1-.6 4.4-.4c1.7.1 3.6.1 5.2.8q4.7-1.1 9.6-1c2.6.1 5.5-.1 7.8 1 2.5-1 5.3-1 7.9-1.1" class="c"/><path d="M8.4 220.2a189 189 0 0 1 36.6 1.3c2 .4 4.4.5 6.1 1.8 2.7-1.2 5.9-.6 8.7-.6 2.6.1 5.3-.5 7.9.3 3-1.7 27.2-3 29.6-1q1.6-1 3.5-1.1l5.2-.6a163 163 0 0 1 41.8 1.7c.8.1 1.8.7 2.6.6 4-.8 8.2-.2 12.2 0l3.5.5q1.4.4 2.6.1c1.5-.2 3 .4 4.4 0q5.2-1 10.5-.8" class="c"/><path d="M8.4 218a206 206 0 0 1 30.5 1q3.1.3 6.1 1.4c1.6-.7 3.5-.6 5.2-.7H59q3.4 0 7 .2c1.3 0 3 0 4.3.9a69 69 0 0 1 27-1c1.9-1 4-1.1 6.1-1.4q4.4-.5 8.7-.7a170 170 0 0 1 32.3 1.1c2 .4 4.4.4 6 1.7 1.8-1 4.2-.7 6.2-.8q5.2 0 10.4.4c5.5.4 11-.1 16.6.2" class="c"/><path d="M8.4 215.9a203 203 0 0 1 23.5.9q2.4.1 4.4 1c2-1 4.7-.7 7-.8h11.3l8.7.3q4.6-.1 8.7 1.1 2.5-1 5.2-1a125 125 0 0 1 17.5-.4c1.1 0 2.4.6 3.5.4q3-1 6-1.2a158 158 0 0 1 28.8-.7l10.5.9c2.3.4 4.9.4 7 1.6 5.3-1.3 11-.6 16.5-.5 5.5.4 11 .2 16.6.7" class="c"/><path d="M8.4 213.8c6.4 0 13 0 19.2 1.4 3-.9 6.4-.7 9.6-.9q7.4-.1 14.8.1l11.3.5c3.2.2 6.6.3 9.6 1.3 1.6-.8 3.5-.8 5.2-1a121 121 0 0 1 14.9-.5c1.7.2 3.6 0 5.2.9 2.4-1.2 5.2-1.3 7.8-1.6a205 205 0 0 1 31.4-.5q4 .3 7.8.8c1.8.3 3.7.4 5.3 1.4a24 24 0 0 1 7-.8l8.6.1c5.8.4 11.7.4 17.5 1.1" class="c"/><path d="M8.4 211.8q3.5 0 7 .3 2.7 0 5.2.9c4.8-1 9.9-1.1 14.8-1.2q11.4-.3 22.7.5l8.7.5c2 .3 4.3.3 6.1 1.3 4.5-1.3 9.3-1.3 14-1.5h7c1.6.2 3.6 0 5.1.9 2-1 4.1-1.1 6.1-1.4a172 172 0 0 1 38.4-.2c2.3.4 5 .3 7 1.7 1.7-1 4-.9 6-1h8.8c6 .5 12.3.5 18.3 1.6" class="c"/><path d="M8.4 209.8q2.7 0 5.2.3 2 .1 3.5 1 1.7-.9 3.5-1l4.4-.4q6.5-.4 13-.4 16.2-.1 32.3 1.8c1.2 0 2.3.9 3.5.7q3-.9 6-1l12.3-.3q4.4-.1 8.7.7c2.4-1 5.3-1 7.8-1.4q6.1-.6 12.2-.9a145 145 0 0 1 24.4 1c1.8.3 3.7.5 5.3 1.4 1.7-1 4-.8 6-1a121 121 0 0 1 19.3.8c2.5.3 5.3.4 7.8 1.2" class="c"/><path d="M8.4 207.9c2 .2 4.3.1 6.1 1.1 1.2-.8 3-.9 4.4-1.1q3.5-.4 7-.6a236 236 0 0 1 42.6 1.5q2.3.1 4.4 1.1c4.7-1.4 9.9-1.2 14.8-1.4q4.4-.2 8.7 0 3.1-.2 6.1.8c2.7-1.3 5.9-1.2 8.7-1.6q6.1-.6 12.2-.9 8-.2 15.7.3 5.8.3 11.4 1.9c2.7-1 5.8-.8 8.7-1a143 143 0 0 1 19.2 1.3c1.7.3 3.8.4 5.2 1.7" class="c"/><path d="M8.4 206q1.8.2 3.5.8a59 59 0 0 1 12.2-1.7 233 233 0 0 1 36.6.7c3.8.5 7.8.5 11.3 2 6-1.3 12.2-1.3 18.3-1.5h8.8c2 .2 4.2 0 6 1 1.6-1 3.6-1 5.3-1.3l7.8-.8a125 125 0 0 1 26.2.3c1.7.3 3.6.4 5.2 1.3 5.7-1.4 11.6-1 17.4-.7q4.8.3 9.6 1 3.1.3 6.1 1.5l.9-.3" class="c"/><path d="M8.4 204.5q1 .1 1.7.5 2.1-1 4.4-1.1 3.5-.6 7-.8a224 224 0 0 1 44.4 1.4c1.7.3 3.7.5 5.2 1.4 2.1-1.1 4.7-.9 7-1.1a404 404 0 0 1 21.8-.6c2.9.1 6 0 8.7.9 3-1.3 6.4-1.2 9.6-1.7a112 112 0 0 1 26.2 0c1.7.4 3.7.4 5.2 1.5 3.6-2.4 27.8-1 31.4 1.7l1.7-.2.9.4" class="c"/><path d="M8.4 202.7q6.5-1.3 13-1.7a223 223 0 0 1 36.7.5q3 .3 6 .9 2.4.3 4.4 1.2c3.1-.8 6.4-.8 9.6-1l25.3-.5c2.9.1 6 0 8.7 1 2.4-1.2 5.3-1.3 7.9-1.7a104 104 0 0 1 24.4 0c1.7.3 3.7.4 5.2 1.4 3-2.4 28.1-1 30.5 2.3 1.2-.4 2.2-1.4 3.5-1.7" class="c"/><path d="M8.4 200.3a224 224 0 0 1 48-.9c3.2.4 6.5.8 9.5 2.1q2.1-.7 4.4-.7h5.2l13-.4a391 391 0 0 1 21.9-.2q2.2 0 4.3.8c6.8-2.2 14-2.2 21-2q3.9 0 7.8.4 3.1.1 6.1 1.3c1.5-.9 3.5-.8 5.2-1a85 85 0 0 1 18.3 1.3q1.8.4 3.5 1.2a3 3 0 0 1 1.8.1 23.2 23.2 0 0 1 5.2-1.7" class="c"/><path d="M8.4 198.1c11.3-1.1 22.7-2 34-1.6q5.7.1 11.3.8c3 .4 6 .6 8.7 2 1.3-.7 3-.6 4.4-.7l5.2.1q6.6.4 13.1-.1a327 327 0 0 1 27-.4c1.7.2 3.7 0 5.2 1a25 25 0 0 1 8.8-2 107 107 0 0 1 18.3.3c1.7.2 3.7.3 5.2 1.3 2.4-2 21.4-1.2 23.5 1.2 1.3-1 3-.2 4.4-.3 1.8-1 4-1.3 6-1.7" class="c"/><path d="M8.4 196.2c10.7-1 21.5-2 32.3-1.7q5.2.1 10.4.8c2.3.3 5 .4 7 1.6q3.4-.8 7-.5 2.7 0 5.2.8 3.8-.9 7.8-.7c2 .1 4.4-.2 6.1 1 1.8-1.2 4.1-1 6.1-1.2q4.8-.2 9.6-.2 8.2-.1 16.6.4c1.2 0 2.3.7 3.5.5a67 67 0 0 1 29.6-.4q5.6-1 11.3-.6c3 .3 6.2.2 8.7 1.7 1.7-.5 3.8-1 5.3.1q1.5-1.1 3.5-1.5 2.5-.6 5.2-.9" class="c"/><path d="M8.4 194.8A182 182 0 0 1 46 193c2.3.4 4.9.4 7 1.5q4.6-1 9.6-.4c1 0 2.3.6 3.4.6a47 47 0 0 1 21.8.2q3.9-.9 7.9-.9 5.6 0 11.3.3l7.8.3c2 0 4.3-.2 6.1.7q3.8-1.6 7.9-1.7a96 96 0 0 1 17.4.1c1.7.3 3.7.4 5.2 1.2 2.4-1 5.3-.6 7.9-.7 2.3.3 5 .1 7 1.6 1.4-1 3.5-1 5.2-.5 3.8-1.6 8-2 12.2-2.6" class="c"/><path d="M8.4 191.5q4.4 0 8.7 0c1.7.2 3.9-.1 5.3 1 .8-.8 2.3-.9 3.4-1q2.2-.3 4.4-.3c4.9 0 10-.4 14.8 1q.9 0 1.8-.2l3.5-.4a54 54 0 0 1 9.5.4c.8 0 1.8.5 2.7.5 3.1-2.3 25-1.9 27.8.6 2.1-1.1 4.7-.8 7-1 2.3.2 4.9 0 7 1 3.3-1.3 15.2-1.8 17.4 1.3l2.6-1.3q2.6-.9 5.3-1a87 87 0 0 1 20.9.2c2 .3 4.3.4 6 1.4 1.7-.6 3.8-.2 5.3.5.8 0 1.8-.4 2.6-.4q.9 0 1.8-.5l2.6-.7q7.3-1.5 14.8-2.2" class="c"/><path d="M8.4 188.7c9.6-.3 19.2.4 28.8.4h14l4.3.4c1.1 0 2.6.3 3.5 1.1 2.8-3 17.3-2.2 21.8-2 3.7.5 7.8.5 11.3 2.1q1.7-.2 3.5-.4c1.7 0 3.7 0 5.2.8 3.2-1.6 7-1.5 10.5-1.7 3.7 0 7.8-.1 11.3 1.7a7 7 0 0 1 3.5-.6q1.7 0 3.5.6c4.8-1.3 9.8-1.3 14.8-1.2l7 .5q2.7.1 5.2 1 5.2-1 10.4-1.7 8.2-1.1 16.6-1.8" class="c"/><path d="M8.4 186.2q14-.2 27.9.3 5.7 0 11.3.3c2.6.2 5.5 0 7.9 1.1 1.1 0 2.3-.8 3.5-1q4.6-.9 9.6-1 9.5-.3 19.1 1.1c2 .4 4.3.7 6.1 1.7 1.8.1 3.7-.6 5.2.6 1.2-1 3-1.3 4.4-1.6q3.5-.6 7-.7c4.1-.1 8.2 0 12.2 1.4 2.4-1 5.3-.7 7.8-.7 5.2 0 10.5 1 15.7.9 12.5-.7 25-2.2 37.5-3" class="c"/><path d="M8.4 183.7q13.5-.1 27 .4 5.2 0 10.5.4c2.3.3 5 0 7 1.4 4-2.6 16.6-2.6 21.8-2.5a98 98 0 0 1 16.5 1.9q1.8.3 3.5 1 1.2.9 2.6.7l.9.6c1.6-2.5 9.2-2.7 12.2-3 2.8 0 9.4-.4 11.3 1.7.9-1 2.3-1 3.5-1.2l6.1-.1q8.2.2 16.6.2c11.9 0 23.8-1.3 35.7-2" class="c"/><path d="M8.4 181.3q13.1 0 26.2.5 4.8.1 9.5.5l5.3.9.8 1c1-1.5 2.9-1.7 4.4-2l6.1-.8q12.2-1 24.4.5c3.4.6 10.1 1 12.2 3.8 3.5-2.6 8-2.8 12.2-3.1 2.8-.1 9.4-.6 11.3 1.3.9-1 2.3-1 3.5-1.2q3-.3 6.1-.3H147c12.2.1 24.4-1 36.6-1.5" class="c"/><path d="M8.4 179a473 473 0 0 1 33.1 1c2 .4 4.5.2 6.1 1.6a7 7 0 0 1 3.5-1.4q2.6-.5 5.2-.8 8.8-1.1 17.5-.7c4.6.3 21.3 1 23.5 4.7l.9-.6.8.1c3.5-2.5 11.4-2.6 15.7-2.5q1.8 0 3.5.4.9.4 1.8.3 1.6-.7 3.5-.8c9.2-.8 18.6-.2 27.8-.4 10.8-.1 21.5-.8 32.3-1.3" class="c"/><path d="M8.4 176.7a417 417 0 0 1 30.5 1.1c2 .3 4.3.3 6.1 1.3 4.2-1.5 8.7-2 13-2.3a126 126 0 0 1 32.3 1.4c2.4.5 5 1 7 2.5q1.7-1 3.5-.4 2.9-1.4 6-1.7 3.7-.3 7-.2 1.9 0 3.5.5 1.4-.2 2.6-.6c4-.7 8.2-.7 12.2-.8h16.6c11.6 0 23.3-.7 34.9-1.1" class="c"/><path d="M8.4 174.5a365 365 0 0 1 28.8 1.2c2 .2 4.3.3 6 1.4q1.6-1.1 3.6-1.3l4.3-.7q5.7-.7 11.4-1a133 133 0 0 1 30.5 2.4c1.5.4 3.2.9 4.3 2 1.7-1.4 4.1-.8 6.1-.8a21 21 0 0 1 11.3-.8c4.5-1.4 9.3-1.5 14-1.7q8.3-.2 16.5-.2 19.2-.1 38.4-.8" class="c"/><path d="M8.4 172.3a325 325 0 0 1 29.7 1.6l1.7.4q.8.5 1.7.4c1.9-1 4.1-1.2 6.1-1.5a142 142 0 0 1 43.6.7c2 .5 4.7.7 6.1 2.4q1.6-1 3.5-1.1h4.4l3.4.2 1.8-.5c11.1-2.5 22.6-2 34-2.2q19.5 0 39.2-.6" class="c"/><path d="M8.4 170.2a279 279 0 0 1 25.3 1.2c1.7.3 3.7.4 5.2 1.4 4.6-2 9.9-2 14.8-2.6a147 147 0 0 1 34.9 1c2.9.6 6.2.9 8.7 2.5q1 .1 1.7-.4l1.8-.3q3.5-.4 7-.6 7.8-1 15.6-1.6 15.8-.6 31.4-.4 14.4-.1 28.8-.4" class="c"/><path d="M8.4 168a254 254 0 0 1 24.4 1.5c1.5.2 3.2.3 4.4 1.3 2-1.3 4.6-1.5 7-1.8a159 159 0 0 1 34-1c3.9.3 18 1.3 20 4.2 1.2-1.5 3.4-1.3 5.2-1.6l6.1-.7q10.8-1.4 21.8-1.6c17.4-.3 34.9 0 52.3-.3" class="c"/><path d="M8.4 166a229 229 0 0 1 22.7 1.4c1.4.3 3.2.4 4.3 1.5 2-1.5 4.7-1.6 7-2a183 183 0 0 1 38.4-.8c5 .5 10 1 14.8 2.3 1.1.2 2.3 1 3.5 1.3 1.2-.8 2.9-1 4.3-1.2l7-1q11.8-1.3 23.5-1.4c16.6-.3 33.1 0 49.7-.2" class="c"/><path d="M8.4 164a201 201 0 0 1 21.8 1.6q2 .1 3.5 1.3c1.9-1.5 4.7-1.5 7-2a193 193 0 0 1 40-.8q5.7.5 11.4 1.5c2.3.5 5 .8 7 2 11.2-3 23.2-3.3 34.8-3.6 16.6-.4 33.1 0 49.7 0" class="c"/><path d="M8.4 162.2a167 167 0 0 1 20 1.4c1.3.2 2.8.5 3.6 1.5.8-1 2.2-1.3 3.4-1.5l4.4-.7q6.1-.8 12.2-1.1a165 165 0 0 1 45.3 3c1.2.2 2.4 1.1 3.5 1.1q2.1-1 4.4-1.5 3-.7 6-1c7.3-1.1 14.6-1.2 21.9-1.5 16.8-.4 33.7.1 50.5.3" class="c"/><path d="M8.4 160.3a144 144 0 0 1 18.3 1.4c1.2.3 2.6.5 3.5 1.4.9-1 2.3-1.2 3.5-1.4q3-.6 6-.8 8-.8 15.8-1.4c12.2-.5 24.6-.1 36.6 2.5 1 .3 2.3 1 3.5.6 2 0 4.6.2 6 1.8l1-.6c.9.1 1.8-.6 2.6-1l3.4-1c8-1.6 16.3-1.5 24.4-2 16.9-.4 33.7.2 50.6.5" class="c"/><path d="M8.4 158.5q5.7 0 11.3.7c3 .4 6 .7 8.8 1.9q1.6-1 3.4-1.2l5.3-.7q7-.8 14-1.3 10.7-.9 21.7-.3c4.7.4 9.4.7 14 1.8.7.5 1.8.6 2.5.2l2.7-.1q5.9-.2 11.3 2c1-.6 2.5-.9 3.5-.2 3.5-3.2 21.4-3 27-3.4 16.6-.5 33.1.1 49.7.7" class="c"/><path d="M8.4 156.8a83 83 0 0 1 16.6 2.1q.8.6 1.7.4 2.5-.9 5.2-1l7-1a183 183 0 0 1 36.6-1.3c2.6.4 5.5.4 7.8 1.6 3.7-1.1 7.6-.8 11.4-.7 3.5.4 7.3.5 10.4 2.4 1.2-.8 3-1 4.4-.3 2.3-1.9 8.2-2 11.3-2.3l14.8-.8q24-.4 48 1.1" class="c"/><path d="M8.4 155.3c3.5.1 7.2.2 10.5 1.6 1.7 0 4-.7 5.2 1 .8-1.2 2.3-1.5 3.5-1.7a44 44 0 0 1 10.5-.8c1 0 2.5 0 3.4.8 4-3 34.3-3.6 38.4-.6 2.9-2.2 16-1.2 20-.7 2.4.4 5 .7 7 2q1 0 1.7-.3 1.8-.3 3.5.2c1.2-1 3-1.2 4.4-1.4q3.8-.5 7.8-.7a305 305 0 0 1 41-.3c6 .3 12.3.3 18.3 1.4" class="c"/><path d="m8.4 154.2 1.7.4q1.4-.5 2.7-.5c2.8-.2 6-.5 8.7.6 1.1-.1 2.3-.9 3.5-1a68 68 0 0 1 17.4-1q2.8-.1 5.2 1a61 61 0 0 1 28.8-.4c5.2-1.8 11-1.4 16.5-1.4q4.9.2 9.6.8 4.2.4 7.9 2.3c1.2-.8 3-.8 4.3-.2 3.8-1.7 8.2-1.4 12.2-2q11-.8 21.8-.7 9.1 0 18.3.6c4.4.4 9 .2 13 1.7q1.7-.9 3.6-1" class="c"/><path d="M8.4 151.6c3.8 0 7.7-.3 11.3.8 4-2.6 28.4-3.5 32.3-.8 2.2-2 19.2-2 21.8-.3 3.6-1.4 7.5-1.6 11.3-1.7q7.5-.3 14.8.3c3.5.4 11.6 1 14 3.2 1.7-1.3 4.1-.5 6-.4 4-1.1 8.2-1.4 12.3-1.8q9-.7 18.3-.5a391 391 0 0 1 21.8 1.1q2.2.1 4.3 1 3.3-1.4 7-1.4" class="c"/><path d="M8.4 149.4h5.2q2 0 3.5 1c3-3.1 35.4-4 38.4-.7q1.5-1.2 3.5-1.1a42 42 0 0 1 9.6 0q1.8 0 3.5 1c2.1-2.1 11.5-2.2 14.8-2.4q9.6-.3 19.1.9 6.8.6 13.1 2.7 3.5-1 7 0c4.7-1.5 9.8-1.7 14.8-1.9 8.7-.3 17.5.4 26.1 1q2.6 0 5.3.4c.8 0 1.8.7 2.6.5a21 21 0 0 1 8.7-1.8" class="c"/><path d="M8.4 147.3c2 0 4.3-.1 6.1.7 6.7-2.9 37.8-4.1 43.6-.5 2.1-.9 4.6-.9 7-.9 1.7.2 3.8 0 5.2 1.1 2.7-2.2 10.3-2.3 14-2.7q15.7-.7 31.3 1.7 4.3.6 8.7 1.1c2 .4 4.6.4 6.1 2.1l.9-.6c1.1.1 2.3-.6 3.5-.7 2.5-.4 5.3-.8 7.8-.2 4.5-1.7 26-2 29.6.8q1.4-.5 2.7-.2c2.5-1.7 5.7-2 8.7-2" class="c"/><path d="M8.4 145.4c1.4 0 3.2-.2 4.4.8 1.6-1.4 4-1.3 6-1.7a141 141 0 0 1 28.8-1.2q6.8.1 13.1 2.2 2.1-.7 4.4-.6c1.4 0 3 0 4.3.8 2.3-2.1 9.8-2.4 13-2.8 11.1-.8 22.2-.1 33.2 1.1q6.1.6 12.2 1c2 .4 4.3.4 6.1 1.5 3.9-1.4 8.2-1.3 12.2-1.6q8.8-.5 17.4.1l5.3.7c.8.2 1.7.8 2.6.7q3.3-1.2 7-.5c1.5-.8 3.5-.8 5.2-.9" class="c"/><path d="M8.4 143.6c4-.3 8.1-1.3 12.2-1.6q10.5-1.2 21-1c4.4 0 16.8.2 20 2.8 1.8-.8 4.2-1 6 0 4.9-2.5 10.5-2.6 15.8-3.2 10.7-.7 21.5-.1 32.2 1 7.3.6 14.8.3 21.8 2.4 3.4-2 29.3-2.3 32.3.3 2.7-1.2 5.8-1.2 8.7-1.2 1.7 0 3.5.3 5.2 0" class="c"/><path d="M8.4 140.8c5 0 9.9-1 14.8-1.3A176 176 0 0 1 45 139c3.7.2 15.5.5 17.4 3.3l1-.6c.8-.2 1.9 0 2.5.6 2.2-2.6 10.5-3.2 14-3.6 11.8-1.2 23.8-.6 35.7.4q7.5.4 14.8 1c2.9.4 6 .4 8.7 1.6a97.2 97.2 0 0 1 24.4-1q2.8 0 5.3 1.1c4.7-1.6 9.8-1.1 14.8-1.4" class="c"/><path d="M8.4 138.4c5.5 0 11-.8 16.6-1.1q10.5-.7 20.9-.3c4.1.4 13.8.6 16.6 3.5l.8.2c3.2-3 9.8-3.4 14-4 11-1.3 22-1 33-.3 8.5.8 17 .9 25.3 1.9l3.5.5c.8.1 1.8.7 2.7.6q2.5-.9 5.2-1a108 108 0 0 1 15.7 0q3.1 0 6 1.2c1.6-1 3.6-1 5.3-1.2q4.8-.4 9.6-.4" class="c"/><path d="M8.4 136c6.1 0 12.2-.6 18.3-.9 8.7-.4 17.5-.5 26.2.7 2.3.4 4.9.7 7 2 .8.3 1.7 0 2.5.4 2.7-2.7 11.8-3.4 15.7-4a209 209 0 0 1 38.4.4q8.2.5 16.5 1.1l6.1.7q2 .1 3.5 1.1c1.2-.9 3-1 4.4-1.2l7-.4c4.9 0 10-.3 14.8 1.4 1.5-1 3.5-1 5.2-1.2q4.8-.3 9.6-.4" class="c"/><path d="M8.4 133.8c10.5-.1 21-1.2 31.4-.8q4.8 0 9.6.7c2.3.3 4.9.6 7 1.8 1.5-.8 3.7-.8 5.2 0 2.3-1.4 5.2-1.8 7.8-2.4q5.2-.9 10.5-1.3a193 193 0 0 1 28.7 0q11 .9 21.8 1.5l7.9.7c1.7.2 3.7.2 5.2 1.3 2.5-2 23-2.3 25.3-.2 1.8-1 4-1 6-1.3l8.8-.3" class="c"/><path d="M8.4 131.7c9-.1 18-.9 27-.6q4.9 0 9.6.5c2 .3 4.4.3 6.1 1.6 1.2-1 3-.8 4.4-.9 1.7 0 3.7-.1 5.2.8 2.4-1.3 5.2-1.7 7.8-2.2q5.2-.9 10.5-1.3 14.9-1 29.6.1 10.5.8 21 1.4c4.9.4 10 .5 14.8 1.8 1.8-.9 4-.9 6-1.1a106 106 0 0 1 14.9 0c1.4.2 3.3.2 4.4 1.3 1.3-1.3 3.5-1.1 5.2-1.4q4.4-.4 8.7-.4" class="c"/><path d="M8.4 129.6c7.6-.1 15.1-.6 22.7-.4 4.6 0 9.4.1 14 1.3 2.7-1 5.7-.7 8.6-.8 2 .2 4.5-.1 6.1 1.2 1.9-1.6 4.7-1.6 7-2.1q5.2-.9 10.5-1.3 14.7-1.2 29.6-.1 10.8 1 21.8 1.6l8.7.6q3.6.1 7 1.2c3-2 22.9-2.1 26.1-.3 4.2-1.3 8.7-1.2 13-1.3" class="c"/><path d="M8.4 127.6c7.6-.2 15.1-.6 22.7-.2q2.2 0 4.3.4 1.3.3 2.6.5c3.4-1 7-.9 10.5-1 3.5.1 7.2-.3 10.5 1.2 2.2-1.6 5.2-1.6 7.8-2.1q6.5-.8 13-1.4 13.2-.7 26.2.2 13.5 1.3 27 2l7.9.7c1.2 0 2.4.8 3.5.6 3.8-1.7 24.7-2.2 27.9 0 1.2-.7 2.9-.9 4.3-1q3.5-.3 7-.3" class="c"/><path d="M8.4 125.7q7-.5 14-.4 4.8-.2 9.5 1c1.6-.8 3.6-.8 5.3-1l7-.4c4.6 0 9.3 0 13.9 1 2.3-1.2 5.2-1.3 7.8-1.7q6.1-.9 12.2-1.3 18.8-1 37.5 1 8.2 1 16.6 1.3c3.7.3 7.7.2 11.3 1.4 1.2-.7 3-.9 4.3-1.1q3-.4 6.1-.5a114 114 0 0 1 19.2.7c.4.2 1.3.4 1.8.4 2.7-1 5.8-.7 8.7-.8" class="c"/><path d="M8.4 124.3c1.3-.6 3-.6 4.4-.8a85 85 0 0 1 11.3 0c1.1.2 2.6.2 3.5 1 2-2.3 26-2.6 28.7-.7.9 0 1.8-.7 2.7-.8l3.4-.7a198 198 0 0 1 57.6.1q6 .6 12.2.9c3.4.2 7 .2 10.4 1.2 3.3-2.3 32.4-3 34.9 0 1.6-1.3 4.1-.9 6-1" class="c"/><path d="M8.4 121.5q1.4.2 2.6.8c1.9-.9 4.1-.7 6.1-.8q4-.2 7.9.7c3.4-2.1 27-2.7 30.5-.6.8-.1 1.8-.7 2.6-.8q3-.7 6-1 6.2-.8 12.3-1.2 20-1.3 40 1.5 7 .9 14 1.3c3.5.3 7.2 0 10.5 1 5.9-1.7 12.1-1.8 18.3-2q12.2-.4 24.4 1.7" class="c"/><path d="M8.4 119q2.3.3 4.4 1.4c1.5-1 3.5-.8 5.2-.8q2.3-.2 4.4.8c2.8-1.6 6.4-1.6 9.6-2a129 129 0 0 1 20.9.3c.8.2 1.7.8 2.6.6 1.5-.9 3.5-1 5.2-1.3q24-3.3 48-.9c6 .6 12.1 1.7 18.2 2.3 4.4.5 8.9 0 13.1 1.2 1.8-1 4-1.2 6.1-1.5q4.8-.5 9.6-.8 14-.6 27.9.9" class="c"/><path d="M8.4 116.8c1.7.3 3.7.5 5.2 1.4 2.3-.3 4.9-.9 7 .3 3.1-3 30-3.6 34-1.2 2-1.3 4.7-1.3 7-1.7l10.4-1a195 195 0 0 1 55.8 3.6c3.4.5 7.2-.7 10.5.7 1.7-1.3 4-1.4 6-1.8l10.5-1q14.4-.5 28.8.7" class="c"/><path d="M8.4 114.6c2 .3 4.3.6 6.1 1.7q1 0 1.7-.2 1.4 0 2.7.4c3.7-3.2 30.4-3.8 34.8-1.4 5.3-1.8 11-2 16.6-2.5a199 199 0 0 1 44.4 1.3l5.3 1q1.8.3 3.5 1.3c1-.7 2.3-.6 3.4-.6q2.2 0 4.4.5c1.2.1 2.4.7 3.5 1h1.7c2-1.3 4.7-1.5 7-2q5.6-.7 11.3-1 14.4-.8 28.8.4" class="c"/><path d="M8.4 112.4c2.4.5 5.2.7 7 2.5l1.7-.2c3.4-3.7 32.5-4.4 36.6-1.6 2.4-1.2 5.2-1.4 7.9-1.7l9.6-1a194 194 0 0 1 42.7 1.4c2.6.5 5.4.9 7.8 2.1 1.3-.7 3-.6 4.4-.6q2.6 0 5.2.6 1.4.2 2.6.8h1.7l1.8-.1c2.4-1.2 5.2-1.4 7.8-1.8q5.3-.7 10.5-1 14-.6 27.9.5" class="c"/><path d="M8.4 110.4q3.9.4 7 2.5c2.5-1.8 5.7-2.4 8.7-2.8a102 102 0 0 1 22.7-.6c2.3.3 4.8.2 7 1.3.8 0 1.7-.5 2.5-.7l3.5-.6q7-.8 14-1.3 13.9-1 27.9 0c6.4.6 13 1.2 19.1 3.5 2.2-1 9.6-.6 11.4.9 1.2-.8 2.9-.8 4.3-.7q.9 0 1.8.3l1.7-.5c6.2-1.6 12.8-1.7 19.2-2q12.1-.5 24.4.5" class="c"/><path d="M8.4 108.4q1.8.3 3.5 1 .8.7 1.7.7.9-.2 1.8 0c.8-.1 1.8-.8 2.6-1q3.4-1 7-1.4a118 118 0 0 1 25.2 0q2.4.2 4.4 1.3 1.5-1 3.5-1.2l4.3-.6 10.5-1a180 180 0 0 1 41.8 1.7c1.8.5 4 .6 5.3 2.1 1-1.1 2.9-.9 4.3-1 2 .2 4.4.2 6.1 1.2 1.5-1 3.5-.8 5.3-.9 1.4.1 3.2 0 4.3 1 2-2.2 14-2.4 17.4-2.6 8.7-.3 17.5-.4 26.2.6" class="c"/><path d="M8.4 106.6q1.5.3 2.6 1.2c1.4-.5 3.1-.8 4.4.1 4.7-4.1 34-3.9 40-1 2.1-1.2 4.7-1.2 7-1.6l8.8-.8a183 183 0 0 1 41.8 1q3.7.5 7 2.1c1.2-.7 2.9-.6 4.3-.6q2.4 0 4.4 1c2.2-1.3 10-1.4 12.2-.2 2.7-1.2 5.8-1.4 8.7-1.7a172 172 0 0 1 24.4-.5c3.2.2 6.5.2 9.6 1" class="c"/><path d="m8.4 105 .9.6c1.4-1 3.6-.8 5.2-.3 1.2-.1 2.3-1 3.5-1.1q4.7-1.1 9.6-1.3a128 128 0 0 1 23.5.6q2.8.3 5.2 1.6c2-1.4 4.7-1.3 7-1.6l10.5-1.1a171 171 0 0 1 41 1.4c1.7.4 3.8.6 5.2 2 1.2-.9 3-.8 4.3-.7 1.2 0 2.7.1 3.5 1.1q1-1 2.6-1.1a37 37 0 0 1 8.8-.1q1.5 0 2.6 1c.8-1 2.3-1.2 3.5-1.4l4.3-.5a193 193 0 0 1 30.5 0q1.6.2 2.6 1.4l.9-1" class="c"/><path d="M8.4 102.8a10 10 0 0 1 5.2.2c1.2 0 2.4-1 3.5-1q4.4-1 8.7-1.3a127 127 0 0 1 26.2.8c1.7.4 3.7.6 5.2 1.6q3-1 6.1-1.3l8.7-1q15.7-1.9 31.4-.7c4.2.4 14.5 1.1 17.4 3.6q1.2-.7 2.6-.6 2.3 0 4.4.6a27 27 0 0 1 14-.2c6.4-1.8 13.3-1.7 20-1.9a203 203 0 0 1 16.5.6c.8.1 1.8.6 2.6.6q1.3-.7 2.7-1" class="c"/><path d="M8.4 100.3c1.4 0 3.1-.1 4.4.7 6.2-4.2 40-3.6 46.2.6 2.4-1.1 5.2-1.2 7.8-1.7a164 164 0 0 1 38.3-1.8c6 .5 12 1.2 17.5 3.4 2-.7 4.1-.2 6 .2a24 24 0 0 1 13.1-.1c2.1-1.1 4.7-1 7-1.3a171 171 0 0 1 22.7-.4c2.3.2 4.8 0 7 1q2.4-1 5.2-1.5" class="c"/><path d="M8.4 98.2q1.4 0 2.6.4.9-.1 1.8-.5 1.6-.6 3.4-1 5.7-1 11.4-1a119 119 0 0 1 26.1 1.8c1.2.3 2.7.7 3.5 1.7q1.2-.8 2.6-.4.9.5 1.8.3c2.4-1.2 5.2-1.2 7.8-.8 1.8-1 4-1.3 6.1-1.7q4.4-.7 8.7-1a144 144 0 0 1 34 1.5c2.3.6 5 .9 7 2.3 1.5-.8 3.6-.5 5.2.1q4.8-1.4 9.6-.2c2.4-1 5.3-1 7.8-1.3a171 171 0 0 1 21.8-.3c2.3.2 4.9 0 7 1 2-1.3 4.7-1.5 7-2" class="c"/><path d="m8.4 96.3.9.4c7-4 33.8-3.7 41.8-1a3 3 0 0 0 1.7.5q1.3-.5 2.7-.5c2.6 0 5.5-.1 7.8 1.2q3-1.2 6.1-1.3c1.7 0 3.6-.2 5.2.5a36 36 0 0 1 9.6-2q6.5-.7 13-.7 14.2 0 28 2.8l6 1.2c1.5.3 3.2.2 4.4 1a5 5 0 0 1 2.7-1l4.3-.5q6.1-.5 12.2-.6 5.7 0 11.3.2c2.6.2 5.5-.2 7.9 1 3-1.5 6.4-2 9.6-2.5" class="c"/><path d="M8.4 93.8a98 98 0 0 1 34.9-1.6q2.8.3 5.2 1.4 1.3-.2 2.6-.5A37 37 0 0 1 66 94.3c2.1-1.5 10.9-1.8 13-.4 2.5-2 9.9-2.1 13.2-2.4q15.3-.8 30.5 1.5a164 164 0 0 0 20 1.6l17.4-.2q3.5 0 7 .4c1.5.2 3.2.4 4.4 1.4l.8-.4h.9c3.1-1.8 7-2.1 10.5-2.9" class="c"/><path d="M8.4 91a120 120 0 0 1 33.1-1c1.5.3 3.3.5 4.4 1.7.8-1 2.3-1.1 3.5-1.3a49 49 0 0 1 12.2 0c1.7.3 3.6.4 5.2 1.3q1 .2 1.7-.4l1.8-.4q6.1-1 12.2.5c1.8-1.1 4-1.3 6-1.6q4.9-.6 9.7-.7c10.8-.4 21.5 1.1 32.2 2q11.3.6 22.7.5l8.7.3c2 .3 4.4 0 6 1.4 1.5-1.2 3.6-1.1 5.3-1.3a24 24 0 0 1 7 .2q1.6-.9 3.5-1.2" class="c"/><path d="M8.4 88.3a134 134 0 0 1 30.5-.5c1.5.2 3.3.4 4.4 1.5 2.6-2 10.4-1.6 14-1.6q3 0 6 .4c1.8.2 3.9.4 5.2 1.7q1.2-1 2.7-1.2l4.3-.4c3.2 0 6.6-.2 9.6 1 1.7-1.2 4-1.3 6.1-1.6q4.8-.6 9.6-.7c10.5-.3 21 1 31.4 1.5 8.7.5 17.4.4 26.1 1q2.2 0 4.4.4c.8.1 1.7.7 2.6.5 3-1 6.4-1 9.6-1.3 2.8 0 6-.6 8.7.8" class="c"/><path d="M8.4 85.8c7.6-.9 26.8-2.2 33.1 1.1 2.9-2.1 12.8-1.7 16.6-1.7q3.5.2 7 .6c1.5.3 3.4.5 4.3 2q1-1.4 2.6-1.5 2.2-.4 4.4-.4h6q2.4.1 4.4 1c5-2 10.5-2 15.7-2.2 8.5-.3 16.9.5 25.3 1l21.8.7q4 0 7.8.5c1.8.2 3.8.2 5.3 1.3q1.5-1 3.5-1.2l5.2-.5c4-.2 8.2-.5 12.2 0" class="c"/><path d="M8.4 83.3c5.5-.6 28-2 31.4 1.6 1.8-2.3 11.7-2 14.8-2.1q4.4 0 8.7.4c2.4.3 5 .4 7 1.8 2-2 15.8-2 18.3-.3 1.1-.1 2.3-1 3.5-1 4.3-1 8.7-1.1 13-1.2 10.5-.3 21 .7 31.4.9 7 .2 14 .3 21 1.1l2.5.5c.4.3 1.3.5 1.8.3 3-1.1 6.4-1 9.6-1.4q6-.5 12.2 0" class="c"/><path d="M8.4 80.9c6.6-.5 24.3-1.5 29.6 1.4 1.2 0 2.3-.9 3.5-1q7-1 14-.8 4.3 0 8.7.4c2 .3 4.3.5 6 1.5q1 .1 1.8-.4l1.8-.4a48 48 0 0 1 13 0q2 0 3.5 1 2.8-1.4 6.1-1.7 4-.5 7.9-.6c7.2-.4 14.5 0 21.8.3l20 .6c5 .3 10 .3 14.8 1.9q2.1-1 4.4-1.2l5.2-.4q6.5-.5 13-.2" class="c"/><path d="M8.4 78.5c5.7-.4 24.7-1.3 28.8 1.8 2.6-1.4 5.7-1.6 8.7-1.9a113 113 0 0 1 20 .4c1.8.4 4 .4 5.3 2q1.4-1.4 3.5-1.5l6-.3c3.8 0 7.8 0 11.4 1.4 1.4-1 3.5-1.3 5.2-1.6l7.9-.7c7-.3 14 0 20.9.1q10.5.2 20.9.6 4 .1 7.8.6c1.8.3 3.7.4 5.3 1.3q5.1-1.5 10.4-1.6 6.6-.5 13.1-.2" class="c"/><path d="M8.4 76.2c5.7-.3 23.8-1.1 27.9 1.9 2.7-1.3 5.8-1.6 8.7-1.8a114 114 0 0 1 19.2.1c2.3.3 4.9.4 7 1.6 1.1 0 2.2-.7 3.4-.8a54 54 0 0 1 14-.1c1.5.2 3.3.3 4.3 1.6 2.6-3.7 27-3 32.3-2.9q10.8.2 21.8.6 4 .1 7.8.6c1.8.3 3.8.4 5.3 1.4 3.3-1.2 6.9-1.5 10.4-1.7q6.6-.4 13-.2" class="c"/><path d="M8.4 73.9q11.4-.8 22.7.5 1.7.3 3.5.9.7.5 1.7.5c2.6-1.5 5.8-1.4 8.7-1.8a124 124 0 0 1 21 .4q3.1.3 6 1.6c2.1-2 19.7-1.9 21.8.2 3.7-1.9 8.1-2 12.2-2.3a211 211 0 0 1 17.4-.4c11.4.3 22.8-.2 34 1.6.5 0 1.4.3 1.8.5a3 3 0 0 0 1.7.4c1.8-1 4-1 6.1-1.3q8.2-.8 16.6-.5" class="c"/><path d="M8.4 71.7c5.8-.2 22.8-.9 27 2.3 2.8-2.8 18.3-2.3 22.7-2.2 3.3.3 11.7 0 14 2.3 1.1-1 2.8-1.1 4.3-1.3a65 65 0 0 1 13 0c1.8.2 3.8.2 5.3 1.2 4.1-1.6 8.6-2 13-2.3 7.3-.5 14.6-.3 21.8-.4a306 306 0 0 1 26.2 1.2c1.7.3 3.8.4 5.2 1.7q1.5-1.3 3.5-1.4 2.6-.4 5.2-.6 7-.5 14-.2" class="c"/><path d="M8.4 69.5c5.4-.2 22.3-.7 26.2 2.2 3-1.4 6.3-1.7 9.5-1.9a127 127 0 0 1 21.8.4c2 .3 4.3.4 6.1 1.4a73.8 73.8 0 0 1 19.2-.9q2.2.2 4.4 1.1 1 0 1.7-.5l1.7-.5q3.5-.7 7-1c7.5-.7 15.1-.6 22.7-.7a279 279 0 0 1 27 1c1.7.3 3.7.5 5.2 1.5.9 0 1.8-.6 2.6-.7q1.8-.5 3.5-.6 8.2-.8 16.6-.5" class="c"/><path d="M8.4 67.4c5.8-.2 21.9-.7 26.2 2.4 2.6-2.7 16.6-2.3 20.9-2.3 5.8.3 11.8.2 17.4 2q2.1-.9 4.4-1a81 81 0 0 1 16.5.4c1.2 0 2.4.8 3.5.9 1.3-.9 3-1.1 4.4-1.4l7-.8q9-.6 18.2-.6a278 278 0 0 1 29.7 1c1.7.3 3.8.4 5.2 1.7 2.8-1.7 6.4-1.6 9.6-1.9q6-.4 12.2-.1" class="c"/><path d="M8.4 65.3c5.6-.2 20.9-.6 25.3 2.1q1 0 1.7-.5 1.7-.5 3.5-.8 9-1 18.3-.5l9.6.6q1.8.1 3.5.5 1.6.1 2.6 1.3c1-1.3 2.9-1.2 4.4-1.4A78 78 0 0 1 98.2 68c1.2-1 2.9-1.2 4.3-1.5q3-.5 6.1-.7 9.1-.7 18.3-.9c5.8 0 33-.9 35.8 3 .8-1 2.3-1.3 3.5-1.5q2.5-.5 5.2-.6 6-.4 12.2-.1" class="c"/><path d="M8.4 63.2c4.5-.2 22.9-.6 25.3 2.6 3-3.7 33-2.3 38.3-.8.4.2 1.3.4 1.8.4l2.6-.6q3.5-.4 7-.4 4.8 0 9.5.2c2 .3 4.5 0 6.1 1.5 1.2-1 3-1.3 4.4-1.6q2.6-.5 5.2-.7 8.2-.8 16.6-1c9.3-.4 18.6-.6 27.9.2l6 .7c1.5.3 3.3.6 4.4 1.7 2.6-1.6 5.9-1.5 8.7-1.8q5.7-.4 11.4 0" class="c"/><path d="M8.4 61.2c6-.2 20.4-.6 25.3 2.3 3.7-3.4 33.3-1.8 39.2-.5l1.7.5 1.8-.5 4.3-.4a127 127 0 0 1 17.5.5c.8.1 1.8.6 2.6.6 2.9-1.5 6.4-1.5 9.6-2q7.4-.6 14.8-1 12.2-.6 24.4-.2 4.4.3 8.7.8c2 .3 4.3.5 6.1 1.7q1 0 1.7-.5l2.7-.6q7.3-.8 14.8-.4" class="c"/><path d="M8.4 59.2q7.6-.4 14.8.2c3.2.3 6.7.3 9.6 1.8q1 .2 1.8-.4l2.6-.6c6.3-.9 12.8-.8 19.1-.5 6.7.5 13.6.2 20 1.9 2.5-.9 5.3-.7 8-1a131 131 0 0 1 15.6.6c.8 0 1.8.6 2.6.5 1.6-.9 3.5-1 5.2-1.4q9.1-1.2 18.3-1.5 13.1-1 26.2-.3 4.4.3 8.7 1c1.8.3 4 .4 5.2 2q1-1.2 2.6-1.3 2.2-.5 4.4-.5 5.3-.4 10.5-.1" class="c"/><path d="M8.4 57.3c5.1-.2 20.6-.5 24.4 2 3.3-1.3 7-1.4 10.5-1.6q7.9-.2 15.7.2l13 .7q2.2 0 4.4.4c1.1.1 2.6.2 3.5 1 1.2-.8 3-.8 4.3-1A125 125 0 0 1 99 59c1.8.1 3.8 0 5.3 1.1q1.5-1.2 3.5-1.4l4.3-.7q6.6-.7 13.1-1.2a204 204 0 0 1 35.7.3q3.7.3 7 2c2-1.4 4.7-1.2 7-1.4q4.3-.3 8.7 0" class="c"/><path d="M8.4 55.5c4.1-.3 22.3-.7 24.4 2.2 2.6-3 22.4-1.9 27-1.6q8.2.3 16.6.6c3.4.2 7.2 0 10.4 1.4 1.3-.7 3-.7 4.4-.9a95 95 0 0 1 12.2 0q2-.1 3.5 1c1.9-2.3 14.7-2.8 18.3-3.2q15.7-1.6 31.4-.6 3.9.3 7.8 1 2.8.3 5.2 1.8c1.7-1.3 4.1-1.1 6.1-1.3q4-.3 7.9 0" class="c"/><path d="M8.4 53.7c5.6-.4 20-.8 24.4 1.8 1.2-1 3-1 4.4-1.3q3.4-.4 7-.4 9.5-.1 19.1.5c6.4.2 12.8 0 19.2.3 4 .2 8.3.3 12.2 1.4 1.3-.6 3-.6 4.3-.7a62 62 0 0 1 9.6.1q1.4.7 2.6 0c5.1-1.6 10.5-1.8 15.7-2.5q13.5-1.5 27-.8c4.2.3 14.4.7 17.5 3a30 30 0 0 1 12.2-1" class="c"/><path d="M8.4 52a108 108 0 0 1 21.8.6q1.3.4 2.6.7 2.5-1 5.2-1.1 3.5-.3 7-.3c7.6-.2 15.1.5 22.7.5q10.5-.1 20.9 0 3.5 0 7 .5c1.7.2 3.8.2 5.2 1.3 2-1.3 9.8-1.4 12.2-.5 1.2 0 2.3-.8 3.5-1q7-1.4 14-2a150 150 0 0 1 39.1 1c1.5.4 3.4.7 4.4 1.9q1.5-1.2 3.5-1.1 3-.3 6 0" class="c"/><path d="M8.4 50.4q7-.9 14-.5c3.1.2 6.6 0 9.5 1.4C36.2 50 40.6 50 45 49.9c8.4-.2 16.9.6 25.3.5 5.8 0 33-1.6 35.7 2 1.3-1.4 3.5-1.2 5.2-1.3 1.7 0 3.8-.3 5.3.9 1.6-1.4 4-1.6 6-2q4.5-.8 8.8-1.4a144 144 0 0 1 40 1.1c1.8.4 3.8.7 5.3 1.8.8 0 1.8-.5 2.6-.6h4.4" class="c"/><path d="M8.4 49a65 65 0 0 1 20-.5c1.2.1 2.7.2 3.6 1.1 1.3-1.2 3.5-1 5.2-1.3l7.8-.4c8.2-.2 16.3.5 24.4.6 8.7-.1 17.5-1 26.2-.7 5 .2 10 .2 14.8 2a14 14 0 0 1 7.8-.5l.9.9q1-1.4 2.6-1.7l4.4-1q10-1.7 20-2 12.4-.1 24.4 1.7a54 54 0 0 1 10.5 2.6q1.2-.3 2.6-.1" class="c"/><path d="M8.4 46.9q1.4 0 2.6.5a3 3 0 0 0 1.8-.3q1.6-.4 3.4-.5 4.5-.4 8.8-.2 3-.1 6 .7a130 130 0 0 1 25.3-1c4.7 0 9.3.7 14 .6 9.3-.4 18.5-1.5 27.9-1.2q4.3 0 8.7.6c2 .3 4.3.4 6 1.5q2.2-.7 4.4-.6c1.2 0 2.6 0 3.5.8 3-2 7-2.3 10.5-3a130 130 0 0 1 47 1.7q2.9.5 5.3 2" class="c"/><path d="M8.4 44.5q2.7 0 5.2.3 2 0 3.5.9c1-.8 2.4-.8 3.5-1h6.1q2.7 0 5.3.4 1.2-.4 2.6-.5a149 149 0 0 1 25.2-.2c1.5.1 3.2.2 4.4 1.2 1.7-1.3 4.1-1 6-1.1 2.4 0 5-.3 7 .8 1.8-1.1 4.2-1 6.2-1.4a128 128 0 0 1 23.5-.3q5 .3 9.6 2 2.1-.8 4.3-.4l1.8.3c2.8-1.8 6.4-2 9.6-2.7q7-1 14-1.3a135 135 0 0 1 31.3 2.7c1.7.4 3.7.8 5.2 1.7l.9-.4" class="c"/><path d="M8.4 42.4c5 0 10 0 14.8.9 3.7-1 7.7-.7 11.4-.4a5 5 0 0 0 2.6 0l3.5-.4c5.2-.2 10.5-.4 15.7.5 5.3-1.4 11-1.5 16.5-1.5 3.2.2 6.6 0 9.6 1.1a49 49 0 0 1 12.2-1.5q8.2-.3 16.6.5c2.6.4 5.5.6 7.8 2l1.7-.1q1.3.2 2.7.2c4.7-3.3 17.5-4 23.5-4.2a133 133 0 0 1 28.7 2.4q2.4.3 4.4 1.5 1.7-.6 3.5-.8" class="c"/><path d="M8.4 40.8q4.4-.6 8.7-.4 4-.1 7.9.6 5.6-1 11.3-1l16.6-.4c7.5-.3 15-1 22.6-.7q3.5 0 7 .4 2.3.1 4.3 1.3c2.4-2 12.3-1.7 15.7-1.8 5.2.2 17.4.2 21 3.8 5.2-5.6 28.7-5.5 36.5-4.9 5.3.5 10.7.9 15.7 2.5.4.3 1.3.6 1.8.5l1.7-.4 4.4-.3" class="c"/><path d="M8.4 38.2c.8.2 2 .6 2.6 1.1 1.8-1.5 11.5-1.2 14-.5 8.2-1.6 16.8-1.6 25.2-2 8.7-.1 17.5-.8 26.2-.4 4.6.1 9.4.3 14 1.6 1.7-.9 4-1 6-1.1a106 106 0 0 1 20 .5q4.3.4 7.9 2.3 1-.2 1.7.1c2.2-2.3 7.4-2.8 10.5-3.4a117 117 0 0 1 33.1.6c1.5.3 3.3.5 4.4 1.8 1-1.1 2.9-1 4.3-1.2h5.3" class="c"/><path d="M8.4 35.5c1.7.4 3.9.5 5.2 1.8 1.5-1 3.6-1 5.3-1 2 0 4.2-.3 6 .6 4.1-1.7 8.8-1.6 13.1-2q10-.6 20-.8a261 261 0 0 1 28.8.4c2 .3 4.3.5 6.1 1.5 1.5-1 3.5-1 5.3-1.3q3.8-.3 7.8-.2c4.9.1 14.4 0 18.3 2.7 1.4-1 2.9-.3 4.4-.3 6-4.2 36.1-4.4 42.7-.7 1.4-1 3.5-.9 5.2-1h7" class="c"/><path d="M8.4 33c2.3.5 5 .7 7 2q2.1-.6 4.3-.8 2.7 0 5.3.4 2.4-1 5.2-1.3 4-.6 7.8-.8a396 396 0 0 1 41.9-.9c5.2.3 10.6.4 15.7 2 1.5-.8 3.5-.9 5.2-1a89 89 0 0 1 16.5.2q3.8.3 7 2 1.7-.9 3.5-.7 1.6 0 2.6 1c1.8-2.6 11.5-3 14.8-3.3a106 106 0 0 1 21 1.2c.7.2 1.7.8 2.6.8 1.8-1 4-.9 6-1h8.8" class="c"/><path d="M8.4 30.8c3 .5 6.3.6 8.7 2.4q1.6-1.1 3.5-1c1.1 0 2.6 0 3.5.7 1.4-1.3 3.5-1.4 5.2-1.8q4-.6 7.9-.9a337 337 0 0 1 21.8-1 313 313 0 0 1 32.2.9c2 .3 4.4.3 6.1 1.5q2.5-1 5.2-1.2a79 79 0 0 1 18.3.7c1.2.2 2.4 1 3.5 1.1q2.1-.7 4.4-.6 1.8 0 3.5.9c4.9-3.3 28-3.6 33-.9 6-1.6 12.3-1.2 18.4-1" class="c"/><path d="M8.4 28.5c3.2.6 6.9.6 9.6 2.6 1.2-1 3-.9 4.4-.8q.8.3 1.7 0c4-1.7 8.7-1.9 13-2.4a376.7 376.7 0 0 1 42.7-1c5.9.4 11.8.5 17.5 1.7q1 .1 1.7.6c.5 0 1.4-.1 1.8-.3q2.5-.6 5.2-.7c4-.1 14.6-.5 17.4 2 2-1.4 8.5-1.3 10.5 0q3.3-1.4 7-1.7a81 81 0 0 1 16.5-.1c1.8.2 3.8.3 5.3 1.3 2.7-1.2 5.8-1.3 8.7-1.4q6-.2 12.2 0" class="c"/><path d="M8.4 26.3c3.2.5 6.8.7 9.6 2.4.8.2 1.8-.4 2.6-.4q1.3 0 2.6.2 2.4-1.3 5.3-1.7l7.8-1q9.6-1 19.2-1.2c13.9-.2 28-.3 41.8 1.5a23 23 0 0 1 4.3 1q1.7-.7 3.5-.8a65 65 0 0 1 11.4 0q3.2 0 6 1.3h1l.8-.3q1.7-.3 3.5-.3l4.3.1q2 .2 3.5 1.1 2.8-1.4 6.1-1.6a70 70 0 0 1 14.8 0c1.2.2 2.7.4 3.5 1.4 2.8-2.7 19.1-1.9 23.6-1.8" class="c"/><path d="M8.4 24.2c3.6.4 7.3 1 10.5 2.7q1.2-.7 2.6-.6l.9.6c1.5-2.7 15.5-3.5 19.1-3.9a343 343 0 0 1 49.7.2c3.8.4 7.8.3 11.3 1.8 1.2 0 2.3-.7 3.5-.7q3.5-.4 7-.3c3.2.1 6.7 0 9.6 1.6q1.6-.9 3.5-.9a44 44 0 0 1 8.7.4l1.7.5.9 1c.7-1.2 2.2-1.5 3.5-1.7a44 44 0 0 1 12.2-.2c1.4.2 3.2.2 4.4 1.3 2.8-2.9 21.4-2 26-1.9" class="c"/><path d="M8.4 22.2q4 .4 7.9 1.5c.8.2 1.7 1 2.6 1.1q1.2-.7 2.6-.3c2-1.3 4.6-1.7 7-2.2q4.6-.8 9.5-1.2 12.6-1.1 25.3-1a552 552 0 0 1 34 1.4c2.3.3 4.9.4 7 1.5q4.6-1.3 9.5-1 2.7 0 5.3.4 1.6.2 2.6 1.4 1-1.1 2.6-1.2l4.4-.2c3.5.1 7.1.2 10.4 1.6 2.6-1.4 5.9-1.1 8.7-1.2 2.3.1 5-.2 7 1.3 3.2-3 23.6-2.3 28.8-2" class="c"/><path d="M8.4 20.3c3.2.4 7 .5 9.6 2.5.8 0 1.8-.5 2.6-.2 2.6-1.7 5.8-2 8.7-2.6q6.1-1 12.2-1.4c11.6-.9 23.3-.7 34.9-.3a386 386 0 0 1 25.2 1.5c1.5.3 3.4.3 4.4 1.5q1-1 2.6-1a34 34 0 0 1 8.7-.1q2 0 3.5 1c3.3-1.7 16-1 19.2.7.8 0 1.8-.5 2.6-.6l3.5-.2c2 0 4.4-.2 6.1 1 1.5-1 3.5-1.3 5.2-1.5q3.5-.5 7-.6 9.6-.5 19.2.2" class="c"/><path d="M8.4 18.4c3.2.5 7 .6 9.6 2.8q.8-.6 1.7-.7 1.7-1 3.5-1.5 7-1.6 14-2.1 13.9-1.3 27.9-1 12 .3 24.4.8c6 .3 12.3.5 18.3 2 2.6-1 9.7-1 12.2.2a57 57 0 0 1 18.3 0q1.8.3 3.5 1.3a13 13 0 0 1 7.8-.2q1 0 1.7-.5c4-1.1 8.2-1.3 12.2-1.5q10-.3 20 .3" class="c"/><path d="M8.4 17c2.3.3 5 .4 7 1.6q1 0 1.7.6c3.6-3 15.9-4 21-4.5 12.7-1.3 25.5-.8 38.3-.4q10 .2 20 .7 4 .3 7.9.8c1.4.2 3.3.2 4.3 1.4q1.1-1 2.6-1a29 29 0 0 1 7 .2c.4.3 1.3.4 1.8.3 1.8-.7 4-.7 6-.8a82 82 0 0 1 14 1.2c1.2.3 2.8.6 3.5 1.8l.9-.8q1.7-.4 3.5.4c3.7-1.8 8-2 12.2-2.3 7.8-.5 15.7.2 23.5.7" class="c"/><path d="M8.4 14.4c2.6.5 5.6.5 7.9 2q3.7-1.4 7.8-2 5.6-.9 11.3-1.5c12.2-1.3 24.4-1.2 36.6-.7l22.7.7 8.7.7c2 .3 4.3.3 6.1 1.2 3-1 6.5-.8 9.6 0 3.3-2 23.8-.7 26.1 2.3h.9c3.6-3 17.8-3 22.7-2.4q1.2.4 2.6 0l2.6-.4q4.7-.4 9.6 0" class="c"/></svg>