<svg xmlns="http://www.w3.org/2000/svg" id="a" width="1920" height="2400" viewBox="0 0 192 240"><defs><style>.b{fill:none;stroke:#fff;stroke-miterlimit:10;stroke-width:.3px}</style></defs><path d="M0 0h192v240H0z" style="stroke-width:0"/><path d="M9.4 222.5h44.8c2 1.3 4 3.1 6 4.4 3.2 2.1 6.6 4.2 10.4 5h82.7q2.6-.7 5.2-1.8c9.8-4 13.3-5.1 24.1-3.6" class="b"/><path d="M9.4 220.4h44.8c1 0 1.8 1 2.6 1.5l4.3 3a42 42 0 0 0 6.9 3.8c1.3.5 2.8 1.2 4.3 1h81.9c1.7-.4 3.5-1.4 5.2-2 9-4.4 13.2-5.2 23.2-3" class="b"/><path d="M9.4 218.2H55c5 3.8 10.2 7.7 16.3 9.4h81.9c1.1 0 2.5.2 3.5-.4 10.3-5 14-7.2 25.8-4" class="b"/><path d="M9.4 216H55c5 3.7 10.3 7.5 16.3 9.4H155c1.1 0 2.5.2 3.5-.5 9.1-4.8 14-6 24.1-3" class="b"/><path d="M9.4 213.9h43.9q1.6-.2 2.6.7l3.5 2.4c3.8 2.4 7.7 5 12 6.2H156c1.9.2 3.5-1.2 5.2-1.9 7.3-4 13.7-4 21.5-1.2" class="b"/><path d="M9.4 211.7h44.8c1.5.6 3 1.9 4.3 2.7a83 83 0 0 0 7.8 4.6c1.6.7 3.3 2 5.1 2H155q2.3-1 4.3-2.2c8.5-5.2 14-5.9 23.3-2" class="b"/><path d="M9.4 209.5h43c.5 0 1.4 0 1.8.2l1.7 1 3.5 2.3q5 3.2 10.3 5.7 1.7.3 3.5.2h79.2l1.8-1.1 4.3-2.9c9-6.9 14-6.6 24.1-1.9" class="b"/><path d="M9.4 207.4h44q5.8 4 12 7.3c1.9 1 3.8 2.3 6 2H149q4.1-2.4 7.8-5.6 1.6-1.5 3.4-2.9 1-1 2.6-.8h16.4l3.4 1.8" class="b"/><path d="M9.4 205.2h43q5.6 3.7 11.3 6.9l3.4 1.8q1.3.7 2.6.7h75c1.7.2 3-1.2 4.3-2.1q4-3.3 7.8-7.1c1.6-.4 3.5-.1 5.1-.2h15.6c1.6.1 3.5-.2 5.1.2" class="b"/><path d="M9.4 203h37.1c1.6.1 3.5-.2 5.1.2q5.2 3.2 10.4 6.3l3.4 1.8c1 .6 2.3 1.3 3.5 1.1H143c1.2-.4 2.4-1.6 3.4-2.4q3.6-3.2 7-6.9 14.6-.2 29.2 0" class="b"/><path d="M9.4 200.9H49q1-.1 1.8.4l10.3 6.1 3.5 2 1.7.8h73.2q1.5.2 2.6-.9a46 46 0 0 0 6-5.8c.8-.8 1.7-2.1 2.6-2.6h32" class="b"/><path d="M9.4 198.7h38.8c1.2.3 2.3 1.2 3.4 1.8l7.8 4.5c2 1 3.9 2.5 6 3h73.3a31 31 0 0 0 6-5.4c1.1-1.2 2.1-3 3.5-3.9h34.4" class="b"/><path d="M9.4 196.6h37c1.6.3 3 1.4 4.4 2l7.7 4.5q2.5 1.6 5.2 2.8h73.2c3.4-2.5 6.2-6 8.7-9.3h37" class="b"/><path d="M9.4 194.4h35.3c1.5.3 3 1.4 4.3 2a154 154 0 0 1 13 7.2c4 .3 8 0 12 .1q30.6.1 61.2 0c3.5-2.5 6-6.1 8.6-9.3h38.8" class="b"/><path d="M9.4 192.2H42c1.6-.1 3 1 4.3 1.6q5 2.3 9.5 5c1.7.9 3.4 2.2 5.2 2.8h70.7c1.8.3 3-1.2 4.3-2.3 2.3-2 4-4.8 6-7h39.7l.8.6" class="b"/><path d="M9.4 190h31q2.3.6 4.3 1.7a85 85 0 0 1 14.7 7.6q2.2.1 4.3.1H130c1.7.3 3-1.1 4.3-2.1 2.3-2 4.2-4.8 6-7.3h35.3q2.2 0 4.3.2l2.6 1.7" class="b"/><path d="M9.4 187.9h28.4q2.7.7 5.2 1.6 5.4 2 10.3 4.8l5.2 3h69c4.5.3 8.9-5.8 11.2-9.2q1.6-.4 3.4-.2h35.3q2.7 1.4 5.2 3" class="b"/><path d="M9.4 185.7h24.1q1.8.2 3.5.6 4 .8 7.7 2.1a69 69 0 0 1 13 6.7h68a16 16 0 0 0 8.7-5.3c1.1-1.2 2-3 3.4-4h33.6c1.4 0 3-.3 4.3.2l7 3.8" class="b"/><path d="M9.4 183.6h21.5c4.6 1 9.4 1.3 13.8 2.8q5 1.8 9.5 4.6 1.6 1 3.5 2H117c4.5 0 9.1-.7 13-3a24 24 0 0 0 6-6.3c8.9-.3 17.8 0 26.7-.1h9.5c1.5.2 2.9 1.4 4.3 2q3 1.6 6 2.8" class="b"/><path d="M9.4 181.4h13c3 0 6.3-.3 9.4.6 4.3.9 8.8.5 13 2q4.5 1.6 8.6 4.1c1.4.8 2.8 2 4.3 2.6h51.7q3.8-.7 7.7-1c4.8-.2 10-.8 13.8-4 1.6-1.2 2.7-3.2 4.3-4.3h34.5a3 3 0 0 1 1.7.6 51 51 0 0 0 11.2 4.8" class="b"/><path d="M9.4 179.2h13c3.1 0 6.3-.1 9.4.6 3.7.6 7.6 0 11.2.8q5.6 1.5 10.3 4.7c1.8 1 3.4 2.6 5.2 3.3h46.6q4.2-1.3 8.6-2c8.7-.8 13.4 0 19.8-7.3 4-.3 8 0 12 0h21.6c.9-.2 1.9.4 2.6.8q1.6 1 3.5 1.8 4.6 1.9 9.4 3.2" class="b"/><path d="M9.4 177H43c6.2 1.5 11.4 5.6 16.4 9.4h41.3c1.8.2 3.5-.9 5.2-1.3q3.8-1.3 7.8-2c4.6-.7 9.6 0 13.8-2.4 1.8-1 3.3-2.7 5.1-3.7h33.6a47 47 0 0 0 16.4 6.3" class="b"/><path d="M9.4 174.9h38.8c1.5.4 3 1.5 4.3 2.4q4.4 3.2 8.6 6.8c1.4.3 3 0 4.3.1h32.8c1.5.2 3-.8 4.3-1.2q3.4-1.4 6.9-2.3c4.4-1.4 9.2-1.5 13.8-2.1 2.8-.6 5.3-2.3 7.7-3.7h33.6a43 43 0 0 0 18.1 6.4" class="b"/><path d="M9.4 172.7h43c4 2.8 7.6 6.2 11.3 9.2 4 .4 8 0 12 .2h20.7c5-2.2 10.2-4.4 15.5-5.6 4.6-1.1 9.4-1.1 13.8-2.7q1.4-.3 2.6-1 1.7-.2 3.5 0h31c.8.2 1.8 1 2.6 1.4q2 1.3 4.3 2.2c4.1 1.7 8.6 2.2 13 3" class="b"/><path d="M9.4 170.6h46.5c3.9 3 7.3 6.4 11.2 9.3h23.3c1 0 2.4.2 3.4-.2q6.7-3.4 13.8-5.7c4.8-1.5 9.8-2.3 14.7-3.4H161c1-.1 1.8.8 2.6 1.2l4.3 2.3c4.6 2 9.7 2.5 14.6 3.2" class="b"/><path d="M9.4 168.4h50c4 3.1 7.6 6.9 12 9.3h14.7c1 0 2.4.2 3.4-.2 6-2.5 11.9-5.5 18.1-7.4l6-1.7h46.7c2 .8 3.8 2.5 6 3.3 5 2.5 10.8 3 16.3 3.6" class="b"/><path d="M9.4 166.2h53.4c3.2 2.2 6 5 9.5 6.9 7.8 4.8 16.6-.2 24.1-3.2q4.7-2 9.5-3.7h53.4l2.6 1.6c6.5 4.2 13.3 4.7 20.7 5.5" class="b"/><path d="M9.4 164h55.1q1.4 0 2.6.3 3.7 2.8 7.8 4.9c4.1 2 8.8 1.3 13-.3q5.6-2.3 11.1-4.7c6.3-.3 12.7 0 19-.1h40.5a43 43 0 0 0 24.1 7.2" class="b"/><path d="M9.4 161.9h61.2c2.6 1 4.9 2.9 7.7 3.5 3.8 1 7.7.1 11.2-1.2l3.5-1.4q1.6-.9 3.4-1h60.4c1.2 0 2.3 1.2 3.4 1.7l5.2 2.6c5.4 2.3 11.4 2.5 17.2 3.2" class="b"/><path d="M9.4 159.7h66.3q4.6 2.5 9.5 1.9 3.6-.7 7-1.9h63.7c1.2.1 2.4 1.1 3.4 1.6l6 2.9c5.6 2.1 11.5 2.4 17.3 3" class="b"/><path d="M9.4 157.6H149q3.5-.2 6.9.1a55 55 0 0 0 26.7 7.5" class="b"/><path d="M9.4 155.4h143.9c.8 0 2 0 2.6.5 9.8 5.1 15.9 6.2 26.7 7.2" class="b"/><path d="M9.4 153.2h143.1c.7 0 1.8 0 2.5.5 4.2 1.8 8.5 3.8 13 5q7.1 1.6 14.6 2.2" class="b"/><path d="M9.4 151h23.3c1.8 0 3.5 1.3 5.1 2 3.2 1.5 7 1.5 10.4.7 2.7-.4 5.1-1.9 7.7-2.6h97.4c3.5 1.1 6.9 2.8 10.4 4 6 2.2 12.5 3 19 3.5" class="b"/><path d="M9.4 148.9h15.5c3.6 1.2 7 3.2 10.3 4.8 3.2 1.7 6.8 2.7 10.4 2.1 4-.5 7.7-2.2 11.2-4.1L61 149q1.2-.3 2.6-.2h87.9c1.8-.2 3.5.8 5.2 1.4q3.8 1.5 7.7 2.8c5.9 1.9 12 2.7 18.1 3.2" class="b"/><path d="M9.4 146.9c11 0 18 5 27.6 9.2h8.6c1.7-.1 3.5.2 5.2-.2 4-1.4 7.6-3.7 11.2-6q1.6-1.2 3.4-2.3 1.2-1 2.6-.9h83.6c1.8 0 3.5.9 5.2 1.4l7.7 2.6q8.9 2.7 18.1 3.2" class="b"/><path d="M9.4 146.5q7.2.9 13.8 4l5.2 2.5 1.7 1H56l1.6-.1 2.6-1.6c3.8-2.4 7.4-5.2 11.2-7.6 2.3-.4 4.7 0 7-.1h74.1c1.7.2 3.4 1 5.1 1.5q4.2 1.6 8.6 2.7a88 88 0 0 0 16.4 2.6" class="b"/><path d="M9.4 145.8a48 48 0 0 1 13.8 5c.8.3 1.7 1 2.6 1h37c3-1.7 5.8-4 8.7-6l5.1-3.4h75.9c1.7 0 3.5.9 5.1 1.3l7.8 2.4a88 88 0 0 0 17.2 2.8" class="b"/><path d="M9.4 144.6q5.8 1.6 11.2 4.5 1.2.6 2.6.5H68c4.6-3 8.8-7 13.8-9.4h72.4q6.8 2.2 13.8 4 7.2 1.6 14.6 2" class="b"/><path d="M9.4 143a66 66 0 0 1 10.3 4.4h47.4q3 .2 6-.1 4.4-3.3 8.7-6.4 2-1.6 4.3-2.7 2.2-.2 4.3-.1h63.8c1.4-.1 3 .6 4.3 1l7.8 2a92 92 0 0 0 16.3 2.5" class="b"/><path d="M9.4 140.9q4.9 1.8 9.5 4.3h58.6c3-1.8 5.7-4.4 8.6-6.3q2-1.6 4.3-2.8c1.4-.3 3-.1 4.3-.2H155q2.3.2 4.4.8 3.4 1 6.8 1.8a96 96 0 0 0 16.4 2.5" class="b"/><path d="M9.4 138.5c3.3 1.2 6.4 3 9.5 4.6h60.3c2.8 0 3 .2 5.2-1.7 3.3-2.7 6.5-5.7 10.3-7.7h62q2.3.2 4.4 1l6 1.4q7.6 1.7 15.5 2.2" class="b"/><path d="M9.4 135.8a69 69 0 0 1 9.5 5c7.1.3 14.4 0 21.5.1h44.8c1.8.2 3-1.7 4.3-2.7a76 76 0 0 1 7.8-6.2c1.2-.8 3-.3 4.3-.4h56.9c1-.1 2.4.4 3.4.6l6 1.4q7.4 1.5 14.7 2" class="b"/><path d="M9.4 133c3.6 1.6 6.9 4 10.3 5.8h53.5c5.7-.1 11.5.2 17.2-.2q3.7-3.7 7.8-7.1l2.5-2 2.6-.1h56.9c2.9.3 5.8 1.3 8.6 1.8q6.9 1.3 13.8 1.8" class="b"/><path d="M9.4 130.3q3.6 1.7 6.9 3.9c1.4.7 2.7 2.2 4.3 2.4H93c1.4-.3 2.3-2 3.4-3q3.3-3.4 7-6.3H161c2.9-.1 5.7 1 8.6 1.4q6.4 1.2 13 1.7" class="b"/><path d="M9.4 127.5q5.8 3 11.2 7h75.8q3.3-3.9 7-7.5c2-2.2 2.2-2 5-2h55.2c2.3.1 4.7 1 7 1.2q6 1 12 1.6" class="b"/><path d="M9.4 124.7a63 63 0 0 1 7.8 4.8c1.3.9 2.7 2.3 4.3 2.8h24l53.5-.1q3-3.7 6-7.1c1.6-1.7 2-2.4 4.4-2.2h56.9q8 1.5 16.3 2.4" class="b"/><path d="M9.4 122c4.3 2.2 8.2 5.2 12 8q39.8.1 79.4 0c1-.6 1.8-2 2.5-2.9q2.4-3.2 5.2-6.2c1.7-.3 3.5-.1 5.2-.2H168q7.2 1.3 14.6 2" class="b"/><path d="M9.4 119.4a66 66 0 0 1 8.6 5.5c1.4 1 2.8 2.3 4.3 3h80.2c1.4-1 2.3-3 3.4-4.2 1.4-1.7 2.6-3.9 4.3-5.1h59.5q6.4 1 13 1.8" class="b"/><path d="M9.4 116.8a63 63 0 0 1 12 8.1q.8.8 1.8.8h81c2.4-2.9 4.2-6.5 6.9-9.3h60.4l11.1 1.6" class="b"/><path d="M9.4 114.3c5 2.4 9.3 6.1 13.8 9.3H105c1.2-.5 1.8-2.2 2.5-3.2q2-3.2 4.4-6.2H173l9.5 1.4" class="b"/><path d="M9.4 112c1.2.2 2.4 1.1 3.4 1.7a73 73 0 0 1 8.7 6c.7.6 1.6 1.5 2.5 1.7h76.7c2 0 4.2.3 6-.2q3-4.7 6.1-9.1h60.4c3 .2 6.3.9 9.4 1.3" class="b"/><path d="M9.4 110c2.3-.4 9 5 11.2 6.5 4.4 3.4 3.1 2.7 8.6 2.8h72.4c2-.1 4.1.2 6-.2 2-3 3.8-6.4 6-9.2H174q4.4.6 8.6 1.3" class="b"/><path d="M9.4 107.7H11l4.3 2.5q4.9 3.2 9.5 6.8 26.2.2 52.6 0h26.7c1.3 0 3.1.5 4.3-.4 2-2.9 3.5-6.4 6-8.9H174q4.4.6 8.6 1.3" class="b"/><path d="M9.4 105.6H12a55 55 0 0 1 8.6 5.5l3.5 2.5c.4.3 1.2 1 1.7 1.2q.8.2 1.7.1h81c2.2-2.7 3.9-6.2 6-9 1.6-.6 3.5-.2 5.2-.3h52.6c3.4 0 6.9.8 10.3 1.3" class="b"/><path d="M9.4 103.4H12q1.4.3 2.6 1.1l6.9 4.4 3.4 2.4c1 .7 2.2 1.7 3.5 1.5h78.4q1.4.1 2.6-.5l3.4-5.6c.7-1 1.6-2.6 2.6-3.3h57.7q4.8.6 9.5 1.5" class="b"/><path d="M9.4 101.2h3.4c1.9.4 3.6 1.8 5.2 2.6l10.3 6.8H105c1.4 0 3 .2 4.4-.3 1.9-3 3.6-6.5 6-9h56.9q5.1.6 10.3 1.6" class="b"/><path d="M9.4 99q2.6 0 5.2.2L18 101q5.7 3.4 11.2 7 1.2.6 2.6.4h75q1.4.2 2.6-.4c1.9-3 3.5-6.5 6-9h38.8l17.2.1q5.7.7 11.2 1.8" class="b"/><path d="M9.4 97h6c4 1.6 7.6 4 11.2 6.2l5.2 3h76.7c2.2-2.7 3.8-6.1 6-9 1.3-.6 3-.2 4.3-.3h50.9l13 2.1" class="b"/><path d="m9.4 94.7 7.8.1q4.8 2.5 9.4 5.2c2.6 1.4 5 3.1 7.8 4h73.2c1.2-.5 1.9-2.3 2.6-3.3 1.4-2 2.5-4.5 4.3-6h51.8q8.2.9 16.3 2.4" class="b"/><path d="M9.4 92.6h9.5l10.3 5.6c8 4.3 5.8 3.8 14.7 3.7h62.9c1.1-.6 1.8-2.4 2.6-3.4 1.3-2 2.5-4.4 4.3-6H148l14.7.1q10 .8 19.8 2.7" class="b"/><path d="M9.4 90.4h11.2l12 6.3q3.4 1.8 7 3h66.3c1.7-1.7 2.9-4.2 4.3-6.2.7-1 1.5-2.5 2.6-3H143c13.2-.3 26.6.4 39.6 3" class="b"/><path d="M9.4 88.3h13c1.7.4 3.4 1.6 5 2.3l7.9 4 6 3H105c1.3-2 2.8-4.5 4.3-6.5.8-1.1 1.7-3.2 3.4-2.8h31.9q3.8.3 7.8.5 15.1.1 30.1 2.9" class="b"/><path d="M9.4 86h15.5c4.4 2 8.6 4.4 13 6.3 1.7.8 3.3 2.3 5.1 3.1h60.3c1.2-.5 1.9-2.2 2.6-3.2l4.3-6c3.1-.4 6.4 0 9.5-.1h16.4c4.6 0 9.2 1.2 13.8 1.2 5.1 0 10.3-.2 15.5.2q8.7.6 17.2 2.3" class="b"/><path d="M9.4 84h18q6.8 2.9 13 6.5l2.6 1.9c.4.3 1.2.9 1.7.9h9.5q24 0 48.3-.1c2.2-3 4.2-6.6 6.9-9.3h19c1 0 2.2.6 3.4.7l13.8 1c5.7.4 11.5-.3 17.2-.1a132 132 0 0 1 19.8 2.3" class="b"/><path d="M9.4 81.8q10.4-.2 20.7 0 4.8 2.3 9.5 4.7 3 2 6 4.6h55.1c1.8-2.1 3.5-4.7 5.2-7 1.5-1.8 1.6-2.6 4.3-2.3h15.5c1.7.6 3.4 1.8 5.2 1.9q7.8.3 15.5.4c5.7 0 11.5-.8 17.2-.6a130 130 0 0 1 19 2.1" class="b"/><path d="M9.4 79.6h22.4c1.5.1 3 1.2 4.3 1.7q4.2 2 7.8 4.9c1 .8 2.2 2.1 3.4 2.7H99c2.8-2.9 4.8-6.7 7.8-9.3h15.5q1.5-.1 2.6.8 1.6 1.2 3.4 1.9c2 .6 4.1.4 6 .4q4.8 0 9.5-.3c6.7 0 13.3-1 19.9-1.1 6.3 0 12.7 1 19 2" class="b"/><path d="M9.4 77.4h23.3q1.3 0 2.5.2l1.8.7a34 34 0 0 1 8.6 5.8c1 .8 2.1 2.3 3.4 2.7h48.3q3.8-4.8 7.8-9.3c5.1-.3 10.3 0 15.5 0 1-.3 1.9.5 2.6 1q1.6 1.4 3.4 2.3c2.1 1 4.6.8 7 .6l7.7-.6q6-.3 12-1c3.5-.3 7-.9 10.4-1 6.3 0 12.7 1 19 2" class="b"/><path d="M9.4 75.3H37c4.2 1 9.5 6 12.9 9 1.3.6 3 .2 4.3.3H94c1 .2 2-.6 2.5-1.4l4.4-5c1-.9 2-2.6 3.4-3h15.5c2.9 2.1 5.7 5 9.5 5.2 5.7-.5 11.5-1.5 17.2-2 6-.5 12-1.8 18.1-2 6-.2 12.1.9 18.1 1.5" class="b"/><path d="M9.4 73h30.2c4.8 2.2 8.6 6.4 12.9 9.5H92c1.5-.3 2.4-2 3.5-2.9l4.3-4.5c.7-.6 1.6-1.7 2.6-2H118c3.2 2.3 6.1 5.8 10.3 6 2.3-.1 4.7-.7 7-1q4.5-1 9.4-1.6c6.6-.7 13.2-2.2 19.8-2.7 6-.3 12 .7 18.1 1" class="b"/><path d="M9.4 71H37c5.8-.1 4.7-.5 9.5 3 2.9 2 5.5 4.5 8.6 6.3h34.4c1.4-.5 2.4-1.8 3.5-2.7l5.2-4.8c2-2 2.3-2 5.1-1.9h13c1.2.6 2.3 1.9 3.4 2.7 2.5 2 5.3 4.2 8.6 4 4.4-.7 8.6-2 13-2.7q10.8-1.8 21.5-3.6c6.6-.8 13.3 0 19.8.2" class="b"/><path d="M9.4 68.8h29.3c5.8 0 4.6-.7 9.5 2.7l6 4.2c1.4.8 2.7 2.2 4.3 2.4h26.8c2 .2 3.5-1.8 5.1-2.8q3.9-3.1 7.8-6.4c1.9-.4 4 0 6-.2h6.9c1.8.2 3.9-.5 5.2 1 3.6 3 7.7 7.4 12.9 6.1q7.2-2.1 14.6-3.6 8.7-1.6 17.3-3.5h21.5" class="b"/><path d="M9.4 66.6h30.2c2.2.1 4.6-.3 6.8.2L50 69c3.9 2.4 7.8 5 12 6.8 4.2.4 8.8 0 13 .2h6.9c5.4-2.3 9.9-6.2 14.6-9.4h17.3c4.1 3 8 8.2 13.8 7.8 3.5-.7 6.8-2.2 10.3-3 6-1.7 12.1-2.8 18.1-4.3q2.2-.6 4.3-.5h22.4" class="b"/><path d="M9.4 64.4h38.8q2.2 1 4.3 2.3a39 39 0 0 0 19.8 6.6c5.2 0 10.2-2 14.7-4.5q2.6-1.5 5.1-3.1l1.7-1.1q1.4-.2 2.6-.2h14.7q1.5-.1 2.6 1l2.6 2.2c4.7 3.9 8.4 7 14.6 4 7.2-3 15-4.6 22.4-6.6 1.6-.7 3.5-.6 5.2-.6h24.1" class="b"/><path d="M9.4 62.3h41.4q2.1 1 4.3 2 4 2 8.6 3.4 7.7 2.3 15.5.1a59 59 0 0 0 12-5.4c2.3-.4 4.7 0 7-.1H111c5.2 3.2 10.2 10.7 17.2 8.4q8.5-3.6 17.3-6.2l5.1-1.5c1-.3 2.4-.8 3.5-.7h28.4" class="b"/><path d="M9.4 60h43.9c1.5.2 3 1.2 4.4 1.6a49 49 0 0 0 6.8 2.2q7 1.5 13.8 0c3.6-.8 7-2.3 10.4-3.7h21.5c5 3.3 10.6 10.8 17.3 9q4-1.6 7.7-3.3 4.7-2 9.5-3.5l6-2q1.8-.3 3.5-.2h28.4" class="b"/><path d="M9.4 58h47.4c1.7-.1 3.5.9 5.2 1.2a38 38 0 0 0 18 0c1.8-.3 3.5-1.1 5.2-1.3h24.2c4.3 3 7.9 7.3 12.9 9.3q2.6.2 5.2 0 3.5-1.3 6.8-3 4.7-2.4 9.5-4.1 3-1.2 6-2.2h32.8" class="b"/><path d="M9.4 55.8h53.4c2.9.2 5.8.8 8.6.7 3 0 5.8-.7 8.7-.7h28.4c3.5 2 10.1 9.4 13.8 9.3h6q3.5-1.6 7-3.4 4.1-2.1 8.5-4l4.3-2h34.6" class="b"/><path d="M9.4 53.6h98.2c1.3.4 2.4 1.6 3.5 2.4l5.2 4.3c1.3 1 2.7 2.2 4.3 2.6h7.7c.9.2 1.9-.4 2.6-.8l11.2-6 3.5-1.7c.7-.4 1.7-1 2.6-.8h34.4" class="b"/><path d="M9.4 51.4h98.2q3.6 2.8 7 5.7c1.5 1.3 3.2 3 5.1 3.7H130q3.6-2 7-4l6.8-4q1.3-.6 2.6-1.4h36.2" class="b"/><path d="M9.4 49.3h91.3c2.3 0 4.7-.3 7 .2 3.8 2.9 7.1 6.5 11.1 9.1H131q5.3-3.1 10.3-6.5l3.5-2.1q.8-.6 1.7-.7h36.2" class="b"/><path d="M9.4 47h97.4c1.3.4 2.4 1.8 3.4 2.6l4.3 3.8c1.4 1 2.7 2.7 4.3 3h13q4.8-3.1 9.5-6.4l2.5-1.8c.8-.5 1.7-1.3 2.6-1.1h36.2" class="b"/><path d="M9.4 45h97.3c1.8.4 3 2.2 4.4 3.2 2.2 2 4.5 4.3 6.9 6 4.8 0 9.8.3 14.6 0q4.5-3 8.6-6.4l3.5-2.6q1.2-.4 2.6-.3h35.4" class="b"/><path d="M9.4 42.8h91.3c2.3 0 4.7-.3 7 .2 3.5 2.8 6.5 6.5 10.3 9.1h14.6c1.7-.4 3-2 4.3-3l7.8-6.3q19-.2 38 0" class="b"/><path d="M9.4 40.6h98.2l6 5.7c1.4 1.2 2.8 2.8 4.4 3.7h15.5c4-2.7 7.4-6.5 11.2-9.4h38" class="b"/><path d="M9.4 38.4h98.2c3.8 2.7 6.6 6.7 10.4 9.4h15.5c1.4-.2 2.4-1.7 3.4-2.5l4.3-4c1.1-.9 2.2-2.3 3.5-2.9h38" class="b"/><path d="M9.4 36.3h98.3c1.3.2 2.3 1.8 3.4 2.7 2.2 2.1 4.5 4.6 6.9 6.6h16.3q4.9-4.4 9.5-9c1.6-.6 3.5-.2 5.2-.3h33.6" class="b"/><path d="M9.4 34.1h99.1q3.6 3.2 6.9 6.7c2.7 2.6 2.1 2.8 6 2.7h13c3.3-2.8 6.2-6.4 9.4-9.4h38.8" class="b"/><path d="M9.4 32h99.1c1.4.4 2.4 1.8 3.5 2.8 2.2 2 4.3 4.7 6.8 6.5h15.6c2-1.8 4-4.1 6-6.1 1-1 2-2.6 3.4-3.3h38.8" class="b"/><path d="M9.4 29.8h100c3.2 2.9 6.2 6.2 9.4 9.1 2.3.4 4.7.1 7 .2q4.2.1 8.6 0 4.4-4.6 8.6-9.3h39.6" class="b"/><path d="M9.4 27.6h37c5.8.3 11.6 0 17.3 0h45.7c3.8 2.6 6.6 6.6 10.3 9.4h13.8c1.7-.9 3-2.8 4.3-4 1.7-1.8 3.2-4 5.2-5.4h39.6" class="b"/><path d="M9.4 25.4c5.2.1 10.4-.3 15.5.6a160 160 0 0 0 38.8 1q4.4-.6 8.6-1.6H106c1.3.1 2.9-.2 4.2.3l6 5.5c1.4 1.2 2.8 2.8 4.4 3.6h12.9c3-2.8 5.8-6.1 8.6-9.1 1.6-.5 3.5-.2 5.2-.3h35.3" class="b"/><path d="M9.4 23.7c8 .8 16 2.6 24.1 3.6q11.7.8 23.3 0 6.9-.6 13.8-2c2.9-.5 5.7-1.5 8.6-2h31c3.6 2.7 6.8 6.1 10.4 9q1.2.4 2.6.3h7.7q1.4.1 2.6-.3c3-2.8 5.7-6.1 8.6-9h40.5" class="b"/><path d="M9.4 22.7q6 1 12 2.3 6 1.5 12.1 2.3c4 .4 8.1 0 12.1 0q8.6-.4 17.2-1.3 9.3-1.2 18.1-4 1.8-.6 3.5-1h25c1.3-.1 2.4 1.2 3.4 1.9l4.4 3.6c1.6 1.3 3.2 3 5.1 4h10.4q3.2-2.8 6-6c1-1.1 2.1-2.6 3.4-3.4h40.5" class="b"/><path d="M9.4 21.5q6.5 1.5 13 3.2c4.2 1 8.5 2.3 12.9 2.4q7.2-.1 14.6-.8A197 197 0 0 0 69.7 24a102 102 0 0 0 16.4-4.4q1.3-.6 2.6-.7h19.8q1.4 0 2.6.3l1.7 1.2q3.5 2.6 7 5.4c1.2.8 2.6 2.4 4.2 2.5h7.8c3-1.9 5.3-4.8 7.7-7.3l1.8-1.8c1.3-.5 2.9-.2 4.3-.3h37" class="b"/><path d="m9.4 20.3 13.8 3.8c3 .8 6.2 2 9.5 2H42l11.2-1q11.3-1 22.5-3.4 7.4-1.6 14.6-4.5 1.7-.6 3.5-.4H111c4.3 2.4 7.9 5.9 12 8.4.8.4 1.8 1.1 2.7 1h4.3c1.7 0 3-1.6 4.3-2.6q3.4-3.3 6.9-6.8h41.3" class="b"/><path d="M9.4 19q8.2 2.4 16.4 5h26.6l9.6-1.2q15.1-1.6 29.3-7l3.4-1.2h16.4q1.9.5 3.4 1.7l6 4.2c8.4 6 10.7 3.5 17.3-2.9 1-1 2.1-2.4 3.5-3h41.3" class="b"/><path d="m9.4 17.7 8.6 2.6c1.7.5 3.4 1.3 5.2 1.5h36.2a123 123 0 0 0 37.9-9.3q3.9-.2 7.8 0h6.9q1.8.6 3.4 1.6c13.5 8.9 12.8 10.1 25-1.6q21.1-.2 42.2 0" class="b"/><path d="M9.4 16.2c3.7 1 7.4 2.5 11.2 3.4h43.9q8.7-1 17.3-3c5-1.3 9.8-3.3 14.6-5.1l3.5-1.2h12.9l2.6 1.2q3.4 2 6.9 4.2c1.8 1 3.8 2.5 6 2.5 3.8-.4 6.7-3.6 9.5-6 1-.7 2-2.2 3.4-2h41.4" class="b"/><path d="m9.4 14.6 8.6 2.6c1.3.5 3 .2 4.3.3H69q7.8-1 15.5-3C89 13 93.6 11 98.2 9.3l3.4-1.2q3.5-.2 6.9 0h5.2q3 1.2 6 3c2.5 1.5 5 3.4 7.8 4 4.7.3 8.6-4.4 12-7q21.6-.1 43.1-.1" class="b"/></svg>