<svg xmlns="http://www.w3.org/2000/svg" id="a" width="1920" height="2400" viewBox="0 0 192 240"><defs><style>.b{fill:none;stroke:#fff;stroke-miterlimit:10;stroke-width:.3px}</style></defs><path d="M0 0h192v240H0z" style="stroke-width:0"/><path d="M9.4 232h127.5c2-.2 4-1 6-1q4-.1 7.8-.5c4-.8 7.5-3 11.2-4.2a52 52 0 0 1 20.7-3.4" class="b"/><path d="M9.4 229.8h118q14.2 0 28.5-.1c8.6-3.3 17.4-6.6 26.7-6.6" class="b"/><path d="M9.4 227.6h155.1c2-.3 4-1.3 6-1.9q6-2 12.1-2.4" class="b"/><path d="M9.4 225.4H173q1.8-.2 3.5-1 3-.8 6-1.3" class="b"/><path d="M9.4 223.3h169.8l3.4-.9M9.4 221.1h173.2M9.4 219h173.2M9.4 216.8H180c.8 0 2 0 2.6-.4M9.4 214.6h169.8l3.4-1.7M9.4 212c11.4.6 23 .4 34.4.4h121.5c3.8 0 7.6.3 11.3-.1q2.8-2.2 6-3.7" class="b"/><path d="M9.4 208.9c6.3-.1 12.7-.2 19 1 1.6.5 3.4.3 5.1.4h139.7c2.9-2.5 5.8-5.2 9.4-6.5" class="b"/><path d="M9.4 205.7c6.3-.3 12.7-.8 19 .2 2.6.3 5.1 1.4 7.7 2.2h133.6c1-.5 1.9-1.6 2.6-2.4q2.4-2.4 5.2-4.5c1.5-1 3.2-2.4 5.1-2.5" class="b"/><path d="M9.4 202.5c7.7-.6 15.7-1.9 23.2.2 2.5.6 4.8 2 7 3.2h126.7c1.2-.9 2.3-2.4 3.4-3.5q3-3 6-5.7 3.5-.1 7-.1" class="b"/><path d="M9.4 199.4c8.4-1 17.6-3.1 25.8 0 2.7 1.1 5.2 2.9 7.8 4.3h119.8c2.9-3 5.5-6.4 8.6-9.3h11.2" class="b"/><path d="M9.4 196.4c8-1.2 16.9-3.6 25-1.4 4 1.4 7.5 4.1 11.2 6.2a3 3 0 0 0 1.7.4H155c1.3-.1 3 .4 4.3-.4q3.8-4.5 7.7-8.8c2-.3 4.1 0 6-.2h9.5" class="b"/><path d="M9.4 193.4c7.9-1.3 16-3.8 24.1-2.3 3.5.7 6.5 2.9 9.5 4.7 2 1.2 4 2.7 6 3.6h94.8q5.7.2 11.2-.1 2.8-2.9 5.2-5.7c1-1.1 2.1-2.8 3.5-3.5h19" class="b"/><path d="M9.4 190.5q6.8-1.6 13.7-2.6H31c1.4 0 3-.2 4.3.2 3.8 1.2 7 3.7 10.4 5.8l5.1 3.3h18.1q41 0 82 0 4.4-4.4 8.6-9.2c7.7-.3 15.5 0 23.2-.1" class="b"/><path d="M9.4 187.8q5-1.1 10.3-2h17.2c2.5.7 4.7 2.4 7 3.7q4.1 3 8.6 5.6 47 .2 94-.1 3-2.8 6-6c1-1 2-2.5 3.4-3.3h26.7" class="b"/><path d="M9.4 185.1q4.2-.9 8.6-1.5h17.2c1.4 0 3.1-.3 4.3.5 3.6 1.9 7 4.4 10.4 6.6l3.4 2.2h88c1.6-.6 3-2 4.3-3.2q3-2.9 6-6c1.4-.3 3 0 4.3-.1h26.8" class="b"/><path d="M9.4 182.6q3.8-.8 7.7-1.2h18.1c1.7 0 3.7-.3 5.2.7 3.3 1.8 6.3 4.1 9.5 6.1q2 1.5 4.3 2.6h79.3c2.2.2 4.3-1 6-2 3.2-2 5.8-5 8.7-7.4h34.4" class="b"/><path d="M9.4 180.2q6-1 12-1h17.3c5.3 2.2 9.6 6.3 14.6 9q1.3.6 2.6.4h67.3c2.4.2 4.4-1.1 6.9-1.4a23 23 0 0 0 12-6.2c.8-.5 1.6-1.6 2.6-1.8h37.9" class="b"/><path d="M9.4 177.8c9.4-.9 19-.8 28.4-.7 4.8 1.6 8.7 5 13 7.5l2.5 1.6c1.7.5 3.5.1 5.2.2h60.3q1.4-.4 2.6-1.2 2.6-1.3 5.2-2.1 2.5-.7 5.2-1.2c3.3-.7 6-3 8.6-4.8h42.2" class="b"/><path d="M9.4 175.4q6 0 12-.2 7.4-.5 14.7-.2c5.1 1.2 9.4 4.6 13.8 7.2l3.4 2h60.4c.4.2 1.3-.1 1.7-.4l2.6-1.5q3.3-2 6.9-3.4c2.1-1 4.6-1.2 6.9-1.8a19 19 0 0 0 4.3-2.1h46.5" class="b"/><path d="M9.4 173q6 .3 12 .5c3.8 0 7.5-.5 11.2-.4 3.4 0 6.6 1.2 9.5 2.7 3.8 2 7.3 4.7 11.2 6.3h56.9l1.7-1 3.5-1.9c4.3-2.5 8.8-5.2 13.8-6 2.5-.7 5.2-.4 7.7-.5h45.7" class="b"/><path d="M9.4 170.6q6 .8 12 1.2c3.5.1 7-.3 10.4-.3a23 23 0 0 1 10.3 2.9c3.5 1.7 6.8 4 10.4 5.5h9.4q22 .1 44 0 5.7-2.9 11.2-6.2l4.3-2.3c.8-.3 1.8-.9 2.6-.8h58.6" class="b"/><path d="M9.4 168.4q5.5 1.2 11.2 1.7c3.4.3 6.9-.1 10.3 0q5.4.2 10.4 2.7c3.1 1.5 6.2 3.4 9.4 4.8 4.3.4 8.7 0 13 .2h37a84 84 0 0 0 15.6-8.2q1.2-.9 2.5-1.2h63.8" class="b"/><path d="M9.4 166.3q5.4 1.5 11.2 2.1c3.4.3 6.9 0 10.3.4q5 .3 9.5 2.5l8.6 4.1c2.2.4 4.6.1 7 .2h38.7c5.2-1.6 10-4.2 14.7-6.9q2-1.3 4.3-2.5h69" class="b"/><path d="M9.4 164.2c3.6 1 7.4 2.2 11.2 2.5 5.4.4 11.1.4 16.3 2.2q5.4 2.1 10.4 4.5h41.4l2.6-1a78 78 0 0 0 17.2-8.3h74.1" class="b"/><path d="M9.4 162.1q4.2 1.6 8.6 2.4 6 .9 12 1.6c4.6.6 8.8 2.4 13 4.2q1.1.6 2.6 1h31l5.2-.1a106 106 0 0 0 15.5-6c7.8-4 4-3.3 13-3.3h72.3" class="b"/><path d="M9.4 160c7.4 3 15.5 3.7 23.2 5.4a39 39 0 0 1 7 2.3c1.3.4 2.8 1.4 4.2 1.4H75a103 103 0 0 0 20.7-8.2q1.2-.7 2.6-1.2h84.4" class="b"/><path d="M9.4 157.7c7.4 3.1 15.4 4.6 23.2 6.4q4 1 7.8 2.6c1.3.4 3 .2 4.3.2h15.5q4.4.2 8.7-.1a111 111 0 0 0 21.5-8.5c.7-.4 1.7-.9 2.6-.7h89.7" class="b"/><path d="M9.4 155.4q11.7 5 24.1 7.5c2 .4 4 1.5 6 1.9h23.3a123 123 0 0 0 23.3-9.4h96.5" class="b"/><path d="M9.4 153.2c1.4.3 2.9 1.2 4.3 1.8q4.2 1.8 8.6 3.4c3.6 1.3 7.5 2 11.2 3l4.3 1.2h19.8a108 108 0 0 0 21.6-8.8q1.6-.8 3.4-.5h100.1" class="b"/><path d="M9.4 151c1.5 0 2.9 1.2 4.3 1.7q4.2 2 8.6 4 4.6 1.8 9.5 2.6c1.7.3 3.4 1 5.1 1.1q8.7.2 17.3 0a117 117 0 0 0 20.7-9.2c2-.3 4 0 6-.1h101.7" class="b"/><path d="M9.4 148.9c1.2-.2 2.4.5 3.4 1l5.2 2.9a43 43 0 0 0 12 4.4c2 .3 4 1 6 1H50c2-.2 4-1.3 6-2q4.4-2 8.6-4.2 3-1.6 6-3h112.1" class="b"/><path d="M9.4 146.7q1.3-.1 2.5.5 2.3 1.2 4.4 2.5a42 42 0 0 0 19 6.4h12c4.8-1.5 9.4-4 13.8-6.4l5.1-3h116.4" class="b"/><path d="M9.4 144.6q1.3 0 2.5.2 2.3 1.3 4.4 2.7 3.6 2.4 7.7 4 6 2 12 2.4h7.8c5-1.2 9.5-3.8 13.8-6.3q2.5-1.6 5.2-3h119.8" class="b"/><path d="M9.4 142.4h2.5c4.2 2.6 8.2 5.7 13 7.2q4.2 1.3 8.6 1.6c2.3.2 4.6.6 6.9.4 7-1 13-5.4 19-9.2h123.3" class="b"/><path d="M9.4 140.2c3.4-.1 3.3.2 6 2q3.3 2.4 6.9 4a32 32 0 0 0 11.2 2.4c2 0 4 .3 6 0 4.4-.5 8.4-2.8 12.1-5 1.7-1 3.4-2.5 5.2-3.4h125.8" class="b"/><path d="M9.4 138h3.4c6.2 4.1 11.3 7.4 19 7.7 8.4.6 12-.8 19-5.4 1-.7 2.2-1.7 3.4-2.2h128.5" class="b"/><path d="M9.4 135.9q2-.1 4.3.1 4 2.8 8.6 4.8 5.9 2.2 12 1.9 3.2.1 6-.7c4.2-1.1 7.7-3.8 11.3-6h131" class="b"/><path d="M9.4 133.7q2.5 0 5.1.2 3.7 2.4 7.8 4c5.4 2.1 11.6 2 17.2.9 3.5-1 6.6-3 9.5-5h133.6" class="b"/><path d="M9.4 131.6c7.7 0 4.5-.4 11.2 2.6 5.9 2.6 12.7 2.5 19 1q2.6-.8 5.1-2.4c.8-.4 1.6-1.3 2.6-1.2h135.4" class="b"/><path d="M9.4 129.4c2.5.1 5.2-.2 7.7.2l3.5 1.5a30 30 0 0 0 17.2 1q3.2-.7 6-2.5c3.1-.4 6.4 0 9.5-.2h129.3" class="b"/><path d="M9.4 127.2h9.4q5.4 2.4 11.3 2.3 4.3-.2 8.6-1.2c1.1-.3 2.2-1.1 3.4-1h140.5M9.4 125h12q3.9 1 7.8 1.1 4.4-.1 8.6-1h144.8M9.4 122.9h173.2M9.4 120.7h173.2M9.4 118.6h173.2M9.4 116.4h173.2M9.4 114.2h173.2M9.4 112h173.2M9.4 109.9h173.2M9.4 107.8h173.2M9.4 107q5.1.4 10.3-.2c3.1-.2 6.3-.8 9.5-.9 3.4.2 6.9-.2 10.3-.3H99q2.6.3 5.2.8 3.8.4 7.7-.2c1.7-.3 3.5-.8 5.2-.6h65.5" class="b"/><path d="M9.4 106.5q5.1.5 10.3.1 4.8-.6 9.5-1.5c4.6-.7 9.3-.2 13.8-1.7h45.7q3.4 1.3 6.9 2.2a44 44 0 0 0 16.3 1.5 25 25 0 0 0 9.5-3.1l.9-.6h60.4" class="b"/><path d="M9.4 106q6.8 1.2 13.7-.1c3.2-.6 6.3-1.8 9.5-2.3q3.5-.4 7-.7 3.4-.5 6.8-1.5c1.4-.3 3-.1 4.3-.2h22.5l7.7.1 3.5 1.3a73 73 0 0 0 23.3 4.7c6.7.2 13.9-1.2 19-6h56" class="b"/><path d="M9.4 105.3c10.5 2.1 14.6 0 24.1-3.2 2.8-.7 5.8-.7 8.6-1.1 3.2-.4 6.3-1.4 9.5-2h20.7c4.7 1 9.2 2.8 13.8 4q9.8 2.6 19.8 3.3c9.8.4 17 .4 24.1-7.2h52.6" class="b"/><path d="M9.4 104.5a27 27 0 0 0 19-1.6q3.3-1.6 6.8-3c3.7-.9 7.5-.8 11.2-1.5 6.6-1 13.3-2.1 19.9-1 7.8 1 15.5 3.5 23.3 5.2q9.7 2.2 19.8 2.5c5.2.1 10.6.2 15.5-1.7 3.1-1.4 5.6-3.9 7.8-6.4 16.6-.3 33.3 0 50 0" class="b"/><path d="M9.4 103.4q3.8.9 7.7.7h4.3q2.8-.6 5.2-1.8c4-1.7 7.6-4.8 12-5.5 8-.8 16.2-1.9 24.2-1.3 8.2.6 16.2 3 24.2 5q10.6 2.5 21.5 3c6.3.3 13 .8 19-1.8 3-1.6 5.5-4.3 7.7-7h47.4" class="b"/><path d="M9.4 102h9.4l4.3-.1q2.3-.8 4.4-2c3.7-2 7-5 11.2-6.1 3-.8 6.3-.8 9.5-1q6.4-.4 12.9.2c8.2.5 16.1 3.3 24.1 5.2C94 100.3 103 102 112 102h7.8c1.7 0 3.5.2 5.2-.3q4.9-1.1 8.6-4.5c1.5-1.3 2.8-3.2 4.3-4.5h44.8" class="b"/><path d="M9.4 99.8h12c2.6.3 4.8-1.5 7-2.8l6.8-4.7c1.3-.7 2.8-1.8 4.3-1.9h25c7.6 1.7 15 4.4 22.4 6.1q9.9 2.3 19.9 3.3h9.5l11.2-.1c5-1.5 9-5.2 12-9.2q21.6-.1 43.1-.1" class="b"/><path d="M9.4 97.6h12.9c2.1-.5 4.1-1.8 6-2.9q3-2 6-4.3c1.1-.7 2.2-1.9 3.5-2.2h29.3c7.5 2.2 14.8 5 22.4 6.6q8.6 1.8 17.3 2.8H130c4.6-1.9 8.3-5.3 11.2-9.1 1.7-.5 3.6-.2 5.2-.3h36.2" class="b"/><path d="M9.4 95.4h12.9c2.4-.3 4.8-1.8 6.9-3q3-2 6-4.4c2.3-2 2.2-2 5.2-2H68c2-.1 4 1 6 1.7q5.1 1.8 10.4 3.3a155 155 0 0 0 22.4 4.2c3.4.5 6.9.1 10.3.2h14.7a29 29 0 0 0 11.2-9c1.6-.6 3.5-.2 5.1-.3h34.5" class="b"/><path d="M9.4 93.3h9.4c2-.1 4.1.2 6-.2q4.8-1.8 8.7-5c1.7-1.3 3.3-3 5.2-4.2h32.7l2.6 1c11.3 4.4 23.3 6.7 35.4 8.2 4.5.4 9.2 0 13.7.2h10.4c4.6-1.8 8.1-5.5 11.2-9.2 1.7-.4 3.5-.1 5.2-.2h32.7" class="b"/><path d="M9.4 91.1h17.2l2.6-1.2c4-2 7.2-5 10.3-8 2.5-.4 5.2 0 7.8-.2h21.5c2.1 0 4.2-.2 6 .8a131 131 0 0 0 28.5 7.2l9.5 1.4h22.4c4.6-1.9 8.1-5.6 11.2-9.4h36.3" class="b"/><path d="M9.4 89h19c1.1 0 2.3-1 3.4-1.4 3.5-2.1 6.4-5.2 9.5-8q10.7-.2 21.5 0h7.8c1.7 0 3.6-.2 5.1.6a137 137 0 0 0 28.5 7l11.2 1.7h21.5c4.6-1.9 8-5.8 11.3-9.3h34.4" class="b"/><path d="M9.4 86.8h19.8c1.1 0 2.5.1 3.4-.6 4-2.3 7-5.7 10.4-8.6 1-.3 2.3-.1 3.4-.2H75q6.8 2.3 13.8 4.2c9.3 2.4 19 3.5 28.4 5.1q10.4.2 20.7 0a3 3 0 0 0 1.7-.4q1.9-1 3.5-2.2a36 36 0 0 0 4.3-4c.7-.9 1.6-2.1 2.6-2.7h32.7" class="b"/><path d="M9.4 84.6h24.1c2-.7 3.6-2.3 5.2-3.6 2.2-2 4.4-4.2 6.9-5.8h29.3q1.3.2 2.6.6a138 138 0 0 0 13.8 3.8q11.5 2.3 23.3 4.1l5.1.9h20.7a25 25 0 0 0 8.6-7c1.6-1.8 1.6-2.6 4.4-2.4h29.3" class="b"/><path d="M9.4 82.4h23.2c1.1 0 2.4.2 3.5-.2q4-2.9 7.7-6.2c1.4-1 2.7-2.4 4.3-3h22.5c2.2.2 4.7-.2 6.9.4q6.8 2 13.8 3.6c9 2 18.4 3.1 27.5 5 2.8.7 5.8.4 8.7.4H142q1.4-.7 2.6-1.6c3-2 5.5-4.9 7.8-7.7h30.1" class="b"/><path d="M9.4 80.3h25c1.4-.1 3.2.3 4.3-.8 4-2.8 7.6-6.5 12-8.6H75q2.6 0 5.1.8a332 332 0 0 0 24.2 5.1l12 2.2 6 1.2h21.6l2.6-1.6c3-2.1 5.2-5.2 7.8-7.7h28.4" class="b"/><path d="M9.4 78.1h25c1.6 0 3.5.2 5.1-.2l2.6-1.8c3.6-2.6 7.2-5.4 11.2-7.3h24.2q9 2 18 4l19 3.4 8.7 1.8q3 .1 6 .1h16.4q2.8-1.7 5.1-4.1 1.9-1.9 3.5-3.9l.8-1 1-.3h26.6" class="b"/><path d="M9.4 76H37c1.3-.1 3 .1 4.3-.3 4.1-2.5 11.8-8.9 16.3-9.1h18.1q3-.2 6 .7l7.8 1.7q9.5 2 19 3.6Q116.3 74 124 76h13.8q4.8.2 9.5 0c3.8-2.4 6.5-6.1 9.5-9.3h25.8" class="b"/><path d="M9.4 73.8h29.3c1.3-.1 3 .2 4.3-.3 5.5-3.3 10.8-7.9 17.2-9.1h16.4q3-.1 6 .7l7 1.4q9.4 2 18.9 3.8 7.8 1.4 15.5 3.4 7.4.2 14.7 0h6c1.4 0 3 .3 4.3-.2q4.9-3.8 8.6-8.8c1-.5 2.4-.2 3.5-.3h21.5" class="b"/><path d="M9.4 71.6h34.4c4.7-2.5 9-5.8 13.8-7.8q2.2-1 4.3-1.5h15.6q3-.3 6 .5a1630 1630 0 0 0 36.2 7.7c1.7.3 3.5 1 5.2 1.1h25c2.3-1.4 4.2-3.7 6-5.7 1.1-1 2-2.9 3.5-3.7h23.2" class="b"/><path d="M9.4 69.4h31q2.6.2 5.2-.1c5.9-3.3 11.4-7.6 18-9.2h15.6c4-.2 8 1.3 12 2l18.2 4q7.3 1.5 14.6 3.3h23.3c1.4 0 3 .2 4.3-.2 3.3-2.6 5.7-6.2 8.6-9.1h22.4" class="b"/><path d="M9.4 67.3h36.2q1 0 1.7-.5l3.4-2q4.6-3.2 9.5-5.4 2.1-1 4.3-1.5h17.3q2.2.2 4.3.8c12.3 3 24.7 5.5 37 8.6q14.7 0 29.4-.1c3.1-2.8 5.7-6.3 8.6-9.3h21.5" class="b"/><path d="M9.4 65.1h37q1 .1 1.8-.5l3.4-2q4.5-3.1 9.5-5.5c1.3-.5 2.8-1.4 4.3-1.3h17.2q2.2.2 4.3.8 12.6 3.2 25 6.1l6 1.5c1.5.2 3 .9 4.4 1 10.3-.2 20.7.1 31-.2 3-2.8 5.6-6.2 8.6-9.1 2.6-.3 5.2 0 7.8-.1h13" class="b"/><path d="M9.4 63h37q1.5.1 2.6-.7l3.5-2.1q3.7-2.6 7.7-4.8l4.3-1.8h19l6.9 1.8 14.7 3.9q7.3 1.7 14.6 3.6h33.7c1.4-.4 2.4-2 3.4-3q3-3.2 6-6.1c2.3-.4 4.7-.1 7-.2h12.9" class="b"/><path d="M9.4 60.8h37.9q1.4 0 2.6-1l2.6-1.6c3-2 6.1-4.2 9.5-5.8q1.2-.7 2.5-1H81q2.7 0 5.2.9 15.8 4.7 31.9 8.5h36.2c3-3.1 6-6.5 9.5-9.2 2.2-.4 4.6-.1 6.9-.2h12" class="b"/><path d="M9.4 58.6h38.8c1.5-.5 3-1.7 4.3-2.5q4.1-3.1 8.6-5.6l2.6-1.2h18.1c1 0 2.4.5 3.4.8q14.6 4.7 29.3 8.4 20 .1 39.7.1c3.4-3 6.5-6.7 10.3-9.3h18.1" class="b"/><path d="M9.4 56.4h38.8c1.5-.5 3-1.7 4.3-2.5q4.1-3.2 8.6-5.7 1.2-.8 2.6-1.1h17.2l3.5 1c8.8 3 17.6 6 26.7 8.2 14.3.3 28.7 0 43 .1 2.3-2 9.5-9.7 12.2-9.3h16.3" class="b"/><path d="M9.4 54.3h38.8l3.4-2.2 6.9-4.8c4.4-2.8 4.5-2.4 9.5-2.4h7.7c1.7 0 3.6-.2 5.2.5 8.3 2.8 16.5 6.1 25 8.4q2.2.6 4.3.5h43.1c1.4-.5 2.4-1.9 3.5-2.8q2.8-2.6 6-4.9c1-.6 2.2-1.7 3.4-1.7h16.4" class="b"/><path d="M9.4 52.1h34.4l4.3-.1 1.8-1c4-2.7 7.6-6 12-8 1.6-.6 3.5-.1 5.2-.3h10.4c5 1.6 9.7 3.7 14.6 5.5q5.6 2.1 11.2 3.8 6 .2 12.1 0h31c2.3 0 4.7.3 7 0 .7-.8 1.8-1.7 2.5-2.3q3-2.6 6-4.8c1.4-.8 2.8-2 4.4-2.2h16.3" class="b"/><path d="M9.4 50h37.9c1.2-.4 2.4-1.4 3.4-2q3.4-2.6 7-5c4.2-2.7 4.6-2.5 9.4-2.4h6q2.3-.2 4.4.7c7.2 2.6 14.2 6 21.5 8.5 2 .3 4 0 6 .1h46.6c1.3-.3 2.4-1.6 3.4-2.4q3.3-2.9 7-5.1c1.2-.7 2.7-1.8 4.2-1.8h16.4" class="b"/><path d="M9.4 47.8h34.4l3.5-.1 3.4-2.2c2.6-1.8 5-3.9 7.8-5.4q1.6-1 3.5-1.6 2.5-.2 5.1 0h5.2q2.2.4 4.3 1.2 7 2.9 13.8 6l5.2 2h5.1q25 .2 50 0c4-2.9 10.6-9.4 15.6-9.3h12.9c1 .3 2.4.6 3.4 1" class="b"/><path d="M9.4 45.6h31.9c5.3 0 5 .7 9.4-2.6 4.2-2.9 8.5-7 13.8-6.8 2 .1 4.1-.2 6 .3 7 2 13.3 5.8 19.9 8.6 1.5.8 3.5.4 5.2.5h50.8c1.2 0 2.6 0 3.5-.9 4-3 8-6.5 12.9-8.3 4-.4 8 0 12-.1 2.7 0 5.3 1.3 7.8 2.2" class="b"/><path d="M9.4 43.4h31c6 0 5.4.8 10.3-3 7.6-5.8 13.2-8.2 22.5-4.2q5.2 2.4 10.3 5l4.3 2.2h57.8c1.5-.4 3-1.6 4.3-2.5q3-2.2 6-4.3 2.4-1.7 5.2-2.5H174q4.5 1.4 8.6 3.5" class="b"/><path d="M9.4 41.3h36.2q3.5-2 6.9-4.6c3.2-2.3 7-4.3 11.2-4.2 7.3.5 13.4 5.2 19.8 8.3q1.2.6 2.6.5h56.1c5.6-2.2 10-6.8 15.5-9.3q7.7-.1 15.5 0 4.8 2 9.5 4.6" class="b"/><path d="M9.4 39.1h11.2l6-.6q2.6 0 5.2.6h12.9q2.3-1.2 4.3-2.6c7.5-5.5 12.7-7.7 21.6-3.2q4 2 7.7 4.2L81 39q1.7.1 3.5.1h52.5c1.5 0 3-1 4.4-1.6a49 49 0 0 0 9.4-5.5c1.4-.8 2.8-2.2 4.3-2.3h17.3c3.7 1.4 7 3.9 10.3 6" class="b"/><path d="M9.4 37q3.8-.8 7.7-1.4 5.2-.5 10.4 0c2.3.2 4.6 1 6.9 1.3H43c1.2 0 2.4-.9 3.4-1.4l4.3-2.8c5.8-4 11-4.8 17.3-1.6 3.6 1.6 6.8 4 10.3 5.8h53.5c3.8-1.2 7.5-3 11.2-4.5q4-2.2 7.8-4.8h21.5q5.4 3.2 10.3 6.9" class="b"/><path d="M9.4 32.3c9.4-2.1 16.8-.4 25.8 2.2 1.7.5 3.5.2 5.2.3S44 34 45.6 33c7.2-4.4 12-8.3 20.7-4 3.3 1.6 6.2 4 9.4 5.7h50q6.1-2.2 12.1-4.7 4.6-1.7 8.6-4.3c1-.6 2.4-.3 3.5-.4h22.4l3.4 2.5 7 5.3" class="b"/><path d="M9.4 27.3q6.4-1.2 12.9.2c3.5.9 7 2.3 10.3 3.4a19 19 0 0 0 7 1.4c3.8-.3 7-2.8 10.3-4.6 9.1-5.6 15.7-.4 23.3 4.9h49.1c1.5-.4 2.9-1.7 4.3-2.3q2.5-1.3 5.2-2.2l6-2.5q1.8-.6 3.5-1.4c.7-.3 1.7-1 2.5-1h27.7l.8.1.9.7 2.6 2 6.8 5.7" class="b"/><path d="M9.4 22.3q6.6-1 12.9 1.1c5.2 1.7 10 5.1 15.5 5.8 3.8.3 7.2-1.8 10.4-3.6 9.6-5.8 15.4-.9 23.2 4.8q24.6.1 49.2 0 3.1-2.8 6.9-5 2.5-1.1 5.1-2 3-1.5 6-2.3h4.4q14.6-.1 29.3 0l10.3 8.8" class="b"/><path d="M9.4 18.9h12c6.2 2 12.3 8.3 19 6.9 6-1.5 11.5-7 18.1-4.8 2.8.8 5.4 2.6 7.8 4.3 1.4 1 2.7 2.4 4.3 3h43.1c1.6-.1 3.5.1 5.1-.2 4.7-4.5 8.4-7.3 14.7-9.2h38.8l10.3 9" class="b"/><path d="M9.4 16.7h15.5q1.7 1 3.4 2c5 3.1 8.9 5.3 14.7 2.8 6-2.7 10.7-5.6 17.2-2q4.6 2.7 8.6 6.3c1.6.6 3.6.2 5.2.3h43.1c3.9-3.2 7.3-7.4 12-9.3q6.1-.1 12.2 0h31q5.2 4.4 10.3 9" class="b"/><path d="M9.4 14.6h18c5.5 3.5 9 5.9 15.6 3.3 3-1.2 6.1-2.8 9.5-3 6.6-.2 11.5 5.2 16.3 9h47.5c3.7-3 6.8-7 11.2-9.2 4-.3 8 0 12-.1h32.8q5.2 4.3 10.3 8.8" class="b"/><path d="M9.4 12.4h18.9c.8 0 2-.1 2.6.4q1.6 1 3.5 1.7c2.8 1 5.9.5 8.6-.5 1.7-.5 3.4-1.3 5.2-1.6h7.7q1.9.6 3.5 1.7c3.4 2.2 6.4 5 9.5 7.6h41.3q3 .1 6 0c2.6-2.5 8.8-9.1 12.1-9.3h43.1q1 .1 1.8.8l2.5 2.1 7 5.8" class="b"/><path d="M9.4 10.2h25q2 .5 4.3.6c1.7 0 3.4-.7 5.1-.6h13.8c3.2 1.8 6 4.4 8.7 6.8 3.2 2.9 2.5 2.7 6.9 2.6h38.7c4.5 0 3.7.4 7-2.7 2.5-2.3 5.3-4.7 8.6-6.2 1.8-.9 4-.3 6-.5h37.9q5.8 4.2 11.2 8.7" class="b"/><path d="M9.4 8h48.2c1.8-.2 3 1.4 4.3 2.3l7 6.2c1 1.3 2.8 1 4.3 1h42.2c1 0 1.9-1.1 2.6-1.7q2.5-2.2 5.2-4 3.5-2.5 7.7-3.7h38c.8 0 2 0 2.6.7q5.7 3.9 11.2 8.1" class="b"/></svg>