<svg xmlns="http://www.w3.org/2000/svg" id="a" width="1920" height="2400" viewBox="0 0 192 240"><defs><style>.b{fill:none;stroke:#fff;stroke-miterlimit:10;stroke-width:.3px}</style></defs><path d="M0 0h192v240H0z" style="stroke-width:0"/><path d="M8 225.7h12.3c.8.2 1.8 1 2.6 1.4q3.3 1.3 7 .9c3.5-.4 7-1.2 10.5-1 6.7.5 13.3 2.9 20.1 2.4q5.5-.2 10.5-1.8c2.1-.4 4.1-1.6 6.2-1.9H184" class="b"/><path d="M8 223.5h9.6c1.7.1 3.8-.4 5.3.6 4.7 2 10 .6 14.9.9 3.8.2 7.6 1.3 11.4 2a42 42 0 0 0 22.7-1.3c2-.6 4-1.6 6.1-2.2h106" class="b"/><path d="M8 221.3h15.8c4.7 1.7 10 .8 14.8 1.8 6.4 1.2 12.7 3.8 19.3 3.6 7 0 13.8-2.2 20.2-5 1-.6 2.3-.3 3.5-.4H184" class="b"/><path d="M8 219.1h18.4q4 .6 7.9 1c7.4 1.1 14.3 4.9 21.9 5a43 43 0 0 0 16.6-3q3.6-1.3 7-3h104.3" class="b"/><path d="M8 217h15.8c2.8 0 5.9-.4 8.7.3 7.5 1.4 14.3 5.5 22 6.2a41 41 0 0 0 18.3-3q4-1.7 7.9-3.6H184" class="b"/><path d="M8 214.7h16.6c3 .1 6-.2 8.8.2 7 2 13.6 6.2 21 6.9 6.3.7 12.6-.8 18.4-3l6.1-2.8q1.3-.7 2.7-1.3H184" class="b"/><path d="M8 212.5h23.6c1.2 0 2.5-.2 3.5.4 6.3 2.6 12.4 6.4 19.3 7.1 6.6.8 13.2-.8 19.3-3.3l6-2.8c1.2-.5 2.3-1.6 3.6-1.4H184" class="b"/><path d="M8 210.3h24.5c1.5 0 3.1-.1 4.4.8 5.6 2.9 11.2 6.3 17.5 7 10.3 1.4 20.1-3 29-7.8H184" class="b"/><path d="M8 208.1h25.3c1.6 0 3.2-.2 4.5.8 5.1 3.2 10.5 6.5 16.6 7.4a46 46 0 0 0 29-7.8c1.2-.7 2.9-.3 4.3-.4H184" class="b"/><path d="M8 205.9h28.9l1.8 1c4.8 3.2 9.9 6.4 15.7 7.4a44 44 0 0 0 30.7-8.4H184" class="b"/><path d="M8 203.7h28.9c1-.2 2 .6 2.6 1.1l2.7 1.9q4 2.8 8.7 4.6c12 4.1 24.8-1.3 35-7.6H184" class="b"/><path d="M8 201.5h30.7c4.6 3.7 9.8 7.3 15.7 8.7a41 41 0 0 0 28-6l4.4-2.6q3-.1 6.1-.1H184" class="b"/><path d="M8 199.3h28c1.5 0 3.3-.3 4.4 1 4.4 3.6 9.3 6.8 14.9 8 7.7 1.5 15.7-.3 22.8-3.5q5-2.3 9.6-5.2 1.2-.5 2.6-.3H184" class="b"/><path d="M8 197.1h31.5a37 37 0 0 0 16.7 9.4q5.2.1 10.5.1a58 58 0 0 0 21-8.4l1.7-1 1.8-.1H184" class="b"/><path d="M8 194.9h30.7q1 0 1.7.5c4.3 4 9.2 7.6 14.9 9h14q5-1 9.6-3a86 86 0 0 0 11.4-6c.7-.6 1.8-.5 2.6-.5H184" class="b"/><path d="M8 192.7h28c1.4.1 3.1-.3 4.4.4 4 3.7 8.5 7.8 14 9.1h14.9c3.4.3 6.6-1.1 9.6-2.3q4.5-1.9 8.8-4.3c1.7-.9 3.4-2.2 5.2-2.9H184" class="b"/><path d="M8 190.5h31.5c.5.2 1.4 1 1.8 1.3 2.7 2.5 9.4 8.7 13.1 8.2h20.1q2.7-.8 5.3-1.9c5.2-2 10-5 14.9-7.6H184" class="b"/><path d="M8 188.3h31.5c3.8 3.4 7.5 7.4 12.3 9.5h25.4a103 103 0 0 0 17.5-8.4c1-.6 2.2-1.3 3.5-1.1h18.4c9.3 0 18.7-.2 28 .2q7.8-.3 15.7-.2H184" class="b"/><path d="M8 186.1h30.7c1.5 1 3 2.6 4.3 3.8q3.4 3 7 5.4c1.7.6 3.6.2 5.3.3h24.5a138 138 0 0 0 19.3-9.4q3.5-.1 7-.1h26.3q4.7 1 9.6 1.2c5.8-.3 11.6-1.3 17.5-1h12.3q6-.2 12.2-.2" class="b"/><path d="M8 183.9h29.8l7.8 6.6 3.5 2.7q1.3.3 2.7.2h30.6c5.7-2.3 11.2-5.3 16.7-8q1.6-.9 3.5-1.5H127q5.2 1.6 10.5 2.2c4.7.5 9.3-1 14-1.3 10.8-.7 21.6 1.9 32.4.6" class="b"/><path d="M8 181.7h27.1q1.9 1 3.5 2c3.4 2.2 6.5 5 9.7 7.3 2.2.5 4.7 0 7 .2H85q4-1.8 7.8-3.7 4.5-2 8.8-4c2-.9 4-2 6.1-1.8h15c2.5.6 5.1 1.7 7.8 2.3 4 1 8.2 1.6 12.3.7 4.5-1 9.2-1.8 14-1.4 9 .6 18 3 27.1 2.1" class="b"/><path d="M8 179.5h23.6q1 .1 1.8.7l2.6 1.6a43 43 0 0 1 10.5 6.3c1.2 1.2 3 .9 4.4.9h36.8q7-3.3 14-6.4c3.4-1.3 6.9-2.6 10.5-3 2.6 0 5.3-.3 7.9.2 3.3.6 6.4 2.1 9.6 3q3 .8 6.1 1.2 3.1 0 6.2-.6c3.7-.8 7.5-1.7 11.4-1.5 10.2.4 20.2 4.6 30.6 3.6" class="b"/><path d="M8 177.3h22.8c1.7 1.2 3.3 2.7 5.2 3.6q2.6 1.2 5.3 2 2.2 1 4.3 2.6c.8.4 1.7 1.4 2.7 1.3h20.1q11 .2 22-.1 6.4-3.1 13-5.6a31 31 0 0 1 19.3-1.6c2.7.6 5.3 1.7 7.9 2.4 5.2 1.6 10.6 0 15.7-1q6.2-1 12.3.6c8.3 2 16.7 5 25.4 4.2" class="b"/><path d="M8 175h21.9c1 .3 1.9 1.4 2.6 2q1.6 1.4 3.5 2.4c2.1 1.4 4.8 1.5 7 2.4q2.3 1.1 4.4 2.5c1 .5 2.4.2 3.5.3H92c1.8-.4 3.6-1.5 5.3-2q4.7-2.2 9.6-3.4a33 33 0 0 1 15.8-.6c4 .8 8 2.2 12.3 2.1 3.5 0 7-1 10.5-1.4q4.4-.6 8.7.3c5.7 1.1 11 3.5 16.7 4.9 4.3.3 8.7 0 13.1.1" class="b"/><path d="M8 172.9h14.9q4-.2 7.9.1c9.5 8.8 9.5 4 17.5 9 1 .7 2.4.3 3.5.4h42c1.2 0 2.4-.8 3.5-1.1q3-1.2 6.1-2.2c12.7-4.3 19.3-1 31.6-.7q4.4-.2 8.7-1c6.4-1 12.6 1.2 18.4 3.6l3.5 1.4H184" class="b"/><path d="M8 170.7q11.9-.2 23.6 0c11.1 9.7 10.3 3.7 19.3 9.5h44.7c.8.1 1.8-.4 2.6-.7q1.7-.7 3.5-1.3 5.6-1.8 11.4-2.5c7-.7 14 0 21 0 4.7.2 9.3-1 14-.6 5.3.5 10 3 14.9 5.1h21" class="b"/><path d="M8 168.5h24.5q1 .2 1.8.9l3.5 2.5q2.5 1.6 5.2 2.5c1.4.4 3 .3 4.4.7q2.8.9 5.3 2.5c1 .6 2.3.3 3.4.4h40.3q1.9 0 3.5-.8l5.3-1.7q6.8-1.9 14-2.3 9.2-.5 18.4-.7c4-.1 8.2-.6 12.2.4s7.8 3 11.4 4.7c1 .6 2.4.3 3.5.4H184" class="b"/><path d="M8 166.3h27.1c2.6 1.6 5 3.7 8 4.9q2.4 1 5.2 1 2.8.6 5.2 2c.8.5 1.8 1.3 2.7 1.6h41.1c1.2 0 2.4-.7 3.5-1a75 75 0 0 1 16.6-4l17.6-1.5c4.9-.1 10-.5 14.8.9 4 1.1 7.8 3.3 11.4 5.3 1 .5 2.4.2 3.5.3H184" class="b"/><path d="M8 164h29.8c2.3 1.5 4.5 3.4 7 4.4q2.5 1 5.2 1c3.3.4 6.1 2.4 8.8 4.2h37.6c1.5 0 3-1 4.4-1.4a75 75 0 0 1 21.9-4.9c8.7-.9 17.6-2.7 26.3-.4 4.3 1.2 8.3 3.7 12.2 6q1.7 1 3.5.7H184" class="b"/><path d="M8 161.9h32.4c3 1.8 6 4.5 9.6 4.6q5.4.2 9.7 3.5c1 .7 2 1.6 3.5 1.4h32.4c1.4-.2 3-1.2 4.3-1.7q3.5-1.5 7-2.5c6-1.7 12.3-2.5 18.4-3.4 9.7-1.5 18.9-3 28 1.6q3.7 1.8 7 4l2.7 1.5.9.4H184" class="b"/><path d="M8 159.7h35l1.8 1c5.6 4.2 7.8 2 13.1 4.1 2.5 1.1 4.7 3 7 4.4h29q.8 0 1.7-.5a111 111 0 0 1 11.3-4.5c6.6-2 13.4-2.9 20.2-4q4.3-.7 8.7-.5h10.5c6.2 1 11.4 5 16.7 8l2.6 1.4H184" class="b"/><path d="M8 157.5h37.7c1.9 1.2 3.8 2.6 6 3 3 .4 6.2.2 8.8 1.6 2.5 1.2 4.8 3 7 4.5q.9.5 1.8.4h23.6q4-2 8-3.7c6.8-3 14.4-4.3 21.8-5.6 3.1-.5 6.4-.1 9.6-.2h17.5c1.9.2 3.6 1.4 5.3 2.2l9.6 5.7c1 .5 2.3 1.3 3.5 1.6H184" class="b"/><path d="M8 155.3h39.4q1 0 1.8.6 1.2.8 2.6 1.3c2.2.8 4.7.5 7 .8 5 .7 8.8 4.5 13.1 6.8h19.3c5.7-2.7 11.3-5.9 17.5-7.4q4.7-1.3 9.6-2.1h34.2c1.2.1 2.4 1 3.5 1.5l4.3 2.6q5 3.2 10.5 5.4H184" class="b"/><path d="M8 153h42c.5.1 1.4.5 1.8.8q1.6.9 3.5 1 3 0 6.1.2c5.6 1 9.7 5.5 14.9 7.5 3.8.3 7.6 0 11.4.1 1.2.1 2.4-.6 3.5-1l5.2-2.5a66 66 0 0 1 16.7-6H155l4.5 2.4c4.7 2.8 9.5 5.6 14.9 7q4.7.1 9.6.1" class="b"/><path d="M8 150.9h44.7l2.6.9c1.4.3 3 0 4.4 0 6.9-.9 11.6 4 17.5 6.6 7 3.3 13.7.4 20.1-2.8 4-1.8 8-3.9 12.3-4.7h44.6c1.2 0 2.5-.2 3.5.3 8.2 4.6 16.6 9.4 26.3 9.2" class="b"/><path d="M8 148.7h47.3l2.6.3q4-.3 7.9-.3c4.5.7 8.2 3.8 12.3 5.5 6.3 3 12.3 1.6 18.3-1.3l6.2-2.8c1.4-.5 2.9-1.4 4.4-1.4h50.7c1.6-.2 3 1 4.4 1.6l6.1 3q7.6 3.4 15.8 3.6" class="b"/><path d="M8 146.5h63c1.3-.1 2.5.8 3.5 1.3q2.6 1.3 5.3 2.5c5.1 2.4 10.7 2 15.8-.2l6-2.6c1.2-.4 2.4-1.2 3.6-1h52.5q1.8-.2 3.5.2 3.5 1.8 7 3.2 7.6 3.2 15.8 3.6" class="b"/><path d="M8 144.3h66.6c1 0 2.5-.1 3.5.5q2.5 1.4 5.2 2.3c5.5 2 11.4.4 16.6-1.8l2.7-1H162c2.4.6 4.7 1.9 7 2.7q7.2 2.6 14.9 3" class="b"/><path d="M8 142h72.7q1.8 0 3.5.9 2.1.8 4.4 1.2 4 .4 7.8-.6c1.8-.4 3.5-1.5 5.3-1.4h62.2c2.6.6 5.2 1.8 7.8 2.5a58 58 0 0 0 12.3 2.2" class="b"/><path d="M8 139.9h79.7c1.4 0 3 .6 4.4.6q3 0 6-.6h66.6c2.4-.1 4.7 1.1 7 1.6q6 1.5 12.3 2" class="b"/><path d="M8 137.7h158.5c2.4-.2 4.7.8 7 1.2q5.2 1 10.5 1.4M8 135.5h162.9q6.5 1.2 13.1 1.8M8 133.3h165.5c3.5.2 7 .8 10.5 1M8 131h151.5c8.2.2 16.4-.3 24.5.5M8 128.9h176M8 126.7h176M8 124.5h176M8 122.3h176M8 120h176M8 117.9h176M8 115.7h176M8 113.5h134.9q5.2.9 10.5.6c2.6 0 5.2-.6 7.8-.6H184M8 111.3h129.6q2.2-.2 4.4.6 2.5.5 5.2.7c4.7.4 9.4-.3 14-1 2.9-.6 5.9-.2 8.8-.3h14" class="b"/><path d="M8 109.4c16-.6 32.1-.3 48.2-.3h80.5c2.3.4 4.7 1.4 7 1.8 6.8 1.1 13.6-.3 20.2-1.7 2.2-.4 4.7 0 7-.1h13" class="b"/><path d="M8 108.5c5.6.1 11.1-.9 16.6-1.6h109.5c1.2-.2 2.4.5 3.5 1q2.2.7 4.4 1.3a43 43 0 0 0 20.1-1.4l4.4-1H184" class="b"/><path d="M8 107.3c6.2 0 12.3-1.4 18.4-2.6h106.8c4.2 1.8 8.5 3.6 13.2 3.8 6.8.4 13.5-1.9 20-3.6 2-.5 4.2-.1 6.2-.2H184" class="b"/><path d="M8 105.6c6.3-.2 12.3-2.2 18.4-3.1h105.1c4.6 2.4 9.6 4.6 14.9 4.8 7.2.2 14.1-2.5 21-4.5 1.9-.6 4.1-.2 6-.3H184" class="b"/><path d="M8 103.5c5-.5 10-2 14.9-3.2H127q1.4-.1 2.6.3l4.4 2.3a31 31 0 0 0 10.5 3.1c6 .6 12-1.3 17.5-3.3l4.4-1.5c1-.3 2.3-1 3.5-1h14" class="b"/><path d="M8 101q4.5-.8 8.8-2.2l2.6-.7h71.8q2.2 0 4.4.5a60 60 0 0 0 20.1-.2c3.8-.5 7.8-.6 11.4.7 2.7 1 5.2 2.6 7.9 3.6q5 2.1 10.5 2.4a43 43 0 0 0 16.6-4l5.3-2c1-.4 2.3-1.2 3.5-1H184" class="b"/><path d="M8 98.2q4-1 7.9-2.3h52.6q6-.2 12.2 0c7.8 3 16 5.3 24.5 5 5.3 0 10.5-1.4 15.8-1.9q3.5-.3 7 .7l6 2.4q6.5 2.5 13.2 2c5.5-.5 10.8-2.6 15.8-4.9l5.2-2.4q1.7-.9 3.5-1H184" class="b"/><path d="M8 95.3c1.7-.4 3.5-1.2 5.3-1.6H71c.8 0 2-.1 2.7.2 6.3 2.6 12.5 6 19.2 7.4a52 52 0 0 0 16.7 1c4.6-.5 9.3-1.8 14-2 4-.2 7.6 1.6 11.4 2.5 2.5.7 5.2.3 7.8.4h6.2q5.4-1.3 10.5-3.8 4-1.9 7.9-4c1.3-.5 2.8-1.7 4.3-1.7H184" class="b"/><path d="M8 92.6c1.1-.3 2.4-1 3.5-1.1h53.4c1.1 0 2.5-.2 3.5.3 4.9 1.9 9.3 4.8 14 7q2.6 1.3 5.3 2.2h45.5q10.5 0 21-.1 6.4-2.9 12.3-6.5l3.5-2c.7-.4 1.7-1.1 2.6-1H184" class="b"/><path d="M8 90.1q1.3-.5 2.6-.8H44q9.6-.1 19.3 0c5 1.7 9.5 4.8 14 7.5 1.3.7 2.8 2.1 4.4 2H155c.8 0 2 0 2.7-.3l4.3-2.7c3.5-2.1 7-4.6 10.5-6.5H184" class="b"/><path d="M8 88q1.3-.4 2.6-1H58c5.3.4 11.4 5.2 15.8 8 .7.6 1.7 1.4 2.6 1.6h83.2c1.9-.9 3.6-2.4 5.3-3.5 2.8-2 5.6-4.3 8.7-6H184" class="b"/><path d="M8 86.5q2.1-1 4.4-1.6h42c5.6.2 11.4 4.8 15.8 8 2.1 1.8 2.6 1.5 5.2 1.5h78.8c9.2-.2 5.9 1.3 13.2-4.5 2.2-1.7 4.4-3.8 7-5h9.6" class="b"/><path d="m8 85.5 5.3-2q2-1 4.3-.8h34.2c6 .7 11 4.7 15.7 8.3.5.3 1.3 1 1.8 1.2H163c1.3-.5 2.4-1.9 3.5-2.7l4.4-3.8c1.3-1 2.7-2.6 4.3-3h8.8" class="b"/><path d="M8 85.1q6.5-2.3 13.1-4.5c5-.3 10 0 15-.1h13c5.3.8 10 3.7 14 7 1.2.7 2.3 2 3.6 2.5h98.1q5-5.1 10.4-9.6h8.8" class="b"/><path d="M8 85.4q5.3-2.3 10.5-4.9c2.2-.9 4.6-2.2 7-2.2h21q6.1 1.3 11.4 4.9c2.1 1.3 4 3.2 6.1 4.6h101.6c2.4-2.1 4.6-4.7 7-6.8 1-.9 2.1-2.3 3.5-2.7h7.9" class="b"/><path d="M8 85c6.1-2.8 11.6-7.3 18.4-8.7q2.6-.4 5.2-.2h7c8.6-.6 16.6 3.7 22.8 9.3 4.3.4 8.8 0 13.1.2h92c3.3-3 6-6.8 9.6-9.5h7.9" class="b"/><path d="M8 83.4q1.5 0 2.6-.8l3.5-2.1q4.5-3.2 9.7-5c6.5-2.1 15.2-2 21.8-.2 5.4 1.3 9.8 4.7 14 8h107.8c2.8-3 5.7-6.4 8.7-9.3q4-.1 7.9-.1" class="b"/><path d="m8 81.2 2.6-.1 4.4-2.8q3.7-2.5 7.9-4.1c3.9-1.4 8.1-1.7 12.2-1.7 6.6-.2 13.1 1.6 18.4 5.5 1.5 1 2.9 2.4 4.4 3.2h99c3.7-.1 7.7.2 11.4-.2q3.8-4.6 7.8-9c1-.5 2.4-.3 3.5-.3h4.4" class="b"/><path d="M8 79h2.6l2.7-1.5q3.3-2.3 7-4 6.2-2.7 13.1-2.5c3.5 0 7.1 0 10.5 1.1 4.2 1.3 8 3.7 11.4 6.4q1.2.7 2.6.5h109.5c1.6.3 2.6-1.5 3.5-2.5 2-2.3 3.7-5.1 6.1-7h7" class="b"/><path d="M8 76.8q1.4 0 2.6-.2l3.5-1.9q3.7-2.4 8-3.7 5.5-1.7 11.3-1.5 4-.1 7.9.6c4.9 1 9.2 3.7 13.1 6.7h114.7c1-.6 1.9-2 2.6-2.8l5.3-6.6c2.3-.4 4.7 0 7-.1" class="b"/><path d="M8 74.6c5-1 9-4.5 14-5.6q6-1.3 12.3-1 8.6-.2 15.7 4.6c1.2.6 2.2 2 3.5 2H170c3-2.8 5-6.7 7.9-9.5h6.1" class="b"/><path d="M8 71c5-.3 9.2-3.4 14-4.2 3.7-.7 7.6-.6 11.4-.5 5.3 0 10.3 1 14.9 3.9q1.7 1.1 3.5 2.2h119.1c1.8-2 3.5-4.6 5.2-6.7.8-1 1.6-2.4 2.7-2.9h5.2" class="b"/><path d="M8 67.2c4.6.4 8.7-2 13.1-2.6q5.7-.6 11.4 0c3.9 0 7.8.3 11.4 1.9q3.2 1.3 6.1 3.4c1 .4 2.4.2 3.5.3h118.2q3.6-4.6 7-9.2.9-.4 1.8-.3h3.5" class="b"/><path d="M8 63.1q3 .6 6.1.2c2.6-.5 5.2-1.3 8-1.3q5.6 0 11.3.7 8 .1 14.9 4.4c1.2 1.1 2.9.8 4.4.8h63q7-1.4 14-1.8 3.1-.2 6.2.7c1 .3 2.3 1.1 3.4 1.1h33.3q3.7-4.5 7-9.2c1.3-.5 3-.2 4.4-.3" class="b"/><path d="M8 58.8q3.4 1.2 7 1 3-.3 6.1-.5c4.7 0 9.4 1 14 1.5q5.6.4 10.5 3c1.2.6 2.3 1.6 3.5 2h61.3c3-.7 5.8-1.7 8.8-2.2q4.4-.8 8.8-1a18 18 0 0 1 13 3l1.8.2h30.7c2-2 3.5-4.6 5.2-6.8 2-2.8 1.8-2.9 5.3-2.7" class="b"/><path d="M8 54.4q3.8 1.8 7.9 2 3-.1 6.1 0 5.7 1 11.4 2c5.7.7 10 1.8 14.9 5.2h59.5l5.3-1.8a67 67 0 0 1 19.2-2.7c4 .3 7.4 2.4 10.5 4.4h31.6c1.4-1 2.4-2.8 3.5-4.1 1.4-1.7 2.6-4 4.3-5.4h1.8" class="b"/><path d="M8 51.9h4.4q1.6.6 3.5 1c2 .3 4.1.2 6.1.6q4.5.9 8.8 2c2.8.7 5.9 1 8.7 1.8q3.8 1.1 7 3.1l1.8 1h56.9c1.2 0 2.4-.7 3.5-1a75 75 0 0 1 18.4-4 19 19 0 0 1 14.9 3.8c.7.5 1.7 1.3 2.6 1.1h28q1.8.2 3.5-.2 3.4-4.6 7-9.1l1-.2" class="b"/><path d="M8 49.7c5 0 10-.4 14.9.9q5.3 1.3 10.5 3c2.6.7 5.4 1 7.9 2 9.9 4.3 2.8 3.5 14.9 3.5h49a88 88 0 0 1 10.5-3.6 64 64 0 0 1 16.6-1.9c4.3.5 8.1 2.9 11.4 5.5H177c2.5-2.6 4.6-5.8 7-8.6" class="b"/><path d="M8 47.5h9.6c2 0 4.2-.3 6.2.2 4.6 1.5 9.2 3.4 14 4.4q3.1.8 6.1 2.3c1.5.7 2.9 1.9 4.4 2.6h56l2.7-1a68 68 0 0 1 25.3-4.5c4.3.4 8 3 11.4 5.5h30.7q2.2.1 4.3-.2l5.3-6.5" class="b"/><path d="M8 45.3h11.4c2.3 0 4.8-.3 7 .2q5.6 2.4 11.4 4 5.7 1.7 10.5 5.3h56c4-1.3 8-3 12.3-3.7q5.2-1.2 10.5-1.4c2.9-.2 6-.3 8.7.8q4 1.6 7 4.1c2.3.4 4.8 0 7 .2h25.4c6.7 0 4.4.3 8.8-4.5" class="b"/><path d="M8 43h17.5q1.8-.1 3.5.5 3 1.4 6.1 2.4A42 42 0 0 1 46.5 51l1.8 1.3q1.2.3 2.6.2h54.3q3.9-1.4 7.9-2.4 8.2-2 16.6-2.1c4.5-.2 8.8 1.8 12.3 4.5h37.6c.8 0 2 .1 2.6-.3l1.8-2" class="b"/><path d="M8 40.9h21.9c3 1.5 6.4 2.4 9.6 3.7q5.2 2.2 9.7 5.8H106c1.7-.3 3.5-1.1 5.2-1.5a68 68 0 0 1 16.7-2.2q3-.2 6 .6 3.4.9 6.2 2.8c1.7.5 3.6.2 5.3.3H184" class="b"/><path d="M8 38.7h22.8c1.5-.2 3 1 4.3 1.4q7.2 2.4 13.2 7c.4.3 1.2.9 1.7 1H108c1.4 0 2.9-.6 4.3-.9a69 69 0 0 1 20.2-1.4q3.1.6 6 2.3 7.5.1 15 0H184" class="b"/><path d="M8 36.5h24.5c1.2-.2 2.4.7 3.5 1a41 41 0 0 1 14 8.3c2.3.4 4.7 0 7 .2h54.3c4.6-.8 9.3-1.6 14-1.5q3.6-.1 7 .4c1.8.3 3.4 1.3 5.3 1H184" class="b"/><path d="M8 34.3h27.1A58 58 0 0 1 51 43.8h65.7q3.9-.4 7.9-.5 3.5 0 7 .5H184" class="b"/><path d="M8 32h19.3l9.6.1q2.8 1.3 5.2 2.8 3.2 2 6.2 4.3c1 .7 2.1 2 3.5 2.4H184" class="b"/><path d="M8 29.9h28.9c.9-.2 1.9.4 2.6.8q1.3.6 2.7 1.6c3.4 2 6.4 4.7 9.6 7H184" class="b"/><path d="M8 27.7h29.8q1-.1 1.7.5l3.5 2.1q4.6 3.2 8.8 6.8 66 .2 132.2 0" class="b"/><path d="M8 25.5h29.8c2-.2 3.6 1.6 5.2 2.5q4.6 3.2 8.8 6.8c2 .3 4.1 0 6.1.2H184" class="b"/><path d="M8 23.3h29.8c2-.2 3.6 1.6 5.2 2.5q4.6 3.4 8.8 7H184" class="b"/><path d="M8 21h29.8c1.6 0 3 1.5 4.4 2.3q3 2.1 6 4.7c1.2.8 2.3 2 3.6 2.5H184" class="b"/><path d="M8 18.8h28.9c2 .3 3.6 1.9 5.3 2.9 3 2 5.7 4.6 8.7 6.7H184" class="b"/><path d="M8 17.6q1.7-.6 3.5-1h23.6q3.9 1.4 7 3.8 2.7 1.9 5.3 4c1 .7 2.1 2 3.5 1.7h66.5c3-.4 5.8-1.2 8.8-1.1q3.6.1 7 1.1H184" class="b"/><path d="M8 16.8q6-2.1 12.3-1.7 4.7.3 9.6-.1c3.3 0 6.7 1.2 9.6 2.8 3.1 1.7 5.9 4.2 8.8 6.2h66.5c1.5 0 3-.8 4.4-1q4-1 7.9-1.1 4.1 0 7.9 1.5c1.5.9 3.5.5 5.2.6H184" class="b"/><path d="M8 15.6c6-2.4 11.4-1.6 17.5-1.1 9.3-.1 12.8.7 20.2 6.4 1.3 1.4 3.5.7 5.2.8h63q4-1.3 8-2c3.6-.8 7.6-1.2 11.3-.3q3.2.7 6.1 2.3H184" class="b"/><path d="M8 14c7-2.7 12.3-1.3 19.3-.7 8.7.7 11.1.8 18.4 6.2h66.5c1.5 0 3-.8 4.4-1.1l7-1.7a26 26 0 0 1 13.1.2q3.2 1.1 6.1 2.6H184" class="b"/><path d="M8 12.1c5.4-2 11-1.7 16.6-.7q6.7.7 13.2 2A24 24 0 0 1 43 16c.8.5 1.7 1.4 2.7 1.3h66.5l5.2-1.5c4.9-1.3 9.9-2.5 15-2.6q6 .2 11.3 2.7c1.1.5 2.3 1.3 3.5 1.4H184" class="b"/></svg>