<svg xmlns="http://www.w3.org/2000/svg" id="a" width="1920" height="2400" viewBox="0 0 192 240"><defs><style>.b{fill:none;stroke:#fff;stroke-miterlimit:10;stroke-width:.3px}</style></defs><path d="M0 0h192v240H0z" style="stroke-width:0"/><path d="M13.2 231.7c2.1-.3 4.3-1.2 6.5-1.2 2.2-.1 4.5.4 6.6.2 3.6-.4 7-2.4 10.8-1.8q2.4.8 4.9 1.7 2.4.6 5 .8 6 .6 12.3.4 3.4 0 6.6-.3c5.6-.8 7.8-6 12.4-8.4q4.3-2 9-1.2 2.4.8 4.2 2.7c2.5 2.4 5 7.7 9 7.2 2.7-.8 4.2-3.7 6.6-5 3-1.5 5.5 1.8 8.3 2.3 2.2.6 4.5-.3 6.6-1.2l5.7-1.7c2.2-.5 4.5-.2 6.6 0q3.7.3 7.5 1.5 5.8 1.6 11.5 3.4c2.9 1 6 .7 9 .6 2.5-.2 5 .4 7.5 0 3-.9 5.9-2.3 9-2.4" class="b"/><path d="m13.2 229.7 5.7-.6q3.4-.1 6.6-.1c2.9-.2 5.5-1.7 8.3-2.3 2.9-.8 5.6.5 8.2 1.6q3.7 1.1 7.4 1 5.4.5 10.7.3c3.3 0 7 .3 10-1.6 3.4-2.3 5.2-6.5 9-8.4 2.1-1 4.5-.3 6.6.6 4.4 1.3 7.3 5.3 10.7 8.1 4.4 3.7 6.7-1.3 9.9-3.7 4.6-3.2 6.6 3.5 12.4 2.1l3.3-1a24 24 0 0 0 5-1.8q4.7-2.4 9.8-1.1c2 .5 3.9 1.6 5.8 2.4 2 1 4.4 1.5 6.6 2.3 2 .8 4.3 1.9 6.6 2.1q3.3.1 6.5 0c2.2 0 4.5.3 6.6-.1 3.4-.7 6.5-2.5 10-3" class="b"/><path d="m13.2 227.5 7.4-.2q3.2 0 6.6-.3c2.5-.4 4.8-1.7 7.4-2 3.2-.6 6 1 9 1.6 2.7.5 5.6 0 8.3.4q5.3.6 10.7.5c2.5 0 5.2.3 7.4-1 3.7-2.4 5.5-7 9.1-9.4 2.6-1.7 5.2.6 7.4 1.8 4 2.3 6.6 6.5 10.7 8.3 5 1.7 6.7-6.3 11.6-5.8 3 .6 5 3.6 8.2 3.8q2.5.2 5-.5 1.7-.3 3.3-1c3-1.5 6.3-3.3 9.9-2.9 3 .3 5.4 2.4 8.2 3.2q3 .8 5.8 1.7 2.8 1.2 5.7 1.7 3 .2 5.8 0c2.5 0 5 .3 7.4 0 3.7-.5 7.2-2.2 10.8-3" class="b"/><path d="M13.2 225.2q7.4.4 14.8 0c1.9-.2 3.9-.8 5.8-1q2.8-.5 5.7 0 5 .7 10-.2c2.1-.3 4.4.3 6.5.6 3 .5 6 .2 9 .6 1.7.2 3.5.4 5-.4 3.9-2.3 5.7-6.8 9.1-9.6 2.9-2.3 5.8.8 8.2 2.3 3.4 2.6 6 8 10.8 7.8 4-.8 5.5-6.4 9.9-6.1 2.5.4 4.4 2.5 6.5 3.8 2.8 1.6 6.1 1.2 9.1.6 2-.5 4-1.6 5.8-2.4q5.4-2.4 10.7.5c2.6 1.2 5.5 1.6 8.2 2.2q3 1 5.8 1.4 2.5.1 5-.2c3.2 0 6.6.5 9.9 0 3.3-.2 6.6-1.3 9.8-1.9" class="b"/><path d="M13.2 223.1q6 0 12.3 0 5 .1 10-.4 4 0 8.1-.6 2.6-.6 5-1.6c3.3-1.2 6.6.7 9.9 1.2q2.4.3 5 .4 2 .6 4 1c2.5.5 4.4-1.5 5.8-3.3 1.9-2 3.5-4.4 5.8-6 3-1.9 5.8 1 8.2 2.4 3.2 2.4 5.5 7 10 7 3.8-.4 5.5-4.8 9-6 3-.6 5.3 2 7.4 3.6q1.9 1.4 4.1 1.7 4.3.5 8.3-.9c4.5-2 8.2-3.9 13.2-1.6 2.8 1.2 6 1.5 9 2q3 .8 5.8 1.1 2.4 0 5-.3c3 0 6 .5 9 .3 3.6 0 7.2-.8 10.7-1.1" class="b"/><path d="m13.2 221 10.7-.2 6.6.2c7-.3 11.2 0 17.3-4.3 2.4-1.7 5-.8 7.4.3q2 .8 4.1 1.3 2 .1 4.1.6c4.8 2.1 6 3.6 10-1 2-2 4.2-5 7.3-5 1.8.1 3.4 1.3 5 2 4.9 2.1 7.7 8 14 5.5 3.2-1.5 6-6 9.9-4 2 1 3.6 3 5.8 3.6q4.8 1.3 9.8.2c3.6-.8 7-3 10.8-2.5 1.9.3 3.8 1.1 5.7 1.4 2.5.5 5 .5 7.5 1.1q2.4.6 5 .8 2.8-.2 5.7-.4c6.3.6 12.6.2 19-.3" class="b"/><path d="m13.2 218.8 9.8-.1q5.8.2 11.6 0a14 14 0 0 0 8.2-2.3c4.5-3 6-6.8 11.6-3.3a18 18 0 0 0 5 2c1.2.2 2.8.1 4 .8 2.3 1 4.7 4 7.5 2.5 3.4-2.3 6.8-7 11.5-5.2q3 1.1 5.8 2.4c2.2 1.4 4.7 2.8 7.4 3 6.8 1.3 9-4.6 14-2.9 2.1 1 4.1 2.6 6.6 2.8q4.5.4 9-.2 3-.7 5.8-1.9c3.8-1.4 6.3-.1 10 .8 2.9.5 6 .5 9 1.2q4.5.7 9 .2 10 .4 19.8-.2" class="b"/><path d="M13.2 216.6h15.6l5.8-.3q3.6 0 6.6-1.8c3-1.8 6-7 9.9-5.6 1.7.7 3.3 2 5 2.7q2.2 1 4.9 1.2c2.9 0 4.8 2.7 7.4 3.6 2.8 1 5-1.6 7.4-2.6 4.2-2.5 7.3-1.4 11.5 0 2.4 1 4.8 2.3 7.5 2.6q3.2.4 6.6 0c1.9-.4 3.8-1.3 5.7-1.4 2.3-.2 4.4 1.2 6.6 1.4q4.5.4 9 0 3 0 5.8-1.2c2.6-1.1 5.5-2.5 8.3-1.5q4.7 2 9.9 2.2 6 1 12.4.7c6.5 0 13.2.2 19.7-.3" class="b"/><path d="M13.2 214.3q11.1.4 22.2-.3 3.7-.1 6.6-2.6c2.6-1.9 5.3-6.4 9-4.8 2.5 1.3 4.7 3.2 7.5 3.8 1.3.3 2.8.2 4.1.6 2.5 1 4.6 3.3 7.4 3.5 4-.3 7.5-3.3 11.6-3.7q3-.1 5.7 1l4.2 1.8q2.8.8 5.7.8c3.6.2 7.2-.3 10.7 0 3 .3 6.1-.4 9.1-.3 5.3.5 9.2 1 14-2 2.5-1.3 4.9-1.6 7.4-.1a26 26 0 0 0 9.1 1.9q5.4.6 10.7.6c6.9-.1 13.8.2 20.6-.2" class="b"/><path d="M13.2 211.8q5.7.5 11.5.4 5.8-.4 11.5-.4 3.7-.1 6.6-2.6c3.5-2.7 5.2-6 10-3.4q2.6 1.5 5.7 2.2c1.3.3 2.8.3 4.1.9 2.6 1.3 5 4 8.2 3.3q3-.7 5.8-1.8c2.1-.8 4.3-2 6.6-2 6.5.4 5.4 4.4 14.8 3.9 3.6-.1 7.2.2 10.8-.4 2.2-.4 4.2-2 6.5-2 1.7.2 3.4 1 5 1.6q2.3.8 5 .8c4.3.1 7.3-5.4 11.5-4 1.6.7 3.2 1.8 5 2.3 3.1 1 6.5.9 9.8 1.3 6 .6 12.1.4 18.2.3 3-.1 6 .3 9 0" class="b"/><path d="M13.2 209c3.5.4 7.1 1 10.7.5l6.6-.6q2.9.2 5.7.5 4.1 0 7.5-2.3c1.8-1.2 3.5-3 5.7-3.4 3.7.2 7.2 1.5 10.7 2.5 2.2.5 4 2 5.8 3.2 2 1.3 4.5.5 6.6-.3 1.9-.7 4-1 5.8-1.7 2.6-1 5.6-1.5 8.2-.2 4.6 2.7 5.2 3 10.7 3 3.9-.1 8.1.2 11.6-1.9 1.6-1 3.1-2.5 5-3.2 3.6-.9 5.8 3.3 9 4.3 4 1.7 6 0 9-2.5 4.8-3.8 5.4-.8 10 .8 2.3.8 5 .7 7.4.9q3.3.1 6.6.9 4 .8 8.2.6c2.2 0 4.4-.4 6.6-.4 2.7 0 5.5.7 8.2.3" class="b"/><path d="M13.2 205.8c2.7.4 5.4 1.2 8.2 1 3-.3 6-1.4 9-1.4 2.3 0 4.5 1 6.7 1.2 5 .2 7.4-2.1 11.5-4.3 1-.4 2.2-.2 3.3-.2q3 .2 5.8 1.5l5 2.5q1.4 1.2 3.2 1.7c2.4.5 4.4-1.4 6.6-2.1 1.3-.5 2.8-.4 4.1-.6q2.5-.4 5-.3c3.2 0 6 2.1 9 3 2.2.3 4.5 0 6.6.1 3 0 6.3 0 9.1-1.4 1.8-.8 3.5-2.3 5-3.7s3.7-3 5.7-1.6c3.3 2.4 6 7.7 10.7 6.5 2.5-.9 4.3-3 6.6-4.3a4 4 0 0 1 2.5-.5c1.3.5 2.7 1.3 4.1 1.5 2.7.7 5.5 0 8.3 0 2.9-.1 5.6 1.3 8.2 2.3q2.4.8 5 1.1c2.7.4 5.5-.5 8.2-.4s5.5 1 8.2.3" class="b"/><path d="M13.2 202.6c1.6.2 3.3 1 4.9 1.2 3.4.5 6.7-.8 9.9-1.7q3-1 5.8.1c3 1.5 6.7 1.7 9.9.6 2-.7 3.7-2.2 5.7-2.7 6.7-.7 9 4.3 14.9 5.6 2.6.4 4.4-2 6.6-3.1 1.7-1.1 3.8-.6 5.7-.3 4.4.3 8.2 2.5 12.4 3.3q2.4.1 5 .1 2.8 0 5.7-.2a18 18 0 0 0 10.7-4.4c7.1-7.5 7.7-1.3 13.2 3.2 4.5 3.9 8-1.4 12.4-2.5 1.3-.2 2.8.4 4.1.3 2.7 0 5-1.6 7.4-2.5 3.6-1.3 6.4.5 9.1 2.7a21 21 0 0 0 5 2.7c2.5 1.2 5.5.5 8.2.4 3 0 6 .7 9 0" class="b"/><path d="M13.2 200.3c1.9.2 3.8 1 5.7 1.1 3.4.4 6.8-1 10-2.2 1.7-.8 3.9-.9 5.7 0 3 1.4 6.7 2 9.9.8 1.6-.6 3.2-1.7 5-2 5.5-.4 8.4 6.2 14 5.6 2.9-.5 4.6-3.5 7.4-4.5 1.6-.6 3.3 0 4.9.6 4.4 1.1 8.5 3.8 13.2 3.9h7.4q4.6-.6 9-1.8c7-1.8 9-10.8 15-3.7 2.1 2.3 4.5 5.8 8.2 5.5 2.5-.4 4.9-1.9 7.4-2.5q1.6-.1 3.3-.2c2.2-.4 4.1-1.8 5.7-3.3 4.5-3.8 7.5-4 11.6.5q1.9 2 4.1 3.4a9 9 0 0 0 5 2q2.4.1 5-.1c2.6 0 5.4.4 8.1 0" class="b"/><path d="M13.2 198.2c2.7-.2 5.5.7 8.2.7q2.5 0 5-.7l4-1.4c2.3-.7 4.6.3 6.7 1q3.2 1.2 6.5.5c1.7-.4 3.3-1.3 5-1.8 3.3-.6 5.7 2.5 8.2 4 2 1.3 4.6 1 6.6-.2 1.8-1 3.3-2.9 5-4 5.3-4.2 11.5 5.9 21.4 5q3.7.2 7.4 0c3.4-.5 6.8-1 10-2.4 3-1.3 5.5-4.3 9-4.4 1.9.1 3.5 1.4 5 2.6 1.7 1.4 3.6 3.1 5.7 4 2.8 1 5.6-.5 8.2-1.2 1.3-.4 2.9-.2 4.2-.5 3.8-.8 5.9-4.7 9-6.7 3.3-2.3 5.7-1.3 8.3 1.4l4 4.1c1.6 1.6 3.6 3.1 5.9 3.2q6-.2 12.3 0" class="b"/><path d="M13.2 196.6a20 20 0 0 1 6.5-.5q3.4.5 6.6.4c2.7-.4 5.5-1.5 8.3-.8 1.9.5 3.8 1.3 5.7 1.5 6.6.6 7.7-3.8 14 .9 1.3.7 2.7 1.3 4.2 1 3.4-.9 5.8-3.7 8.2-6.1 4.4-4.7 8.7 0 12.4 3q3 2.3 6.6 3 3.7.3 7.4.2 4.5.1 9-.5c3.3-.4 6.2-2.4 9.1-3.7 2.7-.8 5.7-.3 8.3.5q2.5.8 5 2c2.1 1.3 4.8 2.2 7.3 1.4q2.4-.8 5-1c6 .5 8-4.6 12.4-7.5 3.2-2.3 5.8-.5 8.2 2l3.3 3.4c1.5 1.6 3.4 3.4 5.8 3.4l4-.2 8.3.2" class="b"/><path d="M13.2 195.6c2.6-.7 5.4-2 8.2-1.5 1.6.2 3.3.8 5 .9 3.5 0 7.1-.8 10.7.2q3.1 1 6.6.8c2.1 0 4.4-.7 6.5-.4 1.7.3 3.3 1.1 5 1.4 4.6.5 8.6-4.6 11.5-7.6 2.3-2.3 4.6-3.2 7.5-1.2 3.7 2.8 5.3 7.6 10.7 8.4q5.8.4 11.5.4c3 0 6.2.3 9-.7 6.5-2.7 4.7-2.5 11.6-1.3q3.4.3 6.6.4c2 .4 3.8 1.4 5.8 1.6s3.9-.5 5.8-.8c1.8-.2 3.9.2 5.7-.5 4-1.3 5.9-5.9 10-7.1 2.9-.7 5.3 1.9 7.3 3.7 2.1 1.6 4 4 6.6 4.6 2 .4 3.9-.3 5.8-.4l8.2.2" class="b"/><path d="M13.2 194.5c2.2-.3 4.3-1.6 6.5-1.8 2.8-.3 5.5 1.2 8.3 1.1 2.4 0 5-.3 7.4-.1 3 .4 6 1 9 .9q3-.1 5.8 0c2.5.2 5 .6 7.5-.2 7.5-2 9.8-10.5 14.8-9.7 4.9 1.3 5.6 8.5 11.5 9.6q3.4.4 6.6.4 3.8.3 7.5 0c2.4-.2 5 .4 7.4 0 1.6-.1 3.3-.8 5-1s3.8.6 5.7.6c2.7.4 5.5-.4 8.2-.4 1.7 0 3.4.6 5 .9q2 .2 4.1-.1c2.2-.3 4.4 0 6.6-.3 3.5-.4 5.6-3.5 8.2-5.5 2.1-1.5 4.7-1 6.6.6 2.9 2 5.7 4.5 9 5.3 1.7.3 3.5-.3 5-.6 1.6-.4 3.4-.1 5-.1l5-.2" class="b"/><path d="M13.2 192.7c2.4 0 4.9-1 7.4-1 2.4 0 5 .8 7.4.7l7.4-.2c2.2 0 4.4.4 6.6.4h8.2c2.8 0 5.6.2 8.3-.3 7-.9 8.8-7.9 14-7.8 5 .7 5.5 7.3 12.4 7.8l9.9.4c1.9 0 3.8-.7 5.7-.7s3.9.5 5.8.6h12.4c2.2.1 4.4-.5 6.6-.5 3 0 6 .7 9 .6 6.8 0 8 .6 13.2-4.4 2-1.8 4.5-1.5 6.6 0 3.6 2.4 7.8 5.1 12.4 4.2q3.2-.8 6.6-.7 3-.2 5.7-.8" class="b"/><path d="m13.2 190.5 7.4-.3 6.6.3h31.3a12 12 0 0 0 7.4-2.3c1.8-1.2 3.6-2.7 5.8-3 3.8-.6 6.5 2.9 9.9 4 2.6.8 5.5.8 8.2 1q2.4.4 5 .3c1.6 0 3.3-.7 4.9-1 3-.9 6-.1 9 .4 2.8.4 5.6-.1 8.3.3q2.4.4 5 .3 2.4-.3 5-.4 7 .5 14 .4a10 10 0 0 0 4.9-2.4c1.3-1.2 3-2.5 5-2.1 3.1.8 5.6 3.4 9 4q4.9 1 9.9.2 4.6-.4 9-2.1" class="b"/><path d="M13.2 188.4q6-.2 12.3 0c2.5 0 5-.5 7.4-.4q14 .6 28 .4c5.5-.1 8-4.2 14-3.3 2.6.3 5 1.3 7.5 1.7q4.5.9 9 1.3c4 .8 7.2-.6 10.8-2 2.7-1 5.5 0 8.2.5 4 0 7.7 1.4 11.6 1.7 6 0 12-.4 18.1 0q2.6 0 5-1.3c1.5-.9 3-2.2 5-2 3 .2 5.8 2.3 9 2.6 4.3.5 8.8 1 13.2.5 2.3-.4 4.5-1.7 6.6-2.7" class="b"/><path d="M13.2 186q6.6.3 13.1.1c2.5-.1 5-1 7.5-1 2.7.2 5.5.9 8.2 1q5.4 0 10.7 0c3.6 0 7.2.3 10.7 0 2.3-.4 4.4-1.5 6.6-1.9q3.7-.7 7.5-.4c5.2.4 10.4 2 15.6 2.3q4 .3 7.4-1.4c1.8-.9 3.7-2 5.8-1.8 1.4 0 2.8.6 4.1.8q3 .3 5.8 1 4.5 1.1 9 1.5 4.5-.2 9.1-.5c2.2-.1 4.4.5 6.6.5 2.6 0 5-1.4 7.4-2 3.6-.8 7.2.7 10.8.8 2.7.3 5.5 0 8.2.7 5.1 1.2 7.1.2 11.5-2.3" class="b"/><path d="M13.2 183.6q3.7.4 7.4.3 3.2.1 6.6 0c1.6-.2 3.3-.8 5-1q2.4-.3 4.9.3 2.4.6 5 .8h19.7c2.5 0 5-1 7.4-1.5q4.1-.6 8.2-.7c3.1.1 6.1 1 9.1 1.5 3.8.4 7.8 1 11.6.4 2.3-.4 4.3-2 6.5-2.5 2-.4 4 .3 5.8.6q3.8.4 7.4.7l4.2.4q2.4.8 5 1c2.7.3 5.4-.8 8.1-.9 2 0 4 .8 5.8 1 3.6.2 7.1-1.6 10.7-1.6q4.5-.1 9.1-.4c1.6-.1 3.4-.5 5 0 6.2 2 6.7 3.2 13.1 0" class="b"/><path d="M13.2 181.4c4 .7 8.2 0 12.3.4 2.8.3 5.5-1 8.3-1 2.7 0 5.5.8 8.2 1h17.3q4.6 0 9-1.1l5-.6 3.3-.3c3 .2 6 1.3 9.1 1.6q5 .4 9.9.4c6.9.1 6.8-3.2 14.8-1.9l6.6-.3q2.5-.3 5 0c1.6.5 3.2 1.5 5 2 3 1 5.9-1.7 9-1.3 2.2.5 4.3 1.6 6.6 1.5q2.4-.1 5-.7l5.7-.9c2.5-.5 5-1.3 7.4-1.6q1.7-.3 3.3-.4 1.8.1 3.3 1c4.2 2.5 6.8 3.6 11.6 1.5" class="b"/><path d="M13.2 179.2c3.8.9 7.7-.2 11.5.1q2.4.5 5 .2c2.1-.3 4.3-.9 6.5-.8 2.5 0 5 .7 7.4.8h10q4.9.1 9.8 0l12.4-1.6c3 0 6 1 9 1.3q3.4.3 6.7.3 2.8.1 5.7.1c2.8 0 5.5-1 8.3-1.5q2.4-.2 5-.3l4.9-1.2c3-.7 6.4-1.2 9 1 1.2.8 2.7 1.8 4.2 2 2 .2 3.8-1 5.7-1.5 1.7-.2 3.4.8 5 1.2 2.7.8 5.5-.1 8.2-.4a21 21 0 0 0 6.6-1.7c1.9-.8 3.7-2.1 5.8-2.5 1.6-.2 3.4-.5 5-.1 4.5 1.7 8.6 6.4 14 4.6" class="b"/><path d="M13.2 177c3.5.8 7.1 0 10.7-.1q2 .2 4 .5c4.2.3 8.3-1.5 12.5-1q3.2.5 6.6.5 2.8-.1 5.7-.1 5.7.6 11.6.4c3.5-.3 7.1-.3 10.7-1 5-.4 9.9 1 14.8.8 2.7 0 5.5.5 8.3.5 3.3-.1 6.6-.8 9.8-1.2 2.4-.2 4.5-1.3 6.6-2 5.4-2 8-.5 12.4 2.5 2.6 1.5 5.5-.1 8.2 0 1.4 0 2.8.6 4.2.7 2.7 0 5.4-1.2 8.2-1.3q3-.2 5.8-1.7c1.7-1 3.3-2.4 5-3.3 1.1-.7 2.7-.7 4-.4 2.2.1 4 1.4 5.8 2.4q2.4 1.5 5 2.7c1.7.9 3.7 1.7 5.7 1.5" class="b"/><path d="M13.2 174.9c3.2.6 6.6 0 9.8 0 2.2-.2 4.4.5 6.6.4 3.3-.1 6.6-1 10-1.3q5.6-.1 11.5-.6c3 0 6 1.3 9 1.5q5.7 0 11.6-.2c2.7-.1 5.5-.5 8.2-.4q5.8 0 11.5.2 3 .5 5.8.8a66 66 0 0 0 13.2-1.1c4-1.7 6.3-3 10.7-1.6 2.5.7 4.9 2.1 7.4 2.6q2.5.2 5 0 2.5.1 5 0c1.9-.5 3.8-1.6 5.7-1.9 1.6-.2 3.4 0 5-.4q3-.8 5.7-2.9 1.9-1.7 4.2-2.8 1.7-.4 3.3.5c1.7.6 3.3 1.8 5 2.7q2.7 1.4 5.7 2.7c1.8.8 3.7 1.9 5.7 2.2" class="b"/><path d="M13.2 172.8c3.2.5 6.6.1 9.8.1 2.8 0 5.6.4 8.3.1 6.7-.1 13.3-1.9 19.8-3.5 2.9 0 5.4 1.8 8.2 2.3 2.7.6 5.5.2 8.2.5 3.3.3 6.7 0 10 0q6.5.1 13.1 0c3.6.2 7.2 1 10.7.8q4.6.2 9.1-.4c2.2-.5 4.3-1.6 6.6-1.5 3.6.2 7.1 1.6 10.7 1.8l5.8.1q3 .1 5.8-1c6.4-3.6 8.6.3 14.8-4.1 1.8-1.2 3.5-3.2 5.8-3.4 3 .6 5.5 3.2 8.2 4.6q2.8 1.3 5.8 2.1 2.4 1 5 1.6" class="b"/><path d="M13.2 170.8c5.7.4 11.5 0 17.3.1s11.1.2 16.5-2.6c3.2-1.6 4.8-2.5 8.2-.7q2.7 1.4 5.8 2 2.4 0 5 .2 6.5.9 13.1.9 7.5-.1 14.8-.1 7.5.3 14.9.3c2.5.1 5-.7 7.4-.7 2.2 0 4.4.5 6.6.6q5.8.3 11.5 0c3.3 0 6-2.3 9.1-2.6l4.1.2a18 18 0 0 0 9-3c2-1.2 3.8-1.7 5.9-.4q2.3 1.4 5 2.8c3.5 1.6 7.6 1.6 11.4 2.6" class="b"/><path d="m13.2 168.8 20.6-.1q3.7.1 7.4 0 3-.5 5.7-1.9c1.6-.7 3.2-1.8 5-1.8 3.4.4 6.4 2.9 9.9 2.7 3-.3 6 .3 9 .8q4.2.5 8.3.3 8.7 0 17.3-.2c3 0 6-.4 9-.1q2.6.2 5 .3l5-.3 5.8.3q3.7-.1 7.4 0 4.1.2 8.2-.7c1.6-.4 3.3-1.2 5-1.4 2.1-.2 4.4.5 6.6.4 3.3 0 6.6-1.2 9.8-2s6 1.5 9.1 2c3.8.7 7.8 0 11.5.7" class="b"/><path d="M13.2 166.6c3.2-.3 6.6 0 9.8 0q5.4-.1 10.8-.4c3.5.1 7.2.8 10.7 0 2.2-.5 4.4-1.6 6.6-2.2 1.6-.2 3.4.6 5 1q2.3 1 4.9 1 2.4-.1 5-.1 2.8.2 5.7.7c3.5 0 7.1-.3 10.7 0h14.8c3.6-.1 7.2-.8 10.8-.2 2.4.4 5 0 7.4 0q5.3.3 10.7 0 3.8.2 7.4.2 3.4-.3 6.6-1 3-.2 5.8.4 2.4.3 5 .1c3 0 6-.6 9-.7q2 .1 4.1.4 3.4.4 6.6 0c2.7-.5 5.6-.9 8.3-.2" class="b"/><path d="M13.2 164.3c2.7-.4 5.5 0 8.2.1 3 0 6-.7 9-.8q3.7 0 7.5.7 3.2.3 6.6 0c2.5-.2 4.9-1.3 7.4-1.4 2.2.2 4.4 1 6.6 1.2 2.4.3 5 0 7.4 0q2.9 0 5.8.3c2.7 0 5.5-.4 8.2-.4l5.8.1 5.7-.2q3.8.2 7.5.5l5.7-.3 5 .3 5-.1 5.7.1 6.6-.3 6.6.3 5.8-.3c2.1-.1 4.4.3 6.5.3h20.7c2.5 0 5-.8 7.4-1.2q2.5-.1 5 .6M13.2 162c2.7-.2 5.5.3 8.2.2 2.7-.3 5.4-1.3 8.2-1.4 2.5-.1 5 .5 7.5 1q3.2.6 6.5.4c2.8 0 5.5-.8 8.3-.8l5 .8q4.1.1 8.2 0c2.7-.1 5.5.2 8.2 0 3.8-.2 7.7-.7 11.6-.6 3.2-.2 6.6-.9 9.8-.3q3 .4 5.8 1l5-.2 5.7.2q3.4-.1 6.6 0c3.8.1 7.7-.4 11.6-.4q3.3.1 6.5.4l8.3-.1q2.9-.6 5.8-1 4.1-.1 8.2.1l5 .1 5.7.9c1.7 0 3.4-.5 5-.7q2.4-.3 5 .4M13.2 160c2.7-.2 5.5.3 8.2 0 3.3-.6 6.5-2.1 9.9-2.2 2.8 0 5.5 1.3 8.2 1.8 3.3.7 6.6.5 10 .3 2.6-.3 5.4.3 8.2.2q4.5-.3 9 0 5.4 0 10.7-.2 5.9-.6 11.6-1.4 4.1-.5 8.2.6 3.7 1 7.4 1h8.3c4-.3 8.2.2 12.3-.2q3.4-.6 6.6-.3 5 .7 10 .4c2.9-.2 5.3-2.2 8.2-2.8q4-.9 8.2-.4c2 .2 4 .2 5.8 1 1.6.5 3.3 1.5 5 2q2.4.4 4.9 0 2.4 0 5 .2" class="b"/><path d="M13.2 157.8c3.5.2 7.2.2 10.7-1 4.7-1.2 8.4-3.6 13.2-1q2.7 1.3 5.7 1.9c3.3.4 6.7.1 10 .2 4.3 0 8.7-1.2 13.1-.7 4.4.3 8.8.8 13.2.6 3 0 6-.8 9-1.3 5.3-.8 10.5.8 15.7 1.2q5 .2 10-.2 2.8 0 5.7.3 2.9.1 5.8-.2c1.8-.2 3.8-.6 5.7-.4 4 .4 8.5 1.4 12.4-.2 1.7-.8 3.3-2.1 5-3 4.2-2.2 9.5-2.7 14-.5 2.4 1.2 4.7 3 7.4 3.9 2.9.8 6 .4 9 .5" class="b"/><path d="M13.2 155.7c4.5.3 8.9-1.1 13.1-2.5 3.2-1.3 6.6-3.1 10-1q2.7 1.7 5.7 2.9c3.2.8 6.6.6 9.9.4 3.6-.1 7.1-1.4 10.7-2a14 14 0 0 1 5 .1l5.7 1.8q3 .5 5.8.3 2.9 0 5.8-.2 9.8-1.5 19.7-.3c3.6.3 7.2-.3 10.8-.3 2.1.1 4.4.8 6.6.8 2.4.1 5-.5 7.4-.6q2.4.1 5 .5 3.7.3 7.3-.2 2.8-1 5-2.8 3.2-2 6.6-3.4c9.6-4 9.3 7.8 25.5 6.4" class="b"/><path d="M13.2 153.5c3.1 0 6-1.5 9-2.4q2.1-.4 4.1-1.2c1.6-.6 3.3-1.5 5-1.7 3.8-.5 6.6 3 9.9 4.3a29.1 29.1 0 0 0 18.1-1.5c2.8-1.3 6.2-2.6 9-.8 2.2 1.2 4.2 3 6.7 3.3 1.9.2 3.8-.2 5.7-.2 3 .1 6.1.4 9.1 0 3.3-.2 6.6-.8 9.9-1l6.6.3h5q2-.4 4-.4c2 0 4 .8 5.8 1.1 2.7.5 5.6 0 8.3 0l5.7.3c4.4-.3 6.8.8 10.8-2 1.8-1.2 4-2 5.7-3.3 2.2-1.3 4.8-3.2 7.5-2.1 2.3 1.2 4.2 3.4 6.5 4.7a26 26 0 0 0 13.2 2.2" class="b"/><path d="M13.2 151c3.2-.3 6-2.3 9-3.2 3-.7 6-2.5 9-2 3.8.8 6.5 3.8 10 5q3.1.7 6.6.5a28 28 0 0 0 6.6-.6c2.9-.7 5.4-2.7 8.2-3.6 3.3-1.3 5.8 1 8.2 3q2.3 1.6 5 1.2 2.4-.5 5-.8c3.2 0 6.5 1 9.8.8 3.4 0 6.6-1.6 10-1.7 3.5.1 7 1.2 10.6.8 1.7-.2 3.4-.7 5-.7 2 0 3.9.7 5.8 1.2 3 .7 6 .4 9 .4q3.4.1 6.6-.2c2.2 0 4.6.6 6.6-.4q3.3-1.5 6.6-3.2c2.3-1.3 4.6-3.6 7.4-3.2 1.9.5 3.4 2 5 3.1q2.2 1.8 5 2.5 5.2 1.2 10.6.6" class="b"/><path d="M13.2 148.2c2.8-.3 5.5-1.8 8.2-2.6 2.6-.7 5.5-1.6 8.2-.8 2.3.7 4.5 2 6.6 3a18 18 0 0 0 5.8 1.4c3.8-.1 7.7.3 11.5-.4 2.7-.5 5.1-2.2 7.4-3.6 6.1-3.5 8 4.2 13.2 4 2.6-.2 4.9-1.9 7.5-1.9s5 1 7.4 1.5c4.2 1.1 7-.4 10.7-1.8 3.3-.8 6.6.8 9.9 1 2.5.3 5-.9 7.4-1 2.8 0 5.5 1.4 8.3 2 2.4.4 5 0 7.4.2q2.8-.1 5.7-.1 2.1.2 4.2 0 2.2-.4 4-1.4 3.6-1.4 6.7-3.5c2.5-1.6 4.9-2 7.4-.1 2 1.3 4.2 2.7 6.6 3.1q5.8 1.2 11.5.2" class="b"/><path d="M13.2 145c4.7.4 9.3-2.2 14-1.3 3.3 1 6.4 2.8 9.9 3.1 3 .4 6 0 9 0 2.7 0 5.6.6 8.3-.2 3.7-1 6.6-5 10.7-4.2 2.8.8 4.5 3.8 7.4 4.5 3.3.6 6-2.2 9-2.5 2.6-.1 5 1.2 7.5 1.8 5 1.9 7.3.2 11.5-2 4.6-2 8.5 1.8 13.2.6 7.1-1.4 9.8 2.9 16.5 2.1 4.4-.1 8.9.5 13.2-.2 3-.7 5.6-2.3 8.2-3.7 2.3-1.3 5-1.9 7.5-.7q2.8 1.5 5.7 2.4 3 .6 5.8.5c2.8.1 5.7.2 8.2-1" class="b"/><path d="M13.2 141.5c3.9 1.8 8.2.6 12.3 1.1 2 .4 3.9 1.3 5.8 1.7q4.9.9 9.9.3 3.2-.4 6.6-.1c2.7.4 5.6.7 8.2-.5 4.8-2.2 8.3-5.2 13.2-1.3 1.4 1 3.1 2.2 5 2.1 1.7 0 3.4-.8 4.9-1.5 4-2.2 8.3.6 12.4 1.3q4 .8 7.4-1.7c4.8-3.6 5.9-3.9 11.5-1.6 2.4.6 5 .6 7.5 1.2 2.7.7 5.4 2 8.2 2.3 2.2.2 4.4-.3 6.6-.3l7.4.3q2.6 0 5-1 2.5-1.2 4.9-2.6 3.6-1.9 7.4-.2 3.2 1.6 6.6 2.3 2.9.3 5.8.1c3-.2 6.4.2 9-1.6" class="b"/><path d="M13.2 138.2c3 2.4 7 2.6 10.7 2.9 2.7.4 5.4 1.7 8.2 1.6q3.8 0 7.4-.5 3-.5 5.8-.7c2.5 0 5 1.1 7.4 1.2 3.2 0 6-1.8 9-2.6 2-.5 4-1.2 5.9-.7 1.7.5 3.3 1.6 5 2.4 2.8 1.5 5.3.7 8.2-.3 5.6-1.6 11.9 3.3 17.3 0 2.8-1.7 4.7-5.4 8.2-5.4 1.4.1 2.8 1 4.1 1.5 4.9 1.9 9.5 4.8 14.9 5q2.9 0 5.7-.3h5a15 15 0 0 0 12.3-3.3c2-1.3 4.6-1.4 6.6-.2 4.8 3 8.4 3.6 14 3.3 3.4-.3 7.1.1 10-2" class="b"/><path d="M13.2 135.2c2.5 2.2 5.8 3.2 9 3.8q3 .7 5.8 1.3c2.2.5 4.4-.1 6.6-.5q3.7-.5 7.4-1.4c6.1-1.7 7.3 1.8 12.4 2q2.4-.1 5-1 2-.7 4-1.3c2.4-1 5-1.7 7.5-.4 7.7 4.2 6.2 2.5 14 2 4.3 0 9.1 2 13.2-.4 3.3-2.1 6.1-7.2 10.7-4.8 5.7 2.5 9.9 6.3 16.5 6l5.7-.3c3 0 6.1.3 9.1 0 2.9-.2 5.2-2 7.4-3.6 2-1.5 4.6-1.4 6.6 0 5 3.4 8 3.9 14 3.8 3.6-.1 7.6.4 10.7-1.7" class="b"/><path d="M13.2 133.4c2.4 1.7 5.4 2.6 8.2 3.5 2.1.6 4.4 1.4 6.6 1.4 2 0 4-1.3 5.8-2.2q2-.9 4-1.3c3.3-.7 6.8-2 10-.5 2.3 1 4.1 3 6.6 3.8 1.8.5 3.9 0 5.7-.6q2.2-.4 4.1-1.2c2.7-1.3 5.4-2.5 8.3-1 4.2 2.1 5.7 3.6 10.7 2.8q3.3-.3 6.6-.1c2.4.2 5 .7 7.4-.3 2.7-1 4.7-3.5 7.4-4.4 1.7-.5 3.5 0 5 .6 3 1 5.8 3.1 9 3.9 4.6 1 9.4.3 14 .5 3-.1 6.2.4 9.1-.5 1.8-.6 3.4-2 5-3 2.2-1.6 5.1-1.1 7.4.2 5.3 3 8.7 3.6 14.8 3.2 3.3-.1 7 .8 10-1" class="b"/><path d="M13.2 133c1.8.8 3.8 1.1 5.7 1.7 2.2.5 4.4 1.4 6.6 1.4 6.7.1 7.7-9.6 19-7.2 8.1 1.8 8 9 16.5 6.8q2.5-.3 5-1.6c2-1 4.2-2.2 6.5-1.6 2 .6 3.8 2 5.8 2.8 4.7 1.9 9.9 0 14.8.8 3.5.5 6.7-1.3 9.9-2.4 3.9-1.2 7.9.5 11.5 1.6 3 .8 6 .8 9.1.8q5.8 0 11.5-.2 2.6.2 5 .2c2.9-.1 4.8-2.7 7.4-3.5 2.2-.6 4.5.2 6.6 1q3.7 1.4 7.4 2.3c2.7.6 5.5-.1 8.3-.2 3 0 6.2 1 9-.2" class="b"/><path d="M13.2 133q2.8.3 5.7.4c2.2.3 4.5.9 6.6.3 3.8-1 5.6-5.2 8.3-7.7q2-2.2 4.9-3c1.7-.3 3.4.5 5 1.2q3.4 1.4 6.5 3.5c3.5 2.8 5.6 7 10.8 6.2 3 0 5.7-1.4 8.2-2.7 3-1.7 5.4-.5 8.2.9q4 1.8 8.3 1.9l5-.2 5.7.2c2.7-.2 5.5-1 8.2-.9 3 0 6.1.6 9.1.8h12.4c3.5 0 7.1-.7 10.7-.5 5.3 1.3 5.5 0 9.9-2.1 2.2-.6 4.5.3 6.6.8q4.1 1 8.2 1.7c2.7.4 5.5-.3 8.3-.3 3 .1 6 1 9 0" class="b"/><path d="M13.2 131.8h5.7c2.2 0 4.6.1 6.6-.8 4.6-2.2 6.2-8 10.7-10.2 3.7-2.5 5.6-.5 9.1 1q2.5 1 5 2.4c3.1 2.2 5 6.4 9 7.4 9.5 1.7 10-5 16.5-2.8 3.8 1.2 7.6 2.7 11.6 3l5.7-.2q4.5.3 9 0l7.5.2c2.2 0 4.4-.4 6.6-.4q3.8.2 7.4.4l9-.9c1.4 0 2.9-.3 4.2 0 2.2.6 4.4 1.4 6.6.3 1.3-.6 2.7-1.5 4.1-1.6 2 0 4 .7 5.8 1.1q4.5 1 9 1c2.5 0 5-.4 7.5-.3 3 .2 6 .6 9 .2" class="b"/><path d="M13.2 129.5c4.3-.2 9 .7 13.1-1.3 2.2-1.2 4-3 5.8-4.5q2.3-1.7 5-2.9a8 8 0 0 1 5.7-1.2q3 .1 5.8.7c5.2 1.2 6.8 8.2 12.4 8.9 2.1.3 4.4.7 6.6 0 1.9-.6 3.7-1.9 5.7-2.3 5.4-.5 10.4 2.6 15.7 2.7 5.5-.2 11 .2 16.5 0l5.7-.8q2.5-.6 5-.5c2.5 0 5 1 7.4 1.3 4.2.4 8.2-1.6 12.4-1.9 2 .3 3.7 2 5.8 2 2.3-.2 4.2-2.2 6.5-2s4.4 1.2 6.6 1.6c3.6.7 7.2 0 10.8-.3 4.4-.3 8.7.8 13.2.6" class="b"/><path d="M13.2 126.8c3.2-.3 6.6 0 9.8-.4 3.7-.5 7.2-1.8 10.8-2.8 2-.6 4-1.9 5.7-3q2.4-1.5 5-2.6c2.8-1.3 5.9-2.5 8.2.2 4.3 4.7 4.7 7.4 11.6 8.7 5 1.6 8.4-.9 13.2-1.5 2.8-.4 5.5.7 8.2 1.5q2.4.6 5 .5c5.4 0 11 .4 16.4-.7 6.7-1.3 8-3.4 14.9-.3 3.4 1.7 6.6 1 9.9-.7 1.2-.6 2.7-1.4 4-1.3 2 .4 3.3 2.1 5 2.8 2 .8 4-.6 5.8-1.2 3.3-.7 6.6 1.4 9.9 1.4 3.3.3 6.6-1.1 9.9-1.2 4.1 0 8.2 1 12.4 1.1" class="b"/><path d="M13.2 123.6c2.1-.4 4.4-1 6.5-.9l10.8 1c3 .3 6-.6 8.2-2.6q3.4-2.7 6.6-5.7c2-1.6 5-4.6 7.4-2.3 2.8 2.5 4.3 6.2 7.4 8.4 1.8 1 4 1.5 5.8 2.2 2.3 1 4.9 2 7.4 1.4 2-.3 3.9-1.4 5.8-1.8 2.3-.6 4.5.4 6.6 1.2q2 .6 4.1.7h9.9q3.3-.2 6.6-1 3-.7 5.8-1.8a9 9 0 0 1 7.4-.2c3.6 1.6 6.7 4.7 10.7 2 1.6-1 3-2.5 5-3 1.2-.2 2.4.8 3.2 1.6q1.5 1.4 3.3 2.3c2.2.7 4.4-.8 6.6-.8 3 0 6 1 9.1 1 2.8 0 5.5-1.5 8.2-1.8 4.4-.3 8.8.9 13.2 1" class="b"/><path d="M13.2 119.7c1.8-.5 3.7-1.6 5.7-1.6 1.8 0 3.5.9 5 1.7l5 2c2.6 1 5.7 1 8.2-.6 3-2.1 5.6-5.2 8.2-8q1.6-1.7 3.3-3.2c1-.8 2-2 3.3-1.9 3.5 1.1 5.3 6 8.2 8.1 1.8 1.2 4 1.8 5.8 2.7q2.5 1.3 5 3.1c3 2.1 5.3.6 8.2-1 2.8-1.5 5.5.6 8.2 1.3 2.4.5 5 .4 7.5.6 2.7.2 5.5.4 8.2-.5q3.7-1 7.4-2c2.4-1.2 4.8-2.2 7.4-1.3 3.3.7 5.7 3.7 9.1 4 3.6.1 5.6-4.3 9-4.3 2.3.6 3.7 2.9 5.8 3.8 2.7 1 5.6 0 8.3.2 3 0 6 .7 9 0 2.3-.5 4.4-1.7 6.7-2 4.3-.4 8.8.4 13.1.6" class="b"/><path d="M13.2 115c2-.7 4.3-2.3 6.5-1.4 2 .8 3.4 2.5 5 3.7 2.6 2 5.7 3.7 9 3.2 4-.3 6.5-3.9 9.1-6.4l7.5-7.7c3.6-3.8 7 2.2 9.8 4q2.5 1.3 5 2.4c3.8 1.7 6.4 9 10.7 8 4.1-1.7 5-4.7 9.9-2.1 2.6 1.1 5.5 1.2 8.2 1.6l5 .6q2-.1 4.1-.8c3.3-1.2 6.8-2 9.9-3.6 5-1.4 8.7 3.4 13.2 4.3 2.8.5 5.1-1.6 7.4-2.8 4.7-2.5 5.4 3.4 14 2.9q5 .2 10-.2c2.2-.3 4.3-1.5 6.5-2 2.1-.4 4.4-.2 6.6-.2q4.1 0 8.2-.3" class="b"/><path d="M13.2 109.7c4.3-1.5 6-.8 9 2.5s6.9 6.7 11.6 6c3.4-.2 5.7-3.2 8.2-5.3 2.8-2.6 5.9-5 8.2-8 4.3-5.3 7.2 0 11.6 1.5 5.1 2 7.2 7.1 10.7 10.9 3.4 3.2 5.9.2 9-1.4 2.2-1 4.5 0 6.7.6q4.8 1.2 9.8 2.2c2.3.3 4.6-.6 6.6-1.6l5-2.2c1-.5 2.2-1.3 3.3-1.5 1.7-.3 3.5.7 5 1.5q2.7 1.8 5.7 3.2c6.4 2.5 9.4-3.2 14-1.8q3.2 1.4 6.6 2 6.1.7 12.4.2c2.5-.3 4.9-1.6 7.4-1.6 2.4-.2 5 .2 7.4 0q3.8-.4 7.4-1.8" class="b"/><path d="M13.2 105.6c5-.6 8 4.3 11.5 7.1 5.1 4 10 4.7 14.8-.2 3.5-3 7.7-5.6 10.8-9.3 4.2-5 6.3-1.6 10.7.6 5.2 1.9 7.6 7.4 11.5 11 4 3.4 6.7 1 10.7-.6 2.4-1 5-.2 7.4.4 7.5 2.2 10.4 3.4 17.4-1.3q2-1.3 4-2.4c3.2-.7 5.7 2.4 8.3 3.7 4 2.5 9 2.5 13.2.6q2.4-1.1 5-.4 3.2.8 6.5 1.4 5.9.4 11.6 0c2.2-.1 4.4-.8 6.6-.8 5.7 0 10.6.6 15.6-3" class="b"/><path d="M13.2 104c4.3.9 7 5 10.7 7 3.1 2 7 3.2 10.7 2.2 1.9-.6 3.4-2 5-3.3 2.8-2.4 6.1-4.4 9-6.8 3.8-3.7 5.5-4.8 9.9-1 1.4 1.3 3.3 2 5 3q2.1 1.7 4 3.6c3.2 3 7.1 6 11.6 5.6 2-.2 3.9-1.2 5.8-1.8a14 14 0 0 1 6.6 0c6.6 1.5 11.3 3.7 17.3-1 3-2.3 4.8-2.6 8.2-.6q3.8 2.3 8.3 3.1 2.9.5 5.7.2c2-.3 3.9-1.2 5.8-1.3 2.5 0 5 .7 7.4 1.1q2.9.4 5.8.3c4.4.2 8.8-.4 13.2-.5q5 .1 9.9-.5 3-.9 5.7-2.8" class="b"/><path d="M13.2 104.5c2.8.6 4.9 3 7.4 4.3 3.7 2 8.1 3 12.3 2.3 2.6-.5 4.6-2.4 6.6-4q3.1-2.3 6.6-4.1c2-1 3.8-2.6 5.8-3.4 3-.8 5.3 2.3 7.4 3.9 1.2 1 2.8 1.4 4.1 2.2 2.2 1.4 4.2 3.3 6.6 4.3a29 29 0 0 0 10.7 2.2c2-.1 3.9-1.1 5.8-1.5q4.6-.6 9 .2 4.2.8 8.3 1.3 2.6 0 5-1.2a10 10 0 0 1 5.7-1.6c3.6.5 7.1 1.8 10.8 2.3 2.1.2 4.4.7 6.5.5s3.9-.8 5.8-.9c2.5 0 5 .6 7.4.8q3.8.2 7.5.1 7.4 0 14.8-.3 3.4-.2 6.6-.8a20 20 0 0 0 5-2" class="b"/><path d="M13.2 105.3c2.6.2 4.9 2 7.4 2.8 4.2 1.2 9 1.8 13.2.1 1.8-.8 3.3-2.3 5-3.5a19 19 0 0 1 5.7-3l5.8-1.7c2-.7 4.1 0 5.7 1.3 1.6 1.1 3.1 2.6 5 3.3q3 .9 5.7 2.7 2.8 1.5 5.8 1.9c3 .3 6 .9 9 .8q2.2-.2 4.2-.9l5.8-.8q4.1-.3 8.2.3c2.2.4 4.4 1.3 6.6 1.4s4.4-.8 6.6-1q5-.3 9.9.2c4 .3 8.2 1.2 12.3.6s8.3.1 12.4.2h14.9c5.5-.1 11.2-.3 16.4-2.2" class="b"/><path d="M13.2 105.4c3 .2 6 1.3 9 1.5 5.3.6 10.3.7 14-3.7 2.2-2.3 5-4.5 8.3-4.2q2.4.3 5 .8 3 .2 5.7 1.2 2.4 1.3 5 2.5 1.6.4 3.2.9c2.4 1.1 4.8 2.5 7.5 2.8 5.4.6 11 1 16.4.3q3.7-.4 7.5-1c1.8-.3 3.9-.7 5.7-.3 2 .3 3.9 1.2 5.8 1.5 2.2.4 4.4-.2 6.6-.3a92 92 0 0 1 15.7.3c4 .5 8.2-.3 12.3-.2q9.5.5 19 .3 9.5.1 19-1.2" class="b"/><path d="M13.2 104.7q7.4.4 14.8 0a10 10 0 0 0 6.6-3c2.7-3.1 6-7.8 10.7-5.3 2 .9 3.7 2.3 5.8 2.9q4.5 1 9 2.6c2.9.5 5.5 2 8.3 2.6q5.3 1.2 10.7 1c4.4 0 8.8.5 13.2 0 3-.2 6-2 9-1.5q2.6.8 5 1.5 2 .3 4.1.1c6 0 12.1-.4 18.2 0q3.7.1 7.4 0h20.6q7 0 14-.4 4.1 0 8.2-.2" class="b"/><path d="M13.2 103.2a43 43 0 0 0 10.7-1.1c1.6-.3 3.3 0 5-.3a10 10 0 0 0 5.7-3c3-3.3 6.8-8.8 11.5-4.9q2 1.7 4.2 3.2c2.8 1.4 6 1.6 9 2.6 3.8 1 7.6 2.5 11.6 2.6q3.3.3 6.5.5 4.2-.2 8.3 0c4.5.6 8.8 1.3 13.2-.5 3-1 6 1 9 1.1q12.4.2 24.8 0 9.4.2 19 0 7.8-.2 15.6-.6c3.8-.2 7.7.4 11.5.3" class="b"/><path d="M13.2 101.2q3 .1 5.7-.4 2.6-.8 5-1.7c1.8-.6 3.9-.1 5.7-.3 5.4-.4 7.9-6.1 12.4-8.2 2.5-1.1 4.8 1 6.6 2.6 2.2 2.2 5.3 2.8 8.2 3.5 2.5.7 5 1.9 7.5 2.4 3.8.8 7.7-.4 11.5.4 2.7.3 5.5 0 8.2.2 2.5.2 5 .9 7.5 1.3q2.8.6 5.7 0c1.6-.5 3.3-1.2 5-1 2.2.2 4.4 1 6.6 1.2 2.7.2 5.5-.2 8.2-.2q9 .5 18.1.3c2.8.1 5.6-.3 8.3-.3 3.8 0 7.7.5 11.5.2 4.1-.3 8.3-1 12.4-1 3.8 0 7.7.7 11.5.7" class="b"/><path d="M13.2 99.1c2.7.1 5.7 0 8.2-1.2 1.3-.6 2.7-1.5 4.1-1.7 1.9 0 3.9.4 5.8.2q3.1-.6 5.8-2.7c2.9-1.9 6-6.3 9.8-4 1.4.7 2.7 1.9 4.2 2.6 2.3 1 5 1.4 7.4 2.5 3.8 1.8 6.4 3 10.7 2.1q2-.4 4.1-.6 3 .2 5.8.5c5 .2 9.8 2 14.8 2.3 2.3.3 4.5-.7 6.6-1.3 2.8-.8 5.6.4 8.3.8 3 .4 6-.8 9-.5 2 .2 3.9.8 5.8 1h9.9c3.3.1 6.6-.8 9.9-.8s6.6 1 9.9.8c3.8-.3 7.6-1.5 11.5-1.5 4.7-.2 9.4.8 14 1" class="b"/><path d="M13.2 97c2.7 0 5.6 0 8.2-1.2 1.6-.6 3.2-1.7 5-1.8 2.1 0 4.4.7 6.5.6s4.2-.8 5.8-2c2.6-2 5.5-5.4 9-3.7q2.5 1.2 5 1.7c7.5.8 9.7 6 17.3 4.3 4-1.2 8.4-1.2 12.4 0 3.2 1 6.5 2 9.9 2q2.5.1 5-.3 2.4-.7 4.9-1.2c3-.5 6 .5 9 .6 2.8-.2 5.6-.8 8.3 0q5.7 1.5 11.5.8 3-.2 5.8-.5 2.9-.4 5.8-.4c3.6 0 7.1 1.2 10.7 1 3-.1 6-1.5 9-1.6q3.8.2 7.5.5 4.5.1 9 .1" class="b"/><path d="M13.2 94.8q3.7.2 7.4-.6c2-.4 3.8-1.5 5.7-1.8 2.5-.2 5 .9 7.5 1a8 8 0 0 0 5.7-1.6c2.5-1.7 5-4.5 8.3-4q2 .6 4 .8c4.8 0 7 1.5 10.8 3.7 6.8 3.6 11.6-1.8 18.2-.2 2.5.7 4.8 2.2 7.4 2.5 3.5.5 7.2-.1 10.7-.5 2.7-.4 5.5-1 8.2-.8l4.2.6h4.9c2.5 0 5 .6 7.4.8q3.4.3 6.6-.4 2.9-.4 5.8-.5c5.5-.5 11 .9 16.5 1q3.8-.1 7.4-1.3c3-.7 6 .4 9 .5 3.4.2 6.7-.7 10-1.1" class="b"/><path d="M13.2 92.4q3.7.1 7.4-.2c1.9-.2 3.8-.9 5.7-1.2 2.5-.2 5 1 7.5 1.1q3 .6 5.7-.8c5-3.2 5.1-4.9 11.6-4.8 5.7-.6 7.7 2.4 12.3 4.5q3.6 1.5 7.5.7c5.3-1.2 7.8-3.9 13.1-.6 3.5 2 6.2 1.5 10 1q2.8-.2 5.7 0l5-.4c2.4-.2 5 .3 7.4.6l9.9.3c3.8.1 7.6-1.4 11.5-1 7.2.1 14.3 1.3 21.4 1 2.2 0 4.5-.8 6.6-1 3.3 0 6.7.7 10 .2 2.4-.5 4.9-1.6 7.3-2.1" class="b"/><path d="M13.2 89.8c2.4 0 5 .4 7.4.3 2.1 0 4.4-.5 6.6-.5q2.4.2 5 .7 2.8.3 5.7.1c3-.2 5-2.6 7.4-4.1q2.3-1.4 5-1.9c5.3-1.5 8 3 12.3 4.8q4 1.5 8.3.7c2.8-.6 5.4-2.2 8.2-2.7 1.8-.2 3.5.8 5 1.7 3.2 2 5.5 1.6 9 .8q2.5-.2 5 .2c3 .4 6 0 9 .3a67 67 0 0 0 18.2-.7 19 19 0 0 1 8.2.2q4 .3 8.3.5 7.4.3 14.8.2 2.4-.1 5-.4 3.3 0 6.5-.2c3.9.1 7-2.5 10.8-3.2" class="b"/><path d="M13.2 87.1q2.8.5 5.7.8 3.8.1 7.4-.1c2 0 4 .5 5.8.5l4.1-.2 3.3.2c2.3-.3 4.1-2 5.8-3.3q2.3-1.8 5-2.9c4.3-1.8 7.4 2.7 10.7 4.8 3 1.5 6.6 1.5 9.9.8q2.4-.9 5-1.9c1.4-.6 3.2-1.2 4.9-.7 2.5.9 4.6 3 7.4 3.2 1.9 0 3.8-.7 5.8-.8q2.4.2 4.9.6 2.9.2 5.8.2 3.7.1 7.4-.4t7.4-.4c2.8 0 5.5-1 8.3-.8 2.2.3 4.3 1.2 6.5 1.4q5 .2 10 0c5.4 0 11 .4 16.4 0q4.6 0 9-1c3-1 5.8-3.3 9.2-3" class="b"/><path d="M13.2 84.9q6 1 12.3 1c3 0 6 .4 9 0 2.5-.4 5.1.7 7.5-.1 3.8-1.4 6.5-5.4 10.7-5.7 4.6.3 6.6 5.9 11.6 5.8q3.7.4 7.4-.8 2-.9 4.1-1.5c1.8-.7 4-1.1 5.8-.3 2.4 1 4.6 3 7.4 2.8 1.6 0 3.3-.4 5-.3q7 .8 14-.2c1.6-.2 3.2-1 5-1.3 3.2-.3 6.5.7 9.8.6q2.5-.4 5 0c1.8.4 3.8 1.1 5.7 1.2h19q6.1.2 12.4-.1 3-.3 5.7-1.8c2.6-1.8 5-3 8.3-2" class="b"/><path d="M13.2 82.5c5.4.6 11 1.4 16.4 1.4 3.3 0 6.7-.7 10 0q4.3.4 8.2-1.8c4.1-2.1 6.5-3.7 10.7-.6q1.6 1.2 3.3 1.9 3.7.8 7.4.1c2.5-.5 5-1.5 7.4-2q3.9-1.5 7.5.6c3.3 2 5.3 2 9 1.8q5.9.2 11.6-.8 2.5-.5 5-1.8 2-1.7 4.9-1.1c2.2.5 4.3 1.7 6.6 2.2 1.5.4 3.3.3 4.9.5 3 .4 6 1.5 9 .8q4.6-.8 9.1 0 3.8.3 7.5.2h9.9c2.1-.1 4.4.2 6.5-.2 4.4-1.2 5.6-3.8 10.8-2.4" class="b"/><path d="M13.2 79.9c3.8 0 7.6 1.2 11.5 1.6 4.1.5 8.2 0 12.4-.1 3.8 0 7.7.8 11.5 0 2.5-.4 4.8-2 7.4-2 2.4 0 4.3 1.7 6.6 2 4.4.7 8.9-.3 13.2-1.2 1.9-.4 3.8-1.2 5.8-1.2 2.3 0 4.4 1.6 6.6 2.3 4.6 1 9.4 0 14-.7q4-.7 7.4-3c2.3-2 4-2 6.6-.5 2 1.3 4.2 2.9 6.6 3.5l4 .6q2.6.5 5 .6c2.8-.2 5.5-1.7 8.3-1.6s5.4 1.3 8.2 1.4c4.7.5 9.4-.2 14-.6 2.5-.3 5 .8 7.5.8 1.3 0 2.8-.6 4-.9a21 21 0 0 1 5-.4" class="b"/><path d="M13.2 77c2.8-.3 5.5.6 8.2 1.4q3.2 1 6.6 1.1c6.6.3 13.2-1.2 19.8 0q2 .2 4 0 2.6-.7 5-1.2c2.3 0 4.4 1 6.6 1.1q7.1.5 14-1.1c10-4 7.5 2 18.2.7l8.2-1.6c2.8-.6 5.1-2.3 7.4-3.9 2.6-1.6 5.4.6 7.5 2.1q2.5 2.1 5.7 3c3.7.8 7.2 1.7 10.7-.1 1.8-.8 3.8-1.6 5.8-1.3 2 .2 3.9 1.3 5.8 1.8 4.3 1.1 9 .4 13.2-.8 6.1-2.1 6-.4 11.5 1.2 2.4.4 5 0 7.4-.2" class="b"/><path d="M13.2 74c4-1.3 7.6 2.2 11.5 2.9 5.4 1 11 .4 16.5-.2q3.7-.7 7.4.1 1.6.5 3.3.6 2-.1 4.1-.5c2-.4 4 0 5.8.3q2 .3 4.1.2 5.4.1 10.7-.5c2.3-.5 4.4-1.7 6.6-2 1.7-.4 3.4.3 5 .8q2.3.8 5 .6c2.2 0 4.4-.9 6.5-1.3 3-.3 6.3-.3 9-1.8 4.9-2.9 6-3.2 10.8.3q3 2.3 6.6 3.4 2.9 1 5.8.1c2.4-1 4.6-3.2 7.4-3 3 .3 5.3 2.6 8.2 3.1q5 1 10-1c2.1-.7 4.3-1.8 6.5-2.5 5-.7 7.4 4.4 14.8 3.8" class="b"/><path d="M13.2 71.4c4.1-2.3 7.6 2.4 11.5 3.2q4.1.8 8.2.6 3.7.1 7.5-.5c2.4-.5 5-1.2 7.4-.6 1.6.3 3.3 1 5 1.1 1.8 0 3.8-.6 5.7-.6q2 .1 4.1.4 3.3.3 6.6.2c3.8 0 7.9.3 11.5-1.1 5.2-2.1 5.1-.7 10-.7 3.1 0 6-2 9-2.3q2 .1 4.1.5c6.9 1.1 8.3-4 13.2-1.8 3.5 1.9 6.5 5.3 10.7 5.4 4.8.4 6.7-5.7 10.8-4.7 2.4.7 4.3 2.7 6.5 3.8 3.1 1.2 6.8 1.2 10 .2q3.2-1.2 6.5-2.6a10 10 0 0 1 5.8-1c4.1.7 7.3 4.1 11.5 4.3" class="b"/><path d="M13.2 70.2c4-2.8 7 0 10.7 1.6q3.1 1 6.6 1.2 4.5.2 9-.3c2-.3 3.9-.9 5.8-1 2.3 0 4.4 1 6.6 1.3 1.6.2 3.3-.3 5-.6 3-.4 6 .6 9 .5l8.2.1q3.8.2 7.5-.7 2-.7 4-1.2 2.7.2 5-.6 2.7-.9 5-2.3c1.2-.7 2.7-1.5 4.1-1.2 3.3.9 6.3 3.1 9.9 2 1.4-.3 2.7-1.3 4.1-1.5 2.2-.3 4.2 1.1 5.8 2.3 3.4 2.8 7.8 5 11.5 1.3 1.7-1.4 3-3.6 5-4.7 2-.6 3.6 1.5 5 2.6a14 14 0 0 0 4.9 3.4c3.2.7 6.8 1 9.9-.2 3.5-1.7 7.5-3 11.5-2.7q3 0 5.8 1.2c1.8 1 3.7 2.1 5.7 2.3" class="b"/><path d="M13.2 69.6c2-1 4.2-2.3 6.5-2 1.7.1 3.4.9 5 1.4 2.4.6 4.9 1.6 7.4 1.8 4.5.4 8.8-1.2 13.2-1 2.2.1 4.4 1.1 6.6 1 2.5 0 4.9-1.2 7.4-1 4 .7 8.3.7 12.4 1 4.1.1 8.4.5 12.4-1q2-.6 4-1c2.2-.4 4.1-1.7 5.8-3 1.3-.8 2.6-2 4.2-2.2 1.4 0 2.9.9 4 1.6q2.4 1.6 5 2 2.2.3 4.2-.6 2-1 4-.5c2.2.7 4 2.5 5.8 3.6 2.3 1.3 5.2 1.7 7.5.2 1.6-1 2.9-2.7 4-4.2 1.3-1.3 3-4 5-2.7 2.4 1.8 4 4.5 6.6 6q2 1.1 4.1 1.3c1.6.2 3.4.7 5 .6 3.1-.2 5.8-2.5 9-2.2l10 .4c2.1.5 4.3 1.6 6.5 1.7" class="b"/><path d="M13.2 68.5c2.3-.6 4.3-2.2 6.5-3s4.5-.2 6.6.4c1.4.5 2.8 1.5 4.2 2 4.7 2.2 9.9-1.2 14.8-.2 2.2.3 4.4 1.2 6.6 1 1.9-.4 3.8-1.2 5.8-1.3 1.9-.1 3.8.5 5.7.6 4.7.2 9.4.8 14 .7q4.2.2 8.3-1.2c3.3-.5 6.2-2.2 9-3.9q3-1.9 5.8 0c2 1.1 4.2 2.4 6.6 2.6 2 .2 4-.4 5.8-1 5.2-.8 8 6 14.8 2.5 2-1 3.5-3 5-4.7 1.2-1.4 3-3.8 5-2.4s3.6 3.5 5.7 4.9c1.6 1.2 3.8 1.5 5.7 2 1.6.4 3.3 1.1 5 1.2 2.8 0 5.3-1.7 8.2-1.2q5 .4 10 .4c2.1.2 4.3.8 6.5.8" class="b"/><path d="M13.2 66.5c5.6.8 8.8-7.3 14.8-2.8 6.2 5.2 8.9 1.5 15.7 2 2.4 0 4.9 1 7.4.8 2.2-.2 4.4-1 6.6-1.2s4.4.5 6.6.6l9 .6h5q3.7.2 7.4-.5c3.3-.7 6.6-2 9.9-2.7 2.3-.5 4.5.6 6.6 1.3q4 1.4 8.2.9c1.3-.2 2.8-.7 4.1-.7 2.3 0 4.5 1 6.6 1.5 6.2 1.3 9.1-3 13.2-6.6 2.2-1.8 4.6 0 6.6 1q3.5 2.3 7.4 3c3 1 5.8 3.3 9.1 2.8 3.3-.7 6.6-.3 9.9-.1q5.8.1 11.5.1" class="b"/><path d="M13.2 63.7c6.7 3.1 8.6-6.6 14.8-2 5.3 4.3 8.9 2 14.8 2.1 3 0 6 .8 9.1.4 2.2-.2 4.4-.9 6.6-1q2.4.1 5 .5 7.3 1 14.8.4c2.7 0 5.5.5 8.2 0 3.5-.7 7.1-1.5 10.7-1 2.8.2 5.5.9 8.3 1h5.7c1.6-.1 3.4-.5 5-.4 4.1.3 7.7 1.6 11.5-.8 3.6-1.8 6.3-6.7 10.8-5.6q3.3.6 6.5 1.7 2.7.7 5 1.7c2.8 1.6 5.6 3.8 9 3.6q10 .2 19.8-.2" class="b"/><path d="M13.2 61c4 2 5.3 1.2 9-1q2.5-1.1 5 0c5 3 10.1 2 15.6 2q4.5.2 9.1.1c2.8-.2 5.5-1 8.2-1.2 2 0 4 .6 5.8.8q4.5.5 9 .4c3.4-.3 6.7.1 10 0 2.4-.2 4.9-1 7.4-1q5.3.5 10.7 1 4.5.1 9 0h10c4.8 0 8.3-3.9 12.3-6 1.8-.8 4-.6 5.8-.3q5.5 1 10.7 2.9c2.8 1 5.3 2.8 8.3 3.3q4.9.3 9.9 0 4.9 0 9.8-.3" class="b"/><path d="M13.2 58.7c6.2 2.9 6 .1 11.5-.4 2.2.2 4.3 1.3 6.6 1.5q7.4.4 14.8.2c2.7 0 5.6.2 8.3-.3 2.4-.4 4.9-1.7 7.4-1.4q3.7 1 7.4 1.4 7 .5 14 .2c2.5 0 4.9-1.5 7.4-1.5 2.8 0 5.5 1 8.3 1.3q5.3.5 10.7.1c4 .1 8.3.4 12.4 0 2.6-.2 5.1-1.4 7.4-2.8 2.7-1.7 5.8-3.4 9-2.5 3.1.5 6 1.7 9.1 2.3q3 .3 5.8 1c1.9.5 3.8 1.4 5.8 1.8 3.2.6 6.6.3 9.9.3q4.9.2 9.8-.4" class="b"/><path d="M13.2 56.8c5.5 2.3 6.5 0 11.5-.3 2.2 0 4.4 1 6.6 1.1q5.8.3 11.5.2c4.7-.2 9.6.7 14-1 4-1.7 5.1-1.2 9.1-.1q3.7.7 7.4.9 4.6.4 9-.2c2.7-.3 4.8-2.4 7.5-2.4 2.6 0 5 1.5 7.4 2.1 4 1 8.3.7 12.4.4 5.2.2 10.6.8 15.7-.6 2.5-.7 4.9-2 7.4-2.8q3.3-1 6.6.2 3.2 1 6.6 1.7c2.1.3 4.4 0 6.5.2 2.5.2 5 1.1 7.5 1.4q4.9.3 9.9.2 4.5.2 9-.4" class="b"/><path d="M13.2 55c4.5 1.6 7.2-.2 11.5-.7 2.5 0 5 1 7.4 1.2q8.3.3 16.5.1c2.8.1 5.7.1 8.2-1.2 1.3-.6 2.7-1.4 4.2-1.5 2.2.1 4.4 1.3 6.5 1.7q4.5.8 9.1.7c4.5 0 7.1-1.5 10.7-3.9 3.6-1.8 6.8 1.8 10 3q3.1 1.2 6.5 1.2l6.6-.2a93 93 0 0 0 18.1-.9q3-.8 5.8-1.1c2.5-.1 5 1 7.4 1.2q4.5.6 9.1.1c3 0 6 .8 9 1l19-.1" class="b"/><path d="M13.2 53q2.8.7 5.7.4c2.2-.3 4.4-1 6.6-1.2 2.5 0 5 1 7.4 1 6 .4 12.1.1 18.2.3 2.6.2 5-1 7.4-2.2 3-1.6 6 .5 9 1.1q5 1 10 .2c7.9-.8 9.6-8.3 15.6-3.9 2 1.5 4 3.5 6.6 4.1 3 .9 6 .7 9 .5h17.4q4.1-.2 8.2-.4c3.6.2 7.2.7 10.7.5l6.6-.3q3 0 5.8.3 7 .1 14-.2 3.8-.3 7.4.2" class="b"/><path d="M13.2 50.5q4 1.2 8.2.6c2.1-.4 4.4-1.1 6.6-.7 5.4 1.1 11 .8 16.5.9 3-.1 6 .3 9-.3 2-.5 3.8-1.5 5.8-1.9 3.1-.4 6 1.3 9 1.5q3.4.2 6.7-.5 3.8-.4 7.4-1.9c4.5-2 6.9-5.5 11.5-1.2 2 1.7 4 3.6 6.6 4 4.6.6 9.4-.1 14 0 2.8-.2 5.6.3 8.3.3q7-.1 14 0 5.3-.6 10.7 0h12.4q5.3-.1 10.7-.6a34 34 0 0 1 8.2 0" class="b"/><path d="M13.2 47.7c2.8 1 6 1.7 9 1.3 2.2-.3 4.4-.8 6.6-.4 4.6.7 9.4.4 14 .5 4.4 0 9 .3 13.2-1 4.1-1.1 8.2.7 12.4.5q3.4-.2 6.6-1.4l5-1q3-.4 5.7-1.6c3.3-1.8 5.4-1.5 8.2 1 1.7 1.4 3.5 3.1 5.8 3.4 3.3.3 6.6-.1 9.9-.2q3.3-.1 6.6-.1c2.4.2 5 .7 7.4.2 3.5-.8 7.2-.2 10.7-.3 3-.2 6-1.8 9-1 2.3.4 4.5 1.2 6.7 1.4q4.5.2 9 0c4.4.3 8.9-.3 13.2-.7 2.2-.3 4.4-.8 6.6-.7" class="b"/><path d="M13.2 45.2a23 23 0 0 0 8.2 1.7c1.9 0 3.9-.4 5.8-.3q5.7.5 11.5.3h11.5c2.5-.2 5-.7 7.5-.6 4 .2 8.3 1 12.3 0 2.8-.9 5.3-2.9 8.3-3 3 0 6.2 0 9-1.1 4.4-1.3 6.9 3.9 10.8 4.6 2.1.3 4.4-.2 6.6-.2h6.5q3.4-.2 6.6 0 2 .4 4.2.3 2.8-.5 5.7-.8c5-.2 6.7.7 11.6-1.6q3.7-1.3 7.4.5c4.4 2.3 7.6 2 12.4 1.9h5.7l7.4-.7c2.2-.3 4.4-1 6.6-1" class="b"/><path d="M13.2 43.3q3.6 1.3 7.4 1.5 2.9-.2 5.7-.4l5 .3H37q6 0 12.3-.2c4.7-.2 9.4.3 14 .3Q67 45 70 44c2.6-1 4.6-3.4 7.5-3.4 2.2 0 4.4.7 6.5.8 1.7.1 3.4-.7 5-.4 2.7.7 4.7 3.2 7.4 3.7 2.5.2 5-1.2 7.4-1.1q3.4.2 6.6.5 4.6.2 9 .6c3.4.3 6.7-.3 10-.5 2.4-.1 5 .1 7.4-.6l4.1-1.8a7 7 0 0 1 5.8.3c5 3 6.7 2.8 12.4 2.5 2.1-.1 4.4.3 6.6.1 4.3-.3 8.7-1 13.1-1.2" class="b"/><path d="M13.2 41.6q3.1 1 6.5 1 3-.2 5.8-.5 3 .1 5.8.4h5q3.3-.2 6.5 0h5.8q6.6.2 13.2 0c2.4 0 5 .3 7.4-.3 2.9-.7 5.2-3.3 8.2-3 2.3.2 4.4 1.1 6.6 1.4 1.6.2 3.4-.4 5 0 2.7.6 5.3 2.8 8.2 1.7 2.4-1 4.8-2.4 7.4-2.2 2 .2 4 .9 5.8 1.2q3.7.8 7.4 1 9.5.7 19-.3c2.5-.6 4.8-2 7.4-2q2.2.2 4.1 1.4c2.8 1.6 6 1.2 9.1.8l3.3-.2q2.4.5 5 .6 2.8-.2 5.7-.5 3.8-.2 7.4 0" class="b"/><path d="M13.2 39.8q3.7.8 7.4.6l5.7-.3q5.8.5 11.6 0c2.7 0 5.5.4 8.2.3l11.6-.1c3.5 0 7.1.3 10.7 0 3-.2 6-2 9-1.7q3 .6 5.8 1.1 2.5.3 5 .1c2.4.1 5 1 7.4.4 3.3-1 6.2-4 9.9-3.5 2.8.5 5.5 2 8.2 2.8s5.5.7 8.3.6l6.5.3 7.5-.1c3-.1 6-1.3 9-1 1.4.3 2.8.9 4.2 1 3.6.4 7-1.3 10.7-1.5 2.2 0 4.3 1.5 6.6 1.6 1.9.1 3.8-.3 5.7-.3l6.6.2" class="b"/><path d="M13.2 37.7c4.6.7 9.3.5 14 .5 4.4.2 8.8-.2 13.2-.3q7 .2 14 0c4 .1 8.2.5 12.3.3q5-.2 10-.5 5.2.7 10.6.6 3.7.1 7.5-.5 3-.7 5.7-2.4c1.5-.8 3.2-1.6 5-1.5 3.6.2 6.4 3 9.9 3.8 3 .7 6 .2 9 .2q6.2.5 12.4.3l6.6-.2c1.9.1 3.9.5 5.8 0 2.5-.5 4.9-2 7.4-2.6 1.9-.5 4-1.2 5.8.1 2 1.4 4 2.8 6.6 2.8q4.9-.1 9.8 0" class="b"/><path d="M13.2 35q9 1.3 18 1 7.9-.5 15.8-.6 5.8-.2 11.5.6h12.4c4.6 0 9.3.2 14-.6 3-.2 6 .2 9-.2q3.5-.5 6.6-2c2.3-1 5-2 7.5-1 2.2.8 4.3 2.2 6.5 3 3.2 1 6.7.6 10 .6q7 .4 14 .2 4.1.2 8.2 0c4-.8 6.9-4.2 10.7-5.4 1.3-.4 3-1 4.1 0 2.6 2 4.7 5.3 8.3 5.4h9" class="b"/><path d="M13.2 32.3q2.8.4 5.7.6 3.8.6 7.4.7c6 .3 12.1-.4 18.2-.6 3.6-.2 7.2.4 10.7.8q4.1.1 8.2 0 5.9.2 11.6-.2c2.8 0 5.5-.9 8.2-1.6 4-1.2 8.3.1 12.4 0 3.1 0 6-1.5 9-1.9s5.7 1.5 8.3 2.5q3.2 1.1 6.6 1 5-.1 9.9.2h9c3.6 0 7.5.5 10.8-1.4 3.2-1.6 8.7-8 12.3-5.4 2 1.8 3.5 4.4 5.8 5.8 1.7 1 3.9 1 5.8 1h5.8" class="b"/><path d="M13.2 30q2.8.2 5.7.5 3.3.7 6.6 1 7.8.1 15.7-.5 2.8-.2 5.7-.1 3 .3 5.8.8c2.4.2 5-.2 7.4 0q8.3.4 16.5-1c4.3-1.1 8.7-3 13.2-2.8 2.5.1 5 .7 7.4.8 2.8.1 5.6-.7 8.3-.1s5.3 2.3 8.2 2.6c4.6.5 9.4-.1 14 .3q4.5.2 9 .2c3 0 6.2.2 9.2-.5 3.8-.8 6.7-3.8 9.8-6 7.4-5 7.1 4.7 14 6.2q4.5.5 9.1.2" class="b"/><path d="M13.2 28.4q2.8 0 5.7.2 3 .6 5.8.8 7.5.3 14.8-.3 3.4-.3 6.6-.3c2 0 3.9.6 5.8.7q2.4 0 5-.1l4.9.2c5.2-.3 10.6.2 15.7-1.4q4-1.3 8.2-2 2.8-1 5.8-1.4c3.8-.5 7.8.4 11.5 1.4q3 1.2 5.8 2.4c3.1 1.2 6.6.8 9.9.8q5.8-.1 11.5 0l5-.2q2.8.2 5.7.2 5.9.1 10.7-3.1c3.8-2.5 7.7-6.5 11.6-1.7 1.6 1.7 3.4 3.6 5.7 4.3 3.2.8 6.7.7 10 .6" class="b"/><path d="M13.2 27q2.8-.2 5.7 0 3 .1 5.8.4c6.9-.1 13.8.2 20.6-.7 2.2-.1 4.4.4 6.6.6h7.4q2.4-.2 5-.3c3.2 0 6.6.4 9.9 0 2.7-.3 5.4-1.2 8.2-1.6 8.8-.8 10.6-7 19.8-1.3 6.8 4.5 7.4 3 14.8 3.2h12.4c3-.3 6-.8 9-.3q4.6.4 9.1-.9 3.4-1.4 6.6-3.3c1.7-1 3.8-2 5.8-1.6 2 .5 3.4 2.3 5 3.4q3.2 2.5 7.3 2.5l6.6.3" class="b"/><path d="M13.2 25.1H23c2.8 0 5.5-.6 8.3-.6 3.3.1 6.6.7 9.9.7 2.2 0 4.4-.7 6.6-.8 1.6-.1 3.3.4 5 .6q4.9.6 9.8-.5c1.9-.3 3.9.2 5.8.5a37 37 0 0 0 12.3-.7q3.4-.4 6.6-1.3c3.2-1.2 6.4-4 10-2.8 3.7 1.6 7 5.8 11.5 4.9 1.8-.5 3.8-1.2 5.7-1.2q3.4.2 6.6.8l7.4.5c2.5.1 5-.7 7.5-.6a32 32 0 0 0 19-3.1c2-.9 4.5-1.5 6.5-.2s4.1 3 6.6 3.4c3.5.6 7.2.4 10.7.5" class="b"/><path d="M13.2 23q4.5.2 9-.2c2.5-.4 5-1.4 7.4-1.9q3.4-.5 6.6.7l5 1.2c2.8.8 5.5-.9 8.2-1q2.6.3 5 .8 3.7.5 7.4-.6c2.5-.9 5 .5 7.4.8q5.4.6 10.7-.2c2.5-.4 5-.5 7.5-1.2 2.4-.8 4.7-2.6 7.4-2.7 4.5.1 7.2 5.8 12.3 4 2.8-1.2 5.1-3.7 8.3-3.2 2.3.2 4.4 1.4 6.6 2q3.2 1 6.6 1.5 3 0 5.7-.3c4.1-.2 8.3.2 12.4-.2l6.6-.8q2.4-.7 5-1c2.8-.4 5.4 1.7 8.2 2 4 .6 8.3.2 12.4.3" class="b"/><path d="M13.2 20.8c3.5 0 7.3 0 10.7-1.4 2.6-1 5.3-2.7 8.2-2.4 2.3.3 4.4 1.7 6.6 2.4 2 1 4.3 1.8 6.6 1.2q2-.6 4.1-1c2.7-.3 5.5.7 8.3.4q2.5-.2 4.9-1.1c2.9-.5 5.4 1.6 8.2 1.8 3.6.4 7.2-.2 10.8-.5q2.4-.2 5-.5Q89 19 91.4 18q3.4-1.2 6.6.8c3.9 2.8 7.1 2.4 10.7-.7 1.2-1 2.6-2.4 4-3.1 3.5-1.6 6.4 1.6 9.2 3.2q3 1.6 6.6 2.3c4 .5 8.2 0 12.3 0q9 .3 18.2-.3c2.4 0 5 .7 7.4.5 4-.4 8.2 0 12.3 0" class="b"/><path d="M13.2 18.5q3.7 0 7.4-.7 3.5-1 6.6-2.9 3.7-2.3 7.4-.2c2.5 1.6 5.3 3.2 8.2 3.8 2 .4 4-.1 5.8-.6 3-.9 6-.4 9-1 2-.3 3.8-1.7 5.8-2 1.8 0 3.4 1.1 5 1.9q2.3 1.2 5 1.4l6.5-.3c2.2 0 4.5.3 6.6 0 4.6-.7 7-2.3 11.6 0 3.8 2 7.8-.3 10.7-3 1.7-1.5 3.4-3.5 5.7-4.1 4.8-.9 6.3 6.4 15.7 7.5 4 .5 8.3.3 12.4.3h19c3 0 6-.9 9-.9 2.7.1 5.5 1 8.2 1" class="b"/><path d="M13.2 16c6.5-.3 9.2 0 14.8-3.9 4.4-2.7 7 .8 10.7 2.6q5.6 3 11.5.9 3.5-.8 6.6-2c5.7-2.8 5.5-6.4 11.6-1.1 4 3.2 6.1 2.4 10.7 3q3.7 1 7.4.8c2.5 0 5-.9 7.4-.9 2 0 3.9.9 5.8 1 5.3.3 9.2-4 13.2-7 2.7-2 5-1.4 7.4.7 5.6 5.1 11 5.9 18.2 6.2q7.4.4 14.8-.2c3.5 0 7.2.6 10.7-.2 2.7-.5 5.5-1.3 8.3-.6 2 .5 4.3 1.4 6.5 1.1" class="b"/></svg>