<svg xmlns="http://www.w3.org/2000/svg" id="a" width="1920" height="2400" viewBox="0 0 192 240"><defs><style>.b{fill:none;stroke:#fff;stroke-miterlimit:10;stroke-width:.3px}</style></defs><path d="M0 0h192v240H0z" style="stroke-width:0"/><path d="M8.5 225.3H11c1.5-1.6 2.6-4.5 5.2-4.5 2.4.4 3.6 3 5.2 4.5h14.8c2.6-2 3.8-6 7-7.1 3.3-.3 6.4 1.4 9.6 1.7 2.9.4 5.9-.2 8.7-1q2.3-.4 4.4-1.6c2-1.2 4-3 6-4.2 9.8-6.1 10.8 3.3 20-6.8 2.8-2.6 5.7-7 9.7-7.5 9 1.2 15 18.8 19.1 26 1 .8 2.4.4 3.5.5h18.3c3.3-4.4 6.9-15 14-11q6.3 4.7 11.3 10.7c1.8.6 4 .2 6 .3h9.6" class="b"/><path d="M8.5 224.3c1 0 2.5.2 3.4-.4 3.2-4.8 5.6-3.7 8.8.4h16.5c1.8-2.3 3.3-5.4 6.1-6.6 1.4-.2 3 .3 4.4.7 4.7 1.7 8.9 2.8 13.9 1.4 2.7-.3 5-1.8 7-3.5 4.5-4 8.4-7.1 14.8-6 5.8-.3 9.8-7.8 14-11.4 9.8-10 19.8 18.6 23.4 25 1 .6 2.4.3 3.5.4h18.4c1.2-.5 1.8-2.5 2.5-3.6 1.5-2.3 3-4.8 5.3-6.5 3.3-2.6 7 .1 9.5 2.5q4.3 3.4 7.9 7.5c5.2.3 10.5 0 15.7.1" class="b"/><path d="M8.5 223.3h3.4q3.9-5.5 7.9-.1 8.7.1 17.4 0c1-.5 1.9-2 2.6-3 2.8-3.6 4.6-3.4 8.7-1.9 5.3 2.4 10 3.6 15.7 2 2.7-1.3 4.8-3.7 7-5.6 9.4-9 10.7-3 16.5-7.5 4.4-3.2 8.1-10.7 13-12.3 7-.4 12.1 11.5 14.9 16.7l3.5 7.3c.7 1.3 1.3 3.5 2.6 4.4h19.2q1.2 0 2.6-.3c2.6-4 6.2-12.3 12.2-10 2.9 1.4 5.3 4 7.8 6l3.5 3c.6.7 1.6 1.5 2.6 1.3h14" class="b"/><path d="M8.5 222.3h3.4c1.4-.9 2.6-2.5 4.4-2q1.6.5 2.6 1.7c.4.2 1.3.3 1.8.3H38c3.3-4.4 4.6-6.8 10.4-4.3 3.1 1.3 6.2 3 9.6 3.5 3.7.6 6.9.2 9.6-2.6 4-3.7 7.5-9 13-10.4 1.8-.4 3.8-.3 5.3-1.3 5.2-3.5 7.9-9.8 13-13.3 9.2-5 18.9 22.3 22.7 28.4h19.2q1.4.1 2.6-.4c2.8-4.3 6.8-12.6 13-9.2 3.1 1.8 5.8 4.4 8.8 6.5l2.6 2c.6.6 1.6 1.3 2.6 1h13" class="b"/><path d="M8.5 221.3h3.4q1-.1 1.8-.9 1.2-.6 2.6-.4c.8.3 1.7 1.1 2.6 1.3h17.4c1.7 0 2.5 0 3.5-1.5 2-2.4 3.7-3.8 7-2.7 3.3.9 6.3 3 9.5 4.2H66c5.4-4 8.5-11 14.8-13.6 1.8-.6 3.8-.6 5.3-1.9 3.4-2.6 5.9-6.4 8.7-9.7 1.4-1.6 3.1-3.5 5.2-4.3 5.4-1.4 10.7 7.7 13 11.6q3.3 5.9 6.2 11.7c1 2 2 4.6 3.5 6.2h20c1.4-1.2 2.3-3.4 3.5-4.8 3.7-5.2 7.4-7.6 13-3.1 3.6 2.8 7.8 4.8 11.4 7.5 1.6.7 3.5.2 5.2.4h7.8" class="b"/><path d="M8.5 220.3h4.3c1-.4 2.4-1 3.5-.6 1 .7 2.4.6 3.5.6H39c1.2-.8 2.2-2.3 3.4-3 2.8-1.7 6.2-.1 8.7 1.1l3.5 1.9h13c1.1-.4 2-1.7 2.7-2.6 3.2-3.8 6-8.3 10.5-10.8 1-.6 2.4-.8 3.4-1.3q1.5-.7 2.6-1.9c4.3-3.8 8-11.4 13.1-13.4 5.9-1 12.2 10.2 14.8 14.6 1.8 3 3.6 6.5 5.2 9.7l1.8 3.3c.2.6 1 2.1 1.7 2.4h12.2c2.2-.2 4.8.2 7-.3 2.8-3.8 5.9-10 11.3-10 2.6.2 4.9 2 7 3.4 4 2.4 8.6 3.7 12.2 6.8h10.4" class="b"/><path d="M8.5 219.3h31.3c1.2-.8 2.2-2 3.5-2.6 3.7-1.3 7.3 1 10.5 2.6h15.6c4-4.3 6.6-9.9 11.4-13.3 1-.7 2.4-1 3.4-1.6.9-.5 2-1.5 2.6-2.2 3.8-3.5 8.7-13.3 14-13.4 6.5 1.5 12.4 11.8 15.7 17.2l5.2 9.4c.7 1.1 1.3 3.3 2.6 3.9h17.4c3.3-4.6 7.4-12 14-10.2 2.8.8 5 3 7.8 3.9s5.5 1.5 7.8 3c1.6 1 2.8 2.5 4.4 3.3h7.8" class="b"/><path d="M8.5 218.3h32.2c.5-.2 1.4-.7 1.7-1a8 8 0 0 1 4.4-1.2c2.2 0 4.3 1 6 2.2h17.5c1.5-1.1 2.4-3.2 3.5-4.6 1.8-2.7 3.7-5.6 6-7.9q2.1-1.7 4.5-2.7 2-1.6 3.4-3.5c3.2-3.4 8.6-13.8 14-11.9 7.3 4.3 12 12 16.5 19l4.4 7.7c.7 1.2 1.3 3.2 2.6 3.9h9.6c2-.2 4.1.3 6-.3 4.2-5.7 9.5-13.4 17.5-9.2 1.4.6 2.8 1.6 4.3 2 2 .4 4.2.4 6.1 1a15 15 0 0 1 5.3 3.3c1.1 1 2 2.5 3.4 3.2h6.1" class="b"/><path d="M8.5 217.3h34q2.4-1.6 5.2-1.5c1.8 0 3.5.9 5.2 1.5h18.3c1.4-1.3 2.4-3.5 3.5-5q2.2-4 5.2-7.4c1.1-1.4 2.9-2.3 4.4-3.3 2-1.6 3.6-4 5.2-6 2.6-3.3 5.8-9.2 10.4-9.5 2.5.3 4.3 2.4 6.1 3.9q7.5 7 13.1 15.8c2.5 3.6 4.2 8 7 11.5h13c1.7-1.4 2.9-3.7 4.4-5.2 4.3-5.1 9.2-7.6 15.7-4.7q1.3.7 2.6 1c1.4.4 3 .2 4.4.3 5.5-.3 9 4.7 12.1 8.6h5.3" class="b"/><path d="M8.5 216.3h35.7q2.2-.8 4.3-1c1.8-.2 3.5 1 5.3 1H72c2.5-4.2 4.8-8.7 7.8-12.5q1.8-2.1 4.4-3.7c4-3.8 6.4-9 10.4-13 2.9-2.7 5.7-3.2 8.7-.2a125 125 0 0 1 15.7 16.6c2.8 4 4.9 8.6 7.8 12.5q1.3.4 2.6.3h4.4c1.4-.2 3.1.3 4.4-.5 2.2-2.6 4.2-5.7 7-7.9 3.2-2.9 7.9-4 12.1-2.8 1.4.3 3 1 4.4 1.2q2.2.1 4.3-.4c6.4-.8 9.8 6 13 10.3h4.5" class="b"/><path d="M8.5 215.3h37.4c1.1-.1 2.4-.7 3.5-.7q1.8.1 3.5.7H72c1.2-.9 2-2.8 2.6-4 1.6-2.8 3.3-6 5.3-8.7 1-1.6 2.8-3 4.3-4.1 1.3-1.2 2.5-2.9 3.5-4.3 2.8-3.5 6.9-11.7 12.2-10.6 2.8 1 4.7 3.8 7 5.7 5.7 5.2 12 10.2 15.6 17.1 1.8 2.7 4.1 7.6 7 8.9h6.1c2.7-2.2 4.6-5.2 7-7.6 4.8-5.1 11.8-5.4 18.3-3.7 2.3.4 4.6-1.1 7-1 6 .3 8.6 8.2 12.1 12.3h3.5" class="b"/><path d="M8.5 214.2h39.2q1.6-.5 3.4-.5.9.1 1.8.5h16.6c1 0 2.5.3 3.4-.4 2.6-4.5 4.8-9.5 7.8-13.7q1.7-1.9 3.5-3.3 2-2.1 3.5-4.5c2.7-3.6 6.8-11.9 12.2-10 2 1 3.6 3.1 5.2 4.6 4 4.1 9 7.1 13 11.2 4.2 4 6 10 10.5 13.8 5.3 4.4 9.9-2.7 13.1-6.2 4.6-5 12-4.6 18.3-4 3.7.7 6.8-3.2 10.5-1.1 3.2 2 5 5.7 7 8.8 1 1.5 1.7 4 3.4 4.8h2.6" class="b"/><path d="M8.5 213.2h40q1.7-.6 3.5-.5c.4 0 1.3.3 1.7.5h14.8c1.4 0 3.1.3 4.4-.3 2.6-4.7 4.8-10 7.8-14.4q1.7-2 3.5-3.6c.9-.9 2-2.3 2.6-3.4 4.2-5.9 9.4-16.6 16.6-7.2q3 3.6 7 6.4c2.5 1.9 5.4 3.4 7.8 5.5 4.2 3.6 6 9.5 10.5 12.9 4.7 3.6 9.1-2.1 12.1-5.4 2.4-2.8 6-3.9 9.6-4q4 0 7.9-.2 1.7 0 3.4-.2c2.6-.7 5-3 7.9-2 5.6 2.8 7.4 11.5 11.3 16h2.6" class="b"/><path d="M8.5 212.2h40c.5 0 1.4-.2 1.8-.5q1.2-.4 2.6-.2c1 .3 2.2.9 3.5.7h13c1.1 0 2.5.3 3.5-.4 2.7-5 4.8-10.3 7.8-15 1.5-2.2 3.9-3.8 5.3-6 3.3-4.3 8.2-16 14.8-10.2 3 3.2 5.7 7 9.6 9.4 2.4 1.6 5.4 2.7 7.8 4.5 4 3 5.7 8.2 9.6 11.3 5 4.2 9.6-1.5 13-5 2.2-2.5 5.6-3 8.8-2.8q6.1.2 12.2-1c2.2-1 4.3-3.1 7-2.7 5.8 1.7 8.4 13.3 12.1 18h2.6" class="b"/><path d="M8.5 211.2h40.9c1.5-1 3.5-1.6 5.2-.7.7.4 1.8.9 2.6.7H72c1.3-.8 2-3 2.7-4.2q2-4.5 4.3-9l2.6-4.2c1-1.3 2.6-2.5 3.5-3.9 3.4-4 8.3-16.4 14.8-11.2 1.7 1.4 3 3.4 4.4 5q4.5 5.7 11.3 8c5.7 2 7 7.4 11.3 11 5.4 4.9 10.1-1 14-4.6 2.2-2.5 5.7-2.3 8.7-2q3 .5 6 0 3.1-.7 6.2-1.5c1.4-.8 2.8-2 4.3-2.6 7.2-3.3 11.2 15 14.8 19.2h2.6" class="b"/><path d="M8.5 210.2h40.9c1.9-1.3 3.9-2.3 6.1-1 .7.4 1.7 1.2 2.6 1h14c3.7-5.8 5.6-12.7 9.5-18.4 1-1.3 2.6-2.6 3.5-4 3-3.7 7.8-15.4 14-11 2 1.5 3.5 4 5.2 6.1 2.4 3.3 5.6 6.2 9.6 7.4 8.3 2 7.3 5.9 13 10.5 5.4 4.1 10.2-2 14-5.4 2-2 5.2-1.7 7.8-1.1q3 .7 6.1.2 3.6-.8 7-2.2c1.4-.9 2.8-2.2 4.3-2.9 7.3-3.2 11 16.7 14.9 20.8h2.6" class="b"/><path d="M8.5 209.2h40.9c3.6-2.8 5.1-3 8.7 0h12.2q1 .1 1.7-.4c3.6-6.1 5.7-13.1 9.6-19 1-1.3 2.6-2.6 3.5-4 3.1-3.9 7.8-15.5 14-10.4 2 1.8 3.5 4.5 5.2 6.7 2 2.8 4.5 5.6 7.8 7 2 .8 4.2 1 6.1 2 3.4 1.4 5 5.3 7.8 7.4 6.2 5 11.2-2.7 15.7-6 4.1-2.3 8.4 2.1 14 .2a50 50 0 0 0 6-2.5c1.5-1 2.9-2.4 4.4-3.1 7.4-3.2 10.9 18.3 14.8 22.1h2.6" class="b"/><path d="M8.5 208.2h40.9c.9-.4 1.8-1.5 2.6-2 2.5-1.8 5.2.1 7 2h12.2c3.2-4.9 5.2-10.7 7.8-15.9l2.6-4.6c.7-1 1.9-2 2.6-2.9 3.3-3.5 8-15.6 14-11.4 3.7 3 5.4 7.8 8.7 11.2 5.4 6.2 9.2 3.6 14 7.5 1.3 1.5 2.7 3.4 4.3 4.6 6 5.2 11.1-2 15.6-5.6 4.1-3.3 8.6 2.1 14 .4q3.6-1.4 7-3.3c1.4-1 2.7-2.5 4.3-3.2 7.3-3.3 10.9 20.3 14.8 23.2h2.6" class="b"/><path d="M8.5 207.2h38.3c1.1 0 2.5.3 3.5-.4 3.3-4.3 6.3-3.1 9.5.4h10.5c2-1.8 3-5 4.4-7.4 2.2-4.7 4-9.9 7-14.2.6-1 1.8-2 2.5-2.9.9-1 2-2.6 2.6-3.7 2.4-3.2 5.7-10 10.5-7.6 2.8 1.7 4.4 4.9 6.1 7.5 2.3 3.6 4.8 7.4 8.7 9.3 5.8 2.4 6.8.9 11.3 6.4 6.6 6.6 11.5 0 16.6-4.5 3.8-3.8 7.8.6 12.2.5a14 14 0 0 0 7-2.6c2.2-1 4-3 6-4.4 4.7-3 7.2 4.2 8.7 7.4 2.2 5.1 3.8 10.8 6.1 15.9 1 .5 2.4.3 3.5.3" class="b"/><path d="M8.5 206.2H45c1.7-.1 3.6.3 5.3-.3 3.9-5.1 6.4-3.4 10.4.3h8.7c2.6-1 6.4-11.3 7.9-14.3 1.2-2.8 2.6-5.9 4.3-8.4 1-1.3 2.6-2.6 3.5-4 2.2-3 4.1-6.5 7-9 5.2-4.2 9 3.7 11.3 7.4 1.7 2.8 3.7 5.8 6.1 8.1 2.1 2.1 5 3.2 7.8 4 2.6.6 4.4 2.7 6.1 4.5 4.9 4.5 9.2 1.6 13.1-2.4 2.2-1.9 4.5-5.3 7.8-4.6 4 1 7.2 3.3 11.4 1.2q3-1.6 6-3.7c1.7-1.3 3.2-3.2 5.3-3.6 6-.7 10.2 19.8 13 24.7q1.8.1 3.5.1" class="b"/><path d="M8.5 205.2h41.8c1.8-2.8 4.6-5 7.8-2.7 1.2.8 2.2 2.1 3.5 2.7h5.2q1.4 0 2.6-.3c5.4-7 7.4-16.1 12.2-23.5 1-1.3 2.6-2.5 3.5-3.8 2.7-3.1 6.3-11.4 11.3-9.5 3.3 1.8 5 5.6 7 8.7 2.4 4 4.9 8.3 8.7 11 2 1.6 4.7 2.3 7 3.4q2 1.1 3.4 2.8c6.2 6.3 11.2.2 15.7-4.3 2-2 4.1-3.7 7-2.6 3 1 6.4 2.6 9.6 1.1 2.4-1 4.7-2.8 7-4.3 1.3-1.2 2.7-2.7 4.3-3.4 4.8-1.7 7.3 7.4 8.7 10.6 1.7 4.5 3.2 9.6 5.3 14q1.6.1 3.4.1" class="b"/><path d="M8.5 204.2h41.8c4.4-6.6 7.2-4.3 12.2 0h5.2c3.9-3.1 5.7-8.4 7.8-12.7 2.5-5.1 4.3-11 8.7-14.8 3-3 7-12.3 12.2-10 4.6 2.8 6.7 9 9.6 13.4 2.3 3.6 5 7.4 8.7 9.7 2 1.2 4.3 2 6.1 3.5 7 7.5 11.2 2.3 16.6-3.4 1.8-1.9 4-4.4 7-3.6 3.4 1.1 6.8 3.1 10.4 1.3 2.5-1.2 4.7-3 7-4.6 1.3-1.2 2.7-2.7 4.3-3.5 4.8-1.7 7.3 7.3 8.7 10.5 1.7 4.5 3.2 9.5 5.3 13.8 1 .6 2.3.3 3.4.4" class="b"/><path d="M8.5 203.2h27c4.8-.1 10 .2 14.8-.1 1.4-2.1 3.3-4.8 6-4.7 3.7.3 5.9 4.9 9.7 4 5.8-2 10-15.2 13-20.7l2.6-4.3c.7-.9 1.9-1.8 2.6-2.6 2.1-2.4 4-5.4 6.1-7.7 6.4-6.8 11.2 4.2 14 8.9 2.9 5.1 5.8 10.6 10.4 14.3q3.1 2.2 6.1 4.3c5.6 5.9 9.6 2.7 14-2.4 2.3-2.3 5-7 8.7-6.5 4.5 1.2 7.4 4 12.2 1 2-1.2 4.1-3 6-4.5 1.6-1.3 3.2-3.3 5.3-3.8 6.7-.6 9.9 20.9 14 24.8h2.5" class="b"/><path d="M8.5 202.2h40q.9 0 1.8-.4c1.4-2.2 3.2-5 6-5.2 3.6-.1 6 4 9.6 3 6-2.3 10-14.5 13.1-20 .7-1.3 1.7-3 2.6-4.1 1-1.2 2.5-2.3 3.5-3.6 2-2.3 3.7-5 6.1-7 4-3.3 7.5.9 9.6 4.2q3.2 5.3 6 10.7c2.9 5 6 10 10.5 13.7 2 1.5 4 3.4 6.1 4.8 4.8 2.4 8.6-3.1 11.3-6.4 2.2-2.3 4.4-6.4 7.9-6.6 4.4.6 7.3 4.5 12.2 1.8 2.5-1.4 4.7-3.6 7-5.4 1.3-1.3 2.6-2.9 4.3-3.7 4.7-1.8 7.2 6.6 8.7 9.8 2 4.7 3.5 10 6.1 14.4h2.6" class="b"/><path d="M8.5 201.2h40.9c1.1-.6 1.8-2.3 2.6-3.2 1.1-1.4 2.6-2.9 4.4-3.2 3.6-.6 6.9 3.5 10.4 1.4 6-3.9 9.2-14 13-20.1 1.5-2.8 4.3-4.6 6.2-7 2-2.3 4-5.3 7-6.4 6.1-1.9 12.8 15.1 15.6 19.6 2.6 4.8 5.6 9.6 9.6 13.3 2 1.5 3.7 3.8 6.1 4.5 4.7.7 8-5.3 10.5-8.4 2-2.4 4.3-7 7.8-6.8 4.4 1 7.4 5 12.2 2.2 2.5-1.6 4.7-4 7-5.9 1.3-1.3 2.7-3 4.3-3.8 7.4-3.2 11 20 15.7 23.8h1.7" class="b"/><path d="M8.5 200.2h40.9c2.4-2.6 4-6.8 7.8-7.4 3.4-.3 6.3 2.3 9.6.3 7-4.7 9.5-14.9 14.8-21.2q2.9-2.6 5.3-5.4c2.2-2.7 5.8-6.6 9.5-3.8 4.4 3.6 7 9.1 9.6 14 4.4 8.3 8 17.7 15.7 23.5h6.1c4.6-2.8 9.6-16.6 14.8-15.6 2.8.7 5 3.1 7.8 3.6 3.2.5 5.8-1.9 7.9-4l6-6c6-5.7 9.4 5 11.4 9.2a66 66 0 0 0 6.1 12.4c.4.2 1.3.4 1.7.4" class="b"/><path d="M8.5 199.2h40.9c3-4 5.3-9.4 11.3-8.3 4 .9 7.1-.9 9.6-3.8 3-3.6 5.4-8 7.8-12 1-1.5 2.3-3.5 3.5-4.9 1-1 2.5-2.1 3.5-3.2 2.4-2.4 4.9-6.3 8.7-6 3.7.9 5.8 4.7 7.9 7.6 4.5 6.8 7.4 14.6 11.3 21.7 1.7 3 3.4 6.6 6 8.9h10.5q3.3-4.7 6.1-9.4c1.7-2.3 3.7-6.3 7-5.5 2.8 1 4.9 3.6 7.8 4.2 3.3.6 5.8-2.1 7.9-4.2l6-6.5c6.4-6.3 10 6 12.3 10.3q2.4 5.8 6 10.9l1 .2" class="b"/><path d="M8.5 198.2h40.9c2.3-3.4 4.4-7.9 8.7-9.1 1.7-.5 3.5-.3 5.2-.6 4.2-.8 7.2-4.1 9.6-7.4 3.7-4.9 6.4-10.9 11.3-14.7 2.9-2.5 6.1-7.3 10.5-5.5 4 2.2 6.2 6.7 8.7 10.3 3.3 5.6 5.8 12 8.7 17.8 1.6 3 3 6.6 5.2 9.2h13.1c2.7-3 7.4-16.2 12.2-14 2.8 1.2 4.8 4 7.8 4.7 3.4.6 6-2.4 7.9-4.6l6-7c6.6-6.6 10.7 6.8 13.2 11.2 1.4 3.4 4 6.3 6 9.3" class="b"/><path d="M8.5 197.2h40.9c2.4-3.6 4.6-8 8.7-9.7 1.6-.7 3.6-.8 5.2-1.4 4-1.3 7-4.2 9.6-7.4 2.7-3.3 5-7.1 7.9-10.4 1.5-1.7 3.6-3.1 5.2-4.8 3.9-3.8 7.3-5 11.3-.5a70 70 0 0 1 11.3 18.6l4.4 9.6 1.7 3.6.9 1.7.9.7q7.4 0 14.8-.1 2.4-4.8 5.2-9.5c1.3-1.9 3.4-5.1 6.1-3.7 2.7 1.6 4.7 4.5 7.8 5.4 3.5.7 6-2.6 7.9-5l5.2-6.4c6.3-7.7 10.3 2.2 13 7.3l2.7 4.7q2.1 2.7 4.4 5.4" class="b"/><path d="M8.5 196.2h40.9c8.8-14.2 9.6-7.8 20-16.2 5.8-5 9.4-12.2 15.7-16.8 2-1.6 4.3-3.6 7-3.3 4.5 1.1 6.8 6 9.6 9.4 4.2 5.4 6.7 12.1 9.5 18.4l2.7 5.8c.2.6 1 2.4 1.7 2.7h15.7c1.6-1.4 2.3-4.1 3.4-6 1.6-2.4 4.2-8.6 7.9-6.4 2.7 1.8 4.6 5 7.8 6 4.9.8 7.8-5.9 10.5-8.9 1.8-2.2 3.4-5 6-6 5-1.6 8.3 7.2 10.5 10.5 1.5 2.8 4 5 6.1 7.3" class="b"/><path d="M8.5 195.2h40.9c1-1 1.8-2.6 2.6-3.7q1.6-2.2 3.5-4.2 3.1-2.9 7-4.7 4.6-2.8 8.7-6.4c4.5-4.1 8-9.6 13-13.2 2.2-1.8 5-4 7.9-3 4 1.5 6.2 5.8 8.7 9 4.2 5 7 11 9.6 17 1.4 2.9 2.4 6.5 4.3 9.2h17.4c1.8-3 6-15 10.5-11.4 2.4 1.8 4.2 4.7 7 6 5 2.2 8-4.7 10.4-7.9 8.2-12.3 10.8-8.7 17.4 2 1.5 2.6 4 4.3 6.1 6.3" class="b"/><path d="M8.5 194.2h37.4c4.4 0 3.7.5 6.1-3.2 2.6-4 6.4-7.2 10.5-9.8 4.4-3.5 9.1-6.9 13-11 3-3.1 6-6.4 9.6-8.8 2.3-1.7 5.4-2.5 7.9-.7 3.7 2.7 5.8 7 8.7 10.5 5.7 6.5 8.4 15.2 12.1 23h18.3c2.5-2.5 5.6-14.5 10.5-10.5 2.4 2 4.1 5 7 6.6 4.6 2 7.4-4.1 9.5-7.2 4.8-7.1 8.8-14.7 15.7-4.3 1.6 2.2 3.1 4.8 5.2 6.6q1.9 1 3.5 2.3" class="b"/><path d="M8.5 193.2h41.8q4.2-6.7 10.4-11.7c5.4-4.9 11.3-9.2 16.6-14.3 8.2-7.5 12.4-12.2 20-.7q2 3.1 4.4 6 2 2 3.4 4.4c3.2 4.8 5.5 10.4 7.9 15.7l.9.5h16.5c.8 0 1.9.2 2.6-.3 8.5-18.1 8.6-7.6 16.6-2 4.1 1.9 6.8-3.5 8.7-6.3 2.3-3.6 5.2-10.1 9.6-11.3 3-.3 5.2 2.6 7 4.7 1.5 2 3 4.4 5.2 5.8l3.4 1.7" class="b"/><path d="M8.5 192.1h33c12.8-.2 6.7 1.8 14.9-7l9.6-9.4q5.1-4.4 10.4-8.7c2.5-2.2 5-4.6 7.8-6.4 4.4-2.9 7.8-.2 10.5 3.4 2.1 2.8 4 6.1 6 9 1.4 1.6 3.3 3.2 4.4 5 3.3 4.3 5 9.6 7.9 14.1h20c2.2-3.5 5.6-14 10.5-7.4 2.5 2.8 6 9.5 10.4 5.8 4.4-4.5 6.2-11 10.5-15.6 6-6.7 10.4 3.5 14.8 6.7 1.2.9 3 1.1 4.3 1.6" class="b"/><path d="M8.5 191.1H51c1.7-1.3 2.9-3.5 4.4-5l6.1-6.4q5.8-6.9 13-12.3l6.2-4.9c1.8-1.3 3.7-3 6-3.3 6-.2 10 10 13.1 14.2 1.4 2.2 3.7 3.9 5.3 5.9a69 69 0 0 1 7 11.8H133c1.1-1 1.9-3 2.6-4.3 1.1-1.6 2.3-3.9 4.4-4.4 3.1 0 5.9 6.7 8.7 8.6q1.3.2 2.6.1c.8 0 2 .1 2.6-.4 3.5-3.6 5.2-8.6 7.9-12.8 5.4-8.8 9-6.5 14.8.2 2.2 2.6 3.7 3 7 3.1" class="b"/><path d="M8.5 190.1H52c1.9-1.7 3.4-4 5.2-5.7q4.2-4.4 7.9-9.1c3.3-3.8 7.4-7 11.3-10l5.2-4c1.7-1.3 3.9-2.8 6.1-2.2 5.6 2 8.9 11.3 12.2 16 1.3 2.2 3.6 3.7 5.2 5.5q3.6 4.3 6.2 9.1c1.2.7 3 .3 4.3.4h14c1.4 0 3 .3 4.3-.3 1.4-2.4 4.3-9.4 7.9-6.7 2 1.9 3.4 4.5 5.2 6.6 1 .7 2.4.4 3.5.4 1.4 0 3 .2 4.3-.2 4.2-5.2 6.2-15 12.2-18 4.9-1.5 7.9 4.6 11.3 7 1.5 1 3.5.8 5.3.6" class="b"/><path d="M8.5 189.1h44.4c1.7-1 2.9-3 4.3-4.4q4.3-4.6 7.9-9.6 4.3-5 9.6-9.1l7-5.3c2-1.6 4.5-2.8 6.9-1.2 2.3 1.5 3.8 4 5.2 6.3q3 5.6 6.1 11c1 1.7 2.8 3.1 4.4 4.4q2.4 2.2 4.3 4.9c.8.9 1.4 2.6 2.6 3H134c5.5-8.8 6.4-8.6 12.2-.2 1.6.4 3.5.1 5.2.2 1.4-.1 3.2.4 4.4-.4 3.5-5.5 5-13 10.4-17 5.1-2.7 8.5 4 12.2 6.3 1.6 1.1 3.6.6 5.2.1" class="b"/><path d="M8.5 188.1h40c2 0 4.2.3 6.1-.2 2.3-2.6 4.9-5.2 7-8 2-2.6 3.8-5.5 6-7.9q7-7.5 15.8-13c5-2.5 8.3 4.1 10.4 7.7 2.3 4.2 4.2 8.9 7 12.8 1 1.5 3 2.5 4.4 3.7q2.3 2.1 4.3 4.7c1.7.4 3.5.1 5.2.2h15.8c1.3 0 3 .3 4.3-.3 4.3-7.2 6.2-6 10.4.3h10.5c3.7-5 4.8-12.1 9.6-16.5 5.1-4 9 3.6 13 5.9 1.6 1 3.6.3 5.3-.4" class="b"/><path d="M8.5 187.1h47c4.9-4.2 8-10.1 12.2-15q4.3-5.1 9.6-9.3c2.1-1.7 4.4-3.6 7-4.6 7-1.8 12.4 17.8 16.5 22.6 1 1.5 2.9 2.4 4.3 3.5 1.2.8 2.3 2.1 3.5 2.8h26.1c1-.5 1.8-2 2.7-2.7 3-3 5 .6 7 2.7h7.8c1.4-.1 3 .4 4.3-.4 2.7-4.6 5.6-16.2 11.3-17 5 .3 7 6.1 11.4 7.8 1.5.4 3-.4 4.3-1.1" class="b"/><path d="M8.5 186.1H52c5.2 0 4.4.9 7.8-3.2 3.2-3.7 5.6-8 8.8-11.6 4.3-5 9-10.2 14.8-13.4 8-3.2 13.3 20.2 18.3 24.8q1.2 1.1 2.6 1.9c.7.5 1.7 1.3 2.6 1.5h27.9q1.6.1 2.6-1.3c1.2-1.2 3-1.4 4.3-.1.6.7 1.7 1.6 2.6 1.4h12.2c3-5.2 4.2-11.8 8.7-16 5.4-3.8 9 4.6 13.1 6.9 1.7 1.1 3.7.1 5.2-.9" class="b"/><path d="M8.5 185.1H58c2.5-2 4.3-4.9 6.1-7.4q3.3-4.9 7-9.3 3.8-5 8.7-9c2.4-2 5.1-3.6 7.8-1 4.7 4.8 6.7 11.7 9.6 17.6 1.4 2.8 2.7 6.3 5.2 8.3 1.2 1 3 .8 4.4.8h30.5l1.7-.6c1.2-.2 2.4.8 3.5.6h14c1.3-1 1.8-3.5 2.6-4.9 1.4-3.3 2.8-7 5.2-9.7 5-5.2 9.4 3.1 13 6 2.1 1.8 4.1 1 6.2-.4" class="b"/><path d="M8.5 184.1h51.4c2.4-2.3 4.1-5.4 6-8q4.6-6.8 9.6-13.1c2.2-2.6 4.7-5.4 7.9-6.6 2-.6 4 1 5.2 2.5 4 5.3 6 11.8 8.7 17.7 1.2 2.5 2.2 5.7 4.4 7.5h55.7C160 180 162 169.3 168 169c4.6.8 6.6 6 10.4 8.2 1.7 1.1 3.8 0 5.2-1" class="b"/><path d="M8.5 183.1h53c4.3-5.3 7.6-11.3 11.4-16.9 3-4 9.5-15 14.8-8.6 5.8 7.3 7.7 17 12.2 25 1 .8 2.4.4 3.5.5h50.5c1.4-.1 3 .3 4.4-.3 2.7-6.4 6.5-19.3 14.8-10.3 1.9 1.8 3.6 4.2 6 5 1.7.4 3.2-.6 4.4-1.5" class="b"/><path d="M8.5 182.1h52.2q1.4 0 2.6-.3Q68 175 72 167.7c2.5-3.7 8.5-16 14-12.1 6 5 9.2 18.6 13 26l1 .5h58.3c1.3-1 1.8-3.5 2.6-4.9 1-2.2 2.4-4.7 4.3-6.2 5.3-3.4 9 4.4 13.1 6.3 1.8 1 3.8-.2 5.2-1.3" class="b"/><path d="M8.5 181h55.7c5-5.2 12-26.2 19.2-27 7.1.4 11.7 22 15.7 27h60c1.2-1.1 1.9-3.3 2.7-4.7 1.3-2.3 3.1-5.2 6-5.3 4.7.3 7 5.5 11.4 6.6 1.6.2 3-.8 4.3-1.7" class="b"/><path d="M8.5 180H65c.7-.1 1.4-1.3 1.7-2l2.6-5q3-5.9 6.1-11.8c3.6-6.3 8-12 13.1-3.1 4 6.8 6.3 14.7 9.6 22H160c2.6-3.6 4.8-10 10.5-7.5 4.8 2.2 7.5 7.5 13 3.2" class="b"/><path d="M8.5 179H66c.7-.2 1.4-1.5 1.7-2.2l2.6-5.3c2.4-5 4.7-10.4 7.8-15 5.4-7.8 9.5-.8 12.2 4.7q2.9 6.2 5.3 12.5c.7 1.6 1.4 4 2.6 5.4h62.7c1-.8 1.8-2.4 2.6-3.4 1.7-2 4.4-3.2 7-2.2 5 2 7.5 6 13 2" class="b"/><path d="M8.5 178h58.3c1.6-1.7 2.4-4.4 3.5-6.5 2-4.2 3.8-8.7 6.1-12.7 3.3-5.8 6.7-9.2 11.3-2.2 4.1 6.5 6.5 14 9.6 21 1 .8 2.4.4 3.5.5h56.6q2.7.2 5.2-.2c5.4-7.1 9.3-2 15.7-.9 1.9.1 3.7-.9 5.2-1.7" class="b"/><path d="M8.5 177h38.3c7 0 14 .3 20.9 0q3.5-7.7 7-15.3c1.4-2.8 2.9-6 5.2-8.1 7-6.8 14.8 19 17.4 23.4h67c4.3-3.8 9.2-.2 14-.3 1.8 0 3.6-1 5.2-1.8" class="b"/><path d="M8.5 176h59.2c4-6.5 6-14.4 10.4-20.7 4.1-6 7.8-1.4 10.5 2.9 3.4 5.6 5.7 12 8.7 17.9h81.9q2.2-.8 4.3-1.7" class="b"/><path d="M8.5 175h59.2c1.7-1.5 2.4-4.5 3.5-6.5 1.8-4 3.7-8.4 6-12.1 3.3-5 6-5 9.6-.4 4.4 5.7 7 12.7 10.5 19H180q1.8-.5 3.5-1.2" class="b"/><path d="M8.5 174h59.2c.8-.2 1.4-1.6 1.7-2.4l1.8-3.7c1.5-3.4 3.2-7.1 5.2-10.3 2.8-4.4 5.3-6.8 9.6-2.2 4.8 5.4 7.6 12.3 11.3 18.4q1.3.4 2.6.3h81l2.6-.9" class="b"/><path d="M8.5 173h59.2c.7-.2 1.4-1.6 1.7-2.3l1.8-3.5c2-4.1 4-8.5 7-12 2.8-3.3 5.1-1.8 7.8.8 3 3.1 5.5 7.1 7.8 10.8 1.4 2 2.5 4.6 4.4 6.3h81q2.2 0 4.3-.6" class="b"/><path d="M8.5 172h59.2c1.5-1.4 2.4-4 3.5-5.7 1.8-3.4 3.6-7 6-10 3.3-3.9 5.5-2.7 8.8.3 3.6 3.4 6.5 7.7 9.6 11.7 1 1.2 2 3 3.4 3.8h76.7c2.6-.1 5.3.2 7.8-.3" class="b"/><path d="M8.5 171h59.2c3.2-4 8.2-17.3 14-16.5 2.6 1 4.8 3.2 6.9 5.1 3.9 3.7 7.3 8 11.3 11.4q41.9.1 83.6 0" class="b"/><path d="M8.5 170h58.3c.7-.1 1.4-1.1 1.8-1.7q3-4.6 6-9c5.4-6.6 7.3-4.4 13.1-.1l9.6 7.4 3.5 2.3c.7.5 1.7 1.2 2.6 1.1h80.1" class="b"/><path d="M8.5 169q29.2.2 58.3 0c3.7-3.9 7.7-12.2 13-13.3 2.4-.2 4.2 1.8 6.2 2.9 4.7 2.8 9.8 5 14.8 7.5q1.4.6 2.6 1.4c.8.5 1.7 1.3 2.6 1.5h77.5" class="b"/><path d="M8.5 168H66c4.3-3.6 7.3-10 13-11.6 2-.4 3.7.7 5.3 1.7q2.9 1.7 6 2.5c7.4 2 11.8 1.5 17.5 7.4h75.8" class="b"/><path d="M8.5 167H65c4.8-3 8.5-10.2 14.8-10.2 1.6.1 3 1.1 4.3 1.9q3.4 1.5 7 1.4c9.8-.3 11.5-.7 18.3 6.9h74" class="b"/><path d="M8.5 166h55.7q2.8-1.7 5.2-3.8c3.2-2.6 7-6 11.4-4.8 1.7.5 3.3 1.9 5.2 2.2 2.6.5 5.3-.2 7.8-.9 9.8-3.1 11.3 1 17.4 7.3h72.3" class="b"/><path d="M8.5 165h54c6.2-1.8 11.1-9.3 18.3-7.1 2 .7 3.8 2.1 6 1.9 5.3-.3 9.5-5.2 14.9-4.8 4.7.8 7.7 7.3 11.3 10h70.5" class="b"/><path d="M8.5 164h48.7q2.2.1 4.4-.1 2.7-1.1 5.2-2.4c3.7-2.1 7.8-4.6 12.2-3.7 3.2.5 5.3 3 8.7 1.8 3.3-1 6-3.5 8.7-5.4 2.3-1.5 5.4-3 7.9-1.1 3.8 2.9 6.3 7.2 9.6 10.7 2.8.5 5.8.1 8.7.2h60.9" class="b"/><path d="M8.5 163H58q1.4 0 2.6-.2 2.1-1.2 4.4-2l4.3-2c12.5-5 12.8 5.4 21-1 3.5-2.5 6.2-6.6 10.4-8.1 3.5-1 5.9 2.7 7.8 5l4.4 5.6c.7.9 1.6 2.2 2.6 2.7h68" class="b"/><path d="M8.5 162H59c1.2-.2 2.3-1.3 3.5-1.7l4.3-1.7c15.8-6 15 8.2 25.3-3 2.8-2.9 6.2-8.5 10.4-8.8 3.6.7 5.7 5 7.9 7.5q2.7 4 6 7.7h67.1" class="b"/><path d="M8.5 161H59c2-1.8 4.5-2.7 7-3.5 3.3-1.1 7-1.6 10.4-.6q2.8.9 5.2 2c1.3.7 2.9 1.4 4.4.9 5.6-2.4 8.6-9.7 13-13.7q3.7-3.5 7 0c2.3 2.5 4.2 5.5 6.1 8.2q2 2.8 4.4 5.4c1 1.3 1.9 1.4 3.5 1.3h63.6" class="b"/><path d="M8.5 158.6c.3.4 1.2 1.1 1.7 1.4h47q1 .1 1.8-.5 3.5-2.8 7.8-3.6c4.1-1.1 8.5-.3 12.2 1.5 2 .8 3.9 2.4 6.1 2.2 5.2-1.2 9-9.4 12.2-13.4 5.4-7.3 7.9-4.2 12.2 1.9 2.6 3.7 5.1 7.9 8.7 10.9 1.3 1.4 3.4 1 5.2 1h60.1" class="b"/><path d="M8.5 155.7c3.6 4.1 2.5 3.2 7.8 3.3h41.8c3.4-3.4 8.4-4.9 13-4.6 3.5.3 6.7 1.9 9.7 3.4 3.7 2.2 6 1.5 8.7-1.6 3-3.5 5.2-7.8 7.8-11.5 4.4-6.5 6.8-6.8 11.3-.2 4.3 5.7 8.2 14.6 16.6 14.3q7.4.3 14.8.2h43.5" class="b"/><path d="M8.5 153.1c1.4 1.5 2.5 3.8 4.3 4.9h43.6q1.6.1 2.6-1a16 16 0 0 1 13-3.6c3.5.7 6.5 2.6 9.6 4.2 1 .6 2.4.3 3.5.4 1.4.2 2.6-.8 3.5-1.7 2.8-3 4.8-6.8 7-10.3 1.7-2.6 4.3-8.3 7.8-8.5 6 1.7 9.8 16.5 18.3 18.2 2.5.5 5.3-.4 7.8.5 1.5.4 2.7 2 4.4 1.8h49.6" class="b"/><path d="m8.5 150.9 4.3 5.9c1.7.4 3.5.1 5.3.2h38.2c1.5.3 2.5-1.2 3.6-2q2.2-1.8 5.2-2.4c4.8-1.5 9.7.2 14 2.7q1.6 1 3.4 1.7h2.6c6.2.6 11.7-18.6 17.4-21.3 3.2-.8 5.4 3.6 7 5.6 1.9 2.8 3.8 5.8 6.1 8.2 2 2.1 4.9 3.8 7.9 3.4q2-.4 4.3-.4c2.9.2 5.2 2.3 7 4.4q24.3.1 48.8 0" class="b"/><path d="m8.5 149 3.4 5c.4.6 1.2 1.7 1.8 2h43.5c1.3-.7 2.3-2 3.5-2.7q2.8-1.9 6.1-2.2c5.4-1 10.3 2 14.8 4.5 1 .6 2.4.3 3.5.4 2.9.3 4.6-3 6.1-4.9 2.5-3.8 4.6-8.1 7-12 1.7-2.7 4.4-7.5 7.8-4 2.7 2.7 4.6 6.2 7 9.2 10.3 13.7 12.7-3.2 23.5 11.7h47" class="b"/><path d="M8.5 147.4c1.7 2.4 3.2 5.4 5.2 7.6h43.5c1.5-1 2.8-2.6 4.4-3.4q3.8-1.8 7.8-1.8c3.5 0 6.7 1.5 9.6 3.1 1.4.7 2.8 1.8 4.4 2 1.5 0 3.2.3 4.3-.8 3.6-3 5.6-7.5 7.9-11.5 1.6-2.6 5.1-11.1 8.7-10.3 1.8.7 3.2 2.6 4.3 4q2.5 3.7 5.3 7c7.8 9.3 11.4-1.2 18.3 4.8 1.2 1 2.5 2.6 3.4 4 .8.8 1.6 2.4 2.7 2.9h45.2" class="b"/><path d="M8.5 146.2c1.7 2.5 3.1 5.6 5.2 7.8h43.5c1.3-.7 2.3-2.1 3.5-2.9 2.3-1.6 5.2-2.2 7.9-2.5 4.4-.4 8.4 1.8 12.1 3.9 2.4 1.3 4.6 2.2 7 .4 5.7-3.6 11.7-23.2 16.6-22 1.8.6 3.1 2.4 4.3 3.9 2 2.5 3.8 5.3 6.1 7.5 6.8 6.5 10.5-2.5 16.6 2.1 3.3 2.5 5 6.7 7.8 9.6h44.4" class="b"/><path d="m8.5 145.4 3.4 5.6c.4.6 1.1 1.7 1.8 2h43.5c1.3-.7 2.3-2.1 3.5-3a18 18 0 0 1 7.8-2.5c9.5-1.1 14 7.7 19.2 4 6-3.4 11.7-22.6 16.6-21.8 2.2.7 3.7 3 5.2 4.7 1.8 2.4 3.7 5 6 6.7 5.8 4.2 9.5-3.5 14.9-.1 4.3 3 6 8.4 9.6 12h43.5" class="b"/><path d="m8.5 145 4.3 6.8c1.7.3 3.5 0 5.3.2h36.5c2 0 3 .3 4.4-1.4a12 12 0 0 1 6.1-3.5 18 18 0 0 1 7.8-.8c4.2.5 7.5 3.3 11.4 4.6 7.5 1.3 12.6-16.2 17.4-21 2.4-3 5.2 0 7 2.2s3.7 4.8 6 6.6c3.4 2.6 6.3 1.2 9.6-.6 8.5-4.3 11.4 10.2 16.6 13.8h42.7" class="b"/><path d="M8.5 144.7c1.4 2 2.5 4.6 4.3 6.3h43.6q1 0 1.7-.5c1.6-1.8 3.7-3.7 6.1-4.2 4-1.4 8.2-2.2 12.2-.6 2.7 1 5.1 2.8 7.8 3.7 5.2 1 8.2-5.1 10.5-8.7 2.5-4.1 4.4-9 7.8-12.3 2.8-1.9 5.3 1.8 7 3.6 2.2 2.4 4.5 5.5 7.8 6.2 6.8.5 9.2-9.2 16.6 2 2.3 3.5 3.9 7.7 7 10.5 1.6.5 3.5.2 5.2.3h37.4" class="b"/><path d="m8.5 144.8 3.4 5.1h45.3c1.6-.9 2.8-2.7 4.4-3.7q1.6-.9 3.5-1.3 2.2-.8 4.3-1.2c10.8-2 14 9 21 2.2 2.8-3 4.8-6.9 6.9-10.5 1.5-2.3 4-8.1 7-8.3 1.7.3 3.1 1.8 4.3 3 1.6 1.7 3.3 3.7 5.2 5.1 6.6 4.7 9.3-4.1 14.9-2.2 5.8 3.2 7.4 12.2 12.2 16.6 1 .6 2.3.3 3.4.4h39.2" class="b"/><path d="m8.5 145 2.6 3.8c2 .3 4 0 6 .1h40.1c2-1.5 3.6-4 6.1-4.8 4-1.2 8.1-2.8 12.2-1.6a25 25 0 0 1 6.1 2.7c1.6 1 3.4 2 5.3 1.7 7.4-1.2 12-19.6 17.4-20.3 4.8 1 7.4 8.7 13 8.7 3.1-.2 5.2-3 7.9-4 7.5-2.8 10.9 13.8 15.7 17.6q21.3.1 42.6 0" class="b"/><path d="m8.5 145.4 1.7 2.4c2 .3 4.1 0 6.1.1h40.9c2.3-2.6 4.3-5 7.9-5.7a17 17 0 0 1 10.4-1.1q3.3 1 6.1 3c1.6 1 3.3 2 5.3 1.8 7.3-1.1 10.9-16 16.5-19.6 3.6-1.1 7.5 6.2 11.3 7.5 3.3 1.5 6.3-1 8.7-3 4.4-3.3 7.5.6 9.6 4.3 2.5 4 4.1 8.7 7 12.5q1.2.5 2.6.3h40.9" class="b"/><path d="m8.5 145.8.8 1.1h41.8c2 0 4.3.3 6.1-.2 2-2.8 4.4-5.4 7.9-6 3-1.1 6.4-2 9.6-1.2q3.2 1 6 2.9c1.7 1 3.3 2.4 5.3 2.7 7.8.7 11.7-15.5 17.4-19 4-1.2 7.7 6.7 12.2 7.4 3.5.8 6-2.5 8.7-4.1 7.7-4.4 11.4 14.2 15.7 17.5h37.4c2 0 4.3.2 6.1-.8" class="b"/><path d="M8.5 146h47.9c2-1.9 3.5-4.7 6-6 3.7-1.3 7.5-2.8 11.4-2.1 2.5.4 4.9 1.8 7 3.2 1.6 1 3.2 2.5 5.2 3 7 1.2 11.6-12.2 15.7-16.5 1.8-2.5 4-1.8 6 0 2.7 2 5.1 5.3 8.8 5.4 3.6 0 5.6-3.7 8.7-5 6.5-2 10.6 13.8 14 18h35.6q4.6.2 8.7-1.5" class="b"/><path d="m8.5 145 47.9-.1a20 20 0 0 1 6-6.4c3.7-1.3 7.5-2.8 11.4-2.2 4.4.7 7.6 4.1 11.3 6.2 7.1 3.1 12-9 15.7-13.4 1.6-2.3 3.3-3.8 6-2 3.1 2 5.8 5.5 9.7 5.2 3.5-.4 5.5-4 8.7-5.2 6.7-1.8 10.2 14.8 14 17.8h35.6q2.2.1 4.4-.5 2.2-.3 4.4-1.3" class="b"/><path d="M8.5 144h47c1.4-1 2.3-2.9 3.5-4q1.5-1.7 3.4-2.9 3-1.2 6.1-2c7.3-2 11.1 2.2 16.6 5.8 5.2 3 9.5-2.6 12.2-6.4 1.6-2.2 3.2-4.8 5.2-6.7 1.5-1.5 3.7-.8 5.2.2 1.7 1 3.4 2.4 5.3 3.2 5 2 7.6-2.6 11.3-4.7 6.4-3 11.1 13.1 14 17.2 1 .4 2.3.2 3.4.3H174q2.3.1 4.4-.4a15 15 0 0 0 5.2-1.6" class="b"/><path d="M8.5 143h47c1.9-2.8 4-5.7 7-7.3 3.6-1.2 7.4-3 11.3-2.6 4.8.5 8.2 4.4 12.2 6.7 4.6 2.6 8.6-1.5 11.3-4.9 1.7-2 3.3-4.5 5.2-6.3 1.4-1.4 3.6-1.1 5.2-.2 1.7.8 3.5 1.9 5.3 2.4 5 1.2 7.5-3.3 11.3-5.3 6.4-2.5 10.9 13.3 14 17.4H174c3.2 0 6.7-.1 9.5-1.9" class="b"/><path d="M8.5 142h46.1c1-.8 1.9-2.2 2.6-3.1q1.8-2.4 4.4-4 1.7-1 3.5-1.4 3-1.4 6-1.8c6.2-1 10.3 3.4 14.9 6.6 4.9 3.3 9 0 12.2-3.9 1.6-1.8 3.2-4.1 5.2-5.6q2.1-.9 4.4 0c2 .7 4 1.6 6 1.6 2.3 0 4.5-1.3 6.2-2.7 1.3-1 2.6-2.6 4.3-3.2 6.5-1.9 10.5 13.4 14 17.4h37.4c2.9 0 5.4.2 7.9-1.6" class="b"/><path d="M8.5 141h40c2-.2 4.2.2 6.1-.3 2.6-3.8 5.9-7.4 10.5-8.5 3-1.2 6.2-2.5 9.5-2 5.3.6 8.8 5.1 13.1 7.7 4.9 2.9 9.1-1.2 12.2-4.7 1.9-2 3.8-4.7 7-4.1 3.1.6 6.5 1.6 9.6 0q2.3-1.3 4.3-3.2c1-.9 2.2-2 3.5-2.4 6.4-1.2 10.3 13.5 14 17.4h42.6c1 0 2-.7 2.6-1.2" class="b"/><path d="M8.5 140h45.3c2.2-3 4.5-6 7.8-7.7q4.6-2.2 9.6-3.4c5.3-1.2 10.1 2.2 14 5.7 2.5 2.3 6 4.8 9.5 3.3 2.4-1 4.3-3 6-4.8 6.5-7.8 10 1.2 19.2-7.4 2-1.7 4.3-4.2 7-2.5 2.3 1.4 3.9 4 5.2 6.3 2 3.4 3.7 7.3 6.1 10.4H181q1.5.2 2.6-.8" class="b"/><path d="M8.5 138.9h44.4c1.3-1 2.3-2.8 3.5-4q2.2-2.4 5.2-3.8l6-2.4c7.7-3.2 13 0 18.4 5.3 2.5 2.4 6 5 9.6 3.7 2.3-1 4.3-3 6-4.7 5.1-5.8 9.6-.3 17.5-7.4 2-1.6 4-4.5 7-3.5 5.5 2.9 8 12 12.1 16.7 2.9.3 5.9 0 8.7.1h34q1.4 0 2.6-.2" class="b"/><path d="M8.5 137.9h41.8q1.4.2 2.6-.4c2.5-3.7 6-7 10.4-8.3 2.9-1 5.7-2.4 8.7-2.8 6-1 11 3.3 14.8 7.3 2.7 2.7 6.6 5.6 10.5 3.4 2.4-1.1 4.1-3.4 6-5a12 12 0 0 1 5.3-2.1c4.4-.6 8.2-3 11.3-6s5.4-4 8.7-.5c2.4 2.7 4.3 6 6.2 9 1.2 1.9 2.4 4.3 4.3 5.4h25.3q1.6-.3 3.5-.5 2.2 0 4.3.5h11.3" class="b"/><path d="M8.5 136.9H52a19 19 0 0 1 10.5-8.5c3.1-1 6.2-2.7 9.5-3 7-1 12.1 4.6 16.6 9.1 2.9 2.7 3.2 2.4 7 2.4h2.6q2-1 3.4-2.7 1.8-2.1 4.4-3.3c3-1.1 6.1-1.8 8.7-3.6q2.8-1.8 5.2-4c1.7-1.6 3.8-3.5 6.1-2.3 5.6 2.9 8.7 13.8 14 15.7q1.3-.1 2.6-.7a13 13 0 0 1 7 .6c1 .5 2.4.3 3.5.3h8.7c1.9-.7 4-1.4 6-1.2q2.3.3 4.4 1.2h11.3" class="b"/><path d="M8.5 135.9H51c2.2-2.4 4-5.4 7-7q2.5-1 5.2-2c2.6-.9 5.2-2 7.9-2.4 4.4-.7 8.8 1.3 12.2 4.1 2.4 2.1 4.5 4.8 7 6.9 1 .6 2.3.3 3.4.4h6.1c1.6-1 2.8-2.8 4.4-3.9 3-2 6.6-2.7 9.6-4.7 3.1-1.8 5.7-4.7 8.7-6.7 5.3-2.7 10.5 9 14 12.1 3.5 3.7 3.9 1.3 7.7.6q2.2-.3 4.4.3c3.7.9 7.5 3.1 11.3 2 4.6-2.1 7.8-2.2 12.2.3h11.3" class="b"/><path d="M8.5 134.8c8 .3 16.2 0 24.4 0h17.4c1.2-.3 1.8-2 2.6-2.8a18 18 0 0 1 3.5-3.4c1.7-1.2 4-1.8 6-2.4s4.1-1.6 6.2-2c5.6-1.7 11.5.8 15.6 4.7 2.1 1.9 3.8 4.4 6.1 6 18 0 6 .8 18.3-5.3q5.3-2.3 9.6-6c3.3-2.7 5.5-5.8 9.6-2.1 3.5 3.1 5.7 7.7 9.6 10.5 4.1 2.6 4.5-3 11.3-1.2 3.5.9 6.7 3.3 10.4 3 1.2-.1 2.4-.7 3.5-1 3.4-1.1 6.8.2 9.6 2.1h11.3" class="b"/><path d="m8.5 132.6.8 1.3h41c2.3-3.5 5.1-7.3 9.5-8.1 3.3-.5 6.3-2.3 9.6-2.7 5.1-.9 10 1.6 14 4.7 2.1 1.8 4 4.2 6 6h12.3c1.5-.9 2.7-2.5 4.3-3.3q4.5-2.2 8.7-4.9 2.7-1.8 5.3-4c2.3-2 4.1-3.1 7-1.1 3.9 2.6 7.5 10 12.1 10.4 1.4-.1 2.5-1.2 3.5-2 3.6-2.4 8-.3 11.3 1.5 1.9 1 4 2 6.1 1.6 5-2 8-1.1 12.2 1.9h11.3" class="b"/><path d="m8.5 130.5.8 2c1 .6 2.4.3 3.5.4h36.6c.8-.2 1.4-1.2 1.7-1.8l1.8-2.3c3.5-4.2 5.9-3.6 10.4-4.9 5.2-2.4 10.8-2 15.7 1 3.7 1.9 6.7 5 9.6 8h14c3.5-4 8.8-5.3 13-8.4q2.7-1.9 5.2-3.9c2.4-2.1 4.7-1.6 7 .3 3.3 2.4 7.6 9.7 12.2 7.8 1.2-.7 2.3-2 3.5-2.6 3.9-2.3 8 .7 11.3 2.7 1.5 1 3.4 1.9 5.2 1.7 5.2-1.8 7.9-.6 12.2 2.4h11.3" class="b"/><path d="M8.5 128.2c.3 1 1.1 2.9 1.7 3.7h39.2c2.8-3.4 4.7-7.5 9.6-8.2q3.1-.2 6-1.4c4.8-1.6 10 0 14 2.6q4.8 2.8 8.7 7h14.8c4.3-4.1 10.2-5.6 14.8-9q2.7-2 5.3-3.6c3.8-1.3 6.9 3 9.6 5.2 3 2.8 6.4 4.4 9.5.6 5-5 9.6-.6 14 2.5 1.8 1.3 4 2.1 6 1.2 4.3-1 7.2.9 10.5 3h11.4" class="b"/><path d="m8.5 126 1.7 4.5q.8.4 1.7.4h37.5c3.3-5.3 5.5-8.4 12.2-8.5 1.4-.2 2.9-1 4.3-1.3 3.7-.7 7.4.6 10.5 2.4q3.6 2 7 4.6c1 .8 2.2 2.1 3.4 2.8h15.7c2.4-2.5 5.6-4 8.7-5.3q4.1-1.7 7.9-4.2c1.3-.9 2.7-2.2 4.3-2.5 4.1-.1 7 4.3 10.5 6 6.7 3.8 7.2-4.7 13-4.3 5.2.5 9 8.4 14 7.5 4.8-1.3 7.3.4 11.3 2.8h11.3" class="b"/><path d="M8.5 124c.7 1.7 1.4 4.3 2.6 5.9q19 0 38.3-.1c2.6-4.6 5.6-8.5 11.3-8.3 1.5 0 3-.7 4.4-1.1q1.7-.4 3.5-.2c3.5.5 6.7 2.6 9.5 4.6l7 5h11.3c2 0 4.2.3 6.1-.2 2.7-3.1 6.7-4.3 10.5-5.5 3.4-1.2 6.5-3.2 9.6-5.1 4.6-1.5 8.4 5 13 5.6 5.5.8 6.5-7.4 12.2-5.7 4.7 1.2 8.5 9.2 13 8.5 5.1-1.1 7.1.2 11.4 2.4h11.3" class="b"/><path d="M8.5 122c.7 2 1.7 4.7 2.6 6.7 2 .4 4 0 6 .2h10.5c7.3-.1 14.6.2 21.8-.1 1.9-3.2 4.1-6.8 7.8-7.8 1.4-.4 3-.3 4.4-.5 1.2 0 2.4-.7 3.5-1 2.4-.5 4.9.3 7 1.4q3.6 2.2 7 5c1.3 1 2.7 2.4 4.3 3h18.3c4.5-5.4 8.9-4.5 14.8-6.7q2.2-1 4.3-2.3c1.3-1 2.8-1.7 4.4-1.2 4 1.1 7 5.3 11.3 4.9 5-.7 6.2-9 12.2-6 4.2 2.3 6.9 8.3 11.3 9.5 2.6-.2 5.3-.9 7.9 0 1.4.3 2.9 1.4 4.3 1.8h11.3" class="b"/><path d="M8.5 120.4c1 2.3 1.7 5.6 3.4 7.5h37.5c3.3-5.4 5.4-8.3 12.2-8.3 1.7-.2 3.4-1.3 5.2-1 5.8.8 9.6 5.9 14 9.2h20c1.2-.8 2.2-2.4 3.5-3.2 3.8-2.8 8.8-1.6 13-3.2q1.9-.6 3.5-1.7c1.2-.9 2.8-1.7 4.4-1.3 4 1 7.6 5.6 12.2 4 4.6-2 5.8-9.8 12.2-5.3 2.3 1.8 4.1 4.3 6 6.5 1.2 1.2 2.7 2.8 4.4 3.2 2.3 0 4.7-.7 7-.4 1.8.1 3.5 1 5.2 1.5h11.3" class="b"/><path d="M8.5 118.6c1 2.6 2.2 5.6 3.4 8 1.7.4 3.6.2 5.3.2h32.2c3.3-4.3 5.2-7.9 11.3-8a11 11 0 0 0 3.5-.8c2.8-.9 5.7.6 7.8 2.3q2.8 2 5.3 4.6c1.6 1.6 1.9 2.1 4.3 2H100c1.4-.9 2.3-2.5 3.5-3.6 3.3-3 8.1-1.6 12.2-2.1a14 14 0 0 0 5.2-1.9c1.3-.8 2.8-1.7 4.4-1.3 4 1 7.8 5.3 12.2 3.4 4.6-2.2 5.8-10.1 12.2-5.1q3.3 3.2 6 7c1.2 1.3 2.6 3 4.4 3.5 3.2 0 6.4-1.1 9.6-.4 2 .7 4 .4 6.1.5h7.8" class="b"/><path d="M8.5 116.5c1.2 3 2.6 6.5 4.3 9.3h36.6c.7-.1 1.4-1.2 1.7-1.7l1.8-2.2c3-3.4 5.5-3.4 9.6-4q3-1.5 6-.2c3.8 1.7 6.7 5 9.6 7.9q1.4.3 2.7.2H98c1.7.3 2.6-1.5 3.6-2.5a9 9 0 0 1 4.3-3.2c3.2-.8 6.4.4 9.6.1 2.5 0 4.9-1.3 7-2.6 3.7-1.3 7 2.2 10.4 3 3.1 1 6.1-1 7.9-3.5 6.6-10.4 12.4 4.7 17.4 8.7h25.2" class="b"/><path d="M8.5 114.1c1.4 3 3.3 9 6 10.7h35.8c2.4-3.2 5.2-6.6 9.6-7.1l2.6-.5c1.3-.5 2.9-1 4.3-.6 4.8 1 7.6 5.5 11.3 8.2h20c1.2-.2 2-1.5 2.7-2.3 1.6-1.9 3.5-4 6-4.1 5-.3 9.1 2 14-.7 6-4.5 10.8 5.6 17.4.7 2.1-1.5 3.2-4.1 5.3-5.6 5.8-3.3 10.2 9.2 14 12h21.7q2.2.1 4.4-.3" class="b"/><path d="M8.5 111.6c1.8 4 3.5 8.6 7 11.4 1.7 1.3 4.1.9 6 0 3-1.2 3.7-.8 6.1.8h20.1c1 0 2.4.2 3.4-.2 2.2-3 5-5.7 8.8-6.4 2-.3 4-1.4 6-1.3 4.8.6 8 4.7 11.4 7.7 1 .4 2.4.2 3.5.2h13q2.2.2 4.4-.1c5-5.5 6-8 14-6.3q3 .5 6 0 2.3-.6 4.4-1.8c2.8-.8 5.4 1.2 7.8 2.1 6.1 2.7 8.8-1.6 12.2-5.8 5.7-5 10.8 8.7 14 11.9h24.3q1.4-.4 2.7-.6" class="b"/><path d="M8.5 109c2 4 4.5 11.2 9.5 11.6 2.1 0 4-1.2 6.1-1.4 2.4 0 3.5 2.6 5.3 3.6h20c1.7.1 2.5 0 3.5-1.4q1.5-1.6 3.5-3 2.8-1.7 6-2.3c6-2.6 10.8 3.1 14.9 6.6 2.8.3 5.8 0 8.7.1h11.3c5.5-5.6 6.3-8.3 14.8-6.8q3 .5 6.1 0 1.8-.5 3.5-1.3c2.6-1.3 5.4.6 7.8 1.6 6.6 3.1 9.4-1.4 13.1-6 5.3-4.6 10.6 9 13 12.2 1.7.7 3.6.2 5.3.4h19.2c1-.2 2.3-.8 3.4-.8" class="b"/><path d="M8.5 106.4c2 4 4.5 10.5 9.5 11 2.1 0 4-1.2 6.1-1.2 2.8.5 4.5 3.4 6.1 5.5 2.6.3 5.3 0 7.9.1h14c1-.3 1.8-1.5 2.5-2.1q2.3-2.2 5.3-3.3c4-1.4 6.4-2.3 10.4 0q2.7 1.7 5.2 3.8c.8.5 1.7 1.6 2.7 1.6h18.2c8.3-8 6.9-7.7 18.3-7.2q2.7 0 5.3-.8c2.2-1 3.7-1.4 6-.3l4.4 2c6 2.2 8.9-3 12.2-6.9 5.5-4.3 10.3 10 13 13.2h24.5c1 0 2.3-.7 3.4-.6" class="b"/><path d="M8.5 103.9c2.4 4.2 5.3 11.3 11.3 10.1 2-.4 4.3-1.2 6 0a17 17 0 0 1 3.6 3.7c.7 1 1.5 2.5 2.6 3.1h20.9c1-.1 1.8-1.3 2.6-1.9q2.3-2 5.2-3.2c3.5-1.4 6.2-1.6 9.6.1 2.8 1.3 5.1 3.6 7.8 5h17.5c8.2-7.3 7.1-7.6 18.2-7.7q3.1-.3 6.1-1.2c1.7-.6 3.5-1 5.3-.2s3.4 1.9 5.2 2.5c6 2.1 9-3.7 12.2-7.4 5.6-4.1 10 11.4 13 14H181l2.6-.3" class="b"/><path d="M8.5 101.4c8.5 16 11.2 6.6 17.4 10 3 2.2 4.7 5.6 7 8.4q10.9.2 21.7-.1c2.9-2.8 6.5-5.2 10.5-5.6a17 17 0 0 1 8.7 2.8c5.9 3.6 3.5 2.9 10.4 2.9h9.6c1.4-.1 2.4-1.5 3.5-2.3 2.2-1.7 4.4-3.6 7-4.6 4-1.2 8.2-1 12.2-2 7.5-2.1 6.2-2 13 1.5 4.4 2.1 8-.9 10.5-4.2 2.4-3.6 4.4-5.8 7.8-1.6 2.1 2.7 3.7 6 5.2 9 .7 1.3 1.4 3.5 2.7 4.2h27.8" class="b"/><path d="M8.5 99c8.5 14.9 11 6.2 17.4 10 3.3 2.5 5.5 6.3 7.8 9.6 2.6.5 5.3.1 7.9.2h13.9c7.8-7.3 13-5.7 21.8-1.1.8.3 1.7 1 2.6 1.1h13c3.9-2 7.1-5.4 11.4-6.7q4.3-1 8.7-2c2.6-.8 5.2-1.9 7.8-2.4 3.7-.8 6.4 2.7 9.6 3.7 4 1.4 7.4-2.2 9.6-5.1 2.5-3.8 4.5-5.6 7.8-1.2 2.1 2.8 3.7 6.3 5.3 9.4.7 1.3 1.3 3.5 2.6 4.3h27.8" class="b"/><path d="M8.5 96.8c2.3 3.6 5 8 9.5 8.7 2 .3 4.2-.3 6.1.4 3.9 1.7 6.3 5.7 8.8 9 .7.9 1.4 2.5 2.6 3h20.9c2-1.5 3.7-3.4 6-4.1 5-1.4 10.3.6 14.9 2.4l3.5 1.6h7c1.3 0 3 .2 4.3-.2q3.4-2.3 7-4.1c3.8-2 8.2-2.7 12.2-4.3 2.6-1 5.1-2.4 7.8-3.2q3.3-1 6 1c2 1.1 4 2.7 6.2 3.1 3.8.6 6.6-3 8.7-5.8 2-2.9 3.8-5.5 7-2 2.6 3.2 4.3 7.2 6 10.9.8 1.4 1.6 3.5 2.7 4.6h27.9" class="b"/><path d="M8.5 94.8c9.3 14.3 11.9 3.9 20 12.5q2.8 3 5.2 6.4c.7 1 1.6 2.5 2.6 3.1h21c1.8-1.3 3.6-3.3 6-3.7a35 35 0 0 1 18.3 3.3c1 .6 2.4.3 3.5.4h4.4c1.2-.1 2.4-1 3.4-1.6q3-1.6 6.1-2.9c4.1-1.3 8.5-2 12.2-4.3 3.1-1.6 6-4 9.6-4.5 1.6 0 3.1.9 4.4 1.8 1.8 1.3 3.8 3 6 3.3 4 .4 6.7-3.4 8.8-6.2 1.5-2.1 3.3-5.2 6-2.7 4.6 4.8 6.4 11.5 9.7 17.1h27.8" class="b"/><path d="M8.5 93.1c9.2 13 11.5 4.1 20 12.5a52 52 0 0 1 5.2 6c1.1 1.2 2.1 3.1 3.5 4.2h20.9c3.4-3.2 5-3.6 9.6-3.5q5.3 0 10.4 1a17 17 0 0 1 5.3 2.3c1.3.4 3 .1 4.3.2q2.8-1 5.2-2.4c8.8-4.3 11-.6 20-7.8 2.6-1.8 5.4-4.6 8.8-4 2 .5 3.6 2.1 5.2 3.3 1.5 1.1 3.3 2.3 5.2 2.2 4.7-.8 7-5.7 9.6-9 5.9-6.5 11.5 15.6 14.8 17.7h27" class="b"/><path d="M8.5 91.7c2.5 3.2 5.4 6.6 9.5 7.6q2.6.4 5.3 1.3 3.7 2 7 5.2 2.7 2.8 5.2 6c.7.9 1.6 2.3 2.6 3h20c1 0 1.8-1.2 2.6-1.7a6 6 0 0 1 3.5-1.3q6.1-.2 12.2-.2c8.5.6 5.8 5.4 15.7.6q3-1.4 6-1.9c2-.3 4.2 0 6.2-.4 6.4-1.2 12.1-11.7 17.4-10.4 3 1.3 5 4.2 7.8 5.5 6.4 2.6 9.3-6.3 13.1-9.6 4-2.1 7.2 6.3 8.7 8.9 1.7 3.4 3.4 7.2 5.2 10.4q13.5.2 27 0" class="b"/><path d="M8.5 90.5c2.5 3.1 5.6 6.3 9.5 7.4 2 .7 4.3 1 6.1 2.2q4.7 3 8.8 6.8l3.4 4c.8.9 1.6 2.4 2.6 2.9h20c1.2-.8 2.3-2 3.6-2.4 2.5-.5 5.2-.3 7.8-.6 3.4-.2 7-1 10.4 0 1.2.4 2.4 1.4 3.5 1.8 2.1.5 4.2-.5 6.1-1.3 4.2-2 7.6-2.3 12.2-1.7 7.8.8 13.9-15.5 20-11.5 3.1 2 5.5 6.2 9.6 6 4.6-1.2 6.8-6.4 9.6-9.8 4.2-4.3 8 5.2 9.6 8 2 3.8 3.6 8 6 11.5h26.2" class="b"/><path d="M8.5 89.6c5 5.8 7 6.5 13.9 8.9q1.8 1 3.5 2.3 2.7 1.5 5.2 3.4 4.5 3.6 7.8 8.4 1.3.3 2.7.2H58c1 .2 2-.5 2.6-1.2q1.2-.9 2.6-1.2l3.5-.1c5.5 0 11.6-3 16.6.5 4.6 2 8.9-4 16.5-2.1 1.4.2 3 .7 4.4.4 3.7-1 6.2-4.6 8.7-7.4 2.1-2.3 4.3-6 7.8-6 3.8 1.1 5.7 5.7 9.6 6.8 4.6.9 7.2-4.5 9.6-7.5 1.4-2.2 3.3-5 6-2.6 5.5 5.8 7.4 14.1 12.3 20.4h25.2" class="b"/><path d="M8.5 89c2.2 2.5 4.8 5 7.8 6.6 2 1 4.2 1.6 6.1 2.6 1.5.7 2.9 2 4.4 2.9 1.6 1 3.6 1.8 5.2 2.9 3.1 2 5.4 5.1 7.8 7.8H59c1-.1 1.8-1.3 2.6-1.8q1.6-.7 3.5-.6l3.5-.2c4.3-.3 8.8-2.4 13-.7 1.1.6 2.3 1.5 3.5 1.5 1.8 0 3.6-.8 5.2-1.5q5.2-2.2 10.5-.4c3.7 1.6 6.3-.5 8.7-3.2 3-3.1 6.3-9.7 10.5-11 3.6-.2 6.4 6.3 10.4 7.2 4.9 1 8-5.9 10.5-9 4-6.5 8.4 2.6 10.4 6l4.4 8.2c1.1 1.9 2.4 4.2 4.3 5.5h23.5" class="b"/><path d="M8.5 88.9c2.5 2.6 5.3 5.3 8.7 6.9q2.7 1.1 5.2 2.4c1.5.8 2.8 2.3 4.4 3 6.3 2.6 8.8 3.8 13 9.4 2.3.4 4.7 0 7 .2H59c1.3-.4 2.2-1.9 3.5-2.3s3-.1 4.3-.2l5.2-.6c3.8-.7 8.1-1.7 11.4.9 1.6.8 3.6.3 5.2-.4 4.4-2 7.6-2.6 12.2-.8 3.8 2 6.4-.4 8.7-3.2 3-3.3 6.3-10.5 10.5-11.7 1.8-.2 3.1 1.5 4.3 2.6 1.6 1.6 3.2 3.5 5.2 4.5 5 2 8-4.6 10.5-7.9 3-5 5.5-4.3 8.7.2 2.9 4.2 5 9 7.8 13.4 1.5 2.3 3.5 4.5 6.1 5.5h20.9" class="b"/><path d="M8.5 89q3.4 3.8 7.8 6.5c2.2 1.3 4.8 2.2 7 3.7 1 .8 2.2 2 3.4 2.4 2.6 1.1 5.5 1.4 7.9 3q1.9 1.2 3.5 2.8c.7.7 1.5 2.2 2.6 2.4H59c1.2-.7 2.1-2.1 3.4-2.6 2.3-.4 4.7 0 7-.3 4.6-.2 10-2.2 14 1 3 1.5 5.9-1 8.7-1.9 6.5-2.3 9.2 2.5 13 1.1 4.8-2.5 7.1-8.2 10.5-12.2 2.3-2.9 4.7-5.3 7.8-1.8 2.6 2.4 5.5 7 9.6 5.3 4.4-2.5 6-8 9.6-11.2 4-2.4 7.8 5.7 9.6 8.4 1.8 3.2 3.7 6.7 6 9.5 1.5 1.8 3.9 2.7 5.3 4.5 2.2.4 4.7 0 7 .2h13" class="b"/><path d="M8.5 89.4c2 2.1 4.4 4.4 7 6q2.9 1.8 6 3.4c2.2 1.1 3.8 3.3 6.1 3.8 5.7 1 8.2 1.3 12.2 6 2.3.4 4.7 0 7 .2H59c1.1-1.4 2.5-3.1 4.3-3.3l6.1.2c4.4.1 9.2-1.2 13.1 1.4 2.1 1.9 4.8.8 7-.4 3.3-1.9 6.8-2.9 10.4-1.3 1.4.4 2.9 1.3 4.4 1 7.2-1.2 12.6-21.8 19.1-14.2 2.6 2.4 5.6 7 9.6 5.1 4.4-2.5 6-8 9.6-11.3 3.8-2.3 6.9 3.8 8.7 6.3q2.5 4.2 5.3 8.3c.9 1.3 2.1 2.9 3.4 3.9q2.7 1.5 4.4 4 1.2.4 2.6.3h16.6" class="b"/><path d="M8.5 90q3.1 3.3 7 6.2 2.9 1.9 6 3.5c2.1 1.1 3.7 3.4 6.1 3.8 5.6.6 7.8 0 12.2 4.3h18.3c1-.6 1.8-1.8 2.6-2.6.7-.6 1.7-1.3 2.6-1.3q2.6 0 5.3.4c4.3.6 9 0 13 2.1.8.5 1.7 1.4 2.6 1.4h2.6l1.8-.8c5.3-3.2 8-4.3 14-1.7 7.4 2.1 12.7-18 19-15.2 3.5 2 6 7.5 10.5 6.6 5.1-2 6.6-8.3 10.5-11.7 3.8-2.3 6.8 3.2 8.7 5.7q2.5 4 5.2 7.9 2.1 3 5.3 5c1.3 1.1 2.4 2.8 3.4 4.2h18.3" class="b"/><path d="M8.5 90.2q3.1 3.4 7 6.4 2.9 2 6 3.9c2 1.1 3.7 3.4 6.1 3.7 5 .2 7.8-1.4 12.2 2.5h11.3c2.3 0 4.7.3 7-.1 1.5-1.8 3.3-4.7 6.1-4.3q5.3.6 10.5 1.3c2.3.4 4.9 1 7 2.2 1.3 1.4 3.4.9 5.2 1 1.2.1 2.4-.6 3.4-1.2 2.9-1.8 6.3-3.2 9.6-2.2q1.8.6 3.5 1c3 0 5.2-2.9 7-5 2.5-2.8 6.4-10.7 10.4-10.6 4 1.3 6 6.7 10.5 6.8 4.8-.8 7.3-7.3 10.4-10.7 5-5.3 11.2 7.5 14 10.7a23 23 0 0 0 6 6q1.6 1.4 2.7 3.1c.2.6 1.2 1.8 1.7 2h17.4" class="b"/><path d="M8.5 90.2q6 6.1 13 10.7c2 1.3 3.6 3.7 6.1 3.9 1.8 0 3.6-.6 5.3-.9 3.1-.7 5.2.3 7.8 1.9h16.6c1.8-1.8 3.3-4.7 6-5.2q7 .4 14 2.2 1.8.5 3.5 1.4c.8.5 1.7 1.3 2.6 1.5 2 0 4.1.3 6-.2l3.6-1.8c4-2 6.4-1.1 10.4-.3 5.3-.5 9.5-9.6 13-13.3 3.6-3.8 5.4-2.7 8.8.5 6.9 7 10.3 1.8 14.8-4.2 4-6.4 7.8-2.3 11.3 2 2.3 2.8 4.4 6 7 8.5q1.7 1.5 3.5 2.8c1.7 1.7 3.1 4 4.3 6h17.5" class="b"/><path d="M8.5 90q5.8 5.5 12.2 10.5c1.7 1.2 3.3 3 5.2 4.2q2.2.2 4.3-.1c4.2-1.7 7.4-2.9 11.4.2h14.8c2.2-1.6 3.5-4.5 6-5.6 1.4-.4 3 0 4.4 0 5.9.7 12.1 1.3 16.6 5.5h5.2c1.2.2 2.4-.6 3.5-1q2.4-1.4 5.2-1.7 1.8-.1 3.5.1 1.7.5 3.5.2c6.3-2.6 9-12 14.8-15.6 5-2.4 8.7 9.2 15.7 4.3 7.2-5.7 7.5-13.6 16.5-3.3 3.2 3.7 6.4 7.5 10.5 10.3a24 24 0 0 1 3.4 4.6c.3.6 1.2 1.9 1.8 2.1h16.5" class="b"/><path d="M8.5 89.4q5.7 5 11.3 10.1l3.5 3.2q.6.9 1.7 1 3.5.2 7 0c1.8-1 3.9-2.2 6-2.1q2 .1 3.6 1.1c.3.3 1.2.9 1.7 1h12.2c2.5-1.6 4-5 7-6.1 1.9-.5 4-.1 6 0q4.5.3 8.8 1.6a15 15 0 0 1 4.3 2.4c.8.7 1.7 1.7 2.6 2.1h4.4q2.4.1 4.3-.9a20 20 0 0 1 5.3-1.2c1.7-.2 3.5.2 5.2 0 3.1-.7 5.1-3.6 7-6 2.5-3 7-11.8 11.3-10.6 2.8 1.2 5 3.8 7.8 5 4.8 1.7 8.3-3 11.4-6 4.6-5 10.5 3.7 13.9 6.6q3.2 3.2 7 5.9c2 2 3.5 4.9 5.2 7.2h16.5" class="b"/><path d="M8.5 88.7c3.8 2.6 7.1 6 10.4 9.3l3.5 3.6q1 1.3 2.6 1.1h5.2c1.2 0 2.6 0 3.5-.8q2-1.4 4.4-2a6 6 0 0 1 4.3 1c.8.6 1.6 1.7 2.6 1.8h9.6c3-2.2 5-6.1 8.7-7 4-.1 8.3-.2 12.2.7q2.9.8 5.2 2.5c1.2.9 2.4 2.3 3.5 3.2s3 .5 4.4.6H92q3-.8 6-1.4c2-.3 4.3.2 6.2-.7 5.4-3.4 7.9-10 12.2-14.5 1.3-1.4 3.1-3 5.2-2.6 3.3 1.1 6 4.2 9.6 4.7 3 .4 5.6-1.6 7.8-3.4 1.3-1 2.7-2.5 4.4-2.6 4.1.1 8 5.2 11.3 7.6 6.4 5 7.9 4.9 12.2 12.7q1.2.4 2.6.2h13.9" class="b"/><path d="M8.5 87.7c6 3.4 10 9.3 14.8 14h9.6c2.6-2.1 6-5 9.5-3.1 1.5.9 2.8 2.4 4.4 3.1h6c3.7-2 6-5.9 9.7-7.6q2.5-.4 5.2-.4 4-.5 7.8.3c7.3 1.6 7.7 8.3 13.1 7.7 2.9 0 5.9.3 8.7-.3 2-.4 4.2-.4 6.1-1 3-1.4 5-4.6 7-7.3 2.5-3.3 6.7-11.6 11.3-11.1 2.8.7 5.2 2.6 7.9 3.5 3.2 1.3 6.7 0 9.5-1.7 1.6-1 3.3-2.3 5.3-1.7 3.6 1.3 6.4 4.3 9.5 6.3 2.9 2.1 6.4 3.7 8.8 6.3q2 2.3 3.4 4.9c.2.5 1.2 1.8 1.8 2.1h15.7" class="b"/><path d="M8.5 86.5c6.5 2.7 10 9.4 14.8 14.2h9.6c2.6-2.2 5.8-5.9 9.5-4.5 1.8.9 3.3 2.6 5.3 3.2 2.3 1 5 .2 7-1.2 2.6-1.8 4.8-4.6 7.8-5.9q2.5-.4 5.2-.7c3.2-.4 6.6-.8 9.6.5 4.4 1.6 6.2 6.8 10.4 8.6h9.6c2 0 4.2.3 6.1-.7 3.5-2.1 5.6-6 7.8-9.4 2.5-3.3 6-10 10.5-10 2.7.3 5.2 1.8 7.8 2.6 2.8 1 6 .8 8.7-.2 1.7-.5 3.5-1.7 5.3-1.3 3.6 1.1 6.3 4 9.6 5.8 2.2 1.4 4.8 2.4 7 3.8 3.4 2.3 5.3 6.3 7.8 9.4h15.7" class="b"/><path d="M8.5 85.2c7 2 10.4 9.4 14.8 14.5h6c1.2 0 2.5.2 3.6-.2 2.6-2.3 5.5-6.4 9.5-5.6 1.6.5 2.9 1.9 4.4 2.5 3.3 1.8 6.9.4 9.6-1.8 2-1.4 3.8-3.3 6-4.2q1.8-.4 3.6-.6c3.6-.7 7.7-1.9 11.3-.3 2.5 1 4.5 3.3 6 5.5q1.6 2 3.6 3.8 1 1 2.6 1h13.9c2.6-2 4.4-5 6.1-7.5 2.9-4.2 5.3-9.3 9.6-12.3 2.4-1.6 5.3-.5 7.8.2q3.4 1 7 1.5 3.5.2 7-.5c3.6-.6 6.6 3 9.5 4.7q3.4 1.9 7 3.1c4.9 1.8 7.7 6.6 10.5 10.7h15.6" class="b"/><path d="M8.5 83.8c7 .5 10.9 9.5 14.8 14.4.7.6 1.7.5 2.6.5h4.3c2.4.3 2.9-.7 4.4-2.2 2.1-2 4.6-5 7.8-4.8 1.3.3 2.4 1.2 3.5 1.8q2.5 1.3 5.2 1.2c4.1-.5 7-4 10.5-5.9q1.7-.6 3.5-.9l5.2-1.4c10.8-2.5 11.8 7.3 18.3 12.2h15.7c5.6-5.5 8.7-16.3 15.7-20.3 4-1.5 10.5.6 14.8 1.2 7.3 1.3 6.7-.6 13 4.6 10.4 7.4 10-.6 20 14.3 2 .4 4.2.1 6.2.2h9.5" class="b"/><path d="M8.5 82.2C15.8 81.3 20 93 24 97.6q4 .2 7.9 0c3.2-2.4 7.5-9.8 12.2-7.3 1.8 1 4 2 6 2 3.8 0 6.8-2.6 9.7-4.5q2.4-1.7 5.2-2l5.2-1.8c10.2-3.2 12.7 8.2 18.3 13.7h16.6c3.5-4.9 6-10.5 9.5-15.3 2.6-3.5 5-5.8 9.6-6 4.4-.5 9 .3 13 1.8q2.8.8 5.3 1.8c3 2 5.4 5 8.7 6.5 2.2 1 4.7 1 7 1.4 3.9 1.3 7.2 6.4 9.6 9.5q1.2.5 2.6.3h13" class="b"/><path d="M8.5 80.7c7.8-2.6 12.1 11.5 16.5 16h6.1c3.9-2.1 7.3-9.3 12.2-8.7 2.2.8 4.5 2 7 2 4.4 0 7.6-3.5 11.3-5.4 1.3-.6 3-.8 4.3-1.3q3-1.4 6.1-2.2c9.3-1.6 11.8 10.2 16.6 15.6h16.6c.7-.2 1.4-1.3 1.7-1.9l2.6-4.5c2.3-4 4.6-8.3 7.8-11.6 1.6-1.7 3.9-2.8 6.1-3.2q3.5-1.2 7-1.2c3.8.1 7.2 2.2 10.5 3.9 4 2 6.2 6.6 10.4 8.3 2.2 1 4.7.5 7 .9 3.4.7 7.4 6.3 9.6 9q1.2.5 2.6.3h13" class="b"/><path d="M8.5 79c8.4-4.2 12.2 12.4 17.4 16.4q1.2.5 2.6.3c.8 0 2 .1 2.6-.5 4-2.4 6.6-7.8 11.3-9 1.8 0 3.5 1.2 5.3 1.4 5.4 1.5 9.6-2.8 13.9-5.2 1.3-.7 3-.8 4.4-1.5 2-.8 4-1.9 6-2.3 9.4-1.8 12.1 11.5 16.6 17.1H106c4.5-6.2 6.8-14.3 13-19 1.6-1.2 3.6-1.7 5.3-2.6 2.4-1.1 5.1-2.3 7.9-1.9 2.6.4 4.9 2 7 3.5q3.4 2.3 6 5.6c2.3 2.6 5 5.7 8.7 5.7 1.7 0 3.6-.4 5.3 0 1.3.5 2.4 1.7 3.4 2.7q2.9 2.7 5.3 5.8c2 .5 4 .1 6 .2h9.7" class="b"/><path d="M8.5 77.5C16.3 71.7 20.8 88 25 92.3c6 6.3 11.2-5.2 16.6-7.2 1.7-.7 3.5.3 5.2.6 5.5 1.4 9.7-2.3 14-5 1.5-1.1 3.5-1.3 5.2-2.1 2.2-1 4.5-2.3 7-2.6 8.6-.6 11.5 13.2 15.6 18.7q9 .2 18.3-.1c3.6-6.3 6.4-13.6 12.2-18.3 1.9-1.3 4.2-2.2 6-3.6 3.8-2.6 7.5-3.7 11.4-.8q4.5 3.3 7.8 7.7c2.3 2.9 4.7 6.8 8.8 7.2 2 .2 4-.7 6-.3 1.4.4 2.5 1.7 3.5 2.5a55 55 0 0 1 5.3 5.6q7.8.1 15.6.1" class="b"/><path d="M8.5 76c3.3-3 6.2-2 8.7 1.4 2.6 3.6 4.5 7.9 7 11.5 5 7.4 10.2.6 14.8-3.2 1.7-1.5 3.8-2.6 6-1.8q4.1 1 7.9-.5c3.2-1.3 5.7-3.9 8.7-5.6 1.6-.8 3.6-1 5.2-2 7.9-4.5 11.6-1.5 15.7 5.7 1.2 2.2 2.5 5 3.5 7.3.7 1.5 1.3 3.8 2.6 5h18.3c.7-.4 1.4-1.8 1.7-2.5l2.6-5c2.1-3.6 4.5-7.5 7.9-10 1.3-1 3-1.8 4.3-2.9 2.2-1.7 4.3-4 7-4.9 5-1.6 9.3 4.5 12.2 7.8 2.9 3.6 5.3 9.7 10.5 10.3 2 0 4-1 6-.6 1.4.3 2.5 1.6 3.5 2.4q2.7 2.5 5.3 5.3h15.6" class="b"/><path d="M8.5 74.8c5-5.6 8.6-.3 11.3 4.3C22.5 83.4 25.3 92.5 32 90c4.1-1.8 6.7-6.5 11.3-7.3 2 .2 4 .6 6 .2 4.6-.7 7.8-4.3 11.4-6.8 1.5-1 3.6-1.4 5.2-2.2 2.2-1 4.5-2.3 7-2.3 8 .4 12 14.3 14.8 20.6l.9.6h19.2c3.2-5.3 5.6-11.5 10.4-15.7 1.6-1.4 3.7-2.4 5.2-3.8 5.6-5.6 9.1-10.7 15.7-2.7q3 3.4 5.2 7.3c2.2 3.3 4.4 8 8.7 8.4 2.1 0 4.1-1.1 6.2-.9 1.3.3 2.4 1.6 3.4 2.4 1.9 1.5 3.5 3.5 5.3 5h15.6" class="b"/><path d="M8.5 73.7q5.1-6.3 9.5.5c3.5 4.4 6.3 15.1 13.1 14.4 4.4-.8 7.2-5.1 11.3-6.5q1.8-.3 3.5-.1c4 .2 7.6-2 10.5-4.6 1.9-1.6 3.8-3.6 6-4.7q2.3-.7 4.4-1.6c3-1.5 6.7-2.5 9.6-.2 6.2 5.1 8.4 13.5 11.3 20.7 2.9.3 5.9 0 8.7 0q6.1.2 12.2 0c2.6-5 5.3-10.4 9.6-14.2 2-1.7 4.5-3 6.1-5.2 6.5-8.3 9.6-11 16.6-1 3.4 4 6.7 15.2 13 14.5 1.7-.3 3.5-1.3 5.2-1 1.4.2 2.5 1.4 3.5 2.3 1.9 1.3 3.4 3.4 5.3 4.7h15.6" class="b"/><path d="M8.5 72.9c3.2-4.3 6.2-5 9.5-.4 3.7 4.6 6.2 14.5 13.1 14.7 4-.3 7-3.7 10.5-5.3 1.3-.7 2.9-.5 4.3-.6q2.8-.2 5.3-1.7c3.9-2.2 6.7-6.2 10.4-8.7 1.3-.8 3-1 4.4-1.7 2.1-.9 4.5-2 7-1.4 4.2 1 6.6 5.3 8.6 8.8 2.6 4.4 4 9.6 6.1 14H107c.8.1 2 .2 2.6-.3a44 44 0 0 1 7.9-11.6c1.5-1.5 3.6-2.8 5.2-4.2l2.6-3.3c2.3-2.9 4.6-7.8 8.7-8 5.4 1 9.6 11.2 12.2 15.5 1.7 2.8 4 6.8 7.8 6.3 1.8-.3 3.5-1.3 5.3-1.2 1.3.2 2.4 1.4 3.5 2.2l4.3 4.2c.7.6 1.8.5 2.6.5h13.9" class="b"/><path d="M8.5 72.4c3-4.2 6-6 9.5-1.2 4 5 6.4 14.8 14 14.8 3.6-.3 6.4-3 9.6-4.4 1.3-.7 2.9-.6 4.3-.8q2.9-.6 5.2-2.3c2.6-1.9 4.8-4.4 7-6.7 1.7-1.8 3.6-3.8 6.1-4.2 6.2-2.4 9.6-2.7 14 3A54 54 0 0 1 86 86.4c.2.7 1 2.9 1.7 3.3h21.8c1.2-.7 1.9-2.6 2.6-3.7q2-3 4.4-5.7c2.4-2.7 6-4.4 7.8-7.5 2.6-3.6 4.5-8.7 8.7-10.7 6.1-1.5 11.1 12.8 14 17 3 4.6 5 6.2 10.4 3.9 2.2-.9 3.7.6 5.3 1.9l3.4 3.3c.3.4 1.3 1.2 1.8 1.5h15.7" class="b"/><path d="M8.5 72.3c2.8-4 5.9-6.5 9.5-1.8 4.4 5.2 7.2 16 15.7 14.5 3.1-.7 5.7-3 8.7-4q1.8-.3 3.5-.5a14 14 0 0 0 6.1-3.7c3.4-3.2 5.9-7.4 9.6-10.3 1.2-1 3-1.1 4.3-1.6 2.3-.6 4.9-.9 7 .3 7 4 11 16.2 14 23.5h23.5c.7-.2 1.4-1.4 1.7-2 1-1.5 2.3-3.3 3.5-4.6 2-2.4 4.8-4 7-6.3 3-3.7 4.8-8.5 7.8-12.2 7-9 12.7 7.8 15.7 12.6 1.6 2.7 3.5 6.4 7 6.7 1.4 0 3-.7 4.3-1.2q2.6-.7 4.4 1.1c2.2 1.6 4 4 6 5.9h15.7" class="b"/><path d="M8.5 72.6c2.5-3.6 5.7-7 9.5-2.5 4.6 5.2 7.8 16 16.6 14.1 2.7-.7 5.2-2.4 7.8-3.4 1.4-.4 3-.4 4.4-1 4.6-2.2 7.4-6.8 10.4-10.7 3.5-4.4 4.7-5.9 10.5-6.5 7.7-.6 11.8 9.6 14.8 15.3.9 1.8 2 4.3 2.6 6.2.2.9 1.1 3 1.8 3.6q12.6 0 25.2-.1 2.3-3.4 5.2-6.1c1.7-1.5 3.8-2.9 5.3-4.5 3-4.1 4.9-9.2 7.8-13.4 7-10.5 12.5 5.8 15.7 11 1.6 2.7 3.5 6.4 7 6.7 1.4 0 3-.7 4.3-1.1q2.4-1 4.4 1 3.5 2.8 6 6.4 7.9.1 15.8 0" class="b"/><path d="M8.5 73.3c2.9-4.2 6.2-7.9 10.4-2.7 4.3 5.6 8.8 15.6 17.4 12.6 3-1 5.7-2.8 8.7-3.3 6.6-2.4 9.8-9.7 14-14.8 1-1.2 2.1-2.6 3.5-3.3 2.4-1 5.3-1.5 7.8-.7 6.9 2.6 13 18.2 15.7 25l.8.6h20c10.1 0 4.8.3 12.3-5.3 1.5-1.2 3.3-2.6 4.3-4.3 3-3.8 8-20.6 14-17.5 2.4 1.5 3.8 4.2 5.2 6.6 2.1 3.9 3.9 8.3 7 11.5 3.4 3.4 5.8.7 9.5.4 1 0 2 .7 2.6 1.3q1.9 1.4 3.5 3.3c1.2 1.1 2 3 3.5 4h14.8" class="b"/><path d="M8.5 74.2c2.5-3.8 6-8.6 10.4-3.9 5 5.9 9.8 15.8 19.2 11.9l4.3-1.9q1.8-.5 3.5-1.2c6-3.5 9-10.4 13-15.7a15 15 0 0 1 3.6-3.6c3-1.4 6.9-1.5 9.5.8 3.6 2.9 5.8 7.2 7.9 11.2q3.5 6.6 6 13.7c3.5.4 7 0 10.5.2h19.2c2.6-2.4 6-4.1 7.8-7.2 3-4.1 8.1-21.7 14-20 3.6 1.6 5 6 7 9.2 2 3.4 3.8 8 7.8 9.4 1.7.5 3.6-.2 5.2-.7q2.5-.6 4.4 1a32 32 0 0 1 7 8.3h14.7" class="b"/><path d="M8.5 75.2c2.8-4.2 6.4-9.6 11.3-4.2 4.9 5.7 10.5 14.5 19.1 10.5l7-3c6.4-4.4 9.3-12 14-18a8 8 0 0 1 7.8-3.6c3 .4 5.2 2.8 7 5A112.7 112.7 0 0 1 86 84.6q12.6.2 25.2 0h7c.5 0 1.4-.6 1.8-1 3-2 4.6-5.6 6-8.9 2-4.2 3.8-8.9 6.2-13 4.6-7.8 8-3.7 11.3 2.4 1.8 3.1 3.5 6.6 6 9.1 3.5 3.2 5.9 1.2 9.7 1 2.9.7 5.1 3.6 7 5.8 1.1 1.4 2 3.6 3.4 4.7h14" class="b"/><path d="M8.5 76.3c2.6-3.8 6.3-10.1 11.3-5.4 5.4 5.4 11.2 14.3 20 9.9q3.1-1.5 6.1-3.1C52.2 72.9 55.2 65 60 59a8 8 0 0 1 7.8-3.9c4.8 1 7.3 6 9.6 9.7 3 6 6.3 12.2 8.7 18.6 1.9.5 4.1.1 6 .3h22.7q3.5 0 7-.2c5-4.1 10.3-30 17.4-26.8 2 1.2 3.2 3.6 4.4 5.4 1.6 2.6 3.2 5.5 5.2 7.8 5 5.6 8 .7 12.2 3.1 3.8 2.6 6.5 6.7 8.7 10.6h14" class="b"/><path d="M8.5 77.4c2.4-3.6 6.3-10.4 11.3-6.5 5.6 4.7 11.7 13.9 20 9.5q3.1-1.5 6.1-3.6c4.6-3.7 7.4-9 10.5-14 2.3-3.4 4.3-8 8.7-9.2C73.5 51 79 68.2 82.5 74c.9 1.6 1.9 4 2.6 5.7L86 82l.8.7h34.9a3 3 0 0 0 1.7-.4c2.5-4.3 4.2-9.3 6.1-14 1.6-3.3 5-13.8 9.6-12.9 2 .8 3.2 3.1 4.4 4.8 1.6 2.5 3.2 5.2 5.2 7.3 5 5.4 7.8 1.4 12.2 3.8 2.4 1.6 4.4 4 6 6.3 1.3 1.5 2.2 3.7 3.6 5.1h13" class="b"/><path d="M8.5 78.4c2.7-4 6.7-11.1 12.2-6.6 2.8 2.3 5.6 5 8.7 7.2 3.1 2.4 7 3 10.4 1 11.7-5.9 14-16.7 21.8-25.8 7.9-7.3 13.3 3.1 16.5 9.5q3.1 6 6.1 12.3c.8 1.7 1.6 4.1 2.6 5.6h32.3c1.7 0 3.6.3 5.2-.2 3.5-6 8.3-25 14-27.3 1.9-.5 3.3 1.5 4.3 2.8q2.1 3.1 4.4 6c2 2.8 5 5.4 8.7 5.5q2.2-.1 4.3.7c4.8 2.6 7.9 7.5 10.5 12q.8.7 1.7.5h11.4" class="b"/><path d="M8.5 79.3c2.7-3.8 6.7-11 12.2-7.2 3.8 2.6 7 6.1 11.3 8.1 1.3.6 3 .4 4.3.4 1.6.1 3.1-.9 4.4-1.6 9-5.6 13.3-15.5 19.1-23.9 8.3-10.9 14.2-1.4 18.3 7 3 6 6.4 12 8.7 18.4 1.7.4 3.6 0 5.3.2h32.2l.9-.7c2.2-4.9 4-10.3 6-15.2 1.6-3.2 5.7-16 10.5-10.7 3.8 4.1 6.7 9.9 12.2 11.8q2.7.7 5.2 1.3c5.7 2.5 9.2 8.2 12.2 13.3 4 .3 8.2 0 12.2.2" class="b"/><path d="M8.5 79.6c3.2-3.4 6.5-10.2 12.2-7 3.6 2.1 6.7 5.1 10.4 7h7.8l1.8-1.2c7.6-5.6 12.4-14 17.4-21.8 8.5-13.3 14.3-7.9 20 3.7l6.1 11.8c1.2 2.3 2 5.4 3.5 7.5h37.5c2.9-5.2 4.6-11.4 7-17 1.3-2.9 5.1-14.5 9.5-10.2 4.2 4 7.4 9.6 13 11.8 8.8 2.5 13 8 17.5 15.4h11.3" class="b"/><path d="M8.5 78.6c1.6.4 2.5-1.5 3.4-2.5 1.4-1.5 3.2-3 5.3-3.4 2.6-.2 4.8 1.5 7 2.8 1.7.8 3.3 2.4 5.2 3.1q5.2.2 10.4 0 6-5 10.5-11.3c3.4-4.5 6.2-9.5 9.5-14 8.3-11.3 13.6-4 18.3 5.2 3.3 6.4 7.2 12.7 9.6 19.6l.9.5h36.6c1.3-.9 1.9-3.4 2.6-4.9l4.3-11.2c1.9-4.1 3.3-9.4 7-12.2 1.7-.8 3.2 1 4.4 2l5.2 5.4q2.8 2.8 6.1 4.7 4.6 2.1 8.7 5c4 2.7 7 7 9.6 11 1.3.4 3 .1 4.4.2h6" class="b"/><path d="M8.5 77.6H11c6-6.6 9-3.5 15.7 0h13c1.8-.8 3-2.8 4.4-4.2q2.7-3 5.2-6.2 4.1-5.4 7.8-11c2.9-3.9 6-9.7 11.4-10 5.4.7 8.8 9.4 11.3 13.7l4.3 7.7c1.6 3.1 3 6.8 4.4 10h35.7q1 .1 1.7-.4c2.3-4.8 4.2-10.2 6.1-15 1.5-3.2 4.7-13.9 8.7-13.4 2.4 1 4.3 3.2 6.1 5q3.3 3.3 7 6.3c4.4 3.5 9.8 5.6 14 9.4 2.6 2.3 4.5 5.6 7 8.1h8.6" class="b"/><path d="M8.5 76.6h4.3q2.8-2.3 6.1-1.7c1.5.3 3 1.3 4.4 1.7h17.4q8.3-9.6 15.7-20c8.2-11.7 13.4-17.9 21.8-2q2.8 5.5 6 10.6c2 3.6 3.3 7.9 5.3 11.4h35.7l.9-.5c3.3-6.7 5.7-14 8.7-20.9 1.3-2.6 2.5-6.1 5.2-7.7 1.6-.4 3.1 1 4.4 1.9 5 4.2 9.2 9.7 14.8 13.4 2.4 1.8 5.3 2.9 7.8 4.5 3.9 2.3 6.5 6.2 9.6 9.3h7" class="b"/><path d="M8.5 75.6h32.2c2.1-1.7 3.4-4.5 5.2-6.5q6-7 11.3-14.4c3-3.8 5.8-8.6 10.5-10.6 4-1.2 6.8 3 8.7 5.8q2.7 4.4 5.2 8.9 2 2.7 3.5 5.7c1.2 2.4 2.5 5.4 3.5 7.9.2.8 1.1 2.6 1.7 3.2h34.9c1.6-1.6 2.5-4.3 3.5-6.4l6-14.7c1.4-2.8 2.7-6.4 5.3-8.2 1.8-.7 3.7 1 5.2 2 5.7 4.5 9.6 11 15.7 15.1 2.1 1.3 4.7 1.8 7 2.8 4.6 2 7.5 6.4 11.3 9.4h4.3" class="b"/><path d="M8.5 74.6h28.7c1.4 0 3 .3 4.4-.3q5.1-7.7 11.3-14.8 4.6-6 9.6-12c7.7-9.4 11.8-2.9 16.5 5 2.1 3.8 5.2 7.3 7 11.4l3.5 7.9c.2.7 1 2.5 1.7 2.8h29.6c1.4 0 3.1.3 4.4-.4 4.4-7 7-15 10.4-22.5 1.4-2.4 3.3-8.2 7-6.6 2.4.9 4.4 2.7 6.1 4.5q3.6 4.2 7 8.5c1.7 2 3.6 4.3 6 5.4 2.5 1 5.4.8 8 1.7 5.4 1.7 8.6 7.3 13.8 9.4" class="b"/><path d="M8.5 73.6h33c1.5-2 2.9-4.5 4.4-6.5 2.1-3 4.7-5.7 7-8.4 3.6-4.1 6.9-8.6 10.4-12.6 7.2-8.6 11.3-2.5 15.7 4.5q2.4 4 5.3 7.8c2.7 4.6 4.7 9.9 7 14.8 1 .6 2.3.3 3.4.4h27.9c1.1.2 2-.8 2.6-1.6.9-1.2 1.9-2.9 2.6-4.2q3.4-6.5 6.1-13.2c1.5-2.8 4.3-11.4 7.8-11.2 7 1.2 11.9 12.2 16.6 17.1 5.7 6.7 9.9-.4 17.4 5 2.7 1.8 5 4.1 7.9 5.7" class="b"/><path d="M8.5 72.6h33c1.2-.8 2-2.6 2.7-3.7l3.4-5q8-9 15.7-18.3c7-8.7 11-3.9 15.7 3.5 1.8 3 4.3 5.8 6.1 8.8 2.6 4.7 4.7 9.9 7 14.7h28.7q1.6.1 2.6-1.1a28 28 0 0 0 3.5-4.3c3.2-4.9 5.4-10.5 7.8-15.7 1.3-2.6 2.6-5.6 4.4-7.9q1.7-2.1 4.4-1.2c7 3 10.4 13.4 15.7 18.8 4.8 5.3 9.4-2 15.6.6 3.3 1.3 5.9 4 8.7 6" class="b"/><path d="M8.5 71.6c11.3-.1 22.6.2 34-.1q3.8-7.3 9.5-13.2 5-5.4 9.6-11.1c7.3-9.6 10.8-9.7 17.4.5 1.8 3 4.3 5.6 6.1 8.5 3 4.8 4.9 10.6 7.8 15.4h23.5c1.2 0 2.5.2 3.5-.3 8.8-5.4 12-16 16.6-24.6 2-3.7 4-8 8.7-4.9 6.8 5.1 9 14.2 14.8 20 3.7 3.2 7.7-1.8 11.3-2.7 5-1.7 8.8 2.7 12.2 5.6" class="b"/><path d="M8.5 70.6h34c1-.9 1.8-2.7 2.5-3.9q1.6-2.5 3.5-4.9c4.6-5.4 9.6-10.6 14-16.2 7.7-10.4 11.3-6.7 17.4 2.4 2.2 3.3 5.2 6.2 7 9.9l4.3 8.6c.7 1.2 1.3 3.4 2.6 4.1h21.8c1.5-.3 3-1.5 4.4-2.2q4.6-3 7.8-7.2c3.2-4.3 5.4-9.5 7.8-14.2 2.4-4.4 4.8-10.6 10.5-5.9 4.2 4 6.6 9.6 9.6 14.5 1.4 2.4 2.9 5.2 5.2 6.7 3.6 1.7 7.3-3.7 10.4-5.1 5-3 8.8 1.4 12.2 4.5" class="b"/><path d="M8.5 69.6h34.8q4.4-7.6 10.5-14 4.9-5.8 9.5-11.7C70 35 73.8 38.5 79 46.2c1.7 2.7 4.2 5.2 6.1 7.8 3.3 5 5.5 10.7 8.7 15.6h20q3-2.2 6.1-4 3.3-2 6.1-4.8c3.4-3.4 5.7-7.8 7.9-12 1.7-2.9 4.8-11.3 8.7-10.7 6.2 1 10.7 13.6 14 18.6 1.5 2.6 4.2 7.5 7.8 4.9 2.8-2 4.9-4.9 7.8-6.6 4.6-3 8.2 1.2 11.3 4.2" class="b"/><path d="M8.5 68.6h35.7c3.5-6.5 8.5-12 13-17.8l6.1-7.8c1.5-1.7 3.2-3.7 5.3-4.6 5.5-2 9.3 6.3 12.2 9.8 1.2 1.8 3 3.4 4.3 5.2 3.2 4.7 5.7 10 8.7 14.9q1.3.5 2.6.3h15.7q3.6-3.2 7.8-5.7 2.7-1.8 5.3-4a42 42 0 0 0 8.7-12.1c1.3-2.4 2.8-5.2 4.3-7.5 1.6-2.2 3.5-3.6 6.2-2.1 5.3 3.6 8 11.8 11.3 17.4 2.1 3.5 4.8 10.2 9.5 5.6 3.6-2.9 6.9-9.4 12.2-8.1 2.5.8 4.3 3 6.1 4.7" class="b"/><path d="M8.5 67.6h31.3c1.7-.1 3.6.2 5.3-.2 4-7 9.2-13.3 13.9-19.8 5-6.2 10-15.9 17.4-6 1.8 2.2 3.4 4.9 5.2 7.1Q84 51.1 86 54q2.8 4.2 5.2 8.5c1 1.7 2 3.9 3.5 5.2q8.2 0 16.6-.1c4.4-5.3 10.7-8.4 15.6-13.2 10.7-10.8 12.5-33.3 25.3-7.7 2.4 4.5 4.3 9.8 7.8 13.5 2.6 2.5 5.4-.8 7-2.7 3-3.1 6.3-9.3 11.3-7.5 2 1 3.6 2.8 5.2 4.3" class="b"/><path d="M8.5 66.6h35.7a3 3 0 0 0 1.7-.4 316 316 0 0 1 14.8-22C68.2 34 72 34 79 44.5c2 3 4.9 5.5 7 8.4 3 4.4 5.6 9.2 8.7 13.6 5.2.3 10.5 0 15.7 0 2-2 3.8-4.6 6-6.6 3.4-3 7.2-5.6 10.5-8.7 4.8-4.5 7.4-10.8 11.3-16 7.6-10 15.8 15.7 19.2 20.4 1.2 1.7 2.7 4.8 5.2 4.3 3.6-1.5 5.4-5.5 7.9-8.2 5-6.2 7.7-6 13-.2" class="b"/><path d="M8.5 65.6h37.4c.7-.3 1.5-1.5 1.8-2.1l3.4-5.8c4.1-6.4 7.9-13.3 13.1-18.8 7.3-7.8 12.2 1.8 16.6 7.2q1.6 2 3.4 3.7 2.4 2.8 4.4 5.8l4.3 6.8c.7 1 1.5 2.6 2.6 3.2h9.6c1.7-.1 3.6.2 5.3-.2 2.6-3.7 5.3-7.5 8.7-10.5 3-3 6.7-5.4 9.5-8.6 4-4.3 6.5-10 10.5-14.3 7.8-7 15.7 20.4 20 24.7 2.5 3.4 4.8 1.8 7-.8q2.7-3.4 5.2-7c4.7-5.7 7.2-5.5 12.2-.2" class="b"/><path d="M8.5 64.6h38.3c1.4-1.6 2.4-4 3.5-5.7q3.3-6 7-12c2.6-4 5.3-8.4 9.5-10.9 5.9-2.8 9.9 4.5 13 8.2 2.1 2.8 5 5 7 7.8 3.1 4 5.6 8.6 8.8 12.6h9.5c1.7-.1 3.7.3 5.3-.3 2.9-4.5 5.8-9.2 9.5-13 3-3.2 6.9-5.6 9.6-9 2.2-2.6 4.2-5.7 6.1-8.4 1.3-1.7 2.6-3.6 4.4-4.7 7.8-3.5 14.7 21 19.2 25.9 2.4 3.3 4.7 2.1 7-.6l6-8.3c4.3-5.3 6.7-5 11.3-.3" class="b"/><path d="M8.5 63.6h39.2c4.1-7.4 12.1-26.2 20-28.6 5.8-1.3 9.7 5.9 13 9.5 1.6 1.8 3.8 3.4 5.3 5.3 3.6 4.2 6.4 9.1 9.6 13.6q3 .3 6 .2h8.8c3-5 5.8-10.4 9.6-14.8 2.3-2.8 5.3-5 7.8-7.5a72 72 0 0 0 6.1-7.6c2-2.4 4.5-7.2 7.8-7 8 2 12.5 21.4 18.3 27.6 2.5 2.8 5.4-.2 7-2.4l5.2-7.4c4.2-5.3 6.3-6.2 11.4-1.2" class="b"/><path d="M8.5 62.3c1.6.5 3.5.2 5.2.3h34c.6-.5 1.4-2 1.7-2.7l2.6-5.2c2.8-5.5 5.6-11.2 9.6-16 6.3-7.2 11.2-4.3 16.5 2l3.5 3.9q2.3 2 4.4 4.1c3.6 4.1 6.5 9 9.5 13.5 1.5.7 3.6.2 5.3.4h9.6c1.4-1.7 2.4-4.1 3.4-6q2.8-5.3 6.1-10c2.6-3.3 6-5.9 8.7-9q3.2-3.8 6.2-7.7c1.7-2 3.8-5.5 7-5 8 2.4 12.4 20.9 18.2 27.3 4.4 5.2 9.7-6.5 12.2-9.3 1.7-2.2 3.8-5.5 7-5 1.6.4 3 1.8 4.3 2.9" class="b"/><path d="m8.5 60.8.8.8h34c1.7-.1 3.6.2 5.2-.2C52.4 54 58.3 37.8 66 34.8c5.3-2.2 9.7 2.9 13 6.3 2.4 2.7 5.5 4.8 7.9 7.5q4.8 5.9 8.7 12.5c1 .7 2.3.4 3.5.5h9.5q1.5.1 2.7-.4c3-6 5.5-12.4 9.5-17.7 2.5-2.9 5.5-5.5 7.9-8.4l6-7.6c1.8-2 4-5.2 7-4.5 7.9 2.7 12.4 19.2 17.5 25.9q2.9 4.7 7 .8c2.3-2.5 4-5.6 6-8.3 1.8-2.2 3.8-5.6 7-5.6 1.6.4 3 1.6 4.4 2.6" class="b"/><path d="m8.5 59.5.8 1h39.2c3.6-6.5 6.2-13.8 10.5-20 5.4-8 11.5-8 18.3-1.6 3 3.1 6.5 5.7 9.6 8.7 3.4 3.7 6.1 8.2 8.7 12.5.7.6 1.7.5 2.6.5h13c3.6-6 5.5-13 9.6-18.7 1.6-2 3.6-3.9 5.2-5.8q3.7-4.3 7-8.7c2.1-2.4 4.4-6.2 7.9-6.3 8.3 2 13.2 18.7 18.2 25.4 5 7.8 10-2.4 13.1-6.4 1.8-2.4 3.7-5.8 7-6 1.6.1 3 1.3 4.3 2.2" class="b"/><path d="m8.5 58.3.8 1.3h39.2c.7-.6 1.5-2.3 1.8-3l3.5-7.6c4.5-9.3 10.3-20 21.7-11.6q3.2 2.2 6.1 4.9 2.7 2 5.3 4.4a55 55 0 0 1 8.7 12.5q1.2.5 2.6.3h4.3q4.9.2 9.6 0c2.8-6.2 5-13 8.7-18.7q6.4-7.5 12.2-15.4c2-2.3 4.3-6 7.8-5.8 8.8 2.9 13.1 17.3 18.3 24.4 5 7.9 9.8-.7 13.1-5.1 1.9-2.4 3.7-5.8 7-6.4 1.5.1 3 1.2 4.3 2" class="b"/><path d="m8.5 57.4.8 1.1h39.2c.8-.3 1.5-2 1.8-2.7l2.6-5.7c4-7.7 8.4-18.9 19.1-14.4 5.2 2.1 9.5 6 14 9.3 4.2 3.6 7 8.6 9.6 13.4 2 .4 4 0 6 .2h10.5c1.4-1 1.9-3.7 2.6-5.2 1.6-3.9 3.2-8.2 5.2-11.9 1.4-2.5 3.6-4.7 5.3-7q3.5-4.6 7-9.6c2-2.5 4.2-6.2 7.8-6.8 9.1 2 14 16.4 19.2 23.4 4.9 7.8 9.4 1.2 13-3.6 2-2.4 3.8-5.8 7-6.6 1.5 0 3 1 4.3 1.6" class="b"/><path d="m8.5 56.7.8.8h39.2l.9-.5c2.4-5.2 4.7-10.7 7.8-15.4 2.5-3.8 5.7-7 10.5-6.4 5.8.6 11 3.8 15.7 7.3a35 35 0 0 1 12.2 15H113c2.7-5 4.2-11 7-16.2 1-2.2 2.9-4.2 4.3-6.1q3.6-5.2 7-10.3c2.1-2.8 4.8-7.6 8.7-8 9.6 3.3 13.7 14.4 19.1 22 4.3 6.7 8 4.5 12.2-.8 2.2-2.5 4-5.7 7-7.4 1.7-.8 3.7.3 5.2 1" class="b"/><path d="M8.5 56.2c1 .6 2.3.3 3.4.3h34.9c.8 0 2 .1 2.6-.4q3-7 7-13.6c2.1-3.3 5.2-7 9.5-6.7 4.6 0 9 1.7 13.1 3.5q4.7 2.6 8.7 5.9c3.5 3 5.5 7.5 7.9 11.3h18.3c2.3-5.4 4-11.5 7-16.6 3.7-5 7-10.6 10.4-16 2-2.8 4.7-7.8 8.7-7.9 7.6 2.8 12.4 10 16.5 16.5 3.2 4.7 6.9 12.6 13.1 6.6 3.1-2.7 5.2-6.7 8.7-9 1.7-.9 3.7 0 5.3.5" class="b"/><path d="M8.5 55.5h39.1a3 3 0 0 0 1.8-.4c3.1-6 7.8-18.6 15.7-18.6q3.5.1 7 1 3.4.7 7 1.8 2.7 1.2 5.1 3 1.9 1 3.5 2.4 3.2 2.8 5.2 6.6c.8 1.2 1.6 3.2 2.7 4.2H112q1.4.1 2.6-.3c1.9-5 3.6-10.3 6.1-14.9 4-5.3 7.1-11.2 10.5-16.8 2-2.9 5.3-9.5 9.5-7.8A37 37 0 0 1 155.8 29c3 3.8 7 13.4 13 9.7 3.8-2.3 6-6.6 9.6-9 1.6-1 3.6-.3 5.2.1" class="b"/><path d="M8.5 54.5h39.1a3 3 0 0 0 1.8-.4c3-5.6 7-15.5 14-16.7 2.5-.3 5.2.4 7.8.7q3.9.6 7.8 1.3c2 .5 3.6 1.7 5.2 2.7q1.9 1 3.5 2.2c3.2 2.4 5.2 6.2 7 9.7l.9.5h19.1c.9-.3 1.5-2.3 1.8-3.1 1-2.8 2.2-6 3.4-8.7 1.1-2.4 3-4.6 4.4-7q3.5-6.2 7-12.5c2-3 4-7.4 7.8-8.3 1.3-.1 2.5.9 3.5 1.5q3.1 1.6 6 3.6a30 30 0 0 1 5.3 5q2.8 3.3 5.2 7c2.1 2.8 4.7 7 8.8 6.2 4.8-1.4 6.9-7 11.3-9 1.3-.4 3 0 4.3.2" class="b"/><path d="M8.5 53.5h39.1c.5.1 1.4-.1 1.8-.4 3.3-5.7 7.1-15 14.8-14.9 2.6.1 5.2.7 7.8 1 2.6.2 5.3 0 7.9.6q1.9.5 3.5 1.8l3.4 2c3.8 2 6 6.1 7.9 9.9h20.9c.6-.6 1.5-2.6 1.7-3.5 1-2.6 2.2-5.6 3.5-8 4.5-6.3 7.5-13.5 11.3-20.2 1.8-2.7 3.6-6.4 7-7.1 1.3 0 2.4 1 3.5 1.6 3.6 1.9 7.5 3.3 10.4 6.3q3.4 3.5 6.1 7.4c2.2 3 4.6 7.3 8.7 7.3 5-.7 7.1-6.1 11.3-8q2.2-.6 4.4-.2" class="b"/><path d="M8.5 52.5h40c.8-.2 1.4-1.3 1.8-2l1.7-2.8c2.7-4.3 6.6-9 12.2-8.5 2.6.2 5.2.8 7.8.8 2.6.1 5.3-.3 7.9.1 1.6.3 3 1.4 4.3 2.2q1.8.7 3.5 1.7c3.2 2 4.9 5.6 7 8.5h21.8c2.1-3.8 3.2-8.6 6-12 3.4-5.3 5.9-11.3 8.8-16.8 1.7-3 4.6-9.4 8.7-8.9 1.2.5 2.3 1.5 3.5 2q2.5 1.1 5.2 2c9.3 4 11.9 15.3 18.3 17.6 4.8 1 7.7-4.3 11.3-6.6 1.5-1 3.5-.8 5.2-.8" class="b"/><path d="M8.5 51.5h40c.7-.2 1.5-1.3 1.8-2l2.6-3.7c5-6.5 9-6.2 16.5-5 3.8.5 7.6-1 11.4-.1 1.2.3 2.3 1.3 3.4 1.9 1.8.8 3.8 1.4 5.3 2.7 1.3 1.1 2.5 2.8 3.4 4.2.3.6 1 1.8 1.8 2h22.6c1.2-2.3 2.3-5.2 3.5-7.4.7-1.3 1.9-2.8 2.6-4q3.3-6.1 6.1-12.4c2-3.7 5.1-11.9 9.6-12.7q1.6.1 2.6 1 1.6 1.1 3.5 1.7c7.3 1.5 10.6 4.8 14.8 10.7 1.7 2.5 3.5 5.3 6.1 7 5.3 3 8.9-3.8 13-5.8q2.2-.7 4.4-.7" class="b"/><path d="M8.5 50.5h40c.7-.2 1.5-1.2 1.8-1.8.7-1 1.7-2.4 2.6-3.3 4.5-5.3 9.4-4.9 15.7-3.9 3.7.6 7.5-.7 11.3-.5 2 .2 3.4 1.8 5.2 2.4 4.2 1.2 6.4 3.5 8.7 7h24.4c.7-1.6 1.7-3.8 2.6-5.4 1.1-1.8 2.6-3.7 3.5-5.6 2.2-4 4.1-8.6 6.1-12.8 1.8-3.3 5.1-11.8 9.6-11.1.9.2 1.8 1 2.6 1.5q1.2.6 2.6 1c5.3.8 8.7 2.1 12.2 6.3 2.8 3.1 4.7 7 7.8 9.9 5.5 4.8 9.4-2 14-4.5q2.2-.6 4.3-.8" class="b"/><path d="M8.5 49.5h40a5 5 0 0 0 1.8-1.6q1.2-1.6 2.6-2.9c4.3-4.4 10.1-3.5 15.7-2.8 3.7.6 7.5-.7 11.3-.5 2 .1 3.4 1.8 5.2 2.3q5 1 7.9 5.2c1.5.6 3.5.2 5.2.3h19.1c.5 0 1.4-.1 1.8-.4 1.3-3.1 3.6-6 5.2-9 2.2-4 4.1-8.6 6.1-12.8 2-3.5 4.5-10.4 8.7-11.4q1.6.1 2.6 1 1.3.9 2.6 1.2c2.3.6 4.8.6 7 1.5 5.7 2.2 8.6 8 12.2 12.5 5.9 7 9.3 2.3 14.8-1.8 1.5-1 3.5-1 5.2-1.4" class="b"/><path d="M8.5 48.5h40c2.5-2 4.6-5 7.9-5.7 2-.6 4-.4 6-.3q3.6.1 7 .7c3.8.5 7.6-1 11.4-.3 1.5.4 2.8 1.8 4.3 2.2 2.5.5 5.2 1.3 7 3.3 3.1.3 6.4 0 9.6.1H119a61.8 61.8 0 0 0 7.8-13c2.3-4.2 7.6-19.8 13.1-19 .9.2 1.8 1 2.6 1.4q2.1.9 4.4 1c5.9.3 9.7 3.6 13 8.2 4 5.4 8 11.7 14.9 5.8 1.3-1 2.8-2.4 4.3-3.1q2.2-.7 4.4-1" class="b"/><path d="M8.5 47.5h40C51.5 44 55.2 42 60 43q2.5.3 5.2.4l4.3.7c3.8.7 7.7-.7 11.4.1 1.2.3 2.3 1.3 3.4 1.8q1.8.5 3.5.8 1.4.3 2.6.7H120c4.9-5.4 7.3-12.6 10.5-19 1.9-3.8 3.7-8 7-10.8 2-1.5 3.3-.5 5.2.6 1.9.8 4 .9 6 1.1 4.8.4 8.6 3.7 11.4 7.3 4 5.3 8 11.2 14.8 5.7q2-1.7 4.4-2.9 2.2-.6 4.3-1" class="b"/><path d="M8.5 46.5h39.2c4.5-3.4 6.4-4.7 12.2-3 2.5.8 5.2.5 7.8 1.2q2.6.6 5.2.7 3-.1 6.1 0a8 8 0 0 1 3.5 1h38.3c5.5-6.6 7.9-15.3 12.2-22.7 1.6-2.5 3.5-6.5 7-6.4 1.2.3 2.3 1.3 3.5 1.6 1.9.6 4 .6 6 1 4.8.5 8.6 3.9 11.4 7.5 3.9 4.8 7.8 8.9 14 4.4q2-1.5 4.3-2.7 2.1-.7 4.3-1" class="b"/><path d="M8.5 45.5h38.3c1-.2 1.8-1.2 2.6-1.7a9 9 0 0 1 4.4-1.5c3.4-.1 6.2 2.4 9.5 2.5q2.3.1 4.4.7h40.1c4.6-.1 9.3.2 14-.1 5-7 7.5-15.6 12.1-22.8 1.4-2 3.3-5 6.1-5 1.5.4 2.8 1.5 4.4 1.8l6 .9c4.3.7 7.8 3.5 10.5 6.6 4 4.6 8 8 14 4.2q2-1.5 4.3-2.6l4.4-1" class="b"/><path d="M8.5 44.5h37.4c1 0 1.8-1 2.6-1.6a8 8 0 0 1 4.4-1.4c1.8.1 3.6 1 5.2 1.8.8.4 1.8 1.1 2.6 1.2h61c2-1.5 3-4.6 4.4-6.7l6-12.1c1.8-2.9 3.6-6.7 7-7.8 1.3-.2 2.5.6 3.5 1 2.2 1 4.7 1.2 7 1.6q6 .9 10.4 5c4.4 4.4 8.5 8.2 14.8 4.6l4.4-2.2q2.2-.7 4.4-1" class="b"/><path d="M8.5 43.5h37.4c3.8-3.6 7.2-3.8 11.3-.8q1.2 1 2.6.8h56.7c2-.1 4.1.2 6-.2 4.1-6 6.7-13 10.5-19.1 1.7-2.4 3.6-6 7-6.1 1.1.1 2.3 1 3.4 1.3 6.6 2 11.8 1.5 17.5 6.5 4.7 4.1 8.8 5.9 14.8 2.9q3.6-2.1 7.8-2.6" class="b"/><path d="M8.5 42.5H45c4.7-3.9 7.5-4 12.2 0h65.4c4.8-6.4 9.4-20.4 15.6-24 1.8-.9 3.6.3 5.3 1l5.2 1.4c3.2.8 6.6 1.5 9.6 3 5.3 3 9 6.5 15.7 4.4 3.1-1 6.2-2.7 9.5-2.8" class="b"/><path d="M8.5 41.5h32.2c1.4-.1 3 .2 4.4-.3 1.4-1.3 3.2-2.6 5.2-2.8a7 7 0 0 1 4.3 1.5c.8.5 1.6 1.5 2.6 1.6H107c5.2-.1 10.5.2 15.7-.1 4.5-6.3 7.3-13.8 12.2-19.8 4.1-4.8 5.3-3.5 10.4-1.5 4 1.5 8.2 2.2 12.2 3.5 3.2 1 6.2 3 9.6 3.7q4.4.8 8.7-.6c2.5-.7 5.1-2 7.8-1.8" class="b"/><path d="M8.5 40.5h33.1c1-.1 2.5.2 3.4-.5 4.6-4 7-3 11.4.5h63.5q1.5.1 2.6-.4l3.5-5.3c3-4.5 8.2-16.3 14-16.5 1.5 0 3 1 4.3 1.5q3.4 1.6 7 2.6 4 .9 7.8 1.6c2.9.9 5.8 1.9 8.8 2q4.3.5 8.7-.5c2.3-.5 4.5-1.7 7-1.4" class="b"/><path d="M8.5 39.5h35.7c3.2-2.4 5.7-4.6 9.5-1.8.8.5 1.6 1.7 2.7 1.8h65.3c5.1-5 11-20.8 18.3-21.3 1.8.1 3.6 1.2 5.2 2q3.3 1.7 7 2.9 3.3.7 7 .9a72 72 0 0 0 19.1.2c1.7-.4 3.5-1.1 5.2-.7" class="b"/><path d="M8.5 38.5h33.1c1-.1 2.5.2 3.4-.5 3.8-3.5 7-3.2 10.5.5h65.3c5.5-3.9 12.2-21.4 20-20.3 4.4 1.2 7.8 4.7 12.2 5.5q3.5.6 7 .2c4.6 0 9.3-.5 14-.2q2.5.1 5.2-.5c1.3-.4 3-.8 4.3-.4" class="b"/><path d="M8.5 37.5H32c4.3-.2 8.7.2 13-.2 4.4-3.7 6.3-3 10.5.2h61.8c1.2-.1 2.5.2 3.5-.4l4.4-5.3c3.7-4.6 6.8-10.2 12.2-13.1 4.5-2.3 8.4 2.3 12.2 4.2q3.6 2 7.8 1.4c3.5-.5 7-1.4 10.5-1.8q3.3-.2 7 .2 2 .3 4.3-.1 2.1-.9 4.3-.3" class="b"/><path d="M8.5 36.5h33c1.5-.2 3.1.3 4.4-.4 1.2-1 2.8-2 4.4-2q1.9.2 3.5 1.4.7.7 1.7 1h60.1c4.8 0 3.8.3 7-3.2 2.6-3 5.1-6.4 7.8-9.3 3-3.2 7.4-7.6 12.2-5.5 2.8 1.3 5 3.7 7.8 5.2s6 1.3 8.8.3c6-1.8 9-3.4 15.6-2.1q2.2.4 4.4 0c1.4-.4 3-.8 4.4-.1" class="b"/><path d="M8.5 35.4h37.4c3.7-2 5-2.7 8.7 0h62.7c1 .2 2-.5 2.6-1.3l3.5-3.7C127.8 26 132 20 138.2 18c2.7-.7 5 .3 7 2 2.2 1.8 4.3 3.9 7 4.8 5.6 1.9 10.4-3.2 15.7-4 3.1-.8 6.4.4 9.5.8q1.9 0 3.5-.6a5 5 0 0 1 2.6.4" class="b"/><path d="M8.5 34.4h37.4c1.6.3 2.9-1 4.4-1.1q1.4 0 2.6.5 1.1.8 2.6.6h61.8c1.7-.9 3-2.8 4.4-4 4-4 8-8.6 13-11.3 3.8-1.8 7.4-2.2 10.5 1 3.3 3 7.3 7.1 12.2 5 8.4-3.7 9.2-7.1 19.2-4q1.7.4 3.4-.2a4 4 0 0 1 3.5.3" class="b"/><path d="M8.5 33.4h108c7-5.8 15-16.9 25.2-15.6 2.9 1 4.8 3.7 7 5.5 2.8 2.6 6 3.8 9.6 1.7 4.2-2.1 8-6.3 13-5.6 2.1.3 4.1 1.2 6.1 1.6q1.9.2 3.5-.5c.8-.1 2 .2 2.6.6" class="b"/><path d="m8.5 31.5 1.7 1h105.4c7.5-6.4 15.2-16 26.1-14.7 3.3 1.2 5.2 4.5 7.9 6.5 2.6 2.3 5.7 3 8.7 1 4.1-2.3 7.8-6.9 13-6.1 2.1.3 4.1 1.3 6.2 1.7 1 .3 2.4 0 3.4-.4q1.5 0 2.6.6" class="b"/><path d="M8.5 29.7c1.4.6 2.7 1.9 4.3 1.7h102c.5-.1 1.3-.8 1.7-1.2q1.2-1.3 2.6-2.4c5.2-4.6 11-9.4 18.3-10 3.4-.2 5.3-.3 7.8 2.5 3 2.7 5.9 7.2 10.5 6.4 7.3-2.3 10-10.5 19.1-6.4q2.1.9 4.4 1l1.7-.6c.8 0 2 .3 2.6.7" class="b"/><path d="M8.5 28.2q2.2 1 4.3 2.2h102c7.9-7.3 15.4-13.6 27-12.3 3.2 1.2 5.1 4.6 7.8 6.8q4.5 4.2 9.5.5c4-2.7 8-7.2 13.1-5.6 2 .5 4 1.7 6.1 2q1.4 0 2.6-.6 1.5 0 2.6.7" class="b"/><path d="M8.5 26.8c1.7.7 3.5 1.9 5.2 2.6H106q4.4.2 8.7-.1c8.9-7.2 15-12 27-10.7 3.3 1.2 5.2 4.6 7.9 6.7q4.5 4.1 9.6.4c3.8-2.5 7.9-7 13-5.2 2 .6 4 1.8 6.1 2q1.4 0 2.6-.5 1.5 0 2.6.6" class="b"/><path d="M8.5 25.5q2.7 1.2 5.2 2.9h101q5.5-3.9 11.4-7a27 27 0 0 1 14.8-2c3.5.3 6 4.6 8.7 6.6q4.6 3.8 9.6.3c3.9-2.5 8-6.7 13-4.9 2 .6 4 1.8 6.1 2.1q1.4 0 2.6-.4a5 5 0 0 1 2.6.5" class="b"/><path d="M8.5 24.4a27 27 0 0 1 5.2 3h101.1c1.4-.4 2.9-1.4 4.3-2 3.6-1.8 7.2-4.1 11.3-4.8q4-.8 7.8-.3c1.5.2 3 .1 4.4.7 3 1.6 5 4.6 7.9 6.4h7c1.5 0 3-1.5 4.3-2.3 4-2.8 7.4-4.3 12.2-2 6.6 3.3 5.4 0 9.6 1.7" class="b"/><path d="M8.5 23.4c1.8.7 3.5 2 5.2 3h102.8c1-.5 2.4-.9 3.4-1.3 6.2-2.7 10.4-4.7 17.5-3.8 6 .6 6 1.2 10.4 5q6.6.3 13 0c3.5-2.1 7.2-4.4 11.4-2.8 2.3.8 4.5 2.3 7 2.4 1.4-.3 3-.6 4.3.1" class="b"/><path d="M8.5 22.6q2.3 1 4.3 2.6 1.3.3 2.6.2h103.7c2.4 0 4.6-1.6 7-2.2q4.6-1.6 9.5-1 3.6.4 7 1.3c1.2.5 2.2 1.9 3.5 1.9h15.7q1.8.1 3.4-.7 2.2-.8 4.4-.7c1.8 0 3.5 1 5.2 1.4h8.7" class="b"/></svg>