<svg xmlns="http://www.w3.org/2000/svg" id="a" width="1920" height="2400" viewBox="0 0 192 240"><defs><style>.b{fill:none;stroke:#fff;stroke-miterlimit:10;stroke-width:.3px}</style></defs><path d="M0 0h192v240H0z" style="stroke-width:0"/><path d="M8.3 200.4c3.1 4.2 5.2 9.4 7.9 14 6.5 11 7.8 5 14 10.8 2 1.9 3.3 4.6 5.2 6.7h33.1c3.5-5 6-5.2 9.6-.1q15.8.2 31.4 0H127c.8 0 1.9.2 2.6-.3 1.8-3.1 5-7.5 8.7-3.8 1.3 1.2 2 3.2 3.5 4.2H154q1-.3 1.7-1.2 1.2-1 2.7-1.7 1.5-.4 2.6.8 1.1.9 2.6 1.3 2.2.3 4.4.3 1.3.3 2.6.5h13" class="b"/><path d="M8.3 199.4c2.5 3.2 4.2 7.1 6.1 10.6 9.6 18.3 10.5 3.8 21 20.6 1.3.5 3 .2 4.3.2h28.9c1.7-2.2 4-4.8 7-2.4.7.7 1.5 2 2.5 2.5h51.5c4.6-7.9 7.6-7.6 12.2 0l12.2-.1c6.8-7 5-1.4 11.4-.8q2.6.1 5.2.8h13" class="b"/><path d="M8.3 198.8c2.5 3 4.2 6.8 6.1 10.1 10.1 18.2 9.9 2.8 21.9 21h32.2c1.5-1.3 3-3.4 5.3-2.7 1.3.4 2.3 1.9 3.5 2.7h52.3c1.5-1 2.2-3.1 3.5-4.2 3.6-3.8 6.9 1 8.7 4 3.8.3 7.6 0 11.3.2 2-1.7 4.1-5.2 7-4 1 .8 2.2 2 3.5 2.3q2.7.6 5.2 1c2 1 4.1.6 6.1.6h8.8" class="b"/><path d="M8.3 198.5c3.5 4 5.6 9.2 8.8 13.4 6.6 9.5 9 2.3 16.5 12.4 1.2 1.4 2.1 3.4 3.5 4.5H66c1.1 0 2.5.2 3.5-.3.9-.8 2.2-1.7 3.5-1.6 1.3.2 2.3 1.4 3.5 2h54.1c4.3-6.6 7-6.8 11.3 0h10.5c2.2-1.7 4.5-6.2 7.8-4.8q1.5 1.6 3.5 2.5c2.3.8 4.8 1.3 7 2.3h13" class="b"/><path d="M8.3 198.6c4.1 4.1 6.4 9.9 10.5 14q2.8 3.1 7 3.8c3.8 1 6.5 4.2 8.7 7.2 1.1 1.3 2 3.4 3.5 4.2h31.4c2-1 3.3-1.5 5.2 0q28.4 0 56.7 0c1.4-2.3 4.1-5.6 7-3.5 1.3.8 2.3 2.5 3.5 3.5h9.6c2.6-1.8 4.3-5.9 7.8-5.8 1.4.3 2.3 1.8 3.5 2.5q2.1 1.1 4.4 1.9c1.1.3 2.3 1.1 3.5 1.4h13" class="b"/><path d="M8.3 198.8c3.5 3 5.7 7.3 8.8 10.7 8.8 9.6 9.1-.7 20.9 17q1.3.4 2.6.3h85.5c2 0 4.2.3 6.1-.2q4.4-6 8.7 0 1.7.4 3.5.2h6.1c2.6-1.7 4.1-5 7-6.4 1.8-1 3.2.5 4.4 1.7 2.3 2 5.3 2.9 7.8 4.6 1.7.3 3.6 0 5.3.1h8.7" class="b"/><path d="M8.3 199.3c5 3.5 7.7 9.6 13.1 12.4 1.9 1 4.2 1.2 6.1 2 5.2 2.4 8 7.8 11.4 12 18.3.3 36.6 0 55 .1h33.9q2.7.2 5.3-.1c2-2.5 4.6-2.7 7-.4.9.8 2.3.4 3.4.5h4.4q1.4.2 2.6-.3c2.3-2.2 5.3-7.6 8.7-7.2 1.7.6 2.9 2.5 4.4 3.4q3.1 2 6.1 4.1h14" class="b"/><path d="M8.3 199.9c5.2 2.9 8.3 8.7 14 10.8 2 .8 4.2 1 6.1 2 5 2.6 7.6 8 11.3 12.1H134q1.3-.8 2.7-1c1.2-.2 2.3.7 3.5 1h9.6c2.4-2.3 6.6-10.2 10.4-7.8q2.5 2.4 5.3 4.6l2.6 2c.7.6 1.6 1.4 2.6 1.2h13" class="b"/><path d="M8.3 200.6c3 1 5.4 3.6 7.9 5.4q4.6 3.5 10.5 4.8c4 1.2 7 4.6 9.5 8 1.4 1.5 2.6 3.8 4.4 5h108.2c1-.5 1.9-2 2.6-2.8q1.9-2.7 4.4-5c3.1-2.6 4.7-.4 7 1.9l4.3 4c.8.6 1.6 1.8 2.6 2h14" class="b"/><path d="M8.3 201.4c3 .5 5.4 2.6 7.9 4q3.6 2.4 7.8 3.7c9 1.8 11 7.3 16.6 13.5 1.6.5 3.5.1 5.2.2h103c2.5-2.7 7-11.8 11.3-9q4.4 4.4 8.7 9h14.9" class="b"/><path d="M8.3 202.2c3.5.2 6.5 2.4 9.6 3.8q5.2 2.2 10.5 3.6c5.9 2.1 8.7 8.3 13 12.2H148c1.1-.5 1.9-2 2.6-3 1.3-1.7 2.8-3.8 4.4-5.3 2.6-2.5 4.8-2 7 .7q2.2 2.3 4.3 5c.8.7 1.7 2 2.6 2.6h14.9" class="b"/><path d="M8.3 203q3.2-.1 6.1 1.3l7 2.7q4 1.3 7.9 2.4 3 1.2 5.2 3.4c9.4 9.8 3.5 7.8 17.5 8h95.9c2.9-3.3 4.8-7.8 8.7-10 2.6-1.2 4.6 1.4 6.1 3.1l5.3 6.6q1.2.4 2.6.3h13.1" class="b"/><path d="M8.3 203.7c2.7-.5 5.4.4 7.9 1.3 3.7 1.2 7.4 3 11.3 3.6 4.4.6 7.8 3.7 10.5 7 1.3 1.4 2.6 3.2 4.4 4.2h100.3c1.7-.1 3.6.2 5.2-.3 2.5-3 6.5-11.6 11.3-9.8 1.4.6 2.6 2 3.5 3.2l5.3 6.9h15.6" class="b"/><path d="M8.3 204.4c5.1-1.3 11.7 2.3 16.6 3.8 2 .5 4.2.5 6.1 1.2 4.8 1.6 7.5 6.4 11.3 9.4H147c1.2-.6 2-2.2 2.7-3.2 1.8-2.6 3.8-6 7-7 4.9-1.3 8.1 7.6 11.3 10.2h15.7" class="b"/><path d="M8.3 204.9c5.6-1.6 11.4 2 16.6 3.6 1.7.5 3.5.3 5.2.6 5.3.6 8.4 5.5 12.2 8.6h55.9c.7-.4 1.7-1 2.6-.8l1.7.9H147c2.4-2.9 4.1-6.5 7-8.9 6-4.8 10 4.6 13 8.5q1.4.6 2.7.4h14" class="b"/><path d="M8.3 205.2c5.8-1.7 11.2 2.4 16.6 4 1.7.4 3.5 0 5.2 0 5.2 0 8.6 4.6 12.2 7.5q27.6.1 55 0c1.7-1.8 3.5-2.4 5.2-.1 2.6.4 5.3 0 7.9.2h27.9c2.8-.1 5.8.2 8.7-.2 3-3.9 7.1-12.8 13-8.6 3 2.2 4.9 5.8 7 8.8h16.6" class="b"/><path d="M8.3 205.3c4.6-1.4 9 1.6 13.1 3.3 1.9.9 4 1.8 6.1 1.4 7.4-1.8 9.7 1.4 14.9 5.7q13.5.1 27 0 13.5.2 27 0c1.2-1.5 3.4-3.5 5.3-1.8l1.7 1.9h40.1c2.2 0 3.2.4 4.4-1.8 3.5-5.2 8-11.3 14-5 1.9 2 3.2 4.9 5.2 6.8h16.6" class="b"/><path d="M8.3 205.2c4.8-1.2 9 2.4 13.1 4.3 1.9 1 4 1.9 6.1 1.2 7.3-2.5 9.3-.5 14.9 4 9.5.3 19.2 0 28.7 0h15.7c3 0 6 .3 8.8-.1 2.8-3.8 5.2-5 7.8-.2 1.5.7 3.6.2 5.2.4h37.6c4.7-5.2 8-13.3 15.7-6.2l3.4 4.5c.6 1 1.4 1.9 2.7 1.7h15.7" class="b"/><path d="M8.3 204.8c6.4-.9 10.7 5.8 16.6 7.1 2.8.2 5.2-1.9 7.9-2.3 3.7-.8 6.8 1.9 9.6 4 1.3.3 3 0 4.3.2h41.9c2-.1 4.1.2 6-.2 4.2-5.7 6-6 9.7.2h41.9c2.3-2.8 4.4-6.4 7.8-8 1.7-.7 3.7-.2 5.2.7 3 1.5 5 4.6 7 7.2q8.8.1 17.5 0" class="b"/><path d="M8.3 204c6.2-.1 10.1 7 15.7 8.7 1.2 0 2.5.1 3.5-.5 2.5-1.2 5-3.2 7.9-3.1 2.6 0 4.9 1.8 7 3.2q1.2.7 2.6.4h43.6q2.7.2 5.2-.1c1.7-2.4 4.6-7.5 7.9-4.7 1.3 1.3 2 3.6 3.5 4.8h35.7q2.6.2 5.3-.1c3-3.6 6.9-9.4 12.2-6.7q1.8.9 3.5 2c1.5 1.4 2.8 3.4 4.3 4.8h17.5" class="b"/><path d="M8.3 203c5.2.6 8.2 6 12.2 8.7h8.8c4.8-3.9 7.8-4.5 13-.7 1.5 1.2 3.5.6 5.3.7h7.8q18.7.1 37.5 0c2-3 6-10.2 9.6-5l1.8 2.9c.3.6 1 1.9 1.7 2.2h18.3q1.4 0 2.6-.6 1.3-.4 2.7-.4 1.8.2 3.5 1h9.6c1-.1 2.4.1 3.4-.3 5.7-6.6 9-8.9 16.6-3 1.2 1 2.1 2.6 3.5 3.3h17.4" class="b"/><path d="M8.3 202c4.7 1 7.2 5.8 10.5 8.7h11.3c1-.2 1.9-1.1 2.7-1.7 1.7-1.2 4-1.9 6-1.2q2 .7 3.6 1.8c.7.4 1.6 1.2 2.6 1.1h42.7q2.2.2 4.4-.2c2-2.6 5.7-10.4 9.6-7.1 1.8 1.9 3 4.6 4.3 6.9q.8.5 1.8.4h13.1q1.8.3 3.5-.9a8 8 0 0 1 4.3-1.2c2.2 0 4.2 1.3 6.1 2.1q5.7.2 11.4-.1c2.7-2.7 6.2-6.4 10.4-5.1q2.7.9 5.3 2.4l3.5 2.8h18.3" class="b"/><path d="M8.3 200.9c4.4 1.2 6.4 6 9.6 8.8H31c1-.3 1.8-1.3 2.6-1.8 1.5-1.1 3.4-1.8 5.3-1.3 2.2.5 4 2.2 6 3.1h45.4c1.6-.9 2.4-3 3.5-4.5 1.7-2.3 4.7-6.9 7.9-4.2q2 2.5 3.5 5.2c.7 1 1.3 3 2.6 3.5h13c3.3-3.1 7.3-4.4 11.4-2 1.4.7 2.7 2.2 4.4 2h9.6c1.5-.8 2.8-2.2 4.3-3 3.7-2.2 7-.4 10.5 1 1.2.5 2.4 1.5 3.5 2h12.2c.8-.1 1.8-.8 2.6-1.1l4.4-1.3" class="b"/><path d="M8.3 199.7c4 1.5 6.2 5.9 8.8 9h14.8c4.3-4.6 7.4-4.4 12.2-.7 1.2 1 2.9.7 4.4.7h41c2.8-3.1 8.3-15.6 13-9 2.2 2.8 3.6 6.5 6.1 9h6.2c1.4 0 3 .2 4.3-.2 5.8-6.3 10.6-4.9 16.6 0 3.1.4 6.4.1 9.6.2h1.7l1.8-1a9 9 0 0 1 7.8-1.1q3 1.2 6.1 2.1h11.4c1.8-1 3.3-2.8 5.2-3.8q2.2-.7 4.4-1.5" class="b"/><path d="M8.3 198.5c2.7 1 4.5 3.8 6.1 6 .8 1 1.6 2.5 2.7 3.2h14.8c4.6-4.5 6.9-5.2 12.2-1l1.7 1h41.9c3.8-2.8 9.4-17.6 14.8-10.5 1.6 2.1 3 4.6 4.4 6.7 1 1.3 2 3 3.5 3.8h6.1c1.8-1.3 3.4-3.2 5.2-4.4 4.9-3 9.4.1 13.1 3.3 1.2 1.4 2.8 1.1 4.4 1.1h9.6a10 10 0 0 1 5.2-1c1.5 0 3 .7 4.4 1h14c2.7-2 4.6-5.4 7.8-7q1.7-.5 3.5-1.2" class="b"/><path d="M8.3 197.4c3.7 1.6 5.7 5.7 7.9 8.9q1.2.6 2.6.4h13.1c1.4-1.2 2.7-2.9 4.4-3.7 3.6-1.8 6.8 1.8 9.6 3.7h24.4q4.7.1 9.6-.1 3 .3 6 0c4.3-2.6 9.6-16.2 15-13.4 3 2.4 4.4 6.4 6.9 9.3 2.9 3.7 5.9 4.7 9.6 1.4 7.2-7.4 12-3.6 18.3 2.3 1 .8 2.4.5 3.5.5h28.7c1.2 0 2.5.2 3.6-.2 2.8-2.8 4.8-6.5 7.8-9q2.1-1 4.4-1.8" class="b"/><path d="M8.3 196.2c3.8 1.7 5.7 6 7.9 9.2q1.2.4 2.6.3h13.1c5.6-6.8 8-5.3 14-.1 6.3.3 12.8 0 19.1.1h10.5q1.7-.8 3.5-1.1h2.6c.8 0 1.8.4 2.6.2 4-1.6 6.8-7.6 9.6-10.8 9-11.2 10.5 7.2 18.4 8.8 6.6.5 7.7-9.6 17.4-3q2.3 1.6 4.4 3.7c.7.7 1.6 1.8 2.6 2.2H160c3.5-.1 7.1.3 10.5-.1 3.2-3.6 5.2-8.3 8.7-11.5q2.1-1.3 4.4-2" class="b"/><path d="M8.3 195c3.8 1.7 5.7 6 7.9 9.3q1.2.6 2.6.4h9.6q1.7.1 3.5-.2c5.3-7.4 8.2-5.5 14 0 2.5.4 5.2.1 7.8.2h20c2-.8 4-2 6.2-2.2 1.4-.3 3 .3 4.3 0 4-2.2 6-6.9 8.7-10.2 10-13 11 7.6 20.1 7.6 5.8-1.1 6.8-7.2 14-3.4 3 1.7 5.4 4.4 7.8 6.9.3.4 1.2 1.1 1.7 1.3h33.2c3.6-3.8 5.4-9 8.7-13 1.3-1.7 3.4-2.3 5.3-3.1" class="b"/><path d="M8.3 194c2.8 1 4.5 3.9 6.1 6.2.8 1 1.5 2.8 2.7 3.5h14c1.3-1 2.2-2.8 3.4-3.8 4.5-4.4 8.2.5 11.4 3.7 8.7.3 17.4 0 26.1 0 1.3.2 2.4-1 3.5-1.5q2.9-1.5 6.1-1.6c3.3.5 5.3-2.6 7-4.8 2.5-3.1 6.6-11.6 11.3-9.9 1.5.7 2.6 2.2 3.5 3.5q2 2.9 4.4 5.4c5.3 5.2 8.1.3 13-1.7 3-.5 5.8 1.4 8 3.2 10 9.1 3 7.4 17.4 7.5h20c1.1 0 2.5.2 3.5-.3 2.7-3.8 4.7-8.2 7-12.1 1.9-3.4 3.4-4.6 7-5.9" class="b"/><path d="M8.3 192.9c4.4 1.5 6 6.6 8.8 9.8q7 .1 14-.1c5.7-8.8 8.7-7.2 14.7 0h24.5c1.2.3 2.4-.5 3.5-1.1q2.4-1.6 5.2-2.2c1.6-.6 3.7-.4 5.2-1.2 4.1-3.2 6.1-8.4 9.6-12.2 4.6-5 7.4-2.1 10.5 2.4 2.8 3.7 6.4 8 11.3 5 2-1 3.8-2.8 6.1-2.7 6.2 1.6 9.8 7.6 14 11.9 1.4.4 3 .1 4.4.2h28.8c1-.9 1.9-2.6 2.6-3.8l4.3-8.5c2-3.9 3.4-6.5 7.9-7.8" class="b"/><path d="M8.3 191.8c4.1 1.1 6.5 6.4 8.8 9.7 1.6.4 3.5.1 5.2.2H30c1.6-1.5 2.7-3.8 4.4-5.2 4.6-4.3 8.5 2 11.3 5.2h24.5c.9 0 1.8-.8 2.6-1.2l4.3-2q3-1 6.1-1.7c1.9-1 3.2-3 4.4-4.7q2.5-4 5.2-7.6c3-4 6.4-5 9.6-.6 3.3 4.2 7.1 10.3 13.1 6.7 1.9-1 3.9-2.6 6.1-2.1 6 2.5 9.7 8.5 14 13.1q16.5.2 33.1 0c2.8-4.1 4.8-9 7-13.4 1.9-3.7 3.5-7 7.9-8" class="b"/><path d="M8.3 190.8c4.7.8 6.6 6.9 9.6 9.9h11.4c.7-.2 1.4-1.2 1.7-1.8l2.6-3.4c5.2-5.6 8.9 1.6 12.2 5.2h23.6c.9 0 1.8-.7 2.6-1.1q2.2-1.2 4.4-2c2.2-1 4.7-1.4 7-2.4 3.9-3 5.7-8.1 8.7-12 2.5-3.5 6-6.5 9.6-2.3 3 3.4 6 9.2 11.3 8.1 3.2-.6 6.4-4.3 9.6-2 5.3 3.5 8.9 9 13 13.7H168c1.2-.6 1.9-2.5 2.6-3.6q2.3-4.3 4.4-9c2-4 3.8-9.1 8.7-10" class="b"/><path d="M8.3 189.8c4.4.3 7.2 6.3 9.6 9.5a3 3 0 0 0 1.8.4h3.5c2-.1 4.1.2 6-.2 3-4.5 7-11.5 12.3-5.2 1.5 1.6 2.7 3.9 4.3 5.4h23.6l1.7-1 5.3-2.3c2.2-.8 4.8-1.3 7-2.5 3.8-3.5 5.6-8.8 8.7-12.9 6.5-8.9 8.9-2.1 14 3.2 6.5 6.3 9.4-.6 14.7 0 2.5 1 4.4 3.3 6.2 5.1 3 3.3 5.6 7.1 8.7 10.4H168c3.3-4.4 5.3-10 7.8-15 1.7-3.4 3.6-7.7 7.9-8.3" class="b"/><path d="M8.3 188.7c4.6 0 7.9 6.7 10.5 9.9q4.8.1 9.6 0c2.8-3.8 7-12.2 12.2-6.5q2 2.1 3.5 4.5c.3.6 1.2 1.7 1.7 2h22.7c2.4-.7 4.6-2 7-2.8 2.6-1 5.6-1.5 7.9-3.1 5-5 6.4-13 12.2-17.4 6.4-3.5 8.5 10.6 16.5 9.3 3-.4 5.7-3.2 8.8-2.2 2.3 1.3 4.2 3.7 6 5.7q4.3 5.3 8.8 10.6h27.9c1.4-.1 3.1.3 4.4-.4 2.8-4 4.8-8.7 7-13 2-3.9 3.7-9.5 8.7-10.1" class="b"/><path d="M8.3 187.7c5-.5 8.4 6.8 11.4 10h7.8c3.3-4 7.5-13.6 13.1-7q1.9 2.4 3.5 5c.3.5 1 1.7 1.7 2h22.7q3.4-1.6 7-2.7c2.7-.8 5.7-1.5 7.8-3.4 3-3.3 4.8-7.8 7-11.6 1.4-2.4 3-5.1 5.3-6.6 6.6-3.5 8.4 11.5 17.4 8.8 4.5-1.4 6.7-3.8 10.5.7 4.3 4.6 8 10 12.2 14.6 3.7.4 7.6 0 11.3.2h20c3.5-4 5.6-8.9 8-13.5 2-3.7 3.7-9.4 8.7-9.9" class="b"/><path d="M8.3 186.6c5.2-1 9 7 12.2 10h6.1c3.4-3.4 7.4-13.8 13.1-8 1.3 1.2 2.5 3 3.5 4.6.8 1 1.4 3 2.6 3.5h21.8c1.2 0 2.4-.8 3.5-1.1q2.6-1 5.3-1.6c4.7-1.1 7.4-2.8 9.6-7.3 2.7-4.5 5.6-13.4 10.4-15.6 4.4-1 6.6 5.3 9.6 7.5 4 3.5 7.2 1.5 11.4 0 3.6-1.3 5.7 2.6 7.8 4.9q4.4 5.3 8.7 10.7c2.1 2.4 2 2.6 5.3 2.5h27c4-3.5 6.3-8.7 8.7-13.3 2.2-3.5 4-9.2 8.8-9.6" class="b"/><path d="M8.3 185.4c5-1.3 8.4 5.4 11.4 8.3l1.7 1.7c1.4.4 3 .2 4.4.2 2.3-2.3 4-5.4 6-7.8 6-7.2 10.3 2.8 13.2 7.4 1 .7 2.3.4 3.5.4h19.1c1.2.2 2.5-.4 3.5-.8q1.8-.7 3.5-1c3.6-.9 7.6-1.9 9.6-5.2 3.4-4.6 7.4-18.7 13.1-19.4 3.8.3 5.3 4.7 7.8 7 3.8 3.7 7 2.6 11.4.8 1.7-.7 4-.5 5.2 1l4.4 5.1c3.3 4.2 6.7 8.6 10.4 12.4 2.6.4 5.3 0 7.9.2h20c4.2-1.7 6.5-6.2 8.8-9.7 2.4-3.7 5.4-12.4 10.4-12.3" class="b"/><path d="M8.3 184.1c2.7-1 5.3 1 7 3 2.4 2.2 5.3 7.4 8.7 7.5 3-.8 5-5.2 7-7.5 6.5-8.7 10.7 1.7 14 7.1q1.1.7 2.6.4h21.8q2.6-1 5.2-1.6c6-1.1 8.8-2.9 11.4-8.5 2.3-4 6.6-18 12.2-16.9 2.8 1 4.2 4 6 6 4.8 5 7.6 3.1 13.2 1.3 2.1-.6 4 .8 5.2 2.4l4.4 5.5q4.7 6.1 10.4 11.7c2.3.4 4.7 0 7 .1h17.5c5.4-1.5 8.3-4.6 11.3-9.3 2.5-3.3 5.7-11.7 10.5-11.5" class="b"/><path d="M8.3 182.7c2.7-1 5.2 1 7 2.8 2.4 2.2 5.3 7.4 8.7 7.6 3-1 5-5.2 7-7.5 6.6-8.7 10.8 2.2 14 7.6q1.1.6 2.6.4h22.6c2.9-1 6-1.5 8.8-2.5 4.2-1.5 6.1-5.9 7.8-9.6 2.1-3.8 6.5-18 12.2-15.2 2.6 1.5 4 4.5 6.2 6.5 4.3 4 7.4 1.7 12.2.3 2.1-.6 4 .9 5.2 2.6l4.4 5.4c3.7 4.4 7.5 9 12.2 12.5h17.4a6 6 0 0 0 3.5-.7q2.5-1 5.2-1.7c2.9-.8 5.2-3 7-5.2q2.7-3.6 5.2-7.4c1.5-2 3.4-4.6 6.1-4.4" class="b"/><path d="M8.3 181.2c2.7-1 5.3 1 7 2.9 2.4 2.3 5.3 7.6 8.7 7.7 3-.8 5-5.2 7-7.5 6.6-8.8 10.9 2.4 14 7.8l.8.5h21c1.7 0 3.6.3 5.2-.2 2.3-.8 4.8-1.2 7-2.2 4.2-1.6 6.1-6.1 7.8-10 2.2-4.2 5.5-15 10.5-16 2.9 0 4.5 3 6.1 5 2 2.6 5.3 5 8.7 3.9 1.8-.5 3.5-1.4 5.3-1.8 2.8-.8 4.6 1.7 6 3.6l4.4 5.2q6.1 6.8 13.1 12.5h14l4.3-1.8q2.6-1.3 5.3-1.5c2.1-.1 4.4-.8 6-2.2q3.6-3.2 6.2-7c1.8-2.2 3.7-5.5 7-5.4" class="b"/><path d="M8.3 180c2.7-1.1 5.3 1 7 2.8 2.4 2.2 5.3 7.5 8.7 7.7 3.2-.9 5.5-6 7.9-8.4 4.6-5.2 8-.2 10.5 4l1.7 3.2c.3.6 1 2 1.7 2.3h17.5q4.8.2 9.6-.1c8.7-2.5 10.3-4 14-12.2 2.4-4.8 7.7-22.8 14.8-14 2.7 3.8 6.2 7.7 11.3 5.6 2-.7 4-2 6.1-1.7s3.2 2.2 4.4 3.6l4.3 5q4.9 5.5 10.5 10c1.7 1.2 3.3 2.9 5.2 3.7q2.6.1 5.3.1 2.2 0 4.3-.8l6.1-2.3q2.6-1.2 5.3-1c2.8.2 5.7-.5 7.8-2.4q2.9-2.6 5.2-5.7c1.6-1.8 3.5-4.2 6.2-4.2" class="b"/><path d="M8.3 179c2.6-1 5.2.8 7 2.6 2.5 2.1 5.3 7.1 8.7 7.3 3.3-.9 5.4-5.7 7.9-8 4.5-4.9 8 .2 10.5 4.2 1.1 1.7 1.9 4.3 3.4 5.5h27c1.8-.1 3.6-1 5.3-1.4 4-1.3 6.3-5 7.9-8.7 2-4.3 3.8-9 6-13.2 2.8-5 6.2-8.2 10.5-2.4 8.4 10.5 12.4-.5 18.4 2.7 2.5 2.4 4.6 5.3 7 7.8q4.4 4.8 9.5 9c3.3 2.4 6 5.4 10.5 5 4.8-.4 9.4-2.2 14-3.6 2.9-.3 5.9 1.1 8.7 0 5.1-1.8 8.4-9.9 13-10" class="b"/><path d="M8.3 178.6c2.5-1.2 5.2.2 7 1.8 2.6 2 5.3 6.5 8.7 6.7 1.4-.2 2.6-1.5 3.5-2.5 1.4-1.5 2.8-3.4 4.4-4.9 4.6-4.4 8 .6 10.5 4.5 1.1 1.6 1.9 4 3.4 5.4h27c2.5.2 5-.8 7-1.8 2.4-1.2 4.1-3.6 5.3-6 2.7-5.3 4.8-11.2 7.8-16.4 3.4-5.3 6.3-6.3 10.5-1 8 8.4 12.8-3.5 18.3 1.5 5.5 6 10.8 12.4 17.5 17 4.2 3.6 7.7 4.2 13 3.5q3.1-.4 6.2-1.1c1.4-.3 2.9-1.1 4.3-1 4.4.6 7.3 2.4 11.4-.8 1.9-1.4 3.5-3.3 5.2-4.9 1.2-1.2 2.7-2.4 4.4-2.5" class="b"/><path d="M8.3 178.4c2.3-1.3 5-.5 7 1 2.8 1.8 5.2 5.6 8.7 5.8 1.4-.2 2.6-1.3 3.5-2.2q2-2.3 4.4-4.3c6.9-5.4 10.3 6.1 14 10h27.9c6.5.2 9.6-3.4 12.2-8.9 2.6-4.6 7.2-19.7 13-19.7 3 .3 4.4 3.5 7 4.6 2.9 1.6 6.1.3 8.7-1.1 4-2 5.9-1.9 8.8 1.6q3.8 4.3 7.8 8.5a56 56 0 0 0 7.9 6.7q2.8 2.1 6 3a34 34 0 0 0 14 .4c4.1-1.7 5.8.2 9.6.9 3.4.6 6.5-1.7 8.8-4 1.8-1.6 3.5-3.9 6-4.4" class="b"/><path d="M8.3 178.4a7 7 0 0 1 7 0c3 1.5 5.3 4.7 8.7 4.9 3.2-.7 5.2-4 7.9-5.6 6.8-4.3 10.3 6.1 14 9.9H78c4-.8 6.2-4.6 7.9-8 2.8-5.5 5-11.7 8.7-16.9 7.6-9.8 7.8 5.4 19.2-1 6-3.3 7-2 11.3 2.7 4.1 4.5 8 9.4 13 12.9 3.7 2.6 8 3.8 12.3 4.7q3.8 1 7.9.9 1.6-.3 3.4-.8c3-.1 5.7 2.2 8.8 2.2 5.6.2 8.3-6.2 13-8" class="b"/><path d="M8.3 178.5c2-1.4 4.7-1.8 7-.9 3 1 5.5 3.7 8.7 3.7 3-.5 5.2-3.3 7.9-4.5 6.8-3.1 10.1 6 14 9.8h34c3.5-1.5 5.2-5.5 7-8.7 2.7-4.8 7.4-18.4 13-19.4 1.3 0 2.5.8 3.5 1.4q2 1.3 4.4 1.4c4.1.2 7.3-3.4 11.3-3.8 1.8-.1 3.2 1.3 4.4 2.4l4.3 4.7c3 3.4 6 7 9.6 9.7s8.2 3.6 12.2 5.4c3 1.1 6.3 2.6 9.6 2.3 1.2-.2 2.4-.8 3.5-.7 2.8.5 5.1 2.3 7.9 2.6 5.7.6 8.5-5.5 13-7.7" class="b"/><path d="M8.3 178.8c4.7-3.6 8.3-1.7 13.1.3 2.5 1 4.9 0 7-1.3 5.6-3.5 9-2 13 2.7l4.4 5H79c.8 0 1.8.2 2.6-.2 3.3-2.7 5-7 7-10.7 2.5-4.4 6.9-16.2 12.2-17 1.2 0 2.4.9 3.5 1.2 2.2.8 4.8.6 7-.4 5.3-2.1 8.1-5.7 13-.2 5 5 8.7 11.5 14.9 15 2.2 1.1 4.8 1.5 7 2.6 3.5 1.6 6.7 4.1 10.4 5.3q1.3.4 2.6.3c.8 0 1.9-.5 2.7-.6 2.8-.2 5.2 1.8 7.8 2.5 6.1 1.8 9.5-4.8 14-7.5" class="b"/><path d="M8.3 179.1q4.7-4 10.5-2.3 2.6 1 5.2 1c3.6-.3 6.8-2.9 10.5-2.1s6.3 3.8 8.7 6.4c1.7 1.7 1.6 2.7 4.4 2.5h32.3q1.3 0 2.6-.3c3.8-4.2 6-9.5 8.7-14.4 2.3-4 5.2-11.2 9.6-13.1 1.1-.3 2.4.2 3.5.4q1.7.3 3.5 0c3-.4 5.8-2.1 8.7-3.4 3.2-1.4 5.5-.5 7.8 1.9q3.3 3.4 6.1 7.2c2.8 3.2 5.5 7 9.6 8.6q2.8.4 5.3 1.5c4 2 7.2 5.5 11.3 7.4q1.7.9 3.5.5 1.7-.7 3.5-.4c2.7.6 5 2.4 7.9 2.6 5.4.4 8.3-5 12.2-7.9" class="b"/><path d="M8.3 179.5c3.2-2.9 7-4.6 11.4-3.6 1.7.3 3.5.7 5.2.4 2.6-.4 5.2-1.2 7.9-1 5 .6 8.8 4.7 12.2 8 1.6.5 3.5.2 5.2.3h32.3c1.4-.9 2.5-2.7 3.5-4a107 107 0 0 0 5.2-9.2c2.2-3.6 6.7-15 11.3-14.9 6.9.7 9.9-2.3 15.7-4.2 7.9-2.2 13.8 16.3 21.8 18.3 6.6-.1 10.2 5.4 14.9 9.1 1.4 1.2 3.3 2.4 5.2 2q1.7-.8 3.5-.6c2.4.5 4.6 2 7 2.5 5.8 1.2 9.2-4.8 13-8.1" class="b"/><path d="M8.3 179.9c3.1-2.9 7-5.4 11.4-5q2.6.3 5.2.3c9-1.2 13.3 2 20 7.4h38.4c5.4-5.7 8.5-13.2 12.3-20 1.6-2.8 3.2-6.3 6-8q2.6-.7 5.3-1a40 40 0 0 0 7-2.5c2.2-.9 4.5-2 7-1.6 6 1.2 10.8 13.5 16.5 17.2a6 6 0 0 0 3.5 1.1q1.8-.2 3.5.4c5.4 2 10.4 13 15.7 12.4 3.5-2 7 .8 10.5 1.5 6 1.2 9.4-5 13-8.5" class="b"/><path d="M8.3 180.2c4.8-4.4 8.2-6.6 14.9-6 7.4-.4 13 2.5 19.2 6.2.7.4 1.7 1.1 2.6 1.2h36.6q1.4 0 2.6-.3 3.6-3.8 6.1-8.4c2.2-3.7 4.2-7.9 6.2-11.7 1.4-2.7 2.8-5.8 5.2-7.7 2.4-1.3 5.3-1.8 7.8-2.7 3.5-1 6.9-2.7 10.5-3 3-.2 5.3 2.3 7 4.5q2.7 3.7 5.2 7.3c8 10.9 7.9 4.1 13 7 4.8 3.3 7.2 9 11.4 12.6 3.5 2.9 4.3-.2 7.9.6 2 .4 4 1.4 6 1.7 6.2 1 9.7-5 13.2-9" class="b"/><path d="M8.3 180.4c4-3.7 8.2-7.2 14-6.8 6-.4 11.3 2.8 16.6 5.2q2 1 4.3 1.8h41c6.5-5.2 9.4-14 13.1-21.1 3.5-7.2 4.6-8.2 12.2-10.5 3.8-1 10.4-3.7 14-1.8 5.6 3.5 10 17.2 16.5 17.5.5 0 1.4-.3 1.8-.5 1.5-.5 3.2.3 4.3 1.3 4.4 3.5 8.3 13.6 13.1 15q1.5-.2 2.6-.8c2-.5 4.2.2 6.2.7 1.9.4 4 0 6 .2 4.5-1.3 6.9-6 9.7-9.3" class="b"/><path d="M8.3 179.6h.9c4.9-3.6 7.2-6.7 14-6.3 4.8-.2 8.8 3.1 13 5 1.4.5 3 1.4 4.4 1.3h44.5c8.6-7.2 10.3-19.3 16.6-28.2 3.4-3.4 8.4-4.4 13-5.2q2.6-.5 5.3-.7 1.7-.3 3.5.4c2.6 1.6 4.3 4.6 6 7.1 2.4 3.4 4.5 7.4 8 9.8 2.9 1.8 3.5-.5 6-.3 5.8 1.7 9.2 13 14 17q3 .2 6.1-.2 1.4 0 2.6.2h8.7c4-1.9 6.2-6 8.8-9.4" class="b"/><path d="M8.3 178.5c2.5.1 2.6 0 4.4-1.6q2.3-2 5.2-3 3.4-1 7-.5c3.9.7 6.9 3.8 10.5 5.1H85q1.2-.1 1.8-.8 2-1.8 3.5-4c3.3-5 5.5-11 7.9-16.5 2.3-5.7 4.7-10.1 11.3-11.5 3.7-.8 7.6-.8 11.3-1.1 3.2-.7 5.4 2.5 7 4.7 3 4 6 10.8 10.5 12.9 2.5.9 3.6-2 6.1-1 2.4 1.2 3.9 3.7 5.2 5.8 2.3 3.7 4.3 7.9 7 11.3 1.6.6 3.6.1 5.3.3h13c4.2-1.8 6.3-6.4 8.8-9.8" class="b"/><path d="M8.3 177.5h3.5c1.5-.7 2.9-2 4.4-2.6 2.9-1.4 6.4-1.7 9.6-1 2.2.9 4 2.5 6 3.6h51.6c1 0 2.4.2 3.4-.2a25 25 0 0 0 7-9.9c2.5-5.3 4.4-11.2 7-16.5 2.3-4.8 7-7.3 12.2-7q4.9.3 9.6-.2c4.3 1 7.8 9.2 10.5 12.6 1.5 2 3.3 4.8 6.1 5 2.6-.2 3.2-3 6.1-1 5.3 4.5 6.8 12.1 11.4 17.2h16.5c1.2 0 2.6.1 3.5-.8 3-2.4 5-6 7-9.2" class="b"/><path d="M8.3 176.5h5.3c3.9-2 6.9-2.7 11.3-2 1.6.3 2.9 1.5 4.4 2h53.2c1.6 0 3.6.4 5.2-.3 4.6-3.7 6.5-10 8.7-15.2 3.8-9.2 5.5-20.6 18.3-17.8q4 .8 7.9 0c4 .8 7.2 8 9.6 11.2 1.8 2.4 4.2 7 7.8 5.8.9-.4 1.8-1.4 2.6-1.8 2.4-.6 4.1 1.8 5.3 3.4q2.9 4.7 5.2 9.5c1 1.7 1.8 4.2 3.5 5.2h19.2c3.6-2.4 5.6-6.6 7.8-10.2" class="b"/><path d="M8.3 175.5h8.8q3-.6 6-.2c5.2.5 10.5.1 15.8.2H86q1.4.2 2.6-.4c6.3-6.1 8.5-18 12.2-25.9 1.8-4.2 5.4-8.4 10.5-7.4 2.9.5 5.7 1.7 8.7 1.6 3-.5 3.7-.8 6 1.7 2.7 3 4.7 6.7 7 10 1.7 2 4 5.5 7 4.2.9-.5 1.8-1.6 2.7-2 2.3-.9 4 1.7 5.2 3.3 3 4.5 5 9.9 7.9 14.5q1.1.6 2.6.4h13.1c1.7-.1 3.6.4 5.2-.3 3.1-2.5 5-6.4 7-9.9" class="b"/><path d="M8.3 174.5h80.3c5.1-4.5 7.1-13 9.6-19.2 2.2-5.4 4-14.6 11.3-14.6 4.5.4 8.5 3.8 13.1 2.2 5.7.7 9.2 13.2 14.8 15.6 3 1 3.7-2.2 6.1-2.6 5.3 0 9.7 16.5 13.1 18.6h20c3.4-2.3 5-6.5 7-9.9" class="b"/><path d="M8.3 173.5h80.3c6-3.1 9.8-23 14-29.4 5.3-8.2 9.8-2.1 16.5-.7 1.5.3 3-.6 4.4-.4 4 1.7 6.7 7.6 9.6 11 1.6 2 4.2 5 7 3.3 1-.8 2-2.4 3.5-2.6 5.3.1 9.3 15.3 13 18.8h21c2.8-2.4 4.2-6.2 6-9.3" class="b"/><path d="M8.3 172.5h81.2c4.6-5.2 6.3-12.4 8.7-18.7 2-4.8 4-14.8 10.4-14.7 4.7.4 8.3 5.5 13.1 4.2 5.2-1.6 10 11.2 14.8 13.3 3.8 1.6 4.3-2.1 7-2.9 5-.3 9.9 14.9 13.1 18.8h21.8c2.3-2.3 3.6-5.7 5.3-8.5" class="b"/><path d="M8.3 171.5h81.2c4.5-5.1 6.3-12.4 8.7-18.7 2-4.6 4-15 10.4-14.5 4.2.7 7.2 4.8 11.4 5.4 2.2 0 3.1-.9 5.2.7 4 3.2 6.3 8.4 10.5 11.4 3.4 2.1 4.6-.3 7-2.2 4-1.8 7 5.8 8.7 8.5 1.6 3 3.2 6.5 5.2 9.3q6.5.1 13 .1 5 .2 9.7-.1 2.4-3.8 4.3-7.7" class="b"/><path d="M8.3 170.5h81.2c4.5-5.2 6.3-12.4 8.7-18.7 1.9-4.5 4-15.1 10.4-14.2 4.3 1 7.1 5.2 11.4 6.2 1.4.3 3-.4 4.3.4 4.7 3 6.9 8.6 11.4 11.6 3.4 2 4.6-.3 7-2.2 5.4-2.6 10.5 13.7 14 16.9h22.6c2-2 3-5 4.4-7.3" class="b"/><path d="M8.3 169.5h81.2c4.4-5.3 6.2-12.4 8.7-18.7 2-4.6 4.4-16 11.3-13.7 4.2 1.7 6.9 6.2 11.4 7 1 0 2.4-.1 3.4.5 4.6 3 6.9 8.4 11.4 11.4 3.3 2 4.5-.1 7-2 5-2.5 10.4 11.8 13 15 1.3.8 3 .4 4.4.5h18.3q1 0 1.8-.5l3.5-6.4" class="b"/><path d="M8.3 168.5h81.2c4.2-5.4 6.2-12.4 8.7-18.6 2-4.9 4.8-16.8 12.2-13 3.7 2 6.3 6.1 10.4 7.3q1.9 0 3.5.9c4.5 3 6.9 8.3 11.4 11.3 3.2 2 4.5.1 7-1.7 5.4-2 9.8 10.8 13 13.8h21q1.7.1 3.5-.3l3.4-6.3" class="b"/><path d="M8.3 167.5h81.2c4.1-5.4 6.2-12.2 8.7-18.4 2-4.3 4.3-14.3 10.4-13.3 5 1.4 7.5 6.7 12.3 8.5 3.4.2 5.7 3 7.8 5.4 2.7 3 5.4 7.6 9.6 8.2 2.4.1 3.7-2.8 6.1-2.4 4.8 1.4 7.4 8.3 10.5 12h16.5c3-.1 6 .2 8.8-.2l3.5-6.2" class="b"/><path d="M8.3 166.5h81.2c5.3-7 7.4-16.3 11.3-24.2 4.7-9.8 9-8 15.7-1.2 5.9 5.6 5.8 1.3 12.2 9.2 2.7 3 6 8.5 10.5 8.3 1.8-.3 3.2-2.3 5.2-1.9 4.6 1.4 6.7 6.4 9.6 9.8h16.6c3.1-.1 6.4.2 9.6-.2l3.5-6.1" class="b"/><path d="M8.3 165.5h81.2c1.5-1.3 2.4-3.8 3.4-5.6 2-3.7 3.6-8 5.3-11.8 2.2-4.7 5.3-15 12.2-12.1 4.6 2.1 7.3 7.3 12.2 9 5 3 7.7 8.8 12.2 12.6 1.4 1.2 3.3 2.3 5.2 1.8q1.3-.7 2.7-1.3c2.8-.7 5.2 1.7 7 3.6 1 1.1 2 2.8 3.4 3.8h23.5q1.9.1 3.6-.3c1-1.9 2.3-4.2 3.5-6" class="b"/><path d="M8.3 164.5H87c1-.1 2.5.2 3.4-.5 3-5 5.5-10.7 7.9-16.1 2.2-4.4 4.7-12 10.4-12.3 5.2.6 8.1 5.8 12.3 8.5 7.1 3 11.2 15.2 18.3 16.4 1.2 0 2.4-.7 3.5-1 3.6-.6 6.4 2.7 8.7 5h25.3c1.1-.1 2.5.2 3.5-.5l3.5-6" class="b"/><path d="M8.3 163.5h82c4-6.6 6.8-14 10.5-20.6 5-8.6 9.5-9.3 16.6-2.2q2 2 4.3 3.7 2.6 1.7 4.4 4c3.7 4.2 6.5 9.5 11.3 12.4q1.7.8 3.5.6 2.2-1 4.4-.2c1.5.4 2.9 1.7 4.3 2.3h29.7c.6-.4 1.4-1.7 1.7-2.3l2.7-4.3" class="b"/><path d="M8.3 162.5h82c1.6-1.4 2.5-4 3.5-5.7l4.4-8.5c2.2-4.1 4.6-8.8 8.7-11.3 5.1-2.8 9.6 2.5 13 5.7 6.1 4.5 9.7 11.4 15 16.8 1.3 1.3 3.1 2.8 5.1 3 1.1 0 2.4-.4 3.5-.3 3.8.5 7.6.2 11.4.3h24.4c1.6-2.1 2.8-4.8 4.4-6.9" class="b"/><path d="M8.3 161.4h82.9c4.1-6.5 11.6-25.1 20-24.8 3.2.3 5.7 2.7 8 4.8 1.6 1.7 3.6 3.4 5.1 5.2 4.3 4.8 7.3 10.8 12.3 14.8h42.7q2-3.7 4.4-7" class="b"/><path d="M8.3 160.4h82.9c.7-.2 1.5-1.4 1.7-2l2.7-4.5a77 77 0 0 1 7.8-11.3c4.5-5.4 9-8.2 14.8-2.6 6.6 5.9 10.9 13.8 16.6 20.3 9 .3 18 0 27 .1h14.9q1.4.2 2.6-.4c1.3-2.3 2.8-4.9 4.4-7" class="b"/><path d="M8.3 159.4h83.8c1.7-1.7 2.8-4.3 4.3-6.2q3.2-4.7 7-9c3.1-3.7 7.9-9.4 13-6 2.8 1.8 5 4.6 7 7.1 3.7 4.6 6.7 9.8 10.5 14.1h44.5a8 8 0 0 0 1.8-2.4l3.5-5.4" class="b"/><path d="M8.3 158.4H93c1.7-1.5 2.9-3.8 4.4-5.5q3-3.6 6.1-7c3.3-3.6 7.3-10.7 13-8 3 1.6 5 4.6 7 7.2 3.3 4.3 6.2 9.1 9.7 13.3h45.3c1.7-2.7 3.3-5.7 5.3-8.2" class="b"/><path d="M8.3 157.4h81.2c5.6 0 4 1 7.8-3.4l6.1-6.3c2-2.5 4-5.3 6.1-7.5 5.4-5.8 9.6-1.8 13.1 3.3q4.7 7 9.6 13.8 23.1.2 46.2 0c1.4-2.9 3.3-6 5.3-8.5" class="b"/><path d="M8.3 156.4h87.3c1.3-.5 2.3-2 3.4-2.8q3.6-2.8 6.1-6.5c2.7-3.3 5.7-9.6 10.5-9.8 3.3.3 5.3 3.5 7 6l7.8 11.4 1 1.2.8.5h43.6c.8 0 2 .1 2.6-.5q2.1-4.6 5.3-8.5" class="b"/><path d="M8.3 155.4h89.9c6.2-3.2 8.6-10.4 13-15.4 5.4-6 9.2-.6 12.3 4.3 2.5 3.6 4.9 7.7 7.8 11.1h46.2c1.2-1 1.9-3 2.7-4.2q1.5-2.7 3.5-5.1" class="b"/><path d="M8.3 154.4h93.4c4-3.8 6-9.4 9.6-13.7 5.3-6.6 8.8-2 12.2 3.4q3.3 5 7 10 1.2.4 2.6.3h44.5c1-1.2 1.8-3.2 2.6-4.6a44 44 0 0 1 3.5-5" class="b"/><path d="M8.3 153.4h95.1c4-4.2 6.6-13.5 12.2-15.7 3.9-.8 6 3.7 7.9 6.3 2.2 3.1 4.3 6.6 7 9.4h47c1.9-3.4 3.7-7 6.2-10" class="b"/><path d="M8.3 152.4h96c1.6-1 2.4-3.5 3.5-5.1 1.5-2.6 3.1-5.5 5.2-7.7 4.6-4.7 8 .5 10.5 4.4l6 8.2c2 .4 4.2 0 6.2.2h41.9c1.7-3.4 3.6-7 6-9.9" class="b"/><path d="M8.3 151.4h96.9c4.2-4.9 9.2-20.7 16.5-10l5.3 7.4c.9 1 1.8 3 3.4 2.6h21.9q12.6 0 25.3-.1 2.5-5.1 6-9.5" class="b"/><path d="M8.3 150.4h85.5c4-.1 8.2.2 12.2-.2 3-4.6 8.4-18 14.9-9.9q2.5 3.7 5.2 7.3c.7.9 1.5 2.3 2.6 2.8h42.8c2-.1 4.1.2 6-.2q2.8-4.7 6.2-8.9" class="b"/><path d="M8.3 149.4H106c3.3-4 7.5-16.2 14-10 2.9 3 4.6 7.3 7.8 10h43.7c2-.1 4.1.2 6-.2q3-4.3 6.2-8.2" class="b"/><path d="M8.3 148.4H106c3.3-3.4 7-14.6 13.1-10 3.2 2.7 4.8 7.2 7.9 10h20c4-.1 8.2.2 12.2-.3 3.2.4 6.5.2 9.6.3h5.3q1.7 0 3.4-.2 3-3.8 6.2-7.4" class="b"/><path d="M8.3 147.4H106c3-3 5.4-10.7 10.5-10.5 4.7 1.2 6.4 7.3 9.6 10.5h28.8c2.3-1.6 5.3-2.5 7.8-1 .8.3 1.7 1.1 2.7 1 4-.1 8.2.2 12.2-.2q3-3.2 6-6.5" class="b"/><path d="M8.3 146.4H106c2.2-2.6 3.6-6 6.1-8.3 6-5.6 10.2 4.2 13.1 8.2q13.1.1 26.2 0h1.7l1.8-1c1.5-1 3.3-2 5.2-2 2.6 0 4.8 1.7 7 2.8 1.3.4 3 .2 4.3.3l6.1-.1c2.3-1.6 4.1-3.8 6.2-5.6" class="b"/><path d="M8.3 145.4H106c3.4-4.7 7.9-14.3 14-7q1.9 2.4 3.5 5c.3.5 1 1.7 1.7 2l27-.1c3-2.3 6.7-4.7 10.5-3.6 2.8.8 5.2 2.6 7.9 3.6 8.5.1 6.5.9 13-4.5" class="b"/><path d="M8.3 144.3H106c7.4-12.4 11-12.3 18.4 0h27c4.8-3.7 10-6.2 15.7-2.9 2.5 1.1 5 3 7.8 3q1.8 0 3.5-.3c1.9-.7 3.6-2.1 5.3-3.2" class="b"/><path d="M8.3 143.3h93.4c1.4 0 3 .3 4.3-.3 3-4.5 7.5-12.8 13.1-6.6 2 2 3.3 5 5.2 7h26.2q5.1-3.7 11.3-4.8 3.3-.1 6.2 1.4c6.5 3 9 5.3 15.7 1" class="b"/><path d="m8.3 141.8.9.5h96c1.5-1 2.3-3.1 3.4-4.5 3.6-5.1 7.1-6.5 11.4-1.1 1.2 1.5 2.5 3.5 3.5 5.1.7.7 1.7.5 2.6.5h20q2.3.2 4.4-.1a25 25 0 0 1 7-3.1c2.5-.7 5.2-1.8 7.8-1.4 7.4 1.2 10.2 7.4 18.4 3.3" class="b"/><path d="M8.3 140.2c1.4 1.6 3.4 1 5.3 1.1h91.6c2-1.8 3.2-4.9 5.2-6.8 5.5-6.3 10.3 2 13 6.6 1.1.4 2.5.2 3.6.2h20.9q1.3.1 2.6-.2l3.5-1.4c2.3-.7 4.8-1 7-1.9a11 11 0 0 1 7.8-.5c2.2.7 4.2 2 6.1 3l1.8.9q1.2.2 2.6.1c1.4 0 3 .2 4.4-.2" class="b"/><path d="m8.3 139 1.8 1.3h95c2-2 3.3-5 5.3-7 5.5-6.2 10.4 2.3 13 6.8 2.6.5 5.3.1 8 .2h19.1c2.2-.9 4.7-1 7-1.3 4-.5 7-3.7 11.3-2.7q2.9.6 5.3 2.3c1 .6 2.2 1.6 3.4 1.7h6.2" class="b"/><path d="M8.3 138.2c1.4 1.6 3.4 1 5.3 1.1h91.6c2-2 3.2-5 5.2-7 5.5-6.4 10.3 2.2 13 6.8 1.4.4 3 .1 4.4.2h29.7c1.9.2 3.7-1 5.2-1.9 1.8-1 4-2 6.1-2q2.9.3 5.3 2c1 .6 2.2 1.7 3.5 1.9h6" class="b"/><path d="m8.3 137.8.9.5h96c.6-.2 1.4-1.4 1.7-2a39 39 0 0 1 3.5-5c2.3-2.7 5.1-3.3 7.8-.7q3.1 3.2 5.3 7.3.8.5 1.7.4h34c1.1 0 2.5.3 3.5-.3 2-1.5 4.4-3.2 7-3.1 1.9 0 3.7 1 5.2 2 .8.5 1.7 1.3 2.6 1.4h6.1" class="b"/><path d="M8.3 137.3h92.5q2.7.2 5.2-.2c3.4-5.6 7.7-14.2 14-6l2.6 3.8c.3.6 1.1 2 1.7 2.4h38.4q1.6.2 2.6-.8c2.6-2.2 5.8-3 8.8-1.1 1.1.5 2.2 1.8 3.5 2h6" class="b"/><path d="M8.3 136.3h38.4c2.3-.7 4.6-1.7 7-1.6 2.4-.1 4.7 1 7 1.6H106c2.2-2.7 3.5-6.2 6.1-8.5 5.5-4.6 9.8 4.7 12.3 8.5H161c1.7-.1 3.6.2 5.2-.2 2.1-2 5.2-3.1 7.9-1.6 1.1.5 2.2 1.8 3.5 1.8h6" class="b"/><path d="M8.3 135.3h32.3c1.8.2 3.6-.6 5.2-1.3q3-1.3 6.2-1.6c3.3-.3 6.6 1.2 9.6 2.6 1.3.5 3 .2 4.3.3h35.8c1.7-.1 3.6.3 5.2-.3 2-3.4 5.4-11.6 10.5-9.1 3.2 2 5.4 5.7 7 9.2 1.6.4 3.5.1 5.2.2H167c3.8-2.5 5.8-2.7 9.6 0h7" class="b"/><path d="M8.3 134.3h27.9q1.8.1 3.5-.2 2.9-1.9 6.1-3c3-1.1 6.5-1.5 9.6-.4 2.5.8 4.7 2.2 7 3.3 1.7.5 3.6.2 5.3.3h39.2c1.1-1 1.9-3 2.6-4.1 1-1.6 2.2-3.5 3.5-4.7 3.4-3.3 6.7.2 8.7 3 1.4 1.7 2 4.2 3.5 5.8H168c.9 0 1.8-.8 2.6-1.1 1.7-.7 3.7-.2 5.2.8 1 .5 2.4.2 3.5.3h4.4" class="b"/><path d="M8.3 133.3h28.8c1 0 1.9-1.2 2.6-1.7q2-1.6 4.4-2.5c3.3-1.3 7.1-1.8 10.5-.3 2.7 1 5.2 3 7.8 4.2 1.6.5 3.5.2 5.2.3h40.2c2-3.4 3.5-7.7 7-10 5-2.4 8.7 6.3 10.4 10h44.5c1.3-.6 2.9-1.2 4.4-.8.8.2 1.7.9 2.6.8h7" class="b"/><path d="M8.3 132.3h21c11.4 0 4.8.5 13-4.9 3.2-1.6 7.2-2 10.5-.6 3.2 1.2 5.8 3.5 8.7 5.1q1.3.6 2.7.4h40.1c1.4-.1 3 .3 4.3-.4 3.2-6.7 7.6-15.8 14-5.7 1.3 1.8 1.9 4.6 3.5 6h45.4c1.3-.6 3-.1 4.3 0h7.9" class="b"/><path d="M8.3 131.3h24.4q1.9.1 3.5-.3c3.8-5 8.4-8.6 14.9-6.1 3.2 1.2 5.9 3.6 8.7 5.5 1.2 1 2.9.9 4.4.9h44.4c2-2.7 3-6.3 5.3-8.8 5.7-6.7 10 4.5 12.2 8.8h57.6" class="b"/><path d="M8.3 130.3h27c2.2-2.4 4.1-5.4 7-7 5.9-2.8 11.4 2.2 15.7 5.5.5.3 1.3 1 1.8 1.2 1 .4 2.4.2 3.5.3h7l39.2-.1c2.5-5.6 7-16.9 13-7.4 1 1.4 2 3.4 2.7 4.9.3.7 1 2.2 1.8 2.6h10.4c2.3-.1 4.7.1 7-.4q1 0 1.7.4h37.5" class="b"/><path d="M8.3 129.3h23.5c1.2-.1 2.6.1 3.6-.4 8.5-13.2 13.8-7.2 23.5.3h50.6c2-2.8 3-6.6 5.3-9.3 5.8-6.8 9.7 5.4 12.2 9.3h14q3-2.9 6 0h36.7" class="b"/><path d="M8.3 128.2h26.2c2-1.7 3.1-4.4 5.2-6.1 5.7-5.5 12 1.4 16.6 5q.8.8 1.7 1.1h51.5l.9-.5c2-5 6.5-16.7 12.2-8 1.2 1.8 2.4 4.2 3.5 6.2.3.6 1.1 2 1.7 2.3h10.5c2 .4 2.7-2 4.3-2.5 2.2-.7 3.8 1.4 5.3 2.5h35.7" class="b"/><path d="M8.3 127.2h26.2c8-12.1 11.4-9 21-.8 1.2 1.4 3.5.7 5.2.8h7.8q21 .1 41.9 0c1.8-4 5.7-16.5 11.3-10.1 2.4 3 4 6.7 6.1 9.9 1.4.5 3 .1 4.4.2h6.1c4-4.6 5.6-5.5 9.6 0q18 .2 35.8 0" class="b"/><path d="M8.3 126.2H25q4.8.2 9.6-.1c2.9-4.7 7.3-10.4 13-6.2 2.9 1.9 5.2 4.5 8 6.3h54.9c1.8-3.8 5.6-16.7 11.3-10.5 2.7 3.2 4.3 7.3 7 10.5h5.2c1.1 0 2.5.2 3.5-.4 1.4-1.4 2.7-3.2 4.4-4.3 2.2-1 4 1.3 5.2 2.9.6 1 1.3 2 2.6 1.8h34" class="b"/><path d="M8.3 125.2H31c1.1 0 2.5.3 3.5-.3 7.4-11.4 11-6.9 19.2.2 1.6.3 3.5 0 5.2.1h51.5c2-4.4 6.2-18 12.2-9.8 2.3 3.2 4 7.1 7 9.8h6q2.4-2.1 4.4-4.5 2.7-2.8 5.3 0c1.3 1.2 2 3.3 3.5 4.5h34.9" class="b"/><path d="M8.3 124.2h25.3c.7-.2 1.5-1.2 1.8-1.8l2.6-3c5-4.4 9.3.3 13 3.6q.9.8 1.8 1.2h57.6c1.5-3.4 5.2-15.6 10.4-12 2.6 2.3 4.1 5.7 6.2 8.3 1.2 1.6 2.9 4 5.2 3.7.8 0 2 0 2.6-.5 2.3-1.6 4-4 6.1-5.7 3.8-2.5 6 4 7.9 6.2h34.9" class="b"/><path d="M8.3 123.2h25.3a7 7 0 0 0 1.8-1.9q1.5-1.8 3.5-3.2c4.8-2.7 8.7 2.5 12.2 5.1h56.7q1.4.2 2.6-.4c1.5-3.4 5.2-15.4 10.5-11.7 2.4 2.1 4 5.4 6 8s4.8 4.8 8 2.6c2.2-1.5 3.8-4 6-5.5 3.7-2.2 6.1 4.8 7.9 7h34.9" class="b"/><path d="M8.3 122.2h25.3c1.5-1.2 2.7-3.2 4.4-4.2 4.2-2.7 8.3 1.4 11.3 4 7 .4 14 .1 21 .2h39.2c1.3-1.1 1.9-3.6 2.6-5.1 1.5-2.8 3.3-7.8 7-8 3.4.8 5.6 6 7.9 8.5 1.6 2 4.2 4.3 7 2.9 2.3-1.2 4-3.5 6-5.2 4.2-3.6 6.9 4.3 8.8 7h34.9" class="b"/><path d="M8.3 121.2h25.3c1.2-1 2.2-2.4 3.5-3.3 3.2-2.3 7.1-.1 9.6 2.2q1.1 1.2 2.6 1.1h60.2c2-3.5 5.7-16.3 11.4-12.4 2.4 2 4 5.1 6 7.5 1.7 2 4.4 4 7 2.7 2.4-1.2 4.1-3.4 6.2-5 4.2-3.3 6.7 4.6 8.7 7.2h34.9" class="b"/><path d="M8.3 120.2h25.3c1.2-.9 2.2-2.3 3.5-3 3.5-2 7 1 9.6 3h62c.8-.3 1.4-2 1.7-2.7 1-2.2 2.2-4.8 3.5-6.8 5.1-8 8.4-1.4 12.2 3.4 1.8 2.3 4.7 5.2 7.8 3.7 2.3-1.1 4-3.2 6.1-4.7 4.3-3 6.6 4.7 8.8 7.1h34.9" class="b"/><path d="M8.3 119.2h25.3c3.3-3 5.6-4.2 9.6-1.5L45 119c1.3.4 3 .1 4.3.2H59q1.8.1 3.5-.2 1.2-.7 2.6-.9c1.5 0 3 .7 4.4 1h39.2c2-3.5 5.9-15.4 11.4-13 3 2 4.6 5.4 7 8 1.6 2 4.3 4 7 2.7 2.6-1.1 4.4-3.6 7-4.8 3.6-1.3 5.5 5.4 7.8 7.2h14c2.8-.1 5.8.3 8.7-.4q1.3 0 2.6.4h9.6" class="b"/><path d="M8.3 118.2h25.3c4.2-3.6 6.3-3.2 10.5 0h14.8c1.5.2 2.5-1 3.5-1.7 3-2 6.3-.1 8.7 1.7h36.7c2.8-3.5 5.2-13.1 10.5-13.5 3.7.5 5.5 4.8 7.8 7.4 1.8 2.3 4.6 5.2 7.9 4 1.5-.6 3-1.8 4.3-2.8s2.8-2.2 4.4-1.7c2.4 1.3 3.8 4.1 5.2 6.3 1.6.6 3.5.2 5.2.3H168q1.6-1 3.4-1.1c1.6 0 3 1 4.4 1h7.9" class="b"/><path d="M8.3 117.2h25.3c3.8-3 5.8-3 9.6 0H59c1.5-1.2 2.7-3 4.4-3.8 3.3-1.5 6.5 1.3 8.7 3.4 1 .6 2.4.3 3.5.4h31.4l.9-.6c2.1-3.8 6.4-15.6 12.2-12.3 3 2 4.7 5.4 7 8 1.6 2 4.1 4.2 7 3.3 2.2-.7 4-2.5 6-3.6 3.8-2 5.7 3.2 7.9 5.2h18.3c2.6-1.9 5-2.6 7.9-1.1q1.2.8 2.6 1h7" class="b"/><path d="M8.3 116.2h25.3c2.4-1.7 4.1-3 7-1.5 1 .5 2.2 1.7 3.5 1.5h14c2.8-3.5 5.5-8.3 10.4-4.8 2 1.3 3.4 3.4 5.3 4.8h33.1c3.2-5.5 8.4-19.7 15.7-10.4 2.5 3 4.5 6.9 7.9 9s6.7-1 9.6-2.5c3-1.8 5.2 2 7 3.9h18.3c2.4-2.7 5.5-3.6 8.7-1.7 1 .5 2.2 1.7 3.5 1.7h6" class="b"/><path d="M8.3 115.2h25.3c2.4-1.7 4-3.1 7-1.6 1.1.5 2.2 1.8 3.5 1.6H52c1.6-.1 3.6.2 5.2-.3 2.3-2.6 4.7-8.1 8.7-7.4 4 1.1 5.9 5.2 8.7 7.7H106c4-4.5 8-19 15.7-11.1 3.1 3.2 5 7.7 8.7 10.4a4 4 0 0 0 2.7.7q1.2 0 2.6-.2 2.3-1.1 4.3-2.2c2.6-1.4 4.4.9 6.2 2.4h18.3c5-5.3 7.7-3.6 13-.2 2 .3 4.2 0 6.2.2" class="b"/><path d="M8.3 114.2h25.3c1.8-1.4 3.7-3.2 6.1-2.4 1.6.4 2.9 1.8 4.4 2.4h10.5c1.1.2 2-.8 2.6-1.7l3.5-4.8c3.6-5 7.2-2.5 10.4 1.3 1.5 1.6 2.7 4 4.4 5.2H106c3.9-5.7 8.9-19.6 16.6-9.9 2.7 3.2 4.5 7.4 7.9 9.9h7.8c2.4-1 3.8-2 6.1 0H162c1.5 0 2.5 0 3.5-1.3 1.7-1.9 4.4-3.2 7-2.3 2.4.8 4.4 3 7 3.6h4.3" class="b"/><path d="M8.3 113.2h25.3c2.6-2.2 4.5-3.9 7.9-2 1.1.5 2.2 1.9 3.5 2h9.6c1-.5 1.9-1.9 2.6-2.8q2-3 4.4-5.8c5.3-5.9 10.9 4.5 14 8.2 1.2.6 2.9.3 4.3.4H106c3.8-5.9 9-19 16.6-9.7 2.4 3 4.3 6.7 7 9.5 4 .3 8.2 0 12.2.2h21.8c1-.6 1.8-1.7 2.6-2.4 3.2-2.7 6.5-1.5 9.6.6 1 .7 2.3 1.6 3.5 1.8h4.4" class="b"/><path d="M8.3 112.2h25.3c4.5-4.4 6.7-3.6 11.4 0h6c1.2-.1 2.6.2 3.6-.5 2.9-2.9 4.8-6.8 7.8-9.6 5.4-4 11 6.7 14 10H106c3.8-5.6 9-18.2 16.6-9.3 2.5 2.9 4.3 6.6 7 9.3h34c3.1-3.3 6.1-5.2 10.5-2.5 1.4.8 2.8 2 4.3 2.5h5.3" class="b"/><path d="M8.3 111.1h25.3c5-4.9 7-3.4 12.2 0H52q1.5.2 2.6-1 1.8-2 3.5-4.1c1.9-2.2 3.7-5.8 7-6 3.4.5 5.7 3.6 7.8 6 1.4 1.6 2.6 3.8 4.3 5.1H106c3.8-4.6 8.4-16.6 15.7-10 3.2 2.9 5 7 7.9 10h21.8q6.1.2 12.2 0c2.6-3 6-4.7 9.6-2.5 1.5.7 2.8 2 4.4 2.5h6" class="b"/><path d="M8.3 110.1h25.3c2-1.7 4.2-4 7-3.2 2.5.5 4.5 2.9 7 3.2H52c3.4-1.2 5.4-4.8 7.8-7.3 1.5-1.8 3.6-4 6.1-3.3 4.9 1.5 8 6.8 11.4 10.4 1.3.5 3 .2 4.3.2H106c1.3-.4 2-2.2 2.7-3.2q1.9-3 4.3-5.7c7.2-7.4 12.4 4.1 16.6 8.9q11.3.1 22.7 0h10.4a4 4 0 0 0 1.8-1q1.1-1.2 2.6-1.7c2.4-1 5 0 7 1.3.7.5 1.7 1.4 2.6 1.5h7" class="b"/><path d="M8.3 109.1h25.3c1.9-1.8 4.2-4 7-3.4 3.8.8 7.2 4.6 11.3 3 3.7-1.5 6-5 8.8-7.5 6.4-6.6 12.8 4 17.4 8H107c3.4-4.6 8-14 14.8-9.6 3.2 2.4 5.3 6.1 7.9 9q.8.6 1.7.5h31.4c2-1.1 3.8-2.8 6.2-2.7 2.2 0 4.3 1.4 6 2.6q4.5.1 8.8.1" class="b"/><path d="M8.3 108.1h25.3c8.4-9.3 12.3 3.5 21-2 4.5-2.9 7.8-9.4 14-6 2.5 1.3 4.8 3.4 7 5.3 1.2 1 2.4 3 4.3 2.7h24.4c1.1 0 2.5.2 3.5-.3 3.5-5.2 9-13.7 15.7-7.7 2.5 2.4 4.6 5.4 7 8q16 .2 32.3 0c2.4-2 5.7-3 8.7-1.4 1 .4 2.2 1.6 3.5 1.4h8.7" class="b"/><path d="M8.3 107.1h25.3c5.7-6.1 8.4-3 14.9-1.3 2.7.6 5.5-.3 7.8-1.8 2.3-1.4 4.4-3.5 7-4.4 6-1.4 11 4.6 15.7 7.5h28.8c1-.5 1.9-2 2.6-3 1.5-1.9 3.2-4 5.2-5.2 6.8-4.3 11.5 4.3 15.7 8.2H162l1.7-.7a9 9 0 0 1 3.5-1q1.8 0 3.5.6c.8.3 1.8 1 2.6 1.1h10.5" class="b"/><path d="M8.3 106.1H25q4.4.2 8.7-.1c7.4-8 12 .2 20-1.8 5.3-1.3 9.1-6 15-3.8a33 33 0 0 1 6.9 3.5l2.6 1.6q.8.7 1.8.6h28.7c3-3 5.3-7.3 9.6-8.6 5.9-1.7 10 5 14 8.4 1 .4 2.4.2 3.5.2h26.2a10 10 0 0 1 5.2-1.3q2.3.1 4.4 1.3h12.2" class="b"/><path d="M8.3 105.1h24.5c1-.2 1.8-1.3 2.6-1.8 1.7-1.3 4-2.1 6-2 3.3.3 6.4 1.7 9.7 2 6.8.7 11.4-4.4 18.3-2.2q3.7 1 7 2.8L79 105h30.5c3.8-4 8.6-10.9 14.9-7.7 3.7 1.8 6.3 5.3 9.6 7.7h27a12 12 0 0 1 4.4-1.1q2.7.1 5.2 1.1h13" class="b"/><path d="M8.3 104.1h24.5c6.4-5.5 9.9-4 17.4-2.3 10.3 2.2 13-2.8 24.4 1.1 1.4.4 2.9 1.3 4.4 1.2h31.4c9.4-10.6 13.2-11 23.5-1.1 1.4 1.7 3.4 1 5.3 1.1h20a15 15 0 0 1 5.3-1q2.6.2 5.2 1h14" class="b"/><path d="M8.3 103H25c2.6 0 5.3.4 7.9-.1q1.6-1.4 3.4-2.4c3.2-1.7 7-1.6 10.5-.9 4 1 8 2.5 12.2 2.8 2.6.2 5.3-.3 7.9-.2q3 0 6 .5 2.3.5 4.4.4h34c2.6-2.3 4.8-5.3 8-7 6.7-4 12.8 2.5 17.4 7q9.6.2 19.1 0 1.9 0 3.5-.8 1.8-.5 3.5-.3c2.1 0 4.2.7 6.1 1.1h14.9" class="b"/><path d="M8.3 102H32c7-5.5 14.1-4.8 21.8-1.3q1.7.7 3.5 1.3H112c4.5-4 8.8-10 15.7-8 4.4 1.4 7.1 5.3 10.5 8H154c2.3-.5 4.5-1.8 7-1.5 2.3.1 4.7.9 7 1.6h15.7" class="b"/><path d="M8.3 101H31c4.3-3 9.6-4.6 14.8-4a23 23 0 0 1 7.9 3l1.7.9c1.4.3 3 .1 4.4.2H113c2-1.8 3.9-4.2 6.1-5.9 2.5-1.8 5.6-3.4 8.7-3.1 4.5.7 7.4 4.7 10.5 7.7 1.3 1.6 2.5 1.3 4.4 1.3h6q2.3.2 4.4-.7c2.4-1.1 5.2-2.1 7.9-1.5 2.3.5 4.6 1.6 7 2.2h15.7" class="b"/><path d="M8.3 100h21c1.2-.2 2.3-1.1 3.5-1.6q3-1.5 6-2c3.8-.8 8-1.2 11.4.7 1.8.8 3.4 2.3 5.2 3h58.4c2.8-2.8 5.4-6 8.8-7.9 2-1.2 4.5-2.4 7-1.8 4 1.1 6.6 5 9.6 7.8q1.1 1.3 2.6 1.9h6.1c3-.6 5.7-2.7 8.7-3.1 3.5-.7 6.5 1.4 9.6 2.5 2.2 1 4.7.5 7 .6h10.5" class="b"/><path d="M8.3 99h18.4c1.5.2 3-1 4.3-1.5q3-1.2 6.1-2c8-1.4 11-1.8 17.5 3.6h52.3c2.6-.1 5.3.2 7.8-.2 2.7-3 5.4-6 8.8-8.2a11 11 0 0 1 5.2-2.4c4.7 0 7.5 4.6 10.5 7.4a7 7 0 0 0 8.7 2.1c3.9-1.3 8-4.1 12.2-2.5q3.4 1.8 7 3.3c1.9.8 4 .4 6 .5h10.6" class="b"/><path d="M8.3 98H25c1.8-.5 3.5-1.6 5.2-2q4.3-1.5 8.7-2c4.6-.5 8.2-1.3 12.3 1.6 1.1.7 2.2 1.9 3.5 2.5h60.1c1.7-1 3-3 4.4-4.4q2.8-3 6.1-5.4c5.5-4.4 9.4 0 13 4.2 2.5 2.7 5 4.5 8.8 3.3 2.6-.8 5.2-2.3 7.9-2.9 3-.7 5.4.7 7.8 2.3a21 21 0 0 0 7.9 2.8h13" class="b"/><path d="M8.3 97h14c1.7-.7 3.4-1.8 5.2-2.3 3.7-1.3 7.6-1.5 11.4-1.8s7.8-1.2 11.3 1.1q1.9 1.3 3.5 2.7 1.2.5 2.6.3 29.7.2 59.3 0a103 103 0 0 1 10.5-10.5c5-4.1 8.8 0 12.2 3.8 2.4 2.8 5 4.5 8.7 3.2 4-1.2 8.1-4 12.2-2 1.5.6 3 1.9 4.4 2.7q2.4 1.4 5.2 1.9 3.5.4 7 .4 1.4.1 2.6.5h5.3" class="b"/><path d="M8.3 96h7.9c1.4 0 3 .3 4.3-.3 5.3-4 11.2-4 17.5-4 3.4 0 7.2-.9 10.5.5q1.8.8 3.4 2.1c.8.6 1.6 1.7 2.7 1.8h61c1.7-1.2 3-3 4.4-4.5q3-3 6.1-6c5-4.6 8.6-1.1 12.2 2.8 2.5 2.8 5 4.4 8.7 3 3.9-1.3 8.2-4 12.2-1.8 1.5.8 3 2.1 4.4 3q2.8 1.5 6.1 1.7c2.6.2 5.3-.5 7.9 0q1.9.3 3.5 1.6 1.2.3 2.6.2" class="b"/><path d="M8.3 95h8.8q1.3-.6 2.6-1.5c5-3.8 9.7-3.8 15.7-3.4l6 .3q2.8 0 5.3.3 2.9.8 5.2 2.6c.8.6 1.7 1.6 2.7 1.7h61c1.4-.5 2.5-2.1 3.5-3.1l5.2-5.5c4.8-5.3 8.1-5.6 13.1-.4 3.4 3.5 5.6 5.4 10.5 3.3 3.5-1.5 7.6-3.7 11.3-1.6 1.5.9 2.9 2.2 4.4 3q2.8 1.6 6.1 1.5c3.5-.1 7.3-1.7 10.5.3 1.1.8 2.3 2 3.5 2.6" class="b"/><path d="M8.3 94h5.3c.9 0 1.8-.8 2.6-1.3l4.3-2.8q3.6-2.3 7.9-2.2c3.8.2 7.6 1.2 11.3 1.6 3 .4 6 .1 8.8 1.2q1.8.8 3.4 2c.8.4 1.7 1.3 2.7 1.5h61c1.5-.2 2.4-2 3.5-2.8 2.6-2.7 5-5.7 7.9-8.1 6.2-5.2 9.9 2.8 14.8 5.4 5.6 2 10.6-5.3 16.6-3 2.4 1.1 4.3 3.5 7 4.1 4.3 1.5 8.7-1.4 13-.5 2 .6 3.7 2.3 5.2 3.6" class="b"/><path d="M8.3 93q1.4 0 2.6-.2l1.8-1 6.1-4.1c2.6-1.7 5.6-3.1 8.7-2.5 5.3.8 10.3 3.2 15.7 3.7a20 20 0 0 1 10.5 3.8q1.2.5 2.6.3H65q25.8.2 51.5 0c3.7-3.4 6.7-7.5 10.5-10.8 4.3-3.6 8-.2 11.3 3 3.6 3.6 6.2 3.2 10.5 1 3.1-1.8 7-3.8 10.4-1.9 1.5.8 2.9 2.2 4.4 2.8q2.5 1.1 5.2.8c7.3-1.3 9-3.5 14.9 2.6" class="b"/><path d="m8.3 91.7 7-5.1q3.3-2.6 7-4.1c3.2-1.2 6.6.4 9.6 1.7 3.9 2 7.9 3.8 12.2 4.4q3.1.4 6.1 1.5c1.5.5 2.9 1.6 4.4 2h61.9q3.3-3 6.1-6.3c2-2.2 4-4.9 7-5.6 3.6-.7 6.3 2.5 8.7 4.6 3.6 3.7 6.5 2.7 10.5.3 3-1.8 6.9-4.1 10.5-2.3 1.4.8 2.7 2 4.3 2.6q2.6.9 5.3.3c7.1-1.7 9.2-3.3 14.8 2.9" class="b"/><path d="M8.3 88.9q3.4-3 7-5.8a22 22 0 0 1 7-4c3.5-1 6.8 1.5 9.6 3.3 3 2 6.1 4 9.6 5.2 4 1.1 8.4 1.5 12.2 3.3q4.3.1 8.7.1h54.1c4.5-2.8 7.7-10.4 13-11.4 3.3-.4 5.8 2.3 8 4.3 3.6 3.7 6 3.6 10.4.9 3.3-2.1 7.2-5.3 11.3-3.5 1.2.5 2.4 1.5 3.5 2q3.1 1 6.1.2c7.3-2 9.6-2.9 14.9 3.4" class="b"/><path d="M8.3 86c3.9-3.6 9.4-10 14.9-10.4 3.9.1 6.7 3.5 9.6 5.7 4.7 4.2 8.4 6.5 14.8 7.4q2.6.4 5.2 1.2 3.5.1 7 .1h56.7c1.4-.4 2.5-2 3.5-3 2.4-2.6 4.5-6 7.8-7.6 6.6-2.5 9.8 8.4 15.7 6.9 5.3-1.5 9-7.7 14.9-6.8 2.1.5 3.8 2.4 6 2.5 2.4.1 4.8-.7 7-1.3 5.8-1.8 8.8.4 12.3 4.8" class="b"/><path d="M8.3 83.2c3.8-4 7.7-9.2 13.1-10.7 3.1-.8 5.8 1.6 7.9 3.6 3.3 3.4 6.4 7.3 10.4 9.8a22 22 0 0 0 8.7 2.7c3.5.7 7 .3 10.5.4h58.5c6.9-6.4 9.5-16.3 19.1-6 3.3 3.3 5.5 4.3 9.6 1.5 4.3-2.8 9.4-9 14.9-5.4a8 8 0 0 0 6 .6c8.3-2.5 11.3-2.4 16.7 4.8" class="b"/><path d="M8.3 80.5c3.5-4.1 7.6-10.2 13.1-11.3 2.9-.4 5.2 1.8 7 3.8 3.4 4 6.4 8.5 10.5 11.8a13 13 0 0 0 8.7 3.2h69.8c2.5-1.6 4-4.6 6-6.8 5.5-6.4 9.5-1.9 14 2.5 2.7 2.6 4.8 2.7 7.9.7 4.2-2.7 7.7-7.8 13-7.8 1.3 0 2.5.8 3.6 1.2q2.2.6 4.3 0c8.8-2.7 12-1.6 17.5 5.9" class="b"/><path d="M8.3 77.8c3.2-4.1 7.5-11 13.1-11.7 3.1-.1 5.3 2.6 7 4.8 3.4 4.5 6.3 9.6 10.5 13.4 3.5 3.1 4.3 2.7 8.7 2.7h15.6q2.3-.6 4.4-.9 1.9 0 3.5.8l2.7.1h38.4q3 .2 6-.1c2.6-2.5 4.3-6 7-8.2 4.7-3.8 9 2 12.3 4.9 3.1 3.1 5.6 1.7 8.7-.6 3.8-2.9 7.1-7.6 12.2-8 1.8 0 3.4 1.4 5.2 1.2 2.7-.2 5.2-1.5 7.9-1.6 5.5-.4 9.4 4.4 12.2 8.5" class="b"/><path d="M8.3 75.3C26.6 47 27 75.7 41.5 86h20c1.2 0 2.4-.7 3.5-1q4.7-2.2 8.7 1h44.5c2.3-1.5 3.5-4.4 5.3-6.4 5.3-6.4 9.6-.2 14 3.7 3.2 3.1 5.8 1 8.6-1.3 3.8-3 7.1-7.8 12.3-8.5 1.7-.1 3.4 1 5.2.7 2.6-.4 5.2-1.6 7.8-1.4 5.6.6 9.3 5.8 12.2 10" class="b"/><path d="M8.3 72.9c17.5-29.1 19 1 32.3 12h20c1.6.2 3.1-.7 4.4-1.4 4.3-2.5 7-2 10.5 1.5h43.6c2.2-2.4 3.5-5.7 6.1-7.7 4.8-3.5 8.8 2.9 12.2 5.6 3.4 3 6 .3 8.8-2 3.9-3.3 7.6-8.7 13-9q1.4.1 2.7.4 1.2 0 2.6-.3c2.5-.7 5.2-1.7 7.8-.8 4.9 2 8.6 7.4 11.4 11.6" class="b"/><path d="M8.3 70.6C25.2 41 27.5 72 39.7 83.8c2.3.4 4.7 0 7 .2H58q2.2.1 4.4-.2l1.7-1c3-2 6.3-4.4 9.6-1.9 1.3.8 2.2 2.4 3.5 3h42c2-1 2.7-3.8 4.3-5.5 5.2-6.5 9.6.4 14 3.8.9.7 2.2 1.4 3.4 1.1 2-.7 3.7-2.3 5.2-3.7 4-3.4 7.6-8.7 13.1-9.5l2.7.2a14 14 0 0 0 3.4-.7c4.9-1.8 8.2.2 11.4 3.9q3.9 4.3 7 9.4" class="b"/><path d="M8.3 68.6c8.4-15 13.9-18.3 21.8-.7q2.4 5 5.3 9.8c1.2 1.8 2.5 4 4.3 5.3h22.7q2.4-1.4 4.4-3.2c5.1-4.3 8-1.2 11.3 3.2H120c2.2-2.6 3.5-6.6 7-7.7 4.4-.8 7.1 4 10.4 6 1.3 1 3 1.4 4.4.4q2.8-2 5.2-4.4c3-2.9 5.9-6.2 9.6-8.2q2.5-1 5.3-.8c2.3-.2 4.5-1.5 7-1.3 4 .4 6.4 4.2 8.7 7.1q3.2 4.5 6 8.9" class="b"/><path d="M8.3 66.7C24.3 36 27.8 70 39 81.7c1 .4 2.4.2 3.5.3h18.3q1.2 0 2.6-.2 1.4-1 2.6-2.3c5.9-6.4 9-4 13 2.4q13.1.2 26.3 0h13c.9 0 2 .2 2.7-.3 2.2-3.9 5.3-9.4 10.4-6 2.2 1.4 4 3.4 6.1 4.7s3.6.8 5.3-.7q2.3-2 4.3-4c4.2-4 8.5-9.6 14.9-9.3 2-.3 4-1.4 6-1.3 4.8.4 7.3 5.4 9.7 8.9 1.6 2.7 3.7 5.3 5.2 8h.9" class="b"/><path d="M8.3 65C24.1 33.9 27.8 69.9 39 81h24.4c1.5-.6 2.4-2.3 3.5-3.4 6-7.5 9.3-3.1 13 3.3q20.6.2 41 0c2.4-3.1 4.7-8.6 9.7-6.5 2.5 1 4.5 3.3 7 4.6 2 1.1 3.6.3 5.2-1.2l5.2-5c3.4-3.1 6.7-6.9 11.3-8.2l2.7-.4 3.4-1c5-1.6 8.3 3.8 10.5 7.4q2.9 5.2 6.1 10 .9.5 1.8.3" class="b"/><path d="M8.3 63.6C24.1 32.1 27.6 69.7 39 80h25.3c2.1-2.2 3.7-5.2 6-7.2 5-3.9 8.3 3.8 10.5 7.2H120q1 0 1.7-.4c1.7-3.2 4.6-7.5 8.8-6 4.3 1.4 7.9 7 12.2 2.2 5.3-4.4 11.2-12.5 18.3-13.4 2.6-.5 5.2-2.3 7.8-1 4.5 2.4 6.4 7.7 8.8 12 1.2 2 2.3 5 4.3 6.6h1.8" class="b"/><path d="M8.3 62.4c5-10 11-18.9 18.4-4.4 3.3 6 6.9 16.8 12.2 21h25.3c1.1-.5 1.9-2.1 2.6-3 1-1.5 2.2-3.3 3.5-4.5 5.5-5.3 8.4 4.3 11.3 7.5h40.1c2-3 4.5-7.4 8.8-6.4 4.6 1.2 7.9 6 12.2 1 5.3-4.7 11-11.8 18.3-13.3 2.3-.5 4.6-2 7-1.2 6.3 2.9 8.7 14.5 13 19.9h2.7" class="b"/><path d="M8.3 61.4C23.5 30.6 27.3 69 39 78h16.5q4.9 0 9.6-.2c7.4-12 9.7-13.4 16.6 0 8.4.3 16.9 0 25.3.2H120c.8 0 2 0 2.6-.5 1.7-3.1 4.7-6.8 8.7-5.8 6 1.7 7.1 4.3 12.2-1.2C148.7 65.8 154 60 161 58.4c2-.5 4-1.8 6.1-1.4 5.3 1.4 8.1 10.8 10.5 15.3 1 1.8 1.7 4.6 3.5 5.7h2.6" class="b"/><path d="M8.3 60.6c13.7-27.8 18.5 3 28 13.8q1 1.4 2.6 2.3 1.2.3 2.6.2H65c1.9-2.4 3.3-5.5 5.3-7.9 5-6.4 9.2 3.4 11.3 7.4l.9.5h40.1c2-3 4.6-6.8 8.7-6.5 2 .2 4 1 6.1 1.2 3 .3 5-2.6 7-4.4a60 60 0 0 1 12.2-9.1q3-1.3 6.1-2.3c4.7-2.3 7.4.6 9.6 4.4 3 5.2 4.9 11.2 7.9 16.4 1 .6 2.4.3 3.5.3" class="b"/><path d="M8.3 60c13-26.1 17.9 1.7 27 12.3 1.5 1.5 3.3 3.1 5.3 3.6H65c3-3.4 6.7-14.8 12.2-8a37 37 0 0 1 3.5 5.7c.3.7 1 2 1.8 2.3h40c1.2-.6 1.9-2.2 2.7-3.1 3-3.7 6-4.2 10.5-3.5 4.3.7 5.8-2 8.7-4.5a62 62 0 0 1 9.6-7.1q3.7-2.2 7.8-3.4c2-.8 4.2-1.7 6.2-.7 4.5 3 6.4 9.6 8.7 14.4l2.6 5.8c.2.5 1 1.9 1.7 2.2h2.7" class="b"/><path d="M8.3 59.5c15-28.8 18.2 10.2 31.4 14.3q2.6.8 5.3 1.1h20c1.8-2.5 3.3-5.6 5.3-8 5.1-6.7 9.2 3.5 11.3 7.5l.9.5h26.1q7.5.1 14.9 0c2-3.7 5.1-7.4 9.6-7.6 2-.2 4.2 0 6-.8 1.4-.5 2.6-1.8 3.6-2.7a52 52 0 0 1 14-9.2c2.2-1 4.7-1.6 7-2.6 4.6-2 7.7 3.2 9.5 6.8 2.8 5.2 4.4 11.3 7.9 16.1h2.6" class="b"/><path d="M8.3 59.1c14-26 17.6 5 28.8 11.7 2.1 1.2 4.7 1.1 7 1.6q1.8.6 3.5 1.5h14.8q1.4.1 2.6-.3c3.2-4.5 7.5-16 13.1-6.9.9 1.4 2 3.3 2.6 4.8.3.6 1 2.1 1.8 2.4h41c2.7-3.9 5.4-7.9 10.4-8.7 2.1-.4 4.4-.7 6.2-1.9 1.7-1.4 3.3-3.2 5.2-4.5a38 38 0 0 1 11.3-5.6l5.3-1.6c1.3-.5 2.8-1.2 4.3-1 6.9.8 10.6 17.6 14.9 23q1.2.5 2.6.3" class="b"/><path d="M8.3 58.8c14.3-25.5 17.5 4.7 28.8 10 5.5 2 6.3-.8 12.2 3.7a3 3 0 0 0 1.8.4h13.1c3-2.9 5-10.4 9.6-11.1 3.1.4 4.6 4.1 6 6.6.8 1.3 1.5 3.4 2.7 4.5h41c1.6-1.6 2.7-4 4.3-5.6 3-3.4 6.6-4.2 10.5-5.8 3-1.4 5-4.5 7.9-6 4-2.4 8.6-2.9 13-3.8 3.3-.6 6.6-3.2 9.7-.7 4.3 4 6.1 10 8.7 15 1.2 2.3 2.2 5.3 4.3 7h1.8" class="b"/><path d="M8.3 58.6C23.5 32.8 26 64 38 67q2.2.4 4.4 0c3.7-.5 6.7 2.4 9.6 4.4 1.2.7 3 .3 4.3.4h7c1.1-.5 2-2 2.6-3 1-1.8 2.3-3.9 3.5-5.5 6.3-9 10.2 3.8 13 8.5h41c1.6-.9 2.4-3.3 3.6-4.6 3.1-4.5 6.7-6 11.3-8.4q2.4-1.7 4.4-3.8c3.5-3.4 8.4-3.9 13-3.7q2.7.1 5.3-.5c2.6-1 5.4-2 7.8-.1 6.3 5.6 7.5 15 13.1 21.1h1.8" class="b"/><path d="M8.3 58.4c3-4.6 8.6-13.8 14.9-8.6 2.7 2.6 4.6 6.2 7 9.2 3.2 4.4 6.4 7 12.2 5.7 2.5-.7 5 .4 7 1.9q3 2.3 6 4.2c1.4.3 3 0 4.4.1l2.6-.1c2.4-1.6 3.7-4.4 5.2-6.7 7.4-12.6 11.2-.8 14.9 6.6 2.8.5 5.8.1 8.7.2h30.5c.9 0 2 .1 2.6-.5 2.3-4 5-7.9 8.8-10.6q3.1-2 6-4.1c1.6-1.2 2.9-3 4.4-4 3.6-2.9 8.2-2 12.3-1q2.2.4 4.3.3c3-.7 6-2.3 8.7-.1 2.8 2.1 4.5 5.5 6.1 8.4 2 4 4.2 8.2 7 11.6h1.8" class="b"/><path d="M8.3 58.3c3.3-4.6 9.4-14.4 15.7-8.8 3.2 3.3 5.4 7.5 8.8 10.6 2 2 5 3.2 7.8 2.5 1.4-.3 3-.9 4.4-.8 2.6.2 4.9 2 7 3.6 7.7 6 10.8 4.7 15.6-3.4 5.2-8.3 8.4-6.1 12.3 1.5 1 2 1.8 5 3.4 6.4h39.3q1 .1 1.7-.4c2.3-4.2 5.1-8.3 8.8-11.4q3-2.4 6-4.9c5-5 6.8-7.2 14-4.2 2.7 1.2 5.8 2.7 8.8 1.7q2-.7 4.3-.6c5.3 1.2 7.9 8 10.5 12.1q2.2 4 5.2 7.5l1.7.2" class="b"/><path d="M8.3 58.3c3.2-4 9.8-14.5 15.7-10 3.3 2.9 5.5 7 8.8 9.9a8 8 0 0 0 8.7 1.9c1.3-.5 2.9-1.2 4.3-1 2.7.3 5 2.2 7 3.7 8.6 6.8 10.6 3.4 15.7-4.3 7.4-10.9 11.5 5 14.8 10.4h39.3q1 0 1.7-.4c2.2-4 4.7-8 7.9-11.1q3.3-3.3 7-6.4c1.1-1 2.3-2.6 3.5-3.7 3.6-3.4 7.8-1 11.3 1.3 7.7 5.4 7.9.1 14 2.6 5.7 3.5 7.7 10.8 12.2 15.5 1 1 1.9 2.5 3.5 2.2" class="b"/><path d="M8.3 58.4c3-3.6 9.6-13.5 14.9-11.9 3.7 2 5.7 6.1 8.7 8.9 5 4.9 7.4 3.3 13 1.1 3-.5 5.7 1.5 8 3.1 8.5 6.8 10 4.7 15.6-3.4 1.6-2.1 4.4-4.8 7-2.6 3.9 3.7 5.5 9.3 7.8 14 1 .5 2.4.2 3.5.3h34.9c.8 0 2 .1 2.6-.5q3-5.6 7-10.4 3.3-3.7 7-7c3-2.9 5.5-8 10.5-5.8 4.1 1.8 6.8 6.4 11.3 7.3 1.7 0 3.5-.6 5.2-.3 7.8.6 12.2 16.3 18.4 16.7" class="b"/><path d="m8.3 58.5 6.1-7.2c2.4-2.4 5-6.2 8.8-6 1.7.4 3.1 2 4.3 3.3l4.4 4.8c4.9 4.8 7.6 3.5 13 .7 2.9-1 5.7.7 8 2.3 9.7 7.6 9.7 4.6 16.5-3.6 7.5-8 11.3 10.1 14.8 14h39.3c.7-.2 1.4-1.5 1.7-2.1a70 70 0 0 1 12.2-15.4c3.4-3 6-9.6 11.3-6.5 3 1.8 5.3 4.8 7.9 7.1 2 1.8 3.5 2.2 6.1 1.8 10-1 13.4 14.6 21 15.2" class="b"/><path d="M8.3 58.7q4.5-5 8.8-10.1c3.5-4 6-6.8 10.4-1.9 2.7 2.8 5 6.4 8.7 7.8 3.2 1.2 6.2-1.1 8.8-2.7 6.5-3 10.6 6 16.5 6 3.5-.6 5.3-5.1 7.9-7.3 3.7-3.8 6.6-.8 8.7 2.8 2.3 4 4 8.5 6.1 12.6h39.3c1.1-.8 1.8-2.7 2.6-3.8l3.5-5.1c2.6-3.5 5.8-6.6 8.7-9.8 1.5-1.6 2.8-3.7 4.3-5.2 3.9-3.8 8 .9 10.5 3.8 2.2 2.3 4.4 6.3 7.9 6.5q2.7-.2 5.2.6c6.7 2.1 11 13.4 17.5 13" class="b"/><path d="M8.3 59q4.4-4.3 7.9-9.1c2.1-2.5 5.7-9.1 9.6-6.4 3.5 2.5 5.7 6.7 9.6 8.9C41.9 55.7 44 47 50.2 49c3.9 1 6.6 4.8 10.5 5.8 3.7.6 6-4.6 8.7-6.7 4.4-4 7.7 1.5 9.6 5.1q2.7 5.6 5.2 11.2l.9.5h38.4c2.2-2.8 3.8-6.2 6-8.9 3-3.8 6.6-7.1 9.7-10.8 1.4-1.6 2.6-3.8 4.4-5 4.7-3 8.7 4.4 11.3 7.4 5.7 7.7 5.6 3.3 12.2 6.5 3.4 1.8 6 4.8 8.7 7.5 2.6 2.4 4.2 3.6 7.9 3.3" class="b"/><path d="M8.3 59.4c3.1-2.6 5.6-6 7.9-9.3 1.9-2.4 5.2-9.3 8.7-8.5 4 1.7 6 6.1 9.6 8.5 7.9 5.5 9.6-6.7 17.5-3.3 2.8 1.1 5 3.5 7.8 4.7 3.9 1.7 6.2-3 8.7-5 8.4-8.1 12.7 13 16.6 17.4h38.4c1.9-3 3.8-6.2 6-8.8q4.4-4.8 8.8-9.5c1.8-2 3.1-4.6 5.2-6.3 4.6-3 8.2 3.8 10.5 6.8 7 10 5 4.4 13 8.7 4.2 2.5 7.2 6.6 11.4 9h5.3" class="b"/><path d="M8.3 59.8c5.6-4 8.4-10.7 12.2-16.3 3.7-5.4 6-3.2 9.6.7 2.7 2.8 6.1 7.4 10.5 5.5 3.4-1.6 5.4-6 9.6-6 3.4.2 6 2.9 8.7 4.4 3 1.8 4.8.6 7-1.6 2.8-3 6.1-6 9.6-2 4.3 5.4 6.2 12.4 9.6 18.3q10.5.1 21 0c5.7 0 11.6.3 17.4 0 3.4-6.5 9-11.4 14-16.6l3.4-4.4c1.5-2.4 4-5.1 7-3.2 3.5 2.3 5.5 6.4 7.9 9.7 1.2 1.6 2.5 3.6 4.3 4.5q3.3.4 6.1 2.2 3.3 2.1 6.2 4.8c1.3 1 2.7 2.6 4.3 3h7" class="b"/><path d="M8.3 60.3c6-4 8.6-11.2 12.2-17 2.8-4.7 4.8-5.8 8.8-1.5 2.4 2.4 4.5 5.6 7.8 6.9 8 2 8.2-13.3 20-4.5 1.8 1.1 4 2.7 6.2 1.7 4.9-3.2 8-9 13-1.8 2.5 3.6 4.3 8 6.2 12 1 1.8 1.7 4.6 3.5 5.8h36.6c1.2-.5 1.8-2.4 2.6-3.3q1.6-2.2 3.5-4.3c3.4-3.5 7.5-6.4 10.5-10.3 1.7-2 2.9-4.8 5.2-6 5.1-2.3 9.6 8 12.2 11.3 3.3 4.7 3.7 2.8 7.9 5 3.5 2 6.2 5.3 9.6 7.5h9.6" class="b"/><path d="M8.3 60.8C14.7 57.1 17 49.1 20.5 43c2-3.3 4-7 7.9-3.3 3.4 2.8 7 9.8 12.2 7.7 2.2-1 3.6-3.4 5.2-5.1 2-2.2 5-3.9 7.9-2.7 3.1 1 6.1 5 9.6 3.7C65.9 42 68 39 71 38.7c7 .5 10.3 17.3 14.9 22.2h36.6c1-1 1.8-2.6 2.6-3.6q1.6-2 3.5-3.8c2.8-2.6 6.1-4.7 8.7-7.4 4.2-4 6.7-13.3 13.1-6 3.1 3.2 6.6 11.7 10.5 12.7q3 .9 5.2 3l3.5 3.1c.7.7 1.6 1.7 2.6 2h11.4" class="b"/><path d="M8.3 59.8H11c4.7-4.5 6.7-11.1 9.6-16.7 2.7-5.4 4.7-8.3 9.6-2.8 2.9 3 6.8 8.8 11.4 5.6 1.7-1.3 3-3.4 4.3-5 2.5-3 5.9-5 9.6-2.8 1.8.9 3.5 2.2 5.3 2.9 4.2 1.4 6.8-5.3 11.3-3.9 6.5 3 9.2 16.8 14 22.5 1.6.5 3.5.2 5.2.2h31.4c3.9-7 8.3-8.2 14-12.8a27 27 0 0 0 4.3-5.1c1.3-2 2.8-4.4 5.3-4.6 6 .5 9 11.8 14 14.8 3.5 1 6.1 3.8 8.6 6.4.4.4 1.3 1.2 1.8 1.3h13.1" class="b"/><path d="M8.3 58.8h4.4c3-4 4.9-9 7-13.6 1.4-2.8 2.5-6.5 5.2-8.2 3.5-1.1 7 5 9.6 7 6 5.3 8.7-1.2 12.2-5.3 1.9-2.2 4.8-4.2 7.9-3 2.9.8 5.4 4.1 8.7 3.1 2.7-1.3 5.4-4.5 8.7-3.2C78.7 39 81.4 55 86.8 58.8h35c.7-.2 1.3-1.2 1.7-1.9q1.5-2.1 3.4-3.9c3-2.4 6.7-3.6 9.6-6q2.6-2 4.4-5c1.2-1.9 2.8-4.3 5.2-4.8 4.9-.1 8.5 8.5 11.4 11.8.6.8 1.7 2 2.6 2.5q1.4.5 2.6 1.2c2.3 1.6 4.3 3.9 6.1 6 1.7.3 3.6 0 5.3.1h9.6" class="b"/><path d="M8.3 57.8h5.3c1.2-.7 1.9-2.8 2.6-4 .8-1.7 1.9-4.1 2.6-6 1-2.4 2.2-5.3 3.5-7.6a9 9 0 0 1 2.6-3.3c3.4-1.5 7 4.6 9.6 6.4 6 5.2 8.8-1.5 12.2-5.7 1.9-2.3 4.7-4.7 7.9-3.7 3.1.8 6.2 4.9 9.6 2.7 2.5-1.6 5.8-4 8.7-1.7 3.9 3.3 5.7 8.5 7.8 13 1.7 3.4 3.2 7.4 6.1 10h7.9c.8 0 1.8-.6 2.6-.9 1.7-.7 3.9-.5 5.2.8h19.2c1.7-2 3-4.4 5.3-5.9 3.6-2.4 8.3-3 11.3-6.4 3.6-3.4 6.2-12.1 12.2-6.5 3.4 3.2 5.4 7.8 8.7 11 1 1 2.5 1.2 3.5 2 2 1.5 3.7 3.6 5.3 5.5q1.2.5 2.6.3h13.1" class="b"/><path d="M8.3 56.8c2.3-.1 4.8.3 7-.2 2-3.8 3.6-8.1 5.2-12 1.4-2.7 3-8.8 7-7.5C32 39 35.2 46.5 40.6 44c3.7-2.5 5.2-7.4 8.7-10 4.7-3.8 7.9.7 12.2 2 1.6.2 3-1 4.4-1.7 6.3-4.4 9.7 2.4 12.2 7.2 2 4 3.7 8.6 6.1 12.4q1 1.7 2.6 2.9 1.4.2 2.7.1h3.4c2.4-.7 4.5-2.6 7-2.5q1.6.1 2.6 1.2c.6.8 1.6 1.5 2.7 1.3h16.5c5-9 9.2-5.9 15.7-10.6 2.6-2 4-5.1 6.1-7.5 5.4-5.6 10.1 3.5 13.1 7.2 1 1.3 2.2 2.8 3.5 3.7.8.3 2 .8 2.6 1.4 2 1.6 3.6 4 5.3 5.8h15.7" class="b"/><path d="M8.3 55.8h7.9c2-3.8 3.5-8.3 5.2-12.2 1.3-2.7 3.2-7.6 7-5.6 3.8 1.9 7.5 7.8 12.2 5 4-2.8 5.4-8.2 9.6-10.8s7.5 1.5 11.3 2.6c1.6.3 3-.9 4.4-1.6q5.2-3.2 8.7 1.7c3 4 4.9 8.8 7 13.2 1.4 2.7 3.4 7.9 7 7.7h2.6q1.8-.5 3.5-1.7c2.3-1.5 5.5-3.4 7.8-1 .9.7 1.6 2.2 2.7 2.7H119c.9 0 2 .1 2.6-.5 1.7-3 4.4-5.9 7.9-6.6 4.3-.8 7.7-1.7 10.5-5.4 6.8-11 10.1-7 16.5 1.5q1.5 2 3.5 3.5 1.5.5 2.6 1.5c2 1.6 3.4 4.2 5.3 6h15.7" class="b"/><path d="M8.3 54.8h8.8c2.6-3.8 4.9-15.4 9.5-16.4 5.3 0 9 8 14.9 3.3 4-3.6 6.5-12 13-11 3 .6 5.6 3.8 8.8 2.9 1.4-.6 2.9-1.6 4.3-2.1 4.7-1.7 7.7 3.7 9.6 7q3 6.2 6.1 12.1c6.5 10.2 11.3-2 17.5-1 2.5.7 3.4 3.7 5.2 5.2H121c1-.7 1.7-2.4 2.6-3.3a10 10 0 0 1 6-3.6c4.3-.5 7.8-1 10.6-4.5 6.6-10.2 9.7-7.9 16.5.4a17 17 0 0 0 3.5 3.3q1.5.7 2.6 1.5 2 2 3.5 4.3c.3.5 1.2 1.6 1.8 1.9h15.7" class="b"/><path d="M8.3 53.8H18c2.9-3.5 4.1-12.6 8.8-14.3 5.5-1 9.4 7 15.7.7 3.4-3.6 5.7-9.9 11.3-10.3 3.1 0 5.6 2.8 8.7 2.8 2.6-.5 5-2.8 7.9-2 5.4 2 8.5 11.2 11.3 16 7.3 14.5 12.4-.8 19.2.2 3 1 4 4.9 6.1 6.9h14c2.4-2.9 3.6-5.7 7.8-6.5 2.3-.4 4.7-.2 7-.9 4.8-1.2 6.1-7.1 10.5-9 4.9-1.7 8.2 3.9 11.3 6.7q1.9 1.8 4.4 2.9c2.2 1.6 3.7 4.2 5.2 6.4q1.2.6 2.6.4h14" class="b"/><path d="M8.3 52.8h10.5c.8-.3 1.5-2 1.7-2.8 1.4-3 2.6-6.7 5.3-9 3-2.1 6.5.2 9.6.8 2.5.6 5.1-.3 7-2.1 4-4.2 7.7-12.5 14.8-9.6 4 1.6 4.6 2.2 8.7.4 4.2-1.6 7.4 1.5 9.6 4.7 2.9 4.3 5 9.2 7.8 13.4 5.7 7.4 10.8-4 16.6-4.4 4.3.4 5.2 6 7.9 8.6h13c2.8-3.6 4.6-6.4 9.6-6.4 2 0 4.2.2 6.2-.4 4.5-1.2 5.8-7.1 10.4-8.2 4.8-.7 8 4 11.4 6.5q1.6 1.1 3.5 1.9c2.2 1.6 3.8 4.3 5.2 6.6h16.6" class="b"/><path d="M8.3 51.8h7.9c1.4 0 3 .2 4.3-.3 2-4.2 4-10.9 9.6-11 2 0 4.1.7 6.1.8q4.2.2 7-3c3.4-3.3 6.1-8.7 11.4-9.2 2 0 4 .8 6 1.3 2.7.8 5.3-1.2 8-.7C76 31.3 79 43.5 84.1 48.3c5.1 3.6 9.5-4.9 14-6.4 5.8-2 7.2 7.1 10.5 9.9h12.2c2.5-3.4 4.8-6.4 9.6-6 2 0 4 .4 6 .1 4.3-.6 5.8-5.5 9.7-6.8 4.7-1.6 8.5 2.6 12.2 4.8q1.7 1 3.5 1.6c2.3 1.5 3.5 4.3 5.2 6.3h16.6" class="b"/><path d="M8.3 50.8h13.1c2-4.2 4.4-9.6 9.6-10.2 2.3-.3 4.7 0 7-.2a11 11 0 0 0 7-4.1c3.3-3.8 7.3-8.8 13-7.3 2 .4 4.2 1 6.2.4 7.8-1.8 11.9 7 15.7 12.3 1.6 2.1 3.1 5.3 6 5.5 4-.4 6.5-4.4 9.7-6.6 8.2-6.3 9.6 6.4 14 10.2h11.3c5-7 7.1-6.2 14.8-5 2.4.3 4.6-1 6.1-2.7 5.2-5.4 10.1-2.9 15.7.2q2.1 1 4.4 1.7c1.4.9 2.6 2.5 3.5 3.8a5 5 0 0 0 1.7 2h16.6" class="b"/><path d="M8.3 49.8h14c2.3-3.9 4.7-8.6 9.6-9.7 2.2-.6 4.7-.4 7-.8 2.7-.3 5.1-2 7-4 5.4-5.5 7.5-8 15.7-6.4 1.7 0 3.5-.5 5.2-.1 8.8 1.6 14 19 20 16 3-1.4 5.3-4.3 7.9-6.3q5.7-4.9 9.6 1.5c1.8 3 3.4 6.4 5.2 9.3 1.3.8 3 .3 4.4.5l7-.1c4.7-6.6 7.6-6.3 14.8-4.2 1.8.4 3.8.2 5.2-1 4.5-4.4 9.4-3.6 14.9-1.6 6 2.1 6.6.6 10.4 6.8q8.8.2 17.5 0" class="b"/><path d="M8.3 48.8h14.9c1-1 1.8-2.7 2.6-3.8q1.8-2.7 4.3-4.6c2.8-2 6.4-2 9.6-2.2 2.8-.1 5.1-1.8 7-3.7C50.1 31.3 54 27.6 59 28q2.6.3 5.3.1c2.2 0 4.3 1.1 6 2.5 3 2.3 5.4 5.3 8 8 2.1 2.3 5.2 6.3 8.6 3.9 3.2-2.1 5.5-5.5 8.8-7.5 4.3-2.9 7.6.3 9.6 4.2q2.5 4.7 5.2 9.4c1.6.4 3.5 0 5.2.2 1.7-.1 3.6.3 5.2-.3 4.8-6.2 8-6.3 14.9-3.3 1.6.6 3.6.9 5.2 0 4.2-3.6 10-2.4 14.8-1.6 7 1 5.7-.3 10.5 5.2h17.5" class="b"/><path d="M8.3 47.8H24c1-1 1.9-2.7 2.7-3.8 1.7-2.5 4-5.2 7-6.3 2.4-1 5.2-.4 7.8-.6 2.4-.1 4.4-1.7 6-3.2 3.5-3 7.4-6.5 12.3-6.2h4.4c3 .5 5.6 2.8 7.8 4.8 3.2 2.7 9.6 11.3 14 8 3.5-2.4 5.8-6.3 9.6-8.3 5-2.7 8.5 2.4 10.4 6.4 1.6 3 3.2 6.4 5.3 9.2h8.7c1.3-.8 2.3-2.4 3.5-3.3 3.2-3 6.8-2.7 10.4-.6 2.4 1.2 5.3 3 7.9 1.3 3.8-1.8 8.2-.5 12.2-.7l7-.2c1.8.3 3.3 2 4.3 3.3 2.3.4 4.7.1 7 .2h11.4" class="b"/><path d="M8.3 46.8H25c2.9-4.3 5.5-10.5 11.3-11.1 2-.2 4.1.4 6.1.5 3.2 0 5.6-2.5 7.9-4.3 2.3-1.9 4.9-3.7 7.8-4.3q3.6-.7 7 .2c3.4 1.5 6 4.5 8.8 6.8 3 2.8 8.2 7 12.2 3.4 4-3.3 7.8-10.9 14-8.5 3 1.3 4.6 4.4 6 7.1 1.9 3.4 3.5 7.3 6.1 10.2 2.6-.1 5.3.2 7.9-.2 3-3 6.6-7 11.3-4.9q3.2 1.7 6.1 3.7c2 1 3.2.9 5.3.2 2-.3 4 .1 6 .3q3.7.3 7-.4c2-.4 4.1-1.2 6.2-.9q1.5.5 2.6 1.8 1.2.6 2.6.4h16.5" class="b"/><path d="M8.3 45.8H25l.9-.6c2.4-4.2 5-10.6 10.4-11.2 2.4-.2 4.7 1.2 7 1.5 3.1.1 5.5-2.4 7.9-4 2-1.6 4.4-3.3 7-4q3.5-.9 7 .3c3.2 1.9 5.7 5 8.7 7.3 4.3 3.5 9.4 4 13-.7 5.2-6 9.5-11.8 16.6-4 3.6 4.8 5.2 11.2 9.6 15.3h6.1c2.3-1.7 4.3-4.2 7-5.3 4.4-1.9 8 2.3 11.3 4.7 1.2 1 3 .6 4.4.7h15.7c1-.4 2.3-1 3.5-1q1.4-.1 2.6.7 1.7.4 3.5.2h16.6" class="b"/><path d="m8.3 44.8 17.5-.1c2.2-4.1 5.1-12 10.5-12.5 2.5 0 4.6 1.7 7 2.5s5-1 7-2.3c4-3.1 9.5-7.2 14.7-4.4 2.6 1.7 4.7 4.3 7 6.3q6 5.2 12.2.2c2.8-2.7 4.8-6.3 7.9-8.7 3.3-2.9 6.7-1.3 9.6 1.3 2.4 1.9 3.8 5 5.2 7.6 1.7 2.9 4.9 10.6 8.7 10q1.4.1 2.7-.1 1.8-1.2 3.4-2.6c7-6.2 10.2-2.7 15.7 2.7q23.1.2 46.3 0" class="b"/><path d="M8.3 43.7h17.5C28 39.5 31.6 28.2 38 30.6c2.4 1 4.3 3.3 7 3.7 4.7 0 8.6-5 13-6.5 9-3.3 10.7 8.2 18.4 8.9 6.3-.5 9.4-7 13-11.4 4.4-5.3 7.8-3.9 12.3.3 5.1 3.6 8.3 19.5 15.7 17.5 4.3-1.6 7.9-7.5 13-5.3 2.5 1.2 4.3 3.5 6.1 5.5l1 .4h46.2" class="b"/><path d="M8.3 42.7h17.5c2-4.2 4.7-13.2 9.6-14.5 2.8-.3 5 2.3 7 3.9 2.4 2.2 5 2 7.8.4 6.4-3.7 11.4-8.6 17.5-1 2.2 2.3 5 5.8 8.7 5 4.4-1.5 8-6.8 10.4-10.6 5.4-7.8 8.1-8.6 14.9-1.5 4.3 3.8 5.9 9.9 9.6 14.3 5 6.2 9 .3 14-2.1 4.8-2.6 8.6 2.6 11.3 6 5.5.3 11 0 16.5.1h30.6" class="b"/><path d="M8.3 41.7h14.9q1.4.2 2.6-.4c1.8-3.8 5.6-17.2 11.3-15 4 1.7 6.2 8.1 11.4 6.8 4.7-1.2 8.7-6.1 14-5 6.4 1.9 9.3 15.7 18.2 4 3.3-3.8 5.6-8.5 8.8-12.4 3.9-4.7 7.2-2 10.4 1.7 1.4 1.6 3.3 3 4.4 4.8 2.4 3.5 4.2 7.6 7 10.9 5 5.8 8.8.2 14-2 5-2.6 8.6 3.2 11.3 6.6h47" class="b"/><path d="M8.3 40.7H25c1.7-2 2.3-5.3 3.5-7.6 2.1-4.7 5.7-13.5 11.3-6.7 1.7 1.8 3.2 4.1 5.3 5.5 3.8 2.3 7.8-.9 11.3-2.4 2.4-1.2 5.5-1.8 7.9-.1 4.3 3.5 8.1 11.8 14 5q4.3-5.9 7.8-12.2c2.6-4.5 6.2-10.5 11.3-4.9q1.8 2 3.5 4.1c1 1.2 2.6 2.4 3.5 3.8 2 3 3.8 6.5 6 9.4 3 3.6 5.8 4.2 9.7 1.6 2.2-1.1 4.5-2.7 7-3.2 4.7-.5 6.8 4.9 9.6 7.7h47" class="b"/><path d="M8.3 39.7H25c2.9-4.8 7-25.3 14.8-15 4.7 6.3 6.6 9.8 14.9 5.8 2.9-1.3 6.7-2.7 9.6-.5 3.4 2.7 7.3 10.6 12.2 5.6 3.6-4 6-9.4 8.7-14.1 2-3.5 5.5-11.4 10.5-7.2 2.9 2.6 4.8 6.4 7.8 9 2.5 3.1 4.4 7 7 10 3 3.5 5.8 3.5 9.6 1.1q3-1.6 6.1-2.7c3.4-1 6.1 2 7.9 4.6.7 1 1.5 2.7 2.6 3.4h47" class="b"/><path d="M8.3 38.7h14q1.4 0 2.6-.3c2-4.8 3.6-10.2 6.1-14.8q4-7.2 8.7-.6c3.5 5 6 10.5 13.1 8.2 3-.9 6.4-2.6 9.6-1.5 4.5 1.6 7.7 11.1 13.1 6.4 2.3-2.2 3.8-5.4 5.2-8.2l4.4-8.3c1.9-3.3 4.9-10.7 9.6-7.4 2.9 2.3 4.5 6 7 8.7 3.6 3.1 5.4 7.8 8.7 11.2 3.1 3.4 6 2.7 9.6.5q2.5-1.2 5.2-2.2c3.3-1.3 6.1 1 7.9 3.6l1.7 2.7.9 1.4.9.6h47" class="b"/><path d="M8.3 37.7H24c1.4-1.3 2-4 2.7-5.7 1.4-3.9 2.9-8.2 5.2-11.6 5-7.2 9 4.3 12.2 7.5a9 9 0 0 0 7.8 3.2c3.5-.4 7-2 10.5-.8 4 1.4 6.4 8.9 11.4 7 3-2 4.5-5.7 6-8.7L85.2 18c1.7-3 4.4-9.7 8.7-7.6 3.1 2.2 4.8 6 7 8.9 1 1.3 2.5 2.5 3.5 3.8 1.7 2.3 3.3 5 5.2 7 5.3 5.8 7.6 1.5 13-.2 1.7-.6 3.5-1.4 5.3-1 4 1 6 5.3 7.9 8.5q1.2.5 2.6.3h45.4" class="b"/><path d="M8.3 36.7H24c2.6-3.8 7-26 14-18.6 3.2 3.4 4.7 8.4 8.7 11 4 2.8 8.7.9 13 1.1 4.5.2 6.5 4.2 9.7 6.5h3.5a3 3 0 0 0 1.7-.4c3.7-4 5.4-9.5 7.9-14.2 2.5-4.2 6.9-18.4 13-11 2.3 2.7 4 6 6.2 8.7 4.3 3.3 7.6 13.2 14 11.7 2-.6 3.9-2.2 6-2.8 1.7-.4 3.5-1.2 5.3-1.2 4.5.7 6.5 5.8 8.7 9.2h48" class="b"/><path d="M8.3 35.7h13.1q1.4 0 2.6-.3c1.8-4.4 3.4-9.2 5.3-13.5 1.5-3.4 4.7-9.9 8.7-5.2 3.1 3.5 4.8 8.5 8.7 11.4 3.5 2.8 8 2.4 12.2 2.7 4 .2 6 2.3 8.7 4.9h7c2.5-2.2 3.8-5.9 5.3-8.8q2.4-5.5 5.2-11c1.8-3.3 5.2-10.4 9.6-6.1 2.4 2.4 4 5.8 6 8.6 1 1.3 2.6 2.5 3.6 3.8 1.7 2 3.3 4.4 5.2 6.3 4.3 4 7.2 1 11.4-1l4.3-1c3.6-.5 6.2 2.7 7.9 5.4.7 1.1 1.5 3 2.6 3.8h48" class="b"/><path d="M8.3 34.7h14.9c3.4-4.1 7.8-29.5 15.7-18.5 3 4.5 5.5 10 10.4 12.7 5.5 3.2 11.4 1.5 16.6 5.8H72c1.1 0 2.5.2 3.5-.3 3.9-5.9 6.1-12.9 9.6-19 2.3-4.3 5.8-10.6 10.5-4.8 2.2 2.7 3.8 6 6 8.8 3 2.4 5 5.9 8 8.3 4.2 3.5 7.2.2 11.3-1.5q1.7-.4 3.5-.5c5.4-.7 8.1 5.1 10.4 9h48.9" class="b"/><path d="M8.3 33.7h14.9q3-7.8 6-15.5c2.2-4.5 5.3-10 9.7-3.7 1.5 2.1 2.9 4.8 4.3 7q3 4.2 7 7.4c3.6 2.6 8 3.5 12.2 4.8h13.1c3.9-5.8 6-12.7 9.6-18.7 2.4-4.2 5.9-9.9 10.5-4.2 1.9 2.3 3.4 5.1 5.2 7.5q1.7 1.9 3.5 3.5 2 2.4 4.3 4.5c6.3 5 8.8-2 14.9-1.5 5.2-.4 8.2 4.6 10.4 8.6q1.3.5 2.7.3h47.1" class="b"/><path d="M8.3 32.7h14c3.3-4 7.2-23.4 13-22.8 3.8 1.3 5.7 6.9 8 10a38 38 0 0 0 12.1 12.4q1.2.6 2.7.4h17.3c2-2.1 3.1-5.3 4.4-7.8q2.4-5 5.3-10c2-3.4 5.5-8.7 9.6-4.6 2.4 2.3 4 5.5 6 8.1.7.9 1.9 1.8 2.7 2.5q2.1 2.3 4.4 4.2c6.7 5.4 9.3-2 14.8-1.2 5 0 8.2 4.4 10.5 8.3q1.1.7 2.6.5h48" class="b"/><path d="M8.3 31.7h14q3-7.7 6.1-15.2c2-4.6 5.6-12.6 10.5-5.5 4.5 7.1 8.5 14.8 14.8 20.6q10.8.1 21.8 0c.7-.2 1.5-1.5 1.7-2.2l2.7-5q2.6-5.7 6-10.7c5.4-8 9-3.3 13.2 2.6q2 3 5.2 5.4c2.2 2 4.7 4.4 7.8 4.4 2.9-.1 5.2-2.2 7.9-3 1.4-.4 3 .2 4.3.6 3.6 1.3 6 4.6 7.9 7.7q1.3.4 2.6.3h48.9" class="b"/></svg>