<svg xmlns="http://www.w3.org/2000/svg" id="a" width="1920" height="2400" viewBox="0 0 192 240"><defs><style>.b{fill:none;stroke:#fff;stroke-miterlimit:10;stroke-width:.3px}</style></defs><path d="M0 0h192v240H0z" style="stroke-width:0"/><path d="M8 228.4h45.5c1.6-1 2.5-3.2 3.5-4.7 2.8-4.6 5.7-11.6 12.3-9.9 4.6 1 8.5 6.6 13.1 6q3-1 6.1-1.6 4.5-.7 8.8-.8 3.1.1 6.1-.4c5-2.2 8.9-8 15-7.3 2 .1 4 1.4 6 .6 2.2-.9 4.1-2.6 6.2-3.7 4-2.2 7.3 0 9.6 3.3 3.8 5.3 6.5 11.7 12.3 15.2 2 1.1 4.3 1.8 6.1 3.1 2.9.5 5.9.1 8.8.2H184" class="b"/><path d="M8 227.4h46.4c3-3.6 4.7-8.5 7.9-12 4.7-4.5 9.8-.7 14 2.4 2 1.4 4.5 3.1 7 2.1q3.4-1 7-1.1c3.8-.2 7.6.5 11.4.3 2 0 3.7-1.3 5.2-2.5 2.5-2 5-4.3 8-5.5a11 11 0 0 1 5.2-.6c2 .3 3.4.5 5.2-.7 5.4-4 9.4-9 15-1.7 3.8 5.3 6.6 12 12.2 15.8l6.1 3.5H184" class="b"/><path d="M8 226.4h47.3c3.9-4.9 6.6-15.9 14.9-12.2 3.5 1.5 6.1 4.6 9.6 6.1 1.4.6 3 .3 4.4-.1q2.5-.7 5.2-.7c4.1 0 8.2 1.2 12.3 1.1 4.1-.2 7.2-4.6 10.5-6.7q2.8-2 6.1-2.6 2.2-.2 4.4 0c3.6-1.1 5.7-4.8 8.8-6.8 5.2-3.8 8.9 1.6 11.4 5.8 2 3.4 4.2 7 7 10 2.1 2.5 5.1 4.2 7.8 6q13.2.1 26.3.1" class="b"/><path d="M8 225.4h48.2c2-2.4 3.2-5.8 5.2-8.3a7 7 0 0 1 9.6-2c3.4 1.7 6 5 9.7 6 1.7.5 3.5-.6 5.2-.8q3.5-.6 7 .1c9.7 1.9 9.8 3 17.5-3.8a21 21 0 0 1 6.2-3.7c6.7-2 5.8.9 11.4-5.4 4.2-4.9 8.4-8.4 13-1.6 4.8 7.2 8.1 14.4 15.8 19.2q1.4.5 2.7.3H184" class="b"/><path d="M8 224.4h49c.8-.3 1.5-1.6 1.8-2.2.7-1.3 1.7-3 2.6-4.2 2.6-4 6.8-4.4 10.5-1.8 3.3 1.9 6.5 6.2 10.5 5.7 10.6-4.1 16.8 3.4 22.8 0 7.1-4.8 8.2-7.9 17.5-9.3 4-2.3 6-7 9.6-10 9.4-7.7 11.8 13.7 24.6 21.8H184" class="b"/><path d="M8 223.4h50.8c5.3-10 9.1-10 17.5-3.1 1.7 1.2 3.9 2.7 6.1 2.2 6.5-2.6 10.4-1.3 16.7.6q1.2.3 2.6.3t2.6-.3c3.8-1.8 6.8-5 10.5-7q3-1.5 6.2-2.3c2.2-.3 3.9-2.2 5.2-4 2-2.5 3.9-5.4 6.1-7.6 5.2-5.3 8.7-.2 11.4 4.4 3.3 5.5 6.5 11.4 11.4 15.6.3.4 1.3 1 1.8 1.2H184" class="b"/><path d="M8 222.4h51.7c1.4-1 2.1-3 3.5-4.2 4.5-4.1 9.2 0 13 3l1.8 1.1h5.3c1.1.2 2.4-.3 3.5-.6q2.6-.6 5.2-.2 1.9.3 3.5.8 4.8.1 9.7 0h1.7l1.8-1.1 3.5-2.4q4.5-3 9.6-4.6c2.3-1 3.8-3.5 5.2-5.4 2.2-3 4.2-6.5 7-8.8 6.1-4.5 9.6 5.5 12.3 9.4 2.3 3.9 4.7 7.9 7.9 11 1.6 1.8 1.9 2.1 4.4 2H184" class="b"/><path d="M8 221.4h53.4c5.3-6 8.3-3.9 14 0h30.7l3.5-.1 1.7-1.1q5.1-3.2 10.5-5.6c5.7-2.7 10.4-19.7 17.5-16.4 3.4 2.1 5 6.3 7 9.5a53 53 0 0 0 9.7 13.5c1.3.3 3 0 4.4.2H184" class="b"/><path d="M8 220.3h55.2q1 0 1.7-.6a6 6 0 0 1 3.5-.8c1.6 0 3 1.2 4.4 1.4h35q2.2.2 4.4-.1l2.6-1.5q4-2.2 8-4.6c4.6-4.5 6.7-11.1 11.3-15.7 4.7-4.7 8.1.5 10.5 4.6 3.2 5.5 6 11.5 10.5 16.1l.9 1c.3.1 1.3.3 1.7.2H184" class="b"/><path d="M8 219.3h105.9c2.2-.8 4.2-2.4 6.2-3.5a17 17 0 0 0 6.1-6.5c2.5-4 4.7-8.4 7.9-11.8 6.2-6.8 10.4 3.8 13.1 8.4s5.3 10 9.6 13.4H184" class="b"/><path d="M8 218.3h107.7c1.2-.5 2.4-1.5 3.5-2.2 7.6-4.7 9.5-14.5 15.8-20.5 4.2-4 7.4 0 9.6 3.8 3.6 6 6.3 12.8 11.4 17.8l.8.8 1 .3H184" class="b"/><path d="M8 217.3h108.6c2.2-1.2 4.2-3.2 6.1-4.8 4.7-5.5 7.1-12.8 12.3-18 4-4 7.3-.8 9.6 3.2 3.8 6.3 6.6 13.7 12.2 18.7l1 .7.8.2H184" class="b"/><path d="M8 216.3h108.6c1.4-.2 2.4-1.7 3.5-2.5 6.2-5.3 8.7-13.6 14-19.6 4-4.7 7.6-3.3 10.5 1.7 4.3 6.8 7 15.3 14 19.9l.9.5H184" class="b"/><path d="M8 215.3h108.6c1.4-.3 2.4-2 3.5-2.9 6-5.4 8.7-13.5 14-19.5q6-6.5 10.5 1.2c4.9 7.7 8 18.3 17.5 21.2H184" class="b"/><path d="M8 214.3h108.6c1.3-.9 2.4-2.4 3.5-3.5a42 42 0 0 0 5.2-6.5c3.2-4.3 9.3-18 15.8-15.4 2.5 1.2 3.8 4.2 5.2 6.5 2.7 4.6 5 9.8 8.8 13.7q1.9 1.8 4.4 2.8 2.4.6 4.4 2.4H184" class="b"/><path d="M8 213.3h103.3c1.7-.1 3.7.2 5.3-.3 3.7-4.3 7.6-8.5 10.5-13.3 5.2-7.8 12.3-20.2 19.3-6.1 3.3 5.5 6 12.9 12.2 15.7 1 .4 2.5.5 3.5 1 1.3.7 2.3 2.1 3.5 3H184" class="b"/><path d="M8 212.3h107.7q2.3-2.7 4.4-5.5 3.2-3.7 6.1-7.9c3.3-4.3 10-17 16.6-11.8 4.6 5 6.7 12 11.4 17 5.6 5.7 6.8.4 12.3 7.8q1.2.5 2.6.4h14l1-1.5" class="b"/><path d="M8 211.3h106.8c1.9-1.3 3-3.8 4.4-5.5q3.2-3.9 6.1-7.8c3.7-4.6 9.7-15.6 16.7-13 2.4 1.6 3.8 4.5 5.2 6.9 2.1 3.5 4.1 7.4 7 10.3a9 9 0 0 0 6.2 2.8q1.9 0 3.5 1.3c1.6 1.4 2.8 3.5 4.3 5l14-.1 1.8-3.2" class="b"/><path d="M8 210.2q53.4.1 106.8 0l5.3-7.8q3.1-3.8 6.1-7.7c3.7-4.4 9.1-13 15.8-10.8 2.3 1.4 3.8 4.2 5.2 6.5 2.3 3.8 4.4 8 7.9 10.8 7.6 4.7 5-3.3 14 9q6 .1 12.3 0l2.6-4.7" class="b"/><path d="M8 209.2h106c1.1-.6 1.9-2.4 2.6-3.5q2.4-4 5.2-7.8c4.9-5 11.3-16.5 19.3-15.3 3.3.8 5.2 5.4 7 8 1.8 2.9 3.6 6 6.1 8.2a8 8 0 0 0 7 2c3.6.2 6.5 5.9 8.8 8.4h10.5c1.5-1.5 2.4-4 3.5-5.9" class="b"/><path d="M8 208.2h106c2.3-3 3.9-6.9 6-10q2.6-3.3 5.3-6.4c3.3-3.7 6.7-8 11.4-9.7 2-.7 4.4-.9 6.1.4 3 2.6 4.8 6.5 7 9.8s5.2 7.3 9.7 7c2.4-.4 3.5-.1 5.2 1.6 2.3 2.2 3.8 5.3 6.2 7.3h9.6c1.2-2 2.4-4.5 3.5-6.6" class="b"/><path d="M8 207.2h106c2.2-4.1 4.2-8.6 7-12.4 3.3-3.8 6.6-7.9 10.5-11 2.6-2.2 6.1-3.8 9.6-3 3.5.9 5.8 6.4 7.9 9.1 2 3 4.3 6.6 7.9 7.8 1.6.6 3.5 0 5.2.2 4 1.7 5.7 6.5 8.8 9.3h6.1q1.8.1 3.5-.2c1.2-2 2.4-4.6 3.5-6.6" class="b"/><path d="M8 206.2h105.1l.8-.4c2.2-4.4 4.2-9.1 7-13.2l6.2-6.8c3.8-4 9.1-7.8 14.9-5.6 2.7 1.6 4.3 4.9 6.1 7.4 2.2 3.2 4.4 6.9 7.9 8.6q2.5 1 5.2.6c4.1.2 6.7 7.4 9.7 9.4h6.1q1.8.1 3.5-.2c1.2-2 2.4-4.6 3.5-6.7" class="b"/><path d="M8 205.2h105c1.3-1 2-3.4 2.7-4.8 1.8-3.7 3.5-7.8 6.1-11 5-5.4 10.8-13.4 19.3-10.3 3.5 1.2 5.7 6.1 7.9 9 2 3 4.3 6.3 7.8 7.5 1.7.6 3.6.2 5.3.5 3.5 2 5.3 6 7.9 9h10.5c1.2-2 2.4-4.5 3.5-6.5" class="b"/><path d="M8 204.2h105c2.6-4.6 4.3-9.9 7-14.3 1.2-2 3-3.7 4.5-5.3 5-5.8 9.6-9.7 17.5-6 3 2.2 4.8 5.8 7 8.7 2 3 4.4 6.1 7.9 7.4q2.2.7 4.3.6c3.4.9 5.7 6 8 8.6 1.2.5 2.9.2 4.3.3h7c1.4-1.8 2.4-4.3 3.5-6.2" class="b"/><path d="M8 203.2h105c2.5-5.5 4.6-11.5 8-16.5 1.3-1.6 3-3.3 4.3-5 4.9-5.3 8.8-7.8 15.8-4.1 2.3 1 3.8 3.4 5.2 5.3 2.6 3.6 5 7.7 8.8 10.2a14 14 0 0 0 6.1 1.8c1.5.3 2.6 1.7 3.5 2.8l2.7 3.8.8 1.2 1 .5h11.3c1.6-1.4 2.4-4 3.5-5.7" class="b"/><path d="M8 202.2h104.2l.9-.5c2.4-5.6 4.5-11.6 7.9-16.6 1.3-1.7 3-3.4 4.3-5 4.6-5.3 8.4-7.7 15-3.6 2.6 1.2 4.4 3.7 6 6 2.8 3.7 5.5 8 9.7 10.3q2.5 1.2 5.2 1.7c2.4 1.1 3.8 3.8 5.3 5.9.3.5 1 1.6 1.7 1.8h11.4c.5 0 1.4-.1 1.8-.4l2.6-4.7" class="b"/><path d="M8 201.2h104.2c1.3-1.2 1.9-3.7 2.6-5.2 1.3-3.1 2.8-6.6 4.4-9.5 2-3.7 5.2-6.7 7.9-9.9 5.6-6 9.1-3.5 14.9.6 3.8 3.2 6.1 8 9.6 11.4q3 3.2 7 4.7 1.4.3 2.6 1c1 .4 2 1.6 2.7 2.4l1.7 2.6.9 1.3.9.6h14l2.6-4.4" class="b"/><path d="M8 200.2h104.2c2.8-5.3 4.7-11.3 7.9-16.4 1.2-2 3-3.7 4.4-5.4q2.2-3.1 5.2-5.5c3.8-2.8 7.5 0 10.5 2.6 4.3 3 7 7.9 10.5 11.7q2.7 2.8 6.2 4.7c2 1 4.6 1.8 6 3.8 1.3 1.3 2 3.6 3.6 4.5h14.9c1-.9 1.8-2.6 2.6-3.7" class="b"/><path d="M8 199.1h98.9q2.7.2 5.3-.1c2.4-5.4 4.7-11.2 7.9-16.2 1.2-1.9 3-3.6 4.3-5.4 2-2.5 4-5.5 7-6.6 3.2-1 5.9 1.6 8 3.6q1.7 1.5 3.4 3.2 3.2 3.6 6.2 7.2 2.6 3.2 6.1 5.4 3.1 1.7 6.1 3.5c1.8 1.4 2.7 4 4.4 5.5h14c.8 0 2 0 2.6-.4l1.8-2.6" class="b"/><path d="M8 198.1h103.3c1.7-1.5 2.4-4.4 3.5-6.4 1.6-3.2 3.3-6.7 5.3-9.6 1.2-1.9 3-3.6 4.3-5.5 1.8-2.3 3.6-5 6.2-6.5 3.4-1.9 6.6 1.6 8.7 4q4.1 4 8 8.5 4.7 5.6 11.3 8.9 2 1.1 3.5 3c.8 1 1.7 2.7 2.6 3.7h17.5l1.8-2.3" class="b"/><path d="M8 197.1h103.3c3.7-6.8 7-14.1 12.3-19.9 2.1-2.7 4-6.2 7-8 3.6-2 6.6 2 8.7 4.5 2.2 2.7 4.8 5.3 7 7.9a35 35 0 0 0 8 6.5c4.2 2.4 7.3 4.4 9.5 9h18.4c.6-.3 1.4-1.2 1.8-1.7" class="b"/><path d="M8 196.1h102.5c1.6-1.2 2.3-3.7 3.5-5.3 2.3-4 4.7-8.3 7.8-11.7 3.2-3.3 4.9-8.1 8.8-10.7 4.4-2.1 7.3 3.5 9.6 6.3a95 95 0 0 0 6.2 6.9q2.8 2.8 6 4.7c2.8 1.6 5.8 3 8 5.3 1.3 1.2 2 3.4 3.5 4.5h16.6q1.4 0 2.6-.2l1-1" class="b"/><path d="M8 195.1h97.2c1.7-.1 3.6.3 5.2-.2q3.9-6 8-11.8c1.5-2.2 3.6-4.2 5.2-6.4 2-2.7 3.6-6 6.1-8.3 4.6-3.8 8.2 3 10.5 6.2a48 48 0 0 0 6.1 7c6.3 5.7 12.7 4.7 16.7 13.5H183l1-.7" class="b"/><path d="M8 194h96.4c1.6 0 3.5.3 5.2-.1q4.2-5.7 8.7-11.1c1.7-2 3.8-4 5.3-6.2 2.3-3 4.6-9.2 8.7-10 4 .4 6.5 6.3 8.8 9.2q2.6 3.6 6.1 6.3c2.4 1.7 5.3 2.7 8 3.8 3.9 1.6 5.6 4.8 7.8 8.2h18.4q1.3 0 2.6-.3" class="b"/><path d="M8 193h97.2c3.3.2 3 .2 5.3-2.3l5.2-5.6q3.6-3.6 7-7.3c2.2-3 3.8-6.6 6.1-9.4 5.8-7 10 4.8 13.2 8.5 1.8 2.4 4.2 4.7 7 5.9 3.6 1.4 8 1.8 10.5 5 1.3 1.5 2.1 3.9 3.5 5.3h21" class="b"/><path d="M8 192h99c4.2-4.6 9.5-8 14-12.4 3.4-3.2 5-8 7.8-11.6 5.9-7.3 10 5 13.2 8.8 4.2 5.5 7 5.2 13.1 6.7 2.2.7 4 2.4 5.3 4.3.8 1.2 1.5 3.3 2.6 4.3h21" class="b"/><path d="M8 191h97.2c2-1.5 3.9-3.5 6.1-4.9 3-2 6.1-3.6 8.8-6 4-3.2 5.6-8.6 8.7-12.6 5.9-7.6 10 5 13.2 9 3.6 4.9 6.6 4.9 12.2 5.4 5.3.8 6.3 5.5 8.8 9.1h21" class="b"/><path d="M8 190h74.5q1-.8 2.6-1c1.1 0 2.4.7 3.5 1h1.7q7 .2 14 0 3-3.5 7-5.6 3.6-1.5 7-3.5c4.4-2.5 6.4-7.3 8.8-11.4 5.7-10.2 9.3-3.1 13.1 3.6 3.6 6 6 7.7 13.1 7.2 5.7-.2 7.5 5.6 9.7 9.7h21" class="b"/><path d="M8 189h73.6c3-2.6 4.7-2.3 7.8 0h14c4.5-6 9-6 15-9 3.8-2 5.8-6.1 7.8-9.8 5.1-9.6 8.2-8.5 13.1.4 2 3.5 4.4 8 8.8 8.3 1.7.2 3.6-.2 5.3-.3 5.7-.6 7.8 6 9.6 10.3 2.5.3 5.3 0 7.9.1h13" class="b"/><path d="M8 188h70q1.8.2 3.5-.2c3-3.6 5.6-2 8.8.2h12.3c5.4-5.9 6.7-5.7 14-8q4.5-1.7 7-5.9c3.4-5.4 7.6-17.9 14-7.4 4.1 6.3 5.7 12.5 14.9 10.4 6.3-1.3 8.7 5.6 10.5 10.3l.9.6H184" class="b"/><path d="M8 187h72.7c1-.2 1.8-1.4 2.6-2 1.7-1 3.8-.3 5.3.7.7.5 1.6 1.4 2.6 1.3h7q2.2.2 4.4-.2c6.4-9.7 14-4.2 20.1-12 2.8-3.6 5.2-11.5 9.6-12.9 2.4-.3 4 2 5.3 3.7 3.8 5.6 5.9 11.8 14 10.2 5.1-1 7.7 1.9 9.6 6.2.8 1.4 1.2 4.1 2.7 5H184" class="b"/><path d="M8 186h71.8q1.6.2 2.6-1.1c2.4-2.4 5.7-.5 8 1.1h11.3c.5-.3 1.4-1.4 1.7-1.9q1.6-1.9 3.5-3.2c2.1-1.3 4.6-1.7 7-2 6.1-.5 8.8-3.7 11.4-8.8 2.9-5 6.7-13.3 12.3-5.5 2.7 3.5 4.8 8.6 9.6 9.6 2.3.5 4.7 0 7 .3 5.2.7 7 6.7 8.8 11l.9.5H184" class="b"/><path d="M8 184.9c8.7.3 17.5 0 26.3 0h47.3q2.6-2.7 6-1c.9.3 1.8 1 2.7 1h11.4c8.1-12 15.2-2 21.9-12.2 3.2-4.5 7.5-17.2 14-9.1 2.2 2.6 4 5.9 7 7.7 2.3 1.5 5.2 1.7 7.9 1.9 6 .3 8.6 6.7 10.5 11.6 1 .3 2.4.1 3.5.2h17.4" class="b"/><path d="M8 181.7q2.3 1 4.4 2.3h69.2a4 4 0 0 0 1.7-.8c.4-.1 1.3-.4 1.8-.4q1.3.1 2.6.7c.4.3 1.3.5 1.7.5h12.3c7.5-11.9 14.3-2.4 21-10.4 3-3.4 6.8-14.7 12.3-12.8 2.5 1.1 4.2 3.7 6.1 5.7 2.7 3.1 6.6 4.7 10.5 5.4 6.6 1.1 8.9 6.6 11.4 12h21" class="b"/><path d="M8 178.5c2.5 1 4.8 2.7 7 4.3 2 .4 4.1 0 6.1.2h52.6c3.7-.1 7.6.2 11.4-.3q3.4.4 7 .3h9.6c7.4-11.1 12-3.5 19.2-8 4.7-3.2 8.1-17 15-14.4 2 1 3.6 2.9 5.2 4.3a25 25 0 0 0 5.2 3.6c5.2 2.4 9.9 3.3 13.2 8.5 1.3 1.7 2 4.4 3.5 6h21" class="b"/><path d="M8 175.2c2.6 1.1 4.8 3 7 4.6 1 .7 2.1 2.1 3.5 2.2h83.2c3-4.3 6-6.8 11.4-6.3 2.3.2 4.8.4 7-.8 5.6-3.3 7-12 13.1-14.8 2.6-.8 5 1.1 7 2.6q2.5 2 5.3 3.4c8 4.4 12.7 6.9 16.6 15.7 2.5.4 5.3 0 7.9.2h14" class="b"/><path d="M8 172c4.8 2 8 6.2 12.3 9h81.4c2.5-2.9 4.5-5.8 8.7-6 2.3-.2 4.7.3 7 0 6-.6 8-7.3 11.4-11.2 5.4-6.8 8.6-3.8 15-.6 4.7 2.8 9.4 6.2 13 10.4 2.1 2.1 3.4 5 5.3 7.4H184" class="b"/><path d="M8 169c5.3 2 8.7 6.8 13.1 10q1.1 1 2.7 1h77.9c1-.5 1.8-2 2.6-2.7 3.2-3.5 7-3.4 11.4-3 4 .4 6.6-1.7 8.8-4.7 2.8-3.6 5.2-8.2 9.6-10 2-.6 4.2 0 6.1.6q1.8.4 3.5 1.2a53 53 0 0 1 17.5 18.5H184" class="b"/><path d="M8 166c7 2 12.2 12.4 18.4 13q2.2-.2 4.4-.2 1.7.2 3.5.1h68.3c2.1-3.2 5.6-5.7 9.6-5.5 4.7.1 8 .7 11.4-3.3 3.5-3.8 6.2-9 11.4-10.8 2-.6 4-.3 6-.2 5.6.1 10.8 7.9 14.1 11.9l3.5 4.8c.7 1 1.4 2.7 2.6 3.1H184" class="b"/><path d="M8 163.3c4.8 1.2 8 5.3 11.4 8.6 1.8 1.8 3.7 3.8 6.1 4.6 1.7.4 3.6.1 5.3.3q1.3 0 2.6.6.8.4 1.7.5h67.4c1-.5 1.9-1.7 2.7-2.4q3-2.7 7-2.9c4.6 0 8 .6 11.4-3.2 5-5.2 8.7-10.9 16.6-11.3 4.7-1.4 8 3.2 10.5 6.3q3.3 4.3 6.2 8.8c1 1.4 2.1 3.5 3.5 4.7H184" class="b"/><path d="M8 160.7c7.3 1.4 10.7 9.3 16.6 13 1.6.8 3.6.8 5.3.9q2.9.1 5.2 1.8.8.6 1.8.5h66.5c2.3-2.6 5.3-4.8 8.8-5 5.5-.4 8 .3 12.3-4 4.4-4.4 8.7-8.6 14.9-10.4 1-.3 2.3-1 3.5-1 3 .3 5.2 3.4 7 5.6 3.4 4.8 6.3 10 9.6 14.8H184" class="b"/><path d="M8 158.2c5.8.5 9.4 6 13.1 9.7 1.7 1.8 3.7 3.7 6.2 4.1 4.3.6 6.2 1 9.6 4h63.9q1.8 0 3.5-.3c2.6-3.2 6.5-4.9 10.5-5q3.2.2 6.2-1c3.4-2 6.3-5.1 9.6-7.4q4.6-3.3 9.6-5.8c1-.6 2.3-1.4 3.5-1.2 2.8.7 4.5 3.5 6.1 5.7q3.3 5 6.2 10c1 1.6 2 3.8 3.5 5H184" class="b"/><path d="M8 155.9c5.8-.1 9.5 5.3 13.1 9.1 1.7 1.8 3.6 4 6.2 4.6 2.3.5 5 1 7 2.4 1.2.7 2.3 2.1 3.5 2.9h65.6c1.9.2 3-2 4.4-2.7 3.3-2.5 7.6-2.2 11.4-3 3-.8 5.3-3 7.9-4.5q4.7-3.2 9.6-6.3l3.5-2.4c1.2-1 2.7-2.3 4.4-1.6 5.2 2.5 10.2 15.1 14 20.3q1.7.3 3.5.2H184" class="b"/><path d="M8 153.8c6.3-.8 10.2 5.3 14 9.3 4 5 6.5 3.7 11.4 6.3q1.9 1.4 3.5 3 .6 1 1.7 1.5h66.5a17 17 0 0 1 10.6-5.2q3.2-.1 6.1-1.5c5.6-3.2 11.6-5.9 16.7-10 4-3.4 5.2-6.1 9.6-.8 4 5.4 6.7 12 10.5 17.5H184" class="b"/><path d="M8 151.8c6.2-1.6 10.4 4.4 14 8.4 1.5 1.7 3.1 3.6 5.3 4.4 5.3 2 8 3.6 11.3 8.3h43.8c7.9-.1 15.8.2 23.7-.1 3.9-4.2 7.8-4.7 13-5.7q2.3-.6 4.5-1.8l4.3-1.7q6-2.1 10.6-6.3c3.6-3.4 5-7.3 9.6-1.8 4.1 5.3 6.6 11.8 10.5 17.4H184" class="b"/><path d="M8 149.9c7.6-2.7 12.1 6 16.6 10.4 2.2 2.1 5.4 3 8 4.6q2.3 1.7 4.3 4c.8 1 1.5 2.5 2.6 3h64c1.8 0 3 .3 4.3-1.3q2-1.6 4.4-2.7c2.5-1 5.3-1.3 7.9-2 2-.6 4-1.7 6.1-2 4.2-1 8.3-2.5 11.4-5.4 3.7-3 5.5-9.6 10.5-3.8 4.2 5.1 6.7 11.5 10.5 16.8 1 .6 2.4.3 3.5.4H184" class="b"/><path d="M8 148c7.4-3.5 12.4 5 16.6 9.7q2.7 2.5 6.2 4c3.7 2.1 6.3 5.8 8.7 9.2H107c3-3.2 7.1-4.8 11.3-5.4 2.1-.3 4.1-1.4 6.2-1.8 3.2-.5 6.7-.6 9.6-2.2q3-1.7 5.2-4.4c1.2-1.3 2.3-3 3.5-4.2 4.1-2.8 7.8 4.5 9.7 7.3 2.2 3.5 4.2 7.5 7 10.7H184" class="b"/><path d="M8 146.4c7.4-4.3 12.4 4 16.6 8.8 2 2.2 4.7 3.5 7 5.2a31 31 0 0 1 8 9.3c2.8.4 5.8 0 8.7.2H107c1.2-.7 2.3-1.9 3.5-2.5 2.6-1.7 5.7-2.2 8.7-2.8 1.8-.2 3.5-1.1 5.3-1.3 2.3-.2 4.7 0 7-.4 3.6-.7 6.6-3.4 8.7-6.3 1-1.3 2-3.2 3.5-4 4.1-1.7 7.6 5 9.7 7.6 2.1 3.2 4.2 6.8 7 9.5 2.8.4 5.8 0 8.7.2h15" class="b"/><path d="M8 144.7c7.5-4.8 12.4 3 16.6 8.2 2.2 2.6 5.4 4.3 8 6.5 2.7 2.5 5 5.8 7 9 1 .7 2.3.4 3.4.5h64c1.3-.3 2.3-1.6 3.5-2.2q2.4-1.4 5.2-2l4.4-.8c1.4-.3 2.9-1 4.4-1 3.1 0 6.5 1 9.6-.3 4-1.5 6.2-5.5 8.8-8.7 4.7-4.4 9.5 4.1 12.2 7.3a44 44 0 0 0 7 7.7H184" class="b"/><path d="M8 143.2c8.2-5.6 12.9 3.3 17.5 8.8 2.7 2.8 6.2 5 8.8 8q1.9 2.1 3.5 4.5c.7 1 1.4 2.9 2.6 3.3h67.4q4.3-3.4 9.7-4.2c2-.2 4-1 6-1.3 3-.1 5.9 1.2 8.8 1 3.3 0 6-2.3 8-4.8 1-1.4 2-3.3 3.4-4.4 4.7-3.3 9.3 3.6 12.3 6.5q1.6 2 3.5 3.6c1.1 1 2.6 2.2 3.5 3.5 2.5.3 5.3 0 7.9.1h13" class="b"/><path d="M8 142c8.4-6 13 2.6 17.5 8.5 2 2.4 4.8 4.4 7 6.7q4 4.2 7 9.2c1 .7 2.4.4 3.5.4h63.1q1.4.2 2.6-.3 1.6-1.1 3.5-2c3.3-1.4 7-1.9 10.5-3 4.2-.5 8 3 12.3 2 5.5-1.3 6-7.5 10.5-9.4 4.4-1.3 8.2 3.3 11.4 5.9 2.3 2.2 5.3 3.9 7 6.8h20" class="b"/><path d="M8 140.8c8.7-6.3 13 2.2 17.5 8.5 2 2.6 4.7 4.9 7 7.3a59 59 0 0 1 7 9c1 .4 2.4.2 3.5.2h65.7q2.2-1.2 4.4-2.1 3.4-1.4 7-2.3c1.6-.6 3.5-1.1 5.2-.6 3.8 1 7.4 4.3 11.4 3 4.4-1.7 5.2-7.7 9.6-9 4.7-1.1 8.7 2.6 12.3 5 1.1.7 2.6 1.6 3.5 2.6s1.6 2.6 2.6 3.4H184" class="b"/><path d="M8 139.8c9-6.4 13.1 2 17.5 8.7q3.2 4.1 7 7.8 3.9 4 7 8.5h70.1l2.6-1.2q3.5-1.5 7-2.8c1.7-.5 3.5-1.4 5.3-1 4.9 1 9.9 7.7 14.8 3.3 3.4-3.5 4.6-8.3 10.6-8 3 .2 6 1.7 8.7 3.1 3.3 1.5 4.6 3.4 6.1 6.6H184" class="b"/><path d="M8 138.8c10-6.8 13.6 3.5 18.4 10.4q3.6 4.7 7.9 8.8c1.8 1.8 3.3 4.1 5.2 5.8h58.7q6.5.2 13.1-.1 4.5-2 8.8-4c3.4-1.8 5.8-.7 8.7 1.4 1.4.8 2.8 2.2 4.4 2.7h6.2c1.5-.9 2.3-3 3.4-4.3 1.7-2.1 4.3-3.8 7-4 4-.4 8 .8 11.4 2.7 1 .7 2 2.2 2.7 3.3.3.7.9 2 1.7 2.3H184" class="b"/><path d="M8 138c10.3-6.7 13.8 3.8 18.4 11 3.4 5.1 8.1 9.1 12.3 13.6 1 .3 2.3.1 3.4.2h67.5c1.4 0 3 .3 4.3-.5 2.7-1.2 5.2-3 8-4 2.4-1 5 .6 7 2 1 .8 2.1 2.2 3.4 2.5h8.8a17 17 0 0 1 6.1-6c3.8-1.8 8.3-2 12.3-.8 3.5.9 4.1 4.4 6.1 6.8H184" class="b"/><path d="M8 137.3c8.3-5 11.9 0 15.8 7A45 45 0 0 0 36 159.9q1.2 1.2 2.6 2h17.6q1.2-.6 2.6-.5c.4 0 1.3.3 1.7.5h54.3l1.8-1.2c7.4-5.1 8.2-4.2 14.9 1.2H142c1.7-1.5 3.2-3.5 5.2-4.5 3.7-1.9 8.2-3 12.3-2.3 3.4.5 4.5 4.3 6.1 6.8H184" class="b"/><path d="M8 136.6c2.2-1 4.6-2 7-1.7 6.4 1.8 8.2 9.4 11.4 14.5a32 32 0 0 0 7.9 9.2c1.3.9 2.6 2.4 4.3 2.2h15.8c2.5-1.8 4.7-2.3 7 0h51.7q1.7.2 3.5-.3c2.5-1.8 5.3-4.8 8.7-3.7q2.5 1 4.4 2.9c.3.4 1.2 1 1.8 1h8.7c1.7 0 3.2.4 4.4-1.2a27 27 0 0 1 14-5.4c4-.3 5.4 3.8 7 6.7H184" class="b"/><path d="M8 136c8-3.5 11.1 0 14.9 6.8 2.8 5.9 5.7 12.5 11.4 16.2 1.2 1 2.9.7 4.4.8h14c.9-.4 1.8-1.3 2.6-1.8 3.3-2 4.6-.3 7 1.8h55.2c5-4.7 8-5 13-.1q6.7.1 13.2 0 1-.1 1.8-.8l2.6-1.6a70 70 0 0 1 7.9-3.2c6-2 7.2.9 9.6 5.7H184" class="b"/><path d="M8 135.4c3.2-1 6.8-2 9.6.4 7.3 6 7.4 18 15.8 23l18.4-.1c3.7-3.9 7.2-5.4 10.5 0q3.5.1 7 0h49.1c1.1-.6 2.2-1.8 3.4-2.4 3.2-1.6 6.4.4 8.8 2.4h14.9l2.6-1.5 7-3c6.2-2.8 7.7-1.1 10.5 4.5H184" class="b"/><path d="M8 135c2.6-.6 5.4-1.4 7.9-.2 8 4.4 8.3 16.5 14.9 22.7 2 .5 4.1.1 6.1.2h11.4q1.4.2 2.6-.4c1.3-1.3 2.8-2.8 4.4-3.6 2.3-1.3 4.7 0 6.1 2 .3.6 1.2 1.7 1.8 2h56c1-.1 1.8-1 2.6-1.5 2.6-1.4 5.7-.7 8 1 .8.8 2.3.5 3.4.5h6.2q3.4.1 7 0l2.6-1.2c3.5-1.1 6.8-3.2 10.5-4 3.2-.8 4.8 3 6.1 5.2H184" class="b"/><path d="M8 134.4c2-.2 4.1-.6 6.1-.2 4.5 1 7 5.7 8.8 9.6 1.5 3 4.1 11.5 7 13h19.3c1.7-1.5 3.2-3.5 5.2-4.8 4.2-2.7 6.7 1.7 8.8 4.7H121c3.5-2.3 6-1.9 9.6 0h15.7q1.8-.3 3.5-1c3.7-.8 6.9-3.2 10.5-3.8 2.7-.1 4 3 5.3 4.8H184" class="b"/><path d="M8 134c2.3 0 4.8-.4 7 .4 8 4 8.6 14.5 13.1 21.3h20.2c6.1-6.8 9.8-10 14.9 0h34.1c2.6-1.5 4.6-2 7 0h18.4q1.8-.6 3.5-1c1.5 0 3 .6 4.4 1h15.7l5.3-1c3.3-.7 6.2-3.1 9.6-3.2 2 .4 3.2 2.7 4.4 4.2H184" class="b"/><path d="M8 133.5c2.3.2 4.8 0 7 1 7.5 3.9 8.3 13.5 12.3 20.2h18.3c4.4 1 9.7-16.5 17.6-.3 1 .5 2.3.2 3.5.3H92c1.5-.1 3.2.3 4.4-.4 1.2-1 2.8-2.1 4.4-2q1.6 0 2.6 1 .8 1 1.8 1.4h20.1q1.4-.3 2.7-.4 1.3 0 2.6.4H142c1 0 2.4.2 3.5-.3 2.3-.4 4.7-.1 7-.6q2.8-.7 5.2-1.9c1.4-.5 3-1.2 4.4-.7 1.5.7 2.5 2.3 3.5 3.5H184" class="b"/><path d="M8 133c2.3.4 4.9.3 7 1.4 6.9 3.8 8.2 12.6 11.4 19.2q9.1.1 18.4 0c1.4.3 2.6-1.1 3.5-2q1.6-2 3.5-3.7c3.9-3.7 7-2.2 9.6 2 .8 1 1.3 3.2 2.6 3.8h30.7c4-4.1 6.8-5.5 10.5 0H120c2.9 0 5.9.2 8.7-.2q4.8.2 9.7.2l4.3-.1q1.2-.9 2.7-1c2.6-.1 5.3.7 7.9.2q2.6-.6 5.2-1.7c1-.4 2.4-1 3.5-.6 1.4.6 2.5 2.1 3.5 3.2H184" class="b"/><path d="M8 132.7c2 .3 4.2.4 6.1 1.1 4 1.5 6.2 5.5 8 9.1l2.5 6.7c.3.7 1 2.7 1.8 3h17.5c2.8 0 5.7-4.8 7.9-6.5 4-3.8 7.2-1.6 9.6 2.5.8 1.2 1.4 3.3 2.6 4h29.8c4.2-4.8 7.5-7.3 11.4-.4q.8.6 1.7.5h12.3c3.8-.1 7.7.2 11.4-.3q5.2.4 10.5.3c3.7-3.8 6.1-1.5 10.5-1q2.2.3 4.4-.4c4.6-1.5 6.1-3.3 9.6 1.4H184" class="b"/><path d="M8 132.2c2.3.6 4.9.6 7 1.8 6.2 3.6 7.9 11.5 10.5 17.7H37c2-.1 4.2.2 6.1-.2 3.5-.6 5.5-4.1 7.9-6.4 4.4-4.5 7.7-2.5 10.5 2.3.8 1.3 1.5 3.3 2.6 4.3h29c2.1-2 3.6-5.5 7-5.8 3.2 0 4.3 3.7 6 5.8h22.8q1.8-.7 3.5-.7c2 0 4.1.8 6.2.7 1.4 0 2.6-1.2 3.5-2.2 3-3 7 .6 10.5 1 2.7.3 5.3-.9 7.9-1.7 2-.8 4 1 5.2 2.6q1.3.5 2.6.3H184" class="b"/><path d="M8 131.8c2.6.6 5.6.7 7.9 2.2 5.5 3.8 6.8 11 9.6 16.7h16.7c.6-.7 1.8-1 2.6-1.3 2.4-1.4 4-4 6.1-5.8 4.5-4.5 7.8-2 10.5 2.7.8 1.3 1.5 3.4 2.7 4.4h24.5c5.6.2 3.6-.2 7-4 5-6 8.2-1.3 10.5 3.9 5 .3 10 0 14.9 0h7.9q1.6-.8 3.5-1.3c2.9-.5 6.4 1 8.7-1.5 3.6-4.9 8 .7 12.3 1q2.7.3 5.2-.7c1.1-.3 2.4-.9 3.5-.8 1.9.4 3.1 2.2 4.4 3.4H184" class="b"/><path d="M8 131.4c2.6.6 5.6.5 7.9 2 3.5 2.3 5.4 6.4 7 10.1.8 1.8 1.4 4.6 2.6 6.2h15.8l1.7-1 1.8-.7c2.7-1.7 4.5-4.6 7-6.5 4.2-3.6 7.5 0 9.6 3.8.8 1.3 1.5 3.3 2.7 4.4h28c2.2-3.8 7-11.4 11.4-5.8 1.3 1.7 2 4.3 3.4 5.8h22c3.2-2.7 5.8-2.3 9.6-3 2.9-.6 3.6-4.3 7-3.4 3.2 1.1 6 3.9 9.6 3.8q2.2-.1 4.4-1c1.4-.5 3-.7 4.4.3 1.2.8 2.2 2.4 3.5 3.3H184" class="b"/><path d="M8 131c2.6.6 5.5.5 7.9 1.9 3.5 2 5.4 6.1 7 9.7.8 1.8 1.4 4.5 2.6 6h15.8q1.5-1.4 3.5-2c1.6-1 3-2.6 4.4-4 4.1-4.5 7.6-5.4 11.3.2 1.3 1.7 2.1 4.3 3.5 5.8h27.2c2.5-3 4.3-8.2 8.7-8.9 4.1.3 5.4 5.7 7 8.8 2.6.4 5.3 0 8 .1h14q2.2-2.1 5.2-3.2 2.2-.6 4.4-1.2c3.2-1.2 3.8-5.2 7.8-3.3 3.1 1.4 6 4 9.7 3.8 1.7-.1 3.5-.8 5.2-1.2 3.3-.2 4.9 3.4 7 5.2H184" class="b"/><path d="M8 130.8c2.6.5 5.5.3 7.9 1.6 5.5 3.2 6.8 10 9.6 15.2h14.9c.9-.4 1.8-1.4 2.6-1.8q2-.5 3.5-1.9c2.9-2.2 5.5-6.6 9.7-5.8 4.2 1.4 5.4 6.3 7.8 9.5h26.3c2.8-3.1 5.4-10.8 10.5-10.2 4 1.2 5 7 7 10.2h21c1.6-1.4 3.3-3 5.3-4q2.7-1.2 5.2-2.5c2-1.3 3.3-4.4 6.2-3.6 3.3 1.1 6 4 9.6 4.4 2 .3 4.2-.4 6.1-.8 3.8 0 5.6 4.2 8 6.5H184" class="b"/><path d="M8 130.5c2.3.4 4.8.3 7 1.1 6.1 2.5 7.8 9.7 10.5 15h14c1.3-.4 2.2-1.9 3.5-2.4a8 8 0 0 0 3.5-1.6c2.5-1.8 4.7-4.7 7.9-5.4 5.3-.4 7.1 6 9.6 9.4h25.4c3.2-3.3 7-14.8 13.1-11 3 3 3.9 7.6 6.2 11h20.1c1.5-1.2 2.8-3 4.4-4 1.9-1.6 4.2-2.7 6.1-4.2 2-1.4 3.3-4.6 6.2-4 3.4 1 6 3.9 9.6 4.4 2 .4 4.1 0 6.1-.4 3.8 0 6.6 5.5 8.8 8 4 .4 8.2.1 12.2.2l1.8-1.5" class="b"/><path d="M8 130.1c2.3.4 4.8.4 7 1.2 6 2.2 8 9 10.5 14.2 2.6.3 5.3 0 7.9.1h3.5c.8 0 2 .1 2.6-.4q1.5-1.6 3.5-2.5 1.9-.2 3.5-1.2c2.3-1.5 4.4-3.7 7-4.6 5.6-1.7 8 5 10.5 8.7h24.6c3.2-3.2 7-15.3 13-13.2 4 2 5.4 9.8 8 13.2h19.2c1.6-1.2 2.9-3.2 4.4-4.5 1.9-1.8 4.2-3.4 6.1-5.2 1.8-1.5 2.9-4.1 5.3-4.5 1.9-.1 3.7 1 5.2 1.8q2.6 1.6 5.3 2.4 3 .6 6.1 0c3.3.2 5.1 3.7 7 6 1.1 1.2 2 3.2 3.5 4h8.8c1.3-1 2.1-2.7 3.5-3.6" class="b"/><path d="M8 129.8c7.6.8 11 1.8 14.9 9 1.1 1.7 1.7 4.6 3.5 5.8h11.4c5.6-5.2 5-2 9.6-4.6 2.2-1.4 4.4-3.2 7-3.7 5-.7 7.3 4.9 9.6 8.3h23.7c1.6-1.1 2.4-3.7 3.5-5.4 2.2-3.5 4.4-8.6 8.7-9.7 2.7-.4 4.3 2 5.3 4.1 1.8 3.5 3.2 7.6 5.2 11h18.4c1.4-1 2.4-2.6 3.5-3.8q3-3.3 6.1-6.3c2.2-1.8 3.4-5 6.2-6 3.8-.4 7 2.9 10.5 3.7q3 1 6.1.5c4.2.3 8 9 11.4 11.8q3.5.3 7 0c1.3-1.8 2.5-4.2 4.4-5.6" class="b"/><path d="M8 129.3c6 .9 10.4 1.8 14 7 1.6 2.3 2.7 5.1 4.4 7.2 2.9.3 5.9 0 8.7 0 1.7-.2 3-1.7 4.4-2.5q1.6-1 3.5-1.1a7 7 0 0 0 3.5-.3c2.4-1 4.6-2.6 7-3.3 5.3-1.7 8.1 3.7 10.5 7.3h20.2c1.1 0 2.5.2 3.5-.4 2.8-4.3 9-21 15.7-15.3 3.5 4.6 5.1 10.5 8 15.5 1.9.4 4 .1 6 .2h11.4c1.8-1.2 3-3.5 4.4-5l6.2-7.1c2.7-3.5 4.3-7.3 9.6-5.3 2.6 1 5.1 2.5 7.9 3.2q2.2.4 4.3.4 1.6.2 2.7 1.3c3.7 3 9.2 16.5 14.9 11.4 1.9-2 3-5 5.2-6.6" class="b"/><path d="M8 128.8c4.3.8 9 1.8 12.3 5 1.2 1.1 2.5 2.8 3.5 4.3 1 1.7 2.3 3.8 4.3 4.5 1.4 0 3 .2 4.4-.2 3.4-1.3 6.6-4.3 10.5-3.8q2.2.8 4.4 0c2.9-.9 5.6-2.8 8.8-2.6 3.8.2 5.7 4 7.8 6.6h22.8c3.7-5.8 5.8-13.4 11.4-17.7 2-1.4 4.8-1.1 6.1 1.1 2.5 3.8 4.1 8.3 6.2 12.3.6 1.3 1.5 3.3 2.6 4.3h15.7c1.5-1 2.5-2.7 3.5-4l6.2-7.8c2.4-2.7 3.9-7.2 7.9-7.8 3.4-.3 6.4 1.8 9.6 2.8q1.7.6 3.5.9c1.1.1 2.5.1 3.5 1 4.1 2.7 9 16.4 14.9 12.7 2.6-2 3.5-5.6 6.1-7.5" class="b"/><path d="M8 128.2a27 27 0 0 1 14 6.6c1.5 1.5 2.6 3.7 4.4 4.8 4.3 2.3 8.7-2.4 13.1-2.6q1.8 0 3.5.5 1.7.9 3.5.8c4.1-.2 8.1-3.5 12.3-1.7a10 10 0 0 1 3.5 3c.3.6 1.2 1.7 1.7 2h22c1.6-1.5 2.4-4.1 3.4-6 1.8-3.6 3.7-7.5 6.1-10.7 2-2.7 6.3-5.4 8.8-1.9 2.9 4.1 4.6 9.2 7 13.6 1 1.6 1.9 4 3.5 5h14c1.7-1.3 3-3.4 4.4-5l7-9.7c3.8-6.5 6.9-8.2 14-5q2.6 1.1 5.3 1.8c2.6.3 3.6 1.1 5.2 3.2 3.2 3.5 8.3 16.1 14 10 1.9-2 3-5 5.3-6.8" class="b"/><path d="M8 127.5q6.5 1.8 12.3 5.2c2 1.2 3.4 3.2 5.2 4.6 2.3 1.3 4.9 0 7-1 5-2.2 7.7-1.4 12.3 1.2 6.9 2.5 12.6-5.5 18.4 2.8 1 .4 2.4.2 3.5.3H86c3.7-6.3 6.8-17.3 13-21.2q4-1.9 6.2 1.9c4 6.2 6 14 11.4 19.3h12.2c4.2-4 7.4-9 10.5-13.6 2.6-3.9 5.1-9.5 10.5-9.3 2.8.2 5.4 1.6 8 2.6q1.6.7 3.4 1c1 .3 2 1.3 2.7 2 3.2 3.4 8.2 16.7 14 11.9 2.4-2.2 3.5-5.8 6.1-7.8" class="b"/><path d="M8 126.8q3.2 1 6.1 2.5 3.6 1.6 7 3.4 1.9 1.2 3.5 2.5c2.7 1.6 5.5-.8 8-1.8 5.7-2.7 8.5 1.5 13 4 6.7 2.8 11.5-4.2 17.6 2.1h20.1c.8 0 2 .1 2.6-.4 3.8-6.9 6.3-16.1 12.3-21.4 2.5-1.8 5-2.2 7 .6 4.2 6 6.4 13.4 11.4 18.8 2.7 2.8 3.3 2.5 7 2.5h4.4c1-.2 1.9-1.2 2.6-1.8 3.4-3.4 6.2-7.6 8.7-11.7 3-5 7-12.8 14-10.4 2.1.6 4.1 1.8 6.2 2.5q1.4.4 2.6 1c1 .7 2 2 2.6 3 3.2 4 8 16.9 14 9.6 1.8-2.2 3-5.2 5.3-7" class="b"/><path d="M8 125.9c3 1 5.8 3 8.8 4.4q2.5 1.2 5.2 2.2c1.1.5 2.3 1.4 3.5 1.5 2.6-.3 4.6-2.5 7-3.5 2.4-1.1 5.1-.4 7 1.3 3 2.4 5.5 6.2 9.6 6.7 2.7.3 5.3-.7 8-1.2a7 7 0 0 1 3.4.3c.8.3 1.7 1.1 2.7 1H85c1.4-.9 2-3.2 2.7-4.6q2.4-5.7 5.2-11.3c1.9-3.3 4-7.3 7.9-8.5q2-.7 3.5.5c5.1 5.5 7.2 13.2 12.3 18.8 3.7 4.1 9 7.2 14 3.2a41 41 0 0 0 8.7-11c3.3-5.1 6.6-14 14-12.6 2.2.5 4.2 1.8 6.2 2.7q2 .6 3.5 2c2 2.4 3.5 5.5 5.2 8.2 2.6 4.1 6.2 9.1 10.5 3.5 1.8-2.2 3-5.2 5.3-7" class="b"/><path d="M8 125c2.8 1 5.2 3.1 7.9 4.5q4.2 2.1 8.7 3c2.8-.3 4.7-3 7-4.3 3-1.9 5.9-.2 8 2.1 1.7 2 3.3 4.3 5.2 6q.8.8 1.7 1.2h38.6c1.7-1.6 2.4-4.8 3.5-7 2.4-5.4 4.6-11.5 8.7-16 2-2 5.6-4.2 7.9-1.6 4.8 5.4 7.3 12.6 12.3 17.9 3.4 3.6 9 7.7 14 4.2 3.9-2.7 6.3-7.1 8.7-11.1 2.9-4.7 6.6-13.8 13.2-13 2.5.4 4.7 2 7 3 4.4 1.4 7.2 11.5 11.3 15 6 4.9 8.3-6 12.3-8.6" class="b"/><path d="M8 124c3.2 1.4 5.6 4.1 8.8 5.7q2.4 1.2 5.2 1.4c1.1 0 2.5.2 3.5-.3 2.2-1.5 3.9-3.9 6.1-5.2 6-3.5 9.7 7.4 13.2 10.7 1.6.5 3.5.1 5.2.2h35c1.8-1.6 2.5-5 3.5-7.2 2.3-5.3 4.4-11 8-15.6 1.8-2.3 5.7-5.6 8.7-3.2 2.5 2.2 4.3 5.3 6.1 8 2.3 3.6 4.8 7.4 7.9 10.3 3.7 3.3 9.1 8.1 14 4.3 7.4-5 12.2-25.9 21-24q2.8 1 5.3 2.5c1.2.6 2.7 1.2 3.5 2.4 3.1 3.6 6.4 14 11.4 14.4 5-.9 5.7-7.6 9.6-10.1" class="b"/><path d="M8 122.9c4 2 6.8 6.4 11.4 7.3 6 1 7-2 10.5-5.7q4.3-4.3 7.9.7c1.6 2.1 3 4.8 4.4 7.1.6 1 1.3 2.8 2.6 3.2H85c.8-.3 1.4-2.1 1.7-2.9l1.8-4.4q2.2-6.2 5.2-11.9c1.7-3 3.8-6.2 7-7.8 1.4-.7 3-1.1 4.4-.2 2.5 1.7 4.3 4.5 6.1 6.9 2.7 3.7 5.4 7.6 8.8 10.8 3.8 3 8.7 9.7 14 6 7.2-4.7 11.7-25.5 20.1-24.5 2 .3 3.7 1.5 5.3 2.4.8.5 2 1 2.6 1.5 3.7 3.3 7.5 17 13.2 15.2 4.1-2.1 5-7.7 8.7-10.3" class="b"/><path d="M8 121.8c3.2 1.9 5.5 5.2 8.8 7 3.8 2.3 8.2.4 10.5-3.2 2-2.6 5.2-7.6 8.7-4 3.6 3.6 4.7 9 8 13h40.2q1 0 1.7-.6c3.5-8 6.8-21.3 14-26.5 2.6-1.6 4.5-2.1 7 0 3 2.4 5.4 5.8 8 8.8q3.5 4.6 7.8 8.5c3.2 3 7.2 9.6 12.3 6.3 7-4.6 11-25 19.2-24.9 2 .2 3.7 1.3 5.3 2.3.8.4 2 1 2.6 1.5 3.6 3.2 7.5 17.2 13.1 14.9 4.1-2.3 5-7.9 8.8-10.4" class="b"/><path d="M8 120.8c3.8 2.3 6 7 10.5 8.3 2.6.6 5.4-.9 7-2.8 2.3-2.5 5.4-10.3 9.6-7.3 4 3.9 5.4 9.7 8 14.4 2.2.3 4.6 0 7 .1h12.2q11.9.1 23.6 0c3.5-8.4 6.8-21.8 14-27.2 2.3-1.5 4.5-2.5 7-.9 3.9 2.4 6.7 6.2 9.7 9.5 2.5 3 5.5 5.6 7.9 8.7 2.6 3.2 6.4 10 11.3 6.8 7-4.8 10.5-24.4 18.4-25.1 2 0 3.7 1.1 5.3 2 .8.5 2 1 2.6 1.6 3.7 3.2 7.9 18.8 14 13.7 3.3-2.7 4.3-7.5 7.9-9.8" class="b"/><path d="M8 119.8c4.3 2.6 7.3 10 13.1 8.5 4-1.3 5.6-5.6 8-8.7 7.1-10.3 10.6 8.7 14 12.9h42.8c4-8.7 6.7-22.3 15-27.8 1.8-1.2 3.9-2 6-1 3.9 1.7 6.8 5 9.7 8 3 3.2 6.5 6.3 8.7 10.2 2.5 3.4 6.3 11.5 11.4 7.8 6.7-5 9.7-23.6 17.5-25 2-.2 3.7 1 5.3 1.8.8.4 2 .9 2.6 1.5 3.7 3.1 7.8 18.4 14 13 3.2-2.9 4.2-7.8 7.9-10" class="b"/><path d="M8 118.9c3.8 2.5 5.9 7.6 10.5 8.9 7.8 1.3 10-15.4 15.8-12.4 4 3.5 5.6 10.6 7.8 15.5l1 .6h42.8c2-3.3 3-7.6 4.4-11 2.2-5.4 4.4-11.3 8.8-15.3 4.3-3.7 7.5-4.1 12.2-.9q5.8 4.4 10.6 9.7c2 2.4 3.6 5.5 5.2 8.2 2 3 5 9.7 9.6 7.4 7.1-4.6 9.6-23.1 17.5-25.3 1.9-.2 3.7.7 5.3 1.6.8.4 2 .8 2.6 1.4 3.8 3 7.8 17.8 14 11.8q2.6-2.7 4.4-6.1c.8-1.4 2-3 3.5-3.7" class="b"/><path d="M8 118c3.8 2.6 5.8 7.8 10.5 9 7.6 1 10-16.3 15.8-12.8 4 4 5.6 11.1 7.8 16.2H86c.7-.5 1.6-2.6 1.8-3.4l1.7-4.8c2.1-5.5 4.2-11.3 8-15.8 2.5-2.9 6.3-5.9 10.4-5 4.5 1 8.1 4.2 11.4 7.2 4 3.5 6.3 8.4 8.8 13 2 3.1 5 10 9.6 7.2 6.6-5 8.9-21.9 16.6-24.5 1.8-.4 3.7.5 5.3 1.2q1.4.5 2.6 1.2c3.7 2.9 7.3 15.5 13.1 11.3 2.3-1.8 3.8-4.6 5.3-7 .8-1.3 2-2.8 3.5-3.4" class="b"/><path d="M8 117.2c3.8 2.6 6.3 9 11.4 9.1 6.6-1 7.8-12.1 13.1-13.6 4.8.3 7.5 13 9.6 16.8H86l.9-.6c3.4-8.4 6.3-20.7 14-26 2.3-1.7 5-2.8 7.9-2.3 5.2 1 9.6 4.7 13.1 8.5 3 3.6 4.8 8.3 7 12.4 1.8 3 4.5 9 8.8 7.2 6.7-4.3 9-21.2 16.6-24.1 1.8-.5 3.7.2 5.3.8q1.4.4 2.6 1c3.8 2.8 7.3 14.4 13.1 9.8 1.8-1.6 3.2-3.8 4.4-5.8 1.1-1.7 2.4-3.9 4.4-4.5" class="b"/><path d="M8 116.3c3.8 2.7 6.3 9.3 11.4 9.4 6.5-1.4 7.1-10.3 12.2-13.6 5.3-1.9 8.3 13 10.5 16.4h44.7c3-7.7 5.5-16 10.5-22.6q9-10.6 20.2-2.6c6.1 4.1 8.2 10.6 11.3 16.9 1.4 2.7 3 5.8 5.3 7.9 1.3.7 3 .2 4.4.3 6.8-4.7 9.6-27 20.1-23 1 .3 2.5.5 3.5 1 3 2.4 4.7 6.4 7.9 8.7 6.4 3.7 9-9.6 14-11" class="b"/><path d="M8 115.3c3.7 2.8 6.3 9.8 11.4 10 6.3-1.2 7.2-10.6 12.2-13.7 5.3-2 8.3 12.5 10.5 15.9h44.7c3.5-7 5.6-15.1 10.5-21.4 7-8.6 15.8-9 23.7-1.1 4.2 4.3 5.9 10.7 8.7 16 1.3 2.1 2.3 5.1 4.4 6.4h6.1c5.2-5 8.6-23.5 17.5-21.8 4.6.9 4.9.8 8 4.4 4.9 6.3 8 5.6 12.2-.8 1.7-2.3 3-5.8 6.1-6.6" class="b"/><path d="M8 114.3c3.7 3 6.4 10.3 11.4 10.7 6.2-1 7.3-10.7 12.2-13.7 5.3-2 8.4 11.8 10.5 15.1h44.7c.8-.3 1.5-2 1.8-2.8l1.7-4.2a71 71 0 0 1 6.1-11.8c5.6-8 14.4-12 22.8-5.2 3.4 2.4 5.4 6.3 7 10 2.2 4.7 3.9 10 7 14 2.9 0 6 .3 8.8-.1 3.7-5.5 7.9-21 15.7-20.1 1.1 0 2.4.4 3.5.4q1.6.5 2.7 1.6c2 1.8 4 4.6 7 5 5.9 0 8-11.1 13.1-12" class="b"/><path d="M8 113.4c3.8 3.4 5.6 9.3 10.5 11.3 7 1.4 8.8-14.1 14.9-13.8 4.4 1.7 6.5 10.5 8.8 14.5h45.5c3.4-7 6.2-14.6 11.4-20.6 6.4-7.3 14.6-8.7 21.9-1.6 2.4 2.2 3.8 5.6 5.2 8.6q2.8 6.8 6.1 13.3c1.4.6 3 .2 4.4.3h6.2c1.9-2.2 2.9-5.5 4.3-8 2-3.7 4-8.2 8-10.1 1.2-.6 2.9-.6 4.3-.4q1.8-.2 3.5.8c2.5 1.6 4.6 4.7 7.9 4.5 5.8-1 7.9-11.5 13.1-12.2" class="b"/><path d="M8 112.6c3.6 3.5 5.4 8.8 9.6 11.6q1.4.3 2.7.2 1 0 1.7-.6c2.8-2.2 4.2-5.8 6.1-8.7 6.9-11.5 11 3.6 14 9.3h45.6c.7-.3 1.5-1.9 1.7-2.6l1.8-3.5q2.7-5.6 6.1-10.7c4.8-7 13-12.7 21-7 3.9 2.4 6.2 6.5 7.9 10.6 2 4.3 3.4 9.3 6.1 13.2h8c1.3-.1 3 .4 4.3-.4 3-5.3 6.3-16 13.1-16.6 2 0 4.4-.3 6.2 1 2.2 1.6 5 4 7.8 2.5 4.9-2.2 7.3-11.6 12.3-12" class="b"/><path d="M8 111.9c3.3 3.5 5.2 8.3 8.8 11.5 1.9-.1 4.2.3 6-.3 2.5-2.6 4-6.2 6.2-9.1 6.2-9 10.5 4.4 13.1 9q1.3.6 2.7.4h43.8c5.7-8.7 11.7-26.4 24.5-25.2 4.3.7 8.2 3.8 10.5 7.4 3 5.5 5.2 11.7 7.9 17.4a3 3 0 0 0 1.7.4h12.3c3-5.6 6.3-15.9 14-15.7 5.3-.8 7.9 5.7 13.1 1.6 3.8-2.7 6.7-11.2 11.4-11.2" class="b"/><path d="M8 111.3c3 3.4 4.8 7.8 7.9 11 2.6 0 5.3.3 7.9 0 3.1-3.7 7.2-16 13-9.2a36 36 0 0 1 3.6 5.4c.7 1.2 1.4 3.2 2.6 3.9h46.4c5.7-8.5 12.6-27.4 25.4-24 10.4 3.4 12 15.6 16.7 24h14.9c3.2-5.1 5.4-13 12.2-14.3q1.8-.3 3.5-.1c4 1.2 6.6 3.8 10.5.3 3.7-2.9 6.5-11 11.4-10.8" class="b"/><path d="M8 111c2.7 3 4.5 7 7 10.3q2.6.2 5.3 0c1.3 0 3 .3 4.3-.1 3-4.3 7.4-14.7 13.2-7.4 2 2.3 3.2 5.4 5.2 7.6h47.3c6-8 12.4-27.4 25.4-22.7 7 2.9 9.5 9.2 12.2 15.7l1.8 4c.2.8 1 2.6 1.7 3h15.8c3.1-4.7 5.2-11.7 11.4-13.1 6.1-1.7 8.4 4.1 14-.9 3.6-3 6.2-10.5 11.4-10.3" class="b"/><path d="M8 110.7c2.3 2.8 4 6.3 6.1 9.3q1.3.6 2.7.4h7a3 3 0 0 0 1.7-.4c7.5-12.2 10-10.5 17.5.3h48.2c5.1-6.1 7.5-14.7 14-19.8 5.9-4.8 11.9-2.4 16.6 2.6 4.2 4.8 6 11.4 8.8 17 2 .5 4.1.2 6.1.3h11.4c2.8-4.4 5-10.5 10.5-12.1 6-1.9 8.5 3.5 14-1.7 3.7-3 6-9.9 11.4-9.6" class="b"/><path d="M8 110.7a43 43 0 0 1 3.5 5.2c.7 1 1.4 2.8 2.6 3.5h11.4c.7-.2 1.4-1.3 1.8-1.9l2.6-3.3c5-5.5 8.9-.3 12.2 3.8.4.5 1.2 1.3 1.8 1.4h48.2c1.6-1 2.4-3.4 3.5-4.9 2.8-4.8 5.1-10.3 9.6-14 6.3-5.4 12.7-1.9 17.5 3.6 3.4 4.5 5.2 10.3 7.9 15.3H149c2.7-5.4 6.2-12 13-11.8 4.5.7 6.9 1.9 10.6-1.6 3.6-3.2 5.8-9.3 11.4-9" class="b"/><path d="M8 110.8c2 2.3 3.2 5.4 5.3 7.6h13c.7-.3 1.5-1.3 1.8-1.8q1.5-2 3.5-3.5c5-3.5 8.8 2.7 12.3 5.2h43.8q3 .2 6.1-.1c4.7-7 8.8-21.3 19.3-20.5 4.3.9 7.9 4.1 10.5 7.5q2.4 4 4.3 8.2c.8 1.5 1.5 3.7 2.7 5H149c.7-.3 1.4-1.6 1.7-2.3.7-1.3 1.8-3 2.6-4.1q4.6-6.5 12.3-4.4a8 8 0 0 0 7-2.3c2.5-2.2 4.3-5.2 7-7.2q2.1-1 4.4-1" class="b"/><path d="M8 111.1c1.6 1.9 2.8 4.4 4.4 6.2h14.9c1.3-.6 2.2-2.3 3.5-3.2 4.5-4 8.5-.5 12.2 2.5q1.2 1 2.7.7h49c2.8-4.4 4.7-9.7 7.9-14 3.8-5 9-8 14.9-4a25 25 0 0 1 8.7 10.2l2.6 5.3c.3.7 1 2.2 1.8 2.5h19.3c2.7-4.7 6-10.9 12.2-10.9 1.4.1 3 .6 4.4.7 2.2.2 4.5-.8 6.1-2.2 2.5-2 4.3-5 7-6.6q2.2-.7 4.4-.7" class="b"/><path d="M8 111.5c1.2 1.4 2.3 3.4 3.5 4.8h16.6c.6 0 1.4-.7 1.8-1.1q1.5-1.6 3.5-2.3c3-1.2 6.2.6 8.8 2.2q1.2.9 2.6 1.2h50.8c3.6-6.4 6-14.8 13-18.4 4.1-2 8.5.5 11.5 3.3 4.6 3.8 7 9.6 9.6 14.8q1.2.5 2.6.3h17.5c.6-.4 1.5-1.7 1.8-2.4q1.5-2.6 3.5-4.9a10 10 0 0 1 7-3.4q2.2.3 4.4.7c2.1.3 4.4-.5 6.1-1.9 2.4-1.7 4.3-4.4 7-5.7q2.2-.5 4.4-.6" class="b"/><path d="m8 112 2.6 3.3H30c4.5-3.9 8.2-2.8 13.1-.5 1.6.8 3.6.5 5.3.5h42.9c1.7-.1 3.6.3 5.2-.3 3.4-6.5 7.2-17.9 15.8-18.2 2.6 0 5 1.6 7 3.2 5 3.9 7.7 9.7 10.5 15.1 1.4.4 3 .2 4.4.2h13.1c1.2 0 2.6.3 3.5-.5 2.5-4.4 5.7-10 11.4-10.1 1.4 0 3 .6 4.4.8 2 .3 4.3-.2 6.1-1.4 2.7-1.6 4.7-4.6 7.9-5.1l3.5-.3" class="b"/><path d="m8 112.6 1.8 1.7h21c.9.1 1.8-.6 2.6-.9q1.7-.6 3.5-.6c2.4 0 4.7 1.1 7 1.5h52.6c1.9-2.2 2.8-5.8 4.3-8.4a23 23 0 0 1 7-8.3c5.2-3.5 10.4.6 14 4.3 3.4 3.5 5.6 8 8 12.3 4 .3 8.1 0 12.2.1h5.2c1.1 0 2.5.2 3.5-.3 2.5-4.4 5.7-10 11.4-10.3q2.2.2 4.4 1c2 .4 4.3.2 6.1-.8 2.7-1.3 4.8-4 7.9-4.2q1.8 0 3.5-.3" class="b"/><path d="M8 113c1.7.5 3.6.2 5.3.3h21q1.7-.5 3.5-.3 5.2.5 10.5.3h14.9c11.3-.1 22.8.2 34.1-.1 1.7-3.5 3.1-7.4 5.3-10.6 3.2-4.7 8.1-9.4 14-5.8a40 40 0 0 1 13.1 16.4c1.4.3 3 0 4.4.1h13.1c1.1 0 2.5.2 3.5-.2 2.6-4.6 6.2-11 12.3-10.3 2.8.6 5.8 2.1 8.7 1.2 2.8-.7 5.1-3 8-3.6 1.3 0 3 .2 4.3-.3" class="b"/><path d="M8 112.3h89.3c1.4-2 2.4-5 3.5-7.2q2-4 5.3-7.3c9.9-10 19.3 6.4 23.6 14.2 1.3.6 3 .2 4.4.3h12.2c1.4 0 3 .3 4.4-.3 2.6-4.5 6.2-11 12.3-10.3 2.8.8 5.6 2.6 8.7 2 2.5-.3 4.7-1.8 7-2.5q1.4-.2 2.7 0 1.3 0 2.6-.4" class="b"/><path d="M8 111.3h89.3c.7-.5 1.5-2.2 1.8-3 .7-1.6 1.7-3.9 2.6-5.5 4-6.5 10-13.2 17.5-6.6 3.2 2.7 5.8 6.3 7.9 9.9l1.7 3c.3.6 1 2 1.8 2.2H148q1.4 0 2.6-.3c2.6-4.5 6.2-11 12.3-10.3 2.9 1 5.6 3 8.7 3 2.5 0 4.7-1.4 7-1.9q1.4-.1 2.7.2 1.3 0 2.6-.6" class="b"/><path d="M8 110.3h89.3c.8-.4 1.5-2 1.8-2.8.7-1.6 1.7-3.9 2.6-5.4 2.4-3.8 5.3-8 9.6-9.6 5.7-1.7 10.2 4 13.1 8l3.5 5.8c.8 1.2 1.5 3 2.7 4H148q1.4 0 2.6-.3c2.6-4.5 6.3-10.8 12.3-10 3 1 5.5 3.4 8.7 3.6 2.4.3 4.7-.7 7-1.1q1.4-.2 2.7.1 1.3 0 2.6-.7" class="b"/><path d="M8 109.3h89.3c.8-.3 1.5-2 1.8-2.7.7-1.6 1.7-3.8 2.6-5.4 2.8-4.1 6.1-9.2 11.4-10.1 5.7-.3 9.4 5.4 12.2 9.7q1.9 2.8 3.5 6c.3.7 1.2 2 1.8 2.5h20.1c2.6-4.4 6.5-10.2 12.3-9.5 3 1.1 5.5 3.6 8.7 4.2 2.4.5 4.7-.4 7-.7q1.4 0 2.7.2 1.4-.1 2.6-.8" class="b"/><path d="M8 108.3h89.3c.8-.4 1.5-2 1.8-2.8 1-2 2-4.6 3.5-6.5 3.4-4.8 9.4-11.9 15.7-7.4 4 2.8 6.4 7.3 8.8 11.3l1.7 3.2c.3.6 1 2 1.8 2.2h20.1c1.8-1.8 3.2-4.3 5.3-5.8a13 13 0 0 1 4.4-2.1q1.2-.5 2.6-.2c3 1 5.5 3.7 8.7 4.5 2.3.6 4.8 0 7-.3q1.4 0 2.7.2 1.4-.1 2.6-1" class="b"/><path d="M8 107.2h89.3c1.9-2.1 2.7-5.5 4.4-8 2.4-3.2 5.1-6.6 8.7-8.7 9.6-5 15.4 10.4 19.3 16.7q11 .2 21.9 0c2-2.6 4.7-4.9 7.9-5.8 1-.3 2.3-.8 3.5-.5 2.8 1 5 3.2 7.9 4.3 2.5 1 5.2.6 7.8.3l2.7.2q1.4-.3 2.6-1" class="b"/><path d="M8 106.2h89.3c2-2.8 3-6.5 5.3-9.1 3.5-4.1 8.9-10.1 14.9-7.2 4 2.2 6.4 6.8 8.7 10.7 1.1 1.8 2 4.2 3.5 5.6h22.8c1.3-1 2.8-2.2 4.4-2.8q2.5-1 5.2-1.6c3.3.3 5.7 3.2 8.8 4.3 2.5.3 5.3 0 7.8.1h3.6q1 0 1.7-.5" class="b"/><path d="M8 105.2h89.3c2-4.2 4.2-8.7 7.9-11.7 2.8-2.6 6.5-5.3 10.5-4.5 6.5 1.7 9.6 11 13.1 16.2h26.3l1.8-.6q2.2-.5 4.3-1.3c2.2-.7 4.4.9 6.2 2H184" class="b"/><path d="M8 104.2h88.4c.8-.3 1.5-1.6 1.8-2.3l2.6-4.7c2.4-3.3 6-6 9.6-7.6 9.5-4 13.7 8.1 17.6 14.5 2.2.3 4.7 0 7 .1h49" class="b"/><path d="M8 103.2h88.4c2-2.6 3.2-6 5.3-8.3 3-2.7 6.5-5 10.5-5.8 8.2-1.4 11.5 8.2 14.9 13.8q1.3.4 2.6.3H184" class="b"/><path d="M8 102.2h84c1.5-.1 3.2.3 4.5-.4 1.8-3 3.3-6.6 6-8.8 3.7-2.3 8-4.3 12.3-3.8 6.2 1 8.6 8 11.4 12.7q1.3.5 2.6.3H184" class="b"/><path d="M8 101.2h87.6c4.9-7.1 4.5-9.7 14-11.5 9-1.7 12 4.3 15.7 11.3 1.1.3 2.4.1 3.5.2H184" class="b"/><path d="M8 100.2h86.7c1.2-.5 1.9-2.4 2.6-3.4 1.6-2.3 3.2-5.4 6.1-6a28 28 0 0 1 10.6-.9c5.4.6 8.2 5.8 10.5 10.1 2.5.4 5.3 0 7.8.2H184" class="b"/><path d="M8 99.2h86.7c2.2-3 4.7-8.9 8.7-9.3 3.2-.4 6.5 0 9.7.4 5.3.6 8.3 4.3 10.5 8.8H184" class="b"/><path d="M8 98.2h85.8c3-2.7 5-9.3 9.6-9.1q5.8.5 11.4 2c3.6 1 6.2 4 7.9 7H184" class="b"/><path d="M8 97.1h81.4c1.4 0 3.1.3 4.4-.3 1.6-2.3 3.3-4.9 5.3-6.9a5 5 0 0 1 5.2-1.4q4.4 1.2 8.8 2.6 5.6 1.4 8.7 6H184" class="b"/><path d="M8 96.1h53.4q3.5.2 7-.1l2.6-1q2.2-.5 4.4.3c.8.3 1.8 1 2.7.8h14.8c2.8-2.9 4.6-7.6 8.8-8.7 1.5 0 3 .7 4.4 1.2 3.4 1.7 7 2.8 10.5 4.3 1.6.7 3 2.2 4.4 3.2h63" class="b"/><path d="M8 95.1h53.4l2.6-.6c5.7-2 8.8-4 14 .5 3 .3 6 0 8.8.1h3.5c.8 0 2 .1 2.6-.4 2.3-2.8 4.3-6.6 8-8 2.1-.4 4.2 1.2 6 2.1 3.6 2.3 7.9 3.2 11.4 5.5q1.1 1 2.7.8h63" class="b"/><path d="M8 94.1h50.8c1.2-1.1 2.7-2.4 4.4-2.8q2.6-.6 5.2-1.5c4.2-1.2 7.8 1.4 10.5 4.3h13.2c1.9-1.8 3.3-4.3 5.2-6.1 2.8-2.8 4.7-2.6 7.9-.5q3.7 2.5 7.9 4.4c1.7.6 3.5 1.6 5.2 2.2H184" class="b"/><path d="M8 93.1h49c1.6-1.6 3.2-3.6 5.3-4.6 2.5-.7 5.2-1.7 7.9-1.7 2.7.1 5.1 1.9 7 3.8.7.7 1.6 2 2.6 2.5H92c2.9-3 6.5-10 11.4-7 3 1.7 5.6 4 8.8 5.3q2.1 1 4.4 1.7H184" class="b"/><path d="M8 92.1h43.8c1.4-.1 3.1.4 4.4-.4 1.7-2.2 3.6-4.7 6.1-6q2.6-.8 5.3-1.3c5.4-1 9.2 3.8 12.2 7.6 4 .3 8.2 0 12.3.1 2.6-2.7 6-8.8 10.5-6.8 2.7 1.4 5.1 3.6 7.9 5a20 20 0 0 0 4.3 1.8H184" class="b"/><path d="M8 91h46.4c2.5-2 4.2-5.4 7-7.2 1.5-1 3.5-1.2 5.3-1.6 4.2-1 8 1.8 10.5 5 1.1 1.1 2 3 3.5 3.9H92c2.7-2.2 4.8-6.4 8.7-6.5 1.3 0 2.5.9 3.5 1.5q2.6 2 5.3 3.4 1.6 1 3.5 1.5 2.6.2 5.2 0H184" class="b"/><path d="M8 90h45.5c2.7-3 5-7 8.8-9q2.2-.6 4.4-1c6.7-1 10.2 5.9 14 10h7.9q2.2.1 4.3 0c2.3-2.4 5-6.2 8.8-5.3 2.5 1 4.6 3 7 4.1q1.6.9 3.5 1.3H184" class="b"/><path d="M8 89h43.8c1.4-.8 2.4-2.6 3.5-3.8 1.8-2.1 3.7-4.6 6.1-6 1.6-1 3.5-1 5.3-1.2 6.8-.5 10.2 6.6 14 11h12.2c.6 0 1.4-.6 1.8-1 1.7-1.6 3.7-3.4 6.1-3.4 2 .3 3.6 1.8 5.3 2.7 1.3.7 2.8 1.7 4.3 1.8H184" class="b"/><path d="M8 88h40.3c.8 0 1.9.2 2.6-.2 3.4-3.6 8-11.4 13.1-11.5 8.7-1.5 12.2 6 16.7 11.8q7 0 14-.1c3.2-3 5.7-4.4 9.6-1.6q1.6 1 3.5 1.7H184" class="b"/><path d="M8 87h26.3c5 0 10 .3 14.9 0 3.7-3.8 8.6-12 14-12.6S72 75.8 75.4 80c2 2.1 3.3 5 5.3 7h14c1 .2 2-.4 2.6-1q3.1-1.9 6.1 0l1.8 1H184" class="b"/><path d="M8 86h39.4C52 82 56 74 62.3 72.7c7.1-.5 11 3.2 14.9 8.7 1.1 1.4 2 3.6 3.5 4.6h15.7q1.5 0 2.7-.5 1.7-.5 3.5.3c1.3.5 3 .2 4.4.2h7.8q2.3 0 4.4-.1c2.9.4 5.9 0 8.8.1h56" class="b"/><path d="M8 84.6q1.7.6 3.5.4h33.3q1.6.2 2.6-1.2c4.3-4.4 9.6-14 16.6-12.6 5.3.4 9.4 4 12.3 8.2l2.6 3.8c.4.6 1 1.7 1.8 1.8h31.5q2.2.2 4.4-.2c1.6-.8 3.8-1.1 5.2.2H184" class="b"/><path d="M8 82.8q1.5.4 2.6 1.2h30.7c3.5 0 3.8.7 6.1-2.3 3.7-4.3 6.7-10 12.3-11.9 2.6-.7 5.4.3 7.9 1.2 5.6 2.4 9 8 12.2 12.8 2.9.4 5.9.1 8.8.2h26.3q1 0 1.7-.6 1.2-.8 2.6-1.2 1.5-.1 2.7.6.8.8 1.7 1.2H184" class="b"/><path d="M8 81q1.5.3 2.6 1.2.8.6 1.8.8h24.5q4 .2 7.9-.1c4.5-4.6 7.2-11.3 13.1-14.2 2.6-1.1 5.4-.1 7.9.8 6.4 2.2 10.3 8.2 14 13.5h32.4c1.1 0 2.5.3 3.5-.5 3.6-2.9 5.5-3.3 8.8.4 7 .3 14 0 21 .1H184" class="b"/><path d="M8 79q1.9.6 3.5 2c.4.3 1.2 1 1.8 1h30.6c.6-.2 1.4-1 1.8-1.5 3.7-4.4 7.5-13.5 14-13.6 1.8 0 3.6.9 5.2 1.6q3.9 1.5 7 4.3 3 2.6 5.3 5.8c.7 1 1.6 2.6 2.6 3.4q17.5.2 35-.1c5.1-4.8 6.5-5 11.4.1H184" class="b"/><path d="M8 77.2q2.5.6 4.4 2.6c.6.7 1.6 1.4 2.6 1.2h29c.5-.2 1.3-1.1 1.7-1.6l2.6-4c2.5-3.6 5-8.7 9.6-9.7 2.2-.3 4.3.8 6.2 1.8l4.3 2.4a30 30 0 0 1 9.7 9.3c.2.5 1.2 1.6 1.7 1.8h32.4c.9 0 2 .1 2.6-.5 2.1-1.9 4.8-5.7 8-4q2.8 1.8 5.2 4.3c2.2.4 4.7.1 7 .2H184" class="b"/><path d="M8 75.2c1.6.3 3.2 1.4 4.4 2.5.8.7 1.6 2 2.6 2.3h26.2q1.9.1 3.6-.3c2.8-3.8 4.8-8.4 7.9-12 2.8-3.4 5.8-4.2 9.6-1.6 7 4.1 11.8 6.7 16.6 13.6 1.4.5 3 .2 4.4.3H114c2.3-2 5.2-7.2 8.7-5.7 3.1 1 5.4 3.7 7.9 5.7H184" class="b"/><path d="M8 73.2c2 .4 3.8 1.9 5.3 3.3.7.8 1.6 2 2.6 2.5h28.9c3.7-4.6 5.8-12.7 11.4-15.3 2.6-.8 5 1.1 7 2.6 2.8 2 6 3.7 8.7 5.7q4 3 7 7h34.2c.6-.1 1.4-1 1.7-1.4l3.5-4c2.7-2.7 5-1.7 8-.2q2.3 1.5 4.3 3.5c.8.6 1.6 1.9 2.6 2H184" class="b"/><path d="M8 71.3c3.9.5 6 4.4 8.8 6.7h28c.7-.3 1.4-1.5 1.7-2.2l3.5-6.5c4-6.6 6.8-9.2 13.2-3.2 2.9 2.5 6.5 4.2 9.6 6.4q3.4 2.4 6.1 5.4h34.2c2.7-2.5 4.5-6.2 7.8-8 6-.9 10.3 4.2 14 8h49" class="b"/><path d="M8 69.3c4.2.7 6.7 4.9 9.6 7.7h28C48.5 73 52 60.7 58 62.2c3.1 1.1 5.1 4.2 7.9 6q3.9 2.4 7.9 4.6c1.9 1 3.5 2.8 5.2 4.2h33.3c1-.4 2-1.7 2.6-2.5 1.7-2 3.3-4.3 5.3-5.9 1.7-1.2 4.1-.9 6.1-.5 4.6 1.2 7.5 5.4 10.5 8.8q23.7.2 47.3 0" class="b"/><path d="M8 67.3c4.5.6 7.3 5.6 10.5 8.4 1 .4 2.4.2 3.5.2h23.6c.8-.3 1.5-1.7 1.8-2.4l1.8-3.7c1.7-3 3.7-8.4 7.8-8.4 3.8.9 5.7 4.9 8.8 6.8 2.4 1.7 5.3 2.8 7.9 4.2 1.9.8 3.5 2.4 5.2 3.5q16.6.2 33.3 0c3.1-3 5.1-7.2 8.7-9.6 8.8-3.1 12.6 4 17.6 9.6h29.7c.8 0 1.9-.4 2.7-.4.4 0 1.3.2 1.7.4H184" class="b"/><path d="M8 65.3c5 .5 8.2 7 12.3 9.6h26.2c2.6-4.1 6.5-18.4 13.2-12.6 2.5 2.4 4.7 5.4 7.8 7 2.2 1.2 4.8 1.9 7 3q2.3 1 4.4 2.6h32.4c2.4-1.9 4.2-4.6 6.1-7 1.2-1.3 2.6-3 4.4-3.8 2.3-.5 4.8-1.3 7-.4 5.2 2 7.5 7.7 11.4 11.2h25.4c3.8-2.7 6-3.2 9.6 0h8.8" class="b"/><path d="M8 63.4c4.6.4 7.9 6.2 11.4 8.8q1.5 1.3 3.5 1.6l2.6-.3c.8.1 1.8.5 2.6.4h18.4c1.3-1 2-3.4 2.7-4.8 1.8-3.3 4.7-11.1 9.6-7.8 2.8 2.2 4.7 5.6 7.9 7.4 3.8 2.3 8.8 2.1 12.2 5.2h31.6c4.2-2.9 6.4-8 10.5-11a22 22 0 0 1 5.2-1.7c7.7-.8 10.3 9.3 15.8 12.7h14.9c7 0 4.8.9 10.5-3.2 1.5-1 3.5-1.4 5.2-.5 1.4.7 2.6 2.1 3.5 3.3 1 .7 2.4.4 3.5.4h4.4" class="b"/><path d="M8 61.6c4.8.3 8.2 7 12.3 9.4 3 2.1 4.1-.2 7 1.2q1.6 1 3.5.7H43c1.4 0 3 .2 4.4-.2 2-3.7 5.7-16 11.4-11.8 2.6 2 4.2 5.1 7 7s6.4 2 9.6 2.9c.8.2 2 .7 2.6 1.2q1.1 1 2.7 1h14.9q3-.1 6-.2 3.6.2 7.1 0c5-1.8 7.6-7.3 11.4-10.8q1.5-1.3 3.5-1.8a10 10 0 0 1 5.2-1c6.8 1.8 8.7 10.6 15 13.7h13q1.8-1 3.5-1.5 1.5-.2 2.7-.8c2.9-1.7 6-5.5 9.6-3.4 2.3 1.2 3.4 4 5.3 5.7h6" class="b"/><path d="M8 59.9c5.8.2 9.1 9.9 14.9 10.6l1.7-.3c1.6-.2 3.2.8 4.4 1.7h18.4C49.6 68.3 53 56 58.8 60.3c3.3 2.6 5.3 7 9.6 8.2 3.8 1 8.4.2 11.4 3.4h19.3q1.2-.7 2.6-1.2c2.6 0 5.3 1 7.9 0 3.3-1.5 5.6-4.7 7.8-7.3 1.5-1.7 3.1-3.7 5.3-4.4 5.4-2.8 8.4-2 12.3 2.6 1.7 2.1 3.4 4.6 5.2 6.6q2.3 2.2 5.3 3.7h7c2.2-.4 4-2.3 6.1-3.2q1.2-.6 2.6-.8a7 7 0 0 0 2.7-1.2c2-1.4 4.2-3.6 7-3.3 4 1 5.5 5.6 7.8 8.5h5.3" class="b"/><path d="M8 58.3c5.8.2 9.2 10.2 14.9 11 .4 0 1.3 0 1.7-.2 1.7-.2 3.2.8 4.4 1.8h18.4c2.6-3.4 5.4-15.3 11.4-11.3 3.3 2.6 5.2 7 9.6 8 4.8.9 8.3-.8 12.3 3.3h17.5c3-2.4 3.4-2.3 7-1.6 7.4 1.3 10.8-7 15.8-10.7 2.2-1 4.5-2.4 7-2.7 7-.1 9.8 10.7 16.6 13.6 4.1 2.4 8 .3 11.4-2.3q1.6-1.2 3.5-2.2c1-.5 2.5-.5 3.5-1.1 2-1.2 3.8-3 6.1-3.5 5.6-.7 7.8 7 10.5 10.5h4.4" class="b"/><path d="M8 56.8c5.5.3 8.8 9.2 14 11.2q1.4.4 2.6 0c1.7-.2 3.1 1 4.4 1.9h18.4l.9-.6c1.7-3.3 4.3-11.1 8.8-11 2.6.7 4.3 3.3 6 5.1q2.6 2.8 6.2 3.2c5.5 0 8.1-1.4 12.3 3.3H93c1.7-.1 3.5.2 5.2-.2q1.2-1.2 2.6-2c1.4-.5 3 0 4.4.2q2.8.3 5.3-.8c4.2-2.2 6.6-6.8 10.5-9.5l4.3-2c8.4-3.7 11.7 7.6 17.6 11 4 3 7.6 2.3 11.3-.7 1.7-1.3 3.4-3 5.3-4 1.4-.5 3.1-.7 4.4-1.6 3.1-2.2 6.3-4.2 9.6-1 1.8 1.8 3.2 4.2 4.4 6.3.7 1.3 1.5 3.3 2.6 4.3h3.5" class="b"/><path d="M8 55.4c4.4 0 8.1 7 11.4 9.7 1.2 1 2.7 2.1 4.4 2q1.3-.2 2.6.3c.8.4 1.7 1.3 2.6 1.5h19.3c2-3.4 4.2-10.7 8.7-10.9 2.6.4 4.4 2.9 6.2 4.6a8 8 0 0 0 6.1 2.6c6.4-.4 8.5-2 13.1 3.6h15q1-.1 1.7-.8 2-1.6 4.3-1.2c8.7 1.5 11.6-6 17.6-10 2.8-1 5.6-3 8.7-2.7 4.8.8 7.3 5.7 10.5 8.8 2.3 2.2 5.5 4.5 8.8 3.7 4-1 6.5-4.5 9.6-6.8q1.7-1.1 3.5-1.5 1.4-.6 2.6-1.4c6.7-4.8 10.1 1.2 13.2 6.5l1.7 3.3 1 1.6.8.5h2.6" class="b"/><path d="M8 54.2c5.4.2 9 9.2 14 11.5q1.2.5 2.6.3c1.3.1 2.6 1 3.5 1.8q10.1.2 20.2 0c1.5-1.4 2.3-4 3.5-5.8 3.2-5.2 6.2-5.6 10.5-1.2 1.8 2 4.3 3.3 7 3 3.5-.3 7.4-2.1 10.5.2 1.4 1 2.4 2.7 3.5 3.9h14.9l2.6-1.3a7 7 0 0 1 2.7-.3c8.4.7 11.3-6.5 17.5-10.2 2.9-.8 5.6-2.7 8.7-2.6 7.8.5 11.4 14.5 20.2 11.3 3.8-1.8 6.2-5.7 9.6-8 1-.6 2.5-.8 3.5-1.4 2.2-1.1 4.5-2.9 7-2.4 5.4 1.6 8.5 10.3 11.4 14.7q1.3.3 2.6.2" class="b"/><path d="M8 53.2c5.4 0 9.2 8.8 14 11.2a6 6 0 0 0 2.6.6c1.3.2 2.5 1.2 3.5 1.9h17.5q1.8.1 3.5-.3c2-3.3 4.3-9.4 8.8-9.1 2 .3 3.7 1.9 5.3 3.1 1.6 1.4 4 2 6 1.7 3.8-.6 8.2-2.8 11.5.2 1.3 1.2 2.2 3.1 3.5 4.4l15.7-.1c2.2-1 4.8-.5 7-1.3 5.4-1.7 8.6-6.7 13.2-9.5 1.3-.8 3-.8 4.3-1.4 2-.8 4-1.7 6.2-1.5 7.5.7 11 13.6 19.2 10.2 4.8-2.3 7-8.3 12.3-9.8 2.5-1 5-3 7.9-2.3 5.8 2.1 8.6 11 12.2 15.7h1.8" class="b"/><path d="M8 52.4c4.5-.1 8.2 6 11.4 8.6q1.5 1.6 3.5 2.5 1.4.2 2.6.7c1.1.6 2.2 1.9 3.5 1.6h20.2c3.3-4.9 6.2-12.2 13-7 2 1.7 4.6 2.4 7 1.9 3.8-.8 8.1-3.2 11.5-.3 1.7 1.4 2.8 3.7 4.3 5.3 3.8.3 7.7 0 11.4.1h5.3q1.7.2 3.5-.2c3.7-1 6.7-3.9 9.6-6.4 1.8-1.6 3.8-3.4 6.1-4.1 3.7 0 6.9-2.7 10.5-2.3 7.3.7 11.4 14 19.3 8.8 3.7-2.5 5.9-7 9.6-9.5l4.4-1.9c4-2 7-.5 9.6 2.8 3.3 4 5.5 9 8.8 12.8h.9" class="b"/><path d="M8 51.8c4.8-.4 8.7 5.9 12.3 8.5q1.1 1 2.6 1.8 1.4.4 2.6 1c1 .7 2.1 2 3.5 1.7h20.2c.6-.3 1.4-1.5 1.7-2.1.7-1.1 1.7-2.6 2.6-3.6 3.6-4 6.5-2.7 10.5-.4 2.3 1 4.8.5 7-.2C75.4 57 79.4 56 82.5 60c1.3 1.6 2.6 3.7 4.4 4.7h17.5q2 .3 3.5-.8c4.3-2.8 7.4-7.4 12.3-9.1 1.4-.4 3 0 4.4-.5 2.8-.8 5.7-2.4 8.7-1.6 6.6 1.6 11 13.8 18.4 7.2 3.3-2.8 5.3-7 8.8-9.5q3-1.5 6.1-2.6c5.4-1 8.7 4.8 11.4 8.6q2.7 4.4 6.1 8.2" class="b"/><path d="M8 51.4c5.6-.7 10.2 6.7 14.9 9.1q2 .8 3.5 2.1c1 1.3 2 1.3 3.5 1.2h18.4c.4.1 1.3 0 1.7-.3 2.3-3.3 5-8 9.7-7.6 1.8.2 3.5 1.2 5.2 1.6 3.3.5 6.5-1 9.6-1.8 7-1.8 8.6 4.4 13.2 8 2.2.3 4.7 0 7 .1h12.2c1.4-.4 2.5-1.8 3.5-2.7q3-3 6.1-5.3a8 8 0 0 1 4.4-1.5q1.8.4 3.5.2c3.4-1 7-3 10.5-1.5 6 2 9.9 12.5 16.7 6.1 2-1.8 3.6-4.2 5.2-6.4 1.2-1.5 2.6-3.3 4.4-4.2 2.2-1 4.5-2.3 7-2 6.9 1 10.4 11.6 15.8 15.8" class="b"/><path d="M8 51.2c4.8-1 8.7 3.3 12.3 5.8q2 1.6 4.3 2.9c1.3.8 2.3 2.2 3.5 3h18.4q1.8 0 3.5-.3c2.5-3.5 5.7-8 10.5-7.6 2 .2 4.1 1 6.2.8 2.6-.2 5.2-1.3 7.8-1.8 3.4-.8 6.7.4 8.8 3.1l3.5 3.7c1 1 2 2.3 3.5 2h17.5c3.6-3.3 7-8.8 12.3-9q1.3.1 2.6.6 1.4.2 2.6 0c3.8-1.2 7.6-3.3 11.4-1.1 3 1.5 5 4.7 7.9 6.5 5 3 8.8-3.3 11.4-6.8 1.5-2 3-4.5 5.2-5.7 2.4-1.2 5.2-2.5 8-1.8 6.7 2.5 9 10.5 14.8 14.4" class="b"/><path d="M8 51.1c4.5-1.4 8.7 1.7 12.3 4.1l4.3 3.1q1.9 1.7 3.5 3.5h21c1.5-.5 2.4-2.5 3.5-3.5 2-2 4.3-3.9 7-4.3 2.6-.4 5.3.4 8-.1 3.4-.5 6.9-2 10.4-1.5 2.5.3 4.5 2 6.2 3.8l5.2 5.4c2.3.4 4.7.1 7 .2h11.4c1.7-1.2 2.9-3.3 4.4-4.7 3-3.1 6.4-5.4 10.5-2.8 2.4.8 4.8-.5 7-1.3q6-2.3 10.5 2.2c1.6 1.6 3.2 3.6 5.3 4.6 4.3 1.9 7.4-3.2 9.6-6.2 1.6-2.3 3.2-5 5.3-6.9 3.4-2.3 7.7-3.6 11.3-.8 4.7 3.2 7.3 8.8 12.3 11.6" class="b"/><path d="M8 51.2c7.3-3 16 3.8 20.1 9.3 1 .5 2.4.2 3.5.3h17.6c3.5-3.4 7-7.7 12.2-8.3q4.9-.2 9.6-1c11-2.3 12.3 3 19.3 9.3h17.5c1.5-.8 2.4-2.8 3.5-4 2-2.2 4.6-5 7.9-4.5 3.3 1 3.8 3.2 7.9 1.9 6.6-2.6 9.8-3.6 14.9 2.4 1.9 2.2 5 4.6 7.8 2.6 3.5-2.4 5.5-6.7 8-10 1.2-2 3-4 5.2-4.9 9.3-4.4 13.7 7.9 21 10.8" class="b"/><path d="M8 51.5a13 13 0 0 1 15.8 2.4c1.9 1.7 3.4 4 5.2 5.9h19.3c8.7-7.5 10-9 21.9-10 10.4-1.1 13.8 2.5 20.1 10h17.5c1.5-.8 2.4-3 3.5-4.2 2.9-3.8 6.5-6.2 10.5-2.5 1.6 1.7 4.1 1.7 6.2 1 5.1-2.2 8.8-3.7 13 1.1 2.2 2.6 5.3 6.1 8.8 4 3.6-2.7 5.5-7 8-10.6 1-1.7 2.4-3.7 4.3-4.6 5.7-3.5 10.7.2 14.9 4.1 2 1.9 4.2 4 7 4.5" class="b"/><path d="M8 51.9c5.2-3.4 11-5.2 15.8-.2 2.2 2.1 3.7 5.2 6 7h16.7c5.5-3.3 10.4-7.9 16.7-9.6 6-1.6 12.7-1.1 18.4 1.4 3.7 1.7 6.2 5.1 8.7 8.2q8.8.1 17.5 0c1.5-1 2.3-3.2 3.5-4.6 3.1-4.2 6.6-5.7 10.5-1.5 1.5 1.8 4 2.4 6.2 1.6 4.3-1.6 8.3-4 12.2-.1 1.5 1.4 2.8 3.4 4.4 4.6h3.5c1.5.1 2.5.2 3.5-1.1 3.5-3.9 5.3-9.1 8.8-13 2.3-2.1 5.6-3.3 8.7-2.4 3.3.8 6 3.1 8.8 5.1 1.8 1.4 3.8 2.7 6.1 2.8" class="b"/><path d="M8 52.3c4.7-3.5 10.7-8.6 15.8-2.8 2.4 2.6 4.1 6.1 7 8.3h10.5c.9.1 1.8-.6 2.6-.8q3.1-1.2 6.1-2.7c5-2.4 9.6-5.9 15-7.5 4.3-1 8.9.4 13 1.8 6.4 2 8.4 3.8 12.3 9 5.8.4 11.7 0 17.5.2 4-5.3 7.2-13.9 14-5.7a6 6 0 0 0 6.2 2c3.6-1 7.8-3.8 11.4-1 1.6 1.2 2.8 3.3 4.3 4.7h4.4q1.8.1 3.5-.2c3.8-4.3 5.4-10.5 9.6-14.4 3-2.4 7.1-2.7 10.6-1q3 1.5 6 3.4c2 1.1 4 2.1 6.2 2" class="b"/><path d="M8 52.7c4.2-3.4 10.5-11.8 15.8-5.5 2.7 3.1 4.8 7.8 8.7 9.5H36c.8 0 2 .1 2.6-.3Q41 55 43 54c3.5-1.2 7.2-1.7 10.5-3.2q3.6-1.6 7-3.6c2.4-1.4 5-2.7 8-2.3 4 .6 7.6 2.6 11.3 4q2.2.8 4.4 1.7c2.4 1.5 4.3 4 6.1 6.2h17.5c4.4-7.6 7.7-14.4 15-4.3a6 6 0 0 0 5.2 1.7c2.6-.6 5-2.2 7.8-2.3 3.3 0 5.1 2.8 7 5h6.2c1-.1 2.5.2 3.5-.4 5.4-7.4 7.2-19.3 19.2-15.3q3.2 1.2 6.2 2.7c1.9.9 4 1.6 6.1 1.2" class="b"/><path d="M8 53.2c4-3.4 10.2-15 15.8-8.3 2.2 2.9 4.1 6.2 7 8.5 5.8 4.3 9.3-3.5 14.9-3.6 7.2-.3 10.4-1.3 16.6-5.2 4.5-3.4 9.8 0 14 2.3 7.5 4.1 7.7 1.1 14 8.8h14.9c.8 0 2 .2 2.6-.5 4.6-8.6 7.9-14.4 15-3.5a6 6 0 0 0 6 2c5.8-1.8 9-3.9 13.2 2h10.5c1.1-.8 2-2.7 2.6-3.9l3.5-6.5c2.4-4.6 7.2-6.8 12.3-5.6q3.5.9 7 2.1c2 .7 4 1.2 6.1.6" class="b"/><path d="M8 53.5q3.2-3.8 6.1-8c2-2.4 5.5-6.7 8.8-3.9 2.5 2.7 4.2 6.3 7 8.6 6.3 5.2 9.3-3.4 14.9-3.8 6.7.3 9.4 1.7 15.8-2.2 1.6-1 3.2-2.4 5.2-2.6 4.8 0 8.3 4 12.3 6q2.4 1.5 5.2 2c3 .7 4.8 3.3 7 5.1H107c2.6-3.9 6.3-15.1 12.2-8.7 2.1 2.2 3.3 5.7 6.2 7 3.2 1.5 6.4-.8 9.6-1.2 2.4-.4 4.7 1 6.1 2.8 2 .3 4.1 0 6.1.1h6.2c4.9-8.2 6.3-18.3 18.4-16.2 4 .5 8.1 2.5 12.2 1.3" class="b"/><path d="M8 53.7c2.3-2.7 4.2-6 6.1-9 1.8-2.4 4.3-7 8-6 1.4.8 2.4 2.7 3.4 4 1.8 2.5 3.8 5.6 7 6.3 3.6.4 6.1-2.9 8.8-4.8 2.2-1.9 5.3-1 7.8-.3q3.5 1.2 7 .6 2.9-.7 5.3-2.3c1-.6 2.3-1.5 3.5-1.9 6-.9 10.9 7.5 16.6 9a12 12 0 0 1 8 4c.6.5 1.8.4 2.6.4h14c1.3-.7 1.8-3 2.6-4.1 1.6-2.8 3.9-8.3 7.9-7 3.7 1.8 4.8 6.6 7.9 9.1 2.8 2.4 6.5.7 9.6 0 2.2-.5 4.6.2 6.1 1.9 4.3.3 8.8 0 13.1.1 5.3-7.7 5.6-17.4 17.6-17 4.3.1 8.8 1.8 13 .5" class="b"/><path d="m8 52.7.9-.2C11.6 49.2 17.3 35 22 36.7a7 7 0 0 1 2.6 2.6 32 32 0 0 0 4.4 5.3c5.7 5 9.3-2.5 14-4.6 2.8-.7 5.4 1 8 2 5.1 2 8.7.2 13-2.6 5-1.9 10.2 5.8 14 8.3q1.7 1.2 3.6 1.8l2.6.4a15 15 0 0 1 5.2 2.8H100q3.1.2 6.2-.1c2.5-4.6 7-17.6 13.1-9.2 2.4 3 3.8 7.7 7.9 8.8 4 .8 8.5-2.5 12.2.5h14c5.2-7 4.7-16.1 15.8-17.6 5-.6 10 .9 14.9-.4" class="b"/><path d="M8 51.7h.9C12.2 48.9 18 29.6 23.8 36c2.2 2.8 4.2 6.5 7.9 7.6 4 .5 6.6-3.6 9.6-5.8C46 34 51.5 42.2 57.9 41q2.3-.5 4.4-1.7c1-.6 2.3-1.3 3.5-1.2 4.8.9 8.4 6.8 12.3 9.7q1.5 1.3 3.5 2 2.2.1 4.3.7l2.7 1.2h16.6c2.3-3.7 6.6-16.8 12.3-11.8 4 3.6 5 11.2 11.3 11.6 2 0 4.1-.5 6.2-.4 1.1 0 2.4.5 3.5.6h14.9c1.6-1.7 2.4-4.7 3.5-6.8 2-4.9 4.2-9.2 9.6-11 5.6-2 11.8-.5 17.5-1.8" class="b"/><path d="M8 50.7q.9 0 1.8-.3C13 45 15 38.6 19.4 34c2.8-2.4 4.5.3 6.1 2.5 1.9 2.3 4.5 5.5 7.9 4.6 4-1.3 6-5.7 9.6-7.3 4.5-.9 9 5 14 5.3q2.3.1 4.4-.7c1.4-.6 2.8-1.7 4.4-1.4 5.1 1.5 8.7 8.6 13.1 11.7a8 8 0 0 0 5.3 1.7c2.8.5 5.8.2 8.7.3h7c1.4-.1 3.2.4 4.4-.4 2.5-3.4 6.8-16.5 12.3-12.7 4.8 3.6 5.6 11.8 12.2 13 3.2.3 6.5 0 9.7.1h14.9c1.6-1.8 2.4-4.9 3.5-7 1.7-4.2 3.7-8.7 7.8-10.8 5.9-3.4 13-1.6 19.3-2.8" class="b"/><path d="M8 49.7h1.8c3-3.8 7.2-18 12.2-18 1 .2 2 1.3 2.6 2.1q1.9 2.5 4.4 4.5c5.7 3.3 9.1-4.5 13.1-7 4-2.6 9.8 4.3 14 5.4a9 9 0 0 0 6.2-.2c1-.5 2.3-1 3.5-.6 5.7 2.4 8.8 10.4 14 13.8h22.8c3.3-3.3 7.4-17 13.1-14.4 5.7 3.7 6.5 13 14 14.4h23.6c1.3-1.2 2-3.7 2.7-5.2 2-4.9 3.9-10.6 8.7-13.3 5.8-3.6 13-1.8 19.3-2.8" class="b"/><path d="M8 48.7h1.8c1.6-1.3 2.4-4.3 3.4-6.2 1.8-3.1 4.9-11.6 8.8-12 1 .2 2 1.2 2.6 2 1.3 1.5 2.7 3.2 4.4 4.2 5.8 2.8 9.1-5.6 13.1-8.3 4.1-2.5 9.5 3.8 13.2 5.5 2 1.1 4.6 1.8 7 1.1q1.2-.5 2.6-.5C70 35.8 74.1 45 78 48.6H100c.5 0 1.4-.7 1.8-1 4-3.5 6.8-14 12.2-14.5 5.3.8 7.4 9.7 11.4 13q1.9 1.6 4.4 2.6h23.6c1.8-1.9 2.4-5.2 3.5-7.4 2.2-5.8 5-11.4 11.4-13.3 3.1-1 6.5-.7 9.6-.5l6.2-.2" class="b"/><path d="M8 47.7q1.4 0 2.6-.2c2.1-3.3 7.7-19.7 12.3-17.7 2.4 1.7 4 5 7 5.8 5.5 1 8.4-7 12.3-9.8 4.2-2.7 9.6 3.5 13 5.5C58 33 61 34 64 33.3c5.3.5 9.4 10.9 13.2 14.4h20.1q1-.1 1.8-.8 1.4-1 2.6-2.3c4-3.8 5.5-10.1 10.5-13 4.9-1.7 8.2 6.6 10.5 9.7a19 19 0 0 0 7 6.4h23.7c.8-.4 1.4-2.2 1.7-3l1.8-4.4c2.2-6 5.4-12.6 12.2-14 2.9-.6 6-.1 8.8.1 2 .3 4.1 0 6.1.1" class="b"/><path d="M8 46.7h2.6C13.4 43.3 18 27.7 23 29c2.4 1.5 4 4.7 7 5.3 5.5.5 8.5-7.9 12.3-10.8 4.3-3 9.7 2.9 13 5.3 2.1 1.5 4.5 3.2 7 3.3 2.7-.5 4.7 1.2 6.2 3.2 3 3.5 5 7.8 7.9 11.4h18.4c2.3.2 2.8-.7 4.4-2.1a41 41 0 0 0 7-8.5c7.5-12 11-4.8 16.6 3.6 2 2.6 4.3 5.2 7 7h21c1.2-.1 2.6.2 3.5-.5 3.6-8.2 6.3-21.6 17.5-21.4 2.4.1 4.7.8 7 1.1 1.7.2 3.6-.1 5.3.2" class="b"/><path d="M8 45.6h2.6c.7-.3 1.5-1.8 1.8-2.5l1.7-3.6c1.6-2.8 5-12 8.8-11.2 2.4 1.4 4 4.6 7 5 6 0 8.6-9.6 13.1-12.5 6-2 11.3 5.5 15.8 8.4a10 10 0 0 0 3.5 1.7q1.4-.1 2.6.5c2.3 1.3 3.8 3.7 5.3 5.8l5.2 8.4H93q1.8.2 3.5-.2c3-3.3 6.2-6.7 8.8-10.4 3.2-4.5 7.2-10 12.2-4 2 2.1 3.6 4.8 5.3 7.2a39 39 0 0 0 7 7.4h24.5c3.5-7.8 6.5-22.6 17.5-21.6 2.4.2 4.7 1.2 7 1.7 1.7.3 3.6 0 5.3.4" class="b"/><path d="M8 44.6q1.8.1 3.5-.1c2.4-4 6.3-15.4 10.5-16.8 1-.2 2 .6 2.6 1.3q1.6 1.7 3.5 2.8c6 2.8 10-7.7 13.2-11.2 1.4-2 3.8-2.5 6.1-1.9 5.8 1.8 9 7.7 14 10.7 1 .6 2.5.6 3.5 1.3 2.6 1.9 4.4 5 6.1 7.7l2.7 4.3.8 1.4 1 .5h20c1.5-.8 2.5-2.7 3.6-4 1.6-2.2 3.6-4.4 5.2-6.6 3-4 7.2-10 12.3-5 2.3 2.2 4.1 5.2 6.1 7.8 2.2 2.6 4.4 5.6 7 7.8h24.5c3-5.7 4.3-12.8 8.8-17.7 2.1-2.6 5.4-4.4 8.8-3.6 2.3.5 4.6 1.8 7 2.4 1.6.4 3.6 0 5.2.7" class="b"/><path d="M8 43.6h3.5c2.5-2.8 7.5-19 12.3-16 2 2 4.7 5 7.8 3.7 5.5-2.5 8-13.5 13.2-14.4 7.2-1.1 11 6.8 15.7 10.8 1.2 1.2 3 1.6 4.4 2.5 4.3 3.6 6.2 9.2 9.6 13.4h21c1.6-1 2.4-3.1 3.5-4.5q2.1-3 4.4-5.8c2.7-3.3 6.5-9.3 11.4-6.5 3 1.8 4.9 5 7 7.6l4.4 5.3c1 1.2 2.1 3 3.5 4h24.5c.8-.5 1.5-2.4 1.8-3.2 1-2.7 2.3-6 3.5-8.5 2.1-4.3 5.8-10.2 11.3-9.3 2.8.5 5.3 2.4 8 3.3 1.6.5 3.5.2 5.2 1" class="b"/><path d="M8 42.6h3.5c2.9-2 7.4-18.3 12.3-15.4 2 1.7 4.1 4.2 7 3.7 5.9-1.6 8.1-12.4 13-15 7.3-3 11.8 5.3 15.9 10q1 1.3 2.6 2.5 2 .9 3.5 2.4c3.1 3.5 5.4 7.8 7.9 11.6 2.5.5 5.2.1 7.8.2h14c.7-.2 1.5-1.4 1.8-2l2.6-4.2a67 67 0 0 1 5.3-6.8c5.2-6.3 9-5.4 14 .6q3.1 3.6 6.1 7.2l2.6 3.4c.3.6 1.2 1.6 1.8 1.8h25.4c2.8-6.3 7.2-23 16.6-19.9 2.5 1 4.6 2.8 7 3.8 1.7.7 3.7.4 5.3 1.2" class="b"/><path d="M8 41.6q2.2.2 4.4-.2c2.1-3.3 6.4-15 10.5-15 1 .2 1.9 1.2 2.6 1.8 1.2 1 2.8 2.1 4.4 2.2 6-.3 8.8-11.2 13.1-14.8 8-5 12.5 4 16.7 9.4q1.2 1.7 2.6 3 2 1.2 3.5 2.9 3 3.5 5.3 7.3c.7 1 1.5 2.7 2.6 3.4h20.1q1.4 0 2.7-.3c2.8-4.8 9.3-17.2 15.7-16.6 4.5.8 8.2 6.5 11.4 9.5L128 40c1 1.7 1.6 1.8 3.5 1.7H155c.7-.6 1.5-2.4 1.8-3.3 1-2.5 2.2-5.5 3.5-8 2.2-4 6-10 11.3-7.6 2.8 1.3 5 3.8 8 4.9 1.4.3 3 .3 4.3 1" class="b"/><path d="M8 40.6h4.4C15 37.3 18.5 26.5 22.9 26c1.3.3 2.4 1.7 3.5 2.4 3.5 2.8 6.3 1.5 8.8-1.7C38 23 39.7 18.4 43 15c8.1-5.5 11.8 2 15.8 8a36 36 0 0 0 3.5 4.8q1.8 1.5 3.5 3.3c2.6 2.9 4.5 6.5 7 9.4h23.6c3.5-5.5 6.3-12.3 12.3-15.6 4-2 7.8 1.3 10.5 4l4.4 4.3q3 3.4 5.2 7c1.1.5 2.4.3 3.5.3H156c2.6-5.4 7.5-21.9 15.7-17.7 3.2 1.6 5.3 5 8.8 5.8q1.9.1 3.5 1" class="b"/><path d="M8 39.6h4.4c1.6-1.3 2.4-3.9 3.5-5.6 1.7-2.8 3.1-6.5 6.1-8.2 3.6-1.2 6.7 8.5 13.1.7 3-3.6 4.7-8.3 8-11.7 2-1.3 4.4-2.9 7-2.3 4.7 1.7 7 7.7 9.6 11.7.7 1.2 1.7 2.8 2.6 3.9s2.5 2.3 3.5 3.6q3 3.9 6.1 7.9h24.5c.7-.4 1.5-1.7 1.8-2.4l2.6-4.6c3.2-5.1 8.5-11.5 14.9-6.8q4.2 3.1 7.9 6.7c2 2 3.7 4.7 5.2 7H156l.8-.6c2.2-4.9 4.3-10.3 8-14.3 2.7-3 5.8-2.7 8.7-.1 2.2 1.7 4.1 4.4 7 5.1q1.9.2 3.5 1.2" class="b"/><path d="M8 38.6c1.7-.2 3.7.3 5.3-.3 2.4-4 4.8-10.5 8.7-13 3.4-1.3 6.5 7.6 12.3 2 3.2-3.3 5-7.9 7.8-11.5 7.3-6.8 10.6-4 15 3.5 1.6 3 3.2 6.4 5.2 9.2q4.4 5 8.8 10h26.2c4.2-7.7 10-19.8 20.2-11.6q3.2 2.4 6 4.9c2.1 2 3.6 4.6 5.3 6.8h28c1.6-1.9 2.4-4.7 3.6-6.8 2.3-4.4 6.5-12.4 12.2-7.5 2.7 1.9 4.6 5.3 7.9 6.3a9 9 0 0 1 3.5 1.2" class="b"/><path d="M8 37.6h5.3c2.3-3.3 5.7-12.3 9.6-13 1 0 1.9.8 2.6 1.4a18 18 0 0 0 3.5 2.4c4.7 2 7.5-3.8 9.6-7 2.6-4.4 4-6.9 8.8-9.3 6.2-2.9 9.9 8.3 12.3 12.4l2.6 4.7q1.7 2 3.5 4l2.6 3c.6.8 1.6 1.6 2.6 1.3h26.3c.7-.3 1.5-1.6 1.8-2.3l2.6-4.5c3-4.6 7.5-8.4 13.1-5.4q2.7 1.5 5.3 3.4c1 .8 2.5 1.6 3.5 2.5q1.9 2 3.5 4.3a6 6 0 0 0 1.7 2h29c3.3-5.2 7.6-20 15.7-12 2.3 2 4 5 7 6q1.9.3 3.5 1.3" class="b"/><path d="M8 36.6h5.3c2.8-3.2 5.4-11.6 9.6-12.7 1 0 1.9.8 2.6 1.4q1.6 1.4 3.5 2.5c5.5 2.8 8.9-5.4 11.4-9q2-3.3 5.2-5.5c1.7-1.3 4.2-2.5 6.2-1 4 3 5.6 8.3 7.9 12.7 1 2 2 4.5 3.5 6.3q1.6 2 3.5 4a4 4 0 0 0 1.7 1.3h29.8c3.9-6.7 8.3-15.9 17.5-10.8q3.6 2 7 4.2c2.2 1.6 3.8 4 5.2 6.3 1.4.5 3 .2 4.4.3h26.3c3.4-6 7.8-19 15.7-9.7 2 1.9 3.6 4.6 6.2 5.4q1.9.4 3.5 1.4" class="b"/><path d="M8 35.6h5.3C16 33.3 19.5 22 23.8 23.2c2.4 1.3 4.2 4 7 4.7 5.6 1 8.7-8.9 12.2-12.2 2.5-1.8 5.5-5.4 8.8-3.4 2.5 1.8 3.9 5 5.2 7.6 2.6 5.3 4.4 11.3 8.8 15.5 2.3.3 4.7 0 7 .1h24.5q.9.2 1.8-.4c3.6-6.7 8-13.7 16.6-9.4l7 3.8c2.2 1.5 3.8 4 5.3 6q15.7 0 31.5 0c3.2-6 7.5-17 14.9-8.2 1.9 1.9 3.5 4.6 6.1 5.6q1.9.3 3.5 1.4" class="b"/><path d="M8 34.5h5.3c1.6-1 2.4-3.6 3.4-5.2 1.5-2.2 3.9-7.7 7-7 2.6 1.3 4.3 4 7 5 5 1.3 8-6 10.6-9.1q1.4-2.1 3.5-3.6c1.5-1.2 3.2-2.8 5.2-2.7 6.6 1.5 9.3 17.7 14 22.6h35c4-6 7.3-12.7 15.8-9.3q2.7 1.1 5.3 2.5c1 .6 2.5 1.2 3.5 2 1.7 1.3 2.8 3.4 4.3 4.8h28c1.5 0 3.1.3 4.4-.3 2-3.5 5.3-11.7 10.5-9.6 2.6 1.3 4.3 3.8 6.2 5.8a9 9 0 0 0 3.5 2.7q1.9.4 3.5 1.4" class="b"/><path d="M8 33.5h5.3C14.5 33 15 31 15.9 30c1.5-2.4 4.5-9.6 7.9-8.9 2.5 1.4 4.3 4.2 7 5.5 4 1.6 6.7-3 8.7-5.7 1.5-2.1 3.1-4.5 5.3-6 1.2-1 2.7-2.2 4.4-2.5 6-.8 10.2 16.4 13 21 1.7.5 3.6.1 5.3.2h31.6c.6-.2 1.4-1.4 1.7-2l2.6-3.7c6-7.2 12.7-2.5 19.3.7q2 1.4 3.5 3.4c.3.5 1.1 1.4 1.7 1.6h32.5c1.1-.7 1.8-2.7 2.6-3.8 1.5-2.4 3.7-5.8 7-5.4 3.8 1.1 5.8 5.2 8.7 7.6q1.2.9 2.7 1.2 1.2.6 2.6.4" class="b"/><path d="M8 32.5h5.3c1.2-.6 1.8-2.6 2.6-3.7 1.5-2.5 4.4-9.8 7.9-9.1 2.6 1.4 4.3 4.3 7 5.7 3.7 2 6.7-2.1 8.7-4.8 1.5-2 3.1-4.3 5.3-5.7 1.5-1.1 3.2-2.7 5.2-2.4 5.4 1.6 8.8 15 11.4 20h33.3c1.7-.1 3.6.3 5.2-.3 3.8-6.4 7.8-11.3 15.8-7.8q3.6 1.6 7 3.5c1.7 1 3.2 2.8 4.4 4.4q2.1.4 4.4.2h29.8c3.8-6.3 7.2-12.6 14-4.7 2.8 3 4.1 5.2 8.7 4.7" class="b"/><path d="M8 31.5h5.3c1.3-.5 1.8-2.6 2.6-3.7 1.5-2.4 4.5-9.8 7.9-9.1 2.6 1.4 4.3 4.4 7 5.9 3 2 6-.7 7.8-3 2-2.3 3.6-5 6.2-6.6 1.2-.9 2.7-2 4.4-2 5.6.2 9 14 11.3 18.5h37.7q1 .1 1.7-.4c3.9-6.3 7.9-11.1 15.8-7.7q3.6 1.6 7 3.5a19 19 0 0 1 4.4 4.4c2.2.5 4.7.1 7 .2h25.4q1.4.1 2.6-.3c4.2-7.2 7.6-10.4 14-3 3.3 3.5 3.2 3.4 7.9 3.3" class="b"/><path d="M8 30.5q3.1.2 6.1-.2c2-2.7 6-12.8 9.7-12 2.6 1.4 4.4 4.2 7 5.8 3.4 2.2 6.6-1.1 8.7-3.7 1.5-1.8 3.2-3.8 5.3-5 1.2-.9 2.8-1.9 4.4-1.8 5.3.7 8.3 12.5 10.5 16.9H99c2-1.8 3.2-4.7 5.2-6.6 5.6-5.7 12.7-1.5 18.4 1.8q2 1.3 3.5 3.2c.4.5 1.1 1.4 1.8 1.6H162c.7-.2 1.4-1.3 1.8-1.9a19 19 0 0 1 2.6-3c4.7-4.5 8.7 2.2 12.2 4.9h5.3" class="b"/><path d="M8 29.5h6.1c2.5-2.6 5.6-11.6 9.7-11.1 2.6 1.3 4.4 4 7 5.4 3 1.8 5.8-.2 7.8-2.4q2-2.4 4.4-4.5l3.5-2c6.6-3.3 10.3 10.2 12.3 14.5q12.3.1 24.5 0H93c2 0 4.2.3 6.2-.1 3-4.2 6.3-10 12.2-9.7 3.5.2 6.7 1.9 9.7 3.5 2.8 1.4 4.9 4 7 6.4h33.2c1.8 0 2.6 0 3.5-1.6 1.3-1.6 3-3.4 5.3-3.4 2 0 3.8 1.6 5.2 2.9.8.7 1.7 1.8 2.7 2.1h6" class="b"/><path d="M8 28.5c2.3-.1 4.8.2 7-.2 2-2.5 5.3-10 8.8-9.4 2.6 1 4.4 3.6 7 4.8 2.8 1.5 5.8-.3 7.8-2.4q2-2.1 4.4-4l2.7-1.2c6.8-3.8 10 7.6 12.2 12.2 2.3.5 4.7 0 7 .2h25.4c2.6-.1 5.3.2 7.9-.2 3.5-3.9 6.3-9.8 12.3-10.2a21 21 0 0 1 16.6 8.8c.3.5 1 1.4 1.7 1.6h35.9c4.2-5.2 7-4 11.4 0h7.9" class="b"/><path d="M8 27.5h5.3q1.3.1 2.6-.4c1.8-2.2 5.2-9 8.7-7 2.1 1 4 2.8 6.2 3.7 2.4 1 5-.1 7-1.7q2-2 4.3-3.7 1.7-.9 3.5-1.5C52 14 55 22.7 57 27q.9.5 1.8.4h37.6c4-2.7 6-8 10.5-10.1 4-2 8.6-.9 12.3 1 4 2 7.2 5.4 9.6 9h33.3q2.2.1 4.4 0c2.7-2.5 5.2-1.9 7.9 0h9.6" class="b"/></svg>