<svg xmlns="http://www.w3.org/2000/svg" id="a" width="1920" height="2400" viewBox="0 0 192 240"><defs><style>.b{fill:none;stroke:#fff;stroke-miterlimit:10;stroke-width:.3px}</style></defs><path d="M0 0h192v240H0z" style="stroke-width:0"/><path d="M9 231.5h17.4c1-.3 1.8-1.4 2.6-2 1-1 2.2-2.3 3.4-3 2.5-1.8 5.4-1.3 7.8.2q2.4 1.6 5.2 2.4c1.4.6 2.8 1.6 4.3 2 5.9 1.4 9.4-8.8 12.1-12.7 7-11.7 12.7 6 19 8.7q1.5.3 2.7-.4 1.6-.7 3.4-1c3.6-.4 7.4-.8 10.4-3 4-2.8 6-7.6 9.5-11 5-4.3 8.5 3.8 10.4 7.4q2.8 6.2 6 12.2c2 .4 4.1.1 6.1.2h9.5c3.2-5 8-15.6 14.8-8.7a39 39 0 0 1 4.3 5.5c.7 1 1.5 2.6 2.6 3.2H183" class="b"/><path d="M9 230.5h18.2c1-.1 1.9-1.3 2.6-2q1.6-1.6 3.5-2.7c3-1.8 6-.2 8.6 1.4q1.7.8 3.5 1.4c1.7.7 3.3 1.9 5.2 2 6-.2 9.1-11.6 13-15.6 7-6.7 12 12.1 18.1 13 1.5-.2 3-1.2 4.4-1.6 4-1.1 8.1-2.4 11.2-5.3 3.8-3.1 6-7.8 9.5-11.2 5.6-4.8 9.2 5 11.3 8.8q2.8 6 6 11.7 7 .1 13.9.1c.8-.2 1.4-1.4 1.7-2a51 51 0 0 1 3.5-5.5c6.8-9.4 12.4 1.4 16.4 7.2 1 .5 2.4.3 3.5.3H183" class="b"/><path d="M9 229.5h20c5.3-5 7.2-6 13.8-2.4q2.7.8 5.2 2 1.6.6 3.4.4 1.6-.3 2.6-1.3c4.4-3.7 7-13 11.3-15 7-2 11.9 18.2 18.2 14.7 5.9-2.5 10.2-4 14.7-9 3.5-3.4 5.6-8.3 9.5-11.3 5.5-3.3 9.2 7.2 11.3 10.8 1.7 3.7 4 7.4 6 10.9 1.7.4 3.5.1 5.2.2h7.8c2.9-3.8 4.6-9.5 9.5-11.2 5.7-.8 9 7.7 12.1 11.2H183" class="b"/><path d="M9 228.5h21.7c4.9-4.6 7.2-3.8 13-1.6q2.2.6 4.3 1.4 1.7.3 3.5.2c4.5-1.5 6.9-7.6 9.5-11.4 1.3-2 3.2-5.1 6-4.3 4.6 2 7.3 8.5 10.4 12.3 2 2.4 3.8 4.5 7 2.6q8.8-3.3 14.7-11c2.8-3 6.3-10 10.3-11 5-.3 8.2 8.8 10.4 12.3q1.7 3 3.5 5.8c1 1.5 1.9 3.7 3.4 4.7h10.4c1.1-.6 1.9-2.2 2.6-3.3q1.5-2.6 3.5-5c6.5-8 12 2.7 15.5 7.9 1 .6 2.4.3 3.5.4H183" class="b"/><path d="M9 227.5h23.4l1.7-1q1.6-.9 3.5-1.2c2.6-.2 5.2 1 7.8 1.4q2.2 1 4.3.8c.8 0 2 0 2.6-.4 4.9-2.9 6.8-8.8 10.4-12.8 6.6-7.1 12.4 10.6 17.3 13.2h5.2q3.2-1.3 6-3.4c3.8-3 6.7-6.8 9.6-10.6 2.5-2.9 5.9-9.6 10.4-8.4 3.8 1.7 5.6 6 7.7 9.5q3.9 6.6 8.7 12.6c1.6.6 3.5.2 5.2.3h3.4c.7-.2 1.4-1 1.8-1.5 2.3-2.8 3.9-6.4 6.9-8.5 6.4-4 10.5 6.1 13.8 10H183" class="b"/><path d="M9 226.2c1.7.6 3.6.2 5.3.3h17.3c1.7 0 3.6.3 5.1-.6 4.9-1.7 10 1.6 14.8.3 4.8-2.1 7-7.5 10.3-11.2 6.8-8 12.6 8.2 17.3 11.5h5.2q1.8.2 3.5-.2c8.5-4.6 12.1-14.3 19-20.6 4.8-4 8.9 2.2 11.3 5.9 1.7 2.9 4 5.7 6 8.4 1.3 1.7 2.8 3.7 4.4 5.2.4.3 1.2 1 1.7 1.2l1.7.1c1.4 0 3.2.4 4.3-.7 2.8-2.2 4.5-5.6 7-8 6.2-6.1 11.6 3.7 14.7 8.4 1 .5 2.3.3 3.4.3H183" class="b"/><path d="m9 224.4 2.7 1.1h22.5q3.4.1 6.9-.2c5.4-.3 9.4 1.8 13.8-2.7 2.8-2.6 4.9-6.1 7.8-8.6 5.8-4.5 11.8 8.1 15.6 11.4q5.2.1 10.4.1c6.5-3 11.6-14.2 17.3-19.2 4.4-4.2 8.1-1 11.2 3q3.3 4.2 7 8.3c2.6 3 5.7 7.6 10.3 6.6 3.5-1 5.5-4.3 7.8-6.9 6.7-6.9 11.9 3.6 15.6 8.2h25" class="b"/><path d="M9 222.6q1.9.7 3.5 1.8 3.5.1 7 .1H48c5.2-.2 8.6-5 12.1-8.4 3.2-3.3 6-3.6 9.5-.5q2.8 2.6 5.2 5.6c1.3 1.1 2.4 3.5 4.3 3.3h11.3c6.5-3.7 13.7-22 21.6-19.7 4.4 1.6 6.8 6.1 10.4 8.8 3.8 3.2 7.4 9 13 7.9 3.3-.9 5.2-4.2 7.8-6.1 6.1-4 10.8 4.6 13.8 8.8 1 .5 2.4.3 3.5.3H183" class="b"/><path d="M9 221q1.9.6 3.5 1.6a4 4 0 0 0 1.7 1H36q6.5-.1 13-.2c4-1.2 7.1-4.4 10.3-7 1.7-1.4 3.8-2.9 6.1-2.4 5.1 1.3 8.3 6.2 12.1 9.5H87c1.7 0 3.6.2 5.2-.2 5.7-4.6 12.3-20.7 20.8-17.8 2.2.8 4.2 2.5 6 4q2.1 1.6 4.4 3c3.7 2.6 7.2 6.7 12 6.5 3-.2 5-2.5 7-4.2 6.5-4.6 11.2 4.6 14.7 8.7h26" class="b"/><path d="M9 219.5q1.9.3 3.5 1.3c.8.5 1.7 1.5 2.6 1.7h28.6q2.5.2 5.2-.1c4-1.8 7.3-5 11.2-7.1 3.9-2.3 8.2.2 11.3 2.6q1.6 1.5 3.4 2.9c.7.6 1.7 1.5 2.6 1.7H93c3.5-2.9 5.6-7.3 8.6-10.6 2.7-3 6.1-6.4 10.4-6 2.5.4 4.8 1.8 7 3 1.2.8 2.9 1.4 4.3 2 4.2 2 8 5.7 13 5.6q1.8 0 3.4-1.2c1.1-.7 2.2-1.8 3.5-2.3 5.7-2 10 5.2 13 9.1 1 .7 2.3.4 3.4.4H183" class="b"/><path d="M9 218c2.4.2 4.5 1.6 6.1 3.2q1.3.5 2.6.3h25.1q3 .2 6-.2c3-1.7 5.7-3.8 8.7-5.4 4.1-2.2 7.4-1.3 11.3.9q2.6 1.5 5.2 3.2c1 .6 2.1 1.7 3.4 1.5h11.3q3 .2 6-.2c5-5.6 9.4-14.9 18.2-14.3 3.5.5 6.8 2.1 10.4 2.4 4.8 1 8.9 4.5 13.8 4.7a7 7 0 0 0 3.5-1q1.2-.9 2.6-1.3c5.8-1 9.8 5.9 13 9.7H183" class="b"/><path d="M9 216.8c2.8-.3 5.3 1.6 7 3.6 2.8.3 5.8 0 8.6.1h14.7c13.3-.1 6 1.2 16.5-4.8 3.7-2 6.7-1.3 10.4.5q4.6 2.2 9.5 4.3h19.9c2-1.5 3.4-4.2 5.2-6 2.6-3.1 6.3-5.6 10.3-6.2q4-.3 7.8.2c1.7.1 3.5-.3 5.2-.3 2.7 0 5.4.9 7.8 1.9 2.2.8 4.5 2 7 1.8 1.7-.2 3.3-1.6 5.1-1.4 3.7.5 6.4 3.5 8.7 6.1 1.1 1.2 2 3 3.4 4H183" class="b"/><path d="M9 215.8c3.3-1 6 1.4 7.9 3.7h28.5q1.7.2 3.5-.2 2.4-2 5.2-4c2.9-1.8 6.6-1.7 9.5.1a35 35 0 0 0 10.4 4.1h23.3q2.1-2.4 4.3-5c4.2-4.1 10-4.9 15.6-5.6 7.7-1.4 9-4.2 17.3-.4 1.9.8 4 1.7 6 1.2q1.4-.5 2.7-.4c5.2.7 9 6.2 12 10q2.2.4 4.4.2H183" class="b"/><path d="M9 214.8c4.4-1.6 6 1.2 8.7 3.7q15.6.2 31.2 0c3-3.3 7.4-7.1 12-4.5 1.9.9 3.5 2.4 5.3 3.3q1.6.9 3.4 1.2H99c4.5-5.6 9.1-6.3 15.6-8q3.1-1 6-2.5 2.6-1.5 5.3-2.8c5-2 8.5 1.2 13 2.6 1.3.4 2.9-.2 4.3.1 5.3 1.6 8.5 6.7 12 10.6H183" class="b"/><path d="M9 214c3.8-2.2 6.6 0 8.7 3.2 1.3.6 3 .2 4.3.3H49c5.8-6.6 9-7.3 15.5-1l1.8 1h34.6c1.3-.8 2.7-2 4.3-2.6 3-1.2 6.5-1.8 9.5-3.2a34 34 0 0 0 7-4.4c1.8-1.5 3.7-3.3 6-4.3 4.5-2 8 1.7 12.1 3q1.3.2 2.6.3c2 .4 3.7 1.8 5.2 3.1q2.8 2.5 5.2 5.5c.7.8 1.6 2 2.6 2.6H183" class="b"/><path d="M9 213.5c4.4-3.4 7-.7 9.6 3h30.3c6.4-7.4 9-7 15.5 0h39.9c4.1-1 8.5-2 12-4.7q3.7-2.8 7-6.3c2-2.2 4.5-5 7.8-5.2 3.6 0 6.1 3.2 9.5 4.1 5 .5 10.4 8.2 13.8 11.8 1.3.6 3 .2 4.3.3H183" class="b"/><path d="M9 213c2.6-2.4 5.3-3.5 7.9-.5.8.9 1.5 2.4 2.6 3h29.4c1.2-1 2.2-2.6 3.4-3.6 4.5-4.5 8.2-.2 11.3 3.4 1.3.4 3 .2 4.3.2h43.2c1.3.2 2.5-.8 3.5-1.4 3.4-2.5 6-5.8 8.7-9 2.1-2.6 4.3-6 7.8-6.8 3.4-.5 5.9 2.4 8.6 4 .7.3 1.9.6 2.6 1q2.4 1.3 4.3 3.4 4 4.4 7.8 8.8H183" class="b"/><path d="M9 212.6c4.7-5.2 7.4-3.3 10.4 2H49c.6-.3 1.4-1.2 1.7-1.7q1.2-1.6 2.6-2.8c4.3-3.6 7.7 1.5 10.4 4.4H112c1.1 0 2.4.2 3.5-.3a63 63 0 0 0 7.8-9.5c2.3-3.2 4.9-8.6 9.5-8.4 2.3.3 4.2 2.1 6 3.5 1.3 1 3.1 1.5 4.4 2.5 3 2.5 5.3 5.6 7.8 8.5 1 1.2 2 2.9 3.4 3.7H183" class="b"/><path d="M9 212.2c2.6-3 5.5-5.8 8.7-1.8.8.9 1.5 2.6 2.6 3.1h25.1c1.4 0 3 .3 4.3-.2 2-3.2 5.6-7.8 9.6-4.4 1.6 1.2 2.8 3.2 4.3 4.6h52.8c1.3-1 2.4-2.7 3.4-4q1.8-2.5 3.5-5.2c2.3-3.4 4.3-8.5 8.6-9.8 2.8-.5 5 1.8 7 3.4 1.2 1 3 1.8 4.3 3 3.8 3.8 6.8 8.4 10.4 12.5 1.3.3 2.9 0 4.3.1h25" class="b"/><path d="M9 211.9c5-6.5 7-5.8 11.3.6h29.4c5.3-8.3 8.4-7.7 13.9 0h53.6c2.8-3 4.9-6.8 7-10.3 2-3.4 3.8-7.9 7.7-9.4 3.2-.8 5.6 2.2 7.8 4 6 3.8 8.9 10.9 13.8 15.7H183" class="b"/><path d="M9 211.5c4.4-6.2 7.4-7.1 11.3 0h29.4c2.3-2.7 5.2-8.5 9.5-5.4 2.1 1.3 3.3 4 5.2 5.4h46.7c2.3 0 4.7.3 7-.2q3.3-4.7 6-9.9c2.1-3.6 3.9-8.3 7.8-10.2 3.2-1 5.7 2 7.8 4 5.6 4.1 8.7 10.8 13 16.2 3.7.3 7.5 0 11.2.1h19" class="b"/><path d="M9 210.5c1.3-1 2.3-2.7 3.5-3.8 3.3-3.2 6.2.6 7.8 3.5 1.3.7 3 .2 4.3.3h25.1c2.7-3 5.6-9.5 10.4-5.5 1.3 1 2.5 2.6 3.5 3.9.3.5 1.1 1.4 1.7 1.6h52.8c1-.7 1.9-2.4 2.6-3.5l3.4-6.2c2-3.7 3.7-8 7-10.6 2.3-1.8 5-.2 6.9 1.6l4.3 4.2c2.6 3 4.7 6.7 7 10 1 1.5 1.9 3.5 3.4 4.5H183" class="b"/><path d="M9 209.6c2.2-1.5 3.3-4.8 6.1-5.1 3 0 4.1 3.4 6 5h28.6c2.5-2.8 4.9-9 9.6-7 2.9 1.7 4.5 4.9 6.9 7h52.7q3.4-5.3 6.1-11c1.7-3.3 3.3-7.1 6-9.6 3.3-2.8 6.6.9 8.7 3.2 5.2 5 8 11.8 12.1 17.4H183" class="b"/><path d="M9 208.6c1.4-.9 2.3-2.7 3.5-3.8 4-3.6 6.4.9 8.7 3.7h28.5c2.5-3.5 6.1-10.9 11.3-6.7 2.2 1.8 3.9 4.4 6 6.3 1.2.8 3 .3 4.4.5H119l.8-.5q3.5-5.9 6-12c1.5-3 3-6.2 5.3-8.4 3.2-3.2 6.5.6 8.6 3.1 4.7 5 7.5 11.7 11.3 17.4 1.2.7 3 .2 4.3.3H183" class="b"/><path d="M9 207.6c1.3-1 2.3-2.8 3.5-3.8 3.7-3.5 6.8.7 8.7 3.8h28.5c2.5-4.1 6.7-12 12.1-7.1 2.4 2.1 4.6 4.8 7 7q9 .1 18.1 0h32.9c4.4-6 6-14 10.4-20 3.6-4.8 6.8-1.3 9.5 2.2 3.1 3.8 5.4 8.3 7.8 12.6 1 1.6 2 4 3.4 5.2h30.3l1.8-1.6" class="b"/><path d="M9 206.6c4.8-6.2 7.6-7.2 12.2-.2 2 .3 4 0 6 .2h18.2c1.4-.1 3 .2 4.3-.4 7.6-12.2 10.1-10.8 19-1q.8 1 1.8 1.4h45c1.6-.2 3.6.3 5.2-.3 3.6-6.3 5.4-13.8 9.5-19.8 3-4.4 6-2.4 8.6 1.2 4.6 5.7 7.2 12.8 11.3 18.9h19c3.4-.1 7 .1 10.4-.2l3.5-3.3" class="b"/><path d="M9 205.3c4.6-6.1 7.8-6.4 12.2 0 1.3.5 3 .2 4.3.2h23.4c.6-.2 1.4-1.3 1.7-1.9l2.6-3.6c6.6-8.5 11.3-1.5 16.4 4.1.4.5 1.1 1.3 1.8 1.5h49.3c3.4-5.1 4.9-11.6 7.8-17 3-6 6-8.3 10.3-1.7 4.2 5.8 6.9 12.5 10.4 18.7h28.6c.5-.3 1.4-1.2 1.7-1.7q1.5-2 3.5-3.4" class="b"/><path d="M9 203.8c4.7-5.8 7.9-5.2 12.2.5 1.3.4 3 .2 4.3.3h23.4c2.1-2.3 3.7-5.3 6-7.4 6.6-6.7 12.5 2.2 16.5 7.1q2 .4 4.3.2H119c.8 0 1.9.2 2.6-.4 2.9-5.8 4.6-12.3 7.7-18 4-7.2 7.2-3.9 10.4 1.6 3.3 5.3 5.7 11.2 8.7 16.7 2 .3 4 0 6 .1h19.1c1.4 0 3 .4 4.3-.4 1.4-2.2 3-4.6 5.2-6.1" class="b"/><path d="M9 202.3c4.8-5.5 8.1-3.8 12.2 1.2q13.8.1 27.7 0c3.7-4.4 8.9-13 15.5-8.5 3.2 2.2 5.3 5.7 7.8 8.6h49.3c2.8-5.3 4.4-11.3 7-16.7 3.1-6.7 6.2-8.2 10.3-1 3.3 5.5 5.8 11.7 8.7 17.4 1.3.5 3 .2 4.3.3h25c2-2.6 3.3-6 6.2-7.8" class="b"/><path d="M9 200.7c5.1-5.1 8-2.2 12.2 1.9h24.2q1.7.2 3.5-.3c9.7-11.2 14.2-14 23.3-.1q1.2.6 2.6.4h46.7c1.2-1.4 2-3.9 2.6-5.5q2-5.6 4.4-11c3.4-7.3 6.5-7.8 10.4-.4 2.8 5.3 5.1 11 7.7 16.5 1.3.7 3 .2 4.4.4h25.9c1.8-3 3.1-6.7 6-8.6" class="b"/><path d="M9 199.1c1.9-1.8 4.7-2.8 7-1.4 1.6.8 3 2.3 4.3 3.6 1 .4 2.4.2 3.5.3H48c.5-.2 1.4-.9 1.7-1.3l4.4-4c9.4-8.6 12.9-2.9 19 5.2h48.4c1.4-1 2-3.6 2.6-5.2 1.1-2.8 2.3-6.2 3.5-9 2.5-6 5.8-11.7 10.4-3.3 3 5.5 5.2 11.5 7.8 17q.7.7 1.7.5h29.4c1.8-3 3-7 6-9.1" class="b"/><path d="M9 197.5c4.7-3.6 7.8.3 11.3 3H48q2.7-1.6 5.2-3.7c9.8-8.2 13-6.7 19.9 3.5 1.9.5 4 .1 6 .3h42.4c1.5-1 2-3.6 2.6-5.1 1.1-2.8 2.3-6.3 3.5-9 2.8-6.6 6-11.2 10.4-2.4 2.5 5 4.6 10.6 6.9 15.9l.9.6h31.1c2.1-3 3-7.3 6-9.5" class="b"/><path d="M9 196c3.9-2.8 7.8 1 10.4 3.6H48q4.5-2.3 8.6-5.3c5-3.4 8.5-5 13 .2 1.6 1.5 2.7 3.7 4.4 5h47.5c1.5-.8 2-3.5 2.6-5 1.8-4.5 3.3-9.7 6-13.8 5.4-7.3 9.6 8.2 11.3 11.6l1.8 4.4c.2.7 1 2.5 1.7 2.9h32c.8-.3 1.5-2 1.7-2.7 1-2.3 2.3-5.1 4.4-6.7" class="b"/><path d="M9 194.5c2.8-1.7 5.8.3 7.9 2.2.7.6 1.5 1.8 2.6 1.9h27.7c5.1-.5 9.3-4.3 13.8-6.7 5.6-3.4 10 2.7 13 6.7h47.5c1.4-1 2-3.6 2.6-5.1 1.8-4.5 3.3-9.6 6.1-13.6 6.2-8 10.8 15.7 13.8 18.7h33.8c1.4-3 2.5-6.8 5.2-9" class="b"/><path d="M9 193.1c2.6-1.2 5.2.6 7 2.3 1.6 1.5 1.9 2.4 4.3 2.2h11.3q2.5-1 5.2-.8 1.6.2 3.4.7 4.3 0 8.7 0c3.8 0 7.2-2 10.3-4.1 3.7-2.5 6.6-3.8 10.4-.7q1.9 1.6 3.5 3.4c.3.5 1.1 1.3 1.7 1.5h46.7c1.3-1.3 2-3.7 2.6-5.3 1.6-4 3-8.4 5.2-12 6.4-10.3 11.1 13.7 13.9 17.3h34.6c.7-.5 1.4-2.3 1.7-3 .8-2 2-4.1 3.4-5.5" class="b"/><path d="M9 191.8c3.7-1.2 6.4 2.6 8.7 4.8q6.5 0 13-.1a10 10 0 0 1 4.3-1.6c2.4-.2 4.7 1 7 1.7h9.4c1.5 0 3 .1 4.4-.6 2.4-1.1 4.6-3 7-4.2 4.6-2.8 9 1.7 12 4.8h46.7c3-4.9 4.2-10.8 7-15.8 3.5-6.6 6.4-3 8.6 2.1 2 4.4 3.4 9.3 5.2 13.7h36.3c1.2-2.6 2.3-5.7 4.4-7.8" class="b"/><path d="M9 190.6c2.4-.7 4.6 1.2 6.1 2.7 1 .9 2 2.6 3.5 2.3h11.2c2.6-2 5.5-3.2 8.7-1.8 1.4.6 2.8 1.5 4.3 1.8h14.7c3.4-1.6 6.3-5.2 10.4-4.5 2.7.5 5 2.4 7 4.1.3.3 1.2.5 1.6.4h33.8c3.7-.1 7.5.2 11.2-.2 2.4-4.4 4-9.5 6.1-14 2.8-5.8 5.6-6.7 8.7-.3 2 4.3 3.5 9.3 5.1 13.8l1 .7h36.2c.8-.4 1.5-2 1.8-2.8.6-1.3 1.6-3 2.6-4" class="b"/><path d="M9 189.6c3.4-.7 5.8 2.8 7.9 4.9 2.8.3 5.8 0 8.6 0 1.4 0 3 .3 4.3-.2q1.2-1 2.6-1.8c1.6-.9 3.6-1 5.2-.3 1.8.6 3.4 2 5.2 2.4h17.3c6.1-4.5 9.4-4.6 15.6 0h45c1.3-.7 2-3 2.6-4.2 1.4-3.2 2.7-6.9 4.3-10 7-13.7 11 9.4 13.8 14.2h38.1c1-1.9 2-4.3 3.5-6" class="b"/><path d="M9 188.7c3.4-.7 5.7 2.9 7.9 4.9h12c4-2.9 5.9-4.4 10.4-1.5l2.6 1.5h19.9c1-.1 1.9-.9 2.6-1.3 3-1.6 6.6-1.5 9.6 0l2.6 1.3h44.1c3-4.3 4.4-9.8 6.9-14.4 2.6-4.8 5.1-5.4 7.8-.2 2.1 4.3 3.6 9.4 5.2 14l.8.6h38.1l.9-.6c.6-1.4 1.6-3.3 2.6-4.5" class="b"/><path d="M9 188c3.4-.8 5.8 2.6 7.9 4.6h12c3-2.8 6-4.2 9.6-1.8l2.6 1.7h23.3c2-.8 4-1.6 6.1-1.6q3.2.1 6 1.4c1 .4 2.4.2 3.5.3h35.5c1.7-.1 3.6.2 5.2-.3 2.7-4.4 4.4-9.6 6.9-14.2 6.4-12 11 10 13 14.5h39.8c.7-1.4 1.7-3.2 2.6-4.5" class="b"/><path d="M9 187.1c2.3-.9 4.5 1 6.1 2.4.8.6 1.6 1.8 2.6 2h7.8c4 .3 3-.5 6-2.2 2.3-1.3 5-.6 7 .9.8.4 1.6 1.4 2.6 1.4h26.8q2.6-.8 5.2-.8c1.7 0 3.5.6 5.2.8h41.5c3.4-4.3 5-9.9 7.8-14.5 6.7-11 10.5 10.3 13 14.5h39.8c1.2-.7 1.8-2.7 2.6-3.7" class="b"/><path d="M9 186c4-1.7 6.6 2.9 9.6 4.6h8.6c2.7-1.8 5.2-4.1 8.7-2.6 1.5.6 2.8 2 4.3 2.6h44.1c1.4-.2 3-.8 4.4-.8q1.2 0 2.6.3l1.7.5h24.2c.8 0 2 0 2.6-.4 1.7-3 3.8-6.1 5.2-9.3 1.6-3 4.8-10.6 8.7-5.8 2 2.7 3.2 6.2 4.3 9.3.7 1.8 1.3 4.7 2.6 6.2h40.6l1.8-2.8" class="b"/><path d="M9 184.6c2.4-1.5 5.1.2 7 1.8 4.8 4 3.4 3.1 9.5 3.2 1.8-.8 3.3-2.4 5.2-3 3.4-1.2 6 1.2 8.6 3h29.5q6.4.2 13-.1c2.3-.2 4.5-1.4 6.9-1.6q2.3 0 4.3 1.3 1.2.6 2.6.4h23.3c1.4-3 3.7-5.6 5.2-8.4 1.7-2.5 3.5-7.6 7-7.8 4.4 1 7 11.7 8.6 15.7l.9.5h36.3c1.7-.1 3.7.3 5.2-.3l.9-1.5" class="b"/><path d="M9 183c4.2-2.7 8 2.1 11.3 4 1.6 1 3.7 1.4 5.2.2 5.3-3.5 8.5-3 13 1.4h29.4c4.3-.1 8.7.2 13-.1 2.6-.6 5-2.2 7.8-2.4a7 7 0 0 1 4.3 1.4c.6.6 1.7 1.3 2.6 1H118q2.1-3.9 5.2-7.3c1.8-2.5 3.3-5.8 6-7.4 5.3-2.3 8.7 11.3 10.4 14.8h42.4l.9-.9" class="b"/><path d="M9 181.2c3.9-3.2 8 1 11.3 2.8q2 1.4 4.3.8c3.7-2 7-2.6 10.4.2 1.2.7 2.2 2.1 3.5 2.6h37.2q2.6.1 5.2-.1l1.7-.8c4-2.1 7.3-3.9 11.3-.3.2.5 1.2 1.1 1.7 1.2h19q1.4 0 2.6-.3 1.5-2.7 3.5-5.2 2.3-2 4.3-4.5c5.2-6.7 8.2-3.5 11.3 2.7 1.1 2.2 1.9 5.3 3.4 7.3H183" class="b"/><path d="M9 179.3c3.8-3.6 7.8-.4 11.3 1.7 1.6.8 3.5 1.4 5.2.5 5-2 8.9 1.8 12.1 5.1H81c5.9-3.8 9.2-6.5 14.7-.1 6.4.3 13.4 0 19.9.1 1.5-1.7 2.7-4 4.3-5.8q1.2-1.2 2.6-2l2.6-2c1.6-1.4 3.8-3.2 6-2.3 4.2 2.3 5.9 7.8 7.9 11.9 1.9.5 4 .1 6 .2H183" class="b"/><path d="M9 177.3c5-5 9 .1 13.9 1.5 1.7.4 3.5-.6 5.2-.2 2.4.4 4.4 2.1 6 3.7 1.2 1 2.1 2.7 3.5 3.3H81c1.2-.5 2.3-1.7 3.4-2.5 5.1-4.2 8.4-1.9 12.1 2.5h17.3c2.6-2.3 4-6 7-7.7q2.6-1 5.2-2.3c4.9-2.7 8.2 2 10.3 5.8.8 1.2 1.5 3.3 2.6 4.2H183" class="b"/><path d="M9 175.2c5-5.5 8.7-1.3 13.9.6 1.4.4 3-.2 4.3.2 4.2 1.3 6.8 5.4 9.5 8.5q13.5.1 26.9.1h11.2c2.3-.1 4.7.3 7-.2 6.6-7 9.1-7 15.5.2H112c2.8-2.9 4.7-7.3 8.7-8.8q1.7 0 3.4-.2c8-1.8 9.8 3.8 13.9 9h45" class="b"/><path d="M9 173.1c2.6-3.2 5.8-4.4 9.6-2.4 1.6.8 3.4 2 5.2 2.3q1.2.1 2.6.2 1.4.6 2.6 1.4c3 2.5 5 6.2 7.8 9h45c2.7-3.1 6.6-8.4 11.2-5 2 1.2 3.4 3.4 5.2 5h9.5c2.7.2 2.8-.6 4.3-2.5q2-2.7 4.4-5c4-3.9 5-1.6 9.5-.8q4.6 1 7.8 4.5c1.2 1.1 2 3 3.4 3.8H183" class="b"/><path d="M9 171c4.2-5.6 7.6-4.6 13-1.5 1.3.8 3 .9 4.4 1.3 3 1.6 5 4.8 6.9 7.5 1 1.3 1.9 3.6 3.5 4.3h44.9c1.7-1.3 2.8-3.5 4.4-4.9 5.2-5.1 9.5 1.1 13 4.9h8.6c3.2-3.3 5.6-7.7 9.5-10.2 2.4-1.4 4.1-.1 6 1.3q3.7 2 7 4.4l3.5 3c.3.5 1.2 1.3 1.7 1.5H183" class="b"/><path d="M9 169c2.6-3.8 6-6.2 10.4-3.6 2 1 3.9 2.4 6.1 2.7 4.4 2.1 7.5 9.5 10.4 13.4 4.3.3 8.7 0 13 .1h30.3c1 0 2.4.3 3.4-.5 2.8-4.3 6.8-10 12.1-5.2 2.1 1.7 3.8 4.1 6 5.7h4.4c3.1-2.4 5.1-6 7.8-8.9 4-4.3 6.6-4.3 10.4.2q4.5 4.6 9.5 8.7H183" class="b"/><path d="M9 167c4-5.9 7.2-6.8 13-2.7 1.3 1 3 1.3 4.4 2.2 4.2 3.8 6 9.7 9.5 14.1h30.3q8.2.2 16.4-.1c2.2-3.8 6-10.7 11.3-7.4 2.5 1.6 4.4 4.2 6.9 5.9 3.3 2 6-2.3 7.8-4.5 3.3-4.4 8-11.5 13-4.6 2.7 3.6 5.3 7.6 8.6 10.7H183" class="b"/><path d="M9 165c4.4-6.7 7.6-7.2 13.9-2.4 1 .8 2.5 1.2 3.5 2 2.6 2.8 4.2 6.5 6 9.7 1 1.6 1.8 4.2 3.5 5.3h46.7c2.5-3.8 5.6-11.4 11.3-8.6 2.5 1.3 4.4 3.7 6.9 5.1 3 1.7 5.2-2 6.9-4 2-2.7 3.9-6 7-7.4 3.6-1.5 6.1 2.8 7.7 5.5 2 3 3.6 6.7 6 9.4H183" class="b"/><path d="M9 163.2c2.3-3.7 5.8-8 10.4-5 2 1.3 4 3 6.1 4.2 1.9 1.5 3.2 4 4.3 6.1 1.7 3.2 3.4 6.8 5.2 9.9 2 .5 4.1.1 6 .2h41.6c2.8-3.7 5.2-11.9 11.3-9.8 2.5 1 4.4 3.2 6.9 4.4 3.5 1.5 5.9-3.7 7.8-6 7-10.3 10.6-4.3 14.7 4l2.6 5.2c.2.6 1 2 1.7 2.2H183" class="b"/><path d="M9 161.5c6.4-10.6 10-5.6 17.4.3 3.6 4.8 5.3 10.9 8.6 15.8h47.6c1.2-1 1.8-3 2.6-4.4 1.7-2.9 4-7 7.8-6.8 3 .3 5 2.8 7.8 3.7 2.2 1 4-1.2 5.2-2.8 1.4-1.8 2.8-4 4.3-5.7 6.4-7.8 10.7 4.4 13 9.3 1 2 1.7 5.2 3.4 6.7H183" class="b"/><path d="M9 160c6.5-11 10.2-5.6 17.4.8 2.4 3.6 4.1 7.8 6 11.7.7 1.2 1.4 3.3 2.6 4.1h47.6c1.3-.8 1.8-3.1 2.6-4.4 1.7-3.2 3.8-7.5 7.8-8 2.8 0 5.1 2.1 7.8 2.9 2.3.6 4-1.6 5.2-3.1q2-3 4.3-5.6c7.9-8.4 12.6 13.7 15.6 18.2h57" class="b"/><path d="M9 158.6c5.1-8.6 8.4-7.8 14.8-1 2.4 1.7 4 4.5 5.2 7q2.4 5.6 5.2 11 24.1.1 48.4 0l.9-.5c2-4.4 4.8-12.7 10.4-13.2 2.4 0 4.5 1.6 6.9 2 2.3.5 4-1.7 5.2-3.3 1.5-2 3-4.4 5.2-6 4.4-2.6 7 4 8.6 7 2 4.3 3.6 9.1 5.2 13.5 1 .8 2.3.5 3.5.5H183" class="b"/><path d="M9 157.4c6.5-11 9.8-5.3 16.5 1.1 3.9 4.7 5.1 11.3 8.7 16.1h46.7q1.4.1 2.6-.3c2-4.8 4.8-13.4 10.3-14.7 2.7-.4 5.2 1.4 7.8 1.2 4.3-.8 6-7.8 10.4-9 6.3-1 10.5 18.2 13 22.8h58" class="b"/><path d="M9 156.4c4.7-8 8.2-7.6 13.9-.7 1 1.2 2.6 2.4 3.5 3.7 2.7 4.3 4.5 9.4 6.9 14 1 .4 2.3.2 3.4.2H80c1 0 2.5.2 3.5-.3 2.1-5.1 4.7-13.8 10.3-16 2.6-.8 5.2.7 7.8.5 4.3-1 5.9-7.5 10.4-8 5 .3 7.8 11.1 9.5 15.1l1.8 5c.2 1 1 3.2 1.7 3.7h58" class="b"/><path d="M9 155.5c5-8.3 8.6-6.6 13.9 0 1.5 1.7 3.3 3.4 4.3 5.4 2.3 3.7 3.6 8.2 6 11.7H81q1.4.2 2.6-.4c2.3-5.5 4.8-14.2 10.4-17.1 2.4-1.1 5.2 0 7.7-.2 4.2-1 5.8-7.1 10.4-7 5.6 1.3 10.1 19.1 12.1 24.5 1 .4 2.4.2 3.5.2h55.3" class="b"/><path d="M9 154.3c4.6-7.5 8.3-5.8 13 .4 1.3 1.7 3.1 3.3 4.4 5 2.3 3.6 4 7.9 6 11.7q1.3.3 2.6.2h47.6c1.5-1 1.8-3.8 2.6-5.3q1.8-4.7 4.3-8.9c3.4-5 5.6-5.4 11.3-5.1 4.5-.1 6.5-7 11.3-5.8 5.9 3 9.1 19 12 25.1H183" class="b"/><path d="M9 153c5.5-8.5 9.7-2.6 13.9 3 1.4 1.7 3.3 3.4 4.3 5.4 1.9 2.9 3 6.6 5.2 9.2h50.2c1.6-2.1 2.3-5.4 3.5-7.8 1.8-4.2 3.8-9 7.7-11.6 2.4-1.5 5.3-1 7.8-1.5 3.7-.9 6.3-6.6 10.4-4.4 4.3 3.3 5.8 9.5 7.8 14.4l2.6 7.4c.2.8 1 3.1 1.7 3.5h49.4c1-.2 2.3-.8 3.4-.8q1.4.1 2.6.8h3.5" class="b"/><path d="M9 151.5c5.2-7.5 9.4-1.4 13 3.6q2.1 2.8 4.4 5.4c1.9 2.8 3.5 6.1 5.2 9q25.5.1 51 .1c3.3-6.6 5.3-16.3 12.1-20.4 2.1-1.1 4.7-1 7-1.6 3.2-1 5.7-5.5 9.4-3.8 5.7 3.4 9.4 19.3 12.2 25.8h48.4c.9 0 1.8-.7 2.6-1 2-1 4.3-.3 6 1h2.7" class="b"/><path d="M9 149.8c5.3-7 10 1.1 13 5.6 1.5 2.3 3.7 4.3 5.2 6.7q1.4 2.1 2.6 4.4c.3.6 1.1 1.9 1.8 2.2h51c3-7 5.1-15.3 11.3-20.2 2.2-1.7 5.1-2 7.7-2.8 3.5-1.4 6.7-5.8 10.4-2.1 4 4.6 5.7 11 7.8 16.5 1.1 2.6 1.7 6.3 3.5 8.6h47.6c2.4-1.3 5-3.2 7.8-1.7q1.1.9 2.6 1.6h1.7" class="b"/><path d="M9 148c5.5-6.2 10.3 3.5 13 7.5 1.2 2 3 3.8 4.4 5.5 1.5 2 2.9 4.5 4.3 6.6H80q1.4.1 2.6-.2c3.1-7.6 6.3-18.6 14.7-21.7 1.7-.6 3.6-1 5.2-2s3.3-2.3 5.2-2.7c5.2-.5 7.8 8.4 9.5 12.2l5.2 14.4H170c2.8-2 6.3-4 9.5-1.5 1 .7 2.2 1.7 3.5 1.5" class="b"/><path d="M9 146.2c5.8-5.4 10.3 5.5 13 9.3 1.4 2.4 3.6 4.5 5.2 6.8 1.2 1.3 2 3.4 3.5 4.3h51l.9-.5c2.5-6.5 5.2-13.6 10.4-18.4q3.1-2.6 6.9-3.9c2.7-.9 4.9-3.4 7.8-3.7 7.4 0 11 21.6 14.7 26.5H169c2.7-1.8 6.2-4.4 9.5-2.4 1.4.9 2.7 2.3 4.4 2.4" class="b"/><path d="M9 144.3c5.7-4.5 10.5 7.4 13 11 2.2 3.7 5.5 6.7 7.8 10.2 6 .3 12.2 0 18.2.1h33.7c.9-.3 1.5-2.1 1.8-2.9l1.7-4c2-4 4.4-8.2 7.8-11.3 3-2.7 7-4 10.4-6.3 5.1-4 8-.1 10.4 4.4 3.1 6.4 5.1 13.5 7.7 20.1h46.7l1.8-1c2.4-1.7 5.8-3.3 8.6-1.5 1.4.9 2.7 2.5 4.4 2.5" class="b"/><path d="M9 142.4c5.7-3.6 10.5 9 13 12.5q1.9 3 4.4 5.7l3.4 4h52c.8-.3 1.4-2 1.7-2.8 1-2.2 2.2-4.8 3.4-6.9 4.5-7.6 8.7-9.2 15.6-13.8 5.7-4.7 8.6-.6 11.3 4.6 2 4.1 3.6 8.9 5.1 13.2.7 1.7 1.3 4.4 2.6 5.8h43.3q1.7 0 3.4-.2l1.8-1.1c8.6-5.5 9 1.2 13 1.3" class="b"/><path d="M9 140.5c5.6-2.8 10.5 10.1 13 13.7 2 3.6 5 6.6 7.8 9.5H80c.8 0 2 0 2.6-.5 4.9-11.8 9-14.7 19-21.6 5.3-4.7 8.2-3 11.3 2.6 3.2 6.1 5.2 13 7.8 19.4h43.2c1.8 0 3.8.4 5.2-.8 5.1-3 7.6-3.4 12.1.8h1.8" class="b"/><path d="M9 138.6c5.6-2.1 10.5 11 13 14.8 2 3.5 5 6.3 7.8 9.2q12.1.1 24.2 0 14.4.2 28.6 0c4.4-10.5 9.7-13.6 18.2-20.2 4.6-4.2 7.5-5.4 11.2.6 2.6 4.3 4.3 9.3 6 14 .8 1.6 1.4 4.3 2.7 5.7h32.9c1-.2 2.2-1 3.4-.8q1.4.1 2.6.8h3.5c2-.1 4.3.4 6-.8 4.1-2.3 7.7-3 11.3.7h2.6" class="b"/><path d="M9 136.8c5.7-1.6 11 13 13.9 16.8q1.9 2.9 4.3 5c1 1 2.2 2.3 3.5 3h51.9c1.5-2 2.6-4.7 4.3-6.6 3.4-4.2 8.2-7 12.1-10.6 2.6-2 5-5.9 8.7-5.2 5.7 2 9.5 16.7 12.1 22.2 1.3.5 3 .2 4.3.3h28.6c1.7-1.3 4-2 6-.9l1.8.9h1.7q3 0 6-.2c3.8-1.8 7.9-3.2 11.3.1h3.5" class="b"/><path d="M9 135c5.8-1 11.3 14.5 14.8 18.6q3.3 4.1 7.8 7h49.3q1.3.1 2.6-.2c3-6.4 9.7-9.6 14.7-14.4l4.3-4.2c1.2-1 2.7-2.3 4.3-2.3 6.5.6 10 16.2 13 21.2h20.8c3.7-.1 7.5.2 11.2-.2 2.8-2.6 5.9-2.3 8.7.1q3.9.2 7.8 0c2-.2 4-1.3 6-1.2 1.5 0 3 .8 4.4 1.3h4.3" class="b"/><path d="M9 133.5c6.1-.7 11.5 15.4 15.6 19.6q2.9 2.9 6 5.1c1 .7 2.3 1.7 3.6 1.5h47.5c2.9.2 2.7-.9 4.4-2.7 2.2-2.4 5.2-4.1 7.8-6.1q3.6-3 6.9-6.6c7-8.4 10.2-2.9 13.8 4.5l3.5 8c.2.7 1 2.5 1.7 2.9h27.7c1 0 2.5.2 3.4-.4 1.2-1.1 2.7-2.2 4.4-2.3q2.3.2 4.3 1.7 1 1.1 2.6 1 5.6.2 11.3-.3 4.6.5 9.5.3" class="b"/><path d="M9 132c5.2-.3 9.6 10.4 12.2 14.3q3.4 6.2 9.5 9.9l3.5 2.2q1.2.4 2.5.3H68c5.7-.1 11.6.2 17.3-.1 3-3.3 7.2-5 10.4-8 3.4-2.8 5.7-7 9.5-9.5 6.5-3.6 11.5 13 13.8 17.4 1.4.3 3 .1 4.4.2h25.9c4-4 7-4.4 11.3-.4q.8.4 1.7.4h20.7" class="b"/><path d="M9 130.9c4.7-.2 8.2 7.3 10.4 10.7 2.4 4 4.8 8.3 8.7 10.8l5.2 3.2c1 .6 2.2 1.7 3.4 2H87q3.1-1.7 6-3.6c3.5-2.4 6-5.8 8.7-9 1.7-2 4-4.6 7-3.6 5.2 2.8 7.4 11.3 10.3 16.3H144q2.2.1 4.4-.2c4-4.8 7.7-4.7 12-.2q.9.4 1.8.4H183" class="b"/><path d="M9 129.8c7-.1 12 16.1 18.2 20 3.4 2.4 7.3 4 10.4 6.7 3.4.3 7 0 10.4.2h42.3c5.3-2.6 8.6-7.7 12.2-12 8.1-9.8 12.7 6.7 16.4 12h27.7c1.3-.8 2.3-2.2 3.5-3 3.4-2.8 6.8-1 9.5 1.7q.8.8 1.7 1.3H183" class="b"/><path d="M9 129c6.4-.4 11.9 13.5 16.5 17.4 2 2 4.6 3.2 7 4.6q3.2 1.8 6 4.3c1 .6 2.3.3 3.4.4h47.7c1.3-.1 3 .3 4.3-.4 4-3.3 6.5-8.2 10.3-11.8 7.3-6.2 11.3 8 14.7 12.2h26.9c4-4.7 7.7-7.5 13-2.3 2.2 2.3 1.8 2.4 5.1 2.3h19" class="b"/><path d="M9 128.6c6.8-.8 12.2 13 17.4 16.8 2 1.7 4.6 2.9 6.9 4.2a34 34 0 0 1 6 4.8c1 .5 2.4.2 3.5.3h52c1.4-.5 2.4-2.4 3.4-3.5 1.6-2.1 3.3-4.6 5.2-6.6 7.3-8.2 11.8 5.3 15.5 10h22.5q1.8.2 3.5-.1c3.2-3.8 7.3-8 12.1-3.8 1.6 1 2.7 3 4.3 4H183" class="b"/><path d="M9 128.4c5.3-1 9.3 6 12.2 9.5 2 2.6 4 5.4 6.9 7.1q3 1.8 6 3.6 3.3 2.1 6.1 5c11 .3 22 0 32.9 0H93c1 0 2.4.2 3.4-.2 3.2-3.3 7.2-11.8 12.2-11.7 5 1 7.4 8.2 10.3 12h21.7q1.7.2 3.4-.3c3.5-4 7.8-8.8 13-4 1.6 1.2 2.7 3.2 4.3 4.3H183" class="b"/><path d="M9 128.2c5.6-1.5 10 5.8 13 9.3 1.8 2.2 3.7 4.5 6.1 6q3.4 2 7 4 3 2.2 6 5.2h55.4c1-.6 1.8-2 2.5-3 1.4-1.8 2.8-4 4.4-5.6 7.1-8.1 11.7 3.5 15.5 8.6h21.7c1.7.1 2.3 0 3.4-1.4a30 30 0 0 1 4.4-4c2.5-2 5.5-1.7 7.8.4a28 28 0 0 1 3.4 3.5c.4.5 1.1 1.4 1.8 1.5H183" class="b"/><path d="M9 128c7.2-2.8 12.6 9 17.4 12.6 2.3 2 5.2 3.1 7.8 4.7a40 40 0 0 1 7.7 6.3q16 .1 32 0h14.8c2.8 0 5.8.3 8.6 0 3.5-4.8 9.2-15.8 15.6-8.3 2.3 2.5 3.8 5.8 6 8.4h14.7c2.6-.1 5.3.2 7.8-.2 3.1-2.6 6-7 10.4-6.8 4 .6 6.1 4.4 8.7 7H183" class="b"/><path d="M9 127.8c7.4-3.8 12.6 7.4 17.4 11.2 2.5 2.2 5.8 3.4 8.6 5q4.4 2.8 7.8 6.5c2.2.5 4.7 0 7 .2h47.5c3.5-5 9.1-15.5 15.6-8q1.9 2.3 3.4 4.7c.8 1 1.5 2.7 2.6 3.3h20.8c8.9-8 11.5-11.2 19.9-.2 2.8.4 5.8 0 8.6.2H183" class="b"/><path d="M9 127.5c7.5-5 12.5 6 17.4 10 2.8 2.3 6.4 3.5 9.5 5.4q2.8 1.6 5.2 4c1 .8 2 2.3 3.4 2.8h52.8c2.7-3.7 6.5-11.7 12.1-10 4 1.9 6.1 6.4 8.7 9.8 2.2.4 4.6.1 6.9.2h13c4.3-2.8 8.8-10 14.7-6.6 2.4 1.5 4.3 4 6 6.1 1 .8 2.4.4 3.5.5H183" class="b"/><path d="M9 127c7.8-6.4 13 5.7 18.2 9.6 2.7 2 5.9 3 8.7 4.6a33 33 0 0 1 6 4.5c1.2.9 2.2 2.4 3.5 3h51.9c2.7-4.5 7.8-13.6 13.9-8.6 2.8 2.3 4.4 6 6.9 8.6h19q2.9-3.1 6-5.5c2.5-2 5.8-3.4 8.7-1.5 2.9 1.7 4.6 4.8 7 7H183" class="b"/><path d="M9 126.6c7.7-7.8 12.9 4.3 18.2 8.4 2.6 2 5.8 3 8.7 4.6q3.2 1.7 6 4.2c1.5 1.1 2.7 3 4.4 3.9h45c1.9-.1 4.2.3 6-.3 2.5-4 5.6-10.6 11.3-9.4 4 1.7 6.2 6 8.6 9.4q1.3.4 2.6.3h16.4c3.1-3.3 7.3-8.5 12.2-8.3 4.4.7 6.9 5.1 9.5 8.3h25" class="b"/><path d="M9 126c7.4-8.6 12.3 1.9 17.4 6.8 2.4 2.2 5.6 3.5 8.6 4.8 4.4 1.9 8 5.2 11.3 8.8 1 .5 2.3.2 3.4.3h46.7c.7-.2 1.5-1.5 1.8-2.1 1.2-2 2.5-4.4 4.3-5.9 7-5.6 10.8 3.7 14.7 8h18.2c1.6-1.3 2.8-3.3 4.3-4.7 4.2-4 8.4-5.9 13-1q2.3 2.5 4.3 5.2c1 .7 2.4.4 3.5.5H183" class="b"/><path d="M9 125.5c6.5-8.6 10.9-1.9 15.6 4q2.6 3 6 4.7c8.6 3.8 10.1 4.6 16.5 11.5h49.3c2-2.2 3-5.4 5.2-7.5 6.5-6 11.4 2.4 14.7 7.3q1.7.3 3.5.2h12.1q1.8.2 3.5-.2c3.3-4 7.9-11 13.8-8 3.4 1.8 5.4 5.3 7.8 8.2h26" class="b"/><path d="M9 124.8c7.5-11 11.6-1 17.4 5q3.4 3 7.8 4.7 4.2 1.7 7.7 4.5 2.8 2.6 5.2 5.2c1 .8 2.4.4 3.5.5h45.8c2.7-4.3 5.8-12 12.1-8.7 3.5 2 5.2 6 7.8 8.7h18.2c1.5-.8 2.4-2.7 3.5-3.9 1.8-2.2 4-4.5 6.9-5.2 3.6-.7 6.5 2.5 8.6 5 1.2 1.3 2 3.2 3.5 4.1h26" class="b"/><path d="M9 124.1c6.4-10.2 10.2-4.8 15.6 2.3a21 21 0 0 0 6 5.1c3.5 1.9 7.4 3.1 10.5 5.6 2.5 1.9 4.4 4.6 6.9 6.6h42.4c2-.1 4.1.3 6-.2 1.7-2.9 3.2-6.6 6.1-8.4 6-3 10 4.3 13 8.4q1.2.3 2.6.2h16.4c.6-.3 1.4-1.3 1.7-1.8q1.6-2.2 3.5-4.3c7.1-7.2 12.1-.1 16.4 5.8 1 .5 2.4.3 3.5.3H183" class="b"/><path d="M9 123.4c6.2-10.9 9.8-6.3 15.6 1.5q2.6 3.2 6 5.3c3.5 2 7.4 3.3 10.5 5.8 2.5 2 4.4 4.7 6.9 6.7h47.6c.7-.3 1.4-1.6 1.7-2.3 1.2-2 2.5-4.4 4.3-6 6.3-3.6 10.4 4.4 13.9 8.3h19c.6-.2 1.4-1.2 1.7-1.7q1.6-2.2 3.5-4.3c7-7.1 12.1.1 16.4 5.8 3.1.4 6.4 0 9.6.2H183" class="b"/><path d="M9 122.7c6.1-11.4 9.4-7.9 15.6.7q3 3.7 7 6c3 2 6.6 3.3 9.5 5.6 2.5 2 4.3 4.8 6.9 6.7h47.6c1.8-2.3 3-5.4 5.2-7.5 5.5-4.5 10.9 3 13.8 7.2 1 .5 2.4.3 3.5.3h13c1.3 0 3 .2 4.3-.2 8-11.6 12.6-10.7 20.7 0 3.1.4 6.4 0 9.6.2H183" class="b"/><path d="M9 122c5.1-10 8.3-10.6 14.8-1.1q3.2 4.3 7.8 7.3c3 2 6.6 3.7 9.5 6 2.5 1.9 4.1 5 6.9 6.5h47.6c1.8-2.8 3.6-7.3 6.9-8.4 5.6-1 9 4.8 12.1 8.4h20.8c1.5-1.4 2.7-3.5 4.3-5 3.4-3.4 7.5-4 11.3-.7q2.7 2.5 5.1 5.4c1 .5 2.4.3 3.5.3H183" class="b"/><path d="M9 121.4c4.9-10 8-12.1 14.8-2q3 4 6.9 7c3 2.3 6.5 4 9.5 6.4 2.6 1.9 4.5 4.8 7 6.8 10 .3 20.1 0 30.2.1H93q1.4.2 2.6-.4c1.8-2.6 4-8 7.8-7.8 2.7 0 5 1.8 6.9 3.7 1.2 1.2 2.4 2.8 3.5 4 .7.6 1.7.5 2.6.5h19.9c3.1-4.5 8.1-9.3 13.8-5.8 2.6 1.5 4.5 4 7 5.8h10.3c1.4-.2 2.8-1.3 4.3-1.3q1.4 0 2.6.6c.4.3 1.3.7 1.8.7h6.9" class="b"/><path d="M9 121c1.7-3.2 4.3-10.6 8.7-9.3 2.7 1.2 4.3 4.1 6 6.3a48 48 0 0 0 7.9 7.7c3 2.5 6.5 4.5 9.5 7.1a30 30 0 0 1 3.4 3.7c1 1 2 2.5 3.5 2.2h46.7c2.3-2 3.4-5.4 6-7.2 5.2-2.4 10.1 3.7 13 7.2h14.8q4.3.2 8.6-.1c2.5-3.2 6.1-6.3 10.4-6 3.4.5 6.1 3 8.7 5a4 4 0 0 0 1.7 1.1h7.8l2.6-1.6c3.2-2 6-1 8.6 1.6h6" class="b"/><path d="M9 120.6c2-4.1 5.8-14.2 11.3-8.2 2.4 2.5 4.4 5.6 7 8 3.8 4.2 8.6 7.4 13 11 2.2 1.8 3.8 4.5 6 6.3h48.4c2.3-2.3 4.2-7 7.8-7.2 3 .2 5.7 2 7.8 4 1.1 1 2.1 2.5 3.5 3.2H138c5-4.9 10.2-6.7 16.4-2.6 1.4.8 2.8 2 4.4 2.6h5.1c5.7-4.1 8.6-6.2 13.9 0h5.2" class="b"/><path d="M9 120.6c1.8-3.6 5-14 10.4-10.1 2.7 2.1 4.5 5.2 7 7.5q4.5 4.8 9.5 9 5.3 4.2 9.5 9.5 1.2.3 2.6.2h17.3q14.7.1 29.4 0c2-2.4 3.8-5.6 7-6.5 4.5 0 8.2 3.3 11.2 6.4 3.4.3 7 0 10.4.1h16.4c3.2-2.3 7.2-4.4 11.3-3.8 2.7.5 5.2 2 7.7 3q2.9 1.4 5.2-.5c3-2.2 6.7-5.5 10.4-2.8 1.7 1 2.9 2.9 4.3 4.1h4.4" class="b"/><path d="M9 120.8c1.7-3.6 5-14.6 10.4-11.3 2.7 1.9 4.5 4.9 7 7q6.3 6.5 13 12.6c2.1 2 4 4.5 6 6.6h43.3c2-.1 4.1.3 6-.2 2-2 4-5 7-5.6q3.7.4 6.9 2.5c1.5 1 2.8 2.4 4.3 3.3h26.9c1.4 0 3 .2 4.2-.8 10-5.9 14.2 1.5 19-1.3 1.8-1 3.4-2.4 5.3-3.3 4.3-2.4 8 2 10.3 5.1 1.4.5 3 .2 4.4.3" class="b"/><path d="M9 121.4c1.7-3.7 4.6-13.9 9.6-13 3 .9 4.6 3.9 6.9 5.7L40.2 129l3.5 4c.3.6 1.2 1.5 1.7 1.8h48.4c.6 0 1.4-.7 1.8-1q1.6-1.6 3.4-3 1.2-.9 2.6-1a21 21 0 0 1 10.4 4.9c3.4.3 7 0 10.4.1h23.3c4.7-3 8.6-3.3 13.9-2.4 1.9.4 3.7-.9 5.2-1.9 4.3-3.2 7.4-3.6 11.2.6 1.2 1 2.1 2.9 3.5 3.7h3.5" class="b"/><path d="M9 122.2c1.9-4.2 4.1-12.6 8.7-14.3 2.9-.5 5 2.4 7 4 5.2 4.6 9.9 10 14.6 15q1.9 2 3.5 4c.7.8 1.6 2.3 2.6 2.8h48.5c1-.1 1.8-1.1 2.6-1.7 1.4-1.1 3.2-2.6 5.1-2.5q3.7.8 7 2.4c1.4.5 2.7 2 4.3 1.8h26q4.6.2 9.5-.1 4.3-2.9 9.5-3c1.7 0 3.7.2 5.2-.9 2-1.1 3.8-2.7 6-3.2 4.8-.9 7.6 4.2 10.4 7.2h3.5" class="b"/><path d="M9 123.3c2.1-5 3.7-11.1 7.9-15 2.3-1.7 5 0 6.9 1.7 5.2 3.8 9.4 9 13.8 13.7q2.7 3 5.2 6c.7 1 1.6 2.3 2.6 3h48.5c2.7-1.2 5.3-4.5 8.6-3.3 2.9 1 6 1.8 8.7 3.3h29.4q4.8.1 9.5 0 3-2.3 7-3c1.3-.4 2.9-.3 4.2-.6q1.5-.5 2.6-1.3c4.7-3.2 8-4 12.1.5 1.5 1.3 2.7 3.4 4.4 4.4h2.6" class="b"/><path d="M9 124.6c2.2-5.4 3.9-11.5 7.9-15.9 2.5-2.4 5.3-1 7.7.8 3.7 2.4 6.6 5.8 9.6 9q5.8 6.4 11.2 13.2h32.9q7.8.2 15.6-.1c1.9-1 3.8-2.4 6-3 1.5-.2 3 .6 4.3 1l6.1 2c4.6.3 9.3 0 13.8.1h24.2c1.2 0 2.5.2 3.5-.3a18 18 0 0 1 6-2.8c1.5-.3 3.1-.3 4.4-.9 3-1.4 6-4.2 9.5-3.4 2.5.6 4.4 2.5 6.1 4.2 1.4 1.3 3 3.9 5.2 3" class="b"/><path d="M9 126c2.4-5.7 4.6-14.4 9.6-18.1 5.1-2.9 12.3 5.8 15.5 9.2q6 6.4 11.3 13.1c1 .8 2.3.5 3.5.5h43.3q1.3-.2 2.5-.9l3.5-1.5c2.4-.9 3.8 0 6 1q2.6.9 5.2 1.4h43.3q2.3-1.7 5.2-2.7c1.3-.4 3-.4 4.3-1 3.3-1.5 6.6-4.4 10.4-3.4 2.3.6 4.3 2.3 6 3.9 1.2 1.1 2.7 2.4 4.4 1.4" class="b"/><path d="M9 127.5c2.7-6.5 4.6-14 9.6-19.2 4-3.4 9 1 12 3.9 5.6 5.4 10.4 11.6 15.7 17.3 1.3.5 2.9.1 4.3.2h39.8c3.8 0 7.3-3.7 11.2-2.2 2.1 1.2 4.5 2.3 7 2.2h44.9c1 0 1.9-.8 2.6-1.2q1.7-.8 3.5-1.2c6-1 9.6-6.9 16.4-3.3q1.9.9 3.5 2.2c1 .8 2.5.8 3.5 0" class="b"/><path d="M9 128.7c3.2-6.5 5.4-16.7 11.3-21.2 3.8-2.2 7.7 1.1 10.4 3.6 5.6 5.1 10.4 11.1 15.6 16.6 1 1.3 2.8 1 4.3 1h36.3c4.6.6 8.5-2.7 13-2.5 1.6.1 3 1.4 4.3 2s3 .5 4.4.5h46.7c1.7-.4 3.3-1.5 5.2-1.7 5.7-1.4 10-6.5 16.4-4.2 2.2.7 3.9 2.7 6 .7" class="b"/><path d="M9 127.7h1c3.2-5.7 5.8-17.7 12-20.9 4-1.4 7.6 2.4 10.4 4.8q5 4.7 9.5 9.6c2 2 3.8 4.4 6.1 6 1 .8 2.3.5 3.5.5h33.7c2.4.2 4.7-.4 7-1 3-.9 6.4-2.6 9.4-.8 1 .7 2.2 1.7 3.5 1.8h52.8q1.7-.3 3.4-.7c4.6-1.3 8.3-4.7 13-5.6q2.2-.4 4.4.2l1.7.4q1.5-.1 2.6-1.3" class="b"/><path d="M9 126.7h1.8c.7-.4 1.5-2.3 1.7-3l1.8-4.3c2-4.2 4.6-11.8 9.5-13.1 4.5-.3 8.9 4.7 12 7.4 4.8 4.1 9 9 14 13h37.1l8.7-2.4c6.6-1.6 6 2.4 9.5 2.5h55.3q1.8 0 3.5-.3c4-1.6 7.3-4.5 11.3-6.1q1.6-.7 3.4-.8l1.8.1q1.6-.5 2.6-1.7" class="b"/><path d="M9 125.7c1.2 0 2.5.2 3.5-.3 2.3-5.5 4.4-11.4 7.8-16.3 2.9-4 5.6-3.6 9.5-1.2 7.6 5 14 11.6 20.8 17.7 2.8.4 5.8 0 8.6.1h15.6q6 .1 12.1 0 4.3-1.6 8.7-2.7c6.5-1.5 6 2.9 9.5 2.8H164c1.4 0 3 .2 4.2-1 3-2 5.6-4.6 8.7-6.4 2.6-1.3 3.9-.2 6-3" class="b"/><path d="M9 124.7h4.4c2.7-5.7 4.5-12.2 8.6-17 2.3-3 6-1.4 8.7.1a99 99 0 0 1 20.8 16.7c1 .4 2.3.2 3.4.2h32c3.2-1 6.3-2.5 9.5-3.2 1.8-.3 3.8 0 5.2 1.3.8.7 1.6 1.8 2.6 2h64.9c3-2.1 5-5.3 7.8-7.6q1.6-1.2 3.5-1.9 1.6-1 2.6-2.5" class="b"/><path d="M9 123.8h5.3c1-1.5 1.8-4 2.5-5.6q1.9-4.7 4.4-8.9c2.4-3.8 4.6-4 8.6-2.4a59 59 0 0 1 22.5 16.7q1.7.3 3.5.1h22.5q4.8.2 9.5-.1c2.8-1.2 5.6-2.7 8.7-3.4 1.8-.4 3.8.2 5.1 1.5.8.6 1.6 2 2.6 2h66.6c2.5-2.6 4.4-6 7-8.6q1-1 2.6-1.8c.9-.7 1.9-1.9 2.6-2.8" class="b"/><path d="M9 122.8h6.1c.8-.5 1.5-2.4 1.8-3.2 1-2.5 2.2-5.5 3.4-8 1.5-2.7 3.2-6.2 7-5.5 3.9.5 7.6 2.4 11.2 4 6 2.5 10.9 7.4 14.7 12.6h34.6q1.3-.3 2.6-1.1c5.2-2.8 8.8-4.8 13 .9q1.6.4 3.4.2h64.9c2.5-2.5 3.8-6.1 6-8.8q1.2-1.3 2.7-2.4c.9-.8 1.9-2.1 2.6-3.1" class="b"/><path d="M9 121.8h7c.9-.4 1.4-2.2 1.7-3l1.7-4.3c1.2-2.5 2.4-5.4 4.4-7.4.9-.8 2.3-1 3.4-1 2.7.1 5.3.9 7.8 1.5q4 1 7.8 2.8 4.5 2.7 7.8 7c1.1 1.3 2.1 3.2 3.5 4.4h34.6l1.7-1c5.2-3.2 8.8-5.4 13 .7 1 .4 2.3.2 3.4.3h65.8c2-2.6 3.3-6.1 5.2-8.8 1.5-2.3 3.8-4 5.2-6.4" class="b"/><path d="M9 120.8H17c1.4-1 1.8-3.8 2.6-5.3 1-2.6 2.3-5.8 4.3-8 .9-.9 2.3-1.1 3.4-1.2 3.5-.2 7 .4 10.4.9 8 .7 12.5 7 16.5 13.3 1.6.5 3.5.2 5.2.3h30.2c5.4-3.6 9.3-7.4 13.9-.3 1 .4 2.3.2 3.4.3h66.7c1.7-3.3 3.1-7 5.1-10q2.4-2.7 4.4-5.8" class="b"/><path d="M9 119.8h8.7c.7-.6 1.5-2.5 1.7-3.3 1.2-2.8 2.4-6.2 4.4-8.5 2.3-2.2 6.5-1.7 9.5-1.9 3.4 0 7.1-.3 10.4 1 5.3 2.5 7.7 8.4 11.2 12.7h22.5c4.3-.1 8.7.2 13-.2 5-4 8.7-7 13 0q1.6.2 3.4.2h66.7l.8-.6c1.3-3 2.7-6.4 4.4-9.2q2.1-3 4.3-6.2" class="b"/><path d="M9 118.8h9.6c1.6-2.8 2.5-6.5 4.3-9.3 1.1-2 3-2.7 5.2-3q3.4-.7 7-1c2.7-.4 5.8-1 8.6 0 5.4 2.3 8.2 8.5 11.2 13.3h32.9c1-.1 2.5.2 3.4-.4 4.9-4.3 8.2-6.3 12.2.3q35.4.1 70.9 0c1.7-2.7 2.7-6.3 4.3-9.2l4.4-6.5" class="b"/><path d="M9 117.8h10.4c1.3-3 2.4-6.5 4.4-9.2.8-1 2.2-1.5 3.4-1.8q5.6-1.4 11.3-2.7c2.3-.5 4.9-.6 6.9.7 4.4 3 6.9 8 9.5 12.5q.8.5 1.8.5h34.6c2.4-1.9 5.2-5.4 8.6-3.8 1.5.8 2.4 2.5 3.5 3.8h68.3q1.8.1 3.5-.3c1-2.6 2.2-5.7 3.4-8.2q2.1-3.3 4.4-6.8" class="b"/><path d="M9 116.8h10.4c.8-.5 1.5-2.3 1.8-3 .6-1.6 1.6-3.6 2.6-5 1.4-1.7 4-2 6-2.7l7.8-2.5c6.5-2.3 9.4 0 13 5.3q1.8 2.7 3.5 5.6c.2.7 1 2 1.7 2.3h31.1c1.7-.1 3.6.2 5.2-.2 2.2-2.1 5.7-5.3 8.7-2.7.9.7 1.6 2.2 2.6 2.9h71.8c1.5-2 2.2-5.1 3.4-7.3q2.1-3.6 4.4-7" class="b"/><path d="M9 115.8h11.3c1.7-3.5 2.7-8 7-9q3.4-1 6.9-2.3 3.3-1.4 6.9-2.3c5.4-1.3 8.7 4.4 11.2 8.3 1.2 1.6 2 4 3.5 5.3h33.7c1.1-.1 2.5.2 3.5-.5 3.4-3.2 6.7-4.4 9.5.3 3.1.4 6.4 0 9.5.2h64l2.6-6 4.4-7" class="b"/><path d="M9 114.8h11.3c1.7-2 2.3-5.2 4.3-7q2.9-1.3 6.1-2.2l7-2.6c3.7-1.6 7.2-2.5 10.3.9q3 3.2 5.2 7.1c.7 1.1 1.5 3 2.6 3.8H93c2-1.3 4.4-3.5 7-2.2.8.5 1.6 1.7 2.5 2.2h70.9c1.2 0 2.6.2 3.5-.4 1.5-3.9 4-7.4 6-10.8" class="b"/><path d="M9 113.8H17c1.3-.1 3 .3 4.3-.4 1.1-2.4 2.3-5.6 5.2-6.4q5.8-1.9 11.2-4.3c2.4-1 5.2-2.3 7.8-1.4 5.1 2.4 7.1 8.3 10.4 12.5h38c1.5-.4 2.8-1.6 4.4-1.6 1.3 0 2.4 1 3.4 1.6H177c1.2-.8 1.8-2.9 2.6-4l3.5-5.4" class="b"/><path d="M9 112.8h12.2c1.2-1.9 2-4.6 4.3-5.5 3.8-1.4 7.7-2.5 11.3-4.5 2.6-1.2 5.6-3.2 8.6-2.3 5 2 7.6 7.8 10.4 12.1 2.8.4 5.8 0 8.6.2h26.9l5.1-.1q.9-.3 1.8-.3 2.1.4 4.3.4h75.2c.7-.4 1.5-1.6 1.8-2.3l3.5-5.2" class="b"/><path d="M9 111.8h12.2c1.5-1.3 2.2-4 4.3-4.6 3.8-1.3 7.8-2.5 11.3-4.7 2.6-1.4 5.5-3.5 8.6-3 3 .8 5.1 3.6 7 6 1.4 1.9 2.6 4.5 4.3 6.3h122c1.8-1.2 3-3.9 4.3-5.6" class="b"/><path d="M9 110.8H17c1.6-.1 3.6.3 5.1-.3 2-3.4 3.6-3.5 7-4.5q3.7-1.3 6.9-3.3c4-2.5 8.3-6.4 13-2.6 2.4 2 4.3 4.7 6 7.3.8 1 1.4 2.8 2.6 3.4h122.9l2.6-3.7" class="b"/><path d="M9 109.8h13c1.8-2.7 3.1-3 6.1-3.8a25 25 0 0 0 7-3.1c2.8-1.8 5.3-4.4 8.6-5.4 6.7-1.3 10.7 7.3 13.8 12q1.3.5 2.6.3h121.1a7 7 0 0 0 1.7-1.9" class="b"/><path d="M9 108.8h13c1-.9 2.1-2.2 3.5-2.4q3.6-.7 7-2.4c3.4-1.8 6.2-4.8 9.4-6.9 7.9-4.5 13 5.9 16.5 11.3q1.2.5 2.6.4h113.3c2.9-.1 5.8.2 8.7-.2" class="b"/><path d="M9 107.8h13c1.1-.7 2.2-1.8 3.5-2q3.6-.5 7-2.2c3.5-2 6.2-5.2 9.4-7.6 8.3-5.5 13.8 5.6 17.3 11.4q1.3.6 2.6.4H183" class="b"/><path d="M9 106.8h13q1.3-.9 2.6-1.5l2.6-.4q2.8-.5 5.2-1.9c3.7-2.1 6.3-5.6 9.6-8.3 9-6.5 14.3 5.3 18.1 11.7q1.3.6 2.6.4H183" class="b"/><path d="M9 105.8c4.4-.1 8.8.2 13-.1 1.5-1.4 3.4-1.5 5.2-1.7q2.3-.2 4.4-1.3c4.1-2.2 6.9-6.3 10.3-9.4 10-7.6 14.8 5 19 12q1.3.7 2.7.5h119.3" class="b"/><path d="M9 104.8h12.2a8 8 0 0 1 5.2-1.7c2.4 0 5-.9 6.9-2.4 3.3-2.5 5.7-6 8.6-9 2.2-1.9 5.8-3.5 8.7-2.5 5.4 2.4 8.2 10.3 11.2 15.2q.8.5 1.8.4h119.3" class="b"/><path d="M9 103.8h10.4c1.2-.5 2.3-1.4 3.5-1.7 1.4-.5 3-.2 4.3-.3q2.3 0 4.4-1c4.3-2.5 7-7.1 10.3-10.6q1.6-1.6 3.5-2.4c1.6-.7 3.4-1.4 5.2-1 5.7 1.9 9 11.8 12.1 16.7q.9.4 1.7.3H183" class="b"/><path d="M9 102.8h8.7c1.4-.8 2.8-2 4.3-2.3 1.7-.5 3.5-.2 5.2-.1q2.3 0 4.4-1c4.4-2.5 7-7.3 10.3-11q1.9-1.9 4.4-3c1.5-.8 3.5-1.4 5.2-.8 5.6 2.7 8.6 12.8 12 18 1.7.4 3.6 0 5.3.2H183" class="b"/><path d="M9 101.8h7c6.9-6.6 9.4-1.1 15.6-3.8 4.5-2.6 7-7.6 10.3-11.4a15 15 0 0 1 4.4-3.2c1.5-1 3.4-1.8 5.2-1.2 6 2.4 9 14.2 13 19.5 4.8.3 9.8 0 14.6 0h53.7l1.7-.4q1.4 0 2.6.5H183" class="b"/><path d="M9 100.8h4.4c1-.3 1.8-1.5 2.6-2.1a9 9 0 0 1 6-2.5c5.1.3 7.7 2.4 12.2-1.7 3.3-3.1 5.5-7.4 8.6-10.7 1.2-1.2 3-2 4.3-3 4.3-2.9 7.3.2 9.6 3.9 3.2 5 5 11.2 8.6 16 2.3.3 4.7 0 7 .1h57.1c1.2.2 2.3-1 3.4-1.4 2-1.1 4.5-.4 6 1.3q22.1.1 44.2.1" class="b"/><path d="M9 99.8h2.7c1-.5 1.8-1.8 2.6-2.6q1.6-1.6 3.4-2.7c8.5-3.6 11 7.3 20.8-7 1.6-2.1 3.1-4.6 5.2-6.4q2-1.6 4.3-3c3.8-2.4 6.8 1 8.7 4.1q3.1 6 6 12.2c.9 1.7 2 3.8 3.5 5 1 .6 2.3.3 3.4.4h6q2.7-.9 5.3-.3c1.6.6 3.5.2 5.2.3H125c1.4 0 3 .2 4.3-.3 2.3-2 5.8-4.5 8.7-2.1.8.6 1.6 2 2.6 2.4H183" class="b"/><path d="M9 98.8c1.8.3 2.6-1.7 3.5-2.8q1.5-1.9 3.5-3.5c7-5 12 5.2 19-2.4 3.8-3.8 5.8-9.3 10.4-12.2 4.2-3.5 7-4.1 10.4.7 2.4 3.7 4.2 8 6 12 1.2 2.4 2.4 5.1 4.4 7 1.5 1.5 3.2 1.2 5.2 1.2 2.3-.2 4.5-1.6 6.9-1.9 1-.2 2.4 0 3.4.5.8.4 1.7 1.3 2.6 1.4h43.3c2.9-1.8 5.7-6 9.5-4.4 2 .9 2.8 3.2 4.3 4.4H183" class="b"/><path d="M9 97.8c3.3-4.5 7.3-11.7 13.9-9 2.5 1 5 2.4 7.8 2C36.4 89 39 82 42.8 78q1.7-1.5 3.5-2.8c1.2-1 2.7-2 4.3-2.2 8 0 10.5 21 17.3 23.8 3.6 1.3 7-1.7 10.4-2.2 2.9-.6 4.8 1.6 6.9 3.2h41.5c3.3-2.1 6.8-8.1 11.3-5.1 1 .7 2 2 2.6 3 .3.7 1 1.9 1.7 2.1h40.6" class="b"/><path d="M9 95c2.4-3.4 4.7-7.6 8.7-9.3 7.5-1.8 11 8.3 19-1.5 2.1-2.5 4-5.5 6.1-8 1.5-1.5 3.5-2.9 5.2-4.2 4.4-3.1 7.7 2 9.5 5.5 2.8 5 4.4 10.8 7.8 15.4 6.4 7.2 12-6 19 2.2.7.6 1.6 1.6 2.6 1.7h39c.5-.1 1.3-.8 1.7-1.2 6.7-7.1 9.5-8.7 14.7.9 1.5.6 3.6.2 5.2.3H183" class="b"/><path d="M9 92.3c2.9-4 6.2-10.8 12.2-9.4 5.8 2 9.3 6 14.7.3 3.4-3.5 5.4-8.3 9.5-11 2-1.5 4.3-3.7 7-2.6 4.7 2.7 7 10.8 9.4 15.5 1.7 3.5 4 9 8.7 8 2.1-.4 4-1.7 6-2.4 2-.9 4.5-.7 6.1.8s3.1 3.5 5.2 4.3h38.1c3.5-2.8 8-11.1 13-6.4 1.6 1.8 2.7 4.4 4.3 6.3 13.2.3 26.5 0 39.8.1" class="b"/><path d="M9 89.7c3.5-5.1 7.5-12.8 14.8-8.6 2.9 1.5 6.3 3.6 9.5 1.8 4.9-2.7 6.9-8.6 11.2-12 2.4-1.7 5.6-4.9 8.7-2.6 4.4 3.8 6.1 9.9 8.6 14.9 1.7 3.4 4 8.9 8.7 7.8 3.4-.8 6.7-4 10.4-2.6 1.3.6 2.4 2 3.4 3q1.6 1.6 3.5 3c1 .6 2.3.3 3.4.4h30.3c1.4 0 3 .3 4.4-.3 3-2.6 6.7-9.6 11.2-8.3 2.6 1 3.7 4 5.2 6.2.6.8 1.5 2.3 2.6 2.4H183" class="b"/><path d="M9 87.3c3-4.3 6.7-12 13-9.7 4.5 1.8 8.4 5.6 13 1.8 3.7-3 5.7-7.6 9.5-10.4 1.7-1.1 3.3-2.7 5.2-3.2 4.5-.9 6.8 4.7 8.7 8 2.4 4 5 13.3 9.5 14.8 2.7.6 5.3-1.1 7.8-2 2.4-1.1 5.1-.9 7 1.1 1.9 2.3 4 4.7 6.8 6q1.4.2 2.6.1H125c4.3-2.6 8.9-14.8 14.7-7.8 2 2.7 3.5 6.7 7 7.8h36.2" class="b"/><path d="M9 84.9c3-4.3 6.6-12.2 13-10 3.9 1.4 8 5.3 12.1 2.6 4-2.5 6.1-6.9 9.6-9.9 2-1.2 3.8-3 6-3.6 4.5-.8 6.8 4.5 8.7 7.7l4.3 8.8c1.3 2.4 3 5.4 6 5.7 2.8.1 5.3-1.6 7.9-2.2a6 6 0 0 1 6 2c2.8 3.5 6.4 7.2 11.3 6.8q3-.3 6 0H125c3.4-2.9 5.1-7.4 8.7-10.2 3.5-2.9 6.1.4 7.8 3.4q1.6 2.9 4.3 5 1.6 1 3.5 1.7 2 .2 4.3.1H183" class="b"/><path d="M9 82.6c3.2-4.5 7.1-13.1 13.9-10.1 3 1.3 6 4 9.5 3.2 4.2-1.3 6.6-5.5 9.5-8.5q2-1.9 4.4-3.2c5.3-4 8.4-.6 11.2 4.1q2.3 4 4.3 8.3c1.5 2.6 3 6.1 6.1 7 2.7.6 5.3-.9 7.8-1.5 2.6-.7 5.3.3 7 2.4 4.5 5.9 7 7.6 14.6 6.4q1.9 0 3.5.7 1.2.6 2.6.4H125c3.8-3.8 5.5-9.9 10.4-12.6 3.5-1.4 5.3 3 7 5.3q1.9 3 5.1 4.7l4.3 2c1 .7 2.4.6 3.5.6H183" class="b"/><path d="M9 80.4c2.4-3.4 4.5-7.4 7.9-9.9 7.8-5 11.4 9.1 20.7-.6 1.7-1.7 3.4-3.8 5.2-5.4q2.1-1.4 4.3-2.7c4.1-2.5 7.1-.4 9.5 3.1 2 2.8 3.6 6.2 5.2 9.2 1.3 2.3 2.7 5.2 5.2 6.4 2.8 1.2 5.9-.4 8.7-.8 2.7-.6 5.3.8 6.9 3 9.1 12.9 13.3 2.2 19.9 8.1H125c3.1-3.1 8.4-17.7 13.8-13.9 2.1 1.8 3.2 4.8 5.2 6.6 2.1 2.3 5.1 3.5 7.8 5q1.8 1 3.5 2.3h27.6" class="b"/><path d="M9 78.3c2.4-3.4 4.5-7.3 7.9-10 7.8-5.3 11.1 8.9 20.7-.5q2.5-2.6 5.2-5 2.1-1.4 4.3-2.4c4-2.2 7-.5 9.5 2.9 2 2.6 3.6 5.7 5.2 8.5 1.5 2.5 3 5.6 6.1 6.4 2.6.7 5.2-.5 7.8-.7 5.3-.4 7.1 4.8 10.4 7.9 5.4 5 8.5 1 13.8 2 1.3.4 2.3 1.7 3.5 2.4H125q2.8-4.4 5.2-9c1.7-2.7 4.7-9 8.6-6.8 1.5 1 2.5 3 3.5 4.4q1.5 2 3.5 3.7c3.3 2.6 7.8 4 10.3 7.5 1 .4 2.4.2 3.5.2H183" class="b"/><path d="M9 76.3c2.4-3.4 4.6-7.3 7.9-10 7.9-5.6 10.9 8.5 20.7-.4q2.5-2.5 5.2-4.6 2.1-1 4.3-2c4.5-2.3 7.7 0 10.4 3.6q2.3 3.3 4.3 6.8c1.5 2.4 3.1 5.4 6.1 6 2.6.7 5.2-.3 7.8-.2 5.2.2 7.1 5.6 10.4 8.7 4.8 4.4 7.8 1.4 13 1.5 1.8.1 3.1 1.6 4.3 2.9q1.2.4 2.6.2h16.4q1.4.1 2.6-.2c2.2-3.6 4-7.7 6-11.4 1.7-2.8 5-8.9 8.7-5.4 1.3 1.3 2.3 3.3 3.5 4.6q2 2.3 4.3 4c2.3 1.5 5 2.9 7 4.8l1.7 2c.5 1 1.3 1.9 2.6 1.6H183" class="b"/><path d="M9 74.4c2.7-3.6 5-8 8.7-10.4 7.2-4.1 10 7.6 19 .8 2-1.5 4-3.4 6.1-4.8q1.7-.7 3.5-1.3c4.8-2.2 8-1.1 11.2 2.9q2.8 3.6 5.2 7.5c1.8 2.9 4.2 5 7.8 4.6 2.3-.1 4.7-.5 7 .4 4.7 1.9 6 7.8 10.3 10.3 4.6 2.9 8.8-1.6 13 .4 1.2.8 2.2 2.3 3.4 3h20c3.5-2.6 8-20.5 13.8-20 2 .5 3 2.9 4.3 4.4q1.6 2 3.5 3.8c4.7 3.8 9 5.8 12 11.6q1.8.4 3.5.2H183" class="b"/><path d="M9 72.5c2.7-3.5 5-7.7 8.7-10.2 7.2-4.2 9.7 7.4 19 1 2.3-1.5 4.4-3.6 7-4.6l3.4-1c4.8-1.8 8.2 0 11.3 3.8 2.4 2.7 4.2 6.2 6.9 8.7 1.7 1.4 4 1.6 6 1.5s4.3 0 6.1.9c4.7 2.3 6 8.2 10.4 10.8 4.5 2.8 8.8-1.9 13 .3 1.3.7 2.2 2.3 3.4 3.1h20c3.6-4.2 8-21.5 13.8-21.7 2 .3 3.1 2.6 4.3 4a34 34 0 0 0 3.5 4c5.9 5 9 6.4 13 13.7H183" class="b"/><path d="M9 70.8c2.5-3.2 4.7-6.8 7.9-9.3 7.5-5.7 9.8 6 19 1 2.6-1.3 4.9-3.6 7.8-4.4l3.4-.6c5.9-2 9.4.5 13 5 3.2 3.6 4.8 7.7 10.4 7.4 2.3 0 4.9 0 7 1.3 4.8 2.8 6 9.5 11.2 11.8 4 1.7 8.2-2.4 12-.3 1.4.7 2.2 2.4 3.5 3.1h20c3.1-4.8 8.3-23.3 13.8-23.5 2 .2 3.1 2.5 4.3 4l3.5 3.9c2.8 2.8 6 5.2 8.6 8.2q2 2.4 3.5 5c.2.7 1 2.1 1.7 2.4H183" class="b"/><path d="M9 69.1c2.5-3 4.7-6.5 7.9-9 7.6-5.5 9.5 5.9 19 1.4 2.3-1 4.5-2.7 6.9-3.5q1.3-.2 2.6-.2l4.3-.8c6.7-1.2 10.8 5.1 14.7 9.4 2.3 2.2 5.7 1.8 8.7 2 7.6 1 8.9 8.7 13.8 12.8 3.3 2.6 6.9.9 10.4.1 2.7-.5 4.6 1.3 6 3.3q1.4.3 2.7.2h17.3c.7-.3 1.4-1.7 1.7-2.3l2.6-6c2.2-4.7 5-14.2 9.5-16.7 1.9-.7 3.4 1 4.4 2.4l3.4 4.3c2.8 3 6 5.8 8.7 9 2.5 2.7 4.2 6.2 6 9.3H183" class="b"/><path d="M9 67.5c2.8-3 5.2-6.8 8.7-9 7-3.9 8.7 6 18.2 2.2 2.5-1 5-2.7 7.8-2.8q2.6.3 5.2-.4c8.5-1.6 11 3.7 16.4 8.4 2.3 1.5 5.2 1 7.8 1.3 8 1.3 9 10.3 14.7 14 3.3 2 7-.4 10.4-.6 2.3 0 3.7 1.8 5.2 3.2h19.9c4.3-6.2 7.8-22.8 13.8-26.4 1.8-.8 3.4.8 4.3 2.2q1.7 2.2 3.5 4.3c2.8 3.3 6 6.4 8.7 9.7a46 46 0 0 1 6 10.1c2.8.4 5.8 0 8.7.1H183" class="b"/><path d="M9 66c2.8-2.9 5.2-6.4 8.7-8.4 7.1-3.6 8.5 5.8 18.2 2.6 2.3-.6 4.5-1.8 6.9-2q1.3 0 2.6.2 2.2 0 4.3-.4c4.8-1 8.8.7 12.1 4 1.4 1.2 2.6 2.9 4.4 3.5 2.4.9 5.2.2 7.8.9 7.6 2.1 8.4 11.8 14.7 14.6 2.8 1.2 5.8-.4 8.6-.8 2-.3 4 .9 5.2 2.5 1.4.3 3 0 4.3.1h13c1.1 0 2.5.3 3.5-.4 4.5-8.4 6.3-18.3 12-26 2.3-2.5 4.4-1.8 6.2.7l3.4 4.4c5.4 6.5 11.4 12.9 14.7 20.8l.9.5H183" class="b"/><path d="M9 64.6c4-3.7 8.7-10.8 14.8-7.7 5.8 4.2 8.8 4.3 15.5 2.2q1.8-.5 3.5-.5c1.4.1 2.9.7 4.3.5 4.1-.4 8.4-1.4 12.1.9 2.3 1 4 3.3 6.1 4.7 3.7 1.6 7.5-.5 11.3 2.1 5.5 3.5 6.7 12.3 13 14 3.4 1 6.9-1.9 10.3-.5.8.3 1.7 1.3 2.6 1.5h20c4.7-7.8 6.5-17.2 11.2-25.1 4.4-7.2 6.5-3.4 10.3 1.5q5.4 6.7 10.4 13.7l3.5 5.7c.7 1.2 1.3 3.5 2.6 4.2H183" class="b"/><path d="M9 63.2c4-3.5 9-9.8 14.8-6.7 2.1 1.4 4.3 3 6.9 3.5 3.5.8 7-.5 10.4-.7 2-.3 4 .9 6 .8 2.9 0 5.8-1 8.7-.7 3.4.2 6.2 2.4 8.6 4.6 3.8 2.5 8-.7 12.1 2.3 5.6 3.5 6.8 12.2 13 14.1 3.5 1 7-1.7 10.4-.3q1.6 1 3.5.7h18.1c4.6-3.5 9.8-29 16.5-30 2-.1 3.2 2 4.3 3.3l5.2 6.9q4.6 6 8.6 12.6c.9 1.4 2 3.4 2.6 4.8l1 1.8.8.6H183" class="b"/><path d="M9 62c4-3 8.5-8.3 13.9-6.1 1.5.6 2.9 1.9 4.3 2.6q2.4 1.4 5.2 1.7c3.7.5 7.6-1 11.3.2 4.1 2 8.6-.4 13 0q2.8.2 5.1 1.8c1.2.8 2.2 2 3.5 2.6 3.8 1.2 7.4-1.5 11.2 1.1C82 69.3 83 77 88.7 79.8h6l2.6-.3 2.6.3h21.6c4.2-6.7 6.2-14.7 9.6-21.8 1.5-2.9 3.8-9.3 7.8-8.8 1.9.7 3 2.8 4.3 4.3 6 8.3 12 16.7 16.4 26 1 .6 2.4.3 3.5.4H183" class="b"/><path d="M9 60.8c3.8-2.6 8-6.8 13-5.3 2 .5 3.5 2 5.2 3q3.3 1.8 7 2c3.1.3 6.4-.2 9.5.9 3.2 1.8 7 .7 10.4.2 3-.5 6.2 0 8.6 1.9 1 .8 2.2 1.8 3.5 2 2.8.3 5.7-1.4 8.6-.5 6.6 2 7.5 10.5 13 13.9h32.9c2.5-2.6 3.7-6.7 5.1-10 2.7-6.2 4.7-13.1 8.7-18.7 2.2-2.8 4.6-3.3 7-.2q2.6 3.4 5.1 7.1c4.6 7 9.3 14.2 13 21.8h23.3" class="b"/><path d="M9 59.8c3.7-2.3 7.6-5.7 12.2-4.7 2.3.5 4 2.2 6 3.4q3.7 2 7.8 2.5c2.6.4 5.3.3 7.8 1.1 3.6 1.8 5.6 1.8 9.5 1 3.5-.8 7.5-1 10.4 1.3 1 .8 2.2 1.8 3.5 1.9 3.2 0 6.3-2.3 9.5-1.1 5.6 2.2 6.8 9.1 11.2 12.7h29.5q2.1.1 4.3-.2c5.5-8.6 7.5-19 13-27.6 2.2-3.2 5-4.8 7.8-1.1q2.8 3.4 5.1 7.3 4.6 6.8 8.7 14c1.5 2.4 2.7 5.3 4.3 7.6H183" class="b"/><path d="M9 58.8c4.6-2.7 9.6-5.9 14.8-2.6q3 2 6 3.7c3.5 1.7 7.5 1.9 11.3 2.7q2.2.6 4.3 1.6c3.4 1.2 7-.2 10.4-.5 2.8-.3 5.7.6 7.8 2.5 3.7 3.3 8-2.1 12-1 5.4 1.5 6.9 7.8 10.5 11.3 1.3.6 3 .3 4.3.3h29.4c2.5-2.4 3.7-6.2 5.2-9.2 2-4.6 3.8-9.6 6-14.1 6-11.5 9-8.3 14.8.8a414 414 0 0 1 12.1 20.3l.9 1.7.8.6H183" class="b"/><path d="M9 58c6-3.3 10.6-5.5 16.5-.7q5 3.8 11.3 5 3 .7 6 1.7c1.6.7 3.4 1.7 5.2 1.7 4 0 8.2-1.8 12.1-.4q1.9.8 3.5 2c2.3 2.3 5.4.3 7.8-.9 8-4.2 10.2 5 14.7 9.5h33.7c5-7.8 7.6-17 12.1-25 5.9-10 9.4-3.4 13.9 3.2q6.7 10.6 13 21.8H183" class="b"/><path d="M9 57.4c4.4-2.4 9.1-4.8 13.9-2 1.8.9 3.5 2.4 5.2 3.4a40 40 0 0 0 11.2 4.6q2.8.7 5.2 2.2c3.2 1.7 7 .6 10.4.3q3.2-.3 6 .8 2 1 3.5 2.4c3.1 1.4 6-1.7 8.7-2.8 5.4-2.5 8.6 3.2 11.2 7 .3.5 1.2 1.4 1.8 1.6h32.8c.7-.4 1.5-1.7 1.8-2.3l2.6-4.7c2.6-5.4 4.8-11.3 7.8-16.5 6-10.6 9.7-4.7 14.7 2.7A407 407 0 0 1 157 72.7l.9 1.6.9.6H183" class="b"/><path d="M9 56.8c8-4.4 11-4.6 18.2 1.1q5.2 3.5 11.3 5.4 2.2.8 4.3 1.8 1.6 1 3.5 1.8c5 1.4 10.8-2 15.5 1.1q1.4 1 2.6 2c3.2 1.5 6-1.7 8.7-3 6.2-3.2 8.8 2.9 12.1 6.8q16.9.2 33.7 0c4.3-7 7.3-14.8 11.3-22 5.7-9.7 9.4-6.8 14.7 1.1 4.7 6.8 8.5 14.1 13 21h25" class="b"/><path d="M9 56.4c8-4.8 11-4.8 18.2 1a52 52 0 0 0 11.3 5.9l4.3 2q1.6 1.2 3.5 2c5.5 1.9 11.3-2 16.4 2 5.3 5.8 9.7-4 15.6-2.5 3.2.8 4.5 4.3 6.9 6h32.9c1-.9 1.8-2.8 2.6-4 3-5.4 5.5-11.4 8.6-16.8 6-10 10-7 15.6 1.2q6.4 9.5 12.1 19.5c1 .3 2.4.1 3.5.2H183" class="b"/><path d="M9 56c7.2-4.7 10.6-5.4 17.4.3q5.2 3.8 11.2 6.3a42 42 0 0 1 5.2 2.7q1.6 1.2 3.5 2.3c5 2 10.8-1.4 15.5 1.7 3 2.3 4 3.7 7.8 1.5 6.5-4.1 9.3-6 14.7.9 2 .4 4.1 0 6 .2H112c2-.1 4.2.2 6-.2q3.7-6.7 7-13.3c2-3.7 3.9-7.9 7-10.9 5.5-5.5 10.7 3 13.8 7.1a241 241 0 0 1 9.5 15c.3.6 1.1 2 1.7 2.3h26" class="b"/><path d="M9 55.6c4.5-3.1 8.7-6 13.9-2.5 2 1.4 4 3.2 6 4.4 3.6 2.3 7.6 3.8 11.3 5.9 2.2 1.1 4 3 6 4.2 6.2 2.8 11.2-1.9 17.4 3.3h6.9c2.1-.7 3.9-2.5 6-3 3.9-1.2 5.2 1 7.8 3h33c1.4-1.6 2.3-4.1 3.4-6 3-5.5 5.4-11.7 9.5-16.6 5.2-6.3 10.2-.4 13.8 4.2q6.6 8.8 12.1 18.4H183" class="b"/><path d="M9 55.2c6.4-5 10-6.7 16.5-.8q4 3.2 8.7 5.2a46 46 0 0 1 7.7 4.3c3.7 3 5.2 5 10.4 4.7 2.3 0 4.7-.4 7 .2q1.3.4 2.5 1h3.5q4.4 0 8.7 0c3.1-2 6.5-2.9 9.5 0h29.4c1.4 0 3 .3 4.3-.2q3.6-6.6 7-13.3c2.2-4 4.2-9 8.6-10.9 5.8-2 13.5 10.2 16.4 14.3q2.3 3.2 4.4 6.7c.7 1 1.4 2.8 2.6 3.5H183" class="b"/><path d="M9 54.8c3.8-3.1 8-7 13-3.7 1.9 1.1 3.5 2.8 5.2 4 5 3.4 11.1 4.6 15.6 8.7 4 4.2 6.3 5.1 12.1 4.7 2.3-.2 4.6.5 7 .4h12l3.5-.1a8 8 0 0 1 2.6-.6c.4 0 1.3.1 1.7.3a3 3 0 0 0 1.8.4h32.8c4.6-5.6 9-21.1 15.6-24 7.1-2.8 20 18.4 23.4 23.8 1.3.3 2.9.1 4.3.2H183" class="b"/><path d="M9 54.4c3.8-3.4 8-7.6 13-4 2.1 1.3 3.9 3.4 6.1 4.6 2.7 1.6 5.8 2.5 8.6 3.8q4 1.7 7 4.9c1.7 2 4 4.3 6.9 4.2h58.8c2.3-.1 4.7.2 7-.2q3.6-6.6 6.9-13.4c2.1-3.7 5.1-11 10.3-10.4 2.9.6 4.9 3 7 5 6 5.3 10.2 12.4 14.7 19H183" class="b"/><path d="M9 53.9c5.6-5.6 9.1-8.5 15.6-2.1q2.7 2.5 6 3.7c5 1.6 9.6 2.8 13 7 1.6 1.8 3.5 4.5 6.1 4.4h65.8c5-4.8 9.2-23 16.4-24 3.7 0 6.1 3.5 8.7 5.7 6 5 10.1 12 14.7 18.3H183" class="b"/><path d="M9 53.3c4.8-5 8.6-9 14.8-3 1.9 2 4.2 3.8 6.9 4.4 6.2 1.4 10 2.2 13.8 7.7q1.5 2 3.5 3.3c1.4.3 3 .1 4.3.2h63.2c3.1-4.5 5.3-9.8 7.8-14.7 2.5-5 6.8-13.1 13-7.3 1.4 1.3 2.8 3 4.3 4.2q2.8 2.4 5.2 5c3.6 3.9 6.3 8.6 9.5 12.8H183" class="b"/><path d="M9 52.7c3.2-3.4 7.2-8.7 12.2-5.1 1.9 1.2 3.4 3.2 5.2 4.5 5 3.5 10.7.7 15.5 5.8 2.2 2 3.6 5 6 6.8 2.6.4 5.3 0 7.9.2h57.9c.5 0 1.4-.2 1.8-.4l.8-1.3c3.1-4.7 5.3-10 7.8-15 3.3-6 7-10.8 13-4.2 2.6 3 6 5.3 8.7 8.2 3.6 3.8 6.5 8.4 9.5 12.7H183" class="b"/><path d="M9 52c5-5.8 8.5-9.6 14.8-2.8 1.6 1.8 3.6 3.5 6 3.8 2 .3 4.1 0 6 .3 4.5.3 7.4 4 9.6 7.5 2.7 3.4 2.7 3.2 7 3h62.3c3.5-3.6 5.5-8.8 7.7-13.4 2.7-5.5 7-15.4 13.9-8.2q2 2.3 4.3 4.4 2.8 2.1 5.2 4.6 5.3 5.7 9.5 12.5c1.4.3 3 .1 4.3.2H183" class="b"/><path d="M9 51.1c6.7-8.2 9.4-8.6 16.5-.6 1.8 1.8 4.5 2 7 1.7 5-.8 8.3.2 11.2 4.6 1.4 2.1 2.9 4.8 5.2 6.1h65.7c5.2-5.8 7.2-13.6 11.3-20 4.7-7.4 8.3-4.2 13 1q2 2 4.3 3.7 2.8 2.4 5.2 5.2 2.8 3.3 5.2 6.9c.7 1 1.4 2.6 2.6 3.2H183" class="b"/><path d="M9 50.2c7-8.6 9.5-8 16.5 0 1.8 1.7 4.6 1.8 7 1.1C43 48.2 42.6 56.7 48.8 62h62.3c1 0 2.4.2 3.4-.3 6.4-6 9.1-21 15.6-24 4.2-1.1 6.8 3.7 9.5 6.1 2.6 2.2 5.5 4.2 7.8 6.7 3.3 3.5 5.8 7.7 8.6 11.5H183" class="b"/><path d="M9 49.2c7.2-9 9.7-7.2 16.5.6 1.9 1.9 4.7 1.6 7 .7 10.4-4.4 10.4 4.9 16.4 10.3q17.2.2 34.6 0h30.2c7-4 10.1-23 17.3-24.5 3.9-.1 6.1 4 8.7 6.2 2.2 2 4.9 3.6 7 5.7 3.6 3.7 6.5 8.1 9.4 12.4 1 .5 2.4.3 3.5.3H183" class="b"/><path d="M9 48c7.5-9.3 10-5.9 16.5 1.6 1.9 1.9 4.8 1.3 7 .2 10.4-5.5 10.6 4.4 16.4 10 21.6.3 43.2 0 64.8 0 7.6-4.7 10-22.3 17.3-24.5 3.9-.3 6.2 3.8 8.7 6 3.3 2.7 6.9 5 9.5 8.4a84 84 0 0 1 5.2 7c.7 1 1.5 2.6 2.6 3.2h26" class="b"/><path d="M9 46.8c7.7-9.4 10.3-4.4 16.5 2.6 2 2 4.8 1 7-.1 10.4-6.5 10.6 4 16.4 9.6h64.8c8-5.5 9.1-19.5 16.5-24.2 4-1.6 6.9 3.2 9.5 5.5 2.9 2.4 6.2 4.5 8.7 7.4 3.2 3.4 5.6 7.7 8.6 11.3h26" class="b"/><path d="M9 45.5c7.8-9.2 10.7-2.7 16.5 3.8 2.3 2.2 5.5.5 7.8-1 10-6.3 10 5.2 15.6 9.6h53.6c3.7-.1 7.6.2 11.3-.1 8.1-5.3 9-18.7 16.4-23.8 4-1.8 7 3 9.5 5.2 2.9 2.4 6.2 4.6 8.7 7.5 3.2 3.4 5.6 7.6 8.6 11.2h26" class="b"/><path d="M9 44c8-8.7 11-.8 16.5 5 1.7 1.7 4.2 1.2 6 .1 2-1 4-2.5 6.1-3 5.6-.5 7.2 7.5 10.4 10.8h61.5c1.3 0 3 .3 4.3-.3 8.2-5 8.9-18 16.4-23.2 3.5-1.8 6.4 2 8.6 4.2 3 3 6.8 5.2 9.6 8.4q2.8 3.2 5.2 6.6c1 1.3 2 3.2 3.4 4.3h26" class="b"/><path d="M9 42.7c5.5-5.5 8.8-3.8 13 1.7 1.7 2 3.2 5 6.1 5.3 3.5-.1 6.1-3.2 9.5-3.7 4-.5 6.1 3.9 7.8 6.8.7 1 1.4 2.7 2.6 3.1h55.4c3.1-.1 6.4.2 9.5-.2 9.1-4.2 9.6-17.6 17.3-23 4.8-2.3 8.4 5 12.1 7.2q5.4 4.2 9.5 9.7l3.5 4.6.9 1.2.8.5h26" class="b"/><path d="M9 41.3c7.4-6.7 10.9 0 15.6 5.5q3 3.2 7 1.2c3.4-1.6 7.1-3.8 10.3-.5 2.1 2.1 3.2 5.2 5.2 7.4h60.6c5 .5 8.5-1.8 11.2-5.8 3.5-4.1 8-20 14.7-17.3 2.5 1.2 4.2 3.5 6.1 5.3 2.2 2.1 4.8 4 7 6.1q3.6 3.9 6.8 8c1.1 1.2 2 3.2 3.5 3.7h16.4c3.2-.1 6.4.2 9.6-.2" class="b"/><path d="M9 40c7.4-5.7 10.9.5 15.6 5.6a6 6 0 0 0 6 1.9c2-.5 4-1.5 6.1-1.8 5-.6 7.2 4.6 9.6 7.9 1.3.6 3 .2 4.3.3h51q1.8-.7 3.5-.7c2.6 0 5.3.4 7.8-.4 7-2.8 9-11.2 13-17 5.1-8.2 8.6-5.2 13.8.8 2.5 2.4 5.4 4.5 7.8 7q4.4 5 8.7 10c1.6.6 3.5.2 5.2.3h18.1c1.1 0 2.4-.6 3.5-.6" class="b"/><path d="M9 38.9c7.3-4.8 10.8.6 15.6 5.4a7 7 0 0 0 6 2.1c4.8-.8 8.6-2 12.2 2.2 1.2 1.3 2 3.3 3.5 4.3h45c2.8-.1 5.8.4 8.6-.3q2.2-.8 4.3-1.1c2.9-.1 5.9.6 8.7-.2 6.5-2.3 8.8-9.7 12-15 5.4-9 8.7-7.5 14.8-.3 2.5 2.5 5.4 4.8 7.8 7.3q4.4 4.7 8.6 9.4c1.7.5 3.6.1 5.2.2h8.7q4.8.2 9.5 0 1.6-.8 3.5-1" class="b"/><path d="M9 37.8c7.2-3.7 10.6.4 15.6 5a9 9 0 0 0 6 2.4c7.7-.2 10.2.2 14.8 6.7h38q2.7 0 5.3-.2h6a26 26 0 0 0 5.2-1c1.4-.3 2.9-1 4.3-1 2.9 0 5.9.8 8.7 0 7-2.3 9.1-10.3 13-15.8 2.3-3.5 5.5-6.6 9.5-3 1.9 1.6 3.5 3.7 5.2 5.5l7.8 7.5 5.2 5.3c1.2 1.1 2.4 3 4.3 2.7h19c.8 0 2 .1 2.6-.4q1.7-.6 3.5-.8" class="b"/><path d="M9 36.8c9.2-3.3 11.3 2.2 18.2 6 4.5 2 9.9 1.4 13.9 4.5q1.4 1 2.6 2.3.6 1 1.7 1.3h38.1c1 0 2.4 0 3.4-.3q2.2-.3 4.3-.3 5.3 0 10.4-1.8c2.2-.8 4.7-.4 7-.1 13.3 1.8 13.7-17 22.4-19.9 4.3-.3 6.8 4.8 9.6 7.4L150.9 46l3.5 3.1c.7.6 1.7 1.6 2.6 1.7h20.7c.5 0 1.4-.3 1.8-.6q1.6-.6 3.4-.7" class="b"/><path d="M9 36c8.1-2 11 .6 17.4 4.6 4 2.4 8.9 3.3 13 5.6q1.8 1.1 3.4 2.5.8.8 1.7 1.2h40.7l1.7-.5c3.1-.5 6.4-.3 9.5-1 2.3-.6 4.6-1.6 7-2q2.5.1 5.1.5c13.4 2 13.8-16.5 22.5-19.2 4.3-.2 6.9 5 9.6 7.7q5.4 5.7 11.2 11c1.6 1.2 3.3 2.8 5.2 3.5h20.8c.4 0 1.3-.3 1.7-.6q1.7-.7 3.5-.7" class="b"/><path d="M9 35.2c3.8-.3 7.7-.6 11.3.7q4 1.7 7.8 4 4.8 2.5 9.5 5.3c7.9 4.7 3.5 3.6 13 3.7H80c1.4 0 3 .2 4.4-.2 2.7-1.2 5.7-.9 8.6-1.2q4-.6 7.8-2c4-1.5 8 .7 12.1 0 9.1-1.9 10.7-16.6 18.2-18.6 4.3 0 6.8 5.2 9.5 8q4.9 5.3 10.4 10.2a25 25 0 0 0 6 3.8h20.8c.5 0 1.4-.3 1.7-.5q1.7-.7 3.5-.7" class="b"/><path d="M9 34.5q4 .3 7.9.2c8.2 0 13.6 5.2 19.9 9.6 6.5 4.6 4.3 3.5 12 3.6h33c1.1.2 2.2-.9 3.4-1 2-.6 4-.5 6-.6q3.1-.2 6.1-1c2-.6 4-1.5 6-1.7 3.8 0 7.7 1.7 11.3.1 7.5-3.2 8.8-14 15.6-17.4 4.3-1.1 7 4.2 9.5 6.9q4.4 5.3 9.5 9.9c6.8 5.7 9.2 4.8 17.3 4.8h12.1q2.2-.9 4.4-1" class="b"/><path d="M9 34c3.2.8 6.4.5 9.6.3q3.5-.3 6.9.8c4 1.9 7 5.4 10.4 8.1C41.5 47.8 40.2 47 47 47h34.6c1.8-1.8 4.6-2 7-2q3.4.1 6.9-.5c2.6-.5 5.1-1.7 7.8-2 3.4 0 7 1.6 10.3.6 8.2-2.6 9.5-14 16.5-17.5 4.8-1.5 9 7.1 12 10 4.1 4.5 8.5 9.9 14.8 10.8 1.4.3 3 0 4.3 0l1.8.6h16.4q1.7-.8 3.5-.6" class="b"/><path d="M9 33.5c3.4 1.4 7 1 10.4.2 2-.4 4.2-.7 6.1 0 3.5 1.4 6 4.7 8.7 7.3 1.8 1.7 3.6 4 6 5h9.5c1.6-.8 3.4-1.6 5.2-1.1q1.3.5 2.6 1h17.3q3 .2 6-.1c3.2-4.2 8.8-1.6 13-2.3 3.3-.2 6.4-1.8 9.6-2 3.2 0 6.3 1.4 9.5.7 8.6-1.9 9.9-12.6 16.4-17.2 4.7-2.4 8 3.7 10.4 6.7q4 5.1 8.7 9.6c4.4 3.8 7.4 4.1 13 3.3 1.1.1 2.4.8 3.4 1.3h6q6.2.1 12.2-.2" class="b"/><path d="M9 33.1c7.7 4.3 12.8-3.6 18.2 0 3.4 2.5 5.8 6.1 8.7 9 1 1 2 2.4 3.4 2.8H48c1.2-.4 2.3-1.6 3.5-2.2 3-1.9 5.8-.2 7.8 2.2h19.9c.6 0 1.3-.9 1.7-1.4q1.4-1.6 3.4-1.9c2.3-.2 4.7.5 7 .7 3.2.5 6.4-.4 9.5-1.2 2.8-.8 5.8.1 8.6.5 6 1 10.3-4 13-8.6 2.3-3.2 5.5-10.6 10.4-9.2 3 1.3 5 4.5 7 7 3.1 4 6.1 8.2 10.3 11.1 4.2 2.7 6.8 1.8 11.2.9q1.9.2 3.5 1.4c.3.3 1.3.7 1.7.7H183" class="b"/><path d="M9 32.8c7.5 4.8 10.7-2 16.5-1.6 5 1.7 8.4 9.8 13 12.7H47c1.7-.9 2.8-2.7 4.4-3.8 4.1-3.2 7 .8 9.5 3.8h17.3c1.3-.8 2.2-2.6 3.4-3.5 3.3-2.3 8.4 1 12.1 1 3.3.3 6.4-1.1 9.6-1.2 3.4.2 7 1.6 10.3.5 8.4-2.7 10.4-16 17.3-18 4.7-.3 7.7 6.3 10.4 9.3 3.7 4.3 7.5 10.6 13.9 10.5 2 0 4-1.2 6-1.6 2.4 0 4 2.3 6 3H183" class="b"/><path d="M9 32.5c8 6.3 11.7-3.7 17.4-2 2.1 1.1 3.7 3.3 5.2 5 1.8 2.5 3.7 5.2 6 7.3 2.8.3 5.8 0 8.7.1 1-.2 1.8-1.7 2.6-2.5 1.2-1.5 2.6-3.2 4.3-4 2.9-1.5 5.4 1.4 7 3.5 1.5 2 1.3 3.3 4.2 3h13c5-6.4 5.4-6.5 13-3.4q3 1.2 6 1.2c2.4 0 4.7-.8 7-.8 2.9.2 5.7 1.2 8.6.8 9.5-1.6 11-14.4 18.2-18.6 4.4-1.6 7.2 3.7 9.5 6.5 4.3 5 9.4 14.9 17.3 12.2 2.6-.7 4.3-2.6 7-.8 4 2.8 2.2 3 7.7 3H183" class="b"/><path d="M9 32.2c8.5 7.9 12.4-5.4 18.2-1.8 4.2 3 6.2 8.5 10.4 11.5h8.7c2.7-3 6.2-11.7 11.2-7.9 2.6 2.1 4 5.4 6 8h7.9c1.6-.2 3.5.2 5.2-.3 1.8-2.2 3.3-5.2 6-6.3 2.5-.4 4.8 1.3 7 2.4 2.3 1.3 5 2.4 7.7 2.4l5.2-.3q2.6.1 5.2.5c5.7 1.1 9.9-2 13-6.5 5.2-7.4 9.4-20.6 18.2-7.8q3.3 4.6 6.9 9c2.8 3.3 6.7 6.2 11.2 4.2 1.5-.5 2.9-1.5 4.4-1.9 2.8.1 4.8 3 6.9 4.5H183" class="b"/><path d="M9 32c8.6 8.9 12.4-5.5 18.2-2 3.9 2.9 6 7.5 9.6 10.8 2.8.4 5.8 0 8.6.1 1.1-.6 1.9-2.2 2.6-3.3q1.5-2.6 3.5-5c5.6-7 9.8 4.3 13 8 1.2.6 2.9.2 4.3.3h6c2.6-2.1 4-5.6 7-7.4 2.8-1.2 5.5 1.5 7.7 3q2.9 2.1 6.1 3.2c2.2.7 4.6.5 7 .3q2 0 4.3.4c11.5 2.4 15.1-10.6 20.7-17.8 3.8-4.8 7-3.4 10.4.9l6 8c2.7 3.4 6.3 8.2 11.3 7q2.3-.7 4.3-2 2.2-1.4 4.4 0l3.4 3.2c.3.4 1.2 1.1 1.8 1.2H183" class="b"/><path d="M9 31.6c8.7 9.9 12.3-5 18.2-1.7 3.9 2.6 5.8 7.4 9.6 10q4.3.2 8.6 0c3.4-4 7.6-17.8 13.8-9.5 2.5 3 4 7 7 9.6H73c1-.3 1.9-1.5 2.6-2.3 1.9-2.1 3.5-5 6-6.4 3.4-1.4 7.7 4.4 10.4 6 3.8 3 5 2.7 9.5 2.6H113c2.3.1 4.6-2.7 6-4.3 2.4-3 4.2-6.5 6.1-9.7 2-3.5 5.6-10 10.4-6.7 4.5 3.9 7.3 9.4 11.2 13.8 2.7 3.2 6.3 5.4 10.4 3.3 1.5-.6 2.8-1.8 4.3-2.2 3.5.1 5.4 4 7.8 5.8H183" class="b"/><path d="M9 31.2c8.7 10.8 12.2-4 18.2-1 3.5 2.2 5.6 6 8.7 8.7h8.6c1.2-.6 2-2.3 2.6-3.3q2-3.8 4.4-7.3c5.5-8 9.7 3.8 13 7.7.8 1 2 2.6 3.4 3 1.7-.2 3.8.4 5.2-.9 3-2.4 4.8-6 7.8-8.4 3-2.2 5.8 1.6 7.8 3.5q2.7 3.2 6 5.7 10.5.2 20.8 0c3-2.1 5-5.6 7-8.7 2.3-3.8 6.4-15.2 12-13.2 2.2 1 3.8 3.1 5.2 5 3 3.5 5.3 7.7 8.7 11 4.1 4 7.8 2.5 12-.3 3.4-1.4 6.6 4 8.7 6 1.7.5 3.5.1 5.2.2h8.7" class="b"/><path d="M9 30.7c8.3 11 11.6-1 17.4-.2 3.6 1.3 5.7 5 8.6 7.3q4.8.3 9.5.1c3.3-3 6.8-16 12.1-13.8 3.7 2.2 5.2 6.8 7.8 10 2.3 3.2 5.3 5 8.7 2.1 2.9-2.4 4.8-6.1 7.8-8.4 2.7-2 5.2 1.4 6.9 3.2 2 2.3 3.8 5 6 7h21.7c2.1.2 3.2-2.4 4.3-3.8 2.3-3.4 4.1-7.4 6-11 2.2-4 6.2-11.4 11.3-6.5 3 3 5.3 6.6 7.8 10 1.7 2.3 3.6 4.7 6 6.2 2.5 1.4 5.6.6 7.9-.8 1-.6 2.2-1.5 3.4-1.2 3.4 1.2 5 5 7.8 7h13" class="b"/><path d="M9 30.2c8.4 11.4 11.4.7 17.4 1.2 3 1 5.2 3.8 7.8 5.6H41c1-.1 2.5.2 3.4-.5 3.3-3 7.3-17.6 13-13.4 3.3 2.9 4.9 7.3 7.8 10.6 5.6 6.5 10.3-2.5 13.8-6.4 2-2.1 3.8-3 6.1-.7s4.1 5.1 6 7.7c2.3 3.4 2.3 2.6 6.1 2.7h20c1-.6 1.8-2.1 2.5-3.1a75 75 0 0 0 4.4-8c2.1-3.9 6.1-15.3 12-11.8 5.5 4 8 11 13 15.5 2.4 2.3 5.7 3 8.7 1.5 1.1-.5 2.3-1.4 3.5-1.7 3.4.2 6.2 5.3 8.6 7.5h13" class="b"/><path d="M9 29.6c2.2 3 5.4 7 9.6 5.8 1.8-.6 3.5-1.7 5.2-2.5 2.8-1.3 5.5.9 7.8 2.4.9.8 2.3.7 3.4.6h7.8q1-.1 1.7-1c3.1-3.6 4.6-8.6 7.8-12.2C59 16 62.4 32.3 68 34.1c3.9 1.3 6.5-3 8.6-5.6 1.7-1.9 4-6.3 7-5.2 1.8 1 3.1 2.8 4.3 4.5q2.5 3.9 5.2 7.8c1.3.6 3 .2 4.3.3h6c5 0 10 .3 14.8 0a79 79 0 0 0 7-12.7c2.3-4.5 6.5-15.5 12.9-9.6 4.3 4.1 7 9.8 11.2 14 2.3 2.2 5.6 3.4 8.7 2.1 1.1-.4 2.3-1.2 3.5-1.4 3.4.3 6.1 5.2 8.6 7.4 1.6.5 3.5.2 5.2.3h7.8" class="b"/><path d="M9 29c1.5 2 3.2 4.3 5.3 5.6 1 .5 2.3.3 3.4.3h3.5c1.3-.4 2.8-1.2 4.3-1.2 1.9-.1 3.5 1.1 5.2 1.2q6 .2 12.1 0c3.7-2.7 5.3-7.4 7.8-11 5.6-8.9 9.4-.7 13 4.6 2.5 3.7 5.7 6.1 9.5 2.3 3.1-3 4.9-7.6 8.6-9.8 3.6-.9 7 6.6 8.7 9 1 1.6 1.8 4 3.4 5h24.3q4.3-7 7.8-14.6c3-5.9 7.2-14.5 13.8-6.7 4 4.2 6.6 9.8 11.3 13.4a8 8 0 0 0 7.7 1.1c1.5-.6 2.9-1.3 4.4-.3 2.7 1.7 4.6 4.6 6.9 6.7 1.6.7 3.5.2 5.2.3h7.8" class="b"/><path d="M9 28.5c1.6 1.9 3 4.4 5.3 5.5h12l15.6-.1c5.8-3.3 6.8-11 12.1-14.6 6.7-2.6 9 12.7 15.6 12 4.1-1.3 6.1-6 8.7-9.1 2.6-3.5 4.6-5 7.8-1 3 4 4.9 8.8 7.7 12.7h20.8q1.7.2 3.5-.2c3.3-5 5.8-10.8 8.6-16.2 3.6-6.5 7.5-11.8 13.9-4.4 3.8 4.1 6.6 9.4 11.2 12.7 2 1.4 4.6 2 7 1.4 1.4-.5 2.8-1 4.2-.1 2.7 1.7 4.6 4.5 7 6.5 1.5.7 3.5.2 5.2.3h7.8" class="b"/><path d="M9 27.9q2 2.6 4.4 5 9 .2 18.2 0H41l1.7-1.2c5.3-3.1 6.5-11.1 12.1-13.5 6.7-1 8.7 13.8 15.6 11.3 3.1-1.7 5-5.1 7-7.9 1.5-2 3.8-6.5 6.8-4.1 4.4 4 6.5 10 9.6 15 1 .7 2.3.4 3.4.5h19.9c1.2-.7 1.9-2.5 2.6-3.6 1.5-2.6 3-5.6 4.3-8.2 2.5-4.3 6.6-15.2 13-12.2 8 4.3 12.5 19.8 23.4 16.8 3.5-.4 6.8 5 9.5 7 1.6.4 3.5 0 5.2.1h7.8" class="b"/></svg>