<svg xmlns="http://www.w3.org/2000/svg" id="a" width="1920" height="2400" viewBox="0 0 192 240"><defs><style>.b{fill:none;stroke:#fff;stroke-miterlimit:10;stroke-width:.3px}</style></defs><path d="M0 0h192v240H0z" style="stroke-width:0"/><path d="M8 224c2.5-1.4 4.8 1.1 6.1 3.1.8 1 1.5 3 2.6 3.8h42.9q1.6 0 2.7-.9c5.6-3.2 8.9-19.4 16.6-10 2.6 3 5 7.6 9.6 5.4 2.2-1 4-2.4 6.2-3.4 5.7-2.8 8.3 4.5 10.5 8.4q1.2.7 2.6.5h3.5c2.6-.1 5.3.1 7.9-.2 1.3-2.2 3.7-3.9 5.2-6 2-2.4 5-6.5 8-3.2 1.4 1.7 2.6 4.2 3.4 6.2.3.8 1 2.7 1.8 3.2H184" class="b"/><path d="M8 223.8c3.9-1.8 6.1 3.4 7.9 6h46.4c5.2-2.7 8.4-18.4 15.7-11.2 2.9 2.6 5 8 9.7 7 2.1-.4 4.1-1.7 6.1-2.6 5.7-2.7 8.3 2.4 10.5 6.7 5 .4 10 0 14.9.1 1.2-1.7 3-3.3 4.4-4.8 1.5-1.7 3-4 5.2-5 4.3-1 6.5 6.8 8 9.8H184" class="b"/><path d="M8 223.6c3.2-1.5 5.6 2.5 7 4.8q1.2.6 2.6.4h15.8q14.9.2 29.8 0c3.3-3 4.8-7.5 7.8-10.7 3.9-4 7.2 0 9.7 3.3 1.9 2.5 4.4 5 7.9 4.1 2-.4 4-1.5 6-2 4.4-1.4 7 2 8.8 5.3h15.8c.6-.3 1.4-1.2 1.8-1.7 1-1 2.5-2.3 3.5-3.5 2-2.5 5-5.6 7.8-2.1 1 1.2 2 3 2.7 4.4.2.8 1 2.4 1.7 3H184" class="b"/><path d="M8 223.7c3.3-1.5 5 2.4 7 4.1h48.2c4-2.2 7-14.2 13.1-11 3.5 2.2 5 6.7 8.8 8.6 3.5 1.5 7-1 10.5-1.3 3.1-.5 5 1.6 7 3.7H120c1.2-1.6 3-2.7 4.4-4.2 6-7 8.3-1.4 11.4 4.2H184" class="b"/><path d="M8 223.8c2.6-1.2 4.5 1.4 6.1 3h49c3.8-1.6 6.8-12.3 12.3-10.4 4.1 2 5.6 7 9.6 9 5.2 2.5 11.1-3.2 15.8 1.3q8.7.1 17.5.1c1.2 0 2.6.1 3.5-1 1.9-1.1 3.4-3 5.3-4.2 3.7-2.3 6.4 2.3 7.9 5.2h49" class="b"/><path d="M8 224c2.1-1 3.6.7 5.2 1.8h46.4c1.5-.1 3.2.4 4.4-.4 3-2.9 4.8-7.5 8.8-9 5.4-1.1 7.8 7.2 12.2 9.2 2.8.5 6 .1 8.8.2h26.3q1.4.2 2.6-.4c4.8-3.7 7.3-5.7 11.4.4h50" class="b"/><path d="M8 224.2q1.3-.5 2.6 0 .8.5 1.8.6h50.8c2.3-1.8 4-4.6 6-6.6 5.2-5.3 9 .7 12.3 4.6 1.6 1.8 2 2.1 4.4 2h37.7c.9 0 1.8-.8 2.6-1.2q1.7-.9 3.5-.6 1.6.4 2.6 1.5c1.7.6 3.6.2 5.3.3H184" class="b"/><path d="M8 223.8h54.3q1-.5 1.7-1.1c3-2.4 5.3-7.1 9.7-6.7 4 1 5.8 5.3 8.7 7.8H184" class="b"/><path d="M8 222.8h49.9c1.8-.1 4 .4 5.3-1 3.3-2.4 6.6-7.9 11.3-5.6 3 1.5 4.5 4.7 7 6.6H184" class="b"/><path d="M8 221.8h46.4c2.3-.1 4.7.2 7-.2q2.6-2.3 5.3-4.3c4-3.2 7.1-2.6 10.5 1 1.1 1 2 2.8 3.5 3.5H184" class="b"/><path d="M8 220.8h52.5q2.7-3 6.2-5c4-2.7 7.5-.8 10.5 2.5 1.6 1.7 1.7 2.7 4.3 2.4h102.6" class="b"/><path d="M8 219.7h51.7c1.2-.8 2.2-2.4 3.5-3.3 2.4-1.8 5.6-3.8 8.7-2.4q2.6 1.2 4.4 3.3c.8.7 1.6 2 2.6 2.5H184" class="b"/><path d="M8 218.7h49c.8 0 2 .1 2.7-.3 2.2-3.4 6-6.9 10.5-5.9 3.3 1 5.4 4 7.9 6.2h106" class="b"/><path d="M8 217.7h50.8c1.4-1.6 2.6-3.8 4.4-5.1 5.7-4.3 10.3.7 14 5 35.6.3 71.2 0 106.8.1" class="b"/><path d="M8 216.7h49q1 .1 1.8-.5c2.8-4.6 6.6-9.2 12.2-5.3q2 1.3 3.5 3.2c.8.8 1.7 2 2.7 2.6H184" class="b"/><path d="M8 215.7h49.9c1.5-1.8 2.8-4.2 4.4-6 5.2-5.2 10.8 1.7 14 5.7 1.6.6 3.6.2 5.2.3H184" class="b"/><path d="M8 214.7h24.5c1.1-.4 2.3-1.3 3.5-1.2q1.5.2 2.6 1c2.6.4 5.3.1 8 .2h7c1.3-.1 3 .3 4.3-.3 1.6-2.4 3-5.2 5.3-7 5.4-3.6 10 3.6 13.1 7.2q53.9.2 107.7 0" class="b"/><path d="M8 213.7h23.6c3.6-3.5 5-3 8.8 0H57c.6-.3 1.5-1.5 1.8-2q1.5-2.7 3.5-5c5.4-5.4 10.8 3.2 14 7H184" class="b"/><path d="M8 212.7H28q1.8.2 3.5-.3c3.4-4.9 6-3 9.7.3H57c2-2.1 3.3-5.2 5.3-7.3 5.3-5.3 10.7 3.5 14 7.2q53.9.1 107.7 0" class="b"/><path d="M8 211.7H28c1.1 0 2.5.2 3.5-.4 2.2-3.3 4.6-4.4 7.9-1.5 1.7 1.5 2 2 4.4 1.9H57c2-2.1 3.3-5.1 5.3-7.3 5.3-5.3 10.7 3.4 14 7 1.6.5 3.5.2 5.2.3H184" class="b"/><path d="M8 210.7h23.6c2.3-3.2 4.5-4.7 8-1.8 1.6 1.4 2 2 4.3 1.8H57c2.2-1.9 3.3-5 5.3-7 4.7-5 10 2 13.1 5.5 1 1.5 1.8 1.5 3.5 1.5H184" class="b"/><path d="M8 209.6h22.8q1.7.2 2.6-1.3c.9-.9 2.2-1.7 3.5-1.4q1.9.5 3.5 2c.4.3 1.2.8 1.7.7h15c2-1.9 3.2-4.8 5.2-6.8 4.7-4.8 10 2 13.1 5.5 1 1.5 2 1.4 3.5 1.3H184" class="b"/><path d="M8 208.6h24.5c.6 0 1.4-.7 1.8-1.1q1-1 2.6-.8c1.9 0 3.3 2.1 5.2 2q7.5 0 15-.2c2-2.4 3.5-5.6 6-7.6 5.2-3 10 4.4 13.2 7.7H184" class="b"/><path d="M8 207.6h26.3c3.2-2.2 4 0 7 0h14.9c2.6-2.2 4-5.8 7-7.8 3.7-2 7.2 1.8 9.6 4.3 1.1 1 2.1 2.8 3.5 3.5H184" class="b"/><path d="M8 206.6h47.3c2.6-2.1 4.3-5.4 7-7.5 5-3.6 10 4.5 13.1 7.5H178c1.4 0 3 .2 4.4-.2l1.7-.7" class="b"/><path d="M8 205.6h42.8c2.8 0 3.4.3 5.3-1.8 2.3-2.2 4.2-5.2 7-6.6 4.5-1.4 8.8 5.4 11.4 8.3 5 .3 10 0 15 0h53.4q1.2-.2 2.6-.5 1.8 0 3.5.6h30.6c1.4-.8 2.8-2 4.4-2.4" class="b"/><path d="M8 204.6h43.8c.9-.2 1.9-1 2.6-1.5 2.7-2.2 4.9-5.2 7.9-7 4.4-2.1 8.8 5.4 11.4 8.2 1 .5 2.4.2 3.5.3H135c1.7 0 3.5.2 5.2-.2 2.4-2 5.9-3 8.8-1.7 1.4.5 2.7 2.1 4.4 1.9H177c1 .2 2-.6 2.6-1.3a9 9 0 0 1 4.4-2.4" class="b"/><path d="M8 203.6h42a18 18 0 0 0 3.5-2.2c3-2.2 5.4-5.4 8.8-6.8 2-.8 3.9.7 5.2 2q1.9 2 3.5 4.1c.8 1 1.6 2.4 2.7 2.9h63.8c1.4-.6 2.4-2.2 3.6-3 2.3-1.4 5.3-2 7.9-1a17 17 0 0 1 4.3 3c.4.3 1.3.9 1.8 1h1.7c6.7-.1 13.5.2 20.2-.1 2-2 4-4.5 7-4.8" class="b"/><path d="M8 202.6h40.3c1.3-.3 2.4-1.5 3.5-2.2 2.3-1.8 4.6-4 7-5.7 1.7-1.3 4.1-2.5 6.1-1.2 3.4 2.2 5.1 6.3 7.9 9h63c1.8-1 2.9-3 4.4-4.3a9 9 0 0 1 10.5-.8q2.4 1.5 4.4 3.3c1 .8 2 2.1 3.5 1.9h16.7c2.7-2 5-5.6 8.7-5.8" class="b"/><path d="M8 201.6h39.4q1-.3 1.7-1l2.7-2.5c2.4-2.2 4.9-4.6 7.9-6 2.8-1.4 5-.4 7 2 1.9 2.2 3.5 5 5.2 7.5h59.6c2 0 3 .4 4.3-1.6 3.2-4 5.7-7.5 11.4-6.8 3.8.5 6.8 3.1 9.7 5.4 1.3 1 2.7 2.5 4.3 3h12.3c3.5-2 6.1-6.4 10.5-6.5" class="b"/><path d="M8 200.6h39.4c4-3.8 10.2-13.3 16.6-10 3.1 2.4 5 6.3 7 9.5 1 .7 2.4.4 3.5.5h54.3c1.4-.1 3 .2 4.4-.3 2.7-2.9 4.7-6.7 7.9-9 4-2.2 8.7-1 12.3 1.3 3.2 2 6.1 4.8 9.6 6.6q1.6 1 3.5 1.4h2.6c3.4 0 6.1-2.5 8.8-4.3 1.7-1.3 3.8-3 6.1-2.7" class="b"/><path d="M8 199.5H42c1.7 0 3.7.3 5.3-.3 3.9-4.8 10.6-15.6 17.5-9 2.5 2.7 4 6.4 6.1 9.3h60.5c2.4-2.1 4.1-5.2 6.1-7.7 1.5-2.2 3.4-4.2 6.1-4.5 9.4-1.6 15.4 8 23.7 10.3 7.3 1.7 11.5-5.7 16.6-5.2" class="b"/><path d="M8 198.5h38.5c1.1-.6 1.9-2.2 2.6-3.2 1.6-2.3 3.3-4.8 5.3-6.6 2.5-2.5 5.8-3.1 8.8-1.2 3.3 2.7 4.9 7.1 7 10.7 1 .5 2.4.3 3.5.3h20.1q18.4.1 36.8 0c3.7-3.9 5.8-9 9.6-12.7 2.5-1.8 6-1.7 8.8-1 6.3 1.4 11 6.2 16.6 9.2 9 4.3 13-3.2 18.4-2.6" class="b"/><path d="M8 197.5h38.5c3.4-3.8 6.3-12.7 12.3-12.9 6.6.7 8.2 8.3 11.4 13l59.5-.1c2.8-3 4.8-6.8 7-10.2 1.7-2.6 3.5-5.6 7-5.6 5.3-.6 10.5 1.8 15 4.6 5.7 3.8 10.8 9 18.3 6.2 2.3-.7 4.5-2.4 7-2" class="b"/><path d="M8 196.5h38.5c3-4 4.6-9.4 8.8-12.6 2.2-1.7 5-.8 7 .9 3.5 2.7 5 7.4 7 11.2l.9.5h58.7c1.4-1 2.5-3 3.4-4.4 2.4-3.6 4.3-7.8 7-11.1s8.8-1.9 12.3-.8q4.7 1.6 8.8 4.3c4.8 3.7 10.1 8.5 16.6 7 2.4-.4 4.6-2 7-1.6" class="b"/><path d="M8 195.5h38.5c3-4.5 4.6-10.9 9.6-13.7 2.3-1 4.6.6 6.2 2 3.4 3 4.8 7.8 7 11.7q29.7.2 59.5-.1c4.6-5.4 6.5-12.7 11.4-17.8 3.9-2.5 11.8.2 15.8 1.9 7.3 3 12.3 11.9 21 11.2 2.4-.1 4.6-1.7 7-1.2" class="b"/><path d="M8 194.5h38.5c3-4.4 4.6-11.5 9.6-14 2.9-.8 5.2 1.8 7 3.6 2 2.1 3.2 5.1 4.4 7.6.3.8 1 2.4 1.8 2.8H128c1.6-.7 2.5-3.1 3.5-4.6l4.3-8.3c1.4-2.4 2.8-5.4 5.3-7q1.7-.3 3.5-.2 7.4.7 14 4.3c2.6 1.5 4.8 3.7 7 5.6 3.6 3 8 6.5 13.1 5.6 1.8-.4 3.5-1.2 5.3-.9" class="b"/><path d="M8 193.5h38.5c3-4.2 4.6-11.8 9.6-13.9 2.5-.6 4.6 1.6 6.2 3.2 2.8 3 4.4 7 6.1 10.7H128c2-1.7 3-4.6 4.3-6.8 2.5-4.5 4.3-9.8 8-13.5 3.3-2.4 12 1 15.7 2.5 7.9 3 12.2 12.6 21 13.7 2.4.3 4.6-1.1 7-.8" class="b"/><path d="M8 192.5h38.5C48 190.7 49 188 50 186c1.5-2.5 3-6 6.1-6.9 3.1-.4 5.2 2.7 7 4.6 1.5 1.7 2.6 4 3.6 6 .2.7 1 2.3 1.7 2.8H128c3-3.7 4.8-8.5 7-12.7 1.4-2.8 2.9-6.1 5.2-8.4 3.4-2.5 13 2 16.7 3.6 7.4 3.4 11.7 12.4 20 13.9 2.5.4 4.7-1 7.1-.8" class="b"/><path d="M8 191.5h38.5c1.3-.8 1.9-3 2.6-4.3 1.4-2.6 3-5.6 5.3-7.4 3-2.3 6 1 7.9 3.1 2.3 2.4 3.7 5.7 5.2 8.6H128c2.8-4 4.8-8.7 7-13 1.4-3 2.9-6.3 5.2-8.5 3.6-2.6 13 2.6 16.7 4.4 7.4 3.5 12.4 13.3 21 13.9 2 0 4-1 6.1-1" class="b"/><path d="M8 190.5H42c1.7-.2 3.7.3 5.3-.4 2.4-4 6.2-14.7 12.2-9.5q4.6 4 7 9.4c1 .7 2.4.4 3.6.5h53.4c1.4-.1 3 .2 4.4-.4 3.2-4.5 5.3-9.8 7.8-14.6 1.4-2.5 2.7-5.7 5.3-7.2 4.6-1 10.8 3.2 14.9 5.2a45 45 0 0 1 9.6 7.2c3.1 2.8 6.4 5.9 10.5 6.8 2.7.8 5.3-.7 7.9-.8" class="b"/><path d="M8 189.4h39.4c7.7-15 10.6-11.5 19.3 0H127c1.6-1 2.5-3.2 3.5-4.8l4.4-8.5c1.6-3 3-6.9 6.1-8.7 4.4-1 8.6 2.3 12.3 4.3 3.2 2 6.7 3.8 9.6 6.3 4.5 3.5 8.7 9 14.9 9.3 2 0 4-1.1 6.1-1.3" class="b"/><path d="M8 188.4h39.4c7.4-13 10.1-10.2 18.4 0H127c3.3-4 5.5-8.8 7.9-13.4 1.4-2.7 3-5.8 5.2-7.9 4-2.7 9.7 2.2 13.2 4.3 4.4 2.8 9.3 5.2 13.1 9 3.5 2.9 7.4 6.7 12.3 6.4 1.7-.2 3.4-1.2 5.2-1.4" class="b"/><path d="M8 187.4h39.4c7.3-11.6 9.5-8.6 17.5 0h59.6c1.7.1 2.4 0 3.5-1.6 3-4 5.3-8.9 7.8-13.3 1.4-2.4 2.9-5.2 5.3-6.6 4.4-1.5 8.8 3 12.3 5.1q3.7 2.6 7.8 4.6a30 30 0 0 1 5.3 3.9c3.5 2.9 7.3 7 12.2 6.8 1.8-.3 3.5-1.3 5.3-1.7" class="b"/><path d="M8 186.4h39.4c2.7-4 6.4-9.3 11.4-4.8 1.8 1.4 3.2 3.6 5.2 4.8h62.2c3.2-3.5 5.5-7.8 7.9-11.9 2.1-3.2 5-10.3 9.6-9.6 4.4 1 7.6 4.6 11.4 6.9 3 2.2 6.8 2.9 9.6 5.2 4.3 3 8.4 8.8 14 8.6 1.9-.3 3.6-1.5 5.3-2" class="b"/><path d="M8 185.4H42q2.6.2 5.3-.1c5.8-8.2 8.7-6.5 14.9 0 2.6.3 5.3 0 7.9.1h55.1c3.8-3.2 6-8 8.8-12 2.2-3 5.2-9.6 9.6-9.2 2 .3 3.7 1.5 5.3 2.6q3.3 2.7 7 5 2.8 1.7 6.1 2.4 1.9.9 3.5 2.2c4 2.8 8 8.5 13.1 8.3 2-.3 3.6-1.6 5.3-2.2" class="b"/><path d="M8 184.4h35.8c1.2 0 2.6.3 3.6-.5 5.7-7 8.3-4.8 14 .5h61.3q1.4.1 2.6-.4 4.4-4.8 8-10.4c2.3-3.1 6-10.3 10.4-10 2 .2 3.7 1.5 5.3 2.6 2.2 1.7 4.5 3.7 7 5 6 3 5.8-.2 12.2 5.8 3.1 2.6 6.1 6.7 10.5 6.6 2-.3 3.5-1.8 5.3-2.5" class="b"/><path d="M8 183.4h38.5c5-5.6 7.9-6 13.2-.5q1.1.7 2.6.5h14q24 .1 48.2-.1c4.5-4.8 8-10.4 12.2-15.4 4.9-5.8 7.1-6.7 13.2-1.7 10.8 9.2 10 2.3 16.6 7.4 3.6 2.7 7.5 8.7 12.3 8.6 1.9-.4 3.4-2 5.2-2.7" class="b"/><path d="M8 182.4h37.6c1-.4 1.9-1.6 2.7-2.2 1.2-1 2.7-2 4.4-2 2.9.2 4.6 2.8 7 4.2h63.9c5-5 9-11.2 14-16.2 5.5-5.8 7.4-4.7 13.1 0 9.8 8 9.6.5 15.8 5.3 3.6 2.6 7.5 9.2 12.3 9 2-.4 3.4-2.1 5.2-2.9" class="b"/><path d="M8 181.4h35c1.4 0 2.6 0 3.5-1.2 5-5 7.8-2.7 12.3 1.2H121q1.3 0 2.6-.3c5.3-6.6 10.8-13.3 17.5-18.5 4-3.3 8.1 1.9 11.4 4 8 5.6 8.2-1.7 14 2.6 3.7 2.5 7.6 9.5 12.3 9.3 2-.4 3.4-2.3 5.2-3" class="b"/><path d="M8 180.4h31.6q2.5 0 5.2-.2c4.7-5.5 8.3-5 13.1 0 2.6.4 5.3 0 7.9.2h56.9c3-3.4 5.5-7.2 8.8-10.3q3.3-3.2 7-6c1.4-1 2.8-2.5 4.4-3.2 3.9-1 7.2 3.5 10.5 5.2 7.5 4.4 7.5-4.1 14 1.3 3.3 2.5 7 9 11.4 8.8 2-.4 3.3-2.4 5.2-3.2" class="b"/><path d="M8 179.3q18 .1 35.9 0c5.3-6.4 8.5-5.3 14 0h57q3.8.2 7.8-.1a47 47 0 0 1 14.9-15.2l3.5-2.6q1.2-1.1 2.6-1.5c2-.1 3.8 1 5.3 2.1 1.9 1.4 3.9 3 6.1 3.6 6 1.8 6.4-5.7 12.3-1 3.3 2.5 7 9.3 11.4 9 2-.4 3.3-2.4 5.2-3.2" class="b"/><path d="M8 178.3h35c2.6-3.3 6.3-6.7 10.5-3.7 1.6 1 2.9 2.7 4.4 3.7h64c1.5-1 2.3-3.3 3.4-4.6q2.7-3.8 6.2-6.6 3.3-2.4 7-4.4c1.8-1 3.2-3 5.2-3.5 4.7-.3 7.7 4.9 12.3 5.1 5.7.1 5.8-7.5 12.2-1.8 3 2.5 6.5 8.7 10.5 8.4 2-.5 3.3-2.6 5.3-3.3" class="b"/><path d="M8 177.3H42c2.3-2.2 4.3-5.7 8-5.4 3.3.4 5.3 3.5 7.8 5.4h64c4-5.7 6.1-10.6 13-13.6q2.9-1.1 5.3-2.9c1.3-1 2.6-2.6 4.4-2.5 4.4.4 7.6 5.3 12.3 4.4 5-1.3 5.3-8.2 11.4-3 3 2.3 6.4 8.6 10.5 8.3 2-.6 3.2-2.8 5.2-3.4" class="b"/><path d="M8 176.3h29.8c1.4-.1 3 .3 4.3-.4 5.6-8.8 9.8-6.2 15.8.4h64c3-5.6 6.6-11.7 13-13.6q2.3-.7 4.4-1.9c1.3-.7 2.3-2 3.5-2.8 1.7-1 3.7-.3 5.3.5 3.2 1.8 7.1 4.3 10.5 1.6 3.4-2.8 4.6-7.4 9.6-3.4 3 2.2 7.3 9.9 11.4 8 1.4-1 2.7-2.6 4.4-3" class="b"/><path d="M8 175.3h33.3c5.6-8.5 8.8-8.8 15.7-1.2q1 1.4 2.7 1.2h62.1c2.5-5 5.3-10.4 10.5-12.7 2-.8 4.2-1.1 6.2-2 2.3-.8 3.5-3.6 6.1-3.8 4.5 0 8.6 5.3 13.1 2.2 3.4-2 4.8-8.6 9.7-5.7 3.6 1.9 8 10.4 12.2 8.3 1.4-1 2.6-2.7 4.4-3" class="b"/><path d="M8 174.3h28.9q2.2.1 4.4-.2c1.8-3.8 5.7-9.3 10.5-6.2 2.7 1.6 4.7 4.3 7 6.4h60.4q1.4 0 2.6-.3c3-6.2 6.5-12.5 14-13.2q2.4-.4 4.4-1.8c.9-.6 1.8-1.7 2.7-2.3 4.4-2.4 8.5 3.5 13 1.8 5-1.5 5.8-10.4 11.5-7.7 3.7 1.7 8 9.9 12.2 7.7 1.4-1 2.6-2.6 4.4-2.8" class="b"/><path d="M8 173.3h32.4c1.2-.7 1.8-2.7 2.6-3.8q1.4-2.2 3.5-3.4c5.6-2.7 9 4.7 13.2 7.2h6c1.5 0 3-.5 4.5-.3 3.1.6 6.4.2 9.6.3h38.5c1.1 0 2.5.2 3.5-.4 2.5-5 5.4-11.2 11.4-12.4 2.4-.4 5-.4 7-2 1.1-.8 2.1-2.2 3.5-2.7 4-1.2 7.4 2.9 11.4 1.8 5.6-1.3 6.1-10.2 11.4-9.3 4.5 1 8.4 9.6 13.1 7.4 1.4-1 2.6-2.7 4.4-2.7" class="b"/><path d="M8 172.3h32.4c.5-.6 1.4-2 1.7-2.7q1.4-2.6 3.5-4.4c5.2-3.9 9.6 3 13.2 6l1.7 1H64q2.6-1 5.3-1.3 1.8 0 3.5.6c.7.3 1.7 1 2.6.8h43.8q1.4.1 2.6-.4c2.4-4.9 5.4-11 11.4-12 2.3-.4 5-.2 7-1.7 1.1-.9 2.1-2.3 3.5-2.8 3.9-1.2 7.5 2.7 11.4 1.4 5.6-1.6 6-10.5 11.4-10.2 4.6.5 8.4 8.7 13.1 6.5 1.3-1 2.6-2.7 4.4-2.5" class="b"/><path d="M8 171.3h32.4c2.6-4.7 6-11.7 12.2-7.2 2.8 2 5 5 8 6.7 1.4.8 3 .2 4.3-.5q2.1-.8 4.4-1.2c2.5-.2 5 .8 7 2.2h42.9q1.4 0 2.6-.3c2.4-4.5 5.1-10.1 10.5-11.4 2.3-.5 4.9-.2 7-1.2 1.7-.8 2.7-2.7 4.4-3.3 3.6-1.1 7 2.1 10.5 1.4 6.2-1.3 6.3-9.5 11.4-11.2 5.2-.8 8 6.4 13.2 5.7 1.8-.6 3-3 5.2-2.6" class="b"/><path d="m8 170.3 32.4-.1c1.9-4.3 5.7-11.4 11.4-8 3 1.8 5 4.8 7.8 6.8 2 1.3 3.3 1 5.3 0 2-.7 4-1.4 6.1-1.3q2.3.1 4.4 1.3c.8.3 1.7 1.1 2.6 1.3h37.7c2-.2 4.3.3 6.1-.3 2.4-4.4 5.3-9.7 10.5-10.8 2-.5 4.2-.3 6.2-1 1.7-.4 3-2.1 4.3-3.2 3.4-2 7 1.3 10.6 1 6.3-.5 7-8.4 11.3-11.6 5.2-3 9 4.8 14 4 1.9-.5 3.2-2.9 5.3-2.2" class="b"/><path d="M8 169.2h31.5c.8-.3 1.5-1.7 1.8-2.4a22 22 0 0 1 2.6-4.2c5.6-6.3 10.5 1 14.9 4.7 2.1 1.7 3.6 2 6.1.8 4-1.8 8.4-2.2 12.3.3l1.7.9h39.4c1.1-.1 2.5.1 3.5-.3 2.4-4.3 5.4-9.2 10.5-10.2 2-.5 4.2-.4 6.2-1 1.7-.6 3-2.3 4.3-3.3 3.1-1.9 6.5.8 9.7 1 6.4.2 7.8-7.6 11.4-11.5 5.2-5.4 9.5 2.4 14.9 1.8 1.8-.4 3-2.6 5.2-1.7" class="b"/><path d="M8 168.2h31.5c2.3-3.6 4.3-9.8 9.6-9.2 4.1 1 6.6 4.9 9.7 7.4 2 1.8 3.6 2 6.1.9 3.6-1.4 7.7-2.2 11.4-.7l3.5 1.6h38.5q1.8.2 3.5-.2c2.4-4.1 5.6-8.6 10.5-9.5 2-.5 4.2-.5 6.2-1.3 1.7-.6 3-2.2 4.3-3.3 3.2-1.8 6.5.8 9.7 1 6 .2 7.8-6.7 10.5-10.7 6-8.2 9.8-.7 15.7-1 2-.3 3.2-2.3 5.3-1" class="b"/><path d="M8 167.2H35c1.4 0 3.1.3 4.4-.3 2-4.3 5.6-11.4 11.4-8.1 3 1.7 5.2 4.6 7.9 6.8 2.4 2.2 4.1 1.8 7 .8q3.8-1.3 7.9-1.2c2.4.1 4.7 1.1 7 2h31.5c3.2 0 6.5.3 9.6-.1 2.4-4 5.8-7.9 10.6-8.8 2-.5 4.2-.7 6-1.5 1.8-.7 3-2.4 4.5-3.5 3-1.8 6.4.9 9.6 1 3.7.4 6.3-3.1 7.9-6 2.1-4.2 4.8-10.6 10.5-9.6 2.4.4 4.6 1.9 7 2.2s3.7-2.2 6.1-.5" class="b"/><path d="M8 166.2h30.6c1.4-1.5 2.3-3.8 3.5-5.5 1.7-2.6 5-4.6 8-3.1 4 2 6.5 6.3 10.4 8.6H65a45 45 0 0 1 7-1.3q3.1-.3 6.1.3c1.5.2 3 1.1 4.4 1h39.4c2.5-3.7 6-7 10.5-8q3.2-.4 6.2-1.8c1.6-.8 2.9-2.5 4.3-3.5 3.2-1.9 6.5.8 9.7 1 3.8.3 6.3-3.3 7.9-6.2 2.3-4.3 4.7-11 10.5-11 2.4.1 4.6 1.5 7 2s3.7-1.8 6.1.3" class="b"/><path d="M8 165.2h19.3q5.7.2 11.3-.1c2.6-4.6 6.2-11.4 12.3-7.6 3 1.8 5.2 4.7 7.9 7q1 .9 2.6.7H64q4 .1 8-.4 3.3-.5 7-.3 1.2.2 2.6.6 1.7.1 3.5.1h36.7q1.8-1.7 3.5-3.4 2.4-1.8 5.3-2.8c2.3-.8 4.8-1.3 7-2.3 2-1 3.6-2.8 5.3-4.2 3-1.8 6.4.8 9.6 1 3.1.3 5.5-2.3 7-4.7 3-4.8 5-13 11.4-14 2.4 0 4.7 1.3 7 1.9 2.6.7 3.8-1.2 6.1 1.2" class="b"/><path d="M8 164.2h29.8c2-1.9 3-4.8 5.2-6.7 6-5 11.4 3 15.8 6.4 1.6.6 3.5.2 5.2.3h8.8q3.5 0 7-.3 1.4 0 2.6.3h35.1q2.6.2 5.2-.2c4.2-4.7 9.8-4.6 14.9-7.3 2-1 3.5-3 5.3-4.4 2.7-1.7 5.9.3 8.7.8 3.5.8 6.3-2 7.9-4.7 3-4.9 5.2-13.4 11.4-15.1 2.4-.5 4.8 1 7 1.7 2.7 1 3.8-.5 6.1 2.1" class="b"/><path d="M8 163.2q14.9.1 29.8-.1c3.6-5.3 7.3-10.4 14-5.6 2.5 1.6 4.5 4.1 7 5.7h64c.9 0 1.7-.9 2.5-1.3q1.7-.9 3.5-1.5A24 24 0 0 0 142 153a5 5 0 0 1 5.2-1.2c4 1.1 7.4 2.4 10.5-1.3 4.6-5.4 5.7-13.4 11.4-17.8 2.4-1.8 5.6-.7 8 .6q2 1.1 4.3 1.3c1 .4 2 1.4 2.6 2.2" class="b"/><path d="M8 162.2h28.9c1.9-1.5 3.2-3.8 5.2-5.2 5.7-4.4 11.5 1.8 15.8 5.2h67.5c6-2.2 10-2.3 14.8-7.3 6-7.8 10.5 1.5 16.7-3.7 4.2-4.1 5.5-10.4 8.7-15.3 3-4.8 6.1-7.4 11.4-3.7q2 1.4 4.4 2c1 .5 2 1.6 2.6 2.5" class="b"/><path d="M8 161.2h18.4c3.4-.1 7 .2 10.5-.2 7.5-8.3 12.2-6 20.1 0 18.1.3 36.2 0 54.3.2h18.4c4.1 0 7.7-3.2 10.5-6 6.2-8.2 11.2 2 17.5-5 3.9-4.7 5.4-11.1 8.8-16.2 2.9-4.5 6-6.1 10.5-2.5q2 1.6 4.4 2.6c1 .7 2 2 2.6 3" class="b"/><path d="M8 160.2h28c6.6-5.4 11.3-5.7 18.4-1.1l1.8 1H135q1-.3 1.7-1c6-5 5-8.5 14-6.3 5.4 1.1 8.7-4.2 10.5-8.4q2.4-5.6 5.3-10.8c3.4-5.6 6.5-6.4 11.4-1.6q1.6 1.4 3.5 2.5c1 .8 2 2.2 2.6 3.2" class="b"/><path d="M8 159.1h26.3c1.6.3 2.9-1.2 4.3-1.7q3.9-1.4 8-1 2.6.3 5.2 1.4c1 .4 2.3 1.2 3.5 1.3h63.1q9.5.2 19.2 0c2.5-2.2 4.3-6 7.9-6.5 4.1-.2 7.8 1.9 11.4-1.6 5.3-4 9-24.8 16.6-22.4 2 .9 3.7 2.8 5.3 4.3l2.6 2.2c1 .9 2 2.4 2.6 3.5" class="b"/><path d="M8 158.1H35q1.3-.8 2.7-1.1c2-.5 4-.1 6-.1q2.8 0 5.3.6c1.4.3 3 .8 4.4.6h83.2q1.4.1 2.7-.2c1.8-2.2 3.8-5 7-5 4.6.2 7.9 1.3 11.3-2.8 2.8-3.4 4.4-7.8 6.2-11.7 1.9-3.6 5.1-12.8 10.5-9.4 2 1.5 3.5 3.6 5.2 5.4a18 18 0 0 1 4.4 5.4" class="b"/><path d="M8 157.1h25.4c.8.2 1.8-.4 2.6-.6q1.8-.4 3.5 0c2 .8 4.1.6 6.1.6h94.6c1.3-.7 2.2-2.3 3.5-2.9 3.3-1.7 7.2 0 10.5-1.4 7.4-3.8 8.9-16 14-22.3 3.8-4.8 7-.9 9.7 2.6 2 2.6 4.7 5 6.1 8" class="b"/><path d="M8 156.1h134c3.6-3.9 9-1.1 13.1-3.8 7-5.2 7.9-15.2 13.2-21.8 3.8-4.8 7.2 0 9.6 3.4 2 2.9 4.6 5.4 6.1 8.6" class="b"/><path d="M8 155.1h135.7q1.4-.5 2.7-.8 2.6-.4 5.2-.7c9.2-2 10.9-15 15.8-21.9 4.2-6.3 7.7-1.2 10.5 3.2 1.9 3 4.6 5.8 6.1 9" class="b"/><path d="M8 154h134.8c3.6 0 7.3.3 10.6-1 8-4.1 9.1-14.4 14-21.2 4.3-6.3 8 0 10.5 4 1.8 3.2 4.5 6 6.1 9.4" class="b"/><path d="M8 153h134.8c3.2 0 6.5.3 9.7 0 8.6-3.7 9.8-14.4 14.9-21.2 4.3-6.1 8.2 1 10.5 5 1.8 3.2 4.5 6.1 6.1 9.5" class="b"/><path d="M8 152h144.5c7.8-2 10.2-14.5 14.9-20.3 4.4-5.8 8.3 2.1 10.5 5.8 1.8 3.2 4.4 6.2 6.1 9.5" class="b"/><path d="M8 151h145.4c7.5-3.8 9-13.3 14-19.4 4.5-5.3 8.4 3 10.5 6.6 1.7 3.3 4.4 6.2 6.1 9.5" class="b"/><path d="M8 150h145.4c7.3-3.7 8.9-12.7 14-18.5 4.8-4.8 8.4 4 10.5 7.4 1.7 3.2 4.4 6 6.1 9.3" class="b"/><path d="M8 149h144.5c7.3-2.6 9.4-11.3 14-16.8 5-6 9.1 3.5 11.4 7.3 1.7 3.2 4.4 5.9 6.1 9" class="b"/><path d="M8 148h139.3q2.5.2 5.2-.1c7.3-3.1 9.2-10.5 14-16 5.3-5.1 9 4.5 11.4 8.1a26 26 0 0 0 3.5 5c.7.9 1.5 2.4 2.6 3" class="b"/><path d="M8 147h142.7c8.5-2.8 9.9-8.2 15-14.4 5-5.8 9 2.4 11.3 6.4 1.6 2.8 3.6 5.9 6.1 8h1" class="b"/><path d="M8 146h141q4.1-1.3 7.9-3.7c4-2.7 5.8-7.7 9.6-10.7 6.9-4.7 10.7 11.7 15.7 14.4h1.8" class="b"/><path d="M8 145h139.2c4.1-2 9-2.7 12.3-6.1 3.6-3.6 7.7-12.2 13.1-5.8 2.4 2.8 4.1 6.3 6.2 9.3 1.8 2.5 2 2.8 5.2 2.6" class="b"/><path d="M8 144h137.5c3.3-2.4 7.7-2.6 11.4-4.4 6.3-3 9.4-14.5 16.6-5 2.2 2.8 3.9 6.2 6.1 9 1.2.8 3 .3 4.4.4" class="b"/><path d="M8 143h135.7c1.5-.8 2.8-2 4.4-2.6 4-1.5 9-1 12.3-4.2 3.2-3.1 6.9-7.8 11.3-3.4 2.1 2 3.7 4.7 5.3 7 .7 1 1.6 2.5 2.6 3.2h4.4" class="b"/><path d="M8 142h134.9c4.4-5 8.1-4.1 14-5 3.5-.5 5.6-4 8.7-5.5 6.2-2.4 9.6 7 13.2 10.5h5.2" class="b"/><path d="M8 141h131.3c.8 0 2 0 2.7-.3 4.2-5.5 7.7-5.4 14-4.8 3.5.2 5.2-1.8 7.9-3.6 6.3-4.1 10.6 4.4 14 8.5 2 .4 4.1 0 6.1.2" class="b"/><path d="M8 140h132.2c1.1-.5 1.9-2 2.7-2.8a9 9 0 0 1 8.7-3.5c2.6.4 5.3 1.6 7.9 1 3.6-1.6 6.2-5 10.5-2.5 2 1.2 3.7 3.2 5.2 5 .8 1 1.6 2.3 2.7 2.8h6.1" class="b"/><path d="M8 139h131.4c1.6-1.5 2.7-3.7 4.3-5.2 3.6-3.6 7.4-2.4 11.4-.6 2 .8 4.3 1.4 6.2.3 7.8-5 10.5.5 15.7 5.4h7" class="b"/><path d="M8 138h116.5a3 3 0 0 0 1.7-.5q1.4-.4 2.6-.3c2 .3 4.1 1 6.2.7h1.7a8 8 0 0 0 2.7-1.4c1.3-1.2 2.3-3 3.4-4.2 3.6-4.2 7.3-3.3 11.4-.7 1.9 1 4 2.4 6.2 2 7.8-3.9 10.1-1.3 15.7 4.3h8" class="b"/><path d="M8 137h115.6c4.1-5.7 9 0 14-1.9 2.3-1 3.7-3.4 5.2-5.2 3-3.4 6.2-3.3 9.7-.8 2.2 1.5 4.3 3.7 7 4.2 1.5.2 3-.7 4.4-1 4.5-1.4 8.3 1.7 11.3 4.6h8.8" class="b"/><path d="M8 136h109.4c1.7-.2 3.7.1 5.3-.3 5-9.1 10.6.6 16.6-4 1.4-1 2.4-2.8 3.5-4.1q3.5-4 8-1.1c2.7 1.8 4.8 4.7 7.8 6.3 1.4.8 3 .2 4.4-.2 4.9-1.3 7.5.7 11.4 3.3h9.6" class="b"/><path d="M8 134.9h113.8c6-12.2 10.7-.6 17.6-5.3 3.2-3 5-8.5 10.5-5.1 3.5 2.3 5.7 6.6 9.6 8.5 1.7.6 3.5-.4 5.2-.5q2.8-.2 5.3.9c1.1.4 2.2 1.6 3.5 1.5H184" class="b"/><path d="M8 133.9h113a9 9 0 0 0 1.7-2.8c1.4-2.6 3.8-5 7-4 3.1.9 6.7 3 9.7.7 1.3-1 2.3-2.8 3.4-4 2-2.4 4.7-2.5 7-.6 2.4 1.9 4.2 4.5 6.2 6.7 1.2 1.3 2.6 3 4.4 3.3 1.7 0 3.5-.5 5.2-.4q2.7.1 5.3 1H184" class="b"/><path d="M8 132.9h61.3q2.7-2.3 5.2 0H121c6.7-16.4 11.9-.7 19.2-7.4 4-5.4 6.4-7.2 11.4-1.5 2 2 6.1 9.4 8.8 8.9H184" class="b"/><path d="M8 131.9h60.4c1.6-1.2 3-3.2 5.3-2 .8.5 1.7 1.5 2.6 2H120l.9-.6c7-17.4 13.4 1.9 21-9.5 3.3-4.5 6.8-2 9.6 1.5l4.4 6c1.4 1.8 1.8 2.8 4.4 2.6H184" class="b"/><path d="M8 130.9h52.5c2.6-.1 5.4.2 8-.2 3-4.6 5.6-4 8.7.2H120c1.7-1.3 2.2-4.1 3.5-5.7 3.4-4.9 6.8-2.5 11.4-1.4 4.8.8 5.6-2.9 8.7-5.2 5.9-3.2 10.4 9.3 14 12.3H184" class="b"/><path d="M8 129.9h59.5c1-.7 1.8-2.2 2.7-3 3-3.4 6 0 7.8 2.8 1.7.4 3.6 0 5.3.2H120c1.6-1.3 2.2-4 3.5-5.7 3.2-4.8 6.6-3.3 11.4-2.4 5 .6 5.4-2.6 8.7-4.8 5.3-2.5 10.3 9.2 13.2 12.5 1 .5 2.3.3 3.5.3H184" class="b"/><path d="M8 128.8h59.5c4.1-6.8 7-7 11.4-.4 1.3.8 3 .3 4.4.4h36.8c.7-.2 1.4-1.6 1.7-2.3l1.8-3.1c3.6-5.3 6.8-4 12.2-3.5 5 0 5.2-4 8.8-4.7 5.1-.1 9.2 10 12.3 13.6H184" class="b"/><path d="M8 127.8h56.9c.8 0 2 .1 2.6-.4 1.8-3.2 5-8 8.8-4.3q1.5 1.3 2.6 3a5 5 0 0 0 1.8 1.7h38.5c.5.1 1.4-.1 1.8-.4 2-4 4.5-9.2 9.6-9.7 2-.2 4.1.2 6.1 0q2.5-.4 4.4-2c1-1.2 2.7-2.4 4.4-1.9 5.2 2.2 7.7 10 11.4 14H184" class="b"/><path d="M8 126.8h58.7c2.3-3 5-9.5 9.6-5.7 2 1.6 3.3 4.2 5.2 5.7h34.2c1.7 0 3.6.3 5.3-.2 2.2-4.5 5-10 10.5-10.8 2-.3 4.1-.1 6-.5 3.8-.4 5-4.7 8.9-2.4 4.7 3.5 6.7 9.6 10.5 14H184" class="b"/><path d="M8 125.8h56c.8 0 2 0 2.7-.3 2.1-4 5.6-10.3 10.5-5.4 1.8 1.7 3.3 4 5.2 5.7h32.4q3.1.2 6.1-.1c2.5-4.6 5.2-10 10.6-11.7 2-.6 4-.6 6-.9q2-.3 3.6-1.2a5 5 0 0 1 2.6-1.1c5.4.5 9.7 11.1 13.2 15H184" class="b"/><path d="M8 124.8h57.8c2.3-3.4 5.4-10.8 10.5-7 2.3 1.6 4 4.2 6.1 5.9l1.8 1 2.6.1h11.3l4.5-1.5a4 4 0 0 1 2.6.7 3 3 0 0 0 1.7.8c4.7-.1 9.4.2 14-.1 3.6-6.5 7.4-13.7 15.8-13.7l3.5-.6c1.1-.4 2.3-1.2 3.5-1 5.2 1 9.7 11.1 13.1 15.2q1.8.3 3.5.2H184" class="b"/><path d="M8 123.8h57c.6-.3 1.4-1.7 1.7-2.3.7-1.3 1.7-2.9 2.6-4 4.7-5.7 8.5.3 12.2 3.7a12 12 0 0 0 8.8 2.2c4.2-.5 8.2-2 12.3-3 2.2 0 3.7 2.1 5.2 3.4h7.9c1.7-.1 3.6.3 5.3-.3 3-5 5.7-11.2 11.3-13.8 2-.8 4.1-.8 6.2-.9q1.8 0 3.5-.7 1.3-.2 2.6.3c3.9 2.2 6.2 6.5 8.8 10 1.3 1.7 2.5 4 4.3 5.4H184" class="b"/><path d="M8 122.8h54.3q1.4.1 2.6-.4c2-3.4 4.8-10 9.6-8.6 2.5 1 4.3 3.3 6.2 5 2.2 2.4 5.7 2.6 8.7 1.9 4.4-1 8.7-2.5 13.2-3 2.7.3 4.3 3.2 6.1 5h11.4c1.7-.9 2.4-3.4 3.5-5 2.3-3.7 4.7-8 8.8-10 2.7-1.4 5.8-.6 8.7-1 3.4-.8 6 2.5 7.9 4.7q3.5 4.6 7 9.1c2 2.6 2 2.3 5.2 2.3H184" class="b"/><path d="M8 121.8h53.4q1.4 0 2.6-.3c2.2-3.6 5.3-11.2 10.6-9.1 2.3 1 4.1 3.3 6 5 2.2 2.1 5.4 2 8 1 3.4-1.2 6.8-2.7 10.5-3 1.4-.2 3-.6 4.4-.1 2.6 1.4 4.1 4.3 6 6.5h10.6c4.3-5.3 6.6-13.6 13.1-16.6 2.3-.8 4.8-.2 7 .1q1.4 0 2.7.2 1.4.5 2.6 1.5c2.7 2.2 4.8 5.1 7 7.8q2.9 3.6 6.1 6.7c1 .4 2.4.2 3.5.3h22" class="b"/><path d="M8 120.8h52.5c.8 0 2 0 2.7-.4 2-3.6 5.2-11.3 10.5-9.8 2.8 1 4.7 3.7 7 5.5 2 1.9 4.7 1.6 7 .5 2.6-1.2 5.1-2.8 7.9-3.5q2.5-.7 5.2-.6c.8 0 2 0 2.7.4 3 1.9 4.5 5.5 7 7.9h8.7c.7-.2 1.5-1.2 1.8-1.8l2.6-4.2c3.2-5 6.8-13.6 14-11.6l3.5 1a7 7 0 0 1 3.5 1.3c5.7 4.6 9.6 11.3 15.8 15.3H184" class="b"/><path d="M8 119.8h51.7q1.4.1 2.6-.5c2.2-3.9 5.6-12.7 11.4-10.3 2.7 1.4 4.6 4 7 6 2.2 1.8 4.8 1 7-.5 2.7-1.7 5.5-3.7 8.8-4.4 2.2-.3 4.8-.3 7 .5 3.2 2.4 4.8 6.6 7.8 9.1h7c1.2-.2 2-1.7 2.7-2.6 3.6-4.8 6.6-13.5 12.2-15.9 2.4-.7 4.9.5 7 1.5q2.5.6 4.4 2c4.3 3.6 7.8 8.1 12.3 11.5l3.5 2.6q.8.7 1.7 1h22" class="b"/><path d="M8 118.7h52.5c.7-.3 1.5-1.6 1.8-2.3q1.5-3.1 3.5-6c5.3-7.5 9.3-1.9 14 2.6 2.8 2.8 5.1 1.8 7.9-.3 3-2.4 6.3-5.3 10.5-5.2 1.7.1 3.7.3 5.2 1 3.5 2.8 5.2 7.5 8.8 10.2h5.2c1.9-1 3.2-3.2 4.4-4.9 3-4.2 5-9.4 8.8-13 3.2-3 6.4-1.2 9.6.8 4.2 1.7 7.2 5.2 10.5 8.1 3.8 3.4 8.4 5.8 12.3 9h21" class="b"/><path d="M8 117.7h51.7c3.3-4 4.4-10.5 9.6-12.8 4.5-1.1 7.5 4.5 10.5 7 3.3 3.3 6 .7 8.8-1.7 3.5-3.4 7.1-6 12.2-4.4 2.9.3 4.6 2.8 6.1 5 2.2 2.7 4.6 7.6 8.8 6.9 6.8-3 9.7-15.3 15.8-19.4 2.6-1.7 5.7.1 7.8 1.8q2.3 1.4 4.4 3c2.4 1.8 4.6 4 7 5.8q3.8 2.5 8 4.6c1.8 1 3.5 2.7 5.2 4.1 6.6.4 13.4 0 20.1.2" class="b"/><path d="M8 116.7h33.3c1.2.2 2.2-1 3.5-1q1.3.3 2.6 1h8.8q1.3.1 2.6-.3c3.2-4 4.6-9.7 8.7-13 4.8-3 8.5 3.6 11.4 6.4 2.3 2.4 4.3 3.4 7 1 4-3.4 8-9.2 14-7.2q2 .5 3.6 1.4c1.7 1.4 3 3.5 4.3 5.3 1.8 2.2 3.8 5.5 7 5.4 6.5-1.5 10.6-14.7 15.8-18.6 3.5-2.8 7 .7 9.6 3 3 2 5.8 4.6 8.8 6.8 6.9 4.7 9 2.5 15.8 9.7 2.2.3 4.7 0 7 .1H184" class="b"/><path d="M8 115.7h32.4c4.6-4.3 5-2.4 9.6 0h7c5.5-4.5 8.5-22.3 17.5-12.3 2.4 2.1 6 9 9.7 7.1 2.3-1.4 4.1-3.8 6.1-5.6 4.3-4.4 8-4.3 13.1-1.4 3.6 3 5.3 8.1 9.7 10 6.2 1.7 12.2-14 16.6-17.6 3.6-3.2 7 .1 9.6 2.8q2.6 2.3 5.3 4.4a26 26 0 0 0 7 4.6c2 .8 4.1 1.1 6.1 1.8 3.2 1 5.5 4 8 6.2H184" class="b"/><path d="M8 114.7h30.6c2.2-1.3 4-4.7 7-3.9 3.2 1.1 6 5 9.7 3.5 8.5-4.7 9.4-26.2 21-10.5 5 6.3 6.4 7.9 12.2 1.2 2.5-2.7 5.7-6 9.7-5 2.6.7 5.3 1.6 7 3.9 2.5 2.7 4.6 7.4 8.7 7.7 3.9-.3 7.4-6.6 9.7-9.6 2.4-3.2 5.5-10.4 10.5-8.4 2.5 1.2 4.2 3.7 6.1 5.6 3 2.6 6 5.5 9.7 7.1 3 1.4 6.6.9 9.6 2.3q2.3 1.7 4.4 3.8c.7.7 1.6 2 2.6 2.3H184" class="b"/><path d="M8 113.7h29.8c2.3-1.7 4.5-5.8 7.8-5 2 .6 3.5 2 5.3 3 3.8 2.2 6.9-1.2 8.8-4.2 2.7-3.4 5.5-14 11.3-11 4.4 2.5 7 9.9 11.4 11.2 3.5-.1 6.7-5.7 9.7-7.6 3.8-3 7.6-1.3 11.4.8 2.2 2 3.9 4.8 6 6.8 3.9 3.8 7 1.3 9.7-2.2 2.8-3.3 5.2-7.2 7.9-10.6 6.6-8.2 10.6 3 15.7 6.5 2.4 2 5 4 8 4.7q3 .5 6 .5c2.1.2 4 1.4 5.3 2.8 1.5 1.3 3 3 4.4 4.3H184" class="b"/><path d="M8 112.7h28c1.1.2 2-.7 2.6-1.5 1.7-1.8 3.6-4.2 6.2-4.6 2 .2 3.6 1.8 5.2 2.7 3.7 2.4 6.5.7 8.8-2.5 3.6-4 6.8-17.6 14-11 2.3 2.2 4 5 6.1 7.4 1.8 2 3.7 3.4 6.1 1.5 4-3 7.5-9 13.2-7.2 7 2.3 6.5 4.3 11.4 8.7 1.7 1.6 4.2 2.1 6.1.6q2.5-2 4.4-4.7l4.4-5.9c2.6-3.7 6.1-8 10.5-3.5 1.9 1.8 3.5 4.3 5.2 6.3q2.1 2 4.4 3.7c5.1 3.8 7.4 2.8 13.1 3.2 1.8.2 3.3 1.4 4.4 2.6l4.4 4.2H184" class="b"/><path d="M8 111.7h28.9c2.2-2.4 4.4-5.9 7.9-6.5 2.3.2 4 2 6 3 3.3 1.7 6.1-.4 8-3 3.6-4 6.8-17.7 14-11.4q2.9 2.8 5.2 6c1.5 1.8 3.7 4.4 6.2 3 4.4-2.5 8-8.9 14-6.4q2.7 1.2 5.2 2.5c3 2.2 5 6.1 8.8 6.8 4.6.2 7.6-6.4 10.5-9.4 2.4-2.8 5.2-8.1 9.6-6.4 3.5 1.9 5.4 5.8 7.9 8.7 2.7 2.6 6 5.2 9.6 6.2s7.5-.8 10.5 1.5q2.3 2 4.4 4c.6.7 1.7 1.6 2.7 1.4H184" class="b"/><path d="M8 110.7h24.5q2.2 0 4.4-.2c2-2.2 5.5-7 8.7-6.4 4.1 1.5 7.2 5.7 11.4 1.7 3.5-3.4 5.2-8.3 8-12.3 1.1-1.6 3-3.4 5.2-3 4.6 1.4 6.7 6.7 10.5 9.4 5.3 3.5 9.2-8.7 17.5-4.6q2.6 1.4 5.2 2.7c1.6 1 3 2.6 4.4 3.8 4.8 4.3 8.3.5 11.4-3.6 2.4-3 5-6.3 7.9-8.8 6.4-4.7 10.1 6 14 9.4 2.6 2.2 5.4 4.5 8.8 5.2q2.5.5 5.2.3 2.9-.1 5.3 1.4l5.2 5H184" class="b"/><path d="M8 109.7h24.5c1.4-.1 3 .2 4.4-.3 2.2-2.4 4.5-5.6 7.9-6.3 2.2.1 4 2 6 2.8 6 2.5 9.1-5 11.5-9 1.8-3.1 3.7-8 7.9-8.1 4.2.7 6.5 5.2 9.6 7.7 4.8 4.4 8.7-4.5 14.9-3.5 2.2.4 4.2 1.8 6.1 2.9l2.6 1.2 3.5 2.7c5.4 4.4 9 .3 12.3-4q3.1-4 7-7.4c6.4-5.2 10.5 4.9 14 8.7a24 24 0 0 0 8.8 5.8c3 1 6.6.2 9.6 1.4 2.4 1.2 4 3.6 6.1 5.2 6.4.4 12.9 0 19.3.2" class="b"/><path d="M8 108.6h18.4c3.4 0 7 .3 10.5-.1 2.3-2.3 4.6-5.3 7.9-6 3.6.1 6.7 4.5 10.5 2.5 7.4-3.4 9.6-24.8 20.1-15.3 2.8 2.2 5.6 6.8 9.6 4.4 1.7-.8 3.5-2 5.3-2.5 2.7-1 5.6.2 7.9 1.7q1.6 1.2 3.5 2.2 1.8.6 3.5 1.9c3.7 2.7 6.9 3.4 10.5-.1q2.7-2.9 5.2-6l4.4-4c3.7-3 6.9-1.5 9.6 1.9 2.6 3 4.5 6.9 8 9.1 4.5 3.6 7.5 4 13 4.7q2 .3 3.6 1.3c1.5 1.2 2.8 3 4.3 4.3q10.1.2 20.2 0" class="b"/><path d="M8 107.6h28.9c2.4-2 4.7-4.9 7.9-5.7 3.6.2 6.7 4.4 10.5 2.4 7-3.2 9.6-23.4 19.2-17.5 3 1.7 5.8 6.2 9.7 4.8q2.5-1 5.2-2c2.4-.6 5 .1 7 1.5q2.3 1.4 4.4 3 1.7 1 3.5 1.7c3.2 2 6.4 3 9.6.6 3.3-2.5 5.4-6.3 8.8-8.7 2.8-2.3 6.2-4.7 9.6-2 4 2.8 5.8 7.7 9.7 10.7a25 25 0 0 0 13.1 5.5c3.8.7 5.4 3 7.9 5.7h21" class="b"/><path d="M8 106.4c1.4.4 3 .2 4.4.2h24.5c1.6-.7 2.9-2.3 4.4-3.2 1.5-1.1 3.3-2.4 5.2-1.6 3.8 1.7 6.9 4.2 10.5.7 5.3-4.7 7.3-16.3 14-18.3 4.8-1 7.7 5.4 12.3 4.8 3.5-1 7-2.7 10.5-.8 2.6 1.2 4.7 3.4 7 5a30 30 0 0 0 7 2.8c7.1.9 10-8 15.8-10.6 8-5.8 11.9 3 16.6 8q2.8 2.6 6.2 4.5c6.2 3.3 11.1 1.9 15.7 8.6 2.6.4 5.3 0 7.9.1h14" class="b"/><path d="m8 104.2 1.7 1.4h28c2.3-1.5 4.4-3.6 7-4.3 2 0 3.7 1.1 5.3 1.8 4.3 2.2 7.4-.8 9.7-4.3 3.5-5 5.2-12 10.5-15.6 3.3-2 6.7.8 9.6 2.3q2.1 1.2 4.4.5c7.6-2.5 10.3 1 15.7 5.6 2 1.6 4.6 2.4 7 2.8 2.6.4 5.1-1 7-2.6 3.2-2.6 5.7-6.5 9.7-8 5.8-3.1 9.3-.2 13.1 4.3 1.4 1.5 2.8 3.4 4.4 4.7l4.4 3c4.1 2.6 9.4 3 13.1 6.2 1.3 1 2.2 2.8 3.5 3.6h22" class="b"/><path d="M8 102.2c.8.7 1.7 1.8 2.6 2.4h28c2-1.3 4-2.9 6.2-3.5 3-.1 5.6 2.7 8.7 2.4 7.8-1.6 10.2-16.7 16.7-21.4 4-3 7.5.6 11.4 1.6 1.4.2 3-.4 4.3-.6 3.6-.8 7.1 1 9.7 3.4 2 1.8 3.8 4 6.1 5.3 3 1.4 6.7 1.7 9.6-.2 3.3-2 5.7-5.3 8.8-7.5 1.2-1 3-1.3 4.4-1.8 2.5-1 5.5-.9 7.8.7 3 2 5.3 5 8 7.5q2 1.7 4.3 3c6 3.7 12.7 4.4 16.6 11q11.4.2 22.8 0" class="b"/><path d="m8 100.4 2.6 3.2h28.9c1.7-.9 3.4-2.2 5.3-2.6 3.6-.2 6.8 3.6 10.5 1.7C61 99 63 91 66.7 85.6c1.9-3 4.7-6.8 8.7-6.2 1.8.3 3.5 1.2 5.3 1.7 1.4.5 3 0 4.3-.2q2.2-.4 4.4.2c3.6 1.1 6.2 4.2 8.8 6.8 2 2.3 4.7 4 7.9 3.8 6-.5 9.2-6.4 14-9.3 1.6-.8 3.5-.8 5.2-1.2 7.8-1.7 11.8 6 17.6 9.6 7.6 4.7 12.6 4.6 18.3 12.8H184" class="b"/><path d="m8 99 2.6 3.6h29.8c1.5-.3 2.9-1.5 4.4-1.8 2.1-.2 4 1.2 6 1.8q2.2.1 4.5-.2C61 99 63.2 90.6 66.7 85.1c3.4-5.6 6.1-9 13.1-6.2 1.7.6 3.5.2 5.3-.1q2.2-.3 4.3.5c6 2.1 9.3 10.7 15 11 7 .4 10.4-7.5 16.6-9.5 11-1.1 11.8.6 20.1 7.1 4.7 3.4 10.5 4.8 14.9 8.6 2 1.7 3.5 4.2 5.2 6H184" class="b"/><path d="M8 97.8c.7 1.1 1.7 2.7 2.6 3.8h28c1.8 0 3.7.2 5.3-.8 1.7-.7 3.6.3 5.2.8h7c7.6-4.9 10.3-25.4 20.2-25.2 1.7.1 3.5.8 5.2 1q1.8-.2 3.5-.5a9 9 0 0 1 4.4.7c3.6 1.7 6.1 5.1 8.8 8s5.6 4.7 9.6 2.7c4.2-2 7.1-6.2 11.4-8.2 2-.9 4.1 0 6.1-.1q7.3-.2 13.2 4.5 2.9 2.1 6.1 3.8c4 1.8 8.2 3.5 11.4 6.6 2 1.9 3.5 4.6 5.2 6.7H184" class="b"/><path d="M8 96.8c.7 1.2 1.6 2.9 2.6 3.8h29.8q2.2.2 4.4-.3c4 .4 8.1.2 12.2.3C64 95.3 66.5 77 75.4 75.2c2-.3 4.1.5 6.1.6 2-.2 4.1-1 6.2-.3 8 2 11.4 15.5 19.2 11.7 4.5-2.1 7.6-6.7 12.3-8.3 2-.6 4 .6 6.1.6 5.2.3 9.6 1.2 14 4q4.2 2.7 8.8 4.4c6.4 2.5 9.8 7 13.1 12.7H184" class="b"/><path d="m8 96.1 1.7 3q1.2.7 2.7.5h45.5c6.3-6.1 9-23 17.5-25.5 2-.4 4.1.3 6.1.3 1.5 0 3-.6 4.4-.6 8.8.2 12.8 15.4 20.2 12.3 5-2 9.1-8.9 14.9-8.2q3 1.2 6 1.6c4 .3 8 .6 11.5 2.2 1.7.7 3.5 2 5.2 2.7 2.3 1 4.8 1.6 7 2.8 5 2.5 8.1 7.4 10.6 12.2 7.5.4 15.2 0 22.7.2" class="b"/><path d="m8 95.6 1.7 3h43c2-.2 4.1.2 6-.3 5.6-6.4 8.7-22.5 16.7-25.1 2-.5 4.1.1 6.2.1 1.7-.2 3.5-.9 5.2-.6 8 1 12.4 15.3 19.3 12 4.9-2.1 9-9 14.9-7.4a17 17 0 0 0 7 2c3.8.3 7.8 0 11.4 1.5 1.4.5 2.9 1.5 4.3 2 2.3.8 4.9 1.2 7 2.3 3.4 1.7 6 4.7 8 7.8l1.7 3.1.9 1.8.8.8h22" class="b"/><path d="M8 95.2c.3.7 1 2 1.7 2.3h49c5.6-5.2 8.6-22.6 16.7-25.1 2-.5 4.1 0 6.1 0 1.7-.2 3.5-1 5.3-.7 5.4.8 8.6 6 12.2 9.4 2.4 2.4 4.8 3.6 8 1.7 4.1-2.3 7.8-7.5 13-6.4 1.6.5 3 1.7 4.4 2.1 2.8 1 6 .8 8.8.6q3.6-.4 7 .7a24 24 0 0 0 7 2.3c8 1.1 11.8 9 15 15.4H184" class="b"/><path d="m8 94.9.9 1.5c4 .3 8.2 0 12.2.1h4.4c1-.5 2.3-1.2 3.5-1.3q2.7 0 5.3 1.1c1.3.4 3 .1 4.3.2h17.6q1.7.2 3.5-.2c4.8-6.2 8.7-24.8 17.5-24.8q2.2.2 4.3.2c1.2 0 2.4-.7 3.5-.8q1.9-.3 3.5.2c4.8 1.6 7.7 6.2 11.4 9.4 3.1 2.9 5.7 2 8.8-.2 3.3-2.3 7-6 11.4-4.5 1.8.8 3.3 2.3 5.2 2.8 3.5 1 7 0 10.6-.3q2.2-.3 4.3.3c1.7.7 3.5 1.5 5.3 1.6 7.3.3 10.7 3.9 14 10 1.2 1.9 1.8 4.8 3.5 6.3h21" class="b"/><path d="m8 94.5.9 1h14.9c3.2-3.4 5.3-3.9 9.6-1.8 1.7.7 3.3 2 5.2 1.8h21c5-6 8.2-23.3 16.7-24.5 1.7-.2 3.5.3 5.2.2 1.2-.1 2.4-.8 3.5-1q1.8-.3 3.5 0c6 1.6 8.8 8 14 10.5 3 1 5.6-1.4 8-3 3-2.2 7-4.3 10.4-2q2 1.6 4.4 2.6c3.2 1 6.5 0 9.7-.6q2.5-.6 5.2-.1c1.4.4 2.9 1.2 4.4 1.2 2.3.1 4.8-.1 7 .7 6.3 2.6 8.6 10 11.4 15.7 1 .5 2.4.3 3.5.3H184" class="b"/><path d="M8 94c1 .8 2.4.4 3.5.5h6.1c6.4 0 3.9.6 7.9-3.7 2-1.8 4.8-1.4 7-.2q2.6 1.6 5.3 3.1 1.5 1 3.5.8h18.3c2.1-2 3.2-5.4 4.4-8 1.6-3.5 3.2-7.3 5.3-10.6 2.7-4.3 5.3-6.2 10.5-5.2q2.3.3 4.4-.8 3.2-1 6 0c3.5 1.5 6.1 4.5 8.8 7 2.5 2.2 4.7 3.7 8 1.9 2.8-1.5 5.4-4 8.7-4.7 8-1 5.8 7.1 19.3 3 1.6-.3 3.5-.7 5.2-.3 1.1.2 2.4.8 3.5.9 2.6 0 5.3-.8 7.9-.2 7.1 2.3 9 11.1 12.3 17h20" class="b"/><path d="M8 93.4q3.5.2 7 0c2 0 4.1.3 6.1 0 3.2-4.4 5.3-9.5 11.4-5.7 3.4 2 6.4 5.4 10.5 5.6q8.3.3 16.7.2c1.1-.8 2-2.8 2.6-4l2.6-6c2.3-4.5 4.2-10.1 8.8-12.9 2.5-1.3 5.3 0 7.9-.2 1.1-.2 2.3-1 3.5-1.3a9 9 0 0 1 7.8 1.2c3.5 2.1 6 5.7 9.7 7.6 6.6 2.3 11.3-9.6 20.1-2.1 7 5 12.7-1.6 19.3.9 3 .7 5.8-1 8.7-1 8.4.1 10.4 12 14 17.8H184" class="b"/><path d="M8 92.5h11.4c2.7-2.5 3.8-6.7 7-8.7 5-2.6 10.2 5.4 14.9 7q1.7.5 3.5.6c.8.2 1.8.9 2.6 1h12.3c2.1-1.8 3-5.2 4.3-7.7 2-4.3 3.9-9 7-12.5 3.1-3.3 5.8-2.4 9.7-2 1.9.2 3.5-1.2 5.2-1.6 4.8-1.6 9 1.9 12.3 4.9 1.8 1.4 3.7 3.5 6.1 3.7 5-.2 8.8-5.5 14-4.5 2.7.4 4.5 2.7 7 3.5 4.4 1.7 8.8-.4 13.2-.6 1.8-.2 3.5.9 5.2.7 2.7-.4 5.2-2.1 8-2.4 8-.3 10.2 13.3 14 18.6H184" class="b"/><path d="M8 91.5h10.5c1.6-2 3-4.5 4.4-6.6 1.4-2.4 3.7-5.6 7-4.5 3.4 1.2 5.9 4.1 8.7 6.2C40.1 87.8 42 89 44 89c1.6.3 3 1.6 4.4 2.5h11.4c2.2-1.8 3-5.1 4.3-7.6 2-4 3.9-8.6 7-12 3.2-3 5.9-2 9.7-1.5 1.9 0 3.5-1.3 5.2-1.8 5.5-2 10.2 2.3 14 5.5 1.5 1.1 3.3 2.5 5.3 2.3 5-1 9.5-6.2 14.9-4q1.8 1 3.5 2 2.5 1.2 5.2 1.4c3.2.2 6.5-.7 9.7-.7 1.7 0 3.5 1 5.2.6 3.1-.7 5.6-3.3 8.8-3.8 7.9-.9 10.2 14.7 14 19.6H184" class="b"/><path d="M8 90.5h9.6c2-2.5 3.6-5.6 5.3-8.3 1.9-3.4 4.6-6.6 8.7-4.1 2.6 1.5 4.7 3.8 7 5.7q1.6 1.4 3.5 2.4 1.3.4 2.7.9 2.3 1.4 4.3 3.2c3.5.3 7 0 10.5.1 2.2-1.5 3.2-4.8 4.4-7 2-4 3.9-8.3 7-11.4 3.8-3.4 6.4-1.2 10.6-1.4 2-.6 4-2 6-2.3 6-1.2 10.3 4.2 15 6.9 4.5 2 8.8-2.8 13.1-3.7 6.8-1.4 6 3.9 18.4 3 9.8-.6 6.8 3.6 15.8-3.2 8.1-6.2 11.5 6.3 14 12l1.7 4.3.9 2 .9.8H184" class="b"/><path d="M8 89.5h8.7c2.6-2.8 4.2-6.5 6.2-9.7 1-1.8 2.3-4 4.4-5 4.6-1.8 9 4.6 12.2 7q1.6 1.6 3.5 2.4a12 12 0 0 1 4.4 2.7c3.3 3 2.6 2.6 7 2.5h4.4c1.2.3 2-.7 2.6-1.7 3.6-5.4 5.8-14.3 12.3-17 2.2-.7 4.7.2 7 .3 1.5 0 3-1 4.4-1.5 2.4-1.1 5.3-1.4 7.8-.5 2.6.8 4.9 2.5 7 4 2.1 1.6 4.4 3 7 2 3.4-1 6.3-3.3 9.7-4q2.2-.6 4.4 0 2.2 1 4.3 1.6c3.2.7 6.5.7 9.7 1q3 .3 6.1 1c2.7 1 5.1-1.5 7-3.2 4.9-4.6 8.6-6.2 12.3.8 2.7 5.5 4.7 11.6 7 17.2H184" class="b"/><path d="M8 88.4h7.9c1.1-.4 2-2 2.6-3l3.5-6.2c2.1-4 5.2-10 10.5-6.3 3.3 2.2 5.7 5.5 8.8 8q1.6 1.2 3.5 2l2.6 2c1.4 1.2 2.6 3 4.4 3.5H57c1.1 0 2.5.2 3.5-.3 4.6-5.3 7.2-17.3 15.8-17.1 1.4 0 3 .4 4.4.3 1.5 0 3-1 4.3-1.5a13 13 0 0 1 5.3-1 20 20 0 0 1 9.6 4c1.8 1.2 3.9 2.6 6.1 2.1 4.4-.7 8-4 12.3-4.7 1.8-.3 3.6.3 5.3.7 1.3.3 3 .5 4.3.6q4.6.4 8.8 1.4c2 .3 4 1.3 6.1 1.3 4.4-1.5 6.5-6.4 10.5-8.6 5.7-2.6 8 6 9.7 9.7l3.5 9.6c.1.8 1.1 2.9 1.7 3.5H184" class="b"/><path d="M8 87.4h7.9c2.9-3.5 4.8-7.8 7-11.8 3-6.1 6.6-9 12.2-3.3 2.4 2.3 4.5 5 7 7q3.4 2 6.2 4.7c1.3 1.1 2.6 3 4.3 3.4h8c4.7-5 6.9-14.8 14.8-16 2.6-.1 5.5.8 7.9-.6 6-3 11.2-1.4 16.6 2 2.1 1.2 4.5 2.6 7 1.9 4.6-1 8.4-4.6 13.2-5 2-.1 4.1.3 6.1.3q5 0 9.6 1.5l4.4 1.5q1.8.8 3.5 0c4.2-2.3 6.3-7.4 10.5-9.7 5.2-2 7.2 6 8.8 9.5 1.8 4.7 3.4 10 5.2 14.6H184" class="b"/><path d="M8 86.4h7c2.9-1.8 5.3-7.8 7-10.8 4-8.4 7.6-12.5 14.9-4q2.5 3.1 5.2 5.9 3.2 2.3 6.2 5 1.6 1.7 3.5 3 .7.8 1.7 1h7c2-1.1 3-3.8 4.4-5.5 3.5-5.3 7.1-9.7 14-9.2 2.2.2 4.2-.8 6.1-1.5q2.6-.8 5.3-.6c3 .1 6 1.3 8.8 2.6 2 1 3.9 2.4 6 2.5 4 .1 7.3-2.2 10.6-3.8q3.6-2 7.9-2 3-.6 6.1-.4 3.7.4 7 2c2.2.7 4.7 2.6 7 1.5 4.3-2.7 6.3-8 10.5-10.6 5.2-2.5 7.3 5.5 8.8 9 1.8 5 3.5 10.5 5.2 15.5q1.3.6 2.7.4H184" class="b"/><path d="M8 85.4h7c4.8-5 6.7-12 10.5-17.7 5.4-7.8 11.2 1.8 14.9 6.1 1.7 2.3 4 3.9 6.1 5.7 2.3 2 4.5 4.3 7 6h8c1.7-1.5 2.9-3.8 4.3-5.5 2.3-3 5-6 8.8-7.3 2.5-.9 5.3-.7 7.8-1.5 6.4-2.8 13.4-.4 19.3 2.5 6.8 3.8 13-2.9 19.3-4.9 5.6-1.5 9.2-3.1 14.9-.1 2.4 1 5.2 3.5 7.8 2.2 4-2.6 6-7.4 9.7-10.4 6.2-5 8.8 6.5 10.5 10.6l3.5 10.8.9 2.6.8.9h15" class="b"/><path d="M8 84.3c1.7.3 3.5 0 5.2.1 2.2.4 3.3-2 4.4-3.5 2-3 3.6-6.6 5.3-10 1.6-3 3.2-7.3 7-8.1 5-.2 9 8.3 12.2 11.6q2.1 2.2 4.4 4 3.3 3.1 7 5.8 1.7.3 3.5.2h5.3c4.5-5 8.6-11 15.7-12.4 2.7-.4 5.3-1.5 8-1.8 5-.4 10 1.4 14.8 3.3 6.4 3.4 11.1.7 16.6-2.8q3.4-2 7-3.6c3.4-1.8 7-2.4 10.6-.5 2.5 1 5 3.6 7.8 3.2 1.8-.5 3.2-2.1 4.4-3.5 2-2.3 3.8-5 6.2-7.1 6.2-5.3 8.8 6.2 10.5 10.3l3.5 11.1c.1.8 1 3.3 1.7 3.8H184" class="b"/><path d="M8 83c1.2.8 3 .3 4.4.4H14c1.5-.6 2.6-2.3 3.5-3.6 2-3 3.7-6.7 5.3-10s3.2-7.7 7-8.7c5.3-.6 9.6 9.9 13.1 13.3q5 4.7 10.5 8.7c1 .5 2.4.3 3.5.3h6.1c7.6-7.3 10-11 21-13.3 5.2-.5 10.1 1.6 15 3 6.9 2.6 9.9 3.6 16.6-.7l7.9-5.3c1.8-1.3 3.8-2.8 6.1-3.2 2.9-.6 5.6 1 7.9 2.4 1.5 1 3.3 2.3 5.2 2 1.8-.6 3.2-2 4.4-3.4q2.5-3.2 5.3-6.1c5.8-6 8.8 2.2 10.5 7 1.2 3.4 2.4 7.5 3.5 11 .7 1.8 1.1 5.1 2.6 6.6H184" class="b"/><path d="M8 81.6q1.1 1 2.6.8h3.5c9-5 11.5-36 23.7-16.5 1.7 2.6 3.3 5.5 5.2 7.9q2.8 3 6.1 5.3l4.4 3.1c1.4.3 3 .1 4.4.2 8-.2 5.5 1.2 11.4-4.3 4.4-4 9.6-8.4 15.8-8.6 3 .1 5.9 1.4 8.7 2.3 2.9 1 6 1.6 8.8 2.6q7 3.1 13.1-1.2 4.2-3 7.9-6.3c2-1.8 4.2-4.1 7-4.7 3.7-.7 6.6 2.3 9.6 3.8 4.7 2.6 9-5.7 12.3-8.3 5.8-5.6 8.9 2.6 10.5 7.3 1.9 5.4 3.5 11.3 5.3 16.6l.8.8h15" class="b"/><path d="M8 80.3q1.5 1.2 3.5 1c1.1 0 2.6.3 3.5-.5C22.6 75.4 25.8 49.5 35 61c4.4 5.7 6.7 13.2 13.2 17 1.6 1 3.4 2.4 5.2 3.3h12.3c1.4-.4 2.4-1.9 3.5-2.8 4.2-3.7 8.2-8.8 14-10 3-.2 6 1.5 8.7 2.6 3.4 1.5 7 2.3 10.6 3.3 4 1.6 8.2 2.7 12.2.2 3.3-2 6.1-5 8.8-7.8 1.8-2 3.7-4.5 6.1-5.9 3.8-2.1 7.3 1.3 10.5 3 4.7 2.5 8.8-4.8 12.3-7.2 5.9-5 8.9 3.2 10.5 7.7 1.8 5.4 3.5 11.3 5.2 16.6 2 .5 4.2.1 6.2.3h9.6" class="b"/><path d="M8 79q1.2.8 2.6 1.4h1.8q2 .1 3.5-1.3c3.2-3.3 5-7.8 7-11.9 2.8-6.6 6.8-15.6 13.1-5.8 3.7 5.4 5.6 12.4 11.4 16q1.7 1 3.5 2l1.8 1h14q1.6 0 2.6-1.3l2.6-2.8c3.2-3.1 7.3-9 12.3-8.7 2.8.5 5.3 2.3 7.9 3.6 3.5 2 7.5 2.5 11.3 3.7 4.8 2 8.7 3.2 13.2-.4q4-3.3 7-7.5c1.9-2.4 3.7-5.3 6.1-7.2 3.8-3 7.2.3 10.5 2.2 5 2.4 9-4.5 13.2-6.5 5.5-2.8 8.1 5 9.6 9 1.9 5 3.2 10.8 5.3 15.9H184" class="b"/><path d="m8 77.7 2.6 1.5q1.3.3 2.6.2c1.9 0 3.3-1.8 4.4-3 2.6-3.6 4.4-8 6.1-11.9 1.1-2.5 2.4-5.4 4.4-7.3 4.4-3.8 7.8 3.5 9.7 6.7 1.6 3.1 3.2 6.6 5.2 9.6a15 15 0 0 0 7 5.3q1.7.8 3.5.6h15.8c4-3.7 8-11.6 13.1-13 3-.4 5.5 1.9 7.9 3.4q2.9 2 6.1 3.3 3 .9 6.2 1.5c3.1 1 6.1 3.3 9.6 2.9 5.4-.8 9.5-7.2 12.2-11.5 2.6-3.8 5.8-11 11.4-8.7 2.1.9 4 2.7 6.2 3 5 .3 8.2-5.2 13.1-5.5 7.7.1 9.6 19.6 13.1 24.6H184" class="b"/><path d="M8 76.6c1.6 1 3.2 2 5.2 1.7 1.8.2 3.3-1.5 4.4-2.7 2.6-3.5 4.4-7.8 6.1-11.7 1.3-2.9 2.6-6.4 5.3-8.2 6.4-3.4 11.3 16.8 15.7 20.3q1.9 1.7 4.4 2.3h21.1c3.6-3.6 7.3-12 12.2-13.5 3.6-.1 6 3.2 8.8 5q3 2.6 7 3.8 2.7.6 5.2 1.2c3.2 1.3 6.1 3.9 9.7 3.4 4.9-1 8-6.4 10.5-10.3S129.4 54.5 135 55c2.5.4 4.5 2.6 7 3 4.7.5 8.4-3.9 13.1-3.3 6.9 1.1 9.8 17.6 12.3 23.5H184" class="b"/><path d="M8 75.5q1.6 1.2 3.5 1.8h1.7c2.4.3 4-1.9 5.3-3.6 2.1-3.1 3.8-7 5.2-10.5 1.3-2.9 2.6-6.4 5.3-8.3q1.8-.8 3.5.5c3.8 3.7 5.5 9.2 7.9 14 1.3 2.7 2.7 6 5.2 7.8 4.6.3 9.4 0 14 .1h7c1.4 0 3 .2 4.4-.2q3-4.6 6.1-9.3c1.7-2 4-5.6 7-4.3 3.8 1.8 6.3 5.5 9.7 7.8q2.4 1.7 5.2 2.4 2.2.4 4.4 1c5.7 2.8 2.7 2.7 9.6 2.6h3.5c.6 0 1.4-.7 1.8-1.2 3-3.2 5.1-7.2 7-11.2 2.1-3.8 5.1-12.4 10.5-11.5 2.4.6 4.5 2.6 7 2.6 4.4.3 9-2.8 13.2-.7 4.5 2.6 6.1 8.4 7.8 13 1.2 2.8 1.7 6.7 3.5 9H184" class="b"/><path d="M8 74.7c1.3.8 2.7 1.9 4.4 1.6 1 0 2.5.3 3.5-.4 3.4-2.8 5.2-7.4 7-11.3 1.7-3.8 5.1-15 10.5-8.7 4.6 6 6.1 14 10.5 20.2q1.7.4 3.5.2H71c2.4-3 4-6.6 6.2-9.8 1.1-1.7 2.5-3.7 4.3-4.7 3-1 5.2 2.1 7 3.8 3.2 3.4 6.7 7.2 11.4 8q1.8.3 3.5.8c1.2.4 2.4 1.5 3.5 2 4.1-.2 8.3.2 12.3-.2 5.8-6.8 7-16.6 13.1-23.2 2.5-2.3 5.3-1 8 .3q2 .8 4.3.8c2.9 0 6-.4 8.8.3 8.4 2.9 9.8 14.8 13.1 22H184" class="b"/><path d="M8 74c1 .6 2.2 1.5 3.5 1.3q2.2.2 4.4-.1c5.6-4.8 6.8-12.8 10.5-19 3.4-5.5 6.5-2.1 8.7 2 3 5.5 4.8 11.8 8 17.1h28c3-3.9 4.8-8.9 7.8-12.8 2.8-3.7 5-3 7.9 0 3.3 3.4 6 7.8 10.5 9.8q2.5 1 5.3 1.3c1.2.3 2.3 1.4 3.5 1.7h14c.6-.3 1.4-1.4 1.7-2 1-1.6 2-3.8 2.6-5.5 2.4-5.3 4.2-11.2 8-15.7 3.5-4 6.4-.5 10.4 0 3.2.6 6.6.7 9.7 1.9 8.2 3.4 10.2 13.3 13.1 20.8.7.6 1.8.5 2.6.5H184" class="b"/><path d="M8 73.6q1.6 1 3.5.7h4.4c4.3-3.3 6.5-10.7 8.7-15.6 3.3-7.5 6.6-8.3 10.5-.6 2.6 5.2 4.5 11 7 16 3.5.4 7 .1 10.5.2H71c3-4.2 4.9-9.2 8-13.3 3.2-4.7 5.7-2.2 8.7 1.2 2.9 3.3 5.5 7.4 9.6 9.4q2.5 1.2 5.3 1.4l2.6 1.3h11.4c1.7-.1 3.6.3 5.2-.3 3.7-5.5 7.8-25.1 15-25 1.7 0 3.4 1 5.2 1.4 3.5.7 7.3 1.6 10.5 3.4 4.6 2.6 7.6 7.5 9.6 12.3 1.2 2.5 1.8 6 3.5 8.2H184" class="b"/><path d="M8 73.3h5.2c1.1 0 2.5.2 3.5-.3 4.7-5.2 6.2-12.5 9.7-18.5 5.6-8.4 10.3 7.8 12.2 11.8l1.8 4.3c.2.7.9 2.4 1.7 2.7h24.5c1.4 0 3 .2 4.4-.3 3.3-5 5.3-11.3 9.6-15.5 3.2-2.4 6 2.3 8 4.4 2.9 3.6 5.8 8 10.4 9.5 1.4.5 3 .5 4.4 1 1.2 1 3 .9 4.4.9h9.6c1.7-.1 3.7.3 5.3-.3 3.3-6.2 6.9-22.4 13.1-25 1.8-.5 3.6.3 5.3.7q3.1.7 6.1 2c10.2 4 13.8 13.2 17.5 22.6H184" class="b"/><path d="M8 72.3h8.7c4.4-4.7 6-11.4 8.8-17 7-12.7 12.5 12.7 15.8 17h28.9c1.1-1 1.9-2.8 2.6-4 1.6-3.2 3.3-6.7 5.2-9.6 2.4-3.7 4.5-5.3 8-1.5 4 4.4 7 10.8 13 13q1.7.5 3.6.7c.8.2 1.8 1 2.6 1.4h17.5l.9-.7c3-6 6.8-22.7 13.1-24.7q2.2-.3 4.4.4a22 22 0 0 1 7 2.7c8 4.7 12.7 13.4 15.8 22q1.2.5 2.6.3H184" class="b"/><path d="M8 71.3H14q1.8.1 3.5-.3c3.4-4.9 5.2-10.8 7.9-16.1 3.9-7 7.5-1 9.6 3.5 1.9 4 3.5 8.6 5.3 12.6 1.3.5 3 .2 4.3.3h8q8.7 0 17.5-.1c2.1-3.8 4-8 6-11.7 1.2-2 2.6-4.4 4.5-6 3.1-2 6 3.2 7.8 5.3 3 4 6.2 8.9 11.4 10.2q1.8.3 3.5.8c.9.4 1.7 1.4 2.7 1.5h17.5c2-3 3-7.3 4.4-10.6 2-4.8 4-12 8.7-14.7q2.2-.7 4.4 0c4.5.7 8.3 3.7 11.4 6.9q4.8 5.1 7.9 11.5c1.2 2 1.8 5.1 3.5 6.9H184" class="b"/><path d="M8 70.3h9.6c4-5 5.2-11.8 8.8-17 6.3-7.5 11 13.8 14 17h28.9c1.1-1 1.9-3 2.6-4.3 1.4-2.8 2.9-6 4.4-8.7s4.2-8.4 7.9-5.4c4 3.7 6.4 9 10.5 12.6q2.6 2.4 6.1 3 1.4.2 2.6.7 1.6.8 2.7 2h18.4c3.5-7 6-20.1 12.2-24.8 4.2-2.2 9.1.7 12.3 3.5 6.4 5.7 10.2 13.8 14 21.4h21" class="b"/><path d="M8 69.3h7c1.1-.1 2.5.2 3.5-.5 2.7-4.5 4.4-9.8 7-14.4 6-9.6 11.8 10.7 14 14.8q8.3.2 16.7 0H64q2.7.2 5.3-.1c2.8-5 5-10.6 7.9-15.6 3.4-5.7 5.6-5.9 9.6-.5 3 3.9 5.5 8.4 9.6 11.2q1.7 1 3.5 1.5 1.8.3 3.5.7c1.3.7 2.4 2 3.5 2.8h15.8q1.4.1 2.6-.3c3-6.7 6.2-20.7 12.3-24.6 10.7-4.3 21 17.1 24.5 25H184" class="b"/><path d="M8 68.2h10.5c2-3.2 3.6-7.2 5.2-10.7.9-1.7 2-4 3.5-5 5.6-3 9.6 12.7 12.3 15.7h28.9c1.6-1.6 2.5-4.4 3.5-6.4Q74.6 55.6 78 50c3.6-5.1 6-2.4 8.8 1.4 3.9 5.3 7.6 12.4 14.9 13a6 6 0 0 1 3.5 1.6c.8.7 1.6 2 2.6 2.3h17.5c.8-.5 1.5-2.5 1.8-3.4l1.7-4.7c2.1-5.3 4-11.2 8-15.5 2-2.2 5.2-2 7.8-.6 7.9 4.8 12.7 15.6 16.6 23.6l1 .6H184" class="b"/><path d="M8 67.2h10.5c1.3-.8 1.9-3 2.6-4.3 1.1-2.3 2.3-5.1 3.5-7.3 5.8-10.4 11.5 7 14 11.4 1.7.4 3.6.1 5.3.2H63c1.7 0 3.6.2 5.3-.2 3-5.8 5.3-12.3 8.8-18 3.8-6 6.1-4 9.6 1 2.9 3.9 5.4 8.5 9.6 11.2 5.5 2.9 6.5-.3 11.4 5.9 6.1.3 12.3 0 18.4.1 3.5-6.3 6.5-21.2 13.1-24.4 6.5-1.6 12 6.8 15 11.6q2.2 3.9 4.3 8.1c.7 1.4 1.5 3.6 2.6 4.7H184" class="b"/><path d="M8 66.2h7c1.4 0 3 .2 4.4-.2l3.5-7.2c1.2-2.3 2.3-5.8 5.2-6.3 5 .4 7.8 10.3 10.5 13.7h29c1-1.1 1.9-3.4 2.6-4.8q2.4-5.7 5.2-11.5c1.7-3.1 5-9.2 8.8-4.6 4 4.4 6.4 10.4 11.4 14q2 1.4 4.3 1.8c1.5.2 3.2.2 4.4 1 1.7 1 3 2.8 4.4 4.1h18.4c2.9-6.4 6.3-19.8 12.2-23.3 9.7-2.9 17.5 16.5 21 23.3H184" class="b"/><path d="M8 65.2h11.4c2.2-3.4 3.5-7.8 6.1-11 5-5.4 10 7.2 12.3 10.5q.8.6 1.7.5h9.6c6.1-.1 12.4.2 18.4-.1 2.8-5.6 5-11.8 8-17.3 2.5-4.6 5.4-8.7 9.5-2.7 3.6 4.6 6.2 10.6 11.4 13.7q3 1.3 6.2 1.4c1.6.3 3.2 1.5 4.3 2.7.8.7 1.6 2 2.7 2.3h15.7q1.5.1 2.7-.3c2.7-6.2 6-17.8 11.4-21.7 9.3-3.2 17 15 20.1 21.5 1 .8 2.4.4 3.5.5h21" class="b"/><path d="M8 64.2h11.4a7 7 0 0 0 1.7-2.6c1-2 2.3-4.5 3.5-6.4 5-7 10.5 5.4 13.2 9h28.9c3.7-3.6 10-31.5 17.5-21.3 3.8 4.7 6.2 10.9 11.4 14.4 6.7 3.6 7-1 14 6.9H128l.8-.6c2.4-4.8 6.8-19.5 12.3-20.3 10 .6 14 13.7 18.4 20.9H184" class="b"/><path d="M8 63.2h7.9c1.4-.1 3 .3 4.3-.4 2.3-3.7 5-13.2 10.5-8.2 2.8 2.4 4.5 6 7 8.6h29q3.2-7.1 6-14.2c1.9-3.6 5.7-13.4 10.6-8 5.5 6.2 8.5 17.4 18.4 17.2 3.2 0 5.8 2.3 7.9 4.6q1.2.6 2.6.4h16.6c.8-.3 1.5-2 1.8-2.7l1.7-4c2-4 3.6-8.7 7-11.6 1.6-1.2 3.6-.6 5.3 0 7.3 2.7 10.7 11.6 14 18q1.7.5 3.5.3H184" class="b"/><path d="M8 62.2h12.2c3.2-5.7 5.7-13.5 12.3-5.8l3.5 4.2c.3.5 1.2 1.4 1.8 1.6h28c.7-.4 1.5-2 1.7-2.8 1.2-2.6 2.4-5.8 3.5-8.4 2.3-4.8 7.2-18.8 13.2-9.6 3.6 5 6 11.3 11.4 14.8a11 11 0 0 0 5.2 1.3c4 0 6.8 2 9.6 4.7h19.3l.9-.6c1.9-4 3.7-8.5 6.1-12.3 1.4-2.2 3.3-4.6 6.2-3.8 5.8.6 9.5 5.8 12.2 10.6 1.2 1.8 2 4.5 3.5 6H184" class="b"/><path d="M8 61.2h12.2c4.2-6.9 5.9-12 13.2-4l2.6 2.7c.4.5 1.2 1.2 1.8 1.3h28c2.6-5.2 4.5-11 7-16.1 2.6-5.4 6.5-12 11.4-4.1 3.6 5 6 11.5 11.4 15 5.5 2.7 8.7-.8 14.9 5 4 .3 8.2 0 12.2.2h5.3q1.7.2 3.5-.3c2.3-4.3 4.6-11.1 8.7-13.8 9.6-1.5 13.9 6.9 17.6 14H184" class="b"/><path d="M8 60.2h12.2c4-5.7 5.4-10.8 12.3-4.3 1.7 1.3 3.2 3.5 5.3 4.3h27.1c.8-.4 1.5-2 1.8-2.7l2.6-6.3c2.7-5.9 7.9-22.3 14.9-10.5 3.6 5.2 6.2 12.9 12.2 15.7 3 1.2 6.5.3 9.7 1.2q1.9.5 3.5 1.7c.3.3 1.2.8 1.7.9h21c2.3-3.6 3.8-8 7-10.9 1.2-1.1 3-.7 4.4-.7 4.7 0 8.1 2.9 10.5 6.6L156 58c.3.6 1 2 1.7 2.2H184" class="b"/><path d="M8 59.2h12.2c3.7-4.8 5-9.8 11.4-4.5 2 1.5 3.9 3.4 6.2 4.4h27.1c3-5.6 5-12 7.9-17.6 3.6-6.8 7-8.2 11.4-1C87.7 45.9 90.9 55 97.3 57c3.2.7 6.5 0 9.6.6q1.5.4 2.7 1 .8.6 1.7.6h22c1.2-.5 1.8-2.5 2.5-3.6 1.4-2 2.8-4.7 5.3-5.3 2.3.3 4.8-.1 7 .5 2.6.8 4.6 2.8 6.1 5 .8 1 1.6 2.6 2.7 3.4H184" class="b"/><path d="M8 58.1h12.2c1.5-1.7 2.6-4 4.4-5.5 3.6-2.5 7.5 2.4 10.5 4q1.7 1 3.5 1.5h3.5c1.5.1 3-.3 4.4-.3 1.1 0 2.4.4 3.5.3h14c4.4-4.2 9.7-32 18.4-20.2 4.1 5.6 6.3 12.7 11.4 17.5 1.6 1.4 4 2.2 6.1 2l6.2-.1q1.3 0 2.6.2c.8.3 1.8.8 2.6.6H135c1.9-2 3.1-5.4 6.1-6h2.6c6.8-.8 8.2 1.4 12.3 6h28" class="b"/><path d="M8 57.1h12.2c5.5-8.3 6.4-7 14-2q2.9 1.6 6.2 1.4c4.7-.7 6.6-2 11.4.4q1.2.3 2.6.2h7.9a3 3 0 0 0 1.7-.4c3-5.4 5-11.5 8-17 3.6-6.7 7-7.5 11.3-.6 3.5 5.5 5.7 12.1 10.5 16.7l1.8 1.3h41.1c1.3-1.2 2.5-3 4.4-3.3q1.3.2 2.6 0c4.4-.7 7.4-.7 10.5 3q1.3.4 2.7.3H184" class="b"/><path d="M8 56.1h7.9c1.4 0 3 .2 4.3-.2 5.4-8.5 6.5-6.3 14-2q3 1.5 6.2.9c1.4-.3 3-1 4.4-1.3 3.4-1 6.7 1 9.6 2.6 2.8-.1 6 .3 8.8-.2 3.2-5 5-11 7.8-16.2 3.3-6.2 6.8-9.2 11.4-2 2.6 4 4.6 8.6 7 12.7 1.2 2 2.5 4.3 4.4 5.7h45.5c1-.8 2.4-.6 3.5-.5 1.8-.1 3.6-.7 5.3-.8q2.3-.2 4.4 1.2 2.2.1 4.3.1H184" class="b"/><path d="M8 55.1h11.4c2.4-1.8 3.5-6 7-6.2 2.3.2 4.2 1.8 6.1 2.9 4.7 2.9 7.6 1.7 12.3-.1 4.1-1.3 7.9 1.5 11.4 3.4h5.2c2.3-1 3.2-4.1 4.4-6.1 2.2-4.6 4-9.6 7-13.7 5.2-7.2 9.9 2.4 12.3 6.9 2.1 4.2 4.1 8.7 7 12.6 1.3.6 3 .2 4.4.3H184" class="b"/><path d="M8 54.1h7q2.2.1 4.4-.2c5-6.7 5.5-8.7 13.1-3.5 4.7 3 7.6 1.7 12.3-.3 6.5-2.2 10.6 4.7 15.7 3.5 3.3-1.5 4.5-5.6 6.2-8.6 1.8-3.7 3.5-7.9 6-11 5-6 9.3 2.4 11.5 6.3 2.3 4.4 4.3 9.3 7 13.5 1.3.6 3 .2 4.4.3H184" class="b"/><path d="M8 53h10.5c2.2-2.4 3.8-6 7-7.3 2-.3 3.7 1 5.3 1.9 11.4 8.2 11.7-4 22.7 2.1 2.1 1 4.6 2.7 7 1.9 2.7-1.2 4-4.3 5.3-6.7C67.4 41.7 69 38 71 35c6-9.6 11 1.4 14 7l3.5 7.2c.7 1.1 1.4 3.1 2.7 3.8H184" class="b"/><path d="M8 52h9.6c2.6-2.3 5.5-9.4 9.6-8.2 5 1.8 8.2 6.6 14 4.4 5.1-2.4 7.1-3 12.3-.3 1.9 1 4 2.2 6.1 2 3.3-.5 4.7-4.2 6.2-6.8 1.8-3.4 3.6-7.2 6.1-10.2 7.8-9 14.5 15 18.4 19.2H184" class="b"/><path d="M8 51h8.7c2.8-2.7 4.7-6.7 8-9 2-1.2 4.3.3 6 1.5 2.8 1.9 6.1 4 9.7 3.1 2.4-.5 4.5-2.3 7-2.3 4.2 0 7.4 3.5 11.4 4 3.7.2 5.4-4 7-6.7 1.8-3.2 3.5-6.8 6.1-9.4 4-4 7.5.5 9.6 4 3 4.6 5.2 10 8 14.7 1.3.4 2.9.1 4.3.2H184" class="b"/><path d="M8 50h7.9c3.1-3 5.2-7.4 8.7-10 2-1.3 4.4 0 6.1 1.2 2.9 2 6 4.2 9.7 3.5 2.1-.3 4-1.8 6.1-2 4.6-.6 8 3.5 12.3 4 3.7.3 5.3-3.9 7-6.5 1.8-3 3.5-6.3 6.1-8.7 4.6-3.8 8.4 2.8 10.5 6.3 1.6 2.5 3 5.5 4.4 8 .7 1.3 1.5 3.3 2.6 4.3H184" class="b"/><path d="M8 49h7c3-2.7 5.1-6.4 7.9-9.4 2.5-3 4.9-2.5 7.9-.6 3 2 6.5 4.7 10.5 3.7 1.4-.4 2.9-1.3 4.3-1.6 4.6-1 8.2 3 12.3 4.1 3.4 1 5.5-2.4 7-4.9 2-3.2 4-7 7-9.3 4.2-3 7.7 2.4 9.6 5.5 2.6 3.9 4.7 8.3 7 12.3 1.4.5 3 .2 4.4.3H184" class="b"/><path d="M8 48H14c3.2-2.4 5.4-6 7.9-9.1 2.7-3.6 4.8-4.5 8.7-2 3.2 2 6.6 4.7 10.6 4 1.4-.3 2.9-1.2 4.3-1.5 4.7-.7 8.1 3.3 12.3 4.5 3.4 1 5.5-2.4 7-4.9 2-3 4-6.5 7-8.5C78.6 26.4 85.1 44 88.6 48H184" class="b"/><path d="M8 47h5.2c1.4-.5 2.6-1.9 3.5-2.9 1.9-2 3.6-4.6 5.3-6.7 1.8-2.3 3.8-4.6 7-3.3 4 1.6 7.5 5.6 12.3 5 2-.2 4-1.7 6-1.3 5 .4 10.2 7.9 15 3.5 3.3-3.7 5.2-9 9.6-11.4 5.3-2.2 8.9 5.6 11.4 9.1 1.7 2.5 3 6 5.2 8H184" class="b"/><path d="M8 46c5 0 5.1.9 8.7-3q2.8-3.4 5.3-6.9c1.3-1.6 2.9-3.8 5.2-4 4.6.3 7.8 4.7 12.3 5.4q1.8.3 3.5-.2 1.3-.6 2.6-.8c5.7-.8 10.7 7.3 15.8 4.2 3.4-3 5.1-7.6 8.8-10.4 5.8-4.5 10.2 4.2 13 8.3l3.6 5.5c.2.5 1.2 1.6 1.7 2H184" class="b"/><path d="M8 45h5.2c3.4-2 5.6-5.5 8-8.6 1.7-2.3 3.6-5.7 7-5.5 5 .5 8.6 5.9 14 5.2q1.2-.3 2.6-.8 1.7-.3 3.5.2c4.9 1.5 10.5 8.3 14.9 2.2C66 34 69.9 26.4 75.4 29c3.5 2 5.6 5.7 7.9 8.9 1.7 2.3 3 5.2 5.2 7.1H184" class="b"/><path d="M8 44h3.5c1.2 0 2.6 0 3.5-.9 3.1-2.7 5.3-6.4 7.9-9.7 3-4.3 6-4.5 10.5-1.9C36 33 38.9 35.1 42 35c1.2-.1 2.4-.8 3.5-.8q2.3 0 4.4 1c3.3 1.5 6.7 5 10.5 3.5A10 10 0 0 0 64 35q2-2.8 4.4-5.2c4.9-4.8 9-.9 12.3 3.5 2.6 3.4 5 7.3 7.8 10.6H184" class="b"/><path d="M8 43c2.3-.1 4.7.3 7-.2 3.6-3 5.9-7.3 8.8-10.8 3-4 6.6-3.5 10.5-1.2 2.4 1.3 5 3.1 7.8 3 1.2 0 2.4-.7 3.5-.7q2.4 0 4.4 1.2c3.3 1.4 6.8 4.6 10.5 3 1.5-.7 2.6-2.3 3.5-3.5a27 27 0 0 1 5.3-5.7c5.4-4 10.1 2.6 13.1 6.5l4.4 5.8c.7.8 1.6 2.1 2.6 2.6H184" class="b"/><path d="M8 42h7.9c2.7-2.5 4.8-6 7-9 2-3 4.9-5.6 8.7-4.3 3.9 1 7.2 4.7 11.4 4.2a8 8 0 0 1 5.3-.1c5.2 1.8 10.4 6.9 14.9.7 2.7-3.4 6.2-9 11.3-7.4 3 1 5.1 3.7 7 6q3.8 5 8 9.6c1 .5 2.3.2 3.4.3H184" class="b"/><path d="M8 41h7c2.6.3 3-1 4.4-2.7 3.2-4 6-11.4 12.2-10.2 3.7.8 6.7 3.8 10.5 4.1q1.3-.1 2.7-.4 2.2-.2 4.4.6c3.8 1.4 8.4 4.7 12.2 1.5 2-1.7 3.4-4.3 5.3-6.1q6-6.4 12.2 0c2.8 2.8 5.3 6.1 7.9 9 4.2 4.6 2.6 4.2 8.8 4.2H184" class="b"/><path d="M8 40h10.5c4.2-5 7.7-15 15.8-11.5 2.6 1 5 2.9 7.8 3.1 1.5 0 3-.6 4.4-.3 3.9.4 7.4 3.1 11.4 2.7 2.7-.3 4.7-2.6 6.1-4.6q2-2.6 4.4-4.6c5-3.9 9.7.3 13.1 4.2q4.3 5 8.8 9.7 1.4 1.6 3.5 1.3h15.8l1.7-.7q1.8-.4 3.5.3 1.2.6 2.7.4H184" class="b"/><path d="M8 39h11.4c1-.7 1.9-2.3 2.6-3.3 1-1.5 2.3-3.4 3.5-4.8 4.7-5.2 8.7-2.9 14-.3a8 8 0 0 0 3.5.6q1.8-.4 3.5-.3c3.3.3 6.3 2 9.6 2 4 .2 6.6-3.3 8.8-6.2 3.2-4 7.5-6.8 12.3-3.4 4 2.9 7.1 7 10.5 10.6 1.6 1.7 3.1 4 5.2 5h15.8c3.4-1.7 5.3-2.4 8.7 0H184" class="b"/><path d="m8 38 13.1-.1c3-4.4 6.7-11.5 13.2-9.7 2.4.6 4.6 2 7 2.6q1.7.3 3.5-.2 2.2-.2 4.4.3c5.8 1.4 10 1.7 14-3.6 4.2-5.8 9.2-10 15.7-4.5 5.2 4.4 9.2 10.1 14 15 2 .4 4.2 0 6.2.1h9.6c3.9-3 6.6-3 10.5 0H184" class="b"/><path d="M8 37h14c1.4-1.1 2.3-3.2 3.5-4.5 1.7-2.1 4.1-4.2 7-4.3 3.1-.1 5.8 1.8 8.8 2.5q1.7.2 3.5-.2 2.2-.2 4.3 0c6 1 10.3.3 14-4.8 5.2-7.2 10.4-10 17.6-3.2q4.2 4 7.8 8.6c1.7 1.9 3.2 4.4 5.3 5.8h14.9c5-4 7.1-3.8 12.2 0h15c1.2-.9 2.7-1.9 4.3-1.9.5 0 1.4.5 1.8.8q.6.8 1.7 1.1H184" class="b"/><path d="M8 36c5.2-.2 10.5.1 15.7-.2 2.5-3.8 6.4-8.3 11.4-7.1 2.4.5 4.6 1.8 7 2q1.8-.1 3.5-.4l3.5-.1c6 .3 10.5-1.3 14-6.2 5.7-7.9 11-9.8 18.4-2.5 3 2.7 5.5 6 8 9.1 1.3 1.7 2.5 4 4.3 5.3h13.1c.8 0 2 .1 2.7-.2q1.2-1.3 2.6-2.2c3.8-2.6 7.3.3 10.5 2.4h9.6c5.3-3 8-8.2 12.3-.3 1.6.6 3.6.2 5.2.3H184" class="b"/><path d="M8 35h16.6c3.3-3.1 5.3-6.7 10.5-6 2.4.3 4.7 1.5 7 1.7 1.5 0 3-.5 4.4-.6 2.6-.3 5.4-.4 7.9-1.2 5.3-1.5 8-6 11.4-9.8 6.9-7.6 12.8-2.8 18.4 3.2q3.8 4.7 7 9.6c2 3 1.6 3.2 5.2 3h13.2c1.5-1 2.7-2.6 4.4-3.3 3.8-1.8 7.1 1.7 10.5 3 1.3.5 3 .2 4.4.3a8 8 0 0 0 3.5-1.7c3-2 7-7.8 10.5-3.5 1.3 1.5 2 3.8 3.5 5.2H184" class="b"/><path d="M8 33.9q9.1.1 18.4 0c2.6-3.3 6.3-5.5 10.5-4.4 2 .4 4 1.3 6.1 1.1l3.5-.7q5.1-.6 9.6-2.8 3.6-2.2 6.2-5.3c1.8-2.3 3.7-4.9 6.1-6.6 4.7-3.4 9.4-.8 13.1 2.7 5 4.3 8 10.4 11.4 15.9 5.8.3 11.7 0 17.6 0 2.7-2.2 4.8-4.8 8.7-3.4 2 .8 4 2.2 6.1 2.6 2.6.6 5.1-.7 7-2.3 3-2.1 7.1-8.3 10.6-3.9 1.7 2 2.6 5 4.3 7H184" class="b"/><path d="M8 32.9h19.3c.9-.3 1.8-1.2 2.6-1.7q3.2-2.2 7-1.5c2 .3 4 1 6.1.8 4.2-.7 8.6-1.7 12.3-4q3.4-2.2 6.1-5.1c2.2-2.6 4.2-5.5 7-7.4 5-3.7 10-1 14 2.8 4.7 4.4 7.3 10.6 10.5 16h18.4c3-2.1 4.6-4.6 8.8-3.2 1.7.6 3.4 1.6 5.2 1.8 2.7.3 5.2-1.3 7-3 4.8-4.2 8-9.5 12.3-1.3l1.8 3.4c.2.7 1 2.1 1.7 2.4h36" class="b"/><path d="M8 31.9h21q1.4-.6 2.6-1.3 2.2-1 4.4-.9c2 0 4.1.6 6.1.7 4.4-.2 8.7-2 12.3-4.2q4-2.7 7-6.1c2.2-2.5 4.3-5.3 7-7.1 4-3 8.5-2.5 12.3.5 6.1 4.4 8.7 12 12.2 18.4h18.4c1.5.3 2.5-1.3 3.5-2 3.8-2.9 5.9-.8 9.7 0 3 .4 5.7-1.6 7.8-3.6 2.2-1.9 4.2-4.6 7-5.6 4-.8 7 8.4 8.8 11.2h36" class="b"/><path d="M8 30.9h23.6q1.7-1 3.5-1c2.3-.3 4.7.2 7 .3a19 19 0 0 0 10.5-3.6q4.9-3.3 8.8-7.6c2-2 3.9-4.4 6.1-6.1 5.3-4.3 11-3.7 15.8.9 4.5 4.8 6.7 11.3 9.6 17h17.5q1.8.2 3.5-.1c1.8-2 4.4-3.6 7-2.9q2.2 1 4.4.8c5-.7 7.8-5.4 11.4-8.3 4.5-3.7 6.8 1.5 8.8 5l1.7 3.2c.3.7 1 2 1.8 2.4h35" class="b"/><path d="M8 29.9h23.6c3 0 5.9-.3 8.8 0 4.8 0 6.3.2 10.5-2.6 6.3-4 10.8-10.2 16.6-14.8 5-3.8 11-4.9 15.8-.4 4.6 4.9 6.9 11.7 9.6 17.7h22c1.5-1.6 3.7-3.1 6-2.7q2.2.7 4.4.4c4-1 6.7-4.6 9.7-7.2 1.8-1.9 4.7-4 7-1.5 3 3.1 4.3 7.7 7 11h35" class="b"/></svg>