<svg xmlns="http://www.w3.org/2000/svg" id="a" width="1920" height="2400" viewBox="0 0 192 240"><defs><style>.b{fill:none;stroke:#fff;stroke-miterlimit:10;stroke-width:.3px}</style></defs><path d="M0 0h192v240H0z" style="stroke-width:0"/><path d="M8.1 217.3c5.1 7.3 8.6 11.5 16.6 4.4 3.3-2.8 6.4-11.4 11.4-10.7 4 1.4 6.5 7.2 8.7 10.6l2.7 4.7c.6 1 1.4 2.8 2.6 3.4h5.2c1.1 0 2.5.2 3.5-.3 2-2.2 3.4-5.4 6.2-6.7 4-1.2 7.7 4.3 11.3 5.9 3.2 1.6 6-.2 7.9-2.8 3.6-4.7 7.5-13 14-6.7q2.5 2.4 5.2 4.3c1.7 1.8 3 4.3 4.4 6.3h42c3.2-4.3 6-9.1 9.6-13 4.2-5 7.7-1.4 10.5 2.8l3.5 6c.7 1.2 1.4 3.3 2.6 4.2h7.9" class="b"/><path d="M8.1 216.3c3 4.3 6.8 12.5 13.2 9.6q3.2-1.5 5.2-4.3c2.5-3.2 4.6-8.4 8.7-9.5 5.7-.7 10.5 13.4 14 16.6H59c1.9-1.8 3.1-4.4 5.2-6 4.2-2.6 8.5 3.9 12.2 5.4 3.2 1.6 6-.3 8-3C88.1 220 91.8 211 99 218l2.6 2.1q1.6 1 2.6 2.3l2.6 4.3c.3.6 1.1 1.9 1.8 2.1h41.1c.4 0 1.3-.1 1.7-.4 2.8-4 5.3-8.3 8.8-11.7 3.7-4 7.4.1 9.6 3.4 2 2.7 3.2 6 5.2 8.7h8.8" class="b"/><path d="M8.1 215.4c2.4 3.7 5.9 11.7 10.5 12.3h2.6q2.6-.9 4.4-3c3-3.4 4.8-8.2 8.8-10.6 5.9-2.9 10.5 10.5 14 13.6h7c1.3 0 3 .1 4.3-.2 2.7-3.4 4.8-7.7 9.6-4.5l5.3 3.8 1.7.9h1.8c1.1 0 2.5.3 3.5-.5 4.6-3.4 6.4-11.7 12.2-13.3 2.8-.4 5 1.9 7 3.4 4.1 2 5.6 6.7 7.9 10.4h43.7c1-.9 1.9-2.5 2.6-3.6a42 42 0 0 1 5.3-7c6-6 11.4 6.2 14 10.4 3.1.4 6.4 0 9.6.2" class="b"/><path d="M8.1 214.6c2.2 4 4.2 8.2 7 11.7 1.3.7 3 .2 4.4.3h6.1c2.5-2.1 3.9-5.6 6.1-8 2.7-3.3 5.7-4.1 8.8-.8q3.4 3.9 6 8.4.9.6 1.8.5H57c3.6 0 3.2 0 5.3-2.7 3.9-5 8.5.5 12.3 2.6h7c4.7-3.5 7-13.2 13-14.1 2 0 3.8 1.2 5.3 2.2 1 .8 2.5 1.5 3.5 2.3 1.8 2 3.1 4.9 4.4 7.3.3.6 1 2 1.8 2.3H148c2 0 4.2.3 6.1-.2 1.8-3 3.7-6.3 6.2-8.8 3-3.3 6.3-1.6 8.7 1.4 2 2.3 3.4 5.3 5.3 7.6h9.6" class="b"/><path d="M8.1 213.8c2 3.8 3.9 8 6.2 11.6 1.6.5 3.5.2 5.2.3h8.7c2-2.3 3.6-5.3 6.2-7 5-3 8.5 3.8 11.3 7h14.9c1-.6 1.8-1.8 2.6-2.5 1.8-1.6 4.3-1 6.1.2q1.8 1 3.5 2.2h7c.9 0 2 .2 2.7-.4 4-3.8 6.4-12.4 12.2-13.8 3-.4 5.3 2 7.9 3.1 3.5 2.7 4.6 7.6 7 11.2H155c3.2-5.3 7.6-14.4 14-7q2 2.3 3.5 4.8c.3.6 1.2 1.8 1.8 2.2h9.6" class="b"/><path d="M8.1 213.1c1.2 2.3 2.4 5.1 3.5 7.4.8 1.2 1.3 3.5 2.7 4.1h16.6c5.4-5.9 7.6-5.6 13 0h17.6q1-.3 1.7-1.1 1.2-1 2.6-1c2 .1 3.6 1.5 5.3 2.1h11.4c4.2-4.1 5.9-11 11.3-13.9 3.1-1.3 6 1.2 8.8 2.2 1.6.8 2.6 2.8 3.5 4.3l3.5 7.1q1.2.5 2.6.3h43.7c2.8-5 7-12.8 13.1-6.5q2 2.1 3.5 4.4a7 7 0 0 0 1.8 2.1h9.6" class="b"/><path d="M8.1 212.5c1.8 3.6 3.2 7.7 5.3 11.1h21c.8 0 1.8-.6 2.6-.7q1.3-.2 2.6.2c.4.2 1.3.5 1.7.5h21.9l1.8-.6c1.1-.1 2.3.5 3.5.6h14c.6-.2 1.4-1 1.7-1.6 3.2-4 5.4-10.2 10.5-12.2 2-.6 4.2.4 6.1 1.2 3 .7 3.8 2.2 5.3 4.7l2.6 5.3c.2.7 1 2.3 1.7 2.6h43.8q1.4.2 2.6-.4c6.1-12 10.8-9 17.5.4h9.6" class="b"/><path d="m8.1 212 4.4 10 .9.6h70c4.2-4.7 7.7-15.6 15.7-13 1.3.6 3 .7 4.3 1.4 3.4 3 4.4 8 7 11.6h46.4c1.2-1.5 2.2-3.7 3.5-5.3 5.3-6.3 10.7.2 14 5 1 .5 2.3.3 3.4.3h6.2" class="b"/><path d="M8.1 211.6c1.5 3.1 2.9 6.9 4.4 10h70.8c1.5-.9 2.4-3 3.5-4.3 2.6-3.5 5.5-8.5 10.5-8.2q1.8 0 3.5.6c.8.1 2 .1 2.6.5 3.5 3 4.6 7.8 7 11.4h46.4c.7-.2 1.4-1.6 1.7-2.3a17 17 0 0 1 2.6-3.6c5.6-5.4 10.8 1.5 14 6h8.8" class="b"/><path d="m8.1 211.2 2.7 6.1c.2.9 1 2.7 1.7 3.3h71.7c4.2-5.2 7.8-13 15.7-11.2 1.1.3 2.5 0 3.5.4 3.5 2.6 4.7 7.4 7 10.8H155c.8 0 2 .1 2.6-.3 1.8-4 5.5-9.4 10.5-7.3 3.4 1.6 5.5 5 7.9 7.6h7.9" class="b"/><path d="M8.1 210.9c1.2 2.5 2.5 5.7 3.5 8.3 1 .7 2.4.3 3.5.4h69.1c1.5-.7 2.4-2.7 3.5-3.9 2.9-3.7 6.4-6.7 11.4-6 1.4.2 3-.2 4.4 0 3.5 2.2 4.6 6.8 7 9.9h41c2-.1 4.2.3 6.2-.2 1.7-4.1 5.3-9.6 10.4-8 3.9 1.5 6.2 5.3 8.8 8.2h7" class="b"/><path d="m8.1 210.6 3.5 8h73.5c3.2-3.4 6.3-8 11.4-8.3 2-.1 4.1.2 6-.3 3.9 0 5.6 6.4 8 8.6H155c.8 0 2 .1 2.7-.4 1.7-4.2 5.2-9.6 10.4-8.4 4.3 1.4 7 5.5 9.7 8.8h6" class="b"/><path d="M8.1 210.4c1.2 2.2 2 5.2 3.5 7.2q37.2 0 74.4 0c2.5-2.9 5.6-5.8 9.6-6.3q2.6-.1 5.2-.2 1.3-.3 2.6-.5c3 .8 4.5 4.2 6.2 6.6q1.2.6 2.6.4h44.6c.7-.3 1.4-1.9 1.7-2.6s1.3-2.4 1.8-3c7.2-9.1 13.4-.9 18.3 5.5q2.6.1 5.3 0" class="b"/><path d="m8.1 210.2 2.7 5.8.8.6h75.2c4.5-4.3 7.4-4.2 13.1-4.3 1.2 0 2.4-.7 3.5-1 2.9.3 4.4 3.4 6.2 5.3h47.2c1.9-2.5 2.7-6.1 5.2-8.1 7-6.7 13.3 2.7 17.5 7.8 1.3.5 3 .2 4.4.3" class="b"/><path d="M8.1 210c.9 1.6 1.9 3.9 2.7 5.6H86q1.2 0 2.6-.3c3.7-2.4 7.3-1.5 11.3-1.8 1.2 0 2.4-.8 3.5-1.1 2.2-.2 4 1.7 5.3 3.1h48c1.2-2 2.2-4.8 3.6-6.8 3.8-5 8.4-6 13.1-1.4q2.8 2.7 5.3 5.8c2 2.6 1.9 2.5 5.2 2.4" class="b"/><path d="M8.1 209.7c.8 1.4 1.6 3.6 2.7 4.9h86.5q2.2.1 4.4-.2c1-.6 2.3-1.2 3.5-.9.8.2 1.8 1 2.6 1h44.6c1.4 0 3 .3 4.4-.2 1.1-2.8 2.3-6 4.3-8.3 2.5-2.7 6.2-4.5 9.7-2.4 3.1 1.9 5.5 5 7.8 7.6l2.6 3q1.3.5 2.7.3" class="b"/><path d="M8.1 209.3c.8 1.2 1.4 3.4 2.7 4.2h145c.8-.4 1.6-2.2 1.8-3 1-2 2-4.4 3.5-6 5-5.4 9.6-3.6 14 1.2l7 7.8h1.8" class="b"/><path d="m8.1 208.8 1.8 3.4q1.3.5 2.6.3h143.4c2.6-4.3 3.6-9.7 8.7-12.1 4.5-2.2 8.6 2 11.4 5q3.2 3.3 6.1 6.8.9.4 1.8.3" class="b"/><path d="m8.1 208.2 1.8 3.3h146c1.4-2.7 2.6-6 4.4-8.6q6-7.6 13-1c2.5 2.2 4.7 5 7 7.2 1.1 1 1.9 2.8 3.6 2.4" class="b"/><path d="m8.1 207.3 1.8 3.2h146c1.3-2.7 2.6-6 4.4-8.5 2.6-3.4 6.5-5.4 10.5-2.7 2.6 1.7 4.8 4.3 7 6.7q2.2 2.2 4.3 4.5h1.8" class="b"/><path d="m8.1 206.2 1.8 3.3h146c3.3-7.1 8-16.6 16.6-9q3.2 3.1 6.1 6.4l2.7 2.4q1.2.3 2.6.2" class="b"/><path d="m8.1 204.9 1.8 3.5c48.6.3 97.3 0 146 .1 4.7-9.4 9.3-16 18.4-5.9q2.5 2.9 5.2 5.5c1.3.8 3 .3 4.4.4" class="b"/><path d="M8.1 203.4 10 207l.9.5h145c4.8-8.7 9.1-14.6 17.6-5.3l3.5 4c.3.4 1.2 1.1 1.7 1.3h5.3" class="b"/><path d="M8.1 201.7c.8 1.4 1.5 3.6 2.7 4.8q72.5.1 145 0c3.8-6.1 7.8-13 15-6.3 1.1 1 2.4 2.5 3.4 3.7.8.8 1.7 2 2.7 2.6h7" class="b"/><path d="m8.1 199.8 2.7 5.7h142.5q1.4.1 2.6-.4c2.5-3 5-8.4 9.6-7.8 4.3 1 6.7 5.3 9.6 8.2h8.8" class="b"/><path d="m8.1 198 2.7 6 .8.5H155c2.3-1.8 3.9-4.5 6.1-6.2 4.9-3.8 9.4 2.6 12.3 6 1.3.4 3 .1 4.4.2h6" class="b"/><path d="M8.1 196c1.3 2.3 2.1 5.3 3.5 7.5h139.9c3.9.1 3.4-.2 6.2-2.7 1.5-1.4 3.1-3.2 5.2-3.9 4.3-.6 7 4 9.6 6.6H184" class="b"/><path d="M8.1 194c1.3 2.6 2.5 5.8 3.5 8.5h140.8c2 0 3.6-1.8 5.3-2.8s3.2-2.7 5.2-3.2c4-.3 6 3.8 8.7 6H184" class="b"/><path d="M8.1 192c.9 1.8 2 4.3 2.7 6.2.2.8.9 2.8 1.7 3.3h138.2q2.6-1 5.2-2l3.5-1.8c1-.6 2.3-1.5 3.5-1.6 3.5 0 5.4 3.5 7.9 5.4h13.1" class="b"/><path d="M8.1 190c1.7 3.2 2.8 7.2 4.4 10.5h133.8c1.7-.4 3.5-1.3 5.2-1.7q4-.7 7.9-2c1-.5 2.3-1.3 3.5-1.3 3 .2 4.9 3.1 7 5h14" class="b"/><path d="M8.1 188c1.7 3.4 3.2 7.5 4.4 11.1 1.3.6 3 .2 4.4.3h123.3c1.7 0 3.8.4 5.2-.9a16 16 0 0 1 6.1-2q3.1-.3 6.2-.4c1.4 0 3-.7 4.3-1.1 3-.3 5.2 2.4 7 4.4H184" class="b"/><path d="M8.1 186c1.3 2.7 2.6 6 3.5 8.7.3.9 1 3 1.8 3.7H127c5.3 0 10.6.3 15.8-.1 6-5.5 8.5-4.3 15.7-3.5 1.2.1 2.4-.4 3.5-.6 3-.1 4.8 2.8 7 4.2H184" class="b"/><path d="M8.1 184.2c2.1 4.1 3.6 9 5.3 13.2q64.3.2 128.5 0c5.4-6.3 8.1-6.8 15.7-4 1.5.5 3 .2 4.4 0 2.5.1 4.5 2.2 6.1 3.9 2 .3 4.2 0 6.2.1h9.6" class="b"/><path d="M8.1 182.4c2.2 4.2 3.8 9 5.3 13.5l.9.5H141c1.6-1.3 2.8-3.4 4.4-4.7 3.8-3.5 7.3-2.4 11.4-.1 5.8 2.7 4.6-1.9 11.3 4.8H184" class="b"/><path d="M8.1 180.7c1.3 2.5 2.6 5.6 3.5 8.2.8 2 1.5 4.8 2.7 6.5h82.1c14.9-.1 29.8.2 44.6-.1 4.7-6.7 7.8-11.2 15.8-5.3 5.6 3.5 4.1-1.3 11.3 5.4H184" class="b"/><path d="M8.1 179c2.6 4.8 4.2 10.3 6.2 15.4h125.9c.6-.3 1.4-1.4 1.7-2l2.6-3.7c4.8-6 8.1-3.7 13.2.3 4.7 3 3.5-1 10.4 5.4H184" class="b"/><path d="M8.1 177.5c2.6 4.7 4.3 10.2 6.2 15.2l.8.7h125c3-3.5 5.7-11.5 11.4-10.2 2.8.9 4.7 3.3 7 5 1.2 1 3 .9 4.4 1.4 2 .8 3.7 2.3 5.2 3.7q7.9.2 15.8 0" class="b"/><path d="M8.1 176c3 5 4.3 11.2 7 16.4h109.3c5.2-.1 10.5.2 15.8-.2 2.5-3.8 6.3-13.5 12.2-10.6 2.7 1.4 4.5 4 7 5.7 1 .7 2.4.7 3.5 1.2 1.9.8 3.6 2.3 5.3 3.6q1.2.5 2.6.3h13.1" class="b"/><path d="M8.1 174.7c3 5.2 4.9 11.2 7 16.7h124.2c1.1-.9 1.9-2.8 2.6-4 1.6-2.7 3.3-6 6.1-7.7 4.4-2.3 7.6 3.1 10.5 5.6 1.2 1.1 3 1.4 4.4 2 2.2 1 4 2.8 6.1 4h14.9" class="b"/><path d="M8.1 173.4c3 5 4.9 10.9 7 16.3l.9.7h117.2c2-.1 4.1.2 6-.3 2.8-3.9 7-15.7 13.2-12 2.7 1.6 4.5 4.5 7 6.5 1 .8 2.4 1 3.5 1.5q2.7 1.6 5.3 3.5 1 1 2.6.8h13.1" class="b"/><path d="M8.1 172.6c3.5 5 4.9 11.5 7.9 16.8h122.4c3.2-4 7.3-17 14-12.9 2.7 1.9 4.5 4.9 7 7 1 .8 2.4 1.1 3.5 1.7q2.7 1.6 5.3 3.4 1 .9 2.6.8h13.1" class="b"/><path d="M8.1 172.1c3.4 5 5.4 10.9 7.9 16.2h121.5c4.2-4 8-19 15.8-12.2 2.5 2.2 4.2 5.4 7 7.3q3.2 1.3 6 3.3l2.7 1.6H184" class="b"/><path d="M8.1 172c2.6 3.3 4.3 7.4 6.2 11 .7 1.3 1.2 3.6 2.6 4.3h119.8c4.4-3.4 8.2-18.5 15.7-12.7 3 2.3 4.8 6 7.9 8.3q2.7 1.2 5.2 2.9l2.6 1.5H184" class="b"/><path d="M8.1 172.3c3.7 4 5.7 9.5 8.8 14h118.9c5-3.4 8.8-19 16.6-12.4 3 2.5 4.8 6.2 7.9 8.6q2.2 1 4.3 2.4 1.3.8 2.7 1.4h13.1c1-.3 2.4 0 3.5 0" class="b"/><path d="M8.1 172.7c2.8 2.7 4.9 6.3 7 9.6 2.3 3.6 2 3 6.1 3H135c5.4-3.4 9.4-19.2 17.5-12 2.9 2.7 4.8 6.4 7.9 8.9q1.7.8 3.5 2l1.7 1 2.6.1h11.4l1.8-.6q1.4-.1 2.6.5" class="b"/><path d="M8.1 173.2c3.7 3.2 6.3 7.5 9.7 11 4.6.3 9.3 0 14 .1h99.6c1.1 0 2.6.3 3.5-.5 4-3.4 8.2-14 14-13 4.8 1.7 7 7 10.5 10.3q1.2 1 2.6 1.7 1.3.9 2.6 1.5h14.9q2.1-1.6 4.4-.5" class="b"/><path d="M8.1 173.9c3.8 2.6 6.7 6.5 10.5 9.2 2.3.4 4.7 0 7 .2h105.8c2.5.2 2.8-.2 4.4-2 3.4-3.7 5.6-9 10.5-11 6.6-1.3 9.8 9 14.8 11.6.8.4 1.8 1.2 2.7 1.4H176q1.7.1 3.5-.2c1.2-.9 3-1.3 4.4-.6" class="b"/><path d="M8.1 174.6c4.2 2.3 7.7 6 12.3 7.5q1.7.3 3.5.2h109.3c5.4-4 10.1-17.6 18.3-10.8 3.8 3.1 6 8 10.5 10.4q1.2.6 2.6.4h13.2c.8 0 2 0 2.6-.7q1.7-1 3.5-.2" class="b"/><path d="M8.1 175.3c4 1.9 7.9 4.3 12.3 5 2.3.4 4.7.2 7 .4.8 0 1.8.5 2.6.6h103.2c4.8-4.8 10.3-16.8 18.3-10 3.7 3 6.2 7.6 10.5 9.8 2 .3 4.1.1 6.1.2h11.4q2-1.7 4.4-1" class="b"/><path d="M8.1 176c2.8 1 5.8 2.1 8.8 2.5 2.8.4 5.8.2 8.7.3q1.4 0 2.6.4c.9.3 1.8 1 2.7 1h31.4q35.5.2 70.9 0c5.8-6.7 10.7-16.8 20-7.8 2.7 2.2 6.3 7.4 9.7 7.9h16.6l1.7-.9q1.4-.4 2.7 0" class="b"/><path d="M8.1 176.6q4.2 1.4 8.8 1.2c2.6-.1 5.2-.7 7.8-.4q3.4 0 6.2 1.9h102.3c2.6-3 4.6-6.8 7.8-9.2a9 9 0 0 1 10.5.5c4 2.6 6.9 7 11.4 8.7h17.5q1.6-1.2 3.5-.6" class="b"/><path d="M8.1 177.2c8 2.3 12.7-2.8 20.1-.3q1.4.6 2.7 1.4h102.3c2.8-2.8 4.4-6.8 7.8-9 6-3 11.3 1 15.8 4.6 1.8 1.6 4.2 2.8 6.1 4.4h17.5c1.1-.3 2.4-.9 3.5-.4" class="b"/><path d="M8.1 177.3q4.5 0 8.8-.2c2.8-1 5.7-2.1 8.7-1.5q2.4.2 4.4 1.5 1.7.2 3.5.1h97c3.7.2 3.2 0 5.3-3 1.4-2 3-4.3 5.2-5.4q4.4-1.4 8.8 0c2.8 1 5.4 2.7 7.8 4.3l3.5 2.1q1.3 1 2.7 2h15.7c1.4.2 3-.4 4.4 0" class="b"/><path d="M8.1 176.2h10.5c1.7-.4 3.5-1.3 5.3-1.2q1.7 0 3.5.5c.8.2 1.7.8 2.6.7h104c2-2.7 4.2-7.3 7.9-8 5.8-1 11.6 1 16.6 3.7q1.8.8 3.5 2c.8.7 1.7 1.9 2.6 2.3H184" class="b"/><path d="M8.1 175.2h126c.5-.3 1.4-1.4 1.7-2 1.2-1.7 2.5-3.7 4.4-4.8q1.2-.5 2.6-.4l4.3-.1c4.8 0 9.8.9 14 3.1 1.8 1 2.7 3.2 4.4 4.2H184" class="b"/><path d="M8.1 174.2H135c1.9-2.8 4-7 7.9-6.3q3.5-.1 7-.5c4-.4 8.7-.8 12.2 1.8 1.7 1.3 2.6 3.8 4.4 5h17.5" class="b"/><path d="M8.1 173.2H135c1.4-.9 2.2-2.9 3.5-4 1.8-1.8 3-1.4 5.3-1.4q3-.2 6-1.2c4.2-1.2 10-3.2 13.2.8 1.6 1.7 2.6 4.3 4.4 5.8h16.6" class="b"/><path d="M8.1 172.2h127.7c5.2-6.9 4-3.3 10.5-5 3.9-1.2 7.3-4 11.3-4.7 6-.9 7.3 6.4 10.5 9.7H184" class="b"/><path d="M8.1 171.2h122.4c2 0 4.2.2 6.2-.2 4.3-6 5-1.6 10.5-4.7 3.3-1.8 6-4.6 9.6-6.1 3-1.3 5.3-.2 7 2.5s3.4 5.8 5.2 8.5h11.4c1 0 2.4-.3 3.5 0" class="b"/><path d="M8.1 170.2H135c.8 0 2 0 2.6-.4 1-1.3 2.7-2.7 4.4-2.3 6.5-.2 10.2-8 15.8-10.4 3.4-1.6 5.3 1.1 7 3.8l3.4 6c.7 1 1.6 2.7 2.7 3.3h9.6q1.6-1.2 3.5-.7" class="b"/><path d="M8.1 169.2h129.4c1.1-.7 2.2-2 3.5-2 2.8.3 5.2-1.6 7-3.4 3.4-3 7.6-10.3 12.3-10.3 4.4.3 8 13.6 12.2 15.7q3.5.2 7-.1c1.2-1 2.8-2 4.4-1.4" class="b"/><path d="M8.1 168.2h130.3c4-3.5 4.1 1.1 10.5-6.7 2.8-3 9.4-15.3 14-9.8 3 4 4.9 9 7.9 13 1.5 2 3.3 3.9 6 3.5 2.6-.3 4.4-3.4 7-2.2" class="b"/><path d="M8.1 167.2H135c1.4-.1 3 .2 4.4-.3.6-.5 1.8-1 2.6-.9q1.5-.1 2.6-1.2c5.6-4.3 9-14.4 14.9-17.5 3.6-1.3 5.5 4.3 7 6.6 2 3.7 3.9 7.9 7 10.7 4.8 3.9 6.7-1.9 10.5-.3" class="b"/><path d="M8.1 166.2h130.3c1.3.1 2.2-1 3.5-1 2.3-.5 3.9-2.6 5.3-4.3 3.8-4.8 7.2-13.5 12.2-16.5 3.6-1.6 5.5 4 7 6.3q2.3 4.7 5.3 9.1c1.7 2.6 4.6 5 7.8 3.4 1.3-.7 3-1.3 4.4-.6" class="b"/><path d="M8.1 165.2h129.4c.8 0 2 0 2.7-.3q1.2-.5 2.6-1c2.2-1.3 3.8-3.7 5.2-5.8q3-5.2 6.1-10.3c1.5-2.2 3-4.7 5.3-6 3.5-2 5.5 3.5 7 5.8 1.6 3 3.3 6.5 5.2 9.4 1.7 2.5 4.5 5.6 8 4.4 1.2-.6 2.9-1.1 4.3-.4" class="b"/><path d="M8.1 164.1h128.6c1.4 0 3.1.3 4.3-.6 2.8-.6 4.6-3.4 6.2-5.6 3.9-5.8 6.3-12.9 11.3-17.9 1.2-1.1 3-1.8 4.4-.4 1.8 1.9 3.1 4.5 4.4 6.8 2.2 4.1 4.2 8.8 7.8 12 3.8 3 5.5-.5 8.8 1" class="b"/><path d="M8.1 163.1h127.7q2.2.2 4.3-.1c.8-.6 2-.9 2.7-1.4 1.7-1.3 3.2-3.4 4.3-5.2 4-6 6.4-13.1 11.4-18.4.9-.8 2.3-1.7 3.5-1.2 2.5 1.5 3.8 4.6 5.3 7 2.5 4.5 4.6 9.7 8.7 13q1.6 1.1 3.5 1c1.4-.3 3-.6 4.4.1" class="b"/><path d="M8.1 162.1h131.2c.5 0 1.4-.5 1.7-.8l1.8-1c1.7-1.4 3.2-3.5 4.4-5.4 3.8-6 6.4-13.2 11.3-18.5 1-.8 2.3-1.8 3.5-1.4 2.6 1.2 3.9 4.2 5.3 6.5 2.6 4.5 4.7 9.8 8.7 13.3q1.6 1.2 3.5 1.3c1.4-.1 3-.3 4.4.4" class="b"/><path d="M8.1 161.1h131.2l3.5-2.2c1.3-1.1 2.5-2.8 3.5-4.2 4.3-6.3 7-13.9 12.2-19.5 1-.8 2.2-1.9 3.5-1.6 3 1.3 4.5 5 6.2 7.6 2.3 4 4.4 8.5 7.8 11.7a7 7 0 0 0 3.5 1.7c1.5 0 3-.1 4.4.6" class="b"/><path d="M8.1 160.1h131.2c1.7-1.5 3.9-2.7 5.2-4.5 4.4-5.6 7.3-12.4 11.4-18.2 1.7-2.2 4.8-6.7 7.9-4 3.7 3.8 5.7 9 8.7 13.4 1.8 2.5 3.8 5.6 7 6.3 1.4.2 3 .1 4.4.8" class="b"/><path d="M8.1 159.1h114.6c5.5-.1 11 .2 16.6-.1 1.2-1.5 3-2.6 4.3-4 3.5-4 6-8.7 8.8-13.1 2.4-3.6 4.7-8 8.7-10 3-.5 4.7 3 6.2 4.9 3.4 4.9 6 11.5 11.3 14.6 1.7.8 3.7.5 5.3 1.3" class="b"/><path d="M8.1 158h130.3c.6-.1 1.4-1 1.8-1.4q1.2-1.2 2.6-2.3c3.8-4 6.5-8.8 9.6-13.3 2.4-3.4 5-7.3 8.7-9.3 2.8-.8 4.7 2.3 6.2 4.2 3.6 4.8 6 11 11.3 14.2 1.6.9 3.6.8 5.3 1.5" class="b"/><path d="M8.1 157h130.3c1.5-1.8 3.6-3.5 5.3-5.3 2.8-3.1 5.3-6.8 7.8-10.2 2.8-3.6 5.6-7.6 9.7-9.7 3-1 5.3 2.5 7 4.6 3.2 4.3 5.8 9.5 10.4 12.6 1.6.9 3.6 1 5.3 1.6" class="b"/><path d="M8.1 156h129.4c.7 0 1.5-1 1.8-1.4l1.7-2c6.1-5.5 10.3-13 16.6-18.2 4.9-4.2 6.6-3.1 10.5 1.5 3.4 4 6 9 10.5 12 1.6 1 3.6 1.2 5.3 1.7" class="b"/><path d="M8.1 155h129.4q3.8-4.4 8-8.5c3.2-3.7 6.6-7.5 10.4-10.6q1.7-1.4 3.5-2.5c1-.6 2.3-1.5 3.5-1.4 4 .9 6.3 5 8.7 7.8s4.7 5.9 8 7.7q2 .8 4.3 1.3" class="b"/><path d="M8.1 154h128.6c1.4-.7 2.3-2.6 3.5-3.7 5.1-5.3 10.2-11 16.6-15q2.4-1.7 5.2-2.9c3.3-.4 5.8 2.8 7.9 4.9 4 4.3 7.6 10 14 10.7" class="b"/><path d="M8.1 153H134c.8 0 2 .1 2.7-.2 5.6-7 12-13.6 20-17.6 2.6-1 5.1-3.4 8-2.2 7.2 3.6 10.5 13.3 19.2 14.2" class="b"/><path d="M8.1 152h121.6q3 .2 6-.1a51 51 0 0 1 21-17q2.7-1.2 5.3-2.1 1.9-.2 3.5.7c6.6 3.6 10.3 12.3 18.4 13" class="b"/><path d="M8.1 151h124.1c2.6.2 2.8-.4 4.5-2.1 5-5.5 10.1-11.6 17.5-13.9q2.5-.8 5.2-1.6c1.4-.5 3-1.1 4.4-.7 7.4 2.3 11.8 13 20 13.2" class="b"/><path d="M8.1 150h98a5 5 0 0 1 3.5-.7c.4 0 1.3.4 1.7.7h7.8q7.2.2 14-.1c6.2-5 10.6-12.6 18.4-15 2.3-.8 4.7-1 7-1.5 3.3-.7 4.8-1.3 7.9.6 5.7 3.3 10.6 11.4 17.5 11.7" class="b"/><path d="M8.1 149h96.2c1.4-.6 2.7-2 4.4-2 1.6-.1 3.2.8 4.3 1.8 1.4.4 3 .1 4.4.2h13.1q4.8-3 8.8-7.3c3.3-3.6 7.1-7.4 12.2-8q3.5-.4 7-.4c1.7 0 3.6-.6 5.3 0 7.1 2 12.5 12 20 12.4" class="b"/><path d="M8.1 148h95.3c4.3-4.6 7-4.3 11.4-.1 2.3.3 4.7 0 7 .1 2-.1 4.3.3 6.1-.3q5.8-3 10.5-7.5c2.5-2.3 4.7-5.3 7.9-6.7 3.5-1.8 7.6-1 11.3-.2 2.3.4 4.8-.3 7 .7 6.6 2.4 12.8 11.3 19.3 12" class="b"/><path d="M8.1 147h94.5c5-7 8.4-5.2 14-.1 1.3.2 3 0 4.3.1 1.5 0 3.2.2 4.4-.8 5-2.6 10-5.3 14-9.3 2.9-3 6-6.5 10.5-6 3 .1 5.8 1.7 8.7 2.5 1.4.5 3 .4 4.4.6 4.3 1 7.9 4 11.4 6.6 3 2.2 5.8 5.1 9.6 5.8" class="b"/><path d="M8.1 146h89.2q2.2.2 4.4-.2c2-3.1 5.5-7.2 9.6-5.1q2.8 1.7 5.3 3.8a11 11 0 0 0 2.6 1.5h1.7q1.5-.6 2.6-1.6l4.4-2.5q5.1-2.4 9.6-5.9c2.5-1.8 4.4-4.6 7-6.1 5-2.7 9.7 1.5 14 3.5 2 1 4.2.9 6.1 1.7 3.2 1 6 3 8.8 4.9l5.2 4 2.6 1.9q1.4.2 2.7.1" class="b"/><path d="M8.1 145H100c1.2-.4 2-2 2.7-2.9.9-1.2 2.1-2.6 3.5-3.4 4.6-2.7 8.4 2.6 12.2 4.5q2.4 1 4.4-.8 1.6-1.2 3.5-2.3c3.7-2.1 7.9-3.9 11.3-6.5 2-1.4 3.6-3.3 5.3-4.8 4.5-4 9.3-.4 13.1 2.6a20 20 0 0 0 4.4 2.7q4 1 7.8 2.7a45 45 0 0 1 8.8 5.8c3.3 2.8 2.6 2.4 7 2.4" class="b"/><path d="M8.1 144h91c1.4-1 2.3-3 3.5-4.4 2.9-4 6.3-5 10.5-2 2.3 1.4 4.8 4.3 7.8 3.5 1.8-1 3.4-2.5 5.3-3.5q4.3-2.3 8.7-4.7 2.8-1.6 5.3-3.8c1-1 2.2-2.4 3.5-3.2 5.5-3.2 10.1 3.2 14 6.4q2.2 2 5.2 2.7a36 36 0 0 1 15.7 9h5.3" class="b"/><path d="M8.1 143h90c4.6-5 6.9-13 15-7.3 2.3 1.4 4.8 4.3 7.8 3.3 2.3-1.5 4.5-3.5 7-4.8 2.9-1.6 6-2.8 8.8-4.5l3.5-2.7c1.3-1.2 2.6-2.9 4.3-3.6 5.2-1.8 9 4.2 12.3 7.3a14 14 0 0 0 6 4.3 32 32 0 0 1 15 8h6" class="b"/><path d="M8.1 142h89.2c4.2-4.7 7.1-14.1 14.9-8.7 2.6 1.6 5.4 5 8.7 3.8 2.3-1.6 4.5-3.7 7-5q4.4-2.2 8.8-4.4 1.8-1.1 3.5-2.5c1.3-1.3 2.6-3 4.3-3.6 5.3-1.8 9.2 4.9 12.3 8.1 1.8 2.3 4 4.5 7 5.3 5.1 1.4 9.2 2.9 13 6.8 2.3.4 4.8 0 7 .2" class="b"/><path d="M8.1 141h88.3c4.6-5.1 7.4-15.7 15.8-9.3 2.5 1.6 5.4 5 8.7 3.7 2.4-1.7 4.5-3.8 7-5.2 2.8-1.7 6-2.8 8.8-4.3q2.4-1.3 4.3-3.2c1.2-1.3 2.7-2.7 4.4-3.1 5.3-.7 9.2 6.6 12.2 10 1.6 2 3.7 4 6.2 4.8 2.6 1 5.4 1.4 7.8 2.8 2 .9 3.5 2.6 5.3 3.7h7" class="b"/><path d="M8.1 140h87.5c2.5-3.1 4.4-6.8 7-9.9s5.6-2.8 8.7-.5c2.5 1.6 4.8 4.3 7.9 4.7 1.8 0 3.1-1.5 4.3-2.5a34 34 0 0 1 5.3-3.8c4.4-2.4 9.8-3.5 13.1-7.7 3.2-3.4 6.6-2.8 9.6.4q3.3 3.6 6.2 7.7c1.4 1.8 3 3.8 5.2 4.9 2 .9 4.1 1.2 6.1 1.8q3 1 5.3 3c.8.5 1.6 1.6 2.6 1.8h7" class="b"/><path d="M8.1 139h86.6c2.6-3 4.5-6.8 7-10 2.8-4.1 6-4 9.6-.9 2.4 1.8 4.7 4.6 7.9 5 1.8 0 3.1-1.6 4.4-2.7q2.4-2.1 5.2-3.8c4-2.3 9-3 12.2-6.4 3.3-4 6.7-4.9 10.5-1q3.3 3.5 6.2 7.7c1.4 2 3 4.1 5.2 5.3 1.9 1 4.1 1.2 6.1 1.9q3 .9 5.3 3c.7.5 1.6 1.7 2.6 1.8h7" class="b"/><path d="M8.1 138h85.7c2.6-2.9 4.6-6.8 7-9.9 2.4-3.4 4.7-5.7 8.8-2.7 3 2 5.2 5.3 8.7 6.5 2.2.6 3.8-1.3 5.2-2.6q2.2-1.9 4.4-3.3c3.8-2.6 8.8-2.9 12.3-5.8 3.5-3.8 6.6-6.9 11.3-2.6 4.4 3.8 6.5 10 11.4 13.2 1.9 1 4.1 1.3 6.1 2q3 1 5.3 3c.7.7 1.5 2 2.6 2.1h7" class="b"/><path d="M8.1 137H93c1.1-.8 2-2.4 2.7-3.4l5.2-7.4c2.6-3.7 4.8-5.5 8.8-2.2 2.9 2.2 5.1 5.7 8.7 7 2.1.5 3.8-1.3 5.2-2.6q2.9-2.7 6.2-4.3c3.4-1.7 7.5-2 10.5-4.5 1.4-1.3 2.7-3 4.3-4 6.6-4.1 11.4 6.1 14.9 10.2 1.5 2.1 3.5 4 6.1 4.6 3.2.7 6.4 1.8 8.7 4.1.8.7 1.7 2 2.7 2.4h7" class="b"/><path d="M8.1 136h84c1-.6 1.9-2.2 2.6-3.1l5.2-7.3c2.4-3.2 4.5-7 8.8-3.7 3.3 2.5 5.6 6.7 9.6 8.2 2.2.6 3.8-1.2 5.3-2.5q2.3-2.2 5.2-3.8c6-2.8 9.4-1.1 14-7.1 7.1-7.8 12.4 1.9 16.6 7.3 1.3 1.8 3 3.8 5.3 4.5 6.4 1.8 7.6 2.3 12.2 7.4h7" class="b"/><path d="M8.1 134.9h80.5c1 0 2.5.2 3.5-.4l4.3-5.9 5.3-6.9c3.9-6 8.2.1 11.4 3.5 2.6 2.9 6 6.4 9.6 2.5 2.9-2.8 6.4-5 10.5-5.7 2-.3 4.3-.6 6-1.8 2.7-1.8 4.3-4.9 7-6.4 7.1-3.5 11.6 7.7 15.8 11.5q2.4 1.9 5.3 2.4c4 1 7.3 3.8 9.6 7.1q3.5.1 7 .1" class="b"/><path d="M8.1 133.9h72.6c3.5-.1 7 .2 10.5-.2l10.5-13.4q2.9-4.5 7-1c2.5 2.4 4.4 5.3 7 7.6 2.3 2.1 4.7 2.5 7 .1a24 24 0 0 1 5.2-3.6c2.7-1.4 5.8-1.3 8.7-1.8 2.7-.4 4.6-2.5 6.2-4.5 2-2.2 4.5-5 7.8-4.5 5.8 1.6 8 8.2 12.3 11.7 1.8 1.3 4 1.7 6 2.4q3.1 1.2 5.3 3.5c1.2 1 2 3 3.5 3.7h6.2" class="b"/><path d="M8.1 132.9h82.2q6-6.7 11.4-13.8c4.3-7 9 1.7 12.2 5 1.7 2 4.2 4.7 7 3.5 1.5-.9 2.9-2.3 4.4-3.2 5.5-3.7 9.4-.8 14-3 3.3-2.4 5-6.6 8.7-8.6 6-2.9 10 4.5 13.2 8.3q1.7 2 4.3 3c6.7 1.8 8 3.7 12.3 8.8h6" class="b"/><path d="M8.1 131.9H86c1.4-.1 3 .2 4.3-.3q5-5.4 9.6-11.2c1.4-1.5 2.5-3.9 4.4-4.9 3.8-1.2 7.3 5.3 9.6 7.6 1.8 2 4.2 4.8 7 3.7 2-1.2 3.9-3 6.2-3.6 2.5-1 5.2-.5 7.8-.2q4.5.5 7-3.2c1.8-2.3 3.7-4.9 6.1-6.7 5.4-4 10.2 2.8 13.2 6.7 1 1.3 2.7 2.5 4.3 3 6 1.6 8.8 4 12.3 9h6" class="b"/><path d="M8.1 130.9h81.4c1.3-.8 2.3-2.4 3.4-3.5a120 120 0 0 0 7-8c1.2-1.3 2.3-3.1 3.5-4.4 3-2.4 6 1.6 8 3.7 10.5 13.6 8.2 4.5 17.4 4 2 0 4.1.8 6.1 1.3q4.6 1 7-2.8 2.3-3.5 5.3-6.6c5.2-5.4 9.4-1.8 13 3q2.1 3 5.3 4.3a19 19 0 0 1 12.3 8.6q1.2.5 2.6.4h3.5" class="b"/><path d="M8.1 129.9h81.4c3.1-3.5 6.6-6.7 9.6-10.4l3.5-4.6c1.3-1.9 3.3-2.4 5.2-1 3.7 2.9 5.9 7.5 9.6 10.3 5.7 3.7 4.9-5.2 16.6.8 4.4 2 6.5.3 8.8-3.3 2.7-3.5 5-8.4 9.6-9.6 5-.5 7.3 5.1 10.5 7.8 2.9 2.1 6.8 2.2 9.6 4.3q1.9 1.3 3.5 3c.8.9 1.6 2.3 2.6 2.7h5.3" class="b"/><path d="M8.1 128.9h75.3c6.7-.1 4.7.8 9.5-4q3.9-3.5 7-7.6c1.5-1.6 2.5-4 4.4-5.2 4.1-1.8 8.7 6.8 11.4 9.3 1.5 1.6 3.8 3.5 6.1 2.3 6.3-3.6 10.2 3 15.7 4 3.1 0 4.6-3.4 6.2-5.6 2-3 4-6.4 7-8.6 5.4-3.8 8.8 3 12.2 6.1 1.7 1.4 4 1.9 6.1 2.5 3.5 1 6.4 3.5 8.8 6.3.6.5 1.8.5 2.6.4h3.5" class="b"/><path d="M8.1 127.8h80.5c4.7-4.2 9.4-8.7 13-14 2.4-3.8 4.8-4.2 8-1 2.4 2.5 4.4 5.7 7 8.1 4.4 4 4.5 1 8.7 1.4 3.4.7 6 3.6 8.7 5.5h7c3.6-4.1 8.8-18.2 15.8-14.4 2.8 1.6 4.2 5 7 6.8 3 1.7 6.7 1.8 9.6 3.8 6.2 4.1 2 4 10.5 3.8" class="b"/><path d="M8.1 126.8q40.3.2 80.5 0c3.6-3.5 7.4-6.8 10.5-10.6 3.8-4.6 5.4-10.4 11.3-3.8 2.9 3 5 7 8.8 9.2q1.7.7 3.5.1c3.6-.4 6.3 2.8 8.7 5.1h11.4c3.3-4.6 8.4-18.4 15.7-11.9 2.3 2.1 4 5.2 7 6.3 2 .8 4.2 1.1 6.1 2 2.3.7 4.3 2.2 6.2 3.6h6" class="b"/><path d="M8.1 125.8h75.2c1.7 0 3.6.3 5.3-.2q5.1-4.4 9.6-9.5l3.5-4.5c.6-1 1.6-2.3 2.6-3 5-2.6 10.4 9.6 14.9 11.7a5 5 0 0 0 3.5.5c3 .2 5 2.8 7 4.9 4.6.3 9.3 0 14 .1.7-.2 1.4-1.5 1.7-2.1l1.8-3c2-3.5 5.8-9.4 10.4-6.2 3 2 4.5 5.7 8 7 3.4 1.4 7.2 1.8 10.4 3.8 1 .8 2.4.4 3.5.5h4.4" class="b"/><path d="M8.1 124.8h79.6c1 0 1.9-1.2 2.6-1.8a74 74 0 0 0 10.5-11.2c1-1.4 2-3.2 3.5-4.2 5-2.8 10.6 9.1 14.9 11.5a6 6 0 0 0 3.5.9c2.6.5 4.3 3 6.1 4.8h10.5c2 0 4.2.2 6.1-.2 2.6-4.3 7-14.3 13.1-9.1 2.1 1.9 3.6 4.6 6.2 6 3.2 1.7 7 2.2 10.4 3.3h8.8" class="b"/><path d="M8.1 123.8q40.3.2 80.5 0 6.4-5.2 11.3-11.8c1.4-1.7 2.6-4 4.4-5.3 4.4-2.5 8.7 5 11.4 7.7 6.7 7.8 5.5 1 12.2 9.4h15.8q1.3 0 2.6-.3c2.3-4.1 6.7-12.6 12.2-7.6 3.4 3.2 4.6 6.2 9.6 7.6 2 .6 4.2.2 6.2.3h9.6" class="b"/><path d="M8.1 122.8h80.5c4.5-3 8-7.4 11.3-11.7 1.4-1.7 2.6-4 4.4-5.3 4.2-2.4 8 3.5 10.5 6.2 1.6 1.7 3.3 3.7 5.3 5q1.2.8 2.6 1.2c1.8 1 3.2 2.8 4.3 4.5 6.4.3 12.9 0 19.3.1 1.5-1 2.2-3.4 3.5-4.8 2.9-3.8 6.1-4.7 9.6-1 2 1.9 4 6 7 5.8h17.5" class="b"/><path d="M8.1 121.8h81.4q5.4-4.6 9.6-10.3c2.4-2.8 5-9 9.6-6.5 3.9 2.2 6.4 6.3 9.6 9.3q1.2 1.2 2.6 2 1.5.7 2.7 1.6c1.2 1 2.1 2.9 3.5 3.9h20c3.6-6 7.5-10.6 13.2-3.5 1 1.2 2 2.9 3.5 3.5h20.1" class="b"/><path d="M8.1 120.8h77c5.6 0 4.7.6 8.7-3.5 2.9-3 5.4-6.6 7.9-10 3.5-5.4 7.3-4.1 11.4 0 2.3 2.4 4.4 5.1 7 7.2q1.2 1 2.6 1.7c1.3 1 2.5 2.8 3.5 4.3 1 .5 2.4.2 3.5.3h17.5c5.7-8.6 8.7-8.1 14.8-.2 2.6.4 5.3 0 7.9.2h14" class="b"/><path d="M8.1 119.8H86c1.6-.1 3.6.3 5.2-.3l2.6-2.6q3.7-4.4 7-8.9c2.8-4.1 5.8-7 10.5-3.3 2.9 2.2 5.2 5.2 7.9 7.7q1.6 1.6 3.5 2.7c1.3 1.3 2.5 3.2 3.5 4.7h21c5-7.8 8.5-7.3 14-.2 2.5.4 5.2 0 7.8.2H184" class="b"/><path d="M8.1 118.8h78.7c5-.1 4.5.9 7.9-3.2q3.1-4 6.1-8c2.7-3.9 5.8-7 10.5-3.9 3 2 5.3 4.9 7.9 7.3q1.7 1.6 3.5 3c1.3 1.4 2.3 3.3 3.5 4.8h15.7c7.6.2 3.8-.4 8.7-4.5 2-1.5 4.4-1.2 6.2.4a26 26 0 0 1 3.5 3.6q1.2.7 2.6.5h21" class="b"/><path d="M8.1 117.8h84c1-.3 1.9-1.6 2.6-2.4q3.1-4 6.1-8.2c1.9-2.5 4.3-5.7 7.9-5.3 4.4.9 7.4 4.9 10.5 7.8l3.5 3.3c1.2 1.4 2.2 3.4 3.5 4.8q10 0 20-.1c5.3-8.2 8.5-6.5 14 0H184" class="b"/><path d="M8.1 116.8H93c1.9-1.1 3-3.4 4.4-5 2.5-3.2 4.5-7 7.9-9.4 4.9-3.2 9.8 1.7 13.1 5l4.4 4.4c1.2 1.5 2.2 3.5 3.5 5 6.4-.1 12.8.2 19.2-.2 2.3-3.9 6-8.5 10.5-4.3 1.6 1.2 2.7 3.4 4.4 4.5h23.6" class="b"/><path d="M8.1 115.7h85.7c2.4-2.1 4.2-5.2 6.1-7.7 1.8-2.4 3.6-5 6.2-6.4 5-2.7 9.8 2.1 13 5.4l3.6 3.7c1.2 1.4 2.3 3.5 3.5 5h15.7q1.5.2 2.6-.4c2.7-4.6 6.4-9.7 11.4-4.4 1.6 1.4 2.7 3.7 4.4 4.8h23.6" class="b"/><path d="M8.1 114.7h86.6c4.1-4.4 7.2-11.8 13.1-14 4.5-1.5 8.4 2.1 11.4 5q4.1 4 7 9h16.6c2-2.4 3.3-6 6.1-7.7 5.2-3 8.4 4.7 11.4 7.7h23.6" class="b"/><path d="M8.1 113.7h83.1c1.4 0 3 .2 4.4-.3 4-4.6 7.5-12.3 14-13.6 4.2-.5 7.6 2.8 10.4 5.6q3.7 3.6 6.2 8c1.8.6 4.1.2 6 .3h9.7c3.7-7 8-15.3 14.9-5.4l3.5 5q1 .6 2.6.4h21" class="b"/><path d="M8.1 112.7h87.5c1.4-1 2.4-2.8 3.5-4 2-2.8 4.2-5.7 7-7.8 6.3-4.8 12.5 1.3 16.6 6 1.5 1.8 2.5 4.4 4.3 5.8h12.3q1 .1 1.7-.4c3.9-7.5 8.4-17.6 15.8-6.4l3.5 5.2c.5.9 1.4 1.8 2.6 1.6h21" class="b"/><path d="M8.1 111.7h88.3c3.6-4.2 6.5-9.4 11.4-12.1 8-4.2 15.2 6.5 19.3 12.1h12.2c1.6-1.5 2.4-4 3.5-5.9 1.7-2.9 3.5-6.8 7-7.8 5.4-.5 9.3 10.5 13.1 13.7h21" class="b"/><path d="M8.1 110.7H93c1.3 0 3 .2 4.3-.2 3.2-4 6-8.7 10.5-11.3 7-4 13.6 3.9 17.5 9 2 2.6 1.8 2.6 5.2 2.5h8c2.5-3.8 4.2-8.3 6.9-12 4.8-6.8 8.8-2.3 12.2 2.9 2 3 4.4 6 6.2 9.1h20" class="b"/><path d="M8.1 109.7h87.5q1.4.1 2.6-.4c6-8.2 11.9-17 21.9-7.6 2.9 2.3 5 5.6 7.8 8h8.8c1.5-1 2.5-3 3.5-4.6 1.6-3 3.2-6.3 5.2-9 5.8-8 10.4-.5 14 4.8q1.8 2.5 3.5 5.1c.8 1 1.3 3.1 2.6 3.7H184" class="b"/><path d="M8.1 108.7h90a5 5 0 0 0 1.8-1.9q1.6-2.3 3.5-4.6c7.5-8.8 13.3-4.4 20.1 2.2 1.7 1.4 3.2 3.6 5.3 4.3h6.1c1.5-.6 2.6-2.3 3.5-3.5 2.8-4 4.7-8.8 7.9-12.5 4.9-5.9 9-.7 12.2 3.8 1.4 2 3.2 4 4.4 6.2 1.2 1.8 2 4.3 3.5 6h17.5" class="b"/><path d="M8.1 107.7h91c2.4-2.7 4-6.2 7-8.5 6-5.4 11.6-.3 16.6 3.8 3.1 2.6 6 5.7 10.5 4.5 6.5-3.4 8.4-11.7 13-16.9 4.8-5.6 8.9-1.8 12.3 2.7q2.4 3 4.4 6c1.5 2.7 2.8 5.8 4.4 8.4h16.6" class="b"/><path d="M8.1 106.7H100c3-4.5 6.8-11.4 13.2-10.1 3 .7 5.4 2.8 7.8 4.6 3.3 2.2 7 5.8 11.4 4.4 6.5-3 8.8-10.6 13.1-15.8q5.8-7.8 12.3-.4l4.3 5.4c2.4 3.7 4.1 8 6.2 11.9h15.7" class="b"/><path d="M8.1 105.7h88.4c1.3-.2 3 .3 4.3-.5 4-6.7 8.8-12.6 16.6-6.9 4.3 2.8 9.4 7.4 14.9 5.1 6.1-3 8.8-10 13-15 5-6.2 9.2-5.3 14 .3 4.6 4.7 6.6 11.3 9.7 17h14.9" class="b"/><path d="M8.1 104.7h92.7c4.2-5.9 7.8-12.6 15.8-7.4 4.5 3.2 10.1 6.9 15.7 4 6.2-3.4 9.3-10.3 14-15.2 5.6-6.1 10.2-3.3 14.8 2.1 3.8 5 5.6 11.2 8.8 16.5h14" class="b"/><path d="M8.1 103.6h55.1q4 .2 7.9-.1c5.5.3 11 0 16.6.1h8.7c1.7 0 3.6.3 5.3-.2 3-5.3 7.4-11.2 14-7 3 1.7 6 4.1 9.6 4.3 5.2.4 9.7-3 13.1-6.6 4.9-4.6 10.3-16 18.4-11.7 5.5 3.1 7.9 9.5 10.5 14.9 1 2 1.9 4.7 3.5 6.4h13" class="b"/><path d="M8.1 102.6h59.5c2.7-2 4.2-1.9 7 0h27c1.4-1.3 2.3-3.4 3.6-4.8 2.9-3.6 6.4-4.6 10.5-2.1 2.7 1.5 5.4 3.7 8.7 3.6 5.4-.2 10.1-3.6 14-7 4.3-3.8 7.6-9.2 13.1-11.3 4.6-1.6 9.1 2 11.4 5.8 3 4.9 5 10.5 7.9 15.5q.8.4 1.7.3H184" class="b"/><path d="M8.1 101.6h56q1.6.2 2.6-1.1c3.8-3.5 5.5-1.9 8.8 1.1q13.5.2 27 0c9.2-16.4 13.9-2.3 22-3.8a40 40 0 0 0 14.8-7.9c5.3-4.2 11.6-12.8 19.2-8.8 3.5 2 5.3 5.7 7 9 2 3.8 3.6 8.1 6.1 11.5H184" class="b"/><path d="M8.1 100.6h55.1c2.8-2.2 5.7-7 9.6-3.7l1.8 2c.3.5 1 1.5 1.7 1.7h26.3c1-.8 1.8-2.5 2.6-3.5 2.7-3.8 6.1-5.5 10.5-3.1 2.4 1.2 5 3 7.9 2.3 2.7-.7 5.3-2.2 7.8-3.6q4-2 7.9-4.2c5-3.2 9.5-8.3 15.7-8.6 5.4-.2 8.4 5 10.5 9.2 2 3.7 3.9 7.8 6.1 11.3 1.4.4 3 .2 4.4.2h7.9" class="b"/><path d="M8.1 99.6h52.5a4 4 0 0 0 1.7-1.3l3.5-3.5c5-4.8 8.3.5 10.5 4.8h27.1c2.1-3.7 5.5-8.8 10.5-7.3 2.4.6 4.6 2.2 7 2.5 3 .2 5.5-1.7 7.9-3q4.1-2.4 8.7-4 3.2-1.2 6.2-3.2 3.8-2.3 7.8-3.8c9.8-3.6 12.8 5.7 16.6 12.5.8 1.3 1.8 3.2 2.7 4.5l.8 1.3.9.5h11.4" class="b"/><path d="M8.1 98.6H58c.6 0 1.4-.7 1.7-1.1q3-3.2 6.1-6c3.1-2.8 5.8-1.7 8 1.5 1.2 1.6 2 4 3.4 5.6h26.2c1.2-.6 1.9-2.4 2.7-3.3 1.7-2.5 4.6-4.8 7.8-4.1 2.1.4 4 1.5 6.2 1.8 2.5.4 4.8-1.3 7-2.6q3.2-2.2 7-3.4c2.2-.7 4.7-1 7-1.8q3.8-1.9 7.8-3.2c2.5-.8 5.2-1.7 7.9-1.5 4.3.2 6.7 4.3 8.7 7.6s3.9 7 6.1 10l.9.5h11.4" class="b"/><path d="M8.1 97.6h44.6c2.9 0 3.2.1 5.3-2C68 85.5 70.5 82 77.2 97.5c3.2.4 6.5 0 9.6.2h17.5c2.7-4.1 5.7-8.9 11.4-7.3 2 .4 4.1 1.3 6.1.7 4-1.6 7.1-5.1 11.4-6 2-.6 4.1-.5 6.1-.6 1.8-.2 3.5-1 5.3-1.3 3.7-.7 7.5-1.8 11.3-2 4-.2 6.8 2.6 8.8 5.7 2.3 3.5 4.4 7.3 7 10.5 1.3.5 3 .2 4.3.3h7l.9-.5" class="b"/><path d="M8.1 96.6H52c6-2.6 9.3-8.9 14.8-12.2 6.3-3 8.7 8.6 11.4 12.2h23.5c1.2 0 2.6.2 3.6-.4 2.1-3.8 5.5-8.2 10.5-7.5 2 .2 4.1.8 6 0 4.4-2.1 8-6.6 13.2-6.2 1.7 0 3.5.5 5.3.5q4.3-.5 8.7-.6c3.2 0 6.5-.8 9.6-.1 5.7 1.4 8.9 10.4 13.1 14.3h7c1.8-.1 3.9.5 5.3-.9" class="b"/><path d="M8.1 95.6h37.6l4.4-1.4a26 26 0 0 0 10.5-7.8c2.2-2 4.7-5.2 7.9-5.5 5 .4 7.8 10.5 9.6 14.5 3.1.3 6.4 0 9.6.2h17.5c3.4-4.2 5-8.6 11.4-8.6 2.5.1 5-.1 7-1.8 6-4.8 8-6.4 15.7-3.8 2 .5 4.1 0 6.1.6q5.2 1 10.5 1 5 0 7.9 3.8c2.3 2.8 4.4 6 7 8.6 2.2.4 4.7 0 7 .2h4.3l1.8-1" class="b"/><path d="M8.1 94.6h32.4q1.3 0 2.6-.2 1.2-1 2.6-1.6c2.6-1.1 5.5-1.6 7.9-3.2 4.3-2.7 7.2-7.1 11.4-10 8-6.3 10.9 10.6 14 15h27c2.3-3.9 5-8.2 9.7-9.3 2-.4 4.3-.5 6.1-1.6 2.4-1.5 4.5-3.8 7-5.2 3.6-2 7-.3 10.5 1.2q1.7.6 3.5.7l2.6.8q3.8 1.6 7.9 2.3c3 .4 6.3.5 8.7 2.5 3 2.4 5.2 5.8 7.9 8.4 2.6.4 5.3 0 7.9.2h4.3l1.8-1.1" class="b"/><path d="M8.1 93.6h32.4c1.6-1.3 3.3-2.9 5.2-3.7 2.3-1 4.9-1.4 7-2.5 4.2-2.2 7-6.2 10.5-9.1 2.3-2 5.3-4 7.9-1.4 4.1 4.5 5.7 11 7.9 16.6h27c.9-.2 1.5-1.4 1.8-2l1.8-2.7c1.9-2.7 4.6-5 7.8-6 5.6-1.2 7.5-5.5 12.3-7.5 3.4-1.4 6.7 1 9.6 2.5q1.7.8 3.5 1l3.5 1.7q3.7 2.4 7.9 3.6c3 .8 6.4 1.3 8.7 3.5 2.1 1.8 4 4.2 6.1 6h12.3q1.5 0 2.6-1" class="b"/><path d="M8.1 92.6H38c2.7-1.6 5-4.1 7.8-5.4 2.6-1 5.5-1.4 7.9-2.8 4.6-2.7 7.6-7.5 12.2-10.2 5.9-3.4 8.7 6 10.5 10 1.2 2.5 1.8 6.1 3.5 8.4H107c2.5-3.5 4.3-7.7 8-10.3 1.7-1.4 4-2.3 6-3.4 4-2.6 7.7-8.5 13.1-6.3 1.9.7 3.6 2 5.3 3q1.7 1 3.5 1.4c3.1 1.5 5.7 4.2 8.7 6 3.5 2.2 8.1 2.6 11.4 5.2l3.5 3.2c.3.4 1.2 1 1.8 1.1H183l.9-.7" class="b"/><path d="M8.1 91.5h27.1c1.3-.2 2.5-1.4 3.5-2 2.3-1.6 4.5-3.6 7-4.8 2.3-.9 4.8-1.2 7-2.3 4.5-2 7.5-6.3 11.4-9 3.6-3 6.2-2.4 8.7 1.4 3.2 5.1 4.9 11.2 7 16.7h24.5c1.1 0 2.5.3 3.5-.4 2.2-4.4 4.8-8.9 8.7-11.8q2.7-1.7 5.3-3.6c3-2.3 5.6-6 9.6-6 3.4 0 6 2.8 8.7 4.3 5 1.6 8.1 6.2 12.3 9.1 2.6 2 5.8 3 8.7 4.4 2 1 3.6 2.6 5.3 4H183l.9-.5" class="b"/><path d="M8.1 90.5h25.4a88 88 0 0 0 7.9-5.2q2-1.7 4.3-2.9c2-.8 4.2-1.2 6.1-2 4.5-1.6 7.7-5.5 11.4-8.2 5.9-4.8 8.5-1.7 11.4 4a94 94 0 0 1 3.5 8.5c.7 1.7 1.1 4.7 2.6 5.8h27.1A36 36 0 0 1 121 74.2c3-2.1 5.2-5.4 8.8-6.5s6.8 2 9.6 3.9q1.7 1 3.5 1.8c3 2 5.3 5.1 7.9 7.6q3 3.1 7 5.2l4.3 2q1.8 1.2 3.5 2.3h15.8q1.4.2 2.6-.4" class="b"/><path d="M8.1 89.5h20.1q1.8.2 3.5-.2 4.6-2.3 8.8-5.4c2-1.4 3.8-3.1 6.1-4 8-2.3 9.4-3.7 15.7-8.8 2.6-1.8 6-4.3 8.8-1.5 5.1 5.4 6.4 13.4 9.6 20h27.1c2.6-4.7 4.9-9.8 8.8-13.6 1.5-1.6 3.5-3 5.2-4.5 2-1.6 3.8-3.7 6.1-5 4.6-2.6 8.6 1.6 12.3 4 5 2 7.7 7 11.3 10.6q4.1 4.5 9.7 6.7c1 .4 2.3 1.3 3.5 1.7h16.6q1.4.1 2.6-.3" class="b"/><path d="M8.1 88.5h20.1c3.2-.6 6.1-2.2 8.8-3.9 3.6-2.1 6.5-5.5 10.5-7q3.6-1.2 7-2.8c2.4-1.2 4.7-3 7-4.6 2.5-1.7 5.7-4.3 8.7-2.5 5.3 4 7.9 14.5 10.5 20.6q1.7.3 3.5.2h23.6c3.5-6.4 6.3-12.6 12.2-17.2 3.1-2.4 5.7-5.9 9.7-7 4-.8 7.2 2.7 10.4 4.7.8.5 2 .9 2.7 1.4 1.6 1.2 3 3 4.3 4.5 2.7 3.4 5.4 7 8.8 9.7q3.5 2.6 7.8 4h14.9c1.7-.2 3.6.2 5.3-.4" class="b"/><path d="M8.1 87.5h16.6q7.8-.8 14-5.6c2.4-1.7 4.5-3.9 7-5.4 2.5-1.4 5.3-2.1 7.9-3.3 4.6-1.8 8.4-5.5 13.1-7 6-1 9.4 9.5 11.4 13.8l1.7 4.5c.3.7 1 2.6 1.8 3h26.2c4.3-7.9 6.6-13.4 14-19.1 2.7-2.4 5.7-5.6 9.6-5.3 2.7.2 5 2 7 3.5 1.6 1.3 3.8 1.9 5.3 3.2 4.7 4.7 7.7 11 13 15q2.5 1.7 5.3 2.6 4 .1 7.9.1h8.7c1.7 0 3.6.2 5.3-.2" class="b"/><path d="M8.1 86.5H23q3.5-.6 7-1.3a22 22 0 0 0 7-3.3c4-2.6 7-6.6 11.4-8.5q4.4-1.8 8.7-3.7c2.9-1.3 5.7-3.2 8.7-4.1 8.4-2.3 12.2 15.9 15.8 20.9h26.2c3.4-6.4 6.6-13.2 12.2-18 3.9-3.2 8.6-8.3 14-5.6 1.9.8 3.6 2.2 5.3 3.2 1 .8 2.4 1.2 3.5 2 5.4 4.6 8.3 11.6 14 16q2 1.6 4.3 2.4h8q7.3.2 14.8-.1" class="b"/><path d="M8.1 85.5h14c1.1 0 2.4-.5 3.5-.6q3.1-.4 6.1-1.2c5-1.7 8.6-5.6 12.3-9 4.1-3.9 9.8-5.2 14.8-7.2 3.1-1 6.3-3.4 9.7-2.5 6.6 2.6 9.5 14.8 13 20.5h26.3a53 53 0 0 1 14-19.6c2.3-2 4.8-4 7.9-4.4s6.1 1.6 8.7 3.2q2.1 1.3 4.4 2.4c5.7 4.8 8.7 12.5 14.8 16.9 1.3.8 2.8 1.7 4.4 1.5H184" class="b"/><path d="M8.1 84.5H23q1.7-.5 3.5-.6 7.1-.4 12.2-5.3c2.4-2.2 4.5-4.8 7-6.8 3.5-2.9 8-4.2 12.3-5.3l7-2c8.6-1.5 12.7 14.5 16.6 20h16.6c3.2-.1 6.5.2 9.6-.2a53 53 0 0 1 14-19.4c4.4-3.8 8.6-5.4 14-2.3 2 1 4 2.4 6.1 3.2 4.6 2.9 7 8 10.5 12 2.1 2.7 4.6 5.4 7.9 6.7h9.6l5.2-.7c3-.2 5.9.7 8.8.7" class="b"/><path d="M8.1 83.5h12.3q3 0 6-.3 3.3 0 6.2-1.1c6.6-2.8 9.8-10 15.7-13.7 3.7-2.4 8-3 12.3-3.5 2.6-.4 5.4-1.5 7.9-.1 4.7 2.7 7 8.1 9.6 12.7 1 1.8 1.9 4.5 3.5 6h22.7c1.1-.1 2.6.3 3.5-.5A56 56 0 0 1 121 64.7c2.3-1.9 4.9-3.8 7.9-4.1 4.2-.5 7.8 2.2 11.4 3.9a15 15 0 0 1 7 5.6c2.5 3.2 5 6.8 7.8 9.7a15 15 0 0 0 5.3 3.7h5.2c1.8-.1 3.6-.9 5.3-1.2q3.4-.8 7-.2c2 .3 4 1.5 6.1 1.4" class="b"/><path d="M8.1 82.5h20.1q1.9.1 3.5-.4c6.7-2.4 9.8-9.5 14.9-13.8 5.3-4.7 9.4-3.9 15.7-4.2 4.6-1.2 8 1.6 10.5 5 3 4 5.4 8.8 7.9 13.1 1 .4 2.4.2 3.5.3h22.7c1.6-1.3 2.4-3.8 3.5-5.5a52 52 0 0 1 7.9-10.8c6.4-6.4 11-7.7 19.2-3.4q2.6 1.2 5.3 2.3c5.3 3.9 8.2 10.2 13.1 14.5 1.7 1.5 3.8 3.1 6.1 2.9 2.2.2 4.2-.6 6.2-1.3 3.6-1.5 7.7-1.9 11.3-.1 1.4.6 2.8 1.6 4.4 1.4" class="b"/><path d="M8.1 81.5h24.5c6.6-3.1 9.4-10.8 14.9-15.3 6-5 9.2-2.3 15.7-2.5 6.2-.5 10.1 6.8 13.1 11.2 1.5 2 2.5 5 4.4 6.6h26.2c2-2.6 3.5-5.8 5.3-8.4 2.8-4.4 6.2-8.5 10.5-11.4 4-2.7 9-1.8 13 .1q3.6 1.4 7 2.8c5.4 3.6 8.4 9.7 13.2 13.9 5.1 4.6 7.6 3 13.1.5 3.5-1.6 7.3-1.3 10.5.7l2.6 1.7h1.8" class="b"/><path d="M8.1 80.5q13.2 0 26.3-.1c6.8-5 9.6-16 18.3-18.3 3.3-.6 6.4 1.1 9.6 1.5 4.2-.5 7.3 2.8 9.7 5.7q2.7 3.7 5.2 7.5c.7 1.1 1.6 2.8 2.6 3.6H107c4.8-7.4 9.1-16.4 17.5-20.3 3.8-1.3 7.8.2 11.4 1.6q3.4 1.3 7 2.5c5.6 3.5 8.8 9.9 14 13.9 5.4 4.4 8 1 13.1-1.3 4.9-2.2 8.5.8 12.2 3.6h1.8" class="b"/><path d="M8.1 79.4h27.1c6-5 10.4-19 19.3-18.5 3.3.4 6.2 2.8 9.6 2.7 4.4 1.2 7 5.5 9.6 9l3.5 5c.3.5 1.2 1.6 1.8 1.9h24.5c1-.1 2.4.1 3.5-.3 4.6-7 8.8-15.5 16.6-19.5 3.4-1.3 7.2 0 10.5 1.2q3.8 1.6 7.8 2.6c2.4.8 4.4 2.8 6.1 4.6 2.9 3 5.5 6.4 8.8 9 5.6 4.4 8 .4 13.1-2 3.5-1.7 7-.2 9.6 2.3.8.6 1.7 1.6 2.6 2h1.8" class="b"/><path d="M8.1 78.4h28c4.8-5 9.7-18.6 17.5-18.5 3.2.2 5.7 2.6 8.7 3.5 3.4.1 5.9 2.9 8 5.3 2.3 3 4.6 6.5 6.9 9.6 3.4.3 7 0 10.5.1H106c1.2-.5 2-2.2 2.7-3.2l4.3-6.5a36 36 0 0 1 8-8.5 8 8 0 0 1 6.9-1.5c4.2 1 8 3 12.2 4 3.2.4 5.7 2.5 8 4.6 2.5 2.6 5 5.6 7.8 8 6 5 7.6 2 13.1-1.4 5-3 9 .7 12.2 4.3q1.4.3 2.7.2" class="b"/><path d="M8.1 77.4h25.4c1.1 0 2.5.2 3.5-.3 3.6-5 6.2-10.9 10.5-15.3q4.8-5.1 10.5-.9c1.8 1.3 3.8 2.7 6 3 3.6 1.4 5.7 5 8 7.9 1.4 1.8 2.5 4.2 4.3 5.6h29.8c1.8-1.4 3-4 4.3-6a72 72 0 0 1 7-9.2c4-4 6.7-5.9 12.3-3.5 4 1.6 8 3.2 12.2 4 5.5 1.8 8.8 7.2 13.1 10.8 6.7 5.8 7.8 3.3 14-1 5.3-3.3 8.9 1.3 12.3 5h2.6" class="b"/><path d="M8.1 76.4H37c1.8-1.9 3-4.6 4.4-6.8q2.3-4 5.2-7.8c3.6-4.3 7-4.8 11.4-1.3 1.8 1.4 3.7 3 6 3.4 4.5 2.3 7.6 8.5 10.6 12.4 10.5.3 21 0 31.5.1 2.1-2 3.5-5 5.2-7.3 3.2-4.5 6.3-9.7 11.4-12.3 4.3-1.3 8.3 2.2 12.2 3.5q3.4 1.2 7 1.7c5.5 1.8 9 7 13.1 10.6 6.9 6 7.8 3.2 14-1.2 3.7-2.4 7-.5 9.6 2.5 2.2 2.5 1.8 2.6 5.3 2.5" class="b"/><path d="M8.1 75.4h25.3c1.5-.1 3.2.3 4.5-.3 3.7-5.7 6.3-13.3 12.2-17 3.2-1.8 6.4.8 8.7 2.9 1.5 1.3 3.3 2.7 5.3 3 4.4 2.5 6.3 7.8 9.6 11.4h32.4c.6-.3 1.4-1.4 1.7-2l3.5-5.4c3.2-4.6 6.2-10.1 11.4-12.7 4.2-1.2 9 3.4 13.1 4.6q3 1 6.1 1.4c5.2 1.5 8.5 6.3 12.3 9.8 2.1 2 4.7 4.5 7.8 4.3 2.4-.8 4.2-2.8 6.2-4.2 5.4-4.2 8.7.2 12.2 4.2h3.5" class="b"/><path d="M8.1 74.4H38c3.6-5 7-15 13-17.4 3.2-.8 5.8 1.8 8 3.8 1.4 1.4 3.1 2.8 5.2 3.3 4 2.2 5.7 7 8.7 10.3h29.8c1.4-.1 3 .4 4.3-.4 3.8-5 10.8-21 17.5-20.6 4.5.8 8 4.5 12.3 5.9 2 .7 4.1.8 6 1.3 4.4 1.7 7.4 5.7 10.6 9 1.8 1.7 3.7 4 6.1 4.8h3.5c2-.6 3.5-2.6 5.3-3.7 4.7-3.8 8.3-.5 11.3 3.5 1.4.4 3 .1 4.4.2" class="b"/><path d="M8.1 73.4H38c1.6-1.3 2.4-3.8 3.5-5.6q2.2-4.2 5.2-8c4.4-5.5 8-3.6 12.2.7q1.6 1.7 3.6 2.8 1.4.5 2.6 1.2c3 2.3 4.7 6 7 8.9h35c3.7-5.5 10-21 16.5-22 2.3-.1 4.3 1.3 6.2 2.5q3 2 6 3.7c2.3 1 4.8 1.2 7 1.8 6.4 2.8 9.6 9.7 15 13.9 2.2.3 4.6 0 7 0 4.6-3.8 8-7 13-1.3.4.5 1.2 1.3 1.8 1.4h4.4" class="b"/><path d="M8.1 72.4h27.1c1.1 0 2.5.2 3.5-.4 2.5-4.3 4.7-9 7.9-12.8 2.3-3 5.4-4.5 8.7-2 2.2 1.5 4 3.8 6.2 5.4 1.3 1 3.2 1.1 4.3 2.4q3 3.2 5.3 7c1.2.7 3 .2 4.4.4h31.4c4.2-5.4 9.8-22.3 16.6-23.4 2.3 0 4.4 1.6 6.2 2.8q3 2.3 6 4.2c2.2 1.2 4.8 1.5 7 2 6.1 3 9.3 9.8 14 14.3q4.6.2 8.8 0c1.3-.4 2.3-1.6 3.5-2.2 3.3-2.2 6.4-.6 8.7 2.1 2 .3 4.2 0 6.2.2" class="b"/><path d="M8.1 71.4h30.6c3-4.8 6.6-14.2 12.3-15.8 3.7-.5 6.2 3 8.7 5.3a9 9 0 0 0 4.4 2.6c3.1 1.7 4.9 5.1 7 7.9h35.8c1.5-1.7 2.5-4.2 3.5-6.2 2.2-4.3 4.4-9 7-13 2.8-4.1 5.6-7.3 10.5-3.7 4.4 3.1 8.4 7.4 14 8 5 1.6 8.1 7.3 11.4 11.2 1 1.2 2 3 3.5 3.7h1.7l8.8-.1a9 9 0 0 1 4.3-1.9 6 6 0 0 1 3.5 1c.4.4 1.3 1 1.8 1h7" class="b"/><path d="M8.1 70.4h30.6C42 66 45.7 55.2 52 55c3.3.4 5.5 3.5 7.8 5.6q1.2 1.2 2.6 2c.8.3 2 .5 2.7 1 2.5 1.6 4 4.6 6 6.7h36c4.1-5 9.8-24.3 16.5-25.5 4.6-.2 9.6 7 14 9 1.6 1 3.6 1.2 5.3 1.7 5.6 3 8.8 10 13.1 14.6 2.5.4 5.3 0 7.9.2h5.2q1.3-.5 2.6-.5l1.8.3q1.3.3 2.6.2h7.9" class="b"/><path d="M8.1 69.4h30.6c3.3-4.1 7.4-16.1 14-14.4 3.2 1 5.3 4.1 7.9 6.3l1.7 1.1c.8.3 2 .5 2.7 1 1.3.7 2.5 2 3.5 3.1.7.9 1.5 2.4 2.6 2.8h35.8c4.2-4.8 10.5-26.6 17.5-26.2 4.8.8 8.8 7 13.1 9.4q2.5 1.5 5.3 2c2.5 1.2 4.4 3.6 6.1 5.7q3.4 4.7 7 9.1h28" class="b"/><path d="M8.1 68.4h30.6c4-4.9 8.5-18.9 16.6-12.2 2.9 2.1 5 6 8.8 6.4 1.7.6 3.2 2 4.4 3.2.7.8 1.5 2.2 2.6 2.5h35.8c4.2-4.9 11.2-28.4 18.4-26.6 2 .5 3.7 2 5.2 3.3 2.6 2.3 5 5 7.9 6.9 1.6 1 3.7 1.2 5.3 2.1 5.1 3.7 8 9.7 12.2 14.3h28" class="b"/><path d="M8.1 67.3h30.6c3.6-4.1 7.7-16.4 14.9-12.5 3.3 1.9 5.3 5.5 8.7 7.2 3.5.4 5.7 2.4 7.9 5 .4.2 1.3.4 1.8.3h34.9c3.4-5.2 5.8-11.3 8.8-16.8 2-3.5 5.4-11.4 10.5-9.9 5.6 2.3 8.5 8.6 14 11.3q1.2.4 2.6.9 2.4 1.4 4.3 3.5c3.1 3.5 5.7 7.5 8.8 11q14 .2 28 0" class="b"/><path d="M8.1 66.3h30.6c3.6-4.3 7.6-16 14.9-11.7 3 1.8 5 4.9 7.9 6.8q1.2.6 2.6.6 1.4.4 2.6 1c5 3.3 2 3.5 8.7 3.3q15.8 0 31.5 0c3.3-5.2 5.9-10.9 8.8-16.3 1.9-3.4 3.8-7.3 7-9.7 5-3.1 9.8 4.2 13 7.2a19 19 0 0 0 4.4 3.6q2.4.6 4.4 2c4.5 3.6 7.4 8.8 11.4 13 1 .4 2.4.2 3.5.2h24.5" class="b"/><path d="M8.1 65.3h30.6c3.4-4.5 7.7-15.8 14.9-11 2.9 2 5 5 7.9 7 1 .6 2.3.4 3.5.6 2.3.4 4.3 2 6 3.4h30.7c1.7-.1 3.6.3 5.2-.3 3-4.2 5.4-9 7.9-13.5 2.4-4 5.3-10.7 9.6-12.5 5.3-1.2 9.7 6.3 13.1 9.4 1 .9 2.3 2 3.5 2.4q2 .5 3.5 1.7c3 2.4 5.5 5.5 8 8.4 1.3 1.5 2.5 3.5 4.3 4.4h27" class="b"/><path d="M8.1 64.3h26.3c1.4 0 3 .3 4.3-.3 3.7-5.1 8.4-16 15.8-9.2 2.6 2 4.6 5.4 7.8 6.7 1.1.2 2.4 0 3.5.2a11 11 0 0 1 5.3 2.4q1.3.3 2.6.2h32.4c1.5-.9 2.4-2.9 3.5-4.2l4.3-7.1c2.7-4 6.7-13 11.4-14.4 5.4-.8 9.5 6.8 13.1 9.9q1.2 1.1 2.6 1.8 1.9.5 3.5 1.7c4.7 3.5 7.9 8.6 12.3 12.3h27" class="b"/><path d="M8.1 63.3H38c4-3.5 7-14 14-10.7 3.7 2.1 5.9 6.3 9.6 8.5 1 .6 2.3.3 3.5.2q3.8-.3 7 2h34c4.3-4.1 7.4-9.4 10.6-14.3 3-4.4 7.4-14 14-9.2 3.6 2.7 5.9 7 9.6 9.7q2.2.9 4.3 2.2c4 2.8 7 6.6 10.5 9.9 2 2 2.5 1.7 5.3 1.7h23.6" class="b"/><path d="M8.1 62.3h19.3c3.4-.1 7 .2 10.5-.2 4.6-5.5 8.6-16.2 16.6-7.7 2.5 2.3 4.5 5.8 7.8 7q1.8 0 3.5-.5 3.8-.7 7 1.4h32.4c2-.8 3.7-3 5.2-4.5q4.4-5 7.9-10.6c2.6-3.3 5.5-9.5 10.5-8.5 4.6 1.7 7 6.7 10.5 9.8q1.5 1.3 3.5 1.9 1.9 1 3.5 2.3c3.9 3 7.2 7 11.4 9.6h26.2" class="b"/><path d="M8.1 61.3H37c5.6-5.5 9-16.7 17.5-7.2 2.3 2.2 5.3 7.5 8.7 7.2 2.6-.4 5.2-2.1 7.9-1.4q1.4.4 2.6 1.2c1.7.3 3.6.1 5.3.2h18.3q4 .1 7.9-.1 3.3-1.9 6.1-4.4c3.4-3.1 6-7 8.7-10.8 3-4.2 7-10 12.3-5.3q2.8 2.7 5.2 5.7c1.2 1.4 2.6 3 4.4 3.5 5.6 2.4 9.7 7.4 14.9 10.6 1.1 1 2.9.7 4.3.8H184" class="b"/><path d="m8.1 59.5.9.8h27.1c6.7-5.7 9.5-17.1 18.4-6.4q2.5 3.2 5.2 6c1 .6 2.4.3 3.5.4h2.6c1.9-1 4-2.1 6.2-1.7 1.2.2 2.3 1.2 3.5 1.7h20.1c2.9-.1 5.9.2 8.7-.1l5.3-2.3c10.5-4.8 14.2-23.5 22.7-17 3.3 2.4 5.2 6.5 8.7 8.6 5.9 2.2 10.4 7 15.8 10l1.7.8H184" class="b"/><path d="m8.1 57.5 1.8 1.6c2.5.4 5.3 0 7.9.2h16.6L36 58q2.3-2 4.4-4.3c1.6-1.7 3.1-4 5.2-5 5.4-2.3 9.9 7 13.1 10.2q1.3.4 2.7.3h4.3c1 .1 2-.6 2.7-1 2.9-2 5.4-1.3 7.8 1h26.3c1-.3 2.3-.9 3.5-1 2.3-.4 4.9-.7 7-2 6.8-3.5 10.6-16.3 16.6-16.1 4.3.6 6.6 5.3 9.6 8 1.1 1.3 2.9 1.8 4.3 2.5q3.7 2 7 4.2 3.8 2.5 8 4.3h25.3" class="b"/><path d="m8.1 55.4 3.5 2.9H30c4.6-.4 8.3-3.8 11.4-7 1.5-1.5 3-3.7 5.2-4C51.4 47 55.1 54.6 58 58c1 .4 2.4.2 3.5.3h6.1c3.4-3.2 6.4-3.9 9.6-.1q9.7.2 19.3 0h5.2q.9 0 1.8-.6 1.2-.4 2.6-.3c2.9.2 6.1.7 8.7-.9 6-3.1 9.6-15.8 15.8-15.4 4.3 1 6.3 5.7 9.6 8.2q1.7 1 3.5 1.7l6.1 3.2q4.3 2.3 8.7 4.2H184" class="b"/><path d="M8.1 53.2c2 1.4 3.9 3.2 6.2 4h9.6l2.6-1.2c2.3-.6 4.7-.5 7-1.2 4.7-1.4 7.7-5.5 11.4-8.3 4.3-2.1 7.4 3.5 9.6 6.4 1 1.3 1.9 3.5 3.5 4.3h8.7c1.5.3 2.5-1.1 3.5-1.9 3-2.4 5.8-.9 7.9 1.8 2.8.4 5.9 0 8.7.2h14.9c2-1.7 4.7-.9 7 0h7l1.7-1.2c4.6-3.8 6.7-12 12.3-14 5-.7 7.4 5.7 11.3 7.9 5.4 2 10.4 5 15.8 6.9 1 .5 2.4.3 3.5.4h23.6" class="b"/><path d="M8.1 50.7c3.8 2.7 8.3 6 13.2 4.6 1.8-.5 3.3-2 5.2-2.5 2.6-.6 5.3-.2 7.9-.9 3.8-1 6.7-3.8 9.6-6.3 5.6-4.1 10 7.5 13.1 10.7h11.4c3.9-4.5 6.7-5.2 10.5-.2 3.1.3 6.4 0 9.6.2l13.1-.1c1.2-1 3-1 4.4-.4q.8.5 1.7.5h11.4c3.9-3.8 8-17 14.9-12.3 2.5 1.8 4.3 4.7 7 6.3q5.3 2.2 10.4 4.3c2 .7 4 1.8 6.2 1.7h26.2" class="b"/><path d="M8.1 48.1c3.8 2.6 8.4 5.4 13.2 3.8 1.8-.5 3.3-2 5.2-2.5 2.6-.5 5.3.3 7.9 0 3.7-.5 6.8-3 9.6-5.3 5.1-3.7 9.9 7.5 12.2 10.8 1.3.6 3 .2 4.4.3h7c1.6.4 2.5-1.5 3.5-2.4 3.6-3.4 6.3-.6 8.7 2.4h21.9c.4-.2 1.3-.6 1.7-.6q1.5.1 2.7.6h14.8c1.6-1.1 2.4-3.4 3.5-5 2-2.8 4.7-7.4 8.8-5.9 3 1.4 5 4.7 7.9 6.3q4.4 1.6 8.7 3.4l3.5 1.2h30.6" class="b"/><path d="M8.1 45.3c3.9 2.4 8.6 4.8 13.2 3.1 1.5-.4 2.9-1.6 4.3-2.2 2.6-.8 5.3.3 7.9.5 4 .5 7.6-1.8 10.5-4.2 5.4-3.4 9.6 8.5 12.2 11.7h13.1c2-2.4 4.7-5.8 8-3.3 1.2.9 2.1 2.5 3.4 3.3h42c3-3.2 5.6-11.2 11.4-8.6 2.6 1.4 4.4 4 7 5.4q3.9 1.4 7.8 3c1.3.5 3 .1 4.4.2h30.6" class="b"/><path d="M8.1 42.3c5.5 3.2 11 4.8 16.6.8 2.6-1.2 5.4.1 8 .7 3.6 1.2 7.4 0 10.4-2.3 4.2-3.8 7.7 3 9.6 6 1.2 1.8 2 4.4 3.5 5.7h12.3c1.6.4 2.4-1.5 3.5-2.5 3.4-3.5 6.4-.6 8.7 2.5h43.7c2.6-4 6.2-9.7 11.4-5.7 2 1.3 3.7 3.5 6.1 4.1q2.2.6 4.4 1.6h37.6" class="b"/><path d="M8.1 39.4c4.2 2.4 9.4 4.1 14 1.8 2.6-1.3 3.9-2.5 7-1.5 3.3 1.2 7 3 10.5 1.7a15 15 0 0 0 3.5-1.7c.7-.6 1.7-1.2 2.6-1 4.4.8 7.5 9.2 9.6 13l1 .5h13.9c3.9-4.8 6.4-5.5 10.5-.4 1.2.8 3 .3 4.4.4h36.7c1.4 0 3 .3 4.3-.3 5.4-7.3 7.8-5 14-.6 1.6 1 3.5 1 5.3 1h38.5" class="b"/><path d="M8.1 36.7c4.3 2.4 9.4 3.8 14 1.5 1.7-.8 3.3-2.3 5.3-2 4 .8 7.8 4 12.2 3q1.9-.6 3.5-1.5 1.2-.9 2.6-1c4.5 1.3 7.5 10 9.6 14l1 .5h9.5c1.7-.1 3.7.3 5.3-.3 4-5.2 6.4-3.7 10.5.3h41.1c1.7 0 3.6.3 5.2-.3 1.4-1.4 3.2-2.7 5.3-2.6 2.3.2 4.1 1.9 6.1 3h44.6" class="b"/><path d="M8.1 34.1c4.4 2.6 9.3 3.8 14 1.3 1.6-.9 3.3-2.3 5.3-2 4.4.8 8.4 4.5 13 3.2q1.6-.4 2.7-1 1.2-1 2.6-.8c3.7 1.5 5.2 6 7 9.1l1.8 3.7c.2.7 1 2.3 1.7 2.6h14.9c4-4.4 6.3-4.5 10.5-.1 10.4.3 21 0 31.5.1h16.6c.4 0 1.3-.3 1.7-.5q1.4-.4 2.6-.2 1.4.3 2.7.7h47.2" class="b"/><path d="M8.1 31.8c4 2.6 8.7 3.9 13.2 1.5 1.7-.7 3.2-2.3 5.2-2.5 4.3 0 7.9 3.5 12.2 3.6a10 10 0 0 0 3.5-.6c.8-.3 1.8-1 2.7-1 3.9.3 6.2 6.6 7.8 9.6 1.2 2.1 2 5 3.5 6.8h9.6c2-.1 4.2.3 6.2-.3 2.1-2.6 4.9-3.8 7.8-1.6 1 .7 2.1 2.1 3.5 1.9H184" class="b"/><path d="M8.1 29.7c4.2 2.9 8.5 4.2 13.2 1.5 1.4-.7 2.8-2 4.3-2.5 4.4-1 8.1 2.6 12.3 3.2q2.2.3 4.3-.3 1.3-.5 2.6-.8c5.3.7 8.7 13.2 11.4 17.4H72c2.4-2.2 4.6-3.8 7.8-2 1.2.6 2.2 2 3.5 2H184" class="b"/><path d="M8.1 27.8c6.5 5 10.4 4 16.6-.7 3.8-2 7.8.8 11.4 2q3 1 6.1.5c.8-.2 1.8-.7 2.6-.7 5 .8 9.1 13.7 11.4 18q1.3.4 2.6.3H72c1-.2 1.8-1.2 2.6-1.7 1.5-1 3.6-1 5.2-.3q1.4.6 2.7 1.4.7.5 1.7.6h99.7" class="b"/><path d="M8.1 26.2c4.2 3.5 8.3 5.2 13.2 1.8 1.7-1 3.2-2.6 5.2-3.2 4.3-1 8.2 2 12.2 2.8q1.8.3 3.5 0c1.1-.1 2.4-.7 3.5-.2 3 1.7 4.6 5.3 6.2 8.2 1.8 3.3 3 7.5 5.2 10.6h15.7c4.3-4 7.7-2 12.3 0h98.8" class="b"/><path d="M8.1 24.8c4.1 3.8 8 5.9 13.2 2.2 1.7-1.2 3.2-2.8 5.2-3.5 3.9-1.3 7.7.9 11.4 1.9 1.3.4 3 .6 4.3.5 1.1-.1 2.4-.6 3.5 0 5 2.9 8.5 13.6 11.4 18.9q1.2.6 2.6.4h13.1c5.4-4 8.3-1.6 14-.8q4 .5 8 .3 1.6 0 3.4.5H184" class="b"/><path d="M8.1 23.5c4 4.2 7.9 6.8 13.2 2.7 1.6-1.2 3.2-2.9 5.2-3.7 4-1.8 8.3.3 12.2 1.4q1.8.5 3.5.5c1.1 0 2.5-.5 3.5 0 5.3 3 9 14.3 12.3 19.7h14c.9.2 1.8-.5 2.6-1l2.6-1c2.9-.7 5.9 0 8.8-.1 3.7-.2 7.7-.9 11.3.6 1.2.3 2.3 1.5 3.5 1.5h83" class="b"/><path d="M8.1 22.5C12 27 16 30.3 21.3 25.8c3.4-3 6.3-5.8 11.3-5 3 .4 5.8 1.8 8.8 2.2 1 .2 2.4-.1 3.5 0 5.6 1.4 10.4 15.1 14 20 2.8.3 5.8 0 8.7.1h5.2l2.7-1.4c3-1.4 6.4-1.2 9.6-1.8C91.5 38 96 37.6 100.8 43c3.5.3 7 0 10.5.1H184" class="b"/><path d="M8.1 21.7c3.7 4.6 7.5 8.8 13.2 4 2.1-2 4.2-4.2 7-5.3 3.4-1.4 7.1-.3 10.4.8q1.8.6 3.5.8c1.1 0 2.5-.2 3.5.3 4.6 2.4 7 8.1 9.7 12.4 1.6 2.4 2.9 5.6 5.2 7.4H72q5.4-2.6 11.3-3.8c2.4-.7 4.6-2.1 7-2.6 5.2-1.2 8.4 3 11.4 6.4H184" class="b"/><path d="M8.1 21c12.5 18.2 14-5.8 28-1.6q2.6.9 5.3 1.6 1.7.3 3.5.2c5.5 1.4 9.7 10.7 13 15 1.6 2 3.4 5.1 6.2 5 2.6-.2 5.4.3 7.9-.7l11.3-4c2.4-1.2 4.5-3 7-3.8 5.4-1.5 8.9 4.3 11.4 8.2 1.4.5 3 .2 4.4.2h77.8" class="b"/><path d="M8.1 20.5c12 19.2 13.8-4.2 27.1-2 3.3.7 6.3 2.4 9.7 2.1 5.8 1.3 10 9.6 14 13.9 3.7 5 9.2 5.1 14.8 3.8q5.1-1.2 9.6-3.8c3.4-2.2 7-7 11.4-4.3 2.2 1.4 3.9 3.9 5.3 6 .7 1.2 1.5 3 2.6 4h81.3" class="b"/><path d="M8.1 20c2.4 3.4 5.5 10.1 10.5 8 2.4-1.1 4.2-3.4 6.1-5.2 2.8-2.7 6.4-5.4 10.5-4.7 3.3.6 6.3 2.5 9.7 2.2 6.2 1 10.3 8 14.8 12 4 3.9 10.4 5.2 15.7 4q4.4-1.2 8-3.8c2-1.7 3.8-3.9 6-5.2 6.7-3.7 10.3 7.6 13.2 11.8h81.3" class="b"/><path d="M8.1 19.6c2.3 3.4 5.5 10.9 10.5 8.9 2.5-1.2 4.2-3.6 6.1-5.4 2.6-2.6 5.8-5.5 9.7-5.3 3 0 5.7 2 8.7 2.3 6.5-.5 11.1 4.8 15.7 8.5q3.1 2.7 7 4.2c3 1.4 6.4 2.4 9.7 1.7s6.3-2.6 8.7-4.9c1.6-1.7 3.2-3.7 5.2-5 6.4-4.2 10.8 9.1 13.2 13.3 1.3.4 3 .1 4.3.2h77" class="b"/><path d="M8.1 19.2c2.2 3.4 5.4 11.6 10.5 9.6 2.5-1.1 4.2-3.6 6.1-5.4 2.6-2.6 5.7-5.7 9.7-5.7 3.3 0 6.2 2.5 9.6 2.3 5.5-.4 10.4 2.8 14.8 5.8q3.4 2.2 7 4c3.2 1.8 6.8 3.7 10.5 2.7a17 17 0 0 0 7.9-5c1.9-2 3.6-4.7 6.1-6 5.9-2.5 10 11.1 12.3 15l.8.6H184" class="b"/><path d="M8.1 18.8c2.1 3.4 5.4 12 10.5 10.3 2.5-1.2 4.2-3.6 6.1-5.5 2.5-2.5 5.2-5.4 8.8-5.8 3-.3 5.8 1.6 8.7 2.2 1.7.3 3.6-.2 5.3 0q5 .2 9.6 2.3 4.6 2.2 8.7 4.7c3.3 2.2 7.3 4.8 11.4 3.4 4.6-1.5 7.5-5.7 10.5-9.2 6-6.8 10 3.4 12.2 8 1.1 2.1 1.8 5.2 3.5 6.9H184" class="b"/><path d="M8.1 18.2c2 3.5 5.4 12.6 10.5 10.9 2.5-1.2 4.3-3.6 6.1-5.5 2.4-2.5 5.2-5.4 8.8-5.7 3.4-.3 6.3 2.1 9.6 2.4 2.3-.2 4.7-.8 7-.9q4 0 7.9 1 4.2 1.5 7.8 4c3.5 2.5 7.8 5.7 12.3 3.7 4.2-1.7 6.7-5.8 9.6-9 8.1-8.9 12 11.7 15.7 16h54.2c1.2-.2 2.4-.9 3.5-1.1.8-.2 2 0 2.7.4.3.3 1.2.7 1.7.7H184" class="b"/><path d="M8.1 17.5c2 3.5 5 11.6 9.7 11.5 2.6-.5 4.3-3 6-4.7 4-4.3 8-8.3 14-5.5 1.7.7 3.5 1.6 5.3 1.6 3.5-.5 7-1.9 10.5-2 10.8-.7 13.4 7.1 21 8.3 9.5.7 12.9-15.7 19.2-10.5 3.5 3.4 5 8.4 7 12.7.7 1.5 1.5 4 2.6 5.2h46.4c1.7 0 3.8.3 5.2-.8 5.4-3.2 7.6-4.7 12.3.6 5.5.4 11 0 16.6.2" class="b"/><path d="M8.1 17c2 3.5 5.4 12.9 10.5 11.3 2.5-1 4.3-3.5 6.1-5.4 3.8-4 7.6-6.7 13.2-4 3.5 1.6 5 2 8.7.5 3.9-1.4 8-3.1 12.2-2.4 6 .7 9.8 6.8 15.8 7.6 9.4.8 12.9-15.2 19.2-9.7 3.4 3.5 5 8.5 7 13 .7 1.5 1.5 3.9 2.6 5.1h47.3c3.4-2 6.5-5 10.5-6.2 3.6-.2 5.8 3.8 7.8 6.2H184" class="b"/><path d="M8.1 16.8c3 5.5 7 16.4 14 8.5 4-4.2 8.5-9.8 14.9-7 2.2.8 4.6 2.4 7 1.7 5.6-1.8 11.3-6 17.5-4 4.6 1.6 8 6 13 6.6 9.5 1 13-14.4 19.3-8.8 4.8 5 6 12.5 9.6 18.2h42c1.1 0 2.5.2 3.5-.2l1.8-1.3c2.6-2 5-4.3 7.8-6s4.8-1.4 7 1q2 2 3.5 4.6c.3.6 1.2 1.6 1.8 2h13" class="b"/><path d="M8.1 16.9c2 3.5 5.3 12.5 10.5 10.6 2.5-1.2 4.2-3.6 6.1-5.4 3-3 6.9-6 11.4-4.4 2.3.7 4.5 2.2 7 2 6.2-1.4 11.7-7 18.4-5.2 4.6 1.5 8.1 5.7 13 6.2 9.6 1.1 13-13.4 19.3-7.8 4.7 5 6.3 12.3 9.6 18.1h42.9c1.6-.3 3-1.8 4.3-2.8 3-2.4 5.5-5.4 8.8-7.3 5.6-3.5 9.2 7 12.2 10.1H184" class="b"/><path d="M8.1 17.2c2 3.5 5.3 12 10.5 10 2.8-1.5 4.7-4.3 7-6.3 2.8-2.7 6.5-5 10.5-3.6 2.3.6 4.6 2 7 1.9 6.2-1.5 11.6-7.4 18.4-6 4.5 1.3 8.2 5.2 13 5.7 9.8 1.3 12.9-12.2 19.3-6.7 4.7 4.9 6.5 11.8 9.6 17.6 1.1.4 2.4.2 3.5.2h19.3q9.6.2 19.2 0 4.4-2.9 7.9-6.7c2.5-2.2 6.9-8 10.5-5.6 4 3 5.6 8.5 8.7 12.3H184" class="b"/><path d="M8.1 17.7c2.3 3.9 5.8 12.5 11.4 8.6 2.5-1.9 4.6-4.4 7-6.4s5.5-4 8.7-3.3c2.4.4 4.6 1.7 7 1.9 2.2 0 4.2-1.3 6.2-2.1 3.8-2 7.7-4.7 12.2-4.6 1.9.2 3.6 1.2 5.2 2q3.8 2.1 8 3.2c11 2.4 13.8-11.9 20.9-4.6 2.6 3 4.4 7 6.1 10.6 1 1.8 1.8 4.7 3.5 6H142c.8 0 2 .1 2.6-.4 3.4-2 6.2-4.8 8.8-7.6 1.9-2 3.8-4.3 6-5.9q2.9-1.9 5.3.4c2.7 2.6 4.4 6.2 6.2 9.4.7 1.2 1.3 3.3 2.6 4.1h10.5" class="b"/></svg>