<svg xmlns="http://www.w3.org/2000/svg" id="a" width="1920" height="2400" viewBox="0 0 192 240"><defs><style>.b{fill:none;stroke:#fff;stroke-miterlimit:10;stroke-width:.3px}</style></defs><path d="M0 0h192v240H0z" style="stroke-width:0"/><path d="M8.8 225.6h65.1c.6-.2 1.4-1 1.7-1.5q3.3-3.9 7-7.5c3.5-3.8 7.8-3.6 12.1-1 2.6 1.5 5 3.4 7.8 4.4 2.3 1.1 3.8 3.6 5.2 5.6h33.9c1-.9 1.8-2.6 2.6-3.7q2.1-3.2 5.2-5.4c2.4-1.7 5.4-2.7 7.8-4.5 4.5-3.4 6.2-9.3 9.5-13.7 4-5.5 7.2-2.4 10.4 1.8 1.8 2.4 4.3 4.4 6.1 6.8" class="b"/><path d="M8.8 224.6h63.3c1.1 0 2.5.2 3.5-.2q3.3-3.8 7-7.5c3-3.4 7-4.6 11.2-2.8 3.2 1.3 6.3 3.1 9.6 4.6 2.2 1.4 3.3 4.2 5.2 6h33c2.3-4 5-8 9.5-9.7 2-.8 4.2-1.4 6-2.6 3.4-2.3 5.1-6.3 7-9.7 4.3-7.8 7.2-11.8 13.9-3 1.6 1.9 3.7 3.7 5.2 5.7" class="b"/><path d="M8.8 223.6h67.7c4.5-4 8-11 14.7-11.2 3.4 0 6.6 1.7 9.6 3 3.8 1 5.9 4.7 7.8 7.9q1.2.4 2.6.3h27.7c.8 0 2 .1 2.6-.3 2-3.5 4.6-7.2 8.7-8.3 2-.6 4.2-.8 6-1.6 3.6-1.4 5.4-5.1 7-8.3 2-3.3 4.4-10 8.7-10.6 2.6 0 4.4 2.4 6 4.1q2.9 2.6 5.3 5.4" class="b"/><path d="M8.8 222.6h67.7q1.6.2 2.6-1.3c3.7-4 7-9.5 13-10 4-.3 7.8 1.4 11.3 3 2.6 2.2 4.3 5.5 6 8.3h31.3c1-.8 1.8-2.5 2.6-3.6q1.4-2 3.4-3.3c2.6-1.6 5.8-1 8.7-1.4 4-.6 6-4.8 7.8-8.1 2.2-3.8 3.9-8.8 7.8-11.2 2.3-1 4.5.6 6.1 2 2 2 4.3 3.7 6 5.8" class="b"/><path d="M8.8 221.6h70.3c4.7-5.4 9.8-13.8 18.2-11.8 2 .5 4.3 1.2 6 2.3 3.2 2.4 4.6 6.5 7 9.5h30.4c1.7-2.7 3.5-6.2 7-7 3.6-1 7.9 1.8 11.2-1 5-4 7.4-17 13.9-18.4 2.3-.2 4.3 1.7 6 3q2.4 1.6 4.4 3.6" class="b"/><path d="M8.8 220.6h14.8c1-.4 2.3-.9 3.4-.5 2 1 4.7.4 7 .5h46c6.4-7.6 11-16.8 22.5-11.4 2.8 1.6 4.5 5 6 7.7.8 1 1.4 3.1 2.7 3.7h25.1c1.4 0 3 .2 4.4-.2 1.4-2.8 3.5-6.2 7-6.6 3.7-.3 7.6 3.3 11.2.9 5.3-4.2 7.3-16.3 13.9-18.7 2.2-.5 4.3 1 6 2q2.4 1.4 4.4 3" class="b"/><path d="M8.8 219.6h10.4c1.5.3 2.5-1.3 3.5-2.1 3.3-3.2 6-.6 8.7 2 2 .3 4 0 6 .1h43.4c4.4-5.6 9-15 17.4-14q2.8.3 5.2 1.8c3.5 3.2 5.5 8 7.8 12.2h28.6c.7-.2 1.4-1.5 1.7-2.2 1.3-2.1 3.4-4.5 6.1-4.2 3.9.2 7.4 4.4 11.3 2.4 2.4-1.7 3.8-4.8 5.2-7.2 2.2-3.8 4.1-8.3 7.8-10.8 1.9-1.1 4.2-.6 6 .3a27 27 0 0 1 5.3 2.7" class="b"/><path d="M8.8 218.6h8.7c2.5-2.1 4.6-5.3 7.8-6.3 1.7-.2 3.2 1 4.3 2.1l2.6 2.8c.6.8 1.5 1.6 2.6 1.4h46c1.2-.4 1.9-2.1 2.6-3 2.3-3.5 4.7-7.1 7.8-9.9 3.4-3 7.4-3 11.3-1.1 2.4 1.4 3.8 4.1 5.2 6.4s2.6 5.4 4.3 7.6h27.8c2-2.2 3.3-6.1 7-6.1 4 .1 7 4.7 11.2 4 3.6-1 5.8-6.8 7.8-9.9 5.4-8.6 7.6-10.5 17.4-6.2" class="b"/><path d="M8.8 217c5.2 2.5 9.3-3.5 13-6.3 1.4-1 3.4-2.6 5.2-1.6 3.3 2 5.3 5.6 7.8 8.5q23.5 0 46.9 0c4.1-5.8 9.4-18.6 18.2-16.2 3.4.7 5.3 3.2 7 6q2.7 4.8 5.1 9.8c1 .7 2.4.4 3.5.4h24.3c1.8-2.3 3.4-6.1 7-5.7 4.1.5 6.8 5.3 11.2 5.1 3.5-.8 5.8-6.3 7.8-9 5.4-8.1 7.6-9.8 17.4-7.5" class="b"/><path d="M8.8 213.4c4 1.3 7.5-1.9 10.4-4 2-1.5 4.4-4 7-3.7 3.8 1.4 6.7 7.5 9.5 10.6q1.2.4 2.6.3h43.4c4.3-5.4 8.7-18.7 17.3-17.4 4 .6 5.9 3 7.8 6.3 2.2 3.5 4 7.6 6.1 11.1h26.9c4.4-7 6.7-6.7 13-1.7l2.6 1.7h4.3c5.3-4.3 7.6-11.8 14-14.8 3-1.1 6.3-.8 9.5-1" class="b"/><path d="M8.8 209.9c3.9.6 7.3-2 10.4-4q2.1-1.4 4.4-2.4 1.2-.7 2.5-.6c2.4.9 3.8 3.3 5.3 5.2 1.6 2.3 3.3 5 5.2 7.2q1.2.5 2.6.3h42.5c5.3-6.8 10.2-24.2 21.7-16.5 3 3 4.9 7.2 7 10.9 1 1.7 1.8 4.3 3.4 5.6h26c2.3-3.1 4.3-6.6 8.7-4.2 2.2 1.1 3.9 3.2 6 4.2h6.1c1-.3 2-1.5 2.6-2.2 3.5-4 6.9-8.7 12.2-10.2q3.8-.7 7.8-1.8" class="b"/><path d="M8.8 206.5c3.4 0 6.5-2 9.5-3.3l4.4-2c1-.3 2.3-1 3.5-.7 2.3 1 3.7 3.5 5.2 5.4q2.8 4.6 6 8.7h44.3c4.2-5.4 8.6-20.8 17.3-19.1 4 .8 5.9 3 7.8 6.4 2.4 4 4.6 8.5 7 12.5q1.7.4 3.5.2h22.5c1.2-1 2.1-2.8 3.5-3.7 3.8-2.5 7.3 1.9 10.4 3.7 12.4 0 6.2.8 15.6-6.3q2.9-2 6-3 4.2-1 7.9-3" class="b"/><path d="M8.8 203.1c4.4-.8 8.6-2.9 13-3.8l3.5-1c1.9 0 3.2 2 4.3 3.3q2.7 3.9 5.2 8c1 1.2 2 3.2 3.5 4h43.4c4-6.1 6-14.1 12.1-18.7 3-2.1 6.9-.9 9.6 1 4.9 5 7 12.2 11.2 17.7h25.2c.6-.2 1.4-1.2 1.7-1.7 1.3-1.5 3.3-2.7 5.3-2q2.3.6 4.3 2.3c.8.5 1.6 1.4 2.6 1.4h9.5c3-2 6.2-4 9.6-5.2 3.6-1.3 7.4-2.4 10.4-5" class="b"/><path d="M8.8 200q3.4-1 7-2 3-.5 6-.7 1.8-.2 3.5-.7c1.9 0 3.2 2 4.3 3.4 3 4.1 5.3 8.8 8.7 12.6h43.4c3.5-6 6.8-16.5 13-19.8 2-1 4.2-.5 6 .4a9 9 0 0 1 3.5 2.2c4.5 5.2 6.7 12.2 11.3 17.2h21.7c1.1 0 2.4.2 3.5-.2 3.8-5.4 7.8-2.9 12.1.2H165q2.5-.9 5.2-1.5c5.2-1.1 9.3-2.3 13-6.3" class="b"/><path d="M8.8 196.9c5-2 7.7-2 13-1.3 3.7 0 4-1.6 7 2 3.4 4.3 5.7 9.6 9.5 13.8q1.2.3 2.6.2H73q4.4.2 8.7-.1c3-5.6 7.5-18.8 13.9-20.4 1.7-.4 3.6.2 5.2 1 1.6.6 3.3 1.7 4.3 3.2 4 5.2 6.6 11.7 11.3 16.3h24.3c3-3.3 5.6-3.7 9.5-1.5l2.6 1.5h23.4c3-.6 5.1-3.2 7-5.3" class="b"/><path d="M8.8 194c6-2.7 8.2-.9 13.9.3 1.1.2 2.4-.4 3.5-.1 3.2 1.9 4.8 5.8 6.9 8.8q2.2 3.8 5.2 7.2c1.2.8 3 .3 4.3.4h38.2l.9-.5c2.2-4.6 4.3-9.6 7-14 2.1-3.6 5.6-7.8 10.3-5.8q2.3.9 4.4 2.2c.9.7 1.9 1.9 2.6 2.8 2.6 3.3 8.8 15.4 13 15.3h21.7c.9-.3 1.8-1.3 2.6-1.7q1.6-1 3.4-.7c2.5.1 4.7 1.8 7 2.4H177c3.8 0 3.7.7 6-2.7" class="b"/><path d="M8.8 191.3c6-3 8.6.1 13.9 2 1 .3 2.4-.3 3.5 0 2.3 1.2 3.7 3.9 5.2 6 2.3 3.5 4.4 7.7 7.8 10.3h41.6c.7-.4 1.5-2 1.8-2.7l1.7-3.8c2.3-4.6 4.4-10 8.7-13.3 2-1.4 4.8-1 7 .1 1.4.8 3.1 1.3 4.3 2.5 4.6 4.9 7.3 11.6 13 15.4a12 12 0 0 0 4.3 1.8h20c2.6-2.7 6.3-2.5 9.5-1.2 1.7.6 3.4 1.5 5.2 1.2h27" class="b"/><path d="M8.8 188.7c6.6-3.6 9.3 2.3 14.8 3.8.7 0 1.8-.2 2.5 0 2 1 3.2 3 4.4 4.7 2.7 3.9 5 8.3 8.7 11.4h41.6c.6-.5 1.5-2.2 1.8-3l2.6-5.6c2.1-4.2 4.2-9.4 8.6-11.6 3-1.2 6 1 8.7 2 2.2 1.2 3.7 3.4 5.2 5.3 2.1 2.7 4.3 5.7 7 7.9a18 18 0 0 0 7 3.3q2 .8 4.2 1.7h15.7c6-4.5 10.3-.3 16.5 0h25.1" class="b"/><path d="M8.8 186.3c6.5-3.6 9.6 3.6 14.8 5.4.7.1 1.8-.2 2.5.1 2.3 1.2 3.8 3.8 5.3 5.9 1.8 2.5 5.6 9.2 8.6 10h40.8c1.2-1.3 1.9-3.6 2.6-5.1 1.6-3.3 3.2-7 5.2-10 3-4.6 6.1-6.7 11.3-3.8q2.3.9 4.3 2.2c3.2 2.7 5.5 6.4 8.7 9.1a15 15 0 0 0 5.2 3c2.4.6 4.9 1 7 2.3 1.7.6 3.3 2.3 5.2 2.2h11.3c5.6-4.4 12-.9 18.2-.5q1.3.1 2.6.5h20.8" class="b"/><path d="M8.8 184c5.8-3.3 9.6 3.9 13.9 6.5q1.2.6 2.6.4c1 0 2 .8 2.6 1.4 4.2 4.6 6.7 11 12.1 14.3h40.8c1.7-1.7 2.3-4.6 3.5-6.7 2.3-4.4 4.6-10.7 9.5-12.7 3.1-.9 5.9 1.4 8.7 2.3 4.4 2 7 6.9 11.3 9.2 2.3 1.5 5.2 1.8 7.8 2.3 3.2.7 6 2.9 8.7 4.6l1.7 1h8.6c1 0 1.9-1 2.7-1.3q3.2-1.7 7-1.3c3.4.3 6.9 1.2 10.3 1.5 1.2.3 2.3 1.4 3.5 1.1h19" class="b"/><path d="M8.8 181.8c6.1-3 9.6 5 13.9 7.7a4 4 0 0 0 2.6.5q1 .1 1.7.7c4.1 3.6 6.4 8.9 10.4 12.5 3.4 3 3.7 2.4 7.8 2.4h33c1.1 0 2.5.3 3.5-.4 1.8-4.1 3.7-8.5 6-12.4 2.3-3.7 5.7-7.6 10.5-5.4l5.2 2c1.5.7 3 2 4.3 3 2.5 2.2 5.3 4.3 8.7 4.9q2.6.3 5.2.6c3.6.8 6.5 3.6 9.5 5.6q1.6 1.3 3.5 2.1h5.2c1.3-.2 2.3-1.5 3.5-2q2-.9 4.3-1.2c3.2-.4 6.5.3 9.6.9l3.4.7c1 .2 2 1 2.6 1.6h20" class="b"/><path d="M8.8 179.8c7-3 10.2 8.5 15.6 9.5 3.5-.6 6.6 5.3 8.7 7.6 2 2.5 4.2 5 7 6.5q1.2.8 2.5 1.2h39.1c3-5.2 6.8-17.7 13.9-17.9 1.7 0 3.5.9 5.2 1.5q2.8.5 5.2 2c3.7 2.6 7.4 4.8 12.1 4.6q4.3-.4 7.8 2.1c4 2.5 8.8 8.8 14 7 1.6-.9 3.2-2.3 5.1-2.8 5.1-1.6 10.6-.2 15.7 1a7 7 0 0 1 2.6 2.2c.3.2 1.2.4 1.7.3h18.2" class="b"/><path d="M8.8 178c6.3-2.2 9.6 7 13.9 10q1.1.8 2.6.5l1.7.6c4.3 3.2 6.8 8.4 11.3 11.5q2.8 1.8 6 3h37.4c1.6-1.4 2.3-4.3 3.4-6.1 2.3-4 4.7-9.3 9.6-10.5 3-.4 5.7 1.3 8.7 1.4 3.5 1 6.6 3.5 10.4 3.8 2.6.3 5.2-.4 7.8 0 6.4 1 11.7 11.5 18.2 9.7 1.5-.6 2.8-1.8 4.3-2.4q5.1-1.8 10.5-.8c2.3.5 4.9 1 6.9 2.2.9.7 1.8 2 2.6 2.7h19" class="b"/><path d="M8.8 176.2c6.2-1.5 9.5 8.3 13.9 11.2q.8.5 1.7.6 1.4-.2 2.6.3c4 2.6 6.6 7 10.4 9.9q4 2.9 8.7 4.2c1.4.4 3 .2 4.3.2h32.2c3.5-5.8 7-16.8 15.6-15.2 2 .5 4 .5 6 .8 2.9.6 5.8 1.8 8.7 1.8 2 .1 4.1-.3 6-.4 4.7-.7 8.2 3 11.4 5.8 2.7 2.4 6.5 6 10.4 4 4.2-3 9.7-3.7 14.7-2.6 4.3 1 6.5 1.6 8.7 5.7 6.3.3 12.8 0 19.1.1" class="b"/><path d="M8.8 174.7c5.7-1 9.3 8.3 13 11.5 2.2 2.1 3 .5 5.2 1.4 3.4 1.7 5.8 5 8.7 7.4q5.8 4.8 13 6.6h29.5c1.7-.1 3.6.3 5.2-.3 2.7-4.8 5.2-10.6 10.4-13 2.2-1 4.7-.6 7-.5q1.6-.1 3.4-.1c2.9.1 5.8.6 8.7.3 2.3-.2 4.7-.8 7-.9 5 0 8.4 4.7 12.1 7.5 2.3 2 5.6 4.3 8.7 2.7 5.9-4 13.8-3.9 20-.6 1 .6 2 1.9 2.6 2.9.2.5 1 1.8 1.7 2h18.2" class="b"/><path d="M8.8 173.4c6.4-.5 9.5 11.3 14.8 13.5.8.1 1.7-.3 2.5-.3 1.7.2 3.2 1.3 4.4 2.2 4 3.5 8 7.2 13 9.3 1.3.8 3 1.3 4.3 1.8l1.8.7h33.8c.8-.2 1.4-1.4 1.8-2l1.7-2.9c2.4-3.6 5.8-7.3 10.4-7.7q3.5-.2 7-.9 3.4-.3 6.9-.8c11.5-2.4 11.1-2.5 20 5.4 2.5 2.2 6 5 9.5 3.4a19 19 0 0 1 20 0c1.9 1.3 2.8 3.9 4.3 5.5h18.2" class="b"/><path d="M8.8 172.2c6.4-.1 10.2 14.6 15.6 14.2 4.4-2 9.5 4.3 13 6.5q5.3 3.8 11.3 6c1.5 1 3.5.6 5.2.7h30.4c1.1-.5 1.8-2.2 2.6-3.2q1.5-2.3 3.5-4.1c2.8-3 6.5-3.9 10.4-4.6q3-1 6-1.9l7-2c3-.9 6.5-1.9 9.5-.3s5.3 4 7.8 6.2c2.4 2 5.4 4.3 8.7 3.5 5.4-2.6 9.6-4 15.6-2a18 18 0 0 1 6.1 3.2c1.3 1.4 2.3 3.6 3.5 5.2h18.2" class="b"/><path d="M8.8 171.3c6 .9 8.8 11.5 13.9 14.5q1.3.4 2.6-.3 1.7-.5 3.5 0c3.6 1.4 6.4 4.3 9.5 6.5q4.8 3.5 10.4 5.9c1.7 1.2 4 .5 6 .7h28.7q1.4.1 2.6-.3c7-9.8 10.5-8.2 20-13.1 4.8-2 10.1-5.4 15.6-4.3 3 .9 5.4 3.4 7.8 5.4 2.9 2.4 6.3 5.7 10.4 4.7 5-2.3 9.2-3.6 14.8-1.7 2.4 1 5 2.2 6.9 4 1.3 1.5 2.4 3.6 3.5 5.3h18.2" class="b"/><path d="M8.8 170.6c6 1 9.3 14 14.8 15 .8 0 1.7-.7 2.5-1q1.8-.4 3.5.1c4 1.4 7 4.7 10.4 7.1 2.6 2.2 5.8 3.5 8.7 5.1 1.4 1.2 3.5.6 5.2.7h33c2.5-2.8 5.3-5.6 8.7-7.4q3.9-2 7.8-4.2c5.8-3.5 12.9-9.7 20-6.2 5.2 2.8 9 9.6 15.6 9.2 1.5-.2 2.9-1 4.3-1.5q3-1 6-.9c4.2.3 8 2.5 11.3 4.9 2 1.6 3 4.1 4.4 6h18.2" class="b"/><path d="M8.8 170c5.8 1.5 9.3 14.7 14.8 15.2.8-.2 1.7-1 2.5-1.3q1.7-.7 3.5-.4c3.8 1 6.7 4 9.6 6.3q3.5 3.3 7.8 5.3l2.6 1.5h13q13 .1 26 0c4-4.3 9.3-7 13.9-10.4 5.2-3.8 10.3-10 17.4-9.2 6.8 1 10.3 9.1 17.3 10 1.8.2 3.6-.6 5.2-1.2q2.5-1 5.2-1c5 .2 9.2 3.2 13 6 1.9 1.5 2.8 4.1 4.4 5.8h18.2" class="b"/><path d="M8.8 169.7c5.6 1.7 9.3 15.2 14.8 15 .8-.2 1.8-1.1 2.5-1.5q2.1-1.2 4.4-.7c3.1.8 5.5 3.3 7.8 5.4 2.3 2.3 4.8 4.6 7.8 6q1.4.7 2.6 1.6 2.2.1 4.4.1h37.3c4.2-3.6 8.9-6.8 13-10.6 5-4.8 11.2-12.6 19-8.8 5.7 2.9 10.2 10.4 17.4 8.5 2.7-1 5.7-2 8.7-1.3 5 1 9.2 4.6 13 7.9.5.5 1.3 1.7 1.7 2.4l.9 1.4.9.5h18.2" class="b"/><path d="M8.8 169.5c5.4 1.8 9.4 15.5 14.8 14.7.9-.3 1.8-1.3 2.5-1.8q1.6-1.1 3.5-1.2c4.1.2 7 3.8 9.6 6.5q2 2.3 4.3 4.1l4.3 2.6c1.4.4 3 .1 4.4.2h37.2c1.2 0 2.6.3 3.5-.4q6.1-5 11.3-10.6c3.1-3.4 6-7.6 10.4-9.4 6.8-2.6 11.5 3.7 16.5 7 2.3 1.5 5.1 2.5 7.8 1.9q2.3-.6 4.4-1.3c3.7-.8 7.4.8 10.4 3q3.6 2.6 7 5.5c1.3 1.2 2.4 3 3.4 4.3h19" class="b"/><path d="M8.8 169.4c5.3 2.3 8.5 13.8 13.9 14.5 1 0 2-.9 2.6-1.5a9 9 0 0 1 3.5-2.2c3.5-.8 6.4 2.3 8.6 4.7s4.1 5.3 7 7c1 .5 2.2 1.6 3.4 1.7h46c1.4-.5 2.4-2 3.5-3q3.1-3 6-6.6c3-3.6 5.7-7.9 9.6-10.6 6.7-4.3 12.2 2.3 17.4 5.9a11 11 0 0 0 7.8 2.2q2.2-.5 4.3-1.3a10 10 0 0 1 7 1c2.9 1.6 5.3 4 7.7 6.2 2 1.9 4.6 3.6 6.1 6q1.3.3 2.6.2h17.4" class="b"/><path d="M8.8 169.5c5 1.9 9.4 15.8 14.8 13.7 2.3-1.8 4.3-5 7.8-4.1 2.5.7 4.4 3 6 5 2.6 3.1 4.9 6.7 8.7 8.5h49.5q4.7-4.8 8.6-10.3c3.4-4.3 6.9-11.7 13-11.8 7 .5 10.7 8.1 17.4 9.4q2.2.4 4.4-.2c1.4-.3 2.8-1 4.3-1.1 5-.3 8.8 3.9 12.1 7.1 2.2 2.4 4.8 4.4 7 6.7 2.5.5 5.2.1 7.8.2h13" class="b"/><path d="M8.8 169.6c4.8 1.9 9.4 15.8 14.8 13 1.9-1.5 3.4-4.1 6-4.7 5.3-.6 9 7.9 12.2 11.3.9 1 2 2.3 3.4 2.4h51.2c1.8-1.3 3-3.5 4.4-5.1 2.9-3.5 5.2-7.6 7.8-11.3 6.5-9.4 11.7-6.3 19 0 10 8 12-.3 19.2 2.8 3.5 1.8 6 5 8.6 7.8 1.9 2 3.7 4.4 6.1 5.8h21.7" class="b"/><path d="M8.8 169.7c5 2.9 6.9 10.3 12.2 12.8 3.2.8 4.5-3.5 6.9-4.8 7-4.2 11 10 15.6 13h53.8c1.7-1.6 3-3.9 4.3-5.7 3.2-4.1 5.4-9 8.7-13.2 6-7.6 11.8-2.2 17.4 2.5 9.8 8 12.2-1 19 3 4 2.4 6.7 6.4 9.6 9.9 1 1.1 2 2.7 3.5 3.4h23.4" class="b"/><path d="M8.8 169.7c4.9 2.8 6.9 10.4 12.2 12.4 3.3.5 4.4-3.8 6.9-5.2 6.7-4.4 10.7 9.6 14.7 12.7h55.6a94 94 0 0 0 7-10.4c2.6-4.2 6-12.8 12-12.3 6.7 1.2 10.1 8.4 16.5 9.8 3 .7 5.9-.8 8.7-1.3 6.8-.1 11.3 10 15.6 14.2h25.2" class="b"/><path d="M8.8 169.7c4.7 2.9 6.4 9 11.3 11.7 3.3 1.3 4.9-2.8 7-4.6 6.7-6.2 11 8 14.7 11.8h54.6q1.4 0 2.6-.3 3.9-5.3 7-11.2c2.5-4.1 6-12.6 12.1-11 6.2 1.8 9.4 8.6 15.6 10 3 .7 5.9-.9 8.7-1.3 4.8.1 7.8 5 10.4 8.5l2.6 3.6c.3.5 1.2 1.5 1.8 1.7h26" class="b"/><path d="M8.8 169.6c4.3 2.6 6.2 8 10.4 10.9 3.3 2 5.2-1.3 7-3.5s4.4-3.5 6.9-1.3c3.4 3.2 5.3 7.9 7.8 11.7 2.5.4 5.2.1 7.8.2H99c1.1-.7 2-2.3 2.6-3.3q1.9-2.9 3.5-6c2.6-4.2 6.2-13.8 12.2-13.2 6.7 1.3 9.9 9 16.4 10.6 2.7.6 5.3-.4 7.8-1.1 6-1 10.7 8.6 14 12.6 1 .6 2.3.3 3.4.4h24.3" class="b"/><path d="M8.8 169.3c4.6 2.7 6.4 8.8 11.3 11 3.4 1.2 4.9-3 7-4.8 6.5-6 10.3 7.8 13.8 11.1h59q4-5.6 7-11.7c2.5-4.3 5.8-12.5 12-10 5.9 2.2 8.9 8.8 14.8 10.7 2.7.7 5.4-.2 7.9-1 5.6-.9 10 7.8 13 11.6 1.2.7 3 .3 4.3.4h24.3" class="b"/><path d="M8.8 169.2c4.3 2.4 6.2 7.7 10.4 10.4 5.3 3 6.4-6.2 11.3-5.8 4.5 1 7.2 8 9.5 11.5 1 .5 2.4.3 3.5.3h56.3c5.7-4.3 10.2-25 19.2-21.2 6.2 2.3 9 9.7 15.6 11.3 2.3.6 4.7-.2 7-.9 4.2-.7 7.1 3.6 9.5 6.5 1 1.3 2 3.3 3.4 4.3h28.7" class="b"/><path d="M8.8 169.3c4.3 2.3 6.3 7.5 10.4 10 5.2 3 6.4-5.8 11.3-5.5 4.5.8 7.1 7.3 9.5 10.8H100c1.2-.4 1.9-2 2.6-3 3.7-5.3 6.4-14.1 12.2-17.4 5.8-2.2 10.8 5.2 14.7 8.5 2.1 2 4.9 3.6 7.8 3.3 2 0 4-1.3 6-1 5 1 7.6 6 10.5 9.6h29.5" class="b"/><path d="M8.8 169.7c4.3 2 6.4 7 10.4 9.5 4.9 2.9 6.2-4.3 10.4-5.1 4.8-.8 8 6.2 10.4 9.4 2.6.3 5.3 0 7.8.1h52c1.6-.9 2.5-3 3.6-4.3 2-3.3 3.8-7 6-10 2-3.2 5.5-6.8 9.6-5q3.5 1.3 6 4c3.3 3.2 6.5 7.5 11.3 7.9 2 .2 4.1-.7 6-1 3.3-.3 5.9 2.3 7.9 4.5 1.1 1.2 2.1 3 3.5 4h29.5" class="b"/><path d="M8.8 170.2c4.3 1.7 6.5 6.5 10.4 8.9 3.1 1.9 5-.2 7-2.4 2.1-2.3 5-3.4 7.8-1.3 1.6 1.2 3 3 4.3 4.5.7.9 1.5 2.3 2.6 2.7h59c3.8-4 6.2-9.3 9.5-13.7 3.5-4.6 7-6.3 12.2-3.2 4 2.3 6.5 6.6 10.4 9 6.5 4.2 8.8-1 13.9 1.2q3 1.6 5.2 4.2c1 1 1.8 2.8 3.5 2.5h28.6" class="b"/><path d="M8.8 170.9c4.4 1.1 6.7 5.7 10.4 8 5.7 3.6 6.8-5.2 13-4.3 3.7.9 6 4.3 8.7 6.8 1.4.4 3 .1 4.3.2h50.3c1.5 0 3 .2 4.4-.2 3.4-4 6.2-8.7 9.5-12.8 4.4-5.1 8.5-5.1 14-1.5 3.2 2.6 5.8 6.2 9.5 8.3 6 3.4 8.6-1.6 13.8.7 2.4 1.1 4.4 3.2 6.1 5.1 1.3.7 3 .3 4.3.4h26" class="b"/><path d="M8.8 171.5c4.3.7 6.9 5 10.4 7.2 2.9 1.8 4.7 1 7-1.2 2-1.8 5-3.4 7.8-2.5 3.3 1 5.7 4 8.6 5.6H99c4.7-4.4 7.7-10.6 13-14.2 3.3-2.2 7.2-1.2 10.5.5 3.5 2.2 6 5.8 9.5 8a9 9 0 0 0 7.8 1.6q2.1-.8 4.3-1c2.3-.2 4.4.9 6.1 2.2 1.2.8 2.2 2.3 3.5 2.9h29.5" class="b"/><path d="M8.8 172.1c6-.4 10.9 10.8 16.5 6.4 3.2-2.5 7.2-4.9 11.3-3.2 2.3.8 4.5 2.4 7 3.2l5.1 1.1h49.5c1.4-.6 2.4-2.3 3.5-3.3 3.2-3.4 6.1-7.4 10.4-9.6 3.6-1.8 7.9-.6 11.2 1.2 2.5 1.7 4.7 4 7 5.9 2.4 2 5.4 3.7 8.7 3.1 1.4-.2 2.9-.9 4.3-1.3 4-1.2 7.7 1.2 10.4 4h29.5" class="b"/><path d="M8.8 172.7c3.4-.6 6.2 2 8.7 3.8 1.3 1 2.6 2.3 4.3 2.1h2.6q1 0 1.8-.5c5-3.3 8.7-5 14.7-2.9q3 1 6 1.3a54 54 0 0 1 7 2q5.7.1 11.3.1H86c4-.1 8.2.2 12.2-.1q3.2-3.6 7-6.9c3.2-3 7.4-5.7 12-5 6 .8 7.9 3 12.2 6.6 2.8 2.5 6.5 4.8 10.4 3.7 5.2-1.8 8.1-3.6 13 .5.7.6 1.7 1.4 2.6 1.2h27.8" class="b"/><path d="M8.8 173.2c3.2-1 6.2 1 8.7 2.7q1.1 1 2.6 1.7H27q1.8-.8 3.5-1.9c5.5-3.4 9.5-3 15.6-2.1q4 .7 7.8 2.2c1.7.6 3.4 2 5.2 1.8h38.2c5.6-5.5 12.3-11.7 20.8-10 6 .7 7.7 3 12.2 6.5 2.6 2 6 3.9 9.5 3 5.5-1.9 8.3-5 14-.6.3.4 1.1 1 1.6 1.1h27.8" class="b"/><path d="M8.8 173.6c3.7-2 7.5.6 10.4 2.8 1.4.4 3 .1 4.4.2h5.2c2.4-1 4.5-3 6.9-4.1 4.2-2.5 9.3-2.2 13.9-1q4.1 1.2 7.8 3.3c1.3.6 2.7 2 4.3 1.8h34.7c2-1.1 3.4-3 5.2-4.3 3.7-2.8 8.4-4.3 13-4.1 9.6.5 9.3 1.3 16.6 6.6 1 .7 2.2 1.6 3.4 1.8h6c1.3 0 2.5-1 3.6-1.5 3-2 6.4-2.7 9.5-.3.8.6 1.7 1.5 2.6 1.8h26.9" class="b"/><path d="M8.8 173.9c2.8-2 6-1.5 8.7.4l1.7 1.1c.4.2 1.3.2 1.8.2h9.5c3.8-2.8 7.3-6.7 12.1-7.5 4.5-.3 9.2.6 13 3q3.6 2.1 7 4.4 2.6.1 5.2.1H93c2.8 0 3 .3 5.2-1.8 5.6-5.3 11-5.3 18.2-4.7 8.5.4 8 1 14.7 5.7 1.2 1 3 .7 4.4.8h6c1.8.3 3-1.2 4.4-2 4.8-3.2 7.3-1 11.3 2h22.5q1.7-1 3.5-1" class="b"/><path d="M8.8 174c2.2-1.7 5.2-2.6 7.8-1.2 1.2.4 2.2 1.6 3.5 1.8h11.3c4-3.2 8-9.6 13.8-9.1q5.1-.2 9.6 2.2c2.4 1.3 4.7 3.2 7 4.8 1 .7 2.2 1.7 3.4 2.1h30.4c5-4.2 7.9-6.3 14.7-5.2q3.9.5 7.8.6c1.7.1 3.6-.1 5.2.3 2.6.8 4.8 2.5 7 4q1.2.4 2.6.3h3.4q4 .1 7.8-.1c5.7-5.3 8.3-5 14 .1h19q1.6.1 2.6-1 1.6-1.2 3.5-1.4" class="b"/><path d="M8.8 173.6c1-.1 1.8-1 2.6-1.4q2-1.2 4.3-.8c1.6.4 3 1.5 4.4 2.2h10.4q1.6.1 2.6-1.2l2.6-3c2.4-2.5 4.9-6 8.7-6.3q3-.2 6 .2c6.3 1.2 10.6 6.5 15.7 10q1.2.4 2.6.3h26c1.8-.8 3.4-2.4 5.2-3.3q3.2-1.9 7-1.2c2.5.5 5.1 1.3 7.7 1.5 2.6.3 5.3 0 7.9-.1 2.5.2 4.7 1.9 6.9 3.1h12.2c4 .2 3.1-.4 6-2.8 4.6-3.8 7.9-.5 11.3 2.8h12.2q3.4.2 6.9-.1 2-2.6 5.2-3.6" class="b"/><path d="M8.8 172.6q1 0 1.7-.2c.5-.3 1.3-1 1.8-1.2 2.2-1.4 5-.8 7 .7q1 .9 2.5.7h10.4c3.4-3.1 7.6-11.3 12.2-11.7 2.8-.2 5.9-.6 8.7.4 3 1 5.5 3.1 7.8 5.2l6 5.2c1 1 2.3 1 3.5.9H94c1.2 0 2.3-1.3 3.4-1.8 2-1.2 4.5-2.4 7-2.1 2.3.3 4.6 1.3 6.9 2 3.7 1.2 7.5.4 11.3 0q1.8.1 3.4 1c.8.3 1.8 1 2.6 1H145c6.2-7.3 8.4-6.3 14.8 0H177c1-.7 1.8-2 2.6-2.8q1.6-1.3 3.5-2.1" class="b"/><path d="M8.8 171.6h1.7q1-.3 1.8-1a5 5 0 0 1 5.2-1c1.5.4 2.7 2.2 4.3 2h10.4c2.5-2.1 4.1-5.2 6.1-7.7 1.4-1.8 3-4 5.2-4.7 2.9-.4 5.8-1.2 8.7-.7 3.4.5 6.2 2.9 8.7 5.2l7 6.4c.7.5 1.6 1.4 2.5 1.5H93q1 .1 1.7-.4l2.6-1.4c2.1-1 4.6-1.8 7-1.3 2.6.7 5 2.3 7.8 3 1.3.3 3 0 4.3.1q2.6 0 5.2-.7h2.6q1.3.6 2.6.7H145c2.8-2.3 5.3-7.1 9.6-5 2.4 1.1 3.9 3.7 6 5h16.5c1.6-2.3 3.5-4.7 6.1-5.8" class="b"/><path d="M8.8 170.6h2.6c2.4-2.2 4.9-3.4 7.8-1.4.5.2 1.3.9 1.8 1.2l1.7.2h9.5c1.9-1.2 3-3.6 4.4-5.3 2-2.7 3.8-6.2 7-7.7 4.4-.8 8.6-2.7 13-.1 5.8 3.4 9.4 10 15.5 13q3.5.2 7 .1H93c3.3-1.2 6.7-3 10.4-2.3 1.8.4 3.5 1.5 5.2 2.3q14.2 0 28.6 0h5.2c1.1 0 2.5.3 3.5-.5 6-8.2 8.6-6.2 14.7.4 2.9.3 5.9 0 8.7.1h4.4c1 0 2.4.2 3.4-.2 1.5-2.5 3.5-5 6.1-6.5" class="b"/><path d="M8.8 169.6c1.5 0 3.3.3 4.3-1 3.3-2.9 5.8-1.1 8.7 1h7c1.4-.1 3 .4 4.3-.4q3.2-4.2 6-8.6c1.3-1.5 2.6-3.3 4.4-4.2 2.7-.5 5.2-1.8 7.8-2.2 4.1-.8 7.7 2 10.4 4.6 4.5 4.3 8.6 11 15.7 10.3q2.6-.1 5.2.5h8.6c1.2.1 2.4-.5 3.5-.8q2.2-.6 4.4-.8a11 11 0 0 1 6.9 1.4c2 .4 4 .1 6 .2h29.6c1.4-.1 3 .3 4.3-.3 3.6-5.2 7-8.6 12.2-2.8 1.2 1 2.3 3.3 4.3 3.1h13q1 0 1.7-.5a20 20 0 0 1 6.1-7" class="b"/><path d="M8.8 168.6h3.5c2.5-2.2 4.6-3.6 7.8-1.5l1.7 1.4 1.8.1h6c1.1 0 2.5.2 3.5-.3q3.2-4 6-8.4c1.3-1.5 2.6-3.4 4.4-4.2 2.4-.6 4.7-2 7-2.9 8.5-3.5 13.4 6.8 19 11.2 4 3.3 6.8 2.5 11.3 2.8 1.2.2 2.4 1 3.5 1.4q1.7.5 3.5.4c3.4 0 6.9-1.2 10.4-1q3 0 6 1h36.5c1.7 0 3.5.2 5.2-.2 2.9-4.3 6.4-8.9 11.3-3.9l2.6 2.8c.6.7 1.6 1.5 2.6 1.3h13.9c1.1-.7 1.8-2.5 2.5-3.5a21 21 0 0 1 4.4-4.7" class="b"/><path d="M8.8 167.6h4.3c1.9-2.1 4.5-3.1 7-1.5 1 .6 2.1 1.7 3.5 1.5H33q3.2-4 6-8c1.3-1.5 2.6-3.3 4.4-4.2 4.3-1.1 7.5-5.3 12.2-5.1 7.2 1 10.2 9.8 16.4 12.8 3 1.7 6.5.6 9.6 1.4q1.7.8 3.4 1.6c3.1.8 6.4.4 9.6.6 2 .1 4 .7 6 1h8.7q18.3-.1 36.5-.2c5.8-8.7 8.4-7.2 14.7 0 2 .3 4.1 0 6 .1h9.6c1.1-.8 1.9-2.7 2.6-3.8q1.9-2.7 4.4-4.9" class="b"/><path d="M8.8 166.6q2.6.1 5.2-.1c1.6-1.6 4-2.4 6-1.2.9.4 1.8 1.2 2.7 1.3H33c3.7-3 5.7-7.8 9.5-10.7 1-.7 2.5-1 3.5-1.7 3.3-2 6.2-5.7 10.4-5.8 8.7.9 10.6 14 21.7 13.3q1.8-.1 3.5.4c1.6.7 3.3 1.7 5.2 2 2.2.6 4.7.8 7 1.4 2 .4 4 1.3 6 1 15.3 0 30.7.3 46 0 2.5-3.6 6-8 10.4-4 1.5 1.2 2.7 3 4.3 4h15.6c1-.9 1.9-2.7 2.6-4q1.9-2.8 4.4-5" class="b"/><path d="M8.8 165.6h6c1.1-.5 2.3-1.2 3.5-1.1 1.5 0 2.9 1.3 4.4 1.1H34c2.7-2.8 5-6.2 7.8-8.9q1.6-1.2 3.4-2c1.2-.6 2.5-1.8 3.5-2.7 4.1-4 8.6-8.3 13.9-3.3 3.4 3.2 6 7.5 10.4 9.7 2.7 1.3 5.9.8 8.7 1.6 1.1.4 2.3 1.2 3.5 1.6q3 1 6 1.7l4.4 1.5q1.2.6 2.6.8h43.4c1.3 0 3 .3 4.3-.3 5.6-7.6 8.2-5.8 13.9.3h16.4c1-1.1 1.9-3 2.7-4.2a34 34 0 0 1 4.3-5.3" class="b"/><path d="M8.8 164.6h22.5q1.8.1 3.5-.2c2.4-2.5 4.4-5.3 7-7.6q1.6-1.2 3.4-2 1.5-.9 2.6-2.2c4.8-5 9.9-13 16.5-5.1 3.3 3.6 6.4 8.2 11.3 9.6q2.6.4 5.2.9 1.8.5 3.5 1.4c1.3.6 3 1 4.3 1.4q4.6 1.2 8.7 3.5c1.6.6 3.5.2 5.2.3h42.6c1.2-.8 2.2-2.5 3.4-3.4 4.1-3.7 7.6.2 10.4 3.3q8.7.2 17.4 0l2.6-4.3q2-3 4.3-5.4" class="b"/><path d="M8.8 163.6h23.4c1.8 0 3.2.4 4.4-1.3 1.9-2 3.7-4.4 6-6l2.6-1.4q1.6-1 2.6-2.4c3.2-3.4 6.4-9.9 11.3-10.7 3.6 0 5.7 3.6 7.8 5.9 2.3 2.7 4.7 5.5 7.8 7 2.2 1.1 4.7 1.3 7 2q2.5 1.2 5.2 2 4 .8 7.8 2.7c1.4.6 2.8 1.8 4.3 2.2h46c5-6 8-6 13-.2 2.2.4 4.7 0 7 .2h11.2q2.8-5.5 7-10" class="b"/><path d="M8.8 162.6H33c2 0 3.2.3 4.4-1.4q2.4-2.7 5.2-5l2.6-1.2q1.6-1.2 2.6-2.6c3.3-3.7 7-12.2 12.2-12.8 3.7.1 6.3 5.2 8.7 7.7 2.9 3.7 6.5 6.8 11.3 7.6q2.2.6 4.3 1.5l6 1.5q3.8 1 7 3.2c.8.5 1.7 1.3 2.6 1.5h44.3c2.6-1.8 4.9-5.3 8.6-3.8 1.7.7 3.1 2.1 4.4 3.4q1.2.6 2.6.4h13.9q1.3.1 2.6-.4c1.7-3.6 4.3-6.8 6.9-9.8" class="b"/><path d="M8.8 161.6h27.8c1.8-1.4 3.3-3.5 5.2-4.8q1.7-1.1 3.4-1.9c1-.6 2-1.8 2.6-2.7 3.4-3.7 9.5-19 15.7-13.4 4.6 4.6 7.6 11.3 13.8 14 2 .8 4.2 1.1 6.1 2q3 .8 6 1.1c4.4.6 8 3.3 11.4 5.7h39.9c1.4 0 3.3.3 4.3-1 2.4-2.3 5.6-4 8.7-1.8 1.2.7 2.3 2 3.5 2.8h18.2c1.5-1.3 2.3-3.6 3.4-5.1l4.4-5.3" class="b"/><path d="M8.8 160.6h28.6c1.6-1.6 3.3-3.5 5.2-4.7 1.1-.5 2.6-.9 3.5-1.9 4.8-4.6 8-15.5 13.9-18 3.7-1.2 7.4 6 9.5 8.4 2.7 3.5 6 7 10.4 8.2 1.7.4 3.5 1.2 5.2 1.4 3 .2 6 0 8.7 1.1q2.9 1.3 5.2 3.2c2.8 2.2 2.4 2.4 6.1 2.3h38.2c5.1-4.3 8-5 13 0h19l3.6-5.5q2.2-2.5 4.3-5.2" class="b"/><path d="M8.8 159.6h27.8c1.9.3 3-2 4.3-2.9l2.6-1.6q1.5-.3 2.6-1.3c3-3 4.8-7.2 7-10.8 2-3.1 5.8-11.2 10.4-7.7 5.2 4.9 7.9 12.6 14.7 15.6q3 1.2 6 1.7 2.7 0 5.3-.3c5.7-.5 9.8 4 13.9 7.3h39c3.7-2.4 7.1-4.9 11.3-1.7 1 .8 2 2 3.5 1.7h17.3c1.5-1 2.3-3.3 3.5-4.7 1.5-2.2 3.7-4 5.2-6.2" class="b"/><path d="M8.8 158.6h29.5c1.3-1.3 2.7-2.8 4.3-3.6 1.1-.5 2.6-.8 3.5-1.7 3-3 4.8-7 7-10.7 1.9-3 5.8-11.7 10.4-8.4 5.3 4.8 7.9 12.7 14.7 15.8q3 1 6 1.4c4-.3 7.5-2.2 11.4-.2 2.2 1 4.2 3 6 4.7 1.3 1 2.5 3 4.4 2.7h32.9c1.5 0 3.1.1 4.4-.8 5-3 7.4-2.7 12.1.8H172q1.4 0 2.6-.2c1.4-2 2.8-4.4 4.4-6.2q2.4-2.2 4.3-4.8" class="b"/><path d="M8.8 157.6h29.5c1.8-1.5 3.6-3.6 6-3.9 4.5-1.5 8.4-11.7 11.4-15.7 2.5-3.8 5.6-7.8 9.5-2.8 3 3.5 5.4 7.7 8.7 10.9a13 13 0 0 0 7 3.7c1.3.2 2.9.6 4.2.2 2.4-.6 4.6-1.8 7-2 6.2-.1 9.5 6.2 13.9 9.6h35.5c2.3-1 4.5-2.3 7-2.5q2.3 0 4.3 1.2c.8.4 1.7 1.3 2.6 1.3h18.3q2.3-3.8 5.2-7c1.5-1.3 3.2-2.9 4.3-4.6" class="b"/><path d="M8.8 156.6h29.5c1.4-1 2.7-2.6 4.3-3.3 1.1-.4 2.6-.4 3.5-1.2 5-3.4 10.5-21 16.5-19.3 2.2 1 3.7 3.4 5.2 5.3 3.2 4.2 6.5 9.5 12.2 10.5 4.4 1 5.7-.2 9.5-2 3.4-1.8 6.8-.9 9.5 1.7 2.8 2.5 5.2 5.5 7.8 8.2 2.9.3 5.9 0 8.7 0h26.1c2.2-.6 4.5-1.8 6.9-1.9q2.3.1 4.3 1.1 1.3.9 2.6.9h11.3c2 0 4.1.2 6-.2 1.8-2.1 3.5-4.6 5.3-6.6l2.6-2.2q1.5-1.4 2.6-3" class="b"/><path d="M8.8 155.6h29.5c1.1-.9 2.2-2.2 3.5-2.9q1.2-.6 2.6-.8c1.3-.2 2.5-1.3 3.4-2.2 2.4-2.7 4.2-6 6.1-9 2-2.8 5.4-9.7 9.5-7.2 3.5 2.7 5.7 6.7 8.7 9.8q5 5.5 12.2 4.2c2.1-.8 4-2.5 6-3.5 5.1-2.8 9.2 1.7 12.2 5.3l5.2 5.9c1 .6 2.4.3 3.5.4h31.2c1.4-.1 3-.9 4.3-1.1q2.2-.5 4.4 0c1.1.3 2.3 1.1 3.5 1h11.2c7 0 5 .8 9.6-4.7q1.6-2 3.4-3.6 2.7-1.6 4.4-4.1" class="b"/><path d="M8.8 154.6h29.5c1.4-1.5 3-3.3 5.2-3.7q1.4 0 2.6-.6c5.2-2.5 11.4-19.9 17.4-16.2 5.6 4.2 9 13.2 17.3 12.5 4.3 0 6.2-2.7 9.6-4.8 4.6-3 8.3.4 11.2 4 2.6 2.9 4.8 6.4 7.8 8.8H145c1.4-.1 3-.6 4.3-.6 1.8 0 3.5.7 5.3.6h15.6c2.4-2.5 4.5-5.4 7-7.8q1.5-1.5 3.4-2.4c1-.7 2-2 2.6-2.9" class="b"/><path d="M8.8 153.6H34c1.4 0 3 .2 4.3-.3 1.3-1.6 3-3.4 5.2-3.7q1.9.3 3.5-.8c3.2-2.3 5.3-5.8 7.8-8.9 2.2-2.7 6-7.5 9.5-4.2 5.4 4.7 9.1 11.7 17.4 9.5 3.6-.3 5.9-3.7 8.7-5.6 5.1-4 9 .9 12.1 4.9 2.4 3 4.9 6.5 7.8 9.1h58.2c3.2-2.5 5.5-6.2 8.6-8.8q1.6-1.4 3.5-2c1-.7 2-2 2.6-2.9" class="b"/><path d="M8.8 152.6h28.6c2-1.4 3.4-4.2 6.1-4.3a6 6 0 0 0 3.5-.4c5-2.3 10.1-13.3 15.6-12 2.7 1.3 4.6 3.8 7 5.6 4.8 4.3 8 3.6 13.8 1.8 3.3-1.7 5.4-5.3 8.7-7 5-2.4 8.6 3.8 11.3 7.2 2.3 3.1 4.8 6.4 7.8 9h55.5c3.7-2.4 6.2-6.3 9.6-9.1q1.8-1.7 4.3-2.4c1-.6 2-1.8 2.6-2.7" class="b"/><path d="M8.8 151.6h28.6c6-8 6.2-2 12.2-6.1 4-2.5 9.6-11.3 14.7-7.1 2.8 2 5.3 4.6 8.7 5.5 2.7.8 5.4-.2 7.8-1.3q1.3-.7 2.6-1 1.5-.9 2.6-2c4.5-4.7 8.3-9.4 13.9-2.7 4 5 7.2 10.6 12.1 14.7h53c4.3-2.8 7.2-7.3 11.3-10.4q2-1.5 4.3-2 1.6-1 2.6-2.6" class="b"/><path d="M8.8 150.6H33c1.5-.1 3.1.3 4.4-.3 1.5-2 3.4-4.6 6.1-4.6q2.7.8 5.2-.3c4-1.6 7-5.3 11.3-6.5 1.9-.5 3.7.5 5.2 1.6 1.9 1.3 3.9 2.7 6 3.3 3.5 1 6.8-1 9.6-2.7 1-.7 2.5-1.1 3.5-1.9q2.8-2.5 5.2-5.2c5.1-5.1 8.8-1.3 12.1 3.4q4 5.9 8.7 11c2.5 2.8 2.6 2.2 6 2.2h44.3q1.4 0 2.6-.2 1.9-1 3.5-2.3 3.5-3.4 7-6.9c1.2-1.1 2.7-2.4 4.3-3q1.2-.6 2.6-.8a9 9 0 0 0 2.6-2.5" class="b"/><path d="M8.8 149.6h27.8c2-1.8 3.6-5.4 6.9-5.1q2.6.8 5.2.3c3-.7 5.8-2.6 8.7-3.8 3-1.2 5.2-.8 7.8 1 5.5 3.6 9 2.5 13.9-1.3q2.5-1.9 5.2-3.4 1.8-1.6 3.5-3.5c5.1-5.9 8.6-5 13 1.1 2.9 4.2 5.8 8.5 9.5 12.1 1 .8 2 2.4 3.5 2.6h42.5q1.6-.6 3.5-.7c2.6.4 5-1.4 6.9-3q3.5-3.4 7-6.9 1.9-1.7 4.3-2.8 1.2-.4 2.6-.6c1-.5 2-1.6 2.6-2.4" class="b"/><path d="M8.8 148.6h27.8c7.4-10.1 6.2-1.4 17.3-5.5 3-1 6.6-2.4 9.6-.7q2.3 1.7 5.2 2.3c4.7.7 8-3.4 11.2-6.2q2.1-1.8 4.4-3.1c4.9-4.5 8.7-11.1 14.7-3.6 4.5 5.9 8.4 12.7 14.8 16.8h39.8q1.5 0 2.7-.2c.4-.3 1.3-.7 1.7-.8 1.4-.6 3-.3 4.4-.7 4.5-2.1 7.4-6.7 11.2-9.8a13 13 0 0 1 5.2-3l1.8-.2q1.6-1 2.6-2.3" class="b"/><path d="M8.8 147.6H27c3.2-.1 6.4.2 9.6-.1 6-8.7 6.9-2.7 14.7-3.7 2.6-.2 5.2-1 7.8-1.1 5.2-.3 7.3 4.9 13 1.6 3.5-2.1 5.8-5.7 8.7-8.4 1.6-1.5 3.8-2.5 5.2-4.1 4-4.2 7.6-7 12.2-1.5 2.5 3 4.4 6.5 7 9.5a37 37 0 0 0 8.6 7.8h41.6c1.2-.4 2.3-1.4 3.5-1.7q1.2-.3 2.6-.4 1.4-.4 2.6-1.3c4.1-2.9 7.1-7.3 11.3-10.1a10 10 0 0 1 4.3-1.7c1.5-.1 2.6-1.4 3.5-2.5" class="b"/><path d="M8.8 146.6H33q1.9.1 3.6-.2c6-7.7 7.3-2.3 14.7-2.4 3.2 0 6.4-.6 9.6 0 3 .6 5.2 3.1 8.6 1.7 4.7-2.1 7.2-7.1 10.4-10.8q1.9-2.2 4.4-3.7c1.7-1.4 3.3-3.1 5.2-4.2 5-3.2 8.8 2.8 11.3 6.4 2.6 4 5.6 8 9.5 10.8 1.4.8 2.8 2 4.4 2.4h40.8c.9 0 1.7-1.1 2.5-1.6 1.3-.8 3-.7 4.4-1.2 4.5-2.3 7.4-6.8 11.2-10q2-1.7 4.4-2.7 1.2-.4 2.6-.5 1.6-1 2.6-2.3" class="b"/><path d="M8.8 145.6c9.2-.1 18.5.2 27.8-.1 5.4-6 6.7-2.6 13-1.4 3 .6 6.4.4 9.5.7 1.4.1 3 .9 4.3.8q3.5.1 7-.1c3.2-2.7 5.4-6.7 7.8-10.1 1.4-2 3-4.5 5.2-5.7 3.2-2.3 7.1-6.8 11.3-3.8 3.3 2.4 5.4 6.3 7.8 9.6q3.5 5 8.7 8.3 1.6 1 3.5 1.8h41.6q1.5-1.7 3.5-2.4a9 9 0 0 0 3.4-1c2.7-1.7 4.8-4.1 7-6.3 2-2.1 4.3-4.5 7-5.9q1.6-.7 3.4-1c1-.4 2-1.4 2.6-2.2" class="b"/><path d="M8.8 144.6h27.8c6.2-5.1 7.5-1 13.8 0h20.9c2.7-3.3 4.7-7.2 6.9-10.8 1.6-2.6 3.4-5.3 6-6.8 3.2-2.4 6.8-4.9 10.5-1.9 2.8 2.3 4.8 5.7 7 8.6a31 31 0 0 0 13 10.9h41.6c1.1-.7 2.2-2 3.5-2.3q1.8-.3 3.4-1.2c3-1.8 5.4-4.7 7.8-7.2 1.9-1.9 3.8-4 6.1-5.2q1.6-.9 3.5-1.2a9 9 0 0 0 2.6-2.1" class="b"/><path d="M8.8 143.6h28.7a8 8 0 0 1 4.3-1.4c1.8-.1 3.4 1.4 5.2 1.4h22.5c.9 0 2 .1 2.6-.5 3.4-5.1 5.6-11.2 9.6-16 2-1.7 4.4-3.4 7-4.3 6.4-1.6 10.2 7.3 13.8 11.3q3.6 4.6 8.7 7.5c1.3.7 2.8 1.9 4.3 2h39.1q1.2 0 2.6-.3l.8-.8c1.2-1.2 3-1.2 4.4-1.8 4.6-2.4 7.6-7 11.3-10.4a19 19 0 0 1 4.3-3.4q1.2-.6 2.6-.8 1.6-.9 2.6-2.1" class="b"/><path d="M8.8 142.6h63.3c2.3-3.7 4-7.9 6.1-11.7 1.5-2.7 3.2-5.8 6-7.3 3.7-2.4 7.2-2.7 10.5.4 2.6 2.4 4.7 5.5 7 8.2a40 40 0 0 0 8.6 7.8l4.4 2.4c2 .4 4 .1 6 .2h36.5q1.1-1.2 2.6-2l2.6-.7c2.3-1 4.3-3 6-4.8 2.9-3 5.4-6.4 8.7-8.8q1.6-1 3.5-1.6 1.4-.8 2.6-2" class="b"/><path d="M8.8 141.6h63.3c.6-.5 1.5-2 1.8-2.8l3.4-7.2c1.8-3.3 3.5-7.4 7-9.1 2.7-1.7 6-2.1 8.7-.2 3 2 5.3 5.3 7.8 8a54 54 0 0 0 13.9 11c1.9.5 4 .2 6 .3h36.5c.8-.4 1.7-1.3 2.6-1.7l2.6-.7c2.7-1.2 5-3.5 7-5.7 2.4-2.7 4.8-5.9 7.7-8.2q1.6-1.2 3.5-1.8 1.4-.8 2.6-2" class="b"/><path d="M8.8 140.6h61.6c.8 0 2 0 2.6-.5 2.8-5.5 4.8-11.6 8.7-16.5 2.6-2.7 7-4 10.4-2 3.4 1.9 6 5.2 8.7 8q5 4.6 10.4 8.5c1.4.8 2.8 2 4.3 2.5h41.7c1-.2 1.7-1.1 2.6-1.5q3.4-.6 6-2.8c4.3-3.4 7.2-8.3 11.3-12q1.6-1.2 3.5-2 1.5-.7 2.6-1.9" class="b"/><path d="M8.8 139.6H73c2.9-5.4 4.8-11.6 8.7-16.3 2.6-2.8 7-3.7 10.4-1.7 3.3 1.7 5.8 4.6 8.7 7 4.4 3.2 8.5 6.9 13 10 1 1 2.2 1 3.5 1h17.3c7.8-.1 15.7.2 23.4-.1 1.2-1.2 2.9-1.4 4.4-1.9q2.3-.8 4.3-2.6c4-3.4 6.7-8 10.4-11.5q1.6-1.4 3.5-2.2 1.4-.9 2.6-2" class="b"/><path d="M8.8 138.6H73c1.2-1 1.9-3.3 2.6-4.7q2.1-5 5.2-9.5c3.2-4.4 8.7-4.5 13-1.6 2.1 1.2 4.1 2.9 6 4.2 1.7 1.2 3.7 2 5.3 3.3 3.2 2.5 6.3 5.5 9.5 7.9q1.2.6 2.6.4H158c1.1-1.2 2.9-1.4 4.4-1.8q1.8-.6 3.4-1.7c5-3.5 7.8-9.1 12.2-13.1 1.6-1.3 3.7-2 5.2-3.5" class="b"/><path d="M8.8 137.6h10.4q1.4 0 2.6-.6 1.4-.2 2.6.2t2.6.4H74c4.5-8.8 7.6-20.4 20-14.5l6 3.1q2.2 1 4.3 2c3.8 2.5 7 6 10.5 8.9.9.8 2.3.4 3.4.5H152q3.1.2 6.1-.1c1.1-1.2 2.9-1.3 4.4-1.6q3.4-1 6-3.5c3.6-3.3 6.1-7.7 9.6-11.1 1.5-1.4 3.6-2.2 5.2-3.6" class="b"/><path d="M8.8 136.6h10.4c3.3-2.8 4.5-1.3 7.8 0H74c.7-.3 1.4-1.7 1.7-2.4l1.8-3.2c3.8-7 7.4-10 15.6-7.6 3.1.8 6.3 2 9.5 2.5 2.4.7 4.3 2.5 6 4.1 2.4 2.2 4.5 4.7 7 6.6h41.7q1.2-.6 2.6-1.4c2-.3 4.2-.5 6-1.6 5.3-3 8-8.8 12.2-13 1.5-1.4 3.6-2.3 5.2-3.6" class="b"/><path d="M8.8 135.6h9.5c3.5-3.1 5.2-2.8 8.7 0h47.7c1.8-1.7 2.8-4.4 4.4-6.3 4.4-6.4 9.6-5.4 16.5-5 2.5.3 5.2 0 7.8.5 2 .6 3.7 2.2 5.2 3.7q3.4 3.7 7 7 20.7.1 41.6 0c2-2.1 4.3-1.6 7-2.2 6.4-1.8 9.4-8.7 13.8-13.2 1.5-1.5 3.5-2.4 5.2-3.7" class="b"/><path d="M8.8 134.6h6c1.2 0 2.5.2 3.5-.3 3-3.6 5.6-2.6 8.7.2 10.1.3 20.3 0 30.4 0h16.5c.8 0 1.9.2 2.6-.3 3.5-5.1 6.5-8.3 13-8.6q5.7-.6 11.3-2c3.2-1.1 5.7 1.1 7.8 3.3 2.3 2.4 4.5 5.2 7 7.5 1.6.4 3.4.1 5.1.2h35.6c2.2-2.3 4-2.3 7-2.4 7-.5 10.3-8 14.7-12.6 1.4-1.5 3.5-2.5 5.2-3.7" class="b"/><path d="M8.8 133.6h8.7c4.1-4 5.3-3.8 9.5 0h48.6q1.4 0 2.6-.2c5.4-6 9-4.8 15.6-7.4 3-1.2 5.7-3.1 8.7-4 2-.4 3.8 1.1 5.2 2.4 2.8 2.7 5 6 7.8 8.7.4.3 1.3.6 1.8.5h26c4-.1 8.1.2 12.1-.2 3-3.1 4.8-2.8 8.7-2.7 6.7-.3 9.8-7.3 14-11.6 1.3-1.5 3.4-2.5 5.1-3.6" class="b"/><path d="M8.8 132.6h8.7c1.8-2.3 4.2-4.1 7-2 .7.5 1.7 1.5 2.5 2h54.7c2.6-1.8 5.8-2.4 8.7-3.7 3.8-1.7 6.9-4.9 10.4-7.2 3.4-2.6 6.4.5 8.7 3 2.2 2.6 4.4 5.6 6.9 7.9h37.3c1.5-1 2.7-2.7 4.3-3.4 5.3-1.9 7.7 2.6 14-3.5 2.4-2.4 4.3-5.5 6.9-7.8q2-1.6 4.3-2.7" class="b"/><path d="M8.8 131.6H14c1.1 0 2.5.2 3.5-.3 1.8-2.4 4.3-3.7 7-1.6.7.6 1.5 1.7 2.5 1.9h61.7c2.6-1.2 4.8-3.4 6.9-5.4 2.2-2.2 4.2-5 6.9-6.4 1.9-.9 3.9.4 5.2 1.7 2.2 2 4.1 4.6 6 6.9 1 1 2.2 2.5 3.5 3.2h32.1c1.1 0 2.5.2 3.5-.3 9.1-11.5 11.8 3.6 22.6-10.1q1.6-2 3.4-3.8 2.1-1.5 4.4-2.5" class="b"/><path d="M8.8 130.6h7.8c3.9-4 5.6-4.1 9.5-.1q7 .1 14 0c3.1-2 3.7-1.5 6.9 0H92c4-3.3 6.1-8.6 10.4-11.6 3.2-1.6 5.9 2 7.8 4 2.5 2.6 4.6 6 7.8 7.7h28.7q2.2.1 4.3-.2c10.3-14.4 13.3 2.1 23.4-9q2-2.3 4.4-4.4c1.2-1 2.9-1.7 4.3-2.4" class="b"/><path d="M8.8 129.6h7c1-.2 1.7-1.5 2.5-2.1 3-2.5 5.6-.1 7.9 2h10.4c.4.1 1.3 0 1.7-.1l1.7-1.6c3.7-3.4 5.8-1 8.7 1.8h45.1c3.1-3.6 5-8.4 8.7-11.4 3-1.8 5.9 1.4 7.8 3.3 3 3 5.9 7.5 10.4 7.9 1.7-.2 3.5-.8 5.3-.4q1.6.6 3.4.6h20c11.6-17.2 14-1 23.4-7.6 2.2-1.6 4-3.8 6-5.4q2.2-1.3 4.4-2.1" class="b"/><path d="M8.8 128.6c2.3-.1 4.7.2 7-.2 3.6-4.9 6.5-4 10.4 0 3 .3 6.3.1 9.5.2.6-.1 1.4-.8 1.7-1.2q1.6-1.8 3.5-3.5c2.7-2.4 5-.3 7 1.9.7.8 1.5 2.2 2.5 2.8h44.3c1-.9 1.9-2.7 2.6-3.8 1-1.7 2.2-3.7 3.5-5.2 2.7-3.7 5.6-2.8 8.6 0 3.3 2.6 6 6.6 10.4 7.4 1.2.1 2.4-.4 3.5-.6 1.7-.3 3.7 0 5.2.7 1.1.5 2.2 1.7 3.5 1.5h15.6c2.4-3.1 4.5-6.8 7.8-9 6.6-4.3 10.2 4.3 16.5 1.5 2.6-1.2 4.6-3.4 7-5q2-1.2 4.3-1.8" class="b"/><path d="M8.8 127.6h3.5q1.4.1 2.6-.4c2.1-3.1 5.2-5.4 8.7-2.6 1 1 2.2 2.3 3.4 3h5.2q1.5.1 2.6-.5c2.5-2.2 4.3-5.3 7-7.2 4-2.5 7.4 5.2 9.5 7.6h44.3c2.2-2.8 3.5-6.6 6-9.4 3.4-3.8 7.6 0 10.4 2.4 2.3 1.8 4.8 4.1 7.8 4.3 1.5 0 3-.7 4.4-.9 3.3-.6 6.3 1.4 8.7 3.5 1.6.3 3.5 0 5.2.1h7.8c4.3-4.6 8.5-15.3 16.5-11.6 3 1.7 5.9 4.5 9.5 3.6 2.3-.5 4.2-2 6-3.2q2.6-1.4 5.3-2" class="b"/><path d="M8.8 126.6h4.3c2.6-3 5.2-7.3 9.6-4.3 1.8 1.2 3.2 3.1 5.2 4.1q1.7.3 3.5.2c1.3-.1 2.5-1.4 3.4-2.3 2.5-2.4 4.2-5.7 7-7.9 4.2-2.8 8.4 7.5 10.4 10.2h44.2c2-3.5 4.7-11.6 9.6-10.9 2.6.6 4.8 2.6 7 4.2 2 1.5 4.2 3.2 6.8 3.2 1.5 0 3-.7 4.4-1 4.4-1.2 8.1 1.9 11.3 4.5h8.6c4.7-4.9 9.9-18 18.3-13.8 2.8 1.7 5.2 4.5 8.6 5.2 2.5.4 4.9-.8 7-1.8q2.5-1 5.2-1.7" class="b"/><path d="M8.8 125.6c1.1 0 2.5.2 3.5-.3 2.2-3.7 5.9-8.7 10.4-5 1.7 1.2 3.2 3.2 5.2 4 2.7 1.3 5.3-.8 7-2.8 2.6-2.8 4.3-7 7.7-8.9 4.4-.8 8.1 10 10.5 13h43.3c4-5.3 5.3-15 14-8.8 2.8 2 5.7 5 9.4 5 2.4-.1 4.6-1.6 7-1.7 4.7-.4 8 3.6 12.1 5 4 1.1 6.6-4 8.7-6.5 2.3-3 4.6-6.4 7.8-8.6 8.2-5 10.7 6.4 18.3 7q2.6-.1 5.2-1l4.3-1" class="b"/><path d="M8.8 124.6h1.7c2.7-3.1 5.3-9.9 10.5-7.7 2.3 1.2 3.8 3.5 6 4.9 3.6 2 6.8-1.6 8.7-4.3q2-3 4.3-6c1.5-1.7 3.3-3.2 5.3-1.2 2.7 2.7 4.3 6.5 6 9.9.8 1.2 1.3 3.5 2.6 4.4h40.8q1.4.1 2.6-.4c3.1-6.7 5.6-14.3 13.9-7.7 2.6 1.8 5.3 4.3 8.6 4.4 3-.3 5.7-2.4 8.7-2.4 4.1-.4 7.4 2.8 11.3 3.2 5.6 0 10.6-13 17.4-15.5q4-1.6 6.9 1.5c2.3 2.2 4.4 5 7 6.9 3.4 2.9 8 2 12 .8" class="b"/><path d="m8.8 123.6.9-.2c2.3-3.7 5.7-11.9 11.3-9 2.2 1.4 3.8 3.8 6 5 3.7 2 6.8-2 8.7-4.7 1.9-2.3 4.6-8.4 7.8-8.3 4.6 1.9 8 12.7 10.4 17.2h43.4c3.2-6.7 5.4-14.8 13.9-8 2.6 1.8 5.3 4.4 8.7 4.6 2.8-.2 5.1-2.2 7.8-3q3-.8 6-.2c2 .4 4 1.2 6.1 1.2 6.4-.7 11.3-13.6 19.1-15.4 4-1.2 6.4 3.4 8.7 6 4.3 5.5 8 9.8 15.6 7.1" class="b"/><path d="M8.8 122c2.5-3.9 6.2-13.8 12.2-10 2.2 1.4 3.7 3.9 6 5.1 3.8 1.8 6.8-2.5 8.7-5.1 1.8-2.1 5.4-10 8.7-7.9 3.4 3 5 7.6 7 11.6l1.7 4c.2.7 1 2.5 1.7 2.9h42.5c3.4-5.4 4.8-14.3 13-8.4 3 2 5.8 5.2 9.6 5.5 2.5 0 4.7-2 6.9-3 5.1-2.9 7.8-1.7 13-1.9 6.9-1.1 12-13 20-14.9 3.9-1.2 7.4 6.3 9.5 8.9 3.4 4.8 7.3 10.3 13.9 7.6" class="b"/><path d="M8.8 119.3c2.5-4 6.1-14 12.2-9.8 2.1 1.5 3.7 4 6 5.3 3.9 1.7 6.7-2.7 8.7-5.4 1.8-2.2 4.6-8.3 7.8-8 5.1 2.7 8.3 15.1 11.3 20.2h42.5c.9-.4 1.4-2 1.7-2.8 1.4-3 3.1-7.4 7-7.2 5 .9 8 6.4 13 7.6 2.6.5 4.9-1.3 7-2.7s4.4-3 6.9-3.7c2.2-.7 4.6-.7 7-1 7.5-1.5 14-14 21.6-14.6 4 1.3 7.7 10 10.4 13.6 2.7 4 5.9 8.4 11.3 6" class="b"/><path d="M8.8 116.8c2.4-4 6.1-14.5 12.2-9.8 2 1.6 3.6 4.2 6 5.4 3.9 1.6 6.7-2.7 8.7-5.3 1.8-2.1 5.4-9.7 8.7-7.2 2.4 2.2 3.8 5.4 5.2 8.2q2.7 6.2 5.2 12.5h43.4c2.3-5.8 5.1-13 12.1-7.5 2.6 1.8 4.9 4.3 7.8 5.5 3.3 1.4 6.3-1.3 8.7-3.2 2.2-1.7 4.4-3.5 7-4.6 3.6-1.6 8-1.7 11.2-4.2 4-2.6 7.5-6.2 11.3-9.2 4.6-3.4 6.1-3.9 9.6 1.2 2.8 4.4 5 9.3 7.8 13.7 2.4 3.5 4.8 6.8 9.5 4.6" class="b"/><path d="M8.8 114.5c2.1-3.7 5.6-14 11.3-10.5 2.6 1.7 4.2 4.7 7 6.1 3.7 1.7 6.6-2.5 8.6-5 1.8-2.2 5.4-9.3 8.7-6.7 2.3 2.2 3.8 5.5 5.2 8.3 1.8 4 3.5 8.5 5.2 12.6q1.2.5 2.6.3h40.8c1.3-1.9 2-4.5 3.4-6.3 2.8-3.9 6.5-2.5 9.6.1 2.7 2 5.2 4.9 8.7 5.4 3.6 0 6-3.3 8.6-5.5q3.1-3 7-5c4-2 8.5-2.7 12.1-5.3 3.4-2.3 6.4-5.2 9.6-7.8 4.1-3.5 5.5-3.6 8.7 1 2.9 4.8 5 10.1 7.8 15 2.2 3.6 4.5 8.2 9.5 5.7" class="b"/><path d="M8.8 112.5c2-3.7 5.6-14.6 11.3-10.8 2.5 1.8 4.1 4.9 7 6.3 4.1 1.8 7.2-3 9.5-5.9 2.8-3.4 5.8-8.7 9.5-2.8 3.7 5.7 6 12.5 8.7 18.8 1 .7 2.3.4 3.5.5h38.1c.8 0 2 0 2.6-.4 2.3-5.5 5.3-10.1 11.3-5.7 2.6 1.8 4.9 4.3 7.8 5.6 2.5 1.2 5-.2 7-2q3-2.8 6-6a25 25 0 0 1 7.8-5.2q4-1.3 7.8-2.9c5.1-2.4 8.8-6.8 13-10.3 3.7-3.2 6.4 3 7.9 5.5q2.7 5.4 5.2 11c1.6 3.1 3 6.9 6 9 1.4.7 3 .2 4.4-.4" class="b"/><path d="M8.8 110.8c2-3.7 5.6-15.2 11.3-11.2 2.5 1.8 4.1 5 7 6.4 5.2 2.2 8.9-5.3 12-8.3 4.3-4.7 6.6 0 8.8 3.7 2.6 5 4.7 10.6 6.9 15.8q1.2.6 2.6.4H99c1-1.2 1.8-3 2.6-4.2 2.8-3.7 6.3-2.8 9.6-.4q3 2.4 6 4.4c1.1.3 2.4.1 3.5.2h1.7c1.8-.6 3.1-2.2 4.4-3.5q3.3-3.7 7-7.2 3-2.8 6.9-4.3c2-.7 4-1 6-1.8 5.8-2 9.4-7.3 14-11.2 4.8-3.6 10.3 14 12 17.2 1.5 3 3 6.6 5.3 9.1 1.3 1.6 3.5 1.3 5.2.5" class="b"/><path d="M8.8 109.4c1.9-3.7 5.5-16 11.3-11.7 2.5 1.9 4.1 5 7 6.5 5.2 2.3 8.7-4.5 12-7.4 4.4-4.2 6.6.6 8.8 4.1q3.8 7.7 6.9 15.6 22.5.1 45.1 0c5.2-9.6 9.9-4.1 16.5 0h5.2c1.4.1 2.5.1 3.5-1 6-5.8 10.8-14.5 20-15 6-.7 10-5.9 13.8-10.2 2.7-3.3 4.4-3.4 7 .2 3.3 5.2 5.3 11.3 7.8 16.8 1.3 3 2.7 6.5 5.2 8.6 1.3.9 3 .4 4.3-.2" class="b"/><path d="M8.8 108.2c1.8-3.7 5.5-16.5 11.3-12.2 2.5 2 4.1 5 7 6.6 5 2.4 8.6-3.6 12-6.3C43 93 45 96 47 99.3c3.1 5 5.1 11 7.8 16.2h46c2.3-3.6 5.5-5 9.5-2.9 1.8.8 3.4 2.3 5.2 3h8.7c1.3-.7 2.4-2.2 3.5-3.3l4.3-5c3.9-4.3 7.8-7.7 13.9-7.6 7-.4 10.5-7.5 14.7-12.1 5.3-5.5 11.2 15 13 18.3 1.4 3 2.7 6.7 5.3 9 1.2 1 3 .5 4.3 0" class="b"/><path d="M8.8 107.3c1.8-3.7 5.4-17.1 11.3-12.7 2.5 2 4.1 5 7 6.6 4.7 2.6 8.6-2.7 12-5.2 3.8-2.9 6 .3 7.9 3.4q2.9 5 5.2 10.3c.7 1.4 1.4 3.7 2.6 4.9h46.8q1-.3 1.8-1 1.1-.8 2.6-1.2c2.7-.6 5.4 1 7.8 2.1q5.6.1 11.3 0c5.4-4.7 10.4-14.2 18.2-15 2 0 4.2.2 6-.5 4.4-1.7 7-6.2 9.6-9.7 2.8-4.2 4.8-5 7.8-.4 2.9 4.8 4.8 10.3 7 15.4 1.4 3.2 2.7 7 5.2 9.4 1.2 1 3 .5 4.3 0" class="b"/><path d="M8.8 106.6c1.6-3.5 5-16.3 10.4-13.7 2.8 1.7 4.4 4.9 7 6.7 2.7 2.2 6 1.5 8.6-.5 2.6-1.5 5.4-5.3 8.7-3.6 4.8 4.3 7.6 12.2 10.4 18q2.2.1 4.4 0h45.9c.9.2 1.9-.4 2.6-.5 1.8-.3 3.6.3 5.3.6h13c4.1-3.2 7-7.9 11.2-11 3.2-2.6 5.5-3.6 9.6-3 7.6.7 10.7-8 14.7-13 5.5-7.1 11.2 12.6 13 16.1 1.5 3.2 2.7 7 5.2 9.5 1.2 1 3 .6 4.4.2" class="b"/><path d="M8.8 106.1c1.6-3.5 5-16.6 10.4-14 2.8 1.7 4.4 4.9 7 6.8 2.7 2.1 5.9 1.8 8.6 0 2.4-1.4 4.9-4 7.8-3.4 2.4 1 3.9 3.8 5.2 5.9q1.9 3.2 3.5 6.5c.8 1.4 1.5 3.5 2.6 4.7h69.4q1.5.1 2.6-.5 2.3-1.9 4.4-4.1c3.3-3.3 6.7-6.9 11.2-8.3 4-.5 6.7 1.7 10.5-1.4 2.9-2.6 4.8-6.2 6.9-9.4 2.7-4.7 5.1-6.7 8.7-1 2.8 4.6 4.7 10.1 7 15.1 1 2.5 2.3 5.5 4.3 7.4 1.1 1 3 .7 4.3.4" class="b"/><path d="M8.8 105.8c1.6-3.6 4.6-15.3 9.5-14.5 3 1.1 4.6 4.5 7 6.5 2.4 2.3 5.6 3 8.7 1.5 2.8-1.2 5.4-4.2 8.6-3.4 4.4 2.3 8 11.3 10.5 15.7h72c1.9-1 3.5-2.8 5.2-4.1 3.1-2.8 6.4-5.7 10.4-7.2 3.5-1.4 6.7 1.6 10.4-1 3.5-2.5 5.6-6.7 7.8-10.4 1.8-3.1 4.3-7.5 7.8-3.3 4 5.2 5.8 11.7 8.7 17.5 1 2 2.2 4.8 4.3 6q1.8.3 3.5 0" class="b"/><path d="M8.8 105.5c1.6-3.5 4.7-15.3 9.5-14.3 3 1.2 4.6 4.5 7 6.6 2.4 2.2 5.6 3 8.7 1.5 2.8-1 5.4-4 8.6-3.1 3.3 1.8 5 5.7 7 8.8l1.7 3.2c.3.6 1 2 1.8 2.3h68.5q1.7.2 3.5-.2 2.6-1.7 5.2-3.6a40 40 0 0 1 11.3-6.3c4-.5 6.5 2 10.4-1.3 3-2.8 4.9-6.8 7-10.2 2.6-5.2 5.4-8.3 9.4-2 2.8 4.5 4.7 9.6 7 14.3 1 2 2.2 4.7 4.3 5.8q1.7.3 3.5.1" class="b"/><path d="M8.8 105.3c1.5-3.4 4.7-15.1 9.5-13.9 3 1.3 4.6 4.7 7 6.8 2 2 5 3 7.8 1.8 3-1 5.4-3.8 8.7-3.8 4.3.7 8 10 10.4 13.4h70.3c.4 0 1.3-.2 1.7-.4 3.5-1.8 6.9-4 10.4-5.6 2.5-1.1 5.1-2.5 7.8-3 4.6.5 6.8 1.8 10.4-2.2 2.5-2.8 4.3-6.4 6.1-9.7 1.9-3.5 4.7-8.6 8.7-4 3.4 4.3 5.3 9.7 7.8 14.5 1 2 2.2 4.6 4.3 5.7q1.7.3 3.5.2" class="b"/><path d="M8.8 105.1c1.6-3.3 4.7-14.7 9.5-13.2 2.7 1.2 4.2 4 6.1 6.1 2.2 2.4 5.5 3.9 8.7 2.3 3-1.2 5.4-4 8.7-4.2 3.8.4 7.7 8.9 9.5 12 1 .7 2.4.4 3.5.5H119c2.4.2 4.7-1.1 7-2q4.6-2 9.5-3.6l4.3-1.3a8 8 0 0 1 3.5-.7c5.8 1.1 8-.3 11.3-5l5.2-9.2c2.2-4 5-6.5 8.6-1.9 3.2 4.3 5.2 9.5 7.9 14 2 3.4 2.8 4.2 6.9 4.3" class="b"/><path d="M8.8 105c1.6-3.2 4.7-14.3 9.5-12.7 2.6 1.3 4.2 4.2 6.1 6.2 2.3 2.5 5.5 3.6 8.7 1.9 2.7-1.4 4.9-3.9 7.8-4.7 4.4-1 8.3 8.8 10.4 11.9H119c.8 0 1.8-.6 2.6-.9l5.2-1.7c4.8-1.5 10-2 14.7-3.7 2.3-.5 4.7.4 7-.4 6.8-2.7 9-13.1 13.9-18 5.3-4.4 10 8.2 12.1 11.6 1.4 2.3 2.7 5.4 5.2 6.6q1.7.4 3.5.6" class="b"/><path d="M8.8 105.1c1.7-3.4 5-15.4 10.4-12 2.4 1.7 3.9 4.5 6 6.4 2.3 2 5.3 2.3 7.9.7s4.8-4.3 7.8-5.2c3.4-.8 5.3 3.7 7 6 1.1 1.6 1.9 4.2 3.4 5.6h66.8c1.2.1 2.4-.9 3.5-1.3l4.3-1.2c5.2-1 10.7-.7 15.6-2.7 2.3-.6 4.8 0 7-1 3.1-1.5 5.1-4.6 7-7.4 2.2-3.5 3.8-7.8 6.9-10.7 5.4-4.2 10.5 9.4 13 12.8 1 1.7 2.3 4 4.3 4.8l3.5.7" class="b"/><path d="M8.8 105.2c1.7-3.4 5.1-15 10.4-11.9 2.4 1.6 4 4.4 6 6.2 2.4 2.1 5.4 2 7.9.2 2.7-1.7 4.8-4.6 7.8-5.6 4-1.3 8 8 9.5 11 1 .7 2.4.4 3.5.5h64.2c1 .1 1.9-.6 2.6-1q2.1-.9 4.4-1.2c5.1-.7 10.6.3 15.6-1.7 2.5-1 5.4-.9 7.8-2.3 4.4-2.7 6.9-7.7 9.5-12 1.3-1.8 2.5-4.2 4.4-5.6 5.3-3.5 10.4 9.4 13 12.8 1 1.6 2.4 3.7 4.3 4.5l3.5.7" class="b"/><path d="M8.8 104.6c2.4-3.1 4.5-12.5 9.5-11.6 3 1.2 4.6 4.3 7 6.3 2.4 2.1 5.4 1.6 7.8-.3 2.6-1.9 4.7-4.8 7.8-6 4-1.4 8 8.4 9.5 11.3 1.1.4 2.4.2 3.5.3H119c.9-.2 1.8-1 2.6-1.3q1.6-.6 3.5-.7c4.9-.2 10 1.2 14.7-.7 2.5-1.1 5.4-1.7 7.8-3 6.4-4 8.9-11.8 13.9-17 6-5 12 11.3 15.6 14.7q1 1.4 2.6 2 1.8.3 3.5.8" class="b"/><path d="m8.8 103.6.9-.2c1.8-3.5 5-13.2 10.4-9.6 2.2 1.5 3.8 4 6 5.6 2.3 1.4 5.1.3 7-1.3 2.6-2 4.7-5 7.8-6.2 4-1.4 8 8.7 9.5 11.6h69.4c5.8-4 12.8 1.9 20.9-2.3 3-1.4 6.2-2.7 8.6-5.1 4.5-4.1 7.3-9.7 11.3-14.1 5-4.8 9.7 5.2 12.2 8.6 1.7 2.6 3.4 5.6 6 7.4 1.4.6 3 .6 4.4 1.2" class="b"/><path d="M8.8 102.6h.9c1.1-1 1.8-3.1 2.6-4.4 1.4-2.5 3.5-6.3 7-5.3 2.7 1.1 4.4 4 6.9 5.6 2.3 1.5 5 .2 6.9-1.5 2.6-2 4.6-5.1 7.8-6.4 4.2-1.2 7.9 9 9.5 12H120c.4 0 1.3-.3 1.7-.6q1.7-.6 3.5-.4c4.2.5 8.8 1.8 13 .2 11-4.2 14.4-12 21.7-19.9 4-4.5 8.2 2 10.4 5.2s4.1 6.8 7 9.6q1 1 2.5 1.5 1.8.3 3.5 1" class="b"/><path d="M8.8 101.6h1.7c1.9-3.4 4.7-10.9 9.6-9 2.3 1.2 3.9 3.6 6 5C29 99 32 97 34 95c2.4-2 4.4-5.4 7.8-5.7 3.9.4 6.8 9 8.7 12.2h71.1q1.2-.4 2.6-.4c4.3.6 8.7.3 13 .4 10-3.6 14.8-14 22.6-20.5 4.3-3.7 8.1 3.8 10.4 6.8 2 3 4 6.6 7 9.1 1.5 1.6 4 1.3 6 2.2" class="b"/><path d="M8.8 100.6h1.7c1.1-1 1.9-2.9 2.6-4.1 1.4-2.1 3.3-5 6.1-4.8 2.9.3 4.6 3.1 7 4.6 2.8 1.5 5.7-.6 7.8-2.5 2.3-2 4.5-5.3 7.8-5.5 4 .6 6.7 9 8.7 12.3h86.7c8-2 14.3-15.4 21.7-19.8 1-.6 2.3-1.3 3.5-1 2.7 1.2 4.4 4 6 6.4 2.5 3.5 4.7 7.5 7.8 10.5q1.2 1 2.7 1.7 2.2.3 4.3 1" class="b"/><path d="M8.8 99.6q1.4 0 2.6-.2c2-3.7 5.2-10.9 10.4-8 1.8 1 3.2 3 5.2 3.7 3 1 5.7-1.6 7.8-3.5 2.2-1.8 4.7-5.1 7.8-4 4 2.6 5.5 8 7.9 12H138q2.2-1.5 4.3-3.2c3-2.8 5.3-6.3 7.8-9.4 2.4-3 9.1-10 13-6.7 5.7 5 8 14.3 14.8 18 1.6.7 3.6.5 5.2 1.3" class="b"/><path d="M8.8 98.6h2.6c2.4-3.5 5-10.8 10.4-8.6 1.9.9 3.3 2.8 5.2 3.5 3 .9 5.7-1.4 7.8-3.2 2.2-1.7 4.8-4.8 7.8-3.6 4 2.7 5.3 8 7.9 11.8h76.4q5.5.2 11.2 0c1.7-1.5 3.8-2.8 5.2-4.6 4-4.6 6.8-10.6 12.2-13.8q2.4-1.2 5.2-1.2c1.4.2 2.6 1.5 3.4 2.6 2.9 3.7 5 8.1 7.8 12a16 16 0 0 0 5.3 4.9c1.9.4 4 0 6 .1" class="b"/><path d="M8.8 97.6h2.6c1-1 1.8-2.8 2.6-4 1.7-2.6 4.2-6.4 7.8-5.2 2 .7 3.3 2.6 5.2 3.3 3 1 5.6-1 7.8-2.7 2.2-1.6 5-4.3 7.8-3 3.9 2.7 5.2 7.9 7.8 11.6h86.8c1-.4 1.9-1.4 2.6-2 6.7-4.5 9.7-18.5 19.1-17.3 3.5.2 5.3 3.8 7 6.4 2.3 4 4.5 8.4 7.8 11.8 1 1.4 2.8 1 4.3 1h5.2" class="b"/><path d="M8.8 96.6h2.6c1.2-.8 1.8-2.7 2.6-3.9 1.6-2.5 3.6-6 7-6.1 2.4 0 3.9 2.5 6 3.3 2.4 1 5-.3 7-1.6 2.5-1.5 5.5-4.4 8.6-2.8 2.4 1.7 3.8 4.5 5.2 6.9.8 1.2 1.5 3.2 2.6 4.2h86.8c2.3-2.5 5.2-4.6 7-7.5 2.8-4 5-9.2 9.5-11.6 1.6-.7 3.6-.4 5.2.3a8 8 0 0 1 4.3 3.4c3.4 5 5.5 10.8 9.6 15.3q5.2.1 10.4 0" class="b"/><path d="M8.8 95.6h2.6c1.3-.7 1.8-2.7 2.6-3.9 1.7-2.6 3.6-6.2 7-6.8 2.4-.2 4 2.2 6 3.1 2.3 1 4.9.1 7-1 4.5-2.5 7.8-4.3 11.2 1 1.2 1.6 2.5 3.7 3.5 5.4.3.6 1 2 1.7 2.1h86c1.3-.7 2.3-2.3 3.4-3.3q2-1.7 3.5-3.8c2.5-3.7 4.5-8 7.8-11.1 2.5-2.3 5.3-1.6 7.8.1 3 1.5 4.6 4.6 6 7.4 2 3.5 3.8 7.3 6.1 10.5 1.4.4 3 .2 4.4.2h7.8" class="b"/><path d="M8.8 94.6h2.6c.7-.4 1.5-1.7 1.7-2.4l1.8-3c1.8-2.9 4.8-7.7 8.7-5.5 2.8 2.3 4.8 3.8 8.6 2.8 2.6-.7 5.1-2.3 7.8-2.3 2.3 0 4 2 5.3 3.7q2.3 3.2 4.3 6.5c5.5.3 11 0 16.5.1h55.6c4.8 0 9.8.3 14.7-.1l3.4-4.1q2.7-2.3 4.4-5.2c2.4-3.6 4.4-9 8.7-10.5 2.3-.5 4.4 1.2 6 2.7 4 2.8 5.6 7.7 7.8 11.8 1 1.7 2 4.2 3.5 5.4h13" class="b"/><path d="M8.8 93.6h2.6c1.6-1.4 2.3-4 3.5-5.7 1.8-2.8 4.6-8 8.7-6 2.8 2.2 4.7 4 8.6 3.3 2.3-.2 4.6-1.2 7-1.2 5.3.2 7 6.5 10.4 9.5h85.9c1.6-1.4 2.9-3.5 4.3-5q2-2 3.5-4c2.4-3.6 4.2-8.1 7.8-10.7 3.6-2 6.5 2.2 8.7 4.5 4 4 5.6 10 8.7 14.9 1.5.7 3.5.2 5.2.3h9.5" class="b"/><path d="M8.8 92.6h2.6c2.8-3.3 5.9-13.5 11.3-12.7 1.3.3 2.4 1.5 3.5 2.3q2.7 2 6 2c2 0 4.1-.4 6-.3 5.1 0 7.5 5.3 10.5 8.6h85.9c1.6-.5 2.4-2.6 3.5-3.8 1.1-1.7 3-3.3 4.3-4.9 1.9-2.5 3.4-5.5 5.2-8 3.8-5.4 6.9-4 10.4.7 1 1.4 2.5 2.9 3.5 4.3 2.3 3.7 4 8 6 11.7q8 .1 15.7 0" class="b"/><path d="M8.8 91.6h2.6c2.7-3.6 6-13.8 11.3-13.2 1.3.3 2.4 1.6 3.5 2.4q2.6 2.1 6 2.6c10 .8 9 .7 15.6 8.2l86.8-.1c1.8-2.1 3.4-4.7 5.2-6.8.7-.8 2-1.8 2.6-2.6 2.4-3.1 4-7 7-9.6 3.5-3.1 6.7 1.5 8.6 4.3 1 1.5 2.5 3.2 3.5 4.8 1.9 3 3.5 6.7 5.2 10h16.5" class="b"/><path d="M8.8 90.6h2.6c2.3-3.6 6.2-14.1 11.3-13.4 1.3.3 2.4 1.6 3.5 2.5a17 17 0 0 0 5.2 3c7.5 2.1 9.2.7 14.7 7.4 1 .7 2.4.4 3.5.4h84.1c2.3-2.1 4-5.1 6.1-7.5 2.9-2.3 4.8-5.7 7-8.7 4.7-6.6 8-2 11.2 3l3.5 5q2.3 4 4.3 8.3h17.4" class="b"/><path d="m8.8 89.6 2.6-.1c2.2-3.6 6.3-14.1 11.3-13.2q1.6.6 2.6 1.8 1.6 1.5 3.5 2.8c6.6 4.3 10.4 2.2 16.4 8.6q43.8.1 87.7 0c2.3-2 4.1-4.7 6-7 1.3-1.6 3.2-2.8 4.4-4.5 4.2-5.8 7.5-11.3 13-2.7 2.9 4.6 6.2 9.2 8.7 14.2h18.2" class="b"/><path d="M8.8 88.6q1.4.1 2.6-.4c2.2-3.5 6.3-13.7 11.3-12.6a7 7 0 0 1 2.6 1.9q1.6 1.6 3.5 3C32 83 36.3 84 40 85.9q1.9 1 3.5 2.4c2.2.5 4.7.1 7 .3H118c1.1-.1 2.5.2 3.5-.5 1.7-.6 3.5 0 5.2.4h3.5c3.4-1 5.6-4.2 7.8-6.7 1.1-1.6 2.9-2.8 4.3-4 4.3-4.8 7.6-11.5 13-3.3l4.4 7q2.4 3.2 4.3 7 9.6.2 19.1 0" class="b"/><path d="M8.8 87.6h1.7c1.7-1.2 2.4-3.7 3.5-5.3 2-2.8 4.6-8.3 8.7-7.3 1.4.4 2.5 1.8 3.5 2.8q1.6 1.5 3.4 2.9c4 3 9 4 13 6.8h67.7c2.9 0 5.9.3 8.7-.1 1.3-1 2.8-2 4.3-2 4.2.2 6.7 1.8 10.5-1.3 2.1-1.7 4-4.1 6-6q2.4-1.5 4.4-3.7c5.3-6.6 8.2-4.8 12.1 1.7 2 3.9 4.7 7.5 7 11.2 2.2.5 4.6.1 6.9.2h13" class="b"/><path d="M8.8 86.6h1.7c3.2-4 4.9-9.6 9.6-12 3.4-1.4 5.5 2.5 7.8 4.3q3.8 3.4 8.7 5.4l3.4 1.5q1.3.9 2.6.7h74.6c2.5-1.4 4.7-4.3 7.9-3.6q2.5.5 5.2.2c4.4-.8 6.8-5.1 10.4-7.4 3-1.4 4.7-4.8 7.8-5.9 4.3-.9 6.8 5 8.7 8 1.4 3 3.4 5.7 5.2 8.3q.8.5 1.7.4h15.6c1.1-.6 2.4-.3 3.5 0" class="b"/><path d="M8.8 85.6h1.7c2.6-3.6 6.3-12 11.3-11.8 2.6.5 4.1 3.2 6 4.7q3.6 3.2 7.9 5.1 2.2.9 4.3 1.9h76.4c2.6-1.5 4.5-4.9 7.8-5.2 5.6.2 7.5.7 12.2-3.2q1.6-1.5 3.4-2.7l2.6-1.5c2-1.3 3.7-3.4 6-3.8 6.3-.5 9.4 13.1 14 16.5H177c2.7.2 2.9-2.5 6-.6" class="b"/><path d="M8.8 84.6q1 0 1.7-.3c2.6-3.5 6.9-12.5 12.2-10.5 2 1 3.5 3 5.2 4.5a27 27 0 0 0 11.3 6.3H53q1.3 0 2.6-.3l2.6-.9q2.4-.4 4.3 1 3 .2 6 .1h41.7q3 .2 6-.1 3-3.2 6.2-5.8c1.5-.9 3.4-.9 5.2-1q2.7.1 5.2-1c2.5-1 4.6-3 7-4.2.7-.4 1.8-.7 2.5-1.2 1.4-.8 2.8-2 4.4-2.6 6.7-2.8 10.6 12.1 14.7 16H178c1.5-1.6 3.2-2.7 5.2-1.2" class="b"/><path d="M8.8 83.6c1.8.3 2.6-1.9 3.5-3q1.6-2.3 3.4-4.4c6.7-7 9.3.5 14.8 4q3.5 2.5 7.8 3.3h11.3c1 0 2.4.2 3.5-.2 2.4-1.7 5.6-4 8.6-2.3 1.3.6 2.2 2.2 3.5 2.5h50.4c1-.4 1.8-1.7 2.5-2.4 2.2-2.4 4.4-5.4 7.8-5.9 3-.3 6-.6 8.7-2q2.6-1.5 5.2-2.7 1.8-.5 3.5-1.3c1.6-.9 3.3-2 5.2-1.8 4 .8 5.9 5.3 7.8 8.4l2.6 4.7c.7 1 1.4 2.7 2.6 3H172c2 0 4.2.3 6-.2 1.5-1.8 3.3-2.9 5.3-1.3" class="b"/><path d="M8.8 82.6h.9c1.4-.8 2.3-2.8 3.4-4 2.3-2.8 5.7-6.8 9.6-4.9 1.3.7 2.4 2 3.5 2.9q2.3 2.2 5.2 4 2.4 1.4 5.2 2h13c1.7.2 3-1.6 4.3-2.4 3-2.5 6.6-3.9 9.6-.6 1.1 1.1 2.6 3 4.3 3h47.7c3.7-3 5.6-8.3 10.4-9.7 2.9-.8 6-1.2 8.7-2.3l4.4-1.8c1-.4 2.4-.4 3.4-.8 2-.7 4-2 6-1.5 5.9 1.8 8.5 11.6 12.2 16h15.7c1 .3 2-.6 2.6-1.4 1.2-1.3 2.9-1.5 4.3-.3" class="b"/><path d="M8.8 81.5c1.7.4 2.5-1.6 3.5-2.6q1.9-2.4 4.3-4.3c3.8-2.7 6.7-.7 9.5 2.1q2.8 2.6 6.1 4.2 2.1.8 4.4.6H47c1.2 0 2.6.1 3.5-.9 3-2.5 6.9-7.2 11.2-4.8 1.6 1 2.9 2.8 4.4 3.9s3.3 2.1 5.2 1.9h7q18.5 0 37.2 0c3.7-3 5.4-8 9.6-10.5 3.7-2 8.1-2.4 12.1-3.8 2.3-.7 4.8-.5 7-1.3 8.7-3.5 11.8 10.7 16.5 15.5H177c2.3-1.3 3-4.1 6.1-1.9" class="b"/><path d="M8.8 80.5q1 .1 1.7-.2c3-3.4 7.2-8.7 12.2-6 1.9 1 3.4 2.9 5.2 4.1q1.6 1.2 3.5 2 1.2.2 2.6.1c4.6 0 9.3.3 13.9 0 2.7-2 4.9-4.8 7.8-6.6 5.8-3.6 7.8 2.5 12.1 5 2.3 1.6 5.2 2 7.8 1.4 2.3-.5 4.6-1.5 7-1.7q4-.3 7.8.8c1.4.3 2.9 1 4.3 1.2h19.1q1.4.1 2.6-.4c3.2-3.8 5.3-8.8 9.5-11.6q3.3-1.8 7-2.6 3.3-.9 7-1h2.5c1.4-.2 3-.7 4.4-.6 6.9.6 9.6 11.7 13.8 16.1h15.7c1 .3 2-.6 2.6-1.4q2-2.3 4.3-.4" class="b"/><path d="M8.8 79.5h1.7c3.2-3.1 7.4-7.5 12.2-4.7 2.1 1.3 3.9 3.3 6 4.5 1.1.4 2.4.2 3.5.2h5.2c2.9 0 5.9.3 8.7-.1 4.7-2.2 8-9.7 13.9-8.5 2.6.9 4.1 3.5 6 5.2 5.3 4.8 9.1 3.3 14.8.5 2.7-1.3 5.9-1.2 8.7-.4q3.6 1.3 7 3.3h19.9c2.8-3.4 4.8-7.8 7.8-11.1 4.7-5.2 11.7-5.7 18.2-4.8 2-.1 4.2-.6 6.1.2 6 3 8 10.8 12.2 15.7h11.2c2 0 4.3.3 6.1-.2 1.4-1.8 3.1-3.3 5.2-1.4" class="b"/><path d="M8.8 78.5c1.3 0 2.6.2 3.5-1 1.7-1.4 3.7-2.9 6-3.1 3.7-.4 5.9 2.5 8.7 4.1h9.6c2 0 4.1.3 6-.3q1.8-.1 3.5-.8c2.6-1.6 4.6-4.2 7-6.1 7.1-6.1 9.6.9 14.7 5 5.7 4.5 9.7 0 14.7-2.6 5.4-2.5 10.8 1.6 14.8 4.8h19c.7-.3 1.5-1.3 1.8-2q1.8-2.7 3.5-5.6c2.6-4.6 6.6-9.2 12.1-9.6q4-.3 7.8 1c2 .2 4.2-.3 6.1.3 5.2 1.8 7.6 7.6 10.4 12 3 4.7 2.4 4 7.8 4H178c1.4-1.8 3.1-3.4 5.2-1.4" class="b"/><path d="M8.8 77.5h3.5q.8-.7 1.7-1.2a8 8 0 0 1 9.6.5q1 1 2.5.7H40c1.2.2 2.4-.8 3.5-1 4.3-.6 6.9-5.7 10.4-7.9 7.8-5.3 10.9 7.2 17.4 8.8 5.3 1.1 8.4-5 13-6.5 5.6-1.8 9.8 3.7 13.9 6.6q9.5.2 19 0c6.1-9.1 9.5-22.7 23.5-16.8 2.1.9 4.7.3 7 1 6.8 2.6 8.7 11.2 13.8 15.9H178c2-1.3 2.8-3 5.2-1" class="b"/><path d="M8.8 76.5H14a8 8 0 0 1 5.2-.9c1.2.2 2.3 1 3.5 1h14.7c1.4-.1 3.2.3 4.4-.7s3-1.1 4.3-2c3.5-2.6 6-7.2 10.4-8 6-.1 8.4 7.7 13 10.3 1.3.6 3 .2 4.4.3 2.7.2 5.7-4.1 7.8-5.8 6.1-6 12.2 1.2 16.5 5.7 2.2.4 4.7 0 7 .1h12c1.2-.8 2-2.6 2.7-3.8l3.4-6.6c3.6-6.2 8-11.2 15.7-7.4q1.6.9 3.4 1.4 2.2.2 4.4.5c7 1.7 10 10.8 14.7 15.7q1.7.4 3.5.2h4.3q4.8.2 9.6 0 2-2.6 4.3-.5" class="b"/><path d="M8.8 75.5h32.1c1.8-1.6 4.4-2.3 6-4 2.7-2.5 5-6 8.8-6.7 5.8-.6 8.8 7.4 13 10.5q1.2.3 2.6.2h4.3c3.1-1.8 5-5.5 7.8-7.6C90 63.3 94.7 72 99 75.5h12.2q3.5.2 7-.1c3.8-6 6.6-17 13.8-19.5 2.8-.7 5.5.7 7.8 2 2 1.4 4.6 1.5 7 2 7.6 1.9 10 10.8 15.6 15.6h16.5c1.7-1 2.6-1.6 4.3 0" class="b"/><path d="M8.8 74.5h32.1l2.6-1.9c.8-.4 2-1.1 2.6-1.8 2-1.8 3.9-4.1 6-5.8 7-5 11.5 5.4 15.7 9.4 2.8.4 5.8 0 8.7.1 2.6-2.2 4.3-5.6 7-8 6.2-5.2 11.6 4 15.5 8q9.6.2 19.1 0c3.3-4.4 4.7-10.1 7.8-14.6 3.1-4.8 6.8-7.6 12.2-4 1.4.7 2.8 1.8 4.3 2.4q2.2.5 4.4.8c4.7.9 7.7 5 10.4 8.7 1.5 2.2 3.6 4.4 5.2 6.6 2 .3 4 0 6 .2h9.6c.8 0 2 0 2.6-.6.8-.3 1.8.2 2.6.6" class="b"/><path d="M8.8 73.5h28.6c1.4 0 3 .3 4.4-.2q1.6-1.6 3.4-2.7l2.6-2.6C57 57.2 60.6 65.8 67 73.4c1.7.4 3.5 0 5.2.1q2.7.1 5.2 0c3.4-3.9 6.7-12.4 13-9.2 4 2 6.2 6.5 9.6 9.2h18.2c.8-.2 1.4-1.5 1.8-2.2l2.6-5.7c2.1-4.4 4.1-9.8 8.6-12.3 4.4-1.8 7.7 2.7 11.3 4.2 2.3.7 4.8.6 7 1.7 4.5 2.1 7.2 6.8 10.4 10.5 1.2 1.1 2 3 3.4 3.8h16.5c.4-.2 1.3-.4 1.8-.4l1.7.4" class="b"/><path d="M8.8 72.5h33c3-1.8 5.4-4.7 7.8-7.2 7.4-8 12 1.4 16.5 7 1.3.5 3 .1 4.3.2h7c1-.5 1.8-2.2 2.5-3.1 2-2.9 4-6.7 7.9-7.1 3.7 0 6.3 3.4 8.6 6q1.4 1.3 2.6 3c.4.4 1.2 1.1 1.8 1.2H112c2.2 0 4.7.3 6.9-.2 3.4-5.7 6.4-18.2 13-20.4 4.6-.9 7.3 4.1 11.3 5.2 3 .6 6.2.8 8.7 2.8q3.4 2.8 6 6.4l5.2 6.2H178q1.8.1 3.5-.2.8.3 1.7.2" class="b"/><path d="M8.8 71.5h33.8c3.9-2 5.9-6.6 9.6-8.9 6.3-3.8 10 5.8 13.9 9h12.1c4.3-6.8 8.4-15.4 16.5-7l4.3 4.8c1 .9 2 2.4 3.5 2.1H119c3.3-5.6 6.5-18.5 13-20.6 4.3-.7 6.9 3.8 10.4 5.3 2.8 1 6 .7 8.7 2.3 2.8 1.7 4.9 4.3 7 6.7 1.7 2 3.7 4.1 5.1 6.3H178q1.8.2 3.5-.3.8.4 1.7.3" class="b"/><path d="M8.8 70.5h35.6c2.5-2.2 4.3-5.3 7-7.4 5.8-5.2 10.4 3.5 13.8 7.4h13c1.7-1.7 2.8-4.4 4.3-6.3 3.2-4.2 7-5.7 11.3-2 3.3 2.5 5.7 6.5 9.6 8.4h9.5q3 0 6-.2c3.4-5.5 6.5-18.5 13-20.4 4.7-.5 7.2 4.8 11.4 6 2.9.6 6.1.6 8.6 2.4 2.4 1.5 4.3 3.8 6.1 5.9 1.7 2 3.7 4 5.2 6.3H178c.8 0 2 0 2.6-.7q1.3-.1 2.6.7" class="b"/><path d="M8.8 69.5h36.4c.7 0 1.4-.9 1.8-1.4 1-1.3 2.3-2.9 3.5-4 4.3-4.6 7.8-2.6 11.2 1.7 1.1 1.1 2 3 3.5 3.7h13c1.2-.5 1.9-2.3 2.6-3.3q1.8-3.1 4.4-5.4c4.8-4.3 9.4 0 13 3.5 1.7 2 4 3.4 6 5 1.6.5 3.6.1 5.2.2h8.7c.8-.2 1.5-1.5 1.8-2.2l2.6-5.7c2-4.3 4-10.1 8.6-12.2 5.1-1.4 7.8 4.9 12.2 6 2.9.7 6.1.6 8.7 2.3 2.3 1.5 4.2 3.7 6 5.7q2.9 3 5.2 6.2H179c1.7-1.2 2.6-1.8 4.3-.2" class="b"/><path d="M8.8 68.5h33c1.7 0 3.5.3 5.2-.2 7-9.4 10.4-8.9 17.3.2q7.5.1 14.8 0c3.8-6.4 8.6-14.3 16.5-8 2.3 1.8 4.4 4 6.9 5.6 1.2.6 2.2 2 3.5 2.4H118c4-5.2 6.8-19.2 13.9-20.3 4.7 0 7 5.5 11.3 6.8 2.9.7 6 .5 8.7 2.1 2.3 1.3 4.2 3.3 6 5.2s3.8 3.8 5.2 5.9q1.3.4 2.6.3h3.5q4.8.2 9.6 0c1.4-1.6 2.7-2 4.3-.4" class="b"/><path d="M8.8 67.5q19.5.1 39 0c3.2-4 7.3-8.4 12.2-4.1 1.6 1.1 2.7 3 4.3 4.1h14.8c4.3-5.8 8.2-13.6 16.5-8 2.6 1.8 5 4 7.8 5.6 1.1.7 2.1 2 3.4 2.5h10.5c4.8-4.8 6.8-18.3 13.8-20.4 5.3-.5 7.6 5.9 12.2 7.3 2.8.9 6 .8 8.7 2.1q3.3 1.8 6 4.5 3.4 3 6.1 6.5h13c2.7.2 3-3.5 6-.7" class="b"/><path d="M8.8 66.5h40c5.3-6 9.2-6.3 14.7-.2 1.9.5 4 .1 6 .2h9.6c1.1-.5 1.8-2.1 2.6-3a24 24 0 0 1 3.4-4c4.4-4 8.8-2.1 13 1q3.1 2 6.1 3.8c1.1.7 2.1 2 3.5 2.2h8.7c5.4-4.2 7.8-20.5 15.6-20.6 5.1 1 7.2 7.2 12.1 8.5 2.9.7 6 .8 8.7 2.1 2.9 1.3 5.4 3.4 7.8 5.3q2.3 2.3 4.4 4.7h13c1.8-1.5 3.1-2.9 5.2-.8" class="b"/><path d="M8.8 65.5h40.8c1.4-.8 2.7-2.2 4.3-2.9 3.6-1.7 6.9.6 9.6 3 5.4-.2 11 .2 16.4-.2C85.7 57 89.8 54 99 60.3l4.4 2.3 3.4 2.3c1 .8 2.4.6 3.5.7l5.2-.1c6-4 9.3-23.1 17.4-20.5 3.6 1.5 5.6 5.3 8.6 7.6s7 2.1 10.5 3.2q5.1 1.6 9.5 5 1.8 1.7 3.5 3.5c.3.4 1.1 1.2 1.7 1.3h7c1.3-.1 3 .3 4.3-.4 1.8-1.5 3.2-2.6 5.2-.5" class="b"/><path d="M8.8 64.5h42.5c2.7-2 6.4-3.1 9.6-1.4 1 .6 2.1 1.6 3.4 1.4H80c5-6 8.3-10.6 16.5-6.3q3.8 2.1 7.8 3.9c1.7.8 3.4 2 5.3 2.4 1.6-.1 3.7.4 5.2-.6 5.3-3.7 7-10.6 10.4-15.7 3.2-5.2 6.7-6.7 11.2-1.8 2 2 3.8 4.5 6.1 6.1 4.1 2.8 9.4 2.3 13.9 4 2 .6 4.4 1.4 6 2.9 2.1 1.6 3.8 4 6.1 5.1h7c3.1.3 4.7-4.4 7.8-1" class="b"/><path d="M8.8 63.5h43.4c1.8.2 3.4-1 5.2-1.1q1.7-.2 3.5.3c.8.3 1.7 1 2.6.8h16.4c1.4-.7 2.4-2.5 3.5-3.6 1.6-1.7 3.7-3.2 6-3.5C93 56 96 57.8 99 59.2q2.5 1 5.2 2 2.6 1.2 5.2 1.8c9.2 1 12-12 16.5-17.7 2.9-3.8 6-4.5 9.6-1 2.3 2.4 4.2 5.5 6.9 7.5 4.4 3.6 10.3 3 15.6 3.8 4.7.4 7.5 4.7 11.3 6.9 3 1.9 6.7 1 9.5-.8q2.4-1.8 4.4.6" class="b"/><path d="M8.8 62.5h47.7c1.1 0 2.4-.4 3.5-.3q3 .5 6 .3h13q1.7.2 2.7-1.3c.7-.8 1.7-2 2.6-2.7 4.5-4.2 9.9-1.8 14.7.3q2.5 1 5.2 1.6 2.6.9 5.2 1c11.6.3 13.1-20.4 21.7-20.7 6.4 1.2 8.6 11.7 17.4 13.6 2.5.6 5.2.3 7.8 0 2.3-.2 5-.3 7 1 2.3 1.5 4.4 3.5 6.9 4.8 2.6 1.5 6 1.3 8.6 0l1.8-.6c1 0 2 .9 2.6 1.5" class="b"/><path d="M8.8 61.5h68.5q1.8.2 3.5-.2c5.3-6 8.2-6.6 15.6-3.7a31 31 0 0 0 14.8 2c8.7-2.7 10.4-13.2 16.5-18.9 3.6-3.2 7.2.3 9.5 3.3 3.6 4.4 7.6 10.4 13.9 10.4 2.7 0 5.2-1.1 7.8-1.8s5 .4 7 1.8c2.1 1.4 4.4 3.1 6.9 4q3 1 6 .1c1.9-.8 3-.3 4.4 1.2" class="b"/><path d="M8.8 60.5h63.3c2.9 0 5.9.3 8.7-.1 5-5.2 7-6 13.9-3.5 2.2.7 4.6 1.6 7 1.9 3.1.2 6.4.3 9.5-.8 4.6-1.8 7.9-6 10.4-10 2-3.3 3.8-7 7-9.2 3.9-2.4 7.3 2.2 9.5 5 3 4 6.7 9.7 12.1 10.4 2.8.2 5.4-1.4 7.8-2.6 4-2.4 7-.6 10.4 1.6 10.9 7.2 10.9.5 14.8 5" class="b"/><path d="M8.8 59.5h68.5c2.8 0 3.3.3 5.3-1.8a8 8 0 0 1 4.3-2.6c7-.5 10 4.9 20 2.7a21 21 0 0 0 12.1-7.5c3.4-3.6 7.2-14.4 13-13.2 6.5 2 11.8 18.4 20 16.7 3.9-.8 6.4-5 10.4-5.5 4.6-.1 8.1 3.6 12.1 5.4q2.1 1 4.4 1.1l1.7-.1c1 .2 2 1.2 2.6 2" class="b"/><path d="M8.8 58.5h71.1c2.8-1.4 4.4-4.5 7.9-4.1 2 0 4.1 1 6 1.7 4.5 2 8.4 2.2 13 .6 4.6-1.5 9-4.2 12.2-7.8 3.8-3.6 8.2-16.3 14.7-12.3 2.2 1.4 3.8 3.7 5.3 5.7l5.2 7c2.7 3.4 6.2 6.1 10.4 2.9 3-2.1 5.4-6.1 9.5-6.2 4.4.2 7.6 3.6 11.3 5.6q1.6.8 3.5 1.2h1.7c1 .3 2 1.4 2.6 2.2" class="b"/><path d="M8.8 57.5h67.7c1 0 2.4.2 3.4-.3 2.9-1.3 4.3-4.3 7.9-3.6 2 .3 4 1.4 6 2.2 5 2.4 9 1.7 13.9-.6a38 38 0 0 0 11.3-7.5c4.5-3.9 9.1-18 16.5-11 3.3 3.5 5.8 7.7 8.7 11.5 3 4.4 6.6 7.5 11.2 2.7 3-2.8 5.7-7.6 10.4-7.2 4.1.5 7 3.8 10.5 5.8a9 9 0 0 0 4.3 1.3c1 .4 2 1.5 2.6 2.3" class="b"/><path d="M8.8 56.5h54.7c2.2-.3 4.6-.8 7-.6 3.4 0 7 1 10.3-.5 1.2-.6 2.3-1.8 3.5-2.4 4.2-1.8 8.2 2.4 12.1 3.3 1.7.5 3.6.2 5.3.2 2.7-.7 5.3-2.2 7.8-3.5 3.6-2 7.4-4 10.4-7 6.3-7 10.2-19.7 19-6.4l4.4 6.3c2 2.8 4.5 7.8 8.7 7 6.2-2.5 8.4-13.7 16.5-11.3 3.3 1.2 5.7 4 8.7 5.9 2.9 1.6 3.6.1 6 3.7" class="b"/><path d="M8.8 55.5h54.7q2.4-1 5.2-1.3c2.8-.4 5.8.3 8.6.4a8 8 0 0 0 5.3-1.6 6 6 0 0 1 2.6-1.5c3.5-.4 6.4 2.4 9.5 3.6q1.2.6 2.6.4h4.3c1.9-.2 3.6-1.5 5.2-2.3q3-1.9 6.1-3.4c7-3.5 8.7-6.2 13-12.4 3.5-4.7 7-6.6 11.3-1.4 3.3 3.9 5.8 8.5 8.7 12.8 9.7 13.8 12.9-15 24.3-9.1 2.5 1.3 4.6 3.6 7 5.2 2.8 2 3.6.5 6 4.2" class="b"/><path d="M8.8 54.5h53.8c.9.2 1.8-.5 2.6-.8q1.6-.7 3.5-1c3.7-1 7.5.7 11.2.1 3.3-.6 4-3.6 7.8-2 2.7.9 5 3.2 7.9 3.7h6q1.5-.3 2.6-1.1 3-1.9 6.1-3.6 3.4-1.7 7-3.3 3.7-2.1 6-5.7c2.5-3.1 5.6-9.8 10.4-8.6 4 1.6 6.4 6.5 8.7 9.9 2 3 5 10.9 9.5 10 5.4-2.3 7.6-12.1 14-15 4.4-1.9 8 2.8 11.2 5.2 3 2.2 3.7.8 6 4.6" class="b"/><path d="M8.8 53.5h54.7C66 52 69 50.7 72 51c2 0 4.1.5 6.1.6 5 .5 5-4.3 10.4-1.4l4.4 2.6c.7.4 1.7 1 2.6.8h6l3.5-2q3-2 6-3.4 3.6-1.3 7-2.6c6.2-2.2 10.2-18 17.4-13.4 3.4 2.6 5.6 6.7 7.8 10.3 2 3.3 5.4 12.3 10.4 8.3 4.4-4.4 6.3-11 11.3-14.8 3.7-3.1 7.4-.4 10.4 2.3 1.2 1.2 2.7 2.5 4.3 3s2.6 2.2 3.5 3.5" class="b"/><path d="M8.8 52.5h54.7c1.4-.5 2.8-1.6 4.3-2.1q2.5-1 5.2-.8c2 0 4 .6 6 .7 4.5 0 4.5-4 9.6-1.2 2 1 4 2.5 6.1 3.3q1.7.2 3.5.1l2.6-.1q3-1.6 6-3.6a23 23 0 0 1 5.2-2.2c2-.6 4.2-.8 6.1-1.5 7.1-1.9 10.7-20.4 19.1-12.5 2.4 2.5 4.4 5.7 6 8.7 2.3 3.8 6.1 13.9 11.4 8 4.1-4.7 7.5-15 13.8-16.8 3.1-.5 5.7 2 7.8 4q2 1.6 4.4 2.6c1 .7 2 2.2 2.6 3.3" class="b"/><path d="M8.8 51.5h55.5c2.8-1.9 6.2-3.3 9.6-2.9 2 .2 4 .7 6 .6a7 7 0 0 0 3.5-1.6c2.7-1.5 5.5.6 7.8 1.9 9.6 6 12-3 20.8-4 3-.4 6.2 0 8.7-1.9 6.3-5.1 10.3-21.3 19.1-8.8 2.4 3.2 4.1 7 6 10.5 2.5 4.3 5.7 8 9.6 2.5 3.7-5 7.3-14.4 13-17 3.4-1 6.3 1.9 8.7 3.8q1.6 1.1 3.5 2c1 .8 2 2.3 2.6 3.4" class="b"/><path d="M8.8 50.5h56.4l1.7-1q4.2-2.2 8.7-1.4c2 .2 4.2.6 6-.2 1-.4 1.8-1.2 2.7-1.5 4.3-1 8.2 4.1 13 3.6 2.6-.2 4.8-2 7-3.3q3-2.1 6.9-2.3c2.6-.1 5.2.7 7.8.1 5.1-1.6 7.5-10.3 12.1-13.7 5-3.6 9 3.7 11.3 7.2 2 3.1 5.7 13.7 10.4 11.6 2.4-1.4 3.8-4.2 5.2-6.5q2.4-4.3 5.2-8.4c3.2-4.6 6.8-8 12.2-3.8q2.4 1.9 5.2 3.2c1 .9 2 2.4 2.6 3.6" class="b"/><path d="M8.8 49.5h57.3q2-1 4.3-1.7c3.1-.9 6.4.2 9.5-.1 1.7-.1 3-1.3 4.4-2 4.9-1 8.8 4.5 14.7 2.2 3.3-1.3 6-4.2 9.6-4.5 3.2-.4 6.3 1.2 9.5 1.2 6.3-.3 8.7-12.5 14.8-14.9 4.2-1.2 7.5 4.6 9.5 7.6 2.2 3.2 6.1 14.8 11.3 10.8 2.2-2 3.7-4.9 5.2-7.4q2.8-4.8 6-9.4c3.4-4.3 6.7-5.5 11.3-2q2.1 1.4 4.4 2.4c1 .9 2 2.5 2.6 3.7" class="b"/><path d="M8.8 48.5h59q2.4-1.1 5.2-1.3c2.9-.3 6 .6 8.7-.5 1-.5 2.2-1.4 3.5-1.6 3.2-.3 6.3 1.7 9.5 1.9 3.6.3 6.6-2 9.5-3.7 4.6-2.3 8.5.2 13 1.1 3.8.7 6.1-3 7.9-5.7 2.3-3.3 4.4-8.3 8.6-9.5 4-.3 6.8 4.6 8.7 7.5 2.5 3.7 6.5 15.6 12.2 9.5 1.7-1.9 3-4.4 4.3-6.6q2.5-4.3 5.2-8.3c3.2-4.6 6.7-8 12.2-4.2q2 1.4 4.3 2.5c1 .9 2 2.6 2.6 3.8" class="b"/><path d="M8.8 47.5h54.7c2.8 0 5.8.3 8.6-.4 2.9-.5 5.9.2 8.7-.4 1.8-.5 3.3-2 5.2-2 3.5 0 7 1.5 10.4.7 2.9-.4 5.3-2.3 7.8-3.4 5-2 9.2 2 14 2.4 6.6.2 9-13.8 15.5-15.5 4-.4 6.8 4.4 8.7 7.2C145 40 149 51.3 154.6 45q2.4-3.2 4.3-6.8l5.2-8.2c3-4.5 6.6-8.2 12.2-4.7 3.8 2.3 4.8 1.8 7 6.3" class="b"/><path d="M8.8 46.5h68.5c1.4 0 3 .2 4.4-.4s2.8-1.6 4.3-1.7q3-.1 6 0 4.3.2 7.9-1.6c2-.9 3.9-2.2 6-2.2 4.1 0 7.5 2.9 11.3 3.6 7.1 1.3 9.5-12.3 15.7-15.2 4.2-1.7 7.4 3.8 9.5 6.8 2.6 3.8 6.8 14.4 12.2 7.8 1.6-2 3-4.6 4.3-6.8q2.5-4.1 5.2-8.1c3-4.4 6.7-8.3 12.2-5 3.8 2.3 4.8 1.9 6.9 6.5" class="b"/><path d="M8.8 45.5h73.8q1.2-.6 2.6-1c2.5-.8 5.2-.7 7.8-1q3.5-.7 6.9-2c6.7-3.7 9.5-.1 15.6 2.1 4 1.4 6.7-.7 8.7-4 2.2-3.2 4-7 7-9.7 4.5-4.4 8.8 2 11.2 5.6 2.7 4 7 13.5 12.2 6.7 1.6-2.1 3-4.7 4.3-7l5.2-7.9c2.7-3.7 6.4-7.7 11.3-5.1l5.2 2.8c1 1 2 2.8 2.6 4" class="b"/><path d="M8.8 44.5h75.5c5.2-1.4 10.6-2.3 15.6-4.4 5.4-2.4 8.3.1 13 2.4 9 4.6 11.4-4 15.6-9.9 5.6-8.1 9.6-3.5 14 2.7 2.4 3.5 6.4 11.9 11.2 6.5 2-2.4 3.6-5.4 5.2-8.1q2.5-4 5.2-7.6c2.8-3.7 6.5-7.2 11.3-4.7l5.2 2.8c1 1 2 2.8 2.6 4" class="b"/><path d="M8.8 43.5h78c3.9-1.1 7.6-2.7 11.4-4 3.6-1.3 6-1.8 9.5.2 5.5 3.1 10.8 6.5 15.6.3 3-3.4 6.3-12 11.3-12 7.4 1 11.8 21.1 19.1 12.4 2-2.4 3.6-5.5 5.2-8.2q2.4-3.8 5.2-7.3c2.9-3.6 6.6-6.4 11.3-3.9l5.2 2.8c1 1 2 2.8 2.6 4.1" class="b"/><path d="M8.8 42.5h9.5c1 .2 1.8-.5 2.6-.8q1.8-.6 3.5.2c1 .7 2.3.6 3.5.6h59.9q1 .1 1.7-.4l2.6-1.3q3.7-2 7.8-3c4-1.1 7.1 1.5 10.4 3.4q1.2.8 2.6 1.3h1.7c2-.1 4.4.5 6.1-.7 5.1-3.4 6.4-11.1 12.2-13.8 7.9-2.1 12.4 19.8 20 12.2 3.5-3.9 5.2-9.2 8.6-13.2 3.1-4 7.4-9.2 13-6.4l6 3.3c1.1 1 2 2.8 2.7 4" class="b"/><path d="M8.8 41.5q4.4.2 8.7-.1c1.6-1.5 3.8-3 6-2.3 1.4.5 2.8 1.6 4.4 1.7q3 .4 6 .2c1.8 0 3.6.6 5.3.5h50.3c4.3-2.7 9.6-6.4 14.7-4.1 2.5 1 4.5 3.4 7 4.1h8.7c6-2.4 9.6-18.7 17.3-12.3q2.9 2.8 5.2 6.2c1.8 2.2 3.7 5.6 7 5.7 3.5-.6 5.2-4.5 6.9-7.2 2-3.9 4.6-7.8 7.8-10.9q5-5.3 11.3-1.6l5.2 3c1 1 2 2.7 2.6 4" class="b"/><path d="M8.8 40.5h7c2-1.8 4.5-5 7.8-3.7 1.6.9 3.2 2 5.2 2.3 2.2.4 4.6.2 6.9.4q2.6.3 5.2 1H86c5.2.2 3.8-.2 7.8-2.7 6.7-4 9.4-2 14.8 2.4q1.2.4 2.6.3h6.9c.8 0 2 .1 2.6-.4 3-2 4.8-5.6 7-8.4 6.2-8.7 10.1-2 14.7 3.9 9.5 13.7 13.1-4.8 19.1-10.7 3.7-4.2 7.7-6.6 13-3.3q3 2 6 3.6c1.1 1 2 2.7 2.7 4" class="b"/><path d="M8.8 39.5h6c2-2.5 5.1-6.3 8.8-4.7 1 .6 2.2 1.6 3.4 2q2.1 1 4.4 1c3.1.2 6.4 0 9.5 1q1.3.4 2.6.7h6q20.5.2 40.9-.1c3.2-2.9 7.6-6.2 12.1-4 2 1 3.5 2.8 5.2 4.1H120c1.3-.5 2.5-1.7 3.4-2.7 2.9-3 6.3-11 11.3-9.2 4.9 2.7 7 8.6 11.3 11.9h3.5q1.6.1 2.6-1.1c4.8-5.6 6.6-14.2 13.8-17.4 4.1-1.8 8 1.2 11.3 3.4q1.7 1.1 3.5 2c1 1 2 2.6 2.6 3.8" class="b"/><path d="M8.8 38.5q2.6.2 5.2-.1c2-2.7 4.8-6.8 8.7-5.7 1.3.4 2.4 1.5 3.5 2.2q2 1.2 4.3 1.5c3.4.5 7-.1 10.4.6 1.5.2 3 1 4.3 1.5h45.2c3.2-3.1 7.6-6.8 12.1-3.7 1.6 1 2.9 2.6 4.4 3.7h13c5-2.5 6.6-9.6 12.1-11.4 4.7-.8 8.9 8.1 12.2 11q1.2.6 2.6.4h4.3c4.6-4 5.8-10.9 10.4-15 1.9-1.6 4.4-3 7-2.6 3.3.6 6 3 8.6 5q1.7 1.1 3.5 2c1 1 2 2.5 2.6 3.7" class="b"/><path d="M8.8 37.5c1.4 0 3 .2 4.3-.2 2.2-2.9 5.3-7.8 9.6-6.2 1.2.5 2.4 1.7 3.5 2.5q2.2 1.6 5.2 1.9c3.4.2 7-.8 10.4 0q1.3.2 2.6.8c.7.4 1.7 1.1 2.6 1.2h43.3c6.1-6.3 9.8-7 15.7 0h13.9c3.5-2.2 5.7-6.1 8.6-9 3.8-3.7 7-1 9.6 2.4q2.4 3.5 5.2 6.6 4.3 0 8.7 0c3-4 4.8-8.8 7.8-12.6 4-4.6 8.4-4.6 13-.8q2.5 2.1 5.2 4 1.2.9 2.6 1.6c1 .8 2 2.3 2.6 3.4" class="b"/><path d="M8.8 36.5c1.1 0 2.4.2 3.5-.3 2.3-3.1 5.8-8.6 10.4-6.3 1.2.6 2.3 1.9 3.5 2.7a10 10 0 0 0 4.3 1.8c4 .7 8.1-1.4 12.1-.5 1.9.5 3.6 1.7 5.2 2.6h42.5c3.4-3.8 7.5-7.6 12.2-3.2l1.8 1.8c.5.8 1.5 1.6 2.6 1.4h13c1.3-1.3 3.1-2.5 4.3-4 2.2-2.4 4.3-6 7.8-6.2 5 .8 6.9 7.4 10.4 10.2h9.6c1.2-.5 1.9-2.3 2.6-3.3 2.4-3.9 4-9.2 8.6-11 5.3-1.8 9.4 3.5 13 6.5q2 1.6 4.4 2.8c1 .8 2 2.2 2.6 3.2" class="b"/><path d="M8.8 35.5c2.8.3 2.8-1 4.3-2.8 3.2-4.1 7-7 11.3-2.5q4.8 5.1 11.3 3c2.2-.5 4.6-1.3 7-.8 2.3.6 4.5 2.3 6.9 3q11.7.1 23.4.1h11.3q3 .2 6-.1c5.7-7 9.5-7.4 14.8.1h8.7c2 0 4.1.3 6-.2 1.7-1.6 3.8-3 5.3-5 2.4-2.8 5.8-6.4 9.5-3 1.7 1.4 3 3.5 4.3 5.3.8.9 1.5 2.5 2.6 3h11.3c3.3-3.7 4.4-9.5 8.7-12.3 5.5-3.2 10.2 3 13.9 6.4q1.6 1.5 3.5 2.8 2 1 3.4 2.8l.9.2" class="b"/><path d="M8.8 34.5h.9c2.6-2.4 4.3-6.1 7.8-7.5 7.7-2 7 9.8 19 5 2-.6 4-1.4 6.1-1 1.2.2 2.4 1 3.5 1.4q2.5 1.2 5.2 1.8c2.9.5 5.8.3 8.7.3h28.6c1.1.2 2-.6 2.6-1.5l1.8-1.9c5.3-5.3 8.6-1.2 12.1 3.4H119c.6 0 1.4-.8 1.7-1.2q1.9-1.5 3.5-3c2.2-2.3 5-6.3 8.7-4.5 2.2 1.2 3.8 3.6 5.2 5.6.7 1 1.5 2.6 2.6 3.1h13c4.4-6.7 7.4-16.5 16.5-8.3 3 2.6 5.4 6 8.7 8.2q2.2.1 4.3.1" class="b"/><path d="M8.8 33.3c3-3.4 6.9-10 12.2-7 2 1 3.5 3 5.2 4.5 2.7 2.5 6.3 2.2 9.5.8 2.2-.9 4.5-2.1 7-1.8 1.4.2 2.8 1.2 4.3 1.7q3 1 6 1.1c2.3 0 4.7-.3 7 0 1.1 0 2.4.6 3.5 1h26c1.7-1.8 3.2-4 5.2-5.5 4.6-3.2 8 2.1 10.4 5.4H119q1-.3 1.7-1.3 1.8-1.3 3.5-3c2-2 4.5-5.2 7.8-4.2 3.7 1.5 5.1 6 7.8 8.5h14.8c1.6-2.6 3-5.6 5.2-8 4.6-4.3 9.9 1.2 13 4.7 1 1 2 2.7 3.5 3.3h6.9" class="b"/><path d="M8.8 30.5c2.8-3 6.7-8.2 11.3-5.5 5 3 6.7 9.4 13.9 6.7 3-1 6.1-3.7 9.5-2.7 2.2 1 4.5 2 7 2.1 3.7.3 7.5-1.3 11.2-.2 1.2.3 2.3 1.3 3.5 1.6H86c1.1 0 2.5.3 3.5-.4 6-8.5 9.8-9.2 15.6.1 1.6.6 3.5.2 5.2.3h7.8c1 .2 2-.5 2.6-1.2a33 33 0 0 0 4.4-3.8c6.6-7.3 10-.7 13.9 5h16.4c1.4-2 2.7-4.3 4.4-6 5.2-4.5 10.5 2.4 13.8 6h9.6" class="b"/><path d="M8.8 27.8c6.5-6.8 9.8-6.1 15.6.8 1.4 1.4 3 3.2 5.2 3 1.4-.2 3 .1 4.4-.3q3-1.5 6-2.9c4.6-1.5 5.4 3 13 1.4 3.4-.6 7.3-2.2 10.5-.1 1.2.8 2.7 2 4.3 1.8h20.8c3.1-4 7.7-11.5 13-5.7 1.7 1.6 2.8 4 4.4 5.7h8.7c1.6 0 3.5.2 5.2-.2 1.2-1.3 3-2.3 4.3-3.6 2.7-2.7 6-5.9 9.5-2.5 1.3 1.2 2.6 3 3.5 4.4.3.5 1.1 1.7 1.8 2h17.3c1.4-1 2.2-3 3.5-4 4.4-3.8 9 1 12.1 4h11.3" class="b"/><path d="M8.8 25c5-4.5 8.4-4.6 13 .4 1.7 1.7 3.2 3.8 5.2 5.1h7c2.9-.7 5.5-3.3 8.6-2.8 1.2.2 2.4 1 3.5 1.4q1.7.5 3.5.4c4.1-.1 7.9-3.3 12.1-2.6 2.7.9 5 3.3 7.8 3.6h18.3c3.4-3.2 7.3-11.8 13-7.4a19 19 0 0 1 3.4 4.1c.8 1 1.5 2.7 2.6 3.3H119q1-.2 1.7-1 2.8-1.9 5.2-4.2c5.6-5.2 9.2.6 12.2 5.2h20c2-3 5.4-4.1 8.6-2.3 1.5.6 2.7 2.5 4.4 2.3h12.1" class="b"/><path d="M8.8 22.2c8.1-6.4 11.9 2.6 17.4 7.2 2.8.3 5.8 0 8.6.1 2-.6 4-1.9 6.1-2.1 1.5-.3 3 .5 4.3 1.2q3.5 1.3 7-.2c3.5-1.3 7.4-5 11.3-2.7q4 2.5 8.6 3.8h13q1.5.1 2.6-.3l2.6-3.3c2.3-2.8 5.6-7.3 9.6-5.2 3.1 1.9 4.8 5.5 7 8.4 1.2.8 2.9.3 4.3.4h7.8c.5-.2 1.3-.9 1.7-1.2q1.8-1.2 3.5-2.5c2.4-2.1 5.6-4.5 8.7-2.1 2.1 1.5 3.3 4.1 5.2 5.8h21.7q1.6-1.1 3.4-1.2 2.3.2 4.4 1.2h15.6" class="b"/><path d="M8.8 19.5c8-5 11.8 5.4 17.4 9h9.5a16 16 0 0 1 5.2-1.4q1.4 0 2.6.6c.7.4 1.7 1 2.6.8h4.3c2.6-.6 4.7-2.7 7-4 2.2-1.4 4.7-2 7-.3q5 2.6 10.3 4.2c4 .3 8.1 0 12.2.1 3.4-3.2 5.6-8.4 10.4-9.7 4.8-.5 7 5 9.5 8.1 1.2 2 2.3 1.6 4.4 1.6h6c1.5.3 2.5-.9 3.5-1.7 2.1-1 4-2.7 6-3.9 4.5-2.7 8.2 2 10.5 5.3q1.2.5 2.6.3h43.4" class="b"/><path d="M8.8 17c7.6-3.4 11.5 6.5 16.5 10.2 1 .5 2.4.3 3.5.3H33c2.3.3 4.6-.8 7-.7 1 0 2.3.5 3.4.7h8.7c3-1.9 5.2-5 8.7-6 1.5-.5 3 .5 4.3 1.2q5.5 2.5 11.3 4.3c1.9.8 4 .5 6 .5H86q1-.4 1.8-1.3c3.7-3.8 9-12.6 14.7-6.8 2.5 2.5 4.3 5.9 7 8.1h7.8c1.2-.4 2.3-1.6 3.4-2.2q1.8-1 3.5-2c6.2-4.1 9-.5 13 4.2h46" class="b"/><path d="M8.8 14.7c7.8-2.4 11.4 9.3 17.4 11.8H34q1.6-.3 3.4-.4t3.5.4h12.2c2.6-2.1 6.5-8.2 10.4-6.6q5 2.6 10.4 4.2l4.3 1.5q2.2 1 4.3.9l3.5-.1c2.3-1.6 4.1-4 6-6 7.4-7.7 10.2-3.1 15.7 3.2 1.4 1.3 3 3.1 5.2 2.9 1.1 0 2.5.2 3.5-.3l4.3-2.6 4.4-2c3.6-1.8 6.9-.4 9.5 2.4.8.8 1.6 2 2.6 2.5h46" class="b"/></svg>