<svg xmlns="http://www.w3.org/2000/svg" id="a" width="1920" height="2400" viewBox="0 0 192 240"><defs><style>.b{fill:none;stroke:#fff;stroke-miterlimit:10;stroke-width:.3px}</style></defs><path d="M0 0h192v240H0z" style="stroke-width:0"/><path d="M8.7 227.8a19 19 0 0 1 11.3.8c2.1.8 4 2.4 6 3 4.3.2 8.3-6.2 11.4-8.8 1.6-1.6 3.7-3.2 6-3.4q2.3.2 4.4-.6c2.4-1 4.6-2.5 7-3.7 2.3-1.4 5.5-2.1 7.8-.2q1.1 1.2 2.6 2.3c1.7 1.2 4 1.2 6 .7 9.3-2.8 10.4-1.4 16.5 5.5 4.6 4.8 6.7 5.2 13 5.5 1.5.2 3 1 4.4 1.3q3.8 1 7.8 1c6.9 0 9.6-2.4 14-7.3 7.7-8.6 12.3 2 16.4 8h20.9c1 0 2.4.2 3.5-.2 2.1-3.4 5.7-9.6 10.4-6.4 1.8 1.3 3.2 3.3 5.2 4.5" class="b"/><path d="M8.7 228c3.5-.4 7.1-.8 10.4.5q1.9.7 3.5 1.6 1.1.9 2.6.9c1.4-.2 3.2.3 4.4-.5 2.9-2.4 5.1-5.6 7.8-8.2 7-6.8 5.9-.3 15.6-7 2.5-1.6 5.7-3.7 8.7-2.2 1.3.7 2.3 2 3.5 2.9q2.3 1.5 5.2 1.4c4-.3 8.6-1.7 12.1 1.2 5 4 8.2 10.1 15.6 9.2q1.8 0 3.5.2l2.6 1q3 .6 6.1.6c3.9 0 8-.7 11.3-2.7 2.5-1.7 4.4-4.3 7-6 6.5-4.4 10.8 5.3 13.8 9.7 1 .6 2.4.3 3.5.4h20.9c1.2-.5 1.8-2.4 2.6-3.3 1.3-2 2.9-4.2 5.2-5 3.8-.8 5.8 3.6 8.7 5.3" class="b"/><path d="M8.7 228.4c4-.5 8.4-.7 12.2 1.2 1.2.7 3 .3 4.3.4 1.7-.1 3.6.2 5.2-.2 3.8-3.5 7.6-11.4 13-12 4.7.8 8.4-2.8 12.2-4.8 2.1-1.2 4.9-1.9 7-.2q1.6 1.5 3.4 2.8c6.3 3.3 12-1.1 18.3 5 3.2 2.9 6.5 6.7 11.3 6.5 1.7 0 3.5-.4 5.2-.3 1.1 0 2.3.7 3.4 1q2.6.5 5.2.3c5.3-.4 10.9-1.6 14.8-5.3 2.5-2.3 6-5.6 9.6-3.4 4 2.4 5.7 7.2 8.6 10.6h24.4c1.2-.7 1.8-2.6 2.6-3.6 1.3-2 2.8-4.4 5.2-5.3 3.8-1.1 6 3.4 8.7 5.2" class="b"/><path d="M8.7 228.8q3-.2 6-.2c1.8.1 3.6.5 5.3.4h7c1.3-.1 3 .2 4.3-.3 3.2-3.5 7-11.5 12.1-11.8q3.3.6 6.1-1c3.5-1.4 6.5-4.6 10.5-4.7 4.7.6 3.8 5 13 5.7q4 .3 7.8 1.8c5.4 2.7 8.8 9.1 15.6 7.6 1.4-.2 3-.7 4.4-.6 2 .2 4 1.2 6 1 6.1-.2 12.7-1.7 17.4-5.7 2-1.6 4.3-3.7 7-3.4 4.9 1 7.7 7.5 10.4 11.2 2.8.3 5.8 0 8.7.2h16.5c1.2-.7 1.8-2.7 2.6-3.8 1.3-2.1 2.8-4.7 5.2-5.7 3.8-1.3 6 3.3 8.7 5.2" class="b"/><path d="M8.7 228h22.6c1.5-1 2.4-3.1 3.5-4.5 2-2.8 4.2-6.6 7.8-7.6q1.3-.2 2.6.2a9 9 0 0 0 3.5-.4c3.9-1.2 7-4.6 11.2-4.7 2.6 0 4.1 2.4 6.1 3.5 2.6 1.7 5.8 2.2 8.7 2.9 11 1.7 12.6 9.9 20.9 8.2 2-.4 4-1.3 6-1q1.8.5 3.5.7c3.5.3 7-.6 10.4-1.6a27 27 0 0 0 7-3.1c1.7-1.2 3.3-2.7 5.2-3.6 4.6-2.3 8.2 2.8 10.4 6.1 1.1 1.5 2 3.7 3.5 4.8h25.2l.8-.5c2-3.5 5.3-12.1 10.5-9.2 1.9 1.3 3.4 3.5 5.2 5" class="b"/><path d="M8.7 227h23.5c2.6-3.8 5.8-11 10.4-12.2q1.3 0 2.6.4 1.7.2 3.5-.1c3.6-.8 6.7-3.4 10.4-4 3-.6 4.7 1.9 7 3.3q3.2 1.8 6.9 2.7c3.5 1 7.2 2 10.4 3.8 3.2 2 6.4 4.8 10.4 4.2 2.4-.3 4.6-1.5 7-1.8 1.4 0 2.9.7 4.3.7q4 0 7.8-1 4.1-1.1 7.9-3c1.8-.9 3.5-2.3 5.2-3.4 7.1-4.9 11.4 5.6 14.7 10.3h23.4c1.2 0 2.6.3 3.5-.4 1.8-3.3 4.8-11.6 9.6-10.3 2.5 1.1 4 3.8 6 5.5" class="b"/><path d="M8.7 226h23.5c3-3.4 5.5-11.1 10.4-12.3 1.4 0 2.9.9 4.3 1 3.4.2 6.5-1.5 9.6-2.6 3.9-1.5 5.6-.7 8.6 1.8q3.3 2 7 3.1 5.8 1.6 11.3 4c3 1.5 6 3.9 9.5 3.5 2.8-.3 5.2-2 7.9-2.3 1.4-.1 2.9.5 4.3.5q3.5 0 7-1 4.5-.8 8.6-3c4.5-2.4 8.2-7.2 13-2.3 1.7 1.7 3.2 4 4.4 6 .7 1 1.5 2.8 2.6 3.5h23.4c1.2 0 2.6.3 3.5-.4 1.8-3.3 4.8-12 9.6-10.8 2.5 1.2 4 3.9 6 5.7" class="b"/><path d="M8.7 225h23.5c.7-.3 1.4-1.5 1.7-2.1l1.7-3c1.8-2.7 4.1-7.4 7.9-7 2.7 1.2 5.7 1.9 8.7 1 2-.4 4-1.3 6-1.8 3-.7 4.7.4 7 2a27 27 0 0 0 5.2 2.5q6.5 2 13 4.1c2.8 1.2 5.5 3 8.7 3 3-.1 5.7-2.1 8.7-2.7 1.4-.1 3 .4 4.3.4q3 0 6.1-.7 5.6-.8 10.4-3.5c2.3-1.4 4.3-3.5 7-3.9 5.4-.4 8.7 7.6 11.3 11.5 2 .3 4 0 6 .1h17.4c1.4 0 3.1.4 4.4-.3 1.6-3.4 4.7-12.6 9.5-11.2 2.6 1.1 4.1 4 6.1 5.8" class="b"/><path d="M8.7 224h20.9c1 0 2.4.1 3.4-.3 2.3-3.8 4.2-8.4 7.8-11.1 2-1.3 3.5 0 5.3.8q3.3 1.4 6.9.8c2.3-.4 4.6-1.3 7-1.5 1.9-.1 3.6 1 5.2 2q3.3 1.7 7 2.7 5.4 1.6 11.2 2.8c2.6.8 5 2.4 7.8 2.5 3.4.2 6.4-2 9.6-2.8 1.4-.2 3 .3 4.3.2a49 49 0 0 0 7.8-.8c3-.6 6.1-1.3 8.7-3 1.7-1 3.4-2.4 5.2-3.3 6.7-2.6 9.8 7 13 11h24.3c1.2 0 2.6.2 3.5-.4 1.7-3.4 4.8-13 9.6-11.5 2.6 1.3 4 4 6 6" class="b"/><path d="M8.7 223H33c2-3.2 6.4-14.3 11.3-11 2.6 1.7 5.6 3 8.7 2.8 3.7-.2 7.9-2.3 11.3.2 4.8 2.5 10.4 3 15.6 4 1.7.3 3.6.3 5.2.9 3 1.2 6.4 2.4 9.6 1.2 2.8-.8 5.6-2.9 8.7-2.3q4.3.2 8.7-.4c3.2-.3 6.7-.9 9.5-2.6 4.3-3 7.7-6.4 12.2-1.3 1.2 1.4 2.5 3.3 3.4 4.9.8 1 1.4 3 2.7 3.5H164c1.2 0 2.6.3 3.6-.4 1.6-3.4 4.6-13.2 9.5-11.6 2.6 1.3 4 4.2 6 6.2" class="b"/><path d="M8.7 222H33c2-3.1 3.6-6.7 6.1-9.4 4.8-4.9 6.2 2.6 14 3 3 .4 6.3-1.2 9.5-.4q4.9 2.4 10.4 2.6 4.8.4 9.5.5c2.4 0 4.7 1.2 7 1.7q4 .8 7.8-1c1.6-.6 3.4-1.5 5.2-1.3q4.4 0 8.7 0c3.5-.2 7.4-.3 10.4-2.3 2.2-1.4 4.3-3.7 7-4.1 5-.3 8 6.9 10.4 10.5 3.4.3 7 0 10.4.1h17.4l.8-.6c1.6-3.4 4.7-13.4 9.6-11.5 2.6 1.5 4 4.3 6 6.4" class="b"/><path d="M8.7 221H33c2.6-3.3 4-8 7.9-10.1 2-1 3.7 1 5.2 2.1a15 15 0 0 0 7.8 3.9c2.6.2 5.2-.7 7.8-.5 1.2 0 2.4.7 3.5 1q2.5.5 5.2.5 4.8-.1 9.5-.5c1.4 0 3-.4 4.4-.3q1.7.3 3.4 1 4.8 1.8 9.6-.1c1.6-.6 3.4-1.4 5.2-1.4q4.4 0 8.7.3c3.2.1 6.6.3 9.5-1.2 2.5-1.3 4.4-3.6 7-4.6 5.7-1.6 8.5 6.2 11.3 9.8h27.8c1.3-1 1.8-3.6 2.6-5 1.2-2.6 2.6-5.7 5.2-7.1 3.7-1.4 6.4 4.5 8.7 6.6" class="b"/><path d="M8.7 220H33c2.6-2.6 5.6-11.5 10.5-9 3 2.5 5.6 5.8 9.5 7 3.1 1 6.4-.4 9.6-.1q3.8 1.3 7.8.4l9.5-2 3.5-.8q1.8-.1 3.5.5c7 2.8 8 1.4 14.7-.3 5-.5 9.9.9 14.8 1 5.6.3 7.5-4.7 12.1-6.1 3.7-.6 6 3 7.9 5.7.7 1 1.5 2.8 2.6 3.6h27.8c2.3-3 4.4-13.1 9.5-12.3 3.1 1.3 4.7 4.8 7 7.1" class="b"/><path d="M8.7 219H33c1.2-.7 1.9-2.4 2.6-3.4 1.5-2 3.3-4.9 6.1-5 1.9.3 3.1 2.1 4.4 3.3 1.5 1.6 3.3 3.4 5.2 4.5q1.2.8 2.6.5h11.3c1.7 0 3.6.3 5.2-.2q4.8-2 9.5-3.8c2.4-1 4.4-1.9 7-.8 3.8 1.6 7.1 3 11.3 1.6q2.4-.9 5.2-1c4.7-.4 9.2 1.8 13.9 2 3.2 0 5.6-2.3 7.8-4.3 6.2-5.7 10 1 13 6.1 1.3.8 3 .3 4.4.4h24.3c2-3.4 4.9-14.8 10.4-11.7 2.5 1.8 4 4.7 6 7" class="b"/><path d="M8.7 218h21.7c1.1-.1 2.5.1 3.5-.3 2-3 5.4-8.9 9.5-5.8 1.2 1 2.4 2.6 3.5 3.8.7.7 1.6 2 2.6 2.2h22.6c3-1.5 5.7-3.5 8.7-5 2.6-1.4 4.1-1.8 7-.4 11.6 6.2 11.3-1.8 23.4 2.6 2.7 1 5.8 2.2 8.7 1.3 2.4-.9 4-3.1 6-4.7 5.6-4.9 9.5 1.8 12.2 6.2h28.7c1.6-3.6 5-15.1 10.4-11.4 2.4 2 4 4.9 6 7" class="b"/><path d="M8.7 217H34c2.2-2.4 5-7 8.7-5 1.7 1.2 3 3.2 4.3 4.7q1.7.4 3.5.2H73c.9-.2 1.8-1.2 2.6-1.8q3-2.3 6-4.4t6.1-.3c4 2.3 7.4 4.4 12.2 3.1q2.6-.6 5.2-.6c4.9.3 9 4.2 13.9 3.9 3-.5 4.8-3.3 7-5 5.7-5.3 8.9.8 12.1 5.1H166c.8-.3 1.5-2 1.7-2.8a38 38 0 0 1 3.5-6.7c4.8-7 8.9 2.4 12.2 5.7" class="b"/><path d="M8.7 216h22.5c1.2-.1 2.5.1 3.6-.3 3.7-4.3 6.9-5 10.4 0 1.3.5 3 .2 4.3.2h24.3c2.3-2 4.5-4.5 7-6.4 1-.7 2.2-1.8 3.5-2 2.6-.2 4.8 1.9 7 3.1a12 12 0 0 0 6.9 2.3q2.2-.1 4.3-.7c2.7-.5 5.4.4 7.8 1.6l4.4 2.1q3.3.2 7 0c3.2-2.5 6.5-8.6 11.2-5.7 2.3 1.4 3.3 4.1 5.2 5.7H166c2.3-3.2 4.9-14.5 10.4-11.3 2.9 2 4.5 5.5 7 8" class="b"/><path d="M8.7 215H33q1.4 0 2.6-.2c.4-.4 1.3-1 1.8-1.2 2-1.3 4.5-.5 6 1.2 7.3.3 14.6 0 21.8.1 12.4-.3 6.6 2 14.7-6.3 3.2-3 4.8-4.5 8.7-1.5 5.5 4.2 7.6 6 14.8 4.3q2.7-.2 5.2 1 2.2 1 4.3 2.3 1.7.4 3.5.2h6c1.9-1.4 3.4-3.5 5.3-4.9 4-3 7.5 1.3 9.5 4.5 1.3.8 3 .3 4.4.4h7q8.6.1 17.3 0c1.7-3.5 5-14.8 10.4-11 2.8 2.3 4.5 5.7 7 8.3" class="b"/><path d="M8.7 214H47c9.3-.2 18.6.1 27.8-.2 2.6-3.5 5.2-7.3 8.7-9.9 3-1.4 5.6 2 7.8 3.6 2.2 1.9 4.8 3.8 7.8 3.8 1.8 0 3.5-.7 5.2-.7q2.8.1 5.2 1.6c1.2.5 2.3 1.5 3.5 1.7h10.4c5.6-6.4 8.8-8 14 0q13.8.1 27.7 0c1.3-1 1.9-3.4 2.6-4.9 1.3-2.4 2.6-5.5 5.2-6.7 4.1-1.4 7.8 7 10.5 9.5" class="b"/><path d="M8.7 213h66c2-2.7 3.8-5.7 6.1-8.1 1-1 2.1-2.4 3.5-2.8 2.8-.4 5 2.4 7 4.1 2.1 2 4.6 4.2 7.7 4.4q2.3-.1 4.4-.6c3.2-.4 6 1.5 8.7 3h11.3c1.5-1.1 2.7-3 4.3-4 4.2-3.3 7.1.8 9.5 4H165c2.2-3.8 5.5-15.7 11.3-10.5 2.7 2.6 4.5 6.1 7 8.8" class="b"/><path d="M8.7 212h66c1.1-.8 1.9-2.5 2.6-3.5q2.3-3.6 5.2-6.6c2.6-2.9 5.9.4 7.9 2.3 2.6 2.6 5.6 5.7 9.5 5.7 1.4 0 3-.6 4.3-.6 3-.2 5.3 1.6 7.9 2.6h11.3c1.8-1.3 3.1-3.4 5.2-4.5 4-2.2 6.3 2 8.6 4.5h27l.8-.6c2-3.9 5.6-15.1 11.3-9.6 2.6 2.7 4.4 6.3 7 9" class="b"/><path d="M8.7 211h66c1.2-.6 1.9-2.5 2.6-3.5q2-3.1 4.4-6c2.8-3.6 5-2.2 7.8.5 3 2.9 6 6.9 10.4 7.1 1.7 0 3.5-.7 5.2-.5q2.3.3 4.4 1.3c.7.3 1.7 1 2.6 1h11.3c2.3-1.8 4.4-5.3 7.8-5 2.8.4 4.2 3.2 6 5h27c2.4-4 6-16.2 12.1-10 2.6 2.8 4.5 6.2 7 9" class="b"/><path d="M8.7 210h63.4c1.1-.1 2.5.2 3.5-.5 2.2-3.9 4.5-8 7.8-11.1 3.3-2.1 6.5 2.8 8.7 4.8 2.1 2.2 4.6 4.8 7.8 5.1q1.8 0 3.5-.4c2.7-.3 5.4.7 7.8 1.9 4 .3 8.1 0 12.2.1 5.7-6.2 8.5-7.5 13.9 0h26c2.7-3.2 4.7-11.5 9.6-11.9 2.8.4 4.5 3.2 6 5.3l4.4 5.6" class="b"/><path d="M8.7 209h63.4c1.1-.1 2.5.2 3.5-.5 2-3.6 4.2-7.5 7-10.7 2.6-3.4 5.7-.2 7.8 2s4.2 5 6.9 6.6c3.1 2 5.4.4 8.7.8q2.8.4 5.2 1.6 1.7.3 3.5.1h7.8c.6 0 1.4-.7 1.7-1.1l2.6-2.5c4.5-3.9 7.8-.5 10.5 3.4 1 .4 2.3.2 3.4.2h21.7c1.2-.8 2-2.7 2.6-4 1-1.7 2.2-3.8 3.5-5.4 3.6-4.5 6.7-2 9.6 1.7q2.4 3.3 5.2 6.5" class="b"/><path d="M8.7 208h63.4c1.1-.1 2.5.2 3.5-.5 2.3-4.1 4.5-8.6 7.8-12 3.4-2.6 6.6 2.4 8.7 4.6 2.4 2.6 5 5.9 8.7 6.4 1.4 0 3-.4 4.3-.3 2.4 0 4.8.9 7 1.7h10.4c3.2-2.5 7-7.9 11.3-4.5 1.7 1.1 2.7 3.3 4.3 4.5h23.5c1.1-.6 1.9-2.4 2.6-3.5l3.5-5.2c3.2-4.2 6.2-3.8 9.5 0l6 7.3" class="b"/><path d="M8.7 207h63.4c1.1-.1 2.5.2 3.5-.5 2-3.9 4.2-8 7-11.4 2.5-3.7 5.5-1.2 7.8 1.3 2.4 2.7 4.7 5.9 7.8 8q1.6.9 3.4 1 2.7-.3 5.2 0c2 .2 4.2 1 6.1 1.5h7q1.4.2 2.6-.4c6.8-6.2 9.6-8.3 15.6.4h22.6c2.5-2 4-5.5 6-8 3.5-4.2 6.7-4.5 10.5-.4l6 6.9" class="b"/><path d="M8.7 206h63.4c1.1-.1 2.5.1 3.5-.5q2.9-6.2 7-11.7c2.8-4.3 6.2-1 8.6 1.8 2.9 3 5.4 7.2 9.6 8.5 1.6.3 3.5 0 5.2 0q3 .3 6 1.1c1.4.4 3 .9 4.4.7h3.5a3 3 0 0 0 1.7-.4c3.5-2 6.7-7.2 11.3-5.3q2 1.1 3.5 2.8c.7.9 1.6 2.3 2.6 3h20.8c2.6-2.4 4.6-5.5 7-8q5.1-5.7 10.4-.1 3.2 3 6 6.3" class="b"/><path d="M8.7 205h63.4c1.1-.1 2.5.1 3.5-.4 2.1-4 4.3-8.3 7-12 2.8-4.3 6-1.7 8.6 1.2 3 3.1 5.4 7.3 9.6 9 1.6.4 3.5 0 5.2.1q3.5.2 7 1c2.5.5 5.2 1.2 7.7.3 2.3-1 4.1-2.9 6.1-4.2 5.3-3.9 9.2.6 12.2 4.8 6.6.3 13.3 0 20 .1l3.4-3.3q2.5-2.7 5.2-5c3.3-2.6 6.7-1.7 9.6.9a50 50 0 0 1 6 5.7" class="b"/><path d="M8.7 204h63.4q1.8 0 3.5-.3c2.1-4 4.3-8.3 7-12.1 2.7-4.3 5.8-2.6 8.6.5 3 3 5.5 7.2 9.6 9.1 1.6.6 3.5.3 5.2.4q3.4 0 7 .7c2.5.3 5.2.8 7.7 0 2.6-1 4.6-3 7-4.3 5.8-3 8.6 2.5 12.2 6H158l5.2-4.2c2.8-2.5 6.4-5.7 10.4-4.4a19 19 0 0 1 5.2 3q2.4 1.6 4.4 4" class="b"/><path d="M8.7 203q33.4-.1 66.9-.2l6-10.8c2.9-4.9 5.5-5.8 9.6-1.7 3.2 3 5.6 7.2 9.6 9.3 1.6.6 3.5.4 5.2.5q3.4 0 7 .4c2.2.2 4.6.6 6.9.1 2.6-.5 4.7-2.3 7-3.6 5.6-3.4 9.8 1.5 13 5.8 2.5.4 5.2 0 7.8.1H158c1.5-1.5 3.5-2.5 5.2-3.7 2.1-1.4 4.4-3 7-3.5 2.7-.5 5.4.6 7.8 2q3 1.3 5.2 3.9" class="b"/><path d="M8.7 202h66.9l6-10.9c2.6-4.4 5.3-6.5 9.6-2.5 2.8 2.5 5 5.7 7.8 8 2 1.8 4.6 2 7 1.9q3.9 0 7.8.2c9.6 1 8.4-2 15.6-4 3-.6 5.9 1.4 7.9 3.5 1.1 1.1 2.1 2.8 3.4 3.7h17.4c1.5-1.2 3.5-2 5.2-2.8 2.4-1.3 5-2.5 7.8-2.7q3.7-.3 7 1.2 3 1 5.2 3.4" class="b"/><path d="M8.7 201h66.9c2.3-3.3 4-7.2 6-10.6 1.7-2.8 4.2-6.5 7.9-4.6 3.5 2 5.8 5.4 8.7 8a9 9 0 0 0 4.3 2.7c3.5.5 7 0 10.4.2 3 0 6 .4 8.7-.5 2.3-.8 4.5-2.3 7-2.8 5.3-1 9.1 3.9 12.1 7.5H159q2.5-1 5.2-1.8c3.6-1.2 7.4-2.2 11.3-1.8 2.9.3 5.9.9 7.8 3.3" class="b"/><path d="M8.7 200h66.9c1-1 1.9-2.9 2.6-4q1.7-3.2 3.5-6.2c1.6-2.7 4-6.8 7.8-5.4 3.6 1.5 5.9 5 8.7 7.5 1.2 1 2.7 2.3 4.3 2.7 3.4.7 7 .1 10.4.2q4 .2 7.9-.4c2.3-.5 4.5-1.7 7-2.2 5.5-1.3 9.8 3.6 13 7.5 1.3.4 2.9.2 4.3.2h14.8q2.5.2 5.2-.1c4.3-.8 8.6-1.8 13-1.7q1.3 0 2.6.4c.8.3 1.7 1.2 2.6 1.4" class="b"/><path d="M8.7 199h66.9c.7-.3 1.4-1.5 1.7-2.1l1.8-3c2.5-3.9 5.4-12.6 11.3-10.5 4.1 1.8 6.6 6 10.4 8.5 3.4 2 7.5.9 11.3.9 2.8-.2 5.8 0 8.7-.4 2.3-.4 4.5-1.4 7-1.7 4-.5 7.6 2.1 10.3 5 1.1 1 2 2.8 3.5 3.2h34.7q1.7-.4 3.5-.4c.4 0 1.3.2 1.7.4h1.8" class="b"/><path d="M8.7 198H73c1-.1 2.4 0 3.4-.3l5.3-9c1.6-2.6 3.5-6.2 7-6.8 4-.2 6.7 3.4 9.5 5.8 4 4.1 7.7 3.5 13 3.1 3.1-.2 6.4 0 9.5-.4 2.3-.4 4.6-1.1 7-1.1 5.5 0 9.6 4.5 13 8.3 1.6.6 3.5.2 5.2.3h37.4" class="b"/><path d="M8.7 197h67.8q3.5-5.9 6.9-11.6c3.5-5.3 7.2-6.3 12.2-2 6.2 5.6 7 6.3 15.6 5.4 2.8-.2 5.8 0 8.7-.3 2.3-.2 4.6-.8 7-.7 5.8.3 10.1 5 13.8 9q21.3.1 42.6.1" class="b"/><path d="M8.7 196h67.8c4.6-5.3 9-21.4 18.2-15 6.4 4.6 6.8 7 15.6 6 3.7-.4 7.6-.1 11.3-.5 9.2-1.6 13.1 4 19.1 9.4h42.6" class="b"/><path d="M8.7 194.9h67.8c4.8-5 9-20.8 18.2-15.7 6.6 4.3 6.7 6.8 15.6 5.9 3.5-.4 7-.2 10.4-.3 8.2-1.7 14.2 4.6 19.1 10q21.8.1 43.5.1" class="b"/><path d="M8.7 193.9h67.8c4.9-5.3 9.7-21.5 19-15.8 3.4 2 6.3 5.4 10.5 5.3q3.4 0 7-.3h6.9c5.5-.8 8.9.7 13 4.3q2.3 2 4.3 4.3c1 1 2 2.5 3.5 2.2h42.6" class="b"/><path d="M8.7 192.9h59.1c2.8-.1 5.8.2 8.6-.1q3.3-4.6 6.1-9.2c2.6-4 6.7-9.8 12.2-7.4 7 3.6 6.5 6.2 15.6 5.5q4.3-.2 8.7 0c1.7 0 3.5-.4 5.2-.2 4.3.8 7.6 4 10.4 7 1.5 1.3 2.7 3.4 4.4 4.4h44.3" class="b"/><path d="M8.7 191.9h66.9c5.2-4.5 10-19.5 18.2-17.6 7.5 2.7 6.4 6.3 16.5 5.8q6.6.2 13 0c6.8.8 10.4 7.4 14.8 11.8h45.2" class="b"/><path d="M8.7 190.9h66c.6-.2 1.4-1 1.8-1.5l2.6-3.6c2.7-3.9 5.1-8.2 8.6-11.4 6.1-5.4 10.2 1 15.7 3.2 3.3 1.2 7 1 10.4 1.2q3 .2 6 0 1.9-.2 3.5-.2c6.2.9 10.3 7.7 14 12.2 5.4.3 11 0 16.4.1h29.6" class="b"/><path d="M8.7 189.9H74c5.9-3.8 11.9-21 20-19.6 1.8.4 3.6 1.6 5.1 2.7 3.6 3 7.6 4.2 12.2 4.5q5.7.6 11.3-.3c4.6-.2 7.8 4 10.4 7.2 1.5 1.7 2.6 4 4.3 5.5h46" class="b"/><path d="M8.7 188.9H73c4.3-3.6 7-8.7 10.4-13 2.8-3.8 6.8-9.8 12.2-7.3 2.2 1 4 2.8 6 4.2a22 22 0 0 0 6.1 2.9q5.2 1.5 10.4 1c2.3-.1 4.7-1.3 7-.5 3.8 1.5 6.3 5.2 8.7 8.4l2.6 3.8c.7.6 1.8.5 2.6.5h44.3" class="b"/><path d="M8.7 187.9h59q1.9.1 3.5-.2c2.9-1.5 5-4.1 7-6.6l6-8.3c2-2.5 4-5.4 7-6.7 5.3-1.8 8.8 4.6 13 6.6 4.7 3 10.4 4.2 15.7 2.7 2-.6 4.1-1.2 6-.2 4.9 2.6 7.5 8 10.5 12.4q1.2.4 2.6.3h44.3" class="b"/><path d="M8.7 186.9h41.7q1 0 1.7-.7 1.7-.8 3.5-.8c2 .1 4 1.3 6 1.5q1.9 0 3.6-.4 2.2-.2 4.3-.7c6.9-1.9 10.3-10 14.8-15 2.3-2.8 4.6-7 8.6-7.3 4.1.2 6.6 4.2 9.6 6.5 5.7 4.6 11 7.2 18.2 4.2 7.4-3.7 12.4 7.3 15.7 12.2q1.1.7 2.6.5h44.3" class="b"/><path d="M8.7 185.9h40.8c4.6-4.6 6.5-3.6 12.2-2.2 1.4.2 3-.4 4.3-.3 6.3.6 9.6-3 13-7.7q3.9-5.2 7.9-10.2c6-7.8 9.6-3.3 14.7 2.2 3.4 3 6.8 6.6 11.3 7.4 7 1 9.8-6 15.7-1 2.5 2.2 4.3 5.2 6 8 .8 1.2 1.6 3 2.7 3.8h46" class="b"/><path d="M8.7 184.9h34.8c1.6 0 3.5.2 5.2-.2 3.5-4.7 6.3-6.3 12.1-4.5 1.7.5 3.6 0 5.2.3 5.1 1 8.2-.8 11.3-4.6l7.8-10.1c2.2-2.7 4.7-7.1 8.7-6.5 3 .9 5 3.9 7 6.1 2.9 3.1 5.8 6.6 9.5 8.7 3.1 1.7 6.8.7 9.6-1 1.6-1 3.3-2.1 5.2-2 5.7.7 9.3 9.4 12.1 13.8h46" class="b"/><path d="M8.7 183.9H47c.7-.2 1.4-1.1 1.8-1.7q1.6-2.2 3.4-4c2.6-2.2 5.6-2.2 8.7-1.3 1.4.5 3 .3 4.4.5 2 .4 4 1.1 6 .7 4-.8 6.4-4.6 8.7-7.5 1.9-2.7 4.3-5.1 6-7.8 8.5-12.2 11.9-1 18.3 5.6 13.3 16.8 16-4.2 25.2 3.3 2.5 2.3 4.4 5.4 6.1 8.3.7 1.2 1.6 3 2.6 3.9h45.2" class="b"/><path d="M8.7 182.9h37.4c1.4-1 2.3-3.2 3.4-4.5 2.6-3.5 6-6.2 10.5-4.9q2.5.6 5.2 1c5.5 2.2 8 2.2 12.1-2.5q2.3-2.7 4.4-5.5c1-1.3 2.5-2.8 3.4-4.2 2.3-2.8 5.3-8.5 9.6-6.1 2.2 1.4 3.7 3.9 5.2 6 1.3 1.9 3 3.9 4.3 5.7 2.2 2.7 4.4 6.1 7.8 7.3 5.7 1.4 8.7-6 14-6.4 4.7.2 7.2 5.5 9.5 9 1.1 1.6 1.9 4 3.5 5.1h44.3" class="b"/><path d="M8.7 181.9h36.5c3.7-4.8 7.3-13.4 14.7-11.5q2.6.6 5.3 1.3c5.2 2.7 7.8 3.4 12.1-1.3 1.5-1.7 3-3.8 4.4-5.5 1-1.3 2.5-2.7 3.4-4.1 2.4-3.2 6.2-9.5 10.5-5.3 2 2 3.6 4.9 5.2 7.3l3.4 5c2.3 3 4.6 7.3 8.7 8 4.1 0 6.6-4.2 9.6-6.4 5.9-5 10 1.3 13 6l2.6 4.4c.2.5 1.2 1.8 1.7 2h43.5" class="b"/><path d="M8.7 180.9h34.8c1.5-.8 2.4-3 3.4-4.3 2.2-3.1 4.4-6.7 7.8-8.7 2.2-1.1 4.8-.8 7 0q2.2.4 4.3 1.6c4.5 3 7.5 3.6 11.3-.7q2.3-2.6 4.4-5.3c1-1.2 2.5-2.6 3.4-4 3-4.2 6.6-10.1 11.3-4 1.6 2.2 3 4.8 4.4 7l4.3 6.7c2 2.9 4.5 7.6 8.7 7 3.7-1 5.8-5 8.7-7.3 8.8-8.8 13.6 6.6 18.2 12h42.6" class="b"/><path d="M8.7 179.9h29.5c1.4-.1 3.2.3 4.4-.5l6-8.2c2.6-3.6 6.4-8.1 11.3-6.6q2.8.6 5.3 2c3.7 2.7 7 5.8 11.2 1.8q2.9-2.9 5.3-6c1-1.2 2.5-2.6 3.4-4 2.1-2.5 4.7-8 8.7-6 4.2 3.2 5.7 8.8 8.7 13 2.6 3.7 5 10.2 9.6 11.6 4.5.5 7.3-6 10.4-8.6 9.7-11 13.9 6.1 20 11.5h40.8" class="b"/><path d="M8.7 178.9H40c1.7-1.2 2.8-3.4 4.3-4.9 3-3.4 5.2-7.6 8.7-10.5a7 7 0 0 1 7-1.5q2.8.8 5.2 2.3c4.9 4.2 7.8 7.3 13 1.3q3-3.6 6-6.8c1.8-2.1 3.3-4.7 5.3-6.4 4.6-3.8 7.7 3.8 9.5 7q2.5 4.8 5.2 9.4c2.6 4.2 6.7 13 12.2 6.8 2.2-2.3 3.9-5.3 6-7.6 11.1-14 14.3 6.4 22.7 10.9h38.2" class="b"/><path d="M8.7 177.9H34q2.2.1 4.3-.2c3.4-4.2 7.3-8 10.5-12.4 3.4-4.4 7.2-8.1 13-5 3.2 1.2 5.3 4 7.8 6 3.8 3.2 7 .6 9.6-2.5l2.6-3c1.1-1 2.5-2.3 3.4-3.6 2-2.5 4.9-8 8.7-5.4 3 2.5 4.4 6.5 6.1 9.8 1.8 3.7 4.1 7.4 6 11 1.2 1.9 2.4 4.3 4.4 5.3l4.4-.1c2.1-1.8 3.6-4.4 5.2-6.7q2.4-3.4 5.2-6.6c4.3-5 7.7-3.5 11.3 1.3 2.6 3.5 5 7.5 8.7 10.2 1 .7 2.2 1.6 3.4 1.9h34.8" class="b"/><path d="M8.7 176.9h23.5c1.7 0 3.2.3 4.3-1.2l9.6-10.2c3.2-3.6 6.5-9.5 12.1-8.5a17 17 0 0 1 8.7 5.5c5.1 6 8 6 13 0 1.5-2 3.8-3.5 5.2-5.5 3-4 6.3-9.2 10.5-3 2 3 3.5 6.8 5.2 10.1 1.2 2.7 3 5.4 4.3 8l2.6 4.3q1.2.7 2.6.5h3.5c.8 0 2 0 2.6-.5 1.2-1.6 2.4-3.7 3.5-5.4 1.2-2 3-4.1 4.3-6 1.4-2 3-4.1 5.2-5.2 4.8-1.7 7.9 4.6 10.4 7.6q2.8 3.4 6.1 6 2.8 2 6.1 2.8c1 .3 2.4.8 3.5.7h27.8" class="b"/><path d="m8.7 175.9 2.6-.1q.9-.3 1.8-.4 1.6.1 3.4.5h9.6c2-.1 4.1.2 6-.2 3.6-2.7 6.5-6.2 9.6-9.4l3.5-3.2q2.5-2.8 5.2-5.5c2.7-2.7 6-3.8 9.5-1.9q2.3 1.3 4.4 2.7 1.8 1.8 3.5 4c3.8 4.7 6.8 5.8 11.2.9q2.5-2.7 5.3-5c1.9-2.2 3.4-5.2 6-6.6 4.8-1.8 7.9 8.3 9.6 11.5 1 2.2 2.3 4.7 3.5 6.7 1 1.9 2 4.3 3.4 6h7c1-.1 2.5.2 3.4-.5q3.2-5.6 7-11c2.2-3.3 6-9.2 10.4-5.8 2 1.5 3.6 3.8 5.2 5.7q2.8 3.4 6.1 6c2.6 2 5.7 2.9 8.7 4q1.4.4 2.6 1.1.8.6 1.7.5h24.4" class="b"/><path d="M8.7 174.9c1 0 1.8-1 2.6-1.3 2.8-1.4 6-.3 8.7.9 1.6.7 3.5.3 5.2.4H27q1.3-.4 2.6-1.2 3.7-2.4 7-5.7 3-3.2 6-6 3.1-2.7 6-5.7c5.7-5.5 9.1-4 14.8.3 4.5 3.3 8.2 14.1 14.8 7.8l3.5-3.5c.7-.6 1.9-1.4 2.6-2.1 1.7-2 3.1-4.3 5.2-5.9 5.2-3.4 8.6 8 10.4 11.4a65 65 0 0 0 3.5 6.7c.7 1.2 1.3 3.2 2.6 3.9h11.3c1.5-1.4 2.3-4 3.4-5.6l3.5-5.4c2.3-3.3 5.5-10.1 10.4-7.5 2 1.2 3.7 3.3 5.2 5.1a42 42 0 0 0 6.1 5.9c2.8 2.2 6.3 3.3 9.6 4.7 1.5.7 2.8 2 4.3 2.8h23.5" class="b"/><path d="M8.7 173.8c5.3-5.7 8.6-2.6 14.8-1.6 2.9.2 5.6-1.4 7.8-3.1 3.4-2.7 6.4-6.1 9.5-9.1 2.2-2 4.8-3.9 7-5.9 3.5-3.2 7.1-4.5 11.3-1.5 2.4 1.8 5.2 3.5 7 6 2.8 3.9 6.7 11.1 12 6.3l3.6-3.2c.7-.6 1.9-1.3 2.6-2q2-2.6 4.3-5c5.4-4.8 8.5 5.2 10.4 8.8q2.4 5.3 5.2 10.2c1.7.4 3.6.1 5.2.2h8.7q2.8-5.4 6.1-10.5c2.2-3.3 5.4-10.9 10.4-9 2.1 1 3.7 3 5.2 4.6a51 51 0 0 0 7 6.5c2.9 2.2 6.4 3.4 9.5 5.1q1.5 1 2.6 2 .8 1 1.8 1.3h22.6" class="b"/><path d="M8.7 172.3q4-5.3 10.4-4c2 .4 4.1 1 6.1.7 3.8-.9 6.8-3.8 9.6-6.5q3.3-3.4 7-6.9 2.9-2.3 6-4.6c4.6-3.4 8.2-2.3 12.2 1.3q2 2 4.3 3.8c1.2 1.3 2.4 3.2 3.5 4.7 2.9 4.2 6.2 8.7 11.3 4.1l2.6-2.2c.7-.5 1.9-1.1 2.6-1.8 1.7-1.7 3.2-4 5.2-5.4 6.5-4 10.1 14 13.9 17.4H118c1.2-1 1.9-3 2.7-4.2l3.4-5.8c2.2-3.4 5.4-11.4 10.4-10.3 2.1.7 3.8 2.6 5.3 4q3 3 6 5.8c3.1 2.7 7 4.5 10.5 6.7 1.6 1 2.8 2.6 4.3 3.8h22.6" class="b"/><path d="M8.7 171c4.1-5.5 7.5-6 14-5.2 2.8.3 5.6-1.1 7.7-3 4-3.3 7.3-7.6 11.3-11q2.5-1.9 5.2-3.5c5.4-3.6 9.2-1 13 3.2l4.4 4.1q2 2.3 3.5 5c2.6 4 6 9.4 11.3 5.2l2.6-2c.7-.4 1.9-.9 2.6-1.5q2-2.3 4.3-4.4c6.3-5.2 10.4 10.2 13 14H119q2.6-4.7 5.2-9.3c2.3-3.7 5-10.9 9.6-11.8 2.4-.2 4.4 1.8 6 3.4l6.1 5.7c3.2 3 7 5.4 10.5 8 1.5 1 2.8 2.8 4.3 4h22.6" class="b"/><path d="M8.7 169.9c4.2-6 7.6-7.4 14.8-7.3 2.6 0 5-1.6 7-3.3 5.2-4.6 9-11.1 15.6-14 5.6-3.2 9.3 0 13 4.3 1.8 2.3 4.2 4.4 6 6.7 3 3.6 6.4 13.1 12.2 11.2 1.5-.5 3-1.6 4.4-2.4 1.1-.6 2.5-1.1 3.4-2 1.8-1.6 3.6-4 6.1-4 4.3.5 6.8 8 8.7 11.3q1.2.7 2.6.5H119c1.3-.6 1.8-2.7 2.6-3.8 2.6-4 4.5-8.7 7-12.8 5.6-9.5 9.7-4.3 15.6 1.4q3.3 3.6 7 6.8 3.4 3 6.9 6.1c.8.7 1.5 2.1 2.6 2.3h22.6" class="b"/><path d="M8.7 169c2.5-3.8 5.9-7.6 10.4-8.8q3-.6 6.1-1c4.9-1.8 7.9-6.5 11.3-10 2.5-2.8 5.1-5.8 8.7-7 2.9-1.4 6.1-1.5 8.7.6 2.7 2.2 4.8 5.3 7 8 1.5 2.2 3.8 4 5.1 6.4 2.6 3.7 4.4 8.7 8.7 10.7 2.1.8 4.3-.4 6.1-1.3l2.6-1Q85 165 86 164c3.8-3.4 6.5-3.7 9.6.7 1.2 1.5 2 4 3.4 5.2H120c5-6.5 6.7-15 12.1-21.1 2.6-2.6 5.4-1.8 7.9.3q4.3 3.6 7.8 8 5.9 6.5 12.1 12.8h23.5" class="b"/><path d="M8.7 168.2c2.8-4.4 6.3-8.8 11.3-10.8 2-.9 4.1-1 6-1.7 2.5-1.2 4.4-3.4 6.2-5.3 3.7-4 6.8-9.3 12.1-11.3 2.5-.9 5.5-1.2 7.8.4 3.8 2.6 6.1 6.9 8.7 10.5 2 2.8 4.6 5.3 6.1 8.3 2.3 3.6 4.3 8.6 8.7 10 2 .6 4.1-.5 6-1.1 5-.2 7.6-6.2 12.2-2 3.5 3.4 1.3 3.9 7 3.7h20c4-6.4 6.1-14 10.4-20.2 1.3-1.9 3.5-4 6-3.3 5 1.9 8.1 6.8 11.4 10.8q5 6.3 10.4 12.4c1 .4 2.3.2 3.4.3h20.9" class="b"/><path d="M8.7 167.6c3.2-5 6.8-10.4 12.2-13.2 1.6-1 3.5-1.1 5.2-1.8 3.2-1.8 5.5-5 7.8-7.8 2.5-3 5-6.5 8.7-8.3 6.6-2.5 10.3.7 13.9 6 1.8 2.5 3.4 5.5 5.2 8q3.5 4.1 6 9c1.9 2.7 3.8 7 7 8.4h9.6c2.3-.7 4.5-2.4 7-1.8 1.2.2 2.2 1.5 3.4 1.8h23.4q1.8.2 3.5-.3c4.3-6.5 6.9-19 13-23.5 6-2.9 11.8 7.7 14.8 11.6l6 8.3c1.2 1.2 2.2 3 3.6 3.9h24.3" class="b"/><path d="M8.7 166.9c3.6-5.7 7.2-11.9 13-15.5 1.6-1 3.7-1.1 5.3-2.3 3-2.3 5.3-5.7 7.8-8.7 3.2-4 6.5-8 12.1-7.2 6.3.9 9.2 7.6 12.2 12.3 1.7 3.2 4 6.2 6 9.1l4.4 7.4q1.2 2 2.6 3.7l.9.9c.4.2 1.3.3 1.7.3h46.9l.9-.5c3.5-5.8 7.6-22.4 13.9-24.3 6-.6 10 8.1 13 12.3q4 6.6 8.7 12.5h25.2" class="b"/><path d="M8.7 165.9c1.4-1.4 2.4-3.6 3.5-5.2 2.7-4.2 5.5-8.6 9.5-11.7a10 10 0 0 1 3.5-1.6c2.1-.9 3.8-2.8 5.2-4.5 3.3-3.9 6-8.6 10.4-11.3 1.9-1 4.1-.8 6.1-.5 5.7 1.4 8.5 7.3 11.3 12q2 3.7 4.3 7.3 2 2.5 3.5 5.2 2 3.7 4.4 7.4c.6.9 1.5 2.3 2.6 2.9h49.5c1.2-1.1 1.9-3.5 2.6-5 1.4-3.4 2.8-7.3 4.3-10.6 2-4.2 5.5-12.3 11.3-8.4 4.4 3 6.7 8.5 9.6 12.9q2 3.4 4.3 6.9c1 1.3 2 3.4 3.5 4.2h25.2" class="b"/><path d="M8.7 164.9c.7-.3 1.4-1.4 1.8-2q1.2-2.3 2.6-4.4c2.5-4 5-8.4 8.7-11.7q1.5-1.3 3.4-1.8c2.2-1 3.8-3 5.2-4.7 3.4-4 6.2-9.4 11.3-11.3 1.7-.5 3.6 0 5.2.5 4.5 1.4 7.3 5.7 9.6 9.5q3.9 7.5 8.7 14.7c2.2 3.7 4.1 7.8 7 11 17 .3 34 0 51.2.2 3-6 4.7-12.6 7.8-18.4 2.5-5 6-9.3 11.3-4.5 6 6.9 9.1 15.8 14.7 22.9h26" class="b"/><path d="m8.7 163.9.9-.2c3.9-6.3 7-13.3 12.1-18.8q1.2-1.2 2.7-1.8l1.7-.7c2-1.4 3.7-3.7 5.2-5.6 3.1-3.7 7.3-11.2 13-9.3 3.4.8 6.6 2.6 8.7 5.4 4.6 5.7 7.1 12.9 11.3 18.8 2.6 4 4.4 8.8 7.8 12.2h49.5q1.5.1 2.6-.5c2.3-5.6 4.3-11.6 7-17 3.8-8 8.5-9.9 13.9-1.9q4 6.7 7.8 13.3c1.3 2 2.5 4.7 4.3 6h26.1" class="b"/><path d="M8.7 162.9h.9c4.5-6.7 7.4-14.7 13-20.6 1-.9 2.4-1.2 3.5-1.9 1.6-1.1 3-3 4.3-4.5 3-3.6 6.2-9.4 11.3-10 1.8 0 3.5 1.2 5.2 1.8 6.7 2.8 9.8 10 13 16 2.4 4.5 5.4 9 7.9 13.5.7 1.2 1.7 2.9 2.6 4 .3.5 1.1 1.5 1.7 1.7h52.1c3.4-5 7.6-26.1 15.7-23.4 4.3 1.6 6.3 6.7 8.6 10.4q3.7 6.6 7.9 12.7c1.6.5 3.5.2 5.2.3H178c1.7-.2 3.6.2 5.2-.3" class="b"/><path d="M8.7 161.9h.9c1.5-1.4 2.4-3.8 3.5-5.5 2.7-4.9 5.1-10.2 8.6-14.6q1.1-1.3 2.6-2.2c.5-.1 1.4-.5 1.8-.8 2-1.5 3.6-3.7 5.2-5.7 2.7-3.2 5.6-8 10.4-7.9 2.2.4 4 1.9 6 2.7 6.7 3.2 9.7 10.6 13.1 16.7l4.4 7.5q2.6 5 6 9.5c1 .4 2.4.2 3.5.2h46.9q1.8.2 3.5-.2c2.2-5.5 4.1-11.3 7-16.5 3-6 7.4-8 12-2s7.5 13 12.3 18.8h26l.9-.8" class="b"/><path d="M8.7 160.9h.9c.7-.3 1.4-1.4 1.7-2l2.6-4.7c2.5-4.5 4.7-9.4 7.9-13.6q1-1.4 2.6-2.3 1.4-.4 2.6-1.5c2.2-2 4-4.8 6-7 2.3-2.8 5.8-6.2 9.6-4.6q3 1.9 6 3.3c6 3.2 9.1 9.7 12.2 15.4 3.3 5.7 6.3 11.8 10.5 16.8 17.9.3 35.9 0 53.8.1 3.9-5.7 8-28.1 18.2-18.4 3.5 3.9 5.9 8.6 8.7 12.8 1.4 1.9 2.6 4.3 4.4 5.6h23.4c1.5 0 2.5.2 3.5-1.2" class="b"/><path d="m8.7 159.9 1.8-.3c3.1-5 5.7-10.6 8.6-15.8 1.4-2.3 2.8-5.1 5.2-6.5q1.6-.6 2.7-1.5c4-3.5 6.6-9.7 12.1-11 3.4-.4 5.7 3 8.7 4 5.8 2.1 9.3 7.7 12.2 12.9 3.5 6.1 6.5 12.9 11.2 18.2H119q3.5 0 7-.2c3.3-7.7 8.9-27.4 19-14.5q3.6 4.8 7 9.8l2.6 3.4c.4.5 1.2 1.3 1.8 1.5h25.2q1-.6 1.7-1.5" class="b"/><path d="M8.7 158.9h1.8q4.2-7 7.8-14c1.4-2.7 3-5.7 5.2-7.8q1.2-.7 2.6-1.4c5.5-4.2 10.5-15.7 18.2-8 2.6 2 6.2 2.5 8.7 4.6 5.3 4.3 8 11 11.3 16.8 2 3.3 4 7.2 7 9.8H126c1.6-2 2.3-5 3.5-7.2 2-3.7 4.4-10 9.5-9.5 4 .6 6.3 4.2 8.7 7.1q3.6 5 7.8 9.3c1 .4 2.4.2 3.5.3h22.6l1.7-1.7" class="b"/><path d="M8.7 157.8h1.8c3.8-5 6.3-11 9.5-16.5 1.2-1.8 2.4-4 4.3-5.2q1.6-.6 2.6-1.6c3.7-3 6.9-9.2 12.2-8.9 3.5.5 5.3 4.3 8.7 5.2q3.8.9 7 3.3c5.5 5.2 8 12.7 12.1 18.9 1.2 1.7 2.5 3.9 4.3 4.8H127c3.3-7.3 7.7-20.2 17.3-11.4 3.8 3.7 7.1 8 11.3 11.3 3.1.3 6.4 0 9.5.1h16.5c.5-.3 1.4-1.2 1.8-1.7" class="b"/><path d="M8.7 156.8h1.8c2.2-2 3.6-5.2 5.2-7.8 2.4-4.2 4.3-9 7.8-12.6l1.7-1q1.5-.7 2.6-1.9c4.2-4 8.8-10.6 14.8-5 2.7 2.8 3.9 3.6 7.8 4.2 8.6 1.7 11.4 12 15.6 18.5q1.6 2.5 3.5 4.6.7.8 1.7 1h55.6c.7-.3 1.5-1.8 1.8-2.5l1.7-3.3c3.8-6.5 7.6-8.2 14-3.3q4 3.8 8.6 7.3c1.3.9 2.7 2.1 4.3 1.8h24.4l1.7-1.7" class="b"/><path d="M8.7 155.8h1.8c1.9-1.2 3-3.9 4.3-5.7 2.9-4.5 4.9-9.8 8.7-13.7l1.7-1q1.5-.7 2.6-1.8c2.8-2.5 5.5-6.3 9.6-6.4 2.4 0 4.4 1.8 6 3.5a8 8 0 0 0 3.5 2.6c2 .6 4.1.4 6.1 1 9 3 10.1 16.3 17.4 21.5h57.3c4.6-7.7 7.1-13 16.5-6.8q4.1 3.1 8.7 5.5l2.6 1.1q1.3.3 2.6.2h23.5l1.7-1.7" class="b"/><path d="M8.7 154.8q1.4.2 2.6-.4 1.4-1.6 2.6-3.4c3.4-4.7 5.5-10.3 9.6-14.4 1-.8 2.5-1.2 3.5-2q2.5-2.4 5.2-4.6c3.7-3 7.2-2 10.4 1.2 1.2 1.3 2.5 3 4.3 3.5 2.3.5 4.7-.1 7 .5 8.2 3 9.3 14.3 15.6 19.7h55.6q1.7 0 3.5-.3c5-8.7 8-8.6 16.5-3.8q5.7 3.3 12.1 4h24.3c.6-.3 1.4-1.2 1.8-1.7" class="b"/><path d="M8.7 153.8q1.4.1 2.6-.2c3-3.3 5.4-7.4 7.8-11.1q1.8-3.2 4.4-5.6 1.2-.8 2.6-1.4c3.5-2.3 6.6-7 11.3-6.3 2.4.5 4.4 2.5 6 4.2 1.3 1.7 3.2 2.9 5.3 2.7s4.1-.7 6 0c7.4 3 8.4 12.6 14 17.7h59.9c1.4-.8 2.2-2.7 3.4-3.7a6 6 0 0 1 7-1l7 3a24 24 0 0 0 9.5 1.3q1.8 0 3.5.4h22.5c.6-.3 1.4-1.2 1.8-1.7" class="b"/><path d="M8.7 152.8h1.8c5.2-3.8 7.7-10.3 12.1-15 1.1-1.2 3-1.6 4.3-2.6 2.5-1.7 4.8-4 7.9-4.8 3-.6 5.8 1.6 7.8 3.7 1.2 1.2 2.4 3 4.3 3.3 2.3.3 4.7-.9 7-.7 7.6 1.1 9 11.5 13.9 16.1h61.6c5.8-6.3 8.3-2.6 14.8-.5 2.7 1 5.8.4 8.7.5q2.6-.5 5.2-.5c1.1 0 2.3.7 3.5.5h17.3c2 0 3.2.5 4.4-1.5" class="b"/><path d="M8.7 151.8c4.2 0 10.5-11.1 14-14 1-1 2.9-1.3 4.3-2.2q2.4-1.7 5.2-3.2c3.5-1.8 7-.1 9.5 2.5 1.4 1.2 2.6 3.2 4.3 3.9 2.7.8 5.2-1 7.9-1.1 7.1 0 8.9 10 13 14.1h63.4c3.1-2.8 6.2-1.9 9.5-.1 1.7.3 3.6 0 5.3.1h9.5q1.7-.4 3.5-.7c1.1-.1 2.4.4 3.5.7h20.8l.9-1" class="b"/><path d="M8.7 150.6q5-3.1 8.7-7.4c2.1-2.2 4-5.1 7-6.3 3-.7 5.6-3 8.6-3.7 3.8-1 7.2 1.7 9.6 4.3 1.2 1.2 2.4 3 4.3 3.1 2.7 0 5.1-1.9 7.9-1.9 3.7.2 6 3.8 7.8 6.7 1 1.7 1.9 4.2 3.4 5.4h58.2c2.9 0 6 .4 8.7-.3 1.4-.2 3 .5 4.3.3h17.4c1.8.1 3.5-1.1 5.2-.8 1.1.3 2.3 1 3.5.8h19.1l.9-.5" class="b"/><path d="M8.7 148.4q4.9-2.5 8.7-6.3c2.3-2 4.6-5 7.8-5.4 3-.6 5.7-2.4 8.7-2.4 3.5 0 6.4 2.4 8.7 4.8 1.2 1.2 2.4 3 4.3 3 2.5 0 4.6-1.8 7-2.2 4-1 6.9 3 8.7 6 .7 1.1 1.4 3 2.6 4h87.7c1.7 0 3.6.1 5.2-.7q1.3-.4 2.6 0c.8.1 1.8.7 2.6.6h20" class="b"/><path d="M8.7 146.1q3.7-1.6 7-4c2.2-1.6 4.4-3.6 7-4.9 1.5-.7 3.5-.5 5.1-1 2.5-.6 5.3-1.1 7.8-.3 2.7.8 5 2.7 7 4.7 1.3 1.4 3 3.4 5.2 2.8 2.4-.6 4.5-2.3 7-2.7 3-.5 5.4 2 6.9 4.3.8 1.1 1.6 3 2.6 3.8h89.5c1.4 0 3 .3 4.3-.3q1.7-.7 3.5-.2 1.6.6 3.5.5h18.2" class="b"/><path d="M8.7 144a53 53 0 0 0 7-3.5q3-2 6-3.5c2.2-1 4.7-.3 7-.6a15 15 0 0 1 12.2 3.9c2.5 1.9 4 5.6 7.8 4 2.2-1 4.4-2.7 7-2.8 3.7 0 5.5 3.9 7.7 6.3h91.2c1.4 0 3 .3 4.4-.3 1-.4 2.4-.4 3.4 0a6 6 0 0 0 2.6.3h18.3" class="b"/><path d="M8.7 142q3.5-1.4 7-3.2 3-1.6 6-2.6c2.3-.6 4.7.4 7 .4q8 .4 13.9 6.2c1.8 1.8 3.3 3.5 6 2.2 3.4-1.5 7-4.5 10.5-1.7 1.3 1 2.2 2.6 3.5 3.5h92.9c1.4 0 3 .3 4.3-.2 1.8-.7 3.5.3 5.2.2h18.3" class="b"/><path d="m8.7 140 7-2.9c2.2-.9 4.5-1.9 7-1.9 2 .1 4 1.2 6 1.5q7.3 1.4 13 6c1.2.8 2.3 2.2 3.5 3 2.9.9 5.3-1.3 7.8-2.3a6 6 0 0 1 5.2-.1c4 2.6 1.5 2.6 7 2.5h91.2c1.4 0 3 .2 4.3-.2 1.4-.5 3 .1 4.4.2h18.2" class="b"/><path d="M8.7 138.4c4.2-1.7 8.4-4.2 13-4.2 2.2 0 4.1 1.4 6.1 2.1 3.8 1.5 7.8 2.8 11.3 4.9l3.5 2.4c.3.4 1.2 1 1.7 1.2h6.1c3.6-1.7 6.1-2.8 9.6 0h123.3" class="b"/><path d="M8.7 137c4.5-2.1 9.7-5.5 14.8-3.5 2.5 1.4 5 3.1 7.8 4.3q3.9 1.7 7.8 3.5 1.4.6 2.6 1.6t2.6 1h7.9q1.6-.5 3.4-.7 1.4 0 2.6.6h125.1" class="b"/><path d="M8.7 135.8c4.2-2.2 9-5.7 14-3.7 2 1 4 2.8 6 4 4.3 3 9.4 4.2 13.9 6.7h119q1.2-.3 2.6-.4 1.3.1 2.6.4h16.5" class="b"/><path d="M8.7 135c4-2.6 9-6.7 14-4.1 1.8 1 3.4 2.8 5.1 4.1q4.3 3.5 9.6 5c1.7.4 3.5 1.4 5.2 1.8h77.3c1.1-.1 2.3-.8 3.4-.9q1.8.2 3.5 1h34.8c1-.2 2.3-.8 3.4-.6q1.4.2 2.6.5h15.7" class="b"/><path d="M8.7 134.3c4-2.8 8.9-7.9 14-4.7 1.8 1.3 3.4 3.3 5.1 4.8 5.4 5 8.7 4.1 14.8 6.4h71.2q1.3 0 2.6-.4 1.7-.2 3.5-.3l2.6-.6q1.3-.1 2.6.4l1.7 1H153q4.8 0 9.5-.2 1.2-.6 2.7-.7c1.4-.1 2.8 1 4.3.8h13.9" class="b"/><path d="M8.7 133.9c4.2-3.3 9.4-9.8 14.8-4.8 2.5 2.5 4.7 5.5 7.8 7.3 2.6 1.7 5.7 2 8.7 2.3q1.8.4 3.4 1.1H113c2-1.5 4.6-1.5 7-1.3l2.6-.3c1.6-.1 3 .8 4.3 1.6h34.8c1.1-.1 2.2-1.1 3.4-1.2 1.5-.2 3.1.5 4.4 1.2h13.9" class="b"/><path d="M8.7 133.7c4-3.5 9.3-11.3 14.8-5.8 2.7 2.9 5 6.5 8.7 8.3 3.2 1.8 7 .5 10.4 1.7l1.7 1h65.2q1.3.1 2.6-.4 1.5-1.3 3.4-1.7c1.7-.3 3.6.3 5.3.3h2.6c1.1.3 2.3 1.2 3.4 1.7H159c1.4 0 3.1.2 4.3-1 2.2-1.3 5-.6 7 1h13" class="b"/><path d="M8.7 133.7c3.9-3.6 9-12.9 14.8-6.9 2.8 3.2 5.2 7.5 9.5 9 3.1 1 6.5-.5 9.6.4 1.1.4 2.1 1.7 3.4 1.6h61.7c1 0 2.4.2 3.5-.3 1.4-1.7 3.8-2.8 6-2.2l3.5.8q1.4 0 2.6.2 1.5.4 2.6 1.3 1.4.3 2.6.2h33c2.4-2.1 5-3.1 7.9-1.4.8.5 1.6 1.4 2.6 1.4h11.3" class="b"/><path d="M8.7 133.8c3.8-3.7 8.9-14.3 14.8-8 2.2 2.6 4 5.8 7 7.8 3.9 2.9 7 .7 11.2.7 1.3.1 2.4 1 3.5 1.7 2.3 1.3 5.2.7 7.8.8h57.3c3-3.8 5.4-3.6 9.6-1.9q1.2.4 2.6.4 1.8.4 3.4 1.5h31.4c1.3 0 3 .3 4.3-.3a8 8 0 0 1 4.3-2.7q2.4-.1 4.3 1.4c.8.5 1.7 1.5 2.6 1.6h10.5" class="b"/><path d="M8.7 133.9c3.7-3.6 8.8-15.4 14.8-9 2.4 3 4.3 6.7 7.8 8.5 3.5 2 6.9-.5 10.4-.6 1.3 0 2.4 1 3.5 1.6 2.4 1.3 5.1 1.5 7.8 1.4h56.5c2.2-1.9 3.5-4.2 6.9-3.2 2 .6 4 2 6 2q1.6.3 2.7 1c2.5.4 5.2.1 7.8.2h27.8c2.6-3.2 5.7-5.3 9.6-2.5 1.1.7 2.1 2 3.4 2.5h9.6" class="b"/><path d="M8.7 134c3.6-3.5 8.8-16.2 14.8-9.7 2.1 2.7 4 6 7 8 2.6 1.8 5.8.8 8.6-.2 1.4-.5 3-.8 4.3-.1q4.4 3 9.6 2.8h49.5c2.2-.1 4.8.3 7-.2 1.9-2.9 4.5-4.6 7.8-2.7 1.3.7 2.8 1.7 4.3 2 1.2 0 2.4.6 3.5.9h7c4 0 8.1.3 12-.3q3.1.4 6.2.3h9.5c3-3.3 5.8-6.7 10.4-3.5 1.6 1 2.8 2.7 4.4 3.5h8.7" class="b"/><path d="M8.7 133.8c3.8-2.6 8-15.2 14-11 2.7 2.8 4.3 6.8 7.7 8.9 2.7 1.8 6 .7 8.7-.4q2.2-1 4.3-.2c2.6 1.8 5.6 3 8.7 2.7h56.5c2-2.6 4.2-5.3 7.8-3.4 1.4.7 2.9 1.9 4.3 2.5q1.8.4 3.5.9h17.4a8 8 0 0 1 2.6-.6c1.1 0 2.3.7 3.5.6H159c1.6-1.2 2.7-3.2 4.3-4.4 4.7-3.8 8.7 1.6 12.2 4.4h7.8" class="b"/><path d="M8.7 132.8c1.8.4 2.6-2 3.5-3q1.6-2.7 3.5-5c6.5-8 8.5.9 13 5 6.2 5.7 9.6-1 14.7.9 2.4 1.7 4 2.3 7 2.1h57.3c.6-.3 1.4-1.3 1.8-2 .8-1 2-2.2 3.4-2.5 2.7-.5 4.9 1.9 7 3.2q1.6 1 3.4 1.3h18.3q1.2-.6 2.6-.7c1.1 0 2.4.6 3.5.7h9.5c1 .2 2-.6 2.6-1.3l2.6-3c6-5.9 10 1.1 14.8 4.3h6" class="b"/><path d="M8.7 131.8c.9 0 2 .1 2.6-.5l2.6-4.1c4.4-6.6 7.5-8.7 12.2-1 2.4 3.5 6 6.6 10.4 5.2 2-.5 4-1.6 6-1.1 1 .2 2 1 2.7 1.4q1.7.1 3.5.1h51.2c2.6-.1 5.3.3 7.8-.2 6.2-10.7 9-1.6 14.8 0 1.3.4 3 .1 4.3.2h14.8q1.7-.7 3.5-.5c2.5.7 5.2.5 7.8.5h3.5q1.5.2 2.6-1c4.9-5.5 7.9-9.4 14.7-3.3 3.9 3.2 4.4 4.3 9.6 3" class="b"/><path d="M8.7 130.8h2.6c1.5-1.1 2.4-3.4 3.5-4.9 1.7-2.4 4.5-6.5 7.8-4.4 2.4 2 3.7 5.2 6 7.2 2.3 2.1 3.2 2.2 6.2 2.1h3.4q1.4-.4 2.6-.5 1.5-.2 2.7.4 2.5.1 5.2.1h58.2c1.9-2.9 4.5-8.2 8.6-5.5 2 1.2 3.5 3 5.3 4.4a7 7 0 0 0 4.3 1.1h17.4c.4-.2 1.3-.4 1.7-.4 4.3.7 8.7.3 13 .4 4.3-2.6 7-10 13-7.9 3.3 1.2 5.5 4.3 8.8 5.4 1.3.3 3 0 4.3 0" class="b"/><path d="M8.7 129.8h3.5c2.6-3.1 6.2-12.4 11.3-8 1.8 2 3.2 4.5 5.2 6.4.7.6 1.6 1.6 2.6 1.6H106c.6-.4 1.4-1.7 1.7-2.4.7-1.2 1.7-2.7 2.6-3.6 4-3.8 7.6 2 10.4 4.3q1.4.9 2.7 1.6 3.3.1 7 .1h25.1c4.2.5 7.2-8.7 13-9.1 4.1-.2 6.8 3.6 10.4 5 1.4.2 3 0 4.4.4" class="b"/><path d="M8.7 128.8c1.4-.1 3 .3 4.4-.4 2-3.2 5.8-11 10.4-7 1.8 1.9 3.2 4.4 5.2 6.2 1 1.2 2 1.3 3.5 1.2H106c1.8-4 5.3-12 10.4-6.9q2.2 2.3 4.3 4.5l3.5 2.4h30.4c2 .2 2.9-.5 4.3-1.8 3-2.8 5.4-7 9.6-8.1 3.6-.8 6.5 2.2 9.5 3.7 1.7.8 3.6.6 5.3 1.4" class="b"/><path d="M8.7 127.8h4.4c2.3-3 5.7-10.6 10.4-7 2 2.3 3.7 5 6 7h75.6c1.4-1.8 2.2-4.5 3.5-6.4 3.7-6 7-3.3 10.4 1q1.5 2 3.5 3.4c.7.7 1.6 1.7 2.6 2h31.2c5.5-3 9.3-13.2 16.5-10.5 1.8.7 3.5 2 5.2 2.8s3.7.9 5.3 2" class="b"/><path d="M8.7 126.8h4.4c2.5-2.6 5-8.9 9.5-7 2.5 1.7 4 4.6 6 6.5.8.6 1.8.5 2.7.5h71.2c.8 0 2 .1 2.6-.5 1.7-3.6 5-14.2 10.4-10 2.4 1.9 4 4.7 6.1 6.8l2.6 2.5c.4.4 1.1 1.1 1.8 1.2h27.8q1.2 0 2.6-.3l1.7-1.2c2.2-1.8 4.2-4.2 6-6.3 4.5-4.9 7.6-5.3 13.1-1.7 2 1.2 4.4 1.5 6.1 3" class="b"/><path d="M8.7 125.8h4.4c2.5-2.6 5-8.3 9.5-6.4 2.4 1.5 4 4.3 6 6.3 9 .3 18 0 27 0h48.6c2.4-4 5.8-17.8 12.2-11.4 1.6 1.6 3 3.7 4.3 5.5l5.3 5.7c1 .5 2.3.2 3.4.3h26.1l1.7-1.1c3.4-2.4 5.9-5.9 8.7-8.8 3.8-3.8 7-3.5 11.3-.7q1.6 1 3.5 1.7 1.4.8 2.6 2" class="b"/><path d="M8.7 124.8h4.4c2.3-3 6.1-8.6 10.4-5.4 1.8 1.6 3.3 3.9 5.2 5.4h74.7c.7-.4 1.4-2.3 1.7-3.1 1-2.5 2.2-5.4 3.5-7.7 4.3-7.7 7.7-3.4 11.3 2q3.3 4.4 7 8.5c1 .5 2.3.3 3.4.3h24.3q1.5-.6 2.6-1.5c3.4-2.4 6-5.7 8.7-8.7 3.2-3.4 6.4-4.4 10.4-1.7q2.1 1.4 4.4 2.4 1.5 1 2.6 2.3" class="b"/><path d="M8.7 123.8h3.5c1.6-1.1 2.8-3 4.3-4.3 4.6-3.7 7.3-.6 10.4 3 1 1.3 1.9 1.4 3.5 1.3h73c2-4.4 4.8-15.4 9.5-17 3.4-.1 5.2 4 7 6.3q3.7 5.2 7.8 10.3c1.3.7 3 .3 4.3.4h7.8c1.4 0 3-.7 4.4-.4 2.5.6 5.2.3 7.8.4h1.7l1.8-.8q2.3-1.5 4.3-3.3c4.7-3.4 8.6-13.2 15.7-8.9l3.4 2.3a12 12 0 0 1 4.4 3.6" class="b"/><path d="M8.7 122.8h2.6c2-1.5 3.7-3.9 6.1-5 4.5-2.4 7.6 2 10.4 4.8 1 .3 2.4.1 3.5.2h71.2c3-3.6 6.9-24.5 14-17.5 2.8 3.4 5 7.6 7.7 11.2 1.6 2.1 3 4.8 5.2 6.3h9.6q1.3-.4 2.6-1c2.6-.5 5.2 1 7.8 1 5 .5 8.7-3.1 12.2-6 2.6-2.5 4.6-6 7.8-7.8 3-1.7 6.3.5 8.7 2.4q1.2 1 2.6 1.7 1.5 1.4 2.6 3" class="b"/><path d="M8.7 121.8c1 .2 2-.6 2.6-1.2l2.6-2.2c6-4.6 9.5-1.1 14 3.4H99c1.2 0 2.6.2 3.5-.5 2.9-6.3 4.4-13.6 8.7-19.1 3.6-4 7 2 8.7 4.9l4.3 6.8c1.7 2.7 3.5 5.7 6.1 7.6 1.3.5 3 .2 4.3.3s2.5.2 3.5-.4c8.2-4.9 9.9 4.8 20.9-4.1a21 21 0 0 0 4.3-3.8c2.4-2.6 4.8-6.4 8.7-6.3 2.4.2 4.3 2 6 3.4l2.7 2c.9.7 1.9 2 2.6 3" class="b"/><path d="M8.7 119.6c3.8-2.6 8.4-6.2 13-3.6 2.3 1.1 4.1 3.2 6.1 4.8h73.8c2.8-5.4 4.4-11.6 7-17 3.2-6.9 6.2-8.2 10.4-1.2q3.4 5.8 7 11.5c2.5 4 6 8.4 11.2 5.6 1.7-.8 3.4-1.9 5.3-1.8 1.7 0 3.5.8 5.2 1.2 3.8 1 7.4-.7 10.4-3 1.8-1.2 3.8-2.5 5.2-4.2 2.2-2.2 4.4-5.5 7.8-5.8 2.8 0 5 2.3 7 4q1.2 1.1 2.6 2.1c.9.9 1.9 2.3 2.6 3.3" class="b"/><path d="M8.7 116.2c5-2.7 9-4 14-.4 1.7 1.1 3.3 2.9 5.1 4h73c1.7-1.9 2.4-5 3.4-7.3q2-5.7 4.4-11.3c3-6.6 6-9 10.4-1.5l6 10.5c2.4 3.9 6 10 11.4 7.5 1.7-.6 3.3-1.8 5.2-2 1.7-.1 3.5.6 5.2 1 3.8 1.4 7.3.3 10.4-2 1.7-1.1 3.7-2.1 5.2-3.6 2.2-2 4.1-4.7 7-5.7 3.5-1.1 6.3 2.2 8.6 4.5l2.7 2.3 2.6 3.4" class="b"/><path d="M8.7 112.8c4.9-2 8.8-1.6 13 1.5 2.1 1.4 4 3.3 6.1 4.5h73c2.1-5 4.2-10.5 6-15.6 2-4.8 5.8-16.4 11.3-7.7q3.7 6 7 12.2c2.2 3.7 5.3 9.5 10.4 8 1.8-.6 3.4-1.8 5.2-2.3s3.6.3 5.2.9q5.5 2.1 10.5-1c1.9-1.4 4.2-2.5 6-4 2.2-1.8 4.1-4.3 7-5 3.8-.6 6.3 3.2 8.7 5.6 1.8 1.7 3.9 3.6 5.2 6" class="b"/><path d="M8.7 109.4c5.5-1.5 9.9 1.3 14 4.7 1.6 1.2 3.3 2.9 5.1 3.7H100c.7-.5 1.5-2.5 1.7-3.3 2-4.3 3.6-9.1 5.3-13.5 1.8-4.7 5.7-16.8 11.2-8q3.7 6 7 12.4c2.2 3.6 5.3 9.5 10.4 7.7 1.8-.6 3.4-1.7 5.2-2.2 5.5-.6 8 4.2 14.8.6l3.5-2q1.7-1 3.4-2.1c1.9-1.5 3.7-3.5 6.1-4 3.9-.8 6.5 3 8.7 5.6 2 2.4 4.5 4.5 6 7.2" class="b"/><path d="M8.7 106.2c6.5-.9 11 4.8 15.6 8.4 1.1.7 2.3 1.8 3.5 2.2H100q3.3-7.6 6-15.4c1.7-3.8 5.6-19 11.4-11.8 2.7 3.7 4.7 8.1 7 12.1 2.2 3.8 5 10.4 10.3 9.2 2.2-.5 4-2 6.1-2.6 5-.5 7.8 4 14 1.2 2.3-1 4.5-2.6 6.9-3.7 2-1.2 3.8-3 6-3.6 4.5-.8 7.2 4 9.6 7 1.9 2.5 4.5 4.6 6 7.4" class="b"/><path d="M8.7 103.3c7.6.1 11.5 8 17.4 11.5 1 1 2.2 1 3.5 1h67.7q1.4 0 2.6-.3c1.7-5.3 4.4-10.6 6-16 1.7-3.8 5.6-18.9 11.4-11.7 2.7 3.8 4.6 8.2 7 12.2 2 3.5 4.6 9.3 9.5 8.7 2.2-.4 4-2 6-2.8 4.2-1.6 8 3.1 13 1.7 2.2-.5 4.2-1.8 6.2-2.8l2.6-1.2q2-1.3 4.3-2.4c5.5-2 8.6 4.7 11.3 8.3 1.4 2.2 3.7 4 5.2 6.2h.9" class="b"/><path d="M8.7 100.8c7.4.8 10.9 8.6 16.5 12.4l2.6 1.6H99c1.4-1.4 1.8-4.2 2.6-6a107 107 0 0 0 3.5-8.6c1.6-3.4 5.7-20 11.3-14.6 4.8 4.8 8.9 20 15.6 21.1 3 .2 5.3-2.3 7.9-3.4 2-1 4.1 0 6 .8q3 1.3 6.1 1.2c2.5-.3 4.8-1.8 7-2.9l2.6-1q2-1.2 4.3-1.9c6.7-1.3 10.4 11.5 15.6 15.3h1.8" class="b"/><path d="M8.7 98.1c7.6 1.4 10.6 9.8 16.5 13.8 1 .6 2.2 1.7 3.5 1.9H99q3-7.7 6.1-15.4c1.6-3.5 5.7-19.6 11.3-14 4.7 4.9 8.3 18.4 14.8 20.4 4 .8 6.6-4 10.4-4.2 3 .1 5.7 2.1 8.7 2.4 4 .5 7.5-2.3 11.3-3.3 1.8-.8 4-1.7 6-1 6 2.5 7.8 10.5 12.2 14.9q1.7.2 3.5.2" class="b"/><path d="M8.7 95.4c7.7 1.8 10.5 10.8 16.5 15 1.3.9 2.8 2 4.4 2.4h68.6l.8-.6c1.5-5.3 4.2-10.5 6.1-15.7 1.6-3.3 5.3-17.3 10.4-14 5.3 4.5 8.3 17.6 14.8 20.5 4.1 1.3 6.8-3.3 10.4-4.4 2.4-.4 4.7 1 7 1.7 4 1.6 7.5.4 11.3-1.1 2.5-.6 5.1-1.9 7.8-1.3 5.9 2.1 8 10.8 12.1 14.9h4.4" class="b"/><path d="M8.7 92.6c7.7 2 10.5 11.9 16.5 16.3q2.5 1.8 5.2 2.9h67.8c1-2 1.8-4.9 2.6-7 1.3-3.3 3-6.8 4.3-10.2 1.6-3.2 5.3-16.6 10.4-13 3.6 3.3 5.3 8.3 7.9 12.4 1.6 2.7 3.3 5.8 6 7.4 4 2 7.2-2.6 10.5-4.2 2-1 4.1 0 6 .7 5.7 2.5 8.3 1.6 14 0 4.4-.8 7.1-1.1 10.4 2.6 2 2.3 3.6 5.2 5.2 7.8.7 1 1.4 2.9 2.6 3.5h5.2" class="b"/><path d="M8.7 90c8.4 2.3 10.8 14.3 18.3 18.4 4.5 2.9 5.4 2.3 10.4 2.4h58.2q1.4.1 2.6-.5c1.6-6 4.5-11.8 7-17.4 1.5-3.3 5.2-16 10.3-12.2 2.4 2 3.8 5.1 5.3 7.8 2.2 3.8 4.2 8.4 7.8 11.2 5.6 3.8 8.7-5 13.9-4.4 3 .5 5.7 2.2 8.7 2.7 4.9.8 9.9-1.8 14.7-.3 3.6 1.4 5.8 5.1 7.8 8.2l1.8 3 .8 1.3 1 .6h6" class="b"/><path d="M8.7 87.4c7.7 2 10.6 13.5 16.5 18.1a20 20 0 0 0 8.7 4.3h63.4c1.4-2.7 2.3-6.4 3.5-9.2 1.3-3 3-6.3 4.3-9.4 1.6-3.1 5-13.7 9.6-11.8 2.4 1.4 3.8 4.4 5.2 6.7 2.5 4.3 4.6 9.5 8.6 12.6 3.5 2.5 7-1 9.6-3 3.6-3.4 8.2 0 12.2.9q3.8 1 7.8.5c2.6 0 5.4 0 7.8 1 4.5 2.3 6.9 7.2 9.6 11.2 1 .7 2.3.4 3.4.5h4.4" class="b"/><path d="M8.7 85c8.1 2 10.8 14.9 17.4 19.5q3.8 3 8.7 4.3h59.9q1.4.1 2.6-.4c1.3-3.8 2.7-8 4.3-11.7l3.5-7c1.7-3.1 4.9-13 9.6-11 2.4 1.5 3.8 4.3 5.2 6.7 2.3 4 4.4 8.5 7.8 11.8 3.4 3 6.7.7 9.5-1.8 1.8-1.5 3.7-2.6 6.1-2 3.5.8 6.9 2.5 10.4 3 12.2 1 14 1.6 20.9 12 1 .5 2.4.3 3.4.4h5.3" class="b"/><path d="M8.7 82.9c7.8 1.5 10.8 14.3 16.5 19.1 3 2.6 6.5 5 10.4 5.8h60.8c2-3.3 2.7-7.5 4.4-10.9 1.2-2.8 3-5.7 4.3-8.5 2.9-5.7 7-16.4 13-6.6 3.2 4.3 8.2 18.4 14.8 15.8 2-.7 3.6-2.2 5.2-3.4q2.8-2.2 6-1.2 3.6.9 7 2.1c11.6 3.1 15 1.9 22.6 12.7h9.6" class="b"/><path d="M8.7 81c7.3.8 11 13.6 15.6 18.5 3.3 3.1 7 6 11.3 7.3h60.8c1.4-3.7 2.8-7.9 4.4-11.4 1.9-3.8 4.2-7.6 6-11.4 6.4-12.3 10-5.4 14.8 3 2.6 4 6.2 12.5 12.2 9.7 2.1-1 3.9-3 6-4 3.8-1.2 8.5 1 12.2 2.2 5.4 1.8 11.2 3.2 15.6 6.9q1.9 1.6 3.5 3.4c.3.5 1.2 1.3 1.7 1.6h10.5" class="b"/><path d="M8.7 79.3c7.4.3 11.1 13.6 15.6 18.5a38 38 0 0 0 10.5 7.8c1 .3 2.4.1 3.4.2h57.4c.9-.4 1.4-2.3 1.7-3.2 1-2.7 2.2-6 3.5-8.5q3.2-5.4 6-10.8c7-12.8 11-3.4 15.7 4.5 2.4 3.9 5.7 10.8 11.3 8.6 2.1-1 4-2.8 6-3.8 3.5-1 7.2.3 10.5 1.3q7.7 2.6 14.7 7c2.2 1.3 4 3.3 6.1 4.9h12.2" class="b"/><path d="M8.7 77.9c7-.5 11 12.4 14.8 17.2q3.4 4.2 7.8 7.6 1.6 1.2 3.5 2h60.8c2.2-3.5 3.1-8 5.2-11.7l2.6-4.1 4.3-7.4c7-11.6 11.6.8 15.6 7.1 2.4 3.8 6.1 10 11.3 7.2 5-2.9 5-4 11.3-3.1 7.1 1 13.3 5.2 19.1 9 1.5 1 2.8 2.5 4.4 3h13.9" class="b"/><path d="M8.7 76.7c6.7-1 10.8 10.9 14 15.5 2 3.2 5 6 7.7 8.7q1.7 1.6 3.5 2.7 1.7.2 3.5.2h58.2c1.9-3.7 3.2-8 5.2-11.6q1-2 2.6-3.8l4.3-7c7-11.3 11.5 0 15.6 6.5 2.4 3.8 6 10.1 11.3 7.8 1.8-.7 3.5-2 5.2-2.6 2.3-.6 4.7-.4 7-.2 7.9.7 13.5 7 20 10.9h16.5" class="b"/><path d="M8.7 75.7c6.2-1.4 9.6 7.7 12.2 12 1.9 3.9 4.8 7.2 7.8 10.4 1.6 1.6 3.1 3.7 5.2 4.7h61.6c1.9-3.6 3.3-7.7 5.3-11.2.6-1.1 1.8-2.5 2.6-3.5 1.2-1.6 2.4-3.7 3.5-5.4 7.4-12.4 11.4-3.8 16.5 4.5 2.4 3.9 5.7 10.4 11.2 8.6 1.8-.5 3.5-1.7 5.3-2.3q3.3-.5 7-.4c7 .1 12 5.8 17.3 9.7h19" class="b"/><path d="M8.7 75c6.8-2.3 11 9.8 14 14.3 1 2 2.8 4 4.3 5.7q2.7 3.6 6 6.7h62.6c1.8-3.3 3.1-7.2 5.2-10.4 1-1.5 2.5-3 3.4-4.4 2.5-3.2 5.8-10.9 10.5-10.5 5.9 1.6 9.3 14.2 14.7 18.3 3.6 3 6.8.7 10.4-.6l7-.7c7-.4 10.6 4.7 15.6 8.4h20.9" class="b"/><path d="M8.7 74.3c5.8-2.2 9 5 11.3 9q1.6 3.2 3.5 6.2l4.3 5.5q1.6 2.2 3.5 4.3c1 1.4 1.8 1.6 3.4 1.5h60.9c1.7-2.5 2.7-5.7 4.3-8.3 1-2 3-3.6 4.3-5.4 2.7-3.2 6.3-11.8 11.3-10.6 6.2 2.8 8.8 14.4 14.8 18.6 3.1 2.4 6.3.6 9.5-.4l3.5-.4 4.3-.6c5.4-.5 9.5 3.6 13 7h22.7" class="b"/><path d="M8.7 73.8c7-3.4 11 8.7 14 13.1 1 2.1 2.8 4.1 4.3 6q2.4 3.5 5.2 6.8 31.6.2 63.4 0c.7-.3 1.4-1.8 1.7-2.5l2.6-4.8c1.3-2.3 3.8-3.9 5.2-6.1 3-3.8 7.3-13.6 13-8.4 5.2 5.1 7 13.3 13 17.6 2.8 1.8 6 .5 8.8-.2 1-.2 2.4-.1 3.4-.4l4.4-1c5-.9 8.7 2.7 12.1 5.8h23.5" class="b"/><path d="M8.7 73.3c7-3.8 11 8.2 14 12.6 1 2.1 2.9 4.2 4.3 6.1 1.6 2.2 3 5 5.2 6.7h64.2c1.3-2.4 2.7-5.2 4.4-7.4 1.3-1.5 3.2-2.8 4.3-4.5 2.7-3.4 5.1-9.3 9.6-10.5 6.3-.8 10.5 15.4 16.5 19.1 2.6 2 5.7 1 8.7.4q1.6 0 3.4-.3l4.4-1.2c4.5-1.3 8.1 1.4 11.3 4.4h24.3" class="b"/><path d="M8.7 72.8c5.5-3.3 9 3.6 11.3 7.6q1.6 3.1 3.5 6.1 2.2 3 4.3 6l3.5 4.9q1.2.5 2.6.3h62.5c.6-.3 1.5-1.6 1.8-2.3.7-1.2 1.7-2.8 2.6-3.8.6-.8 1.8-1.6 2.6-2.2.9-.9 1.9-2.3 2.6-3.3 3.7-5.4 8.6-15.2 14.7-6 3.8 5.2 6.3 13.3 12.2 16.3 2.8 1.2 5.8-.4 8.7-.1 3-.2 5.7-2.2 8.7-2.3 2.2-.2 4.4.8 6 2 .8.6 1.7 1.7 2.7 1.8h24.3" class="b"/><path d="M8.7 72.1c6.7-3.8 10.3 6.3 13 10.7q1.9 3.5 4.4 6.5l5.2 7.4q33 .1 66 0c1-1.5 2.2-3.5 3.5-4.9q1.2-1 2.6-2c.9-.8 1.9-2.2 2.6-3.2 3-4.2 8-15.2 13.9-8 4.4 5.4 6.3 13 12.2 17.3q1.6 1 3.4.8 2.2 0 4.4-.2c1 0 2.4.1 3.4-.2 1.8-.5 3.5-1.5 5.2-2 3.6-1.4 6.9 0 9.6 2.4h25.2" class="b"/><path d="M8.7 71.3c6.7-3.7 10.3 6.5 13 10.9q1.9 3.4 4.4 6.5c1.7 2.2 3.3 4.9 5.2 7h63.4c1 0 2.4.2 3.5-.2q1.3-2.4 3.4-4.2c1.9-.8 3.3-2.6 4.4-4.3 3-4 8-15.7 13.9-8.7 4.4 5.4 6.3 13.1 12.1 17.4h13c5-2.6 8.3-3.8 13 0h25.3" class="b"/><path d="M8.7 70.4c6.8-3.4 10.3 6.5 13 11a40 40 0 0 0 4.4 6.4c1.7 2.2 3.3 4.9 5.2 7h64.3c1 0 2.4 0 3.4-.3.7-.8 1.7-2 2.6-2.6a9 9 0 0 0 3.5-3c3-3.5 6.4-12.5 11.3-12.9 4 .6 5.8 5.8 7.8 8.9 2 3.3 4 7 7 9.6 1.6.5 3.5.2 5.2.3h9.5c1 .1 1.9-.6 2.6-.9q2.2-1 4.4-1 1.8 0 3.4 1l1.8.8h25.2" class="b"/><path d="M8.7 69.7c6.8-3.4 10.2 6.2 13 10.6a40 40 0 0 0 4.4 6.4q2.5 3.6 5.2 7 28.6.2 57.3 0H99c1 .2 2-.4 2.6-1 2-.6 3.3-2.5 4.4-4 3-3.9 8-17 13.9-11 4.2 5 6.3 11.7 11.3 16h17.3c1.4-.4 3-1 4.4-1q2.2-.1 4.3 1h26.1" class="b"/><path d="M8.7 69c6-3.1 9.6 4.4 12.2 8.6 2 4.1 5.1 7.7 7.8 11.4 3 3.9 1.9 3.9 7 3.8h67.7c4.4-3.1 9.1-19.6 15.6-16 1.9 1.2 3.1 3.5 4.3 5.4 2.3 3.6 4.6 7.5 7.9 10.4 2.5.4 5.2 0 7.8.1h44.3" class="b"/><path d="M8.7 68.3c6.6-3.2 10.2 5.2 13 9.7q2.4 3.8 5.3 7.3c1.6 2.1 3 4.7 5.2 6.4h73c4.4-4.7 9.9-23.1 17.3-11.4 1.9 2.4 7.3 11.8 10.4 11.4h50.3" class="b"/><path d="M8.7 67.7c6.5-3.1 10.2 4.6 13 9q2 3.3 4.4 6.2 3 4 6 7.8 23.5.2 47 0h24.2q1.9.2 3.5-.2c2.6-3.8 6.4-13.6 11.3-13.9 3 .3 4.4 3.4 6.1 5.4 1.9 2.3 6 8 8.7 8.7h50.3" class="b"/><path d="M8.7 67.2c6.5-3 10 4 13 8.5 2.3 3.7 5.3 7 7.9 10.6 3.3 4.3 2.6 3.3 7.8 3.4h70.3c2.9-3.8 5.5-11.5 10.4-12.8 3.2-.2 5 3.4 7 5.3q3.6 4.2 7.8 7.5h50.4" class="b"/><path d="M8.7 66.7c7-3 10.6 4.5 14 9.3 2 3 4.6 6.2 6.9 9.2 3.3 4.2 2.6 3.5 7.8 3.5h71.2c1-.9 1.9-2.7 2.6-3.8 1-1.6 2.2-3.6 3.5-5 3.8-4.3 6-2.9 9.5.7 3.1 2.7 6.1 5.8 9.6 8.1h49.5" class="b"/><path d="M8.7 66.3c7-2.6 10.5 4 14 8.8q3.3 4.7 6.9 9.2c3.2 4.2 2.7 3.4 7.8 3.4h72c.8-.2 1.5-1.3 1.8-2q1.6-2.6 3.5-5c2-2.5 4.9-4.4 7.8-2q4.6 3 8.7 6.6c1 .7 2.2 2 3.5 2.4h48.5" class="b"/><path d="M8.7 66c6.5-2 9.7 2.6 13 7.3q2.1 3 4.4 5.7c1.9 2.5 3.8 5.3 6 7.5 1.7.5 3.6.2 5.3.2H106q2.6.2 5.2-.1c2.4-3.5 6.2-10.7 11.3-8a41 41 0 0 1 12.1 8.1h48.7" class="b"/><path d="M8.7 65.7c6.5-1.7 9.6 2.4 13 7.2q2.6 3.5 5.3 6.8c1.6 2 3 4.5 5.2 6H112c2.3-2.5 4.2-6.2 7.8-7.2 1.7-.3 3.5.4 5.2.8 3.7 1 7 3.4 9.5 6.2 2 .5 4.1.1 6.1.2h42.6" class="b"/><path d="M8.7 65.4c6.5-1.1 9.5 2.5 13 7.3l4.4 5.7c1.6 2 3.3 4.5 5.2 6.3h78.1c1.4 0 3 .3 4.4-.3 2-2.3 4.4-5.4 7.8-5.6 6.2-.3 9 .9 13 5.5 1.3.8 3 .3 4.4.4h44.3" class="b"/><path d="M8.7 65.2c5.9-.4 8.8 2 12.2 6.5l5.2 6.8q2 2.8 4.3 5.2H113c.8 0 2 .1 2.6-.4 2-2 4.2-4 7-4.3 2-.4 4-1 6-.5 1.7.4 3.2 1.6 4.4 2.7.8.8 1.6 2 2.6 2.5h47.8" class="b"/><path d="M8.7 65.1c5.9 0 8.8 2.5 12.2 7l5.2 6.7c1 1.3 2 3.1 3.5 4h85.1c1.1 0 2.6 0 3.4-1 1.5-1.2 3.5-2 5.2-2.8a12 12 0 0 1 4.4-1.4c2-.1 3.8 1.1 5.2 2.5.8.8 1.6 2.1 2.6 2.6h47.8" class="b"/><path d="M8.7 65c3.2.4 6.4 1.4 8.7 3.8 3.9 3.9 6.9 8.7 10.4 12.9h91.3c.8-.2 1.7-1 2.5-1.5 3.3-2 6.7-5.2 10.4-2 1.3 1 2.1 2.8 3.5 3.5h47.8" class="b"/><path d="M8.7 65c2 .6 4.3 1.1 6 2.4 4.9 3.3 7.6 8.7 11.4 13 1 .5 2.3.3 3.4.3h33c.9 0 1.8-.6 2.7-.7 1.4-.2 2.8.8 4.3.7h52.1c5.4-4.2 8-7.5 13-.4 1.2.8 3 .3 4.4.4h44.3" class="b"/><path d="M8.7 65c8 2.5 11 8.3 15.6 14.4 1 .5 2.4.3 3.5.3H60c1.8-.7 3.3-2.5 5.2-2.7q1.9.1 3.5 1.2c.8.5 1.6 1.5 2.6 1.5h39.1q6.5.2 13-.1c4.3-4.7 7.3-6 11.3-.2q1.3.5 2.6.3h46.1" class="b"/><path d="M8.7 65c6.6 2.9 10 7.8 14 13.5 1.3.4 2.9.1 4.3.2h28.6c1.2 0 2.7.2 3.5-.8 6.6-5.7 7-4.5 13 .8h52.1c3.8-4.6 6.8-5.4 10.4 0q24.3 0 48.7 0" class="b"/><path d="M8.7 65A35 35 0 0 1 21 77.6c1.6.5 3.5.1 5.2.2h30.4c8.6-7.8 8.2-9.2 16.5 0q26 .2 52 0c3.6-4.5 6.2-4.4 9.6 0q24.3.2 48.7 0" class="b"/><path d="M8.7 65.2q6.4 4.5 10.4 11.2c1.3.6 3 .2 4.4.3h31.2c1.1-.2 2-1.4 2.6-2 2-2 3.8-4.3 6.1-5.7 2.4-1.4 4.7 1 6.1 2.6l2.6 3.4c.3.5 1.2 1.5 1.8 1.7H125c.6-.1 1.4-.8 1.7-1.3 3.4-3.2 5.1-1.3 7.9 1.3h42.5c2 0 4.2.2 6.1-.2" class="b"/><path d="M8.7 65.4q3.5 2.8 6 6.1c1.2 1.3 2 3.5 3.6 4.2h31.2c1.7 0 3.6.2 5.2-.2 10-11.7 10-13.7 19.2.2h52c1.8-1.5 3.7-3.4 6.1-2 .9.5 1.7 1.7 2.6 2h42.6c2-.1 4.3.3 6-.2" class="b"/><path d="M8.7 65.7q2.8 2.7 5.2 5.9c.8 1 1.5 2.5 2.6 3.1H54c10.4-12.5 10-17 20-.4q1.2.6 2.6.4h17.3q16.5.2 33 0 3.6-3.8 7-.1c5.7.3 11.6 0 17.4.1h31.2l.9-.6" class="b"/><path d="M8.7 66.1c2.3 2.3 4 5.3 6 7.6H40q7 .2 13.9-.1c3-4 5.3-9.3 9.5-12.1 2.8-1.2 4.7 2.2 6.1 4 1.9 2.6 3 6 5.2 8.2H127l1.7-.9c1.8-1.1 3.6-.2 5.2 1h42.5c2-.2 4.2 0 6.1-.3l.9-.9" class="b"/><path d="M8.7 66.6q2.3 3 4.4 6.1h39c.5.1 1.4-.1 1.8-.4 10.5-18.1 10.9-17 20.8.4h52.1c1.5.2 2.8-1.3 4.4-.9.4.1 1.3.5 1.7.8 2 .3 4.1 0 6 .1h23.5c1.1.1 2.4-.4 3.5-.3q3 .4 6 .3h9.6l1.8-1.7" class="b"/><path d="m8.7 67.3 1.8 2.5c.3.6 1 1.7 1.7 2H53c.7-.4 1.5-1.8 1.8-2.5l3.4-6.2c1.7-2.4 4.4-7.8 7.8-5.2 4 3.6 6 9 8.7 13.5 1.3.6 3 .2 4.4.3h49.4l1.8-.5q1.4.1 2.6.5h28.7c1.4-.6 2.7-1.6 4.3-1.5 1.8 0 3.5 1 5.2 1.5q4.9.2 9.6-.1l2.6-2.3" class="b"/><path d="m8.7 68 1.8 2.7H53c1.1-1 1.9-3.2 2.6-4.5l3.5-6.4c2-3 4.5-6.6 7.8-2.7 2.5 2.8 4.2 6.5 6 9.7.8 1.2 1.6 3 2.7 4h85.1c4.1-3.8 6.5-3 11.3-1 5 1.8 7.2 1 11.3-2.2" class="b"/><path d="m8.7 68.7.9 1H53c2.6-4 4.1-9 7-13 3.4-5 6-2.8 8.6 1.3 2.5 3.7 4.6 8 7 11.7h84.2c3-2.6 4.4-4.4 8.7-3.5 6.3 1.6 8.8 3.7 14.8-.4" class="b"/><path d="M8.7 68.7H53c3-5.1 4.4-11.4 8.7-15.7 2.8-2.4 5.4 1.7 7 3.7l5.1 8.7c.7 1 1.5 2.7 2.6 3.3H159q1-.7 1.7-1.6 1.5-1.7 3.5-2.6c7-2.5 11 4 19-.5" class="b"/><path d="M8.7 67.7H53c2.3-4.7 4-10 7-14.3 2.3-3.4 4.3-3.1 6.9-.1 3.6 4.5 6 9.8 9.6 14.3 3.4.3 7 0 10.4.1H158c1-.5 1.8-1.8 2.6-2.5q1.8-2 4.3-3c6.4-2 11.3 2.6 18.3 0" class="b"/><path d="M8.7 66.7H53c1.4-3.2 2.8-7 4.3-10.1 1.2-2.2 2.4-5 4.4-6.5 3.1-2 6.2 3.7 7.8 5.8 2.5 3.6 4.8 7.6 7.8 10.8h80c1.5-1.1 2.7-3 4.3-4.2 2.8-2.5 6.7-3.5 10.4-3s7.5 1.6 11.3 1" class="b"/><path d="M8.7 65.7H47q3 .2 6.1-.1c2.2-5 4.5-13.2 8.7-16.7 3-1.7 6.2 4 7.8 6 2.6 3.7 5.3 7.6 8.7 10.7 4.9.3 9.8 0 14.7.1h58.2q2.7.2 5.2-.2c5.2-4.8 9.6-9.5 17.4-8.2 3.2.5 6.4 1.4 9.6 1.7" class="b"/><path d="M8.7 64.7h41.7q1.4.1 2.6-.4c2.1-4.8 4.6-13.5 8.7-16.6 2.6-1.2 5.4 3.4 7 5 3.2 4.4 6.6 9 11.2 12H119q3.5.1 7-.3a36 36 0 0 1 7.8.2q4.3 0 8.7 0h11.2c2-.6 3.6-2.2 5.3-3.4 9.4-8 13-7.7 24.3-3.7" class="b"/><path d="M8.7 63.7h43.4c1.5-1 1.9-3.7 2.6-5.2 1.3-3 2.7-6.4 4.4-9.1s3.4-4 6-1.3c2.6 2.4 4.7 5.4 7 8 2.7 3 6.2 5.3 9.6 7.6h35.6q1.7.1 3.5-.2a8 8 0 0 1 4.3-1.1c2.9 0 5.8.6 8.7.7q2.6 0 5.2.2c1 0 2.4.5 3.5.4h7a30 30 0 0 0 9.5-4.3c9.6-7 13-9.6 24.3-3.3" class="b"/><path d="M8.7 62.7h43.4c1.7-2 2.4-5.3 3.5-7.6 1.6-3.2 2.8-7.5 6-9.4 2.3-.6 4.7 3.1 6.2 4.5q3.4 4.2 7.8 7.4 2.6 1.5 5.2 3.2c.8.5 1.7 1.5 2.6 1.9h34.8c.5-.1 1.3-.8 1.7-1.2q1.1-1 2.6-1.3c3-.4 5.8.8 8.7 1 2.6.4 5.2 0 7.8-.2 1.7-.1 3.5.3 5.2.2a40 40 0 0 0 14-3.3c3-1.4 5.7-3.8 8.6-5.6 6.4-4 11-1.5 16.5 2.6" class="b"/><path d="M8.7 61.7h43.4c2.2-3 6.4-19.4 11.3-16.5 3.4 2.8 6 6.6 9.6 9.1 2.4 1.8 5.3 2.7 7.8 4.2 1.3.8 2.4 2.2 3.5 3.2h33c1-1.2 2.1-2.7 3.4-3.6 3.4-1.7 7 1.2 10.5 1.4 2.6.4 5.2-.4 7.8-.9 1.7-.3 3.5 0 5.2-.2l7.8-1.1c3-.5 6-1 8.7-2.5 9.5-6.6 12.8-10.2 22.6-1" class="b"/><path d="M8.7 60.7h43.4c1.8-3 6.7-19.7 11.3-16.3 4.5 4.2 7.7 8.8 14 10.4 1.8.6 3.8 1.6 5.1 3 1 1 2.1 2.5 3.5 2.9h30.4c1.4-2 2.8-4.8 5.2-5.6 2.1-.4 4.2.8 6.1 1.6q3 1.3 6 1c2.7-.3 5.2-1.7 7.9-1.7 3.2-.2 6.4-1 9.5-1.3 3.2-.3 6.7 0 9.6-1.6 2.4-1.3 4.6-3.3 7-4.7 6.5-4.4 11-.5 15.6 4.4" class="b"/><path d="M8.7 59.7h40.8q1.4 0 2.6-.3c1.6-3 6.7-19.5 11.3-15.8 2.8 2.6 5.3 5.8 8.7 7.7 2.7 1.6 6 1.5 8.7 3 1 .6 2 1.7 2.6 2.5q1.6 1.6 3.5 2.9h28.6c1.8-2.5 3-6 6.1-7.2 1.5-.1 3 .6 4.4 1.2 3.9 2.3 7 3 11.2 1q1.8-.7 3.5-1 1.4 0 2.6-.4 3-.7 6.1-1c3.2-.4 6.4.3 9.6-.3 3-.7 5.3-3.1 7.8-4.8 7.2-5.2 11.7-1 16.5 4.7" class="b"/><path d="M8.7 58.7h42.6c.8-.4 1.4-2 1.7-2.8l1.8-4c1.3-2.6 4.8-12.1 8.6-9.1C66.8 46 70 50 74.7 51c1.7.4 3.6.5 5.2 1.2 2.2.8 3.5 3.2 5.2 4.5 1.3 1 2.7 2.2 4.4 2h25.2c2.4-2.5 4.1-9.7 8.7-8.3 4.1 1.7 7.3 5 12.1 3 2.3-.9 4.5-2 7-2.2q3.4-1 7-1.4c3.1-.3 6.3.7 9.5.3 3-.6 5.3-3 7.8-4.5 7.3-5.3 12-.3 16.5 5.6" class="b"/><path d="M8.7 57.7h42.6c2.6-3.2 6.3-17.6 11.3-16.4 2.5 1.7 4.4 4.4 7 6.2q2.3 1.7 5.1 2.2c2 .4 4.3.4 6.1 1.4 1.3.8 2.4 2.3 3.5 3.4q2.3 2 5.2 3.2H112q1.5.1 2.7-.5c1.6-3 3.5-8 7-9.1 1.8-.1 3.5 1.1 5.1 2 2.3 1.5 5.1 2.6 7.8 1.7 2.1-.6 4-2 6.1-2.4 3-.4 5.8-1.6 8.7-1.8 3.2-.3 6.4.8 9.6.5 3.3-.6 5.8-3.2 8.7-4.7 6.8-4.1 11.8 2 15.6 7.2" class="b"/><path d="M8.7 56.7h42.6c2.4-4 5.8-15.5 10.4-16.6 1.4 0 2.5 1.5 3.5 2.4q2 2.1 4.3 3.9a13 13 0 0 0 6 2.3c2.2.3 4.5.5 6.2 1.9 1.6 1.5 3 3.5 5.2 4.5q1.6.9 3.4 1.6h23.5c2.1-3.4 3.5-7.8 7-10.2 1.7-.8 3.6.4 5.2 1.3 2.3 1.4 5 2.9 7.8 2.3 2-.3 4-1.6 6-2.3q1.8-.4 3.5-.8 3.4-1 7-1.4 3.4 0 7 .5c3.2.3 6-2 8.6-3.4 8-5 13 1.3 17.4 7.4" class="b"/><path d="M8.7 55.7h40.8c.5 0 1.4-.2 1.8-.4 2.1-3.9 6-15.2 10.4-16 1.4 0 2.5 1.5 3.4 2.4q2.1 2 4.4 3.8c5.2 4 10 .5 13.9 5.8 2 2.2 5 3.3 7.8 4.4H113c.7-.4 1.5-1.8 1.8-2.5q1.5-3 3.4-5.8c2-2.9 3.9-3.7 7-1.8 2.4 1.3 5 3.1 7.8 3 2.5-.2 4.7-1.7 7-2.5l3.4-.7q2.6-.7 5.2-1.3c2.6-.5 5.3-.2 7.9 0 3.2.6 6-1 8.6-2.7 8.5-5.1 13.6 1.9 18.3 8.2" class="b"/><path d="M8.7 54.7h41.7c2.9-3.8 6.3-15.2 11.3-15.9 1 0 2 .9 2.6 1.6l3.5 3.2c6 5.4 9.1 2 13.9 4.9 1.1 1 2.2 2.4 3.4 3.2 1.9 1.2 4.2 1.9 6.1 2.9q3.5.1 7 0c4.9 0 9.9.3 14.7 0 2.3-3.9 4-8.8 7.9-11.3 2-.9 4.2.8 6 1.8s4 2 6.1 1.9c2.5-.2 4.7-1.6 7-2.4l3.4-.5 4.4-1.2a25 25 0 0 1 7.8-.4c4 .5 6.2-.7 9.5-2.5 8.5-4.8 13.8 3.1 18.3 9.3" class="b"/><path d="M8.7 53.7h40.8c.7-.3 1.5-1.6 1.8-2.2l1.7-3.2c2-3.3 4-8.1 7.8-9.7 1.4-.3 2.6.6 3.5 1.5l2.6 2.4c2.4 2.2 5.4 4 8.7 4q2.2 0 4.3.3c2.2.5 3.5 2.7 5.3 3.8 1.8 1.2 4 1.8 6 2.8 1 .5 2.4.3 3.5.3H112c2.6-3.3 4-7.6 7-10.7 2-2 4-1.6 6.1-.3 2.4 1.4 5 3 7.8 2.9s5.2-2 7.8-2.4c2.4 0 4.7-.9 7-1.4q3-.7 6-.6c5.4.2 6.6-.1 11.4-2.6 8.5-4.4 13.9 4.3 18.2 10.4" class="b"/><path d="M8.7 52.7h39.1q1 0 1.7-.4c2.8-3.9 6.6-12.8 11.3-14 2.6-.2 4.2 2.6 6.1 4 2.3 2.2 5.4 3.9 8.7 3.6q2.2-.1 4.3 0c2.2.4 3.5 2.5 5.2 3.6q3.1 1.5 6.1 2.9 1.2.4 2.6.3h17.4l.9-.6c2.3-3.8 4.2-8.5 7.8-11.3 2-1.4 4.3 0 6 1 2.1 1.3 4.5 2.6 7 2.4 2.7-.1 5.1-1.8 7.8-2.1 2.4 0 4.7-.7 7-1.2q3-.8 6-.8 3.1 0 6.1-.5 2.7-.8 5.3-2.2c2.4-1.1 5.3-1.6 7.8-.3 4.6 2.6 7.5 7.4 10.4 11.5" class="b"/><path d="M8.7 51.7H47c1.8.3 2.6-1.8 3.5-3q2.4-3.7 5.2-7.2c1.7-2 4.3-4.4 7-3 4 3 7.2 7.8 13 7 2-.3 4.2-.8 6 .1 1.2.8 2.3 2 3.5 2.8 1.6 1 3.6 1.7 5.2 2.6q1.7.9 3.5.7h17.3c2.7-4.2 4.6-9.4 8.8-12.3 2-1.2 4.3.3 6 1.3 2.1 1.3 4.5 2.5 7 2.3 2.7 0 5.1-1.8 7.8-1.9 4.1.4 8-1.5 12.2-1.8 2.5-.3 5.3-.2 7.8-1q2.6-1.1 5.2-2.2c8.3-3.4 13.4 6.7 17.4 12.2" class="b"/><path d="M8.7 50.7H47c4.3-3.4 9.7-16.8 16.5-11.5 3.4 3 7.2 7 12.2 5.8 7.2-1.8 5.7.3 11.3 3.2l4.3 2.3q1.3.3 2.6.2h16.5c2.6-3.3 4.2-7.5 7-10.6 2-2.4 4-3.2 7-1.5 2.6 1.5 5.4 3.5 8.6 3.3 2.7 0 5.2-1.6 7.8-1.6 4.1.7 8.1-1.1 12.2-1.6q3.5-.3 7-1c2-.5 4-1.7 6-2.5 8.3-3.4 13.4 7.3 17.4 12.8" class="b"/><path d="M8.7 49.7q18.8 0 37.4-.1c3.9-3.7 8-12 13.9-12 2.5.3 4.3 2.3 6 3.9 2.4 2.1 5.4 4 8.7 3.3 2.3-.4 4.7-1.8 7-1 .9.3 1.8 1.2 2.6 1.7 1.3 1 3 1.8 4.3 2.5q1.4.7 2.6 1.6h18.3c.8-.2 1.4-1.3 1.7-2l1.8-3c2.2-3.4 5.4-10.2 10.4-7.5 3 1.5 6 4 9.5 3.8 2.7 0 5.2-1.5 7.9-1.2 3.7 1 7.5-.5 11.2-1.2q4.4-.7 8.7-1.7c1.8-.5 3.5-1.6 5.2-2.2 8.5-3.8 13.4 7.5 17.4 13" class="b"/><path d="M8.7 48.7h35.6c5.8-4 10.9-16.4 19.1-9.5 2.8 2.3 5.6 5.6 9.6 5.5 2.7 0 5-2 7.8-2 1.7 0 3 1.4 4.3 2.2q3.1 1.8 6.1 3.7h18.3c2.7-4.4 4.9-10.3 9.5-13.1 2.1-1 4.3.4 6 1.5 2.6 1.7 5.6 3.3 8.8 3 2-.2 4-1 6-1 1.2.1 2.4.6 3.5.7 3.3.1 6.5-1 9.6-1.6l7.8-1.8c2-.6 4-2 6-2.7 8.1-3 12.8 8.4 16.6 13.7" class="b"/><path d="M8.7 47.7h33.9C44 47.5 45 46 46 45.2q2.5-2.9 5.2-5.6c3-3 6.6-4.3 10.4-1.7 3.8 2.3 7 7.5 12.1 6.4 2.2-.5 4-1.8 6.1-2.4 2-.7 3.7.8 5.2 1.8q3.1 1.8 6.1 4h17.4c3-3.9 6.3-14 12.1-13.9 2 .4 3.6 1.7 5.2 2.8 2.6 1.7 5.6 3 8.7 2.5 1.7-.2 3.5-.7 5.2-.6q1.8.5 3.5 1c3.2.4 6.5-.7 9.6-1.5q4.3-1.2 8.7-2.3c1.7-.7 3.4-1.9 5.2-2.6 8.1-3.4 12.7 8.5 16.5 13.8" class="b"/><path d="M8.7 46.7h32.1c1.8.2 3.1-1.6 4.4-2.6 2.3-2.2 4.3-5 7-7 4.8-3.7 9.2 0 13 3.3 3.5 3.3 6.7 5.1 11.3 2.4 1.6-.9 3.3-2.2 5.2-2.1q1.9.5 3.4 1.7 3.2 1.9 6.1 4.2h16.5c.7-.2 1.5-1.6 1.8-2.2l1.7-3.2c2-3.3 4.3-8.4 8.7-8.8 2 .1 3.6 1.5 5.2 2.6 2.7 2 6 3.7 9.5 3.3 1.7-.1 3.6-.5 5.2-.2 1.2.3 2.4 1 3.5 1.2 3.2.7 6.5-.3 9.6-1.3q4.3-1.4 8.7-2.5 2.1-1 4.3-2.3c8.9-5 13.3 7.6 17.4 13.3" class="b"/><path d="M8.7 45.7h33c1.7-1.7 3.7-3.4 5.2-5.2 2.7-2.9 6-7.1 10.4-5.9 3 1 5.4 3.5 7.9 5.5 2.3 2.1 5.3 4.5 8.6 3.3 2.8-.9 5-3.5 7.9-3.9 1.2.1 2.4 1 3.4 1.5q3.3 2.1 6.1 4.5c2.9.3 5.8 0 8.7.1 2.6 0 5.3.3 7.8-.1 2.6-4.3 6-13.8 11.3-14.6 5.5.3 8 7.5 16.5 6.7 2-.2 4.3-.3 6.1 1 3.5 1.8 7.7.8 11.3-.5q4.2-1.6 8.7-2.7 2.7-1.3 5.2-3c8.7-4.4 12.2 8.2 16.5 13.2" class="b"/><path d="M8.7 44.7h28.7c1.4-.1 3 .2 4.3-.3q2.8-2.7 5.2-5.5c2.6-2.9 6.1-7.1 10.4-5.2 3.3 1.6 6 4.4 8.7 6.7 2.4 2.2 5.6 3.8 8.7 2 2.6-1.2 4.8-4.2 7.8-4q1.9.7 3.5 1.8 1.9 1.2 3.5 2.6c1 .8 2 2.1 3.5 1.9h13.9c3.2-4.7 5-12.3 10.4-15 2.6-1 5 1 7 2.6 2.9 2.4 6.3 4.8 10.3 4.7 1.7 0 3.6-.1 5.3.5s3.3 2 5.2 2.2c3.6.5 7-1.1 10.4-2.4q1.7-.8 3.5-1.3c1-.3 2.4-.5 3.4-1 4-2.3 7.9-6.2 12.2-2.3 2.1 1.9 3.8 4.6 5.2 7l1.7 3 .9 1.4.9.6" class="b"/><path d="M8.7 43.7H40c1.6.3 2.5-1.4 3.5-2.3 3-2.8 5-6.6 8.6-8.8 3.6-2 7.1 1 9.6 3.4l6 5.1c6.1 4.3 9-2.2 14-4 1.5-.1 3 1 4.3 1.7 2.2 1.3 4 3.4 6 4.9h14a7 7 0 0 0 1.7-2.6l2.6-5.2c2.6-4.8 6.4-11.5 12.2-6.2 3.3 2.8 6.7 6.2 11.3 6.6q2.6.2 5.2.6c1.9.5 3.3 2.1 5.2 2.6 4.9 1.5 9.5-1.6 14-3.2q1.6-.5 3.4-.9c2.2-1 4-2.7 6-3.9 7.9-4.1 11.4 7.3 14.8 12.2h.9" class="b"/><path d="M8.7 42.7h28.7c1.4-.1 3 .2 4.3-.3 1.6-2 3.7-4 5.2-6 2.4-3.1 6.2-7.6 10.4-5 2.9 1.9 5.2 4.7 7.9 6.7 2.2 2.2 5.4 4.7 8.7 3.1 2.5-1.2 4.4-3.6 6.9-5 3.7-1.8 8.7 4 11.3 6.3 2.5.4 5.2 0 7.8.2h3.5q1.4.1 2.6-.4c2.9-5.2 4.8-12 9.5-15.7 2.9-1.9 5.8.7 7.9 2.6 3 2.8 6.2 5.8 10.4 6.4q2.6.3 5.2 1c1.9.6 3.3 2.3 5.2 3 4.9 1.7 9.5-1.6 13.9-3.2q1.7-.6 3.5-1c2.2-1 4-2.8 6-4 5.2-3.6 9 1.6 11.3 5.7 1.1 1.8 2 4.2 3.5 5.6h.9" class="b"/><path d="M8.7 41.7h20.9c4-.1 8.1.1 12.1-.2 1.6-2 3.7-4 5.2-6.2 2.4-3.1 6.2-7.9 10.4-5 2.9 1.8 5.2 4.7 7.9 6.8 2.2 2 5.4 4.7 8.6 3.1 2.7-1.2 4.6-3.7 7-5.2 4.2-2.3 9.1 4.4 12.2 6.7l12.1-.1c2.4-4.4 4.3-9.3 7-13.5s5.6-5.5 9.5-1.8c6.6 6.2 7.3 8 16.5 9.6 2.3.6 4 2.7 6.1 3.6 4.5 2 9-1 13-2.8q1.7-.6 3.5-1c2.4-.5 4.2-2.5 6-4 7.6-6.3 11.7 4.2 14.8 9.6q.9.4 1.8.3" class="b"/><path d="M8.7 40.7h33a66 66 0 0 0 5.2-6.3c2.4-3.1 6-8.3 10.4-5.5 2.9 2 5.1 4.8 7.9 6.9 2.2 2.1 5.3 4.9 8.6 3.2 2.7-1.2 4.6-3.8 7-5.4 4.5-2.7 9.6 4.9 13 7h10.5C107 36 109 30.5 112 25.8c3-4.3 5.9-4.5 9.5-.7 6.4 6.4 7.4 8.3 16.5 10.5 2.3.7 4 3 6.1 3.9 4.5 2.2 9-.8 13-2.6q1.7-.9 3.5-1c2.8-.7 4.7-3.3 7-4.8 7.1-5.5 10.7 5 13.9 9.7h1.7" class="b"/><path d="M8.7 39.7h33c4.5-2.8 8.5-14.9 14.8-12.7 2 .9 3.6 2.6 5.2 4.1l3.4 3.1c2.3 2.2 5.4 5 8.7 3.5 2.7-1.2 4.6-3.8 7-5.5 4.5-3 10.3 5 13.9 7.3q2.6.3 5.2.2 1.8.2 3.5-.3c3.4-5 5.1-11.1 8.7-16 3.2-4.6 6.2-3.6 9.5.1 6.2 6.7 7.4 8.8 16.5 11.5 2.3.8 3.9 3 6 4.1 2 1 4.2.4 6.2.6 2.7-.8 5.2-2.4 7.8-3.4q1.7-.5 3.5-.8c2.6-1.3 4.5-3.8 7-5.3 4-2.9 7.4.7 9.5 4.1l1.7 3.1.9 1.7.8.6h1.8" class="b"/><path d="M8.7 38.7h29.5q2.2 0 4.4-.2 2.3-2.6 4.3-5.5c2.2-3 4.5-7.6 8.7-7.6 2.5.3 4.3 2.4 6 4q2.3 2 4.4 3.9c4.7 4.6 7.7 4.1 12.2-.3 4-4.1 6-3.6 10.4-.4 2.8 2 5.3 4.9 8.7 6 1.4 0 3 .3 4.3-.3 2.1-1.3 3.3-4 4.4-6q2.3-5.3 5.2-10.1c3.5-5.4 6.5-4.7 10.4-.2 2.8 3 5.3 6.5 8.7 8.9 2.6 1.9 5.9 2.5 8.7 4 1.2.6 2.4 1.8 3.5 2.7.3.3 1.2.9 1.7 1h7.8c2.1-.5 4-1.9 6.1-2.6 1.4-.6 3-.4 4.3-1.2 2.5-1.5 4.4-4 7-5.3 5.9-2.8 8.8 5.2 11.3 9.1h2.6" class="b"/><path d="M8.7 37.7h33.9c5-3.5 8.8-18 16.5-12.5q3 2.6 6 5.3c1.8 1.6 3.7 3.7 6.1 4.2 3.2.6 5.7-2.1 7.9-4 1.2-1 2.6-2.4 4.3-2.2 4.8.7 8 5 12.2 7 5.4 2.6 8.3-1.6 10.4-6 2-4 3.8-8.5 7-11.8 3.2-3.1 6.4.2 8.6 2.8 2.5 2.9 4.9 6.1 7.8 8.6 2.5 2.2 5.7 3.4 8.7 4.7 2 .8 3.5 2.7 5.2 3.8q5.2.2 10.5 0 2.4-1.4 5.2-2.3l2.6-.4c3.2-1.4 5.3-4.8 8.7-6 3.5-1.1 6.1 2.4 7.8 5 .8 1.1 1.3 3.2 2.6 3.8h2.6" class="b"/><path d="M8.7 36.7h34.8c4.1-3.9 6.4-12.6 12.1-14.1 2.4-.3 4.4 1.4 6 2.8l3.6 3c4.6 4.8 7.6 6.5 13 1.4 1.5-1.2 3.1-3 5.2-3 6.2.5 10.9 8.1 17.4 5.8 2.5-1 3.9-3.9 5.2-6.2 1.8-3.4 3.5-7.2 6-10 3.7-4.1 7-.5 9.6 2.6 2.8 3.2 5.4 6.9 8.7 9.7 2.5 2.1 5.8 3.2 8.7 4.8 1.2.7 2.4 2 3.5 2.8q1.2.5 2.6.3h4.3c1.7 0 3.6.3 5.2-.2l2.6-1.1q1.3-.6 2.6-.8a6 6 0 0 0 2.7-.6c2.4-1.3 4.3-3.6 6.9-4.8 5.3-2.2 7.8 4.3 10.4 7.5h3.5" class="b"/><path d="M8.7 35.7h35.6c4.4-3.8 7.9-18 15.7-13.3q2.7 1.9 5.2 4c1.8 1.6 3.6 3.6 6 4.3 2.7.7 5-1 7-2.7 1.3-1 2.7-2.4 4.3-2.8 4.4-.4 8.2 2.6 12.2 4 4.6 1.6 8.2-.4 10.4-4.5 2.4-3.8 4.2-8.5 7.8-11.3 3.5-2.3 6.6 1.8 8.7 4.1 2.6 3 5 6.4 7.8 9.1 2.5 2.5 5.7 4.1 8.7 5.7q2.3 1.5 4.4 3.4c4-.1 8.1.1 12.1-.2 1.6-.7 3.4-1.6 5.2-1.7 2.7.2 4.9-1.9 7-3.3q5.5-3.7 9.5 1.7c.8 1 1.7 2.6 2.6 3.4h4.4" class="b"/><path d="M8.7 34.7h35.6c.5 0 1.4-.2 1.8-.5C49 30 53.3 17.8 60 20.9q3.7 2.1 7 5c4 3.8 7 3.9 11.2.3 1.3-1 2.7-2.3 4.3-2.7C88.2 22.6 93.4 27 99 26c6.5-1.3 8-10.3 13-14 4.3-3.2 7.9 2.3 10.5 5 3 3.6 5.9 7.6 9.5 10.5 3 2.4 6.8 4 9.6 6.7 1 .7 2.4.4 3.5.4h8.6c1.2-.2 2.4-1 3.5-1.3l2.6-.5a7 7 0 0 0 2.6-.2c3-1 5.5-3.6 8.7-3.3 1.7.3 3.2 1.5 4.4 2.7.7.8 1.4 2.3 2.6 2.6h5.2" class="b"/><path d="M8.7 33.6h33q2.7.2 5.2-.1C49.8 29 54 16.9 61 20c6.7 2.8 9.5 10.8 17.3 4.4 1.3-1 2.8-2.2 4.3-2.7 6-1.2 12.4 2.5 18.3 0 5-2.3 6.5-8.8 11.3-11.6 3.4-2 6.5 1.4 8.7 3.8 2.7 2.8 5.1 6 7.8 8.8q4.2 4.5 9.5 7.9l2.6 2 1 .8.8.3h7.8q1.7 0 3.5-.2l2.6-1.1q1.6-.6 3.5-.7c1 .2 2.4.2 3.4-.2 6.3-2.5 8-3 13 2.1h7" class="b"/><path d="M8.7 32.6h39c2-3.5 3.7-7.3 6.2-10.5 2.3-3 5-4.4 8.7-2.6C69.4 23 71 28.2 79 22.1q1.6-1.4 3.4-2 1.8-.4 3.5-.6c5.2-.6 10.8.6 15.6-1.8 4.2-2.3 6-7.5 10.5-9.4 3-1.1 5.8 1.4 7.8 3.5l7 7.4q5 5.8 11.2 10.3l2.6 2.1.9.8.9.2h9.5c1.5-.2 3-1.2 4.4-1.6q1.6-.6 3.4-.5 1.7.5 3.5.2c5-1 7-1.5 11.3 2h8.7" class="b"/></svg>