<svg xmlns="http://www.w3.org/2000/svg" id="a" width="1920" height="2400" viewBox="0 0 192 240"><defs><style>.b{fill:none;stroke:#fff;stroke-miterlimit:10;stroke-width:.3px}</style></defs><path d="M0 0h192v240H0z" style="stroke-width:0"/><path d="M8.2 223h17.5c3-2.7 5.7-10 10.5-9.2 5.3 1.8 8.1 11.6 14.8 8.2 2.9-1.6 4.9-4.6 7-7 1.2-1.4 2.6-3 4.4-3.5 2.4-.1 4.3 2 6.1 3.4 2.8 2.3 6 3.6 9.6 2.3q1.8-.7 3.5-1.2 1.7-.3 3.5-.5c2.6-.6 5.4-.7 7.9.6 3 1.2 6.1 5.3 9.6 4.7 5.4-1.2 11-7.8 16.6-5.7 2.4 1.2 4 3.8 6 5.4 1.4.9 2.7 2.8 4.4 2.6h54.2" class="b"/><path d="M8.2 222h12.3c5.5 0 4.6.9 7.8-3.7 1.5-2.1 3-4.5 5.3-5.9 5.8-2.9 8.9 8.1 14.8 8.2 6.4.3 10.6-12.6 15.7-10.3 4.3 2.3 7.6 8 13.1 7q2.3-.5 4.4-1.2 1.7-.2 3.5-.5c3.7-1.3 7-1.6 10.5.4 2.1 1 4.4 3 7 2.4 5.4-1 11-6.2 16.5-3.5 2.1 1.2 3.5 3.4 5.3 4.9 2.6 2.1 2.6 2.5 6.1 2.3h53.3" class="b"/><path d="M8.2 221h16.6c3.7-2.8 6.2-10.9 11.4-10.7 5.4 1.1 8.1 10.3 14.8 7.5 4.3-2 6.5-6.7 10.5-9 5-1.8 8.8 9.8 16.6 8.2q2.2-.6 4.4-1 2.3-.2 4.3-1.3c5.5-2.6 8-1.1 13.1.8 2.4.7 4.8-.5 7-1 4.9-1.6 10.1-2.5 14 1.7 1.6 1.7 3.2 3.7 5.2 4.9h57.7" class="b"/><path d="M8.2 220H24c4.5-2.7 6-9.6 11.3-11.1 6-.6 8.9 10.2 16.6 6.3 2.3-1.3 4.2-3.3 6.1-5 1.2-1.1 2.7-2.5 4.4-2.7 5.5.4 8.4 11 16.6 9.1l5.2-1.1q1.8-.9 3.5-2c5.4-3.3 7.5-2 13.1-1 1.7.2 3.5-.4 5.2-.6 3.8-.6 8-.7 11.4 1.3 2.9 1.6 4.5 4.6 7 6.7 2.5.4 5.3 0 7.8.2h51.6" class="b"/><path d="M8.2 219h10.5q2.2.2 4.4 0 2.5-1.6 4.4-4c2-2.4 4-5.6 7-7 5.2-2.1 8.5 5.6 14 5.7 5 .1 8-4.7 12.1-6.7 6.6-3 9.5 12.2 19.3 9.2q1.6-.6 3.4-.8c3.9-1.5 6.4-5.4 10.5-6.3 2.6-.7 5.3.3 7.9.3a19 19 0 0 1 16.6 3.9c2 1.6 3.4 4 5.2 5.8h60.3" class="b"/><path d="M8.2 218H17c1.7 0 3.6.3 5.2-.2 1-.9 2.5-1.5 3.5-2.4 2.2-2 4-4.6 6.1-6.7 2.2-2.2 5-3 7.9-1.3 8 5.3 10.4 5.1 18.3-.1 3.6-2.3 5.9-2.1 8.7 1.1 4 4.3 7.5 9.7 14 7.2q1.8-.4 3.5-1.2c3.2-2 5.4-5.4 8.7-7.3a9 9 0 0 1 4.4-1.2c1.7 0 3.5.4 5.2.1 8.6-1.2 15.7 5.5 20.1 12h61.2" class="b"/><path d="M8.2 215.4c.4.5 1.3 1.3 1.8 1.6h10.5q1.3-.8 2.6-1.7l2.6-1.5q1.9-1.6 3.5-3.4c2.4-2.7 5.7-5.8 9.6-4.6 1.8.5 3.5 1.6 5.3 2.3 5 2 9.4 0 14-2.2 2.1-1 5-1.5 7 .2 3.7 3.2 6 8.7 11.3 9.7 2 .2 4.1-.7 6-1.3 2.3-.6 3.8-2.7 5.3-4.3 2.2-2.6 4.6-5.6 7.9-6.8a14 14 0 0 1 5.2-.4q1.8-.1 3.5-.1c6.3.5 11.1 5.4 14.8 10 4 5.4 2 4 8.8 4.1h55.9" class="b"/><path d="M8.2 213c1.3 1 2.6 2.9 4.4 3h6.1q2.3-1.2 4.4-2.5 1.8-.6 3.5-1.9c5.2-4.4 8.2-8.8 15.7-5.8 9.6 3.4 17.3-4.5 22.7-.2 3 2.8 5.2 6.7 8.7 8.9 2.2 1.3 4.8 1 7 0 1.5-.7 3.3-1.2 4.4-2.5 3.5-3.6 5.8-8.8 10.5-11.2q2.5-1 5.2-.7 2.2-.2 4.4.1c7.5 2 12.4 9.7 16.6 15.8H181q1.5.1 2.7-.3" class="b"/><path d="M8.2 210.6c4.3 4.3 7.8 5 13.1 2 1.7-.9 3.7-1.3 5.3-2.3 2.3-1.6 4.5-3.6 7-4.9 4.1-2.4 8.6-.6 13-.9 4.4-.1 8.8-1.3 13.2-1 3 0 5 1.1 7 3.5 2.3 2.7 4.5 6 7.8 7.5 2.4 1 4.9 0 7-1.2 1.8-.6 3.3-2 4.4-3.4 3.8-4.8 6.8-12.7 14-12.5q2.2-.1 4.3.1 1.9.4 3.5 1.4c6.2 3.7 9.9 10.4 14 16.1h55c.8.2 1.8-.4 2.6-.7h1.8q1.4-.3 2.6-1" class="b"/><path d="M8.2 208.6c4.8 4.2 8.3 4.4 14 1.9 1.4-.6 3-.8 4.4-1.5 2.9-1.5 5.6-3.5 8.7-4.6 2.5-1 5.3-1.1 7.9-1.3q3.9-.7 7.8-1.2 5-.5 9.6 1 2.4.5 4.4 2c3 2.4 6.4 9.1 10.5 9.1H78q1.5-.3 2.6-1l2.7-1.5c.9-.7 1.9-2 2.6-3 3.7-4.8 6.7-13.7 14-13.5a13 13 0 0 1 10.4 3.8c4.8 4.3 7.8 10 11.4 15.2h55c.9-.3 1.7-1.2 2.6-1.5.4-.2 1.3-.3 1.8-.3q1.4-.3 2.6-1.1" class="b"/><path d="M8.2 206.8c4.3 3.3 8 4 13.1 2.3l4.4-1q3.1-1 6.1-2.4 5.5-2.4 11.4-3.9c3-1 6.3-2.2 9.6-2 3.7.3 7.1 2.2 10.5 3.6 3.3 1.8 5 5.5 7.8 8 1.5 1.5 2.3 1.8 4.4 1.6 1.4 0 3 .4 4.4-.4l3.5-2.2a20 20 0 0 0 3.4-4.6c3.4-5 6.5-13.7 14-12.7q5.6 0 9.6 4c4.8 4.5 8 10.4 11.4 16h55q1.1-1.4 2.6-2.3c.4-.2 1.3-.3 1.8-.4q1.4-.5 2.6-1.4" class="b"/><path d="M8.2 205.4c4.8 3 8.7 3.2 14 2 2.3-.4 4.7-.5 7-1.2q6-1.6 11.4-4.2c6.4-3.2 10.4-6.3 17.4-2l3.5 2.1c1.1.7 2.6 1.3 3.5 2.2 2.4 2.3 4.3 5.4 7 7.5 1.4.3 3 .1 4.4.2 1 0 2.4.1 3.4-.2q2.4-1.4 4.4-3.4c4-5 6-12.2 11.4-16 2-1.4 4.6-1 7-.7 9.1 1 15 12.9 19.2 20 2.2.6 4.7.2 7 .3h48c.7-.8 1.7-2 2.6-2.6.4-.2 1.3-.5 1.7-.5q1.6-.7 2.7-1.7" class="b"/><path d="M8.2 204.3c5.3 2.6 9.3 2.3 14.9 1.6 3.5-.1 7 .2 10.5-1q4.7-1.5 8.7-4.6c2.4-1.7 4.9-3.8 7.9-4.3 4.5-.6 8 3.2 11.3 5.7 1 .8 2.5 1.4 3.5 2.3 2.1 2.1 3.9 4.8 6.1 6.8 2.9.4 5.9.1 8.7.2q2.4-1.7 4.4-3.8c3.5-4.7 5.5-10.7 9.6-15a7 7 0 0 1 6.1-2q2.7.3 5.3 1c6 2.1 9.8 7.7 13 12.9.9 1.3 2 3.1 2.7 4.5.2.6 1.1 2 1.7 2.4h54.2c.8-.8 1.7-2 2.6-2.7.4-.3 1.3-.6 1.7-.7q1.6-.8 2.7-2" class="b"/><path d="M8.2 203.4q3.5 1.3 7 1.6c2.6.2 5.3-.2 7.9-.2 2.9 0 5.8 1 8.7.6 4.2-.3 7.5-3.2 10.5-5.9 2.1-1.8 4.3-4 7-5 4.7-1.5 8.2 3.1 11.3 6 1.3 1.2 3.1 2 4.4 3.2 1.8 1.9 3.4 4.2 5.3 6 1 .5 2.3.3 3.4.3h6.1c7-4.3 8.3-13.4 14-19 3-2.9 6-1.5 9.6-.8 10 1.8 14.8 11.8 19.2 19.8h54.2c1-.5 1.7-1.9 2.6-2.5l1.7-.9q1.6-1 2.7-2.3" class="b"/><path d="M8.2 203c4.9 1.1 10 .7 14.9.9 2.6 0 5.2 1.4 7.8 1.6 10 1.3 14.8-17.7 23.6-11.8 2.7 1.9 4.7 4.7 7 7 1.4 1.3 3.2 2.2 4.4 3.7l2.6 3.2c.3.4 1.2 1.3 1.8 1.4h9.6c1-.3 1.8-1.4 2.6-2.1 1.4-1.2 2.6-3.1 3.5-4.7 2.6-4.3 5.3-11.9 10.5-13.4 2.3-.5 4.6.8 7 1.1 7.3 1 12 5.8 15.7 12l2.6 4.6c.2.6 1.2 2.1 1.7 2.5q27 .2 54.2 0c.8-1.3 2-2.6 3.5-3.1.9-.6 1.9-1.8 2.6-2.7" class="b"/><path d="M8.2 202.7c5 .5 10-.1 14.9.4 4.6.6 8.4 4.5 13 1.5 4.7-3.1 7.2-8.6 11.4-12.1 5.5-4.7 10 3 13.1 6.6 1.2 1.6 3 2.7 4.4 4 1.5 1.5 2.7 3.6 4.4 4.9q5.7 0 11.3-.1c1.1-1.2 2.6-2.6 3.5-4 1.2-1.7 2.5-4 3.5-6 2-3.4 4-7.8 7.9-9.4 2.7-.8 5.2 1.1 7.8 1.5 2.7.5 5.5.8 7.9 2 6 3.2 9 10 12.2 15.6q1.2.6 2.6.4h51.6c.9-.4 1.7-1.6 2.6-2.1 1.4-.6 2.6-2.2 3.5-3.5" class="b"/><path d="M8.2 202.7c4.7 0 9.4-.9 14-.2 4.5.2 8.5 5.2 13.1 2.7 5-3 7.4-9 11.4-13.1 5.6-6.3 9.7.6 13 5.2.8 1 1.8 2.3 2.7 3.1.8.7 2 1.5 2.6 2.3q1.8 2.1 3.5 4.3h12.2c5.6-4.5 7-12.5 12.2-17.3 3.8-3.3 6.7 0 10.5.7 2.6.4 5.4.2 7.9 1 7 2.2 9.5 9.9 13 15.5q27.2.2 54.2 0 1.3-1 2.7-1.7c.9-.9 1.9-2.3 2.6-3.3" class="b"/><path d="M8.2 202.9c3.5-.4 7-1.2 10.5-1.1q3.7-.1 7 1.3 2.5 1.7 5.3 2.8c1.4.1 3 .3 4.3-.5 5.5-3.7 7.7-10.7 12.3-15.3 5.1-5.5 9.5 2.4 12.2 6.3.7 1 1.7 2.5 2.6 3.4.8.8 2 1.6 2.6 2.4 1.2 1.1 2 3.2 3.5 3.8h2.6q5.3 0 10.5-.1c5-5 6.4-13 12.2-17 4-2.2 7.3 2.7 11.4 2.2 2.9 0 6-.8 8.7.4 6 2.5 7.6 9.7 11.4 14.5H175c5.4 0 5.8.4 8.8-4.5" class="b"/><path d="M8.2 203.3c6-1.3 12.8-3.2 18.4.3l1.7 1.1q1.4.4 2.6.3 2.7.1 5.3-.2c4.8-4.3 7-11 11.3-15.7 5.7-6.4 10.2 3.7 13.1 7.7q1.5 2.2 3.5 4c1.3 1.1 2.4 2.9 3.5 4.2h14c.7-.1 1.4-1 1.7-1.4 1-1.2 2-3 2.7-4.3 1.3-2.3 2.7-5 4.3-7.2 2-2.6 4.7-4.6 7.9-2.9 1.7.8 3.3 2.2 5.2 2.6 3.8.4 7.6-2.3 11.4-1 6.2 2.2 7.1 9.9 11.3 14.2h55c1.2-.8 2-2.5 2.7-3.6" class="b"/><path d="M8.2 203.7c6-1.7 12.8-3.7 18.4 0 1.6.4 3.5.2 5.2.3 1.7-.1 3.6.1 5.3-.2 4-3.9 9.3-18.7 14.8-18 3.9 1.2 5.7 5.7 7.9 8.7q1.2 2 2.6 3.8c.8.8 2 1.8 2.6 2.7.8.9 1.5 2.4 2.6 3h13.1c.8 0 2 0 2.6-.4 3.4-4.4 5.5-11.7 10.5-14.4 2.6-1 5 .9 7 2.2 2.8 2 6 .8 8.7-.5 7-3.4 10.2 1 13.1 6.8l2.7 4.4c.2.6 1.1 1.6 1.7 1.9h55c.6-.5 1.4-1.9 1.8-2.6" class="b"/><path d="M8.2 203h4.4q3.5-1.2 7-1 2.8.1 5.2 1h12.3c2-1.6 3-4.3 4.3-6.3 2.1-3.6 4-7.5 7-10.5 5.6-5 9.6 5 12.3 8.7 1.7 2.8 4.5 5 6 7.8 1.1.4 2.5.2 3.6.2h11.3q1.4.2 2.6-.3c2.7-4 5.6-12.1 10.5-13.2 2.7-.3 4.8 1.8 7 3 2.6 1.7 5.6-.1 7.9-1.5 4.6-3 8.1-3 11.3 1.9 2 3.2 3.8 6.8 6.1 9.8q1.3.5 2.6.3H183l.9-1.4" class="b"/><path d="M8.2 202h25.3c1.5-.2 3.1.2 4.4-.4 2.9-4.1 5-8.9 7.9-13 2.5-3.9 5.8-7 9.6-2.5 2.4 2.7 4 6.2 6.1 9.1.7 1 1.8 2.3 2.6 3.1.9 1 1.9 2.6 2.7 3.6h17.4c1.3-.5 1.9-2.5 2.6-3.6 1.3-2.2 2.7-4.7 4.4-6.6 3.8-4 6.8-1.2 10.5 1.1 2.7 1.8 5.6-.4 7.8-2 5.1-3.8 8.8-4.3 12.3 1.8q2.7 4.8 6 9.3 17.6.1 35 0h18.3q1.5.2 2.7-.4" class="b"/><path d="M8.2 201H38c2.9-4.2 5-9.1 7.9-13.3 2.5-3.7 5.8-7 9.6-2.5 2.4 2.7 4.1 6.1 6.1 9.1l2.6 3.3c.8 1 1.6 2.5 2.7 3.3H85c3-3.3 5.1-11.1 10.5-11 2.6.2 4.6 2.5 7 3.5 4.1 1.3 7.7-4.2 11.3-5.7 4.1-2.1 7 1.5 8.7 4.8 1.8 2.9 3.8 6 6.2 8.4h55" class="b"/><path d="M8.2 200H38c3.6-3.5 9.3-21.1 15.8-17.1 3.1 2.2 4.9 6 7 9.2 1.4 2.6 3.7 4.8 5.2 7.4q1.2.6 2.6.4h17.4c2.5-3.8 5.7-11.8 11.4-9.6 2.1.9 3.9 2.8 6.1 3.3 4.5 0 7.4-5.3 11.4-6.9 4.2-2 6.8 2.7 8.7 5.7 1.8 2.6 3.8 5.4 6.1 7.5h54.2" class="b"/><path d="M8.2 199H38c.8-.3 1.5-1.5 1.8-2.2l1.7-3.2q2.7-5 6.1-9.5c5.3-6.4 9.5 1.3 12.3 5.7 1.7 3.2 4.3 6 6 9q10.2.1 20.2.1c1.2-.6 1.8-2.4 2.6-3.5 1.7-2.6 4.2-6.3 7.8-5.5 2.6.6 4.5 2.9 7 3.4 4.2 0 7.1-4.7 10.5-6.7 4.7-3 7.2.8 9.6 4.4q3 4.2 7 7.8c17.7.3 35.5 0 53.3.1" class="b"/><path d="M8.2 198h19.3c3.7-.2 7.6.1 11.3-.2 2.5-4.4 4.8-9 7.9-13 3-4 6.1-5.2 9.6-1q2.9 4 5.2 8L66 198h21c2.3-3.3 4.7-8.8 9.5-8.2 4 .8 6.3 5 10.5 2 3.5-2.1 6.2-6.4 10.5-6.8 3.8.1 5.4 4.4 7.9 6.8 2 2.2 4.3 4.7 7 6.2h51.5" class="b"/><path d="M8.2 196.9h30.6c2.7-4 4.8-8.7 7.9-12.5q5.1-7.3 10.4-.1c3.1 4 5.3 9 8.8 12.6h21c1-.6 1.8-2.2 2.6-3.2 1.1-1.5 2.5-3.2 4.3-4 5.2-2.1 8 5 13.1 1.4 3.5-2.1 6.2-6.2 10.5-6.8 3.6-.2 5.4 3.8 7.9 5.8a59 59 0 0 0 6 5c2.4 1.8 2.4 1.9 5.3 1.8h47.2" class="b"/><path d="M8.2 195.9h30.6c.7-.3 1.5-1.6 1.8-2.2.4-.8 1.2-2.4 1.7-3.1q2-3.4 4.4-6.5c4.8-6.4 8.5-3.8 12.2 2l6.1 9.4c1 .7 2.4.3 3.5.4h19.2c2.2-3.3 5.1-8 9.6-7 2.1.5 4 2.1 6.1 2.5 4.8 0 8-5.4 12.3-7.1 4.3-2 6.5 2 9.6 4.3 3.3 2.6 7.1 4.7 10.4 7.3h48" class="b"/><path d="M8.2 194.9h31.5q2.7-5.1 6-9.8c2-2.6 5.2-6.5 8.8-4.5 2.7 1.7 4.4 4.7 6.1 7.3q2.3 3.4 4.4 6.8c2.6.4 5.3.1 7.9.2h14.8c2.8-3.1 5.5-8 10.5-6.4 1.7.5 3.4 1.7 5.2 2 4.2 0 7.1-3.9 10.5-5.8 5.5-3.3 7-.4 11.4 2.4 4 2.4 8.8 4.2 12.2 7.6 5.3.4 11.2 0 16.6.2h29.7" class="b"/><path d="M8.2 193.9h31.5c1.1-.9 1.8-2.7 2.6-3.8q2.7-4.4 6.1-8c4.2-4.4 7.6-1.7 10.5 2.3L65 194h22.7c1-.5 1.8-2 2.6-2.8 1.4-1.5 3.2-3.1 5.3-3.5 2.7-.5 5.2 1.3 7.8 1.8 2.6.2 5-1.5 7-2.9 2.8-1.8 6-4.5 9.6-3.6 1.5.5 3 1.8 4.4 2.4 6.1 2.3 10.4 3 14.8 8.5q22.3.1 44.6 0" class="b"/><path d="M8.2 192.9h32.4q2.7-4.6 6-8.9c2.4-3 6-6.3 9.7-3.2 3.7 3.3 5.9 8 8.7 12h20.1c1 0 2.5.3 3.5-.2 2.2-3 5.4-6.6 9.6-5.8 1.7.3 3.5 1.2 5.2 1.5 2.2.2 4.3-1 6.1-2 3.2-1.8 6.6-4.6 10.5-4 1.5.4 2.9 1.3 4.4 1.7 2.2.5 4.7.5 7 1.2 4.3 1 6.8 4.5 9.6 7.7h42.8" class="b"/><path d="M8.2 191.9h32.3c1.3-.5 1.9-2.3 2.7-3.2q2.8-4 6-7.4c7.4-6.8 12.1 5.9 15.8 10.6h14.8c3-.1 6 .2 8.8-.2 2.3-3 5.5-6.3 9.6-5.8 1.7.2 3.5 1 5.2 1.3 2.5.2 4.9-1 7-2.1 3.2-1.7 6.7-4 10.5-3.2q2.1.8 4.4.8c2 0 4-.4 6-.2 5 .6 8.2 5.1 10.5 9 1.6.7 3.6.3 5.3.4h36.6" class="b"/><path d="M8.2 190.9h33.2c3.4-3.4 5.7-8.1 9.6-11 6.8-4.1 10.8 6.9 14 11h23.6c2.5-3.2 6-6.6 10.5-5.8 2 .3 4 1.2 6 .9 5.8-.8 10.7-5.8 16.7-4.7 2.6.6 5.3-.8 7.8-1.3 7.6-1.6 10.2 6.2 14 10.9h40.2" class="b"/><path d="M8.2 189.9h34.1c3-3.2 5.3-7.3 8.7-10 6.8-5 10.8 5.6 14 10h23.6c2.8-3.4 6.7-6.7 11.3-5.6 2.3.5 4.7 1 7 .3 3.9-.9 7.5-3 11.4-3.8 1.6-.5 3.5-.2 5.2-.5 2.7-.7 5-2.7 7.9-3.2 7-1 9.6 7.8 13 12.4q.9.3 1.8.4h37.6" class="b"/><path d="M8.2 188.9h35c2.6-2.4 4.4-5.8 7-8.3 7-7.4 11.6 2.9 14.8 8.3h23.6c9.8-10.3 11-2.6 21-5.8 2.8-.9 5.7-2.2 8.7-3 1.3-.3 3-.4 4.3-.6q1.5-.5 2.7-1.3c3-2 6.6-5.5 10.4-3.5 5.3 3.1 6.5 10 10.5 14.1h37.6" class="b"/><path d="M8.2 187.8H44c1-.6 2-2 2.7-3 1.3-1.7 2.7-3.7 4.3-5.2 6.6-6.8 11.3 3 14 8.2h23.6c4.5-4 7.6-6.2 14-4.8 2.9.5 5.9-.2 8.7-1.1q3.9-1.5 7.8-2.6 1.8-.5 3.5-.9 2.5-1.2 4.4-3.2c11.3-11.7 14.3 5.8 20 12.6h36.8" class="b"/><path d="M8.2 186.8H45c1-.6 2-2.1 2.6-3.1q1.6-2.3 3.5-4.4c6.7-7.6 11.1 1.3 14 7 1 .8 2.4.5 3.5.5h20.1c3.4-2.4 5.9-4.9 10.5-4.7q2.6.2 5.2.5c5.5 0 10.6-2.7 15.7-4.4 4.3-.8 6.6-4.8 9.6-7.5 9.6-8.8 13.4 11.3 18.4 16.1h35.8" class="b"/><path d="M8.2 185.8h37.6c3.4-3.6 7.8-14.4 14-9.2 2.8 2.5 3.8 6.4 6 9.2h21.9c1.8.3 3-1.3 4.4-2 3.6-2.4 7.2-2.2 11.3-1.6 4.3.2 8.4-1.5 12.2-3.1l4.4-2q2-.5 3.5-1.7c3.1-2.7 5.2-6.7 8.7-9 5.4-2.6 8.5 5 10.5 8.7q2.5 5.2 5.3 10.3.8.5 1.7.4h34.1" class="b"/><path d="M8.2 184.8h33.2c1.7 0 3.6.3 5.3-.3 8.3-13.3 12-15.2 19.2.2q7.4.1 14.8.1h6.1c1.1 0 2.5.2 3.5-.4 7.6-5.1 10.4-1 17.5-2.8 3.7-1 7-2.9 10.5-4.6l4.3-2.3q1.6-1 2.6-2.6c2.7-3 4.7-7.3 8.8-8.5 6.6-1 11 16.6 14.8 21.2h35" class="b"/><path d="M8.2 183.8h38.5c3.3-4.4 8.7-17 14.8-8.8 1.3 1.8 2.5 4.2 3.5 6.2a8 8 0 0 0 1.7 2.6h23.6c1.2 0 2.4-1 3.5-1.2q2.2-.7 4.4-.6c2.3 0 4.7.8 7 .4 4.2-.7 7.8-3.2 11.3-5.4 2.2-1.6 5-2.7 7-4.4 3.1-3.2 5.1-7.5 8.7-10.1 5.4-3.3 8.6 4.5 10.5 8.2 2 4.2 3.9 8.8 6.1 12.8 1.4.5 3 .2 4.4.3h30.6" class="b"/><path d="M8.2 182.8h38.5c1.2-.7 1.8-2.5 2.6-3.6 1-1.7 2.2-3.7 3.5-5.2 7-9 11 3.5 14 8.8h24.4c1.7.2 3.5-.5 5.2-.6 2.4-.2 4.7.6 7 .6 4.8 0 8.6-3.7 12.2-6.3l4.4-3.2q2.6-1.3 4.4-3.3c3-3.3 5.2-8.5 9.6-10 7.2-1.5 11.5 18.6 15.7 22.8h34" class="b"/><path d="M8.2 181.8h39.3c2.8-4.2 8-17.4 14-10 2.1 2.8 3.6 6.4 5.2 9.5q.8.6 1.8.5h38.4c2-.7 3.7-2.3 5.3-3.5 3.3-3 6.5-6.1 10.4-8.3 3.7-3.2 5.7-8 9.6-11 6-4 9.4 5.7 11.4 9.7 2 4.3 3.8 9 6.1 13.1h34" class="b"/><path d="M8.2 180.8h39.3c1.6-1.3 2.4-3.8 3.5-5.5 2-3 5.5-9.3 9.6-5.8 2.4 2.3 3.7 5.8 5.3 8.7a7 7 0 0 0 1.7 2.6h40.2c3.7-2.3 6.4-6 9.6-8.8q1.6-1.6 3.5-2.8 2-1 3.5-2.7c3-3.3 5.2-8.3 9.6-10.1 5-1 7.8 6.8 9.6 10.4 2 4.4 3.9 9.2 6.1 13.5l.9.5h33.2" class="b"/><path d="M8.2 179.8h40.2c2.7-4.6 8.1-18.2 14-9.5 2 3 3 6.7 5.2 9.5H107c1 .2 2-.5 2.6-1.2 3-3 5.7-6.5 8.8-9.3q2-1.9 4.3-3 1.6-1.2 2.7-2.6c2.7-3 5.2-8.3 9.6-9.1 7.1-.3 11.4 20.1 15.7 25.2h33.2" class="b"/><path d="M8.2 178.8h40.2c1.2-.9 1.9-3 2.6-4.2 1.2-2.2 2.7-4.7 4.4-6.5 6.3-6.2 9.3 7 12.2 10.7H107c1 .2 2-.7 2.6-1.4 3.3-3.5 6-7.7 9.7-11q1.6-1.2 3.4-2 1.6-1 2.7-2.4c2.8-3 6-9 10.5-8.9 4.7 1.1 6.8 8 8.7 12 1.9 4.5 3.7 9.4 6 13.7h33.3" class="b"/><path d="M8.2 177.8h41c2.2-3.6 7-16.4 12.3-10.9 2.6 3.2 4 7.4 6.1 10.9h40.2c4-3.7 6.6-8.8 10.5-12.6q1.8-1.8 4.3-2.8a15 15 0 0 0 3.5-3c2.9-3 6.6-9.5 11.4-7 3.6 2.5 5.2 7.2 7 11.1 1.9 4.6 3.8 9.5 6 13.9 1.4.7 3 .3 4.5.4h28.8" class="b"/><path d="M8.2 176.8h41c1.2-1.1 2-3.2 2.7-4.5 1.2-2.2 2.6-4.7 4.4-6.4 3.6-3.5 6.3.9 7.8 4l3.5 6.6q1.3.4 2.6.3H100c2.6-.1 5.4.2 7.9-.2 4.2-4.4 6.8-10.2 11.4-14.3 1.1-1.2 3-1.4 4.3-2.2 1.6-1 3-2.7 4.4-4.1 6.6-7.7 10.6-6.8 14.8 2.2 1.9 4 3.5 8.4 5.3 12.4l1.7 3.8c.3.6 1 2.1 1.8 2.4h32.3" class="b"/><path d="M8.2 175.8H45c1.7-.2 3.7.3 5.3-.4 2-3.8 6.9-16.7 12.2-9.7 1.2 1.9 2.4 4.3 3.5 6.3.7 1.1 1.3 3.2 2.6 3.7h38.4c5-4.3 7.2-11.2 12.2-15.5 1.3-1.1 3-1.2 4.4-1.8 2-1.1 3.7-3 5.3-4.5 6.4-6.7 10.3-4.5 14 3.2q2.7 6.2 5.2 12.3c1 2 1.7 4.9 3.5 6.4h32.3" class="b"/><path d="M8.2 174.8h42c2.2-3.6 6.8-17 12.2-10.2 2.2 3.1 3.5 7.2 6 10.2h36.8c.4 0 1.3-.2 1.7-.4 3.5-3.6 5.8-8.3 8.7-12.3 5.4-7.5 5.4-3 10.5-7 3.2-2.1 6.2-6.4 10.5-5.7 6.8 1.8 10.2 20.5 14.9 25.4h32.3" class="b"/><path d="M8.2 173.7h42c2.4-2.7 5.5-13.7 10.4-11.9 1.6.9 2.7 2.9 3.5 4.4q2.1 3.9 4.4 7.5h33.2c4.2 0 4.2.5 7-3 2.7-3.8 5-8.1 7.8-11.8 4.7-6 5.3-1.6 10.5-5.4 3.2-2.2 7.3-6.3 11.3-3.6 4.2 3.3 5.7 9 8 13.7.6 1.8 1.7 4.2 2.5 6 .7 1.2 1.4 3.4 2.7 4.1h32.3" class="b"/><path d="M8.2 172.7h42c.7-.3 1.4-1.8 1.7-2.6l1.8-3.4c1.5-2.6 4.2-8.2 7.8-5.6 2.2 2.3 3.5 5.6 5.2 8.3.7 1 1.5 2.7 2.7 3.3h25.3l2.6-.1c1.6-.9 3.7-1 5.3 0 3.6 1 6-3.9 7.8-6.3 1.7-2.7 3.4-5.7 5.2-8.2 1.5-2 3.4-4.7 6.2-4.4 1 .2 2.4 0 3.4-.3 3.6-1.3 6.6-4.5 10.5-4.5 5 .6 6.9 6.4 8.8 10.2q2.7 6.8 6 13.2c1.3.8 3 .3 4.4.4h28.9" class="b"/><path d="M8.2 171.7h41.1q1 .1 1.7-.4c1.8-3.4 6.4-16.3 11.4-10.6 2.4 3.5 4.3 7.5 7 10.8 1 .4 2.4.2 3.5.2h22.7c.4-.2 1.3-.6 1.7-1 2.5-1.2 3.7-.6 6.1.3 4.7.1 9.8-12.5 13.1-16 1.3-1.5 3.1-3.5 5.3-2.9q1.7.6 3.5.3c3.5-.8 6.7-3.5 10.4-3.3 4.9.6 6.9 6 8.8 10s3.7 8.6 6 12.6h33.3" class="b"/><path d="M8.2 170.7h37.6c1.7 0 3.6.3 5.2-.2 1.8-3.3 6.5-16.8 11.4-11.3 2.6 3.8 4.7 8 7.8 11.4 8.2.3 16.4 0 24.5.1 10.2-8.1 6.6 7.8 18.3-12.4 1.9-2.6 4.9-8.9 8.8-7.6 3.3 1.8 7 0 10.4-1 6-1.7 9.2 3 11.4 7.7l4.4 9.2c.6 1.2 1.5 3.2 2.6 4.1h33.2" class="b"/><path d="M8.2 169.7h28q7.5.2 14.8-.1c1.6-3.1 5.8-15.4 10.5-12.7 1 .8 2 2.3 2.6 3.4q2 3.3 4.4 6.3c1.2 1.2 2.4 3.4 4.4 3.1h21c9.4-9 7.9 4 15.6-7.6 2.7-3.6 6.1-11.9 10.5-13.1 1.3-.2 2.4.8 3.5 1.2 2.5 1 5.3.4 7.9 0 5.5-1.2 8.8 1.1 11.3 5.9 2.4 4.3 4.4 9.2 7 13.4 1.4.4 3 .2 4.4.2h29.7" class="b"/><path d="M8.2 168.7q21.5.1 42.8 0c1.6-3.2 5.9-15.8 10.5-13.3 1 .7 2 2.2 2.6 3.2q2 3.1 4.4 6c1.5 1.5 3.8 4.3 6.1 4.1H93c10.3-10.7 8.6 3.6 16.5-8.3 2.5-3.2 6.9-13.6 11.4-12.7 4.9 3 6.6 2.8 12.2 2.7 7.5-.4 10.2 7.5 13.1 13 1 1.6 1.8 4.2 3.5 5.3h34" class="b"/><path d="M8.2 167.7q21.5 0 42.8 0c1.6-3.2 5.9-16 10.5-14 1.9 1.4 3 4 4.4 5.7a23 23 0 0 0 7 6.5q2 1 4.3 1.8h11.3q1.9.2 3.6-.2c10.8-10.9 9.4 1.2 15.7-6.4q3.3-4.6 6.1-9.4c1.7-2.2 3.7-6 7-5.3 2 1.2 3.8 2.8 6.1 3.4 3.7 1.3 8 .6 11.4 2.7 5.2 3.6 6.4 10.6 10.4 15.2h35" class="b"/><path d="M8.2 166.7H51c1.7-3.3 6-16.4 10.5-14.7 1.5 1 2.5 3 3.5 4.3 1.7 2.2 3.7 4.5 6.1 6 3.2 2.1 7.2 2.6 10.5 4.4h8.7c2-1.4 4-3.4 6.1-4.7 6.4-3.7 6.3 4.6 12.3-3.7 2.7-3.3 6.8-13.3 11.3-13.3 1.7.3 3 2 4.4 3q2.8 1.8 6 2.7c2.4.6 5 1 7 2.1 5.4 2.9 7 9.4 10.6 13.9h35.8" class="b"/><path d="M8.2 165.7H51c1.7-3.3 6-16.8 10.5-15.4 1.9 1.1 2.9 3.6 4.4 5.1 2.4 3 5.8 5.4 9.6 6.3a16 16 0 0 1 7.9 3.8c1.3.4 3 .1 4.3.2 1.7-.1 3-1.6 4.4-2.5 11.8-9.8 9.3 4.4 17.5-7.6 1.7-2.6 3.4-5.6 5.2-8 1.4-1.9 3.5-4.6 6.1-3.5q1.5 1 2.6 2.3 2.8 2.4 6.1 4c2.3 1 4.8 1.6 7 2.7 5.3 2.4 7.3 8.3 10.5 12.6h16.6q1.3-.3 2.6-.3 3.5.4 7 .3h10.5" class="b"/><path d="M8.2 164.7H51c1.7-3.1 6.5-19.3 11.4-15.6 4.2 5.3 6.8 8.9 14 10.2 8.9 1.5 6.3 8.1 16.5 1.3 10.4-6.9 8.9 4.2 15.8-5.1 2.3-3.4 4.3-7.2 7-10.4 3.1-3.5 4.8-3 7.8.4q2.4 2.3 5.3 4.2 3.8 2 7.8 4c4.6 2.2 6.8 7 9.6 11H162c.5 0 1.4-.3 1.8-.5q1.2-.5 2.6-.5 2.3 0 4.4 1h13" class="b"/><path d="M8.2 163.7H51c1.9-3.2 6.4-19.7 11.4-16.5 4.8 5.8 7 8.5 14.8 9.7q2.3.4 4.4 1.6l2.6 2c3.3 1.5 6.7-.9 9.6-2.2 2.4-1.1 5.4-1.9 7.9-.7 3.4 2.3 6.1-2.2 7.9-4.6 2-3 3.8-6.3 6-9 2.4-2.6 4.7-3.3 7-.2q2.9 3.1 6.2 5.6c8.8 6 10 4.3 16.6 14.2h16.5c1.6-.7 3.5-1.5 5.3-1.4s3.5 1 5.2 1.4H183l.9-.5" class="b"/><path d="M8.2 162.7H51c3-5.7 4-12.8 8.8-17.4 4.3-3 4.3 7.7 17.4 9.2a12 12 0 0 1 6.1 2.8c3.6 2.6 7.8 0 11.4-1 2.5-.8 5.4-.8 7.8.5 4.5 1.8 9.9-10.8 13.1-13.6q3.7-4 7 .1 3 3.2 6.1 6c3.6 3 8 5 11.4 8.1 1.6 1.5 3 3.6 4.4 5.2h17.4q2.4-1.4 5.3-1.6c2 0 4.1 1 6 1.6h8.8l1.8-1.1" class="b"/><path d="M8.2 161.7H51c2.2-4 3.3-8.8 5.3-12.8 1.5-3.2 4.4-9.3 7.8-4.2 3.1 3.9 7.3 7 12.3 7.6q2.7.4 5.2 1.5c1.1.6 2.3 1.6 3.5 2 3.2.8 6.5-.6 9.6-1.1q4-.8 7.9.7c4.5 1.4 9.6-10 13-12.8 3.4-3.2 5.4-1.5 8 1.5q2.5 2.8 5.2 5.4c2.9 2.7 6.4 4.8 9.6 7.2 2 1.3 3.4 3.5 5.2 5H162c.8-.1 1.8-.8 2.6-1.1q1.6-.6 3.5-.5c2 0 4 1 6 1.6h7.1q1.5-.6 2.6-1.6" class="b"/><path d="M8.2 160.7H51c1.8-2.3 2.4-6 3.5-8.7 1.4-3.2 3.4-10.4 7-11.3 1.5.1 2.5 1.8 3.5 2.8q2 2.2 4.4 4 2.8 2.1 6 2.9c2.4.5 5 .7 7 2 4.2 2.9 9.4.5 14 .6 7.8.2 6.8 3.7 13.1-3.8 2.5-2.8 5.5-8.4 9.6-8.4 2 .2 3.2 2 4.4 3.3q6.2 7.2 14 12.5 2.3 1.7 4.4 3.8 1.2.4 2.6.3h18.3c1.4-.6 2.9-1.4 4.4-1.5 2.7-.3 5.3.8 7.9 1.5 2-.1 4 .1 6-.2q1.5-.7 2.7-1.8" class="b"/><path d="M8.2 159.6H51l.9-.7c1.7-4.5 5.2-18.5 9.6-20 1.5 0 2.5 1.6 3.5 2.5q2 2.3 4.4 4.3c4 3.5 7.4 3.3 12.2 4.6 4.8 2.6 9 1 14 1.2q3 .1 6 .8c2.5.7 4.6-1 6.2-2.6 3.8-3.6 9.5-13.4 14.8-6.5a85 85 0 0 0 17.5 16q1.2.6 2.6.4h21q2-1.1 4.3-1.3c3.3-.4 6.4 1.5 9.7 1.3h2.6q1.9-.9 3.5-2.2" class="b"/><path d="M8.2 158.6q22 .1 43.7 0c2.1-6 4.4-16.3 8.7-20.8 1.4-1 2.6-.1 3.5 1l3.5 3.6a18 18 0 0 0 13.1 6.4c1.4.2 3 1 4.4 1.1 2 .3 4.1 0 6 0 3.9-.2 7.7.6 11.4 1 4.5-.4 7.8-6 11.4-8.4 6.2-4.7 9 1.6 13 5.6q5.5 6 12.3 10.5h24.5c.8.2 1.8-.5 2.6-.7q2.1-.7 4.4-.5c5 .4 8.7 2.8 13-1.3" class="b"/><path d="M8.2 157.6H52c2.1-4.1 5.5-21.4 10.5-21.5 1.7.8 3 2.7 4.3 4 2.3 2.6 4.8 5.3 8 6.8 2 1 4.6 1 6.9 1.2 3.4.8 7 .3 10.5.3s7 1 10.5.8c5.7-1 8.8-7.8 14.8-8.4 2-.1 4 1.2 5.2 2.6l4.4 4.6q4.8 5.3 10.5 9.6h26.2a7 7 0 0 0 3.5-.7q2.2-.7 4.4-.6c4.5.3 8.4 2.2 12.2-1.5" class="b"/><path d="M8.2 156.6H52c.8-.7 1.5-3.1 1.8-4.1l1.7-5.5c1.2-3 3.4-11.3 7-11.7 1.8.6 3 2.5 4.4 3.8 2.7 3.2 5.4 6.9 9.6 8.2q2.5.5 5.2.3c3.2 0 6.4-.5 9.6-.5 3 0 5.9.6 8.7.7 4.5.4 7.8-3.2 11.4-5.3 5.5-3.4 9-1.8 13.1 2.6 4 3.9 7.5 8.5 12.2 11.5h28.8c2-.5 4-1.5 6.1-1.5 4.3-.2 8.8 1.9 12.3-1.7" class="b"/><path d="M8.2 155.6h38.5q3 .2 6-.2c1.6-4.2 5.2-19.8 9.7-20.6 2.3.7 3.7 3.2 5.2 4.9 1.9 2.2 3.8 4.7 6.1 6.4 2.6 2 5.8 1.8 8.8 1.1 3.4-.5 7-1.5 10.5-1.3 2.5.1 5.2.8 7.8.5 5-1 8.8-5.5 14-6 4.7-.7 8.3 3 11.3 6.1 3.1 3.1 6 6.6 9.6 9.1h30.6q2.9-1.5 6.1-1.9c3.9-.3 8.3 1.5 11.4-1.8" class="b"/><path d="M8.2 154.6h44.6c2.3-4.3 4.7-18.3 9.6-19.7 3.4.5 7.7 9.3 11.3 11.7 1.7 1.3 4 1.9 6.1 1.4 3-.7 5.8-2 8.8-2.7s6.4-.2 9.6 0c2.5.2 4.9-1 7-2.3 3.1-1.9 6.7-3.8 10.5-3.3 8.2 1.4 12.9 9.9 19.2 14.7q1.2.3 2.6.2h28.8q2.4-1.5 5.2-2.2 3.5-.6 7-.2 1.4 0 2.7-.2 1.4-.6 2.6-1.7" class="b"/><path d="M8.2 153.6H51c.8 0 2 0 2.7-.4 1.5-4.2 4.4-16.5 8.7-17.9 2.9.3 5.2 5 7 7.2 2.2 3 5.2 7.2 9.6 6.3 3.9-1 7.3-3.8 11.3-4.4 3.2-.7 6.5.2 9.6-.4 2-.3 3.6-1.8 5.3-2.7 2.6-1.6 5.6-2.8 8.7-2.5 6.4.8 11.4 5.4 15.7 9.8l3.5 3.3c.7.6 1.6 1.7 2.6 1.7h30.6c9.2-6.3 13.2-.6 17.5-5" class="b"/><path d="M8.2 152.6h45.4c.6-.8 1.6-3 1.8-4 1.2-3.4 2.5-7.2 4.4-10.1 2.1-3.2 3.8-2.8 6 0 3 3.5 5 8 8.8 10.6 4 2.7 8-1.5 11.4-3.3 1.8-1 4-2 6-2.2 4.3-.5 8 .5 11.4-2.8 6.3-4.8 11-3.7 17.5-.1 6 2.5 9.4 8.6 14.8 11.9h28l2.6-.1 1.7-1.3q2.4-1.7 5.3-2.4 2.5-.5 5.2-.3h2.6c1-.2 2-1 2.7-1.6" class="b"/><path d="M8.2 151.6h46.3c2-4 3.7-12.3 7.9-14.1 2.8-.1 4.6 3.8 6 5.8 2.2 3 4.2 6.9 8 8 4 .5 7.1-4 10.4-5.9q2.9-1.8 6.1-2.4c3-.5 6.3-.1 8.8-2q2-2 4.3-3.4c6-3.5 11.2.9 16.6 3 3.4 1.7 6 4.6 8.8 7 1.6 1.4 3.2 3.3 5.2 4h27.9c.5 0 1.4-.2 1.8-.4q2.8-2.4 6.1-3.9 2.9-1 6.1-.8c2.2.3 3.5.3 5.3-1.4" class="b"/><path d="M8.2 150.6h47.2c1.6-3.7 5.4-16.4 10.5-9.5 2.4 3 4.1 6.8 7 9.5 2.8-.1 5.8.2 8.7-.2 4.7-4.5 8-7.7 14.8-8.3 3.9-.5 5.2-2.2 7.9-4.6 6-5 10.7-1.2 16.6 1.3 6.4 1.7 10.2 8 15.7 11.3 1.2.9 3 .4 4.4.5h24.4c3.3-2.8 6.9-6 11.4-6.1 2.9-.2 4.6 1.2 7-1.2" class="b"/><path d="M8.2 149.6h48c1.7-3.5 5.3-12.7 9.7-6.9 1.2 1.5 2.4 3.5 3.5 5.1.3.6 1 1.6 1.7 1.8h12.2c4.5-5 7.4-7 14-8.2q2.5-.6 4.4-2.3c2.5-3 6.2-6.2 10.5-5.1 2.7.6 5.2 2.2 7.8 3.2l2.6.7q1.9.6 3.5 1.7c4.5 3.1 8 7.9 13.1 9.7q1.7.4 3.5.3H162c2.9 0 3 0 5.2-2s4.8-4.1 7.8-4.9q2.2-.5 4.4 0l1.8.2q1.4-.4 2.6-1.5" class="b"/><path d="M8.2 148.6h49c4.8-7.4 6.3-8.3 11.3-.3q1.2.4 2.6.3h4.4c3.2-.1 6.4.1 9.6-.2 2.4-2.6 5.3-5.1 8.7-6.2 2-.7 4.3-1.2 6.1-2.3s3-3 4.4-4.4q4.7-4.5 10.5-1.9c1.7.7 3.5 1.7 5.2 2.2 1 .4 2.4.3 3.5.7 5.1 2 8.4 6.8 13.1 9.5q1.6.9 3.5 1.3 3-.1 6.1 0 2.7.5 5.3 1.2h12.2c.5 0 1.4-.5 1.7-.9l2.6-2.3c2.7-2.4 5.9-5 9.7-4.8 2.5 0 3.8 1.3 6-.9" class="b"/><path d="M8.2 147.6H59c3-3.6 5-4.1 7.9 0h17.4c1.6 0 2.4 0 3.5-1.4q1.6-1.6 3.5-2.7c2.7-1.7 6-2.1 8.7-4 2-1.4 3.4-3.8 5.3-5.4 4.7-4.3 8.9-1.9 14 0q1.6.5 3.4.3a9 9 0 0 1 3.5 1.3c5 2.7 9.6 10 15.7 9.2q4.6-.6 8.8.8c1.7.5 3.4 1.5 5.2 1.9h5.2c1.2 0 2.7.1 3.5-.8 4.2-3.3 8-8.8 14-8.1 2.2.4 3.3 1 5.2-.8" class="b"/><path d="M8.2 146.6h79.5q2.4-2.4 5.2-3.8c2-1 4.3-1.6 6.1-2.8 3.5-2.1 5-6.4 8.8-8.3 3.6-2 7.7-.2 11.3.7 1.4.3 3 0 4.4.1 3.4.8 6 3.5 8.7 5.7 8.5 7.1 7.3 3.1 15.8 4.3 3.3.7 6.4 2.6 9.6 3.8 1.3.5 3 .2 4.3.2 2.1-.4 3.7-2.3 5.3-3.6 3-2.7 6.2-6 10.5-6 2.5.1 3.8 1.5 6-.6" class="b"/><path d="M8.2 145.5h80.4c.5 0 1.4-.5 1.7-1L93 143c2.2-1.2 4.9-1.8 7-3.4 1.7-1.3 2.9-3.4 4.3-5 3.8-4.4 7.6-5.5 13.1-4.2q2.7.5 5.2 0a8 8 0 0 1 4.4 1.4c4.5 2.6 7.8 7.7 13.1 8.6 2 0 4.1-.7 6.1-.5 2.8.2 5.5 1.4 7.9 2.7 2.4 1.2 5 3 7.9 2.4 5.7-2.2 9-9.6 15.7-9.6 2.4 0 3.8 1.6 6-.6" class="b"/><path d="M8.2 144.5h82.1q1.8-.8 3.5-1.7c2.8-1 6-2 7.9-4.5 4.6-6.4 8.1-10.1 16.6-9.4 1.7.2 3.5-.5 5.2-.6 5.6.9 9 6.9 14 9.2q2.2 1.1 4.3.7a17 17 0 0 1 5.3-.2 23 23 0 0 1 7.8 3c2.7 1.5 5.9 3.5 8.8 1.6 4.8-2.8 8.5-9 14.8-8.3 2 .4 3.3 1.1 5.3-.6" class="b"/><path d="M8.2 143.5h76q4.4 0 8.7 0c2.4-1 5-1.5 7-3 2.2-1.7 3.5-4.4 5.3-6.4a17 17 0 0 1 14-7c1.4-.1 2.9-.8 4.3-.8 4 .3 6.7 3.7 9.6 6 2.2 2 4.8 4.2 7.9 4l4.4-.5q4.1.2 7.8 2.1c2.3 1.2 4.5 2.7 7 3.3 5.4 1.3 10-7.9 16.6-8.3 1.4-.2 3 .3 4.4.6q1.5-.1 2.6-1.2" class="b"/><path d="M8.2 142.5h86.5q1.4.2 2.6-.3c3.2-1 5.2-4.1 7-6.8q2.7-3.8 6.1-6.8c2.7-2.2 6.2-3 9.6-3.6 3.4-1 4.8-1.1 7.9 1 4.5 3 8.8 9.7 14.8 8.1q4.5-.8 8.8.7c2.3.9 4.6 2.3 7 3.4q3 1.6 6 0c4.3-2.3 8-6.7 13.2-6.8 2.4 0 3.8 1.3 6-.7" class="b"/><path d="M8.2 141.5h88.2c1.1 0 2.6.3 3.5-.4 1.8-1.5 3.1-3.7 4.4-5.6q2.7-4 6.1-7.7 4-3.8 9.6-4.6c3.4-1.2 4.9-1.1 7.9 1 4.5 3 8.7 9.6 14.8 8.1q4-.7 7.9 0 3.6 1 7 3c1.8.8 4 1.9 6 1.2 4.7-1.6 8.2-5.8 13.2-6.4q2.2-.3 4.3.2 1.6-.2 2.7-1.1" class="b"/><path d="M8.2 140.5h92.6c5.4-6.5 8.5-16.4 17.5-18.7 2-.3 4-1.5 6-1 5.2 1.6 8.4 6.8 13.2 9.1 5.2 2.6 9.1-2.2 17.4 1.5q3 1.5 6.1 2.7c4.8 1.2 9.5-3.7 14-5q2.2-.7 4.4-.6 2.3.5 4.4-1" class="b"/><path d="M8.2 139.5h93.5c4.4-6.2 7-14.4 14-18.4q2-.8 4.3-1.4 1.8-.4 3.5-.6c2 .3 3.7 1.5 5.2 2.6 2.4 1.8 4.6 4 7 5.6 1.8 1.1 4 2 6.2 1.7 3.4-.5 7-1.6 10.4-.8 7.8 1.7 8.8 6.3 17.5 2 2.5-1.2 5.1-2.5 7.9-3l3.4-.1q1.5-.4 2.7-1.2" class="b"/><path d="M8.2 138.5h93.5l.9-.5c2.9-4.8 5.2-10.2 8.7-14.6q3.6-4.9 9.6-5.3a7 7 0 0 1 6.1 1.2q3.5 2.6 7 5.3c6 4.3 8.4 2.6 14.8 1.4 4.9-.8 8.9 1.7 13.1 3.6 4.5 1.4 9-1.2 13.1-2.7q2.2-.8 4.4-1.1 2.3 0 4.4-1.4" class="b"/><path d="M8.2 137.5h94.4c4.2-6.2 7.4-18.9 15.7-20.4 1.7-.1 3.5-.5 5.2-.4 3 .7 5.4 3 7.9 4.8 3.2 2.4 7 4.9 11.3 4.3 2.7-.4 5.2-1.6 7.9-1.8 8.3-.8 11 6.6 20 3.6q3.6-1.2 7-2.5c2-.7 4.4-.7 6.2-2" class="b"/><path d="M8.2 136.5h94.4c1.6-1.5 2.4-4.4 3.4-6.3 2.7-5 5.7-13.8 12.3-14.4h4.3c3.4.4 6 3 8.8 4.7 3.5 2.4 7.8 4.5 12.2 3.7 2.9-.7 5.7-2.2 8.7-2.3 7.1-.1 10.7 6.7 18.4 4.9 2.7-.6 5.2-2 7.8-3 1.7-.6 3.7-1 5.3-2" class="b"/><path d="M8.2 135.5h94.4l.8-.6c3.2-6 5.8-15.3 11.4-19.4q2.5-1.3 5.2-.7 1.8.1 3.5.4c3.5 1.2 6.3 4 9.6 5.5 3.2 1.6 7 2.7 10.5 2.1 2.3-.5 4.6-1.7 7-2.3 5.6-1.4 9.4 2.3 14 4.7 4.5 2.3 8.8.7 13-1.6q3.2-1.3 6.2-2.8" class="b"/><path d="M8.2 134.5h90.9c1.4-.1 3 .3 4.3-.4 3-6 5.8-16.3 11.4-20 2.5-1.4 5.3 0 7.8.4 3.8 1.1 6.8 4 10.5 5.4q3 1.2 6.1 1.5c1.4.1 3 .5 4.4.1 3.2-.7 6.2-2.8 9.6-2.9 4-.1 7.3 2.6 10.5 4.8 5 3.6 9 3 14-.3q3-1.8 6-3.3" class="b"/><path d="M8.2 133.5h90.9c1.4-.1 3 .3 4.3-.4 2-4.6 3.9-9.6 6.1-14 1.7-3.2 4.5-7.9 8.8-6.4q3.2 1 6 2.2c3 1.5 5.7 3.5 8.8 4.4 3 .8 6.5.9 9.6 1.2 4-.5 7.3-3.4 11.4-3.2 4.5.2 7.8 4 11.3 6.4 4.4 3.2 8.2 2.1 12.2-1q3-2 6.2-3.6" class="b"/><path d="M8.2 132.5q1.8 0 3.5-.4 2.2-.3 4.4.3h86.5l.8-.5c1.8-4 3.4-8.5 5.3-12.5 1.7-3.4 4-9.2 8.7-7.9q1.8.8 3.5 1.7l3.5 1.6c2.5 1.4 5 3 7.8 3.7 2.3.6 4.7.4 7 .5 1.7 0 3.6.7 5.3 0 3.4-1 6.7-3.3 10.4-2.7 6.2.9 9.1 7.6 14.9 9.3 3.3.7 6.3-1.8 8.7-3.7a29 29 0 0 1 5.2-3.4" class="b"/><path d="M8.2 131.5c1.2 0 2.4-.7 3.5-1 2.3-.5 4.9-.3 7 .7 1.4.4 3 .2 4.4.3h79.5c.8-.4 1.4-2.2 1.7-3l1.8-4.4c1.8-4 5.3-16.3 11.3-13.4 2 1.1 4 2.7 6.1 3.6 2.5 1.5 5 3.1 7.9 3.7 2.6.5 5.2 0 7.8-.2 1.8 0 3.6.8 5.3.2 3.7-1 7.4-3.6 11.3-2.4 6.7 1.6 10.4 11.3 16.6 10.1 4.5-1.3 7.1-5.9 11.4-7.6" class="b"/><path d="M8.2 130.4c5.4-2.4 8-2.6 13.1 0h81.2c3.4-4 7.2-25.6 14.9-20.6 2 1.5 3.9 3.4 6.1 4.5a20 20 0 0 0 7 3.3c3 .6 5.8-.5 8.7-.8 1.8 0 3.5.8 5.3.3 3.7-1 7.4-3.4 11.3-2.1 7.3 1.9 11 13.2 17.5 10.7 4-1.8 6.3-6.2 10.5-8" class="b"/><path d="M8.2 129c3.7-1.7 7.5-3 11.4-1 1.1.4 2.2 1.6 3.5 1.4h79.5c3-5.2 5.8-19.2 11.3-21.4 3-.5 5 2.7 7 4.4 2.6 2 5.4 4.2 8.7 5 3.6.7 7-1.6 10.5-1.6 1.1 0 2.4.6 3.5.5 4-.6 8-3.3 12.2-1.7 8 2.4 11.3 15 18.3 10.9 3.6-2.2 5.7-6.4 9.7-8.1" class="b"/><path d="M8.2 127.7c6.7-3.3 8.7-2.6 14.9.7h76c1 0 2.5.2 3.4-.4 2.6-4.9 6.1-20 11.4-21.3 3.2-.1 5 3.4 7 5.4 2.2 2 4.8 4.1 7.8 5 5 1.3 8.8-3.5 13.1-1.8 4.8 1 8.7-3 14-1q3.5 1.6 6.1 4.3c3.2 3.2 6.9 10.4 12.2 7 3.6-2.3 5.6-6.7 9.7-8.5" class="b"/><path d="M8.2 126.2c5.5-2.7 9-2.5 14 1q1.3.3 2.6.2h76.9c3.7-3.8 7.7-29 15.7-20 3 3.5 6 7.6 10.5 9.2 4 1.4 7.5-1.7 11.3-2.6 1.5-.3 3 .7 4.4.7 3.8-.2 7.6-2.1 11.3-.7q4 1.6 7 4.6c3.2 3.2 6.9 10.6 12.3 7 3.6-2.4 5.5-7 9.6-8.9" class="b"/><path d="M8.2 124.7c4.5-2 8.2-2 12.3.7l1.7 1h79.5c2.3-4.8 4-10.3 6-15.1 2-4.2 5.1-10.8 9.7-5 2.9 3.8 5.8 8.2 10.5 9.9 4.1 1.4 7.6-2.1 11.3-3 1.8-.3 3.4 1 5.3.7 3.1-.2 6.4-1.3 9.6-.2 3.3 1 6.4 3.4 8.7 6 3.2 3.6 7 9.8 12.2 5 3-2.6 5-6.8 8.8-8.5" class="b"/><path d="M8.2 123q5.5-2.2 10.5.8l2.6 1.6h79.5c4-3.4 8.2-29.4 15.7-21.4q2.3 2.9 4.4 6c1.7 2 3.7 4 6.1 5.2 4 2 7.8-1.1 11.4-2.5a5 5 0 0 1 2.6-.2q1.6.8 3.5.7c2.9 0 5.9-.7 8.7.2 4 1.3 7.7 4 10.5 7.2 1.5 1.7 3 4 5.2 4.8h4.4l1.7-1.2c3-2.8 4.9-7 8.8-8.7" class="b"/><path d="M8.2 121.5c3-.9 6.2-.6 8.8 1 1.1.5 2.2 1.6 3.5 1.9h76.8q1.8.1 3.5-.2 3-6 5.2-12.4c1.4-3 4.2-12.6 8.8-10.7 3.5 2.2 4.9 6.6 7.8 9.4 3.7 4 7.2 5.6 12.2 2.8 3-1.4 4.6-2.4 8-1 2.2.6 4.6.2 6.9.4 3.2.2 6.2 1.7 8.7 3.5q3 1.8 5.3 4.4l2.6 2.7a3 3 0 0 0 2.6 1.1q2.6.1 5.3-.1c3.5-2.8 5.3-7.6 9.6-9.4" class="b"/><path d="M8.2 120.2c3.8-.9 7.6.8 10.5 3.1q40.6.2 81.2 0c2.6-4 4.3-9 6.1-13.4 1.6-3.2 4.7-13.7 9.6-10 2.2 1.9 3.6 4.6 5.3 6.8q1.9 2.5 4.4 4.5c6.8 5.2 10.1-1.5 15.7-.3 2.7 1.4 5.8 1.2 8.7 1.7 3.2.6 6.1 2.2 8.7 4q1.8 1 3.5 2.3 1.8 1.7 3.5 3.4c.3.4 1.2 1 1.8 1h3.5c1.3 0 3.2.4 4.3-.4 3-2.7 4.9-6.9 8.8-8.3" class="b"/><path d="M8.2 119.2q3.2-.4 6.2 1.2c1.1.5 2.3 1.5 3.4 2h81.3c3-4.4 5-9.7 7-14.5 1.9-4.4 5.7-15.3 11.3-8 3.7 4.8 7.7 12.2 14.8 11.4 3-.3 5.8-2.2 8.8-1.2q1.2.7 2.6 1.1c4.2 1 8.5 1.8 12.2 4.2 3 1.8 6.2 3.5 8.7 6 1 1.3 3 1 4.4 1h6.1c2.9-2.6 4.9-6.6 8.7-7.9" class="b"/><path d="M8.2 118.4c3-.1 5.6 1.4 7.9 3h82c2.9-4.2 5.1-9 7-13.5 1.8-3.4 5.3-15 10.6-11.5 2 1.5 3.6 4 5.2 6.1 2.3 2.8 5.1 5.7 8.7 6.7s7-1 10.5-.1q2.2 1 4.4 2 3.5 1 7 2.6t7 3.8c2 1.1 4.3 2.2 6 3.8q3.6.1 7 0c1.5 0 3.2.5 4.4-.3 2.5-2.3 4.5-5.6 7.9-6.5" class="b"/><path d="M8.2 117.8q3.4.5 6.2 2.5h80.3c.8 0 1.9.2 2.6-.3q4-5.8 7-12.4c2-3.5 5.4-14.8 10.5-13.5 2.7 1.1 4.3 4 6.1 6a21 21 0 0 0 8.7 6.8c3.1 1 6.5.4 9.6 1.1 1.9.5 3.5 1.9 5.3 2.6q4.9 2.3 9.6 5 2.6 1.5 5.2 2.8 2.3.9 4.4 2l12.2-.1c2.5-2.1 4.6-5.1 7.9-5.8" class="b"/><path d="M8.2 117.4q2.4.5 4.4 1.9 4.4.1 8.7 0h74.3q2.5-2.7 4.3-6.2 2.4-3.8 4.4-7.8c2-3.7 5-12.3 9.6-12.9 3.6.3 5.5 4.1 7.9 6.4q3 3.3 7 5.3c3.2 1.7 7 1.8 10.4 3.1 1.9.8 3.6 2.2 5.3 3.2 4.3 2.6 8.5 5.5 13 7.7q1.7.8 3.6 1.2h14.8c2.6-1.6 4.7-4.4 7.9-4.9" class="b"/><path d="M8.2 117.3c1.2.2 2.3 1.2 3.5 1h82.1c2-1 3-3.5 4.4-5.2l5.2-8.5c2.7-4.4 4.5-10 8.7-13.1 4-2.2 7.1 2.6 9.7 5q3 3 7 5.2c4.6 2.4 9.9 3.7 14 7.3q4.5 3.7 9.5 7 2.2 1.3 4.4 2.3h17.5c.8 0 1.9.2 2.6-.3 2-1.6 4.3-3.4 7-3.7" class="b"/><path d="M8.2 117.3h80.4c1.4 0 3 .3 4.4-.2 4.3-5 7.7-10.9 11.3-16.4 2.4-3.7 5-10 9.6-11.2 4.1-.3 6.6 4 9.6 6.2 4 3.2 8.8 5.4 13.1 8.3q5.1 3.6 9.6 7.9 2.6 2.3 5.3 4.2 1.5 1.3 3.4 1.3h21q1.8-1 3.5-2a10 10 0 0 1 4.4-1.3" class="b"/><path d="M8.2 116.3h83c2.7-2.6 4.8-6 7-9.1q3-4.5 6.1-8.8c2.6-3.6 5.5-9.8 10.5-10.2 4 .2 6.5 4 9.6 5.9q4.5 2.8 8.7 6 5.5 4.5 10.5 9.4l5.2 5.2 1.8 1.4 1.7.2H176c2.4-1.4 5-2.8 7.9-2.7" class="b"/><path d="M8.2 115.3H86c1.5 0 3.1.3 4.4-.3 3.5-4.2 6.5-8.9 9.6-13.3q2.7-3.4 5.3-6.7c3.7-5 8.3-11 14.8-6.2 3.6 3 7.8 5 11.4 8q4.1 3.9 7.8 8.2c3.3 3.3 6.4 7 9.6 10.3h25.4c1.4-.2 2.9-1.1 4.3-1.6q2.6-.9 5.3-.7" class="b"/><path d="M8.2 114.3h80.4c1-.6 1.9-2 2.6-3l3.5-5q4.2-6.6 9.6-12.3c4.4-5 9.7-11 16.6-6.2 3.4 2.5 7.5 4.2 10.5 7.3 3 2.9 5.3 6.4 7.8 9.6q4 4.6 7.9 9.4 1.7.4 3.5.2h20.9c1.9.2 3.6-1 5.3-1.4a15 15 0 0 1 7-.7" class="b"/><path d="M8.2 113.3h79.5c5-6 8.4-13.4 14-19 3.7-3.3 7.3-7.3 12.2-8.8 3-1 6.2.2 8.7 2 2 1.1 4.3 2.2 6.1 3.6 4 3.2 6.8 8 9.6 12.2q2.1 3 4.4 5.7c1.1 1.3 2.3 3.1 3.5 4.3h23.6c1.5.1 3-1 4.3-1.4 3-1.2 6.5-1.5 9.7-.8" class="b"/><path d="M8.2 112.3h78.6c4.8-6.4 8.3-13.9 14-19.6 2-2 4.6-3.6 7-5 4.5-2.9 10-4.8 14.8-1.5 2 1 4.4 2 6.1 3.4 4.7 4 7.3 9.8 10.5 14.8q1.7 2.5 3.5 4.8c.8 1 1.6 2.5 2.6 3.1H168c1.7.2 3-1.1 4.4-1.7 3.5-1.8 7.6-1.8 11.4-.7" class="b"/><path d="M8.2 111.3c26-.1 51.9.2 77.8-.1 5.4-7.4 9-16.7 16.5-22a34 34 0 0 1 15.8-5.3q2.3.1 4.3 1.3 2.2 1 4.4 2c8.2 5 10.5 18 17.5 24.1h22.7c.9.2 2-.4 2.6-1 4.4-3.6 8.9-3.7 14-1.7" class="b"/><path d="M8.2 110.3h73.3c1.2 0 2.6.2 3.6-.4 3.7-5.2 6.6-11 10.5-16.2 2.7-3.8 6.5-7.2 11.3-8 4-.9 8-2.3 12.2-2.2 1.9 0 3.5 1.2 5.3 1.7 7.1 2 9.9 9.8 13 15.8 1.3 2.5 2.7 5.3 4.4 7.5.3.5 1.2 1.6 1.8 1.8h20.9q1.9.1 3.5-.2c5.1-5.3 9.1-6 15.8-3" class="b"/><path d="M8.2 109.3h75.1c2.6-2.4 4.3-5.9 6.1-8.8 3.7-5.8 7.2-12.8 14-15.4q3.4-.7 7-.8 3-.2 6.1-.9 3.2-.5 6.1.7 2.2.6 4.4 1.5c5.5 3.1 7.7 9.8 10.5 15.2 1.5 2.8 2.6 6.5 5.2 8.5h24.5c6-6 8.3-8 16.6-3.8" class="b"/><path d="M8.2 108.3h73.4c1.5-.6 2.5-2.3 3.5-3.5 5.1-7 8.4-16.4 16.6-20.5 2.4-1.2 5.2-.7 7.8-.5 3.2.4 6.4-.4 9.6-.6q2.3.2 4.4 1 2.3.4 4.4 1.4c5 3.5 7 9.8 9.6 15 1.3 2.5 2.3 5.8 4.4 7.7h25.3c5.2-7 8.6-9.3 16.6-4.5" class="b"/><path d="M8.2 107.3h68.2c1 0 2.4.1 3.4-.2q2.7-1.3 4.4-3.7c5.8-7.1 9.4-18.5 19.2-20.9 3.3-.2 6.4 1.3 9.6 1.3 2.3 0 4.7-.5 7-.4 1.5.1 3 .9 4.4 1 4 .3 6.9 3.7 8.7 7 3 5 4.8 11 7.9 15.9 8.7-.1 17.5.2 26.2-.1 5-7.2 8.3-10.4 16.6-5" class="b"/><path d="M8.2 106.3H66q5.7.2 11.3-.7c3.3-.7 6-3 7.9-5.7 5-6.7 8.8-15.7 17.4-18.2 2-.5 4.2.3 6.1 1 3.4 1.2 7 1.1 10.5 1q1.9 0 3.5.7c1.4.3 3 .3 4.4.8 5.6 2.3 8 9.9 10.5 15 1 1.8 1.7 4.7 3.5 6h26.2c5-7.2 8-11.4 16.6-5.5" class="b"/><path d="M8.2 105.3H66q1.8-.2 3.5-.6t3.4-.6c5.2-.3 9.2-2.2 12.3-6.5 5.1-6.6 9.8-16.2 19.2-16.8 2.7.4 5.2 1.9 7.8 2.5 2.6.8 5.3.5 8 .8 1 0 2.3.7 3.4.8q2.2.2 4.4.9c6 3.2 8.8 13.4 12.2 19.2 1 .4 2.4.2 3.5.3h23.6c2.7-3.3 4.9-8.3 9.6-8.8 2.6-.2 4.9 1.5 7 2.8" class="b"/><path d="M8.2 104.3H65q.9 0 1.8-.5 1.6-.7 3.4-1c7.4-1.1 11.2-2 15.8-8.4 4-5.4 8-11.8 14.8-13.9 3.3-1.5 5.8-.1 8.7 1.3q2.6 1.2 5.3 1.7c2 .4 4.1.4 6 .9 2.3 1 4.8.7 7 1.6 6.4 3.2 8.6 12.5 12.3 18.2h27c2-2 3.2-5 5.3-6.9 3.9-4 7.3-2.7 11.4.2" class="b"/><path d="M8.2 103.3h56c1.1-.3 2.3-1.2 3.4-1.5q3-1 6.1-1.4C82.2 99.1 85.4 93 90.3 87c2.6-3.1 5.7-6 9.6-7.3 1.4-.4 3-1 4.4-.9 3.1.6 5.8 2.7 8.7 3.7q3.4 1.2 7 1.7c1.1.2 2.4.8 3.5 1q1.8.2 3.5.6c6.9 2.2 9.1 12.4 13.1 17.5h27c2-2.2 3.3-5.3 5.3-7.5 3.8-4.4 7-3.5 11.4-.3" class="b"/><path d="M8.2 102.2h53.3c.8 0 2 .1 2.6-.4 2.9-1.9 6.4-2.2 9.6-3 9.7-1.7 12.8-10 19.2-16.1q3.4-3.1 8-4.4c1-.3 2.3-.8 3.4-.6 3.5.7 6.3 3.2 9.6 4.4 2.8 1.1 6 1.5 8.7 2.7 1.7.5 3.7.6 5.3 1.4 4.2 2 6.5 6.7 8.7 10.6 1.1 1.6 1.8 4.3 3.5 5.4h27c2.5-3 4-7.2 7-9.8 3.4-3 6.6-1.3 9.7 1" class="b"/><path d="M8.2 101.2h54.2c3.8-2.9 7.8-2.8 12.2-4 9.5-2.4 12.8-12 20-17.2a19 19 0 0 1 6.2-2.7c2.6-1 4.6-.7 7 .6q3.8 2.3 7.8 4 3.6 1.2 7 2.6l4.4 1.3c6.2 2.7 8.8 9.7 12.2 15 1 .6 2.4.4 3.5.4h24.5c3-4.1 4.6-10 9.6-12.3 2.6-.9 5 1 7 2.4" class="b"/><path d="M8.2 100.2h53.3c3.4-3 7.2-3 11.4-3.7 9.7-2 13.3-10.4 20-16.3 2.7-2.5 6.2-3.5 9.6-4.4 2.5-.5 5 .9 7 2q3 1.8 6.1 3.2c3.5 1.4 7 3.2 10.5 4.3 6.5 2.6 9.5 9.5 13.1 14.9h28c2.8-4.3 5-11.9 10.5-13.5 2.3-.4 4.3 1.3 6 2.6" class="b"/><path d="M8.2 99.2q26.3.1 52.4 0c8.2-6.8 12.4 1.4 24.5-11.6 4-4.5 7.8-10 14-11.6 1.6-.4 3.4-1.1 5.2-1 3.8.5 7 3 10.5 4.6l8.7 4.3q4.5 1.7 7.9 5c3 3 5 7 7.8 10.3h28c2.5-4.5 5.2-12.6 10.4-14.3 2.4-.5 4.4 1.1 6.2 2.5" class="b"/><path d="M8.2 98.2h51.6c7-6.5 11.3.1 20-6.9 5.4-3.7 8.7-9.8 14-13.6 2-1.5 4.6-2.3 7-2.8q1.7-.4 3.5-.6c2.4.2 4.8 1.4 7 2.5q5.7 3 11.3 6a33 33 0 0 1 13.1 11.4c1.1 1.3 2 3.2 3.5 4 9.3-.1 18.7.2 28-.1 2.4-4.9 4.7-11.7 9.6-14.6 2.5-1.2 5 .6 7 2.1" class="b"/><path d="M8.2 97.2H59c1.4-1 2.8-2.3 4.4-2.9 1.9-.7 4-.3 6-.1q3.8.3 7-1.3c3.3-1.8 6.2-4.4 8.8-7 3.2-3.6 6.1-7.7 10.5-9.8q3.3-1.3 7-1.9c5-.9 9.6 2.2 14 4.3q6.5 3.5 12.2 8c3.5 3.2 6.5 7 9.6 10.6 5.8.3 11.6 0 17.4.1h7c1.4-.1 3.1.3 4.4-.4 2.5-4.9 4.7-11.7 9.6-14.7 2.5-1.3 5.1.5 7 2" class="b"/><path d="M8.2 96.2h46.3c5 0 3.2.4 7-2.4a7 7 0 0 1 5.3-.8c4.2 1 7.7 1.1 11.3-1.6q3.7-3 7-6.2c3-3.2 5.7-6.9 9.6-9q2.9-1.4 6.1-1.7 2.2-.6 4.4-.6c6.8.4 12.9 4.3 18.3 8.1a68 68 0 0 1 9.6 9c1.7 1.7 3.2 4 5.3 5.2h28l.8-.6c2.5-5 4.7-11.7 9.6-14.7 2.5-1.3 5.1.4 7 2" class="b"/><path d="M8.2 95.2H58c1.5-.9 2.7-2.5 4.4-3.1s3.6-.1 5.2.4c2 .6 4.1 1.1 6.1.7 2.8-.7 5-2.6 7-4.4 3.2-2.6 6-5.8 8.7-8.7q4.7-5 11.4-5.5c4-.8 8.3-1 12.2.5 11 4 16.3 12.7 24.5 20h28.8c1.7-1.4 2.3-4.3 3.5-6.2 3-5.8 7.2-13.4 14-7" class="b"/><path d="M8.2 94.2H58c1.4-1.1 2.7-2.7 4.4-3.3s3.6.4 5.2 1c2 .8 4 1.5 6.1 1.1 2.8-.6 5-2.7 7-4.5 3.4-2.9 6.4-6.4 9.6-9.4q4.6-4 10.5-4c2.3-.3 4.7-.9 7-1 6-.4 11.4 2.7 15.7 6.5 4.5 4.3 8.2 9.6 13.1 13.5q14.9.2 29.7 0c4.1-5.6 8.2-21.4 17.5-12.9" class="b"/><path d="M8.2 93.2H58c1.3-1.1 2.6-2.8 4.4-3.3 3.9-.5 7 4 11.3 3 2.8-.5 5-2.7 7-4.6l4.4-4c2.2-2.3 4.4-4.7 7-6.4q2.9-1.9 6-2 3.6 0 7-.8c7.7-2.2 12.6-.5 18.4 4.8 4.2 4.3 7.4 9.7 12.2 13.3h30.6c3.8-6 8.5-20.7 17.5-12.4" class="b"/><path d="M8.2 92.2H58c5.2-5.2 5.8-3 11.4-.1q3 .1 6 0c2.9-1 4.8-3.8 7-5.6 3.8-3 6.8-7.4 11.4-9.2 2.8-1 5.9-.4 8.7-.6 3.3-.5 6.3-2.4 9.6-2.6 4.4-.3 8.4 2.3 11.4 5.2 3.9 4.2 6.6 9.7 11.3 12.9h31.5c3.6-6.2 8.7-19.7 17.4-11.7" class="b"/><path d="M8.2 91.2H58c1.3-.7 2.2-2.1 3.5-2.7 2.7-1 4.7 1.8 7 2.7h8.7q2.3-2 4.4-4.1L85 84c2.5-2.4 5.2-5.2 8.7-6.1 3.2-1 6.5.5 9.6-.1 4-1.1 7.8-4.4 12.3-3.6 8.2 1.6 11.1 10.4 16.5 15.7.4.4 1.3 1.1 1.8 1.3h32.3c3.5-6.5 9-18.5 17.5-10.8" class="b"/><path d="M8.2 90.2h45.5c1.6-.2 3.6.3 5.2-.3l1.7-1.6c2.9-2 4.6 1 7 1.9h10.5c1.3-.9 2.4-2.3 3.5-3.3q1.7-1.5 3.5-3c3-3 6.8-6 11.3-5.4 3 .3 6 1.7 8.8.1 3.3-1.7 6.5-4.6 10.5-4.4 7.5.7 10.5 8.7 14.8 13.7 2.3 3 2.7 2.2 6.1 2.3h21.8c2.6-.1 5.4.2 7.9-.2 3.7-6.6 9-16.8 17.5-9.5" class="b"/><path d="M8.2 89.2H59c1.9-2.2 3.7-3 6.1-1.1.7.6 1.7 1.2 2.6 1H79q4-4.1 8.7-7.6Q92.6 78 98.2 80c2.2.8 4.8 1.6 7 .2 3.2-1.8 5.9-4.9 9.6-5.7 6.3-1 10 5.3 13 9.8l2.7 3.5c.3.4 1.2 1.2 1.8 1.3h31.4q1.4.1 2.6-.3c2.7-4.3 5.6-10.7 11.4-10.8q3.5.1 6 2.5" class="b"/><path d="M8.2 88.1H59c3.3-2.5 3.7-2.2 7 0h8.7c1.7 0 3.7.4 5.3-.3a34 34 0 0 1 10.4-7.7c3.4-1 6.6.7 9.6 2q3.3 1.5 6.1-.7c2.4-1.8 4.5-4 7-5.4 3.2-2 7-1 9.6 1.4 2.4 2.3 4.2 5.4 6.2 8 .6 1 1.5 2.3 2.6 2.7h34c1.2-.5 1.9-2.2 2.7-3.2 1.2-1.8 2.7-3.8 4.3-5.1 3.3-2.9 8.4-2 11.4.8" class="b"/><path d="M8.2 87.1h50.6c.6 0 1.5-.5 1.8-.9 1.5-1 3.2-.2 4.4.9h14.8c3-3.1 7.7-7.4 12.3-7 3.2.4 5.8 2.7 8.7 4 3 1.5 5.8-1.3 7.9-3.2 4.6-4.6 9.3-7.8 14.8-2.4 2.5 2.6 4.2 6.3 7 8.6h35c1-.6 1.8-2.2 2.5-3.2q2.2-3.2 5.3-5.2c1.8-1 4.1-1 6-.5q2.6.5 4.5 2.3" class="b"/><path d="M8.2 86.1h51.6c3-2.4 3.3.1 6 0 4.7 0 9.4.3 14-.1 2.9-3.1 6.9-6.7 11.4-6 3.4.7 6 3.3 8.7 5.1 3.1 2.2 5.5.7 7.9-1.6 4-4 8.8-9.6 14.8-5.3 2.7 2.2 4.4 5.6 7 8h35.8c1-.8 1.9-2.3 2.6-3.3 1.6-2 3.6-4.3 6.1-5.2q2.6-.6 5.3.1 2.5.5 4.4 2.3" class="b"/><path d="M8.2 85.1h51.5l1.8-.7q.9 0 1.8.3.8.5 1.7.4h14c1.5-1 2.7-3 4.4-3.9 6.1-4.5 10.2-.3 14.8 4l9.6-.1c3.9-4 8.8-10.4 14.9-6.5 2.3 1.8 4 4.4 6 6.4 12.3.3 24.5 0 36.7.1 3-3.4 6-8.7 11.4-8 2.5.3 5.1.9 7 2.7" class="b"/><path d="M8.2 84.1h51.5l1.8-.5q1.3.2 2.6.5h12.3c1.6.1 2.4 0 3.5-1.4 2.7-3.6 7.1-6.2 11.3-3.2 2 1.2 3.4 3.3 5.2 4.6h13.1c1.3-.8 2.4-2.3 3.5-3.3 2.3-2.3 5.6-3.8 8.8-2.5 2.8 1.2 4.4 4.2 7 5.8h36.6c2.7-3.7 6.3-8.4 11.4-7.4 2.4.5 5.1 1 7 2.8" class="b"/><path d="M8.2 83.1h45.5c2.2-.1 4.7.3 7-.2q1.2-.2 2.6.2h12.2c1.7.1 2.5 0 3.5-1.5 5.8-7.8 10.4-5.3 15.7 1.4 5.5.3 11 0 16.6.1 3-3.2 6.6-6.7 11.3-4.5 2 1 3.6 2.7 5.3 4.1q1.2.6 2.6.4h31.4c2 0 3.2.4 4.4-1.5 2-2.5 4.5-5.2 7.9-5.5q2.7 0 5.2 1 2.5.4 4.4 2.1" class="b"/><path d="M8.2 82.1h68.2c.5-.2 1.4-1 1.7-1.6q1.6-2 3.5-4c4.7-4.5 9.5 1.9 12.2 5.6h18.4c.9-.5 1.8-1.6 2.6-2.3a8 8 0 0 1 5.2-2.2c3.5 0 6 2.9 8.7 4.5h35.9c3.4-3.7 6.5-8 12.2-6.2 2.4.8 5 1 7 2.8" class="b"/><path d="M8.2 81h67.3c1-.4 1.9-1.8 2.6-2.7 1-1.3 2.3-3 3.5-4 4.7-4.2 9 3 11.3 6.5q1.3.5 2.7.3H113c2.7-2.7 5.6-5 9.6-3.7 2.2.8 4.1 2.3 6.1 3.2 1 .6 2.4.5 3.5.5h28.9c1 0 2.4.2 3.4-.2 3.2-4 6.9-7.7 12.3-5.6q2.1.8 4.3 1.3 1.5.7 2.7 1.6" class="b"/><path d="M8.2 80h66.4c1-.4 2-1.8 2.6-2.7 1-1.4 2.3-3.2 3.5-4.5C86 67 90 76.7 93 80.1h18.4c.8 0 2 0 2.6-.5q1.5-1.6 3.5-2.7c2.2-1 4.8-.9 7 0q3 1.6 6 2.4c3.8.8 8-1.7 11.4.8h21.9c4.3-3.9 6.4-8.1 13-5.5q2.2.8 4.4 1.3 1.5.6 2.7 1.5" class="b"/><path d="M8.2 79H38c1.1-.2 2.4-.8 3.5-.7q1.5.2 2.6.8H52c2.5-.7 5.3-1.3 7.9-.3 1 .5 2.4.2 3.5.3H72q1.4.1 2.6-.4c2.4-2.9 4.2-6.4 7-8.9 4.5-3.6 8.6 5.8 10.5 8.8 1 .8 2.4.4 3.5.5H113c1-.5 1.9-1.6 2.7-2.2q2-1.6 4.3-1.9c2.4-.2 4.8.7 7 1.4q3 1 6.1.6c2.6-.3 5.5-1.3 7.9.2 1 .8 2 2.1 3.5 1.9h19.2c4-5 7.4-8.3 14-5.1 2 .8 4.3 1 6 2.4" class="b"/><path d="M8.2 78h27.1c1 0 1.8-1 2.6-1.5 1.3-.8 2.9-1.5 4.4-1.2.9.2 1.8.9 2.6 1.2 3.1 1 6.4-.6 9.6-.4 2.2 0 4.2 1 6.1 2h13.1c2.5-3 4.4-6.7 7-9.6 2.2-2.4 4.3-1.6 6.1.7 2.1 2.6 3.7 5.9 5.3 8.8q10.5.2 21 0c5.4-6.8 9.3-4 16.5-3.3 3.8.3 8-2.3 11.4.2 1.2.9 2.2 2.4 3.5 3.2H161q1.3 0 2.6-.3c4-5 7.4-8.2 14-5 2 1 4.3 1 6 2.3" class="b"/><path d="M8.2 77q13.2.2 26.2 0c2.2-2.1 4.6-5 7.9-4.7 1.4.4 2.8 1.4 4.4 1.4q3-.2 6-.1c2.6.2 5 1.5 7 3q.9.5 1.8.5H73c1-.6 1.9-2.2 2.6-3.2q1.6-2.6 3.5-5.2c1.2-1.6 3-4.2 5.2-3.3 4 2.6 5.4 7.8 7.9 11.7h20c1.5-1.3 2.7-3.1 4.4-4 3.5-2 7.6-.9 11.4-.7 3.5.3 7-1.5 10.5-1.1 2.7.5 4.4 3.3 6 5.3q1.4.7 2.7.5h15.7c1.5-.6 2.3-2.5 3.5-3.5 2.2-2.5 5.4-4.2 8.7-3q2.3.7 4.4 1.5 2.3.3 4.4 1.5" class="b"/><path d="M8.2 76h24.5c3.4-3 7.2-8.5 12.2-5.6 3.2.7 6.7-.3 9.6 1.3q3 1.6 5.3 4a3 3 0 0 0 1.7.4H73c3.1-3.8 4.9-8.9 8.7-12 4.5-3 8.3 9.3 10.5 12h19.2c1.6-1.3 2.6-3.4 4.4-4.5 3.8-2.6 8.7-1.1 13-1.6 10.5-1.7 10.2-3.4 16.7 6h17.4c1.5-.7 2.3-2.5 3.5-3.6 2.5-3 5.8-4.6 9.6-3.1l3.5 1.2q2.3.3 4.4 1.4" class="b"/><path d="M8.2 73.2q2.8-.6 5.3.6c.8.4 1.7 1.1 2.6 1.2h14.8c2.8-2 5-5 7.9-6.8 2.2-1.4 3.8-1.5 6.1-.5 1.7.3 3.6.1 5.3.3q2.3.3 4.3 1.7 1.9 1.3 3.5 3c.8.8 1.5 2.2 2.6 2.3q6 .2 12.3 0c2-3.1 4-6.7 6-9.7 2.2-3 4.4-4.8 7-1 2.5 3.2 3.8 7.4 6.2 10.8h18.3c1.7-1.9 3-4.4 5.2-5.8q2.5-1.3 5.3-1.2 4-.2 7.8-.6c5-.8 9.7-3.4 13.2 1.7l2.6 3.9c.2.6 1 1.7 1.7 2h16.6c1.1-.5 1.9-2 2.6-2.8 1.5-1.8 3.2-3.7 5.3-4.6 2.5-1.2 5.4-.2 7.8.7 1.7.5 3.7.6 5.3 1.5" class="b"/><path d="M8.2 70.6c3.6-1.2 7 1.2 9.7 3.2 1.3.5 3 .2 4.3.2 2.3 0 4.8.3 7-.2 2.8-2 5.2-4.5 7.9-6.6 1.7-1.4 3.8-2.8 6-2.5q2.2.7 4.4.7c5.7-.4 9.3 4.4 12.3 8.5 2 .3 4.1 0 6 .1q3.7.2 7-.1c2.5-3.6 4.4-7.8 7-11.2 3-3.7 5.1-1.3 7 1.8 2 3 3.2 6.7 5.3 9.5h17.5c2.1-3.2 4.4-7.5 8.7-8q3 0 6.1-.3c3.8-.2 7.5-1.7 11.3-2 5.9-.2 7.4 6.8 10.5 10.3h14.9q1.4.1 2.6-.3c4.2-5.7 7-10.3 14.8-7.3 1.7.4 3.6.5 5.3 1.3" class="b"/><path d="M8.2 68.2c4.3-1.8 8 1.8 11.4 4 1.2 1 2.9.8 4.4.8 2.2.2 4.2-1.4 6-2.5q3.3-2.3 6.2-4.7c1.8-1.4 3.8-3 6-3.1q1.5.1 2.7.4c1.4.2 3 0 4.4.2 5 .8 7.7 6 10.5 9.8q6.5 0 13-.1 3-5.2 6.2-10.3c2.4-3.3 4.4-4.2 7-.4 2.3 3.3 3.6 7.5 6 10.8h14c.8 0 2 0 2.7-.4 2-3.5 4.3-8.1 8.7-9q3 .2 6.1-.2t6.1-1c2-.5 4-1.2 6.1-1.1 6 .3 7.5 7.6 10.5 11.7 5.8-.1 11.7.2 17.5-.2 3-4.3 6.8-10.8 13-9 2.3.6 4.8.6 7 1.4" class="b"/><path d="M8.2 66.1c3-1.6 6.3-.1 8.8 1.6 5.2 3.6 5.6 4 11.3 1 2.8-1.3 5.4-3.2 7.9-4.9 1.8-1.2 3.8-2.6 6-2.9q1.5.1 2.7.4 2.2-.1 4.4.1c5.3 1 7.4 6.8 10.5 10.6h13c2.2-3.3 4-7 6.2-10.2 2.4-3.5 4.4-4 7-.3 2.2 3.3 3.7 7.3 6 10.5h15c3-3.5 4.4-9.4 9.5-10.6 1.7-.3 3.5.2 5.3.1 4-.4 8.1-1.7 12.2-2.3 7.2-.7 9.1 8 12.2 12.8h17.5c3-4 5.6-10 11.3-10.5q2.2.1 4.4.5 2.2.3 4.4.8" class="b"/><path d="M8.2 64.2c2.5-1.5 5.6-1 7.9.5C18.5 66 21 68.6 24 68l3.5-1.4q4.6-1.9 8.7-4.4c2.7-1.6 5.4-3.1 8.7-2.3 3.6-.2 6.1-.2 8.7 2.6q2 2.3 3.5 4.8c.8 1.2 1.5 3 2.7 3.8h13c3.2-3.8 4.5-9.6 8.8-12.5 2.5-1 4 2.1 5.2 3.8 1.8 2.8 3.3 6 5.3 8.7h8.7c1.7 0 3.6.3 5.2-.2 2.6-4 4.8-10.2 9.6-11.8 2-.5 4.1.5 6.2.3 4-.4 8-1.7 12.2-2 7.3-.2 9 8.7 12.2 13.7h17.5c1-.8 1.8-2.5 2.6-3.6 1.6-2.6 3.5-5.3 6.1-7 2-1.3 4.7-1.1 7-.8q2.2.1 4.4.6" class="b"/><path d="M8.2 62.5c2.4-1.6 5.5-1.4 7.9 0 3.4 1.7 5.7 4.3 9.6 2 3.2-1.1 6.6-2 9.6-3.5 3-1.4 6.2-3.1 9.6-2.4 1.7 0 3.6-.3 5.3.2 4.4 1.9 6.4 7 8.7 10.8q.8.5 1.8.4h12.2c1.2-.6 1.9-2.7 2.6-3.8l3.5-5.8c2.5-3.4 4.5-3.7 7 0 2 3 3.8 6.5 6 9.5 4.1.3 8.3 0 12.3.1 2.9-3.7 4.6-8.4 7.9-11.7q3-2.9 7-1.4c1.3.4 3 .4 4.3 0q3.1-.4 6.1-1c11.1-2.7 12.2 6.8 16.6 14.1H162q1.4.2 2.6-.4c2.7-4.5 5.2-10.3 10.5-12.2 2.8-.7 5.8 0 8.7.3" class="b"/><path d="M8.2 61a7 7 0 0 1 7.9-.5c2.5 1 5 3.3 7.9 2.5q1.2-.7 2.6-1.1 3.5-.8 7-1.7l6-2q1.8-.5 3.6-.5 1.7.3 3.5 0c6.6-1 9.5 6.6 12.2 11.3h14.8c2-3.3 3.7-7 6.1-10 2.4-2.8 4.3-1.6 6.2 1l4.3 6.4c.7.8 1.5 2.2 2.6 2.6h8.8c2.5-1 3.8-4 5.2-6.2 2.3-3.4 4.7-9.3 9.6-8.7 1.8.2 3.5 1.3 5.3 1.2 4.3-.4 8.7-1.8 13-1 6.9 1.6 7.9 9.8 11.4 14.7h18.4c2.8-4.8 5.1-11 10.4-13.6 2.8-1 5.9-.4 8.8-.2" class="b"/><path d="M8.2 59.5c5-3.6 8.5 0 13.1 1.5 1.9.7 3.6-.6 5.3-1q3.4-.7 7-1c2.6-.5 5.2-1.4 7.8-1.8q1.8 0 3.5.2l3.5-.3c5.8.4 7.5 7 10.5 10.9h14.8c2.8-2.5 6.5-15 11.4-9.6 2.7 3 4.6 7 7.8 9.5q2.2.2 4.4 0c1.3.3 2.5-.5 3.5-1.2 4.4-2.2 6-7.3 8.7-11 1.5-1.9 3.5-4.1 6.1-3.9 1.5.2 3 1 4.4 1.5 2 .7 4.1-.1 6.1-.2 13-2 14.5 4 19.2 14.3l.9.6h18.3C168 63 170 55.8 176 53c2.5-.8 5.3-.3 7.9-.2" class="b"/><path d="M8.2 58.1c5-3.6 8.4-.1 13.1 1.5 2 .6 3.5-.8 5.3-1.1 2.2-.5 4.7-.3 7-.5 2.6-.1 5.2-.8 7.8-1q1.8 0 3.5.2l2.6-.2c5.5-.6 8.2 5.5 10.5 9.5q1.2.7 2.6.5H65c3.2-.1 6.5.2 9.6-.2 1.6-2.8 3.2-5.9 5.3-8.3 2.2-2.7 4-2 6 .5 2 2.2 3.8 5 6.2 6.8 3.9 3 7.2-1 10.5-2.8 4.3-3.5 5.7-11.1 11.3-13 2.9-.6 5.1 2.1 7.9 2.2l3.5-.3c13.5-1.4 15 4.2 20 15h19.2c1.2-1 2-3 2.7-4.4 2-3.8 4-8.2 7.8-10.6 2.6-1.7 5.9-1 8.8-1" class="b"/><path d="M8.2 56.8c5-3.4 8.5 0 13.1 1.7 1.9.6 3.5-.7 5.3-1 2.2-.5 4.7-.2 7-.2 2.6 0 5.2-.5 7.8-.6l3.5.3 3.5-.2c5 .2 7.3 5.6 9.6 9.2h16.6c2.7-2.5 5.7-12.6 10.5-8.3 2.4 2 4.2 5 7 6.7 4 2.4 7.3-2 10.5-3.9 4.2-3 6.3-12 12.2-12 2.5.2 4.5 2.5 7 2.6l3.5-.2c7.8-.2 12.8 1 16.6 8.4 1.1 2 2 4.8 3.4 6.7h19.3l.8-.5c2.8-5.4 5.1-12.3 10.5-15.5 2.4-1.3 5.3-.8 7.9-.7" class="b"/><path d="M8.2 55.5c4.5-2.8 8.2 0 12.3 1.8 2.6 1.2 3.7-.1 6-.7 2.4-.4 4.8-.1 7-.1 2.7 0 5.3-.5 8-.5q1.6.2 3.4.5 2.2-.2 4.4 0c4.4.7 6.1 5.5 8.7 8.5 5.8-.1 11.7.2 17.5-.1 1.9-3 3.6-7.2 7-8.4 1.7-.2 3.1 1.3 4.3 2.3 1.6 1.5 3.2 3.3 5.3 4 4.3 1.6 7.1-3 10.5-4.8 4.1-2.8 6.3-11.4 12.2-10.8 2.5.5 4.4 2.9 7 3l3.5-.1c7.6 0 12.8 1.5 16.6 8.7l1.7 3.5c.2.7 1 2.3 1.8 2.7h20c3-5.6 5-12.5 10.5-16.3 2.4-1.4 5.3-.9 7.9-.8" class="b"/><path d="M8.2 54.3c4-2.1 7.9.2 11.4 2 2.4 1.2 3.7 1 6.1 0q2.6-.7 5.2-.6c3.5 0 7-.6 10.5-.6q1.8.1 3.5.6c1.7.2 3.6 0 5.3.5 2.2.7 3.9 2.6 5.2 4.5.8 1 1.4 2.7 2.6 3.3h17.5c1.4-1.2 2.3-3.3 3.5-4.7 2-2.7 4-4 7-1.7 2 1.5 4.2 3.6 7 3.7 2.3 0 4.3-1.8 6-3.3q2.1-1.8 4.4-3.3c4.7-4.4 7.4-12.4 14.9-6.7q1.6 1.2 3.4 1.4h4.4c7 .3 12.3 2.2 15.7 8.7l1.8 3.4.9 1.8.8.7h20.1c1.1-1.2 1.9-3.5 2.6-5 2-4 4-8.6 7.9-11.2 2.3-1.6 5.2-1.1 7.9-1" class="b"/><path d="M8.2 53.2c5.5-2.2 9.1 2.3 14 3.3 1.5.2 3-.8 4.4-1q3.5-.5 7-.8c2.6-.3 5.2-1 7.8-.8q1.8.2 3.5.8 2.2.2 4.4.5c3.7.9 6 4.4 7.9 7.4q1.2.6 2.6.4h16.6c1.6-2.5 3.3-5.6 6-6.8 2-.4 3.7 1 5.3 1.8q2.4 1.7 5.2 1.4c2.9-.5 5-3 7-4.8q1.7-1.4 3.5-2.4c1.9-1.6 3.5-3.7 5.3-5.3 3.9-3.7 6.8-1.5 10.4 1l1.8.7q1.3.1 2.6 0h3.5c6.4.6 11.6 2.7 14.8 8.5l1.8 3.3c.2.6 1 2.2 1.7 2.6h18.4c.8 0 2 0 2.6-.5 2.7-5.4 5-12.7 10.5-16 2.1-1.2 4.7-.8 7-.6" class="b"/><path d="M8.2 52c6.1-1.5 9.7 3.8 14.9 4q1.7-.5 3.5-1l6-1.2c3-.5 5.9-1.5 8.8-1.3 1.5 0 3 1 4.4 1.2 5.7.3 8.4 3.3 11.3 8q1.3.5 2.6.3h16.6c2.6-2 4-6.5 7.9-6.1 3.2.7 6.3 3 9.6 1.2 3.6-1.9 5.9-5.7 9.6-7.4 2.6-1.8 4.6-5 7.9-5.7s5.9 2.4 8.7 3.7c1.6.7 3.5-.2 5.2 0q4 .3 8 1.4c3.5 1 6.6 3.7 8.6 6.9 1.2 1.8 2.2 4.3 3.5 6h21c3-5.6 5-12.6 10.5-16.2 2-1.2 4.6-.8 7-.6" class="b"/><path d="M8.2 51c3.5-.3 6.7 1.3 9.7 2.8 3.6 1.9 4.8 2 8.7.7l10.5-3q4-1.6 7.8.6 2.7.6 5.3 1.5c2 1 3.8 2.8 5.2 4.5.8.9 1.4 2.5 2.6 2.9l19.2-.1c1.5-1.9 3-4.1 5.3-5.2 5-1.3 7.1 2.8 13-2.1 1.8-1.5 3.5-3.4 5.3-4.8 1-.8 2.5-1.3 3.5-2 2.3-1.7 4.7-4.2 7.9-4 3.3.4 5.5 3.7 8.7 4.4 1.4 0 3-.5 4.4-.4q5.9.3 11.3 3c4.3 2.2 6.7 6.8 8.7 11 7 .4 14 0 21 .2 1.1-1.2 1.9-3.5 2.6-5 1.8-3.5 3.8-7.6 7-10.2 2.2-1.8 5.2-1.5 7.9-1.1" class="b"/><path d="M8.2 50c2.8.1 5.5 1.2 7.9 2.4s5 2.8 7.9 2.3q4.5-1.2 8.7-3c2.5-1 5-2.4 7.8-2.6q2.4.2 4.4 1.4 2.7 1 5.3 2 3 1.8 5.2 4.6c.8.8 1.6 2.3 2.6 2.9h19.2c1.6-1.3 2.8-3.2 4.4-4.3 3.8-2.5 7.5.6 12.2-3 2.9-2 5-5.1 7.9-6.9 4.1-1.4 7.5-5.7 12.2-3.2 2.6 1.1 4.8 4.1 7.9 3.8q2.1-.7 4.4-.5c5.3.6 11 2 14.8 6 2.2 2.3 3.3 5.6 5.2 8h20.1c.8-.2 1.4-1.7 1.8-2.5l1.7-3.5c2-3.5 4-7.7 7.9-9.4 1.9-.8 4.1-.5 6-.1" class="b"/><path d="M8.2 49q4.2 1 7.9 2.9c2.7 1.2 5.7 2.7 8.7 1.8 3.1-.7 6-2.2 8.8-3.7 2.1-1.2 4.4-2.6 7-2.7q1.9 0 3.4 1 1.7 1 3.5 1.8a19 19 0 0 1 6.1 4c1.6 1.4 2.9 3.4 4.4 4.8h14c7.6 0 4.3.7 9.6-3.9 2.2-1.7 5.3-1.4 7.9-2.2 5-1.5 7.8-6.7 12.2-9.3 6.6-2.3 8.2-4.8 14.8 0 5 3.7 4.7 1 9.6 1.3 5.6.7 11.8 2.1 15.8 6.4 1.3 1.5 2.5 3.6 3.4 5.4.3.6 1.1 2 1.8 2.4h17.5q1.4.1 2.6-.4c2.5-4.9 4.7-10.9 9.6-14 2.1-1.2 4.7-1 7-.4" class="b"/><path d="M8.2 48.1c4.4 1.5 8.6 4 13.1 4.9q3.7.5 7-1.3c4.2-1.8 8.4-6.5 13.1-6.2 2 .3 3.5 2 5.3 2.7 4.5 2.1 8.3 5.6 11.3 9.6 1.4.3 3 0 4.4.1h12.2c1.1 0 2.5.2 3.5-.3 5-5.8 6.2-4.3 12.2-7 4.1-2.2 6.8-6.2 10.5-8.7q1.2-.6 2.6-1l3.5-1c4.3-1.2 7.9 2 11.4 3.9 2.1 1.1 3.1.5 5.2-.2 2-.4 4.2 0 6.1.4 5.1 1.3 11 2.7 14 7.4.8 1.2 1.9 3 2.6 4.4l.9 1.6.9.5h12.2q3.5.2 7-.1c2.4-4.5 4.5-9.7 8.7-12.9 2.3-1.6 5.3-1.5 7.9-.8" class="b"/><path d="M8.2 47.2c5.2 2.4 10.7 5.4 16.6 4.8 2.6-.5 5-2 7-3.6 2.7-1.9 5.4-4.5 8.8-4.8 2.4-.2 4 2 6 3.1q3.9 2.2 7 5c1.9 1.6 3.4 3.7 5.3 5.2h18.3q1-.3 1.8-1.3c1-1 2.3-2.3 3.5-3.1 1.8-1.3 4.1-2 6-3 4.1-2 7.2-5.5 10.6-8.4q1.5-1.4 3.5-1.8 2.2-.4 4.3-.7c3.2-.4 6.2 1.2 8.7 2.8 6 3.9 5.2.4 10.5.6 2.7.2 5.3 1.1 7.9 1.8 2.7.8 5.6 1.6 7.9 3.3 1.8 1.6 3.1 4 4.3 6 .7 1.1 1.5 3 2.6 3.8h11.4q3.5.1 7 0c3.5-6.5 7.7-15.9 16.6-12.8" class="b"/><path d="M8.2 46.4q6.1 3.9 13.1 4.5c1.7 0 3.6.2 5.3-.4 3.6-1.5 6.4-4.7 9.6-7 5-3.4 6.3-1.4 10.5 1.7q4.6 3 8.7 7l3.5 3.3c1 .6 2.4.3 3.5.4h14.8c2.2-1.5 3.8-4 6.1-5.3q4.1-2.2 7.9-4.8 3.1-2.5 6.1-5.2c1.7-1.5 3.7-3 6.1-3q6.1-1 11.4 2.5c1.6.8 3.3 1.9 5.2 1.9 1.5 0 2.8-1.4 4.4-1.5 4.2-.4 8.2 1.7 12.2 2.5q2.7.6 5.2 2c3.7 2.6 5.2 7.4 7.9 10.9h14.8c.8 0 2 0 2.7-.3 3.5-6.3 8-14.5 16.5-11.4" class="b"/><path d="M8.2 45.6a19 19 0 0 0 10.5 4q3.5.1 7 0c3.9-1.2 6.6-4.6 9.6-7 2-1.6 4.5-3.3 7-2.3 1.6.9 3 2.5 4.4 3.5q4.5 3.4 8.7 7l4.4 3.8q1.2.5 2.6.3c5-.1 10 .2 14.8-.1q3-3 6.1-5.7 4-2.5 8-5.4l6-5c1.7-1.4 3.8-2.7 6.1-2.6 8-.7 11.2 4.7 16.6 4.5 1.5-.3 2.8-1.6 4.4-1.8 3.9-.4 7.6 1.7 11.3 2.4q3.1.6 6.2 1.5c1.8 1 3.2 3 4.3 4.7l4.4 7.3c2 .4 4.1 0 6.1.2h9.6c.6-.3 1.4-1.5 1.8-2q1.5-2.6 3.5-5c2.9-3.7 7.7-5.4 12.2-3.6" class="b"/><path d="M8.2 44.9c4 3.4 8.2 3.9 13.1 3.3 1.4-.1 3 .2 4.4 0 4-1 6.6-4.7 9.6-7.2 5.5-4.4 6.9-2.6 11.4 1.5a295 295 0 0 0 14 11q1 .6 2.6.4h13.1c2.2-1.5 4-3.9 6-5.6q4-3 8-6c3.7-2.5 8.2-7.8 13-7.4q4.1 0 7.9 1.8c2.7 1 5.6 3 8.7 2.3 1.5-.4 2.8-1.8 4.4-2 2-.4 4.2.4 6.1 1q3 1.1 6.1 1.7c2 .5 4.3.3 6.1 1.1 4.5 3.2 6.2 9 9.6 13.1h14c3-4 6-9.2 11.4-10q3.1-.5 6 .7" class="b"/><path d="M8.2 44.2a11 11 0 0 0 9.7 3.1c2-.2 4-.8 6-.6 5 1 9.2-6.1 13.2-8.5 4.9-3.3 7 1.1 10.4 4q4.5 3.9 9.7 7.2c2 1.2 3.9 2.8 6 3.5h11.4c1 .2 2-.5 2.6-1.1l2.7-2.6q2.8-3 6-5.4c4.3-3.2 8.4-6.8 13.2-9.2 2.7-1.3 5.9-.7 8.7 0 3.2 1 6.2 2.8 9.6 3.1 6.7 0 3.7-5.4 14-1q3.3 1.3 7 1.6c1.7.1 3.7-.5 5.2.7 3 2.3 5 6 7 9.3l1.7 2.8 1 1.4.8.4h11.3c3-3 5.4-7.1 9.6-8.5q2.2-.5 4.4-.5a9 9 0 0 1 4.4.9" class="b"/><path d="M8.2 43.7c5 4.8 8.4 2.5 14 1.5 1.4-.2 3 .5 4.4 0 5.3-1.6 10.6-12.7 16.6-8.2 4.6 4.7 9.7 9 15.7 12l5.2 2.7q1.8.3 3.5.2H73q1.3 0 2.6-.3 3.3-2.5 6-5.7 4.2-3.9 8.8-7.3c2.7-2 5.6-4 8.7-5.1 4.1-1.5 8.4.3 12.3 1.6 3.4 1.3 7.6 2 10.5-.6 3.6-3.5 8.3.3 12.2 1.4q2.5.8 5.2.6c1.5 0 3-.7 4.4 0 2.2 1.3 3.8 3.7 5.2 5.8 2 3 4 6.5 6.2 9.4q1.6.3 3.4.2h6.2c3.5-3.3 6.8-8 12.2-8 2.3.2 4.8 0 7 1.1" class="b"/><path d="M8.2 43.3c4.5 4.6 8 2.2 13.1.5q1.8-.4 3.5 0c2.8.3 5-2 7-3.6 10.2-9.7 9.8-4.3 18.4 2.4 4.6 3.7 10.5 5.3 15.7 8.2h7.8c1.3-.1 2.5-1.3 3.5-2l4.4-4.4c5-4.9 11.5-10.4 18.3-12 5.4-1.1 10.4 2.4 15.8 2.5q2.8 0 5.2-1.7c1-.8 2.2-1.9 3.5-2 2.1-.4 4.2.8 6.1 1.7a15 15 0 0 0 7.9 2c1.7 0 3.5-1.2 5.2-.6 4.6 2.3 7.4 9 10.5 13 1 1.2 1.9 3.2 3.5 3.6h5.2c1.3-.6 2.4-1.9 3.5-2.8q2.3-2.2 5.2-3.6c2.2-1 4.7-.8 7-.4q2.8 0 5.3 1" class="b"/><path d="M8.2 43c4.6 4.7 8.3 1.3 13.1-.7q1.3-.5 2.7-.2.8.3 1.7.3c5-.6 7.7-5.8 12.2-7.6 2.2-1 4.7 0 6.1 1.7l4.4 4.2q3.1 2.6 7 4.2c2.9 1.1 6 1.8 8.7 3.5 1 .5 2.3 1.3 3.5 1.5H73c3.5-.8 6.2-4.4 8.7-6.8 4-4.2 8.6-8 14-10.2 6.3-2.8 10.3-.5 16.5.6q4.2.7 8-1.5c1-.7 2.1-2 3.4-2.6 4.3-1.3 8.5 4 13.1 4.2q1.8.2 3.5-.4c1-.5 2.3-1.1 3.5-.9 6.3 2 9.7 14.5 15.7 17.1 2 .5 3.7-1 5.2-2 2.2-1.6 4.4-3.3 7-3.9 2.3-.5 4.8.1 7 .6q1.4.2 2.6.3 1.5.2 2.7 1" class="b"/><path d="M8.2 42.8c4.7 4.8 8.6.3 13.1-1.8q1.3-.5 2.7-.3.8.3 1.7.4c4.5-.2 7.4-4.6 11.4-6.3 4.8-2.3 7.2 2.2 10.4 4.9q3.5 3 7.9 4.3c2.3.7 4.8 1 7 2 2.5 1.3 5 3.3 7.9 2.9 1.4 0 3 .1 4.3-.8 3.5-2 6-5.2 8.8-8a29 29 0 0 1 17.4-9c3-.2 5.9.6 8.7 1.1q4 .9 7.9-.5c2-.7 3.7-2.3 5.2-3.7 3.4-2 6.8 1.4 9.7 3 8.9 5.1 9-4.7 15.7 2.3 3.5 3.8 5.8 8.7 9.6 12.2 2 1.9 4 1.4 6 0 2.3-1.2 4.5-2.6 7-3 2.8-.3 5.4.8 8 1.6q1.2.2 2.6.3 1.4.3 2.6 1" class="b"/><path d="M8.2 42.8c6.3 6 10.3-4.2 15.8-3.3 6.9 3.1 12.8-10.1 20-2.8A23 23 0 0 0 59.8 44c2.9.5 5.1 2.6 7.8 3.7q2.7.2 5.3 0c2.4-.2 4.3-2.4 6-4 3.5-3.6 7-7.4 11.4-9.8 6-3.4 11.7-3.8 18.4-2.6q4 .6 7.8-.7c5.6-2 5.8-7.7 12.2-3.2 13.4 10.5 11.3-2.9 19.3 4 3.8 3.2 7.6 11.7 12.2 12.8 3.4-.2 6.2-2.8 9.6-2.9 2.8-.2 5.4 1.2 7.9 2.2q1.6.7 3.5.8 1.3.3 2.6 1" class="b"/><path d="M8.2 42.8c5.2 5 9.4-2.6 14-4.2 1.5-.5 2.9.7 4.4.6 5.1-.2 9.5-5.8 14.8-3.7 1.7.7 3 2.2 4.4 3.3q5 4 11.4 4.2c4.7.2 5.8 1.6 9.6 3.7 1.6.3 3.5 0 5.2.1h2.6q1.5-.9 2.6-1.9c2.8-2.3 5.1-5.3 7.9-7.6a29 29 0 0 1 17.5-6.9c4 0 8.2.8 12.2-.4q3.3-1.1 6.1-3.6c1.5-1.5 3-2.6 5.2-1.6 4.5 2 8.5 8.5 14 5.7 1.6-1 3.3-2.4 5.3-1.8 5.8 2.3 8 9.1 13 12.6 2.8 1.8 6-.6 8.8-1 3.8-.9 7.2 1.4 10.5 3q1.6.9 3.5 1 1.3.2 2.6.9" class="b"/><path d="M8.2 42.6c4.4 4.1 8.7-1.6 12.3-4 3-2 4 .2 7 0 3.3-.4 6.3-2.5 9.6-3 6.6-1 8 5.7 15.7 6.6 3.2.5 6.6-.3 9.6 1 1.7.8 3.3 2.7 5.2 2.6H73q1.4.2 2.6-.3c3.3-2.2 5.8-5.4 8.7-8 4.6-4 10.6-6.1 16.6-7 6.3-.6 11.9.3 17.5-3.6 1.8-1 3.3-3 5.2-3.8 5-.6 8.5 7.7 14 8a6 6 0 0 0 3.5-1.2q1.4-1.4 3.5-1.7c5 .2 8.6 6.6 12.2 9.6 3.4 3.3 5.6 1.7 9.6 1 2-.3 4.3.2 6.1 1.2 2.1 1 4 2.6 6.1 3.6.7.4 1.9.5 2.7.6q1.3.3 2.6 1" class="b"/><path d="M8.2 42c4.9 4.3 9-2.5 13.1-4.5q1.3-.7 2.7-.3 1.6.8 3.5.8c5.5-.5 10.3-4.3 15.7-.4 10.1 8.3 13.2 1.8 20 5.3q1.7 1.2 3.5 2h7.9c2.4-1 4.3-3 6.1-4.7q3.8-4.1 8.7-6.4 6-2.3 12.3-3.1c3.5-.5 7.1-.8 10.5-2q4.3-1.6 7.8-4.5c3-2.9 4.4-3.5 7.9-.5q3 2.9 6 5.8c7.6 5.5 7.6-5.4 15.8.5 3.6 2.5 6.2 6.6 10.5 7.8 1.7.2 3.5-.3 5.2-.5q3.3-.3 6.1 1.4c3 1.5 5.4 4.7 8.8 5.4 1 0 2.3.8 3.5.7" class="b"/><path d="M8.2 41.4c5.2 4.2 9.4-3.3 14-4.7a4 4 0 0 1 2.6.4 8 8 0 0 0 2.7.5c2.3 0 4.6-1 7-1.3 4.7-1 7.6.6 11.3 3.3 8 5.4 12.5-1 18.3 3q1.3.9 2.7 1.2h6.9c2.8.1 7.4-5 9.7-6.7a23 23 0 0 1 9.6-4.3c8-1.9 16.6-2.3 23.5-7.4 2.2-1.3 4.1-3.2 6.2-4.6 3.8-1.7 7.8 5.4 10.4 7.6 7.5 7.2 7.5-1.3 14 .2 5 1.4 8.1 6.3 13.1 7.4q2.2.2 4.4-.2c2.4-.2 5 .6 7 2q2.3 1.7 4.3 3.7c1 .9 2.2 2 3.5 2.3h4.4" class="b"/><path d="M8.2 40.6c5.1 4 9.4-3 14-4.2 1.5-.3 3 .8 4.4.9 6.2.1 10.2-3.3 16.6.6 4.7 3.4 8.1 4.9 14 3.3 2-.5 4.2-.9 6 .2 1.1.5 2.3 1.3 3.5 1.4h7c3.7-.9 6.6-4 9.6-6.2 2.5-1.9 5.7-2.7 8.8-3.3 7.2-1.1 14.7-2.3 21-6.5l7-5.2c1-.8 2-2 3.4-2.2 3.5.2 5.7 4.4 7.9 6.7 2.1 2.4 5 6.5 8.7 5.3 1.2-.6 2.3-1.7 3.5-2.1 4.4-1.5 8.5 1.8 12.2 3.6q3.3 2 7 1.6c7.3-1 10 4.4 14.8 8.3h6.2" class="b"/><path d="M8.2 39.7c5.6 4.2 9.6-3.2 14.9-3.3.8 0 1.8.6 2.6.7q1.8.3 3.5 0c4.5-1 8.8-2 13 .3q2.6 1.6 5.3 3.1c5.9 3 8.6-.1 14-.3 1.5.1 3 1.2 4.4 1.6h7.8c3.2-1 6-3 8.8-5 2.4-1.9 5.6-2.6 8.7-2.9 12.6-1.1 17.5-4 27-12 1.7-1 3.3-3 5.3-3.4 3.9.2 7 6.6 9.6 9.3 2.1 2.6 5.5 5.9 8.7 3 5.3-3.6 11.3 1 16.6 2 2.3.6 4.7.2 7 .4 5.2.5 7.8 5.6 11.4 8.6h7" class="b"/><path d="M8.2 38.8c4.5 3.4 8.8-.7 13.1-2 1.5-.5 3 .1 4.4.5 2 .3 4.2-.3 6.1-.8 3.8-1.1 8-1 11.4 1.1 2.2 1.1 4.3 3.4 7 3.2h7q2-.9 4.3-1.1 1.8.2 3.5 1c2 .3 4.1 0 6.1.1 3 .1 6-1.4 8.8-2.7 1.7-.8 3.3-2.2 5.2-2.8 2.2-.8 4.7-.8 7-1 14.3-.5 18.6-7.3 28.8-15.3 3.5-3.4 6.7 1.1 8.7 3.8 2.5 3 6 10 10.5 9.4q1.4-.6 2.6-1.4 1.4-.5 2.7-.7c4.4-.3 8.7 1.5 13 1.8q3.1.3 6.2.2c5.2.2 8.1 5.3 11.3 8.7h7.9" class="b"/><path d="M8.2 37.9c4.4 3.3 8.7.2 13.1-.8q1.9-.2 3.5.4c2.7.7 5.4-.6 7.9-1.3 3.1-1 6.6-.9 9.6.6l3.5 2c.7.5 1.7 1.2 2.6 1h7c1.7 0 3.6.2 5.2-.4q1.9-.3 3.5.3H72q3.5-.5 7-1.7 2.2-.8 4.3-2c3.6-1.6 7.6-.6 11.4-1q5.5-.7 10.5-3.4c6.4-4 11-10.5 17.4-14.3 4-.9 7.5 6 9.6 8.7 2 2.5 4.2 6.5 8 6.4 1.4-.4 2.7-1.5 4.3-1.7 2.6-.3 5.3.2 7.8.4q4 .2 7.9 0 2.7.1 5.2.2c4.4.8 7.1 5 9.7 8.3 2.8.4 5.8 0 8.7.2" class="b"/><path d="M8.2 37.1c4.2 3 8.6 1 13.1.5q1.9 0 3.5.5c3.7.7 7-2 10.5-2.6 3.7-.8 7.5.7 10.5 2.8q.8.6 1.7.5h23.6l4.4-.6q2.7-.2 5.2-.9c1.2-.3 2.4-1 3.5-1.3 2.3-.6 4.7-.2 7 0a24 24 0 0 0 18.3-7.6c2.9-2.4 11.5-12.7 14.9-11.3 5.8 2.5 8.8 13.3 14.8 15.3.8.2 2 0 2.6-.5q1.4-.5 2.7-.6c3.7-.2 7.6.6 11.3-.1q3-.7 6.1-.6c2.4-.2 5 0 7 1.6q2 1.6 3.5 3.6c.7.9 1.6 2.4 2.6 3h8.8" class="b"/><path d="m8.2 36.4 2.7 1.4h15.6q1.9.1 3.6-.2 2-1.2 4.3-2 4.5-1.6 8.8.5 1.4.6 2.6 1.6 2.6.2 5.2 0h11.4q6.5.1 13-.1h5.3q1.8-.5 3.5-1c3.5-.5 7 .8 10.5.2q3.1-.5 6.1-2a19 19 0 0 0 4.4-2.3c4.1-3.3 7.5-7.6 11.3-11.1q2-2 4.4-3.5c1.2-1 3-1.3 4.4-.5 5.5 3.4 8.1 12.2 14 14.8q1.2.4 2.6-.2 1.2-.4 2.6-.4c2.9.1 5.8.8 8.7.3q3-.7 6.1-1.5 2.2-.2 4.4-.2c4.9-.4 8 4 10.5 7.6h9.6" class="b"/><path d="m8.2 35.8 1.8 1h21.8c2-1 4-2.2 6.1-2.4a11 11 0 0 1 5.3 1c1.1.4 2.2 1.6 3.5 1.4h49.7c1.6.2 3-.8 4.4-1.5q3-1.2 5.3-3.3c4-3.1 13.9-17.3 19.2-14.5 5.6 2.9 9 13.1 14.8 14.6 1.1 0 2.4-.6 3.5-.5 2.9.3 5.8 1.4 8.7.9 2.4-.4 4.7-1.6 7-2.2q1.7-.2 3.5-.3 2.2-.4 4.4.4a12 12 0 0 1 4.4 3.5c.7.9 1.5 2.4 2.6 2.9h9.6" class="b"/><path d="M8.2 35.4c1 .6 2.4.3 3.5.4h21.9c4.7-3.2 7.5-2.3 12.2 0h55q2.8-1.4 5.2-3.6c4.5-4.1 8-9.4 13.1-12.9 3.3-2.3 5.6-2.6 8.8.2 4 3.5 6.5 9 11.3 11.7q1.2.5 2.6.2 1.4-.1 2.6.2c5.5 2 7.8 2.2 13.1-.5 1.9-1 4.1-1 6.2-1.3 4.4-.8 7.2 2.9 9.6 6h10.4" class="b"/><path d="M8.2 34.8h26.2c1.8-.6 3.3-1.8 5.3-1.8q2.2.1 4.3 1 .8.7 1.8.8h52.4c1.7-.1 3.6.2 5.2-.2C109.6 30.7 119 14 127 19c3 1.9 5.4 5 7.9 7.6 1.4 1.6 3.1 3.4 5.2 4q1.4.1 2.6.1 1.9.5 3.5 1.4c4.9 2.6 7.7 1.4 12.2-1 1.3-.8 3-.8 4.4-1.1a8 8 0 0 1 5.3.2c1.7.9 3.2 2.5 4.3 4 1.3.8 3 .4 4.4.5h7" class="b"/><path d="M8.2 33.8h25.4q1.2 0 2.6-.2l1.7-1c2.3-.8 5-.3 7 1.1h59.4c2-1.1 3.6-3.3 5.2-5 3.6-3.7 7.2-8 12.3-9.7 5.9-1.8 10 4.2 14 7.6a13 13 0 0 0 4.3 3q1.4.1 2.6.4c1.9.6 3.5 2 5.3 3q1.6 1 3.5.8c1 0 2.4 0 3.4-.4q2.3-1.2 4.4-2.3 1.7-.5 3.5-.8c4.6-1.5 6.6.2 9.6 3.4h11.4" class="b"/><path d="M8.2 32.8h28q1-.1 1.7-.7 1.3-.5 2.7-.6 2.2 0 4.3 1.3h60.3c1-.3 1.9-1.5 2.6-2.2 5.3-5.5 12.4-14.2 21-10.3 3.5 1.8 6.2 5 9.6 7.2q1.2.9 2.6 1l1.7.5c2 .9 3.5 2.6 5.3 3.8h8.7q1.4-.5 2.6-1.3c1-.5 2.4-.5 3.5-1q5.1-2.1 8.7 2c1.4.4 3 .2 4.4.2h7.9" class="b"/><path d="M8.2 31.8h28.9c1-.3 2.3-1 3.4-1 1.5-.2 3 .5 4.4 1H106c1-.4 2-1.5 2.6-2.2 5.2-5.5 11.2-10.7 19.3-9.5 3.6.7 6.6 3.3 9.6 5.4a10 10 0 0 0 4.3 1.8c2.1.8 3.7 2.8 5.3 4.3 2 .4 4.1 0 6 .1q3.7.2 7-.1c2.4-.4 4.6-2 7-2 1.7.1 3 1.4 4.4 2.1h12.3" class="b"/><path d="M8.2 30.7H38c1.1-.3 2.4-.8 3.5-.7q1.4.1 2.6.7h63c3.4-2.7 6.3-6.3 10.4-8.2q2.5-1.2 5.2-1.6 2.6-.6 5.3-.7c2.8 0 5.5 1.3 7.8 2.7 2 1.2 4 2.5 6.1 2.9 2.2 1 3.7 3.3 5.3 5h14.8c1.2.1 2.4-.5 3.5-1q2.9-.8 5.3 1h13" class="b"/><path d="M8.2 29.7q49.8.1 99.6 0c4-3.7 8.4-7.4 14-8 3.1-.6 6.3-2.1 9.6-1.6 3.1.4 5.8 2.3 8.7 3.5 3.3.5 5 3.7 7 6.1h18.3q1.3-.5 2.7-.6c.8 0 1.8.6 2.6.6h13.1" class="b"/><path d="M8.2 28.7h99.6c.9-.3 1.8-1.2 2.6-1.8a22 22 0 0 1 8.7-4.5c2-.5 4.3-.6 6.2-1.5 5.4-2.3 8.6-2 14 .5l2.5 1c2.3 1.3 3.7 4 5.3 6q1.2.4 2.6.3h15.7l2.6-.2q1.4.2 2.7.2h13" class="b"/><path d="M8.2 27.7h99.6c1.3-.2 2.4-1.5 3.5-2.1q3.1-2.4 7-3.2c2.3-.5 4.8-.5 7-1.6 7.2-3.6 9.2-2.8 16.5-.3 2.8 1.6 3.8 5.3 6.2 7.2h35.8" class="b"/><path d="M8.2 26.7h100.5c1.4-.8 2.9-2 4.3-2.6q3-1.5 6.1-1.9c2.1-.2 4.3-.2 6.2-1.3 6.7-3.7 9-4.2 16.5-1.8 2.8 1.7 4 5.3 6.2 7.6h35.8" class="b"/><path d="M8.2 25.7h101.3c2.2-1.2 4.5-2.5 7-2.8q2.6-.5 5.3-.4c3.5-.2 6.3-3 9.6-4.3 3.3-1.5 7-1 10.4 0 2.8 1.7 4.1 5.1 6.2 7.5h35.8" class="b"/><path d="M8.2 24.7h101.3c1.9.2 3.5-1 5.3-1.3 2.5-.6 5.2 0 7.8-.1 4.5-.9 7.8-4.8 12.3-5.7q2.5-.5 5.2-.2c4 .1 5.4 4.8 7.9 7.3h35.8" class="b"/><path d="M8.2 23.7h87.4c6.6-.1 13.4.2 20-.2q3.5.3 7 .2h2.6l1.8-1c3.5-2.1 7-4.9 11.3-5.2 1.5-.1 3.2-.3 4.4.5 2.2 1.4 3.3 4.1 5.3 5.7h35.8" class="b"/><path d="M8.2 22.7h120.5c1.3-.1 2.5-1.3 3.5-2q2.5-1.5 5.3-2.5c3.5-1 5.3-.8 7.8 2.1 1 1 1.8 2.7 3.5 2.4h35" class="b"/></svg>