<svg xmlns="http://www.w3.org/2000/svg" id="a" width="1920" height="2400" viewBox="0 0 192 240"><defs><style>.b{fill:none;stroke:#fff;stroke-miterlimit:10;stroke-width:.3px}</style></defs><path d="M0 0h192v240H0z" style="stroke-width:0"/><path d="M9.4 222.2c11 7.5 15.9 6.5 28.4 5.6 8.4-.4 16.7.8 25 .4 8.4-.1 16.7-2 25-2.9q8.7-.7 17.3 1c4.8.8 9.7 2.6 14.6 2 3.2-.7 6-2.8 8.6-4.7q2-1.6 4.3-2.9 4.2-1.7 8.7-2.4 3.4-.6 6.9-.2c3.5 1 6.6 3.4 9.4 5.8 3.1 2.5 7.1 6.3 11.2 3.5 5.9 2.3 8.3-.2 13.8-1.3" class="b"/><path d="M9.4 216.4c13.8 8.9 19.4 8.9 35.3 8.5 6.6 0 13.3.2 19.8-.4 6.7-.6 13.2-2.4 19.9-3.3 8-1.3 16.2-.5 24 1.2q4 .8 7.9 1.7c2.7.7 5.8 1.3 8.6.5 5.1-1.6 9.4-5.4 14.6-6.8 7.8-2.2 13.5 1.7 19.8 5.6 4 2.4 7 2 10.4-1 4.6 3.3 7.7 2.8 13 2" class="b"/><path d="M9.4 211.7a67 67 0 0 0 33.6 9.7q9 .5 18-.1 6.7-.7 13-2.4 1-.1 1.7-.4l2.6.5a82 82 0 0 0 19.9 1c4.6-.1 9.2-1 13.7-1.5 3.6.3 7 1.6 10.4 2.5 6.6 2 12.6-2.6 19-3.9q5.2-1 10.3.7c8 2.9 11.5 7 19-.5 3.8 3 7 4.4 12 4.3" class="b"/><path d="M9.4 208q14.1 6 29.3 8.2c6.2 1 12.6 2 19 2q3 0 6-.6c1.4-.2 2.9-1 4.3-.6 5.9 1.7 12 1 18 1 6.4-.2 12.8.7 19-.7 3.5-.7 7-2.2 10.4-3q3 .6 6 1.7c9 3.8 12 1.6 20.7-.2q4.8-1 9.5.1c9.4 2.3 12 4.5 19.8-3.3 1.5.6 2.8 2 4.3 2.8q3.1 1.9 7 2.3" class="b"/><path d="M9.4 205.4c11 3 22.5 3.8 33.6 6.3 4.6 1 9.1 2.4 13.8 3q3 .1 6-.3 2.2.3 4.3.3c4.8-.6 9-3.2 13.8-3.9 11.6-2.2 18.1 6.5 27.6 3q3-1 6-2.4l1.7-.9q1.4-.2 2.6.2 4.4 1.3 8.7 3c5.1 1.9 10.3.7 15.5-.2a32 32 0 0 1 9.4 0c9.6 1.7 12.5 2.6 19.9-5h.8c2.8 2.3 6 4.3 9.5 5.1" class="b"/><path d="M9.4 204c10 1.1 20.2-.4 30.2 1.4q5.3 1.1 10.3 3c3.8 1.6 7.9 3.4 12 2.8 4.8-.6 9.3-2.4 13.9-3.4q7.2-1.7 14.6-1.4c2.6.2 5.3.2 7.8.8 8.2 6.4 10.6 4.4 19-.4 7.7.6 12.8 5.5 21.5 4.3 4.5-.5 9.2-1.3 13.8-.9 10 1.3 13 2.8 20.7-5.3h.8q4 3.1 8.6 4.9" class="b"/><path d="M9.4 203.3c10.4-.4 20.6-4.7 31-3q4.6.8 8.6 2.8c1.1 1 2.3 2.3 3.5 3q2 1.4 4.3 1.7 1.3-.1 2.6 0 3 .3 6-.5c4.9-1.1 9.7-2.8 14.7-3.2 7.7-.9 15.5.8 23.2 1.3 1.7 1.4 3.8 2.8 6 2.4q3.8-1.2 7-3.6c4.1-.5 8.1 1.1 12 2.3q4.6 1.6 9.5 1.3c5.2-.4 10.3-1.7 15.5-1.1 9.8 1.1 13.2 3.3 20.7-5 1.2.4 2.4 1.5 3.5 2.1q2.3 1.6 5.1 2.7" class="b"/><path d="M9.4 202.7c11.6-1.4 22.5-9.6 34.5-6.4l1.7.5 1.7 2c1.2 1.7 2.6 3.5 4.3 4.6a6 6 0 0 0 6 .2c3.6 1.5 7.6.6 11.2-.3q5.6-1.6 11.2-1.8c8.4-.3 16.7 2 25 2.1q1.5-.1 2.6.4 1.7.7 3.5.1c7.5-4.2 13.9-.6 21.5.2 6.1.6 12-1.9 18.1-2 3.8 0 7.6 1 11.2 1.7 5 1.3 8.7-.5 12.1-4.1l.9-.2c2.3 1.6 5 3.3 7.7 4.1" class="b"/><path d="M9.4 201c11.7 0 20.9-10.6 32.7-9.1 1.8 0 2.6.6 3.5 2.2 1.2 1.8 2.6 4 4.3 5.5 2.2 2 4.6 1.5 6.9 0 4.8 2.8 10.4.6 15.5-.1q5.2-.9 10.3-.4 6 .8 12.1 1.5 5.2.5 10.4.4h7.7q3.4-.6 7-.7c4.2 0 8.5 1 12.8.6 6.4-.6 12.5-3.5 19-3.4 3.5 0 7 1 10.3 2.1 4.6 1.7 8.3 2.3 12.1-1.4 1.2.1 2.4 1.1 3.5 1.5q2.4 1.3 5.1 1.3" class="b"/><path d="M9.4 196.8c3.4.8 7 1.2 10.3 0 8-2.8 15-9.6 24.2-7.9 3.2 3.7 6 12 12 7.1 4.4 2 6.6 1.8 11.2 1q6-1.1 12-.7c4.4.4 8.7 1.2 13 1.3 4.3 0 8.7-.8 13-1.1l1.7-.1c1 .5 2.2 1.3 3.4 1.2.8-.1 1.8-.7 2.6-.7l3.5.5q4.6.3 9.4 0c9.5-.5 18-6.6 27.6-5.5q4.6.5 8.6 2.6c2.3 1 4.5 2.3 7 2.9.7.2 1.8.2 2.5 0 .8 0 1.8-.7 2.6-.4 2.8 1 6 .7 8.6-.7" class="b"/><path d="M9.4 191.1c3 1.3 6.1 3 9.5 3 7.9 0 14-8.2 23.2-8 1.9 0 2.6.3 3.5 2 1.2 1.8 2.5 4 4.3 5.3 2.2 1.6 3.9.2 6-.7 3.1 2 7 1.5 10.4 1q4.2-.6 8.6-.5c5.1.2 10.3 1.5 15.5.7 4.7-.6 9.1-2.7 13.8-3.7 3.7 5.1 5.6 5 10.3 1 10 3.5 19.7-2.6 29.3-4.7q7.5-1.6 14.7 1 3.6 1.7 6.9 3.8c1 .8 2.2 1.9 3.4 2.4 2.2.9 4.9.6 7-.7 2.4-1 4.7-2.8 6.8-4.4" class="b"/><path d="M9.4 185.2c3.5 2 7 5.2 11.2 5.5 7.3 0 13.1-8.5 22.4-8 1.5 1 2.3 3.2 3.4 4.5 2.7 3.6 5 4.8 8.7 1.7q1.6.8 3.4 1.4 2.2.6 4.3.4c4-.3 8-.8 12-.5 7.8.6 12.5 1.2 20-2.2l5-2.2c.8-.3 1.8-.8 2.7-.6 5 7.8 6.6 6.4 12.9.9 1.1 0 2.3.6 3.5.7q3 .5 6 0c9-1 17.5-5.7 26.7-4.5 8.4 1.1 5.7 2.5 11.2 7.2 2.1 1.7 3.8 1.3 6 .2 5.7 3.1 9.6-2 13.8-5.2" class="b"/><path d="M9.4 179.9c3.5 2.6 6.7 6.5 11.2 7.3 6.3.6 12.2-8.3 20.7-8.7 2.3 3 4 7.2 7.7 8.7 2 .4 3.8-1.2 5.2-2.4l.9-.1c5.1 4.1 12 2 18 2.4 14.6.9 15-.8 27.6-6.4 1.4 1.1 2.3 3.2 3.5 4.4 1.7 2.2 3.7 3 6 1q2.7-2.3 5.2-4.7c6.8 3.1 14.5 1.4 21.5.2 5.7-1 11.6-1.6 17.3-.3 2.7 3.2 6 8.8 10.3 4.2q1-.2 1.7.3 1.7.8 3.5 1.2c5.1 1.4 9-3.2 13-5.7" class="b"/><path d="M9.4 175.6c3.2 2.8 6 7 10.3 8.2 3.7.4 6.7-2.7 9.5-4.7 2.6-2 5.4-3.9 8.6-4.8 1.1.4 1.9 1.8 2.6 2.7 1.8 2.2 3.5 5 6 6.5 3.3 1.5 5.6-2.3 7.8-4 5.5 5.6 12.7 4.1 19.8 4.3 12.3.5 15.3-2 25.9-6.5l.8.4c2.4 3.6 5 9 9.5 4.2 1.4-1.3 2.7-3 4.3-4.1 7.9 4.4 17.3 3 25.9 2.7q6-.4 12 .3c2.8 2 4.4 4.8 7.8 1.5 12.4 3 12.2 1.7 22.4-4.9" class="b"/><path d="M9.4 172.4c2.8 2.8 5.3 7.3 9.5 8 2.7 0 4.9-2.1 6.9-3.8q2.4-2.2 5.1-4.3c1-.7 2.2-1.7 3.5-1.7q2.7 2.5 5.2 5.3c1.8 1.9 3.9 4.8 6.9 4.5 3-.8 4.8-3.7 6.9-5.8q1 .3 1.7 1.2l2.6 2c4.5 3 10.2 2.6 15.5 2.6a47 47 0 0 0 15.5-2c3.8-1.1 7.4-2.9 11.2-4 1.4 1 2.2 3 3.4 4.3 3.6 4.5 7-1.3 9.5-3.8 1.2.2 2.4 1.2 3.5 1.6q3 1.5 6 2.1c8.5 1.8 17.3 1.2 25.9 1.4q3-.1 6 .4c1-.3 2.4-.1 3.4 0 4.3 0 8.8.3 13-.9 4.3-1.3 8-4.2 12-6" class="b"/><path d="M9.4 170.6c3.2 3 6.2 9.2 11.2 5q2.7-2.6 5.1-5c1-1 2.1-2.5 3.5-2.7 2.9 1.3 5.4 3.5 7.8 5.5 2.6 2.2 6 5.1 9.4 2.6 1.6-1 3-2.7 4.3-4 .8-.8 1.6-2.1 2.6-2.5 6.3 6.9 11.9 7.5 20.7 7.4q6.6.1 13-1.3c4.3-1 8.5-2.7 12.9-3.7l.9.4c3.9 6.3 5.8 6 10.3.4 1.2-.2 2.4.8 3.4 1.3l4.4 1.9c4.1 1.3 8.6 1.2 12.9 1q5.6-.4 11.2-.6l6-.2q1.3.6 2.6.9c.9 0 1.8-.7 2.6-1q4.8 0 9.5-.5 4.4-.4 8.6-1.8c3.5-1.4 6.8-3.2 10.3-4.4" class="b"/><path d="m9.4 170.9.8-.4c1.3 1.1 2.6 2.8 4.4 3 3.5 0 5.3-4 7.7-6 8.4 0 14.3 7 19.8 6 4.5-1.4 7.2-5.6 10.4-8.8 1.6.8 2.8 2.7 4.3 3.8q3.7 3 8.6 4.2a69 69 0 0 0 20.7-.2c4.9-.7 9.7-2.2 14.6-2.7 1.8 1.3 3.3 4.9 6 3.4.6-.2 1.4-1 1.8-1.3.4-.5 1-1.2 1.7-1.2 3.4 1.1 6.7 3.1 10.4 2.9 3.5-.2 7-1.5 10.3-2.5q6-2 12-2.7c2.7 2.1 5.9 7.7 9.5 3.9 1.3-1.1 2-3.1 3.5-3.9 5.1.3 10.4.9 15.5 0 3.8-.8 7.4-2.2 11.2-2.9" class="b"/><path d="M9.4 169.8q1.3-.2 2.6.3c1.3.2 2.3-.9 3.4-1.2q4.3-.8 8.6-.6c4.1.1 8 1.4 12.1 1.8 7.2.8 11.4-5.8 16.4-9.8 3.4 3.5 7.1 7.2 12 8.5 4 1 8.1 1 12.1 1 6.4.1 12.7-.8 19-1.6q3-.4 6-.3c.6.1 1.4.8 1.7 1.3 2 1.7 3.4.8 5.2-.5 2.8.5 5.7 1.8 8.6 1.4 3.2-.5 6-2.3 8.7-4 3.5-2 7.1-4.4 11.2-5.5q3.2 2.5 6 5.7c2 2 4.9 5.4 7.7 3 3-2.3 4.5-6.2 7-9 4.8 1 9.6 2.6 14.6 2.6 3.4-.1 6.9-.7 10.3-.9" class="b"/><path d="M9.4 166.7q2.6-.2 5.2 0h8.6q6 .2 12-.2c6.6-.7 11.7-5.3 16.4-9.6l.9-.1c3.6 3.7 7.6 7.6 13 8.7 3.5 1 7.4 1 11.1 1q6.5 0 13-.4c4.5-.3 9.1-.7 13.7-.3.8.4 1.8 1 2.6 1l1.7-.5 3.5.4c8 .6 13.2-8.3 19.8-11.5 9.3 2.2 14.1 15.3 19.8 10.3 2.5-2.1 4.2-5.2 6-7.8 1-1.2 2-3.2 3.5-3.7 3.8 1.2 7.4 3 11.2 3.9s7.5.8 11.2 1" class="b"/><path d="M9.4 161.8c2.8-.1 5.8.5 8.6.6 6.6.4 13.4.7 19.8-.9 5.3-1.3 9.7-4.5 13.8-7.9h.9a27 27 0 0 0 11.2 8.3q5 1.3 10.3 1.3h11.2c6.9-.2 13.8-.5 20.7.1 9.7.8 12.5-5 19-10.7 1.2-.8 2.9-.4 4.3-.3 4.3.7 8 3.4 11.2 6.2 3.9 3.3 7.5 7.5 12 2.3 2.9-2.7 6.9-10.3 10.4-11.1 3.2 1.1 6.3 3 9.5 4.3q5 1.8 10.3 2.6" class="b"/><path d="M9.4 156.2c14.8 1.2 29.5 5.3 42.2-5.2l.9.1a22 22 0 0 0 12 8c6.3 1.2 12.7.6 19 .8h23.3a17 17 0 0 0 11.2-6.3c.7-.8 1.6-2 2.6-2.5l2.6-.8a18 18 0 0 1 14.6 3c3.4 2.1 6.3 5.6 10.3 6.5 6.4.7 11.2-11 17.3-13.3 2.7 1.3 5.1 3.3 7.7 4.7q4.6 2.4 9.5 3.6" class="b"/><path d="M9.4 151.2c11.2.1 22.4 4.6 33.6 2a24 24 0 0 0 6-2.3c1.1-.5 2.2-1.8 3.5-1.8 3.2 4 7.6 7 12.9 7.2 5.2.3 10.4 0 15.5.1h14.7q5.2.2 10.3-.2 1.3.2 2.6.2c2-.4 3.6-1.9 5.2-3 2.9-2 6-4 9.4-5 5.6-1.9 11.6-.4 16.4 2.6 7.7 4.6 11 8.7 19 1.5 2.3-1.8 7.6-7.3 10.3-7a34 34 0 0 0 13.8 8" class="b"/><path d="M9.4 147c6.4-.4 12.7 1.6 19 2.9 8 1.6 16.9 2.3 24-2.2q5.1 6 13 5.3 6-.4 12-.3c9.2.2 18.5.6 27.6.1.8 0 1.9-.3 2.6-.1q1.3.5 2.6.2c5.1-1.8 9.4-5.7 14.7-7 10.1-2.9 16.4 2.4 25 6.2 6 2.7 11.1-1.3 16.4-3.7 1.8-.7 4-1.8 6-1.3q4.5 4 10.3 5" class="b"/><path d="M9.4 143.7c7-.6 13.9 2.3 20.7 3.8s16 2.6 22.4-.8q3.3 3 7.7 2.9c4-.3 8-1.1 12.1-1 6.9.2 13.8 1.2 20.7 1 5.2-.2 10.4.3 15.5-.3l2.6.3q1.3-.2 2.6-.7c4.1-1.5 7.9-4 12-5.4a25 25 0 0 1 16.4.2c9.1 3.2 13.9 7.4 24.2 5.4q4.2-.7 8.6-.4c2.5.4 5.1 1.1 7.8.9" class="b"/><path d="M9.4 141.3c5.9-.4 11.6 1.8 17.2 3.2q6.4 1.7 13 1.6c4.2 0 8.7.5 12.9-.7 1.4.3 2.8 1 4.3.7 4.3-.7 8.5-2.3 13-2 5.7.1 11.4 2 17.2 2 4 .1 8-.5 12-.6 3.5-.2 7 .4 10.4.6h4.3c2.7-.6 5.3-1.9 7.7-3 6.1-3.2 13-5.3 19.9-4.2s13 4.3 19.8 5.9c4 1 8 1 12 1.1 3.3.8 6.5-.8 9.5-1.6" class="b"/><path d="M9.4 139.7c5.8-.2 11.5 1.8 17.2 2.7 4.6.7 9.2.1 13.8-.2q3.9-.1 7.8.2c2.2.2 4.6.6 6.9 0 2-.8 3.9-2.1 6-2.7 3.9-1.3 8.2-1 12 .3 6.5 2 11.3 3.9 18.2 1.9 3.4-1 6.8-2 10.3-2.2q3-.1 6 .7c1.4.8 2.8 1.9 4.3 2.2q2.2.3 4.4 0 2.6-1 5.1-2.3a38 38 0 0 1 23.3-5.6c5 .6 9.8 2.2 14.7 3.6q2.5.8 5.1 1.3c1.6.7 2.5 2.4 4.3 3 2.9.7 5.4-1.6 7.8-2.9q3-1.5 6-3.1" class="b"/><path d="M9.4 138c5.8-.4 11.5 1.2 17.2 1.3 5.2.1 10.3-1.2 15.5-1.3q2.6 0 5.2.3c.8.3 1.7 1 2.6 1l1.7-.3q1.3.3 2.6.3c4 0 7-3.3 9.5-6 7.4-1.2 14 7 21.5 5.9 5.3-1 9.6-4.8 14.7-6.2 3-.8 3-.6 5.2 1.7 3.4 3.6 7 5.7 12 4 2.6 1.5 5.2-.2 7-2 .7-.8 1.5-2 2.5-2.3q4.5-2.4 9.5-3.6c6.8-1.7 14-.8 20.7.8 3 2.7 6.4 10.1 11.2 6.8 1.9-1.2 3.2-3.4 5.1-4.5 3.4-.3 6.6-1.9 9.5-3.4" class="b"/><path d="M9.4 135.5c4.9-.2 9.8.4 14.6.4 4.6 0 9.3-.8 13.8-1.2q3-.3 6-.2 1 .2 1.8 1c1 .7 2.4.3 3.4-.3 2.3.4 4.7 1 7 .5 4.3-1.1 6.9-5.3 10.3-7.9 5 1.7 8.8 6 13.8 7.7 6.6 2.2 12.7-7.1 19-9 4.2 3.8 8.1 10.2 14.6 9.3q1.7-.2 3.4-.8c.8-.2 1.8-.8 2.6-.6 2.7 2.3 5.2 1.6 7.8-.5 4-3.1 7.5-7.7 12.9-8.2 5-1.2 9.4 1.5 13 4.8 2.3 2 4.4 5 7.7 5.4 2.6-.2 4.4-2.8 6-4.7.7-.8 1.6-2.2 2.6-2.8 4.5.4 8.9-1 13-2.9" class="b"/><path d="M9.4 132.5q8.2 0 16.4-.2c4.8-.2 9.7-.9 14.6-.9a3 3 0 0 1 1.7.4 3 3 0 0 0 3.5 0l2.6.2c3.6.7 7.2.8 10.3-1.5 3.2-2 5.5-5.1 8.6-7 2.5 1.4 4.7 3.4 7 5.2 2.5 2.2 6 5 9.4 3.1 4.6-2.2 7.5-7.3 12-9.5 11.2 9.2 10.8 13.5 26 7 6.5 7 10.4.3 17.2-1.6 2.8-.8 6-.5 8.6.7 2.7 1 5 3 7.8 3.8 5.1 1.4 8.4-5.5 11.2-8.8.7-.3 1.8 0 2.5 0q2.2.3 4.4.3c3.2 0 6.4-1 9.4-2" class="b"/><path d="M9.4 128.8c8.9.4 17.8-.1 26.7-.3h2.6a4 4 0 0 0 3.4.1c7 .4 11.4 1.5 17.3-3.4 2.5-1.8 4.9-4.5 7.7-5.8 3.4 2.5 6 6 9.5 8.5 3.3 2.4 6.2.5 8.6-2 2.4-2.2 4.5-4.8 7-7 1.2.5 2.4 1.6 3.4 2.4l6 5.1a10 10 0 0 0 10.4 2q3-1 6-2 2.5-1.1 5.2-2.2c6.1 6.5 8.6 4.9 16.3 3.6 3.8-.6 7.5.7 11.2 1.2 6.3.6 9.5-6 13-10.2 2.5 0 5.2.8 7.7 1q5.8.6 11.2-1.1" class="b"/><path d="M9.4 125c7.1.7 14.4.4 21.5.4 5.7 0 11.6.5 17.3 0 7.2-.6 12-6.9 18-9.9q3.3 2.9 6.1 6.1c1.5 1.5 3.1 3.3 5.2 3.9 4.4 1 9-6.9 12-9.5 5.2 2.8 9.5 9 15.6 9.6 3 0 5.7-1.5 8.6-2.2q3.5-1 6.9-2.2c1.4-.4 2.8-1.5 4.3-1.5 3 3.1 6.8 5.7 11.2 5.8h6c2.3 0 4.7.2 7-.2 3.5-.6 6.3-3.2 8.5-5.8l2.6-3.1c.3-.5 1.2-1.4 1.8-1.5 4.5.8 9.1 2 13.7 2.4q3.5 0 7-.7" class="b"/><path d="M9.4 121.2c6.5 1 13.2.8 19.8 1 6 0 12.2.3 18.1-1 6.6-1.3 11.2-6.7 17.2-9.4 1 .4 2 1.5 2.6 2.2l4.3 4.8c1.6 1.6 3.6 3.7 6 3.3 4.1-1.3 6.6-5.9 9.6-8.8 1.2.4 2.4 1.4 3.4 2.1q3.4 2.7 6.9 5 5 3.2 10.3.6 2.6-1.2 5.2-2l4.3-.8a92 92 0 0 0 8.6-2.7c1.9 1 3.4 2.8 5.2 3.8 4.1 2.5 9.1 2.7 13.8 2.4 6.5-.4 10.7-5.1 14.7-9.8 1-.3 2.3.2 3.4.4l5.2 1.3q3.8 1 7.7 1.8 3.5.4 7 0" class="b"/><path d="M9.4 117.6q9.4 1.3 19 1.1c6 0 12.2 0 18-1.8 6.1-1.6 10.5-6.9 16.4-8.8q3.2 3.2 6 6.5c2 2 4.7 5.2 7.8 3.7 3.2-1.8 5.3-5 7.8-7.6l.8-.2c4.9 2.8 9.6 8.5 15.5 8.2 2.8-.3 5.3-1.6 7.8-2.7q2-.8 4.3-1.3l4.3-.4a73 73 0 0 0 9.5-2c.5 0 1.4.5 1.7.9l2.6 1.8c3.6 2.3 7.9 3 12 2.9 4.2-.1 8.3-1.8 11.3-4.6 1.5-1.2 2.7-3 4.3-4q6 1.2 12 3.2a30 30 0 0 0 12.1 2.1" class="b"/><path d="M9.4 114.3a95 95 0 0 0 35.3-1.4q4.1-1.5 7.8-3.8c2.4-1.6 5-3.5 7.7-4.4 2.6 2.1 4.7 4.9 7 7.3 2.4 2.6 5.2 4.7 8.6 2 2.5-2 4.3-4.9 6.9-6.8 5.7 3.4 11.6 10.4 19 7.3 3-1.1 6-3 9.4-3.6 2.2-.4 4.6 0 6.9-.1q4.8-.3 9.5-1.3c5 3.4 8.4 5.1 14.6 5 6.5.2 11.3-2.4 15.5-7.1 4.5.7 8.8 2.3 13 3.8q5.8 2.5 12 2.6" class="b"/><path d="m9.4 111.1 3.4.5 1.8.3c2.5-.3 5.2.1 7.7 0q9.6.2 19-2.2 5-1.4 9.5-4c2.3-1.2 4.3-3.3 6.9-4q3 3 6 6.3c2.1 2.3 5.3 5.3 8.6 3 3-2 5.1-5 7.8-7.4 4.6 2.7 8.5 6.8 13.8 8.1 2.6.6 5.3-.3 7.7-1.3 3.3-1.4 6.7-3 10.4-3.1 2 0 4 .6 6 .7q4.7.3 9.5-.5c1.4.5 2.8 1.7 4.3 2.3q4 1.9 8.6 1.9c3.4 0 7 0 10.3-1q2.9-.9 5.2-2.8c.8-.5 1.6-1.7 2.6-1.7q3 .7 6 1.6c3.5 1.1 6.9 2.5 10.4 3.4q3.9.7 7.7.6" class="b"/><path d="m9.4 108.5 1.7-.3a100 100 0 0 0 10.4.2 55 55 0 0 0 33.6-9c3 2.4 5.3 5.9 8.6 8.1 2.4 1.7 4.9.8 6.9-1 1.5-1.3 3-3 4.3-4.3.7-.7 1.5-2 2.6-2.1 7.7 4.2 12.9 11.2 22.4 7 3.6-1.3 7.3-3 11.2-2.8 2.3.1 4.6 1 6.9 1.3q4.7.5 9.5.2c5.3 3.4 10.4 2.6 16.4 2.6 6.2 0 10.2.8 15.5-3.4 5.2 1 10.2 3.3 15.5 3.5q3.9-.2 7.7-.5" class="b"/><path d="M9.4 105q11.6.2 23.3-.6 11-.8 20.6-6.6c2.8 2.5 5 6 8.7 7.1 2.3.5 4.4-1.3 6-2.8 1.1-1 2.4-2.5 3.4-3.6.7-.7 1.6-1.9 2.6-2.1 6.9 2.8 12.8 9.5 20.7 8.5 3.2-.4 6.3-1.8 9.5-2.5q4.3-1.2 8.6-.1 2.6.8 5.2 1.2 3.4.5 6.9.5h1.7q1.3.3 2.6.7c3.4.9 7-.3 10.3-.9q3.9-.7 7.8-.3c2.3.2 4.6.9 6.9 1.3s4.9.2 6.9-1c1.4-.2 3 .4 4.3.6 8 1.8 10-.6 17.3-1.7" class="b"/><path d="M9.4 101.6c10.6-.2 21.3.4 31.9-1.2a37 37 0 0 0 9.5-3c.3-.2 1.2-.5 1.7-.4 5 5.4 7.7 6.4 13 .5 1.3-1.3 2.5-3.3 4.2-4.2 8 2 14.7 8.6 23.3 8.3 4.3-.2 8.6-1.8 13-2 4.3-.4 8.5 1.5 12.8 1.8q12.1.4 24.2-.5 7.3-.7 14.6-.1c1.5 0 3 .6 4.3.8l2.6-.2q3 .4 6 0c2.2-.3 4.2-1.4 6-2.2a26 26 0 0 1 6.1-1.9" class="b"/><path d="m9.4 98 23.3.2c6.3-.1 12.9.2 19-2.1 1.3.7 2.6 2 4.2 2 3.5-.1 5.6-3.6 7.8-5.9 5.2-1.2 13 2.4 18 4Q89 98.8 96.5 98q5.3-.6 10.4-.6c3.1.1 6.3.9 9.5.8l4.3-.3c2 .2 4 .5 6-.1q6.9.2 13.8.4 7.4-.2 14.6-.4c4.6 0 9.3.6 13.8.3a23 23 0 0 0 5.2-1.9q4-2.6 8.6-3.5" class="b"/><path d="M9.4 94.5q6.4.3 13 .2c5 0 10.3-.5 15.4-.4 4.9 0 9.8.8 14.7.3a4 4 0 0 0 2.6-.2q2.4-1.3 5.1-1.8a41 41 0 0 1 16.4.2q7.3 1.4 14.7 1.9h19q2.1 0 4.2-.6c5 .6 8.5 1.5 13-1.4 4.9.3 9.7 1.6 14.6 1.9 5.5.4 11-.1 16.4 0 3.7 0 7.5.5 11.2-.1.4-.1 1.3 0 1.7.2a6 6 0 0 0 2.6-.2c3-1 5.7-3 8.6-4.3" class="b"/><path d="M9.4 90.9q7.3 1 14.6-.2c7.4-1.3 14.9-3.7 22.4-2.2 1 0 2 .9 2.6 1.6 2 1.8 3 1.2 5.2.5 5.3 1.4 11 .4 16.4.4q10.4-.1 20.7.2 6.4 0 12.9-.3 1.7 0 3.4-.4c1.1-.2 2.4-.5 3.5 0q2.5.5 5.2.6 2.5.4 5.1 0c3-.4 5.3-2.5 7.8-4 5.2 1.3 10.2 3.5 15.5 4 4.6.5 9.2-.1 13.8-.2 3.7-.1 7.5.4 11.2.4 1.4 0 3-.5 4.3-.5 2.8 1.2 5.9 0 8.6-.7" class="b"/><path d="M9.4 87c13.8 3.8 19.5-5.4 31.9-7.4.7.2 1.4 1.3 1.7 1.8q1.2 2 2.6 3.8c4.1 5.6 6.7.9 10.3-2.2 8.2 4.2 17.7 4.5 26.7 4.8 8 .1 16.4.4 24.2-1.8q1.2-.6 2.6.1 1.6.9 3.4 1c9.3 1.3 10.2 1.4 17.3-5 6 2.4 12 6.3 19 5.8 3.4-.2 6.8-1 10.3-1.3 4.6-.5 9.2.7 13.7 1.3q3 0 6-.8c1.2 0 2.4.6 3.5.6" class="b"/><path d="M9.4 82.5c2.7 1.1 5.6 2.3 8.6 1.8 3.2-.5 6-2.6 8.6-4.5q4.4-3.7 9.5-6.4l.9.1c2.4 3 4.3 6.5 6.9 9.3 2.5 2.7 4.6 1.7 6.9-.7l5.1-5.7c.7-.7 1.5-2 2.6-2q13.8 6.1 28.5 9.3a33 33 0 0 0 19-1.5c.7-.3 1.7-.9 2.5-.9 2.8 2 6.3 2 9.5 2.8 5.3 1.6 8.9-2.3 12-6l1-.2c7.3 3.7 12.7 8.6 21.5 5.7 5-1.5 10.2-3.3 15.5-2.1 2.7.4 5.1 1.8 7.7 2.5q3.5.6 7 .5" class="b"/><path d="M9.4 77.7c2.3 1.5 4.8 3.4 7.7 3.3 5.6-.6 10.1-8 14.7-11.2h.8c3.3 3 5.5 7 8.7 10 4.1 3.8 7.7-2.6 10.3-5.2 2.7-3 5.8-6 9.5-7.4 8.6 1.7 16.4 5.9 24.1 9.8 10 5 14.4 5.6 24.1-.1 2.6 1.7 5.8 2 8.7 3.2 6.7 3 8.8-2.2 12.9-6.2 5.3 2.6 10.1 7.7 16.4 7 7.4-1.4 13.3-7.6 21.5-5.9 2.5.5 4.7 2 7 3a19 19 0 0 0 6.8 1.5" class="b"/><path d="M9.4 72.9c2.2 1.9 4.6 4.6 7.7 4.7 4.6-.5 8.1-6.8 11.2-9.9 3.8 2.7 6.4 6.9 10.4 9.3 3 1.8 5.8-1.1 7.7-3.2 2.4-2.6 4.7-5.7 7.8-7.6 4.2-2.6 7.1-3.5 12-3.2 9-.3 16.5 4.8 23.3 9.9 9.4 6.7 12.3 6 21.6-.2 2.2 1.2 4.8 1.7 6.9 3.1 1.8 1 4 2.3 6 1.6 3.1-1.3 4.7-4.7 7-7 4.5 2.3 8.4 6.6 13.7 7.2 7.6.1 13.7-9.7 23.3-9.3 2.8 0 5.4 1.4 7.7 2.8q3.3 1.5 7 1.5" class="b"/><path d="M9.4 68.3c7 8 9.2 7.7 15.5-.8 4.9 2.2 9.8 9.6 15.5 5.3 3.5-2.5 6-6.3 9.5-9 2.9-2.3 6.7-3.3 10.3-4q4.8-.4 9.5-.2c3.1 0 6.4-.3 9.5.4 7.7 2 12.4 9 19 13 5.3 3.3 10.3-1 14.6-4.1.9-.2 1.8.4 2.6.8q2.3 1.4 4.3 2.9c3.8 2.9 6 1.4 8.6-2 .8-1 1.5-2.5 2.6-3.2 4 2 7.6 5.4 12 6.6 7.7 1.7 14.2-10.6 24.2-11.4 3-.5 6 .4 8.6 1.7q3.3 1.3 7 1.2" class="b"/><path d="m9.4 66.5 1.7-.2c2 2.1 4.6 5.6 7.8 4 1.2-.6 2.1-2 3.4-2.5 9 3.8 11.4 4.7 19-2.4 2.8-2.7 5.8-5.6 9.5-7.1 2.1-1 4.6-1 6.9-1.5 4.5-.8 9.1-.7 13.7-.7h10.4c6.2.6 10.4 6 14.6 9.9 8 8 11 4.6 19-.8 1.6.7 3 2.2 4.3 3.3 5 4.9 7.5.7 10.3-3.7l.9-.1c4.1 1.7 7.6 5 12 6 7.7 1.2 13.8-11.3 23.3-12.8q4-.8 7.8.2 4.1 1.3 8.6 1" class="b"/><path d="M9.4 66h4.3c1.4.5 2.7 1.7 4.3 1.2 1-.6 2.3-.3 3.5-.2q1.6.3 3.4.3c8.4 0 13.7-7.8 20.7-11.3a19 19 0 0 1 6.9-2l6-.3q7.4-.9 14.7-1c15.2.2 14.8-2.1 25.8 9.7 7.6 7.8 10 5 18.1.3.6 0 1.4.7 1.8 1.1q1.2 1.4 2.5 2.4c4.1 3.3 6.3-1.8 8.7-4.4 3.9 1.3 7.3 3.7 11.2 5 4.6 1.8 8.8-1.7 12-4.6q4-4 8.6-6.8c3.4-1.8 7.5-2.3 11.2-1.9q4.8 1 9.5.5" class="b"/><path d="M9.4 63.9c5.8 0 11.9.3 17.2-2.2C34.4 58 41 51.2 50 50.7c3.7-.2 7.5.9 11.2.6 6-.3 12-1.4 18-1.7q5.3-.3 10.4-.1c4.8 1 8 5.3 11.2 8.6 7.5 7.8 9 6.7 18.1 2.4 5 5 6.6 4.3 10.4-1.2 8.8 1.4 13.9 8.6 22.4 1.3 6.6-5.6 11-11.3 20.7-10.8q5.1.6 10.3.1" class="b"/><path d="m9.4 60 4.3-.2c2 1 4.3.7 6-.5l2.6-2q3.6-1.5 7-3.5c6.4-3.8 13.8-7.1 21.5-6q2.6.4 5.1 1.4 3 .9 6 1.2c5.6.3 11-1 16.4-2s11-1.6 16.4-1.3c6.2 3.2 10.4 12.3 17.3 13.4 2.6.1 5.2-1.1 7.7-2 4.4 3.4 5.3 2 8.6-1.6 3.3 0 6.5 1 9.5 2 2.8.9 5.7 2 8.6 1.4 3.4-.6 6.1-2.9 8.7-5 3.2-2.8 6.3-5.9 10.3-7.5q5-1.8 10.3-1 3.5 0 7-.4" class="b"/><path d="M9.4 55.7c1.2-.4 2.3.6 3.4 1 3.4 1.2 6.8-.8 9.5-2.7 3.4-2.4 6.7-5.2 10.4-7.3a28 28 0 0 1 17.2-1.5c3.4 1 6.1 3.5 9.5 4.6 11.9 4 23.5-3.8 35.3-4.5H99q1.5.8 2.6 2c4.6 4.2 9.2 11.3 16.4 9.5q1.3-.4 2.6-.4c2.3 1.5 4.5 0 6-1.8 6-1.2 11.5 1 17.3 2.2 10 2 15.7-10.1 25-12.3a21 21 0 0 1 6.9-.5q2.5-.1 5.1-.4l1.7 1.4" class="b"/><path d="M9.4 53c4.4 1.6 9-.3 13-2.2q5.4-2.7 11.1-4.8 6.8-2.2 13.8-3.3c.9-.2 1.8.4 2.6.8 2.5 1.2 4.6 3.4 6.9 4.9 3 2 6.7 3 10.3 3 5.3.2 10.6-1.1 15.6-2.9 6.3-2.1 14.8-6 21.5-4 3.8 3.5 7.4 8.4 13 9h2.5q1.3.1 2.6 0l1.7-.9 1.8-.4q3.8-1.1 7.7-1 4.5.1 8.6 1.3c3.4.9 7 1.7 10.4.5 6.3-2.3 10.7-8.2 17.2-10.2q2.5-.7 5.2-.6 1.6-.2 3.4-.2c1.6 1.2 3 3 4.3 4.5" class="b"/><path d="M9.4 50.2c3.5-.3 7-1.3 10.3-2.1a79 79 0 0 1 10.4-1.9c7.4-.9 15 0 22.4-1.5 1.3.5 2.3 2 3.4 2.6q2.4 1.7 5.2 2.3 4.3.6 8.6.5 5.3 0 10.4-.8c7.3-1.4 14-5.6 21.5-6 3.3 0 7 .7 9.5 3 4.3 3.7 8.3 4.8 13.8 3 4.1-1.1 8.5-2.3 12.9-1.9 3.5.3 7 1.5 10.3 2.3 10.6 3 16.3-8 25.9-8.2 3.4 1.5 5.8 4.6 8.6 7" class="b"/><path d="M9.4 46.4q2.2-.4 4.3-1C14.8 45 16 44.2 17 44c8.1-.8 16.1 1.2 24.2 1.9q6.4.6 12.9-.1 1.3-.3 2.6.4 1.2.4 2.6.5c2.5 0 5.2-.6 7.7-.7q4-.2 7.8.2c10.7 1.3 13.5-.4 23.3-2.8q5.2-1.2 10.3.4c2.9.8 5.6 3 8.6 2.8 1.4-.4 3 .2 4.3 0 3.3-.4 6.4-1.9 9.5-2.8 13-4 19.1 4.4 28.5 2.5 3.6-.8 6.8-2.9 10.3-4.1.9.1 1.8.8 2.6 1.2l3.4 1.4c2.2.9 4.5 2.3 7 1.7" class="b"/><path d="M9.4 43.2q4.9.6 9.5-1.3l2.6-1.1q.8-.5 1.7-.4c4.8 1.2 9.6 2.8 14.6 3 4 0 8-.7 12-.7 3.3 0 6.4.9 9.6.6 2.2-.1 4-1.4 6-2.3 8.2-2 16 2.3 24.1 2.3 5 0 9.8-1.3 14.7-1 2.9 0 5.7 1 8.6 1 1.1 0 2.4-.5 3.5-.6 3 1.3 6.5.2 9.4-1.2q3.8-1.8 7.8-3.2c9.6-2.8 15.5 1.9 24.1 4.5 3.4 1 7 .3 10.4-.7 2.9 1.4 6.3 1.5 9.4.8q3-1 5.2-3.2" class="b"/><path d="M9.4 36.8c6.7 3.4 10.2 4.3 17.2 1 10 4.1 12 1.1 21.6-.6 4 1.8 5.7 4 10.3 1.7 5.4 2.4 8.9 0 13-3.5 6.2 0 12 2.8 18 3.8 4.3.8 8.7.7 13 .7q3.8.1 7.7-.3c1.2-.1 2.4-.8 3.5-.9 2.6 1.5 5.9 1.5 8.6.1 5.3-2.5 10.3-6.3 16.4-6.8 11.4-1.3 18.6 8.2 29.3 7.9 4.9-.3 10.2.2 14.6-2.3" class="b"/><path d="M9.4 27.7C16.3 32.2 20.9 39 30 35.5c4.7 1.8 7.6.9 12-1.2l1.8-.7c1 0 2.4.5 3.4.8 5.3 2.1 6.7 3.1 12 .2 4 1.7 6.4 3 10.4.4l3.5-2.7c.3-.4 1.2-1 1.7-1 6.1.6 12 3 18 4 6.2.8 13.4 1.5 19-1.3 2.8 2 6.3 3.3 9.5 1.9 4.9-2 8.9-5.7 13.8-7.5a24 24 0 0 1 18.1.6c2 1.9 3.8 4.3 6 6 3 2.4 5 1.5 7.8-.3q4.3 1 8.6 1.1c2.3.2 4.6.9 7 .6" class="b"/><path d="M9.4 19.4c6.7 2.9 10.3 10.4 17.2 13.1q3 1 6 .2c1.4 0 3 .6 4.4.2q2.2-.5 4.3-1.8H43c8.4.6 8.6 4.2 17.2-.5 2.2 1.1 4.4 2.7 7 2.4 3.4-.4 5.8-3.5 8.6-5.3 8.9 1 17.6 4.5 26.7 3.8q3 0 6-1c1.1-.3 2.3-1.3 3.5-1.2 5.8 4.5 9.2 5 15.5.7 4.7-3.2 9.7-6.7 15.5-7.5q1.6-.3 3.4-.3 1-.2 1.7.4c2.5 2.2 4.7 5 7 7.4 5.1 5.9 8 2 12-2.5.8-.3 1.8.1 2.6.3q2.2.5 4.3.5c3.2 0 6 1.9 8.6 3.3" class="b"/><path d="M9.4 15c1.7 0 3.6 0 5.2.8 3.7 2.1 6.4 5.9 9.4 8.8 4.7 4.7 7.4 5.4 13.8 5q2.1-.9 4.3-1 3.5-.2 7 .5c2.2.4 4.6.8 6.8 0 1.8-.4 3.5-1.3 5.2-1.8 6 4.2 9 2 13.8-2.4 4.9-.1 9.8 1.2 14.6 1.8 7.5 1 15.8 1.6 22.5-2.4h.8c3.2 2.5 6.9 6 11.2 5.1 3.6-1 6.5-3.6 9.5-5.7 3.4-2.4 7.1-4.5 11.2-5.5 2.7 1.6 4.8 4.4 6.9 6.8 1.5 1.6 3 3.6 5.2 4.4 4.1 1.4 8.4-7 11.2-9.6.7-.3 1.8-.1 2.5 0l2.6.1c3.7-.3 7 1.8 9.5 4.1" class="b"/><path d="M9.4 11.6q3.4-.2 6.9.1c6.5 2.2 10 11.8 17.2 14 4 1.2 8-.2 12 0q4 .2 7.8.5c2.7 0 5.3-1 7.8-1.7.9 0 1.8.7 2.6 1 1.9 1 4.2.9 6-.2q1.4-.7 2.6-1.8.8-.8 1.7-1c13.2-.2 27.9 4.6 39.7-3.2 3.6 2.3 6.6 6.6 11.2 6.9 5-.2 9.6-5.7 13.8-8.2 1.5-1 3.3-2.5 5.2-2.6q3.2 2.7 6 6c1.7 1.7 3.5 4.1 6 4.8 5.1.4 9-11 13.8-13.2 5.4 0 8.5-.7 13 3.2" class="b"/></svg>