<svg xmlns="http://www.w3.org/2000/svg" id="a" width="1920" height="2400" viewBox="0 0 192 240"><defs><style>.b{fill:none;stroke:#fff;stroke-miterlimit:10;stroke-width:.3px}</style></defs><path d="M0 0h192v240H0z" style="stroke-width:0"/><path d="M10.3 225c4.2-.3 7.9-3 12-3.7 5.7-1.5 11.5.3 17 1.9q5 1.5 10.2 1.7 5.6 0 11.1-.1c6.3.3 12.6.4 18.8-1s12.3-3.2 18.7-3.4h2.6c1.2.3 2.3 1.3 3.4 2 2.5 1.5 5.5 3.1 8.5 2.4 1.1-.2 2.3-1 3.4-1 3.9 1.6 6.8 1.8 10.2-.9 5.1-4 9.5-9.7 16.2-10.7 18.2-3.3 21.2 17.4 30.7 11.8 3.8-2.3 5.9-6.5 8.6-9.8" class="b"/><path d="M10.3 221.4c4 1 7.6-2.1 11.1-3.4 10.1-4.6 17.5.1 27.3 2q4.3.6 8.5.2c1.7.3 3.4 1.2 5.1 1.3H65c.7-.1 1.7-.5 2.5-.4q4.7.5 9.4.5c6.3-.3 12.5-2 18.8-2.8l6-.3q.8.3 1.6.9c3.8 2.4 7 3 11.1.7 4.4 1 7.6 2.7 12 .1 5.7-3.5 10.7-9.2 17.8-9.7 13.2-1.5 18.3 12.8 25.6 10.9 5.6-2 8.2-7.8 12-12" class="b"/><path d="M10.3 217.7c3 1.4 6-.7 8.5-2.2q3.3-2.2 6.9-3.7c6.7-2.7 13.9-.6 20.4 1.5q3.4 1.1 6.9 1.5 2.2.7 4.2 1.8c2.6 1.3 5.7 2.3 8.5 1 .8-.3 1.7-1 2.6-1a76 76 0 0 0 9.4 1.5c7.4.6 14.7-1 22.1-1.4h2.6c.8 0 1.8.7 2.5 1q1.7.6 3.5.5c.7-.1 1.8-.4 2.5-.7.4-.3 1.3-.5 1.7-.4 5.2.4 9.5 2.3 14.5-.3 5.8-2.9 11.1-7.6 18-7.7 5.7-.3 10.7 3 15.2 6.3 2.5 1.7 5.6 3.7 8.6 2.4 5.7-2.5 8.5-8.5 12.8-12.7" class="b"/><path d="M10.3 214.4c3.6 1.5 6.7-2 9.4-3.8 2.6-2 5.4-4 8.5-5 6.9-2.3 14 .2 20.5 2.3 3.8 2.5 7.5 5.6 12 6.8 2.7.6 5.4-1.1 7.6-2.7 6.2 1.3 12.4 2.8 18.7 2.8q5.6 0 11.1-.2c2.6 0 5.2-.4 7.7.2 1.1.1 2.3-.4 3.4-.4h5.1c3.1.2 6.3.7 9.4.2 5.4-1 10-4.5 15.3-6 4.8-1.6 10-1.2 14.5 1 4 1.6 7.5 5 12 5.2 2.6 0 4.9-1.8 6.8-3.4 3.5-3 5.8-7.3 9.3-10.1" class="b"/><path d="M10.3 211.3c3.1.6 5.5-2.3 7.7-4.1q3-3.1 6.8-5.4c5.4-3.1 12-3 18-1.5 2.5.7 4.6 2.6 6.7 4.2 3.3 2.4 6.3 5.6 10.3 6.8 3.3.7 6.1-2 8.5-4 5.4 1.1 10.7 2.6 16.2 3.2 7.6 1 15.3 1 23 1 6.2-.3 12.6.5 18.8-1 4-1 7.9-2.9 11.9-4 5-1.5 10.5-1.2 15.3.9 4 1.4 7.7 4.3 12 4 3.8-.7 6.7-3.7 9.3-6.3 2.3-2.4 4.2-5.5 6.9-7.4" class="b"/><path d="M10.3 208c2.9-.7 4.8-3.4 6.9-5.3 2.4-2.6 5.2-5.1 8.5-6.6 5-2 11-2 16.2-.2 4 1.6 7.1 4.5 10.2 7.3 6.6 6.2 8.8 6.6 15.3 0a3 3 0 0 1 1.7 0 188 188 0 0 0 12.8 2.5c6.8 1 13.7 1.2 20.5 1.8a6 6 0 0 0 2.5.5c.8 0 1.8-.4 2.6-.4l6.8.3q5.6.2 11.1-.7c4-.8 8-2.3 12-3.2q7.7-2 15.3.3c4 1.2 7.7 3.7 12 3.8 3.6-.2 6.7-2.9 9.3-5.3 2.7-2.6 4.7-6 7.7-8.3" class="b"/><path d="M10.3 203.9c7.8-4.2 11.2-11.7 21.3-12.6 17-1.7 19.2 12.2 27.3 13.4 3.4-.3 5.1-3.8 7.7-5.4 9.8 2.2 19.8 2.6 29.8 3.2q2.2 0 4.3.4 3.7 3.2 7.7.5a56 56 0 0 0 16.2.3c4.9-.7 9.6-2.3 14.5-3.2q6.4-1.3 12.7.3c4 1 7.9 3 12 3.7 7.3 1 12-6.1 16.2-11l1.7.9" class="b"/><path d="M10.3 201c2.3-.5 4.3-2.1 6-3.6 2.5-2.2 4.9-4.6 7.7-6.3 4.7-3.1 10.8-3.8 16.2-2.3 3.6 1.1 6.7 3.7 9.4 6.4 2 2 4 4.6 6.8 5.8 3.3 1.1 5.7-2.5 7.6-4.6 4.6.6 9.1 1.4 13.7 1.5 7.4.3 14.8 0 22.1.4 4.1 3.5 5.6 4 10.3 1 11.8 2.7 18.6-.1 29.8-2.4q6.4-1.3 12.8.1c11.8 3 16.1 9.1 25.6-3 1.2 0 2.3 1.2 3.4 1.8" class="b"/><path d="M10.3 197.8c2.7-.4 4.9-2.3 6.9-4q3.5-3.5 7.6-6.2a18 18 0 0 1 18.8.2c3.8 2.4 6.5 6.5 10.2 9.2 3.2 2.3 5.5-.5 7.7-2.7 12.9 2.9 26.1 0 39.2.2 4.6 4 5.6 4.3 11 1.3 10.4 3 20-.8 29.9-3q7.3-1.6 14.5.3c3.5 1 6.8 2.7 10.2 4q6.5 2.4 11.1-2.8 2 1.3 4.3 2.2" class="b"/><path d="M10.3 194.3c2.6-.7 4.8-2.6 6.9-4.3 2.6-2.2 5.3-4.6 8.5-6 4-2 8.6-2.3 12.8-1 9.3 2.9 13.4 16 19.6 9.8a91 91 0 0 0 25.5.4c6.5-.5 13-1.6 19.6-1.4 2.9 2.5 4.9 3.4 8.6 2l1.7-.6 2.5.5q7.9.7 15.4-1.7c5.9-1.8 11.6-4.5 17.9-5 7.3-.8 13.4 2.3 19.6 5.8 2.3 1.1 5.1 2.4 7.6 1.1q1.3 0 2.6.4l2.6.2" class="b"/><path d="M10.3 190.1c4.4-2 7.8-5.6 12-7.9 6-3.6 14-3.4 19.6 1q2.6 2.2 5 4.5c1.6 1.3 3.2 2.9 5.2 3.4l2.5-.2 3.5.2 11.9-.2c4.5 0 9.1.3 13.6.1 8-.2 16-1.8 23.9-1.1a10 10 0 0 0 6.8 1c1.4-.2 3 .1 4.3 0 9.7.3 14.6-2.5 23-6.6a27 27 0 0 1 17-2.9c5.4 3.3 9.7 8.9 16.3 9.6h4.2c.8-.3 1.8-1 2.6-1.2" class="b"/><path d="M10.3 186.3c4.7-2 8.8-5.5 13.7-7 9.7-3.2 14.9 1.8 22.1 7.1 1.3.8 2.8 1.5 4.3 1.2 2.2.3 4.6-.3 6.8-.6q5.1-1 10.2-1.2c9.2 0 18.2 2.4 27.3 1.9q7.7-.5 15.4-.2 4.6.3 9.3.2c2.9 0 5.8.1 8.6-.5 5.7-1.1 10.3-5 15.3-7.9 1.6-.8 3.3-1.9 5.1-2.3q3 .5 6 2c8.4 4 13.6 12 23.8 7.2 1.3.1 2.3 1.3 3.5 1.5" class="b"/><path d="M10.3 183.2c7.3-2.5 14.2-7 22.2-4.5 2.7.8 5.2 2.3 7.7 3.6 1.8 1 3.8 2.1 6 2 .7-.3 1.7 0 2.5 0q1.7 0 3.4-.6a44 44 0 0 1 20.5-3.4c6.6.7 13 2.7 19.6 3.4q6.3.8 12.8.6 4.7 0 9.3-.3c1.7 0 3.5.4 5.2.3q2-.4 4.2 0c8.5 1 12.4-3.7 18.8-8 4.7-.4 9.4 1.1 13.6 3.3 3.6 1.8 7 4.2 11 4.7 5 .3 9.6-2 13.7-4.3l.9.9" class="b"/><path d="M10.3 180.4c6.5-1.2 13-3.5 19.6-2 4.5.6 9.1 3.7 13.7 2 .8-.2 1.7.3 2.5.4 2.4.4 4.8-.8 6.9-1.8a39 39 0 0 1 16.2-4.4c7.8-.2 15.4 2.6 23 4.3q10.1 2.3 20.4 1.2c2.6.2 5.1.9 7.7.8q2.2 0 4.3-.4l1.7.2c5.4 1 8.6-1.6 12.8-4.5 4.5-.8 9.3-.2 13.6 1.3 4 1.3 7.8 3.2 12 3.4q3.9 0 7.6-1.6 4.8-1.6 9.4-4" class="b"/><path d="M10.3 177.5c5.4-.2 10.8-.8 16.2-.5 4.9.3 10.1 1.4 14.5-1.2 1.2.2 2.3 1.1 3.4 1.4 2.7.9 5.4-.4 7.7-1.6a39 39 0 0 1 22.2-6c8.5.5 16.4 4 24.7 5.6q6 1.3 12 .7 2.4 1 5 1.2a40 40 0 0 0 11.1 0q2.5.6 5.1.3c1.8-.3 3.5-1.4 5.1-2.2l2.6-.2q6-.3 12 1c3.8.9 7.8 1.9 11.8 1.4q4-.5 7.7-2 5.2-1.6 10.2-3.5" class="b"/><path d="M10.3 174q6.9 0 13.7 0c5 0 10.1-.6 14.5-3.2 4.8 3.5 8.2 4.6 13.6 1.4 4.4-2.3 8.8-4.9 13.6-6.1a40 40 0 0 1 21.4.7c6.7 1.8 13.4 4.5 20.4 4.7 1.2-.1 2.3 1 3.4 1.3q2.6.9 5.1 1a61 61 0 0 0 13.7 0q1.6.3 3.4.4c1 0 2.4-.4 3.4-1h4.3c6.2 0 12.4 1.3 18.7.9 4-.3 8-1.5 12-2.5l10.2-2.4" class="b"/><path d="M10.3 169.4c8.3 0 17.1.4 24.8-3.4 4.1 1.7 8 5.4 12.7 4.7 4.4-.8 8-3.6 12-5.5a36 36 0 0 1 22.1-4.3c8.2 1 15.8 4.7 23.9 5.9 3.9 3.5 7 3.7 12 3.8 5.3.4 10.7 0 16.1 0 7.7-.2 15.4.5 23-.2 4.6-.4 9.2-1.4 13.7-2.2q5.5-.9 11-1.2" class="b"/><path d="M10.3 164.1q7-.3 13.7-1c7.5-1.2 5.1-2.5 12.8.7 3.5 1.4 7.1 3.5 11 3.6 4.1 0 7.7-2.4 11.1-4.4 3.8-2.2 7.7-4.3 12-5.4 8.4-2.3 17.3-.5 25.5 2.2l6 1.8c1.4.4 2.2 2 3.4 2.8 2.3 2 5.5 2.9 8.5 2.9 12.2 0 24.5.4 36.7-.4 10.2-.8 20.4-2.8 30.7-1.7" class="b"/><path d="M10.3 162.9c5.1-1.1 10.1-2.9 15.4-3.3q7.4-.6 14.5 2c5.1 1.8 10 3.7 15.3 1 6-3.1 11.3-7.5 17.9-9 6.7-1.8 13.9-1 20.5 1l4.2 1.3 1.7.6 1.7 1.7c3.7 4.3 7 6 12.8 5.8l23.9-.4q3 .7 6-.2c1.5-.6 3.4-.4 5-.7l7.7-.5q12.5-1 24.8 1" class="b"/><path d="M10.3 160.6c8.7-.1 16.9-4.3 25.6-3.3q4.8.5 9.4 2c3 .9 6.3 1.8 9.4 1 4-1.4 7.4-4.2 11-6.4a32 32 0 0 1 26.5-3.8c1.6.5 3.7.7 5 1.8 3.2 3.4 6.4 7.6 11.2 8.4 3 .5 6.2.2 9.3.3q10.8.1 21.3-1.2c1.2-.3 2.4.5 3.4.8a9 9 0 0 0 6.9-.6l2.5-1.5h6.8c7.8 0 15.4 1.8 23 2.5" class="b"/><path d="M10.3 156.4c9.3 2.3 15.1-1.1 23.9-2.2 5.5-.7 11 1 16.2 2.5 4.5 1.4 8.3-.6 12-3.1 3.2-2.3 6.5-4.7 10.2-6.2a32 32 0 0 1 20.4-1c4.5 3.6 7.8 9.1 13.7 10.5 2.7.5 5.7.2 8.5.3q5.6 0 11-.3c5.2-.4 10.3-1.6 15.4-2.5q1.3.2 2.6 1 1.6.7 3.4 1.3c4.4 1.4 6.6-.5 10.2-2.7 4.9.5 9.7 1.8 14.5 2.5 3 .5 6.3 1 9.4.4" class="b"/><path d="M10.3 151.3c12.2 4.5 14 1.8 25.6-.3 5.2-1 10.4.4 15.3 2.1 4.7 1.8 8.2-.2 12-3 3.5-2.5 7-5.2 11-6.8 4.6-1.8 9.7-2 14.5-1.4q2.9 1.7 5.1 3.9c6.5 5.9 9.6 8.6 18.8 8q5.6.1 11-.2 6.1-.8 12-2.6a80 80 0 0 1 9.4-1.8q1.3.4 2.5 1.2c5.3 3 9.2 5.4 14.5.6 6.3 1.6 13.3 4.5 19.6 1.5" class="b"/><path d="M10.3 146.3c5.4 2.2 11 5.2 17 3.8 3.5-.7 6.9-1.9 10.3-2.4 6.4-1.1 10.4.9 16.2 2.5 4.7 1 8.5-2.8 12-5.3A26.3 26.3 0 0 1 81 138c1-.1 2.4-.3 3.4.2 7.8 3.1 13.4 11 22.2 12q3.7.1 7.6.1 4.7.2 9.4-.6c5.5-1 10.7-3.5 16.2-4.8q3.4-.7 6.8-1c1.5 0 3.1 0 4.3 1 4.4 2.7 9.3 8 14.5 3.9 1.4-.1 2.8.7 4.2 1 4.2 1 8.4.7 12-1.9" class="b"/><path d="M10.3 142.2c7.3 2.8 12.3 6.3 20.5 4.1l5.1-1.1q1.6-.5 3.4-.2c2.8.5 5.7.3 8.5.3 3 .8 6.3 2.5 9.4 1.3 5.1-2.1 8.8-6.7 13.7-9.3 1.8-1 3.8-2.3 6-2 14.5 1.3 19.9 12.3 35.7 11.6q6 .1 12-1.7c8-2.7 15.8-7.2 24.7-6q3 .3 6 1.3c2.2 1.6 4.4 3.7 6.8 5.2 2 1.4 4.6 1.8 6.8.4 4.7 1.6 9 1.3 12.8-2.1" class="b"/><path d="M10.3 139.3c5.4 1.6 10.5 4.4 16.2 4.3q4-.2 7.7-.8c4.5 1 9.1.8 13.6.8H53a9 9 0 0 0 4.2-1.2 37 37 0 0 1 18.8-7.8c17.2-1.2 26.5 13 46 6.4 6.3-2.2 12-5.9 18.7-7 5.2-.8 10.6-.2 15.4 1.8 2.1 1 4.4 1.9 6 3.6 2.5 2.2 5.7 5.4 9.3 3.8 4.1.8 7 .6 10.3-2.3" class="b"/><path d="M10.3 137.6c4.3.7 8.5 2 12.8 2.4q3.4.3 6.8.2 3.5 0 6.9-.3c3.6-.2 7.4.3 11 .3q1.8 0 3.4-.3.9-.4 1.8 0c4 1 8.2-.4 11.9-2.2 14.4-7.3 21.6-6.2 36.6-2 8.4 2.2 14.3 2 22.2-1.6 3.9-1.6 7.8-3.5 12-4.6 8.6-2.4 17.9-1 25.5 3.8 4.2 2.2 7.4 8.7 12.8 6.5 2.6.8 5.5.4 7.7-1.3" class="b"/><path d="M10.3 135.9q6.9.2 13.7 1h10.2c7 0 12.5 0 18.8-4 10.4 6.5 12.8 3.9 23-.7A38 38 0 0 1 98 129c1.2.2 2.5.2 3.4 1 10 6.5 16.2 5.4 25.6-1.4q3.3-2.4 6.8-4 2.6-.5 5.1-.7c6.1-.4 12.4.4 18 3.1q3.9 2 7.6 4.5 3.1 1.8 6 4c1.4 1 3.4 1.7 5 1.1q3.3.8 6-1" class="b"/><path d="M10.3 133.4h11.1c5.1-.4 10.3-.2 15.3-1.1 6-1 11.5-3.8 16.2-7.5h.9c4 2.7 7.3 6.6 12 8.2 5.6 1.8 10.5-2.9 15.3-5.2a37 37 0 0 1 12.8-4.3c7.2 4.7 11.7 9.8 21.3 9 9.2-.7 14.4-10.2 23-12.6q3-.2 6 .1c10.5.9 16 6.1 24.7 10.8a26 26 0 0 0 5 2c2.5 1 5.5.9 7.8-.4" class="b"/><path d="M10.3 129.8c10.2.8 20.8.2 29.9-4.9q4.3-2.3 8.5-5c1.6-1 3.3-2.2 5.1-2.7 6.1 2.7 9.4 9.3 15.3 12.3 4 1.9 8-1.4 11.1-3.6 3.2-2.3 6.5-4.9 10.2-6.1 4.7 3.4 8.8 8 14.5 9.6 2.8.8 5.7.7 8.6.7a17 17 0 0 0 10.2-2.3c5.2-3.1 10.7-11.6 17-11.5 10.4.7 16.3 5.2 24.8 10.2a28 28 0 0 0 9.3 3.4q3.6.7 6.9-1" class="b"/><path d="M10.3 125.9q2.6.5 5.1.8 2.2-.2 4.3 0c4.8.1 9.5-1.6 13.6-4 6.4-3.7 12-9.6 19.7-10.4 7.6-.5 11.1 8 16.2 12.2 3.7 3.5 6.7 2.3 10.2-.7 2.8-2.3 5.4-5.1 8.5-7 5.6 4.7 10.6 11.3 18.8 9.7q5.5-1 11 0c4.1.9 7.5-1 10.3-3.8 3-3 5.7-6.5 9.3-8.7q1.2-.8 2.6-1 2.2.3 4.3.9c6.2 1.5 11.6 5.2 17 8.4 4.6 2.7 10 4.5 15.4 4.4.7 0 1.8-.3 2.5 0q1.5 0 2.6-1" class="b"/><path d="M10.3 122.3a13 13 0 0 0 7.7.6q4.4 1 8.5-.8c7.4-3.4 12.3-11.3 20.5-13 2.2-.4 4.6-.2 6.8-.3s4.9-.3 6.8 1.2c4.7 2.7 9.2 13.8 14.5 13.3 2-.5 3.7-2 5.1-3.4l5.1-5.1h.9c4.2 3.9 8.8 10 15.3 8.2 2.9-.7 5.6-2 8.5-2.3q3.5-.6 6.9.8c1.9.7 3.8 1.8 6 1.8 6.3-.4 10.3-11 16.1-13.1 14.8 3.5 22.3 16 39.2 12.6 1 .4 2.4.7 3.4.2" class="b"/><path d="M10.3 118.6c2.4 1 5.2 2 7.7.8 1 0 2.3.5 3.4.5q2.2 0 4.3-1c6.9-3.4 10.9-11.7 18.7-13.3q3.8-.2 7.7-.2 3.8 0 7.7.2c5.3 2 7.7 9.2 11.9 12.9 2.3 2.2 4.6 1.5 6.8-.5q2.7-2.7 5.1-5.4c1 .2 1.8 1.4 2.6 2.1q2 2 4.2 3.7c5.5 4 11-1.2 16.2-2.9 3.7-1.3 7.9-1 11.1 1.2 2.1 1.2 4.3 3.1 6.8 3.2 4.9-.4 8.8-8.9 12.8-12 1.5 0 3 1 4.3 1.5q3.5 1.6 6.8 3.7c11.4 6.9 16.7 8 29.8 5.9q1.6 1 3.5.8" class="b"/><path d="M10.3 114.8c3.2 1.6 5 2.3 8.5 1 3.4 1.5 6.8.3 9.4-2 4.4-3.5 7.6-8.6 12.8-11 2.4-1 5.2-.7 7.7-.8h10.2c4.9.6 8 8.2 11.1 11.6 4.8 6.3 8.2.7 12-3.2 10.3 11.8 12.8 3.4 23.8-.5 3.6-1.2 7.9-1 11 1.2 3 1.6 6 6 9.5 5.3 3-1.1 4.8-4.3 6.8-6.7 1-1.1 1.9-3 3.4-3.5 7.7 3.8 15 9.8 23.9 10.2q4.7.1 9.3-.5 4-.4 7.7-1c1.1 1 2.7 1.9 4.3 1.5" class="b"/><path d="M10.3 111c2.5 1.5 5.8 3 8.5 1.3 4 1.3 6.1 1 9.4-1.7 4.4-3.5 7.6-8.8 12.8-11.2 2.1-1 4.6-.7 6.8-.8h10.3c6 1.5 8.4 10.9 13.6 14 3.1 1.7 5.8-1.8 7.7-3.8l.8.1c2.2 2.3 5.2 4.9 8.6 4 5-1.4 8.7-5.6 13.6-7.4 3.7-1.5 8.1-1.8 12-.3 2.6 1.1 4.7 3.4 6.7 5.3 1.4 1.2 3.1 2.8 5.1 2.6 3.6-1.2 5.5-5 7.7-7.8l.9-.1c19.5 12.2 20.4 6.9 40.9 5.8 1.9 1 3.6 2.7 6 1.9" class="b"/><path d="M10.3 107.3c3.6 2 5.4 3.2 9.4 1.6 3.4 1.7 6.7.5 9.4-1.9 4.7-3.8 8.3-9.8 14.5-11.4 2.2-.5 4.6-.3 6.8-.3 2 0 4-.2 6 .2 6 2.2 8 9.4 12.8 13.2 2.7 2.4 5.6 0 7.6-2.1 1 0 1.8 1 2.6 1.6q1.9 1.4 4.2 1.5c3-.1 5.4-2 7.7-3.6 2.7-1.8 5.5-3.7 8.5-4.8 4.4-1.7 9.3-1.8 13.7-.2 2.3.8 4.2 2.6 6 4.3 2 1.8 4.5 5.4 7.6 4 2.2-1.2 3.4-3.6 5.1-5.1 4.5 2.6 9.3 5.2 14.5 5.4 4.3.2 8.6-1 12.8-1.7q7.3-1.7 14.5-1.2c2 2 4.8 3.9 7.7 2.3" class="b"/><path d="M10.3 104c2.8 1.6 6.3 3.4 9.4 1.6 1.7.3 3.4 1 5.1.7 5-1 8.3-5.5 12-8.6 2.4-2.2 5.2-4.2 8.5-5 2.7-.8 5.8-1.1 8.5 0 4.5 2 7 6.6 10.2 10.2 1.7 1.9 4.1 4.3 6.8 3 1.2-.3 2.2-1.6 3.5-1.8 5 4.4 9 1.3 13.6-1.9s9.7-6 15.3-6q6.5 0 12 3c1.8 1.1 3.5 2.9 5 4.4 1.8 1.7 4.4 3.9 6.9 2 .8-.6 1.6-1.7 2.6-2 8.6 4.5 14.2 2.5 23 .3a56 56 0 0 1 18.7-1.6c3 3.5 6 5.5 10.3 2.7" class="b"/><path d="M10.3 101c3.5 1.6 6.5 2.7 10.3 1.1 7.9 3.3 13.6-4 19.6-8 2.6-1.7 6.1-3.8 9.4-3.6 5.1 1.7 8 6.6 11.9 10.1q4 4.2 8.5.6c4.3 2.7 7 2 11-.7 3.4-2.2 6.6-4.7 10.3-6.2 4-1.6 8.6-2.2 12.8-1.1q4.2 2.1 8.5 3.8c1.4.5 3 .7 4.3 1.5 2.6 2 5.9 6.2 9.4 3.5 13 4.2 20.2-8 42.6-4.1 4.5 5.3 6.6 6.8 12.8 2.5" class="b"/><path d="M10.3 98.3c2.5.8 5.1 1.6 7.7 1.2 1.1-.1 2.3-.8 3.4-.7q4.3 1.3 8.5.3c6.3-2 11.3-7.1 18-8.2 4.3 1.6 7.2 5.4 11 7.8 2.8 1.6 4.2.7 6.8-.4 9.2 5.5 14.8-9.2 29-9.2l2.6.1 3.4 2 6.8 4.4c3 1.9 6.7 2.6 10.2 3.2q8 2 15.4-1.4c11.8-5 19.5-7 32.4-4 2 .2 2.8 2.7 4.2 3.9 4 4.2 6.2 1.6 10.2-.5l1.7.4" class="b"/><path d="M10.3 95.8q5.6 1 11.1-.6 4.3 1 8.5 1c6-.4 11.3-3.6 17-4.4 3.3 1.3 6 3.6 9.5 4.3 1.4.3 2.9-.5 4.2-.8C71.3 100 76.7 83.7 93 85.5c2.6 1 4.7 3 6.8 4.7 5.4 4.5 9 6.6 16.2 5.9l1.7-.2 1.7.3a6 6 0 0 0 3.4-1.3l2.6-1c6.4-2.7 12.6-6 19.6-6.8a43 43 0 0 1 20.5 3.2l1.7 2.2c3.7 4.7 5.5 4.6 10.2 1q2.1.8 4.2 1.2" class="b"/><path d="m10.3 92.8 6.9-.6q2-.5 4.2-.7c4.2.6 8.5 1.4 12.8 1.3 4-.1 8-1 12-1.2 1.6 0 3.3 1 5 1.1h2.6q.8-.3 1.7-.3c4.8 1.2 8.9-.5 12.8-3.1 6.8-4.8 13.5-8.7 22.1-7.1 2.1.1 3.7 1.8 5.2 3 3.5 3 6.9 7.6 11.9 7.6q1.6-.1 3.4-.7c2.5.4 5.2 1.2 7.7.2q1.9-.9 3.4-2.4c1-1 2-2.2 3.4-2.7a40 40 0 0 1 37.5-.5c.8.3 2 .7 2.6 1.3.9 1.3 2.1 2.9 3.4 3.9 1.5 1.3 3.5 1 5-.2l1-.7a3 3 0 0 1 1.6.1l5.1 1.2" class="b"/><path d="M10.3 88.2c7-1.4 14.3-.5 21.3.5q7.3.8 14.5.7c5.2 0 10.7.3 15.4-2.3 7.9-4.2 14.2-9.6 23.8-8.3q4.2.6 7.7 2.5c3.5 3 7.5 9.4 12.8 7.8 1-.3 2.3.3 3.4.3q3-.1 6-1.1 3-1.2 5-3.6c1.2-1 2-2.7 3.5-3 9.9-4.1 20.7-4.9 30.7-.7 4 1.6 7.9 3.7 12 5.3.8 1 2 2.4 3.3 3q1.4.2 2.6-.3l.8-.5h.9q3.8.7 7.7.9" class="b"/><path d="M10.3 84.2a46 46 0 0 1 22.2-1l8.5 2.4c3.1.8 6.6.5 9.4-1.1 1.6-.5 3.5-.7 5.1-1.4 4.1-1.5 7.9-3.8 12-5.5A24 24 0 0 1 93 80.7c1.5 1.7 3.2 3.5 5.1 4.6q1.6 1 3.4.6 1.7.2 3.4 0c3.8-.9 7-3.4 10.3-5.2q2.3-1.6 4.2-3.5l1.7-1.6 1.7-.5c7.8-2 16.2-2.5 23.9-.2 4.5 1.4 8.7 3.8 12.8 6.1q4 2.4 8.5 3.9 1 .8 2.6 1.1c1.6-.4 3.4 0 5 0q3 .1 6-.4" class="b"/><path d="M10.3 79.2c3-1.3 10.7-4.3 13.7-3.2q5.2 1.7 10.2 4.1c3 1.3 6.1 2.7 9.4 2.5a15 15 0 0 0 7.7-3.7q1.6-1.4 3.4-2.8l1.7-.6Q62 73 68.3 71.8c9.3-1.5 15.9 1.7 23 7.3 1.4 1 2.7 2.5 4.3 3.2 1.9.6 4.2.4 6-.4 2.8-1.5 5.2-4 7.6-6q3.2-2.7 6.8-4.6 1.6-1 3.4-1.9a88 88 0 0 1 16.2-.7c22.2.8 23.2 19.6 46 12.3" class="b"/><path d="M10.3 73.3a40 40 0 0 1 7.7-3.7c3-1 3.2-.8 6 .6q4.8 2.5 9.4 5.6c3.4 2.2 7.8 4.7 11.9 2.7 3.6-1.7 6.4-4.7 9.4-7.3a27 27 0 0 1 4.2-3.2l2.6-.4a28 28 0 0 1 24.7 7q3 2.3 6 4.3c2 .7 4.3.3 6-1 4.4-3.1 7.2-8.1 11.9-11 3.8-2.5 8.5-2.1 12.8-2.1h13.6c15.7.1 19.5 12.5 30.7 14.4l5.1-.1c3.1-1 6.4-1.8 9.4-3.3" class="b"/><path d="M10.3 66.9q4.2-3 9.4-4.2a38 38 0 0 1 12 7.5c4.1 3.3 9 8 14.4 4.1 5.5-3.6 9.5-9.7 16.2-11.2 2-.5 4-.2 6 0a25 25 0 0 1 11 4.8q3.5 2.7 6.9 5.6c2.1 2.1 4.9 3.2 7.7 1.6 5.3-3.4 7.9-10.1 13.6-13 1.6-.8 3.4-.7 5.1-.7h23.9c8.7-.6 13.4 3.2 19.6 8.7 2.7 2.3 5.7 5 9.4 5.6 1.3.3 3 0 4.2-.2 1 .3 2.4.4 3.4.2 2.9-.5 5.7-1.4 8.6-1.5" class="b"/><path d="M10.3 60.7c8-5.1 14.2-1.8 20.5 4 3.1 2.8 6 6.6 10.2 7.7 4.9.6 9.2-5.3 12.8-8a17 17 0 0 1 17-3.5c3.7 1.2 6.7 3.8 9.4 6.5s6 6.3 10.3 4.7c5.4-3 7.7-9.5 12.8-13q2.3-1.4 5-1.1h24c8.5 0 12.5-1.2 19.5 5 4.1 3.2 7.6 8 12.8 9.3q1.8.3 3.4-.1 1.4-.5 2.6 0c3.6.7 7.4-.4 11 0" class="b"/><path d="M10.3 55.4c2.7-1.2 5.7-.7 8.5-.8 4.3-.3 8.2 2 11.1 4.8 3.6 3 8 9.6 12.8 9.6 5-.6 9.2-6.8 13.7-9.2 6.1-3.6 13.5-1.9 18.7 2.6 2.8 2.1 5.2 5.1 8.5 6.5 1 .2 2.4.1 3.4.1q2-.5 3.4-1.8c4.4-3.5 7.5-10.8 12.8-12.5 10.2-.3 20.5 0 30.7-.1 10.4-.2 12.5-.4 20.5 7.1 3.2 3 6.4 7 11 7.3q1.9 0 3.5-.6c.8-.2 1.8.2 2.5.3 3.4.5 6.9.3 10.3.3" class="b"/><path d="M10.3 51.3h9.4c5.2-.6 9.4 2.8 12.8 6.4 3 2.8 6.5 8 11 8 2.3-.3 4.3-1.9 6-3.2 3-2.3 5.8-5 9.4-6 6-1.8 11.8 1.5 16.2 5.2 3.6 2.8 5.5 4.6 10.3 3.8 5.1-1.7 8-7.6 11.9-11.2 2.3-2.3 4.3-3.4 7.7-3.1h32.3c9.3-.7 13.3 3.5 19.7 9.4 2.4 2.2 5 4.8 8.5 5 1.4.2 2.9-.6 4.2-.8q6 1.2 12-.1" class="b"/><path d="M10.3 47.8h8.5c2.3 0 4.8 0 6.9 1 3.7 1.5 6.6 4.7 9.4 7.5 2.8 2.9 6.5 7.3 11 5.6 5.2-2.2 9.3-7.6 15.4-7.4 6.3 0 10.8 5 16.2 7.3 1.3.6 2.8.4 4.2.5 4.4-.2 7.4-4 10.3-7 2.9-2.9 5.8-6.8 10.2-7.4h23.9c5 0 10.2-.3 15.3.1 12 1.3 18.8 17.5 27.3 13.7.7-.3 1.8-.1 2.5 0l2.6-.1q4-.3 7.7-2" class="b"/><path d="M10.3 44.4c11.4.2 15.2-1.5 23.9 7.2 3.2 3 6.4 7.2 11 7.3 4.2-.5 7.4-3.7 11.2-5q4.2-1.5 8.5-.2c6.8 2.2 10.9 7.7 18.7 4 5.8-2.9 9.8-8.4 15.4-11.7 2.3-1.5 5-1.7 7.6-1.6h24c10.7-.2 17 1.1 25.5 8.3 3 2.4 6.1 5.6 10.2 6.2q1.8 0 3.4-.7h1.7q5.7-.5 10.2-3.9" class="b"/><path d="M10.3 41c16-.3 17.4 1.5 29 11.6 3 2.5 6.5 3.8 10.2 2.2 5.1-2.2 8.8-4.5 14.5-2.9q3.3 1.8 6.9 3c11.1 3.2 19.7-7.1 29-11.6q3.1-1.7 6.7-2.2h5.2q7.6-.1 15.3.4c5.4.2 11 .3 16.2 1.6 2 .4 3.5 2.2 5.1 3.3q3.7 3.2 7.7 5.8 4 2.3 8.5 2.7 1.6.6 3.4.6 1.3-.1 2.6-.6c.7 0 1.8-.2 2.5-.4 3.3-.8 6-3 8.6-5.2" class="b"/><path d="M10.3 38.8c9.8-1 17.1.7 24.8 7 3.1 2.4 6.2 5.3 10.2 6.1 4.1.9 8-1.7 12-2.4l1.6-.2 2.6 1.2A22 22 0 0 0 71.7 52q2.2.2 4.3-.1 2.3-.5 4.2-1.8l6-2.2q7.7-3.1 15.3-6.5l6.9-2.6c1.3-.3 2.8-1 4.2-.7 2.6.6 5.1 1.5 7.7 1.8q4.6.8 9.4.7h7.6q1.3 0 2.6.3l2.6 1.8c5.7 4.4 11 9 18.7 9.2 9.9.4 13.3.5 20.5-7.1" class="b"/><path d="M10.3 38.5a27 27 0 0 1 18.8 1.2c3.9 1.7 7.4 4.4 11 6.6 6.2 3.7 9 2.4 15.4 1a15 15 0 0 0 8.5 1.3c1.7-.1 3.5-.8 5.1-.3 3.8 1 7.8.3 11.1-1.7 1.4-.7 2.7-1.9 4.3-2 9.3-1.4 18.8-2.6 27.3-7 1.8.3 3.3 1.7 5 2.3 5 2 10.3 1.5 15.4.9 1.7-.1 3.5-.8 5.1-.4l2.6 1.8c8.9 6.5 12.2 6.8 23 6.4 10.2.4 11.9.3 18.7-7.7" class="b"/><path d="M10.3 39.2c12.2-5.2 19.1-1.5 29.9 4.2A16 16 0 0 0 52 44.7c.8-.2 1.8.4 2.6.5q2.6.3 5-.4l3.5-1 3.4.6c3.3.7 6.9 1.4 10.2.5q4-1.1 7.7-3.1c1.2-.9 2.9-.3 4.3-.3 8.5.7 15.9 1.2 23.8-2.6 6.6 5 14.8 3.5 22.2 1.6 1.2.2 2.3 1.1 3.4 1.7l4.3 2c5.7 2.3 11.9.3 17.9.2 11.6.2 12.8 4.2 21.3-6.7" class="b"/><path d="M10.3 39c10-4.3 16.6-3.9 26.5.5 4.4 2 8.8 3.2 13.6 1.8 3.1 1.6 6.5-.5 9.4-1.7q1.6-.1 3.4.2c3.4.5 6.8 1.6 10.2 2q4.4.5 8.5-.9l3.4-1.2c.8-.2 1.8-.7 2.6-.6a45 45 0 0 0 24.7.5c1.7.5 3.4 1.4 5.1 1.6 5.4.7 11 0 16.2-1.2 8.7 3.6 12.9 1.3 21.3-.2q4.4-.6 8.6.1c2 .3 3.8 1.8 6 2h4.2c3.4-.9 5.6-4 7.7-6.6" class="b"/><path d="M10.3 37.7c7.6-2.2 13.5-3.9 21.3-1.7 3.1.8 6.2 1.9 9.4 2.4a17 17 0 0 0 6.8-.4q1 0 1.7.4c2.5.6 4.8-1 6.9-2.2l1.7-1q1.2-.2 2.5-.2c10 .8 14.6 5.4 25.6 2.7l2.5-.6q1.8.2 3.5.7 3.3.7 6.8.7c4.8 0 9.7.2 14.5-.2 3.3.6 6.8 0 10.2.2 3 0 6.3.2 9.4-.3q3.4.6 6.8.2c5.5-.8 10.6-3.6 16.2-4.2q4 .7 7.7 2.5c2.6 1 5.6 2.7 8.5 1.3 4.2 1.7 7-1 9.4-4.1" class="b"/><path d="M10.3 35.1c5.5.2 10.8-1.7 16.2-1.5 5.7 0 11.4 2 17 1.5l2.6-.4q1.3.4 2.6.4c2-.2 3.6-1.6 5.1-2.7q3.7-1.4 7.7-1c7 .5 13.4 3.7 20.4 3.8q4.4 0 8.6-.6 4.3.8 8.5.4c2.2-.2 4.6-.7 6.8-.3q5.1.6 10.2.4 4.3-.4 8.5-.3 4.7.4 9.4.4c4.6 0 9.2-1.4 13.7-2.2a29 29 0 0 1 10.2 0c5 .6 10.8 4.3 15.3.3 3.4 1.9 5.4 3 8.6 0" class="b"/><path d="M10.3 30.3c6.3 2.7 13.1.8 19.6 1 3.7.1 7.4.6 11.1.5l3.4-.3q1.3.4 2.6.1 1.3-.5 2.5-1.2l4.3-1.2c8.5-2.6 17.1 1 25.6 2.1 6 .8 12 .4 17.9.4 4.8-.1 9.7.5 14.5-.4 1.7-.6 3.3.3 5 .4 4.9.1 9.8.3 14.6-.5 1-.3 2.3.2 3.4.3q2.1.3 4.2.3c3.7 0 7.4-.6 11.1-.8q5.6-.3 11.1.6c5 .7 9.2-.3 12.8-4.1 2.4 1.5 4.4 4.8 7.7 4.2" class="b"/><path d="m10.3 25.7.9-.8c1.4.3 2.8 1.4 4.2 1.9q3.8 1.3 7.7 1.5H42c.7-.2 1.7.1 2.5 0q1.6-.5 3.4-.7c5-1 10.2-2.3 15.4-1.8 5.4.3 10.8 1.4 16.2 2q9.4.8 18.7.5c4.9 0 9.8-.2 14.5-1.6a3 3 0 0 1 1.7.4q1.2.5 2.6.7a36 36 0 0 0 15.3-1q6.3 1.5 12.8 1.5h9.4q4.3.2 8.5-.4c4.7-.6 8.7-3.5 12-6.8 2.4 1.9 4 4.8 6.8 6.4" class="b"/><path d="m10.3 23.2 3.4-2.5c1-.1 1.8.6 2.6 1l3.4 1.5c5.5 2 11.4 1.7 17 1.8h6c2-.4 4-.3 6-.6l8.5-.9q7.7-.3 15.4.4 6 .5 11.9.7 4.3-.1 8.5.4 3.8-.5 7.7-.5 6-.3 12-2c1.3.4 2.7 1.4 4.2 1.6q5.5 1 11-.2 2.3-.6 4.3-1.3 5.1 1 10.2 1.5c7.1.5 14.5.8 21.3-1.6 4.5-1.6 8.3-4.6 12-7.5 2.2 1.9 4 4.4 6 6.4" class="b"/></svg>