<svg xmlns="http://www.w3.org/2000/svg" id="a" width="1920" height="2400" viewBox="0 0 192 240"><defs><style>.b{fill:none;stroke:#fff;stroke-miterlimit:10;stroke-width:.3px}</style></defs><path d="M0 0h192v240H0z" style="stroke-width:0"/><path d="M8.8 216.3c4.1 1.7 7.7 4.5 11.2 7.2 4 3 8.7 6.7 14 5.3q3-.9 6-2.5c1-.5 2.2-1.6 3.5-1.5 4 4.2 7.5 5.6 13 2.9 2.1-1 4-2.7 6-3.8 2.8 2 5.2 5 8.8 5.2 5.2-.7 8.7-8.8 13-11.4 9 1.9 15.2 12.5 22.5 11.3 2.7-.4 5.3-1.8 7.9-2.6q5.9-1.6 12.1-1l3.5.5q2.5.9 5.2 1.3 5.2.8 10.4 0c11 .3 18.1-2.5 27-8.9a22 22 0 0 1 10.3 3.2" class="b"/><path d="M8.8 212c7.3 2.7 12.9 13 20 13.7 4 0 7.2-3 10.3-5.1 2.8 1.8 5.3 4.5 8.7 5 5.3.4 10-3.3 14-6.3 1 0 1.8 1.3 2.5 2 1.3 1.2 2.8 2.7 4.4 3.7 3.6 2.2 6.6-2 8.6-4.6 2.2-2.7 4.2-5.7 7-7.8 10.1 1.3 16 14.3 23.4 13 2.8-.6 5.2-2.3 7.8-3.2a27 27 0 0 1 13-1.7q2.3 1 4.4 2 4.1 1.6 8.7 1.7 5.3 0 10.4-1.3 3.5-.2 7-.8 4.6-1 8.6-3.4 3.5-2.1 7-4.5 4.6 0 8.6 2" class="b"/><path d="m8.8 210.8 3.4-.2c4.7 3.1 9 11.2 14.8 11.6 3-.2 5.5-2.4 7.8-4.2h.9c3.1 1.9 6.5 4.2 10.4 4.2 5.6-.3 10.5-3.8 14.8-7.2h.8c2.5 2.4 4.5 6 7.8 7.1 2.2.4 4-1.6 5.2-3 2.6-3.2 4.8-7 7.8-9.7 2-1.7 3-1.5 5.3-.8 6.2 1.7 10 7.3 14.7 11.3 8 6.8 11-4.1 24.3-4 3.4 2.5 7 4.8 11.3 5.4 6 .8 12.5.5 18.3-1.7 8.6-.3 13.4-3.5 20-8.8q3.4 0 6.9 1" class="b"/><path d="m8.8 211.1 6.9.7c3.1 2.6 5.8 7.5 10.4 6.9 2-.3 3.5-2 5.2-2.7 4 1.4 8 3 12.2 2.7 6-.5 11.8-3.7 16.5-7.6l.8.2c5.2 5.5 7.8 11.9 14 2.9 3.2-4.3 6.5-11.4 13-10 7 .6 11 7.2 15.6 11.7 3.6 3.7 6.3 3.6 10.4.7 3.4-2.2 7.1-4.5 11.3-4.7 6.6 6.7 11 7 20 6.8 4.6 0 9.5.3 13.8-1.7q4-.1 7.8-1.3c3.4-1.1 6.2-3.3 8.7-5.7 3.2-2.8 3.7-2.7 7.8-2" class="b"/><path d="M8.8 211.7q4.7.8 9.5 1.5 1 .1 1.8.9 1.6 1 3.4 1.2c1.2 0 2.4-.7 3.5-.9q4.8.7 9.5.9c8 .2 16.4-2.3 22.6-7.5 1.4.8 2.4 2.5 3.5 3.6 4.2 5.1 6.4 5.2 10.4-.2 2.8-3.6 5.1-8.4 9.6-10.3 1.9-.6 4-.3 6-.3 7.9-.6 11.8 7.3 16.5 12.1 3.4 3.5 5.9 3.2 9.6.4 2.4-1.7 5-3.5 7.8-4.4l.8.2c8.4 8.8 10.4 6.2 20.9 5.2 4-.3 8 1 12.1 1.2q2.2 0 4.4-.6 1.7-.1 3.4-.3c3.5-.2 7-1.3 9.6-3.6 2.3-2 6.4-6.3 9.5-6.1" class="b"/><path d="M8.8 211.1c7.7 1 15.6.8 23.4.6 8.9-.5 18.6-.8 26-6.3 2.7 2.5 6.3 9 10.5 5.3 4.4-4 6.5-10.5 12.1-13.1 2-.7 4.1-.4 6-.5 2.7.1 5.4-.3 7.9.4 6.4 2.3 8.6 9.8 13.9 13.6 2.3 1.7 5 .1 7-1.4q2.4-1.9 5.1-3.5c1.9 1.3 3.3 3.3 5.2 4.4 2.8 2 6 1.3 8.7-.1q3.4-1.7 7-2.8c4.5 1.6 9 3.6 13.9 4q3.8.2 7.8.2c2.5 0 5.3 0 7.8-.8 2.3-.6 4.2-2.4 6-3.8a24 24 0 0 1 6.1-3.6" class="b"/><path d="M8.8 208.3c2.5 0 5.2-.5 7.8-.6q1.6.8 3.4.7 1.9-.4 3.5-1.2h6c7 0 14 .5 21-.9 1.3-.3 3-.7 4.3-1.3.7-.3 1.7-1.1 2.6-1 6 6.4 8 5.5 13-1.2 2.8-3.6 5.5-8.3 10.4-9q3.9-.1 7.8-.1h7c5 1 7.5 6.2 10.4 9.8 5.2 7 6.7 5.6 13 1 7 7.4 10 2.6 16.5-2 .8-.1 1.8.4 2.6.7l5.2 2.3a28 28 0 0 0 17.3 2.5h2.6c1.1 0 2.4.5 3.5.4 2.3-.5 4.7.4 7-.3 3.3-1.2 6-3.7 9.5-4.7" class="b"/><path d="m8.8 203.7 1.7-.4q1 .2 1.7.6c4.3 2.1 8.4.6 12.2-1.8 7 .4 13.8 2 20.8 2 3.5 0 7.2 0 10.4-1.4q1 .2 1.8.8 1.5 1.2 3.5 1.5c4.4-.2 8.1-7.8 11.2-10.8 4.8-5.2 8.5-3.8 14.8-4h7c2.5 0 4.8 0 6.9 1.8 3.5 3 5.6 7.4 8.7 10.8 3 3.2 4.3 2.4 7.8.6 5.6 4.2 9.2-1.1 13-4.8 5.5-.8 13.7 6.2 20 6.3 5 .4 9.7-2.2 14.7-1.8 2 1.6 4.6 2.5 7 1.3 4 1.6 7.4-1 11.2-1.8" class="b"/><path d="M8.8 201c3.7 1 7.7.3 11.2-1.3l2.6-1.2c.8-.4 1.8-.8 2.6-.4 4 .8 8.1 2 12.2 2.6q6 1 12.1.8l6.1-.3q2.2.8 4.4-.4c5.6-3.6 8.1-11.3 14.7-13.6q2.2-.5 4.4-.4h6q5.3-.2 10.5.1c6.2 1.1 9.5 7.3 13.9 11.2 1.2 1.3 2.5 3 4.3 3.4q1.3-.2 2.6 0 1.8 0 3.5-.8 1.9-1.3 3.4-3c.6-.7 1.7-1.6 2.6-1.7 3.5-.8 7.2 0 10.4 1.2 7.1 3 11.2 6.1 19.1 2.9 3.4-1.2 6.9-2.6 10.5-2.4 1.9 1.4 3.6 3.5 6 3.8q1.4 0 2.6-.3l2.6.3c2 0 4.1-.6 6.1-.9" class="b"/><path d="M8.8 198q4.4-.5 8.6-2L21 195q.8-.4 1.7-.1c3.8.8 7.5 2.2 11.3 2.9q4.8.7 9.6 0c2.6-.2 5.3-.9 7.8 0 1.4.5 3 .3 4.3.2q1.3.1 2.6.1c5.6-.6 8.6-7.2 12.2-10.8 1.6-1.8 3.6-3.6 6-3.8H87c3.2 0 6.7-.5 9.5 1.5 3.1 2.1 5.4 5.4 7.8 8.2s5.7 6 9.6 4.6c1.7.8 3.7-.1 5.2-1q2.5-1.5 5.2-2.6c9.3-3.4 15.1 3.6 23.4 4 7-.3 12.8-6.5 20-4.9 2.3 2.4 5 5.3 8.7 4.8.8-.3 1.8 0 2.6 0q2.2 0 4.3-.3" class="b"/><path d="m8.8 193.2 6-1.1c7.7.1 14.9 4.2 22.6 1.6l2.6-.8c1.1 0 2.4.6 3.5.9 2.8.9 6 1.2 8.7 0 1.1-.5 2.2-1.6 3.4-1.8 2.2 1 4.4 2.9 7 2.5 6-1.8 8.6-11.6 14.7-14.1 2.2-.9 4.7-.4 7-.5s4.7-.3 7 .2c5.6 1.7 8.2 7.7 12 11.7 2.9 3.1 5.3 3.7 8.7 1.1l1 .1c4.9 5 9.2-3.9 19-2.2 3.3.6 6.4 2 9.6 3 7.4 2.7 12.4-1.9 19-4 3.9-1.3 8.7-1.3 11.3 2.1 3.3 3.1 7.1 2.9 11.3 2.5" class="b"/><path d="M8.8 190.7q5.6-.5 11.2 0c4.7.6 9.5.7 14-1 8.4 3 12.5 1.3 19-4.5 4.1.6 6.4 5.1 10.5 6 4 0 7-6.4 9.5-9.2 2.3-3 5.4-6 9.6-5.6l6 .1c6.3 1.4 8.8 8.8 13 13 3.4 3.5 6.1.6 8.7-2l.9-.1c7 9.3 9.8-2.4 22.6 1 2.9.6 5.7 1.8 8.6 2.5 5.7 1.3 10.8-2.4 15.7-4.7 5-2.5 10.2-2.6 14.7 1 3.5 3 5.7 4.2 10.5 4" class="b"/><path d="M8.8 187.6c7 .1 14 .4 20.8-1.5 6.5 3.2 10.6 1.1 15.6-3.5 2.5-2 2.5-3.3 6.1-2.6q4 1 7 3.8c1.5 1.3 3.1 3 5.1 3.8 5.7 1.3 9.8-12.8 16.5-14.3 1.7-.5 3.6-.3 5.2-.3 2.4-.3 4.6.9 6.1 2.5 3.4 3.1 6.4 10.9 10.4 12.2 3.2 0 5.2-3.8 7-5.9h.9c8.7 12.9 9.8 0 23.4 3.2 9.6 2.7 11.7 4.8 20.8-1.2 5.6-3.6 12.2-6.8 18.3-2.3 4 3.2 5.5 5.8 11.2 6.1" class="b"/><path d="M8.8 182.3q8.7 1.5 17.3-.4c1 0 1.8.9 2.6 1.3 1.8 1 4.2 1.5 6.1.5 2-1 3.7-2.7 5.2-4.3.8-.8 1.6-2 2.6-2.5 5-1.2 10.8-.6 14.8 3 2 1.7 4 4.3 7 4.3 4.8-1 8-10.4 13-13.4 1.7-1.2 4-1.4 6-1.3q3.7-.3 6 2.5c2 2.2 3.7 5 5.3 7.5 1.4 1.9 3.2 5.6 6 4.5 2.8-1.7 4.3-4.9 6.2-7.3h.8c2 2.5 3.9 5.9 7 7.3 4.9 1.2 8.4-5.2 18.2-2.3 8.6 2.8 11.2 4.3 19.1-1.4 5.1-3.8 11.7-8.4 18.2-5.3 5.2 2.8 6.2 7.3 13 8.6" class="b"/><path d="M8.8 175.6a36 36 0 0 0 15.6 1.3c1.7 1.2 3.1 3.1 5.2 3.7 4 .9 6.3-3.8 8.7-6.2 20.4-4.2 20.5 11.1 27.8 4.8 4.7-4.2 7.4-13.1 14.7-13.1q2.2-.2 4.4.2c3.8 1.9 5.5 6.4 7.8 9.8 3.7 6 5.7 6.3 9.5.2 1.1-1.5 2-3.7 3.5-4.7 2.5 3 4.4 6.9 7.8 8.9 5 1.7 8.5-5.8 19.1-2.1 7.6 2.8 10.5 4 17.4-1.4 3-2.4 6-5 9.5-6.6 4.1-2 9.4-2 13 1q2.2 2.2 4.4 4.3 2.6 2.5 6 3.7" class="b"/><path d="M8.8 168.8q4.2 1.7 8.6 2.4c2 .4 4.1.3 6.1.6 3.3 4.3 6.1 8.5 10.4 2.4 1.6-2 1.4-3.2 4.4-3 5-.1 10.1.4 14.7 2.5 2.7 1 5 3.3 7.8 3.6 6.4-.3 9.6-13 16.5-14.5q1.8-.3 3.5-.2 1.8-.2 3.5.4c3.3 2 4.9 6 7 9.3 1.2 1.8 2.5 5 5.1 5 3.4-1.2 5.6-7.2 7.8-10 1.2.3 2 1.9 2.6 2.7 1.6 2.2 3.2 4.6 5.2 6.3 2.3 2 4.8.6 7-.6a16 16 0 0 1 7.8-2.2c3 .1 6 1.3 8.7 2.4 5.8 2.6 9.2 1.5 13.9-2.5 3.2-2.8 6.4-6 10.4-7.7s9.3-2 13 .8c3.4 3 6.2 6.8 10.4 8.5" class="b"/><path d="M8.8 162.9q6.7 2.7 13.9 3.8c4.8 7 6.7 11 12.1 1.5q7.5.6 14.8 2.9l6.9 2.4c2.1.8 4.5.2 6-1.4 4.7-4 7.9-13.3 14.8-13 1.7.1 3.6-.1 5.2.2 3.9 2 5.5 7 7.9 10.4 1.2 2 3.4 5.7 6 3.4 3-2.8 4.6-6.7 7-10 1 .6 1.9 2 2.6 3 1.6 2.2 3.1 4.7 5.2 6.6 5.4 4.6 9-6.7 20.8-1.7 7.1 3 10 4.8 16.5-1 3.3-2.8 6.4-6.2 10.4-8.1 4.3-2 9.8-2.4 14 .2 3.4 2.9 6.2 6.8 10.3 8.9" class="b"/><path d="M8.8 158q6.8 2.4 13.9 4.5c3.6 5.6 6.2 12.6 11.2 3.2l.9-.4q6.6 1.5 13 3.5c4.4 1.3 9.4 3.1 13-.8 3-2.8 5-6.5 7.8-9.4a8 8 0 0 1 7-3q2.6 0 5.2.2c3.8 1.7 5.6 6.6 7.8 9.9 1.4 1.9 3.2 5.8 6 4.4 3.5-2.7 5.2-7 7.9-10.4l.9-.1c2.6 3.2 4.5 7.3 7.8 10 5 3.6 8.8-7.2 20-2.5 6.7 2.8 10 5.7 16.4 0 3.7-3.2 7-7 11.3-9 4-1.8 9-2.2 13-.3 2 1 3.6 3 5.2 4.6a32 32 0 0 0 6.1 5" class="b"/><path d="m8.8 154 13.9 4.7c3.6 4.8 6.1 13.4 11.2 4 .9-.2 1.9.3 2.6.5l3.5 1.2c5.7 1.7 13 4.7 18.2.3 3.4-2.9 5.6-7 8.7-10 2.2-2.2 4-2.6 7-2.4q2.5-.2 5.2.1c4 2 6 7.2 8.6 10.7 2.2 3.2 4.6 5.7 7.8 1.9 2.5-2.9 4.4-6.3 7-9 1.2.2 1.9 1.9 2.6 2.8 1.6 2.3 3.1 5 5.2 7 5.3 4.7 8.9-6.9 20-2.6 7 2.8 10.4 6.6 17.3.4 3.7-3 6.9-6.9 11.3-8.9 4-1.7 9-2.1 13-.1 2 1 3.6 3 5.2 4.7q2.8 2.9 6.1 5" class="b"/><path d="M8.8 151q7.4 2.2 14.7 4.9c1.7 2 4.5 8.8 7.8 7.3.5-.3 1.4-1 1.8-1.6.3-.5 1-1.4 1.7-1.6 7 2.7 15.2 6 21.7.6 4-3.2 6.2-8.2 10.4-11 1.6-1 3.5-.8 5.2-.8s3.7-.3 5.3.6c3.8 2.4 5.9 6.8 8.6 10.2 2 2.6 4.7 5.5 7.8 2.7 3.3-2.8 5.6-6.7 8.7-9.5h.9c2.6 3.4 4.3 7.7 7.8 10.2 4.8 2.6 8.6-7.3 19.1-3.3 7 2.7 10.5 6.6 17.4.7 3.4-2.8 6.5-6.1 10.4-8.2 4.2-2.2 9.7-2.8 13.9-.3 1.6 1 3 2.6 4.3 4q3 3.5 7 5.9" class="b"/><path d="m8.8 148.6 13.9 4.3 1.7.6c1 .7 1.8 2.2 2.6 3.2 2.5 3.4 4.8 5 7.8 1 .8-.2 1.8.3 2.6.6l3.5 1c4.8 1.5 9.8.7 13.9-2.3 3-2.3 5.2-5.7 7.8-8.5 2-2.2 3.8-3.5 7-3.1 6.9-.6 10.4 7 14.7 11.3 3 3.3 5.8 4.7 9.5 1.5 3.3-2.7 6-6.1 9.6-8.4 1.1.5 1.9 2.3 2.6 3.3 1.2 2 2.6 4.2 4.3 5.8 5.2 4.6 9-6.5 20-2.5 7.5 2.7 10.8 6.4 18.2.4 3.4-2.6 6.5-5.6 10.4-7.4 4.4-2.1 10.1-2.1 14 1.2 3.2 3 6 7.1 10.3 8.8" class="b"/><path d="M8.8 147.4q8.2 1.8 16.4 4c.5 0 1.4.4 1.8.6l1.7 2c1.3 1.4 3.2 3.1 5.2 2.4.9-.3 1.8-1.2 2.6-1.5 4.5 1.5 9.5 2.6 14 .5q4.5-2.2 7.7-6.3c2.2-2.4 4-5.4 7-6.9 9.5 0 16.3 16.4 24.3 14.2 4.2-1.3 7.5-4.7 11.3-7 1.3-.6 2.8-1.8 4.3-1.8 2 3 3.7 6.9 7 8.7 4.3 1.7 8.3-5.7 17.3-3.4 8.3 2.3 11.7 6.6 20 .6 5.1-3.5 10.7-8.3 17.4-7.2 7 1 9.4 9.7 16.4 10.3" class="b"/><path d="M8.8 147.1q7.7.7 15.6 1.6l5.2 1q1.6 1.6 3.5 2.8c1.3.7 3 .9 4.3.2q.8-.6 1.7-.5c6 1.7 10.8 1.3 15.7-2.7 2.6-2.3 4.6-5.3 7-7.9q1.3 0 2.5.6 2.3 1 4.4 2.2c5.7 3.3 11 9.7 18.2 8.6 3.4-.6 6.4-2.3 9.5-3.7 3.3-1.5 6.8-2.8 10.5-3 1.8 2.2 3.2 5.4 6 6.6 4.5 1.4 8.4-4.9 17.4-2.7 3.5.7 6.9 2.4 10.4 2.9 6.9.8 12.1-5 18.3-7 13.8-4.7 15 9.8 24.3 6.6" class="b"/><path d="M8.8 147c7.2-.1 14.4-1.3 21.7-.5l1.7.2q1.4.6 2.6 1.5c2.3 1.6 5.3 2 7.8.7 4.7 1.3 9.2 1.2 13-2.1 1.2-1 2.1-2.8 3.5-3.2 6 1 11.4 4.4 17.4 5.7 4.6 1 9.4-.1 13.9-1.5 3.9-1.1 8-2.2 12.1-2.4 2.6 0 5.4 0 7.8 1 1 1 2.1 2.3 3.5 3 3.2 1.1 6.4-1.3 9.5-1.8 7-1.8 13.2 2.1 20 2.1 8.7-.5 16.1-8 25.2-4.1 3.4 1.2 6.4 5 10.4 3.9l1.7-.7 2.6.3" class="b"/><path d="M8.8 146c8.7-.5 17.2-4 26-3.7 1.5.5 2.9 1.7 4.3 2.3q3.4 1.8 7 1.7l3.4-.5 2.6.5q1.4 0 2.6-.4c.8-.2 1.8-1 2.6-.8 6.1.2 12.2 1.6 18.3 1 5.2-.4 10.4-1.8 15.6-2.5q7-.9 13.9.2 6 1.1 12.2 2.5c2.3-.2 5.6-.4 7.8-.8 1.7-.2 3.4-1 5.2-.8 3.7.2 7.5 1.2 11.2 1.5q4 .3 7.9-.5c5-1.1 10.3-3 15.6-2 3 .5 5.7 2 8.7 2.5 1 .2 2.3-.5 3.4-.4q3 .7 6.1.4" class="b"/><path d="M8.8 142.6c10.5 1.7 17.3-5 26.9-6.1 4.1 2.1 8.3 4.7 13 5.6q5.6.9 11.3.6 8.3-.1 16.5-1.4c7.1-1 14.4-1.8 21.7-.9 6 .7 12 2.5 18.2 2.4q5.2.2 10.4-.1 2.2-.2 4.4-.8l3.4.2q6 .7 12.2.7c4-.1 8-.8 12.1-.9q3.5 0 7 .5c2.5.4 5.3.7 7.8-.1 3 1.3 6.4-.2 9.5-.7" class="b"/><path d="M8.8 137.7c2.4 1 5.1 1.9 7.8 1.6 6.5-.8 11.3-6 17.3-8.4q.9-.2 1.8.2l2.6 1q4.3 2 8.7 3.7c3.5 1.5 7.4 1.8 11.2 2q3.2 3.1 6.1-.1c7.2-.4 14.5-1.1 21.7-.8 6.4.2 12.8 1.5 19.1 2.2 4 .6 8.2 0 12.2-.5 1.1-.1 2.3.6 3.4.7h4.4c2.5-.4 5.2.3 7.8 0l3.5-.6 10.4.5q5.6.3 11.2.2 4.9.1 9.6-.5c.8-.1 1.8-.5 2.6-.4q1.7.7 3.5.9c3.3-.1 6.3-2.2 9.5-2.8" class="b"/><path d="m8.8 134.4 1.7-.7c2.4 1.3 5 2.6 7.8 2 5.8-1.4 9.7-6.7 14.8-9.6 5.7.7 11 3.5 16.5 5.2 3.6 1.2 7.5 1.5 11.2 1.8 2.8 3.3 5 4 7.9.3 7.5-.4 15 .5 22.5 1.5a42 42 0 0 0 24.3-1.7c1.3.2 2.3 1.3 3.5 1.7 3.8 1.7 8.1.9 12.2.5 2-.3 4 .6 6 .5 2.7.1 5.3-.5 7.8-1 6.1 0 12.3.4 18.3-.7 2.3 0 4.6 1.3 7 1.6 2.3.5 4.7-.4 6.8-1.5q3-1.5 6.1-2.3" class="b"/><path d="M8.8 132.2q1.8-.6 3.4-1.5c2.2 1 4.5 2.3 7 1.5 4.9-1.7 8-6.3 12.1-9.3 1.3-.7 3-.3 4.4-.2 5 .7 9.8 2.8 14.7 4.4 4.5 1.5 9.2 2 14 2.4 2.5 3.1 4.7 4.2 7.7.8 1.7-.2 3.5.3 5.2.4l7.8 1c11.5 1.6 18.2.9 28.7-4.2 7.8 7 13.2 5 22.6 3.6 9.3 2.8 13.5.3 22.5.3q3.5 0 7 .7c2.8.4 6 .7 8.6-.5 2.8-1.4 5.7-3 8.7-3.5" class="b"/><path d="M8.8 129a8 8 0 0 0 3.4-.7c.4-.3 1.3-.5 1.8-.5 6 3.8 10.8-2.6 14.7-6.3 1.5-1.6 2-2.2 4.4-2.1q4 0 7.8 1c4.1 1 8 2.8 12.1 4a93 93 0 0 0 15.6 2.7l1.8 1.2c2.1 1.4 3.2.3 5.2-.3 14.8 1.8 22.1 1.8 35.6-5.5h.9c8.2 7.3 13.2 7.7 23.4 4.7l3.5-1c1.7.3 3.4 1.4 5.2 1.8 4.5 1.3 9.3 1 13.9.8q5.2-.1 10.4.2 3.1 0 6-1c2.8-1.4 5.7-2.8 8.7-3.2" class="b"/><path d="M8.8 125.3q1.6.4 3.4 0c.8-.2 1.8-.7 2.6-.6 6.5 3.3 11.3-4.2 15.7-8 9.2-1.6 17.4 4 26 6a108 108 0 0 0 31.3 2.6c7.4-.7 14.3-3.6 20.8-7.1.9 0 1.8.7 2.6 1.2l5.2 3.3c9 5.5 15.6 1.8 24.3-1.7 1.2.2 2.4 1 3.5 1.5a30 30 0 0 0 16.5 3h8.7c4.8 0 9-3 13.8-3.4" class="b"/><path d="M8.8 121.5c1.9 1 4.2.7 6-.2 6.3 3 11.5-3 15.7-7q1.1-.5 2.6-.4 2.2 0 4.3.2c7.8 1.4 14.6 6.3 22.6 7.1q6.9 1 13.9.9c2.5 0 5.2-.4 7.8 0 1.4 0 3-.6 4.3-.9q8.2-1.1 15.7-4.5c1-.4 2.2-1.3 3.4-1.3q5.1.9 9.6 3.3c11.7 6.3 16.2 2.7 26.9-3 .9.2 1.8 1 2.6 1.3q1.6 1 3.5 2 6.4 3.2 13.8 3c3.8 0 7.6.3 11.3-.1 3.5-.6 6.9-2 10.4-2.2" class="b"/><path d="M8.8 118c1.8.9 4.1.8 6 0 7.3 2.4 12.2-2.4 17.4-6.7 7.2-.5 13.4 3.7 20 5.9 4.4 1.4 9.2 1.6 13.9 1.4q7.8-.3 15.6-1.3c1.2-.3 2.3.7 3.5 1q3.4.7 6.9-.3c6.3-2.1 12.4-4.6 19.1-3 3.8.8 7.4 2.6 11.3 3.4 7.6 1.6 13.6-4.5 20-7.6 4.8 3.1 9.8 6.6 15.6 7.4q4.3.6 8.7.5l6.9-.1q4.8-.8 9.6-1.1" class="b"/><path d="M8.8 114.8c1.3.4 3 .5 4.3.2.8-.3 1.8-.7 2.6-.3 7.7 2 13.1-1.8 19.1-6 5.8.9 10.9 4.3 16.5 5.9 5.1 1.3 10.5.2 15.6-.4a422 422 0 0 1 19.1-1.7c7.4 4.8 12.3 2 20 .6q4.8-.9 9.5.3c2.9.6 5.8 1.6 8.7 1.8 7.1.3 12.5-5.4 18.2-8.8 5 3 9.8 7 15.7 8.3 3.4.7 7 .5 10.4.4h7l7.7-.2" class="b"/><path d="M8.8 111.6q2.7.5 5.2-.7l2.6.3c5.5 1 11.4.7 16.5-1.8 1.7-.6 3.4-2 5.2-2.5 3.5 1.3 6.8 3.2 10.4 4.3s7.6.2 11.3-.6q6-1.4 12.1-1.8 6-.3 12.2-.4h4.3q1.5-.3 2.6.6c6.8 4.1 11 2.6 18.2 1.4a27 27 0 0 1 9.6.6c10.9 2.9 15-3.1 23.4-8.4 6.1 3.5 11.8 8.9 19.1 9.1 3.2.1 6.4-.4 9.6-.3q6 .3 12.1.3" class="b"/><path d="M8.8 108.3c1.4 0 2.9-.7 4.3-.9q4.8 0 9.6.6c4.6.3 9.3.6 13.8-.6 1.8-.4 3.5-1.4 5.2-1.7 3.5 1.7 7.4 3.3 11.3 2.3 5.5-1.5 10.8-3.7 16.5-3.9 8.1-.4 16.2 1.3 24.3 1.5h1.8q2 1.2 4.3 2c5.4 1.9 11-.9 16.5-.3 4.6.5 9.5 2 13.9-.1q4.1-2 7.8-4.9c1.4-.9 2.7-2.3 4.3-2.7 8.8 4.7 13.5 10.4 24.3 8.2q3.5-.5 7-.3 4.8.4 9.5.4" class="b"/><path d="M8.8 104.5c2.2-.7 4.6-.6 6.9-.8q6-.5 12.2 0c5.7.5 11.6 2 17.3.4 4 1.6 7.6.3 11.3-1.4A33 33 0 0 1 66 100c8.3-.9 16.3 2 24.4 3q5.2.7 10.4.7c1.1 0 2.3.7 3.4 1q2.6.3 5.3 0 3-.6 6-.7 3.5 0 7 .6c7.7 1.5 13.2-3.7 19-7.7 1.6 0 3 1.2 4.4 1.9q3.8 2.2 7.8 4.3c6 3 10.4 1.3 16.5.3q3.5-.2 7 .1l3.4.2q1.4-.1 2.6.2" class="b"/><path d="M8.8 100.8c4.6-.6 9.2-2 13.9-2.6a37 37 0 0 1 15.6 1.1c6.2 1.8 11.3 3.5 17.3.1 8.4-4.2 15.6-3.4 24.3-1q5.6 1.6 11.3 2.5 7 .6 14 .4 2 .2 4.3 0c2.2-.3 4.6-.9 6.9-.9 2.9 0 5.8.7 8.7 1 6.3.7 11.4-3.8 16.5-7 6.9 2.3 13.1 8 20.8 6.8 3.2-.4 6.3-1.6 9.6-1.9 2.2-.2 4.6.2 6.9.2 1.2 1 2.7 2.2 4.3 1.8" class="b"/><path d="M8.8 97c4.7-1 9.2-3.1 13.9-4.4 5.6-1.7 11.9-2 17.3.4 3.5 2.1 7 5.2 11.3 5C55 98 57 97.2 60 95q3.8-1.2 7.8-1c6.5.2 12.6 3 19 3.7 5 .5 10-.4 14.8-.6q2.3 0 4.4.6c1.4.3 3 0 4.3 0q2.7.4 5.2-.1 1.8-.4 3.5-1l1.7.2c8.8 1.9 11.6 1.4 19.1-3.6.4-.3 1.3-.7 1.8-.8l3.5 1 7.8 3c6.1 2.4 10.3 1.3 16.5-.2q3-.7 6-.6c1 .2 1.9 1.1 2.6 1.6 1.9 1.2 3.8.5 5.2-1" class="b"/><path d="M8.8 92.5c7.7-2.7 15-7.7 23.4-7.4 5.9 0 7.7 1.8 12.2 5 3.3 2.6 6.8 4.9 11.2 4.4 2.2.3 4-1.2 6.1-1.4 6.1-1.1 12.2.5 18.2 1.2 6.6 1 12.8-1.5 19.2-2.6 3.9 2.5 6.6 3.7 11.2 2q.9-.1 1.8-.5c1.1 0 2.3.7 3.4 1 3 .7 6 0 8.7-.8 5.7 1.8 9.6 1.4 14.8-1.7 1-.5 2.2-1.5 3.4-1.2q3.6.6 7 1.7c10.7 3.4 12 2.4 22.6.7q1.8-.5 3.4.6 3.3 2.2 6.1-.6h1.7" class="b"/><path d="M8.8 88q2-1.7 4.3-3.2l4.3-1.9a33 33 0 0 1 17.4-2.8c7 .9 12.5 5.6 18.2 9.3q2 1.3 4.4 1.6H72c6.3.2 12.4-1.2 18.3-3.4l3.4-1.2c1 0 1.9 1 2.6 1.4 8 5.6 9.5 2.7 17.4.2 4.5 2.9 8.7 3.8 13.9 2.3 1-.2 2.3.5 3.4.6a16 16 0 0 0 9.6-2l1.7-.9 2.6.1q2.7.3 5.2 1c9.7 2.3 12 2.3 21.7 1.1 1.8-.3 3.5 1 5.3.8.4 0 1.3-.4 1.7-.7q2.2-.2 4.3 0" class="b"/><path d="M8.8 85.2c2.7-2 5.1-4.6 7.8-6.7 1.3-.9 2.7-2.2 4.3-2.4q5.2-1 10.4-.9a30 30 0 0 1 16.5 6c2.8 2 5.5 4.3 8.7 5.7a8 8 0 0 0 6 0c.8-.2 1.8-.8 2.7-.8 7.8.5 15.3-2 22.5-4.5 5.6 2.1 11 8 17.4 5.2 3-1 5.7-3 8.7-4 1.6.4 2.9 1.8 4.3 2.5q5.7 3.4 12.2 1.7c.8-.4 1.8-.1 2.6.1l2.6.5q4 0 7.8-1.4 1.7-.6 3.5-1c2-.3 4 .4 6 .7q4.8 1.2 9.6 1.6 3.9.2 7.8-.2c1 0 2.4.4 3.5.2q1.3-.2 2.6-.4h7" class="b"/><path d="M8.8 82.7c4.8-3.5 8.3-8.8 13.9-11.4 1.9-.6 4-.3 6-.3q5.4 0 10.4 1.6c5.5 1.7 10.1 5.3 14.8 8.5 5.4 3.7 8.9 3.7 14.8 1.2 8.5-3.7 14-3.6 22.5 0 3.3 1.3 7 2.5 10.5 1.3 4.2-1.3 7.8-4.4 12.1-5.7 1.6.6 3 2 4.4 2.9 4.4 3.2 8.6 4.1 13.8 2.6l1.8-.5q2.1.7 4.3 1 4.4.4 8.7-.2 4.7-.6 9.6-.4c3.1.1 6.3.7 9.5.8 5.8 0 11.6-.6 17.4-.3" class="b"/><path d="M8.8 80c5.6-3.1 8.8-9.5 14.7-12.4 1.6-.8 3.5-.3 5.2-.3q4.5.4 8.7 1.4c5 1.3 9.6 3.8 13.9 6.5 5.6 3.8 10.4 6.6 17.4 5 4.2-.7 8.6-1.6 13-1.2 6.5.5 12.7 3.2 19 .3 4.2-1.8 8-4.6 12.2-5.9q1 .1 1.8.8L118 77c5 3.7 8.9 4.8 14.8 2.7l2.6-.9c1.4.1 3 .8 4.3 1q4.4.8 8.7.8 5.7.2 11.3-.3c2-.5 4 .3 6 .4q4.5.1 8.8-.2t8.6-.1" class="b"/><path d="M8.8 77.1c2.8-.7 5-3.2 6.9-5.2 2.4-2.5 4.8-5.3 7.8-7.2l1.7-.8 7.9 1q6.2 1.1 12.1 3.8c3.9 1.6 7.5 3.8 11.3 5.6q5.8 2.9 12.1 3c5.2 0 10.5-.3 15.7-.1 13.5.7 16.5-4.4 27.8-8 3.6 2 6.5 5.5 10.4 7.2 4.3 2.1 9-.3 13-2 1-.6 2.3-.3 3.5 0l3.4.5a43 43 0 0 0 14-.4c1 0 2.3.7 3.4 1q3.3 1.3 7 1.6t7.7-.2q4.3-.5 8.7-.3" class="b"/><path d="M8.8 73.8c5.7.2 11-10.3 16.4-12.5q10.6 1.9 20.9 5.3c5.5 1.8 10.8 4.5 16.5 5.6a66 66 0 0 0 13.9 1.2q7.5.2 14.7-1.5c6.6-1.5 12.6-4.9 19.1-6.4 4.6 2.2 8 7 13 8.1 4.8.8 8.9-2.8 13-4.5q1.8-.1 3.5.2a41 41 0 0 0 10.4-.4c1.2-.1 2.4-.8 3.5-.4 5.1 2 10 5.3 15.7 5.3 4.6-.2 9.2-1.3 13.8-1.1" class="b"/><path d="M8.8 70c3.4 1.2 6.3-1.8 8.6-3.9q3.4-3.4 7-6.5c3.2.6 6.3 1.8 9.5 2.4q7.5 1.7 14.8 3.2 6 1.5 12.1 2.6A78 78 0 0 0 93 65.7c5.1-1.4 10.3-3 15.6-3.8q3.8 3 7.8 5.7c2.5 1.8 5.6 3.5 8.7 2.4 3.5-1.3 6.3-3.8 9.5-5.6q8.5.8 16.5-1.8.9-.1 1.8.4l3.4 1.7c2.9 1.6 5.7 3.6 8.7 4.7 3 1.3 6.4 1 9.6.3q4.2-1 8.6-1" class="b"/><path d="M8.8 66.3c5.6 2.5 10.6-4.5 14.7-7.5 7.7 3.2 16 4 24.3 4.5l9.6.8q5.2.2 10.4-.2c12.9-.8 25.3-5 38.2-5.7 2.7 1.7 5 4.3 7.8 6 2.1 1.2 4.4 2.7 7 2.7 4.1-.4 7.1-4 10.4-6.2q10.7.8 20.8-3.6c6.6 2.3 11.6 10.5 19.1 9.7 4-.6 8-2.3 12.2-2.4" class="b"/><path d="M8.8 62.7c4.6 2.2 9.3-1.3 13-4a54 54 0 0 0 25.2 3c5.7-.3 11.6-.2 17.3-1.4 6.7-1.3 13.3-3.4 20-4.7a73 73 0 0 1 19-1.3c5 3.8 11.4 12 18.3 8 1.9-1 3.6-2.6 5.2-4 1-.6 2.4-.2 3.5-.2 8.7.3 15.6-2.4 23.4-5.7 2.9 1.6 5.4 4 7.8 6.2 2.9 2.5 6.4 5.6 10.5 4.7 3.7-1 7.4-2.7 11.2-3.2" class="b"/><path d="M8.8 59.3c3.4 1.3 7.2.5 10.4-1q1.3.1 2.6.6 1.7.5 3.5.7c5.4.6 11 .3 16.4.3a121 121 0 0 0 19.1-2c6.3-1.7 12-4.6 18.3-6.4q10.3-3 20.8-1.5c1 .1 1.9 1.2 2.6 1.8l4.3 4.2c6 5.4 11 5.3 16.5-.6 13 1.6 20.8-1.5 32.1-7 5 2 9.5 11.7 15.7 11.6 4.2-.6 8-3.2 12.1-4.1" class="b"/><path d="M8.8 56q3.4.8 6.9.3c1.7 0 3.5.4 5.2 0 5.2-.8 10.4-2 15.6-1.3q5.3.8 10.5 1.4c4.9.3 10 0 14.7-1.7 5.1-1.8 9.7-5 14.8-7 6-2.5 12.7-3.3 19-2.4 2.4 0 3.8 2 5.3 3.3 6 6.3 11 11.8 19 4.3a47 47 0 0 0 24.4-1.4c4.8-1.7 9.3-4.2 13.9-6.2 4.4 2.5 8 11.6 13.9 11.2 4-.7 7.4-3.4 11.3-4.6" class="b"/><path d="M8.8 53q6.5.3 13-.7L36.5 51q3.5-.3 7-.7 1.2.6 2.6 1c8 3 14.5 2.3 21.7-2.5 7.7-5.3 14.6-8.8 24.3-7.9q2 0 3.5 1.3 2.3 1.8 4.3 4c6.3 6.3 8.9 9.6 17.4 3.8a52 52 0 0 0 38.2-4.3l3.4-1.6c.8-.3 1.8-.9 2.6-.7 3.4 3.6 7 11.5 13 9.2 3-1.1 5.8-3 8.7-4.4" class="b"/><path d="M8.8 49.6q11.2-.4 22.5-.2c6.4 0 12.8.3 19.1-.6l1.8-.3 3.4.8c4 1 8-.6 11.3-2.9 7.6-5.5 13.4-10 23.5-9.3 6.3 2 9.8 9 15.6 12 3 1.5 6.2-.5 8.7-2.2q8 2.5 16.5 2.4c5.2 0 10.5-.1 15.6-1.1q5.7-1.2 11.3-3.4l4.3-1.5c.8-.2 1.8-.7 2.6-.6 6.8 9.8 9.2 7.8 18.2 2.2" class="b"/><path d="M8.8 45.5c6-.1 12.1.6 18.2.7s12.2-.7 18.2-.5q4.3.4 8.7.4 1.7-.1 3.5-.4 1.6.5 3.4.4c5.8-.7 10-6 14.8-8.9q5.6-3.5 12.2-3.7 2.7.7 5.2 2.3 3.7 2.5 6.9 5.8c2.4 2 5.2 5 8.7 4.5q1.8-.6 3.4-1.6a3 3 0 0 1 1.8-.7q4.6 1.7 9.5 2.1c4.3.4 8.7.2 13 .3q7.5.1 14.8-.4c6.1-.4 12.1-2.2 18.2-2.6 4.6 5.5 9.2 2.1 14-1" class="b"/><path d="M8.8 40.7c5.2.3 10.3 1.7 15.6 2 5 .2 9.9-1 14.8-1.7q4.7-.7 9.5 0c3.5.4 6.9 2.1 10.4 1.6q1.3 0 2.6.1c1.9 0 3.7-1 5.2-2 4.9-3.2 9-7.7 14.8-9.4 2.2-.7 4.7-1.3 7-.5 5.5 1.5 9.5 6 13.8 9.5 3.7 3 6.6 3.1 10.4.4 1.2 0 2.4.6 3.5.9q3 .7 6 1c6.7.4 13.4-.7 20-.5 9 .2 18 .8 27 .5 4.6 0 9.4.6 13.9-.6" class="b"/><path d="M8.8 35c6.1 1 11.8 4.4 18.2 4.2 4.8 0 9.3-2.1 13.9-3q5.2-1.3 10.4.2c2.6.7 5.1 2.2 7.8 2.7q1.3.3 2.6 0 1.8.4 3.5-.2c4.9-2 8.4-6.2 13-8.7 6.7-3.6 11-3.8 17.4.5 3.9 2.5 6.9 6.5 11.2 8.2 2.4.9 5-.2 7-1.4 1.1-.2 2.4.5 3.5.8l4.3.8c5.5.6 11-.5 16.5-1.1q8.2-1 16.5-.7c6.3.3 12.7.8 19 .3l1 .1.8.5q1.6 1 3.5 1c1.4.2 3-.9 4.3-.3" class="b"/><path d="M8.8 28.3c5.7 1.7 10.5 6 16.4 7.3 9.1 1.4 16.4-9.1 27-5 3 1.2 5.6 3.4 8.6 4.7 1.7.7 3.5.5 5.2.5 3-.4 5.5-2.4 7.9-4 3.6-2.8 7.6-5.5 12.1-6.5 2.3-.8 4.8 0 7 .9 4.8 2 8.4 6.2 13 8.7 2.1 1.2 4.8 1 7 0q1.2-.7 2.5-1.2c11.2 4.1 19.3 1 30.4-.6 9.2-1.5 18.5-.9 27.8-1.9 2.7 2.2 5.7 5.3 9.5 4.5" class="b"/><path d="M8.8 21.5c3.8 1.5 7.1 4.3 10.4 6.8 3.5 2.8 7.6 5.5 12.1 3 5-2.4 9.2-6.7 14.8-7.7 9.9-2 13.4 8.8 20.8 8.7h2.6q2.9-.6 5.2-2.2c4-2.4 7.7-5.3 12.2-6.6 1.3-.4 3-.9 4.3-.4 3.2.8 6 2.6 8.7 4.4 2.4 1.7 4.9 3.8 7.8 4.6 3.1.9 6-1 8.7-2.5 13 4.6 19.3 2.5 32.1-.3 8.6-2 17.4-2.6 26-3.8 2.9 2.2 5.2 5.5 8.7 6.6" class="b"/><path d="M8.8 15.6c6.5 2 10.2 8.3 15.6 12 3.9 2.9 7.4.1 10.4-2.5 4.7-4.3 10.6-9.3 17.4-7.4 6.7 1.6 11.8 12.5 18.2 11q3.7.6 7-1.3c4.4-2.3 8.8-5.2 13.8-6.3 5.3.4 9.4 4.5 14 6.7 4.3 2.4 8.6.2 12-2.6 5.2 1.5 10.4 3.3 15.7 3.6 5.6.4 11.1-.9 16.5-2.3q7.8-2 15.6-3.7l8.7-1.4c1.6-.2 3.4-.6 4.3 1q2.4 2.7 5.3 4.9" class="b"/><path d="M8.8 10.9c10.7 1 15 20.3 23.4 12.7C38 18.3 42.4 11.2 51.3 12c9.2.6 14 15 21.7 13.2.8-.3 1.8 0 2.6.1 2 .2 4.2-.6 6-1.4 3.8-1.6 7.4-3.6 11.4-4.7q1.3 0 2.6.6 2.2.9 4.3 2c3 1.6 6 3.8 9.5 3.5a16 16 0 0 0 8.7-4.8c7.5 1.7 14.8 4.8 22.6 4.8 9.6 0 18.5-4.2 27.8-6.1 3.7-.7 7.6-1.8 11.3-.6 1.3.7 2.3 2.3 3.4 3.3" class="b"/></svg>