<svg xmlns="http://www.w3.org/2000/svg" id="a" width="1920" height="2400" viewBox="0 0 192 240"><defs><style>.b{fill:none;stroke:#fff;stroke-miterlimit:10;stroke-width:.3px}</style></defs><path d="M0 0h192v240H0z" style="stroke-width:0"/><path d="M8.8 222.3c13.9 5 15.5 7.3 31.2 6.8 11.5 0 15.4 1.3 23.5-8.1 5.4 4 10 11.6 17.3 6.2 6.9-5 11.8-10.3 20.8-11 1.4-.1 3-.5 4.4 0q3.6 2.9 7 6c9.6 9 16.7 6.6 28.5 7q3.5 0 7-.3 4.3.5 8.7-.1c6.5-.8 12.8-3.2 19-5q3.7 1.4 7 3.4" class="b"/><path d="M8.8 220.8c11.3 5.3 13.7 5.5 26 4q4.8-.5 9.6 0c10.8 1.8 12.9 1.2 20-7.4 3.2 2 6 5 9.5 6.9 3.5 2.1 7 1.5 10.4-.7 3.2-2 6.2-4.6 9.5-6.7q4-2.6 8.7-3.6c1-.2 2.4-.7 3.5-.3 3 2.4 5.6 5.7 8.6 8.1 6.4 5.5 13.2 4.5 20.9 4.5 3.7 0 7.5.2 11.2-.3q4.9.8 9.6-.3c5.5-1.3 10.9-3.4 16.5-4.5q3-.7 6-.7 2.3 1.4 4.4 2.7" class="b"/><path d="M8.8 219.7c9.7 5 14 1.3 23.4-.6q5.7-1 11.3.3c6.4 1.5 12 5.7 17.4-.5l2.6-3c.3-.6 1-1.5 1.7-1.6 5.2 2.5 9.7 7.1 15.6 7.9 5.4.2 9.7-4 13.9-6.7q3.3-2.3 7-4.1c1.3-.5 2.8-1.4 4.3-1.3 2.7 2.4 5 5.5 7.8 8 4 3.6 8.7 4.4 13.9 4l11.2.1q3.5.1 7-.4c3.7 1 7.7 0 11.3-1.2 6-2.3 12.4-4.8 19-4.2l4.4.7q1.5.1 2.6 1" class="b"/><path d="M8.8 218.2q5 1.3 9.5-1c5-2.2 10-5.1 15.7-5.4 10.2-.7 15.8 6.9 22.5 7 2.6-.4 4.5-2.7 6-4.6.8-.9 1.6-2.4 2.7-2.8 6 1.7 11.2 5.6 17.3 7.1 8.5 1.9 16-7.9 23.5-11 3.1 2.7 5.2 6.7 8.6 9 3.3 2.5 7.5 2.5 11.3 2q4.4-.4 8.7 0c3.5.1 7 .6 10.4 0 1.1-.2 2.4.3 3.5.3q2.7-.1 5.2-1c6.1-2.4 12.3-6 19-5.1 3.6.4 7 1.7 10.5 2.6" class="b"/><path d="M8.8 215.2c6.5-1.2 11-7.2 17.4-8.9L34 208q6 1.4 12.1 2c1-.2 1.9.6 2.6 1.1l2.6 1.8c7 4.8 8.6 1.6 13-3.9 4.8.2 9.5 1.6 13.9 3.3 5.5 2.2 10.9 4.6 16.5 1.5q4.1-2.4 7.8-5.4c1.4-.9 2.7-2.3 4.3-2.7 4 5 7.5 10.9 14.8 9.4q5.2-1 10.4-.8c4.3.2 8.7 1.6 13 .7l2.6.3q2.2 0 4.3-.8c6.7-2.6 13.3-7.3 20.9-5 3.5 1 6.8 2.7 10.4 3.7" class="b"/><path d="M8.8 210q2.3-1.5 4.3-3.2c.8-.5 1.7-1.5 2.6-1.6l11.3 2.6a74 74 0 0 0 25.2 1.8c5 3.2 6.7 3.2 10.4-1.8 1.2-.8 3-.7 4.3-1q6.7-.7 13 1.2c3.3 1 6.4 2.4 9.6 3.3 6.9 2.3 12.4-3 17.3-7h.9c8.5 12.7 11 5.4 22.6 5.6 4 0 8 1.6 12.1 2l3.5-.2q2.7.4 5.2-.6c7.1-3 13.6-8 21.7-4.5 3.4 1.6 6.7 3.6 10.4 4.4" class="b"/><path d="M8.8 203.6c5.7 1.5 11.5 3.3 17.4 4 6.8 1 13.8.8 20.8.8a68 68 0 0 0 7.8-.6c1 .3 2.3.9 3.5.5q1.3-.7 2.6-1.8l7.8-2.4a26 26 0 0 1 16.4.2c10.5 4 13 7.3 22.6-1.3l.9-.1c7.4 11 11.1 1.9 21.7 2.6 3.8.2 7.5 1.7 11.2 2.6q2.2.4 4.4.3 2.2.2 4.3-.6c7.8-3 14-8 22.6-3.5 3.2 1.9 6.6 3.9 10.4 4" class="b"/><path d="M8.8 202.8c9.5 2.9 15.6 2.3 25.2 1.5q6.5-.5 13 0c14.9 1.6 13.9 0 26.9-5 4.7-1.7 10-1.6 14.7.3 8.6 3.5 12.2 9.1 20.8 1.5 6.7 8.9 10.5-.5 20.9.2 7.2.2 13.6 5.8 20.8 2.7 6.6-2.8 12.8-6.2 20-2.7 4.2 2.2 6.9 4.5 12 3.4" class="b"/><path d="M8.8 201c9.4 2 18.5-2.2 27.8-2.4 5-.2 9.9.6 14.7 1.6 1.2.1 2.4.8 3.5 1.2q1.3.2 2.6 0 1.7.2 3.5 0c3.8-.4 7.1-2.7 10.4-4.5 4.1-2.5 8.9-4.5 13.8-4q5.2.6 9.6 3.5c2.5 1.5 5 3.4 7.8 4.6q3.2 1.2 6-.4c.8-.3 1.8-1.1 2.7-1.1 5.5 5.9 10.5-3.3 20.8-2q2.7.3 5.2 1.3l4.3 2q2.6.8 5.2.7 2.2.1 4.4-.4 3.6-1 7-2.9c6.4-1.8 10.7 0 16.4 2.7q2.5 1 5.2.3c1.1-.5 2.4 0 3.5.2" class="b"/><path d="M8.8 198c6 .3 11.6-1.7 17.4-3a43 43 0 0 1 22.5.4c1.7 1 3.1 2.7 5.2 2.7.8 0 1.8-.5 2.6-.7q.9.3 1.8.4c8.6 2 14.5-8.8 24.3-10.2 8.6-1.4 14.3 3.8 20.8 8.5 3.4 2.3 5.7 2.5 9.5.8 2.9 2.4 6.6.5 9.5-.7q4.6-2 9.6-2c4 1.5 7.9 3.5 12.1 3.8q1.8.1 3.5-.1 2.2.3 4.3 0 3.6-.5 7-1.7 2-1 4.3-.8c3.6.1 7 1.8 10.4 2.6h2.6c.4-.3 1.3-.4 1.8-.3q2.5.8 5.2 0" class="b"/><path d="M8.8 194.6c5.6-.2 11-2.1 16.5-3.3a44 44 0 0 1 19-.1q2.1.1 3.5 1.6c2.4 2 4.3 2.3 7 .9 3 .9 6.5 1.5 9.5-.1 7.6-4.2 12-11 21.7-11 12.8-.3 16.9 10.8 25.2 12 1.4.2 2.9-.6 4.3-.7a7 7 0 0 0 3.5.7c3.5-.4 6.9-2.2 10.4-2.7 2.3 0 4.7 1 7 1.5q4.6 1.3 9.5 1.2l3.4-.3q2.6.5 5.3.3c3.4-.2 6.9-1 10.4-1.1 2 .2 4 .8 6 1q1.8.1 3.5 0c3 .5 6.1-.8 8.7-2.4" class="b"/><path d="M8.8 191c5-.4 9.9-2.2 14.8-3.5a42 42 0 0 1 20-.6c3 3 6 6 10.3 3 1.2-.2 2.4.4 3.5.7q2.5.8 5.2.4c3.7-.8 6.6-3.5 9.5-5.6 3.8-3 8.2-5.6 13-6 7-.9 13 2.6 18.3 6.9 2.6 2 5.3 4.3 8.6 4.8q1.9.1 3.5-.3c.8-.2 1.8-.6 2.6-.3q1.3.5 2.6.6c3.6.2 7-1.3 10.4-1.8 6.3 1 12.7 2.4 19.1 1.7 2.9-.5 5.8 0 8.7.1q6.5.2 13 0c4.3-.7 8-3.4 11.3-6" class="b"/><path d="M8.8 187.5c5-.8 9.9-3 14.8-4.4q7.1-2.3 14.7-1.8 1 0 1.7.7l2.6 2.2c4.2 3.4 7.5 5 12.2 1.4 2 .2 4 1.5 6 1.8 5.4 1.4 9.8-2.7 14-5.4 6.5-4.6 14.2-6.3 21.6-2.7 3.7 1.7 7 4.4 10.4 6.4 4.9 3 8 2 13 .8 4.5 2.3 9.3.6 14-.2 6 1 12 1.7 18.1 1.3q5.3-.2 10.5 0c3.4 0 7 .5 10.4-.6 3.8-1.5 6.9-4.4 10.4-6.4" class="b"/><path d="M8.8 184c6.4-1.4 12-5.1 18.2-6.8l3.5-.7q3.2.8 6 2.2c7 3.4 12.6 9 20 2.7.9-.1 1.9.5 2.6.8a26 26 0 0 0 4.4 1.7c6.6 1.7 12.2-4 18.2-6 4.4-1.5 9.4-1.5 13.9.1 6 2 11.5 7.1 18.2 6.1 2.6-.4 5.2-1.2 7.8-1.6 5 2.6 8.6 1.9 13.9.5 1-.3 2.3.1 3.4.2l5.2.7q7.5.6 14.8.3c3.7 0 7.6.3 11.3-.3 4.8-.7 8.7-4 13-6" class="b"/><path d="M8.8 180.6c5.9-.7 11.4-3.1 17.4-3.6q6.6-.5 13 1.5c6.7 2 14.3 4.5 20-1.4 2.5 1 5 2.7 7.7 3.3 3.5 1 7.1 0 10.4-1.2 3.4-1 6.9-2.1 10.5-2.3 6.9-.6 13.2 3 20 3.8 4.4.5 8.6-1.4 13-2.1 1-.3 2.5-.5 3.4.4 3.4 2.2 7.5 2.2 11.3.9l2.6-.8 4.3.6 8.7.9q5.6.3 11.3.2 4.8.2 9.5-.7c4-1 7.6-3 11.3-4.4" class="b"/><path d="M8.8 176.8q1.8 0 3.5.3 2.6.3 5.2.3c4.6-.1 9.2-.8 13.9-1q6-.2 12.1.4c4.6.3 9.4 1.3 13.9-.2q1.9-.7 3.5-2.1c.3-.4 1.2-1 1.7-1.1 8.9 5 13 4.2 22.6 3.2q5.2-.5 10.4 0c4.8.6 9.9 1.3 14.7.1 4.3-1 8.6-2.5 13-2.7 5.4 3.3 7.6 4.6 14 2q1.2-.6 2.5-.9l2.6.5 6 .8q11.8 1.4 23.5.3c3.8-.6 7.5-1.8 11.3-2.7" class="b"/><path d="M8.8 173.2q1.8-.8 3.5-2 1.3 0 2.6.3l3.4.8q6.5 1.4 13 1.6c6.1.1 12.2-.4 18.3-.2 7 .1 11 1.5 16.5-4 6.5 3 12.8 4.2 20 4.2q8.2.2 16.4-.5c7-.7 13.7-3.5 20.8-3.8 1.3.6 2.4 1.8 3.5 2.5 3.7 2.6 7.5 2.1 11.3 0 .8-.3 1.7-1 2.6-1l1.7.2 6 1q11.3 1.6 22.7 1.2c4-.2 8-.9 12.1-1.2" class="b"/><path d="M8.8 169.4c2.5-1.3 4.7-3.3 7-5.1 5.6.8 10.9 3.4 16.4 4.8a36 36 0 0 0 8.7 1.4q5.3-.2 10.4-.6 3-.3 6 .1c3.3.6 6.8.9 9.6-1 1.6-.7 2.9-2.1 4.4-3a70 70 0 0 0 29.5 2.4c7.5-.7 15-3 22.5-2.9 5.3 5 9.1 6.7 15.7 2.6 1.8-1.2 2-1.4 4.3-.9l5.2.9q9 1.5 18.2 2c5.5.2 11-.1 16.5 0" class="b"/><path d="M8.8 165.5c3.7-2.5 6.6-6 10.4-8.3 4.3 1 8.3 3 12.2 5.1 3.5 2 7.2 4.2 11.2 4.6 5 .6 9.8-2 14.8-1.7 9.7 1.5 11.2 4.4 20-3.1 2.2 0 4.6.5 6.9.6q5.6.5 11.3.2c9-.3 17.9-1.4 26.9-1.3 8 7.4 10.3 6.5 19 1.2 7.3 1 14.5 2.6 21.8 3.4q10 1 20 .8" class="b"/><path d="M8.8 161.3c3.3-2.5 11.4-12 15.6-9.6 5.3 1.7 9.5 5.7 13.9 9 3 2.2 6.7 3.7 10.4 2.3 9.1-3.7 10.6-3.9 20-.4 7.4 3 11.8-1.4 17.3-5.6 9 .3 18 0 27 .7l5.1.4c1.5 0 3.3-.2 4.4 1 8 7 11 4.7 19-.1 7 .6 14 2 20.9 3.3 6.8 1.1 14 2 20.8.4" class="b"/><path d="M8.8 156.7c5-5 9.8-9.8 17.4-10.3 5 1.1 8.6 5 12.1 8.5 13.1 14.4 13-7 32.1 2.1 7.6 3.7 11 4.7 18.2-.5l4.4-3c.7-.5 1.6-1.3 2.6-1.3q5.6.3 11.2 1c4.4.6 8.7 1.8 13 2 5.3 4 9.2 6.8 15.7 3.3l5.2-3q5.6 0 11.3 1c5 .7 9.8 2 14.7 2.9a24 24 0 0 0 16.5-1.6" class="b"/><path d="M8.8 151.7c4.3-4.5 9.1-8.4 15.6-8.8h5.2q2 0 3.5 1.1c5 3 8.8 11.5 13.9 12.6 3 .2 5.4-2.3 7.8-3.9 1-.6 2.2-1.6 3.5-1.6 3.7 0 7.5-.7 11.2-.8 5.5 1.5 10 5.8 15.7 6.3 4.9.2 8.9-3.3 13-5.5 3.7-2 3.6-2.2 7.8-1.2 3.5.7 7 1.9 10.4 2.7q1.4.2 2.6.6l2.6 1.6c2 1.1 4.5 2 7 1.8 3.7-.3 7-2.4 10.3-4.1q6.1-.6 12.2 0c5.3.4 10.5 1.8 15.6 3.1 6.3 1.6 11.2 1.7 16.5-2.7" class="b"/><path d="M8.8 146.4c2.7-2.7 5.8-5.2 9.5-6.2a27 27 0 0 1 17.4 1.3c1.9.6 3.2 2.2 4.3 3.7q2.1 2.9 4.4 5.4c2.4 2.7 4.7 3.5 7.8 1.2 1-.7 2.1-1.8 3.5-1.5q3 0 6-.4c5-.5 9.9-1.9 14.8-2.7 8.3 4.2 12.1 8.8 21.7 3.8 2.4-1 7-3.6 9.5-2.7 3.4 1 6.9 2.3 10.4 3q3 1.5 6 1.9c3.8.4 7.1-1.5 10.5-2.7 5.4-.8 11-1.8 16.5-1.7 5.3 0 10.5 1.4 15.6 3 7 2.2 11 2.5 16.5-3.3" class="b"/><path d="M8.8 140.9c2.4-2.2 5.4-4 8.7-4.5 4.6-.9 9.5-.6 13.9 1.1 3.5 1.5 6.5 3.9 9.5 6.1 1.9 1.6 4.4 2.7 6 4.5 1.2 1 2.8 2 4.4 1.5l1.8-.6 1.7.1c8.9.3 17.4-2.2 26-4a3 3 0 0 1 2.6.5L86 147a20 20 0 0 0 7.8 2.7c4.5.3 8.7-2 13-2.5 1.5-.2 3 .6 4.4 1q3.4 1 7 1.2 3 .6 6 .1 3.5 0 7-.5c8.6-1 17-4.5 26-3.7q5.8.7 11.2 2.8c5 1.8 9 3 13-1.3.5 0 1.4.2 1.8.5" class="b"/><path d="M8.8 135.3a22 22 0 0 1 20-1.3c5.6 2.5 9.4 7.7 14.7 10.7 4.2 2.5 9.3 1.3 13.9 1.5 4.3 0 8.7.3 13-.2 4.6-.4 9.3-1.4 13.9-1.8q2.2-.3 4.3-.2l3.5 1.4q3.8 1.2 7.8.8l5.2-.7 4.4.7q3 .3 6 0 2.2.2 4.4 0c3.4-.7 7 0 10.4.1q5.3.1 10.4-1.4c6.5-1.8 13-4.5 20-3.7a33 33 0 0 1 9.5 2.9c3.2 1.4 7.3 3.6 10.4.8.8 0 1.8.5 2.6.7" class="b"/><path d="M8.8 134.4c1.6-2 3.4-5 6-5.6a21 21 0 0 1 15.7 4.2c4.3 3.1 8.2 9.5 13.9 9.8 2.4 0 4.6-1 7-1.7 2.9 1.7 4.4 2.3 7.7 1 1.1-.4 2.3-1.3 3.5-.9q6.9 1.2 13.9 1.6c5.2.2 10.4-.1 15.6 0h9.5l6.1-.3c3.2-.1 6.4.6 9.5.2q4-.6 7.8-2.2c.8-.3 1.9.1 2.6.4l3.5 1c5.7 1.8 10.3.8 15.6-1.5l5.2-2c1.1-.3 2.4-.9 3.5-.7l8.7 2.2q3.4.8 7 1.2 1.6 0 3.4.3l1.7.8q2.2 1 4.4.2 1.3.1 2.6.4" class="b"/><path d="M8.8 135.2c2.6-3.4 4.7-7.7 8.7-9.8 12.4.4 15.6 13 23.4 14 3.7-.2 6.4-3.2 9.5-4.7 6.5 7.3 10.3 4.3 18.3 2.4 2-.4 4-1 6-.6q4.8 1 9.6 1.4c3.5 0 7 1.1 10.4 1.4 4 .3 8.1-.1 12.1-.1l7 .2c5.1 0 9.9-2.5 14.7-4 8.5 4.3 11.8 5.5 20.8 1.5 4.2-1.8 3.5-1.7 7.9-.4q8.8 2.8 18.2 2.6c2.5 0 5.2.6 7.8.1" class="b"/><path d="M8.8 135.4c4-2.9 7-10.7 11.3-12.3 8.4 2.4 13.9 15 20 12.5 3.3-1.4 5.7-4.5 8.6-6.6 1.7.8 2.9 2.7 4.4 3.8 5 4.5 10.4 3 16.5 2.3 6.6-.9 13.3.3 20 .8 5.1.3 10.3-.3 15.5-.3 3.8-.1 7.6.7 11.3.1 3.3-.5 6.4-1.7 9.5-2.7l3.5-1c.8-.3 2-.3 2.6.3 5.6 3.3 10.1 4.9 16.5 2.5 4.5-1.5 3.3-1.3 7.8-.2 5.4 1.5 11 1.4 16.5 1.3h7c1.1 0 2.3-.8 3.4-1.2" class="b"/><path d="M8.8 132c2.9 1.8 5.3-1.9 7-3.7q2.4-3.1 5.2-6l.8-.1q3.8 2.4 7 5.7c2.5 2.2 5.8 5.9 9.5 4 3.4-1.7 5.8-5 8.7-7.6 2 .9 3.4 3 5.2 4.2 5 4.4 11 4.1 17.3 4q7.5-.1 14.8 0 5.6-.1 11.3-.7 5.2-.6 10.4-.2c3.1.2 6.3 1 9.5.9 5.9-.7 11.4-3.4 17.4-3.7 6.6 3 9.8 4.8 17.3 3 1.4-.5 3 .2 4.4.3q3.4.6 6.9.3c3.8-.3 7.5-1.1 11.3-1 3.7.8 7 2.2 10.4-.7" class="b"/><path d="M8.8 125.2c1.4 1.9 3.4 4.6 6 3.6 3.2-1.5 5.3-4.6 7.9-6.8 2.8 1.4 5 4 7.8 5.7 6.1 4.4 10.6-3.4 14.7-6.8 4.2 2.6 8 6.2 13 7.2 3.7.8 7.6.8 11.3.8q10-.1 20-1.6 7-1 13.9-.5c4 .4 8 2 12.1 2.3 4.7-.1 9.2-2 13.9-2.5q3-.3 6-.2c2.3.8 4.6 1.8 7 2.2 2.8.6 5.8.4 8.7.4 3.2.3 6.4-.4 9.5-.9a76 76 0 0 1 11.3.6c3.8.5 8 .8 11.3-1.6" class="b"/><path d="M8.8 117.8c2.4 3.3 5.5 9.6 10.4 7.2l3.5-2.1q.8-.7 1.7-1c8.7 6.1 11.4 4 18.2-2.9 1.5 0 3 1.1 4.4 1.7q3.7 2 7.8 3.4c9.5 2.2 19.3.2 28.6-2a40 40 0 0 1 22.6.3c10 3.6 9.2 4 20 2 5.1-1 10.4-.5 15.6.5q4.6.9 9.5.7h21.7c3.5 0 7.3-.5 10.4-2.3" class="b"/><path d="M8.8 115.7q1.7.1 3.5.5c3.9 4.7 6.7 7.7 13 4.7 6.8 2.4 9.2 1.1 14.7-3 4.5.6 8.7 2.2 13 3q8 1.3 15.7-.6c4-1 8-2.7 12.1-4.1 6-2.1 12.8-3.1 19.1-1.3q5.4 1.7 10.4 4.6c3.3 1.9 6.6 3.1 10.4 2.5q5.3-.8 10.4-1c3.8 0 7.6.8 11.3 1q3.5.3 7-.3 9 .2 18.2-.2c5.2-.3 10.6 0 15.6-1.8" class="b"/><path d="M8.8 115.4q5.3.6 10.4 1.8c1.4.5 2.9 1.3 4.4 1.4q1.6.2 3.4 0 2.2.2 4.4 0c2-.3 4-1.4 6-1.3 4-.2 8.2.4 12.2.7 15.8 1.7 18.2-2.8 31.2-8.6a26 26 0 0 1 20.8.3q4.6 2.3 8.7 5.3c2.6 1.8 5.4 3.7 8.7 3.7s6.4-.5 9.5-.6c4.7-.2 9.3.7 14 .6 2 0 4-.6 6-.9q5.6-.4 11.3-1 5.6-.6 11.2-.6c4 .2 8.2.7 12.2 0" class="b"/><path d="m8.8 114.5 15.6.8 19.1-.1h9.6c3.5 0 7.1 0 10.4-1.5 3.8-1.7 7-4.5 10.4-6.8a27 27 0 0 1 19-5.2c8.2.5 13.3 5.5 19.2 10.3q4.4 3.8 10.4 3.2c2.8-.4 5.8-.1 8.6 0 3.5-.2 7 .1 10.5 0q4.3-.6 8.6-1.5c7.5-1.4 15-4.2 22.6-2.7 3.4.8 6.9 1.8 10.4 2" class="b"/><path d="M8.8 111.8c8.4-.2 16.8 0 25.2-.5 7.2.3 14.4.2 21.7.5 9 .6 13.7-8.5 20.8-12.3 3.4-2 7.4-2.4 11.2-2.4q4.5-.1 8.7.4c10 1.7 9.9 9 17.4 13 4.6 2.2 9.8 1 14.7 1 6.7 0 13.5 1 20-1 5.8-1.7 11.3-4.7 17.3-5.3q3.6-.4 7 .8c3.4 1.4 6.8 3.3 10.4 4.2" class="b"/><path d="M8.8 107c4.6-.3 9.3.2 13.9.6a146 146 0 0 0 20 .2q2-.5 4.3-.4l7 .7q2.5.5 5.1 0c7.3-2.3 10.3-11 17.4-13.7 3-1.2 6.3-.7 9.5-.8 4 .1 8.1-.2 12.2.2q2.5.4 4.3 2.4 2.3 2.9 4.3 5.9c1.9 2.4 3.9 5.3 7 6q1.7.4 3.5.1l2.6.2c3.7-.1 7.5-.8 11.2-.5 5 .2 10 1 14.8 0 7.7-1.8 14.2-8.2 22.5-7.4 5.7.5 9.6 5.3 14.8 7" class="b"/><path d="M8.8 101.2c7.1-.3 13.8 3 20.8 3.5q5.6.4 11.3.2c3.5 0 7 .3 10.4-.8 2.3.4 4.7 1 7 .6 7-2.1 9.5-11.4 16.4-14 2.8-1 5.9-.4 8.7-.5h13.9c4.5-.4 7.2 6.5 9.5 9.5 2 3 4.7 6.5 8.7 4.7q1.3.2 2.6.5 2.2 0 4.4-.3 4.3-.8 8.6-.6c3 .2 5.8.8 8.7.9q3 .1 6-.2c8.2-1.7 14.7-10 23.5-8 5.4 1.2 8.6 6.7 13.9 8" class="b"/><path d="M8.8 98.8q7.3 1.5 14.8 1 4.2 1.8 8.6 1.6c3.8-.2 7.5-1.1 11.3-1 2.6 0 5.2.8 7.8 1l2.6-.1 1.8.1c7.3 0 10.3-10.9 16.5-14 1.5-.8 3.4-.7 5.2-.7h16.4q2.7-.1 5.3.2c4.2 2 6.3 8.8 9.5 12.4 2 2.3 3.2 2.5 6 1.6 2 .9 4.2.5 6.1 0a38 38 0 0 1 7-1.2c5.2-.3 10.3 1.8 15.6 1.7 1.7 0 3.6.1 5.2-.5 4.3-1.4 7.8-4.6 12.2-5.9 13-4.5 15.5 7.1 22.5 6.3" class="b"/><path d="M8.8 97.8a170 170 0 0 0 17.4-.3q1.6.4 3.4.5c3.3.1 6.3-1.8 9.6-1.6 4.6-.2 9.2 1 13.9 1.6 7.4.8 10.6-8.8 15.6-12.9q1.5-1.3 3.4-1.8h24.3c1.5 0 3.2-.1 4.4 1 3.8 3 6.5 13.2 11.3 13.7l1.7-.3c.4.2 1.3.3 1.7.3 1.5 0 3-.7 4.4-1.2 10.5-4.3 14.5-.4 24.3 1.1q3 .4 6-.5c3.8-1.4 7.4-3.5 11.3-4.6 7.5-2 10.6 1 16.5 4.7q1.7.8 3.5.3l1.7.1" class="b"/><path d="M8.8 93.8c5.5-.3 11 .4 16.5.7 5.2.2 10.4-.3 15.6-.3 4.3-.2 8.8 1 13-.2 2.3.8 3.5.7 5.2-1 2.4-2.9 4-6.5 6.1-9.6q1.6-2.4 4.3-3.4c1.7-.3 3.6-.1 5.2-.2H93c2 .1 4.2-.3 6 .5 5.5 3 7.1 10.1 12.2 13.7 2.3 1.4 4.9-.2 7-1.4q2.8-1.7 6-2.8c5.3-1.6 10.7.3 15.6 2.4 4.2 1.9 8.6 3.2 13 1.7 5.4-1.6 10.9-4.9 16.5-2.7 2.7.8 5 2.9 7.8 3.3 2-.1 4.1.2 6.1 0" class="b"/><path d="M8.8 87.1q5.2-.4 10.4.9c2.2 1.2 4.5 2.5 7 3 2 .4 4-.3 6-.8 6.3.6 14.1 1.3 20-1.3 1.6.9 3.2 2.6 5.2 2 4-1.7 6-8.3 8.7-11.8.8-1 2-2.5 3.4-2.7H94c1.4 0 3-.2 4.3.6 5 2.6 9 16.5 14.7 13.7 4.6 2.1 9.7-6 20-4 5.9 1 11.3 4.2 17.3 4.4 5 .1 9.8-1.6 14.8-1.3 2.6 0 5.2.9 7.8 1.2 1.1.2 2.4-.3 3.5-.1 2.2.4 4.7 0 7-.4" class="b"/><path d="M8.8 81.2c5.4.6 9.7 4.4 14.8 6 4.9 1.6 9.5-1.6 13.8-3.5 1.3-.7 3-.3 4.4-.4q2.6-.1 5.2-.8a17 17 0 0 1 5.2 2.7c1.7 1.2 3.9 3.3 6 2 4.7-3 6.3-12 11.3-14.2q4.3-.2 8.7 0h12.2c2.6 0 5.7-.8 7.8 1.2 3.2 3 5 7.3 7.8 10.7 1 1.3 2.5 2.9 4.3 2.7.9-.1 1.8-.7 2.6-.9 2.8 2 6 .2 8.7-1a27 27 0 0 1 7.8-2c4.1-.5 8.2.4 12.2 1.4 2.2.7 4.7 1 7 1.8q2.9 1 6 .6l4.3.1c4.3-.1 8.9.5 13-1q1.8.4 3.5 1c2.6.3 5.3-.4 7.8-1.1" class="b"/><path d="M8.8 78.6c5 .9 9 4.1 13.9 5.3 4 1 7.8-.8 11.3-2.5 9.3-4.5 12.6-3.5 20.8 2.2 4.8 2.9 8.1-6.3 10.4-9.3 1.6-2.5 3.5-5.3 7-4.8h21.6c7.6-.9 10.5 19.4 18.2 13.6 1 0 1.8.7 2.6 1 2.4.5 4.8-.6 7-1.4a34 34 0 0 1 21.7-1.6c2.5 1 5 2.5 7.8 2.9 5.2.9 10.4-1.5 15.6-1.3 7.7.5 8 3 16.5 0" class="b"/><path d="M8.8 76.1c4.7 1.2 9 4.2 13.9 4.6 4 .3 7.7-1.8 11.3-3.3 4.6-2.1 10-3.1 14.7-.6 2 1 4 2.5 6 3.5 5 2.5 8.8-7.2 11.4-10.3 2.4-3.2 3.6-4.3 7.8-4h19c2.2-.2 4 1 5.3 2.6 1.9 2.3 3.5 5.2 5.2 7.6 2.2 3.2 4.7 6.3 8.7 3.3 3.1 2.4 7 .7 10.4-.4a44 44 0 0 1 17.3-2.6c2.7.8 5.1 2.4 7.8 3.2 6 2.3 12.2 0 18.3-.1 7.6 0 9 2.7 17.3-.4" class="b"/><path d="M8.8 73.7c3.7 1.2 7.3 3.2 11.3 3.6 3.6.3 7.1-1.2 10.4-2.6 7.1-3.1 13-4.1 20 .2 2.7 1.6 5.7 3.8 8.6 1.1 4.5-3.8 6.6-11.1 12.2-13.2 3.7-.5 7.5-.1 11.3-.2h11.2c5.1 1.5 7.9 10.2 12.2 13.6 1.2 1 2.9 1.4 4.3.8a3 3 0 0 1 1.8-.4c2.7 1.4 5.9.3 8.7-.5a79 79 0 0 1 15.6-3.3q1.8.5 3.4 1.2c11.7 5 13.7 3 25.2 2.2 7.4-.1 10.4 2.6 18.2-.3" class="b"/><path d="M8.8 71.4c3 1.1 6.2 2.4 9.5 2.4 3.7 0 7.1-1.5 10.5-2.8A27 27 0 0 1 40 68.5q4.1.3 7.8 2.2 3 1.7 6.1 2.9c7.4 2.2 11.3-13.3 19.1-14.3q4.3-.2 8.7-.2H93c6.8 2 9.9 17.3 18.2 14.3 3.1 1.1 6.5-.2 9.5-1a85 85 0 0 1 11.3-2.3c2.3 0 4.7 1 7 1.6 3.6 1 7.4 2 11.2 2.1 5.5.2 11-1.3 16.5-1 3.2 0 6.4.9 9.6 1q3.5.1 6.9-1" class="b"/><path d="M8.8 69c9.5 4 15.4-2.3 24.3-4 5-1 10.3.5 14.7 2.9 2.5 1.1 5 2.8 7.9 2.4 5.9-1.5 9.6-10.3 15.6-13.2 3.4-1.8 7.5-1.4 11.3-1.4 3.4 0 7-.4 10.4 1 1.8.6 3.1 2.2 4.3 3.6 2 2.4 3.9 5.1 6 7.3a9 9 0 0 0 5.3 2.8h3.5c4.6-.4 9.2-2 13.8-2.5 1.7-.3 3.6.1 5.2.3 5.2.8 10.4 2.1 15.7 2.2 5.5.1 11-1 16.4-1.2q4.5-.2 8.7.5 5.6 1.2 11.3.2" class="b"/><path d="M8.8 66.5c3.2 1 6.6.2 9.5-1 5.5-2.5 11.2-5.5 17.4-4.8 5.4.4 10 3.5 14.7 5.5 4.5 2 8.2-.6 11.3-3.7 3-2.8 5.9-6 9.6-7.8a23 23 0 0 1 11.2-2q6.2.1 11.3 3.5C99.7 60 103.2 68 111.2 67q9-1.6 18.2-.8 7.8 1 15.6.8c5.8-.3 11.6-1.4 17.4-1.5q4.8 0 9.5.6c3.7.6 7.5 1.2 11.3.8" class="b"/><path d="M8.8 63.5c4.8 0 8.8-3.3 13-5.2 10.6-5 16.8-1.4 26 3.8 5.7 3 9.5.6 14-3 3.1-2.7 6.4-5.5 10.3-7 5.3-2 11.4-1.7 16.5.6 4.9 2.2 8.6 6.2 13 9q2.5 1.4 5.2 1.8l7-.1q6.5-.3 13 0 7.4.4 14.7-.3c6.1-.5 12.2-1.4 18.3-1.5q5.6-.3 11.2.5c4 .5 8.1 1.3 12.2 1.4" class="b"/><path d="M8.8 59.7c3.8-1.3 7-4.1 10.4-6a19 19 0 0 1 20 0c4.6 2.4 9 7.4 14.7 6.1 4-1 7-3.9 10.4-6a25 25 0 0 1 12.2-4.5C82 48.8 87.5 51 92 54c3.3 2.1 6.6 4.7 10.4 5.7q2.6.5 5.2.3h6q8.4.1 16.6-.2c5.2-.3 10.4.2 15.6-.4q2.6-.3 5.2-1c1.1-.2 2.3-.8 3.5-.8 9.6-.5 19.1 1 28.6 2.1" class="b"/><path d="M8.8 55c3.3-2.1 6.1-5 9.5-7 5-2.9 11.3-3.3 16.5-.8 4.8 2.2 8.4 6.3 13 8.6 5.3 2.5 10.4-1.6 14.8-4a29 29 0 0 1 11.3-4.1c4.4-.5 9 .6 13 2.4q3.6 2.7 7.8 4.5 3.4 1.3 7 1.9 2.5.1 5.1 0H119l5.2-.2 6 .3c5.5 0 11-.3 16.6 0 3.1 0 6.4 0 9.5-.9q1.8-.5 3.5-1.3 1-.9 2.6-.7c7 .6 13.9 1 20.8 2" class="b"/><path d="m8.8 49.7 2.6-2.5q7.2.2 13.9-2.7c2.3-1 4.5-2.4 7-3 7.2 2.3 12.6 11.8 19 11.6 4.4-.4 8.2-3.2 12.2-5a27 27 0 0 1 13-2.5q1.3.8 2.6 1.7c4.5 3.2 10 5.5 15.6 5.7q5.6.1 11.3 0 4.8.1 9.5.1l4.3-.2q4 .4 7.9 0c6-.7 12-2.3 18.2-1.6 5.7.5 11.7 3.2 17.3.9q1.9-.7 3.5-1.8l5.2.3q5.7.1 11.3.7" class="b"/><path d="M8.8 49c6 .5 12.5.2 18.2-2 4-1.6 7.6-4 11.3-6.2 2.5 1.8 4.5 4.5 7 6.4 1.8 1.6 4.3 2.9 6.9 2.4 4.2-.9 8-3.4 12.1-4.8s3.5-1.6 7 .8a24 24 0 0 0 11.2 4c4.1.3 8.2-.5 12.2-.7 1.1-.2 2.4.3 3.5.4 1.3.2 3 .4 4.3.4l7-.3q5.6.4 11.2.2c3.6-.2 7-1.5 10.4-2a80 80 0 0 1 21.7-1.9q3.9 1.6 7.8 3.1 3.4 1.4 7 .6 2.8-.7 5.2-2.2c3.4-.4 7-.1 10.4 0" class="b"/><path d="M8.8 45.2q5.6-.9 11.3 0c4.3.6 8.7 1.6 13 .6 3.6-.9 7-2.7 10.4-4.2 5.7 6 8.5 5.4 15.6 2.3 2.1-1 2.4-.8 4.4.2 8.4 4.1 13.4 1.3 21.6-.8l2.6-.5 6.1 1.8q5.6 1.5 11.3 1.6h10.4q4 .2 7.8-.3c6.7-.9 13.2-2.7 20-3.2 6.3-.6 12.7 0 19 .5 1 0 2 .7 2.7 1.1q2 1.2 4.3 1.7 4.7.8 8.7-1.5l1.7-1h3.5" class="b"/><path d="M8.8 37c6-2 12.5-.5 18.2 2 4 1.6 7.9 3.5 12.2 3.8q4.4 0 8.6-.7c1-.3 1.9.3 2.7.5 1.7.5 3.5 0 5.2-.3 9.3 1.9 14.4-2 22.5-5.3 3.8 0 7.6 1 11.3 1.9a85 85 0 0 0 15.6 3q3 .2 6 0c1.5 0 3-.6 4.4-.1 8.7 2.4 17.4-.2 26-1.3q9-1 18.3-.3l10.4.5c4.3 2.4 9 3.2 13-.3" class="b"/><path d="M8.8 29.1c6-1.8 12.6-1 18.2 1.5 4.4 2 8.5 4.6 13 6.4q3.4 1.2 7 1.7c1.4.2 3 0 4.3.5C60.6 40.3 68 30 87 33c7 1 13.7 3.1 20.8 3.2q3 0 6-.6c1.5-.1 3 .9 4.4 1.3q3.3 1.2 7 2c4.5.8 9.2.4 13.8-.2q8.7-1.2 17.4-1.3c6.3 0 12.7.4 19 0 2.5 1.1 5.2 2.6 7.9 1.6" class="b"/><path d="m8.8 23.7 2.6-1.6q3.5-.3 7 0c8.8.3 15 4.4 22.5 8.2l4.3 1.7c2.3 2.3 5.3 4.5 8.7 3.8 5-.8 9.3-3.8 13.9-5.6 8.9-4 18.4-3.9 27.8-2 6.5 1.3 13.4 3 20 1 1.4-.1 2.9 1 4.3 1.6q3.7 1.9 7.8 3.4 7.7 2.5 15.6 1.4 12.4-1.7 25.2-1.7 5.2 0 10.4-.4c1.5.2 2.8 1.6 4.3 2" class="b"/><path d="M8.8 20.6c3-2.4 6.8-3 10.4-2.9a40 40 0 0 1 20.8 6q3.3 3.8 7 7c4.6 3.8 10.4.4 14.7-2.1 13-8.3 22.5-9.2 37.3-5.8 6.8 1.5 13.2 3 20 .4 7.7 4 15.2 9.9 24.3 9.2 5.8-.3 11.5-1.8 17.3-2.3 7.2-.7 14.5-.8 21.7-1.2l.9.5" class="b"/><path d="M8.8 18.1c4.1-3.3 9.6-3.9 14.8-3.7 6.6 0 11 1.9 15.6 6.7 3.7 3.5 8 9.7 13.9 7.4 4.5-1.4 8.2-4.6 12.1-7.1q6-4.2 13-5.4 10.5-1.5 20.8 1.2c9 2.3 14.2 4.5 23.5 1.3 7.5 4.3 14.8 11.9 24.3 10.3 5.5-.8 10.9-2.7 16.4-3.5a112 112 0 0 1 20-1" class="b"/><path d="M8.8 16.3a23 23 0 0 1 20.8-3.2c4 1.4 7.4 4.4 10.4 7.2 4 3.7 7.6 7 13 4 4.9-2 8.7-6 13-8.9 4-2.8 9-4.1 14-4.4 6.6-.2 13.4-.4 19.9 1.4 10.7 3.3 14.2 6.3 26 3 2 .5 3.5 2.4 5.2 3.5 3 2.3 6 4.7 9.6 6 6.8 2.2 13.5-2.2 20-3.8 7.2-2.2 15-2.4 22.5-1.6" class="b"/></svg>