<svg xmlns="http://www.w3.org/2000/svg" id="a" width="1920" height="2400" viewBox="0 0 192 240"><defs><style>.b{fill:none;stroke:#fff;stroke-miterlimit:10;stroke-width:.3px}</style></defs><path d="M0 0h192v240H0z" style="stroke-width:0"/><path d="M11.9 224.9c2.7 1.7 5.2 3.9 8.4 4.7a27 27 0 0 0 16.7.1 9 9 0 0 1 6.7.1c5.5 2.4 11.7 2.1 17.6 1.7 2.8 0 5.6.5 8.4.3q3.3-.2 6.7-.5c4.7-1 6.8-5 11.7-1.6 5.5 3.1 10.8 2 16.7 1.5q3.8.2 7.5.5c4 0 7.9.3 11.8 0q3.7-.3 7.5 0c2.8 0 5.8.2 8.4-1.2 1.9-1 3.6-2.6 5.8-3 1.7-.2 3.4.7 5 1.1q4.8 1 9.3 2.9c3 1 6.2-.3 9.2-.7 2.1-.4 4.5-.9 6.7-.5q2.1.7 4.1 1.3" class="b"/><path d="M11.9 223.1c2.7.3 5 2 7.5 3 6.6 3 11.6 2 18.4 1.2 3.2 0 6.1 1.6 9.2 2q7.2.8 14.3 0c2.7-.3 5.6.2 8.3.3 3 0 6.3.3 9.3-.5 2-.6 3.8-1.8 5.8-2 1.4-.2 2.9.5 4.2.8q3.3 1 6.7 1.5 4.5.4 9.2.1 7.5.2 15 .1c2.5 0 5.1-.5 7.6-.5 3 0 6.1.5 9.2.2 3.2-.2 6-2 9.2-2.2 2.2 0 4.5.6 6.7.6q2.6 0 5 .8c1.9.5 3.9 1.4 5.9 1 3.9-.3 7.8-1.7 11.7-1 1.6.4 3.3 1.2 5 1.1" class="b"/><path d="M11.9 222.9c4.5-1.5 8.3 2.3 12.5 3.1 4.2.7 8.4-.6 12.6-.1 2.8.3 5.6 1 8.4 1.2q5.8.5 11.7.3c2.8 0 5.5-1 8.3-.8q3 .1 6 .5l6.6.3c2.3.2 4.5-.6 6.7-1q1.6-.1 3.4.1 3 0 5.8.2c2.8.2 5.6.7 8.4.7h9.2q5.4.1 10.9-.5c4.1-.7 8.4 0 12.5 0 3.4.1 6.7-.7 10-.8l5 .2q3-.3 6-.1c2.5.2 5 1.5 7.5 1.2 3.3-.4 6.7-1 10-.9 2.2.2 4.5 1.3 6.7.8" class="b"/><path d="M11.9 222.7c4.8-2.2 8.7 1.5 13.4 1.9 2.5.2 5-.2 7.5-.1q3.4.1 6.7.5 8 .3 16 .2c4.5.3 8.8-1.8 13.3-1.9q3 .2 5.9 0 2.1.4 4.1 1.2c3 1.1 6.2.6 9.3.6 2.7-.1 5.5-.9 8.3-.8 2.5.1 5 .6 7.6.5q3.3-.2 6.7-.3c3.8.3 7.8.5 11.7-.3 4.1-.7 8.4 0 12.5.3h9.2q5.2.2 10-.4c3.5-.5 6.7 1.4 10.1 1.1q4.6-.4 9.2-.4c2.2 0 4.5.7 6.7.3" class="b"/><path d="M11.9 221.8c4.4-1.4 7.4-.4 11.7.6 2.7.5 5.6.3 8.4.5q9.2.2 18.4.1c6 0 10.3.3 15.9-2.5q3.2-1.6 6.7-2.2 2.7-.6 5 1c1.8 1.3 3.7 2.7 5.9 3.3q3.3.6 6.7.3c3-.5 6-2.4 9.2-1.5 3.3.6 6.7.2 10 0 2.8.2 5.6.8 8.4.5 2.5-.2 5-.9 7.5-.6 3.4.2 6.7 1.2 10 1.3 4.5 0 9 .3 13.5 0 2.4-.3 5-1.3 7.5-1.2 1.7 0 3.4.7 5 1.2q2 .5 4.2.4l7.5-.3c2.2 0 4.5.5 6.7.2" class="b"/><path d="M11.9 220.2c2.7-.4 5.6-1 8.4-.6 2.2.2 4.4.9 6.7 1 4.1.4 8.3 0 12.5 0q8.7.4 17.6 0 6.4-.7 11.7-4.5c6-4.2 7.3-4.3 12.6 1a11 11 0 0 0 5.8 3.2q2 .7 4.2.4c5.6-2.1 4.4-3.2 10.9-1.8 2.4.4 5 .2 7.5.2l4.2.3c3 .2 6.1-.6 9.2-.7 2 0 4 .7 5.8 1.2q3 .7 6 .8c4.6 0 9.4.3 14.1-.1 2.6-.4 5-1.9 7.6-2 3.2 0 6 2.3 9.2 2.2l7.5-.3c2.2 0 4.5.5 6.7.2" class="b"/><path d="M11.9 218c3-.2 6.1-1 9.2-.7q2.6.5 5 1.1 2.5.4 5 0c4-.5 7.9-.2 11.8.1q5 .2 10 0c2.9 0 5.6-1.1 8.4-1.9a24 24 0 0 0 9.2-4.2c6.8-6 8.5-.7 13.4 3.8 1.3 1.2 3.3 1.8 5 2.3 3.3.8 5.9-2.6 9.2-2.4 2.5.3 5 1.2 7.5 1.4l8.4.2c2.8-.2 5.6-.9 8.4-1 2.6 0 5 1.4 7.5 1.8 3.9.4 7.8 0 11.7 0 2.8-.1 5.7.4 8.4 0 2.5-.6 4.8-2.5 7.5-2.2 3.1.6 6 2.8 9.2 2.3q3.7-.5 7.6-.5 2.9.5 5.8.5" class="b"/><path d="M11.9 215.2c2.8 0 5.6-.6 8.4-.3 2.5.2 5 1.6 7.5 1.5 2-.2 3.9-1 5.8-1.1q3.9.1 7.6.8 2.5.3 5 .3c6.4 0 7.7.4 13.4-2.8 2.9-1.3 6.3-.5 9.2-1.8 2-.8 3.8-2.5 5.9-3 4.6-1.2 6.6 4.5 10 6.5 6.8 3.4 8-2.5 15-.4 4.4 1.3 9 1.2 13.5 1.1 2.7 0 5.5-.7 8.3-.8 2.9-.3 5.6 1.3 8.4 1.2 2.2 0 4.5-.5 6.7-.4q3.3-.2 6.7-.2c2.2 0 4.5.7 6.7.6 2.5-.3 4.8-2.3 7.5-1.8 2 .4 3.9 1.5 5.9 1.7 2 .3 4-.3 5.8-.5q2.6-.2 5-.2c2 .2 4 .8 6 .8" class="b"/><path d="m11.9 212.7 7.5.6c2.2.3 4.5 1 6.7.8 2.4-.3 4.4-2 6.7-2.5 3-.3 5.7 1 8.4 1.9q2.5.6 5 .6 3.4.2 6.7 0c4-.7 6.7-5 10.9-4.1 8.5 1.8 10-6.2 16.7.7 2.7 2.9 5.3 4.2 9.2 3.1 2-.5 3.9-1.5 5.9-1.4 2.5.2 5 1 7.5 1.4q3.7.3 7.6.1c3.9.2 7.8-.6 11.7-.6 2.5 0 5 1.1 7.5.9q3.8-.5 7.5-.5 3-.3 5.9-.4c2.5-.1 5 1 7.5.9 1.7-.2 3.4-1 5-1 2.3-.1 4.5 1 6.8 1 2.5 0 5-.9 7.5-.8h4.2q2.9.3 5.8.7" class="b"/><path d="M11.9 210.7c3 .3 6.1 1.2 9.2 1.3 6 .4 8.4-5.7 13.4-4.4q3 .7 5.9 2.4c2.7 1.7 6 1.9 9.2 2 7 .6 7.2-3 12.5-4.2 2.5 0 5 1 7.5.5s5.2-1.6 7.6-.3c2.2 1.2 4 3.5 6.7 4 3.7.4 7.2-1.8 10.9-1.6 3.6.4 7.2 1.5 10.8 1.4q4.6 0 9.2-.3c3.4-.1 6.8-.4 10 0q4.3.8 8.4.2c1.7-.2 3.5 0 5-.3q3.5-.5 6.8-.5 2.5.3 5 1c2 .2 4-.3 5.9-.2s3.9.4 5.8.2c2.5-.3 5-1 7.5-.8 3.6.3 7.3 0 11 .4" class="b"/><path d="M11.9 209c3 .3 6.2 1.4 9.2.3 4.1-1.4 7-6.5 11.7-5.8 1.4.4 2.8 1.2 4.2 1.6 1.8.6 3.3 2 5 2.8 3.1 1.5 6.7 1.6 10 1.9 3.8.3 6-2.1 9.3-3.2 2.4-.7 5 .3 7.5.3 3.4 0 6-.8 9.2 1.2 1.7 1 3.8 2 5.9 1.6q4.5-1 9.2-1.3c3.6 0 7.2 1 10.9 1 5.8.1 11.7-.5 17.5-.1q3.7.1 7.6.5l5.8-.3c2.5 0 5-.7 7.5-.9 2.6-.2 5.1.5 7.6 1q4.6.4 9.2 0c2-.2 3.9-.8 5.9-1 2.2-.2 4.4.4 6.7.6 2.7 0 5.5-.4 8.3-.3" class="b"/><path d="M11.9 207.4c3.8.3 7 .5 10-2.2 2.8-2.4 6-6.2 10-5 1.5.4 2.9 1.3 4.3 1.8 3 .8 5.3 3 8.3 3.9q3 .7 5.9 1.2c2.1.4 4.5.8 6.7 0 4.8-2.2 5.5-2.4 10.9-1.9 2.2.2 4.5 0 6.7.4q2.1.6 4.1 1.5c2.2.9 4.6.1 6.7-.3 4-.1 7.9-.6 11.8-.5 2.5.2 5 .8 7.5.8 3 .1 6.2-.4 9.2-.3 3.9 0 7.8.5 11.7.4q4.6.5 9.2.2c2.8 0 5.6-.9 8.4-.8q3.3.3 6.7.8 3.3.3 6.7 0c3.4-.2 6.6-2.2 10-1.4q3 .8 5.9 1c2.5 0 5-.7 7.5-.5" class="b"/><path d="M11.9 205.3c11.1.4 11.4-10 19.2-8 2.3.7 4.4 2 6.7 2.7 1.7.7 3.4 1.8 5 2.4q3 1.1 6 1.6c2.4.5 4.9 1.5 7.5 1.3s4.9-1.8 7.5-1.8q5-.3 10 .1c1.7.3 3.4 1.2 5 1.6 2 .4 4-.2 5.9-.5 2-.1 4 .2 5.9 0 2.5-.1 5-.8 7.5-.9 1.6 0 3.4.5 5 .7 4.4.6 9-.7 13.4 0l5.9.6 5.8-.2c4.2.2 8.4.7 12.6.2 5.5-.2 11.2.8 16.7 0 2-.5 3.9-1.6 5.9-1.8 2.8-.4 5.5 1.1 8.3 1.3 2.8.3 5.6-.6 8.4-.2" class="b"/><path d="M11.9 202.3c10-1 11.4-9.1 18.4-8 1.7.3 3.4 1.2 5 1.8l3.4 1.5q2.4 1.6 5 2.7c1.8.7 4 1.1 5.8 1.6 3 .8 6.2 1.9 9.3.7q4-1.4 8.3-1.3 3.4-.3 6.7.2c2.3.4 4.4 1.7 6.7 1.7q2.2-.2 4.2-.5 2.5.2 5 .2c2.9 0 5.6-1.2 8.4-1.5 2.5 0 5 .8 7.5.8 2.5.1 5-.5 7.6-.4 3 .2 6 1 9.2 1 2.5 0 5-.6 7.5-.7 2.8 0 5.6.6 8.4.9q3.3.3 6.7.1c3.8-.1 7.8.3 11.7-.2 2.6-.5 4.8-2.3 7.5-2.3 2.6 0 5 1.5 7.6 1.8 2.7.5 5.6-.1 8.3.2" class="b"/><path d="M11.9 199.1q3.9-.8 7.5-2.5c2.5-1.3 4.8-3 7.6-3.7 3.5-.8 7.5 0 10.8 1.4 2.8 1.5 5.4 3.8 8.4 5 3.2 1.1 6.7 2 10 1.5 2-.4 4-1.4 5.9-1.7 3-.5 6.2-.2 9.2 0 2.9 0 5.6 1.4 8.4 1.8 2.5.2 5-.4 7.5 0q3 0 5.9-.5 2.4-.7 5-1.2c2 0 4 .6 5.9.7q3.4.2 6.7-.2c4.4-.2 8.9 1.4 13.3.5 2.3-.5 4.5-1.7 6.7-2.1 3.4-.6 6.8.9 10 1.5l6 .6q3.2.6 6.6.7c2.7.1 5.2-1.1 7.6-2.1 3.7-1.6 6.5.4 10 1.4 3 .8 6.2.5 9.2.7" class="b"/><path d="M11.9 196.3q3.8-1 7.5-2.4c3-1.2 6-2.3 9.2-2.3l5-.1q3.2-.2 6 1.5c4 2.7 7 6.3 12.5 5.7 3.4-.2 6.7-1.7 10-2.3q3-.3 5.9.2l5.8.8c2.5.5 5 1.4 7.6 1.3h9.2c2.2-.1 4.4-.8 6.7-1q2.9.1 5.8.4 3.4.1 6.7-.2c5.3 0 11 1.6 16-1 2.1-1.2 4.1-3.2 6.6-3.8 2.6-.5 5.2.5 7.6 1.2q5 1.6 10 4c3.4 1.4 6.8-.8 10-2q3-.9 5.9 0t5.9 2c2.7.6 5.6.4 8.3.3" class="b"/><path d="M11.9 194q3.8-1.2 7.5-2.6c3.5-1.5 5.5-2 9.2-1.3 8.6 1.3 8.3-1.5 16 4.8q3.4 2.7 7.5 1 3.7-1.3 7.5-1.8 2-.5 4.2-.5c2.8.2 5.6 1 8.3 1.4 3 .5 6.2 1.4 9.3 1.5h10q4.1-.3 8.4-.1 5.4.1 10.8-.1c4.5.2 9.2.8 13.4-.7 3.3-1.3 5.2-4.8 8.4-6.2 1.6-.7 3.4-.3 5 0 3.8.3 7.1 2.6 10 4.9 2 1.6 4.2 3 6.8 1.7q2-1 4.1-1.8 3.3-.9 6.7-.3 3 .8 5.9 2 2 .6 4.2.6 2.5-.1 5-.7" class="b"/><path d="M11.9 192.2q3.5-.9 6.7-2.5c2.3-1 4.8-2.9 7.5-2.2 2.2.6 4.4 1.8 6.7 2.1 3.7.3 7 0 10 2.5 3 2.2 5 3 8.4 1.2q2-1.1 4.2-1.6 2.5-.3 5-.3 1.6-.3 3.4-.3 2.5.2 5 .8 5 .8 10 2c3.3.6 6.8.4 10 .4h19.3l8.4-.1q2.5.1 5 .1c3.5.1 6-2.3 8.4-4.6 3.2-3 5.2-2.1 9.2-2 3.7.2 6.5 3 9.2 5.1 2.4 2 4.2 1.8 6.7.2 2-1.3 4.4-1.4 6.7-1.3q3.4-.2 6.7.9c5.5 1.7 5.8 2.5 11.7.6" class="b"/><path d="M11.9 190.7c3.5-.6 6.8-2.1 10-3.6 3.8-1.8 7.2 1.5 11 2 1.8.4 3.9.2 5.8.4 4 .1 6.8 4 10.9 2 4.7-2.4 5.7-2.5 10.8-2.5l3.4-.6q3-.1 5.8.2c3 .2 5.7 1.3 8.4 2.2 3.5 1.3 7.3 1.2 10.9 1q5.8.3 11.7-.2 4.2.2 8.4.5c2.8.1 5.6-.4 8.4-.5 3-.1 6.2 1.2 9.2 0 2.7-1.4 5-4.1 8.3-4 8 .1 7.2-.5 14.3 3.9 1.8 1.2 4 .3 5.8-.7q2-1 4.2-1c3.3.2 6.8-.3 10 .6 4.9 1.4 5.7 2.7 11 .5" class="b"/><path d="M11.9 189.5c4-.4 7.8-1.8 11.7-2.3 2-.2 4 .4 5.9.8 3 .8 6.1.3 9.2.3 2.3 0 4.4 1.2 6.7 1.6 3.3.3 6-2.2 9.2-2.8q3-.4 5.9-.8c2.7-.8 5.4-2.1 8.3-2.2 5-.3 8.6 4.2 13.4 5 2.5.6 5 0 7.5-.1q4.6.2 9.3 0c4.4-.2 8.9 1 13.3.6 2.2-.2 4.5-.7 6.7-.6 2.6 0 5 1 7.6.9 2.3-.2 4.4-1.7 6.7-2.2 2.1-.4 4.5 0 6.7-.2q3.4-.2 6.7 1.2c2 .8 4.4 1.7 6.7.7 2-.9 4.3-1.9 6.7-1.8 3 0 6.2 0 9.2.8 4.2 1 6.4 2.5 10.9.4" class="b"/><path d="M11.9 187.7c3.3 0 6.7-.5 10-.6q4.2 0 8.4.2c3.6.2 7.3-1 10.9-.3 5 1.2 6.1.6 10.9-1q3.8-.9 7.5-2.4 3-1.6 5.9-3.4c9-4.5 11.1 9.6 22.6 5.8 3-.9 6.1-.5 9.2.1q7.5.9 15 1.2c3-.1 6.2-.6 9.2-.3 2.2.2 4.5.8 6.7.7l5-.8q2.2-.2 4.2 0 3.7-.3 7.6 0c2.4.3 5 1.2 7.5.5 2.2-.5 4.4-1.7 6.7-2 4.3-.9 8.4.8 12.5 1.6 2.8.7 5.8 1 8.4-.3" class="b"/><path d="M11.9 185.3c4.4.3 9 0 13.4.2h8.4q2.9-.4 5.8-.5c2.2 0 4.5.5 6.7.5q4.8-.3 9.2-2c3.6-1.5 6.2-4.6 9.2-7 2.7-2.2 5.1-1.5 7.6.6 2.5 2 4.6 4.6 7.5 6 4 2 7.1.2 10.9-1.3 2.2-.8 4.6 0 6.7 1q2.4.9 5 1.3 3.3.4 6.7.6 2.5.4 5 .5 5.4-.1 10.9.2 4.1.1 8.4 0h9.2c3-.1 6.1.3 9.2 0q3-.6 5.8-1.7c4.3-1.5 6.8-.5 11 .7q2.8.6 5.8 1t5.8-.6" class="b"/><path d="M11.9 183c5 .5 10 0 15 .1l8.4.2c2 0 4-.4 5.9-.4 5.2 0 11.3 1.6 15.9-1.6 2.5-1.9 4.4-4.7 6.7-6.8 3.2-3.2 5.6-1.5 8.4 1.2 3.3 2.8 6.9 6.7 11.7 5.8q2.3-.3 4.1-1.6c1.8-1 3.7-2.7 6-2.5q2.1.6 4 2l3.4 1.4q3.4 1 6.7 1.6t6.7.8h32.7q3.3.1 6.7-.5c2.5-.5 5-1.4 7.5-1.5 3.7.2 7.2 1.6 10.9 1.6 2.5 0 5 .9 7.5.1" class="b"/><path d="M11.9 180.8c6.4.4 12.8-.2 19.2 0 2.5 0 5 .4 7.6.2 2.4-.3 5-.8 7.5-.7 2.8.2 5.6.8 8.4.7 1.9 0 3.6-1.2 5-2.5 2-2 4-4.6 6.7-5.5 2.6-.6 4.7 1.7 6.7 3q2.4 1.6 5 2.8c3 1.1 6.4.9 9.2-.4 4-2.3 6-6.2 10.9-3.3 3.6 1.8 6.9 4.6 10.9 5.5 3 .7 6.1.4 9.2.4H129q4.1 0 8.3-.2c5.3 0 10.7.4 16 0l8.3-.7 10.9.2c2.5 0 5 1 7.5.6" class="b"/><path d="m11.9 178.6 10-.2q5.4 0 11 .2 2.8.2 5.8.2c3.7-.3 7-3.4 10.9-2 3.2.9 6.7 3.2 10 1.3 5-3 6.4-6.1 12.5-2.7 4.7 2 10.1 2.9 15.1 1.6 5.9-2.5 8.4-9 15-2.9 5.9 5.6 8.5 5 16 4.4 4.7-.2 9.5.6 14.2.3 4.2-.6 8.4-.2 12.5 0h13.4q6.8-.1 13.4-.8c2.8 0 5.6 1 8.4.8" class="b"/><path d="M11.9 176.5c2.8 0 5.6-.7 8.4-.7 3.3 0 6.7.6 10 .7q4.2.1 8.4 0c2.2-.2 4-2 5.8-3.3 2.5-1.9 4.3-1.4 6.7.2 3.8 2.2 7.3 4.6 11.7 2.3 2.7-1.4 5.4-2.3 8.4-1.5q7.1 1.4 14.2 1.4c7.5.4 10.7-9.8 16-5.4 5.8 5.4 6.4 7 15 6.3 5.3-.5 10.6.5 16 0q2.4-.2 5-.3 3.2.1 6.6.4H166q3-.5 5.9-.8c2.7.2 5.5.9 8.3.8" class="b"/><path d="M11.9 174.4c2.8.1 5.6-1 8.4-.9q3.3.3 6.7.8 3.7.2 7.5.1c6 .4 6.7-2 10.9-5.3 2.5-1.8 4.5.4 6.7 1.6 2.8 1.7 5.8 3.5 9.2 3.7 2.6.1 5-1.3 7.5-1.7 2.8-.4 5.6 0 8.4 0 4.7-.2 9.8 2.1 14.2-.3q2.3-1.4 4.2-3.4c1.5-1.6 3.6-3.5 5.9-2 3.1 2.1 5.3 5.9 9.2 6.8 3.2.8 6.7.6 10 .6q6.3 0 12.5-.2 5.2-.3 10 .2h23.5q2.6-.5 5-.7 4.2.6 8.4.7" class="b"/><path d="M11.9 172c2.8.5 5.6-.1 8.4-.2q4.1.5 8.3.4c2.8-.3 5.6-.1 8.4-.5 2.3-.4 4.2-2.1 5.9-3.6 1.1-1 2.5-2.3 4.1-2.3 2 .2 3.4 2 5 2.7 3.4 1.7 7 3.6 11 3.7 2.2-.1 4.4-1.2 6.6-1.6q2.5-.4 5-.3 2.2-.1 4.2-.1c4.5.3 9.4 2.5 13.4-.4 1.6-1 3-2.6 4.2-4 1.2-1.5 3-3 5-2.2 3 1.4 4.8 4.4 7.6 6.1 6.6 3.7 16 2 23.4 2.4l5-.1q3.8.3 7.5.2h11q4-.2 8.3 0c2.5.2 5-.6 7.5-.6q4.2.5 8.4.5" class="b"/><path d="M11.9 169.5q4.5.7 9.2.5c3.4.2 6.7-.4 10-.8 7.4-.2 6.7-.4 12.6-4.4 2.5-1.5 4.6-.5 6.7 1.1 3.7 2.3 8 4.3 12.5 4 2.8-.3 5.6-1.3 8.4-1.2 3.9.2 7.9-.3 11.7.3 2.5.3 5.2.5 7.6-.3 5.4-1.7 7.3-11.2 13.4-7.5 2 1.3 3.8 3.2 5.8 4.5q3.6 2.1 7.5 3.2c2.8.7 5.6.6 8.4.6l9.2.2 8.4.3H165q3.3-.2 6.7-.6c2.7 0 5.5.5 8.3.4" class="b"/><path d="M11.9 167.3q5.5.7 10.9.3c2.5-.2 5-1 7.5-1.2q2.5-.2 5-.1c2.8-.1 5.1-1.9 7.6-3 2.6-1.2 5.2-.3 7.5 1.3 6.8 4.3 9.4 3.2 16.7 2.5q3.4 0 6.7.3h7.6c3.3 0 6.8.5 10-.7 5.4-2 8.2-11.9 15-8.3q3 1.8 6 3.7 2.7 2.1 5.8 3.6c2.8 1.3 6.1 1.2 9.2 1.3 3 0 6.1.5 9.2.6q5.9.4 11.7 0 8.4.3 16.8.2 3.7 0 7.5-.4 3.8-.1 7.5.2" class="b"/><path d="M11.9 165.4q5.5.4 10.9 0c2.5-.2 5-1 7.5-1.3 2-.3 4 0 5.9-.2q3-.6 5.8-1.9c2.5-1 5.3-.8 7.6.5 7.2 4.5 8.2 2.8 15.9 2.5 2.4 0 5 .5 7.5.5q6.3.1 12.5 0c2.9 0 6 .2 8.4-1.5 4.7-3 8.4-12.5 15-8.5 4.4 2 7.2 6.5 11.8 8.1 2.6 1 5.6.8 8.4 1q5.3 1 10.8 1 4.6-.1 9.2-.4 6.3.5 12.6.4h8.4q5-.7 10-.2" class="b"/><path d="M11.9 163.4q6.3-.1 12.5 0c2.3-.2 4.5-.8 6.7-1 2.2-.4 4.6-.2 6.7-.7 2.5-.5 5-1.6 7.6-1.7 4.2-.3 7.4 3.7 11.7 3.4 2.2-.1 4.5-.6 6.7-.5 2.8 0 5.6.5 8.4.5q5-.1 10-.1c3 0 6.2.3 9.2 0 5.2-.8 7.9-7 11.7-10.2 2.5-2.1 5-1.6 7.6 0 4 2.2 6.3 6.7 10.8 8.1 3.3 1.1 6.8.7 10 1.6 4.8 1.1 9.6.3 14.3 0q2.5-.3 5-.2 4.2.7 8.4.7l5.9-.2c1.9 0 3.9.4 5.8.3q4.6-.6 9.2-.1" class="b"/><path d="M11.9 160.7q3.8-.4 7.5-.3c2.5 0 5 .7 7.6.8 2.2 0 4.4-.6 6.7-.7q4.5-.2 9.2-1.2 3.4-.7 6.7.2 2.4 1 5 1.6 3 .3 5.8-.2 3.4 0 6.7.2c5.6.4 11.2-.5 16.8-.2 9.3.6 10 1 15.9-6.7 4.3-5.5 6.3-6.6 12.5-2.8 5.7 4.5 7.1 7.3 15 8.2l6 1.4c4.7.6 9.5-.5 14.2-.8 3.6-.5 7.2 1 10.9.8q3.3 0 6.7-.2 2.5.1 5 .4c3.3 0 6.7-.3 10 0" class="b"/><path d="M11.9 157.3c3-.6 6-2 9.2-1.3 3.8 1 6.6 3.5 10.9 3q4.1-.3 8.4-.5c3-.1 6.1-.4 9.2 0q5 .8 10 .3 4.6.1 9.2.1c4.7.2 9.5-.3 14.2 0 7 .2 10.7 1 15.1-5.3 2.2-2.8 5-7.7 9.2-6l5.9 2.6c2.7 1.6 5.3 3.6 8.3 4.8l5.9 2.2q2.4 1 5 1.6c5 .6 10.1-.3 15-.8q3-.3 6 .4 2.8.5 5.8.5l7.5-.2c4.5.2 9 .6 13.4 0" class="b"/><path d="M11.9 153.2c1.7-.9 3.3-2.2 5-3 4.4-2.1 7.8 2.6 10.9 4.9 3.3 2.5 7.8 1.5 11.7 1.7q9.6 0 19.3-.2 9.6.4 19.2 0c4.7 0 9.6.7 14.2-.7 5.9-1.5 8-11.6 13.4-10.1 1.8.6 3.3 2 5 2.6q3.5.7 6.7 2.2 3.4 1.3 6.7 2.7c4.4 2.3 6.6 3.8 11.8 3.4q4.1 0 8.3-.2c2.8-.3 5.6-.7 8.4-.3 5.3.8 10.6.5 16 .3 3.8 0 7.9.5 11.6-.9" class="b"/><path d="M11.9 148.4c2.4-1.8 4.7-6.5 8.4-5 3.8 2.1 5.8 6.6 9.2 9.3 1.9 1.5 4.4 1.6 6.7 1.5 3.6 0 7.2-.8 10.9 0 3.8.5 7.8.1 11.7.2q9.6.4 19.2 0c2.8 0 5.6.4 8.4-.1 3.2-.4 6.6-.7 9.2-2.8 4.3-3.3 6.1-10.7 12.6-5.6q1.2.8 2.5 1.4l3.3.5q3.8 1.2 7.5 2.7c7 2.7 5.6 4.5 14.3 4h9.2q5-.4 10-.2 8 .6 16-.3c3 0 6.3-.2 9.1-1.7" class="b"/><path d="M11.9 144c2-2 4.2-7.4 7.5-6.3 2.6 1.4 4 4.3 5.9 6.5 1.7 2.2 3.2 5 5.8 6.3q2.5 1 5 .6c2 0 4-.6 6-.8 3.1-.3 6 1.8 9.1 1.8 3.6.2 7.3-.2 11 .2 4.6-.1 9.4.1 14.1-.3 2.3-.1 4.5.4 6.7.3 2.8-.2 5.6-1 8.4-1.3 7-1.2 8.5-9 13.4-8.3 2.1.5 3.8 2.3 5.9 3q1.6.3 3.3.6 3.4 1.4 6.7 2.9l6.7 2.6c2.1.8 4.5.5 6.7.5H145q5.4 0 10.9-.2c4.4.1 9 .5 13.4-.2q3-.5 5.8-.6 2.7-.4 5-1.6" class="b"/><path d="M11.9 141c2.8-3.5 5.5-10 10-4 1.3 1.6 3 3.4 4.2 5.1 2 2.8 4.5 6.4 8.4 6.1l4.2-.3q2-.6 4.1-.4c1.8.3 3.4 1.3 5 1.9 3 1 6.2.6 9.3.7q4.5 0 9.2-.2 3.8-.1 7.5-.1c3-.4 6.2.4 9.2.3q2.2-.2 4.2-.8l4.2-.9q3.3-.7 5.8-3c1.6-1.3 3.2-3 5-4 2.8-1.2 5.3 1.2 7.6 2.4 1.3.6 2.9.6 4.2 1.2q2.5 1.2 5 2.5 2.4 1.1 5 1.6 2 .7 4.2 1 3 .1 5.9-.1 4.1.2 8.3 0 4.2.1 8.4.1 3.3-.2 6.7-.2a84 84 0 0 0 22.6-1.6" class="b"/><path d="M11.9 139.8c5.1-6.6 6.3-9 13.4-2.7 2.7 2.7 4.9 7.2 9.2 7.4 7.8.1 6.2-1 13.4 2.7 2.9 1 6.1.7 9.2.7 4.2.1 8.3-1.1 12.5-.9l6.7.4c2 .2 4 .7 5.9.5 2-.3 3.9-1.3 5.9-1.8 3.1-.7 6.5-1.3 9.2-3.2 4-2.7 6.2-5.2 10.9-1.8q2.2 1.5 5 2.1 2.4 1.2 5 2.4 3.1 1.4 6.7 1.7 4.1.8 8.4.6 5.8 0 11.7-.2 6.7.2 13.4.2c7.2 0 14.6.2 21.7-1.1" class="b"/><path d="M11.9 139.8c2.9-3.2 6.2-7.1 10.9-6.8 3-.2 4.7 2 6.7 4 1.4 1.3 3 2.8 5 3.2 2.2.4 4.6.3 6.7 1.1 2.9 1.2 5.2 3.7 8.4 4.2 2.4.5 5 0 7.5-.3 3.3-.4 6.7-1.2 10-1.1q3.8.1 7.6 1c2.4.5 5 1 7.5.1 1.7-.6 3.3-2 5-2.6 2.1-1 4.5-1 6.7-1.6q2.6-.7 5-1.8c1.3-.6 2.8-1.5 4.2-1.8 2.6-.5 4.7 1.6 6.7 2.9 1.8 1 4 1.5 5.9 2.5a28 28 0 0 0 8.3 2q4.6.8 9.2.8c5.6.2 11.2-.5 16.8-.6l8.4.6 10 .1c4 .1 7.8-.7 11.7-1" class="b"/><path d="M11.9 140q5-3.8 10-7.4c4.1-3.1 5.7-1.8 9.2 1q1.9 1.6 4.2 2.3 2.3.3 4.2 1.3c3.4 1.9 5.9 5.8 10 6.2 3 .5 5.7-.9 8.4-1.7q3-.9 5.9-.8 3.8.2 7.5 1.3c3 .9 6.3 2 9.2.6 2.5-1.1 4.3-3.5 6.7-4.9 2.6-1.4 5.6-1 8.4-1.2q2.1-.2 4.2-.8 1.6-.8 3.3-1.2c2.7-.3 4.7 2 6.7 3.4s4.5 2 6.7 2.9c2.4.8 5 .9 7.5 1.2l11 1q4.6.3 9.1-.3c3-.5 6.1-1.3 9.2-1q5.4.8 11 1c2.1.2 4.4.8 6.6.6 3.1-.3 6-1.7 9.2-1.7" class="b"/><path d="M11.9 139.6c3.2-1.7 6.6-3.3 9.2-5.8 5.4-5.2 6-5.6 12.6-2l4.1 1.2c4.8 2.7 6.8 9.7 13.4 8.1 3.8-.8 6.9-4 10.9-3.5 2.9.2 5.7 1.4 8.4 2.4 2.3.9 5 1.8 7.5 1 4.5-1.4 6.4-6.8 10.9-8.1 3.8-.8 8 1.2 11.7-.4 4.6-2.2 6.6 1.1 10 3.4 2.7 1.2 5.5 2.6 8.4 3l5.9.7q3 .2 5.8.5a44 44 0 0 0 11.8.8c2-.2 3.9-1 5.8-1.6 4.5-1.3 7.3-.7 11.7.5q2.5.5 5 .9c1.7.3 3.4.8 5 .6 3.6-.6 6.4-3.6 10.1-3.4" class="b"/><path d="M11.9 138.3q3.9-1.3 7.5-3.2c2.4-1.4 4.4-3.5 6.7-5 3.2-1.8 6.8 0 10 .6 2.6.4 4.3 2.7 6 4.6 5 6.4 9 3.4 15 .3q3.6-1.6 7.5-.4c4 1.1 7.5 4.3 11.7 3.8 6.1-1 8.3-9.4 14.3-9 3 .3 6.1 1.5 9.2.7 1.6-.5 3.3-1.5 5-1.3 2.8.3 4.8 2.8 7.5 3.5 2 .7 3.9 2 5.9 2.6q5.3 1.4 10.9 2c4.9 1 10.2 2 15 .4 2.7-1.1 5.4-2.6 8.4-2.6s5.6 1.7 8.4 2.5q2 .5 4.1.8c2 .5 4 .8 5.9 0 3.2-1.5 5.5-5 9.2-5" class="b"/><path d="M11.9 136.5c4-1.2 8.3-2.2 11.7-4.7 2-1.3 4.2-2.9 6.7-3 3.6-.1 7.5 1 10 3.7 3 3 5.7 5.3 10 4 2.8-.6 5.1-2.2 7.6-3.3 5-2.3 9.1-.6 13.4 2.2 5.8 4 9.4-.8 13.4-4.6 1.8-1.9 4.1-3 6.7-2.1 2.5.7 5 2 7.5 1.9 1.5-.2 3-1 4.2-1.6 3-1.6 5.3-1 8.4-.6 3.4.1 6 2.8 9.2 4 5.4 2 10.9 4.6 16.7 4.3 3.7.1 6.4-1.5 9.2-3.7a9 9 0 0 1 9.3-.5c2.6 1.5 5.2 3.5 8.3 4 2.6.6 5.4.7 7.6-1 2.9-1.8 5-5.2 8.3-6.2" class="b"/><path d="M11.9 134.4c4-1 8.2-2 11.7-4.3 2.1-1 4.3-2.6 6.7-2.8 4.5 0 8.2 3 11.7 5.4 3.2 2 7.3 2.5 11 1.4 2.3-.8 4.4-2.2 6.6-3.2 3.2-1.4 7-2.3 10-.1 2.4 1.4 4.6 4.1 7.6 3.8 3.3-.5 5.6-3.3 8.4-5 3.3-2.5 6.6-.8 10 .5a8 8 0 0 0 7.5-.8c3.4-2 6.9-4.5 10.9-4.5 3.5.7 6.2 3.5 9.2 5.2 2.4 1.4 4.8 3.1 7.5 4q4.7 1.2 9.3.2c3-1 4.9-4.2 7.5-6a8 8 0 0 1 8.4.5c2 1.4 3.7 3.2 5.8 4.5 3 1.7 7 2.1 10 0 3.3-1.8 5.3-5.4 8.4-7.4" class="b"/><path d="M11.9 132.2q4-.7 7.5-2.6c3.4-1.8 7.7-5.7 11.7-4.5 3.6 1.4 6.6 4 10 5.5q3.3 1.3 6.8 1.6 3.4.6 6.7-.2c2-.6 4-2 5.8-3l3.4-1.4c2.2-1.3 4.6-1.7 6.7 0s3.9 4.2 6.7 4.8c4.5.5 8.1-3.4 12.5-3.5 4.9 0 8.5 2.8 13.4.4 3-1.4 5.5-3.9 8.4-5.4 1.7-1.3 3.9-2 5.9-1 3.6 2 6.5 5.4 10 7.5 2.5 1.6 5.5 2 8.4 2 6.3.5 7.5-4.8 11.7-7.9 10.5-4.3 10.9 8.1 20 8 5.9-.2 8.8-5.6 12.6-9" class="b"/><path d="M11.9 130q4.2-1 7.5-3.5c2.8-2.3 6-5.5 10-4.9 2 .5 3.5 2 5 3.1q2.9 2.1 6 3.5 3.6 1.4 7.5 1.5c2.2.3 4.5.8 6.7.4 3-.5 5.6-2.3 8.3-3.5 2.3-1.3 5-3.7 7.6-2 1.5 1 2.8 2.6 4.1 3.7 3.3 3 7.9 1.8 11.8 1.2a29 29 0 0 1 6.7-.8c2.5 0 5 .5 7.5.1 3.4-.4 6.5-2.2 9.2-4 1.9-1.2 3.6-3 5.9-3.3 4.8 0 8.4 7.3 15 8.3q2.5.4 5 .4 2.8 0 5-1.2c4.5-3.4 4.6-6.5 11-7.4 7.2-.9 8 8.8 15.9 8.6 6 0 8.6-4.9 12.5-8.5" class="b"/><path d="M11.9 127.5c5.4-1 7.9-4.9 11.7-8.1 4.3-2.6 6.8-.8 10 2.2q5 4.6 11.8 5.5c3.6.3 7.2 1.5 10.9.7q2.1-.6 4.1-1.5 1.8-.6 3.4-1.5c3.5-2.5 5.6-3.7 9.2-.4 1.6 1.5 3.6 2.9 5.9 3.3 6 1 12.3-.2 18.4-.5 16.8-.4 14.7-9.8 25-2.1 3.2 2.3 7.2 3 11 2.9 2.2 0 4.5.1 6.6-.7 3.2-1.2 5.3-4.3 8.4-5.6 3.2-1.6 6.1-3 9.2-.2 1.8 1.4 3.2 3.4 5 4.8a10 10 0 0 0 9.3 1c3.4-1.3 5.4-4.8 8.3-7" class="b"/><path d="M11.9 125.1c4.6-.8 7.7-4.3 10.9-7.4 4.6-3.6 7.3-1.5 10.9 2q2.8 2.7 6.7 4 3.1.8 6.7 1.1c2.2.4 4.4 1 6.7 1a23 23 0 0 0 9.2-2c4.2-2.3 6.2-4.8 10.8-1.2q3 2.3 6.7 2.7 5.2.3 10 .5c2.9.2 5.7-.2 8.5-.4a53 53 0 0 0 10-1.5c2.2-.4 4.4-1.5 6.7-1.4 3 .3 5.5 2 8.4 2.8q2.8.7 5.8.6 3.7 0 7.6-.3c5.9-.6 9.9-5.7 15-8.2 4.3-1.7 7.1 3.3 10 5.5q2.7 2 6 2.8c5.4 1 7.6-3.6 11.6-5.9" class="b"/><path d="M11.9 123c5.1-1 7.8-3.7 11.7-6.7 7.7-4.5 8.7 3.7 16.7 5.3q3.4.7 6.7 1a37 37 0 0 0 9.3 1q3.4-.1 6.7-1.1 2.1-1 4.1-2.2c6.3-3 7.4 3.7 18.5 2.5 2.5-.2 5 .3 7.5.7q3 .3 5.8 0c5.4.1 10.6-1.4 16-1.4 2.8.1 5.5 1.2 8.3 1.5 2.2.2 4.5-.2 6.7-.1 6.7.5 12.3 0 17.6-4.5 2.8-2.6 6-7 10-4l5 4.1 4.2 2.9a7 7 0 0 0 8.4.5c1.6-1 3.1-2.6 5-3" class="b"/><path d="M11.9 121q4.4-.5 8.4-2.7c1.8-1 3.7-2.4 5.8-3.1 4-1.8 6.8 1.5 10 3.2q4.6 1.8 9.3 2.2 4.5.8 9.2.8c3 0 6.2.3 9.2-.7 2-.6 3.8-1.8 5.9-2.1 3.2-.5 6.1 1.2 9.2 1.9 3.3.7 6.7-.2 10-.3 2.2 0 4.5.6 6.7.9q3 .4 5.9.3c4.4 0 8.9-1 13.4-.6 2.7.2 5.5.7 8.3.6 2 0 4-.6 5.9-.7s4 .6 5.8.7c5.3.3 11-1.2 14.3-5.6 2.7-3.3 5.1-5.3 9.2-2.5q3 1.7 5.8 3.4c1.8 1.1 3.3 2.8 5 3.8 2 1.3 4.7 1.1 6.8 0 1.2-.6 2.7-1.5 4.1-1.6" class="b"/><path d="M11.9 119.1q3.8 0 7.5-1.2c4-1.4 8.3-5.1 12.6-3.2 1.6.7 3.3 1.9 5 2.5q7.3 2.1 15 2h6.8c2.5 0 5 .2 7.5-.6q4.1-1.2 8.4-.7 2.9.6 5.8.9c3.4.2 6.7-1 10-1 3.4 0 6.7 1.1 10 1.3 4 .4 8-.3 11.8-.1 3.3 0 6.7.4 10 .1 2 0 4-.8 6-1.1 2.5-.4 5 1 7.4 1.1 4.7.3 10.2.1 13.4-3.7 2.8-2.9 5.2-4.8 9.2-3 1.6.6 3.5.8 5 1.5 2.2.9 4 2.7 6 4 1.8 1.2 4.4 1.7 6.6 1q2-.6 4.2-.8" class="b"/><path d="M11.9 117q3.8 0 7.5-.8c4-1.2 8.3-3.6 12.6-2 2.4 1 4.9 2 7.5 2.2q6.7.7 13.4.5c2.2 0 4.5-.4 6.7-.3 2 0 4 .5 5.9.4q4-.3 8.3-.5 3.7.2 7.6.2c2.8 0 5.6-.7 8.3-1q3.4-.3 6.7.5c5.8 1.2 11.7.7 17.6.8q4.6 0 9.2-.2c2.2-.3 4.4-1.2 6.7-1 1.7 0 3.4.6 5 .9q2.5.4 5 .3c3.5 0 7.3.1 10-2.2 2.5-1.8 5.3-3.4 8.5-3.1q2 0 4.1.2 1.8.2 3.4 1.2c6.2 4 6.8 4.2 14.2 3.6" class="b"/><path d="M11.9 114.8q3.3.1 6.7-.4c3-.6 6.1-1.3 9.2-1.2 2.8 0 5.6 1 8.4 1.4 4.4.4 9 0 13.4 0 3.6.1 7.2-.6 10.8-.5q3.7.5 7.6.7l10-.1q4.2 0 8.4-.5 3.4-.6 6.7-.5c2.5 0 5 .8 7.5 1q3.3.1 6.7.1l15-.2c2.8-.1 5.7-1 8.4-.7q6 .8 11.8.9c5 .3 7.1-.1 11.7-2.6 13.3-6 13.3 3.5 26 2.6" class="b"/><path d="M11.9 112.6c4.5.2 9-.6 13.4-.4q4.2.3 8.4.4 3.7-.2 7.5-.1c4.4.3 9-.4 13.4-.5 3-.2 6.1-.6 9.2-.2 3.9.2 7.8.8 11.7.8q8-.2 15.9-.8c2.8-.2 5.6.5 8.4.8q2.5-.1 5-.1h4.2l5.8-.2h6.7c3.6-.2 7.3-.7 11-.4 3.2.3 6.6.1 10 .3 3.3.2 6.7.8 10-.2 2-.6 4-1.7 5.8-2.4q5.9-2 11.8.2l5 2q2.5.7 5 .7" class="b"/><path d="M11.9 110.3q8.4.2 16.7 0c3.1-.1 6.2-1 9.2-1.2 2.6 0 5 1.2 7.6 1.3q3-.1 5.8-.4a69 69 0 0 0 8.4-.9q3.8-.3 7.5-.1c3.4.4 6.7 1.2 10 1.4 3.4 0 6.8-.4 10.1-.3q4.6-.3 9.2.1c2.8.5 5.6-.3 8.4-.2 1.6.1 3.4.5 5 .4 2.5-.1 5-.6 7.5-.7h5q2.2-.3 4.2-.4c3.6 0 7.3.3 11 0 4.4-.2 8.8 1 13.3 1 3 .2 5.7-1 8.4-2 3.8-.7 7.8-2.1 11.7-1.3 1.8.4 3.4 1.6 5 2.2q2 .8 4.2.9" class="b"/><path d="M11.9 107.7c2.5 0 5 .4 7.5.3q4.2 0 8.4-.7 3-.3 5.8-1c2.2-.5 4.6-1 6.7 0 4.7 1.8 7.6 2.3 12.6 1.6q3.4-.6 6.7-1.7 3-.4 5.9-.5 3.3.1 6.7 1.1l5 1q3.4.6 6.7.3l7.5-.1 6.7.2c2 0 4-.7 5.9-.7 2.5.1 5 1 7.5.6 3.3-.3 6.7-1 10-1.2q2.6-.5 5-.7 3.5.1 6.8.1c1.9 0 3.9-.5 5.8-.3 3.7.5 7.2 1.6 10.9 1.9 3.6.7 7.3-.2 10.9-.8q3-.6 5.8-1.6c2.2-.8 4.7-1.2 6.7 0a15 15 0 0 0 6.7 2.5" class="b"/><path d="M11.9 105.2c2.8-.3 5.6.3 8.4.2q3.8-.1 7.5-.8l5-.8c1.6-.3 3.4-.8 5-.6 2.6.2 5 1.4 7.6 2q4.6 1.5 9.2 0c1.7-.5 3.3-1.5 5-2.1q3-.5 5.9-.5c3.1 0 6 1.3 9.2 1.8 1.9.5 3.8 1.4 5.8 1.5q8.4.1 16.8.1c2.4 0 5-.6 7.5-.5 2.7.2 5.6.7 8.4.4 4.2-.3 8.3-1.3 12.5-2q3.8-.5 7.5-1.2c3.3-.9 5.2-1.4 8.4.2q3.2 1.7 6.7 2.3a37 37 0 0 0 18.4-1c2.4-1 5.2-1.5 7.6-.2a14 14 0 0 0 5.8 2" class="b"/><path d="M11.9 103c5.3-.6 10.6.7 15.9-.3q3.8-.5 7.5-1.4c4-.3 7.9 1.4 11.7 2.2 3.2.8 6.5-.2 9.3-1.9q1.6-.9 3.3-1.6 3-.5 5.9-.2c2.8.2 5.5 1.3 8.3 1.6 1.5.1 2.9.8 4.2 1.3q2.5 1 5 1 7.1 0 14.3 0 4.2-.3 8.3-.4c3.6 0 7.3.5 11 .5q3.7-.3 7.4-1c2.6-.4 5.3-.8 7.6-2 2.4-1 4.7-3.4 7.5-2.6 2.1.7 4 2.2 5.9 3.2q2.7 1.3 5.8 1.6 3.3.5 6.7.8 4.3-.1 8.4-1c2.4-.6 5-1.1 7.5-.6 2.2.6 4.4 1.6 6.7 1.6" class="b"/><path d="M11.9 101.2c2.2-.1 4.5-.5 6.7-.4 3 .2 6.1.6 9.2.3q3.8-.3 7.5-1.4c3.7 0 7.3 1.2 11 1.7 3.2.7 6.3-.9 9.1-2.3 5-3 9.9-1.5 15-.2 1.7.4 3.5.2 5.1.4 2.5.8 5 1.9 7.5 2 3 .3 6.2-.4 9.2-.5l6.7.3q6 0 11.8-.6c2.5 0 5 .7 7.5 1q4.2.2 8.4-.3c7.5-.3 8.8-8 15-4.8 2 1 3.8 2.4 5.9 3q2.5.4 5 .9t5 1c4 .6 7.8-.7 11.7-.6q2.6 0 5 .2c2 .2 4 .7 6 .6" class="b"/><path d="m11.9 99.3 6.7-.3c2.5 0 5 .4 7.5.3q2.6 0 5-.3c1.7-.2 3.4-.8 5-.8 4.7.3 9.7 2.2 14.3.3 3.4-1.6 7-3.1 10.9-2.7 2.8-.3 5.6 1 8.3 1.5 2 .5 4 .3 5.9.2 2.8.4 5.6 1.3 8.4 1.2 2.8.1 5.5-1.3 8.3-1.5q2.6.2 5 .8 3.4.4 6.8.3 3-.2 5.8-1.2 3-.7 5.9.3t5.8 1.7q4.3.5 8.4 0c2.6-.3 4.6-2.3 6.7-3.7 3.4-2.2 6.7-.6 10 .6 2 .6 4 .4 6 1 1.9.5 3.8 1.6 5.8 2 3 .7 6.1-.1 9.2 0 4.2 0 8.4.4 12.5.3" class="b"/><path d="m11.9 97.1 6.7-.1q5 .2 10 .1c3 .2 6.2-.6 9.2-.3 3.4.2 6.8.6 10 0 2.6-.6 5-1.6 7.6-2l5-.2q3-.2 5.9.6t5.9 1q2 0 4.1-.1c2.5.1 5 .4 7.6 0 3.4-.2 6.5-3 10-2.4q2.1.5 4.2 1l3.3.4q4.5.4 8.4-1.7c2.1-1.2 4.7-.7 6.7.5q2.4 1.4 5 2.3 2.5.6 5 .7c3.5.4 6.2.6 9.3-1.4q5-3 10.8-2.1c2 .1 4-.3 5.9.3 2.9.8 5.3 3 8.4 3.3 2.7.3 5.6 0 8.3 0 3.6 0 7.3.3 11 0" class="b"/><path d="M11.9 94.8q4.6.1 9.2.1 3.8-.2 7.5-.2 7.5.4 15 .1c3.4-.2 6.8-.9 10.1-1.1q5-.6 10-.3c2 .3 4 1 6 1.2q3.2.3 6.6 0c3.1 0 6.3-.1 9.2-1.2 2.6-.7 4.9-2.6 7.6-2.7q2.1 0 4.2.6 1.7.3 3.3.4 4 .8 7.5-1.2c7.6-5.2 8.7.7 15 3q4.3 1 8.5 1.4c2.2.2 4.5-.4 6.7-1q5-1.2 10-2.7c5.8-2 8.3 2 13.4 3.2q4.1.7 8.4.5 5 .1 10-.8" class="b"/><path d="M11.9 92.3q3.3.6 6.7.4 3-.5 5.8-.8c4.2-.1 8.4.4 12.6.7 3.6.2 7.3-.2 10.9-.3 4.4.3 9-.1 13.4-.3 2.5 0 5 .6 7.5.7h10a23 23 0 0 0 9.3-1.8c2-1 4.2-2.4 6.7-2.4q4.1.2 8.3.6c3.6.3 6.2-2.5 9.2-4 4.4-2.5 7 1.8 10 4.2a23 23 0 0 0 6 2.5c4.5 1.1 9.5 1.2 14.2.4 2.3-.5 4.5-1.8 6.7-2.8a8 8 0 0 1 7.5 0c7.5 4 15.5 3.3 23.4 1.4" class="b"/><path d="M11.9 89.6c4.2 1.5 6 .8 10-.3 2.5-.5 5-.2 7.6-.4q3-.2 5.8.2 2.1.6 4.2.9l7.5.3q6 .4 11.8.2h7.5q4.5-.2 9.2-.3c3.3 0 6.7.7 10 .1 2.7-.2 5.1-1.7 7.6-2.8a15 15 0 0 1 8.3-.6q3 .7 5.9-.5 3-1.6 5.9-3.8c3.5-3.3 5.4-2.3 8.3 1q3 3.2 6.7 5.2c2.9 1.3 6.2 1.3 9.2 1.6 7.8.3 6.7.3 13.4-3 2.5-1.2 5.2-.4 7.5.5 4.3 1.3 9 2.2 13.4 1.6 2.9-.4 5.6-1.7 8.4-2" class="b"/><path d="M11.9 87.2c4.3 2 6 .7 10-.5 1.4-.3 2.9-.1 4.2-.2q3-.5 5.9-1.1c3-.7 4 .1 6.7 1.4q2.8 1 5.8 1.2l4.2.3c2-.2 4-.8 5.9-.6q5 .6 10 .3l13.4-.5c4.2.1 8.5 1.8 12.6 0 2.4-1 4.8-2.4 7.5-2.6 2-.2 4 .6 5.8.8 3.1.4 6-1.2 8.4-3 2.9-2.7 5.2-8.1 9.2-3.6l3.4 3.3c1.4 1.6 3 3.4 5 4.2 1.8.7 4 .7 5.9 1q2 .2 4.1.2 2.2.4 4.2.5c2.5 0 4.5-1.6 6.7-2.5 2.4-1.1 5.1-.4 7.5.3 4.4 1 9 1.7 13.4 1 2.8-.5 5.5-2.1 8.4-2.2" class="b"/><path d="M11.9 85.3c3.6 1.7 6.5.1 10-.5 1.7-.2 3.4 0 5-.4 2.6-.6 5-2 7.6-2.1 1.9 0 3.3 1.5 5 2.2Q43.1 86 47 86c2.6 0 5-1.8 7.6-1.6q2.9.2 5.8.7L68 85l5.8-.1q3-.5 5.9-.2c3.5.6 7.2 2.1 10.9 1 3.2-1 6.5-2.7 10-2.1q2.5.6 5 .7c2.4 0 4.8-1 6.7-2.2 3.2-2.5 5.5-8.3 10-4.2 1.9 1.2 3.4 3 5 4.4 2.6 2.3 6.1 2.5 9.3 3l4.2.4c1.6.2 3.3.6 5 .2s3.3-1.4 5-2c2.2-.8 4.6-.3 6.7.3q6.6 1.7 13.4 1c3-.3 6-1.8 9.2-1.7" class="b"/><path d="M11.9 83.5c2.4.8 5 .2 7.5-.2 2.2-.4 4.5-.3 6.7-.6 3.3-.5 6.7-2.5 10-1.5 3.6 1.8 7.7 3.1 11.8 2.5 1.4-.2 2.8-1 4.2-1.5 2.7-1.2 5.6-.2 8.3.4q4.6.3 9.2 0c3.4-.2 6.8-1 10-.6l5.1 1.5q2.5.6 5 .3c3.3-.6 6.7-1.4 10-1.6 2.3-.1 4.5.2 6.8 0q3.4 0 6.7-1.5c3.7-2.4 5.4-4.6 10-2.3 2 .9 3.8 2.4 5.9 3.2 2 .9 4.4 1.2 6.7 1.7q4.1.6 8.3.5c2 0 4-1 5.9-1.6a14 14 0 0 1 7.5.2 41 41 0 0 0 12.6.9c3.3-.3 6.6-1.5 10-1.4" class="b"/><path d="M11.9 81.4c2.7.7 5.6-.2 8.4-.3q2.5 0 5-.3c2.2-.3 4.4-.9 6.7-1q2.5-.2 5 .6 2.5.7 5 1c9.4 1.5 9.5-3.2 16-1.5q2.3.9 5 1c5.3.7 10.5-1.4 15.8-1.2 2 .1 4 1 5.9 1.6 2.7.7 5.6.2 8.4 0q4.6 0 9.2-.9 4.1-.3 8.4-.4c2.2 0 4.5-.9 6.7-1.5q2.5-.5 5 0 5.4 1 10.9 2.2a25 25 0 0 0 9.2.9c3.6-.2 7.2-1.9 10.8-1.8 4.5 0 9 1.4 13.4 1.3s9-1.5 13.4-1.3" class="b"/><path d="M11.9 79.2c3 .6 6.2-.2 9.2-.1 3.6 0 7.3-1 10.9-.8q3.4.4 6.7 1c3.3 0 6.7.3 10 0 2.5-.3 5-1.7 7.6-1.4q2 .4 4.1 1 2.2.4 4.2.4c4.8.3 9.5-1 14.2-1.5 2.6 0 5 1.2 7.6 1.5 3 .3 6.1 0 9.2 0 4 .3 7.8-1.3 11.7-1.2 2.2 0 4.5.5 6.7.3 3.3-.2 6.7-.8 10-.4 2.8 0 5.7-.2 8.4.3 1.7.2 3.4.9 5 1.1q2.2.2 4.2-.2 8.3-1.7 16.8-2c2.5.2 5 1.2 7.5 1.2 2.8.2 5.6-.5 8.4-.9q2.9-.1 5.8 0" class="b"/><path d="M11.9 77c2.2.5 4.5.1 6.7 0h5.8q2.6-.3 5-.4 3.9.2 7.6.6h8.4q2.5 0 5-.2 2.5-.6 5-.7c2 0 4 .8 5.9.9H73c2.8 0 5.6-1.1 8.4-1.1 2 0 3.9.8 5.8 1q3 .2 5.9.2 3.4 0 6.7-.2c2-.2 3.9-.9 5.8-1 2.6 0 5 .7 7.6.7 3 .1 6.1-.5 9.2-.5 3 .2 6.1-.4 9.2-.3 4.5.5 6 2.2 10.9.5 4.3-1.2 9-.9 13.4-1.9q2-.5 4.1-.3 3 .8 5.9 1.2c2.8.2 5.6-.6 8.4-1q3 .1 5.8.7" class="b"/><path d="M11.9 75c2.2.2 4.5-.2 6.7-.2h9.2c3.6 0 7.3.4 10.9.2q6.3.1 12.5-.2 3.7-.2 7.6.2 3 .1 5.8-.4c3.6-.6 7.3.2 10.9.4 2.5.2 5-.6 7.5-.6q2.6.2 5 .5 5.1.3 10 0c2.6 0 5.1-.9 7.6-.9 1.7 0 3.4.5 5 .7q3 .4 5.9 0 3-.2 5.9-.5 4.1.2 8.3-.1c3.4-.2 6.7 1.6 10 .6q2.6-.9 5-1.5c3.4-.5 6.9-.7 10.1-1.5q2.1-.5 4.2-.3c2.2.5 4.4 1.2 6.7 1.3 2.5.3 5-.2 7.5-.4q3 .1 5.9.5" class="b"/><path d="M11.9 72.8c2.2 0 4.5-.5 6.7-.5l7.5.3c5 .5 10 0 15 .1 5.4 0 10.7.3 16 0 2.5-.2 5-1 7.5-1.4 4.8-1.2 9.5.8 14.2 1.5q3 .1 5.9-.1 5.9.4 11.7 0c2.8 0 5.6-1.2 8.4-1.4 3 .1 6 1.6 9.2 1.4q3.8-.1 7.5-.5 4.6.2 9.2.2c3.4-.2 6.8 1 10 .1 2-.5 4-1.5 6-2q2-.7 4.1-1c3.3-.7 6.8-1.3 10-.4q4.6 1.5 9.3 1.8 5-.2 10-.4" class="b"/><path d="M11.9 70.6c2.2 0 4.5-1 6.7-.9 2.8.1 5.6.7 8.4.9q3.3.1 6.7-.2h11.7q3 .2 5.8.2 3.5-.3 6.7-1.5c2.7-1 5.5-2 8.4-2 5.5.2 10.5 2.7 16 3.3 6.4.4 13.2.4 19.2-2.3a7 7 0 0 1 5.8-.2c5.3 2.8 7.6 2.6 13.4 2.4q6.6.3 13.4.3c3 0 6.3 0 9.2-1.2 2-.8 3.8-2 5.9-2.3 2.7-.8 5.6-1.3 8.3-.5a61 61 0 0 0 14.3 2.8c2.8.2 5.6-.6 8.3-1.3" class="b"/><path d="M11.9 68.4c2 0 4-.8 5.9-1 2.7 0 5.5 1 8.3 1 2.2.2 4.5-.5 6.7-.6q2.6 0 5 .3h5.9c4.3.1 6.9 1 10.9-1.4 2.8-1.7 5.9-3.2 9.2-3.5 3.2 0 6.1 1.7 9.2 2.4 2.4.7 5 .7 7.5 1.1q4.6 1 9.2.8 3.7 0 6.7-1.7l5-3q3.5-2.6 6.8 0c4.1 3.8 6.8 5.3 12.5 5.4 4.2.4 8.4 0 12.6 0 3-.2 6.2-.2 9.2-1q2.6-.8 5-2c2.7-.8 5.7-1.5 8.4-.3 1.6.6 3.3 1.5 5 1.8q3.3.6 6.7.7 3.3.4 6.7.3 3-.4 5.8-1.8" class="b"/><path d="M11.9 66.2c2.2.2 4.5-.5 6.7-.4 2.7.1 5.6.7 8.4.3q2.4-.6 5-1c2 0 4 .5 5.8.7q5.1 0 10 .4c3.7.5 6.4-2.5 9.3-4.2 1.5-1 3.4-1.3 5-1.9 2-.6 4 .3 5.9 1q2.8 1.3 5.8 2.1c2.2.6 4.5 0 6.7 0q3 .2 5.9.7c6.8 1 9.4-2.1 14.2-6.2 4-4 5.9-3.3 9.2 1 2.2 2.4 4.4 5.3 7.6 6.6 3.4 1.3 7.3 1 10.8.5 4.2-.8 8.4-.7 12.6-1 2.3 0 4.5-1 6.7-1.5q3-.5 5.9 0 2.4.9 5 2c2.9 1 6.1.6 9.2.6q3.8.1 7.5-.2 2.7-.5 5-1.5" class="b"/><path d="M11.9 63.5c2.2.6 4.5.5 6.7.5q3 0 5.8-.2c3.4-.4 6.7-1.3 10-.7 2.8.5 5.7.3 8.5.4q2.9.2 5.8.5c3.3 0 5.7-2.6 8.4-4 1.5-.8 3.4-1 5-1.6q2.5-.4 5 .5l5 1.5q2.5.9 5 .3 2.6-.6 5-.9c6 .2 9 2.4 14.3-2.1l5.9-5c3.5-3 6.2.4 8.3 3 2.1 2.4 4 5.2 6.7 6.8 6 3.3 13 .3 19.3-.6 2.2-.3 4.5-.1 6.7-.2 2.2 0 4.5-.3 6.7 0 2.6.2 5 1.4 7.5 2 2.2.5 4.5.2 6.7.3 5.3 0 10.9.6 16-1.4" class="b"/><path d="M11.9 60.2c5.9 2.5 12.3.4 18.4.6q3.3.2 6.7.2 3-.2 5.9-.2c3 0 6.2 1.8 9.2.5 2.2-.9 4.3-2.4 6.7-3.1q2.9-.7 5.8-.7l9.2 1c2.6.5 5-1.1 7.6-1.5 2.8-.5 5.5.7 8.3.7 3.8.2 7-2.3 10-4.1 1.6-1 3.3-2 5.1-2 2.7-.2 4.8 1.9 6.7 3.6 2.5 2.3 5 5 8.4 6 5.2 1.3 11 .4 15.9-1.8 3.3-1.7 6.6-.6 10 .1q3 .7 5.9 1c1.9.5 3.9 1.3 5.8 1.3 2.3 0 4.5-1.1 6.7-1 5.3.3 10.8 2 16 .2" class="b"/><path d="M11.9 57.2c4 1.6 8.4 1 12.5 1 2.8 0 5.6.6 8.4.3 7-.7 7.9-2.4 15 .5 5 2 8.6-2 13.5-2.1 3.3-.3 6.7-.2 10-.9 1.6-.3 3.4.1 5-.2 2.7-.8 5.6-1.5 8.4-.6C95 58 97.3 52 106.5 53.8c3.3.5 6.2 2.4 9.2 4q3.1 1.5 6.7 1.7 4.1.3 8.3-.2 2.3-.5 4.2-1.6c1.7-1.1 3.7-2.5 5.9-2s4.4 2.1 6.7 2.7c2.6.5 5.7 1 8.3 1.2 2.5 0 4.5-1.7 6.7-2.5 2.5-.8 5.2.2 7.6 1 3.2.9 6.7 2 10 1.2" class="b"/><path d="M11.9 55c4.3 1.4 9-.4 13.4.2 3.5.8 6.6 1.2 10-.4 1.6-.7 3.3-1.6 5-1.7 2.5-.1 4.7 1.5 6.7 2.6q2.8 1.6 5.9 1.7c2.3 0 4.5-1.1 6.7-1.5 2.2-.2 4.5 0 6.7-.4s4.5-1.5 6.7-2c2.5-.1 5-.8 7.5-.6 1.7.2 3.4 1 5 1.3q3 .6 6 .4c3.2-.2 6.6-1.4 10-.6q4.5 1 9.2 1.6l6.7 1.4q3.7.5 7.5.3 3.4.1 6.7-.2c2.5-.3 4.4-2.3 6.7-3.3 2-.9 4.1.6 5.9 1.6q2.2 1.5 5 1.7c3 .1 6.4.9 9.2-.8 2.3-1.3 4.6-3.8 7.5-3.2 1.8.3 3.5 1.3 5 2 3 1.2 6 2.5 9.2 2.2" class="b"/><path d="M11.9 53.2c4 1.1 7.8-1.2 11.7-1.3q2.6.2 5 .7c3.4.6 6.3-1.6 9.2-2.9 2.3-1 4.8-.2 6.7 1.2 3 2.2 6.4 4.2 10 4.3 2.6 0 5.1-.7 7.6-.6q3.4.1 6.7-.8c1.7-.5 3.3-1.5 5-1.8 2.2-.3 4.5-.8 6.7-.3 2 .4 4 1.3 5.9 1.6 4.2.5 8.4-1.2 12.5-.7 2.3.4 4.5 1.3 6.7 1.6q6.3.8 12.6 1 3 0 5.8-.3l6 .2q2 0 4-.8c1.7-.6 3.3-1.9 5.1-2s3.5 1 5 1.8q2.4 1.2 5 1c6.3.2 7.6 0 12.6-4 3.4-2.7 7 .5 10 2.1q4 1.8 8.4 2" class="b"/><path d="M11.9 51.3c4 .5 7.8-1.3 11.7-1.7 1.6-.4 3.4-.1 5 0 3.3.3 6.3-1.4 9.2-2.5 2.7-1 5.4.2 7.6 1.6 4 2.5 8.6 4.4 13.4 4.3q5 .1 10-.2 2.2-.4 4.2-1 2.5-.7 5-.8c2.2-.1 4.5.5 6.7.9 3.4.6 6.8-.4 10-1.2q3.5-.6 6.7 1 3 1 5.9 1.2c6.4.4 12.9-.7 19.3 0q3.3 0 6.7-.3c1.9-.4 3.8-1.2 5.8-1.3 2 0 4 1 5.9 1.4q3 .4 5.8.1c3 0 6.1-1 8.4-3 1.2-1 2.6-2.2 4.2-2.7 5.2-.6 6.2 5.8 16.7 5.8" class="b"/><path d="M11.9 49.3q5.9-.5 11.7-1.6c2.4-.8 5-.7 7.5-.9l4.2-.5q3-1 5.9-.7c2.3.2 4.5 1.2 6.7 2 2.8.7 5.5 1.7 8.4 2.2 3.5.6 7.3 0 10.8.6 4.8 1 9.5-.7 14.3-.3q4.1.5 8.3-.2c2.5-.4 5-1.5 7.6-1.2 1.7.2 3.3 1.1 5 1.6 2.1.7 4.5.4 6.7.1l5.8-.4q5.2 0 10 .6 4.3.2 8.4 0 5.2-.7 10 0 5.7.5 11-1a18 18 0 0 0 5-3c1.9-1.4 4.3-3 6.7-1.7 1.8 1 3.3 2.6 5 3.7a17 17 0 0 0 9.2 2.1" class="b"/><path d="M11.9 47.4c3.6-.7 7.3-.7 10.9-1.2 2-.4 3.8-1.6 5.8-1.6q3.4-.2 6.7.3l4.2-.2c3.4 0 6.7.9 10 1 2.8 0 5.6.5 8.4.5 2.5 0 5-.4 7.6 0q2.6.6 5 1.7c2.6 1 5.6.6 8.3.4q4.3 0 8.4-.2c2.8-.2 5.6-1.2 8.4-1 2.3 0 4.4 1.2 6.7 1.4 3.3.3 6-2.2 9.2-2.4 4-.4 7.8 1.6 11.7 2.2q4.6.4 9.2.2h7.6c5 .2 10.3 0 15-2.2 2.3-1 4.4-2.6 6.7-3.5 3.3-1.4 6 1.7 8.4 3.5 2.8 2.3 6.6 2.3 10 2.3" class="b"/><path d="M11.9 45.7q3-.7 5.9-.9 2.5 0 5-.4c2-.5 3.7-1.9 5.8-2 2.3-.2 4.6.5 6.7 1 1.4.3 2.9 0 4.2.1l5.9.5c6.2 0 12.2-2.3 18.4-2.3 1.8 0 3.5 1 5 2 4.2 3.2 7.6 2.8 12.6 2.4 3.9 0 7.8-1 11.7-1 3.3 0 6.7 2 10 .7 3.4-1.3 6-5.8 10-4.6 5.9 1.9 7 5.6 14.3 5.1q9.6.2 19.2-.6c5.1-1 10.1-2.7 15-4.1 3.4-1 6 1.6 8.5 3.2 2.9 2 6.7 1.5 10 1.5" class="b"/><path d="m11.9 44 10.9-1.6c2.2-.6 4.3-2 6.7-2 2.3 0 4.4 1 6.7 1.2 3.3-.2 6.7.7 10 .6 2.3 0 4.5-1 6.7-1.7A33 33 0 0 1 63 38c2.7-.2 4.9 1.6 6.8 3.2 3.2 3 6.6 3.1 10.8 2.5 3-.2 6.2-.9 9.2-1 2.6 0 5 .8 7.6 1.2a8 8 0 0 0 6.7-1.8c2.9-2.3 5.7-7.3 10-5 3.6 1.7 6 5.6 10 6.7q3.4.4 6.8.2 4.1-.1 8.3-.8c3-.5 6.2-.5 9.2-1.3 3.3-1 6.8-.6 10-.9 4.3-.5 6.3-1.1 10.1 1.5q1.9 1.3 4.2 1.5 3.7-.2 7.5-.2" class="b"/><path d="M11.9 42c3.6 0 7.3-.7 10.9-1.2 2.2-.5 4.4-1.5 6.7-1.6q3-.2 5.8.3h4.2c2.8.2 5.7.8 8.4 0 2-.6 3.9-2 5.8-2.7 3.2-1.6 6.7-1.3 10-1.1 6.9.8 8.1 8.3 16.8 5.7q3.8-1.1 7.5-1.3c2 .1 4 .8 6 1.3 7.5 1.8 9.8-.9 15-5.7 1.5-1.5 4-1.6 5.8-.8 3.3 1.4 5.3 4.6 8.4 6.2 2.6 1.3 5.6.7 8.4.4q5.4-.6 10.9-2 3.7-.7 7.5-1.2c2.7 0 5.6.5 8.3.5q2.6-.1 5 .1c4.4.8 6 4 11 2.7q2.8-.5 5.8-.2" class="b"/><path d="M11.9 39.6c3.6.3 7.3-.3 10.9-.6q3.3-.5 6.7-1 4.5-.4 9.2-.7c2.2-.1 4.5.2 6.7 0 4.8-.4 7.3-6 12.5-4.8 1.4.2 2.8 1 4.2 1.1q3 .1 5.9 1.3c3.2 1.6 6 5.2 10 4.8 3.3-.8 6.5-2.9 10-2.2 2.5.7 5 1.8 7.6 2 2.7.3 5.7.4 8.4-.5 2.5-.8 4.4-2.8 6.7-4 2-.8 4.6-1.3 6.7 0 4.6 3 6.3 6.2 12.5 4 4-1.5 8.5-1 12.6-2.4a19 19 0 0 1 7.5-1.1q4.5.4 9.2.1c7.8-.2 8.5 5.4 15 3.8q3-.6 6-.5" class="b"/><path d="M11.9 37.3q3.8.4 7.5 0 5 0 10-.6c4.2-.4 8.4-1.3 12.6-1.4 6-.2 6.4-1.7 10.9-4.8 3.5-2.2 6 .5 9.2 1.6q3 .6 5.9 1.4 3 1.4 5.8 3c5.6 3.2 7.4-3 14.3-1q2.4 1.2 5 1.6 6.3.8 12.5.2c3.7-.7 7-3.5 10.9-3.2 2.2.3 4 1.9 5.9 2.8 4.2 2 6.8-1.6 10.8-2.2 2-.1 4 .2 5.9 0 2 0 4-.8 5.9-1.3 2.7-.9 5.6 0 8.3-.4 5.1-.7 6.6-2 11.8.8 7.1 5.1 6.8 3.7 15 2.7" class="b"/><path d="M11.9 35q4.1.5 8.4.2l8.3-.2c3.4 0 6.8-.6 10-1 2.5-.3 5.2-.2 7.6-.8 4-.5 6.5-5.7 10.9-4.5 1.7.5 3.3 1.8 5 2.4q3 .8 5.9 1.7c2.7.8 5.4 2.6 8.3 2.4 2-.2 3.9-1.6 5.9-1.9 4-.7 7.7 2 11.7 1.9h12.6c2.2 0 4.5-.7 6.7-1.3 1.8-.6 4-.9 5.8-.1 1.6.6 3.3 1.4 5 1.5 2.6.2 4.6-1.7 6.7-2.8s4.5-.4 6.7-.2c3.2.6 6.2-1 9.2-1.5q2.2-.2 4.2 0 3-.1 5.9-1.2 1.7-.6 3.3-.5 2.7.6 5 1.9c6 4 7.7 5.4 15.1 3.3" class="b"/><path d="M11.9 32.5c3.6 1 7.3.5 10.9.4 4.4-.1 9 .1 13.4-.2 4.4-.7 9 .4 13.4-1.1 1.9-.8 3.7-2 5.8-2.4s4 .5 5.9 1.2l8.3 2.2q3.4.9 6.7 0c1.7-.6 3.3-1.4 5-1.5 4.3 0 8.3 2.1 12.6 2q8 .1 16-.1c2.4-.2 5-1.1 7.4-1.1 3.9.4 7.1 2.3 11 .2 5-3 6.3-1.7 11.6-2 2.6-.3 5-1.4 7.6-1.7 2.7 0 5.6.2 8.3-.4a13 13 0 0 1 4.2-.3q2.6.7 5 1.5c5.2 2.5 9 5.2 15.1 3.2" class="b"/><path d="M11.9 30c4.3 1.5 9 .6 13.4.6q4.5 0 9.2.2h10.9q3 .1 5.8-.4c2-.3 4-.9 5.9-.9 4.2.2 8.3 1.5 12.5 1.4a19 19 0 0 0 5-.8c2-.6 4-1.3 6-1.2q2.4.4 5 1l5 .7c3.5.4 7.2.2 10.8.3q5.1 0 10-.2c2.3-.1 4.5-.8 6.8-.7 7.3.8 7.7 1.7 15-1 2.2-.7 4.5-.7 6.7-1.2q3.7-1 7.6-1.7c2.2-.3 4.5.2 6.7.2 2.5.1 5-.1 7.5.7 3.7.7 7.2 2.1 10.9 3 2.4.7 5 1.2 7.5.4" class="b"/><path d="M11.9 27.8c4.5 1.6 9.5.6 14.2.5l6.7.3h26q8 .6 15.9-1.6c4-1.2 7.8.8 11.7 1.2l9.2.5q3.7-.1 7.5 0l8.4-.1c2.5-.2 5-.7 7.5-.7 5 .1 10.2 1.7 15 0q3.6-1 6.8-2.3 3.6-1.5 7.5-2 2.6-.3 5 .5l5.9.8c4.8.9 9.4 2.6 14.2 3.1 2.2.3 4.5.9 6.7.6" class="b"/><path d="M11.9 25.8q3.3.9 6.7.6l7.5-.1q3.3-.1 6.7.2 5-.4 10-.4c6-.1 11.8.3 17.6.1 4.8-.3 9.5-1.6 14.3-2.4 3.2-.2 6 1.6 9.2 2.1 2.4.5 5 .3 7.5.4 3 .3 6.2 0 9.2-.1 3.4 0 6.7.4 10 .2 3.7-.2 7.3-.8 11-.6q3.2-.1 6.6.1c2.5.4 5.1.9 7.6.2 2.7-.6 5-2.3 7.5-3.6q3.1-1.6 6.7-1.8 2.6.4 5 1.2l5 1c2.6.6 5 1.8 7.6 2.4q3.2.7 6.7.6 3 .2 5.8.5" class="b"/><path d="M11.9 23.7c1.8.7 4 .5 5.9.6h6.7q4.1-.1 8.3-.1 4.6-.7 9.2-.6l10-.1q4.3 0 8.4-.4c4-.7 7.8-2.2 11.8-2.7q3-.5 5.8 1.2a17 17 0 0 0 6.7 2.5q4.2.2 8.4.2c2.5 0 5-.7 7.5-.7 3.9.3 7.8.9 11.7.6q5.2-.5 10-.5c2 0 4-.5 6-.4 2.7 0 5.5 1.4 8.3.8 2.6-.4 4.7-2.2 6.7-3.7 2-1.3 4.3-2.4 6.7-2.4 1.7.2 3.4 1 5 1.4q3 .7 5.9 1.5c2.2.8 4.3 2.1 6.7 2.6 4.1.9 8.4-.1 12.5.4" class="b"/><path d="M11.9 21.3c2 1 4.5.7 6.7.7h10c3.1.2 6.2-.5 9.2-.7 3.7-.2 7.3.3 11 0 4.4-.8 9-.6 13.3-2 5-2 10.3-5.3 15-1 3.8 3.3 6 4 11 3.7q3.4 0 6.6-.2c2-.1 4-.6 5.9-.4 7 1 14 .7 21 .3 3.3-.1 6.7-1.4 10-.5 2.4.7 5 1.3 7.5.3 1.8-.8 3.4-2.2 5-3.2q2.6-1.7 5.9-2c3.7.4 7.4 1.8 10.9 3 2 1 4.3 2.2 6.7 2.4 4.1.6 8.3-.2 12.5-.2" class="b"/><path d="M11.9 18.9c3.4 1.4 7.3.8 10.9.9 3.9 0 7.8.2 11.7-.4 5-.8 10.1.4 15-.6 3.9-1 8-1 11.8-2 3.3-1.3 6.1-4.9 10-4.1 5.4 1.2 7.3 7.4 13.4 7.1q4.6 0 9.2-.2c2.2 0 4.5-.4 6.7-.2 2.2 0 4.5.5 6.7.4q5-.2 10 0 3.8 0 7.6-.6c2.1-.5 4.5-1 6.7-.2 7.2 2.4 9-1 15-3q4.7-1.6 9.2 0c2.9 1 5.5 2.7 8.4 3.5q3.3.4 6.7.3 4.6 0 9.2-.3" class="b"/><path d="M11.9 16.5c3.4 1.5 7.2 1 10.9 1q3.7.1 7.5 0c3.3 0 6.7-.6 10-.4q3.8.1 7.6 0 2-.4 4.2-1c3-.5 6.2-.4 9.2-1.4 2.9-1.1 5-4.5 8.3-4.3 5.2 1 7.9 7.2 13.4 7.2q3.3 0 6.7-.1 5-.1 10-.1l6.8.2q2.5-.2 5-.5c3-.5 6.1.4 9.2.5 2.8 0 5.6-1 8.4-1 1.6.1 3.3.8 5 1 4.4.4 8.3-2.3 12.5-3.2 3-.7 6.3-1.5 9.2 0 4 2 6.2 3.7 11 3.2 4.4-.2 8.9.2 13.3 0" class="b"/><path d="M11.9 14.5q2.4.7 5 .9l5.9-.2q3.7.2 7.5.2c3.3 0 6.7-.4 10-.3q3.8.2 7.6-.1l4.2-.9c2.7-.5 5.6-.4 8.3-1 3.1-.6 5.1-4 8.4-4 4.4.7 7.2 5.6 11.7 6.1 3.3.5 6.7 0 10 .1q4.6 0 9.3 0 3.7.2 7.5 0c3-.4 6-2 9.2-1.3 1.6.4 3.3 1.2 5 1.4 2.2.2 4.5-.3 6.7-.5 2 0 4 .5 5.9.5 3.1-.1 6.2-1.3 9.2-2.2a66 66 0 0 1 8.4-1.4c3.4-.1 6 2.8 9.2 3.5 2.2.4 4.5-.3 6.7-.3l5.8.2h6.7" class="b"/><path d="M11.9 12.8c4.1.8 8.4 0 12.5.2q7.1.4 14.3 0c3.3 0 6.7.3 10-.2q3-.8 5.9-1.1 3.4-.1 6.7-.7c2.7-.9 5.3-3.7 8.3-2.6 2.9 1.2 5.4 3.4 8.4 4.3 2.4.7 5 .5 7.5.5H94c4.5-.1 9 .2 13.4-.2 3.3-.5 6.6-3 10-2l4.2 1.7c2.4.7 5 .5 7.6.4 1.9 0 3.9.3 5.8 0 3.2-.3 6.2-1.5 9.2-2.3q2.1-.4 4.2-.6 3-.6 5.9.4c6.3 3.1 5.4 3 12.5 2 2.2-.3 4.5 0 6.7 0s4.5-.4 6.7-.2" class="b"/></svg>