<svg xmlns="http://www.w3.org/2000/svg" id="a" width="1920" height="2400" viewBox="0 0 192 240"><defs><style>.b{fill:none;stroke:#fff;stroke-miterlimit:10;stroke-width:.3px}</style></defs><path d="M0 0h192v240H0z" style="stroke-width:0"/><path d="m10.3 226.8 1.7-1c5 3 8.6.9 12.8-2.3 3.5-2.7 7-5.7 11-7.6 3-.1 6.3 2.3 8.6 4 3.6 2.5 6.6 6.4 11 7.4 3.3.3 6-1.8 8.6-3.4q3.6-2.7 7.7-4.4c9-3.5 15.6 1.1 23 5.8 5.2 3.1 8.5 2.2 13.7-.3q3.3 1 6.8 1.6c2.8.5 5.7 1 8.5.6 4.1-.6 8-2.3 12-3.2q6-1.5 12 0c4.7 1.2 9.3 4.1 14.4 3 6.6 1.1 13-1.6 19.6-1.4" class="b"/><path d="M10.3 223.8c1.1-.1 2.3-.8 3.4-1 5.9 3.6 11-3 15.3-6.3l3.4-2.6H35c6.4.9 11 5.8 16.2 8.9 8.4 4.9 13.3-8.4 23.9-10.4 9.5-2 15.3 3 22.2 8.6 4.3 3.4 7 3.6 12 1.5q3.3.7 6.7 1 3.8.7 7.7.2c4-.6 8-2.2 12-3.1q6-1.5 11.9-.1c3.8.8 7.3 2.6 11 3.3q1.8.2 3.5 0 2.6.2 5.1 0c4.8-.2 9.7-.8 14.5-.3" class="b"/><path d="M10.3 220.5q2.2-.1 4.2-.8c2.2 1.3 4.8.9 6.9-.4s4-3.2 6-4.8L29 213q1.7-.4 3.4-.5c7-.3 12.1 4.2 18 7.2 4 2 7.3-.1 10.2-3 3.6-3.3 7-7.5 12-9.2 2 .1 4 .9 6 1.4q7.3 2.4 14.4 5.8 3.9 1.6 7.7 3 1.2 1.1 2.5 1.9a7 7 0 0 0 6 .4c1.4-.3 3 .2 4.3.2 10.1 1 12.9-.6 22.2-3.2 4.1-1 8.7-1.4 12.8 0q3.7 1.3 7.6 2.3 2.5.8 5.2 1.2l11.9-.1q4.3.1 8.5 0" class="b"/><path d="M10.3 217q2.2.2 4.2-.3c.8 0 1.8.4 2.6.4q1.8 0 3.4-.9 2.8-1.6 5.1-3.7 3.3-1.2 6.8-1.4c9.5-.6 15.5 7 21.4 5.9 5.7-1.7 8.8-8.5 13.6-12 8.8 2.1 17 6.6 25.6 9q4.5 1.5 9.4 2.2 3 .2 6 1c3.6-.4 7.4 0 11-.1 5.6-.2 10.9-2.4 16.3-3.8 2.7-.6 5.7-1.4 8.5-.8 6.7 2 13.4 4.6 20.5 4.6 5.6-.1 11.5.7 17-1" class="b"/><path d="M10.3 213.7q2.1 0 4.2-.2 1.3.3 2.6.2 2.8-.6 5.1-2.2 2.1-.8 4.3-1.3c14.7-4.3 20.8 6.2 28.1 2.8 4-2.2 6.3-6.4 9.4-9.6 6 2.3 11.8 5.2 18 7a72 72 0 0 0 18.7 3.1c6.5.2 13.1.5 19.6 0 4.4-.5 8.6-2 12.8-3.3a44 44 0 0 1 7.7-1.8c2.6.4 5.1 1.5 7.7 2.2q9 3.2 18.7 3.1c5 0 10.3 0 14.5-2.8" class="b"/><path d="M10.3 210.3q3 .1 6-.1c4.5-1.1 9-2.5 13.6-3.2 11.5-2 17.9 5.3 23.9 2.7 3.4-1.3 5.1-4.8 7.7-7.2 15.5 8 21.3 8 38.3 7.8l11.1-.1c2.3.3 4.6-.2 6.9-.2 4.6-.4 9.2-1.8 13.6-3.2q3.3-1.1 6.8-1.9 2.2.2 4.3.8l6.8 2.1a49 49 0 0 0 15.3 2.4q4 .2 7.7-.2a16 16 0 0 0 5.1-1.6q2.2-.4 4.3-.6" class="b"/><path d="M10.3 207c6.6.1 13-2 19.6-3q5.2-.7 10.2.3c8 1.7 12.7 5.9 18.8-2.3q1.4.1 2.6.9l4.2 1.9c7 3 14.1 2.1 21.4 1.5q7.2-.6 14.5-.2l10.2.3q1.2.5 2.6.5 1.6-.2 3.4-.8 4.7-.4 9.3-2c9.6-2.8 8-3.5 18-.5a61 61 0 0 0 23 3.3q2.2.2 4.2 0c3.1-.6 6.3-1.4 9.4-1.2" class="b"/><path d="M10.3 203.5c7.2 0 14.2-2.3 21.3-3.1q5.3-.6 10.2.6c5.3 1.2 10.9 5 15.4.1l.8-.1c9.2 4.4 14.7 2 24 .3 6.1-1.1 12.5-.8 18.7 0q5.6.7 11 1c1 .6 2.3 1.3 3.5 1.3 2 0 4-1.2 6-2q2.5-.4 5-1.1 3.5-1 6.9-2 3 0 6 .7c5.4 1.3 10.6 3.5 16.2 4 6 .6 12 .3 17.9.3 2.8-.4 5.7-.9 8.5-.7" class="b"/><path d="M10.3 200c7.5-.1 14.7-2.8 22.2-3.8q5.2-.7 10.2.6c3.5.8 6.7 2.8 10.2 3.3q1.9.1 3.5-.7c.8-.4 1.7.1 2.5.3q2.2.5 4.3.5c3.8-.2 7.5-1.7 11-2.8q6-2.1 12-2.6c6-.3 12 1.1 18 2.3q3.7.9 7.6 1.1c1 .7 2.2 1.6 3.4 1.9 3 .4 5.8-1.5 8.5-2.5q5-2 10.3-1.8c6.4.4 12.3 3.5 18.7 4.2 3.4.3 6.9 0 10.3 0q3.8 0 7.7.2c3.7 0 7.3-1.2 11-.8" class="b"/><path d="M10.3 196.5q6.5-.5 12.8-2.5c6.3-1.9 13-4.2 19.6-2.5 3.6 1 6.9 3 10.2 4.5q2 1 4.3.6a18 18 0 0 0 9.4-1.3c10.5-4.5 17.3-7.2 29-4.6 5.4 1.1 10.7 3 16.2 3.5q3.2 3.7 7.7 2c2.8-1 5.5-2.3 8.5-2.8a25 25 0 0 1 11 .8c12.3 3.6 12 2.7 24 1.4 2.4.7 5 1.4 7.6 1.1 1.4-.3 3 .3 4.3 0q1.8-.6 3.4-1.5l3.4.1" class="b"/><path d="M10.3 193c5.3-.2 10.5-2.1 15.3-4.3q3-1.3 6-2.3c1.3-.4 2.9-1 4.3-.6 5 1.2 9.7 3.7 14.5 5.7 5.2 2.2 10 2.6 15.3.3 10.5-4.6 17.2-7.9 29-5.5 5.4 1 10.7 3 16.2 3.7 1.3 1 2.6 2.7 4.3 3.2s3.5 0 5.1-.7q3-1.2 6-1.9 4.6-1 9.4.2c9 2.2 11.8 4 21.3.8 5.1 1.7 9.2 2.7 14.5.5 1.1-.2 2.3.7 3.4 1 2.5.9 5-.5 6.8-2.2" class="b"/><path d="M10.3 189.7q5.8-.4 11-3.1c4-2 7.8-4.5 12-5.9 7.9 1.7 14.4 7.1 22.2 9 2 .5 4 .1 6 .3q4.7-1.7 9.3-4.1c15.1-7.9 23-4.8 38.4-1.2 6.2 9 8.8 4 17 2.4q4.8-.7 9.5.6c4.4 1.1 9 3 13.6 2 1.4-.3 2.9-1 4.3-1.1 7.6 2.5 10.9 1.4 17.9-1.8 3.2 1.8 6.5 4.8 10.2 2" class="b"/><path d="M10.3 186.5c9-.3 15.3-6.9 23-10.6 8 1.8 14.2 8.1 22.2 10.1q2 .6 4.3.6c1 0 2.3-.4 3.4-.4 2 1.2 3.8-1 5-2.4 14.1-8.5 21.7-9.5 37.6-5.7 3 2.9 5.2 9 10.3 8.4 2.6-.5 5-2 7.6-2.7q5.2-1.5 10.3 0c4.2 1 8.3 3.1 12.8 2.7 1.4 0 2.8-.7 4.2-.8 7.2 2.3 12.6-.4 18.8-4 3.9 1.4 7.4 6.7 12 4.2" class="b"/><path d="M10.3 183.2c8.1 0 13.4-4.6 19.6-9.1q2-1.6 4.3-2.7 1.3.1 2.5.7c7.1 3 12.8 9 20.5 10.7q2.5.6 5.1.2c1.1-.1 2.3-1 3.4-.7 4.2 3.3 6.8-4 9.4-6.2q3.6-2.2 7.7-3.6a38 38 0 0 1 17-1.2q1.6 0 2.6 1.2c3.4 2.9 7.3 10.7 12 10.7 2.7-.3 5-2.1 7.6-3a17 17 0 0 1 11.1-.5c6 1.7 9.6 4.4 16.2 3.2 6.6 1.6 12.5-2.5 18-5.5q3.1.7 6 2.8c2.3 1.8 5.4 4.2 8.4 2.3" class="b"/><path d="M10.3 179.8c12.5.8 16-7.3 25.6-12.7 7.2 2.6 12.3 9 19.6 11.5 4.3 1.8 8 1.6 12-1 .8.4 1.6 1.4 2.5 1.9 1.9 1 3.8-.5 5.1-1.8 2.8-2.8 5.2-6.2 8.5-8.4 3.8-2.5 8.7-3 12.8-1.5 7 2.1 11.8 12.4 17 12 3.2-.7 5.7-3 8.6-4 9.6-3.7 15.4 3.2 23.9 4h4.3q4.1-.6 7.6-2.8c1.7-.8 3.3-2.3 5.2-2.6 9.3-1.6 12.4 8.6 18.7 4.3" class="b"/><path d="M10.3 176.2c7.8.7 11.8.1 17.9-5.3 3-2.5 5.8-5.7 9.4-7.5 4.7 2 8.5 5.9 12.8 8.7q4.3 3 9.3 4.1c2.4.6 4.8-.2 6.9-1.4 1-.6 2.2-1.7 3.4-2 3 3.6 5.4 5 9.4 1.7 4.9-4.1 10-8.8 17-6.8 4.6 1.3 8 5 12 7.5 7 4.7 9.9-7.1 22.1-4.4 3.7.8 7 2.6 10.3 4.3 5.5 2.8 10.9.7 16.2-1.6 3.2-1.3 6.8-2.2 10.2-1.4 5.6 1 9 7.4 14.5 2.4" class="b"/><path d="M10.3 172.2c4 0 8 1.3 12 .6 7.2-1.5 10.8-9.2 17-12.6 4 2 7.4 5.5 11 8.2a31 31 0 0 0 7.8 3.9c5.4 2.4 9.7-1.5 13.6-5 2.2 2.8 5.3 6.8 9.4 5.4 5.5-2 9.7-6.1 16.2-4.8 3.7.7 6.8 3 10.2 4.4 8 3.7 10.3-9.3 24-5.5 1.2.4 2.2 1.7 3.3 2.4 2 1.5 4.3 3 6.8 3.6 1.4.4 3 .1 4.3 0q1.6.3 3.4.2c3-.3 5.7-1.5 8.5-2.4 3-1 6.3-1.5 9.4-.7 6.3 1.5 8.7 6.1 14.5-.1" class="b"/><path d="M10.3 167.6c4-.3 8 1 12 1.8 8.6 1.9 12.7-7.9 18.7-12 5 3.2 8.8 8.3 14.5 10.4 2.4 1 5 2.3 7.7 1.6 2.6-.6 4.8-2.5 6.8-4.3 1-.8 2-2.3 3.4-2.7 2.9 3.3 6.2 7.6 11 7.2 2.4-.2 4.7-1.1 7-1.7q4.1-1.2 8.4-.4c4.2.6 8.7 3.6 12.8 1.2 1.8-1.1 3.4-2.7 5.2-3.8a15 15 0 0 1 8.5-3c1.7 0 3 .2 4.2 1.5 3.7 3.3 8.4 8 13.7 5.5 1.4 0 2.9.7 4.3.7 3.1.2 6.3-.8 9.3-1.6q3.8-1 7.7-.6c8.3 1.4 9.4 5.4 16.2-2.7" class="b"/><path d="M10.3 162.4c3.7-.9 7.6-.2 11 1.2q3.4 1.5 6.9 2.5c6.5 1 10.2-7.3 14.5-11 4.1 3.4 7.7 7.8 12.8 9.6 2.1.9 4.5 1.9 6.8 1.4 5-1.2 8.2-5.8 12-8.9 4 4 8.2 9.3 14.4 9 2.9 0 5.7-.7 8.6-.8 5-.4 10.7 2.4 15.3-.6 1.8-1.2 3.4-2.9 5.1-4a15 15 0 0 1 6.9-2.7q2-.5 3.4 1c4.4 4.2 8.9 9.8 15.3 5.6 7 2.5 9.3 1.4 16.2.3q4-.6 7.7.2c2 .4 4 1 6 1 3.9-.4 6.2-4.1 8.5-6.8" class="b"/><path d="M10.3 156.7c5.6-2.5 11.3-1 16.2 2.4 2.4 1.5 4.8 3.6 7.7 3.8 4.5-.5 7.3-6.1 10.2-9.2 3.3 3.2 6.6 6.8 11.1 8.1 2.7 1 5.9 1.6 8.5 0 3-1.5 5.3-4 7.7-6.3 1-.8 2-2.3 3.4-2.5 6.3 5.4 10.6 10.5 19.6 9.9q4-.2 7.7-.1c2.3 0 4.6.2 6.8-.3 2.7-.6 4.8-2.6 6.9-4.3a15 15 0 0 1 8.5-3.7c3.5 3 7.6 9.2 12.8 8.3a12 12 0 0 0 3.4-1.5q.8-.7 1.7-.8c8 4.1 12.4 1.5 20.5 1.5 5 0 9.5 2.7 13.6-1.6 1.2-1 2-2.7 3.4-3.4l1.7 1.2" class="b"/><path d="M10.3 150.8c8.6-5 15.7-1.6 22.2 5S41.2 159 46 153q3 3.2 6.8 5.2c3.7 1.5 7.8 2 11.1-.4 2.5-1.6 4.7-3.8 6.8-5.8 1.3-1 2.7-2.8 4.3-3 5.2 3.5 9.8 8.6 16.2 9.9q4.3.8 8.5.6 4.4.2 8.6-.4c3-.4 5.4-2.6 7.6-4.5a17 17 0 0 1 6-3.2c4 2.6 7.4 9 12.8 7.9a12 12 0 0 0 3.4-1.6c.8-.5 1.6-1.4 2.6-1.4 8.2 4.3 11.9 3 20.4 2.6 7 0 11.2 2.7 16.3-3.9l.8-.2 3.4 2.3" class="b"/><path d="M10.3 145c4-2.7 9-3.2 13.6-2.6 5.1.6 8.9 4.4 12 8.2 1.7 1.9 3.4 4.4 6 5.4 2.5.6 4.2-2 6-3.4a12 12 0 0 0 15.3 1.3q3.6-2.6 6.8-5.6c1.3-1 2.6-2.5 4.2-2.9 8.5 4.7 13.3 10.7 24 10.6 5 0 11 .8 15.3-2.6 1.8-1.5 3.8-3.2 6-4.2.5 0 1.3.5 1.6 1l3.5 3c5.5 4.8 8.5 2.9 13.6-1.3 9.4 5 12.1 4.3 22.2 3.7 4-.2 8.1 1.2 12-.1 1.6-.6 2.8-2.2 4.2-3.1q2.4 1.8 5.1 3" class="b"/><path d="M10.3 139.7c2.2-1.5 5-1.6 7.7-1.5h6.8q3-.2 6 .3c4.2 1.1 6.8 5.2 9.3 8.5 1.7 2 3.3 5 6 5.7.4 0 1.3-.1 1.7-.3q.8-.5 1.7-.6c8.8 3.8 15.7-4.9 22.2-9.3 7 2 12.5 7.4 19.6 9.2q5 1.2 10.3 1 4.3.2 8.5-.7 2.3-.7 4.3-2.3c1-.7 2-2 3.4-2 3.7 2.4 8 7 12.8 4 1.8-1 3.3-2.7 5-3.7 10.9 5.3 12.3 5 24 4.1q3 0 6 .3c1.9.2 4 .5 5.9 0q1.4-.4 2.6-1.2.6-.7 1.7-1c1.7 1.2 3.8 2.5 6 2.5" class="b"/><path d="M10.3 136.4c3.4-1.7 7.3-1.6 11-1.6 3.2 0 6.4-.2 9.4.6 7 1.8 10.5 9 16.3 12.8 1.7 1 4 1.3 6 .8a22 22 0 0 0 7.6-3.3l4.3-3c1-.7 2-2 3.4-1.7 8 .4 14.5 5.8 22.2 7.5 4.1 1 8.5.7 12.8.8 4.7 0 7.9 0 11.9-2.9 8.4 4 10 4.1 17-2.2 5.6 2.1 11 5.5 17.1 5 3.1-.1 6.3-.9 9.4-1q3.8-.3 7.7.4c2.8.7 6.1 1.3 8.5-.8 2.2 1 4.4 2.1 6.8 1" class="b"/><path d="M10.3 134.5c4.2-2.9 9.6-3 14.5-2.7 14 .4 16.5 17.2 26.4 13.5 4.4 2.6 9.4-5.3 18.8-4.6 8 .5 15 5 23 5.2l8.5-.1h6.9q1.6 0 3.4-.3c.7-.4 1.8-.3 2.5-.1 4.3 1 7.6.6 11.1-2 1.1-.8 2.1-2.2 3.4-2.4 5.5 1.4 10.5 4.9 16.2 4.9 3.5 0 7-1.3 10.3-2q4.6-1.3 9.4-.3 2.6.6 5 1.5c1.7.6 3.6 1.1 5.2.4.8-.3 1.8.2 2.6.3 1.5.3 3-.4 4.2-1.2" class="b"/><path d="M10.3 132.7a20 20 0 0 1 17-2.8c6 1.7 9.8 7.1 14.5 10.9 3.3 2.6 6.1 1.9 9.4-.3 1.4.6 2.7 1.9 4.3 2 3.5.1 6.8-1.8 10.2-2.3q4.7-.7 9.4.1c5.6 1 11.3 2.6 17 2.2q5.3-.5 10.3-.5c3.1 0 6.3.7 9.4.5 4-.1 8-1.4 11-4q1.3-.5 2.6-.3 2.6.3 5.2 1.1c6.6 2.4 10.8 4.8 17.9 1.7 3.6-1.4 7.2-3.2 11-3.7 4.3-.6 8.5 1.1 12 3.4 1.3.8 2.7 1.7 4.3 1.8l2.5-.1a9 9 0 0 0 3.4-2" class="b"/><path d="M10.3 132c7.6-6 16.5-5.7 23.9.6 6.6 5.4 9 9.7 17 3h.9a10 10 0 0 0 9.4 3.4q4.6-.7 9.3-.8c4 .1 8 .7 12 .9q5.5 0 11-.5 3.5-.4 6.9-.3c.8 0 1.8.5 2.5.6q1.8.4 3.5 0c3.8.4 5.9.5 9.3-1.6 6.9-4 12-2 18.8.6 10.6 4.5 16.5-5.8 26.4-6.6 2 1 3.4 3 5.2 4.3 2.7 2.4 6.5 4.4 10.2 3.1 2 1.2 4-.7 5.1-2.3" class="b"/><path d="M10.3 132c11-7.5 17-5.6 27.3 1.8 5.7 4 9 1 13.6-2.8l.9-.1c3.5 4 7.6 5 12.8 4.8h11c6.3.2 12.6-.7 18.8-1h2.6q2.8 1.7 6 .3c4 .6 8.3 1.6 11.9-1q2.8-1.6 6-2.5c3.4-.7 7 .3 10.2 1.6 2.7 1 5.5 2.5 8.5 2.6 6.5-.1 11.3-6 17.1-8.3l.9.1c5.6 5.5 9.5 11.4 17.9 6.2h.8c1.3 1.4 3.3 2.8 5.1 1.3" class="b"/><path d="M10.3 131.5c4.6-1.9 9.3-4.7 14.5-4.4 3.3.1 6.4 1.4 9.4 2.8 2.6 1.2 5.5 2.8 8.5 2.3 3.3-.7 6-3.2 8.5-5.3l.9-.1c4.2 4.4 9.5 5.3 15.3 5.3q7.3.1 14.5-.5 5.6-.5 11.1-.8c1-.2 1.8.6 2.6 1a5 5 0 0 0 2.5.5c1.2-.2 2.3-1.3 3.4-.9 6 1 9.3 2 14.5-2 3.9-2.4 8.6-3 12.8-1.4 3 1 5.7 2.7 8.6 3.7 6.6 2.6 11.9-3.7 17-7l.9.1c8.6 9.6 9.2 9.5 19.6 2.3l.8.2c1.8 1.8 3.4 4.6 6 5" class="b"/><path d="M10.3 128.9c4.4.3 8.5-1.9 12.8-2.3 13.1-1.5 15.6 8 28.1-3.3 1.3 0 2.3 1.4 3.4 2A17 17 0 0 0 59 127c8.4 2 17.1.3 25.6-.2q3.4-.2 6.8-.1c.9.2 1.8 1.1 2.6 1.6 2 1.1 3.3.1 5-.7 4.8.9 10.3 2.5 14.6-.7 1.8-1.3 3.8-2.8 6-3.6 3.2-1.3 7-.9 10.2.5 5.6 2.2 10.9 7.6 17 3.5q2.3-1.4 4.3-3c.7-.6 1.6-1.6 2.6-1.7 9.3 12.2 10.6 3.5 19.6-2.3l.8.1c2.8 2.4 4.7 6 7.7 8" class="b"/><path d="M10.3 124c5.9 3.1 12.5.4 18.8.7 10.5.6 13 2.8 22.1-4.5 7.8 5.4 17.7 3.5 26.5 2.6q6-.7 12-.4c1.4.7 2.5 2.5 4.2 3 1.6.6 3-.7 4.2-1.4 5.7 1.5 10.4 2.9 15.4-1.1q2.7-2.4 6-3.9c3.5-1.5 7.6-1 11 .5 5.2 2 10.4 8 16.3 5.3q1.8-.8 3.4-2c.7-.6 1.6-1.5 2.5-1.5 1.8 2.2 4.6 5.7 7.7 3.6 4-2.8 6.3-7.4 10.2-10.1 4.2.3 8 7 11.1 9.5" class="b"/><path d="M10.3 118c7.3 5 12.2 4.1 20.4 4 7.8.1 13 1.1 19.7-4 2 .5 3.9 1.5 6 1.8 10.8 1.8 21.5-3.7 32.4-2 2 1.6 3.8 5.1 6.8 4.1.8-.4 1.6-1.3 2.5-1.6 5.5 2 9.6 3 14.5-.8 2.2-1.7 4.3-3.7 6.9-4.8a14 14 0 0 1 11 0c5 1.8 8.7 5.9 13.7 7.3 2.8.6 5.5-.8 7.7-2.4 1.5 1 3 3.1 5 2.4 1.8-.7 3.2-2.4 4.4-3.8 1.8-2.4 3.6-5 6-7 6.4-.7 10.2 5.3 14.4 9.1" class="b"/><path d="m10.3 114.2 1.7-.6c1.7.5 3.4 2 5.1 2.8 4.4 2.3 9.6 2.5 14.5 2.3 6 0 12.6.8 18-2.6 10.2 2.8 17.4-.5 27.2-2.7q5.5-1.2 11.1-.4c1 .4 1.8 1.7 2.6 2.5 2.3 2.8 4.7 4.8 7.6 1.3 2 .4 4 1.6 6 1.8 8 1.2 11.4-8.8 20.5-9.4 6.9-.6 12.5 4 17.9 7.5 2.8 1.8 6.2 2.8 9.4 1.1 1.5.7 2.7 1.4 4.2.4 2.5-1.8 4.2-4.7 6-7.1q2.4-1.4 5.1-1.9c6.1-1.1 10.3 4.2 14.5 7.7" class="b"/><path d="m10.3 113.4 6-.7c1 0 2.3-.3 3.4.1q2.8 1.5 6 2 4.6.7 9.3.6 4.3 0 8.5-.2 2.2-.2 4.3-.8l6 .3q6 0 12-2c7.2-2.6 15-6.8 23-4.2 1.8 2.2 3.4 5 6 6.5 1.4 1 3.1-.2 4.2-1.4l.8-.1c12.5 7.3 14-9.7 29-8.4 9.9.7 16 10.6 23 10.2h1.8q1.3-.5 2.5-1.4l5.2-3c9.3-5.8 12.5-2.5 20.4 3" class="b"/><path d="M10.3 111.5c15.6.3 31.3.8 46.9.3 9-.5 15.8-8 24.7-8.9q4-.4 7.7 1 2.5 3.1 5.1 6.3c2 2.1 4 2.4 6 0 .9 0 1.8.7 2.6 1q2 1 4.2.6c3-.7 5.4-3 7.7-4.9 3.6-3 8-5.5 12.8-5.8 7-.5 13.2 3.6 18.8 7.6 1.7.9 3 2.8 5 3.2h4.3c4-.7 7.3-3.2 11.1-4.3 5.5-1.8 9.8 1.6 14.5 3.6" class="b"/><path d="M10.3 108.6c5.1 0 10.2-.6 15.3-1q3 1 6 1l7.7-.2 7.7.2q1.6 0 3.4-.5l6.8.5c4.8.2 9-2.4 12.8-5 3.4-2.3 7-4.5 11-5.3 3.5-.6 7.2-.4 10.3 1.1 2.3 2.7 4.1 6 6.8 8.3 2.2 1.7 3.2.5 5.2-.5 1.7 1.1 4 1.8 6 1 3.5-1.3 6.2-4.3 9.3-6.4 6-4.6 14.3-5.8 21.3-2.8 2.2.8 3.5 3.2 5.1 4.7 2.4 2.5 5.8 6.6 9.4 4 7.3 2.6 11-1.6 18-1.3 3.1.2 6.2 1.6 9.3 2" class="b"/><path d="M10.3 105c3.7-.5 7.4-1.6 11-2.5 6.3 3.7 11.2 2.6 18 2.2q3.4 0 6.8.3c2.3.3 4.7.4 6.8-.6 1.1-.3 2.4.2 3.4.4q4 1 7.7-.8c3.7-2 6.7-5 10.2-7.3A19 19 0 0 1 94 95.4l1.7 2.2c1.3 1.8 2.7 4 4.2 5.6 1 1.1 2.7 2.4 4.3 1.8l1.7-.6c3.6 2.1 7.4-.6 10.2-2.8 5.2-4.1 11-8 18-8 3.6 1 6.5 3.9 9.3 6.2 2.7 2.2 5.6 5.6 9.4 5.3 1.6-.1 2.9-1.3 4.3-1.8 4.5 2.5 8.8 1.9 13.6 1.5 3.7-.2 7.4.6 11.1.3" class="b"/><path d="M10.3 101.2c3-.6 5.6-2.2 8.5-3 11 7 16 1.2 27.3 3.1 2.2.3 4.6.8 6.8.1.8-.2 1.7-1 2.6-.9 2.4 1 5.2 1.9 7.7.7 4.9-2.3 8-7.2 12.8-10 4.2-2.6 9.6-3.2 14.5-2.2q3.7.9 6.8 3.2c2.8 2.7 6.3 11.3 11 9.2 3.1 1 6.1-.5 8.6-2.2 3.6-2.5 7-5.4 11-7.2q2.8 0 5.2.5c3.7.9 7 2.8 10.3 4.8 2.6 1.7 5.3 3.7 8.5 4.4q2.6.4 5.1-.8c1.1-.4 2.2-1.3 3.4-1.5 3.7 1.9 7.9 2.4 12 2.3q4.6.2 9.3-.7" class="b"/><path d="M10.3 97.8c2.4-.6 4.5-2.1 6.8-3 10.2 5.6 12.7 3 23 2.4q3.4 0 6.9.7c2.8.6 6 1 8.5-1 1.4.3 2.8 1.2 4.2 1.4 3.1.6 5.7-1.7 7.7-3.7 7-7.4 10.5-11 21.3-10.3 5.8 0 11.3 3.2 14.5 7.8 1.9 2.4 3.8 5.4 6.9 6.2l3.4.1c3.2-.2 5.9-2.4 8.5-4.2 4.8-2 10.2-3 15.4-1.8 6.2 1.2 11.6 5.2 17.9 6 3.4.3 6.9-.9 10.2-1.9q1.3 0 2.6.4 1.6.4 3.4.5 5.2.3 10.2-1" class="b"/><path d="M10.3 94.8q3-.9 6-2.5c10.2 4.5 13 2.2 23 1.5q4.3 0 8.5.9c3 .6 5 .3 7.7-1.3 3 1.6 5.7 2.4 8.5.2 5-3.9 8.1-10.5 14.5-12.4 3.6-1 7.4-.6 11.1-.7 7.6-.3 11.2 2.2 16.2 7.6 2.9 3.2 5.5 7 10.3 6.9 3.8 0 7.4-1.7 11-3q6-2 12-2c7 .2 13.6 3.3 20.5 4.5 3.6.6 7.4.5 11 .5l11.1-.1" class="b"/><path d="M10.3 91.6q3-.2 6-1.5c9.2 2.8 13.2.9 22.1.4 3.5-.1 6.9.7 10.3 1q1.6.3 3.4-.2 1.3-.5 2.5-1c2.4 1 5.3 2 7.7.5 5.3-3.4 7.9-10 13.7-12.8 2.9-1.3 6.2-.7 9.4-.8h11.9a14 14 0 0 1 8.5 4.4c2.6 2.5 4.6 5.9 7.7 7.8 4.7 2.8 8.6 2.8 13.7.8 14.6-6.1 19.8-5.2 35-2q4.6 1 9.3 1l5.1-.2q2.6.1 5.1.8" class="b"/><path d="M10.3 88.1q1.6.2 3.4 0 1.3-.4 2.6-.6 3.3.7 6.8.7c4.8.1 9.6-1.1 14.5-1.2 4-.3 8 .8 12 1.2q1.6.1 3.3-.5c.4-.2 1.3-.5 1.7-.5 2.2.7 4.7 1.6 6.9.5 6.1-3.1 8.6-11.2 15.3-13.6 1.6-.5 3.5-.3 5.1-.3h6.8q6.5 0 12.8 0c4 .5 6.7 5.5 9.4 8q3.1 3.2 6.8 5 4 2.1 8.6 1.1c2-.6 4-1.9 6-3a42 42 0 0 1 13.6-5.5q6-.6 12 1.4c8.2 2.6 15 6 23.8 2.6" class="b"/><path d="M10.3 84.7q2.5.3 5.1-.2l6 .3c4.5 0 9-1 13.6-1.4q5.6-.7 11.1.6c2.2.5 4.6 1.2 6.8.6.8-.2 1.7-.8 2.6-.6 1.9.6 4 1.2 6 .5 4.4-1.8 7-6.4 10.2-9.7 2.2-2.3 5.1-4.6 8.5-4.4H93c3.4 0 6.9-.3 10.3.1 3.2 1.2 5.3 4.5 7.6 6.8 3 3 6.4 5.8 10.3 7.2l2.5.3c.8 0 1.8-.4 2.6-.3 3.3 1.2 6.6-.9 9.4-2.5 2.4-1.4 5-3 7.7-4q6.6-2.5 13.6-1.2c8.5 1.3 16.1 6 24.8 2.5" class="b"/><path d="M10.3 81.3c1.4.3 2.9 0 4.2 0q4.7.3 9.4 0c5.2-.5 10.2-2 15.4-2 4.4-.3 8.5 1.4 12.8 2.1 1.4.3 2.9-.5 4.2-.8l2.6.7c8.3 1.6 12.4-11.2 19.6-13.8a11 11 0 0 1 4.3-.5h19.6c4 .4 6.6 5 9.4 7.6a33 33 0 0 0 8.5 6.3c2.2 1 4.9.3 6.8-1 .9.1 1.8.8 2.6 1.1q1.6.7 3.4.4c4.7-1.2 8.3-4.8 12.8-6.5q6.1-2.7 12.8-2c5.2.6 10.2 2.5 15.3 3.3q4 .3 7.7-1" class="b"/><path d="M10.3 78c4.5-.3 9.1.4 13.6-.2 5.5-.6 10.8-2.5 16.2-2.6q3.5 0 6.9.8c2.2.6 4.5 1.7 6.8 2q1.3.1 2.5-.3a3 3 0 0 1 1.8-.4c1.6.4 3.4 1 5 .7 6.1-1.2 9.8-8.4 14.6-12q2.2-1.7 5-2.3 3.9-.1 7.8-.1H99c3.4-.1 5-.2 7.7 2.4 2.6 2.5 4.8 5.7 7.7 8 1.8 1.5 3.7 3.1 6 3.8 2.9.9 5.6-1.4 7.6-3.3 2 1.2 3.6 3.2 6 3.5 2.5.3 4.8-1.2 6.8-2.5q3.3-2.3 6.8-4 5.7-3 12-2.6c3.7.1 7.4 1.1 11 2.1q5.6 2 11.1.4" class="b"/><path d="M10.3 74.6c4.2-.5 8.5.4 12.8 0 4.6-.4 9-2 13.6-2.9a23 23 0 0 1 10.3 0q3 .9 6 2.1c1.8.9 4.1 1.3 5.9 0 1.1-.3 2.3.4 3.4.6q2.6.7 5.1-.3c8.1-3.6 12-15.1 22.2-14H99c3.6-.2 5.2.6 7.7 3.2 3.7 4 7.9 10.7 13.6 11.4 3.3-.3 5.6-3.2 7.7-5.4h.9c12.6 16 14.5-10.5 39.2-3.3 5 1.5 8.1 3.4 13.6 2" class="b"/><path d="M10.3 70.8c4.2-.2 8.5.6 12.8.4 5 0 9.7-1.9 14.5-3.2l4.2-.8q2.6.3 5.2.8l3.4.4q2.2.8 4.2 2c1.6.8 3.6 1.3 5.1.3l1.7-1c4.4 1.6 8 2.5 12-.4 6-4 10.1-11.8 17.9-12.5h6.8c1.8 0 3.7 0 5.1 1 4.7 3.4 7 9.3 12 12.3 5.3 3.8 9.6-2.8 12.8-6.4 1.3.8 2.3 2.6 3.4 3.7 1.7 1.9 4 4.3 6.8 3.8 3.7-1 6.3-4 9.4-6 6-4.6 13.4-5.8 20.4-3.4 5.1 1.6 8 4.2 13.7 3" class="b"/><path d="M10.3 66.8q5.1 0 10.2.8a33 33 0 0 0 17-2.8q1.8-.6 3.5-.9a66 66 0 0 0 11 1c4.5 2 7 5.2 11.2.5 4.5 1.5 9 4 13.6 1 6.4-3.6 10.4-11.3 18-12.9q3-.4 5.9.2c3.4 1.5 5.5 5 7.7 7.7 8.1 11 11.7 6.1 18.7-2.3h.9c2.6 3 4.7 7 8.5 8.5 2.2.8 4.3-.6 6-1.9 3-2.3 6-5.1 9.4-7 5.5-2.9 12.3-2.6 17.9 0 4.2 2 6.9 4 12 3.5" class="b"/><path d="M10.3 62.4c6.6-.7 13 3 19.6 1.9 3.6-.6 6.9-2.2 10.2-3.4 1.7 0 3.5.5 5.2.6q3.8.4 7.6-.3c5.2 2.9 7.4 5.6 12-.3l.8-.1c6.7 2.1 11.4 6.4 18 1 4.8-3.6 8.5-9.2 14.4-11.3 3.9-1.2 8.7 7.8 11.1 10.3 7.1 9 12-1 17-6.2l1 .2c2.7 3 4.8 7 8.5 9.2 2 1.1 4.3 0 6-1.2 3.3-2.6 6.3-6 10.2-7.9a19 19 0 0 1 17-.1c4.7 2.2 7.2 5.2 12.8 5" class="b"/><path d="M10.3 57.4c5.6-.7 10.9 2 16.2 3.3q3.8.9 7.7-.3 3-1 6-2.2c.7-.4 1.7 0 2.5 0l2.6.3q3.9.3 7.6-.9c2.2.7 4 2.5 6 3.2 4 1.4 6.1-3.3 8.5-5.5 4.9 1.1 8.9 4.4 13.7 5.6 7.9 1.5 13-9.8 19.6-12.5 4.1 3 7.9 12.6 12.8 12.7 5-.7 8.1-7.6 12-10.6 3.2 3 7.2 10.8 11.9 10.6 2-.3 3.6-1.7 5.1-3l5.1-4.4a19 19 0 0 1 18.8-3.3c5.9 2.1 8.6 7 15.3 7.2" class="b"/><path d="M10.3 52c6-1 11.6 2.3 17 4.6a13 13 0 0 0 7.7.8q3-.8 6-2c1.3-.2 2.9.2 4.2.2a18 18 0 0 0 7.7-1.3c2 .8 4 2.3 6 3.1 4.6 1.6 7.8-5 10.2-7.9 3.7.5 7.1 2.4 10.3 4.3 3.5 2.2 7.8 5.5 12 3 2.9-1.6 5.2-4.3 7.6-6.6 1-.8 2-2.3 3.4-2.6 2.6 2.8 6.6 11.6 11.1 9.8 4.4-2 6.6-7 10.2-10 3.6 2.8 8 11 12.8 10.2 4.2-1.1 6.9-5 10.3-7.5a19 19 0 0 1 19.6-2.8c5.8 2.5 8.4 7.8 15.3 8.2" class="b"/><path d="M10.3 47.1c8.1-3.3 14.8 4.7 22.2 6.8 3.1 1 6.4 0 9.3-1.2q1.8-.1 3.5 0a20 20 0 0 0 5-.5c.8-.2 1.8-.7 2.6-.6q2.3.9 4.3 2c3.1 1.6 5.6.2 7.7-2.2q3-3.8 6-7.6C81.5 43.8 88 56.2 94.6 54c2.3-.7 4.2-2.5 6-4 1-1 2-2.4 3.4-2.8 2 2.5 3.6 6 6.8 7 4 .4 7.7-6.1 10.3-8.7l.8-.2c3.8 2.6 8.7 10.4 13.7 8.7 4.3-1.8 7.2-5.8 11-8.3a19 19 0 0 1 18.8-1.8c6.3 3 8.7 8.8 16.2 9.4" class="b"/><path d="M10.3 42.9q6-1.6 12 .3c3 1.3 5.6 3.6 8.4 5.2 2.6 1.6 5.6 2.9 8.6 2.4q2.2-.3 4.2-1a25 25 0 0 0 7.7-.7c2-.3 4 1 6 1.5 3.6 1.3 6.5-2 8.5-4.6 2-2.4 3.7-5.1 6-7.2 1.9-.7 4 0 6 .3 3.8 1 7.2 3.3 10.2 5.8 2.6 2.2 5.2 5 8.5 5.9 3.7.7 6.7-2.4 9.4-4.3 1.5 1.6 2.8 4 5.1 4.4 3.7-.2 6.2-4.8 8.6-7.2 4.2 2 8.6 8 13.6 7 4.7-1.4 7.9-5.8 12-8.4 5.6-4 13.4-4.8 19.6-1.6 3.5 1.8 6.4 4.7 9.4 7.3 2.1 1.7 5 2.5 7.6 2.6" class="b"/><path d="M10.3 39.2C18.5 37 26 42 33.3 45c1.9 1 3.9 2.2 6 2.5q3 .3 6-.3 2.1 0 4.2-.3c2.6-.4 5.1.7 7.7.7 6-.3 9.2-9 13.6-12.5q1-1 2.6-1 2.2 0 4.3.2c5.6.3 10.5 3.6 14.5 7.5 5.3 4.7 8.2 8 15.3 3.8h.9c4 4.6 6 0 9.3-2.2 3.9 1 7.1 3.9 11.1 4.2 5.2 0 8.8-4.8 12.8-7.5 2.8-2 6-3.8 9.4-4.4 1-.1 2.4-.5 3.4 0 5.2 2.7 10 7 16.2 7 3.5 3.5 6 5 11.1 5" class="b"/><path d="M10.3 36.4c9.2-2.3 17 4.8 25.6 6.8 3.9 1 8 1 12 1 4.6-.3 9 .9 12.7-3 2.2-2 4-4.8 6-7.1 1-1 2-2.6 3.4-3 4.7-1.2 9.8-1.2 14.5.2 3.5 1 6.6 3.4 9.4 5.8 5.2 4.7 8.6 8.9 16.2 6.1.4 0 1.3.4 1.7.7 1.5.6 3.1-.3 4.2-1.3 1.4-.5 3 .2 4.3.5 5 1.5 8.4 1.5 12.8-1.7 5-3.5 9.9-8.1 16.2-9.2 5.7 2.5 10.2 7.4 16.2 9.4q3.4 1.1 6.8.6c1 0 1.8.9 2.6 1.2 2.1 1 4.6.8 6.8.6" class="b"/><path d="M10.3 34.7c7.8-2 14.9 3 22.2 5 3.8 1.2 8 1 11.9 1 3.1-.1 6.4.5 9.4-.6s5.4-3.7 7.7-6c5-4.8 10-7.3 17-7.2 11.3-.3 15 5 23 11.2q3.8 2.8 8.6 2.6l3.4-.2c.4.1 1.3.3 1.7.2 1.6-.4 3.5 0 5.1 0q3 .2 6-.6c7-2.4 12.1-9 19.6-10.7 7 2.5 12.2 8.8 19.6 10.4q3.8.8 7.7.3c1.1 0 2.3.7 3.4.7q2.6-.1 5.1-.6" class="b"/><path d="M10.3 33.8c9.3-2.3 18 4.2 27.3 3.5 3 0 6.3-.4 9.4-.2 4.5.3 7.3.9 11-2.4 3-2.4 5.5-5.3 8.6-7.6 5.7-4.5 13.6-4.4 20.5-3.5 10 1.3 15.4 12.2 25.5 13.3q1.8 0 3.5.2l1.7.2c.4 0 1.3-.3 1.7-.5q1.3-.1 2.5-.4c6.6-1.5 11.8-6.3 18-8.8l1.6-.7q2.3.2 4.3 1c5.8 2.2 10.3 6.8 16.2 8.6 3.3 1 6.9.8 10.3.8h3.4q3-.7 6-1.6" class="b"/><path d="M10.3 32.8c6.8-1.5 13.6.6 20.4 1.1 5.7.3 11.4-1 17.1-.4 2.2.2 4.6.8 6.8.2 2.7-.9 4.9-3 6.9-5 2.3-2.3 4.8-4.8 7.6-6.6 4-2.6 9-2.6 13.7-2.6 4.3 0 8.8 0 12.8 1.6 6.8 2.9 12 9.5 19.6 10.2 3.6 4 6.4 3 10.2 0 2.7-1.9 5.4-4 8.6-5.1 4.4-1.8 9.4-1.2 13.6.7 5.4 2.4 10.2 6.6 16.2 7q3 .2 6-.1c1-.1 2.3.3 3.4 0 2.9.1 6 .4 8.5-1.2" class="b"/><path d="M10.3 30.6c6.5-.5 13 0 19.6 0 6.2-.3 12.5-1.6 18.8-.5 6.1 1.2 8.5-.2 12.8-4.5 4.2-4.3 8.7-9.6 15.3-9.5h12.8c5.6-.2 9.6.3 14.5 3.3 3.3 1.8 6.5 4 10.2 4.9 8.4 11.7 11 4 20.5 0a17 17 0 0 1 12.8.3c5.1 1.9 9.7 5.7 15.4 6 1.6.1 3.4-.4 5-.2q1.4.3 2.6.1l2.6-.6c2.8.2 5.7 1.1 8.5.4" class="b"/><path d="M10.3 26.4q6 .9 12 .6c5.9 0 11.9-.7 17.8-1q4.4 0 8.6.7c3.3.6 6.5 1 9.3-1.3 5.1-3.7 8.3-10.1 14.5-12.2q3-.7 6-.5h17.1q3-.2 6 .3c3 .5 5.7 1.9 8.5 3q1.7.8 3.4 1.5c2 2.4 3.7 5.1 6 7.3 3 3.1 5.8 2.9 9.3.7 2.7-1.6 5.5-3.5 8.6-4.4 3.9-1.2 8.2-.6 11.9 1 4.7 2 9.2 5.4 14.5 5 1.7-.2 3.5.3 5.1-.2 4.1-2.2 8.6.1 12.8.3" class="b"/></svg>