<svg xmlns="http://www.w3.org/2000/svg" id="a" width="1920" height="2400" viewBox="0 0 192 240"><defs><style>.b{fill:none;stroke:#fff;stroke-miterlimit:10;stroke-width:.3px}</style></defs><path d="M0 0h192v240H0z" style="stroke-width:0"/><path d="M9.9 226.7c8.4-3 13.2-5.3 22.2-2.2 3.4 1 6.8 2.6 10.3 2.8 4.8.2 9-2.6 13.7-3 6.8-.6 13 4.5 19.8 2.6 8.6-2.3 14.5-6.5 24-3.2 3.4 1 6.6 3.1 10.2 3.6 3.3.4 5.8-2.2 8.6-3.4q1.3 0 2.6-.2c2.3-.1 4.6-.8 6.8-1.2 9.6 2.5 12.6 9.4 21.5 0 4.7-5 8.8-10 16.3-9.7 8.7 0 11.1-.8 16.2 7.4" class="b"/><path d="M9.9 223.9c4.3 0 8.5-1.3 12.8-1.4 4.3-.2 8.6.8 12.9 1.3q4.8.5 9.4-1c8.4-2.9 11-5 19.7-1 5.5 2.5 9.1 2.8 14.6.3 8-3.9 14.5-6.2 23.1-2 3.1 1.3 6 3.4 9.5 3.8 2.1.2 4-1.3 6-1.9q6 .1 12-1.4c1.7-.8 3.5.5 5.1 1 4.2 2 7.9 3.7 12 .4 5.2-4 8.6-11 15.4-12.4 3.1-.5 6.3-.2 9.5-.2 4.8-.2 7 0 10.2 4.2" class="b"/><path d="M9.9 219.9c3.9.8 8 .5 12 .5q6 .1 12 0 4.9-.5 9.4-2.1c6-2.1 11.8-5.3 18-2 3 1.3 6 3.5 9.4 4 7.6 1.2 14-8 24-7.3q2-.1 3.4 1a53 53 0 0 0 14.6 6.4c1.4.3 3-.2 4.3-.6 6 .3 12.3.2 18-1.8 3.1.8 6.1 3 9.5 2.4 4-.8 6.7-4.3 9.4-7 4.5-5 7.5-8 14.6-7.4h6.8c2.5-.3 5.1.6 6.9 2.4" class="b"/><path d="M9.9 215.5q5.5 1.3 11.1 1.2 6 .1 12-.9c5.3-.9 10.3-3.1 15.4-4.6 6.6-2 9.8-1.3 15.5 2.5 3 2 6.5 4.3 10.3 3 3-1 5.7-3.2 8.5-4.9 3.1-1.9 6.6-3.6 10.3-3.6 8.5 6.3 14 9.1 24.9 8.9q7.6.2 15.4-.2 2.2-.2 4.3-.7c1-.4 2.3-.9 3.4-.2 4.4 1.9 7.6 1.3 11.1-2 4.6-4 8.2-10.2 14.6-11.3 2.3-.3 4.6-.1 6.9-.2 3 0 6.1 0 8.5 1.9" class="b"/><path d="M9.9 211.4a54 54 0 0 0 22.2-.5c5-1 9.7-3 14.6-4.3 4.6-1.2 9.6-1.8 13.7 1 3.2 2 5.9 4.8 9.5 5.9 4.3 1 7.8-2.7 11-5 2.7-1.9 5.5-3.7 8.7-4.6 6.6 4.3 12 9.6 20.5 9.8 2.3 0 4.6-.3 6.9 0 1.4-.1 2.9-.7 4.3-.8q5.6-.5 11.1.2c3.7.4 7.6 1 11.2 0 1.3-.8 2.9.3 4.3.5 3.3.6 6.3-1.7 8.5-4 3.5-3.2 6.6-7.4 11.2-9.3a19 19 0 0 1 14.5 1" class="b"/><path d="M9.9 208q9.4 1 18.8-1c5.8-1.3 11.4-3.5 17.2-4.7 4.5-1 9.7-1.5 13.7 1.3 4.1 2.3 8.4 8.5 13.7 6 4-1.5 10-8.7 13.7-9 9.9 6.7 14.8 11.7 27.4 8.8 4.8 2.5 7.9-1 12-2.4q4-.2 7.7.4c3.8.6 7.4 2.3 11.2 2.8q1.7.1 3.4-.3c.4-.2 1.3-.3 1.7-.2 3.1 1.3 6.2.1 8.6-2 3.2-2.6 5.9-6 9.4-8.2 4-2.7 9.5-2.6 13.7-.4" class="b"/><path d="M9.9 205.2q8.6.3 17.1-1.8c5.8-1.3 11.3-3.5 17.1-4.7 4.8-.9 10.3-1.5 14.6 1.2 3.8 2.1 7.4 7.3 12 6.9 3.5-.7 6-3.6 8.6-5.8 1.3-1 2.6-2.5 4.3-3 6.7 3.6 13.4 9 21.4 8.8 3 0 5.7-1.1 8.6-1.6 4.5 3.3 8 .9 12-1.9 1.6-1 3.3-2.4 5.1-3 5.9-.5 11.3 2.2 16.3 5 3 1.5 5.2 2 8.6 1 9.2 3.7 12.8-13.2 26.5-8.2" class="b"/><path d="M9.9 202.9q8.3-.1 16.2-2.2c5.8-1.5 11.4-3.8 17.2-5 4.5-.7 9.5-1.2 13.7.8 2.8 1.4 5.1 3.6 7.7 5.4 6 4.4 10.2-1.9 14.6-5.4 1.1-.2 2.3.7 3.4 1l5.1 2.2c8.8 3.7 14.9 5.2 24 1.6q1 .1 1.8.8 1.6 1 3.4 1.3c4.6.3 8.4-5 12-7.5 3-2.3 3.9-2.8 7.7-2.3 5.9.5 10.8 4.1 15.4 7.4 2.5 1.7 5.7 3.3 8.6 1.8 7.3 2.9 10.3-6.4 21.4-4.8" class="b"/><path d="M9.9 200q7.8.3 15.4-1.3c5.8-1.3 11.3-3.6 17.1-4.8a25 25 0 0 1 13.7.4c8.4 4.1 10.2 9.7 18.9 1.5 7.8.9 15.3 3.7 23.1 4.2a32 32 0 0 0 12.9-2.1c3 2.3 6.3 3 9.4.4 3.1-2.4 5.6-5.7 8.6-8.2l2.6-1.8q1.6-.6 3.4-.7c16.5-1.5 20.3 12.2 29.1 12.4.8 0 1.8-.4 2.6-.4q1.6.5 3.4.4c4-.6 8-2 12-2" class="b"/><path d="M9.9 196.2q2.5-.2 5.1-.2 4.7.8 9.4.6c5.6-.3 11-2.2 16.3-3.4q3.4-.9 6.9-1 3.4.3 6.8 1.1l3.5.8q2 1 4.3 1.9c2.8 1.2 5 .5 7.7-.8l7.7.3 13.7.8c6 .5 12.2.6 18-1.2 4.2 2.4 6.9 1.9 10.3-1.5q2.6-2.7 5.1-5.6c1.2-1.3 2.6-2.7 4.3-3.3a29 29 0 0 1 23.1.8c5.8 3 10.8 10.6 17.2 11.1 1.4.2 3-.6 4.3-.2q4.3.5 8.5 0" class="b"/><path d="M9.9 193.2q8.1 0 16.2-.4 3.5.5 6.9.4c4.6-.2 9-1.6 13.7-1 4.6.2 9.1 1 13.7 1 12.6.1 25.2-.3 37.7 0q4.8.1 9.5-.5 1.6.7 3.4.4c2.3-.4 4-2.2 6-3.5 6.4-3.8 11.9-9.6 19.7-10.3a33 33 0 0 1 18.9 2.3c4 2.2 7.4 5.6 11.1 8.4 5 3.8 9.5 3.4 15.4 3" class="b"/><path d="M9.9 189.8q16.3-.1 32.5 0 5.6.1 11.2-.1 3 .1 6 0l3.4-.6h2.6q7.7.3 15.4.7h16.3c11 0 17.5 1 26.6-6.6 3.1-2.4 6.4-5 10.2-6.2a39 39 0 0 1 16.3-1c13.7 1.8 16.4 14.2 31.7 13.7" class="b"/><path d="m9.9 186.3 27.4.1c3.4 0 6.9-.3 10.3-.1 4 0 8 .2 12-.5q2.1-.3 4.3-1a6 6 0 0 1 3.4-.6c5.1.5 10.3 1.6 15.4 2s10.3.1 15.4 0q1.8.3 3.5 0l6 .2c5.2.2 10.2-.3 14.6-3.4 3.7-2.4 7.1-5.5 11-7.5 7.1-3.6 16.8-3.7 24-.7 9.4 4.2 13.5 11.2 25 11.2" class="b"/><path d="M9.9 182.3c9.1.1 18.3.7 27.4.7q3.4 0 6.9-.5c1.3 0 2.9-.6 4.2-.4q6 .7 12-.3c3.5-.5 6.9-1.6 10.3-2 4.9 1 9.7 2.4 14.6 2.9q6.8.6 13.7 0 5.6-.3 11.1 0c5 .6 9.4.4 13.8-2.2 3.5-2 6.7-4.6 10.2-6.6a27 27 0 0 1 25.8-.1c8 4.2 12.5 8.9 22.2 8.7" class="b"/><path d="M9.9 177.6q7.3.2 14.5.9 7 .8 13.7 1a40 40 0 0 0 11.2-1.6c5.4 1 10.9.4 16.3 0a57 57 0 0 1 10.2 0c3.2.4 6.3 1.2 9.5 1.6q2.5.1 5.1 0c3.7.2 7.5-.3 11.2-.6q4.3-.4 8.5 0c2.9.2 5.7.7 8.6.7 7.3-.2 13-5.8 19.7-8.2 9-3.5 17.5-1.2 25.7 3.2 6.2 3.3 10.8 5 18 4.8" class="b"/><path d="M9.9 172.2q8.6 0 17.1 1.7c5.9 1.2 12 3 18 1.9q3-.7 6-1.7 2.1.6 4.3.7c4.8.4 9.7.3 14.6.7 3.6.2 7.4.8 11.1.6 1.7 0 3.5-.6 5.1-.7 4.8 1.2 9.8.8 14.6 0 4-.5 8-.9 12-.3 4.5.7 9.2 1.8 13.7.4 5.3-1.4 10.1-4.2 15.5-5.3 11-2.6 18.2 2.4 28.2 5.1 4 1 8 .8 12 .9" class="b"/><path d="M9.9 166.5c8.4-.8 16.1 1 24 4 4.3 1.7 9 3 13.7 1.7l3.4-1q.9-.5 1.7-.3c3.6 1 7.4 1.2 11.1 1.5 4 .3 8 .6 12 .1q3.2-.3 6-1.5c1.4-.8 3 .3 4.3.6q3 .9 6 1c6.4.6 12.6-1.9 18.9-1.6 3.5.1 6.9 1.1 10.3 1.5q4.3.6 8.6-.2c4-.7 8-1.9 12-2.5q6-.9 12 0c4.8.7 9.6 2.3 14.5 2.8 2.8.3 5.8 0 8.6.2q2.6-.2 5.1-.2" class="b"/><path d="M9.9 160.8c7.5-1.3 15.4-.1 22.2 3.4 4.2 1.9 8.3 4.6 12.9 5.1a14 14 0 0 0 5.1-.6c1.1-.2 2.3-1 3.5-.8q2.5.7 5.1 1a39 39 0 0 0 19.7-2.3c.8-.3 1.7-1 2.6-.7 10.8 3.7 13.6 4.5 24.9 2q6-1 12 .2a61 61 0 0 0 12.8 1.3c5.2-.2 10.3-1 15.5-1 5-.1 10.3.5 15.4.9q4.2.2 8.6-.2 2.1.4 4.2.2l4.3-.8q1.8 0 3.5.3" class="b"/><path d="M9.9 155.6c8-2 16.8-1 24 3.4 4 2.2 7.6 5.3 12 6.6q3 .7 6-.1l1.7-.5 1.7.4c7 1.6 14.2-.6 20.6-3.5l1.7-.8c1.7 0 3.5.8 5.1 1.2 3.7 1.2 7.3 2.7 11.1 3.3 5.2 1 10.4-.6 15.5-1.3q4.3-.4 8.5.2 5.2.8 10.3 1.2c7.4.5 14.9.1 22.3.3q7.7.2 15.4-.7c.8-.3 1.9.2 2.6.5q1.2.3 2.6 0 3.5-.7 6.8-1.9 2.2.1 4.3.7" class="b"/><path d="M9.9 151a31 31 0 0 1 23.1 1.7c4.6 2.3 8.3 6.1 12.9 8.5a12 12 0 0 0 8.5 1c3.4.8 7 .1 10.3-1 3.5-1.2 6.9-3 10.3-4.4 4.4 0 8.7 1.4 12.9 2.9 4.6 1.7 9.5 3.3 14.5 2.7 3.5-.4 6.9-1.3 10.3-1.4 5.4 0 10.9.7 16.3 1 11.7.4 23.5.5 35.1-1 1.5 1 3.3 2 5.2 1.3 2.6-.8 5-2.2 7.7-3q2.6.3 5.1 1.1" class="b"/><path d="M9.9 147.1a34 34 0 0 1 22.2 0c5.3 2 9.2 6.3 13.8 9.5 2.4 1.7 5.5 3 8.5 2.4 2.7.4 5.3-.4 7.7-1.4q4-1.7 7.7-3.7c7.2-2.3 14.8-.3 21.5 2.4a28 28 0 0 0 16.3 2.5q6-.9 12-.6l14.5.1a252 252 0 0 0 24-1.1c1.4-.1 3-.6 4.3-.3 4.9 5.2 8.7-.5 13.7-1.7q3 .3 6 1.5" class="b"/><path d="M9.9 143.9c6-3 16.8-3.2 23.1-1 5.7 2 9.7 7 14.6 10.4 5.5 4.1 10.7 2.2 16.3-.5 12.4-6.2 19.3-5 31.7.5a29 29 0 0 0 16.2 2.1c16.3-.3 32.7-.8 48.9-2.4 1.1.6 2.2 1.8 3.4 2.3 3.8 1.5 7-2.1 10.3-3.5 2.6-.1 5.3.8 7.7 1.8" class="b"/><path d="M9.9 141.3c3.8-2.4 8.4-3.3 12.8-3.3 4 0 8.3.1 12 1.7 6 2.5 9.8 8.3 15.4 11.4 10 5.3 18.2-8.8 32.6-7 8.9.6 16 7.3 24.9 8 11.7.5 23.4-.3 35.1-1l12.9-.8 3.4-.2h1.7l1.7.9c4.4 3.1 7.2-.2 11.2-1.6 2.9-.1 5.8.8 8.5 1.6" class="b"/><path d="M9.9 139.8q6-4.7 13.7-4.9c3.7 0 7.6.2 11.1 1.8 5.3 2.3 9 7 13.7 10.3 7.5 5.4 14.8-2 21.5-5.2q4.5-1.6 9.4-1.5c5 .1 9.8 1.5 14.6 3l4.2 1q3 1.5 6 2.8c6 2.3 12.6 1.7 18.9 1.8 12-.1 24-1 36-1h4.3c.8 0 1.8.6 2.6.8.7.2 1.8.2 2.5.1q1.8-.3 3.5-1 5.2-.1 10.2 1" class="b"/><path d="M9.9 139.3c6.7-5.8 14.5-8.4 23.1-5.2 4.3 1.6 7.7 4.8 11.1 7.6 2.6 2.2 6 4.4 9.5 3.7 3.2.5 5.8-1 8.5-2.4 11.7-6.8 19-4.3 30.9 0a43 43 0 0 0 19.7 1.9l3.4.2c12.3.6 24.6.3 36.9.4H170c4 0 8 .1 12-.5" class="b"/><path d="M9.9 139.2c9.2-7 16.8-10.5 27.4-3.4 3.6 2.2 6.8 5.7 11.1 6.3 1.8.2 3.5-.7 5.2-1 6.8 4.2 13-6.9 28.3-2.5 5.6 1.4 11.2 3.8 17 3.5 3.5-.1 7-.7 10.4-.5 2.8 0 5.7.8 8.6.3l2.5-.7a202 202 0 0 0 13.7.3 306 306 0 0 0 31.7-1.8c1.1 0 2.5-.3 3.5.2 3.8 2.3 8.5 2.2 12.8 2.2" class="b"/><path d="M9.9 137.9c5-2.5 9.5-6.6 15.4-7 6.4-.8 11.8 3.4 17.1 6.4q5.4 2.8 10.3-.5c4.1 2.8 6.8 2 11.2.4q4.9-2 10.2-2c6.5 0 12.5 3.4 18.9 3.5 4 0 8-1.5 12-2.2 10.6-2.3 13 6.2 22.3-.4q10 0 19.7-1.8c6.3-1 12.5-2.3 18.9-3 5.8 3.5 8.9 6.4 16.2 6.3" class="b"/><path d="M9.9 135.2c2.4-.4 4.7-1.8 6.8-3 2.7-1.5 5.5-2.9 8.6-3.3a19 19 0 0 1 12 2.7c2.5 1.3 5 3 7.7 3.5q2.2.3 4.3-.4c1.1-.4 2.2-1.4 3.4-1.5 2.9 2.5 6 2.4 9.4 1.2q4.2-1.7 8.6-2.3c5.3-.8 10.4 1 15.4 2.4 10 3 15-3.8 24-4 9.5.9 11.7 9.6 21.5 1q1.5-1.6 3.4-2.9 3-.3 6-1l12-2.4 9.4-1.6 2.6 1.1c5.7 2.8 10.4 7.7 17.2 7.7" class="b"/><path d="M9.9 131.8c2.4.3 4.7-1 6.8-2.2q3.7-2.2 7.7-3.4C37.1 123 42.1 136.5 52 130c.9 0 1.7.8 2.5 1.2q2.5 1 5.2.2c5.9-1.9 10.6-4.4 17.1-3.3 6.3.9 12.4 5.2 18.9 3 8.7-3 13.8-8.9 23.1-2.6 7.4 4.9 9.9 4.1 16.3-1.7 3-2.8 6.3-5.7 10.3-7.2q5-.9 10.3-1.5 4.3 0 8.5 1.3c3.7 1.2 7 3.4 10.3 5.5q3.6 2 7.7 2.5" class="b"/><path d="M9.9 128.3c3.1.7 6-1.5 8.5-3a24 24 0 0 1 7.7-3.3c11.5-2.2 17 10.2 25.8 5.2.8.1 1.7.7 2.5 1q2.2.6 4.3-.2c4.3-1.4 8.3-4 12.9-4.5C77 122.8 82 125 87 127c10.5 4.8 14.7-3.8 24-5.2 6.3-.7 10.5 5.4 16.3 6.6 3.3.4 6.2-2 8.6-4 3.6-3.3 7.3-6.8 12-8.4 6.3-2 13.5-1.7 19.7.6 5 2 9 6.1 14.5 7" class="b"/><path d="M9.9 125c4.9.8 10.5-7.5 18-8 4.7-.5 9 1.8 12.8 4.4 2.4 1.5 4.9 3.3 7.7 3.6q1.8.1 3.5-.5l1.7.3c4.6 1.1 9.4-3.5 13.7-5 6-2.7 12.3-1.6 18 1.4 3.3 1.6 6.5 3.8 10.3 3.8 4.4 0 8-3.2 12-5 11.4-5.8 16.3 8 24.8 4.3 5.9-3 10-8.9 16.3-11.2a28 28 0 0 1 20.6.7c4.3 2 8 5.5 12.8 6.7" class="b"/><path d="M9.9 121.6c6.4-1.4 11.5-6.3 18-7.7 3.3-.8 7-.6 10.2.5q3 2 6 4.3c1.8 1.2 3.8 2.6 6 2.9h2.6q1.8.1 3.4-.3c5.7-2.3 10.1-7.2 16.3-8.2 5-1.1 10.3.5 14.6 3.1 2.8 1.7 5.5 3.7 8.6 4.9 3.8 1.6 7.8-.7 11.1-2.5 4.7-2.7 8.7-3.5 13.7-1 4.2 2 9 5.7 13.7 3.1 5.2-2.7 9.2-7.5 14.6-10a25 25 0 0 1 20.6.2c4.4 2.2 8 5.9 12.8 7.4" class="b"/><path d="M9.9 117.8c1.6 0 3.4.6 5.1.4 5.4-.5 10.1-3.6 15.4-4.5 12.8-2.6 18.4 8 27.5 3.3 4.6-2.3 8.3-6.3 12.8-8.7a19 19 0 0 1 6-1.2 24 24 0 0 1 15.4 6.1c2.7 2 5.4 4.3 8.6 5 3.7.5 7-2 10.3-3.2 7.7-3.4 12.7 2.4 19.7 3.2 4.3.2 7.8-2.8 11.2-5 3.1-2.3 6.5-4.6 10.3-5.8 5.5-1.8 11.9-1.4 17 1.3 4.5 2.4 8.1 6.2 13 7.8" class="b"/><path d="m9.9 112.8.8-.7c10.3 5.6 14.8.8 24.9.2 4.7-.3 9.2 1.3 13.7 2.3q2.2.5 4.3 0 1.3.3 2.5.2c4.3-.4 7.8-3.4 11.2-5.7a40 40 0 0 1 15.4-7q1 .1 1.7.4 4.8 1.3 8.6 4.6c4.5 3.3 9.1 9.5 15.4 7.2 3-1 6.2-2.4 9.5-2.2 6 .1 11.9 4.4 18 2 4.5-1.7 8.4-5 12.8-7 6.1-3 13.6-3.6 19.7-.3 4.7 2.3 8.4 6.7 13.7 7.7" class="b"/><path d="m9.9 106.6.8-.4c12.5 7 13.4 5.2 26.6 4a41 41 0 0 1 8.6.7c2.8.4 5.8 1 8.5-.2 10 3.9 16.3-10.7 36.9-11 3.4.2 9.8 8.7 13.7 10.5 3.5 2.3 7.4.6 11.1 0 9.9-1.2 14.4 4 24.9-1.1 8.3-4 16.5-8.2 25.7-4.2 5.2 2 9.5 7.5 15.4 6.3" class="b"/><path d="M9.9 100.6c11 5.5 13.3 8.6 26.5 7q4.8-.4 9.5 0c3 .4 6.5.8 9.4-.7 5.3 2.7 10.6-.4 15.4-2.7q6.6-3.2 13.7-4.4c5.1-.8 10.3-.6 15.5-.5 3.9 3.6 7.7 9 13.7 8.7 2.5-.1 5.1-.6 7.7-.5q4.7.2 9.4.5c6.3.4 12.2-2.2 18-4.1 5-1.7 10.4-2.4 15.4-.9 3.7 1 6.9 3.1 10.3 4.5 2.6 1 5.5.2 7.7-1.3" class="b"/><path d="M9.9 96.7c9.6 3.9 14.4 9 25.7 7.7a62 62 0 0 1 10.2-.1c3.5.2 7.2.9 10.3-1 6 3 12.2-.4 18-2q5.5-1.7 11.2-2c7.1-.3 14.3.7 21.4.5 5.7 6 9.8 4.7 17.2 4.7 4 0 8 .3 12 0q5.6-.7 11-2.2c5.1-1.2 10.4-2 15.5-1 8.9 1.9 12 6.9 19.7-1.3" class="b"/><path d="M9.9 94c10.2 3.5 14.6 8.6 26.5 6.9q5.2-.7 10.3-.3c3.4.4 7.2 1.3 10.3-.5 5 2.3 10.4.3 15.4-.6a57 57 0 0 1 17.2-.6c7.3.6 15 1.9 22.3.3 1.4.3 2.8 1.3 4.2 1.5 3.4.7 7 .4 10.3.5q6 0 12-.3 5.7-.6 11.2-1.5c2.2-.5 4.6 0 6.8.3q4.7.5 9.5.5c5.1 1.2 7.4 1.8 12-1.5q2.2 0 4.3.5" class="b"/><path d="M9.9 92.7c6.5 1.5 12.7 5.5 19.7 5 4.5-.2 9-1.5 13.7-1.5 3.5 0 6.9 1 10.3 1.5q2.1.2 4.3-.5 2 .6 4.2.6c3.5-.2 7-1 10.3-1.2q6-.5 12 .2 9.8 1.2 19.7 1c3.7-.2 7.5.2 11.2-.3l1.7-.3 2.5.4q3 .3 6 .2l12-.1c2.9 0 5.8-.7 8.6-.3 6 .6 12 .3 18 .2l7.7.2q5.2-.2 10.3 0" class="b"/><path d="M9.9 92.4c6 .9 12 2.9 18 1.5 5.4-1 10.7-3.1 16.2-2.8 4 .1 7.5 1.8 11.2 3 5.7 1.1 11.4-1.2 17.1-1 5.8-.1 11.4 1.3 17.2 1.3 5.2 0 10.2-1.6 15.4-2q3.4-.2 6.9.4 3.3 1 6.8 1.5 6.4.2 12.9 0 10.7.4 21.4-.9c5.2-.8 10.3.4 15.4 1q2.7.1 5.2-.8 4.3.7 8.5 0" class="b"/><path d="M9.9 91a47 47 0 0 0 15.4-1.8c7.2-2 14.7-5.5 22.3-3.2 2 2.3 4.4 5 7.7 5l2.6-.3q.8.3 1.7.3 2-.3 3.4-1.5 1.3-.5 2.6-.6 4.3-.6 8.5 0c6.5 1 12.4 3.4 18.9 1 3.6-1 12.1-5.5 15.4-4 3.5 3.8 6.8 5.5 12 5q6.4-.4 12.9 0 5.6.3 11.1-.2c4-.3 8-1 12-1q4.4-.2 8.6.6c3.4.6 7.3 1.4 10.3-.8q3.4.3 6.8-.4" class="b"/><path d="M9.9 86.6q7.4-.5 14.5-2.7c6.1-1.8 12.5-3.9 18.9-3 2.5 2.2 4 6 7.7 6.6 1.8.2 3.5-.8 5.1-1.2 2.2 1.3 4.7 1.8 6.9.2q1.4-1 2.6-2.4c.3-.4 1-1.2 1.7-1.3q3 0 6 .8c8.2 2.3 12.9 6.6 21.4 1.6 2.7-1.3 8.4-5.4 11.1-5.1 2.8 2.8 5.5 6 9.5 7.1 2.5.6 5.2.3 7.7.1q4.2-.3 8.6 0c3.6 0 7.4.4 11.1.2q5.6-.2 11.1-.7 5.2-.3 10.3.3c4.2.6 8.7 1 12-2.1q3 .1 6-.8" class="b"/><path d="M9.9 81c7.2-.5 14.2-2.8 21.4-3.7q3-.3 6-.2 1.7-.1 3.4.4c2 2.4 3.7 5.8 6.9 6.6 2 .2 3.6-1.2 5.1-2.2 2 .4 3.9 2 6 2.2 4.6.3 7.5-4.9 10.3-7.8 3.7.6 7.1 2.4 10.3 4.3 3.1 1.7 6.5 4 10.3 3.4 5.9-1.3 9.9-6.6 15.4-8.8 9.5 9.8 9.9 9.3 23.1 8.6 6.9 0 13.8.6 20.6.3q6.4-.2 12.9 0c6 .2 9.7.3 14.5-3.6q3.2-.1 6-1.4" class="b"/><path d="M9.9 75.3c7.1-.5 14.2-2 21.4-1.8l4.3.3c.8.1 1.9.3 2.5.8 3.4 4.3 6 9 11.2 3.6 2.8.8 5.5 2.5 8.6 2.5 5.7-.4 8.6-7.5 12.8-10.5 3.8 1 7.2 3.4 10.3 5.8 3.7 2.8 8.2 6.6 12.9 3.6 2.7-1.6 5.1-4 7.7-5.8 1.3-.9 2.7-2.3 4.3-2.4 10.3 11 12.4 9.4 26.5 9.1l16.3.2c6.3-.1 12.7.5 18.9-.9q3.8-.8 6.8-3.3 1.7-.3 3.5-.6 2.2-.5 4.3-1.8" class="b"/><path d="M9.9 70.1c6.2-.5 12.6-1.1 18.8-.3l6 1.2c.6.2 1.4 1 1.7 1.6 2.8 3.5 5.5 7 9.5 2.6 3.3.9 6.7 2.6 10.3 2 6.8-1.2 9.8-9 15.4-12.6 10.1 2.4 16 15.7 23.1 12 4.4-2.2 7.6-6.5 12-8.9 1 .3 1.9 1.4 2.6 2.1q2.4 2.4 5.1 4.4c4 2.7 9 3.3 13.7 3.1l11.2-.3q7.7 0 15.4-.2a37 37 0 0 0 17.2-4.1q1.2-.4 2.5-.1c2.8-.1 5.5-1.5 7.7-3" class="b"/><path d="M9.9 65.6a47 47 0 0 1 22.2 2c.6.1 1.4 1 1.7 1.5a27 27 0 0 0 3.5 3.7c2.5 2 3.7 1 6-.5 4 1.7 8.7 2.3 12.8.6C62.4 70 65.5 63 71.6 60c1-.4 2.3.2 3.4.5q3.8 1.3 6.9 4c3.7 2.8 8.7 10.4 13.7 9.2 2.3-.7 4.2-2.4 6-4q3.1-2.9 6.8-5.2l.9.1c4.5 4.4 9.8 8.4 16.3 9 4 .5 8 .1 12-.1l12-.9a87 87 0 0 0 15.4-2.5q1.3-.6 2.6-.7c6.5.1 9.3.2 14.5-4.2" class="b"/><path d="M9.9 61.6c6.5-1.1 13.5-.6 19.7 2 3.3 2.2 6.5 10 11.1 5.5 5 2.3 9 1.5 13.7-.7 6.7-2.6 10.1-10.4 17.2-12.3 14-1.7 19 17.3 27.4 14 4.4-2.1 7.5-6.5 12-8.5.9.3 1.8 1.2 2.6 1.8q2 1.6 4.3 3c8.4 5.7 17.1 4.2 26.5 2.7q7-.9 13.7-2.4c5.7.7 11.6 1 17.2-.5 2.6-1 4.8-2.9 6.8-4.7" class="b"/><path d="M9.9 58A27 27 0 0 1 27 59.5c3.4 2.4 7.2 10.5 12 6.6 4.7 2.3 8.6.6 12.9-1.7q4.6-2.1 8.5-5.4c3.1-2.5 6.2-5.8 10.3-6.3 9.7-.5 13 .7 19.7 7.8 2.9 2.7 6 7.2 10.3 6.6 5-1.4 8.1-6.1 12.9-8 1 .1 1.8 1 2.5 1.5l4.3 3c6.8 4.2 13 4.2 20.6 2.5l6.9-1.6 3.4-.9 2.6.6c6.7 1.3 13.9 1.9 20.5-.1 3.1-1.2 5.5-3.6 7.7-6" class="b"/><path d="M9.9 54.8c4.5-1.4 10.2-1.8 14.5.4 2.7 2.2 5 5 7.7 7.2 2.4 1.7 3.5 1.5 6 .4 4.4 2.2 8.4-.3 12-2.6 3-2 6.6-3.3 9.5-5.6 3.3-2.4 6.8-5.6 11.1-5.4C81.6 49.2 85 48 93 56.6c3 2.8 5.8 7 10.3 7 4.6-.4 9.4-6.7 13.7-6.8 9.2 7 14.5 8.6 25.7 5 5.8-1.8 3.8-1.3 9.4 0 6.9 1.4 14.7 2 21.5.2 3.6-1.1 6.2-4.2 8.5-7" class="b"/><path d="M9.9 51.7c3-1.2 8.1-2.6 11.1-.9 2.9 1.6 5.3 4 7.7 6.1 2.3 2.1 5.5 4.7 8.6 2.5 4 1.9 7 .4 10.3-2q2.4-1.9 5.1-3.5 2.7-1.2 5.1-2.6c3.3-2 6.5-4.6 10.3-5.4 4.3-.4 8.6 0 12.9-.2 5.4-.3 10 2.4 13.7 6.2 3 2.8 5.6 6.4 9.4 8 2 .8 4.2.1 6-.9 2.8-1.6 5.5-3.5 8.6-4.6 10.8 7.3 13.5 7 25.7 3.3a56 56 0 0 0 20.6 2.6c8.8.1 11.8-.7 17.1-8" class="b"/><path d="M9.9 48.6a17 17 0 0 1 5.1-1.8q3.1.4 6 1.8 4.2 2.5 7.7 5.5c2.4 1.9 5.6 3.9 8.6 2 4.2 1.5 5.9.7 9.4-1.8q3-2.2 6-4.2c1.6-.8 3.6-1.4 5.1-2.3 3.4-1.8 6.6-4.3 10.3-5.2 1.7-.4 3.5-.2 5.2-.3H80c3.8 0 7.7-.2 11.2 1.5 3.3 1.5 6 4.3 8.5 6.8 3 2.9 6.5 7.3 11.2 6 3.3-1 6-3.4 9.4-4.4 7.7 5.6 12.6 5.6 21.4 2.7 9.3 3 13.2 1.6 22.3 1.5 9.5.4 12 2.3 18-6.5" class="b"/><path d="M9.9 45.3c13.7-4 20.3 12 28.2 7.3 4.4 2 6.8.1 10.3-2.5a28 28 0 0 1 5.2-3.2q2.6-.9 5.1-2.2c3.6-2 7-4.5 11.1-5.4 4-.7 8.1-.2 12-.4 3.7.1 7.6-.3 11.2 1 7.5 2.4 13.1 14.5 19.7 13.5 3-.5 5.6-2.7 8.6-3.2 6.2 4 11.1 3.9 18 1.9.8-.2 1.8.2 2.5.4q1.8.5 3.5.7c6.6 1.2 13-2 19.7-1.4 8.7.8 11 5 17.1-4.2" class="b"/><path d="M9.9 43.5c14.4-4.8 20.8 10.2 30 5.6q2.5 1.4 5.1.7c3.6-1.3 6.5-4.2 10.3-5 4.3-1.5 8-4.5 12-6.6q3.6-2 7.7-2.6 5.6-.2 11.1 0c3.8-.1 7.8 0 11.2 2s5.9 4.9 8.5 7.6c2.7 2.7 6.3 6.2 10.3 4.4l3.5-1.4q.8-.3 1.7-.2a18 18 0 0 0 8.5 2c3 0 5.8-1 8.6-1.1 5 1.6 9.6 1.5 14.6-.1q3.7-1.2 7.7-2l5.1.2c7.7 1 10.4 7.3 16.3-1.8" class="b"/><path d="M9.9 41.6c15.4-6.2 21.8 8.6 32.5 4.1 4.3 1.9 6.3.4 10.3-1 8.6-1.7 12.4-6.3 19.7-10 4-2 8.5-2.5 12.9-2.5 3.1 0 6.4-.2 9.4.6 5.4 1.4 9.1 6 12.9 9.7 2 2 4.6 4.6 7.7 4 1.4-.1 2.9-1 4.3-1.2 5.2 2.3 11 1 16.3.1 1.6-.2 3.4.8 5.1 1q3.8.6 7.7-.4l3.4-1.2c2.9 0 5.8.6 8.6.7q7 .6 13.7.4c1.7 1 3.7 1 5.2-.3q1-1.2 2.5-1.7" class="b"/><path d="M9.9 39.4c9-4.2 15.5-1.8 24 2.1 4.4 2 8.2 2.2 12.8.7 2.1 1.1 4.6 1.1 6.9 1a24 24 0 0 0 7.7-1.5c4.3-1.7 8-4.8 12-7.1q5.2-3.1 11.1-4c5.9-.8 12 .2 17.2 3.2 3 2.3 5.4 5.6 8.5 8 2.7 1.9 4 1.5 6.9.9 6 1.6 12-.8 18-1.3 1.4 0 2.9.8 4.3 1.1q5.2 1.6 10.3-.3c3.4.4 6.8 1 10.3 1q4.6 0 9.4-.2c4.3-.1 8.6.5 12.8.1" class="b"/><path d="M9.9 37.3c9.8-5 16-3.6 25.7.6q4.6 1.8 9.4 2c2.9-.2 5.7-.9 8.6-1 2.2.1 4.6.7 6.8.9C71.7 40.7 78.1 28 93 31c5.3 1 9.9 4.1 14.6 6.6q1.9 1.7 4.3 2.2 3 .2 6-.2c5.6-1 11.2-3 17.1-2.7 1.2 0 2.4.7 3.4 1q3 1.4 6 1.9c1.7.2 3.5-.2 5.2-.4q2 .4 4.3.4c6 .2 11.8-2.7 18-2.6 1.8 1 3.7 2.8 6 2.6.8-.2 1.7-.9 2.5-1.1l1.7.3" class="b"/><path d="M9.9 35.3c7.9-3.7 13.5-5.8 22.2-3 3.7 1.2 7.4 3 11.2 3.7q4.2.7 8.6.3 3.4 0 6.8-.4l2.6-.7c1.7.3 3.4 1 5.1 1.2 6 .5 11.4-3.3 17.2-4.5q6.5-1.5 12.8.6c5.3 1.5 10.6 5 16.3 3.5 3-.8 5.7-2.2 8.6-3.2 5.1-2 11-2.4 16.3-.8 3 1.5 6 3.5 9.4 4.2q2 .4 4.3.1 2 .3 4.3 0c3-.6 5.8-2 8.5-3 1.6-.9 3.5-.5 5.2 0 2.6.8 5 2.9 7.7 3.1q2-.2 3.4-1.5l.9-.9.8-.3" class="b"/><path d="M9.9 32.9c2.6-.6 5.1-2 7.7-3q5.3-2.4 11.1-2c5.7.4 10.8 3.2 16.3 4.4q4.6 1 9.4.7 5.3.3 10.3-1.9c7.8 3.6 12.8 1.1 20.6.2q5.6-.5 11.1.7c2.8.5 5.7 1.2 8.6 1l1.7-.2a5 5 0 0 0 2.6 0c2-.5 3.5-2.2 5.1-3.4q3-1.8 6-3.2a22 22 0 0 1 17.1 0c3 1.1 5.8 2.8 8.6 4.3 2.1 1.1 4.4 2.3 6.9 2.5 2.6.2 5.2-.6 7.7-1.2q3.8-1 7.7-.7c6 .9 8.5 4.4 13.7-1.3" class="b"/><path d="M9.9 29.5c2.7.4 5.3-1 7.7-2 2.7-1.3 5.6-2.6 8.5-3 6.6-1.1 12.8 2 18.9 3.8a36 36 0 0 0 10.3 1.3q6 .4 11.1-2.7c8.2 3.5 13 2.7 21.4 2.5 5.2-.1 10.4.8 15.5-.5 1.8.5 3.3 1.1 5.1.1 3.1-1.7 5.2-4.9 7.7-7.3a23 23 0 0 1 12-3.6 26 26 0 0 1 15.5 5.3c2.7 1.8 5.4 4 8.5 5.4q2.5 1.1 5.2.6c3.7.6 7.4-.5 11.1-.5 5.8.2 8.6 2.2 13.7-2.2" class="b"/><path d="M9.9 25.6c2.8 1.4 6 0 8.5-1.4q3.3-1.6 6.9-3c7.5-2.4 14.4 1.4 21.4 3.7Q53 26.7 59.6 26c2.8-.4 5.4-1.8 7.7-3.4a53 53 0 0 0 33.4 2.1c.9.2 1.8 1 2.6 1.2 2.2 1 4.4-.5 6-2 3-2.9 5.2-6.6 8.6-9q2.8-1.4 6-1.8c7.1-1.2 14.8.3 20.5 4.9 3.4 2.5 6.4 5.7 10.3 7.5q2 1 4.3.6c.8-.1 1.8-.5 2.6-.4 2.7.7 5.7.5 8.5.5 4.3.2 8.3 0 12-2.4" class="b"/></svg>