<svg xmlns="http://www.w3.org/2000/svg" id="a" width="1920" height="2400" viewBox="0 0 192 240"><defs><style>.b{fill:none;stroke:#fff;stroke-miterlimit:10;stroke-width:.3px}</style></defs><path d="M0 0h192v240H0z" style="stroke-width:0"/><path d="M9.5 213.6h13c5.7-.2 8.2.4 12 5l4.3 5.6c1.2 1.4 2.5 3.3 4.3 4 3.2.3 5-3.3 6.9-5.4 1.5-2.1 3.2-4.4 5.1-6 2-2.1 4.2-2.7 6.9-3q4.3-.3 8.6 0c3.6 0 7.4.9 10.3 3 3.2 2.3 5.8 5.4 8.6 8.1 3.4 3.3 6.3 4.7 10.3 1.4 2.3 1.8 3.6 2.8 6 .6 3.2-2.7 5.4-7.2 9.5-8.6 4.5.6 8.4 3.2 12 5.6 3 1.8 6 3.8 9.5 4.3 5.6.4 10.5-3.4 15.5-5.3 2.8 1.6 5.3 4.2 8.6 5 2.9.8 5.9-.1 8.6-1a18 18 0 0 1 13 .6" class="b"/><path d="M9.5 210.2h13c2.6 0 5.4.1 7.7 1.6 4.3 3 7.1 7.7 10.3 11.7l1.7 1.2 1.7.1c2.8-.6 4.4-3.4 6-5.4 2.2-3 4.6-6.1 7.8-8.1q2-1.1 4.3-1c3.4 0 7-.2 10.3.4 9.6 1.6 12.9 11.4 19.8 14q2.3.3 4.3-1c.8-.5 1.7-1.4 2.6-1.5 6.1 8 8.8-5.1 17.2-8 8.5 1.5 14.6 9.5 23.2 10.6 5.5.5 10.4-2.7 15.5-4 12.1 10 14.8-2.4 27.5 2.3" class="b"/><path d="M9.5 207.2q4.4-.6 8.6-.4c2.9 0 5.9-.1 8.6.6 4.5 1.1 7.7 4.8 10.4 8.2 1 1.6 2 3.6 3.4 4.9q.8.6 1.7.9 1-.2 1.7 0c3.5-.3 5.7-4.6 7.8-7 2.1-2.6 4.5-5.5 7.7-7q1.7-.6 3.5-.4 4.3-.2 8.6.7c7 1.8 10.8 8.6 16.3 12.6 3.5 2.5 6.8.1 9.5-2.4l.8.1c7.2 9.7 8.9-4.6 19.8-7.3 8.8 3 16.2 10.4 25.8 10.7 4.8 0 9.3-1.6 13.8-2.8 10.1 7.5 13.9-3 25 .1" class="b"/><path d="M9.5 205.2q5.5-1.8 11.2-1.5a18 18 0 0 1 15.5 7.3c1.5 2.3 2.8 5.2 5.2 6.7.7.4 1.7.1 2.5.1q1.4.3 2.6-.2c3.6-2.2 5.7-6.2 8.6-9 1.7-1.8 3.6-4 6-4.6q4.9-.4 9.5 1.2c6 2.2 9.7 7.7 14.6 11.4 4.3 3.3 8 0 11.2-3h.9c6.5 9.4 9.2 1.1 15.5-2.8q2.8-1.4 6-2.7c3.8 1.2 7.4 3.4 11.2 5a40 40 0 0 0 30 3.3c1.2.2 2.4 1 3.5 1.3 6.3 1.6 11-4.5 19-3.2" class="b"/><path d="M9.5 204c7-3.7 16.4-4.5 23.3-.1 4 2.2 5 7.4 8.6 10.1q.8.6 1.7.5l1.7-.3c4 1.5 7-3.5 9.5-6q2.4-2.8 5.1-5.4l1.7-1.2a20 20 0 0 1 8.6 1.7c3 1.3 5.4 3.4 7.8 5.4 3 2.5 6 6.3 10.3 5.8 3.4-.8 5.9-3.7 8.6-5.7 8.4 11.3 9.2 3 18-.5l5.2-2c1.2-.1 2.4.7 3.5 1l5.1 2c8.4 2.7 17 4.8 25.8 5.2q4.8.3 9.5-.7a9 9 0 0 0 5.2.6c4.6-1.1 8.8-4 13.7-4" class="b"/><path d="M9.5 203.5c7.1-5.4 17-7.5 25-2.6 2.7 2.5 6 11 10.3 10.1 3-1.3 3.2 2.4 8.6-2.7q2.7-2.9 5.2-5.7c1.8-2.1 2.2-2.5 5.1-2.1 8.9 1 14.9 11 21.5 10.6 4.1-.6 7.2-3.8 10.4-6.1l.8-.1c2.4 2.6 5.3 7 9.5 6 2.1-.5 4-2 6-2.9q2.5-.8 5.2-1.7l3.4-1.4c1.7 0 3.4 1 5.2 1.3q5.5 1.3 11.1 1.9c7.5.7 15 1.9 22.4 2.8q3.4.4 6.9 0 2.2.4 4.3 0c4-1.2 7.8-3.7 12-4.4" class="b"/><path d="M9.5 202.9c5.7-4.5 11.4-8.5 19-7.8q2.2 0 4.3.7c.8.3 2 .7 2.5 1.5q3 3.8 6 7.6c1.9 2.1 4.2 3.8 7 2 5 2.9 8.8-3.6 12-6.7 4.6-.5 9 1.8 12.9 4 2.7 1.5 5.5 3.3 8.6 3.5 5.7 0 9.8-4.7 14.6-7 4 4 7.5 8.8 13.8 6.3q3-.9 6-1.5 2.6-.7 5.2-1.7c7.8 2 16 .8 24 1q6.2 0 12.1 1.2c5 1 10.5 2.8 15.5 1 3.2-1.3 6.2-3.2 9.5-4.4" class="b"/><path d="M9.5 201.5c6.3-4.8 11.3-10.2 19.8-10.1 2 0 4.2 0 6 1q3.4 3.1 6 6.7c2.3 2.8 5.6 6.4 9.5 4.8.8 0 1.8.4 2.6.4 2.5-.1 4.3-2.1 6-3.7 4.8-.8 9.4 1 13.8 2.5 9.8 3.8 15.5-3 24-5.9 3.9 3.2 7.5 7.6 13 7q4.8-.1 9.5-1.1 1.6-.6 3.4-.2l3.4.1a71 71 0 0 0 11.2-1c5.7-1 11.5-2 17.2-1.4q4.5.7 8.6 2.1c3 1 6.4 2.3 9.5 1 3.3-1.2 6.3-3.4 9.5-5" class="b"/><path d="M9.5 199.3c6.3-4.4 10.7-11 19-11.7q4-.6 7.7.4c5 3.3 7.8 9 13 12 1.7 1 4 .8 6 .8 1 .2 2.3-.4 3.4-.6l5.1-.3c4.6.2 9.2 1.4 13.8.8 7.7-.9 14.5-5.7 22.4-6 2.6 2 5.3 4.4 8.6 5.4 3.6 1 7.5.8 11.1.6 4.6 0 9.3.2 13.8-.4 4.1-.6 8-1.8 12-2.8 4.5-1.2 9.3-1.8 13.8-.7q2.2.5 4.3 1.4l3.5 1.8c2 1 4.7 1.3 6.8.3q4.5-2.7 8.6-5.6" class="b"/><path d="M9.5 196.2c5-3.2 8.4-8.5 13.8-11q4.6-2 9.5-1.8c2 0 4.3 0 6 1.1 6.5 4.2 9.8 11.4 18 12.9h7.8c4.3 0 8.7 0 12.9-.8 4.6-.8 9.2-2.2 13.8-3q6-1 12 .3c3.5.8 6.8 2.5 10.3 3.4 1.7.3 3.5 0 5.2 0q3 .4 6-.2c3-.3 6.3.6 9.5.3 5.6-.1 10.9-2.8 16.3-4q5.2-1.3 10.3 0c2.7 1.7 5.4 3.8 8.6 4 1.7 0 3.7.3 5.2-.7 1.3-.8 2.3-2.2 3.4-3.1l4.3-3.2" class="b"/><path d="M9.5 192.4c8.6-6.9 10.6-13.1 23.3-12.8 3.8 0 8 .1 11.1 2.7q4 3.1 7.8 6.7c2.7 2.9 6.3 7 10.3 3.8q7.8.4 15.5-.6c6.6-.7 13.2-1.6 19.8-.7 4.6.5 9 2.4 13.8 2.5 1 0 2.4-.2 3.4-.6.8-.3 1.7-.8 2.6-.7l2.6.6c2.5.6 5.2 1 7.7.4 1.1-.2 2.3-.8 3.4-.9a22 22 0 0 0 13.8.1c4.2-1.3 8.5-3 13-3 1.5 0 2.9 1.2 4.2 1.8 2.6 1.4 5.6 3 8.6 2q2.2.8 4.3-.4c3.2-2 4.5-6 7.8-7.8" class="b"/><path d="M9.5 188.3c2.8-2.1 5.2-5 7.8-7.2 6.3-6 12.6-5.1 20.6-5 9.2 0 13 7.3 19 12.8 4 3.7 7.2.6 10.3-2.6 8.3.6 16.7-.2 25 1.3l9.4 2.2c2.8.6 5.8 1.2 8.6.5 2.5-.5 4.6-2.2 6.9-3.2 7.1 2.4 10.2 5 18 2.2 6 2.4 10.5 1 16.4-.8l4.3-1c1.1.2 2.4.9 3.4 1.3 2.5 1 5.1 2 7.8 1.7.7 0 1.8-.5 2.5-.5a9 9 0 0 0 3.5.6c4.4-.8 6.8-5.8 9.5-9" class="b"/><path d="M9.5 184.3c5-4 9-10 15.5-11.3 3.1-.6 6.4-.4 9.5-.4 2.8 0 5.8-.2 8.6.3 6.9 1.2 10.7 7.7 15.5 12.1 4.8 4.7 8.3.5 12-3 1-1 2-2.5 3.5-2.8l1.7.2q8.3 1.1 16.3 4c4.8 1.5 9.5 4 14.7 3.7q3.2-.4 6-2.2c2.1-1.3 4.3-3.2 6.9-3.5 5 2.3 9.7 6.1 15.4 5.7 1.7 0 3.5-.6 5.2-.6l2.6.6c2.9.3 5.8-.3 8.6-1l1.7-.4 3.4.6c4.4 1 7 1.3 11.2-.4 2 .6 4 1.4 6 1.2 3.8-.7 6.2-4.4 8.6-7" class="b"/><path d="M9.5 180.4c5.2-4 9.5-10 16.4-11 4-.5 8-.2 12-.3 9.5-.3 12.6 1.1 19 8.2 2.4 2.5 4.8 6.2 8.6 6.4 3.1-.3 5.4-3 7.7-5q3.2-3.2 6.9-5.4c4.9 1 9.4 3.5 13.7 6 5 2.7 10.7 6.3 16.4 3.2 3.7-2 6.9-5.2 11.2-5.8 2.5-.6 3.2.3 5.1 1.6 9.1 6 11.3 5.4 21.5 5.4 5.2-.5 10.6 1 15.5-1l1.8-.7 3.4.7c6.7 2 8.8 1 13.8-3.7" class="b"/><path d="M9.5 176.8c10-7.4 11.4-11.7 25-11h11.2c3.9 0 7.5 2 10.3 4.7 2.4 2.2 4.5 5 6.9 7.2 2.5 2.4 5.4 3.6 8.6 1.5 4.7-3.2 8.4-8 13.7-10.3 1-.1 1.9.6 2.6 1l3.5 2.1c4.2 2.8 7.9 6.7 12.9 8.1 4.6 1 8.4-2.6 12-4.8 3.8-2.4 8.5-3.3 13-2.3 3 1.8 6 4 9.4 5.2q4.1 1.5 8.6 1.7 2.5.4 5.1.4c4.9-.3 9.7-1.9 14.7-1.3 6.4.7 9.1 3 15.4-1" class="b"/><path d="M9.5 173.6c4-2.3 7.4-5.5 11.2-7.9a21 21 0 0 1 8.6-3.2c4.6-.4 9.2 0 13.8-.2 4 0 8.5 0 12 2.3 4.6 3 7.6 8 12 11 4.5 3.3 8.8-.7 12.1-3.5s6.5-5.4 10.3-7c3.6 2 6.4 5.1 9.5 7.8 2.8 2.4 6.5 5.1 10.3 3.5 3.7-1.4 6.7-4.2 10.3-5.7 4.9-2.2 10.5-2 15.5-.3 2.6 1 5 2.7 7.8 3.4 3.1 1 6.1 2.6 9.4 3 4 .5 8-.5 12-.9q4-.4 7.8.2c3.4.8 7 1.2 10.3.2" class="b"/><path d="M9.5 170.8c7.2-3.2 12.9-9.5 20.7-11.2 4.2-1 8.6-.7 12.9-.7 4.6 0 9.7-.4 13.8 2.2 4.9 3 8.1 8 12.9 11.1 4.3 3 8.6-.3 12-3 3.2-2.7 6.5-5.5 10.3-7.3h.9c2.8 2.2 5.2 5 7.7 7.5 2.8 2.7 6.4 5.3 10.3 3.4 4.1-1.8 7.8-4.7 12-6a24 24 0 0 1 15.6 0c6.4 2 12.1 6.2 19 6.7 4.2.2 8.5-1.2 12.8-1.2 4 0 8 1.2 12 1.2" class="b"/><path d="M9.5 168.3c4.7-1.4 8.9-4 13-6.6 8.8-5.8 14.5-6.4 24.9-6.2 3.5 0 7.2.3 10.3 1.9 3.6 1.7 6.5 4.7 9.5 7.3 3.2 3 7.4 6.9 12 4.8 5.7-2.7 9.9-8 15.5-10.8l.9.2c3.5 3.2 6.2 7.4 10.3 10 3.3 2.3 7.2.5 10.3-1.2 3.3-1.8 6.7-3.8 10.3-5a24 24 0 0 1 15.5.1c4.5 1.5 8.6 4 13 5.9 5.4 2.4 9.8 1 15.4.2 4-.5 8 .1 12 .3" class="b"/><path d="M9.5 165.8c9.5-.9 16.6-7.6 25-11.2 4.3-1.8 9.1-2.3 13.8-2.3 5.1-.2 10.3 1 14.6 4 5 3.1 10.3 10 16.3 10.3 6.1 0 12.6-8 18.1-11 3.6 3.1 6.1 7.7 10.3 10.1 6.4 3.6 15.3-5.1 21.5-7q5-2 10.4-1.5c1.7.6 3.4 1.6 5.1 2.2q3 1.2 6 1.7 3.8 2.2 7.8 4.3c4.8 2.3 9 .9 13.7-.3q5.2-.8 10.4-1" class="b"/><path d="M9.5 163.1q7.7.1 14.7-3c7.3-3.6 13.9-9.6 22.3-10.4 19-2.4 25.6 13 36.2 13.5 6.2-.5 11.2-6.5 16.3-9.8h.9c3.3 3.5 6.2 8.4 11.2 9.7 8.8 1.3 15.7-9.5 25.8-10.6 5.4 2.6 11 5.7 17.2 5.8 1.3-.2 2.4 1 3.4 1.6q2.5 1.7 5.2 2.8c3.4 1.3 7-.2 10.3-1.3q4.7-1.5 9.5-2.7" class="b"/><path d="M9.5 159.6c5.8 0 11.8 1 17.3-1.2 7.8-3 13.8-9.9 22.3-11.1 6.8-1 13.9 1.5 19.8 4.6 4.6 2.3 8.8 5.7 13.8 7.4 7.4 2.4 13.3-4.5 19-8.3 4.9 5.5 8.9 11.3 17.1 7.7 5.5-2.7 9.7-7.7 15.5-10 9.2 4.6 14.2 8 25 7.2 2.8 2.4 6.4 5 10.3 3.5 4.4-1.7 8.5-4 12.9-5.9" class="b"/><path d="M9.5 155c5-.4 9.8.7 14.7 1.3q6 .6 11.2-2.6c6.9-4 12.8-9.8 21.5-8.1q6 .6 12 2.6 5.8 2.1 11.2 5c10.4 5.6 14.3 3.2 23.2-3.4l.9.2c4.7 5.7 10.3 8.8 17.2 4.1 3.6-2.4 6.4-6.1 10.3-8.1 7.9 3.7 15 8.3 24 8.2q2.3 0 4.4-.4c.8 0 1.8-.4 2.6 0 2 1.8 5 3.3 7.7 2.1 4.3-1.8 8-4.9 12-7.1" class="b"/><path d="M9.5 149.7c11.6-2.6 18.3 5.5 26.7 2.6 5-1.7 8.7-5.8 13.8-7.2 2.6-1.3 5.7-.9 8.6-1q6 .1 12 1.2 6.7 1.6 13 4.4c3.5 1.5 7.2 3.3 11.1 3.3q3.7-.3 6.9-2.1c1.4-.7 2.8-2 4.3-2.3 3.3 3.6 8.1 5.7 12.9 3.5 3.7-1.8 6.4-5.2 9.5-8 1.7.2 3.5 1.4 5.1 2q3.8 2 7.7 3.5c7.7 3 16.2 3.3 24.1 1.7 3 2.5 5.7 1.8 8.6-.3 3-2 5.7-4.4 8.6-6.4" class="b"/><path d="M9.5 144c15.4-4.9 21.7 9.8 32.7 4.2l1.7-.9q1.8 0 3.5-.3a17 17 0 0 0 7.7-3.5q1.2-.5 2.6-.5l3.4-.3q5.6-.5 11.2-.3 5.7.4 11.2 2.3c3.5 1.1 6.9 2.7 10.3 3.8q4.7 1.7 9.5.5c1.4-.4 2.8-1.3 4.3-1.5a10 10 0 0 0 10.3 1.1c2.7-1.3 4.8-3.6 6.9-5.7 5 1.2 9.7 3.6 14.6 5 6.7 2 13.8 1.6 20.7 1.6q2.6 0 5.1-.3c1.1-.2 2.5-.6 3.5 0 4.2 1.6 10.2-5.9 13.7-8.1" class="b"/><path d="M9.5 139.6c6.3-.4 12.3 2.1 18.1 4 3.9 1.3 8 1.8 12 2.5q1.8 0 3.5-.2c3.4 0 7 0 10.3-1.3q2.3-1.2 4.3-2.7l3.4-.5c7.4-1.4 15-2.8 22.4-1.3 6.8 1.2 13 5 19.8 6l3.5-.1c.7-.1 1.8-.4 2.5 0 3.7.6 7.5-1 10.4-3.3 6.1-.4 12 2.3 18 3 6 1 12-.3 18-.3 4.7-.1 9.3 1.1 13.9.5a5 5 0 0 0 3.4-.3c3.6-1.9 6.3-5 9.5-7.4" class="b"/><path d="M9.5 137.9c8-.3 15.4 4 23.3 4.6q4.2.4 8.6 0c1 0 2.3.3 3.4.1 2.8-.3 5.8.4 8.6 0 1.8-.3 3.6-1.3 5.2-2.2l6-1.2A48 48 0 0 1 93 138c3.7 1.1 7.4 2.7 11.2 3.8 1.3.3 2.8 1 4.3.9 3.4.2 6.9-.7 10.3-1 7.2-.6 14.3 1.8 21.5.7 6-.9 12-2.4 18-1.8 3.8.3 7.5 1.5 11.2 2a10 10 0 0 0 7.8-2.3c1.7-1.4 3.3-3.4 5.1-4.6" class="b"/><path d="M9.5 136.3c5.6-.2 11 1.6 16.4 2.5q5.6.8 11.2.1l6-.5q4.2 1 8.6.8c1-.1 2.3.2 3.4 0q1.8-.1 3.5-.4c5.3-.4 10.4-2.1 15.5-3.6a38 38 0 0 1 23.2-.3q1.4.3 2.6 1c1.5 1.3 3.2 2.7 5.1 3.2q2.2.4 4.3-.4 4.3 1 8.6.5c4.6-.3 9.2.1 13.8 0q6-.2 12-1.5a43 43 0 0 1 17.2-1c10.1 2 13.1 6 21.6-3" class="b"/><path d="M9.5 134.5c6.1-.4 12 1.2 18.1 1.3 5.8.2 11.4-1.5 17.2-1.5 3.5 0 7 1 10.3 1.5q1.8.1 3.5-.1l4.3.2c6.6-.1 12.6-3.2 19-4.7a33 33 0 0 1 15.4 0l1.7 1.4c2.2 1.6 4.8 3.5 7.8 3.2 1 0 2.3-.8 3.4-.9l2.6.6q3.9.6 7.7.4c4.6-.1 9.2.1 13.8-.3 4.6-.3 9.2-1.4 13.7-2.1q7-1.3 13.8-.1 4 .5 7.8 2.3c1 .3 2.3 0 3.4.1 3.6.4 6.9-1.9 9.5-4.2" class="b"/><path d="M9.5 132c5.5-.2 11 .4 16.4.4 4.6 0 9.2-.8 13.8-1.4q5.6-.9 11.1.2c2.6.4 5.2 1.3 7.8 1.2a12 12 0 0 0 3.4-.8q1.3.1 2.6.5c6.6 1.4 12.8-1.9 19-3.6q4.6-1.3 9.4-1.2c1.4.1 3 0 4.3.7 2.4 1.7 4.8 3.6 7.7 4.3q2.7.4 5.2-.8 1.3.1 2.6.4 2 .5 4.3.5 9 .1 18-.1c4.6-.2 9.2-1 13.8-1.5a52 52 0 0 1 17.2.4q1.2.8 2.6 1.2c1 .2 2.4-.4 3.4-.1 3.8.6 7.4-1 10.4-3.2" class="b"/><path d="M9.5 129c6.3-.2 12.7.2 19-.1 5.7-.3 11.4-1.5 17.2-1.5 4.3-.2 8.6 1.3 12.9 1.6 2.4.2 4.7-.8 6.9-1.5 3.2 1.4 6.8 2 10.3 1 5.4-1.3 10.7-3.7 16.3-3.9q3-.1 6 .4c2.2 1.3 4.5 2.8 7 3.6q3 .9 6-.2 5.5 1 11.1.5c6-.2 12 .2 18.1 0 6 0 12-.9 18-.9q3 0 6 .2c1.2.3 2.4.9 3.5.8 1.7-.4 3.5 0 5.2 0q5 0 9.4-2.7" class="b"/><path d="M9.5 125.5q10.8.3 21.6 0c4.8-.3 9.7-1 14.6-1 4.3-.2 8.6.7 12.9 1 3 .3 6-.6 8.6-1.8.8 0 1.8.6 2.6.9q1.6.7 3.4 1c3.2.3 6.4-.7 9.5-1.6q4.6-1.6 9.4-2 4.8-.2 9.5 1 2.5 1.3 5.1 2.2 2.6.6 5.2.2c3.1.4 6.3 0 9.5-.2 7.4-.7 14.9 0 22.3.3q8.7.1 17.2 0c4.3 0 8.7.3 13 0q4.5-.5 8.6-2.4" class="b"/><path d="M9.5 121.8c4.9.5 9.8.3 14.7.4q11.2 0 22.3-.6c4.6-.2 9.2.5 13.8.6q4.6-.3 8.6-2.2c4.8 2.4 7.7 2.7 13 1.3a36 36 0 0 1 18-1.3c4.2.8 8.5 2.2 12.9 2.2 4-.1 8-1.1 12-1.6q6.9-1 13.8-.4c9.2.7 18.3 2.1 27.5 1.8a46 46 0 0 0 16.4-2.3" class="b"/><path d="M9.5 118.3c5.4.7 11 .3 16.4.4h19.8q5.6-.2 11.2 0 6.6.5 12.9-2c7 3.7 10.8 1.3 18 .2q5.7-.8 11.2.3c3.7.6 7.4 1.6 11.2 1.5 2.3-.3 4.6.3 6.9-.2 3-.6 5.7-2.3 8.6-3.1a51 51 0 0 1 18.9-.9q2.2.1 4.3 1c3 1.4 6.1 3.1 9.5 3.2q1.7 0 3.4-.5l1.7-.6h1.7q8.7.8 17.3-1.4" class="b"/><path d="M9.5 115c7.5.9 15-.5 22.4-.2q10.8.5 21.5.5c4 0 8.1.2 12-.5q2.3-.5 4.4-1.2c1.1 0 2.3 1 3.4 1.2q2 .6 4.3.5c3.8-.3 7.4-1.5 11.2-1.7 4.9-.5 9.8.8 14.6 1.5q4.4.6 8.6-.4c1.1-.1 2.3.5 3.4.5q2.2.2 4.3-.1c6-1.3 11.9-3.9 18.1-3.1 9 .8 15 6 24.1 1.3l1.7-.8 1.8.1q2.5.6 5.1.8 6 .3 12-.8" class="b"/><path d="M9.5 111.8c4 .3 8.1-.3 12-.8q6-.8 12.1-.6c7.5.3 15 1.5 22.4 1.5 4.6 0 9.3-.1 13.8-1.4 4.9 2.7 10.3.6 15.4-.1a31 31 0 0 1 8.6 0c6.8 1 11.4 2.6 18.1 0 7.2 2.8 11 .8 18 0q4.8-.3 9.5.3c12.1 2.1 14 1.5 25-3.8a38 38 0 0 0 18 2.1" class="b"/><path d="M9.5 108.5c7-.5 13.7-3 20.7-3 8.1-.3 16 2.2 24 2.8a81 81 0 0 0 13-.4q1.3-.3 2.6.1c4.8 1.5 9.7-1 14.6-1.5q5.2-.6 10.3.6c3.4.7 6.9 1.8 10.3 1.3q2.2-.4 4.3-1.2 1.3-.6 2.6-.8 4 2.2 8.6 2c4.6-.1 9.2-.8 13.8-.5 6 .3 12.2 1.4 18-.7 4.5-1.5 8.5-3.9 13-5.3 3.3 1.4 6.7 2.9 10.3 3.3l3.4.2c1.2 0 2.6 0 3.5.9" class="b"/><path d="M9.5 105c4.3.3 8.4-1.3 12-3.4q8.2-1.9 16.4-.5c5 .9 9.7 2.5 14.7 3.4a58 58 0 0 0 14.6.2q1.2.4 2.6.4c3.8-.2 7.4-2 11.1-2.7q6.2-1.3 12 .5c3 .7 5.7 1.8 8.7 2.1 3.3.4 6.5-1 9.4-2.3 6.3 3.3 10.6 2.2 17.2 2 5.2-.2 10.4.7 15.5.2 6.2-.5 11.6-3.5 17.3-5.7q2.5-1 5.1-1.4c1.2.1 2.4 1 3.5 1.5q4.8 2.4 10.3 2.7l2.5 1.8" class="b"/><path d="M9.5 101.6c6.8.7 13-2.6 19-5.5 1.5-.9 3.5-.3 5.1-.2 5.4.6 10.4 2.6 15.5 4.2q6.4 1.8 13 1.5 6 .2 12-.7c4.3-.6 8.6-2 12.9-3l2.5-.5q2.3.6 4.3 1.4c6.3 2.7 10 4.3 16.4.8 6.5 3 9.6 1.8 16.3 1.6 5-.3 9.8.5 14.7.4 4.1 0 8.2-1.4 12-3 4.2-1.6 8.4-3.6 13-4 .3 0 1.2-.1 1.6 0q1.8.8 3.5 1.8 3.2 1.6 6.9 2.2c1.4.8 2.8 2 4.3 2.6" class="b"/><path d="M9.5 98.2c6.3.4 12.3-1.5 18.1-3.7q3.8-1.7 7.7-2.3 3.6.8 7 2.2c3.6 1.3 7.3 2.9 11.1 3.5q3.8.5 7.8.3h8.6c7 .2 13.8-1.5 20.6-2.6l3.4-.4c1.2 0 2.5-.2 3.5.5 4 2.3 7.7 3.5 12 1.5 6.3 2 9.4.3 15.5-.2 5.5-.4 11 1 16.4 1.2 4.1.2 8.2-1 12-2.5 5.2-1.9 10.7-4.4 16.4-3.3q2 1.3 4.2 2.2 1.7.7 3.5 1.2c1.5 1 3.3 2.2 5.1 2.4" class="b"/><path d="M9.5 94.8c7.7 0 15-2.3 22.4-3.8q3.4-.7 6.9-.7l2.6 1c3.8 1.6 7.8 3.3 12 3.5q1.7 0 3.4-.2 1.4.3 2.6.1 1.8-.4 3.5-.4c5.4-.2 10.9.6 16.3.5 6-.1 12-1.2 18-1q4.6-.2 8.7.9h6c4.1-.6 7.9-2.8 12-3.1 7.4-1 14.3 2.8 21.6 3.2 6.2.2 12-3.2 18-4.2q3.5-.5 7 .2 2.3 1.4 5 2.1c2.2 1 4.5 2.5 7 1.6" class="b"/><path d="M9.5 90.8c9-.3 17.8-2.6 26.7-2.4l2.6.2q3 1.2 6 2 3.4 1.1 6.9.7H55a12 12 0 0 0 3.5-.7c1-.5 2.2-1.2 3.4-1.1 8.4-.5 16.6 1.9 25 1.8h10.3q4.7.1 9.4-.2c.8-.3 1.9 0 2.6.1q1.7.3 3.5 0 5-.5 9.4-3.3c1.7-1 3.4-2.4 5.2-3.2 7 .5 13 4.8 19.8 6.3 5.5 1.3 11-1.2 16.3-2q2.6-.5 5.2-.2c1.4.3 2.8 1.2 4.3 1.5q3 .8 6 1l3.4-.2" class="b"/><path d="M9.5 86.2c7.8-.1 15.6-.9 23.3 0 3.5 0 6.8 1.6 10.3 1.7h5.1a17 17 0 0 0 9.5-3q1.6-1.2 3.4-1.3c8.5-.6 16.6 2.8 25 3.5a81 81 0 0 0 19-.4c.7-.1 1.7-.5 2.5-.4 3.6 2 8.2 2 12 .8 4-1.4 7.5-4 11.2-5.9.8-.4 1.7-1 2.6-1q1.8.7 3.4 1.6c3.2 1.5 6.3 3.4 9.5 4.7a17 17 0 0 0 8.6 1.3q3.5-.4 6.9-1.3c1.4-.3 3-.8 4.3 0 3.2 1.5 6.9 1.6 10.3 1.3q1.3.1 2.6.1c1 0 2.4-.2 3.4 0" class="b"/><path d="M9.5 81.3q6-.2 12 .6c3.8.6 7.5 1.7 11.3 2.3q3 .5 6 .2 1.6.2 3.4.1a25 25 0 0 0 13-5.2c1-.6 2-2 3.4-2 3.4-.6 7 0 10.3.8 5.2 1.3 10.2 3.2 15.5 4.2a45 45 0 0 0 22.3-.7c1.8.7 3.3 2 5.2 2.4 6.9 2 12.9-1.8 19-4.5q2.9-1.3 6-2c1.2 0 2.3 1 3.4 1.5 4.4 2.7 9.2 6 14.6 5.5 2 0 4-1 6-1 4 1.7 8.1 1 12-.3 1.2-.2 2.4.5 3.5.8q3 1 6 0" class="b"/><path d="M9.5 80c5.8-.1 11.5.8 17.3 1.1q3 0 6-.4 3 .7 6 .3c5.6-.9 10.1-4.9 14.6-8.1L56 71q1.2-.3 2.6-.3c3.5-.2 7 .7 10.3 1.8 5.2 1.9 10.1 4.4 15.5 5.7 7.3 1.8 15.3 2 22.4-.6.8.3 1.8 1.2 2.5 1.6q1.6 1 3.5 1.5c7.2 1.9 13.8-2.6 20.6-4.2q3.8-.9 7.8-.6c2.8 1.5 5.4 3.7 8.6 4.6q3.4 1.1 6.8.3c1.4 0 3 .4 4.3.3q3.2-.3 6-1.7c1.1-.4 2.3-1.3 3.5-1.3 4.1.4 7.8 3.3 12 3" class="b"/><path d="M9.5 77.7c5.5 0 11 .2 16.4-1q1.3-.5 2.6-.6 3 1.3 6 1.6c7.2 0 11.8-6.8 17.2-10.5C53 66.3 54.4 65 56 65q5.8-.3 11.2 2c5.5 2.2 10.6 5.6 16.3 7.5a35 35 0 0 0 23.3-.3q1 .1 1.7 1 1.2.9 2.6 1.5c7.7 3.2 15.4-2.4 23.2-2.7 3.8-.4 7.6.4 11.2 1.5q1.7.6 3.4 1.5 2.5.9 5.2.7c3.7.3 7.2-1.5 10.3-3.4 7.4-2.8 11.4 1.5 18 3" class="b"/><path d="M9.5 73.6q8-.4 15.5-3.2c6.3 3.6 10.3 6.2 16.4.5 4-3.5 7.1-8.1 12-10.3 1.6-.7 3.5-.4 5.2-.3 7.1.5 13 5 19 8.6a33 33 0 0 0 17.1 4.5 35 35 0 0 0 13-2.2c4.2 4.4 10.1 3.2 15.4 1.6 3.6-1 7.4-1.8 11.2-1.6 6.7 0 13 4.1 19.8 2.8 5.8-1.5 10.9-6.2 17.2-5.4 4 .5 7.4 2.9 11.2 4.1" class="b"/><path d="M9.5 68q6.7-.9 13-3.6c1.8.5 3.4 2 5.1 3 4.1 3 7.7 5.2 12 1.2 4.5-3.8 7.3-9.7 13-12 1.6-.5 3.4-.3 5.1-.2 7.9.2 13.5 6.2 19.8 10.2a29 29 0 0 0 16.4 4c4.6 0 9.4-.1 13.7-2 1 .2 1.8 1 2.6 1.4 2.4 1.3 5.2.9 7.7.3 6.4-1.7 12.3-3.5 19-1.9 3.4.7 6.8 2.1 10.3 2.4h3.4q2.2 0 4.3-.8c5.6-2.3 10.8-7.1 17.2-6.2 3.6.7 7 2.5 10.4 3.7" class="b"/><path d="M9.5 62.1a56 56 0 0 0 7.8-2.3c1.4-.4 2.8-1.4 4.3-1.4 3.1 1.7 5.8 4.1 8.6 6.3 3.1 2.5 6 4 9.4 1 4.3-3.8 6.8-9.8 12-12.3 1.7-.7 3.5-.6 5.2-.5 8 0 13 6.8 19 11 5.3 3.9 10.9 3.6 17.2 3.5 5.1-.1 10.6.6 15.5-1.4 3.3 2.6 7.6.9 11.2-.2 3.3-1 6.8-1.9 10.3-1.8 3.8.1 7.5 1.3 11.1 2.5 2.2.6 4.6 1.2 7 .8l2.5.1q2.3-.1 4.3-1.1c5.6-2.6 10.7-7.6 17.2-7 3.6.5 7 2 10.3 3" class="b"/><path d="M9.5 56.5c3.8-.9 7.5-2.5 11.2-3.6q4.9 2 8.6 5.8c2.1 1.8 4.2 4.2 6.9 5.2 6.6 1.3 10.5-13.8 18-14.4 10.7-1.1 15.1 11.1 24.2 14 4.5 1.3 9.1-.5 13.7-.5 4.4-.2 8.6 1 13 1 1.3 0 2.8-.5 4.2-.5 1.3.6 3 .6 4.3.2 3-.8 5.7-2.1 8.6-2.9 6.8-2 12.6 0 19 2.3q3.3 1.3 6.8.7 3.6.6 7-1c5.7-2.9 11-8.3 18-7.5q4.7 1 9.4 2" class="b"/><path d="M9.5 51.6q3.9-1 7.8-2.4c1.4-.3 2.8-1 4.3-1.1 3.7 1 6.8 3.6 9.4 6.3 2.2 2 4.1 4.7 7 6 3.8 1.1 6.5-4 8.5-6.4 1.8-2.3 3.6-4.9 6-6.5C59.3 42.6 67 56 72.3 59a9 9 0 0 0 7.8 1.1c3-.8 6.2-2.1 9.4-2.5a26 26 0 0 1 11.2 1.5q3 1 6 1.4h5.2c2.4-.6 4.6-1.8 6.9-2.7a21 21 0 0 1 12.9-1.5c4.1.8 8 3 12 4q2.2.5 4.3 0 2.6.6 5.2-.2c6.5-2.2 11.7-8.2 18.9-8.3 3.4.2 6.9 1.1 10.3 1.4" class="b"/><path d="M9.5 47.7c4.4-1.1 8.6-2.8 13-3.8 3-.7 7.3 2.8 9.4 4.9 2.6 2.3 6.6 9 10.3 8.3 2.2-.8 3.8-2.9 5.2-4.6 2.5-3 4.8-6.8 8.6-8.4 7 2.8 12 15.8 19.8 12.5 5-2.1 9.7-5.8 15.5-5.4 5 .2 9.3 3 13.7 4.8q3.3 1.6 7 1c4-1 7.8-3.4 12-4.4 6-2 11.6.9 17.2 3.2 2.4 1 5 1.7 7.7 1.2q2.6.5 5.2-.3c4.6-1.3 8.4-4.5 12.9-6.3q2.5-1 5.1-1.2 2.2.1 4.3.4c2.2.3 4.3-.2 6 1.2" class="b"/><path d="M9.5 44.8c4.4-1.2 8.6-3 13-4l4.2-.9q1.4.1 2.6.7c6.5 2.6 11.4 15.2 16.4 12.8 2-1 3.6-3 5.1-4.8q2.5-2.8 5.2-5.1l.8.1c4 3 6.6 8 11.2 10 5.4 1.6 11.3-8.2 19.8-8.7 10.8-1.1 16.7 10 25 8.7 5.8-1.1 11.1-4.6 17.2-4.8 4.3-.5 8.1 2 12 3.4 2.7 1.1 5.7 1.9 8.6 1.3q3 .5 6-.3c5.8-1.7 11-6.1 17.2-5.7q1.7 0 3.5.3l5.1 2.5" class="b"/><path d="M9.5 42.9c7.1-2.3 14-5.5 21.6-6.1 4.2-.8 9.2 8 12 10.8 1.8 2 4.2 3.7 6.9 1.9 2.4-1.7 4.6-4 6.9-5.8 2.8 2.4 5.4 6.4 9.4 6.6 5.9-.9 10.2-9.9 19-11.1 13.3-2 18.4 12 27.5 11 3-.3 5.8-1.6 8.6-2.7q4.6-2 9.4-2.6c4.9.1 9.3 2.8 13.8 4.2a16 16 0 0 0 8.6 1q2.6.4 5.2 0c5.2-.8 10-4 15.5-3.7q4 1.7 8.6 3" class="b"/><path d="M9.5 42c4.7-1.4 9.2-3.5 13.8-5q6.2-2.1 13-2.2 1.3 0 2.5.3l3.4 4c4.4 5.5 7.4 11.2 14.7 5.2h.8C68 53.6 70.6 33.8 86.1 34.1c12.7-.1 16.3 12 25 12.8 3 .2 5.8-1.4 8.6-2.6a24 24 0 0 1 15.4-2c6.7 1.2 13 5 19.8 4.6l2.6-.3c1.4 0 3 .4 4.3.3 3.2 0 6.3-1 9.5-1.2 1.4-.3 3 .3 4.3.6q3.4.6 6.9.6" class="b"/><path d="M9.5 41.6c9.3-2.2 17.8-8 27.6-7.5q3 0 6 1 2.1.4 3.4 2.1C49.1 40.6 53 45 57.7 43c5.5 2.5 10-4.9 13.8-7.8a19 19 0 0 1 25.8 0c4.3 3.2 8.4 10.1 14.6 8 3.2 1.1 6.5-.4 9.5-1.4q4-1.7 8.6-2.2c6.1-.8 12.1 1.1 18 2.6a55 55 0 0 0 17.3 1.2l17.2.2" class="b"/><path d="M9.5 40c11.7-.4 21.6-8.8 33.6-5.3q4 1.2 7.7 3.2c2.2 1 4.5 2.3 7 2.1 2.4.4 4.5-1.4 6-3.2 5.3-5 10-10.2 18-10.2 10.2-.3 13.8 6 20.7 11.8 3.3 2.7 6.2 1.6 9.4-.6.9.2 1.8 1 2.6 1.3q1.6.7 3.4.9c5 .2 9.7-2 14.7-2.3q6.8-.7 13.7.5a107 107 0 0 0 23.3 1.6c2.6 0 5.2-1 7.7-1.4q2.6 0 5.2.4" class="b"/><path d="M9.5 36.1c8.6 1.6 14.3-.8 22.4-2.2q5.2-.9 10.3 0c5.5 1 11.2 4.8 16.4 1.2.8.2 1.7 1 2.6 1.3 2 .8 3.9-1 5.1-2.4 2.1-2.6 4-5.6 6-8.1l1.8-1.8 2.5-.6c16.2-2.1 18.6 11.8 26.7 13.1 4-.3 6.5-4 9.5-6.2 9.3 8.2 14.5 6.2 25.8 5.4q7.3-.3 14.6 0c5.7.3 11.6.6 17.2-.3 4-.6 7.9-3.3 12-3" class="b"/><path d="M9.5 31.3c4.2 1 8.6 2 13 1.9s9.1-1 13.7-1c10-.2 14.6 4.1 23.2-3.8 2.1 1.4 3.3 4.5 6 4.8 4.3-.4 8-10.5 12.1-13.3 14.2-.3 18.1 18 25.8 12.1 3.7-2.8 6.3-7.1 10.3-9.4 1 0 1.9 1 2.6 1.4q2.5 2 5.2 3.9c8 5.7 16.4 5.6 25.8 5.2 7.1-.3 14.4-.1 21.5-1.3 4.7-.8 9-3.6 13.8-4" class="b"/><path d="M9.5 26.5c4.3 1.2 8.5 2.6 13 3 4.8.6 9.7.1 14.6.2 12.6.4 13.7 0 23.2-8.1 1.2.3 1.9 2 2.6 3 1 1.4 2.1 3.1 3.4 4.3 2.9 2.6 5.4-1.5 6.9-3.7 1.9-2.7 3.5-6 6-8.2C89 19.1 93.7 33.3 100 29c5.4-4 8.6-12.8 16.3-12.8 4.3 1.8 8 4.8 12 7.2 6.5 4.1 14 6.3 21.6 6.4q9 .5 18-1.3c5-1 9.5-4 14.7-4.2" class="b"/><path d="M9.5 25c.8-.6 1.6-1.7 2.6-2q5.2 1.6 10.3 2.6 5.2.7 10.4.7c4.5 0 9.3.2 13.7-1 6-1.5 9.6-6.8 14.7-9.8h.8c2.2 2.3 6.1 12 9.5 10.7 1.4-.7 2.5-2.4 3.4-3.7 1.7-2.5 3.1-5.5 5.2-7.8 3.7 2 6.6 5.3 9.4 8.3 3.3 3.4 5.9 5 9.5 1 3.8-4 6.4-10 12-11.8q3.4-.6 7-.4c6.7-.2 12.3 4.8 18 7.9a42 42 0 0 0 32.7 5.4c4.6-1.2 8.8-4 13.7-4" class="b"/></svg>