<svg xmlns="http://www.w3.org/2000/svg" id="a" width="1920" height="2400" viewBox="0 0 192 240"><defs><style>.b{fill:none;stroke:#fff;stroke-miterlimit:10;stroke-width:.3px}</style></defs><path d="M0 0h192v240H0z" style="stroke-width:0"/><path d="M10.3 222.7q9 3.7 18.7 4a5 5 0 0 1 2.6.5q1.3.2 2.5-.3c1.2-.8 3-.5 4.3-.8a34 34 0 0 0 13.7-5c1.3-.7 2.7-2 4.2-2.1 2.5 1.7 4.6 4 6.9 6 2.2 1.9 5 3.3 7.6 1.3 2.7-1.6 4.5-4.5 6.9-6.5 5.6 2.5 11 6 17 7 3.7.7 7.5.5 11.1.5q6 .2 12-.4c7.4-1 14.9 1.5 22.2-.2l1.7-.5q1.3.1 2.5.4 2.2.4 4.3.5c5.7.2 11.6.3 17-1.6 2.8-.9 5.2-2.5 7.8-3.6a31 31 0 0 0 8.5 2.8" class="b"/><path d="M10.3 215.8c5.9 1.6 11.8 3.5 17.9 4.3.6.2 1.4 1 1.7 1.6 1 1.2 2.5 2.5 4.3 2.1a9 9 0 0 0 3.4-2.3q.5-.8 1.7-1.1a45 45 0 0 0 12.8-3q3-1.5 6-2.4c.9 0 1.8 1 2.5 1.5l3.4 3c6.5 6.3 9.3 5.5 15.4-.7h.8c5 2.1 10 4.4 15.4 4.9 3.7.4 7.4.1 11 .1q5.3.1 10.3 0c11.5-.8 18.4 1.9 29.9-2.7 7.4 2.1 15.6 2 23-.5 2.3-.7 4.5-1.9 6.8-2.4q2.6.8 5.2 1.2" class="b"/><path d="M10.3 209.6q5.6.6 11 1.9c2 .5 4.2.7 6 1.5 5 8 6.7 10.8 13.7 2.3 1.3-.5 2.9-.1 4.2-.3q3 0 6-.7c3.7-.8 7.3-2.2 11-2 4 2.7 7.3 6.9 12 8.1 3 .6 5.6-1.3 7.7-3q6.6 2.5 13.7 3c6.2.3 12.5-.2 18.7.1 6.6-.1 13.1.2 19.7 0q7.5-.6 14.5-3.1l2.5-1c1.4 0 3 .8 4.3 1a40 40 0 0 0 17 .1q4.6-1.2 9.5-.8" class="b"/><path d="M10.3 204.4a65 65 0 0 1 15.3 1.5c1.8 2.4 3.4 5.2 5.1 7.6 1.6 2.2 4 5 6.9 2.8q1.8-1.5 3.4-3.3c.7-.7 1.5-2 2.5-2.3q4.2 1 8.6.8c3-.3 6.2-1 9.4-.7q4.3.2 8.5 1.5c4.4 3.1 9 6.7 14.5 3.6 9.2 2.2 18.8.7 28.2 1.2h13.6a75 75 0 0 0 28.2-4.3c1.4-.7 2.9.5 4.2.8a38 38 0 0 0 16.2 1.5q3.5 0 6.9.5" class="b"/><path d="M10.3 200q6.8-.4 13.6.3c4.3 2.9 7.8 13.2 12.8 13.4 3.3-.6 5.3-4 7.7-6 1.1-.3 2.3.5 3.4.7q2 .6 4.3.8 3 .1 6 .1 3.8.3 7.6.9c4.8.8 9.7 2 14.5 2.6 1.7.1 3.4.8 5.1 1q4-.1 7.7 0l12-.2c12.2-.1 24.5.7 36.7-.4a94 94 0 0 0 17-3.5q2.2.7 4.3 1.6 3 .9 6 1.3t6 .3l6.8.6" class="b"/><path d="M10.3 196.3q3.8-.4 7.6-.3c1.7 0 3.6-.3 5.2.5 5.5 2.4 9.6 14 15.3 13.9 3.1-.7 5.3-3.5 7.7-5.4a24 24 0 0 0 7.7 2.5l10.2 1q9.3 1.5 18.8 1.8c8.5.2 17-.1 25.6 0h29.8q7 0 13.7-1c3.4-.3 6.8-1.3 10.2-1.9q5.7 2.8 12 2.8 3.8.2 7.7.1" class="b"/><path d="M10.3 192.8q3.3-.4 6.8-.3 4-.3 7.7 1.9c5 3 9.8 12.3 15.3 12.6 3 0 5.1-2.6 7.7-3.7 3.1 1.8 6.7 2.4 10.2 2.7q5.6.6 11.1.8c11.7.4 23.4 0 35 .1h35c8.5 0 17.2.4 25.6-1.5 1.7.3 3.4 1.1 5.1 1.3q6 .8 12-.5" class="b"/><path d="M10.3 189.4c3-.4 6.3 0 9.3.4q5.3 1 9.4 4.3c4.4 3.1 8.2 8.6 13.7 9.5 2.4.2 4.7-1 6.8-1.9 3.7 1.7 8 1.7 12 1.9l17-.2 41.8.2c10.9 0 21.7-1.1 32.5-.4 5 .3 10.2.7 15.3-.1 4.5.7 9.4 1 13.7-1" class="b"/><path d="M10.3 188.6c6.8-1.7 14.3-1 20.4 2.6 4.2 2.3 7.7 5.6 12 7.6q3.2 1.6 6.8 1.3l2.6-.3 2.5.3c5.1.3 10.3-.3 15.4-.4q7.7-.2 15.4.3c7.6.4 15.3 0 23-.2 1.4-.1 2.9.5 4.3.4q2-.4 4.2-.3c8 .2 16-1.1 24-2q8-.8 16.1.4c5.4.8 10.8 2.2 16.2 1.8q4.6.5 8.6-1.5" class="b"/><path d="M10.3 189.8c8.4-5 17.9-5 26.4-.4 5.3 2.6 10.3 6.4 16.2 7.3q4.7.3 9.4-.2 5.6-.4 11-.3c5.5.1 10.9.7 16.3.6 5.1 0 10.3-1 15.4-1.5q3.3-.3 6.8-.2 2.4 1.2 5.1 1.7c2.1.3 4-1 6-1.7 5.4-.6 10.8-2 16.2-3 9.5-2 18.1-1.3 27.3 2 4.9 1.7 10.1 3.5 15.4 2.3" class="b"/><path d="M10.3 190.3c9.6-6.6 17.3-9.9 29-5.9 5 4 8.1 9.2 15.3 9 2.8.1 5.8-.5 8.6 0 1.7.1 3.4-.6 5-.5 4.9 0 9.8.5 14.6.5 7.6.1 14.8-2.3 22.2-3.7q2.5-.5 5-.5c1.2 0 2.6 0 3.5.8 5.4 3.6 8.2 5.1 13.6.4 1.4-1 2.6-2.8 4.3-3 11.6-3.5 22.5-5.2 34.1-.7q2.5 1.6 5.2 3l4.2 1.7c2.2.8 4.5 2 6.9 2" class="b"/><path d="M10.3 189.6c3.5-1.2 6.3-3.9 9.3-6q5-3.8 11.1-5 2.6-.7 5.2-.4l1.7 1.4c4.6 4 8.6 10.4 15.3 10.4 4.3 0 8.6-1 12.8-.7q2.5 1.3 5.1 0l2.6.3c10.7 1.1 15.6 0 25.6-3.7a30 30 0 0 1 16.2-2c6.6 5.5 9 9.4 16.2 1.9l4.3-4 1.7-1.4q1.2-.5 2.6-.8c9-2 18.6-2 27.3 1.5 5.1 2 9.8 5 14.5 7.9" class="b"/><path d="M10.3 186.2c4.6 1.9 8.6-3.4 11.9-6 2.8-2.4 5.9-4.7 9.4-6 .7-.2 1.7-.6 2.5-.3a22 22 0 0 1 3.5 2.7c3.5 3.3 6.3 8 11 9.7 2.6.8 5.2 0 7.7-.5q4.7-1 9.4-.8 1.3 0 2.6.2c2 1.6 3.6 1.8 6 .6 7 1.3 12.2 1.1 18.7-1.8 6-2.6 12-6 18.8-5.5 2.2.2 4.5.9 6.8.8 4.4 3.9 7.6 11 13.7 4.8 3.3-3 6-7.3 10.2-9.3l6.8-.8c8.2-.6 16.7.5 24 4.5 3 1.5 5.6 3.8 8.5 5.6" class="b"/><path d="M10.3 180.2c4.2 4.7 7 3.4 11-.7 3.3-3.3 7.3-8.6 12-9.5 5.7 3 10.2 14.6 17 13 4.2-1.1 8.4-3 12.8-3q3.6-.2 6.9.8 1.3 1.7 3.4 2.4c1.2.2 2.3-.7 3.4-1 3 .8 6.3 1.4 9.4.7 8.6-1.9 15.5-9.3 24.7-8.8 1.7 0 3.5.7 5.1 1q3 .4 6 .3c2.1 2.5 3.9 5.8 6.8 7.5 3.4 1.3 5.8-2.6 7.7-4.7s3.8-4.5 6-6.3c.9-1 2.3-.9 3.4-1l6-.6c7.5-.4 15.4.5 22.2 4.2q4 2.4 7.6 5.5" class="b"/><path d="M10.3 173.6c2 2.3 4.1 6.4 7.6 6.2 5-1.4 8.9-10.5 14.5-13.2h.9c4.2 2.9 6.6 7.8 10.2 11.3 6.8 6.4 10.2-6 24.8-2.9.8.2 1.9.4 2.5 1q1.2 1.7 2.6 3t3.4.4l1.7-.9c3.2 1.3 7 1.9 10.2.6 7.5-2.7 13.8-9.3 22.2-8.6 2 .2 4 1 6 1.5q3.8.7 7.7.3c2 1.8 3 4.6 5.1 6.4 2.6 2.5 5 .1 6.8-2q2.5-3.4 5.2-6.6c.3-.4 1.1-1.2 1.7-1.5l7.6-1.2c7.5-.6 15.4-.3 22.2 3.1 3.1 1.6 5.8 4 8.6 6" class="b"/><path d="M10.3 167.4q2.3 3.6 5 6.9c2.3 2.4 4.4 3 6.9.5 3.7-3.5 6.5-9.7 11-11.8 4.8 3.1 7.8 12 12.9 13.4 4.8.3 8-7.6 18-7.4q2.5.1 5 .8c1.2.2 2.1 1.3 2.6 2.3.7 1 1.7 2.4 2.6 3.3 1.8 1.8 3.6 1 5-.8 4.3 1.9 7.6 2.7 12 .5 7.1-3.6 14.6-10.4 23-6.6 4 1.6 8.6 2 12.9 1.6 4.2 5 5.4 10.1 11 2.3 1.4-1.7 2.5-4 4.3-5.4l2.6-.6c8.6-2 18-3 26.4.5 3.9 1.5 7 4.4 10.3 6.8" class="b"/><path d="M10.3 162.3c2.8 3.1 5.4 9.2 9.3 10.7 3.4.4 5.8-4.2 7.7-6.5 1.8-2.3 3.6-4.8 6-6.5h.8c4.1 3.6 5.9 9.3 10.3 12.6 6 3.2 9.6-13.3 25.6-7.7 1.8 2.7 3.2 6 6 7.9 1.7.8 3.2-.8 4.2-2 1.2.2 2.3 1 3.4 1.4q3.5 1.5 6.9.3c4-1.4 7.3-4.2 11-6 5.5-2.5 9.3-2.3 14.6.4 4.3 1.8 9 2 13.6 1.7 4.9 8.3 7.2 3.2 11.1-2.2 9.9-2.6 20.8-5.8 30.7-1.6 3.8 1.5 6.9 4.2 10.3 6.3" class="b"/><path d="M10.3 158c2.1 2.4 4 5.3 6 7.8 1 1.4 2.4 3 4.2 3.7 3.4.7 5.8-3.6 7.7-5.8 1.8-2.4 3.6-4.9 6-6.7h.8c3.3 3.4 5.1 8.2 8.5 11.6 5.9 5.1 8.7-11 22.2-9.4 2 .2 3.3.3 4.3 2.3 1.5 2.4 3 5.2 5 7.2 2.4 2.3 4.5-.2 6-2 8.8 6.2 12.6 1.1 20.5-2.6q4.6-2.3 9.4-1.3c2.4.6 4.5 2.3 6.9 3 4.3 1.6 9 1.8 13.6 1.5 3.6 3.9 4.8 2.4 7.7-1.1 10.6-2.2 21.7-7.5 32.4-3.1 3.6 1.4 6.7 4 10.2 5.6" class="b"/><path d="M10.3 154.7q3 3.2 6 7c1.3 1.6 3 3.6 5 4.4 3.7.9 6.4-3.6 8.6-6 1.8-2 3.7-4.4 6-6.2 2.3 2.6 4 6 6 8.8 1.6 2.6 3.9 5 6.7 2.3 2.6-2.4 4.7-5.5 7.7-7.5s6.7-2.8 10.3-2.4c1 .5 1.8 2 2.5 2.8q2 3.1 4.3 6c2.9 3.6 5.1 2.6 7.7-.7l.8-.1c2.5 1.7 5.4 3.4 8.5 3.1 6.8-1 12.3-7.3 19.7-5.5 2.4.5 4.5 2.2 6.8 3.1q4.5 1.7 9.4 1.8l5.1.1c.8 0 1.9-.2 2.6.3 1.5.8 2.7-.8 4.2-.8 11.1-1 22.2-7.6 33.3-3.5 3.5 1.2 6.6 3.6 10.3 4.4" class="b"/><path d="M10.3 152c4 3 8 9.8 12.8 10.8 3.1.2 5.5-2.5 7.6-4.5q3.2-3.5 6.9-6.5c2.7 2.5 6.4 14 11 10.3 2.8-2.3 4.8-5.6 7.7-7.7q2.8-2 6-2.7c1.4-.2 2.5-.3 3.4 1 2.9 2.5 7.1 10.7 11.1 10.1a8 8 0 0 0 3.4-2.3c.3-.5 1.2-1.2 1.7-1.3 11.5 8.7 14.6-1 25.6-.8 3.8 0 6.8 2.7 10.3 3.7 3.3.9 6.8.8 10.2.7h10.2a64 64 0 0 0 14.6-1.7c6-1.4 12.6-3 18.7-1 3.4 1 6.7 3 10.3 2.7" class="b"/><path d="M10.3 149.9c4.3 2.9 7.8 7.3 12.8 9.2 2.6 1 5.4-.3 7.6-1.8l6-4.5c1-.8 2.2-1.9 3.4-2.2 1.8 2.8 3.3 6.2 6 8.4 4.2 2.8 7.8-7.7 15.3-9.8 4.4 2.8 7.2 7.8 12 10 3 1.1 5.7-1.5 7.7-3.5h.8c8.9 6.2 11.3 3.4 20.5.9q5.3-1.2 10.2 1.1 3 1.6 6 1.8 4.3-.2 8.5-.7 2.2-.2 4.3-.3c.8.3 1.7 1 2.6 1q1.3-.2 2.5-.8l2.6.2q5.6.8 11 .5c4-.3 8-1.2 12-1.6q4.8-.6 9.4.4c3.3.8 6.9 2 10.3.8" class="b"/><path d="M10.3 148.4c6.7 3 13.4 9.8 21.3 7 3.8-1.3 7.3-3.5 11-5 .8.1 1.5 1.2 1.8 1.8l1.7 2.2c2.4 2.8 4.6 1.5 6.8-.7q2.4-2.5 5.1-4.6c5.7 1.6 10.9 8.8 17.1 6.5q1.8-.9 3.4-2c.7-.5 1.6-1.5 2.6-1.5 8.1 5.2 10.7 4.5 19.6 2q4.3-1 8.5 0c2.3.5 4.5 1.7 6.8 2 3 0 5.8-1 8.6-1.6 1.3-.2 2.9-.8 4.3-.5 3.4 3.2 5.1 2.2 8.5-.2 4.8.6 9.6 2 14.5 2.2 4.5.3 9.1-.7 13.6-.8 3.2-.1 6.3.5 9.4.8q3.6.3 6.9-1.2" class="b"/><path d="M10.3 147.1c7.9 2 15.5 6.2 23.8 5.5 4.3-.3 8.6-1.5 12.8-2 1.3.8 2.6 2.4 4.3 2s2.8-1.7 4.3-2.3c5.6.7 11.4 3.8 17 1.6 2.5-.7 4.6-2.4 6.9-3.2 8.6 4.7 11 4.8 20.5 2.4q4.2-1 8.5-.1c2.3.4 4.5 1.6 6.8 1.7 3.6 0 6.8-2.2 10.3-2.7 4.6 4.3 7.6 2.9 12-.9 2.2 0 4.5.8 6.7 1.3 3.7 1 7.4 2 11.1 2.2 5.7.3 11.4-.7 17.1 0q3 .3 6-.4l3.4.3" class="b"/><path d="M10.3 145.6c11.1.5 22 3.8 33.2 3.7h11.1a45 45 0 0 0 18.8-3.1q1.2-.6 2.5-.8c3.4 1.3 6.7 3 10.3 3.6 4.9 1 9.7-1 14.5-1.7q3.9-.7 7.7.3c6.7 2 6.9 2.5 13.6-.4 6.3 4 9.2 1.6 14.5-2.2 2.3-.2 4.7.7 6.9 1.3 3.9 1.1 7.8 2.5 12 2.9 3.9.4 7.9-.3 11.9-.3 2.5 0 5.1.4 7.6.4q3.4-.2 6.9-.7" class="b"/><path d="M10.3 143.4c13.9-1.5 27.8 1.3 41.8 1 1.4 1 3.3 1.8 5 1.3 3-.7 5.7-2 8.6-2.4q4.7-.6 9.4.6c5.5 1.4 10.6 2.9 16.2 1.3 3.1-.8 6.2-1.9 9.4-2.3 3.8-.6 7.6.4 11 2q3.9 1.8 7.8.3c5 1.3 7.5.7 12-2q1.1-.9 2.5-1.5l2.5.3c11.2 1.7 13.8 5.3 26.5 3.3 1.3 0 2.9-.4 4.3-.1q1.6.6 3.4.7l2.5-.3 1.7.2q3.6.4 6.9-1.3" class="b"/><path d="M10.3 140.3a148 148 0 0 1 20.4-2c7.1-.2 14.3.2 21.4-.1 5.5 7 10.5 3.3 17.9 3.6 10.3.6 12.7 1.8 23-2l4.3-1.3c2.9.6 5.7 1.7 8.5 2.4 4.7 1 9.7 1.9 14.5 1.5 2.7-.3 5-1.9 7.7-2.2q5.6-1 11.1.2c4.2.8 8.5 2.2 12.8 2q3.5 0 6.8-.9c1.4-.2 3-1 4.3-.6a10 10 0 0 0 5.1 1.6q2.3-.2 4.3-1.4c1-.4 2.3.4 3.4.7 1.9.6 4 1 6 .4" class="b"/><path d="M10.3 136.3q10-2.9 20.4-4.3 6.8-.9 13.7-1c2.2 0 4.6-.4 6.8-.2 5.1 6.7 8.6 8.4 17 8.3q6 .2 12-.7c3.8-.7 7.5-2 11.1-3.1 7.7 3.3 13 4.8 21.4 3.2l1.7-.2 2.5.8c3.2.3 6.3-1 9.4-1.6q6-1.3 12 0c5.8 1.1 11 2.7 17 .5 1.7-.4 3.4-1.4 5.1-1.6 5.5 4.2 8.5 3 13.7-.7 2.5 1 5 2.8 7.7 3.3" class="b"/><path d="M10.3 131.5q7-2.9 14.5-5a84 84 0 0 1 16.2-2.8c10.9-.6 6.7-1.5 14.5 5.6 4.5 4.3 11 5.2 17 4.7q6.6-.7 12.8-2.5c.8-.4 2-.3 2.6.3l3.4 1.9c7 3.7 11.4 1.7 18-1.4q2.4 1.5 5 2.8c4.6 1.8 9.2-1.2 13.7-1.7q4.3-.6 8.5.1c11 2.4 12.5 4 23-1.6 4.6 4.1 7.6 5.3 12.9 1.4 1.3-.7 2.7-2.2 4.2-2.3l5.2 3.2" class="b"/><path d="M10.3 126.2c5.4-2.8 11-5.5 17-6.8q6.3-1.3 12.8-1.3c2.3 0 4.6-.4 6.9 0 3.6 1 6.3 4 9.3 6 7.9 5.5 17.8 3.4 26.5 1.7 1.8 1 3.4 2.7 5.1 3.8 6.6 5 10.5 2.3 16.2-2.1.9-.2 1.8.5 2.6.8l4.3 2.4c5.8 3.6 9.5.1 15.3-1.3q5.2-1.3 10.3-.1c10.9 3 12.6 5.6 23-1.6 1.8 1.1 3.2 3 5.1 4 2.9 1.6 6-.1 8.5-1.7q3-2 6-3.1c1 0 1.8 1 2.6 1.4" class="b"/><path d="M10.3 120.6c8.4-5.2 14-6.5 23.8-6.2h7.7c2.3 0 4.7 0 6.9.8 3 1 5.6 3 8.5 4.1 7 3 14.8 1.2 22.2.5 4.1 2.1 8.8 10.8 14.5 8.8a17 17 0 0 0 5-3.7c.8-.6 1.6-1.8 2.7-2q3.8 2.1 7.6 4.4c2.8 1.5 5.6 2.2 8.6.8 2.8-1.1 5.5-2.8 8.5-3.6 3.3-1 7-1.1 10.2-.2 11.6 3.7 12.8 8.5 24-.7 1.7 1.3 3 3.3 5 4.4 2.8 1.8 6 .5 8.6-1q3.6-1.8 7.7-2.7" class="b"/><path d="M10.3 115.1c7-4.4 10.8-4.1 18.7-4h10.3q3.4-.2 6.8.3c3.2.6 6.3 2 9.4 3 7 1.9 14.2-.2 21.3-.7 2.2 1.7 4.1 4 6 6 2.3 2.4 4.8 6.1 8.5 5.8 3.3-1 5.5-4.2 7.7-6.6l.8-.2c3.7 2.2 7 5.4 11.1 6.6 2 .6 4.2-.1 6-1.1 2.8-1.6 5.5-3.5 8.5-4.8 4-1.7 8.8-1.7 12.8 0 10.8 4.5 12.4 10.8 23 .6h1c7.6 9.4 10.1 4.1 19.5 2.7" class="b"/><path d="M10.3 110.2c4.5-3 10.1-2.5 15.3-2.5 4.8 0 9.7-.2 14.5.2 12.8 1.7 13.2 4.6 27.3 1.6q3.4-.6 6.8-.8 1.9 1 3.5 2.6c3.2 2.6 8.4 11.9 12.8 10.7 3.4-1.2 5.4-4.8 7.6-7.4h.9c3.3 2.5 6.2 5.9 10.2 7.3 2.4.8 4.9-.4 6.9-1.7 4.9-3.4 9.8-7.8 16.2-7.9 5.9-.2 10.9 3.4 15.3 6.8 7 5.6 9.9 2.5 15.4-2.8 1.6 1 2.7 2.8 4.3 3.9 4.3 3.6 9.5 1 14.5.7" class="b"/><path d="M10.3 106.7a75 75 0 0 1 29-.3c5.9 1 12 2.4 17.9 1.2 2.8-.5 5.7-1.5 8.5-2.2q3-.8 6-.8c2.3.7 4.3 2.3 6 4q3 3.2 6 6.7c1.6 1.8 4 4.4 6.8 3.1 3.3-1.8 5.3-5.4 7.6-8.3 3.7 2.8 6.4 7.6 11.1 8.6 2.2.2 4.3-1.1 6-2.3 5.1-4 10.1-9.2 17-9.6 7-.6 12.4 3.2 17.1 7.8 7 6.6 9.3 4.6 15.4-1.5 6.8 6.5 8 5.8 17 5.5" class="b"/><path d="M10.3 104.3c6.2-.5 12.5.2 18.7 1.2 6 .9 12 2 18 1.7q4.3 0 8.5-1.5 3.4-1.4 6.8-3c6-2.4 8.7-2.3 13.7 2q3 2.9 6 6.2c2 2.2 5 5.8 8.5 4 3.2-2 5.2-5.5 7.6-8.3l.9.2c2.9 3 5.2 7.3 9.4 8.5 2.6.3 4.8-1.7 6.8-3.1 5.5-4.8 10-10 18-10.4 7-.6 12.2 1.8 17 7 6.7 7 8.6 9.6 16.2 1.5 1.3.3 2.3 1.8 3.4 2.5 3.4 2.5 7.9 2.5 12 2.5" class="b"/><path d="M10.3 102.3c6 1 11.9 3 17.9 4.5 8.4 2 17.7 2.3 25.6-1.8 3.8-1.7 8.8-6.9 12.8-7 6.7 1.4 11.2 7 16.2 11.3 1.8 1.5 4.3 3.3 6.8 2.5 4-1.7 6.5-5.7 9.4-8.7 1 .5 1.9 2 2.6 2.8 1.2 1.6 2.6 3.5 4.2 4.8 3 2.7 6 .4 8.6-1.6 3.2-2.7 6-6 9.3-8.5q4.7-3 10.3-3 3.8-.1 7.7.2c7.9.7 11.5 8.5 17 13 2.8 2.2 5.4.7 7.7-1.3.7-.6 1.6-1.7 2.6-1.9 3.5 3.2 8.2 4 12.8 3.8" class="b"/><path d="M10.3 101c5 2 10 4.6 15.3 5.9a49 49 0 0 0 22.2 0C54.4 105 58 100 63.2 96c1.4 0 2.9.7 4.2 1.2q4 1.6 7.7 4.1c3.6 2.4 7 5.5 11 7 5.9 1.5 10-4.3 13.7-7.8l.9-.1c2.2 2.6 4.7 8 8.5 8.2 7.5-1.9 11.3-11.8 18.8-14 2.4-.7 5.1-.5 7.7-.5h10.2c7.3 1 10.3 8.8 15.4 13 3.4 3.1 6.5.3 9.4-2 1 .3 2.2 1.1 3.4 1.5q3.7 1.1 7.6.7" class="b"/><path d="M10.3 100.2c11.9 7 14 4.6 26.4 4.4 3.1 0 6.3.5 9.4.6 6.4.3 10.8-4.6 14.5-9.2 5.3.8 10.5 3 15.4 5 4 1.7 8.2 4.2 12.8 4.2 3.5-.1 6.6-2.1 9.4-4.2l2.5-2c.3-.4 1.2-1 1.7-1 2.3 3.3 5.6 9.6 10.3 6.2 6.1-3.4 9.1-11.5 16.2-13.3 3.3-.4 6.8 0 10.2-.2q5.6-.1 11.1.1c6.5 1.5 9 8.7 13.7 12.8 3.4 3.1 6 .9 9.3-.8q4.2 1.3 8.6.7" class="b"/><path d="M10.3 99.6c7.7 4.4 12 1 19.6-1q5.1-1.2 10.2.1c7.5 2.1 11.8 6.3 18-1.4 7 1 14.2 1.8 21.3 3.2 10.2 2.1 15.8 2 24.7-4l.9.2c1.4 2 3.1 4.8 6 5 3.5-.2 6.2-3.1 8.4-5.7 8.8-10.8 8.4-8.4 21.4-8.7H151c5.1-.6 8.3 4.2 11.1 7.7 2.4 3 5 7.4 9.4 6.7l2.6-.8c.3-.3 1.2-.5 1.7-.4q3 .2 6-.3" class="b"/><path d="M10.3 98.1c8 1.9 14.6-8 24.7-7.1 8.1.4 13.7 8.3 18.8 7.3l1.7-.7a74 74 0 0 0 8.5.4q8.6-.2 17 0c9.3.3 18 1.6 26.5-3.1 1 1 2.1 2.3 3.4 3 3.7 1.8 7.2-1.6 9.4-4.3 3-3.4 5.5-8.4 10.3-9.6q3.8-.2 7.6 0h8.6c3.5-.2 7.2.3 10.2 2.3 3.4 2.1 6.4 5 9.4 7.7 1.4 1.6 3 3.3 5.1 4 1.7.6 3.5.3 5.1 0q2.6 0 5.2-.5" class="b"/><path d="M10.3 94.5c5-1.6 8.9-5.4 13.6-7.5 2.6-1.3 3.2-1.4 6-.4 3.6 1.2 6.9 3.3 10.2 5.2a22 22 0 0 0 8.5 3.1H52q1.8.1 3.5-.2c5.6-.4 11.3.1 17 .3s11.4-.3 17.1-.2c7.1 0 14.6 1.1 21.3-1.6 1.2.2 2.2 1.3 3.4 1.5 3.3 1.2 6-1.6 7.7-4 1.7-2 3.3-4.6 5.1-6.6l1.7-1.8 2.6-.8c3.3-.8 6.8-.8 10.2-.8 4.5 0 9 .7 12.9 3 5.8 3.5 10 9.9 17 11 3.4.5 6.9.3 10.3.3" class="b"/><path d="M10.3 89c7.2-3.6 13.6-4.7 21.3-1.3 3 1.2 6.1 2.9 9.4 3.6 2.8.7 5.8 0 8.5-.8.9 0 1.8.6 2.6.9 2.3.8 4.6-.8 6-2.6 1.5-.5 3.4 0 5 .1q4.8.9 9.4 1.9 7.6 1.4 15.4.5 6.8-.6 13.6 0c4.6.3 9.4.8 13.7-.9 3.7 1.7 4.8 1.7 7.7-1.4q2.3-2.7 4.2-5.7c3.5-2.4 7.8-3.7 12-4 15.9-.8 20.5 14.4 31.6 12 1.7-.2 3.4-1.2 5-.2a7 7 0 0 0 3.5.4c.8-.1 1.8-.6 2.6-.5" class="b"/><path d="M10.3 87.4a30 30 0 0 1 17.9-.8c7.5 2 10.9 2.6 17.9-1.5 2 1 3.7 2.9 6 3 4.2.3 6-4.4 8.5-6.9 4.2.7 8 2.7 12 4.3a30 30 0 0 0 19.6 1.8q6.3-1 12.8-.4c4.2.4 8.5 1.8 12.8 1 .7-.2 1.7.2 2.5.3q1 0 1.7-.4 1.5-1 2.6-2.2l5.1-2.4c5-2.2 10.9-3 16.2-1.2q4.5 1.5 8.6 3.8c3.3 1.8 7.3 3.2 11 1.8q2.7-1 5.2-2.3c.7-.4 1.7-1 2.5-.8 2.5 1.8 5.3 3.8 8.6 3.7" class="b"/><path d="M10.3 84.7q7.2-.9 14.5-.1c7 1 11.4-.6 17-4.7 1 .1 1.8 1 2.6 1.6a23 23 0 0 0 4.2 2.8c6.3 2.6 9.8-5.7 12.8-9.8l.9-.2c8.2 2.4 14.3 10 23 10.5 4.1.1 8-1.4 12-2.1 14.3-3.2 17.8 4.1 31.6 1.5a48 48 0 0 1 14.5-.6c5.8.8 11.4 2.4 17-.4 3.9-1.7 7.3-4.4 11.1-6 3.2 2.4 6.5 5 10.3 6.7" class="b"/><path d="M10.3 81.4h8.5c3.1 0 6.4 0 9.4-1 3.4-1 6.4-3.2 9.4-5.2C41 77 44 80 47.8 81.2c6.9 1.4 10.6-8.3 14.5-12.4l.9-.3c8.9 2.4 15 12.4 23.9 13 3.2 0 6.3-1.3 9.3-2.3 5.5-2 11.4-3.2 17.1-1.7q1.7.4 3.4 1c.6 0 1.4.7 1.7 1q1.5 1.5 3.4 2c1.3 0 2.3-1 3.5-1.2q4.6.6 9.3.7c7.6.1 15.4-1 22.2-4.5 4.3-2.1 8.3-4.8 12.8-6.3q6 4 12 7.4" class="b"/><path d="M10.3 78c9 .2 14.8-.4 22.1-6.3 4.9 1.3 8.8 5 13.7 6.2 4.3.7 7.7-3.1 10.2-6.1 2.2-2.6 4-6 6.9-7.8 10.3.8 17.1 15.4 27.2 13.9 4-.7 7.5-2.8 11.1-4 4-1.6 8.5-2.6 12.8-1.9 6.3 6 8 9.2 14.6 1q9 0 17.9-2.6c6.2-1.8 12.3-4.3 18.7-5.6.8-.1 1.8-.4 2.6 0l4.3 1.8 9.4 4" class="b"/><path d="M10.3 74.5c6.5.1 11.6-1.2 17-5.1q5.4.8 10.3 3c4.3 1.9 8.5 3.6 12.8.4q3.8-3 6.8-6.9c1.7-2 3.4-4.6 6-5.6.7-.1 1.8 0 2.5.2 6.5 1.4 11 6.9 16.2 10.7 4.9 3.7 9 4.5 14.5 1.8 5-2.2 10-5 15.4-5.9 2.6 2 4.9 4.7 7.7 6.6 2.9 2 5.5.4 7.7-1.8q3-3.3 6-6.6l1.6-1.7q1.7-.6 3.5-.8 3.3-.8 6.8-1.2c6.5-1 13-1.7 19.6-1.2 5.8.8 11.3 2.7 17 3.7" class="b"/><path d="M10.3 71.2q5.9 0 11-2.7c1.3-.7 3-.4 4.3-.4q4.4.1 8.5 1.3c5.4 1.4 10.4 3.4 15.4-.3 2.9-2 5.4-4.8 7.7-7.4s4.5-5.8 8.5-4.7c7.1 1.4 12.1 7.2 18 11 2.7 2 6 3.6 9.3 3.2 6.5-1 11.7-5.7 18-7.5q3 3.5 6.8 6 4.4 3.3 8.5-.4c8.2-7.3 10.7-13 23-12.5 4.9 0 9.7-.2 14.5.2 6 .7 12 1.8 18 1.7" class="b"/><path d="M10.3 67.9q2.1 0 4.2-.4c1.1-.1 2.3-.7 3.4-.7q6-.5 12-.2c6.2.5 13.1 3 18.8-1q4.8-3.2 8.5-7.6c1.7-1.7 3.4-4 6-4.5.7 0 1.8.3 2.5.5 7.4 1.8 13.1 7.3 19.6 11 9.8 6 16 1 24.8-3.7 1.4 1 2.7 2.8 4.2 3.7 2.3 1.6 4.9 3.3 7.7 2.8 3.4-.8 6-3.4 8.5-5.5 3.3-2.9 7-5.6 11.1-7a49 49 0 0 1 16.2-1.4c4.6.1 9.2.8 13.7 1q5.2 0 10.2-.6" class="b"/><path d="M10.3 64.5c6.2 0 12.5-.5 18.7-.4 5.1 0 10.4 1 15.4-.2 4.4-1 8-4.1 11-7.2 2.2-2 4.1-4.9 6.9-6 6.3 1.6 12.2 4.7 18 7.7 4 2.1 8.2 4.4 12.7 5.6 6.1 1.7 12.1-1.3 17-4.6 2.6 2.8 6.4 5.3 10.3 5 2.8-.3 5.4-1.9 7.7-3.4q4.5-3.1 9.4-5.6 6.9-3.1 14.5-3.3c5.7-.3 11.4.4 17 .3 4.1 0 8-1 12-1.7l.9.3" class="b"/><path d="m10.3 60.7 3.4.4c.7 0 1.8-.2 2.5-.1h10.3c5-.1 10.2.3 15.3 0 8.5-.6 13.2-6.3 18.8-11.8 1.1 0 2.3.7 3.4 1l6 2.1 15.3 4.9c8.7 2.6 16.5 6.8 24.8.7.8.4 1.7 1.3 2.5 1.7q2.8 1.6 6 1.4c5.5-.6 10.2-4 15.4-6q7.3-3 15.3-3.3c6.5-.3 13.2.4 19.6-.6q3.5-.6 6.9-1.9l3.4-1.2q1.3.2 2.5 1" class="b"/><path d="M10.3 56.7q2.5.9 5 1c1.2 0 2.4-.5 3.5-.3q7.3.5 14.5.3c11.5 0 17.3.8 25.6-8.6l.8-.1c6.8 3.6 14.7 3.6 22.2 4.3q6 .4 12 1.9c3.9.9 7.8 2.6 12 2.4 1.7 0 3.4-1 5-1.5 3.9 2.7 8.8 1.2 12.8-.2q4.7-1.5 9.4-2.8 7.3-1.4 14.5-1.2c12.5.3 19.7 1.4 30.8-5.7q1.7.8 3.4 2" class="b"/><path d="M10.3 52.7c2.1.8 4.4 1.7 6.8 1.6 1-.1 2.3-.5 3.4-.3 4.8.5 9.7.2 14.5.2 6-.3 12.3 1.1 18-1.5 1-.5 2.4-1.4 3.3-2.2.4-.4 1.2-1 1.7-1 12 6.8 27-2.4 40.1 1.7 3.5.9 6.7 2.7 10.3 3 1 .2 2.3-.3 3.4-.4l1.7.4c4 .4 8-1.4 12-2.1q6.6-1.4 13.6-1c9.6.5 19.5 2.7 29 0 3.5-1 6.6-3.1 9.4-5.4 1.6.4 2.9 1.7 4.3 2.5" class="b"/><path d="M10.3 49.4c2.3.2 4.4 1.4 6.8 1.5.7 0 1.8 0 2.5-.2l6 .2c4-.1 8-.7 12-.7q4.3-.1 8.5.4c3.4.4 7.1.6 10.2-1.2a19 19 0 0 0 8.6 1.4q4.6.1 9.3-.5c5.9-.8 11.3-3.5 17.1-4.4 6.7-1.1 11.4 1.3 17 4.2q2.2 1 4.3.7 2.2.2 4.3-.2c4-.8 8-1.7 12-1.7 5.1 0 10.2.9 15.3 1.4q7.7.7 15.4.6c4.6 0 9.5 0 13.6-2.3 1.5-.8 2.8-2.2 4.3-2.8q2 1.3 4.3 2.3" class="b"/><path d="M10.3 46.9c3.9.3 8 .8 11.9.5 4.6-.3 9.1-1.5 13.7-2q5-.6 10.2.4c3.4.6 6.7 2 10.2 1.7 3.1-.4 6.3-1.3 9.4-1 9.6 1.2 11.3 2 20.5-2.4 5.2-2.5 11.5-4.5 17-1.8 2.5 1 4.7 2.7 6.9 4q1.2.8 2.6 1.2h2.5q4.3-.5 8.6-1c6.5-.4 13 1.2 19.6 1 5 0 10.2-1 15.3-1 4 0 8 .9 12 1q2.2 0 4.3-1c.7-.3 1.6-1.1 2.5-1q2 .9 4.3 1.4" class="b"/><path d="M10.3 44.1q2.5 0 5-.2 2.6.4 5.2 0c4-.4 8-1.9 12-2.5q5.1-.9 10.2.3c3.1.7 6.1 2.4 9.4 2.4 1.1 0 2.3-.8 3.4-.6 4 1.7 6.6-.4 9.4-3 4.1.5 7.8 3 12 3.5 7.4.9 13.4-7 21.3-7.1 8.4-.3 11.5 6.9 16.2 7.2 1-.3 2.3 0 3.4 0l6.8-.2c4.5 0 9.1.5 13.7 0 4.9-.3 9.6-1.8 14.5-2.7a29 29 0 0 1 11-.1c3.5.6 6.8 2.4 10.3 3q1.6 0 3.4-.4 2 .4 4.3.4" class="b"/><path d="M10.3 40.2q4.6.7 9.3.4 5.2-.6 10.3-1.4 4.6-.5 9.4.1c5.4.8 10.7 3.1 15.3-1h.9c6.4 4.5 7.8 2.1 12.8-2.5 3.9 1.7 7.5 5 12 5 3.4-.3 6.4-2.4 9.3-4 6-3.6 12-4.7 18-.3 2.1 1.4 4 3.9 6.8 4.2.8 0 1.7-.7 2.5-.9q4.6 1 9.4.7 6.5 0 12.8-1.5c10.8-3 20-7.8 30.7-1.7 3.3 3.7 7.4 3.7 12 3.2" class="b"/><path d="M10.3 37.2c7.3.5 14.7-.5 22.1-.4 9.6 0 14 2.7 22.2-4.2 7.4 5.7 8.9 7 15.4-.8 3.5 2 6.8 5.4 11 5.5 4.5-.3 8-3.6 12-5.2 3.2-1.5 7-2 10.3-.9q3.1 1.4 6 3.5c1.4 1 3 2.7 5 2.6 1-.1 2-1 2.6-1.6.3-.5 1-1.4 1.7-1.5 16.3 4.8 30.2-10.3 46-5.7 3 3.8 5.6 9.5 11.2 8.8 1 0 2.3-.4 3.4-.3q1.2.4 2.6.3" class="b"/><path d="M10.3 33.9h20.4c8.5.2 15.5-.1 22.2-5.9h.9c7.8 4.8 9.5 10.1 17 .6 1 .2 1.9 1.1 2.6 1.6l3.4 2.4c5.8 3.7 11-1.6 16.2-3.7 3-1.2 6.3-1.7 9.4-.7 8.5 2.8 10.6 11.5 17-.5l1-.4c7.1 1.8 14.4-1 21.2-3.1 6.3-2 13-3.3 19.7-2.6 3.7 3.4 5.5 11.2 11 12.3 2.7.2 5.2-.9 7.7-1.4l1.7.8" class="b"/><path d="M10.3 30.5q10.6.2 21.3-.6 10.7-.6 19.6-6.4 3.2 1.2 6 3.2c2.5 1.6 5.2 4.6 8.5 3.6a10 10 0 0 0 3.4-2.3c.8-.7 1.6-1.9 2.6-2.3 9.6 8.7 11.5 3.6 21.3-.2 3.3-1.3 7-1.2 10.2.3 2.7 1.2 5 3.2 7.7 4.4 4.9 2 8-6.7 10.3-9.8 1-.5 2.3 0 3.4 0q2.1 0 4.2-.3c4.6-.5 9.1-1.8 13.7-2.6a74 74 0 0 1 16.2-1q1 .3 1.7 1.1c3.7 3.6 6.7 14.1 12.8 12.8 2.9-.6 5.6-2 8.6-2.4" class="b"/><path d="M10.3 27.1A115 115 0 0 0 46 20.4q4 .3 7.7 1.7 3 1.3 6 3.1c2.2 1.5 5.1 2.8 7.6 1.2q1.5-.9 2.6-2c.3-.4 1.2-1.1 1.7-1.2 8.6 8.1 11.9 1.4 20.5-1.4 3.3-1 7-.7 10.2.8 2.7 1.2 5 3.2 7.7 4.3 5.9 2 9-9.7 12.8-12.9 5.1.3 10.2-.5 15.3-1q7-.5 13.7-.3h4.3a5 5 0 0 1 2.5.4c4.8 3.5 5.9 10.7 11.1 13.7 2 .8 4.2-.2 6-.9q3-1.2 6-2" class="b"/></svg>