<svg xmlns="http://www.w3.org/2000/svg" id="a" width="1920" height="2400" viewBox="0 0 192 240"><defs><style>.b{fill:none;stroke:#fff;stroke-miterlimit:10;stroke-width:.3px}</style></defs><path d="M0 0h192v240H0z" style="stroke-width:0"/><path d="M8.7 227.3c3.6-1 6-4.3 8.7-6.7 4-4.1 9.6-7.4 15.6-7.1 2.6 1.8 4.4 4.8 6 7.4 1.8 2.2 4.3 7.8 7.9 6 3.1-1.9 4.8-5.7 7.8-7.6 4.8 2.4 9.6 5 14.8 6.1a69 69 0 0 0 33-1.7c12-3.4 4.1-.6 16.5 1.7q6 1.1 12.2 1 2.6.5 5.2.8c4.9.4 9.9-.3 14.8 0 3.4 0 7 .4 10.4-.3 6.3-1.3 11-6 15.6-10 2.2 0 4.3 1.5 6.1 2.6" class="b"/><path d="M8.7 223.4c6.6 3.3 12.4-11.7 24.3-12.6 2.9 2.4 4.8 6 7 9 2 2.7 4.5 5.9 7.8 2.7 2.9-2.5 5.1-6.4 8.7-8 18.9 6.9 29 4.5 47.8.7.9.5 1.8 1.5 2.6 2.2q2.3 2.2 5.2 3.7c7.6 3.4 16.2 2.7 24.3 2.8l12.2-.3 9.5.3c8.6.2 14.8-6.6 20.9-11.7 1.5 0 3 .9 4.3 1.5" class="b"/><path d="M8.7 218.4c7.8 7 12.7-6.9 24.3-10 1.1.2 2 1.6 2.6 2.4l4.3 6c4 5.4 6.4 4 10.5-.3 2.3-2.5 5.2-4.5 7.8-6.7q8.3 1.2 16.5.9c8.1-.4 16.2-1.7 24.3-2.3 3 1.7 5.2 4.8 7.9 7 5.8 5.8 13.2 5.4 20.8 4.5q3.5-.4 7-.3 1.6.6 3.5.7 2.5.2 5.2 0 2.2.1 4.3 0 1.8 0 3.5-.4 3.9.1 7.8.5c9 .8 15.4-6.7 21.7-12 .8-.2 1.9.2 2.6.4" class="b"/><path d="M8.7 213.4c4.7 4.8 7.9 4.4 13 .5 3.8-2.9 7.6-6 12.2-7.6 3.3 1.9 6.6 10.7 11.3 10.7 3.5-.8 5.7-4.3 8.7-6.1L59 207c1-.6 2.1-2 3.4-1.8 6.4-.3 12.8-1.3 19.2-1.9 4-.2 8.1-.7 12.1-.4 5.4 2 8.8 7 13 10.6 7.1 6.5 14.8 2.1 22.7.4 7 4.7 9.7 2.9 17.3 1.9a17 17 0 0 0 7 1.1c1.1 0 2.3-.7 3.5-.8 2.2.4 4.6 1 7 .9 5-.3 9.2-3.8 13-7 2-1.6 3.7-3.8 6-5" class="b"/><path d="M8.7 209.1c4 4 7.7 6 13 2.8 4.3-2.5 8.4-5.7 13-7.6l.9.2c3 3.1 7 11.2 12.2 8.4q2.3-1.4 4.3-2.9 2.2-1.3 4.4-2.7c3.4-2.3 6.6-5.2 10.4-7 4.5-1.1 9.3-1.3 13.9-1.5 13-.6 14.6 1.5 23.4 10.4 7.6 7.8 13.7 3.3 21.8-.7 7.7 6.4 9 6 18.2 2.7l3.5-.8c.8-.3 2-.2 2.6.4 2.4 1.4 5 3 7.8 2.7 1.2-.2 2.4-.9 3.5-1.1 2.2.7 4.6 1.4 7 1 5.9-1.1 10.3-5.8 14.7-9.5" class="b"/><path d="M8.7 205.7c3 2.6 7 5.2 11.3 4 5.8-1.6 10.7-5.5 16.5-7.4 3.5 3 6.6 9.5 12.2 7.3l4.3-2.1a31 31 0 0 0 5.2-2.8c8.2-5.8 11.8-9.4 22.6-9.2 11.5-.4 14.8 3 22.6 10.6 2.3 2.2 5.3 4.5 8.7 3.9 4.3-.7 7.7-3.8 11.3-6 2.5 2.4 5 5.5 8.7 6 3.1.3 6-1.7 8.7-3.1 3.1-1.7 6.7-3.3 10.4-3 4 3 8.6 8.7 13.9 4.9 1.7.3 3.4 1.2 5.2 1.3 5 0 9.2-3.4 13-6.3" class="b"/><path d="M8.7 203.2c3.3 2.2 7.2 3.9 11.3 3.3 6.3-1 12-4.4 18.2-6.1 3.3 2.7 6.4 7.3 11.3 6 3.6-1 7.3-2 10.4-4.2 7.4-5 12.2-9.7 21.8-9.6 9.7-.3 14.2 3.7 20.8 10 2 1.8 4.3 3.7 7 4 4.4 0 8-3.2 11.3-6 2.8 2.3 5.4 6.3 9.5 6 3-.6 5.4-2.9 7.9-4.6 3.7-2.8 8.2-5.3 13-5 1.9-.3 3 1.6 4.3 2.7q2.9 3 6.1 5.6c1.5 1 3.5 1.7 5.2 1 .8-.3 1.8-1 2.6-1 4.7 2.6 9.7.7 14-1.8" class="b"/><path d="M8.7 201.4c7.8 3.4 15.6 1 23.4-1l5.2-1.2c1.1-.2 2.4-.8 3.5-.4 2.2 2 4.8 4 7.8 4.3 5 0 10-1.4 14-4.2 6.3-4.5 11.7-9 20-9.1 8-.4 13.4 3.4 19 8.8 4.8 4.3 8 6.4 14 2.3 1-.6 2.2-2.1 3.4-2.2 2.4 2 5.3 5.2 8.7 4.2 3.1-1 5.4-3.8 7.8-6 4.3-4 9.7-6.9 15.7-6.4 3 0 4 1 6 3 2.4 2.4 4.5 5.2 7 7.4q3.9 3.7 8.7 1.2c3.3 1.5 7 1.2 10.4 0" class="b"/><path d="M8.7 199.4c5.5.7 11 0 16.5-.7l17.4-2.1c2 1 3.8 2.5 6 2.8 4 .6 8.5.2 12.2-1.7 8.7-4.8 13.1-11.5 24.3-11.1 9.7.1 14 6.1 20.9 11.4 3.5 2.6 7 2 10.4-.6 1.3 0 2.4 1.2 3.5 1.6 3.7 2 7.1-1 9.6-3.6 5.9-6.3 10-10.3 19-10.1q4 0 8 .9c3 1.7 5.4 4.8 7.7 7.4 3.9 4.4 6.8 7.2 13 5.6q3.1.7 6.1.4" class="b"/><path d="M8.7 196q8.6-.9 17.4-1.1c6.3-.2 12.7 0 19-.5a19 19 0 0 0 17.5-.6c8.6-5.6 12.7-11.6 24.3-11.1 14.5 0 18.9 15.4 27.8 13.3.8-.2 1.8.2 2.6.2q2.3 0 4.3-1.2c6-4 9.7-12 17.4-13.2 2.9-.5 5.8-.3 8.7-.3s5.9-.2 8.7.4c5.1 1 8 4.6 11.3 8.2 5 5.5 8.4 6.4 15.6 6.1" class="b"/><path d="M8.7 190c11.6-1.2 23.1 1.8 34.7 1.9H47l2.6.7q3.5.4 7 0c6.4-1 10.6-6.4 15.6-10 3.4-1.8 7.5-2.2 11.3-2.1 14 .2 19.5 13.2 28.7 12.2.4 0 1.3-.2 1.7-.4 1.4.2 3 .7 4.4.2 7-3 9.5-14.7 18.2-14.5q9.6 0 19.1.1c4.3.5 7.6 3.6 10.5 6.4 5.4 5.7 9 8.8 17.4 8.2" class="b"/><path d="M8.7 182.2c2.5-2.7 18.6 3.3 22.6 4.2q8.1 2.3 16.5 2.3c3.4.6 7 1 10.4.2 3.4-.7 6-3.2 8.7-5.2a29 29 0 0 1 15.6-2.8Q88 182 93 185c3 1.7 6 3.9 9.5 4.4 4 .4 7.3-2.3 10.5-4.3 5.4 4.4 8 6.7 13 .2 3.3-3.8 6-9.3 11.3-10.5q3.5-.1 7-.1h8.6c4.2-.4 7.7 2.5 10.5 5.4 7.3 7.7 8.6 10.5 20 8.8" class="b"/><path d="M8.7 181.1c2.7-1.7 10.9-6.4 13.9-4.5 6.7 3.2 13.3 7.3 20.8 8.3q3 .4 6.1.3 3 .6 6 .7 3.3.1 6.2-1.3c1.1-.6 2.3-1.7 3.4-2.2a31.6 31.6 0 0 1 21.7 1.1c4.7 1.8 9.3 3.7 14 .8q3.7-2.3 7-5.1 1.2-1 2.5-2l.9-.7.9-.1 4.3 4c1.6 1.7 3.2 3.7 5.2 4.9 3.8 2.1 6.6-2.8 8.7-5.3 2-2.7 4.1-5.7 7-7.6 2.3-1.6 5.2-1.3 7.8-1.3l8.7.1c7 1.6 9.9 9.8 15.6 13.5 4.3 2.8 9.3-.5 14-.7" class="b"/><path d="M8.7 179.7c6.8-3.8 13.7-7 21.7-5.4 3.8 2.5 7.7 5 12.2 6.3q4.3 1.1 8.7 1c2.2.2 4.6.8 6.9.8a9 9 0 0 0 4.3-1l1.8-1.3 1.7-.2q5.7-.3 11.3.9c3.7.7 7.5 2 11.3 1.5 8.9-1.4 13.6-10.6 21.7-13.6 5 1.6 8.1 6.5 11.3 10.3 3.6 4.3 6 4.6 9.6 0 4.3-5.1 7.7-12.2 15.6-11.3q3.1-.2 6.1.2c5.1 1.8 7.8 7.1 11.3 10.8 7.3 8.4 10.6-.3 19.1-.6" class="b"/><path d="M8.7 177.6c10-4 16.6-7.5 27.8-4.8 3.7 2.3 7.7 4.5 12.1 4.9q2.7.2 5.3.1c2 .3 4 1.1 6 1.1q1.9 0 3.5-.9.8-.6 1.8-.7l4.3.5c11.6 2 15.2 2 24.3-6 4-3.5 8.4-7.6 14-7.6 3-.1 6.1 0 8.6 2 2.4 1.8 4.3 4.5 6.1 6.9 2 2.5 5 7.7 8.7 5.1 4.8-3.8 7.3-10.4 13-13.1q2.9-1.2 6.1-.8c3 .4 5.1 2.8 7 4.9 3 3 7 11.4 12.1 9.4 4.8-2.4 8-7.1 14-7" class="b"/><path d="M8.7 175c6.2-1.2 12-4.1 18.2-5q6.6-1 13 .1c1.8.8 3.5 2 5.3 2.6q4.6 1.6 9.5 1.2c1.8 0 3.5 1.1 5.2 1.4a7 7 0 0 0 2.6 0c.9 0 1.8-.7 2.7-.8l3.4.6c9.3 1.9 14.4-2.5 20.9-8.2 3-2.6 6.3-5.5 10.4-6q5.3-.1 10.5-.1c2.6 0 5.5-.4 7.8 1.3 3.2 2.3 5.4 6 7.8 9.1a13 13 0 0 0 4.3 4c5.6 2.1 10.7-12.6 19.2-14.1 7.1 1.9 12 18.7 19 13.3 4.7-3.4 8.4-9.5 14.8-9" class="b"/><path d="M8.7 172c5.3-.3 10.5-2 15.6-3.4q7.3-2 14.8-2 1.7 0 3.5.3 1.2.8 2.6 1.4 3.2 1.6 7 1.8h4.3c1.7.4 3.4 1.6 5.2 1.9q1.8.1 3.4-.5 3.5.9 7 .3c8.5-2 13-11 20.9-14 2.4-.8 5.2-.4 7.8-.5H112c5 0 6.9-.2 10.4 3.7 3.2 3.5 5.4 8.2 9.6 10.6 3.9 1.8 7-3 9.5-5.4 2.4-2.6 4.8-5.2 7.9-6.9h.8c2.7 2.1 4.8 5 7 7.6 2 2.4 5 6.6 8.7 4.6 6-3.8 9.1-12.2 17.3-11.7" class="b"/><path d="M8.7 168.6c8.6.5 16.8-2.7 25.2-4.4a53 53 0 0 1 9.5-1l1.8 1q3.2 1.6 7 2c1.6.2 3.5 0 5.1.4 1.9.1 3.5 1.5 5.2 1.9 1.1.3 2.4-.3 3.5 0a11 11 0 0 0 7-1.5c6.2-3.7 10.1-11.1 17.4-13 3.4-.4 7 0 10.4-.2h16.5c4.7.8 7.5 5.3 10.4 8.6 2.3 2.6 4.9 6.3 8.7 6.2 2.8-.5 5-2.7 7-4.4 2.2-2 4.5-4.3 7-6 1.6 1 2.9 2.9 4.3 4.3 2 2.2 4 5 7 6 4.3 1 8.3-6 11.2-8.6 2.7-3 6.3-5 10.4-4.9" class="b"/><path d="M8.7 164.9c5.5.4 11 .4 16.5-.9 6.3-1.4 12.6-3.9 19.1-4.3q3.6 2.3 7.8 3 3.1 0 6.1.8 2.6.7 5.2 1.6c3.6.5 6.9-.8 9.6-3.1 4.8-3.9 8.4-10 14.7-11.5 4.3-.3 8.7 0 13-.1h14.8c6 0 10 5.6 14 9.4 9 9.7 13 4.3 21.7-2 3.2 2.6 6 6.9 10.4 7.4 3.3-.3 5.7-3.3 7.8-5.5 4-4.6 7.2-8.9 14-8.7" class="b"/><path d="M8.7 161c6.3.3 12.8 1.3 19-.1 5.7-1.1 11-3.5 16.6-4.5 2 .9 4 2 6 2.5s4.2.5 6.2 1c2.8.6 5.7 2 8.6 1.8 8.5-1.7 12.2-13.3 21-14.7q13.9-.2 27.7 0c8.8.3 14.8 10.1 22.6 13.5 5.3 2.7 11 0 15.6-2.8 1.4 0 2.4 1.3 3.5 2q2.5 1.7 5.2 2c3.6 0 6.4-3 8.7-5.4 4.2-4.4 7.2-9 14-9" class="b"/><path d="M8.7 157c5.8-.1 11.5 1.4 17.4 1.2 6.3-.2 12.1-3.2 18.2-4.7 2 .8 4 1.9 6 2.4q2.7.5 5.3.9 3 .8 6 1.4h3.5c7.3-.5 11.5-13.7 20-14.6q7.5-.1 14.8-.1 6.1-.2 12.2.2c4.1.8 7.7 3.3 11.3 5.4 4.4 2.8 9 5.7 13.9 7.5 6 2.3 11.3 2 17.4 0 7.8 3.8 12 .3 17.3-5.4 3.2-3.6 6.2-6.8 11.3-7.1" class="b"/><path d="M8.7 152.9q5.2-.4 10.4.6c4.3.7 8.7 1.7 13 1q4-.7 7.9-2.2c1.3-.5 2.8-1.2 4.3-1.3q3.4 1.6 7 2.3l6 1q3 .8 6.1.2 2.2.6 4.3-.3c3.9-2 6.5-5.6 9.6-8.5 3.2-3.2 7.5-5.7 12.2-5.7h10.4c3.2 0 6.5-.1 9.6.8 2.8.8 5.3 2.5 7.8 4a62 62 0 0 0 7.8 4 86 86 0 0 0 32.2 5.7c1-.2 2.3.2 3.4.2q2.2.2 4.4-.5c7.5-2.2 10.3-11.6 18.2-13" class="b"/><path d="M8.7 148.6q6.1-.9 12.1.6c4.3 1 8.6 2.5 13 2 3.4-.3 6.5-1.6 9.6-2.5q5.5 2.1 11.3 2.4c2.3.2 4.8.4 7-.4 1.7.4 3.5.9 5.2.3 3-1 5.5-3.4 7.8-5.5 5.1-4.9 10-8.3 17.4-8.5 5.4-.2 12-.3 16.5 2.8 3.3 2.4 6 5.8 9.6 7.8 7.3 4 16.3 2.6 24.3 2.4a87 87 0 0 1 11.3.2c3.2.2 6.4 1.1 9.6 1.1 5 .4 8.7-2.4 12.1-5.7q2.3-2.3 4.4-4.7 1.6-1.1 3.4-2" class="b"/><path d="M8.7 144c9-2.2 15.1 1.8 23.4 3.6q3 .5 6.1 0c1.4-.2 3-.8 4.3-1a38 38 0 0 0 17.4.4c11.7 4.6 15.9-12 32.2-12.2q6.3-.3 12.1 2.3c1.6 1 3 2.6 4.4 3.9 6.5 6.8 8 7.3 17.4 6.7 5.7-.1 11.6.5 17.3-.1 4-.3 8.2-1 12.2-1 3.5-.1 7 .5 10.4 1 6.2 1 9.3-.6 13-5.5 1.3-1.6 2.6-3.6 4.4-4.5" class="b"/><path d="M8.7 141.7a62 62 0 0 1 20 .4l3.4 1.2q4.3 1.5 8.7 1 5.3.3 10.4-.4l4.4-.7q1.8.3 3.5.8c6.8 2 12-3 17.3-6.5a25 25 0 0 1 26.1-2c2.5 1.9 4.5 4.6 7 6.6 2.7 2.5 5.2 2.8 8.7 1.6q5.6.7 11.3 0c1.4 0 2.9-.6 4.3-.5 2.8.6 5.8 1.3 8.7 1.2 5.6 0 11-2.4 16.5-2.5q4 0 7.8 1.2c3.3 1 7.4 2.4 10.4 0 2.4-1.7 3.7-4.5 6.1-6.2" class="b"/><path d="M8.7 140.8q7.4-.5 14.7-.3c4.7.1 9.3.6 14 .4 1.6-.2 3.4.1 5.1 0q3.5-.3 7-.7c3.2-.2 6.4.5 9.6.7 5.1.5 9.7-2.5 13.9-5.1 3.7-2.4 7.7-4.6 12.1-5.3 5.4-1 11 .2 15.7 2.8 1.3.5 2.5 1.9 3.5 3 2.4 2.5 5.7 6 9.5 4.1 3.1.8 6.4.5 9.6.6 4.3 0 8.8 0 13-1.3 9.2 2.9 11.6 0 20-2.5q5.7-1.6 11.3.5c8.3 4 8 5.2 15.6-1.2" class="b"/><path d="M8.7 136.6c9.5.8 19.2 1 28.7-.8 4 1.8 8.6 1.8 13 1.7 3.4-.1 7 .3 10.4-.5 6-1.2 10.9-5 16.5-7a24 24 0 0 1 17.4 0q4 1.7 7.8 4c2 1.2 3.6 3.5 6.1 3.5 1.7-.4 3.5.2 5.2-.1q3.9-1 7.8-1c7.4.1 10.5 2.3 18.3 0 6.6 3.3 12.2-2 18.2-4 3-1.1 6.7-1.7 9.6-.3 5.7 3 8.8 8.1 15.6 3.6" class="b"/><path d="M8.7 129.8c7.7 1.5 15.7 2 23.4.7 5-1 3.4-.8 7.9 1a33 33 0 0 0 20 1.3c4.4-1 8.6-3.2 13-4.6q11.6-4.2 22.6 2c9.8 5 11 5.2 20.8.1 2.8-1 6-1 8.7-.1 6 1.8 11 5.7 17.4 2.7 5.3 3.1 10.3-1.2 14.8-3.7 2.6-1.4 5.6-2.8 8.7-2.5 3.2 1.2 6 3.5 8.6 5.5 1.5 1.1 3.4 2.3 5.3 1.6q1.6.5 3.4 0" class="b"/><path d="M8.7 122.4a72 72 0 0 0 17.4 2 49 49 0 0 0 8.6-1l1.8.7c5 2.8 10.6 5.3 16.5 5 8.9-.4 17-5.2 26-4.7 4.6.2 9 1.7 13 3.6 3.4 1.3 6.9 3.1 10.5 2.4a4 4 0 0 0 3.5-.7q3.3-2.8 7-5.2c6.6-5.5 13-2 19 2.4 4.7 3.1 7.5 4.9 13.1 2.5 5 3.3 9.8-1.5 13.9-4a18 18 0 0 1 7-2.8c3.7 1 6.6 3.8 9.5 6.1 2.1 1.7 3.5 2.5 6 1.1l1.8.5" class="b"/><path d="m8.7 117.6 2.6-1.3a66 66 0 0 0 23.4 1.3c15.2 7.4 14.7 7.6 31.3 4.6a37 37 0 0 1 22.6 3.1c3.6 1.4 7.7 2.7 11.3 1 3.5 2.4 5.9-1.3 7.8-3.8 6.2-9.9 15-10.3 23.5-2.9 4.5 3.7 9.3 10.2 15.6 6.3.5 0 1.4.3 1.8.5q1.2.7 2.6.7c4.4-.3 7.6-4.1 11.3-6 1.5-.8 3.4-2.1 5.2-1.8 3.3 1.3 6 4 8.7 6.2 1.4 1.3 3.5 2.3 5.2 1q.7-.9 1.7-1" class="b"/><path d="M8.7 114.4q2.8-2 6-3 6.1 1.3 12.2 1.6 4 .2 7.8-.2c.9-.3 1.9.2 2.6.6l2.7 1.2q4.2 2.1 8.7 3.7c3.3 1.1 7 .7 10.4.5q6-.6 12.1-.2a52 52 0 0 1 13 3.3c5.4 2 8.8 2.7 14-.2 3.6 4.5 6.4 0 8.7-3.2s4.6-7.3 8.7-8.9c2.7-.8 5.9-.4 8.7.1 3 .7 5.6 2.5 7.8 4.5 3.6 3.2 6.5 8 11.3 9.4 2.1.4 4.2-.9 6-1.8 3.4 2.7 6.3 2.1 9.6-.2 3-2 6-4.6 9.6-5.5 2.6 1.2 4.8 3.2 7 5 2.7 2.6 5 3.8 7.7.5" class="b"/><path d="M8.7 111.4c2.3-1.7 5-3.5 7.8-4q5.6 1 11.3 1.6 4.3.3 8.7-.1c1.8-.5 3.6.7 5.2 1.4q3.4 1.7 7 3c3 1.2 6.3 1.2 9.5 1.3q6.1-.1 12.2 1c5 .8 9.8 3 14.7 4.2a13 13 0 0 0 11.3-2.6c1 .3 1.8 1.6 2.6 2.2 3 2.4 5.5-1.8 7-3.9 2.6-3.6 5-8.3 9.6-9.6 2.5-.7 5.2-.4 7.8-.4 4-.2 7.7 2.2 10.4 5.1 3.3 3.3 5.9 7.9 10.4 9.5 2.6.6 5-1 7-2.4.9.3 1.8 1.2 2.6 1.7q1.6 1 3.5.8c3.6-.6 6.4-3.5 9.5-5.2 1-.6 2.3-1.4 3.5-1.3 2.2 1.3 4.2 3.2 6.1 4.8 2.6 2.2 4.6 2.3 7-.3" class="b"/><path d="M8.7 108.4c1.9-1.5 6.2-5.1 8.7-4.4 5.4 1 10.9 2.4 16.5 2.3q3 0 6-.6c1.6-.5 3 .7 4.4 1.2q3 1.6 6 2.6 3.5 1 7 1.2 4.9.4 9.6 1.3c5.6 1 11 3.4 16.5 4.5 4.4 1 8.8-1.1 12.2-3.9l.8.2c2.4 3.4 4.6 5.8 7.9 1.6 4-5.2 7-12.7 14.7-12.4 3.5.2 7.2-.6 10.5.9 6.2 2.9 9.3 11.7 15.6 13.7 3 .6 5.5-1.6 7.8-3l.9-.1c7 7.1 10.6.5 17.4-2.2 4.1 1.9 7.5 8.7 12.1 3.4" class="b"/><path d="M8.7 105.5c1.5-1.3 5.7-5.5 7.8-4.5 5.2 1.3 10.3 3 15.6 3.4q6.3.6 12.2-1.3c2.1.5 4 2 6 2.6q3.5 1.3 7 1.7c6.5 1 12.9 2.8 19.2 4.6 7.8 2.5 12.7 1.2 19-3.9 1.2.6 1.9 2.1 2.7 3 2 2.4 3.8 3 6 .5 4.8-5.6 7.2-12.4 15.7-13 2.6 0 5.3-.2 7.8.2 5 1.2 8 6 11.3 9.6 6.6 7.7 9.3 5 16.5.3 4 3.8 6.7 6.3 12.2 3 1.7-.8 3.3-2.2 5.2-2.4 3.6 2.8 6.5 6.2 10.4 1.7" class="b"/><path d="M8.7 102.5q2.3-2.5 5.2-4.3c11.4 3.5 22 9.2 33.9 3q4.9 2.7 10.4 3.6l11.3 2.8c7 1.8 14 3.8 20.9.1 2-1 4-2.7 6-3.6 7 11.2 8.9 3.4 14.8-3 3.5-3.7 8.7-6.2 14-6 7 .6 10.7 7.9 15.5 12.2 4.9 4.5 8.3 2 13-1 1.4-.6 2.9-2 4.4-1.9 6.2 6.7 7.8 6.7 15.7 2.7 3.7 2.8 6 4.2 9.5.2" class="b"/><path d="M8.7 99.3c1-1 2.2-2.3 3.5-3 5.3 1.7 10.3 4.4 15.6 6 7.4 2.2 16 2.4 22.6-2.2q6 2 12.1 3.4c5 1.1 9.8 2.3 14.8 2.8 7.2.8 14.1-1.9 20-5.7 6.4 8.4 7.3 7 14-.2 2-2.3 10.9-8.8 13.8-8.2 6.8 1.8 10.3 8.5 15.7 12.5 3.5 2.8 6.8 1.7 10.4-.5 2.7-1.6 5.6-3.4 8.7-4.2 1.4.4 2.3 2.2 3.4 3.1 3.9 3.9 6.5 4 11.3 1.8.9.2 1.9.9 2.7 1.2 2.3 1 4.6-.8 6-2.5" class="b"/><path d="m8.7 95.9.8-1c.9-.2 1.9.3 2.6.6l3.5 1.4c3.7 1.6 7.4 3.4 11.3 4.4 4.3 1.2 8.7 1.4 13 1.4a20 20 0 0 0 13-4 88 88 0 0 0 21 4c8.6 1 17.4-.8 25.1-4.9 1.1.4 1.9 1.8 2.7 2.6 1.9 2.2 4.2 3.5 7 1.6q3.7-3 7.7-5.8c2.6-2 5-4.3 7.9-6 4 1.4 7.3 4.6 10.4 7.5 2.3 2 4.7 4.5 7.8 5.1s6-1.3 8.7-2.7c3.4-2 7.2-4 11.3-3.9 1 .3 1.9 1.7 2.6 2.4 1.9 2 4.1 4.2 7 4.3q1.7 0 3.4-.6c.8 0 1.8.6 2.6.6 2.2.2 4-1.5 5.3-3" class="b"/><path d="M8.7 93.6c4.4 1.2 8.6 3.5 13 4.8 5 1.7 10.4.9 15.6.6q4-.1 7.9.3c3.3.4 6.9.3 9.5-2a94 94 0 0 0 21.7 2.2c8.9 0 17.8-.9 26.1-4 5.2 6.2 7.8 4 14 .8q2.7-2.1 5.1-4.5c.7-.6 1.6-1.8 2.6-2 6.3 2.4 12.2 11.2 19.1 9.4 3.8-1 7-3.5 10.5-5 3.5-1.6 7.5-2.4 11.3-1.3 2.6 2 4.4 5.4 7.8 6.3q1.3.3 2.6.2c.4-.2 1.3-.2 1.8 0 2.4.6 4.5-1.3 6-3" class="b"/><path d="M8.7 92.4c12.2 3.9 12.3 5 25.2 1.4q4.3-1 8.7-.6 3.5.5 7 2c2.2.8 4.6 1.3 6.9 0 8 1.2 16.2.7 24.3.8q8.7.2 17.4-.7 2.6-.2 5.2-.7c1-.2 2.3-.8 3.5-.6 3 2.8 7.8 2.4 11.3.4 2-1 3.4-3 5.2-4.2 3.6 1.2 6.8 3.5 10.4 5 7 3 13-3.2 19.1-5.5 3.8-1.7 8.2-2.2 12.2-.8a6 6 0 0 1 3.5 2.4q1.5 1.8 3.4 3.3c1.5 1 3.5 1.8 5.3 1.3 2.3.7 4.5-1 6-2.7" class="b"/><path d="M8.7 90.2C20.9 94 21.6 93 33 88.3c3.8-1.4 8.2-2.1 12.2-.9q2.4 2 5.2 3.4 2.5 1 5.2 1.7h41.7c4.3 0 8.8.2 13-.6 1.4-.5 3 .5 4.4.6q2.7.4 5.2-.9c.8-.4 1.7-1.3 2.6-1.5 3.8.7 7.4 2.5 11.3 2.5 9-.6 15.2-9.8 26-9.4q3.7.2 7 1.8c2 2.4 4.1 5.3 7 6.8 1.2.8 2.9.8 4.3.6 2 .6 3.9-.7 5.2-2" class="b"/><path d="M8.7 87c3.4 1 6.8 2.4 10.4 2 8-1 14.3-8 22.6-7.6 9.5 9 12 7.6 24.3 7.7l14-.1 13.8-.8c6.1-.4 12.2.3 18.3.8 2 .2 4-.2 6 .1q2.3-.3 4.4-.2c5.9.5 10.4.2 15.6-2.8 7-4 14.2-8.8 22.6-7.6q2.3.3 4.4 1.2l1.7 2c2.9 3.2 6.3 8.7 11.3 7q3 1 5.2-1.1" class="b"/><path d="M8.7 83.4c3 1 6.2 2.4 9.5 2.2 3.8-.1 7.2-2.3 10.5-4.1 3.7-2.2 7.7-4.5 12.1-4.8 2 1 3.5 3.1 5.2 4.5 5.5 5 11.4 4.4 18.3 4.5 5.8 0 11.7-.1 17.4-1.3 6.6-1.2 13.2-3.3 20-3.4q4.5 0 8.6 1.2 2.8 2 6.1 3a7 7 0 0 0 4.4.2c.7-.3 1.7-1 2.6-.9 8.1-.4 15-5.2 22.6-8 4.6-1.6 9.8-2.4 14.7-1.4 2.2.5 4.8.9 6.1 2.8 2.9 3 5.7 7.8 10.4 7.7.8-.2 2-.2 2.7 0 1.2.2 2.5-.5 3.4-1.2" class="b"/><path d="M8.7 79.5c3 1.1 6.2 2.7 9.5 2.7 4.2 0 7.9-2.7 11.3-4.8 3.7-2.3 7.8-4.5 12.2-4.8 1.6.9 3 2.6 4.4 3.7q3 3 6.9 4.5 3.4 1 7 1.1c1.3.5 2.9 0 4.3 0q6.1.1 12.2-1.4c8.8-2.2 16.8-7.7 26-8.2 3 2.4 5.6 5.2 8.7 7.2q3.7 2.3 7.8 2.7c3.4-.2 5.8-3.2 7.9-5.6q3.4-.7 7-1.5 6-1.7 12-2.9c8-1.4 16.8-.4 23.5 4.4 2.1 2.4 4.6 5.1 7.9 5.6l1.7-.1h1.7q1.5-.3 2.6-1.2" class="b"/><path d="M8.7 75.4c3.3 1.4 6.7 3.3 10.4 3.3 3.9 0 7.2-2.4 10.4-4.3 4-2.5 8.3-5 13-5.3 1-.3 2 .4 2.7 1q1.2 1.3 2.6 2.4 3.5 3.2 7.8 4.5c1.7.6 3.6.4 5.2 1 2.4 1.3 3.9.5 6-.4 7.4-.6 13.8-4.4 20-7.8q3.9-2 7.9-3.5c.8-.2 1.8.3 2.6.7l3.5 2c5.2 3.6 9.8 8.9 16.5 9.7 4.8.5 7.7-4.4 10.4-7.5 1.5-1.8 1.7-2.8 4.4-2.5 10.5 0 21.4-.8 31.3 3.4q5.3 2.3 10.4 5c3.3 1.6 6.1 2.6 9.5.3" class="b"/><path d="M8.7 71.3c3.6 1.6 7.2 4 11.3 4 4.5-.1 8.3-3 12.1-5 4.5-2.6 9.6-4.9 14.8-4a24 24 0 0 0 12.2 6.6c1 0 1.8.9 2.6 1.3q1.6 1 3.5 1c3 0 5.5-2.3 7.8-4q3.2-1.4 6-3.1 3.6-2.1 7-4.1 2.2-.3 4.4-.2c7 .4 12.5 5.3 18.2 8.9 12.8 7.5 14.6-2.8 22.6-10 9.7 2 19.4 4 28.7 7.4 6.3 1.9 17.3 7.5 23.4 4.2" class="b"/><path d="M8.7 67.4c3.6 1.7 7.2 4 11.3 4.4 4 .3 7.8-1.6 11.3-3.4 3.8-2 7.8-4 12.1-4.5q4-.6 7.9.4 1.6 1.3 3.4 2.2 2.2 1 4.4 1.7c1.6 1 3.4 2.3 5.2 3 3.6 1.6 7.4-.3 10.4-2.2 2.5-1.5 5.1-3.2 7.8-4.3 8.3-3.4 15.4-.3 22.6 4 7.1 4 12.8 5 18.3-2 2.5-2.9 4.6-6.3 7.8-8.4 3.3.6 6.5 2.2 9.6 3.5q6.7 3.2 13.9 5.9c7.7 2.7 16 4.8 24.3 4q2.2.4 4.3-.2" class="b"/><path d="M8.7 63.8c4.8 2.3 10 5.3 15.6 4.4 4.6-.7 8.7-2.9 13-4.4a26 26 0 0 1 22.6 1c4 2.1 8.5 4.5 13 3.2 3-.8 5.9-2.2 8.8-3.3a25 25 0 0 1 19 .4c5 1.9 10.4 4.6 15.7 2.5 6-2.8 8.4-9.8 14-13.2.7-.2 1.8.3 2.5.7l3.5 1.8q4.7 3.1 9.6 6.1c9.3 5.8 19 5.7 29.5 5.1q1.7 0 3.5-.3 2.2.6 4.3.5" class="b"/><path d="M8.7 60.7c17.5 8.3 21.3 2 38.2-.5 3.2-.3 6.4-.6 9.6 0 6.1 1.3 11.7 5.3 18.2 4.7 4.4-.4 8.7-2 13-2.5q6.2-.6 12.2.8c5.5 1.4 11.3 3 16.5-.1 5.2-3.2 7.7-9.5 13-12.4 4.3.8 9.4 6.7 13 9.3 7.3 5.7 13.2 5.2 21.8 4.4 5-.4 9.9-.1 14.8-.3q2 .8 4.3.8" class="b"/><path d="M8.7 58c15.9 6 25.8 2.7 41.7.4 2.8-.4 5.8-1 8.7-.5 6.6 1 13 4 20 3.5 5.7-.2 11.5-1.2 17.3-.7 7 .5 14 2.1 20-2.3 3.8-2.5 8.3-10.3 12.2-11 5.5 2.8 8.7 8.6 13.9 12 6 4.2 12.7.7 19.1 0 5.8-.7 11.6.6 17.4 1.2q2.2.7 4.3.9" class="b"/><path d="M8.7 55.8A103 103 0 0 0 33 58c7.6 0 15.2-.5 22.6-2.4 7-1.3 14 1 20.9 2 6 .7 12.1.2 18.2.3 5.2 0 10.6.6 15.6-1 3.8-1 7-3.6 9.6-6.5q2.1-2.4 4.4-4.6c.6-.6 1.6-1.5 2.6-1.6 6.6 3.9 10.7 16 20 13.4 4.5-1.5 9-3.8 13.8-4 6-.4 11.7 2.2 17.4 3.4q2.6 1 5.2 1" class="b"/><path d="M8.7 53.6c9 1 18 .6 27 .8 4.8 0 9.8.4 14.7 0 3.5-.3 6.9-1.7 10.4-2 5.8-.5 11.6.5 17.4 1.3q8.6 1 17.4.8c4.6 0 9.4.1 13.9-1.2 6.5-1.8 10-7.3 14.7-11.5h1c4.1 3.4 6.7 8.6 11.2 11.7 7.6 4.9 13.8-9.7 28.7-4.9 4.2 1.3 8 3.6 12.2 5.1q2.9 1.2 6 .8" class="b"/><path d="M8.7 51q8.3.1 16.5-.3c5.8-.3 11.6-.9 17.4-.5 3.7.1 7.5 1 11.3.8q3.4-.5 7-1.3a33 33 0 0 0 13 .7c1.4-.1 2.9-.7 4.3-.7l7.8.8q6.5.4 13 .4a36 36 0 0 0 11.3-1.6c5.1-1.6 8.5-6 12.2-9.6 4 3 6.2 7.8 10.4 10.5 6.9 4.4 12.7-9.8 25.2-8.3 5.9.7 10.9 4.3 15.7 7.5 2.7 2 6.4 2 9.5 1.3" class="b"/><path d="M8.7 47.3c5.2 0 10.4.7 15.6.1 5.2-.4 10.4-1.9 15.7-2.1q4.4-.2 8.6.9c2.3.5 4.6 1.5 7 1.4l3.5-.3q1.6.3 3.4.3l7.9-.1c4.6 0 9.4.6 13.9-.7 2.5-.1 5.2.4 7.8.4 5.5.2 11.1.4 16.5-.7 4.6-.8 8.3-4 11.3-7.3l.9-.1c3.2 2.7 6.7 8.5 11.3 8.5 7.3-1.3 11.8-13.2 25.2-10.7 4.6 1 8.5 4 12.1 6.7q1.6 1.6 3.5 3a10 10 0 0 0 7 .8c1-.3 2.3-1 3.4-1.2" class="b"/><path d="m8.7 44 4.3-1c3.7.4 7.5 1.5 11.3 1.1 6.5-.4 12.6-3.9 19.1-3.6 3.4 0 6.6 1.3 9.6 2.9 3.9 1.7 8.2.3 12.2-.3a47 47 0 0 1 13-.3c2.8.6 5.8 1.4 8.7 1.4l3.5-.4 5.2.2c4.9 0 10 .4 14.7-.7q4.5-1.2 7.9-4.6c3.2 2 6.2 6 10.4 5.4 3.5-.9 6-3.9 8.7-6 4.7-4.5 10.8-7.2 17.4-5.9 4.3.8 8 3.5 11.3 6.3 2 1.7 3.5 4.2 6 5.3q3.1 1 6.1-.1c1.8-.7 3.4-2 5.2-2.6" class="b"/><path d="M8.7 40.4q5.2.8 10.4-.6c2 .2 4 1 6 1 3 0 6-1.1 8.8-2.1l3.4-1.2q.9-.4 1.8-.1 3.5.8 7 2c2.1.8 4.5 1.6 6.9 1.3.8-.2 1.8-.7 2.6-.4q2.2.6 4.3.4c5-.6 9.9-1.5 14.8-1.2q6.5.4 13 1 6.6.3 13 .2c5.3-.1 11.1.8 15.7-2.3 3.9 1.7 7.3 3.6 11.3 1 5.7-3.8 10.2-10 17.4-11 7.7-1.5 13.7 1.8 19.1 7 2.2 1.8 4 4.7 7 5.3 5.6.7 7.4-3.6 12.1-5.4" class="b"/><path d="M8.7 35.5a33 33 0 0 0 14.7 1.4q1.8.2 3.5.4 2.2-.1 4.4-.8 1.6-.6 3.4-.4c6.2 0 12.5 2.8 18.3-.6 4.7 3.1 10.4 1.1 15.6 1 6.1-.4 12.2.8 18.3.8 3.4 0 7-.5 10.4-.6q1.7.5 3.5.5 3.5.1 7-.3c1.6 0 3.5.4 5.2.4 2.2-.3 4.6.2 6.9-.2 6.9-1.4 11.1-7.9 17.4-10.6a19 19 0 0 1 17.4.4c2.9 1.6 5.4 4 7.8 6.2 2.5 2.3 6 5.4 9.5 3.6 4-2 7.3-5.2 11.3-7.1" class="b"/><path d="M8.7 29.5c9.8 4.8 13.8 4.5 24.3 4.1 4.9-.2 10 .9 14.8-.5l2.6-1.1c.3-.3 1.2-.7 1.7-.7 1.9 1.1 3.9 2.2 6.1 2.4 4 .3 8.1-.4 12.2-.3 4 0 8 .5 12.1.4q5.3-.2 10.5-1.4 3.3-.7 7-1.2c1.4.2 2.8 1 4.3 1.2q4.3.9 8.7.5c7 3 10.2-2 14.7-6.5 3.4-4 8.8-5.5 14-5.5 5.6-.1 10.8 2.6 14.7 6.5 2.2 2 4.3 4.4 7 5.8q1.6.9 3.4.4c1.1.1 2.4.4 3.5 0 4.7-2.2 8.4-6.2 13-8.4" class="b"/><path d="M8.7 23.3c9.5 5.7 13 7.5 24.3 7 6.2 0 13 .9 18.3-3 1.2.1 2.3 1.2 3.4 1.7 3.2 1.7 7 1.4 10.5 1.3 5.2-.3 10.4.4 15.6-.1 8.3-.7 15.9-5.8 24.3-5.4 4.5.2 8.4 2.7 12.2 4.7 8 4.2 12.7-9.1 22.6-11.4 3.3-.9 4.8-.7 7.8 1.2 4.7 2.7 7.6 7.7 12.2 10.6a4 4 0 0 0 3.5.1l.8-.5h.9c3.3 2.1 6.8-.2 9.6-2.1q4.1-3.1 8.6-5.6" class="b"/><path d="M8.7 20.2c5.3 1.8 9.9 6 15.6 6.7q1.4 0 2.6-.2l3.5.2c4.6-.1 9.3.2 13.9-.2 2.8-.3 5.4-1.6 7.8-3 4.7 3.4 8.4 3.3 14 3.2 4.5 0 9.3.3 13.8-.6 8.2-1.4 15.1-7.1 23.5-7.8 12.3-1.2 15.6 12.7 24.3 7 4.8-3.2 9-7.7 14.8-8.8 2-.2 4.7-.8 6 1 3 2.8 5.2 6.7 8.8 8.8 2 1.1 3.6-.5 5.2-1.6 3.6 2.5 6.6 2.5 10.4.4q5.3-3 10.4-6" class="b"/><path d="M8.7 18.8c4 1.3 7.9 3.7 12.1 4.5q2.2.3 4.4 0 3.9.3 7.8 0c4-.2 8.1.3 12.2.1q4.3-.3 7.8-2.8c3 2.3 6.8 2.9 10.4 2.8H73c9-.2 15.5-5.5 23.4-8.8 5.2-2.2 11.5-3 16.5.1 4 2.4 7 6.5 11.3 8.3 7.1 2.6 13.1-9 24.4-7.3 2.2 2.6 3.9 6 7 7.6 1.7.6 3.2-1 4.3-2.1l.8-.2c2.4 1.4 5 2.6 7.9 2.4 5.2-.7 10-3.6 14.7-6" class="b"/></svg>