<svg xmlns="http://www.w3.org/2000/svg" id="a" width="1920" height="2400" viewBox="0 0 192 240"><defs><style>.b{fill:none;stroke:#fff;stroke-miterlimit:10;stroke-width:.3px}</style></defs><path d="M0 0h192v240H0z" style="stroke-width:0"/><path d="M13.8 231c2.1-1 3.7-2.9 5.7-3.8 4-1.7 7.4 5.4 14.8 4.8q4.1 0 8.1-.6c2.5-.4 5-1.2 7.4-1.2 4.9.5 9.8 1.2 14.7 1.2q7 .6 14 .4c4.3-.1 8.7.7 13-.5 7.8-2 7.4-1.1 14.7.5 3 .4 6 .2 9 .2 2.7 0 5.5.2 8.2-.4 3.2-.8 6.5-.5 9.8-.2h5q2.7.4 5.6.6c2.8 0 5.5-.6 8.2-1q3 0 5.7.6 3.7.6 7.4 0c2.1-.4 4.3-1.4 6.5-1s4.4 1.2 6.6 1.3" class="b"/><path d="M13.8 229.4c1.7-.3 3.3-1.2 5-1.7 2.2-.8 4.4.2 6.5 1q3.1 1.3 6.5 1.1 4.1-.1 8.2-.5 4-.7 8.2-1c2.1 0 4.3.8 6.5 1q4.1.3 8.2 0c4.6.1 9.3.7 13.9.5 3.5-.3 7.1.2 10.6 0 3-.5 6-1.7 9-1.8 5.2-.2 10.3 2 15.5 1.7q4.1.2 8.2 0 3.3-.5 6.6-.8 3.7-.2 7.3.2 2.9 0 5.8.3 3.1.5 6.5.4c2.4 0 5-.6 7.3-.4q4.5.6 9 .4 3.8 0 7.4-.3c2.7-.2 5.5.4 8.2.3" class="b"/><path d="M13.8 227.6c2.2 0 4.4-.7 6.6-.7 2.4 0 4.9.7 7.3.8 2.2 0 4.4-.5 6.6-.6q4.8-.2 9.8-.8 2.4-.3 4.9 0 3.7 1 7.3 1.3 4.1.1 8.2-.1l7.4.1H80q2.8.1 5.7 0c2.5-.3 4.8-1.7 7.3-2 2-.2 3.9.2 5.8.3 4.9.4 9.7 1.5 14.7 1.6q3.3 0 6.5-.2 3.3-.6 6.6-.7c4 0 8.2.5 12.2.6q4.1.5 8.2.5l5-.2 4.8.2c2.2 0 4.4-1 6.6-1 1.9 0 3.8.7 5.7.9q4.5.2 9-.1" class="b"/><path d="M13.8 225.5h13.9c2.5-.3 5-1 7.4-1.1 3.2 0 6.5-.6 9.8-.8q2.5-.1 4.9.5 2.8 1 5.7 1.3c6 .3 12-.1 18 0q3-.2 5.7 0c2.5.1 5 .3 7.4-.7 1.9-.7 3.7-1.8 5.7-2.2 2.2-.3 4.4.6 6.5.8 5 .3 9.9 1.3 14.8 1.7q2.8.3 5.7 0c2.4-.4 4.9-.9 7.3-.6q3.8.5 7.4.8l9 .3q5.3-.2 10.6 0 3 .2 5.8-1c4-2.1 5.6-1.8 9.8-.1q4.4 1.2 9 .4" class="b"/><path d="M13.8 223.2c4.6 0 9.3.2 14-.3q5.2-.8 10.5-1.4c2.5-.3 5-.9 7.4-.8 3.7 0 7 2.2 10.6 2.5 8 .6 15.9-.7 23.8.1 5 .8 8.4-3.5 13-3.7q2.6.2 5 1l6.5 1q5.2 1 10.6 1.1c2.7 0 5.5-.5 8.2-.5 2.2 0 4.4.6 6.5.9q3.7.4 7.4.3c3.8 0 7.6-.4 11.4-.3 2.8 0 5.7.8 8.2-.5 2.7-1.4 5-4.3 8.2-4 1.7.3 3.3 1.3 5 1.9a19 19 0 0 0 8 .7" class="b"/><path d="M13.8 220.9q5.8-.9 11.5-.8 4.5.3 9-.2 2.8-.6 5.7-1.6 4-1.6 8.2-.3c2.6.9 5.3 2.2 8.1 2.6q7.4.6 14.8.2h5.7c2.7.5 5.6.7 8.2-.7 7.4-3.2 7.8-3.2 15.5-1q5.6 1.5 11.5 1.6c3.2-.1 6.5-.7 9.8-.5 2.4 0 4.9.9 7.3 1 6 0 12-.5 18-.4 2.2 0 4.4.6 6.6.3 5.4-1.2 7-8.6 13.9-6.6q2.3.9 4.9 1.3c1.8.4 3.8 1 5.7.9" class="b"/><path d="M13.8 218.7c2.5-.5 4.9-1.6 7.4-2 2.2-.3 4.4.5 6.5 1q2.8.8 5.7.6c2.4-.3 4.5-1.5 6.6-2.6 1.7-1 3.7-2 5.7-1.6 2.2.5 4.3 1.8 6.5 2.3 3.2.8 6.6.7 9.8 1.1q5.3 1.3 10.7 1c2.4-.2 5 .4 7.3.5s4.4-.9 6.6-1.5c5.8-1.6 8-2.2 13.9 0 4.1 1.5 8.7 1.5 13 1q3.3-.6 6.6-.5c2.4.3 4.9 1 7.4 1q4.5-.1 9-.7 7-.1 13.9.6c7.1 1.1 7.6-7 15.5-8.3q3.3-.5 6.5 0 3 .8 5.8 1.7" class="b"/><path d="M13.8 216.6c2.6-.3 4.8-2.1 7.4-2.6 3.2-.5 5.9 2 9 2.5q3.8.6 7.3-1.1c3-1.4 5.4-5 9-4.2q2.1.6 4.1 1.4c3.8.7 7.7-1.6 11.5-.2 5.5 3 5.7 3.5 12.2 3.6 2.2.2 4.4 1 6.6.9q2.4-.2 4.9-.8l3.3-.4c3.2-.7 6.6-1.5 9.8-.3q3.5 1.5 7.3 1.5 3.3 0 6.6-.2c2.1-.2 4.3-1 6.5-.7 2.1.3 4.4 1 6.5.9l9-1c3.8-.7 7.7.3 11.5.5 7 1 7.7.9 13-4q2.3-1.8 5-2.9 2.7-1.4 5.7-2c2.9-.6 5.7.6 8.2 2" class="b"/><path d="M13.8 214.6c2.3-.2 4.4-1.5 6.6-2.1 3.4-1.1 6.4 1.7 9.8 2 2.7.3 5.6.4 8.2-.8 3-1.4 5.3-5 9-4.8 1.3 0 2.7.4 4 .2 3-.5 5.3-3 8.2-3.5 2-.3 3.7 1.4 5 2.8q1.6 2 4 3.4c2 1 4.4 1.1 6.6 1.6 2.6.8 5.3 1.7 8.1 1.2q3.3-.4 6.6-.7c2.1-.3 4.3-.9 6.5-.7 2 .2 3.8 1.1 5.7 1.4 3 .3 6 0 9 .1 2.5.1 5-.9 7.4-.7s4.9 1 7.3.6q3.8-.9 7.4-1.1c1.3-.1 2.8-.6 4-.5 3.4.3 6.6 1.2 9.9 1.5 4 .5 7.3.5 10.6-2.2 1.8-1.2 3.7-2.6 5.8-3.4l4.9-2.3c3.3-1.4 7-.1 9.8 1.8" class="b"/><path d="M13.8 212.6c2.5 0 5-1.1 7.4-1.4s5 .7 7.3 1.1q4.1.5 8.2.2c4.3-.1 7-4 10.6-5.4 1.3-.6 2.9-.7 4.1-1.3 3.1-1.5 5-4.9 8.2-6 2.2-.7 3.8 1.5 5 3q1.6 2.6 4 4.7c1.6 1.3 3.8 1.9 5.7 2.4 2 .7 3.8 1.8 5.8 2.3q2.8.7 5.7.2c3 0 6-.7 9-1 2.5-.2 4.9 1 7.3 1.1h5.8q3.7.3 7.3-.4c3.6-.6 7 1.1 10.6.2q3.7-.8 7.4-1.1c1.3-.2 2.8-.7 4-.6 3.7.3 7.1 1.7 10.7 1.8 4.2.4 7.7.2 11.5-2q3.7-1.7 7.3-3.6c4-2.4 7.7-.8 11.5 1.2" class="b"/><path d="M13.8 210.4c3.8.1 7.7-1 11.5-.4q4.8.6 9.8.4c2.4 0 5 .2 7.3-1 2-1 3.9-2.6 5.8-3.9q2.1-1.1 4-2.7c2.4-2 4.1-5 6.6-6.8s4.4.6 5.7 2.5q1.8 2.9 4.1 5.1c2.3 2.2 5.6 2.6 8.2 4.4 4.3 2.8 6.5 2.5 11.4 2.3 2.5 0 5-.6 7.4-.5l4.9.6 4-.2c2-.2 4 .2 5.8.2q2.4 0 5-.4c2.6-.4 5.4.7 8.1.4l9.8-1c1.6-.3 3.3-1 5-.9 3.2.4 6.4 1.8 9.7 1.8 6.7.4 10.4 0 16.4-3.2 6-3.8 7.9-2 13.9.5" class="b"/><path d="M13.8 208.2c5 .2 9.9-.2 14.7 0h9c1.9 0 4 .3 5.8-.2 2.1-.6 4-2.2 5.7-3.5 1.3-1 3-2.1 4-3.4 2.2-2.2 3.9-5.2 6.6-6.8 2-1 3.8 1 5 2.4q1.7 2.6 4 4.5c2.4 1.8 5.7 2.2 8.2 4 4.8 3.5 6.6 3.2 12.3 3q4.8-.2 9.8 0c2.4 0 4.8-1.4 7.3-.9 1.6.4 3.3 1 5 1 1.5 0 3.2-.5 4.8-.6 2.8 0 5.5.9 8.2.5 3-.2 6 0 9-.5 1.4-.1 2.8-.8 4.1-.9 2.8-.2 5.4 1.1 8.2 1.3 5.7.3 11.9.5 17.2-2 8-4.5 7.7-2.3 15.5.5" class="b"/><path d="M13.8 206q7.5.2 14.7 0h5.8l4.9-.3c2.4 0 5 .9 7.3-.1q3.7-1.6 6.6-4.2c2.4-2 4.8-6.2 8.1-6.2 3 .6 4.7 3.8 7.4 5 2.3 1 5.2 1 7.4 2.4s4.6 3.2 7.3 3.4q3.3.2 6.6 0 3.3.2 6.5-.1 2.2-.3 4.1-1.2c1.7-.9 3.9-1.5 5.7-.5 1.3.6 2.7 1.5 4.1 1.8 2.5.5 5-.9 7.4-.7 1.9.2 3.8.8 5.7.8l9.8-.1c1.6-.2 3.3-.8 5-.8s3.8.6 5.6.8c4.7.1 9.4.2 14-.8q3-.6 5.7-2c2.2-1 4.8-2 7.3-1.1s4.8 2.6 7.4 3.2" class="b"/><path d="M13.8 203.9h19.6c1.7 0 3.4-.7 5-1 2.5-.7 4.9.7 7.3 1 3.2.3 6.5-1.3 9-3.2 5.8-4.6 5.7-5 12.3-1.4 2.8 1.3 6.2.3 9 1.8 6.3 3.4 6 2.8 13 2.9 3.1 0 6.3-.3 9-1.8 1.9-.6 3.7-2.1 5.7-1.9 2 .4 3.3 2 5 3 3 1.8 6-.7 9-.7 1.3 0 2.7.6 4 .9 2.4.5 5 .3 7.4.4h5q2-.2 4-.2 2.4.2 5 .2l5.6-.3c3.9 0 7.7-.8 11.5-1.5 4.2-1.2 7-3 11.4-1 2.1 1 4.2 2.3 6.6 2.6" class="b"/><path d="M13.8 201.8q9.9.1 19.6-.1c2-.1 4-1 5.8-1.6 3.4-1.1 6.5 1.2 9.8 1.6 3.5.5 6.8-1.2 9.8-3 3-2 6.6-.2 9.8.2 2.1.3 4.4.2 6.5.8 2.7.7 5.4 2 8.2 2 3.5 0 7.3.4 10.6-.8 2-.7 3.8-2 5.8-2.4 3.4-1.4 5.4.5 8.1 2.4 3.3 2.1 6.5-.3 9.9-.7 2.2-.1 4.3.9 6.5 1 3 .2 6 0 9 .3q6.6.6 13-.3 3 0 5.8-.5 2.9-.5 5.7-1.3 3.7-.3 7.4-1c2.5-.3 5 .5 7.3 1.4q2.7 1.5 5.7 2" class="b"/><path d="M13.8 199.6h14q3.6 0 7.3-.3c2.3-.2 4.4-1.5 6.5-2.2 3.5-1.3 6.6 1.4 9.8 2.1 5.2 1.6 8.2-2 13.1-2 3.6 0 7.1 1 10.6 1.5q5 .9 9.9.9 4.2.1 8.1-1.3c2.4-1 4.8-2.5 7.4-2 3.5.3 6.2 3.4 9.8 3.3 3 0 6-1.6 9-1.5 1.9 0 3.8.5 5.7.5 2.7 0 5.5-.2 8.2.2 3.8.7 7.7.4 11.4 0 2.2-.3 4.5-.1 6.6-.6 3-.5 5.9-2 9-1.4 3 0 6-.3 9 .6 3 .6 5.8 2.4 9 2.2" class="b"/><path d="M13.8 197.4h9.8q3.8-.2 7.4 0c6.8 0 6.7-.3 12.3-3.5 1.8-1 4-.3 5.7.7 8.4 5.2 9 1.9 17.2 1.2 2.7 0 5.4 1.2 8.1 1.5q4.5.2 9 0 3.8-.1 7.4-1c2.7-.7 5.3-2.6 8.2-2.1 3 .7 5.7 3 9 3.2 5.2.1 10.3-2 15.5-1.4 2.7.1 5.5-.2 8.2 0l4.9.6q3.3 0 6.5-.3c2.4-.3 5 0 7.4-.4 2.7-.3 5.4-1 8.2-.7 3.2.6 6.6.3 9.8.9 3.2.5 6.5 1.7 9.8 1.2" class="b"/><path d="M13.8 195.3c3.5-.1 7.1-.4 10.7 0 3 0 6-.3 9-.1 2.2 0 4.6 0 6.5-1.4 6-4.5 6-3.8 12.3-.2 6.6 3.5 8.5.4 14.7.5 2.1.2 4.3 1.2 6.5 1.2h8.2q2.8-.3 5.7-.7c3.4-.3 6.4-2.3 9.8-2.5 2.8 0 4.8 2.3 7.4 3 2.4.6 5-.1 7.3-.5 4.4-.4 8.7-1.4 13.1-1 3.8 0 7.7.8 11.5 1q4-.2 8.1-.8l5.8-.1q4.9-.1 9.8.6 3.3.3 6.5.3c3.8.3 7.7 1.2 11.5.4" class="b"/><path d="M13.8 193c3 0 6-.6 9-.2q3.7.5 7.4.3 3.3 0 6.5-.2c3.7-.3 6-4.6 9.8-4.3 2.1.3 3.9 1.8 5.7 2.6q3.9 2.2 8.2 1.9c1.9-.1 3.9-.6 5.7-.5 2 0 3.9.6 5.8.6 2.1-.1 4.3-.6 6.5-.3q4.9.5 9.8-.1c3.1-.3 6-2.1 9-2.3 3.7 0 5.7 3.5 9.8 2.5q2.1-.5 4.1-1.2 2.4-.5 5-.7c2.6-.3 5.4-1 8-.6 4.2.5 8.2 2.4 12.4 2.3 4.4-.1 8.6-2 13-1.3q4.5.7 9 1.3 3.7.2 7.4.2c4 0 8.3.4 12.3-.6" class="b"/><path d="M13.8 190.7c2.2 0 4.4-.7 6.6-.7q2.5.2 4.9.8c2.1.4 4.4.1 6.5.1q3.3.1 6.5-.4c3.4-.9 6.2-4.5 9.9-3.4 2.2.8 4.3 2.3 6.5 3 3.7 1.6 7.7.5 11.5.7q2.4.2 4.9.2c1.8-.2 3.8-.7 5.7-.7 2.7-.2 5.5.5 8.2.7q3.3.1 6.5-.5c2.4-.5 4.9-1.6 7.4-1.3 2.2.4 4.2 2 6.5 1.8 2.4-.2 4.4-1.8 6.5-2.5q3.7-.9 7.4-1c9.6-1.2 9.2 6 22.9 2.5 5.3-1.6 8.8.3 13.9.9q4.5.2 9 0 6.7.2 13-1" class="b"/><path d="M13.8 188.1c4.6-.6 6-2 10.7 0 3.3 1.3 7 .4 10.6.5q3.4.1 6.5-1.3c2-1 4.2-2.3 6.6-1.9 2.6.5 4.7 2.5 7.3 3.1 2.1.6 4.4.2 6.6.2q3.7.1 7.3.1c3.6-.2 7-1.2 10.6-1.2 3 .2 6 1.2 9 1.2 2.8.1 5.5-.6 8.2-.7 2.5-.3 5 .5 7.4.7 5.7 0 5.3-4.4 15.5-4.5 8-.6 6.7 5.3 17.2 4.4 3-.2 6-1.3 9-1.1 3 0 6 1 9 1.2q3.3 0 6.5-.2l7.4-.1c3-.3 6-1 9-1" class="b"/><path d="M13.8 185.6q2.5-.6 5-1.4c4.8-.8 6.1 3.6 13 2.3 2.7-.5 5.5 0 8.2-.7s5.3-2.2 8.2-1.9c1.7.2 3.3 1.2 4.9 2 2.8 1.3 6 .5 9 .7q6.5.3 13-.6c2.5-.4 5-1.2 7.4-.7 1.9.4 3.8 1.1 5.7 1.3q3.8.2 7.4 0h5.7c1.9 0 3.9.3 5.7-.1 2.1-.5 3.9-2 5.8-3q4.2-2 9-2c1.8-.2 3.5.8 4.8 2 5 4.3 9.6 3.2 15.6 2.4 5.2-.3 10.4.9 15.5.8l12.3-.7c2.7-.3 5.4-1.2 8.2-1.1" class="b"/><path d="M13.8 183.6c2-.4 3.8-1.6 5.7-2 4.2-.4 6.7 4 11.5 2.7l4-.9q2.2 0 4.2-.2c2.7-.3 5.4-1.1 8.1-.8 2.3.1 4.4 1.4 6.6 2 1.6.3 3.3 0 4.9 0q3.3 0 6.5.1 4.2-.2 8.2-.5c2.5-.1 5-1 7.4-1 2 .2 3.8 1 5.7 1.3q2.4.3 5 .2h8.9c2.4 0 5 .2 7.4-.3 2-.5 3.8-1.8 5.7-2.8 2.7-1.6 5.8-2.9 9-2.8 2.3 0 4 2.3 5.7 3.5 4.3 3.9 10.3 1.7 15.5 2l9 .3c3.5 0 7.1.3 10.6 0l8.2-1c2.2-.6 4.4-1.3 6.6-1.1" class="b"/><path d="M13.8 181.9c2-.3 3.8-1.4 5.7-1.8s4 .6 5.8 1.4c3.1 1.5 5.2.7 8.1-.7q2.3-1 5-1 3.7-.4 7.3.2c3.3.6 6.4 2.5 9.8 2.4 4.4-.5 8.8.3 13.1-.3l5.7-.4q2.4-.2 5-.4c2.1 0 4.3.8 6.5 1q6.9.2 13.9 0c3.5 0 7.3.5 10.6-.9q3-1.3 5.7-3.1c2-1.2 4.2-2.5 6.6-2.5 2.4.3 4 2.7 5.7 4 2.5 2.5 5.7 2.7 9 2.5h18c3 0 6 .3 9-.2q3.7-.6 7.3-1.5c2.1-.5 4.4-1.2 6.6-.8" class="b"/><path d="M13.8 180c2.2-.3 4.4-1 6.6-1 3 .1 6 2 9 .8 2.2-.9 4.1-2.7 6.5-3.4 2.7-.6 5.6-1 8.2 0 3.2 1.2 6.3 3.2 9.8 3.7q2.8.1 5.7 0c2.4 0 5 .3 7.4 0a77 77 0 0 1 17.1 0c2.2.2 4.4-.2 6.6-.1q5.2.3 10.6.2c4.7 0 8.8.1 13-2.3 2.2-1.2 4.3-2.9 6.6-3.6 4.5-1.2 6.5 5.2 11.5 5.7 3.2.4 6.5.1 9.8.2H156c2.7 0 5.5.2 8.2-.2q3.3-.7 6.5-1.6c2.3-.9 5-1.3 7.4-.3" class="b"/><path d="M13.8 177.9q3.7-.1 7.4 0c3.3.4 6 .2 9-1.6 2.3-1.4 4.6-3 7.3-3.4 1.6-.5 3.3-.9 5-.4 2 .5 3.8 1.9 5.7 3q2.3 1.3 4.9 2.2c2 .6 4.4.2 6.5.2q3 .1 5.7.1c1.9-.1 3.9-.5 5.8-.4q4 .1 8.1.4c3.6.3 7.1-.4 10.7-.6q3.2.2 6.5.5h5.7q6.4.7 12.3-1.5c2.9-1 5.8-3.2 9-2.3 2.5 1 4.5 3.4 7.3 3.8 1.9.3 3.9 0 5.8 0h6.5c4.3 0 8.7.3 13 .1q4.2.2 8.3-.1 4.1-.6 8.1-2 3-.5 5.8 1" class="b"/><path d="M13.8 175.9c3.8-.1 7.7.4 11.5-.5 2.2-.7 4.3-2 6.5-3q2.8-1.3 5.7-2c2.6-1.1 5-1.6 7.4 0 3.5 2.3 7 5.4 11.4 5.5q3-.2 5.8 0 3.3 0 6.5-.4c3-.2 6 .5 9 .4q3.7-.1 7.4-.5 2.8-.4 5.7-.7c3.2 0 6.5.4 9.8.4 2.1.3 4.3 1 6.5.8 4.7-.6 9.3-1.7 14-2 2.2-.3 4.3 1 6.5 1.6 3.2 1 6.5-.5 9.8-.3q4.5.4 9 .3a139 139 0 0 0 22.9-.3c4-1.2 4.7-1.4 9 .2" class="b"/><path d="M13.8 173.7h6.6q3-.1 5.7-1.1a45 45 0 0 1 10.6-4.3c3-1.2 5.1-2.5 8.2-.5 3.5 2.4 7 5.5 11.4 5.9q5 .2 9.9-.2c2.7-.5 5.4 0 8.1.2 3.8 0 7.7-.7 11.5-1q5.2-1.3 10.6-1 2 0 4.1.3c2.1.6 4.3 1.8 6.5 1.7 2.2 0 4.4-.6 6.6-.6q4.5-.1 9 0c2.4.3 4.9 1 7.3.4 2.7-.4 5.4-1.7 8.2-1.1 3.8.8 7.7.6 11.5 1.1q8.5.5 17.1.1c2.2 0 4.4-.6 6.6-.8q2.5.2 4.9.8" class="b"/><path d="M13.8 171.4q3.7-.2 7.4-.3a12 12 0 0 0 6.5-1.6c3.1-1.6 6.5-2.4 9.8-3.4 4.8-2.5 6.6-1.9 10.7 1.3 6.6 4.8 11.2 4.1 18.8 3.5 2.1 0 4.3.7 6.5.7 2.5-.1 5-1 7.4-1.3q4.5-.1 9-1l6.5-.8c1.3 0 2.8-.2 4 .2 2.3.8 4.3 2.5 6.6 2.8 2 .2 3.9-.3 5.8-.3q6 .1 12.2.4c3.7.3 7.1-1.4 10.7-2.2 1.9-.1 3.8.6 5.7 1q3.3.5 6.5.8 4.5.6 9 .3h9q3.7 0 7.4-.2l4.9.3" class="b"/><path d="M13.8 168.7q3.2-.5 6.6-.3c1.8 0 4 .2 5.7-.6 3.2-1.7 7-2 10.6-2.8 2.3-.6 4.2-2.3 6.5-2.6 2.5-.2 4.6 1.7 6.6 2.8q3.5 2 7.4 2.4c3 .2 6-.3 9 .4 2.6.5 5.4 2 8.1 1.1 2.4-.8 4.8-2 7.4-2 1.9.1 3.8.6 5.7.4q3 0 5.7-.7c1.9-.5 3.8-1.3 5.7-1.5 3.8-.1 6.2 3.8 9.8 4l13.1.1c3.3 0 6.7.1 9.8-1 4.2-1.7 5.4-1.9 9.8-.5q4.5 1.2 9 1.5l7.4-.2q5.8.3 11.5.2 4.5.2 9-.2" class="b"/><path d="M13.8 166.3q2.4-.7 5-.8c1.8-.1 3.8.2 5.6 0 1.7 0 3.3-1 5-1.1 3.5-.4 7.5.2 10.6-2 1.2-.8 2.6-1.8 4-2 2.1-.5 4 .8 5.8 1.6q2 1 4 1c2.2.3 4.5 0 6.6-.1 3.4 0 6 2.6 9 3.8 5 2.3 7.7-2.7 12.3-2.5q2 .3 4 1 3.4.6 6.6.3c2-.3 3.9-1.3 5.7-2 4.2-1 6.5 1.5 9.9 3.2 2 .8 4.3.5 6.5.6l10.6-.1q3.4.1 6.6-.7c1.8-.6 3.7-1.6 5.7-1.6 2.5.2 4.9 1.5 7.3 2q2.9.4 5.8.3l5.7-.6c3 0 6 .7 9 .6 4.3 0 8.8.2 13-1" class="b"/><path d="M13.8 164.3q2.9-1 5.7-1.4l5 .2c1.3 0 2.7-.6 4-.6q3 .2 5.8.5c4.5.4 6.1-2.3 9.8-3.8 2.7-1 5.4 1 8.1.7 3.3-.2 6.7-2.4 9.9-.9 5.8 4.3 9.1 9 16.3 3.7 1.7-1 3.9-1.3 5.7-.6 10 4 9 1.1 18 .1 2.4 0 4.4 1.5 6.6 2.3q2.7.8 5.7.6l8.2-.2c3.8.2 7.8.3 11.4-1 2.4-1 5-.4 7.4.5q2.8.9 5.7.7c3-.1 6-1.5 9-1.5 2.5 0 4.9 1.2 7.3 1.3q4.5.3 9-.3 3-.5 5.8-1.7" class="b"/><path d="M13.8 162.5c1.9-.4 3.8-1.2 5.7-1.4 2-.3 3.9.2 5.8.2 3.8-.5 7.6 1 11.4.8 3-.2 5.4-2.3 8.2-3 1.6-.3 3.3 0 4.9 0 3.8-.1 6.8-3.5 10.6-3.2q1.5.4 2.5 1.5l3.3 2.6c2.3 1.6 5.2 3.2 8.1 3 1.8-.3 3.4-1.5 5-2.3q2.7-1.6 5.7-.4c6.3 2.8 8 2.7 14.7 1.8 1.6-.2 3.3-.7 4.9-.5q2 .3 4 .9c4.4.9 8.8.1 13.2 0q3.3 0 6.5.2c2.2 0 4.4-.6 6.5-.8 2.2-.3 4.4.5 6.6 1q2.4.2 4.9-.6 2.5-.6 4.9-1.6a9 9 0 0 1 8.2.3c3.2 1.7 7 2 10.6 1.5 3-.1 5.6-1.5 8.2-2.8" class="b"/><path d="M13.8 160.6c2.4-.4 4.9-1.3 7.4-1.2l6.5.5q4.5.8 9 .8 3.8-.2 7.4-1c2.1-.5 4.4-.3 6.5-.9q2.6-.8 5-2.1c1.6-1 3.7-2.1 5.6-1.5 1.7.9 3.2 2.3 5 3 13.5 6.7 9.8-2.4 21.2 1.7 2.6 1 5.5 1 8.2.9q5 0 9.8-.3 5.3.4 10.6.2c2.7-.1 5.5-.8 8.2-.5q5 .4 9.8 0c2.2 0 4.4.6 6.6.6 1.7 0 3.4-1 4.9-2q2.4-1.3 4.9-2.7c7.1-4.3 9.4 4 16.3 4a19 19 0 0 0 6.6-.8q2.5-1 4.9-2.5" class="b"/><path d="M13.8 158.6c3.3-.2 6.6-.9 9.8-.5l7.4.5q3.3 0 6.5-.2c5.5.2 11.3.8 16.4-1.4 2.8-1 6-3.7 9-1.6q2.8 1.2 5.7 2c1.8.6 3.8 1.3 5.7 1.2 2.2 0 4.4-1 6.6-1 2.7.2 5.4 1 8.1 1 2.5 0 5-.4 7.4-.4q3.7-.1 7.3.4h8.2q5 .2 9.8-.4 5.3.2 10.7.2c2.1 0 4.4.4 6.5.2 2.7-.3 4.7-2.5 6.5-4.4q2.6-2.4 5.8-4.2c3.9-2 7.1 2.3 9.8 4.6 5 5 11.5 3.2 17.1.3" class="b"/><path d="M13.8 156.5q4.1-.1 8.2-.1 4.1.2 8.2-.1c5-.7 7-2.8 12.3-1 11.8 3.8 15-3.1 20.4-1.1 3.2.8 6.5 2 9.8 2.3 1.9 0 3.8-.6 5.7-.6 2.7 0 5.5.7 8.2.6 3.3 0 6.6-.8 9.8-1.3 3.3-.8 6.6.4 9.8.7q3.3.1 6.6.1c1.8.2 3.8.6 5.7.4 4.3-.5 8.7 0 13 0 3.4.2 7.2.2 9.9-2.1 3-2.6 4.8-6.3 8.1-8.5 2.8-2 5.5 0 7.4 2.2 2.6 2.4 4.9 5.5 8.2 7 4.2 1.7 8.9 0 13-1" class="b"/><path d="M13.8 154.3c5.2-.1 10.5.5 15.6-1a27 27 0 0 0 4.9-2c1.7-1 3.7-2.2 5.7-1.7 2 .7 3.8 2.3 5.7 3.3 3.7 2.2 8.3 1.4 12.3.3 4-1.5 8.2.7 12.2 1 2.5.3 5-1 7.4-.7q2.4.3 5 .8 2.8 0 5.6-.3c3.7-.2 7.1-1.6 10.7-2.2 1.9-.1 3.8.4 5.7.7q2.8.5 5.7.6c2.5-.2 4.9 1 7.4 1.2l4.9-.3q4 .2 8.2.3c3.7.1 7.8-.9 10.6-3.5 2.4-2.2 4.1-5.2 6.5-7.5 3.8-3.7 6.6.5 9 3.4 2.9 3.1 6.2 6.6 10.6 7 3.6.5 7.1-.3 10.7-.4" class="b"/><path d="M13.8 152c10.5 0 14-.4 23-6.4q2.5-1.5 4.8.5c2 1.6 3.6 3.6 5.7 4.8 2.7 1.6 6 1.3 9 1 2.2-.2 4.4-.8 6.6-.4 2.7.2 5.4.9 8.2.6 1.6-.2 3.2-.9 4.9-1q2.8.2 5.7.9 5.4.5 10.6-.7c4.2-1.2 6-2.6 10.6-1.6q3 .5 5.8.7 2 0 4 .4c1.6.5 3.3 1.3 5 1.3 1.6 0 3.3-.4 4.9-.4 3.2.1 6.5.7 9.8.3 1.7-.1 3.3-.9 4.9-1.5q4-1.6 6.5-4.9c2.2-2 4.6-6.8 8.2-5 2.3 1.6 3.8 4.2 5.7 6.2 2.5 2.3 5.5 4.5 9 5 3.8.4 7.7 0 11.5.1" class="b"/><path d="M13.8 149.4c4 .1 8.4.5 12.3-1q3.6-1.7 6.5-4.4c2-1.4 4.6-5.3 7.4-4.2 3.5 2.4 5 7.1 9 9.1a20 20 0 0 0 9 1c3.5-.3 7 .2 10.6 0 3-.1 6-1.3 9-.8 4.8.8 9.9 1.4 14.7.4 2.5-.6 4.8-2.2 7.4-2.3 4-.3 8.2.5 12.2 1 2 .5 3.8 1.6 5.8 1.8q2.4 0 4.9-.2l4 .2q3.4.1 6.6-.6 2.2-.7 4-1.5 3.8-1 6.6-3.5c1.6-1.3 3-3 5-3.8 5.5-2 6.7 7.5 18.7 9.1 3.6.4 7.2.2 10.7.3" class="b"/><path d="M13.8 147c4 .4 8.5 1 12.3-.8 3-1.6 5.2-4.2 7.3-6.7 1.5-1.5 2.9-3.5 5-4.1 2.9-.4 4.9 4 6.5 6 3.6 5.5 7.5 6.5 13.9 6.4H67q3.3-.4 6.5-1c3-.1 6 .7 9 .9 4.7.2 9.7.6 14-1.7 2.7-1.2 5.9-2 8.9-1.6q2.4.5 5 1.2 2.3.4 4.8 1.3c3.4 1.1 7.1 1 10.6 1a27 27 0 0 0 9.9-2c1.8-.6 3.9-.7 5.7-1.4 2.8-.9 5.1-3.4 8.2-3.7 3.4-.1 6 2.9 9 4q4.8 1.8 9.8 2.6 4.8.6 9.8.4" class="b"/><path d="M13.8 144.6c3.7.8 7.8 1.5 11.5 0 4.7-2.2 7.1-7.4 11.4-10.3 3-1.8 5.5.8 7.4 3 2.7 3.3 5.5 6.4 9.8 7.6q3.2 1 6.5.8 5.4-.1 10.7-1c2.7-.5 5.5.2 8.1.6q4.1.6 8.2.3c2.5 0 5 0 7.4-1q2.8-1.5 5.7-2.6a8 8 0 0 1 5-.7c1.6.4 3.2 1.4 4.8 2q3.2.7 6.6 1.2 4 .4 8.1.7 4.3-.1 8.2-1.3c3-1 6-.6 9-1.2 2.5-.6 4.8-2.1 7.4-1.9s4.9 1.7 7.3 2.5q2.8.6 5.8.5c2.2 0 4.4.7 6.5 1.2q4.5.7 9 .7" class="b"/><path d="M13.8 142.5c3.7 1 7.9 1.6 11.5 0 3.6-2 6.1-5.6 9.8-7.5a9 9 0 0 1 9 .8c3.4 2.4 6.6 5.5 10.6 7q2.8.8 5.7.7 5 0 9.8-1a14 14 0 0 1 5 0c2 .4 4.3 1 6.5 1l5.7-.2c3 0 6.3-.1 9-1.8 2.3-1.3 4.6-3.2 7.3-3.4 2.8 0 4.8 2.3 7.4 3 3 .6 6 0 9-.1 2.2 0 4.3.9 6.5.7q4.2-.2 8.2-.7c2.4 0 5 .4 7.4.1q2.4-.3 4.9-.8c3.1-.2 6 1.6 9 2.1 3.3.8 6.5-.6 9.8-.5 4 .4 8.1 1.6 12.3 1.5" class="b"/><path d="M13.8 140.7c3.6.7 8 1.2 11.5-.4 3.8-2.4 7.3-6.7 12.2-5.8 7.7.1 10 3 16.4 6 2.8 1.1 6 .8 9 .8 3.3.1 6.5-1 9.8-1.3 2.5-.3 4.9 1 7.3 1.3q2.5.1 5-.2h4q3.5.1 6.6-1.3c3-1.5 6.2-4.6 9.8-3.6q2.2.8 4 1.7c2.2.8 4.5.5 6.6.1 1.9-.3 3.9-.9 5.8-.7q2 .6 4 .9c3.3.3 6.6.2 9.9.8q3.1.5 6.5.6 2.4-.1 4.9 0c3 .4 5.9 1.8 9 1.7q3 0 5.7-.2 2.9-.7 5.7-1 2.5 0 5 .2 2.8.4 5.7.5" class="b"/><path d="M13.8 139q3 .3 5.7.2c2 0 4 0 5.8-.8 3.2-1.4 6-4.3 9.8-4.5q2 .1 4 .7l4.1.8c3.2.5 6 2 9 3 3.2 1 6.6.8 9.9.8q3.7.2 7.3-.7c2.4-.7 5-1.5 7.4-.3q2.3 1 4.9 1 2-.3 4-.4c2.8 0 5.6.3 8.3-.2 3.3-.7 6.3-2.7 9.8-2.9 3 0 6 .8 9 .3 2.7-.4 5.4-1.3 8.1-1.5l3.3.3 5 .6c2.1.5 4.3 1.5 6.5 2q2 .5 4 .5l5.8.4c1.6.1 3.3.7 4.9.8 2.4.3 4.9-.5 7.3-.3 1.6.1 3.3.5 5 .4q2.8-.2 5.7-.8c3.2-.5 6.5-.5 9.8-1" class="b"/><path d="M13.8 137c5-.3 10.2.9 14.7-1.4 2.2-1 4.2-2.5 6.6-2.8 2.5 0 4.8 1.6 7.3 1.9q3 .5 5.8 1.2a25 25 0 0 0 6.5 1.1h7.4q3.3.1 6.5-.2c2.4-.4 4.9-1.7 7.4-1q2 .8 4 1.2c1.6.2 3.4-.2 5-.2q3.7.2 7.3.2 3.3 0 6.6-.6 2.8-.4 5.7-.6c2.8-.2 5.5-1.3 8.2-2q6-1.4 12.2-1.9c3.8-.6 6.7 2.2 9.8 3.7q2 .6 4.1.6 3 .2 5.7.6c6.4 1.3 7.5-2.4 12.3-1.7 2.2.5 4.3 1.8 6.6 2 5 0 10.1-1.7 14.7-4" class="b"/><path d="M13.8 134.5q3-.2 5.7.3c3.3.1 6.7.3 9.9-.8 2.4-.8 4.6-3 7.3-2.4 1.4.3 2.7 1.2 4.1 1.5q3.3.8 6.5 1.2c4.6.9 9.3.5 14 .6q4 .1 8.1-.1c2.2-.2 4.4-1 6.6-.7q3.5 1 7.3.8h18q3 .1 5.7-.5c2-.5 3.8-1.8 5.7-2.4 3.2-1 6.7-1.1 9.9-2 4.6-2 6-1.5 9.8 1.8q1.4 1.4 3.2 2c1.9.5 4 .5 5.8.8 5.5 1 6.4-.4 10.6-3.5 1.8-1.4 4-.6 5.7.6 2.2 1.5 4.6 3.2 7.4 3.2q3.9-.1 7.3-2c2.1-1.2 4-3 5.8-4.5" class="b"/><path d="M13.8 132.2c1.9-.4 3.9.1 5.7.3q3.8.4 7.4.2c3 0 5.4-1.7 8.2-2.4a8 8 0 0 1 4 1q2 .6 4.2.7l9 .7h17.1q3-.1 5.7-.4 4.5.4 9 .4c2.8 0 5.5-.7 8.2-.8l5.7.3q3.3-.1 6.6.4c3.4.6 5.2-1.2 8.2-2.2 2.6-1 5.5-1.3 8.1-2.1 1.8-.5 3.3-1.7 5-2.4 3.8-1.3 6 3.5 9 5 1.1.8 2.7.9 4 1.2 2.1.4 4.5 1 6.6 0 2.7-1.3 4-4.5 6.5-6.2 4.9-2.8 8 10 17.2 6 3.7-1.4 6.3-4.7 9-7.6" class="b"/><path d="M13.8 130.3c1.9-.3 3.9 0 5.7.1q3.8.3 7.4.2a20 20 0 0 0 4-.5q2.6-.8 5-1c1.6.1 3.3.8 5 .9q3.5.1 7.3.1c6.2.7 12.5.4 18.8.5 3.2.1 6.5-.5 9.8-.3q3.7.2 7.4 0 2.8-.3 5.7-1c3-.4 6 .4 9 .5q2.5 0 4.9.3c1.8.4 3.9.8 5.7 0 3.4-1.4 7.1-2 10.6-3q2.7-1 5-2.6c4.6-3 7.3 3.5 11.4 4.6 5 1.4 7.6 3.1 11.4-1.9 1.6-1.8 3-4.8 5.7-5 1.7.2 3 1.6 4.1 2.7l3.3 3c6.6 6.6 12.1-.8 17.2-5.2" class="b"/><path d="M13.8 128.4c4.9-.4 9.9.2 14.7 0 3.3 0 6.6-1.4 9.9-.7 3.2.5 6.5.1 9.8.2q6.1.5 12.2.3 5.8.1 11.5-.4c4-.4 8.2.7 12.3-.2a18 18 0 0 1 12.2-.4q3 .3 5.7.3 2.1.2 4.1.7c2.2.5 4.5 0 6.6-.5q3.7-.8 7.3-1.9c2.9-.8 5.1-3.6 8.2-3.2 2.1.3 4 1.9 5.7 3q2 1 4.1 1.5c4.7 2.3 6.6 1.5 9.8-2.4 2-2.1 4-5.7 7.4-4.9 3.7 1.4 6 4.8 9 7.2 2.3 2.1 4.9 1.5 7.3 0q3.3-2 6.6-4" class="b"/><path d="M13.8 126.3c5.2-.3 10.4 0 15.6 0 3.2 0 6.5-1.2 9.8-.7 4.9.1 9.8.6 14.7.5 4-.3 8.2-1.2 12.3-1.4q6.1-.7 12.2.6c3 .4 6.1-.4 9-1.3 3.9-1.2 7.6 1 11.5 1q2.5 0 4.9.2 2.4.4 4.9 1c3.8.3 7.8-.6 11.4-1.7 4.1-1.6 5.8-4.2 10.7-2.1q3.5 1.6 7.3 2.5c1.8.8 3.8 1.9 5.8 1 3.9-2 6.2-6.7 10.6-8.1 6.7-2 8.7 6.7 13.9 8.4 1.6.3 3.3-.5 4.9-1q2.5-.9 4.9-1.5" class="b"/><path d="M13.8 124q8.3.2 16.4 0c2.2 0 4.4-.6 6.5-.9q2-.1 4.1.2c5.1.6 10.4 1.3 15.5.4 1.7-.4 3.3-1.3 5-1.8q2.8-.7 5.7-1.2 3.7-.5 7.3.8c2.4.8 4.8 1.7 7.4 1.6 2.2 0 4.4-.8 6.5-1.2 3-.6 6 .1 9 .5 2.4.4 5-.3 7.4 0s4.8 1.5 7.3 1.6a19 19 0 0 0 8.2-1.2c2-.6 3.7-2.2 5.7-2.5 2.9-.3 5.5 1.2 8.2 1.7q2 .3 4.1 1 2 .8 4.1 1c2 0 3.5-1.4 5-2.6q2.6-2.3 5.6-4c3-1.7 6-3.6 9-.7 2.7 2 4.2 5.7 7.4 7 1.2.5 2.8.4 4 .2l5-.6" class="b"/><path d="M13.8 122q8.3 0 16.4-.3c2.7-.1 5.4-1.3 8.2-1 2.4.2 4.9 1 7.3 1.2h5q2.4.2 4.8-.1c2.7-.4 4.8-2.4 7.4-3 4.5-1.2 7.1-1.6 11.4.4 1.9.8 3.8 1.8 5.8 2 5.5.9 10.8-2 16.3-1.6 5.9.2 7.1-1.8 13 1.1 6 2.4 9.7 1.1 14.8-2.1 2.4-1 5 .1 7.4.9 2.3.9 5 .8 7.3 1.8 4.5 2 6.4-1 9.8-3.3q3.2-1.7 6.6-3c2.6-1.5 4.8-1.7 7.3.2 7.1 6.4 5 7.2 15.6 6.7" class="b"/><path d="M13.8 119.8h6.6q2.5-.3 4.9-.7 2.8 0 5.7-.2 2.4-.3 4.9-.4c3 0 6 1.1 9 1.3 2.7 0 5.5-.4 8.2 0 3.2.4 5.5-1 8.1-2.6q3.2-1.5 6.6-1.6c2.9.2 5.5 1.9 8.2 2.9 3.8 1.6 8.2 1.4 12.2.6 3.3-.7 6.5-2 9.8-2.3 2.2-.1 4.4-.7 6.6-.4 2.6.5 4.8 2 7.4 2.7 2.6.9 5.6 1 8.1-.2 2.4-1 4.6-3 7.4-2.5 3 .6 5.9 2 9 2.5 1.8.3 3.8 1.1 5.7.8 2.2-.3 4-2 5.7-3.2q2.7-1.4 5.7-2c3.7-1 7.3-2 10.7.6 1.8 1.3 3.5 3.2 5.7 4 2.6 1 5.5.6 8.2.7" class="b"/><path d="M13.8 117.6c2.4-.1 5 .3 7.4-.2l4-1.2q2.1-.2 4.2-.2 3.3-.1 6.5.5c3.2.7 6.5 1.4 9.8 1 1.9 0 3.8-.4 5.7-.3s3.9.7 5.8.3c2-.5 3.7-2.2 5.7-3 7.6-3.8 9 3.7 19.6 3.1q3.7.2 7.3-.5 3-1 5.8-2 4-1.2 8.1-.6c4.7 1 9 3.6 14 3 2.2-.2 4.4-1.3 6.5-2.1 2.7-1 5.6 0 8.2.9q2.8.9 5.7 1.2 4 .6 7.4-1.4c1.2-.7 2.6-1.7 4-2.1q2.9-.6 5.8-.7 3.7-.4 7.3-.1 2.4.5 4.1 2c3.6 2.8 7.2 2.4 11.5 2.4" class="b"/><path d="M13.8 115.5c2.4-.2 5 .2 7.4-.4l4-1.4q2.1-.4 4.2-.5 4.2.2 8.1 1.7 2.9.8 5.8.5 4-.2 8.1-.4c2.2 0 4.4.7 6.6.3 2.6-.7 4.7-2.9 7.3-3.7 2.7-1 5.2.6 7.4 2q2.8 1.3 5.7 1.7c1.9.3 3.9.1 5.7.2q3 .1 5.8-.4c3-.9 5.8-2.8 9-3 2.4-.1 5 .7 7.3 1.4q4 1.2 8.2 1.8c7.8 1 9.6-3.9 18.8-.4 5 1.4 10.3.1 14.7-2.4 3.1-1.2 6.6-.3 9.8-.5 2.8.2 5.7-.8 8.2.8 4.7 3.1 6.8 2.7 12.3 2.7" class="b"/><path d="M13.8 113.3c2.4 0 5 .2 7.4-.4 4.2-1 8.7-3 13-1.6 2.4.9 4.8 2.2 7.4 2q5.8-.2 11.5-.5c1.9 0 3.8.7 5.7.5 2.3-.5 4.4-2 6.5-3 2.6-1.5 5-.3 7.4 1q2.8 1.3 5.7 1.9 3 .2 5.7.1 2.5 0 5-.2c2.2-.5 4.3-1.9 6.5-2.7 2.3-1 5-.8 7.3.1q4.5 1.6 9 2.2 2.4.6 5 .6c3.7-.2 7.5-1.7 11.4-1.3 2.5.1 4.8 1.4 7.3 1.3 2.3 0 4.5-.7 6.6-1.3q2.5-.6 4.9-1.6c2-1 4.4-.7 6.5-.4q3.7.7 7.4.5c4.7-1 6.4 2.4 10.6 2.8h6.6" class="b"/><path d="M13.8 111.2q3.7.1 7.4-.4c3.6-.6 7-2 10.6-2.4 3-.5 5.4 1.9 8.2 2.6 4 .5 8.2-.1 12.3-.5 2.2-.4 4.4.2 6.5.6 2.6.4 5-.9 7.4-2s5-.4 7.3.6q4 1.5 8.2 1.5c9 0 7-.1 14.7-3.6 2.1-1 4.5-.6 6.6.3q4.3 1.8 9 2.5 2.3.6 4.9.8c1.6-.1 3.3-.7 4.9-1a28 28 0 0 1 5.7-.3c1.9.1 3.8.8 5.7 1.1 3.7.6 7.2-1.6 10.6-2.6 3.2-1 4.7-2.1 8.2-.9q3.6 1.3 7.4 1.6c1.6.2 3.3-.3 4.9 0 1.4.2 2.8 1 4 1.5 3.2 1.1 6.7.2 9.9.3" class="b"/><path d="M13.8 109q6.6.3 13.1-1c2.5-.5 4.8-2 7.4-2 1.8.2 3.3 1.5 4.9 2.3q2 .8 4 .7 3.8-.3 7.4-1 2-.6 4.1-.7c3 .2 5.9 2.2 9 1.6q2.4-.5 5-1.2 2.3-.4 4.8 0c2 .3 3.8 1 5.7 1.2q4.1.2 8.2 0c5.4.2 9.2-6 14.7-4.3 2.5.7 5 1.9 7.4 2.6 1.9.5 3.8 1.4 5.7 1.8 2.3.3 4.4-1 6.6-1.5 3.2-.3 6.6.6 9.8 1.2 5.3 1.4 10-2.4 14.7-4.3 4-1.7 7.7 1.7 11.4 2.5q2.9.8 5.8.8 2.5.5 4.9 1.1c3.2.5 6.5-.4 9.8-.3" class="b"/><path d="M13.8 106.8q7 .1 14-.4c2.1-.3 4.2-1.4 6.5-1.5 1.7-.1 3.3 1 4.9 1.6 2 .7 4.4.2 6.5-.4l5.7-1.5c5.2-1.8 7.5 1.9 12.3 2.2 3.6.3 7-1 10.6-.8 2 0 3.9.6 5.8.7q3.7.1 7.3.1c6 .2 10-6.2 16.4-4 3.5 1.3 6.8 3.6 10.6 4 1.7.1 3.3-.9 4.9-1.5 2-1 4.4-.4 6.5.3q3.7 1 7.4 1.2 4.3.1 8.2-1.7c1.9-.9 3.7-2.3 5.7-2.9 3.9-1 7.2 2.2 10.6 3.4q4.9 1.4 9.8 1.2c3.6-.3 7.1-1 10.7-.8" class="b"/><path d="M13.8 104.6q7.5.1 14.7 0c2.2-.1 4.4-.6 6.6-.4 1.3 0 2.7.5 4 .5 3.5-.3 6.5-2.2 9.9-2.8 2.7-.7 5.5-1.4 8.2.1 4.1 2.4 7.5 3 12.2 2.6 2.5-.1 5-.7 7.4-.5 4.6.5 9.3 1 13.9.1 2.5-.6 4.9-2 7.4-2.7 2-.6 4.5-.9 6.5.1 3.2 1.7 7 4.3 10.6 2.4 1.8-1 3.6-2.5 5.7-2.2 2.6.3 4.8 2.1 7.4 2.5q5.3.8 10.6 0c2.3-.2 4.5-1.3 6.6-2.4a9 9 0 0 1 7.3.4c5.5 3.2 8.8 2.7 14.8 1.2 3.4-.8 7-.4 10.6-.2" class="b"/><path d="M13.8 102.5h15.6c3.5-.1 7.3.6 10.6-1.1q3-1.7 6.5-2.3c2.2-.1 4.4-.6 6.6-.5 2 .1 4 1.2 5.7 2.2 2.7 1.5 6 1.7 9 1.7 3 .2 6-.4 9-.6 2.4 0 4.9.5 7.3.5 5 .3 9.9-1.4 14.8-2.5 4.3-1 6 1.4 9.8 2.5 5.8 1.3 7.4-5.4 12.2-3.5 5.7 2.8 5.4 3.8 12.3 3.6q4.1 0 8.2-.2c2.2-.3 4.3-1.5 6.5-1.6 3.7-.4 7 2.6 10.6 1.6 2-.4 4-1.6 5.8-2.4a9 9 0 0 1 7.3-.5l6.6 1.3" class="b"/><path d="m13.8 100.4 10.7-.1c3.2-.4 6.5-.3 9.8-.6 3-.2 5.3-2.5 8.1-3.1 2.2-.5 4.4 0 6.6.3q2.5-.1 4.9.2c2.8.5 5.3 2.3 8.2 2.8q4.8.8 9.8.3c2.4-.2 4.9-.8 7.3-.7 2.5.1 5 .5 7.4.3 4.4-.3 8.7-1.3 13-1.7 3.9-.4 6.9 3.4 10.7 2 3.6-.7 6-5.7 9.8-4.2 2.3 1 4.3 2.7 6.6 3.6 2 .8 4.3.7 6.5.8h6.5c3 .3 6-.7 9-.7 2.5 0 5 1.1 7.4.6 3.5-.8 5.8-4 9-5.5 2.6-1.3 5.1.6 7.3 1.8q2.8 1.3 5.8 2" class="b"/><path d="M13.8 98q4.5.4 9 0 3.3-.6 6.6-1.4l6.5-1q2-.7 4-1.5c2.5-.5 5 .3 7.4.8q2.9.6 5.8.8c3.8.6 7.5 2.3 11.4 2.4 4.4.4 8.8-.5 13-1q4.2-.3 8.3 0L93 97c2.5-.1 5-.5 7.4-.3 2 .2 3.8 1.1 5.7 1.4 3 .4 5.8-1.4 8.2-2.8 2.5-1.7 4.7-1.8 7.4-.5 2 .9 4.2 2 6.5 2.4 2.1.4 4.4.3 6.5.5l8.2.5 5.7-.2c2.2-.1 4.4.5 6.6 0 6-1.3 8.3-11.2 13.9-6.8 2.7 2.3 5.4 4.9 9 5.8" class="b"/><path d="M13.8 95.7c4.4 1 9 0 13.1-1.6 2.4-.9 4.8-2 7.4-2q2.8-.2 5.7-.2 3.3.6 6.5 1.5 5.8.7 11.5 1.9 6.5 1.4 13 0 2.9-.4 5.8-.4 4.8-.7 9.8 0 3.3.5 6.5.6 3.8-.2 7.4-.1c7.6 1.2 6.8.7 13.9-1.8 3.1-1.3 6.6-.6 9.8-.2l9 1q3.3.4 6.5.9 2.4.6 5 .7h7.3c9.7 1.6 10.5-13 16.3-8.2 3.1 2.8 5.5 7.2 9.8 8" class="b"/><path d="M13.8 93.5c4.4 1.1 9-.4 13.1-1.8 2.4-1 4.7-2.8 7.4-2.5 3.3.5 6.5 2 9.8 2.6 2.1.4 4.4.3 6.5.6q4.1.8 8.2 1.2 3.7.5 7.4.2c1.9-.3 3.8-1 5.7-1.2 1.6-.2 3.3.2 4.9.2q5.3-.3 10.6.8c3.5.5 7.1.3 10.6.2 2.7-.1 5.5.2 8.2 0 3-.3 6-1.5 9-1.8l6.5-.8q3-.6 5.8-1 3.8.1 7.3 1.3 2 .5 4.1.8 2.9.9 5.7 1.5 2.9.2 5.8 0c2.1-.1 4.5.5 6.5-.4 6.8-3 6.4-14.5 13.9-4.2 2 2.2 4 5.3 7.4 4.6" class="b"/><path d="M13.8 91.4c2.1.6 4.4.3 6.6 0a52 52 0 0 0 6.5-1.3c2.4-.8 4.7-2.7 7.4-2.3 3 .6 5.8 2.4 9 2.8 2 .3 4.3 0 6.5 0q3.7.4 7.4 1 4 .3 8.1 0c2.2-.3 4.4-1.3 6.6-1.3q2 0 4 .5l5 .4 5.7.5 4.9-.2c4.9 0 9.8.4 14.7.1q3-.1 5.7-.7 3-.2 5.8-.6 2.4-.5 4.9-1.4c1.5-.6 3.2-1.5 4.9-1.7 2.8-.4 5.5 1.3 8.2 1.9q2 .2 4 .8c2.4.8 4.9 1.8 7.4 1.8q2.4-.1 5-.1 2 .2 4 0c5.6-.8 7-8.9 10.6-7 2.5 1.7 4.1 4.6 6.6 6.4 1.4 1.2 3.5.7 4.9-.4" class="b"/><path d="M13.8 89.3q3 .5 5.7.2 3.3-.1 6.6-.5c2.5-.2 4.8-1.8 7.3-2 2.3 0 4.4 1 6.6 1.5q3.2.8 6.5.6c5.2-.5 10.4.6 15.6.5 4 .2 8.1-1.6 12.2-.7q5.3.7 10.7.7c2.1-.1 4.3-.9 6.5-.9 1.9 0 3.8.6 5.7.7q5.3.4 10.6.1c4.4-.3 9-.3 13.1-1.6 6-2.5 6.5-3.5 13.1-1.2 1.8.6 4 .4 5.7 1 2.7 1 5.4 2.1 8.2 1.9q2.4-.3 5-.2c4.2.8 7-.7 9.7-3.9q2.4-2.5 5-.3c1.9 1.6 3.8 4 6.5 4.4 1.6 0 3-1.4 4-2.4" class="b"/><path d="M13.8 87.1q3 .5 5.7.3 3.8 0 7.4-.2c1.9-.2 3.8-.9 5.7-1q2.4 0 5 .5c4 .8 8.1.4 12.2.1l10.6.4 5.8.2q3.2-.1 6.5-.1c4.9.1 10 .6 14.7-1 3.6-1 7 1.1 10.6 1.1l8.2-.1c5.2.1 10.5.4 15.6-1 7.8-3.2 7.9-1.2 15.5-.5 2 .2 3.8 1 5.7 1.4q2.4.5 5 0c6.9-1.2 7.5 2.4 14.6-2.6 1.5-1 3.5-.6 5 .4 4 2.6 7 3.9 10.6-.4" class="b"/><path d="M13.8 84.8c3 .7 6 .4 9 .5q2.4 0 5-.2 2.3-.3 4.8-.5 3 .2 5.8.5 4.5.2 9-.3c3.5-.4 7 .1 10.6-.3 3.8-.7 7.6.4 11.4.5q3.7.1 7.4-.1c3.3 0 6.7-.2 9.8-1.4 2.5-1 5 .3 7.4 1.1q2.3.8 4.9.6c3 0 6-.7 9-.6 5 .5 10.4 1.3 15.5 0a21 21 0 0 1 8.2-.8q3.3.2 6.5.5 3.3 1 6.5 1 2.4-.4 5-.7 2.5.1 4.9.5c2.8.5 5.5-.6 8.1-1.4 2-.6 4 .2 5.8.8 3.6 1.1 7 1.3 9.8-1.8" class="b"/><path d="M13.8 82.4q2.9.6 5.7.5l6.6.2c2.7 0 5.4-.7 8.2-.3q7.3.7 14.7-.2 2.8 0 5.7-.2c2.8 0 5.4-1.7 8.2-1.4q6.5.5 13 .2 3 .3 5.8.3 2 0 4-.7 1.7-.7 3.3-.4c1.7.4 3.3 1.4 5 2 3 1.2 6.6.7 9.8 0q2.3-.5 4.9-.6 2 .2 4 .7 4.1.7 8.2.6 3.3-.2 6.6-.6 4.1-.1 8.2-.1c1.9 0 3.8.5 5.7.7q2.8 0 5.7-.3c3-.4 6 .1 9 .3 2.7.2 5.5-.7 8.2-.6 4.6.4 9.9 1.8 13.9-1.3" class="b"/><path d="M13.8 80q3.2.7 6.6.5 3.3.1 6.5.4c1.9.2 3.9-.2 5.7-.2q3 .2 5.7.2H45c1.9 0 3.8-.4 5.7-.3q3 .1 5.7-.5c1.7-.4 3.3-1.3 5-1.8 1.5-.3 3.3-.2 4.8-.6q4.5-.6 9-.7c1.7 0 3.3.8 5 1q2.8.8 5.7 0c4.8-1.7 7 3.5 14.7 3 3 0 6-1.5 9-1.5 1.9.1 3.8.8 5.7 1q5.3.7 10.6.4t10.6-.3c2.2 0 4.4.4 6.6.4q4.1-.2 8.2-.2l7.3.2c3.8-.3 7.7 0 11.5 0 2.7-.1 5.7-.2 8.2-1.5" class="b"/><path d="M13.8 77.7q3.2.6 6.6.4 3.3 0 6.5.6c2.2.3 4.4-.2 6.5-.2q3.3.3 6.6.3 4.5 0 9-.2 2.8 0 5.7-.3c2.6-.2 4.9-1.7 7.3-2.4 2.3-.5 4.4-1.5 6.6-2q3.2-.8 6.5-.6c2 .4 3.8 1.6 5.8 2.2q2 .6 4 .5c1 0 2.3-.4 3.3-.4 2.8.2 5.5 1.6 8.2 2.3 3.2.8 6.6 1.3 9.8.2 1.6-.4 3.3-1 5-.7q6 1.1 12.2 1.4 9.7-.2 19.6-.1h17.2c6 0 12 .3 18-1" class="b"/><path d="M13.8 75q7 1.3 14 1.6c2.6 0 5.4-.8 8.1-.2q3 .3 5.7.2 4.1 0 8.2-.2c5.6 0 7.3-.3 12.3-2.9 2.4-1 4.7-2.8 7.3-3.4q2-.2 4.1.2 2.3.2 4.1 1.5a14 14 0 0 0 9 2.7q5-.2 9.8.7 3.3.6 6.5 1.4c2.3.3 4.5-.7 6.6-1.3 2.1-.4 4.4.2 6.5.5q6.5 1 13.1.8 8.3 0 16.4-.5 3.7.2 7.3.5h12.3c4.4 0 8.7-.6 13-.9" class="b"/><path d="M13.8 71.7c2.5.6 4.9 2 7.4 2.4q3.3.6 6.5.2 3-.4 5.7-.6c2 0 3.9.6 5.8.7h9c4.7 0 9 .4 13-2.6 6.1-3.8 6.2-7 14-3.4 1.9 1 3.7 2.6 5.6 3.5q3.6 1.6 7.4 1.3h6.5q2.5 0 5 .2c2.3.6 4.9 1.5 7.3.8 5-1.7 10.4-.4 15.6.1 3 .3 6 .1 9 .2q4.9.1 9.8-.5 2.4-.6 4.9-.8c3 .3 6 1.1 9 1.2h13q5-.5 9.9-.8" class="b"/><path d="M13.8 68.4c1.9.3 3.4 1.8 5 2.8 4.2 2.7 9.2-.4 13.8-.3 2.3-.1 4.4 1 6.6 1.3 2.7.3 5.4 0 8.1 0 3.3 0 6.6.3 9.9 0q2.7-.8 4.9-2.6c4.7-3.8 5.8-8 12.2-3.6 2.8 1.5 5.1 4 8.2 5 4.2 1.2 8.8.8 13.1.7l4-.2q2.6.3 5 .7c4 .4 8.2-.9 12.3-.7 3.2 0 6.5.7 9.8.8 4.9 0 9.9.3 14.7-.6 1.6-.3 3.3-.9 5-.9q4.4.8 8.9 1.4c4.6.3 9.3 0 13.9.1 3 0 6-.6 9-1" class="b"/><path d="M13.8 65.9c1.2.1 2.4 1 3.3 1.8 3 2.8 5.2 3 9 1.5 2.8-1 6-2 9-.9 1.6.6 3.2 1.6 4.9 1.8 3.2.2 6.5-.6 9.8-.5 6-.4 8.6 2.6 13.9-2.4 3.8-3.7 5.4-6.8 10.6-2.8 2.9 1.9 5.5 4.7 9 5.3 4 .6 8.2.4 12.3.3 3-.1 6-.6 9-.2q4 .5 8.1.3c2.5-.2 5-.7 7.4-.7s5 .7 7.4.7c4.6 0 9.3.1 13.9-.7q2.3-.6 4.9-.7 4.5.6 9 1.3 5.2.3 10.6.1h5.7q3.3-.3 6.6-1.1" class="b"/><path d="M13.8 64.4c1.9.3 3.4 1.8 5 2.7 3.6 2.4 7-.6 10.6-1.9s6 .6 9 2.2c2.3 1.1 5 .3 7.3-.4q3.2-1 6.5-1c2.9.2 5.4 2.4 8.2 2 2.3-.5 4-2.1 5.8-3.6 1.3-1.1 3-2.3 4.9-1.9 2.3.7 4.4 2.2 6.5 3.4 3.4 2.2 7.6 2.2 11.5 2 3.5 0 7 .3 10.6-.2q2.8-.4 5.7-.4c3.2.2 6.6 1 9.8.6 2.2-.3 4.4-.8 6.6-.6 2.4.2 4.9.9 7.3.7 3.8-.3 7.6-1 11.5-1.3 2.1-.2 4.4-.5 6.5-.1q4.9.7 9.8 1.3 4.1.1 8.2.1l7.4-.1q2.9-.3 5.7-1.3" class="b"/><path d="M13.8 63.2c2 .3 3.8 1.6 5.7 2.2 3.8 1.5 6.6-1.1 9.9-2.6 2.1-1 4.6-.3 6.5 1 7.6 5.4 9.1-2 16.3-1.1 2 .3 4 1.5 5.8 2.4 3.8 2 6.4-.5 9.8-1.9 1.8-.7 3.9-.3 5.7.4q3.2 1 6.5 2c4 .6 8.2-.1 12.3 0q3.3.2 6.5.2c2.2-.1 4.4-1 6.6-1 2.2.1 4.4.8 6.5 1q2.5.2 5-.4c6.7-1.2 10 2.2 17.1-1 3.6-2 7.7-1.3 11.5-.4q3.1.8 6.5 1.1 2.8.6 5.7.7 2.4-.2 5-.2c3.2.1 6.5.4 9.7 0q3-.6 5.7-1.5" class="b"/><path d="M13.8 62c4 .5 8.4 3 12.3.8 2.2-1.2 4.7-3 7.3-2.4 3.1.6 5.7 3.8 9 3.2 2.1-.6 3.8-2.4 5.8-3.2 4-1.7 7.9 1 11.4 2.6 2.4 1.1 5 .5 7.4 0q2.8-.3 5.7 0c2.7.3 5.5.8 8.2.6q2.4-.2 4.9-.7 3.7-.4 7.3 0c2.5.4 5 1.1 7.4.5 5-1.6 5.5-1.5 10.6 0 2.7.7 5.5-.1 8.2-.1s5.5.5 8.2.3q3-.4 5.7-2.2c1.5-1 3-2.6 5-2.8 3-.2 5.4 2 8.1 3q2.4.8 5 1 2.3.7 4.8 1c1.6.2 3.4-.3 5-.6q2-.3 4 0c2.2.1 4.4.4 6.6 0s4.3-1.4 6.5-1.9" class="b"/><path d="M13.8 60.5q4.5.5 9 1c2.3.2 4.5-.9 6.6-1.9 3.8-2 6.3-.8 9.8 1 4.1 2.6 6.2-1.2 9.8-2.6q2-.3 4 0c3.9 0 7 2.5 10.7 3.4 4 .3 8.2 0 12.3.1q2.4 0 4.9-.6l4-1.7c4.6-1.4 8.8 1.6 13.1 2.3 4.7.3 6.3-4 11.5-1.5q2 .9 4 1.4c2 .3 4 0 5.8 0 3 .1 6 .3 9-.4q3.2-1 5.7-3.4c1.2-1 2.5-2.5 4.1-2.9 3.3-.4 5.5 3 8.2 4.3 1.5.8 3.3 1 4.9 1.5l4 1c3.2.5 6-2 9-1.7 2.2 0 4.5.4 6.6.2 2.5-.6 4.8-2 7.4-2.3" class="b"/><path d="M13.8 58.9c3.8-.1 7.7.5 11.5.5q3.3-.5 6.5-1.6 2.4-.7 5 0c1.6.4 3.2 1.3 4.8 1.6 2.9.1 4.9-2.4 7.4-3.3q2-.3 4-.4a14 14 0 0 1 6.6.8c1.4.5 2.7 1.5 4.1 2 3.2 1 6.6.5 9.8.5q4.4.4 8.2-1.7c1.3-.7 2.6-1.7 4-2.1 5.9-1 10.8 6.9 16.4 3.1 2.8-2 4.8-3.3 8.2-1.5 2 1 4.2 2.3 6.6 2.4q6.2.4 12.2-1.2 2.7-1 5-2.8c1.1-1 2.5-2.2 4-2.6 4-.5 6.3 4.2 9.8 5.2q3.7 1 7.4 1.6c2 .1 4-1 5.7-1.8q2-.7 4.1-.7c1.9-.1 3.9.2 5.7-.2 2.5-.6 4.8-2.4 7.4-2.7" class="b"/><path d="M13.8 57.1q3.7-.2 7.4-.2c2.4 0 5 .4 7.3.3 2 0 3.9-.6 5.8-.8q2.4-.3 4.9.5c4.3 1.5 7.2-2.6 11.4-2.6 4.1-.2 8.6-1.4 12.3 1 2.8 1.2 6 1 9 .9 2.1 0 4.4.4 6.5-.2s3.9-1.8 5.7-2.7q2-1 4.1-.3c4.2 1 7.8 5.4 12.3 3.9 1.8-.8 3.3-2.4 5-3.6 1.6-1.3 3.8-1.2 5.6-.3 2.3 1.5 4.6 3 7.4 3.2q3 0 5.7-.6l5-.9a23 23 0 0 0 4.8-2c1.3-.6 2.7-1.4 4.1-1.5 2.5.1 4.5 2 6.6 3.3 2.6 1.8 5.9 2.4 9 2.7 3.4.4 6.4-2 9.8-2q3.7.1 7.3-.5c2.5-.8 4.8-2.2 7.4-2.6" class="b"/><path d="M13.8 55c3.6.4 7.1-.6 10.7-.6 2.1 0 4.3.5 6.5.6 2.4.1 5-.2 7.4 0 3.2.5 6-1.5 9-2.1q2.8-.2 5.7-.2c2.4 0 4.9-.5 7.3-.4 2.2.3 4.3 1.1 6.6 1h5.7c1.6 0 3.3.3 4.9.1 2.8-.2 5.4-1.5 8.2-1.7 4 0 7.5 2.9 11.4 3.3 3 .4 5.3-1.8 7.4-3.6 4.2-3.7 6.2-2.2 10.6-.2q2.8 1 5.7 1l9.8-1.3q3-.6 5.8-1c2.7.1 5 2 7.3 3q4 1.9 8.2 2.1c2.5.2 5-.6 7.4-1 1.8-.2 3.8.2 5.7.2 4.5.3 8.7-1.7 13-2.5" class="b"/><path d="M13.8 52c4.4 1.9 7.9.1 12.3-.3 3-.2 6 1.1 9 1q3 .2 5.7-.6c2-.8 4.3-1.9 6.5-1.6q3.8.5 7.4.8c2.2 0 4.4-.5 6.5-.6q4.5.1 9-.3c3.8-.2 7.7.5 11.5.4q4.1-.1 8.2.8c3.4 1 7.2 2.2 10.6.3 2.2-1.1 4.2-3 6.5-4 3.7-1.7 7.7 0 11.5 0 4.6.4 9.3-.3 13.9 0q2.5.2 4.9 1.2 2.4 1.1 4.9 2.2c2.3.9 5 1.1 7.4 1.5 3.5.6 7-1.3 10.6-.6 6 1.5 12 0 18-.5" class="b"/><path d="M13.8 48.7c5.2 3.8 8.5 1.1 14 .2 4 0 8.2 1.4 12.2-.2 2-.8 4.3-1.7 6.5-.9q4.7 2 9.8 2c2.8-.1 5.5-.8 8.2-1q4.5-1 9-1.1c3.3 0 6.6 1 9.8 1.5q3 .5 5.7.8 3 .6 5.8.7c4.4.3 8-2.8 12.2-3.9q6-1.4 12.3-1.6c2.2 0 4.4.6 6.5.6q4.7 0 9 1.7c3 1.2 5.8 2.7 9 2.9q3.7.3 7.4.3c1.9-.2 3.8-.8 5.7-.9s3.8.8 5.7 1c5.2-.2 10.4 0 15.6-.2" class="b"/><path d="M13.8 45.6c3.7 3.4 6.1 3.7 10.7 1.8q3-1.7 6.5-1.7h7.4c2-.3 4.4-1.2 6.5-.5 2.4 1 4.7 2.5 7.4 2.7 5.7 1 11.6-.6 17.1-2 2.4-.4 5-.9 7.4-.6 3.8.6 7.5 2 11.4 2.4 3.5.5 7.2 1.4 10.7.4 3.7-1 7.5-2.2 11.4-2.7 2.7-.5 5.4-1.3 8.2-1.3 1.9-.1 3.9.4 5.7.7q3 .4 5.7 1.1c3.5 1 7 2.5 10.7 2.6h9.8c1.8-.1 3.8-.6 5.7-.7 2.7 0 5.4 1.1 8.2.7q3.3-.4 6.5 0h7.4" class="b"/><path d="M13.8 42.5c3.5 3.4 6 5.5 10.7 2.4 1.3-.9 2.6-2 4-2.5 2.4-.8 5-.4 7.4 0s5 .2 7.4.9c2.4.8 4.7 2.4 7.3 2.8q7 .7 14-.2c2.7-.5 5.4-1.6 8.1-2.5q3.6-1.6 7.4-.2 4.4 1.7 9 2.2 5.6 1.5 11.4.7 5.3-.7 10.6-1.7c4.7-1.2 7.5-2.3 12.3-.6 3.5.9 7 2 10.6 2.5 2.7.3 5.5-.3 8.2-.2 3 0 6 .4 9 .2q5-.4 9.8.1h17.2" class="b"/><path d="M13.8 40c2.9 2.5 6 6.2 9.8 3 2.3-1.8 4.2-4.8 7.4-4.7 3 .2 6 1.7 9 2.3 3.6 1 6.8 3.6 10.6 3.6h9c2.7 0 5.5.3 8.2-.4s5-2.2 7.3-3.5c1.9-.8 4-.4 5.8.3q3.5 1.3 7.3 1.7 3 .8 5.7 1.5 4.1.7 8.2.4 5.9.1 11.5-1.3c3.5-1.3 6.2-1.1 9.8 0 4.2 1.1 8.8 2 13 .6q3.4-1 6.6-.5 4 1 8.2 1.1 8.1.3 16.3.1 5.3-.2 10.7 0" class="b"/><path d="M13.8 38c2.8 2 6.4 6 9.8 2.9 2.5-2.1 4.4-6.2 8.2-5.8 2.6.4 4.9 2 7.4 2.6 2.2 1 4.2 2.6 6.5 3.5 4.7 1.7 9.9.7 14.7.4q3 0 5.8.5 3 .2 5.7-1.4c4.8-3.5 5.3-4.5 11.4-2.9 1.9.5 4 .3 5.7 1 2.7.9 5.3 2.4 8.2 2.8q3.2.3 6.6.2 3.7.3 7.3.2c3.3-.1 6.6-1.4 9.8-.7 15.8 3.1 15-4.4 23-1.2q3.5 1.5 7.3 1.9 4.1.1 8.2 0h9.8c3-.1 6-.5 9-.3" class="b"/><path d="M13.8 36.2c4.7 2.9 7.9 6.2 12.3.7 2.3-2.7 5.2-5.2 9-3.9l4 1.4q1.9.9 3.3 2.2 3.6 3.1 8.2 3.3 3 .1 5.7-.2c2-.2 3.9-1 5.8-1 1.9.2 3.8 1 5.7 1.2a7 7 0 0 0 4.9-1.3c6-5.3 6.8-4.8 14.7-4.8 2.7.4 5 2.4 7.4 3.5q2 1 4 1c2 .1 4-.2 5.8 0 2.7.3 5.4 1.3 8.2 1.5 2.4.3 4.9 0 7.3 0q3.7.2 7.4 0c3-.2 6.3-.7 9-2.3 4-2.2 6-.7 9.8 1 1.5.4 3.2 1.2 4.9 1.4 2.7.2 5.5-.2 8.2 0H170q4.1-.6 8.2-.6" class="b"/><path d="M13.8 34c4 2.3 8.2 6 12.3 2 3.2-2.9 6.5-7.6 11.4-6.2 3.5.6 5.4 4.1 8.2 5.9a14 14 0 0 0 7.4 2q2.5.2 4.9-.3 2-.6 4-.8 2.2.2 4.2.7c5.2 1.4 7-.2 10.6-3.5 3.2-2.6 7.2-5.2 11.5-4.6 3.8 1.2 6.4 5.3 10.6 5.6 2.4 0 5-.7 7.3 0q3.3 1.1 6.6 2.2 2.8.7 5.7.6c2.2 0 4.4-.6 6.5-.7h6.6c5.4-.3 7-4 13-1.2q3.2 1.5 6.6 2 4.9.1 9.8.1l5-.2 4 .2c2.7 0 5.5-.5 8.2-.7" class="b"/><path d="M13.8 31c2.8 1.9 5.5 4.8 9 4.6C29.7 35.1 33 21.2 40 27c3.4 3.2 6.4 7.5 11.4 8.1q4.5 1 9 .3c2.2-.3 4.4 0 6.6 0 2.1.3 4.5.6 6.5-.5 4.5-2.9 7.8-8 13-9.7 3.8-.8 6.3 3 9 5q1.9 1.4 4.2 1.4c2.4-.1 5-.4 7.3.5s4.3 2 6.6 2.4q2.8.4 5.7 0c1.8-.4 3.8-1.2 5.7-1 3 .5 6 1.6 9 1.2 1.9-.2 3.8-.8 5.7-.8 2.8 0 5.5.7 8.2 1.2q3.7.7 7.4.6h6.5q2.4-.4 4.9-.3c3.8.2 7.7.5 11.5 0" class="b"/><path d="M13.8 28c2.2 1.7 4 4.2 6.6 5.2 2.9 1 6-.7 8.1-2.8 2.5-2.2 4.1-6 7.4-7.2 2.4-.5 4.2 1.6 5.7 3q2 2.1 4.1 3.6A20 20 0 0 0 54 33c3.5.7 7 .4 10.6.3 3-.2 6.2.8 9-.6 3-1.8 5.5-4.4 8.2-6.6 2-1.7 4.5-3.8 7.3-3.7 3.7.4 5.8 4.2 9 5.6 2.1.6 4.5.3 6.6.9 4 1 7.1 4 11.4 3.2 2.8-.3 5.4-1.7 8.2-1.4 2.2.3 4.4 1.2 6.6 1.6 2 .4 4.3.2 6.5.2q8.5.6 17.2.9l6.5-.1q3.3-.4 6.5-.7c3.6 0 7.1.8 10.7.9" class="b"/><path d="M13.8 26c2 1.4 3.5 3.7 5.7 4.8 3 1.2 6.6 0 9-2 2.5-1.8 4.8-6.3 8.2-6 2.2.3 4 2.1 5.7 3.2a30 30 0 0 0 6.6 3.1c3.8 1.8 8 2.2 12.2 2.2q3-.1 5.8-.1c1.8 0 3.9.3 5.7-.4s3.3-2.3 4.9-3.3q3.2-2 6.5-4 2.7-1.5 5.8-2.3c1.7-.4 3.5.5 4.9 1.5q1.5 1.2 3.2 2.1 2.5.6 5 1.2c2.8.9 5.4 2.6 8.1 3.7 4.6 1.6 9.3-1.3 14-.4q5.6.8 11.4 1.1 7.3 1.3 14.7.7c3.8-.3 7.7.1 11.4-.6 2.2-.3 4.4-1 6.6-1.2q4.6 0 9 1.5" class="b"/><path d="M13.8 25.1c2.2 1.3 4 3.4 6.6 3.9q3.7.5 7.3-1 2.6-1.4 5-3.4c3-2.6 5.7-1 9 .3q3.1 1 6.5 1.7l3.2 1.3q2.4.7 5 1c3 .5 6 0 9 0 2-.2 4.3.5 6.5 0 2.6-.7 4.6-2.8 7.3-3.6q3.8-1 7.4-2.4c1.6-.7 3.2-1.8 4.9-2.3 2-.5 4 .6 5.7 1.4s4 .8 5.7 1.6c3.4 1.3 6.3 3.8 9.8 4.5 2.7.5 5.5.1 8.2 0l12.3-.3c2.5 0 4.9 1 7.4 1.2q4.5.3 9 0l5.7-.6q5.4-.3 10.6-2 2.4-.9 5-1 3.9 0 7.3 2.1" class="b"/><path d="M13.8 25q2.4.8 5 1.5 4 .8 8.1.3c2-.4 4-1.7 5.7-2.8 3.8-2.4 8.2 0 12.3.2q2 .1 4 .6 2.5 1 5 1.7 2.4.6 5 .4c1.8-.3 3.7-1 5.6-1 3.4-.4 6.6 2.2 9.8.5 4.4-2.3 9.6-1.4 14-3.5 3.7-2.2 5.4-3 9.8-1.8q3 0 5.7 1.2 3.3 1.7 6.5 3.4c3.9 1.6 8.2 1.1 12.3 1.1q3 0 5.7-.6c1.9-.4 3.8-1 5.7-.9s3.9 1 5.7 1.3q3.3.5 6.6.4 6.7 0 13-1.6 2.6-.7 5-1.8 2.3-1 4.9-2c3.2-.5 6.5.8 9 2.8" class="b"/><path d="m13.8 24 8.2.6c2.2.2 4.5.5 6.5-.2 3-1.2 5.6-3.2 9-2.7q3 .3 5.8.7 2.4.1 4.9.5c2.1.5 4.2 1.6 6.5 1.9 3.6.7 6.4-2.3 9.8-2.8 3.3-.5 5.7 2.9 9 2.8 1.6 0 3.3-.5 5-.6q4-.2 8-.8c2.6-.5 4.9-2 7.4-2.4q2-.4 4.1 0 2.5 0 5 .3c2.8.7 5.3 2.6 8.1 3.2q3.2.6 6.6.2l7.3.1q2.6 0 5-1.1c3.6-1.8 5.2-1.2 9 .1q3.5 1 7.3 1 5.8.2 11.4-1a22 22 0 0 0 6.6-3.2c1.5-1 3.1-2.5 4.9-3.1 3.5-.9 6.4 2.4 9 4.3" class="b"/><path d="M13.8 22.2q3.7-.2 7.4 0c2.7.5 5.6.9 8.2-.5 2.7-1.4 5-2.5 8.1-2q3 .1 5.8.8 3.3.5 6.5 1.4c3 1 6.4 1.3 9-.6 1.5-1.2 3-2.6 4.9-3.2 4.6-2 7.1 4.4 11.5 4.5q3.7.2 7.3-.1 3 0 5.7-.6 2.4-.6 5-1c2.6-.3 5.4 0 8.1-.2 3.7-.2 7 2.1 10.6 2 2.7-.2 5.5-1 8.2-.6 4.8.5 6.4 1.5 10.7-1.6 1.1-.7 2.6-1.4 4-1 2.2.4 4.4 1.5 6.6 2q5.6 1.3 11.4 1 3.8 0 7.4-1.6 2.7-1.6 5-4c1.6-1.6 3.8-4.7 6.4-3.2 2.5 1.6 4.3 4.3 6.6 6.2" class="b"/><path d="M13.8 20c2.2-.2 4.4-.6 6.6-.2 2 .4 4.3 1 6.5.5 2-.5 3.8-1.8 5.7-2.5 2.3-.7 5-.1 7.4 0q5.7 1.7 11.4 2.7c7 .9 8.3-4.5 14-6.4 4.3-.8 6.5 5 10.6 5.8q4.8.9 9.8.6 3.7-.1 7.3-.4H99q2.4-.4 4.9-.3c1.8 0 3.8.6 5.7.7 1.9.2 3.8-.5 5.7-.8a13 13 0 0 1 4 .1c8.2 1.6 6.8.4 13.2-3.1 2.4-.8 5 .7 7.3 1.4a31 31 0 0 0 10.7 2.4c3.3 0 6.7-.2 9.8-1.6 2-1 3.6-2.9 4.9-4.6 1.6-1.9 3.7-6 6.5-4 2.4 2.4 4 5.7 6.6 7.8" class="b"/><path d="M13.8 17.7c1.9-.2 3.9-.6 5.7-.3 2.7.5 5.5 1.5 8.2.6q2.4-1 5-1.8c1.8-.5 3.8 0 5.6.1 2 .1 3.9.8 5.8 1.1q3.6.9 7.3 1 4 0 7.4-2.3c2.5-1.9 5-4.5 8.2-5 2.3 0 4 2 5.7 3.3 2 2 4.7 2.8 7.3 3.2q4.1.6 8.2.7 6.2.1 12.3-.1 2.4-.2 5-.2l4.8.3q2.4-.2 5-.5 2.3 0 4.8.4c6 .8 6.9-1.2 11.5-3.8 4.4-2 11.7 4 17.2 4q2.8 0 5.7-.2 3-.4 5.7-1.5 3-1.7 5-4.4c1.5-1.8 3.7-5.7 6.4-3.8 2.5 2.3 3.9 5.7 6.6 7.8" class="b"/></svg>