<svg xmlns="http://www.w3.org/2000/svg" id="a" width="1920" height="2400" viewBox="0 0 192 240"><defs><style>.b{fill:none;stroke:#fff;stroke-miterlimit:10;stroke-width:.3px}</style></defs><path d="M0 0h192v240H0z" style="stroke-width:0"/><path d="m8.5 226.6 3.5-.5 6.1 1.2c4.6.9 9.3 1.6 14 1q4.4-.5 8.6-2c3.2 0 6.4.6 9.6.7q7 0 14 .7c5.1.6 10.5 1.6 15.6-.1 5.3-1.7 9.4-5.7 14-8.8q7-.7 13.9-2.2c3.4-.7 6.9-2 10.4-2 14-.4 16.7 12.2 24.4 14 1.6 0 3.2-1.1 4.3-2.2l.9-.9.9-.3c2.3 2.8 4.7 5 7.8 1.6 4-4 6.4-11.2 12.2-12.9 4.9-.3 9.9 0 14.8-.1" class="b"/><path d="m8.5 225 12.2-.4c2 0 4 .6 6.1.5 2.6-.2 5.2-1 7.8-.8q10.5-.3 21-1 5.2-.2 10.4.7c3.4.5 7 1.4 10.4 1 3.6-.5 6.8-2.4 9.6-4.6l3.4-3c.4-.4 1.2-1 1.8-1q7.5-.3 14.8-2.5c4-1 8-2.8 12.2-3 7.5-.6 12.4 2 17.4 7.5 2.1 2.2 4.1 5 7 6.3q1.7.7 3.4-.3c.8-.5 1.6-1.7 2.6-1.7 7.2 9 11-11.3 18.3-12.4h16.5" class="b"/><path d="M8.5 220.9q7.9-.2 15.7.7c4.3-.3 8.7.1 13 0q8-.2 15.7-1.6 6.1-1.3 12.2-.3c3.8.6 7.5 2 11.3 1.9 5-.1 8.6-3.8 12.2-6.8q8.5.3 16.5-2.8c4.6-1.6 9-4.4 14-4.6 11.3-.9 14.8 3.8 21.7 11.5 2.5 2.5 5 4 7.9 1 7 7.5 11-13.5 18.2-13h16.6" class="b"/><path d="m8.5 214.7 2.6-.1q2.3.7 4.4 1.6c4.5 2 9.3 2.8 14 .7 1.2-.8 2.9 0 4.3.2l6 1c4.8.4 9.5-.6 14-1.9 4.2-1.3 8.8-1.5 13-.5 8.7 2.1 12.6 5 20-2.2 8 1 15.8-1.1 22.7-5.1 4.4-2.6 7.8-4.5 13-4.5 9.4-.3 13.5 4 19.2 10.5 1.4 1.5 3 3.4 5.2 3.7q1.5-.1 2.6-.7c6 4.1 10.6-12.6 16.6-13.9 5.7-.4 11.6 0 17.4-.1" class="b"/><path d="M8.5 210.2c9.7 3.8 14.6 7.2 24.4 1 1.2.1 2.4.8 3.5 1.2q2.1 1 4.3 1.6c6.1 2 11-.8 16.6-2.5 4.2-1.3 8.9-.9 13 .6 4.2 1.3 8.8 3.9 13 1.7q1.4-.6 2.7-1.3l3.5.4c6.7.4 13.5-1.3 19.1-5 3.2-2 6-4.7 9.6-6a22 22 0 0 1 16.5.8c4.6 2.5 7.6 7 11.3 10.4q1.6 1.4 3.5 1.6c.4-.2 1.3-.2 1.8 0 6.5 0 10.2-14.4 17.4-14.8h14.8" class="b"/><path d="M8.5 207.3c7.2 2.6 13.4 6 21 2.2 2-.9 4-2.4 6-3.2 4.8 3 9.8 6.6 15.7 4q3.4-1.6 7-3 5.6-1.8 11.3-.3c3.8 1 7.3 3.3 11.3 4 1.4.4 3 0 4.3-.1q6.6.4 13 0c13.8-1.2 16-12.8 28.8-13.4 5.3-.7 10 2.5 14 5.8 3 2.5 5.8 5.8 9.5 7.5 7 2.9 12.5-11.6 19.1-13.9 2-.7 4.1-.4 6.1-.5h7.9" class="b"/><path d="M8.5 204.7c13.3 4.3 16.4 4.5 28.8-2.5 2.1 1 3.9 3 6 4.2 5.5 3.5 10-.7 14.8-2.9q3.8-1.6 7.9-1.7c.9.1 1.8 1 2.6 1.4a22 22 0 0 0 11.3 4.5h6q3.6-.7 7-.6c12.3 1 14 2 23.5-7q2.4-2 5.3-3.8 1.2-.8 2.6-1c7.2 1.2 14 4.3 20 8.3 3.1 2 6.5 4.5 10.4 4.1.8.2 2 0 2.6-.5q2.3-1.7 4.4-3.5c4.3-3.8 8-9.2 14-10.5q3.8-.4 7.8 0" class="b"/><path d="M8.5 202.3c8.8 1.8 14.9 3.4 23.5-.2l4.4-1.8c1-.4 2.3-1.2 3.5-1.2 10 9.9 11.6 3.2 21.7-.7q1 0 1.8.7l3.4 2.2c5.3 3.5 9 3.7 14.8 1.6 3.6-1.3 5.7 4.7 14.8-1.3 3.3.7 6.3 2.2 9.6 2.6 6 .8 9.7-4.8 14-8 7 1.1 14 1.4 20.8 3.5 4.7 1.3 9.2 3.6 14 4.4q1.6.3 3.4 0 1.4.3 2.6 0c1.3-.5 2.5-1.6 3.5-2.5 3.7-2.5 6.9-5.8 10.5-8.4 2.5-1.5 6-1 8.7-.4" class="b"/><path d="M8.5 199.7a59 59 0 0 0 33.1-3q1 .3 1.7 1.1 1.3 1.1 2.7 2c4.6 3.1 9-1.8 13-3.6 8.7 4.4 10.6 7 20 1.7 3.3-1.8 2.9-1.8 6.1 0 7.4 4 10.7 3.6 18.3.5 5.2 2.8 8.3 3.8 13-.4 7.3 1.1 14.6 0 21.8-.2 5.9-.2 11.7.8 17.4 2.2q4 1 7.9.8c1 .2 2.4-.1 3.4-.6l4.4-2.6q1.2-1 2.6-1.8 4.7-2.2 9.6-1" class="b"/><path d="M8.5 197c5.8 0 11.6.5 17.4.3q8.4-.4 16.6-1.9 1.3-.3 2.6-.1c1 .7 2.3 1.6 3.5 1.9 2.9.9 5.3-1.4 7.8-2.3 9.1 2.6 10.5 4.4 19.1-1.3l3.5-2.2c1.1-.7 2.2-1.5 3.5-.7 5.5 2.2 10.6 5.8 16.5 6.5 3.2.4 6.5 0 9.6-.1 1.1-.2 2.4.2 3.5.3 2.3-.3 4.7 0 7 0q6.5.1 13-.5c4.7-.5 9.3-1.5 14-2q6-.6 12.1.6c3.5.6 7 1.9 10.5 1.9 2.3.1 4.7-.6 7-1.1a26 26 0 0 1 7.8-.4" class="b"/><path d="M8.5 193.9h25.3q7-.1 13.9-.4c1.1.1 2.4.6 3.5.4 2.8-.9 5.8-.1 8.7 0 7.8.7 13.4-6 20-9 2 0 4.1.9 6 1.5 4.2 1.5 8.1 3.6 12.3 5q4.6 1.5 9.5 1.9h2.6q1.3.5 2.7.6a9 9 0 0 0 4.3-1.5c6.7-.7 13.3 2.5 20 1.3s13.2-4 20-3.5c4.9.2 9.4 2.3 14 3.5q2.2.5 4.3 0 4 .3 7.9.2" class="b"/><path d="M8.5 190.4c11 .2 22-.7 33.1-.5h5.2q1.3.4 2.6.5t2.6-.4h1.8c8.4.2 14-4.3 20.9-8.2q2.5-1.4 5.2-2.1 4.5.5 8.7 2c5.7 2 11.3 5 17.4 5.7 1.5.7 2.8 2 4.4 2.5 3.6 1.7 7.2-1 9.5-3.6 1.1-.3 2.4.2 3.5.4l5.2 1.8c9.2 3.9 13.2 1 21.8-2a23 23 0 0 1 20 1.8c2 .9 4 2 6 2.1a16 16 0 0 0 7-1.6" class="b"/><path d="M8.5 186.5c8.8 1.6 17.5-1 26.1-2.4l5.3-.7c.9.1 1.8 1 2.6 1.4a14 14 0 0 0 4.3 2c3.3.7 6.2-1.6 8.7-3.5q1.2-.5 2.6-.6l3.5-1c3.8-1.3 7.5-3.3 11.3-4.7q3.8-1.4 7.8-2 5.4.7 10.5 2.6 5.2 2 10.4 3.7c5 3.7 9.8 8.4 15.7 3.5 1.5-1 2.7-3 4.3-3.8 5 1.1 9 4.5 14 5.7 10 2 17.4-10.6 31.3-5.3 6 2.2 9.6 7.2 16.5 5" class="b"/><path d="M8.5 183.5q1.4 0 2.6-.3c1.4 0 3 .4 4.4.3 4.6-.2 8.9-2.2 13-4 4.3-1.9 3.7-1.9 7.9.1 5.2 2.8 9.2 6.1 14.8 1.8 3-2 5.6-4.8 8.7-6.7 6-1 12-3 18.3-3.2 10-.6 16.5 2.8 24.3 8.6 8.7 6.3 12.4 3.1 19.2-3.5 5 1.3 9 5 14 6.5 9.1 2.6 16.5-10.4 29.5-7 3.2.7 6 2.5 8.7 4.4a13 13 0 0 0 9.6 3" class="b"/><path d="M8.5 178.6q2.4 1.6 5.2 1.4 2.3.2 4.4-.4 1.8-.6 3.5-1.6 1.2-1 2.6-1.3 4.4-.9 8.7.3c6.3 1.9 10.4 5.5 16.5.5 4.2-3.2 7.9-7.9 13-9.4l9.7-.2c11.5 0 18.3 2.7 27.8 8.9 2.7 1.5 5.6 3.2 8.7 3.3 4.9-.2 8.9-3.6 12.2-6.9 1.5 0 3 .8 4.3 1.3 3.3 1.6 6.2 3.8 9.6 5 8.9 3.2 16-9.2 27.9-8.1 9.6.6 12.3 8.9 20.8 8.7" class="b"/><path d="M8.5 174c5.6 4.3 9.6 2.3 15.7 1q4-.6 7.8 0c5 1 9.4 3 14-.2 5.5-3.7 9.6-10.1 16.5-11.6l5.2.6q7.5 1 14.8 3.2c4.6 1.6 8.8 3.9 13 6.1 7.2 3.8 11.9 5.1 19.2.7 1.9-.9 3.4-2.6 5.2-3.4 5.4.6 9.7 4.4 14.8 5.9 8.9 2.4 16-9.8 27.9-8.6 9.7.8 12.2 9 20.9 9" class="b"/><path d="M8.5 170.1c1.8 1.4 3.8 3 6.1 3 1.4-.2 3 .1 4.4 0 2.8-.3 5.8-1 8.7-1 4.9-.2 10 2.3 14.8 0 6.2-3 9.8-10 16.5-12.4l2.6-.6q3 .5 6.1 1.4c7.6 2 14.7 5.5 21.8 8.8 6.9 3.2 13.5 5.4 20.9 2.3l4.3-2q1.6-1 3.5-1.1c5-.4 9.4 2.5 14 4 5.6 2.1 10.9-1.4 15.6-4.2 9.4-5.5 17.4-5.7 26.1 1.3 2.6 2.3 6 3.8 9.6 3.5" class="b"/><path d="M8.5 166.6c1.9 1.7 4.3 3.7 7 2.9 4 .6 8.1-.5 12.2-.5 4.6 0 9.6 1.8 13.9-.6 5.9-3.1 9.3-9.9 15.7-12.3 2.5-1 3.6-.7 6 .2q4.1 1.5 7.9 3.5c5.1 2.7 10.2 5.7 15.7 7.7a31 31 0 0 0 18.2 1.4q1.8-.5 3.5-.3 2.7 0 5.2-.6c5.9-2.4 11-.4 16.6 1.2 6.4 1.9 12-1.8 17.4-4.7 9.7-5.2 17.4-4.5 26.1 2.4 2.7 2.1 6.2 3.2 9.6 2.7" class="b"/><path d="M8.5 163.4c1.7 1.5 3.8 3.3 6.1 2.7q1.8.1 3.5 0c2.9-.2 5.8-.8 8.7-.8 4.6 0 9.6 2.1 14-.2 6-3 9.2-10 15.6-12.5q1.3-.6 2.6-.5 2.3.8 4.4 2c3.6 2 6.9 4.6 10.4 6.8q5.6 3.6 12.2 5c4.9.7 10 .2 14.8-.5q3.8.8 7.8.7 2.6 0 5.2-.3 2.6-.6 5.2-.8c3.2-.1 6.5.6 9.6 1 7.4 1.4 13.6-2.8 20-5.6 10-4.3 16.8-2.3 25.3 3.8 2.7 2.1 6.3 2.4 9.5 1.7" class="b"/><path d="M8.5 160.5c3 2.8 5.9 2.6 9.6 1.7 2.8-.7 5.8-1.4 8.7-1.2 4.6.2 9.4 3.2 14 .9 6-3 9.7-11.6 16.5-12.9 7.8 4 13.3 12.6 22.6 13.6 5 .6 9.9-.6 14.8-1.1q1 0 1.7.3 1.8.6 3.5.8 3.5.3 7 0l7.8.2q4.4-.4 8.7-.2c4 .2 8.3.4 12.2-.8 6.7-2 12.9-6.1 20-6.6 6.5-.6 12.1 2.5 17.4 5.9 3.5 2.3 6.7 1.8 10.5.8" class="b"/><path d="M8.5 159c1.4.4 3 .2 4.4.3q1.9-.5 3.5-1.7a20 20 0 0 1 7.8-2.1c4.3-.2 8.2 2.2 12.2 3.4 7.8 2.5 12.4-9.6 19.1-12.4 6.4 4.2 11 12.4 19.2 12.8 3.8 0 7.5-1.4 11.3-2 1.4-.2 3-.8 4.3-.5q2.9 1.9 6.1 2.4c4.4.5 8.7-1.3 13-1 2.4 0 4.7.8 7 1q6.6.3 13.1-.2c4.5-.5 8.8-2.3 13-3.7 7.9 0 15.8 0 23.6-.8 7.9 3.9 8.1 6.5 17.4 3.3" class="b"/><path d="M8.5 155.3c1.1 0 2.4.7 3.5.5 4.1-.6 6.5-4.7 9.6-7 8.8-1.3 13 6.5 19.1 7 5-.4 9-7.6 13-10.4l1 .1c4.5 4 8.8 11.1 15.6 10.3 3-.6 5.9-2 8.7-3q1.8-.8 3.5-1.2c.8-.2 1.8-.5 2.6-.1 2.4 1.7 5 3.4 7.9 4 4 1 8.1-1 12.1-1.6q1.4-.2 2.6.1 2.2.4 4.4.4 1.8 0 3.5.6l3.4.5q4.5.1 8.7-.2c1.4-.1 3-.6 4.4-.5 12.8.6 25.6 1 38.3-.8 5.3 3.1 7.7 1.6 13-.2" class="b"/><path d="M8.5 152c3.7 1.3 7-1.4 9.6-3.7 2.5-2.2 5-4.7 7.8-6.5 3.4.4 6.2 3 8.7 5.1 2.6 2.1 5.1 5.5 8.7 5.5 4.1-.9 6.5-5 9.6-7.5 1 .3 1.9 1.5 2.6 2.2q2 2.1 4.4 3.9c3.5 2.6 7 1 10.4-1 2.8-1.6 5.6-3.3 8.7-4.3 1.9.8 3.5 2.3 5.2 3.3 3 2 6.7 3.8 10.5 3.3 3-.3 5.7-1.8 8.7-2 5 1.9 10.4 1.7 15.6 1.8q10.5.5 21 .1c9.2-.5 18.5.2 27.8.2q2.6 0 5.2-.3c1 0 2.4.4 3.5.2 2.4-.4 4.6-1.5 7-2.3" class="b"/><path d="M8.5 148.9c7.3.6 13.6-10 22.7-11.8 5 2.4 8.8 10.7 13.9 11.8 2.8.2 5-2.2 7-3.8h.8c7.3 7.4 10.6 2.4 17.4-2.1 1-.7 2.2-1.7 3.5-1.7l4.4 2.1c10 5.7 12.1 7 23.5 3.6 5 2.3 9.5 2 14.8 1.9q5.6 0 11.3-.6l10.4-1.4q8.7-1.2 17.4-.3c5.5.5 11 1.7 16.6 2.2 3.8.3 7.8.5 11.3-1.5" class="b"/><path d="M8.5 145.5c9.6-1 15.4-12.5 28.8-10.3 2.4 2.6 4.4 5.7 7 8.1q3.5 3.7 7.7 1c.5 0 1.4.3 1.8.6q1.2.5 2.6.6c4.3-.6 7-4.5 10.4-6.6 8 0 14.9 5 22.7 6.3 3.7.7 7.6 0 11.3-.6 1.4.1 2.9.9 4.3.9 2.3.1 4.7-.7 7-.8 4.8 1.2 9.9.7 14.8.7q6.8-.2 13-2.9l6.1-2.4q2.7 0 5.2.2c7.1.6 14 2.9 21 4.2q2.2.3 4.3.9c2.3 0 4.8.2 7-.7" class="b"/><path d="M8.5 141.9c4.5-.7 8.3-3.3 12.2-5.2 6.7-3.7 14-4.5 20.9-.7q2.4 1.2 4.4 3c2.5 2.7 5 3.5 8.7 2.8 13.5-6.7 20.3-3.3 33.9-.5 5.4 1 11 .7 16.5.6q4 .1 7.9 0c2.2-.2 4.6-.8 7-.9q4.3.2 8.6.8c6.5 1.1 12-1.8 17.4-4.7q2.2-1.1 4.4-2l6 1.2c6.2 1.5 12.1 3.8 18.3 4.8 2.9.6 5.9 1.3 8.7.6" class="b"/><path d="M8.5 138c11.6-3 17.9-9 30.5-3.3 3.8 1.6 7.9 4.9 12.2 3.5 4 1 8.2-.8 12.1-1.7q6.5-1.5 13.1-1.1c5 .2 9.9 1.2 14.8 1.7l4.4.5q1.6.8 3.4 1c1.2 0 2.4-.7 3.5-.7a32 32 0 0 0 11.3-1.7c10-4.8 15.8 3.7 24.4 2 5.4-1.3 9.7-5.4 14.8-7.6 7.7 1.7 15 4.8 22.6 6.3 2.6.6 5.2 1.9 7.9 1.6" class="b"/><path d="M8.5 133.5c14.5-3.6 17.3-4 31.4 1 2.8 1 6 .7 8.7-.9.9-.2 1.8.6 2.6 1q3 .8 6 .3c5-.9 9.9-2.4 14.9-3 6-.7 12.2-.4 18.2 0 5 4.5 7.1 4 12.2 0q5-.2 9.6-2c2.5-1 5-2.4 7.8-2.2 7.7.2 14 8.9 21 7.1 3.8-1 7-4 10.3-6.1 1.4-.8 2.8-2.1 4.4-2.2 5.6 1.3 11 3.2 16.5 4.6q2.6.5 5.3 1.3c2 .8 4 1.9 6 2.4" class="b"/><path d="M8.5 128.6c21.4-3.7 25.9 8.5 37.5-.3 1.6 1 3.2 2.6 5.2 3 5 1 10-.8 14.8-1.8q9.8-2.4 20-3c1.6.9 2.8 2.6 4.3 3.6 4.6 3.7 8.2-.6 11.3-3.8.4-.4 1.2-1.2 1.8-1.4l1.7-.3 4.4-1c3.2-.8 6.2-2.8 9.5-2.6 7 .1 12 5.6 17.5 9 2.3 1.5 5.2 2.2 7.8 1 4.8-2.2 8.2-6.6 13-8.6l14 3q2.6.4 5.2 1 3.6 1.4 7 3.5" class="b"/><path d="M8.5 123.4q8.2 0 15.7 2.8c7.7 2.8 11.8 3 18.3-2.5l.9.1c1.8 2 4.1 4 7 4.3 3.7.3 7.5-.6 11.2-1.4l14.8-3.6c2.3-.4 4.7-1.2 7-1.2 7.2 8 9.3 8.5 16.5.2 4.3-4.9 3.6-3.7 9.6-5.1 3.1-.7 6.3-2 9.6-1.7 7.8.2 13.2 6.4 19.1 10.8 2.2 1.6 5.2 2.7 7.8 1.5 4.9-2.1 8.4-6.6 13.1-9l12.2 1.4c5.3.2 7.7.8 12.2 3.9" class="b"/><path d="M8.5 118.2c4 .5 7.7 2 11.3 3.5 3.3 1.4 6.8 3.3 10.5 3 2.2-.3 4.3-1.5 6-2.8 1.2-.7 2.2-2.1 3.6-2.5 5.8 6.3 7.7 5.7 15.6 4.3 8.6-1.3 16.9-4 25.3-6 2.5 2.5 4.9 6.2 8.7 7 5.3.2 10.3-10.2 15.6-12.4 5.8-.9 11.7-2.3 17.4-1.1 10.4 1.6 16.2 13.6 23.5 13.5 2.7-.3 5-2 7-3.6q3.7-3.2 7.8-5.9c1.4-.3 3 0 4.4-.2h6c4.8-.4 8-.2 12.3 2.4" class="b"/><path d="M8.5 113.2c5.4 1.4 9.9 4.8 14.8 7 5.3 2.6 9.4-.5 13-4 2 1 3.4 3 5.3 4 3.6 2.3 7.6.1 11.3-.6 8.6-.8 17-2.9 25.3-5.4 1 .2 1.8 1.5 2.6 2.2 1.5 1.6 3.2 3.4 5.2 4.4 4 1.7 7-2.4 9.6-4.9 2.3-2.5 4.8-5.2 7.8-7q1.6-.8 3.5-1.4l4.3-.4q5.2-.5 10.5.5 3 .4 6 1.1c3.2 1.3 6.1 3.5 8.7 5.6 3.3 2.6 6.3 6 10.5 6.9 5.1.6 9.2-4.3 13-7 1.4-1 2.8-2.2 4.4-2.7l3.5-.5c5.3-.8 10.5-2.1 15.6.3" class="b"/><path d="M8.5 108.6c4.8 1.7 8.8 5.1 13 7.7 5 3 8.6.8 12.3-2.8 3.5 2.7 6.5 5.5 11.3 3.7 2.3-.8 4.5-2 7-2.4 3-.4 6.4-.2 9.5-.6q7.5-1 14.8-3.3c2.5 2.3 4.6 5.3 7.8 6.6 4 1.2 7-2.6 9.6-4.9 2.2-2 4.4-4.3 7-6 5.3-3.5 12.2-3.4 18.3-2.2 5.9 1.3 11.5 3.6 17.4 5.2 4 2.7 7.5 6.4 12.1 7.9 7.5 2 14.1-8.6 21-10.5 4.4-1.3 9.2-2.3 13.9-1.2" class="b"/><path d="M8.5 104.4c3.9 1.6 7.2 4.3 10.5 6.8 4.4 3.4 7.7 4.5 12.1.4h1c6.2 4.9 9.4 2.1 15.6-.7q3.3-1.6 7-1a48 48 0 0 0 17.4-1.1q1.2-.5 2.6-.3c2.4 2.4 5 5.6 8.7 5.8 4.8-.1 10.3-7.1 14.8-9.6 5-3.3 11.5-4.3 17.4-3 6.7 1.5 12.6 5.3 19.1 7.3q5.2 1.6 10.5 1.8 2.5 1.5 5.2 2.8c10.9 4.4 17.6-13.7 33-12.5" class="b"/><path d="M8.5 100.7c3.6 1.5 6.6 4 9.6 6.4 3.5 2.8 7.1 5.4 11.3 2.2q.9 0 1.8.5 1.2.6 2.6 1c4.1.6 7.7-2.3 11.3-4 2.4-1.2 5.1-2.2 7.8-1.7q9.5 2.6 19.2.8c3.5 3.2 7.2 6.7 12.1 4 5.8-3.3 10.8-8.3 17.4-9.8 7.4-1.9 14.5.2 21 3.8a42 42 0 0 0 29.5 5.6c1.8.3 3.5 1.3 5.2 1.3 2.9.2 5.6-1.2 7.9-2.8 5.4-3.7 11.5-10.5 18.3-11" class="b"/><path d="M8.5 99.3c3.7-.4 4.2.3 7 2.4 3.7 2.7 8 7.5 13 4.9 5.7 2.6 10.8-2 15.7-4.3 2.4-1.1 5.2-1.9 7.8-1.3 2 .5 4 1.5 6.1 2q5.6 1.3 11.4.8c1.6 1.1 3.3 2.6 5.2 3.2 4.8 1.5 9-2.4 13-4.5A28 28 0 0 1 113 100c4.2 1.3 8 3.8 12.1 5.5 6.6 3 14 1.4 21 1.7 4 0 8.2.6 12.1-.6 2.7.8 5.3 1.2 7.9-.2 6.4-3.3 10.5-10.3 17.4-13" class="b"/><path d="M8.5 97.5q3.6-.1 7 1c2.8 1.9 5.4 4.3 8.7 5.2q1.3.3 2.6.1.8-.2 1.7 0c4.1.7 7.9-1.6 11.3-3.5 4.2-2.3 9.4-4.3 14-1.8q6.1 3.2 13 3.3 2 1.4 4.4 2c4.8.9 8.7-3.1 13-4.5l9.6-3.2c7-.8 13.6 2.2 20 4.5 3.2 1 6.3 2.6 9.6 3.1 5.4 1 10.5-1.8 15.7-2.5 4.3-.8 8.8 0 13 1.2 2.6.8 5.2 1.7 7.9 1.5 1 0 2.3-.6 3.4-.6 8.4 3.5 13.6-9 20-12.6" class="b"/><path d="M8.5 95q4.6-.1 8.7 1.5c2.2 1.4 4.5 2.9 7 3.6q1.7.5 3.5.3H31c3.1-.5 6-2 8.7-3.3 3.8-1.8 8.2-3 12.2-1.4q2.3 1 4.4 2.1 3.4 1.5 7 1.7c.8 0 1.8.6 2.5.8q1.8.3 3.5 0c1.7-.6 3.5-.5 5.3-.7q3.5-.2 7-1c5.5-1 10.9-3.2 16.4-4.6 4 1.2 7.6 3.2 11.4 4.6q4.1 1.5 8.7 1.9c11.8.4 18.3-13.7 34.8-4.7 4.2 2.3 9 6.4 13.9 3.8 3.9 2.2 7-.4 9.6-3.3 2.2-2.6 4.4-5.5 7-7.8" class="b"/><path d="M8.5 91.3c5.4-.5 7.7 1.6 12.2 3.8q3.4 1.7 7 2c2-.2 4 0 6-.4 3.6-.7 7-2.3 10.5-3 6.7-1.2 9 2.2 14.8 3 4 .5 8.1.2 12.2.3 7 .2 14.1-.3 20.9-2.4q3.4-1 7-1.8c1.2 0 2.3 1 3.4 1.4a19 19 0 0 0 18.3.8c1.5-.9 3.6-.9 5.2-1.5q4.5-1.6 8.7-3.8c3.8-1.8 8-3.5 12.2-3.9q3.2.7 6 2.5 3.7 2.5 7 5.3c2.7 2.2 6.2 4.5 9.6 2.8a3 3 0 0 1 1.8.4q1.2.3 2.6 0c4.2-2 6.4-6.8 9.5-10.1" class="b"/><path d="M8.5 87.7c6.7.8 12.5 4.9 19.2 5.7 2.3.4 4.7-.3 7 .1 4.3.2 8.6-1.1 13-.8 2.9 0 5.8 1.1 8.7.8q3.1.3 6-1c7.3-1.4 14.6.6 21.9 1q5.7.1 11.3-1.4l4.3-1c1.2 0 2.4 1 3.5 1.4q2.5 1.1 5.2 1c2.4 0 4.7-1.3 7-1.4l2.6.4c7 .5 13.3-3.5 19.1-7 4.5-2.6 9.6-4.6 14.8-4.2q2.9 1.3 5.3 3.4c4.1 3.1 8.9 10.5 14.8 8.5 1 0 2.3.6 3.4.1 3.5-1.7 5.4-5.4 7.9-8.3" class="b"/><path d="M8.5 85.7c6.3 0 12.2 2.6 18.3 3.7 4.6 1 9.3.6 14 .3 2.2-.1 4.6.2 6.9 0 2 0 4 .5 6 .4 3.2-.1 6.2-1.6 8.8-3.3 1-.6 2.3-1.6 3.5-2.1q4-.1 7.8 1c11.9 3.5 14 6.1 27 2.9 4 2.3 7.3 1.6 11.3-.2a24 24 0 0 0 20-2.6c5.7-3.5 11.4-7.7 18.3-8.2q3-.1 6 .3c4.5 2.4 7.5 6.8 11.4 9.8q2.3 2 5.2 2.4l1.8-.1h1.7c2.8-1.4 4.9-4.1 7-6.3" class="b"/><path d="M8.5 83.8c7.3-1 14.6.6 21.8 1.6q6 .8 12.2.8c3.1 0 6.5 0 9.5-1 6-1.9 10.7-6.6 16.6-9 4.4.7 8.4 3 12.2 5.2 3.5 2.1 7.1 4.5 11.3 5 2.9.5 5.8-.2 8.7-.9a8 8 0 0 0 7.8.2q1.2-.8 2.6-1c3 .7 5.7 1.6 8.7 1.5q6.5 0 12.2-3c7.1-4 14-9 22.6-8.2 8.3.6 12.3 6 18.3 10.6q2 1.4 4.4.9c2.2.5 4.5-.7 6-2.3" class="b"/><path d="M8.5 81.7q7.3-1.9 14.8-2.2c5.5-.2 11 .2 16.6 0q6.8.1 13-2.6c4.9-2.5 9.5-5.6 14.8-6.8q1.8-.5 3.5-.6l2.6.9c7.7 2.9 13.7 12.8 21.8 12.7 1.7 0 3.5-.6 5.2-.8q1.6.9 3.5.8c2.2 0 4-1.6 6-2.3q2.3.3 4.4 1.1a30 30 0 0 0 14.8-.4c4-1 7.6-3 11.3-4.5 24.5-11.4 29.1 11.5 38.3 4.8 1.5.4 2.8 1.5 4.4 1.3" class="b"/><path d="M8.5 79.1c7-2 13.7-5.1 21-6.3 8-1.6 16.5-1.8 24.3-4.7q7.1-2.8 14.8-3c3.4-.2 6.6-.4 9.6 1.6 6.1 3.6 11.3 14.3 19.1 12.8q1.4-.2 2.6-.7c.5 0 1.4.3 1.8.6 3.1 1.2 6-1.2 8.7-2.7 2.6.3 5 1.9 7.8 2.1q7.5.9 14.8-.6c4.4-.9 8.7-2.4 13-3.4 4.9-1.1 10-1.5 14.9-.1 4.5 1 8.4 4 13 5 3 .3 5.6-1.7 7.8-3.3l1.8 1.4" class="b"/><path d="M8.5 76.1c3.5-.6 6.6-2.7 9.6-4.4q5-3.2 10.4-5.4a73 73 0 0 1 18.3-3.7q5.3-.7 10.5-1 7.3-.2 14.8-.1 2.6-.2 5.2.1c4.2 1.4 6.8 5.4 9.6 8.6 3.6 4.3 7 8 13 4.8 4.6 3 7.5-.5 11.3-2.6q2.3.8 4.4 1.8 2 .8 4.3 1.2c8.4 1.1 17 .3 25.3-.6 5.1-.6 10.4-1 15.6-.4 11.5 1.6 11.6 4 22.7-2.2" class="b"/><path d="M8.5 72.8c5.2-.4 9.8-6.1 14-8.9 1.9-1.6 4.6-1.7 7-2.6q5-1.7 10.4-2.9c4-.7 8.1-.3 12.1-.4h19.2c6.9.1 8.3-1 13 4.9 3 3.3 5.8 9 10.5 9.8q1.8.1 3.5-.7a3 3 0 0 1 1.7-.4c4.8 3.2 8.3-1 12.2-3.3 1.8.7 3.4 2 5.2 2.6q3.4 1.4 7 1.6c7.5.5 15 0 22.6.3h14q5.6.1 11.2-.3c4-.5 7.6-2.3 11.4-3.3" class="b"/><path d="M8.5 69.3c3.7.2 6-3.3 8.7-5.3q6-1.2 11.3-3.8c3.2-1.4 6.4-3.2 9.6-4.5q3.4-1.5 7-1.1h27.8q3-.2 6.1.1c3.6 1.5 5.6 5.3 7.8 8.2 3.4 4.5 6.4 8.8 12.2 4.7 1.6.8 3.4 2 5.2 1.7 3.4-.4 5.9-3.3 8.7-4.8 10 7 14.2 4.7 25.3 3.1q6.5-.8 13-.3c6.4.4 12.8 1.2 19.2.9 4.4-.3 8.6-1.8 13-1.9" class="b"/><path d="M8.5 65.8c1.6.3 3-.9 4.4-1.4a36 36 0 0 0 22.6-9c2.8-2 6-4.5 9.6-4.3h33c2.3.5 4 2.6 5.3 4.2 2.8 3.3 5.8 10 10.4 10.6q1.9-.1 3.5-1.3c.3-.3 1.3-.7 1.7-.7 4.1 3 7.5 2.1 11.3-.7 1.1-.6 2.2-1.9 3.5-2.1 10.6 8.7 13.7 3.5 24.4-.5a29 29 0 0 1 14-1.6c5.8.8 11.5 3 17.3 3.8 4.6.7 9.4-.2 14 .7" class="b"/><path d="M8.5 62.4c9.9-.1 18.3 1.2 26.1-6 2.7-2.3 5-5 7.9-7 2.7-2.2 5.4-1.7 8.7-1.8H72a40 40 0 0 1 7 .9l1.6 1.5c3.8 3.7 5.9 9.2 10.5 12 2.4 1.2 5-.6 7-2 6.7 4.2 9.8 2.2 15.6-2.1 1.3.5 2.4 1.7 3.5 2.4 4.7 3.6 8 2 12.2-1.4 3.2-2.6 6.5-5.4 10.4-7 7.7-3.2 16.4-1.2 23.5 2.5q4.2 2.1 8.7 3.7c3.7 1 7.6 1.5 11.3 2.6" class="b"/><path d="M8.5 59c1.2-.2 2.3-1.2 3.5-1.1q6.1-.4 12.2.6C34.9 61 38.5 53.2 45 46.8c3-3 4.8-2.7 8.7-2.6q5.7 0 11.3.3 7 .5 14 2.3c1 .3 1.8 1.6 2.5 2.4l3.5 4.5c3.8 4.8 6.6 7.2 12.2 3l.9-.1c6 3.6 10.2 2.8 15.6-1.4h.9c3.3 3 6.5 5.5 10.4 2 6.7-6.1 9.9-12.8 20-13 9.9-.3 14.6.4 22.7 6.4q3.3 2.4 7 4 4.2 1.8 8.7 3.3" class="b"/><path d="M8.5 55.3c1.3-.5 2.6-1.7 3.5-2.7q1-1.3 2.6-1.6c4.4-1 9 0 13 1.8 2.3 1 4.6 2.3 7 2.6 6.5.5 10.5-8.5 14.8-12.2 2.9-2.5 3.5-2.5 7-1.6q9.5 2.5 19.1 4c6.3 1.3 4.7 1 8.7 5.5 2.2 2.4 5.3 5.4 8.7 4 1.5-.4 2.9-1.6 4.4-2 6.2 2.7 10.8 3.7 16.5-.7 1 .1 1.9 1.1 2.6 1.6q1.6 1.2 3.5 1.5c5-.5 9-10.6 14-13.5 1.7-1.2 4-1.4 6-1.3h15.7c2.7-.1 5.5 0 7.8 1.5 3.2 1.8 5.9 4.6 8.7 7q5.2 3.9 11.3 6" class="b"/><path d="M8.5 51.3c3.2-2 5-5.6 7.9-8 7.6-2.2 13.4 1.7 19.1 6.3 2.2 1.6 5.2 3.4 7.8 1.6 4.3-2.6 6.4-7.9 10.5-10.7A50 50 0 0 0 78 46.8q1.8 0 3.5.5c2.6 2.4 5.8 5.4 9.6 4.6 1.8-.3 3.4-1.6 5.2-2 6.2 1.7 11.5 3.7 17.4-.2 1.7 1.2 4 3 6.1 2 4-2.5 5.8-7.3 8.7-10.7 3.2-4 4.8-3.9 9.6-3.8h12.2c4 .2 8.1-.3 12.1.3 3.8 1 6.1 4.6 8.7 7.2 3.3 3.3 7.5 6.8 12.2 7.3" class="b"/><path d="M8.5 46.9c4.2-3.5 7.2-8.6 12.2-11.1q3-.4 6.1.2c9 1.8 12.2 10.6 18.3 12.5 3.8.3 6.3-3.8 8.7-6 7.2 5 15 4.8 23.5 4.5l5.2-.2c2.2 1 4.5 2 7 1.7q1.7-.2 3.4-.9c.8-.3 1.8-.8 2.6-.6 5.8.4 12 3.1 17.5.1 1.5.9 3.4 2 5.2 1.1 3.7-2 5.4-6.5 7.8-9.8 3.5-5.2 4.7-4.7 10.4-4.6h13.1c3 0 6-.2 8.7 1 3.5 1.3 6.5 3.8 9.6 5.8q2.5 1.6 5.2 3.1c2.7 2.7 6.4 5.7 10.4 4.6" class="b"/><path d="M8.5 42.3c5.6-5.2 10-10.8 18.3-11.2 14.4-2.4 17.8 19.3 27 12.6 5 2.1 10.4 1.2 15.7 1.3q7 .2 13.9 0 1.7-.1 3.5 0 2.2.1 4.3-.4c3.4-.5 7-.2 10.5 0 2.8.3 5.8.8 8.7.2q1.2-.5 2.6 0 1.7.5 3.5-.1c4-2.4 5.8-7.5 8.7-11.1q1.8-1.5 4.3-2.4c4-1.2 8.1-.8 12.2-.9 6.5-.2 11.3.3 16.5 4.6 5.3 4.2 10.2 9.6 17.4 9.7q1.8.1 3.5.5 2.2-.2 4.4-.2" class="b"/><path d="M8.5 37.7c3.3-2.8 6.5-6 10.5-7.7 5.8-2.4 12.9-1.9 18.3 1.5 4.9 2.9 8.3 8.2 13.9 10q3.1.5 6-.5 3.9-1.6 7.9-1.9c5.9-.3 11.6 1.5 17.4 2.2 4.3.6 8.7.2 13 .1q5.3 0 10.5.2 1.8 0 3.5-.2l2.6.2c4.8-.3 6.9-5.5 9.6-8.8 3.5-3.3 8.1-5.5 13-5.7 11.8-.7 16 1.2 24.4 9.3 2.7 2.4 5.8 5 9.6 5.2q2.6-.1 5.2-.5c1.1 0 2.3.7 3.5.5a9 9 0 0 0 2.6-.8q1.7-.2 3.5-.1" class="b"/><path d="M8.5 33.6c1.6-2 4-3.4 6.1-4.7 5-2.9 11.3-3.5 16.6-1.2 4 1.6 7.1 4.6 10.4 7.3 3.7 3 7 4.4 11.3 1.5 1 0 1.8.8 2.6 1.1 2.5 1 5.3.4 7.8.1q6.1-.9 12.2-.2 5.7.6 11.3.7 5.2-.2 10.5 0h7.8c2.3 0 4.9 0 7-1 4-2.1 6.9-5.8 10.4-8.5 6-4.9 14.6-5.7 21.8-3.4 4.8 1.7 8.4 5.6 12.1 9 2.6 2.3 6 4.9 9.6 3.5 1.5-.5 2.9-1.5 4.4-1.8 3.9 4.8 8.5.2 12.1-2.4h1" class="b"/><path d="M8.5 32c1.8-2 3.4-4.4 5.2-6.4A19 19 0 0 1 33 28c4.4 2.7 9.2 9 14.8 5.7 2.2-1.1 4-3.1 6-4.3 4.3 4.5 9.9 5.3 15.8 5.3h13q6.1-.2 12.2 0h12.2c2.3 0 4.9-.2 7-1.3 4.2-2.6 7.6-6.5 12.1-8.8a19 19 0 0 1 17.4-.2q4.4 2.4 7.9 5.9c2 1.7 4.2 3.8 7 4.4 3.4.3 6.1-2.7 8.6-4.7 1.5 1.7 2.8 4.3 5.2 4.7 4-.2 8-5.5 11.4-7.6" class="b"/><path d="M8.5 30c2.7-2.3 4.7-5.6 7-8.3 13.6-2.5 20.2 12.6 27.8 9 4.3-2.2 7.3-6.3 11.4-8.7 7.8 6.8 15.2 7.6 25.2 8.2l7 .4q1.6.5 3.4.6h7c2.1.2 4.1-.4 6-.5 3.2 0 6.5.9 9.6.4 5.2-1.3 9-5.7 14-7.6 5-2.3 11-1.8 15.6 1 11.2 7.2 11.6 10.8 21.8-.8 2 2.4 3.3 7.4 7 7.5 2-.5 3.6-2.3 5.2-3.6 2.2-2 4.4-4.3 7-5.9" class="b"/><path d="M8.5 27.6c2.7-1.3 4.4-4 6.1-6.3.7-.8 1.5-2.3 2.6-2.6 9.9 1 16.2 11.3 22.7 8.6 5.3-2.5 8.6-8 13.9-10.5 3.7-1.8 3.7-.6 7 .9q4.1 2.1 8.7 3.5 4.3 1.4 8.7 2.5c2.1 1.3 4.4 2.8 7 3.5q3.8 1 7.7.2 3.5.8 7 0 1.8-.4 3.5-1.2 3 .1 6 .8c2.3.5 4.7 1.1 7 .5 4-1 7.4-3.3 11.3-4.3 3.7-1.1 7.8-1 11.3.4 3.6 1.2 6.7 3.7 10.5 4.2 4.1.1 7-3.7 9.6-6.5 1-1.1 2-2.8 3.4-3.5 1.8 2.6 4.3 10 7.9 10 2.1-.7 3.6-2.7 5.2-4.2 2.4-2.4 4.9-5 7.8-6.8" class="b"/><path d="M8.5 24.3c3.8 0 6.5-5 8.7-7.7 2.7-.5 9.5 4.8 12.2 6.1 2.7 1.6 5.9 2.3 8.7.6 4.8-2.8 8.1-7.6 13-10.1 8.6-4.4 16.9.3 23.6 5.7 4.2 3.4 9.1 6.6 14.8 5l2.6-.7q1.3.3 2.6.7c3 1 6.2 0 8.7-1.9q1.5-1.3 3.5-.7c3 .5 5.8 1.9 8.7 2.7 3.1.8 6.4 0 9.5-.7a30 30 0 0 1 8.7-.9c3.3.2 6.4 1.3 9.6 1.8 8 1.2 12.2-7.5 17.4-12 2.5 3 3.7 7.2 6.1 10.3 2.9 4 5.6 0 7.8-2.3 2.7-2.7 5.4-5.8 8.7-7.7" class="b"/></svg>