<svg xmlns="http://www.w3.org/2000/svg" id="a" width="1920" height="2400" viewBox="0 0 192 240"><defs><style>.b{fill:none;stroke:#fff;stroke-miterlimit:10;stroke-width:.3px}</style></defs><path d="M0 0h192v240H0z" style="stroke-width:0"/><path d="M8.4 220.8c21.7-16 28.2 6.9 37.5 3.8 4-1.7 6.9-5.4 10.5-8 1.6-1 3.2-2.6 5.2-2.9 4.9.8 9.9.3 14.8-.2 7.6-.7 15.5-1 22.7 1.8a45 45 0 0 1 9.6 5.7c3.2 2.2 7.5 5.8 11.3 2.7 4.5-3.5 7.2-9.1 12.2-12 7 1.7 12.2 7.2 18.3 10.6 6.4 3.9 11.4 2.4 18.3 2q4-.1 7.8.5 3.5.3 7 .1" class="b"/><path d="M8.4 220.3c4-1.5 8-3.5 12.2-4 13.2-2 18.2 10.4 28 2.4q4.2-3.7 8.6-7.3c1.6-1 3.3-2.5 5.3-2.9 4.6.6 9.3.5 13.9.6 9.2-.1 18.3 1 26.1 6.1 4 2.2 7.6 5.9 12.2 6.3 6.7-.4 11.2-11.4 18.3-13.8 7.7 2 13.2 8 20 11.6 5.5 3 10.8 2.1 16.6 1.6l2.6-.1q1.8.3 3.5.5c2.6.3 5.3 0 7.9 0" class="b"/><path d="M8.4 218c5.6-.1 11-2 16.6-1.9 13 .6 15.5 6 27-4.6 2.5-2.1 5-4.4 7.8-6.1q1.3-.8 2.7-1.2l1.7.2c18.2 1.4 24.9 0 41 10.9 2.6 1.5 5.6 3.2 8.7 2.6 7-1.9 10.9-11 18.3-13.5 1.7-.8 3.6.4 5.2.9 7 2.8 12.3 8.4 19.2 11.3 4.4 1.9 9.3 1.5 13.9 1 1.4 0 3 .5 4.4.4l8.7-.2" class="b"/><path d="M8.4 213.8c6 1.1 12.2.6 18.3.6 5 0 10 .6 14.8-.6 8.1-2 12.8-9.8 20-13.2q4.6.2 8.8.7 7 .4 14 2a57 57 0 0 1 16.5 7.6c2.7 1.5 5.5 3.3 8.7 3.6 8 .3 13.2-10.5 21-13.2.7-.3 1.8-.7 2.5-.8q2.7.5 5.3 1.5c8.2 3 14.8 9.9 23.5 12q4.3.9 8.7.4c4.3.5 8.7-.4 13 0" class="b"/><path d="M8.4 208.5a99 99 0 0 0 21 2.4 38 38 0 0 0 16.5-2.7c3.6-1.6 6.7-4.3 9.6-6.9q1.6-1.5 3.5-2.8c.7-.5 1.6-1.3 2.6-1.2 16.2 1.8 23 2 37.5 10.7 2.6 1.4 5.6 3 8.7 3 8.2-.3 13.3-10 20.9-12.9l2.6-.8c2 0 4.1.7 6.1 1.2 9.3 2.6 17 9.1 26.1 11.8 4.3 1.2 8.8.8 13.1.4q3.5 0 7 .2" class="b"/><path d="M8.4 203.2c5.9.7 11.6 2.3 17.5 3 6.9.7 14.3 1 20.9-1.7 5.1-2.1 8.6-6.7 13-9.8 9 1.4 18.5 1.7 27 5.2 3.3 1.2 6.5 3 9.7 4.5 3.7 2 8 4.1 12.2 2.8 7.6-2.6 12.2-10.4 20-12.8q3.5.4 7 1.2a86 86 0 0 1 18.3 6.1q5.1 2.5 10.4 4.4a15 15 0 0 0 5.3 1.5q3.9 0 7.8-.5 3 .1 6 .4" class="b"/><path d="M8.4 198.3c7.4.2 14.5 3 21.8 4 6.4.7 13.3 1 19.2-2 3.3-1.7 6-4.5 8.7-7 1.1-.3 2.4.2 3.5.3l5.2.6a84 84 0 0 1 18.3 3.2q5.3 1.8 10.5 4.2c3.7 1.7 8 3.4 12.2 2 4.3-1.4 7.7-4.7 11.3-7.4l3.5-2.5c.7-.4 1.7-1.1 2.6-1.1q5.2.7 10.5 1.2c8 .9 16 2.5 23.5 5.6 2 1.3 3.9 2.9 6 3.8q2.2.8 4.5 1c1.4 0 3-.3 4.3 0q2.2-.1 4.4-.4l5.2.3" class="b"/><path d="M8.4 194c7.2-.4 14 2.5 21 4.1 5.9 1.3 12.3 2 18.2.4 3.5-1 6.3-3.4 8.8-5.9 1-.3 2.3.3 3.4.4l5.3.5c6.4.3 12.9.3 19.1 1.8q5.9 1.4 11.4 3.5c3.6 1.2 7.5 2.5 11.3 1.5 4.7-1.3 8.4-4.6 12.2-7.4 1.1-1.1 2.1-.8 3.5-.5q2.6.4 5.2.6c4.7.2 9.3-.2 14-.3q5.2 0 10.4.6 2.7.3 5.3 1.2c3 2.4 6.4 5 10.4 5.9q3.5.5 7 .2h3.5q2.6.2 5.2-.1" class="b"/><path d="M8.4 190.4c8.2-.9 15.8 3.2 23.6 5 7.2 1.4 16.8 2.4 22.6-3.1 1.1-.1 2.4.4 3.5.5q2.6.3 5.2.3c6.7 0 13.4-.8 20-.1q6.3.7 12.3 2.5c3.9 1 8 2.3 12.2 1.3q3.7-.9 7-3.3c.7-.4 1.6-1.4 2.6-1.3q1.6.7 3.4 1 3.5.6 7 .3c8.5-.4 16.7-3.5 25.3-3.5q1.7 0 3.5.2c1.5.6 3 2 4.3 2.8a23 23 0 0 0 15.7 4.2q3.5 0 7-.8" class="b"/><path d="M8.4 187.5c7.6-1 14.7 2.7 21.8 4.5 6 1.6 17.3 2.7 22.7-.5 9 1.9 18-.1 27-1q7-.6 14 .7c5.1.8 10.3 3.1 15.6 2.4 1.8-.2 3.5-1.2 5.2-1.6 5.5 2 11.9 1.4 17.5.7 5.7-.9 11-3.1 16.5-4.6a38 38 0 0 1 9.6-1.3q1.5.6 2.6 1.5c4.2 2.7 9 4.8 14 5 1-.1 2.4.3 3.5.4q2.6.2 5.2-.4" class="b"/><path d="m8.4 187.1 4.4-2.1q1.8 0 3.5.4c4.7 1 9.2 2.9 14 3.9a71 71 0 0 0 20.8.3q2.2.4 4.4.5 8.8.4 17.4-1c7-1.3 13.8-3.4 21-2.8q4.8.5 9.5 2c2.9.8 5.8 1.8 8.7 2 3.8.1 7.6-.9 11.4-.7 4.3 0 8.7 1 13 .5 8.2-1 15.2-6.4 23.6-6.5h2.6q1.8.8 3.5 1.7 3.3 1.5 7 2.4 4.7 3.3 10.4 2.4" class="b"/><path d="M8.4 186.8c4.5-.5 8.7-2.4 13-3 1.8 0 3.6.9 5.3 1.2a60 60 0 0 0 17.5 1.8h5.2q3-.1 6-.4c4.7-.4 9.4.6 14 .4 7-.4 13.3-4 20-5.7q4.8-1.2 9.7-.8c1.4.6 2.3 2.3 3.4 3.3 3.5 3.5 6.1 4.2 10.5 1.7 1.2.2 2.4.9 3.5 1.1 2.6.9 5.5.2 7.8-1.1 3.2-1.9 2.5-2.2 6.1-1 3.1 1.1 6.3 2.4 9.6 2.5 7.2 0 13.1-5 20-6 4.6-1 9.3.2 13.1 2.6 3.2 2.2 6.6 3.6 10.5 3.4" class="b"/><path d="M8.4 181.2c6.3 3.2 13.4 1.8 20 2 4.7 0 9.4.3 14 0q5 .2 9.6-1.3c1-.4 2.2-1.3 3.5-1.3 4.5-.3 8.7 1.7 13 2.5 4.7 1 9.2-1.1 13.1-3.5 3.6-2 7.3-4.4 11.4-5.7 1.4.4 2.4 2.1 3.4 3.1 2.7 2.7 6 7.8 10.5 5.8q2.8-1.6 5.2-3.7c.8-.5 1.7-1.4 2.6-1.5 8.3 6 10.4 8.5 19.2 1.3 3.5 2 7.2 4.4 11.3 4.5 3.4 0 6.6-1.7 9.6-3 5.1-2.6 11.1-4.5 16.6-2.2 2.1.8 4 2.3 6 3.2q3 1.3 6.2 1.6" class="b"/><path d="M8.4 174.3c1.1 0 2.5-.3 3.5.4a32 32 0 0 0 18.3 4q2.2-.1 4.4-.1 2.6.3 5.2.4c7.1.3 11.6-.4 17.4-4.8 3.8.6 7 2.8 10.5 4.4 2.7 1.4 6 1.8 8.7.3 4.8-2.5 8.4-6.7 13-9.5 3 2.2 5.3 5.2 8 7.7 2.7 2.7 5.3 4 8.6 1.2 3.5-2.9 6.3-6.8 10.5-8.7 4.6 2.6 7.8 9 13 10.3 3.7.2 6.3-3 8.8-5.2 3.5 2 7 5.2 11.3 5.2 7.5-.6 13.3-7.7 21.8-5.7q2.8.8 5.2 2.1 3.3 1.5 7 2.3" class="b"/><path d="M8.4 170.5c6.5-.3 12.9 1.3 19.2 2.5s12.8 2 19.2 1q3.6-.6 7-2.4c1.7-.9 3.3-2.5 5.2-3 3.5 1.5 6.4 4.2 9.6 6.2q5 3.4 9.5-.7c3.1-2.5 5.7-5.7 8.8-8.2 4.7 2.5 7.4 7.8 12.2 10.2 6.2 2.5 10.6-11.2 20-12.7 5 2.3 10.4 15 15.7 12.7 1.7-.7 3.1-2.2 4.3-3.5.8-.8 1.7-2 2.7-2.5 6.5 5.3 10 8.7 18.3 4 3.7-2 7.8-4.2 12.2-3.7 1.7.2 3.5 1 5.2 1.6q3 1 6 1.5" class="b"/><path d="M8.4 166.9c13.7-.3 27.5 5 41 1.3q3.2-1 6-2.5c1.5-.5 3-1.9 4.4-1.9 3.3 2 5.9 4.8 8.8 7.1 1.9 1.6 4.6 2.8 7 1.4 3.8-2.4 6.3-6.6 9.5-9.7 1.3.3 2.5 1.5 3.5 2.2 3 2.4 5.4 5.6 8.7 7.5 7.8 4 11.4-13.4 24.4-13.5 5.4 2.5 8.9 13.8 14 14.2 3.4-.8 5.6-5 7.8-7.5l.9-.1c3.4 2.8 6.7 6.8 11.3 7.5 2.5.3 4.9-1 7-2.1 3-1.7 6-3.6 9.6-4 1.7-.1 3.5.4 5.2.7l6 .8" class="b"/><path d="M8.4 163.6c19.3.3 32.7 4.3 51.4-4.1q3.4 2.4 6.1 5.4c2 1.9 4.1 4.4 7 4.6 4.8-.6 7.8-7.4 11.3-10.3a39 39 0 0 1 7 5.2c2.7 2.2 5.7 6 9.6 4.8 3.3-1.3 5.5-4.3 7.8-6.8a21 21 0 0 1 14.9-7.5c2.8 1.1 4.4 4 6 6.5 2 2.7 3.7 7 7 8 2.4 0 4-2.4 5.3-4l2.6-3.7c.2-.5 1.1-1.5 1.7-1.7 4.4 3.3 9.5 11.4 15.7 9 2.8-1 5.2-3 7.8-4.3q3.3-1.7 7-1.5h7" class="b"/><path d="M8.4 160.8c8.1.3 16.3.6 24.4 0q13.8-1 27-4.8c2.3 1.6 4.2 3.8 6.1 5.8 1.8 1.7 3.6 3.8 6.1 4.2 4.7 0 8.2-7.2 11.4-10q4.2 2 7.8 5.2c2.8 2 5.8 5.3 9.6 4.7 3.6-1 6-4.3 8.7-6.8 3.1-3.3 7-6.1 11.3-7.2q1.8-.5 3.5-.6c3 .8 4.6 4 6.1 6.4 1.8 2.7 3.3 6.2 6.1 8 2.8 1.1 4.7-2.5 6.1-4.3q2.1-3.2 4.4-6.2l.9-.3c4 3 7 7.6 11.3 10.3 5.3 3 10-3.7 14.8-5.1q4.7-1.3 9.6-1.8" class="b"/><path d="M8.4 158.5q12.4.7 24.4-1.2c7.3-1 14.5-2.8 21.8-3.4 1.7-.1 3.5-1 5.2-.7 2.8 2.3 5.2 5.2 7.9 7.5 1.6 1.5 4 2.5 6 1.3 3.7-2.2 6-6 8.8-9 1.5 0 3 1 4.4 1.8 3.6 2 6.7 4.9 10.4 6.8 5.5 3.1 10.2-2.4 14-5.7 4-3.5 8.4-7.4 13.9-7.9 4.5 2.6 6.3 8.7 9.6 12.5 3.2 4.2 5.7.9 7.8-2.2 2-2.8 3.7-5.9 6.1-8.2h.9c4 2.7 6.8 7.1 10.5 10.4 5.2 5 9.2-.7 13.9-3.2q4.6-2.2 9.6-3.4" class="b"/><path d="M8.4 156.6q9.2.5 18.3-.9c5.3-.8 10.5-2.2 15.7-3.3q4.3-1 8.7-1.3 4 0 7.9-.4c4.1 2.4 8.4 10.4 13.9 7.8 2.4-1.2 4.3-3.4 6.1-5.4 1-1 2-2.6 3.5-3.2q5.1 1.5 9.6 4.4 3.7 2.4 7.8 4.3c4.6 1.8 8.9-1.6 12.2-4.4l7-5.7c1.8-1.4 3.8-3 6-3.5 5.1 3.4 6.5 10.4 11.4 13.8 3.4 1.4 6.1-4.3 7.9-6.5 1.7-2.4 3.5-5.1 6-6.8 5.1.5 9.8 11.5 14.9 13.4 3.4 1 6-2.3 8.7-4q4.5-3.1 9.6-4.9" class="b"/><path d="M8.4 154.7q13.8.8 27-3c4.6-1.3 9.2-2.7 14-3 3.2-.1 6.4.7 9.6.4 2.7 2.2 5.3 5 8.7 6.3 5.4 1.4 10-5.4 14-8.3 6.6.6 12.4 4 18.2 7a11 11 0 0 0 12.2-.7c4.7-2.8 8-7.4 12.2-10.5 3.3.8 7.1 9.5 10.5 11.9 5.7 4.6 10.8-12.5 18.3-13.5 6.2 2 10.7 15.8 16.5 14.1 2-.6 3.7-2.2 5.3-3.4 2.7-2 5.5-4.2 8.7-5.5" class="b"/><path d="M8.4 152.1c8.2 0 16.5.4 24.4-1.6 6-1.3 12-3.8 18.3-3.3 2.6.2 5.2 1 7.9.8 2.3 1.8 4.8 3.8 7.8 4.1 5.6.2 9.5-4.7 14-7.3q6.1-.3 12.1 1.5c4.8 1.5 9.1 4.4 14 5.6 7.4 1.7 12.3-5.1 16.5-10l1 .2c2 2 4 4.6 6 6.8 1.7 1.9 4.3 4.3 7 2.7 3.1-2 5.3-5.2 7.8-7.9a18 18 0 0 1 8.7-5.7c3.6-1.3 7 4.5 8.8 6.9 8.4 13 9.5 5.6 19.1-.5l1.8.5" class="b"/><path d="M8.4 148c6.7-.7 13.4.6 20 .7 5.4 0 10.6-1.4 15.8-2.3q3.4-.6 7-.3l5.1.9q1.8 0 3.5.2 1.7.8 3.5 1.3c3.7.8 7.3-1.2 10.5-2.9 1.6-.9 3.3-2 5.2-2.3a34 34 0 0 1 18.3.1q4.5 1.6 8.7 3.5c3.6 1.6 8 2.8 11.4.3 2-1.4 3.3-3.7 5.2-5.2 6 4.4 9.4 10.4 16.6 3.5 4.3-4.1 8.6-9 14.8-10.2 1.6-.3 3.5-.8 5.2-.4 3 2.4 4.8 6 7 9 4.5 6.7 6.6 5.7 12.2.7h.8q2.2 1 4.4 1.5" class="b"/><path d="M8.4 145c4.6 0 9.4.6 14-.1l4.3-1c2.6.3 5.2 1 7.9 1.2 4.6.4 9.3-.4 13.9-.4q4 .2 7.8.5 7.5.3 14.9-1c8-1.7 16-6.3 24.4-4.7 3.2.6 6.6 1 9.6 2.4 4.8 2 10.4 5.8 14.8.9 1.1-.2 2.4.6 3.5 1q2.5 1.2 5.2 1.4c7.6.1 13.4-10.6 23.5-12a21 21 0 0 1 10.5.7c1.2.3 1.9 2 2.6 3q1.6 2.6 3.5 5.2c2.3 3 4.5 4.3 7.8 1.7q3.3 1.2 7 1.4" class="b"/><path d="M8.4 138.7c10.4 1 14.2 5.6 25.3 1.1q1-.1 1.7.1a47 47 0 0 0 17.5 1.5l2.6-.4q1.3.2 2.6.6c2 .4 4.1 0 6-.4q3.7.4 7 .6c5.2 0 10-2 14.9-3.6 1.6-.7 3.5.2 5.2.5l7 1.7a64 64 0 0 0 15.7 1.3c3.7 0 7.6.4 11.3-.3 4.2-.8 7.8-3.3 11.3-5.5s7.3-4.3 11.4-5c8.6-1.8 15.3 2 21.7 7.4 1.1 1.4 2.5 3.2 4.4 3.5h3.5c2-.2 4-.8 6-1" class="b"/><path d="M8.4 131.7c8.9 1.1 16 9 25.3 5.8 3.1-.8 6.3-2 9.6-2.5l4.3.5c2.2-.2 4.2.9 6.1 1.7 4.8 2.4 10 .2 14.9-1 7.9 3 10.4 2.4 18.3.3 4.5 1.2 9.2 2.3 13.9 1.6l5.2-1c1.1-.1 2.5-.7 3.5-.2q2.6 1 5.2 1.4a6 6 0 0 0 3.5-1q1.2-1.1 2.6-1.3c6-1.3 11-4.9 16.6-7 6-2.5 13.1-3 19.2-.4 3.5 1.5 6.6 3.9 9.6 6.2 1.8 1.3 3.8 2.8 6 3.3 1.7.2 3.7.4 5.3-.3q1.8-.9 3.5-2 1.2-.4 2.6-.7" class="b"/><path d="M8.4 124.5c9.1 1.4 15.7 10.7 24.4 10.3 3.9-.3 7.5-1.9 11.4-2.2q3.5-.3 7 .8c1.9.7 4 1.5 6 1.4 2.7 0 5.3-.8 7.9-1.4q4.3-1.1 8.7-1c4.3 2.1 7.4 3 12.2 2q5 1.1 9.6-.8 2.2-1 4.3-2c4.5 0 8.8 1.9 13 3 6.7 1.8 9.7-5.9 13.2-9.9 9.4-3.2 20.5-5.1 29.6-.1 4.8 2.5 8.3 7 13 9.5a7 7 0 0 0 3.6.7c.7 0 1.8-.5 2.6-.5 2.8 1.4 6-.5 8.7-1.5" class="b"/><path d="M8.4 118.2c10.5 1.5 15.4 11 24.4 13 4.1.7 8.2-1 12.2-1.2 3.6-.3 7 1.1 10.5 1.4 3.2 0 6.4-1.2 9.6-1.7a28 28 0 0 1 9.6 0c3.7.6 7.4 1.9 11.3 1.6 3-.1 5.8-1.1 8.7-1.8A30 30 0 0 1 113 131q5.3 1.5 8.7-2.6c3.3-3.5 5.5-8.3 9.6-11q2.1-1 4.4-.7h6c9.8-.3 14.3 2.7 21 9.5 2.5 2.2 5.1 5.2 8.7 5.2q1.9-.2 3.5-1.1c.8-.2 1.8.5 2.6.8 2 .6 4.1.3 6 0" class="b"/><path d="M8.4 113.3c10.5.3 15.1 9.1 23.6 13.4 4.3 2.2 9.3.6 13.9.5 2.9-.1 5.8.7 8.7.7 3.2-.2 6.4-1.4 9.6-1.8 5.3-1 10.5.8 15.7 1.7q2.2.3 4.3-.3l2.6.4c3.6.1 7-1.3 10.5-2q5.7-1.4 11.3-.1c3.7.6 7.6 3 11.4 1.6 7.2-3.6 9.7-15.3 19.1-14.3h7.9q2.6-.2 5.2.4c6 1.8 9.4 7.8 14 11.8 3.5 3.3 6.3 3.2 10.4.7q1.3.4 2.6 1 2.2.6 4.4.7" class="b"/><path d="M8.4 109.7c5.8-.4 9.5.9 14 4.7 4.7 3.8 9.1 9.3 15.7 10 2.5.2 5.2-.2 7.8-.2 2.6-.1 5.3.3 7.8.2 3-.3 5.8-1.4 8.7-1.8q4-.7 7.9 0c3.5.5 6.9 2.1 10.4 1.8 1.2-.1 2.4-.8 3.5-1 5.8 2.8 11.7-1 17.5-1.7q4.3-.5 8.7.4c2.6.6 5.2 1.7 7.8 2.2 4.8 1 8.3-3.5 11.3-6.5 4.5-5 8.7-8.5 15.7-8.1q4.4-.2 8.7 0c5.5 1.6 8.4 7.3 12.2 11 5.5 5.8 7.6 3.6 14 1.4q1.7.2 3.5.5" class="b"/><path d="M8.4 106.2c2.6 0 5.3-.3 7.9.3 7 2 11.1 9 17.4 12.4 3.4 2 7.5 2.2 11.3 2h7c2.7 0 5.3-1 7.8-1.7 6.1-1.6 10.8-.2 16.6 1.4q2.7.7 5.2 0c.8-.4 1.7-1.1 2.6-1 4.8 2.8 10 .4 14.9-.9q6-1.8 12.2-.6c3 .5 5.8 1.7 8.7 2.5 6.3 1.8 11-4 15.7-7.3a26 26 0 0 1 19.1-6.1c1.4.1 3.1 0 4.4.7 4.2 3.5 6.7 8.8 11.3 11.9 2 1.4 4.7 1.3 7 .7q3-.8 6-1" class="b"/><path d="M8.4 102.7c3.2.1 6.6-.4 9.6.6 3.4 1.2 6.1 3.7 8.7 6 5.8 5.4 10.2 8.5 18.3 8.2 2.9 0 5.9.2 8.7-.4 5.2-1.5 10.3-3.4 15.7-2 3.8.6 7.4 3 11.3 2.2.5 0 1.4-.4 1.8-.6q.8-.6 1.7-.5 2.9 1.5 6.1 1.2c3.6-.3 7-1.9 10.5-2.7q6.1-1.8 12.2-.7c5 .7 9.6 3.7 14.8 3.5 4.8-.5 9-3.4 13-5.6 6.9-3.9 15-5.8 22.7-4.6 3.6 3.8 6.6 9.3 12.2 10q4 .3 7.9-.1" class="b"/><path d="M8.4 99.3q4-.2 7.9.1c7.3 1.7 11.7 8.8 18.3 12.2 5 2.7 11 2.5 16.5 2.2 4.2-.4 8-2.6 12.2-3a24 24 0 0 1 11.4 1.9c3.8 1.4 5.6 2 9.5.3 4.9 2.3 10.1.1 14.9-1.4q5.9-2 12.2-2c8-.2 15.4 4.3 23.5 4.4 5.4 0 10.6-2.1 15.7-3.8a60 60 0 0 1 16.5-3.7c1.3.8 2.4 2.3 3.5 3.3 3.8 3.7 8 4.3 13.1 4.2" class="b"/><path d="M8.4 95.8c6.5-.2 9.5.2 14.8 4.1 4.5 3.3 8.7 7.4 14 9.2q4.2 1.3 8.7 1.3 3.5.1 7-.6c3.7-1 7.4-2.7 11.3-3.1 5.2-.7 10 1.5 14.8 3.3q1.7.5 3.5.6c.8 0 1.8-.5 2.6-.4q3.5.8 7-.1c4-1 8-2.5 12.2-3.4q6.8-1.5 14-1.3 8.3.6 16.5 3A39 39 0 0 0 153 110c6-1.2 11.5-4 17.4-5.4 4 3.6 7.7 5.1 13 5" class="b"/><path d="M8.4 92.3c9.3-.5 15.4 6 22.7 10.5 6.4 4 14.5 4.8 21.8 3.3 4-1.2 8-3.1 12.2-3.7 7.2-1 11.1 2 17.4 4.3 6.8 1.6 13.5-1.5 20-3a138 138 0 0 1 25.3-3.9q6.7-.1 13 1.9c4.2 1.2 8.2 3.2 12.3 4.5a16 16 0 0 0 10.4 0c3-1 5.9-2.5 8.7-3.7l1-.4h.8q1.2.8 2.6 1.4 3.3 1.3 7 1.2" class="b"/><path d="M8.4 89.3c5 .6 9.7 2.9 14 5.6 6.1 4 12.5 7.8 20 8.1 8.1.6 11-.6 18.3-3.6q3-1 6.1-1.7c1.3 0 2.4 1.2 3.5 1.7 3.7 2.2 7.9 3.9 12.2 4.2q2.6.1 5.2-.1a7 7 0 0 0 2.6 0l2.6-.9 2.6-.5q9.2-1.9 18.3-4.2c8.5-2.5 16.2-6.5 25.3-5.4a31 31 0 0 1 14 5.6c3.5 2.2 7 5.2 11.3 5.5 2.4.1 4.8-1 7-2.1q2.5-1.5 5.2-2.8 3.3 1.2 7 1" class="b"/><path d="M8.4 90.1q3 0 6.1-.6c4.6 1.5 8.7 4.3 13 6.3a40 40 0 0 0 24.5 3q3.6-.8 7-2.6c1-.4 2.2-1.2 3.4-1.2 6 3.7 13 5.7 20 5.1q4-.2 8-.7c1-.2 2.3.7 3.4.7q1.9.2 3.5-.6c.8-.4 1.8-1.2 2.6-1.5a54 54 0 0 0 19.2-5.7 37 37 0 0 1 19.2-6.3c11.4-.5 15.6 3.3 23.5 10.6 3 2.7 6.5 4.7 10.4 2.7q2.3-1 4.4-2.3c.8-.6 1.8-1.5 2.6-1.9q2.2.4 4.4.2" class="b"/><path d="M8.4 93q4-.2 7.9-1.3c3.8-1 3.1-1.6 7 .1a52 52 0 0 0 20 4.2c5 .1 10.3-.8 14.8-3.3 3.7 2.1 7.9 3.7 12.2 3.9 6.7.4 13.4-.6 20-1q3 0 6.1-.3c2.4 1 4.4 2 7 1q1.9-.8 3.5-2l2.6-.7q4.6-1 8.7-3.9c4.6-3.1 9-7.2 14.8-7.7q4.8-.2 9.6 0c2.9 0 5.9-.2 8.7.2 6.6 1 10.4 7.2 14.8 11.5 3.6 3.6 7.1 4 11.4 1 1.1-.8 2.2-2.1 3.5-2.8l2.6-.1" class="b"/><path d="M8.4 93.2q8.6 0 16.6-3a53 53 0 0 0 29.6.3c.9 0 1.8.7 2.6 1q2.2 1 4.4 1.4c6.3 1 12.8-.6 19.2-.6q8.6-.2 17.4 0l6-.3q1.3.7 2.7 1c4 .9 9-1.7 12.2-4 5.2-3.7 9.9-9 16.6-10.1 3.4-.6 7-.4 10.4-.4 3.8 0 7.7-.2 11.3.6 6.8 2.3 10.4 13.8 17.5 14.1 2.8.1 4.9-2.2 7-3.8l1.7-.1" class="b"/><path d="M8.4 88.3c5.2.5 10.5 2.2 15.7 1.1l3.5-.8q1.3-.7 2.6-.4c7 .8 14.1 1 21-.5q1.3-.6 2.5.2 1.7 1 3.5 1.4c3.2.8 6.5.4 9.6 0q4.8-.7 9.6-.8c10.5-.2 21 1.6 31.4.7q1.7-.1 3.5-.6c1.7.3 3.4 1.1 5.2 1.2 9.3.5 14.4-12.2 27-13.4 7-1 14.2.6 20 4.4 2.5 1.6 5.3 2.9 7 5.2 2.2 2.3 5.5 4.8 8.7 3.4.8-.4 1.8-1.2 2.7-1.5.4 0 1.3 0 1.7-.2" class="b"/><path d="M8.4 81.7c2.1 0 4.2 1 6.1 1.7 3.6 1.4 7.4 3 11.4 3 2.3 0 4.6-1.1 7-1.4 6 .4 12.3.5 18.2-1 1.8.5 3.4 1.7 5.3 2 4.6 1 9.3-.5 13.9-.8 5-.5 9.9-.1 14.8.3q9 1 18.3.8 4.9.1 9.6-.5c1.5-.2 3-1 4.4-1.4 4.5 2.6 7.8 2.5 12.2-.3 3.4-2.2 6.7-4.8 10.4-6.3 8.3-3.6 16.3-.9 23.6 3.5a29 29 0 0 0 20 4.8" class="b"/><path d="M8.4 78.1q5.2.4 10.5 1.6c2.1 1.2 4.5 2.5 7 3 2.6.5 5.3-.3 7.8-1 6 .5 12.3.7 18.3-.6 1.2.1 2.3 1 3.5 1.2 3.7 1.1 7.6.2 11.3-.2q7.9-.8 15.7.1c7 .8 14 .7 21 .5 4 0 8.2.6 12.1-.4 2-.5 3.6-2 5.3-3 8.5 7 12.3 2 20.9-1 4.2-1.4 8.8-1.4 13-.1 5 1.4 9.6 4.2 14.9 4.6 2.6.2 5.2-.4 7.8-.7 1 .3 2.3.9 3.5.7.8 0 1.8-.6 2.6-.5" class="b"/><path d="M8.4 74q6.2.5 12.2 2 1.5.6 2.6 1.5 1.6 1.1 3.5 1.6c2.3.7 4.7-.1 7-.6a90 90 0 0 0 21 0q2 .7 4.3.8c4.3.2 8.7-.7 13-.7 5.3 0 10.5.6 15.7.8 6.1.1 12.2-.7 18.3-.4 4.7.2 10.2 1.4 14-2.1 1.1-1 2.2-2.5 3.5-3.2 8.2 7.3 11 6 20.9 4.2a31 31 0 0 1 8.7 0c5.6.9 11 2.5 16.6.4L173 77c.8-.3 1.8-.8 2.7-.5 2 1.8 5 3.7 7.8 2.5" class="b"/><path d="M8.4 69.2q6.8.8 13 3c1.8 1.5 3.9 3 6.2 3.6a10 10 0 0 0 5.2-.7q5.6 1 11.4.8h10.4c1.4 0 3-.5 4.4-.2 4 .5 8.1-.2 12.2-.1 6-.1 12.2.6 18.3.2 6.3-.3 12.8-1.2 19.1-.3 5.6.8 9 1 13.1-3.6 1.1-1.2 2.2-3 3.5-3.8 8.7 7.9 12.2 8 23.5 7.8 11.7.3 14.2-.2 24.4-5.8 2.9 2.6 6.2 6.5 10.5 5.7" class="b"/><path d="M8.4 64.2q5.4.6 10.5 2.6c1.4.3 2.4 1.8 3.5 2.7 2.7 2.6 6 3.9 9.6 2 6 1.8 12.2.4 18.3.2 3.8-.3 7.5.9 11.3.7H85c6.7-.2 13.4-1.6 20-1 3 .3 5.9 1 8.8 1 5.8 0 8.7-6 12.2-9.7 3.7 3 7.5 6.3 12.2 7.9a38 38 0 0 0 17.4.7q5.1-1 9.6-3.6c2-1 4-2.6 6-3.2 3.2 3.3 7.3 8.3 12.3 8" class="b"/><path d="M8.4 59.1q4.6.5 8.7 2c4 3.8 7.7 10.5 14 6.8 2 .3 4 1.1 6 1 6 .1 11.5-3.1 17.5-2.6 1.2.3 2.3 1.2 3.5 1.6q2.1.7 4.4.9 4.8.3 9.5.2 6.1 0 12.2-.2c5.6-.3 11-1.3 16.6-1.3 3.5 0 7 .8 10.5 1.3 7.3 1.6 10.8-5.7 14.8-10.5q1 .1 1.7.8l2.6 1.9q3.7 2.7 7.9 4.5c6 2.4 13 2.3 19.1.1 4.4-1.5 8.3-4.1 12.2-6.4 3.8 4 7.9 10 14 9.8" class="b"/><path d="M8.4 54.2q2.7.1 5.3.8c2.2 2 4 4.7 6 6.8s4.8 4.5 7.9 3.4c1.2-.3 2.2-1.4 3.5-1.3q2.8 1.5 6 1.6c5.7-.2 10.3-4.4 15.8-5 5.1 4.9 10.7 5 17.4 5q9.6.1 19.2-1 5.2-.6 10.4-.6 4.9.1 9.6 1.2c9.2 2.3 11.4-5.8 16.6-11 3.7 2.4 7.2 5.1 11.3 6.8 6 2.6 13 2.5 19.2.2a50 50 0 0 0 10.4-5.5c.4-.3 1.3-.6 1.8-.5 3.9 4.4 8.1 10.8 14.8 10.4" class="b"/><path d="M8.4 49.5c1.5-.2 2.6 1 3.5 2l3.5 4c2.5 2.7 5.3 7 9.6 6.4 2-.4 3.5-1.8 5.2-2.7 8.9 6.6 13-.2 21-3.7 1.6.6 2.8 2.3 4.3 3.2q2.8 2 6.1 2.7 5.2.8 10.5.6 8.3 0 16.5-1c6-.9 12.3-1.1 18.3.3 7 1.7 9.7.6 14-5.1l2.6-3.6.8-1.1 1-.5c3.6 2.3 7.2 4.9 11.2 6.5a27 27 0 0 0 17.5.7c5-1.5 9.3-4.7 14-7 4 4.7 8.4 11.8 15.6 10.7" class="b"/><path d="M8.4 47.4c4 3.1 8 10.6 13 11.2 3.2 0 5.6-2.5 8-4.2.9.2 1.8 1.1 2.5 1.6q1.6 1.3 3.5 2c5.7 2.3 10.4-4.1 14.9-6.7 1.7.4 3 2.2 4.3 3.3q3 2.5 7 3.3c4.8.9 9.9.6 14.8.5q1.8 0 3.5.2 3.3-.8 7-1c4.8-.7 9.9-1.2 14.8-.6 5.5.5 11.2 3.7 15.7-1a36 36 0 0 0 3.5-4.4c.7-.9 1.5-2.4 2.6-3 7.5 5 14 8.7 23.5 8 7.5-.3 13.9-4.4 20-8.3h1c3.7 5 8.4 11.8 15.6 10" class="b"/><path d="M8.4 47.7c4.3 4 8.5 10.4 14.8 5.7 2.1-1.3 4-3.3 6.1-4.4 4.8 4.2 8.7 9 14.9 3.7 2-1.5 3.9-3.6 6-5 1.9 1.3 3.5 3.1 5.3 4.5 4 3 9.2 2.8 14 2.9q5.6.1 11.3-.4 1.3.1 2.6.4a8 8 0 0 0 3.5-.6c1.5-.9 3.5-.9 5.2-1q4-.5 7.8-.1c11.4 1.4 13.5 5 21-6.3 1.2.3 2.4 1.2 3.4 1.8q2.2 1.3 4.4 2.3a35 35 0 0 0 17.4 3.1q8-.3 14.8-4.5c2.4-1.3 4.6-3.1 7-4.3 3.8 5.4 8.2 11.5 15.7 9" class="b"/><path d="M8.4 48.4c2.2 1.7 5 3.7 7.9 3.1 4.7-1.2 8-5.4 12.2-7.8l.8.1c2.9 2.5 5.4 5.6 8.7 7.3 2 1 4.4.3 6.1-1 2.2-1.4 3.9-3.8 6.1-5 5.6 4.8 7 6.6 14.9 6.5 6 0 12.2.2 18.3-.5L85 51l2.6.7c2.4.3 4.9-.6 7-1.7q2.2-.2 4.3 0c8.3.4 13.2 5.2 19.2-3.4 1.2.1 2.4 1 3.5 1.4l4.4 1.9c5.2 2 11 1.9 16.5 1.9 11.8.2 15.8-1.2 25.3-8l.9.3c3.7 5.4 7.8 9.5 14.8 6.8" class="b"/><path d="M8.4 47.9c4.3 1.2 8.1-1.7 11.4-4.1q4-3.2 8.7-5.5c1.4.1 2.4 1.7 3.5 2.5 2.2 2.1 4.3 4.6 7 6.4 4.3 3 8-1.9 11.3-4.3 5 4.7 6.8 5.6 13.9 5.2 5-.3 9.9.2 14.8 0q4.8-.1 9.6-1c1.2-.2 2.4.6 3.5.8q3 .7 6-.2 1.9-.6 3.6-1c5 .6 9.6 3.3 14-.9 11.4 4.2 15 1.5 26 1.5 13.3.7 15.2 3 27-5.4l1 .3c3.6 5.2 7.7 7.5 13.9 4.8" class="b"/><path d="M8.4 44.1C12 43 15 40.5 18 38.5c3.4-2.3 7.2-4.5 11.3-5.2C34 36.2 37 41.1 41.5 44c3.2 2 6.4-.6 8.7-2.6 2 1 3.8 3 6.1 3.2 2 .3 4.2-.1 6.1-.3q3.5-.4 7-.3c5 .3 10 1.1 14.8.5L93 43c1.1 0 2.3.7 3.4 1 3.7 1 7.6.5 11.4.3l2.6.3 2.6-.2q4.4.5 8.7 0c8.2-1.3 15-4.4 23.5-2.6 6.5 1.3 12.7 4.7 19.2 1.4l3.5-2c.7-.4 1.7-1.1 2.6-1.2q5.2 7 13 3.3" class="b"/><path d="M8.4 38c6.1-3.4 12-8 19.2-8.6H31q2.3 1.3 4.3 3.3c3.4 2.8 6.8 8.2 11.4 8.6q1.4-.1 2.6-.7.8-.5 1.7-.5c5.7 3.6 9-2.8 21-.2 12.2 2.7 13 .8 24.3-.7 1.8-.3 3.5.7 5.3 1 2.5.6 5.2.6 7.8.9q2.2.3 4.4-.3 3-.4 6-1.3c7.7-2.4 15.4-5.9 23.6-4 3.3.6 6.5 2 9.6 3.3s6.2 2.7 9.6 2.4c3.1-.3 6-1.9 8.7-3.3 4.3 3.5 6.8 4.5 12.2 2" class="b"/><path d="M8.4 32.1c7.3-4 15-7.6 23.6-5.5 5.9 1.4 7.2 3.5 11.3 7.5 1.7 1.5 3.7 3.3 6 3.6 1.9 0 3.7.3 5.3-.5 4.2-2.2 8.2-4.1 13-3.3s9.2 3.2 14 3.8c6.8 1 13.3-3.6 20-2.4q2.7.6 5.3 1c2.2.7 4.6 2 7 1.3q1.5-.7 2.6-1.8c.3-.5 1-1.2 1.7-1.2 4.6-1.6 9.1-3.8 14-4.8 6.1-1.4 12.6-.3 18.3 2.6 3.4 1.6 6.7 3.8 10.4 4.9q3.6 1 7-.2c1.7-.5 3.5-1.5 5.2-2a9 9 0 0 0 10.5 1.7" class="b"/><path d="M8.4 27c9.2-4.1 19-6 28-.2 4 2.3 7.4 6.4 12.1 7.5a6 6 0 0 0 2.6-.3c1.1 0 2.4.4 3.5.3 5.3-.6 9.7-4.3 14.8-5.4 5.2 1.7 10 5.7 15.7 5.4 3.3-.2 6.5-1.6 9.6-2.5q1.7-.5 3.5-.8c2.3.3 4.7 1 7 1.1l2.6.2c1.7.5 3.4 1.6 5.2 2 3.3.7 4.9-2.7 7-4.5l4.3-1.8a31 31 0 0 1 21-1.9q5.3 1.8 10.4 5c3 1.6 6.2 3.3 9.6 3.2 3 0 6-1.5 8.7-2.7 2.7 2.2 6.3 3.5 9.6 2.2" class="b"/><path d="m8.4 26.5 4.4-4c1-.7 2.2-2 3.5-2.3q7.7-.9 14.8 2.5c4.6 2.1 8.3 6 13 7.8q2.2.8 4.4 0l2.6-1.3c6.2 4 13-.5 19.2-2.2 2.5-.7 3-1.3 5.2.4 2.2 1.3 4.5 2.7 7 3.2 4.6 1 8.8-1.8 13-3.1 5 1 10 1.9 14.9 1.6 2 1.2 4.8 2.7 7 .9q1.5-1.4 2.6-3c1.2-1 3-1.3 4.3-1.9 5.3-2 11-3.6 16.6-3q5.5.7 10.5 3.3c3.1 1.6 6.2 3.6 9.5 4.8 4.2 1.6 8.5 0 12.2-2 1 .1 1.9 1 2.7 1.3a9 9 0 0 0 7.8.7" class="b"/><path d="M8.4 26.3c4.3-2.7 7.6-7 12.2-9.1 5.5 1 10.3 4 14.8 7 5.1 3.4 8.8 4.7 14 .5h.8c8.8 6.1 16.3-.2 25.3-.9 5.9 4.2 9.2 4.6 15.7 1.4 1.3-.9 3-.4 4.4-.1l5.2.8q5.6.8 11.3.4c1.5.3 2.9 1.4 4.4 1a8 8 0 0 0 3.5-2.6q3.4-1.4 7-2.5a30 30 0 0 1 27.8 2.3c3.3 1.6 6.8 3.4 10.5 2.8q2.3-.4 4.4-1.4 1.1-.8 2.6-1c3 2.6 7.6 3.3 11.3 1.4" class="b"/><path d="M8.4 24c5.2 0 10-6.5 14.8-8.3 5.1 2.3 9.5 6.4 14.9 8 3.5 1 6.9-1 9.5-3.2h1c7.6 5 12.5 3.5 20.8 1.6l6.1-1c.5.1 1.4.6 1.8.9q4.5 3.1 9.6 1c1-.3 2.2-1.2 3.4-1.2q7 1.2 14 1.7 3.9.3 7.8.1h2.6q.9.4 1.8.3c.8 0 1.9-.6 2.6-1l6-1.7c5.1-1.7 10.4-3.4 15.8-3.1 4.9.1 9.5 2 14 3.9 5.4 2.4 9.4 2.8 14.7-.4 1.3.3 2.3 1.4 3.5 1.8 3.5 1.2 7.3.2 10.5-1.5" class="b"/><path d="M8.4 19c5.8 4.3 11.2-2.4 16.6-4 7.5 5 11.9 8.2 20 2 1-.2 1.8.5 2.6.8l3.5 1.5c5.4 2.1 11.1.8 16.6-.2 2.5-.3 5.2-1 7.8-.8 2.5 1.8 5.8 2.8 8.7 1.7 1.2-.3 2.3-1.3 3.5-1.1q10.5 1.7 21 1.6c4 0 8.1.2 12.1-.4 6-.7 11.5-3 17.5-3.6q5.2-.5 10.4.9c3.2.8 6.4 2.2 9.6 2.8q3.1.6 6.1-.3c1.1-.3 2.3-1.2 3.5-1.2 4.7 3.6 11 1 15.7-1.5" class="b"/></svg>