<svg xmlns="http://www.w3.org/2000/svg" id="a" width="1920" height="2400" viewBox="0 0 192 240"><defs><style>.b{fill:none;stroke:#fff;stroke-miterlimit:10;stroke-width:.3px}</style></defs><path d="M0 0h192v240H0z" style="stroke-width:0"/><path d="M8.7 229a52 52 0 0 0 16.5-2.1c3.6-1.3 2.8-1.1 6.1.5 7.8 4 12.5.6 20-1.6q3-.6 6-1 4.3 1.5 8.7 1.9c6.7.7 13.4-.2 20-.2a46 46 0 0 0 22.6 2c1.4-.1 3 .5 4.3.6q3.6.4 7-.7 1.7-.7 3.5-.1l3.4.6c5.8 1.2 11-1 15.7-4.2 3.8 1.1 7.2 4.1 11.3 4.5 7.2.1 11.5-11 18.2-13.4 4.8.5 8.3 3.5 11.3 7" class="b"/><path d="M8.7 225.7c4.6 0 9.3.1 14-.6 2.6-.3 5.2-1.3 7.7-1.9 10.7 6 15.5-.6 26.1-.2 12-.3 23.7 2.3 35.6 2.8q6 .1 12.2-.3c2.8-.1 5.8-.6 8.7.1q2.5.4 5.2 0c1-.4 2.4 0 3.4 0 5.3.9 9.9-1.2 14-4.4 3 0 5.9 1 8.6 2 2.5 1 5.1 2.4 7.8 2.6 6.5 0 10.8-8 15.7-11.5a12 12 0 0 1 6-2.8c4.1.5 7.2 3.6 9.6 6.7" class="b"/><path d="M8.7 222.4c5.5-.3 11 .2 16.5-.2q2.7-.3 5.2-1c2.2-.6 2.3-.8 4.4.1 4.2 1.7 8.7 1 13 .2q4.3-.7 8.7-.4c5.5.4 11 1.1 16.5 1.2q8.3.1 16.5-.4a259 259 0 0 1 25.2.4h3.4q5.3.4 9.6-2.7c16.5-4.7 20.7 9.4 32.1-1.7 4.3-4 8.5-9.3 14.8-10 3.8.3 6.5 3.8 8.6 6.6" class="b"/><path d="M8.7 218.7q6-1 12.2-.4c4.9.5 10 1.2 14.7-.6 5.4 2 11 .9 16.5.9 4 .1 8.2.5 12.2.2 5-.3 9.9-1.5 14.8-2.1q7.7-1 15.6 0c8.3 1 16.8 3 25.2 1.8 3.7-.7 7.4-2 11.3-2.4q5.6-.6 11.3 1c4.8 1.5 9.2 3 13.9 0 6.3-4 11-11.5 19-12.2 3.4.2 6 4.4 7.9 6.9" class="b"/><path d="M8.7 214.3c10.4-3.4 13.8-1 23.5 1q3.5.5 7-.7 2 .6 4.3.7c6.3.2 12.9.6 19-1.3 11.6-3.7 18.8-7.7 31.3-3.4 4.7 1.5 9.1 3.8 14 4.6q3 .5 6 0 1.8.3 3.5.2c3.5-.1 7-1.2 10.4-1.9q6.1-1.3 12.2-.1c3.1.5 6.3 1.6 9.5 2 10.3.9 15.8-11.6 26-12.8 1.5-.6 2.7.8 3.6 1.7q2.3 2.6 4.3 5.6" class="b"/><path d="M8.7 209.2c7-3.8 13-4 20-.6 3 1.3 6.2 3.1 9.6 3.4q1.7 0 3.4-.5.8-.3 1.8-.2c4.6.5 9.4.5 13.9-1 4.5-1.6 8.5-4.5 13-6.3 6.7-1.8 14-2.7 20.8-.8 5.2 2.1 9.5 6.2 14.8 8.2 1.3.4 3 .7 4.3.6 1.1 0 2.4-.6 3.5-.2 5.3.8 10.5-1.1 15.6-2q5.7-.8 11.3.2c3.5.6 7 1.8 10.4 2 10 .1 16-10.8 26.1-11 2.3 2.3 4 5.2 6 7.6" class="b"/><path d="M8.7 203.5c2.4-1.6 5-3.2 7.8-3.8 1.5-.5 3-.1 4.4.3 4.4 1.3 8.7 3.4 13 5q2.5 1.6 5.2 2.9c2.5 1 5.4.6 7.8-.3 1.7-.3 3.6-.2 5.2-.6q2.8-.7 5.3-2l7-2c8.6-3.3 17.6-6 26.8-3.5a41 41 0 0 1 7 2.5c3.6 3 7.8 7.7 13 6.2q1.3-.3 2.6.2h3.5c3.2 0 6.4-1 9.5-1.6a36 36 0 0 1 16.5 0c6.8 1.5 11.6 3 18.3-.4 5-2.4 9.9-6 15.6-6 2 2.3 3.8 5 6 7" class="b"/><path d="m8.7 197.7 2.6-2c7-.4 13.6 2.3 20 4.7q4.3 1.5 8.7 2.6 1.6 1 3.5 1.7c2.8 1 5.8-.2 8.7-.8q3.9-.6 7.8-1.6 5.3-1.8 10.4-4c7.4-3 15.8-4 23.4-1.1q4 1.5 7.9 3.5 2 2.1 4.3 3.6 1.6.8 3.5.8c.8-.2 1.8-.6 2.6-.3 5.3 1 10.5-1 15.6-2a35 35 0 0 1 14-.5c7.7 1.4 13.7 4.5 21.6 1.4 4.3-1.6 8.5-3.5 13-3.9 2.4 1.7 4 4.8 7 5.3" class="b"/><path d="M8.7 193c9.4-1.7 18.2 3 27 5.6a39 39 0 0 0 7.8 1.4c1.4.4 2.8 1.3 4.3 1.5 3.2.3 6.4-.3 9.6-.7 4.2-.7 8.2-2.5 12.1-4.2 8.6-4 17.2-5.1 26-1.3q3.6 1.6 7 3.3 2.3 1 4.4 2.4 1.2.7 2.6.6h1.7c6 .6 11.6-2 17.4-3.3q6.9-1.6 13.9-.3c7.1 1.4 14.3 5 21.7 3 3.7-.8 7.4-2 11.3-2.2 2.5 1.7 4.7 4 7.8 2" class="b"/><path d="M8.7 189.6c9.2-1.5 17.6 3.6 26 6.2q6.5 1.8 13.1 1.5c1.1 0 2.4.6 3.5.7q2.6.2 5.2.2c6.5 0 12.3-3.2 18.2-5.3a29 29 0 0 1 22.6 1.2c4 1.7 7.9 3.7 12.2 4 5 .3 10-1.8 14.7-3.4 8.4-2.9 16-2.7 24.4.3 4.4 1.5 9 3.3 13.9 3.2 3.5-.1 7-1 10.4-1.5 1.2-.3 2.4.7 3.4 1.1 2.6 1.1 5.2-.8 7-2.5" class="b"/><path d="M8.7 186c9.8-1 17.8 5.8 27 7.9q4.6 1 9.5.8 4.3.1 8.7-.4 4.3.6 8.7.3c6.2-.7 12-3.8 18.2-4.6 7.4-1.1 14 1.8 20.8 4q4 1 7.9.5a6 6 0 0 0 3.4-.2q1.9-.6 3.5-2a104 104 0 0 1 8.7-3.3c7.4-2.6 15.4-2.1 22.6.8 4 1.6 8 3.5 12.1 4.4 4.3 1 8.7 0 13-.3 2 1.3 4.4.9 6.1-.4l4.4-1" class="b"/><path d="M8.7 183.4c10 0 17.8 8.5 27.8 7.8 3.8-.2 7.5-1.1 11.3-1q3.5.3 7 1 1.6.1 3.4-.1l2.6.2c7.1.1 13.8-3 20.9-3 6-.3 11.6 2 17.3 2.8 3 .5 6-.2 8.7-1 2.7 1.8 6.2 1.2 8.7-.5 6.9-5.4 2.7-6.2 13-8.1a35 35 0 0 1 21.7 3.7c4.8 2.3 9.5 5 14.8 5.8 2.6.4 5.2.2 7.8.3q4.9 0 9.6-.7" class="b"/><path d="M8.7 181.8c7.9.7 14.5 7.2 22.6 5.8 4.7-1 9-3.6 13.9-4.2q4.5 3.8 10.4 4.2c5.8.8 11.6-.4 17.4-1.2q5.2-.7 10.4-.1c9 1.1 13.1 3.3 21.7-1.3 3.8 3.1 8 3.9 12.2 1 2.7-2 4.8-4.8 7-7.4 1-1 2-2.7 3.4-3.2q3.5-.6 7-.6 10.6 0 20 5.1c4.4 2.3 8.9 5 13.8 6.3 1.2 1 2.8 2 4.4 1.5l1.7-.6 2.6.2 6.1.5" class="b"/><path d="M8.7 180.8c3.9.6 7.5 2.4 11.3 3.2 7.6 1.9 13.6-4.4 20-7.2l.9.2c6.6 6.6 9.7 7.9 19 7.2q1.9 0 3.5-.3c.8 0 1.8.4 2.6.4s2-.2 2.7-.5q2-1 4.3-.8l5.2.1c9.9 1 14.5 3.2 23.5-3 2.5 1.4 5 3.3 7.8 4 3.7.9 7.7-.6 10.4-3.2 3.8-3.4 6.6-8.2 11.3-10.5 1.9-1 4-.6 6-.6q4.6 0 8.8.6c5.8.8 11.4 3.1 16.5 6 1.8 2.4 3.6 5.2 6 7 3.7 2.5 5.8-1 8.7-2.3l6.1 1.7" class="b"/><path d="M8.7 179.5c4.6 1 9.5 2.4 14 .3 3.4-1.5 6.4-4 9.5-6.1 1.3-.9 2.7-2.1 4.3-2.6 4.2 3.3 7.6 8.4 13 9.6 2.3.4 4.7 0 7-.1q4.8-.7 9.5-1.3 1.4.5 2.7 1.1a8 8 0 0 0 6-.3c1-.7 2.4-.3 3.5-.2l3.5.6a18 18 0 0 0 15.6-4c2.1.1 4.1 1.5 6 2.3a18 18 0 0 0 9.6 2c8.1-.5 11.9-9 18.3-12.8 2.8-1.8 6.3-2 9.5-1.8h8.7c9.8-.4 12.3 9.6 19.1 14.2 2.9 1.6 5.8-1 7.8-2.8 1.2-.8 2-2.5 3.5-2.8l3.5 1.6" class="b"/><path d="M8.7 177.3c10.4 1.5 15.7-5.8 23.5-10.8h.8c5.3 3.1 10 11.5 16.5 11 3.5-.6 7-1.7 10.5-2.3q4.3-.8 8.7-.5c.9 0 1.8 1 2.6 1.4q2 1.1 4.3 1.3 2.2 0 4.3-.5 3.5 1 7 .2a15 15 0 0 0 5.2-2.6h1.7c5.6.2 11 2.8 16.5 3 14 .7 16.3-13.7 29.6-14.6 13-.8 15.9.7 24.3 10.5 1.7 1.7 3.6 3.8 6 4 4.7-.3 8.2-5.4 11.4-8.4q1 .2 1.7.8" class="b"/><path d="M8.7 173.8c5-.5 9.3-3.2 13-6.2l4.4-3.4c1-.7 2.2-1.9 3.5-2 3 1.5 5.4 3.8 7.8 6 2.7 2.5 5.6 6 9.5 5.8 3-.4 5.8-2.3 8.7-3a25 25 0 0 1 17.4 0q1.6 1.2 3.5 2c3.8 1.6 8.1.9 12.1.3q6.1-.7 12.2 0c6 .7 12.4 1.4 18.2-.6 3.6-1.5 6.6-4.2 9.6-6.5 3.2-2.7 7-5 11.3-5.8 4.9-.8 10.2-.7 14.7 1.6 3.7 2 6.6 5.2 9.6 8 1.9 1.8 4.1 4 7 4 5.2-.9 8.3-6.1 12-9.5" class="b"/><path d="M8.7 169.3c6.7-2 11.5-7.4 17.4-10.8 5.7 1.5 9.5 6.5 13.9 10 4.7 3.9 7.8 1.3 12.2-1.4a20 20 0 0 1 18.2-1.6c3.5 1.3 6.8 3.6 10.4 4.7q2.2.6 4.4.2c5.7.4 11.6-.2 17.3 0 5.2.1 10.5.4 15.7-.5 3.5-.8 6.6-2.8 9.5-4.9q4.1-3.2 8.7-5.4c6.3-2.8 14-2.8 20 .6 3.8 2.2 6.9 5.6 10.4 8.3 6.8 5.6 12-1.7 16.5-6.4" class="b"/><path d="M8.7 164.4c5.4-2.2 9.7-6.6 14.8-9.3 7 1 11.2 7 16.5 10.8 7.7 5.2 11.3-9.4 25.2-7q4.6 1.1 8.6 3.7c2.6 1.5 5 3.4 7.9 4.3q1.2.3 2.6.1c.8-.1 1.8-.6 2.6-.7q2.6.4 5.2.6 7.8.3 15.6.1c4 0 8.2.2 12.2-.6 4.8-1 9-3.9 13-6.4a26 26 0 0 1 19.1-4.3c9.3 1.6 15.3 11.6 21.7 11.4 4.2-.4 7-4.2 9.6-7" class="b"/><path d="M8.7 159.8c4.3-2.2 8-5.2 12.2-7.6 2-.5 4.2.3 6 1 4.8 2 8 6.3 12.2 9.2 3.7 2.6 6.7.4 9.6-2.1 2.3-2.1 4.8-4.3 7.8-5.4 6.3-2.6 13 0 18.2 4 3.9 2.6 8.4 6.9 13 3.3 6.7 1.2 13.4 1.3 20 1.3 5 0 10 .4 14.8-.5 6.4-1.3 11.5-5.7 17.4-8.1a23 23 0 0 1 17.3-.8q4.7 1.8 8.7 5c2.5 1.6 5 3.6 7.8 4.3 4 1 7.2-2.4 9.6-5" class="b"/><path d="M8.7 155.7q4-2.2 7.8-4.7c1.4-.8 2.9-1.9 4.4-2.4l2.6.2c9 1.2 14.1 12.8 20 11.2 3.4-1.3 5.8-4.5 8.7-6.7 5.8-5 13.7-4.6 20-.4q3 2.1 6 4.4a13 13 0 0 0 6.1 2.9q2.4 0 4.3-1.5c1.1-.5 2.4.1 3.5.2l6 .7q8.4.5 16.6.6c4.6 0 9.5.2 13.9-1.5 5.7-2 10.7-5.8 16.5-7.6 21.7-6.5 27.7 17.8 38.2 5.4" class="b"/><path d="M8.7 152.3q4.4-2.3 8.7-5c1.7-.7 3.4-2 5.2-2.3 4.8.4 8.8 3.5 12.2 6.7 2 1.9 4.1 4.2 7 5 3.6.4 6.1-3 8.6-5.2 3.2-3 7.6-5.9 12.2-5.3l6 2.5q3.5 1.4 7 2.7c2.7 1.9 5.4 4.4 8.7 5.2 2.2.6 4.1-.7 6-1.5q4.5.7 8.8 1 9 .8 18.2.5c3.7 0 7.6.4 11.3-.4 6-1.2 11-5 16.5-7.2 22.6-9.2 29.4 14.8 38.2 5.4" class="b"/><path d="M8.7 149.6c5.8-2.7 11.2-6.4 17.4-8 5.7 1.7 9.3 6.8 13.9 10.3 3.7 2.9 6.7.5 9.5-2 2.4-2.2 4.9-4.5 7.9-5.6 1.4 0 2.9.9 4.3 1.3a127 127 0 0 0 17.4 4.8c2.5 1 4.9 3 7.8 2.9q1.3 0 2.6-.6a4 4 0 0 1 2.6-.4q7 .7 14 1c4 .2 8-.4 12-.6 3.8 0 7.6.8 11.4.5 5-.4 9.5-3.2 13.9-5.5 4.5-2.5 9.5-4.4 14.7-4.2 7.1 0 12.7 4.4 18.3 8.3 2.2 1.6 4.6 2.1 7 .2" class="b"/><path d="M8.7 147.4c7.4-2.9 14.5-7.2 22.6-8 3 1.7 5.3 4.6 7.8 6.9 2.3 2.3 5.4 4.7 8.7 2.7 1.8-1 3.5-2.5 5.2-3.7.7-.5 1.7-1.4 2.6-1.4a96 96 0 0 0 27.8 5q2.5.9 5.2.9c1.1 0 2.4-.6 3.5-.4q5.6.3 11.3.4 4.4.1 8.7-.5c2-.3 4-.9 6-1 3.3 0 6.5.7 9.6 1.2 5.7 1.2 10.8-1.2 15.6-4 2.2-1.1 4.4-2.7 7-2.8a38 38 0 0 1 27.8 6.2q2.4 1.3 5.2.8" class="b"/><path d="M8.7 145.5c5-1.2 9.8-3.5 14.8-4.9 4.7-1.3 9.9-2.1 14.7-1.2 2.8 2.6 5.4 6.7 9.6 7 2.2-.2 4.2-1.5 6-2.6q1 0 1.8.2a46 46 0 0 0 13 1.9q9 .3 18.3.4 8.6.2 17.3-.2a51 51 0 0 0 10.5-1.9 48.7 48.7 0 0 0 14.8 1.5q2.5.7 5.1.7 2.7-.3 5.3-1.4l6.9-.8q7.4-1 14.8-.4 4.8.7 9.5 1.8c2.5.5 5.3 1.2 7.8.4q2.3.8 4.4-.4" class="b"/><path d="M8.7 142.9c5-.3 9.9-2 14.8-3.1a42 42 0 0 1 22.6.6c1.6 1.4 3.8 2.6 6 2.5 1.1 0 2.4-.5 3.5-.4q3.9.4 7.8.4 11.3-.2 22.6-.3c2.9 0 5.8.5 8.7.2 4-.3 8-1 12.1-1 3.5 0 7 1 10.5 1 6 .1 12.1-.2 18.2 0q10.6.1 20.8 0c4.4 0 8.8.3 13-.2q3.2-.6 6.2-1.6c2.5 1.7 5.1 2.8 7.8.7" class="b"/><path d="M8.7 139.4c7.7.5 15-2.8 22.6-3 8-.4 15.6 2.6 23.4 3q4.5.2 8.7-.2a93 93 0 0 1 16.5-1c10.4.5 20.9 1.7 31.3 1 3.5-.3 7-1.4 10.4-1.8q4.9-.7 9.6-.4c2.4 1.2 5 2.3 7.8 2.4 3 .2 6-.9 8.7-2 6.4.1 13-.2 19.1-2.3 3.3.9 6.3 2.9 9.6 4 2.4 1 5-.1 6.9-1.8" class="b"/><path d="M8.7 135.8c4.7.7 9.4-.6 14-1.6q6-1.3 12-1c5 .4 10 1.8 14.8 2.5q4.9.6 9.6-.1l3.5-.6q2.4.7 5.2 1 4.8.1 9.5-.8 7-1 14-1.4c5.1-.3 10.4-.2 15.6-.8 3.5-.2 7-1.4 10.4-2.4a44 44 0 0 1 8.6-1.3c6 2.6 11.5 7 18.3 6.7 3.5-.2 7-1.2 10.4-1.8q5.2-1 10.4-.2c7.3 1 11.8 4.5 18.3-1.4" class="b"/><path d="M8.7 132.4c6.3.8 12.1-2.5 18.3-3.2q6.6-1 13 .8c4.8 1.1 9.7 2.8 14.8 2.5 3.8 0 7.5-1.6 11.2-2.4 7.1 4.6 13 1.7 20-.9 7.3-2.8 15-4 22.6-5 2.9-.4 5.8-1.3 8.7-1.7q2.6 0 5.2.7c4.3 1.2 8.2 3.5 12.2 5.4 8 4.3 13.7 4.2 22.5 3.7 5.8-.4 11.7.8 17.4-.2 3.2-.6 6.1-2.5 8.7-4.5" class="b"/><path d="M8.7 129c5.9 0 10.9-3.7 16.5-4.8 13.2-3.1 20.7 6.2 32.2 4.7q3.5-.6 6.9-2.2c1-.4 2.3-1.3 3.5-1.4 4.3 4 7.8 5 13 1.8 5.8-3.7 11.4-8 18.2-9.4q2.2-.6 4.4-.3l7 .4h6.9q4 .5 7.8 1.8c7.5 2.8 14.6 7 22.6 8.3q8.6 1.3 17.4.7c6.8-.4 12.5-2.1 18.2-5.8" class="b"/><path d="M8.7 125.4c5.5-1.6 10-5.7 15.7-7.2 18.4-5 25.5 16.5 43.4 2.7l.9.1c2.9 3.5 6 6.5 10.4 3 4.8-3.8 8.8-9.1 14.7-11.3q2.2-.8 4.4-1 3.9.2 7.8.7c4.6.8 9.3 1 13.9 2 8.3 1.9 16 5.9 24.3 7.5a68 68 0 0 0 39-3.6" class="b"/><path d="M8.7 120.7c5-3 9.1-7.3 14.8-9a23 23 0 0 1 19 3.6c4 2.4 7.7 5.3 12.3 6.4 5.2 1.7 9.3-1.4 13-4.7l.9-.1c2.4 3.4 5.4 7.7 9.5 3.5 5.3-5.3 9.5-13.5 18.2-13q7 0 14 1.4 5.2 1.1 10.4 2.5c6 1.7 12 3.8 18.2 4.9 9.2 1.7 18.6 1 27.8 0 5.5-.7 11-.6 16.5-1.8" class="b"/><path d="M8.7 115c3.5-3.2 6.9-6.8 11.3-8.5 5.2-2 11.2-2 16.5-.3 8.3 2.8 13.6 11.5 22.6 12.5 3.6 0 6.3-3 8.7-5.5.6.3 1.4 1.3 1.7 2 1.1 1.3 2.4 3.3 4.3 3.5 4.5-.4 8.5-11.4 14-13.8q2.4-1.2 5.2-.9h5.2q3.8-.1 7.8.2c3.3.3 6.4 1.5 9.5 2.6a72 72 0 0 0 43.5 4q6-.9 12.1-.7c2 0 4.1.5 6.1.7q3 .3 6 .2" class="b"/><path d="M8.7 110.9c4-3.5 7-8.6 12.2-10.2q6-.3 12.1-.1c9.3 0 13.8 7.8 20.9 12.1 6.1 3.9 8.3 3.3 13-2.2h.9c2 3 4.4 7.1 7.8 3 3.5-4 5.5-9.9 10.4-12.5 2.5-.9 5.3-.3 7.8-.4H106c4 .4 7.7 2.7 11.3 4.4q6.1 3.1 13 4c6.4.8 12.9-.2 19.1-1.5 6.9-1.5 13.9-3.3 20.9-2.4q3 .6 6 1.6a55 55 0 0 0 7 1.6" class="b"/><path d="M8.7 109.6c5.6-3.6 9.1-10.2 15.7-12.2 2.2-.5 4.6-.2 6.9-.3 4.3 0 8.5-.7 12.2 2.1 2.8 2 5.2 4.8 7.8 7q2.5 2.2 5.2 3.9c4.2 3.2 6.6 1.5 9.5-2.2h1c1.8 3 4 5.8 6.9 2.2 3.3-4 5.1-9.4 9.5-12.3q1.6-.9 3.5-.7h15.6c4.5-.3 6.8.6 10.4 3.2 3 2.1 6.1 4.3 9.6 5.5 5.5 2 11.7 1.9 17.4.6 10.5-2.3 21.2-8.4 32-5q2.8 1.2 5.3 2.5 3 1.5 6 2.3" class="b"/><path d="M8.7 107.8c7.2-2.5 11.4-9.9 18.3-13 3-1.3 6.3-1.2 9.5-1.2 2.3 0 5-.2 7 1.2 2.6 1.6 4.7 4.1 7 6.3 1.7 1.9 4 3.5 6 5.2 3.6 3 5.8 2.6 8.7-1 1.7 2 3.5 4.5 6 2 4-4 6-11.6 11.4-13.5 4.3-.3 8.7 0 13-.2q5.2 0 10.4.1c7 2 9.5 10.2 20 11.8q5.2.6 10.4-.3 4.9.5 9.6-1.1c3.8-1.3 7-4 10.4-6a30 30 0 0 1 7.8-1.3c9.1-.2 11.2 5 19.1 7.8" class="b"/><path d="M8.7 105c9 0 15.2-9.7 23.5-12.7q5-1.8 10.4-1.8c2 .7 3.7 2.5 5.2 4 2.2 2.4 4.4 5 7 6.9 2.6 2.2 5.5 5.4 8.6 2 .5.1 1.4.7 1.8 1 1.6 1.1 3.3 0 4.3-1.3 3.4-4 5.1-9.5 9.6-12.4q1.6-.7 3.4-.5h20c1.8-.1 3.8 0 5.2 1.2 3 2.2 5.2 5.4 7.8 7.9 3.7 3.6 9 4.9 14 4.7 3.9 1.2 8 .9 12.1 1 7.8.1 12.3-1.6 18.2-6.7 2-1.4 3.8-3.5 6.1-4.4 3.7.3 7 2.2 9.6 4.6q3.5 3 7.8 4.6" class="b"/><path d="M8.7 100.8q5.3 1.5 10.4-.4c6.6-2.7 12.1-7.7 19.2-9.3a22 22 0 0 1 6.9-.5c2.4 0 3 1.2 4.3 2.9q2 2.3 4.4 4.4c2.2 1.6 4.9 4.8 7.8 3 3 2 5.4-1.7 7-3.8q2.3-4 5.2-7.6c2-2.4 3.7-3 7-2.8h20.7q2.3-.2 4.4.8c2.4 1.6 4.2 4.3 6 6.6 4.3 5.7 7.8 7.3 14.8 7.4 3.8-.1 7.6 0 11.3-.8q2.2-.5 4.4-1.2c.7-.3 1.7-.9 2.6-.7 3.8.7 7.4 2.6 11.3 2.7 3.9-.1 7.2-2.7 10.4-4.8 1.6-.9 3.3-2.5 5.2-2.5 3.8 2.9 6.2 6 11.3 7" class="b"/><path d="M8.7 96.1c12.9 4 15.2 1 27-2.7A23 23 0 0 1 52 94.5l3.5 2.4q1.2.8 2.6 1.1l2.6-.1a9 9 0 0 0 3.5-2.7c2.5-2.9 4.4-6.5 7-9.3q2.3-2.9 6-2.6h21.8c1.6 0 3.5-.3 5.2.3 5.5 3.1 7.1 10.8 13 13.6 3 1.3 6.4.6 9.5.6 3.5-.1 7 .3 10.5.2q5.4-.2 10.4-2.6l3.4-1.7c.8-.4 1.8-1 2.7-.8 5 3.2 9.2 6.5 15.6 4.5 2.2-.5 4.6-1.3 7-1q3.2 2 6.9 1.6" class="b"/><path d="M8.7 91.5c12.5 3.2 14 4 27 1.8q4.6-.8 9.5-.3c4 .3 8 2 12.1 1.4 2.2-.7 3.8-2.8 5.3-4.5 2-2.4 3.8-5.3 6-7.6a7 7 0 0 1 6.1-2.5h22.6c1.7 0 3.6-.2 5.2.5 5.8 2.9 8.8 14.2 15.6 14.2 2 .2 4.1-.4 6.1-.6q3.5-.6 7-.3c9 1 12 2 20.8-1.9q3-1.3 6.1-2.2c1-.3 2.4-.8 3.5-.4a23 23 0 0 0 9.5 4.8q2.6.4 5.2.4 3.5.5 7 0" class="b"/><path d="M8.7 87c7.2 1.5 14.3 4 21.7 4l16.5.1q2.2 0 4.4-.3 2.2.7 4.3-.3c4-2 5.7-6.7 8.7-9.8 2-2.3 4.6-4.7 7.8-4.3h23.5c5.2-.3 6.3.5 9.5 4.6 2.3 2.9 4.2 6.3 7 8.8q1.8 1.6 4.3 1.2c3.8.5 7.5-1.4 11.3-1.5 5.3-.3 10.4 1.5 15.6 1.6 6.9.1 13.1-4 20-3.7 4 0 7.6 2.3 11.3 3.6 2 .4 4.2-.6 6-1.4l2.7 1" class="b"/><path d="M8.7 81.7c9 1.3 17.7 4.7 27 5q5.6.4 11.2-.5l1.8.9q2.1 1 4.3 0c5.4-2.1 7.6-8.1 11.3-12 2-2.6 5-2.2 7.8-2.2h25.2c4.1 0 6.5 4.3 8.7 7.1s4.1 6.8 7.8 7.6q1.4 0 2.6-.3 1.7.5 3.5.3c4-.6 8-1.5 12.1-1 4.7.3 9.3 1.4 14 .9 5.2-.5 10.3-2.6 15.6-2.7q3.5 0 7 1.2c1.9.6 4 1.6 6 1.6 2.5-.2 4.7-1.8 7-2.9q1 .2 1.7.8" class="b"/><path d="M8.7 75.6c11.7 1 23 6 34.8 4.5 2 1.4 3.3 4.2 6 4 6.1-1 9.5-7 13-11.4 1.2-1.3 2.6-2.9 4.4-3.2h27.8c1.4 0 3-.2 4.4.3 5.4 2.9 7.4 9.6 12.1 13.2 2 1.6 3.8 1.3 6 .6 2.3.8 4.8.6 7 .4q3.5-.2 7-.2c3.7.1 7.5.6 11.3.3 4-.2 8.1-1.3 12.1-2q5.7-1.3 11.3 0c9.6 3 7.7 3 16.5-1.8l.9.4" class="b"/><path d="M8.7 69.5c7 .2 14 1.8 20.9 2.9q3.4.5 7 .7c1.3.2 3-.2 4.3.5 2.8 3.6 6 9.6 11.2 6q3-1.8 5.3-4.2c2.8-2.8 6.1-9.5 10.4-9.4h23.4q3.5-.2 7 .1c4.3 1.5 6.7 6 9.5 9.4 3.2 3.8 6.2 6.7 11.3 4.2 3.9 1.3 8.1 1 12.2 1q5.2.2 10.4-.6 5.3-1 10.4-2c4-.8 8.2-1.2 12.2-.2 3 .6 5.7 2.1 8.6 2.7 1.9.4 3.7-.4 5.3-1.3l3.4-2c.4-.3 1.3-.6 1.8-.5" class="b"/><path d="M8.7 64c9.6-.1 19.1 1.8 28.7 2.4 3.5 3 6.3 10.4 11.3 10.9 1.5 0 3-1 4.3-1.7q1.9-1.1 3.5-2.5c3.5-2.9 7.4-10.8 12.1-10.5h26.1c3.2-.3 5.5.7 7.8 2.8 3 2.9 5.5 6.5 8.7 9.3 3 2.6 7 3.6 10.4 1.2q8.8 1.3 17.4-.3c4-.7 8-1.9 12.2-2.6q6.1-1.2 12.1.4c2.7.7 5.3 2 7.8 3q3.6 1.8 7-.2c1.7-.7 3.3-2.2 5.2-2.5" class="b"/><path d="M8.7 59.5q11.4-.2 22.6.9 1.8 0 3.5.3 2.4 1.9 4.3 4.3c2.6 3 4.8 7 8.7 8.6 2.1.7 4.2-.5 6-1.4 4-2 6.7-6 9.6-9.3 3.4-3.6 4.7-4 9.6-3.8h19.9q2.7-.2 5.3.3c7.4 2.5 11 10.8 18.2 13.6 2.5 1.2 5.4 1 7.8-.2 1.1-.5 2.2-1.6 3.5-1.6 7.4.1 14.5-2.6 21.7-3.7 4.6-.8 9.5-.6 13.9 1q3.6 1.5 7 3.4c2.3 1.4 5.1 2.6 7.8 1.4l3.4-1.8 1-.4h.8" class="b"/><path d="M8.7 55.7q11.2-.1 22.6.2c5 .8 8 6 11.3 9.5 2.7 3.2 6 6.3 10.4 4.4 7.3-2 10-10.4 16.5-13.7 1.9-.8 4.1-.4 6-.5h8.8c4 .1 8.1-.1 12.1.2 5.1.7 9.2 4.3 13 7.4q4.8 3.9 10.5 6.4c4.7 2 9.6-.4 13.9-2.6 8.3-4.3 16-5.6 25.2-3.3l8.7 2.1 3.4 2.3c4.5 3 6.6 2.8 11.3.3l.9.2" class="b"/><path d="M8.7 52.3q7.5-.1 14.8-.1c3.8.1 8-.6 11.3 1.6 6.1 3.5 10.4 14.2 18.2 13 8.6-1 11.7-11 19.1-14 2.5-1 5.3-.5 7.8-.6 7.6.2 15.5-1 22.6 2.3 5.2 2.3 9.8 5.7 14.8 8.3 4 2.3 8.3 4.5 13 4 3.8-.3 7.6-1.6 11.3-2.5q5.6-1.4 11.3-1.3c4.3 0 8.7.8 13 1.4 2.6.5 5.3.5 7.8 1 1.8 1.2 4 2 6.1 1.2.4 0 1.4-.4 1.8-.6l1.7.1" class="b"/><path d="M8.7 48.9c5.5-.3 11 0 16.5-.2 7.5-.4 10.5 1.2 15.7 6.5 3.6 3.6 7.4 8.3 13 8.3 9.2 0 13-10.6 20.8-13.8 2.2-.9 4.7-.4 7-.6a70 70 0 0 1 36.5 8.6c4.9 2.5 10 5.2 15.6 5.7 7 .5 13.9-1.2 20.8-1 7.3 0 14.5.7 21.7.7q1.4.1 2.6.4 2.2-.2 4.4-.2" class="b"/><path d="M8.7 45.5q3.5-.3 7-.2h9.5c7.5-.4 11.2 1.5 16.5 6.5 3.7 3.5 7.7 7.5 13 8 9 1.6 13.8-8.1 20.9-11.6l7-.4c9-.4 18-.2 26.9 1.9 8.7 1.8 16.5 6.8 25.2 9 7 1.6 14.4 1.3 21.7 1.3h26.9" class="b"/><path d="M8.7 42.3c6.3-.6 12.8-.4 19.1-.4 5.7-.2 10.7 3 14.8 6.6 4.6 4 8.6 7 14.7 8 5.4 1 10-2.8 14-5.8l2.6-1.9q1.6-.2 3.4-.3c7.9-.6 15.6-2 23.5-2.4h5.2c3.5.8 6.8 3 10.4 3.6q2.2.3 4.3 0c.8 0 1.9-.4 2.7-.2 5.7 2 11.4 4 17.3 5.2 8.6 1.6 17.4 1.6 26 1.7h11.4l2.6.2q1.2-.3 2.6-.1" class="b"/><path d="M8.7 40.1a92 92 0 0 1 23.5-.9q2.8.7 5.2 2c5.7 3.1 10.2 8.4 16.5 10.3 8 2.8 11 1.7 18.2-2.2 7 .2 14-1 20.9-2.8q4.7-1.2 9.5-2.2c4 1.2 8 2.8 12.2 3.8 2.8.7 6 .2 8.6-.8 3.3-1.3 2.7-1.4 6.1-.4 9.4 2.7 19 4.8 28.7 5.2 6.3.5 12.7.4 19.1.5 1.1-.1 2.4.4 3.5.5q1.2-.2 2.6-.2" class="b"/><path d="M8.7 39.2a62 62 0 0 1 19.1-2.5c2.9.2 6 .2 8.7 1.1 5.2 2.5 9.5 6.6 14.8 9 4.3 1.7 9.1 3.4 13.9 2.7q2.2-.4 4.3-1A69 69 0 0 0 100 44c1.7.1 3.5.8 5.2 1.2 9.7 2.7 14.5 3.7 23.5-1.8 3.5.4 7 1.5 10.4 2.1q8.2 1.9 16.5 2.7c7.2.8 14.5.8 21.7 1q1.3 0 2.6.4c1.1 0 2.4-.3 3.5-.1" class="b"/><path d="M8.7 39.2a46 46 0 0 1 29.6-2.9c4 2.3 7.8 5.3 12.1 7.2q5.5 2.3 11.3 2.7 2.2 0 4.3-.2l6.1.2c8.1 0 16.4.5 24.3-1.6l2.6-.8 6.1 1.2c5.5.8 11 1.5 16.5.5q4.7-1 8.7-3.8c8.4 1.4 16.7 3 25.2 3.8 9.2.7 18.5.6 27.8.7" class="b"/><path d="M8.7 39.2c5.4-2 10.8-4.5 16.5-5.5 3.7-.5 7.7-.8 11.3.2 3.8 2 7.4 4.5 11.3 6.3q7.1 3.1 14.8 2.4c6 .4 12.1-.5 18.2-.4 4 0 8.1.5 12.2.5 2.2.2 4.6-.4 7-.2 5.4.7 11-.3 16.4-.4 3.2.1 6.4 1 9.6.5q2.2-.4 4.3-1.4c.7-.3 1.8 0 2.6 0q9.1 1.1 18.2 1.5 8.8.2 17.4-.3h7a8 8 0 0 0 2.6.3l1.7-.6q1.7-.1 3.5-.4" class="b"/><path d="M8.7 38.3c6.5-1.8 12.5-5.3 19.1-6.4 2-.2 4.3-1 6.1 0 4.4 2.2 8.4 5.1 13 6.6 4 1.2 8.2.8 12.2.3q4.8 1 9.5.1c4.6-.6 9.3-1.8 14-1.5 3.4.5 6.9 1.4 10.4 1.7q2.2.3 4.3.1 1.8-.2 3.5-.2c5.5.5 11 .2 16.5.2q10 .2 20 0 9.5-.5 19-1.9 5.7-.7 11.4-1.1c1.5.5 2.8 1.7 4.3 2.3q4.5 2.1 7.8-1.6c.3-.4 1.3-1.3 1.8-1.6l1.7-.3" class="b"/><path d="M8.7 35.8c5.5 0 10.5-2.6 15.7-4q2-.8 4.3-1.1 1.8-.6 3.5.3c3.6 1.7 7.2 4 11.3 4.7 2.9.5 5.9-.3 8.6-1q1.8.2 3.5.7c6.3 1.6 12.4-1.2 18.2-3 1.7-.5 3.6.4 5.3.8 4.5 1.2 9 3.2 13.9 2.5q3.2-.7 6-2.2c1.1-.5 2.3-1.5 3.5-1.7l1.7.3c8.3 1.9 16.9 1 25.2.4 9 6.4 12.7 2 21.7-.2q5.3-1.2 10.5.3c5.5 1.4 11.4 6 16.5.8q1.8-1.8 3.4-4.1c.3-.6 1.2-1.6 1.8-1.8" class="b"/><path d="M8.7 31.6c5.8 2 11.7-.3 17.4-1.6l3.5-.6q1.3.4 2.6 1c4 2 8 2.8 12.1.9q1.3-.6 2.6 0l4.4.8c7.2 1.5 13.8-2.6 20-5.8 3.3.4 6.4 2.4 9.5 3.8 4 2 8 3.4 12.2 1 2.8-1.6 5.3-4 7.8-6 1.3-1 2.7-2.8 4.3-3q6.5 1 13 .5 4.9-.2 9.6-.7c2 .6 3.6 2.4 5.2 3.6 8.9 7.4 11.5 7.5 22.6 6.2q4.8-.3 9.6.4c9.6 1.6 12.8-3 18.2-10" class="b"/><path d="M8.7 26.7c6.8 3.4 12 2 19.1 1.1q1.4-.2 2.6.4 1.8.6 3.5.7c1.9.2 3.5-.7 5.2-1l2.6.4c12.7 2.4 17.8-2.4 27.8-8.6 4.1 1.5 7.7 4.3 11.3 6.7 4.7 3.3 8 3.5 12.2-.5 4.4-4 7.8-10 13.9-11.5l13.9-.1q3.5-.2 7 0c5 .8 9 4.6 13 7.6A29 29 0 0 0 152 28c5.1 1.1 10.5 1 15.7.6 7.3-.6 11-5.4 15.6-10.4" class="b"/><path d="M8.7 22c5.3 3.2 10.5 3.9 16.5 3.3q2.6-.2 5.2.2c1.4 0 3-.5 4.4-.3 4.6.2 9.4.7 13.9-.8 7.1-2 12.7-7 19-10.7C72.7 15.1 76.3 19 80 22c4.8 4.2 7.7 5 12.2-.1 3.6-3.6 7.3-11.3 13-11.2h29.5c5.5.6 9.6 4.8 14 7.7a26 26 0 0 0 24.3 4.4c4-1.6 7.2-5 10.4-7.8" class="b"/></svg>