<svg xmlns="http://www.w3.org/2000/svg" id="a" width="1920" height="2400" viewBox="0 0 192 240"><defs><style>.b{fill:none;stroke:#fff;stroke-miterlimit:10;stroke-width:.3px}</style></defs><path d="M0 0h192v240H0z" style="stroke-width:0"/><path d="M8.4 229.1q5.2-.6 10.5-1.5c.9 0 1.8.7 2.6 1q2.1 1 4.4.5c2.9-.8 5.3-3 7.8-4.5a56 56 0 0 0 10.5-4.1c1.7-1 2.4-1.3 4.3-.8 3 .5 5.3 2.7 7.9 4.2a23 23 0 0 0 8.7 2.8c9.6 1.1 19.1-1.5 28.7-.8q7.2.5 14 3c2.5.8 5.2.1 7.8-.1 9.8-1.2 18.8-6 28.8-6 10.2-.4 19.6 4.4 29.6 5.6 3.2.2 6.4 1.3 9.6.6" class="b"/><path d="M8.4 225.6q4.5-.7 8.7-2c1.8 1.1 4 2.3 6.1 2.2 4.5-.6 7.8-4.3 11.4-6.7 1.7-1.5 4-2 6-2.8l3.6-1.5q1.6-.4 3.5-.2c3.2.2 6 2.2 8.7 3.8q3.2 1.6 7 2.3c6.9 1.2 14-.2 20.9-.7q8.8-1 17.4 1.7a7 7 0 0 1 2.6 1.5q2 1.6 4.4 2.2c4 .8 8.1.2 12.2.2 7.2-.3 14.5-1 21.7-1 10-.2 19.8.7 29.7 1 3.7-.2 7.5.4 11.3.1" class="b"/><path d="M8.4 222q3.1-.7 6.1-1.9c1.2.2 2.4 1.2 3.5 1.6 3 1.3 6.2.3 8.7-1.5 3.6-2.3 6.7-5.3 10.5-7.4 1.3-.8 3-1.2 4.3-1.6q3-1.2 6.1-1 2.8.2 5.3 1.3 2.1 1.1 4.3 2c4.7 2 9.9 2 14.9 1.6 8.6-.8 17.5-2.6 26.1-.4 2.8 2.2 5.4 4.8 8.7 6.1 2.7 1.2 5.8 1.3 8.7 1.3q1.4.4 2.6 0h3.5l18.3-.2c9.3-.2 18.6.2 28 .4h15.6" class="b"/><path d="M8.4 218.2c4.3-1.2 2.7-1.9 7 0 4 1.7 8-.1 11.3-2.5 3.2-2.2 6.2-4.7 9.6-6.5q2.8-1.5 6.1-2 3.9-1.3 7.9-.5c3.2.6 6.2 2.6 9.5 3 5.5 1 11.2.2 16.6-.6s11-1.5 16.6-1c5.6 4 11 9 18.3 9.6q2.2.3 4.3 0c1.1.4 2.3 1.1 3.5 1.2q1.5-.1 2.6-1 .8-.8 1.8-1l8.7-1.8q9-2 18.3-1c6.5.7 12.7 3 19.1 4.1 4.6.9 9.3.6 14 .6" class="b"/><path d="m8.4 214.3.9-.4c2.7 1 5.8 1.9 8.7 1.3 7.2-1.5 12.4-7.5 19.2-10.1l10.4-1.9q1.8 0 3.5.3c3.2.9 6.3 2.3 9.6 2.4 8.5.5 16.8-2.5 25.3-2.9 3.7 1.3 7 3.6 10.4 5.5a28 28 0 0 0 19.2 4.3c2.9 1 4.5 4.1 7.8 1.6 2.2-1.7 3.4-4.5 5.3-6.3a35 35 0 0 1 24.4-2.6c12 3.7 16.2 11.5 30.5 9.7" class="b"/><path d="M8.4 211.7c10.2 1.8 18.1-5.6 27-9l7.9-.4 5.2-.7 2.6-.6q.9.1 1.8.4 2.5 1 5.2 1.3 4.9.4 9.6-.6 5.3-1 10.4-2.2c1.8 0 3.6 1 5.3 1.5 10.2 3.8 21 10 32.2 6.5 1.3.4 2.4 1.8 3.5 2.5 3.3 2.7 5.5 1.3 7.8-1.6q2.7-3.6 5.3-7.4c1.1-1.4 2.4-3.3 4.3-3.4q4.8-.7 9.6-.6 6.5-.1 12.2 2.7c8.8 4.7 13.9 14.5 25.3 11.2" class="b"/><path d="M8.4 208.3c7.4-.4 14.2-3.5 21-6.1l4.3-1.5q1.8 0 3.5.2c5.5.6 11.2 1 16.6-.9 4.8 1.6 10 .6 14.8-.7l2.6-.6a75 75 0 0 1 8.7 2c11.4 3.3 24.1 7.4 35.7 2.5 2.6 1.7 4.6 5 7.9 5.2 5.9-.9 9-13 15.6-14.6 3.2-.3 6.5 0 9.6-.1 3 0 6-.3 8.8.4 6.6 2 10 8.8 15.6 12.5q5.1 3.3 10.5.6" class="b"/><path d="M8.4 204q8-1.2 15.7-3.3l6.1-1.4c1.1-.1 2.4-.6 3.5-.3 5.4 1.1 11 2.7 16.6 2.2 2 0 4-.9 6-1.3q2.3 0 4.4-.2c4.3-1 8.8 0 13 .6 11 2 22.2 4.1 33.2 2q2.7-.5 5.2-1.4c1.1-.3 2.4-1.2 3.5-1.1 2.5 1.8 4.7 4.7 7.9 5.2 6.3-.2 10.2-13.6 18.3-14.7 2.8-.3 5.8 0 8.7-.1q4.4-.2 8.7.2c6.6 2 9.3 9.6 14.8 13.2 3.4 2.2 6.5 1.5 9.6-.8" class="b"/><path d="M8.4 199.4q8.2-.9 16.6-1.6c2.8-.1 5.8-.6 8.7-.2a50 50 0 0 0 17.4 3c3.5-.3 7-1 10.5-1q7.5.2 14.8 1 7.8.7 15.7.6c7.7 0 15.7-.5 22.7-4 2.6 1.3 4.8 3.9 7.8 4.3 3.8.1 6.3-3.6 8.7-6 2-2.4 4.3-4.8 7-6.4 3.3-2.1 7.5-2.3 11.3-2.3 3.2 0 6.5 0 9.6.9 7.8 2.2 8.5 7.3 14 12 1.8 1.7 4.7 2.5 6.9 1q1.8.2 3.5.4" class="b"/><path d="M8.4 195.5q12.7-.1 25.3 1 2.6.2 5.2.9 3.5.6 7 .7 9.6-.1 19.2-.1 11.2.2 22.6-.1c6.1-.1 12.2.5 18.3 0q4.1-.5 7.9-2c1.5 0 2.9 1.2 4.3 1.7 8.4 3.3 13-11.7 24.4-13.2a23 23 0 0 1 21 6.1c3 2.6 5.8 5.7 9.5 7 3.4 1.2 7 .2 10.5 0" class="b"/><path d="M8.4 192.8c9.3.4 18.6 1.6 28 1.8q4.6 0 9.5-.3c2.3-.2 4.7-.6 7-.4q4.3.4 8.7.4 2.6-.1 5.2 0 4 .6 7.9 0c2-.3 4-1 6-1.2q9.2-1 18.4.2c4.9.6 9.8 1.8 14.8 1 3 .8 6.2-.2 8.7-2 3.3-2.5 6.2-5.7 9.6-8a22 22 0 0 1 16.5-3.2c8.7 1.5 12.3 9 19.2 12.8a8 8 0 0 0 5.2.4q1.8.6 3.5-.2c1.3-.5 2.4-1.7 3.5-2.4l3.5-.8" class="b"/><path d="M8.4 190.6q10 .7 20 .4l5.3-.2q2.6.4 5.2.3c4.1-.4 8.1-1.9 12.2-2q2.2.1 4.4.5a48 48 0 0 0 10.4-.2c2 .3 4.1 1 6.1 1.2 7 1.4 14-.5 21-.7q5.2-.1 10.4.7c3.8.5 7.7.9 11.4-.2 4.2 1.4 7.1.7 10.4-2.4 8.1-7.7 11-13.4 23.5-10 3.8 1 6.9 3.7 9.6 6.4 2.4 2.3 4.7 5 7.9 6.4q1.7.6 3.5 0 1.2.4 2.6.2 1.4-.4 2.6-1.2c4-2.8 3-4.4 8.7-5" class="b"/><path d="M8.4 187.6q10.5-.2 21-1.1c8.4 2.7 12.1 0 20-1.6 3.1-.6 6.4.3 9.6 0q2.6 0 5.2-.5l3.5.8c3.7 1 7.5 2 11.3 2.2 4.6.4 9.3.2 14 .2 5.8 0 11.8.5 17.4-1.3 2.1-.6 4-2 6-2.6 2.6 1.4 5 3.5 8 4 3.3.2 6.1-2.4 8.6-4.3q3.6-3.2 7.9-5a15 15 0 0 1 13 .7q2.9 1.6 5.3 3.7c1.6 1.5 3.2 3.3 5.2 4.3 6.5 3 9.3-6.5 19.2-7" class="b"/><path d="m8.4 182.6 15.7-1.2q1.8.4 3.5 1c10.1 3.4 12.3 1.3 21.8-1.3 2.5-.7 5.2-.3 7.8-.5 3.5-.7 7 .5 10.5 1.1q12 2.8 24.4 2.3c10 0 17.9-2.3 26.1-8 1.4.3 2.5 1.6 3.5 2.4 2.4 2 4.9 4.3 7.9 5.3 6 2.1 11.9-4.2 20-2.7 3.3.4 6.4 2 9.6 2.9q2.6.7 5.2-.2c5.8 2.6 10.2-7.1 19.2-7.2" class="b"/><path d="M8.4 178q9.6-3.1 19.2.4c3.4 1 6.9 2.4 10.5 2.3 3.6 0 7-1.5 10.4-2.6q7-.6 14 .2c7.7 1.1 15.6 2.1 23.5 2a55 55 0 0 0 29.6-8l3.5-2c.7-.4 1.7-1.1 2.6-1 5.3 3.4 9.5 8.6 15.7 10.5 4.5 1.2 9.3 1 14 .9q3 0 6-.9c.8-.2 2-.7 2.6-1 .4-.4 1.3-.7 1.8-.6 8.1 7.5 11.5-4.2 21.8-4.2" class="b"/><path d="M8.4 174.5c8.7-3.4 15.1-2.3 23.6 1 3 1 6.3 2 9.5 1.7q3.2-.6 6.1-1.6 4 .4 7.9.3c9 .3 18 1.3 27 1a59 59 0 0 0 17.4-2.4c7.8-2.7 15-6.8 22.7-10q1.2-.6 2.6-.7 2.8 1.2 5.2 2.8c9 6 17.5 9.6 28 4.4 1 .2 1.8 1.4 2.5 2q2 2 4.4 3.4c5.9 3.2 10.3-4.3 18.3-4.2" class="b"/><path d="M8.4 170.7c10-4.4 16.5-3.3 26.2 1 2.7 1.2 5.7 2.3 8.7 2l3.5-.5q3 .3 6 .4l14.9.2c7.2 0 14.5.3 21.8-.5q6.8-.8 13-3.5l8.8-4 7.8-3.1q5-2.4 10.5-3.2 3 .5 6 1.7c4.8 1.7 9.8 3.4 14.9 3 1.7 0 3.5-.6 5.2-.5 3.3 2.5 6.1 5.9 9.6 8.3q4 2.9 8.7 1c3-1 6.3-2.2 9.6-2.2" class="b"/><path d="M8.4 166.8c8.4-4.4 15.7-5.4 24.4-1.2 3.7 1.7 7.3 4 11.4 4.7 5.4.2 11-.3 16.5-.3q8.2-.4 16.6 0c6.7.4 13.6.8 20-1.3q6.3-2.1 12.2-5c2.8-1.2 5.9-1.9 8.7-3 7-3.2 14.9-5.9 22.7-4.4q4.7.7 9.6.8c5.8 1.6 10 6.4 14.8 10 7.1 5.6 10.5 2.2 18.3 2" class="b"/><path d="M8.4 162.6c5.7-3.4 12.5-6 19.2-4.5q1.8.3 3.5 1c1.6.8 3 2.4 4.3 3.4 2.5 2 5.4 4.1 8.8 4.4 1 0 2.3-.3 3.4 0 2.7.2 5.4-1 7.9-1.7q7.8-.8 15.7-.5c7.8.3 15.6 3 23.5 1.9 4.9-.8 9.4-2.8 14-4.6 3-1.2 6.4-1.8 9.5-3 3.5-1.3 7-3 10.5-4.1q5.1-1.7 10.5-2c8.6-.6 15.7 1 22.6 6.3 3.3 2.4 6.6 5.3 10.5 6.8 3.6 1.4 7.5.7 11.3.8" class="b"/><path d="M8.4 158.3c4.5-2.9 9.4-5.7 14.8-6 2 0 4.6-.4 6.1 1.3 3.6 2.9 6.4 6.8 10.5 9a8 8 0 0 0 7 0c3.3 1 5.4 1.2 8.7-.1q3.2-1.4 6-3.5a54 54 0 0 1 21 2.3c4.8 1.2 9.8 2.6 14.8 2 4.5-.5 8.8-2.2 13-3.3 3-.8 6-1 8.8-2 6.4-2.4 12.4-6.2 19.2-7.3a35 35 0 0 1 28.7 7c5.8 4 9.5 5.8 16.6 5.6" class="b"/><path d="M8.4 154c5-3.9 11-7 17.5-6.8 3.4 2 6 5.1 8.7 8 1.7 1.7 3.6 3.7 6 4.5q2.4.6 4.4-.5c.8-.3 1.8-1 2.6-1.1 5.1 3.5 9.4 1.3 14-1.8L65 154q.7-.7 1.7-.6 5.8 0 11.3 1.5c6.2 1.4 12 4.2 18.3 5 4.7.6 9.4-.5 14-1.3 2.2-.4 4.7-.4 7-.9q3.5-.7 7-2.2c4.6-2 9-4.7 13.9-6.2 8.8-3 18.8-2 27 2.6 6.3 3.4 10.6 7.4 18.3 7.2" class="b"/><path d="M8.4 149.4c3.6-2.8 7.7-5.4 12.2-6.3l3.5-.5 1.7.8c5.3 2.9 8.3 8.6 13.1 12 3 2.2 6.2.4 8.7-1.5h1c1.8 1.5 4.3 3 6.9 2.5 4.2-1 7.6-4 11.3-6.2 1-.6 2.3-1.5 3.5-1.7q2.2.1 4.4.5c7.5 1.1 14.4 4.5 21.7 6.4a47 47 0 0 0 14.9.9c4.6-.1 9.5-.2 14-1.9 5.3-2 10.2-5.2 15.6-7.2a32 32 0 0 1 25.3 1c3.5 1.5 6.9 3.8 10.4 5.3q3.4 1.3 7 1.2" class="b"/><path d="M8.4 145c4-3.3 8.7-6 14-6.3 3.8.4 7 3 9.6 5.8 3 2.9 6 8 10.4 8.5 2.3 0 4.3-1.6 6.1-2.8h.9c4.8 4.4 8 2.9 13-.2 3.3-2 6.8-4 10.5-5.1 1.4-.2 3 .2 4.4.3 6.8 1 13.3 3.8 20 5.7a61 61 0 0 0 17.4 2c4.4 0 8.9.5 13.1-.8 5.2-1.5 9.8-4.6 14.8-6.6 8-3.5 16.4-3.6 24.4-.3 3.3 1.3 6.4 3.3 9.6 4.7q3.4 1.1 7 1.1" class="b"/><path d="M8.4 140.6c9.7-7.8 17.8-7.4 26.2 2 2.7 2.7 5.4 6.7 9.6 7 2.2-.2 4.2-1.5 6-2.5 4.1 3.7 7 2.6 11.4 0a30 30 0 0 1 14.8-5q6.2.4 12.2 2c6.9 1.7 13.8 3.8 21 4.3 2.8.2 5.8 0 8.6.3 3.2.3 6.4 1 9.6.8 8.1-.7 14.8-6.2 22.7-7.8q1.3.2 2.6.6l4.4 1.6c4.2 1.4 8.6 2.5 13 2.4l3.5-.2 2.6 1.2q3.4 1 7 .8" class="b"/><path d="M8.4 136.5c3-2.3 6.6-4.3 10.5-4.8 4.1-.4 8.6.4 12.2 2.6 5.1 3.2 8.3 9 14 11.3 2.2 1 4.7.2 6.9-.4 4.3 2.8 8.1-2 12.2-2.8q9-2.3 18.3-1.7c3.5 1 7 2.5 10.4 3.5 6 1.8 12.2 2 18.3 1.5q2.3-.2 4.4-1.2c1-.5 2.4-.1 3.5 0l6.1 1.1c6 1.3 11.8-.5 17.4-2.7q2.2-.7 4.4-1.3l3.5 1.2c4.8 1.6 9.7 2.9 14.8 3.1q6.5.3 13-.2 2.7.1 5.3.1" class="b"/><path d="M8.4 132.7a21 21 0 0 1 15.7-4.6q7.9 0 14 5.1c3.6 2.9 6.8 6.6 11.3 8.4 1.3.4 3 .9 4.3 1h2.6q5.7 0 11.4-1 9-1.7 18.3-2c2.8 1 5.7 2.3 8.7 2.8 3.7.6 7.6-.1 11.3-.2 3-.2 5.8.3 8.7.4 2.4 0 4.7-.7 7-1.1l4.4.7c5.2 1 10.5 0 15.7-1.2 1.4-.2 3 .4 4.3.6q3 .7 6.1 1c4.4.3 8.8-.6 13-1.4 3 .4 5.9 1.4 8.8 1.4 3.2 0 6.4-.6 9.6-.3" class="b"/><path d="M8.4 130.4c2.8-3 6.3-5.5 10.5-5.8q5.6-.5 11.3-.1c6.4 0 10.8 4 14.8 8.5 2 2.1 4.2 4.7 7 5.9 2.6 1 4.7-1 7-1.8 9.7 3 18 1.9 27.9 1.2 1 0 2.4-.3 3.4 0q3 1 6.1.8 3.6-.2 7-1l6.1.1h3.5q3.3 1 7 1l3.5-.3q3 .3 6 .2c3 0 5.9-.7 8.8-.3 3.7.3 7.6.6 11.3 0l4.4-1a6 6 0 0 1 3.5-.2c4.3.6 8.6 1.8 13 1.5 2.4-.1 4.7-1 7-1.5q3-.6 6.1-.3" class="b"/><path d="M8.4 127.2c6.3-7.4 9.5-6.2 18.3-6.3 6.7-.2 10.9.5 15.7 5.4 2 2 4 4.5 6.1 6.5 2.1 2.1 4.9 3.8 7.8 2.3q2.7-1.4 5.3-3 1.2-.8 2.6-1.1 7.5 3.5 15.7 4.4c9 .7 18 0 27 .2h22.7q5.6.2 11.3-.1 3-.3 6-1.2 1.4-.6 2.7-.8l2.6.3c6.6.8 13.5 3.2 20 .8q2.7-1 5.3-1.9 3-.7 6-.3" class="b"/><path d="M8.4 123.2c2.4-2.9 5.6-6 9.6-5.8h10.5c11.5-.8 13.7 4.8 20.9 12 3.6 3.6 6.3 3.5 10.5.8 3-1.8 6-3.7 9.5-4.6 2.7 1 5.2 2.5 7.9 3.3a48 48 0 0 0 16.5 3c2 .2 4.1.5 6.1.1q10-.1 20-.1c6.7.4 13.5.5 20.1-.6a34 34 0 0 0 7-2.3c3.5.2 7 1.3 10.4 2.1 14.7 4 16-4.6 26.2-3" class="b"/><path d="M8.4 118.8c1.8-2.1 4-4.5 7-4.8h12.2q4-.2 7.8.1c5.8.9 9.4 6 13.1 10 4 4.2 6.8 6.3 12.2 2.8 4.3-2.5 8.8-5.9 14-5.7Q80 124 86 125.6q3.3.9 7 1.3a19 19 0 0 0 7 1.8c4 .2 8-1.4 12.1-1.2 1.7.1 3.5.6 5.2.7q4.9.5 9.6.3c6 0 12-.6 17.5-3 3.6-1.7 3-1.7 7-.4q4.7 1.7 9.5 3.1c10 2.7 13.9-5.4 22.7-4" class="b"/><path d="M8.4 114.1c3.3-3.4 5-3.8 9.6-3.6h10.5c2.8 0 5.8-.2 8.7.2 6.6 1.5 10 8 14.8 12.2 4.8 4.6 8.6 1.4 13-1.6 3.4-2.4 7.2-4.4 11.4-4.9 4.2 1.9 8.5 3.8 13 4.7 1.8.4 3.8.3 5.3 1.2 3.2 1.8 6.8 3.1 10.5 3 2.8-.1 5.8-.6 8.7-.5q9.5.7 19.1-.2a39 39 0 0 0 14-4.3q1.2-.8 2.6-1.1c8.6 3.2 14 9 23.5 4.2a18 18 0 0 1 10.5-2.4" class="b"/><path d="M8.4 109.6c1.2-1.1 2.7-2.2 4.4-2.5q3.5-.2 7 0h15.6c9-.4 12.9 9.1 19.2 13.6 4 3 8.2-.8 11.3-3.3 3.1-2.3 6.5-5 10.5-5.6 6.5 3.2 12.8 5 20 5.3 3 2 6.1 3.8 9.6 4.4q3.5.5 7 .3h8.7a53 53 0 0 0 28.8-6.5l.8-.5h.9l5.2 3c5.8 3.7 10 5.5 16.6 2.4 3-1.3 6.3-2.3 9.6-2" class="b"/><path d="M8.4 105.2c2.1-1.6 4.4-1.7 7-1.6h17.4c2.6 0 5.4-.3 7.9.7 8 2.7 13.8 17.8 20.9 13.1 3.2-2 5.7-5 8.7-7.3 1.3-.9 2.7-2.2 4.3-2.4a47 47 0 0 0 22.7 5q1.3-.1 2.6 0c8.8 6.7 13.3 5.4 23.5 5.7a58 58 0 0 0 31.4-7.5c6 3.9 11.5 9.6 19.2 6.6 3-1 6.3-2 9.6-2" class="b"/><path d="M8.4 101.2q2.9-1.4 6.1-1h5.3q8.6 0 17.4 0c10.8 0 16.6 17.2 23.5 14.3 4.5-2.3 7-7.4 11.3-10.1a40 40 0 0 0 30.5 3.8c1 .3 1.9 1.2 2.7 1.7q2.4 1.9 5.2 3 3.3 1.3 7 1.4 3.8.4 7.8.6a66 66 0 0 0 28.8-5.2c1.4-.5 2.8-1.4 4.3-1.6 4.9 3.7 10 8.3 16.6 6.3q4.3-1.1 8.7-1.6" class="b"/><path d="M8.4 97.4q2.5-.7 5.3-.7h7.8q7.9-.1 15.7 0c11 .6 16.3 15.5 22.6 14.6 4.4-1.5 6.2-6.4 9.6-9a39 39 0 0 0 33.1 2.9c1.1-.3 2.4-1.1 3.5-.8 2.1 1.7 4.4 3.5 7 4.6a81.1 81.1 0 0 0 48.8-3.2c9 7.6 11.2 5.7 21.8 4.2" class="b"/><path d="M8.4 95q9-2.2 18.3-1.8c3.8 0 7.6-.2 11.4.5 4.8.9 8.8 4.2 12.1 7.7 2.2 2.1 4.3 4.7 7 6.2 4 1.6 6.6-3.6 8.7-6l.9-.3a41 41 0 0 0 27.9 4q6.8-1.7 13-4.7c1 .2 2 1.2 2.7 1.8a21 21 0 0 0 3.5 2.3c6.5 3 13.8 3.2 20.9 3.2 10.2 0 20.8-.2 30.5-3.8 7 5 10.3 4 18.3 2.8" class="b"/><path d="M8.4 94A64 64 0 0 1 26 90.4c4.6-.2 9.4-.2 13.9 1.3 6 2 10 7.3 14.8 11.3 4 3.3 6 .8 8.7-2.4a42 42 0 0 0 17.5 3.8q6.5.1 13-.6 5-.8 9.6-2.9l4.4-2q1.1-.8 2.6-1c7.8 7.6 19.5 6.5 29.6 6.7 9.6-.2 19.5.7 28.8-2.1 4.4 2.9 9.9 2.2 14.8 1.2" class="b"/><path d="M8.4 94c6.8-2.5 13.6-5.7 21-5.8l4.3.1a33 33 0 0 1 6.1 2.5q4.8 2.7 9.6 5.2c2.8 2.3 6.8 7.3 10.5 3.7 2.8.6 5.7 1.3 8.7 1.3 5.2 0 10.4-.8 15.7-.5 7.5.3 13.7 1.6 20.9-1.8l4.3-2q1.3-.8 2.7-1c5 4.8 12.5 5.2 19.1 5.3H148c5.8-.2 11.6.2 17.4 0 2 0 4.1-.7 6.1-.8 4 1.5 8.3.7 12.2-.3" class="b"/><path d="M8.4 94c6.2-1.9 12-5.3 18.3-6.5 1.7-.2 3.6-.7 5.3.1 5.4 2.2 10.2 5.8 15.6 8q3.9 1.4 7.9 2c1-.3 2.4 0 3.5 0q3 0 6-.6c5.8-1.2 11.6-3 17.5-2.7 3.5.1 7 1 10.5 1.9 3.3.9 7 1.7 10.4 1.2s6.5-2 9.6-3.3c4.6 3 8.6 3.5 14 3.5h13c6.1 0 12.2-.6 18.3-.5 4.7 0 9.3.7 14 .3 3.8.6 7.7-.6 11.3-1.8" class="b"/><path d="M8.4 93.1c5.1-.9 10-3.2 14.8-4.8q3-1 6.1-1.5c1.5.2 3 1 4.4 1.6 4.5 2 9 4.8 14 5.5q6.6.7 13-1.2c4.7-1.4 9.2-3.5 14-4.6 9.7-2.2 16.5 1.2 25.2 4.7 5 2 9 1.4 14 0 2.6 1.4 5.8 1.4 8.7 1.2l7.8-.3q6.6.2 13 .4 5.8 0 11.4-.4 4.4-.3 8.7 0 4.4.5 8.8.4c4-.5 7.7-2.2 11.3-4" class="b"/><path d="M8.4 90.6c7 .1 13.3-2.8 20-3.9l2.7-.2 2.6.9 6 2.2q4.4 1.3 8.8.9 1.8.3 3.5-.2c2.2-1 4.7-1.2 7-2.1 3.8-1.4 7.5-3.3 11.3-4.7a30 30 0 0 1 25.3 1.3c7.5 3.7 12 6.7 20.9 5.7 3.1-.6 6.3-1.6 9.6-1.8 5-.5 9.9.3 14.8 1q9 1.3 18.3.8 5.2.2 10.4 0a13 13 0 0 0 8.8-3.8l5.2-3" class="b"/><path d="M8.4 86.7c6.4 1 12.8 0 19.2-.5a48 48 0 0 1 8.7.1q2.2.4 4.4.7 3 .4 6-.1l5.3-1.6c6.5-1.5 12.1-5.1 18.3-7.4 9-3.4 18.7-2.5 27 2.3 3.5 1.8 6.8 4 10.5 5.4 1.1.4 2.2 1.4 3.5 1.5h6.1c4.3 0 8.3-2 12.2-4 4.4 0 8.7 1 13 1.8q9 2 18.3 2 1.8-.1 3.5.2 2.3.2 4.4-.7c2.4-.7 5-1.4 7-3l2.6-2.2 5.2-3.1" class="b"/><path d="M8.4 82.5q5.2.6 10.5 1 7 .3 14 .2l4.3-.2q2.2.3 4.3.1 4.1-.4 7.9-2 3.9-1.4 7.8-3 4.8-2.4 9.6-4.6 8-3.4 16.6-2.8c6 .3 11.5 2.7 16.5 5.8l4.4 2.6c1.2 1 2.2 2.4 3.5 3.2 1.5 1.1 3.6 1 5.2.3q3 .5 6.1.6c3.7-.1 7.2-1.7 10.5-3.2l5.2-2.3q2.2 0 4.4.4c4.9.7 9.8 1.8 14.8 2.4 1 .1 2.4 0 3.5.5 1.9 1 4 2 6 2.2 3.6.3 6.8-2 9.7-3.8q5-3.5 10.4-6.5" class="b"/><path d="M8.4 79.1q2.2-.4 4.4-.5l9.6.5 6-.1c3.2.5 6.4 1.2 9.7 1.2 6.2 0 11.7-3.4 17.4-5.6 4-1.9 8-4.2 12.2-5.6a37 37 0 0 1 19.2-1.5 42 42 0 0 1 14.8 6.9c1 .5 1.8 2 2.6 2.7a9 9 0 0 0 4.4 3q1.7.3 3.4-.5 2.3.2 4.4.5c6.3 1 11.9-2.7 17.4-5.1q3-1.4 6.1-1.8l4.4.2c2.3.3 4.8.1 7 1.2 4.7 1.8 9.5 6.4 14.8 5.5 2.6-.6 4.8-2.2 7-3.7 3.4-2.3 6.8-5 10.4-7" class="b"/><path d="M8.4 75.4Q16.7 74 25 75c5.7.9 11.7 2.7 17.4.9q4.6-1.5 8.7-3.7 5.7-2.7 11.3-5.5c8-4 17.6-4.8 26.2-2.4 4.4 1.3 8.4 3.9 12.2 6.4 2 1.8 3.5 4.4 6 5.5 1.8.9 3.6.2 5.3 0l2.6.3c9.5 1.5 15.2-5.3 23.6-7.6 14.7-4.2 21.1 9.9 29.6 7.4 5.8-2.3 10.3-7.3 15.7-10.4" class="b"/><path d="M8.4 71.3a57 57 0 0 1 16.6.2c5.4.9 11 2.7 16.5 1.2 3.4-.8 6.6-2.5 9.6-4 4.7-2.3 9.2-5 14-7 8.5-3 18.8-3.1 27 1q4.5 2.6 8.7 5.6c1.3 1.3 2.8 2.9 4.4 3.8q2 1.3 4.3 1.2 1.8-.4 3.5 0c12.3 1.3 17.5-8.9 28.8-10.2 13.4-1.7 19.2 11.4 27 10 5.7-1.7 9.8-6.8 14.8-10" class="b"/><path d="M8.4 67.8c2-.3 4.1-1 6.1-1.1q5.7 0 11.4 1.2c4.8.9 9.8 2.5 14.8 1.7 3.7-.6 7.1-2.3 10.4-4.1 5.5-2.8 10.7-6.4 16.6-8 7.1-1.9 15-1.8 21.8 1.4 5 2.4 9.2 6.1 14 9a12 12 0 0 0 7.8 2q5 0 9.5-1.7 4.9-2.3 9.6-4.6c4.8-2.3 9.7-4.7 14.9-6 12.5 0 17.9 13.3 25.2 12.1 5.3-1.5 8.8-6 13.1-9.2" class="b"/><path d="m8.4 64.9 5.3-1.4c1-.3 2.3-1 3.4-1q6.6.5 13.1 2.3c5.1 1.4 10.6 2.4 15.7.4C54.6 62 61.8 55 71.2 53.6c21.1-3 24.8 12.7 37.4 12.8 5.6 0 11.4 0 16.6-2.4 7.8-3.3 14.3-9.4 22.7-11.3 11.8 0 17.2 14.5 24.4 13.6 4.6-1 7.7-5.2 11.3-8" class="b"/><path d="M8.4 62q5-1 9.6-3.2c.8-.5 1.8-.3 2.6-.2l4.4.8c5.2 1 10.3 3 15.7 3.5 8.2.5 14.8-5.4 21.8-9q5.7-3 12.2-3.4A28 28 0 0 1 93 56.7c3.2 2.3 6.5 5 10.4 6q2.7.5 5.2-.1l4.4.3c4.4 0 9 .3 13-1.3 8.2-3.3 14-11 22.7-12.8 5.3-1.4 10.5 2.2 14 5.8 3 2.8 5.5 6.8 9.6 8.2 4.6.8 8-4 11.3-6.7" class="b"/><path d="M8.4 59q6-1.1 11.4-3.8c1.5-1 3.5-.3 5.2-.1 4.7.8 9.3 2.4 14 3.5 4.2 1.2 9 1 13-.9 6-2.7 11-7.2 17.4-8.9l3.5-.7q1.4.2 2.6.7c6.7 2.5 13.2 5.9 20 7.8 2.3 1.1 4.5 2.6 7 2.8 1.8.2 3.6-.5 5.3-.6 3.4.3 7 0 10.4.4 2.9.2 6 .5 8.7-.4 9-3 14.5-13 24.4-14 12-1.7 14.5 11.4 22.7 14.5 4 .7 7-3.2 9.6-5.5" class="b"/><path d="M8.4 55.8a39 39 0 0 0 14-4.3q1.2-.8 2.6-.5 6.6.9 13 3c5.6 1.8 11.1 3.1 16.6.3 4.2-2 8-5 12.2-6.6 6.3 2.3 12.6 4.8 19.2 6A74 74 0 0 0 97.3 55l2.6.8c2 .5 4.2-.1 6.1-.7l5.2-.1q4-.5 7.9 0c2.8.5 5.8 1.3 8.7.8 7.4-1.8 11.7-9 18.3-12.4q4.5-2.3 9.6-2.2 3.9-.2 7 2.4c4.2 3 8.7 12.5 13.9 12.4 2.9-.4 5-2.9 7-4.8" class="b"/><path d="M8.4 52.4q6.3-.5 12.2-2.6l4.4-1.5c1-.3 2.3-1 3.5-.8q6.6.9 13 3c4 1.2 8.1 2.7 12.2 1.6q3.3-.9 6.1-2.7c2-1.2 2.2-1.5 4.4-.5 7 2.7 14.4 3.6 21.8 3.6l13-.1c2.4.4 4.7-.5 7-.6 4.4-.4 8.8-1.8 13.1-1 2.6.4 5.2 1.4 7.8 1.7 10.4.6 15-14 28.8-14.6 1.7 0 3.6-.4 5.2.3 4.3 1.8 6.7 6.1 9.6 9.5 4.9 6.2 7.8 6.3 13 .5" class="b"/><path d="M8.4 49c6.2-.3 12.3-1.8 18.3-3q4.8-1.2 9.6-1.4l4.4 1c4.8 1.3 9.7 4.2 14.8 3.2L58 48c1.7 0 3.5.7 5.2.8 6.4.8 12.8-1 19.2-1 6.4-.2 12.8 1.4 19.2 1.2q4.8-.3 9.6-1.6c2.2-.5 4.6-1.1 7-.8 4.9.4 9.8 4 14.8 1.6 6.3-3 10.7-9.2 17.4-11.6q5.9-2.2 12.2-1.4c5.1 3.2 7.3 9.6 12.2 13 2.9 2.1 5.9-.6 7.8-2.7l.9.4" class="b"/><path d="M8.4 45.4c7.9-.4 15.7-1.8 23.6-1.8 7-.2 13.9 1.4 20.9 2 8.2.7 15.6-3.8 23.5-4.8a34 34 0 0 1 15.7 2c2 .5 4 1.7 6 2.3 2.6.7 5.4.5 8 .3 4.6-.5 9.1-3 13.9-2 2.9.5 5.7 1.8 8.7 2.1 7 .6 11.9-5.5 17.4-8.6a23 23 0 0 1 18.3-2.8c1.1.1 2 1.3 2.6 2l2.6 3.5c2 2.3 3.8 5.5 7 6 1.2 0 2.4-.9 3.5-1.4q1.7.6 3.5 1" class="b"/><path d="M8.4 42a71 71 0 0 0 8.7-1l8.8.1c7.2.1 14.5 1.5 21.7.8l4.4-.6c4 1.6 7.7.5 11.3-1.5 8.1-4.8 15.1-8 24.4-4.1 4 1.5 7.5 3.9 11.4 5.4q3 1.1 6 1 2.3 0 4.4-.2c2.6-.3 5.2-1.1 7.9-1.2 5.5 0 11.1 2.7 16.5.5 3.7-1.3 7-3.6 10.5-5.4a23 23 0 0 1 17.4-2.7q3.2 1 6.1 2.8c2.3 2 3.8 5.4 7 6.2l2.6-.3q3 .6 6-.1" class="b"/><path d="M8.4 37.4q4.7 1.2 9.6 1.2 2.2 0 4.4-.5 1.2-.4 2.6-.2c8.5 1 15.2 1.4 23.5-1.4 6.2 2.3 8.8 3.4 14.8-.2 9.1-5.8 16.3-9.6 27-5.2 6 2.3 11 6.7 17.5 7.4 3.7.5 7.6-.2 11.3-.2 3.8.1 7.6.7 11.3 0 7-1.3 13-5.8 20-6.8 7.6-1.3 15 2.3 21 6.6a4 4 0 0 0 2.6.5c3.3.4 6.4-1.4 9.6-2.1" class="b"/><path d="M8.4 32.6q4 .4 7.9 1 2.5 1 5.2 1.4c2.3.5 4.7-.2 7 0q8.1.8 15.6-2.6c4.5-.3 8.6 3.2 13.1 2.7 3.6-.4 6.7-2.8 9.6-4.8 3.2-2.2 6.7-4.4 10.5-5.6a24 24 0 0 1 12.2-.3c7.1 3.1 12.8 9.8 20.9 10.6 2.9.3 5.8 0 8.7.1 3.5 0 7 .2 10.5-.4 5.4-.9 10.4-3.3 15.7-4.6q7-1.7 13.9.4 4.5 1.5 8.7 3.5 1.6 1.2 3.5 1.1 1.7.1 3.5-.2c2.9-1 5.7-2.5 8.7-3" class="b"/><path d="M8.4 29c7.6.8 15 3 22.7 2.6q3-.3 6-1.3c1.2-.3 2.4-1 3.6-1q4-.4 7.8.5c2.3.5 4.6 1.5 7 1.9 4.4.4 8-2.7 11.3-5.2q4-3.5 8.7-5.9c2.7-1.2 5.8-2.2 8.7-2 4.9 1.1 9.1 4 13.1 6.9 7.8 5.7 11.4 6.5 21 6.2 3.1.1 6.4-.2 9.5 0q1.4-.1 2.6-.7 5.3-1.2 10.5-2.7a32 32 0 0 1 22.7 1.5c1.3.7 2.7 1.8 4.3 2 1.4-.3 3 0 4.4 0q2.8-.5 5.2-1.7 3-1.3 6.1-1.5" class="b"/><path d="M8.4 26c5.5.6 11 1.7 16.6 2.2h7.8c3-.5 5.8-1.5 8.7-1.8q3.5-.6 7 .1c2.3.5 4.6 1.4 7 1.7 7 .8 13-8.5 19.2-11.6q2.8-1.7 6-2.3c5.2.8 9.8 3.5 14 6.6 11.1 8.5 13.7 7.3 27 7.3q4 0 7.8-.6 1.8.6 3.5.6c3-.2 5.2-2.4 7.9-3a37 37 0 0 1 16.5-.1c2.7.8 5 3.2 7.9 3.1l1.7-.3c1.4 0 3 .4 4.4.3q3-.2 6-1.3 3.1-.8 6.2-.6" class="b"/><path d="M8.4 23.2c7.6.7 15.1 2 22.7 1.4 3.8.7 7.6-.9 11.3-1.3q3.5-.6 7 .1 3 .7 6 1.3c7.2.7 12.1-7.5 17.5-11.1 1.8-1.2 3.9-2.8 6.1-2.9q5.6 1.1 10.5 4.4c5.3 3.4 10 8.4 16.5 9.4 3.5.5 7 .1 10.5.2q8.3.4 16.6-1.1c2.7 1.6 5.7 1.3 8.7.3 2.8-.8 5.7-1.7 8.7-1.6q3.5.3 7 1.5c2.2.7 4.7 1.4 7 .6 1-.8 2.3-.2 3.4 0q2.2.3 4.4.4 2.6-.1 5.2-.6 3-.4 6.1 0" class="b"/></svg>