<svg xmlns="http://www.w3.org/2000/svg" id="a" width="1920" height="2400" viewBox="0 0 192 240"><defs><style>.b{fill:none;stroke:#fff;stroke-miterlimit:10;stroke-width:.3px}</style></defs><path d="M0 0h192v240H0z" style="stroke-width:0"/><path d="M9.7 231.9h172.6M9.7 227.2h172.6M9.7 222.5h172.6M9.7 217.9h14.6c2.2-.6 4.6-.4 6.9-.5h9.4c13.5 0 27 .5 40.4.4 4.2-.2 8.6.3 12.9-.2 5.3-.6 10.8-1.2 16.3-.9q3.8.3 7.7.7l11.2.1a783 783 0 0 0 38.6-.2l1.7.6h12.9M9.7 213.2h14.6c1.8-.3 3.5-1.3 5.2-1.9l5.1-.3q9.5-.5 19 1 5 0 10.2.3 10.7 1 21.5.8c2.5-.1 5.2.3 7.7-.3 6.2-1.1 12.6-2 18.9-1.7q7.2.6 14.6.8c3.7 0 7.4.5 11.1.4q13 .1 25.8-1.1c2.1-.3 4 1.6 6 2h12.9M9.7 208.6H20c2-.1 4.2.3 6-.5 2.4-.8 4.7-2.2 7-3.3q8.5-1.6 17 0 1.8.4 3.5.7h2.6q3.4 0 6.9.5 8.5 1.2 17.1 1.5c3.7 0 7.5.7 11.2 0a84 84 0 0 1 26.6-2.2h11.2q3 .3 6 .5a163 163 0 0 0 25.7-1q2.8.8 5.2 2c1 .6 2.2 1.5 3.4 1.8h12.9" class="b"/><path d="M9.7 203.9h9.5q3 .2 6-.1c4-1.2 7.6-3.5 11.1-5.7 5.1-1 10.4-1.4 15.5-.2q2.2.5 4.3.2a49 49 0 0 1 12 1.1l11.2.7c2.8.1 5.7.7 8.5.9 3.2 0 6.4-.9 9.5-1.5a65 65 0 0 1 19.7-1.9c4.3 0 8.6-.5 12.9-.2a99 99 0 0 0 24 2.1c1.4 0 3-.4 4.3 0 16.8 5.7 3.7 4.5 24 4.6" class="b"/><path d="M9.7 199.2q7.8.2 15.5-.1c5.3-1.4 10-4.4 14.6-7.3q4.6-1 9.4-1.1 2.6.1 5.2.5 3.8-.2 7.7-.2l6.9.2q3.8-.3 7.7-.4t7.7.5c2.3.3 4.6 1.1 6.9 1 5.8-.2 11.4-1.8 17.2-2.2a63 63 0 0 1 8.5 0q4.8-.7 9.5-1 2.6-.3 5.1 0c2.6.6 5.2 1.6 7.8 2.2q4.5 1.1 9.4 1.6c2 .3 4.1 0 6 .5l9.4 3.7c1.7.6 3.4 1.7 5.2 2.1h12.9" class="b"/><path d="M9.7 194.6q7.8 0 15.5-.1a57 57 0 0 0 15.4-6.6l2.6-1.4 6.9-.9c3.7-.3 7.4.2 11.1-.1 3.8-.3 7.7-.5 11.2-1.8 5-1.7 10.2-3.5 15.4-2.1 2 .5 4 1.5 6 1.8 5.4 1 11 .5 16.4.9l6 .3q3.9-.4 7.7-1.2c3.4-.6 6.9-2.2 10.3-1q5.5 2 11.2 3.4l5.1 1 2.6 1.3q5 2.4 10.3 4.3 3 1.2 6 2.2h12.9" class="b"/><path d="M9.7 190h14.6c6.5-1.1 12.8-3.5 19-6 1.5-.6 3.3-1.4 5-1.4q3.5-.4 7-.7c2.2.1 4.5.7 6.8.6q5.9-.1 11.2-2.8c3.7-2.2 7.1-5 11.1-6.5 2.4-1 5.3-1.2 7.7-.1q3 2 6 3.3 7.2 2.8 14.7 4c3 .5 6.4 0 9.4-.7q2.6-.6 5.1-1.8c1.7-.7 3.4-1.7 5.2-1.9 2-.2 4 .5 6 1l7.7 2.4c1.6.3 3 1.6 4.3 2.4a57 57 0 0 0 19 8.1h12.8" class="b"/><path d="m9.7 185.3 15.5-.1q10.8-2 21.4-4.3 3.8-1 7.8-1.2c1.7-.1 3.5.7 5.1 1.2q3 .7 6 .6c6.5-.1 11.7-3.8 16.3-8 2.6-2.2 5.3-4.7 8.6-5.7 3-.9 5.5 1.5 7.7 3.2q3 2 6 3.7a24 24 0 0 0 20.7 1c3.3-1.5 5.8-4.6 9.4-5.3 3.2-.4 6.4.5 9.4 1.3 1.6.8 3 2.2 4.3 3.2q3 2.3 6 4.2a52 52 0 0 0 15.5 6.2h12.9" class="b"/><path d="M9.7 180.6h15.5q10.2-1.7 20.6-2.3l7.7-.6c1.6-.3 3 .8 4.3 1.4q3.6 1.7 7.7 1.4c5.4.3 10.5-2.7 14.6-5.9 3.7-2.9 6.9-6.6 11.2-8.6 4-1.6 7.6 2.4 11.1 3.8q5.4 2.6 11.2 3.6c14.8 3 13.8-5.6 23.2-7.9 1.6-.3 3.7-.9 5.1.3q4 2.5 7.8 5.4 6.6 5.1 14.6 7.8c1.9.5 3.9 1.6 6 1.6h12" class="b"/><path d="m9.7 176 15.5-.1q9.4-1.2 18.9-1.4l8.5-.3c1.6 0 3 1.1 4.3 1.6 1.4.1 3-.6 4.3-.6q3-.2 6 .6c.9.2 1.9-.3 2.6-.6q2.2-.9 4.3-2c5.7-3.3 10-8.4 15.5-11.9 4.7-3.2 7.8.8 12 2.6q5.9 3 12 5c5.2 1.7 10.2 1.8 14.6-2 2-1.7 4.2-3.7 6.9-4.5 1.3-.4 2.9-1.1 4.3-.5 5.2 1.8 9.7 5.2 14.5 7.7a79 79 0 0 0 11.2 4.8c1.4.4 2.8 1.3 4.3 1.5h12.9" class="b"/><path d="M9.7 171.3h15.5q9-1.2 18-2c3.1-.1 6.3-.6 9.4-.3 1.2.2 2.4.8 3.5 1q2.5.7 5.1.5c6-.6 11.5-3.5 16.3-7 3.5-2.5 6.7-5.5 10.3-7.9 5.9-3.8 7-.5 12 2.3 5.8 3.4 13.8 8.3 20.7 7.4q3.8-.7 6.8-3.3c1.4-1 2.6-2.6 4.3-3.1 2.2-.6 4.6-1.7 6.9-1.3 5 2 9.6 4.9 14.6 7 5 2.4 10.5 3.9 15.4 6.5 1.7.4 3.5.1 5.2.2h8.6" class="b"/><path d="M9.7 166.6h14.6l18-3.2c3.5-.5 6.9-1.5 10.4-1.6q2.5.3 5.1.7c6.4 0 12.6-2.7 18-6 3.9-2.2 7.3-5.3 11.2-7.5 5.8-3.1 6.6-.3 11.2 2.7 5.7 4 12.4 8.9 19.7 8.3 4.4-.4 8-3.5 11.1-6.3a34 34 0 0 1 7.8-.9c1.5 0 3 1 4.3 1.6l6 3c5 2.4 10.3 4 15.4 6q3.1 1.3 6 3c1.6.4 3.5.1 5.2.2h8.6" class="b"/><path d="M9.7 162h14.6c2.6-.6 5.2-1.6 7.8-2.2q6.5-1.9 12.8-4c2.6-1 5-2.6 7.8-3.3q1.6-.1 3.4 0c6 1 12.4-.7 18-3 4.3-1.7 8-4.6 12-6.6 5.4-2.6 7.1.3 11.2 3.2 5.7 4.3 12.2 9.4 19.7 8.2a17 17 0 0 0 7-3.2c1.3-.9 2.6-2.5 4.2-3.1 2.8-.5 5.8-.1 8.6.2 1.5 0 3 1.2 4.3 1.9l6 3c5 2.2 10.3 3.8 15.4 5.7q3.2 1 6 2.9c1.6.5 3.5.2 5.2.3h8.6" class="b"/><path d="M9.7 157.3h9.5c2-.1 4 .2 6-.2 5-2.4 10.4-4.2 15.4-6.7q6.6-3.2 12-8.3c2.5-1.5 5.2.5 7.8.7q5.5 1 11.1.4c5.4-.5 9.8-3.6 14.6-5.6 4.2-1.8 7.2.9 10.3 3.2 5.3 4 11.1 8.6 18 8.2 4.7-.2 8.6-3.3 12-6.1 2.4-1.3 5.3-.3 7.8 0l3.4.6c2 1 4 2.4 6 3.4q6.6 3.6 13.8 5.9 3.8 1.2 7.7 2.6c1.4.5 2.8 1.5 4.3 2h12.9" class="b"/><path d="M9.7 152.6H20c2-.1 4.3.5 6-.7 6-3.3 12.3-6.1 18-9.8q3.6-2.3 7-5c1.4-1 2.6-2.8 4.2-3.8 1 0 1.8.7 2.6 1.1l3.4 1.7a21 21 0 0 0 17.2 1.1c3.4-1.2 6.6-3.6 10.3-3.7 2.5.2 4.8 1.6 6.9 2.9q4.1 2.9 8.6 5.3 10.6 5.2 19.7-2.4c1.3-1 2.6-2.6 4.3-2.8 2.3 0 4.6.7 6.9 1.2l2.5.7c1.8 1 3.5 2.4 5.2 3.4q5 3.1 10.3 5.5c5.2 2.3 11 3.4 16.3 5.3h12.9" class="b"/><path d="M9.7 148h13.8q1.3 0 2.5-.9a106 106 0 0 1 19.8-9q1.9-.6 3.4-1.8a31 31 0 0 0 5.2-4c1.4-1.5 3.4-.9 5.1-.2 5 2.3 10.6 4.7 16.3 4 4.1-.4 7.5-3.1 11.2-4.7 6-2.8 16 9.6 27.4 7.2 3.9-.7 7.4-2.8 10.3-5.3 2.8-2.4 3-3.3 7-2.3q3 .8 6 1.9c3.3 2.6 6.6 5.5 10.2 7.8q5.3 3.3 11.2 5 5 1.3 10.3 2.3h12.9" class="b"/><path d="M9.7 143.3h14.6c1.5-.4 3-1.6 4.3-2.3q6.6-4 13.7-7c3.7-1.5 7.8-2.2 11.2-4.3 2.2-1.8 3.4-1.5 6-.7 3.2 1 6.2 2.7 9.4 3.7 4.2 1.4 8.7 2 13 .6 2.5-.7 5-2.1 7.7-2.1q1.3 0 2.5.6l6 2c10.7 3.8 19.3 1.6 27.5-6 3.1-3 3-3.8 7.8-2.7 1.7.5 3.7 1.1 5.1 2.4q3.3 3.6 6.9 6.8A31 31 0 0 0 160 142c3 .6 6.3.7 9.4 1.3h12.9" class="b"/><path d="M9.7 138.6h13.8c1.2.2 2.4-.6 3.4-1.2l4.3-2.3q5.6-3.1 12-4.3c3.7-.7 7.7-.9 11.2-2.6 2.6-1.5 7.5.1 10.3 1a33 33 0 0 0 16.3 2.3c2.8-.5 5.6-1.8 8.5-1.6 1.5.1 3 .9 4.3 1.4q2.2.9 4.3 1.5c8.5 2.6 17.8.2 25-4.9q3-2.3 6-5.2c1.4-1 3.4-1.3 5-1.2q1.9.1 3.5.8 1.5 1 2.6 2.3l6 5.8a27 27 0 0 0 17.2 7.4c2 0 4 .6 6 .8h12.9" class="b"/><path d="M9.7 134h13.8c1.1.1 2.4-.5 3.4-1l5.1-2q6-2.3 12-3c3.8-.5 7.6-.7 11.2-1.9 5.2-.4 10.4 1.4 15.5 2.5 10.1 2.4 14-2.1 20.6-.7q3.6 2.2 7.7 3.1c8.3 1.7 16.7-1.5 24-5.3q3.7-2 7-4.6a19 19 0 0 1 4.2-1.3c3.3-.6 4.3.1 6.9 2.1q3.3 2.8 6.8 5.3 4.4 3.1 9.5 4.6 3.4.7 6.9 1.2c1.6.2 3.4.8 5.1 1h12.9" class="b"/><path d="M9.7 129.3h14.6c2.6-.6 5.2-1.8 7.8-2.6a64 64 0 0 1 26.6-3c4 .2 8 1.5 12 2.3 4.5 1 9.2.3 13.7-.9 2.2-.4 4.8-1.3 6.9-.3l3.4 1.9c7.6 3.3 15.9.2 23.2-2.4q4-1.4 7.7-3 3.3-1.5 6.9-2.6c2.2-.4 4.7-1.4 6.9-.4 4.4 1.9 8.4 4.7 12.8 6.4 3.3 1.4 6.9 2.1 10.3 2.9l6 1.6c4.6.3 9.2 0 13.8.1" class="b"/><path d="M9.7 124.7h9.5c2-.1 4 .2 6-.2q5.5-2.3 11.1-4a31 31 0 0 1 14.6-.8c3.4.8 7 .1 10.3.8 6.4 1.5 11.3 3.5 18 2q3-.5 6-1.4c1.7-.4 3.6-1.2 5.2-.6 1.7.9 3.3 2.1 5.2 2.6q4.6 1.3 9.4.2c4-.9 8-2.4 12-3.6q5.2-1.4 10.3-2.4 2.2-.3 4.3-.6l5.2-1c2-.4 4 .5 6 1l8.6 2.7q5 1.4 10.3 2.7c2.3.7 4.5 1.8 6.8 2.5 4.6.3 9.2 0 13.8 0" class="b"/><path d="M9.7 120h13.8c1.2.2 2.4-.5 3.4-1l3.4-1.5c3.9-1.6 7.9-3.1 12-3.4 3.5-.3 7 1 10.3 1.5 1.7 0 3.5-.7 5.2-.3 5 .7 9.5 3.2 14.6 3.3 5.3.3 10.5-1.4 15.4-3.1 1.9-.5 3.6.6 5.2 1.5q2.5 1.1 5.1 1.3c7 .3 13.2-3.4 19.8-4.7a33 33 0 0 1 8.5-.5c1.7 0 3.5.5 5.2.4 2.3 0 4.6-.8 6.9-.8q7 .8 13.7 2 5.3 1 10.3 2.5c2 .6 4 1.9 6 2.6 1.6.4 3.5.1 5.2.2h8.5" class="b"/><path d="M9.7 115.3h9.5c2 0 4 .3 6-.2q5.8-3.2 12-5.2c3.3-1.1 6.9-1.2 10.3-1.1 2 0 4 .4 6-.2s4.1-.1 6 .5q3.8 1.5 7.7 2.6a27 27 0 0 0 19-2c1.5-.7 3.5-1.2 5-.4 6.9 4.2 14.8.6 21.6-1.9 4-1.6 8.6-2.2 12.8-.7 2.3.8 4.5 2 6.9 2 2.3.3 4.6-.3 6.9 0q8.6.9 17.1 2.1 4 .8 7.8 2.1c1.7.6 3.3 2 5.1 2.4h12.9" class="b"/><path d="M9.7 110.7H20c2-.2 4.3.5 6-.7 3.3-1.8 6.7-3.7 10.3-4.8 4-1.3 8-.7 12-.8 3 0 5.7-2.3 8.6-1.9 3.2.5 6.3 1.7 9.5 2.4q6.9 1.6 13.7.1 3.1-.7 6-2.4c1.6-.8 3.3-2.5 5.2-1.8a13 13 0 0 0 5.1 1.7q4.9.2 9.5-1.9c5.4-2 11-6.7 17.1-4.2 3.5 1.3 6 4.4 9.5 5.7q2.5 1 5.1 1.3 9 2.7 18 4 4.8.6 9.5 1.7c1.4.4 2.8 1.4 4.3 1.6h12.9" class="b"/><path d="M9.7 106h13.8q1.4 0 2.5-.8l3.5-2A33 33 0 0 1 39.8 99c2.5-.5 5.2-.4 7.7-.8 3.3-.7 7-1.9 10.3-.7 10.8 3 24.5 6 33.5-2.8 4.4 2.6 9.3 2.2 13.7-.1q4.1-2.4 7.7-5.5c2.6-2 5.3-4.5 8.6-4.6 4.6.3 7.2 5 10.3 7.6q2.8 2.7 6 4.6a32 32 0 0 0 5.2 3.3c5.8 2.9 12.5 3.2 18.9 4.1l4.3.8q1.5.8 3.4 1.1h12.9" class="b"/><path d="M9.7 101.4h13.8c1.3.2 2.4-.8 3.4-1.5l4.3-2.7q5.6-3.5 12-5.5c2.6-.7 5.1-2 7.7-2.7q2.7-.5 5.2.4a63 63 0 0 0 8.6 3.8q7 2.5 14.6 2.4c4.6 0 9.4-1.5 12.8-4.7.9-.4 1.9 0 2.6.4q1.6.7 3.4 1c10 .7 15.4-9.2 21.5-15.3 1.8-1.7 4.5-3.3 6.9-1.8a32 32 0 0 1 6.9 6.1c2 2.4 4.3 4.7 6 7.2 2.6 3.6 6 6.8 10.3 8.4 4.9 2 10.3 2.2 15.4 3.3l3.4 1c1.4.3 3 .1 4.3.2h9.5" class="b"/><path d="M9.7 96.7h12.9q1.3 0 2.6-.3C33.4 90.5 42 85.3 50 79.3a6 6 0 0 1 6-.6q2.5 2 5.1 3.7 6.4 4.2 13.8 5.8c5.3 1 11.4 1.3 16.3-1.5 1.4-1 3.4-1.2 5.1-.5 9.1 4.1 16.5-2 21.5-9.1 2.5-3 6.5-11.1 11.1-9.2 2-.3 3.8.8 5.2 2q1.8 2 3.4 4l3.5 6.4c2.2 3.9 4.9 7.7 8.5 10.3 4 3 9 3.6 13.8 4.5 2 .4 4 1.4 6 1.6h12.9" class="b"/><path d="M9.7 92h14.6c1.6-.5 3-1.8 4.3-2.6l6.9-5q7.4-5.6 13.7-12.4c2-1.8 3.7-5.5 6.9-4.7l4.3 3.2c9 7 21 14.6 32.6 9.7 2.7-.4 5.3.8 7.7 1.7q3 .9 6 .9c6.9 0 11.8-5.3 15.5-10.5 2-2.6 3.8-5.9 6.8-7.3 2.5-1.1 3.7-3.7 7-2.3 2.8 1.3 3.6 5 5 7.5 2.4 4.7 5 9.7 8.6 13.5 4 4.3 9.2 5.3 14.6 6.8 2 .6 4 1.6 6 1.5h12" class="b"/><path d="M9.7 87.4h14.6c.9-.2 1.8-.9 2.6-1.3 7-4.3 14.4-8.6 20.6-14 3-2.5 5.2-5.8 7.7-8.7l.9-.2c10.2 3.9 18.6 13 30 13.2q2.2 0 4.3-.6c1.4-.4 2.9-.9 4.3-.6 2.7.3 5.2 1.6 7.7 2.4 4.2 1.1 8.7 1.6 13 .4 6.6-2 10.2-8.6 15.4-12.8 2-2.2 3.6-5.8 6.8-6.2 2.4 1.6 3.7 4.7 5.2 7 2.7 4.7 5.4 9.7 9.4 13.4 4.5 4.2 10.8 5.4 16.3 7.8 1.7.3 3.5.1 5.2.2h8.6" class="b"/><path d="M9.7 82.7h9.5c2-.1 4 .3 6-.2 6.6-3.4 13.9-5.3 20.6-8.6q3.8-1.9 6.9-5c1.3-1 2.3-3.3 4.2-3.5 2.7.3 5.2 1.5 7.8 2.2 8.5 2.8 17.8 5.1 26.6 2.3 2.2-.8 4.7 0 6.9.8 6 2.5 13.2 4.1 19.7 2.6 3.3-.9 6-3.1 8.6-5.2 1.6-1.5 3.7-2.5 5.1-4 1.8-2.1 3.6-4.4 6-5.7 1.3-.2 2.5.9 3.5 1.6 2.5 2.4 4.6 5.5 6.8 8.2 4.4 5.6 10 9.1 16.3 12 1.8.7 3.4 2 5.2 2.5h12.9" class="b"/><path d="M9.7 78h14.6q3.9-1 7.8-2c3.7-1 7.5-1.7 11.1-3q5.4-1.6 9.4-5.7c1.8-1.7 3.3-4.4 6-4.3 3.5.3 7 1.2 10.4 1.8q8.5 1.6 17.1.7 3-.5 6-1.3c3-.4 5.8 1.6 8.6 2.4 6 1.9 12.7 3.4 19 2 4.1-1.2 7.6-4.2 11-6.7 2.3-2.3 4.2-5.2 7-6.9 3.2-.2 7.2 5.3 9.4 7.5a46.7 46.7 0 0 0 17.2 13.2c1.6.7 3.3 1.9 5.1 2.3h12.9" class="b"/><path d="M9.7 73.4h14.6q3.9-1 7.8-1.7c5.8-1.2 12-1.9 17.1-5.1 2.7-1.6 4.7-4.2 6.9-6.4 2.5-1.8 5.7-1.2 8.6-.9q4.6.8 9.4 1.2 6.5.7 12.9 0c2.5 0 5.2-1.4 7.7-.6a68 68 0 0 0 19 4.7q7.8.7 14.5-3.3c2.8-1.1 4.7-3.7 6.9-5.8 1-.8 2-2.2 3.4-2.4 3.4.3 6.1 3 8.6 5.2q3.7 3.6 7.7 6.9a58 58 0 0 0 14.6 8.2h12.9" class="b"/><path d="M9.7 68.7h14.6c2.3-.4 4.6-1.2 6.9-1.6q5.2-1 10.3-2.3 5.8-1.3 10.3-5c1.5-1.2 2.8-3 4.3-4.3 3.3-2.2 7.5-1.3 11.1-.7a74 74 0 0 0 23.2 1.5q2.6-.7 5.2.2l6 1.5c5.9 1.4 12 2.6 18 2.3A42 42 0 0 0 130 58c2.6-1.3 4.6-3.7 6.9-5.4 5.2-4 14.6 5.6 18.9 8.4 4.2 3 8.8 5.9 13.7 7.7h12.9" class="b"/><path d="M9.7 64h14.6c2.3-.5 4.6-1.6 6.9-2.2q5.6-1.3 11.2-2.8c3.3-1 6.7-2.4 9.4-4.7 1.5-1.2 2.8-3 4.3-4.4q3.6-1.7 7.7-.8c6.8 1.6 13.6 3.8 20.6 4.2q4 .4 7.7-.5 2.6.1 5.2.5c9.7 1.2 19.4 3.4 29.2 2l3.4-.4c1.9-.6 3.5-2.1 5.2-3.2 1-.6 2.2-1.7 3.4-2 6.4-1 12 3.1 17.2 6.5 4.4 2.8 8.8 6 13.7 7.9h12.9" class="b"/><path d="M9.7 59.4h12.9q1.3 0 2.6-.3c6.3-3.8 13.8-4.7 20.6-7.4 7.2-2.7 9-9.2 18-6.2 3.2 1 6.3 2.4 9.5 3.3 4.5.8 9 2.1 13.7 2.3 2 .1 4-.5 6-.7a98 98 0 0 1 16.3 0q3.4.6 6.9 1c4.2.4 8.6.3 12.9.6 1.1 0 2.3-.7 3.4-1.1l6-3 2.6-1.1q2.2 0 4.3.4c6.3 1.3 11.7 5.2 17.1 8.4l4.3 2.6c1 .5 2.2 1.4 3.5 1.2h12" class="b"/><path d="M9.7 54.8h12.9q1.4.1 2.6-.4 3.5-2.9 7.7-4.7c4.7-2.2 10-3.1 14.6-5.5l1.7-1q1.8-.2 3.4-1c2.5-1.3 4.9-2.4 7.8-1.7 3.6.8 6.8 3 10.3 4.3A52 52 0 0 0 87 48.4c2 0 4-.6 6-1q4.2-1 8.6-1.5c6.3-.7 12.6.7 18.9 1.4l7.7 1c1.4.4 3-.3 4.3-.5q4.4-1.2 8.6-2.8l3.4-1.2q2.2.2 4.3.7c5 1 9.5 3.5 13.7 6.1l4.3 2.8c1 .6 2.2 1.5 3.4 1.3h12" class="b"/><path d="M9.7 50h14.6c1-.2 1.8-1.1 2.6-1.7l3.4-2.6q5.2-3.4 11.2-5.4 2.2-.7 4.3-1.6h3.4q2.2 0 4.3-1 1.6-1 3.4-1.7c4.7-1.6 8.8 2.3 13 4 6.7 3.3 14.9 6.7 22.2 3.3 10.6-4.3 18.6-2.1 29.2-.2 3.2.4 6.2 1.9 9.5 1.7q6 0 12-1.6l5.1-1.5q2.6.1 5.2.6a32 32 0 0 1 13.7 6.3c1 .6 2.2 1.7 3.4 1.5h12" class="b"/><path d="M9.7 45.4h12.9q1.3.1 2.6-.3c3.1-2 6.1-4.4 9.4-6.2q3-1.5 6-2.4c.8-.2 1.8-.6 2.6-.2 3.3 1 6.9 1.7 10.3 1 2.2-1 4.5-2 6.9-2.2q3.5-.2 6.8 1c3.2.6 6.3 1.7 9.5 2.3 14.3 3.1 20.1-7 35.2-2.2 5.5 1.8 10.7 4.4 16.3 5.8 6.6 1 13.3-.1 19.7-1.2l3.5-.6q4.3.4 8.5 1.4 4.6 1.2 8.6 3.6c1.6.5 3.5.1 5.2.2h8.6" class="b"/><path d="M9.7 40.8h14.6c3.1-.8 5.9-3 8.6-4.5q3-1.9 6-3.2 1.3.1 2.6.4 3.8 1 7.7 1.8c1.7.3 3.5.6 5.2 0Q58 34.3 62 34c7.1 0 14.3 1.3 21.5.5 9.7-.9 19.4-7.7 29.2-3.4 4.6 2 9 4.9 13.7 6.6 3.8 1.3 8 1.3 12 1.3q7 0 13.7-.3 3.9-.2 7.8.4 4.7.4 9.4 1.7h12.9" class="b"/><path d="M9.7 36.1H20q2.6.1 5.2-.1l3.4-1.2q3.5-1.8 6.9-3.9c2.2-.5 4.6-.1 6.8.2 3.5.5 6.9 1.7 10.3 1.8 4-.3 8-.8 12-.7q7.4 0 14.7-.4 7.6-.2 14.5-2.6c7.6-1.9 14-5.4 21.5-1.5 13.6 7.4 13.7 7.2 29.2 7.9q10.3.6 20.6.3 8.6.3 17.2.2" class="b"/><path d="M9.7 31.4h15.5a23 23 0 0 0 6-2.2q2-1.1 4.3-1.1 3-.4 6-.1c3.4.3 6.8 1.2 10.3 1.5h8.6c8.8-.1 17.7 0 26.6-.7 2.6-.2 5.2-1.1 7.7-1.8q3.4-.9 6.9-1.8c4.4-1.3 9.2-2.4 13.7-.8s9 3.9 13.7 5.2q7.3 1.4 14.6 1.8l9.5-.6h7.7l6 .6h15.5" class="b"/><path d="M9.7 26.8h14.6c1.8-.1 3.5-1 5.2-1.4l6.8-.6c5.5-.3 11 .7 16.3 1Q67 26 81 26q4.2 0 8.6-.3 6-1 12-2c4.2-.8 8.5-1.7 12.9-1.1l6 .9 6.8 1.4q8.1 1.7 16.3 1.8 9.9-.7 19.8-.3c6.2.7 12.6.3 18.9.4M9.7 22.1h13.8c1 .1 2.3-.4 3.4-.3l13.7-.1L75 22q6.8 0 13.7 0 5.5-.3 11.2-.6 7.3-.4 14.5 0c8.3 0 16.7.5 25 .6q8.5.2 17.1 0 12.9.2 25.8.1M9.7 17.5h172.6M9.7 12.8h172.6M9.7 8.1h172.6" class="b"/></svg>