<svg xmlns="http://www.w3.org/2000/svg" id="a" width="1920" height="2400" viewBox="0 0 192 240"><defs><style>.b{fill:none;stroke:#fff;stroke-miterlimit:10;stroke-width:.3px}</style></defs><path d="M0 0h192v240H0z" style="stroke-width:0"/><path d="M9.7 231.9h172.6M9.7 227.2h172.6M9.7 222.5q41.3.2 82.4-.1c30 .3 60.1 0 90.2.1M9.7 217.9h13.8q1.3 0 2.5-.8h7l24 .1c5.4 0 10.8.4 16.3-.2 7.4-.6 14.8-.4 22.3-.2h13.7q4.7.3 9.4.5c7 0 13.8-.4 20.6-.2q14.3.1 28.4 0c1.7 1.3 4 .7 6 .8h8.6M9.7 213.2h14.6c1.9-.5 3.5-2 5.2-2.8H32c10-.5 20.1.3 30 1 7.5.9 15-.5 22.4-1.1 3.1-.2 6.3.3 9.4.4q6.4.2 13 .2c6 0 12 .7 18 0 4.2-.3 8.5-1.3 12.8-1.2 8.6.3 17.2 1.3 25.8 1 .8-.3 1.8.4 2.6.8l2.5 1.5c1.7.5 3.5.1 5.2.2h8.6M9.7 208.6h14.6c2.4-.8 4.7-2.4 6.9-3.6l1.7-1h6c7.8.2 15.5 1.9 23.2 2.7q6.5.9 12.9-.5c3.7-.8 7.3-2.4 11.1-2.8 3.2-.3 6.3.8 9.5.9q6 .1 12 .2 5.2 0 10.3.5 4.7 0 9.4-.7c4.6-.7 9.1-2.3 13.8-1.7q6.4.8 12.9 1.9l4.2.4c1.1.2 2.5 0 3.5.5 2.5 1 5 2.4 7.7 3.2h12.9" class="b"/><path d="M9.7 203.9H20c2-.1 4.3.5 6-.7q3.5-1.7 7-3.7 1.6-1 3.3-1.7H39c9 .2 17.7 3.4 26.6 4.4 7.2.9 12.8-2 19-5.1 3.4-1.7 5.5-2.1 9.4-1.3 5 .7 10.3.9 15.4 1.6 4.3.6 8.6 1.6 12.9 1.4q4.8 0 9.4-1.1c2.9-.8 5.6-2.1 8.6-2.1 5.6-.1 11 2.3 16.3 3.4 1.5.3 2.9 1.4 4.3 2q3.4 1.5 6.9 2.5c1.9.7 4 .3 6 .4h8.6" class="b"/><path d="M9.7 199.2h14.6c5.1-1.9 9.8-5 14.6-7.7q1.3-.5 2.6-.3 2.6 0 5.1.5c7.3 1.2 14 5 21.5 5.6 6.3.3 12-2.7 17.2-6 2.2-1.2 4.4-2.8 6.8-3.5a152 152 0 0 1 19 3.7c3 .8 6.2 1.7 9.4 1.8 4.5.3 9.4.3 13.7-1.4 8.5-4.3 11.3-3 19.7.5a30 30 0 0 0 14.6 6.7q2.2.2 4.3.1h9.5" class="b"/><path d="M9.7 194.6h14.6q2.3-.8 4.3-2 5-2.3 9.4-5.4l3.5-2.5q1.6-1.3 3.4-1c7.9-.2 14 5.9 21.5 7.5 7.1 1.6 14.3-1.6 20.6-4.8 2-1 4-2.6 6-3.7 1.6-.6 3.5-.2 5.1 0 5.8 1.2 11.5 3 17.2 4.5q3.4.5 6.9.9c3.4.2 7 .6 10.3-.2 4-1 6.8-4.7 11.1-4.7a15 15 0 0 1 6.9 1.7q1.8 1.5 3.4 3 4.5 4.1 10.3 5.7l4.3.9h13.8" class="b"/><path d="M9.7 190h9.5c2-.2 4 .2 6-.3 5.1-2.4 10.4-4.7 14.6-8.6 2.3-1.8 4.3-4.5 6.8-6a10 10 0 0 1 7 1.5q4 2.2 7.6 5 4.2 3 9.5 3.7c2.8.3 5.8-.3 8.6-.7q4.3-.6 8.5-2c3-1 5.4-3.4 8.6-3.8s6.4.4 9.5.9l7.7 1.6 6 .6 6.9.8c1.6.2 3.4.7 5.1.5 2.4-.2 4.3-1.8 6-3.2a13 13 0 0 1 6-2.8c1.4 0 3.2 0 4.3.9l6 5.5a26 26 0 0 0 15.5 6.3h12.9" class="b"/><path d="M9.7 185.3h14.6q2.3-.8 4.3-1.7 4-1.4 7.7-3.8c3.8-2.4 6.7-6 9.5-9.5l3.4-4.1c1.2-1 3-.5 4.3.1q2.2 1 4.3 2.5c3.5 2.9 6.8 6.4 11.2 8.2 3.7 1.6 8 1.6 12 1.6 3.7.1 7.7.6 11.1-1.3a32 32 0 0 1 18-2.3c4 .2 8.1 0 12 .4q2.7.3 5.2 1c2.3.7 4.8 1.5 6.9 0q2-1.9 4.3-3.5c1.5-1 3.3-2 5.1-2.1 1.7.3 3 1.8 4.3 2.8 6.3 5.8 10.9 10.1 19.8 11.5 4.8.4 9.7 0 14.6.1" class="b"/><path d="M9.7 180.6h14.6q4.4-1.4 8.6-3c10.6-3.4 14-11.6 19.7-20 4.6-3.2 9 2.7 12 5.5q4 3.8 8.6 6 3.8 1.7 7.8 3c2.2.8 4.5 1.8 6.8 2.1 1.8.3 3.6-.3 5.2-1l4.3-1.5q4.5-1.5 9.4-1.6 4.7-.7 9.5-.5c4.3.2 8.8 0 12.8 1.7 2.6 1.2 4.4-.4 6-2.3 1.9-1.6 3.6-4 6-4.9 4.6.7 9.3 6.5 13 9.3q6.3 5.3 14.5 7.1 6.9.1 13.8 0" class="b"/><path d="M9.7 176h14.6q4.3-1.4 8.6-2.6c11.3-3 14.6-6.6 21.5-15.5 4.2-5.8 8.7-4.6 13.7-.5 5.2 3.8 15.7 13.5 22.3 12.1 3.2-1 6.2-2.5 9.5-3.5q5-1.2 10.3-1.4 4.3.1 8.5 1.3 4 1 7.8 2.2c1.7.5 3.3 2 5.1 1.7 2.6-1.1 4.4-3.8 6.9-5.2 3.7-1.9 7.9-.7 11.1 1.5 6.2 4 12.3 8.8 19.8 9.8h12.9" class="b"/><path d="M9.7 171.3h14.6c6.3-1.8 12.7-3.2 19-5q4.6-1.5 8.5-4.3c2.8-2 5.4-4.6 8.6-6 4.3-2.2 9 0 12.9 2.3 4.3 2.3 8.6 5.4 13.7 6a10 10 0 0 0 6-1.7 30.1 30.1 0 0 1 21.5-2 278 278 0 0 1 16.3 5.8q3.5-1.4 6.8-3.3 5.2-1.4 10.3.2c7.3 2.4 13.9 7 21.5 8h12.9" class="b"/><path d="M9.7 166.6h14.6q7.7-2 15.5-3.7c4.5-1 9.3-1.2 13.7-2.7 4-1.3 7.7-4.1 12-4.8 3.5-.5 7 .4 10.3 1.4 4.4 1.2 9.3 2.9 13.7 1 1.5-.5 3-1.7 4.3-2.4q2.5-1.2 5.2-1.4 4.8-.7 9.4.3c5.3 1.4 10.3 3.8 15.5 5.4l3.4 1.1q1.2.6 2.6.6c3.2 0 6.3-1.2 9.4-1.1q6.6.1 13 1.7c5.4 1.3 10.8 3.1 16.2 4.5 4.6.3 9.2 0 13.8.1" class="b"/><path d="M9.7 162h14.6c5.7-1.3 11.4-3.3 17.2-3.9q4.2-.3 8.6 0c1.6 0 3.5.3 5.1-.1 5.2-1.2 10-3.8 15.5-4 6-.3 12.5 1 18-2 1.8-.8 3.2-2.7 5.2-3.3 7-2.5 12.4-.5 18.8 2.3q6.6 2.9 13.8 4.2 3 .8 6 1.4l5.1.5q3 .6 6 .8 6 .6 12 1 4 .3 7.8 1.4c2 .4 4 1.3 6 1.6h12.9" class="b"/><path d="M9.7 157.3h14.6c3.8-.8 7.5-2.2 11.2-3q6-1.9 12-.6 3 .7 6 1.3c5.3.4 10.3-2 15.5-2.7 10.1-1.7 15.2-1.7 23.1-9 7.6-4.2 12.8-.9 19.8 2.2q4.5 2 9.4 3c2 .4 4.1.3 6 .7 2 .8 4 2.2 6 2.8 5 1.6 10.2 2.9 15.5 2.7 6.9-.1 12.2-1 18.9 2 1.8 1 4 .5 6 .6h8.6" class="b"/><path d="M9.7 152.6h9.5q3 .2 6-.1l10.3-3.6c3.5-1.3 7.5-2 11.1-.9q3 1 6 2.3c4.2 1.6 8.7.5 13-.1 9.8-1.5 18-3.5 24.8-11.5 8-7.1 13.4-2.7 21.5.8q4.9 2 10.3 2.8 2.5.1 5.1.1c1.7.5 2.9 2 4.3 3 2 1.3 4.6 2.3 6.9 3.1q6.6 2.5 13.7 1.8c4.3-.5 8.8-1.2 12.9.5 1.4.5 2.8 1.5 4.3 1.8h12.9" class="b"/><path d="M9.7 148h13.8c1.4.1 3-.7 4.3-1.2l6-3c4-2.3 8.9-5.3 13.7-3.3 1.8.6 3.5 1.9 5.1 3q4.4 2.9 9.5 2.7c7.5 0 15.4-1.6 21.4-6.3q2.9-2.2 5.2-5c1.4-1.8 3-3.7 5.1-4.8 5.7-4 10.9-1.2 16.4 1.4 5.6 2.5 11.7 4.9 18 4.2 1 .3 1.8 1.5 2.6 2.1q1.6 1.5 3.4 2.8c7 4.4 13.3 5.3 21.5 4.6 2.8-.2 5.8-.4 8.5.5 1.8.4 3.4 1.7 5.2 2.3h12.9" class="b"/><path d="M9.7 143.3H20c2-.1 4.2.3 6-.5q5.7-2 10.3-5.8c3.8-2.7 7.8-7.4 13-6 1.9.6 3.5 2.2 5 3.4a19 19 0 0 0 11.2 5.2c7.4.7 15-1.6 20.6-6.4 2-1.7 3.5-4 5.2-5.8a35 35 0 0 1 5.1-3.5c4-2.3 8.9-1.3 13 .5q5 2.3 10.2 4.1 3.4 1.2 6.9 1.4c1 0 2.3-.3 3.4-.1 2.4 1.8 4.9 3.8 7.7 5q3.3 2 7 3.3c5.7 2 12 1.6 18 2.7 2.3.4 4.5 1.8 6.8 2.5h12.9" class="b"/><path d="M9.7 138.6h14.6c5.7-1 10.8-4.4 14.6-8.6 2.7-2.8 5.1-6.3 8.6-8.3q2-1 4.3-.4 2.2 1 4.3 2.4c7.3 8.1 17.6 9.2 27.4 5 3-1.3 5.6-3.6 7.8-6 3.3-2 7.1-3.8 11.1-3.5 6.8.7 12.5 4.8 19 6.7q2.8 1 6 1l2.5-.2c1.5.1 3 .9 4.3 1.5l3.4 1.5q3 1.6 6 2.5c5 1.5 10.4 2 15.5 3.1q3 .6 6 1.7c1.4.5 2.8 1.3 4.3 1.6h12.9" class="b"/><path d="M9.7 134q7.8.1 15.5-.1c12-1.9 15.7-10.2 22.3-18.9 2.4-3 3.9-3.9 7.7-4.3 1.7.3 3 1.9 4.3 2.7 5.9 4.6 13 7.8 20.6 7.7q4.6 0 8.6-2c1.2-.7 2.2-2 3.4-2.3a20 20 0 0 1 15.5 1c6.9 2.9 13.6 8.5 21.4 7.7 2-.3 4.1.3 6 .7q3.4 1 7 1.7c4.5.7 9.2.4 13.7 1.5a55 55 0 0 1 7.7 2.3c2 .7 4 1.8 6 2.3h12.9" class="b"/><path d="M9.7 129.3c15.6-.2 25.9 2.6 35.2-12.7 3.3-4.9 5.7-11 11.2-13.8 4.6 0 8.8 2.5 12.9 4.3a47 47 0 0 0 17.1 5.1q3.2.1 6-1.3 4.5-1 8.6.5c9.6 3.1 17.1 12.3 27.5 12.6 4-.4 8 .7 12 .8 3.2 0 6.3-.8 9.5-1q4.8-.3 9.4 1.5c3.2 1.2 6.2 2.8 9.4 3.9 1.7.3 3.5 0 5.2.1h8.6" class="b"/><path d="M9.7 124.7h13c6.9 0 14.5-1 19.7-6s7.7-12.2 12.8-17.2q.9-.6 1.7-.9l3.5-1.2c5.4-1.7 11.1 0 16.3 1.8 4.2 1.5 8.4 3.4 12.9 4 1.7.2 3.4-.2 5.1-.4 3.8-.2 7.3 2 10.3 3.9 4.6 3 8.9 6.7 13.7 9.3q5.2 3.2 11.2 3c2.6 0 5.2.8 7.7.5 5 0 9.6-2.9 14.6-2.8 6 .1 10.7 4.4 16.3 5.8 1.7.3 3.5.1 5.2.2h8.6" class="b"/><path d="M9.7 120h12c7.7.1 16.2-.4 22.4-5.6 4.3-3.6 7-8.8 11.1-12.7 1.5-1.1 3.6-1.5 5.2-2.5C64.6 97 69.2 95 74 95.5c3.8.3 7.6 1.6 11.2 2.9 2.5.8 5 1.8 7.7 2 2-.1 4-.9 6-.2 4.6 1.4 8.3 4.9 12 7.7a39 39 0 0 0 14.6 8c2 .6 4.1.5 6 1 4 1.1 8.3 0 12-1.4 3.3-1.2 6.8-2.7 10.4-2 3.4.7 6.4 2.8 9.4 4.4q2.5 1.2 5.1 2 1.7.1 3.5.1h10.3" class="b"/><path d="M9.7 115.3c7.2 0 14.4.4 21.5-.6 5.5-.6 11.1-2.1 15.4-5.8 3.3-2.6 5.9-6.2 9.5-8.4q2.2-.6 4.3-1.4c6-2.7 11-5.4 18-4 5 .7 9.6 3.3 14.6 3.9 1.8.1 3.5-.8 5.1-1.3 4-.9 7.9 1.4 11.2 3.3 3.7 2.2 7.2 4.9 11.2 6.7 2.7 1.3 5.7 2.1 8.5 3.2q1.7 1 3.5 1.7c5.5 2.4 11.2-.7 16.3-2.9 3-1.2 6.5-1.7 9.4 0 3.3 2 6.5 4.5 10.3 5.5 4.6.4 9.2 0 13.8.2" class="b"/><path d="M9.7 110.7h14.6l6-.7c4.1-.5 8.3-1.1 12-3 4.6-2.2 7.9-6.3 12-9 1.3-1 3-1 4.4-1.2q2.5-.4 5.1-1.1c7-2.1 13-1.5 19.7.8l6 1.9c2 .5 4.1.8 6 .1 1.7-.7 3.4-1.6 5.2-1.7 5.7-.6 10.7 3 15.5 5.6q5.4 3 11.1 5.7c1.7.7 3.3 2.1 5.2 2.5a12 12 0 0 1 4.3-.5c1 0 2.3.5 3.4.4q2.6-.9 5.2-2.1c6.4-3.3 10.6-4.5 17.1-.5 2.4 1.2 5 2.8 7.7 2.8h12" class="b"/><path d="M9.7 106h13.8q3-.2 6-.6a32 32 0 0 0 11.1-2.8c4.6-2.1 8-6.2 12-9a9 9 0 0 1 3.5-1.4q2 .3 4.3.1 5.2-.3 10.3.1c6.8.7 13 3.7 19.7 5q3.2.7 6-.9 3-1.3 6-1.5a31 31 0 0 1 15.5 4.2l7.7 3.8q2.5 1.7 5.2 3c3-1 6.4-1.2 9.4 0 6-2 12.3-6.3 18.9-4 3 1 5.6 2.8 8.6 3.7 1.9.6 4 .2 6 .3h8.6" class="b"/><path d="M9.7 101.4c6.3-.2 12.7.3 19-.5q7-.4 12.8-4.3c4-2.6 7-6.6 11.2-8.8q2.5-1.1 5.1-.3l4.3.6a85 85 0 0 1 13.7 3.2c4.6 1.3 9 3 13.8 3.7q1.6.2 3.4 0l3.4-1q3.8-1 7.8-1.5c6.7-.8 13.6 1.1 19.7 4 2.6 1.2 5 3.2 7.7 4.2 6.5 2 12.7-2 19-3.2 3.6-.8 7.6-.4 11 1 2 .9 4 2 6 2.5s4.1.3 6 .4h8.7" class="b"/><path d="M9.7 96.7c6-.1 12 .3 18-.3 5-.4 10-2.3 13.8-5.5 3.5-2.6 6.4-6.2 10.3-8.2q3-1.4 6 0l6 2q7.3 2.2 14.6 4.5c3.6 1 7.4 2.2 11.2 2.4 7.5.1 14.8-2.5 22.3-3.2q5.6-.4 11.1.8 3.3 1.2 6 3.2c4 3 9.2 2.4 13.8 1.5 6.2-1.3 12.8-2.5 18.9 0 2.2.9 4.5 2.1 6.8 2.7 4.6.3 9.2 0 13.8 0" class="b"/><path d="M9.7 92h14.6q9.8-.2 17.2-6.7c3.6-2.8 6.8-6.6 11.2-8.3q1.6-.3 3.4.1a72 72 0 0 0 10.3 4.4q9.1 3.4 18.9 5.2c2.2.4 4.6.4 6.8.8 4.7.6 9.3-.5 13.8-1.6 4.8-1.2 9.7-2.7 14.6-3.6 5.6-1.5 7.5 2 12 4 2.1.9 4.6 1 6.9 1.2 6.5.4 13.2-.8 19.7.9 3 .5 5.7 2.3 8.6 3.2 1.9.7 4 .3 6 .4h8.6" class="b"/><path d="M9.7 87.4c15.3-.3 21 2 33.5-8.7q3.4-3 6.9-5.8c1.5-1 3.1-2.3 5.1-1.8 1.5.4 3 1.5 4.3 2.2q3.4 1.6 6.9 3c6 2.2 12.5 3.5 18.9 4.7q3.5.5 6.8 1.8 3.8 1.1 7.8.6 11.4-1.3 21.4-6.9c4.2-2.5 5.6-2.2 9.5.6 2.3 1.5 5 2.1 7.7 2.7 6.1 2 12.7 2 18.9 3.5q2.6.4 5.1 1.4c2 .8 4 1.9 6 2.5 4.6.4 9.2 0 13.8.2" class="b"/><path d="M9.7 82.7h15.5c7.6-1.1 14-5.7 19.7-10.5l6-5.3c2-1.6 3.4-3.8 6-1.8 8.4 5 14 5.4 23.2 6.6 2.9.6 6 .8 8.6 2.3 1.7 1 3.3 2.4 5.2 3.2 3.7 1.7 8 1.7 12 1.3a33 33 0 0 0 18.9-8.1q1.4-1.3 3.4-1.2l3.4 1.5q3 1.2 6 1.8 3 1.3 6 2.3c5.7 1.8 11.5 3.1 17.2 4.7 2.7.6 5.1 2.2 7.7 3 4.5.4 9.3 0 13.8.2" class="b"/><path d="M9.7 78H20c2.3 0 4.7.2 6.9-.3a48 48 0 0 0 18.9-8.8q3-2.3 6-5c1-.8 2-2.4 3.4-2.7 2 .7 4 2.2 6 2.9 6.3 2.6 13.2 1.9 19.8 1.7 3.3 0 6.9.3 9.4 2.6a22 22 0 0 0 24.9 3.8q4.8-2.3 8.6-6c1.4-1.2 2.6-3.3 4.3-4.1 1.1 0 2.3.9 3.4 1.3l4.3 1.6c2.8.6 5 2.6 7.7 3.8a92 92 0 0 0 16.3 5.7c3 .6 5.8 2.2 8.6 3.4 1.6.3 3.5 0 5.2.1h8.5" class="b"/><path d="M9.7 73.4H20c2 0 4.1.2 6-.3a52 52 0 0 0 25.8-12.8c1.1-1 2.1-2.6 3.4-3.5q1 0 1.7.7 1.6.8 3.5 1.5c6.4 2.6 13.2.6 19.7-.4 3.2-.3 7.1-.4 9.5 2.2 3.9 4.6 7.3 8.1 13.7 8.6 9.8.6 20.3-6.3 25.7-14.1l.9-.3q4 1.2 7.7 3.2c3.5 3 7 6.2 11.2 8.3q4.5 2.3 9.4 3.5 4.9.8 9.5 2.9c1.8.8 4 .4 6 .5h8.6" class="b"/><path d="M9.7 68.7q7.8.1 15.5 0a61 61 0 0 0 22.3-9.5c3.1-2.2 5.2-5.3 7.7-8l.9-.1c4.5 3 10.2 3.6 15.4 2.3 4.7-.8 14.4-6 18-2 1.6 1.8 2.8 4 4.4 5.8q2.5 3 6 4.6c4.7 2 10 .9 14.6-.7 4.3-1.5 8.6-3.4 12-6.5l2.6-2.9c.6-.8 1.5-2 2.5-2.2 2.5 0 5.2 1.2 7 3C144 59.2 150 65 159 66.4l6 1.1c1.4.3 2.9 1 4.3 1.2h12.9" class="b"/><path d="M9.7 64h9.5c2 0 4 .3 6 0l9.4-3.5c6-2.3 12.1-5.2 16.3-10.2q1.5-1.6 2.6-3.4c.6-.9 1.4-2.4 2.6-2.7 6.5 4.1 13.6 3.3 20.6.7 3.7-1.2 7.3-3 11.1-3.6 2.8-.4 3.8 3.2 5.2 4.9q1.9 2.8 4.3 5c4.1 4 10 4.7 15.4 4 3.5-.3 7-.7 10.3-2q3-1.1 5.2-3.3 1.5-2 3.4-3.8c2.5-2 6.2-.5 7.8 2 4.2 5.3 8.6 11.3 15.4 13.4 4.1 1.4 8.7 1.2 12.9 2.3 1.9.5 4 .2 6 .3h8.6" class="b"/><path d="M9.7 59.4h14.6c2-.5 4-1.7 6-2.3 8.7-3.3 16.2-5.9 21.5-14 .8-1.4 2.2-2.8 3.4-3.8q1.4-.5 2.6.3 1.6.8 3.4 1.3 6.4 1.9 13 .4l9.3-3.3c2.3-.7 4.6-2.1 7-2.6 1.9 1.5 3.3 4.2 5 6 3.6 4 8.5 6.8 13.8 8 5.2 1.4 11.1 2.7 16.3.5 2.8-1.2 4.6-3.9 6.9-5.8 3.6-3 8.2.3 10.3 3.6 3.3 4.3 7.3 8.7 12.9 10 3.3 1 6.9.9 10.3 1.2q3.4.7 6.8.5h9.5" class="b"/><path d="M9.7 54.8h14.6c2.6-.8 5.1-2 7.8-2.6a30 30 0 0 0 14.5-7.3q1.5-1.3 2.6-3l2.6-2.4c5.4-6 3.7-5 11.2-2.9q3.3.9 6.8 1.3 2.6 0 5.2-.2c5.7-.5 11.7-1.5 16.3-5 2.7 1.8 5 4.4 7.7 6.3q6.4 4.6 13.8 7.4c4.6 1.8 10 2.6 14.5 0 2-1 3.5-2.8 5.2-4.2 3.8-3.3 8-.6 11.2 2.2 1.2 1 2.3 2.6 3.4 3.7 2.3 2.4 5.3 4.5 8.6 5.3 3 .7 6.3.7 9.4.9 5.7.8 11.5.4 17.2.5" class="b"/><path d="M9.7 50h14.6c4.3-.8 8.7-1.4 12.9-2.6q4.8-1.5 8.6-4.7 4.3-2.4 7.7-5.9c3.9-4.4 5.2-3.4 10.3-2.1l4.3 1q4.3.5 8.6.9c6 .4 10.6-.2 15.4-3.9 4.7 2.1 9 5.2 13.8 7.1 9.2 3.7 17.5 5.2 25.7-1.6 4.4-3.3 8.3-.7 12 2l4.3 3.2q3 3.1 6.9 4.6c3 1 6.3 1.2 9.4 1.5q2.6.1 5.2.6h12.9" class="b"/><path d="M9.7 45.4h14.6q5.6-.6 11.2-2 3.5-.8 6.9-2.6 3.5-1 6.8-2.6 2.3-1.2 4.3-2.7 2-1.7 4.3-2.6c1.7-.5 3.5.1 5.2.5q6.2 1.8 12.8 3c5.5 1.2 11.8 2 16.3-1.9 1.3-.7 3 0 4.3.2q3.5.7 6.9 1.7c7.8 1.9 16.4 4.2 24 .7 3-1.3 5.5-3.7 8.6-4.4 5.1-1.1 9.6 2.4 13.8 4.8q1.8 1 3.4 2.4 2 1.5 4.3 2.4 3.7 1.4 7.7 2.1 2.2.6 4.3 1h12.9" class="b"/><path d="M9.7 40.8h14.6q6.7-.9 12.9-3 2.5-.9 5.2-1.2 3.4-.7 6.8-1.7c3.3-.8 6-3.1 9.5-3.5 2.9 0 5.8 1 8.5 1.9 5.2 1 10.3 2.8 15.5 3.5 2.8.4 6 .3 8.6-.9q1.2-.7 2.5-.8l2.6.3c8.5.7 17.3 1.9 25.8.6q3.5-.7 6.8-2 3-1.5 6-2.6c6.9-2.4 13.3-.5 19.8 1.8 3.8 3.1 8.4 5 12.9 7 1.8 1 4 .5 6 .6h8.6" class="b"/><path d="M9.7 36.1h14.6A80 80 0 0 0 35.5 33q7.3-.7 14.6-1.7c2.6-.4 5-1.5 7.7-1.7 3.2-.1 6.4.9 9.4 1.7 5.7 1.2 11.4 3 17.2 3.3q3 .2 6-.4c1.4-.3 2.9-.9 4.3-.7 5.4.9 10.9.6 16.3.4q7.8-.1 15.5-1.6c3.7-.8 7.3-2.2 11.1-2.7 6.8-.9 13.9-1.6 20.6-.6q3.8 2.7 7.8 5.2c1 .6 2.2 1.6 3.4 2h12.9" class="b"/><path d="M9.7 31.4h9.5q3 .2 6-.1l6.9-2.6q2.1-.2 4.2-.2 7.4-.2 14.6-.6c2.6-.2 5.2-.9 7.8-.7q4.7.6 9.4 1.6 5.5 1 11.2 1.8 6.9.8 13.7-.6c8.9 1 17.7 0 26.6-.2q7.8-.6 15.5-1.7a278 278 0 0 0 20.5-1.5c2 0 4.1-.6 6-.2l3.5 2.3 2.6 1.8q1.1 1 2.5 1h12" class="b"/><path d="M9.7 26.8h14.6c2-.4 3.8-2.3 6-2l19.8-.1c4.2-.1 8.6-.4 12.8.2 9.4 1 19 2.3 28.4 1 2.2-.3 4.6.3 6.9.2l11.1-.1q12.4 0 24.9-.6 7.4.1 14.6 0 7.7-.3 15.4-1.1c2 .2 3.4 2 5.2 2.5h12.9M9.7 22.1h14.6q1.6-.6 3.5-.5 23.1 0 46.3.3l18-.3q18 .4 36 .3c12.4 0 24.7.3 37-.1h2.6c.7 0 1.8.4 2.6.3h12M9.7 17.5h172.6M9.7 12.8h172.6M9.7 8.1h172.6" class="b"/></svg>