<svg xmlns="http://www.w3.org/2000/svg" id="a" width="1920" height="2400" viewBox="0 0 192 240"><defs><style>.b{fill:none;stroke:#fff;stroke-miterlimit:10;stroke-width:.3px}</style></defs><path d="M0 0h192v240H0z" style="stroke-width:0"/><path d="M9.7 231.9h172.6M9.7 227.2h172.6M9.7 222.5h69.6c3 0 6.3-.4 9.4-.3 31.2.7 62.4.2 93.6.3M9.7 217.9q13.8 0 27.5-.3 12-.2 24 .3c3.5-.2 7-.2 10.3-.8 4.6-.7 9.1-2 13.8-1.9 7.4.6 14.8 1.8 22.3 2.1q10.7.6 21.5.3 17.5.2 35.2 0 2.5 0 5.1.3h12.9M9.7 213.2h13.8l3.4-.2q2.2-.1 4.3.2 6.4-1 12.9-1c4.3 0 8.6.6 12.8 1q4.8-.5 9.5-1.1c3.2-.4 6.3-1.5 9.4-2.2 5.4-1.5 10-2 15.5-.6 7 1.4 14.2 2.6 21.4 2.7 5.7.4 11.5-.4 17.2 0q10.3.6 20.6.8 6-.1 12-.4c2.3-.2 4.6.7 6.9.8h12.9" class="b"/><path d="M9.7 208.6h14.6c2.2-.5 4.6-1.2 6.9-1 2 0 4 .7 6 .9 2.3 0 4.6-.5 6.9-.4q3.4.1 6.8.5l3.5-.4q10.6-.7 20.6-4c6.3-2.1 10.6-2.9 17.1-.7 4.6 1.1 9.1 2.3 13.8 2.7q7.7.6 15.4-.6a43 43 0 0 1 13.8.2c8.5 1 17.1 2.3 25.7 1.3q4 .6 7.7 1.4 6.9.1 13.8 0" class="b"/><path d="M9.7 203.9h14.6c1.8-.5 3.4-1.7 5.2-2.2a13 13 0 0 1 7.7-.1 47 47 0 0 0 22.3 1.4q7.5-1 14.6-3.3c8.4-2.5 13.7-4.1 22.3-1.3 4.2 1.3 8.5 2.7 13 3q4.2.2 8.5-.5 4.2-1 8.6-2c6.2-.6 12.6 0 18.9.6 4 .4 8 1 12 1q4 1 7.7 2.3c1 .4 2.4.8 3.4 1q2.2.1 4.3.1h9.5" class="b"/><path d="M9.7 199.2h14.6c2.4-1 4.5-3 6.9-4 2.6-1.2 5.8-1.7 8.6-.8 7.2 4.4 15 4.6 23.2 3.2 8.9-1.2 17.6-3.6 26.6-4.4 3.4-.3 7-.5 10.3.6 9.7 3.4 14 3.9 24 1 3.9-1 8-1.1 12-1.5q8.6-1 17.2-.8a5 5 0 0 1 2.6.7l3.4 1.7 5.2 2.2c1.6.8 3.3 1.8 5.1 2.1h12.9" class="b"/><path d="M9.7 194.6h13.8c1.2.2 2.4-.7 3.4-1.4l3.4-2.6c3.4-2.6 7.6-5.2 12-4 2.1.9 4 2.5 6 3.5q4.1 2 8.6 2.5 8.3 0 16.3-1.1 7.4-.8 14.6-2 3-.5 6-1.4a10 10 0 0 1 6-.6c2.7.6 5.2 2 7.8 3q5.4 2.3 11.1 1.5c3.8-.4 7.5-1.4 11.2-1.5q9-.6 18-3c1.1-.1 2.4-.7 3.5-.5q3.6.6 6.8 2.2 5.3 2.5 10.3 5.2c1.7.4 3.5 0 5.2.2h8.6" class="b"/><path d="M9.7 190h14.6C32 187.4 37 177 45.8 178.2c1.6.6 2.9 2 4.3 3 6.4 5.3 12.7 5 20.6 4.9q5.2-.4 10.3-1.1c3.7-.6 7.5-1 11.1-2.3 2.1-.7 3.9-2.5 6-3 3-.2 5.5 1.9 7.8 3.4q3.1 2.4 6.8 4c4.7 1.5 9.8 1 14.6.8 3.2 0 6.4.2 9.5-.2q5.7-1 11.1-2.8c4-.6 8.2-.7 12 .7 3 1 5.8 2.7 8.6 4 1.7.5 3.5.2 5.2.2h8.6" class="b"/><path d="M9.7 185.3h9.5q3 0 6-.2c3.9-1.4 7.2-4.1 10.3-6.8 3.8-3.3 7.7-7.4 12.9-8.4 1.3-.4 2.4.8 3.4 1.6 4.8 4.6 9.7 6.5 16.3 7q6 .5 12-.4 4.8-.5 9.5-1.5 1.7-.6 3.4-1.4c1.2-.7 2.4-2 3.4-2.9 4-3.1 7.7 2.2 10.3 4.8 5.1 5.9 11.2 8 19 8.1 2.2 0 4.5-.6 6.8-.6q3.4 0 6.9.6c3.4-.7 6.8-1.9 10.3-2.6 4.2-1 8.7-1.6 12.8 0 2.3.7 4.6 2 6.9 2.6h12.9" class="b"/><path d="M9.7 180.6h14.6c10.8-2.3 17.4-12.1 26.6-17.2 2.3-1.3 3.4.5 5.2 1.6q2.9 1.8 6 3a54 54 0 0 0 19.7 2.2c3.2-.2 6.5-.2 9.5-1.2 3.1-1 3.9-5 6.8-6.3 5.7-1.6 9.8 14.1 20.6 17.8q4.4-1 8.6-1.7 5.1-1.4 10.3-.5a43 43 0 0 1 9.5 2.3l1.7-.5c8.5-2.4 10.4-2.9 18.9 0 1.8.8 4 .4 6 .5h8.6" class="b"/><path d="M9.7 176h9.5c2-.1 4 .1 6-.2 10.8-3.9 19.2-12.1 27.5-19.8.8-.8 2.1-1.7 3.4-1.7l1.7.6 6 1.7q9.4 2.5 18.9 5.5c3 .8 6.4 1.6 9.4.5 1.4-1 2.3-3 3.5-4.3 3.4-4 7-1 9.4 2.3 3.9 5.4 7 11.7 12.9 15.2.8 0 1.8-.6 2.6-.9l3.4-1.3c4.4-1.4 9-3.1 13.7-2.1 4.1 1.2 8 3 12 4.4 8.6-3 10.3-2.8 19-.1 1.6.3 3.4 0 5 .1h8.7" class="b"/><path d="M9.7 171.3h14.6c2.4-.7 4.7-2.1 6.9-3.2q5.3-2.8 10.3-6 5.4-3.6 10.3-7.8c1.4-1.2 2.7-2.9 4.3-3.9l3.4-.8c6.4-1.3 13 0 18.9 2.6 4.2 1.7 8.3 4.2 12.9 4.3 1.3-1.1 2.2-3.1 3.4-4.3 3.2-3.5 6.2-1.6 8.6 1.6 4.4 5.4 8.2 14.3 14.6 17.4 6.4-3.7 13.3-6.4 20.6-3.7 3.1 1.1 6.2 2.7 9.4 3.7 4.6-1.8 9.7-3.5 14.6-2 2 .7 4.2 1 6 1.9 1.7.4 3.5.1 5.2.2h8.6" class="b"/><path d="M9.7 166.6h9.5c2-.1 4 .3 6-.2 7.7-4.3 15.8-7.5 24-10.6l4.3-2q1.6-1 3.4-1.6c2.8-1 5.2-3 7.8-4.4 11.5-7.2 15-2.4 25.7 1.8 1.1-.4 1.9-1.9 2.6-2.7 1.3-1.6 3-3.4 5.2-3.4 7.1.8 11.3 19 21.4 23 7.5-4.6 14.6-2.7 22.3.1 12.8-4.4 14.8-4.9 27.5 0h12.9" class="b"/><path d="M9.7 162h9.5c2-.2 4.1.2 6-.3 9.4-5.5 15.8-7 26.6-7 5.2-.2 7.3-.6 11.2-4.2 5.3-4.4 11-13.5 18.8-11.8q2.8.7 5.2 2.2c1 .6 2.2 1.6 3.4 1.9.6-.2 1.4-1 1.7-1.6l2.6-2.8c5.2-5 9.2.7 12 5 4.4 6.6 8.4 14 16.4 16.9 3.6 1.5 7.5.3 11.1-.6q6-1.5 12-2.3c5.2-.8 10.6-.7 15.5 1.4l5.1 2c1 .5 2.3 1.3 3.5 1.2h12" class="b"/><path d="M9.7 157.3h13.8c1.2.2 2.4-.6 3.4-1.2l4.3-2.1c7.1-3.4 14.1-2 21.4-.1q2.6.8 5.2.1c3-1.2 5.5-3.7 7.7-6 4.8-4.6 10.7-15 18-14.3q2.9.4 5.2 2c.8.6 1.6 1.5 2.6 1.5 2.5-2.6 4.8-6 8.6-7 6-1.1 11.6 10.5 15.4 14.5 3.3 3.8 8.4 8 13.7 6.3q4.2-1.5 8.6-2.4 3 .1 6 .5a50 50 0 0 1 16.3 3.8q4.4 2 8.6 4.2c1.6.5 3.5.1 5.2.2h8.6" class="b"/><path d="M9.7 152.6h13.8c1.2.2 2.4-.5 3.4-1q2.2-1.2 4.3-2c7.2-3.6 13.7-.5 20.6 2 2.1.9 3 1.4 5.1.2q4.3-2 7.8-5.3 4.8-4.7 9.4-9.6c2.3-2.3 4.7-4.6 7.7-5.8 4.3-1.6 6.9.3 10.3 2.4 2.6-2.1 4.8-5 7.8-6.5 4.6-2.7 8.8.4 12 3.7 2.5 2.6 5 5.6 7.7 8 3.4 3.2 6.6 5.6 11.2 3q3.3-1.2 6.8-2c2.4.1 4.7 1 7 1.7q5.7 1.8 11 4.3c3.9 1.8 7.5 4.1 11.2 6q1.3.6 2.6 1h12.9" class="b"/><path d="M9.7 148h9.5c2-.1 4 .2 6-.2 2.6-1 5-2.5 7.7-3.4 3.3-1.3 7-1 10.3.2q3 1 6 2.3c1.3.5 2.8 1.2 4.3 1 3.4-1 6.4-3.1 9.4-5 3.7-2.1 7-5 10.3-7.8 4.2-3.5 8.9-7.8 14.6-7.1q2.3.3 4.3 1.2c1.3.2 2.6-.7 3.5-1.5L98 126q2.5-1.2 5.2-1.4 2.6-.6 5.1.1a22 22 0 0 1 7.8 4.6q4.2 3.8 8.6 7.2c1.3 1.2 3.3 2.7 5.1 1.5q3.4-1.6 6.9-2.8 1.6-.6 3.4 0 2.6.5 5.2 1.4c7.9 2.6 14.4 8.2 22.3 11 1.9.7 4 .3 6 .4h8.6" class="b"/><path d="M9.7 143.3c5.2-.1 10.4.2 15.5-.1 5.9-2 10.7-4.9 17.2-3.1 2.9.6 5.6 2.1 8.5 2.6 5.6.6 11-2.2 15.5-5.1 6.8-4.3 12.4-10.5 19.7-14q2-.9 4.3-1.2 1.8 0 3.4-.5c1.6-.6 3-1.8 4.3-2.7q2.4-1.6 5.2-2c5.8-.4 10.4 4.1 14.6 7.6q5.3 5 11.1 9.1c1.2.1 2.4-1 3.5-1.3 1.9-.8 3.9-2 6-2 6.7 1.4 12.8 5 18.9 8a42 42 0 0 0 11.1 4.6q6.9.1 13.8.1" class="b"/><path d="M9.7 138.6H20c2 0 4.1.3 6-.3a32 32 0 0 1 22.4-1.2c4.6.8 9.4-.3 13.7-2.2 5.6-2.4 10.8-5.6 16.3-8.3 4.7-2.4 9.7-4.1 14.6-5.9 4.2-2 7.1-6.7 12-7.2 7.6-.6 14.4 7.5 19.8 12 1.6 1.5 3.3 3.2 5.1 4.3 1.2.4 2.5-.2 3.4-.8 1.6-.8 3.4-2 5.2-2.2a24 24 0 0 1 8.6 2.5c6.5 3 12.6 7.2 19.7 9 2 .5 4 .3 6 .3h9.5" class="b"/><path d="M9.7 134c5.2-.1 10.4.2 15.5-.1 5.4-1.5 10.7-3.3 16.3-3.8q5.2-.3 10.3-.5 3.8.1 7.7-.5c6.1-1.3 11.9-4 18-5.1 7-1.4 14.2-.3 19.8-5.6 2.2-1.8 4.2-4.2 6.9-5.3 7.4-2.9 14.3 4.2 19.7 8.5l4.3 3.6c.7.6 1.7 1.4 2.6 1.5 1.6.3 3-1 4.3-2 1-.6 2.2-1.6 3.4-1.9 3-.4 6 .6 8.6 1.9 7.2 3.4 14 8.6 22.3 9.3h12.9" class="b"/><path d="M9.7 129.3h14.6a88 88 0 0 0 19-7.3c3.4-1.5 7.1-4 11-2.9 1.8.3 3.5 1.1 5.2 1.2 4.9.5 9.8-.8 14.6-.8q4.4 0 8.6.8c2.8.4 5.7 1 8.6.4 4.4-.7 7.7-4 11.1-6.7 8.8-6.2 18.6 3.1 25.8 7.9 1.6 1.3 3.4 1.7 5.1.2 1.9-1.6 3.6-3.9 6-4.3 5.5-.7 10.1 3.4 14.6 5.9s9.4 4.9 14.6 5.5q6.9.1 13.8.1" class="b"/><path d="M9.7 124.7h14.6c6.4-1.6 12.2-5 17.2-9.2q3-2.7 6-5.6c1.9-1.7 4-4.8 6.9-3.8 1.6.4 2.9 1.8 4.3 2.6q2.3 1.5 5.1 2.3 5.2 1.3 10.3 2.4 5.2 1.4 10.3 3 4.7 1.7 9.4.2c5.7-1.7 9.1-6.8 15.5-6.3 6.8.6 12.9 4.3 18.9 7.3 2 1.4 3.7.7 5.1-1.1q1.6-1.8 3.5-3.4c3.2-3.1 8-.3 11.1 1.7 6.5 4.6 13.3 9 21.5 9.9h12.9" class="b"/><path d="M9.7 120h14.6C35.5 117 45 109 51 99.2c1-1.2 1.7-3.6 3.5-4 1.3-.4 2.4.8 3.4 1.6q4 3.4 8.6 6.1 5.8 3.2 12 6c5.3 2.3 11.5 4.4 17.2 2 4.4-1.8 7.7-4.6 12.8-4.2 3 .1 5.8 1 8.6 1.8l11.2 3.3c2.5 1.3 3.7-1 5.1-2.6 1.6-1.6 3-3.7 5.2-4.5 5.2-.5 9.7 5 13.7 7.7 5 4 11 6.6 17.2 7.6h12.9" class="b"/><path d="M9.7 115.3h13.8c2.3 0 4.6-1.2 6.8-1.8q5.3-1.7 10.3-4.3a40 40 0 0 0 13.8-16.5c3.3-2.9 12 4 15.4 5.7q5.8 2.8 12 5.2c5.3 2 9 3 14.6 1.4q3.8-1.2 7.7-2 6-.6 12 0c20 1.6 10 4 21.5-6.3 4-1.6 8.5 3.9 11.2 6.3q3.6 3.6 7.7 6.5 5.7 3.7 12 5.7c1.7.3 3.5 0 5.2.1h8.6" class="b"/><path d="M9.7 110.7h14.6a107 107 0 0 0 13.8-4.6 27 27 0 0 0 13.7-11.4c1.5-2.2 2.3-5.4 4.3-7.3 5.3-1.8 10.7 1 15.4 3.4 4.5 2.3 9 5 13.7 6.8q2.6 1.1 5.2 1.5c2.8.3 5.8 0 8.6-.1q8.6 0 17.2-1.2 6.8-1.2 13.7-1.9 1.5-.8 2.6-2.2 1.8-2 4.3-3.5c2.8-2.2 9 4.8 11.1 6.7q3.3 3.4 6.9 6.4 5.8 4.5 12.9 7c1.8.7 4 .3 6 .4h8.5" class="b"/><path d="M9.7 106h9.5q3 .2 6-.2c6.3-2.4 13.3-2.7 19.7-5 3.7-1.4 6.6-4.4 8.6-7.7 1-1.5 1.9-3.8 3.4-4.8 3-1.4 6.2-2.7 9.5-3 7.5-.6 14.4 3.4 21.4 5.5 2.8 1 5.8.8 8.6 1.5a36 36 0 0 0 18.9 0c5-1.4 9.7-3.7 14.6-5.3 1.3-.7 2.4-2 3.4-3a12 12 0 0 1 4.3-2.5c1 0 1.9 1 2.6 1.5q2.3 2.1 4.3 4.4c2.7 3.2 5.5 6.7 8.6 9.6a39 39 0 0 0 16.3 9h12.9" class="b"/><path d="M9.7 101.4h14.6q4.2-1.3 8.6-1.8c6-.5 12.9 1.2 18-2.7 2.1-1.5 3.5-3.9 5.2-5.7q1.6-1.2 3.4-1.6c5.7-2.4 11-5.9 17.2-6.8 4-.8 8-.4 12 .3q2.6.3 5.2 1c3.3 1.3 6.7 2.8 10.3 3.3C113 89 121.7 85 129 80.1c3.1-1.9 5-5.8 8.6-6.7 1 .2 2 1.3 2.6 2q1.9 2.1 3.4 4.4c3 4.1 5.9 8.5 9.5 12.1a37 37 0 0 0 16.3 9.5h12.9" class="b"/><path d="M9.7 96.7h14.6c2.3-.5 4.6-1.1 6.9-1q4.7.1 9.4 1c2.3-.2 4.7-.5 6.9 0 1.9 0 3.7-1.2 5.2-2.3 1-.9 2.1-2.3 3.4-3 1-.4 2.3-.2 3.4-.4 2.8-.6 5.3-2 7.7-3.4 6.3-3.7 11.9-9 19-11.2q3.2-1 6.8-.6c1.5.4 3 1.5 4.3 2.3a29 29 0 0 0 12.9 4 25 25 0 0 0 19.7-7.1c2.6-2.7 4.2-6.7 7.7-8.3 3.1 1.8 5 5.3 7 8.2 2.3 3.7 4.7 7.7 7.6 11.1a35 35 0 0 0 17.2 10.7h12.9" class="b"/><path d="M9.7 92h14.6l3.5-.5q2.5-.2 5.1.1c1 .2 2.4.5 3.4.2 5-1.1 10.8-2.7 15.5.2l2.6-2c1.4.2 2.8.9 4.3.8a25 25 0 0 0 12.8-5.4q5.4-4.2 10.3-8.8c3-2.7 5.9-5.6 9.5-7.3 1.3-.8 3-.5 4.3.5L99 72q4.5 2.9 9.4 4.4c7.2 2.2 16.3 3.9 21.5-3 2.8-3.6 4.2-8.3 7.7-11.2 1 .1 1.9 1.3 2.6 2q2.6 2.3 4.3 5.3c2.2 3.5 4.3 7.3 6.9 10.6a32 32 0 0 0 18 11.9h12.9" class="b"/><path d="M9.7 87.4h14.6q2.6-.5 5.2-.5 1.6 0 3.4.4c2.6-.1 5.2-1.1 7.7-1.5q4.8-1 9.5.7l1.7.8h1.7l1.7-.7c3-1 6.5-.4 9.5.6 3 .3 12-6.5 14.6-8.7q4.6-3.9 8.5-8.5c2-1.9 3.5-4.6 6-5.6 1.6-.5 3 .8 4.3 1.5l4.3 2.8a84 84 0 0 0 13.8 6.9c9 3.5 13.3 0 17.1-8.2 1.3-2.2 2.9-6.9 5.2-7.8 4.2.4 9.1 11.4 12 14.8q6.9 10.3 18.9 13h12.9" class="b"/><path d="M9.7 82.7h14.6c2-.3 4-.8 6-.6 1.7 0 3.5.5 5.2.5 3-.5 6.3-1.2 9.4-.9 1.7.1 3.5.8 5.2 1 2.1.2 4-1 6-1.6q5-.7 9.4 1.5c5-3 10.6-4.4 15.5-7.5 4-2.7 7.4-6.4 10.3-10.2 3.7-5.3 5.7-3 10.3-.4 4 2.5 7.9 5.3 12 7.6 5 2.9 11.8 5.4 16.3.4 2.6-3 4.2-6.8 6-10.2.7-1.1 1.5-2.8 2.6-3.5 2-.7 3.9.8 5.1 2.2 3.2 3.5 5.6 7.8 8.6 11.3a29 29 0 0 0 15.5 10c1.9.6 4 .3 6 .4h8.6" class="b"/><path d="M9.7 78h14.6c1.7-.4 3.4-1.3 5.2-1.6 3.3-.7 6.9-.4 10.3-.3q3 .1 6-.5a11 11 0 0 1 6.8-.4c1.7.6 3.4 1.5 5.2 1.4 3.5-.3 6.8-1.6 10.3-2 4.3-.7 8.8-.9 12.9-2.5 11.9-4.9 10.6-14.9 18.9-10.3 9 4.2 21.2 16.9 30.9 7.6 1.6-1.8 3-4.2 4.3-6.3 1.3-1.9 2.3-5.2 5.1-5 4.2.5 7.5 6.7 10.3 9.7 9.9 12 17.8 10.1 31.8 10.3" class="b"/><path d="M9.7 73.4h13c1 0 2.4 0 3.3-.8l4.3-2.3q5-2.1 10.3-3 4.5-.7 8.6-2.5c2.1-.8 4.2.2 6 1.2 2.6 1.4 5.7 1.8 8.6 2l8.6.8a25 25 0 0 0 16.3-4c1.8-1.3 3.3-3 5.1-4.2q2.2-1 4.3-.2 2.2.7 4.3 1.7c3.7 1.6 7.4 3.7 11.2 5.1 5.8 2.3 13.4 2.5 18-2.3q2.4-2.6 4.3-5.5c.9-1 2-2.6 3.4-2.8 4.4-.4 7.5 4.7 10.3 7.4 10 11.5 19 9.1 32.7 9.4" class="b"/><path d="M9.7 68.7h13.8q1.3.1 2.5-.8c4.2-2.6 8.4-5.5 13-7.6 4-2 8.5-3.4 12.8-5.1q1.5-.3 2.6.6c1.5.7 2.8 1.9 4.3 2.7Q63.6 60.9 69 62a32 32 0 0 0 22.3-2.4c1.5-.9 3.4-1.6 5.1-1.2l6 1.8c8.6 2.9 18 5.9 26.7 1.8 2.7-1.3 4.7-3.9 6.8-6 5.4-6 12 4 16.3 7q4.6 3.7 10.3 4.9c6.5 1.3 13.2.7 19.8.8" class="b"/><path d="M9.7 64h9.5c2 0 4 .3 6-.2 4.9-2.5 9.3-5.8 13.7-9 3.7-2.7 7.6-5.3 12-6.7 1.4-.4 3-1.1 4.3-.7 2 1.3 3.9 3 6 4Q68 55.2 75.8 56c5.8.6 11.5-.3 17.2-1.1 2.3-.1 4.6 1 6.9 1.4a74 74 0 0 0 18.8 2.3 33 33 0 0 0 11.2-2.3c2.1-1.2 4-2.9 6-4.1 4.7-3.8 10.8 2.9 14.6 5.4q4.6 3.4 10.3 5 4.2 1 8.6 1.5h12.9" class="b"/><path d="M9.7 59.4h14.6c1.5-.2 3-1 4.3-1.5q6.6-2.7 12-7.4c3.8-3 7.4-6.6 12-8.2 3.1.9 5.7 3 8.6 4.2q5.3 2.5 11.2 3.2 3.4.2 6.9-.1 6.4-.2 12.8.8c1.7.3 3.5 1.1 5.2 1.4q5.5 1.1 11.1 1.3a61 61 0 0 0 20.6-1l3.5-1.6c2.7-1.2 5.6-2.5 8.6-2.6q3 1.3 6 3.1c3.2 2 6.6 4 10.3 5.2q6 2 12 3.2h12.9" class="b"/><path d="M9.7 54.8h14.6c5.4-1 10.9-2.7 15.5-5.7q3.5-2.4 6.8-5c2.5-1.9 3-2.2 6-1.9 3.3.4 6.3 1.9 9.5 2.5 6.7 1.6 11.5.3 18-1.1q4.8-1.1 9.5.4c2.5.9 5 2.2 7.7 2.6q9 1.4 18 1.5 6.4 0 12.9-.8 5-1.4 10.3-2.1 2.2-.3 4.3-.2 1.4-.1 2.6.6 5.4 2.7 11.1 4.8l7.8 2.5c1.7.5 3.4 1.5 5.1 1.9h12.9" class="b"/><path d="M9.7 50h14.6a34 34 0 0 0 18.9-9.3l2.6-2.3q1.2-.6 2.6-.8c4.9-1.3 9.7 1 14.5 1.8 4.9 1 9.8.5 14.6 0 3.7-.3 7.5-1 11.2-.4 1.7.2 3.5 1 5.1 1.3q8.6 1.5 17.2 1.7c3.7.1 7.5.4 11.2 0 6.3-.4 12.6-1 18.9-.8q3.4 0 6.8.2l6 2.5c5.2 2 10.2 4.6 15.5 6.2h12.9" class="b"/><path d="M9.7 45.4h14.6a31 31 0 0 0 18-10.2q3.7-2.1 7.8-3c4-.8 8 .5 12 1.2l5.1 1 7 .5c4.5.4 9.1.5 13.7 1.3l6 1.4q5.5.7 11.1.5 7.8-.1 15.5-.7 4.2-.7 8.6-1.3c5.4-.2 10.9 1 16.3 1.7l6 1q4.8 2.7 10.3 4.5 3.8 1.2 7.7 2.1h12.9" class="b"/><path d="M9.7 40.8c5.2-.1 10.4.2 15.5-.2q7.7-1.8 13.7-6.9c4.7-1.9 9.5-4.2 14.6-5q7-.5 13.7 1.2c4.6.2 9.2 1.2 13.8 1.8 4.3.6 8.6 1.7 12.8 2.4q5.6.8 11.2.6 8.2-.1 16.3-.8c3.2-.4 6.3-1.4 9.5-1.7 5.8-.3 11.5 1.6 17.1 2.8l6.9 1.6Q160 39 166 40q1.6.4 3.4.7h12.9" class="b"/><path d="M9.7 36.1h14.6q1.8-.3 3.5-.9 4-1.2 7.7-3 3-.9 6-1.4c6.3-1.6 12.4-3.7 18.9-4.4q3.9-.3 7.7.4c5.8.1 11.5 1.6 17.2 2.2 3.4.4 6.8 1.3 10.3 1.6q6.9.8 13.7.7 5.6.2 11.2 0 5.2-.4 10.3-1.8a33 33 0 0 1 13.7 1.3q6.4 1.6 12.9 2.7 4.5 1.6 9.4 2.3 3.4.4 6.9.3h8.6" class="b"/><path d="M9.7 31.4q7.8.2 15.5 0l6.9-1.9 3.4-.2q8.6-.5 17.2-2.3c4.2-.7 8.4-2.4 12.8-2.3q4.8 0 9.5.3l13.7 1q12.8 1.9 25.8 2.3 6.4.5 12.8-.4 2.6-.4 5.2-1 3-.5 6-.3c4.9.4 9.7 1.7 14.6 2.5q3.8.7 7.7 1 2.6.6 5.2 1 3.8.5 7.7.3h8.6" class="b"/><path d="M9.7 26.8h14.6q2.2-.3 4.3-.7 9-.1 18-.5 5.3-.3 10.3-1 5.6-1.3 11.2-1.4c2.8.2 5.7-.1 8.6 0q6.8 0 13.7 0l23.2 1.8q7.2.5 14.6 0c3.7-.4 7.4-1.1 11.1-1 7.8.4 15.5 2 23.2 2.1q3.5.2 6.9.7h12.9M9.7 22.1c17 0 33.8.1 50.7-.5h12.9q9-.7 18-.8c7.4 0 14.9.6 22.3 1l19.7-.1q11.7-.2 23.2.2 12.9.2 25.8.2M9.7 17.5h172.6M9.7 12.8h172.6M9.7 8.1h172.6" class="b"/></svg>