<svg xmlns="http://www.w3.org/2000/svg" id="a" width="1920" height="2400" viewBox="0 0 192 240"><defs><style>.b{fill:none;stroke:#fff;stroke-miterlimit:10;stroke-width:.3px}</style></defs><path d="M0 0h192v240H0z" style="stroke-width:0"/><path d="M9.7 231.9h172.6M9.7 227.2h172.6M9.7 222.6h64.4c6 .1 12-.5 18-.4q6.9 0 13.8.4h76.4M9.7 218h13.7q1.6-.1 2.6-1.2c14 .4 28 .9 42.1.7 7.2-.4 14.3-2.6 21.5-2.2q6.4 0 12.9.9 6.8.7 13.7 1.2 25.7.6 51.5-.3c1.7 1.3 4 .7 6 .8h8.6M9.7 213.3h14.6c2-1 3.3-3.1 5.1-4.3 4.4.1 8.7 1 13 1.6q6 .8 12 1.2 7.6.9 15.4.4c4.4-.4 8.7-1.7 12.9-3q4.2-1.6 8.6-1.2 5.2-.4 10.3 1 8 2 16.3 2.7 5.2 0 10.3.3c12 1.1 24.3 1.2 36-1.5 2 .5 3.4 2.1 5.2 2.8h12.9" class="b"/><path d="M9.7 208.6h12.9q1.3 0 2.6-.3c2.6-1.9 4.9-4.4 7.7-6 6.7 1 13 3.7 19.7 4.6a44 44 0 0 0 21.5.3c3.7-1 7-3 10.3-4.7 2.1-1 4.5-1.9 6.9-1.6 4-1 8.2-.2 12 1.2q7 2.9 14.6 4.1c2.8.3 5.8 0 8.6.3 2.8.4 5.7 1.2 8.6 1.4q12.6 1 24.9-2c2-.5 4.1.4 6 1 1.1.5 2.3 1.4 3.4 1.7h12.9" class="b"/><path d="M9.7 204h14.6c2.9-1 5.2-3.5 7.7-5.1 4.3-2.9 4.2-2.3 8.6-.4 3.6 1.7 7.3 3.4 11.2 4.3 1.4.3 2.8 1 4.3 1a36 36 0 0 1 10.3-.7q3 .2 6 .8c4.8-1 9-4 12.9-7q3-2.3 6.8-2.6 3.4-1.4 6.9-.5c3.6.9 7 2.8 10.3 4.3a30 30 0 0 0 15.5 3.1q3-.4 6 .7 3 .7 6 1 10 .6 19.7-2c2.5-.6 5.3.1 7.8.8 1.7.5 3.4 1.7 5.1 2.2h12.9" class="b"/><path d="M9.7 199.3H20c4.5 0 4.8.4 8.6-2.3 2.9-2 5.8-4.5 9.4-4.8q1.5-.2 2.6.7l3.4 2.2q4.2 2.5 8.6 4.1c7.1-2.8 15.2-2.2 22.4 0 5.3-1.7 9.2-6 13.7-9q1.6-1 3.4-1.4l2.6-1.4c3.6-1.4 7.3.8 10.3 2.7q3.7 2.5 7.7 4.6a25 25 0 0 0 15.5 2.4q1.3.1 2.6.5 2.1.5 4.3.6c6.4.5 12.8-1 18.9-3q3.8-.3 7.7.8 3.6 1.1 6.9 3c1.6.5 3.5.2 5.1.3h8.6" class="b"/><path d="M9.7 194.6h14.6a8 8 0 0 0 2.6-1.1c4.7-2.9 9.5-8 15.4-5 3.1 2 6 4.6 9.5 6 5.7-3.2 12.7-2.7 18.9-1.3 4.8 1 3.9 2.3 8.6-.3 4.4-2.3 7.6-6.5 12-8.7 2.2-.7 3.6-3.1 6-3.4 7.6-.8 13 13.4 27.5 13.6q2.2 0 4.3-.5 3 .6 6 .6c5.4-.1 10.6-2 15.4-4.2q5.2-1.4 10.3.3 4 1.5 7.8 3.8c1.6.4 3.5.1 5.1.2h8.6" class="b"/><path d="M9.7 190h9.5c2-.2 4 .2 6-.3 5.7-3 10.9-10 18-6.1 3.4 1.6 6 4.7 9.4 6.3 4.2-2.3 9.2-2.2 13.8-1.4l4.3.9c1 .2 2.3.7 3.4.2q5.1-1.5 9.5-4.7c2.8-2 5.3-4.6 8.5-6 2.3-1.5 3.7-4.9 7-4.6 5.7 1 10.4 12 18.8 15.5 1.1 0 2.3-.7 3.4-.9a15 15 0 0 1 7.8.2q5.2-.9 10.3.8c3-.8 5.8-2.4 8.6-3.8 7.8-3.3 12-1.6 18.8 2.7q1.3.8 2.6 1.1h12.9" class="b"/><path d="M9.7 185.3h13.7q1.6 0 2.6-.9l3.4-2.6c5.3-4.3 9.8-7 16.4-3.2 2.4 1.1 4.6 3 6.8 4.5 5 3 11 1.7 16.3.7 4.5-.8 9-1.7 13-4q3.4-2.1 6.8-4.5c1.3-1 3.2-1.2 4.3-2.4 8.7-15 12.6 5.5 23.2 12.3q5.5-3.7 12-2.1c1.4 0 2.9-.4 4.3-.2q4 .6 7.7 2.2c1.5-.1 3-1.2 4.3-1.8 4-2 8.3-4.5 12.9-3.9 3.9.6 6.9 3.4 10.3 5.2 1.7 1.2 4 .5 6 .7h8.6" class="b"/><path d="M9.7 180.6h14.6c1.3-.3 2.4-1.5 3.4-2.2 2.3-2 4.5-4.2 6.9-5.8q6.1-4.2 12.9-1.3c3.4 1.2 6.6 3.4 10.3 3.9q2.6.1 5.1.1 7 .8 13.8-.8c5.6-1.1 9.7-6.2 15.4-6.7 1-1 1.8-2.8 2.6-4 2.7-4.1 5.4-4.8 8.6-.5 4.3 5.7 7.1 12.8 12.9 17.3 3.9-3.2 7.3-2.8 12-2.6q2.2-.3 4.3 0c2 .2 4 .9 6 1.3 1.4.2 2.8 1.1 4.3 1.1 4.9-1.8 10.1-6 15.4-5.5 2.6.3 4.8 2 7 3.4 1.2.8 2.7 1.9 4.2 2.3h12.9" class="b"/><path d="M9.7 176h12.9q1.3 0 2.6-.3c4.1-2.6 7.7-6.2 12-8.5 3.9-2.2 8.7-2.3 12.9-.7 1.7.5 3.3 1.5 5.1 1.9q3 1 6 1.4a39 39 0 0 0 18-3.2c4.4-2 8-6.2 13-6.5 1-1 1.7-3 2.5-4.2 2.5-4.2 5.2-5.8 8.6-1.4 5.2 6.8 7.6 16 14.6 21.2q1 0 1.7-.5l2.6-.8c2.5-.7 5.3-.8 7.7-1.9 6.4-2.2 11.6.6 17.2 3.3q1.4-.2 2.6-1l4.3-2c6.2-2.7 9.3-.1 14.6 2.9 1.6.5 3.5.2 5.1.3h8.6" class="b"/><path d="M9.7 171.3h13.7c1.3.2 2.5-.7 3.5-1.4l4.3-2.8c6.5-4.5 11.9-6 19.7-3.8q7.6 2.2 15.5 1c8.8-1 13.3-3 20.6-8 6.5-3.7 4.6.7 8.6-7.5 9-17.3 13.5 16.8 24.9 22.3 1.2 0 2.3-1 3.4-1.5q3-1.5 6-2.6 4.2-1.6 8.6-1c4.7 1.3 9.2 3.5 13.7 5.3 6.4-2.8 10-3.4 16.4-.2 1.6.4 3.4.1 5.1.2h8.6" class="b"/><path d="M9.7 166.6h9.5c1.9-.1 4 .3 6-.2q4.5-2.8 9.4-5.2a24 24 0 0 1 11.2-2.4q4.2.2 8.6.8h3.4a61 61 0 0 0 24-5c3.4-1.5 6.6-3.6 10.3-4.2 1.8-.8 2.7-3 3.5-4.7.9-2 2.1-4.3 3.4-6.1 4.5-6.4 8.3 2.2 10.3 6.1 2.2 4.5 4.2 9.4 6.9 13.7 1.7 2.8 4.3 5 6.8 7 1.8-.6 3.4-2.1 5.2-3q3.6-2 7.7-2.5c2-.4 4.1.1 6 .7q3.5 1 6.9 2.2l5.1 1.9c1.1.3 2.3 1 3.5.7 4.6-1.4 7.4-1 12 .2h12.9" class="b"/><path d="M9.7 162h9.5c2-.1 4 .2 6-.3q4.2-2.3 8.5-4.1 5.8-2.4 12-2.8 3.9-.2 7.8-.2c1 0 2.3-.5 3.4-.4q10-.6 19.8-2.9c4.3-1 8.5-2.6 12.9-3.5l2.5-.4c2.2-.6 3.4-3 4.3-4.9q2-4.7 5.2-8.8c4-4.8 7.6 2 9.4 5.4q3 6 6 12 2.2 3.7 5.2 6.8c1.3 1.3 2.5 3.2 4.3 3.9 3.5-3 8.2-5.4 12.9-5.1 5.9.6 11.5 2.8 17.1 4.4q1.7.6 3.5.8 2-.5 4.3-.5 2.5 0 5.1.6h12.9" class="b"/><path d="M9.7 157.3h13.7c1.2.1 2.4-.5 3.5-1l3.4-1.5a67 67 0 0 1 18.9-5.2q3-.4 6-1.3 14.2-2.1 28.3-3.3 4.4-.5 8.6-.2c3.2-.3 4.6-3.8 6-6.3 1.8-3 3.5-6.5 6-9 3.6-3.2 6.8 1 8.6 4 1.8 2.8 3.5 6.1 5.2 9a57 57 0 0 0 12 14.8q3.8-2.8 8.6-3.6c6.4-.4 12.7 1.6 18.9 3l2.6.6q2-.5 4.3-.5 2.6.1 5.1.5h12.9" class="b"/><path d="M9.7 152.6h14.6c1.7-.3 3.5-1.3 5.1-1.9l9.5-3.6c5.7-2.1 11.7-3.6 17.2-6.3q6.8-1.4 13.7-1.7 9 0 18 1.8c2.3.3 4.7 2 7 .7 1.8-1.1 3-3.4 4.2-5.1 2.5-3.5 4.6-7.9 8.6-9.8 5.6-2.2 10.7 9 13.7 12.6 2.4 3.1 4.8 6.5 7.8 9a22 22 0 0 0 7.7 4.3c6-2.2 12.7-1.2 18.9-.1 1.4.3 2.9-.3 4.3-.3q3-.5 6 0 3.4.5 6.8.4h9.5" class="b"/><path d="M9.7 148H20c2-.1 4.2.3 6-.6a182 182 0 0 0 28.3-13.9c1.6-1.6 4-2 6-2.7 9-2.3 17.8 1.5 25.8 5.2 2.3.9 4.6 2.6 6.9 3.2 2.7.2 4.3-2.7 6-4.3 2.2-2.4 4.3-5.1 6.9-7 7-5.4 12.7 3.1 17.1 7.8 2.1 2.2 4.3 4.8 7 6.4a37 37 0 0 0 14.5 5c4.9.5 9.8-.4 14.6-.5q5.3.2 10.3 1.4h12.9" class="b"/><path d="M9.7 143.3h9.5c2-.1 4 .3 6-.2q10.2-4.7 19.7-11l11.2-7.2c2.3-.6 4.5-1.9 6.8-2.5 9.2-3 16.3 3.5 23.2 8.5l4.3 3.2c.7.5 1.6 1.3 2.6 1.3 1.6-.4 3-2 4.3-3 3-2.3 6-5 9.4-6.7 8.2-3.8 14.6 4.8 20.6 9 2.9 1.8 6.3 2.5 9.5 3.5 2.5.7 5 1.9 7.7 2.3 5 1.2 10.3.2 15.5.7q4.7.8 9.4 2.1h13" class="b"/><path d="M9.7 138.7h9.5c2-.2 4 .2 6-.3 10.2-4.8 20.2-10.3 30.9-14 6.2-1 9.3-8 15.4-9.2 4.6-.6 8.2 3.3 11.2 6.1l8.6 8.7c1.2 0 2.3-1 3.4-1.6q2.6-1.5 5.2-2.7c9.8-5 16.2-2 24.9 3.5 1.3.7 2.8 1.8 4.3 2.3l5.1 1c3 .4 5.8 1.4 8.6 2.2q3.8 1 7.7 1.2c3.1.2 6.4 0 9.5.5l6 1.3c1 .2 2.3.8 3.4 1h12.9" class="b"/><path d="M9.7 134h9.5c2-.1 4 .2 6-.2 6.5-2.7 12.9-5.8 19.7-7.6 3.6-1 7.4-1.3 11.2-1.7 7 0 9.6-7.8 13.7-12.2 6.6-8.2 11.9.6 16.3 5.9l2.6 3.3c.6.8 1.5 2 2.6 2 11.5-5.2 19.2-3.7 30 2q3.8 2 7.8 3.6h6c3.7-.3 7.4 1 11.1 1.5 4 .7 8 .5 12 1q3.4.7 7 1.3 2 .5 4.2 1.1h12.9" class="b"/><path d="M9.7 129.3h14.6c2.6-.6 5.2-2 7.7-2.9a46 46 0 0 1 18-4.4c3.2 0 6.4 1 9.5.5 8.2-1.3 11.5-24.3 20.6-18 2.8 2.1 4.9 5.2 6.9 8 1 1.4 2 3.3 3.4 4.2.8.3 1.8-.2 2.6-.4q4.6-1.5 9.5-.7c8.4 1.2 15.5 6.4 23.1 9.8q1.6.7 3.5 1.3 2.5-.7 5.1-1 4.7-1 9.5-.2c5.7.9 11.5 1 17.1 2.3 2.6.6 5.3.6 7.8 1.4 4.5.3 9.1 0 13.7.1" class="b"/><path d="M9.7 124.7h14.6c3.3-.8 6.3-2.4 9.4-3.6 7.1-3 14-4.2 21.5-2.2 4.6 1.4 7.9-.6 10.3-4.5 3-4.2 5.1-9.2 8.6-13 3.7-4 7.3-2.1 10.3 1.4q1.8 2.1 3.4 4.4c1 1.1 1.8 3.2 3.5 3.5 10.5-3.9 19.7 3.3 28.3 8.3q3 1.8 6 3.2c2.1 1 3 1.5 5.2.4 2.7-.8 5.6-2 8.6-2.2 6-.1 12 1.5 18 2.5l4.3 1q2.6 0 5.1.4c2.3.5 4.6.3 6.9.3h8.6" class="b"/><path d="M9.7 120h14.6c3.3-.7 6.3-2.4 9.4-3.5 7.3-3.1 14-4.6 21.5-1.6q6 2 9.5-3.2c3.7-4.8 6-10.9 11.1-14.3 6.7-4 11.8 4.7 15.5 9 2.2-.5 4.5-1.6 6.9-1.7 8.3-.9 15 5.1 21.4 9.4q2.6 1.8 5.2 3.2c1.5 1 3.4 1.8 5.1.7 2.8-1.2 5.6-2.6 8.6-3.1 6.5-.4 12.7 2.4 19 3.8 2.7 1 5.6 1 8.5 1 5.4.5 10.9.2 16.3.3" class="b"/><path d="M9.7 115.3h14.6c3.3-.7 6.3-2.5 9.4-3.7 7.6-3.3 14-4 21.5 0 4.5 2.1 7.3-.1 10.3-3.3q3.5-3.9 6.9-7.9c2.8-3.2 6.8-6.4 11.1-3.8 3.5 1.8 5.9 5.1 8.6 7.8q1.5-.2 2.6-1l4.3-1.8c9-3.3 14.6 1.2 21.5 6.3 2 1.3 3.8 3 6 3.9 1.5.5 3-.4 4.3-1.2 2.6-1.2 5.6-3 8.6-2.7 8 1 14.9 7.3 23.2 7.4h19.7" class="b"/><path d="M9.7 110.7H20c2-.1 4.2.4 6-.5 4-1.7 7.9-3.8 12-5s8.3-1.1 12 .5c2.4.8 4.4 2.7 7 3 7.7-.2 14-8.1 21.4-10.2q3.5-1 6.9.2 2.3.8 4.2 2.1c1.1.7 2.2 2 3.5 2 1.9-.2 3.5-1.8 5.1-2.7 5.3-3.5 10.4-6.1 16.3-2.3q3.7 2.4 7 5.5c2 1.7 3.8 4.5 6.8 4.5 3.2-.7 6.3-2.3 9.4-3.4 3.7-1 7.7-.5 11.2 1 3.7 1.4 7.2 3.8 11.1 4.9 2.8.6 5.8.3 8.6.4h13.8" class="b"/><path d="M9.7 106h9.5q3 .2 6-.2c4.6-1.8 8.9-4.6 13.7-6a16 16 0 0 1 11.2 1q1.3.5 2.5 1.3a3 3 0 0 0 2.6.4c14-.8 21.6-5.1 36-.9 2.8.9 5-1.6 7-3 5.2-3.8 11.4-11.4 18-5.7q2.8 2.4 5.1 5.4c1.7 2.3 3.8 5 6.9 5.1 4.2-.4 8-3 12-3.6q6.1-1.2 12 .8c3 1 5.7 2.7 8.6 3.8q4.3 1.3 8.6 1.6h12.9" class="b"/><path d="M9.7 101.4h9.5c2-.1 4 .2 6-.2 3.5-1.4 6.9-3.4 10.3-5 3.4-1.8 7.3-3.2 11.1-2.3 2 .4 4 1.6 6 1.8h3.5l5.1.8c7.2.9 14.3 2.8 21.5 3.7 3.4.3 7 .3 10.3-.8 3.1-1.6 5.9-4 8.6-6.2 3.4-2.7 6.6-7 11.1-8 4-.3 6.6 3.6 8.6 6.4 2.5 4 5.3 6.9 10.3 5.6 2.3-.3 4.6-1.2 6.9-1.8a33 33 0 0 1 13.7-.3c6 1.3 11.2 5 17.2 6.3h12.9" class="b"/><path d="M9.7 96.7H20c2-.1 4.2.3 6-.5q5-2 9.5-4.7c2.6-1.6 5.4-3.4 8.5-3.8s5.8 1.1 8.6 1.4q1.8.2 3.5.5l5.1 2q6.4 2.7 12.9 5c6.5-2 9.9-2.4 16.3 0 4.4-2.5 9-5 12.9-8.2l6-5.4c2-1.8 4.8-4.1 7.7-3.2 2.3.8 3.9 3 5.2 5 2.6 3.7 5.5 6.3 10.3 6 2.3 0 4.6-.8 6.9-.8 11.1-.8 17.5.9 27.4 5.7q1.3.7 2.6 1h12.9" class="b"/><path d="M9.7 92h14.6q4.6-.7 8.6-3c4.7-2.4 10-8.8 15.5-7.7 2.5.7 5.3.8 7.7 1.8 4.7 3.2 9.4 6.5 14.6 9 4.2-2 9-3.8 13.7-2.5l3.4 1.5a4 4 0 0 0 1.8.7c.8-.5 1.7-1.4 2.5-1.8l3.5-1.4Q99 87 102.5 85c4.7-2.7 8.3-7 12.8-9.9 3.9-2.3 6.2 0 8.6 3a18 18 0 0 0 6 4.6c2.7 1.2 5.7 1.3 8.6 1.5 6 1.1 12.2 1.7 18 3.3q4 1 7.8 2.5c2 .6 3.8 2.2 6 2h12" class="b"/><path d="M9.7 87.4H20q3.5.1 6.9-.3c8-1.1 12-6.5 18-11q1.6-1.2 3.4-1.5 2.6 0 5.2.2c2.9 0 4.8 2.7 6.9 4.4 3.1 3 6.4 6 10.3 8 5.6-2.3 9.8-3.6 15.4 0 2-.4 3.3-2.7 5.2-3.4l4.3-1.1a60 60 0 0 0 18.8-9.7c3.8-2.8 7-5.3 11.2-1.6q3.2 2.5 6.9 4.3c1.9 1 4 1.4 6 2.1 5.6 3 11.9 4.7 18 6.2q4 .8 7.7 1.7c1.8.4 3.5 1.4 5.2 1.7h12.9" class="b"/><path d="M9.7 82.7h12.9c3.4 0 7 .2 10.3-1 4-1.4 7.3-4.6 10.3-7.7 1.8-1.7 3.6-3.9 6-5 1-.3 2.4-.5 3.4-.9 1-.3 2.3-.9 3.4-.6 4 2.3 7 6.2 10.3 9.2 4.8 4.5 11 7.7 17.2 4.1 2.2-1.1 4-3 6-4.3 1.3-1 2.9-.7 4.3-.9q3.9-.4 7.8-1.1a55 55 0 0 0 17.1-6.4c2.6-1.5 5.6-3 8.6-1.8q5.3 2 10.3 4.4c3.5 2.7 7.1 5.4 11.2 7.2q4 2 8.6 2.8 3.4.5 6.8.9c1.7.3 3.5 1 5.2 1.1h12.9" class="b"/><path d="M9.7 78h14.6c1.7 0 3.5-.4 5.1-.3l3.5.3c4.2-1 7.6-4 10.3-7.2 2.5-3 4.6-6.6 7.7-9l2.6-1.8q1-1.1 2.6-1.6c5.8 1.4 11.2 10.4 17.1 13.5 4.8 2.8 10 1.6 14.6-.7q1.6-.9 3.5-.8 2 .5 4.3.4c3.8-.2 7.5-1.4 11.1-2.5q5.8-1.6 11.2-4c3-1.5 6-3.5 9.4-3.9q4-.4 7.8.6a8 8 0 0 1 4.3 2 57 57 0 0 0 15.4 10.7q4.1 1.5 8.6 2.5c2 .6 4 1.5 6 1.8h12.9" class="b"/><path d="M9.7 73.4h14.6q3.4-.6 6.9-.7 2.2 0 4.3.6 1.3-.1 2.5-.8c4.9-2.2 8.2-6.7 11.2-11 1.8-2.8 4.1-5.4 6-8.2 4.6-5.3 10.4 1.1 13.7 4.6 2.8 2.8 5.7 5.8 9.5 7.2 5 2 8.3-1.3 12.9-.4 5.4 1.8 11-.6 16.3-1.8q6-1.3 12-3c3.1-1 6.2-2.4 9.5-3q3-1 6-1.1c1 0 2.4-.1 3.4.5 4.3 3 8.4 6.4 12.9 9.1a66 66 0 0 0 12 5.5c2 .7 4 2 6 2.5h12.9" class="b"/><path d="M9.7 68.7h14.6c4.5-.6 9.2-1.3 13.7-.2 1.5.4 3-.6 4.3-1.2 5-2.6 8.3-7.5 11.2-12.2 2.6-4.8 7.6-12 13.7-8.3 5.3 3.2 9.2 9 15.5 10.3 2.2.4 4.6.1 6.9.7 2 .6 3.9 1.6 6 1.7 4.6.1 9.2-1 13.7-1.6q10.4-1.3 20.6-3c2-.4 4-1.2 6-1.3q1.4-.2 2.6.2l4.3 2.4q5.4 3.3 11.2 6.1 5 2.3 10.3 4.2c1.7.6 3.4 1.8 5.1 2.2h12.9" class="b"/><path d="M9.7 64h14.6q4.7-.5 9.4-.7 4-.1 7.8.7 2.8-.4 5.1-2c6.2-3.7 8.2-11 13-16.1 1.9-2.3 4.4-4.8 7.6-4.9 5 .3 8.7 4.6 13 6.7 2.5 1.6 5.7 2 8.5 3 2.5 1 5 2.6 7.7 2.9 6 .6 12 .1 18 0l10.4-.5c2.2-.2 4.6 0 6.8-.3 6.7-1.7 7-.5 13 2.2a98 98 0 0 0 11 4.5c4.4 1.5 8.8 2.6 13 4.4 1.6.3 3.5 0 5.1.2h8.6" class="b"/><path d="M9.7 59.4q12.5.2 24.9-.3 3.5 0 6.9.3 2.2-.2 4.3-1c4.5-1.6 7.3-5.8 10.3-9.2 3.5-3.9 7.2-9 12.8-9.7q4.6.1 8.6 1.7c2.9 1.1 5.6 2.7 8.6 3.5 3.8 1.2 7.2 3.7 11.2 4.3 5.9 1.3 12 1.3 18 1.7q6-.4 12 0l3.5.2q1.6-.2 3.4-.4 3.4-.1 6.9.5l2.5 1.1c7.6 3.6 16 5 24 7 2 .5 4.1.2 6 .3h8.7" class="b"/><path d="M9.7 54.7h14.6q4.2-.7 8.6-.7c11.9.3 15.2-1 24-8.9 2.9-2.2 6-4.5 9.5-5.5q3.4-.9 6.8-.8 3.6.3 7 1.3 4.3 1.2 8.5 2.5c2.6 1 5 2.3 7.7 2.9a72 72 0 0 0 19 1.4c3 0 6.3-.3 9.4-.1q2.6 0 5.1.6l3.5-.3c3.1 0 6.3.8 9.4 1.5 2 .3 4 1.5 6 2.2a52 52 0 0 0 8.6 2.3q6 1 12 1.6h13" class="b"/><path d="M9.7 50h14.6c1.1-.1 2.3-.7 3.4-1q3-.7 6-1 5.3-.3 10.3-1.6c2.3-.7 4.7-1 7-2 3.1-1.4 6-3.6 9.4-4.8q4.2-1.6 8.5-1.4c4.4-.3 8.7.9 13 1.9l7.7 1.6q3 1 6 1.6c7 1.1 14.3-.1 21.4-.3 2.9 0 5.8-.3 8.6 0 2 .1 4 1 6 .3 4.7-.8 9.4.5 13.8 1.9q2.6.7 5.1 2 3 1 6 1.7c8.5 1.6 17.2 1 25.8 1.2" class="b"/><path d="M9.7 45.4h14.6c1.7-.5 3.4-1.5 5.1-2a63 63 0 0 1 7.8-2.3l5.1-1.2q3.9.1 7.8-.5c2.3-.3 4.5-1.3 6.8-1.7q3.8-.7 7.8-.6 4.3.3 8.5.8c4 .5 8 1.4 12 1.7q2.7 0 5.2.3 4.7 1 9.5.8c4.9-.1 9.7-1.2 14.6-1.7 4.2-.4 8.6-.6 12.8.2q1.3.4 2.6.4l1.7-.4q2.6-.3 5.2-.2c3.8.4 7.5 1.6 11.2 2.7 2.6.6 5.1 1.7 7.7 2.4q5 1.1 10.3 1c5.4.5 10.9.2 16.3.3" class="b"/><path d="M9.7 40.7h14.6c4.8-1.4 9.2-4.2 13.7-6.4 1.3-.8 3-.4 4.3-.5l7.8.2c2.2.1 4.6-.4 6.8-.2q4.8.5 9.5 1.7 8 1.6 16.3 2.5c2.8.3 5.7-.2 8.6-.2 7 1 13.9-1 20.6-2.6a36 36 0 0 1 17.2-.3q6-1.6 12-.3c4.3.9 8.6 2.4 12.9 3.3q3 1 6 1.7 4.7.5 9.4 1.1h13" class="b"/><path d="M9.7 36h14.6c3.8-.4 7.3-2.5 10.3-4.7 1.4-1.3 3.4-1.4 5.1-1.8q6-1 12-.1c6.4 0 12 3.1 18.1 4.4A51 51 0 0 0 90.4 35q6 .3 12-1c5.5-1.3 10.8-3.3 16.3-4 3.1-.3 6.4-.7 9.5 0q1.3.3 2.6-.2l3.4-.5q4.3-.4 8.6.4c4.6.9 9.1 2.2 13.7 3 1.5.1 3 .8 4.3 1.1q4 1 7.8 2.1 2.5.3 5.1.2h8.6" class="b"/><path d="M9.7 31.4H20c2.6 0 5.3.2 7.7-.5q2.3-.6 4.3-2l4.3-1.3c4.5-1.3 9.1-2.3 13.8-2q3.9.1 7.7 1c4.5 1.5 9 3.4 13.7 4.1q2.2.5 4.3.7 3.4-.5 6.9-.5 3 0 6 .5 3.4-.3 6.9-.3 4.2-.3 8.6-1.3c4.8-1 9.6-2.3 14.6-2.9q5-1.2 10.3-.7c1.6 0 3.4-.6 5.1-.7q3.8-.5 7.7-.2 6 .6 12 1.6 4 .4 7.8.9l4.3 2c1 .5 2.2 1.4 3.4 1.6h12.9" class="b"/><path d="M9.7 26.8c5.4-.1 10.9.1 16.3-.2l11.2-1.9c5-.8 10.2-1.6 15.4-1.5 5-.2 9.8 1.7 14.6 2.6 2.3.4 4.6 1 6.9.8q5.2-.5 10.3-.4c2.6.1 5.2.6 7.7.5 6 0 12-.9 18-1.5q3.5-.4 7-.6l7.7-1q3-.2 6-.2 4.2-.5 8.6-.7c6.5-.2 13.1.5 19.7.8l3.4.1c1.2 0 2.6 0 3.5 1 1 .6 2.2 1.8 3.4 2.1h12.9M9.7 22c14.9.3 29.8-.4 44.7-.7 5.7 0 11.4.6 17.1.7 3.4.2 7-.1 10.3 0h12.9q11.6-.2 23.2-.3a858 858 0 0 1 46.3-.3h3.5l1.7.7h12.9M9.7 17.4h172.6M9.7 12.8h172.6M9.7 8.1h172.6" class="b"/></svg>