<svg xmlns="http://www.w3.org/2000/svg" id="a" width="1920" height="2400" viewBox="0 0 192 240"><defs><style>.b{fill:none;stroke:#fff;stroke-miterlimit:10;stroke-width:.3px}</style></defs><path d="M0 0h192v240H0z" style="stroke-width:0"/><path d="M9.7 231.9h172.6M9.7 227.2h172.6M9.7 222.5h172.6M9.7 217.9h13.8q1.4 0 2.5-.9c11.5.1 23 .7 34.4.4q4.2 0 8.6-.2 6-.7 12-.5l12.9.6q6.8 0 13.7 0 5.6.2 11.2 0 7.2-.2 14.5-.1a1364 1364 0 0 0 34.4 0c.3.3 1.3.6 1.7.7h12.9M9.7 213.2h14.6c1.2-.3 2.4-1.3 3.5-2l1.7-.8 6.8.5c6.6.5 13.2 1.2 19.8 1.3q4.2-.1 8.6-.7c3.7-.2 7.4-1 11.1-1.1 4.3-.2 8.6.3 12.9.6q15 1.5 30 .5l7-1q2.5.2 5 0c4.6-.4 9.2-.1 13.8 0l18 .9c2.4-.3 4.6 1.4 6.9 1.8h12.9M9.7 208.6h14.6c2.2-.9 4-2.6 6-3.7q1.3-.8 2.6-1.4 3.5.3 6.9 1c5.1.9 10.2 2.1 15.4 2.6 2.3 0 4.6-.5 6.9-.7l6.9-.9q7.2-1.4 14.6-.6c5.1.5 10.2 1.7 15.4 2q9.4.5 18.9-.9c3.1-.5 6.2-1.7 9.4-2q2.6.1 5.2-.3 3-.4 6-.3c7 0 13.8 1.2 20.6 2.1 1.5 0 3 .7 4.3 1.2q2.5 1 5.1 1.7c4.5.4 9.2 0 13.8.2" class="b"/><path d="M9.7 203.9h14.6c1.2-.3 2.4-1.3 3.5-2l5.1-3.8q1.6-1.2 3.4-2 2.6.4 5.2 1.2c4.3 1.2 8.4 3.2 12.9 4a84 84 0 0 1 13.7-1.5q3.8-.5 7.7-.4 9.6.2 19 2.4c9.4 1.4 19.1 0 28.3-2.8q3.3-1 6.8-.9l6-.6c6.1-.4 12.2 1 18 2.4l3.5.7q1.6.7 3.4 1.3 3.4 1 6.9 1.7c2 .5 4 .2 6 .3h8.6" class="b"/><path d="M9.7 199.2h14.6c5.6-2 9.7-7 14.6-10.2 2.2-1 7.3 1.7 9.4 2.8 1.7.7 3.4 2 5.2 2.4l3.4-.7q5.2-.8 10.3-.2 3.4.3 6.9.4 5.6.6 11.2 1.3l5.1.7q3 .8 6 1.3 7.4.7 14.6-.9l6-1.3q3.8-1.1 7.8-2c2.2-.5 4.6 0 6.8 0q8.3-.6 16.3 1.6l6 1.4q4.5 2 9.5 2.7c6.2 1.1 12.6.6 18.9.7" class="b"/><path d="M9.7 194.6h14.6a34 34 0 0 0 14.6-10c1.3-1.2 2.6-2.8 4.3-3.6q2.8.1 5.1 1.4t4.3 2.9c1.2.5 2.4-.4 3.5-.6q3-.7 6-.2 4 .9 7.7 2.2a105 105 0 0 0 17.2 2.8c2.3 0 4.6.7 6.8 1.2q3 .6 6 .6c5.6.1 11-1.5 16.4-2.7q4.2-1.3 8.5-1.5 2.7 0 5.2.8l6.9.6c4.6.5 9.2 1.7 13.7 2.8q2.5 1 5.2 1.7c8.7 2 17.7 1.5 26.6 1.6" class="b"/><path d="M9.7 190h13.8c2.3 0 4.7-1 6.8-1.8 4.6-1.9 8.2-5.5 11.2-9.2 1.7-2 3-4.5 5.1-6 2.6-.7 5.1.8 7 2.5 1.1-.1 2.2-1.3 3.3-1.6 3-1.2 6.1.4 8.6 2q3.4 2.3 6.9 4.2 4.6 1.9 9.4 2.7l7.8.6c1.7 0 3.4.7 5.1 1 5.8.9 11.6-.7 17.2-2 3.6-.9 7.4-2.1 11.1-1.5q2.3.4 4.3 1.4c.8.3 1.8 1 2.6 1.1q8.7 1.2 17.2 3.3 7.5 2.7 15.4 3 9.9.3 19.8.2" class="b"/><path d="M9.7 185.3h13.8c2.6 0 5.2-.8 7.7-1.4 8.1-1.8 12.2-8.5 16.3-15 1.7-3 3.2-5 6.9-3.1l.8-.2c3.9-5.4 7-4.3 11.2 0 2.7 2.7 5.4 5.7 8.6 7.9q3.6 2.1 7.7 3 3.9.8 7.7.6 3.9.7 7.8.4c5.9-.7 11.4-3.3 17.1-4.5 3.8-.7 7.5.9 10.3 3.2l2.6 2.2q1.2.6 2.6.8l12.9 2.4q5 1.6 10.3 2.6c9.4 1.2 18.9 1 28.3 1" class="b"/><path d="M9.7 180.6c6.6-.1 13.2.3 19.8-.5 3.5-.3 7.1-.8 10.3-2.4 5.8-3 8.5-9.6 12-14.9.3-.5 1.2-1.5 1.7-1.9q1.6-.2 2.6-1.4c1.4-2 2-5 4.3-6.3 1.6.1 3.6-.3 5.1.3 2.3 2.2 4.1 5 6 7.5 4.2 5.7 9.8 10.8 17.2 10.9q1.3 0 2.6-.4l4.3-.4c14.9-1.3 17.5-11.9 24.9-6.4 2.3 1.8 4.2 4.4 6 6.8 1.3 2 3.8 2.3 6 2.7q3.8.8 7.7 1.4c7.5 2.4 15.3 3.6 23.2 4.4l6 .6h12.9" class="b"/><path d="M9.7 176c6.9-.1 13.8.1 20.6-.4 4-.3 8.3-.4 12-2 5.8-2.8 8.5-9.1 13-13.4 3.5-3.7 5.9-17.6 12.8-10.3 5.8 6.5 10.1 15.4 18.9 18.3q3 .8 6 .3a32 32 0 0 0 16.3-6c3.7-2.3 8.1-5.2 12-1.6 2.7 2 3.8 6 6.9 7.6 2.2.7 4.6.7 6.9 1 4 .2 8 1.7 12 2.5q9.8 2 19.7 3.7 3 .3 6 .2h9.5" class="b"/><path d="M9.7 171.3q11.3.2 22.4-.4c3.4-.2 7-.3 10.2-1.2 4-1.1 6.8-4.2 9.5-7q1.7-1.7 3.4-3.2c3.3-3.9 6-16.4 12.9-10.6 5.6 5.3 9.6 12.9 17.2 15.5 4.8 1.9 10 0 14.6-1.5q5.3-2.2 10.3-4.9c5.8-3.2 9.4-1.2 12.8 4 2.7 4.1 4.8 4.7 9.5 4q2.5-.1 5.1-.4 3 0 6 .5c7.9 1 15.5 3.2 23.2 4.9q3 .5 6 .3h9.5" class="b"/><path d="M9.7 166.6c7.2 0 14.4.2 21.5-.3q5.2-.1 10.3-.8 3.8-.8 6.9-3.2c1.9-1.5 3.8-3.3 6-4.3 2.4-3.8 6.1-13.8 12-11 2.3 1.2 4.2 3.3 6 5a38 38 0 0 0 8.6 7.1c4.2 2.3 9.4 2.7 13.7.6q6.6-2.3 12.9-5.3c5.2-2.4 9.1-2.3 12.9 2.4 1.4 2 2.9 4.2 5.1 5.1 2.5 1.2 5.3.2 7.8-.3l4.2-1.2q2.6-.2 5.2-.2 7.5.1 14.6 2.6c3.7 1.2 7.3 2.9 11.1 3.7 4.6.3 9.2 0 13.8.1" class="b"/><path d="M9.7 162h14.6l6.9-.6c5.5-.2 11.5.2 16.3-3l5.2-3c2.7-3.3 4.4-8 8.5-10 5-2 10 4.4 13.8 6.8 4.3 3.2 10 5.2 15.4 4 1.8-.5 3.5-1.6 5.2-2.2l7.7-3.1c5.5-2.3 10.7-4 15.4.9 2 2.1 3.9 5 7 5.6 1.9.6 4 0 6-.4q3-.8 6-2 4.2-.7 8.5-.6 7.2.1 13.7 3.2l6 3c1.4.6 2.8 1.5 4.3 1.3h12" class="b"/><path d="M9.7 157.3h14.6q3.5-.7 6.9-1c5.8-.3 11 0 16.3-2.7 6.6-2 6.9-9.4 13.7-10.6 3.2-.4 6 1.5 8.6 3q3.7 2.4 7.7 4c4.6 1.7 10.2 2.1 14.6-.3a56 56 0 0 1 17.2-5.9c11-.8 10.3 11.1 22.3 8.3 2.6-.3 5.1-1.4 7.7-1.7 5.2-.4 10.4-.9 15.5 0q5 1.2 9.4 4l3.5 2q1.1 1 2.5.9h12" class="b"/><path d="M9.7 152.6h9.5q3 .2 6-.1c5.4-2.3 11.4-1.8 17.2-2.6 3-.6 6.3-1 8.5-3.3 3.7-3.3 5.5-7 11.2-6.6 5.7.7 10.6 4.5 16.3 5.2q5.7 1 11.2-.8c1.7-.7 3.4-2 5.1-2.7 5-2.2 10.7-3.9 16.3-3.3 10.3 1.6 10 10.5 22.3 9.5q2.2 0 4.3-.3h7.8c4-.1 8-.4 12 .1q4 .7 7.7 2.6c1.7.8 3.2 2.5 5.2 2.3h12" class="b"/><path d="M9.7 148h14.6c2.6-1 5-2.5 7.8-3.3q5-1.4 10.2-1.5c2.3-.3 4.8-.2 7-1.2 5-2.9 5.8-7 12.8-6.7 3.5.2 6.9 1.6 10.3 2.4a28 28 0 0 0 18-1.5c2-1 4-2.4 6-3.2a23 23 0 0 1 19.8 1.3c4.1 2.2 7 6.2 11.1 8.4 3.2 1.7 6.9 2.1 10.3 2.5q5.6.8 11.2.3c4.3-.3 8.6-.8 12.9 0 2.7.3 5.1 1.7 7.7 2.5h12.9" class="b"/><path d="M9.7 143.3h9.5c2-.1 4 .3 6-.2q5-2.7 10.3-4.5a100 100 0 0 1 12.9-3.2c1.9-.4 3.6-1.8 5.1-3 4.1-4.6 10.8-3.9 16.3-3.1a62 62 0 0 0 21.5-1.1l4.3-1.8c8.3-3.4 16.4-2 23.1 3.8 3.1 2.5 5.6 5.8 8.6 8.3 5.9 4.5 13.8 3.5 20.6 2.7 4.3-.5 8.6-1 12.9-.5q2.6.5 5.2 1.4c1 .3 2.3 1 3.4 1.2h12.9" class="b"/><path d="M9.7 138.6h9.5c2 0 4 .3 6-.2q4.5-2.5 9.4-4.3l10.3-3.3 4.3-1q2.4-1 4.3-3c7-7.5 21.4-6.2 30.9-6 3.1.1 6.4.5 9.4-.5 9-3.6 14.1-4.5 22.4 1.7 3.9 3 7 7 10.3 10.6 2.6 3 6.4 4.7 10.3 5 7.2.5 14.2-2 21.4-1.9q3.5.1 6.9 1.3c1.4.5 2.8 1.3 4.3 1.6h12.9" class="b"/><path d="M9.7 134h9.5c2-.1 4 .3 6-.3q4-2.3 8.6-4c5.7-2 11.6-4 17.1-6.8 2.5-1.3 4.2-3.9 6.9-4.9 10.8-5.5 17.6-5.5 29.2-3 2.8.6 5.9.8 8.6-.3 5.2-2.5 9.6-5.7 15.4-2.6 4.8 2.6 8.6 7 12 11 2.6 3.2 5 6.9 8.6 8.9 9.2 4.8 20.1-2.8 30-.7q2.3.3 4.4 1.3c1 .4 2.2 1.2 3.4 1.4h12.9" class="b"/><path d="M9.7 129.3h14.6c2.5-.8 5.1-2.6 7.8-3.5 4-1.6 8.1-2.8 12-4.8 4.2-2 8-4.9 12-7.4 5.8-2 11.8-4.1 18-3.6 5.8.3 11.4 2.2 17.2 2 3.7.1 6.6-2.4 9.4-4.4 7.6-5.7 13-.2 18 5.6l7 8.5c2 2.7 4.3 5.7 7.7 7l1.7.6 2.6-.2c1.3-.2 2.9.4 4.3 0 6-1 11.8-3.4 18-2.9q3 .3 6 1.6c1 .5 2.3 1.3 3.4 1.5h12.9" class="b"/><path d="M9.7 124.7h14.6c1.2-.3 2.4-1.2 3.5-1.6l4.2-2q5.7-1.7 11.2-4.1 3.2-1.6 6-3.6 2.8-2.5 6-4c1.9-.4 4-.2 6-.4 8.6-.4 17.2 1.5 25.8.7 3.6-.3 7.4-.7 10.3-3.1 3.3-2.9 7-7.5 12-6.1 4 1.4 6.7 5.2 9.4 8.3l7 8.5q2 3.2 5 5.6a11 11 0 0 0 3.5 1.7q1.6-.2 3.4-.2c1.4 0 3 .4 4.3 0 3.4-.8 6.9-1.9 10.3-2.5s7-1 10.3 0q3.2.9 6 2.5c1.6.5 3.5.2 5.2.3h8.6" class="b"/><path d="M9.7 120h14.6q1.8-.6 3.5-1.7l4.2-1.9c7.2-2.4 14.9-4.3 20.6-9.4 1.7-1.7 4-.9 6-.4q3.4.8 7 1.4a58 58 0 0 0 27.4-2.6c6-2 9.1-11.3 16.3-9.6 4.5 1.8 7.2 6.3 10.3 9.8q2.4 3 5.2 5.8c1.8 2.1 3.6 4.6 6 6.3 6.2 4.1 14 0 20.6-.9q5.5-1.3 11.1.2 3.2.9 6 2.7c1.6.6 3.5.2 5.2.3h8.6" class="b"/><path d="M9.7 115.3H20c2-.1 4.4.6 6-.8 6.7-4.4 15-5.1 22.4-8q2.8-.9 5.1-3c1.2-1.4 2.8-.7 4.3-.1a61 61 0 0 0 30.9 1.5c7.5-1.3 8.2-3.5 12.9-8.9 6.3-7.3 10-5.3 15.4 1.5q2.5 3 5.2 5.7 3.1 2.8 6 5.8c4.7 5.7 11.7 4 18 3 4.5-.9 9.2-1.5 13.8-.7q4.6 1 8.5 3.8c1.6.5 3.5.1 5.2.3h8.6" class="b"/><path d="M9.7 110.7h14.6c1.2-.3 2.4-1.3 3.5-1.9q2.5-1.5 5.1-2.6c4-1.7 8.5-2.4 12.9-3.3q3.5-.5 6.9-2c2.7-1.6 3-1.9 6-.8a48 48 0 0 0 17.1 2.3q5.6.1 11.2-.1c2.2-.3 4.6-.2 6.9-.7 4-1.2 6.4-5.3 9.4-8.1 6-6.3 9.8-5.6 15.5.6 1.8 1.8 3.7 3.9 6 5.2 1.8 1.4 3.4 3.3 5.1 4.8 3.3 2.8 7.9 3.4 12 4.2 6.6 1 13.2-.9 19.8-.2q2.2.3 4.3 1 1.5 1 3.4 1.6h12.9" class="b"/><path d="M9.7 106h13c1 .1 2.4 0 3.3-.8l4.3-2.3a30 30 0 0 1 12-3q4.4 0 8.6-.4c1.8 0 3.5-1 5.2-1.3q7.7.4 15.4-.2 8.2-.5 16.3-.4c2.6 0 5.3.6 7.8-.2 5-2.1 8.4-6.7 12.9-9.5 6.9-4.7 11.2 1.5 16.3 5.5 2.6 1.7 4.4 4.6 6.8 6.5 5.8 4.7 12.7 5.2 19.8 4.3 3.6-.4 7.4-.8 11.1-.3q2.2.3 4.3 1.1 1.3.7 2.6 1h12.9" class="b"/><path d="M9.7 101.4h13c1 0 2.4 0 3.3-.8l4.3-2.4q5-2.3 10.3-2.2c4.6 0 9.2 1.3 13.8.5q2-.5 4.3-.6l4.2-1c6-1.3 12-2.6 18-2.7q6.6-.3 13 .8c7.1 0 12.2-6.1 18-9.5q5.2-3.2 10.3.4 3.1 2.2 6 4.9c4.7 4.7 10.3 9.4 17.2 10.2 4.5.4 9.1-.3 13.7 0q3 0 6 .9c1.4.3 2.9 1.2 4.3 1.5h12.9" class="b"/><path d="M9.7 96.7H20c1.7-.1 3.6.3 5.2-.3l2.6-1.5a25 25 0 0 1 7.7-3.2c6.3-1.4 12.5 1.6 18.9 1.3 4.5-.4 8.6-2.6 12.9-3.9a53 53 0 0 1 16.3-2.7q5.6-.2 11.1 1.3c7.5 1.2 13.4-4.5 19-8.7 7.8-6.1 10.5-1.6 17 3.1q3.5 2.9 7 5.6c1.8 1.6 3.7 3.2 6 4 4.6 2 9.7 1.7 14.6 2.2q3.4.2 6.8 1.2c1.4.4 2.9 1.3 4.3 1.6h12.9" class="b"/><path d="M9.7 92h14.6c1.2-.3 2.4-1.2 3.5-1.8l4.2-2.3q4.6-2 9.5-1.4c4.3.5 8.5 2.2 12.9 2 1.4 0 3-.8 4.3-1.3a63 63 0 0 1 26.6-7q3.4.1 6.8.8c1.4.3 2.9 1 4.3 1.3 8 1.6 14.4-4.4 19.8-9.3 4-3.6 7.6-5.4 12-1.1 1.7.8 3.7 1.6 5.1 2.8q3.8 3 6.9 6.5c4.3 4.8 10.2 6.4 16.3 7.2q4 .5 7.7 1.6c1.8.5 3.5 1.6 5.2 2h12.9" class="b"/><path d="M9.7 87.4h9.5c2-.2 4 .2 6-.3 2.5-1.3 5-3 7.7-4.2q5-2.2 10.3-1.2c3.4.5 6.8 1.6 10.3 1.7 6-2.3 11.8-5.4 18-7.3a48 48 0 0 1 20.6-1.5c1.8.4 3.5 1.4 5.2 2q3 .8 6 .6c12.8-1.1 16.8-19.1 25.8-12 3-.2 5.5 1.8 7.7 3.6s3.8 4.8 6 6.9q3.7 3.6 8.6 5.6c3.9 1.5 8 2.3 12 3.6 2 .6 4 1.9 6 2.5h12.9" class="b"/><path d="M9.7 82.7h9.5q3 .2 6-.2c3.2-1.3 6.2-3.3 9.4-4.6q4.2-1.7 8.6-1.8c3.1 0 6.3.9 9.4.6q1.8-.6 3.5-1.7c4.7-1.8 9.5-3.9 14.6-4.8 7.3-1.6 15-1.4 22.3 0 2.9 1 5.5 3 8.6 3.7 15 3.7 19.5-19 27.4-13.6 3-1 6.1 0 8.6 1.8 2 2.2 3.9 4.9 6 7q4.1 4.4 9.5 7t11.1 4.6c1.7.5 3.4 1.6 5.2 2h12.8" class="b"/><path d="M9.7 78h9.5q3 .2 6-.1c3-1 5.7-2.7 8.6-4q4-1.6 8.5-1.5c2.9 0 5.8.9 8.6 1 1.8 0 3.5-.7 5.2-1.2 4.6-1 9-2.5 13.7-3.3 5.4-1.1 10.9-1.1 16.3-1.1q3.5-.1 6.9-.1 3 .5 6 1.8c18.6 6.2 22-12.5 30-12q4.2-3 8.6-.8c1.9 1.8 3.5 4.1 5.2 6a40 40 0 0 0 19.7 13.8q3.5 1 6.9 1.6h12.9" class="b"/><path d="M9.7 73.4h9.5q3 .2 6-.2c4.8-1.8 9.2-5.3 14.6-5.6 3.8-.3 7.4 1.4 11.1 1.6q2.6 0 5.2-.6 5.6-.8 11.1-1.4c6-.5 12 .2 18-.4q2.7-.3 5.2-1 2.2-.9 4.3-1.2c3.4-.4 7 .3 10.3.7 8.3 1.4 12.3-.2 18.9-5.2a14 14 0 0 1 5.2-2.5c2.3-2.1 5.3-4 8.5-3.2q1.5 1 2.6 2.3c15.8 18.2 19 16.7 42 16.7" class="b"/><path d="M9.7 68.7h14.6c2.8-.6 5.3-2.4 7.8-3.8 3.3-2 7.2-3.6 11.1-2.8 2.9.5 5.7 1.9 8.6 2.2 4 .3 8 0 12 .2 6.8.2 13.8 1.8 20.6.2a21 21 0 0 0 6-2.4c2.2-1.4 4.4-3.1 6.9-4 6.8-2.3 12.8 5.2 20.6 4 3.6-.5 6.9-2.3 10.3-3.5 1.6-.7 2.8-2.3 4.3-3.2 1.7-1 4-2.3 6-1.5 5 3 8.8 8 13.7 11.2a21 21 0 0 0 8.6 3.4q2.6-.2 5.2-.1c5.4.3 10.8 0 16.3.1" class="b"/><path d="M9.7 64h14.6c4.1-1.2 7.5-4.3 11.2-6.4 3-1.9 6.8-2.9 10.3-1.4 2.3.9 4.5 2.2 6.9 2.9q4.6 1 9.4 1.7c4.8.8 9.7 2 14.6 1.8C95.3 61.5 94.2 43.2 104 52c3.7 3.3 7.1 7.4 12 8.6 3.7.9 7.7.2 11.2-1 2.5-1.3 4.4-3.5 6.9-4.8 1.5-.8 3.4-2 5.2-1.3 6 2 10.3 7.5 16.3 9.8q1.2.6 2.5.7 2.6-.6 5.2-.5 3 .1 6 .6h12.9" class="b"/><path d="M9.7 59.4h13.8c2.2.1 4.1-1.7 6-2.7 5.3-3.2 11.3-10.7 18-6.8q3.8 2.6 7.7 5 4.6 1.8 9.5 2.8c13 3.4 23-2 30-13.2 6.7-10.9 11 11 20.6 14.2a8 8 0 0 0 2.6.7q1.6-.3 3.4-.3l3.5.3a15 15 0 0 0 3.4-1.4c3.8-2 10.1-7.4 14.6-5.8 4.9 1.6 8.8 5.4 13.7 7 1.4.2 2.9-.5 4.3-.6q3.8-.2 7.7.7c4.6.3 9.2 0 13.7.1" class="b"/><path d="M9.7 54.8h13.8c1.2.1 2.4-.6 3.4-1.2l5.1-3.4c4.8-3.3 11.2-10.6 17.2-5.7 2.2 2.6 4.6 5.3 7.7 6.7a30 30 0 0 0 15.5 2.7c9.4-1.3 17-8.2 21.4-16.3 7.1-14.5 10.4 11.5 19 17 .4 0 1.3-.4 1.7-.6q1.2-.6 2.5-.9c4-.8 8.3.1 12 1.6 4.8-2.3 9.3-5.6 14.7-6 1.7 0 3.5 1 5.1 1.7 3 1.5 6 3.5 9.4 4.3 3.7-1.2 7.5-.6 11.2 0h12.9" class="b"/><path d="M9.7 50h9.5c2 0 4 .3 6-.1q5-2.4 9.4-5.7c3.4-2.3 7-5.3 11.2-5.4 3.3 1.6 5.5 5 8.6 7 7.8 5 16.7 4.4 24.9.7A28 28 0 0 0 93 35c1.6-2.5 2.5-6.1 5.1-7.7 2.3-.8 3.4 2.4 4.3 4 1.2 2.3 2.4 5.2 3.5 7.7 1.7 3.8 3.6 8 6.8 10.8h.9c2.5-1.6 5.7-1.8 8.6-1.5 2.6.1 5.2 1 7.7 1.8 5.5-2.3 11-5.8 17.2-5.8 2.4.2 4.6 1.7 6.8 2.7 3 1.3 6.2 3 9.5 3.1 2.2-.3 4.6 0 6.8 0h12" class="b"/><path d="M9.7 45.4h14.6c2.1-.3 4.2-1.4 6-2.4 4.2-2.3 7.6-6 12-7.7 4 .7 7.2 3.6 10.3 5.9 7.2 5 16.4 2.9 24 .4a35 35 0 0 0 15.5-9c2-2.1 3-5.8 6-6.7 5.4-.3 9.4 16 15.5 19.5 3.4-2 7.5-1.7 11.2-1.1l3.4.8q1.3.5 2.6-.2 5-1.8 10.3-3.6 3.3-1 6.8-1.4c1.8-.2 3.6-.3 5.2.6 4 1.6 7.8 3.7 12 4.5 2.5.6 5.2.4 7.7.4h9.5" class="b"/><path d="M9.7 40.8h14.6c4.6-.5 8.5-3.2 12-6l2.6-2c2.5-.6 5.3 0 7.8.8 2.3.8 4.6 2.3 6.8 3.3q3 1.3 6 1.4 6.6.2 13-1.5a52 52 0 0 0 19.7-8.2c1-1 2.1-2.6 3.4-3.5 3.6-3 6.7 1.7 8.6 4.4q2.6 4.4 6 8c1.4 1.3 3.1 3.2 5.1 3.1q3-.8 6-.5c2 0 4 .6 6 .6 4.9-1.2 9.7-2.8 14.6-3.8q4.3-1 8.6-1.1c1.7 0 3.6-.3 5.2.4 4.2 1.7 8.4 3.7 12.8 4.5q6.9.1 13.8 0" class="b"/><path d="M9.7 36.1h15.5c3.8-.6 7.2-2.6 10.3-4.9q5.8-2 12-.7c3.5.5 6.8 2 10.3 2.3q10.9.5 21.5-2.5c3.5-1 6.9-2.7 10.3-4q1.2-.4 2.5-1 1.6-1.4 3.5-2.4c1.3-.3 2.9 0 4.3 0 1.7.5 3 2.1 4.2 3.3 2.9 3 5.7 6.5 9.5 8.2 4.9 2.1 10.4 1 15.4 0q6.9-1.5 13.8-2.2c5-.4 10.3-.8 15.4-.2 3.4 1.4 6.8 3 10.3 4 4.6.3 9.2 0 13.7.1" class="b"/><path d="M9.7 31.4H20c2.3 0 4.7.3 6.9-.4 2.8-.6 4.9-2.5 7.7-2.8q7.7-1.2 15.5-.8c2.6 0 5.1.7 7.7 1q6.4.4 12.9 0c6-.5 11.6-2.5 17.2-4.4q2.1-.7 4.2-1c1-.5 2.3-1.4 3.5-1.2q3.4 0 6.9.2c1.8.8 3.5 2.1 5.1 3.1 3.6 2.4 7.7 4.2 12 4.3 5.5-.1 10.9-1.2 16.3-1.3q10.8-.4 21.5.1 2.2 0 4.3.4 3.4 1.6 6.9 2.7c4.5.4 9.1 0 13.7.2" class="b"/><path d="M9.7 26.8c5.2-.1 10.4.2 15.5-.1 1.4-.3 2.9-1 4.3-1.3q6.4-.7 12.9-.8l11.1-.2c8.3.7 16.7 1.6 24.9 0q4.8-1 9.4-2.3c2-.6 4.1-.5 6-1 1.1-.4 2.4-.2 3.5-.2l6 .3q3 .2 6 1.2 4.2 1.5 8.6 2 6.4.3 12.9-.1 7.2 0 14.6.2 9.4.2 18.8.7c1.8.3 3.4 1.4 5.2 1.6h12.9" class="b"/><path d="M9.7 22.1h14.6q2.2-.4 4.3-.3 13.8-.2 27.5-.1c7.4.1 14.9.5 22.3 0 6-.4 12-1.7 18-1.7q8.7 0 17.2 1.4 5.6.2 11.2.2 19.2 0 38.6.2h4.3q1.2.4 2.6.3h12M9.7 17.5h172.6M9.7 12.8h172.6M9.7 8.1h172.6" class="b"/></svg>