<svg xmlns="http://www.w3.org/2000/svg" id="a" width="1920" height="2400" viewBox="0 0 192 240"><defs><style>.b{fill:none;stroke:#fff;stroke-miterlimit:10;stroke-width:.3px}</style></defs><path d="M0 0h192v240H0z" style="stroke-width:0"/><path d="M9.7 232h172.6M9.7 227.3h172.6M9.7 222.6c27.4 0 55 .3 82.4-.2 30.1.5 60.2.1 90.3.2M9.7 218h13.7q1.3 0 2.6-.5l9.4-.2c12 0 24 .8 36.1.5l19.8-.9q7.7.5 15.5.4l12 .2q8.2-.1 16.3-.4 12.9.6 25.8.4h6.8q1.2.6 2.6.5h12M9.7 213.3h14.6c1.7-.2 3.5-1.2 5.1-2l4.3-.3c7.5-.6 14.9 1.6 22.4 2q9 .3 18-.2 6.4-.6 12.9-1.6 2.2-.3 4.3-.3a55 55 0 0 0 10.3.8l11.2-.3q3.9.1 7.7-.2l7.7-.6q3.9-.9 7.8-.5c3.7.4 7.4 1.2 11.1 1.5q8.2.5 16.4.3c2-.2 4 1.1 6 1.4h12.9M9.7 208.6q7.6.2 15.4 0 4-1.3 7.8-3.4 4.3-.5 8.5 0c3.8.6 7.5 2 11.2 2.8q4.3.5 8.6.4 11.8 0 23.2-3.3 3-1 6-1.4 1.8.2 3.5.6c5.3 1 10.8.9 16.3 1l7.7.3q4.4-.3 8.6-1.2c2-.4 4-1.5 6-1.8 2.6-.4 5.3.4 7.7 1.1q3.9 1.3 7.8 2c4.2.9 8.6 1 12.9 1.4a60 60 0 0 0 12 1.5h9.4" class="b"/><path d="M9.7 204c5-.1 10.3.2 15.4-.2 3.3-.8 6.5-2.4 9.5-4q1.6-.8 3.4-.7 2.6 0 5.2.7c3.5.7 6.8 2.3 10.3 3a65 65 0 0 0 25.8-2q5.2-1.7 10.3-3.8c1.6-.7 3.4-.3 5.1 0l6 .7q8.6 1.3 17.2 2 4.9-.2 9.5-1.5c1.4-.5 2.8-1.6 4.3-2 3.7-1.6 7.7 0 11.1 1.6q4.2 1.9 8.6 3.2 4.8 1 9.5 2 3.4.5 6.8.8c4.9.3 9.8 0 14.7.2" class="b"/><path d="M9.7 199.3q7.6.2 15.4-.1c3.9-1 7.6-2.9 11.2-4.5q1.6-.8 3.4-1.3 3 .2 6 1c3 .6 5.7 1.8 8.6 2.3q9 1.5 18 .3 6.3-1 12.1-3.2c3.1-1 6.1-3 9.5-3.4 7.2-.8 14.4 1.4 21.4 2.7q6.1 1 12-.8c2.9-1.3 5.4-3.6 8.7-3.7 6-.2 10.9 4.4 16.3 6.4q2.2.9 4.3 2a23 23 0 0 0 5.1 1.4l6.9.9h13.8" class="b"/><path d="M9.7 194.6h14.6c5-1 9.8-3.6 14.6-5.6q2-1 4.3-1.7 3 .1 6 .7a67 67 0 0 0 28.3 2.6c5.7-1 11-3 16.4-5 4.5-2.4 9.7-2.4 14.6-1.1 3.4.7 6.7 2.2 10.3 2.4q4.3.4 8.6-.3c1.8-.7 3.4-2 5.1-3 2.6-1.4 5.6-2.4 8.6-2.1 3.4.4 6.6 2.2 9.5 3.9 2.6 2.5 5.2 5.3 8.6 6.7q4.5 2 9.4 2.5h13.8" class="b"/><path d="M9.7 190h14.6q3.5-.8 6.8-2.2 7.5-3.1 14.6-7.2c5-1.4 10 .5 14.6 1.8q6 1.6 12 2.5a61 61 0 0 0 20.7-3c2.6-1.1 4.9-3.2 7.7-4 4.3-1.4 8.9-.3 13 1.2 4.4.9 9 2.4 13.7 2 1.8-.4 3.5-1.6 5.1-2.5 3.3-1.9 6.6-3.9 10.3-4.6 5.3-1 5.3.6 8.6 4 4 4.4 8 9.1 13.8 11 2.4 1 5.1 1 7.7 1h9.5" class="b"/><path d="M9.7 185.3H19q3 .2 6-.1a80 80 0 0 0 20.6-9.7c1.4-.8 2.8-2 4.3-2.7l2.6-.4c3.6 0 7 1.4 10.3 2.5 4.2 1.6 8.5 3.2 13 3.8q5.5.6 11 .2c2-.2 4.2 0 6-.6s3-1.8 4.4-2.8q2-1.6 4.3-2.7c4-2 7.8-1.3 12-.6q4.8 1 9.5 2.7c2.2.7 4.6 1.7 6.8.6q5.9-2.5 11.2-5.9c1-.5 2.2-1.6 3.4-1.7q2.8.7 5.2 2.2c6.3 4 10 11.5 17.2 14.4 1.8 1 4 .8 6 .8h9.4" class="b"/><path d="M9.7 180.7h14.6A88 88 0 0 0 50 168.9c1.1-.7 2.2-1.9 3.5-2.4 3.8-.6 7.6.6 11.1 1.9 6.4 2.4 13 4.9 19.8 5.6 2.8.2 5.8 1.2 8.6.4 1.2-.6 2.4-1.7 3.4-2.5a33 33 0 0 1 13.8-6q3.8-.4 7.7.8 3.5 1.1 6.9 2.8c1.3.6 2.8 1.6 4.3 1.6a30 30 0 0 0 7.7-1.8c2-.7 3.8-2.3 6-2.2 4.5-.6 9.2.2 13 3 4.6 3.2 8.1 8.6 13.7 10.6h12.8" class="b"/><path d="M9.7 176h14.6c2.9-.6 5.7-1.8 8.5-2.7q6.2-2 12-4.4 5.2-2.2 9.5-5.8c2-1.4 4.6-1.2 6.9-1.3 8.2 0 16 2.5 24 4l6 1.1c1 0 1.9-.9 2.6-1.3 3.8-2.6 8.5-3.5 13-4a37 37 0 0 1 12.8 0c3.3.6 6.3 2.1 9.5 3q4.4 0 8.6-1.6 2.6-.1 5.1.2 7.4.3 13.8 4 4 2.4 7.7 5.5c1.6 1.2 3.3 2.7 5.2 3.3h12.9" class="b"/><path d="M9.7 171.3h14.6c2.8-.6 5.7-1.8 8.5-2.5q6.6-2 13-4.5 2.6-1.2 5.1-2.7c1.7-1 3.3-2.4 5.2-3.1l6.8-1.3c11.1-2.7 17.4-3.7 28.4.3 6-3.7 12.4-1.2 18.9-.5q6 .6 12 1.1c3.1.2 6.3.8 9.5.8l4.3-.3c.7-.1 1.8-.4 2.5-.2q6.7 1.3 13 3.7c3.8 1.5 7.5 3.8 11.1 6l4.3 2.3q1.6.9 3.4 1h12" class="b"/><path d="M9.7 166.7h14.6c2.6-.7 5.1-2 7.7-2.7q5.6-1.9 11.2-4 3.5-1.2 6.8-3c1.4-.6 2.8-1.6 4.3-2.1 1.6-.8 3.5-.6 5.2-1q3.5-.6 6.9-2c8-3 16.2-9.5 24.9-5 9-3.7 13.3 7 31 7.5q6 .1 12 0c1.3 0 2.9-.5 4.2-.3q4.4 1.1 8.6 2.6c4 1.4 7.6 3.6 11.2 5.6s7.2 4 11.2 4.4h12.9" class="b"/><path d="M9.7 162h14.6c2-.6 4-1.9 6-2.6q4.6-2.1 9.4-3.8 4.4-1.5 8.6-3.3c2-.7 3.9-2 6-2 2-.4 4 .2 6 0q7.5-.7 13.8-4.8c5-2.6 11.3-9.8 17.2-8 .8.2 1.7-.5 2.5-.7a6 6 0 0 1 3.5.4c3.3 1.5 5.8 4.4 8.6 6.7q6.2 5.5 14.6 6.9 6 1 12 .2c2 0 4-.8 6-.8 4.2.6 8.4 1.5 12 3.7 5.3 2.9 10.1 7.5 16.4 8q7.7.1 15.4 0" class="b"/><path d="M9.7 157.3h14.6c1.1-.3 2.3-1.2 3.4-1.7l6-3.2q6.7-3.2 13.8-5.6c1.6-.6 3.4-1.4 5.1-1.6 1.8-.1 3.6.6 5.2 1.2q2.5.9 5.1 1 5.8.6 11.2-1.4c6-2.6 9.7-8.5 14.6-12.6q1.6-1.2 3.5-1.7c1.3-.8 2.5-2.4 4.3-2.4 3.4.2 5.5 3.6 7.7 5.9q2.7 3.4 6 6.4c3.6 3.2 8.2 5.1 12.9 6.1q5.6 1.5 11.2-.1c2-.6 3.8-1.9 6-1.8 10-1 14 8.6 22.3 11.4l3.4-.3q1.8.2 3.5.4h12.9" class="b"/><path d="M9.7 152.7h14.6c2.4-1 4.5-2.7 6.8-4a94 94 0 0 1 18-8.3c1.4-.3 3-1 4.4-.7 2.1.9 4 2.5 6 3.6a33 33 0 0 0 11.1 3.2c8.4 1 12.9-4.7 17.2-10.9q2.4-3.2 5.2-6c.8-1 1.7-2.7 2.6-3.7 6.4-6.7 10.8 11.7 23.2 16.7 4.2 1.8 9.1 3.8 13.7 2.2q2.8-1 5.2-3c5-2.7 8.8-2.4 12.9 1.8 3 2.7 6.2 7.8 10.3 9 2.8-1.5 5.6-.1 8.6 0h12.9" class="b"/><path d="M9.7 148h14.6c1.5-.4 2.9-1.4 4.3-2.1l6-3.6c6-3.5 12.1-7 18.9-8.6 1.3.3 2.5 1.5 3.4 2.4q1.6 1.5 3.4 2.8a30 30 0 0 0 13 5.8c8.7 1.4 13-7.8 18-13.2 3-2.4 5.4-11.6 10.3-9.2 3.2 2 5.2 5.5 7.7 8.2q4 4.9 9.5 8 3 1.4 6 2.9c4.8 2.8 9 1.6 12.9-2.2 3.1-2.2 7.2-6 11.1-3.6 3.3 2.2 5 6.2 7.8 9 1.2 1.2 2.5 3 4.3 3.3 2.4-1 5.2 0 7.7 0h13.8" class="b"/><path d="M9.7 143.3h14.6c3.2-1 6.3-2.9 9.4-4.3 6-3 12.2-6.2 19-7.7 2.5-.9 3.3.6 5 2.1q3 2.4 6 4.3A22 22 0 0 0 75 141c8.4-.4 11.9-9.3 17.2-14.4 2.5-2.9 3.3-7.5 6.9-9.3 3-.8 5.1 2.2 6.9 4l5.1 6.3c3.8 4.2 8 8.3 13 11 2.8 1.6 6.3 2.5 9.4 1 4.1-2.1 7.6-5.7 12-7.4 8-2.7 11 10 18 10.9q9.4.4 19 .2" class="b"/><path d="M9.7 138.7h14.6c4.3-1.3 8.5-3.4 12.8-5q7.5-2.9 15.5-4.6c3.3-1 4.2.5 6.9 2q4 2.3 8.6 3.7a16 16 0 0 0 11.2 0c3.4-1.5 6-4.5 8.5-7.1 1.5-1.8 3.7-3.2 5.2-5 2.3-3.3 4-9.6 8.6-10.3 4.3 0 8.4 7.7 11.2 10.8 3.1 4 6.7 8 11.1 10.7 2.7 1.5 5.7 2.5 8.6 1 4.7-1.6 8.9-5 13.8-6.3 8.3-2 11.8 8.8 19.7 9.4q1.8.4 3.5.7h12.9" class="b"/><path d="M9.7 134h14.6c2.6-.6 5.1-1.8 7.7-2.6a131 131 0 0 1 12.9-3.7q3.9-.8 7.7-1.8c1-.2 2.3-.7 3.4-.6l3.5.8c8.8 2.5 16.6 6 25 0 2.4-1.6 4.9-3.6 7.6-4.7 2-1.4 3-4 4.3-6 2.1-3 4.4-7.6 8.6-7.3 4.5 1 7.6 6.7 10.3 10.1 2.8 3.7 5.7 7.5 9.5 10a11 11 0 0 0 3.4 1.7q4 0 7.8-1.4 4.6-1.9 9.4-3a14 14 0 0 1 11.2 1.7q3.4 2.1 6.8 4.4l5.2 2.2c1.6.4 3.5.1 5.2.2h8.6" class="b"/><path d="M9.7 129.3H19q3 .2 6-.1c7.8-3 16-4.8 24-6.8 2.4-.5 4.7-1.6 7-2.3q3.8-.7 7.7 0c6.5 1.2 12.1 3.5 18.9 1.3 2.8-.8 5.6-2 8.6-2.3 2.4-.1 3.8-2.7 5.1-4.3q2.5-3.6 5.2-7c5.2-6.4 9-5.4 13.7.9 3.5 4 9 15.4 14.6 15.1q4 .2 7.8-.8 3.4-.4 6.8-.9c4.3-.7 8.8-.7 13 .9 3.9 1.5 7.4 4 11.1 6 1.6.6 3.5.2 5.2.3h8.5" class="b"/><path d="M9.7 124.7H19c2-.1 4 .2 6-.2q4.2-1.7 8.6-3c5.1-1.6 10.5-2.6 15.5-4.5q2.2-.8 4.3-2 2-1.3 4.3-2.2c4.1-2 8.7-1 12.9.4q3.7 1.3 7.7 2 4.2.3 8.6.4c1 0 2.4.2 3.4.4q1.8.5 3.5-.1c3.9-2.5 6.6-6.6 9.4-10.1 2-2.5 4-5.4 6.9-7 5.8-2.5 10.2 8.3 12.9 12 2.1 3.7 4 6.7 8.6 7.1q3 .6 6 .3 5.2.4 10.3.4 5.6 0 11.1 1.5 4.6 1.5 8.6 3.8c1.7 1.3 4 .6 6 .8h8.6" class="b"/><path d="M9.7 120h14.6c2.3-.6 4.5-1.9 6.8-2.6 3.7-1.4 7.5-2.4 11.2-3.8a46 46 0 0 0 11.2-5.5q2.8-2.4 6-4a11 11 0 0 1 9.4-.4c3.2 1.1 6.3 2.8 9.5 4.1q4.6 1.9 9.4 3.6c2 .6 3.9 2.2 6 2 7.3-1.9 11.1-9.3 15.5-14.8 4.5-6 7.9-6.4 12 .2 2.8 3.9 4.1 9.7 8.6 11.9q3.7 1.8 7.8 2.3c4.4 1.4 9.1 2 13.7 2.7q6 .9 12 2.4c2 .4 4 1.4 6 1.9h13" class="b"/><path d="M9.7 115.3h14.6c1.1-.2 2.3-1 3.4-1.5l5.2-2.3q8.5-3.7 17.1-7.3 2.8-1 5.2-2.9 1.7-1 3.4-2.2c2.7-2.1 6-4.2 9.5-3.7 6.6 1 13.3 7.3 18.9 11 2 1.1 3.8 3 6 3.7 2.4.2 4.8-.7 6.9-1.8 4-2.5 6.7-6.4 9.4-10.1 3-3.8 6.7-10 12-6 2.7 2.3 4.1 5.7 6 8.5q1.5 1.6 3.5 2.7 3 1.6 6 2.9c1.8.6 3.4 1.8 5.2 2.5 6.2 2.9 13 3.9 19.7 4.8q3.9.6 7.8 1.7h12.9" class="b"/><path d="M9.7 110.7h13.7c1.2.1 2.4-.7 3.4-1.2l5.2-2.6a47 47 0 0 1 16.3-5.2q2.7-.2 5.2-1l4.3-2.4c1.8-1.2 3.4-3 5.1-4.4 5-4.2 9.6-3.1 14.7 0 5.1 3.3 9.8 7.4 14.6 11.1 5.3 2 11-1 14.6-5.2 3.1-3.4 5.6-7.6 8.6-11.2 4.2-5.2 7.6-4.1 11.1 1 .8 1.1 1.6 2.7 2.6 3.5q3.5 2.3 6.9 4.7c1.9 1 3.5 2.7 5.1 4q3 2.1 6 3.5c5.5 2.2 11.5 2.7 17.2 4q2.6.6 5.2 1.4h12.9" class="b"/><path d="M9.7 106h13.7c1.2.2 2.4-.6 3.4-1.1l4.3-2.1c6.3-3 11.3-3.7 18-3q2.3.2 4.4-.2a17 17 0 0 0 5.1-2.8c8.3-8 11-13 22.4-5.3q4 2.8 7.7 5.9c1.6 1.2 3.2 3 5.2 3.6 5 2 10.7.6 14.6-3q3.8-3.8 6.9-8.3c2.3-2.9 4.5-7.2 8.5-7.9 1.7 0 3.2 1 4.3 2.2.7.7 1.6 1.9 2.6 2q4.5 2 7.8 5.6c2.3 3 5.2 6 8.5 7.8 5.3 3 11.5 3.7 17.2 5.2q2.6.6 5.2 1.4h12.9" class="b"/><path d="M9.7 101.3h14.6c2.6-.8 5-2.4 7.7-3.2 6-2.3 11-1.4 17.2-.4 4 .8 7.5-1.1 10.3-3.9 5.6-5.7 10-12.5 18.9-7.9 4.6 2.3 8.7 5.5 12.9 8.5 4.7 3.8 11.5 5.4 17.2 2.6 4.3-2.1 7.4-6.1 10.3-9.9 2-2.5 3.9-5.5 6.8-7q1.3-.3 2.6-.1 1.3.6 2.6 1l2.6.1c3 .9 5.2 3.4 6.8 6q3 3.9 7 6.9c5 3.4 11.2 4.5 17 6q2.7.6 5.3 1.4h12.8" class="b"/><path d="M9.7 96.7H20c2-.2 4.2.4 6-.7 8.5-4.2 13.5-3.1 22.3-1.7 4 .6 6.5-.7 9.5-3.2 5.5-4.8 10.4-12.6 18.9-9.7 5.5 1.8 10.3 5.2 15.4 7.9 1.7 1 3.4 2.4 5.2 3.2a19 19 0 0 0 12 1.2c4.7-1.1 8.3-4.8 11.2-8.5 2-2.4 4-5.4 6.9-7 1-.4 2.3-.2 3.4-.4 1-.3 2.2-1.2 3.4-1 3.4.3 5 3.6 7 6a31 31 0 0 0 6 6.3c5 3.6 11.2 5 17.1 6.3q2.6.7 5.2 1.3h12.9" class="b"/><path d="M9.7 92H19c2-.1 4.1.3 6-.2 7.1-3.8 13-2.9 20.6-2 3.4.4 7-.3 9.5-2.8l6-5.1c3.3-3 7.4-5.7 12-5.1 6.7.8 12.6 4.6 19 6.6 1.7 1 3.3 2.4 5 3.3 3.7 2 8 2.9 12.1 2.5 8.3-.6 11.7-8 17.2-13l1.7-1q1.4 0 2.6-.6c1-1.2 2.6-2.5 4.3-2.1 3 .5 4.3 3.7 6 5.8a31 31 0 0 0 6 6.4c5 3.7 11.2 5 17.2 6.3 1.7.2 3.5.8 5.2 1h12.8" class="b"/><path d="M9.7 87.3h14.6c2.5-.8 5-2 7.7-2.3 5.7-1 11.7.6 17.2-1.5 2.8-1 4.9-3.4 6.8-5.6 4.5-3.4 9.6-7.3 15.5-6.3 5.1.7 9.8 3.1 14.6 4.8 2.2 1 4.7 1.2 6.9 2.1 2 1.2 3.9 2.8 6 3.7 5.3 2 12.2 2.7 17.2-.4 3.7-2.3 6.1-6.3 9.4-9.2q1.2-.9 2.6-1.3c.4 0 1.3-.2 1.7-.4 2.1-3.1 4.6-4.5 7.8-1.7 2 2.5 3.8 5.6 6 8 3 3.7 7.4 6.2 12 7.4s9.2 1.8 13.8 2.7h12.8" class="b"/><path d="M9.7 82.7h14.6q1.3-.3 2.5-.8c5.9-2 12.3-1.7 18-3.6 4.6-1.5 8-5.1 10.4-9 3-3.3 7.4-6.1 12-5.5 3.7.5 7 2.3 10.3 3.8 4.4 2 9 4.1 13.8 4.8 1.5 0 3 1 4.3 1.8q2 1.1 4.3 1.8c5.2 1.3 12.2 2.8 17.2 0 2.7-1.4 4.7-4 6.8-6.2l2.6-2.3q1.2-.6 2.6-1c2-3.7 4.9-6 8.6-2.6 1.5 2 2.8 4.4 4.3 6.3q3.9 5.9 10.3 8.8c4.3 1.8 9.1 2.2 13.7 3q1.8.3 3.5.7h12.9" class="b"/><path d="M9.7 78H19c2 0 4.1.3 6-.2 6-2.8 12.8-2.6 19-5 3.8-1.5 7-4.6 9.4-8C54.2 63.5 55 62 56 61l2.6-2.1c7.8-6.6 13.7-3.3 21.5 1 2.8 1.4 5.6 3 8.6 4 1.3.5 3 .6 4.3 1.1q5.2 3 11.2 4.4c3 .7 6.2 1.5 9.4 1.3 4 0 7.2-2.9 10.3-5a6 6 0 0 1 3.5-1.2c1.7-1 2.7-3.2 4.3-4.4 3.8-3 6.4-.4 8.6 3q1.9 2.8 4.2 5.4a21 21 0 0 0 10.4 6.2q7.2 1.7 14.6 3.3h12.9" class="b"/><path d="M9.7 73.4h14.6c2.5-.8 5-2 7.7-2.4 7-1.5 13.9-2.7 18.9-8.3 2-2 3.2-4.7 5.2-6.6 5.7-4.3 11.3-8.3 18.8-5.9 4.5 1.4 8.6 3.9 13 5.7q10.6 3.5 21.4 6.8c5 1.4 8.3.5 13-1.7q1.6-.8 3.3-.8c1.8-.2 3-1.9 4.3-2.9 2.2-1.9 5.2-2.3 7.8-.9 2.4 2.1 4.4 5 6.8 7q4.6 4.1 10.4 6a137 137 0 0 0 14.6 4h12.9" class="b"/><path d="M9.7 68.7H20c2-.1 4.1.3 6-.5 6.4-2.4 13.6-2.6 19.7-5.8a25 25 0 0 0 6-4.5c1.2-1.1 2.3-2.7 3.5-3.8 1.8-1.3 4-2 6-3 9.2-4.2 16.2-3.8 25.8-1.3q3.4.9 6.8 1.3 4 0 7.8.9c8.8 2.4 10.8 5.5 20.6 2.8q1.2-.2 2.6-.1c1.8-.4 3.5-1.8 5.1-2.6a9 9 0 0 1 7.8-.2q1.3 1 2.5 2.3a45 45 0 0 0 12 9 77 77 0 0 0 17.3 5.5h12.8" class="b"/><path d="M9.7 64h14.6q5-1.5 10.3-2.5c5-1 10-2.1 14.6-4.6q1.8-1 3.4-2.3c1-.9 2.1-1.9 3.5-2q9-.8 18-2.6c4.9-1 9.7-2.6 14.6-3.3 1.7-.3 3.5-.2 5.2-.6 1.1-.2 2.3-.9 3.4-1.2 5.7-2 11 1.8 16.3 3.3 3.4 1 7 .2 10.3.2 2.8-.3 5-2.3 7.8-2.8q3-.6 6 .4c1.8 1.3 3.4 3.2 5.1 4.6A55 55 0 0 0 169.5 64h12.9" class="b"/><path d="M9.7 59.4H19c2-.1 4 .1 6-.2 7.3-2.3 15-2.5 22.3-4.6q2.8-.6 5.2-1.8c1.1-.5 2.4 0 3.4.3q2.6.6 5.2 1c10.5 1.5 16.3-1.4 25-6.9q3.5-2.2 7.7-3.8 2.1-1.3 4.3-3c6.4-3.6 11.4.9 17.1 3.1q4.8 1 9.5.2c2.9-.7 5.6-2.5 8.6-2.7q4-.2 7.7 1.2l2.6 2.4c7.1 7 15.9 12.8 25.8 14.8h12.9" class="b"/><path d="M9.7 54.7h14.6A85 85 0 0 1 41.4 52l7.8-.6c1.6 0 3.5-.4 5.1.4 9.7 4.4 19.9 3 28.4-3.2q3.4-2.6 6.9-5c1.6-1.2 3.5-2 5.1-3.2 2.6-2 5.2-4.7 8.6-4.9 6 0 10.6 4.9 16.3 5.4q3.5.3 6.9-.5c3.6-1.4 7.2-3.1 11.2-2.8q3.5.1 6.8 1.5 3.7 3.9 7.8 7.1c5 4 10.8 7.2 17.1 8.4h13" class="b"/><path d="M9.7 50h14.6q6-1.6 12-1.8 8.2-.3 16.3.8c1.1.2 2.3 1 3.4 1q3.8-1 7.8-.5l4.3.5q3.5-.6 6.9-1.7c5.9-1.8 10.5-6.1 15.4-9.8l4.3-2.7c1.6-1.2 3.2-2.5 5.2-3 5.3-1.2 10 2.5 14.6 4.7 3.4 1.8 7.2 3 11.2 2.4 3.6-.4 6.7-2.7 10.3-3.3q6.1-1 12 1.3l3.4 3a45 45 0 0 0 18 9.1h13" class="b"/><path d="M9.7 45.4h13.7c2 0 4-.9 6-1 6-1 12-.3 18-.4q2.6-.2 5.2 0c2.5.4 5.1 1 7.7 1 7.3 0 14.9-1 21.5-4.2q4-2 7.8-4.6 3.5-2 6.8-4.4c10.9-8.8 18.8 9.9 31.8 6.9 3.5-1.3 6.8-3.5 10.3-4.8 4-1.4 8.8-1.7 13-.4q4.7 4.5 10.2 8.1 3.6 2.4 7.8 3.8h12.8" class="b"/><path d="M9.7 40.7h14.6q4.6-1 9.4-1.4Q39 38.8 44 39c2.6 0 5.2-.5 7.7-.6q2.2 0 4.3.4 3.5.4 7 .4 8.6 0 17.1-1.7 5.3-1.4 10.3-3.5 3.2-1 6-2.8c2.1-1.4 4.3-3.2 6.9-3.4 5.3-.4 9.5 3.6 13.7 6 3.6 2.3 7.9 3.7 12 3.3q4-1.3 7.8-3.2c4.6-2.3 9.4-4.4 14.6-4.7 1 0 2.4-.1 3.4.2l4.3 3.8q4.4 4 9.5 7.1c1.6.5 3.5.2 5.2.3h8.5" class="b"/><path d="M9.7 36h14.6q5.5-1.2 11.1-1.8 5.6.2 11.2 0l6-.8q2.6.1 5.2.4 17.7 1.4 35.2-2a21 21 0 0 0 6-2.6c2.5-1.8 5.5-3 8.6-2.5 4 .8 7.5 3.6 11.2 5.4 3.1 1.5 6.8 2.5 10.3 2.5 4.4-.6 8.7-2.1 12.9-3.6 5-1.9 10-4 15.4-4.3l.9.1.9.8 2.5 2.2q3 2.8 6 5.3c.6.6 1.8 1 2.6 1h12.1" class="b"/><path d="M9.7 31.4h14.6c2.8-.5 5.6-1.7 8.5-1.8q7.3.4 14.7 0c3 0 6.3-.6 9.4-.3q12.4.7 25 .3c4.2-.2 8.6 0 12.8-.6 4.5-.7 8.2-4.3 13-4 3.6.2 6.9 2.2 10.2 3.6q5 2 10.3 2.4 5.3-.1 10.3-1c7-1.2 13.7-3.4 20.7-4.7.7-.1 1.8-.4 2.5 0 .5.2 1.4 1 1.8 1.3l3.4 3c.7.5 1.7 1.5 2.6 1.8h12.9" class="b"/><path d="M9.7 26.7h14.6c2-.3 3.9-1.6 6-1.3q8.5.4 17.1.3c4 0 8-.3 12-.1 10.4.3 20.7 0 31 .2q4 .2 7.7-.7c2.6-.7 5.1-1.7 7.8-2 5-.4 9.7 2 14.6 2.7q4.2 1 8.6.8h6.8q13.8-1 27.5-2.9a3 3 0 0 1 2.6.7l2.6 2c.3.2 1.3.4 1.7.3h12M9.7 22h13.7q1.3 0 2.6-.3h3.4q28.4.4 56.7 0 5.2.2 10.3 0c4.3-.4 8.6-1 13-.6q11.5 1.1 23.1.9a972 972 0 0 0 35.3-.4q1.2.4 2.5.4h12M9.7 17.4h172.6M9.7 12.7h172.6M9.7 8h172.6" class="b"/></svg>