<svg xmlns="http://www.w3.org/2000/svg" id="a" width="1920" height="2400" viewBox="0 0 192 240"><defs><style>.b{fill:none;stroke:#fff;stroke-miterlimit:10;stroke-width:.3px}</style></defs><path d="M0 0h192v240H0z" style="stroke-width:0"/><path d="M9.7 232h172.6M9.7 227.3h172.6M9.7 222.6h66.1c5.5.1 10.9-.6 16.3-.4 6.9-.1 13.8.6 20.7.4h69.6M9.7 218h14.6l1.7-.4h1.7q18.4.6 37 0c4.3 0 8.6-.9 12.8-1.6q6-1 12-.7c5.5.6 11 0 16.4.6q6 .6 12 1.4l11.2.1c8 0 16-.7 24-.4q4.8.1 9.5.4c2.3.2 4.7 0 6.9.6h12.9M9.7 213.3h14.6c1.7-.4 3.4-1.3 5.1-1.5l3.5.4c11.4 1.1 23 .7 34.3-.4 5-.7 9.7-2.4 14.6-3a35 35 0 0 1 7.8 0q4.6.8 9.4.6 9.5-.5 19 1.3l10.2.6c7.2.9 14.4-1.2 21.5-1.6q5.6-.2 11.2 1 1.6.4 3.4.6c1.7.6 3.4 1.7 5.2 2h12.9" class="b"/><path d="M9.7 208.6h14.6c2.8-.8 5.6-2.2 8.5-2.3l3.5.5q14.2 2 28.3.2c6.4-.7 12.5-3.1 19-3.5 4-.4 8 .7 12 .9 6.5 0 13.2-.4 19.7.4q4.4.4 8.6.7c2.9.2 5.7.9 8.6.9 5 0 9.9-1.3 14.6-2.6a22 22 0 0 1 13.8.1q1.5 1.5 3.4 2.7 2.4 1.4 5.2 2h12.9" class="b"/><path d="M9.7 204h14.6c2-.7 3.9-2 6-2.7 2.4-.8 5.2-1.5 7.7-.5a60 60 0 0 0 26.6.8c6.7-.8 13.1-3 19.8-3.1 3.2-.2 6.3.3 9.5.7 3 .3 6.3 0 9.4 0q6.9-.2 13.8.6 3.9.2 7.7.5l6 .8q4.3.3 8.6-.3c6.2-.9 11.8-4.3 18-4.6 3 1.7 5.6 4.4 8.6 6.2q1.6 1 3.5 1.6h12.8" class="b"/><path d="M9.7 199.3h13.7c1.3.2 2.4-.6 3.4-1.2l4.3-2.5c2.6-1.4 5.7-2.5 8.6-2l4.3 1.7c4.1 1.5 8.6 1.6 13 1.3q6-.6 12-1.3c4.8-.9 9.7-1.9 14.6-2 3.7-.4 7.4.4 11.1.7h16.4l14.6 1c8 1.3 14.4 2 22.3-.9l6-2c3.4.1 6.6 2.2 9.5 4 1.9 1 3.8 2.6 6 3.2h12.9" class="b"/><path d="M9.7 194.6H19c2 0 4.1.3 6-.2 5.7-2.5 10-8.2 16.3-8.9 1.6-.3 3 1 4.3 1.6q2.5 1.3 5.2 2c3.6 1 7.5.7 11.2.5q4.6-.2 9.4-.7 7.2-1.4 14.6-1.4c2.3 0 4.6.6 6.9.8l11.2.1c5.4 0 10.9.8 16.3.9q4.7.2 9.4.6 3 .7 6 1c5 .5 10-.4 14.6-1.9q4.9-.2 9.5 1.4 4.5 1.7 8.6 4c1.6.5 3.5.1 5.2.2h8.5" class="b"/><path d="M9.7 190H19c2-.1 4 .2 6-.2 6-2.3 10.2-7.6 15.5-11q2.3-1.7 5.1-2c1 0 1.9.8 2.6 1.3q4.7 3.2 10.3 3.8 6.4.6 13 .4c4-.3 8-1.1 12-1 2.8-.2 5.7.6 8.5.8q7.8.3 15.5.9a118 118 0 0 0 21.5.4c1.1.1 2.3.8 3.4 1q3 .8 6 1c3.2.2 6.4-.4 9.5-.7q3.8.2 7.7.7 4.5.8 8.6 2.5c1.7.6 3.4 1.7 5.2 2h12.9" class="b"/><path d="M9.7 185.3h14.6c8-2 13.5-8.8 19.7-13.8a15 15 0 0 1 4.3-2.3q1.4-.5 2.6.4 3.6 2.4 7.7 3.8 5.5 1.5 11.2 1.5H75q3.8-.7 7.7-.8 3.4 0 6.9.9l6 .6c8.6.8 17 3 25.8 2.4q2.5 0 5.1-.7c1.1-.3 2.3-1.1 3.5-.9q4 1.8 8.5 2 3 .1 6 0l9.5 1.6q5.3 1.3 10.3 3.3c2 .6 3.9 2.1 6 2h12" class="b"/><path d="M9.7 180.7H19q3 0 6-.2 7.3-2.3 13.8-6.5c3.8-2.5 7-5.8 11.1-7.9 3.1-1.5 3.3-.8 6 .6a24 24 0 0 0 12 2.1c3.8-.2 7.5-1.4 11.2-2q3.8-1.2 7.8-.7c3.4.8 7 1 10.3 2l9.4 2.4 6.9.9q5.7.6 11.2-1l3.4-1.7c1-.7 2.3-1.2 3.5-.6 3 1.4 6.2 1.8 9.4 2.5 5.8 2.5 12.1 3.8 18 6q4.8 1.7 9.5 3.9c1.6.4 3.5 0 5.1.2h8.6" class="b"/><path d="M9.7 176h14.6a68 68 0 0 0 15.4-5.3q4.9-2.5 9.5-5.7l4.3-2.6a5 5 0 0 1 2.6-.7q3.8 1 7.7 1c6 0 12-1.5 18-2.2a54 54 0 0 1 7.8-.4c2-.2 4-.7 6-.5 3.5.3 6.9 1.4 10.3 2.3l10.3 2.5c3.6.8 7.4 2 11.2 1.4 1-.2 2.3-.8 3.4-1 1.5-.1 3 .6 4.3 1q1.2.5 2.6.7l3.4 1.4q4.6 1.4 9.5 2.2 5.6 1 11.1 3c2.6.8 5.1 2.2 7.8 2.9h12.9" class="b"/><path d="M9.7 171.3h14.6c6-1.3 12.1-2.4 18-4.3q4.5-1.4 8.6-3.8c1.7-.8 3.4-2.1 5.2-2.9 6.5-1.3 13-3.5 19.7-4.2 4.9-.6 9.8.4 14.6.7 2.9-.4 5.7-1.3 8.6-1.3 5.4-.2 10.6 1.7 15.5 3.7 3.6 1.5 7.3 3.3 11.2 3.9 2.8.5 5.7-.9 8.5 0l3.5.5q2.6.8 5.1 1.2l10.3 1.6q4.9.8 9.5 2.5c2.3.7 4.5 1.9 6.9 2.4h12.9" class="b"/><path d="M9.7 166.7h14.6q4.6-1 9.4-1.7c7-.8 14.2-1 20.6-4 10.6-4.6 16.6-12.7 29.2-9 9.2 2.8 5.2 2.4 14.6 1 10-1.5 17.6 3.6 26.7 6q3.4.8 6.9.5l5.1.2q2.6.2 5.2.6l8.6 1q6 1 12 3c2.3.7 4.6 1.8 6.9 2.3h12.9" class="b"/><path d="M9.7 162h14.6q5.4-1.5 11.1-1.6c8.4-.3 18.2 1.8 25-4.3 7-6.5 13-12.5 23.2-7.7 2.3 1 4.5 2.4 6.8 3.3q2.2.4 4.3.1 10-1 19.8.6c5.4.7 10.8 2.2 16.3 2.6q3.4-.1 6.9-.5 7 .6 13.7 2.2c6.1 1.3 12 3.5 18 5.3h13" class="b"/><path d="M9.7 157.3h14.6c2.8-.7 5.6-1.7 8.5-1.7 5-.3 9.8.8 14.7 1.1 2.8.2 6 .5 8.5-.7 2-1 3.7-2.8 5.2-4.4q3-3 6-5.7c6.3-5.4 11.7-4 18 .2 1.8 1 3.4 2.5 5.2 3.4 2.7 1 5.8 1 8.6 1.1q6 .3 12-.5c3.8-.5 7.5-1.5 11.2-1.8q2.6-.2 5.2.3c1 .2 2.3.7 3.4.6q3.4-.7 6.9-1 3.4.3 6.9 1.4c8.3 2.3 16.6 5.3 24.9 7.7h12.9" class="b"/><path d="M9.7 152.7H19c2-.1 4.1.2 6-.2 6.7-3.4 12.8-2.1 19.8-.8q3.4.6 6.8.8c2.1 0 3.7-.3 5.2-1.8 4.9-4.6 10.7-13.2 18-12.8 4.3.4 8 3.2 11.2 5.8q2 2 4.3 3.6 2 1.1 4.3 1.6c5 1.3 10.5 1.7 15.5-.1q4-1.7 7.7-4.3c2.6-1.7 5.4-3.8 8.6-3.5 1.1 0 2.3.8 3.4 1l1.8-.5c2.2-.4 4.6-1.1 6.8-.7q6.5 2.4 13 5.3 8.8 3.7 18 6.6h12.9" class="b"/><path d="M9.7 148h14.6c1.4-.4 2.8-1.5 4.3-2 6-3 12.6-.8 18.9 0 2.2.2 4.7.5 6.8-.1l2.6-2.4c2.6-2.2 5.1-4.8 7.7-7 3.2-3.1 7.7-5.1 12-3.3 4.5 1.8 8 5.3 11.2 8.6q3 3.3 7 5c1 .4 2.2 1.3 3.4 1a14 14 0 0 1 6.8-.6c3.2.7 3 1.2 6-.6 5.8-3 8.9-9.2 13.8-13.2a5 5 0 0 1 3.4-1c.4.2 1.3.3 1.7.3l2.6-.8c5.7-1.2 5.7-.5 10.3 2.5l9.5 6a56 56 0 0 0 17.2 7.6h12.9" class="b"/><path d="M9.7 143.3h13.7c1.2.2 2.4-.6 3.4-1.2l3.5-1.7c6-2.8 12.8-1 18.9.7 1.3.3 2.8 1 4.3.8 2.1-1 4-2.7 6-4.1 3.8-3 7.3-6.7 12-8 8.6-1.5 14.3 8.4 19.8 13.4 1.9-1 3.8-2.3 6-2.6a24 24 0 0 1 13.7 2.6c2-.3 3.7-2 5.2-3.2 3.8-3.3 6.3-8 10.3-11 .4-.3 1.3-.6 1.7-.7q1.4.1 2.6-.4 3.1-1.9 6.9-2c2.5.9 4.7 3 6.9 4.5a51.3 51.3 0 0 0 25 13h12.8" class="b"/><path d="M9.7 138.7h13.7c1.2.1 2.4-.6 3.4-1.2l3.5-1.6c6.1-2.7 12.9-.8 18.9 1.3q2 .7 4.3.3 3-1.6 6-3.6c3.6-2.4 7-5.5 11.2-7 8.6-2.6 14.2 6.7 19.7 11.6 1.4-.6 2.8-1.7 4.3-2 4.3-1.3 8.8.1 13 1.2l2.5.9a18 18 0 0 0 6-2.8c4.3-2.7 7-7.3 11.2-10.1 1-.7 2.4-.7 3.4-1.2q2.4-1.7 5.2-2.4 1.8-.7 3.4.4 2.2 1.3 4.3 3 4.5 3.6 9.5 6.8 7.5 4.8 16.3 6.4h12.9" class="b"/><path d="M9.7 134H19c2-.1 4.1.3 6-.2 8.5-4.5 13.4-4.4 22.3-1.3 4.3 1.5 6.6.6 10.4-1.5 6.6-3.3 13.5-12 21.4-8.5 3.8 1.7 6.6 4.7 9.5 7.5a14 14 0 0 0 6 4l2.6-.3q2.2 0 4.3.3l4.3-.8c4.7-.9 9.7-1.7 13.7-4.5 3-2 5.5-4.8 8.6-6.4q1.9-.6 3.5-1.7 2.3-1.7 5.1-2.4c1.2-.5 2.5.3 3.5.8l3.4 2.3 7.7 5.6a47 47 0 0 0 18 7.1h13" class="b"/><path d="M9.7 129.3H20c2 0 4.2.4 6-.5 8.8-4.3 13.5-3 22.3-.3 4 1 7.8-.7 11.2-2.6 3.3-1.8 6.4-4.3 9.4-6.5 3.7-2.6 8.3-5.3 13-3.5 5.6 1.8 8.6 8.2 14.5 9.2 3.4.6 7 .2 10.3.1 3.5-.1 7 0 10.4-1 3.4-.7 6.4-2.8 9.4-4.5 1.3-.9 3-1.2 4.3-2q3-2.7 6.9-3.6c2.9.5 5.3 2.6 7.7 4.2a55 55 0 0 0 17.2 9.3q3.4 1 6.9 1.7h12.8" class="b"/><path d="M9.7 124.7h14.6c1.7-.4 3.4-1.4 5.1-2q3.4-1 6.9-1 4 0 7.7 1.2c3 1 6.3 1.9 9.5 1.2 9.7-2 15.9-10.4 24-15.3 4.1-2.4 8.4-2 12 1 2.2 1.7 4.3 3.6 7 4.5 3.5 1.3 7.4 1.8 11.1 2.5 4 .7 8 1.4 12 .7 3.6-.7 6.9-2.6 10.3-3.6 2.3-1.8 4.9-3.6 7.8-4.1 2.5.4 4.7 2.2 6.8 3.5q4.2 3.1 8.6 5.6c5 2.9 10.7 4.5 16.4 5.8h12.8" class="b"/><path d="M9.7 120h14.6c2.5-.7 5-2 7.7-2.5 3-.7 6.4-.4 9.4.3 2.9.6 5.7 1.8 8.6 2 5 .5 9.8-1.6 13.8-4.2q5.4-4 10.3-8.6c3.9-3.4 8.1-8.1 13.7-7.8 2.4.2 4.3 1.7 6 3q3.7 2.4 7.8 4.1a37 37 0 0 0 20.6 4.2c2.3-.4 4.6-1.2 6.9-1.5 1.2-.5 2.3-1.6 3.4-2.2 1.8-1 4-2.2 6-1.8q3.2 1.5 6 3.6a67 67 0 0 0 25 11.4h12.8" class="b"/><path d="M9.7 115.3h14.6c1.4-.3 2.8-1.2 4.3-1.7a20 20 0 0 1 6.8-1.3c4.5 0 8.7 1.8 13 2.8 1.9.5 4-.2 6 .1 9 0 19.5-10.4 26.6-15.6C84 97.3 88 94.8 92 96.2c1.5.6 3 1.8 4.3 2.6 7 4.6 14.8 8 23.2 5.3q3-.9 6-1.5l2.6-.3c.5.1 1.4 0 1.8-.3 2.3-1.4 5.8-3.5 8.5-2.8 3.7 2 6.9 4.7 10.4 6.9q4.5 2.9 9.4 5.5 4.5 2.3 9.5 3.4c1.9.6 4 .2 6 .3h8.5" class="b"/><path d="M9.7 110.7h14.6c1.4-.4 2.8-1.4 4.3-2q5-2 10.3-.8 2.6.6 5.1 1.5c1.4.4 2.9 1.2 4.3 1.2q2.6-.6 5.2-.8 3-.1 6 .7c1.1.4 2.4-.4 3.4-.8 5.2-2.2 9.8-5.4 14.6-8.2 3.5-2 7.2-4 11.2-4.6 3-.5 5.4.8 7.7 2.3q3 1.7 6 3c9.8 3.8 15.1.5 23.3-4.5 1.2-.8 2.9-1.2 4.3-1.8 2.2-1.8 4.8-3.6 7.7-3.9 2 .6 3.6 2.3 5.2 3.6q3.7 3.5 7.7 6.8c11.2 9.4 18.2 8.3 31.8 8.3" class="b"/><path d="M9.7 106h14.6c1.4-.4 2.8-1.5 4.3-2a16 16 0 0 1 6.8-1.4q4.5.3 8.6 2c2 .6 4 1.7 6 1.1q3-.6 6-.3c1.1 0 2.4.6 3.5.5q3.5-1.2 6.8-2.9c7.8-3.6 16.2-8.1 25-6.7q2.3.6 4.3 2 2.5 1.5 5.1 2.6c9.1 3.9 16.3 1.4 24-4q3.1-1.8 6.1-3.4c2.1-1.6 4.4-3.3 6.9-4.3 4.5.2 9.4 5.8 12.9 8.4a32 32 0 0 0 18.9 8.4h12.9" class="b"/><path d="M9.7 101.3h14.6c.8-.2 1.8-1 2.5-1.3q2.1-1.3 4.3-2.1c6-2.2 12.1.6 18 1.3q7.2.9 13.8-1.7c9-3.5 19-6 28.4-3 1.5.6 2.9 1.8 4.3 2.5q3 1.7 6 2.8c7.5 2.8 15.6.7 22.3-3 4-2.3 8.1-4.2 12-6.5 6.5-4.1 14.3 3 19.8 6q5.6 3.5 12 4.8c2 .4 4.1.2 6 .3h8.7" class="b"/><path d="M9.7 96.7h13.7q1.6 0 2.6-1l2.6-1.7q3.9-2.6 8.5-3.2c3.4-.4 7-.2 10.4-.4s6.8-.9 10.3-1c4.3-.4 8.5-1.6 12.9-1.7a46 46 0 0 1 18.9 3.8c3.2 1.6 6 3.8 9.4 5 1.7-.2 3.4-1 5.2-1.3q6-1 12 .5 1.6.6 3.4.9 2.2-.7 4.3-1.6 3.5-1.7 7-3.2 3-.7 6-1.8c4.5-1.8 9.8-2.3 14.5-.7 5.9 2 11 6 17.2 7.3q6.9.1 13.8 0" class="b"/><path d="M9.7 92h14.6c.5-.1 1.3-.7 1.7-1q4-3.2 8.6-5.4c3.5-1.5 7.5-2.2 11.1-3.5 3.4-1.2 6.7-3 10.4-3.3 4.5.4 9.2 0 13.7.9s8.8 2.8 12.9 5c4.6 2.2 9 5 13.7 7.2a36 36 0 0 1 27.5 0q2.2-.7 4.3-1.8 1.3-.8 2.6-1c3.5.6 7-.4 10.3-1.3 7.2-2.4 11.9-4 19 .1 3 1.6 6 3.6 9.4 4.1h12.9" class="b"/><path d="M9.7 87.3h14.6c.9-.2 1.8-1.2 2.5-1.7l3.5-2.6c4.4-3.2 9.6-4.9 14.6-7 3-1.2 5.7-3.3 8.6-4.8q1.2-.6 2.6-.9l4.3.4c3.4.2 7 .3 10.3 1.3 6.2 1.7 11 6.4 16.3 9.8q3.7 2.3 7.7 4c1.4.5 2.9 1.3 4.3 1.4l1.7-.5a38 38 0 0 1 24.1.6l4.3-2c1.4.2 2.8 1 4.3 1.2 5.8.6 11-2.4 16.3-4.3 3.3-1.2 7.1-1.3 10.3.3 3 1.5 5.6 3.5 8.6 4.7 1.7.3 3.5 0 5.2.1h8.6" class="b"/><path d="M9.7 82.7h12.8q1.4.1 2.6-.4 4-3.4 8.6-6c4.6-2.4 9.8-3.3 14.6-5.2 2.8-1 5-3.3 7.8-4l5.1-.4c9.1-1 14-2.8 21.5 3.8 2.8 2.4 5.8 4.9 9.4 5.8 3.8 1.2 7.4 3 11.2 4.2 5.8 1.9 12 2.8 18 1.8q3.2-.6 6-1.7c1.3-.3 2.4.8 3.5 1.3q1.2.6 2.6.8a14 14 0 0 1 4.3 0c1-.1 2.4-.5 3.4-.8l6.9-2.6c3.8-1.4 8-3 12-1.8 2.9.9 5.3 2.9 7.8 4.4q1.1.9 2.5.8h12.1" class="b"/><path d="M9.7 78h14.6c.9-.3 1.8-1.2 2.5-1.8l4.3-3.5q4.4-3 9.5-4.5c3.4-1 7-1.2 10.3-2.2 1.5-.4 2.9-1.3 4.3-1.8 1.6-.4 3.5 0 5.2-.3q4.2-.4 8.6-1.4c5-1.1 10-1 14.6 1.4 2 1 3.8 2.6 6 2.9q2 .2 4.3 0 2.6.5 5.1 1.4c6.8 2.8 13.2 7 20.7 7.3 2.2.3 4.6-.5 6.8-.4 2 .2 3.4 1.7 5.2 2.2 4.6 1.5 9.3-.5 13.7-1.6 5-1.2 10.3-2.8 15.5-1.8 2.8.6 5.4 2.2 7.7 3.8 1.6.6 3.5.2 5.2.3h8.6" class="b"/><path d="M9.7 73.4h14.6c1.2-.4 2.3-1.5 3.4-2.2l5.2-3.5q5.1-3.3 11.1-4 3.9-.3 7.8-.4c1.4-.1 2.9-.7 4.3-1 5.3 0 10.4-2 15.4-3.4q6.4-2.1 13-.5c2.2.4 4.4 2.2 6.8 1.2 9.1-4.3 16.7 3.8 25 6.5q2.4.9 5 1 2.3 0 4.4.4c1.8.3 3.5 1.4 5.1 2.2 2.5 1 5.2.9 7.8.7q3.8-.1 7.7-.5a72 72 0 0 1 14.6.5q2.6.4 5.2 1.5c1 .4 2.2 1.2 3.4 1.5h12.9" class="b"/><path d="M9.7 68.7H19c2-.1 4.1.2 6-.2q4.8-2.4 9.5-4.7 4.9-2.3 10.3-3 3.9-.3 7.7-.5 2.2-.3 4.3-.7c3.8-.6 7.5-2 11.2-3.3a46 46 0 0 1 21.5-3c1.2.2 2.4-.8 3.4-1.4q2.8-1.7 6-2.4c6.3-1.1 11.7 3 17.2 5.4 3 1.5 6.3 2 9.4 2.7 2.6.7 5.1 2 7.8 2.5q2 .5 4.3.7 4.2 1.3 8.6 2.5 7.6 1.8 15.4 3.3c2.6.5 5.2 1.5 7.8 2h12.8" class="b"/><path d="M9.7 64h14.6c5.5-1.5 10.7-4 16.3-5.6s11.5-2 17.2-3.4q5-1.6 10.3-3.3 6.3-1.6 12.9-3L91.3 47c.5 0 1.3-.6 1.7-1q1.6-1.1 3.4-2c3.2-1.8 6.7-3 10.3-2.8 5.2.3 9.8 3 14.6 4.4 4.5 1.6 9.3 1.7 13.8 3l2.6.8q2.6 1.9 5.1 4a53 53 0 0 0 10.3 6 81 81 0 0 0 16.4 4.6h12.9" class="b"/><path d="M9.7 59.4h14.6c5.7-1.5 11.4-3.6 17.1-5.2l11.2-3.4q2.2.1 4.3-.5 4.2-1.3 8.6-2.4c2.8-.7 5.8-.8 8.6-1.4C80 45 86.3 45 92 43c3.6-1.8 7.2-3.9 11.2-4.9 2.5-.6 5.2-1.3 7.7-.8q3.4.9 6.9 1.6 5.7 1.3 11.2 3.3a17 17 0 0 1 12 .4l4.3 4.3a41 41 0 0 0 24 12.5h13" class="b"/><path d="M9.7 54.7H19c2 0 4 .2 6-.2 7.7-2.8 15.8-4.4 23.2-7.8 2.1-1 4.7-.8 6.9-1.3 3.9-1.3 7.9-2.5 12-2.6 4 0 8-.6 12-.9 3.7-.4 7.5-.3 11.2-.7 2-.3 4-1.3 6-2a33 33 0 0 1 7.7-2 34 34 0 0 1 13.8 1.5q4.5.8 8.6 2.4c3.2 1.3 4.5 2 7.7 0 3.1-1.8 6.8-3.2 10.3-2.2q2.3 2 4.3 4c5.7 6 12.1 11 20.7 11.8h12.8" class="b"/><path d="M9.7 50h14.6c2.9-.9 5.6-2.4 8.5-3.3q5.6-2 11.2-3.5a9 9 0 0 1 3.5-.8q2.2-.2 4.3-.7c3.2-.7 6.2-2.4 9.4-3.2q3.9-.7 7.7-.4c5.5-.3 11 .8 16.4 1.6q3 .5 6 .2 2.6-.4 5.1-1.3c4.2-1 8.6-2 13-2 3.4 0 6.8.8 10.2 1.4q5.3.6 10.3 1.5c2.9.2 5.4-1.5 7.8-2.8 3-1.6 6.8-2.9 10.3-1.8 6.2 6.1 12.3 13.8 21.5 15.1h12.8" class="b"/><path d="M9.7 45.4h13.7q1.4 0 2.6-.8a86 86 0 0 1 13.7-5.8c1.1-.2 2.3-.9 3.5-.7q3.4.4 6.8 0c4.2-.2 8-2.1 12-2.5q2.6-.3 5.2 0 3.9-.1 7.8.5c4.2.6 8.5 1.7 12.8 2 2.3.3 4.7-.2 7-.6 7.6-.8 15.3-3 23.1-2q3.8.4 7.7.7 2.6.3 5.2.5a17 17 0 0 0 5.2-1.1c4-1.5 7.7-4 12-4.5 2.6-.2 3.3-.2 5.2 2l5.1 5.3c3.2 3 6.8 6 11.2 7h12.9" class="b"/><path d="M9.7 40.7h14.6c2.3-.9 4.5-2.5 6.8-3.6l6-2.7 1.8-.7 2.5.1q5.6.6 11.2.2c3.1-.5 6.3-1.4 9.5-1.4q5.5 0 11.1.7c4 .5 8 1.5 12 2q2.6.4 5.2.1 1.8-.3 3.5-.4c7.1.2 14.3-1.2 21.4-1q4.8.4 9.5.4 3.8.2 7.7.1a41 41 0 0 0 13.8-3.7q3-1.1 6-1.7c1.2-.2 2.6-.3 3.4.8 4.1 3.7 7.9 8.1 13 10.6 1.5.4 3.4.1 5 .2h8.7" class="b"/><path d="M9.7 36h14.6c2.3-.7 4.5-2.2 6.8-3.2l4.3-2q2.6-.3 5.2-.3l12-.1c2.6-.2 5.2-.7 7.8-.7q3.8.1 7.7.5c4.3.1 8.6 1 12.9 1.5q5.6 1 11.1.1c5.2.6 10.4.3 15.5.2 9.5-.2 19 .3 28.4 0 5.6.3 11-1.7 16.3-3.4 1.9-.4 4-1.2 6-.9q3.5 2.7 6.9 5.6c1.3 1 2.7 2.3 4.3 2.7h12.9" class="b"/><path d="M9.7 31.4H19q3 0 6-.2l5.2-1.8q2-1 4.3-1c6-.4 12-1.5 18-1.2q8.2-.7 16.3.3c7.2 0 14.4 1.8 21.5.9 2.3 0 4.6.4 6.9.4q6.8.2 13.7 0 4.8.2 9.5.2 6.8-.2 13.7.1 4.8.5 9.5.1 6.4-.8 12.9-2.3c1.6-.3 3.4-1 5.1-.7l2.6 1.7c1.7 1 3.3 2.8 5.2 3.5h12.9" class="b"/><path d="M9.7 26.7H20q4.3.1 8.6-.6 5.2-.3 10.3-.8c4.5-.4 9.1-1.1 13.7-1q5.6-.1 11.2 0a371 371 0 0 0 26.6.5q10.4.6 20.6.5c6.9.3 13.8 0 20.7.2 10.3 1 20.7.2 30.9-1.3.8 0 1.8-.3 2.6 0 1.4.7 2.8 2 4.3 2.5h12.9M9.7 22h25.7q15.9-.5 31.8-.4c10.3.2 20.6-.6 31-.2q14.5.4 29.2.4a788 788 0 0 0 40.3-.3c.8.2 1.8.7 2.6.5h12M9.7 17.4h172.6M9.7 12.7h172.6M9.7 8h172.6" class="b"/></svg>