<svg xmlns="http://www.w3.org/2000/svg" id="a" width="1920" height="2400" viewBox="0 0 192 240"><defs><style>.b{fill:none;stroke:#fff;stroke-miterlimit:10;stroke-width:.3px}</style></defs><path d="M0 0h192v240H0z" style="stroke-width:0"/><path d="M12.9 230.9q5.4.6 10.8.5c3.5 0 7.1-.5 10.7-.7 3 0 6-.6 9.1-.6 2 .1 3.9.9 5.8 1.2 2.8.6 5.4-1.1 7.4-3q3-2.7 6.6-4.8c2.6-2 5.2-4 8.3-1.7 4.3 2.6 7 8.1 12.4 8.5 2.8.2 5.5-.6 8.3-.6q3.4 0 6.6.9c1.6.4 3.3 1 5 .8 1.6 0 3.3-.5 5-.6 1.5-.2 3.3.2 4.9.3 3.3.3 6.6 0 10-.1 4.6 0 9.3-1 14-.8 3-.1 6 1.5 9 1.2 2.7-.3 5.1-1.6 7.5-2.7l6.6-3c4.3-2.1 7.2 0 10.8 2.4q3.6 2 7.4 2.8" class="b"/><path d="M12.9 229.2h13.2c3.3-.2 6.6-1 10-.8 2.4.1 5-.4 7.4-.6q2.6 0 5 .8 4.2 1.7 7.4-1.5c2-1.8 4-3.8 6.6-4.9 1.5-.7 3.2-1.6 5-1.7s3.5.9 5 1.8l4.9 3.1q3.4 2.2 7.4 2.5 5.9-.1 11.6-.5c2.6-.2 5 1.3 7.4 1.7 2.2.3 4.5-.3 6.7-.1q5.8.3 11.5.2c4.2 0 8.4 0 12.4-1.1q2.5-.5 5-.1c2.7.6 5.5 1.7 8.3 1q4-.6 7.4-2.7c3-1.5 6.6-5.6 10-5 1.9.5 3.4 2 4.9 3.3 2.5 2.4 5.8 3.6 9.1 4.2" class="b"/><path d="M12.9 226.8c3.3.3 6.6 0 10 .1 1.5 0 3.3.3 4.9 0 1.6 0 3.3-.5 5-.6q2.8-.1 5.7 0c1.7 0 3.4-.5 5-.7 2.6-.6 5 .5 7.4 1.3 4.2 1 7-3.5 10.8-4.5 6-2.4 8.6.4 14 1.9 3.3.6 6.7.5 10 .7 2.1 0 4.4.5 6.6.3 2.4 0 5-1.4 7.4-.6 1.7.6 3.3 1.6 5 2 3.8.8 7.7.2 11.6.2q6.5.3 13.2.1c3 0 6-1.5 9-1.3 2.3.2 4.5 1.1 6.7 1.3 3.3.2 7-.1 10-1.7 2.8-1.6 5-4.4 8.2-5.4 2.4-.4 4.2 1.7 5.8 3.2 2.6 2.9 6.2 3.6 10 3.7" class="b"/><path d="M12.9 223.7c3 .6 6 .3 9.1.5 2.2.1 4.4.8 6.6.6 1.6-.1 3.4-.6 5-.7q2.4-.1 5-.1c2.1-.1 4.3-1 6.5-1 4.2-.3 6.2 3 10.8 1.4 4.2-1.3 8.8-2.7 13.2-2 2.5.3 5 1.3 7.5 1 3-.2 6-1.5 9-1.5 1.7 0 3.4.5 5 .7q3 .2 5.8-.7c2.5-1 4.5.1 6.6 1.3q2.8 1.5 5.8 1.5c2.5 0 5-.8 7.5-.6q2.9.2 5.8.5 3.2 0 6.6.2 3 .2 5.8-.3 3.7-1 7.4-.3 3.7.8 7.4.7 3.6.1 6.7-1.2c2.8-1.4 5.6-4.8 9-3.8 2 .8 3.4 2.3 5 3.4 2.7 1.8 6.1 1.4 9.1 1.4" class="b"/><path d="M12.9 220.5c2.7.4 5.6.3 8.3.7 2.2.3 4.4 1.1 6.6 1.5 2.5.2 5-.8 7.4-1q2.2 0 4.2-.3c1.9-.3 3.8-1 5.8-1 2.6-.3 4.9 1.4 7.4 2 4.3.8 8.9-.3 13.2-.6 3.6-.4 7.2.4 10.8.1 3.3-.4 6.5-2 9.9-2.1 2.2 0 4.4.6 6.6.1 2.2-.2 4.4-1.6 6.6-1 2.3.6 4.3 2.1 6.7 2.7q2 .5 4 .2 2.6-.8 5-1c2.2 0 4.5.6 6.7.8 3 0 6 0 9 .8 2.8.6 5.6.1 8.3-.1q3-.1 5.8 0c3.6.2 7.3.8 10.8-.1 2.2-.7 4.3-2 6.6-2.3 2-.2 4 .9 5.8 1.7 3.3 1.5 7.2 1 10.7.9" class="b"/><path d="M12.9 217.8c1.9 0 3.9-.3 5.8 0 4.7.9 8.1 3.6 13.2 2.4 2.5-.4 5-.3 7.5-1 2.4-.7 4.8-1.9 7.4-1.5 2.3.3 4.4 1.6 6.6 2.1 6 1.4 12.2.2 18.2.4q3 0 5.8-.2 3.8-.8 7.4-1.7c2.2-.4 4.5-.4 6.7-.8q2.4-.6 5-1.4c2.5-1 5 .6 7.4 1.7q4.4 2.3 9 .6c3-.8 6.1-.6 9.2-.4q2.8-.2 5.7.3c3.3.8 6.5 2.3 10 2.2 3 0 6-.6 9-.4q4.2.4 8.3.4 3-.3 5.8-.7c2.5-.3 5 .4 7.5.6q5.3.2 10.7 0" class="b"/><path d="M12.9 216.2c1.6-.3 3.3-1 5-1 2 0 4 1.2 5.8 2q3.5 1.5 7.4 1c2.7-.2 5.6 0 8.3-.8 2.2-.8 4.2-2.3 6.6-2.7 3.2-.4 6 1.8 9 2.4a36 36 0 0 0 12.5 1.1q4.5 0 9-.5 8.5-1.1 16.6-3.6c3.2-1.1 5.2-1.3 8.3.2 6.2 3 8.1 3.3 14.9 1.5 6.1-1.8 8.9-2.4 14.9.6q5.5 2.5 11.5 1.7 3.8-.3 7.5 0 4.1.3 8.2.2h6.7l5.7-.3c2.8 0 5.6.5 8.3.3" class="b"/><path d="M12.9 215.3c5.3-1.6 5.5-2.2 10.8.2 2.8 1 6 .5 9 .6 3.8 0 6.8.2 10-2.3q1.8-1.4 4.1-2.2c1.4-.3 2.9.2 4.1.7l4.2 1.8a23 23 0 0 0 10.7 2q5.9-.3 11.6-1.5 3.7-.5 7.4-1.3c3.6-1 7-2.9 10.8-2.8 2 0 4 1.1 5.8 2 2.6 1.1 5.3 2.5 8.2 2.7q5.4.3 10-2.3c2.9-1.7 5.2-1.7 8.2-.1q2.8 1.6 5.8 2.5 3.4.8 6.6.9 2.6 0 5-.3 5.7.3 11.6.2 4.1.2 8.3-.4 2.3-.6 5-.7c3 .3 6 1 9 1.1" class="b"/><path d="M12.9 213.9c2 0 3.9-.8 5.8-1 2-.1 3.9.6 5.8 1q4 .2 8.3 0c2.4 0 5 .3 7.4-.6 3.7-1.5 6.3-6 10.7-3.5 7.6 3.4 12.3 5.4 20.7 3.3q3.3-.8 6.6-2 3.3-.7 6.7-1.8c5.5-3 8.4-3.1 14-.1 3.7 1.8 7.4 4 11.6 4.3 8.6.4 10.4-5.3 15.7-2.9 2.2 1 4.3 2.3 6.6 2.9 3.8.7 7.8.4 11.6.3q4 .1 8.3 0 2.9 0 5.8-.2 2 0 4-.3c2.3-.5 4.4-1.8 6.7-2 1.7-.2 3.4.6 5 1l5 1" class="b"/><path d="M12.9 211.6c2.5.4 5 0 7.4-.1q2.6.2 5 .3l5.8-.1c7.4 0 7.6.6 14-3.3a6 6 0 0 1 4.2-.5l5 1.5c3.7 1 7.6 2.3 11.5 2.4 2.8-.1 5.6-1 8.3-1.6q5.9-1.4 10.7-5c3.9-3 6.4-4 10.8-1 3.4 2.3 6.8 4.8 10.7 6.2 3.5 1.2 7.3 1 10.8.3 2.7-.5 5.5-1.9 8.3-1 2.7.7 5.3 2 8.2 2q5.9.1 11.6-.2c3.6 0 7.2.2 10.8-.3 2.4-.5 5-.3 7.4-1.2s4.8-2.3 7.4-2c2.8.5 5.5 1.5 8.3 1.9" class="b"/><path d="M12.9 208.8c5.1 1.2 10.5.8 15.7.7 3.3-.2 6.7 0 10-.5q2.5-.8 4.9-1.7t5-.3q2.8.9 5.7 1c3.7.2 7.2 1.1 10.8 1.6q2.9 0 5.8-.6c9.3-1 10.1-1.7 16.5-8.3 5.5-5.4 8.8.9 13.3 4 2.6 2 5.7 3.7 9 4q5.4.2 10.8 0 3-.1 5.8.2 4 .9 8.3.7 5.3-.1 10.7-.5c4.2 0 8.4 0 12.4-1q3-.3 5.8-.8c2.2-.4 4.4-1.2 6.6-1.5 3-.3 6.1.6 9.1 1" class="b"/><path d="M12.9 206.2c2.2.2 4.4.8 6.6.9q3.8 0 7.5-.2c4.7-.2 9.5 0 14-1.2 2.8-.8 5.6-.2 8.3.7q2.8.6 5.8.4c3.3-.2 6.6.5 9.9.6q2.4-.1 5-.4h5c7.3.3 8.6-2.6 13.1-7.5 4-4.6 6.2-3.5 10 .5 4.3 4.5 7.6 6.6 14 6.5 2.5.1 5 .6 7.5.7q4.1 0 8.2.2 9.2.1 18.2-.6c3.9 0 7.8 0 11.6-.8 3-.6 6.1-.4 9.1-.7 2.2-.2 4.4-.8 6.6-1q3-.1 5.8.2" class="b"/><path d="M12.9 204.1q3.4.2 6.6 0c2-.2 3.9-.8 5.8-1 2.5 0 5 .6 7.4.7q4.2-.1 8.3-.5c2.9-.2 5.5 1.2 8.3 1.6 2.4.4 5 .2 7.4.2l6.6.1c2.5 0 5-.5 7.5-.2q5.3.5 10.7 0c2.4-.4 4.1-2.3 5.8-3.8 3-3.2 5.6-7.7 10-3.2 4.7 4.7 7 6.8 14 6.7 2.2 0 4.4.5 6.6.5h14q5.5.1 10.8-.2c3.3-.4 6.7-.2 10-.2 3.8-.1 7.7-.8 11.5-.4q4.6.1 9.1-1.1 3-.5 5.8-.6" class="b"/><path d="M12.9 202.2q4 0 7.4-1.8c1.8-.8 3.7-2.3 5.8-2 2.3.3 4.4 1.6 6.6 2.3 2.7.8 5.6.6 8.3.7 2.5.1 5 1.2 7.5 1.5 3 .3 6 0 9 .2q5-.1 10-.4c1.9 0 3.9.4 5.8.4 2.1 0 4.4-.3 6.6-.1 3 .3 5-.1 7.4-1.9 1.7-1.2 3.1-3 5-4 2-1 4.2.5 5.8 1.8 1.7 1.3 3.6 2.8 5.8 3.4q2.7.8 5.8.7 5.7.2 11.5-.5c5 .1 10 .6 15 .6l28-.1c5 .1 10-1 15-1.7" class="b"/><path d="M12.9 200.2q3.6-.4 6.6-2.4c1.6-1 3.2-2.5 5-3.3 3.1-1 6.2 3 9 4 2.4 1 5 1 7.5 1.1q2.6.2 5 .9c2.4.6 5 .3 7.4.2q5.9 0 11.6-.3c2.5 0 5 .6 7.4.5 2.8 0 5.6-.6 8.3-.4 1.6.2 3.4.6 5 .3 4.5-1 6.4-5.4 11.5-2.4 2.6 1.3 5.4 2.6 8.3 2.5q4.2-.1 8.3-.7c2.2-.3 4.4-1 6.6-.9q2.5.2 5 .8 4.1.8 8.2.8 6.3-.2 12.4 0 7-.3 14.1-.1c6.3-.2 12.8.6 19-.7" class="b"/><path d="M12.9 198c3.7-.7 6.9-2.8 10-5 5.1-3.5 7 3.4 13.2 4 2.4.6 5 .4 7.4 1q2.4.6 5 .7c1.6 0 3.3-.5 5-.5q2.8-.1 5.7.1l6.6.1c4.7.7 9.4-.2 14-.5 2 0 4 .6 5.9.8 2.9.2 5.4-1.9 8.2-1.8 2.3 0 4.5 1 6.7 1.5 3 .7 6.1 0 9-.8l5-1.3c4-1.4 6.3-.5 10 1.1q3.6 1.3 7.4 1.3 2.9-.2 5.8-.6h5.8c3.3 0 6.6-.7 9.9-.5q5.7.3 11.6.2c4.6.3 9.3 1 14 .8" class="b"/><path d="M12.9 195.7a76 76 0 0 0 7.4-3c2.3-1 5-2.7 7.5-1.6 1.7.8 3.3 2 5 2.8 2.5 1.1 5.5 1.1 8.2 1.4 2.2.2 4.4 1.2 6.6 1.2q2.1-.2 4.2-.7c2.4-.3 5 .2 7.4.4q4.5.3 9.1.3 2.4-.3 5-.6h3.3q2.4-.4 5-.3 2 .2 4 .7c3.1.8 6-1.3 9.2-1 3.5.3 7.1 1.8 10.7 1 3.7-1 7.1-2.9 10.8-4 2.3-.8 4.7.5 6.6 1.9 3.5 2.6 8.3 2.8 12.4 1.6 3.1-1.2 6.6-.7 9.9-.9 1.9-.1 3.8-.8 5.8-.7 2.2 0 4.4.7 6.6.9 3 .2 6-.3 9.1 0 4.1.2 8.4.1 12.4 1.1" class="b"/><path d="M12.9 193.5q4-1.6 8.3-2.7c1.9-.5 3.8-1.4 5.8-1.3 2.8.6 5.3 2.6 8.2 2.8q3.4.1 6.7.7c1.6.3 3.2 1.1 5 1.3s3.8-.7 5.7-.7 3.9.5 5.8.6q6.2.4 12.4-.8c2.2-.4 4.4.1 6.6 0q2.5-.2 5 0c1.6.2 3.3.8 5 1 1.9 0 3.8-.9 5.7-1 2.2-.4 4.5.2 6.6.6q3.9.8 7.5-.5l6.6-3c6.5-4.2 7.7 2.3 13.2 3.6q3.9.6 7.5-.9 2.7-1.5 5.8-1.4 2.9.1 5.8 0c1.3-.3 2.7-.8 4-.7 2.9.1 5.5 1.5 8.4 1.8q6-.3 12.4-.2c2.7 0 5.6-.4 8.2.6" class="b"/><path d="M12.9 191.8A81 81 0 0 0 22 189c1.8-.6 3.8-1.9 5.8-1.4 2.2.5 4.3 1.7 6.6 2 2.4.4 5 .1 7.4.7 1.7.4 3.3 1.3 5 1.7q1.6.2 3.3 0c2.7-.4 5.6.4 8.3 0q2.9-.4 5.8-.6l5.8-.8c2.4-.3 5 .5 7.4.4q2.5 0 5 .2c1.6.2 3.3.8 5 1 1.8 0 3.8-.5 5.7-.6 3-.2 6 .7 9.1.5 2.7 0 5.2-1.2 7.5-2.5q2.5-1 5-2.5c6-3.7 7.8 4.3 13.1 5q3 .2 5.8-1c1.6-.6 3.2-1.7 5-1.7q3.4-.1 6.6-.1 1.7-.2 3.3-.8c3.1-.6 6.1 1 9.1 1.5 2 .2 4-.1 5.8 0q3.8.2 7.5.5c2.7.2 5.5-.8 8.2 0" class="b"/><path d="M12.9 190q3.9-.2 7.4-1.5c2.2-.8 4.3-2.4 6.7-2.5 2.7.1 5.4 1.5 8.2 1.5 4-.1 6.2-.9 10 1.2 3 1.6 6.6 1.5 9.9 1 2.5-.4 4.8-2.3 7.4-2q4.2-.1 8.3.5c2.4.4 5 1.1 7.4 1h5q2.4.5 5 .8c4.6-.3 9.4.4 14-.5 2.6-.5 5.1-1.8 7.4-3q3.3-1.6 6.7-3c5.9-1.1 7.6 7.7 14.8 6.3 2-.3 4-1.2 5.8-1.7q3.4-.3 6.6-.4 3-.2 5.8-1 2.5-.2 5 0 3.3.2 6.6 0 3 .1 5.8 1.1t5.8 1.1c2.2 0 4.4-.6 6.6-.5" class="b"/><path d="M12.9 187.6c2.5.1 5 .4 7.4-.2 1.7-.3 3.4-1.1 5-1.6 2.2-.6 4.4 0 6.6.1q3 .2 5.8-.5c2.1-.5 4.5-1 6.6-.1 1.6.6 3.3 1.5 5 1.8a11 11 0 0 0 7.4-1.7c1.5-.9 3.2-2 5-2 4.2.8 8.2 2.8 12.4 3.7 3.5.7 7.2-.1 10.7.4q5.5.6 10.8 0l8.3-2c2.2-.8 4.4-2.1 6.6-3 2.9-1 6.2-2 9-.3 3.4 1.7 6 5 10 5.5 2.5.3 5-.6 7.4-.8 5.6-.3 11-1.7 16.6-2.4 7.7-1.7 7.6-2.3 14.9 1.6 3.3 1.7 7.1.8 10.7.6" class="b"/><path d="M12.9 184.9c2.5-.2 5 .4 7.4.7q2.6 0 5-.4 3.8-.1 7.4-.2 4.3-.5 8.3-2c4.1-1.5 7.5 2 11.6.5 4.3-1.4 6.9-5.1 11.6-2.1 8.3 4.6 10.7 4.1 19.8 4.1 3 0 6.1.3 9.1-.2q2.7-.8 5-2.1c2-1 4.5-1.3 6.6-2 2.2-.7 4.3-2.1 6.6-2.5 3-.4 5.8 1.2 8.3 2.6q3.7 2 7.4 3.6c2.7 1 5.6.6 8.3.4q2.5.1 5-.4 2.9-.6 5.8-1.5c2-.5 4.4-.4 6.6-1 2.2-.4 4.3-1.7 6.6-2.3 4.1-.7 7.2 2.8 10.7 4.3 3 1.1 6.1.6 9.1.5" class="b"/><path d="M12.9 182.3c3.4-.9 6.6.2 10 .8q3.7.5 7.4.3c2.7 0 5.6 0 8.2-1 2.4-.8 4.9-2.1 7.5-1.7 1.6.2 3.3.6 5 .3 3.7-.7 7.6-4.7 11.5-2.4 7.6 4.7 10.2 5 19 4.8h6.7c2.2.1 4.7 0 6.6-1.4 1.3-1 2.6-2.2 4-2.8q2.2-.7 4.2-1c2.5-.3 5-1.5 7.5-1.8 3.2 0 5.6 2.8 8.2 4.2 2 1.3 4.4 1.6 6.6 2.1 4 1.2 8.3.5 12.4.5 3.3 0 6.2-1.7 9.2-2.6 1.8-.3 3.9-.2 5.7-.5 2-.3 4-1.2 5.8-1.8q3-.6 5.8.4 2.5 1.3 5 3c3 1.6 6.6 1.3 9.9 1.3" class="b"/><path d="M12.9 180.6c5-1.5 6.7-1 11.6 0 2.1.2 4.4 0 6.6.3 3 .3 6.2.6 9-.3 2-.7 3.9-1.5 5.9-1.5 1.6 0 3.3.2 5-.2 3.5-.7 6.9-4.1 10.7-2.8q2.4 1.6 5 3 3 1.6 6.6 2c2.7.3 5.5-.2 8.2-.1h5.8c1.3.1 2.8.4 4.1.1 2.7-.5 4.4-3 6.7-4.3 1.7-.9 3.8-.8 5.8-.9 2.1 0 4.4-.3 6.6.2q2.6 1 5 2.5c2.6 1.7 5.9 2.4 9 2.4q5 .4 10 0 3 .2 5.7-.3 2.7-.7 5-2c2.3-1.3 5-.8 7.4-.9q3.3-.2 6.7-.7 3 0 5.8.8c2.4 1 4.8 2.4 7.4 2.8q3.3.3 6.6.2" class="b"/><path d="M12.9 179c2.2-.2 4.4-1.2 6.6-1.3 3-.2 6 .6 9.1.4 4.4 0 8.9 1.6 13.2.6q2.5-.7 5-1 2.5-.1 5-.7c3-.8 5.8-3.1 9-2.8 1.9.4 3.4 2 5 2.9 4.3 2.6 9.4 2 14 1.5q3.8 0 7.5.2c5.2 1.3 6.9-2.7 10.8-4.7 2.4-.8 5-.2 7.4.4 3 .6 5.6 2.2 8.3 3.4q2.8 1 5.8 1 6.6.3 13.2 0 3.8.2 7.4-.4c3.7-.7 7-3.2 10.8-2.5 4.4.5 8.9.4 13.2 1.1 2.2.4 4.4 1.2 6.7 1.5q4.1.4 8.2.4" class="b"/><path d="M12.9 176.7c2.5.6 5-.6 7.4-.9q2.5-.1 5 0h5c3.3 0 6.6.6 9.9 1q2.9.1 5.8-.6c2.1-.5 4.5-.4 6.6-1 2.7-.8 5.4-2.3 8.3-2.1 1.8.3 3.3 1.8 5 2.6 5.1 2.6 11 0 16.5.6 2.1 0 4.4.6 6.6.5q2.3-.3 4.1-2c1.5-1.2 3-2.7 5-3q3.4-.3 6.6 1.1c3.3 1.3 6.2 4 10 4q6.5-.1 13.1 0c3.9-.2 7.8 0 11.6-.4 3.7-.3 7-2.5 10.8-2.4q3.3.5 6.6 1.1 5 .8 10 1.4 6 .5 12.3.3" class="b"/><path d="M12.9 173.8c2.6 1.7 5.5.4 8.3 0a111 111 0 0 1 15.7.1q2.4.5 5 .8 3.3-.1 6.6-.7 3.3-.2 6.6-.9c10.2-2.5 7.3 3 16.5 1.2a36 36 0 0 1 11.6-.2c5.7 1 6.3.8 10.8-2.9 2-1.7 4-1.7 6.6-1 3.3.4 6.2 2.4 9 3.8 2.4 1.3 5 .3 7.5 0 3-.4 6.1.4 9.1.4q6.2.2 12.4-.1 3.7-.5 7.5-1.8c2.3-1 5-.7 7.4.1 5.5 2 11.5 2.2 17.4 2q4.1.1 8.2-.2" class="b"/><path d="M12.9 171c2.6 2.3 5.3 1.3 8.3.7q3.7-.6 7.4-.7c4.7.2 9.4 1 14 1.5 4 0 8.5-.4 12.5-.5q3.2-.3 6.6 0 2 .3 4.1.5c2 0 3.9-.8 5.8-1.1q3.4-.6 6.6-.2 3.3.3 6.7 1 3.6 1 6.6-1.3 1.8-1.7 4.1-2.6c1.3-.4 2.8 0 4.1.2q2.2.4 4.2.9c2.5.7 4.8 2.5 7.4 3 2.3.3 4.4-1 6.6-1.4s4.5.2 6.6.3q5.4 1 10.8.8 3.8-.2 7.4-1.7c2.6-1 5.5-2.7 8.3-1.5 2 .7 3.8 2 5.8 2.6q5.3 1.3 10.7.9c3.9-.5 7.8.2 11.6-.6" class="b"/><path d="M12.9 168.2a8 8 0 0 0 5.8 2q3.8-.4 7.4-1.2c3-.6 6.1-.1 9.1.3q6.6 1.1 13.3 1h15.7q3-.5 5.8-1.7 3.6-1.2 7.4-.2c4.5 1 9.9 3.5 14 .3q2.3-1.7 5-2.2 2.1.2 4.2.5 3.4.4 6.6 1.7c4.7 2.2 5.9 2 10.7.1q4.2-1.1 8.3-.5c5 1.1 10.4 2.2 14.9-1 1.9-1.3 3.6-3 5.8-3.7 1.8-.6 3.6.9 5 2q2 2.1 4.9 3.5 2.8 1 5.8 1.1 3.7.2 7.4 0c3-.4 6.2-.2 9.1-1.2" class="b"/><path d="M12.9 164.7c6 5.3 10.5 3 17.4 2.1q3.7-.2 7.4.6c5.2.8 10.5.5 15.7.4 3.6 0 7.2.4 10.8 0 3.9-.4 7.4-4 11.5-2.6 2 .7 3.9 1.8 5.8 2.4 3 1 6.4.7 9.1-.8 2.3-1.3 4.8-2.7 7.5-2.4 11.6 1.1 10.8 6.6 24 1.7 4.5-1.9 7.9.3 12.4.4 6 0 8.9-8.3 13.2-7.9 1.7.6 3 2.5 4.1 3.8 1.6 2 3.4 4 5.8 4.8 2 .7 4.4.7 6.6.8 5 .4 10.2 0 14.9-2" class="b"/><path d="M12.9 160.8c7.3 4.4 8.4 6.4 17.4 4.3q3.2-.6 6.6 0 3.2.6 6.6.4c3.8 0 7.7-.7 11.6-.7 2.7 0 5.5.7 8.2.7q3-.1 5.8-1.5c1.6-.7 3.3-1.6 5-1.4 2.4.3 4.4 2 6.6 2.9 4.6 1.5 9.2-1 13.2-3 6.8-3.2 9.7 1.4 15.8 3q4.9.8 9.9.2 3-.7 5.8-1.9 2.4-.7 5-.6c1.5.2 3.3.6 4.9.3 4.7-.8 7.6-7.7 11.6-7.7 1.8.4 3 2.4 4.1 3.8 1.5 2 3.4 4.2 5.8 5.2 3.1 1.2 6.7.4 10 1 4.3.9 8.5-1.5 12.3-3.5" class="b"/><path d="M12.9 157c4.6.8 7 6 11.6 6.7 3 .4 6-.6 9-.6q3.8.5 7.5.5 4.5-.2 9.1-1.2c3-.6 6.1-1.3 9.1-.6 1.9.5 3.8 1.3 5.8 1.1 2.6 0 5-1.2 7.5-1.8q2-.3 4 .8 2.8 1.6 5.9 1.9 6.1-.4 11.5-3.9c2.7-1.6 5.5-3.2 8.3-.9 5.7 4.4 7 4.6 14 4.3 5.6.4 6.1 1.1 11.7-1.1 2-.8 4.4-.7 6.6-.9 3.9-.5 6.5-4 9.9-5.4 2.3-1 4.4.7 5.8 2.4q2 2.6 5 4c2.8 1.3 6 1.1 9 1 1.7 0 3.4.6 5 .4 3.8-.7 6.6-4 10-5.7" class="b"/><path d="M12.9 154.6c5-.2 7 6 11.6 6.8q3.2.3 6.6 0l5 .2q4.1.1 8.2-.1 3.8-.5 7.5-1.9c11-4.5 7 2.5 19.8.3 2.9-.4 5.5 1.2 8.3 1.6 2.4.4 5-.3 7.4-.7a20 20 0 0 0 7.5-3.8c2.5-1.9 4.6-3.3 7.4-1 2.8 2.4 6 5.2 10 4.6 1.5-.2 3.2-.9 4.9-1 4.7.3 5.8 3.1 11.6 1.5 3-.8 6.2-.7 9-2 3-1 5.9-3.6 9.2-2.7 2.4.8 4.2 3 6.6 4 3.1 1.2 6.6 1 9.9 1 1.6-.1 3.3.3 5 .1 2-.3 3.5-2 5-3.2 1.7-1.6 3.6-3.4 5.7-4.6" class="b"/><path d="M12.9 153.6c4.2-.7 6.4 4 10 5.2 2.8 1 6 .5 9 .5 2 0 3.9-1 5.8-1 3 0 6 1.6 9.1 1q3-.5 5.8-1.8c2.5-1.2 5.5-3.4 8.3-1.9 3.7 2.6 7.3 2.3 11.6 2.7 2.1.2 4.4 1 6.6 1q5 0 9.9-1.2 3.1-1.1 5.8-3.5c1.4-1.2 3-2.8 5-2.8 1.8 0 3.4 1.4 4.9 2.5 2 1.4 4.1 3 6.6 3 2.6-.2 4.8-2.2 7.5-2 2.4.4 4.4 2.3 6.6 3.3q3.2 1.4 6.6.6c3.1-.2 6.2-1.3 9.1-2.4a11 11 0 0 1 9.1 1c3 1.6 6.6 1.6 10 1.6 2.4 0 5 .2 7.4-.4 1.9-.7 3.4-2.4 5-3.7q2.8-2.8 6.5-4.5" class="b"/><path d="M12.9 153c5.5-1.3 6.6 5.3 15.7 3.9q3-.4 5.8-2 2.8-2.4 5.8-.4c1.8 1 3.6 2.4 5.8 2.7 2.9.2 5.8-1 8.2-2.3 4-2.2 5-3 9.1-.4 3 1.2 6.1 1.5 9.2 2.1q2.4.6 5 .6 2.8-.2 5.7-.8c5-.7 8.4-1 12.4-4.6 8.5-7.6 10.5 3 17.4 1.5 2.4-.7 4.8-2.3 7.4-2 2.5.6 4.4 2.7 6.6 4 5.7 3.3 9.2 1.6 14.9.2 3-.5 6.1.8 9.1 1.3 2.7.6 5.5.4 8.3.3q2.9-.2 5.8-.8c5.6-1.6 7.1-6.1 14-6.9" class="b"/><path d="M12.9 152c3.2-1.1 6.1 1.3 9.1 2 3.7 1.2 7.6-.2 10.8-2.2 1.5-.8 3-2.5 5-2.2 2.8 1 4.4 4.1 7.4 5.1s6.3-.4 9-1.7c1.9-.9 3.7-2.3 5.8-2.2 1.5.2 2.8 1.2 4.2 1.7 3 1 6 2 9 2.5s5.7-.8 8.3-1.6c5.3-1.5 10.3 0 15-3.5 2-1.3 4.1-2.8 6.5-3.3 5.6.2 5.7 5.7 13.3 3.1 2-.6 4.4-1.8 6.6-1a45 45 0 0 1 6.6 3.6c2.6 1.9 5.8 3.4 9.1 2.5 1.9-.5 3.9-1 5.8-.7 5.4 1 11.2 1.5 16.5 0l4.2-1.5c2.1-1 4.3-2.3 6.6-3 2.3-1 5-1 7.4-.8" class="b"/><path d="M12.9 150.4c2.5-.9 5 .1 7.4.8 4.8 1.5 8.2-.6 12.4-2.3 2.4-1 4.4-2 6.7-.2 5.5 5.1 7 5 14 2.3 2.4-.9 4.8-3 7.5-2.5q4.5 2.1 9 3.8c5.3 1.8 8-1.3 12.5-2.7q4.1-.7 8.2 0c3.3.7 6.4-.8 9.1-2.3 1.3-.8 2.7-1.9 4.2-2.2 2.2-.3 4 1.5 5.7 2.5q1.6 1 3.4 1.1 2.5.4 5-.6c1.5-.5 3.2-1.5 4.9-1.4 1.6.3 3.4.3 5 .8 3.5 1.3 6 5 9.9 5.3 2.1.2 4.4-.6 6.6-.3q6.5.8 13.2-.1c2.1-.3 4-1.5 5.8-2.5 6.2-4 8.8-3 15.7-2.3" class="b"/><path d="M12.9 148.5c4.7-1.4 9 2.3 14 .5q3.3-1 6.7-1.5c1.3-.2 2.8-.5 4.1-.1 3.7 1.2 5.4 4.3 10 3a32 32 0 0 0 6.6-2.5c2.2-1.1 4.8-3.6 7.4-2.2l6.6 3.7c2.9 1.9 6.3 1.5 9.1-.2 1.8-1 3.7-2 5.8-2.2q2.5-.1 5 0c2.3.7 4.9 1.6 7.4 1a21 21 0 0 0 5-1.6c1.7-1 3.8-1.9 5.7-1 1.4.6 2.8 1.6 4.2 2.1q3.2 1.3 6.6.3c1.7-.4 3.3-1.3 5-1.7q1.2-.1 2.4-.3c2-.3 4-.7 5.8 0 3 1.3 5.2 4 8.3 4.7 1.9.4 3.9 0 5.8 0q4 .3 8.3 0 2.9-.2 5.8-.7c2.7-.8 5-3 7.4-4.4 4-2.9 8.8-.4 13.2-.1" class="b"/><path d="M12.9 147.3c4.1-1.1 8.3 1 12.4.5q4-.7 8.3-1 2-.3 4.1-.2c2 .2 3.8 1.5 5.8 1.8 3.4.4 6.8-1.2 10-2.5 2.2-1 4-3 6.5-3.6q1.9.2 3.3 1.3c2.8 1.5 5.2 4 8.3 4.8 3.8.8 7.1-1.9 10.8-2.4a21 21 0 0 1 8.2.8c3 .8 6.1.3 9.1-.2 3-.8 5.3-1 8.3.2 3.4 1.2 7.3 1.3 10.7.3l3.3-1q1.6-.2 3.4-.7c5.6-2 7.5-1 12.4 2 2 1.2 4.4 1.2 6.6 1.1q4.5 0 9-.4c2.3-.2 4.7-.3 6.7-1.4 4-2.3 7.3-6.4 12.4-4.9 2.2.6 4.4 1.5 6.6 1.9" class="b"/><path d="M12.9 146c5-.6 10 .7 14.9 0q2.9-.1 5.8-.5 2.4-.5 5-.5c1.9.3 3.7 1.3 5.7 1.3q2.6-.1 5-.8 2.5-.6 5-1.7c2-.9 3.7-2.5 5.7-3.3 2.7-.6 6 2.5 8.3 3.8 4.5 3.1 8.3 2 13.2.8q3.8-.5 7.5.4c4.6 1 9.4.4 14 .4q3.3.1 6.7.4 4.9.2 9.9-.2 3.7-.6 7.4-1.4c3.2-1 6.8-2 10-.3q3 1.8 6.6 2 4.5.1 9-.4c2.2-.3 4.6-.4 6.7-1.2 4.6-2.3 7.5-5.6 13.2-4.1 2.2.6 4.3 1.9 6.6 2.4" class="b"/><path d="M12.9 144.1c6.6 0 13.3.3 19.9-.3 1.9-.2 3.8-1 5.7-1 2.5 0 5 1.6 7.5 1.3 3-.3 6.2-.6 9-1.7 6.4-3.3 5.4-4.8 12.5-1q5 3 10.7 2.7 2.5-.4 5-.6c2.5-.1 5 .6 7.4.6l12.4-.1c3.6 0 7.2-.8 10.8-.8 3.3.3 6.6 1.3 9.9.9 3.9 0 7.7-1.2 11.6-1.5 2 0 3.9.9 5.8 1.2 3.5.6 7.2.3 10.7.1 2.8-.2 5.7-.3 8.3-1.3 4.8-2.5 7.8-3.2 13.2-1.9 1.9.7 3.8 1.7 5.8 2" class="b"/><path d="M12.9 141.4c3.5.7 7.2.4 10.8.4 3 0 6 .3 9 0 2-.3 4-1.3 5.8-1.7 2.9-.1 5.4 2 8.3 1.8 3 0 6.2 0 9.1-.9 1.8-.6 3.3-1.9 5-2.6 3.1-1 6.2 1.1 9 2.1q4.2 1.5 8.3 1.4c2.2 0 4.5-.5 6.7-.3q2.4.4 5 .3l8.2-1.4q3.2-.6 6.6-.7c2.2-.1 4.4-.8 6.6-1 3-.4 5.7 1 8.3 2q2.8 1 5.8 1.1h6.6q2.4-.4 5-.5 2.4.2 5 .5 6 .2 12.3-.1 2.5 0 5-.5 2.4-.7 5-1.3c3-.5 6 .2 9 .6q3 .8 5.8 1.1" class="b"/><path d="M12.9 138.6c3.2.9 6.6.8 10 .8 3 .1 6 .6 9 .3 7.6-.9 5-3.6 13.3-.5q2.8.7 5.7.6 3 .2 5.8-.6c2.5-.7 4.7-3 7.5-2.4 2.2.4 4.4 1.6 6.6 2.2q2.8.8 5.8.8c2.2 0 4.4-.5 6.6-.4s4.5.8 6.6 0c1.8-.5 3.4-1.7 5-2.7q2.7-1.6 5.8-2.5 2.9-.3 5.8-.1 3.2-.1 6.6 0c3 .5 5.5 2.8 8.3 4q3.2 1.3 6.6 1.4 5 .4 9.9.2h21.5c1.9 0 3.9-.5 5.8-.6 4.7 0 9.4.9 14 .7" class="b"/><path d="M12.9 136.3q4.5.3 9.1.4c3.3.3 6.6 1 10 .9q2.5 0 4.9-.9 3.1-1.7 6.6-.7 3.7 1.3 7.4 1.4 3 .4 5.8 0c4.8-1.3 5.6-3 10.8-1a27 27 0 0 0 13.2.7c2.2-.3 4.4.3 6.6.5 2.5.1 4.4-2 5.8-3.8q2.3-3 5-5.5c4.4-4.6 8.7-.6 13.2 1.5 3.5 1.4 6.5 4 10 5.6 2.5 1.2 5.4 1.5 8.2 1.8q7 .6 14 .3h14.1q10.8.3 21.5-.3" class="b"/><path d="M12.9 134.3c2.5-.2 5-1 7.4-1 2.3.1 4.5 1 6.7 1.5q3.7.7 7.4.6c3.2.1 5.9-2.4 9.1-2.3 1.7.1 3.4.8 5 1.2 2.4.3 5 1.1 7.4 1.1 2.2 0 4.4-.9 6.6-1.1 2-.2 4 .4 5.8.7q4.2.7 8.3.3c2.2-.3 4.4-.8 6.6-.5 1.9.2 4 1 5.8.2 1.8-1 3-3 4.1-4.7 1.3-2 2.7-4.4 4.2-6.4 4.6-6.3 6.8-6.9 11.5-.2q3.5 4.6 8.3 7.6 2.8 1.4 5.8 2.2c7.2 2.4 14.9 1.5 22.3 1.4l19.9.3q7-.1 14-.4" class="b"/><path d="M12.9 132.3c2.8-.6 5.3-2.8 8.3-2.3 2 .4 3.8 1.5 5.8 2q4.5 1 9 1.2c2.6.2 4.6-1.5 6.7-2.6a7 7 0 0 1 5.8-.2q2.2.6 4.1 1.6c3.3 2 7.1.9 10.8.8 4.9.3 10 .8 14.8 0q3.7-.6 7.5.3c5 1 7.4-5.9 9.9-9.1q2.4-3.7 5-7 3.5-5.3 6.6.2c2.9 5 5.4 11.7 11.5 13q2.2.3 4.2.8c2.1.6 4.3 1.5 6.6 1.7 4.4.5 8.8-.2 13.2 0q3.3-.1 6.7-.1 4.1.4 8.2.5 10.8-.1 21.5-.4" class="b"/><path d="M12.9 130.4c3-1 5.7-4.1 9.1-2.8 1.4.4 2.8 1.2 4.1 1.5 3 .8 6.1 1.1 9.1 1.7 6.6 2 7.4-5.8 13.3-4.7q2.4.4 4 2.1 2.3 2.1 5 2.7c2 .3 4 0 5.8 0q5.4.3 10.8 0c2.2 0 4.4-.5 6.6-.6q2.6.1 5 .7c3.2.5 5.5-2.5 7.4-4.7q3-3.5 5.8-7.1c1.7-2 4.2-9 7.4-5.4 3.6 4.5 4.8 12 10.8 14 1.6.4 3.3.2 5 .3 1.7.3 3.3 1.3 5 1.8 3.4 1.2 7.1.6 10.7.5s7.1.4 10.7.2q3.8.3 7.4.5 11.7 0 23.2-.3" class="b"/><path d="M12.9 128.3c3-.8 5.8-3.5 9.1-2.6q4 1.2 8.3 1.6 3.8.6 7.4 1.5c4.7.4 6.4-6.8 11.6-5.9 1.7 0 3 1.6 4.1 2.6q1.8 2 4.2 2.8c3.2 1 6.6.5 9.9.5q3.7 0 7.4-.2 2.4-.4 5-.7c4.8 0 7 2.7 11.5-1 2.6-2.2 5.4-4.5 7.5-7.2 1.7-2 4.2-8.8 7.4-6 3.7 3.9 5.1 11.6 11.6 11.7 2 0 4-.7 5.8.2 5 2.8 7.5 3.1 13.2 2.7 3.6.2 7.2.7 10.8.6 3.8.1 7.7-.4 11.6-.5q9.8.7 19.8.4" class="b"/><path d="M12.9 126.2c2.6-.4 5-1.8 7.4-2.4q2.5-.3 5-.1 2.5-.1 5 .4 3 .5 5.8 1.6c1.2.5 2.7 1.2 4 .9 3.8-1.6 5.3-5.6 10-5.6 1.3 0 2.4 1 3.3 1.9q1.8 1.6 4.1 2.7c3.2 1.2 6.7 1 10 .8q4.5 0 9-.6a22 22 0 0 1 8.3.7c4.4.9 8.4-1.8 11.6-4.5a25 25 0 0 0 4.1-4.8c1.2-1.5 2.7-4.2 5-3.5 4.5 3 5.2 10.2 12.4 9.2 2.4-.5 4.5-1.3 6.6.4 2 1.4 4.2 2.8 6.6 3.1 3.3.4 6.7.2 10 .3 2.1 0 4.4-.5 6.6-.4q4.5.1 9-.8c3.6-1 7.3 0 10.8.7q5.8.6 11.6.4" class="b"/><path d="M12.9 124.3c3.8 0 7.3-2 10.8-3.4 5-2 10.5-.2 14.8 2.9 3.7 2.4 6.7-2.2 10-3.3 2.3-1.1 3.7-.4 5.7.9q2.3 1.4 5 2c2.7.7 5.5.6 8.3.5l6.6-.4c3.6-.6 7.2.2 10.7.8 4.2.7 8.6-.6 11.6-3.6q2.3-2.2 4.1-4.7c1.2-1.4 3-3.3 5-2.3 2 1.2 3.3 3.4 5 5 2.1 2.1 5.4 2.6 8.2 2 5-1.6 6 1.7 10 3.3 1.8.7 3.8.4 5.7.3 3.6.2 7.2-.5 10.8-1 2.2-.1 4.4.5 6.6.3 2.8-.1 5.6-1 8.3-1.6 2.8-.2 5.6.9 8.3 1.4q2.9.5 5.7.7 2.5.3 5 .4" class="b"/><path d="M12.9 122.3c9.6.6 9.1-5.5 17.4-6 7.5.1 7.8 5.5 12.4 6 2.6-.2 4.9-2.3 7.4-3s5 .9 7.4 1.2q5 1 10 .8 5.3-.2 10.7-.2c4.1.4 8.3 1.7 12.4 1 5.3-.7 7.6-6.2 11.6-9 3.5-2 5.7 2.7 8.3 4.3q3 1.6 6.6 1.7 2.5-.2 5 .1c2.7.8 5 3.8 8.2 3q2.1-.6 4.1-1.4a70 70 0 0 1 10-.4c2.7.2 5.4 1.3 8.2 1q2.6 0 5-.7c1.3-.4 2.8-1 4.1-.9 2.5-.2 5 .7 7.5 1.1q2.4.4 5 .6 2.4.5 4.9.8" class="b"/><path d="M12.9 120c2.8 0 5.8.6 8.3-1l3.3-2.4q3-1.9 6.6-2.8c5.3-1.5 6.7 1.5 10 4.9 3 3.2 6.5 0 9.8-.9 1.7-.2 3.4.2 5 .4l7.4.6 9.1.3h5.8c3.9.3 7.7 1.3 11.6 1 5.5 0 8.1-5.5 12.4-8 4-1.7 6.1 3.9 10.8 4.2 2.9.9 6 1.1 9 1.9 2.5.7 4.9 2.8 7.5 1.6 1.5-.7 2.8-1.9 4.1-2.8 2.5-1.5 5.7-.7 8.3.1 4.9 1.6 8.7 3.3 14 2.4 2-.3 3.9-1 5.8-1.2 2.8-.4 5.6.1 8.3.3q2.5 0 5 .6l4.1 1" class="b"/><path d="M12.9 117.6c2.5-.2 5 .6 7.4.2q2.2-.5 4.2-1.6 4.3-1.4 8.2-3.6c3.5-1.9 5.1-1 7.5 1.9 2.4 3 4.5 4.5 8.2 2.6a10 10 0 0 1 4.2-1.2q4.5.2 9 .6 4.7 0 9.2.4c2.7.3 5.5 0 8.2.3 3.6.4 7.2 1 10.8.5q3.5-.3 6.6-2.3c2.8-1.5 5.8-3.8 9.1-3.2 1.4.3 2.8 1 4.1 1.3q1.6.3 3.4.4a65 65 0 0 1 9 2.3c3 1.1 5.5 3 8.3.5 2-1.4 3.4-4 5.8-4.4 2.5-.3 4.6 1.5 6.6 2.6q3 2 6.7 2.7 5.3.7 10.7-.4c4-.7 8.2-1.7 12.4-1.2 2.3.2 4.4 1.4 6.6 1.9" class="b"/><path d="M12.9 115.3c2.8-.4 5.5.5 8.3.5 3-.3 6.2-.5 9-1.4 2.1-.7 4-2 5.9-3 3.3-1.6 5.5 2.5 8.2 3.8 1.9 1 4 .4 5.8-.3q2.4-.7 5-.7l6.6.3q5 0 10 .3 2.8-.2 5.7 0c2 0 3.9.6 5.8.9 4.2.4 8.3-1.3 12.4-2 5-.7 10-.8 14.9-1.6 3.7-1.2 6.4-.5 9.9 1 4 1.3 7 4.7 10.8.8 1.5-1.5 2.8-3.7 5-4.4 2.2-.4 4 1.8 5.7 3 2.7 2.4 6.4 3.3 10 3.2h8.2c4.3 0 8-3.2 12.4-2.3 2.3.5 4.3 2 6.6 2.3" class="b"/><path d="M12.9 113.2q4-.3 8.3.3 5.3.3 10.7-.1c2.1-.3 3.9-1.6 5.8-2.3 3.3-1.3 6.1 1.3 9.1 2.3 3 .6 6-.6 9.1-.7h13.2c2.8 0 5.6-.7 8.3-.5 2.5.2 4.9 1.7 7.4 1.3q3-.6 5.8-1.6c2.5-.7 5-.1 7.5.4q3.7.8 7.4.3c3.3-.4 6-2.4 9.1-3.3 3.2-.6 6.3 1.2 9.1 2.5 1.5.8 3.2 2 5 1.8 3.7-.4 5.4-6.8 9-5.7 3 1.6 5 4.8 8.3 5.4s6.7 0 10-.1c2.4-.2 5 .5 7.4.3 3.3-.5 6.5-3.2 10-1.7 1.8.7 3.7 1.8 5.7 1.8" class="b"/><path d="M12.9 111.3q5.4-.4 10.8-.2l5.7-.2q2.1.1 4.2.5c3.2.4 6-1.8 9-2 2.4-.1 4.5 1.4 6.7 1.8 4 .6 8.3-.3 12.4-.1 3-.2 6-.1 9-.5 2-.2 4-1 5.9-1.3 2.6-.2 4.9 1.9 7.4 2.1 2 0 4-1 5.8-1.6 3-1.2 6.1.7 9.1 1.2 16.4 2.6 12.1-8.3 25.6-1.4 1.8 1 3.8 2.3 5.8 1.6 2.3-.9 3.6-3.4 5.8-4.3 2.4-.5 4 2 5.8 3.1 2.4 1.8 5.5 1.5 8.3 1.1 3.2-.4 6.6-2.2 9.9-1 1.6.5 3.2 1.5 5 1.3 2.2-.2 4.3-1.4 6.6-1.2 2.5.2 4.9 1.6 7.4 1.1" class="b"/><path d="M12.9 109.2q5.7-.2 11.6-.7c1.9-.1 3.9-.7 5.8-.7 2.5 0 4.8 1.7 7.4 1.4 1.7-.2 3.4-1.1 5-1.7 2.8-1 5.5.6 8.2 1 5.2 1 10.5.7 15.8.5q3.4 0 6.6-1c2-.9 4.4-2 6.6-1 1.6.7 3.2 1.8 5 2.1 2.5.4 4.9-.9 7.4-1 1.6 0 3.3.6 5 .9q2.8.3 5.7.1c5.8.2 6.3.2 11.6-2.3 3.2-1.4 6.8-.3 10 .7 1.8.7 3.7 2 5.7 1.7 2.2-.4 3.7-2.5 5.8-3 1.5-.4 3 .8 4.1 1.6q1.9 1.4 4.2 1.4 3.4-.5 6.6-1.6c1.9-.6 3.8-1.6 5.8-2 3.2-.6 5.4 2.6 8.2 3.4 2.2.6 4.5-.1 6.7-.1 2.4 0 5 .6 7.4.1" class="b"/><path d="M12.9 107q6.2.1 12.4-.7 2.4-.5 5-.8c2.5-.2 4.9 1.4 7.4 1.5 2 .2 4-.8 5.8-1.5a12 12 0 0 1 5.8-.3q2.5.3 5 1 7.3 1.3 14.8.6 2.7-.3 5-1.3c2-1 4.3-2.2 6.6-1.2 1.7.6 3.3 1.8 5 2.3 2.6.9 5.5 0 8.2.2 3 .4 6.1.1 9.1 0 2-.1 4 .3 5.8.2 4-.4 7.5-3 11.6-2.5q2 0 4.1.6c1.7.5 3.3 1.5 5 1.8 2 .5 4-.6 5.8-1.2 2-.7 4 .6 5.8 1.1 2 .6 4-.3 5.8-1l6.6-2.5c2-.8 4.6-1.5 6.6-.2 2.1 1.3 4 3.3 6.6 3.7q3 .3 5.8.2l6.6-.1" class="b"/><path d="M12.9 104.7c4.7.4 9.4-.3 14-.5 2.2-.3 4.5-.7 6.7-.2 2.1.4 4.4 1.2 6.6.7q2.4-.7 5-1.6 2.8-.7 5.7-1c2.6-.3 5 1 7.5 1.7q5 1 10 1 4.3.1 8.2-1.7c4-1.7 7 .7 10.7 1.5 2 .4 4 .2 5.8.2q4.5.1 9.1-.2 3 .2 5.8.2c3.8 0 7.2-1.8 10.8-2.8 2-.6 4.5-.8 6.6 0 2.6 1.2 5.2 3 8.2 2.8q2.6-.1 5 0 2.1 0 4.1-.3c2-.5 3.9-1.6 5.8-2.2 4-1.2 8.6-4.7 12.4-1.6 1.6 1 3.2 2.4 5 3 4.2 1.6 8.8 1 13.2 1" class="b"/><path d="M12.9 102.5q5 .3 10-.2 4.1 0 8.2-.2c2.5-.2 5 .5 7.4.6q6.1-.6 11.6-3.3c2.9-1.7 5.5-1 8.3.4 1.8.8 3.9.9 5.8 1.4 3.1 1 6.5 1.8 9.9 1.4 2.4-.4 5-1 7.4-.8 2.8.3 5.5 1.1 8.3.8 3.6-.2 7.2.2 10.8 0 2.7 0 5.5.3 8.2 0q2.5-.3 5-1 2.6-1.1 5-2.7c5.9-4.3 9.3 1.3 14.8 3 3.8 1 8 .3 11.6-1.2q3.4-1.1 6.6-2.5c1.9-.8 3.8-1.9 5.8-2s3.6 1.2 5 2.3q2.1 2 5 3.1c3.6 1.3 7.7.9 11.5 1" class="b"/><path d="M12.9 100.4q5 .2 10-.3 4.5.2 9 0c2.8 0 5.6.6 8.3.3q4.3-.4 8.3-2.2c1.4-.8 2.7-2 4-2.8 3.2-2 6 .2 9.2.7 2.3.4 4.4 2 6.6 2.8 5.2 2.3 11 1.4 16.6 1.6 2.4 0 5-.6 7.4-.6s5 .6 7.4.6q5 .1 10-.4 3 0 5.7-1.7 2.3-1.6 4.2-3.5c1.3-1.2 3-2.4 5-2 4.4.8 7.9 4.5 12.3 5.4q3.4.6 6.6-.2a27 27 0 0 0 6.7-2c2.8-1 5.1-3.6 8.2-4 2.1 0 3.6 1.9 5 3.2 1.4 1.5 3 3.1 5 4 3.3 1.5 7.2 1 10.7 1.2" class="b"/><path d="M12.9 98.3q5 0 10-.3 4.9.2 9.8.1l5 .2q4.6 0 9.1-1.6c2.5-1 4.5-3 6.6-4.5a7 7 0 0 1 4.2-1.2l5 .8c2.3.7 4.3 2.4 6.5 3.5A26 26 0 0 0 84.8 98c2.2-.2 4.4-1 6.7-1.1 2.5-.1 5 .7 7.4 1q5 .4 10-.2c1.9-.2 4-.3 5.7-1.3 2.6-1.4 4.4-4 6.6-5.8 1.1-1 2.8-1 4.2-1 2.9.1 5.7 1.4 8.2 2.8 2 1.1 4.3 2.4 6.7 2.6 13 .9 13.1-6.9 19-8 1.9.2 3 2.2 4.1 3.6 1.4 2 3 4.4 5 6 3 2.3 7.1 1.6 10.7 1.7" class="b"/><path d="M12.9 96.1H32q4.5.1 9-.3c2.6-.3 5.2-.7 7.5-2 4.9-3 6-6 12.4-6.1 2.5-.5 4.7 1.2 6.6 2.6q3 2.4 6.6 4c4 1.2 8.4 1.2 12.4.5q2.9-.8 5.8-1.2 2.9-.1 5.8.5 5.7.8 11.6 0c5.9.3 7.8-3.9 12.4-6.3 1.2-.4 2.8-.4 4-.6q4.6-.7 8.4 1.7c2.2 1.6 4.5 3.5 7.4 3.8 2.8.3 6 0 8.3-1.7 2-1.4 3.5-3.5 5-5.4 1.3-1.6 2.6-4.3 4.9-4.2 1 .2 1.9 1.3 2.5 2.1 1.1 1.7 2.3 4 3.3 5.7 3.7 6.6 6 6.9 13.2 6.8" class="b"/><path d="M12.9 94h19q4.2 0 8.3-.4 3.9-.1 7.4-1.7c2.6-1.3 5-3.2 7.5-4.6q3.1-1.5 6.6-2.4c2.5-1 4.8 1.3 6.6 2.8s3.7 3 5.8 3.7q3.2.9 6.6 1c2.2 0 4.5.2 6.6-.2 2.8-.5 5.5-1.5 8.3-1.7 3-.2 6 .3 9.1 0q2.4-.3 5-.4 3 .3 5.7-1c2.2-1.1 4.3-2.8 6.7-3.5 1-.2 2.2 0 3.3-.3 1.9-.3 3.9-.8 5.8-.5 6.2 1.4 6.2 8.4 15.7 6.2 5.3-1.4 7.6-7.1 10.7-11.1 3.4-4.6 5.8 0 7.5 3.2 1.6 3 3.1 6.7 5.8 9 2.3 1.9 5.4 1.7 8.2 1.8" class="b"/><path d="M12.9 91.7h20.7c3.8-.3 7.8-.1 11.5-1.2 2.7-1 5-2.8 7.5-3.8 2.3-1 5-1.5 7.4-2.4q1.6-1 3.3-1.4c3.4.1 5.6 3.3 8.3 4.9 2.2 1.4 5 1.5 7.5 1.9 2.4.3 5 1 7.4.9 3.4-.1 6.6-1.6 10-2.5q2-.3 4-.4 3-.5 5.8-1.1 1.7-.3 3.3-.3 1.6.2 3.4.2c3.2-.5 5.8-3 9-3.5h4.2c2.5-.5 5.3-.6 7.4 1 4.4 3.5 5.8 7.2 12.4 5.6 5.9-1 8.8-6.6 12.4-10.7 2.8-3 4.8-1.7 6.6 1.3 2 3 3.4 6.5 5.8 9.1 2.1 2.2 5.4 2.5 8.3 2.5" class="b"/><path d="M12.9 89.2c7.7.1 15.5.7 23.2.2 2.4-.2 5-.1 7.4-.7 3.3-.6 5.8-3.4 9-4 2.2-.5 4.6-.3 6.7-.8 1.7-.3 3.2-1.7 5-1.8 3.4.2 5.8 3.3 9 4.3q3 .6 5.8 1c2.7.7 5.5 1.7 8.3 1.5 3.2 0 6.2-1.1 9.1-2 1.6-.6 3.4-.4 5-.9 1.9-.4 3.8-1.2 5.8-1.6 3.8-.8 5.1 1.3 9-1.1 1.9-1 3.7-2.5 5.9-2.8q1.6-.1 3.3 0 2.4-.3 5 .2c5 1 6.8 7.6 12.3 7.5 3.9 0 7.7-1.6 10.8-3.9 2.5-1.8 4.7-4.4 7.4-6 4-2.2 6.9 5.5 9.1 7.8 2.2 2.9 5.6 3.8 9.1 3.4" class="b"/><path d="M12.9 86.6c3.3 0 6.6.6 10 .8h9l6.6-.1q3.9 0 7.5-1.3c6-3.2 5.8-2.6 12.4-2.5 2 0 3.8-1.4 5.8-1.8 3-.5 5.6 1.3 8.2 2.3 1.9.6 4 .8 5.8 1.4q5.2 2 10.8 1.7 3.8-.5 7.4-1.4c1.6-.4 3.4-.3 5-.6 3.2-.6 6.6-1.3 9.9-.5 2.9.4 5.3-1.6 7.4-3.2a9 9 0 0 1 5.8-2.6c2.2-.2 4.6-.4 6.7.4 3.3 1.3 5.1 4.7 8.2 6.3 2.6 1.2 5.7.5 8.3-.3q3.4-.9 6.6-2.6 2.6-1.5 5-3.3c1.2-.7 2.6-1.9 4.1-1.5 3.6 1.5 5.2 5.7 8.3 8 2 1.5 4.9 1.8 7.4 1.5" class="b"/><path d="M12.9 84c3 0 6 1 9.1 1.2 2.2.1 4.4-.4 6.6-.6s4.5.3 6.6.5q3 .2 5.8 0c3.5 0 6.7-1.3 10-2.2 2.4-.5 5 0 7.4 0 5.4-.5 7.1-4 13.2-1.1q4.5 2 9.1 3 5.8.8 11.6 0 5.4-.8 10.8-1c3-.1 6 .5 9 .6 4.4.2 7.3-3.4 10.8-5.3 4.4-2 7.7-2.1 11.6 1 1.5 1.2 3 2.7 5 3.4 2.6 1 5.6.3 8.2-.5a32 32 0 0 0 6.6-2.5q2.6-1.3 5-3c1.2-.6 2.6-1.7 4.1-1.4 3.7 1.1 5.3 5.2 8.3 7.3q3.3 2.2 7.4 1.7" class="b"/><path d="M12.9 81.4q2.5.1 5 .7c2.1.5 4.4 1.2 6.6.8 2.2-.2 4.3-1.4 6.6-1.3 2 0 3.8 1 5.8 1.3q5 .3 9.9-.2c1.9-.1 3.9-.6 5.8-.6q3.7.1 7.4-.3c4.3-.7 7.2-3.4 11.6-1q3.1 1.5 6.6 2.2 2.5.1 5-.1 6.2.3 12.4-.3c2.4-.2 5-.7 7.4-.5 3.9.4 7.7 1 11.6.7 4.7-.2 8.2-4 12.4-5.4 5.6-2 9.5 4.5 14.9 4.3q2.5 0 5-.8 4.7-1.2 9-3.5c5-2.4 7-5.1 11.6-.2 3.2 3.8 6.4 6.4 11.6 5.8" class="b"/><path d="M12.9 78.8c1.9.2 4 .1 5.8.7 2.1.6 4.3 1.6 6.6 1.3 2-.2 3.8-1.5 5.8-1.8 1.7-.3 3.4.7 5 1.3q2.3.6 5 .6l12.3-.1q5 .1 10-1c5.9-2 6.3.2 11.5 1 3 .3 6-1.6 9.1-.7 5.7 1.4 11.6.5 17.4 0 2.4-.1 5 .4 7.4.6 3.8.1 7.9.4 11.6-.6 3.9-1 7.3-4.7 11.6-3.7 3.6.8 6.9 3.2 10.7 2.8 4.3-.4 8.5-1.9 12.4-3.4q2.5-1 5-1.7 2-.8 4.1-.2c2 .7 3.5 2.3 5 3.7a12 12 0 0 0 9.9 3.2" class="b"/><path d="M12.9 75.8c1.6.2 3.4 0 5 .3 4.3 1 6.9 4.2 11.5 1.5 4-2.3 6 .7 10 .9 3 .3 6 0 9 0l9.2.2c3.5 0 7.1-1.3 10.7-.8 2.4.6 5 1.2 7.5.2q2-1 4-2c2.4-.6 4.6 1 6.7 1.8 2.6.8 5.5.8 8.3.8q3.7-.1 7.4-.5 3.4 0 6.6.3 5 .2 10 .1 3.8-.2 7.4-2c7.5-3.9 11.1 1.1 18.2-.3q4.8-1.2 9.9-1.9 2.9-.2 5.8-.3 1.6-.2 3.3-.2c1.8.2 3.5 1.3 5 2.4 3.2 2.5 6.7 2.6 10.7 2.2" class="b"/><path d="M12.9 72.5q2 .3 4.1.3c2.5 0 4.6 1.7 6.7 2.8a6 6 0 0 0 5 .5c5-2.5 4.8-1.5 9.8-.3 3 .5 6.1.2 9.1 0 2.5 0 5 .6 7.5.6 3.3.3 6.6-.1 9.9-.3 2.2 0 4.4.6 6.6.3a15 15 0 0 0 5-1.8c2-1.3 4.3-2.2 6.6-1q3 2 6.6 2.6 6.7.6 13.2 0c6.6-.1 13.3.7 19.9.1 4-.5 7.6-2.5 11.6-2.7 2.2-.4 4.4.4 6.6.4 2.8 0 5.5-1 8.3-1.4q2.9-.2 5.7.3l5 .9q3-.2 5.8.7c6 2.8 7 2 13.2 1.5" class="b"/><path d="M12.9 69.6c1.6.2 3.4-.2 5 .1 3.3.8 5.5 4.2 9 4.6 2.4.2 4.4-1.5 6.7-1.6 2 0 3.8.7 5.8.8q4.1.2 8.2 0 4.2.6 8.3.8h11.6q3.8.1 7.4-1.4c1.9-.6 3.8-1.4 5.8-1.2 2.9.3 5.4 2 8.3 2.2 5.2.7 10.5.3 15.7.2l15.7.2c3 0 6.1.2 9.1-.6q3.3-1 6.6-1.9c2.2-.3 4.5 0 6.7 0 3.3-.1 6.5-1.7 9.9-1.2 2.5.3 5 1.5 7.4 2l4.1.6c1.7.3 3.4.9 5 1 3.3.3 6.6-1 10-.7" class="b"/><path d="M12.9 66.8q2-.2 4.1-.4c2.3.2 4.1 2 5.8 3.4q2.2 1.9 5 2.3c2.2.2 4.4-1 6.6-.8 4.1.4 8.3 0 12.4.3q7 .8 14 .5c4 0 7.9.2 11.6-.8 5.8-1.7 11.6.4 17.4.8 3.6.2 7.2-.2 10.8-.3q6.5.3 13.2.3 4.5.2 9-.3c2.5 0 5 .4 7.5.3 2.3 0 4.5-1 6.6-1.5q3.8-.6 7.5-.7c3.3-.4 6.6-2.1 9.9-1 2 .6 3.8 1.6 5.8 2.1a40 40 0 0 0 9 1c3.3-.4 6.7-1.4 10-.7" class="b"/><path d="M12.9 64.3c6-2 6.5-.2 10.8 3.4 2 1.6 4.8 2.4 7.4 2.2h9q5.5-.3 10.8 0c5-.1 10 .2 15 0 2.7-.1 5.4-1 8.2-1.1 2.2-.1 4.4.5 6.6.7q4 .5 8.3.5c3.6 0 7.1-1.2 10.7-1.1 2 .1 4 .7 5.8.8q3.8.3 7.5.2c2.7 0 5.6.3 8.2-.6q3.3-1.2 6.6-.5c2 .4 3.9 1.2 5.8 1.2 2.2-.1 4.5-.8 6.7-1.1q3.7-.6 7.4-1.5c4-1.5 6.2-.9 10 1a21 21 0 0 0 10.7 1.4c1.6-.3 3.3-1 5-1.2q2.9-.3 5.7.6" class="b"/><path d="M12.9 62.3c1.9-.5 3.8-1.9 5.8-1.4s3.4 2.3 5 3.5c3 2.4 6.9 3.4 10.7 3.2q3.3 0 6.6.2h6.6q4.2-.2 8.3-.2c3.8 0 7.8.5 11.6-.1q2.4-.6 5-1.2c1.9-.3 3.9.2 5.7.7q3 .6 5.8.7 4.6.3 9.1-.7c2.7-.8 5.6-2 8.3-1a26 26 0 0 0 11.6 1.5c1.9 0 3.9.5 5.8.2 2.8-.6 5.3-2.7 8.2-2.7 2.4 0 4.5 1.6 6.7 2.3 4.2 1.4 10.7-1 14.8-2.3 4.8-2 7.9 2.4 12.4 2.7q5.2.5 10-1.2c2.8-1.4 5.4-.6 8.2.5" class="b"/><path d="M12.9 61.1q2.1-.8 4.1-1.7c3.2-1.1 5.7 1.7 8.3 3q4 2.3 8.3 2.5 4.1.2 8.2.6 7 .1 14.1-.1c3.8 0 7.8.6 11.6-.2 2.2-.5 4.3-1.9 6.6-2 3.4 0 6.6 1.8 10 2.1 8.5 1.5 11.5-3.4 17.3-1.8q3.6 1.2 7.4 1.5h4.2q2 .2 4 .6c3.6.2 6-3 9.2-4 7-1.7 6.8 7 19 2.9 3.1-1 6-2 9.1-.5 1.8.8 3.8 1.7 5.8 1.6 3-.2 6.2-.3 9-1.2 4.4-1.4 5.6-1.7 10 .2" class="b"/><path d="M12.9 60q2.1-.5 4.1-1.3c2.3-.9 4.6-.1 6.7 1l4 1.7c3.5 1.4 7.2 1.3 10.8 1.8s7.2-.3 10.8.1q4 .1 8.3 0c3 0 6 .3 9-.3 2.7-.5 5-2.3 7.5-3.2 4.5-1.4 8.2 2.5 12.4 3.3 2.8.7 5.6 0 8.3-.8a18 18 0 0 1 6.6-.3c3.8.6 7.7.5 11.6.5 1.6.2 3.3 1 5 .9 1.5-.2 2.9-1.2 4-2.1 1.6-1.1 3.2-2.4 5-3 2.4-1 4.8.5 6.6 2 1.7 1.2 3.7 2.5 5.8 3 3.9.7 7.7-1.2 11.6-1.2 2.5 0 5 1.3 7.4 1.3q2.1-.1 4.2-.6 3.2-.2 6.6-.8c4-.9 5.7-1.6 10 .2" class="b"/><path d="M12.9 58.7c2.5-.3 4.9-1.5 7.4-1.3 2.8.3 5.6 1.4 8.3 2.1q3.7 1 7.4 1.4l4.2.3q2.4-.1 5-.4c2.4-.2 5 .4 7.4.4q4.5 0 9-.2 3.5 0 6.7-1.1c2.6-1 4.8-3 7.4-4 5.3-2.6 7.6 4 12.4 5 2.5.7 5-.1 7.5-.2 3.3-.1 6.6.2 9.9 0q3.8-.2 7.4-.1c2 .2 4 1 5.8.4 2.8-1.1 4.9-3.4 7.5-4.8 4.7-3 8.4 2 12.4 4 2.2 1.1 5 1.1 7.4 1q4-.5 8.3-.2 3.8.5 7.4-.7 3-.5 5.8-.8c2.2 0 4.4-.6 6.6-.9q2.7 0 5 .8" class="b"/><path d="M12.9 57c2.5-.2 5-1.2 7.4-1.1 5.9.4 11.6 2.3 17.4 3 2.8.5 5.5-.4 8.3-.5 3.3.2 6.6.7 9.9.5q3.3-.2 6.6-.9 3-.2 5.8-1c3.4-1 6-3.7 9.1-5.4 2.9-1.4 5 1.9 6.6 3.7q1.7 2 4.1 3.1c2.1 1 4.5.6 6.7.5l9 .1c3.3 0 6.7-.4 10-.2 4.3.7 6.3-.2 9.9-2.5 8.2-5.8 9.2-1.8 16.5 1.9 4.5 1.5 9.5.6 14.1.8q2.5.1 5-.4 2.8-1 5.7-1.5 3.3-.5 6.7-.8 3.7-.9 7.4.3" class="b"/><path d="M12.9 55c2.5-.4 5-1.4 7.4-1.5a96 96 0 0 1 18.2 3.1c2.8.6 5.6-.2 8.3-.1 4.4.1 9 .6 13.2-.8q2.9-.8 5.8-1c3.7-.4 7-2.6 10-4.6 4.6-3.8 6.8 1.8 9.9 4.4q2.8 2.4 6.6 2.3H113q2.8.2 5.7 0c5.5-.7 10-6.5 15.8-3.9 2 .8 3.7 2.2 5.7 3 4 1.3 8.3.8 12.4 1q3 .1 5.8-.5c2-.4 3.9-1.3 5.8-1.7a42 42 0 0 1 6.6-1c2.8-.3 5.7-.4 8.3.7" class="b"/><path d="M12.9 52.8c4.6-1.2 6.4-3.2 11.6-2.1q4.6.3 9 1.3c2.6.6 5 2 7.5 2.5 2.2.4 4.5 0 6.6 0 2.8-.2 5.6 0 8.3-.4 4-.4 7.7-1.8 11.6-2.6q3.8-1.2 7.4-2.5c1.3-.5 2.8-1.2 4.2-1 2.3.4 4 2.5 5.7 4 4.7 3.8 11 2.4 16.6 2.4 3.8 0 7.7.4 11.6.3q3.7.2 7.4-.3c4.2-.8 8-3.3 12.4-2.7 2.9 0 5.5 1.5 8.3 2.2 3.2.7 6.6.6 9.9.6q3.8 0 7.4-.8c2-.4 3.9-1.2 5.8-1.3q3.4-.4 6.6-.2 4.2 0 8.3 1" class="b"/><path d="M12.9 50.7c2.9-.9 5.2-3.3 8.3-3.5 1.6-.1 3.3.4 5 .5 2.4.2 5 .2 7.4 1q2.6.9 5 2.4c3.7 2 8.3 1.4 12.3.7 3.9-.5 8 0 11.6-1.5 2.7-1.1 5.4-2.6 8.3-3h4.1l3.3.1c2.1.2 4 1.5 5.8 2.6 3.4 2.2 7.6 2.7 11.6 2.3q2.9-.3 5.8-.4 3.3.1 6.6.5 5.4.1 10.8 0 3.3-.1 6.6-1a42 42 0 0 1 6.6-.6q2.5-.2 5 0 3.2.9 6.6 1.1c6.6.6 13.2-1.2 19.8-1.7 5.3 0 10.4 1.8 15.7 1.9" class="b"/><path d="M12.9 48.4c3-1.1 5.5-4.5 9.1-3.9 1.4.2 2.8.8 4.1.9q3.4.1 6.6.7c2.5.5 4.4 2.3 6.7 3.3 3.4 1.2 7.3 1.2 10.7-.2q2.3-1 5-.9c2.1 0 4.5.4 6.6-.4 1.7-.8 3.3-2.3 5-3.2 3.5-2.4 6.5.2 9.9 1.2 2.8.7 5.5 2 8.3 3 3.9 1.4 8.3 1.6 12.3.6 3.6-1 7.2.3 10.8.7 3.6.2 7.2-.1 10.8.1q4.1 0 8.2-.4c3.3 0 6.7-.6 10-.9 3.8.4 7.7 1 11.5.4 2.2-.3 4.4-1 6.6-1.3q4.6-.2 9.1.3 3.8.8 7.5 1.6 3.7.5 7.4.3" class="b"/><path d="M12.9 46c3-1.4 5.6-4.8 9.1-3.5q2.8 1.4 5.8 1.7 3 .1 5.8.8 2.5 1 5 2.3c4 1.3 8.8 1.2 12.3-1.3 6.1-3 8.2 2.4 14.1-4.2 4.2-4.2 6-1.6 10 1 4.2 2.6 9 4.7 14 5q3 .3 5.8-.3c1.9-.5 3.8-1.6 5.8-1.4 2.5.2 4.9 1.6 7.4 2 3.6.2 7.2-.5 10.8-.3q6 .5 12.4.2c2.1 0 4.4-.8 6.6-.7 3.2.2 6.6.5 9.9 0 2-.2 3.9-1 5.8-1.4 2.1-.5 4.4 0 6.6.4 3.6.3 7.2 1.3 10.8 1.8 2.7.3 5.5-.6 8.2-.6" class="b"/><path d="M12.9 43.2c2.4-1.1 4.6-3.6 7.4-3 1.8.5 3.3 1.7 5 2.2 3 .8 6.2 1 9.1 2 1.9.6 3.8 1.5 5.8 1.5 2.7 0 5.6.1 8.3-.8 1.6-.6 3.2-1.8 5-2.3s3.8-.3 5.7-.6c1.6-.2 3-1.3 4.1-2.4 4.7-5 6-4.8 10.8-.3 2.8 2.2 5.7 4.4 9 5.4 4.7 1.2 9.9 1.2 14.2-1 4-2.2 7.6 1.7 11.5 2q3.8 0 7.5-.9c2.1-.4 4.4-1 6.6-.5 3.5.7 7.1 1.5 10.7 1.4 3.9-.5 7.8 0 11.6 0 4 .1 7.7-1.8 11.6-1.4q4 .6 8.3.8 3.2.6 6.6.6c2.5 0 4.9-1.5 7.4-1.7" class="b"/><path d="M12.9 40.9c2.6-1.2 5.3-3.5 8.3-2.4q2 .9 4.1 1.8 4.5 1.3 9.1 2.8 3.2.9 6.6.6 3.4.1 6.6-.4 2.3-.5 4.2-1.7a19 19 0 0 1 5-1.4c4.5-.4 6-2.6 9-5.5 2.9-2.5 5.2-.6 7.5 1.6 2.1 1.8 4.2 4 6.6 5.4 2.7 1.6 6 1.7 9 1.6s5.8-1 8.4-2c6.2-2.5 8.3 4.2 15.7 2 2.6-.6 4.9-2.4 7.4-3.4 2-.8 4 .3 5.8 1.2 2 1 4.3 2.3 6.6 2.6q8.2.1 16.6 0c3 0 6-.7 9-.6l6.7.4c2.4.1 5 .5 7.4 0s4.4-2.2 6.6-3" class="b"/><path d="M12.9 39c2.4-1 4.8-2.6 7.4-2.4q2.2.3 4.2 1.2 2 .5 4.1 1.4c2.6 1.1 5.4 2.4 8.3 2.4 3.5-.4 7.2 0 10.7-.5 2.3-.3 4.4-1.5 6.6-2 5.3-1 6.6-.6 10.8-4.5 2-1.8 4.2-2.5 6.6-.8q2.2 1.5 4.1 3.3c1.5 1.3 3 2.8 5 3.5 2.4.8 5 .5 7.4.3q4.5-.5 9.1-1.7c6.2-1.6 8 3 13.3 2.3 3.6-.4 6.2-3.1 9-5 5.2-3.7 7.5 4 13.3 4.8 3.3.5 6.6 0 10 0q5.7.2 11.5.2 4-.2 8.3 0c3.3 0 6.7.3 9.9-.5 2.5-.7 4.4-2.8 6.6-4" class="b"/><path d="M12.9 37.2c2.2-.5 4.4-1.5 6.6-1.6 4 0 8 1.4 11.6 2.8q2.4.9 5 1l5-.2c3 0 6 .1 9-.6 3-.9 6-.8 9.1-.8 3.7 0 6.3-3.5 10-3.8 3.3.1 6.2 2.5 9 4.1 4.8 2.3 10-.5 15-.3H98q2-.2 4.1 0c2.5.5 4.9 2 7.4 1.5q3.1-.6 5.8-2.5c2.7-1.6 5.8-5 9.1-3 4.9 3.6 6.7 5.7 13.3 4.7 3-.5 6 .2 9 .3s6.1.5 9.2.6q5.3-.1 10.7-.1a24 24 0 0 0 7.5-2q2.4-1.5 5-3.2" class="b"/><path d="M12.9 35.6q4-1 8.3-.6 5.3.9 10.7 1.8 4.5.6 9.1.4 5.4 0 10.8-.6c3.5-.3 7.2.8 10.7.1 4-1 6.5-2.5 10.8-1.3 1.6.2 3.3 1 5 1.3a17 17 0 0 0 9-.7c2.7-.8 5.6-.1 8.3.3 2.4.4 5 0 7.4.3q2.5.6 5 .6c3.8-.5 7.2-2.5 10.7-3.9 2-.8 4.6-1.6 6.7-.5 4.1 2.3 6.8 3.4 11.5 1.8 2.2-.7 4.6.1 6.7.8q2.4.8 5 .7c2.4 0 5 .6 7.4 1q3.7.1 7.4 0c2.9.1 5.6-1 8.3-1.9 2.6-.6 4.9-2.1 7.4-3" class="b"/><path d="M12.9 33.7a18 18 0 0 1 5-.2l5.8 1.1c4 .5 8.2.2 12.4.4q8.2.1 16.5-.2 8.7.7 17.3-.3c4.7-.3 9.5 1 14.1 0 2.1-.7 4.4-1.4 6.6-.9q2.6.7 5 1.1 2.4.3 5 .2c2.4 0 5 .4 7.4 0 3.8-1 7.6-2.3 11.6-2.8q2.4-.4 5-.4c2.4.3 4.9 1 7.4.5 5.8-1.6 5.2-4 11.5-.2q1.6.8 3.4 1.2 2.4 0 5 .5 2.3.6 4.9 1.1 2.4.3 5 .2 4.6 0 9-1.8c2.8-.6 5.5-1.7 8.3-2" class="b"/><path d="M12.9 32q2.5-.5 5-.1 2.8.6 5.8 1h33.8q2.1-.3 4.2-.4l5.8.3q5 .1 9.9-.1 3-.1 5.8-.8c1.8-.5 3.8-1.4 5.8-.9q2.4.8 5 1.6c2.4.5 5 .1 7.4.2q2.9 0 5.8-.5c2.2-.4 4.3-1.3 6.6-1.5 3-.4 6 .4 9 .2 2.8-.2 5.8.2 8.4-1.1 5.7-3 5.8-6.7 12.4-1.5q1.4 1.1 3.3 1.8l4 .7c2.8.8 5.5 2 8.4 2q3.7 0 7.4-.3c4.1-.5 8.2-1.7 12.4-2" class="b"/><path d="M12.9 30.3q2.5-.2 5-.2 2 .3 4 .5 2.6 0 5-.3l5.8.1q12 .3 24 .2c2.8 0 5.5-1.2 8.3-1.1 3 0 6 1.2 9 1.2q3.5 0 6.7-1c1.9-.4 3.8-1.3 5.8-1.4 2.6 0 4.9 2 7.4 2.3 2 .3 4-.4 5.8-.4q6 0 11.6-1.2 3-.6 5.8-.1 3.7 1 7.4.8c10.6.4 10.3-11.3 17.4-6q2 1.6 4.1 3 1.7.7 3.3 1c2.3.8 4.4 2 6.7 2.6 2.6.7 5.5.2 8.2.3q7.5.2 15-.7" class="b"/><path d="m12.9 28.5 5-.2q2.4.2 5 .2c2.4-.3 4.9-.9 7.4-.9q4.1.3 8.2.5 2.5.3 5 .4 4.5-.4 9 0 3 0 5.9-.2c3.2-.7 6.5-3.1 9.9-1.8 5.8 2.8 7.3 2.3 13.2.4q3.3-1.2 6.7-.3c6 2.5 5.3 2 11.5 1 3.6-.3 7.2 0 10.8-.4q2.4-.2 5-.2 2 0 4 .6 2.6.5 5 .4a11 11 0 0 0 6.6-1.7c3-1.9 4.4-6.5 8.3-6.5 2.5.5 4.5 2.5 6.6 3.8q2.5 1.1 5 2.3 2.7 1.6 5.8 2.4c3.8.5 7.7-.2 11.6-.1 3.5 0 7.1.4 10.7.2" class="b"/><path d="M12.9 26.2h5.8q2.5.2 5 0 3.2-.8 6.6-1 2.9.2 5.8.5c2.7 0 5.5.8 8.2.5q2.5-.2 5-.2 2.9.3 5.8.3 2 0 4.1-.3c2.2-.9 4.2-2.5 6.6-2.9 2.2-.1 4 1.5 5.8 2.4 4 2.2 8.3-1 12.4-1 3.4-.2 6.5 2 10 1.8 1.9-.1 3.8-1 5.7-1.3 3-.2 6.1.4 9.1.5 3 .2 6.1-.2 9.1.2q3.8.5 7.5.4 3 .2 5.8-1.3c2.8-1.7 4.1-5.5 7.4-6.5 2.8-.5 5.2 1.8 7.4 3q2.1 1.1 4.2 2 2 1.2 4.1 2.1 3.2 1.3 6.6.7c3-.2 6-1 9.1-1.3s6 1 9.1 1.3" class="b"/><path d="M12.9 24q4.5.3 9.1 0c2.5-.1 5-.6 7.4-.5q6.7.5 13.3.6l5.8-.2q3.2.3 6.6.2c1.6 0 3.4.1 5-.5 3.6-1.6 6-3.4 9.9-.9 3.8 2.7 7.4.7 11.5.3 3.7-.5 7.2 1.4 10.8 1 2.6-.2 4.8-1.9 7.4-2.1 2.8-.1 5.6 1 8.3 1.4q4 .5 8.3.5c3.8.2 7.7.5 11.5.1 6.4-.3 7.4-8.5 13.3-6.6q2.5 1.2 5 2.8l4 2c3.4 1.7 6.2 2.5 10 1.7q3-.5 5.8-1.5c2-.7 4.3-1.6 6.6-1.4s4.4 1.3 6.6 1.8" class="b"/><path d="M12.9 22q7 0 14-.3 14.1.4 28.2.2c1.9 0 3.9.2 5.8-.3 2.4-.7 5-1.6 7.4-.8 1.9.6 3.8 1.4 5.8 1.1 2.2-.2 4.4-1 6.6-1 6 .3 8.4 2.7 14-1.2 3.4-2.2 5.6-2.4 9.2-.7 2.8 1.3 5.9 2.5 9 2.6q6 .4 11.6.3c10.4.6 10-8 17.4-5 6.6 3.4 10.3 6.8 18.2 3.9q4.1-1.2 8.3-2.8c3.5-1.5 7.3-.3 10.7.8" class="b"/><path d="m12.9 19.8 12.4-.1h29.8q5 .2 9.9-.3c2.2-.2 4.4.3 6.6.4 2.8 0 5.5-1.1 8.3-1 4 .2 8 2.4 11.6-.8 2.4-1.9 4.8-4.9 8.2-4.6 2.2.4 4 1.8 5.8 2.9q2.8 1.6 5.8 2.6 4.9.9 10 .9c3 0 6.1.1 9-1 2-.6 3.9-1.8 5.8-2.5 4-1.7 8 1 11.6 2.6 2.9 1.3 6.2 1 9.1 0l5-1.8c1.3-.5 2.8-.5 4-1q6.7-2 13.3 0" class="b"/><path d="M12.9 17.4c3.8-.2 7.7.3 11.6.2 4.1.1 8.3-.4 12.4-.3q2.4.2 5 .3l4.9-.3q9.9.3 19.9.2 2.8.1 5.7 0c2.2-.2 4.5-.8 6.7-.8 2.4 0 5 1 7.4.8 4.7-.4 6.3-6.3 10.8-7.5 2.7-.8 5.2 1.2 7.4 2.6a35 35 0 0 0 6.6 3.7q4.9 1.4 10 1.3c3.8 0 7.8 0 11.5-1.2 5.6-1.4 8.7-1.2 14 .8 2.5.8 5.2.2 7.5-.7q3-1 5.8-2.1a10 10 0 0 1 5-.8l7.4-.2q3.4-.1 6.6.6" class="b"/><path d="M12.9 15q4-.3 8.3.3 4.1.2 8.2 0c4.2-.3 8.3.1 12.4 0 1.7 0 3.4-.4 5-.3q3.8.3 7.4.3h16.6l7.4-.3 5 .3c7.9 1 8.3-6.7 14.9-6.7 3.6 0 6.6 2.6 9.9 4q4.3 2.2 9 2.7 6 .2 11.7 0 6-.5 12.4-.7c2.7 0 5.5 1.2 8.2.6 2.8-.7 5.5-2 8.3-2.6 1.7-.4 3.3-1.5 5-1.6l9 .3c2.5 0 5.1 0 7.5.9" class="b"/></svg>