<svg xmlns="http://www.w3.org/2000/svg" id="a" width="1920" height="2400" viewBox="0 0 192 240"><defs><style>.b{fill:none;stroke:#fff;stroke-miterlimit:10;stroke-width:.3px}</style></defs><path d="M0 0h192v240H0z" style="stroke-width:0"/><path d="M9.7 231.9h172.6M9.7 227.2h172.6M9.7 222.5h64.4c6.6.2 13.2-.6 19.8-.5q6.4.1 12.8.5h75.6M9.7 217.9h13.8q1.3 0 2.5-.5h4.3q17.3-.1 34.4 0c9.7.3 19.4-2.5 29.2-2q8.2-.1 16.3.5 3.8.4 7.7 1l6.9-.2h12.9q7.3.7 14.5 1 6.4.3 13 .1h17M9.7 213.2h14.6c1.7-.2 3.5-1 5.2-1.4l11.1-.3q5.2 0 10.3.2 5.2.6 10.3.7 11.8.3 23.2-2 3.4-.5 6.9-.6 3.4.3 6.9.8 7.3.6 14.5.5h5.2l11.2-1.5 4.2-.8h6c2.4-.3 4.7.7 7 1.5q4.5 1.6 9.4 2.5 4.3.6 8.5.3 9 .2 18 .1" class="b"/><path d="M9.7 208.6h9.5c2-.1 4 .2 6-.2q4-1.4 7.7-3 6.5-.4 12.9.1 4.8.6 9.4 1.7c7.7.6 15.6.9 23.2-.6 18-3.9 10.1-2 26.6-.2 7 .5 14 .2 20.6-1.7q3.5-1 6.9-2.3 1.6-1 3.4-1.6h2.6c2 .1 4-.2 6 .2 4 2 7.7 4.7 12 6 8.4 2 17.2 1.5 25.8 1.6" class="b"/><path d="M9.7 203.9h9.5q3 .2 6-.2 4.4-1.8 8.6-4 1.2-.7 2.5-1.2a56 56 0 0 1 9.5.8c3 .5 5.7 2 8.6 2.7a81 81 0 0 0 26.6.2c16.6-3.3 7.6-2.2 23.2 0 9 .9 18.2-.2 26.6-3.7 3.1-1.3 5.5-4.2 8.5-5.6h4.3c1.1 0 2.4-.2 3.5.2 2.4 1.5 4.6 3.5 6.8 5q3 2.1 6 3.8c3 1.3 6.3 1.6 9.5 2h12.9" class="b"/><path d="M9.7 199.2h9.5c2 0 4 .3 6-.2q5.3-2.5 10.3-5.3 2-1.2 4.3-2 3 .2 6 1.3c3 1 5.5 3 8.6 3.7a88 88 0 0 0 34.3 1c1.7-.2 3.4-.8 5.2-.7 4 .3 8 1 12 1a83 83 0 0 0 24.9-3.2c3.8-1.4 6.4-4.7 9.4-7.3 5.4-4.8 9.4-1.5 13.7 2.7 2.3 3.1 4.8 6.5 8.6 7.7l4.3 1q1.6.3 3.4.3h12" class="b"/><path d="M9.7 194.6h13.8c1.8.1 3.5-1.3 5.1-2q4.2-2.5 8.6-4.8c5-2.4 5.3-3.2 10.3-.3 1.7 1 3.3 2.3 5.1 3.1q6.4 2.3 13 3.2c2.7.5 5.7 1 8.5.5q5.6-.4 11.2 0c2.9.6 5.7-.4 8.5-.8q6-.6 12-.7 8.7-.3 17.2-1c3.8-.5 7.8-.3 11.2-2.3 4.2-2.5 6.7-7.4 11.2-9.6 1.6-.7 3.6-.6 5.1.3q1.5 1.7 2.6 3.5c2.8 4 6 9 11.1 10.1q3.9 1 7.8.8h10.3" class="b"/><path d="M9.7 190h13.8c1.2 0 2.4-.7 3.4-1.2l3.4-2c4.4-2.3 8.8-5.2 13.8-6.2 3-.7 5 2.3 7.7 3.6q2.9 1.4 6 2.2a97 97 0 0 0 17.2 3.4c1.6.2 3.4-.2 5.1-.2q4.8-.3 9.5.3 3.5-.5 6.8-1.8 3.4-.8 6.9-1.4c6-.6 12-.3 18-.5 3.4-.1 7 .3 10.3-.3 6.7-1.3 9.5-8.7 15.5-11.3 3 .3 5.8 4.9 7.7 7 2.4 3 5 6 8.6 7.4q4.6 1.1 9.4 1h9.5" class="b"/><path d="M9.7 185.3h14.6q1.8-.7 3.5-1.6l6-3.3c4.5-2.1 9.5-5 14.6-4 1.5.5 2.8 1.8 4.2 2.3 2.2.8 4.7 1.1 7 1.8q8 2 16.2 3.5c5.4.7 11 1.3 16.3.1 2.8-1.4 5.5-3.2 8.6-4 4.4-1.4 9.2-.9 13.7-.8q5.6.1 11.2.5c2 0 4 .4 6 0 4-.5 6.7-3.6 9.4-6.1 1.3-1 2.6-2.8 4.3-2.7 7.6.3 11.4 11.9 19 13.7 5.9 1 12 .4 18 .6" class="b"/><path d="M9.7 180.6h13.8c1.2.2 2.4-.6 3.4-1.1l5.1-2.9c4.3-2 9-3.7 13.8-4 2-.1 4 .7 6 1.2q3.9.3 7.7.7c7 .8 13.7 2.7 20.6 3.5q5.6.8 11.2 0c3.4-2.5 7-5.3 11.1-6.5a49 49 0 0 1 14.6-.7c3.2 0 6.4 1 9.5 1.9 3.4 1.2 6.3 1.3 9.4-.9 2-1.4 3.7-3.7 6-4.6 4.1-1.6 7.4-.2 10.3 2.9 4 3.6 7.3 9 12.9 10s11.4.4 17.2.5" class="b"/><path d="M9.7 176h14.6c2.8-.9 5.2-3 7.8-4.4a19 19 0 0 1 16.3-2.3c1 .4 2.3 1 3.4 1 1.4.2 2.9-.4 4.3-.7a230 230 0 0 1 31.7-1.6q1.9.2 3.5-.7c8-6.4 16.3-6.8 25.7-3.1l8.6 3.2c1.6.5 3.4 1.2 5.2 1.1 5.3-.5 5.5-4.7 12-5.4 9-1 13 9.5 20.6 12.1 3 .8 6.3.7 9.4.7h9.4" class="b"/><path d="M9.7 171.3h14.6c4.3-1.2 7.5-4.7 11.2-7 2.7-1.9 6.1-3 9.4-2.4 2.7.3 5 2.4 7.8 2.2 1.1 0 2.3-.8 3.4-1.1q4.4-1 8.6-2.2 8-2.6 16.3-4 3-.6 6-.7c1.4-.2 3 0 4.3-.4 10.6-7.5 21 .8 30.9 5.2q3 1.4 6 2.2c1.7.6 3.7 0 5.1-1 1.7-1.3 3.3-3 5.2-3.8 3.8-1.1 8 0 11.1 2.5 4.4 3 7.7 8.1 13 9.8q4.5.9 9.4.7h10.3" class="b"/><path d="M9.7 166.6h12c1.5 0 3 .2 4.3-.5 4-1.6 7.2-5 10.3-7.8 2.6-2.3 5.8-4.9 9.5-4.5 2.1 0 4 1.4 6 1.7q1.8.2 3.4-.7 1.7-.5 3.4-.8c9.3-2.1 18-6.2 27.5-7.7 2-.4 4-.3 6-.6q2.9-1.8 6-2.1c6.6-.3 12 4.3 17.2 7.6 4.2 2.6 9.6 6.3 14.6 6.5 2.1-1.2 4-3.1 6-4.4 1-.7 2.2-1.6 3.4-1.4 6.4 0 11 5.2 15.5 9.2 2 1.7 4.2 3.7 6.9 4.5 6.7 1.6 13.7.8 20.6 1" class="b"/><path d="M9.7 162H20c2-.1 4.1.2 6-.4 7.6-2.5 11.1-10.5 17.2-15 5.6-3.9 6.8.2 11.2-1q1.6-.6 3.4-.3l3.4-.1q9-1 18-3c4.3-.8 8.6-2 13-2.6 2.2-.8 4.3-2.4 6.8-2.6 6.4-.4 11.4 4.7 16.3 8.1 4 2.9 8.7 6.3 13.8 6.6q2.8-2.5 6-4.5c1-.5 2.2-1.4 3.4-1.4 9.2 1.4 14.2 10.7 22.3 14.3q4.1 1.4 8.6 1.9h12.9" class="b"/><path d="M9.7 157.3h12c6.8.6 11.6-3.6 15.5-8.6 3.5-3.9 7.9-12.5 13.7-12.1 1.4.2 3 .6 4.3.2 1.2 0 2.4.8 3.5 1.1a55 55 0 0 0 20.6 2.6c4.6-.6 9.2-2.2 13.7-3.6 2-1 3.8-2.5 6-3.1 7.7-2.3 14.3 5.4 20.6 8.8q2.5 1.4 5.1 2.4c1 .3 2.4.8 3.5.5 2-1.2 3.8-3 6-4 1.3-.6 2.8-1.6 4.3-1.4 7.9 2.6 13.5 9.3 20.6 13.4q5 2.6 10.3 3.8h12.9" class="b"/><path d="M9.7 152.6H20c2.3 0 4.7.2 6.9-.3 9.8-2.1 13.9-12.4 20.6-18.7 3-2.6 4.9-2.5 8.6-1.5q2 1.5 4.3 2.8c5 2.8 10.4 5.4 16.3 5.5 4.4.2 8.7-1.4 12.9-2.9 1.3-.5 3-.8 4.2-1.6 2.9-2 5.9-4.2 9.5-4.3 4.7-.1 8.8 2.6 12.9 4.6 3.4 1.7 7.2 3.7 11.1 3.5 1.3-.3 2.4-1.3 3.5-2a24 24 0 0 1 4.2-2.3c1-.3 2.4-1 3.5-.6q3.6 1.6 6.8 3.9c4.6 3 9 6.4 13.8 9.2q3.3 1.9 6.8 3.4c1.1.4 2.3 1.2 3.5 1.4h12.9" class="b"/><path d="M9.7 148H21c3.5.1 7-.2 10.3-1.7 4.3-1.8 7.8-5 11.2-8.3 3.5-3.1 7.5-8.5 12.8-6.9 8.9 5.3 16 9 26.6 6.6 3.5-.8 6.9-2 10.3-2.3 1.9-.4 3.5-1.9 5.2-2.6 3.7-2 8-2.3 12-1.3 5.9 1.3 12 4 18 2.8 1.8-.7 3.4-2.2 5.2-3q1.6-.8 3.4-1.3 1.3-.5 2.6-.2 3.6 2 6.9 4.3c5 3.4 10 7 15.4 9.9q4.2 2.3 8.6 4h12.9" class="b"/><path d="M9.7 143.3h14.6c5-.7 9.6-3.2 13.8-6 4.7-2.8 10.4-8.5 16.3-7.8q1.3.1 2.5 1 1.7.8 3.5 1.3c4.9 1.7 10.3 2.2 15.4 1.1 4-.8 8-2.3 12-2.3q1.8 0 3.5.5c.8.1 1.8-.4 2.5-.6q1.8-.6 3.5-.9a33 33 0 0 1 11.1.3c5.7 1 11.5 1.9 17.2.7 3-.5 5.6-2.8 8.6-3.5 1.6-.4 3.6-1.1 5.1 0 5 2.6 9.7 6 14.6 8.9q4.6 2.6 9.5 4.8c2 .9 4 2 6 2.5h12.9" class="b"/><path d="M9.7 138.6h14.6c6.5-1.8 12.2-6 18-9.1 4.1-2.4 9-4.5 13.8-2.9q3.5 1.8 7.7 2c10 1 15-5.9 22.3-5.2 1.5.2 3 1 4.3 1.6 1 .2 2.4 0 3.4 0l5.2.5c6 .8 12 2.5 18 2.4q4.9 0 9.5-1.8 2-1 4.3-1.9 2.9-1 6-.9c1.2-.1 2.4.8 3.4 1.4l3.4 2.2q5.4 3.6 11.2 6.5a64 64 0 0 0 14.6 5.2h12.9" class="b"/><path d="M9.7 134h14.6c1.8-.5 3.5-1.8 5.2-2.7l11.1-6.9c3.9-2.2 8.4-4 13-3.4 2 .1 3.9 1.5 6 2 7 1.8 12.3-.5 18-4.7 4.2-3 7.5-4.8 12-1.1q1.6.9 3.4 1.2l5.2 1.7c8.1 2.9 17.3 5.4 25.7 2.2 3.2-1 6-3.7 9.4-3.7q2.2 0 4.3.6 1.5.8 2.6 2 3.3 2.7 6.9 5.1c6.6 4.6 14.4 7.1 22.3 7.7h12.9" class="b"/><path d="M9.7 129.3h14.6c1.9-.7 3.5-2.2 5.2-3.3q5.5-4 11.1-7.9c3.8-2.4 8.4-4 13-3.3 2.2.1 3.9 1.7 6 2.4 8.5 2.8 13.7-.8 19.7-6.6 2-1.8 4.6-4.4 7.7-3.6 1.2.3 2.3 1.4 3.4 2l4.3 2.2c8.5 4.8 18.5 10 28.3 6.5 2.9-.9 5-3.2 7.8-4.3 2.2-.9 4.8-.2 6.8 1 1.6 1.2 3 2.9 4.3 4.3 4.8 5 11 9.2 18 10.2q5.2.6 10.4.4h12" class="b"/><path d="M9.7 124.7h12.9q1.3 0 2.6-.3 6-3.9 11.1-8.7c5-4.3 11-9.1 18-7.4 1.3 0 2.5 1 3.5 1.7q2 1.2 4.3 2c7.2 2.5 12.3-.2 17.2-5.6 2.1-2.1 4.1-4.8 6.8-6.3 2.5-1.2 3.9.3 6 1.2 4.6 2.2 8.5 5.7 13 8.1 6 3.7 14 6.1 20.5 2 3.9-2.5 6.2-6.6 11.2-3.3 1.4.9 2.4 2.7 3.4 4q2 2.8 4.3 5.4c2.4 2.6 5.3 5 8.6 6.3 1 .3 2.3 1 3.4.7 4-.8 8-.2 12 .1h13.8" class="b"/><path d="M9.7 120h9.5c2-.1 4 .3 6-.2 5-2.3 9-6 12.9-9.8 3.4-3.3 7.1-7 12-8q2.6-.3 5.1.4c1 .3 1.9 1.2 2.6 1.8 4.5 3.5 10.5 7 16.3 4.8 4.8-1.9 7.7-6.5 11.2-10 1.4-1.5 3-3.2 5.1-3.4q1.8 0 3.5.4c3.9 1 7 4 10.3 6.3 5 3.8 11.4 7.8 18 6q2.8-1 5.1-2.9c1.2-1 2.3-2.5 3.5-3.5a4.4 4.4 0 0 1 6 0c1.9 1.5 3 4.1 4.3 6q2.5 4.6 6 8.2c1.5 1.4 4.8 4.6 6.8 3.5 4.5-1.4 9.3-.3 13.8.3 4.8.3 9.7 0 14.6.1" class="b"/><path d="M9.7 115.3H20c2 0 4.2.4 6-.4 5.4-2 9.6-6 13.8-10 4-3.7 9.5-8.2 15.4-6 1.6.9 2.9 2.5 4.3 3.5 4.1 3.3 9.1 6.5 14.6 6.6 3.8-.1 7-2.8 9.4-5.5 4.2-4.4 6.1-8.2 13-8.1 2.4.3 4.7 1.7 6.8 3 2.7 1.8 5.5 3.8 8.6 5 4.8 2.4 10.4 2 14.6-1.4 3.3-2.6 6-10.9 11.1-6.3 4.4 6.2 6.9 14.5 13.8 18.6.6.4 1.7 1 2.5 1l2.6-.6c3.7-.4 7.5.5 11.2.6h14.6" class="b"/><path d="M9.7 110.7h9.5q3 .1 6-.2 6-1.8 11.1-6c3.6-2.7 7-6 11.2-7.8q3.8-1.6 7.7-.5c1.3.5 2.4 1.7 3.5 2.5q4 3.3 8.5 5.6c12.5 6.4 14.7-.3 23.2-7.5 3-2 6.9-2.8 10.3-1.6 4.9 1.5 9.4 4.3 14.6 4.6 4.8.5 9.5-1.6 12.9-5 2.2-2.8 3.8-7.4 7.7-8.2 2.3-.1 3.3 2.6 4.3 4.2 4.9 8.4 9 19.9 20.6 19.7q10.7.3 21.5.2" class="b"/><path d="M9.7 106h14.6a30 30 0 0 0 11.2-4.7c5.2-3.2 10-8.2 16.3-9.1 1.7-.2 3.8-.2 5.1 1q3 2.3 6 4.2c5.5 3.6 12.6 8.4 19 4 2.7-1.8 5-4.4 7.7-6.4 4.1-3.4 9.8-2.6 14.6-1.2 3.3.8 6.8 1.7 10.3 1.7 4.1.1 8.5-.9 12-3.2q2.8-1.7 4.3-4.6c1.8-2.8 3.5-6.4 6.8-7.5 3.3 1.4 6.6 9.1 8.6 12.3 3 5.1 6.8 10.8 12.9 12.3 7.6 1.7 15.5 1.1 23.2 1.2" class="b"/><path d="M9.7 101.4h14.6q2.2-.4 4.3-1Q35 98 40.6 94C44 92 47.2 89.5 51 88.2c4.3-1.3 5-.7 8.6 1.6 7.3 5 14 12.9 23.2 6.5 2.6-1.7 5-4 7.7-5.5 4.3-2.2 12.3.3 17.2.5 7.3.4 15.1-.2 21.5-4.1 1.4-1 2.4-2.8 3.4-4.1 1.5-2.1 3.1-4.4 5.1-6 3.8-.9 7.6 6.6 9.5 9.2 3.1 5 6.5 10.4 12 13 3 1.3 6.3 1.5 9.4 2q6.9.1 13.8 0" class="b"/><path d="M9.7 96.7H20c2 0 4.1.2 6-.3a53 53 0 0 0 19.8-9.7c3-2 6-4 9.4-4.8 2 0 3.7 1.4 5.2 2.5 6.6 5.9 12 12.5 21.4 7.3q2.7-1.4 5.2-3c1.3-.9 2.7-2 4.3-2 5.1-.2 10.3 1 15.4.8 6.4 0 12.8-1.2 19-2.8q4-.8 6.8-3.8l4.3-4.7c1.4-2 4.3-1 6 .2 4.2 3.2 6.8 8.1 10.3 12.1a20 20 0 0 0 13.7 7.8q3.4.6 6.9.4h8.6" class="b"/><path d="M9.7 92h14.6A38 38 0 0 0 33 90c5.4-2 10-5.4 14.6-8.9l5.1-4c1-.7 2.2-1.8 3.5-2 7 2.3 10.4 14 20.6 12.9a28 28 0 0 0 9.4-3.6q3.6-2.2 7.7-1.6 6 .6 12 .4c4-.2 8.1-1 12-1.5 4.3-.8 9-.8 13-2.5 2.5-1.4 4.5-3.6 6.8-5.4 7.3-2.5 13.3 8.3 18 12.4 4.1 3.9 7.5 5 13 5.8 4.5.3 9.1 0 13.7.1" class="b"/><path d="M9.7 87.4H20q3.5.2 6.9-.4a44 44 0 0 0 21.5-11.8q2.2-2 4.3-4.4c1-1 2-2.8 3.4-3.4 5.8.9 9.7 12.8 18 14.4a16 16 0 0 0 9.5-1.4c2.2-1 4.4-2.3 6.8-2.7 4.6-.4 9.2 0 13.7-.3 5.8-.3 11.5-1 17.2-1 2.9 0 5.8.2 8.6-.3q2.3-.8 4.3-2.3c1.6-.9 3.2-2.6 5.1-2.4 7.8.2 12.3 7.8 18 11.9a20 20 0 0 0 5.2 2.8q3.4 1 6.9 1.3h12.9" class="b"/><path d="M9.7 82.7H20c2.3 0 4.7.2 6.9-.4 8.4-2 16.2-6.4 22.3-12.4q2.5-2.5 4.3-5.4c.7-1.2 1.5-2.9 2.6-3.8 8.3-4 12.7 21.5 30 12.3q2.2-1.1 4.3-2 3.4-.7 6.9-1 8.6-.8 17.2.4c5.1.7 10.1 3.1 15.4 2.6 1.8-.7 3.5-2 5.2-3 1-.5 2.2-1.4 3.4-1.6 3 .2 6 1.9 8.6 3.5 4 2.7 7.6 6.3 12 8.6 2.6 1.5 5.7 1.7 8.6 2 4.8.4 9.7.1 14.6.2" class="b"/><path d="M9.7 78q7.8.1 15.5 0c8-1.8 15.5-5.5 22.3-10q3.5-2.3 6-5.8c1.3-1.9 2.4-4.7 5.2-4.7 3.1.1 5.4 2.8 7.7 4.7q2.9 2.7 6 5c6 4.1 11 4.3 17.2.7q5.3-2.4 11.1-2.7c6.2-.3 12.2 1.7 18 3.2 3.4.9 6.9 1.7 10.4 1.5a52 52 0 0 0 8.6-5.5c.7-.3 1.8-.4 2.5-.3 4.8.2 8.5 3.8 12 6.6 3 2.3 6 4.8 9.5 6 6.7 2 13.7 1.2 20.6 1.3" class="b"/><path d="M9.7 73.4c5.2-.1 10.4.2 15.5-.1q6.5-2.1 12.9-5 5.2-2.1 10.3-4.5 3-1.5 5.1-4c2-2.7 3.9-5.5 7.7-4.2 3 1 5.4 3.5 7.8 5.5 3.6 3.1 7.8 6.3 12.9 6.4 3.8.3 7-2.3 10.2-3.9 10.8-5.2 19.6.3 30 2.3 2 .3 4.2.6 6.1.1 3.4-1 6.5-3.2 9.4-5.1 11.7-3.8 18.5 10.7 29.2 12 2.2.7 4.6.5 6.9.5h8.6" class="b"/><path d="M9.7 68.7h9.5c2 0 4 .3 6-.2 4.3-1.8 8.5-4 12.9-5.6 3.6-1.4 7.5-2.2 11.1-3.6q3.5-1.3 6-4.2c2.2-2.6 5.9-2.5 8.6-1 5 2.7 9 7 14.6 8.4 11.5 2.8 12.4-9 26.6-5.2 6.6 1.7 12.8 5 19.7 5 3.3 0 6.6-1.2 9.5-2.7 2-1 3.8-2.4 6-2.5 12-2.4 17.7 9.3 28.3 11.5 4.6.3 9.2 0 13.8.1" class="b"/><path d="M9.7 64h14.6c1.5-.4 3-1.5 4.3-2.2A62 62 0 0 1 48.3 55q4.5-.9 7.8-3.8c5-2.4 10.1 1.4 14.6 3.5 4.7 2.4 10.4 4 15.4 1.6 5-2.5 7.4-6.7 13.8-5.5 5 1 9.6 4 14.5 5.6q5 1.8 10.3 1.6 4.5-.3 8.6-1.7l4.3-1.9q2.2-.7 4.3-.9c13.1-2.1 17.1 8.2 27.5 10.5h12.9" class="b"/><path d="M9.7 59.4h13.8c1.2.2 2.4-.8 3.4-1.4a64 64 0 0 1 18.9-7.6l5.1-.8 1.7-.3h1.8a12 12 0 0 1 4.2-.7c4.2 0 8.1 1.9 12 3q4.3 1.1 8.6.8 4.7-.4 8.6-2.8c1.8-1.2 3.4-2.8 5.2-3.8 8.8-4.7 17.5 10.2 30.9 8.5q4.3-.6 8.6-1Q137 52 141 50c7.8-1.4 13.5.5 19.8 5 2.6 1.8 5.4 3.8 8.6 4.3h12.8" class="b"/><path d="M9.7 54.8h14.6c5.6-2 11-4.8 16.3-7.5q4-2.3 8.6-2.9l3.4 1c1 .4 2.4.1 3.5.1q2.6 0 5.1.6 4.3 1 8.6 1.7 5.2.7 10.3-.4 4.2-1.1 7.7-3.4c1.8-1.3 3.4-3 5.2-4.1 8-4.7 14.5 8.8 25.7 10.3q4.4.5 8.6-.6c1.4-.2 3 0 4.3-.2q4-.5 7.7-1.8l5.2-1.6q5.8 0 11.1 2.1c4.2 1.7 7.8 4.8 12 6.3 2 .6 4.1.2 6 .3h8.6" class="b"/><path d="M9.7 50h14.6c6.3-1.1 12-4.2 17.2-7.8q2-1.6 4.3-2.7 1.7-.1 3.4.3c1.4.2 2.9 1 4.3 1.3q2.2.1 4.3.6 5.1 1 10.3 2 4.7.5 9.4-.1 5.7-.6 10.3-3.7c3.7-2.5 6.9-8 12-5.6 2.6 1.1 4.8 3.1 7 4.9 2.5 2.1 5.4 4.3 8.5 5.6 3.8 1.7 8 1.6 12 .9 2-.2 4 0 6-.3q5.7-.9 11.2-2.5l3.4-.8q4 .5 7.7 2c3.8 1.7 7.3 4.2 11.2 5.5 2 .7 4 .5 6 .5h9.5" class="b"/><path d="M9.7 45.4h14.6q6.9-1.1 12.9-4.8l5.2-3.7q4.6-1.5 9.4-.5c2.5.8 5.2.9 7.7 1.6Q67 40.1 75 40.4c5 .2 10.3-.3 14.6-3.2 2-1.5 3.8-3.5 6-4.7 5.7-3.8 10.8 1.5 15.4 4.5a21 21 0 0 0 16.3 4q9.2 0 18-2.2 3-.7 6-1.2 3.2.8 6 2.3c3.2 1.5 6.1 4 9.5 5 2 .7 4 .5 6 .5h9.5" class="b"/><path d="M9.7 40.8h14.6q8-1.5 14.6-6A33 33 0 0 1 50.1 33c7.2.8 14.2 3.3 21.4 3.9a39 39 0 0 0 15.5-.8c2.1-.6 4.1-2 6-3.1 4.2-2.6 8.8-4.5 13.7-2.7 4.6 1.5 9 4 13.8 4.9q3.4.4 6.8.2l4.3.3c5.5.2 11-.5 16.3-1.2 2.3-.3 4.6-.9 6.9-.9q2.6 1 5.1 2.6c2.8 1.5 5.5 3.6 8.6 4.4q6.9.2 13.8 0" class="b"/><path d="M9.7 36.1h14.6a46 46 0 0 0 9.5-3.3l1.7-1q1.6-.4 3.4-.6l6-.8c7.3-.7 14.4 1.6 21.5 2.6 6.8 1 13.8 1.3 20.6-.3q2.6-.6 5.1-1.9 5.5-1.6 11.2-2.4c5.5-.5 11 1 16.3 1.9q4.3.3 8.6.1 2.6.4 5.1.7c5.7.5 11.5.1 17.2-.3l6.9-.4c1.2 0 2.3.9 3.4 1.4 2.6 1.3 5 3.2 7.7 4.2 1.7.3 3.5 0 5.2.1h8.6" class="b"/><path d="M9.7 31.4h14.6q3.6-1 6.9-2.6 1.6-.7 3.4-.7 2.2 0 4.3-.4 8.6-.9 17.2.5a82 82 0 0 0 34.3-.3c2.2-.9 4.6-.5 6.9-.7q4.7-.4 9.4-.5 6-.2 12 .3l7.8-.3q2.6-.4 5.1.2l6.9.6q10.4.4 20.6 0c1.1-.1 2.5-.2 3.4.5l6 3.3c1.7.4 3.5 0 5.2.2h8.6" class="b"/><path d="M9.7 26.8h14.6c1.5-.3 3-1.3 4.3-1.9 2.5-.4 5.2-.1 7.7-.3q7.8-.3 15.5.2c7.7.6 15.4 1.4 23.2 1q8.6-.3 17.1-1.9c6.3.6 12.6.5 19 .6q6.8.4 13.7-.3 2.5-.1 5.1-.5 3.5.3 6.9.4 13.2.7 26.6.5c2.2-.4 4 1.8 6 2.2h12.9M9.7 22.1h14.6c2-.7 4-.4 6-.4h10.3c15.5 0 31 .9 46.4-.4l4.3-.4q3.8.1 7.7.4c6.9.1 13.7.6 20.6.5 15.2-.5 30.3 0 45.5 0l2.6-.1q1.2.4 2.6.4h12M9.7 17.5h172.6M9.7 12.8h172.6M9.7 8.1h172.6" class="b"/></svg>