<svg xmlns="http://www.w3.org/2000/svg" id="a" width="1920" height="2400" viewBox="0 0 192 240"><defs><style>.b{fill:none;stroke:#fff;stroke-miterlimit:10;stroke-width:.3px}</style></defs><path d="M0 0h192v240H0z" style="stroke-width:0"/><path d="M12.7 219.4q4 1.6 7.5 4.3c3.7 3 7.1 6.4 11.6 8.2 3.8.3 7.7 0 11.6 0q7 .2 14-.1 4.6-.2 9.2.2h22.3l3.4-1c10-3.6 17.2-6.5 28.1-3.4 5 1.3 10 3.2 15 4.3 1.6.3 3.3 0 5 .1h8.2c2.8-.2 5.5-1.1 8.3-1.3 4.7-.6 9.5.3 14.1 1.2 2.7.3 5.6 0 8.3.1" class="b"/><path d="M12.7 216c8.4 2.6 13.4 10.7 21.6 13.7 1.8.4 3.9.1 5.8.2h9c4 0 7.8-.6 11.7-.5q4.5.1 9 .5h17.5c3.4-.7 6.6-2 10-2.9 6.3-2 13.2-2.8 19.8-1.3 5.6 1.1 11 3.1 16.6 4.1q6.6.1 13.3.1c2.5-.2 5-1.1 7.4-1.6q6.7-1.3 13.3 0 3.8.9 7.4 1.6h4.2" class="b"/><path d="M12.7 213c7.6 2 12.6 8.3 19 12.2q2.7 1.6 5.9 2.6H50l5-.5q5.4-.6 10.7-.1c3.3.3 6.7.8 10 .6h10q2.4-.4 4.9-1.2a48 48 0 0 1 25.7-2.2q7 1.7 14 3.2c2 .4 4 .2 5.9.2h10c1.9-.2 3.8-1 5.7-1.4q8.7-2.7 17.4-.6l5.8 1.4q2 .6 4.2.6" class="b"/><path d="M12.7 210.7c7.5 1.3 12.9 7 19 11 3 1.8 6.4 3.6 10 4h6.6q4.5-.7 9.2-1 5.4-.4 10.7.3c3 .4 6.1 1 9.1.8q3.8 0 7.5-.2 6.2-1.5 12.4-2.9c10.8-2.2 20.2 1 30.7 3q6.2.1 12.4 0 3 .2 5.8 0 3-.8 5.8-1.8c10.5-3.6 17.2-1.4 27.4 1.5" class="b"/><path d="M12.7 208.9c5.4.5 9.7 3 14 6a45 45 0 0 0 19.2 8.8c2.7 0 5.5-.9 8.2-1.2a52 52 0 0 1 14.1 0l7.5 1.2c2.4-.1 5 .2 7.4-.2 4.2-.7 8.3-2 12.5-2.5q7.9-1.1 15.7.2l13.3 2.4q3.3.1 6.6 0h9.1c2 0 4 .3 5.8-.1 3.1-.8 6.1-2.1 9.2-3 8.5-2.5 15.8-.8 24 2" class="b"/><path d="M12.7 207.6q4.3 0 8.3 1.6c6 2.5 11.3 6.5 17.4 9q4.4 2 9.1 2.8c1.4.1 2.8-.4 4.1-.6q8.3-1.6 16.6-.3l9.1 1.5q4.2 0 8.3-1a64 64 0 0 1 29.9 0l5.8 1H142c1.6 0 3.4.2 5-.5 12.6-4.6 19-6.5 32.3-1.8" class="b"/><path d="M12.7 206.8q4.2-.2 8.3.7c6.3 1.8 12 5.4 18.2 7.7q3.7 1.5 7.5 2.4c1.6.4 3.3 1 5 .4q7.8-1.6 15.7-.5l6.6 1.2c1.6.3 3.4.8 5 .5 4.2-.3 8.3-1.3 12.4-1.8q6.7-.7 13.3.2 6.2.9 12.4 1.9h20.7q4.2.2 8.3-.1l6.7-2.3a36 36 0 0 1 26.5-1" class="b"/><path d="M12.7 206.4q4.1-.5 8.3 0c6.9 1 13.3 4.1 19.9 6.2q3.7 1.2 7.4 2.1c1.4.3 2.8.9 4.2.7 7.1-1.6 14.5-.8 21.5 1 3 .9 6.1.3 9.2 0 4.3-.5 8.8-1.2 13.2-1 5.6.3 11 1.3 16.6 2h33.2c2.8-.7 5.5-1.9 8.2-2.8 8.4-2.8 16.3-4.7 24.9-1.7" class="b"/><path d="M12.7 206.2q4-.4 8.3-.6c6.2.1 12.3 2 18.2 3.5a178 178 0 0 0 13.3 3.3c1.9.4 3.9-.3 5.8-.3a57 57 0 0 1 17.4 2.3c4.4.4 8.8-.3 13.2-.6 7-.6 13.9 1 20.8 1.5H147c2.8-.6 5.5-1.8 8.2-2.7 7.8-2.5 16-5.4 24-3" class="b"/><path d="M12.7 206.2q5-.7 10-1.2 7-.2 14 1.2 6.3 1.1 12.5 2.5c2.4.4 5 1.4 7.4 1.1a40 40 0 0 1 12.5.8l6.6 1.6 4.1.1c4.2 0 8.3-.5 12.5-.3 4.4 0 8.8 1 13.2 1.3h37.3q3 0 5.8-.2 2.6-.7 5-1.5c8.4-2.4 16.8-6.9 25.7-5.1" class="b"/><path d="M12.7 206.2c3.6-.4 7.2-1.3 10.8-1.7q7.5-.9 14.9-.1 9.2 1 18.2 3 3.4-.2 6.7 0c4.2.4 8.3 1.7 12.4 2.7l7.4.2q8-.3 15.8.7c3.5.4 7.2 0 10.8.2h35.6c1.6-.1 3.4.1 5-.2l7.4-2.2c7-2.1 14-6 21.6-5.4" class="b"/><path d="M12.7 206c4.5-.5 8.8-1.7 13.3-2.3q8.2-1.5 16.5-.9 7.5.7 15 2.2c2.1.2 4.4 0 6.6.4q4.5.7 9.1 2c5 1.5 10.5 1 15.8 1.2q3.2.1 6.6.5h5.8q6.2.2 12.4-.2 5-.2 10 .2h24q3 .2 5.8-.5 6-1.5 11.6-3.9c4.5-1.9 9.1-4 14.1-4.1" class="b"/><path d="M12.7 205.6c9.2-1.1 18-4.2 27.4-4.4 6-.3 12.2.6 18.2 1.8q5.5 0 10.8 1.3c2.7.6 5.5 1.6 8.2 2 10 1 20 .6 29.9.7q2.4 0 5-.4 3.2-.4 6.6-.4 4 .2 8.3.8h22.3q3.8.2 7.5-.7c7.9-1.7 14.4-7 22.4-8.4" class="b"/><path d="M12.7 204.8c10-.8 19.7-4.6 29.8-5q7.5-.3 15 1.2 4 0 8.3.7c5.2.8 10.3 3.2 15.7 3.2h24.9c5.4-1 11-2 16.5-1.2q3.4.4 6.7 1.2H152c2.1 0 4.5.3 6.6-.4 7.4-1.7 13.5-6.8 20.7-9" class="b"/><path d="M12.7 202.8q3.7.1 7.5 0c6.4-1 12.6-2.8 19-3.7q5.8-1 11.6-.5c2.5 0 5 .8 7.5.7 6.5 0 12.8 2 19 3.4 3 .3 6.2 0 9.2.1h12.4c2.2 0 4.5.3 6.6-.1a40 40 0 0 1 20-1.6l7.4 1.7h26.5c7.3-1.3 13.1-6.6 19.9-9.4" class="b"/><path d="M12.7 200.8c4.4-.2 8.9.2 13.3-.2 5.8-1 11.5-2.5 17.4-3q5.7-.6 11.6.2a45 45 0 0 1 8.3.2c4.4.6 8.8 1.8 13.2 2.7h25.7c2.3 0 4.5-1.1 6.6-1.7 7-2.3 13-2.5 20-.2l6.5 2H162c6.4-1.6 11.6-6.2 17.4-9.2" class="b"/><path d="M12.7 198.7h17.4c5-.8 10-1.9 15-2.2q3.7-.3 7.4 0 6.2-.7 12.4.3 5 .9 10 1.9h26.5c4-1.1 7.7-3 11.6-4 6.2-2 12.3-.8 18.2 1.6 2.4.8 4.9 2.1 7.5 2.4h24.8c2-.2 4-1.3 5.8-2.2q5-3.2 10-6.5" class="b"/><path d="M12.7 196.6h21.6c5.2-.5 10.4-1.4 15.7-1.3q9.6-1 19 .7c3.9.9 7.8.5 11.7.6h16.5c2.4.3 4.6-.7 6.7-1.6q4.5-2.1 9-3.9c6.8-2.5 13-.9 19.1 2.1q4 2 8.3 3.3 7.5.2 15 0H166c5-1.4 9-5 13.3-7.8" class="b"/><path d="M12.7 194.5h28.2l7.4-.3 6.7-.6q7-.2 14 .9h26.6q1.7.1 3.3-.4c5-1.7 9.2-4.8 14-6.7 6.8-2.9 13-1.2 19.1 2.1 3.5 1.9 7 3.9 10.8 5h24.9c4.3-1.2 8-4.4 11.6-7" class="b"/><path d="M12.7 192.4q23.3.1 46.4-.2 11.6.4 23.2.2h13.3c2.3-.2 4.5-1.6 6.6-2.6 3.6-2 7-4.5 10.8-6.2 6.3-3 12.3-1.8 18.2 1.7 4.6 2.5 9 5.7 14.1 7.1h10.8q7 .2 14 0c3.4-1.3 6.3-3.5 9.2-5.5" class="b"/><path d="M12.7 190.3h82.1c6.7-1.9 12-7 18.2-10.1 6.3-3.3 12.3-2.4 18.2 1.1 5.7 3.2 11 7.8 17.4 9h23.2c2.7-.6 5.2-2.4 7.5-4" class="b"/><path d="M12.7 188.3h81.2c7.2-2.2 12.6-7.8 19-11.3 6.7-3.7 12.8-3 19.1.9 6.5 3.7 12.4 9 20 10.4h22.3q2.6-.9 5-2.4" class="b"/><path d="M12.7 186.2H93c7.3-2.2 12.8-7.6 19.2-11.5 6.2-3.9 12.4-4.6 19-1 8.2 4.3 15.4 11.1 24.9 12.3 4.6.4 9.4 0 14 .2h5q2.3.2 4.2-1" class="b"/><path d="M12.7 184h55.5q12 .1 24 0c6.3-1.6 11.5-5.7 16.7-9.3 6.5-4.8 13.5-8.2 21.5-4.9 8.4 3.4 15.2 10.2 24 12.5l4.2 1.1q1.6.7 3.3.7h17.4" class="b"/><path d="M12.7 181.6q4 .6 8.3.4h70.4a32 32 0 0 0 10-4.2c9.1-5.6 18.2-14.8 29.8-10.7 6.2 2 11.6 6 17.4 9a50 50 0 0 0 8.3 3l5 2.1c2.3 1.1 5 .8 7.4.8h10" class="b"/><path d="M12.7 179c2 .2 3.9.8 5.8 1h63.8l9.1-.1q3-.7 5.8-1.9c11.2-4.7 20.8-16.4 34-13.6 6 1.2 11.2 4.5 16.6 7q2.9 1.5 5.8 2.5 3.5 1 6.6 2.7c2.2 1.1 4.3 2.6 6.7 3.1 1.5.4 3.3.1 5 .2h7.4" class="b"/><path d="M12.7 176.6q3 .4 5.8 1.2 5 .1 10 0h58.8c2.2 0 4.5.1 6.6-.6 12.9-3.2 22.7-15.3 36.5-15 6.1.3 11.8 2.9 17.4 5.2l5.8 2.2q2.6.7 5 1.9c2.5 1.4 5 3.2 7.4 4.6 1.3.7 2.7 1.6 4.2 1.7h9" class="b"/><path d="M12.7 174.2q3.4.6 6.6 1.5h72.1c6.2-.9 12-3.5 17.4-6.4 6.8-3.6 13.8-7.7 21.6-8.5 6.2-.6 12.4 1 18.2 3 3.3 1.1 6.9 1.6 10 3.3 3.2 1.8 6 4.3 9 6.3 1.6 1 3.3 2.1 5 2.4h6.7" class="b"/><path d="M12.7 171.9c3 .5 6 2 9.1 1.8h68.8c14.4-.6 26-10.8 39.8-13.8 7.1-1.7 14.5-.7 21.5.9q2.5.4 5 1.2c4.4 1.8 7.8 5.4 11.6 8.2 2 1.3 4.2 3 6.6 3.5h4.2" class="b"/><path d="m12.7 169.7 6.6 1.8q2.5.1 5 0h66.3c10.8.3 20.9-4.5 30.7-8.6a59 59 0 0 1 27.3-6c4 .4 8.3.3 11.6 2.7 5.3 3.1 13 12.6 19 12" class="b"/><path d="M12.7 167.6q3.3.9 6.6 1.9h73c10 .4 19.8-2.8 29-6.5 9-3.6 18.2-8 28.2-8.8 4-.3 8.1-.5 11.5 2 6.3 4.2 11.1 10.6 18.3 13.2" class="b"/><path d="m12.7 165.6 5.8 1.7q4.2.1 8.3.1h68.8c10 .5 19.8-1.8 29-5.5 7.8-3 15.2-7.1 23.2-9.4 3-.8 6-1.5 9.1-1.2q2.7.4 5 2c6.1 3.9 10.8 9.9 17.4 13" class="b"/><path d="m12.7 163.7 5 1.5c3 .3 6 0 9 .1H99q5.8.1 11.6 0 9-1.2 17.4-4.6c6-2.4 11.6-5.7 17.4-8.4a31 31 0 0 1 11.6-3.5c2 0 4 .9 5.8 1.9 6 3.6 10.6 9 16.6 12.4" class="b"/><path d="M12.7 162c1.6.4 3.3 1.1 5 1.3h31.5l9-.3q5.5 0 10.9.3h47.2A60 60 0 0 0 128 159q5-2.3 10-4.2 2-.7 4.1-1.2l5-2.9c3.5-1.9 7.4-4 11.6-3.8 7.6 1 14.2 9 20.7 12.8" class="b"/><path d="m12.7 160.2 3.3 1H46q5.7-.6 11.6-.8c5-.1 10 .5 14.9.8H108c2.2-.1 4.5.2 6.6-.2 4.4-1.1 8.5-3 12.5-4.9 4.2-2 8.6-4 13.2-5 2.2-.5 4.5-.4 6.7-.6l3.3-2c2.7-1.5 5.8-3 9.1-3 7.6.7 13.6 7.2 19.9 11" class="b"/><path d="M12.7 158.5c2.1.8 4.4.6 6.6.6H41q4.5-.6 9.1-.9 3.7-.4 7.5-.5c5.2 0 10.5.8 15.7 1.4h32.3q3.3.2 6.7-.1 5-1.5 10-3.8c7.6-3.6 15.9-8.3 24.8-6.6q1.2.3 2.5.3l2.5-1.6q2.6-1.7 5.8-2.4c8.1-1.6 15 4.6 21.5 8.6" class="b"/><path d="M12.7 156.7q1.6.5 3.3.3h20.8c3 0 6-1 9-1.3q5-.4 10-.7c5.9-.2 11.7 1 17.4 2h36.5q3-.7 5.8-1.8c11.8-5 21.4-12.8 34.8-7.2.9 0 1.8-.8 2.5-1.2q2.3-1.5 5-2.3c7.7-2.4 15 2.2 21.5 6" class="b"/><path d="M12.7 155h23.2c3.6-.9 7.1-2 10.8-2.4a34 34 0 0 1 5.8-.2q4.6-.5 9.1 0 6.3 1.1 12.4 2.5h34q3-.7 5.8-1.9c9.1-3.6 18-10.3 28.2-8.7 3.5.4 6.7 2 10 3.2 9.6-6.4 17.6-4.8 27.3.5" class="b"/><path d="M12.7 152.8c7 0 14.6.2 21.6 0 3.5-1 7-2.3 10.7-3q4.2-.7 8.3-.4 3.4-.3 6.6 0c4.8.7 9.4 2.3 14.1 3.4q4.5.1 9.2 0h23.2q2.4-.6 5-1.4c8.9-3.3 17.3-10 27.3-9 5 .3 9.6 2.7 14 4.8 9-5.3 17.1-5.8 26.6-1.5" class="b"/><path d="M12.7 150.8h12.4c2.5-.1 5 .2 7.5-.2 5-1.5 9.7-3.7 15-4.3q2.8-.2 5.7 0l5 .1c5.4.5 10.5 2.9 15.7 4.2 2.2.3 4.5 0 6.7.2h16.5q4.2 0 8.3-.1 2.2-.5 4.2-1.3c9.9-3.5 19.6-11 30.6-8q4.4 1 8.3 3c1.7.8 3.3 2 5 2.4 8.4-4.3 16.5-6.3 25.7-3.1" class="b"/><path d="M12.7 148.7h15.7q1.8.1 3.4-.4c4.9-1.7 9.6-4.3 14.9-5q3.2-.4 6.6 0 3.4-.2 6.6.4c5.2 1 9.9 3.8 15 5h27.3l5.8-1.1c5.2-1.5 9.9-4.3 15-6.2 9.9-4 17.3-1.9 26.4 2.9l4.2 2c1.4 0 2.8-1 4.1-1.4a35 35 0 0 1 21.6-3" class="b"/><path d="M12.7 146.6h14.9q1.3 0 2.5-.3c3.4-1.2 6.6-2.9 10-4.2a24 24 0 0 1 12.4-1.8q3.7-.4 7.4.5c5.2 1.3 9.8 4.3 15 5.8h24q2.1-.2 4.1-1 3.8-1.2 7.5-2.2 2-.4 4.1-.6l2.5-1c17-7.6 22-2.5 37.3 3.9 8-2.5 16.2-6.3 24.9-5.2" class="b"/><path d="M12.7 144.5h15c2.8-.4 5.5-2.2 8.2-3.3 3.9-2 8-3.8 12.4-3.9q2.2 0 4.2-.3 2.4-.3 5 .2c4.1.7 7.8 2.9 11.5 4.8 2.1 1 4.3 2.3 6.7 2.5h19.9q1.6.2 3.3-.3c7-2.5 13.8-7.2 21.5-5.5 12-4.3 19-.2 29.9 4.4l4.1 1.4c2.5 0 5-1.1 7.5-1.8 5.6-1.7 11.4-3.6 17.4-3.4" class="b"/><path d="M12.7 142.4h10c2.1 0 4.5.4 6.6-.6 4.7-2 9-5 14-6.3a20 20 0 0 1 5-.8q3.7-1.4 7.5-1c7.4.8 12.9 7 19.9 8.7h13.2q4.2.2 8.3-.1c10.6-4 17-12.8 29-6.2a36 36 0 0 1 18.3 3.8q3.6 1.6 7.4 2.5h5.8c2.9.2 5.6-1 8.3-1.6 4.4-1.2 8.8-2.4 13.3-2.6" class="b"/><path d="M12.7 140.4h9.1c2-.2 4 .2 5.8-.3 3.5-1.2 6.7-3.2 10-4.7q2.4-1.2 5-2c1-.4 2.3-.4 3.3-1 9.6-5.4 16 0 24 5.1q2.8 1.8 5.8 2.8h6.6q7.1.1 14.1 0c8.9-3.2 16.1-14.1 26.5-10.5 3.4 1.2 6.3 3.4 9.2 5.4 1.8.6 4 .8 5.8 1.5q4.5 1.6 9 3.1c2.2.8 4.5.5 6.7.5h10l9-2c2.3-.7 4.7-.6 6.7-1.8" class="b"/><path d="M12.7 138.3h10c1.9-.1 4 .3 5.7-.6q4.3-2 8.3-4c2-1 4.2-1.6 5.8-3 13-9.4 19-1 29.9 5.9q1.6.9 3.3 1.6h19.9c2.8-.6 5.2-2.5 7.5-4.1 6.5-5 13.6-12.5 22.3-7.7 4.9 2.5 8.7 6.7 13.3 9.7q3.2 1.2 6.6 2c2.4.4 5 0 7.5.2h14c4.6-.4 8.4-3.2 12.5-5" class="b"/><path d="M12.7 136.2h14q1.9-.4 3.4-1.1 2.5-1.1 5-2.5 4-3.2 8.3-6.3c11.5-8.4 18.2-.1 27.3 6.7a24 24 0 0 0 5.8 3.2h19.1c1.8-.2 3.5-1.5 5-2.4 7.5-5.2 15.4-16.8 25.7-10.9 6.3 3.3 12.4 11.7 19 13.3h14.1c2.5-.1 5 .2 7.5-.1 4.3-1.5 8.2-4 12.4-5.8" class="b"/><path d="M12.7 134.1h12.4q1.3 0 2.5-.3c5.5-2.2 9.6-6.7 14.1-10.2 10.6-8.8 16.9-4 25.7 3.9 2.6 2.1 7.3 6.5 10.8 6.6h16.5q1.3 0 2.5-.3c9.7-4 17.1-19.8 29-14.1 7.4 3.7 12.2 11.3 20 14.3q6 .2 12.4 0h4.1q1.7.2 3.3-.4c4.6-1.7 8.7-4.5 13.3-6.1" class="b"/><path d="M12.7 132H21q2.5.2 5-.2c12.6-4.8 20.6-25.3 35.6-12.6 5.5 4.3 9.9 10.5 16.6 12.8h17.4c2.5.3 4.7-1.5 6.6-2.9 7.1-5 14-16.3 24-12.2 7.9 3.5 12.7 11.6 20.8 14.9 1.8.5 3.9.1 5.8.2h9.1q1.3 0 2.5-.6 2.1-.8 4.1-1.8c3.5-1.8 7-3.8 10.8-5" class="b"/><path d="M12.7 130h7.5c1.6-.1 3.4.2 5-.5 6.2-2.5 10.7-8 15.7-12.4 6-5.4 12-8 19-2.5 6.7 4.7 11.3 12.4 19.1 15.3h19q3.3-1.4 5.9-3.6c6.2-4.8 12.5-14.3 21.5-12 9 2.9 14.2 12.5 23.2 15.6h11.6c2.4-.1 4.6-1.5 6.7-2.5 4-2 8-4.5 12.4-5.5" class="b"/><path d="M12.7 127.9h6.6c1.7-.1 3.5.2 5-.5 12.2-4.3 21-26.4 34.8-16.7 7.4 5 12.2 13.7 20.7 17.1h16.6c1 0 2.3.3 3.3-.2 8.5-3.9 14.9-16.3 24.9-15.5 9.4 1.2 17.4 15.3 26.5 15.8l8.3-.1c7-2.1 12.6-7.5 19.9-8.5" class="b"/><path d="M12.7 125.8h9.1q1.7-.4 3.3-1.2c5.2-2.5 9.2-7 13.3-11 5-5 11.7-11.1 19-7 9 4.9 13.7 15.2 23.3 19 3.2.4 6.6 0 10 .2h5.7c1.3-.1 2.9.2 4.2-.3 8.2-3.7 13.7-14.3 23.2-15 7.7 0 13.1 7.2 19 11.3a26 26 0 0 0 7.5 4h5c3.3.3 6.2-1.6 9-3 4.8-2.6 9.5-5.8 15-6.1" class="b"/><path d="M12.7 123.7h6.6q3 .2 5.8-1.3c4.9-2.4 8.7-6.5 12.5-10.3 4.9-4.9 11.4-11.9 19-8.7 9.9 4.5 14.7 16 24.9 20 1 .4 2.3.2 3.3.3h11.6c1.6 0 3.4.2 5-.2 7.9-3.5 12.7-12.4 21.5-14.2 7-1 12.3 4.5 17.4 8.3 3.3 2.5 6.8 5 10.8 6h4.1c1.4.2 3-.6 4.2-1.1q3.8-1.9 7.4-4.1c3.8-2.2 8-4.4 12.5-4.3" class="b"/><path d="M12.7 121.6H21q2.6-.5 5-1.8c4.7-2.6 8.5-6.7 12.4-10.5 4.7-4.7 11-11 18.2-8.4 3.6 1.2 6.5 3.9 9.1 6.5 4 4 7.8 8.4 12.5 11.6q2.3 1.6 5 2.5 2.3.1 5 .1h14c7.6-3.4 12.5-11.5 20.7-13.4 7.1-1.4 12.9 4.2 18.3 8 12 9 14.8 5.7 26.5-1.2a20 20 0 0 1 11.6-3.3" class="b"/><path d="M12.7 119.5q4.5.2 9.1 0c3.7-1 7-3.2 10-5.7 6.7-5.2 14.6-17.3 24-15.4 11.1 2.5 19.9 21.8 31.5 21.1h15.8c7-3 11.7-9.7 19-12 7.2-2.3 13.5 3 19 6.9q3.6 2.5 7.5 4.2 2.8 1.3 5.8.8c4.8-1.5 9-4.7 13.3-7.1a18 18 0 0 1 11.6-3" class="b"/><path d="M12.7 117.4h9.1q6-1.7 10.8-5.9c6.6-5.1 14-16.1 23.2-15 11 1.8 20 20.3 31.5 21h14.9q1.3 0 2.5-.3c6-2.7 10.4-8 16.6-10.3 7.5-3.2 14.6 2.4 20.7 6.3q2.8 1.8 5.8 3.1 2.4 1.2 5 1.1c2-.1 4-1.3 5.8-2.2 3-1.7 6-3.8 9-5.5 3.5-2 7.7-3.5 11.7-2.7" class="b"/><path d="M12.7 115.4h10q5-1.5 9-4.7C38.8 105.8 46 95.3 55 95c11.5.3 19.5 17 31.5 20.1 2 .5 4.4.1 6.6.2h11.6c6-1.9 10.6-7.2 16.6-9.3 7.5-3.1 14.5 1.8 20.7 5.5q2.8 1.7 5.8 3 2 1 4.1.8c5-.2 11.4-5.8 15.8-8 3.5-2.1 7.6-3.5 11.6-2.5" class="b"/><path d="M12.7 113.3H21q3.5.2 6.6-1.5c9.6-4.2 17.2-16.9 27.4-18 11.1-.6 19.8 15 30.6 18.6l2.5.9h17.4c2.1-.4 4-1.7 5.8-2.8 3-1.8 6-3.8 9.1-5.1 8-3.5 14.8.8 21.6 4.6 3.1 1.5 6.4 3.5 10 3.3 2 0 4-1.3 5.7-2.2 3.5-1.8 6.6-4.2 10-6.2s7.6-3.3 11.6-2.2" class="b"/><path d="M12.7 111.2H21c2 0 4 .1 5.8-.7 6-2.2 10.8-6.8 15.7-10.8 3.5-2.7 7.2-5.6 11.6-6.6 11.5-2.3 20.6 12.4 30.7 16.6l4.2 1.5h16.5c2.1.1 4-1.2 5.8-2q4-2.5 8.3-4.5c8.7-4 15.5.4 23.2 4.2q2.9 1.3 5.8 2.2 2 .2 4.2 0c5.5-1.6 10-5.4 14.9-8.3 3.4-2 7.6-3.4 11.6-2.3" class="b"/><path d="M12.7 109.1h9.1c1.6 0 3.4.2 5-.2 10.5-3 17-13.3 27.3-16.4 11.5-2.9 20.3 10 29.9 14.4q2.8 1.3 5.8 2.2h17.4c1.4-.1 2.8-1 4.1-1.5q3.8-2 7.5-3.7c9.5-4.3 16.2 0 24.8 3.7q2 .8 4.2 1.4 2.4.1 5 .1c5.5-1.4 10-5.4 14.9-8.2 3.4-2 7.6-3.5 11.6-2.4" class="b"/><path d="M12.7 107h10c1.8 0 4 .3 5.7-.2C38.2 104 44.7 95 54.2 92c10.7-3.2 19 6.5 27.4 11.3q4 2.2 8.3 3.7h14.9l6.6-1.1q3.8-1.7 7.5-3.2c8.7-3.6 15.1-.6 23.2 2.8q2.4 1 5 1.5h5c4.7.2 11.4-5.5 15.7-7.8 3.4-2.1 7.5-3.7 11.6-2.7" class="b"/><path d="M12.7 105h11.6c2.2-.2 4.5.3 6.6-.5 10-3.2 17.3-13.1 28.2-13.7C65 90.7 70.1 94 75 97c4.1 2.8 8.4 5.6 13.2 7.2q2 .9 4.2.7h9.1q2-.2 4.1-.7 5-1.2 10-1.7a25 25 0 0 1 17.4-1.8c4.4 1.2 8.7 3.5 13.2 4.2q4.2.2 8.3 0c8.6-2.5 15.4-12 24.9-10.4" class="b"/><path d="M12.7 102.9h12.4c2.5-.2 5.1.3 7.5-.5 9.3-2.8 16.5-11.1 26.5-12 6-.5 11.6 2.5 16.6 5.5 4.4 2.7 9 5.3 14 6.8 2.8.3 5.6 0 8.4.1 2 .1 3.9-.5 5.8-1q4-1 8.3-1.9 3.7-.7 7.4-.4 2.4-.6 5-.9 5-.3 10 1.3 4.5 1.5 9 2.8c1.7.3 3.4 0 5 .1h5.8c1.1 0 2.3-.6 3.4-1 7.1-3 13.2-10.2 21.5-9.2" class="b"/><path d="M12.7 100.8H31q1.6.1 3.2-.4c9.2-2.6 16.7-10.2 26.6-10.6 7.6-.2 14.1 4.4 20.7 7.6a56 56 0 0 0 8.3 3.3H93q2.5.2 5 0 5-1.3 10-2.8a29 29 0 0 1 16.5-.7c3.6-.3 7.3.5 10.8 1.5q3.7 1.2 7.4 2h13.3l4.1-1.7c6.2-3 11.8-8.7 19-8.4" class="b"/><path d="M12.7 98.7h22.4c9.6-2.3 17.8-10 28.2-9.4 9.2.6 16.8 7 25.7 9.2 2.1.4 4.4.1 6.6.2 7-1.1 13.5-5.1 20.7-5.6 4.6-.4 9 1 13.3 2.8q4.5.8 9 2.1c3.6 1.1 7.1.6 10.9.7h7.4l2.5-.8c6.7-2.8 12.3-9 19.9-9.2" class="b"/><path d="M12.7 96.6h22.4c3.5.2 6.7-1.5 10-2.7 7.7-3.3 15.4-6.7 24-4.3 6.8 1.6 13 5.5 19.9 7h5.8l3.3-.9c7.6-2.3 15-7.2 23.2-5.7q4.8 1 9.1 3.3c1.9.8 3.8 2 5.8 2.4q2 .6 4.2 1h5.7q6.3 0 12.5-.2c7.3-2.2 12.9-8.9 20.7-9.8" class="b"/><path d="M12.7 94.5h26.5q2.1-.4 4.2-1c11.3-4 18.5-7.6 30.6-3.5 4.7 1.5 9.3 3.7 14.1 4.5H94c10.4-2.2 19.5-11.2 30.7-7 4.6 1.7 8.7 4.6 13.3 6.4q1.6.8 3.3.6h18.2c7.2-2 12.5-8.4 19.9-9.7" class="b"/><path d="M12.7 92.4h29c5-1 9.9-3 15-4.1q8.2-1.8 16.5.4l9.1 2.7c1.9.6 3.9 1.2 5.8 1h5c4.4-1 8.5-3 12.4-5 7.8-4.2 14.2-6 22.4-1.7 4.2 2.1 8 5 12.4 6.6 6.6.3 13.3 0 20 .1 2-.2 4-1.5 5.7-2.4 4.4-2.5 8.4-6 13.3-7.3" class="b"/><path d="m12.7 90.4 31.5-.1c4.4-1 8.8-2.3 13.2-3q7.9-1.4 15.8.3L84 90.3q3.2.2 6.6 0c6.6.2 13.3-5 19-7.7 7.1-3.7 13.2-3.3 20 .9 3.8 2.2 7.4 5 11.5 6.6 1 .4 2.3.2 3.4.2H161c.8.2 1.8-.3 2.5-.6q2.2-1 4.2-2.2c3.8-2.4 7.3-5.3 11.6-6.9" class="b"/><path d="M12.7 88.3H45q2.6-.2 5-.8 4-.8 8.3-1.5 7.5-1 14.9.4l9.1 1.9h10.8c6.7-1.7 12.1-6.1 18.2-9.1 7.3-3.7 13.4-2.1 20 2.2 3.7 2.4 7.3 5.3 11.5 6.8H161c2.8.3 5.2-1.5 7.5-2.8 3.6-2.3 6.9-5.1 10.8-7" class="b"/><path d="M12.7 86.2h19.9c4.4 0 8.9.2 13.3-.4q3.2-.3 6.6-.2 2.4-.5 5-.7 7.9-1 15.7.2 3.3.6 6.6 1h13.3c4.5-.8 8.6-3.4 12.4-5.8 4.8-3 10-6.4 15.8-5.9 6.4.7 11.3 5.4 16.6 8.7q2.6 1.9 5.8 3h14.9c1.9 0 4 .4 5.8-.2 5.5-2.2 9.7-6.8 14.9-9.6" class="b"/><path d="M12.7 84.1h24.9c3.8-.5 7.7-1.5 11.6-1.6 3.3-.2 6.6.4 10 .8a66 66 0 0 1 11.5.1l5.8.7H94c4.2-.9 8-3.3 11.6-5.6 4.8-3.1 9.8-6.8 15.8-6.5 7 .5 12.4 6 18.2 9.6q2.3 1.6 5 2.5h19.9c5.6-2.2 9.8-7 14.9-10.1" class="b"/><path d="M12.7 82h22.4q4.5-1.2 9.1-2.1a37 37 0 0 1 17.4 1q2.9.8 5.8.8c5.8.5 11.6.3 17.4.3h10.8c3.5-1 6.8-3 10-5 5-3.3 10.2-7.4 16.5-7 7.1.7 12.4 6.2 18.2 9.7 1.6.9 3.3 2 5 2.3h18.2c4.7.1 11.7-7.7 15.8-10.4" class="b"/><path d="M12.7 80h19.9c3.9-1 7.7-2.6 11.6-3.4q6.2-1.5 12.4 0c4 .8 7.7 2.3 11.6 3.3q13.7.2 27.4 0c2.6 0 5.1-1.5 7.4-2.7 5.9-3.3 11.3-8.4 18.3-8.8 6.7-.2 12 4.6 17.4 8q1.9 1.4 4.1 2.5c1 .4 2.2 1.1 3.3 1h19.1q2.2-1 4.1-2.4c3.5-2.5 6.6-5.8 10-8.5" class="b"/><path d="M12.7 77.9h15.7q1.6 0 3.4-.3C36 76.3 40 74.3 44.2 73s9-1.2 13.2 0c4.3 1.2 8.3 3.2 12.5 4.5 1.8.5 3.9.1 5.8.2h10q6.5.2 13.2 0c7.7-2.4 13.5-9.2 21.5-10.5 8.7-1.2 15.2 6 22.4 9.5.7.4 1.8.8 2.5 1h19.9q2.3-1 4.1-2.5c3.6-2.7 6.6-6 10-9" class="b"/><path d="M12.7 75.8h15.8c3.4-.6 6.7-2.5 9.9-4 7.4-3.6 13.8-4.8 21.6-1.5 4.1 1.6 8 3.9 12.4 5.2 1.5.5 3.3.2 5 .3h21.5q3.8-1 7.5-2.5c4-2.2 8-5 12.4-6.3 6.5-2 12.8 1.4 18.2 4.8 2.6 1.5 5.3 3.3 8.3 4h17.4c5.3.7 12.6-9 16.6-12.4" class="b"/><path d="M12.7 73.7c5-.1 10 .2 15-.1 7.6-2.3 14-8.2 22.3-8.7 8.5-.4 15.5 5.6 23.2 8.2q2.4.8 5 .6h5c4.9-.1 10 .2 14.9-.1 6-1.7 11.3-5 17.4-6.3 1.6-.2 3.3-1 5-1.3 4.8-1 9.8.7 14 3 3.3 1.7 6.5 3.6 10 4.7h19c5.2-.4 12-9.6 15.8-13.2" class="b"/><path d="M12.7 71.6q6.7.1 13.3 0 3.4-1.1 6.6-2.8c7.2-3.8 14.7-8.8 23.2-6.2 5.3 1.4 10 4.6 15 6.9 2 .8 4.3 2 6.6 2.1h19c5.4-1.4 10.4-4.3 15.8-6q6.1-2 12.4-.7 4.3.5 8.3 2.1c3.6 1.5 7 3.5 10.7 4.6h20c5.5-1 11.7-9.9 15.7-14" class="b"/><path d="M12.7 69.5h11.6q5.2-1.7 10-4.4c15.9-9.3 20.4-6.5 35.6 1.6q3.5 1.9 7.4 2.8h17.4c5.5-1.1 10.5-3.9 15.8-5.6a28 28 0 0 1 20.7 1.2c3.8 1.5 7.6 3.2 11.6 4.3 2.4.3 5 0 7.5.1h13.2c6-1.5 11.6-10 15.8-14.6" class="b"/><path d="M12.7 67.4h10c10.6-2.6 19.8-12.6 31.4-9.8 8.5 1.8 17.5 10 25.7 9.8h13.3c10.2-1.8 18.8-8.4 29.8-6.2 7 1.1 13.1 4.7 20 6.2h14c2.4 0 5 .3 7.5-.2 6.4-3 10.4-9.6 14.9-14.9" class="b"/><path d="M12.7 65.4H21c9-2 16.4-8.6 25.7-9.8 11.2-1.3 20 7.6 30.7 9.7h9.9c2.5 0 5 .2 7.5-.5 8.4-2.1 16.7-6.2 25.6-5.2 7 .7 13.3 3.8 20 5.4 1.8.5 3.8.3 5.7.3h15c1 0 2.3.2 3.3-.2 6.5-3.2 10.5-9.8 14.9-15.3" class="b"/><path d="M12.7 63.3h6.6c6.4-1.4 12.2-4.6 18.3-7 15.8-6.5 23.9 3.2 38 6.8q1.8.3 3.4.2h5.8c2.8 0 5.6.2 8.3-.5 8.5-1.7 16.9-5 25.7-4.3 6.8.5 13.2 3 19.9 4.4 2.4.6 5 .3 7.4.4H162c1 0 2.4 0 3.3-.7 6.1-3.4 10-9.7 14.1-15" class="b"/><path d="M12.7 61.2c8.2.6 15.6-3.6 23.2-6.1 16.3-6 24.2 2.8 39 6h9c2.5 0 5.1.2 7.5-.3 8.8-1.5 17.6-4 26.6-3.2 6.4.5 12.7 2.4 19 3.5 8 .3 16 0 24 .1h2.5a9 9 0 0 0 2.5-1c5.7-3.6 9.4-9.5 13.3-14.7" class="b"/><path d="M12.7 59.1c3 .2 6.2-.6 9.1-1.4 5.8-1.6 11.5-4 17.4-5 6.7-1.3 13.6 0 20 2.3l9 3c1.9.5 3.9 1.2 5.8 1.1 4.7-.1 9.5.2 14.1-.2 10-1.2 19.9-3.3 29.9-2 5.2.4 10.5 1.5 15.7 2.2h22.4c2.7-.1 5.6.3 8.3-.2 6.7-3 10.7-9.6 14.9-15.3" class="b"/><path d="M12.7 57c7-.5 13.8-3.2 20.7-4.6A41 41 0 0 1 50 52q7.1 1.5 14 3.7 3 .8 5.9 1.3H84q7-.7 14-1.3 11.3-1 22.5.5l6.6.8h27.3q5 .1 10 0c6.7-2.9 10.8-9.5 14.9-15.1" class="b"/><path d="M12.7 54.8C19.4 54 25.9 52 32.6 51q8-1.2 15.7.2c5.9 1 11.6 2.7 17.4 3.7q4.5.1 9.2 0c3.3 0 6.6.2 10-.3a176 176 0 0 1 33.9.3h43.9c6.5.2 13.1-9.7 16.6-14.5" class="b"/><path d="M12.7 52.5c4.7-.6 9.4-1.7 14-2.3q7.5-1.2 15-.5c6.4.5 12.7 2 19 3 6.1.3 12.2 0 18.3.2q15-1.5 29.8 0h53.9c6.6.4 13-9 16.6-13.7" class="b"/><path d="M12.7 50.3c6.6-.8 13.2-2.2 19.9-2 7.2-.1 14.4 1.3 21.5 2.3 2.5.4 5 .1 7.5.2h13.3c5.2-.1 10.5-1 15.7-.7q5.4.2 10.8.7h62.1c6.2.2 12.4-8.3 15.8-12.7" class="b"/><path d="M12.7 48c6-.5 12.1-1.5 18.2-1.2 6.4.2 12.7 1.5 19 1.9h23.3c5.8-.3 11.6-1 17.4-.5s11.6.5 17.4.5h56.4c5.7 0 11.5-7.3 14.9-11.5" class="b"/><path d="M12.7 46c5.5-.4 11-1 16.6-.6 5.8.2 11.6 1.5 17.4 1.2h24c6.3-.3 12.7-1 19-.3 5.3.6 10.6.2 15.8.3h53.1q4 .2 8.3-.1c5.1-1.8 9-6 12.4-10.2" class="b"/><path d="M12.7 44c4.7-.2 9.4-.7 14-.3l9.2.8H69c6.4-.4 12.8-.9 19.1-.2 5.2.5 10.5.1 15.8.2h53c3.6 0 7.3.3 10.8-.1 4.7-1.6 8.4-5.2 11.6-8.8" class="b"/><path d="M12.7 42q4.5-.1 9.1-.1c3 0 6.1.5 9.1.5h36.5q5.4-.4 10.8-.5 5 0 10 .5h72q4.2.2 8.3 0c4.2-1.4 7.7-4.4 10.8-7.5" class="b"/><path d="M12.7 40.2q6.2-.1 12.4.2h20c9.3 0 18.7.2 28.1-.5q6.7-.2 13.3.5H118a63 63 0 0 1 21.5-.7l4.1.6h25.8c3.7-1 7-3.5 9.9-6.1" class="b"/><path d="M12.7 38.3h50.6c4.6-.1 9.4-.6 14-.4q11.6.6 23.3.4H113q4-1.1 8.3-2.1 7.5-1.7 14.9-.3l7.5 1.7q2 .6 4.1.7h22.4c3.4-.7 6.4-2.8 9.1-4.9" class="b"/><path d="M12.7 36.2h48c5.3 0 10.6-.5 15.8-.3 10.5.6 21 .2 31.5.3 2 0 4-1 5.8-1.6q4.5-2 9.1-3c6.2-1.5 12.5.2 18.3 2.4q3.6 1.3 7.4 2.2h23.2q4-1.2 7.5-3.7" class="b"/><path d="M12.7 34.1h41.4q4.2-.5 8.3-.8 7.1-.4 14.1.6c2.5.4 5 .2 7.5.2h19.9q1.6.1 3.3-.3c4.5-1.7 8.7-4.5 13.2-6.1 5.2-2 10.9-1.4 15.8.9 4.4 1.8 8.6 4.3 13.3 5.5h23.2c2.3-.2 4.5-1.5 6.6-2.5" class="b"/><path d="M12.7 32h36.5l9-1.4q8.4-.9 16.7.6l5 .8h22.3c2.1.3 4-1 5.8-2q4.5-2.7 9.1-5.6a17 17 0 0 1 17.4-.4c5.3 2.5 10 6.7 15.8 8h23.2l5.8-2" class="b"/><path d="M12.7 30h29.8q3 0 5.8-.7l7.5-1.5q7.9-1.3 15.8.3 4.5 1 9 1.8h20c4.2.3 11.1-6.7 14.9-9.1 5.6-4.1 11.2-5.4 17.4-1.7C138.2 22 145.3 29.4 151 30h21.6q3.3-1 6.6-2.3" class="b"/><path d="m12.7 27.9 29.8-.1c4.2-.9 8.3-2.2 12.5-3q6.6-1.1 13.2.2c4 .7 7.8 2 11.6 2.7 6.4.4 12.8 0 19 .2 7.5-.1 16-15 25-15.6 6.3-.5 11.2 4.7 15.7 8.4 3.3 2.8 6.6 5.8 10.8 7.2h21.5l7.5-2.7" class="b"/><path d="M12.7 25.8h27.4c4.4-1 8.7-2.7 13.2-3.6q6.7-1.4 13.3 0c4.4 1 8.8 2.6 13.2 3.6h18.3c8-1 15.7-16.7 24.8-17.7 6.6-.7 11.4 5.1 15.8 9.2 3.4 3.3 6.9 7.2 11.6 8.5H171q4.2-1.4 8.3-3.1" class="b"/></svg>