<svg xmlns="http://www.w3.org/2000/svg" id="a" width="1920" height="2400" viewBox="0 0 192 240"><defs><style>.b{fill:none;stroke:#fff;stroke-miterlimit:10;stroke-width:.3px}</style></defs><path d="M0 0h192v240H0z" style="stroke-width:0"/><path d="M16.2 231.8H40c4.8-.4 10.2-4 14.3-6.6 12.6-8.4 19.3-10 31.8-.1 7-4.7 11.8-12 18.2-17.5 6.8-5.8 12.5-4.4 18.3 1.8 4.9 5.2 8.7 11.4 13.5 16.6 6.4 1.9 12.4 5.1 19 5.8h7.2q2.5.2 4.8-.2 4.4-1.5 8.7-3.2" class="b"/><path d="M16.2 229.8h22.2c6-1 11-4.8 16-8 12-8.7 19-9.9 30.9 0h.8c4.2-3 7.7-7 11-10.9 4.4-4.6 9.7-12 16.8-11.3 8.7 1.4 16.2 17 22.2 23.5.4.4 1.1 1.2 1.6 1.5l2.4.9 5.5 2.1q4 1.5 8 2.2H167q4.4-1.4 8.7-2.9" class="b"/><path d="M16.2 227.8h20.6c7-1.4 12.6-6.1 18.3-10.1 12-8.9 19-7.8 30.2 1.7 9-5.6 16.3-20.9 25.4-23.6 9.4-2.6 17.4 13.8 22.2 20 2 2.6 3.8 5.7 6.4 7.6l5.5 2.2q3.5 1.4 7.2 2.1c2.6.3 5.3 0 8 .1h7.9q4-1.3 8-2.5" class="b"/><path d="M16.2 225.8h12.7c2.6-.1 5.4.4 8-.4 12-3.2 21.9-18.6 34-16.5 3.6.6 6.8 2.5 9.6 4.6l3.2 2.5q.7.6 1.6.9c4.6-3.5 8.4-8 11.9-12.4 4.7-5.4 11.5-16 19.9-11.6 4 2.3 6.8 6.4 9.5 10.1 4.4 6.3 8 13.3 13.5 18.9 1.6 1.1 3.7 1.6 5.5 2.4 2.3.7 4.7 1.7 7.2 1.5h11.1c2.1 0 4.4.2 6.4-.5q1.6-.5 3.1-1 1.4-1 2.4-2" class="b"/><path d="M16.2 223.8h11.1c2.4 0 4.9.3 7.2-.3 7.6-1.9 13.6-7.4 19.8-12 12.3-9.1 19.5-5.9 30.2 3.4.9-.2 1.7-1.1 2.4-1.6q2.5-2.1 4.7-4.5c5-5.4 9-11.8 14.3-16.7 9-8.2 15.6 0 20.7 7.6 4.4 6.5 8.1 13.7 13.5 19.6q1 1.2 2.4 2.2a46 46 0 0 0 6.3 2.1c1.8.5 3.8.1 5.6.2h8.7c2 0 4.3.3 6.4-.2 2.4-.8 4.5-2.9 6.3-4.7" class="b"/><path d="M16.2 221.8h10.3c2.4 0 4.9.3 7.2-.5 8-2.2 14-8.1 20.6-12.8 12.5-9 19.8-3.8 30.2 5q2.4-2 4.8-4 3-3 5.5-6.2c4.1-5 7.7-10.6 12.7-14.8 7.3-6 13.1-.3 17.5 5.9 4 5.5 7.3 11.6 11.1 17.2 2.4 3.4 5.1 7 8.8 9.2l3.1 1h19.1c3 0 6.8-4.4 8.7-6.5" class="b"/><path d="M16.2 219.8h13.5c4.3-.6 8.3-2.5 11.9-4.8 9.3-6 19-17.7 31-11.3q4.2 2.3 8 5.4c1.2.9 2.4 2.4 3.9 2.8l4-3.1q3-2.8 5.5-5.8c4.5-5.4 8.2-11.5 13.5-16.2 8.1-7.2 14.4.2 19 7 4.2 6 7.6 12.6 12 18.4 2.3 3 5 6.1 8.7 7.6h17.5l2.4-.1 2.3-1.5c2.5-1.8 4.5-4.3 6.4-6.7" class="b"/><path d="M16.2 217.8H28a27 27 0 0 0 8-2.3c6.3-3 11.5-8 17.4-11.7 12.5-8.3 20.4-.8 30.2 7h.8l4-3q3-2.5 5.5-5.6c4.8-5.6 8.7-12.2 14.3-17.1q7-5.9 13.5.5c4.2 4.2 7.2 9.5 10.3 14.5 3.4 5.2 10 17.4 16.7 17.8h13.5c1.6-.1 3.4.3 4.8-.8 3.6-2.4 6.2-6 8.7-9.5" class="b"/><path d="M16.2 215.8h11.1c10-1.2 17.3-8.7 25.4-13.8 12.9-8.1 21 .5 31 8.1 8.4-3.9 13.4-12.5 19-19.5 3.5-4 7.6-9.9 13.5-9.5 8 1 14.7 15.5 19.1 21.7 3.4 5 6.9 10.8 12.7 13h8q4.4.2 8.7 0c5-2.6 8-7.7 11.1-12.2" class="b"/><path d="M16.2 213.8h10.3c6.2-.8 11.7-3.9 16.7-7.4 5.7-4 11.7-9.1 19-8.9 8.6.6 14.7 7.5 21.5 12 8.4-3.6 13.6-11.8 19-18.7 3.3-4 6.7-9 12-10.3 8.5-1.8 15.6 13 19.8 19 3.7 5.4 7.3 11.7 13.5 14.3h12.7q1.6.2 3.2-.2c5.4-3 8.6-8.9 12-14" class="b"/><path d="M16.2 211.9h8q3.1 0 6.3-1c4.9-1.4 9.3-4.3 13.5-7.1 5.8-4 12.5-8.7 19.8-7 7.7 2 13.3 8 19.9 12 8-2.8 13.2-10 18.3-16.6 14.4-19.8 20.3-13.4 31.7 4.2 4 5.7 7.7 12.5 14.3 15.4h12c1 0 2.2.2 3.1-.2 6-3.6 9.1-10.2 12.7-15.8" class="b"/><path d="M16.2 209.9h7.1q2.9.1 5.6-.6c5.2-1.1 9.9-4 14.3-6.8 6-4 13.1-8.5 20.6-6.2s13 8.2 19.9 11.7c8-1.9 13.4-9 18.3-15 12.1-16.1 18.1-18.5 30.1-.6 4.5 6 8.3 13.4 15.1 17 1 .6 2.2.4 3.2.4h8.8c1 0 2.2.2 3.1-.3 6.3-3.8 9.7-11.3 13.5-17.4" class="b"/><path d="m16.2 207.9 11.1-.1q4.6-.8 8.8-2.9c7-3.3 13.3-9.2 21.4-9.9 8.3-.5 14.7 5.6 21.4 9.5q2 1.2 4 2.1 1.2.7 2.4.2 2.5-.7 4.8-1.9c10.2-5 18-23.8 27.7-24.8 8.2-.5 15.2 13 19.9 18.7 2.8 3.5 6 7.5 10.3 9h12.7c6.7-2.6 11.4-13.2 15.1-19.1" class="b"/><path d="M16.2 205.9h8c2.4 0 4.7 0 7-.8 9.3-2.4 16.5-10.3 26.3-10.7 7.9-.1 14 5.4 20.6 9 2 1 4.2 2.2 6.4 2.5q2-.3 4-1c12-3.7 18-20.8 28.5-24.2 6.7-1.6 11.4 5 15.1 9.4 4.6 5.5 8.5 12.4 15.1 15.6 2.6.4 5.4 0 8 .2q2.8 0 5.5-.2a14 14 0 0 0 3.2-2.2c5.2-5 8.3-11.8 12-17.9" class="b"/><path d="M16.2 203.9h13.5q3.7-.9 7.1-2.4 2.9-1.5 5.6-3 2.3-1.2 4.8-2 3.4-1.7 7.1-2.4c8.3-1.5 15.3 4 22.3 7.6q2.6 1.3 5.5 2.2c2.4-.1 4.8.2 7.2-.2 12.2-3 18-19.4 28.6-22.6 6-1.4 10.7 4 14.2 8.2 4.7 5.1 8.6 11.7 15.1 14.6h8c4.4-.1 5.2.7 8.7-2.7 5.1-5.2 8.2-12 12-18.2" class="b"/><path d="M16.2 201.9h15c3.6-1.3 6.5-3.7 9.6-5.7 4.5-3.2 9.7-5.3 15.1-2.9 7-.3 13 3.7 19 6.6l4.8 2h11.9q3.5-1 6.4-3.2c6.8-4.8 12-14.2 19.8-17 6.3-1.9 11.3 3.6 15.1 7.8 4.2 4.4 7.9 9.7 13.5 12.3q5.6.2 11.2 0h2.3a14 14 0 0 0 4.8-3.5c4.6-5.2 7.6-11.5 11.1-17.4" class="b"/><path d="M16.2 199.9h14.3c7.2-2.8 11.9-10.7 19.8-11.7 4.9-.5 9 2.7 12.7 5.5q2 .8 4 1.5 4 1.9 8 3.6 1.5.7 3.1 1H94c8.9-2.4 13.8-11.9 21.5-16.4 6-3.8 11.3-.6 15.8 3.8s8.5 9.8 14.3 12.5c3.1.4 6.4 0 9.6.2h4.7a10 10 0 0 0 4-2.6c5-5.1 8.2-11.9 11.9-18" class="b"/><path d="M16.2 197.9h13.5c8.6-3.5 15-17 25.4-13.5 4.3 1.6 7.7 5 11.1 8l4 3.1 3.2 1.3q1.5.7 3.1 1h18.3c5 .7 12.5-8.8 16.7-11.8q4.6-3.8 10.3-4c2.6.2 5 1.5 7.2 3 5.5 3.9 9.6 9.9 15.9 12.8 2.8.3 5.8 0 8.7 0h4.8c1 0 2.3.3 3.1-.3 6.6-4.1 10.2-12.8 14.3-19.1" class="b"/><path d="M16.2 195.9H28c6-1.7 11.9-10.8 17.5-14.3 11-7.8 18.8 7.1 27 12.3q1.8 1.3 4 2H94c5 .6 12-8.7 15.8-12 6-5.8 11.5-7.3 18.3-1.4 5 4 10.3 12 16.6 13.4h14.3c1 0 2.3.2 3.2-.4 6.2-4 9.5-11.5 13.5-17.5" class="b"/><path d="M16.2 193.9h11.1c5.3-1.7 9.7-8 13.5-11.9 14.2-16 20.6-.8 31.8 8.5 2 1.5 4.4 3.5 7.1 3.4h15.1q1.7-.6 3.2-1.7c4-2.7 7-6.5 10.3-9.9 6.3-6.7 12.1-10 19.9-3 5.6 4.7 9.7 11.6 16.7 14.6h13.5q2 .2 4-.4c2.6-.8 4.6-3.1 6.3-5.3q3.8-5.2 7.1-10.7" class="b"/><path d="M16.2 191.9q5.6.1 11.1-.1c4.3-2 7.3-5.8 10.3-9.3 4.2-4.5 9-12 16-11.7 7.2.8 13 10.4 18.2 15.2 2.5 2.4 5.4 4.7 8.7 5.8q3.2.1 6.4.1H94q3.6-1.7 6.4-4.4c7.3-6.4 15.2-21.1 26.2-12.1 6.4 5 10.6 12.9 18.2 16.4 3 .3 5.9 0 8.8.1h4c1 0 2.2.2 3.1-.3q3.8-1.6 7.2-3.8c3-3.4 5.4-7.4 8-11" class="b"/><path d="M16.2 189.9h7.1c3.1 0 3.8.2 6.4-1.7 7.7-5.7 11.5-15.5 19.8-20.4 8.1-4.1 14.3 5.1 19.1 10.3 4.1 4.7 10 11.8 16.7 11.8h7.1q2.1-.8 4-2c4.8-3.5 8.5-8.4 12.7-12.4 5-5 10.5-7.6 16.7-2.7 6.4 4.8 10.5 12.2 17.5 16.2 1.6 1.2 3.7.9 5.5.9h8.8c1.3.1 2.7-.6 4-1.2l4.7-2.8 4-2.8c2-2.2 3.7-5 5.5-7.5" class="b"/><path d="M16.2 187.9h10.3l2.4-1.2c6-4.2 9.7-10.7 14.3-16.1 5.6-6.9 11.5-11 19-4 7.5 6.7 12.4 17 22.3 20.5 2.8 1 6 1.3 8.7-.2 5-2.7 8.8-7.2 12.7-11.1 5-5.1 11.2-10.4 18.3-5.5 7.1 4.7 11.4 12.9 19 17q1.6.7 3.2.6h9.6q1.6 0 3.1-.6c3.5-1.6 6.6-4 9.6-6.2q2.4-1.7 4.7-3.6l2.4-3.2" class="b"/><path d="M16.2 185.9h10.3c6.5-2.5 11-10.1 15.1-15.4 13.7-19 19.8-10.4 31.8 3.8A29 29 0 0 0 90 185.4c9.9-3.4 15.8-15.8 25.4-18.3 10.1-2 17.8 13.3 26.2 17.7q1.1.7 2.4 1.1h9.5q1.6.1 3.2-.1 2.9-1.1 5.5-3c4.7-3.1 8.7-7.3 13.5-10.1" class="b"/><path d="M16.2 184c3.7-.2 7.5.1 11.1-.2 6.8-3.3 10.7-10.3 15.1-16 12.8-18 18.8-13 31 1.8 3.2 3.8 6.7 7.7 11 10.2q2.9 1.4 5.7 2.6c9-3 17-17.1 27-16.5 8.8 1 14.9 11.6 22.2 16.1q1.8 1.4 4 1.9h11.9q3-1 5.5-2.7c5.4-3.6 9.7-8.6 15.1-12.1" class="b"/><path d="M16.2 182h11.1c6.9-2.7 11.6-11 15.9-16.6 13-18.4 19-14 31.8 1.3 3 3.5 6.3 7 10.3 9.5l3.2 1.7q1 .8 2.3 1.2c13.8-7.4 20.7-22.5 36.6-7.8 4.5 3.8 8.6 8.6 14.3 10.6h11c8.3-.6 16.4-11.8 23.1-16.3" class="b"/><path d="M16.2 180H28c7.1-3 11.4-10.7 15.9-16.6 11-15.6 17.2-17.5 30.2-2.3 3 3.4 6 7 9.5 9.8 2.2 1.8 4.9 3.1 7.1 4.8 4.9-2.1 9-5.9 13.5-8.4 11.8-7.2 19 .8 27.8 8q2.7 2 5.6 3.6c1 .5 2 1.2 3.2 1h8c1.5 0 3.2.3 4.7-.2 9.2-3 14.8-11.6 22.2-17.4" class="b"/><path d="M16.2 178h8.7c4 0 4.6.2 8-2.3 9-6.3 17.7-28.3 28.6-27.4 6.6.8 11.4 7.4 15.8 12q3.4 3.7 7.2 7 3.1 2.3 6.3 4.8l.8.1c9.6-5 17.7-12.2 28.6-5.7 5.6 3.1 10.1 7.8 15.9 10.6q1.1.6 2.4.8h7.9c2.1 0 4.4.3 6.4-.3 9.7-3 15.5-12 23-18.3" class="b"/><path d="M16.2 176h13.5q1.6-.6 3.2-1.6c9.9-6.1 18-28 29.4-28.3 7.1.2 12.7 7.9 17.4 12.5q3.7 3.9 8 7.2c1.3 1 2.5 2.4 4 3.3 10.2-5 17.6-9 28.5-2.4 4.8 2.8 9.2 6.5 14.3 8.7q2 .8 4 .5h11.9c11-2.2 17.5-12.3 25.4-19.4" class="b"/><path d="m16.2 174 15-.1c10-4.3 15.9-18.2 23.9-25.4 8.9-8.5 16-2.3 23 4.8l6.4 6.2q3.7 3.1 7.1 6.5c2.2-.4 4.3-1.5 6.4-2 4.6-1.5 9.6-2 14.3-.5 7.1 2 13 7.2 19.8 9.9 1.5.7 3.2.5 4.8.5h12.7c11.4-2 18.3-12.2 26.2-19.8" class="b"/><path d="M16.2 172h10.3c2-.2 4.4.2 6.4-.3C39 169 43 163 47.2 158c6.6-8.4 14.6-20.7 26.2-11.8 3.4 2.5 6.4 5.7 9.5 8.6 2.8 2.8 6 5.4 8.7 8.3 1 .5 2.2-.2 3.2-.3q2.7-.7 5.6-1c10.5-1 18.6 5.3 27.8 9.2q1.5.7 3.2 1h11.9c15.5 1.1 22.8-10 32.5-19.8" class="b"/><path d="M16.2 170h14.3c1.6 0 3.3.2 4.7-.8a36 36 0 0 0 10.4-9.3c4.7-5.6 8.8-12 15-16.1 7.6-4.9 14.5.7 19.9 5.9l8 7.5c1.2 1.2 2.4 2.9 4 3.7 13.5-2 20.7 3.3 32.5 8q1.5.7 3.1 1h14.3c3 0 6 .3 8.8-.7 10.6-2.2 17.4-11.5 24.6-18.8" class="b"/><path d="M16.2 168h12.7l6.4-.1q1.6-.7 3.1-1.6C45.4 161.5 50 154 56 148c6.7-7 13.2-9.4 21.4-3 5.5 4.2 10.2 9.3 15.1 14a44 44 0 0 1 16 2.8c5 1.8 9.8 4.3 15 5.8 2.3.7 4.8.2 7.2.3H148l4.8-1.1c9.8-2.3 16.2-10.8 23-17.6" class="b"/><path d="M16.2 166h18.3c1.3 0 2.7 0 4-.8 7.1-3.9 11.8-11 17.4-16.6s12-10.3 19.8-5.7c6.4 3.8 11.4 9.5 16.7 14.5a71 71 0 0 1 18.3 5.1q3.5 1.4 7.1 2.5 2.7 1 5.6 1h16.7l8-.1 7-1.6c8.6-2.7 14.6-10 20.7-16" class="b"/><path d="M16.2 164h15l7.2-.1 3.2-1.5c5.9-3.6 10.2-9.2 15.1-14 2.8-2.6 5.9-5.2 9.5-6.6 6.6-2.4 12.8 2 17.5 6.2 13.3 11.9 3.6 5.6 19.9 11.5 4.4 1.6 8.8 3.4 13.5 4.4q9 .1 18.2 0 6.3.1 12.7 0 4.6-.6 8.8-1.8c7.7-2.6 13.4-8.9 19-14.4" class="b"/><path d="M16.2 162H40l2.4-1c5.8-3.1 10.2-8.3 15-12.5 3.1-2.7 6.4-5.4 10.4-6.5 5.9-1.7 11.5 2 15.9 5.6 3 2.4 5.7 5.2 8.7 7.6 4.6 1.3 9 3.2 13.5 4.7q3.5 1.2 7.2 2h27.8q2.8.2 5.5-.1c4.5-.8 9.2-1 13.5-2.5 6.3-2.4 11-7.5 15.9-12" class="b"/><path d="M16.2 160h25.4c3.2-1 6.1-3 8.7-5 8-6 16.9-16.8 27.9-11 5 2.4 9 6.5 13.5 10 1.6 1 3.7 1.4 5.5 2.1q4.7 1.9 9.5 3.3 2.4.6 4.8.5h31l7.1-.9c4-.4 8.1-.8 12-2.2 1.5-.6 3.3-1 4.7-2a84 84 0 0 0 9.5-7.7" class="b"/><path d="M16.2 158h27c3.2-.7 6-2.6 8.7-4.4 7.7-5.3 16.2-13.7 26.2-9.1 5 2 9 6 13.5 9q6.3 2.5 12.8 4.3c1.2.3 2.6.1 4 .2H140l10.3-1.2c6.3-.2 12.5-1.9 18.3-4.3q3.7-2.5 7.1-5.4" class="b"/><path d="M16.2 156h17.5q4.8 0 9.5-.2 4.9-1.5 9.5-3.8 3.8-1.4 7.2-3.6c5.8-3.7 12.3-6 19-3 4.3 1.8 8 4.8 12 7.1q3.5 1.5 7 2.5 2.9 1 5.6 1h31q4-.2 8-.6 5.1-.5 10.3-.7 6.5-.4 12.7-2.5l4.7-1.4q3-1.7 5.6-3.8" class="b"/><path d="M16.2 154h23q2 .1 4-.3c5-1.6 9.4-4.3 14.3-6.1q4.6-1.9 9.5-2 5.5-1.5 11.1.1c4 1.3 7.5 3.6 11.2 5.6q3.8 1.5 7.9 2.5c1.8.3 3.7 0 5.5.2h20.7c4.5 0 9 .2 13.5-.3q7-.6 14.3-.7 6.8 0 13.5-2l8-2 3.1-2.1" class="b"/><path d="M16.2 152h22.2c1.3-.1 2.8.2 4-.2 5-1.6 9.4-4.3 14.3-6.1q6.6-2.6 13.5-1.3 2.8.7 5.5 1.3 4.5.8 8.8 2.9 3 1.6 6.3 2.5l3.2.8q3.2 0 6.4 0H129l9.5-.5c6.9-.4 13.8.3 20.6-.6q5.3-.8 10.4-2.2c2-.6 4.5-.7 6.3-2" class="b"/><path d="M16.2 150h22.2q2 .1 4-.4c4.9-1.7 9.4-4.4 14.3-6a26 26 0 0 1 18.3 1.2 112 112 0 0 0 15 5c2.7.3 5.4 0 8 .2h26.2q6.7-.7 13.5-.7c6.6 0 13.3.7 19.9.2 6.1-.4 12.1-2.2 18.2-3.3" class="b"/><path d="M16.2 148h22.2q2.1 0 4-.6c4.8-1.8 9.3-4.5 14.3-5.7 9-2.6 17.1 2.3 25.4 5q2.3.9 4.8 1.3h31.7q6.4-.7 12.7-.7 7.5.1 15.1.7H160c5.4-.5 10.6-1.8 15.9-2.8" class="b"/><path d="M16.2 146h21.4q2.1 0 4-.6c5-1.8 9.8-4.6 15-5.6 5.8-1.1 11.5.7 16.8 2.9q3 1.3 6.3 2.3 2.3.9 4.8 1h29.4q7.1-.9 14.2-1 6.4.3 12.8 1h23.7q5.7-.9 11.2-2" class="b"/><path d="M16.2 144h15c2.7-.1 5.4.2 8-.2 5.9-1.7 11.3-5 17.5-5.7 5.5-.6 10.8 1.4 15.9 3.4q3.5 1.5 7.1 2.4 2.4.1 4.8 0h25.4q6.3-.8 12.7-1 7.2.2 14.3 1h30.9c2.7.2 5.4-.6 8-1" class="b"/><path d="M16.2 142c7.1-.1 14.3.2 21.4-.1 6.1-1.7 11.9-5.2 18.3-5.5 7.3-.5 13.8 3.5 20.7 5.4 2.3.4 4.8.1 7.1.2h22.2c4.3-.4 8.5-1.3 12.8-1.3q7.1.1 14.2 1.2 3.6.1 7.2.1h30.2q2.8.1 5.5-.4" class="b"/><path d="M16.2 140h12.7c2.4-.1 4.8.2 7.2-.2 6.3-1.7 12.3-5.2 19-5.2 7-.1 13.2 3.9 19.9 5.4h27.7c4.8-.6 9.6-1.5 14.4-1.4 4.8 0 9.5 1.1 14.2 1.4h44.5" class="b"/><path d="M16.2 138h11.1c2.4-.1 4.9.3 7.2-.3 6.5-1.8 12.8-5.3 19.8-5 6.5.3 12.1 3.8 18.3 5.3h27c5-.8 10-1.8 15-1.6q4.5.1 8.8 1 3.1.6 6.4.6h46" class="b"/><path d="M16.2 136h10.3c2.1 0 4.3.3 6.4-.4 7-2 14-5.6 21.4-4.5 5.3.7 10 3.2 15 4.7 1.9.4 3.8.1 5.7.2h20.6c6.3-1.3 12.6-2.7 19-2q4.6.4 8.8 1c2.4.3 4.8 1 7.1 1h45.3" class="b"/><path d="M16.2 134h8.7q2.9.2 5.6-.2c8.7-2.3 16.2-6.5 25.4-3.8 3.8 1 7.4 2.7 11.1 3.8 1 .4 2.2.2 3.2.2h16.7q3.6.2 7.1-.7c4-.9 8-2 12-2.2q4.7-.3 9.5.7c4.5 0 9 1 13.5 1.7q4 .7 8 .5h38.8" class="b"/><path d="M16.2 132H28q4.5-1.1 8.7-2.5c12.7-4.3 17-1.5 28.6 2.4q10.3.1 20.7.1 2-.2 4-.8 3.5-1.1 7.1-2a32 32 0 0 1 19 .3c5.7.1 11.2 1.3 16.7 2.2q3.2.4 6.4.3h36.5" class="b"/><path d="M16.2 130h7.1q2.9.1 5.6-.5c7.3-1.8 14.6-5.2 22.2-3.5 4.4.8 8.5 2.9 12.8 4h19c2.2-.2 4.3-1.3 6.4-2 4-1.4 8.3-3.1 12.7-3.6 5.2-.6 10.3 1 15 2.9 6.2.2 12.3 1.4 18.3 2.3 2.9.6 5.9.4 8.8.4h5.5l4.8-.3c7.1.5 14.3.3 21.4.3" class="b"/><path d="M16.2 128q5.2.2 10.3-.1c4.6-1 9-2.7 13.5-3.6q5.6-1.1 11.1.2c3.8.8 7.4 2.6 11.2 3.5h18.3c2.1-.4 4.2-1.7 6.3-2.6 5-2.2 10.2-5 15.8-5 5.4 0 10.4 2.5 15.1 4.8 2.4.3 4.8.1 7.2.4q5.5.7 11.1 1.6 5.2 1 10.3.8c2.6-.4 5.3-1 8-.9q4 .2 7.9.9h13.5" class="b"/><path d="M16.2 126h6.3q2 .1 4-.2c4.3-.9 8.4-2.4 12.7-3.3q5.6-1 11.1.3c3.5.8 6.9 2.3 10.4 3.2h18.2q3.4-1.5 6.4-3.4c5.8-3.3 12.1-7.2 19-6 5.3 1 9.8 4 14.3 6.5 1 .4 2.2.2 3.2.2q2.4 0 4.8.2 7.1.8 14.3 1.8c1.8.1 3.7.5 5.5.4q4-1 8-1.1c3.4 0 6.9.8 10.3 1.4h11.1" class="b"/><path d="M16.2 124h9.5c4.3-.8 8.5-2.4 12.7-3.2a26 26 0 0 1 11.2.3c3.2.7 6.3 2 9.5 3h14.3c2 0 3.9.2 5.5-1 8-4.6 16.2-13.3 26.3-10 3.4 1 6.5 3 9.5 5l4.7 3.1q1.2.4 2.4.1 6-.3 12 .5l13.4 1.4q4-1.2 8-1c3.7.2 7.4 1.1 11 1.8h9.6" class="b"/><path d="M16.2 122q5.2.2 10.3-.1 5.2-1.2 10.3-2.6 6-1.4 12 0c3.2.6 6.3 2 9.5 2.7h17.4c4-1.7 7-5 10.4-7.5 5.8-4.5 12.5-8.4 19.8-5 3.8 1.8 7 4.4 10.3 7l3.2 2.3q1 .8 2.4.6a77 77 0 0 1 12.7-.2c4.5.3 9 1 13.5 1.3 1 .2 2.2-.3 3.2-.4a23 23 0 0 1 4.8-.1c4 .3 8 1.3 11.9 2h7.9" class="b"/><path d="M16.2 120h10.3c4-.7 8-2 12-2.7a28 28 0 0 1 12.6 1c2.6.6 5.2 2 8 1.7h15c5.3-1.7 9.1-7.3 13.6-10.5 5.4-4.4 11.5-7 18.2-3.4 3.5 1.8 6.6 4.5 9.6 7q1.9 1.7 4 3.3c.8.7 1.9 1.6 3.1 1.1a86 86 0 0 1 20.7-.3l7.9.7q3.6 0 7.2.2 5.6.9 11 2h6.4" class="b"/><path d="M16.2 118h7.1q2.5.2 4.8-.1c5.5-1.2 11-3.1 16.7-2.6 4 .3 8 2 11.9 2.7h15.9c4.5 0 10.6-8.5 14.3-11.4 15.4-13.9 22.7.3 34.9 9.2 1.3.1 2.7-.4 4-.5a82 82 0 0 1 23.8-.3q4.5.3 8.7 1.2l6.4.8 6.3 1h4.8" class="b"/><path d="M16.2 116q6.4.1 12.7 0c5.2-1.2 10.5-2.8 15.9-2.4 3.8.3 7.4 1.7 11.1 2.4h16.7c5.5-1.2 11-10.3 15.9-13.8 14.5-12.7 23 4.2 34.1 11.9 4.7-.8 9.5-2 14.3-2.3q8.4-.5 16.7.9 4.8.9 9.5 2.1c4.2.5 8.5 1.4 12.7 1.2" class="b"/><path d="M16.2 114h13.5c5-1 10-2.5 15-2.1 3.6.2 7 1.3 10.4 2.1h17.5c2.8-.9 5-3.3 7.1-5.4 3-3.3 6-7 9.5-9.7 14.4-12 23.4 6.5 34.2 13.5 11.3-2.9 20-4.6 31.8-2q5 1.5 10.3 2.8c3.4.2 6.9.8 10.3.9" class="b"/><path d="M16.2 112q7.5.1 15 0c4.8-1 9.6-2.3 14.4-1.9q3.1.4 6.3 1.2 2.4.8 4.8.7H71q1.2.1 2.4-.2c3.8-2 6.6-5.6 9.5-8.8q3.8-4.7 8.7-8c13.5-8.6 22.4 10 32.6 15.7 11.5-3.3 20.6-5.8 32.5-2q4.8 1.4 9.6 2.6 4.8.4 9.5.6" class="b"/><path d="M16.2 110H32c4.6-1 9.4-2.2 14.3-1.7q2.8.3 5.5 1c1.3.2 2.7.8 4 .8H67c2-.1 4.3.2 6.4-.2 4.2-2.1 7.1-6 10.3-9.5a37 37 0 0 1 8.7-7.4c13.5-7.6 22.1 10.7 32.6 16 12-3.6 20-6.8 32.5-2.2q4.7 1.6 9.6 2.7l8.7.2" class="b"/><path d="M16.2 108h16.7c4.4-.8 9-2 13.5-1.6q3.6.4 7.1 1.2 2.3.6 4.8.5h13.5q1.2.1 2.4-.4c4.1-2.2 7-6 10.3-9.4 3.7-3.7 8.1-7.5 13.5-8.2 11-.9 18.5 13 27.8 17 12-3.5 19.2-7.1 31.8-2.2q4.6 1.8 9.5 2.8l8.7-.1" class="b"/><path d="M16.2 106h17.5c4.4-.7 8.9-2 13.5-1.6 2.9.2 5.8 1 8.7 1.6h16.7q1.2.2 2.4-.3c4-2.2 7-5.9 10.3-9 4.8-4.4 11.4-9 18.3-6.7 8.9 3 14.4 11.9 23 15.4 10-2.9 18-7 28.6-3 3.9 1.3 7.8 3 11.9 3.6l8.7-.5" class="b"/><path d="M16.2 104h18.3c3.6-.6 7.3-1.7 11-1.7 3.8-.1 7.6.8 11.2 1.7q4.4.1 8.7 0H75c3.4-1.2 6-4 8.7-6.3 11.3-10 18.6-11.8 31-2.1 4 3 8 6.4 12.7 8.1 6.3-1.6 12.4-4.6 19-4.6 6.7 0 12.6 3.8 19.1 5q5.2 0 10.3-.7" class="b"/><path d="M16.2 102h19c3.7-.8 7.4-1.8 11.2-1.9 4-.1 8 1 11.9 2h17.5c1 0 2.2-.8 3.1-1.4q2.5-1.6 4.8-3.5c11.2-8.8 18.5-11.4 31-3 4.3 2.9 8.5 6.1 13.5 7.7 4.8-1 9.4-3 14.3-3.8 8-1.6 13.9 2.6 21.4 4h6.3l5.6-.7" class="b"/><path d="M16.2 100h19c2.7-.4 5.3-1.3 8-1.8q6-1 11.9.6 2.3.7 4.8 1.3h17.4c2.4-.4 4.4-2.1 6.4-3.3q3.8-2.7 8-4.8a20 20 0 0 1 18.2-1.2c6.5 2.7 12.2 7.5 19 9.3 3.3-.4 6.4-1.7 9.6-2.4 3.8-1 8-1.6 11.9-.8 3.5.7 6.8 2.2 10.3 3 2 .4 4.3 0 6.4.2h4.7l4-.7" class="b"/><path d="M16.2 98h19c2.7-.4 5.3-1.5 8-2q5.6-1.4 11.1 0l7.2 2h18.2c3.6-1.3 6.9-3.5 10.3-5.1 6.3-3.2 13-5 19.9-2.6 6.6 2 12.4 6 19 7.8 2.8.2 5.4-.7 8-1.3 4.1-1 8.5-1.8 12.7-1.1 3.5.4 6.8 2 10.3 2.4h8.8q3.6.2 7.1-.7" class="b"/><path d="M16.2 96h19c3.3-.6 6.3-2 9.6-2.7Q50 92 55 93.3c3 .8 5.8 2.1 8.7 2.8h16c2 .2 3.7-.6 5.5-1.4l6.3-2.6a30 30 0 0 1 17.5-2.6c4.7.9 9 2.9 13.5 4.5q3 1.2 6.4 2h3.1c2.2.2 4.3-.5 6.4-.9q4.6-1 9.5-.7c3 .1 5.9 1 8.7 1.7h12q3.6.2 7.1-.7" class="b"/><path d="M16.2 94q9.5.1 19 0c6-1.8 11.9-5.2 18.3-4q4 .9 8 2.6c1.5.5 3.1 1.4 4.7 1.5h14.3c1.6 0 3.3.2 4.8-.2 7-2 14-5.3 21.4-5 5.5.1 10.7 1.9 15.9 3.5q3 1 6.4 1.7h4.7q3.6 0 7.2-.6 4-.6 7.9-.2 2.7.3 5.6.8h15.8q2.9.1 5.6-.6" class="b"/><path d="M16.2 92h16.7c2.8.3 5.4-1.4 8-2.4 5.3-2.6 10.8-4 16.6-1.8q3.6 1.3 7.1 3c1.3.5 2.7 1.4 4 1.3H87c2.1 0 4.2-.9 6.3-1.3 11.9-3.5 18.4-3 30.2.2q2.7.7 5.6 1h7.1q4.8.1 9.5-.2 8 .4 16 .3h7.9c2 0 4.3.2 6.3-.6" class="b"/><path d="M16.2 90.1h17.5c6.4-1.8 12-7.2 19-6.8 6.5.3 11.5 5 17.5 6.8h10.3q6 .2 12-.1c6.2-1.2 12.5-2.7 19-2.3 5.3.2 10.6 1.5 15.9 2.3q8.2.1 16.6.1h26.2c1.9 0 3.8.1 5.6-.6" class="b"/><path d="M16.2 88.1h16.7c6.8-2 12.3-8.5 19.8-8.4 7.3.2 12.6 6 19 8.3q3.7.1 7.2.1h17.5c4.7-.7 9.5-1.5 14.3-1.5 5.3 0 10.6 1 15.9 1.5h43.7a18 18 0 0 0 5.5-.6" class="b"/><path d="M16.2 86.1H32c7.2-2.6 12.5-10 20.6-10.2 8.4 0 13.8 8 21.5 10.2h26.2c3.6-.2 7.4-.7 11-.7q6 0 12 .7h46.1q3-.6 6.3-1.7" class="b"/><path d="M16.2 84.1h9.5c1.8 0 3.8.2 5.6-.2 7.6-3 12.8-11.5 21.4-12.1 9.3.2 14.7 9.7 23 12.3h5.6q15.9.1 31.8-.1 13.1.1 26.2.1H167c3-.7 5.9-2 8.7-3" class="b"/><path d="M16.2 82.1h8.7c1.6 0 3.3.2 4.8-.2 8.2-3.3 13.8-13.8 23-14.3 8.7.1 14.7 10 22.3 13.6 2.1 1.4 4.7.8 7.1.9H164c1.6 0 3.3-.8 4.8-1.3l7.1-3" class="b"/><path d="M16.2 80.1h8c1.5 0 3.3.3 4.7-.5 8.3-3.8 14.5-16 23.8-16.6 7.9.1 13.9 9.3 19.9 13.7 1.9 1.4 4 2.9 6.3 3.4h80.2q2 .2 4-.1c4.4-1.3 8.5-3.7 12.7-5.5" class="b"/><path d="M16.2 78.1q5.2.2 10.3-.1c9.2-3.9 13.5-14.2 22.3-18.8 5.7-3 11.1 1 15 5 4.2 4 7.9 8.8 12.8 12q2.7 1 5.5 1.8c2.6.3 5.3 0 8 .1h67.4q2 .2 4-.4c5-1.4 9.5-4.3 14.3-6.3" class="b"/><path d="M16.2 76.1h8.7c10.2-4.2 14.6-16.4 23.9-21.8 5.7-3.4 11.2 1 15 5.1q4 4.4 8 9c1.5 1.4 3 3.2 4.7 4.2 3.1 1.3 6.3 2.8 9.6 3.5h65.1c2.6 0 5.4.4 8-.4 5.8-1.6 11-5 16.6-7.2" class="b"/><path d="M16.2 74.1H21c1.3 0 2.8.2 4-.5 9-4.7 13.3-15 20.6-21.9 6.4-6.2 11.9-4.3 17.4 1.7 4.5 4.8 8.1 10.4 12.8 15q5.7 2.9 11.9 5.2 2.3.7 4.7.5h57.2c2.1 0 4.3.2 6.4-.4 7-1.6 13-5.7 19.8-7.8" class="b"/><path d="M16.2 72.1h6.3c6.9-2.6 11-9.2 15.1-14.8 8.1-11.3 15.1-22.5 27-7.3q3.7 4.6 7.2 9.4c1.5 1.7 2.8 4 4.7 5.3 5.7 2.7 11.2 6.4 17.5 7.4h50.8q4.5.3 8.8-.7c7.7-1.6 14.5-6 22.2-7.8" class="b"/><path d="M16.2 70.1q2.8.2 5.6-.1c5.1-1.8 8.7-6.4 11.9-10.7q4-5.8 7.9-11.7c3.2-4.4 7.3-10.8 13.5-10.2 5.8 1.2 9.4 7.1 12.7 11.5 2.9 3.9 5.3 8.3 8.8 11.7 5.8 2.8 11.2 6.6 17.4 8.6q2 .7 4 1h39.7q6.4 0 12.7-1.2c8.8-1.4 16.6-6.2 25.4-7.3" class="b"/><path d="M16.2 68.1q2.4.2 4.8-.1c5.2-1.8 8.8-6.4 11.9-10.7q4.4-6.8 8.7-13.7C44.7 39 49 32 55.1 32.3c7.9.8 15.7 17 20.7 23.1.3.5 1 1.3 1.6 1.5l3.1 1.6 7.2 4.2c4 2.2 8.2 4.3 12.7 5.4H136a142 142 0 0 0 22.3-4.3c5.7-1.7 11.4-3.7 17.4-3.7" class="b"/><path d="M16.2 66.2c9 1 14.9-9 19-15.6 4.2-6.2 12.2-24.6 20.7-23 5.8 1.2 9.5 7.9 12.7 12.4l5.6 8.6c1.2 1.5 2.1 4 4 4.8q4 1.9 7.9 4.4c5.3 3.1 10.6 6.7 16.7 8.3q13.8.2 27.8 0c3.2.2 6.4-.7 9.5-1.3l13.5-2.8c7.3-1.7 14.7-3.9 22.2-3.1" class="b"/><path d="M16.2 64.2c7.8.6 12.9-6.8 16.7-12.6 3.6-5.7 6.7-12 10.3-17.7 1.3-2 5.5-9.2 8-8.7q4.6-.1 9.5 0C66 30.3 69.4 37 73.4 43l3.1 5c.6.8 1.4 2 2.4 2.2q5.8 2.8 11.2 6.3c4.7 3 9.5 6.6 15 7.8h25.5L136 63q9.4-2.7 19-4.5c6.9-1.3 13.9-1.9 20.7-.5" class="b"/><path d="M16.2 62.2c15 1.2 23-30.4 32.6-39q7.1-.2 14.2.1c4.4 5 7.6 11 11.2 16.7l3.1 5c.4.5 1 1.5 1.6 1.9l1.6.6q6.8 3 12.7 7.5c4 2.8 8 5.7 12.7 7.1H129q2.4-.4 4.7-1.1c14.7-5 26.7-8 42.1-3.8" class="b"/><path d="M16.2 60.2c14.9 1.2 23-30 31.8-39h10.3c2 .1 4.3-.3 6.3.2 4 5 7 10.8 10.4 16.2l3.1 5c.6.8 1.3 2 2.4 2.1q5.5 2 10.3 5.3c4.6 3.1 11.2 9.4 16.7 10.2h18.3q1.6 0 3.2-.2c5-1.5 10-3.8 15-5.2a52 52 0 0 1 31.8 1.8" class="b"/><path d="M16.2 57.8c8.9 1.8 15.4-10.4 19-16.9 4-7.1 7.3-14.7 12-21.5q1-.3 2.3-.2h16c3.8 5.2 6.9 11 10.2 16.4l3.2 5c.6.7 1.3 2 2.4 2a34 34 0 0 1 10.3 5c3.8 2.7 7.2 6 11.1 8.4 1.5.8 3.1 1.8 4.8 2.2h14.3c2.4-.2 5 .3 7.2-.5 4.6-1.5 8.9-3.8 13.5-5.3 11.6-4.4 22.2 0 33.3 3.5" class="b"/><path d="M16.2 55.2q2.7.4 5.6.1c4-2 7-5.7 9.5-9.3 6-9.1 9.8-19.4 15.9-28.4q1-.6 2.3-.4h16c1 .4 1.7 1.9 2.3 2.7l3.2 5c3.3 5.4 6.2 11.2 10.3 16 6.2 1.3 9.5 3.3 14.3 7.3 3.7 3 7.4 6.3 11.9 8h19.1c3.9-1 7.4-3 11-4.6 15.5-7.5 23.6-.6 38.2 3.6" class="b"/><path d="M16.2 52.7q3.6.4 7.1 0a25 25 0 0 0 7.2-7C37.3 36 41 24.7 48 15.2h17.4c1 .5 1.8 2 2.4 2.8l3.2 5c3.5 5.6 6.7 11.7 11.1 16.8 7.4 1 10.4 3.7 15.9 8.2 3 2.4 6 4.8 9.5 6.1h15.9q1.6 0 3.2 0l3.2-1.2c6.6-2.8 13.1-7.2 20.6-6.7 4.5.2 8.7 2 12.7 3.6s8.3 3.4 12.7 4.3" class="b"/><path d="M16.2 50.2q4.5.6 8.7-.1 3.7-2.9 6.4-6.9c6.6-9.5 10.5-20.7 17.5-30H63q1.1 0 2.3.3c6.4 8 10.6 17.8 17.5 25.6q3.3.2 6.3 1.2c6 2.7 10.2 7.9 16 10.8q1.7 1.3 3.9 1h12.7c1.5 0 3.3.3 4.8-.1 7.1-2.5 13.6-7.6 21.4-7.7 6.9 0 12.8 4 19 6.3l4.8 1.5q2 .2 4 0" class="b"/><path d="M16.2 47.8a41 41 0 0 0 9.5 0c.5-.1 1.3-.8 1.6-1.1q2.1-2.1 4-4.6c4.6-6.5 8-13.8 11.9-20.7 2.1-3.5 4-7.4 7.1-10.2h13.5c7.8 8.2 12 19.3 19.9 27.4 1.5.2 3.2.1 4.7.5 4.3 1.2 7.7 4.2 11.2 6.7l4.7 3.1c1.2.6 2.6 1.4 4 1.3h15.9q2 0 4-1 3-1.3 6.3-3a25 25 0 0 1 15.9-3.2c6.7 1.2 12.3 6 19 7.2h6.4" class="b"/><path d="M16.2 45.5q3.6.5 7.1.3c1.3-.1 2.9.2 4-.4 6.4-5.9 10-14 14.3-21.4 2.8-4.6 6.5-12 11.1-14.8h8.8c3.6 2.6 6.2 6.5 8.7 10.1 4.5 6.5 8.4 13.7 14.3 19.1q2.8-.1 5.6.6c5.7 2 10.1 6.7 15.8 9 1 .3 2.2.1 3.2.2H125c9.1-2.5 15.8-9.2 26.2-6.1 3.6 1 7 2.9 10.3 4.4 1.8.7 3.7 1.7 5.6 1.7h8.7" class="b"/><path d="M16.2 43.4q3.6.5 7.1.4c1.5-.2 3.5.3 4.8-.4 5.5-5 9-11.9 12.7-18.2 3.5-5.5 7.8-14.6 14.3-16.8 4.6-1.2 8.4 2.7 11.1 6 6.6 7.7 11 17.6 19 24 5.7-1 10.5 2.6 15.2 5.3 2 1 4 2.5 6.3 2.5h15.9q1.6.1 3.2-.2c9-3.2 16.1-8.4 26.2-4.6 3.8 1.3 7.3 3.5 11.1 4.7 4.2.3 8.5 0 12.7.1" class="b"/><path d="M16.2 41.6c4 .5 8 .2 11.9.4 2.6-1.8 4.5-4.5 6.4-7q4.1-6.1 7.9-12.4C46.9 15.6 54 3.7 63 11.9c5.7 5.2 9.5 12.1 14.3 18 2.6 3.1 5.2 6.4 8.8 8.4 6.4-1 11.7 3.4 17.4 5.5q1.6.5 3.2.4h15.9c3.4.3 6.4-1.5 9.5-2.6a29 29 0 0 1 13.5-2.6c5.4.5 10.1 3.4 15.1 5 5 .4 10.1 0 15.1.2" class="b"/><path d="M16.2 39.9q3.6.4 7.1.3l3.2.1q1.3.2 2.4-.1c8.4-7 12.4-18 19.9-25.8C63.2-.9 72.2 30.9 86 37.9c1.2.3 2.7-.1 4 .1q3.2.5 6.3 1.7c2.3.8 4.7 2 7.1 2.5H125c4-1.1 7.9-2.8 11.9-3.7q5.6-1.3 11.1 0c3.6.8 6.9 2.5 10.3 3.6 5.8.3 11.7 0 17.5 0" class="b"/><path d="M16.2 38.4q3.6.3 7.1.3c1.9 0 3.8.4 5.6.1 7.8-5.7 11.8-15 18.3-22C62.4-.6 71 30.2 85.2 37l1.7.7h4.7q4.6.8 8.8 2.2 1.6.4 3.2.3h18.2q3 .3 5.6-.7 4-1.3 8-2.1 5.9-1.4 11.8 0c3.3.7 6.4 2.2 9.6 2.8h19" class="b"/><path d="M16.2 37q3.6.2 7.1.3c1.9 0 3.8.5 5.6 0C38.2 31.7 42 20 51.1 14.2c7-4.4 13.2 2.3 17.5 7.2 5.4 5.9 10.8 14 19 15.8 4-.5 8 .7 12 1.1h23.8q2 0 4-.6l6.3-1.5q6-1 12 0l7.9 2q4.7.1 9.5.1h9.5l3.2-1.3" class="b"/><path d="M16.2 35.6q6 .3 11.9.5c9.4-4.4 13.6-15.4 22.2-20.9 6-3.8 11.6.2 16 4.6 6.1 6 11.6 14.2 20.6 16.2q2 .2 4 0 2.8.2 5.5.2H125l7.1-1.4q6.4-1 12.8.1 3 .7 6.3 1.3h19.1q2.9-1.2 5.5-2.9" class="b"/><path d="M16.2 34.2h12.7c8.5-4 12.8-13.3 20.7-18.1 5.9-3.7 11.4-.4 15.8 3.8 5.9 5.3 11 12.4 19 14.3H125q3.5-.6 7.1-1c5-.6 10.2 0 15.1.9 5.3.3 10.6 0 16 .1h4.7c2.9-1 5.4-2.9 8-4.6" class="b"/></svg>