<svg xmlns="http://www.w3.org/2000/svg" id="a" width="1920" height="2400" viewBox="0 0 192 240"><defs><style>.b{fill:none;stroke:#fff;stroke-miterlimit:10;stroke-width:.3px}</style></defs><path d="M0 0h192v240H0z" style="stroke-width:0"/><path d="M13.8 232H18c1 0 2.3.2 3.3-.3 9.5-4 17-19.1 28.6-12.9 4.6 2.6 8.2 6.7 12.3 10 1.5.6 3.3.6 4.9 1L75 232q5 .2 9.9 0a78 78 0 0 1 13.9-.9c7.6.2 15.2 1.2 22.9 1 8.2 0 16.6.5 24.5-2.3 7.9-2.5 13.3-9.2 19.6-14.2 3.4-2.7 8-5 12.3-3.4" class="b"/><path d="M13.8 230c2.2-.1 4.4.1 6.6-.2 9.8-3.7 17.5-19.4 29.4-13q4 2.4 7.4 5.7c1.3 1 2.5 2.6 4 3.3 5.1.6 9.9 2.6 14.8 4 1.8.4 3.8 0 5.7.1q4.1 0 8.2-.3c7.3-.7 14.7 0 22 .2q5.8.2 11.5.1 5.3.1 10.6-.3c6.7-.5 13.4-2.3 18.8-6.3 7.3-4.7 15.8-17.7 25.4-13.4" class="b"/><path d="M13.8 227.9H18q1.3 0 2.5-.3c10-3.9 18.2-19.7 30.2-12.2q3 2 5.7 4.3c1 .8 2 2.1 3.3 2.6 5.5.5 10.4 3 15.5 4.8 2.9 1.2 6 .7 9 .8 6.6 0 13.1-.6 19.7-.2q8.2.3 16.3.2c5 0 9.9.1 14.8-.6q8.3-1 15.5-5.2c8.3-4.6 17.3-19.6 27.8-14.2" class="b"/><path d="M13.8 225.8H18q1.7.2 3.3-.6c9.9-4.7 18-19.4 30.2-11.2q2.2 1.4 4.1 3c.7.5 1.5 1.5 2.5 1.6q2.5.1 4.9.8c4.8 1.4 9.2 4.1 13.9 5.8 2 1 4.4.6 6.5.6H121c8.3.2 16.9-.2 24.6-3.6q6.8-3.2 12.2-8.5c5.5-4.8 12.8-12 20.5-7.4" class="b"/><path d="M13.8 223.8h5.7c3-1 5.7-3 8.2-4.9 5.8-4.5 12.5-11.4 20.5-8.4 2.7.9 5 2.8 7.3 4.3 4.7-.3 9.1 1.6 13 3.8q4.2 2.3 8.3 4.2l2.4.9q1.6.1 3.3 0h45.8c7.7 0 15.6-2.1 22-6.4 8.4-4.9 17.1-18.7 27.9-12.5" class="b"/><path d="M13.8 221.7h5.7q1.3-.3 2.5-1c10.6-5.4 18-18.6 31-9.6 7.8-1.7 14.3 3.8 20.5 7.5q3 2 6.6 3 2.4.2 4.9.1h47.4q9.2-1 17.2-5.8c8.7-4.8 17.6-18.6 28.6-12.3" class="b"/><path d="M13.8 219.7h5q1.6 0 3.2-.9c9.5-4.5 16.8-16.3 28.6-11 11.6-4.6 19.5 8.2 29.5 11.7q1.6.3 3.2.2h22.9q5.3-.9 10.6-.9c3.6 0 7.1.9 10.7.9h6.5q6.8-1 13.1-4c4.5-2.2 8.4-5.4 12.3-8.5 5.4-4.3 12-8.5 18.8-4.6" class="b"/><path d="M13.8 217.6h6.6c9.4-3 16.1-14.4 27-12.6 2.5-1.1 5.2-2.6 8.1-2.4 9.6.7 15.8 11.3 24.6 14.7q1.6.4 3.2.3H103c1.9.1 3.8-.5 5.7-.9q4-.9 8.1-1c4.5 0 8.8 1 13.1 1.9 3 0 6.1.2 9-.5q7.5-1.8 14-6c7.4-4.8 15.7-14 25.3-9.2" class="b"/><path d="M13.8 215.6c2.4-.1 5 .1 7.4-.2 5.1-1.8 9.3-5.6 13.9-8.5q2.6-1.8 5.7-2.8c1.3-.6 3-.4 4-1.2 2.9-2.2 6.2-4.4 9.9-4.4 10.3.3 17.2 14.7 27 17h21.2c5.4-1.2 10.7-3.5 16.4-3.2 4.5.2 8.8 1.7 13 2.9 1.9.6 4 .3 5.8.4a41 41 0 0 0 15.5-6c7.4-4.4 15.4-12.4 24.6-8.4" class="b"/><path d="M13.8 213.5h7.4c6.7-2 11.6-7.4 18-10.1 2-.6 3.3-2.4 4.9-3.7 2.7-2.5 6-5 9.8-5.2 10-.2 17 14.5 26.2 18.5 1.4.8 3.2.5 4.9.5H102q2.6-.8 5-1.8c12-5.2 16.2-3.2 27.7 1.2 5 1.7 10.2-.2 14.8-2 9.2-3.7 18-13.8 28.6-10.2" class="b"/><path d="M13.8 211.5H22c3-.8 5.6-2.6 8.2-4.1l7.3-4.6c4.5-4.5 9-11 15.6-12 9.8-1 17.5 15.2 26.1 19.6q1.2.7 2.5 1h18c1.7.2 3.4-.7 4.9-1.4 5-2.3 9.9-5.5 15.5-5.4 5.7 0 10.6 3.2 15.6 5.4 1.7.8 3.7 1.7 5.7 1.4 3 .2 6.1-.9 9-1.9 9.1-3.1 17.5-11.8 27.8-9.3" class="b"/><path d="M13.8 209.4h9c3.9-1 7.2-3.4 10.6-5.4 5.8-5.1 11-15 18.9-16.8 10-1.7 18.1 16.7 27 21.2q1 .7 2.4 1h9.8q4.5.1 9-.1 2.6-1 5-2.5c11.1-7.2 15.8-9.1 27.7-1.6q3.9 2.6 8.2 4.2h5c7-1 13.1-4.8 19.5-7.6a22 22 0 0 1 12.3-2" class="b"/><path d="M13.8 207.3h6.6q2 .2 4-.1 4.7-1.4 8.2-5c5.7-5.2 12.5-17.9 20.5-18.4 10.1-.1 17.4 18.7 27 23q1.5.7 3.2.5H98c3.8.4 10.4-6 14-8 9.9-6.8 16.1-1.4 24.5 4.5q3 2.1 6.5 3.5h7.4c5.4-1 10.4-3.4 15.5-5.6 3.9-1.5 8-2.8 12.3-2.5" class="b"/><path d="M13.8 205.3h9c2.5.3 4.7-1 6.6-2.5 3.8-3 6.7-7 9.8-10.9 3.7-4.4 8.2-11.3 14.7-11 10.3 1 18.9 24.5 28.6 24.4h16.4c6.2-2.8 10.4-8.6 16.3-11.8 11.4-6.5 19.2 7.8 28.6 11.5 1.3.5 2.8.2 4.1.3h5.8c8.4-1.4 15.9-6.6 24.5-6.7" class="b"/><path d="M13.8 203.2h10.6c2.5-.2 4.8-2.3 6.6-3.9 3.3-3.2 6.1-7.1 9-10.7 3.7-4.4 8.2-11 14.7-9.8 7.9 2.2 14.1 15.2 20.5 20.8 1.6 1.5 3.5 3.2 5.7 3.6H98c7.6-3.4 11.8-11.6 19.6-14.9 10.5-4 18 11.1 27 14.6 1 .5 2.2.3 3.2.3h4.1c2.4 0 5 .3 7.4-.3 6.3-1.5 12.3-4.5 18.8-5" class="b"/><path d="M13.8 201.2h11.5l2.4-1.2c4.7-3.1 8-8 11.5-12.3 4.1-5.2 10.4-14.2 18-9.6 5.1 3.2 8.4 8.7 12.2 13.4 2.8 3.5 5.8 7.3 9.8 9.3 1 .6 2.3.3 3.3.4h11.4c1.4-.1 3 .2 4.1-.4 8.1-3.9 13.8-16.3 23-17 8.7 0 15.2 12.3 22.8 16.4q1.2.6 2.5 1h13.1q2.5 0 4.9-.7l9-2.6 4.9-2.7" class="b"/><path d="M13.8 199.1H22c2 0 4 .4 5.7-.9 5.5-3.4 9-9 13-14 4.7-5.6 10.8-12.2 18-6.2 7.6 6 11.7 16.7 20.5 21q6 .1 12.3.1h4.9c2.5-.8 4.6-2.8 6.5-4.6 5.5-5 12-16.2 20.5-13.9 7 2.5 11.5 10.3 17.1 15q2.6 2.3 5.8 3.5h6.5c15.8-.2 12 1.8 25.4-7.5" class="b"/><path d="M13.8 197h9c1.6 0 3.5.4 5-.4 6.9-3.9 10.8-11.3 16.3-16.8 5.9-6.1 11.1-6.5 17.2-.3 4.9 4.5 11.6 16.2 18 17.6h15.5c2.5 0 4.7-2.3 6.5-3.8 6.3-5.5 14-20.1 23.7-14.7 8 4.6 12 14.2 20.5 18.3 2 .4 4.4 0 6.5.2h12.3c4.2-.2 10.4-6.6 13.9-9.1" class="b"/><path d="M13.8 195h9.8c2-.1 4 .4 5.7-.7 6-3.7 9.8-9.9 14.8-14.7 10.9-11.2 17.9.4 25.3 8.5a27 27 0 0 0 8.2 6.8q3.7.1 7.4.1h9.8c1.8-.4 3.4-1.8 4.9-3 4.2-3.6 7.4-8.3 11.4-12.2 4.8-4.7 9.9-6.7 15.6-2 6.4 4.7 11.3 14.3 18.8 17.2h18.8a19 19 0 0 0 4-2.2c3.6-2.5 6.6-5.7 9.9-8.5" class="b"/><path d="M13.8 193h10.6q2.5 0 5-.2l2.4-1.4c5.8-4 9.7-10.5 15.5-14.5 10.3-7 17.8 6.8 24.6 12.5q2.2 2 4.9 3.4 2 .2 4 .1h11.5c5.5 1 12.6-9.3 16.4-13 5.9-6.3 11.6-9.4 18.8-2.6 5.1 4.5 9 10.7 14.7 14.6q1.2.8 2.5 1h17.9c6-1.7 11-8.6 15.6-12.7" class="b"/><path d="M13.8 190.9h16.4q2.6-1.3 4.9-3.2c6.2-4.9 13-16.2 22-12.2 6.6 3 10.6 9.6 16.4 13.7q1.5 1 3.3 1.7h15.5q1.8.2 3.3-.7c5.9-3.4 9.7-9.3 14.7-13.7 6.5-6 12-5.2 18 1 4.8 4.4 8.6 10.5 14.7 13.4h9.8q4.5.2 9-.1c7-3.1 11.2-10 16.4-15.2" class="b"/><path d="M13.8 188.8h16.4c3.6-.5 6.3-3.5 9-5.7 7.2-6.8 13.4-13.1 22.9-5.4 4.1 3.3 7.6 7.5 12.2 10.2 1.7 1.3 3.8.9 5.8 1h12.2q1.3.1 2.5-.4c6.5-3.2 10.6-9.8 16.3-14 7-5.6 12.6-2.2 18 3.4 3.7 3.6 7 7.9 11.5 10.4 6 .8 12 .5 18 .5 7.2-.4 14.8-13.1 19.6-18.2" class="b"/><path d="M13.8 186.8h15.6l4-.9c1.9-.5 3.4-2 5-3.2q3.6-3.2 7.3-6c10.6-8.2 17.3 1 25.4 7.2q2.2 1.7 4.9 2.9H93c5.1-.3 12.1-9.1 16.4-12.2 6.2-5 11.4-4.3 17.2.8 3.9 3.2 7 7.6 11.4 10.1q6.2.2 12.3 1.2h5.7c8.6 0 16.8-15.5 22.1-21.5" class="b"/><path d="M13.8 184.7h14c2-.2 4.3-.9 6.5-1.2q1.8-.2 3.2-1.4l5-3.8c4.2-3.6 9.7-7.4 15.5-5.1 6.8 2.5 11.2 9 18 11.5h4l4.1-.6q3.3-.4 6.6 0c1.3.1 2.8.6 4 .5 2.8-1.1 5.2-3 7.4-4.9 7.2-6.1 13.7-13 23-5.6 3.7 2.6 6.7 6.4 10.6 8.8 6-.6 12 .6 18 1.7 9.7.6 18.8-18.2 24.5-25" class="b"/><path d="M13.8 182.5c1.6.3 3.3.1 5 .2H26c3.2-.5 6.5-1.4 9.8-1.6 1.2 0 2.3-.9 3.3-1.5l4-3c4-3 8.8-6.1 14-4.9 7.2 1.8 11.8 8.6 18.8 11 3.4-1 7-2.2 10.6-2.2q3.3 0 6.5.9c2.2.5 2.9 1.2 5-.3 5-3 9-7.7 14.7-9.8 8.1-3 14.4 4.9 20.4 9.1 2.7 0 5.4-.7 8.2-.5 4.4 0 8.8 1.2 13 2.2 10.8-4 16.9-19.6 23.8-28.3" class="b"/><path d="M13.8 180.3q1.6.4 3.3.3h4c3.5.3 6.6-.8 9.9-1.3q2.5-.4 4.9-.5c1 0 2.4.1 3.3-.7 7.3-5 13.7-11 22.9-5.8 4.2 2.2 7.9 5.6 12.2 7.6 2-.1 3.9-1.3 5.8-1.9 5.1-2 9.6-1.3 14.7.7 1 .2 2.1 1 3.2.8l5-3.1c13-9.7 16.6-7 28.6 2q9.7-3 19.6 0l2.5.7c1.8-.4 3.4-1.7 4.9-2.9 8.6-7.7 12.7-19 19.6-28.2" class="b"/><path d="M13.8 178.2c1.3.5 2.8.3 4.1.4 1.6-.1 3.3.1 5-.2 5-1.2 10.2-2.4 15.5-1.7 1.4 0 2.8-1.5 4-2.2q3.1-2.2 6.6-4c9.7-4.9 16.4 2.7 24.5 6.9 12.1-6 13.2-6 25.4-.1 3.4-1.3 6.4-4 9.8-5.5 8.5-4.5 14.2 0 21.2 4.6a33 33 0 0 1 17.2-2c2.2.4 4.4 1.4 6.5 1.6 11.2-6.3 16.8-23.5 24.6-33.7" class="b"/><path d="M13.8 176.1c1.8.7 3.9.3 5.7.4 2.5-.3 5-1.2 7.4-1.7q6-1.4 12.3-.2c1.7-.3 3.3-1.8 4.9-2.6 2.5-1.6 5.2-3.2 8.1-4 4.9-1.4 9.8.5 14 3l4 2.5q1.2.8 2.5 1c6.8-3.7 11.7-8.2 19.6-3.7 2.8 1.2 5.3 3.3 8.2 4.3 12.1-6.5 15.4-8.4 27.8-.7q1.3 0 2.5-.6l4-1.4c6-2 12.3-1.5 18 .7 11.8-7.2 17.1-25.2 25.4-36.3" class="b"/><path d="M13.8 174.2c1.3.4 2.8.2 4.1.2l4-1.1q9-3.1 18-.5c7.8-4.2 13.9-9.4 23-5.3q3 1.3 5.7 3c1 .4 2.1 1.5 3.3 1.3 4.3-2.6 8.5-6.8 13.9-6.8 6 .5 10.4 5.5 15.5 8.1 3.3-1.1 6.4-3 9.8-4 6.1-1.6 11 1.1 16.4 3.7 8.7-3.9 15.2-6.2 24.5-2.7 11-6 17.3-25.8 24.5-35.8h1.7" class="b"/><path d="M13.8 172.2c1.3.4 2.8 0 4.1-.4l5-1.6a26 26 0 0 1 17 .5c1.5 0 2.9-1.2 4.2-1.8 10.5-6.3 15.7-5.6 26.1.3h.9c4.8-3.2 10-9.2 16.3-7.6 5.7 1.8 9.6 6.8 14.7 9.6 2-.3 3.9-1.5 5.8-2q7.8-3 15.5.6c1 .3 2.2 1.1 3.3 1l4-1.8c4.9-2.2 10.2-4 15.6-3 2 .2 3.8 1.1 5.7 1.4 11.2-9 15.5-23.3 23-35.1h3.2" class="b"/><path d="M13.8 170.3c2.8-.4 5.5-2 8.2-2.6a23 23 0 0 1 13-.5c2 .4 3.9 1.3 5.8 1.7 7.2-3.6 13.7-8.1 22-5.1q2.6.9 5 2c.7.4 1.6 1 2.4.9 5.4-3.8 11.6-11.6 18.8-7.7 5.1 2.8 8.9 7.6 14 10.4 1.9-.3 3.8-1.3 5.7-1.7 4.5-1.5 9.4-1.2 13.9.5l2.4.9c1.7-.1 3.3-1.4 5-2 7-3.6 13.5-5.1 21.2-2.2a67 67 0 0 0 16.3-23l4.1-8c.7-1.1 1.3-3 2.5-3.7h4" class="b"/><path d="M13.8 168c11.9-4.9 14.8-5.6 27-1 11.8-5.7 15.9-8.5 28.6-2.5 4.5-3.3 8.3-8.2 14-9.4 3-.6 5.8 1 8.1 2.8 4.1 3.2 7.6 7.5 12.3 9.8 6.6-2.1 12-3.2 18.8-1q1.2.6 2.4.5l4.1-2c5-2.5 10.6-4.8 16.4-3.9l3.3.7c.7.2 1.6.7 2.4.4 1.8-2 4-4 5.7-6.1q3.8-4.7 6.6-10 3-5.6 5.7-11c1.3-2.3 2.2-5.3 4-7.1h5" class="b"/><path d="M13.8 165.5c11.7-5.5 15.2-5.2 27-.3 10.7-4.9 16.1-8.4 27.8-3.1.9-.2 1.8-1.1 2.5-1.7q2.3-2.1 4.9-4.1c7.9-6.5 12.1-3.9 18.8 2.4q3 3.1 6.5 5.6c2 1.4 2.5 2 5 1.1a30 30 0 0 1 16.3-.2c1 .5 2.3 0 3.3-.5 3.4-1.7 6.9-3.6 10.6-4.7 4.5-1.4 9.4-1 13.9.6q4-3.7 7.3-8c6-8.1 9.9-17.6 14.8-26.3 1.8-.4 3.8-.1 5.7-.2" class="b"/><path d="M13.8 163c11.9-6 15.3-4.5 27 .3 11.1-4.7 15.6-8 27.8-3.4 5-3.7 11-11.3 18-8.9 3.5 1.4 6.2 4.3 9 6.8a43 43 0 0 0 6.5 5.3c1.6 1 2.3 1.2 4.1.6q5.6-1.5 11.5-1.1 2.8.3 5.7 1l4-2q4.5-2.1 9-3.5a21 21 0 0 1 11.5.1q1.3.5 2.5.5c2.7-3 5.8-6 8.2-9.4 5.4-7.8 9.2-16.7 13.9-25 1.8-.5 3.8-.1 5.7-.2" class="b"/><path d="M13.8 160.6c6.6-3.3 11.6-5.1 18.8-2.5 2.8 1 5.4 2.4 8.2 3.2 6.8-2.5 13.7-6.4 21.3-5q2 .3 4 1c.8.1 1.7.6 2.5.4 5.2-3.7 11-10.7 18-8 3.1 1.3 5.7 3.8 8.2 6q3 3 6.5 5.3 1.2.7 2.5 1.1h1.6a36 36 0 0 1 17.2-.5c10-4 15.6-8.2 27-4.4 1-.3 1.7-1.4 2.4-2l4.1-4.4c7.3-8.6 11-19.5 17.2-28.8h4.9" class="b"/><path d="M13.8 158.4c10.1-5.4 14.5-4.1 24.5.3q1.3.5 2.5.7 2-.7 4-1.6 4-1.6 8.3-2.8a24 24 0 0 1 13 .3c1.4.5 2.2.8 3.3-.2q3.9-3.2 8.2-5.6c3.3-1.8 7.4-2 10.6.2 5 3 8.7 7.7 14 10.1 3.7 1 7.6-.7 11.4-.8q2.8-.2 5.7 0c1.3.2 2.8.8 4 0 9.7-4 15.7-6.7 26.3-3.1 1.2-.8 2.2-2.1 3.2-3q2.6-2.5 5-5.4c6.5-8.5 10.4-18.6 16.3-27.6h4" class="b"/><path d="M13.8 156.3c10.1-5.2 14.6-3.5 24.5.6l1.7.6q2-.4 4-1.2 4.2-1.6 8.3-2.8a26 26 0 0 1 13.9 0c1.2.3 2.2.8 3.2-.2q3.9-2.9 8.2-4.9c7.7-3.5 13 2.5 18.8 6.7 2 1.2 4 3 6.5 2.9h4.1q3.3-.7 6.6-1 2.8-.3 5.7 0c1 0 2.3.6 3.3 0 10.2-4 16-6 27-2.4q6.1-5 10.6-11.2c5.7-8.1 9.5-17.7 15.5-25.5h2.5" class="b"/><path d="M13.8 154.4c8.7-4.2 13.4-3.5 22 0q2.1.8 4.2 1.2l4.9-1.5c9-3.2 14.3-4.2 23.7-1.9 5.7-3.4 12.2-7.3 18.8-3.8 3.2 1.6 6 4 9 5.7 1.3.7 2.7 1.6 4.1 1.9h3.3l4-.1q3.3-.7 6.6-1h5l2.4.2 1.6-.6c10-4 16-4.3 26.2-1q3.9-3 7.3-6.4a70 70 0 0 0 8.2-11.5c4.2-6.7 7.5-14.2 13.1-19.8" class="b"/><path d="M13.8 152.6c9.2-4 13.9-2.7 23 .5l2.4.7q2-.4 4-1c3-1 6-2 9-2.7q8.2-1.8 16.4.5c2.8-.9 5.3-2.6 8.2-3.2 8.7-2.6 13.9 3.5 21.2 6.4 2.2.3 4.4 0 6.6.1 3.6.2 7-1 10.6-1.2h6.6q.8-.1 1.6-.5a36 36 0 0 1 26.2 0c14-7.4 18-24.3 28.6-35.2" class="b"/><path d="M13.8 151c8.3-3.1 13-2.5 21.3 0l3.2.8c2 0 4-.8 5.8-1.2 9-2.7 16-4.1 25.3-1.6 6.4-2.5 12.3-3.7 18.8-.6 2.7 1.1 5.3 2.7 8.2 3.4h9.8c2 0 3.9-.7 5.7-1q4.5-.9 9-.5c1.4.2 2.8-.6 4.1-.9q3-.8 5.7-1.1 6.2-.6 12.3 1l4.1 1c1 .2 2.2.8 3.3.5 13.4-6.5 17.7-22.2 27.8-32.2" class="b"/><path d="M13.8 149.4c8.3-2.5 13-2 21.3 0 3.5 1 7.1-.3 10.6-1.1 5-1.3 10.3-2.5 15.5-2.1a45 45 0 0 1 9 1.4l2.5-.6c8.1-2 13 0 20.4 2.6 1.6.3 3.3.1 5 .2h7.3c1.6 0 3.3-.6 4.9-1q3.6-.8 7.4-1.1c1.5-.2 3.3.2 4.9 0q4-1.1 8.1-1.3c6.8-.4 13.2 2 19.7 3.3 13.5-5 18-20.1 27.8-29.4" class="b"/><path d="M13.8 147.7c3.6-.3 7-1.3 10.6-1.1 3.6 0 7.1 1 10.7 1.1H40l10.6-2.3a43 43 0 0 1 20.5.7q2-.1 4-.4c5.3-.6 10.5.8 15.6 2h14.7q2-.4 4-1 4.5-1.5 9-1.8c2-.2 4 .5 5.8.1 6.9-1.4 13.8.3 20.5 2q2.8.9 5.7.7 2 .2 4-.8c10.8-4.8 15.4-17.3 23.8-25" class="b"/><path d="M13.8 145.7c3.3.1 6.6-.3 9.8-.3q3 0 5.7.3h8.2q3.3 0 6.6-.7l8.1-1.5a51 51 0 0 1 20.5 1.3q3.3-.1 6.5 0 3.8.3 7.4.9h18q4-1.4 8.2-2.7 4-1.3 8.1-1.2c1.7 0 3.3.6 5 .7 5.5-.4 11 1.1 16.3 2.4l3.3.7h4q3 .2 5.8 0c10.2-3.8 15-15.2 22.9-22" class="b"/><path d="M13.8 143.6H40c3.8-.1 7.6-1.2 11.4-1.6q8.3-1 16.4.4 3.7.6 7.4 1.1 8.2.2 16.3.1 6 .2 12.3-.1c3.6-1.1 7-2.8 10.6-4a20 20 0 0 1 12.3 0c2.6 1 5.4 1.3 8.2 2q4.5 1.2 9 2.1h13.9q2.6-1.1 4.9-2.8c5.9-4.5 10-11 15.5-16" class="b"/><path d="M13.8 141.6h27.8c3.8-.2 7.6-1.1 11.5-1.3q5.7-.5 11.4.1c3 .3 6 1 9 1.2h28.6c4.6-1.5 8.6-4.1 13.1-5.7 6-2.2 11.8-.6 17.2 2.3l4 2q3 .7 5.8 1.3h5.7c4 0 8.2.3 12.3 0 7.5-3.2 12-10.6 18-15.7" class="b"/><path d="M13.8 139.5h30.3c3.8-.3 7.6-.9 11.4-1q7 0 14 1H98c1 0 2.3.2 3.3-.3 4.6-1.6 8.6-4.6 13-6.6q8.5-3.7 16.5 1c3.7 2 7.3 4.5 11.4 5.9H161c5.6-.3 12.7-9.7 17.2-13.2" class="b"/><path d="M13.8 137.5h32.7q5.8-.5 11.5-.5 3.7.1 7.3.4H99c3.5-1 6.7-3.2 9.8-5.3 4.3-2.8 9.2-6 14.7-5.4 7.5 1 12.8 7.3 19.6 10.2 2 1 4.4.4 6.6.5 4.9 0 9.8.3 14.7 0 5.5-2.5 9.4-7.3 13.9-11" class="b"/><path d="M13.8 135.4H94c1.3 0 2.8.2 4-.3 3.6-1.3 6.8-3.7 9.9-6 4.5-3.3 9.5-7.5 15.5-6.9 9 .7 17.7 13.8 25.4 13.2h17.1a21 21 0 0 0 4.1-2.4c2.9-2 5.5-4.6 8.2-6.8" class="b"/><path d="M13.8 133.3h81.8c4.8-1 8.6-4.6 12.3-7.6 4.4-3.6 9.3-8.3 15.5-8 9.6 1.2 15.6 12 24.5 15.4.7.3 1.8.2 2.5.2h16.3c3.5 0 8.7-5.2 11.5-7.4" class="b"/><path d="M13.8 131.3h79.3q3-.7 5.8-1.7c3.3-1.8 6.1-4.6 9-7 4.4-4 9.1-9.1 15.5-9 9.4.5 16.2 12.2 24.5 16.3q1.6 1 3.3 1.4h18c3.4-.9 6.2-3.6 9-5.6" class="b"/><path d="M13.8 129.2h67.9q4.1.2 8.2-.1 5.9-1.3 11.4-3.7c2.5-1.6 4.5-3.9 6.6-5.8 4.6-4.3 9.5-10.2 16.3-10 9 .7 16.1 12.3 23.7 17q2.8 1.6 5.8 2.6h17.9q3.6-1.6 6.6-4" class="b"/><path d="M13.8 126.8c6.3.6 12.6.3 18.8.4h51.5q5.1-.7 9.9-2.4t9.8-3.8l4.9-4.9c4.5-4.4 9.4-10.5 16.3-10.2 9.3.8 17 14 25.4 18.6q3 1.9 6.5 2.7h16.4q2.6-1 4.9-2.6" class="b"/><path d="m13.8 124.3 14 .8h50.6q5.8-.8 11.5-2.4c3.8-1 7.6-2.7 11.4-4l4.1-1.5 5-5.2c4.3-4.4 9.4-10.3 16.3-9.4 9.2 1.7 16.6 14.6 25.3 19.4q3.2 1.6 6.6 3c2.6.4 5.5 0 8.1.1h6.6q1.2 0 2.4-.2l2.5-1.2" class="b"/><path d="M13.8 122c6.3 0 12.6.6 18.8 1h41.7q5-1 9.8-2.3 5.4-1.2 10.7-3 5.5-2.2 11.4-3.7c1.3-.6 2.3-2.1 3.3-3.1q3-3.6 6.5-6.7c3.5-3.2 8.4-5.8 13.1-4.2 4.2 1.4 7.5 4.6 10.6 7.5 4.8 4.7 9.5 9.8 15.6 12.7 6.5 3.5 5 2.8 12.2 2.9h6.6c1.3 0 2.9.2 4-.6" class="b"/><path d="M13.8 119.8q6.7-.2 13 .5c3 .1 6.1.7 9 .7q17.7.2 35.3 0c6.3-1.6 12.4-4 18.8-5.3 3.8-1 7.6-2.4 11.4-3.4 2.1-.6 4.4-.8 6.6-1.4 8.3-9 16.1-20 28.6-9.7 4.6 3.6 8.5 8 13 11.7q3.2 2.4 6.6 4.3l5 3c1.9 1.3 4.2.7 6.5.8h10.6" class="b"/><path d="M13.8 117.7c7.4-.6 14.8.4 22 1.3q12.5-.1 24.6 0h7.4a61 61 0 0 0 7.3-2.4q4.5-1.7 9-3.2l8.2-1.9q5.2-1.3 10.6-2.2c1.9-.4 4-.2 5.8-.8 8.8-9.6 16.5-19.7 29.4-9 5.5 4.3 10.2 9.7 16.4 13.2 3.3 1.8 6.2 4.6 9.8 6.2q7 .1 13.9 0" class="b"/><path d="M13.8 115.8q6.6-.8 13 0c3.4.2 6.6 1 9.9 1.1 7 .1 14.2-.6 21.3-.2q3.6.3 7.3.2a48 48 0 0 0 7.4-2.6c3.5-1.5 7-3.2 10.6-4.3q3.2-1 6.6-1.3c6.2-1 12.5-2 18.8-1.8 1.5-1 2.7-2.8 4-4q3-3.4 6.6-6.2c10.2-8 18.1-.6 26.2 6.1a79 79 0 0 0 6.5 5q2.5 1.6 5 3c2.3 1.8 4.7 3.9 7.3 5.4 1.6 1.1 3.8.6 5.7.7h8.2" class="b"/><path d="M13.8 114q6-.8 12.3-.5c3.5.2 7 1.2 10.6 1.3 6.8 0 13.6-.8 20.5-.4q3.2.1 6.5.4 4.3-1.3 8.2-3.3c4-2 7.9-4.3 12.2-5.3q3.3-.5 6.6-.6a146 146 0 0 1 15.5-.3c1 0 2.3.3 3.3 0C117.7 96.9 125.7 87 138 95c5.4 3.3 10 7.7 15.5 10.8 3.4 1.5 6.1 4.2 9 6.4 1.5 1 3.1 2.5 5 2.6h10.6" class="b"/><path d="M13.8 112.3q5.7-1 11.5-.8c3.5.1 7 1 10.6 1.3 6.8-.3 13.6-1 20.4-.7q3.3 0 6.6.4c2.9-.7 5.6-2.3 8.2-3.7 4.1-2.2 8.3-5 13-5.8 3.8-.5 7.7 0 11.5 0l9 .8c1.6.1 3.3.6 4.9.5 9.2-8.9 17-18.1 30.3-10 5.2 3.1 10 7 15.5 9.5 3 1.6 5.5 4.1 8.2 6.2 1.5 1 3 2.5 4.9 2.8h9.8" class="b"/><path d="M13.8 110.2q2 .2 4.1-.1a45 45 0 0 1 16.4.6c7.6-.3 15.2-1.2 22.9-.9l5.7.3q4.6-2 9-4.7c3.8-2.3 7.7-4.8 12.2-5.3 2.2-.2 4.4.3 6.6.5a275 275 0 0 1 14.7 2.4c1.3.1 2.8.7 4.1.5 9.2-8.4 17.1-17.1 30.3-10.3q4.9 2.7 9.8 5.5 3.2 1.6 6.5 3c3 1.7 5.5 4.2 8.2 6.3 1.5 1 3 2.5 4.9 2.7h9" class="b"/><path d="M13.8 107.7q2.4.4 5 .6a51 51 0 0 1 13.8.2c8.5 0 17-1.4 25.4-1 1.8 0 4 .7 5.7-.2 4.3-2 8.1-5 12.3-7.2 6.5-3.5 9.5-2.7 16.3-1q8.1 2.1 16.4 3.9c1.2-.5 2.2-1.7 3.2-2.4q2.8-2.5 5.8-4.6c4.6-3.5 10.4-6.2 16.3-5.1 4.7.7 9 3 13.1 5q4.4 2.1 9 3.6c3 1.5 5.5 4 8.2 6 1.5 1.1 3 2.7 4.9 2.9 3 .5 6 .2 9 .3" class="b"/><path d="M13.8 105.2q3.7.7 7.4 1 3.7-.1 7.3 0c3.8.5 7.7 0 11.5-.2q8.5-.6 17.2-.8l4.9.2c1.1-.1 2.2-.9 3.2-1.4l4.1-2.5c13.7-9 14.3-6.3 28.6-1.8l6.6 1.9c1.3.2 2.7.9 4 .7 6.3-4.3 12.1-9.8 19.7-11.2 6.2-1.2 12.3 1.3 18 3.5q3.2 1.3 6.5 2.3 2.6.5 5 1.7c3.1 1.8 5.8 4.5 9 6.5q2.8.7 5.7 1.2c1.8.5 3.8.3 5.7.3" class="b"/><path d="M13.8 102.8c14.8 3.6 30 0 45 .2q2 .2 4 0 3-1.5 5.8-3.3c5.3-3.3 11.6-7.7 18-5.1 6.4 2.5 12.8 5.4 19.6 7l1.7.1 1.6-1 5-3c12.9-8.6 19.2-7.7 33.4-3.1q2.4.7 5 1.2 2 .2 4 .9c3.3 1.3 6 4 9 5.7q3.8.5 7.4 1.3c1.6.3 3.3.9 5 .9" class="b"/><path d="M13.8 100.4c16.1 4.4 32.7 0 49 .4 6.7-3 12.8-9.1 20.5-8.2 2.6.4 5 1.8 7.4 2.8a80 80 0 0 0 15.5 5.5c1.1 0 2.3-.8 3.3-1.2 16.2-9 20.2-10.1 38.4-5.6 7.8 1.7 8.3-.1 15.6 5 .6.5 1.7.5 2.4.5l3.3.5q4.5.8 9 2" class="b"/><path d="M13.8 98.2c15.5 4.7 31.7.5 47.4.5q1.3 0 2.5-.3 2-1 4-2.2c4-2 7.9-4.5 12.3-4.8 4.2-.4 7.9 2.2 11.5 3.9a52 52 0 0 0 13.9 4.7c9.6-3.3 17-8.7 27.8-8.2 5.5.2 11 1.6 16.4 2.2q3.3.3 6.5.4 2.6.5 5 1.8c.6.4 1.6 1 2.4.8a47 47 0 0 1 14.7 2.2" class="b"/><path d="M13.8 96.2c3.8.9 7.6 2 11.5 2.1q13 .4 26.1-1.1 5.8-.7 11.5-.6a3 3 0 0 0 1.6-.5q1.7-.7 3.3-1.6c3.1-1.5 6.3-3.2 9.8-3.8 4.6-1 8.4 1.1 12.3 3.2q5.8 3.2 12.2 4.4 2.5.3 5-.4 3.7-1.1 7.3-2.5a50 50 0 0 1 16.4-3.4c5.7-.1 11.4 1 17.1 1.5q2.9.3 5.8.2 3.4-.3 6.5 1c1 .3 2.3 0 3.3 0a46 46 0 0 1 14.7 1.6" class="b"/><path d="M13.8 94.3c2.7.6 5.4 1.5 8.2 1.9s5.5 0 8.2.1q9 .3 18-.6 8.1-1 16.3-1.3c3.5-1.4 7-3.2 10.6-4q5.1-1.4 9.9.6 4.4 2.3 9 4.2c1.8.6 3.7 1.3 5.7 1.2l7.3-.1c6-1.4 11.9-3.4 18-4 8.2-1 16.4.7 24.6 1l6.5-.3c1 0 2.3.4 3.3.2a43 43 0 0 1 18.8.2" class="b"/><path d="M13.8 92.5q3.6 1 7.4 1.7 2.8.2 5.7 0H44c6-.4 12-1.3 18-1.5q1.6 0 3.2-.2 3.6-1.3 7.4-2.5C85 86.5 87.8 95 98 94.3h10.7c6.4-1.3 13-2.7 19.6-2.7 8.2-.1 16.3 1.4 24.5.9 3.9-.2 7.7-1.3 11.5-2a37 37 0 0 1 13.9 0" class="b"/><path d="M13.8 90.9c2.4.4 4.9 1.4 7.4 1.3h26.1q5.4-.4 10.7-1 4-.5 8.2-.5 2-.5 4-1.1c8.4-2.3 12-.8 19.7 2.2 2.3.8 5 .3 7.3.4h13.1q6.5-1 13-1.3c8.3-.4 16.5.7 24.6.8 10.3.1 20-5.5 30.3-4" class="b"/><path d="m13.8 89.3 4.1.9h33.5q5.4-.7 10.7-1c2.1-.3 4.4-.1 6.5-.4 4.5-1.1 9.4-1.6 14-.4 2.1.4 4.2 1.7 6.5 1.8h16.3q6 .1 12.3-.4c6.5-.4 13 0 19.6.4q7.4.1 14.7-.1 5.4-.8 10.7-2.3c5-1.4 10.2-3 15.5-2.8" class="b"/><path d="M13.8 87.8c3.2.6 6.6.2 9.8.3h17.2c6.5 0 13.1.3 19.6-.5 4.4-.5 8.8-.2 13.1-.8A31 31 0 0 1 85 88q1.6.2 3.2.1h21.3q2.5-.1 4.9-.4 3.7-.3 7.3 0c6 .7 12 .3 18 .4h10.7c2.1 0 4.4.2 6.5-.3 7.2-1.2 14-4.6 21.3-5.2" class="b"/><path d="M13.8 86H58c4.9 0 9.8-.7 14.7-.3q4.5-.2 9 .4h22.9c1.6 0 3.3-.8 4.9-1a34 34 0 0 1 19.6.4q2.4.8 5 .6h24.5c6.7-1 12.9-4.4 19.6-5.6" class="b"/><path d="M13.8 84h87.5c4.2-.9 8-3.1 12.3-4 5.8-1.5 11.7.4 17.2 2.5l4 1.4q2.9.1 5.8.1h21.2c5.7-1 10.8-3.8 16.4-5.3" class="b"/><path d="M13.8 82h81.8c1.3-.1 2.8.1 4-.3 4.3-1.5 8.1-4 12.3-5.6 6-2.4 11.7-1 17.2 1.9q4.4 2.3 9 4h27c4.5-1.2 8.7-3.3 13-4.8" class="b"/><path d="M13.8 79.9h83.5c5.2-2 9.5-5.9 14.6-8.2 5.7-2.7 11.2-1.6 16.4 1.5 2.7 1.5 5.4 3.4 8.2 4.8 1.5.8 3.2 1.8 4.9 1.9h21.2c2 0 4 .2 5.8-.2q5-1.6 9.8-3.7" class="b"/><path d="M13.8 77.9h81c4.6-.4 11.8-7.5 16.3-9.9 6.4-3.8 12-2.7 18 1.3 4.8 3 9.2 7.2 14.7 8.5H170c2.8-.5 5.5-1.8 8.2-2.8" class="b"/><path d="M13.8 75.8h72.8q4.1.1 8.2-.1c6.2-2.5 10.7-7.8 16.3-11.4 6.4-4.2 12-3.3 18 1 5.4 3.6 10.1 8.5 16.4 10.4q4.1.2 8.2 0h18.8l5.7-2" class="b"/><path d="M13.8 73.7q9.8.1 19.6-.2c11.5.4 23 .2 34.4.2h23.7c4.8.1 8.7-3.9 12.3-6.7 4.7-4 9.7-9.2 16.3-9 8.8.7 15.3 10 23 13.9q2.2 1.3 4.8 1.8h26.2q2.1-.7 4.1-1.5" class="b"/><path d="M13.8 71.7h9q4.9-1 9.8-1 6.2.1 12.3 1h43.3l7.4-1.8a6 6 0 0 0 3.3-1.5q2-1.5 4-3.4c4.9-4 9.7-9.5 16.4-10 8.6 0 15.2 8.8 22.1 13q3.7 2.7 8.2 3.7h25.3l3.3-1.2" class="b"/><path d="M13.8 69.6h5.7q3-.6 5.8-1.2 6-1.3 12.2-.8c5.2.4 10.4 1.4 15.6 2q6.5.1 13 0h12.3c2.7 0 5.6.4 8.2-.6 3.7-1.3 7.5-2.7 11.4-3.2 1.3.1 2.4-1 3.3-1.7l3.3-2.8c3.9-3.4 7.9-7.2 13-8.3 6.7-1.4 12.4 3.6 17.2 7.5 4.7 3.8 9.6 7.7 15.6 9q4 .1 8.1.1h17.2l2.5-.9" class="b"/><path d="M13.8 67.6c2 0 4 .1 5.7-.6q4.8-1.6 9.8-2.6c6.8-1.2 13.8 0 20.5 1.2a124 124 0 0 0 17.2 2c4.6-.1 9.3.3 13.9-.5 3.1-.4 6-1.9 9-3.1q5.4-2.4 11.4-2c9.3-7.7 16.5-15.9 28.6-7.3 7 4.8 13.4 11.5 22.1 12.9h22.1q2.2.2 4-.7" class="b"/><path d="M13.8 65.5c2 .2 4-.5 5.7-1.2q3.7-1.6 7.4-2.7c10.3-3.4 20.8-.5 31 1.4a70 70 0 0 0 20.5 1q3.4-.6 6.5-1.8 2.1-1 4.1-2.1a19 19 0 0 1 14-1.5c1.7-.8 3.2-2.5 4.9-3.6 3-2.4 6.6-4.6 10.6-5.1 7-.8 12.7 4.2 18 8 4 2.9 8.2 5.7 13 7 3-.3 6 .3 9 .5q4.5.2 9 .1h6.6c1.3 0 2.9.2 4-.5" class="b"/><path d="M13.8 63.5c4.6-.8 8.7-3.6 13-5.1 12-5 22.4-1.5 34.4.7 6.2 1 12.7 1.8 18.8.5 3.3-.6 6.2-2.4 9-4 5-2.7 10.6-2.4 15.6 0 .9 0 1.7-.8 2.4-1.3q2.4-1.7 5-3c7.7-4.4 14.4-1.6 21.2 3 3.3 2 12 8.4 15.6 7.7 3-.5 6 0 9 .4l9 .7 6.5.3c1.6 0 3.4.3 4.9-.4" class="b"/><path d="M13.8 61.2c4.7-1.2 8.7-4 13-6 13.2-6.5 22.7-3.5 36-.7a43 43 0 0 0 17.2.6c3.4-.6 6.2-2.5 9-4.1 6-3.2 12-1.1 17.2 2.4.9 0 1.7-.8 2.5-1.2q2.3-1.4 4.9-2.4c8.7-3.6 16.4 1.6 23.7 6a63 63 0 0 0 8.2 3.9l1.6-.4a19 19 0 0 1 8.2-.3l8.2 1 9 1c1.8 0 4 .8 5.7 0" class="b"/><path d="M13.8 59c5-1.5 9.3-4.8 14-7.3 13.2-7.6 22-5.5 35.9-2.2a39 39 0 0 0 17.2.9c3-.6 5.5-2.5 8.1-4 6.8-3.4 13.6 1.2 18.8 5.3 3-1.1 5.9-2.7 9-3 10-1.5 18 5.9 27 8.8 6.7-2.5 8.8-2.2 15.6-1q9 1.3 18 2.8l.8-.3" class="b"/><path d="M13.8 56.6c2-.2 4-1.5 5.7-2.5l7.4-4.7c12.6-8.6 20.6-9.7 35.2-5.7C67.9 45.2 74 47 80 46a18 18 0 0 0 4.9-1.5q2-1.2 4-2.2c8-3.4 14.7 3.9 20.5 8.3 13-5.6 21 1.3 32.7 5 3.6-1.5 7.4-3.3 11.5-3a161 161 0 0 1 21.2 4.2c1 .1 2.3.7 3.3.2" class="b"/><path d="M13.8 54q1.2 0 2.5-.2l3.2-1.8q3.9-2.5 7.4-5.2c11.5-8.8 19.7-13.1 34.3-8.7 7.4 2 15.4 5.2 23 2.5q2-1 4-2 2.3-1 5-.8c6.7.9 11.4 6.5 16.3 10.7l.8.7.8.2 2.5-.6a27 27 0 0 1 6.5-.4c7.2.3 13.6 3.8 20.5 5.4 3.9-1.8 7.8-4.2 12.2-4.4 5.6.2 11 2 16.4 3.4l5.7 1.7c1 .2 2.2.7 3.3.5" class="b"/><path d="M13.8 51.6c1.3-.1 3 0 4.1-.6a58 58 0 0 0 7.4-5.2c7-5.5 13.8-12.5 22.9-14.2 9.7-1.8 18.5 4 27.8 5.6 4.7.8 8 0 12.2-2 9.3-3 17.2 8.5 23.8 13.5 9.8-2 17.7 1.6 27 3.5 4.2-2 8.3-4.9 13-5.5 5.6-.4 11.1 1.7 16.4 3.4l5.7 2c1.3.3 2.7 1 4.1.8" class="b"/><path d="M13.8 49.2H18q3-1.8 5.7-4C33.5 37.4 43 24 57.2 26.8 65 28.2 72 33.2 80 33.9q2.5.3 5-.4c1.5-.4 3.2-1.2 4.9-1.3 7-.2 12.3 6 17.1 10.4l4.1 3.8c.7.5 1.6 1.4 2.5 1.6 5.2-.5 10.4.2 15.5 1.2q4.1.9 8.2 1.5 1.7-.7 3.3-1.6c4.1-2 8.3-5 13-5.1 5.5 0 10.6 2 15.6 4q2.9 1.3 5.7 2.2c1 .3 2.2.9 3.3.7" class="b"/><path d="M13.8 46.9q2.4.3 5 .1 4.4-2.7 8.1-6.3c5.9-5.5 11-12 18-16 10-6 18.6-.5 27.8 3.8 13 5.8 12.2.5 19.6 2.1 3.8 1 7 3.7 9.8 6.2 4 3.5 7.8 7.5 12.3 10.4a79 79 0 0 1 14 1l4.8.7q1.7.3 3.3 0c5.3-2 9.9-5.8 15.5-7 6-1 11.8 1.7 17.2 4l5.7 2.3c1 .3 2.2.9 3.3.8" class="b"/><path d="M13.8 44.7c5.6 1 5.4.8 9.8-2.6 9.3-7.3 18.5-24 31.1-23.9 8.3.3 14.8 6.3 22 9.4 2.9 1.2 6 2.1 9 1.7q3-.7 5.8 0c3.7 1 6.9 3.5 9.8 5.9 4 3.3 7.8 7.2 12.3 10 1 .5 2 1.2 3.3 1l4.9.3q6.5.7 13 .5c2 0 4-1.2 5.8-2 3-1.5 5.8-3.2 9-4.3 6-2.3 12.4 0 18 2.5q3.1 1.5 6.5 2.8c1.3.4 2.7 1.1 4 1" class="b"/><path d="M13.8 42.7q2.8.8 5.7.8 4.1-2.4 7.4-5.7c6.7-6.6 11.8-14.8 19.6-20.1 5.2-3.5 11-3.4 16.4-.6 6.9 3.4 12.7 9.4 20.4 11 2.1.5 4.4-.1 6.6.3 4.3.9 8 3.6 11.4 6.3 5 3.7 9.5 8.4 15.6 10.3h18.8c1.6-.3 3.3-1.2 4.9-1.8q4.4-2.3 9-4c6.7-2.7 13.5 0 19.6 2.9l5 2a9 9 0 0 0 4 .9" class="b"/><path d="M13.8 40.7q2.8 1 5.7 1.3C33 36.2 42.8 8 58.8 13c10.6 3.4 17.6 15.3 29.4 15 7.3 1.1 12.9 6.5 18.8 10.4 2.8 1.8 5.8 3.9 9 4.5h19.7c1.6 0 3.3-1 4.9-1.5 2.7-1 5.4-2.4 8.1-3.4 7.6-3 13.5-.8 20.5 2.4 2.9 1.1 5.8 2.8 9 2.5" class="b"/><path d="M13.8 39a27 27 0 0 0 5.7 1.4q1.8-.5 3.3-1.7c10.5-6.6 18.5-25.8 30.3-28 9-1.4 16.7 8.5 23.7 13 8 6 9.7 3 17.2 6.4 4.5 2.1 8.7 5.1 13 7.5q2.4 1.4 5 2.4c1 .4 2.1 1 3.2.9h21.3c8.6-1.7 16-7.5 25.3-4.7q5 1.5 9.8 3.5l3.3 1.1h3.3" class="b"/><path d="M13.8 37.2c2 .7 4.4 1.7 6.6 1.4q3.6-1.5 6.5-4.3c7.7-7 12.5-17 21.3-23 10.4-7 19.4 5.2 27 11 2.9 2.4 6 4.7 9.7 5.8 9.8 1.2 17.7 7.7 27 10.5 1.3.4 2.8.1 4.1.2h17.2c2.2 0 4.5.3 6.5-.4 7-1.7 14-5.1 21.3-3.6 4.2.9 8.2 2.7 12.3 3.8 1.5.4 3.3.1 4.9.2" class="b"/><path d="M13.8 35.6q1.6.6 3.3 1 2 .2 4 .1c2.9-1 5.3-3 7.4-5C34 26.4 38 20 43.3 14.5c4.4-4.7 10-8 16.3-4.8C68.5 14.4 74 23.8 83.3 28q2.8 1 5.8 1.6 3.7 1 7.3 2.4 4.8 2 9.8 3.7c1.9.5 3.8 1.3 5.7 1.2h27.8c5.2-1 10.3-2.6 15.6-3.2 5.6-.6 11 1.6 16.3 3 2.1.4 4.4 0 6.6.2" class="b"/><path d="M13.8 34q2.3 1 5 .7 2 .1 4-.2c7.5-3.5 11.9-11 17.2-17 18.3-23 26 2.2 42.5 10.4 2.3 1.2 5 1.6 7.4 2.2l10.6 3c3 .7 6 1.8 9 1.6h32.7q6.2-1 12.3-2c5.2-.7 10.4.7 15.5 1.9 2.7.3 5.5 0 8.2 0" class="b"/><path d="M13.8 32.3q1.2.5 2.5.3h3.2c1.6 0 3.5.4 5-.4 5.4-2.7 9.1-7.9 13-12.4C41 15.8 44.3 11.5 49 9 57.5 5 64.6 13.7 70.2 19c4.3 4.1 9 8.4 14.8 10.2q8.5 2 17.1 3.5 14.8.2 29.5 0H147l8.2-1c4-.4 8.2.3 12.2 1q5.4 0 10.7 0" class="b"/><path d="M13.8 30.6h10.6c9.8-4.1 15-17 24.6-21.6 8.6-3.6 15.5 5.3 21.2 10.5 4 3.8 8.5 7.6 14 9.2q3.6 1 7.3 1.3 4.1.8 8.2.6h36c7-.1 14.2.2 21.2-.2q3.7-.1 7.4.2h13.9" class="b"/><path d="M13.8 28.5h11.5C34.5 25 39.7 12.7 49 9c8.9-3.2 16 6.6 22 11.7 4.4 4 9.6 7.2 15.6 7.8h91.6" class="b"/></svg>