<svg xmlns="http://www.w3.org/2000/svg" id="a" width="1920" height="2400" viewBox="0 0 192 240"><defs><style>.b{fill:none;stroke:#fff;stroke-miterlimit:10;stroke-width:.3px}</style></defs><path d="M0 0h192v240H0z" style="stroke-width:0"/><path d="M12.7 231c2.8.2 5.6.9 8.3.5 2.2-.3 4.4-1.3 6.7-1.3 3 0 6 .5 9 .3 3.1-.3 6-1.8 9.2-1.8l5.8-.1q5.4.4 10.7 1.3c3.3 0 6.7-.8 10-.5 5.3-.3 10.4 2.2 15.7 2.2 3-.2 6-1.3 9.1-1.4q3.6-.4 6.7-2 2.3-1.7 5-3.2c1.7-.9 3.8-.1 5.7-.5 2.5-.2 5-1.5 7.5-1.1 3 .8 5 3.5 7.4 5 3 2 6.6 2.3 10 2.3q4.5.4 9.1.5 3.7.2 7.5 0c1.9 0 3.8-.6 5.8-.5 1.9.1 3.8.8 5.8.9h11.6" class="b"/><path d="M12.7 229.4q4.6.2 9.2-.7c1.9-.3 3.8-1.2 5.8-1.2 3.6 0 7.1 1.5 10.7.9q4-1 8.3-.8 3.8 0 7.5.3 4.1.5 8.2.7 3.4-.1 6.7-.7 3.2-.4 6.6-.5c2.8.3 5.5 1.3 8.3 1.6q3.3.4 6.6.4 3.7-.4 7.5-1 3.4-.4 6.6-1.8c1.7-.7 3.3-2 5-2.7q2-.4 4.1-.7c2.2-.4 4.5-.7 6.6 0 2.8.7 5 2.8 7.5 4.2a19 19 0 0 0 9.1 2h8.3q8.7.1 17.4-.3 8.2.5 16.6.2" class="b"/><path d="M12.7 227.1q5-.6 10-1.7c1.3-.2 2.8-.8 4.1-1 2.6-.2 5 1.2 7.5 1.8 3.5 1 7.2-.3 10.8 0q3.7.2 7.4.3 5.8.6 11.6.5c3.9-.3 7.8-1.2 11.6-1.5q3 .3 5.8 1l6.6.4q4.2.6 8.3-.1 3.4-.5 6.6-.7 3.5-.4 6.7-1.9l3.3-.7c6.6-2.1 10.4 3 16.6 3.6 5.7.7 11.6-.8 17.4-.3 2.4.3 5 0 7.4 0q2.5 0 5 .4h10.8q4.5-.1 9 0" class="b"/><path d="M12.7 224.5q3-1 5.8-1.8l6.7-1.3c3.6-1 6.5 2.4 10 3q2.4.3 4.9.1l7.4.3 7.5.1c5 0 10 .3 15-.4 1.8-.1 3.8-.6 5.7-.7q3.3.2 6.6.5 3-.1 5.8 0c2.2.4 4.5.9 6.7.7 3.5-.5 7.2-.2 10.7-.3 4-.2 7.8-1.2 11.6-1.2 2.5 0 5 1 7.5 1.3 3.3.4 6.6.1 10 0 3.5 0 7-1.4 10.7-1.2q2.4.5 5 .5c2.1-.2 4.4-.7 6.6-.2q2.1.5 4.1 1 2.2.2 4.2.1c4.7.2 9.4-.2 14 0" class="b"/><path d="M12.7 221.8c3-1.4 6-2.7 9.2-3 1.6-.2 3.3-.7 5-.4 1.7.5 3.3 1.8 4.9 2.6 2.7 1.8 6 1.5 9.1 1.5q6.6.5 13.3.3h13.2q4.2-.2 8.3-.7 4.1 0 8.3-.2 2-.1 4.1 0 2.5.6 5 .9h24q5 0 10-.2c3.2 0 6.6.3 9.9-.1 2.5-.3 5-1.6 7.5-1.8q2-.1 4 .4 1.8 0 3.4-.3c2.2-.5 4.6-.8 6.6.3 1.3.7 2.7 1.5 4.2 1.6 5.5.4 11-.1 16.5 0" class="b"/><path d="M12.7 219.1c4-2.2 8.8-3 13.3-2.7 2.4.4 4.4 2.2 6.6 3.2 2 1 4.5 1 6.7.9l5.8.1h24.8q5-.2 10-.6c2.1-.1 4.4-.6 6.6-.5 2 .1 3.8.9 5.8 1q4 .3 8.3.1l5-.5c4.6 0 9.3.7 14 .2 1.9-.2 3.9-.7 5.8-.6 4.1.3 8.3 1.4 12.4.4 2.3-.5 4.4-2 6.7-2.4 1.6-.4 3.3.4 5 .5 2.1 0 4.4-1 6.6-.7 2.1.2 3.7 2 5.8 2.7 2.1.5 4.4.3 6.6.4h10.8" class="b"/><path d="M12.7 217q3.6-1.4 7.5-1.4 2.9-.2 5.8-.2c3 .4 5.4 2.5 8.3 3q4 .2 8.3 0h15.7c8.6 0 17.2.2 25.7-1 2-.2 4 .4 5.8.8q2.4.4 5 .3 2.9.1 5.8-.2c1.6-.3 3.3-1 5-1.1 2.4-.2 4.9.6 7.4.6q3 .1 5.8-.4c1.8-.4 3.8-1 5.8-.7 5.8 1 11.2 2.7 16.5-.8 1.8-1 3.8-1.9 5.8-1.2q1.6.7 3.4.8c2.4.1 5-.2 7.4.9 1.4.5 2.7 1.6 4.2 1.8 2.4.4 5 .2 7.4.3h10" class="b"/><path d="M12.7 215.8c2.7-.8 5.6-.6 8.3-.7 2.5-.1 5-.5 7.5 0 2.1.6 4.4 1.4 6.6 1.2q4.2-.1 8.3 0h23.2c5-.4 10-.3 14.9-.6q3.8-.3 7.5.5 2.8.1 5.8 0c1.9 0 3.9.3 5.8-.1s3.8-1.4 5.8-1.4q2 .1 4.1.7 3 .4 5.8 0c2.2-.3 4.4-1.3 6.6-1.3 5 .5 10.1 2 15 .2 2.1-1 4.1-2.6 6.6-2.8 2 0 3.8 1.4 5.8 2l5.8 1.4c1.6.4 3.3 1.2 5 1.4h18.2" class="b"/><path d="M12.7 214.1q6.7-.2 13.3-.5c2.2 0 4.4.5 6.6.5 1.7 0 3.4-.5 5-.5l5 .4 11.6.1 5.8-.2h5c2.7 0 5.5-.6 8.2-.5l15.8.7c2.1 0 4.4-.4 6.6-.1q2.5.2 5-.1c1.6-.4 3.2-1.3 5-1.5 2.7-.3 5.4 1 8.2.8 2.8 0 5.5-1.2 8.3-1.6 1.9 0 3.9.5 5.8.6q4.1.3 8.3-.5c3-.7 5.9-3 9-2 2 .7 3.9 2 5.9 2.7q3.7 1.3 7.4 1.7c2 .1 4-.6 5.8-.6 3 .1 6.1.6 9.1.5q3 .2 5.8-.1" class="b"/><path d="M12.7 211.7c4.4.5 8.9.2 13.3.1q2.9.1 5.8.1c2.5-.2 5-1.2 7.5-.8q4.9.6 9.9.7 4.6.3 9.1-.4c1.9-.4 4-.1 5.8-.1l5.8-.2c3.6-.2 7.2.5 10.8.7q5.3.3 10.7-.2c5.5 0 7.9 1.2 13.3-1.2 3-1.1 6.1 0 9.1-.1 2.8 0 5.5-1.2 8.3-1.5 1.4 0 2.8.5 4.1.6q3 .4 5.8.2 2.6-.2 5-.6 2.4-.8 5-.7c2.3.2 4.4 1.5 6.6 2.2q3.2 1 6.6 1.3 2.2.3 4.2-.1c1.6-.4 3.3-1.1 5-1.2 3 .1 6 1 9 1.2q3 .5 5.9-.1" class="b"/><path d="M12.7 209c4.4 1 8.9.7 13.3.7q3.4.2 6.6-.1c1.7-.3 3.3-1 5-1 4.4.1 8.8 1 13.3 1q2.4.3 5-.2c1.5-.3 3.2-1 4.9-1 2.5 0 5 .4 7.5.4q4.1 0 8.2.5c3.6.8 7.2.2 10.8 0q4.1 0 8.3.4c2.4 0 5 .2 7.4-.5 2.2-.7 4.4-1.8 6.7-2h5.8q3-.6 5.8-1.2c2.5-.2 5 1 7.4 1.3 3.6.5 7.2-.5 10.8-.4 3.4.4 6.5 2.4 10 2.5 3 .2 6 .6 9 .1q2.2-.6 4.2-1.3c2.5-.7 5 .1 7.5.6 3 .5 6.1 1.5 9 .5" class="b"/><path d="M12.7 206.8q3.4.7 6.7.7h8.3q2.8.1 5.7-.2 3-.6 5.8-.8c4.5.2 8.9 1.3 13.3 1 3.3-.1 6.6-1.8 10-1.3q3.2.5 6.6.7c2.4 0 5-.3 7.4.2q2.5.5 5 .4 2.5-.2 5-.5 2.9.2 5.8.5h7.4q3 .3 5.8-.8c1.7-.7 3.3-1.7 5-2 2.2-.4 4.5-.2 6.6-.6 2.5-.4 5.1-1.3 7.5-.2q3.7 1.5 7.5 1.8c2.1.1 4.4-.2 6.6 0 2.5.3 5 1.4 7.4 1.7q5.4.3 10.8.1c2.3 0 4.4-1.3 6.6-1.7 2.3-.3 4.5.5 6.7 1 3 .6 6.2 1.2 9 .2" class="b"/><path d="M12.7 204.8c2.7.6 5.6.4 8.3.5h10.8q3.8-.1 7.4-.5 3.4.1 6.7.5c4.4.4 8.8-.4 13.2-.8 3.6-.2 7.2.6 10.8.2 1.6 0 3.4-.4 5-.2 1.9.1 3.8.7 5.8.8 1.9.1 3.9-.3 5.8-.3q2.9.3 5.8.3H103c2.4 0 4.6-1.2 6.7-2.3 2.3-1 5-.7 7.4-1.3 3-.6 5.4-1.2 8.3.4 2.3 1 4.9 2 7.5 2.1 2.1.2 4.4 0 6.6.3q2.4.5 5 .8h7.4q3.3.1 6.7-.3c1.6-.3 3.3-1 5-1.2 2.2-.2 4.4.6 6.6 1 3 .6 6.1.9 9 0" class="b"/><path d="M12.7 202.7c3.3.6 6.7.3 10 .3 7.7.3 15.5 0 23.2.2q7-.2 14-.3 3.8 0 7.5-.2 3-.3 5.8-.8c2.5-.2 5 1 7.5 1.2 1.9.2 3.9-.2 5.8-.1q4.5.3 9 .1 2.6-.2 5-.2c2.2.2 4.6.6 6.7-.2 1.6-.7 3.2-1.7 5-2 3-.4 6-1.2 9-1.5 1.8 0 3.5.8 5 1.5 3.6 1.8 7.7 2.1 11.6 2.1q3.3.3 6.7.4c3.8-.3 7.7 0 11.6-.2 2.5-.1 4.9-1.3 7.4-1.3 2.3 0 4.5.8 6.7 1.2 3 .4 6.2.6 9-.4" class="b"/><path d="M12.7 200.7c3.3.4 6.7 0 10 .2h19c7.7 0 15.5.2 23.2-.2 2.8 0 5.6-.8 8.3-1.1 2.8-.1 5.5 1.1 8.3 1.3 1.9.2 3.9-.1 5.8 0q5.8.3 11.6-.6c2.5-.3 5 .8 7.4.7 2.4-.3 4.4-1.9 6.7-2.4 3-.7 6-1.7 9-1.3q2.7.7 5 1.9c5.2 2.5 11.1 1.7 16.6 1.8q5.9-.1 11.6-.2c2.2-.2 4.5-1 6.7-1.3 2.5-.3 5 .7 7.4 1.2q5 .9 10-.6" class="b"/><path d="m12.7 198.5 12.5.3q6.6-.3 13.2-.5 11.6.8 23.2.4 3.4-.2 6.7-.6 2.7-.5 5.8-.5c3 .2 6 1.2 9 1.2 3.4-.2 6.7 0 10-.3 2.2 0 4.4-.6 6.6-1 2-.1 4 .7 5.8 1.2 3.1.7 5.6-1.9 8.3-2.9 3.6-1.7 8-2 11.6 0 6.7 4.2 7 2.6 14.1 2.8h9.1c3 0 6.1.2 9.1-.3s6.1-1.1 9.1-.2c4 1.1 8.5.8 12.5-.4" class="b"/><path d="M12.7 196.2c3.9 0 7.8.6 11.6.3 4.7-.5 9.5-.2 14.1-.7 3.3 0 6.6.8 10 .8h12.4l8.3-.8q3.7-.3 7.4 0 3 .5 5.8.8l5-.3q4.6 0 9.1-.6 2-.4 4.1-.6c3.2-.2 6.2 3 9.2.6q2.7-2.3 5.8-4.1c3-1.7 7-1 9.9.9 2.5 1.7 5 4.6 8.3 4q1.6-.3 3.3-.5l6.6.3 7.5.1c4.4.3 8.8-.3 13.2-.6 2 0 4 .6 5.8.7 3.1.3 6.2-.4 9.1-1.2" class="b"/><path d="M12.7 193.6q4.2.1 8.3.8 2.5 0 5-.4c2.7-.3 5.5.2 8.3.1 2.4 0 5-.6 7.4-.2q5.9.7 11.6.5h9.1c4.7-.4 9.4-1.2 14.1-.8 2 0 4 .6 5.8.8q2.5 0 5-.4 6.7-.1 13.2-1c1.7-.1 3.4.6 5 1.2 2.3 1 4.3-1 5.8-2.6 1.5-1.5 3.1-3.2 5-4.3 2.3-1.4 5.1-.9 7.4 0q2 1.2 3.4 2.9c1.7 1.9 3.7 4.6 6.6 4.2l3.3-.6c3.6 0 7.2.4 10.8.2 3 0 6 .5 9 .4q4.2-.1 8.4-.5c2.2 0 4.4.6 6.6.5 2.5 0 5-.8 7.4-1.4" class="b"/><path d="M12.7 190.7q2.2 0 4.2.3c1.6.3 3.3 1 5 1.2s3.8-.3 5.7-.3q4.2.2 8.3.2c4.7-.5 9.4.2 14.1.1l8.3-.2c2.7.1 5.5.4 8.3 0 5.8-.9 9-1.8 14.9 0 3 .6 6-.1 9 0q3.4 0 6.7-.3 2.5-.4 5-.4c1.6.2 3.3 1 5 .9 1.6-.2 3-1.7 4.1-2.8 1.6-1.5 3.2-3.3 5-4.5 3.7-2.8 8.2-1 10.7 2.5 2 2.2 4.2 5.4 7.5 4.8 4-.7 8.3-.4 12.4-.5q3.3.2 6.7.5l11.6-.1c2.7-.1 5.5.3 8.2 0q3-.5 5.8-1.4" class="b"/><path d="M12.7 187.4q2.6 0 5 .6c2.2.7 4.3 2 6.6 2h13.3c3.6-.2 7.2.1 10.8 0 3.8 0 7.7-.7 11.6-.2q3.7.5 7.4 0c3.8-.8 7.8-1.8 11.6-.9q2.4.7 5 1 2.4.2 5 .2 5.4 0 10.7-.3 3-.2 5.8.2c4 .3 7-3.6 10-5.8q5.7-5.1 10.7.7c3 3.2 5.2 6 10 5q5.3-.8 10.7-.3 3 .2 5.8.5c2.5 0 5-.5 7.5-.5q6.2.6 12.4.3c2.3 0 4.5-.8 6.7-1.3" class="b"/><path d="M12.7 184.5c2 .1 4 0 5.8.7 2.2.8 4.3 2.3 6.7 2.5 4.6.3 9.4 0 14 .1h7.5q3.4-.1 6.6-.5c3.6-.6 7.2.7 10.8.5 4.7-.3 9.4-1.8 14-1q3.8.5 7.6.8 4.5 0 9 .2h8.3q2.2 0 4.2-.2 2.1-.7 4.1-1.7c5.4-2.7 8.3-8.2 14.1-2.4 6.3 5.7 7.2 4.4 15 3.5 3-.2 6 .5 9 .8 4.2.5 8.3-1.3 12.5-1.4 2.7.2 5.5 1 8.2 1 3 .2 6.2-.4 9.1-.9" class="b"/><path d="M12.7 182.5c1.7.2 3.4-.2 5 0 2.7.1 5 2 7.5 2.7 3.5.8 7.2.2 10.7.4 2.8.2 5.6-.2 8.3 0 3.3.3 6.7-.3 10-.7s6.6 1 9.9.7q5.4-.6 10.8-.8c3.3 0 6.6.5 10 .4q3.7-.1 7.4-.1 5.3.7 10.7.6 3.5 0 6.7-1.3 2-.5 4.1-1.5c2.8-1.3 6.1-3.8 9.1-1.7 2.5 1.8 5.1 3.9 8.3 4.4 3.6.7 7.1-1.4 10.8-1.1 1.9.1 3.9.8 5.8 1q3.7.4 7.4-.6 3-.8 5.8-2 2.1-.7 4.2 0c1.9.4 3.8 1.2 5.8 1.5 2.7.3 5.5 0 8.2.1" class="b"/><path d="M12.7 181.1c1.7.2 3.4-.4 5-.6 3-.4 5.5 1.8 8.3 2.5 2.4.5 5 .3 7.5.4q4.1.2 8.2-.3c2.5-.3 5 .5 7.5.4 2.7 0 5.5-.9 8.3-.6q2.9.4 5.8.6 3.3-.2 6.6-.5 6.7-.1 13.3 0 4.1-.2 8.2-.2c3.3.2 6.7.9 10 .7q4.2 0 8.3-1.4a35 35 0 0 0 6.6-1.9c5.2-2.1 6.4.5 10.8 2.3q3.6 1.4 7.4.9c2.5-.4 5-1.7 7.5-1.5 2 .2 3.9 1.1 5.8 1.5 3.7.5 7.5-.6 10.8-2.3 3-1.7 4.6-3 8.2-1.8l4.2 1.5 8.3 1.6" class="b"/><path d="M12.7 180c2.3.2 4.5-.7 6.7-.7s4.4 1.1 6.6 1.6q3.4.4 6.6.4h5q2.1-.4 4.1-.9c2.2-.5 4.5.1 6.7.6q2.4.4 5 .3 2.4-.4 5-.6 2.8.1 5.7.6 3 0 5.8-.2 5.9-.3 11.6-.2l9.1-.2q3 .2 5.8.5 3.4.1 6.6.1c2.6.1 5-.8 7.5-1.4 3-.3 6-1.7 9.1-1.7 2.4 0 4.5 1.4 6.6 2.2a17 17 0 0 0 9.2.5c1.6-.4 3.3-1.2 5-1.5 5-.5 6.8 3.4 13.2 1.3q2.6-1 5-2.5c1.3-.8 2.6-1.9 4.1-2.3 2.5-.6 5.1.5 7.5 1.3q2 .7 4.1 1.1 2.4.9 5 1.6" class="b"/><path d="M12.7 178.7c2.8.3 5.6-.3 8.3-.2q3 .2 5.8.5l7.5.1c5.6.1 8.2-2.9 14-1.2 2.2.4 4.5 1.4 6.7 1.2 1.6-.1 3.3-.8 5-.9 1.6-.1 3.3.4 5 .6q2.8.4 5.7.3c6.4 0 12.7-.6 19-.6 2.6 0 5 .5 7.5.6 3 0 6.2.2 9.1-.2q3.7-.8 7.5-1.3c2.4-.4 5-.9 7.5-.5 3.2.7 6.5 2.2 10 2q2 0 4-.6c2.1-.8 4.4-2 6.7-1.6 5.6 1.6 7.4 4 13.2.2l4.2-2.7c1.2-.8 2.7-1.6 4.1-1.4q3.8.6 7.5 1.7a36 36 0 0 1 8.3 2.7" class="b"/><path d="M12.7 176.9h22.4c6.5-1 7.7-2.9 15-1.2 2 .5 4.3 1.7 6.5 1 1.4-.3 2.8-1 4.2-1.1 2-.1 3.9.6 5.8.8q6.1.8 12.4.4c3-.2 6.1-.8 9.1-.7q4.2.1 8.3.7 4.5.3 9.1 0c2.2 0 4.5-.7 6.7-1 3-.2 6-.9 9-.7 7 1 9.3 3.5 16.6.1 5.5-1.8 9.3 4.2 15 .5 3-1.8 6-6 9.9-5.5q4.4 1.6 9 2.2a22 22 0 0 1 7.6 2.5" class="b"/><path d="M12.7 174.7q3.4 0 6.7-.1 7 .1 14 0c3.4-.1 6.6-1.6 10-1.4q3.8.1 7.5.8c3.1 1 5.2 1 8.2-.2 2.7-1.1 5.6 0 8.3.3 4.4.6 8.9 1 13.3.4q7-1.5 14-.1 6.3.8 12.5 0l8.3-1.3c3-.6 6-1.4 9-.5s6 2.5 9.2 2c2-.2 3.8-1.1 5.8-1.2 5.1.2 8.4 3.4 13.2-.7 2.8-2.1 5.4-5.9 9.2-5.3 1.4.4 2.7 1.5 4 1.9 2 .6 4 .5 5.9.7q4 .4 7.5 2.7" class="b"/><path d="M12.7 172.6c2.8 0 5.6-.6 8.3-.5 4.4 0 8.9.7 13.3 0 2.2-.4 4.3-1.5 6.6-1.3q3 .2 5.8 1 3.7.6 7.5.8c2.2 0 4.4-1.1 6.6-1.4 2.2-.1 4.5.5 6.6.7l7.5.6c4.4.4 8.8-.8 13.2-.7q4.2 0 8.3.6 4.2.3 8.3 0 3-.2 5.8-1.1 2.5-.5 5-1.2c2.6-.8 5.4-2.3 8.3-1.6 4 1 7.2 4.5 11.6 4 1.9-.2 3.9-.6 5.8-.4 2.7.2 5.6 1 8.2-.2 4.4-1.8 7.2-8 12.5-7 1.6.6 3.2 1.9 5 2.1q2 .4 4 .3c3.2.2 5.9 2 8.4 3.7" class="b"/><path d="M12.7 170.4c2.8 0 5.6-.5 8.3-.5 4.1 0 8.4.5 12.5-.2 1.6-.3 3.3-1.2 5-1.5 2.2-.4 4.4.4 6.6 1q2.8 1 5.8 1.1 2.4.2 5-.4c1.5-.4 3.2-1.2 4.9-1.3 3.3 0 6.6 1.1 10 1.4 5.4.6 11 .3 16.5.2l11.6.2c3 0 6.2 0 9.1-.8q3-1 5.8-1.7l5-2q3.8-1.5 7.4.6c2.7 1.4 5.3 3.4 8.3 3.8q3 .1 5.8 0 3 .2 5.8-.1c5.5-1 8.3-7.5 14.1-7.8q2.3 0 4.1 1.3 2 1 4.2 1.4 2.6.3 5 1.4c1.9 1 3.7 2.6 5.7 3.4" class="b"/><path d="M12.7 168.2c3.6 0 7.2-.5 10.8-.4q4.6.1 9.1-.6 2.5-.6 5-1.4c4.6-1.1 8.6 2.6 13.2 2.4 2.6 0 5.1-1 7.5-1.9 3.8-1.5 7.8.6 11.6 1.1 3.3.6 6.6.5 10 .6q8.2.3 16.5.2 4.6 0 9.1-.3c4-.5 8-2 11.6-3.6q3.8-1.5 7.5 0c2.7 1.2 5.3 2.9 8.3 3.4q2.8.5 5.8.5 3 .1 5.8-.4c4.4-1 6.9-5.4 10.7-7.3 2-.9 4.6-1 6.7-.4 2.5 1.1 4.9 2.7 7.4 3.6 3.5 1.2 6.2 4.5 10 4.5" class="b"/><path d="M12.7 166c7-.3 14 0 20.8-1.8 3.6-1.3 6.2-2 9.9-.3 1.8.8 3.8 1.8 5.8 2 2.9.4 5.7-.9 8.3-2 3.8-1.6 7.8.1 11.6 1 4 1 8.3.4 12.4.3q9.5.5 19 .8c4 0 8 0 11.6-1.1 3.6-1.3 6.1-2.7 10-1.5 2.2.5 4.4 1.5 6.6 2q3.7.7 7.5.6c6 .2 8.9-.2 13.2-4.7 3.8-4 5-5.9 10.8-4.3 2.1.5 4 1.8 5.8 3l5.8 4c2.3 1.6 4.7 2.6 7.5 1.6" class="b"/><path d="M12.7 163.8c5-.4 10-.2 15-1.3l5.7-1.4c2.1-.8 4.4-1.6 6.7-1 2.3.5 4.4 2 6.6 3 4.2 2 8.3-1.2 12.4-1.7 4-.3 7.8 1.3 11.6 1.8q3 .4 5.8 0c2-.3 4-1 5.8-1q3-.1 5.8.4l10 1q4 .3 8.3.2 3.2.2 6.6-.6l4.1-.9q2.2 0 4.2.5c5.1 1.4 10.5 1 15.7 1 2 0 4 .1 5.8-.5 3.5-1.2 6-4.3 8.3-7 1.4-1.6 3.4-3.7 5.8-3 3.2 1 6.5 2.4 9.1 4.6 2.6 2 5 4.7 8.3 5.8 1.6.4 3.4-.4 5-1" class="b"/><path d="M12.7 161.6c5-.4 10.2-.2 15-1.7l5.7-2c2.1-.8 4.5-1.7 6.7-.8 2.8 1.3 5 4.1 8.3 4.5 2.2.1 4.4-1 6.6-1.4 3.8-.8 7.8.3 11.6.8q5 .8 10 .3c2.7-.4 5.4-1.9 8.2-1.7q6.6.8 13.3 1.8 3.2.3 6.6.2h7.5q2.4-.4 5-.5c2.1 0 4.4.5 6.6.5 2.4.1 5-.4 7.4-.3 10 .5 13 1.6 19.9-6.9 2.5-3 4.6-4.3 8.3-1.8q2.9 1.4 5.8 3c3 2 5.5 5.3 9 6 1.8.2 3.5-.8 5-1.4" class="b"/><path d="M12.7 159.4c4.7-.2 9.7.1 14.1-1.5l6.7-3q2-.9 4-1c2.7.1 4.6 2.5 6.7 3.8 4.1 3.2 7.2.9 11.6.4 3-.2 6.1.8 9.1 1 3.6.5 7.2.3 10.8.3 2.6 0 5-1.1 7.5-1.6 1.9-.4 3.9 0 5.8.3l5.8.8q4.5.7 9 .5h10c3-.2 6.1.2 9.1 0 2.2-.2 4.4-.8 6.6-1q3 .2 5.8.8c6.8.9 11.2-.5 15.8-5.6 3-3.3 5.1-4 9.1-1.5 1.8 1 4 1.4 5.8 2.6 2.8 1.8 5.5 5.2 9.1 4.6q2.1-.7 4.2-1.8" class="b"/><path d="M12.7 157.3c4.4-.2 9 .3 13.3-.8 2.3-.8 4.4-2.3 6.6-3.3 2.4-1 5.2-1.4 7.5 0 3.6 2.5 7.1 4.7 11.6 4q2.9-.7 5.8-1c2.5 0 5 1 7.5 1 2.7.1 5.5-.3 8.2-.1q2.6.1 5 .1c2-.1 3.9-.7 5.8-.8 3.6 0 7.2.7 10.8.8h24.8a27 27 0 0 0 5-.9q2.4-.9 5-1c2 0 3.9 1 5.8 1.5 5.2 1.2 10.7 0 14.9-3.3 3.4-2.7 5.8-3.5 10-1.4 2 .8 4.6.7 6.5 2.1 2.4 1.6 5.3 4 8.3 2.6q2.1-1.1 4.2-2.2" class="b"/><path d="M12.7 155H21c2 0 4 .2 5.8-.3 2.3-.8 4.3-2.3 6.7-2.9 2.8-.7 5.6.4 8.2 1.5q2.5.9 5 1.2 3.3.6 6.6.5 2.6-.5 5-.8 2.1 0 4.1.6c2.5.7 5-.2 7.5-.5s5 .3 7.5.6q3.7.3 7.4.1 7.5.2 15-.4c3.5.1 7.1.7 10.7.4 3.9 0 8 .2 11.6-1.3 2.2-.7 4.3-2.2 6.6-2.3s4 1.4 5.8 2.4q2 .9 4.2 1.2 3.8.5 7.4-1c2.2-.8 4.3-2 6.7-2.5 2.8-.5 5.5.7 8.2 1.2 1.4.2 2.9 0 4.2.3q2.1.7 4.1 1.6c4.4 1.8 6.4-2 10-3.3" class="b"/><path d="m12.7 152.9 9.2-.1q2.4.2 5 0c2.7-.5 5.3-2.3 8.2-2s5.5 1.2 8.3 1.3q2.9.1 5.8.2l4.1.6c2.8 0 5.6-1.3 8.3-.4 3.5 1.2 5.9-1 9.1-1.5 2.2-.2 4.5.6 6.6 1q2.5.6 5 .5c5.3 0 10.5-1.3 15.8-1.1 2.2-.2 4.4.6 6.6 1q3.2.7 6.6.4c5 0 8.4-1 12.4-3.9 4.4-3.3 6.3-2 10 1.3 2.6 2.4 6.5 3.1 10 2.4 1.9-.3 3.8-1.3 5.7-1.8 2.5-.6 5 .3 7.5.9 2.7.8 5.5.5 8.3.6 1.9.2 3.9.9 5.8.4 3.2-.6 5-4 8.2-4.6" class="b"/><path d="M12.7 150.2q3 .2 5.8.5h8.3c2.5-.3 5-1.5 7.5-1.5s5 .6 7.4.8 5 0 7.5 0q2.4.5 5 .7c2.1 0 4.4-.5 6.6-.2 5.2 1.3 7-3.4 11.6-3.2 2.5.2 5 1.4 7.5 1.6q2.9 0 5.8-.5c2.7-.2 5.5-1 8.2-.9q3 .1 5.8.5 1.7.4 3.3 1.2c3.1 1.5 6.6 1.7 10 1.4 10 .2 12-11.6 18.2-5.7 3.3 3.3 5.8 5.7 10.8 5.8 2.5.1 5-1 7.5-1.4 2.2-.3 4.4.6 6.6 1q3.7.6 7.4.4c2.5-.1 5.2.3 7.5-.6 3-1 5-4.5 8.3-4.3" class="b"/><path d="M12.7 146.8c2.3 0 4.4 1.3 6.7 1.6 2.1.3 4.4 0 6.6.1 2.5 0 5-.7 7.5-1q3.2-.3 6.6 0c4.1.4 8.3 0 12.4.9q3 .1 5.8 0l4.2.1c2.8 0 5-2.1 7.4-3.4 2.3-1.4 5-.7 7.5-.6q3.4 0 6.6-.7c5.2-1 10.6 0 15.7.7 2.6.8 4.9 2.7 7.5 3.4q2.8.7 5.8.6c2 0 4 0 5.8-.9 3.5-1.5 6.3-7 10-7 2.7.5 4.4 3.3 6.6 4.8q4.4 3.1 10 3.1c2.1 0 4.4-.5 6.5-.3q4.5.5 9.2 0 3.7.2 7.4-.5c3.7-.7 6.9-4.1 10.8-3" class="b"/><path d="M12.7 143.6c2.4 0 4.4 1.6 6.7 2.3 2 .6 4.4.4 6.6.4 4.2 0 8.3-1 12.4-1.1q4.6-.4 9.1.3 5 1 10 .8c6.3.2 7.8.2 13.2-3.3q2.3-1.4 5-1.7 3-.8 5.8-1.7c3.3-1 6.7.1 10 .8 2.6.6 5.5.4 8.2 1 3.2 1 5.8 3.4 9.1 4q2.5.6 5 .7c1.9.2 4 .5 5.8-.2 1.9-.8 3.5-2.4 5-3.8 1.7-1.6 4-3.9 6.6-2.7 1.8.8 3.3 2.2 5 3.2q3 1.8 6.6 2.9 4.5 1 9.1.8 5.5.3 10.8-1.3l8.3-1.4a17 17 0 0 1 8.2.3" class="b"/><path d="M12.7 141.6c3 .2 5.5 1.8 8.3 2.2q9.2.9 18.3-.9c4.8-1.1 7 0 11.6 1q4.1.4 8.2.2c2.8 0 5.7.1 8.3-.7 3-1 5.4-3.2 8.3-4.3 1.8-1 3.7-2.4 5.8-2.7 3.5-.5 6.6 1.7 10 2.3 2.4.5 5-.3 7.4 0 3.2.7 6 3 9.1 3.9q2.4.7 5 .7 2 .1 4.1.7c3.1.8 6-1.1 8.3-3 1.4-1.3 3-2.8 5-3.1s4 1 5.8 1.8q5.5 2.6 11.6 3.1c2.4.5 5 1.1 7.4 1 3 0 5.7-1.3 8.3-2.6q3.7-1.6 7.5 0c2.7.6 5.5 1.5 8.2 1.8" class="b"/><path d="M12.7 140.6c3.6.2 7.2 1 10.8 1.2 4.4 0 8.9.3 13.3-.2 2-.2 3.9-.9 5.8-1.2 3.1-.7 6 1 9 1.4q6.3.3 12.5.1c5.2.2 7.4-1.8 11.6-4.3 2-1.3 4.1-3 6.6-2.7 3.9.8 7.6 3.4 11.6 2.5 1.6-.3 3.4-1 5-.7 3.5 1 6.4 3.5 10 4.1 2.7.6 5.5 0 8.2.8 6 1.7 8.4-3 13.3-4.5 2-.4 4 .4 5.8.8 3.7 1.1 7.7 1 11.6 1.1 1.4.1 2.8.9 4.1 1.3q2.9 1 5.8.4c2.1-.4 4-1.7 5.8-2.8 5.1-2.6 6.5 4 15.8 3.7" class="b"/><path d="m12.7 139.5 17.4.2h8.3c2-.1 4-.7 5.8-.8 2.5-.3 5 .6 7.5.8q4.5.1 9 0c4 0 8.1.7 11.7-1.2q2.1-1 4.1-2.3c1.5-1 3.2-2 5-2.1s3.4.5 5 .9c2.1.5 4.4 1.1 6.6.9 1.9-.1 4-.8 5.8-.3 2.5.8 4.9 2.5 7.5 3.2 2.3.8 5 .7 7.4.7l5 .3c4.2.3 7.5-3 11.6-3.4q2.4.1 5 .7 3.7.4 7.4-.3 2.5-.6 5-.8 1.7.2 3.3.9c3 1.2 6.3 1.1 9.1-.3 1.3-.6 2.7-1.6 4.1-1.8 1.6-.2 3 .9 4.2 1.8 3.2 3 6.5 3.3 10.8 3.2" class="b"/><path d="M12.7 137.5h48.9c7-.4 10 1.4 16.6-2.6q2.3-1.3 5-1.6 3.2 0 6.6.7c2.7.6 5.6.7 8.3 1.3 3 1 6 2 9 2.2q6.8.2 13.3 0c3.4-.4 6.6-2.1 10-2 2.4.3 5 1 7.4.8q3-.2 5.8-1.4c2.1-.9 4.5-1.7 6.7-.8 3.5 1.4 6.4 1.2 10-.2 1.7-.6 3.8-2 5.7-.8q1.8 1.2 3.3 2.6c2.7 2.5 6.6 1.8 10 1.9" class="b"/><path d="M12.7 134.5c5.3-.3 10.5 1 15.8.9h5q2.4-.4 5-.5c3.2 0 6.6.5 9.9.4q5.7-.4 11.6-.6c2.1 0 4.4-.5 6.6-.4 3 .1 6 1.4 9.1 1 3.1-.5 6-2.4 9.1-2.7 6.6-1.1 12.6 3 19 2.8 2.8 0 5.6-.4 8.3-.4q5 .3 10 .1c2.5-.1 5-.8 7.4-.7 2.8 0 5.6.8 8.3.5q3-.2 5.8-1.7c1.5-.8 3.3-1.7 5-1.4 2.4.5 4.9 1.6 7.5 1.1q2.4-.4 5-1c1.5-.6 3.3-1.3 4.9-.3q1.7 1 3.3 2.4c2.8 2.2 6.6 1 10 1.3" class="b"/><path d="M12.7 131.5c2.8-.2 5.6-.7 8.3-.2 2.2.4 4.4 1.2 6.7 1.6q4.2.5 8.2-.3 3-.7 5.8-.6c2 0 4 .5 5.8.7 3 .2 6.2-.5 9.1-1l5.8-1c2-.3 3.9-1 5.8-.8 2.7.1 5 1.8 7.5 2.7 4 1.6 8.3-.8 12.4-.9 4-.4 7.7 1.5 11.6 1.5 3 0 6.1-.7 9.1-1.2q1.7-.3 3.3-.4 1.7 0 3.4.6 5.7 1.3 11.6.7 3.7-.2 7.4.2c2.2 0 4.5.1 6.6-.6 2.5-.8 4.8-3 7.5-2.5 2.4.6 5 1.6 7.5 1.2l5-.7c1.3-.2 2.7-.8 4-.5 1.6.3 3 1.4 4.2 2.2q2.4 1.3 5 1 2.4-.2 5-.2" class="b"/><path d="M12.7 128.9c2.3-.1 4.5-1.1 6.7-1.4 3.6-.6 6.6 2 10 3q2.4.5 4.9 0c2.7-.6 5.4-1.7 8.3-1.3 1.9.2 3.8 1 5.8 1.2q2 0 4.1-.4c2.9-.5 5.5-2 8.3-2.9 2.5-.5 4.9-2 7.4-2.4 5.1-.6 7.6 5.5 12.5 6.1 4.4.7 8.8-.5 13.2-.1 6.6 1 9.7-.8 15.8-2.7 1-.3 2.2-.7 3.3-.3 2.2.8 4.2 2.5 6.6 3 4.3.8 8.9 0 13.3.3h6.6c4-.4 6.5-4.1 10.8-2.2q4 1.4 8.2.6 3-.3 5.8-.7c2.1 0 4 1.5 5.8 2q2.1.6 4.2.2 2.4-.3 5-.1" class="b"/><path d="M12.7 126.4c2.7 0 5-1.7 7.5-2.4 3.6-1.2 6.2 1.8 9.1 3.2 4.1 1.8 7.5-1 11.6-.8 2.3.1 4.4 1.1 6.6 1.6q2.5.4 5-.2c2.7-.5 5-2 7.5-3.1q1.6-.7 3.3-1.2 2.1-1 4.1-2.2c3.5-1.7 6 .6 8.3 3 1.4 1.5 3 3 5 3.6 2.3 1 5 .9 7.4 1l5.8-.2 5 .1c5.2.2 10.7-6 14-4.9 2.4 1.1 4.3 3.3 6.7 4.2 2.6 1 5.6.6 8.3.6q4 .1 8.3.1 3 .2 5.8-.4c1.9-.6 3.7-1.9 5.8-2 1.6 0 3.3.8 5 1 3 .6 6 0 9 0q2.3-.5 4.2.2c1.8.6 3.8 1.5 5.8 1.1q3.7-.7 7.5-.2" class="b"/><path d="M12.7 123.7c4.5.3 8-5.8 12.5-3.3 3 2 6 4.4 10 3.4 9.4-2.1 12 4.5 22.3 0q2.4-1 5-1.5 2.2-.8 4-2.1c8.6-6.2 8.7 4.5 16.7 6q5.3.8 10.7.3c2.5-.2 5 .4 7.5 0 4.1-.5 8.4-5.7 12.4-4 2 .8 3.8 2.3 5.8 3.1 2 1 4.4 1 6.6 1h6.7q4.5.2 9 0c1.8-.3 3.4-1 5-1.3s3.4.1 5 .4q2.5.4 5 .3 3.4-.2 6.6-.1c1.7 0 3.4.7 5 .7q2.1-.2 4.1-.8c2.2-.6 4.5 0 6.7.5" class="b"/><path d="M12.7 120.7c4.7.6 8.3-5.5 12.5-3.6 2.5 1.4 5.3 2.6 8.3 2.7q3.3 0 6.6.5c3.9.5 7.7 1.7 11.6 2q3.8.2 7.4-.6l4.2-.4a15 15 0 0 0 4.1-2c8-5.8 8.1 2.7 15 4.6 2.9.7 6 .6 9 .5q2.5-.2 5-.2c2.2.1 4.5.5 6.6 0 4.1-1 8.2-3.5 12.5-2 2.4.8 4.8 1.9 7.4 2.1q5 .3 10 .1 4.5-.4 9 0c2.8.2 5.6-.7 8.4-.4 5.2.6 10.5.2 15.7.5q2.7-.1 5-1.3c2.7-1.3 5.6 0 8.3 1" class="b"/><path d="M12.7 118.1q3 .3 5.8-1.1c1.9-.8 3.8-2 5.8-1.7 4 1.7 8.4.4 12.5 1.2 3.4 1.5 7.1 1.3 10.7 1.8q2.1.4 4.2 1.2 3.2.8 6.6 1 2.5.1 5 .1 2.2-.2 4.1-1.2c1.6-.7 3.2-1.7 5-2 1.9-.3 3.5 1 5 2.1q2.1 1.8 5 2.4c3.5.6 7.1.4 10.7.2q3.8-.3 7.5.2 2.9 0 5.8-.4 4.1-.5 8.2-.5c2.8.2 5.6.9 8.3.9q7.9-.2 15.8-.8c2.2 0 4.4.6 6.6.8h8.3c4.4-.2 8.9.3 13.2-.5q2.1-.6 4.2-1.4c2.8-1 5.6.7 8.2 1.6" class="b"/><path d="M12.7 116.6c3.5.5 6.7-1 10-1.6 1.6-.3 3.3.6 5 .4 2.1-.3 4.4-1 6.6-1.2 2-.3 3.9.7 5.8 1 2.1.4 4.4.3 6.6.6 1.8.2 3.4 1.2 5 1.8q2.3.9 5 1.3c3.5.4 7.2 1 10.7 0 2.2-.6 4.4-1.8 6.6-1.7 1.8.2 3.4 1.2 5 1.8q2.4.8 5 .9 5.4.4 10.8-.2c2.4-.3 5 .2 7.4.4h10q4.1 0 8.2-.1 5-.6 10-.6 4-.3 8.3-.7c2.5-.2 5 .7 7.4 1q3.3.5 6.7 0 3.2-.5 6.6-.5 3.3.2 6.6-.1c1.6-.2 3.3-.9 5-1.1 2.9-.4 5.6 1.2 8.3 2" class="b"/><path d="M12.7 115.6c3.4.3 6.7-.4 10-1 1.6-.2 3.3.3 5 0 3.8-.7 7.6-2.2 11.5-1.4 2.5.2 5.1.2 7.5 1 1.7.4 3.3 1.5 5 2.1q2.3.9 5 1.2 5.4.6 10.7 0c2.8-.2 5.5-1.4 8.3-1a66 66 0 0 0 15.7 1.4q3.4-.5 6.7-.5c2.4 0 5 .4 7.4.4 3.9 0 7.8.3 11.6-.5 6.8-2 6-2.6 13.3-1 3.2.8 6.6.4 10 .4 3 .2 6 1 9 .7 2.6-.3 5-1.3 7.5-1.8s5 0 7.5.4c2.4.4 5 0 7.4.1q3.7.5 7.5 1.7" class="b"/><path d="m12.7 114.5 6.7-.1 7.4-.6 11.6-1.7c3-.7 6.3-1 9.1.6 3.9 2.1 6.3 3.2 10.8 3 3.9-.2 7.8.2 11.6 0 2.2-.2 4.4-1 6.6-1 3.3.2 6.7 1 10 1 5.5.3 11-1 16.5-.6s10.3.8 15-2.6c1.7-1 3.6-2.6 5.8-2.3 1.8.4 3.4 1.5 5 2.5 2.8 2 6.4 2.7 9.9 2.6 4.4 0 9 1 13.2-.8 2.2-1 4.3-2.3 6.7-2.7 2.9-.8 5.5 1.4 8.2 2 4.1.7 8.4.7 12.5 1.8" class="b"/><path d="M12.7 113c2.8-.2 5.6.2 8.3.1q4.2-.2 8.3-.6c2.5-.2 5-.1 7.5-.6q2.5-.7 5-1.8c3.3-1.4 6.2.7 9 2.3 2.3 1.5 5 1.2 7.5.6q2.9-.6 5.8-.4c2.5.3 5 1 7.5 1 2.2-.1 4.4-1 6.6-.8 1.9 0 3.9.5 5.8.6q3.3.2 6.6 0c3.3 0 6.7-.7 10-1.2 2.4-.1 5 .3 7.4.3q3.8 0 6.6-2.3c3.4-2.6 6.6-7 10.8-3.2 6.1 5.5 6.2 6.9 15 6.5 3.8-.1 7.9.6 11.5-1 1.7-.6 3.3-1.7 5-2.4 2.4-1 4.3-1 6.6.4a18 18 0 0 0 8.3 2c2.5.2 5 0 7.5.7" class="b"/><path d="M12.7 111.3q7.5.2 15 0c3-.2 6 0 9-.3s5.4-2.8 8.3-3.2c3.5-.3 5.7 3.7 9.1 3.5 2.5-.3 4.3-2.4 6.7-3 3.8-.6 7 2.4 10.8 3 2.4.4 5-.8 7.4-.7q2.5.3 5 .7 2 .1 4.1-.1c3-.2 6.2-.2 9.1-1q2-.7 4.2-1c1.9-.2 3.9.2 5.8.2q3.2.3 5.8-1.9c2.7-2.2 6-6.7 10-4.2 4 2.2 6.3 8.1 11.5 8 2.5-.1 5-.7 7.5-.5 2.7.2 5.5.8 8.2.5 3.7-.6 7-3 10.8-2.6 2.7.7 5.4 2 8.3 1.9h4.1q3-.4 5.8.2" class="b"/><path d="M12.7 109.1c3 .2 6.1-.2 9.2-.3q5.7.4 11.6.3c2.4 0 5.1.4 7.4-.8 5.2-3 6-2.5 10.8.5 4.6 2 6.3-5.7 10.8-5.2 2.2.3 4 2 5.8 3.2 3 2.3 5.4 2.8 9 2 2.5-.5 5 0 7.5.3q3.8.2 7.5-.4 3.8-.5 7.4-2 2.5-.4 5-.1c2.2.2 4.6.5 6.6-.6 2.7-1.6 5-4.8 8.3-4.6 5.2.8 8.1 7.5 13.3 7.7 2.2 0 4.4-1.2 6.6-1.3 3.4-.4 6.6 1.2 10 1.3 3 .2 6-.8 9-.9 3.4-.4 6.7.8 10 .6q2.5 0 5-.2c1.8-.3 3.9-.7 5.8-.2" class="b"/><path d="M12.7 106.6c3.4.3 6.7-.6 10-.5l14 .9c4.9.4 7.7-3.2 12.5-1 2.7 1.3 4.4 1.5 6.6-.9 2.6-2.7 5-7.4 9.1-4 3.5 2.9 6.5 7 11.6 5.6q3.8-1 7.5-.2 5.3 1 10.8 0c2.2-.4 4.4-1.2 6.6-1.5 3.3-.5 6.8.7 10-.5q2-1.2 4-2c6.2-2.6 10.7 5 16.6 4.4 2-.3 3.9-1.4 5.8-1.8 4.8-1.3 9.4 1.6 14.1 1.8q4.6.2 9.1-.1l8.3-.1 4.2-.3c1.8-.2 3.8-.7 5.8-.4" class="b"/><path d="M12.7 103.6c3.6.3 7.2-.4 10.8-.2 4.4.2 8.8 1 13.3 1.4 2.7.2 5.5-.6 8.2-.7 2.3-.1 4.5.5 6.7.7 4.7.2 6.4-6.4 10.7-6.5 2.4.5 4 2.6 5.9 4 4.6 4 7.2 2.2 12.4 1.1 3-.4 6 1.2 9 1.2 4.8.5 9.5-.2 14.2-.7 2.1-.2 4.4 0 6.6-.4 2.7-.6 5.5-1.4 8.3-1 4.4.6 8.7 3.3 13.2 1.9 2-.6 3.9-1.5 5.8-1.8q4.6-1 9.1.4t9.2 1.6c4 .4 8.3 0 12.4-.4q2.5-.2 5-.2 2.9-.3 5.8-.3" class="b"/><path d="M12.7 100c3.3.2 6.7.9 10 1 2.2.2 4.4 0 6.6.3 2.5.3 5 1 7.5 1.2q3.2.2 6.6 0t6.6 0q3.6.5 6.7-1.5c1.5-1 3-2.3 5-2.7 4-.5 7.2 4.6 12.4 4.3 3.4 0 6.4-2.6 9.9-2.2 1.4 0 2.8.8 4.1 1q2.5.5 5 .6c3.6.3 7.2.8 10.8.5l6.6-.3q3-.3 5.8-.3c3.6 0 7.2.8 10.8.7 2.8 0 5.5-1 8.3-1.4q4.1-.7 8.2-1c2-.2 4 .3 5.8.7 3.3.6 6.6 1.6 10 1.7 2.8.1 5.5-1 8.3-1.2 1.9-.2 3.9.2 5.8.2h5.8" class="b"/><path d="M12.7 96.4c3 .2 5.5 1.7 8.3 2.3 2.7.7 5.6 0 8.3.2 3 0 6 1 9.1 1.4s6.1 0 9.1 0c2.2-.1 4.5.2 6.6 0 5.2-.5 6.8-3.5 12.5-1.4 3.7 1.1 7.9 2.4 11.6.6 1.6-.7 3.2-1.8 5-2.3 2-.6 3.8.7 5.7.8 3.4.1 6.8 0 10 1q2.4.8 5 1.3c3.5.3 7.2 0 10.7 0q5 .2 10 0c2.7 0 5.5-.6 8.2-.7q3.3-.1 6.7-.3c2.2-.2 4.4-.8 6.6-.8q3.8.4 7.5 1.1c2.6.7 5.6 1.2 8.2.3 2.2-.7 4.4-1.8 6.7-1.5q5.3 1 10.7 1" class="b"/><path d="M12.7 93.6c3.3.2 6 2.5 9.2 3 3.5.8 7.1-.6 10.7-.2 3.4.2 6.6 1.9 10 1.8 3.6 0 7.2-1.3 10.7-.3 2.8.7 5.6.1 8.3-.4a32 32 0 0 1 6.6.1c4.8.5 8.4 1.7 12.5-1.8 1.2-.9 2.6-2 4.1-2.4 1.4-.1 2.8.6 4.1.5 2.5 0 5.1-.5 7.5.2 3 .7 5.3 3 8.3 3.7 3.8.7 7.7.4 11.6.4 6.3 0 12.7-.8 19-.3 3.6.3 7.2-.2 10.8-.5 3.6.1 7.2.7 10.8.8 3 .1 5.6-1.4 8.3-2.4 2.1-.7 4.4 0 6.6.4q3.7.4 7.4.5" class="b"/><path d="M12.7 91.2c3 .5 5.4 2.9 8.3 3.5 5.2 1.4 10.6-1.6 15.8-.1 1.8.6 3.8 1.5 5.8 1.5 5.1-.6 5.7-3.5 11.6-1 2.9 1 6 1 9 1q6-.5 11.7 0c5.1.4 6.6-4.7 10.7-6q3 .4 5.8 0 4.7-.4 8.3 2.2 2 1.6 4.2 2.8c2.3 1 5 .9 7.4 1q8.2-.1 16.6-.4c6.6.5 13.2.3 19.9.3 4.1.1 8.5.4 12.4-1.5 2.7-1 5.2-3.2 8.3-2.7l3.3.6q3.7.3 7.4.4" class="b"/><path d="M12.7 89.6c1.8.5 3.4 1.7 5 2.5 5 2.4 10.5.8 15.8.6 6-.4 7 3.4 13.2-1 3-2 5.3-.6 8.3.6a27 27 0 0 0 8.3 1.4q4.5.3 9 0c1.7 0 3.5.3 5 0 3.1-.8 5-3.8 7.5-5.4 1-.6 2.3-.4 3.3-.4q1.6-.1 3.3-.4c8-1.4 8.2 3.7 14.1 5.7 2.1.6 4.5.5 6.6.6q7 0 14.1-.3 3.7.2 7.5.4c2.2 0 4.4-.5 6.6-.5 2.7 0 5.5.5 8.3.3q3 0 5.8-.6 2.6-.6 5-2c3-1.1 5.6-3.8 9-3.8q2.2.2 4.2.5 3.4-.2 6.6-.1" class="b"/><path d="M12.7 89c2 .7 3.8 1.8 5.8 2.2 4.4.8 8.9.1 13.3.2h5q2 .3 4.1.2c2.2-.3 4-1.9 5.8-3 3-2 5.5.3 8.3 1.3q3.1 1 6.6 1.1 5 .6 10 .7c7.9.2 7.1-.5 13.2-4.7 1.5-.7 3.4-.3 5-1 2.4-.6 5-2 7.5-1.1 2.6 1 4.2 3.7 6.6 5 3 1.8 6.6 1.4 10 1.5 4 .2 8.2.4 12.3-.2 2.8-.3 5.6.5 8.3.4 2 0 4-.5 5.8-.7q3-.2 5.8.2c3.7.2 7.6-.3 10.8-2.2q2.4-1.3 5-2.5c2-1.2 4.1-2.9 6.6-3.3 1.6-.3 3.4.1 5 0 1.9-.3 3.8-1 5.8-1" class="b"/><path d="M12.7 88.5q3.7 1 7.5 1h9.1c3.3 0 6.7.2 10-.2 2-.3 4-1.6 5.8-2.6 3.4-2.1 5-1.1 8.2.7 2.3 1.2 5 1.4 7.5 1.5q3.7.4 7.5.5c3.5 0 7.2.5 10.7-.4 2-.5 3.9-1.9 5.8-2.8 1.6-.6 3.5-.5 5-1.3 5.4-2.6 6.8-5.1 11.6.4 3.7 4 7.5 3.6 12.4 3.8q4.6.5 9.1.2l5-.8c2-.1 4 .5 5.8.9 2.5.4 5-.2 7.5-.6 3.8-.5 7.8.4 11.6-.7 2.6-.7 4.8-2.7 7.4-3.6 2.7-1 4.9-3 7.5-4 1.8-.8 3.9-.5 5.8-.8 2-.4 3.8-1.5 5.8-1.8" class="b"/><path d="M12.7 87.2q3.8.2 7.5-.1c3.3 0 6.7.3 10 0 5.8-.2 8.8.3 14-3 2-1.1 4.6-1.5 6.6 0q2.4 1.6 5 2.5c3 .7 6.1.6 9.1.7l9.1-.1c2 0 4 .3 5.8-.1q2.7-.6 5-2c1.6-.5 3.5-.7 5-1.7 4-2.5 6.7-6.5 10.8-1.3 3.8 4.5 6.7 4.8 12.4 4.8 4.4 0 9 .7 13.2-.8 3.7-1.3 6.5.5 10 1 2.2.4 4.4 0 6.6-.3q3 0 5.8-.2a22 22 0 0 0 10-3q2-.8 4-1.9l5-2.8c1.9-.8 4-.7 5.9-1.3s3.7-1.9 5.8-2.2" class="b"/><path d="M12.7 85a86 86 0 0 1 12.5-.2q3.7-.1 7.4-.4 3 0 5.8-.5 2.6-.7 5-2 4.4-2.2 8.3 1c3.2 2.6 7 2.4 10.7 2q4.2-.6 8.3-.7 2.6-.2 5 .2c2.4.5 5 1.2 7.5.2 2.1-1 4.7-1.5 6.6-3 2.5-2 5.9-5.8 9.1-2.9 2 1.9 3.8 4.5 6.6 5.5 3.2 1 6.7.6 10 .6 2.7-.1 5.6.1 8.2-.4 2.2-.5 4.4-1.6 6.7-1.6 2.8 0 5.4 1.7 8.3 2.1q6.6.6 13.2-.3 6.1-1 11.6-3.8 4.5-2.7 9.1-4.8c2.2-1 4.1-3.1 6.7-3.2" class="b"/><path d="M12.7 82.4c4.2 0 8.3.4 12.5.2q3.3-.2 6.6-.6l5.8-.1c3.1-.3 6-2.4 9.1-2.4 2.5 0 4.4 2 6.6 3 3.6 1.2 7.4-.5 10.8-1.5q3.2-1 6.6-.9 3 .1 5.8 1.2c2.4.9 5 2.2 7.5 1.3a16 16 0 0 0 6.6-3.4c2.7-2.3 5.1-3.8 8.3-1.3 1.6 1.2 3.1 3 5 3.9 2.3 1 5 1 7.4 1s5-.4 7.5-.4q4.6.3 9.1-1 3-.7 5.8-.2c2.2.6 4.4 1.4 6.6 1.5q9.2.8 18.3-1.4c4.9-1.3 9.2-4.2 13.2-7.2 2.5-1.7 4.2-5.2 7.5-5" class="b"/><path d="M12.7 80.4q8.8.8 17.4-.2c2.8-.3 5.6.2 8.3-.1 6.2-1 7-3 13.3.1 3.6 1.4 7.5-.3 10.7-1.8C65 77 68 76 70.7 76.7a33 33 0 0 1 6.6 2c1.6.7 3.3 1.7 5 2q2.6.1 5-.7 2.2-1 4.1-2.6 3.3-2.3 6.7-.3c2 1 3.6 2.6 5.8 3.1 4.3 1 8.8.3 13.2 0 2.5-.2 5 .3 7.5.2 2.7-.1 5.5-.5 8.3-.4q4.5.6 9 .6c2.5 0 5 .3 7.5 0q4.6-.5 9.1-1.5 3.8-1.3 7.5-3 3.8-1.9 6.6-5.1c2-2 3.5-6 6.7-5.9" class="b"/><path d="M12.7 78.5q3.4.1 6.7-.2l5.8.2c3.8 0 7.7-.4 11.6-.1 3.8.1 7.7-1.6 11.6-.7 4.9 1.8 8.7.3 13.2-1.5 1.8-1 3.8-1.9 5.8-1.8 3.5 0 6.6 1.9 10 2.5 1.9.5 3.8 1.3 5.8 1.6q2 .1 4.1-.2c3.1-.6 5.8-3.4 9.1-2.3 2.2.6 4.4 1.7 6.6 2.2q5.5.6 10.8-.1c3.6-.8 7.2.2 10.8.3 8 0 16 .3 24 0q4.5-.4 9.1-1.6c1.4-.3 2.8-1.2 4.2-1.6q3.3-.7 6.6-2 3-1.6 5-4.4c1.6-2 2.9-5.5 5.8-6" class="b"/><path d="M12.7 76.2c2.2 0 4.5-.6 6.7-.6 2.4 0 5 .5 7.4.6q8 .3 15.8-.2c3-.3 6 .5 9 .3 3.2-.3 6.2-1.4 9.2-2.1 1.3-.4 2.7-1 4.1-1 3.2 0 6.1 1.7 9.1 2.3q3 .6 5.8.6 3.4.3 6.7.3c2.5 0 5-.9 7.4-1.1 3.6-.1 7.2 1 10.8 1 4.1.2 8.3-.7 12.4-.7q3 .3 5.8.7 8.2.2 16.6 0c5 0 10 .4 15-.7q2-.4 4-1.3c1.3-.5 2.8-1.3 4.2-1.4 6 0 9-1.3 12.4-6.4 1.1-1.5 2.4-3.4 4.2-4" class="b"/><path d="M12.7 73.5c6.1-1 12.2.2 18.3.6 4.6.3 9.4-.5 14-.1q3.7.4 7.5-.2c4-.8 8.3-2.1 12.4-1.6 2.8.6 5.5 1.8 8.3 2H89c5.7-.3 11.6 0 17.4 0 3 0 6-.4 9-.4 2.5 0 5 .5 7.5.4q9.6-.5 19 0c4-.2 7.8.2 11.7-.2q2.5-.4 5-1.3c1.5-.6 3.2-1.2 5-1 4 .4 8-1 10.7-4.1 1.5-1.6 3-3.5 5-4.5" class="b"/><path d="M12.7 71q3.8-.2 7.5.1 3.7 0 7.5.3 3.2.5 6.6.6 2.9-.2 5.8-.5c3 0 6 .6 9.1.5q4.2-.2 8.3-1 2.9-.5 5.8-.1c2.4.4 5 1.1 7.4 1.1s5-1 7.5-.9c3.8.2 7.7.9 11.6.9 10.5.1 21-.2 31.5 0 4.1-.4 8.3-1 12.4-.6q4 .3 8.3.6l6.6-.3c2.2 0 4.5.4 6.6.3 2.3-.1 4.5-1 6.7-1.1 9.2.4 10.2-2.7 17.4-6.5" class="b"/><path d="M12.7 69.2c3.6 0 7.3.3 10.8-.2 3.3-.4 6.7.2 10 .8 2.4.3 5-.6 7.4-.7 3 0 6.1.6 9.1.6 3.3.4 6.7-.3 10-.5 2.4 0 5 .6 7.4.6q3 0 5.8-.8c1.9-.6 3.8-1.5 5.8-1.4 3.4.3 6.6 1.8 10 2q3.2.4 6.6.1 6.2.2 12.4 0c4.4 0 8.9.3 13.3 0 3.8-.5 7.7-1.7 11.6-1 3.3.4 6.6 1.2 10 1.1 2.7 0 5.4-1 8.2-.7 3.3.4 6.6 1 10 .6q3.7.2 7.4-.4c3.6-1 7.1-2.7 10.8-3.6" class="b"/><path d="M12.7 67.5q3.8 0 7.5-.3c2.7-.3 5.5-1 8.3-.7 2 .2 3.9.9 5.8 1 1.9.3 3.9-.2 5.8-.5q2.9-.5 5.8-.3l5 .3 4 .6h6.7q5.5.3 10.8-1.2c1.7-.5 3.2-1.6 5-2 2.9-.7 5.6 1 8.2 2q4.5 1.6 9.1 1.2h7.5q5-.1 10-.1c3 0 6 .3 9 0 2.6-.2 5-1 7.5-1.4 4.5-1 8.8 1.5 13.3 1.5 2.8.1 5.5-1.2 8.3-1.5q3.3 0 6.6 1 2.9.4 5.8.4 3.3.1 6.6 0 5-.6 10-1.5" class="b"/><path d="M12.7 65.4q4.2.1 8.3-.3c2.7-.5 5.6-1 8.3-.5 1.9.3 3.9.9 5.8.8 4.4-.2 8.8-1.5 13.3-1.7q3-.1 5.8.9 2.3.7 5 .7c4.4.2 8.8-1.2 13.2-1.8 2.2-.4 4.3-1.7 6.6-1.7 3.9-.1 7.2 2.2 10.8 3.3 2.1.6 4.4.3 6.6.3 6.4.2 12.7-.4 19-.2q3.8.5 7.5 0c2.8-.4 5.5-1.4 8.3-1.2 3.3.2 6.6 1.6 10 1.4 2.8 0 5.5-1.5 8.2-2.2 3.4-1 6.7.7 10 1.4 2.1.5 4.4.1 6.6.3q2.9.3 5.8.5 3.8.1 7.5-.4" class="b"/><path d="M12.7 63.2H21c2 0 4-.4 5.8-.3 3.3.1 6.7.7 10 0l7.4-1.3c2.2-.5 4.4-1.3 6.6-1 2.6.4 5 1.6 7.5 2 2.8.4 5.6-.5 8.3-1.2q2.9-.6 5.8-.3c4.9-.2 10.3-2.2 14.9.2 3.3 2 5.4 2.2 9.1 1.8q4.6.2 9.1.1l8.3-.2 6.6.3c2.8 0 5.5-.9 8.3-.9q3 .2 5.8.7c4.3.6 8.6-.6 12.4-2.5 2.3-1.2 5-1.8 7.5-.8 2.7 1 5.3 2.6 8.3 2.3q2-.2 4.1-.2c4.1.5 8.2 1.8 12.4 1.3" class="b"/><path d="M12.7 61h17.4c2.5 0 5-.8 7.5-1.2 3.4-.3 6.8-.5 10-1.8 3-1.3 6.1.4 9 1.3 6.8 2.2 8-2 13.3-1.6q4.5 1.2 9.1 1.5c2.2 0 4.5-.6 6.6-.3 1.5.2 2.9 1.1 4.2 1.6q2 .8 4.1.4t4.2-.5l5 .5q5.3.3 10.7 0c2.5 0 5 .3 7.5 0q2.4-.3 5-.5 2.4 0 5 .5c2.4.5 5-.2 7.4-.8q4.7-1.1 9-3.2c2.1-1 4.6-1 6.7 0 2.6 1.2 5.3 3 8.3 2.8q2.4-.4 5-.4c3.9.3 7.6 2 11.6 1.8" class="b"/><path d="M12.7 58.9q7.5-.2 15 0c2.8 0 5.5-1.1 8.2-1.9 2.5-.6 5 .1 7.5-.3 2.3-.2 4.4-1.6 6.6-1.9 2 0 4 1 5.8 1.7 2.6 1 5.8 1.6 8.3 0 2.4-1.4 4.7-3 7.5-1.4A20 20 0 0 0 84 58c2.5-.3 5 1 7.4.9 2.5-.2 5-1.7 7.5-1.2a89 89 0 0 0 19 1.1c3-.1 6.1-1.3 9.2-.8 3.5.8 5.5 1.5 9-.2 3.3-1.2 6.7-1.8 10-2.7 2.5-1 4.9-1.9 7.5-.7 2.7 1 5.2 3 8.3 3q2.4 0 5-.2c4.1 0 8.2 1.6 12.4 1.6" class="b"/><path d="M12.7 56.7q5-.2 10 0 3.3 0 6.6-.2 2.6-.6 5-1.6c2-.9 4.4-.8 6.6-.6q3 .3 5.8-1c5.5-3 7.3 1.3 12.4 2.2 5.9 1.3 7.7-5.7 13.3-2.2 6.1 4 8 3.3 15 3.4 3.3.2 6.5-1.5 9.8-1.8 2.2.1 4.5.8 6.7 1 5 .5 10 1 14.9.3 2.4-.4 5-1 7.4-.6s5 1.6 7.5.9c2.2-.7 4.4-1.7 6.6-2q3.3-.6 6.7-1a14 14 0 0 1 6.6-.5c2.2.5 4.4 1.6 6.6 2 1.9.5 4 .3 5.8.2 4.4 0 8.9 1 13.3.9" class="b"/><path d="m12.7 54.5 7.5-.1q4.1.2 8.3 0c2.9-.2 5.5-1.8 8.3-2.5 2.1-.5 4.4.1 6.6 0 2 0 4-.7 5.8-1.2 3.3-.7 6 2.5 9.1 3 6.2 1.6 8.3-3.8 13.3-2 3.2 1.4 6.2 3.5 9.9 2.6q3.8-.5 7.5-1.3c3.4-1 7.2-1.6 10.7-.7Q106.3 54 113 54c3.6 0 7.2-1 10.8-.8 2.5.2 5 1 7.4 1.3 2 .2 4-.5 5.8-1q2.9-1 5.8-1 3 .3 5.8.2c2.8-.3 5.6-.7 8.3-.3l5 1q4 .2 8.3-.1c3-.3 6-.1 9-.5" class="b"/><path d="M12.7 52.2q3.8.2 7.5 0 4.1.2 8.3 0c3.2 0 6.1-1.6 9-2.6 2-.4 4 0 5.9.2q3.3.4 6.6 0c2 0 4 1 5.8 1.7q3.7 1 7.5.4 2.4-.7 5-1.3c2.8-.5 5.5 1 8.2 1.5 5 1.3 8.6-3.3 13.3-4 2.7-.4 5.6.4 8.3.7 3.6.3 7 2 10.7 2.4s7.2-.8 10.8-.5c4.7.4 9.4 1.7 14 1.6 2.3-.1 4.5-1 6.7-1.2 3.3-.3 6.6 1 10 .7 2.4-.2 5-.7 7.4-.6 2 0 4 .6 5.8.6q5.2.1 10-1.6 2.8-.5 5.8-.8" class="b"/><path d="M12.7 49.5c3.8.9 7.8.6 11.6.6 2.8 0 5.6.2 8.3-.4q2.6-.8 5-1.9c2.7-.9 5.6.4 8.3.9q2.4.4 5 .3 1.6.1 3.2.5 4.1.8 8.3.4c2.5-.3 5-1 7.5-.7 7.1.7 9.8 2.7 15.7-2.8 3.6-2.8 6.9-1.6 10.8-.6 1.3.3 2.8.1 4.1.4q3 1 5.8 1.9 2.5.6 5 .4c2.4-.4 5-1 7.5-.4 2.1.6 4.3 1.4 6.6 1.5q5 .5 10 .5c2.4-.2 5-1 7.4-.6 5 .9 10 .6 15 .3 3.2 0 6.6.6 9.8 0 5-1.2 5.6-4 11.6-3.4" class="b"/><path d="M12.7 46.5c4 1.7 8.3 1.3 12.5 1.4 2.7 0 5.5.2 8.3-.2 1.6-.3 3.3-1.2 5-1.6 2.7-.5 5.5 1 8.2 1.3 1.9.3 3.9.1 5.8.3q5 .5 10 0 4.5-.7 9-.2c3.3.3 6.8 1 10 0 2.4-1 4.2-3.3 6.6-4.2 3.9-1.4 7.7 1.3 11.6 1 5.8 1 7.8 3.2 14.1 1.4 3.8-.9 7 2 10.8 2h8.2l4.2.2 5-.2q4.1.3 8.2 0 6.3.3 12.5.2h5c4.8-1 5.4-5.4 11.5-3.7" class="b"/><path d="M12.7 44c3.9 2 8.3 1.4 12.5 1.5 2.7 0 5.5.4 8.3.2 1.9-.2 3.8-1.1 5.8-1.2 2.7 0 5.5 1 8.2 1.2 5.5 0 11.1.3 16.6-.2q5.4-.6 10.8.1c2.4.1 5 .4 7.4-.4 2-.8 3.7-2.4 5.8-3 2.8-.7 5.6.5 8.3 1q2 .3 4.1.5 3.3.6 6.7 1c2.5.3 5-.2 7.4-.4 3.1-.1 6 1.4 9.1 1.4 3.6.2 7.2-.8 10.8-.6q5 .9 10 .6c1.9 0 3.8-.5 5.8-.6 3.8 0 7.7.7 11.6.3q2.4 0 5 .4c5.3 0 5.9-5.3 12.4-3" class="b"/><path d="M12.7 42c5 2.5 10.6.5 15.8 1.3q2.4.3 5 .2c1.6 0 3.3-.7 5-.8 3.2 0 6.5 1.1 9.9.9q7-.3 14 0c3 0 6.1-.5 9.1-.5 3.6 0 7.3.8 10.8.2 1.7-.3 3.3-1.3 5-1.8 2.7-.8 5.6 0 8.3.6q3.2.5 6.6.7 3.7.3 7.5.4 2.9-.2 5.8 0c4.3.3 8.8.7 13.2.1q2.4-.5 5-1 2 .2 4.1.8 2.5.4 5 .4c3 0 6-1 9.1-1q3.4 0 6.6.3 3.3 0 6.7.6c6.2 1.2 6.8-5 14-2.2" class="b"/><path d="M12.7 40.4c4 1.4 8.3.8 12.5.6 2.4 0 5 .5 7.4.4 1.7 0 3.4-.6 5-.7 3-.1 6 .8 9.1.7 5.2-.2 10.5-.6 15.7-.1q5 .3 10-.5c3-.2 6 .5 9.1.6 2.2 0 4.4-.9 6.6-1.1 2.8-.4 5.6.2 8.3.6 10.5.9 21 .3 31.5.5 2.2-.1 4.4-1 6.6-1q2.1.1 4.2.6 2 .3 4.1.3c3.6.1 7.2-.7 10.8-.9q5-.1 10 .8c6.9 1.1 7.4-5.2 15.6-2" class="b"/><path d="M12.7 38.8q3.8.6 7.5.4H31q2.9-.1 5.8-.5 2-.1 4.1.1 3.8.4 7.5.4 5-.4 10-.4c3 0 6 .4 9 .4 2 0 4-.6 5.8-.8 3-.1 6.1.5 9.1.8q3 0 5.8-.3c2.8-.2 5.6.2 8.3.3q6.2.1 12.4-.3c7.2-1 14.4.9 21.6.1q3.7-.7 7.4-.1 3.8.4 7.5.2c3.3 0 6.6-.6 10-.6 3 0 6 .8 9 .6 1.8-.2 3.4-1.1 5-1.8 3.2-1.5 6.8-.8 10 .1" class="b"/><path d="M12.7 37c2.5.2 5-.2 7.5-.2q4 .2 8.3.2l8.3-.3 9.9.2c3.8.3 7.7-.1 11.6-.2q4.2 0 8.3.3c3 .2 6-1.2 9-1q4.4.2 8.4.8 3.7.3 7.4.2t7.5-.5q2.9 0 5.8-.3c2.5-.2 5-1.3 7.4-1.5 2 0 4 .8 5.8 1.3q2.5.7 5 1c3.9.2 7.8-.2 11.6-.3q4.2.1 8.3.3 5.4 0 10.8-.4c2.4 0 5 .4 7.4.4q2.7 0 5-1 2-1 4.1-1.3c3-.2 6.2.5 9.1 1" class="b"/><path d="M12.7 34.8c2.8 0 5.6-.9 8.3-.6q7.5 1 15 .4l10.7-.1q6.2.4 12.4.3h8.3c2 0 4-.6 5.8-.8q4.1-.2 8.3-.2c2.7.2 5.5.8 8.3.5 2.8-.1 5.5-1 8.2-1.6 2.5-.4 5 0 7.5-.5 2-.3 3.9-1.1 5.8-1.4 3.1-.1 5.4 2.8 8.3 3.6 3.7 1 7.8.2 11.6.1 4.7-.2 9.4.5 14 .2l8.4-.2c2.4.1 5 .5 7.4.3q3-.5 5.8-1.6c2.1-.8 4.5-.4 6.6 0q3 .6 5.8 1" class="b"/><path d="M12.7 32.2c2.3-.1 4.5-1 6.7-1 2.5 0 5 1.2 7.4 1.3q5 .3 10-.2 3.3 0 6.6-.3 2.5-.3 5-.2 3.2.5 6.6.8l11.6-.1c2.5-.1 5-.6 7.5-.6 2.7.2 5.5-.3 8.2-.5 2.2-.2 4.5.2 6.7-.2 3.4-.5 6.4-2.8 10-3.1l5.7.2q2.5-.2 5-.5c5.5-.7 6.8 5.8 13.2 4.7q3.4-.4 6.7-.5 5.3.2 10.7.4l10.8-.3q3.8.2 7.5.5 2 .1 4.1-.4 2.4-.7 5-1.5c4-.6 7.7 1.6 11.6 1.8" class="b"/><path d="M12.7 29.2c2-.2 3.9-1 5.8-1.1 3.2 0 6 2.3 9.1 2.3q4.6.2 9.2-.5c3.3 0 6.6-.6 9.9-.8 2.8 0 5.5 1.1 8.3 1.1 5 .3 10-.2 14.9-.4q3.3 0 6.6.2 3.8 0 7.5-.7 2-.2 4.1-.5c2.4-.5 4.5-1.9 6.6-3 3.1-1.7 6.7-.5 10 0 3.7.3 7.7.5 10.8 2.8 4.9 3.5 8 .9 13.2.7 3.6.2 7.2 1 10.8.9 4.4-.1 8.8-.8 13.2-.4 3 .2 6.1 1 9.2.5s6-2.3 9-1.6c2.8.4 5.5 2 8.3 1.7" class="b"/><path d="M12.7 26c1.7 0 3.4-.8 5-1 2.8-.2 5 1.8 7.5 2.7q2.4.8 5 .6a27 27 0 0 0 6.6-.8c3.3 0 6.6-.6 10-.6 1.9 0 3.8.8 5.7 1q5 .4 10 0c3.5-.3 7.1-.8 10.7-.3q5.4.8 10.8.2 4-.2 7.4-2c2-1 4.3-2.4 6.7-2.3q5 .9 10 2.2l6.5 1.7q3 .9 5.8.9c2.6 0 5-1 7.5-1.2s5 .7 7.5.9q5.3.3 10.7-.5 3.8 0 7.5.2 2.9.4 5.8.6c2.6 0 5-1 7.5-1.5q2.9-.4 5.8.3c2 .7 4.4 1.6 6.6.8" class="b"/><path d="M12.7 23.5c1.7 0 3.4-.8 5-1 4.4-.4 6.3 3.8 11.6 3.5q3.8.2 7.5-.7c3.6 0 7.2-.8 10.7-.4q2.1.3 4.2.8 3.2.4 6.6.2c4.1 0 8.3-.8 12.4-.7 2.2 0 4.5.6 6.7.8 3.8 0 7.8.3 11.6-.6 2-.5 3.8-1.6 5.8-2.2 1.9-.6 4-.1 5.8.4l5.8 1.3q7.4 1.7 14.9 1c2.2-.1 4.4-.8 6.6-.8q2.5.1 5 .7 2.4.3 5 .3 4.1 0 8.2-.5 3.8 0 7.5.2c2.2.2 4.5.5 6.6.1 2.5-.4 5-1.5 7.5-1.5q3 .1 5.8 1 2.9 1.2 5.8.2" class="b"/><path d="M12.7 21.7c1.7 0 3.4-.8 5-1 2.7-.7 5.1 1 7.5 2.1q2.4 1 5 1 3.3-.2 6.6-.9 2.4 0 5-.2 2.9 0 5.7.2 3 .8 5.8 1 5 .1 10-.4c3-.3 6-.8 9-.3q4.6 1 9.2.6c2.5 0 5 .3 7.5 0 2.7-.4 5.4-2 8.2-1.8 3.4.3 6.6 1.6 10 1.8 2.1.3 4.4 0 6.6 0q4.6 0 9.1-.2c3-.5 6.1 0 9.1.3h5.8q4.2 0 8.3-.2l7.5.2q2.5.1 5-.5c1.9-.5 3.8-1.5 5.7-1.9 2.9-.5 5.6.8 8.3 1.4 2.1.7 4.4 1.4 6.7.8" class="b"/><path d="M12.7 19.7q2.6-.4 5-1c2.3-.2 4.5.7 6.6 1.5a17 17 0 0 0 9.1.5l3.4-.9c5-.5 10 1.2 14.9 1.8q5.3.2 10.7 0c3.3-.5 6.7-1 10-.4q2.9.7 5.8.4c2.7-.4 5.5-.9 8.3-.2q2.4.5 5 .1c1.8-.4 3.8-1 5.7-1 2.5 0 5 1 7.5 1.2 2.8.3 5.5-1 8.3-.9l6.6.6c2.5 0 5-.3 7.5 0q2.4.4 5 .3 2.4-.3 4.9-.3 5 .5 10 .2c2.4 0 5 .3 7.4-.2 3-.5 5.5-2.6 8.3-3.7 2.5-.9 5.1.3 7.4 1.3q1.6.7 3.3 1.2 2.8 1.6 5.8 1.5" class="b"/><path d="M12.7 17.2c7.6-2 10.2 2.3 17.4 1q2.3-.5 4.2-1.4 2.2-1.7 5-1.1c3.9 1 7.5 3.3 11.6 3.7 1.9.3 3.9 0 5.8 0q2.4-.2 5 .1 3.3-.1 6.5-.4c2.5 0 5 .5 7.5.4 3 0 6-2.2 9.1-1.2 5.2 1.9 6.5 1.2 11.6.4h3.3q2.4.6 5 .8c2.6.1 4.9-1.6 7.5-1.5 2.1.3 4.4 1 6.6 1 2.2.1 4.4-.2 6.6 0q2.5.6 5 .5c1.9 0 3.9-.4 5.8-.3q4.5.5 9.1.3c2.7 0 5.6.4 8.3-.5 3.6-1.2 6.3-4.3 10-5.4 3.2-.9 6.1 1.3 9 2.4 2.2 1.3 4.1 3.1 6.7 3.4" class="b"/><path d="M12.7 14.6c3.2-1 6.2.8 9.2 1.6 3.6 1 7.6.3 10.7-1.7 1.7-1 3-2.7 5-2.9 2.5 0 4.5 2 6.6 3.2 3 1.8 6.5 3 10 2.3 1.6-.3 3.3-.8 5-.7q2 .5 4 .8 3 .1 5.9 0 2.9.2 5.8 0 2.5-.5 5-1.6c5-1.8 6.8 2.6 13.2 1.6q3.3-.5 6.6-.5c1.7.1 3.4.7 5 .6 2.3 0 4.4-1.5 6.6-1.5 2.2.2 4.4.9 6.7.9q3.2-.2 6.6-.1 2.4.4 5 .7h5.8l7.4-.1q3.7.2 7.5 0c4.3-.3 8-3 11.6-5q4.8-3.1 10-.7c2.7 1.3 4.4 4.5 7.4 5.3" class="b"/><path d="M12.7 12.8c2.6-.6 5 .8 7.5 1.6 3.2.9 6.8 1 10-.2 2-.8 3.9-2.4 5.7-3.7 2.6-1.5 5.3.6 7.5 2q3 2 6.6 2.5c4.3 1 6.3-2.3 10-1.8l4.1 1.4q4.5 1 9.1.2c4.3-.4 7.1-4 11.6-1.6 4.7 2.7 9.8 1.8 15 1.7 1.8.1 3.8.4 5.7 0 2.2-.3 4.4-1.3 6.7-.9q3.2.8 6.6.6c2.2 0 4.4-.5 6.6-.1q7 1 14.1.5c2.5-.3 5 0 7.5.1q6.4.1 12.4-2.4c4-1.7 7.8-5.7 12.4-3.8 2.9 1.2 4.5 4.4 7.5 5.5" class="b"/></svg>