<svg xmlns="http://www.w3.org/2000/svg" id="a" width="1920" height="2400" viewBox="0 0 192 240"><defs><style>.b{fill:none;stroke:#fff;stroke-miterlimit:10;stroke-width:.3px}</style></defs><path d="M0 0h192v240H0z" style="stroke-width:0"/><path d="M10.2 231.1c4-1 7.7-3.8 12-4.2 5.7-.6 10.8 2.8 16.2 4.4 2.5-.1 5.2.2 7.6-.2 5.6-1.5 10.5-4.6 15.4-7.5l5.1-2.9c1.5-.7 3.2-1.3 4.3-2.6 3.3-3.3 8.2-7 12.8-4.2 2.2 1.3 3.9 3.4 6 4.8 4.5 3.1 10 4.6 15.4 5 11.2.7 22-3.4 33.3-4 6.9-.5 13.7 1.6 19.6 5.3 3.4 2 6.6 4.6 10.2 6 1.6.5 3.5.2 5.2.3h8.5" class="b"/><path d="M10.2 228.7c3.5-1 6.6-3.4 10.2-4.2 6.5-1.6 12.1 2.8 18 4.6h5q3.6-1 7-2.5c4.4-2 8.5-4.8 12.7-7.3q2.6-1.5 5.1-2.8c1-.5 1.9-1.7 2.6-2.4 3.1-3.5 8.1-7.6 12.8-4.5 2.2 1.4 3.9 3.7 6 5.2q5.4 4 12 5.3c7.3 1.4 14.9.3 22.2-1 17.8-3.6 24.9-3.7 40 7.3 2 1 3.9 2.5 6 2.7h12" class="b"/><path d="M10.2 226.4c4.5-1.6 8.6-5.3 13.7-4.8 3.3.2 6.4 1.8 9.3 3.2 2 .8 4 2.2 6 2.2q2.6 0 5.1-.8 3.6-1.2 6.9-3c5.8-3 11.1-6.8 17-9.7 3.2-3.6 6.7-8.8 12-8.9 4.2.4 6.4 4.6 9.4 6.9 6.3 5.4 15 7.1 23 6.7 9.8-.4 19.3-3.7 29-3.4 5.9.2 11.4 2.3 16.3 5.4 3.6 2.2 7 5 11 6.6 4.3.4 8.7 0 12.9.2" class="b"/><path d="M10.2 224.2q3.5-1.7 6.8-3.5c5.7-3 11-1 16.2 1.9 2 .8 3.9 2.3 6 2.2 4.2-.7 8.2-2.6 12-4.5 5.4-2.8 10.6-6.3 16.2-9 3.6-3.6 7-9.8 12.8-9.8 3.8.4 6 4.1 8.5 6.5a31 31 0 0 0 22.2 8.2c9.5.1 18.8-2.8 28.2-3.2q10.2-.3 18.8 5.2c3.6 2.3 7 5 11.1 6.5 4.2.3 8.6 0 12.8.1" class="b"/><path d="M10.2 222c2.7-1 5-2.8 7.7-4 6.3-3 12.3 1 17.9 3.7 2 1.2 3 .7 5.1 0q5.3-1.6 10.3-4.2l10.2-5.4q3.1-1.5 6-3c3.2-3.9 7.2-10.3 12.8-10 4.3.6 6.4 5 9.4 7.6q6.6 2.7 12.8 6.5 1.6.9 3.4 1 2.6.3 5.2.4c9.2.3 18.1-2.3 27.3-2.9 6.8-.5 13.7 1.3 19.6 4.9 3.6 2 7 4.8 11.1 6h12.8" class="b"/><path d="M10.2 220c4.5-1.8 8.5-5.6 13.7-5 4.6.5 8.6 3.3 12.8 5 2.3 0 4.6-1.1 6.8-1.8 7.3-2.8 14.1-6.7 21.3-9.6l1.8-.7 1.7-2q1.6-2 3.4-4c3.1-3.4 7.6-6.3 12-2.8 1.8 1.5 3.3 3.7 5 5.3 5.8.7 11.1 3.3 16.3 5.7l4.2 2c1.1.5 2.3 1.3 3.5 1.4 6.8 0 13.7-1.3 20.4-2.2 6-.8 12.2-1 18 .9q5.4 1.8 10.2 5l4.3 2.3q1.6.8 3.4 1h12.8" class="b"/><path d="M10.2 218c4.8-2 9-5.7 14.5-4.7 4 .6 7.5 2.8 11.1 4.4 3.2-.4 6.4-1.8 9.4-2.8 6.5-2.6 13-5.6 19.6-7.7 1-.1 2-1 2.6-1.9l3.4-3.9c7-7.2 11.1-6 17.1 1.5 7.7-.3 15.2 2 22.2 4.9l7.7 3.2q1.6.8 3.4 1.2l2.6-.3c8.4-1 17.1-3.1 25.6-1.1 3.9.9 7.6 2.7 11 4.5q2.2 1.2 4.3 2.1c1 .4 2.3 1.1 3.5 1h13.6" class="b"/><path d="M10.2 216.2c2.3-.9 4.6-2.3 6.8-3.3 6.4-3.1 12-.2 18 2.5 4.6-1 9.1-2.8 13.6-4.3a149 149 0 0 1 17-5.1c4.2-4.2 9.6-12.1 16.3-8.9a14 14 0 0 1 3.4 2.7c.8.7 1.5 2 2.6 2.2 14-2.8 25 1.6 37.6 7.1l3.4 1.4q2.5-.2 5.1-.5 6-1 12-.5a37 37 0 0 1 11.9 3.4l5.1 2.3c1.3.5 2.8 1.2 4.3 1h14.5" class="b"/><path d="M10.2 214.1c2.4-.2 4.6-1.9 6.8-2.7 6.2-2.8 11.3-.6 17.1 1.7 8.5-2.2 17-5.2 25.6-6.8l5.1-.8c1-.5 1.9-1.6 2.6-2.3 6.9-7 12.4-10 19.6-1.3a45 45 0 0 1 41 3.5q3.8 2 7.7 3.7 1.6.2 3.4-.1 7.4-.7 14.5 1.4c3.5 1 6.8 2.6 10.3 3.6 2.2.3 4.6 0 6.8.1h11.1" class="b"/><path d="M10.2 212c2.1.2 4-1 6-1.8 4-1.8 8.6-2 12.8-.7l3.4 1.2c1.7.1 3.5-.7 5.1-1q7.5-2.2 15.4-3.5c4-.7 8-.8 12-1.4 4.3-3.7 9.8-9.6 16.2-7q1.8.8 3.4 2c.7.7 1.6 1.8 2.5 2 7-2.4 13.9-5.9 21.4-6.5 12.2-1 22 7.5 32.4 12.5q1.7.7 3.5.5 2.5 0 5 .3c4.2.6 8 2 12 3.1 1 .4 2.4.2 3.5.2h17" class="b"/><path d="m10.2 209.8 3.4-.1q3-1.2 6-2a19 19 0 0 1 7.7 0q1.6.2 3.4.7.8.5 1.7 0 7.5-2 15.4-3.1 8-1 16.2-.8c7.9-5.6 13.6-10.5 22.2-2.5 1.2.2 2.3-.6 3.4-1q3.5-1.5 6.8-3.4c9-4.8 17.5-8.2 27.4-3.5 7.5 3.5 13.8 9.2 21.3 12.7 1.5 1 3.4.9 5.1 1.1q4 .6 7.7 1.5 2 .6 4.3.4h19.6" class="b"/><path d="M10.2 207.7h4.3c2-.4 4-1.2 6-1.5q4.7-.7 9.3.4c4.3-.8 8.5-2 12.8-2.5a81 81 0 0 1 14.6-.5l4.2.2q1.3.2 2.6-.1l4.3-2.5c6.6-3.9 11.9-3.6 17.9 1.2 16.2-5.8 25.2-21.7 43.5-9 6.8 4.5 12.8 10.4 20.5 13.1q2.5.7 5.2 1c2.7.4 5.7 0 8.5.2h18" class="b"/><path d="M10.2 205.5H17a41 41 0 0 1 8.6-1c1 0 2.3.4 3.4 0q6.7-1.7 13.6-2.2a83 83 0 0 1 14.6.4c2 0 4 .5 6 .5l3.4-1.6c7.5-3.6 12.5-3.5 19.6.9 5.3-1.8 10-5.1 14.5-8.4 5.7-4 12.2-9.1 19.7-8 8.2 1.4 14 8 20.4 12.7 3.9 3 8.1 5.6 12.9 6.7h28.1" class="b"/><path d="M10.2 203.4q6.5.2 12.8-.4h3.4l3.4-.8c8.2-2 16.6-2 24.8-.9l6.8.9c1.2.2 2.4-.5 3.5-.8 8.9-3.2 12.7-3 21.3.7 9-2.4 15.5-9.6 23-14.7 15.3-10.6 24.3 4.6 36 12.3q3.5 2.5 7.6 3.6 4.6.2 9.4 0h19.6" class="b"/><path d="M10.2 201.2h14.5c5.3-1.1 10.8-2.3 16.2-2.3 7 0 13.7 1.4 20.5 2.1 3.7-.7 7.4-1.8 11.1-2 4.4-.4 8.7.7 12.8 2q1.3.3 2.6-.2 2.6-.6 5.1-1.9c9-4.2 16.7-15.5 26.5-16.6 9.3-.6 16.2 8.6 23 13.7q4.3 3.5 9.4 5.2h29.9" class="b"/><path d="M10.2 199h14.5q4.2-.7 8.6-1.3 5.5-.7 11-.2c4.9.3 9.7 1.6 14.6 1.6h5q4.4-.8 8.6-1 4 0 7.7.7 2.6.4 5.1.3c2.3-.1 4.7.3 6.9-.6 10.2-3.4 17-15 27.3-17 7.5-1 13.4 5 18.8 9.5q4.3 4 9.4 6.8 1.5.8 3.4 1.3h30.7" class="b"/><path d="M10.2 197h15.4c4.2-.5 8.5-1.4 12.8-1.3 4.5 0 9.1.8 13.6 1.2h38.5c1.3 0 3 .2 4.2-.4 9.4-3.3 15.7-13.7 25.6-15.3 7.2-.8 12.8 4.7 18 8.8 3.3 2.7 6.9 5.5 11 7h24c2.8-.1 5.7.1 8.5-.3" class="b"/><path d="M10.2 194.8h18q4.6-.6 9.3-.6t9.4.6h48.7c5.8-1 12-7.2 17-10.2 6-3.9 11.8-4.4 18-.6 5.2 2.8 12.3 10.1 18 10.8H168q7 .2 13.7-.5" class="b"/><path d="M10.2 192.6h72.6q8.1.2 16.2 0c5.6-2 10.1-6 15.4-8.6q8.6-4.4 17 .7c3.5 1.9 6.8 4.3 10.3 6.2q2 1.2 4.3 1.7h26.5c3 0 6.2-.8 9.3-.9" class="b"/><path d="M10.2 190.5h85.4q2.5 0 5-.2a8 8 0 0 0 3.5-.8c3.8-1.7 7.3-3.9 11.1-5.3 5.4-2.3 11-1.7 16.2.8 4 1.8 7.8 4.3 12 5.5h26.5q6-1 11.9-1.3" class="b"/><path d="M10.2 188.4H92c3.2-.2 6.3-1.2 9.4-1.4q3.4-.3 6.9 0 3.7-1.5 7.6-2.7c5.4-1.7 11.1-.9 16.3 1.2q3.7 1.5 7.6 2.8 7 .1 13.7 0 6.5 0 12.8 0c5-.9 10.2-1.8 15.4-1.5" class="b"/><path d="M10.2 186.2h78.5c4.5-1 9-2.5 13.7-2.8a48 48 0 0 1 12.8 1q6.4-1.3 12.8-.2l6 1.4q2 .7 4.3.6h23c2.9 0 5.7-1 8.6-1.4q6-1 12-.4" class="b"/><path d="M10.2 183.1q1.6.7 3.4 1h41.9l17.9-.1q3.4-.3 6.8-.2c1.7 0 3.5.4 5.1.2 4.9-1.4 9.5-3.6 14.6-4.3 5.4-.9 11 0 16.2 1.5 4 .9 7.8 2.3 12 2.6 3.8.6 8 .2 11.9.3h18.7c3.7-.5 7.4-1.7 11.1-2q6-.8 12 .1" class="b"/><path d="M10.2 179.6c2 .8 3.9 2 6 2.3h51.2c3.1-.2 6.3-.8 9.4-1q3.4 0 6.8.2c4.9-1.6 9.4-4.4 14.5-5.4 10.7-2.4 20.7 3.3 30.8 5.6 3.6 1 7.4.5 11 .6h16.3c9.1-2.3 16.1-4 25.6-1.8" class="b"/><path d="M10.2 175.7c8.4 4.7 6.8 4.1 16.2 4h38.4c3.7-.5 7.4-1.3 11.1-1.6 2-.2 4 .1 6-.2 5-1.7 9.4-5 14.5-6.2 10.7-3.2 20.9 2.7 30.8 5.9q4.1 1.4 8.5 2c2 .3 4 .1 6 .2h7.7q2.1.1 4.2-.2c10.7-2.9 17.1-4.7 28.2-1.6" class="b"/><path d="M10.2 171.5c3.8 2.4 7.4 5.4 12 6.1h22.1c6.3 0 12.6.2 18.8-.3q4.8-.6 9.4-1.5c2-.4 4-.4 6-.9 5.2-1.3 9.6-4.8 14.5-6.7 9.1-4 17.9-1 26.5 2.8 7 3 14.4 6 22.2 6.6q4.3.2 8.5-.1c13-3.5 18-5.7 31.6-1.4" class="b"/><path d="M10.2 167.1c4.7 3.5 8.5 7 14.5 8.1 2 .5 4 .2 6 .3H40q9.3-.2 18.8-1.1c7.5-.8 15.1-1.9 22.2-4.9 3-1.2 5.7-3 8.5-4.5q5.6-3 12-3.1c6 0 11.6 2.4 17 4.8 5.3 2.4 10.6 5 16.3 6.6q4.1 1 8.5 1.7l3.4.3 2.6-.6c14-4 18.1-5.2 32.4-.4" class="b"/><path d="M10.2 162.7c3.3 2.6 6.4 5.8 10.2 7.7q4.8 2.4 10.3 3 6 .1 12-.5c10.9-1 22-2.4 32.4-5.8q4.8-1.6 9.4-4c4.7-2.7 9.8-5.2 15.4-5.3 6-.2 11.7 2 17 4.4 5.7 2.5 11.2 5.4 17.1 7.4q6 2 12 2.7 2.6-.5 5-1.2c13.1-4 18.1-3 30.8 1.4" class="b"/><path d="M10.2 158.3c3.4 2.8 6.4 6.2 10.2 8.5q4.8 2.8 10.3 3.8c1.6.2 3.4.7 5.1.5q17-1.8 33.3-6.7 7-2.2 13.7-5.2c4.6-2.2 9.3-4.7 14.5-5 13-1.1 24 7.5 35.8 11.6a61 61 0 0 0 12 3.2q1.3.2 2.6-.3l4.2-1c4.2-1 8.5-1.8 12.8-1.4q5.3.4 10.3 2.2c2.2.7 4.5 1.7 6.8 2" class="b"/><path d="M10.2 154.2c6 5.8 11.1 11 19.6 13.3q3 .9 6 1 4-.4 7.7-1.2c10.8-2.1 21.3-5.6 31.6-9.6 7.3-2.6 14.3-6.7 22.2-7 13.5-.2 25 8.2 37.6 12.3a66 66 0 0 0 10.2 2.7q2.6-.2 5.1-.7 4.7-.8 9.4-1.2 6.6.1 12.8 2.2l4.3 1.4 5.1.8" class="b"/><path d="M10.2 150.4c5 4.8 9.8 10 16.2 13a35 35 0 0 0 6.8 2.2c1.1.2 2.4.7 3.5.4 11.5-2 22.4-6.4 33.3-10.8C78.5 152 87 148 96.4 148c14.3.2 26.8 8.3 40.2 12.3q4.1 1.3 8.5 2.1c4.8-.4 9.7-1 14.5-.8q6.6.7 12.8 2.8l9.4 1.6" class="b"/><path d="M10.2 147.1c7.4 7.5 14.8 14.7 25.6 16.6q7-1.3 13.7-3.9c13-4.6 25.2-12.7 39.2-13.8 14-1.3 27.2 4.2 40.2 8.7q7.5 2.6 15.3 4.4 7-.1 13.7.4 5.3.5 10.3 2.1l13.6 2.3" class="b"/><path d="M10.2 144.4c7.3 7.2 15.2 15 25.6 17q5.3-1.3 10.3-3c6.7-2.6 13-6 19.6-9.1a49 49 0 0 1 18.8-5.6c13.7 0 27 3.5 40.1 7.3a288 288 0 0 0 17 4.5q5.6.6 11.2 1.3 4.7.7 9.4 1.7 9.7 1.7 19.6 3.3" class="b"/><path d="M10.2 142.3c7 6.7 14.4 13.8 23.9 16.6 1 .5 2.3 0 3.4-.3q3.5-.8 6.9-2.1c6.5-2.5 12.6-6 18.7-9.1 5.4-2.7 11-5.3 17.1-5.8 4.6-.4 9.2 1 13.7 1.7q9.7 1.7 19.6 3.7l19.7 4c3.3.6 6.8.8 10.2 1.6q5.2 1 10.3 2.3l7.6 1.3q10.3 2 20.5 3.7" class="b"/><path d="M10.2 140.8A85 85 0 0 0 29 155c1.9.8 3.9 1.8 6 2q3.4-.6 6.8-1.8c6.3-2.2 12.1-5.5 18-8.7a54 54 0 0 1 16.1-6.5q3.9-.6 7.7 0l6 1.8q6.3 1.8 12.8 2.9 9 1.5 18 2.6c1.6 0 3.4-.5 5-.5q4.4-.2 8.6.4c5.6.8 10.9 3 16.2 4.7 10.6 2 21 4.8 31.6 6.1" class="b"/><path d="M10.2 140q3.6 3.2 7.7 6.1 4.4 3.6 9.4 6.4 3.2 1.6 6.8 2.7 3.5-.6 6.8-1.8c6-2 11.6-5 17.1-8 5.1-2.9 10.4-5.8 16.2-6.8 7.2-1.2 10.8 1.5 17.1 3.7q9.6 3 19.6 3.7c1.2.3 2.4-.5 3.5-.9l5-1.7c9.5-2.7 18.1.6 26.6 4.8q2.4 1.3 5 1.7l6.9 1.6c7.8 2.1 15.8 4 24 4.7" class="b"/><path d="M10.2 139.5c2.6 2.3 5.7 4.3 8.5 6.3 4 2.7 8.2 5.4 12.8 7l1.7.6 2.6-.5q4-.8 7.7-2.3c5.6-2 10.9-5.1 16.2-8 5.3-2.7 11-5.4 17-5.2q4.1.2 7.8 2 3.7 2 7.6 3.5a53 53 0 0 0 10.3 2.5c1.7.1 3.7 1 5.1-.2 6.3-3.6 13-7.5 20.5-6.8 7.3.8 13.5 5.1 19.7 8.7.9.6 2.3.7 3.4 1l5 1.2a86 86 0 0 0 25.7 4.7" class="b"/><path d="M10.2 139.4c2.6 2.2 5.7 3.9 8.5 5.7a57 57 0 0 0 13.7 6.5l2.6-.4q3.4-.7 6.8-1.6c5.6-1.8 11-4.6 16.2-7.3 6-3.1 12.7-6.3 19.6-5.2 4.5.6 8.1 3.4 12 5.3q6.1 2.8 12.8 3.5c5.2-3 9.8-7.1 15.4-9.5 11.7-5.6 20.7 2.8 29.9 9q1.1.7 2.5.8l3.4.9c3.4.9 6.8 2.2 10.3 3q4.5 1 9.4 1.7 4.3.2 8.5 0" class="b"/><path d="M10.2 139.6q3.6 2.6 7.7 4.5c3.5 1.9 7.2 3.9 11 5 2.3 1 4.7.6 6.9.2q5.7-1 11.1-3c9.7-3.6 19-11 29.9-9.3 4.4.7 8.1 3.4 12 5.5 3.4 1.6 7.2 3 11 3.2 6-3.6 11-8.8 17.1-12.2 10.5-6.1 18.5.6 26.5 7.1l5.1 4q4 .6 7.7 1.8 6.2 2.3 12.8 3.2c4.2.3 8.6 0 12.8.1" class="b"/><path d="M10.2 140a37 37 0 0 0 6.8 3.3q4.2 1.9 8.6 3.5l2.5.7h3.4c6.8.4 13.5-1.7 19.7-4.1 7.6-3 15.4-7.5 23.9-6.4 4.7.5 8.8 3 12.8 5.4q4.6 2.3 9.4 3c9-4.4 15.8-15.2 25.6-17.3 8-1.2 14.1 5.4 19.6 10.1l6 5q1.2.4 2.6.6c4.6 1 9 2.9 13.6 3.6 2 .3 4 .1 6 .2h11.1" class="b"/><path d="M10.2 140.1q3.3 1.7 6.8 2.7 3.8 1.4 7.7 2.5c3.7.3 7.4 0 11.1.1 9.6.3 18.3-4.6 27.3-7.2a25 25 0 0 1 18 .8q3.4 1.7 6.8 3.5c2.4 1 5 2 7.7 2 9-3.8 14.5-12.8 23-17.6 8-4.5 14.9 1 20.5 6.5q3.3 3.3 6.8 6.4c1.3 1 2.6 2.6 4.3 2.7 3.8.6 7.4 2 11.1 2.8 2.5.3 5.2 0 7.7.1h12.8" class="b"/><path d="M10.2 140c3.2 1.6 6.8 2.1 10.2 3 2.5.6 5.2.2 7.7.3h9.4q3 .2 6-.1c8.1-1.3 15.7-5 23.9-6 5.3-.7 10.6.5 15.4 2.7 3.5 1.6 7.1 3.6 11 3.4 10.9-2.3 17.8-17.2 28.2-20.2 9-2 15.6 7.7 21.4 13 2.1 1.9 4.2 4.3 6.8 5.4q4.4.7 8.6 1.8h23" class="b"/><path d="M10.2 139.7c3.8 1.4 8 1.6 12 1.4h24.7c5.2-.8 10.2-2.4 15.4-3.4q7.7-1.7 15.3.3 3 .8 6 1.9c1.4.4 2.9 1.2 4.3 1.2h7.7q2.3-.8 4.2-2.2c7.8-4.7 15-17.4 24-18.2 8.8-.4 15.8 11.3 22.2 16.4q2 1.8 4.2 3 2.6.6 5.2 1h26.4" class="b"/><path d="M10.2 138.8c1.3.3 2.9.1 4.3.2h23q6.8 0 13.7 0c3.7-.5 7.4-1.4 11-1.9a41 41 0 0 1 15.4.4l6 1.5h12.8c3.3-1.3 6-3.6 8.6-6 5.4-4.8 11.1-13.6 18.8-14.3 8.5-.2 15.2 11.2 21.3 16.3q2.7 2.4 6 4h30.7" class="b"/><path d="M10.2 136.9h32.4q5.5-.9 11.1-1 4-.2 7.7.3 6-.7 12-.1 3 .3 6 .8h17c1.9-.3 3.6-1.6 5.1-2.7 7-4.8 13.7-16.7 22.2-17.2 8 0 14.2 10 19.7 15 1.9 1.7 5.1 4.9 7.7 4.9h30.7" class="b"/><path d="M10.2 134.7h28.2c5-.9 10.2-2 15.3-2 5 0 9.8 1 14.5 2h29.1l1.7-.8c8.5-4.3 14.7-17.1 23.9-18.5 6.6-.5 11.2 5.5 15.4 9.7 2.6 2.9 5.3 5.9 8.5 8.1l2.6 1.5h32.4" class="b"/><path d="m10.2 132.6 24.8-.1q5.4-1.2 11-2.3 6.4-.9 12.9 0 5.6 1.2 11 2.4h26.5c8.4-1 16-16.2 24.8-18.6 6.3-1.8 11.4 3.6 15.4 7.7 3 3 9.3 11 13.6 10.9h31.6" class="b"/><path d="M10.2 130.4h20.5c4.6-.8 9-2.3 13.6-3a37 37 0 0 1 13.7 0c4.3.7 8.5 2.3 12.8 3h26.5a14 14 0 0 0 4.3-2.2c6.7-4.5 11.7-13.3 19.6-15.8 5.8-1.5 10.7 3.2 14.5 7 3.2 3 9.4 10.8 13.7 11h21.3c3.7-.3 7.4-1 11.1-1" class="b"/><path d="m10.2 128.3 17-.1c5.3-1 10.3-2.9 15.4-4q7.3-1.5 14.6 0c4.9 1 9.6 3 14.5 4h18c3 0 6.2.3 9.3-.4 7.9-3.8 12.5-12.3 20.5-15.9 5.4-2.4 10.7 1.2 14.5 4.8 3.5 3 10.2 11.3 14.5 11.5h17.1c5.4-1 10.7-2.3 16.2-2.5" class="b"/><path d="M10.2 126.1h12c6.7-.8 13-3.9 19.6-5.4a30 30 0 0 1 14.5 0q5.6 1.7 11.1 3.8c2 .6 4 1.5 6 1.6h18.8q4.6-1 9.4-1.6c5.8-3.5 10-9.3 16.2-12.5 5.2-2.8 10.3-.8 14.5 2.7 3.5 2.8 6.6 6.2 10.2 9 1.3.9 2.8 2 4.3 2.4h2.6q6 .2 12-.1c6.7-1.7 13.3-4.3 20.4-4.6" class="b"/><path d="M10.2 124h7.7q3.4-.6 6.8-1.5c9.9-2.9 19.3-8.6 29.9-5.7 4.7 1.2 9.1 3.4 13.6 5.2q3 1.3 6 2h15.4c4.5-1.2 9-2.7 13.7-3 2 0 3.5-2 5-3q3.4-2.8 6.9-5.2a13 13 0 0 1 15.4.3c3.6 2.5 6.7 5.6 10.2 8.2q2 1.6 4.3 2.5 1.6.3 3.4.2h5.1q2.2.1 4.3-.5c8-2.4 15.5-6.7 24-7" class="b"/><path d="M10.2 121.8a56 56 0 0 0 18-4c9.4-4 17.7-8 28.1-4.1 5.9 2 11.2 5.5 17 7.5 2.2 1 4.6.6 7 .6h5q1.8.2 3.5-.3c6-2.1 12.2-4.5 18.7-4.3 5.1-3 9.8-7.7 16.3-7 7 1.2 11.9 7.2 17.9 10.5q1.2.8 2.5 1.1h2.6q4.4.2 8.5-1c8.8-3.3 16.8-9.5 26.5-9.7" class="b"/><path d="M10.2 119.1q3.8-.9 7.7-1.5 4.8-1.3 9.4-3.2c8.8-4 17.4-8.8 27.3-5.1 7.5 2.5 13.7 7.8 21.3 10.1 1 .4 2.4.2 3.5.3h6c1.7 0 3.4-1 5-1.6q4.2-1.9 8.6-3.3c4.1-1.3 8.5-1.4 12.8-1.2q3.6-2.4 7.7-3.3c3.5-.8 7.1.3 10.2 2q3.5 2 6.9 4.2c1.3.8 2.7 2.1 4.2 2q4.7.4 9.4-.3c5.2-.7 9.4-3.9 13.7-6.4a36 36 0 0 1 18-6.4" class="b"/><path d="M10.2 116q3.8-1.2 7.7-1.9 4.8-1.3 9.4-3.5c7.8-3.8 16.6-8.8 25.6-5.8 7.5 2.3 13.4 7.7 20.5 11q2.4 1.2 5 1.7h6c2.8-.4 5.3-2 7.7-3a38 38 0 0 1 24.8-4c4-1.2 8.3-.8 12 1l4.2 2.3q2.6.6 5.1.8c4.6.4 9.3.4 13.7-1 5.2-1.6 9-5.7 13.7-8.5a29 29 0 0 1 16.2-5.6" class="b"/><path d="M10.2 112.7c2.4-1 5.1-1.3 7.7-2a53 53 0 0 0 9.4-3.8c7.3-3.7 15.3-8.7 23.9-6.6 8 2 14.2 8 21.3 12 2.7 1.4 5.5 3.2 8.6 3.1l3.4-.1 3.4-1.5c5.8-3 11.5-6.4 18-7.4 8.3-1.5 16.6 1.2 24.7 2.9s17.4 2.8 24.8-1.9c4-3 7.6-6.5 11.9-9.2 4.3-2.8 9.3-4.8 14.5-4.5" class="b"/><path d="M10.2 109.5c2.4-1 5.1-1.4 7.7-2.1q4.5-1.4 8.5-3.6c10.3-5.4 19.1-11.7 30.7-5 7.4 3.7 17.6 14.5 25.7 14.4 1.8 0 3.5-1.2 5-2l7-3.8c7-4.1 14.7-6 23-4.8 12.8 1.8 28.2 8.4 39.2-1.6 6.8-6.4 14.8-14 24.8-12.9" class="b"/><path d="M10.2 106.3c2.4-1 5.1-1.4 7.7-2q4.5-1.4 8.5-3.7c9.7-5.2 18.7-12 29.9-6 8.9 4.5 16.6 14.5 26.5 16.5 4.3-1.2 8-4.2 12-6.3 6.9-4.4 14.7-6.8 23-5.9 9.9 1 19.9 5 29.8 2.5 6.3-1.5 9.4-5.5 13.7-9.7 5.4-5.2 12.6-10 20.5-8.7" class="b"/><path d="M10.2 103.3q3.3-1.2 6.8-1.7 4-1 7.7-3c9.7-4.9 19.4-13.6 30.7-8 10 4.8 16.7 14.8 27.4 18.2 1.8-.2 3.5-1.3 5-2.2l7.8-4.8a37 37 0 0 1 22.2-6.3c9 .5 18.1 3.7 27.3 2.3 7.3-1.2 10.7-5 15.4-10.2 5.4-5.7 13-11 21.3-9" class="b"/><path d="M10.2 100.6c2.2-.9 4.6-1.1 6.8-1.5q3-.8 6-2.1c9.4-4 18-13.4 29-10.8 12.4 3.3 19.4 16.6 31.6 20.3 5.5-2.1 10.2-6.1 15.4-9 13.3-7.6 22.6-4.6 36.7-3.2a26 26 0 0 0 17-3.4c3.4-2.2 5.8-5.7 8.6-8.5 5.4-5.5 12.6-9.7 20.5-7.3" class="b"/><path d="M10.2 98.1c3.6-1.1 7.6-1 11-2.5 11-4 20.9-16.1 33.4-11.6C65.5 88.3 72 99.4 82.8 104c1.7 1 3.5-.7 5-1.4q4.5-2.6 8.6-5.4a41 41 0 0 1 21.4-7.2c8.5-.2 17 2.3 25.6 1.2 7.5-1 11.6-4.9 16.2-10.5 5.8-6.5 13.3-11.3 22.2-8.2" class="b"/><path d="M10.2 96c2.2-.7 4.6-.7 6.8-1q3.6-.7 6.9-2.3c8-3.6 14.8-10.6 23.9-12 14.6-1.6 23.6 17 36.7 21.4 2-.5 4-1.9 6-3q4.2-2.7 8.5-5.2c13.5-8.1 22-6.3 36.7-5.2 5.9.3 12.2-.4 17-4 3.4-2.3 5.7-5.8 8.6-8.6 5.7-5.7 12.7-8.5 20.5-5.3" class="b"/><path d="M10.2 94.1c2.5-.6 5.2-.4 7.7-.8a29 29 0 0 0 7.6-2.7c8.2-4 15.3-11.5 24.8-12 14 0 22.4 17.6 35 21.4 5.5-2.2 10.2-5.9 15.4-8.6 12.6-7.1 21.4-5.5 35-4.7 6.2.3 13-.6 18-4.6 2.8-2.2 5-5.4 7.6-7.8 6-5.8 12.8-7.7 20.5-4.3" class="b"/><path d="M10.2 92.6c2.2-.4 4.6-.3 6.8-.5q3-.3 6-1.5C33.4 87 43 75 54.6 77.3c11.7 2.8 18.4 15 29 19.9.8.3 1.7.8 2.6.7l3.4-1.6q4.8-2.6 9.4-5.3c5-2.8 10.5-5.2 16.2-6 7.7-1.1 15.4.3 23 .3 5.8 0 11.8-1.3 16.3-5.2 2.4-2 4.4-4.8 6.8-6.8q9.2-8.5 20.5-3.2" class="b"/><path d="M10.2 91.2q3.4-.1 6.8-.1 4-.5 7.7-2c10-4 19.5-15.3 30.7-13.2C67.8 78.8 74.4 92 86.2 96c5.4-1.7 10.2-5.2 15.3-7.6 12.8-6.5 21.6-4.8 35-4.1 6 .2 12.2-.6 17.1-4.2 2.9-2 5-5 7.7-7.1 6.3-5.4 13.2-5.7 20.5-2.1" class="b"/><path d="M10.2 90c2.5-.1 5.2.2 7.7 0 7-.7 13-4.6 18.8-8.3 5.3-3.5 11.2-7.6 17.9-7.2C66.3 75.7 73.4 88 83.6 93c1.7.9 3.4 1.5 5.1.6q3.5-1.4 6.9-3.1 6.6-3.6 13.6-5.9c10.3-3.1 21-.4 31.6-.7 4.8-.2 9.7-1.4 13.7-4.3 2.4-1.7 4.4-4.2 6.8-6 6.4-5 13.4-4.7 20.5-1.1" class="b"/><path d="M10.2 88.9q3.8.2 7.7.2c7.6-.5 14.2-4.8 20.5-8.8 4.9-3.2 10.2-6.7 16.2-6.7 11.8.4 19 12.5 29 17.3q1.3.6 2.6.9h2.5q3.6-1.1 6.9-2.7 6.2-3 12.8-5c10.3-3.1 21-.6 31.6-.5 5 0 10.2-.9 14.5-3.7 2.4-1.6 4.4-3.9 6.8-5.4 6.6-4.7 13.6-3.7 20.5-.4" class="b"/><path d="M10.2 87.7c12.6 1.4 18.6-1.6 29-8.2 4.7-3 9.7-6.3 15.4-6.6 11.6-.3 18.6 10.8 28.2 15.6q1.2.7 2.5 1.1h3.5c2.3.2 4.6-1 6.8-1.8q6.3-2.7 12.8-4.5c10.4-2.7 21 0 31.6.2 5 .1 10.1-.5 14.5-3 2.4-1.4 4.4-3.5 6.8-4.8 6.6-4.2 13.8-2.9 20.5.2" class="b"/><path d="M10.2 86.5q3.8.4 7.7.4 5.3-.2 10.2-2 5.8-2.5 11.1-5.7C44 76.4 49 73 54.6 72.4c11-1 18.3 9.1 27.3 13.8l2.6 1.2q2.5.2 5 0c2.8.3 5.3-.8 7.8-1.6q5-1.9 10.2-3c10.8-2.6 21.7.2 32.5.6 4.9.1 10-.2 14.5-2.4 2.4-1 4.5-3 6.8-4 6.6-3.7 14-2.2 20.5.6" class="b"/><path d="M10.2 85.1q4.6.5 9.4.2c8-1.4 14.2-6.8 21.3-10.2q4.6-2 9.4-2 4.6-1.7 9.4-1.1C66 73 71 77.3 76 80.8c2.7 1.7 5.4 3.9 8.6 4.5h6c1.3 0 2.9.2 4.2-.2 18.8-5.7 23.1-4.1 41.9-2.2a45 45 0 0 0 17-1.2c2.7-.9 5.1-2.7 7.7-3.7 6.6-3 14-1.5 20.5.8" class="b"/><path d="M10.2 83.2h6q2.2.1 4.2-.3c5.4-1.2 10-4.3 14.6-7.4 6.1-4.3 13-8.4 20.5-4.7q1.2.6 2.5.5 1.7 0 3.4.4c6.8 1.5 12 6.4 18 9.7 1.3.7 2.7 1.6 4.2 1.8h12l5.1-1.2a65 65 0 0 1 11.1-1.6c8.3-.5 16.5 1.2 24.8 1.8 5.6.4 11.5.6 17-.7 2.7-.5 5.2-2 7.7-2.8 6.7-2.4 14-1 20.5.9" class="b"/><path d="M10.2 81H17q3 .4 6-.9c9.9-3.1 18.5-16 29-14 3.6.7 6.6 2.8 9.4 5a28 28 0 0 1 8.6 3.3q3.7 2.3 7.6 4.5c1.6.8 3.4 2 5.2 2.1h14.5c4.5-.7 9-1.6 13.6-1.7 8-.3 16 1.2 24 1.7h11q4 .2 7.7-.1c3-.4 5.7-1.7 8.6-2.2 6.5-1.6 13.2-.4 19.6 1" class="b"/><path d="M10.2 79h7.7q1.6 0 3.4-.2l2.5-.8c9.6-3.4 18-16.3 28.2-14.8a21 21 0 0 1 9.4 4.8c1.7 1.2 3.2 3.1 5.1 3.8 5 2 9.5 5.3 14.6 7.1h18.8q7.1-1 14.5-1.2c3.7 0 7.4.7 11 1.2H152c2.4 0 5.1.2 7.6-.2a47 47 0 0 1 11.1-.9q5.6.5 11.1 1.1" class="b"/><path d="M10.2 76.8h8.5c2 0 4.2.2 6-.8C34.1 72.6 42 60 52 60.8c6.7.9 11.4 6.3 16.3 10.4.6.7 1.7 1.2 2.5 1.5l4.3 2.1c1.6.7 3.3 1.7 5.1 2h20.5c5-1 10.2-2.4 15.4-2 4 .2 8 1.4 12 2h53.7" class="b"/><path d="M10.2 74.6h9.4c2-.1 4.1.4 6-.4 9.3-3.2 16.5-15 26.4-15 9 .7 14.2 9.3 21.4 13.5q2.5 1.2 5.1 2h4.3l16.2-.1c5.5-1.5 11.2-3.3 17-2.8q5.7.6 11.2 2.2 3.3.9 6.8.6h47.8" class="b"/><path d="M10.2 72.5h11c2-.1 4.2.2 6-.2 9-3.1 15.2-13.3 24.8-14 8.8.1 14.4 8.3 21.4 12.4q1.6 1 3.4 1.8h20.5c4.2-1.3 8.4-3.1 12.8-3.7 4.6-.8 9.3 0 13.7 1.3q4.2 1.3 8.5 2.3 7.7.2 15.4 0h34.1" class="b"/><path d="M10.2 70.3H23c2.2-.1 4.7.3 6.8-.2 8.4-3 14.5-12 24-12 9 .6 14.7 9.6 23 12.2h17.9c2-.2 4-1.3 6-2 3.3-1.3 6.7-2.6 10.3-3 7.4-1.2 14.4 2.3 21.3 4.3 2.4 1 5.1.7 7.7.7h41.8" class="b"/><path d="M10.2 68.2h20.5c1.2.1 2.4-.6 3.4-1l5.1-3c5.3-3.6 11.3-8 18-6.3 4.7 1.2 8.7 4.4 12.8 7 2 1.2 4.3 2.9 6.8 3.3h14.5c1 0 2.4 0 3.4-.4q3-1.2 6-2.6a27 27 0 0 1 18-3.2c4.7 1 9 3.1 13.6 4.7q2.5 1 5.1 1.5h44.4" class="b"/><path d="M10.2 66h20.5q1.6.1 3.4-.1 2.6-1 5.1-2.5c7.6-4.6 14.1-9.4 23-5 3.3 1.6 6.3 3.7 9.5 5.5 1.6.8 3.3 2 5 2.1h15.4c5.4-1.9 10-5.4 15.4-7 8.5-3.1 16.3 1 24 4.4Q135 65 139 66h42.7" class="b"/><path d="M10.2 63.3c3 1 6.3.5 9.4.6H34c1.8.2 3.5-.8 5.1-1.6q3.5-1.8 6.8-3.8c11.5-6.5 17.3-1.2 27.4 4.1q1.5.9 3.4 1.3h13.6q3.6-1.3 6.9-3.4c4.7-2.7 9.7-5.9 15.3-6.2 7.2-.4 13.4 3.7 19.7 6.5q3 1.4 6 2.4c1 .2 2.3.8 3.4.5q4.6-.8 9.4-.6c2.5 0 5.1 1 7.7.8h23" class="b"/><path d="M10.2 60.2q5.4 2 11 1.5h16.3q3.6-1.4 6.8-3.3c10.8-6.3 16-5.3 26.5.6q3 1.6 6 2.7h12q1.3-.3 2.5-1c7.5-3.6 14.2-10.5 23-10 9.2.7 16.3 7.4 24.8 10 5-1.2 10.3-2.4 15.4-1 2.3.5 4.5 1.5 6.8 1.8 3.1.5 6.3.1 9.4.2q5.6.2 11.1-.1" class="b"/><path d="M10.2 56.9q3 1.2 6 1.9c1.3.3 2.8.9 4.2.8h18c3.6-.8 6.8-3.2 10.2-4.7C58 50 64 53 72.6 57.6c1.6.7 3.3 1.7 5 2H82q3 .1 6-.1l3.4-1.7c7.1-4 13.6-10.7 22.2-10.5 9 .3 16 7 24 10.1 8.5-2.9 12.6-4.9 21.3-.4 7.3 2.6 15.4 2 23 1.3" class="b"/><path d="M10.2 53.6q3 1.4 6 2.2l5 1.7h18.9c3.8-1.4 7.3-3.7 11-5.3 8.5-3.7 14.7-.4 22.3 3.4q2 1 4.2 1.7 2.2.3 4.3.2h4.3q2.3-.9 4.2-2c6.7-4 12.5-10.3 20.5-11.3 9.4-1 16.8 6 24.8 9.8 1.2 0 2.4-1 3.4-1.4a37 37 0 0 1 6.8-2.9c3.1-.9 6.6-.6 9.4.8 2 1 4 2.4 6 3 6.6 2.3 13.7 2 20.5 1.2" class="b"/><path d="M10.2 50.5q2.9 1.5 6 2.3l6 2.3c2.2.4 4.5.1 6.8.2h12c3.5-1.2 6.7-3.2 10.2-4.7 8.9-4.2 15-1 23 3q2.2.9 4.3 1.6 2.2.1 4.3.1c2.8.4 5.3-1.4 7.6-2.8 10.5-7.2 18.2-16 31.6-8.9q4.5 2.4 8.6 5l2.5 1.5.9.5h.8c8.5-5.5 14.6-10.9 24-3.1 6.7 4.3 15.3 4.3 23 3.4" class="b"/><path d="M10.2 47.5c2 1.3 4.6 2 6.8 2.8l6 2.6q1.3.4 2.6.3h15.3c1.2.1 2.4-.7 3.5-1l6-3c9.3-4.8 15-2.6 23.8 1.8 2.5 1.1 5 2.5 7.7 2.2 2.9.3 5.4-1.6 7.7-3 8.9-6 17.3-15.4 29-10.6a56 56 0 0 1 9.4 5c1.7 1 3.3 2.3 5.1 2.9 6.1-4.2 13.3-12.9 21.4-8.5 2.4 1.4 4.3 3.7 6.8 5a35 35 0 0 0 20.5 3.1" class="b"/><path d="M10.2 44.8c2 1.3 4.6 2 6.8 2.8l6.9 3.2c1.6.5 3.4.1 5 .2h13.7q3-1.3 6-2.9c10.2-5.5 15.5-4.8 25.6.4 6.6 3.2 8.2 3.7 14.5-.5 5.7-3.8 10.7-8.8 17.1-11.2 9.3-3.6 18 3 25.6 7.6 4.2-2.8 7.6-7.2 12-10 3.7-2.7 8.1-3.4 12-.4 1.7 1.4 3.2 3.2 5 4.5 6.1 4.5 14 5.4 21.4 4.9" class="b"/><path d="M10.2 42.4q3.3 1.6 6.8 2.7c2.6 1.1 5 2.6 7.7 3.6 3.7.3 7.4 0 11.1.2h6.8q2.7-1 5.1-2.3c10.6-5.8 15.7-6.3 26.5-.7l4.3 2c1 .4 2.3 1 3.4 1q3.7-1.2 6.8-3.5c9.7-6.9 18-15.8 30.8-9.8q3.5 1.6 6.8 3.7L129 41l.8.5h.9c4.8-4.4 8.9-10 14.5-13.4 6.7-3.9 10 .5 14.5 5 6 5.5 14.3 7.3 22.2 7" class="b"/><path d="M10.2 40.3c2.1 1.2 4.6 1.7 6.8 2.6l6.9 3.3c1.2.7 2.8.5 4.2.5H40c1.5 0 3 .2 4.3-.5 11.7-5.6 16.2-10 29-3.3q3.8 2 7.8 3.5c.8.3 1.8-.2 2.5-.5q2.3-1.1 4.3-2.5c5-3.3 9.7-7.6 15.4-10 9.3-4.3 17.7.9 25.6 5.7 4.7-4 8.2-9.3 12.8-13.4 3.5-3.4 8.4-6 12.8-2.4 2.2 1.7 3.8 4.2 6 6a30 30 0 0 0 21.3 7.6" class="b"/><path d="M10.2 38.5c2.4 1.2 5.2 1.7 7.7 2.7s5 2.8 7.6 3.4h12c2.2-.2 4.8.4 6.8-.5 8.5-4 14.9-9.5 24.8-5.6 4.4 1.6 8.3 4.4 12.8 5.7 6.3-2.3 11.2-7.3 17-10.5 7.2-4.3 14-4.5 21.4-.8l5.2 2.7q1.2.8 2.5 1.2c4.8-4.8 8.8-10.6 13.7-15.3 3.6-3.6 8.3-6.1 12.8-2.3 2.2 1.8 3.9 4.5 6 6.5a31 31 0 0 0 21.3 8.7" class="b"/><path d="M10.2 36.9q3.3 1.3 6.8 2.2 3.8 1.6 7.7 3.3h17c1.9.1 3.6-1 5.2-1.7q3.4-1.9 6.8-3.6c11.6-5.8 18 .7 28.2 4.9 4.7-1.6 8.6-5 12.8-7.5 12-8 19.6-6.5 31.6.3l.9-.2c5.1-5.2 9.2-11.5 14.5-16.7 4.2-4.1 9-6 13.6-1.3 1.8 1.8 3.3 4.2 5.1 6 5.5 6 13.4 9.2 21.4 9.7" class="b"/><path d="M10.2 35.5c2.4 1 5.2 1.3 7.7 2.2l4.2 1.8q1.6.8 3.5.8h16.2q1.3-.1 2.5-.7c6.6-3 13-8.2 20.5-7.1 4.6.6 8.8 3 12.8 5.1 4.5 2 4 2.9 8.6.4 15.7-9.6 21.4-14.3 39.3-4.9 1-.3 1.8-1.5 2.5-2.2q1.8-1.9 3.4-3.9c3.4-4 6.5-8.3 10.3-11.9 4.3-4.2 9.1-5.8 13.6-1 1.8 2 3.4 4.4 5.2 6.2 5.4 6 13.2 9.8 21.3 10.4" class="b"/><path d="M10.2 34.3c2.2.8 4.6 1 6.8 1.6s4.5 1.8 6.9 2.2q9.4.2 18.7 0c7.8-3 15-10 24-7.7 5.8 1.3 10.6 5.3 16.2 7.1 4.2-1.5 8-4.1 12-6.2 11-6.2 18.8-4.8 29.8.4 6.8-5.5 11.2-13.6 18-19.3 4.2-3.7 8.7-4 12.7.3 1.8 1.9 3.4 4.3 5.2 6.2 5.4 6.1 13.2 10 21.3 10.8" class="b"/><path d="M10.2 32.2q1.6 1 3.4 1.7 2.6.4 5.1 1l3.5 1q3.3.2 6.8 0h12.8c6.5-2 11.9-7.1 18.8-8 5.1-.8 10 1.4 14.5 3.7q2.5 1.5 5.1 2.7c1 .4 2.3 1.3 3.4 1 4.2-1.5 8-3.9 12-5.7 10.2-4.9 18-3.5 28.2.8 6.9-5 11.3-13 17.9-18.4 4.6-4 9.3-4.6 13.7 0q2.5 3.2 5 6.2c5.6 6 13.3 9.9 21.4 10.8" class="b"/><path d="M10.2 29.9c3.2 2.3 7.2 3.4 11 4H41q2.7-.8 5.2-2.2c9-5 15.3-9 25.6-4 4 1.8 7.7 4.5 12 5.8 3.7-1.2 7.3-3.2 11-4.7 10.2-4.4 18-3.4 28.2.4 2.3-1 4.1-3.3 6-5 4-3.9 7.6-8.4 12-12 4.8-4.1 9.8-5 14.4 0 2 2.1 3.8 4.7 6 6.7a34 34 0 0 0 20.5 9.6" class="b"/><path d="M10.2 27.8a24 24 0 0 0 10.2 3.8q3.5.1 6.9.1 6.8.2 13.6-.1c9.3-3.5 16.6-11.2 27.3-7.3 5.1 1.7 9.6 4.9 14.6 6.8 1.6.9 3.5-.3 5-.8l7-2.6a35 35 0 0 1 20.4-1.5q2.6.5 5.1 1.3c2.2.8 2.5.6 4.3-.8 6.7-4.8 11.6-11.9 18.8-16 8-4.2 12.1 2.7 17 7.8 5.7 5.7 13.5 8.9 21.4 9.7" class="b"/><path d="M10.2 25.8q4.2 2.9 9.4 3.7 6.3 0 12.8 0H40c5-1.7 9.5-5 14.5-7 6.1-2.5 12.2-1.4 18 1.6l7.6 4c1.6.5 3.4 1.6 5.1 1.4 15.7-4.8 20-7 36.7-2.5 6.7-3.6 11.8-9.4 18-13.6 4.7-3.3 9.8-4 14.5-.1 2.4 2 4.4 4.6 6.8 6.6a36 36 0 0 0 20.5 7.8" class="b"/><path d="M10.2 24q3.9 2.8 8.5 3.4H35c1.7 0 3.6.3 5.2-.3 7.8-3 15-9.4 23.9-7.8 6.8 1 12.4 5.6 18.8 7.8 3.3 1 6.9-.5 10.2-1.2q6.3-1.8 12.8-2a63 63 0 0 1 14.5 1.6q1.4.4 2.6-.3 1.8-.8 3.4-1.9c5-3 9.4-7 14.5-9.6a12 12 0 0 1 14.5 1.6q3.3 3.2 6.9 5.8a38 38 0 0 0 19.6 5.8" class="b"/><path d="M10.2 22.5q3.1 2 6.8 2.8H24l14.5-.1c11.1-3.9 18-11.7 30.7-6.3q4.8 2.2 9.4 4.6c2.1 1 4.4 2 6.8 1.8l4.3-.1q4.3-1 8.5-1.6a55 55 0 0 1 20.5.4c1.4.2 3 .7 4.3 0 5.1-2 9.7-5.2 14.5-7.8 5.7-3.1 11.5-4.2 17.1-.3 2.3 1.6 4.4 3.7 6.8 5q6 3.5 12.8 4.3 4 .1 7.7 0" class="b"/><path d="M10.2 21q2.5 1.5 5.1 2.1H35c3 .3 5.8-1.3 8.5-2.5 7-3.4 14.2-7.1 22.2-4.5 5.4 1.6 10.1 4.8 15.4 6.6 2.1.8 4.6.3 6.8.4 4.6.3 9-.8 13.6-1.2q9-.5 18 .9c2 .5 4-.3 6-1q4.3-1.6 8.5-3.6c7.4-3.6 14-5.5 21.4-.7a31 31 0 0 0 11.9 5.5c4.8.3 9.7 0 14.5.1" class="b"/><path d="M10.2 19.6c1.6.8 3.3 1.6 5.1 1.4h16.2c2-.1 4.1.3 6-.4 7.9-2.5 15.3-8.2 24-7 6 .7 11.4 4.1 17 6.4q1.6.8 3.4 1h14.5q7.2-.8 14.6-.5 6.3.6 12.8.5c5.2-1 10.2-3.3 15.3-4.7 4.2-1.1 8.7-1.3 12.8.2 3.5 1.2 6.7 3.4 10.3 4.3 2.2.4 4.6 0 6.8.1h12.8" class="b"/><path d="M10.2 18.2c1.6.9 3.4.6 5.1.6h16.2c1.7 0 3.6.2 5.2-.3 7.3-2.2 14.2-7 22.1-6.8 7.7.2 14.2 5 21.4 7.1h46.1q2.6 0 5.1-.8l7.7-1.7a29 29 0 0 1 16.2 1.5c1.4.4 2.9 1.1 4.3 1h22.2" class="b"/></svg>