<svg xmlns="http://www.w3.org/2000/svg" id="a" width="1920" height="2400" viewBox="0 0 192 240"><defs><style>.b{fill:none;stroke:#fff;stroke-miterlimit:10;stroke-width:.3px}</style></defs><path d="M0 0h192v240H0z" style="stroke-width:0"/><path d="M12.4 230.1q2 .9 4.1 1.5c2.4.6 5 .4 7.5.4q4.5 0 9.2-.2 5.3-.5 10.8.1 4 .2 8.3 0h7.5c4.1-.2 8.3-.6 12.5-.1 5 .5 7 .4 10-4 1.6-2.2 2.8-4.6 5.8-5.1 4.8-1.7 7.4.3 11.6 2 3.3 1.1 7 1.3 10 2.9 2.7 1.4 5.2 3.4 8.3 3.8 2.2.3 4.5 0 6.7 0l5.8.5 5-.1q3-.6 5.9-1c3-.1 6 .8 9.1 1.2 3.8.4 7.2-2 10.8-2.7 3.4-.8 6.8.5 10 1.5q4 1.4 8.3 1.2" class="b"/><path d="M12.4 228.4q2.3 1 5 1.4 3.7 0 7.4-.4 3.3-.2 6.7-.6c2.2-.3 4.4-1 6.7-1q2.5-.3 5 .2 2.4.7 5 1.3 6.5.8 13.3.3 5.8-.3 11.6.2c4.5.5 6.5-1.3 9.2-4.7 1.3-1.5 2.7-3.8 5-3.7 3.7-.4 7.3 1 10.8 2q4 1 8.3 1.1c3 .1 5.6 1.5 8.3 2.5q3.2 1.2 6.7 1.4c3.3 0 6.6 1 10 1.2 3.3.3 6.6-.4 10-.5 6.9.5 7.3 2 14.1-1.7q4-1.7 8.3-1.4c2 .3 4 1.5 5.9 2.3q2.3 1.1 5 1.5 2.4.1 5-.1" class="b"/><path d="M12.4 226.3c1.5.6 3.2 1.3 5 1.3q4.2-.1 8.3-1.6c3-.7 6.1-.9 9.1-1.6 3-.6 6.2-2.2 9.2-.7 1.3.6 2.7 1.6 4.1 2.2 3.7 1.5 7.8 1.5 11.7 1.2s7.8.3 11.6.5c3.4.2 6.4-.3 9.2-2.3 1.5-1 3.2-2.2 5-2.5l12.5.1q5.3.4 10.8 0 2 .2 4.1.5l5.9.9 5 .8q2.4.8 5 1.5 3.7.8 7.4.5c2-.2 4-.6 5.9-.3 3 .6 6.3 1.5 9.1-.4q2-1.5 4.2-2.6c2.6-1 5.6-.1 8.3 0 2.4.3 4.5 1.8 6.7 2.7 2.8 1.5 6 1 9.1 1" class="b"/><path d="M12.4 224c4 2.1 6.8 1.6 10.8-.2 1.6-.7 3.2-1.7 5-2 2.4-.3 5-.3 7.5-.9 4.9-1.6 6.1-3.7 10.8.3 2.7 2.4 6.4 3.4 10 3.2 2.2 0 4.5-.5 6.6 0l5.9 1q2.9.1 5.8-.2c2.5-.3 5-1 7.5-1.2 2.7-.2 5.6.3 8.3 0l6.7-1.2c2.1-.4 4.4-.3 6.6-.7 2-.2 4-.9 5.8-1h3.4q5.4-.7 10.8.2c2 .5 3.9 1.6 5.8 2.2q4.6 1.3 9.2.5c3.7-.6 7.2 2.6 10.8 1 2.3-1 4-3.3 6.7-3.6 1.6-.1 3.3.7 5 1 2.2.2 4.5.3 6.6 1.3q2.8 1.4 5.8 1.7c2 0 4-.4 5.9-.2" class="b"/><path d="M12.4 221.4c4.3 2.8 7.5 2 11.6-.7a10 10 0 0 1 5.8-2.3q3 0 5.9-.3c1.4-.4 2.8-1.4 4.1-2 3.3-2 6 .9 8.4 2.9 2.2 1.9 5.3 2.5 8.3 2.4 1.9 0 4-.3 5.8.3q2.9 1 5.8 1.4c3 .3 6.2-.3 9.2-.2 5.5 0 11.1.7 16.6 0l8.4-1.2 6.6-1.5c1.3-.3 2.8 0 4.2 0l4.1-.9c9-2.3 8-.1 15.8 1.4q1.6.3 3.4.4c1.6 0 3.4-.2 5 .3 2.6.9 5.4 2.5 8.3 1.4 2.4-.9 4.7-3 7.5-2.4 1.9.4 3.8 1.3 5.8 1.3 3.1 0 6 1.3 9.2 1.5 2.4 0 5-1 7.4-.6" class="b"/><path d="M12.4 218.7c4.2 3 7.6 3.2 11.6-.2 1.4-1.3 3-2.7 5-3s4 .1 5.8.3c1.6.1 3-.8 4.2-1.6 3.2-2 5.6-1 8.3 1.2 3.6 3.2 7.3 2.8 11.7 3.4 3 .5 6 2.2 9.1 2.2q3-.1 5.8-.1 3.4.1 6.7 0c2.2 0 4.4-1 6.7-.9s4.4.7 6.6 1q3 .1 5.8-.2c3.1-.2 6.2-.9 9.2-1 2-.2 4 .2 5.8-.2 3.7-.7 7-2.9 10.8-3.3q5.6-.3 10.9 1.3 3.4.6 6.6 2.2c6.3 3 7.8-.5 13.3-.3 2.5.3 5 1.1 7.5 1 2.5.1 5 .7 7.5.5 2.8-.3 5.5-1.7 8.3-1" class="b"/><path d="M12.4 215.8c3 2.1 7.3 4.5 10.8 1.8 1.7-1.2 3-3 5-3.9 2.1-1 4.5-.1 6.6.5 1.5.3 3-.5 4.2-1.1a8 8 0 0 1 5-1c2.4.4 4.4 2 6.6 3 3 .7 6.3 1.2 9.2 2.4 3.7 1.6 7.7 1.3 11.6 1.3 4 0 8.2.5 11.7-1.7 2.8-1.9 5.3-1.6 8.3-.4 5.5 2.8 10 2 15.8 1.9 9.5.2 8.8.3 17.5-3.6 7.8-4 8.6-2.9 15.8 1.3 2.7 1.6 6 2.9 9.2 2.4q3.2-.4 6.6-.4 5.4.6 10.8.5c4.3-.1 8.3-3.3 12.5-1.7" class="b"/><path d="M12.4 212.9c3.3 2 7.7 5.3 11.6 2.8 1.8-1.2 3.6-3 5.8-3.3 1.7-.2 3.4.5 5 1s3.4-.3 5-.8q3.7-1.4 7.5-.4 3.4 1.2 6.7 2.1c1.9.7 3.8 1.7 5.8 2.1 2.2.5 4.5 0 6.7 0q3.7.2 7.4.2c10.2 0 9.1-6.8 16.7-3.8 2.5 1 4.8 2.7 7.5 3.3 5.7 1 11.6.3 17.5.5a14 14 0 0 0 6.6-2c1-.5 2.4-1 3.3-1.7 2-1.3 3.7-3 5.9-3.7 3-.8 5.3 2 7.5 3.6 3.9 3.3 8.3 4.1 13.3 3.8h10q3 .1 5.8-1c4.2-1.9 7-3.9 11.7-1.3" class="b"/><path d="M12.4 210.7q2.8 1.6 5.8 2.8c2.5 1.1 5.1 1.3 7.5-.2a9 9 0 0 1 5-1.3c2.5.2 5 1.6 7.5.9 6.1-1.6 8-1.7 14.1.1 2.2.6 4.4 1.6 6.7 1.4 1.7-.2 3.3-1.2 5-1.4q2.5.2 5 1 3.7.9 7.4-.2c2.6-.5 4.8-2 6.7-3.7s3.3-2.4 5.8-1.8c4 1 6.8 4.5 10.8 5.2 3.8 1.1 7.8 1 11.7.8 2.5-.2 5 .5 7.5-.2q3.5-1.3 6.6-3.2c2.3-1.5 4.6-3.8 7.5-3.4 3.2.9 5.4 3.8 8.4 5.1 6.6 3 15.3 1.7 22.4 1 7-1.1 8-7 15.8-1.5" class="b"/><path d="M12.4 209.8q2.4 1 5 1.4c1.8.5 3.8 1.1 5.8 1 2.2-.1 4.4-1.3 6.6-1.3 2.5.1 5 1.1 7.5 1 3.6-.2 7.2-1.3 10.9-1q3.3.8 6.6 1.3c5.5.7 6.6-6.2 11.7-2.6 1.5 1 3 2.3 5 2.6q4 .2 7.4-1.8c2.6-1.4 4.3-4 6.7-5.6 4.5-1.5 8.1 2.5 11.7 4.5q5.8 3 12.4 2.6h3.4c1.9.2 3.9.6 5.8.1l7.5-2.7c2.9-1.4 6.1-2.2 9.1-.5q3.7 1.9 7.5 2.4c5 .7 10 1.2 15 .5 2.8-.3 5.7-.4 8.3-1.2 6.4-2.5 7-3.6 13.3.4" class="b"/><path d="M12.4 209q2.4.3 5 .4 2.9.4 5.8.6c2.2 0 4.4-.8 6.6-.8 2.5 0 5 .8 7.5.7 3.6.2 7.3-.5 10.9-.4 6.3 1 8.1 1.1 12.4-4.1 4.6-5.5 7 5.4 12.5 4.6 3-.3 6.1-1.4 8.3-3.6 1.4-1.2 2.7-2.9 4.2-4 4-1.5 7.7 1.3 10.8 3.4q4.6 2.6 10 3.3c2.5.3 5 0 7.5.5 2.8.8 5.6.4 8.3-.3l7.5-1c3.4-.3 6.6 1.1 10 1.2l6.7-.2q4.5.5 9.1.5 6.3-.2 12.5-1.2c5.4-1.3 6.5-.9 11.6 1" class="b"/><path d="M12.4 207.5h5.8q2.4.2 5 .3c2.2 0 4.4-.7 6.6-.8 2.5 0 5 .7 7.5.8 4.5.1 9-.2 13.4 0 8.2.5 9.4-9.1 13.3-7.3 4.7 3.6 5 9 12.5 6.9 3.3-.6 5.9-3 8.3-5.2 1.8-1.4 4.5-1.3 6.6-.8 2.4.7 4.4 2.2 6.7 3.1q6 2 12.5 2.3c2.2 0 4.4 1 6.6 1q7.5-.3 15-.1 4.5.2 9.2 0c1.9 0 3.9-.4 5.8-.4 3.3.1 6.7.6 10 .5l15-.6c2.5-.2 5 .5 7.5.6" class="b"/><path d="M12.4 205.5q2.9-.1 5.8-.1c1.9 0 4 .4 5.8.2 3-.3 6.1-1.6 9.2-.9q4.9 1.1 10 1 4.2 0 8.3-.4c4.4-.6 6.9-4 10-6.7 2-1.5 3.8 1 5 2.3 1.4 1.6 2.9 3.6 5 4.4q2 .6 4.1.2 2.2-.2 4.2-.8c3-.8 5.1-3.6 8.3-3.6 3.8-.8 7.2 1.4 10.8 2.2q6.2 1 12.5 1.6c1.9.3 3.9.8 5.8.7h10l6.7-.2 4.1-.3q4.2.7 8.3.4 3.8-.1 7.5.1c8.6-.1 17.3.2 25.8-.1" class="b"/><path d="M12.4 203.2q2.9-.1 5.8 0 2.4.2 5 .2c2.8 0 5.5-1.2 8.3-1.2 2.2 0 4.4.9 6.7 1q6.2.7 12.4-.5c5-.9 7.1-3 10.9-5.8 3.9-2.1 6.4 7.1 12.4 6.5q3.4 0 6.7-.6 2.6-.6 5-1.7 3.3-.7 6.6-.4 3.4.7 6.7 1.3 7 1 14.2 1.4c2.4.1 5-.3 7.4-.1 4.5.5 9-.5 13.4-1 1.6-.3 3.3-.8 5-.4q2.8 1 5.8 1.4c3.6.3 7.2 0 10.8 0q7.5.3 15 0 4.5.1 9.1-.2" class="b"/><path d="M12.4 200.8q2.9 0 5.8.2 3 .3 5.8.2c2.8-.1 5.5-1.2 8.3-1 2.8.3 5.6 1 8.4 1q5 0 10-1.2 3.5-.5 6.6-2c1.7-.7 3.2-2.2 5-2.7 2.4-.3 4.2 1.8 5.8 3 2.8 2.6 5.5 3.3 9.2 2.9 3.4 0 6.6-1.7 10-1.6q4.6.1 9.1 1l8.3.4q3.8.4 7.5.2c2.2-.3 4.5-.8 6.7-.5 2.4.4 5 .9 7.5.2q5-1.1 10-2.6 2.2-.1 4.1 1 2.4 1 5 1.6c4.1.5 8.4.1 12.5.3 7.2 0 14.4-.5 21.6-.5" class="b"/><path d="M12.4 198.3q5.3.7 10.8.7c2.5 0 5-.6 7.5-.7 3.6 0 7.2.7 10.8.8 2.8 0 5.6-.7 8.3-1.2 2.2-.3 4.6-.3 6.7-1 2.8-1 5.2-3.6 8.3-2.9 2.2.5 4 2.2 5.8 3.4 4.1 2.8 8.2 1.4 12.5.3 3-.7 6.1.5 9.2.8q4.8.5 10 .4 3.7.2 7.4.1c4.6-.4 6-2.2 10.8-.4 3.1 1.1 6.3-.1 9.2-1.2l4.2-1.4c1-.4 2.2-1 3.3-1 1.5.2 2.9 1.1 4.2 1.8 2.7 1.7 6 2 9.1 2q4.2.1 8.3.1 3.3-.1 6.7-.4c4.7-.3 9.5-1 14.1-.4" class="b"/><path d="M12.4 195.4c4.7 2 10 1.6 15 .9q3.7-.2 7.4.2c4.2.2 8.4.6 12.5 0 2.8-.4 5.6-.2 8.3-.8 2.1-.5 4-1.8 5.9-2.7q2-.9 4.1-.8c2.6.3 4.5 2.3 6.7 3.6 4.1 2.2 6 .5 10-.8 3-.6 6 1.3 9.1 1.4 4.7.5 9.5 0 14.2.3q3 .3 5.8 0c2-.5 3.8-1.5 5.8-1.3q2.2.4 4.2 1.2c3.4 1 6.9-.9 10-2.2q2.4-1.2 5-2.2c1.5-.2 3 1 4.1 1.7q2 1.4 4.2 2.2 2.9.6 5.8.4l6.7.2q3-.2 5.8-.8l7.5-1c3-.4 6.3-1.3 9.2.2" class="b"/><path d="M12.4 191.7c4.3 3.6 9 3.3 14.1 2.2q3-.2 5.8.3 8 .6 15.9.4c2.4-.2 5 0 7.4-.4 1.8-.3 3.5-1.3 5-2.2q2-1 4.2-1.4c3.6-.7 6 3 9.1 3.8 3.3 1 5.4-1.6 8.4-2.1 1.7-.3 3.4.6 5 1.2q2 .6 4.1.8c5.6.2 11.2-1 16.7.1q2.5.5 5 0c1.8-.5 3.8-1.2 5.8-.8q2 .6 4.1 1c4.2.5 8-2 11.7-3.6q2.1-1.2 4.1.1c1.6 1 3.2 2.2 5 2.8q3 .7 5.9.5h7.5q3-.1 5.8-1.2l7.5-1.6c3.4-.6 6-1.9 9.1.5" class="b"/><path d="M12.4 187.3c3.5 3.8 6.2 6.3 11.6 4.7 2.4-1 5-.7 7.5-.2 3.3.7 6.7.5 10 .6q7 .1 14.1 0c2-.1 4-1.1 5.9-2q2-.4 4.1-.6c2.7 0 5 2 7.5 2.5 4 1 6.3-2.3 10-1.9 2 .4 3.8 1.4 5.8 1.6 4.5.5 9-.8 13.4-.9 3.3-.2 6.6 1.2 10 1.4 1.6 0 3.3-.7 5-1 1.9-.4 3.9.3 5.8.7q3.4.7 6.6-.6 3-1.4 5.9-2.6c1.7-.7 3.5.6 5 1.5q2.7 1.6 5.8 1.8 2.9-.1 5.8-.1 3.8.1 7.5-.3c3.6-1.1 7.2-2.5 10.8-3.4s6-1.2 9.2 1.3" class="b"/><path d="M12.4 183.6c3 3.5 5.2 8.3 10.8 6.1q2.8-1 5.8-.6 2.5.6 5 1 3.4.2 6.7.2h14.1q3.4-.1 6.7-1.2 2.4-.4 5 0c3.2.5 6.6 1.7 10 1 1.8-.4 3.8-1.2 5.8-1.2 2.5.1 5 1.2 7.5 1 3.6.1 7.2-1 10.8-1q3.7-.6 7.5.1c2.4.5 5 1.8 7.5 1 6.3-2.2 8.3 1.6 14.1-.3 2-.7 3.9-1.8 5.8-2.3 2.1-.6 4 .8 5.9 1.6q3.2 1.3 6.6 1.1c4.2-.2 8.5.1 12.5-1q4.7-1.6 9.2-3.5c4-1.5 6.8 0 10 2.5" class="b"/><path d="M12.4 182.1c2.5 2.6 4.9 7 9.1 5.8q2.9-1 5.8-1c3 .4 6.1 1.4 9.2 1.2 4.7-.3 9.4 0 14.1 0q5 .1 10-.5 3.8-.2 7.5.2 4.2.4 8.3.2c2.5-.2 5-.7 7.5-.6q2.5.3 5 .4 3.8-.2 7.5-.8l9.2-.7q2.5 0 5 .6c1.5.6 3.2 1.4 5 1.1q2-.4 4.1-.7c1.6-.2 3.4.3 5 .6 3.4.7 6.7-.9 10-1.7 2.5-.8 5 .5 7.5 1.2q4 .9 8.3.6 8.1-.2 15.8-3c6.6-3.1 7.5-2 13.3 1.7" class="b"/><path d="M12.4 182.6c5.2 4 5.4 3.6 11.6 2.7 3.6-.3 7.2.6 10.8.6 2.5 0 5-.7 7.5-.7s5 .5 7.5.6q5.4-.1 10.8-.1l11.7.2q5.9 0 11.6-.3c2 0 4 .3 5.9 0q3.3-.3 6.6-.8 4.5-.1 9.2-.4a15 15 0 0 1 5 .3c1.6.5 3.2 1.3 5 1.2 1.6-.1 3.3-.6 5-.5s3.8.5 5.8.5c3.6-.1 7.2-1.2 10.8-1.1 2.2.1 4.5.7 6.7 1q4.5.2 9.1 0c2.8-.1 5.5-1.2 8.3-1.3q3-.3 5.8-1c2.2-.6 4.5-1.3 6.7-.5 2 .7 3.9 1.8 5.8 2.3" class="b"/><path d="M12.4 182.8c3.2 1.3 5.8.8 9.1.4 3.3 0 6.7.4 10 .4q3.4.2 6.7-.6 4-1.3 8.3-.5c3 .7 6.1.6 9.1.7 10.8.9 21.7.3 32.5.5 2.8 0 5.6-.9 8.3-1.2s5.6 0 8.3 0q2.5-.2 5 .1c1.4.2 2.8.9 4.2 1 2.2.2 4.4-.4 6.6-.2 5 .6 10 0 15-.1 2.5-.2 5 .2 7.5.3q3.3.2 6.7 0 4.6.4 9.1-.7c2.2-.2 4.5 0 6.7-.2 2.2 0 4.4-.5 6.6-.4 2.5.4 5 1.1 7.5 1.2M12.4 181.5c2.2.1 4.4-.5 6.6-.8q2.5-.2 5 .2c3.8.4 7.8.9 11.7.3 2.2-.3 4.3-1.5 6.6-1.9s4.5.3 6.7.7l8.3 1c5.2.7 10.6.4 15.8.5h18.3q3.3-.6 6.7-1.4 4.6-.3 9.1.2 3 .5 5.9 1.1 2.4.1 5-.2c2.1-.2 4.4.3 6.6.3l8.3-.2q5.5-.1 10.8.2l5-.2c2.2 0 4.5.3 6.7.1q5-.5 10-.2l14.1.3" class="b"/><path d="M12.4 179c2.2-.5 4.3-1.5 6.6-1.6 2-.1 4 .5 5.9.9l5.8.8c5.5.9 7-1.5 11.6-2.5 2-.3 4 .2 5.9.6q3 .1 5.8.9c3.8 1.1 7.7 1 11.6 1.2q10.5.2 20.9-.2c2.4-.3 5 .4 7.4.1 3.4-.3 6.7-1.4 10-1.3 3.7-.1 7.2 1.8 10.8 1.3 3.3-.6 6.7-.1 10 0 3 .2 6.2-.2 9.2-.2 2.5-.2 5 .2 7.5.3q4-.1 8.3-.1 8.8.1 17.5 0c4.1.1 8.3-.2 12.5 0" class="b"/><path d="M12.4 175.8c3.4-2 6-3.2 10-1.6q2.8 1 5.8 1.5c1.6.4 3.3 1.1 5 1.3 3.3.5 6-2.3 9.1-2.7 2.8-.4 5.6.7 8.3.4 2.6.2 5 1.4 7.5 1.8q2.5.3 5 .2 6.7.5 13.3.3 4.2 0 8.4-.3c1.3-.1 2.8-.5 4.1-.4 2 0 4 .6 5.8.7 2.9.3 5.6-.7 8.4-1.1 3-.6 6 1.1 9.1 1.2q2.6-.3 5-.7c2.8-.2 5.6.4 8.3.6q3.8.1 7.5-.4c2.5-.4 5 .3 7.5.4h25c4.7-.2 9.4-1 14.1-.2" class="b"/><path d="M12.4 172.4c3.8-3.5 6-4 10.8-1.8 1.8.8 4 .8 5.8 1.7 1.7.7 3.2 2 5 2.5 3 .6 5.5-2 8.3-2.3 2.8-.5 5.6.3 8.3-.5 3.2-.2 6 1.9 9.2 2l3.3-.3q2.6.1 5 .5 4.2.3 8.3.1 4.2 0 8.4-.2c1.6-.3 3.3-1 5-1 2.5.1 4.9 1.6 7.4 1.8 2.3.2 4.5-.8 6.7-1 2-.3 4 .5 5.8.9 3.1.6 6-1.6 9.2-1.3 3.3.1 6.6 1.3 10 1.4q2.4-.2 5-.8c2.2-.3 4.4.7 6.6.7H153q6.7.1 13.3 0c4.4-.6 9-1.1 13.3-.3" class="b"/><path d="M12.4 169c3.7-4.2 5.9-4.2 10.8-2q2 .8 4.1.9c2.7.4 4.5 2.7 6.7 4 2.7 1.8 5.6 0 8.3-.8q3-.6 5.9-1c1-.2 2.2-1 3.3-1 3.4-.2 6.5 2.4 10 1.6 3-.8 6 .2 9.1.3q3 0 5.9-.2 2.4.1 5 .4 2 .2 4.1-.1c1.8-.7 3.9-1.4 5.8-.8 2 .5 3.8 1.9 5.9 2.3 2.5.5 5-.8 7.4-.7 1.7.1 3.4.8 5 .8 2.1.1 4-1.1 5.9-1.8 3-1 6.2 0 9.1.6 2.1.8 4.4 1.5 6.7 1q2-.3 4.1-.4 2.6.4 5 .6h18.3q4.2 0 8.4-.1 6.1-1 12.4-.1" class="b"/><path d="M12.4 165.8c4.7-5.3 7-2.2 12.4-1q2.2 0 4.2.2c3.2 1 5.2 4.1 8.3 5.2 3.3.9 6.8-.4 10-1.3 2-.6 3.7-2.2 5.8-2 2.6 0 5 1.5 7.5 1.3 3.9-.9 7.8-.3 11.7-.6q2.5-.4 5 0c2.4.4 5 1.4 7.5 1.4 1.6-.1 3.3-1 5-.8 2.9.2 5.3 2.3 8.3 2.3 1.9 0 3.9-.8 5.8-.7 2.5.1 5 1.2 7.5.3 2.2-.8 4.3-2.2 6.6-2.4q3.4-.3 6.7.7c2.1.9 4.3 2 6.7 2.1q5.8 0 11.6-.2 8.3.2 16.7.2c6.6 0 13.3-.3 20 0" class="b"/><path d="M12.4 163.6c2.9-2.8 6.4-2.2 10-1.5 2.1.4 4.4-.1 6.6 0 2.9.4 5.2 2.5 7.5 4q2.7 1.6 5.8 2.1 3.6.5 6.7-1 2-1.2 4.1-1.8c2.3-.3 4.5.6 6.7.8q2.1 0 4.2-.4l5.8-.7c6.8-1.4 8.2.7 14.1 2 2 .4 4-.2 5.9 0 2.2 0 4.4 1 6.6 1.2 2.3.3 4.5-.8 6.7-.8s4.4 1 6.7.8c4.2-.6 8-3.4 12.4-3.5 2.4-.1 4.6 1.2 6.7 2.2q4 1.7 8.3 1.1 3-.6 5.8-.8 3.3.2 6.7.6l10 .3c6.6.1 13.4.4 20-.2" class="b"/><path d="M12.4 162.4c2.3-1 5-1.2 7.5-1.7q3.2-.7 6.6-1.2c3.6-.2 6.9 1.7 10 3.2q2.4 1.2 5 2c1.8.7 3.8 1.5 5.8 1.4 2.4-.2 4.4-1.7 6.7-2 3-.6 6 .8 9.1 0 7-.6 9.6-2.5 16.7 0q2.4 1 5 1.4 2.4.1 5 .1c2.4 0 5 .6 7.4.5 2 0 4-.9 5.9-.8 2.2 0 4.4 1 6.6.8q4.4-.3 8.3-2c2.2-.9 4.4-2.1 6.7-1.8 2.6.3 5 1.8 7.5 2.5q2.5.7 5 .1c2.1-.6 4.4-1.4 6.7-1 1.9.1 3.8.8 5.8 1.1l9.1 1c7 .2 14 .3 20.8-.7" class="b"/><path d="M12.4 161.8q4.8-.1 9.1-2.6c1.5-.8 3.2-2 5-2 3 .3 5.5 2.3 8.3 3.2 2.4 1 5 1 7.5 1.6 2.4.8 4.9 2.5 7.5 1.7 1.7-.4 3.3-1.2 5-1.5 2.5-.4 5 .5 7.5.2 3.6-.2 7.2-1 10.8-.9l5.8 1q3 .8 5.9 1.1 6.2.3 12.4.3c1.7-.1 3.4-.7 5-.8 2.3-.1 4.5.6 6.7.8q4.6.2 9.1-1.2c2-.7 3.8-2 5.9-2.5q3-.5 5.8.3c2.1.5 4.4 1.3 6.7.9 1.9-.4 3.8-1.5 5.8-1.2 2 .2 4 1.2 5.8 1.9q3 .9 5.9 1.3 5.3.7 10.8.5 7.5.2 15-1.2" class="b"/><path d="M12.4 161c11 .6 10.5-7.6 17.4-3.7 4.8 2.7 6.4 2.8 11.7 2.7 2.6.2 4.9 1.8 7.5 1.7 2 0 3.9-1 5.8-1.4 2.2-.4 4.5.1 6.7.1 3.3-.1 6.6-.5 10-.4q2 .1 4.1.5l5 .7c4.7.8 9.5.5 14.2.5 2.5 0 5-.8 7.4-1 3.1 0 6.1 1.3 9.2 1q3.4.1 6.7-.7c1.7-.5 3.3-1.5 5-2.2q3-1.4 6.6-1.5c2 0 4 .5 5.8.3 1.7 0 3.4-1 5-.7 2.1.4 4 1.6 5.9 2.6q2.4 1.2 5 1.7c3.8.9 7.7.4 11.6.2q8.4.5 16.7-1" class="b"/><path d="M12.4 159.5c12.5.7 10-5.7 18.3-2.5q3.2 1.3 6.6 1.6c1.7 0 3.4-.4 5-.3 3 .2 6 1.7 9.2 1l5-.8h5a71 71 0 0 1 10-.4c3.5.3 7.1 1.1 10.8 1.4q5-.2 10-.3 2.4 0 5-.5c1.5-.3 3.3-.8 5-.6 2.4.2 4.9 1.2 7.4 1.4 3 0 6.2.2 9.2-.8q4.8-2.1 10-3.8c2-.7 4.4-.7 6.6-.9l3.3-.3c3.3.4 5.5 3.1 8.4 4.4q3.6 1.5 7.5 1.4c3 0 6-1.8 9.1-1.5q3.8.7 7.5.7 4.2-.5 8.3-1.3" class="b"/><path d="M12.4 156.9c2.7-.2 5.5.6 8.3.4 2.5-.3 5-1.4 7.5-1.2 2.7 0 5.5.6 8.3.7q3-.1 5.8-.4c3-.1 6.1 1 9.2 1 5.2-.2 10.5-1.1 15.8-1.4 3.6-.1 7.2.6 10.8 1.1q2 .3 4.2.1 2.4-.5 5-.8 3.7-.2 7.4-.8c2-.2 4-.8 5.9-.7 2.5.2 5 1.4 7.5 2q3.2.6 6.6.4c2.7 0 5.2-1.2 7.5-2.3q4.5-1.5 9.2-3 3.7-1 7.4-.7c2.2.4 4 2 5.9 3.3q3.6 2.9 8.3 2.7 3-.1 5.8-1.6c1.6-.8 3.3-1.8 5-1.7 2.5.1 5 .7 7.5.9 2.8 0 5.6-.7 8.3-1" class="b"/><path d="M12.4 153.2c3.4-.6 6.6 1.5 10 1.8 3 .3 6 0 9.1 0 3-.2 6.1 0 9.2-.3 5-.5 10 .7 15 .4 4.4 0 8.8-1.5 13.2-1.1 4 .1 7.8 1.3 11.7 1 1.7-.2 3.4-1 5-1.6q3-.3 5.8-.8c3.3-.6 6.8-1.7 10-.5 2.2.8 4.4 1.9 6.7 2.4 3 .6 6.2 1 9.1.2 1.7-.6 3.4-1.6 5-2.2q2.5-.6 5-1.2c3-.7 6-1.8 9.1-1.6q3.1-.2 5.9 1.3c5.7 3.7 10.2 6.2 16.6 1.9q2.1-1.4 4.2-2.6a13 13 0 0 1 4.1-.8c2 0 4 .8 5.9 1 2.2.2 4.5-.1 6.6.2" class="b"/><path d="M12.4 149c2.9-.6 5.6 1.2 8.3 2.1q4.4 1.5 9.1 1.7c5.3.4 10.6-.2 15.8 0 5.6 0 11.3.6 16.7-.9 3-.8 6.1-.3 9.1.2q3.8.7 7.5.8c2.4 0 4.5-1.2 6.7-2 3.4-.2 6.7-1.1 10-1.8s6.2 1 9.1 2.2q4 1.5 8.3 1.6 2.7.1 5-1c1.9-.9 3.7-2.3 5.9-2.3 4.1 0 8.3-1.2 12.4-.9 1.7 0 3.5-.2 5 .4 2.9.9 5.4 2.9 8.3 3.5 9 2.2 12.5-8 19.2-7.3 1.7.3 3.3 1.5 5 2q3 .4 5.8 1.1" class="b"/><path d="M12.4 146.1c2.5-.7 5.1.6 7.5 1.5q3.6 1.4 7.4 2 5.8 1.1 11.7 1 6.6.2 13.3-.1 3.8 0 7.5-1c3-1 5.1-1.7 8.3-.7 4.3 1.2 8.9 2.2 13.3 1.8 2.2-.3 4.5-1 6.7-1 2.5-.2 5-1 7.5-1.4 3.4-.8 6.7.8 10 1.7q5 1.4 10 .5c2.3-.5 4.3-2.1 6.6-2.8 2-.3 4 0 5.9 0h6.6c2.5.3 5-.3 7.5.5 3 .8 6 2.7 9.2 2.6 7.6.3 11.6-9.2 17.4-7.4 1.8.7 3.3 2 5 2.7 1.9.7 4 1 5.9 1.8" class="b"/><path d="M12.4 144.4c2.7-.9 5.6.5 8.3 1.2q3.7 1 7.5.8c3.6.2 7.2 1 10.8 1.2q5 .3 10-.3c2.2-.2 4.5.1 6.6 0q3-.2 5.9-1.5c4.5-2.4 8.8 1.8 13.3 2.2q5 .8 10 .4 3.4 0 6.6-.4c2.2-.2 4.5-.8 6.7-.8q3 .1 5.8.8c3.8.6 8 1 11.7 0 2.2-.7 4.3-2.3 6.6-2.7 2.8 0 5.6.8 8.4 1l6.6.6q2-.3 4.2-.3c3.7 0 7 2.4 10.8 1.9 5.8-.5 11-8.2 16.6-6 1.8.6 3.4 2 5 2.8q2.9 1.3 5.9 2" class="b"/><path d="M12.4 143c5.2-1.6 8.9 2.4 15.8-.2 3-1 6.2 0 9.1.9q3 .7 5.9.3c2.1-.2 4.4-.7 6.6-.5 2.2.4 4.4 1 6.7.9 3.1-.2 5.9-2.7 9.1-2.2 2.4.3 4.5 1.9 6.7 2.8 3.7 1.5 7.8 1.3 11.6 1.4l8.4-.1q3.2-.2 6.6-.4c2.2 0 4.5.4 6.7.4q4.2.1 8.3-.4c2.6-.4 4.9-2.1 7.5-2.7 2.2-.4 4.5.7 6.6 1 3.3.7 6.7 1.4 10 1.2q3.8-.6 7.5-.2c2.8.7 5.5 1.8 8.3.6 2.6-1 5-2.5 7.5-3.3 3.3-1.4 7-1.9 10 .2 2.6 1.6 5.3 3.2 8.3 3.4" class="b"/><path d="M12.4 141.3c3.7-1.5 7.8.8 11.6-.2 3.5-1 6-4.8 10-2.7 3.4 1.8 5.2 2.8 9.2 2 1.8-.3 3.9-.8 5.8-.4 2.1.8 4.3 2 6.6 2 2.7 0 5-1.6 7.5-2.2 3.4-1 6.4 1.2 9.2 2.7a16 16 0 0 0 5 1.4c4.1.4 8.3 0 12.5.1q5 .2 10 0 6.1.3 12.4-.3c3-.2 5.6-1.8 8.3-2.6 2.6-.6 5 .9 7.5 1.3a56 56 0 0 0 10 1.1q3.8-.4 7.5-.3c2.9.4 5.5 1.6 8.3.3 1.7-.6 3.3-1.6 5-2q1.6-.4 3.4-.6c2.4-.4 5-.8 7.4-.1 2 .6 3.9 2 5.9 2.7q2 .7 4.1.6" class="b"/><path d="M12.4 139.3c2-.8 4.4-.4 6.6-.2 5 .4 6.5-1.8 10-4.6s6 2 9.2 3c3.5 1.3 7.3-1.6 10.8 0 2.8 1.7 5.7 3.2 9.1 2 2.4-.8 5-1.9 7.5-1.8s4.6 1.6 6.7 2.6q3.2 1.4 6.6 1.4c3.6.2 7.3-.5 10.9-.4 4.1.3 8.3.8 12.4.6q3.3-.1 6.7-.5 2.5 0 5-.4c2.5-.5 5-1.9 7.5-2 2.2 0 4.4 1 6.6 1.2l9.2 1h8.3c2.5.3 5 1.2 7.5.4q2.4-1 5-1.6 1.7-.2 3.3-.2c2.8-.1 5.6-.5 8.4 0q2.4.8 5 1.7 2.4.7 5 .4" class="b"/><path d="M12.4 137.7c2-.6 4.4-.5 6.6-.7 4.4-.1 6.3-2.4 9.2-5.2q2.4-2.3 5-.5c2.8 2.3 4.3 4.2 8.3 3.8 2.2-.1 4.5-.7 6.6.1 2.2 1 4.2 2.7 6.7 2.8 2 .3 4-.3 5.8-.8q3-.6 5.9-.4c2 .2 3.9 1.1 5.8 1.7q4.2 1 8.3.8c2.5-.2 5-1 7.5-1 3-.2 6.1.8 9.1 1.1 5 .6 10-.5 15-.4 3.1 0 6-1.5 9.2-1.7 2 0 3.9.8 5.8.8 2.7.3 5.6 0 8.3.4q3.8.5 7.5.6 3.8.4 7.5.7c3.3-.1 6.6-1.4 10-1q4.5-.1 9.2.2 2.4.4 5 .7h5" class="b"/><path d="M12.4 136.6a34 34 0 0 0 10-2.8c5.7-3.3 6.3-8 13.3-2.7 2.2 1.3 5 1.3 7.5 1.9q3.8.7 7.5 2.4c2.9 1.1 6 1 9.1.9h7.5c5.5.3 11.3 1.5 16.6-.4q3.7-1.1 7.5-.4c2.5.5 5 1.4 7.5 1.6q7.1.3 14.2.2c2.7-.1 5.5-1 8.3-1.2 2.7 0 5.6.6 8.3.2q2.5-.3 5-.4l5.8.6q4.5.9 9.2 1c2.7.1 5.6-.2 8.3 0h15c2.2 0 4.4-.4 6.6-.3" class="b"/><path d="M12.4 135.2c4.1 0 8-1.8 11.6-3.9 3.1-2.3 6.2-3.3 10-2.2 1.6.6 3.4.3 5 .5 3.2.8 6 2.9 9.1 3.9 3.5 1.2 7.3.9 10.9 1.4q5.8.6 11.6.2c3-.2 6.2 0 9.2-.5 2-.3 3.9-1.3 5.8-1.8a18 18 0 0 1 7.5.8c5 1.8 10.5 1.8 15.8 1.8q5.4.2 10.8-.5c2.7-.4 5.6-.1 8.3-.3 2.2 0 4.5-.6 6.7-.8q3 0 5.8.2c3.3.6 6.7 1.3 10 1.3 4.4.2 9-.3 13.3-.5q4.6-.1 9.2 0c2.2 0 4.5-.4 6.6-.2" class="b"/><path d="M12.4 133.1q4.2.3 8.3-1c2.5-.8 4.9-2 7.5-2.3q3.4-.5 6.6-1.2c1.7-.3 3.4-1.4 5-.7 1.8.6 3.4 2 5 2.9q2.7 1.6 5.8 1.7 2.6 0 5 .2 2.6.4 5 .5 4.2-.4 8.3 0 4.6 0 9.2-.4c2.3-.2 4.5-1.2 6.7-2 4.8-1.4 9.4 2 14.1 2.2 4.4.5 8.9-.3 13.3-.3 2.2.2 4.5.6 6.7.4q4.5-.4 9.1-.4c4.2-.2 8.3-1.4 12.5-1.2 2 0 4 .6 5.8.9q3 .3 5.9.4c4.5 0 8.7-2.4 13.3-2.5 2.5-.1 5 1 7.5 1.4 2.2.3 4.5 0 6.6.3" class="b"/><path d="M12.4 130.8a56 56 0 0 0 12.4-.7q3-.3 5.9-.7a31 31 0 0 0 6.6-2.5c1.7-.7 3.6.2 5 1q2.4 1.7 5 2.4c2.2.5 4.5.2 6.7.3 1.9.1 3.9.6 5.8.3q2-.6 4.2-.9c2.5 0 5 .8 7.4 1q4.6.2 9.2-.7c2-.5 3.8-1.8 5.8-2 3 0 5.6 1.3 8.3 2 5.2 1.6 10.6-.3 15.9-.6 2.5-.3 5 1 7.5 1.2 3 .2 6-.4 9.1-.3 4.5 0 8.9-1.2 13.3-1.5q3-.1 5.9.5 2.4.3 5 .3c4.5.2 8.2-2.8 12.4-4q2.6-.5 5 .5c1.6.7 3.3 1.8 5 2.3q3 .4 5.8.7" class="b"/><path d="M12.4 128.8c6-.1 12.2.1 18.3-.7q2.5-.5 5-1.4c1-.4 2.2-1 3.3-.9 1.7.1 3.4 1 5 1.5 3.1 1.3 6.6 1.2 10 1.2 1.6 0 3.3.4 5 .2q2-.3 4.1-.8c3.6-.5 7.2.8 10.8.8q3.9.3 7.5-.8c1.9-.7 3.8-2 5.9-1.5 3.9.6 7.6 2.8 11.6 2.3 4.4-.5 8.9-1.8 13.3-1.8 1.7.2 3.4.9 5 1.3q2.5.7 5 .5 5.9.2 11.7-.6 4-.5 8.3-.8h5.8q3.3.2 6.7-.7c4-1.4 7.8-5.2 12.5-4 2 .5 3.8 1.8 5.8 2.6 2.1.7 4.5 1 6.6 1.7" class="b"/><path d="M12.4 126.5q8.7.2 17.4 0c2.8-.3 5.6-1 8.4-1.3 2.5 0 5 .9 7.4 1q5 .4 10 .4 3.4 0 6.7-1 2.5-.3 5 0c4.1.3 8.3 1.6 12.5.6 1.6-.4 3.3-1.2 5-1.6 2-.5 4 .5 5.8 1q5 1.7 10 .3l7.5-1.4c2.1-.4 4.5-.9 6.6 0 2.7.9 5.5 1.9 8.3 2q8.4.2 16.7-.3c4.7-.4 9.7-.3 14.2-2.1 3.4-1.3 6-5.3 10-5 2.8.4 5.5 1.5 8.3 2.3 2.5.4 5.2.9 7.5 2.4" class="b"/><path d="M12.4 124.1q3.7.3 7.5.2 4-.5 8.3 0c3.3.2 6.7-.2 10-.2q7.5.5 15 .2 2.4 0 5-.6c1.5-.4 3.2-1 5-1 4.7-.2 9.3 1.8 14 1.6 2.4-.1 4.5-1.3 6.7-1.8 2-.5 4 .4 5.9 1 3.2 1.2 6.8 1 10 0 3.2-.8 6.7-1.2 10-2.2 3.3-1.2 6.7.5 10 1.4q4 1 8.2 1.3c3.6.5 7.3.3 10.9.3 4.1 0 8.5.3 12.4-1a18 18 0 0 0 5.9-3.9c1.2-1 2.5-2.5 4.1-3q1.8-.2 3.4.7 2 .7 4.1.8c4.5.1 7.1-2.4 10.8 1.7" class="b"/><path d="M12.4 122q2.4.3 5 .1 2.9-.4 5.8-.6c1.9 0 3.9.5 5.8.6q5.9.2 11.7 0c3.8-.5 7.7-.4 11.6-.7q3.9-.6 7.5-2.3c2.8-1.1 5.7.6 8.3 1.4q4 1.6 8.3 1.7c3.4-.1 6.5-3 10-2 2 .7 3.8 1.9 5.9 2 2.8.1 5.6-.8 8.3-1.7q3.4-.4 6.6-1.3c4.5-1.8 6.3-1.6 10.9-.1 2.6 1 5.5 1.1 8.3 1.8q5.3 1.4 10.8.7c2.8-.5 5.6 0 8.3.4 8.4 1 9.1-2.3 15-6.5 1.3-.6 2.9 0 4.2.5q1.6.6 3.3.2c4.6-1 7.5-7.6 11.6-1.7" class="b"/><path d="M12.4 120q2.4 0 5-.2c2.1-.4 4.4-.9 6.6-.6q6.7 1 13.3.3c2.5-.2 5-1 7.5-1.2 4.3 0 7.8.4 11.7-2 1.5-.8 3.1-2 5-2.1 2.2.3 4 2.1 5.8 3.2q4.5 3 10 2.5c2.2-.4 4.4-1.6 6.6-1.8 3.9-.4 6 2.8 10 1.6q3-.8 5.9-2 2-.4 4.1-.5c2.8 0 5.5-1.5 8.3-1.5 3.2.3 6.1 1.8 9.2 2.3 4.4.3 8.8 1.7 13.3 1.3 2.2-.4 4.4-1.1 6.7-1 3.6.2 7.1 1.8 10.8 1.7 3.5-.2 6-3.3 9.1-4.4 1-.3 2.3 0 3.4 0q2.3.2 4.1-1.3c1.9-1.4 3.4-3.4 5-5.1 2-2.4 4-2.7 5.8.1" class="b"/><path d="M12.4 117.8c3.3.2 6.6-.6 10-.8q3.3.2 6.6.5 3.8 0 7.5-.5c2.9-.2 5.5-1.5 8.3-2 2.5-.4 5.1-.1 7.5-.9 2.7-.8 5-2.7 7.5-3.8 2-.7 3.7.7 5 2q2 1.9 4.2 3.5c2.6 1.8 6 2.1 9.1 1.9 2.2-.2 4.4-1 6.7-1q2-.2 4.1.7c3.5 1.2 7-1 10-2.3 2-1 4.5-.4 6.7-.3h5.8c2.5.1 5 1 7.5 1.5 2.1.5 4.5.4 6.6.6q4.2.6 8.4.4c5-.6 8-3.2 13.3-1.3 6 2 8.1 2.6 14.1 0q1.6-.5 3.4-.8c3.3-1 5.4-4.2 7.5-6.8 1.9-2 4.5-7 7.5-3.4" class="b"/><path d="M12.4 115.6c3.6.1 7.2-.3 10.8-.3 4.7.2 9.5.5 14.1-.2 2.6-.4 5-1.6 7.5-2.5 2.4-1 5-1.3 7.5-2 3.2-1 6.6-3.5 10-2.2 2.7 1.5 4.7 4.2 7.5 5.6q2.8 1.4 5.8 1.4 3.8.4 7.5 0c6.2-1 7.9 1.8 14.2-1.6 2.9-1.7 5.1-1.5 8.3-.6q6.6 1.4 13.3 2 5.4 0 10.8.2 3.4.1 6.7-.6c3.6-1 6.9-3.5 10.8-1.9 6.4 2.2 12 4.3 18.3.7 2.7-1.7 4.6-4.5 6.7-6.8 2-1.9 4.2-6.7 7.5-4.9" class="b"/><path d="M12.4 113.3c2.7-.2 5.5.2 8.3 0h15q4.3.2 8.3-1.6c5.1-2.4 10.8-4.7 16.6-3.4 4.4.9 8 4.2 12.5 4.6q7.1.6 14.2.4c3 0 6.2.4 9.1-.6 4-1.6 5.8-1.7 10-.4 5.7 1.6 11.7 1 17.5 1 5.3 0 10.9.7 15.8-1.7 4.3-2 5.7-1.2 10-.1q3.4.4 6.6 1.1c2 .4 4 1 5.9.6a14 14 0 0 0 6.6-4q2.6-2.2 5-4.6c1.7-1.6 3.3-4 5.9-4" class="b"/><path d="M12.4 110.8c3.3-.5 6.6.3 10 .2 3 .1 6-.8 9.1-.7 7.8.8 9.7 1.9 17.5-1.2 3.1-1.5 6.7-1.1 10-.2q6.1 1.3 12.5 2 4.5.1 9.1.1 5 .3 10 .2 4.2.2 8.3-.4c3.3-.7 6.7.3 10 .4 4.2 0 8.3-1 12.5-.7l6.6.4q3 .3 5.9.3c3.4-.2 6.5-2.1 10-2.1 1.9 0 3.9.8 5.8.8 3 0 6.2-.4 9.1.7 5 2 8.5-1.6 12.5-3.8 3.1-1.7 5-5.2 8.3-6.5" class="b"/><path d="M12.4 108.3c3.2-.7 6.6 0 10-.2 2.8 0 5.5-1.4 8.3-1.4 2.5 0 5 1 7.5 1.6q3.2.9 6.6.7c3 0 6.1-1.2 9.2-1q3.8.2 7.5.7 5 .3 10 .3h15q4-.1 8.3 0h7.4q4.7.3 9.2-1c3.8-1 7.7-2.8 11.6-1.9 3.5.7 6.7 2.4 10 2.9q3 0 5.9-.7 2.4-.5 5-.5c1.6 0 3.3.4 5 .3 3.3-.1 6.7-1.6 10-.3 1.5.6 3.2 1.4 5 1.2 2.8-.4 5.6-1.7 8.2-3 2.8-1.7 4.7-4.7 7.5-6.4" class="b"/><path d="M12.4 105.5c3.2-1.1 6.7-.4 10-.8 2.5-.3 4.9-1.8 7.4-1.5 2.9.4 5.6 1.7 8.4 2.3q5.7 1.4 11.6 1.3 10.9 0 21.7-.3c5.8.1 11.6.5 17.4.2 7-.7 14.2 1.2 20.8-1.6 3.9-1.2 7-4.2 10.9-5.2 2-.4 4 1 5.8 2 5.1 3.9 5.5 5.6 12.5 4.6 4.1-.6 8.4.2 12.5-1.1 3.2-1.1 6-1.4 9.1.3 4 2 8.8 1 12.5-1 2.5-1.7 4.3-4.4 6.6-6.2" class="b"/><path d="M12.4 102.6c2.8-1.2 6-.6 9.1-.9 2.3 0 4.4-1.4 6.7-1 2.5.3 4.9 1.7 7.5 2 3.8.7 7.7.8 11.6 1.3 4.4.5 9-.2 13.3-.5q3.4-.1 6.7 0 3.8-.1 7.5.4 9.5.8 19.1.6c8 0 10.6-.4 17.5-4.7q2.6-1.7 5-3.6c1.4-1.1 3.1-2.4 5-2.6 2 0 3.6 1.8 5 3 2.8 2.7 4.8 7.4 9.1 8q3.8.1 7.5-.2 4.5-.1 8.3-2c2.3-1.3 5.1-1.8 7.5-.6 4.5 2.3 9.4 4.2 14.2 1.4 2.6-1.7 4.4-4.4 6.6-6.5" class="b"/><path d="M12.4 100.4c2.9-1.2 6-.6 9.1-.6 1.7 0 3.4-.6 5-.8q1.7 0 3.3.7c1.9.6 3.9 1.3 5.9 1.3q3.2-.1 6.6-.1c2.8 0 5.6.5 8.3.1q3-.6 5.9-1.5c5-1 10 .5 15 1.1q4 1 8.3 1.3 5 .5 10 .5c3.3-.2 6.6.2 10-.2 5-.8 8.2-5.6 12.4-8 2.9-1.8 5.7-4.7 9.2-4.7 2 .3 3.5 2 5 3.4 2.8 2.8 4.6 7 8.3 9 2.3.8 5 .4 7.5.5 4 0 6-1 9.1-3.4q3.6-2.6 7.5-.8c2.9 1.1 5.4 3 8.3 4 5.6 1.4 9.2-4.5 12.5-7.9" class="b"/><path d="M12.4 99c3-1 6-.3 9.1-.3 1.7.1 3.4-.4 5-.5 2 0 4 .7 5.8 1q3.4.4 6.7-.3c6.1-.9 9.4 1.3 15-2.7 3.5-2.5 7.8-1.6 11.6 0q5 1.6 10 3c3 .4 6.1 1 9.2 1 2.8.1 5.5-1 8.3-.9 8.9 1.8 9.2 1.4 15-5.6q2.6-3.4 6.6-4.9 2.8-1 5.9-.9c1.9.3 3.4 1.8 5 2.8 3.4 2.4 5.4 6.5 9 8.6q2 1 4.3.8 2.4.1 5 .1c3 0 5.3-2 7.4-4 2.8-2.5 5-2.3 8.4-1 2.5.7 4.5 2.8 6.6 4.2 5.5 3.3 9.8-4.5 13.3-7.6" class="b"/><path d="M12.4 97.8c3-.4 6-.1 9.1-.1q3-.1 5.8-.3 3.7.3 7.5.3 3-.2 5.9-.6c3.6-.5 7.7 0 10.8-2.5q2-1.7 4.1-3.2 2.4-1.2 5-.2a31 31 0 0 1 5 2q3.3 1.4 6.7 2.6 2.4 1 5 1.6c10.6 2.6 11.7-4 18.3-.8 3.3 1.6 6.5 2.4 9.1-.8 3-3 5-8.4 10-8.6a14 14 0 0 1 9.2 2.6q2.6 1.5 5 3.2c2 1.6 4 3.8 6.6 4.5q2.1.5 4.2.3 2.9.2 5.8.2c2.7 0 4.7-2.1 6.7-3.7 2.8-2.4 5-2 8.3-1 2.5.9 4.3 3.2 6.7 4.4 4.5 1.9 9.1-5.4 12.4-7.8" class="b"/><path d="M12.4 95.8h19.1c4.7 0 9.6.3 14.2-1q2.6-.8 5-2.3c2.3-1.8 5-4.7 8.3-3.6 3.9 1.4 7.5 3.7 11.6 4.7 3.3 1 6.6 2.3 10 2.2 4.2 0 7.5-3.9 11.7-3.9 2.4.3 4.4 2.2 6.6 3.1q3.8 2 6.7-1.3c5.7-6.9 5.7-10 15-4.7 3 2 6.7 3 10 4.5q2.7 1.5 5.8 2 2.4-.2 5-.2c7.3.8 6.4 1 12.4-3.3 2-1.4 4.6-.9 6.7-.2 2.4 1 4.2 3.1 6.7 3.9 2.4.6 4.7-1 6.6-2.5q3-2.2 5.8-4.6" class="b"/><path d="M12.4 93.3c5.8.5 11.6-.1 17.4 0h8.4c2.1.2 4.4.6 6.6.1a20 20 0 0 0 6.7-3.3c1.7-1.1 3.6-2.5 5.8-2.2 1.5.1 2.9 1 4.2 1.5l5 2q3.2 1 6.6 1.3 2.5.7 5 1c2.8.2 5.3-1.3 7.5-2.8 5.2-3.2 7.6-2.8 12.5.6 2.2 1.4 5 3.1 7.5 1.3 4.2-3.2 5.3-9.4 11.6-5.4q2.4 1.5 5 2.8 4.9 1.7 10 2.5 2.5.5 5 .3 2-.4 4.1-.4c1.7 0 3.4.7 5 1 2.9.5 5.2-1.6 7.5-2.9 2.1-1.2 4.6-.3 6.7.4 2.4 1 4.7 2.7 7.5 2.5q3-.3 5.8-2.1 3-1.7 5.8-3.8" class="b"/><path d="M12.4 90.4c2.1.2 4.4.7 6.6.7s4.5-.5 6.7-.7c3.3-.2 6.7.3 10-.1q3.4-.4 6.6.7c4.2 1.5 8-1.3 11.7-2.8 3.1-1.3 5.4 0 8.3 1q2.9.9 5.8 1.3l5.9.4c4.9 1 6.8.8 10.8-2.5 12-8.5 16.1 8.7 24.1 1 2.3-2.3 4.2-3.7 7.5-2.5 2 .7 3.8 1.8 5.8 2.4 3.9.8 7.7 1.8 11.7 1.7a14 14 0 0 0 4.1-.5q2.5-1 5-.1c8.2 3.5 8.6-3.1 15-.8 2.4.9 5 1.8 7.5 1.8a24 24 0 0 0 14.2-4.7" class="b"/><path d="M12.4 87.3c2.7.4 5.5 1.5 8.3 1.1 2.7-.4 5.5-1.3 8.3-1q3 .4 5.8.1c2.2-.4 4.6-.8 6.7.1 1.6.6 3.3 1.4 5 1.6 4 .4 7.6-2.4 11.6-2 1.7 0 3.4.8 5 1 4.1 1 8.4.2 12.5.7 5.4 1.3 6.8-1.4 10.8-4 3.3-1.7 7.5-1.8 10.8-.2 3 1.6 5.7 4.2 9.2 4.5 2.7.1 4.8-2.2 7.5-2.4 2.8-.4 5.6.6 8.3 1 2.2.2 4.5.8 6.7 1q3.7.6 7.4 0 1.7-.3 3.4-.8c2.6-.5 5 1.3 7.5 1.2 2.8 0 5.4-2 8.3-1.3 1.6.3 3.3 1 5 1.2q3.4.3 6.6-.3c4.3-.4 9-.8 12.5-3.4" class="b"/><path d="M12.4 84c2.2.2 4.3 1.4 6.6 1.4 2.5.3 5-.9 7.5-.9 2.5.2 5 1.2 7.5 1.1s5-1 7.5-.4l5 1.5q4.2.8 8.3-.3 2-.4 4.2-.4c2.2.2 4.4.7 6.6.7 3.9.2 7.9-.8 11.7.2s6.2-2 9.1-3.8c4.1-2.2 9.4-2.4 13.3.3 2.7 1.3 5.3 3.2 8.4 3.6 1.9.1 3.9-.5 5.8-.7q3.7-.5 7.5-.1c2.5 0 5 .5 7.5.7q5.4.5 10.8-.6c1.6-.2 3.4.3 5 .6q2 .3 4.1-.1c1.6-.3 3.4-.8 5-.7 2.2.3 4.4 1.1 6.7 1 2.5-.2 5-1 7.5-1.2q3-.2 5.8-.9 3-.3 5.8-1.7" class="b"/><path d="M12.4 81.6c1.9-.2 3.9.4 5.8.7q3.4.3 6.6-.2c3.2 0 6 2.2 9.2 2.2 2.5 0 5-.7 7.5-.6s5 .7 7.5 1c4.1.5 8.3-.3 12.5-.2 4.4.3 8.9-.6 13.3-.3 6.8 1.5 6.6.2 12.5-2.2q4.4-1.4 9.1-1.1c2 .1 4 1 5.8 1.6 2 .6 3.9 1.6 5.9 2 3.8.8 7.8-.2 11.6 0 6.4 0 12.8.8 19.2 0 1.9-.2 3.9.3 5.8.4 2.2 0 4.5-.5 6.7-.6q2.9 0 5.8.5 2.5.1 5-.2 6-.9 11.6-3c1.9-.5 4-.4 5.9-.7" class="b"/><path d="M12.4 80.2c4.3-1 8.9.3 13.3.4 1.7.4 3.3 1.3 5 1.7q3.2.5 6.6.2c5-.7 10 0 15 0q8.8.4 17.5-.5c3 0 6.1.5 9.1.7 3.1-.1 6.2-1.3 9.2-1.8 3-.3 6.1-1 9.1-1.3q2.6.2 5 .6c2.9.6 5.5 2.2 8.4 2.4 3.3.2 6.6-.1 10 0h24q2.6-.4 5-.5 3.4.3 6.7.6 3.7 0 7.5-.6 4.6-.6 8.3-3.3c2.2-1.7 5.1-1.2 7.5-.4" class="b"/><path d="M12.4 79.2q4.6-1.1 9.1 0 3 .4 5.8.8c3.3.8 6.7.3 10 .5q5.8-.2 11.7 0l6.6-.3 6.7.3q3-.2 5.8-.5c3.6 0 7.3.8 10.9.3 4.6-.6 9.5-.5 14.1-1.5q2.4-.6 5-1.3 3-.2 5.8.6c2.5.9 4.9 2.3 7.5 2.3h19.1q5.5.2 10.9-.1c2.4-.2 5-1 7.5-.7q2.4.5 5 .8 2.9 0 5.8-.4c3-.3 6.4.2 9.1-1.4 4.5-2.6 5.2-5.8 10.9-2.5" class="b"/><path d="M12.4 77.9c4.1-.5 8.3.4 12.4.4 3.4.1 6.7-.7 10-.4q4.6.5 9.2.3h8.3q2.5-.3 5-.3 2.9.3 5.8.4l5-.3 5 .3c2.8 0 5.6-.6 8.3-.7 3.9 0 7.9.4 11.7-.7 1.6-.5 3.3-1.4 5-1.9 5.8-1 7.5 2.2 12.4 3.1 3.3.3 6.7 0 10 .2q9.2.1 18.3-.5c3.3-.3 6.7-2 10-.8 1.9.6 3.9 1.4 5.9 1.2 2.2-.2 4.4-1 6.6-1s4.5.4 6.7-.3c5-1.7 5.6-5.7 11.6-2.3" class="b"/><path d="M12.4 76c3.5 0 7.2.2 10.8-.4 3.3-.2 6.6-1.3 10-1 2 .3 3.8 1 5.8 1.3q4.5.1 9.2 0 4 .3 8.3-.2l5.8.3h10.8c2.5-.2 5-.8 7.5-.9 6.2.5 10.2 1.3 15.8-2.2 2.3-1.4 5.2-1.1 7.5 0 1.9 1 3.7 2.4 5.8 2.9 2.5.5 5 .1 7.5.1l10 .2c4 0 7.8-.8 11.7-1.5 4.3-1.1 7.5-2 11.6.6 5.5 2.7 7.7-2.2 14.2-.4 7 1 8-5 15-1.8" class="b"/><path d="M12.4 73.7a44 44 0 0 0 8.3-1.2c4.3-1.1 9-2.4 13.3-.8 1.9.5 3.9 1.4 5.8 1.7q3.8.4 7.5.3 5.5.2 10.8 0 4.2 0 8.4.2 3.4.1 6.6-.4c2.2-.3 4.5-1 6.7-1q3 .3 5.8.8c4.1.5 7.4-1 10.8-3 2.1-1.2 4.7-.5 6.7.5 4.9 2.7 6.7 3.7 12.5 2.7 3.3-.6 6.7-.2 10 .2a20 20 0 0 0 10.8-1.8c2.3-1 4.9-2 7.5-2q3 .6 5.8 2.4 3.1 2.3 6.7 1.2 2.4-.9 5-1.2c2.2.1 4.4.9 6.6.5 4.4-.9 6.9-4 11.7-1.7" class="b"/><path d="M12.4 70.8c3-1 6.1-1.5 9.1-2.3 4.5-1.4 7.3-2.2 11.7 0q4.4 2 9.1 2.9c4.7.4 9.5 0 14.2.3 5-.2 10 .1 15-.2 2.4-.2 5-1 7.4-1.2s5 .5 7.5.7q3.5.2 6.7-1.2c2-.9 4.4-1.8 6.6-1.1 4.4 1 8.7 3.8 13.4 2.7 1.6-.3 3.3-1.1 5-1.4 4.2-.8 8.2 2.3 12.4 1.6 4.1-.6 7-4.3 10.8-5.3 4-.8 7 2.8 10 4.6 1.8 1 4 .8 5.9.4 1.6-.3 3.3-.8 5-.6q2.9.5 5.8.1c3.9-.8 7.7-3.7 11.6-1.5" class="b"/><path d="M12.4 67.7c2.9-2.2 6.5-2.6 10-3.1 3.2-.7 5.1-1.6 8.3.2q3 2 6.6 3.1 2.5.9 5 1.3c4.2.5 8.4 0 12.5 0q9 .5 18.3.1c2.5-.1 5-1 7.5-1.2s5 .5 7.5.5c2.5-.1 5-1 7.5-1q2.5 0 5 .7l5.8.9c2.5.2 5.2.7 7.5-.5 2.1-1 4.1-3 6.6-2.6 2.1.5 4 1.8 5.9 2.6 3.5 1.6 7.4.5 10-2.2 4.5-4.4 6.5-5.9 11.6-1.1 1.8 1.5 3.4 3.6 5.8 4 2.8.3 5.6-.7 8.4-.5q3.3.5 6.6-.1c3.5-1 7.3-2.8 10.8-1" class="b"/><path d="M12.4 64.7c2.6-2.6 5.5-3.4 9.1-3.4 2 0 4-1 5.8-.5 2.2.8 4 2.6 5.9 3.8q2.3 1.4 5 1.8 5.7 1.3 11.6.6 2.5-.3 5-.5 2.5 0 5 .4c2.5.2 5 0 7.5.2q3.8.1 7.5.1c2.5 0 5-1 7.5-1.3q2.4-.2 5 .3h5c3.5 0 7.1.9 10.8.9 3 0 6.1.5 9.1-.1 2-.7 3.4-2.4 5-3.6 5-4.3 7.9 4.5 14.1 3.8 5.5-.2 8.3-10.1 13.4-8.1 2 1 3.6 2.9 5 4.6 1.2 1.5 2.8 3.3 5 3.5 2.1.2 4.4-.4 6.6-.5 2.2.1 4.5.5 6.7.3 3.8-.3 7.8-1.8 11.6-.5" class="b"/><path d="M12.4 62.6c2.6-2.9 5.2-4 9.1-3.6 1.6.2 3.4-.2 5 0 3.2.9 5.2 4.1 8.3 5.1s6.7 1 10 1q5.4-.1 10.8-.7h5.9q4-.1 8.3.2 3.3.5 6.6.5c2.5-.2 5-1.1 7.5-1.1l4.2.2 5 .2q5 .7 10 .7h5.8a7 7 0 0 0 5.8-2.2c1.5-1.5 2.9-3.7 5-4.3 3.5-.4 6 5.8 10.8 6.4 5.5.7 8-5.5 11.7-8.3 6.3-3.8 7.8 9.1 14.1 8.4 1.7 0 3.4-.5 5-.5 2 0 4 .4 5.9.3 4.1 0 8.3-.5 12.4.1" class="b"/><path d="M12.4 61.3C16 57.8 18 57 23.2 58l3.3.1c2.5.5 4.4 2.5 6.7 3.6 4.1 1.9 8.9.9 13.3 1.1q5.9.1 11.6-.2 4.2-.5 8.4-.8c3.9 0 7.7 1.5 11.6 1q7.1-.6 14.2-.4 6.2.6 12.4.5c3.1-.1 6.8.6 9.2-1.9 1.7-1.6 3-3.9 5-5.1 2-1 3.7.8 5 2.1 1.4 1.5 3 3.3 5 4.2 2.4 1.2 5.4.6 7.5-1q2.6-2.2 5-4.7c1.9-2 4.3-3.4 6.6-1 2.4 2.4 3.8 6.6 7.5 7.3 1.6.2 3.4-.2 5-.3 2.5-.2 5 .2 7.5.1 3.8-.2 7.8.4 11.6.2" class="b"/><path d="M12.4 60.3c4.2-2.4 5.6-3.8 10.8-2.9 1.3.2 2.8 0 4.1.2 2.4.4 4.5 1.8 6.7 2.4 2.7.9 5.6.7 8.3.6h7.5c3.3-.1 6.7.3 10 0 2.5-.3 5-1.3 7.5-1.4 2.2 0 4.4 1 6.7 1.3q6.1.3 12.4.2h19.2c2.2 0 4.7.1 6.6-1 1.6-1 3-2.8 4.2-4.2 3.7-4.5 6.3-.7 9.1 2.3 5.3 6 11.7 1.3 16.7-2.4 2-1.6 4.6-2.7 6.6-.5 5.9 6.9 5.6 5.8 14.2 5.5h7.5c3 .2 6.1.5 9.1-.1" class="b"/><path d="M12.4 58.5c2.8-.2 5.4-2 8.3-1.9l4.1.2H29c2.5.4 5 1.4 7.5 1.6 3.6.3 7.2-.3 10.8-.2 3 0 6.2-.4 9.2 0q3.4.6 6.6-.4c1.9-.6 3.9-1.3 5.9-1q2.4.8 5 1.4c3.2.4 6.6 0 10-.2 3.8-.2 7.7.7 11.6.4q4.5-.3 9.1 0c2.2 0 4.6 0 6.7-1 2.6-1.2 4-4 6.6-5.3 4.3-1.3 7 5.3 10.9 6.2 2.5.6 5.1-.4 7.5-1.3q4.2-1.3 8.3-3.1c2.2-1 4.1 0 5.8 1.5 1.4 1.2 3.1 2.5 5 2.9 3 .5 6.1 0 9.2.1 5-.2 10 .6 15-.8" class="b"/><path d="M12.4 56c2.4.7 5-.2 7.5-.4 2.1-.2 4.4 0 6.6-.2q3.7-.1 7.5.6c3.6.6 7.2 0 10.8 0l9.2-.1c1.9 0 3.9.5 5.8.4 3-.1 5.4-2 8.3-2.2 2.8 0 5.5 1.8 8.3 1.5 3.1 0 6.1-1 9.2-1.1 2.2 0 4.4.8 6.7.8 2.1.2 4.4-.4 6.6-.2 3.6.4 7.2 1.1 10.8.5 2-.2 3.6-1.4 5-2.6 4-3.5 6.3-1.3 10 1.3 2.7 2.3 5 2.3 8.3 1.4q3.7-1.1 7.5-1.4c3-.4 6.2-2.3 9.2-.7q2.7 1.6 5.8 2.4c3.3.5 6.7.2 10 .3 4.7.1 9.5 0 14.1-1.2" class="b"/><path d="M12.4 53.4c2.6.9 5.5.7 8.3.7l8.3-.2 8.3.2q4.2-.2 8.3-.5l8.4.2q2.9.3 5.8.2 3-.5 5.8-1.8c5.6-2.5 7.5 1.9 14.2-.4 4.2-1.3 6.2-2.5 10.8-1.2 3 .7 6.3.2 9.1 1.4q5.7 2.2 11.7 1.3c2-.6 3.8-2 5.8-2.4 3-.4 5.7 1.7 8.3 2.7 2.4 1 5 .2 7.5-.2q3.8-.4 7.5-.4c3.4-.2 6.7-2.2 10-1q3.3 1.2 6.7 1.6 3.3.3 6.6.2 4.2.3 8.4.1 3.7-.4 7.4-1" class="b"/><path d="M12.4 50.7Q21 52.1 29.8 52c5 0 10 0 15-.8 4.5-.3 8.9 1 13.3.8q2.7 0 5-1c2-.6 3.8-1.7 5.9-2q2.5-.1 5 .5 3.4.4 6.6-1.2c2.2-1 4.3-2.4 6.7-2.9 3.4-.4 7 .6 10 2 1.9 1.2 3.7 2.7 5.8 3.5q4.5 1.3 9.1.7c2.2-.5 4.5-1.3 6.7-1 2.7.5 5.5 1.6 8.3 1.4q2.5-.3 5-.5l6.7.1q3.8 0 7.5-1.2 2.8-.7 5.8-.5l5.8.8q3 .2 5.9.5 7.9 1.2 15.8-.4" class="b"/><path d="M12.4 48.4q2.9-.4 5.8-.4 3 .1 5.8.7 5.9.4 11.7.5c3.6.3 7.2-1 10.8-1q2.5.3 5 1 2.8.6 5.8.5a31 31 0 0 0 6.7-1.4c1.8-.6 3.8-1.4 5.8-1.5q2.5.1 5 .5c4.4.5 8-2.4 11.6-4.5 10.7-6 11.2 6.1 20 6.8q5.4.3 10.8-.2c2.5 0 5 .4 7.5.3q3-.5 5.8-.7c2.5 0 5 .5 7.5.6q3.8.2 7.5-.7c3.3-.8 6.6-2 10-2 4 .2 7.8 1.2 11.7 2q6.3 1 12.5-.5" class="b"/><path d="M12.4 46.4c5-1.7 6.1-2.5 11.6-1.4q7.1.3 14.2.8 2.9-.2 5.8-.5c6 0 7.8 3.4 15 1.7 3-.5 6-1.6 9.1-1.8q3.4 0 6.7.8c4.9.6 9.4-2 13.3-4.6 1.7-1.3 3.6-3 5.8-2.8 5.2 1.3 6.4 9 12.5 8.9l5-.2q5 .4 10 .1c2.8 0 5.5-1.3 8.3-1.4 2 0 4 .8 5.8 1.1q4.2.5 8.4.2 3.4-.2 6.6-1.4c2.6-1 5.5-2 8.3-1.4 2.8.3 5.6 1.3 8.4 1.8q3.2.7 6.6.7 3-.1 5.8-.8" class="b"/><path d="M12.4 44.7c2.7-.8 5.3-2.6 8.3-2.6q2.5.2 5 .1c3.3 0 6.7-.7 10-.3 3 .7 6.1.4 9.1 1 4.9 1.4 8 3.2 13.3 2 3-.5 6-1.7 9.2-1.4 3.3.3 6.6 1.5 10 1.4 3.4 0 7-.6 10-2.2 3.4-2 6.8-8 10.8-3.6 5 6 5.2 7 13.3 5.7 5.7.3 10.5.7 15.8-1.8 3.8-1.6 7.2 1.4 10.8 2q3.3.4 6.7.3 3 0 5.8-.7c2.5-.7 5-1.8 7.5-1.7 3.4 0 6.7 1 10 1.3l5.8.6q3 0 5.9-.6" class="b"/><path d="M12.4 43c2.2-.3 4.4-1.4 6.6-2 2.2-.5 4.5-.4 6.7-.9 3.3-.6 6.5-2.4 10-1.8q3.4.8 6.6 1.8c2 .6 4 1.6 5.9 2.2q4.4 1.3 9.1.7c3.3-.2 6.6-1.6 10-1q2.5.4 5 1 3 .2 5.8.1c3 0 6.2.1 9.2-.7 3.5-.8 6.3-6 10-4.6 1.2.6 2.3 1.8 3.3 2.7 2.8 2.9 5.4 3 9.1 2.2 2.2-.5 4.5-.2 6.7-.2a25 25 0 0 0 8.3-1.5c3.4-1.6 5.6-3 9.2-.8 4.6 3 7 3 12.5 2.9q3 .1 5.8-.4 2.9-.7 5.8-1.2c2.8-.2 5.6.4 8.3.5 4.5.2 9 .8 13.4.4" class="b"/><path d="M12.4 40.9c2.5.2 5-.5 7.5-1.1q3.3-.7 6.6-1.8c3.2-1.3 6.4-3.7 10-2.4Q42 37.7 47.3 40q3.7 1.1 7.5 1 3 0 5.8-.3c2.2-.3 4.5-.7 6.7-.3q2.5.4 5 .5l5-.2c3-.1 6.1.3 9.1.2q2.7 0 5-1.5c1.8-1 3.7-2.6 5.8-2.2 1.2.3 2.4 1.2 3.4 1.9 2.6 1.9 6 2 9.1 1.6q3.7-.2 7.5-.5 4.4-.4 8.3-2c2.8-1.4 5.4-3 8.4-1 3.8 2.5 6 3.9 10.8 3.7h7.5q2.9-.3 5.8-.8c2.8-.2 5.6.3 8.3.4l13.3.2" class="b"/><path d="M12.4 38.3q2.8.7 5.8.2 4.2-1 8.3-2.9c2.6-1.2 5.3-3.3 8.3-2.4q4.1 1.7 8.4 3.2c2.6.9 5.4 2 8.3 2.2q6.6.3 13.3-.3c2.2 0 4.4.5 6.6.4 2.5 0 5-.8 7.5-.6 3 .1 6.1.7 9.2.6 5-.2 7.2-4 12.5-1.2 3.9 1.7 8.3 1.2 12.5 1a47 47 0 0 0 14.1-3.2c2.5-1.4 5-1.8 7.5-.1 3.6 2.7 7.1 3.6 11.6 3.5q5.5.1 10.9-.3c3-.3 6 .2 9.1.3h13.3" class="b"/><path d="M12.4 35.5c5 1.8 7.1 1 11.6-1.4 3.2-1.2 6.4-3.9 10-2.7 1.7.6 3.3 1.6 5 2.2Q44.3 35 49.8 36c5 .9 10 .2 15 0q3 .2 5.8.4c2.3 0 4.5-.8 6.7-1 3-.2 6.1.6 9.1.8q2.6.5 5 0c2-.3 3.9-1 5.8-1.2 1.7 0 3.4.7 5 1q2.5.4 5 .4a54 54 0 0 0 14.2-1.5q1.6-.2 3.3-.6c1.7-.6 3.3-1.6 5-2.1 3.9-1.4 6.4 2.2 10 3 6 1.5 12.2 1.2 18.3 1q10.8.3 21.6.2" class="b"/><path d="M12.4 33c7.5 2.9 7 .5 13.3-2.2 2.3-1 5-1.8 7.5-.9 2.2.9 4.3 2.3 6.6 2.8l11.7 1.5c3.9.4 7.8-.4 11.6-.6 2.2 0 4.5.7 6.7.7 2 .1 4-.7 5.8-1.2q2.5-.6 5-.3c3.6.2 7.3 1.2 10.8 1.5q3-.2 5.9-.7c2.2-.2 4.4.5 6.6.6q4.5.2 9.2-.1c3.9-.3 7.7-1.5 11.6-2 2.5-.7 4.9-2.3 7.5-2 1.8.2 3.4 1.4 5 2q2 .7 4.2 1l8.3 1q4.6.1 9.1 0 10.6.3 20.8.2" class="b"/><path d="M12.4 31.1c7 2 6.7 1 12.4-2.3q3.3-1.4 6.7-.3c2.5.9 4.8 2.4 7.5 2.9q3.7.4 7.5.6 3.4.1 6.6.1c3.4 0 6.7-1.4 10-1 6 1.5 6.9 1.3 12.5-.7q4.5-1.4 9.2-.6c2.9.2 5.4 2 8.3 2.3 1.9.2 3.9-.2 5.8-.2q4.2.3 8.3.2 3.8-.1 7.5-.7c2.3-.5 4.5-1.4 6.7-1.9q2-.2 4.1-.5c2.5-.4 5.1-.9 7.5-.1q2.1.6 4.2 1.4 3.3.3 6.7.5c3.3.3 6.6 1.3 10 1l5.8-.3 5.8.2q3.8.2 7.5.2 3.3.2 6.7.2" class="b"/><path d="M12.4 29.5c2.1.2 4.4.7 6.6.3 3.3-.9 5.6-4 9.2-3.5 2.3.3 4.5 1.6 6.6 2.5 2.7 1 5.6 1.1 8.4 1.1q4.5.1 9.1-.1c2.5-.2 5-1 7.5-1.1 2.8-.3 5.5 1.7 8.3 1.2 4.5-1 8.8-3 13.3-3.9 7.7-1.9 8.3 4 15.8 4q4.2 0 8.4-.3c3.3-.3 6.8-.2 10-1.4 5.8-2.5 6-2.6 12.4-2q3 .3 5.9 1.2c1.3.3 2.7.8 4.1.7 2.5 0 5-.3 7.5.1 2 .3 3.9 1 5.8 1 3.4.4 6.7-.9 10-1 4-.1 7.8.5 11.7.6 2.2.2 4.4.9 6.6 1" class="b"/><path d="M12.4 27.6c1.9 0 3.9.3 5.8 0 4.6-.5 6.4-4.7 11.6-2.5 2.2.9 4.4 2 6.7 2.4 3.3.6 6.7-.1 10-.3h5c2.2-.1 4.4-.6 6.6-.6q1.6 0 3.4.3 2.4 1 5 .8 2-.6 4.1-1.3l4.2-1c2.6-.6 5-1.9 7.5-3 7.3-3.8 7.3 5.7 18.3 5q5-.1 10-.9c2.6-.2 5-1.4 7.5-2.5 3-1.5 5-1.1 8.3-.3q5 1.2 10 2.1c2.7 0 5.5-.9 8.3-.5 1.7.2 3.3 1 5 1.3q2.5.5 5 0c1.6-.2 3.3-1 5-1.5q2-.5 4.1-.6c2.8-.1 5.6.6 8.3.9 2.6.1 5 1.4 7.5 2.1" class="b"/><path d="M12.4 25.5h5.8c4.8-.7 6.2-4.6 11.6-2.2 3.8 1.9 7.5 2.9 11.7 1.9 1.6-.4 3.3-1 5-1q2 0 4.1.3 3.8-.2 7.5.1c2.2.2 4.5 1 6.7 1 1.7-.3 3.3-1.1 5-1.5q2.5-.4 5-.6c3.4-.5 6.2-2.9 9.1-4.5 5.2-2.9 7 6.2 15.8 6 4 0 7.8-1 11.7-1.5 3.4-.7 6.4-2.9 10-2.8 2 .1 3.9 1 5.8 1.2q4.5.8 9.2 1.3c1.9 0 3.8-1 5.8-1.1 5.4-.6 8 3.4 14.1 1.6 3.2-1.2 6.6-2.6 10-2.3q4.2.5 8.3 1.5 2.6.9 5 2.1" class="b"/><path d="M12.4 23.2c3.3.1 7 .6 10-1.3a7 7 0 0 1 4.1-1.3c2.6.2 5 1.8 7.5 2.4 6.7 1.6 9.5-2.3 15-1.3 3 .7 6.1.6 9.1 1q3 .6 5.9.6 2-.2 4.1-.9c2.2-.6 4.5-.6 6.7-1 3.4-.6 6.1-3 9.1-4.4 5.3-2.6 6.8 5.2 14.2 5.7 3.9.3 7.8-.7 11.6-1.5 2.9-.5 5.5-2.1 8.4-2.4 2.5-.3 5 1 7.4 1.5 2.8.5 5.6.1 8.4.1q1.7.1 3.3.1c2.7-.6 5.5-1.7 8.3-1.4 1.7.2 3.4 1 5 1.5q3.2 1.2 6.7.5c3-.6 6-2.3 9.1-2.4q3 .3 5.8 1.4a45 45 0 0 1 7.5 2.5" class="b"/><path d="M12.4 20.8c3 0 6.2 1 9.1-.4 1.3-.5 2.7-1.3 4.2-1.3 2 0 4 .8 5.8 1.4q2.4.7 5 .7c5.5 0 8.5-3.6 14.1-1.3Q57.3 21.3 64 21q5.4-.8 10.8-2.2c3.1-1 5.8-3.2 9.1-3.7 1.4-.1 3-.2 4.2.6 2.1 1.4 4 3.4 6.7 4.1 2.4.7 5 .5 7.4.4q3.8-.2 7.5-1.1c3.1-.8 5.8-3.7 9.2-2.8 1.7.4 3.3 1.4 5 2q2.3.8 5 .6 2.4-.2 5-.5h3.3c2.7-.4 5.5-1.2 8.3-1.5 2.3-.4 4.5.5 6.7 1.3q3.2 1.1 6.6.5c2.6-.5 4.8-2.5 7.5-2.8 2.4 0 4.5 1.5 6.7 2.4q3.2 1.1 6.6 2" class="b"/><path d="M12.4 17.9c2.5 0 5 1 7.5 1 2.2 0 4.4-1 6.6-.8 2 .1 4 .7 5.8.8q3.4.2 6.7-.5c2.2-.5 4.4-1.5 6.7-1.6 2.6-.2 5 1.2 7.4 1.7 3.9.7 7.8.5 11.7.3a26 26 0 0 0 10.8-3.1c2.6-1.6 5.3-3 8.3-2q1.6.5 3.4.9c2 1 3.7 2.5 5.8 3 2.4.8 5 .4 7.5.4 2.7 0 5.6.3 8.3-.3 3.2-.4 5.1-3.8 8.3-4.3q2.3.2 4.2 1.6 1.9 1.3 4.1 1.8c2.7.7 5.6.4 8.4.1q5 .2 10-.7c6.3-1.9 6.7 0 12.4 1 4.1.7 6-1.6 9.2-3.3 3.1-1.2 5.6 2 8.3 3q2.9 1 5.8 1.6" class="b"/><path d="M12.4 14.4c2.8.2 5.5 1.6 8.3 2.2q2.5.3 5 .1h5q4.6-.6 9.1-2c3-1 6.3-1.5 9.2-.1 4 2.1 6.3 2.4 10.8 2.1q4.5 0 9.1-.4c2.5-.6 4.6-2 6.7-3.3a9 9 0 0 1 4.2-1.9c1.8 0 3.4 1.2 5 2q1.6.7 3.3 1.3 2.3 1.2 5 1.7c2.2.2 4.4-.3 6.6-.5q3.4.2 6.7.4c6.8.5 7-5.3 11.6-5.5 2 .2 3.4 1.8 5 2.8a21 21 0 0 0 11.7 2.1q4.1.2 8.3-.1 2.4-.6 5-1.2c2.8-.4 5.5 1.1 8.3 1.5 4.3.8 6-1.2 9.1-3.5 3.2-1.9 5.7 1.8 8.4 2.9q2.8 1.1 5.8 1.5" class="b"/><path d="M12.4 10.8c3 0 5.6 1.5 8.3 2.6 6.6 2.5 11.3-.5 17.5-2.4 2.9-1 6.2-1.5 9.1-.2 2.6 1 4.7 3.1 7.5 3.6 2.2.3 4.5 0 6.7 0q3.7.1 7.4-.2c3.8-.5 6.4-3.8 10-4.6 1.9-.1 3.5 1.1 5 2 1.2.9 2.8 1.2 4.2 1.7q4 1.5 8.3.7 2.5-.5 5-.5c3.6.2 7.9 1.2 10.8-1.4 2-1.6 3.8-4.7 6.7-4q1.7.8 3.3 2 2 1.4 4.2 2.2 4 1.5 8.3 1.2h7.5c5.3-.5 6-1.8 11.6 0 3.3 1 7.3 1.2 10-1.2 6.1-5.1 6.3 1.6 15.8 2.2" class="b"/></svg>