<svg xmlns="http://www.w3.org/2000/svg" id="a" width="1920" height="2400" viewBox="0 0 192 240"><defs><style>.b{fill:none;stroke:#fff;stroke-miterlimit:10;stroke-width:.3px}</style></defs><path d="M0 0h192v240H0z" style="stroke-width:0"/><path d="M15.4 224.6c7.7-3.8 14 .6 20.8 4 3.5 1.7 7.2 3.7 11.2 3.4h49q3.8-1.1 7.2-3c5-2.7 9.7-6 15.3-7.2 6.8-1.5 13.3 1.9 19.2 5 4.6 2.3 9.4 4.4 14.5 5.1h7.2c1.3 0 2.8.3 4-.2 4.5-1.5 8.4-4.4 12.8-6.2" class="b"/><path d="M15.4 221c8.7-3.9 15.7 3.4 23.2 6.8q2.7 1.3 5.6 2.1h50.6c2.2-.1 4.4-1.2 6.4-2.1 9-4.4 16.8-10 27.3-6.3 7.3 2.5 14 7 21.7 8.2 2.3.5 4.8.2 7.2.3h6.4c4.5-1.5 8.5-4 12.8-5.6" class="b"/><path d="M15.4 217.6c4.5-1.6 8.9-.2 12.8 2.3 3.7 2.2 7.3 4.8 11.2 6.5q2 .8 4 1.4 2.5.1 4.8.1H94c4.5-1 8.6-3.2 12.8-5q2.8-1.3 5.6-2.4c5-3.3 10.5-4.9 16-2 3.6 1.5 6.4 4.1 9.7 6 5.1 2 10.5 3.7 16 3.4h9.7c1.6 0 3.3-1 4.8-1.5 2.6-1 5.3-2.3 8-3" class="b"/><path d="M15.4 214.5c7.8-1.8 13.7 4.7 20 8.2q3.5 2.1 7.2 3.2h50.6l4.8-1.6q5.3-2 10.4-4.3c3.7-2.7 7.5-5.7 12-6.5 6.3-.9 11.5 3.7 16.1 7.2 2.5 1.8 5 4.1 8 4.5q4.4 1 8.9.7h11.2c4.1-.8 8-2.8 12-3.8" class="b"/><path d="M15.4 211.8c4.4-.4 8.5 1.7 12 4.2 3.4 2.3 6.7 4.9 10.4 6.6q2 .9 4 1.3h6.5q6.3-.5 12.8 0h30.5q5.7-1.5 11.2-3.8l2.4-.8q2.6-1.8 4.8-3.8c3.5-2.8 7.4-5.8 12-5.8 9.5.6 15 10.9 23.3 14.1q10 .2 20.1 0c3.8-.6 7.4-2.3 11.2-3" class="b"/><path d="M15.4 209.6c4.8.2 9 3 12.8 5.9a39 39 0 0 0 11.2 6.3c1.6.2 3.3-.2 4.8-.3q4.5-.5 8.9-.5c4.8 0 9.6 1 14.4.9H90q2.5-.5 4.8-1.3 4.5-1.4 8.8-3l4-3.4c4.2-3.6 8.6-8.2 14.5-8.1 9.6.7 15.2 12.5 24 15.8q10.5.1 20.9-.1 4.8-1.4 9.6-2.3" class="b"/><path d="M15.4 207.9c4.8.9 9 3.8 12.8 6.7q3 2.2 6.4 4c1 .4 2.1 1 3.2 1q6-1 12-1.3 6.1-.2 12.1 1l4 .6h23.3q5.7-1.5 11.2-3.3c1.6-.3 2.9-1.7 4-2.7q2.5-2.2 4.8-4.6c3.8-3.4 8.2-7.6 13.7-6.9 9.3 1.8 14.6 13.5 23.3 17.3 2.3.4 4.8 0 7.2.2h12q2.5 0 4.8-.6 3.2-.8 6.4-1.2" class="b"/><path d="M15.4 206.6a37 37 0 0 1 10.4 5.6q3 2.3 6.4 4.1c2.1 1.1 2.5 1.3 4.8.7a51 51 0 0 1 20.9-1q4.5.9 8.8 1.8h21.7q5.3-1.3 10.4-3c1.7-.1 2.8-1.3 4-2.4l4.8-4.8c4-4 8.4-9.2 14.5-9 9 1.1 15.2 14 23.2 18.4l1.6.8h21.7q4-.7 8-1.2" class="b"/><path d="M15.4 205.7q3.8 1.6 7.2 3.8c3 2 6.1 4.4 9.6 5.8 3.2-.4 6.4-1.6 9.6-2.2q7.3-1.6 14.5-.1c3.8.7 7.5 2 11.2 2.8h16.9c1.2 0 2.7.2 4-.2l7.2-2c1.3-.3 2.8-.4 4-1.2 6.5-4.8 13.5-17.2 21.7-17.4 8.7.2 15.5 13.8 22.4 18.7 1.7 1.3 3.5 2.4 5.7 2.1h20q3.6-.5 7.2-.8" class="b"/><path d="m15.4 205 6.4 3.6q3.4 2.3 7.2 4.3 1.1.6 2.4.2l3.2-1q4-1.2 8-2.2 7-1.5 13.7.2c4 1 8 2.9 12 3.7h18.4c2-.2 3.9-.9 5.7-1.3L98 211l3.2-2.8c5.5-5 11.2-14.9 18.5-16.6 8.6-1.6 16 12.3 21.7 17.5 1.8 1.7 4.6 4.6 7.2 4.6H171l5.7-.5" class="b"/><path d="M15.4 204.6q3.1 2 6.4 3.7 3 1.8 6.4 3.2c4.4-1 8.5-3 12.8-4.3 9.3-3 15.7 0 24.1 3.4l3.2 1.1q2.9.1 5.6 0h12c2 .2 3.9-.6 5.7-1q2.8-.6 5.6-1.4c7.5-5.4 11.6-14.5 19.3-19.6 6-3.8 11.4 1 15.2 5.5 4 4.6 7.4 9.9 12 14q2 1.6 4 2.5h4c8.4 0 16.7.3 25-.2" class="b"/><path d="M15.4 204.3q3 1.9 6.4 3.5 2.3 1.2 4.8 2c5.3-1.3 10-4.1 15.2-5.8 4.4-1.5 9.3-1.6 13.7 0 4.1 1.4 8 3.7 12 5.2 2 1 4.3.5 6.4.6h11.3c2.2.2 4.3-.5 6.4-1 1.5-.4 3.3-.5 4.8-1.2 8-5.6 12-15.3 20-20.8 6.5-4.2 12.3 1.9 16.1 6.7 3.7 4.5 7 9.6 11.2 13.5q1.8 1.6 4 2.7 2 .1 4 0 12.5.2 25 0" class="b"/><path d="M15.4 204q2.6 1.6 5.6 2.7c1.2.5 2.6 1.2 4 1 2 .1 3.8-.8 5.6-1.5 3.5-1.4 6.9-3.4 10.4-4.8 4.3-1.8 9.3-2.2 13.7-.6 5.3 1.7 9.8 5.4 15.2 7h12.9c2-.1 4.3.2 6.4-.2l4-.8c.7-.2 1.8-.3 2.4-.7 8.3-5.5 12.3-15.3 20-21.3 6-4.5 11.3-.5 15.3 4.4 4.2 4.8 7.5 10.5 12 15q2.2 2.1 4.9 3.5 2.3.2 4.8 0h24" class="b"/><path d="M15.4 203.4q2.6 1.5 5.6 2.3h3.2c5.3.4 12.5-5.3 17.6-7.3a17 17 0 0 1 13.7-.2c5.3 2 9.7 6 15.2 7.5H90l4-.7c8.7-4.4 13-14.7 20-21 6-5.7 11.2-3.5 16.1 2.1 5.5 6 9.2 14 16 18.7l1.7.9H167q4.8.1 9.7-.3" class="b"/><path d="M15.4 202.6q1.4.8 3.2 1.1h8c4.6-1.4 8.7-4.2 12.8-6.5 11.6-6.7 17.4-1.4 27.3 4.5 1.5.8 3.1 1.8 4.8 2h8.9c4.2-.1 8.6.3 12.8-.2 9.2-4 13.7-14.7 20.9-21.2 5.4-5.2 10.4-4 15.2 1.1 5.7 6 9.4 13.9 16 19 1 .5 2.1 1.5 3.3 1.3h20.8c2.5 0 4.9-.7 7.3-1" class="b"/><path d="M15.4 201.6c2.8.4 5.9 0 8.8.1l3.2-.1q2-.6 4-1.7c3.3-1.7 6.4-4 9.6-5.7 11-6.4 17.3-.2 26.5 5.4 1.5.8 3.1 1.8 4.8 2.1h20.9c8.4-2.7 13.8-13.9 20-19.8q8.2-8.5 16.1.2c5.5 5.6 9.1 13 15.3 18q1.4 1.1 3.2 1.6h21.6l7.3-1.8" class="b"/><path d="M15.4 199.7h12c2.3-.3 4.4-1.7 6.4-2.8 4.2-2.5 8.1-5.7 12.9-7.2 8.4-2.7 15.8 3.8 22.4 8a25 25 0 0 0 4 2H94c7.6-2 13.5-13.2 19.3-18.5q8-8.4 16 0c4.7 4 13.3 19.2 19.3 18.5h19.2c3-.6 6-1.8 8.9-2.6" class="b"/><path d="M15.4 197.7H29c3.8-1.2 7.3-3.6 10.4-6 6.1-5.2 12.2-9.9 20-4.9 3.8 2.3 7 5.4 10.5 8 2.2 1.4 4.5 3.2 7.2 2.9h17.7c5.6-.6 12.2-10.2 16-14.2 5.2-5.9 10.8-9.8 17.7-3.7 5.3 4.2 12.3 16.6 18.4 17.9H167q5-1.5 9.6-3.5" class="b"/><path d="M15.4 195.7H25l4-.1a20 20 0 0 0 4-2.4c6-4.2 10.3-11.3 17.7-13.4 8.4-1.8 14.8 8 20.8 12.5q2.6 2.1 5.6 3.3h19.3q.8.2 1.6-.3c9.2-3.9 17.2-23.2 28-17.2 7.7 4.4 11.5 13.4 19.3 17.5 6.7.3 13.4 0 20.1 0 4-.5 7.5-2.8 11.2-4.2" class="b"/><path d="M15.4 193.7h8c1.5-.2 3.4.3 4.8-.4 10-4.4 18.2-24.8 30.5-16.7 7 4.3 13 15 20.8 17h16.9c1.3 0 2.8.2 4-.5 7.5-3.7 13.7-15.6 22.5-15 6.7.9 11.1 7.6 16 11.7q2.6 2.4 5.6 3.8H159c2.4 0 4.9.2 7.2-.4 3.7-.7 7-3 10.4-4.5" class="b"/><path d="M15.4 191.6h10.4q1.6-.6 3.2-1.7c7.9-4.8 16-21.6 25.7-19.4 8 2 14 13.3 20.8 18.3q2.3 1.7 4.8 2.7 2 .2 4 .1h15.3q1.7.2 3.2-.6c5.8-3 10-8.5 16-10.8 10-3.3 16 8 24.1 11.3 2.7.3 5.4 0 8 .1h10.5c1.8-.2 3.8-.8 5.6-1 1-.3 2.3-.3 3.2-.9q3.3-1.6 6.4-3.4" class="b"/><path d="M15.4 189.6h8.8q1.7-.7 3.2-1.6c8.4-5 15.6-20.8 24.9-21.6 10.5-.2 17.5 18.3 27.3 21.7q2.3 1.1 4.8 1.5h20c5.4-2 9.7-6.4 15.3-7.8 8-2.2 14.1 4.6 20.8 7.5 1.2.6 2.8.2 4 .3h15.3q2-.3 4-1 3.5-.8 7.2-1.2l5.6-3.2" class="b"/><path d="M15.4 187.6H21q2.1.2 4-1c9.7-5 15.9-20.5 25.7-23.2 7.2-1.4 12.6 6.5 16.8 11.2 2.5 2.8 4.6 6 8 7.6a35 35 0 0 0 13.7 5.4h17.6c1.7 0 3.3-1 4.8-1.5q4-1.8 8-3 5.4-1 10.5 1c3 1 5.8 2.6 8.8 3.5h19.3q4-1.1 8-2 3.1-.7 6.4-.8l4-2.4" class="b"/><path d="M15.4 185.5q2.7.1 5.6 0a22 22 0 0 0 8.8-5.5c6.1-5.5 12.3-16.6 20-19 7.4-1.8 12.6 5.6 17 10.4l3.1 3.7 4.8 2.6q4.4 2.6 8.9 4.7 4 1.6 8 3c1 .3 2.2.1 3.2.2h17.6c4.7-1.3 9.6-2.6 14.5-1.8q4 .6 8 1.7 5.3.1 10.4 0 5.7.2 11.3 0l6.4-1.8q3.5-.9 7.2-1.2 2 0 4-.2l2.4-1.5" class="b"/><path d="M15.4 183.2c8 2.2 15.3-7 20-12.3 13.2-15.8 18.8-16.3 32.1-.4 1.2.9 2.8 1 4 1.6q3.8 1.6 7.3 3.6 4.6 2.6 9.6 4.6 3 1.7 6.4 3c1 .4 2.2.2 3.2.3h53.8q2 .1 4-.5c6.2-2 12.7-3.6 19.2-2.7l1.6-1" class="b"/><path d="m15.4 181 2.4.4q2.5-.5 4.8-1.7c9.3-5 14.2-15.4 23.2-20.8 6.9-4 13.1 1.2 17.7 6 1 1 1.9 2.6 3.2 2.9l2.4.1c4.6.6 8.8 2.9 12.9 5q5.3 2.4 10.4 5.4 3 1.9 6.4 3.2 3.2.1 6.4 0h45a11 11 0 0 0 4.8-.7l6.4-2q7.2-1.5 14.4-.2l.8-.5" class="b"/><path d="m15.4 178.9 2.4.3 2.4-1c5.4-2.2 9.6-6.6 13.6-10.6 6.3-6.4 14-15 23.3-8.6a34 34 0 0 1 4.8 3.8c1 .8 2 2.2 3.2 2.8 7.3-2.3 14.5 1.3 20.9 4.5 5.8 2.7 10.5 7.6 16.8 9.4h47.4q2-.4 4-1.2c8-3 14-3 22.4-1.4" class="b"/><path d="m15.4 176.8 1.6.2 2.4-1c3.9-1.5 7.3-4.1 10.4-6.9 12.4-11.2 19-19.2 33.7-5 1.4-.1 2.7-1.1 4-1.4 3-1 6.5-1.2 9.6-.6q6.5 1.6 12 5c3.4 2 6.4 4.6 9.7 6.6a27 27 0 0 0 8.8 3.8h40.2c3.2-.7 6.4-2 9.6-2.8 6.3-1.8 13-.8 19.2.7" class="b"/><path d="M15.4 174.8c1.4.4 2.7-.7 4-1.2a53 53 0 0 0 12.8-8.6c11.6-9.8 18.2-12.1 30.5-1.6 8.7-5.3 14.4-6.7 24-2.3 4.2 1.9 7.6 5 11.3 7.5q6.2 4.7 13.6 6.5c2.9.7 6 .3 8.9.4 7.5.2 15-.6 22.4-.2 4.2.2 8.2-1.5 12-2.6 7.2-2.2 14.7-.4 21.7 1.2" class="b"/><path d="M15.4 173c1.4-.2 2.7-1.2 4-1.7a49 49 0 0 0 8.8-5c4.8-3.3 9.5-7.3 15.2-9 6.8-2 13.3 1.8 18.5 5.7 1.2-.4 2.2-1.4 3.2-2q2.3-1.8 4.8-3.1a19 19 0 0 1 19.3 0c4.2 2.4 8 5.5 12 8.1a43 43 0 0 0 22.5 7.4c3.2 0 6.4-.5 9.6-.6h8.9c1.5 0 3.2-.5 4.8-.7q4.5-1 8.8-2.2c7-1.3 14 1.2 20.9 2.6" class="b"/><path d="m15.4 171 8-3.7q4.9-2.7 9.6-5.7c10.8-6.5 17.8-5.5 28 1.3l.9-.2c8.7-7 17.4-14.6 28.9-8 6.2 3.4 11.9 8 18.4 10.9a56 56 0 0 0 23.3 4.6 90 90 0 0 0 16-1.3c4.3-.8 8.6-2 12.9-1.2 5.2.7 10.1 2.5 15.3 3.4" class="b"/><path d="M15.4 169q6-2.7 12-5.6c5.3-2.7 10.8-5.7 16.9-5.8q5.4.1 10.4 2.3c2.2 1 4.2 2.3 6.4 3.1 5.2-4 10-9 16-12 5.7-2.8 10.7-1.5 16.1 1.2 5.1 2.5 10 5.6 15.3 8q10.6 5 22.4 6 8 .8 16 0c3.5-.1 7-1 10.5-.8 4.4.4 8.6 2 12.8 3 2.1.5 4.3 1.2 6.5 1" class="b"/><path d="m15.4 167 9.6-4c4.4-1.8 8.9-3.8 13.6-4.7 7.6-1.5 15 1.5 21.7 4.6 1.5-.3 2.7-1.8 4-2.7l7.2-6.2c4-3.2 8.4-6.7 13.7-6.8 7 .5 13.6 3.9 20 6.5 8 3.5 16.3 6.6 24.9 8.1q8.3 1.5 16.8 1.6c3.5.2 7-.3 10.5.2 4.9.9 9.5 2.9 14.4 3.8h4.8" class="b"/><path d="M15.4 165q5.2-1.9 10.4-3.6c5.4-2 11-3.6 16.8-3.3 6.2.3 12 2.7 17.7 4.7 5.6-3.3 10.1-8.3 15.2-12.3 4.7-3.8 8.4-5.7 14.5-4.7 13 1.6 25.2 7 37.7 10.7q8.7 2.8 17.6 4c3.7.7 7.6.6 11.3 1.3 4.3.9 8.4 3 12.8 3.6h7.2" class="b"/><path d="M15.4 163.3c9.5-3 19.5-6.6 29.7-4.8 5.1.7 10.1 2.6 15.2 3.7 5.2-2.5 9.4-6.5 13.6-10.3 3.6-3 7.3-6.5 12-7.3 25-1.6 33.4 4.6 55.4 12q4.5 1.5 8.9 2.4c2.4.5 4.9.7 7.2 1.5q4.4 1.5 8.8 2.8 5.3.1 10.5 0" class="b"/><path d="M15.4 161.4c7.3-1.7 14.8-4 22.4-3.7 5.2 0 10.3 1.1 15.3 2.2q3.5.8 7.2 1.4 2.5-.8 4.8-2.2c7-4 11.9-11 19.3-14.3 1.7-.7 3.7-.7 5.6-1l7.2-1.3c15.6-2.7 25 1.5 38.5 8.5q6.2 3.3 12.9 5.6c3.1 1 6.5 1.6 9.6 2.8 2 .7 4.2 1.7 6.4 2h12" class="b"/><path d="M15.4 159.4c1.8.1 3.7-.6 5.6-.9q5.2-1 10.4-1.4c7.8-.5 15.6 1.1 23.3 2.3h8c7.3-2 12.4-8.3 18.5-12.4q1.8-1.2 4-2.2 2.3-.6 4.8-1.2 5.3-1.6 10.4-3.3c19-6.5 28 3.5 43.3 12.1q5.4 3 11.3 4.6 3.5 1.3 7.2 2c1.8.6 3.8.3 5.6.4h8.8" class="b"/><path d="M15.4 157.4q4.5 0 8.8-.8 5.2-.6 10.4-.5c4.6.1 9.1.8 13.7 1.2h16c5.8.3 13.4-7.8 18.5-10.6q2.7-1.5 5.6-2.2 2.9-1 5.6-2.2c5.5-2.5 10.9-5.8 16.9-7 14.5-3 24.5 10.8 36 17a41 41 0 0 0 8 3.3q4.5.7 9 1.7 6.3 0 12.8 0" class="b"/><path d="M15.4 155.3h7.2q4.4-.4 8.8-.3 4.5 0 8.8.3h28.9a29 29 0 0 0 6.5-3.2c2.9-1.8 5.7-4 8.8-5.5q2.3-1 4.8-1.7 2.9-1.3 5.6-2.8c7-3.9 13.4-9.8 21.7-10.2 12-.2 21.2 13.8 31.3 19.3q2.6 1.6 5.6 2.6l4.8.5q3.2.6 6.4 1h12" class="b"/><path d="M15.4 153.3h16.8c3.7 0 7.5-.5 11.2-.2 6.2.5 12.4.1 18.5.2h7.2c1.6 0 3.4.2 4.8-.6 3.4-1.3 6.4-3.4 9.7-5 2.5-1.3 5.5-1.8 8-3.3 5.5-2.8 10.1-7.1 15.2-10.6 3.8-2.5 8.2-4.8 12.9-4.2 10.9 1.5 19 15.4 28.9 20.8a23 23 0 0 0 4 1.8 66 66 0 0 1 11.2 1.1h5.6c2.4 0 5 .4 7.2-.6" class="b"/><path d="M15.4 151.3h16.8c4.5-.6 9.1-1.2 13.7-.8l6.4.8h23.2q3-.9 5.7-2.2c3-1.6 6.5-2.2 9.6-3.7 6.3-3 11.3-8.3 16.8-12.6 3.9-3 8.6-5.8 13.7-4.8 11 2.4 18.2 17 28.9 22 1.4.8 3.2.7 4.8.7l7.2.6h9.6l4.8-2.3" class="b"/><path d="M15.4 149.3h16.8c4.7-1 9.6-2.1 14.4-1.8 3.6.2 7 1.2 10.5 1.8h22.4l4.9-1.6a35 35 0 0 0 17.6-9.9c5.3-4.5 10.9-11.3 18.5-11.2 9.8.7 17.5 14.4 25.7 19.8a20 20 0 0 0 5.6 2.8h17.6q3.9-1.7 7.2-4.3" class="b"/><path d="M15.4 147.3h16q3.6-.9 7.2-1.9a29 29 0 0 1 14.5-.3c2.6.6 5.3 1.6 8 2.2h22.5a30 30 0 0 0 17.6-8.4c5.6-4.6 11.5-12.5 19.3-12.9 9.6 0 17.1 13.5 24.9 18.6q2.1 1.6 4.8 2.6 4.7.1 9.6 0h7.2c3.8-1.1 6.7-4.4 9.6-6.8" class="b"/><path d="M15.4 145.3h16q4.9-1.7 9.6-3.3 6.4-1.9 12.9-.3c3.5.9 7 2.4 10.4 3.4 4 .3 8 0 12 .2H86l4-.1q2.5-.6 4.8-1.7c9-4 16.4-16.8 25.7-17.6 9.6-.5 17 12.8 24.9 17.6q1.5 1 3.2 1.6c1.5.3 3.2 0 4.8.1h12a11 11 0 0 0 3.2-1.8q4.4-3.6 8-7.9" class="b"/><path d="M15.4 143.2h10.4c2 0 4.4.4 6.4-.4 3.8-1.3 7.4-3.3 11.2-4.5q6.2-1.9 12 0c4.2 1.3 8 3.5 12.1 4.8 2.9.4 6 0 8.8.1h15.3c10.4.2 18.8-16 28.9-17.2 8.7-.7 15.2 9.4 21.7 14 1.6 1.3 3.5 2.7 5.6 3.2H163c4.4 0 10.7-9.3 13.7-12.5" class="b"/><path d="M15.4 141.2h10.4c1.8-.1 3.9.3 5.6-.3 4.5-1.6 8.4-4.3 12.9-6 4-1.6 8.7-1.6 12.8 0 4.4 1.7 8.4 4.4 12.8 6 2 .6 4.4.2 6.5.3h20c9-2.8 14.2-12.2 23.3-14.6 7.1-1.6 12.7 4.4 17.6 8.6 2.7 2.3 5.5 4.7 8.9 6h16c5.2-1.2 11-11.1 14.5-15.2" class="b"/><path d="M15.4 139.2H29c1.4.1 2.8-.7 4-1.2l4.8-2.7c7.3-4.5 13.4-7.3 21.7-3.2 3.8 1.9 7.3 4.3 11.2 6q1.6.9 3.2 1.1h24.9l3.2-1.4c5.1-2.8 9.2-7 14.4-9.7 5.8-3 11.2-1 16.1 2.8 3 2 5.7 4.6 8.8 6.5l3.2 1.7 2.5.1h13.6c5.5-.2 12.6-13.3 16-17.5" class="b"/><path d="M15.4 137.2H25c2.1-.1 4.5.4 6.4-.7 4.8-2.2 8.9-5.7 13.7-8 9.7-5 16.8 1.6 24.8 6.2 2.5 1.3 5.1 2.8 8 2.5h22.5c4.8-1.2 8.6-4.7 12.8-7.1 6-3.8 11.6-4.2 17.7-.5 4.3 2.4 8 6.1 12.8 7.6H159c6.1.6 14-15 17.6-19.6" class="b"/><path d="M15.4 135.2H29c3-.5 5.5-2.5 8-4 6.2-4.4 13-9.5 20.9-6.4 7 2.6 12.6 8.7 20 10.4h22.5l2.4-.1 2.4-1c8.2-3.9 14.6-9.8 24.1-5.3 4.1 1.8 7.8 4.6 12 6.2 4.8.3 9.7 0 14.5.1h3.2a16 16 0 0 0 6.4-5.1c4.2-5.3 7.4-11.4 11.2-16.9" class="b"/><path d="m15.4 133.2 14.4-.1c12.6-5 18.6-17.6 33.7-8.3 5 2.9 9.6 6.6 15.3 8.2 3.1.3 6.4 0 9.6.1q6.7.1 13.6-.2h3.2q3-1.1 5.6-2.4c3.6-1.7 7.3-3.3 11.3-3.4 6.4 0 11.7 4.2 17.6 6h14.5c1.2 0 2.8.3 4-.2 8-4.2 13-17.1 18.4-24.5" class="b"/><path d="M15.4 131.1h14.4c9.8-3 17.6-14.7 28.9-10.9 7.8 2.4 15 10.5 23.3 11h5.6l5.6-.8a57 57 0 0 1 14.5.1q2-.6 4-1.4a34 34 0 0 1 8-2.1c6.2-1 11.9 2.5 17.6 4.1h8c2.4 0 4.9-.4 7.3-.3 1.5-.2 3.4.5 4.8-.4 8.4-5.1 13.4-18.8 19.2-26.9" class="b"/><path d="M15.4 129.1h15.2c7.8-2.4 13.5-9.4 21.7-11 10.3-1.6 17.9 7.8 27.3 10.5l2.4.5 4.8-.9q4.7-1.2 9.6-1.4a43 43 0 0 1 13.6 1.6l2.4-.7c8-2.5 13.1-1.4 21 1.1 1.1.5 2.6.3 4 .3q2.8.2 5.5-.4c4.5-1 9.1-1.8 13.7-1 8.5-5.6 13.9-20.8 20-29.2" class="b"/><path d="M15.4 127.1h16c7.2-2.1 12.8-8 20-9.8 9.6-2.6 17.5 4.9 25.8 8.2 1.2.5 2.6 1.2 4 .7q3.2-.7 6.4-1.8 5.8-1.9 12-1.1a50 50 0 0 1 8 1.9c1.9.4 3.8 1.6 5.7 1q5.5-1.3 11.2-.5c3 .3 5.8 1.5 8.8 1.4h4q2.5-.6 4.8-1.4c4.7-1.7 9.6-3 14.5-1.7 1.3-.4 2.3-1.9 3.2-2.8q2.7-3.2 4.8-6.9c4.2-6.8 7.5-14.2 12-20.8" class="b"/><path d="M15.4 125c5.8 0 11.8.3 17.6 0 7.7-2.5 14.1-8.8 22.5-9.1 6-.3 11.5 2.8 16.8 5.4 1.8.7 3.7 2 5.7 2.2l4-1c5.1-1.7 9.6-4.2 15.2-3.4 5.4.7 10.2 3.4 15.3 5.3q1 .4 2.4 0l4-.2c3.2-.2 6.4.4 9.6.9h6.4q2.2-.6 4-1.5c4.4-1.9 8.8-4.5 13.7-4.3q1.6 0 3.2.5l.8.2.8-.2c8.4-9 12-21.3 19.3-31.1" class="b"/><path d="M15.4 123h16.8q2.1.3 4-.7l5.6-2.4c8-4 14.6-6.5 23.3-3.3q4.9 2 9.6 4c1.6 0 3.3-.7 4.8-1.2q4.5-1.5 8.9-3.6c9-3.8 17 3.3 24.8 6.7q1.6.6 3.3.3h3.2l4.8.3h6.4q2 .2 4-.7 3.4-1.6 6.4-3.5c3.6-2.1 7.7-4.6 12-3.9l2.5.6.8.3h.8c8-9.5 11.8-21.9 19.2-31.8" class="b"/><path d="M15.4 121h19.2c1.7.1 3.3-.7 4.8-1.2q3.3-1.2 6.5-2.5c10.4-4.4 16.2-3.1 26.4.7q5.4-1.5 10.5-3.7c2.4-1 4.6-2.7 7.2-3.4 9.7-2.6 16.5 7 24.9 10 4 .3 8 0 12 .1 1.8 0 3.8.3 5.6-.2 4.7-2 8.5-5.7 12.9-8.3 2.6-1.5 5.8-2.5 8.8-1.5 1 .2 2.1 1 3.2.8 4.9-6 8.3-13.3 12-20.2l4-7c.7-1 1.4-2.5 2.5-3h.8" class="b"/><path d="M15.4 119q12 .2 24-.4 5.2-1.7 10.5-3.4a31 31 0 0 1 16-.4c1 .2 2.2.7 3.2.6q8.4-2.1 16-6.5c4.6-3 8.7-3.8 13.7-1 3.8 2 7 5.1 10.4 7.7 2 1.3 4 3 6.4 3.4h13.7q1.2.2 2.4-.3c4.8-2.4 8.5-6.6 12.8-9.7 4-2.8 7.7-3.5 12-1l.9-.1c6.7-8.7 10.6-19.2 16.8-28.2h2.4" class="b"/><path d="M15.4 117q6.3.1 12.8-.4 7.2-.5 14.4-.8a19 19 0 0 0 5.7-.8 51 51 0 0 1 12.8-1.7c1 0 2.2.3 3.2 0 7-1.4 14-4 20-7.8 4.8-3.3 8.3-4.8 13.7-1.6 6.1 3.6 10.4 10 16.9 13 3.1.3 6.4 0 9.6.1h5.6l1.6-.8c4.5-2.8 8-7 12-10.3 4.2-3.4 8-4.6 12.9-1.3 1-.3 1.7-1.8 2.4-2.6l3.2-5c3.8-6.4 7-13.3 11.2-19.4h3.2" class="b"/><path d="M15.4 115c3.4.2 7-.4 10.4-.7q7.2-.7 14.4-1.1c15-.8 30.5-2.5 43.4-10.8 5.3-3.6 8.2-5.9 14.4-1.8 6 4.2 10.2 11 16.9 14.3q4.7.1 9.6.1h4.8c2-.8 4-2.4 5.6-3.9 4.5-3.8 8-9.2 13.6-11.5 2.9-1 5.8.4 8 2 4.7-5.2 7.7-11.7 11.3-17.7l4.8-7.8c1-.8 2.7-.3 4-.4" class="b"/><path d="M15.4 113c2.9 0 5.9-.8 8.8-1q7.6-.8 15.2-1.4c15.7-1 31.7-2.6 45-11.8 5-3.8 8.1-5 13.6-1 6 4.6 10 11.8 16.9 15.2h9.6c1.6-.1 3.3.2 4.8-.2 3.1-1.6 5.6-4.3 8-6.8 3.7-3.6 8-9.7 13.7-9.5 2 0 3.7 1.6 5.6 2.4 4-5 7.1-10.6 10.4-16l4-6.5c.7-.9 1.4-2.3 2.4-2.8h3.2" class="b"/><path d="M15.4 111q12.6-2.3 25.6-3.1c15-1 30.7-2.8 43.4-11.6 5-4 8.1-5 13.6-.8 5.6 4.4 10.4 12.8 16.9 15.5h13.6q2.7-1.3 4.8-3.4c3.6-3.3 6.7-7.3 10.4-10.5 4-3.4 7.8-4 12-.4l.9-.3c4.3-5.1 7.6-11 11.2-16.6a86 86 0 0 1 4.8-6.9c1-1.7 2.3-1.3 4-1.3" class="b"/><path d="M15.4 108.9c9.4-2.2 19.2-3 28.9-3.7 14.2-1 29-3 40.9-11.4 5-4.3 8.8-3.7 13.6.6 5.3 4.6 9 11 15.3 14.4 3.1.3 6.4 0 9.6.1q2.4.2 4.8 0c2-1 4-2.7 5.6-4.3 4.4-4 8-9.6 13.7-11.7 2.9-1 5.8.5 8 2.4 3.3-3.6 6-7.8 8.8-11.8 1.9-2.5 9.2-14.7 12-14" class="b"/><path d="M15.4 106.8c8.4-2.2 17-3 25.6-3.6 15.2-1 31.3-1.9 44.2-10.8 5-4.2 8.8-3.5 13.6.7 5.2 4.4 9 10.9 15.3 13.8h13.6c2.2-.5 4-2.2 5.6-3.6 6-5 13.2-16.7 21.7-9.5h.8c4.5-4.7 8.1-10.2 12-15.4 2.6-3.4 5.3-7 8.8-9.3" class="b"/><path d="M15.4 104.7c8.9-2.4 18-3.3 27.2-3.7 14.9-.7 30.7-1.2 43.4-10 5-4 9.4-2 13.6 2 3.9 3.1 9.7 11 14.5 11.9h13.6c2.1-.6 4-2.2 5.6-3.5 6.1-5 13.3-15.2 21.7-8 5-4.3 8.7-9.8 12.8-14.9 2.6-3 5.3-6.4 8.8-8.5" class="b"/><path d="M15.4 102.8Q28 99.5 41 99.2c11.6-.5 23.4-.2 34.5-3.7q4.6-1.4 8.9-3.8c2-1.2 4-2.8 6.4-3 6.6-.5 12 7.1 16.8 10.8 1.7 1.3 3.5 2.9 5.7 3.4h11.2q2 .2 4-.2c8.3-3.6 15.8-17.2 25.7-10h.8c4.9-3.9 8.7-8.9 12.8-13.5 2.6-2.9 5.4-5.9 8.9-7.8" class="b"/><path d="M15.4 100.9Q28 97.6 41 97.5c11.8-.2 23.9.5 35.4-2.7q4-1.2 8-3.2c2.2-1.2 4.5-3 7.2-2.8 7.3.3 12.8 8.4 19.2 11.5 1 .4 2.2.2 3.3.4l4.8.2c3.1-.1 6.5.2 9.6-.2 8.3-3.5 16-14.8 25.7-8 8.5-5.3 13.6-14.7 22.5-19.6" class="b"/><path d="M15.4 98.9c1.6 0 3.2-.7 4.8-1A110 110 0 0 1 45.8 96c14.4.2 29.7 1 42.6-6.2 7.7-2.8 13.8 4.6 20 7.8 1.7 1 3.8.4 5.7.7q2.7.3 5.6.6l8.8-.1c4.3-1.6 8-4.5 12-6.4 3-1.5 6.5-2.3 9.7-1.3l2.4 1 .8.4h.8c8.4-4.6 13.9-13.2 22.5-17.5" class="b"/><path d="M15.4 96.8c2.4.2 4.8-.6 7.2-1q5.6-.8 11.2-1.1c9.6-.4 19.3.5 28.9.4 6-.1 12-.5 17.7-2l4.8-1.6c2-1 4.1-2 6.4-2 5.6 0 10.3 3.7 15.2 6 .4.3 1.2.5 1.6.4a43 43 0 0 1 11.3.7c2.8.5 5.9.2 8.8.3 8.8-2.7 15.2-9.4 24.9-4.4 8.8-3.5 14.7-11.7 23.2-15.7" class="b"/><path d="M15.4 94.8c4 .3 8-.8 12-1.1q8-.7 16-.3c8 .3 16.1.8 24.1.6a57 57 0 0 0 19.3-3c6.3-2.9 12.6.3 18.4 2.7q3.3-.3 6.5-.3 5.6.2 11.2 1.4h6.4c3.8-1 7.4-2.7 11.2-3.6a19 19 0 0 1 11.3.5c.6.4 1.7.5 2.4.1 8.3-2.9 14.4-9.8 22.5-13.3" class="b"/><path d="M15.4 92.8h6.4a134 134 0 0 1 22.5-.7q11.6.7 23.2.7 7.3.2 14.5-.9c2.4-.3 4.8-1.2 7.2-1.7 4.6-1 9.2.3 13.6 1.7q6.8-1.5 13.7-.7l8 1.5q2.8.1 5.6.1c3.5-.7 7-1.9 10.4-2.4a24 24 0 0 1 11.3 1c.6.3 1.7.1 2.4-.1 8.2-2.1 14.7-8.1 22.4-11.3" class="b"/><path d="M15.4 90.8h10.4q5.2-.4 10.4-.3c14.4.5 29 .2 43.3.3h4q2.4-.3 4.9-1a28 28 0 0 1 8-.1q2 .2 4 .5 4-1 8-1.5 7-.7 13.7 1l4.8 1h4.8a48 48 0 0 1 20.9 0c8.8-1 16-6.5 24-9.6" class="b"/><path d="M15.4 88.8h55.3q11.3.1 22.5-.2 2 0 4 .2 4.5-1 8.8-2c6.4-1.4 13-.7 19.3 1l4 1q4 .1 8-.4 5.2-.3 10.5.3 4.7.1 9.6 0c6.8-1.1 12.8-4.7 19.3-7" class="b"/><path d="M15.4 86.8h81.8c3.8-.4 7.5-1.8 11.2-2.4 6.2-1.3 12.5-.5 18.5 1.2q2.4.8 4.8 1.2h29.7c5.3-1 10.2-3.3 15.3-4.9" class="b"/><path d="M15.4 84.7h83.4c3.8-.7 7.5-1.9 11.2-2.6 6.2-1.3 12.5-.4 18.5 1.3q2.8.8 5.6 1.3h26.5q2.8.2 5.6-.1 2.5-.6 4.8-1.4l5.7-2.7" class="b"/><path d="M15.4 82.7h84.2q2.5-.2 4.8-1l7.2-1.7c6.7-1.6 13.6-.3 20.1 1.6q2.4.8 4.8 1.1h28.1c1.7 0 3.3-1 4.8-1.7q3.6-2 7.2-4" class="b"/><path d="M15.4 80.7h85c2 .2 3.8-.4 5.6-.9q3.2-.9 6.5-1.6c7.5-2 14.3-.6 21.6 1.5 1.6.3 3.2.9 4.8 1h24.9c4.7-1.5 8.6-4.6 12.8-7" class="b"/><path d="M15.4 78.7h89.8l8-2.1c8.4-2.2 15.2-1 23.3 1.2l4 .8q3.2.2 6.4 0h14.5c4.6 0 11.1-6 15.2-8.3" class="b"/><path d="M15.4 76.7h92.2l5.7-1.4a44 44 0 0 1 24.8.4l4.8 1h17.7c5.9-1.2 11-6.6 16-9.8" class="b"/><path d="M15.4 74.6q15.6.2 31.3 0 15.2.2 30.4-.1 11 .3 21.7.2h12l3.2-.8a47 47 0 0 1 21.7-1l9.6 1.7h11.3c1.2 0 2.7.3 4-.2 6.1-2.2 10.7-7 16-10.7" class="b"/><path d="M15.4 71.7q4.3 1.1 8.8 1h9.6c8.6-.1 17.2.1 25.7-.3 3.5-.2 7 .2 10.4-.4q8.5-1.6 16.9.4 2 .3 4 .2h22.5c3-.2 5.9-1.2 8.8-1.5q6-1 12-.5c4.9.4 9.7 1.5 14.5 2h6.4q2 .2 4-.1c6.9-2.3 11.9-7.8 17.7-12" class="b"/><path d="M15.4 68.6C20 70 25 70.3 29.8 70.5q8.9 0 17.6-.3 9-.5 17.7-.4c4-.8 8-2 12-2q4.2-.2 8 .9c2.4.5 4.8 1.6 7.3 2h24.8c4.3-.8 8.6-1.7 12.9-1.9 5.6-.3 11.3.5 16.8 1.2q4 .6 8 .6 2.2.2 4-.5c6.9-2.6 12-8.2 17.7-12.4" class="b"/><path d="M15.4 65.3c4.6 1.6 9.5 2 14.4 2.2q8.9 0 17.6-.3 8.1-.2 16.1 0c3.2-.8 6.4-2 9.6-2.8 8.8-2 13 1.1 20.9 3.8q1.6.5 3.2.4h24.1q4.3-.8 8.8-1.3 8-.6 16 .3l10.5.8c7.9-2.2 13.5-8.6 20-13.3" class="b"/><path d="M15.4 62c10 3.2 20.8 2 31.3 2.1q8 0 16 .4 4-1.7 8-3.2a19 19 0 0 1 16.9.6q3.5 1.9 7.2 3.5c1.2.5 2.6 1.2 4 1.2h20c3 0 6 .2 8.9-.4a110 110 0 0 1 28.9-.2c2-.3 3.8-1.5 5.6-2.4 5.2-3 9.5-7.3 14.4-10.8" class="b"/><path d="M15.4 58.9c9.9 2.8 20.3 1.7 30.4 2q7.7 0 15.3 1c1.1-.1 2.2-.9 3.2-1.3l4.8-2.4c5.7-2.9 11.8-4.2 17.7-.8 4.4 2.4 8.7 5.5 13.6 7 2.9.4 6 0 8.8.2h16c4.1.2 8.1-.6 12.1-1a141 141 0 0 1 20-.1q2.6-1 4.9-2.3c5.1-3 9.5-7 14.4-10.3" class="b"/><path d="M15.4 55.8C25 58.1 35.2 57 45 57.6q7.6.3 15.2 1.6c1.2 0 2.2-1 3.2-1.4l4.8-2.9c6-3.5 12.2-5.6 18.5-1.6 5 2.9 11.8 8.6 17.6 9.3h28.9a184 184 0 0 1 24-1.6c1.2 0 2.3-.8 3.3-1.2l4-2.3c4-2.6 8-5.6 12-8.2" class="b"/><path d="M15.4 53c7.6 1.4 15.5.7 23.2 1 7.3 0 14.6 1.2 21.7 2.7 7.4-4.4 15.7-13 24.9-8.4 4.2 2.3 8 5.6 12 8q4.1 2.8 8.8 4.2h30.5q11.3-1.4 22.5-2.1c6.3-2.7 11.7-7 17.6-10.4" class="b"/><path d="M15.4 50.5c7.4.8 15-.2 22.4.1q11 .5 21.7 3.6c2.3-1 4.3-3 6.4-4.4 4.5-3.2 9.4-7.1 15.3-6.5 3 .4 5.6 2.2 8 3.9q4.7 3.5 9.6 6.8a36 36 0 0 0 9.6 4.4q8 .1 16 .1t16.1 0l11.3-1.6q4.5-.4 8.8-1.3c5.6-2.4 10.6-5.9 16-8.6" class="b"/><path d="M15.4 48.3c6.7.2 13.3-.9 20-.8q7 0 13.7 1.4c3.5.7 7 2 10.4 3 6-4.2 11.7-10.7 19.3-11.9 5-.7 9 3 12.8 5.6q5.8 4.4 12 8 3.5 1.7 7.3 2.8 2.3.1 4.8.1h27.2q9.8-1.3 19.3-3.7c2-.4 3.8-1.5 5.6-2.3q4.5-2.2 8.8-4.2" class="b"/><path d="M15.4 46.5c4.8-.2 9.6-1.1 14.4-1.6 10.4-1.2 19.3.9 28.9 4.6.9 0 1.7-.8 2.4-1.3l3.2-2.6c3.7-3 7.5-6.3 12-7.8 7.2-2.5 12.1 3 17.7 6.6a58 58 0 0 0 20 10h28.1q3 .2 5.7-.3 6.5-1.1 12.8-3.2c5.4-1.9 10.7-4.3 16-6.2" class="b"/><path d="M15.4 45c4.5-.5 9-1.7 13.6-2.3 11-1.9 19.7.5 29.7 4.8 7.4-4.4 15-15 24.9-11.9 2.3.8 4.3 2.4 6.4 3.7q4 2.7 8 5a64 64 0 0 0 18.5 8.1h31.3q6.6-1.1 12.8-3.7c5.5-2.5 10.6-6 16-8.7" class="b"/><path d="M15.4 43.8c4.3-.7 8.5-2 12.8-2.9 11.6-2.6 20 0 30.5 4.8 7.4-5 15.8-15.3 25.7-11.3 1.6.6 3.2 1.8 4.8 2.7l8 4.5q7.8 4.2 16 7.2c2.9.9 5.8 1.9 8.9 1.7H147q2 0 4-.3c10-1.9 17.5-9.2 25.6-14.8" class="b"/><path d="M15.4 42.8c5.4-1.1 10.6-3.2 16-4.2 10.9-2.1 17.7 1.2 27.3 5.2 7.6-4.9 15.7-14.2 25.7-10.5q2.4 1.2 4.8 2.6 3.5 1.9 7.2 3.4 7.1 3.1 14.4 5.8c4 1.3 8 2.7 12 3.3H151c10.7-1.6 17.8-10.8 25.6-17.4" class="b"/><path d="M15.4 42c7.2-1.7 14-5.2 21.6-5.6q7-.3 13.7 2.4c2.7 1 5.2 2.5 8 3.4 7.6-4.8 16-13 25.7-9.3q2.4 1 4.8 2.3 3 1.4 6.4 2.5 9.1 3 18.4 5.7 5.6 1.6 11.3 3h5.6q11.3.1 22.5 0c10.2-2.8 16.1-12.5 23.2-19.6" class="b"/><path d="M15.4 41.3c5.7-1.4 11-4 16.8-5.4 10.7-2.6 17 .8 26.5 4.7 7.5-4.3 15.7-11 24.9-8 3.2 1 6.2 2.7 9.6 3.5 7.1 1.9 14.5 2.9 21.6 4.8q6.8 1.9 13.7 3.4 4.4.1 8.8.1h16.9c9.7-2.4 16.1-14.3 22.4-21.4" class="b"/><path d="M15.4 40.5c5-1.1 9.6-3.3 14.4-4.8 11.3-3.8 18.5-1.2 28.9 3.5 7.6-4 16-9.2 24.9-6.5 3.2 1 6.2 2.5 9.6 3q6.8 1 13.6 1.4 7 .7 13.7 2.4l11.2 2.9h18.5c5 0 6 .6 10.4-2.7 6.7-5.5 10.8-13.4 16-20.2" class="b"/><path d="M15.4 39.5c4.6-.9 9.1-2.8 13.6-4.3 11.7-4.3 18.7-2.3 29.7 2.4 8.2-3 14.8-7 24-4.8 2.8.5 5.3 1.8 8 2.2 4.3.7 8.6.6 13 .5q9.7-.5 19.2 1.7l11.2 3q3.1.3 6.4.2h16c8.8-3.3 14.8-16.6 20.1-24" class="b"/><path d="M15.4 38.4c14-2.4 21.5-10.1 36.9-4.7l4 1.5c1 .3 2.1 1 3.2 1l4-1.4c6.7-2.3 14-3.3 20.9-1.4q2.7.7 5.6 1.3 4.4.5 8.8.1c9.9-.9 18.3-2.4 28 .6 3.6.9 7 2.2 10.5 3h20.1q2.2-.9 4-2.5c6.6-6.1 10.3-14.7 15.2-22.1" class="b"/><path d="M15.4 36.3h4q4-.8 8-2.2c5.2-1.7 10.5-3.5 16-3.3 5 0 9.8 1.7 14.5 3.4l1.6.5 1.6-.3 4-.9q7.1-1.6 14.4-.9c3.8.3 7.5 1.6 11.3 1.8 6.2.4 12.3-1 18.4-2 7.8-1.6 15-1.2 22.5 1.5q3.6 1.3 7.2 2.3c4 .3 8 0 12 .2h7.3l2.4-1.4c3.3-2.6 5.8-6.3 8-9.8q4-7 8-13.7" class="b"/><path d="M15.4 34.3c2.6 0 5.4.3 8-.1 5.9-1.4 11.6-3.8 17.6-4.4q6.6-.4 12.9 1.5l6.4 2 3.2-.5q8-1.2 16-.5c4.6.5 9.1 1.7 13.7 1.4 6.5-.2 12.9-2 19.3-3.5q10.6-2.7 20.8 1.4 3.6 1.3 7.2 2.5c1.3.4 2.8.2 4 .2H159q1.2-.6 2.4-1.5c6.9-6.3 10.3-15.4 15.2-23.2" class="b"/><path d="M15.4 32.3h10.4c4.3-1 8.5-2.4 12.8-3.2 5.3-1 10.9-.6 16 .8 2.5.5 4.9 1.6 7.3 1.8q6.8-.7 13.6-.3c3.8.1 7.5.8 11.3 1 4-.2 8 .2 12-.3 5.2-.7 10.2-2.4 15.3-3.8q10-3.1 20 .8 4 1.7 8 3c1.3.4 2.8.2 4 .2H159c1.2 0 2.3-1.1 3.2-1.8 6.4-6.3 9.7-15 14.4-22.5" class="b"/></svg>