<svg xmlns="http://www.w3.org/2000/svg" id="a" width="1920" height="2400" viewBox="0 0 192 240"><defs><style>.b{stroke:#fff;stroke-miterlimit:10;stroke-width:.6px}</style></defs><path d="M0 0h192v240H0z" style="stroke-width:0"/><path d="M14.5 232c2.3-.2 4.8-.7 7.2-.4 5 .9 7.4.4 11.4-2.5 1.9-1.3 4.2-2.1 6.5-1.5 2.4.9 4.7 2.1 7.3 2q2.4-.2 4.9-.1c3.2.5 6.4 2.2 9.7 1.7 3.3-.4 6.3-2.9 9.7-1.9 2 .6 3.7 2 5.7 2.5 3 .7 6-.3 9-.2 3.3.5 6.4-1.2 9.7-1.7 1.3-.2 2.8.2 4 .4q3.5.5 6.6-1c1.2-.5 2.6-1.3 4-1.3 2.2.5 4.3 1.7 6.5 2.3 3.7 1.2 7.6 1.2 11.4 1.7q4.5 0 8.9-.3 4-.6 8.1-.5 3.7.6 7.3.8 4 0 8.1-.2 4.8.4 9.8 0 3.7.1 7.3-1" class="b"/><path d="M14.5 229.6q3.1-.5 6.4-.4c2.7.3 5.5 1 8.1.5 3.4-.6 6.2-3.6 9.8-3 2.5.5 4.7 2 7.3 2.1q3.6.1 7.3.2 3.2.2 6.5.5 3.7 0 7.3-1.2c2-.6 4.3-1.4 6.5-.8q2 1 4 1.7 2.4.7 4.9.7c3-.2 6.2.3 9-1 2-1 4-2.7 6.4-2.5 8 2.1 9-2.8 13.8-1.3 2.8.6 5.5 2 8.1 3q3.6 1.2 7.3 1.6c4.3.4 8.7.1 13 .2q6.9.1 13.8-.6 2.8-.4 5.7-.4c1.8.1 3.8.7 5.6 1q6.3.2 12.2-1.8" class="b"/><path d="M14.5 227q3.1-.4 6.4-.3c3.2.4 6.5 1.4 9.8 1l4-1.2c2.7-1 4.8-.7 7.3.3q3.3 1 6.5.8 4.5.1 9-.1c4.4.1 8.9-.2 13-2 4.9-2.6 6.7 1 11.3 2q3.7.5 7.3.1 2.8-.5 4.9-2.3c1.4-1 3-2.3 4.8-2q2.4.6 5 .7 2.3-.2 4.8-1c1.8-.4 3.8 0 5.7.2 2.3.3 4.4 1.6 6.5 2.6q2 .9 4 1.4c2.6.7 5.4.5 8.1.5q7.4.2 14.6-1c4-.4 8.2-1.4 12.2-.8 2.2.5 4.3 1.4 6.5 1.7 3.9.4 8-.3 11.4-2.1" class="b"/><path d="M14.5 224.4q3.1-.6 6.4-.2 4.5.8 9 1.4c2.7.2 5.4-.7 8-.8 2 0 3.9.7 5.8.7q4.5.2 8.9 0H59c3 0 6 0 9-1.1 4.2-1.7 5.7-5.8 10.5-2 1.9 1.5 4 2.9 6.4 3 2.2.1 4.5.5 6.5-.3 2.3-1 4.1-3 6.5-3.6 2.4-.3 4.9.9 7.3.6 2.2-.2 4.3-.9 6.5-.7q3-.2 5.7.7c2.6 1.2 5.2 2.7 8.1 3.3q2.8.3 5.7.1 4 .2 8.1-.2c2.7-.6 5.4-1.6 8.1-2.2q5.2-1.2 10.6-.3c2.4.6 4.8 1.8 7.3 2.4 4.1 1 8.6 0 12.1-2.4" class="b"/><path d="M14.5 222q4.8-.4 9.7.5 3.6.4 7.3.9c2.7.3 5.4-.3 8.1-.1 4 .4 8.1-.3 12.2 0l8 .2c3.4 0 7-.1 9.8-2.2 2.1-1.3 3.8-4.1 6.5-4 2 .4 3.4 2 4.9 3a12 12 0 0 0 4 2.4q2.8.5 5.7.8c2.3 0 4.4-1.4 6.5-2.2a11 11 0 0 1 4-.6q4.2 0 8.2-.4c2.1.2 4.3 0 6.5.3s4.3 1.4 6.5 2q3.5 1 7.3.8c10.3.1 10 .2 19.4-3.7q4.6-1.6 9 .3c2.3 1.1 4.7 2.6 7.3 3.2 4.3 1 8.8-.6 12.1-3.4" class="b"/><path d="M14.5 220.3q6.8.1 13.7.1 4.5.8 9 1 4.5 0 8.9-.6a61 61 0 0 1 8.1.1l9 .4q4.7-.1 8-3.3c1.7-1.4 3.4-3.6 5.7-3.7 3 .2 5 3 7.3 4.4q2 1.2 4 1.7 4.2 1.5 8.2.4c5-1.7 9.4-2.3 14.6-1.3l5.7.6c2.4.3 4.9 1 7.3 1.1q7.7.3 15.4 0a16 16 0 0 0 6.5-2c1.9-1 3.7-2.5 5.7-3.3 6.4-2.5 9.1 6.2 16.2 5.4q5.5-.3 9.7-4" class="b"/><path d="M14.5 218.8q4.4.4 8.9-.3c2.4-.4 4.9-1 7.3-.5 3 .5 6 1.2 9 1 2 0 4.3-.6 6.4-.8q2.8-.2 5.7-.2 4 0 8 .6c2.5.4 5 1 7.4 0 4.4-1.3 8.3-9 13-7 2.1 1 3.7 3 5.6 4.3 4.6 2.9 9.5 4.5 14.7 2.1a11 11 0 0 1 8-.4c6.1 1.6 12.5 1.6 18.7 1.6q7.4.2 14.6-.2c4-.4 6.8-3.6 9.8-6 5.4-4.1 8.2 5 13 6 1.5.4 3.3 0 4.8-.2q4.4-.7 8.1-3" class="b"/><path d="M14.5 217c2.6 0 5.4.2 8-.3 2.2-.5 4.3-2 6.5-1.9 3 0 6 1.3 9 1.6 3.5 0 7-1.4 10.5-1.3q5-.2 9.8.7c2.6.4 5.4 1.8 8 1 4.8-1.1 10.4-10.2 14.7-8.3 2.2 1 3.7 3.3 5.7 4.7 3.6 2.7 8.5 5 13 3 2.2-1 4.7-2.3 7.2-1.2 5.1 2.3 10.8 2.2 16.3 1.8q5.6.2 11.3.2l4.1-.2 4 .2c4 0 6.5-3.4 9-6q2.7-2.9 5.7-.3c2.4 2 4 5.6 7.3 6.3 1.6.2 3.3-.4 4.8-.7l8.2-1.6" class="b"/><path d="M14.5 214.8q2.8-.1 5.6 0c4.6.2 6.5-4.7 11.4-3.7 2.7.3 5.3 2.2 8.1 1.9q2.8-.5 5.7-.8c2.7-.2 5.4.5 8 .9l6.6 1.3c1.8.3 3.8.8 5.7.2 2.5-.7 4.5-2.6 6.5-4.3q2.3-2 4.8-3.5c2.5-1.6 4.7-.5 6.5 1.4 4.2 4.4 11 8.7 17 5.6 3.1-1.7 5-1.5 8.2 0q2.7.9 5.6 1 5 .1 9.8-.4 6.9.5 13.8-.4c1.9-.2 3.8.7 5.6.9 3.8.4 6.3-3 9-5 1.5-1.2 3.5-.9 4.8.3 1.7 1.3 3.1 3.2 5 4.2 2.3 1.3 4.9-.3 7.2-.8q4.1-.6 8.1-.4" class="b"/><path d="M14.5 212.5c3.5 0 6.7 1.2 9.7-1.6 2.6-2.5 5-5.3 9-4.2q2 .6 4 1.7c2.6.8 5.4-.2 8 .5 5 1.2 9.5 4 14.7 3.9 5.2.3 8.8-3.8 13-6.2 6-2.9 8.3.6 13 3.6q4.5 2.4 9.7 2.6c2.5 0 4.9-1.1 7.3-1.5 2-.2 3.8.5 5.7 1l4 .4q5.7.1 11.4-.8 2.8-.1 5.7-.2a49 49 0 0 0 6.5-.9c3.2-1 5.8 1.8 8.9 2a9 9 0 0 0 4-1c2-1 4.2-2.6 6.6-1.8 1.9.7 3.6 2.1 5.6 2.7 1.7.3 3.4-.6 4.9-1.3q2.7-1.2 5.7-1.1 2.9.5 5.7 1.1" class="b"/><path d="M14.5 210.2c2.6.1 5.6 1 8-.4 3.2-1.7 4.9-5.4 8.2-6.8 2.8-1.3 4.7 0 7.3 1q2.4.5 4.8 1.1c4 1.5 7.2 4.7 11.4 5.4 3.4.6 6.8-1 9.7-2.7 2.3-1.4 4.6-3.4 7.3-3.7 4.7-.4 8.2 3.3 12.2 5q3.1 1 6.5 1.3 4 .5 8.1 0 2.4-.4 4.9-.4 2.8.2 5.7.5 5.7.4 11.3-.3 2.4-.7 4.9-1 3.2-.3 6.5-.4c4.6-.6 6-2.5 10.5.5 4.4 2.7 7.8.4 12.2.4 1.9 0 3.8.9 5.7 1 2.1 0 4-1.6 5.7-2.6a9 9 0 0 1 6.5-.9c1.9.6 3.7 1.7 5.6 2.3" class="b"/><path d="M14.5 207.8c8.2 1.8 9.6.1 15.4-5.3 3.5-2.9 4.8-2.6 8.9-1.3 3.8.8 6.5 4 9.7 6 2.2 1.3 5 1.7 7.3.7q2.6-1.4 5-3.2l3.2-2.1c2.7-2 5-3.2 8-.9 2.8 1.9 5.2 4.4 8.2 5.8 2.5 1 5.4.9 8 1q5.8 0 11.4-.3 6.6.3 13 .3c3.3 0 6.7 0 9.8-1.1 2.5-1.1 5.4-.8 8-.8q3 0 5.8-.9c3.5-.7 6.2 2.7 9.7 2.7 2.4.2 4.9-.1 7.3-.1 1.9 0 3.8.4 5.7 0 2.5-.5 4.3-2.7 6.5-3.9 1.4-.8 3.3-.6 4.8-.2 2.6.4 4.9 2.2 7.3 3" class="b"/><path d="M14.5 205.2c3.8 1 8.3 1.9 12.1.1 2.3-1.2 4.3-3.2 6.5-4.5 2.5-1.5 5.7-.8 8.1.5 3.5 2 6.8 6.3 11.4 4.7 4.1-1.3 6.5-5.6 10.5-7.3 2.7-1.5 4.8-2.6 7.3-.2 3.3 3.2 6.2 8 11.4 7.8h13.8c5.6-.2 11.3.1 17 0q3.7.2 7.3-.2 2.2-.4 4-1.2c2.5-.5 5 .1 7.4.2 1.9.2 3.8-.6 5.7-.7s3.8.9 5.6 1.4q2.4.6 5 .5h5.6c2.2 0 4.5.1 6.5-.9s3.6-2.9 5.7-3.6c1.6-.6 3.3 0 4.8.5 2.5.6 4.9 1.8 7.3 2.4" class="b"/><path d="M14.5 202.7c4.2.9 8.6 2 13 1.3 2.5-.6 4.8-2.2 7.2-3 3.4-1 6.8.2 9.8 2 7.6 4.5 12-4.9 18.6-6.4 1.5-.5 3.3-1.3 4.9-.7 4.3 2 6.1 8 11.4 8.3h8.9l10.5-.2q7.4.3 14.6-.3c3 0 6 1 9 .2 4.2-1.2 8.7.5 13-.5 2.1-.4 4.3.1 6.4.5q3 .5 5.7.3c3.3-.2 6.6.2 9.8-.1 2-.3 4-1.6 5.6-2.7 2.5-1.7 4.7-1.1 7.4-.2q3.5.9 7.3 1.2" class="b"/><path d="M14.5 200.3c4.3.1 8.6 1.5 13 1.8 3.7 0 7.5-1.4 11.3-1.2q3.3.1 6.5 1c2.5.6 5.1-.4 7.3-1.7 2.4-1.3 4.8-3 7.3-4q2.8-1 5.7-1.3 2.4.2 4 1.8c1.8 1.6 3.4 3.8 5.7 4.8s4.9.3 7.3.3q6 .3 12.2-.1 4.8-.3 9.7-.1 3.7-.2 7.3-.6c3-.4 6 .7 9 1H132q4-.3 8.1 0c2.4.2 5-.1 7.3-.1q3.7-.1 7.3.2c3.2.2 6-1.6 9-2.4 2.1-.5 4.3.4 6.4.8q3.7.5 7.3 0" class="b"/><path d="M14.5 198.5q4.4-.9 8.9.3 4 1 8 1.1l9.8-.1c2.4 0 5 .4 7.3-.2q2.1-.7 4-1.7l5.8-2.4q3-1.4 6.5-1.8c1.9-.1 3.5 1.2 4.8 2.5 1.2 1.1 2.6 2.5 4 3.2 3 1.1 6 0 9 .1q3.7.3 7.3.1c3.8-.2 7.6-.7 11.4-.7 3.8.2 7.6-.6 11.3-.7 2.8.2 5.5 1 8.2 1.3 4.2.5 8.6.3 13 .4h7.2q3.3-.3 6.5-.6c3-.2 6 .9 9 .5q2.4-.7 4.8-1.3c2.7-.6 5.5.3 8.1.6q4.1.2 8.1-.3" class="b"/><path d="M14.5 197c8-2.8 8.7 0 16.2.3l7.3.2q4.9.4 9.7 0 2.5-.6 4.9-1.6 3.7-1 7.3-2.2c1.8-.6 3.7-1.7 5.7-1.4 3 .7 4.6 3.8 7.3 5 2.3.9 4.9.2 7.3.2 3.2-.1 6.5.2 9.7 0q10.5-.8 21.1-1.7c2.4 0 4.9.9 7.3 1q5.2.6 10.6.8 6.8.4 13.7-.2c2.2-.1 4.4-.6 6.5-.5s3.8.7 5.7.8c2.8.1 5.4-1.4 8.1-1q3 .2 5.7.6l9-.1" class="b"/><path d="M14.5 195.4q2.4-.7 4.8-1.8c2.7-1 5.5-.2 8.1.3 4.3.5 8.8 0 13 1q3.7.8 7.3.3c1.6-.2 3.3-.8 4.9-1 3.6-.5 7.2-1 10.5-2.7 4.3-2 6.8 3 10.6 4 2 .3 4.3 0 6.5.1h8q5.8-.3 11.4-.7c3.5-.4 7-1.2 10.6-1.5 2.7-.2 5.4 1.3 8.1 1.3q2.8.1 5.7.1 3.7.6 7.3.8 6 0 12.1-.4c2.5-.1 5-1 7.3-.6 1.6.3 3.3 1 5 1 1.8.1 3.7-.6 5.6-.6l7.3.2q4.5-.2 9 .2" class="b"/><path d="M14.5 193.2c3.7-.7 6.5-4.5 10.5-4.1q6.1.8 12.2 2 2.4.6 4.8 1.4 4.5.9 9-.2c2.9-.5 6 0 8.9-.7 2.4-.3 4.8-2 7.3-1.5 2.8.7 5.1 3 8.1 3.1q4.8.3 9.8.2 4.5.2 8.9 0 5 0 9.7-1.6c2.8-.8 6-2.6 9-1.5 2.3 1 4.7 2 7.2 2q4.5.1 9 .8 4 .5 8 0 3.8 0 7.4-.7c1.6-.2 3.2-.8 4.9-1 2.5-.4 4.9 1.2 7.3 1.8 2.9.6 6 0 8.9 0l6.5-.2q2.8.1 5.7.4" class="b"/><path d="M14.5 190.8c4-1.1 6.3-5.6 10.5-6.4 3.2-.6 6.1 1.3 9 2.5q2.7 1.1 5.6 1.9 4.6 2 9.7 1.7c3.8-.6 7.7-.3 11.4-.7 5.3-.9 6-1.3 11.4.4 4.7 1.1 9.7.4 14.6.4 3.2 0 6.5 1 9.7.6q3-.2 5.7-1.3c3.1-1.2 6.2-4.1 9.7-3.2 1.7.6 3.3 1.7 5 2.3q3 1 6.4 1.2 8.5 1.6 17 0 3-.6 5.7-1.7c2.3-1 5-2 7.3-.7q2 1.2 4 2.3 2.4 1 5 1.2c3 .2 6-.4 8.9-.5q3.2.2 6.5.5" class="b"/><path d="M14.5 187.9c4.8-1.9 9.6-9.7 15.4-6.2 2 1.3 4 3.1 6.5 3.9q2 .4 4 1c4.8 1.7 8 2.4 13 1.6 3.5-.5 7-.2 10.6-.5 3 0 6 .5 8.9.6 4.9.2 9.7-.5 14.6-.9 2.5.2 4.8 1.8 7.3 1.8q3.4-.1 6.5-1.6c2.1-1 4.2-2.6 6.5-3.4 2.5-.8 5 .5 7.3 1.6q2.7 1.3 5.6 1.9 6.5 1.5 13 .8 3-.1 5.7-.8 2.6-1 4.9-2.4c2.6-1.6 6-4 9-2 4.4 3.4 7.5 6.7 13.7 5.8 3.5-.6 7 0 10.5.1" class="b"/><path d="M14.5 184.6q3-2 6.4-3.4 2.8-1 5.7-1.6c2.2-.5 4 1.4 5.7 2.5q2.5 2 5.7 2.3 2 0 4 .6c4.8 1.9 8 2.2 13 1 3.2-.6 6.5-.1 9.8 0q3.5.6 7.3.5l9.7-1c2.1-.1 4.3-1 6.5-.8 2.7.7 5.1 3.2 8.1 2q2.5-.8 4.9-2c2.6-1.5 5.7-3.1 8.9-2.2 3.8 1.1 7.5 2.6 11.4 3.4 3 1 6.5 1 9.7.5 8-1.2 8.3-.8 14.6-6.4 4.3-3.2 6.5-1.7 9.7 2 2.7 2.9 6.4 5.5 10.6 5 3.8-.4 7.6 0 11.4 0" class="b"/><path d="M14.5 181.4a15 15 0 0 1 8.9-1.6c1.6.2 3.3-.4 4.9-.2 3 1 5.5 3.5 8.9 3.5h3.2q2.5.6 4.9 1.2c3.8 1 7.6.3 11.4-.5 4.3-.5 8.6.7 13 .7 2.4.1 4.8-.5 7.2-.8 2.7-.3 5.5-.3 8.1-.8 5.4-1.7 6.7 3.5 11.4 1.5 2.6-1.2 5.3-2.8 8.1-3.5 2.2-.5 4.5.3 6.5 1q3.7 1 7.3 1.6 2.8.6 5.7 1.1 2.4.3 4.9 0t4.8-1q2-.4 4-.9c3.8-1 6.1-4.4 9-6.7 7-5.3 8.4 9.2 17.9 9q2.8-.2 5.6-.2 3.8.2 7.4 0" class="b"/><path d="M14.5 179c2.8-1.3 6-.2 8.9.3 1.8.4 3.8 0 5.7.5 2.6.8 5.3 2 8 2 3 0 6 .7 9 1l7.3-.1q2.8-.6 5.7-.8c3.7-.2 7.6.5 11.3.3 2.2-.1 4.4-1 6.5-1.1q3.3-.1 6.5-.2l4-.3c2.1 0 3.8 1.5 5.8 2 2.5.7 4.9-1.2 7.3-2 4-1.7 6.5-1.2 10.5.3q4.5 1 9 1.4c4.2.6 8.8 1 13-.6 2.2-1 5-1 7.2-2.2 3.1-1.5 5.1-4.8 8.1-6.4 5-1.8 7.1 8.1 13 9.4 2.4.5 5 .2 7.3.2 3 0 6 .3 9-.2" class="b"/><path d="M14.5 176.8c3-.3 6 1.3 8.9 1.8q2.8.5 5.7.6 3.6.6 7.3 1t7.3.4c1.8 0 3.8-.4 5.6-.4q2 .1 4.1.4c2.4.2 4.9-.5 7.3-.7 3-.2 6 0 9-.3 2.1-.2 4.3-1 6.4-1.4s4.4.2 6.5.3q2.4 0 4.9-.3c2.8.2 5.2 2.7 8 2.4 4.1-.6 8.1-2.7 12.3-1.7q2.3.7 4.8 1 6.5.9 13 .6 2.5.2 4.9 0c1.6-.1 3.3-.9 4.8-1.4 6.4-.9 7.6-2.4 12.2-6.5 4.4-3 7.3 4.7 10.6 6.6q2.6 1.5 5.6 1.4h6.5q3.8.2 7.3-.5" class="b"/><path d="M14.5 175.3c2.4.3 4.8 1.3 7.2 1.7 3 .6 6 .6 9 .9 3.2.2 6.5.8 9.7.5 2.2-.2 4.4-.9 6.5-1.2q3.8-.3 7.3.9 2.8.7 5.7.2 4.9-.5 9.7-1.2c2.2-.3 4.4-1.3 6.5-1.7 2.4-.2 4.9.6 7.3.7 1.9.1 3.9-.5 5.7 0 1.7.5 3.2 1.5 4.9 2 3.1 1 6.5-.3 9.7-.4 2.2-.2 4.4.3 6.5.6q3.6.3 7.3.2 3.7-.2 7.3-.8 2.4 0 4.9.6c2.4.6 4.9-.4 7.3-.8 3.9-.2 7.2-2.7 9.7-5.5 4.5-5 7.8 3.2 11.4 5.2 1.9 1.1 4.3 1.2 6.5 1.3h6.5q3.3.2 6.4-.7" class="b"/><path d="M14.5 174.2q3.1.9 6.4 1.2 3.3 0 6.5.2 3 0 5.7.4t5.7.2c2.2-.2 4.3-1.3 6.5-1.9q5-1 9.7 1c3.9 1.6 8.2 1.1 12.2.5 3-.5 6-2 9-2.6 1.8-.2 3.7.4 5.6.5 2.1.4 4.4 0 6.5 0 2 .3 3.8 1.4 5.7 2 2.8 1.1 6 .4 8.9.5 2.4 0 4.9.3 7.3 0q5.8-.1 11.4-1.4c2.4-.9 4.8-1.4 7.3-.1 1.5.7 3.1 1.6 4.8 1.6q3.4 0 6.5-.9c2.7-1 4.7-3.5 6.5-5.6 4.4-5.4 7.8 3 11.4 5 2.4 1.3 5.4 1.5 8 1.5q2.6-.1 5-.1c2.1.1 4.4.4 6.4-.6" class="b"/><path d="M14.5 173.2q3.1.6 6.4.3c2 0 3.8-.5 5.7-.5q2.5 0 4.9.2 2.9.7 5.7 1c2.8.2 5.4-1.5 8-2.1 2.4-.5 5-.3 7.4-.2 2.2.3 4.3 1.2 6.5 1.7 4 .7 8.3 1 12.1-.4 2.1-.6 4.2-2 6.5-1.7 1.9 0 3.8.4 5.7.4q2.4-.2 4.9-.2c2.3.2 4.3 1.5 6.5 2.1 2.6.7 5.4.3 8 .4q3 .1 5.8-.5 3.1-1 6.5-1.4 3.3-.5 6.4-1.5c1.5-.6 3.2-1.4 5-1 2.4.5 4.1 2.7 6.4 3.8q2.7 1 5.7.5c3.8-.4 6-4.1 8-6.9 4.4-5.8 7.8 2.8 11.5 4.9 2.8 1.7 6.4 2.5 9.7 2q2-.6 4-.4c1.9.4 4 .9 5.7-.1" class="b"/><path d="M14.5 171.6q3.6.3 7.2-.2c3-.7 6-1.5 9-1.2 2.5.2 4.8 1.4 7.3 1.8 2.4.4 5-.4 7.3-1q3.1-.6 6.5-1.1c3.8-.7 7.6.6 11.3 1.2 3.2 1 6.6 1.5 9.8.2q2-1 4-1.4 2.9-.4 5.7-.3c2.1 0 4.4-.4 6.5 0 2 .6 3.8 1.6 5.7 2q4 .8 8 .3c3-.1 5.6-1.9 8.2-3 3.5-.9 7.2-1 10.5-2.5 5.2-2.5 7 0 10.6 3.3 2.4 2 7 3.4 9.7 1.3 2.4-1.9 3.6-5 5.7-7 3.7-3.4 7 3.9 9.8 5.7a15 15 0 0 0 6.4 2.3c2.5.4 5-.7 7.4-.7 2.1.1 4.3 1.3 6.4.4" class="b"/><path d="M14.5 169.5q4 .3 8-.5c3-.8 5.9-2.2 9-1.8 2.5.3 4.9 1.4 7.3 2.1q2.8.7 5.7.6c4-.2 7.5-2.5 11.3-3.2q3.8-.1 7.3 1.3c2.4.8 4.8 2 7.3 2 2.6-.1 5-1.5 7.3-2.3 3.1-1 6.5-1 9.8-.8 3.2.8 6.2 2.8 9.7 2.8 7 .4 8.4-2.9 13.8-5.1q2.4-.3 4.9-.4c2.8-.3 5.3-1.8 8-2.3 4.6-.8 7.2 4 10.6 6 2.2 1.2 5 3 7.3 1.2 2.6-1.8 4-7 7.3-7.3 1.3.2 2.4 1.2 3.3 2 1.5 1.5 3 3.3 4.8 4.4q3.9 1.8 8.2 1.7c1.8 0 3.8-.7 5.6-.7 2.2 0 4.4 1 6.5.7" class="b"/><path d="M14.5 167.3c12.1 1 10.6-4.8 19.4-2.8 3.8.9 7.5 2.4 11.4 3.2 3 .6 5.6-1.1 8-2.5 5.5-3.6 11 1.6 16.3 2.5 5 .7 8.7-4.6 13.8-3.8q2 .2 4 .7 2.1.8 4.1 1.7 4.4 1.8 9 .5c2-.8 3.9-2.4 5.6-3.7 1.6-1.2 3.7-2.4 5.7-2.1 6.5 1.5 7.7-1.8 13-1.7 4.3.3 7 4.4 10.6 6.4 2.2 1.3 5 3.3 7.3 1 2.3-2 4.4-7 8-4.5 6 4.4 6.8 5.6 14.7 5.6 2.1 0 4.3-.6 6.5-.7q2.8.2 5.6.6" class="b"/><path d="M14.5 165c3.5.2 7.5.3 10.5-2 1.7-1.2 3.6-2.3 5.7-2.2 3.5.4 7 1.4 10.5 2.2 2.6.5 4.7 2.6 7.3 2.6 3.6-.4 6-4.2 9.8-3.8 4.8.7 9.7 5.6 14.6 3.1 2.2-1.1 4.1-3 6.5-3.8 1.9-.6 3.9.1 5.6.8q3 1 5.7 2.3c2.8 1 6.1 1.3 9 .3 2.5-1.1 4.2-3.6 6.4-5.3q2.2-1.6 5-1.3 1.5.6 3.2 1c2.2.5 4.4-.3 6.5-1.1 4.1-1.6 8.2 1.4 11.3 3.8q2.6 2 5.7 3.3c5 2.7 6.4-3 10.6-3.6 2.6 0 4.9 1.8 7.3 2.7q3.9 1.5 8 1.6c4.7.4 9.3-1.9 13.9-.6" class="b"/><path d="M14.5 162.7c11.8 1 10-7.3 17-5.2q3.1 1.3 6.5 1.9 2.4.4 4.8 1c2.5 1 4.6 3.6 7.3 3s4.7-2.9 7.3-3.2c4.8-.3 9 5 13.8 2.7 2-1 3.7-2.9 5.7-4 2.5-1.4 5.2.1 7.3 1.4 1.8 1 3.8 1.4 5.7 2.2 3.3 1 7.4 1.2 10.5-.5 3.5-2.2 5.7-7.8 10.6-6.8 1.3.4 2.7 1.1 4 1.3 2 .4 4-.3 5.7-1 5.5-1.5 9.3 4.3 13.8 6.3 2.8 1.2 6.1 2.6 9 .8 2.2-1.4 4.5-2.8 7.3-2.1 5 .9 10 3.5 15.4 3 3.7-.7 7.6-2.8 11.3-1.4" class="b"/><path d="M14.5 160.5c10.1.7 9.6-7.3 14.6-7.1 1.7.4 3.3 1.7 4.8 2.5q2 1 4 1.3c2 .4 4 .4 5.8 1.4 1.6.8 3 2.1 4.8 2.6 2.3.6 4.5-.8 6.5-1.7 3.9-2.1 7.7.8 11.4 1.7s6-2.9 9-4.6c3.5-2.2 6.6 1.7 9.7 3 4.6 1.6 9.8 2.2 14.6.8 2.1-1 3.8-2.8 5.6-4.2 3.2-2.6 5.3-2 9-1.7 2.2 0 4.3-1 6.5-1.4 4.7-.7 8.2 4.5 12.1 6.5 3.2 1.6 7.2 2.4 10.6 1 6.2-3.3 9.9-2 16.2 0q3.2 1.2 6.5.3c1.4-.4 2.7-1.3 4-1.8 2.5-.6 5.1-1 7.4.3" class="b"/><path d="M14.5 158c6.8.5 7.8-2.7 12.1-6.7 2.7-1.5 5 1.8 7.3 2.8q2 1 4 1.2 2.2.1 4.1.7c1.7.7 3.3 2 5 2.7 5 2 8-3 14.5-.5 3.5 1.2 5.9 1.7 9-.8 1.4-1.2 3-2.7 4.8-3.1 3.7-.7 6.5 2.8 9.8 3.8q2.3.7 4.8.9c3.5.2 7.2.2 10.6-1 1.9-.7 3.8-1.8 5.7-2.5 2.8-1.2 6.1-1 8.9-2.5 2-1 4.2-2.4 6.5-2 4 1.5 6.8 4.9 10.5 6.7 3.8 2 8.3 1.8 12.2.4 6.3-2.4 8.5-1.5 14.6.6 2 .6 4.5.8 6.5-.1l4-2c2.7-1 5.7-.2 8.2 1" class="b"/><path d="M14.5 155.4c6.6.7 7.3-1.5 12.1-4.7 1.4-.5 2.9.1 4 .8q2 1.1 4.1 1.8c4.8.6 5.3-.6 9.8 2.5 3.5 2.5 6.7.5 10.5.3 2.2-.2 4.4.4 6.5.8 6.3 1.3 7.8-3.5 13-3.8 4.6.1 8.5 3 13 3.5a45 45 0 0 0 17-1.2c3-.7 6.3-.8 9-2.5q2-1.5 4-2.8c3.1-1.8 5.6 1 8.1 2.6a36 36 0 0 0 9 4.1c4.9 1 9.8-1.2 14.6-2 2.2-.3 4.4.5 6.5 1.3 7 2.9 9.4-1.4 15.4-1.4 2.2.1 4.4 1 6.5 1.8" class="b"/><path d="M14.5 153c3 .4 6 .7 8.9-.5 1.3-.5 2.6-1.3 4-1.4 2.2 0 4.4 1 6.5 1.2s3.8-.4 5.7-.3c1.8.2 3.3 1.4 4.9 2.2 2.1 1.2 4.2.6 6.5.1q2.4-.3 4.8 0c4.9.9 7.8 1.1 12.2-1.4a9 9 0 0 1 4.9-1.1l9.7 1.8q4 .8 8.1 1.2 9 .3 17.9-1.3 2.7-.6 4.8-2c1.6-1.1 3-2.7 5-3.1 1.8-.4 3.4 1 4.8 2a16 16 0 0 0 3.2 1.8c3 1 6 2.2 9 2.7q3.2 0 6.5-.7l6.5-1.2c4-.8 7.4 2.5 11.3 1.8q2.9-.7 5.7-1.3 2.4-.4 4.9 0c2.4.2 4.8 1.2 7.3 1.4" class="b"/><path d="M14.5 151.6c3.2.3 6.5.8 9.7 0 3-.8 6-.2 9-.1 2.4.1 4.8-1 7.2-.6 1.7.4 3.2 1.3 4.9 1.7 2.4.6 4.8-.9 7.3-.7 3 .1 6 1.2 9 .8 3.3-.3 6.2-3 9.7-2.6 2.1.2 4.3 1.1 6.4 1.3q6.2.5 12.2 1.3c6.8.1 13.8.5 20.3-1.9 3.2-.7 5.5-4.2 9-3.5 2 .5 3.6 2.3 5.6 3q4.8 1.6 9.8 2.4c2.4.3 4.9-.4 7.3-.8l6.5-.8c2.4-.3 5 .6 7.3 1.3q2.4.8 4.8 0 2.4-.7 4.9-1 2.4 0 4.9.5c2.4.3 4.8 1 7.3.9" class="b"/><path d="M14.5 150.5q5.6.3 11.3-.3 3.7-.1 7.3 0c4.9-.5 5.5-1.7 10.6.1 2.5 1 4.8-.3 7.3-.5 3-.2 6 .6 8.9.8 3.4.4 6.4-1.5 9.7-1.8 2.5-.2 5 .7 7.3 1 5.4.4 10.8 1 16.3.8 4.3-.1 8.7.5 13-.5l6.4-2.4c1.8-.7 3.8-1.6 5.7-1.3 2.3.4 4.3 1.9 6.5 2.4l5.7 1q2.3.8 4.8.9c2.2-.1 4.4-.8 6.5-1.2q2.4-.4 5-.5c4.3-.6 8.5 2.3 12.9 1.5 2.4-.6 4.8-1.2 7.3-1 3.5.4 7 1.5 10.5 1" class="b"/><path d="M14.5 148.4c3.4-.3 7 .2 10.5 0l8.1-.1c1.9 0 3.8-.6 5.7-.6 2.2 0 4.3 1 6.5.8 1.9-.1 3.7-1.1 5.7-1.1q3.2-.1 6.5.4 2.8.5 5.6.7c2.2 0 4.4-.8 6.5-1 3.8-.2 7.6.5 11.4.8q6.5.3 13 .2 5.7.2 11.3-.2c2-.2 3.8-1 5.7-1.6 2.4-.6 4.9-1.2 7.3-.8l4 .8 5 .5c3.4.5 7 2 10.5 1q2.4-.9 4.8-1.5a18 18 0 0 1 5.7 0c2.7.6 5.4 1.7 8.1 1.8 3.3.2 6.5-1.2 9.8-1 3.8 0 7.5 1.4 11.3 1" class="b"/><path d="M14.5 145.2c3-.5 5.9 1 8.9 1.2q4.9-.2 9.7-.1c2.7 0 5.5-.5 8.1 0 2.9.5 5.5-.7 8.1-1.5q2-.2 4.1 0 3.2-.4 6.5.4c2 .6 4.3 1.5 6.5 1.1q4.5-.6 9-.5c2 0 4.3.5 6.4.5q6.9.1 13.8 0c4 0 8.1.3 12.2-.2q3.1-.6 6.5-.9l7.3.2c2 0 4.3-.4 6.4 0 2.4.3 4.9 1.2 7.3 1 2.6-.2 4.9-1.6 7.3-2.1q3.4-.6 6.5.7 3.6 1.5 7.3 1.4c3.6-.2 7-1.3 10.6-1.3 3.5.1 7 1.5 10.5 1.2" class="b"/><path d="M14.5 142.1c2.8-.5 5.3 1.7 8 2 2 .3 3.9-.2 5.7-.1q5.7.1 11.4.2c3.4.4 6-1 9-2.2 1.2-.5 2.7-.3 4-.4 3-.3 6.2-.4 9 1q2.1 1.5 4.8 1.6c3.2 0 6.5-.5 9.7-.4q2.4.3 4.9.4h6.5c2.4.2 4.9-.4 7.3-.4q8.5.8 17 .3l9-.1c2.1-.1 4.3-.6 6.4-.6 2.7.1 5.4 1 8.2.8 2.2 0 4.3-1 6.4-1.5a15 15 0 0 1 5.7 0l4 1.3c5.3.8 10.4-1.2 15.5-1.4 3.6 0 7 1.8 10.6 1.6" class="b"/><path d="M14.5 140.4c2.8-.5 5.3 1.5 8 1.7 2 .1 3.9-.6 5.7-.6q5.7.5 11.4.6c3.9.3 6.4-2.5 9.7-3.9q1.6-.3 3.3-.3 4.8-.5 9 2.2c1.1.7 2.5 1.6 4 1.8 3.2.5 6.5-.1 9.7-.1 3 0 6 .4 9 .3q3.7.1 7.3-.4c3.2-.6 6.5.3 9.7.4 6.2-.3 12.4 0 18.6 0 3 .1 6-.6 9-.5 2.4.1 4.9.6 7.3.5q3.2-.2 6.5-.6h4.8q2.4.5 5 .6 4-.2 8-1c2.7-.5 5.4-1 8.1-.7 3 .4 5.9 1.8 9 1.7" class="b"/><path d="M14.5 139.3c3.2 0 6.5 1.2 9.7.4q2-.6 4-1c2.8-.2 5.5.7 8.2 1 2.1.3 4.5.5 6.5-.6 4.3-2.4 5.6-6.1 11.3-5.7 4 .3 6.5 3.8 9.7 5.6 3 1.5 6.6.7 9.8.8q6 .1 12.2.1c2.7.2 5.4-.5 8-.6 2.2 0 4.4.5 6.6.6q3.2 0 6.4-.4 6.6 0 13 .3 2.4.2 4.9 0c1.9-.1 3.8-.6 5.7-.6 2.7 0 5.4.5 8 .6q4.2.2 8.2.1 6.5.1 13-1c2.6-.3 5.4-.9 8-.7 3.4 0 6.5 1.9 9.8 1.7" class="b"/><path d="M14.5 137.7c2.9.1 6 .3 8.9-.3 2.5-.5 4.7-2.2 7.3-2.1 2.6 0 4.9 1.5 7.3 2.2q3.2.8 5.7-1.3c3.4-2.8 6.8-9.6 12.1-6.8 3.5 2.3 5.6 6.6 9.8 8 2.3.7 4.9.3 7.3.4h15.4c2.1 0 4.3-.7 6.5-.7 2.7.1 5.4.8 8 .7 3.9-.2 7.7-.8 11.4-.7 3 0 6 .8 9 .7 2.8 0 5.4-1.3 8-1.7 2.2-.3 4.5.1 6.6.3l9 1.2c4.5.4 9.1-.5 13.7-.9 2.7-.4 5.4-1 8.1-.8 3 .1 5.8 1.9 9 1.8" class="b"/><path d="M14.5 135.7c3.5-.1 7.1-.2 10.5-1.3q2-1 4-2c3.5-1.9 6.2.9 9 2.6 2.5 1.5 4.8.2 6.5-1.8 3-3.2 7.2-12.3 12.1-6.7 7.4 9.6 7.4 9.5 19.5 9q3.7-.2 7.3-.2 3.3.1 6.5.4c2.7-.2 5.4-1 8.1-.5 5.1.8 10.3.4 15.4 0 3 0 6 .7 9 .4 4.4.1 7.7-4 12.1-3.6q4.3 0 8.1 1.6c1.6.5 3.3 1.3 5 1.6q2 .4 4 .2 4.8-.2 9.7-.8c2.4-.5 4.9-1.3 7.3-1.5 3.2-.1 5.8 2.2 9 2.2" class="b"/><path d="M14.5 133.5q5.3-.1 10.5-1.4c1.7-.6 3.3-1.8 4.9-2.5 3.1-1.7 5.7 1.3 8 3 2.7 1.8 4.9.5 6.6-1.6 3.6-4.3 7.6-14 13-5.5 1.8 2.5 3.5 5.6 6.4 7 4.8 2 11.3.5 16.3 0q3.2-.2 6.5.3c1.5.2 3.2.8 4.8.7 2-.2 3.8-.9 5.7-.8q4.5.4 9 .6c6.1 0 12.6.9 18.6-.8 3.5-1.4 6.5-4.7 10.6-4 4.5-.4 8 3 12.1 4.4q2.5.5 4.9.3 2.5 0 4.9-.4 2 .1 4-.4c2.5-.6 4.8-2 7.3-2.5 1.7-.3 3.5.5 4.9 1.4q2 1 4 1.3" class="b"/><path d="M14.5 131.2c3.7-.3 7.6-.3 11.3-1 5-1.6 6.4-3 11.4.1q3.5 2.4 6.5-.8c4.4-5 7.6-14 13.8-4.8 1.7 2.4 3.5 5.2 6.4 6.1 4.8 1.2 10 .4 14.7-.8q3.6-1.1 7.3-.3c4.5 1 4.5 2.6 9.7 1 2-.5 4.4-.1 6.5-.2 3.2-.2 6.5-.5 9.7.3 4.6.7 9.5.3 13.8-1.3 2.1-1 4.2-2.2 6.5-2.6q3.2-.5 6.5-.1c9 2.7 6.4 5.3 17.8 3.8q2.5-.1 5-.7c3-1 6.2-4.2 9.6-3.3 2.3.9 4.2 2.7 6.5 3.2" class="b"/><path d="M14.5 128.6c3.7-.6 7.5 0 11.3 0 5.5-.6 7.4-1.6 13 .4 2.3.8 4.3-.6 5.7-2.3 3.4-4.2 5.8-9.6 11.3-4 2.3 2.2 4.2 5.2 7.3 6.1 2.1.6 4.4.4 6.5.4q5.1 0 9.8-2.6c2.2-1.1 5-1 7.3 0 2 .8 4 2.7 6.4 2.7q2.1-.2 4.1-.8 2-.2 4-.8c2.2-.6 4.3-1.6 6.6-1.7 1.6-.2 3.3.5 4.8 1.1q2.4 1 4.9 1c4.1.3 8.1-1 12.2-1.8l5.6-.4q2.4-.5 5-.2 3.2.8 6.4 2.3c3.4 1.2 7 .7 10.6.3q3-.1 5.6-1.5c2.9-1.1 5.7-3.7 9-2.9 2 .7 3.7 2 5.7 2.7" class="b"/><path d="M14.5 125.4c3.5-.9 7 .5 10.5 1.1 3.2.3 6.5 0 9.7 0 2.2 0 4.4.8 6.5.5s3.6-2.1 4.9-3.6c1.1-1.2 2.3-2.9 4-3.2 3.3.2 5.7 2.7 8.2 4.4 3 2.5 6 2.6 9.7 2.5 4.5.3 7.9-1.1 11.4-3.9q3.5-2.5 7.3 0c2.1 1.2 4 3.3 6.5 3.8 2.4.4 5-.4 7.3-1.5q2.4-1.7 4.8-3.2c4.8-2.8 7.7 2.1 12.2 2.8 3.2.5 6.5-.3 9.7-.1q3.7.2 7.3 0c1.6 0 3.3-.5 5-.5 3 0 5.9 1 8.8 1.7q5.3.9 10.6 0c4.2-.7 8-3.2 12.2-4.1q3.4-.4 6.5 1.1" class="b"/><path d="M14.5 122.2c5-1.8 8.1 1.9 13 2.2q4.7.4 9.7.3c4.1.4 5.6.6 8.9-2.4s4.4-2.3 8.1-.6c4.2 2.2 7.4 3.6 12.2 3.2q2.5.1 4.8 0c3-.7 5.4-2.5 7.3-4.6 7-7.7 10.4 5.6 17.9 4.6 3.5-.3 5.7-3.4 8.1-5.6 1.5-1.4 3.7-2.1 5.7-1.2 2.4 1.2 4.5 3.3 7.3 3.8 2.4.6 5 0 7.3.5q4 1 8.1 1.3 2.4 0 4.9-.4 2.8 0 5.6.4c4 .5 8.2 1.1 12.2 1q3.8-.2 7.3-1.1a50 50 0 0 0 7.3-2.2c2.3-.8 4.8-2 7.3-1.2" class="b"/><path d="M14.5 120c5-2.2 6.7-.7 11.3 1.1q5.6 1.6 11.4 1.5 2.4.2 4.8.2c4.4-.5 5.8-4.1 10.6-2 4 1.3 8 2.3 12.2 2 2-.2 4.4.3 6.5-.3a17 17 0 0 0 4.8-3.3c1.6-1.6 3-3.8 4.9-5.1 2-1.4 4.1.3 5.7 1.6 3.5 3.1 7.6 9.9 13 6 3.9-3.1 6.3-10 12.1-5.6 2.1 1.6 4.7 2.8 7.3 2.8q2.5-.1 4.9.5c2.6 1 5.3 2.2 8.1 2.5q2.4.3 4.9.2 2.8 0 5.7.4 6.4.3 13 .3 5.2-.3 10.5-1.3 3-.6 5.7-1.9c1.7-.9 3.6-2 5.6-1.6" class="b"/><path d="M14.5 118.4c2-1 4.2-2 6.4-1.8 2 .2 3.8 1.2 5.7 1.7 2.4.7 4.8 2 7.3 2.1q4.5.3 9 .2c3-.3 5.9-1.3 8.9-.6q8.4.9 17 .6a8 8 0 0 0 4.9-2.5q3-2.9 5.7-6.2c2.8-3.1 5.3-1.8 8 .6 2.7 2.6 4.4 6.9 8.2 8 4.7.9 6.9-4.7 9.7-7.4q3.2-3.2 6.5-.2 2.5 2.1 5.7 2.6c1.6.2 3.3.1 4.9.6 2 .7 3.8 1.9 5.6 2.7q3.1 1.4 6.5 1.5 6.9.4 13.8.4 8.6.2 17-.7a36 36 0 0 0 6.6-1.5c1.8-.8 3.6-2 5.6-2.1" class="b"/><path d="M14.5 116.8c4.8-2.3 7-2.4 12.1-.9 2.5.7 4.8 2.1 7.3 2.4 6.5.5 13 0 19.5.2H63c2.2 0 4.4.2 6.5-.4q2.4-.8 4-2.6 2.9-2.6 5.8-5.3a6 6 0 0 1 6.4-.8c4.4 1.3 5.4 8.8 10.6 9.1 4.8-.1 6.8-5.4 9.7-8.4 1.4-1.5 3.2-2.3 5-.8 1.7 1.7 3.9 3.3 6.4 3.7q2.5.3 4.9 1.1c2.3 1.3 4.7 2.8 7.3 3.6 4.2 1.1 8.6.9 13 .7q4-.1 8 .1 5.4.1 10.6-.4 5.2-.1 10.6-1c1.9-.5 3.8-1.5 5.6-2" class="b"/><path d="M14.5 115.5c2-.6 4.2-1.5 6.4-1.7q4.2-.4 8.1 1 5.2 1.8 10.6 1.6l13.8-.1h9q3.1.2 6.4-.2c4.4-.9 7.2-5 11.4-6.3q2.8-.7 5.6-.3c1.3-.2 2.5.6 3.3 1.5q1.5 2 3.3 3.7c2.1 2.3 5.6 2 8 .3s4-4.4 5.7-6.6c1.2-1.5 3.2-3.2 5-1.3s3.9 3.7 6.4 4.4q2.5.6 4.9 1.7c6.8 4.2 12 3.3 19.4 2.6 3-.2 6 .5 9 .6 3.2 0 6.5-.8 9.7-1q4 0 8.1-.4l4-.1q2.6-.4 5-1.1" class="b"/><path d="M14.5 114.1c6.4-1.2 10.3-2.8 17-.8 6.1 1.2 12.5.8 18.7.6 6.4 0 13 .9 19.4 0 2-.3 4-1.4 5.7-2.3 2.7-1.5 6-1.5 9-1.4q1.2 0 2.4-.2c2.3 0 3.8 2.3 5.6 3.3 2 1.2 4.4 1 6.5.5 6.2-1.4 8.4-13 13-7 2.3 2.6 5.6 4 9 5 2.5 1 5.2 2.3 8 2.4 4.7.5 9.2-1.8 13.8-1.1 3.8.4 7.7 2 11.4.4 1.5-.6 3.2-1.4 4.9-1.6q2.4-.3 4.8 0 2.4-.4 5-.3c1.2 0 2.7.5 4 .6q2.4.3 4.8 0" class="b"/><path d="M14.5 112c4.1.7 8-1.7 12.1-1.7 2.7 0 5.4.8 8.1 1q4.8.4 9.8.5 8.1-.2 16.2.1c3.2 0 6.5.5 9.7 0q2.5-.5 5-1.7c3.8-1.4 8 .1 12-.5 2 .3 3.8 1.7 5.8 2.2q3.7.6 7.3-.8 2.7-1.5 4.8-4c5-5.3 5.3-.7 9.8 1.5q3.1 1.3 6.5 2.2a19 19 0 0 0 11.3.8c7.5-2.3 7-2 14.6.1q3.6 1.1 6.5-1.2 1.6-1.2 3.3-2.2 2.3-1 4.8-.8c1.9.3 3.9-.2 5.7-.2 1.7 0 3.4.8 4.9 1.5q2.3 1 4.9 1.5" class="b"/><path d="M14.5 109.1c4 1.8 6.7.3 10.5-.6q2.8-.2 5.7.1 4.5.3 9 .5 5.2.6 10.5.6 6-.2 12.1-.4c2.5 0 4.9.8 7.3.7 2.6-.1 4.8-1.6 7.3-1.8 2.2-.2 4.4.2 6.5.3 1.6.1 3.3-.3 4.9-.1 1.6.3 3.2 1.1 4.9 1.4q3.7.7 7.3-1.1c2.8-1.3 4.8-4.5 8-5 1.7 0 2.9 1.5 4.1 2.3q2.3 1.5 4.9 2.2c5.6 1.6 9.6 2.5 15.4 1 2.4-.6 4.8-2 7.3-1.6 3.3.6 6.4 2.9 9.8 2.3 4.2-1.4 5.7-7.2 10.5-7.5q1.6-.2 3.3 0 1.6-.4 3.2-.5c4.4-.3 6.9 4.3 10.6 6" class="b"/><path d="M14.5 106c4 2.7 6.1 1.7 10.5 1l11.4-.4q4 0 8 .4h9.8c2.7 0 5.4-.8 8.1-1q2.1.1 4 1c3 1.3 5.3.8 8.2 0 2-.6 4.3-.4 6.5-.4q2 0 4-.2 2-.5 4.1-.2c2.7.6 5.3 2 8.1 1.5 2-.3 4-1.5 5.7-2.6 4.7-3.1 6.1-1.8 10.5.5a32 32 0 0 0 15.4 2q3.8-.4 7.3-1.6 3-1 5.7.2c2.8 1.2 6.3 2.7 9 .5 3.6-3 5.2-8.7 10.5-9.3l3.3-.1c1.8-.4 4-.6 5.6.6 2.8 2 4.6 5.4 7.3 7.5" class="b"/><path d="M14.5 103.6c3 2.2 5.3 2.4 8.9 1.8 2.4-.2 4.9 0 7.3-.3l6.5-.5 4.8-.1q3.7-.5 7.3-.8c1.9-.1 3.9.2 5.7.1q2.5 0 4.9-.9c1.3-.4 2.7-.8 4-.3q2.1 1 4.1 2.3 2.7 1.4 5.7.5 2.4-.4 4.9-.5 2.8-.2 5.6-.9c1.9-.5 3.8-1 5.7-.6 1.7.3 3.3 1.2 4.9 1.8 1.8.7 4 .6 5.7-.2 1.6-.7 3.1-1.8 4.8-2.2 2-.4 4 .3 5.7 1q2.8 1 5.7 1.4 2.8.5 5.7.5 4.5-.5 9-.6 2 0 4-.6c1.3-.3 2.7-.8 4-.6 3.3.3 6.5 3 9.8 1.2 4.7-3 6.6-10.3 13-10.6 1.5.1 3.2-.2 4.8 0 5 .7 6.9 6.2 10.6 9" class="b"/><path d="M14.5 101.7c3 2 6.1 2 9.7 1.8 5.1 0 10.3-.7 15.4-.8 5.3-.5 8.2-4.7 13.8-2.9 2.8.8 5.5-.1 8.1-1.1 4-1.1 6.1 5.4 11.4 4.8 3-.2 6-.2 8.9-1 3.1-1.1 6.3-3.2 9.7-2 2.5.8 4.6 2.9 7.3 3 2.3.2 4.4-1 6.5-1.4 2.2-.3 4.4.5 6.5.9q3.7.5 7.3.5c2.5.1 4.9-.6 7.3-.7q3.7.2 7.3.2c1.6 0 3.3-.6 4.9-.8 2.2-.3 4.4.7 6.5 1.2 2.9.7 5.4-1 7.3-3.1 2-2 4-4.3 6.5-5.5q2-1 4-1 2-.1 4 .4c4.5 1.2 6.9 5.5 10.6 7.7" class="b"/><path d="M14.5 99.6a16 16 0 0 0 8 1.8H30l6.5-.5q3.4 0 6.4-1.6c2.9-1.4 5.5-4.8 9-4q2 .6 4 .7c5.2 0 6.2-4 10.6 1.1 2.1 2.4 4.7 4.5 8 4.3 4.9.1 7.3-.4 11.5-2.8 2.5-1 5.6-1.7 8-.1 7.3 4.6 8 2.2 15.5 2.8 4.8.2 9.9.3 14.6-1 3-.6 6 .4 9 .6 2.6.2 5.3-1 8-.8 2.5.2 4.9 1.5 7.3 1.3 4.2-.7 6.7-4.9 10.6-6.3 3.3-1.7 7.4-1.3 10.5.4 2.8 1.6 5.1 4 8.1 5.2" class="b"/><path d="M14.5 97.6c4.9 1.8 10.2 1.8 15.4 1.6 3.5-.3 7.2 0 10.5-1.3 3.8-1.7 6.3-6 10.6-6.4q4 .2 8-.5c1.4-.2 3-.6 4.1.1 2.5 1.7 4.1 4.5 6.5 6.2q3 2.1 6.5 2 3 .2 5.7-.7c3.1-1.3 6.2-3.2 9.7-3.1 2.4 0 4.4 1.5 6.5 2.3q4.7 1.8 9.8 1.3 5.6-.3 11.3-1.1c2.4-.4 4.8-1.5 7.3-1.2 2.7.2 5.4 1.3 8.1 1.4 3 0 6-1 9-.4 3.8.8 6.8 2.7 10.5.1 1.8-1 3.6-2.4 5.7-3 3.5-1 7.2-.2 10.6 1 2.4 1 4.6 2.6 7.2 3.2" class="b"/><path d="M14.5 95.7c3 .2 5.9 1 8.9 1.3s6 0 9 0c4.2-.1 6.5-.4 9.7-3.5 4.4-4.1 5.9-5.7 12.1-6.6 3.4-.4 7.3.5 9.8 3 2.2 2.3 4.2 5 7.3 6.3s6.5 1.1 9.7.6c2.7-.7 5.3-2 8.1-2.5 3.3-.9 6.6.6 9.8 1.4q4.8.9 9.7.1 4.5-.3 9-1.5c2.3-.6 4.7-1.8 7.2-1.8 3.6.1 7 2 10.6 2.4 3.7.4 7.6-.2 11.3.6 2.7.8 5.3 2.4 8.1 1.2 1.9-.7 3.7-1.7 5.7-1.8q5.3-.1 10.6.8c2.1.4 4.3 1.3 6.5 1.4" class="b"/><path d="M14.5 93.6c3.3-.4 6.5.5 9.7 1.2 2.6.4 5.4 0 8.1 0 4.5 0 6.1-.8 9-4.3 2.2-2.6 4.6-5.7 8-6.8q2.4-.8 5-1.3c2.6 0 4.6 2.4 6.4 4.1 2.8 2.3 5 5.5 8.1 7.2 4.8 2.3 12 1 17 0q3.7-1 7.3-.8c2.5.1 5 .8 7.3.8 2.7-.1 5.5-.8 8.2-1 1.3-.2 2.7 0 4-.3q3-.8 5.7-2.6c3.8-2.4 6.4-2.4 10.5-.8 3.8 1.1 7.5 3.1 11.4 3.7 3 .5 6.1-.7 9 .5 5.6 2.6 5.6 1.6 11.3 1.3h10.6q3.1.3 6.4.5" class="b"/><path d="M14.5 91.6c7.3-1.8 8.1 1.4 14.6 1.2 3.3 0 7.3.3 9.7-2.5 3-3.4 4.8-8 9-10.2q1.5-.6 3.2-1c1.3-.3 2.9-.3 4 .6 2.4 1.8 3.8 4.7 5.7 7a18 18 0 0 0 8.1 5.8c3.5.8 7 0 10.6 0q3.2 0 6.5-.4 3.1-.7 6.5-.8 3.6.1 7.3.3c2.4-.1 4.8-.9 7.3-1h4c3.3 0 5.8-2.5 8.1-4.4 3.4-3.3 6.7-2 10.6-.6q3 1.1 5.7 2.6c2.3 1.7 5.1 3 8 2.5 1.7-.1 3.3-.8 5-.7 3 .4 5.7 2.5 8.9 2.7q4.8.1 9.7.1 5.2.2 10.6-.1" class="b"/><path d="M14.5 89.5c7.2-1.7 6.5-.3 13 1 3.1.3 6.7.5 9.7-1 5.3-3.4 7.9-16.8 16.2-12 3.1 2.6 4.6 6.8 7.3 9.7q3.4 3.2 8.1 3.5c3.3.1 6.5-.8 9.8-.6q3.7.3 7.3.2l6.4-.9q3.7-.2 7.3.2 3.7-.3 7.3-.4c7.1.7 7.8 0 13-4.8 2.9-3 7.2-1.5 10.6-.4q2.5.9 4.8 2.2c2.1 1.5 4.7 2.6 7.3 2.3 2.2-.2 4.3-1.5 6.5-1.4 3.5 0 6.4 2.4 9.8 2.8 2.6.2 5.4 0 8 .2 3.6.2 7.1.5 10.6 0" class="b"/><path d="M14.5 87.2c5-1.2 6.6-.8 11.3.7 4 .9 8.6 1.2 12.2-.9 2.7-2 4.5-5.1 6.5-7.8 2.2-3 4.7-5.5 8-2 7.1 7.9 5.9 12.6 18.7 11 1.9-.1 3.8-.6 5.7-.6 2.4.2 4.9.8 7.3.8 2.5.1 5-.5 7.3-.8q2.9-.3 5.7 0 4 .3 8.1.2c2.4 0 5 .5 7.3.2 3.6-.3 6-3.3 9-5 2.2-1 4.8-.5 7.2-.3q2.5 0 5 .7 2 .9 4 1.9 3.2 1.1 6.5 0c1.8-.6 3.7-1.5 5.6-1.3 3.4.4 6.3 2.9 9.8 3q3.7.4 7.3.5c3.5.4 7 .7 10.5-.1" class="b"/><path d="M14.5 84.8q2.3-.5 4.8-.2 3 .5 5.7 1.3c4.6 1 9.6.7 13.8-1.6 3-1.7 4.9-4.8 7.3-7.1 2.7-2.6 4.5-1.2 6.5 1.2 2.4 2.8 4.3 6.7 8 7.8q3.3.5 6.6 0 3.7-.2 7.3-.8c2.1-.4 4.4.3 6.5.7q3.1.5 6.5.1c2.9-.4 5.9-1 8.9-.7 3.7.6 7.6.4 11.3.5 3.4.3 6.9.3 9.8-1.5 1.5-.9 3.1-2 4.9-2.5 2-.3 4.3 0 6.4-.3 1.6-.1 3.3-.5 5-.3 2.1.3 4.1 1.7 6.4 1.7a15 15 0 0 0 4.9-.8c1.8-.6 3.8-1 5.7-.4 2.2.8 4.2 2.1 6.5 2.8q3.6.9 7.3.8c4.3.3 8.8 1 13-.8" class="b"/><path d="M14.5 82.6c4-.7 8 1.6 12.1 1.6 3 .3 6-.4 9-1.3a19 19 0 0 0 7.2-3.2c1.8-1.2 3.5-3 5.7-3.1 1.8.1 3 1.9 4 3 1.7 1.8 3.4 3.9 5.8 4.5 2.4.5 4.9-.3 7.3-.4q4.9 0 9.7-.6c2.7 0 5.4 1.1 8.1 1.1l4.9-.1q2.8-.6 5.7-.8 2.8.2 5.6.5h5.7c3-.2 6 .4 9-.3 2.8-.6 5.2-2.5 8-3q2.6.2 5 0c2.4 0 4.8-1.4 7.2-1.3q2.1.5 4.1 1 2.8.6 5.7.3c1.6-.2 3.3-.7 4.9-.3 2 .4 3.8 1.6 5.6 2.4 2.8 1.3 6 1.2 9 1.3 4.6 0 9.6 1 13.8-1.6" class="b"/><path d="M14.5 80.8c2.4-.3 4.9.6 7.2 1q3.3.5 6.5.3c2.9-.1 5.5-1.6 8.2-2.3q2.4-.4 4.8-1c2-.5 3.8-1.5 5.7-2 3.5-.5 5.3 3.4 8.1 4.7 2.3 1.3 5 .2 7.3-.4 2-.7 4.4-.4 6.5-.2h5.7c3.3-.2 6.4 1.4 9.7 1.2q3 0 5.7-.3 3.7-1 7.3-.4c4 .7 8.1-.1 12.2 0q2.8.1 5.6-.5 3-1 5.7-2c1.9-.3 3.8.2 5.7.3q3 0 5.7-1c3.2-1.4 6.5.5 9.7 1q3 .4 5.7.2 2.2.3 4 1 2.4 1 5 1.5 4.4.4 8.9.2c4 0 8.4.4 12.1-1.7" class="b"/><path d="M14.5 79.5c2.1-.2 4.3.3 6.4.4q4.1.2 8.1-.3c2.3-.3 4.4-1.3 6.5-2q2.4-.6 5-.5c3.1-.2 6.7-1 9.6.7q2 1.2 4.1 2c3.4 1 6.5-1.5 9.7-2 2.5-.2 5 .4 7.4.5q3.7 0 7.3 1c2.8.9 6 .7 8.9.7 2.1 0 4.3-.6 6.5-.7 2.1-.2 4.3.2 6.5.2 3.5 0 7-.5 10.5-.2 3.4.3 6.5-1.5 9.7-2.1 1.6-.3 3.3.2 5 .4q2.3.4 4.8-.1 2.4-.8 4.9-1c3.8.4 7.4 2.7 11.3 2.7 2.7 0 5.4.6 8.1.8q4.1-.1 8.1-.1c5 .1 10 .6 14.6-1.3" class="b"/><path d="M14.5 77.8q5.2.2 10.5-.6c1.9-.2 3.8 0 5.7-.4 2.1-.3 4.3-1 6.5-1.3q5-.3 9.7 1c3.2.8 6.5 1.9 9.8 1 2.6-.5 5.3-1.5 8-1.7q7.1-.3 13.9 1.6 3.1.6 6.4.4 4.5 0 9-.3 5.2 0 10.5-.2 3.7 0 7.3.2c3 0 6-1.2 9-1.7q2 0 4 .4 2.9.6 5.7.1c1.9-.2 3.8-1 5.7-.8 2.2.2 4.3 1.3 6.5 1.9q3.6.6 7.3.4 3.2.1 6.5-.4c1.8-.4 3.7-.9 5.6-.7 1.6 0 3.3.6 4.9.9q5.4.8 10.6-1" class="b"/><path d="M14.5 75.4c3.2.3 6.5-.7 9.7-1.3 2.4-.2 4.9.6 7.3.5 3.2 0 6.5-.7 9.7-.3 3.3.3 6.5 1.5 9.8 1.4q3.2-.1 6.5-.7l5.6-.5a33 33 0 0 1 13.8.8c2.7.7 5.5.2 8.1.2q9.3.4 18.7 0c4.6-.2 9.2.5 13.8-.3q2-.3 4-.3c2.5.1 5 .6 7.4.5s4.8-.6 7.3-.7c2.1 0 4.3.6 6.4.9 2.5.3 5-.2 7.3-.4q5.2-.3 9.8-2.5c1.5-.6 3.4-.5 4.9.3 4.4 2.6 7.9 3.5 13 1.8" class="b"/><path d="M14.5 72.5c4 .6 8-2.3 12.1-1.2q3.5 1.4 7.3 1.7c3.8 0 7.6-.3 11.4.4 3.5.4 7 0 10.5-.4l6.5-.1q4.1-.4 8.1-.3c2.5 0 4.9.9 7.3 1 2.5 0 4.9-.8 7.3-.7q5.7.4 11.4.4c5.4.4 10.8.2 16.2.3 8.1-.2 16.3.1 24.4-.2 3.5-.1 7 .6 10.5-.4 3.3-.7 6.8-1 9.8-2.8 2-1.1 4-3.5 6.4-2.6 1.9.8 3.3 2.6 5 3.8 2.4 2 5.8 2.7 8.8 1.6" class="b"/><path d="M14.5 70c4.4.6 8.7-2.6 13-.2 3.2 1.6 7 1.6 10.5 1.5l9 .1c9.4 0 18.9-1.2 28.3 0 3.8.3 7.5-1.9 11.4-1 4.3.5 8.7-.3 13 .5q4 .7 8 .5h11.4c3.8 0 7.6-1 11.4-.5q5.3.6 10.5.5 4.2.2 8.1-1a20 20 0 0 0 9-3.8c2.1-1.7 4.6-4.5 7.3-2 3.3 3.2 7 8.3 12.1 6.4" class="b"/><path d="M14.5 68.2c3.2.5 6.5-.7 9.7-.4 1.9.2 3.8 1.2 5.7 1.4q4 .1 8 0 13.5.3 26.9-.2c5.1 0 10.4.9 15.4-.6a17 17 0 0 1 4.8-.5l4.1.3c2.7 0 5.4-.5 8.1-.5 2.5 0 4.9 1.3 7.3 1.5h14.6c3.9 0 7.6-1.6 11.4-1.4 2.7.2 5.4 1 8.1 1.4 8.1.5 12.9-.2 19.5-5.3 1.8-1.3 4.1-3.4 6.5-2 4 2.6 7.3 9.1 13 7" class="b"/><path d="M14.5 66.6c2.6.3 5.4 0 8 0 2 0 3.9.5 5.7.5 3 0 6-1.1 9-1 3.5 0 7 1 10.5 1H73q3.7-.2 7.3-.8 3.2-.3 6.5 0c4 .5 8-.9 12.1-1.1 2.5 0 4.8 1.5 7.3 1.8q6.5.4 13 0 3-.1 5.7-.7c2.4-.5 4.8-1.2 7.3-1 2.2.2 4.4 1.1 6.5 1.6q3.1.4 6.5.2c5.5.5 8-2 12.1-4.9 2-1 4.4-2 6.5-1.2 4.5 2 8.3 8.3 13.8 5.4" class="b"/><path d="M14.5 64.7q3.6.2 7.2.2c2.2 0 4.4.3 6.5 0 3.3-.7 6.4-2.6 9.8-2.2 3.6.2 7 1.8 10.5 2.2 2.4.3 5-.2 7.3-.1q7.8.3 15.5.2c3.5 0 7-.6 10.5-.4q4.8.4 9.7.1 3.8-.5 7.3-1.2c3.3-.5 6.5 1 9.8 1.3q9 .8 17.8-.9 4.5-1 9 0 2 .7 4 1 2.8.1 5.7 0c4.3.4 6.3-.5 9.7-3 3.4-2.7 8-1.7 11.4.3 3.9 2 7 4 11.4 1.7" class="b"/><path d="M14.5 62.6q6 .3 12.1.2c2.6 0 5-1.4 7.3-2.2 2.6-1 5.5-.6 8.1 0 2.8.5 5.4 1.7 8.1 2.1 3.2.3 6.5-.2 9.8 0q9.3.2 18.6 0 7.4.3 14.6.1c3.6 0 7-.9 10.6-1 3.2 0 6.5.7 9.7.8 5.2.3 10.3-.7 15.5-.9 4.3 0 8.6 1.2 13 1.1 6.3 0 7.1.4 13-2.6 2.2-1.2 4.9-.5 7.2 0 3.5 1 7 2.3 10.6 2.6q2.5 0 4.8-1" class="b"/><path d="M14.5 60.4q4 .3 8 .2c2.2 0 4.4.3 6.5 0q3-.9 5.7-1.8a16 16 0 0 1 4.9-.3q3.3 0 6.5.7c2.1.5 4.3 1.3 6.5 1.5h26q6.4-.1 13 0h8l5.7-.8c5.1-.3 10.3.7 15.4 0 4-.6 8.2 0 12.2.5q5.2.4 10.6.3 3.3.1 6.5-.5c2.3-.6 4.8-1.5 7.3-1.3l11.3 1.4q4.5.8 9-.2" class="b"/><path d="M14.5 58.2c2.9.3 6 0 8.9.2q3.2.2 6.5.1 3.2-.3 6.5-.9 4.5-.5 8.9-.3c3.8.4 7.5 1.5 11.4 1.3h10.5q4-.5 8.1-.4 9.4.5 18.7.2l8 .2q3-.3 5.8-1c2.9-.6 6-.3 8.9-.3 2.7.1 5.4-.2 8.1.3q3.2.8 6.5 1h9q4-.1 8-.5 3.3-.6 6.5-.8 6 .5 12.2 1 5.2.6 10.5-.2M14.5 56q4.4.2 8.9 0 4.5.2 9 .4c4.5.1 9.1-.7 13.7-.6 6.5.3 13 .8 19.5.6 2.7 0 5.4-.9 8-1 3 .2 6 .8 9 .9q8.1.2 16.2-.3c2 0 3.8.5 5.7.4 3-.2 5.9-1.6 9-1.7q4.5-.2 8.9.6 2.8.8 5.7 1.1c2.7.2 5.4-.8 8-.5q3 .5 5.8.5l5.6-.6q3-.4 5.7-.4 2.9.1 5.7.4c6.2.3 12.4 1 18.7.3M14.5 54.1a178 178 0 0 1 21.9 0q3.7.4 7.3 0 4.5 0 8.9-.3c3.8-.1 7.6.5 11.3.4 2.8 0 5.5-.7 8.2-1 2.7-.2 5.4.4 8 .7q5.4.4 10.6.4 4.5-.1 9-.9 2.5.1 4.8.7c4.1.8 8-1.5 12.2-1.5 3.8 0 7.5 2.1 11.4 1.6 2.6-.4 5.4-1.3 8-.8 1.9.4 3.8 1 5.7 1 4.6-.3 9.2-1.1 13.8-.7 3.3.4 6.5.2 9.8.3q6 .4 12.1.2M14.5 52.1c4 0 8-.6 12.1-.6 2.4-.1 4.9-.7 7.3-.7 2 0 3.8.7 5.7 1.1q2.8.4 5.7.2 2.5 0 4.8-.4 2.4-.5 5-.8c2.6 0 5.3.8 8 .9 3 0 6-.6 9-.6q4 .2 8 .5 5.8.3 11.4.4 3 0 5.7-.7c2-.7 4.4-1.2 6.5-.5 1.6.4 3.2 1.1 4.9 1.2 3 .4 6-.8 8.9-1 2.2 0 4.3.8 6.5 1 3.3.4 6.4-1.4 9.7-1.2q2.4.1 4.9.8 2.4.5 4.9.5 4.5-.1 8.9-.3c3.2 0 6.5.3 9.7 0q3-.2 5.7-.2 4.8.3 9.8.4M14.5 50q4 0 8-.6 3-.2 5.7-.6c5.8-1.3 6.6-2 12.2.5q3.7 1.2 7.3.4 2.5-.5 4.9-1.7c3.3-1.4 6.4-.3 9.7.6 2.4.4 5 .1 7.3.3 2.7 0 5.4.5 8.1.5H85c2.7 0 5.4.5 8.1.3 5.9-.2 7.7-4.2 13.8-1.2a15 15 0 0 0 9 1.3q3.1-.4 6.4.2c2.5.3 5-.7 7.3-1.4q2.4-.5 5-.2c1.5 0 3.2.7 4.8 1q3.2.5 6.5.6h7.3q4.5.1 9-.1c2.3-.3 4.8-1.2 7.2-1.2 2.7 0 5.4.5 8.1.3" class="b"/><path d="M14.5 47.8q4.5-.1 8.9-.7 3.3-.1 6.5-.7c2.8-.6 6-2.6 8.9-.9q2 1.2 4 2 3.5 1 6.6-.7c5.3-3 7.1-3.8 13-1.3q2.7.7 5.6.8 3.3.3 6.5.7c3.8.6 7.6-.1 11.4-.2 6.5.8 10 1.3 16.2-1.7a7 7 0 0 1 5.7.3c2.5 1.2 5.1 2.8 8 2.5 2.8-.2 5.6.3 8.2-.5 1.9-.6 3.7-1.5 5.7-1.8q2.8-.5 5.6 0c2.7.6 5.4 1.6 8.2 2 4.8.6 9.7.1 14.6.3q2.8 0 5.6-.6c2-.5 3.8-1.4 5.7-1.8 2.7-.5 5.5 0 8.1-.1" class="b"/><path d="M14.5 45.5c3.5.1 7-.7 10.5-.8q3.3.1 6.5-.3c1.9-.2 3.8-1.1 5.7-1.3 3.3.2 6.2 3.6 9.7 2.4 3.7-1.4 7.2-4.6 11.4-4 2 .2 3.8 1.3 5.7 1.8q2.8.5 5.6.7c2.5.3 5 .9 7.3 1q3.3.3 6.5-.1c3.2-.5 6.5.4 9.8.3 2.1 0 4.4 0 6.4-.8q2.1-.8 4.1-2c2.2-1 4.7 0 6.5 1.4q2.5 1.9 5.7 2 2.8.1 5.7-.6c3.1-1 6.2-3 9.7-3q2.5 0 4.9.3c2.6 1 5.3 2.3 8 2.8q3.7.6 7.4.4h7.3c4.2-.2 8.1-2.1 12.1-3.2q3.3-.6 6.5 0" class="b"/><path d="M14.5 42.7c2 .3 4.3-.1 6.4-.3q3-.2 5.7 0 3.3.6 6.5.3c1.9-.1 3.8-1 5.7-.8 4.3 1 6.2 3 10.5.4 3.6-1.5 7.5-3.5 11.4-2.4q2 1 4 1.4c2.7.5 5.5.6 8.2 1.2q4 .9 8 .8 4.5-.3 9-.2c3.5-.1 7.3.3 10.6-1.2 1.6-.8 3-2.2 4.8-2.7 4-1 5.9 4.3 9.8 4.2q2.5.2 4.8-.4 2.1-.8 4.1-1.7a20 20 0 0 1 8.1-1.8q2-.2 4 0c3 1.1 5.9 3 9 3.6 3.5.7 7 .4 10.6.4q6.1-.3 12.1-2c4-1.3 5.2-2.3 9.8-1" class="b"/><path d="M14.5 39.7c2.9.6 6-.3 8.9 0 3.3.1 6.4 1.4 9.7 1.3 2.2 0 4.4-.7 6.5-.5 2.7.3 5.4 1.5 8.1.6q3.3-1.2 6.5-2.1c2.3-.8 4.9-1.6 7.3-.8 3.1 1.3 6.5 1.7 9.7 2.3 5.1 1.2 10.3 1 15.5.9q6.1.1 12.1-1.6c1.9-.6 3.4-2.1 5-3.2q2.9-2.2 5.6.3c2.9 3 4.4 4.7 9 4.1 3-.5 5.7-2.2 8.9-2.5q4-.4 8-.7c3.7.3 7 2.3 10.6 3q2.8.5 5.7.5c2.1 0 4.4.3 6.5 0l9.7-1.6c4.4-1.2 5-2.4 9.8-.5" class="b"/><path d="M14.5 36.9c2.8.7 6 0 8.9.4l4 .5c1.6.4 3.3 1 5 1 2.6.4 5.3-.4 8-.1s5.5 1 8.1.2q3.3-.6 6.5-1.6c2.3-.8 5-1.6 7.3-.7q5.6 2 11.4 2.6 7.2.1 14.6.1 6.2-.2 11.3-3.4c3.1-2.1 6-6.7 9.8-2.9 4.1 4.6 5.4 6.6 12.2 5.3 3.7-.8 7.5-.8 11.3-1q7.4-.6 14.6 1 3.7.2 7.3.7c4.4.8 8.8-.2 13-1.3 4.2-1.4 5.3-2.2 9.7-.3" class="b"/><path d="M14.5 34.1c4.2 1 8.6 1.2 13 1.5q2.7.5 5.6.9h5.7c2.1 0 4.3.5 6.5.6q5.8.2 11.3-1.3c3.7-1 5.5-.4 9 .5 5.8 1.4 11.9.7 17.8.7 2.4 0 5 .3 7.3 0 3.6-.8 6.8-3.3 9.8-5.4 4.4-3.7 7.2-4 11.3.5 4.2 5.2 7.8 4.7 13.8 4.3 4.9-.2 9.8 0 14.6-.6 3.8-.7 7.6-.1 11.4 0 2.7 0 5.4 1 8 1.3q4.7.3 9-1.7c3.2-1.4 5.7-1.7 9 0" class="b"/><path d="M14.5 32.5c3.4.8 7 1.7 10.5 1.6q6-.4 12.2 0 3.7.1 7.3.7 3.2.3 6.5.2c4 .2 8.1-1.2 12.1-.4 4.3.7 8.7.3 13 .4 3 0 6-.6 9-.4 1.8 0 3.8.6 5.6.3 4.3-.9 7.5-4.2 11.4-6a10 10 0 0 1 9-.1c1.6 1.2 3 3 4.8 4.2 3.8 2.7 8.6 1.5 13 1.7q4.8.2 9.7-.3c2.7-.4 5.4-1.5 8.1-1.5 2.4 0 5-.2 7.3.3 2.4.5 4.8 1.5 7.3 1.8 6.2.8 10.1-4.8 16.2-1.7" class="b"/><path d="M14.5 31.6c4 .8 8 1.5 12.1 1 3-.2 6-1.1 9-1q2.3 0 4.8.2 3.2.7 6.5.9l8.1.2q4.5-.2 9 0l5.6-.3q3.7.2 7.3.1c2.4-.1 4.9-.8 7.3-.8q2.4.2 4.9.9c2.8.4 5.6-.8 8.1-1.8q3-1.6 6.5-2.5c2.6-.4 5.5-1.6 8.1-.7 1.4.7 2.7 2 4 3 3 2.3 7 2 10.6 2 4-.2 8.2.2 12.2-.3 3.3-.5 6.3-2.7 9.7-2.7 4.6-.4 8.6 2.2 13 3q3 .4 5.7-.5c3.3-1.1 7.1-2.7 10.5-.9" class="b"/><path d="M14.5 30.4q4.4.5 8.9.3 2.8.1 5.7 0c3-.6 5.8-1.6 8.9-1.4 3-.2 6 1 9 1 4 0 8 .5 12 .4q4.5.1 9-.5c2.1-.3 4.4 0 6.5 0q2.4 0 4.9-.8c5.1-1.6 5.8-.9 10.5 1q5 .8 9.8-1 3.1-.8 6.5-1.6 2.3-.8 4.8-1.1c3 .2 5.1 3.1 8.1 3.7 2.7.5 5.5.3 8.1.3h9.8q3-.4 5.7-2c2.4-1.6 5-3.2 8-2.1 2.3.8 4.4 2.2 6.6 3q2.6 1.2 5.6 1.1c5 .4 9.8-3.5 14.7-1.1" class="b"/><path d="M14.5 28.5q4.5.2 8.9-.2l5.7.3c3.2-.1 6.4-1.3 9.7-1.4 2.7-.2 5.4.6 8.1.6 3.8 0 7.6 1 11.4.8h6.5q2.9-.5 5.6-1.2 2.4-.4 5-.6l4-1.3c9-3.4 7.5 4.1 18.6 3q3.8-.4 7.3-1.6c2.6-.8 5.5-2.8 8.1-1.2 1.8 1 3.6 2.4 5.7 2.8 3 .3 6-.2 9 0 3.2 0 6.5.3 9.7-.1 2.2-.4 4.1-2 5.7-3.5 1.2-1 2.4-2.4 4-3 2-.2 3.6 1.2 4.9 2.4q2.2 2.1 4.9 3.5c3.6 1.3 7.7 1 11.3-.2 3-1 6-1.8 9-.2" class="b"/><path d="M14.5 26.4q5.2.1 10.5-.2c2.1 0 4.4.4 6.5.2Q34.8 26 38 25c2.6-.6 5.4-.1 8 .1 3.6.1 7.1 1.2 10.6 1.3 2.2 0 4.4-.4 6.5-.2q3.9.6 7.3-1.3 3.3-1.4 6.5-2.6c2-.8 4.3-1.6 6.5-1.6 3 0 5 2.2 7.3 3.7 2.1 1.4 4.8 1.8 7.3 2a17 17 0 0 0 9.7-2.4c1.8-1 4-1.5 5.7-.3 6.5 4.6 7 1.7 13.8 2.3 3.5.3 7.1.7 10.6 0 2.3-.6 4.1-2.5 5.6-4.3 1.4-1.4 2.7-3.8 5-3.7 4.3 1.9 5.5 8.2 11.3 8.3q3.7.3 7.3-.6c1.6-.5 3.2-1.4 4.9-1.8 1.9-.7 4 0 5.6 1" class="b"/><path d="M14.5 24.1q8.9.4 17.8 0c2.5-.2 4.9-1.4 7.3-2q2-.4 4 0c4.1.5 8.1 2 12.2 2.2 2 0 3.8-.5 5.7-.5 1.6 0 3.3.6 4.9.5 3-.1 5.5-2 8-3.4 3.5-1.9 7.4-4.2 11.4-3.5 3 .8 4.6 4 7.3 5.4 3.8 2 9.3 2 13 .2 2-1 4.2-2.4 6.5-1.3 2.6 1.2 5.1 3.2 8.1 2.5q2.4-.6 4.9-.7c1.9 0 3.8.6 5.7.8q3.3.2 6.5-.6c4-1.2 5.8-5.4 8.9-7.8 4-2.1 6.5 8 12.2 8.3q3.7.5 7.3-.4c1.7-.5 3.3-1.8 4.8-2.6 2.4-1.4 4.6-.4 6.5 1.2" class="b"/><path d="M14.5 21.7H20l5.7.3c5.2 0 7.8-.2 12.2-3.1 2.8-1.8 6.1-.4 9 .7 2.8 1 5.7 2.4 8.8 2.6q2.4-.1 5-.6c2.6-.2 5.3 1.1 8 .3 5.5-1.5 9.5-6 14.6-8.4q3.6-1.8 5.7 1.5c1.7 2.1 3.3 4.7 5.7 6.1a15 15 0 0 0 8.1 1q3-.6 5.7-2c3-1 6 1.3 9 1.9 2 .5 4.3-.1 6.4-.4q2.5-.2 4.9.2c4 .8 8.8.5 12.1-2.2 2.2-1.6 3.9-4.4 6.5-5.2 4.3.3 6 7.4 12.2 7.7 2.1.1 4.4.3 6.5-.4 4.6-2 6.1-6.6 11.3-1.7" class="b"/><path d="M14.5 19.5c2.6.1 5.4-.5 8-.3 3.8.2 8 .5 11.4-1.5 3.4-2.2 5.3-6 9.8-3.3 4 2.5 8 5.5 13 5.6 1.8 0 3.7-.5 5.6-.4C71 21.2 75.4 18 81 12c1.8-1.9 5-6 7.3-2.7 3 4.3 5 11 11.3 10.8q3 0 5.7-.3c2.1-.5 4.3-1.2 6.5-.7 2.4.3 4.9 1 7.3 1 2.7 0 5.4-.5 8.1-.3q6.3 1 12.2-1.4c2.3-1.2 4.2-3.2 6.5-4.5 4.2-2.4 7.5 5.4 13 6 2.3.2 5 .5 7.3-.2 4.7-2 6-6.2 11.3-1.6" class="b"/></svg>