<svg xmlns="http://www.w3.org/2000/svg" id="a" width="1920" height="2400" viewBox="0 0 192 240"><defs><style>.b{stroke:#fff;stroke-miterlimit:10;stroke-width:.6px}</style></defs><path d="M0 0h192v240H0z" style="stroke-width:0"/><path d="M12.5 228.5q2.8 1.2 5.8 1.9 4.2.6 8.3.8c2.2 0 4.5.3 6.7 0 2-.1 3.8-1 5.8-1.2 3.6-.3 7.1 1.5 10.8 1.3h13.3q4.2-.1 8.3-1c2.2-.4 4.5.1 6.7.4q4 .8 8.3.6c3.7 0 7-2.2 10.8-2.6 2.3-.2 4.5 1 6.6 1.8q3.1 1.2 6.7.8 3 .1 5.8-.5 2.6-.7 5-2c1.5-.9 3.2-1.8 5-1.8 2.5 0 5 .8 7.4 1q2.3.1 4.2.7c2.7 1 5.4 2.3 8.3 2.4q6.6.4 13.3.2 3.3.2 6.7 0 2.4-.5 5-.8 4 0 8.3-.2" class="b"/><path d="M12.5 225.5q5 2.6 10.8 3.2c4.3.8 7.6.7 11.6-1q4.2-1.5 8.3-.3 3 1 5.9 1.5 4.9.4 10 .3c4.6 0 9.4.2 14-.4q4.2-.3 8.4 0c3 .3 6.1.7 9.1 0 2.3-.4 4.4-1.5 6.7-2 2.7-.4 5.6.3 8.3 1.1a29 29 0 0 0 13.3 1c3-.7 5.9-2.6 9.1-2q2.9.4 5.8.7 2.1-.1 4.2.2a34 34 0 0 0 10 1.4c5.7-.2 11.6.2 17.4-.1 2-.1 3.9-.8 5.8-1q4.1 0 8.3-.4" class="b"/><path d="M12.5 223.6q4.7 2.3 10 3c8.7 2 9.5-4.2 16.6-3.2 3.1.5 6 2.1 9.1 3s6.1.6 9.2.5c3.8-.1 7.7-.4 11.6 0 3.6.3 7.2-.2 10.8-.2 3.3 0 6.7.5 10 .2 2.5-.1 5-1 7.4-1.5 2.8-.3 5.6-.9 8.3-.5 2 .2 4 1 5.9 1.4q3.7.6 7.5.7 3.3-.2 6.6-.8 3-.1 5.8.2h5.8c2.5.2 5 .7 7.5.6h6.7q4-.4 8.3 0 3.4 0 6.6-.2l5-.8c2.8-.1 5.6 0 8.3-.6" class="b"/><path d="M12.5 222.8q4.8 1.8 10 2c6.7.6 8.4-5.1 14-5 6.6.8 10.4 6.1 17.5 4.9 4.4-.5 8.9-1.3 13.3-1 2 .1 4 .8 5.9 1 2.1.3 4.4 0 6.6 0 5.3 0 10.6.4 15.8-.6q2.5-.3 5-.8c2.4-.6 5-1.1 7.5-.4 5.8 2 12.1 2.1 18.3 1.7l11.6.1c2.7.3 5.5-.1 8.3-.3 1.6 0 3.3.4 5 .4q2.4-.2 5-.5l6.6.3q3.8 0 7.5-.5c3-.3 6.1.1 9.1-.5" class="b"/><path d="M12.5 222.1q5.8 1 11.6 0c5.6-1.5 8.6-6.7 15-4.1q3 1.4 5.8 3.2c4.3 2.7 8.8.8 13.3-.1 2.7-.6 5.6-1.2 8.3-.7 2 .4 3.9 1.4 5.8 2 2.5.5 5 0 7.5 0 5.3.1 10.6.6 15.8-.3 3-.3 6-1.2 9.1-1.4q3 .1 5.9 1 4.8 1.1 10 1 3.7-.3 7.4-.3l12.5.2c1.9-.1 3.9-.8 5.8-.9 2 0 3.9 1 5.8 1 2-.1 4-.7 5.8-.7 3.3 0 6.7.6 10 .3 3.9-.3 7.8 0 11.6-.4" class="b"/><path d="M12.5 220.4q6.4.3 12.5-1.7c4.2-1.3 8.6-4 13.3-2.8 3.3.8 5.7 3.7 9 4.4 2 .4 4-.3 6-.8l6.6-2c8-2.5 8.6 3.8 16.6 2.8q3.7-.2 7.5-.1c3.3 0 6.6.3 10 .1 3-.2 6-1.2 9-1.4q3.5 0 6.7 1l5.8.5c3.4.1 6.7-.6 10-.4q7 .4 14.1.4c2.3 0 4.5-.6 6.7-.8 2-.2 3.9.6 5.8.8 2.2.2 4.5-.5 6.7-.6 2.4 0 5 .5 7.4.5q6.8 0 13.3-.3" class="b"/><path d="M12.5 218q3.4.2 6.6-.5c2.2-.5 4.4-1.3 6.7-1.6q3.4-.3 6.6-1c2-.4 4-1 5.9-.7 3.8.5 6.7 4.3 10.8 4 2.2-.2 4.4-1 6.6-1.6q3.7-1.1 7.5-1.9c2.7 0 5 1.9 7.5 2.8 2 .9 4.4.8 6.6.7q4.2-.3 8.3-.4c3 0 6.1.5 9.2.4 2.5-.2 5-1.2 7.5-1 2.4 0 5 .8 7.4 1h5.9l5-1c2.7-.5 5.5.3 8.3.6q6.1.5 12.4.4 3.3-.2 6.7-.4 2.9.1 5.8.4c2.7.2 5.5-.4 8.3-.1q8.7.3 17.4 0" class="b"/><path d="M12.5 215.7q3.4.3 6.6-.5 2.6-.7 5-1.2c2.5 0 5 .4 7.5 0 2.2-.4 4.4-1.3 6.7-1.2 4.9 0 8.2 4.3 13.3 3q4-.7 8.3-1.6c2.7-.8 4.7-1 7.5 0q3 1.4 6.6 1.8 5.9.3 11.6-.6 4.2 0 8.3.6c2.5.2 5-.9 7.5-.7 3 .3 6.1 1 9.2.7q3 0 5.8-.9c2-.7 4.4-1.7 6.6-1.3 1.7.3 3.4 1 5 1.3q3.3.5 6.7.6a98 98 0 0 0 15.8 0c5.8.3 11.6.6 17.4 0 3.9 0 7.8.5 11.6.3" class="b"/><path d="M12.5 213.5q3.4.3 6.6-.5c1.7-.4 3.3-1.1 5-1.2 2.5.2 5 .8 7.5.5 2.5-.2 5-1.1 7.5-.9q3 .1 5.8 1.3c3.8 1.8 7.7 1 11.6.4l5.9-1.1c2.5-.4 5 .2 7.4.8q3.3.8 6.7.9 4.5.3 9.1-.2 4.2 0 8.3.3c2 .2 4-.3 5.9-.4q2.4.1 5 .4 2.4.3 5-.4 2-.2 4-.5c2.3-.4 4.5-1.5 6.7-1.6 2.6-.2 5 1.2 7.5 1.6 3.3.5 6.7.4 10 .7q3.8.2 7.5.2 3.3-.2 6.6-.4c3 0 6.1.6 9.2.4 2.7 0 5.5-.9 8.3-1 3.3.2 6.6 1 10 1" class="b"/><path d="M12.5 211.2c3.6.5 7.2-.6 10.8-1.2 2 0 3.9.5 5.8.5q3.3 0 6.7-.4 3.7-.1 7.4.7 4.2 1.2 8.3.6l7.5-1c2.5-.4 5-.9 7.5-.6q3.4.4 6.7 1 2.9.3 5.8.5c4.7.5 9.4.3 14.1.3q3.4 0 6.7-.2 2.9.2 5.8.2c2.5-.1 5-.9 7.5-1 1.9-.4 3.8-1 5.8-1 3-.2 6 1.3 9.1 1.5q3 .3 5.8.2l5.9.2c4.1.4 8.3-.2 12.4-.5 3.3 0 6.7.6 10 .2q3-.7 5.8-1.3c4-.6 7.7 1.2 11.6 1.2M12.5 209c3.3.2 6.7-.2 10-.3q2.9.1 5.8.1 3.8-.1 7.5-.1 4 .3 8.3.7c3 .3 6-.6 9.1-1l5.8-.3q2.6-.4 5-.5c3.6 0 7.2 1.1 10.8 1.2q4.6 0 9.2.3 5.3.3 10.8.2c3.8-.2 7.7.3 11.6.1 3.9-.3 7.7-1.5 11.6-1.7 3.4.1 6.6 1.5 10 1.6l15 .1 15.7-.7c3.5.1 6.6-1.7 10-2.1 3.7-.3 7.1 1.6 10.8 1.8" class="b"/><path d="M12.5 207c5.2-.4 10.5.4 15.8.1 4.4-.4 8.9.4 13.3 0 3-.2 6.1-1 9.1-1.6q2.5-.3 5 0c2.8.5 5.5 0 8.3.1 3 .4 6 1.4 9.2 1.4 3.3.2 6.6-.8 10-.6 6.6.3 13.3 0 19.9.8q4.2.3 8.3-.4c2.4-.5 5-1.5 7.5-1.2 3 .5 6 1.7 9.1 1.7q10.5 0 20.8-.2 6.3 0 12.4-1.4c2.5-.6 5-2 7.5-2.3 3.8-.3 7.1 2.1 10.8 2.5" class="b"/><path d="M12.5 204.8c2.7-.3 5.6.1 8.3.3h10.8q3 0 5.8-.3c2.5-.4 5-1.3 7.5-1.8q2.9-.6 5.8-1 2.2.1 4.2 1 2.4.7 5 1H64q4 1.1 8.3 1c2.2 0 4.5.2 6.7-.3q4-.9 8.3-.7c3.3 0 6.6-.8 10-.5 4.8 1.1 10 2.3 15 1 7.6-2.6 6.8-1 14 .5q10.9.1 21.6 0 3.3.1 6.7-.1c2-.2 4-1 5.8-1.4 3.1-.8 5.9-3 9.1-3.1 3.7-.2 6.6 2.6 10 3.2" class="b"/><path d="M12.5 202.8q3.8-.1 7.5 0 4-.2 8.3 0 3.8.2 7.5-.4c2-.5 3.8-1.5 5.8-2.1q3.2-.9 6.6-.6 1.6 0 3.4.3c2.7 1 5.3 2.4 8.3 2.5 3.8 0 7.7.6 11.6.2q2.9-.1 5.8.2 2.6-.2 5-.8c3-.6 6.2-.1 9.1-1 2-.5 4-1.2 5.9-1 1.7.3 3.3 1.2 5 1.8q3.6 1.3 7.4.8c2.3-.3 4.5-1.4 6.7-2 3.4-1 6.6 1.4 10 2 1.8.3 3.9 0 5.8 0q7.8.3 15.8.2 3.7.1 7.4-.2 4-.8 7.5-2.5c2.6-1.3 5.2-3.5 8.3-3 3.1.3 5.4 3 8.3 3.9" class="b"/><path d="M12.5 200.7H20q2.9-.2 5.8-.2c6 .1 8.6 0 14.1-2.6 3.2-1.5 6.7-1 10-.1 2.3.7 4.3 2.3 6.6 2.7q7.1.6 14.2-.5c2.8-.4 5.5.8 8.3.7 1.6 0 3.4-.6 5-.9 1.3-.3 2.8-.2 4.1-.5 2.3-.5 4.4-1.8 6.7-2.5 5.4-1.6 7.9 5.3 14.1 3.7 3.6-.7 7-3.4 10.8-2.6 3.1.7 6 2.6 9.1 2.8 6.7-.2 13.3.1 20-.1 2.2-.1 4.4.2 6.6 0q4.7-.5 8.3-3.2c2.4-1.5 4.5-4 7.5-4 3.4.2 5.5 3.5 8.3 4.9" class="b"/><path d="M12.5 198.5q9.6 0 19.1-.6c3.5-.4 6.7-1.9 10-3 3-1 6.4-.3 9.1 1.5 1.7 1.1 3.7 2.3 5.8 2l8.3-.9c2.5-.1 5-.5 7.5-.3 2 .1 4 .9 5.8 1.2q2.6.2 5-.3c2-.5 4-.6 5.9-1.4 2.6-1.2 5.2-3.6 8.3-2.9 2.2.6 3.9 2.4 5.8 3.6 3.6 2.5 7.2 0 10.8-1.1q4.1-1.3 8.3-.2c2.6.5 4.9 2.1 7.5 2.3q2.4.1 5 0 3.7.1 7.4 0c3.6-.1 7.3-.6 10.8-.1 10.5 2 13.1-10 20-8.3 2.6 1 4.4 3.5 6.6 5.2" class="b"/><path d="M12.5 196.3c6-.1 12.3.1 18.3-1q3.7-.6 7.5-1.4c2.1-.6 4.3-1.7 6.6-1.8q2.8.2 5 2c5 4.2 5.8 1.4 10.8 0q3.7-.5 7.5-.3c8.2.2 10.2 4.3 19 1.5 3.3-1.2 6.4-4.3 10-2.6 3.4 1.1 6.2 4.3 10 3.5 2.3-.5 4.4-1.7 6.7-2q4.8-.8 10-.2c2.5.6 4.8 2.1 7.4 2.3q5 .1 10-.1 6.7-.8 13.3 0c6.2.5 9.3-6.4 14.1-9 4.6-2.2 7.8 1.5 10.8 4.5" class="b"/><path d="M12.5 194.1q6.7 0 13.3-.3c2.5-.3 5-1.1 7.5-1.6 2.4-.5 5-.4 7.5-1.2 4.4-1.5 6.4-.8 10 2.1 4.1 3.4 6.7-3.3 10.7-3.6 2-.4 4 0 5.8.3q3 .6 5.9 1.5c3.6 1.4 7.6 3.3 11.6 2.7q3.5-.7 6.6-2.2c4-1.6 7.8 1.6 11.7 2.2 3.1.5 6.2-.6 9.1-1.6 2.7-.6 5.6-.3 8.3-.5 1.3-.1 2.8-.4 4.2-.1 2.7.7 5.3 2.3 8.3 2.3q5.4.2 10.8-.4 5-.2 10 .4c3.5.5 6.1-2.5 8.3-4.9 2-2 4.3-4.7 7.4-5.2 4.5-.4 6.8.8 10 4" class="b"/><path d="M12.5 192c4.7-.3 9.5 0 14.1-.7 3.9-.9 7.6-2.6 11.7-2.4 3.6-.4 6.8-.6 10 1.5 1.8 1.2 3.8 2.3 5.7.6 4.7-4.7 5.4-9.3 13.3-6.2 5 1.8 9.1 5.3 14.2 6.8 3.3.9 6.8-.2 10-1.2 2.1-.7 4.5-.2 6.6.5q2.9.9 5.8 1 4.2 0 8.3-1.2 3-.4 5.8-.3c2.2 0 4.5-.4 6.7-.2 2 .3 3.9 1.2 5.8 1.5 4.4.6 8.9 0 13.3 0q3.3 0 6.7.2c2.5 0 5.3.2 7.4-1.4 3-2.4 5.3-6 9.2-7.2 1.5-.6 3.3-.4 5-.4q4-.5 7.5 1.9" class="b"/><path d="M12.5 189.7c4.4-.2 9-.1 13.3-.8 2.8-.6 5.5-2.1 8.3-2.8 3.4-1 6.9 0 10 1.4 2 1 4.2 2.4 6.6 2.2 4.9-1.3 6-8.5 10-11.2 2-1.3 4-.8 5.8.4q2.6 1.8 5 3.7c3.4 2.6 6.8 5.4 10.8 6.8 3.9 1 7.8-.7 11.6-1.1 3.7-.1 7.2 1.2 10.8 1.4 2.8.2 5.6-.3 8.3-.6q3.8-.2 7.5-.2c3-.1 6.1.5 9.2.8h19.9c2.5 0 5.2 0 7.5-1 2-1 3.8-2.6 5.8-3.7a24 24 0 0 1 5-1.5c1.6-.3 3.4-.2 5-.6 2.1-.4 4.4-1.2 6.6-.7" class="b"/><path d="M12.5 187.5c4.4-.5 9-.4 13.3-1.2 2.6-.7 5-2.1 7.5-3q3.9-1.5 7.5.8c10.4 7.6 13 1.2 18.2-7.4 3.8-5.9 6.2-3.5 10 .7q3.7 4 8.3 7c1.8 1.3 3.7 2.8 5.8 3 4.5.4 8.9-1.5 13.3-1.4 3.7 0 7.2 1.4 10.8 1.5q3.7 0 7.5-.3l9.1.2c4.2.3 8.4 0 12.5 0q4.1.2 8.3.1 4.6.1 9.2-.2 4.2-.5 8.3-1.8 4.6-.9 9.1-2.2c3-.4 5.4-2.5 8.3-3.1" class="b"/><path d="M12.5 185c4.1-.6 8.3-.4 12.5-.9 2.5-.4 5-1.8 7.4-2.6s5.4-1.2 7.5.4c3.3 2.4 6.7 4.6 10.8 2.8 4.4-1.7 6.6-6.2 9.2-10 1.5-2 3.3-4.1 5.8-1.8 2.3 2.2 4.2 5 6.6 7.1q2.9 2 5.8 3.6c3.4 2.2 4.7 2 8.4 1 3-.3 6-1 9-1q2.3-.2 4.2-.2 2.6.4 5 1.3 3.7.9 7.5.6H123q4.2-.1 8.3-.3 4.2 0 8.3.3h16.7q4.5 0 9-.5c3-.5 5.7-1.9 8.4-2.8 2-.9 3.8-2.4 5.8-3.3" class="b"/><path d="M12.5 182.6c3.8-.8 7.8-.2 11.6-.4 2.9-.2 5.6-1.6 8.3-2.2 2.5-.5 5.3-.8 7.5.5q2.8 1.7 5.8 2.5c3.1.5 6.5-.2 9.2-1.9s4.3-4.7 6.6-6.8c2.4-2.3 5 .8 6.7 2.5 1.4 1.4 3 3 5 4l4.1 1.5c1.6.6 3.4 1.2 5 .6 1.4-.4 2.7-1.4 4.2-1.7 3-.3 6 0 9 0 1.7 0 3.5-.4 5-.2 3.1.6 6 2 9.2 2q6.2.3 12.5 0c2.7 0 5.5-.7 8.3-.6 3.3.1 6.7.7 10 .8 2.7-.2 5.5-.8 8.3-.6q4 .5 8.3.5 4.5-.1 9.1 0c2.6 0 5-1.2 7.5-2 2-1 3.9-2.6 5.8-3.7" class="b"/><path d="M12.5 180c3.9-.8 7.8.5 11.6.4 3.2-.1 6-1.7 9.2-2.3 3.3-.7 6 .3 9.1 1.5 4.7 1.4 10.4 2.3 15-.1 2.1-1.2 4-3.7 6.6-3.5 2.5.5 4.4 2.4 6.7 3.4q2.3 1 5 1.3 2.5.4 5 0c3.3-1.3 4.1-3.7 8.2-2.8q3.4.8 6.7 1.2 2.5.1 5 0c2.8.3 5.5 1.2 8.3 1.5q6.7.5 13.3 0c2.8-.2 5.5-.9 8.3-.8q3 .2 5.8.6 2.5.6 5 .5c2-.3 4-1 5.8-1.3 2.5-.4 5 .4 7.5.4 2.5.1 5-.7 7.5-.4 2 .1 3.9 1 5.8 1.3 2.3.2 4.6-.6 6.7-1.5q2.5-1.4 5-3.2" class="b"/><path d="M12.5 177.8c3-.7 6.1.3 9.1.6 5.4.7 7.8-1.5 12.5-3 2.8-.8 5.6.5 8.3 1.2 2.4.7 5 .8 7.5 1.4 3 .5 6.1 1.2 9.1.4 1.6-.4 3.3-1.1 5-1.1 3.4 0 6.6 1.6 10 1.4 7 .4 8.4-4.2 12.4-4.1q3 .7 5.9 1.5c3 .9 6 .9 9.1 1.1 4.1.6 8.3 1.5 12.5 1.4 5 .1 10-.8 15-1q3.7.2 7.4.6 2 .6 4.1.5c3-.2 5.5-2 8.4-2.5 2.7-.4 5.5-.2 8.3-.7 5-1.1 6.6.5 10.8 2.7 4 1.7 8.3-.9 11.6-3.1" class="b"/><path d="M12.5 176c4.4-.8 8.9 1 13.3.2 2.5-.3 4.6-2 6.6-3.3 3.7-2.6 6.3-.8 10 .2 2.4.7 5 .5 7.5 1.1q2 .4 4.1.9 2.6.8 5 1.4c2.2.3 4.5 0 6.7 0 2.7 0 5.6.3 8.3-.2q2.7-.5 5-2c2.6-1.7 5.2-3.8 8.3-2 3.2 1.1 6.6 1.4 10 1.9 5.2.8 10.4 2.2 15.8 2.3 4.4.2 8.8-.7 13.3-.6 4.4-.2 8.8.6 13.3.6 3-.2 5.6-2.2 8.3-3.3 20-9 17.2 10.3 31.5.6" class="b"/><path d="m12.5 174.3 8.3-.1c2.2 0 4.7 0 6.7-1 3.8-2 6.6-8 11.6-5.2q2.8 1.6 5.8 2.2 4.2.3 8.3 1c2.3.4 4.4 1.8 6.7 2.5q2.8.7 5.8.7t5.8-.3c7.3-1 9.2-8.3 15-4.6 3 2 6.6.8 10 1.2 2 .2 3.8 1.3 5.8 2q3.6 1.2 7.4 1.6 6.3.2 12.5 0h13.3q4.5.2 8.3-2.3l5.8-3.4c2.2-1.3 5-2.3 7.5-1.6q2.6.8 5 2.1 2.1 1 4.1 2.2c4.5 3 8.6 4.6 13.3 1" class="b"/><path d="M12.5 172q3.8.4 7.5 0 3 .2 5.8-.9c4.4-1.8 6.8-9.5 12.5-7.1 1.9 1 3.7 2.5 5.8 3.2q2.4.6 5 .7c1.6.3 3.3.2 5 .5 2 .4 3.9 1.6 5.8 2.5q4.3 1.4 9.1 1c8.7-.8 9.5-6 14.1-6.2 1.6.1 3 1.2 4.2 2 2.9 1.3 6.1-.4 9.1 0 1.5.3 2.9 1.3 4.2 2q2 1.1 4.1 1.8c3.5 1.1 7.2.5 10.8.4q7.5.4 15 0c3.4-.1 7-.3 10-2q4-2.6 8.3-4.9c2-1 4.5-1.6 6.6-.6s3.9 2.4 5.8 3.4 4 1.1 5.9 2c4.4 1.6 8 4 12.4.6" class="b"/><path d="M12.5 169.1q4.5 1.3 9.1.6c8-.7 9-9.1 15-8.8 1.9 0 3.5 1.4 5 2.4q2.6 1.8 5.8 2.6c2.7.9 5.6.9 8.3 1.5 2.7.8 5.5 2 8.3 2.1q6 .6 11.7-1.8c2.8-1.5 5.6-4.8 9-3.3 1.4.6 2.8 1.6 4.2 1.8 2.2.4 4.5 0 6.7.2q2.7.4 5 1.8 2.3 1.1 5 1.6c3 .6 6.1-.1 9.1-.6 2.7-.3 5.6-.1 8.3-.5q3.4-.5 6.7-.5 3.7.2 7.5-.7c4.6-1.6 8.2-5.8 13.3-5.9 5 0 8.2 5.5 13.3 5.7q3.8.4 7.4 1.8c2.8 1.1 5.7 1.3 8.3-.4" class="b"/><path d="M12.5 166.2a14 14 0 0 0 11.6.6c5.6-1.8 9.2-10.4 15.8-7.2 3.9 2 7.2 5.4 11.6 6.2 6.8 1.5 14 2.3 20.8.9q3.5-.4 6.7-2.1 3.6-2.1 7.4-.3c3.4 1.6 7.2 1.4 10.8 1.9 3.8.8 7.8 1.9 11.7 1.5q3-.4 5.8-1.3l6.6-1.6c2.2-.5 4.4-1.6 6.7-1.7q2.5.1 5 .8c4 1.4 8-.8 11.6-2.3q4.7-1.6 9.2.5c3 1.3 5.7 3.5 9 3.7q2.6 0 5 .5c4.4.7 7.3 2.5 11.7.6" class="b"/><path d="M12.5 164.2q2.3 1.2 5 1.4 5.4 0 10-2.8c4.6-2.6 9.3-7.5 15-4.3 2 1.2 3.7 3.1 5.7 4.5q3.1 1.8 6.7 2.2c6.9.6 13.9 0 20.8-.4 2.7-.3 5.4-1.6 8.3-1.4s6 1.5 9.1 1.5l8.3.5c2.2 0 4.5.4 6.7 0 4.2-.9 8.4-2.6 12.4-4.2 2.3-.8 4.3-2.6 6.7-3.2s4.6 1.4 6.6 2.7q2 1.1 4.2 1.4c2.7.3 5.5-.3 8.3-.5q6.3.4 12.4 2.2c3 .8 6.2.5 9.2 1 2.2.2 4.4.8 6.6.8q2.6-.1 5-.8" class="b"/><path d="M12.5 162.7c3.2 1.4 6.7.4 10-.4q2.1-.6 4.1-1.4 2.5-.7 5-1.7 3.6-1.7 7.5-2.3c6-1.4 7.2 5.9 15 6.4q6.1.1 12.4 0h9.1q3.8-.1 7.5-.5c3.6-.1 7.2.7 10.8.5h7.5c1.9 0 4 .3 5.8 0 2-.5 3.9-1.7 5.8-2.4q4.8-1.5 9.2-3.7c1.7-1 3.1-2.5 5-3.2 3.7-.7 5.5 4 8.3 5.6 3.2 2 7 2.5 10.8 2.6q4.5.6 9.1.5 4.2.2 8.3.3c3 0 6.1.5 9.2.4 2.2 0 4.4-.6 6.6-.9" class="b"/><path d="M12.5 161c2.5.6 5-.3 7.5-1q3-.4 5.8-1.3c1.9-.5 3.9-.3 5.8-.5l6.7-.6c6.4-1.4 7 2.1 12.4 3.3q2.5.5 5 .2l5 .1q6.7.1 13.3-.2 3.8.2 7.5.2H98c2.7-.1 5.6.3 8.3-.2 2.4-.5 4.3-2.5 6.7-3.2 4.3-1.5 8.9-2.4 12.4-5.4 4-3 6.7 2.8 9.2 5s5.8 3.5 9.1 3.7c6.4.3 12.8 0 19.1 0q5 .1 10 0c2.2-.2 4.4-.8 6.6-1" class="b"/><path d="M12.5 159c2.6.2 5-1 7.5-1.5l4.1-.5q2-.5 4.2-.2 4.8 1 10 1.2h5c3 .2 6 1.2 9 1 4.5-.4 9 .1 13.4 0 3 0 6-1.1 9.1-1.2 2.8 0 5.6.9 8.3 1q6.3.3 12.5.2c3.8-.2 8 .6 11.6-.7 1.7-.7 3.3-2.2 5-2.8 3-1 6.2-1.1 9.1-2 2-.4 3.8-2 5.9-2.4 6 .2 5 9.3 16.6 7.8q3.3-.4 6.6-.6l7.5.6q7 .3 14.1 0c2.5 0 5-.7 7.5-1" class="b"/><path d="M12.5 156.8c2.2 0 4.5-.8 6.6-1.2q3.3-.4 6.7-.4c2 .1 3.9.8 5.8 1q4.2.7 8.3.6h11.7q5.7-.4 11.6-.3c3.4-.2 6.6-1.7 10-2 3-.1 6 1 9 1.4q6 1.1 11.7 1c4.4-.2 9.1.4 13.3-1.2 2-.8 3.7-2.5 5.8-2.8 4.2-.7 8.6.4 12.5-1.5 5-2 7 5.3 11.6 5.4 2 .2 4-.5 5.9-1q3.2-.8 6.6-1.1c3.1.2 6 1.8 9.1 2q4.6.1 9.2.1 5.9.1 11.6-1" class="b"/><path d="M12.5 154.7c2.8 0 5.5-.8 8.3-1 3.6-.2 7.2.4 10.8.8q5 .3 10-.2h6.6q7.5.1 15-.6c2.5-.5 4.9-1.9 7.5-2 5.6.3 11 2 16.6 2.8 2.7.3 5.6 0 8.3.1q5.6.3 10.8-1.4 1.7-.7 3.3-1.6t3.3-1.4c3-.2 6.1.9 9.2.9 2.2 0 4.5-1.3 6.6-.2 1.8.8 3.3 2.4 5 3.3 3.5 1.5 6.8-1.4 10-2.3q1.7-.5 3.3-.8a6 6 0 0 1 4.2.3c6.2 3.3 6.9 3.4 14 3.2 4.8 0 9.6.3 14.2-.6" class="b"/><path d="M12.5 152.3c2.7.4 5.6 0 8.3-.2q3.8-.2 7.5 0 4.6.4 9.1.3c2.8-.2 5.5-1.2 8.3-1.1 4.2.1 8.4 1 12.5.5l5-1c1.6-.5 3.3-1.3 5-1.5 2.2-.2 4.4 1 6.6 1.4l11.7 1.7c2.2.2 4.4-.5 6.6-.4 2.2.2 4.5.7 6.7.3q4.5-.5 8.3-3c1.8-1 3.5-3 5.8-2.5 2.8.2 5.5 1.7 8.3 2 1.6.3 3.4-.2 5 0 3 .3 5 4 8.3 3.6 2.8-.5 5-2.6 7.5-3.8q2-.9 4.1-1.2a5 5 0 0 1 3.3.2c2.8 1.4 5.2 4 8.3 4.6 3.6.6 7.3 0 10.9.1 3.3 0 6.7.4 10-.3" class="b"/><path d="M12.5 149.7c4.6 1.2 9.4 0 14.1.3q4.5 0 9.2.2 3.8.3 7.4-.7c3.3-.7 6.7-.1 10 .3q3.3.2 6.7-.3c2.5-.3 5-1.3 7.4-1.6 2-.2 4 .6 5.9 1.1q2 .4 4.1.6c3 .2 6.1.8 9.2.6 2.2-.2 4.4-1.2 6.6-1 1.7 0 3.4.7 5 1 4.4.7 8-2.2 10.8-5.2 1-.9 2-2.2 3.3-2.5 3.6-.3 6.6 2.5 10 3.3 1.6.4 3.4 0 5 .4 3 .6 5 4.2 8.3 4 4.8-1 6.8-5.5 12.4-6 1.9-.2 3.6 1 5 2q2.3 2 5 3.3c3.7 1.3 7.8.6 11.7.6 3.3-.2 6.7.5 10-.2" class="b"/><path d="M12.5 147.2c3.2 1.2 6.6.8 10 .7l11.6-.1 5.8.3c2.5 0 5-.5 7.5-.5l7.5.3q4.2 0 8.3-.5 2.4-.4 5-.5 2.4.1 5 .5 5.3.5 10.8.7c3.2 0 6-2.3 9.1-2.2 3.6.5 7.3 3.7 10.8 1.2 2-1.4 3.4-3.4 5-5.2.9-1 2-2.2 3.3-2.3 3.2-.2 6.3 1.4 9.1 2.7 2.1 1 4.6 1.4 6.7 2.5 2.6 1.2 5.1 4 8.3 3 4.3-1.1 7-6 11.6-6.2 1.9-.1 3.6 1.1 5 2.2q2.7 2 5.8 3.4c3.8 1.3 7.8.8 11.7.7 3 0 6.1.4 9.1 0" class="b"/><path d="M12.5 145.1c2.9 1.2 6 .6 9.1.6q6.3.2 12.5-.1c2.7-.3 5.6.2 8.3.3q12.4.1 25-.3 5.3 0 10.7 0c2.2.1 4.5.5 6.7 0 2.8-.4 5.3-2.6 8.3-2.2 1.7.2 3.4 1.3 5 1.9 4.3 1.8 6.5-1 9.1-4 1.3-1.5 2.9-3.4 5-3.2 2.8 0 5.7-.3 8.3.8 4.8 2 9.3 7.5 15 6.9q3.2-.7 5.8-3c2-1.4 4-3.4 6.7-3.4 3.1.4 5.4 3.2 8.3 4.4a26 26 0 0 0 13.3 2h10" class="b"/><path d="M12.5 143.2c3 1 6.1 0 9.1.2q5 .3 10 .2l6.7-.3 9 .3h19.2l11.6-.1c2 0 4 .3 5.9 0 2.7-.3 5.4-2 8.3-1.7 1.6.3 3.3 1.2 5 1.6 7 2 8.3-6.9 14-6.3 2.3.5 4.6-.5 6.7-1 6.4-1.3 7 8 15.8 7.6q3.6-.3 6.7-2.2c1.6-1 3.2-2.5 5-3.4 2.4-1.3 4.7.2 6.6 1.6q3 2.3 6.7 3.2c3.7 1 7.7.8 11.6.7q4.6 0 9.1-.2" class="b"/><path d="M12.5 141.3c2.5.6 5-.4 7.5-.4 4.4.2 8.8.8 13.3.6q4.5-.3 9.1-.7c2.5 0 5 .5 7.5.5q12.4.2 25 .1c3-.3 6 .1 9 0 2-.2 4-.8 5.9-1 2.8 0 5.5 1.6 8.3 1 4.6-.6 6.8-6.6 11.6-6.2 4 1.3 4.7.5 8.3-1.2 6.3-2.8 6.5 7.4 14.2 7.5 5.2.2 8.3-1.7 12.4-4.6q3-2 5.8 0c1.8 1.3 3.7 2.8 5.9 3.5 3.7 1.2 7.7 1.2 11.6 1 3.9-.3 7.9-.1 11.6-1.5" class="b"/><path d="M12.5 139.3c2.5.2 5-.9 7.5-1q3.3.3 6.6.8 3.3.3 6.7.2c3.3 0 6.6-.9 10-1q11.5 1 23.2 1h18.3q2.4-.4 5-.3c1.6 0 3.3.4 5 .2q3-.7 5.8-2.5c1.8-1.4 3.6-3.2 5.8-4 2.6-.8 5 1.4 7.5 1 1.7-.3 3.3-1.3 5-1.8 2.4-1 4.4.8 5.8 2.6 1.2 1.3 2.6 2.8 4.1 3.7 2.3 1.2 5 1.2 7.5 1q4.2-.6 7.5-3.2c2.1-1.5 4.3-2.5 6.7-.8 1.8 1.1 3.7 2.5 5.8 3.1q5.7 1.6 11.6.7 3.3-.4 6.7-1 2.6-.7 5-2.1" class="b"/><path d="M12.5 137c2.5 0 5-.8 7.5-.8 3.8.2 7.7 1 11.6.9q3.4.1 6.7-.4c2.7-.6 5.5-1.3 8.3-1q2.4.3 5 .5 4 .5 8.3.8c4.7.2 9.4-.2 14 0h11.7c2.5 0 5 .3 7.5-.2 4-1 7.1-4 10.8-5.7 3.5-1.6 6.5 1 10 1 4.8-.2 7.2-2.6 11.6 1.3 3.7 3.3 8.5 4.2 13.3 3.4 2.4-.4 4.5-2 6.7-3.2 2-1.3 4.6-.6 6.6.4a23 23 0 0 0 17.5 2.1q2.5-.7 5-1.6l5-2.8" class="b"/><path d="M12.5 134.7a53 53 0 0 1 12.5 0q5 .3 10 .2c3 .2 6-1.2 9-1.7 2.2-.3 4.5 0 6.7 0q3 .7 5.8 1.3 5 .6 10 .3 5.4-.5 10.8 0c4.7.1 9.6.5 14.1-.8 3.5-1 6.7-2.8 10-4 4.1-1.8 8.4.3 12.5 1 3.8.6 7.9-1.1 11.6.5q3.2 1.5 6.6 2.7 4.1 1 8.3.5c2.1-.4 4-1.7 5.9-2.5 2.6-1 5.6-.4 8.3.4 7.3 2.7 11 3.5 18.3-.2 2.2-1.2 4.2-3 6.6-4" class="b"/><path d="M12.5 132.2c2.7-.3 5.6.1 8.3.3q5.4.4 10.8.1c2.2 0 4.5.3 6.7 0q2.4-.4 5-1.3c3.1-1 6.8-1.2 10 0a29 29 0 0 0 11.5 1.4q5-.2 10-.1c4.4-.2 9 .8 13.3-.7 3-1.1 6-2.5 9.2-3 2.1-.6 4.4-1.2 6.6-1 3.9.4 7.8 1.5 11.6 2q3 .3 5.9-.4c1.3-.2 2.7-.7 4.1-.5 2.6.2 5 1.5 7.5 2.3q3.7 1.1 7.5 1.4c2.6 0 4.9-1.7 7.4-2.1 2.8-.4 5.7-.8 8.3.1 2 .6 3.9 1.6 5.9 1.9q5.7.6 10.8-2.2c2.2-1.3 4-3.5 6.6-4.2" class="b"/><path d="M12.5 129.9c2.5-.3 5 .4 7.5.6q5.7.2 11.6-.3c2.5-.3 5 .4 7.5.3 2.2-.2 4.4-1.2 6.6-1.5q2.5-.5 5-.2 2.1.5 4.2 1.1c2.4.7 5 .6 7.5.6h14c3.4 0 6.8.4 10-.5 2-.7 4-2.1 5.9-3q2.3-1 5-1 2-.4 4.1-.4c2 .1 4 .7 5.8 1q2.5.7 5 1 3 .5 5.8.3 2.7-.4 5-1.5 2.4-1.2 5-.7c2.9.7 5.4 2.4 8.3 3 2 .7 3.8 1.8 5.8 1.8q2.2-.1 4.2-.9 1.7-.4 3.3-.6 3.8-.9 7.5 0c1.9.7 3.8 1.5 5.8 1.5a24 24 0 0 0 10-1.6c2.3-1.2 4.1-3.4 6.6-4.3" class="b"/><path d="M12.5 127.7c2.2-.3 4.5.4 6.6.5q3.3.1 6.7 0c2.5 0 5-.5 7.5-.5 2.2-.1 4.4.8 6.6.6 3.3-.4 6.6-1.2 10-1 2.5 0 5 1 7.5 1h10l7.4-.2c3.6.1 7.3.4 10.8 0 2.5-.6 4.5-2.4 6.7-3.7 2-1.2 4.3-1.4 6.6-1.5 2.5-.3 5 .6 7.5 1.2 17.8 4.5 15-6.5 25-1.3q2.8 1.4 5.8 2.8c2.2 1.3 4.6 3.3 7.4 2.6q4.1-1.2 8.3-1.3c2.6 0 5 1 7.5 1.3q5 .3 10-.3 2.3-.3 4.1-1.3c1.7-1 3.3-2.5 5-3.3" class="b"/><path d="M12.5 125.4c2.5-.4 5 .4 7.5.6q5 .3 10 0c2.7-.4 5.5-.1 8.2.1 2.2 0 4.5-.5 6.7-.6l6.7.1q2.8.5 5.8.5l5.8-.3 6.6.2c4.5-.3 9 .2 13.3.1 9.5.5 7.8-7 20.8-4.4q5.4.8 10.8.3c8.4-1.6 9.4-8.1 18.3-2q2.6 1.4 5 3.1c2.1 1.8 4.5 3.8 7.5 2.8q3.2-1 6.6-1c2.5 0 5 .9 7.5 1.1q3.7.2 7.5 0c2.7 0 5.8.2 8.3-1.1q2-1.4 4.1-2.6" class="b"/><path d="M12.5 123.2c2.7-.3 5.6.2 8.3.4q6.2.4 12.5.3 2.4.1 5-.1 4-.8 8.3-.5 4.5.4 9.1.7c2.2 0 4.5-.8 6.7-1 2.2 0 4.4.5 6.6.6 4.4.1 8.9.5 13.3.3 6.5.1 5.9.3 11.6-2.8q2.8-1.1 5.9-1c2.4 0 5 .5 7.4.2 2.8-.5 5.8-.9 8.3-2.3 7.9-4.2 9.7-6.9 17.5-.3l5 3.5c2 1.7 4.6 3.4 7.5 2.5q3.2-1 6.6-.7 3.3.5 6.7.8 4 .2 8.3.1 3.7.2 7.5-.4 2.4-1 5-2" class="b"/><path d="M12.5 121.2c4.4-.2 8.9.2 13.3 0q4 .5 8.3.5 2.6-.1 5-.8 2.5-.6 5-.2c3.8.6 7.8 1.3 11.6 1 2.8-.4 5.4-2.4 8.3-1.7q2.5.7 5 1.3 3 .4 5.8.4c3 .2 6.1-.3 9.2-.4q2 .1 4.1.4c3.2.2 6-2 9.2-2.4 2.7-.5 5.5.1 8.3-.3a28 28 0 0 0 7.5-2.7c1.7-1.1 3.3-2.7 5-4 5.2-4.2 8.2-2.7 12.4 1.8 2.2 2.3 4.6 4.6 7.5 6a13 13 0 0 0 5 1.6c2.7.1 5.5-1 8.3-.7q3.3.3 6.6.7h10q3.3 0 6.7-.3 2.4-.6 5-.8" class="b"/><path d="M12.5 119.3h8.3q3.4-.1 6.7-.1 3.7.3 7.4-.1c1.7-.2 3.4-1 5-1.2 2.3-.2 4.5.6 6.7 1q3.7.8 7.5.6c3-.3 5.3-2.9 8.3-2.8 1.7.2 3.3 1.2 5 1.8 3.4 1.2 7.2 1.1 10.8 1 2.4-.3 5-1.4 7.4-1l3.4.9c3 .6 6-.9 9-1.2 2.5-.4 5.1 0 7.6-.5 2.4-.5 4.6-2 6.6-3.2 1.6-1.1 3-2.8 4.2-4.2 3.2-4 6.8-7.4 10.8-2 2.6 3.2 4.6 7.3 8.3 9.5q3.6 1.8 7.5 1.7c2.2 0 4.4-.5 6.6-.5q3.8 0 7.5.4 4.1.2 8.3.1c4.7.2 9.4-.5 14.1-.3" class="b"/><path d="M12.5 117q7 .4 14.1.1c3.7 0 7.5-.1 10.8-1.7 2.2-1 4.6-.2 6.7.7a16 16 0 0 0 10 .9c1.7-.5 3.3-1.6 5-2.4 2.5-1.4 5 .2 7.4 1.3q2.8 1.2 5.8 1.4 3.9.5 7.5-.9c1.9-.7 3.8-1.7 5.8-1.5 1.5.1 2.9 1 4.2 1.6 2.6 1.3 5.5.8 8.3.5 2.4-.3 5 0 7.5-.5 3.6-.6 6.9-2.9 9.1-5.7 3-3.7 7-12 11.6-5.2 8.2 12.7 7.2 12 22.5 11.6l30.7.2" class="b"/><path d="M12.5 114.7q6.2.6 12.5.4c3.7 0 7.6-.2 10.8-2.4 5.3-3.6 7.9 2.5 13.3 2.5q3.8.1 7.4-1.6a8 8 0 0 1 7.5-.3 20 20 0 0 0 11.6 1.6c2.8-.6 5-2.6 7.5-3.7s4.6-.4 6.7 1.2q2.6 2 5.8 2.5 3.4.4 6.6.3c3.6 0 7-.2 10-2.4 3.8-2.3 7.3-13.2 12.5-9.2 3.6 3.3 5.3 8.8 10 11q2.4.8 5 .6h6.6q16.6 0 33.2-.2" class="b"/><path d="M12.5 112.3q5.8.8 11.6.7c4.9 0 8-.3 11.7-3.7 3.5-3 6.1.2 9 2.2 4 2.8 9 .9 13.4.1 1.6-.2 3.4.3 5 .6q2.9.5 5.8.7c7.7.7 9-3.6 15-5.7 1.6-.4 3.4-.7 5 .2 2.4 1.3 4.7 3 7.4 3.7 3 1 6.2 1 9.2 1.6 9.9 2 10.5-8.8 16.6-9.7 5 .5 7.7 8.5 13.3 9.7 3.3.6 6.7.2 10 .3H162q5.9 0 11.6-.7l5.8.1" class="b"/><path d="M12.5 110.2c3.8.8 7.8.6 11.6.6 5.3 0 7.8-.3 11.7-4.1q2.7-2.5 5.8-.4c6.6 5.4 7.6 4.6 15.8 4.2 2.7 0 5.5.4 8.3.3q3.7.2 7.5-.7c3-1 5.3-3.7 8.3-4.9q2-.7 4.1-1 1.6-.4 3.3-.4 6.9 1 13.3 3.5c2.3 1 4.2 2.9 6.7 3.4 5 .7 7.4-4.4 10.8-7 3.9-2.8 7.8 1.6 10.8 3.8 3.7 3 6.1 3.5 10.8 3.3h24q4.3-.2 8.4-1.1c1.9-.2 4 .3 5.8.4" class="b"/><path d="M12.5 108.5c3.6.3 7.2-.2 10.8 0 5.3.2 8.3.6 12.5-3.2q3.1-2.4 6.6-.3c2.4 1.3 4.7 3 7.5 3.3q7 .6 14.1 0c4.5 0 8.7.5 12.5-2.4a15 15 0 0 1 5.8-2.6q2-.2 4.1-.6l7.5-2.4c4.3-1.6 8.1 1 10.8 4.1 1.2 1.4 2.5 3 4.2 3.8 2.3 1 5 0 6.6-1.8 1.6-1.5 3.1-3.4 5-4.6 4.3-2.4 8.3 2.1 11.6 4.3 4 3 7.8 2.5 12.5 2.5H167q3.4-.1 6.7-1 3 0 5.8.4" class="b"/><path d="M12.5 106.4q5.9-.9 11.6-.3c5.7.5 7.4.8 12.5-2 3.2-1.4 6.7-.1 10 .8q6 1.6 12.4 1.4c2 0 3.9-.7 5.8-.6 5 .2 7.8.7 12.5-1.6 8-2.9 8.6.8 16.6-6.7 5.5-5.8 8.5-.5 11.6 4.3 1.5 2.3 3.5 5.3 6.7 4.6 2.7-.4 4.6-2.9 6.6-4.6 6.2-5.6 8.9-1.5 14.2 2.4 3.3 2.5 7.6 2.4 11.6 2.3q5-.2 10 0 6.6-.4 13.3 0 3.3-.1 6.6-.5h5" class="b"/><path d="M12.5 104c2.2-.3 4.4-.8 6.6-.7q5.4.5 10.8 1c2.6 0 5-1 7.5-1.6q4.5-.5 9.2-.3c3.9-.1 7.7 1.3 11.6 1.3 2 0 3.9-.7 5.8-1 2.2-.3 4.5.2 6.7.3q2.9.2 5.8-.7 2.9-.6 5.8-.8c7.1.2 9.3-3.6 13.3-8.7 3.1-4.2 6-2.6 8.3 1.4 2.2 3.2 3.8 9.5 8.3 10 4 .3 6.8-3.4 10-5.2 2.3-1.7 4.2-2 6.6-.4 5.9 4.5 7.2 5.7 15 5.6l5.8-.2 5 .2c2.5 0 5-.7 7.5-.6s5 .6 7.5.6q5-.2 10-.6" class="b"/><path d="M12.5 102c2.2-.2 4.4-.8 6.6-.8q5.4.5 10.8.8c2.8.2 5.6-.8 8.4-1q2.9 0 5.8-.4c1.9-.3 3.8-1 5.8-1.2 2.2 0 4.5.7 6.6 1q3.5.6 6.7-1 3.2-1.2 6.6-.6t6.7.2H83c6.9.4 9.6-4.2 13.3-9 7.8-9.2 9.8 7.4 15 10.6 3.7 2.5 6.7 1.2 10-1.2 1.3-1 2.6-2.3 4.1-3 2.8-1 5.3 1.4 7.5 2.8q2.3 1.6 5 2.1 3.3.7 6.6.7 3-.1 5.9-.3c1.9 0 3.9.4 5.8.3s3.9-.8 5.8-.8c2.2 0 4.5.7 6.7.8q5.3.1 10.7-.8" class="b"/><path d="M12.5 99.8c2.2.1 4.4-.5 6.6-.5l8.4.3c3.8.6 7.7-.4 11.6-.5q3.4.1 6.6-1c2-.6 3.8-1.8 5.9-2 1.9 0 3.9.6 5.8.8 2.8.5 5.2-1.1 7.5-2.5 3.5-2 6.2-1.3 10-.3 9.4 2.5 14.5 3.8 21.5-4.3 8-8.7 8.3-4.5 13.3 3.4q2.1 3 5 5.4c2.4 2 5.3 1.2 7.5-.5 3.5-3 5.4-5 10-2.2q4.2 2.8 9.1 3.4c3 .8 6.1.4 9.1.1 2.8-.2 5.6.8 8.3.2a15 15 0 0 1 4.2-.5c1.6 0 3.4.5 5 .6q5.9.4 11.6-.9" class="b"/><path d="M12.5 97.5q3 .3 5.8-.2 2.5-.3 5-.1 4.2.2 8.3.4 4.2-.2 8.3-.5 3.6-.1 6.7-1.6c1.6-.9 3.2-2.1 5-2.6 3-.8 6.2.3 9.1-1 5.7-3.2 6.9-7.3 14.1-3.5 3.8 1.8 7.4 4.5 11.7 4.9 5.5.7 9.9-3.2 13.3-7.1 3.7-4.8 5.6-5.7 9.1 0q2.4 3.5 5 7c2 3 4.6 6 8.3 3.5 3.6-2.7 6-6 10.8-3.3q3.2 1.7 6.7 3 3 1.4 6.6 1.2 2.9-.3 5.8-.5 2.1.1 4.2.5c2.2.3 4.4-.7 6.6-.6 5.5.6 11.2 1.1 16.6 0" class="b"/><path d="M12.5 95.3c2.2.4 4.5-.2 6.6-.3q3-.2 5.9-.1 4 .2 8.3.5 4.5 0 9.1-.8c6.9-1.8 6.5-5.8 15-6.3 5-.2 7.1-5.7 11.6-7 3.6-.5 7.2 2.1 10 4.1 4.8 4 9.5 6.8 15.8 3.9q2.8-1.5 5-4c1.8-2 4.3-5.7 7.4-3.9 2.3 1.6 4.2 4.1 5.8 6.4 2.2 3 4.5 9 9.2 7.3 3.8-1.9 6.8-6.5 11.6-4.2 4 1.8 7.8 5.2 12.5 4.4 2.1-.3 4.4-.8 6.6-.5q2.5.6 5 .6c2-.1 4-.6 5.8-.5 5.3.1 10.6 1 15.8.3" class="b"/><path d="M12.5 93.2c2.2.2 4.5-.3 6.6-.5q3.3-.1 6.7-.1c3.9-.2 7.7.9 11.6.6A20 20 0 0 0 50 87.9q1.9-1.4 4.1-2c2.2-.4 4.7-.5 6.7-1.6 2-1.4 3.7-3.7 5.8-5q3.1-2 6.7-.9 2.7.5 5 2.2c4.6 3.7 7.3 8.7 14 7.6 6-.7 7.7-4.4 12.5-6.3 2.7-.9 5.6.5 7.5 2.4 2.4 2.5 3.8 6.2 6.7 8.2 4.5 2.8 8.1-3.1 12.4-3.7 2.1-.4 4.1 1 5.8 2 2.3 1.3 4.8 2.7 7.5 2.4 2.2-.2 4.4-1 6.7-.9 2.2.2 4.4 1 6.6 1q6.7-.7 13.3-.7c2.8 0 5.6.8 8.3.6" class="b"/><path d="M12.5 91c2.5 0 5-.6 7.5-.6h10c1.9 0 3.8.5 5.8.6q3 0 5.8-.8 3.5-1 6.6-2.9c1.6-1 3.1-2.3 5-2.7 2.2-.4 4.6-.2 6.7-1 2.5-1 4-3.8 6.6-5 2.3-1.3 5-1 7.5-1 4.6-.6 7 4.2 10 6.9 2.3 2.6 5 3.1 8.3 2.6q4.3-.5 8.3-2.2 3.2-1 6.6-1.7c4.1-.7 6 1 8.4 4 3.5 4.4 6.7 4.9 11.6 2 6.1-3.4 7-.6 12.4 1.3q3 .9 5.9.3c1.8-.4 3.8-1.1 5.8-.9 1.9.2 3.9.9 5.8 1q4.1.3 8.3-.2 3-.4 5.8-.9c2.8 0 5.5 1.2 8.3 1.2" class="b"/><path d="M12.5 88.8q2.4-.4 5-.6 2.9-.2 5.8.1c2.5.3 5-.1 7.5 0 1.9.2 3.9.7 5.8.5 2.5-.2 5-1 7.5-1.5l4.1-1.1c1.6-.7 3.2-1.8 5-1.8 2-.2 4 0 5.8-.2s3-1.3 4.2-2.4q2.2-1.8 5-2.7c1.6-.5 3.4-.5 5-.9 1-.3 2.2-.8 3.3-.6 4.9 1.4 6.5 8 11.6 9 2.5.4 5 0 7.5-.3l4.1-.6 5-.7c6-1.4 6.6-2.4 11.7 2 6.7 5.3 11-2.5 17.4-.6 4 2 8 3.2 12.5 2 1.8-.6 3.8-1.2 5.8-.9s3.9.9 5.8 1q4.6.6 9.2 0c1.6-.2 3.3-.8 5-.8 2.4 0 5 .8 7.4 1" class="b"/><path d="M12.5 86.3q2.4-.7 5-.7 3.3.2 6.6.7 5-.1 10 .3c2.5.3 5-.4 7.5-.7q3.4-.2 6.6-.5 2.1-.5 4.2-1c2.4-.2 5 .2 7.5-.3 1.8-.2 3.3-1.6 5-2.4q3-1.7 6.6-2.6c2-.4 3.8-2.2 5.8-1.3s3.5 3 5 4.7c3 3.5 5.6 3.8 10 3.6 3.8-.2 7.8-.2 11.6-.8 2.8-.4 5.5-2 8.3-1.4 3.1 1 5.6 3.5 9.2 2.6 4.1-.8 8-4.6 12.4-2.7q2.8 1.6 5.8 2.5 3.8.9 7.5-.3 3.7-1.5 7.5-.8 6.1 1.3 12.5 1.5c1.9-.1 3.8-.8 5.8-.8q3.3.1 6.6.4" class="b"/><path d="M12.5 83.2c3-1.5 6.1-.4 9.1.4q3.4.8 6.7.6l6.6.3 5.9-.2q6.2.2 12.4-.6c2.7-.3 5.6-.1 8.3-.7 4.5-1.5 9.2-2.7 13.3-5.1 4-1.4 6.5 4.8 10 6 2.4.9 5 .5 7.5.6q5.4 0 10.8-.3c3.6-.2 7.2-2 10.8-.5 6.8 2.9 10.6-3 16.6-4.3 2.2-.4 4.2.8 5.8 2.1a18 18 0 0 0 5.8 2.8c3.1.7 6.2-.8 9.2-1.3s6.1.4 9.1.8c2.7.3 5.6.8 8.3.6q2.5-.4 5-.7 3-.2 5.8.3" class="b"/><path d="M12.5 80c2.1-1.2 4.6-.6 6.6.3Q22 81.6 25 82q7.8.4 15.8.4 7 0 14-.3c4.8-.2 9.6-.1 14.2-1.3 2.4-.5 4.4-2 6.7-2.7 3.6-.5 5.7 3.7 9.1 4.2 2.5.2 5-.2 7.5 0h11.6c2.2-.2 4.5-.7 6.7-.7 2.5 0 5 1.3 7.4.5 4.7-1.3 9.6-7.9 14.2-7.6 2.4.3 4 2.5 5.8 4 4.6 4.5 6.4 4.4 12.5 3 3-.6 6.1 0 9 .4q3.5.5 6.7.5 3.8-.1 7.5-1 3-.3 5.8.3" class="b"/><path d="M12.5 77.5c2.5-1.2 5.1 0 7.5.9q2.8 1.1 5.8 1.3c5 .5 10 .3 15 .4l25.7-.1q3 0 5.8-.9c1.9-.6 3.8-1.6 5.9-1.2 1.7.3 3.3 1.3 5 1.8q2 .5 4 .3c3.1-.3 6.2.2 9.2 0q6.8 0 13.3-.6 2.6 0 5 .6c4 .6 6.5-3.3 9.2-5.5 3-3 7.6-7.5 11.6-3.3 3.4 3 5.5 9 10.8 8.9 2.2 0 4.4-.6 6.6-.6q3.3.2 6.7.5h9.1c3.6-.3 7.2-1.8 10.8-.7" class="b"/><path d="M12.5 75.8c2.5-.7 5 0 7.5.7q3.2 1 6.6 1c3.6.6 7.2.3 10.8 0 10 .7 20 .3 30 .3q2.9.2 5.7-.1 2.6-.5 5-.8c2.3 0 4.5.8 6.7 1q2.9-.2 5.8 0 6.7 0 13.3-.5c3.3-.2 6.8-.9 10 .3 2.7 1 5-1 6.6-3.1q2.3-3 5-5.7c3.5-3.4 7.4-4.2 10.8-.2 3 3.2 5.1 8.5 10 9.1q3.4.2 6.6 0 3.7.2 7.5 0h10c3-.2 6.1-1 9.1-.4" class="b"/><path d="M12.5 74.3c3-.2 6.1.4 9.1.7 3 .1 6.1.7 9.2.7 2.5 0 5-1.5 7.5-1.3 2.2.2 4.4 1 6.6 1 6.4.6 12.8.2 19.1-.1q4.2-.1 8.3.4 3.4 0 6.7-.5 2.9.1 5.8.4h7.5q7.5-.2 15-.8 3.7-.4 7.4.8c4.5.8 6.5-4.6 9.1-7.3 3.2-3.7 7.3-6.3 11.7-2.7 4.3 3.8 6.6 10 13.3 10q7 .2 14.1 0 8.3.2 16.6 0" class="b"/><path d="M12.5 72.8q6.2.4 12.5.3c3.2.3 6 1 9-.8 2.2-1.3 4.3-2 6.7-1.1 3 1 6 2 9.2 2.2 5 .4 10-.9 15-.7 3 0 6 .7 9 .8q3.4-.2 6.7-.2 3.4.2 6.7.2c3.6 0 7.2.2 10.8-.2 5.5-.6 11.2-1.5 16.6 0 3.6 1.1 6.3-2 8.3-4.5 2.7-3 6.3-7.3 10.8-5.8 4.9 1.7 6.8 7.7 11.6 9.4 2.1.8 4.5.8 6.7 1q4.1 0 8.3-.2c2.5 0 5 .4 7.5.3q5.8-.3 11.6 0" class="b"/><path d="M12.5 71.1c3.6.4 7.2.2 10.8.2 2.4-.1 5 .2 7.5-.2 3.2-.5 5.7-3.4 9.1-3.3 2.7-.1 5.1 1.2 7.5 2.2 4.6 2 7 1.3 11.6.6 5-.2 10 .4 15 .7l14.1-.1q4.2.2 8.3 0c2.2 0 4.5-.5 6.7-.7q3.7-.4 7.5 0c5.3 0 7.9 2.7 12.4-1.9 2.7-2.4 5.3-5.8 9.2-6.2 5.5-.5 7.8 5.8 12.4 7.6 2.3 1 5 .8 7.5.9h8.3c2.5 0 5 .4 7.5.4q2.9-.1 5.8-.4 3-.1 5.8.1" class="b"/><path d="M12.5 69.1c1.9-.1 3.9-.6 5.8-.6 2.2 0 4.5.5 6.7.5 2.7 0 5.6 0 8.3-.8q3-1 5.8-2.3c2.4-1.2 5-1.7 7.5-.3 5.7 3.2 5.7 4 12.4 3.2q8 0 15.8.3h7.5l5-.5c2.8-.1 5.6.4 8.3.5 2.5.2 5-.5 7.5-.8q2.9-.4 5.8-.1c1.9.2 4 0 5.8.4 2.9.6 5.8 1 8.3-.8 2.2-1.5 4.2-3.4 6.7-4.4 2-.8 4.5-.7 6.6 0 1.8 1 3.4 2.5 5 3.6a12 12 0 0 0 7.5 1.9c7-.4 13.9 0 20.8.2 3.3 0 6.6-.7 10-.5" class="b"/><path d="M12.5 66c2.6-1.1 5.4-2.3 8.3-1.3q4 1.5 8.3 1.6a18 18 0 0 0 8.3-1.2c2.1-.7 3.9-2.4 5.8-3.4 4-1.9 7 2.4 10 4.2 2 1.1 4.4 1 6.7 1h8.3q5.3-.1 10.8 0c2.5 0 5-.8 7.5-1 2.7-.2 5.5.5 8.3 1q2.9.3 5.8-.4 4.5-1 9.1-.5 3.3-.2 6.7.6c4.3 1 6.3-.5 10-2.3a13 13 0 0 1 8.3-.5c2.6.3 4.9 2 7.4 2.7 4.4.9 9 .3 13.3.3l15.8.1c2.8 0 5.6-.7 8.3-.7" class="b"/><path d="M12.5 62c3.8-2.3 6-2.5 10-.4q4.6 2.2 10 2.5c3.4.1 6.7-1.4 9-3.9 1.3-1 2.6-2.4 4.2-2.8 3.6-.3 5.5 3.7 8.3 5.2 2.5 1.7 5.5 1.6 8.3 1.6q2.6.4 5 .5H74q3.4.1 6.6-.4c2.2-.4 4.4-1.3 6.7-1 2.2.1 4.4.8 6.6 1.1q3.4.5 6.7.2 6.1-.9 12.4-.6c5.5.8 6.3 1.3 11.7-.8 2.7-1 5.6-.5 8.3.2q3.7.8 7.5 1.3c3.3 0 6.6-.4 10 0q8.6.1 17.4 0 2.5.1 5-.1c2.1-.3 4.4-1 6.6-1" class="b"/><path d="M12.5 59a10 10 0 0 1 9.1 0q3.3 1.5 6.7 2.4c3.9 1 8.5.8 11.6-2 1.9-1.6 3.5-3.8 5.8-4.6 2-.5 3.6.9 5 2q2.3 1.9 5 3.2c3 1.1 6.2 1 9.2 2 3.2.9 6.6.4 10 .5q2.9 0 5.7-.6c2-.4 4-1 5.9-1 2.7.3 5.5 1.1 8.3 1.3 5.5.6 11 .2 16.6.1 2.2 0 4.5.4 6.6.2 2.3-.3 4.5-1.3 6.7-1.5 4-.7 7.7 1.2 11.6 1.5 2.2.2 4.5-.3 6.7-.6q2.9-.2 5.8 0 4.6.2 9.1.3 6.3.5 12.5.2c3.1 0 6-1.9 9.1-1.8" class="b"/><path d="M12.5 56.8c6.6-1.3 12.5 3.4 19.1 3.3q5.8.3 10-3.6c1.2-1 2.6-2.2 4.1-2.6 2.4-.5 4.5 1.2 6.7 1.8 3 1 6.2 1.3 9.1 2.5 1.8.9 3.7 2 5.8 2q5 .3 10 0c2.8-.3 5.5-1.4 8.3-1.3q3.3.5 6.7 1 5-.2 10 0c4 .2 8.3.7 12.4.3 2.5-.1 5-1 7.5-1.4q3.3-.1 6.6.4 3 .8 5.8 1.1c2.6.3 5-.8 7.5-1.4q2.5-.3 5 .2c3.3.5 6.7 0 10 .2 3.3.4 6.6 1.2 10 1q3.4-.2 6.6-1.5c1.8-.7 3.8-1.7 5.8-1.4" class="b"/><path d="M12.5 55c4.8 0 9.4 2 14.1 2.9a38 38 0 0 0 12.5-.6c3.3-1.5 6-4.2 10-3.4 2.2.4 4.4-.3 6.6-.5 4.2-.3 6 2.1 9.1 4 2.6 1.2 5.6.7 8.4.7 4.4.2 8.8-2 13.3-1q3.7.9 7.4.6 5-.6 10-1c3 0 6.1 1 9.1.6 3-.2 6.1-1.5 9.2-1l8.3 1.3c3.4.8 6 .8 9.1-1 3-1.7 5.2-1.2 8.3-.3 2.2.4 4.5.2 6.7.2 2.5 0 5 .7 7.5 1.2q3.7.6 7.5-.5l4.1-1.4c1.8-.8 3.9-1.7 5.8-1" class="b"/><path d="M12.5 53.3c4.5 0 8.9 1.8 13.3 2.5 2.7.5 5.5-.3 8.3-.2 5.9.7 6.3.4 11.6-1.7q2.5-.7 5-1 2.6-1.1 5-2.2c5.4-2 7 4.5 11.6 5.2q4.2.3 8.4-.4c2.1-.4 4.4-1.1 6.6-1.2 3 0 6 1.4 9.1 1.4q3.4 0 6.7-.5 2.5-.1 5-.7c2.7-.7 5.5-.3 8.3-.2q3 0 5.8-.6 2.1-.3 4.2 0 2 .7 4.1 1.3c3.3.5 6.7 1.4 10 .7 1.8-.4 3.4-1.7 5-2.6 3.7-2.6 6.2.2 10 .6q3.7.3 7.4.8c2.5.6 5 1.3 7.5 1.1 2.9 0 5.5-1.4 8.3-1.9 1.9-.5 4-1 5.8 0" class="b"/><path d="M12.5 52.2q4.2 0 8.3 1c2.2.3 4.5.8 6.7.4 2.4-.4 4.9-1.9 7.4-1.6 5.1 1.3 6 2.6 11.7 1.1a20 20 0 0 0 5-1.7c2.5-1.3 5.2-4 8.3-3 2 .8 3.3 2.8 5 4 3.4 2.5 7.9 1 11.6 0q4.1-1.5 8.3 0c5 1.8 10.5 1.4 15.8 1 2.5-.3 5-1.1 7.5-1.3h5q3.2-.2 6.6 0c2.8.4 5.5 1.5 8.3 1.5 3.4.3 7 .4 10-1.6 1.6-1 3.1-2.5 5-3 2.4-.8 4.5 1.2 6.6 2 2.4 1 5 1.1 7.5 1.4 3.3.3 6.6 1.2 10 .7 4-.5 8.4-2.2 12.4-.5" class="b"/><path d="M12.5 51q4.2-.2 8.3.3c2.5.4 5.2.5 7.5-.7 2.1-1 4.2-2.8 6.6-2.6 1.8.3 3.4 1.5 5 2.2q3.6 1.7 7.5 1.3c5.2-.2 9.2-7.7 14.1-4.4 5.6 4.5 7.3 6 14.2 2.6a8 8 0 0 1 7.4-.2q3.7 1.7 7.5 2h10.8c2.5 0 5-.6 7.5-.9q4.5-.1 9.1.3 3.8.4 7.5.7 4.6 0 9.2-1c2.5-.4 4.5-2.2 6.6-3.4 2.3-1.5 4.7-.5 6.7 1 3.7 3.2 8.8 2.4 13.3 2.7q4 .3 8.3 0c3.3-.5 6.7-.8 10 .3" class="b"/><path d="M12.5 49.2q3.8-.2 7.5 0c3.2.3 6.4.4 9.1-1.6 1.8-1 3.6-2.7 5.8-2.8 1.9.2 3.4 1.6 5 2.3q3.5 1.9 7.5 2.3c5.4.3 9.4-8 15-4.1 5.7 3.8 6.7 6 13.3 1.6 2-1.3 4.4-1.7 6.6-.4 5.8 3.7 9.4 2.8 15.8 2.6 2.2-.2 4.5.2 6.7.3 2.4 0 5-.4 7.4-.3 4.7.2 9.5.6 14.2 0q3.3-.8 6.6-1.8c1.6-.4 3.5-.4 5-1.1 2.9-1.4 5.5-2.1 8.3 0 1.3.8 2.7 2 4.2 2.5 3.2 1 6.6.5 10 .4h9c3.4 0 6.8-.3 10 .2" class="b"/><path d="M12.5 47.2c3.9-.4 7.8-.1 11.6 0 5.2.2 7.6-4.5 11.7-4.2 2 .6 3.8 1.8 5.8 2.4 2.8 1 6.2 2.7 9.1 1.1 7.2-4.6 8.2-6.8 15.8-.9 4.5 3.6 6.7 0 10.8-2 3.4-1.6 6.1 1.9 9.1 2.9 4.4 1.7 9-.3 13.3-.5 2.3 0 4.5.8 6.7 1q4.1.4 8.3.1c3.6-.2 7.3 0 10.8-.6 3.2-.7 5.9-3 9.1-3.4q2.6.2 5-.1 2.3 0 4.2 1c7.4 4.7 5.4 2.6 13.3 3 7.4.4 15 0 22.4.2" class="b"/><path d="M12.5 45q4.2-.3 8.3-.3c2.5 0 5 .6 7.5 0q2.2-.6 4.1-1.6 2-1.2 4.2-1 3.8 1 7.5 2.2c2.5.8 5.2 1 7.4-.5 8-5.5 8.3-5 15.8.4 2 1.3 4 .7 5.9-.6s4.2-2.8 6.6-2.2c1.8.5 3.4 1.8 5 2.6q3.2 1.5 6.6.8c3-.7 6-2.2 9.2-2.1 2.2.3 4.4 1.3 6.6 1.7 3 .6 6.2.3 9.2.1 3.8-.3 8 .6 11.6-1.2 2-1 3.7-2.4 5.8-2.9a6 6 0 0 1 2.5.2q1.7.1 3.3.6c2.1.6 4 2 5.9 3 3.4 2 5.8-.4 9-.8 2-.2 4 .7 6 1h5.7c4.5-.2 8.9.8 13.3.6" class="b"/><path d="M12.5 42.8c2.7 0 5.5-.6 8.3-.6s5.6.5 8.3.6c3 .2 5.4-1.9 8.3-1.8 4.4.4 9 3.1 13.3 1 3.7-1.4 7.6-6 11.6-3 1.7 1 3.2 2.8 5 3.6 4.5 1.4 6.1-5 12.5-2.3 6.4 3.6 9.2 3 15.8.2 2.4-1 5-1.9 7.5-.9 2.1.8 4.3 1.8 6.6 2 2 .3 4 0 5.8.1 3.6 0 7.3 1.2 10.8.3 2.8-.7 5-2.8 7.5-3.7 1.4-.4 2.9.2 4.2.5 1.8.6 3.4 2 5 3 1.7 1.2 4 1.3 5.8.3 2.6-1.4 5-4.2 8.3-3.2q2 .8 4.1 1.4c2.8.4 5.6.3 8.4.8 3.2.8 6.5 1.7 10 1.6" class="b"/><path d="M12.5 40.5c1.9.3 4-.2 5.8-.4q3.8-.5 7.5-.3c2.2 0 4.4.8 6.6.8 2 0 4-.9 5.9-.8q2.9.2 5.8.7 5.1.4 10-1.7c3.2-1.5 6-3.1 9-.3 1.3.9 2.7 2 4.2 2.1 2.3 0 3.9-2 5.9-2.7 5.3-1.3 7.1 4.7 16.6 2a40 40 0 0 0 6.6-2.6c2.5-1.3 4.9-2 7.5-.8 2.4.9 4.9 2.2 7.5 2.2 4.8-.2 9.4 1.8 14.1 1.4 6.3-.6 8.5-6 15-1.3 1.2.8 2.6 1.8 4.1 1.8 3-.3 5.3-2.4 7.5-4a6.4 6.4 0 0 1 7.5-.9c2.6 1.3 5.6 1.4 8.3 2.4q3 1 5.8 2 3 .5 5.8.5" class="b"/><path d="M12.5 38c2.1.8 4.5.3 6.6 0q4.2-.8 8.4-1.2c2.6-.2 4.9 1.4 7.4 1.6q4.2-.2 8.3 0 6.8.1 13.3-1.5c7-2.3 6.9 4.3 13.3 0q2.3-1.5 5-1c2.2.9 4.3 2.3 6.7 2.5q3.4.2 6.6-.6 4.8-.9 9.2-3.2c4.9-3 7.8.1 12.4 1.3q2.1.3 4.2.3c4.4.3 8.8 1.7 13.3 1.2 7.2-.7 7.6-3.7 15 .6 1.6.8 3.5.2 5-.6q3-1.5 5.8-3.5c4.7-3 7 0 11.6 1.3 7 3 7 3.4 15 3.2" class="b"/><path d="M12.5 35.2c3.5 2.2 8 .3 11.6-.5 2.2-.6 4.4-1.8 6.7-1.2 2.2.8 4.2 2.5 6.6 2.6 5.3.3 10.6-.2 15.8-.1 2.5 0 5-.6 7.5-.4 3.8.8 4.7 1 8.3-.8 4.7-2.3 7.7 1.8 12.5 1.4C85.3 36 89.3 36 93 35c2.3-.7 4.4-2.2 6.6-3 4.1-1.2 7.7 2.5 11.7 2.3q4-.3 8.3-.2c3 .1 6 .7 9.1.8 3.9.2 8-1.4 11.6.5q2 .9 4.2.9c3.2-.6 6.2-2.3 9.1-3.7 2.1-1 4.6-1 6.7 0q2.5 1 5 1.8c2 .9 4.3 2 6.6 2 2.5-.3 5-.8 7.5-.5" class="b"/><path d="M12.5 32.8c3.9 2.8 10 0 14.1-1.4 1.8-.9 4-1.5 5.8-.6 1.4.6 2.8 1.6 4.2 2 3 1 6.1.8 9.1.9l7.5.2 8.3.1c2.9.4 5.6-1 8.3-1.5 2.6-.4 5 .6 7.5 1.2q3 .5 5.8.3c3.9-.1 7.9.3 11.7-.7q2.4-1 5-2c3.9-1.4 7.7 1.4 11.6 1.1q3.7-.3 7.5-1.1 2.8-.6 5.8-.1 4 1.1 8.3 1.3c1.9 0 4-.2 5.8.2 2.4.6 5 1.8 7.5 1.2 4.2-.6 8.1-3.4 12.4-2.5q5 1.6 10 2.6c2 .3 4-.6 5.8-1.2q2.5-.7 5 0" class="b"/><path d="M12.5 30.8c3 1.8 6.7.8 10 .1l4.1-1c1.6-.6 3.3-1.4 5-1.4 2.9.2 5.5 1.8 8.3 2.1q6.2.9 12.5 1.1c4.7 0 9.5.6 14.1-.9 3.8-1 7.8.2 11.6.8q5.5.4 10.8.2c2.5-.1 5 .3 7.5-.1 3-.6 6-2.2 9.1-2l4.2.6q3 .1 5.8-.4c3-.5 6-2.2 9.2-1.7q2.9.8 5.8 1.7 3.2.7 6.6.7c2.8.1 5.5 1.5 8.3 1.3 3.6-.3 7.2-1.2 10.8-1.2 3 0 6.1.9 9.2 1 7.4 1 6.8-4.9 14.1-2.1" class="b"/><path d="M12.5 29c3.2 1.2 6.7.3 10 0q2-.2 4.1-.5c2.2-.4 4.4-1.2 6.7-1.1 2.8 0 5.5 1 8.3 1.2q7.5.6 15 1 2.8.1 5.8-.2c2.4-.5 5-1.3 7.4-1 6.1.2 12.3 1.8 18.3.5a13 13 0 0 1 5-.2c2.4.6 5 1.3 7.5.7 1.6-.4 3.3-1.2 5-1.4 3.5-.4 7.2.5 10.8-.2 2.5-.3 4.9-1.7 7.4-2 3-.1 5.6 1.4 8.4 2 2.4.6 5 .5 7.4 1.1q2 .6 4.2.7l6.6-.3c4.2-.1 8.4.3 12.5.3 2.2 0 4.6 0 6.7-1.1 4.4-2.6 4.3-4.5 10-1.8" class="b"/><path d="M12.5 27c3 .8 6.1.2 9.1 0h5.9q4.5-.6 9-.6c5.3.7 10.6.5 15.9.7l7.5.3q2.9-.2 5.8-.8 3.3-.3 6.6 0 2.6-.1 5 0c4 .4 8.2.8 11.7-1.3 5.6-3.4 7.5 3.3 13.3 2 1.6-.4 3.3-1.1 5-1.2 3.2-.3 6.6.5 10 0 2.7-.3 5.3-2.2 8.2-2.1 2.3 0 4.5.8 6.7 1.4l5 1c1.6.2 3.3.8 5 1q2.4 0 5-.3c3-.1 6 .4 9 .3q3 0 5.9-.3 2.5 0 5-.6c6.2-1.6 5.2-5.8 12.5-2" class="b"/><path d="M12.5 25c3 .5 6.1.1 9.1 0q10 .1 20 .1h13.3l5 .2q2.4-.1 5-.6c2.4-.3 5 0 7.4 0l4.2-.2c3 0 6.2.4 9.1-.8 2.7-1 4.4-4.5 7.5-4 1.7.4 3 2 4.2 3a9 9 0 0 0 5 2.6c2.1 0 4.4-.8 6.6-.7 2.7-.2 5.6.3 8.3-.1 2.9-.3 5.4-2.2 8.3-2.2 2.5-.2 5 .7 7.5 1.2q3.4.6 6.6 1.4c2.5.7 5 0 7.5-.1q3 .2 5.8.5c4 0 7.7-1.7 11.7-1.6q2.5 0 5-1c1.3-.3 2.7-1.3 4.1-1.7 2-.2 4 1 5.8 1.7" class="b"/><path d="M12.5 22.6q4.5.8 9.1.3l8.3.2h20.8c3.6-.1 7.3.2 10.8-.2 4.1-.7 8.3.1 12.5 0 3.6-.3 7.5-.2 10.8-2q2.4-1.6 4.1-3.8c.9-1 2-2.2 3.3-2.5 3.9-.3 6.2 8 11.7 8.4q3.2.1 6.6 0 3.8.1 7.5-.4 2.6-.6 5-1.4c3.9-.8 7.8 0 11.6.8 2.2.3 4.4 1 6.7 1 1.9 0 3.9-.5 5.8-.4 2.7.2 5.6 1 8.3 0 2.2-.7 4.4-2 6.7-2.4q2.8-.2 5.8-.5c6.8-1.3 4.9-2 11.6 1.3" class="b"/><path d="M12.5 20.4c3.6.7 7.2.4 10.8.3q2.9.2 5.8.2 3-.4 5.8-.5 9.6.6 19.1.5c3.4.1 6.7-.6 10-.6 4.7.3 9.5.8 14.1.1 9.4-1 11.4-11.3 15.8-9.7 3.7 2.3 5.3 7 9.2 9 2 1.1 4.4 1.1 6.6 1.2l7.5-.1q2.5-.4 5-1a43 43 0 0 1 12.5.5q2.8.6 5.8.6 2.4-.2 5-.5c2.7-.1 5.5 1 8.3.2s5.4-2.6 8.3-3.6q4.5-1.1 9.1-1.5c3.2-.1 5.6 2.6 8.3 3.8" class="b"/><path d="M12.5 18.2q4.5.7 9.1.4h5.9c2.4 0 5-1 7.4-.8a100 100 0 0 0 25.8 0c2.5-.3 5 .3 7.5.5 4.1.2 8.4.3 12.4-.9 7.7-2.2 10.2-11.1 15-8 3.5 2.6 5.5 7.4 10 8.6q3.7.8 7.4.6c3 .2 6.2-.3 9.2-.5q6.6-.1 13.3.5c2.7.2 5.5-.4 8.3-.5s5.6.6 8.3.5c2 0 4-.9 5.8-1.7l5.8-2.4c2.4-1 4.9-2.4 7.5-2 3.1 1 5.3 3.8 8.3 5" class="b"/><path d="M12.5 16.2q6.7.6 13.3.1c3-.3 6-2 9.1-1.2 3.8 1.2 7.8 1.1 11.7 1.3q4 .1 8.3 0c1.9-.1 3.9-.7 5.8-.9q2.5.2 5 .5h6.6c3-.3 6.2-.2 9.2-.8q3-.8 5.8-2.4c2.7-1.7 5.6-5.4 9.1-3.8 4.4 2.4 6 6.6 11.7 7.1q7 .6 14 .2c4.5 0 9 .3 13.4 0 2.4-.4 5-1 7.5-.7 3.3.2 6.6 1 10 .8q2.4-.3 5-1 2.5-.7 5-1.8c1.8-.8 3.7-2.1 5.7-2.7 1.9-.6 3.7.5 5 1.6a20 20 0 0 0 5.9 3.3" class="b"/><path d="M12.5 14.1q5 .4 10-.2 3-.5 5.8-1.8 3.8-2 7.5.1c3.8 2 8.3 1.5 12.4 2q6.3.2 12.5-.3 4 .3 8.3.2 4-.6 8.3-.5c4.9.1 9.1.1 13.3-2.8 7.2-4.7 8.6.8 15 2.5q3.7.7 7.4.7 6.3.4 12.5.3 4.1 0 8.3-.2c2-.3 3.9-1.1 5.8-1.2q3-.2 5.9.6 2.8.5 5.8.7a34 34 0 0 0 10-1c2.5-.8 4.8-2.3 7.4-2.8 1.8-.3 3.6.8 5 1.7q2.8 1.6 5.8 2" class="b"/></svg>